
<svg width="524" height="497" viewBox="0 0 524 497" fill="none" xmlns="http://www.w3.org/2000/svg">
<path fill-rule="evenodd" clip-rule="evenodd" d="M258.901 2.64228C298.227 -9.99047 335.95 26.039 374.915 39.7481C422.902 56.6314 490.061 48.5269 515.229 92.8257C540.441 137.202 504.835 192.517 489.351 241.17C477.467 278.511 449.716 306.858 435.492 343.368C418.018 388.221 434.355 450.366 396.368 479.839C359.504 508.441 302.817 496.055 258.901 480.381C219.921 466.47 206.703 413.916 168.312 398.449C119.87 378.932 51.2081 420.104 15.2106 382.2C-17.6976 347.549 11.9999 288.503 18.9445 241.17C25.0412 199.616 21.6308 149.652 53.3552 122.215C86.0309 93.9552 141.788 124.36 179.114 102.646C216.582 80.8497 217.647 15.8943 258.901 2.64228Z" fill="#B75400"/>
</svg>
