<svg width="400" height="389" viewBox="0 0 400 389" fill="none" xmlns="http://www.w3.org/2000/svg">
  <path d="M345.112 23.7529H38.9442C33.6152 23.7529 29.2951 28.073 29.2951 33.4021V249.531C29.2951 254.86 33.6152 259.18 38.9442 259.18H345.112C350.441 259.18 354.761 254.86 354.761 249.531V33.4021C354.761 28.073 350.441 23.7529 345.112 23.7529Z" fill="#BDBDBD" stroke="#212121" stroke-width="1.50103" stroke-miterlimit="10"/>
  <path d="M348.664 46.3662H35.3825V244.746H348.664V46.3662Z" fill="white" stroke="#212121" stroke-width="1.50103" stroke-miterlimit="10"/>
  <path d="M51.7703 202.765H144.976" stroke="#212121" stroke-linecap="round" stroke-linejoin="round"/>
  <path d="M67.201 212.02H144.976" stroke="#212121" stroke-linecap="round" stroke-linejoin="round"/>
  <path d="M51.7703 212.02H59.1699" stroke="#212121" stroke-linecap="round" stroke-linejoin="round"/>
  <path d="M51.7703 221.274H144.976" stroke="#212121" stroke-linecap="round" stroke-linejoin="round"/>
  <path d="M138.178 230.538H144.976" stroke="#212121" stroke-linecap="round" stroke-linejoin="round"/>
  <path d="M51.7703 230.538H130.157" stroke="#212121" stroke-linecap="round" stroke-linejoin="round"/>
  <path d="M268.412 62.5863H54.3651C51.2647 62.5863 48.7513 65.0997 48.7513 68.2002V129.42C48.7513 132.52 51.2647 135.034 54.3651 135.034H268.412C271.513 135.034 274.026 132.52 274.026 129.42V68.2002C274.026 65.0997 271.513 62.5863 268.412 62.5863Z" fill="#212121"/>
  <path d="M268.422 63.0795C269.094 63.0795 269.759 63.212 270.38 63.4695C271.001 63.7269 271.564 64.1043 272.039 64.5799C272.514 65.0555 272.89 65.6201 273.146 66.2413C273.403 66.8625 273.534 67.5281 273.533 68.2001V129.42C273.534 130.092 273.403 130.757 273.146 131.379C272.89 132 272.514 132.564 272.039 133.04C271.564 133.516 271.001 133.893 270.38 134.15C269.759 134.408 269.094 134.54 268.422 134.54H54.3256C52.9676 134.54 51.6651 134.001 50.7048 133.041C49.7446 132.08 49.2051 130.778 49.2051 129.42V68.2001C49.2051 66.842 49.7446 65.5396 50.7048 64.5793C51.6651 63.619 52.9676 63.0795 54.3256 63.0795H268.422ZM268.422 62.0929H54.3256C52.7067 62.0955 51.1548 62.7398 50.0101 63.8845C48.8653 65.0293 48.2211 66.5811 48.2184 68.2001V129.42C48.2211 131.039 48.8653 132.591 50.0101 133.735C51.1548 134.88 52.7067 135.524 54.3256 135.527H268.422C270.04 135.524 271.591 134.88 272.734 133.735C273.877 132.59 274.519 131.038 274.519 129.42V68.2001C274.519 66.5821 273.877 65.0302 272.734 63.8851C271.591 62.7401 270.04 62.0955 268.422 62.0929Z" fill="#212121"/>
  <path d="M228.513 63.0796C227.401 64.2415 226.064 65.1661 224.585 65.7977C223.106 66.4294 221.514 66.7551 219.905 66.7551C218.296 66.7551 216.704 66.4294 215.225 65.7977C213.745 65.1661 212.409 64.2415 211.297 63.0796H206.147L206.285 63.3164L204.42 65.2107C204.074 65.5599 203.88 66.0314 203.88 66.5229C203.88 67.0143 204.074 67.4859 204.42 67.8351L206.877 70.2918C207.048 70.4654 207.253 70.6032 207.478 70.6973C207.703 70.7914 207.945 70.8398 208.189 70.8398C208.433 70.8398 208.675 70.7914 208.9 70.6973C209.125 70.6032 209.329 70.4654 209.501 70.2918L211.395 68.3975C212.911 69.3569 214.579 70.0508 216.328 70.4496V73.1332C216.328 73.6252 216.524 74.097 216.872 74.4448C217.22 74.7927 217.691 74.9881 218.183 74.9881H221.656C222.148 74.9881 222.62 74.7927 222.968 74.4448C223.316 74.097 223.511 73.6252 223.511 73.1332V70.4496C225.26 70.0508 226.928 69.3569 228.444 68.3975L230.338 70.2918C230.51 70.4654 230.714 70.6032 230.94 70.6973C231.165 70.7914 231.407 70.8398 231.651 70.8398C231.895 70.8398 232.136 70.7914 232.362 70.6973C232.587 70.6032 232.791 70.4654 232.963 70.2918L235.42 67.8351C235.765 67.4859 235.959 67.0143 235.959 66.5229C235.959 66.0314 235.765 65.5599 235.42 65.2107L233.525 63.3164L233.663 63.0796H228.513Z" fill="#B75400"/>
  <path d="M140.645 133.623H137.961C137.563 131.874 136.869 130.206 135.909 128.69L137.803 126.795C137.977 126.624 138.115 126.419 138.209 126.194C138.303 125.969 138.351 125.727 138.351 125.483C138.351 125.239 138.303 124.997 138.209 124.772C138.115 124.547 137.977 124.343 137.803 124.171L135.357 121.695C135.184 121.521 134.979 121.383 134.753 121.288C134.527 121.194 134.284 121.146 134.039 121.146C133.795 121.146 133.552 121.194 133.326 121.288C133.1 121.383 132.895 121.521 132.722 121.695L130.828 123.589C129.312 122.631 127.644 121.937 125.895 121.537V118.853C125.892 118.36 125.695 117.889 125.345 117.541C124.996 117.193 124.523 116.998 124.03 116.998H120.557C120.064 116.998 119.592 117.193 119.242 117.541C118.893 117.889 118.695 118.36 118.693 118.853V121.537C116.944 121.937 115.276 122.631 113.76 123.589L111.865 121.695C111.694 121.521 111.489 121.383 111.264 121.289C111.039 121.195 110.797 121.147 110.553 121.147C110.309 121.147 110.067 121.195 109.842 121.289C109.617 121.383 109.412 121.521 109.241 121.695L106.745 124.151C106.571 124.323 106.433 124.527 106.339 124.752C106.245 124.978 106.197 125.219 106.197 125.463C106.197 125.708 106.245 125.949 106.339 126.175C106.433 126.4 106.571 126.604 106.745 126.776L108.639 128.67C107.68 130.186 106.986 131.854 106.587 133.603H103.903C103.581 133.602 103.264 133.687 102.985 133.848C102.706 134.009 102.475 134.241 102.315 134.521H110.592C111.196 131.878 112.68 129.519 114.799 127.83C116.918 126.14 119.549 125.22 122.259 125.22C124.97 125.22 127.6 126.14 129.719 127.83C131.839 129.519 133.322 131.878 133.926 134.521H142.263C142.098 134.24 141.861 134.009 141.576 133.851C141.292 133.694 140.97 133.615 140.645 133.623Z" fill="#B75400"/>
  <path d="M51.9972 112.302H55.4405C55.935 112.302 56.4093 112.105 56.759 111.756C57.1087 111.406 57.3052 110.932 57.3052 110.437V107.764C59.0538 107.364 60.7219 106.67 62.2383 105.711L64.1326 107.606C64.3042 107.779 64.5085 107.917 64.7338 108.011C64.959 108.105 65.2007 108.154 65.4448 108.154C65.6889 108.154 65.9306 108.105 66.1558 108.011C66.3811 107.917 66.5854 107.779 66.757 107.606L69.2531 105.129C69.4267 104.958 69.5646 104.753 69.6586 104.528C69.7527 104.303 69.8012 104.061 69.8012 103.817C69.8012 103.573 69.7527 103.331 69.6586 103.106C69.5646 102.881 69.4267 102.676 69.2531 102.505L67.3588 100.611C68.3182 99.0947 69.0122 97.4264 69.411 95.6774H72.0946C72.5865 95.6774 73.0583 95.482 73.4062 95.1341C73.754 94.7863 73.9494 94.3145 73.9494 93.8226V90.3299C73.9494 89.838 73.754 89.3662 73.4062 89.0184C73.0583 88.6705 72.5865 88.4751 72.0946 88.4751H69.411C69.0084 86.7273 68.3147 85.0597 67.3588 83.542L69.2531 81.6477C69.4267 81.4761 69.5646 81.2718 69.6586 81.0465C69.7527 80.8213 69.8012 80.5796 69.8012 80.3355C69.8012 80.0914 69.7527 79.8497 69.6586 79.6245C69.5646 79.3992 69.4267 79.1949 69.2531 79.0233L66.7965 76.5666C66.4473 76.2208 65.9757 76.0268 65.4842 76.0268C64.9928 76.0268 64.5212 76.2208 64.172 76.5666L62.2777 78.4905C60.7588 77.5393 59.0914 76.849 57.3446 76.4482V73.7646C57.3473 73.5147 57.2998 73.2668 57.2048 73.0357C57.1098 72.8045 56.9693 72.5949 56.7917 72.4191C56.6141 72.2433 56.4029 72.105 56.1708 72.0124C55.9387 71.9198 55.6903 71.8749 55.4405 71.8802H51.9676C51.4756 71.8802 51.0039 72.0756 50.656 72.4234C50.3081 72.7713 50.1127 73.2431 50.1127 73.735V76.4186C49.8069 76.4877 49.5109 76.5765 49.2149 76.6653V80.9965C50.2605 80.5637 51.3642 80.2877 52.4905 80.1776C54.3053 79.9766 56.1421 80.1932 57.8604 80.8108C59.5788 81.4283 61.1331 82.4306 62.4048 83.741C63.6764 85.0513 64.6316 86.6351 65.1973 88.3712C65.7631 90.1073 65.9244 91.9497 65.669 93.7577C65.4136 95.5657 64.7482 97.2914 63.7237 98.8028C62.6992 100.314 61.3427 101.571 59.7579 102.478C58.1731 103.385 56.4019 103.918 54.5797 104.035C52.7575 104.153 50.9326 103.852 49.2445 103.156V107.497C49.5405 107.586 49.8365 107.675 50.1423 107.744V110.418C50.1397 110.663 50.1857 110.907 50.2776 111.135C50.3696 111.363 50.5056 111.57 50.678 111.745C50.8504 111.92 51.0556 112.06 51.282 112.155C51.5084 112.251 51.7515 112.301 51.9972 112.302Z" fill="#B75400"/>
  <path d="M289.131 29.8799H133.482V39.4106H289.131V29.8799Z" fill="white" stroke="#212121" stroke-width="1.50103" stroke-miterlimit="10"/>
  <path d="M42.9203 28.3605L38.4312 32.6819L43.0881 37.6741" stroke="#212121" stroke-width="1.50103" stroke-linecap="round" stroke-linejoin="round"/>
  <path d="M38.4312 32.6818H48.4059" stroke="#212121" stroke-width="1.50103" stroke-linecap="round" stroke-linejoin="round"/>
  <path d="M68.3652 28.3605L72.8642 32.6819L68.1975 37.6741" stroke="#212121" stroke-width="1.50103" stroke-linecap="round" stroke-linejoin="round"/>
  <path d="M72.8543 32.6818H62.8796" stroke="#212121" stroke-width="1.50103" stroke-linecap="round" stroke-linejoin="round"/>
  <path d="M94.3035 32.1194C94.0161 31.1165 93.4182 30.2305 92.5956 29.5888C91.7731 28.947 90.7682 28.5826 89.7255 28.5479C89.006 28.5474 88.2969 28.7199 87.6579 29.0508C87.019 29.3817 86.469 29.8614 86.0542 30.4494C85.6395 31.0373 85.3721 31.7164 85.2747 32.4293C85.1773 33.1422 85.2527 33.8681 85.4946 34.5458C85.7364 35.2235 86.1376 35.8331 86.6644 36.3233C87.1911 36.8135 87.828 37.1699 88.5213 37.3624C89.2146 37.5549 89.9441 37.578 90.6482 37.4296C91.3522 37.2813 92.0104 36.9658 92.567 36.5099" stroke="#212121" stroke-width="1.50103" stroke-linecap="round" stroke-linejoin="round"/>
  <path d="M91.2745 32.6029H94.7671V28.4492" stroke="#212121" stroke-width="1.50103" stroke-linecap="round" stroke-linejoin="round"/>
  <path d="M118.091 31.1328L113.947 27.7783L110 31.1328V38.4338H118.091V31.1328Z" stroke="#212121" stroke-width="1.50103" stroke-linecap="round" stroke-linejoin="round"/>
  <path d="M115.526 33.1061H112.368V38.1674H115.526V33.1061Z" fill="#212121"/>
  <path d="M110 31.1328L107.633 33.3034" stroke="#212121" stroke-width="1.50103" stroke-linecap="round" stroke-linejoin="round"/>
  <path d="M118.091 31.1328L120.321 33.1159" stroke="#212121" stroke-width="1.50103" stroke-linecap="round" stroke-linejoin="round"/>
  <path d="M332.167 31.6261H344.648" stroke="#212121" stroke-width="1.50103" stroke-linecap="round" stroke-linejoin="round"/>
  <path d="M332.167 34.438H344.648" stroke="#212121" stroke-width="1.50103" stroke-linecap="round" stroke-linejoin="round"/>
  <path d="M332.167 37.2598H344.648" stroke="#212121" stroke-width="1.50103" stroke-linecap="round" stroke-linejoin="round"/>
  <path d="M332.167 40.0717H344.648" stroke="#212121" stroke-width="1.50103" stroke-linecap="round" stroke-linejoin="round"/>
  <g style="mix-blend-mode:multiply">
    <path d="M354.761 88.1692H151.517C150.531 88.1692 149.555 88.3634 148.644 88.7407C147.733 89.118 146.906 89.6711 146.208 90.3683C145.511 91.0655 144.958 91.8932 144.581 92.8041C144.203 93.715 144.009 94.6914 144.009 95.6774V152.122C144.009 153.108 144.203 154.084 144.581 154.995C144.958 155.906 145.511 156.734 146.208 157.431C146.906 158.128 147.733 158.681 148.644 159.058C149.555 159.436 150.531 159.63 151.517 159.63H354.761V88.1692Z" fill="#BDBDBD"/>
  </g>
  <path d="M342.231 230.272C341.885 217.446 342.882 195.454 331.595 186.417C321.729 178.524 313.974 189.249 311.192 197.931C304.443 219.015 307.62 242.279 307.63 264.034C307.63 264.36 307.63 264.695 307.63 265.021C307.097 281.024 305.173 298.359 306.92 314.352C306.92 314.352 305.203 298.349 292.624 305.206C280.044 312.063 298.918 348.094 298.918 348.094C298.918 348.094 284.05 337.241 277.213 346.377C270.375 355.513 285.786 365.814 285.786 365.814C285.786 365.814 271.49 361.818 271.49 365.814C271.49 369.81 276.068 373.253 289.249 374.96H360.148C360.148 374.96 371.583 368.675 369.294 361.818C367.005 354.961 354.998 358.957 354.998 358.957C354.998 358.957 373.299 336.659 372.155 326.931C371.01 317.203 347.48 328.608 347.48 328.608C347.48 328.608 365.771 282.297 362.348 261.716C359.645 245.506 347.055 256.595 340.208 262.831C341.828 252.057 342.505 241.163 342.231 230.272Z" fill="#B75400"/>
  <path opacity="0.5" d="M342.231 230.272C341.885 217.446 342.882 195.454 331.595 186.417C321.729 178.524 313.974 189.249 311.192 197.931C304.443 219.015 307.62 242.279 307.63 264.034C307.63 264.36 307.63 264.695 307.63 265.021C307.097 281.024 305.173 298.359 306.92 314.352C306.92 314.352 305.203 298.349 292.624 305.206C280.044 312.063 298.918 348.094 298.918 348.094C298.918 348.094 284.05 337.241 277.213 346.377C270.375 355.513 285.786 365.814 285.786 365.814C285.786 365.814 271.49 361.818 271.49 365.814C271.49 369.81 276.068 373.253 289.249 374.96H360.148C360.148 374.96 371.583 368.675 369.294 361.818C367.005 354.961 354.998 358.957 354.998 358.957C354.998 358.957 373.299 336.659 372.155 326.931C371.01 317.203 347.48 328.608 347.48 328.608C347.48 328.608 365.771 282.297 362.348 261.716C359.645 245.506 347.055 256.595 340.208 262.831C341.828 252.057 342.505 241.163 342.231 230.272Z" fill="white"/>
  <path d="M319.489 374.348L324.639 217.12" stroke="white" stroke-width="1.72695" stroke-linecap="round" stroke-linejoin="round"/>
  <path d="M322.35 308.6L349.226 283.441" stroke="white" stroke-width="1.72695" stroke-linecap="round" stroke-linejoin="round"/>
  <path d="M334.93 297.165L340.642 281.152" stroke="white" stroke-width="1.72695" stroke-linecap="round" stroke-linejoin="round"/>
  <path d="M300.053 328.036L320.634 350.334" stroke="white" stroke-width="1.72695" stroke-linecap="round" stroke-linejoin="round"/>
  <path d="M354.939 340.615L320.634 358.345" stroke="white" stroke-width="1.72695" stroke-linecap="round" stroke-linejoin="round"/>
  <path d="M336.646 350.906L349.226 350.334" stroke="white" stroke-width="1.72695" stroke-linecap="round" stroke-linejoin="round"/>
  <path d="M210.024 388.417C305.495 388.417 382.889 384.455 382.889 379.567C382.889 374.679 305.495 370.717 210.024 370.717C114.553 370.717 37.1584 374.679 37.1584 379.567C37.1584 384.455 114.553 388.417 210.024 388.417Z" fill="#BDBDBD"/>
  <path opacity="0.3" d="M210.024 388.417C305.495 388.417 382.889 384.455 382.889 379.567C382.889 374.679 305.495 370.717 210.024 370.717C114.553 370.717 37.1584 374.679 37.1584 379.567C37.1584 384.455 114.553 388.417 210.024 388.417Z" fill="white"/>
  <path d="M215.391 373.49C214.575 373.499 213.773 373.706 213.053 374.091C211.82 374.743 206.492 376.203 203.058 377.416C197.701 379.32 193.518 378.294 193.952 379.695C194.386 381.096 202.743 383.908 207.577 383.977C212.412 384.046 214.74 382.843 217.049 382.892C219.357 382.941 217.66 384.056 221.508 384.49C225.356 384.924 226.609 384.934 227.951 382.833C229.293 380.731 230.052 380.189 229.628 377.525V377.436C229.414 376.29 228.801 375.258 227.898 374.521C226.995 373.784 225.86 373.391 224.695 373.411L215.391 373.49Z" fill="#212121"/>
  <path d="M245.335 370.924C244.618 370.906 243.913 371.106 243.312 371.497C242.257 372.158 237.669 373.549 234.719 374.743C230.112 376.617 226.441 375.364 226.826 376.884C227.211 378.403 232.183 380.475 236.396 380.712C238.675 380.853 240.962 380.767 243.224 380.455C247.782 380.199 244.881 381.817 246.519 382.478C247.664 382.84 248.861 383.01 250.061 382.981C254.866 383.237 255.448 383.622 256.553 381.402C257.658 379.182 258.289 378.63 257.826 375.749V375.66C257.401 373.105 255.497 371.22 253.406 371.161L245.335 370.924Z" fill="#212121"/>
  <path d="M202.328 220.662C202.328 220.662 203.157 249.669 203.157 259.407C203.157 269.145 205.643 313.158 208.958 329.111C212.273 345.065 214.138 367.856 214.138 370.342C214.138 372.828 213.309 373.45 214.967 375.108C216.624 376.765 222.86 379.873 225.129 378.837C227.398 377.801 228.651 373.904 228.651 373.904C228.651 373.904 228.651 352.356 229.273 338.267C229.894 324.178 228.858 305.709 228.858 305.709C228.858 305.709 236.939 343.013 239.218 350.472C241.497 357.931 243.362 371.457 243.776 374.151C244.19 376.844 246.006 376.933 248.324 376.933C251.107 376.933 254.55 376.578 255.793 374.506C257.036 372.434 254.343 350.679 254.343 341.947C254.343 333.216 247.506 279.287 248.127 265.978C248.749 252.668 252.685 229.719 251.442 222.882C250.703 218.86 250.287 214.786 250.199 210.697C250.199 210.697 207.508 205.764 202.328 220.662Z" fill="#212121" stroke="#212121" stroke-miterlimit="10"/>
  <path d="M204.824 223.918C205.515 226.492 206.412 229.007 207.508 231.436C208.301 233.114 209.607 234.496 211.237 235.383" stroke="white" stroke-miterlimit="10"/>
  <path d="M218.233 367.984C218.44 370.91 218.384 373.849 218.065 376.765" stroke="white" stroke-miterlimit="10"/>
  <path d="M212.066 254C212.648 276.554 213.753 314.924 214.76 324.139C215.884 334.35 216.881 349.979 217.562 359.46" stroke="white" stroke-miterlimit="10"/>
  <path d="M211.168 224.234C210.961 224.855 211.652 237.238 211.652 237.238C211.652 237.238 211.751 241.421 211.918 247.972" stroke="white" stroke-miterlimit="10"/>
  <path d="M153.846 142.483C153.846 142.483 153.639 137.55 154.675 138.753C155.711 139.957 155.918 142.276 156.332 144.555C156.332 144.555 156.954 140.204 157.575 141.447C158.251 142.997 158.467 144.71 158.197 146.38C158.066 148.747 158.567 151.107 159.647 153.217C160.476 154.46 155.296 150.977 153.846 142.483Z" fill="white" stroke="#212121" stroke-miterlimit="10"/>
  <path d="M309.791 148.975C309.791 148.975 312.751 144.969 311.192 145.423C309.633 145.877 308.232 147.653 306.574 149.31C306.574 149.31 308.488 145.364 307.275 146.035C305.836 146.951 304.692 148.263 303.98 149.813C302.768 151.85 301.034 153.525 298.958 154.667C297.576 155.24 303.841 155.21 309.791 148.975Z" fill="white" stroke="#212121" stroke-linecap="round" stroke-linejoin="round"/>
  <path d="M312.948 82.8021V80.306C312.949 80.1302 312.916 79.956 312.849 79.7933C312.783 79.6305 312.685 79.4825 312.561 79.3578C312.438 79.2331 312.29 79.1341 312.128 79.0665C311.966 78.999 311.792 78.9642 311.616 78.9642H309.643C309.355 77.7031 308.859 76.4991 308.173 75.4025L309.534 74.041C309.785 73.7895 309.926 73.4489 309.926 73.0938C309.926 72.7387 309.785 72.3981 309.534 72.1466L307.768 70.3806C307.517 70.13 307.176 69.9892 306.821 69.9892C306.466 69.9892 306.125 70.13 305.874 70.3806L304.512 71.7421C303.414 71.0523 302.206 70.5551 300.941 70.2721V68.2988C300.942 68.1231 300.909 67.9488 300.842 67.7861C300.776 67.6234 300.678 67.4754 300.554 67.3506C300.43 67.2259 300.283 67.1269 300.121 67.0594C299.959 66.9918 299.785 66.957 299.609 66.957H297.162C296.808 66.9596 296.469 67.1022 296.22 67.3535C295.97 67.6049 295.83 67.9447 295.83 68.2988V70.2721C294.567 70.5532 293.362 71.0505 292.269 71.7421L290.897 70.3806C290.773 70.2568 290.627 70.1586 290.465 70.0916C290.303 70.0246 290.13 69.9901 289.955 69.9901C289.78 69.9901 289.607 70.0246 289.445 70.0916C289.283 70.1586 289.136 70.2568 289.013 70.3806L287.296 72.1466C287.045 72.3981 286.905 72.7387 286.905 73.0938C286.905 73.4489 287.045 73.7895 287.296 74.041L288.657 75.4025C287.969 76.4987 287.468 77.7026 287.178 78.9642H285.254C284.898 78.9642 284.556 79.1056 284.305 79.3572C284.053 79.6088 283.912 79.9501 283.912 80.306V82.8021C283.912 82.9783 283.947 83.1528 284.014 83.3156C284.081 83.4784 284.18 83.6263 284.305 83.7509C284.429 83.8755 284.577 83.9744 284.74 84.0418C284.903 84.1092 285.077 84.1439 285.254 84.1439H287.178C287.468 85.4055 287.969 86.6094 288.657 87.7056L287.296 89.0672C287.045 89.3187 286.905 89.6592 286.905 90.0143C286.905 90.3694 287.045 90.71 287.296 90.9615L289.062 92.7275C289.186 92.8513 289.333 92.9495 289.494 93.0165C289.656 93.0835 289.829 93.118 290.004 93.118C290.179 93.118 290.353 93.0835 290.514 93.0165C290.676 92.9495 290.823 92.8513 290.946 92.7275L292.318 91.366C293.413 92.0566 294.617 92.5569 295.88 92.8459V94.7698C295.88 95.124 296.02 95.4638 296.269 95.7151C296.519 95.9665 296.857 96.109 297.211 96.1116H299.717C299.893 96.1116 300.067 96.0768 300.229 96.0093C300.392 95.9417 300.539 95.8427 300.663 95.718C300.787 95.5933 300.885 95.4453 300.951 95.2826C301.017 95.1198 301.051 94.9456 301.049 94.7698V92.8459C302.314 92.5551 303.521 92.0549 304.621 91.366L305.983 92.7275C306.234 92.9781 306.575 93.1189 306.93 93.1189C307.285 93.1189 307.625 92.9781 307.877 92.7275L309.643 90.9615C309.893 90.71 310.034 90.3694 310.034 90.0143C310.034 89.6592 309.893 89.3187 309.643 89.0672L308.281 87.7056C308.967 86.609 309.464 85.405 309.751 84.1439H311.725C312.06 84.1165 312.373 83.9628 312.6 83.7138C312.827 83.4648 312.952 83.1391 312.948 82.8021ZM298.978 87.2419C297.801 87.3661 296.616 87.1229 295.584 86.5456C294.551 85.9684 293.723 85.0856 293.213 84.0185C292.704 82.9514 292.537 81.7526 292.736 80.5869C292.935 79.4211 293.491 78.3458 294.326 77.5087C295.162 76.6717 296.236 76.114 297.401 75.9125C298.567 75.7109 299.766 75.8754 300.834 76.3833C301.902 76.8911 302.786 77.7174 303.366 78.7485C303.945 79.7796 304.19 80.9648 304.068 82.1411C303.936 83.4437 303.36 84.6613 302.436 85.5898C301.513 86.5184 300.299 87.1017 298.997 87.2419H298.978Z" fill="white" stroke="#212121" stroke-linecap="round" stroke-linejoin="round"/>
  <path d="M192.886 151.954V149.448C192.886 149.273 192.852 149.099 192.784 148.936C192.717 148.774 192.618 148.627 192.493 148.503C192.368 148.379 192.22 148.281 192.057 148.215C191.895 148.149 191.72 148.115 191.545 148.116H189.571C189.298 146.87 188.814 145.678 188.141 144.594L189.502 143.223C189.626 143.099 189.724 142.952 189.791 142.79C189.858 142.629 189.893 142.456 189.893 142.281C189.893 142.106 189.858 141.932 189.791 141.771C189.724 141.609 189.626 141.462 189.502 141.338L187.736 139.562C187.485 139.312 187.144 139.171 186.789 139.171C186.434 139.171 186.093 139.312 185.842 139.562L184.48 140.934C183.384 140.245 182.18 139.745 180.919 139.454V137.481C180.916 137.126 180.774 136.788 180.522 136.538C180.271 136.289 179.931 136.149 179.577 136.149H177.081C176.727 136.149 176.387 136.289 176.135 136.538C175.884 136.788 175.742 137.126 175.739 137.481V139.454C174.477 139.745 173.273 140.245 172.177 140.934L170.816 139.562C170.564 139.312 170.224 139.171 169.869 139.171C169.513 139.171 169.173 139.312 168.921 139.562L167.155 141.338C167.032 141.462 166.933 141.609 166.866 141.771C166.799 141.932 166.765 142.106 166.765 142.281C166.765 142.456 166.799 142.629 166.866 142.79C166.933 142.952 167.032 143.099 167.155 143.223L168.517 144.594C167.826 145.689 167.326 146.894 167.037 148.156H165.064C164.888 148.155 164.714 148.188 164.551 148.254C164.388 148.321 164.24 148.419 164.116 148.542C163.991 148.666 163.892 148.814 163.824 148.976C163.757 149.138 163.722 149.312 163.722 149.488V151.994C163.722 152.17 163.757 152.344 163.824 152.506C163.892 152.668 163.991 152.815 164.116 152.939C164.24 153.063 164.388 153.161 164.551 153.227C164.714 153.294 164.888 153.327 165.064 153.326H167.037C167.328 154.59 167.828 155.798 168.517 156.897L167.155 158.259C166.905 158.51 166.764 158.851 166.764 159.206C166.764 159.561 166.905 159.902 167.155 160.153L168.921 161.919C169.173 162.17 169.513 162.311 169.869 162.311C170.224 162.311 170.564 162.17 170.816 161.919L172.177 160.548C173.273 161.237 174.477 161.737 175.739 162.028V164.001C175.739 164.177 175.774 164.351 175.841 164.513C175.909 164.675 176.008 164.822 176.133 164.946C176.257 165.07 176.405 165.168 176.568 165.234C176.731 165.301 176.905 165.334 177.081 165.333H179.577C179.753 165.334 179.927 165.301 180.09 165.234C180.252 165.168 180.4 165.07 180.525 164.946C180.65 164.822 180.749 164.675 180.816 164.513C180.884 164.351 180.919 164.177 180.919 164.001V162.028C182.18 161.737 183.384 161.237 184.48 160.548L185.842 161.919C186.093 162.17 186.434 162.311 186.789 162.311C187.144 162.311 187.485 162.17 187.736 161.919L189.502 160.153C189.753 159.902 189.894 159.561 189.894 159.206C189.894 158.851 189.753 158.51 189.502 158.259L188.141 156.897C188.831 155.799 189.328 154.591 189.611 153.326H191.584C191.76 153.322 191.933 153.283 192.094 153.212C192.255 153.141 192.4 153.039 192.521 152.911C192.642 152.784 192.737 152.634 192.799 152.469C192.862 152.305 192.892 152.13 192.886 151.954ZM178.936 156.582C177.719 156.71 176.493 156.458 175.425 155.86C174.358 155.263 173.501 154.35 172.974 153.246C172.447 152.142 172.275 150.902 172.481 149.696C172.687 148.49 173.262 147.378 174.126 146.512C174.99 145.647 176.101 145.07 177.307 144.861C178.512 144.653 179.752 144.823 180.857 145.348C181.962 145.873 182.877 146.728 183.476 147.794C184.076 148.86 184.33 150.086 184.204 151.303C184.064 152.654 183.465 153.915 182.506 154.876C181.546 155.837 180.286 156.439 178.936 156.582Z" fill="white" stroke="#212121" stroke-linecap="round" stroke-linejoin="round"/>
  <path d="M365.436 80.4146H156.164C152.018 80.4146 148.656 83.7761 148.656 87.9227V144.367C148.656 148.514 152.018 151.875 156.164 151.875H365.436C369.583 151.875 372.944 148.514 372.944 144.367V87.9227C372.944 83.7761 369.583 80.4146 365.436 80.4146Z" fill="white" stroke="#212121" stroke-linecap="round" stroke-linejoin="round"/>
  <path d="M365.949 99.1997H163.495" stroke="#212121" stroke-linecap="round" stroke-linejoin="round"/>
  <path d="M365.949 114.857H163.495" stroke="#212121" stroke-linecap="round" stroke-linejoin="round"/>
  <path d="M365.949 130.515H163.495" stroke="#212121" stroke-linecap="round" stroke-linejoin="round"/>
  <path d="M169.168 164.021C169.168 164.021 166.731 161.939 166.435 161.061C166.165 159.672 165.765 158.311 165.241 156.996C164.393 155.151 161.295 153.503 160.308 151.313C159.322 149.123 158.009 145.285 157.348 144.545C156.687 143.805 155.71 144.14 155.375 146.212C155.04 148.284 158.917 153.365 159.164 154.105C159.41 154.845 155.109 153.562 152.346 151.787C149.584 150.011 147.887 146.311 146.219 143.963C144.552 141.615 143.19 143.262 143.259 144.614C143.328 145.966 148.291 153.592 149.248 156.374C150.205 159.157 153.392 162.146 155.168 163.665C156.944 165.185 160.841 165.797 160.841 165.797L163.455 168.401L169.168 164.021Z" fill="white" stroke="#212121" stroke-miterlimit="10"/>
  <path d="M161.719 174.804L158.197 167.138C158.889 166.138 159.78 165.291 160.814 164.65C161.847 164.008 163.002 163.586 164.205 163.409C168.556 162.58 169.138 163.409 169.138 163.409L171.417 171.302C171.417 171.302 163.969 171.904 161.719 174.804Z" fill="#B75400" stroke="#212121" stroke-linecap="round" stroke-linejoin="round"/>
  <path d="M195.905 148.541C195.905 148.541 185.339 178.79 183.888 182.727C183.513 183.713 182.793 185.391 181.915 187.305C180.07 184.098 175.995 177.024 174.782 174.025C173.124 170.078 170.835 169.092 167.116 169.467C163.396 169.842 160.071 173.818 160.071 176.718C160.071 182.214 164.935 189.544 167.086 194.477C169.395 199.707 170.944 201.66 174.841 206.031C179.774 211.566 185.368 209.652 189.147 204.265C192.048 200.121 199.437 185.036 199.437 185.036C199.437 185.036 197.563 153.257 195.905 148.541Z" fill="#B75400" stroke="#212121" stroke-linecap="round" stroke-linejoin="round"/>
  <path d="M181.905 187.255C181.905 187.255 177.821 193.126 177.436 196.234" stroke="#212121" stroke-linecap="round" stroke-linejoin="round"/>
  <path d="M284.257 160.153C284.257 160.153 287.148 158.772 287.661 158.012C288.277 156.734 289.014 155.519 289.861 154.381C291.154 152.823 294.617 152.043 296.126 150.168C297.636 148.294 299.895 144.939 300.743 144.407C301.592 143.874 302.431 144.407 302.243 146.528C302.056 148.649 296.984 152.527 296.57 153.138C296.156 153.75 301.355 151.944 304.562 152.605C307.768 153.266 311.586 151.826 314.428 151.323C317.269 150.82 317.082 152.941 316.115 153.878C315.148 154.815 306.249 156.769 303.605 158.081C300.961 159.393 298.672 160.419 296.491 161.416C294.925 162.187 293.407 163.05 291.943 164.001L288.746 165.846L284.257 160.153Z" fill="white" stroke="#212121" stroke-linecap="round" stroke-linejoin="round"/>
  <path d="M291.242 171.706L294.765 164.04C294.072 163.04 293.181 162.193 292.148 161.552C291.114 160.91 289.96 160.488 288.756 160.311C284.405 159.482 283.823 160.311 283.823 160.311L281.544 168.204C281.544 168.204 289.003 168.806 291.242 171.706Z" fill="#B75400" stroke="#212121" stroke-miterlimit="10"/>
  <path d="M285.895 166.3C282.165 165.885 279.886 166.921 278.229 170.858C276.966 173.818 272.95 180.931 271.096 184.138C270.208 182.224 269.487 180.586 269.122 179.56C267.672 175.613 257.105 145.373 257.105 145.373C255.448 150.139 253.583 181.878 253.583 181.878C253.583 181.878 261.476 196.954 264.436 201.108C266.143 203.544 267.494 205.804 270.622 206.268C279.817 207.639 282.57 198.986 285.421 192.593C287.207 188.558 288.983 184.513 290.641 180.418C291.45 178.445 292.989 175.791 292.989 173.591C292.939 170.67 289.624 166.734 285.895 166.3Z" fill="#B75400" stroke="#212121" stroke-linecap="round" stroke-linejoin="round"/>
  <path d="M271.096 184.157C271.096 184.157 275.239 190.018 276.029 193.126" stroke="#212121" stroke-linecap="round" stroke-linejoin="round"/>
  <path d="M212.313 92.9545C212.313 92.9545 209.412 103.728 210.034 104.794C210.655 105.859 212.106 105.415 211.277 107.487C210.448 109.559 208.583 113.506 208.998 115.163C209.412 116.821 211.691 118.064 211.691 118.064C211.691 118.064 212.727 125.523 213.763 126.943C214.799 128.364 220.393 127.565 220.393 127.565L220.808 133.159L237.393 132.173L236.771 122.227L235.942 91.5535L212.313 92.9545Z" fill="white"/>
  <g style="mix-blend-mode:multiply" opacity="0.5">
    <path d="M220.354 127.565L220.768 133.159L237.353 132.173L236.732 122.227L236.376 109.322C234.216 109.322 232.243 109.411 231.631 109.411C230.121 109.411 226.826 109.155 226.066 109.411C225.307 109.668 224.3 109.914 224.3 109.914L220.512 113.96C220.512 113.96 220.758 119.268 218.992 122.05C217.512 124.378 213.625 125.296 213.408 126.351C213.497 126.573 213.603 126.787 213.724 126.993C213.921 127.141 214.138 127.299 214.375 127.457C216.171 128.177 220.354 127.565 220.354 127.565Z" fill="#BDBDBD"/>
  </g>
  <path d="M212.313 92.9545C212.313 92.9545 209.412 103.728 210.034 104.794C210.655 105.859 212.106 105.415 211.277 107.487C210.448 109.559 208.583 113.506 208.998 115.163C209.412 116.821 211.691 118.064 211.691 118.064C211.691 118.064 212.727 125.523 213.763 126.943C214.799 128.364 220.393 127.565 220.393 127.565L220.808 133.159L237.393 132.173L236.771 122.227L235.942 91.5535L212.313 92.9545Z" stroke="#212121" stroke-miterlimit="10"/>
  <path d="M213.793 107.882C213.793 108.721 213.487 109.392 213.112 109.392C212.737 109.392 212.421 108.721 212.421 107.882C212.421 107.043 212.727 106.372 213.112 106.372C213.497 106.372 213.793 107.043 213.793 107.882Z" fill="#212121"/>
  <path d="M232.174 84.6668C231.187 84.8247 223.294 84.6668 217.039 85.7028C210.784 86.7387 208.958 87.1531 209.146 89.8466C209.333 92.54 208.732 93.576 211.011 94.6119C211.98 95.121 213.033 95.455 214.118 95.5986C214.118 95.5986 213.497 98.4992 213.29 100.532C213.083 102.564 216.812 104.883 216.812 104.883C216.693 106.27 216.763 107.667 217.019 109.036C217.433 110.023 218.469 110.279 219.091 109.451C219.713 108.622 220.127 104.675 220.749 106.333C221.37 107.991 223.856 120.432 225.524 121.882C227.191 123.332 234.64 122.504 236.712 122.089C238.784 121.675 242.721 112.973 244.605 107.783C246.489 102.594 245.592 93.4872 242.947 89.3434C240.303 85.1996 234.867 84.2525 232.174 84.6668Z" fill="white" stroke="#212121" stroke-miterlimit="10"/>
  <path d="M243.579 90.5964C242.839 92.5696 242.079 95.0362 239.978 95.194C236.692 95.4505 236.692 91.1489 234.413 89.6295C232.134 88.1101 235.933 97.2166 234.167 94.6909C232.4 92.1651 227.842 89.6295 223.797 89.3828C219.752 89.1362 226.066 96.7134 224.557 96.7134C223.047 96.7134 220.512 91.9086 220.512 90.6457C220.512 89.3829 216.713 89.3434 212.412 89.3434C208.11 89.3434 209.886 91.8691 209.886 93.3885C209.887 93.605 209.949 93.8168 210.063 94.0002C210.368 94.2302 210.699 94.4223 211.05 94.5725C212.02 95.0815 213.072 95.4155 214.158 95.5591C214.158 95.5591 213.536 98.4597 213.329 100.492C213.122 102.525 216.851 104.843 216.851 104.843C216.733 106.231 216.802 107.628 217.059 108.997C217.473 109.983 218.509 110.24 219.13 109.411C219.752 108.582 220.166 104.636 220.788 106.293C221.41 107.951 223.896 120.392 225.563 121.843C227.231 123.293 234.68 122.464 236.751 122.05C238.823 121.635 242.76 112.933 244.644 107.744C246.312 103.156 245.749 95.0954 243.579 90.5964Z" fill="#212121"/>
  <path d="M216.832 132.538L212.273 140.825C212.273 140.825 223.669 137.51 229.894 137.51C234.271 137.589 238.635 138.004 242.947 138.753L240.047 130.673C240.047 130.673 224.29 129.015 216.832 132.538Z" fill="#B75400" stroke="#212121" stroke-miterlimit="10"/>
  <path d="M213.931 139.789C213.931 139.789 206.472 143.736 202.092 145.798C200.069 146.805 197.994 147.704 195.876 148.491C195.876 148.491 201.056 214.447 201.056 217.969C201.056 221.491 200.848 221.698 202.092 222.734C203.335 223.77 209.767 224.244 221.163 224.037C232.558 223.829 246.815 221.491 247.89 221.491C248.728 221.431 249.539 221.175 250.259 220.743C250.979 220.311 251.587 219.715 252.034 219.005C253.277 217.14 257.214 146.834 257.421 145.995C257.628 145.156 243.747 139.158 242.296 138.743C240.846 138.329 232.588 132.755 213.931 139.789Z" fill="#B75400" stroke="#212121" stroke-miterlimit="10"/>
  <path d="M239.05 192.593C237.746 193.783 236.351 194.868 234.877 195.839" stroke="#212121" stroke-linecap="round" stroke-linejoin="round"/>
  <path d="M254.284 165.57C254.284 165.57 251.403 178.287 242.997 188.439" stroke="#212121" stroke-linecap="round" stroke-linejoin="round"/>
  <path d="M218.992 106.323C219.267 108.253 219.435 110.196 219.495 112.144C219.495 114.413 217.976 115.676 218.992 116.692C220.008 117.709 220.758 117.196 221.518 115.43C222.334 113.337 222.671 111.089 222.505 108.849C222.278 107.103 222.021 103.284 218.992 106.323Z" fill="white" stroke="#212121" stroke-miterlimit="10"/>
  <path d="M230.151 311.767L235.706 254.977L244.348 244.479" stroke="white" stroke-miterlimit="10"/>
</svg>
