<svg width="400" height="329" viewBox="0 0 400 329" fill="none" xmlns="http://www.w3.org/2000/svg">
  <path d="M45.1569 65.5646C29.6961 86.3489 19.7549 116.888 27.2941 142.467C40.1765 186.182 94.8431 189.476 132.284 194.535C158.088 198.025 183.745 218.31 205.814 230.898C235.225 247.682 282.539 274.163 316.461 256.967C344.578 242.721 359.696 208.261 368.324 179.672C381.843 134.908 383.147 80.9077 353.716 41.9077C313.657 -11.0335 243.578 -2.20994 185.353 6.84889C146.382 12.9175 108.5 18.8293 73.8529 39.4861C62.6667 46.2086 52.9154 55.0704 45.1569 65.5646Z" fill="#B75400"/>
  <path opacity="0.4" d="M45.1569 65.5646C29.6961 86.3489 19.7549 116.888 27.2941 142.467C40.1765 186.182 94.8431 189.476 132.284 194.535C158.088 198.025 183.745 218.31 205.814 230.898C235.225 247.682 282.539 274.163 316.461 256.967C344.578 242.721 359.696 208.261 368.324 179.672C381.843 134.908 383.147 80.9077 353.716 41.9077C313.657 -11.0335 243.578 -2.20994 185.353 6.84889C146.382 12.9175 108.5 18.8293 73.8529 39.4861C62.6667 46.2086 52.9154 55.0704 45.1569 65.5646Z" fill="white"/>
  <path d="M0 315.329C0 318.819 89.5196 321.653 200 321.653C310.48 321.653 400 318.819 400 315.329C400 311.839 310.48 309.006 200.049 309.006C89.6177 309.006 0 311.839 0 315.329Z" fill="#BDBDBD"/>
  <path opacity="0.6" d="M0 315.329C0 318.819 89.5196 321.653 200 321.653C310.48 321.653 400 318.819 400 315.329C400 311.839 310.48 309.006 200.049 309.006C89.6177 309.006 0 311.839 0 315.329Z" fill="white"/>
  <path d="M222.569 2.10382H44.9706V227.378H222.569V2.10382Z" fill="white" stroke="#212121" stroke-width="0.75" stroke-linecap="round" stroke-linejoin="round"/>
  <path d="M222.569 2.10382H44.9706V15.545H222.569V2.10382Z" fill="#B75400" stroke="#212121" stroke-width="0.75" stroke-linecap="round" stroke-linejoin="round"/>
  <path d="M80.049 159.221H50.0294V222.937H80.049V159.221Z" fill="#BDBDBD"/>
  <path opacity="0.6" d="M80.049 159.221H50.0294V222.937H80.049V159.221Z" fill="white"/>
  <path d="M112.784 159.221H82.7647V222.937H112.784V159.221Z" fill="#BDBDBD"/>
  <path opacity="0.6" d="M112.784 159.221H82.7647V222.937H112.784V159.221Z" fill="white"/>
  <path d="M147.569 159.221H117.549V222.937H147.569V159.221Z" fill="#BDBDBD"/>
  <path opacity="0.6" d="M147.569 159.221H117.549V222.937H147.569V159.221Z" fill="white"/>
  <path d="M182.343 159.221H152.323V222.937H182.343V159.221Z" fill="#BDBDBD"/>
  <path opacity="0.6" d="M182.343 159.221H152.323V222.937H182.343V159.221Z" fill="white"/>
  <path d="M217.971 159.221H187.951V222.937H217.971V159.221Z" fill="white" stroke="#212121" stroke-width="0.75" stroke-linecap="round" stroke-linejoin="round"/>
  <path d="M217.49 7.41754H50.0392V22.8587H217.49V7.41754Z" fill="#BDBDBD"/>
  <path opacity="0.6" d="M217.49 7.41754H50.0392V22.8587H217.49V7.41754Z" fill="white"/>
  <path d="M215.137 10.4175H53.049V17.2509H215.137V10.4175Z" fill="white"/>
  <path d="M215.127 10.4175H196.775V17.2509H215.127V10.4175Z" fill="#B75400" stroke="#212121" stroke-width="0.75" stroke-linecap="round" stroke-linejoin="round"/>
  <path d="M124.569 36.7019H90.2549C89.9038 36.7019 89.5672 36.5624 89.319 36.3142C89.0708 36.066 88.9313 35.7294 88.9313 35.3783C88.9313 35.0273 89.0708 34.6907 89.319 34.4425C89.5672 34.1943 89.9038 34.0548 90.2549 34.0548H124.569C124.92 34.0548 125.256 34.1943 125.504 34.4425C125.753 34.6907 125.892 35.0273 125.892 35.3783C125.892 35.7294 125.753 36.066 125.504 36.3142C125.256 36.5624 124.92 36.7019 124.569 36.7019Z" fill="#212121"/>
  <path d="M124.569 45.9273H90.2549C90.0721 45.9431 89.8881 45.9207 89.7145 45.8616C89.5409 45.8025 89.3815 45.7079 89.2463 45.584C89.1112 45.46 89.0033 45.3093 88.9295 45.1414C88.8556 44.9735 88.8175 44.7921 88.8175 44.6087C88.8175 44.4253 88.8556 44.2439 88.9295 44.076C89.0033 43.9081 89.1112 43.7574 89.2463 43.6334C89.3815 43.5094 89.5409 43.4149 89.7145 43.3558C89.8881 43.2967 90.0721 43.2743 90.2549 43.2901H124.569C124.899 43.3185 125.206 43.4698 125.43 43.714C125.654 43.9581 125.778 44.2774 125.778 44.6087C125.778 44.94 125.654 45.2593 125.43 45.5034C125.206 45.7476 124.899 45.8988 124.569 45.9273Z" fill="#212121"/>
  <path d="M124.569 55.1627H90.2549C89.9038 55.1627 89.5672 55.0232 89.319 54.775C89.0708 54.5268 88.9313 54.1902 88.9313 53.8391C88.9313 53.4881 89.0708 53.1515 89.319 52.9033C89.5672 52.6551 89.9038 52.5156 90.2549 52.5156H124.569C124.92 52.5156 125.256 52.6551 125.504 52.9033C125.753 53.1515 125.892 53.4881 125.892 53.8391C125.892 54.1902 125.753 54.5268 125.504 54.775C125.256 55.0232 124.92 55.1627 124.569 55.1627Z" fill="#212121"/>
  <path d="M124.569 64.3881H53.353C53.0229 64.3596 52.7155 64.2084 52.4915 63.9642C52.2675 63.7201 52.1432 63.4008 52.1432 63.0695C52.1432 62.7382 52.2675 62.4189 52.4915 62.1747C52.7155 61.9306 53.0229 61.7793 53.353 61.7509H124.569C124.899 61.7793 125.206 61.9306 125.43 62.1747C125.654 62.4189 125.778 62.7382 125.778 63.0695C125.778 63.4008 125.654 63.7201 125.43 63.9642C125.206 64.2084 124.899 64.3596 124.569 64.3881Z" fill="#212121"/>
  <path d="M124.569 73.6234H53.353C53.0019 73.6234 52.6653 73.4839 52.4171 73.2357C52.1689 72.9875 52.0294 72.6509 52.0294 72.2999C52.0294 71.9488 52.1689 71.6122 52.4171 71.364C52.6653 71.1158 53.0019 70.9763 53.353 70.9763H124.569C124.92 70.9763 125.256 71.1158 125.505 71.364C125.753 71.6122 125.892 71.9488 125.892 72.2999C125.892 72.6509 125.753 72.9875 125.505 73.2357C125.256 73.4839 124.92 73.6234 124.569 73.6234Z" fill="#212121"/>
  <path d="M124.569 82.8587H53.353C53.0019 82.8587 52.6653 82.7193 52.4171 82.4711C52.1689 82.2229 52.0294 81.8862 52.0294 81.5352C52.0294 81.1842 52.1689 80.8475 52.4171 80.5993C52.6653 80.3511 53.0019 80.2117 53.353 80.2117H124.569C124.92 80.2117 125.256 80.3511 125.505 80.5993C125.753 80.8475 125.892 81.1842 125.892 81.5352C125.892 81.8862 125.753 82.2229 125.505 82.4711C125.256 82.7193 124.92 82.8587 124.569 82.8587Z" fill="#212121"/>
  <path d="M124.569 92.0842H53.353C53.0229 92.0557 52.7155 91.9045 52.4915 91.6603C52.2675 91.4162 52.1432 91.0969 52.1432 90.7656C52.1432 90.4343 52.2675 90.115 52.4915 89.8708C52.7155 89.6267 53.0229 89.4754 53.353 89.447H124.569C124.899 89.4754 125.206 89.6267 125.43 89.8708C125.654 90.115 125.778 90.4343 125.778 90.7656C125.778 91.0969 125.654 91.4162 125.43 91.6603C125.206 91.9045 124.899 92.0557 124.569 92.0842Z" fill="#212121"/>
  <path d="M124.569 100.29H53.353C53.0229 100.262 52.7155 100.11 52.4915 99.8662C52.2675 99.622 52.1432 99.3028 52.1432 98.9715C52.1432 98.6401 52.2675 98.3209 52.4915 98.0767C52.7155 97.8326 53.0229 97.6813 53.353 97.6528H124.569C124.899 97.6813 125.206 97.8326 125.43 98.0767C125.654 98.3209 125.778 98.6401 125.778 98.9715C125.778 99.3028 125.654 99.622 125.43 99.8662C125.206 100.11 124.899 100.262 124.569 100.29Z" fill="#212121"/>
  <path d="M124.569 109.555H53.353C53.0019 109.555 52.6653 109.415 52.4171 109.167C52.1689 108.919 52.0294 108.582 52.0294 108.231C52.0294 107.88 52.1689 107.544 52.4171 107.295C52.6653 107.047 53.0019 106.908 53.353 106.908H124.569C124.92 106.908 125.256 107.047 125.505 107.295C125.753 107.544 125.892 107.88 125.892 108.231C125.892 108.582 125.753 108.919 125.505 109.167C125.256 109.415 124.92 109.555 124.569 109.555Z" fill="#212121"/>
  <path d="M124.569 118.751H53.353C53.0229 118.722 52.7155 118.571 52.4915 118.327C52.2675 118.083 52.1432 117.764 52.1432 117.432C52.1432 117.101 52.2675 116.782 52.4915 116.537C52.7155 116.293 53.0229 116.142 53.353 116.114H124.569C124.899 116.142 125.206 116.293 125.43 116.537C125.654 116.782 125.778 117.101 125.778 117.432C125.778 117.764 125.654 118.083 125.43 118.327C125.206 118.571 124.899 118.722 124.569 118.751Z" fill="#212121"/>
  <path d="M124.569 127.986H53.353C53.0019 127.986 52.6653 127.847 52.4171 127.599C52.1689 127.35 52.0294 127.014 52.0294 126.663C52.0294 126.312 52.1689 125.975 52.4171 125.727C52.6653 125.479 53.0019 125.339 53.353 125.339H124.569C124.92 125.339 125.256 125.479 125.505 125.727C125.753 125.975 125.892 126.312 125.892 126.663C125.892 127.014 125.753 127.35 125.505 127.599C125.256 127.847 124.92 127.986 124.569 127.986Z" fill="#212121"/>
  <path d="M124.569 137.212H53.353C53.0229 137.183 52.7155 137.032 52.4915 136.788C52.2675 136.544 52.1432 136.224 52.1432 135.893C52.1432 135.562 52.2675 135.242 52.4915 134.998C52.7155 134.754 53.0229 134.603 53.353 134.574H124.569C124.899 134.603 125.206 134.754 125.43 134.998C125.654 135.242 125.778 135.562 125.778 135.893C125.778 136.224 125.654 136.544 125.43 136.788C125.206 137.032 124.899 137.183 124.569 137.212Z" fill="#212121"/>
  <path d="M124.569 146.447H53.353C53.0229 146.418 52.7155 146.267 52.4915 146.023C52.2675 145.779 52.1432 145.46 52.1432 145.128C52.1432 144.797 52.2675 144.478 52.4915 144.234C52.7155 143.989 53.0229 143.838 53.353 143.81H124.569C124.899 143.838 125.206 143.989 125.43 144.234C125.654 144.478 125.778 144.797 125.778 145.128C125.778 145.46 125.654 145.779 125.43 146.023C125.206 146.267 124.899 146.418 124.569 146.447Z" fill="#212121"/>
  <path d="M216.235 36.7019H145.049C144.698 36.7019 144.361 36.5624 144.113 36.3142C143.865 36.066 143.725 35.7294 143.725 35.3783C143.725 35.0273 143.865 34.6907 144.113 34.4425C144.361 34.1943 144.698 34.0548 145.049 34.0548H216.235C216.586 34.0548 216.923 34.1943 217.171 34.4425C217.419 34.6907 217.559 35.0273 217.559 35.3783C217.559 35.7294 217.419 36.066 217.171 36.3142C216.923 36.5624 216.586 36.7019 216.235 36.7019Z" fill="#212121"/>
  <path d="M216.235 45.9273H145.049C144.866 45.9431 144.682 45.9207 144.509 45.8616C144.335 45.8025 144.176 45.7079 144.04 45.584C143.905 45.46 143.797 45.3093 143.724 45.1414C143.65 44.9735 143.612 44.7921 143.612 44.6087C143.612 44.4253 143.65 44.2439 143.724 44.076C143.797 43.9081 143.905 43.7574 144.04 43.6334C144.176 43.5094 144.335 43.4149 144.509 43.3558C144.682 43.2967 144.866 43.2743 145.049 43.2901H216.235C216.418 43.2743 216.602 43.2967 216.776 43.3558C216.949 43.4149 217.109 43.5094 217.244 43.6334C217.379 43.7574 217.487 43.9081 217.561 44.076C217.634 44.2439 217.673 44.4253 217.673 44.6087C217.673 44.7921 217.634 44.9735 217.561 45.1414C217.487 45.3093 217.379 45.46 217.244 45.584C217.109 45.7079 216.949 45.8025 216.776 45.8616C216.602 45.9207 216.418 45.9431 216.235 45.9273Z" fill="#212121"/>
  <path d="M216.235 55.1627H145.049C144.698 55.1627 144.361 55.0232 144.113 54.775C143.865 54.5268 143.725 54.1902 143.725 53.8391C143.725 53.4881 143.865 53.1515 144.113 52.9033C144.361 52.6551 144.698 52.5156 145.049 52.5156H216.235C216.586 52.5156 216.923 52.6551 217.171 52.9033C217.419 53.1515 217.559 53.4881 217.559 53.8391C217.559 54.1902 217.419 54.5268 217.171 54.775C216.923 55.0232 216.586 55.1627 216.235 55.1627Z" fill="#212121"/>
  <path d="M216.235 64.3881H145.049C144.866 64.4039 144.682 64.3815 144.509 64.3224C144.335 64.2633 144.176 64.1688 144.04 64.0448C143.905 63.9208 143.797 63.7701 143.724 63.6022C143.65 63.4343 143.612 63.2529 143.612 63.0695C143.612 62.8861 143.65 62.7047 143.724 62.5368C143.797 62.3689 143.905 62.2182 144.04 62.0942C144.176 61.9702 144.335 61.8757 144.509 61.8166C144.682 61.7575 144.866 61.7351 145.049 61.7509H216.235C216.418 61.7351 216.602 61.7575 216.776 61.8166C216.949 61.8757 217.109 61.9702 217.244 62.0942C217.379 62.2182 217.487 62.3689 217.561 62.5368C217.634 62.7047 217.673 62.8861 217.673 63.0695C217.673 63.2529 217.634 63.4343 217.561 63.6022C217.487 63.7701 217.379 63.9208 217.244 64.0448C217.109 64.1688 216.949 64.2633 216.776 64.3224C216.602 64.3815 216.418 64.4039 216.235 64.3881Z" fill="#212121"/>
  <path d="M216.235 73.6234H145.049C144.698 73.6234 144.361 73.4839 144.113 73.2357C143.865 72.9875 143.725 72.6509 143.725 72.2999C143.725 71.9488 143.865 71.6122 144.113 71.364C144.361 71.1158 144.698 70.9763 145.049 70.9763H216.235C216.586 70.9763 216.923 71.1158 217.171 71.364C217.419 71.6122 217.559 71.9488 217.559 72.2999C217.559 72.6509 217.419 72.9875 217.171 73.2357C216.923 73.4839 216.586 73.6234 216.235 73.6234Z" fill="#212121"/>
  <path d="M216.235 82.8587H145.049C144.875 82.8587 144.703 82.8245 144.542 82.758C144.382 82.6915 144.236 82.594 144.113 82.4711C143.99 82.3482 143.893 82.2023 143.826 82.0417C143.76 81.8811 143.725 81.709 143.725 81.5352C143.725 81.3614 143.76 81.1893 143.826 81.0287C143.893 80.8681 143.99 80.7222 144.113 80.5993C144.236 80.4764 144.382 80.3789 144.542 80.3124C144.703 80.2459 144.875 80.2117 145.049 80.2117H216.235C216.409 80.2117 216.581 80.2459 216.742 80.3124C216.902 80.3789 217.048 80.4764 217.171 80.5993C217.294 80.7222 217.392 80.8681 217.458 81.0287C217.525 81.1893 217.559 81.3614 217.559 81.5352C217.559 81.709 217.525 81.8811 217.458 82.0417C217.392 82.2023 217.294 82.3482 217.171 82.4711C217.048 82.594 216.902 82.6915 216.742 82.758C216.581 82.8245 216.409 82.8587 216.235 82.8587Z" fill="#212121"/>
  <path d="M216.235 92.0842H145.049C144.866 92.0999 144.682 92.0776 144.509 92.0185C144.335 91.9594 144.176 91.8648 144.04 91.7408C143.905 91.6168 143.797 91.4661 143.724 91.2982C143.65 91.1303 143.612 90.949 143.612 90.7656C143.612 90.5822 143.65 90.4007 143.724 90.2329C143.797 90.065 143.905 89.9142 144.04 89.7903C144.176 89.6663 144.335 89.5717 144.509 89.5126C144.682 89.4535 144.866 89.4311 145.049 89.4469H216.235C216.418 89.4311 216.602 89.4535 216.776 89.5126C216.949 89.5717 217.109 89.6663 217.244 89.7903C217.379 89.9142 217.487 90.065 217.561 90.2329C217.634 90.4007 217.673 90.5822 217.673 90.7656C217.673 90.949 217.634 91.1303 217.561 91.2982C217.487 91.4661 217.379 91.6168 217.244 91.7408C217.109 91.8648 216.949 91.9594 216.776 92.0185C216.602 92.0776 216.418 92.0999 216.235 92.0842Z" fill="#212121"/>
  <path d="M217.52 98.2901H144.971V148.888H217.52V98.2901Z" fill="#BDBDBD"/>
  <path opacity="0.6" d="M217.52 98.2901H144.971V148.888H217.52V98.2901Z" fill="white"/>
  <path d="M78.1765 39.3195C78.3776 38.7053 78.4834 38.0638 78.4902 37.4175C78.4902 35.0548 76.098 34.9175 73.7353 34.9175H73.1471V34.3587H83.3922V34.9175C80.7255 34.9175 79.7843 36.6136 78.9216 39.1528L73.4706 55.4862C73.0588 56.692 72.7157 57.594 71.4314 57.594H71.3235L66.5098 41.996L62 55.4862C61.5784 56.692 61.2353 57.594 59.951 57.594H59.8628L52.8627 34.9175H50.402V34.3587H59.4118V34.9175H56.8529L62.049 52.8097H62.2549L66.1765 40.8783L64.3431 34.9175H61.8824V34.3587H70.8922V34.9175H68.3235L73.5294 52.8097H73.7353L78.1765 39.3195Z" fill="#212121"/>
  <path d="M242.873 28.5744H168.931V226.918H242.873V28.5744Z" fill="#B75400"/>
  <path opacity="0.4" d="M242.873 28.5744H168.931V226.918H242.873V28.5744Z" fill="white"/>
  <path d="M352.059 21.1528H174.461V246.427H352.059V21.1528Z" fill="white" stroke="#212121" stroke-width="0.75" stroke-linecap="round" stroke-linejoin="round"/>
  <path d="M352.059 21.1528H174.461V34.594H352.059V21.1528Z" fill="#B75400" stroke="#212121" stroke-width="0.75" stroke-linecap="round" stroke-linejoin="round"/>
  <path d="M296.647 53.0548H234.284V169.633H296.647V53.0548Z" fill="#B75400"/>
  <path opacity="0.6" d="M296.647 53.0548H234.284V169.633H296.647V53.0548Z" fill="white"/>
  <path d="M346.99 178.261H179.539V241.976H346.99V178.261Z" fill="#BDBDBD"/>
  <path opacity="0.6" d="M346.99 178.261H179.539V241.976H346.99V178.261Z" fill="white"/>
  <path d="M346.99 26.4666H179.539V41.9077H346.99V26.4666Z" fill="#BDBDBD"/>
  <path opacity="0.6" d="M346.99 26.4666H179.539V41.9077H346.99V26.4666Z" fill="white"/>
  <path d="M344.637 29.4666H182.549V36.2999H344.637V29.4666Z" fill="white"/>
  <path d="M344.627 29.4666H326.275V36.2999H344.627V29.4666Z" fill="#B75400" stroke="#212121" stroke-width="0.75" stroke-linecap="round" stroke-linejoin="round"/>
  <path d="M223.804 55.7411H181.069C180.886 55.7569 180.702 55.7345 180.528 55.6754C180.355 55.6163 180.195 55.5217 180.06 55.3978C179.925 55.2738 179.817 55.1231 179.743 54.9552C179.669 54.7873 179.631 54.6059 179.631 54.4225C179.631 54.2391 179.669 54.0577 179.743 53.8898C179.817 53.7219 179.925 53.5712 180.06 53.4472C180.195 53.3232 180.355 53.2287 180.528 53.1696C180.702 53.1105 180.886 53.0881 181.069 53.1038H223.804C223.987 53.0881 224.171 53.1105 224.344 53.1696C224.518 53.2287 224.677 53.3232 224.812 53.4472C224.948 53.5712 225.056 53.7219 225.129 53.8898C225.203 54.0577 225.241 54.2391 225.241 54.4225C225.241 54.6059 225.203 54.7873 225.129 54.9552C225.056 55.1231 224.948 55.2738 224.812 55.3978C224.677 55.5217 224.518 55.6163 224.344 55.6754C224.171 55.7345 223.987 55.7569 223.804 55.7411Z" fill="#212121"/>
  <path d="M223.804 64.9763H181.069C180.718 64.9763 180.381 64.8369 180.133 64.5887C179.885 64.3405 179.745 64.0038 179.745 63.6528C179.745 63.3018 179.885 62.9651 180.133 62.7169C180.381 62.4687 180.718 62.3293 181.069 62.3293H223.804C224.155 62.3293 224.492 62.4687 224.74 62.7169C224.988 62.9651 225.127 63.3018 225.127 63.6528C225.127 64.0038 224.988 64.3405 224.74 64.5887C224.492 64.8369 224.155 64.9763 223.804 64.9763Z" fill="#212121"/>
  <path d="M223.804 74.2019H181.069C180.886 74.2176 180.702 74.1952 180.528 74.1361C180.355 74.077 180.195 73.9825 180.06 73.8585C179.925 73.7345 179.817 73.5838 179.743 73.4159C179.669 73.248 179.631 73.0666 179.631 72.8832C179.631 72.6998 179.669 72.5184 179.743 72.3505C179.817 72.1826 179.925 72.0319 180.06 71.9079C180.195 71.7839 180.355 71.6894 180.528 71.6303C180.702 71.5712 180.886 71.5488 181.069 71.5646H223.804C223.987 71.5488 224.171 71.5712 224.344 71.6303C224.518 71.6894 224.677 71.7839 224.812 71.9079C224.948 72.0319 225.056 72.1826 225.129 72.3505C225.203 72.5184 225.241 72.6998 225.241 72.8832C225.241 73.0666 225.203 73.248 225.129 73.4159C225.056 73.5838 224.948 73.7345 224.812 73.8585C224.677 73.9825 224.518 74.077 224.344 74.1361C224.171 74.1952 223.987 74.2176 223.804 74.2019Z" fill="#212121"/>
  <path d="M223.804 83.4372H181.069C180.895 83.4372 180.723 83.4029 180.562 83.3364C180.402 83.2699 180.256 83.1724 180.133 83.0495C180.01 82.9266 179.912 82.7807 179.846 82.6201C179.779 82.4595 179.745 82.2874 179.745 82.1136C179.745 81.9398 179.779 81.7677 179.846 81.6071C179.912 81.4466 180.01 81.3006 180.133 81.1777C180.256 81.0548 180.402 80.9574 180.562 80.8908C180.723 80.8243 180.895 80.7901 181.069 80.7901H223.804C224.155 80.7901 224.492 80.9295 224.74 81.1777C224.988 81.426 225.127 81.7626 225.127 82.1136C225.127 82.4646 224.988 82.8013 224.74 83.0495C224.492 83.2977 224.155 83.4372 223.804 83.4372Z" fill="#212121"/>
  <path d="M223.804 92.6627H181.069C180.886 92.6784 180.702 92.6561 180.528 92.597C180.355 92.5379 180.195 92.4433 180.06 92.3193C179.925 92.1953 179.817 92.0446 179.743 91.8767C179.669 91.7088 179.631 91.5274 179.631 91.344C179.631 91.1606 179.669 90.9792 179.743 90.8113C179.817 90.6435 179.925 90.4927 180.06 90.3687C180.195 90.2448 180.355 90.1502 180.528 90.0911C180.702 90.032 180.886 90.0096 181.069 90.0254H223.804C223.987 90.0096 224.171 90.032 224.344 90.0911C224.518 90.1502 224.677 90.2448 224.812 90.3687C224.948 90.4927 225.056 90.6435 225.129 90.8113C225.203 90.9792 225.241 91.1606 225.241 91.344C225.241 91.5274 225.203 91.7088 225.129 91.8767C225.056 92.0446 224.948 92.1953 224.812 92.3193C224.677 92.4433 224.518 92.5379 224.344 92.597C224.171 92.6561 223.987 92.6784 223.804 92.6627Z" fill="#212121"/>
  <path d="M223.804 101.898H181.069C180.886 101.914 180.702 101.891 180.528 101.832C180.355 101.773 180.195 101.679 180.06 101.555C179.925 101.431 179.817 101.28 179.743 101.112C179.669 100.944 179.631 100.763 179.631 100.579C179.631 100.396 179.669 100.214 179.743 100.047C179.817 99.8787 179.925 99.728 180.06 99.604C180.195 99.48 180.355 99.3855 180.528 99.3264C180.702 99.2673 180.886 99.2449 181.069 99.2606H223.804C223.987 99.2449 224.171 99.2673 224.344 99.3264C224.518 99.3855 224.677 99.48 224.812 99.604C224.948 99.728 225.056 99.8787 225.129 100.047C225.203 100.214 225.241 100.396 225.241 100.579C225.241 100.763 225.203 100.944 225.129 101.112C225.056 101.28 224.948 101.431 224.812 101.555C224.677 101.679 224.518 101.773 224.344 101.832C224.171 101.891 223.987 101.914 223.804 101.898Z" fill="#212121"/>
  <path d="M223.804 111.133H181.069C180.895 111.133 180.723 111.099 180.562 111.033C180.402 110.966 180.256 110.869 180.133 110.746C180.01 110.623 179.912 110.477 179.846 110.316C179.779 110.156 179.745 109.984 179.745 109.81C179.745 109.636 179.779 109.464 179.846 109.303C179.912 109.143 180.01 108.997 180.133 108.874C180.256 108.751 180.402 108.653 180.562 108.587C180.723 108.52 180.895 108.486 181.069 108.486H223.804C224.155 108.486 224.492 108.626 224.74 108.874C224.988 109.122 225.127 109.459 225.127 109.81C225.127 110.161 224.988 110.497 224.74 110.746C224.492 110.994 224.155 111.133 223.804 111.133Z" fill="#212121"/>
  <path d="M223.804 119.359H181.069C180.718 119.359 180.381 119.219 180.133 118.971C179.885 118.723 179.745 118.386 179.745 118.035C179.745 117.684 179.885 117.348 180.133 117.099C180.381 116.851 180.718 116.712 181.069 116.712H223.804C224.155 116.712 224.492 116.851 224.74 117.099C224.988 117.348 225.127 117.684 225.127 118.035C225.127 118.386 224.988 118.723 224.74 118.971C224.492 119.219 224.155 119.359 223.804 119.359Z" fill="#212121"/>
  <path d="M223.804 128.565H181.069C180.886 128.58 180.702 128.558 180.528 128.499C180.355 128.44 180.195 128.345 180.06 128.221C179.925 128.097 179.817 127.947 179.743 127.779C179.669 127.611 179.631 127.429 179.631 127.246C179.631 127.063 179.669 126.881 179.743 126.713C179.817 126.545 179.925 126.395 180.06 126.271C180.195 126.147 180.355 126.052 180.528 125.993C180.702 125.934 180.886 125.912 181.069 125.927H223.804C223.987 125.912 224.171 125.934 224.344 125.993C224.518 126.052 224.677 126.147 224.812 126.271C224.948 126.395 225.056 126.545 225.129 126.713C225.203 126.881 225.241 127.063 225.241 127.246C225.241 127.429 225.203 127.611 225.129 127.779C225.056 127.947 224.948 128.097 224.812 128.221C224.677 128.345 224.518 128.44 224.344 128.499C224.171 128.558 223.987 128.58 223.804 128.565Z" fill="#212121"/>
  <path d="M223.804 137.8H181.069C180.718 137.8 180.381 137.66 180.133 137.412C179.885 137.164 179.745 136.827 179.745 136.476C179.745 136.125 179.885 135.789 180.133 135.54C180.381 135.292 180.718 135.153 181.069 135.153H223.804C224.155 135.153 224.492 135.292 224.74 135.54C224.988 135.789 225.127 136.125 225.127 136.476C225.127 136.827 224.988 137.164 224.74 137.412C224.492 137.66 224.155 137.8 223.804 137.8Z" fill="#212121"/>
  <path d="M223.804 147.025H181.069C180.886 147.041 180.702 147.019 180.528 146.96C180.355 146.901 180.195 146.806 180.06 146.682C179.925 146.558 179.817 146.407 179.743 146.239C179.669 146.072 179.631 145.89 179.631 145.707C179.631 145.523 179.669 145.342 179.743 145.174C179.817 145.006 179.925 144.855 180.06 144.731C180.195 144.608 180.355 144.513 180.528 144.454C180.702 144.395 180.886 144.372 181.069 144.388H223.804C223.987 144.372 224.171 144.395 224.344 144.454C224.518 144.513 224.677 144.608 224.812 144.731C224.948 144.855 225.056 145.006 225.129 145.174C225.203 145.342 225.241 145.523 225.241 145.707C225.241 145.89 225.203 146.072 225.129 146.239C225.056 146.407 224.948 146.558 224.812 146.682C224.677 146.806 224.518 146.901 224.344 146.96C224.171 147.019 223.987 147.041 223.804 147.025Z" fill="#212121"/>
  <path d="M223.804 156.261H181.069C180.718 156.261 180.381 156.121 180.133 155.873C179.885 155.625 179.745 155.288 179.745 154.937C179.745 154.586 179.885 154.25 180.133 154.001C180.381 153.753 180.718 153.614 181.069 153.614H223.804C224.155 153.614 224.492 153.753 224.74 154.001C224.988 154.25 225.127 154.586 225.127 154.937C225.127 155.288 224.988 155.625 224.74 155.873C224.492 156.121 224.155 156.261 223.804 156.261Z" fill="#212121"/>
  <path d="M223.804 165.486H181.069C180.886 165.502 180.702 165.48 180.528 165.42C180.355 165.361 180.195 165.267 180.06 165.143C179.925 165.019 179.817 164.868 179.743 164.7C179.669 164.532 179.631 164.351 179.631 164.168C179.631 163.984 179.669 163.803 179.743 163.635C179.817 163.467 179.925 163.316 180.06 163.192C180.195 163.068 180.355 162.974 180.528 162.915C180.702 162.856 180.886 162.833 181.069 162.849H223.804C223.987 162.833 224.171 162.856 224.344 162.915C224.518 162.974 224.677 163.068 224.812 163.192C224.948 163.316 225.056 163.467 225.129 163.635C225.203 163.803 225.241 163.984 225.241 164.168C225.241 164.351 225.203 164.532 225.129 164.7C225.056 164.868 224.948 165.019 224.812 165.143C224.677 165.267 224.518 165.361 224.344 165.42C224.171 165.48 223.987 165.502 223.804 165.486Z" fill="#212121"/>
  <path d="M223.804 174.721H181.069C180.886 174.737 180.702 174.715 180.528 174.656C180.355 174.597 180.195 174.502 180.06 174.378C179.925 174.254 179.817 174.103 179.743 173.936C179.669 173.768 179.631 173.586 179.631 173.403C179.631 173.219 179.669 173.038 179.743 172.87C179.817 172.702 179.925 172.552 180.06 172.428C180.195 172.304 180.355 172.209 180.528 172.15C180.702 172.091 180.886 172.068 181.069 172.084H223.804C223.987 172.068 224.171 172.091 224.344 172.15C224.518 172.209 224.677 172.304 224.812 172.428C224.948 172.552 225.056 172.702 225.129 172.87C225.203 173.038 225.241 173.219 225.241 173.403C225.241 173.586 225.203 173.768 225.129 173.936C225.056 174.103 224.948 174.254 224.812 174.378C224.677 174.502 224.518 174.597 224.344 174.656C224.171 174.715 223.987 174.737 223.804 174.721Z" fill="#212121"/>
  <path d="M346.667 55.7411H303.98C303.798 55.7569 303.614 55.7345 303.44 55.6754C303.266 55.6163 303.107 55.5217 302.972 55.3978C302.837 55.2738 302.729 55.1231 302.655 54.9552C302.581 54.7873 302.543 54.6059 302.543 54.4225C302.543 54.2391 302.581 54.0577 302.655 53.8898C302.729 53.7219 302.837 53.5712 302.972 53.4472C303.107 53.3232 303.266 53.2287 303.44 53.1696C303.614 53.1105 303.798 53.0881 303.98 53.1038H346.716C346.898 53.0881 347.082 53.1105 347.256 53.1696C347.43 53.2287 347.589 53.3232 347.724 53.4472C347.859 53.5712 347.967 53.7219 348.041 53.8898C348.115 54.0577 348.153 54.2391 348.153 54.4225C348.153 54.6059 348.115 54.7873 348.041 54.9552C347.967 55.1231 347.859 55.2738 347.724 55.3978C347.589 55.5217 347.43 55.6163 347.256 55.6754C347.082 55.7345 346.898 55.7569 346.716 55.7411H346.667Z" fill="#212121"/>
  <path d="M346.667 64.9763H303.98C303.807 64.9763 303.634 64.9421 303.474 64.8756C303.313 64.8091 303.167 64.7116 303.045 64.5887C302.922 64.4658 302.824 64.3199 302.758 64.1593C302.691 63.9987 302.657 63.8266 302.657 63.6528C302.657 63.479 302.691 63.3069 302.758 63.1463C302.824 62.9857 302.922 62.8398 303.045 62.7169C303.167 62.594 303.313 62.4966 303.474 62.43C303.634 62.3635 303.807 62.3293 303.98 62.3293H346.716C347.067 62.3293 347.403 62.4687 347.652 62.7169C347.9 62.9651 348.039 63.3018 348.039 63.6528C348.039 64.0038 347.9 64.3405 347.652 64.5887C347.403 64.8369 347.067 64.9763 346.716 64.9763H346.667Z" fill="#212121"/>
  <path d="M346.667 74.2019H303.98C303.798 74.2176 303.614 74.1952 303.44 74.1361C303.266 74.077 303.107 73.9825 302.972 73.8585C302.837 73.7345 302.729 73.5838 302.655 73.4159C302.581 73.248 302.543 73.0666 302.543 72.8832C302.543 72.6998 302.581 72.5184 302.655 72.3505C302.729 72.1826 302.837 72.0319 302.972 71.9079C303.107 71.7839 303.266 71.6894 303.44 71.6303C303.614 71.5712 303.798 71.5488 303.98 71.5646H346.716C346.898 71.5488 347.082 71.5712 347.256 71.6303C347.43 71.6894 347.589 71.7839 347.724 71.9079C347.859 72.0319 347.967 72.1826 348.041 72.3505C348.115 72.5184 348.153 72.6998 348.153 72.8832C348.153 73.0666 348.115 73.248 348.041 73.4159C347.967 73.5838 347.859 73.7345 347.724 73.8585C347.589 73.9825 347.43 74.077 347.256 74.1361C347.082 74.1952 346.898 74.2176 346.716 74.2019H346.667Z" fill="#212121"/>
  <path d="M346.667 83.4372H303.98C303.807 83.4372 303.634 83.4029 303.474 83.3364C303.313 83.2699 303.167 83.1724 303.045 83.0495C302.922 82.9266 302.824 82.7807 302.758 82.6201C302.691 82.4595 302.657 82.2874 302.657 82.1136C302.657 81.9398 302.691 81.7677 302.758 81.6071C302.824 81.4466 302.922 81.3006 303.045 81.1777C303.167 81.0548 303.313 80.9574 303.474 80.8908C303.634 80.8243 303.807 80.7901 303.98 80.7901H346.716C347.067 80.7901 347.403 80.9295 347.652 81.1777C347.9 81.426 348.039 81.7626 348.039 82.1136C348.039 82.4646 347.9 82.8013 347.652 83.0495C347.403 83.2977 347.067 83.4372 346.716 83.4372H346.667Z" fill="#212121"/>
  <path d="M346.667 92.6627H303.98C303.798 92.6784 303.614 92.6561 303.44 92.597C303.266 92.5379 303.107 92.4433 302.972 92.3193C302.837 92.1953 302.729 92.0446 302.655 91.8767C302.581 91.7088 302.543 91.5274 302.543 91.344C302.543 91.1606 302.581 90.9792 302.655 90.8113C302.729 90.6435 302.837 90.4927 302.972 90.3687C303.107 90.2448 303.266 90.1502 303.44 90.0911C303.614 90.032 303.798 90.0096 303.98 90.0254H346.716C346.898 90.0096 347.082 90.032 347.256 90.0911C347.43 90.1502 347.589 90.2448 347.724 90.3687C347.859 90.4927 347.967 90.6435 348.041 90.8113C348.115 90.9792 348.153 91.1606 348.153 91.344C348.153 91.5274 348.115 91.7088 348.041 91.8767C347.967 92.0446 347.859 92.1953 347.724 92.3193C347.589 92.4433 347.43 92.5379 347.256 92.597C347.082 92.6561 346.898 92.6784 346.716 92.6627H346.667Z" fill="#212121"/>
  <path d="M346.667 101.898H303.98C303.798 101.914 303.614 101.891 303.44 101.832C303.266 101.773 303.107 101.679 302.972 101.555C302.837 101.431 302.729 101.28 302.655 101.112C302.581 100.944 302.543 100.763 302.543 100.579C302.543 100.396 302.581 100.214 302.655 100.047C302.729 99.8787 302.837 99.728 302.972 99.604C303.107 99.48 303.266 99.3855 303.44 99.3264C303.614 99.2673 303.798 99.2449 303.98 99.2606H346.716C346.898 99.2449 347.082 99.2673 347.256 99.3264C347.43 99.3855 347.589 99.48 347.724 99.604C347.859 99.728 347.967 99.8787 348.041 100.047C348.115 100.214 348.153 100.396 348.153 100.579C348.153 100.763 348.115 100.944 348.041 101.112C347.967 101.28 347.859 101.431 347.724 101.555C347.589 101.679 347.43 101.773 347.256 101.832C347.082 101.891 346.898 101.914 346.716 101.898H346.667Z" fill="#212121"/>
  <path d="M346.667 111.133H303.98C303.807 111.133 303.634 111.099 303.474 111.033C303.313 110.966 303.167 110.869 303.045 110.746C302.922 110.623 302.824 110.477 302.758 110.316C302.691 110.156 302.657 109.984 302.657 109.81C302.657 109.636 302.691 109.464 302.758 109.303C302.824 109.143 302.922 108.997 303.045 108.874C303.167 108.751 303.313 108.653 303.474 108.587C303.634 108.52 303.807 108.486 303.98 108.486H346.716C347.067 108.486 347.403 108.626 347.652 108.874C347.9 109.122 348.039 109.459 348.039 109.81C348.039 110.161 347.9 110.497 347.652 110.746C347.403 110.994 347.067 111.133 346.716 111.133H346.667Z" fill="#212121"/>
  <path d="M347.02 117.329H302.912V167.927H347.02V117.329Z" fill="#B75400"/>
  <path opacity="0.6" d="M347.02 117.329H302.912V167.927H347.02V117.329Z" fill="white"/>
  <path d="M369.01 208.957C368.745 198.996 369.52 181.996 360.775 174.996C353.098 168.849 347.127 177.192 344.98 183.918C339.755 200.241 340.314 261.672 341.667 274.045C341.667 274.045 340.333 261.653 330.598 266.967C320.863 272.28 335.5 300.172 335.5 300.172C335.5 300.172 323.99 291.761 318.676 298.839C313.363 305.918 325.324 313.898 325.324 313.898C325.324 313.898 314.255 310.8 314.255 313.898C314.255 316.996 317.794 319.653 327.98 320.986H382.882C382.882 320.986 391.706 316.084 389.971 310.8C388.235 305.516 378.863 308.574 378.863 308.574C378.863 308.574 393.029 291.31 392.137 283.78C391.245 276.251 373.098 285.104 373.098 285.104C373.098 285.104 387.275 249.241 384.618 233.3C382.52 220.741 372.775 229.378 367.471 234.163C368.718 225.822 369.233 217.388 369.01 208.957Z" fill="#B75400"/>
  <path d="M351.353 319.8L355.392 198.77" stroke="#B75400" stroke-width="1.72695" stroke-linecap="round" stroke-linejoin="round"/>
  <path d="M351.353 319.8L355.392 198.77" stroke="black" stroke-opacity="0.2" stroke-width="1.72695" stroke-linecap="round" stroke-linejoin="round"/>
  <path d="M353.618 269.623L374.431 250.133" stroke="#B75400" stroke-width="1.72695" stroke-linecap="round" stroke-linejoin="round"/>
  <path d="M353.618 269.623L374.431 250.133" stroke="black" stroke-opacity="0.2" stroke-width="1.72695" stroke-linecap="round" stroke-linejoin="round"/>
  <path d="M363.363 260.761L367.784 248.368" stroke="#B75400" stroke-width="1.72695" stroke-linecap="round" stroke-linejoin="round"/>
  <path d="M363.363 260.761L367.784 248.368" stroke="black" stroke-opacity="0.2" stroke-width="1.72695" stroke-linecap="round" stroke-linejoin="round"/>
  <path d="M336.353 284.672L351.99 301.349" stroke="#B75400" stroke-width="1.72695" stroke-linecap="round" stroke-linejoin="round"/>
  <path d="M336.353 284.672L351.99 301.349" stroke="black" stroke-opacity="0.2" stroke-width="1.72695" stroke-linecap="round" stroke-linejoin="round"/>
  <path d="M378.863 294.417L352.294 308.143" stroke="#B75400" stroke-width="1.72695" stroke-linecap="round" stroke-linejoin="round"/>
  <path d="M378.863 294.417L352.294 308.143" stroke="black" stroke-opacity="0.2" stroke-width="1.72695" stroke-linecap="round" stroke-linejoin="round"/>
  <path d="M365.471 301.182L374.431 301.947" stroke="#B75400" stroke-width="1.72695" stroke-linecap="round" stroke-linejoin="round"/>
  <path d="M365.471 301.182L374.432 301.947" stroke="black" stroke-opacity="0.2" stroke-width="1.72695" stroke-linecap="round" stroke-linejoin="round"/>
  <path d="M169.265 321.457C169.265 325.104 134.51 328.065 91.6471 328.065C48.7843 328.065 14.0196 325.123 14.0196 321.457C14.0196 317.79 48.7745 314.849 91.6471 314.849C134.52 314.849 169.265 317.81 169.265 321.457Z" fill="#212121"/>
  <path d="M53 200.094C53 200.094 59 197.055 61.6079 199.663C64.2157 202.27 63.1667 230.172 63.951 239.035C64.4261 244.321 65.4011 249.551 66.8628 254.653C66.8628 254.653 58.2549 253.094 51.7353 249.751C51.7353 249.751 46 221.908 53 200.094Z" fill="#212121" stroke="#212121" stroke-width="0.75" stroke-linecap="round" stroke-linejoin="round"/>
  <path d="M172.461 263.28C171.755 263.28 171.071 263.04 170.518 262.601C169.966 262.163 169.578 261.55 169.418 260.863C169.258 260.175 169.335 259.454 169.636 258.817C169.938 258.179 170.446 257.661 171.078 257.349L199.422 244.604L221.422 219.3C221.956 218.665 222.72 218.269 223.547 218.198C224.373 218.128 225.194 218.388 225.828 218.922C226.463 219.457 226.859 220.221 226.93 221.048C227.001 221.874 226.74 222.695 226.206 223.329L203.784 249.133C203.516 249.463 203.182 249.733 202.804 249.927L173.863 262.957C173.429 263.177 172.947 263.288 172.461 263.28Z" fill="white" stroke="#212121" stroke-width="0.75" stroke-linecap="round" stroke-linejoin="round"/>
  <path d="M191.843 252.231L194.951 250.819" stroke="#212121" stroke-width="0.75" stroke-linecap="round" stroke-linejoin="round"/>
  <path d="M177.51 258.751L189.794 253.163" stroke="#212121" stroke-width="0.75" stroke-linecap="round" stroke-linejoin="round"/>
  <path d="M219.52 227.565L211.333 236.819" stroke="#212121" stroke-width="0.75" stroke-linecap="round" stroke-linejoin="round"/>
  <path d="M210.01 238.143L208.157 240.251" stroke="#212121" stroke-width="0.75" stroke-linecap="round" stroke-linejoin="round"/>
  <path d="M176.235 274.521C179.702 259.899 170.66 245.235 156.038 241.768C141.416 238.301 126.752 247.344 123.285 261.966C119.818 276.588 128.861 291.252 143.482 294.719C158.104 298.186 172.768 289.143 176.235 274.521Z" fill="#B75400" stroke="#212121" stroke-width="0.747671" stroke-linecap="round" stroke-linejoin="round"/>
  <path d="M81.7549 167.535C81.7549 167.535 85.6765 176.731 86.5 178.525C87.3236 180.319 88.1079 180.81 87.9216 181.378C87.7353 181.947 85.7353 182.604 85.7353 182.604C86.0131 185.433 85.5219 188.285 84.3138 190.859C82.353 194.78 78.5295 196.829 78.1569 199.29C77.9375 201.656 77.9047 204.036 78.0589 206.408L72.2745 201.663C72.2745 201.663 73.8824 197.016 72.4608 193.604C71.2556 190.812 69.1076 188.532 66.3922 187.163C63.0114 184.944 60.6057 181.518 59.6667 177.584C58.8138 173.025 61.4608 168.192 64.9706 164.78C68.4804 161.368 75.402 162.035 76.1667 162.319C76.9314 162.604 74.2647 160.359 76.6373 159.849C79.0098 159.339 80.4314 162.79 80.5589 163.359C80.6863 163.927 81.4118 160.898 82.1765 162.888C82.9412 164.878 81.7549 167.535 81.7549 167.535Z" fill="white"/>
  <g style="mix-blend-mode:multiply" opacity="0.5">
    <path d="M74.6863 203.672C74.6521 203.015 74.5768 202.36 74.4608 201.712C74.0785 199.986 76.4216 194.614 77.1471 188.29C77.8726 181.967 72.9216 173.133 72.9216 173.133L69.2942 162.614C67.6831 162.959 66.1917 163.723 64.9706 164.829C61.4608 168.241 58.8138 173.074 59.6667 177.633C60.6057 181.567 63.0114 184.993 66.3922 187.212C69.1076 188.581 71.2556 190.861 72.4608 193.653C73.8824 197.065 72.2745 201.712 72.2745 201.712L74.6863 203.672Z" fill="#BDBDBD"/>
  </g>
  <path d="M81.7549 167.535C81.7549 167.535 85.6765 176.731 86.5 178.525C87.3236 180.319 88.1079 180.81 87.9216 181.378C87.7353 181.947 85.7353 182.604 85.7353 182.604C86.0131 185.433 85.5219 188.285 84.3138 190.859C82.353 194.78 78.5295 196.829 78.1569 199.29C77.9375 201.656 77.9047 204.036 78.0589 206.408L72.2745 201.663C72.2745 201.663 73.8824 197.016 72.4608 193.604C71.2556 190.812 69.1076 188.532 66.3922 187.163C63.0114 184.944 60.6057 181.518 59.6667 177.584C58.8138 173.025 61.4608 168.192 64.9706 164.78C68.4804 161.368 75.402 162.035 76.1667 162.319C76.9314 162.604 74.2647 160.359 76.6373 159.849C79.0098 159.339 80.4314 162.79 80.5589 163.359C80.6863 163.927 81.4118 160.898 82.1765 162.888C82.9412 164.878 81.7549 167.535 81.7549 167.535Z" stroke="#212121" stroke-width="0.75" stroke-linecap="round" stroke-linejoin="round"/>
  <path d="M82.1275 172.427C82.1275 172.427 80.4118 171.957 79.8432 173.408C79.6645 173.74 79.5637 174.109 79.5485 174.486C79.5332 174.863 79.6038 175.238 79.7549 175.584" stroke="#212121" stroke-width="0.75" stroke-linecap="round" stroke-linejoin="round"/>
  <path d="M84.1275 186.878C84.1275 186.878 82.4216 187.731 81.3726 186.594" stroke="#212121" stroke-width="0.75" stroke-linecap="round" stroke-linejoin="round"/>
  <path d="M80.7843 178.927L72.8824 182.349" stroke="#212121" stroke-width="0.75" stroke-linecap="round" stroke-linejoin="round"/>
  <path d="M69.5785 186.506C68.5116 188.077 68.0135 189.966 68.1667 191.859C68.402 195.094 68.3236 199.506 66.6667 199.114C65.0098 198.721 67.451 193.751 67.451 191.702C67.3531 190.14 66.9952 188.606 66.3922 187.163" stroke="#212121" stroke-width="0.75" stroke-linecap="round" stroke-linejoin="round"/>
  <path d="M86.549 176.437L84.6863 177.241" stroke="#212121" stroke-width="0.75" stroke-linecap="round" stroke-linejoin="round"/>
  <path d="M83.5001 178.28C83.7452 179.114 83.7452 179.849 83.5001 179.917C83.255 179.986 82.8628 179.368 82.6177 178.535C82.3726 177.702 82.3824 176.967 82.6177 176.888C82.853 176.81 83.2648 177.437 83.5001 178.28Z" fill="#212121"/>
  <path d="M84.4902 178.28C85.1471 180.241 84.9804 182.055 84.1177 182.349C83.2549 182.643 82.0196 181.28 81.3628 179.329C80.7059 177.378 80.8726 175.545 81.7353 175.251C82.5981 174.957 83.8334 176.319 84.4902 178.28Z" stroke="#212121" stroke-width="0.75" stroke-linecap="round" stroke-linejoin="round"/>
  <path d="M71.3922 185.878C71.3922 185.878 69.8334 183.996 71.2353 184.153C71.6756 184.244 72.0831 184.452 72.4145 184.756C72.7459 185.06 72.9889 185.448 73.1177 185.878" stroke="#212121" stroke-width="0.5" stroke-linecap="round" stroke-linejoin="round"/>
  <path d="M115.226 218.065L109.726 221.957L110.578 226.506L116.843 224.045L115.226 218.065Z" fill="white" stroke="#212121" stroke-width="0.75" stroke-linecap="round" stroke-linejoin="round"/>
  <path d="M110.294 220.819L112.765 230.016C112.765 230.016 96.1373 237.604 92.853 239.947C89.5687 242.29 86.9706 241.653 86.9706 241.653L84.7941 231.025C84.7941 231.025 87.1569 232.163 92.1863 229.986C97.2157 227.81 110.294 220.819 110.294 220.819Z" fill="white" stroke="#212121" stroke-width="0.75" stroke-linecap="round" stroke-linejoin="round"/>
  <path d="M118.461 244.751C118.127 244.716 117.816 244.562 117.586 244.317C117.355 244.073 117.221 243.753 117.206 243.418L115.01 207.035C114.988 206.843 115.005 206.648 115.061 206.462C115.118 206.277 115.212 206.105 115.337 205.958C115.463 205.81 115.617 205.69 115.791 205.605C115.965 205.52 116.155 205.471 116.348 205.462C116.542 205.454 116.735 205.485 116.916 205.554C117.097 205.623 117.262 205.729 117.4 205.864C117.539 206 117.648 206.162 117.72 206.342C117.793 206.521 117.828 206.714 117.824 206.908L120.02 243.28C120.029 243.466 120.001 243.651 119.939 243.826C119.876 244.001 119.78 244.162 119.655 244.299C119.53 244.437 119.38 244.548 119.212 244.627C119.044 244.707 118.862 244.752 118.676 244.761L118.461 244.751Z" fill="#212121" stroke="#212121" stroke-width="0.75" stroke-linecap="round" stroke-linejoin="round"/>
  <path d="M114.275 217.202C113.925 217.187 113.594 217.043 113.345 216.798C113.096 216.553 112.946 216.224 112.925 215.875C112.905 215.526 113.014 215.182 113.233 214.909C113.451 214.636 113.763 214.454 114.108 214.398L119.608 213.731C119.799 213.693 119.995 213.694 120.185 213.735C120.376 213.776 120.555 213.856 120.713 213.97C120.871 214.084 121.004 214.229 121.103 214.396C121.202 214.564 121.265 214.75 121.289 214.943C121.313 215.136 121.296 215.332 121.24 215.518C121.185 215.705 121.091 215.878 120.966 216.026C120.84 216.175 120.685 216.296 120.51 216.382C120.336 216.468 120.145 216.517 119.951 216.525L114.451 217.192L114.275 217.202Z" fill="white" stroke="#212121" stroke-width="0.75" stroke-linecap="round" stroke-linejoin="round"/>
  <path d="M114.559 220.045C114.21 220.03 113.878 219.886 113.629 219.641C113.38 219.396 113.23 219.067 113.21 218.718C113.189 218.369 113.298 218.025 113.517 217.752C113.735 217.479 114.047 217.297 114.392 217.241L119.892 216.574C120.264 216.533 120.636 216.639 120.93 216.87C121.223 217.101 121.414 217.439 121.461 217.81C121.483 217.993 121.468 218.178 121.419 218.355C121.369 218.532 121.285 218.698 121.171 218.843C121.057 218.988 120.916 219.109 120.755 219.199C120.595 219.289 120.418 219.347 120.235 219.369L114.735 220.035L114.559 220.045Z" fill="white" stroke="#212121" stroke-width="0.75" stroke-linecap="round" stroke-linejoin="round"/>
  <path d="M114.863 222.633C114.519 222.632 114.188 222.499 113.938 222.262C113.688 222.026 113.538 221.702 113.518 221.359C113.498 221.015 113.61 220.677 113.83 220.413C114.051 220.149 114.364 219.978 114.706 219.937L119.971 219.3C120.148 219.276 120.329 219.288 120.501 219.335C120.674 219.382 120.836 219.462 120.978 219.572C121.119 219.682 121.237 219.818 121.326 219.974C121.414 220.13 121.47 220.301 121.492 220.479C121.513 220.657 121.499 220.837 121.45 221.01C121.402 221.182 121.319 221.343 121.208 221.483C121.096 221.623 120.958 221.74 120.801 221.826C120.645 221.912 120.472 221.967 120.294 221.986L115.029 222.623L114.863 222.633Z" fill="white" stroke="#212121" stroke-width="0.75" stroke-linecap="round" stroke-linejoin="round"/>
  <path d="M115.745 225.114C115.474 225.087 115.223 224.959 115.041 224.755C114.86 224.552 114.761 224.288 114.765 224.016C114.71 223.722 114.765 223.418 114.918 223.162C115.071 222.905 115.313 222.714 115.598 222.623L119.324 222.025C119.853 221.957 120.304 222.437 120.382 223.123C120.442 223.417 120.389 223.723 120.235 223.981C120.081 224.238 119.836 224.429 119.549 224.516L115.833 225.104L115.745 225.114Z" fill="white" stroke="#212121" stroke-width="0.75" stroke-linecap="round" stroke-linejoin="round"/>
  <path d="M113.725 220.633C113.709 220.901 113.596 221.153 113.406 221.343C113.216 221.533 112.964 221.646 112.696 221.663C112.406 221.742 112.097 221.712 111.827 221.578C111.558 221.444 111.347 221.216 111.235 220.937L110.373 217.27C110.255 216.751 110.696 216.241 111.353 216.123C111.642 216.049 111.948 216.081 112.214 216.215C112.481 216.348 112.69 216.573 112.804 216.849L113.676 220.525C113.676 220.525 113.716 220.594 113.725 220.633Z" fill="white" stroke="#212121" stroke-width="0.75" stroke-linecap="round" stroke-linejoin="round"/>
  <path d="M70.1863 198.819C70.1863 198.819 76.9216 202.898 80.049 208.016C83.1765 213.133 85.8334 220.761 87.353 227.457C88.8726 234.153 90.0981 251.633 91.049 255.241C91.5092 257.155 92.2109 259.004 93.1373 260.741C87.6497 262.778 81.822 263.744 75.9706 263.584C66.6765 263.202 65.2549 260.927 65.2549 260.927C65.2549 260.927 62.1275 240.261 62.4118 223.849C62.6961 207.437 70.1863 198.819 70.1863 198.819Z" fill="white"/>
  <g style="mix-blend-mode:multiply" opacity="0.5">
    <path d="M66.2157 217.398C66.2157 217.398 65.2353 218.937 66.0196 214.908C66.6543 212.089 67.6876 209.376 69.0883 206.849L73.6863 212.025L76.5687 212.221L75.804 213.565L81.3628 217.016L78.7255 213.908L78.9118 209.163L74.4608 210.535C74.4608 210.535 71.5785 205.359 70.8138 203.672C70.304 202.516 72.0098 201.535 73.2059 201.016C72.2368 200.261 71.2288 199.557 70.1863 198.908C70.1863 198.908 62.6961 207.535 62.4118 223.937C62.1863 236.947 64.1079 252.623 64.9118 258.565L79.6177 257.751L66.2157 217.398Z" fill="#BDBDBD"/>
  </g>
  <path d="M70.1863 198.819C70.1863 198.819 76.9216 202.898 80.049 208.016C83.1765 213.133 85.8334 220.761 87.353 227.457C88.8726 234.153 90.0981 251.633 91.049 255.241C91.5092 257.155 92.2109 259.004 93.1373 260.741C87.6497 262.778 81.822 263.744 75.9706 263.584C66.6765 263.202 65.2549 260.927 65.2549 260.927C65.2549 260.927 62.1275 240.261 62.4118 223.849C62.6961 207.437 70.1863 198.819 70.1863 198.819Z" stroke="#212121" stroke-width="0.75" stroke-linecap="round" stroke-linejoin="round"/>
  <path d="M68.1961 202.143L75.2157 210.574L78.9118 209.153L78.7255 213.898L84.3137 220.633" stroke="#212121" stroke-width="0.75" stroke-linecap="round" stroke-linejoin="round"/>
  <path d="M63.8824 220.016C63.8824 220.016 64.6667 227.859 67.0098 229.721" stroke="#212121" stroke-width="0.5" stroke-linecap="round" stroke-linejoin="round"/>
  <path d="M64.3529 228.476C64.3529 228.476 65.3333 231.417 67.7941 232.398" stroke="#212121" stroke-width="0.5" stroke-linecap="round" stroke-linejoin="round"/>
  <path d="M84.7059 224.241L80.6373 225.81L81.2647 227.535L85.0196 226.123" stroke="#212121" stroke-width="0.5" stroke-linecap="round" stroke-linejoin="round"/>
  <path d="M112.147 253.78C111.811 253.779 111.485 253.659 111.23 253.439C110.975 253.22 110.806 252.917 110.755 252.584L105.676 219.604C105.649 219.42 105.658 219.233 105.702 219.053C105.747 218.873 105.826 218.703 105.937 218.554C106.047 218.405 106.185 218.279 106.344 218.183C106.503 218.087 106.679 218.024 106.863 217.996C107.046 217.968 107.233 217.977 107.413 218.022C107.594 218.066 107.763 218.146 107.912 218.256C108.062 218.366 108.188 218.505 108.284 218.664C108.379 218.823 108.443 218.999 108.471 219.182L113.549 252.163C113.603 252.533 113.508 252.909 113.286 253.21C113.064 253.511 112.732 253.712 112.363 253.77L112.147 253.78Z" fill="#212121" stroke="#212121" stroke-width="0.75" stroke-linecap="round" stroke-linejoin="round"/>
  <path d="M81.7549 167.535C81.7549 167.535 82.8922 164.878 82.1373 162.888C81.3824 160.898 80.6177 163.927 80.5197 163.359C80.4216 162.79 79.0098 159.378 76.5981 159.849C74.1863 160.319 76.8824 162.604 76.1275 162.319C75.3726 162.035 68.4412 161.339 64.9314 164.78C61.4216 168.221 58.7745 173.025 59.6275 177.584C60.5665 181.518 62.9722 184.944 66.353 187.163C68.1275 188.073 69.6753 189.369 70.8824 190.957C71.9013 190.138 72.8313 189.215 73.6569 188.202C73.164 188.359 72.6411 188.398 72.1303 188.317C71.6194 188.235 71.1349 188.034 70.7157 187.731C69.1961 186.682 68.4412 183.653 70.3432 182.133C72.2451 180.614 74.0785 184.065 74.0785 184.065C76.0393 185.114 75.304 182.359 74.5491 181.123C73.7942 179.888 74.8334 178.555 75.1177 176.761C75.402 174.966 72.9412 174.29 73.2255 172.486C73.5098 170.682 81.7549 167.535 81.7549 167.535Z" fill="#212121" stroke="#212121" stroke-width="0.75" stroke-linecap="round" stroke-linejoin="round"/>
  <path d="M77.1863 168.81C77.1863 168.81 73.7451 167.084 71.549 169.79C69.353 172.496 69.8334 176.996 68.1079 179.653C67.7044 180.385 67.1432 181.018 66.465 181.506C65.7867 181.994 65.0084 182.326 64.1863 182.476" stroke="white" stroke-width="0.5" stroke-linecap="round" stroke-linejoin="round"/>
  <path d="M62.1569 177.741C63.1934 177.852 64.2322 177.553 65.0512 176.908C65.8702 176.264 66.4043 175.324 66.5392 174.29C67.3235 170.368 71.7059 164.741 76.098 164.584C80.4902 164.427 80.1667 167.525 80.1667 167.525" stroke="white" stroke-width="0.5" stroke-linecap="round" stroke-linejoin="round"/>
  <path d="M100.059 232.29L102.804 230.486C102.804 230.486 105.177 226.123 105.363 225.839C105.549 225.555 111.343 222.712 111.814 223.094C112.081 223.327 112.288 223.62 112.419 223.949C112.551 224.278 112.602 224.633 112.569 224.986C112.382 225.467 111.716 225.967 111.716 226.418C111.716 226.868 112.48 230.486 112.48 231.437C112.48 232.388 108.559 233.996 106.98 234.476C105.402 234.957 103.284 234.947 102.804 235.329L101.48 236.368L100.059 232.29Z" fill="white" stroke="#212121" stroke-width="0.75" stroke-linecap="round" stroke-linejoin="round"/>
  <path d="M68.1961 213.143C68.1961 213.143 65.7353 213.8 66.5882 220.721C67.4412 227.643 74.3627 250.967 76.8235 253.819C79.2843 256.672 103.294 240.731 103.294 240.731L100.353 231.623C100.353 231.623 84.1372 237.976 82.8137 238.261C81.4902 238.545 77.6863 217.878 76.3627 215.319" fill="white"/>
  <g style="mix-blend-mode:multiply" opacity="0.5">
    <path d="M102.853 239.408C97.8628 240.986 86.3138 244.584 84.8138 244.427C82.853 244.241 82.3236 243.084 81.1667 241.555C80.0099 240.025 78.2942 246.153 76.7549 246.731C75.2157 247.31 76.3726 239.868 76.951 238.29C77.5295 236.712 75.6079 239.065 75.6079 239.065C75.6079 239.065 71.7746 231.221 69.853 225.829C68.6349 222.309 67.6748 218.705 66.9804 215.045L66.5491 216.104C66.3324 217.622 66.3324 219.164 66.5491 220.682C67.402 227.604 74.3236 250.927 76.7844 253.78C79.2451 256.633 103.255 240.692 103.255 240.692L102.853 239.408Z" fill="#BDBDBD"/>
  </g>
  <path d="M68.1961 213.143C68.1961 213.143 65.7353 213.8 66.5882 220.721C67.4412 227.643 74.3627 250.967 76.8235 253.819C79.2843 256.672 103.294 240.731 103.294 240.731L100.353 231.623C100.353 231.623 84.1372 237.976 82.8137 238.261C81.4902 238.545 77.6863 217.878 76.3627 215.319" stroke="#212121" stroke-width="0.75" stroke-linecap="round" stroke-linejoin="round"/>
  <path d="M82.8039 238.261C81.8373 238.886 81.0078 239.701 80.3658 240.657C79.7237 241.612 79.2824 242.688 79.0686 243.819" stroke="#212121" stroke-width="0.5" stroke-linecap="round" stroke-linejoin="round"/>
  <path d="M79.2255 240.368C78.5669 241.026 78.047 241.809 77.6967 242.671C77.3464 243.534 77.1728 244.457 77.1863 245.388" stroke="#212121" stroke-width="0.5" stroke-linecap="round" stroke-linejoin="round"/>
  <path d="M54.7843 248.074C54.7843 248.074 52.1765 239.378 52.5196 221.3C52.8628 203.221 53.9118 201.486 53.0392 200.094C52.1667 198.702 36.3726 208.006 24.6079 221.565C17.1177 230.231 7.54904 243.065 6.92159 263.28C6.40198 279.447 14.0883 292.516 18.9118 296.133C27.2549 302.388 38.6471 301.957 39.8628 301.957H156.294C156.294 301.957 163.765 299.349 165.5 292.574C167.235 285.8 173.147 266.496 160.814 243.378C152.716 228.212 138.216 211.917 135.775 213.133C133.333 214.349 124.216 231.761 111.794 242.682C100.059 253.006 77.7255 260.584 54.7843 248.074Z" fill="#B75400" stroke="#212121" stroke-width="0.75" stroke-linecap="round" stroke-linejoin="round"/>
  <path d="M160.843 243.378C159.108 240.143 157.088 236.859 154.961 233.702C148.157 236.045 131.098 243.045 121.627 257.025C113.5 269.025 118.902 288.064 135.843 301.957H156.304C156.304 301.957 163.775 299.349 165.51 292.565C167.245 285.78 173.147 266.496 160.843 243.378Z" fill="white" stroke="#212121" stroke-width="0.75" stroke-linecap="round" stroke-linejoin="round"/>
  <path d="M164.578 279.957C164.395 281.656 164.124 283.398 163.765 285.182" stroke="#212121" stroke-width="0.75" stroke-linecap="round" stroke-linejoin="round"/>
  <path d="M158.745 246.329C158.745 246.329 165.794 258.476 164.892 276.192" stroke="#212121" stroke-width="0.75" stroke-linecap="round" stroke-linejoin="round"/>
  <path d="M52.0196 299.486V282.104C42.951 279.163 37.0981 275.672 31.6373 272.398C23.7941 267.702 18.3039 255.045 21.9902 246.849C25.3726 239.28 34.7353 235.898 39.7157 239.28C44.5762 242.474 49.5957 245.419 54.7549 248.104C54.7549 248.104 52.1471 239.408 52.4902 221.329C52.8334 203.251 53.8824 201.516 53.0098 200.123C52.1373 198.731 36.3432 208.035 24.5785 221.594C17.1177 230.231 7.54904 243.065 6.92159 263.28C6.40198 279.447 14.0883 292.516 18.9118 296.133C27.2549 302.388 38.6471 301.957 39.8628 301.957H52.0196C52.0196 301.065 52.0196 300.231 52.0196 299.486Z" fill="white" stroke="#212121" stroke-width="0.75" stroke-linecap="round" stroke-linejoin="round"/>
  <path d="M10.6177 266.682C10.7065 268.822 10.9357 270.954 11.304 273.065" stroke="#212121" stroke-width="0.75" stroke-linecap="round" stroke-linejoin="round"/>
  <path d="M38.6471 213.221C35.8236 215.751 31.6079 218.721 28.9902 221.751C21.4902 230.418 11.2451 242.8 10.5981 263.016" stroke="#212121" stroke-width="0.75" stroke-linecap="round" stroke-linejoin="round"/>
  <path d="M79.1176 299.868C79.1176 309.427 64.4118 310.3 46.1765 310.3C27.9412 310.3 13.2353 309.947 13.2353 299.868C13.2353 285.947 27.9412 272.417 46.1765 272.417C64.4118 272.417 79.1176 285.947 79.1176 299.868Z" fill="#BDBDBD" stroke="#212121" stroke-width="0.75" stroke-linecap="round" stroke-linejoin="round"/>
  <path d="M46.1373 272.408C29.304 272.408 15.4412 283.996 13.451 296.751C15.4118 304.78 29.304 305.084 46.1373 305.084C62.9706 305.084 76.7942 304.339 78.8138 296.692C76.8334 283.957 62.9804 272.408 46.1373 272.408Z" fill="#212121" stroke="#212121" stroke-width="0.75" stroke-linecap="round" stroke-linejoin="round"/>
  <path d="M164.284 300.888C164.284 309.545 150.931 310.339 134.461 310.339C117.99 310.339 104.627 310.025 104.627 300.888C104.627 288.29 117.98 276.016 134.461 276.016C150.941 276.016 164.284 288.29 164.284 300.888Z" fill="#BDBDBD" stroke="#212121" stroke-width="0.75" stroke-linecap="round" stroke-linejoin="round"/>
  <path d="M134.461 276.016C119.216 276.016 106.657 286.515 104.863 298.074C106.657 305.339 119.216 305.614 134.461 305.614C149.706 305.614 162.216 304.937 164.049 298.015C162.216 286.486 149.676 276.016 134.461 276.016Z" fill="#212121" stroke="#212121" stroke-width="0.75" stroke-linecap="round" stroke-linejoin="round"/>
  <path d="M250.588 197.79C249.423 197.354 248.478 196.473 247.961 195.341C247.444 194.208 247.399 192.917 247.833 191.751L261.069 156.368C261.284 155.789 261.612 155.258 262.033 154.805C262.454 154.352 262.96 153.987 263.522 153.73C264.084 153.473 264.691 153.329 265.309 153.306C265.927 153.284 266.543 153.383 267.123 153.599C267.702 153.815 268.233 154.142 268.686 154.563C269.139 154.984 269.504 155.49 269.761 156.052C270.018 156.614 270.162 157.222 270.185 157.839C270.207 158.457 270.108 159.073 269.892 159.653L256.657 195.035C256.441 195.616 256.113 196.148 255.69 196.601C255.268 197.055 254.76 197.42 254.196 197.676C253.632 197.932 253.023 198.074 252.404 198.093C251.784 198.113 251.167 198.01 250.588 197.79Z" fill="white" stroke="#212121" stroke-width="0.75" stroke-linecap="round" stroke-linejoin="round"/>
  <path d="M265.824 162.741L258.392 182.27" stroke="#212121" stroke-width="0.75" stroke-linecap="round" stroke-linejoin="round"/>
  <path d="M230.451 251.712C229.424 251.329 228.483 250.747 227.681 250.001C226.878 249.254 226.231 248.356 225.776 247.359C225.321 246.363 225.066 245.286 225.027 244.19C224.989 243.095 225.166 242.003 225.549 240.976L244.441 190.457C245.221 188.383 246.793 186.704 248.811 185.789C250.829 184.875 253.127 184.799 255.201 185.579C257.275 186.359 258.953 187.931 259.868 189.949C260.783 191.967 260.858 194.265 260.078 196.339L241.147 246.81C240.374 248.874 238.814 250.549 236.81 251.467C234.806 252.386 232.52 252.473 230.451 251.712Z" fill="#212121" stroke="#212121" stroke-width="0.75" stroke-linecap="round" stroke-linejoin="round"/>
  <path d="M300.578 65.6136C291.16 62.0914 280.908 61.4414 271.12 63.7456C261.332 66.0498 252.446 71.2048 245.588 78.5587C238.729 85.9126 234.206 95.1352 232.589 105.06C230.972 114.985 232.334 125.167 236.503 134.317C240.673 143.468 247.462 151.177 256.013 156.469C264.564 161.761 274.491 164.398 284.541 164.048C294.591 163.698 304.311 160.375 312.472 154.501C320.634 148.626 326.87 140.464 330.392 131.045C335.113 118.415 334.624 104.426 329.033 92.1563C323.442 79.8862 313.207 70.3388 300.578 65.6136ZM268.039 152.614C260.252 149.7 253.504 144.543 248.648 137.794C243.792 131.045 241.046 123.008 240.758 114.699C240.469 106.389 242.651 98.181 247.028 91.1118C251.404 84.0426 257.779 78.4298 265.345 74.9832C272.911 71.5367 281.329 70.4111 289.535 71.7488C297.741 73.0865 305.366 76.8275 311.446 82.4986C317.526 88.1698 321.788 95.5164 323.693 103.61C325.597 111.703 325.06 120.179 322.147 127.967C318.239 138.409 310.343 146.872 300.197 151.494C290.05 156.116 278.483 156.519 268.039 152.614Z" fill="#212121" stroke="#212121" stroke-width="0.75" stroke-linecap="round" stroke-linejoin="round"/>
  <path d="M248.677 97.79C250.716 93.2921 253.628 89.2432 257.243 85.8776C260.857 82.512 265.103 79.8964 269.735 78.1822" stroke="#212121" stroke-width="0.75" stroke-linecap="round" stroke-linejoin="round"/>
  <path d="M245.314 113.359C245.303 109.545 245.879 105.753 247.02 102.114" stroke="#212121" stroke-width="0.75" stroke-linecap="round" stroke-linejoin="round"/>
  <path d="M234.569 123.731C232.037 112.071 233.818 99.8879 239.58 89.4396C245.342 78.9912 254.697 70.9854 265.909 66.9052C277.122 62.825 289.434 62.947 300.563 67.2484C311.693 71.5499 320.887 79.7394 326.441 90.2998" stroke="white" stroke-miterlimit="10"/>
  <path d="M331.755 107.359C333.192 119.107 330.358 130.98 323.769 140.812C317.18 150.644 307.275 157.78 295.863 160.917C284.451 164.055 272.291 162.984 261.602 157.902C250.913 152.819 242.407 144.063 237.637 133.231" stroke="white" stroke-miterlimit="10"/>
  <path d="M328.422 94.5646C329.701 97.6838 330.657 100.926 331.275 104.241" stroke="white" stroke-miterlimit="10"/>
  <path d="M85.353 286.565C93.1662 286.565 99.5 280.231 99.5 272.417C99.5 264.604 93.1662 258.27 85.353 258.27C77.5398 258.27 71.2059 264.604 71.2059 272.417C71.2059 280.231 77.5398 286.565 85.353 286.565Z" fill="#212121"/>
  <path d="M85.353 284.359C91.9479 284.359 97.2942 279.012 97.2942 272.417C97.2942 265.823 91.9479 260.476 85.353 260.476C78.7581 260.476 73.4118 265.823 73.4118 272.417C73.4118 279.012 78.7581 284.359 85.353 284.359Z" fill="white" stroke="#212121" stroke-width="0.75" stroke-linecap="round" stroke-linejoin="round"/>
  <path d="M81.7255 275.947C81.6219 275.841 81.5639 275.698 81.5639 275.55C81.5639 275.401 81.6219 275.259 81.7255 275.153L84.9608 271.917C85.067 271.814 85.2095 271.756 85.3578 271.756C85.5062 271.756 85.6487 271.814 85.7549 271.917C85.8088 271.97 85.8518 272.032 85.8811 272.101C85.9104 272.17 85.9255 272.244 85.9255 272.319C85.9255 272.394 85.9104 272.469 85.8811 272.538C85.8518 272.607 85.8088 272.669 85.7549 272.721L82.5294 275.947C82.4773 276.001 82.4148 276.044 82.3458 276.073C82.2767 276.102 82.2025 276.118 82.1274 276.118C82.0524 276.118 81.9782 276.102 81.9091 276.073C81.84 276.044 81.7776 276.001 81.7255 275.947Z" fill="#212121"/>
  <path d="M76.8039 280.868C76.7075 280.777 76.6307 280.667 76.5783 280.544C76.5258 280.422 76.4988 280.291 76.4988 280.158C76.4988 280.025 76.5258 279.893 76.5783 279.771C76.6307 279.649 76.7075 279.538 76.8039 279.447L81.4118 274.839C81.5035 274.741 81.6143 274.663 81.7374 274.61C81.8605 274.556 81.9933 274.529 82.1275 274.529C82.2616 274.529 82.3944 274.556 82.5175 274.61C82.6406 274.663 82.7514 274.741 82.8431 274.839C82.9396 274.931 83.0163 275.041 83.0688 275.163C83.1212 275.285 83.1483 275.417 83.1483 275.55C83.1483 275.683 83.1212 275.814 83.0688 275.937C83.0163 276.059 82.9396 276.169 82.8431 276.261L78.2353 280.868C78.1436 280.966 78.0328 281.044 77.9096 281.098C77.7865 281.151 77.6538 281.179 77.5196 281.179C77.3854 281.179 77.2527 281.151 77.1296 281.098C77.0065 281.044 76.8956 280.966 76.8039 280.868Z" fill="#212121"/>
  <path d="M93.8431 272.614C94.7038 271.754 95.2902 270.659 95.5282 269.466C95.7662 268.274 95.645 267.037 95.1801 265.913C94.7151 264.79 93.9272 263.829 92.9161 263.153C91.9051 262.477 90.7162 262.116 89.5 262.116C88.2838 262.116 87.0949 262.477 86.0838 263.153C85.0727 263.829 84.2849 264.79 83.8199 265.913C83.3549 267.037 83.2338 268.274 83.4718 269.466C83.7097 270.659 84.2962 271.754 85.1569 272.614C86.3094 273.764 87.8714 274.41 89.5 274.41C91.1286 274.41 92.6906 273.764 93.8431 272.614Z" fill="#212121"/>
  <path d="M92.6667 271.427C93.2904 270.801 93.7146 270.005 93.8858 269.138C94.0571 268.271 93.9676 267.373 93.6288 266.557C93.29 265.741 92.717 265.044 91.9821 264.553C91.2473 264.063 90.3835 263.801 89.5 263.801C88.6165 263.801 87.7527 264.063 87.0179 264.553C86.283 265.044 85.71 265.741 85.3712 266.557C85.0324 267.373 84.9429 268.271 85.1142 269.138C85.2854 270.005 85.7097 270.801 86.3333 271.427C86.7487 271.844 87.2422 272.175 87.7856 272.4C88.329 272.626 88.9116 272.742 89.5 272.742C90.0884 272.742 90.671 272.626 91.2144 272.4C91.7578 272.175 92.2514 271.844 92.6667 271.427Z" fill="white"/>
  <path d="M260.843 221.967C260.843 223.212 260.348 224.406 259.468 225.287C258.587 226.168 257.393 226.663 256.147 226.663H223.039C222.405 226.692 221.772 226.592 221.177 226.369C220.583 226.146 220.04 225.806 219.581 225.367C219.122 224.929 218.756 224.402 218.507 223.818C218.257 223.234 218.129 222.606 218.129 221.971C218.129 221.337 218.257 220.708 218.507 220.125C218.756 219.541 219.122 219.014 219.581 218.576C220.04 218.137 220.583 217.796 221.177 217.574C221.772 217.351 222.405 217.251 223.039 217.28H256.147C257.391 217.28 258.584 217.774 259.464 218.652C260.345 219.531 260.841 220.723 260.843 221.967Z" fill="#B75400" stroke="#212121" stroke-width="0.75" stroke-linecap="round" stroke-linejoin="round"/>
  <path d="M241.029 225.212C242.47 225.212 243.637 224.044 243.637 222.604C243.637 221.163 242.47 219.996 241.029 219.996C239.589 219.996 238.422 221.163 238.422 222.604C238.422 224.044 239.589 225.212 241.029 225.212Z" fill="white" stroke="#212121" stroke-width="0.75" stroke-linecap="round" stroke-linejoin="round"/>
  <path d="M201.392 253.212C204.901 253.212 207.745 250.367 207.745 246.859C207.745 243.35 204.901 240.506 201.392 240.506C197.884 240.506 195.039 243.35 195.039 246.859C195.039 250.367 197.884 253.212 201.392 253.212Z" fill="#B75400" stroke="#212121" stroke-width="0.75" stroke-linecap="round" stroke-linejoin="round"/>
  <path d="M203.775 246.859C203.776 246.387 203.638 245.926 203.378 245.532C203.117 245.139 202.746 244.832 202.311 244.651C201.876 244.469 201.396 244.42 200.933 244.511C200.471 244.602 200.045 244.828 199.711 245.161C199.377 245.494 199.149 245.918 199.056 246.38C198.964 246.843 199.01 247.322 199.19 247.758C199.37 248.194 199.676 248.567 200.068 248.829C200.46 249.091 200.921 249.231 201.392 249.231C202.022 249.231 202.627 248.982 203.073 248.537C203.52 248.092 203.772 247.489 203.775 246.859Z" fill="white" stroke="#212121" stroke-width="0.75" stroke-linecap="round" stroke-linejoin="round"/>
  <path d="M223.039 228.437C226.548 228.437 229.392 225.593 229.392 222.084C229.392 218.576 226.548 215.731 223.039 215.731C219.531 215.731 216.686 218.576 216.686 222.084C216.686 225.593 219.531 228.437 223.039 228.437Z" fill="#B75400" stroke="#212121" stroke-width="0.75" stroke-linecap="round" stroke-linejoin="round"/>
  <path d="M223.039 224.535C224.393 224.535 225.49 223.438 225.49 222.084C225.49 220.731 224.393 219.633 223.039 219.633C221.686 219.633 220.588 220.731 220.588 222.084C220.588 223.438 221.686 224.535 223.039 224.535Z" fill="white" stroke="#212121" stroke-width="0.75" stroke-linecap="round" stroke-linejoin="round"/>
</svg>
