<svg xmlns="http://www.w3.org/2000/svg" width="251" height="52" viewBox="0 0 251 52" fill="none">
<rect width="144" height="52" fill="#B75400"/>
<path d="M16.2656 18.0703V33H13.6919V18.0703H16.2656ZM31.7281 18.0703V33H29.1544L22.4586 22.3052V33H19.8848V18.0703H22.4586L29.1749 28.7856V18.0703H31.7281ZM39.5514 33H36.3625L36.383 30.9595H39.5514C40.4743 30.9595 41.2467 30.7578 41.8688 30.3545C42.4977 29.9512 42.9694 29.3735 43.2838 28.6216C43.6051 27.8696 43.7658 26.9741 43.7658 25.9351V25.125C43.7658 24.3184 43.6735 23.604 43.4889 22.9819C43.3112 22.3599 43.0446 21.8369 42.6891 21.4131C42.3405 20.9893 41.9098 20.668 41.3971 20.4492C40.8913 20.2305 40.3068 20.1211 39.6437 20.1211H36.3009V18.0703H39.6437C40.6349 18.0703 41.5407 18.2378 42.361 18.5728C43.1813 18.9009 43.8888 19.376 44.4836 19.998C45.0851 20.6201 45.5465 21.3652 45.8678 22.2334C46.1891 23.1016 46.3498 24.0723 46.3498 25.1455V25.9351C46.3498 27.0083 46.1891 27.979 45.8678 28.8472C45.5465 29.7153 45.0851 30.4604 44.4836 31.0825C43.882 31.6978 43.1642 32.1729 42.3302 32.5078C41.5031 32.8359 40.5768 33 39.5514 33ZM37.7878 18.0703V33H35.214V18.0703H37.7878ZM59.1257 30.9595V33H51.1995V30.9595H59.1257ZM51.9275 18.0703V33H49.3537V18.0703H51.9275ZM58.0901 24.3047V26.3145H51.1995V24.3047H58.0901ZM59.0745 18.0703V20.1211H51.1995V18.0703H59.0745ZM63.6063 18.0703L66.7747 23.5151L69.9432 18.0703H72.9066L68.3948 25.4634L73.0194 33H70.0252L66.7747 27.4526L63.5242 33H60.5198L65.1546 25.4634L60.6326 18.0703H63.6063ZM85.1083 30.9595V33H77.182V30.9595H85.1083ZM77.9101 18.0703V33H75.3363V18.0703H77.9101ZM84.0727 24.3047V26.3145H77.182V24.3047H84.0727ZM85.057 18.0703V20.1211H77.182V18.0703H85.057ZM91.9678 33H88.7788L88.7993 30.9595H91.9678C92.8906 30.9595 93.6631 30.7578 94.2851 30.3545C94.914 29.9512 95.3857 29.3735 95.7002 28.6216C96.0215 27.8696 96.1821 26.9741 96.1821 25.9351V25.125C96.1821 24.3184 96.0898 23.604 95.9053 22.9819C95.7275 22.3599 95.4609 21.8369 95.1054 21.4131C94.7568 20.9893 94.3261 20.668 93.8135 20.4492C93.3076 20.2305 92.7231 20.1211 92.06 20.1211H88.7173V18.0703H92.06C93.0512 18.0703 93.957 18.2378 94.7773 18.5728C95.5976 18.9009 96.3052 19.376 96.8999 19.998C97.5014 20.6201 97.9629 21.3652 98.2842 22.2334C98.6054 23.1016 98.7661 24.0723 98.7661 25.1455V25.9351C98.7661 27.0083 98.6054 27.979 98.2842 28.8472C97.9629 29.7153 97.5014 30.4604 96.8999 31.0825C96.2983 31.6978 95.5805 32.1729 94.7466 32.5078C93.9194 32.8359 92.9931 33 91.9678 33ZM90.2041 18.0703V33H87.6303V18.0703H90.2041ZM113.018 26.2529H109.214L109.193 24.3765H112.516C113.076 24.3765 113.551 24.2944 113.941 24.1304C114.338 23.9595 114.638 23.7168 114.843 23.4023C115.048 23.0811 115.151 22.6948 115.151 22.2437C115.151 21.7446 115.055 21.3379 114.864 21.0234C114.673 20.709 114.379 20.48 113.982 20.3364C113.592 20.1929 113.093 20.1211 112.485 20.1211H109.993V33H107.42V18.0703H112.485C113.305 18.0703 114.037 18.1489 114.679 18.3062C115.329 18.4634 115.879 18.7095 116.33 19.0444C116.788 19.3726 117.133 19.7896 117.366 20.2954C117.605 20.8013 117.725 21.4028 117.725 22.1001C117.725 22.7153 117.578 23.2793 117.284 23.792C116.99 24.2979 116.556 24.7114 115.982 25.0327C115.407 25.354 114.693 25.5454 113.839 25.6069L113.018 26.2529ZM112.905 33H108.404L109.563 30.9595H112.905C113.486 30.9595 113.972 30.8638 114.361 30.6724C114.751 30.4741 115.042 30.2041 115.233 29.8623C115.431 29.5137 115.53 29.1069 115.53 28.6421C115.53 28.1567 115.445 27.7363 115.274 27.3809C115.103 27.0186 114.833 26.7417 114.464 26.5503C114.095 26.3521 113.613 26.2529 113.018 26.2529H110.127L110.147 24.3765H113.91L114.495 25.084C115.315 25.1113 115.988 25.2925 116.515 25.6274C117.048 25.9624 117.444 26.3965 117.704 26.9297C117.964 27.4629 118.094 28.0371 118.094 28.6523C118.094 29.6025 117.885 30.3989 117.468 31.0415C117.058 31.6841 116.467 32.1729 115.694 32.5078C114.922 32.8359 113.992 33 112.905 33ZM121.959 18.0703L125.425 25.1968L128.891 18.0703H131.741L126.717 27.5039V33H124.123V27.5039L119.098 18.0703H121.959Z" fill="white"/>
<rect x="145.5" y="1.5" width="104" height="49" fill="white"/>
<path d="M173.354 40.8964C173.015 40.8964 172.682 40.8513 172.362 40.7643C171.864 40.6289 171.382 40.4032 170.853 40.0551C170.774 40.0036 170.269 39.5652 169.987 39.3202L169.981 39.3138C169.927 39.2687 169.883 39.23 169.851 39.201C169.544 39.3525 169.252 39.5555 168.967 39.7554C168.393 40.1583 167.797 40.5709 167.033 40.5999C166.377 40.6257 165.682 40.5193 164.887 40.2775C164.817 40.2582 164.662 40.1905 164.408 40.0874C164.126 39.9681 163.701 39.8198 163.562 39.7618C163.549 39.7554 163.495 39.7231 163.476 39.6651C163.457 39.6103 163.457 39.5233 163.466 39.504C163.993 39.0946 164.5 38.6047 164.991 38.1276C165.315 37.8149 165.651 37.4894 165.987 37.1929C166.104 37.0897 166.212 36.9769 166.316 36.8544L166.488 36.632C167.394 35.3749 167.775 33.3378 167.987 31.8228C168.187 30.411 168.079 28.9444 167.962 27.6809C167.746 25.3473 167.014 23.655 165.717 22.5011C165.115 21.966 164.44 21.5309 163.799 21.1344L163.52 20.9636C162.867 20.5607 162.195 20.1449 161.583 19.6517C161.514 19.5969 161.485 19.5099 161.507 19.4261C161.609 19.0264 163.321 18.4655 163.337 18.4623C163.644 18.414 163.977 18.3882 164.351 18.3882C164.776 18.3882 165.201 18.4204 165.6 18.4494C166.573 18.5268 167.201 18.9748 167.87 19.4519C168.104 19.6195 168.345 19.7903 168.608 19.9515L168.634 19.9225C168.713 19.8193 168.77 19.6936 168.833 19.5614C168.919 19.3777 169.008 19.1875 169.163 19.0328C169.531 18.6686 169.981 18.5687 170.336 18.5235C170.466 18.5074 170.583 18.4978 170.701 18.4978C171.354 18.4978 171.759 18.7685 172.27 19.1166C172.349 19.1682 172.428 19.223 172.514 19.281C172.726 19.4196 172.907 19.4905 173.053 19.4905C173.297 19.4905 173.443 19.3036 173.668 18.9974C173.906 18.6718 174.172 18.3044 174.682 18.2431C175.208 18.1819 175.624 18.4526 175.985 18.6912C176.261 18.8717 176.524 19.0457 176.79 19.0457C177.003 19.0457 177.221 18.9361 177.456 18.7073C177.745 18.4268 177.985 18.2141 178.277 18.2141C178.483 18.2141 178.689 18.3205 178.924 18.5493L178.978 18.6009C179.485 19.0941 179.624 19.2327 180.262 18.8878C180.747 18.6267 181.365 18.4623 181.878 18.4623C182.753 18.4623 183.295 18.9232 183.327 19.7194L183.248 19.742L183.108 19.7871C183.045 19.8129 183.01 19.8193 182.953 19.8451C182.275 20.0546 180.224 21.2182 180.017 21.3794C179.33 21.9112 178.683 22.5946 178.198 23.3037C176.318 26.0435 176.353 29.9469 176.955 32.4578C177.272 33.7794 177.697 35.3201 178.461 36.7545C178.8 37.3927 179.196 37.9858 179.634 38.5176L179.678 38.5724C180.728 39.8521 180.959 39.9036 181.026 39.9713C181.067 40.0132 181.095 40.0422 181.102 40.0809C181.111 40.1647 181.019 40.2292 180.949 40.2679C180.858 40.3162 180.759 40.3485 180.658 40.371C180.56 40.3936 180.496 40.4033 180.366 40.4258C180.258 40.4452 180.147 40.4548 180.036 40.4645C179.561 40.4999 179.092 40.5193 178.616 40.4709C178.321 40.4387 178.027 40.4032 177.735 40.3485C177.383 40.284 176.638 40.126 176.223 39.8746L175.95 40.0293C175.522 40.3259 174.736 40.6547 174.635 40.6901C174.223 40.8223 173.788 40.8964 173.354 40.8964ZM170.086 39.0205C170.352 39.2558 170.938 39.7618 171.005 39.8069C171.509 40.1389 171.962 40.3549 172.431 40.4806C173.107 40.6643 173.852 40.6385 174.555 40.4032C174.647 40.3742 175.459 40.0293 175.83 39.7554L175.747 39.5878C175.44 38.9592 175.015 38.0986 174.8 37.4636C174.752 37.3282 174.708 37.1993 174.663 37.08C174.422 36.4064 174.235 35.8713 174.235 34.9301V34.1275L176.106 39.1977C176.15 39.288 176.191 39.3911 176.226 39.4943H176.229C176.378 39.7102 177.142 39.9359 177.789 40.0551C178.883 40.255 179.878 40.2582 180.661 40.0551C180.426 39.865 180.065 39.4878 179.46 38.7529L179.415 38.7014C178.965 38.1566 178.559 37.5474 178.207 36.8899C177.428 35.4297 176.996 33.8632 176.676 32.5255C176.061 29.9566 176.03 25.9565 177.963 23.1361C178.467 22.4012 179.136 21.6953 179.843 21.1441C180.021 21.0055 182.338 19.7065 183.004 19.5518C182.896 18.8942 182.341 18.7492 181.875 18.7492C181.406 18.7492 180.839 18.8974 180.392 19.1392C179.583 19.5743 179.311 19.3261 178.775 18.8072L178.721 18.7556C178.543 18.5848 178.398 18.501 178.271 18.501C178.087 18.501 177.887 18.6783 177.649 18.9136C177.361 19.194 177.079 19.3326 176.787 19.3326C176.435 19.3326 176.125 19.1295 175.827 18.9329C175.487 18.7105 175.139 18.4784 174.711 18.53C174.324 18.5751 174.115 18.862 173.893 19.1682C173.674 19.468 173.449 19.7806 173.05 19.7806C172.847 19.7806 172.619 19.6968 172.355 19.526C172.27 19.468 172.187 19.4132 172.108 19.3616C171.598 19.0199 171.262 18.7911 170.694 18.7911C170.593 18.7911 170.482 18.7975 170.368 18.8136C169.902 18.8749 169.601 19.0038 169.36 19.2423C169.242 19.3616 169.166 19.5195 169.087 19.6872C169.036 19.7967 168.982 19.9096 168.913 20.0159C169.553 21.0506 169.911 22.2916 170.025 23.0555C170.222 24.377 169.899 25.0991 169.591 25.7985L169.356 26.3271L168.558 20.2577C168.247 20.0772 167.968 19.8773 167.699 19.6872C167.065 19.2359 166.465 18.8104 165.571 18.7395C165.175 18.7073 164.757 18.6783 164.345 18.6783C163.986 18.6783 163.669 18.7008 163.375 18.7492C163.2 18.7879 162.037 19.2423 161.809 19.4647C162.392 19.9289 163.039 20.3286 163.663 20.7122L163.942 20.883C164.592 21.2859 165.28 21.7275 165.898 22.2787C167.252 23.481 168.016 25.2377 168.237 27.6487C168.355 28.9283 168.463 30.4175 168.26 31.8583C168.073 33.196 167.787 34.7367 167.204 35.9551L168.662 34.611C168.808 34.4756 169.005 34.3209 169.163 34.192L169.949 33.5602L168.91 35.1396C168.675 35.3556 168.497 35.5264 168.31 35.7972C168.12 36.0744 167.809 36.3097 167.584 36.4837C167.343 36.6675 167.077 36.7642 166.706 36.8061C166.545 37.0285 166.364 37.2283 166.167 37.4024C165.835 37.6957 165.502 38.018 165.182 38.3274C164.754 38.74 164.316 39.1655 163.856 39.5426C164.005 39.5974 164.211 39.6845 164.509 39.8069C164.709 39.8907 164.899 39.9713 164.96 39.9874C165.727 40.2195 166.389 40.3227 167.014 40.3001C167.699 40.2743 168.231 39.9036 168.799 39.5072C169.112 39.288 169.436 39.0624 169.791 38.898L171.385 32.7447V33.8664C171.385 34.9752 171.312 35.4555 171.208 36.0163C171.144 36.3612 170.973 36.8028 170.821 37.1961C170.739 37.4056 170.663 37.6054 170.612 37.7698C170.52 38.0567 170.428 38.2533 170.308 38.5047C170.25 38.6562 170.174 38.8174 170.086 39.0205ZM174.647 36.0647C174.72 36.3741 174.822 36.6578 174.939 36.9866C174.983 37.109 175.028 37.238 175.075 37.3734C175.189 37.7118 175.367 38.1179 175.554 38.5208L174.647 36.0647ZM171.049 35.217L170.558 37.1123C170.561 37.1058 170.561 37.0994 170.564 37.0962C170.71 36.7158 170.878 36.2839 170.935 35.968C170.98 35.7263 171.021 35.4942 171.049 35.217ZM168.323 35.3298L167.144 36.416C167.245 36.3741 167.334 36.3226 167.42 36.2581C167.629 36.0969 167.917 35.8777 168.082 35.6392C168.161 35.52 168.241 35.42 168.323 35.3298ZM168.903 20.5607L169.512 25.2634C169.737 24.7026 169.895 24.0869 169.75 23.0942C169.654 22.4527 169.382 21.4632 168.903 20.5607ZM176.553 37.686C176.435 37.4185 176.375 37.1477 176.318 36.8866L176.274 36.6868L176.175 36.3419C176.169 36.3129 176.159 36.2871 176.15 36.2581C176.068 36.0325 175.96 35.8358 175.855 35.6424C175.735 35.42 175.611 35.188 175.519 34.9108C175.17 33.8471 174.936 32.9252 174.936 31.8873V30.843L176.464 36.3193C176.496 36.416 176.524 36.5192 176.546 36.6191L176.816 37.5829L176.553 37.686ZM173.132 28.1741L173.937 26.3723C174.017 26.0693 174.07 25.6986 174.127 25.3408C174.188 24.9443 174.245 24.5704 174.337 24.3287C174.603 23.626 175.183 23.1973 175.741 22.7847C176.023 22.5784 176.286 22.3818 176.515 22.153L177.244 21.4213L174.422 26.4883C174.311 26.8719 173.801 27.8937 173.465 28.0355L173.132 28.1741ZM176.106 22.875C176.039 22.9233 175.972 22.9749 175.906 23.0233C175.354 23.4294 174.834 23.813 174.6 24.4351C174.521 24.6446 174.467 25.0056 174.406 25.3859C174.368 25.6438 174.327 25.9049 174.276 26.1563L176.106 22.875ZM177.041 22.1272L177.247 21.4567C177.408 20.9281 177.89 19.6904 178.832 19.6356L179.168 19.6162L177.041 22.1272ZM178.369 20.1159C178.198 20.2448 178.036 20.435 177.89 20.6799L178.369 20.1159Z" fill="#212121"/>
<path d="M163.685 40.326C165.093 42.9336 169.062 43.5106 171.668 43.5751C172.663 43.6008 173.668 43.5364 174.654 43.4074C175.18 43.3365 175.678 43.185 176.22 43.0303C177.149 42.7628 178.077 42.4695 178.956 42.0569C179.739 41.6862 180.848 41.3059 181.083 40.2905C180.661 40.9964 177.26 40.5935 176.746 40.3421C176.426 40.1842 176.458 40.1294 176.194 40.3872C175.38 41.1898 173.944 41.4477 172.878 41.2478C172.019 41.0867 170.859 40.4066 170.168 39.8618C169.902 39.6491 170.029 39.5427 169.658 39.72C168.827 40.1132 168.238 40.6419 167.283 40.7998C166.288 40.9642 165.362 40.7837 164.253 40.2841C163.977 40.1616 163.866 40.1455 163.552 39.9327L163.685 40.326Z" fill="#212121"/>
<path d="M161.622 19.0554C163.292 16.7507 166.044 15.9224 168.634 15.1939C169.953 14.8232 171.049 14.5944 172.441 14.5944C173.655 14.5944 174.838 14.8845 176.02 15.1262C177.209 15.368 178.426 15.5581 179.479 16.2092C180.157 16.6283 180.956 16.8507 181.634 17.2794C181.863 17.4244 182.665 17.6178 182.563 17.9691C182.417 18.4688 181.232 17.9982 180.858 18.1916C180.452 18.4011 179.916 18.7911 179.453 18.6557C179.009 18.5268 178.883 17.9949 178.385 17.9434C177.624 17.866 177.472 18.6879 176.711 18.6299C176.134 18.5848 175.472 17.8531 174.888 17.8918C174.337 17.9272 173.738 18.53 173.329 18.8362C172.577 19.4035 172.254 18.6138 171.611 18.3527C171.227 18.198 171.078 18.1529 170.656 18.1529C169.601 18.1529 168.957 18.6299 168.358 19.4809C168.561 19.1908 167.223 18.5493 167.09 18.5107C166.529 18.3527 165.946 18.1142 165.365 18.1045C163.901 18.0787 162.867 18.1206 161.622 19.0554Z" fill="#212121"/>
<path d="M172.539 6.6812C172.251 6.29118 171.896 6.4459 171.442 6.46846C171.198 7.15824 171.423 7.74488 171.547 8.3283C171.683 8.97296 171.801 9.63373 171.915 10.2397C172.038 10.8811 172.086 11.5516 172.121 12.2575C172.137 12.6024 172.153 12.9924 172.08 13.3212C172.013 13.6177 171.813 13.8176 171.759 14.1077C172.333 14.0915 172.951 14.1044 173.538 14.0722C173.541 13.7789 173.351 13.4888 173.281 13.2116C173.202 12.8925 173.253 12.5863 173.218 12.2575C173.161 11.7095 173.027 11.1712 172.967 10.5878C172.831 9.29851 172.619 8.00275 172.539 6.6812Z" fill="#212121"/>
<path d="M182.715 9.08577C181.143 9.11155 179.422 9.18891 177.966 10.0205C177.285 10.4073 176.8 10.894 176.163 11.3711C175.843 11.6128 175.516 11.8256 175.142 12.0157C174.765 12.2059 174.318 12.2381 173.969 12.4509L174.153 12.8796C174.625 12.7442 174.727 12.6636 175.212 12.6346C175.69 12.6056 176.147 12.525 176.67 12.5766C177.161 12.6249 177.732 12.6153 178.201 12.7442C178.749 12.8957 179.447 12.8957 180.008 12.9408C181.127 13.0279 182.5 12.7797 183.619 12.5411C184.424 12.3671 185.499 12.0157 186.117 11.4001C186.377 11.139 186.513 10.8844 186.824 10.591C187.118 10.3106 187.575 9.74976 187.794 9.42421C188.009 9.10188 188.206 8.90526 188.409 8.55715C188.586 8.25416 188.922 7.61917 188.929 7.2356C187.407 8.97617 184.792 9.05031 182.715 9.08577Z" fill="#212121"/>
<path d="M195.296 32.6347C195.185 34.2354 194.616 35.4955 193.59 36.4151C192.57 37.3347 191.223 37.7945 189.549 37.7945C187.718 37.7945 186.276 37.1542 185.223 35.8736C184.177 34.5862 183.654 32.822 183.654 30.5809V29.6716C183.654 28.2411 183.896 26.981 184.38 25.8911C184.864 24.8013 185.553 23.9668 186.449 23.3879C187.352 22.8021 188.398 22.5092 189.588 22.5092C191.236 22.5092 192.563 22.9689 193.57 23.8885C194.577 24.8081 195.159 26.0989 195.316 27.7609H192.373C192.302 26.8005 192.043 26.1057 191.599 25.6766C191.16 25.2406 190.49 25.0226 189.588 25.0226C188.607 25.0226 187.871 25.3905 187.381 26.1261C186.897 26.855 186.649 27.9891 186.636 29.5285V30.6525C186.636 32.26 186.868 33.435 187.332 34.1775C187.803 34.92 188.542 35.2912 189.549 35.2912C190.458 35.2912 191.134 35.0766 191.579 34.6475C192.03 34.2115 192.288 33.5406 192.354 32.6347H195.296Z" fill="#212121"/>
<path d="M208.959 30.489C208.959 31.9535 208.711 33.2375 208.214 34.341C207.717 35.4445 207.004 36.2959 206.076 36.8953C205.154 37.4948 204.094 37.7945 202.898 37.7945C201.714 37.7945 200.658 37.4982 199.73 36.9056C198.801 36.3129 198.082 35.4683 197.572 34.3716C197.062 33.2681 196.804 32.0012 196.797 30.5707V29.8351C196.797 28.3706 197.049 27.0832 197.552 25.9729C198.062 24.8558 198.778 24.0009 199.7 23.4083C200.629 22.8089 201.688 22.5092 202.878 22.5092C204.068 22.5092 205.124 22.8089 206.046 23.4083C206.975 24.0009 207.691 24.8558 208.194 25.9729C208.704 27.0832 208.959 28.3672 208.959 29.8249V30.489ZM205.978 29.8146C205.978 28.2548 205.71 27.0695 205.173 26.259C204.637 25.4484 203.872 25.0431 202.878 25.0431C201.891 25.0431 201.129 25.445 200.593 26.2487C200.057 27.0457 199.785 28.2173 199.779 29.7635V30.489C199.779 32.008 200.047 33.1864 200.583 34.0242C201.119 34.8621 201.891 35.281 202.898 35.281C203.885 35.281 204.644 34.8791 205.173 34.0753C205.703 33.2647 205.971 32.0863 205.978 30.5401V29.8146Z" fill="#212121"/>
<path d="M216.384 32.1442H214.04V37.5901H211.098V22.7135H216.404C218.091 22.7135 219.392 23.1052 220.308 23.8885C221.223 24.6719 221.681 25.7787 221.681 27.2092C221.681 28.2241 221.468 29.0722 221.043 29.7533C220.625 30.4277 219.987 30.9658 219.131 31.3677L222.22 37.4471V37.5901H219.062L216.384 32.1442ZM214.04 29.6614H216.414C217.153 29.6614 217.725 29.4672 218.13 29.079C218.536 28.6839 218.738 28.1424 218.738 27.4544C218.738 26.7528 218.545 26.2011 218.16 25.7992C217.78 25.3973 217.195 25.1963 216.404 25.1963H214.04V29.6614Z" fill="#212121"/>
<path d="M232.519 31.1429H226.869V35.1277H233.5V37.5901H223.927V22.7135H233.48V25.1963H226.869V28.7418H232.519V31.1429Z" fill="#212121"/>
<rect x="145.5" y="1.5" width="104" height="49" stroke="#B75400" stroke-width="3"/>
</svg>
