<svg width="400" height="389" viewBox="0 0 400 389" fill="none" xmlns="http://www.w3.org/2000/svg">
  <path d="M172.553 388.179C256.693 388.179 324.902 383.929 324.902 378.688C324.902 373.446 256.693 369.197 172.553 369.197C88.4128 369.197 20.204 373.446 20.204 378.688C20.204 383.929 88.4128 388.179 172.553 388.179Z" fill="#9E9E9E"/>
  <path opacity="0.8" d="M172.553 388.179C256.693 388.179 324.902 383.929 324.902 378.688C324.902 373.446 256.693 369.197 172.553 369.197C88.4128 369.197 20.204 373.446 20.204 378.688C20.204 383.929 88.4128 388.179 172.553 388.179Z" fill="white"/>
  <path d="M287.036 17.7834H133.849C123.273 17.7834 114.7 26.357 114.7 36.933V360.337C114.7 370.913 123.273 379.486 133.849 379.486H287.036C297.612 379.486 306.185 370.913 306.185 360.337V36.933C306.185 26.357 297.612 17.7834 287.036 17.7834Z" fill="#212121"/>
  <path d="M297.67 57.502H123.205V339.768H297.67V57.502Z" fill="white" stroke="#212121" stroke-width="1.33739" stroke-miterlimit="10"/>
  <path d="M237.182 171.8C251.95 157.031 251.95 133.088 237.182 118.319C222.414 103.551 198.47 103.551 183.702 118.319C168.934 133.088 168.934 157.032 183.702 171.8C198.47 186.568 222.414 186.568 237.182 171.8Z" fill="#EEEEEE"/>
  <path d="M260.09 322.018H160.804C160.581 322.019 160.359 321.976 160.153 321.891C159.946 321.807 159.758 321.682 159.599 321.525C159.441 321.367 159.315 321.18 159.229 320.973C159.144 320.767 159.099 320.546 159.099 320.322C159.098 320.098 159.141 319.876 159.227 319.668C159.312 319.461 159.437 319.273 159.596 319.114C159.754 318.955 159.943 318.83 160.15 318.745C160.358 318.659 160.58 318.616 160.804 318.617H260.09C260.314 318.617 260.535 318.662 260.741 318.747C260.948 318.833 261.135 318.959 261.292 319.117C261.45 319.276 261.575 319.464 261.659 319.671C261.744 319.878 261.787 320.099 261.785 320.322C261.785 320.772 261.607 321.203 261.289 321.521C260.971 321.839 260.54 322.018 260.09 322.018Z" fill="#9E9E9E"/>
  <path d="M263.323 204.134H157.562C155.379 204.134 153.61 205.903 153.61 208.086V220.554C153.61 222.736 155.379 224.506 157.562 224.506H263.323C265.506 224.506 267.275 222.736 267.275 220.554V208.086C267.275 205.903 265.506 204.134 263.323 204.134Z" fill="#EEEEEE"/>
  <path d="M263.323 242.236H157.562C155.379 242.236 153.61 244.006 153.61 246.188V258.656C153.61 260.839 155.379 262.608 157.562 262.608H263.323C265.506 262.608 267.275 260.839 267.275 258.656V246.188C267.275 244.006 265.506 242.236 263.323 242.236Z" fill="#EEEEEE"/>
  <path d="M229.272 163.923L218.145 157.517V152.224C219.756 150.275 220.923 147.998 221.565 145.552C221.947 145.688 222.351 145.758 222.757 145.759C224.137 145.759 225.014 141.482 225.162 138.427C226.768 135.026 224.58 133.036 224.58 133.036C224.58 133.036 225.487 132.129 226.088 128.492C226.689 124.855 223.969 126.373 221.85 123.042C219.731 119.711 218.214 116.084 211.255 116.084C209.338 116.021 207.446 116.536 205.826 117.562C204.205 118.589 202.931 120.079 202.169 121.839C200.437 121.846 198.711 122.047 197.024 122.441C194.895 123.042 194.294 130.01 196.107 132.74C196.919 134.232 197.352 135.9 197.369 137.599C196.886 137.007 196.383 136.85 196.107 138.19C195.506 141.216 197.931 145.454 197.931 145.454L199.182 145.099C199.813 147.713 201.03 150.15 202.74 152.224V157.517L191.613 163.923C190.314 164.673 189.234 165.752 188.484 167.051C187.733 168.351 187.337 169.824 187.336 171.325V174.991C193.954 180.103 202.08 182.877 210.442 182.877C218.805 182.877 226.931 180.103 233.549 174.991V171.325C233.55 169.824 233.155 168.349 232.404 167.05C231.653 165.75 230.572 164.672 229.272 163.923Z" fill="#212121"/>
  <path d="M168.009 257.542C167.754 257.538 167.51 257.436 167.329 257.256C167.232 257.17 167.154 257.063 167.102 256.944C167.049 256.825 167.022 256.696 167.023 256.566C167.026 256.389 167.077 256.215 167.171 256.064L168.945 253.225L165.486 253.334C165.355 253.342 165.225 253.322 165.103 253.277C164.98 253.231 164.869 253.159 164.776 253.068C164.616 252.887 164.527 252.654 164.527 252.412C164.527 252.171 164.616 251.937 164.776 251.757C164.867 251.662 164.978 251.587 165.1 251.54C165.223 251.492 165.355 251.472 165.486 251.481L168.896 251.609L167.142 248.78C167.046 248.626 166.995 248.449 166.994 248.268C166.993 248.138 167.02 248.009 167.072 247.89C167.125 247.771 167.202 247.665 167.299 247.578C167.48 247.398 167.724 247.296 167.979 247.292C168.147 247.293 168.311 247.342 168.453 247.433C168.594 247.523 168.707 247.652 168.778 247.805L170.463 250.85L172.129 247.824C172.208 247.663 172.329 247.526 172.48 247.429C172.631 247.332 172.806 247.278 172.986 247.272C173.111 247.273 173.234 247.3 173.347 247.351C173.461 247.402 173.563 247.476 173.646 247.568C173.827 247.756 173.926 248.007 173.922 248.268C173.922 248.437 173.878 248.604 173.794 248.751L172.01 251.609L175.47 251.481C175.601 251.472 175.733 251.492 175.855 251.54C175.978 251.587 176.088 251.662 176.179 251.757C176.347 251.931 176.439 252.165 176.435 252.407C176.435 252.652 176.344 252.887 176.179 253.068C176.086 253.159 175.975 253.231 175.853 253.277C175.731 253.322 175.6 253.342 175.47 253.334L171.991 253.225L173.725 256.034C173.822 256.191 173.874 256.372 173.873 256.557C173.873 256.818 173.769 257.069 173.584 257.253C173.4 257.438 173.149 257.542 172.887 257.542C172.718 257.54 172.554 257.488 172.414 257.394C172.274 257.299 172.164 257.166 172.099 257.01L170.453 254.053L168.817 257.01C168.744 257.164 168.631 257.296 168.488 257.39C168.345 257.484 168.18 257.536 168.009 257.542Z" fill="#212121"/>
  <path d="M183.995 257.542C183.74 257.538 183.496 257.436 183.315 257.256C183.218 257.17 183.141 257.063 183.088 256.944C183.035 256.825 183.008 256.696 183.009 256.566C183.012 256.389 183.064 256.215 183.157 256.064L184.931 253.225L181.482 253.334C181.35 253.34 181.219 253.319 181.095 253.274C180.971 253.228 180.858 253.158 180.762 253.068C180.631 252.933 180.544 252.761 180.512 252.576C180.48 252.391 180.504 252.2 180.582 252.029C180.659 251.858 180.787 251.714 180.947 251.616C181.108 251.519 181.294 251.471 181.482 251.481L184.882 251.609L183.128 248.78C183.032 248.626 182.981 248.449 182.98 248.268C182.979 248.138 183.006 248.009 183.058 247.89C183.111 247.771 183.188 247.665 183.285 247.578C183.466 247.398 183.71 247.296 183.965 247.292C184.133 247.293 184.297 247.342 184.439 247.433C184.58 247.523 184.693 247.652 184.764 247.805L186.449 250.85L188.115 247.824C188.194 247.663 188.315 247.526 188.466 247.429C188.618 247.332 188.792 247.278 188.972 247.272C189.097 247.272 189.22 247.298 189.334 247.349C189.448 247.4 189.55 247.475 189.632 247.568C189.724 247.66 189.796 247.769 189.845 247.89C189.894 248.01 189.919 248.138 189.918 248.268C189.915 248.438 189.867 248.604 189.78 248.751L187.996 251.609L191.466 251.501C191.595 251.492 191.725 251.512 191.846 251.56C191.968 251.607 192.076 251.682 192.165 251.777C192.333 251.951 192.425 252.185 192.422 252.427C192.421 252.671 192.33 252.907 192.165 253.087C192.074 253.179 191.965 253.25 191.844 253.296C191.723 253.342 191.594 253.361 191.466 253.353L187.977 253.245L189.711 256.054C189.808 256.211 189.86 256.392 189.859 256.576C189.859 256.838 189.755 257.088 189.57 257.273C189.386 257.458 189.135 257.562 188.873 257.562C188.705 257.56 188.54 257.508 188.4 257.413C188.26 257.319 188.15 257.185 188.085 257.03L186.439 254.073L184.803 257.03C184.728 257.18 184.613 257.308 184.47 257.398C184.328 257.489 184.164 257.538 183.995 257.542Z" fill="#212121"/>
  <path d="M199.99 257.542C199.732 257.541 199.484 257.438 199.301 257.256C199.204 257.17 199.126 257.063 199.074 256.944C199.021 256.825 198.994 256.696 198.995 256.566C198.998 256.389 199.049 256.215 199.143 256.064L200.917 253.225L197.467 253.334C197.282 253.341 197.098 253.293 196.94 253.196C196.781 253.098 196.655 252.956 196.578 252.787C196.501 252.618 196.476 252.429 196.506 252.246C196.536 252.063 196.621 251.892 196.748 251.757C196.841 251.662 196.953 251.588 197.078 251.54C197.202 251.493 197.335 251.473 197.467 251.481L200.868 251.609L199.113 248.78C199.018 248.626 198.967 248.449 198.965 248.268C198.969 248.138 198.997 248.011 199.05 247.893C199.102 247.774 199.177 247.667 199.271 247.578C199.455 247.396 199.702 247.293 199.961 247.292C200.127 247.295 200.289 247.345 200.429 247.435C200.568 247.526 200.679 247.654 200.749 247.805L202.435 250.85L204.1 247.824C204.179 247.663 204.301 247.526 204.452 247.429C204.603 247.332 204.778 247.278 204.958 247.272C205.082 247.272 205.206 247.298 205.32 247.349C205.434 247.4 205.535 247.475 205.618 247.568C205.709 247.66 205.782 247.769 205.831 247.89C205.88 248.01 205.905 248.138 205.904 248.268C205.9 248.438 205.853 248.604 205.766 248.751L203.982 251.609L207.451 251.481C207.579 251.468 207.708 251.483 207.829 251.524C207.95 251.565 208.061 251.632 208.155 251.72C208.248 251.808 208.322 251.914 208.37 252.033C208.419 252.152 208.442 252.279 208.437 252.407C208.439 252.65 208.351 252.885 208.19 253.068C208.098 253.159 207.986 253.231 207.864 253.277C207.742 253.322 207.611 253.342 207.481 253.334L204.002 253.225L205.726 256.034C205.824 256.191 205.875 256.372 205.874 256.557C205.871 256.686 205.843 256.813 205.79 256.932C205.738 257.05 205.662 257.157 205.569 257.246C205.483 257.339 205.379 257.412 205.264 257.463C205.149 257.514 205.025 257.541 204.899 257.542C204.731 257.539 204.568 257.487 204.43 257.393C204.291 257.298 204.184 257.165 204.12 257.01L202.464 254.053L200.828 257.01C200.754 257.17 200.636 257.305 200.488 257.399C200.339 257.494 200.166 257.543 199.99 257.542Z" fill="#212121"/>
  <path d="M215.976 257.542C215.718 257.541 215.47 257.438 215.287 257.256C215.101 257.074 214.995 256.826 214.991 256.566C214.988 256.389 215.036 256.215 215.129 256.064L216.903 253.225L213.453 253.334C213.322 253.34 213.19 253.319 213.067 253.274C212.943 253.228 212.83 253.158 212.734 253.068C212.573 252.887 212.484 252.654 212.484 252.412C212.484 252.171 212.573 251.937 212.734 251.757C212.829 251.665 212.942 251.593 213.066 251.546C213.189 251.498 213.321 251.476 213.453 251.481L216.863 251.609L215.119 248.78C215.023 248.626 214.972 248.449 214.971 248.268C214.974 248.138 215.003 248.011 215.055 247.893C215.108 247.774 215.183 247.667 215.277 247.578C215.46 247.396 215.708 247.293 215.967 247.292C216.134 247.293 216.299 247.342 216.44 247.433C216.581 247.523 216.694 247.652 216.765 247.805L218.44 250.85L220.106 247.824C220.185 247.663 220.307 247.526 220.458 247.429C220.609 247.332 220.784 247.278 220.963 247.272C221.088 247.272 221.212 247.298 221.325 247.349C221.439 247.4 221.541 247.475 221.624 247.568C221.715 247.66 221.787 247.769 221.836 247.89C221.885 248.01 221.91 248.138 221.91 248.268C221.906 248.438 221.858 248.604 221.772 248.751L219.988 251.609L223.457 251.481C223.584 251.468 223.713 251.483 223.835 251.524C223.956 251.565 224.067 251.632 224.16 251.72C224.254 251.808 224.327 251.914 224.376 252.033C224.425 252.152 224.447 252.279 224.442 252.407C224.444 252.65 224.357 252.885 224.196 253.068C224.103 253.159 223.992 253.231 223.87 253.277C223.747 253.322 223.617 253.342 223.486 253.334L220.007 253.225L221.732 256.034C221.829 256.191 221.881 256.372 221.88 256.557C221.881 256.687 221.854 256.815 221.801 256.934C221.749 257.053 221.671 257.16 221.574 257.246C221.489 257.339 221.385 257.412 221.27 257.463C221.155 257.514 221.03 257.541 220.904 257.542C220.737 257.539 220.574 257.487 220.435 257.393C220.297 257.298 220.189 257.165 220.126 257.01L218.47 254.053L216.834 257.01C216.759 257.173 216.637 257.31 216.485 257.405C216.333 257.499 216.156 257.547 215.976 257.542Z" fill="#212121"/>
  <path d="M231.962 257.542C231.704 257.541 231.456 257.438 231.272 257.256C231.12 257.102 231.022 256.901 230.996 256.685C230.969 256.469 231.014 256.251 231.125 256.064L232.889 253.225L229.439 253.334C229.308 253.34 229.176 253.319 229.053 253.274C228.929 253.228 228.816 253.158 228.72 253.068C228.559 252.887 228.47 252.654 228.47 252.412C228.47 252.171 228.559 251.937 228.72 251.757C228.815 251.665 228.928 251.593 229.051 251.546C229.175 251.498 229.307 251.476 229.439 251.481L232.849 251.609L231.095 248.78C231 248.626 230.948 248.449 230.947 248.268C230.951 248.008 231.057 247.76 231.243 247.578C231.426 247.396 231.674 247.293 231.933 247.292C232.101 247.293 232.265 247.342 232.406 247.433C232.548 247.523 232.66 247.652 232.731 247.805L234.407 250.85L236.072 247.824C236.151 247.663 236.273 247.526 236.424 247.429C236.575 247.332 236.75 247.278 236.93 247.272C237.056 247.272 237.181 247.298 237.296 247.349C237.412 247.4 237.515 247.474 237.6 247.568C237.781 247.756 237.88 248.007 237.876 248.268C237.872 248.438 237.825 248.604 237.738 248.751L235.954 251.609L239.423 251.481C239.551 251.468 239.679 251.483 239.801 251.524C239.922 251.565 240.033 251.632 240.127 251.72C240.22 251.808 240.294 251.914 240.342 252.033C240.391 252.152 240.414 252.279 240.409 252.407C240.411 252.65 240.323 252.885 240.162 253.068C240.069 253.159 239.958 253.231 239.836 253.277C239.714 253.322 239.583 253.342 239.453 253.334L235.974 253.225L237.698 256.034C237.796 256.191 237.847 256.372 237.846 256.557C237.847 256.687 237.82 256.815 237.768 256.934C237.715 257.053 237.638 257.16 237.541 257.246C237.455 257.339 237.351 257.412 237.236 257.463C237.121 257.514 236.996 257.541 236.87 257.542C236.703 257.539 236.54 257.487 236.401 257.393C236.263 257.298 236.155 257.165 236.092 257.01L234.436 254.053L232.8 257.01C232.726 257.17 232.608 257.305 232.459 257.399C232.311 257.494 232.138 257.543 231.962 257.542Z" fill="#212121"/>
  <path d="M247.948 257.542C247.693 257.538 247.449 257.436 247.268 257.256C247.171 257.17 247.094 257.063 247.041 256.944C246.988 256.825 246.962 256.696 246.963 256.566C246.966 256.389 247.017 256.215 247.111 256.064L248.875 253.225L245.425 253.334C245.298 253.343 245.171 253.326 245.051 253.284C244.931 253.242 244.821 253.175 244.728 253.088C244.636 253 244.562 252.895 244.512 252.778C244.463 252.661 244.438 252.535 244.44 252.407C244.439 252.287 244.462 252.167 244.508 252.056C244.554 251.944 244.621 251.842 244.706 251.757C244.797 251.662 244.907 251.587 245.03 251.54C245.152 251.492 245.284 251.472 245.415 251.481L248.825 251.609L247.071 248.78C246.976 248.626 246.925 248.449 246.923 248.268C246.927 248.008 247.033 247.76 247.219 247.578C247.403 247.396 247.65 247.293 247.909 247.292C248.077 247.293 248.241 247.342 248.382 247.433C248.524 247.523 248.636 247.652 248.707 247.805L250.383 250.85L252.058 247.824C252.136 247.664 252.256 247.529 252.406 247.431C252.555 247.334 252.728 247.279 252.906 247.272C253.032 247.272 253.157 247.298 253.272 247.349C253.388 247.4 253.491 247.474 253.576 247.568C253.757 247.756 253.856 248.007 253.852 248.268C253.851 248.437 253.807 248.604 253.724 248.751L251.94 251.609L255.399 251.481C255.53 251.472 255.662 251.492 255.785 251.54C255.907 251.587 256.018 251.662 256.109 251.757C256.277 251.931 256.369 252.165 256.365 252.407C256.364 252.652 256.273 252.887 256.109 253.068C256.016 253.159 255.905 253.231 255.782 253.277C255.66 253.322 255.53 253.342 255.399 253.334L251.92 253.225L253.645 256.034C253.742 256.191 253.793 256.372 253.793 256.557C253.789 256.816 253.683 257.064 253.497 257.246C253.317 257.43 253.073 257.536 252.817 257.542C252.649 257.539 252.486 257.487 252.348 257.393C252.21 257.298 252.102 257.165 252.038 257.01L250.383 254.053L248.747 257.01C248.676 257.164 248.564 257.295 248.423 257.389C248.282 257.483 248.118 257.536 247.948 257.542Z" fill="#212121"/>
  <g style="mix-blend-mode:multiply">
    <path d="M297.67 57.876H123.205V68.8059H297.67V57.876Z" fill="#B75400"/>
  </g>
  <path d="M229.41 37.741H191.465C190.781 37.741 190.124 37.469 189.64 36.9847C189.155 36.5005 188.883 35.8437 188.883 35.1588C188.883 34.474 189.155 33.8172 189.64 33.333C190.124 32.8487 190.781 32.5767 191.465 32.5767H229.41C230.095 32.5767 230.751 32.8487 231.236 33.333C231.72 33.8172 231.992 34.474 231.992 35.1588C231.992 35.8437 231.72 36.5005 231.236 36.9847C230.751 37.469 230.095 37.741 229.41 37.741Z" fill="#9E9E9E" stroke="#212121" stroke-width="1.33739" stroke-linecap="round" stroke-linejoin="round"/>
  <path d="M220.786 355.714C220.788 353.667 220.183 351.665 219.046 349.961C217.91 348.258 216.294 346.93 214.403 346.146C212.511 345.361 210.43 345.155 208.421 345.554C206.413 345.953 204.568 346.939 203.12 348.387C201.672 349.835 200.687 351.68 200.288 353.688C199.889 355.696 200.094 357.778 200.879 359.669C201.663 361.56 202.991 363.177 204.695 364.313C206.398 365.449 208.4 366.055 210.448 366.053C213.189 366.05 215.817 364.96 217.755 363.022C219.694 361.084 220.784 358.455 220.786 355.714Z" fill="#9E9E9E"/>
  <path d="M215.691 350.471H205.204V360.957H215.691V350.471Z" fill="#9E9E9E" stroke="#212121" stroke-width="1.33739" stroke-linecap="round" stroke-linejoin="round"/>
  <path d="M335.358 236.717C335.358 236.717 321.619 201.808 333.85 197.659C346.584 193.332 346.022 216.385 345.529 227.62C344.494 251.629 341.843 256.093 339.862 250.229L335.358 236.717ZM331.229 263.948C335.003 268.876 336.068 263.771 329.258 240.718C326.064 229.877 319.126 207.948 308.482 216.178C298.262 224.062 322.585 252.644 322.585 252.644L331.229 263.948ZM323.936 283.955C327.533 287.149 327.602 283.118 319.057 266.471C315.046 258.676 306.56 242.897 299.612 250.702C292.94 258.232 315.677 276.534 315.677 276.534L323.936 283.955ZM316.051 307.747C319.648 310.95 319.717 306.909 311.172 290.273C307.161 282.477 298.676 266.688 291.727 274.504C285.094 282.053 307.762 300.355 307.762 300.355L316.051 307.747ZM338.818 259.316C333.062 261.563 337.635 264.007 361.673 263.938C372.948 263.938 395.971 263.426 391.062 250.899C386.361 238.866 352.123 254.191 352.123 254.191L338.818 259.316ZM332.264 275.322C326.173 276.376 330.174 279.688 353.749 284.399C364.797 286.616 387.455 290.706 385.139 277.5C382.922 264.766 346.318 272.986 346.318 272.986L332.264 275.322ZM324.931 294.865C319.747 295.615 323.058 298.502 342.878 303.036C352.172 305.165 371.243 309.156 369.587 297.891C368.01 287.05 336.866 293.18 336.866 293.18L324.931 294.865ZM319.363 312.97C314.287 314.261 317.884 316.784 338.088 319.189C347.55 320.313 366.936 322.264 364.107 311.236C361.377 300.651 331.061 310.024 331.061 310.024L319.363 312.97ZM349.068 239.674C346.111 246.297 352.251 245.292 373.125 227.078C382.902 218.533 402.515 200.655 386.982 191.756C372.071 183.201 356.035 224.476 356.035 224.476L349.068 239.674ZM320.131 336.555C317.007 338.378 320.072 339.088 334.402 336.23C341.124 334.899 354.794 331.943 350.171 326.108C345.697 320.49 327.365 332.317 327.365 332.317L320.131 336.555Z" fill="#B75400"/>
  <path opacity="0.3" d="M335.358 236.717C335.358 236.717 321.619 201.808 333.85 197.659C346.584 193.332 346.022 216.385 345.529 227.62C344.494 251.629 341.843 256.093 339.862 250.229L335.358 236.717ZM331.229 263.948C335.003 268.876 336.068 263.771 329.258 240.718C326.064 229.877 319.126 207.948 308.482 216.178C298.262 224.062 322.585 252.644 322.585 252.644L331.229 263.948ZM323.936 283.955C327.533 287.149 327.602 283.118 319.057 266.471C315.046 258.676 306.56 242.897 299.612 250.702C292.94 258.232 315.677 276.534 315.677 276.534L323.936 283.955ZM316.051 307.747C319.648 310.95 319.717 306.909 311.172 290.273C307.161 282.477 298.676 266.688 291.727 274.504C285.094 282.053 307.762 300.355 307.762 300.355L316.051 307.747ZM338.818 259.316C333.062 261.563 337.635 264.007 361.673 263.938C372.948 263.938 395.971 263.426 391.062 250.899C386.361 238.866 352.123 254.191 352.123 254.191L338.818 259.316ZM332.264 275.322C326.173 276.376 330.174 279.688 353.749 284.399C364.797 286.616 387.455 290.706 385.139 277.5C382.922 264.766 346.318 272.986 346.318 272.986L332.264 275.322ZM324.931 294.865C319.747 295.615 323.058 298.502 342.878 303.036C352.172 305.165 371.243 309.156 369.587 297.891C368.01 287.05 336.866 293.18 336.866 293.18L324.931 294.865ZM319.363 312.97C314.287 314.261 317.884 316.784 338.088 319.189C347.55 320.313 366.936 322.264 364.107 311.236C361.377 300.651 331.061 310.024 331.061 310.024L319.363 312.97ZM349.068 239.674C346.111 246.297 352.251 245.292 373.125 227.078C382.902 218.533 402.515 200.655 386.982 191.756C372.071 183.201 356.035 224.476 356.035 224.476L349.068 239.674ZM320.131 336.555C317.007 338.378 320.072 339.088 334.402 336.23C341.124 334.899 354.794 331.943 350.171 326.108C345.697 320.49 327.365 332.317 327.365 332.317L320.131 336.555Z" fill="white"/>
  <path d="M341.42 252.969L339.025 213.123L341.42 252.969ZM333.841 266.117L318.702 231.849L333.841 266.117ZM372.909 256.153L336.63 261.356L372.909 256.153ZM325.996 284.586L306.353 259.385L325.996 284.586ZM329.445 276.859L356.509 278.219L329.445 276.859ZM323.039 296.186L343.736 298.236L323.039 296.186ZM318.042 308.466L307.763 293.003L318.042 308.466ZM316.859 313.927L341.193 314.153L316.859 313.927ZM311.932 359.578C312.095 359.565 312.246 359.489 312.353 359.365C312.46 359.242 312.514 359.081 312.503 358.918C310.956 335.678 319.944 297.615 334.363 266.373C343.578 246.405 379.699 207.16 380.083 206.766C380.2 206.65 380.265 206.492 380.265 206.327C380.265 206.163 380.2 206.005 380.083 205.889C380.027 205.832 379.959 205.786 379.885 205.755C379.81 205.724 379.73 205.708 379.65 205.708C379.569 205.708 379.489 205.724 379.415 205.755C379.34 205.786 379.273 205.832 379.216 205.889C378.851 206.283 342.583 245.676 333.289 265.821C318.604 297.822 309.734 335.195 311.311 358.996C311.323 359.153 311.393 359.3 311.508 359.408C311.623 359.515 311.774 359.576 311.932 359.578ZM341.41 253.58C341.573 253.57 341.725 253.496 341.834 253.374C341.943 253.253 341.999 253.093 341.991 252.93L339.636 213.064C339.632 212.983 339.612 212.903 339.577 212.83C339.542 212.756 339.493 212.691 339.433 212.636C339.372 212.582 339.301 212.541 339.225 212.514C339.148 212.488 339.066 212.477 338.985 212.482C338.822 212.492 338.67 212.566 338.561 212.688C338.452 212.81 338.396 212.97 338.404 213.133L340.799 252.979C340.806 253.136 340.874 253.284 340.988 253.392C341.102 253.501 341.253 253.561 341.41 253.561V253.58ZM334.057 266.679C334.205 266.612 334.321 266.49 334.38 266.339C334.439 266.188 334.436 266.02 334.373 265.87L319.225 231.602C319.159 231.453 319.038 231.336 318.886 231.277C318.734 231.218 318.566 231.221 318.417 231.287C318.268 231.352 318.151 231.474 318.091 231.626C318.032 231.777 318.036 231.946 318.101 232.095L333.239 266.363C333.287 266.473 333.365 266.567 333.465 266.633C333.565 266.7 333.681 266.736 333.801 266.738C333.903 266.743 334.005 266.723 334.097 266.679H334.057ZM336.679 261.948L372.938 256.764C373.026 256.762 373.112 256.742 373.191 256.704C373.27 256.667 373.34 256.613 373.397 256.546C373.454 256.48 373.496 256.402 373.521 256.318C373.546 256.234 373.552 256.145 373.54 256.059C373.528 255.972 373.498 255.889 373.452 255.814C373.406 255.74 373.344 255.676 373.271 255.627C373.199 255.579 373.116 255.546 373.03 255.531C372.944 255.516 372.855 255.52 372.771 255.542L336.512 260.726C336.35 260.736 336.198 260.811 336.091 260.933C335.984 261.055 335.929 261.214 335.94 261.376C335.95 261.538 336.025 261.689 336.147 261.797C336.269 261.904 336.428 261.958 336.59 261.948H336.679ZM326.341 285.079C326.469 284.978 326.553 284.83 326.573 284.668C326.593 284.505 326.549 284.341 326.449 284.212L306.797 258.962C306.696 258.831 306.548 258.745 306.384 258.724C306.221 258.703 306.055 258.748 305.925 258.848C305.794 258.949 305.708 259.097 305.687 259.261C305.666 259.424 305.711 259.59 305.811 259.72L325.503 285.01C325.56 285.084 325.633 285.143 325.717 285.184C325.801 285.225 325.893 285.247 325.986 285.247C326.133 285.239 326.273 285.18 326.38 285.079H326.341ZM357.051 278.249C357.056 278.086 356.997 277.927 356.886 277.808C356.776 277.688 356.622 277.616 356.459 277.608L329.445 276.239C329.293 276.249 329.151 276.315 329.044 276.423C328.938 276.532 328.875 276.676 328.867 276.828C328.86 276.98 328.909 277.13 329.005 277.248C329.1 277.366 329.236 277.446 329.386 277.47L356.45 278.84C356.613 278.846 356.771 278.787 356.891 278.676C357.011 278.565 357.082 278.412 357.09 278.249H357.051ZM344.307 298.295C344.317 298.214 344.31 298.132 344.287 298.054C344.265 297.975 344.226 297.902 344.175 297.839C344.124 297.776 344.06 297.723 343.988 297.685C343.916 297.646 343.837 297.623 343.755 297.615L323.059 295.575C322.978 295.567 322.897 295.575 322.82 295.598C322.743 295.622 322.671 295.66 322.608 295.712C322.546 295.763 322.495 295.826 322.457 295.897C322.419 295.969 322.396 296.047 322.388 296.127C322.375 296.289 322.425 296.45 322.528 296.575C322.631 296.7 322.779 296.78 322.94 296.797L343.637 298.847H343.696C343.855 298.858 344.012 298.807 344.134 298.704C344.255 298.601 344.332 298.454 344.347 298.295H344.307ZM318.338 308.979C318.475 308.889 318.57 308.748 318.603 308.587C318.637 308.426 318.605 308.259 318.515 308.122L308.285 292.658C308.191 292.525 308.05 292.433 307.89 292.402C307.73 292.371 307.564 292.402 307.428 292.49C307.291 292.581 307.195 292.722 307.162 292.883C307.129 293.043 307.16 293.211 307.25 293.348L317.48 308.811C317.539 308.896 317.617 308.965 317.708 309.013C317.799 309.061 317.9 309.087 318.003 309.087C318.136 309.095 318.268 309.056 318.377 308.979H318.338ZM341.814 314.153C341.811 313.991 341.747 313.836 341.633 313.72C341.519 313.605 341.365 313.537 341.203 313.532L316.869 313.306C316.707 313.306 316.552 313.37 316.437 313.485C316.323 313.599 316.258 313.755 316.258 313.917C316.255 313.998 316.269 314.079 316.299 314.155C316.329 314.231 316.373 314.3 316.431 314.358C316.488 314.416 316.556 314.462 316.631 314.493C316.707 314.524 316.788 314.539 316.869 314.538L341.203 314.764C341.286 314.768 341.369 314.755 341.447 314.727C341.525 314.698 341.597 314.654 341.658 314.597C341.718 314.54 341.767 314.471 341.801 314.395C341.834 314.319 341.852 314.236 341.853 314.153H341.814ZM309.162 350.54C309.211 350.432 313.361 338.999 325.838 336.269C325.999 336.234 326.139 336.136 326.227 335.998C326.316 335.859 326.346 335.691 326.311 335.53C326.271 335.373 326.172 335.236 326.034 335.15C325.897 335.064 325.731 335.034 325.572 335.067C312.414 337.945 308.048 350.018 307.999 350.136C307.948 350.292 307.96 350.461 308.032 350.608C308.104 350.755 308.23 350.869 308.384 350.925H308.581C308.712 350.936 308.843 350.905 308.955 350.835C309.067 350.766 309.153 350.663 309.202 350.54H309.162ZM311.932 359.578C312.095 359.565 312.246 359.489 312.353 359.365C312.46 359.242 312.514 359.081 312.503 358.918C310.956 335.678 319.944 297.615 334.363 266.373C343.578 246.405 379.699 207.16 380.083 206.766C380.2 206.65 380.265 206.492 380.265 206.327C380.265 206.163 380.2 206.005 380.083 205.889C380.027 205.832 379.959 205.786 379.885 205.755C379.81 205.724 379.73 205.708 379.65 205.708C379.569 205.708 379.489 205.724 379.415 205.755C379.34 205.786 379.273 205.832 379.216 205.889C378.851 206.283 342.583 245.676 333.289 265.821C318.604 297.822 309.734 335.195 311.311 358.996C311.323 359.153 311.393 359.3 311.508 359.408C311.623 359.515 311.774 359.576 311.932 359.578ZM341.41 253.58C341.573 253.57 341.725 253.496 341.834 253.374C341.943 253.253 341.999 253.093 341.991 252.93L339.636 213.064C339.632 212.983 339.612 212.903 339.577 212.83C339.542 212.756 339.493 212.691 339.433 212.636C339.372 212.582 339.301 212.541 339.225 212.514C339.148 212.488 339.066 212.477 338.985 212.482C338.822 212.492 338.67 212.566 338.561 212.688C338.452 212.81 338.396 212.97 338.404 213.133L340.799 252.979C340.806 253.136 340.874 253.284 340.988 253.392C341.102 253.501 341.253 253.561 341.41 253.561V253.58ZM334.057 266.679C334.205 266.612 334.321 266.49 334.38 266.339C334.439 266.188 334.436 266.02 334.373 265.87L319.225 231.602C319.159 231.453 319.038 231.336 318.886 231.277C318.734 231.218 318.566 231.221 318.417 231.287C318.268 231.352 318.151 231.474 318.091 231.626C318.032 231.777 318.036 231.946 318.101 232.095L333.239 266.363C333.287 266.473 333.365 266.567 333.465 266.633C333.565 266.7 333.681 266.736 333.801 266.738C333.903 266.743 334.005 266.723 334.097 266.679H334.057ZM336.679 261.948L372.938 256.764C373.026 256.762 373.112 256.742 373.191 256.704C373.27 256.667 373.34 256.613 373.397 256.546C373.454 256.48 373.496 256.402 373.521 256.318C373.546 256.234 373.552 256.145 373.54 256.059C373.528 255.972 373.498 255.889 373.452 255.814C373.406 255.74 373.344 255.676 373.271 255.627C373.199 255.579 373.116 255.546 373.03 255.531C372.944 255.516 372.855 255.52 372.771 255.542L336.512 260.726C336.35 260.736 336.198 260.811 336.091 260.933C335.984 261.055 335.929 261.214 335.94 261.376C335.95 261.538 336.025 261.689 336.147 261.797C336.269 261.904 336.428 261.958 336.59 261.948H336.679ZM326.341 285.079C326.469 284.978 326.553 284.83 326.573 284.668C326.593 284.505 326.549 284.341 326.449 284.212L306.797 258.962C306.747 258.897 306.685 258.843 306.614 258.802C306.543 258.761 306.465 258.735 306.384 258.724C306.303 258.714 306.221 258.719 306.142 258.741C306.063 258.762 305.989 258.798 305.925 258.848C305.86 258.898 305.806 258.96 305.765 259.031C305.724 259.102 305.698 259.18 305.687 259.261C305.677 259.342 305.682 259.424 305.703 259.503C305.725 259.582 305.761 259.656 305.811 259.72L325.503 285.01C325.56 285.084 325.633 285.143 325.717 285.184C325.801 285.225 325.893 285.247 325.986 285.247C326.133 285.239 326.273 285.18 326.38 285.079H326.341ZM357.051 278.249C357.056 278.086 356.997 277.927 356.886 277.808C356.776 277.688 356.622 277.616 356.459 277.608L329.445 276.239C329.293 276.249 329.151 276.315 329.044 276.423C328.938 276.532 328.875 276.676 328.867 276.828C328.86 276.98 328.909 277.13 329.005 277.248C329.1 277.366 329.236 277.446 329.386 277.47L356.45 278.84C356.613 278.846 356.771 278.787 356.891 278.676C357.011 278.565 357.082 278.412 357.09 278.249H357.051ZM344.307 298.295C344.317 298.214 344.31 298.132 344.287 298.054C344.265 297.975 344.226 297.902 344.175 297.839C344.124 297.776 344.06 297.723 343.988 297.685C343.916 297.646 343.837 297.623 343.755 297.615L323.059 295.575C322.978 295.567 322.897 295.575 322.82 295.598C322.743 295.622 322.671 295.66 322.608 295.712C322.546 295.763 322.495 295.826 322.457 295.897C322.419 295.969 322.396 296.047 322.388 296.127C322.375 296.289 322.425 296.45 322.528 296.575C322.631 296.7 322.779 296.78 322.94 296.797L343.637 298.847H343.696C343.855 298.858 344.012 298.807 344.134 298.704C344.255 298.601 344.332 298.454 344.347 298.295H344.307ZM318.338 308.979C318.475 308.889 318.57 308.748 318.603 308.587C318.637 308.426 318.605 308.259 318.515 308.122L308.285 292.658C308.191 292.525 308.05 292.433 307.89 292.402C307.73 292.371 307.564 292.402 307.428 292.49C307.291 292.581 307.195 292.722 307.162 292.883C307.129 293.043 307.16 293.211 307.25 293.348L317.48 308.811C317.539 308.896 317.617 308.965 317.708 309.013C317.799 309.061 317.9 309.087 318.003 309.087C318.136 309.095 318.268 309.056 318.377 308.979H318.338ZM341.814 314.153C341.811 313.991 341.747 313.836 341.633 313.72C341.519 313.605 341.365 313.537 341.203 313.532L316.869 313.306C316.707 313.306 316.552 313.37 316.437 313.485C316.323 313.599 316.258 313.755 316.258 313.917C316.255 313.998 316.269 314.079 316.299 314.155C316.329 314.231 316.373 314.3 316.431 314.358C316.488 314.416 316.556 314.462 316.631 314.493C316.707 314.524 316.788 314.539 316.869 314.538L341.203 314.764C341.286 314.768 341.369 314.755 341.447 314.727C341.525 314.698 341.597 314.654 341.658 314.597C341.718 314.54 341.767 314.471 341.801 314.395C341.834 314.319 341.852 314.236 341.853 314.153H341.814ZM309.162 350.54C309.211 350.432 313.361 338.999 325.838 336.269C325.999 336.234 326.139 336.136 326.227 335.998C326.316 335.859 326.346 335.691 326.311 335.53C326.271 335.373 326.172 335.236 326.034 335.15C325.897 335.064 325.731 335.034 325.572 335.067C312.414 337.945 308.048 350.018 307.999 350.136C307.948 350.292 307.96 350.461 308.032 350.608C308.104 350.755 308.23 350.869 308.384 350.925H308.581C308.712 350.936 308.843 350.905 308.955 350.835C309.067 350.766 309.153 350.663 309.202 350.54H309.162Z" fill="#B75400"/>
  <path opacity="0.2" d="M341.42 252.969L339.025 213.123L341.42 252.969ZM333.841 266.117L318.702 231.849L333.841 266.117ZM372.909 256.153L336.63 261.356L372.909 256.153ZM325.996 284.586L306.353 259.385L325.996 284.586ZM329.445 276.859L356.509 278.219L329.445 276.859ZM323.039 296.186L343.736 298.236L323.039 296.186ZM318.042 308.466L307.763 293.003L318.042 308.466ZM316.859 313.927L341.193 314.153L316.859 313.927ZM311.932 359.578C312.095 359.565 312.246 359.489 312.353 359.365C312.46 359.242 312.514 359.081 312.503 358.918C310.956 335.678 319.944 297.615 334.363 266.373C343.578 246.405 379.699 207.16 380.083 206.766C380.2 206.65 380.265 206.492 380.265 206.327C380.265 206.163 380.2 206.005 380.083 205.889C380.027 205.832 379.959 205.786 379.885 205.755C379.81 205.724 379.73 205.708 379.65 205.708C379.569 205.708 379.489 205.724 379.415 205.755C379.34 205.786 379.273 205.832 379.216 205.889C378.851 206.283 342.583 245.676 333.289 265.821C318.604 297.822 309.734 335.195 311.311 358.996C311.323 359.153 311.393 359.3 311.508 359.408C311.623 359.515 311.774 359.576 311.932 359.578ZM341.41 253.58C341.573 253.57 341.725 253.496 341.834 253.374C341.943 253.253 341.999 253.093 341.991 252.93L339.636 213.064C339.632 212.983 339.612 212.903 339.577 212.83C339.542 212.756 339.493 212.691 339.433 212.636C339.372 212.582 339.301 212.541 339.225 212.514C339.148 212.488 339.066 212.477 338.985 212.482C338.822 212.492 338.67 212.566 338.561 212.688C338.452 212.81 338.396 212.97 338.404 213.133L340.799 252.979C340.806 253.136 340.874 253.284 340.988 253.392C341.102 253.501 341.253 253.561 341.41 253.561V253.58ZM334.057 266.679C334.205 266.612 334.321 266.49 334.38 266.339C334.439 266.188 334.436 266.02 334.373 265.87L319.225 231.602C319.159 231.453 319.038 231.336 318.886 231.277C318.734 231.218 318.566 231.221 318.417 231.287C318.268 231.352 318.151 231.474 318.091 231.626C318.032 231.777 318.036 231.946 318.101 232.095L333.239 266.363C333.287 266.473 333.365 266.567 333.465 266.633C333.565 266.7 333.681 266.736 333.801 266.738C333.903 266.743 334.005 266.723 334.097 266.679H334.057ZM336.679 261.948L372.938 256.764C373.026 256.762 373.112 256.742 373.191 256.704C373.27 256.667 373.34 256.613 373.397 256.546C373.454 256.48 373.496 256.402 373.521 256.318C373.546 256.234 373.552 256.145 373.54 256.059C373.528 255.972 373.498 255.889 373.452 255.814C373.406 255.74 373.344 255.676 373.271 255.627C373.199 255.579 373.116 255.546 373.03 255.531C372.944 255.516 372.855 255.52 372.771 255.542L336.512 260.726C336.35 260.736 336.198 260.811 336.091 260.933C335.984 261.055 335.929 261.214 335.94 261.376C335.95 261.538 336.025 261.689 336.147 261.797C336.269 261.904 336.428 261.958 336.59 261.948H336.679ZM326.341 285.079C326.469 284.978 326.553 284.83 326.573 284.668C326.593 284.505 326.549 284.341 326.449 284.212L306.797 258.962C306.696 258.831 306.548 258.745 306.384 258.724C306.221 258.703 306.055 258.748 305.925 258.848C305.794 258.949 305.708 259.097 305.687 259.261C305.666 259.424 305.711 259.59 305.811 259.72L325.503 285.01C325.56 285.084 325.633 285.143 325.717 285.184C325.801 285.225 325.893 285.247 325.986 285.247C326.133 285.239 326.273 285.18 326.38 285.079H326.341ZM357.051 278.249C357.056 278.086 356.997 277.927 356.886 277.808C356.776 277.688 356.622 277.616 356.459 277.608L329.445 276.239C329.293 276.249 329.151 276.315 329.044 276.423C328.938 276.532 328.875 276.676 328.867 276.828C328.86 276.98 328.909 277.13 329.005 277.248C329.1 277.366 329.236 277.446 329.386 277.47L356.45 278.84C356.613 278.846 356.771 278.787 356.891 278.676C357.011 278.565 357.082 278.412 357.09 278.249H357.051ZM344.307 298.295C344.317 298.214 344.31 298.132 344.287 298.054C344.265 297.975 344.226 297.902 344.175 297.839C344.124 297.776 344.06 297.723 343.988 297.685C343.916 297.646 343.837 297.623 343.755 297.615L323.059 295.575C322.978 295.567 322.897 295.575 322.82 295.598C322.743 295.622 322.671 295.66 322.608 295.712C322.546 295.763 322.495 295.826 322.457 295.897C322.419 295.969 322.396 296.047 322.388 296.127C322.375 296.289 322.425 296.45 322.528 296.575C322.631 296.7 322.779 296.78 322.94 296.797L343.637 298.847H343.696C343.855 298.858 344.012 298.807 344.134 298.704C344.255 298.601 344.332 298.454 344.347 298.295H344.307ZM318.338 308.979C318.475 308.889 318.57 308.748 318.603 308.587C318.637 308.426 318.605 308.259 318.515 308.122L308.285 292.658C308.191 292.525 308.05 292.433 307.89 292.402C307.73 292.371 307.564 292.402 307.428 292.49C307.291 292.581 307.195 292.722 307.162 292.883C307.129 293.043 307.16 293.211 307.25 293.348L317.48 308.811C317.539 308.896 317.617 308.965 317.708 309.013C317.799 309.061 317.9 309.087 318.003 309.087C318.136 309.095 318.268 309.056 318.377 308.979H318.338ZM341.814 314.153C341.811 313.991 341.747 313.836 341.633 313.72C341.519 313.605 341.365 313.537 341.203 313.532L316.869 313.306C316.707 313.306 316.552 313.37 316.437 313.485C316.323 313.599 316.258 313.755 316.258 313.917C316.255 313.998 316.269 314.079 316.299 314.155C316.329 314.231 316.373 314.3 316.431 314.358C316.488 314.416 316.556 314.462 316.631 314.493C316.707 314.524 316.788 314.539 316.869 314.538L341.203 314.764C341.286 314.768 341.369 314.755 341.447 314.727C341.525 314.698 341.597 314.654 341.658 314.597C341.718 314.54 341.767 314.471 341.801 314.395C341.834 314.319 341.852 314.236 341.853 314.153H341.814ZM309.162 350.54C309.211 350.432 313.361 338.999 325.838 336.269C325.999 336.234 326.139 336.136 326.227 335.998C326.316 335.859 326.346 335.691 326.311 335.53C326.271 335.373 326.172 335.236 326.034 335.15C325.897 335.064 325.731 335.034 325.572 335.067C312.414 337.945 308.048 350.018 307.999 350.136C307.948 350.292 307.96 350.461 308.032 350.608C308.104 350.755 308.23 350.869 308.384 350.925H308.581C308.712 350.936 308.843 350.905 308.955 350.835C309.067 350.766 309.153 350.663 309.202 350.54H309.162ZM311.932 359.578C312.095 359.565 312.246 359.489 312.353 359.365C312.46 359.242 312.514 359.081 312.503 358.918C310.956 335.678 319.944 297.615 334.363 266.373C343.578 246.405 379.699 207.16 380.083 206.766C380.2 206.65 380.265 206.492 380.265 206.327C380.265 206.163 380.2 206.005 380.083 205.889C380.027 205.832 379.959 205.786 379.885 205.755C379.81 205.724 379.73 205.708 379.65 205.708C379.569 205.708 379.489 205.724 379.415 205.755C379.34 205.786 379.273 205.832 379.216 205.889C378.851 206.283 342.583 245.676 333.289 265.821C318.604 297.822 309.734 335.195 311.311 358.996C311.323 359.153 311.393 359.3 311.508 359.408C311.623 359.515 311.774 359.576 311.932 359.578ZM341.41 253.58C341.573 253.57 341.725 253.496 341.834 253.374C341.943 253.253 341.999 253.093 341.991 252.93L339.636 213.064C339.632 212.983 339.612 212.903 339.577 212.83C339.542 212.756 339.493 212.691 339.433 212.636C339.372 212.582 339.301 212.541 339.225 212.514C339.148 212.488 339.066 212.477 338.985 212.482C338.822 212.492 338.67 212.566 338.561 212.688C338.452 212.81 338.396 212.97 338.404 213.133L340.799 252.979C340.806 253.136 340.874 253.284 340.988 253.392C341.102 253.501 341.253 253.561 341.41 253.561V253.58ZM334.057 266.679C334.205 266.612 334.321 266.49 334.38 266.339C334.439 266.188 334.436 266.02 334.373 265.87L319.225 231.602C319.159 231.453 319.038 231.336 318.886 231.277C318.734 231.218 318.566 231.221 318.417 231.287C318.268 231.352 318.151 231.474 318.091 231.626C318.032 231.777 318.036 231.946 318.101 232.095L333.239 266.363C333.287 266.473 333.365 266.567 333.465 266.633C333.565 266.7 333.681 266.736 333.801 266.738C333.903 266.743 334.005 266.723 334.097 266.679H334.057ZM336.679 261.948L372.938 256.764C373.026 256.762 373.112 256.742 373.191 256.704C373.27 256.667 373.34 256.613 373.397 256.546C373.454 256.48 373.496 256.402 373.521 256.318C373.546 256.234 373.552 256.145 373.54 256.059C373.528 255.972 373.498 255.889 373.452 255.814C373.406 255.74 373.344 255.676 373.271 255.627C373.199 255.579 373.116 255.546 373.03 255.531C372.944 255.516 372.855 255.52 372.771 255.542L336.512 260.726C336.35 260.736 336.198 260.811 336.091 260.933C335.984 261.055 335.929 261.214 335.94 261.376C335.95 261.538 336.025 261.689 336.147 261.797C336.269 261.904 336.428 261.958 336.59 261.948H336.679ZM326.341 285.079C326.469 284.978 326.553 284.83 326.573 284.668C326.593 284.505 326.549 284.341 326.449 284.212L306.797 258.962C306.747 258.897 306.685 258.843 306.614 258.802C306.543 258.761 306.465 258.735 306.384 258.724C306.303 258.714 306.221 258.719 306.142 258.741C306.063 258.762 305.989 258.798 305.925 258.848C305.86 258.898 305.806 258.96 305.765 259.031C305.724 259.102 305.698 259.18 305.687 259.261C305.677 259.342 305.682 259.424 305.703 259.503C305.725 259.582 305.761 259.656 305.811 259.72L325.503 285.01C325.56 285.084 325.633 285.143 325.717 285.184C325.801 285.225 325.893 285.247 325.986 285.247C326.133 285.239 326.273 285.18 326.38 285.079H326.341ZM357.051 278.249C357.056 278.086 356.997 277.927 356.886 277.808C356.776 277.688 356.622 277.616 356.459 277.608L329.445 276.239C329.293 276.249 329.151 276.315 329.044 276.423C328.938 276.532 328.875 276.676 328.867 276.828C328.86 276.98 328.909 277.13 329.005 277.248C329.1 277.366 329.236 277.446 329.386 277.47L356.45 278.84C356.613 278.846 356.771 278.787 356.891 278.676C357.011 278.565 357.082 278.412 357.09 278.249H357.051ZM344.307 298.295C344.317 298.214 344.31 298.132 344.287 298.054C344.265 297.975 344.226 297.902 344.175 297.839C344.124 297.776 344.06 297.723 343.988 297.685C343.916 297.646 343.837 297.623 343.755 297.615L323.059 295.575C322.978 295.567 322.897 295.575 322.82 295.598C322.743 295.622 322.671 295.66 322.608 295.712C322.546 295.763 322.495 295.826 322.457 295.897C322.419 295.969 322.396 296.047 322.388 296.127C322.375 296.289 322.425 296.45 322.528 296.575C322.631 296.7 322.779 296.78 322.94 296.797L343.637 298.847H343.696C343.855 298.858 344.012 298.807 344.134 298.704C344.255 298.601 344.332 298.454 344.347 298.295H344.307ZM318.338 308.979C318.475 308.889 318.57 308.748 318.603 308.587C318.637 308.426 318.605 308.259 318.515 308.122L308.285 292.658C308.191 292.525 308.05 292.433 307.89 292.402C307.73 292.371 307.564 292.402 307.428 292.49C307.291 292.581 307.195 292.722 307.162 292.883C307.129 293.043 307.16 293.211 307.25 293.348L317.48 308.811C317.539 308.896 317.617 308.965 317.708 309.013C317.799 309.061 317.9 309.087 318.003 309.087C318.136 309.095 318.268 309.056 318.377 308.979H318.338ZM341.814 314.153C341.811 313.991 341.747 313.836 341.633 313.72C341.519 313.605 341.365 313.537 341.203 313.532L316.869 313.306C316.707 313.306 316.552 313.37 316.437 313.485C316.323 313.599 316.258 313.755 316.258 313.917C316.255 313.998 316.269 314.079 316.299 314.155C316.329 314.231 316.373 314.3 316.431 314.358C316.488 314.416 316.556 314.462 316.631 314.493C316.707 314.524 316.788 314.539 316.869 314.538L341.203 314.764C341.286 314.768 341.369 314.755 341.447 314.727C341.525 314.698 341.597 314.654 341.658 314.597C341.718 314.54 341.767 314.471 341.801 314.395C341.834 314.319 341.852 314.236 341.853 314.153H341.814ZM309.162 350.54C309.211 350.432 313.361 338.999 325.838 336.269C325.999 336.234 326.139 336.136 326.227 335.998C326.316 335.859 326.346 335.691 326.311 335.53C326.271 335.373 326.172 335.236 326.034 335.15C325.897 335.064 325.731 335.034 325.572 335.067C312.414 337.945 308.048 350.018 307.999 350.136C307.948 350.292 307.96 350.461 308.032 350.608C308.104 350.755 308.23 350.869 308.384 350.925H308.581C308.712 350.936 308.843 350.905 308.955 350.835C309.067 350.766 309.153 350.663 309.202 350.54H309.162Z" fill="black"/>
  <path d="M328.026 342.202H300.124V347.978H302.558L307.595 379.486H320.555L325.591 347.978H328.026V342.202Z" fill="#B75400"/>
  <path opacity="0.3" d="M328.026 342.202H300.124V347.978H302.558L307.595 379.486H320.555L325.591 347.978H328.026V342.202Z" fill="white"/>
  <path d="M76.8249 167.56L44.3702 156.965L41.4825 149.337L34.8891 149.13L22.9243 146.863L24.3632 149.337L39.4227 160.267L43.1383 162.12L77.0812 179.85L76.8249 167.56Z" fill="white" stroke="#212121" stroke-width="1.00396" stroke-miterlimit="10"/>
  <path d="M41.4824 149.337L38.3877 147.484L32.2083 149.751L33.2332 150.983L41.4824 149.337Z" fill="white" stroke="#212121" stroke-width="1.00396" stroke-linejoin="round"/>
  <path d="M76.8249 167.56L44.3702 156.965L41.4825 149.337L34.8891 149.13L22.9243 146.863L24.3632 149.337L39.4227 160.267L43.1383 162.12L77.0812 179.85L76.8249 167.56Z" fill="white"/>
  <path opacity="0.5" d="M76.8249 167.56L44.3702 156.965L41.4825 149.337L34.8891 149.13L22.9243 146.863L24.3632 149.337L39.4227 160.267L43.1383 162.12L77.0812 179.85L76.8249 167.56Z" fill="#9E9E9E" stroke="#212121" stroke-width="1.00396" stroke-miterlimit="10"/>
  <path d="M76.8249 167.56L44.3702 156.965L41.4825 149.337L34.8891 149.13L22.9243 146.863L24.3632 149.337L39.4227 160.267L43.1383 162.12L77.0812 179.85L76.8249 167.56Z" stroke="#212121" stroke-width="1.00396" stroke-miterlimit="10"/>
  <path d="M41.4824 149.337L38.3877 147.484L32.2083 149.751L33.2332 150.983L41.4824 149.337Z" fill="white"/>
  <path opacity="0.5" d="M41.4824 149.337L38.3877 147.484L32.2083 149.751L33.2332 150.983L41.4824 149.337Z" fill="#9E9E9E" stroke="#212121" stroke-width="1.00396" stroke-linejoin="round"/>
  <path d="M41.4824 149.337L38.3877 147.484L32.2083 149.751L33.2332 150.983L41.4824 149.337Z" stroke="#212121" stroke-width="1.00396" stroke-linejoin="round"/>
  <path d="M83.7139 98.7971C83.7139 98.7971 83.2113 103.232 84.463 106.08C85.7146 108.929 92.6629 118.577 92.6629 118.577L79.6928 128.975C79.6928 128.975 74.3116 118.134 73.2867 116.38C72.2617 114.625 71.0297 107.076 74.3708 101.665C77.7118 96.2544 82.5214 94.7957 83.7139 98.7971Z" fill="white"/>
  <g style="mix-blend-mode:multiply" opacity="0.5">
    <path d="M77.0518 113.048L82.6793 124.717L79.6832 128.985L74.0261 118.883L77.0518 113.048Z" fill="#9E9E9E"/>
  </g>
  <path d="M83.7139 98.7971C83.7139 98.7971 83.2113 103.232 84.463 106.08C85.7146 108.929 92.6629 118.577 92.6629 118.577L79.6928 128.975C79.6928 128.975 74.3116 118.134 73.2867 116.38C72.2617 114.625 71.0297 107.076 74.3708 101.665C77.7118 96.2544 82.5214 94.7957 83.7139 98.7971Z" stroke="#212121" stroke-width="1.00396" stroke-miterlimit="10"/>
  <path d="M87.735 90.6763C86.9367 85.7485 81.2894 75.7253 72.3307 76.1096C66.5158 76.3659 63.7957 77.5387 61.2726 78.9678C59.216 80.1795 57.299 81.6139 55.5563 83.2451C51.1804 88.4982 49.6429 89.9371 50.4905 93.9582C50.421 95.5621 50.6723 97.1637 51.2297 98.6692C52.5701 102.247 53.4866 104.583 54.6496 106.288C54.2948 107.953 53.3684 112.349 53.3191 113.354C53.2698 114.359 56.2758 113.66 57.7936 113.275C60.6123 119.583 65.7766 123.959 67.3831 124.461C70.1821 125.339 74.6073 120.736 76.953 117.168C79.2986 113.601 77.5246 109.589 77.5344 107.993C77.5443 106.396 82.8072 102.887 84.7586 101.774C86.7101 100.66 88.5235 95.5943 87.735 90.6763Z" fill="white"/>
  <g style="mix-blend-mode:multiply" opacity="0.5">
    <path d="M50.5301 93.9579C50.4606 95.5618 50.7119 97.1634 51.2693 98.6689C52.6096 102.247 53.5262 104.582 54.6892 106.287C54.3344 107.953 53.408 112.349 53.3587 113.354C53.3094 114.359 56.3154 113.659 57.8331 113.275C60.6519 119.583 65.8162 123.959 67.4227 124.461C70.2217 125.338 74.6469 120.736 76.9925 117.168C77.5786 116.277 77.959 115.267 78.1062 114.211C77.9781 113.748 77.8894 113.462 77.8894 113.462C77.8894 113.462 76.5687 118.538 73.9471 117.878C71.3255 117.217 67.3143 111.964 65.077 110.151C62.8398 108.337 63.7564 105.952 63.3129 103.252C62.8694 100.551 56.2464 98.1761 55.8029 96.6288C55.3594 95.0814 56.9067 88.6753 56.9067 88.6753C56.9067 88.6753 59.4199 85.3243 58.8778 86.7041C58.4947 87.9005 58.3557 89.1617 58.4692 90.4128C58.5826 91.6639 58.9461 92.8795 59.5382 93.9875C59.9536 94.8617 60.6127 95.5974 61.4361 96.1062C62.2596 96.615 63.2124 96.8751 64.1802 96.8555L66.585 84.94L61.5093 80.7415L55.5959 83.2054C51.1806 88.4979 49.6727 89.9368 50.5301 93.9579Z" fill="#9E9E9E"/>
  </g>
  <path d="M87.735 90.6763C86.9367 85.7485 81.2894 75.7253 72.3307 76.1096C66.5158 76.3659 63.7957 77.5387 61.2726 78.9678C59.216 80.1795 57.299 81.6139 55.5563 83.2451C51.1804 88.4982 49.6429 89.9371 50.4905 93.9582C50.421 95.5621 50.6723 97.1637 51.2297 98.6692C52.5701 102.247 53.4866 104.583 54.6496 106.288C54.2948 107.953 53.3684 112.349 53.3191 113.354C53.2698 114.359 56.2758 113.66 57.7936 113.275C60.6123 119.583 65.7766 123.959 67.3831 124.461C70.1821 125.339 74.6073 120.736 76.953 117.168C79.2986 113.601 77.5246 109.589 77.5344 107.993C77.5443 106.396 82.8072 102.887 84.7586 101.774C86.7101 100.66 88.5235 95.5943 87.735 90.6763Z" stroke="#212121" stroke-miterlimit="10"/>
  <path d="M55.8717 103.311L56.8573 106.13C56.8573 106.13 58.9762 106.83 61.5584 104.011" stroke="#212121" stroke-miterlimit="10" stroke-linecap="round"/>
  <path d="M63.155 116.478C63.155 116.478 65.5007 116.242 66.4468 112.95" stroke="#212121" stroke-miterlimit="10" stroke-linecap="round"/>
  <path d="M54.226 100.956C54.226 100.956 54.9258 98.8367 59.1538 98.8367" stroke="#212121" stroke-miterlimit="10" stroke-linecap="round"/>
  <path d="M75.8983 72.1868C72.8261 71.745 69.7279 71.508 66.6242 71.4772C66.6242 71.4772 57.3401 66.1256 48.4208 71.832C39.5014 77.5384 43.7886 87.5321 43.7886 90.0256C43.7886 92.519 40.9305 92.5289 42.7143 95.7418C44.4982 98.9548 50.5299 97.1808 50.5299 97.1808C50.5936 95.9689 50.9138 94.7845 51.4694 93.7056C52.025 92.6268 52.8032 91.6781 53.7527 90.9224C56.9656 88.4289 59.5281 87.8869 60.5925 88.6063C60.5925 88.6063 59.8829 93.958 60.9473 96.0966C60.9473 96.0966 64.515 97.8805 65.5893 97.8805C66.6636 97.8805 64.8896 99.3884 68.4475 100.729C69.0956 100.962 69.789 101.041 70.473 100.961C71.1571 100.88 71.8131 100.642 72.3897 100.266C72.9121 98.0973 74.0553 94.8351 76.1841 95.594C79.3084 96.7077 82.1567 104.395 77.9286 107.017C83.0141 107.943 89.1739 98.9449 89.5386 90.745C89.9032 82.5451 81.181 73.1132 75.8983 72.1868Z" fill="#212121"/>
  <path d="M60.7505 85.088C60.7505 85.088 63.3721 83.6786 66.585 86.6944C69.798 89.7103 76.0465 93.7412 84.3252 91.5237" stroke="white" stroke-width="0.5" stroke-linecap="round" stroke-linejoin="round"/>
  <path d="M60.3857 82.6735C60.3857 82.6735 62.1893 79.8547 65.2052 79.8547C68.221 79.8547 75.2678 84.0828 80.8954 84.0828" stroke="white" stroke-width="0.5" stroke-linecap="round" stroke-linejoin="round"/>
  <path d="M58.3358 88.1038C58.3358 88.1038 54.9159 83.8855 51.7029 87.3054C48.49 90.7253 50.5301 93.958 50.5301 93.958" stroke="white" stroke-width="0.5" stroke-linecap="round" stroke-linejoin="round"/>
  <path d="M44.6661 90.9225C46.6259 89.1551 47.8442 86.7115 48.0761 84.0827C48.4802 79.6575 54.5217 75.8335 58.3359 79.4604" stroke="white" stroke-width="0.5" stroke-linecap="round" stroke-linejoin="round"/>
  <path d="M50.8948 74.8283C50.8948 74.8283 56.9363 68.9938 61.9627 76.4348" stroke="white" stroke-width="0.5" stroke-linecap="round" stroke-linejoin="round"/>
  <path d="M100.065 361.697C100.065 361.697 103.78 367.472 103.366 371.188L102.962 374.903C102.962 374.903 89.3319 378.639 86.4442 378.639C83.5565 378.639 68.2703 377.19 68.2703 377.19L67.61 374.568C67.5638 374.375 67.5856 374.171 67.6717 373.992C67.7579 373.812 67.9031 373.668 68.0831 373.583L81.7135 367.226L86.0105 362.525L100.065 361.697Z" fill="white" stroke="#212121" stroke-width="1.00396" stroke-miterlimit="10"/>
  <path d="M88.5136 375.731C92.2095 376.017 99.2267 373.76 103.297 372.321L103.011 374.903C103.011 374.903 89.3316 378.639 86.4439 378.639C83.5562 378.639 68.2701 377.19 68.2701 377.19L67.797 375.317C70.2412 375.327 83.6252 375.357 88.5136 375.731Z" fill="#B75400" stroke="#212121" stroke-width="1.00396" stroke-miterlimit="10"/>
  <path d="M81.7329 367.226L61.8935 375.859C61.8935 375.859 60.1983 380.107 61.8935 380.955C63.5887 381.802 100.547 380.955 100.547 380.955C100.547 380.955 103.1 374.243 99.069 369.739C95.0381 365.235 81.7329 367.226 81.7329 367.226Z" fill="white" stroke="#212121" stroke-width="1.00396" stroke-miterlimit="10"/>
  <path d="M100.548 380.955C100.548 380.955 63.5889 381.803 61.8937 380.955C61.0757 380.541 61.0461 379.348 61.2334 378.215H101.198C101.067 379.147 100.85 380.064 100.548 380.955Z" fill="#B75400" stroke="#212121" stroke-width="1.00396" stroke-miterlimit="10"/>
  <path d="M72.3503 217.213C72.3503 217.213 67.1662 240.186 65.2049 254.556C63.2437 268.925 62.0906 297.714 62.5045 301.015C62.9184 304.317 83.5562 359.637 83.5562 359.637L85.616 364.565L100.064 361.677C100.064 361.677 93.4611 340.625 90.9874 329.065C88.5136 317.504 83.1028 298.512 83.1028 295.21C83.1028 291.909 95.9152 228.852 96.8317 224.713C97.7483 220.573 101.907 214.217 101.907 214.217L74.2426 213.655L72.3503 217.213Z" fill="#B75400" stroke="#212121" stroke-width="1.00396" stroke-miterlimit="10"/>
  <path d="M72.3505 217.213C72.3505 217.213 69.315 238.196 70.5667 252.782C71.8183 267.369 74.5089 298.424 74.5089 303.046C74.5089 307.668 81.9697 335.274 82.3935 343.947C83.0538 356.474 82.1274 362.673 82.1274 362.673L81.6839 367.216C81.6839 367.216 90.3864 368.458 92.2885 369C94.4855 369.566 96.7527 369.812 99.02 369.729C99.02 369.729 102.184 355.803 102.184 343.937C102.184 332.071 99.5522 307.649 98.2414 297.754C96.9306 287.858 101.06 249.687 103.406 242.562C105.751 235.436 110.876 220.347 107.427 212.64C103.977 204.933 72.3505 217.213 72.3505 217.213Z" fill="#B75400" stroke="#212121" stroke-width="1.00396" stroke-miterlimit="10"/>
  <path d="M111.261 208.776L110.945 218.159C110.945 218.159 105.327 219.273 97.7584 220.583C91.5099 221.668 75.8197 220.298 70.537 219.785C70.0556 219.742 69.6105 219.511 69.2986 219.142C68.9867 218.773 68.8332 218.296 68.8714 217.814L69.3839 209.338L111.261 208.776Z" fill="#212121"/>
  <path d="M89.3023 115.246C89.3023 115.246 80.4322 124.836 77.0911 130.798C73.7501 136.761 72.4294 145.897 71.1777 153.092C69.9261 160.286 73.3164 177.179 72.3604 184.935L69.3347 209.368C69.3347 209.368 68.6843 211.023 70.8624 212.837C73.0405 214.65 83.6747 215.311 93.284 215.794C96.7926 215.971 107.269 213.714 108.984 213.606C111.054 213.477 111.123 210.846 111.211 208.776C111.625 199.049 113.38 173.119 114.533 161.824C116.908 138.791 103.908 116.557 89.3023 115.246Z" fill="white" stroke="#212121" stroke-width="1.00396" stroke-miterlimit="10"/>
  <g style="mix-blend-mode:multiply">
    <path d="M113.448 174.922C113.843 169.807 114.237 165.165 114.582 161.824C114.68 160.838 114.739 159.853 114.789 158.867L91.2239 162.81L70.9803 155.911C70.9826 160.099 71.2195 164.285 71.69 168.447L91.5491 174.006L113.448 174.922Z" fill="#B75400"/>
  </g>
  <g style="mix-blend-mode:multiply">
    <path d="M88.4249 116.212C87.0846 117.7 84.4235 120.726 81.8906 123.939L96.8515 139.146L101.779 137.175L88.4249 116.212Z" fill="#B75400"/>
  </g>
  <path d="M89.3021 115.246C89.3021 115.246 80.432 124.836 77.0909 130.798C76.1002 132.61 75.2977 134.519 74.696 136.495L92.5347 115.887C91.4808 115.567 90.3981 115.353 89.3021 115.246Z" fill="#212121"/>
  <g style="mix-blend-mode:multiply">
    <path d="M71.8675 149.209L91.224 155.576L114.73 152.875C114.361 147.02 113.06 141.26 110.876 135.815L91.9238 143.414L74.9819 135.736C73.5966 140.14 72.5553 144.644 71.8675 149.209Z" fill="#B75400"/>
  </g>
  <g style="mix-blend-mode:multiply">
    <path d="M105.189 199.049C95.3718 200.697 85.2983 199.874 75.8786 196.654L71.1578 195.038L69.6893 206.864L75.0705 208.372C85.3004 211.232 95.9923 212.056 106.54 210.797L110.886 210.274C111.112 209.796 111.239 209.276 111.26 208.747C111.379 206.115 111.586 202.291 111.852 197.906L105.189 199.049Z" fill="#B75400"/>
  </g>
  <g style="mix-blend-mode:multiply">
    <path d="M107.821 182.945C98.0031 184.6 87.9271 183.773 78.5102 180.54L72.4983 178.48C72.6474 180.628 72.6177 182.783 72.4096 184.926L71.7098 190.613L77.7021 192.288C87.928 195.151 98.6167 195.978 109.161 194.722L112.118 194.368C112.364 190.425 112.65 186.227 112.956 182.078L107.821 182.945Z" fill="#B75400"/>
  </g>
  <path d="M15.3563 141.267L34.4126 156.589L35.234 155.567L16.1777 140.245L15.3563 141.267Z" fill="#212121"/>
  <path d="M98.4779 125.88C98.4779 125.88 105.466 130.641 105.623 141.886C105.692 146.814 105.18 151.416 104.046 159.488C102.913 167.56 95.876 193.845 90.3962 197.038C84.9165 200.231 76.4111 194.2 76.4111 194.2L35.2736 166.89L25.3292 158.857L20.4014 149.554L21.9487 146.597L34.081 155.901L27.5467 149.859L28.828 148.233L31.1933 149.879L38.0923 152.461L39.6002 162.317L41.729 163.775L81.0827 178.155C81.0827 178.155 80.5899 156.975 80.9545 152.924C81.3192 148.874 81.8218 138.693 86.1583 131.311" fill="white"/>
  <g style="mix-blend-mode:multiply" opacity="0.5">
    <path d="M80.8067 162.149C80.8067 169.462 81.0531 178.155 81.0531 178.155L41.7389 163.835L39.6101 162.376L38.1021 152.52L31.2032 149.938L28.8477 148.263L27.5664 149.889L34.081 155.901L21.9487 146.597L20.4802 149.505L25.4081 158.808L35.3524 166.89L37.8557 168.556L92.2097 186.069L80.8067 162.149Z" fill="#9E9E9E"/>
  </g>
  <path d="M98.4779 125.88C98.4779 125.88 105.466 130.641 105.623 141.886C105.692 146.814 105.18 151.416 104.046 159.488C102.913 167.56 95.876 193.845 90.3962 197.038C84.9165 200.231 76.4111 194.2 76.4111 194.2L35.2736 166.89L25.3292 158.857L20.4014 149.554L21.9487 146.597L34.081 155.901L27.5467 149.859L28.828 148.233L31.1933 149.879L38.0923 152.461L39.6002 162.317L41.729 163.775L81.0827 178.155C81.0827 178.155 80.5899 156.975 80.9545 152.924C81.3192 148.874 81.8218 138.693 86.1583 131.311" stroke="#212121" stroke-width="1.00396" stroke-miterlimit="10"/>
  <path d="M81.0827 178.155L96.1027 188.996L99.9957 182.097C99.9957 182.097 102.686 179.978 103.08 178.381C103.475 176.785 102.972 174.193 103.376 172.596C103.78 171 105.791 169.501 105.978 165.638C106.165 161.775 105.978 158.552 105.978 158.552C105.978 158.552 109.23 145.178 108.876 139.363C108.521 133.548 102.913 123.269 98.4188 123.042C93.9246 122.815 88.0802 123.495 83.5466 130.355C79.013 137.214 79.9394 157.241 79.2298 158.493C78.5202 159.744 79.5058 165.924 79.5058 165.924C79.1119 166.218 78.7851 166.592 78.5472 167.022C78.3093 167.452 78.1657 167.928 78.126 168.417C78.0471 170.024 79.7817 173.976 79.7817 173.976L81.0827 178.155Z" fill="white" stroke="#212121" stroke-width="1.00396" stroke-miterlimit="10"/>
  <g style="mix-blend-mode:multiply">
    <path d="M79.6238 153.348C79.6547 155.068 79.526 156.787 79.2394 158.483C78.6087 159.607 79.3281 164.682 79.4858 165.717C87.9339 168.341 96.867 169.015 105.613 167.688C105.801 167.003 105.913 166.299 105.948 165.589C106.145 161.736 105.948 158.503 105.948 158.503C105.948 158.503 106.234 157.31 106.628 155.497C97.5704 156.073 88.4767 155.349 79.6238 153.348Z" fill="#B75400"/>
  </g>
  <g style="mix-blend-mode:multiply">
    <path d="M82.9354 131.449C81.5261 134.278 80.7376 138.525 80.2842 142.832C89.2313 146.247 98.8778 147.421 108.383 146.252C108.762 143.973 108.93 141.663 108.885 139.353C108.715 137.527 108.283 135.735 107.604 134.031C99.3048 134.225 91.0147 133.357 82.9354 131.449Z" fill="#B75400"/>
  </g>
  <path d="M79.7815 174.084L81.0529 178.155L96.0729 188.996L99.9659 182.097C99.9659 182.097 102.656 179.978 103.051 178.382C103.121 178.104 103.164 177.82 103.179 177.534C95.2636 177.397 87.3994 176.238 79.7815 174.084Z" fill="#212121"/>
  <path d="M90.6524 368.872C90.6524 368.872 90.9875 360.337 92.6235 347.859C94.2595 335.382 90.3271 317.662 89.6668 314.705C89.0065 311.748 90.0019 305.184 89.3416 302.878C88.6812 300.572 85.488 290.736 87.3704 279.323C89.2529 267.91 90.7805 237.742 90.7805 237.742C90.7805 237.742 86.0399 233.889 84.6503 228.872C83.2606 223.855 84.325 222.279 84.325 222.279" stroke="#212121" stroke-width="1.00396" stroke-miterlimit="10"/>
  <path d="M92.8503 222.742L91.027 232.834" stroke="#212121" stroke-width="1.00396" stroke-miterlimit="10"/>
</svg>
