<svg width="402" height="400" viewBox="0 0 402 400" fill="none" xmlns="http://www.w3.org/2000/svg">
  <path d="M173.048 280.176C211.711 267.551 236.518 257.988 264.753 257.655C264.753 257.655 304.969 262.836 321.61 257.655C370.269 242.478 374.507 187.207 348.236 146.403C321.033 104.145 272.075 116.204 272.075 116.204C213.475 126.966 174.38 115.095 153.933 105.21C137.547 97.3109 117.744 100.251 105.119 113.32C102.275 116.14 100.049 119.521 98.5842 123.249C80.6006 172.496 101.313 220.622 108.702 250.011C111.431 260.905 134.374 292.801 173.048 280.176Z" stroke="#212121" stroke-linecap="round" stroke-linejoin="round" stroke-dasharray="2 2"/>
  <path d="M190.954 76.4539C189.39 94.8924 187.748 113.586 188.158 132.013C189.124 176.656 193.606 221.155 196.446 265.698C198.143 292.246 203.391 320.303 198.043 346.685C193.04 371.414 173.348 391.828 147.554 393.658C119.164 395.677 98.6508 369.173 101.746 342.514C104.065 322.545 116.069 304.095 116.779 283.97C117.722 256.878 86.0589 260.373 65.4793 242.922C41.2607 222.42 17.3528 195.161 10.3191 163.388C8.28885 154.257 7.76742 144.528 11.1511 135.752C26.4722 96.1238 91.5062 86.1723 116.779 119.854C142.817 154.579 132.555 205.08 175.167 209.817C217.78 214.554 259.605 196.404 300.642 186.142C341.679 175.88 387.443 201.141 380.343 254.792C373.242 308.444 306.955 306.935 276.18 269.792C245.404 232.649 259.605 156.942 265.917 126.91C269.39 110.446 278.31 95.669 286.131 80.9803C292.288 69.398 300.054 57.3053 298.057 43.6262C292.166 3.29898 224.836 -8.10582 204.367 26.6966C204.345 26.7409 193.95 41.0413 190.954 76.4539Z" stroke="#212121" stroke-linecap="round" stroke-linejoin="round" stroke-dasharray="2 2"/>
  <path d="M199.796 238.695C189.421 238.695 179.472 234.574 172.136 227.237C164.8 219.901 160.678 209.952 160.678 199.577C160.678 189.202 164.8 179.252 172.136 171.916C179.472 164.58 189.421 160.459 199.796 160.459C210.171 160.459 220.121 164.58 227.457 171.916C234.793 179.252 238.914 189.202 238.914 199.577C238.914 209.952 234.793 219.901 227.457 227.237C220.121 234.574 210.171 238.695 199.796 238.695Z" fill="#F5F5F5" stroke="#B75400" stroke-miterlimit="10"/>
  <path d="M215.128 167.515C218.796 169.266 222.136 171.634 225.002 174.515L215.128 167.515Z" fill="#F5F5F5"/>
  <path d="M215.128 167.515C218.796 169.266 222.136 171.634 225.002 174.515" stroke="#212121" stroke-width="0.75" stroke-linecap="round" stroke-linejoin="round"/>
  <path d="M177.774 171.686C178.584 171.043 179.438 170.433 180.326 169.845C185.058 166.742 190.462 164.815 196.09 164.224C201.717 163.634 207.404 164.397 212.677 166.45" fill="#F5F5F5"/>
  <path d="M177.774 171.686C178.584 171.043 179.438 170.433 180.326 169.845C185.058 166.742 190.462 164.815 196.09 164.224C201.717 163.634 207.404 164.397 212.677 166.45" stroke="#212121" stroke-width="0.75" stroke-linecap="round" stroke-linejoin="round"/>
  <path d="M195.47 234.845C190.344 234.216 185.418 232.477 181.034 229.749C176.65 227.02 172.914 223.368 170.086 219.047C166.09 212.956 164.065 205.783 164.285 198.501C164.506 191.219 166.961 184.181 171.318 178.343" fill="#F5F5F5"/>
  <path d="M195.47 234.845C190.344 234.216 185.418 232.477 181.034 229.749C176.65 227.02 172.914 223.368 170.086 219.047V219.047C166.09 212.956 164.065 205.783 164.285 198.501C164.506 191.219 166.961 184.181 171.318 178.343" stroke="#212121" stroke-width="0.75" stroke-linecap="round" stroke-linejoin="round"/>
  <path d="M208.605 234.013C206.293 234.623 203.925 234.995 201.538 235.123L208.605 234.013Z" fill="#F5F5F5"/>
  <path d="M208.605 234.013C206.293 234.623 203.925 234.995 201.538 235.123" stroke="#212121" stroke-width="0.75" stroke-linecap="round" stroke-linejoin="round"/>
  <path d="M225.002 174.515C226.688 176.213 228.204 178.07 229.529 180.062C232.091 183.965 233.857 188.335 234.728 192.922C235.599 197.508 235.557 202.222 234.603 206.792C233.65 211.362 231.805 215.7 229.173 219.556C226.541 223.412 223.175 226.711 219.266 229.265C216.7 230.942 213.93 232.284 211.023 233.259" fill="#F5F5F5"/>
  <path d="M225.002 174.515C226.688 176.213 228.204 178.07 229.529 180.062V180.062C232.091 183.965 233.857 188.335 234.728 192.922C235.599 197.508 235.557 202.222 234.603 206.792C233.65 211.362 231.805 215.7 229.173 219.556C226.541 223.412 223.175 226.711 219.266 229.265C216.7 230.942 213.93 232.284 211.023 233.259" stroke="#212121" stroke-width="0.75" stroke-linecap="round" stroke-linejoin="round"/>
  <path d="M361.882 238.695C351.507 238.695 341.557 234.574 334.221 227.237C326.885 219.901 322.764 209.952 322.764 199.577C322.764 189.202 326.885 179.252 334.221 171.916C341.557 164.58 351.507 160.459 361.882 160.459C372.257 160.459 382.207 164.58 389.543 171.916C396.879 179.252 401 189.202 401 199.577C401 209.952 396.879 219.901 389.543 227.237C382.207 234.574 372.257 238.695 361.882 238.695Z" fill="#B75400" stroke="#B75400" stroke-miterlimit="10"/>
  <path d="M343.277 229.831C339.814 227.702 336.744 224.992 334.202 221.821" stroke="white" stroke-width="0.75" stroke-linecap="round" stroke-linejoin="round"/>
  <path d="M380.864 229.642C379.977 230.197 379.067 230.752 378.124 231.206C373.091 233.788 367.515 235.13 361.859 235.12C356.203 235.111 350.631 233.75 345.607 231.151" stroke="white" stroke-width="0.75" stroke-linecap="round" stroke-linejoin="round"/>
  <path d="M369.992 164.974C375.022 166.141 379.736 168.393 383.804 171.572C387.872 174.751 391.197 178.781 393.545 183.379V183.379C396.87 189.86 398.121 197.207 397.129 204.423C396.137 211.639 392.949 218.375 387.998 223.718" stroke="white" stroke-width="0.75" stroke-linecap="round" stroke-linejoin="round"/>
  <path d="M356.812 164.397C359.177 164.054 361.571 163.954 363.957 164.098" stroke="white" stroke-width="0.75" stroke-linecap="round" stroke-linejoin="round"/>
  <path d="M334.202 221.821C332.703 219.944 331.394 217.922 330.297 215.785C328.165 211.633 326.872 207.102 326.494 202.45C326.115 197.798 326.657 193.116 328.089 188.674C329.522 184.232 331.816 180.116 334.841 176.561C337.866 173.006 341.562 170.083 345.718 167.959V167.959C348.446 166.561 351.344 165.521 354.338 164.863" stroke="white" stroke-width="0.75" stroke-linecap="round" stroke-linejoin="round"/>
  <path d="M199.796 381.621C189.421 381.621 179.472 377.5 172.136 370.163C164.8 362.827 160.678 352.878 160.678 342.503C160.678 332.127 164.799 322.176 172.135 314.838C179.471 307.501 189.42 303.377 199.796 303.374C210.172 303.377 220.122 307.501 227.458 314.838C234.793 322.176 238.914 332.127 238.914 342.503C238.914 352.878 234.793 362.827 227.457 370.163C220.121 377.5 210.171 381.621 199.796 381.621Z" fill="#B75400" stroke="#B75400" stroke-miterlimit="10"/>
  <path d="M181.369 312.105C184.838 309.987 188.648 308.486 192.629 307.667" stroke="white" stroke-width="0.75" stroke-linecap="round" stroke-linejoin="round"/>
  <path d="M164.406 345.642C164.317 344.611 164.273 343.557 164.273 342.503C164.269 336.845 165.617 331.269 168.204 326.238C170.792 321.207 174.545 316.867 179.15 313.58" stroke="white" stroke-width="0.75" stroke-linecap="round" stroke-linejoin="round"/>
  <path d="M226.91 365.434C223.581 369.381 219.43 372.553 214.746 374.726C210.062 376.899 204.96 378.022 199.796 378.015C192.516 378.016 185.411 375.783 179.441 371.616C173.471 367.45 168.924 361.551 166.414 354.718" stroke="white" stroke-width="0.75" stroke-linecap="round" stroke-linejoin="round"/>
  <path d="M233.434 353.996C232.66 356.255 231.66 358.429 230.449 360.486" stroke="white" stroke-width="0.75" stroke-linecap="round" stroke-linejoin="round"/>
  <path d="M192.629 307.745C194.988 307.262 197.389 307.02 199.796 307.024V307.024C209.212 307.024 218.242 310.764 224.899 317.422C231.557 324.08 235.298 333.11 235.298 342.525C235.299 345.592 234.903 348.646 234.122 351.611" stroke="white" stroke-width="0.75" stroke-linecap="round" stroke-linejoin="round"/>
  <path d="M40.1513 238.695C35.0114 238.699 29.9211 237.691 25.1713 235.727C20.4214 233.763 16.1051 230.882 12.4692 227.249C8.8332 223.616 5.94881 219.303 3.98086 214.554C2.01292 209.806 0.999998 204.717 1 199.577C0.999998 194.437 2.01292 189.348 3.98086 184.599C5.94881 179.851 8.8332 175.537 12.4692 171.905C16.1051 168.272 20.4214 165.391 25.1713 163.427C29.9211 161.463 35.0114 160.455 40.1513 160.459C50.526 160.459 60.4759 164.58 67.8119 171.916C75.148 179.252 79.2693 189.202 79.2693 199.577C79.2693 209.952 75.148 219.901 67.8119 227.237C60.4759 234.574 50.526 238.695 40.1513 238.695Z" fill="#B75400" stroke="#B75400" stroke-miterlimit="10"/>
  <path d="M21.6906 169.19C25.1595 167.071 28.9694 165.57 32.9512 164.752" stroke="white" stroke-width="0.75" stroke-linecap="round" stroke-linejoin="round"/>
  <path d="M4.71656 202.728C4.62781 201.685 4.58344 200.642 4.58344 199.577C4.57926 193.919 5.92726 188.343 8.51512 183.312C11.103 178.281 14.8557 173.941 19.4607 170.654" stroke="white" stroke-width="0.75" stroke-linecap="round" stroke-linejoin="round"/>
  <path d="M67.2321 222.542C63.9017 226.478 59.754 229.641 55.0773 231.812C50.4006 233.982 45.3072 235.108 40.1513 235.111C32.8693 235.121 25.7607 232.89 19.7891 228.723C13.8176 224.555 9.27215 218.652 6.76897 211.814" stroke="white" stroke-width="0.75" stroke-linecap="round" stroke-linejoin="round"/>
  <path d="M73.7444 211.07C72.9773 213.335 71.9772 215.514 70.7601 217.572" stroke="white" stroke-width="0.75" stroke-linecap="round" stroke-linejoin="round"/>
  <path d="M32.9512 164.763C35.3095 164.281 37.7108 164.039 40.118 164.042V164.042C49.5335 164.042 58.5634 167.783 65.2212 174.44C71.879 181.098 75.6193 190.128 75.6193 199.544C75.6214 202.61 75.2262 205.665 74.4434 208.63" stroke="white" stroke-width="0.75" stroke-linecap="round" stroke-linejoin="round"/>
  <path d="M199.796 86.6938C189.421 86.6938 179.472 82.5724 172.136 75.2364C164.8 67.9003 160.678 57.9505 160.678 47.5758C160.678 37.201 164.8 27.2512 172.136 19.9152C179.472 12.5791 189.421 8.45776 199.796 8.45776C210.171 8.45776 220.121 12.5791 227.457 19.9152C234.793 27.2512 238.914 37.201 238.914 47.5758C238.914 57.9505 234.793 67.9003 227.457 75.2364C220.121 82.5724 210.171 86.6938 199.796 86.6938Z" fill="#B75400" stroke="#B75400" stroke-miterlimit="10"/>
  <path d="M181.369 17.1778C184.838 15.0603 188.648 13.559 192.629 12.7401" stroke="white" stroke-width="0.75" stroke-linecap="round" stroke-linejoin="round"/>
  <path d="M164.406 50.7154C164.317 49.6837 164.273 48.6297 164.273 47.5758C164.269 41.9182 165.617 36.3416 168.204 31.3106C170.792 26.2797 174.545 21.94 179.15 18.6533" stroke="white" stroke-width="0.75" stroke-linecap="round" stroke-linejoin="round"/>
  <path d="M226.91 70.5407C223.579 74.4844 219.427 77.6527 214.743 79.8239C210.06 81.9951 204.959 83.1167 199.796 83.1104V83.1104C192.516 83.1115 185.411 80.878 179.441 76.7115C173.471 72.545 168.924 66.6464 166.414 59.8126" stroke="white" stroke-width="0.75" stroke-linecap="round" stroke-linejoin="round"/>
  <path d="M233.434 59.0693C232.658 61.3302 231.658 63.5081 230.449 65.5705" stroke="white" stroke-width="0.75" stroke-linecap="round" stroke-linejoin="round"/>
  <path d="M192.629 12.7623C194.988 12.2796 197.389 12.0379 199.796 12.0412V12.0412C209.212 12.0412 218.242 15.7815 224.899 22.4393C231.557 29.0971 235.298 38.127 235.298 47.5425C235.299 50.6092 234.903 53.6632 234.122 56.6286" stroke="white" stroke-width="0.75" stroke-linecap="round" stroke-linejoin="round"/>
  <path d="M281.105 314.357C306.796 314.357 327.623 293.53 327.623 267.839C327.623 242.148 306.796 221.321 281.105 221.321C255.414 221.321 234.588 242.148 234.588 267.839C234.588 293.53 255.414 314.357 281.105 314.357Z" fill="#BDBDBD" stroke="#212121" stroke-miterlimit="10"/>
  <path opacity="0.3" d="M281.105 314.357C306.796 314.357 327.623 293.53 327.623 267.839C327.623 242.148 306.796 221.321 281.105 221.321C255.414 221.321 234.588 242.148 234.588 267.839C234.588 293.53 255.414 314.357 281.105 314.357Z" fill="white" stroke="#212121" stroke-miterlimit="10"/>
  <path d="M281.105 221.321C281.105 221.321 257.575 218.77 253.825 230.407C250.075 242.045 265.895 239.982 263.399 245.385C260.903 250.787 250.497 257.821 254.657 265.765C258.817 273.708 266.306 282.406 257.985 279.499C249.665 276.592 247.59 275.749 249.254 284.902C250.918 294.055 259.649 296.551 273.794 295.297C287.939 294.044 286.686 300.711 294.585 301.543C302.484 302.375 310.394 297.793 310.394 286.145C310.394 274.496 300.831 277.003 309.562 271.179C318.293 265.354 316.64 250.377 314.144 245.806C311.648 241.235 306.655 243.31 306.655 237.486C306.655 231.661 294.651 220.545 281.105 221.321Z" fill="#212121" stroke="#212121" stroke-miterlimit="10"/>
  <path d="M268.159 226.758C268.159 226.758 259.45 225.593 259.738 231.106C260.027 236.62 275.137 247.371 289.371 247.67C303.604 247.97 305.047 240.692 303.016 239.239" stroke="white" stroke-width="0.75" stroke-linecap="round" stroke-linejoin="round"/>
  <path d="M277.167 231.373C277.167 231.373 270.2 232.238 271.065 236.92C271.931 241.601 276.291 243.887 282.98 246.505" stroke="white" stroke-width="0.75" stroke-linecap="round" stroke-linejoin="round"/>
  <path d="M312.014 259.829C312.014 259.829 311.437 267.096 302.439 271.744C293.442 276.393 285.332 283.338 293.098 286.844C300.864 290.349 305.302 294.388 302.395 295.264" stroke="white" stroke-width="0.75" stroke-linecap="round" stroke-linejoin="round"/>
  <path d="M267.582 281.319C267.582 281.319 264.098 289.451 258.873 287.975C253.647 286.5 251.895 282.428 255.389 282.428C258.884 282.428 259.161 284.17 259.161 284.17" stroke="white" stroke-width="0.75" stroke-linecap="round" stroke-linejoin="round"/>
  <path d="M295.317 248.036C295.317 248.036 302.451 247.925 301.286 254.892C300.121 261.859 293.442 262.447 291.7 267.673" stroke="white" stroke-width="0.75" stroke-linecap="round" stroke-linejoin="round"/>
  <path d="M281.105 314.401C291.546 314.414 301.685 310.895 309.873 304.417C306.611 302.009 300.798 297.76 297.414 295.541C292.521 292.28 285.998 282.128 277.289 283.937C270.3 285.401 251.595 293.456 244.472 296.584C248.824 302.142 254.385 306.634 260.732 309.722C267.08 312.809 274.047 314.409 281.105 314.401Z" fill="white" stroke="#212121" stroke-miterlimit="10"/>
  <path d="M275.869 282.406C275.869 282.406 262.977 286.145 261.313 296.961C259.649 307.778 271.919 299.979 271.919 299.979C271.919 299.979 278.365 309.442 284.19 306.536C290.014 303.629 290.846 293.633 287.518 286.977C284.19 280.32 275.869 282.406 275.869 282.406Z" fill="white" stroke="#212121" stroke-miterlimit="10"/>
  <path d="M275.525 274.462C275.593 278.006 275.11 281.54 274.094 284.935C272.463 289.961 267.149 296.884 271.875 299.99C276.601 303.096 282.659 293.212 284.234 284.913C285.809 276.615 286.952 266.697 286.952 266.697L275.525 274.462Z" fill="white"/>
  <g style="mix-blend-mode:multiply" opacity="0.5">
    <path d="M274.427 283.826C275.95 284.377 277.532 284.75 279.142 284.935C280.584 285.102 281.161 284.791 281.361 284.425C281.183 286.499 280.506 292.191 278.143 296.384C277.422 297.671 276.834 298.759 276.368 299.713C279.874 297.35 283.147 290.76 284.256 284.946C285.832 276.659 286.93 266.763 286.93 266.763L275.503 274.529C275.558 277.662 275.196 280.788 274.427 283.826Z" fill="#BDBDBD"/>
  </g>
  <path d="M275.525 274.462C275.593 278.006 275.11 281.54 274.094 284.935C272.463 289.961 267.149 296.884 271.875 299.99C276.601 303.096 282.659 293.212 284.234 284.913C285.809 276.615 286.952 266.697 286.952 266.697L275.525 274.462Z" stroke="#212121" stroke-miterlimit="10"/>
  <path d="M268.547 242.289C268.547 242.289 264.553 258.931 264.553 265.132C264.553 271.334 270.255 278.922 277.489 279.555C286.719 280.298 290.114 267.895 292.111 260.828C293.841 254.693 295.017 249.39 295.306 248.08C281.272 253.383 268.547 242.289 268.547 242.289Z" fill="white"/>
  <g style="mix-blend-mode:multiply" opacity="0.5">
    <path d="M295.317 248.036C293.921 248.569 292.476 248.959 291.001 249.201C290.347 253.428 288.339 263.823 283.735 270.213C279.83 275.638 275.647 277.602 273.273 278.312C274.595 278.971 276.028 279.377 277.5 279.51C286.73 280.253 290.125 267.85 292.122 260.783" fill="#BDBDBD"/>
  </g>
  <path d="M268.547 242.289C268.547 242.289 264.553 258.931 264.553 265.132C264.553 271.334 270.255 278.922 277.489 279.555C286.719 280.298 290.114 267.895 292.111 260.828C293.841 254.693 295.017 249.39 295.306 248.08C281.272 253.383 268.547 242.289 268.547 242.289Z" stroke="#212121" stroke-miterlimit="10"/>
  <path d="M276.157 254.071C275.649 255.882 274.851 257.598 273.794 259.152C272.352 260.961 269.268 259.33 270.178 260.417C270.68 261.054 271.31 261.58 272.026 261.962C272.742 262.344 273.529 262.573 274.338 262.636" stroke="#212121" stroke-linecap="round" stroke-linejoin="round"/>
  <path d="M269.179 266.075C269.179 266.075 271.897 270.069 277.511 268.072" stroke="#212121" stroke-linecap="round" stroke-linejoin="round"/>
  <path d="M273.517 252.784C273.351 253.772 272.774 254.504 272.23 254.404C271.686 254.304 271.376 253.439 271.542 252.452C271.709 251.464 272.286 250.743 272.829 250.832C273.373 250.921 273.683 251.797 273.517 252.784Z" fill="#212121"/>
  <path d="M282.659 255.392C282.415 256.368 281.793 257.056 281.261 256.923C280.728 256.789 280.484 255.902 280.717 254.926C280.95 253.949 281.571 253.273 282.115 253.395C282.659 253.517 282.892 254.426 282.659 255.392Z" fill="#212121"/>
  <path d="M269.8 247.903C269.8 247.903 271.254 244.464 275.603 246.461" stroke="#212121" stroke-linecap="round" stroke-linejoin="round"/>
  <path d="M280.662 249.378C280.662 249.378 284.656 248.114 285.743 252.096" stroke="#212121" stroke-linecap="round" stroke-linejoin="round"/>
  <path d="M119.175 314.357C144.866 314.357 165.693 293.53 165.693 267.839C165.693 242.148 144.866 221.322 119.175 221.322C93.4839 221.322 72.6572 242.148 72.6572 267.839C72.6572 293.53 93.4839 314.357 119.175 314.357Z" fill="#BDBDBD" stroke="#212121" stroke-miterlimit="10"/>
  <path opacity="0.3" d="M119.175 314.357C144.866 314.357 165.693 293.53 165.693 267.839C165.693 242.148 144.866 221.322 119.175 221.322C93.4839 221.322 72.6572 242.148 72.6572 267.839C72.6572 293.53 93.4839 314.357 119.175 314.357Z" fill="white" stroke="#212121" stroke-miterlimit="10"/>
  <path d="M90.075 304.084C99.1975 311.433 110.759 315.065 122.445 314.255C134.131 313.444 145.08 308.251 153.101 299.713C147.864 292.968 137.136 281.407 125.199 281.407C111.953 281.407 96.2212 297.217 90.075 304.084Z" fill="white" stroke="#212121" stroke-miterlimit="10"/>
  <path d="M114.027 277.968C114.027 277.968 106.139 278.867 105.463 284.958C104.786 291.048 109.512 301.188 109.967 302.309C110.422 303.429 120.562 293.3 124.389 293.3C128.217 293.3 138.135 298.703 138.135 298.703C138.135 298.703 134.984 286.078 129.348 281.341C123.713 276.604 115.592 276.16 114.027 277.968Z" fill="white" stroke="#212121" stroke-miterlimit="10"/>
  <path opacity="0.5" d="M103.654 255.602C103.654 255.602 100.271 252.219 98.4733 254.926C96.676 257.633 98.2403 260.783 100.692 262.814C103.144 264.844 107.005 265.032 107.005 263.49C107.005 261.948 103.654 255.602 103.654 255.602Z" fill="#BDBDBD" stroke="#212121" stroke-miterlimit="10"/>
  <path d="M103.654 255.602C103.654 255.602 100.271 252.219 98.4733 254.926C96.676 257.633 98.2403 260.783 100.692 262.814C103.144 264.844 107.005 265.032 107.005 263.49C107.005 261.948 103.654 255.602 103.654 255.602Z" stroke="#212121" stroke-miterlimit="10"/>
  <path d="M132.743 247.759C132.743 247.759 134.319 243.698 136.571 247.981C138.823 252.263 134.54 256.091 134.54 256.091L132.743 247.759Z" fill="white" stroke="#212121" stroke-miterlimit="10"/>
  <path d="M107.038 263.535C107.038 263.535 111.542 279.765 112.674 285.401C113.805 291.037 118.986 299.158 122.814 296.495C126.641 293.833 126.431 288.829 124.167 284.547C122.678 281.587 121.47 278.493 120.562 275.306L107.038 263.535Z" fill="white"/>
  <g style="mix-blend-mode:multiply" opacity="0.5">
    <path d="M124.167 284.503C122.678 281.542 121.47 278.448 120.562 275.261L107.038 263.535C107.038 263.535 110.732 276.848 112.263 283.504C114.219 285.031 116.442 286.179 118.82 286.888C120.875 287.45 123.068 287.2 124.944 286.189C124.721 285.611 124.462 285.048 124.167 284.503Z" fill="#BDBDBD"/>
  </g>
  <path d="M107.038 263.535C107.038 263.535 111.542 279.765 112.674 285.401C113.805 291.037 118.986 299.158 122.814 296.495C126.641 293.833 126.431 288.829 124.167 284.547C122.678 281.587 121.47 278.493 120.562 275.306L107.038 263.535Z" stroke="#212121" stroke-miterlimit="10"/>
  <path d="M98.9503 246.627C98.9503 246.627 109.545 272.144 114.061 277.968C118.576 283.793 130.702 284.281 135.927 275.749C141.153 267.218 135.25 255.691 134.352 250.499C133.453 245.307 131.024 236.753 132.543 235.178C134.063 233.603 140.431 232.471 137.957 228.411C135.483 224.35 131.867 226.38 131.423 223.452C130.979 220.523 133.22 213.3 124.877 212.18C116.535 211.059 101.879 220.966 96.0326 228.633C90.1859 236.299 88.3221 243.244 98.9503 246.627Z" fill="#212121" stroke="#212121" stroke-miterlimit="10"/>
  <path d="M102.279 238.961C102.279 238.961 95.3337 238.44 98.8173 231.761C102.301 225.082 125.543 216.085 125.832 221.022C126.12 225.959 120.895 227.412 120.895 227.412" stroke="white" stroke-width="0.75" stroke-linecap="round" stroke-linejoin="round"/>
  <path d="M111.62 232.638C111.62 232.638 106.395 231.473 108.136 227.701C109.878 223.929 122.659 222.154 120.34 224.506C118.965 225.883 117.4 227.056 115.691 227.989" stroke="white" stroke-width="0.75" stroke-linecap="round" stroke-linejoin="round"/>
  <path d="M128.45 261.959C128.45 261.959 124.622 268.039 118.532 265.11" stroke="white" stroke-width="0.75" stroke-linecap="round" stroke-linejoin="round"/>
  <path d="M134.319 250.455C133.475 245.607 131.245 237.785 132.255 235.511C131.578 233.88 129.248 230.075 122.37 229.72C113.572 229.265 104.109 234.224 102.301 238.961C100.492 243.698 104.786 241.18 106.361 244.597C107.937 248.014 103.876 252.041 104.786 254.515C105.696 256.989 109.967 266.719 109.967 266.719C110.644 264.012 120.795 259.496 120.795 259.496C122.263 259.884 123.783 260.038 125.299 259.951C127.329 259.729 126.198 257.921 126.198 257.921L136.593 258.542C135.705 255.27 134.651 252.418 134.319 250.455Z" fill="white"/>
  <g style="mix-blend-mode:multiply" opacity="0.5">
    <path d="M110.311 240.77C109.889 236.332 106.983 235.455 105.052 235.378C103.854 236.333 102.902 237.562 102.279 238.961C100.481 243.698 104.764 241.18 106.339 244.597C107.914 248.014 103.854 252.041 104.764 254.515C105.673 256.989 109.945 266.719 109.945 266.719C110.167 265.853 111.343 264.799 112.851 263.779C110.633 260.617 107.926 256.767 106.395 254.537C103.51 250.266 110.965 247.648 110.311 240.77Z" fill="#BDBDBD"/>
  </g>
  <path d="M134.319 250.455C133.475 245.607 131.245 237.785 132.255 235.511C131.578 233.88 129.248 230.075 122.37 229.72C113.572 229.265 104.109 234.224 102.301 238.961C100.492 243.698 104.786 241.18 106.361 244.597C107.937 248.014 103.876 252.041 104.786 254.515C105.696 256.989 109.967 266.719 109.967 266.719C110.644 264.012 120.795 259.496 120.795 259.496C122.263 259.884 123.783 260.038 125.299 259.951C127.329 259.729 126.198 257.921 126.198 257.921L136.593 258.542C135.705 255.27 134.651 252.418 134.319 250.455Z" stroke="#212121" stroke-miterlimit="10"/>
  <path d="M115.214 249.367C115.503 250.621 115.214 251.764 114.649 251.897C114.083 252.03 113.328 251.12 113.051 249.856C112.774 248.591 113.051 247.459 113.617 247.326C114.183 247.193 114.937 248.103 115.214 249.367Z" fill="#212121"/>
  <path d="M128.638 246.605C128.927 247.87 128.638 249.001 128.073 249.135C127.507 249.268 126.752 248.358 126.464 247.093C126.175 245.828 126.464 244.697 127.041 244.564C127.618 244.431 128.35 245.34 128.638 246.605Z" fill="#212121"/>
  <path d="M109.967 243.465C109.967 243.465 110.865 238.506 116.058 240.537" stroke="#212121" stroke-linecap="round" stroke-linejoin="round"/>
  <path d="M130.014 238.284C126.175 235.799 124.822 239.394 124.822 239.394C124.822 239.394 122.392 242.056 123.38 246.971" stroke="#212121" stroke-linecap="round" stroke-linejoin="round"/>
  <path d="M110.644 256.767L117.178 254.071" stroke="#212121" stroke-width="0.5" stroke-linecap="round" stroke-linejoin="round"/>
  <path d="M126.431 252.041L131.833 251.586" stroke="#212121" stroke-width="0.5" stroke-linecap="round" stroke-linejoin="round"/>
  <path d="M291.984 168.213C316.962 162.202 332.338 137.081 326.328 112.103C320.317 87.1246 295.196 71.7484 270.218 77.7589C245.24 83.7695 229.864 108.891 235.874 133.869C241.885 158.847 267.006 174.223 291.984 168.213Z" fill="#BDBDBD" stroke="#212121" stroke-miterlimit="10"/>
  <path opacity="0.3" d="M291.984 168.213C316.962 162.202 332.338 137.081 326.328 112.103C320.317 87.1246 295.196 71.7484 270.218 77.7589C245.24 83.7695 229.864 108.891 235.874 133.869C241.885 158.847 267.006 174.223 291.984 168.213Z" fill="white" stroke="#212121" stroke-miterlimit="10"/>
  <path d="M320.835 113.726C327.101 96.8305 317.921 77.8452 300.331 71.3209C282.741 64.7966 263.401 73.2039 257.134 90.0991C250.868 106.994 260.048 125.98 277.638 132.504C295.228 139.028 314.568 130.621 320.835 113.726Z" fill="#212121" stroke="#212121" stroke-miterlimit="10"/>
  <path d="M320.589 95.447C322.128 100.944 322.027 106.77 320.301 112.21" stroke="white" stroke-width="0.75" stroke-linecap="round" stroke-linejoin="round"/>
  <path d="M318.238 116.615C318.238 116.615 316.174 119.266 314.998 120.742" stroke="white" stroke-width="0.75" stroke-linecap="round" stroke-linejoin="round"/>
  <path d="M270 81.3242C270 81.3242 265.296 86.8713 268.236 93.6831" stroke="white" stroke-width="0.75" stroke-linecap="round" stroke-linejoin="round"/>
  <path d="M281.105 169.512C289.677 169.527 298.085 167.161 305.39 162.678C299.965 157.674 285.843 145.216 279.186 144.672C272.219 144.106 251.883 150.618 245.371 152.782C249.733 158.024 255.197 162.24 261.373 165.132C267.549 168.023 274.286 169.519 281.105 169.512Z" fill="white" stroke="#212121" stroke-miterlimit="10"/>
  <path d="M287.973 150.541C288.161 149.986 288.328 149.431 288.505 148.976C284.933 146.602 281.571 144.872 279.186 144.672C276.29 144.642 273.402 144.974 270.588 145.659C269.357 148.988 269.035 152.316 268.036 157.985C266.683 165.651 268.713 167.903 274.349 164.974C279.985 162.045 285.721 157.297 287.973 150.541Z" fill="white" stroke="#212121" stroke-miterlimit="10"/>
  <path d="M274.449 136.329C274.449 136.329 275.802 138.814 274.227 144.672C272.652 150.53 268.68 160.204 270.522 162.045C272.363 163.887 283.468 155.5 283.912 149.187C284.356 142.875 284.367 130.25 284.367 130.25L274.449 136.329Z" fill="white"/>
  <g style="mix-blend-mode:multiply" opacity="0.5">
    <path d="M274.97 140.123L282.093 145.67L281.549 154.546C282.811 153.005 283.629 151.148 283.912 149.176C284.367 142.864 284.367 130.238 284.367 130.238L274.449 136.318C274.931 137.525 275.11 138.831 274.97 140.123Z" fill="#BDBDBD"/>
  </g>
  <path d="M274.449 136.329C274.449 136.329 275.802 138.814 274.227 144.672C272.652 150.53 268.68 160.204 270.522 162.045C272.363 163.887 283.468 155.5 283.912 149.187C284.356 142.875 284.367 130.25 284.367 130.25L274.449 136.329Z" stroke="#212121" stroke-miterlimit="10"/>
  <path d="M263.144 108.605C263.144 108.605 261.569 104.544 259.538 107.495C257.508 110.446 259.982 114.03 261.114 114.03C262.245 114.03 263.144 108.605 263.144 108.605Z" fill="white" stroke="#212121" stroke-miterlimit="10"/>
  <path d="M268.358 95.5247C268.358 95.5247 261.824 108.372 260.248 117.169C258.673 125.967 265.207 139.258 271.742 139.258C278.276 139.258 288.383 129.118 288.383 129.118C288.383 129.118 297.847 129.34 299.2 126.189C300.553 123.038 298.978 120.553 296.493 120.553H291.534C291.534 120.553 290.18 121.23 290.857 114.917C291.534 108.605 293.564 105.676 293.564 105.676C293.564 105.676 276.457 107.018 268.358 95.5247Z" fill="white"/>
  <g style="mix-blend-mode:multiply" opacity="0.5">
    <path d="M285.687 125.046C284.316 128.534 282.061 131.605 279.143 133.957C276.225 136.308 272.745 137.86 269.046 138.459H268.979C269.832 138.957 270.799 139.228 271.786 139.247C278.321 139.247 288.428 129.107 288.428 129.107C288.428 129.107 297.891 129.329 299.244 126.178C300.598 123.027 299.022 120.542 296.537 120.542H291.578C291.578 120.542 290.225 121.219 290.902 114.906C291.578 108.594 293.608 105.665 293.608 105.665C293.608 105.665 292.499 105.742 290.669 105.665H290.591" fill="#BDBDBD"/>
  </g>
  <path d="M268.358 95.5247C268.358 95.5247 261.824 108.372 260.248 117.169C258.673 125.967 265.207 139.258 271.742 139.258C278.276 139.258 288.383 129.118 288.383 129.118C288.383 129.118 297.847 129.34 299.2 126.189C300.553 123.038 298.978 120.553 296.493 120.553H291.534C291.534 120.553 290.18 121.23 290.857 114.917C291.534 108.605 293.564 105.676 293.564 105.676C293.564 105.676 276.457 107.018 268.358 95.5247Z" stroke="#212121" stroke-miterlimit="10"/>
  <path d="M269.556 109.903C269.29 111.079 268.735 111.955 268.325 111.866C267.914 111.778 267.804 110.757 268.07 109.559C268.336 108.361 268.891 107.506 269.301 107.595C269.712 107.684 269.8 108.716 269.556 109.903Z" fill="#212121"/>
  <path d="M280.151 114.629C279.885 115.805 279.33 116.692 278.92 116.593C278.509 116.493 278.398 115.483 278.665 114.296C278.931 113.109 279.486 112.233 279.896 112.332C280.307 112.432 280.418 113.453 280.151 114.629Z" fill="#212121"/>
  <path d="M271.287 112.887C271.287 112.887 266.328 116.493 267.005 117.391C268.856 118.983 271.13 120.001 273.55 120.32C275.58 120.32 275.126 117.846 275.126 117.846" stroke="#212121" stroke-linecap="round" stroke-linejoin="round"/>
  <path d="M267.681 123.26C270.161 124.612 272.998 125.162 275.802 124.836C276.96 124.722 278.074 124.336 279.053 123.71C280.033 123.083 280.85 122.233 281.438 121.23" stroke="#212121" stroke-linecap="round" stroke-linejoin="round"/>
  <path d="M268.136 104.544C268.136 104.544 269.49 101.615 272.197 104.999" stroke="#212121" stroke-linecap="round" stroke-linejoin="round"/>
  <path d="M279.63 108.605C279.63 108.605 284.145 107.251 284.145 111.756" stroke="#212121" stroke-linecap="round" stroke-linejoin="round"/>
  <path d="M126.727 168.899C152.077 164.729 169.248 140.799 165.078 115.448C160.909 90.0979 136.978 72.9273 111.628 77.0967C86.277 81.2662 69.1064 105.197 73.2759 130.547C77.4454 155.898 101.376 173.068 126.727 168.899Z" fill="#BDBDBD" stroke="#212121" stroke-miterlimit="10"/>
  <path opacity="0.3" d="M126.727 168.899C152.077 164.729 169.248 140.799 165.078 115.448C160.909 90.0979 136.978 72.9273 111.628 77.0967C86.277 81.2662 69.1064 105.197 73.2759 130.547C77.4454 155.898 101.376 173.068 126.727 168.899Z" fill="white" stroke="#212121" stroke-miterlimit="10"/>
  <path d="M87.1684 146.591C86.3696 149.775 82.7307 149.331 83.8401 153.248C91.2735 161.949 101.655 167.604 112.997 169.129C124.339 170.654 135.845 167.942 145.313 161.513C148.641 157.574 150.638 153.436 150.727 150.108C151.026 139.946 140.287 132.357 139.71 127.465C139.133 122.572 143.771 111.511 143.771 111.511C143.771 111.511 151.892 110.347 154.798 103.102C157.705 95.8576 146.655 79.5603 136.781 74.6234C126.908 69.6865 110.377 74.0465 102.256 85.9394C94.1355 97.8323 103.998 108.283 98.7729 113.797C93.5475 119.311 79.9128 119.599 78.4595 130.627C77.0061 141.654 88.0337 143.108 87.1684 146.591Z" fill="#212121" stroke="#212121" stroke-miterlimit="10"/>
  <path d="M136.815 85.6842C136.815 85.6842 139.755 92.8843 128.305 97.1334C116.856 101.382 108.025 99.0971 105.074 106.619C102.123 114.141 104.42 119.388 104.753 123.26C105.085 127.132 95.8772 126.522 90.3302 131.437C84.7831 136.351 95.8772 142.231 98.8394 145.504C101.802 148.777 101.125 153.68 95.8883 155.322" stroke="white" stroke-width="0.75" stroke-linecap="round" stroke-linejoin="round"/>
  <path d="M102.134 100.739C102.134 100.739 106.383 90.2661 112.929 88.6242C119.475 86.9822 126.675 91.8969 131.578 87.3151C136.482 82.7332 135.506 79.4715 131.9 76.8533" stroke="white" stroke-width="0.75" stroke-linecap="round" stroke-linejoin="round"/>
  <path d="M141.718 89.9332C141.718 89.9332 153.179 97.4662 149.251 103.357C145.324 109.248 144.015 102.048 144.015 102.048" stroke="white" stroke-width="0.75" stroke-linecap="round" stroke-linejoin="round"/>
  <path d="M93.9469 162.068C102.637 167.684 112.952 170.24 123.259 169.332C133.566 168.424 143.275 164.102 150.849 157.053C147.424 153.907 143.792 150.993 139.977 148.333C132.721 143.396 126.919 141.677 122.858 141.943C122.858 141.943 119.663 143.396 113.572 149.198C109.601 152.981 100.06 158.606 93.9469 162.068Z" fill="white" stroke="#212121" stroke-miterlimit="10"/>
  <path d="M133.586 149.919C133.59 147.989 133.313 146.068 132.765 144.217C129.693 142.681 126.292 141.92 122.858 141.998C122.858 141.998 120.318 143.108 115.47 147.545C115.367 148.366 115.315 149.192 115.314 150.019C115.314 157.641 119.397 163.809 124.445 163.809C129.493 163.809 133.586 157.541 133.586 149.919Z" fill="white" stroke="#212121" stroke-miterlimit="10"/>
  <path d="M120.529 127.143C120.529 127.143 120.529 135.275 119.663 142.819C118.798 150.363 119.952 158.484 125.465 159.061C130.979 159.638 130.103 146.591 129.526 141.366C129.184 138.087 129.184 134.782 129.526 131.503L120.529 127.143Z" fill="white"/>
  <g style="mix-blend-mode:multiply" opacity="0.5">
    <path d="M119.497 144.572L129.293 135.075C129.293 134.776 129.293 134.487 129.293 134.221L127.296 130.505L120.495 127.176C120.495 127.176 120.495 135.308 119.63 142.852C119.597 143.396 119.541 143.984 119.497 144.572Z" fill="#BDBDBD"/>
  </g>
  <path d="M120.529 127.143C120.529 127.143 120.529 135.275 119.663 142.819C118.798 150.363 119.952 158.484 125.465 159.061C130.979 159.638 130.103 146.591 129.526 141.366C129.184 138.087 129.184 134.782 129.526 131.503L120.529 127.143Z" stroke="#212121" stroke-miterlimit="10"/>
  <path d="M140.265 90.8763C140.265 90.8763 140.842 94.6484 130.979 99.2968C121.117 103.945 116.18 107.706 115.314 112.055C114.449 116.404 114.149 118.157 114.149 118.157C114.149 118.157 112.119 114.085 108.347 116.116C104.575 118.146 108.059 125.989 111.542 126.278C115.026 126.566 115.891 125.401 115.891 125.401C115.891 125.401 127.207 136.717 133.875 136.717C140.542 136.717 143.161 130.338 144.614 118.967C146.023 108.05 140.265 90.8763 140.265 90.8763Z" fill="white"/>
  <g style="mix-blend-mode:multiply" opacity="0.5">
    <path d="M118.487 114.152C118.839 110.497 120.139 106.998 122.259 104.001C118.121 106.708 115.869 109.259 115.314 112.055C114.438 116.415 114.149 118.157 114.149 118.157C114.149 118.157 112.119 114.085 108.347 116.116C104.575 118.146 108.059 125.989 111.542 126.278C115.026 126.566 115.891 125.401 115.891 125.401C115.891 125.401 127.207 136.717 133.875 136.717C131.895 135.734 130.034 134.528 128.328 133.123C124.378 130.238 118.165 121.363 118.487 114.152Z" fill="#BDBDBD"/>
  </g>
  <path d="M140.265 90.8763C140.265 90.8763 140.842 94.6484 130.979 99.2968C121.117 103.945 116.18 107.706 115.314 112.055C114.449 116.404 114.149 118.157 114.149 118.157C114.149 118.157 112.119 114.085 108.347 116.116C104.575 118.146 108.059 125.989 111.542 126.278C115.026 126.566 115.891 125.401 115.891 125.401C115.891 125.401 127.207 136.717 133.875 136.717C140.542 136.717 143.161 130.338 144.614 118.967C146.023 108.05 140.265 90.8763 140.265 90.8763Z" stroke="#212121" stroke-miterlimit="10"/>
  <path d="M138.257 108.483C137.928 109.382 137.791 110.341 137.856 111.296C137.921 112.252 138.186 113.183 138.634 114.03C140.154 116.881 140.92 117.824 140.354 118.589C140.192 118.853 139.979 119.081 139.728 119.262C139.478 119.443 139.194 119.573 138.893 119.644C138.592 119.715 138.28 119.726 137.975 119.676C137.67 119.627 137.377 119.518 137.114 119.355" stroke="#212121" stroke-linecap="round" stroke-linejoin="round"/>
  <path d="M137.114 126.178C137.114 126.178 131.567 128.275 129.692 124.27" stroke="#212121" stroke-linecap="round" stroke-linejoin="round"/>
  <path d="M131.601 112.765C131.601 113.974 131.257 114.984 130.835 114.984C130.413 114.984 130.081 114.008 130.081 112.765C130.081 111.523 130.413 110.546 130.835 110.546C131.257 110.546 131.601 111.556 131.601 112.765Z" fill="#212121"/>
  <path d="M140.92 112.477C141.342 112.477 141.685 111.498 141.685 110.291C141.685 109.084 141.342 108.105 140.92 108.105C140.497 108.105 140.154 109.084 140.154 110.291C140.154 111.498 140.497 112.477 140.92 112.477Z" fill="#212121"/>
  <path d="M126.087 106.397C126.087 106.397 127.196 103.346 131.789 103.923" stroke="#212121" stroke-linecap="round" stroke-linejoin="round"/>
  <path d="M138.446 103.346C138.446 103.346 139.777 100.118 142.628 102.78" stroke="#212121" stroke-linecap="round" stroke-linejoin="round"/>
  <path d="M179.458 53.5286C178.464 54.5095 177.399 55 176.264 55C175.297 55 174.511 54.6982 173.907 54.0945C173.302 53.4909 173 52.7089 173 51.7486C173 50.5001 173.487 49.5398 174.461 48.8675C175.441 48.1884 176.842 47.8489 178.662 47.8489H179.458V46.8199C179.458 45.6469 178.803 45.0605 177.493 45.0605C176.331 45.0605 175.156 45.3966 173.967 46.0688V43.9698C175.317 43.4484 176.654 43.1878 177.977 43.1878C180.871 43.1878 182.319 44.3642 182.319 46.717V51.7177C182.319 52.6026 182.597 53.045 183.155 53.045C183.255 53.045 183.386 53.0313 183.548 53.0039L183.618 54.7119C182.987 54.904 182.429 55 181.946 55C180.723 55 179.938 54.5095 179.588 53.5286H179.458ZM179.458 51.8926V49.5981H178.752C176.825 49.5981 175.861 50.2154 175.861 51.4502C175.861 51.8686 175.999 52.2219 176.274 52.51C176.556 52.7912 176.902 52.9318 177.312 52.9318C178.01 52.9318 178.725 52.5854 179.458 51.8926Z" fill="white"/>
  <path d="M186.167 54.7428V43.445H189.149V45.5749C189.921 43.9835 191.096 43.1878 192.675 43.1878C192.863 43.1878 193.048 43.2084 193.229 43.2495V45.9659C192.806 45.8081 192.413 45.7293 192.05 45.7293C190.861 45.7293 189.894 46.3432 189.149 47.5711V54.7428H186.167Z" fill="white"/>
  <path d="M194.186 54.7428L198.961 47.2418L194.397 39.5145H198.014L201.046 44.6386L204.331 39.5145H206.839L202.265 46.6965L207 54.7428H203.394L200.16 49.2997L196.694 54.7428H194.186Z" fill="white"/>
  <path d="M209.317 54.7428V43.445H212.299V54.7428H209.317ZM209.317 41.5415V39H212.299V41.5415H209.317Z" fill="white"/>
  <path d="M218.757 54.7428L214.536 43.445H217.679L220.772 51.5942L223.844 43.445H226L221.739 54.7428H218.757Z" fill="white"/>
  <path d="M13 186.553H64L38.5 176L13 186.553Z" fill="white"/>
  <path d="M13 188.388V190.682H64V188.388H13Z" fill="white"/>
  <path d="M13 212.706V215H64V212.706H13Z" fill="white"/>
  <path d="M26.4711 199.362C26.4711 198.589 26.2639 198.038 25.8497 197.709C25.4422 197.379 24.8683 197.215 24.128 197.215H21.2042V201.59H24.128C24.8683 201.59 25.4422 201.412 25.8497 201.056C26.2639 200.7 26.4711 200.135 26.4711 199.362ZM29.5782 199.342C29.5782 201.096 29.13 202.336 28.2335 203.062C27.337 203.788 26.0568 204.151 24.3929 204.151H21.2042V209.494H18.0869V194.634H24.6272C26.1349 194.634 27.337 195.017 28.2335 195.783C29.13 196.549 29.5782 197.736 29.5782 199.342Z" fill="white"/>
  <path d="M41.4672 194.634H45.9802V209.494H43.0564V199.443C43.0564 199.154 43.0598 198.751 43.0666 198.233C43.0734 197.709 43.0768 197.305 43.0768 197.023L40.2346 209.494H37.1886L34.3667 197.023C34.3667 197.305 34.3701 197.709 34.3769 198.233C34.3836 198.751 34.387 199.154 34.387 199.443V209.494H31.4633V194.634H36.0272L38.7574 206.318L41.4672 194.634Z" fill="white"/>
  <path d="M47.8245 202.185C47.8245 199.591 48.5275 197.591 49.9333 196.186C51.1558 194.963 52.711 194.352 54.5991 194.352C57.1255 194.352 58.9729 195.172 60.141 196.812C60.7862 197.732 61.1326 198.656 61.1801 199.584H58.0424C57.8387 198.872 57.5772 198.334 57.258 197.971C56.6875 197.326 55.8419 197.003 54.7213 197.003C53.5804 197.003 52.6805 197.46 52.0217 198.374C51.3629 199.281 51.0335 200.569 51.0335 202.235C51.0335 203.902 51.3799 205.152 52.0726 205.986C52.7722 206.812 53.6585 207.226 54.7315 207.226C55.8318 207.226 56.6705 206.87 57.2478 206.157C57.567 205.774 57.8319 205.199 58.0424 204.433H61.1495C60.8779 206.053 60.1817 207.37 59.0611 208.385C57.9473 209.4 56.5177 209.907 54.7723 209.907C52.6126 209.907 50.9147 209.222 49.6786 207.851C48.4426 206.473 47.8245 204.584 47.8245 202.185Z" fill="white"/>
  <path d="M200.423 219.316C199.953 219.316 199.492 219.254 199.048 219.135C198.359 218.949 197.691 218.639 196.957 218.162C196.848 218.091 196.149 217.489 195.759 217.153L195.75 217.144C195.675 217.082 195.614 217.029 195.57 216.989C195.144 217.197 194.74 217.476 194.344 217.75C193.549 218.303 192.724 218.869 191.665 218.909C190.756 218.945 189.794 218.799 188.692 218.467C188.595 218.44 188.38 218.347 188.029 218.206C187.638 218.042 187.049 217.839 186.856 217.759C186.839 217.75 186.764 217.706 186.738 217.626C186.711 217.551 186.711 217.432 186.724 217.405C187.453 216.843 188.156 216.171 188.837 215.516C189.285 215.087 189.75 214.64 190.216 214.234C190.378 214.092 190.528 213.937 190.673 213.769L190.91 213.464C192.166 211.739 192.693 208.943 192.987 206.864C193.264 204.926 193.115 202.913 192.952 201.179C192.653 197.977 191.639 195.654 189.843 194.071C189.008 193.336 188.073 192.739 187.186 192.195L186.799 191.961C185.894 191.408 184.963 190.837 184.116 190.16C184.019 190.085 183.979 189.965 184.01 189.85C184.151 189.302 186.522 188.532 186.544 188.528C186.97 188.461 187.432 188.426 187.95 188.426C188.538 188.426 189.127 188.47 189.68 188.51C191.028 188.616 191.898 189.231 192.825 189.886C193.15 190.116 193.484 190.35 193.848 190.572L193.883 190.532C193.993 190.39 194.072 190.218 194.16 190.036C194.278 189.784 194.401 189.523 194.617 189.311C195.126 188.811 195.75 188.674 196.242 188.612C196.422 188.59 196.584 188.576 196.747 188.576C197.651 188.576 198.214 188.948 198.921 189.426C199.03 189.497 199.14 189.572 199.259 189.651C199.553 189.842 199.803 189.939 200.005 189.939C200.344 189.939 200.546 189.682 200.857 189.262C201.187 188.815 201.556 188.311 202.263 188.227C202.992 188.143 203.567 188.515 204.068 188.842C204.45 189.09 204.815 189.328 205.183 189.328C205.478 189.328 205.781 189.178 206.106 188.864C206.505 188.479 206.839 188.187 207.243 188.187C207.529 188.187 207.814 188.333 208.139 188.647L208.214 188.718C208.917 189.395 209.11 189.585 209.993 189.112C210.665 188.753 211.521 188.528 212.232 188.528C213.445 188.528 214.196 189.16 214.24 190.253L214.13 190.284L213.936 190.346C213.849 190.381 213.8 190.39 213.721 190.426C212.781 190.713 209.94 192.31 209.654 192.531C208.701 193.261 207.805 194.199 207.133 195.172C204.529 198.932 204.577 204.289 205.412 207.735C205.851 209.549 206.44 211.663 207.498 213.632C207.968 214.508 208.517 215.322 209.123 216.052L209.184 216.127C210.638 217.883 210.959 217.954 211.051 218.047C211.108 218.104 211.148 218.144 211.156 218.197C211.17 218.312 211.042 218.401 210.946 218.454C210.818 218.52 210.682 218.564 210.542 218.595C210.405 218.626 210.318 218.639 210.138 218.67C209.988 218.697 209.834 218.71 209.681 218.724C209.022 218.772 208.372 218.799 207.713 218.732C207.305 218.688 206.896 218.639 206.492 218.564C206.005 218.476 204.973 218.259 204.397 217.914L204.02 218.126C203.427 218.533 202.338 218.985 202.197 219.033C201.626 219.215 201.024 219.316 200.423 219.316ZM195.895 216.742C196.264 217.065 197.076 217.759 197.168 217.821C197.867 218.277 198.495 218.573 199.145 218.746C200.08 218.998 201.112 218.962 202.087 218.639C202.215 218.6 203.339 218.126 203.853 217.75L203.739 217.52C203.313 216.658 202.724 215.477 202.425 214.605C202.36 214.419 202.298 214.242 202.237 214.079C201.903 213.154 201.644 212.42 201.644 211.128V210.027L204.235 216.985C204.296 217.109 204.353 217.25 204.402 217.392H204.406C204.613 217.688 205.671 217.998 206.567 218.162C208.082 218.436 209.461 218.44 210.546 218.162C210.221 217.901 209.72 217.383 208.881 216.375L208.82 216.304C208.196 215.556 207.634 214.72 207.147 213.818C206.066 211.814 205.469 209.664 205.025 207.828C204.173 204.302 204.129 198.813 206.808 194.942C207.507 193.933 208.433 192.965 209.413 192.208C209.659 192.018 212.869 190.235 213.792 190.023C213.642 189.121 212.874 188.921 212.228 188.921C211.578 188.921 210.792 189.125 210.173 189.457C209.053 190.054 208.675 189.713 207.933 189.001L207.858 188.93C207.612 188.696 207.41 188.581 207.234 188.581C206.98 188.581 206.703 188.824 206.374 189.147C205.974 189.532 205.583 189.722 205.179 189.722C204.692 189.722 204.261 189.443 203.848 189.174C203.378 188.868 202.895 188.55 202.302 188.621C201.767 188.683 201.477 189.076 201.169 189.497C200.866 189.908 200.554 190.337 200.001 190.337C199.72 190.337 199.404 190.222 199.039 189.988C198.921 189.908 198.806 189.833 198.697 189.762C197.99 189.293 197.524 188.979 196.738 188.979C196.597 188.979 196.444 188.988 196.286 189.01C195.64 189.094 195.223 189.271 194.889 189.598C194.726 189.762 194.621 189.979 194.511 190.209C194.441 190.359 194.366 190.514 194.27 190.66C195.157 192.08 195.653 193.783 195.811 194.831C196.084 196.645 195.636 197.636 195.21 198.596L194.885 199.321L193.778 190.992C193.347 190.744 192.961 190.47 192.588 190.209C191.709 189.589 190.879 189.006 189.641 188.908C189.092 188.864 188.512 188.824 187.941 188.824C187.445 188.824 187.005 188.855 186.597 188.921C186.355 188.975 184.744 189.598 184.427 189.904C185.236 190.541 186.132 191.089 186.997 191.615L187.383 191.85C188.284 192.403 189.237 193.009 190.093 193.765C191.968 195.415 193.027 197.826 193.334 201.135C193.497 202.891 193.646 204.935 193.365 206.912C193.106 208.748 192.711 210.863 191.902 212.535L193.923 210.69C194.125 210.504 194.397 210.292 194.617 210.115L195.706 209.248L194.265 211.416C193.94 211.712 193.694 211.947 193.435 212.318C193.172 212.699 192.741 213.021 192.429 213.26C192.096 213.512 191.727 213.645 191.213 213.703C190.989 214.008 190.739 214.282 190.466 214.521C190.005 214.924 189.544 215.366 189.1 215.791C188.508 216.357 187.901 216.941 187.265 217.458C187.471 217.534 187.757 217.653 188.169 217.821C188.446 217.936 188.71 218.047 188.793 218.069C189.856 218.387 190.774 218.529 191.639 218.498C192.588 218.463 193.325 217.954 194.112 217.41C194.546 217.109 194.994 216.799 195.486 216.574L197.695 208.129V209.668C197.695 211.19 197.594 211.849 197.449 212.619C197.362 213.092 197.124 213.698 196.914 214.238C196.799 214.525 196.694 214.8 196.624 215.025C196.496 215.419 196.369 215.689 196.202 216.034C196.123 216.242 196.018 216.463 195.895 216.742ZM202.215 212.685C202.316 213.11 202.456 213.499 202.619 213.95C202.68 214.119 202.742 214.295 202.807 214.481C202.966 214.946 203.212 215.503 203.471 216.056L202.215 212.685ZM197.23 211.522L196.549 214.123C196.553 214.114 196.553 214.105 196.558 214.101C196.76 213.579 196.993 212.986 197.072 212.553C197.133 212.221 197.19 211.902 197.23 211.522ZM193.453 211.677L191.819 213.167C191.96 213.11 192.083 213.039 192.201 212.951C192.491 212.729 192.891 212.429 193.119 212.101C193.229 211.938 193.339 211.801 193.453 211.677ZM194.256 191.408L195.1 197.862C195.412 197.092 195.631 196.247 195.429 194.885C195.297 194.004 194.92 192.646 194.256 191.408ZM204.854 214.91C204.692 214.543 204.608 214.172 204.529 213.813L204.468 213.539L204.331 213.066C204.323 213.026 204.309 212.99 204.296 212.951C204.182 212.641 204.033 212.371 203.888 212.106C203.721 211.801 203.55 211.482 203.422 211.102C202.939 209.642 202.614 208.377 202.614 206.952V205.519L204.731 213.035C204.775 213.167 204.815 213.309 204.845 213.446L205.219 214.769L204.854 214.91ZM200.115 201.856L201.231 199.383C201.341 198.968 201.415 198.459 201.494 197.968C201.578 197.424 201.657 196.911 201.784 196.579C202.153 195.614 202.957 195.026 203.73 194.46C204.121 194.177 204.485 193.907 204.801 193.593L205.812 192.589L201.903 199.543C201.749 200.069 201.042 201.471 200.576 201.666L200.115 201.856ZM204.235 194.584C204.143 194.65 204.05 194.721 203.958 194.787C203.194 195.345 202.474 195.871 202.149 196.725C202.039 197.012 201.964 197.508 201.881 198.03C201.828 198.384 201.771 198.742 201.701 199.087L204.235 194.584ZM205.53 193.557L205.816 192.637C206.04 191.912 206.707 190.213 208.012 190.138L208.477 190.111L205.53 193.557ZM207.371 190.797C207.133 190.974 206.909 191.235 206.707 191.571L207.371 190.797Z" fill="#212121"/>
  <path d="M187.027 218.533C188.977 222.112 194.476 222.904 198.086 222.992C199.465 223.028 200.857 222.939 202.223 222.762C202.952 222.665 203.642 222.457 204.393 222.245C205.68 221.878 206.967 221.475 208.183 220.909C209.268 220.4 210.805 219.878 211.13 218.485C210.546 219.453 205.833 218.9 205.122 218.555C204.678 218.339 204.722 218.263 204.358 218.617C203.229 219.719 201.24 220.073 199.764 219.798C198.574 219.577 196.966 218.644 196.009 217.896C195.64 217.604 195.816 217.458 195.302 217.702C194.151 218.241 193.334 218.967 192.012 219.184C190.633 219.409 189.351 219.161 187.814 218.476C187.431 218.308 187.278 218.286 186.843 217.994L187.027 218.533Z" fill="#212121"/>
  <path d="M184.168 189.342C186.483 186.179 190.295 185.042 193.883 184.042C195.71 183.534 197.23 183.219 199.158 183.219C200.84 183.219 202.478 183.618 204.116 183.949C205.763 184.281 207.45 184.542 208.908 185.436C209.848 186.011 210.954 186.316 211.894 186.904C212.21 187.103 213.322 187.369 213.181 187.851C212.979 188.537 211.337 187.891 210.818 188.156C210.256 188.444 209.514 188.979 208.873 188.793C208.258 188.616 208.082 187.886 207.393 187.816C206.339 187.709 206.128 188.837 205.074 188.758C204.274 188.696 203.356 187.692 202.548 187.745C201.784 187.793 200.954 188.621 200.388 189.041C199.347 189.819 198.899 188.736 198.007 188.377C197.476 188.165 197.269 188.103 196.685 188.103C195.223 188.103 194.331 188.758 193.501 189.926C193.782 189.528 191.929 188.647 191.744 188.594C190.967 188.377 190.159 188.05 189.355 188.037C187.326 188.001 185.894 188.059 184.168 189.342Z" fill="#212121"/>
  <path d="M199.294 172.359C198.894 171.824 198.402 172.036 197.774 172.067C197.436 173.014 197.748 173.819 197.919 174.62C198.108 175.505 198.271 176.411 198.429 177.243C198.6 178.123 198.666 179.044 198.714 180.012C198.736 180.486 198.758 181.021 198.657 181.472C198.565 181.879 198.288 182.153 198.214 182.551C199.008 182.529 199.865 182.547 200.677 182.503C200.682 182.1 200.418 181.702 200.322 181.322C200.212 180.884 200.282 180.464 200.234 180.012C200.155 179.26 199.97 178.522 199.887 177.721C199.698 175.951 199.404 174.173 199.294 172.359Z" fill="#212121"/>
  <path d="M213.392 175.659C211.214 175.695 208.829 175.801 206.813 176.942C205.869 177.473 205.197 178.141 204.314 178.796C203.87 179.128 203.418 179.42 202.9 179.681C202.377 179.942 201.758 179.986 201.275 180.278L201.529 180.866C202.184 180.68 202.324 180.57 202.996 180.53C203.66 180.49 204.292 180.379 205.017 180.45C205.697 180.517 206.488 180.503 207.138 180.68C207.898 180.888 208.864 180.888 209.641 180.95C211.192 181.07 213.093 180.729 214.644 180.402C215.759 180.163 217.248 179.681 218.104 178.836C218.465 178.477 218.653 178.128 219.084 177.725C219.492 177.34 220.125 176.571 220.428 176.124C220.726 175.682 220.999 175.412 221.28 174.934C221.526 174.518 221.991 173.647 222 173.12C219.892 175.509 216.269 175.611 213.392 175.659Z" fill="#212121"/>
  <path d="M336 190.154H342.408C344.887 190.171 346.746 191.222 347.986 193.308C348.43 194.008 348.71 194.744 348.828 195.513C348.92 196.282 348.966 197.611 348.966 199.5C348.966 201.509 348.895 202.91 348.752 203.705C348.685 204.107 348.585 204.466 348.451 204.782C348.308 205.09 348.137 205.41 347.936 205.744C347.4 206.624 346.654 207.35 345.699 207.923C344.753 208.538 343.593 208.846 342.219 208.846H336V190.154ZM338.777 206.167H342.094C343.651 206.167 344.782 205.624 345.486 204.539C345.796 204.137 345.993 203.628 346.076 203.013C346.152 202.406 346.189 201.269 346.189 199.603C346.189 197.979 346.152 196.816 346.076 196.115C345.976 195.415 345.737 194.846 345.36 194.41C344.589 193.325 343.501 192.799 342.094 192.833H338.777V206.167Z" fill="white"/>
  <path d="M350.15 199.5C350.15 197.329 350.212 195.876 350.338 195.141C350.472 194.406 350.677 193.812 350.954 193.359C351.398 192.496 352.11 191.727 353.09 191.051C354.053 190.368 355.255 190.017 356.695 190C358.153 190.017 359.367 190.368 360.339 191.051C361.302 191.727 361.997 192.496 362.425 193.359C362.735 193.812 362.948 194.406 363.065 195.141C363.174 195.876 363.229 197.329 363.229 199.5C363.229 201.637 363.174 203.081 363.065 203.833C362.948 204.585 362.735 205.188 362.425 205.641C361.997 206.504 361.302 207.265 360.339 207.923C359.367 208.607 358.153 208.966 356.695 209C355.255 208.966 354.053 208.607 353.09 207.923C352.11 207.265 351.398 206.504 350.954 205.641C350.82 205.359 350.698 205.09 350.589 204.833C350.489 204.568 350.405 204.235 350.338 203.833C350.212 203.081 350.15 201.637 350.15 199.5ZM352.939 199.5C352.939 201.338 353.006 202.581 353.14 203.231C353.257 203.88 353.496 204.406 353.856 204.808C354.149 205.192 354.535 205.504 355.012 205.744C355.481 206.026 356.042 206.167 356.695 206.167C357.357 206.167 357.931 206.026 358.417 205.744C358.877 205.504 359.246 205.192 359.522 204.808C359.883 204.406 360.13 203.88 360.264 203.231C360.389 202.581 360.452 201.338 360.452 199.5C360.452 197.662 360.389 196.41 360.264 195.744C360.13 195.111 359.883 194.594 359.522 194.192C359.246 193.808 358.877 193.487 358.417 193.231C357.931 192.983 357.357 192.85 356.695 192.833C356.042 192.85 355.481 192.983 355.012 193.231C354.535 193.487 354.149 193.808 353.856 194.192C353.496 194.594 353.257 195.111 353.14 195.744C353.006 196.41 352.939 197.662 352.939 199.5Z" fill="white"/>
  <path d="M373.17 202.154L370.519 193.987H370.468L367.817 202.154H373.17ZM373.961 204.667H367.013L365.606 208.846H362.666L369.325 190.154H371.649L378.308 208.846H375.381L373.961 204.667Z" fill="white"/>
  <path d="M380.607 204.91C380.867 205.261 381.202 205.547 381.612 205.769C382.023 206.034 382.504 206.167 383.057 206.167C383.794 206.184 384.498 205.923 385.168 205.385C385.495 205.12 385.75 204.769 385.934 204.333C386.127 203.914 386.223 203.389 386.223 202.756V190.154H389V203.038C388.967 204.919 388.363 206.372 387.191 207.397C386.027 208.449 384.674 208.983 383.133 209C381.005 208.949 379.418 208.137 378.371 206.564L380.607 204.91Z" fill="white"/>
</svg>
