<svg xmlns="http://www.w3.org/2000/svg" width="400" height="400" viewBox="0 0 400 400" fill="none">
<path d="M45.1569 101.565C29.6961 122.349 19.7549 152.888 27.2941 178.467C40.1765 222.182 94.8431 225.476 132.284 230.535C158.088 234.025 183.745 254.31 205.814 266.898C235.225 283.682 282.539 310.163 316.461 292.967C344.578 278.721 359.696 244.261 368.324 215.672C381.843 170.908 383.147 116.908 353.716 77.9077C313.657 24.9665 243.578 33.7901 185.353 42.8489C146.382 48.9175 108.5 54.8293 73.8529 75.4861C62.6667 82.2086 52.9154 91.0704 45.1569 101.565Z" fill="#B75400"/>
<path opacity="0.4" d="M45.1569 101.565C29.6961 122.349 19.7549 152.888 27.2941 178.467C40.1765 222.182 94.8431 225.476 132.284 230.535C158.088 234.025 183.745 254.31 205.814 266.898C235.225 283.682 282.539 310.163 316.461 292.967C344.578 278.721 359.696 244.261 368.324 215.672C381.843 170.908 383.147 116.908 353.716 77.9077C313.657 24.9665 243.578 33.7901 185.353 42.8489C146.382 48.9175 108.5 54.8293 73.8529 75.4861C62.6667 82.2086 52.9154 91.0704 45.1569 101.565Z" fill="white"/>
<path d="M0 351.329C0 354.819 89.5196 357.653 200 357.653C310.48 357.653 400 354.819 400 351.329C400 347.839 310.48 345.006 200.049 345.006C89.6177 345.006 0 347.839 0 351.329Z" fill="#BDBDBD"/>
<path opacity="0.6" d="M0 351.329C0 354.819 89.5196 357.653 200 357.653C310.48 357.653 400 354.819 400 351.329C400 347.839 310.48 345.006 200.049 345.006C89.6177 345.006 0 347.839 0 351.329Z" fill="white"/>
<path d="M222.569 38.1038H44.9706V263.378H222.569V38.1038Z" fill="white" stroke="#212121" stroke-width="0.75" stroke-linecap="round" stroke-linejoin="round"/>
<path d="M222.569 38.1038H44.9706V51.545H222.569V38.1038Z" fill="#B75400" stroke="#212121" stroke-width="0.75" stroke-linecap="round" stroke-linejoin="round"/>
<path d="M80.049 195.221H50.0294V258.937H80.049V195.221Z" fill="#BDBDBD"/>
<path opacity="0.6" d="M80.049 195.221H50.0294V258.937H80.049V195.221Z" fill="white"/>
<path d="M112.784 195.221H82.7647V258.937H112.784V195.221Z" fill="#BDBDBD"/>
<path opacity="0.6" d="M112.784 195.221H82.7647V258.937H112.784V195.221Z" fill="white"/>
<path d="M147.569 195.221H117.549V258.937H147.569V195.221Z" fill="#BDBDBD"/>
<path opacity="0.6" d="M147.569 195.221H117.549V258.937H147.569V195.221Z" fill="white"/>
<path d="M182.343 195.221H152.323V258.937H182.343V195.221Z" fill="#BDBDBD"/>
<path opacity="0.6" d="M182.343 195.221H152.323V258.937H182.343V195.221Z" fill="white"/>
<path d="M217.971 195.221H187.951V258.937H217.971V195.221Z" fill="white" stroke="#212121" stroke-width="0.75" stroke-linecap="round" stroke-linejoin="round"/>
<path d="M217.49 43.4175H50.0392V58.8587H217.49V43.4175Z" fill="#BDBDBD"/>
<path opacity="0.6" d="M217.49 43.4175H50.0392V58.8587H217.49V43.4175Z" fill="white"/>
<path d="M215.137 46.4175H53.049V53.2509H215.137V46.4175Z" fill="white"/>
<path d="M215.127 46.4175H196.775V53.2509H215.127V46.4175Z" fill="#B75400" stroke="#212121" stroke-width="0.75" stroke-linecap="round" stroke-linejoin="round"/>
<path d="M124.569 72.7019H90.2549C89.9038 72.7019 89.5672 72.5624 89.319 72.3142C89.0708 72.066 88.9313 71.7294 88.9313 71.3783C88.9313 71.0273 89.0708 70.6907 89.319 70.4425C89.5672 70.1943 89.9038 70.0548 90.2549 70.0548H124.569C124.92 70.0548 125.256 70.1943 125.504 70.4425C125.753 70.6907 125.892 71.0273 125.892 71.3783C125.892 71.7294 125.753 72.066 125.504 72.3142C125.256 72.5624 124.92 72.7019 124.569 72.7019Z" fill="#212121"/>
<path d="M124.569 81.9273H90.2549C90.0721 81.9431 89.8881 81.9207 89.7145 81.8616C89.5409 81.8025 89.3815 81.7079 89.2463 81.584C89.1112 81.46 89.0033 81.3093 88.9295 81.1414C88.8556 80.9735 88.8175 80.7921 88.8175 80.6087C88.8175 80.4253 88.8556 80.2439 88.9295 80.076C89.0033 79.9081 89.1112 79.7574 89.2463 79.6334C89.3815 79.5094 89.5409 79.4149 89.7145 79.3558C89.8881 79.2967 90.0721 79.2743 90.2549 79.2901H124.569C124.899 79.3185 125.206 79.4698 125.43 79.714C125.654 79.9581 125.778 80.2774 125.778 80.6087C125.778 80.94 125.654 81.2593 125.43 81.5034C125.206 81.7476 124.899 81.8988 124.569 81.9273Z" fill="#212121"/>
<path d="M124.569 91.1627H90.2549C89.9038 91.1627 89.5672 91.0232 89.319 90.775C89.0708 90.5268 88.9313 90.1902 88.9313 89.8391C88.9313 89.4881 89.0708 89.1515 89.319 88.9033C89.5672 88.6551 89.9038 88.5156 90.2549 88.5156H124.569C124.92 88.5156 125.256 88.6551 125.504 88.9033C125.753 89.1515 125.892 89.4881 125.892 89.8391C125.892 90.1902 125.753 90.5268 125.504 90.775C125.256 91.0232 124.92 91.1627 124.569 91.1627Z" fill="#212121"/>
<path d="M124.569 100.388H53.353C53.0229 100.36 52.7155 100.208 52.4915 99.9642C52.2675 99.7201 52.1432 99.4008 52.1432 99.0695C52.1432 98.7382 52.2675 98.4189 52.4915 98.1747C52.7155 97.9306 53.0229 97.7793 53.353 97.7509H124.569C124.899 97.7793 125.206 97.9306 125.43 98.1747C125.654 98.4189 125.778 98.7382 125.778 99.0695C125.778 99.4008 125.654 99.7201 125.43 99.9642C125.206 100.208 124.899 100.36 124.569 100.388Z" fill="#212121"/>
<path d="M124.569 109.623H53.353C53.0019 109.623 52.6653 109.484 52.4171 109.236C52.1689 108.988 52.0294 108.651 52.0294 108.3C52.0294 107.949 52.1689 107.612 52.4171 107.364C52.6653 107.116 53.0019 106.976 53.353 106.976H124.569C124.92 106.976 125.256 107.116 125.505 107.364C125.753 107.612 125.892 107.949 125.892 108.3C125.892 108.651 125.753 108.988 125.505 109.236C125.256 109.484 124.92 109.623 124.569 109.623Z" fill="#212121"/>
<path d="M124.569 118.859H53.353C53.0019 118.859 52.6653 118.719 52.4171 118.471C52.1689 118.223 52.0294 117.886 52.0294 117.535C52.0294 117.184 52.1689 116.848 52.4171 116.599C52.6653 116.351 53.0019 116.212 53.353 116.212H124.569C124.92 116.212 125.256 116.351 125.505 116.599C125.753 116.848 125.892 117.184 125.892 117.535C125.892 117.886 125.753 118.223 125.505 118.471C125.256 118.719 124.92 118.859 124.569 118.859Z" fill="#212121"/>
<path d="M124.569 128.084H53.353C53.0229 128.056 52.7155 127.904 52.4915 127.66C52.2675 127.416 52.1432 127.097 52.1432 126.766C52.1432 126.434 52.2675 126.115 52.4915 125.871C52.7155 125.627 53.0229 125.475 53.353 125.447H124.569C124.899 125.475 125.206 125.627 125.43 125.871C125.654 126.115 125.778 126.434 125.778 126.766C125.778 127.097 125.654 127.416 125.43 127.66C125.206 127.904 124.899 128.056 124.569 128.084Z" fill="#212121"/>
<path d="M124.569 136.29H53.353C53.0229 136.262 52.7155 136.11 52.4915 135.866C52.2675 135.622 52.1432 135.303 52.1432 134.971C52.1432 134.64 52.2675 134.321 52.4915 134.077C52.7155 133.833 53.0229 133.681 53.353 133.653H124.569C124.899 133.681 125.206 133.833 125.43 134.077C125.654 134.321 125.778 134.64 125.778 134.971C125.778 135.303 125.654 135.622 125.43 135.866C125.206 136.11 124.899 136.262 124.569 136.29Z" fill="#212121"/>
<path d="M124.569 145.555H53.353C53.0019 145.555 52.6653 145.415 52.4171 145.167C52.1689 144.919 52.0294 144.582 52.0294 144.231C52.0294 143.88 52.1689 143.544 52.4171 143.295C52.6653 143.047 53.0019 142.908 53.353 142.908H124.569C124.92 142.908 125.256 143.047 125.505 143.295C125.753 143.544 125.892 143.88 125.892 144.231C125.892 144.582 125.753 144.919 125.505 145.167C125.256 145.415 124.92 145.555 124.569 145.555Z" fill="#212121"/>
<path d="M124.569 154.751H53.353C53.0229 154.722 52.7155 154.571 52.4915 154.327C52.2675 154.083 52.1432 153.764 52.1432 153.432C52.1432 153.101 52.2675 152.782 52.4915 152.537C52.7155 152.293 53.0229 152.142 53.353 152.114H124.569C124.899 152.142 125.206 152.293 125.43 152.537C125.654 152.782 125.778 153.101 125.778 153.432C125.778 153.764 125.654 154.083 125.43 154.327C125.206 154.571 124.899 154.722 124.569 154.751Z" fill="#212121"/>
<path d="M124.569 163.986H53.353C53.0019 163.986 52.6653 163.847 52.4171 163.599C52.1689 163.35 52.0294 163.014 52.0294 162.663C52.0294 162.312 52.1689 161.975 52.4171 161.727C52.6653 161.479 53.0019 161.339 53.353 161.339H124.569C124.92 161.339 125.256 161.479 125.505 161.727C125.753 161.975 125.892 162.312 125.892 162.663C125.892 163.014 125.753 163.35 125.505 163.599C125.256 163.847 124.92 163.986 124.569 163.986Z" fill="#212121"/>
<path d="M124.569 173.212H53.353C53.0229 173.183 52.7155 173.032 52.4915 172.788C52.2675 172.544 52.1432 172.224 52.1432 171.893C52.1432 171.562 52.2675 171.242 52.4915 170.998C52.7155 170.754 53.0229 170.603 53.353 170.574H124.569C124.899 170.603 125.206 170.754 125.43 170.998C125.654 171.242 125.778 171.562 125.778 171.893C125.778 172.224 125.654 172.544 125.43 172.788C125.206 173.032 124.899 173.183 124.569 173.212Z" fill="#212121"/>
<path d="M124.569 182.447H53.353C53.0229 182.418 52.7155 182.267 52.4915 182.023C52.2675 181.779 52.1432 181.46 52.1432 181.128C52.1432 180.797 52.2675 180.478 52.4915 180.234C52.7155 179.989 53.0229 179.838 53.353 179.81H124.569C124.899 179.838 125.206 179.989 125.43 180.234C125.654 180.478 125.778 180.797 125.778 181.128C125.778 181.46 125.654 181.779 125.43 182.023C125.206 182.267 124.899 182.418 124.569 182.447Z" fill="#212121"/>
<path d="M216.235 72.7019H145.049C144.698 72.7019 144.361 72.5624 144.113 72.3142C143.865 72.066 143.725 71.7294 143.725 71.3783C143.725 71.0273 143.865 70.6907 144.113 70.4425C144.361 70.1943 144.698 70.0548 145.049 70.0548H216.235C216.586 70.0548 216.923 70.1943 217.171 70.4425C217.419 70.6907 217.559 71.0273 217.559 71.3783C217.559 71.7294 217.419 72.066 217.171 72.3142C216.923 72.5624 216.586 72.7019 216.235 72.7019Z" fill="#212121"/>
<path d="M216.235 81.9273H145.049C144.866 81.9431 144.682 81.9207 144.509 81.8616C144.335 81.8025 144.176 81.7079 144.04 81.584C143.905 81.46 143.797 81.3093 143.724 81.1414C143.65 80.9735 143.612 80.7921 143.612 80.6087C143.612 80.4253 143.65 80.2439 143.724 80.076C143.797 79.9081 143.905 79.7574 144.04 79.6334C144.176 79.5094 144.335 79.4149 144.509 79.3558C144.682 79.2967 144.866 79.2743 145.049 79.2901H216.235C216.418 79.2743 216.602 79.2967 216.776 79.3558C216.949 79.4149 217.109 79.5094 217.244 79.6334C217.379 79.7574 217.487 79.9081 217.561 80.076C217.634 80.2439 217.673 80.4253 217.673 80.6087C217.673 80.7921 217.634 80.9735 217.561 81.1414C217.487 81.3093 217.379 81.46 217.244 81.584C217.109 81.7079 216.949 81.8025 216.776 81.8616C216.602 81.9207 216.418 81.9431 216.235 81.9273Z" fill="#212121"/>
<path d="M216.235 91.1627H145.049C144.698 91.1627 144.361 91.0232 144.113 90.775C143.865 90.5268 143.725 90.1902 143.725 89.8391C143.725 89.4881 143.865 89.1515 144.113 88.9033C144.361 88.6551 144.698 88.5156 145.049 88.5156H216.235C216.586 88.5156 216.923 88.6551 217.171 88.9033C217.419 89.1515 217.559 89.4881 217.559 89.8391C217.559 90.1902 217.419 90.5268 217.171 90.775C216.923 91.0232 216.586 91.1627 216.235 91.1627Z" fill="#212121"/>
<path d="M216.235 100.388H145.049C144.866 100.404 144.682 100.382 144.509 100.322C144.335 100.263 144.176 100.169 144.04 100.045C143.905 99.9208 143.797 99.7701 143.724 99.6022C143.65 99.4343 143.612 99.2529 143.612 99.0695C143.612 98.8861 143.65 98.7047 143.724 98.5368C143.797 98.3689 143.905 98.2182 144.04 98.0942C144.176 97.9702 144.335 97.8757 144.509 97.8166C144.682 97.7575 144.866 97.7351 145.049 97.7509H216.235C216.418 97.7351 216.602 97.7575 216.776 97.8166C216.949 97.8757 217.109 97.9702 217.244 98.0942C217.379 98.2182 217.487 98.3689 217.561 98.5368C217.634 98.7047 217.673 98.8861 217.673 99.0695C217.673 99.2529 217.634 99.4343 217.561 99.6022C217.487 99.7701 217.379 99.9208 217.244 100.045C217.109 100.169 216.949 100.263 216.776 100.322C216.602 100.382 216.418 100.404 216.235 100.388Z" fill="#212121"/>
<path d="M216.235 109.623H145.049C144.698 109.623 144.361 109.484 144.113 109.236C143.865 108.988 143.725 108.651 143.725 108.3C143.725 107.949 143.865 107.612 144.113 107.364C144.361 107.116 144.698 106.976 145.049 106.976H216.235C216.586 106.976 216.923 107.116 217.171 107.364C217.419 107.612 217.559 107.949 217.559 108.3C217.559 108.651 217.419 108.988 217.171 109.236C216.923 109.484 216.586 109.623 216.235 109.623Z" fill="#212121"/>
<path d="M216.235 118.859H145.049C144.875 118.859 144.703 118.824 144.542 118.758C144.382 118.691 144.236 118.594 144.113 118.471C143.99 118.348 143.893 118.202 143.826 118.042C143.76 117.881 143.725 117.709 143.725 117.535C143.725 117.361 143.76 117.189 143.826 117.029C143.893 116.868 143.99 116.722 144.113 116.599C144.236 116.476 144.382 116.379 144.542 116.312C144.703 116.246 144.875 116.212 145.049 116.212H216.235C216.409 116.212 216.581 116.246 216.742 116.312C216.902 116.379 217.048 116.476 217.171 116.599C217.294 116.722 217.392 116.868 217.458 117.029C217.525 117.189 217.559 117.361 217.559 117.535C217.559 117.709 217.525 117.881 217.458 118.042C217.392 118.202 217.294 118.348 217.171 118.471C217.048 118.594 216.902 118.691 216.742 118.758C216.581 118.824 216.409 118.859 216.235 118.859Z" fill="#212121"/>
<path d="M216.235 128.084H145.049C144.866 128.1 144.682 128.078 144.509 128.018C144.335 127.959 144.176 127.865 144.04 127.741C143.905 127.617 143.797 127.466 143.724 127.298C143.65 127.13 143.612 126.949 143.612 126.766C143.612 126.582 143.65 126.401 143.724 126.233C143.797 126.065 143.905 125.914 144.04 125.79C144.176 125.666 144.335 125.572 144.509 125.513C144.682 125.454 144.866 125.431 145.049 125.447H216.235C216.418 125.431 216.602 125.454 216.776 125.513C216.949 125.572 217.109 125.666 217.244 125.79C217.379 125.914 217.487 126.065 217.561 126.233C217.634 126.401 217.673 126.582 217.673 126.766C217.673 126.949 217.634 127.13 217.561 127.298C217.487 127.466 217.379 127.617 217.244 127.741C217.109 127.865 216.949 127.959 216.776 128.018C216.602 128.078 216.418 128.1 216.235 128.084Z" fill="#212121"/>
<path d="M217.52 134.29H144.971V184.888H217.52V134.29Z" fill="#BDBDBD"/>
<path opacity="0.6" d="M217.52 134.29H144.971V184.888H217.52V134.29Z" fill="white"/>
<path d="M78.1765 75.3195C78.3776 74.7053 78.4834 74.0638 78.4902 73.4175C78.4902 71.0548 76.098 70.9175 73.7353 70.9175H73.1471V70.3587H83.3922V70.9175C80.7255 70.9175 79.7843 72.6136 78.9216 75.1528L73.4706 91.4862C73.0588 92.692 72.7157 93.594 71.4314 93.594H71.3235L66.5098 77.996L62 91.4862C61.5784 92.692 61.2353 93.594 59.951 93.594H59.8628L52.8627 70.9175H50.402V70.3587H59.4118V70.9175H56.8529L62.049 88.8097H62.2549L66.1765 76.8783L64.3431 70.9175H61.8824V70.3587H70.8922V70.9175H68.3235L73.5294 88.8097H73.7353L78.1765 75.3195Z" fill="#212121"/>
<path d="M242.873 64.5744H168.931V262.918H242.873V64.5744Z" fill="#B75400"/>
<path opacity="0.4" d="M242.873 64.5744H168.931V262.918H242.873V64.5744Z" fill="white"/>
<path d="M352.059 57.1528H174.461V282.427H352.059V57.1528Z" fill="white" stroke="#212121" stroke-width="0.75" stroke-linecap="round" stroke-linejoin="round"/>
<path d="M352.059 57.1528H174.461V70.594H352.059V57.1528Z" fill="#B75400" stroke="#212121" stroke-width="0.75" stroke-linecap="round" stroke-linejoin="round"/>
<path d="M296.647 89.0548H234.284V205.633H296.647V89.0548Z" fill="#B75400"/>
<path opacity="0.6" d="M296.647 89.0548H234.284V205.633H296.647V89.0548Z" fill="white"/>
<path d="M346.99 214.261H179.539V277.976H346.99V214.261Z" fill="#BDBDBD"/>
<path opacity="0.6" d="M346.99 214.261H179.539V277.976H346.99V214.261Z" fill="white"/>
<path d="M346.99 62.4666H179.539V77.9077H346.99V62.4666Z" fill="#BDBDBD"/>
<path opacity="0.6" d="M346.99 62.4666H179.539V77.9077H346.99V62.4666Z" fill="white"/>
<path d="M344.637 65.4666H182.549V72.2999H344.637V65.4666Z" fill="white"/>
<path d="M344.627 65.4666H326.275V72.2999H344.627V65.4666Z" fill="#B75400" stroke="#212121" stroke-width="0.75" stroke-linecap="round" stroke-linejoin="round"/>
<path d="M223.804 91.7411H181.069C180.886 91.7569 180.702 91.7345 180.528 91.6754C180.355 91.6163 180.195 91.5217 180.06 91.3978C179.925 91.2738 179.817 91.1231 179.743 90.9552C179.669 90.7873 179.631 90.6059 179.631 90.4225C179.631 90.2391 179.669 90.0577 179.743 89.8898C179.817 89.7219 179.925 89.5712 180.06 89.4472C180.195 89.3232 180.355 89.2287 180.528 89.1696C180.702 89.1105 180.886 89.0881 181.069 89.1038H223.804C223.987 89.0881 224.171 89.1105 224.344 89.1696C224.518 89.2287 224.677 89.3232 224.812 89.4472C224.948 89.5712 225.056 89.7219 225.129 89.8898C225.203 90.0577 225.241 90.2391 225.241 90.4225C225.241 90.6059 225.203 90.7873 225.129 90.9552C225.056 91.1231 224.948 91.2738 224.812 91.3978C224.677 91.5217 224.518 91.6163 224.344 91.6754C224.171 91.7345 223.987 91.7569 223.804 91.7411Z" fill="#212121"/>
<path d="M223.804 100.976H181.069C180.718 100.976 180.381 100.837 180.133 100.589C179.885 100.34 179.745 100.004 179.745 99.6528C179.745 99.3018 179.885 98.9651 180.133 98.7169C180.381 98.4687 180.718 98.3293 181.069 98.3293H223.804C224.155 98.3293 224.492 98.4687 224.74 98.7169C224.988 98.9651 225.127 99.3018 225.127 99.6528C225.127 100.004 224.988 100.34 224.74 100.589C224.492 100.837 224.155 100.976 223.804 100.976Z" fill="#212121"/>
<path d="M223.804 110.202H181.069C180.886 110.218 180.702 110.195 180.528 110.136C180.355 110.077 180.195 109.982 180.06 109.859C179.925 109.735 179.817 109.584 179.743 109.416C179.669 109.248 179.631 109.067 179.631 108.883C179.631 108.7 179.669 108.518 179.743 108.351C179.817 108.183 179.925 108.032 180.06 107.908C180.195 107.784 180.355 107.689 180.528 107.63C180.702 107.571 180.886 107.549 181.069 107.565H223.804C223.987 107.549 224.171 107.571 224.344 107.63C224.518 107.689 224.677 107.784 224.812 107.908C224.948 108.032 225.056 108.183 225.129 108.351C225.203 108.518 225.241 108.7 225.241 108.883C225.241 109.067 225.203 109.248 225.129 109.416C225.056 109.584 224.948 109.735 224.812 109.859C224.677 109.982 224.518 110.077 224.344 110.136C224.171 110.195 223.987 110.218 223.804 110.202Z" fill="#212121"/>
<path d="M223.804 119.437H181.069C180.895 119.437 180.723 119.403 180.562 119.336C180.402 119.27 180.256 119.172 180.133 119.05C180.01 118.927 179.912 118.781 179.846 118.62C179.779 118.46 179.745 118.287 179.745 118.114C179.745 117.94 179.779 117.768 179.846 117.607C179.912 117.447 180.01 117.301 180.133 117.178C180.256 117.055 180.402 116.957 180.562 116.891C180.723 116.824 180.895 116.79 181.069 116.79H223.804C224.155 116.79 224.492 116.93 224.74 117.178C224.988 117.426 225.127 117.763 225.127 118.114C225.127 118.465 224.988 118.801 224.74 119.05C224.492 119.298 224.155 119.437 223.804 119.437Z" fill="#212121"/>
<path d="M223.804 128.663H181.069C180.886 128.678 180.702 128.656 180.528 128.597C180.355 128.538 180.195 128.443 180.06 128.319C179.925 128.195 179.817 128.045 179.743 127.877C179.669 127.709 179.631 127.527 179.631 127.344C179.631 127.161 179.669 126.979 179.743 126.811C179.817 126.643 179.925 126.493 180.06 126.369C180.195 126.245 180.355 126.15 180.528 126.091C180.702 126.032 180.886 126.01 181.069 126.025H223.804C223.987 126.01 224.171 126.032 224.344 126.091C224.518 126.15 224.677 126.245 224.812 126.369C224.948 126.493 225.056 126.643 225.129 126.811C225.203 126.979 225.241 127.161 225.241 127.344C225.241 127.527 225.203 127.709 225.129 127.877C225.056 128.045 224.948 128.195 224.812 128.319C224.677 128.443 224.518 128.538 224.344 128.597C224.171 128.656 223.987 128.678 223.804 128.663Z" fill="#212121"/>
<path d="M223.804 137.898H181.069C180.886 137.914 180.702 137.891 180.528 137.832C180.355 137.773 180.195 137.679 180.06 137.555C179.925 137.431 179.817 137.28 179.743 137.112C179.669 136.944 179.631 136.763 179.631 136.579C179.631 136.396 179.669 136.214 179.743 136.047C179.817 135.879 179.925 135.728 180.06 135.604C180.195 135.48 180.355 135.385 180.528 135.326C180.702 135.267 180.886 135.245 181.069 135.261H223.804C223.987 135.245 224.171 135.267 224.344 135.326C224.518 135.385 224.677 135.48 224.812 135.604C224.948 135.728 225.056 135.879 225.129 136.047C225.203 136.214 225.241 136.396 225.241 136.579C225.241 136.763 225.203 136.944 225.129 137.112C225.056 137.28 224.948 137.431 224.812 137.555C224.677 137.679 224.518 137.773 224.344 137.832C224.171 137.891 223.987 137.914 223.804 137.898Z" fill="#212121"/>
<path d="M223.804 147.133H181.069C180.895 147.133 180.723 147.099 180.562 147.033C180.402 146.966 180.256 146.869 180.133 146.746C180.01 146.623 179.912 146.477 179.846 146.316C179.779 146.156 179.745 145.984 179.745 145.81C179.745 145.636 179.779 145.464 179.846 145.303C179.912 145.143 180.01 144.997 180.133 144.874C180.256 144.751 180.402 144.653 180.562 144.587C180.723 144.52 180.895 144.486 181.069 144.486H223.804C224.155 144.486 224.492 144.626 224.74 144.874C224.988 145.122 225.127 145.459 225.127 145.81C225.127 146.161 224.988 146.497 224.74 146.746C224.492 146.994 224.155 147.133 223.804 147.133Z" fill="#212121"/>
<path d="M223.804 155.359H181.069C180.718 155.359 180.381 155.219 180.133 154.971C179.885 154.723 179.745 154.386 179.745 154.035C179.745 153.684 179.885 153.348 180.133 153.099C180.381 152.851 180.718 152.712 181.069 152.712H223.804C224.155 152.712 224.492 152.851 224.74 153.099C224.988 153.348 225.127 153.684 225.127 154.035C225.127 154.386 224.988 154.723 224.74 154.971C224.492 155.219 224.155 155.359 223.804 155.359Z" fill="#212121"/>
<path d="M223.804 164.565H181.069C180.886 164.58 180.702 164.558 180.528 164.499C180.355 164.44 180.195 164.345 180.06 164.221C179.925 164.097 179.817 163.947 179.743 163.779C179.669 163.611 179.631 163.429 179.631 163.246C179.631 163.063 179.669 162.881 179.743 162.713C179.817 162.545 179.925 162.395 180.06 162.271C180.195 162.147 180.355 162.052 180.528 161.993C180.702 161.934 180.886 161.912 181.069 161.927H223.804C223.987 161.912 224.171 161.934 224.344 161.993C224.518 162.052 224.677 162.147 224.812 162.271C224.948 162.395 225.056 162.545 225.129 162.713C225.203 162.881 225.241 163.063 225.241 163.246C225.241 163.429 225.203 163.611 225.129 163.779C225.056 163.947 224.948 164.097 224.812 164.221C224.677 164.345 224.518 164.44 224.344 164.499C224.171 164.558 223.987 164.58 223.804 164.565Z" fill="#212121"/>
<path d="M223.804 173.8H181.069C180.718 173.8 180.381 173.66 180.133 173.412C179.885 173.164 179.745 172.827 179.745 172.476C179.745 172.125 179.885 171.789 180.133 171.54C180.381 171.292 180.718 171.153 181.069 171.153H223.804C224.155 171.153 224.492 171.292 224.74 171.54C224.988 171.789 225.127 172.125 225.127 172.476C225.127 172.827 224.988 173.164 224.74 173.412C224.492 173.66 224.155 173.8 223.804 173.8Z" fill="#212121"/>
<path d="M223.804 183.025H181.069C180.886 183.041 180.702 183.019 180.528 182.96C180.355 182.901 180.195 182.806 180.06 182.682C179.925 182.558 179.817 182.407 179.743 182.239C179.669 182.072 179.631 181.89 179.631 181.707C179.631 181.523 179.669 181.342 179.743 181.174C179.817 181.006 179.925 180.855 180.06 180.731C180.195 180.608 180.355 180.513 180.528 180.454C180.702 180.395 180.886 180.372 181.069 180.388H223.804C223.987 180.372 224.171 180.395 224.344 180.454C224.518 180.513 224.677 180.608 224.812 180.731C224.948 180.855 225.056 181.006 225.129 181.174C225.203 181.342 225.241 181.523 225.241 181.707C225.241 181.89 225.203 182.072 225.129 182.239C225.056 182.407 224.948 182.558 224.812 182.682C224.677 182.806 224.518 182.901 224.344 182.96C224.171 183.019 223.987 183.041 223.804 183.025Z" fill="#212121"/>
<path d="M223.804 192.261H181.069C180.718 192.261 180.381 192.121 180.133 191.873C179.885 191.625 179.745 191.288 179.745 190.937C179.745 190.586 179.885 190.25 180.133 190.001C180.381 189.753 180.718 189.614 181.069 189.614H223.804C224.155 189.614 224.492 189.753 224.74 190.001C224.988 190.25 225.127 190.586 225.127 190.937C225.127 191.288 224.988 191.625 224.74 191.873C224.492 192.121 224.155 192.261 223.804 192.261Z" fill="#212121"/>
<path d="M223.804 201.486H181.069C180.886 201.502 180.702 201.48 180.528 201.42C180.355 201.361 180.195 201.267 180.06 201.143C179.925 201.019 179.817 200.868 179.743 200.7C179.669 200.532 179.631 200.351 179.631 200.168C179.631 199.984 179.669 199.803 179.743 199.635C179.817 199.467 179.925 199.316 180.06 199.192C180.195 199.068 180.355 198.974 180.528 198.915C180.702 198.856 180.886 198.833 181.069 198.849H223.804C223.987 198.833 224.171 198.856 224.344 198.915C224.518 198.974 224.677 199.068 224.812 199.192C224.948 199.316 225.056 199.467 225.129 199.635C225.203 199.803 225.241 199.984 225.241 200.168C225.241 200.351 225.203 200.532 225.129 200.7C225.056 200.868 224.948 201.019 224.812 201.143C224.677 201.267 224.518 201.361 224.344 201.42C224.171 201.48 223.987 201.502 223.804 201.486Z" fill="#212121"/>
<path d="M223.804 210.721H181.069C180.886 210.737 180.702 210.715 180.528 210.656C180.355 210.597 180.195 210.502 180.06 210.378C179.925 210.254 179.817 210.103 179.743 209.936C179.669 209.768 179.631 209.586 179.631 209.403C179.631 209.219 179.669 209.038 179.743 208.87C179.817 208.702 179.925 208.552 180.06 208.428C180.195 208.304 180.355 208.209 180.528 208.15C180.702 208.091 180.886 208.068 181.069 208.084H223.804C223.987 208.068 224.171 208.091 224.344 208.15C224.518 208.209 224.677 208.304 224.812 208.428C224.948 208.552 225.056 208.702 225.129 208.87C225.203 209.038 225.241 209.219 225.241 209.403C225.241 209.586 225.203 209.768 225.129 209.936C225.056 210.103 224.948 210.254 224.812 210.378C224.677 210.502 224.518 210.597 224.344 210.656C224.171 210.715 223.987 210.737 223.804 210.721Z" fill="#212121"/>
<path d="M346.667 91.7411H303.98C303.798 91.7569 303.614 91.7345 303.44 91.6754C303.266 91.6163 303.107 91.5217 302.972 91.3978C302.837 91.2738 302.729 91.1231 302.655 90.9552C302.581 90.7873 302.543 90.6059 302.543 90.4225C302.543 90.2391 302.581 90.0577 302.655 89.8898C302.729 89.7219 302.837 89.5712 302.972 89.4472C303.107 89.3232 303.266 89.2287 303.44 89.1696C303.614 89.1105 303.798 89.0881 303.98 89.1038H346.716C346.898 89.0881 347.082 89.1105 347.256 89.1696C347.43 89.2287 347.589 89.3232 347.724 89.4472C347.859 89.5712 347.967 89.7219 348.041 89.8898C348.115 90.0577 348.153 90.2391 348.153 90.4225C348.153 90.6059 348.115 90.7873 348.041 90.9552C347.967 91.1231 347.859 91.2738 347.724 91.3978C347.589 91.5217 347.43 91.6163 347.256 91.6754C347.082 91.7345 346.898 91.7569 346.716 91.7411H346.667Z" fill="#212121"/>
<path d="M346.667 100.976H303.98C303.807 100.976 303.634 100.942 303.474 100.876C303.313 100.809 303.167 100.712 303.045 100.589C302.922 100.466 302.824 100.32 302.758 100.159C302.691 99.9987 302.657 99.8266 302.657 99.6528C302.657 99.479 302.691 99.3069 302.758 99.1463C302.824 98.9857 302.922 98.8398 303.045 98.7169C303.167 98.594 303.313 98.4966 303.474 98.43C303.634 98.3635 303.807 98.3293 303.98 98.3293H346.716C347.067 98.3293 347.403 98.4687 347.652 98.7169C347.9 98.9651 348.039 99.3018 348.039 99.6528C348.039 100.004 347.9 100.34 347.652 100.589C347.403 100.837 347.067 100.976 346.716 100.976H346.667Z" fill="#212121"/>
<path d="M346.667 110.202H303.98C303.798 110.218 303.614 110.195 303.44 110.136C303.266 110.077 303.107 109.982 302.972 109.859C302.837 109.735 302.729 109.584 302.655 109.416C302.581 109.248 302.543 109.067 302.543 108.883C302.543 108.7 302.581 108.518 302.655 108.351C302.729 108.183 302.837 108.032 302.972 107.908C303.107 107.784 303.266 107.689 303.44 107.63C303.614 107.571 303.798 107.549 303.98 107.565H346.716C346.898 107.549 347.082 107.571 347.256 107.63C347.43 107.689 347.589 107.784 347.724 107.908C347.859 108.032 347.967 108.183 348.041 108.351C348.115 108.518 348.153 108.7 348.153 108.883C348.153 109.067 348.115 109.248 348.041 109.416C347.967 109.584 347.859 109.735 347.724 109.859C347.589 109.982 347.43 110.077 347.256 110.136C347.082 110.195 346.898 110.218 346.716 110.202H346.667Z" fill="#212121"/>
<path d="M346.667 119.437H303.98C303.807 119.437 303.634 119.403 303.474 119.336C303.313 119.27 303.167 119.172 303.045 119.05C302.922 118.927 302.824 118.781 302.758 118.62C302.691 118.46 302.657 118.287 302.657 118.114C302.657 117.94 302.691 117.768 302.758 117.607C302.824 117.447 302.922 117.301 303.045 117.178C303.167 117.055 303.313 116.957 303.474 116.891C303.634 116.824 303.807 116.79 303.98 116.79H346.716C347.067 116.79 347.403 116.93 347.652 117.178C347.9 117.426 348.039 117.763 348.039 118.114C348.039 118.465 347.9 118.801 347.652 119.05C347.403 119.298 347.067 119.437 346.716 119.437H346.667Z" fill="#212121"/>
<path d="M346.667 128.663H303.98C303.798 128.678 303.614 128.656 303.44 128.597C303.266 128.538 303.107 128.443 302.972 128.319C302.837 128.195 302.729 128.045 302.655 127.877C302.581 127.709 302.543 127.527 302.543 127.344C302.543 127.161 302.581 126.979 302.655 126.811C302.729 126.643 302.837 126.493 302.972 126.369C303.107 126.245 303.266 126.15 303.44 126.091C303.614 126.032 303.798 126.01 303.98 126.025H346.716C346.898 126.01 347.082 126.032 347.256 126.091C347.43 126.15 347.589 126.245 347.724 126.369C347.859 126.493 347.967 126.643 348.041 126.811C348.115 126.979 348.153 127.161 348.153 127.344C348.153 127.527 348.115 127.709 348.041 127.877C347.967 128.045 347.859 128.195 347.724 128.319C347.589 128.443 347.43 128.538 347.256 128.597C347.082 128.656 346.898 128.678 346.716 128.663H346.667Z" fill="#212121"/>
<path d="M346.667 137.898H303.98C303.798 137.914 303.614 137.891 303.44 137.832C303.266 137.773 303.107 137.679 302.972 137.555C302.837 137.431 302.729 137.28 302.655 137.112C302.581 136.944 302.543 136.763 302.543 136.579C302.543 136.396 302.581 136.214 302.655 136.047C302.729 135.879 302.837 135.728 302.972 135.604C303.107 135.48 303.266 135.385 303.44 135.326C303.614 135.267 303.798 135.245 303.98 135.261H346.716C346.898 135.245 347.082 135.267 347.256 135.326C347.43 135.385 347.589 135.48 347.724 135.604C347.859 135.728 347.967 135.879 348.041 136.047C348.115 136.214 348.153 136.396 348.153 136.579C348.153 136.763 348.115 136.944 348.041 137.112C347.967 137.28 347.859 137.431 347.724 137.555C347.589 137.679 347.43 137.773 347.256 137.832C347.082 137.891 346.898 137.914 346.716 137.898H346.667Z" fill="#212121"/>
<path d="M346.667 147.133H303.98C303.807 147.133 303.634 147.099 303.474 147.033C303.313 146.966 303.167 146.869 303.045 146.746C302.922 146.623 302.824 146.477 302.758 146.316C302.691 146.156 302.657 145.984 302.657 145.81C302.657 145.636 302.691 145.464 302.758 145.303C302.824 145.143 302.922 144.997 303.045 144.874C303.167 144.751 303.313 144.653 303.474 144.587C303.634 144.52 303.807 144.486 303.98 144.486H346.716C347.067 144.486 347.403 144.626 347.652 144.874C347.9 145.122 348.039 145.459 348.039 145.81C348.039 146.161 347.9 146.497 347.652 146.746C347.403 146.994 347.067 147.133 346.716 147.133H346.667Z" fill="#212121"/>
<path d="M347.02 153.329H302.912V203.927H347.02V153.329Z" fill="#B75400"/>
<path opacity="0.6" d="M347.02 153.329H302.912V203.927H347.02V153.329Z" fill="white"/>
<path d="M369.01 244.957C368.745 234.996 369.52 217.996 360.775 210.996C353.098 204.849 347.127 213.192 344.98 219.918C339.755 236.241 340.314 297.672 341.667 310.045C341.667 310.045 340.333 297.653 330.598 302.967C320.863 308.28 335.5 336.172 335.5 336.172C335.5 336.172 323.99 327.761 318.676 334.839C313.363 341.918 325.324 349.898 325.324 349.898C325.324 349.898 314.255 346.8 314.255 349.898C314.255 352.996 317.794 355.653 327.98 356.986H382.882C382.882 356.986 391.706 352.084 389.971 346.8C388.235 341.516 378.863 344.574 378.863 344.574C378.863 344.574 393.029 327.31 392.137 319.78C391.245 312.251 373.098 321.104 373.098 321.104C373.098 321.104 387.275 285.241 384.618 269.3C382.52 256.741 372.775 265.378 367.471 270.163C368.718 261.822 369.233 253.388 369.01 244.957Z" fill="#B75400"/>
<path d="M351.353 355.8L355.392 234.77" stroke="#B75400" stroke-width="1.72695" stroke-linecap="round" stroke-linejoin="round"/>
<path d="M351.353 355.8L355.392 234.77" stroke="black" stroke-opacity="0.2" stroke-width="1.72695" stroke-linecap="round" stroke-linejoin="round"/>
<path d="M353.618 305.623L374.431 286.133" stroke="#B75400" stroke-width="1.72695" stroke-linecap="round" stroke-linejoin="round"/>
<path d="M353.618 305.623L374.431 286.133" stroke="black" stroke-opacity="0.2" stroke-width="1.72695" stroke-linecap="round" stroke-linejoin="round"/>
<path d="M363.363 296.761L367.784 284.368" stroke="#B75400" stroke-width="1.72695" stroke-linecap="round" stroke-linejoin="round"/>
<path d="M363.363 296.761L367.784 284.368" stroke="black" stroke-opacity="0.2" stroke-width="1.72695" stroke-linecap="round" stroke-linejoin="round"/>
<path d="M336.353 320.672L351.99 337.349" stroke="#B75400" stroke-width="1.72695" stroke-linecap="round" stroke-linejoin="round"/>
<path d="M336.353 320.672L351.99 337.349" stroke="black" stroke-opacity="0.2" stroke-width="1.72695" stroke-linecap="round" stroke-linejoin="round"/>
<path d="M378.863 330.417L352.294 344.143" stroke="#B75400" stroke-width="1.72695" stroke-linecap="round" stroke-linejoin="round"/>
<path d="M378.863 330.418L352.294 344.143" stroke="black" stroke-opacity="0.2" stroke-width="1.72695" stroke-linecap="round" stroke-linejoin="round"/>
<path d="M365.471 337.182L374.431 337.947" stroke="#B75400" stroke-width="1.72695" stroke-linecap="round" stroke-linejoin="round"/>
<path d="M365.471 337.182L374.432 337.947" stroke="black" stroke-opacity="0.2" stroke-width="1.72695" stroke-linecap="round" stroke-linejoin="round"/>
<path d="M169.265 357.457C169.265 361.104 134.51 364.065 91.6471 364.065C48.7843 364.065 14.0196 361.123 14.0196 357.457C14.0196 353.79 48.7745 350.849 91.6471 350.849C134.52 350.849 169.265 353.81 169.265 357.457Z" fill="#212121"/>
<path d="M53 236.094C53 236.094 59 233.055 61.6079 235.663C64.2157 238.27 63.1667 266.172 63.951 275.035C64.4261 280.321 65.4011 285.551 66.8628 290.653C66.8628 290.653 58.2549 289.094 51.7353 285.751C51.7353 285.751 46 257.908 53 236.094Z" fill="#212121" stroke="#212121" stroke-width="0.75" stroke-linecap="round" stroke-linejoin="round"/>
<path d="M172.461 299.28C171.755 299.28 171.071 299.04 170.518 298.601C169.966 298.163 169.578 297.55 169.418 296.863C169.258 296.175 169.335 295.454 169.636 294.817C169.938 294.179 170.446 293.661 171.078 293.349L199.422 280.604L221.422 255.3C221.956 254.665 222.72 254.269 223.547 254.198C224.373 254.128 225.194 254.388 225.828 254.922C226.463 255.457 226.859 256.221 226.93 257.048C227.001 257.874 226.74 258.695 226.206 259.329L203.784 285.133C203.516 285.463 203.182 285.733 202.804 285.927L173.863 298.957C173.429 299.177 172.947 299.288 172.461 299.28Z" fill="white" stroke="#212121" stroke-width="0.75" stroke-linecap="round" stroke-linejoin="round"/>
<path d="M191.843 288.231L194.951 286.819" stroke="#212121" stroke-width="0.75" stroke-linecap="round" stroke-linejoin="round"/>
<path d="M177.51 294.751L189.794 289.163" stroke="#212121" stroke-width="0.75" stroke-linecap="round" stroke-linejoin="round"/>
<path d="M219.52 263.565L211.333 272.819" stroke="#212121" stroke-width="0.75" stroke-linecap="round" stroke-linejoin="round"/>
<path d="M210.01 274.143L208.157 276.251" stroke="#212121" stroke-width="0.75" stroke-linecap="round" stroke-linejoin="round"/>
<path d="M176.235 310.521C179.702 295.899 170.66 281.235 156.038 277.768C141.416 274.301 126.752 283.344 123.285 297.966C119.818 312.588 128.861 327.252 143.482 330.719C158.104 334.186 172.768 325.143 176.235 310.521Z" fill="#B75400" stroke="#212121" stroke-width="0.747671" stroke-linecap="round" stroke-linejoin="round"/>
<path d="M81.7549 203.535C81.7549 203.535 85.6765 212.731 86.5 214.525C87.3236 216.319 88.1079 216.81 87.9216 217.378C87.7353 217.947 85.7353 218.604 85.7353 218.604C86.0131 221.433 85.5219 224.285 84.3138 226.859C82.353 230.78 78.5295 232.829 78.1569 235.29C77.9375 237.656 77.9047 240.036 78.0589 242.408L72.2745 237.663C72.2745 237.663 73.8824 233.016 72.4608 229.604C71.2556 226.812 69.1076 224.532 66.3922 223.163C63.0114 220.944 60.6057 217.518 59.6667 213.584C58.8138 209.025 61.4608 204.192 64.9706 200.78C68.4804 197.368 75.402 198.035 76.1667 198.319C76.9314 198.604 74.2647 196.359 76.6373 195.849C79.0098 195.339 80.4314 198.79 80.5589 199.359C80.6863 199.927 81.4118 196.898 82.1765 198.888C82.9412 200.878 81.7549 203.535 81.7549 203.535Z" fill="white"/>
<g style="mix-blend-mode:multiply" opacity="0.5">
<path d="M74.6863 239.672C74.6521 239.015 74.5768 238.36 74.4608 237.712C74.0785 235.986 76.4216 230.614 77.1471 224.29C77.8726 217.967 72.9216 209.133 72.9216 209.133L69.2942 198.614C67.6831 198.959 66.1917 199.723 64.9706 200.829C61.4608 204.241 58.8138 209.074 59.6667 213.633C60.6057 217.567 63.0114 220.993 66.3922 223.212C69.1076 224.581 71.2556 226.861 72.4608 229.653C73.8824 233.065 72.2745 237.712 72.2745 237.712L74.6863 239.672Z" fill="#BDBDBD"/>
</g>
<path d="M81.7549 203.535C81.7549 203.535 85.6765 212.731 86.5 214.525C87.3236 216.319 88.1079 216.81 87.9216 217.378C87.7353 217.947 85.7353 218.604 85.7353 218.604C86.0131 221.433 85.5219 224.285 84.3138 226.859C82.353 230.78 78.5295 232.829 78.1569 235.29C77.9375 237.656 77.9047 240.036 78.0589 242.408L72.2745 237.663C72.2745 237.663 73.8824 233.016 72.4608 229.604C71.2556 226.812 69.1076 224.532 66.3922 223.163C63.0114 220.944 60.6057 217.518 59.6667 213.584C58.8138 209.025 61.4608 204.192 64.9706 200.78C68.4804 197.368 75.402 198.035 76.1667 198.319C76.9314 198.604 74.2647 196.359 76.6373 195.849C79.0098 195.339 80.4314 198.79 80.5589 199.359C80.6863 199.927 81.4118 196.898 82.1765 198.888C82.9412 200.878 81.7549 203.535 81.7549 203.535Z" stroke="#212121" stroke-width="0.75" stroke-linecap="round" stroke-linejoin="round"/>
<path d="M82.1275 208.427C82.1275 208.427 80.4118 207.957 79.8432 209.408C79.6645 209.74 79.5637 210.109 79.5485 210.486C79.5332 210.863 79.6038 211.238 79.7549 211.584" stroke="#212121" stroke-width="0.75" stroke-linecap="round" stroke-linejoin="round"/>
<path d="M84.1275 222.878C84.1275 222.878 82.4216 223.731 81.3726 222.594" stroke="#212121" stroke-width="0.75" stroke-linecap="round" stroke-linejoin="round"/>
<path d="M80.7843 214.927L72.8824 218.349" stroke="#212121" stroke-width="0.75" stroke-linecap="round" stroke-linejoin="round"/>
<path d="M69.5785 222.506C68.5116 224.077 68.0135 225.966 68.1667 227.859C68.402 231.094 68.3236 235.506 66.6667 235.114C65.0098 234.721 67.451 229.751 67.451 227.702C67.3531 226.14 66.9952 224.606 66.3922 223.163" stroke="#212121" stroke-width="0.75" stroke-linecap="round" stroke-linejoin="round"/>
<path d="M86.549 212.437L84.6863 213.241" stroke="#212121" stroke-width="0.75" stroke-linecap="round" stroke-linejoin="round"/>
<path d="M83.5001 214.28C83.7452 215.114 83.7452 215.849 83.5001 215.917C83.255 215.986 82.8628 215.368 82.6177 214.535C82.3726 213.702 82.3824 212.967 82.6177 212.888C82.853 212.81 83.2648 213.437 83.5001 214.28Z" fill="#212121"/>
<path d="M84.4902 214.28C85.1471 216.241 84.9804 218.055 84.1177 218.349C83.2549 218.643 82.0196 217.28 81.3628 215.329C80.7059 213.378 80.8726 211.545 81.7353 211.251C82.5981 210.957 83.8334 212.319 84.4902 214.28Z" stroke="#212121" stroke-width="0.75" stroke-linecap="round" stroke-linejoin="round"/>
<path d="M71.3922 221.878C71.3922 221.878 69.8334 219.996 71.2353 220.153C71.6756 220.244 72.0831 220.452 72.4145 220.756C72.7459 221.06 72.9889 221.448 73.1177 221.878" stroke="#212121" stroke-width="0.5" stroke-linecap="round" stroke-linejoin="round"/>
<path d="M115.226 254.065L109.726 257.957L110.578 262.506L116.843 260.045L115.226 254.065Z" fill="white" stroke="#212121" stroke-width="0.75" stroke-linecap="round" stroke-linejoin="round"/>
<path d="M110.294 256.819L112.765 266.016C112.765 266.016 96.1373 273.604 92.853 275.947C89.5687 278.29 86.9706 277.653 86.9706 277.653L84.7941 267.025C84.7941 267.025 87.1569 268.163 92.1863 265.986C97.2157 263.81 110.294 256.819 110.294 256.819Z" fill="white" stroke="#212121" stroke-width="0.75" stroke-linecap="round" stroke-linejoin="round"/>
<path d="M118.461 280.751C118.127 280.716 117.816 280.562 117.586 280.317C117.355 280.073 117.221 279.753 117.206 279.418L115.01 243.035C114.988 242.843 115.005 242.648 115.061 242.462C115.118 242.277 115.212 242.105 115.337 241.958C115.463 241.81 115.617 241.69 115.791 241.605C115.965 241.52 116.155 241.471 116.348 241.462C116.542 241.454 116.735 241.485 116.916 241.554C117.097 241.623 117.262 241.729 117.4 241.864C117.539 242 117.648 242.162 117.72 242.342C117.793 242.521 117.828 242.714 117.824 242.908L120.02 279.28C120.029 279.466 120.001 279.651 119.939 279.826C119.876 280.001 119.78 280.162 119.655 280.299C119.53 280.437 119.38 280.548 119.212 280.627C119.044 280.707 118.862 280.752 118.676 280.761L118.461 280.751Z" fill="#212121" stroke="#212121" stroke-width="0.75" stroke-linecap="round" stroke-linejoin="round"/>
<path d="M114.275 253.202C113.925 253.187 113.594 253.043 113.345 252.798C113.096 252.553 112.946 252.224 112.925 251.875C112.905 251.526 113.014 251.182 113.233 250.909C113.451 250.636 113.763 250.454 114.108 250.398L119.608 249.731C119.799 249.693 119.995 249.694 120.185 249.735C120.376 249.776 120.555 249.856 120.713 249.97C120.871 250.084 121.004 250.229 121.103 250.396C121.202 250.564 121.265 250.75 121.289 250.943C121.313 251.136 121.296 251.332 121.24 251.518C121.185 251.705 121.091 251.878 120.966 252.026C120.84 252.175 120.685 252.296 120.51 252.382C120.336 252.468 120.145 252.517 119.951 252.525L114.451 253.192L114.275 253.202Z" fill="white" stroke="#212121" stroke-width="0.75" stroke-linecap="round" stroke-linejoin="round"/>
<path d="M114.559 256.045C114.21 256.03 113.878 255.886 113.629 255.641C113.38 255.396 113.23 255.067 113.21 254.718C113.189 254.369 113.298 254.025 113.517 253.752C113.735 253.479 114.047 253.297 114.392 253.241L119.892 252.574C120.264 252.533 120.636 252.639 120.93 252.87C121.223 253.101 121.414 253.439 121.461 253.81C121.483 253.993 121.468 254.178 121.419 254.355C121.369 254.532 121.285 254.698 121.171 254.843C121.057 254.988 120.916 255.109 120.755 255.199C120.595 255.289 120.418 255.347 120.235 255.369L114.735 256.035L114.559 256.045Z" fill="white" stroke="#212121" stroke-width="0.75" stroke-linecap="round" stroke-linejoin="round"/>
<path d="M114.863 258.633C114.519 258.632 114.188 258.499 113.938 258.262C113.688 258.026 113.538 257.702 113.518 257.359C113.498 257.015 113.61 256.677 113.83 256.413C114.051 256.149 114.364 255.978 114.706 255.937L119.971 255.3C120.148 255.276 120.329 255.288 120.501 255.335C120.674 255.382 120.836 255.462 120.978 255.572C121.119 255.682 121.237 255.818 121.326 255.974C121.414 256.13 121.47 256.301 121.492 256.479C121.513 256.657 121.499 256.837 121.45 257.01C121.402 257.182 121.319 257.343 121.208 257.483C121.096 257.623 120.958 257.74 120.801 257.826C120.645 257.912 120.472 257.967 120.294 257.986L115.029 258.623L114.863 258.633Z" fill="white" stroke="#212121" stroke-width="0.75" stroke-linecap="round" stroke-linejoin="round"/>
<path d="M115.745 261.114C115.474 261.087 115.223 260.959 115.041 260.755C114.86 260.552 114.761 260.288 114.765 260.016C114.71 259.722 114.765 259.418 114.918 259.162C115.071 258.905 115.313 258.714 115.598 258.623L119.324 258.025C119.853 257.957 120.304 258.437 120.382 259.123C120.442 259.417 120.389 259.723 120.235 259.981C120.081 260.238 119.836 260.429 119.549 260.516L115.833 261.104L115.745 261.114Z" fill="white" stroke="#212121" stroke-width="0.75" stroke-linecap="round" stroke-linejoin="round"/>
<path d="M113.725 256.633C113.709 256.901 113.596 257.153 113.406 257.343C113.216 257.533 112.964 257.646 112.696 257.663C112.406 257.742 112.097 257.712 111.827 257.578C111.558 257.444 111.347 257.216 111.235 256.937L110.373 253.27C110.255 252.751 110.696 252.241 111.353 252.123C111.642 252.049 111.948 252.081 112.214 252.215C112.481 252.348 112.69 252.573 112.804 252.849L113.676 256.525C113.676 256.525 113.716 256.594 113.725 256.633Z" fill="white" stroke="#212121" stroke-width="0.75" stroke-linecap="round" stroke-linejoin="round"/>
<path d="M70.1863 234.819C70.1863 234.819 76.9216 238.898 80.049 244.016C83.1765 249.133 85.8334 256.761 87.353 263.457C88.8726 270.153 90.0981 287.633 91.049 291.241C91.5092 293.155 92.2109 295.004 93.1373 296.741C87.6497 298.778 81.822 299.744 75.9706 299.584C66.6765 299.202 65.2549 296.927 65.2549 296.927C65.2549 296.927 62.1275 276.261 62.4118 259.849C62.6961 243.437 70.1863 234.819 70.1863 234.819Z" fill="white"/>
<g style="mix-blend-mode:multiply" opacity="0.5">
<path d="M66.2157 253.398C66.2157 253.398 65.2353 254.937 66.0196 250.908C66.6543 248.089 67.6876 245.376 69.0883 242.849L73.6863 248.025L76.5687 248.221L75.804 249.565L81.3628 253.016L78.7255 249.908L78.9118 245.163L74.4608 246.535C74.4608 246.535 71.5785 241.359 70.8138 239.672C70.304 238.516 72.0098 237.535 73.2059 237.016C72.2368 236.261 71.2288 235.557 70.1863 234.908C70.1863 234.908 62.6961 243.535 62.4118 259.937C62.1863 272.947 64.1079 288.623 64.9118 294.565L79.6177 293.751L66.2157 253.398Z" fill="#BDBDBD"/>
</g>
<path d="M70.1863 234.819C70.1863 234.819 76.9216 238.898 80.049 244.016C83.1765 249.133 85.8334 256.761 87.353 263.457C88.8726 270.153 90.0981 287.633 91.049 291.241C91.5092 293.155 92.2109 295.004 93.1373 296.741C87.6497 298.778 81.822 299.744 75.9706 299.584C66.6765 299.202 65.2549 296.927 65.2549 296.927C65.2549 296.927 62.1275 276.261 62.4118 259.849C62.6961 243.437 70.1863 234.819 70.1863 234.819Z" stroke="#212121" stroke-width="0.75" stroke-linecap="round" stroke-linejoin="round"/>
<path d="M68.1961 238.143L75.2157 246.574L78.9118 245.153L78.7255 249.898L84.3137 256.633" stroke="#212121" stroke-width="0.75" stroke-linecap="round" stroke-linejoin="round"/>
<path d="M63.8824 256.016C63.8824 256.016 64.6667 263.859 67.0098 265.721" stroke="#212121" stroke-width="0.5" stroke-linecap="round" stroke-linejoin="round"/>
<path d="M64.3529 264.476C64.3529 264.476 65.3333 267.417 67.7941 268.398" stroke="#212121" stroke-width="0.5" stroke-linecap="round" stroke-linejoin="round"/>
<path d="M84.7059 260.241L80.6373 261.81L81.2647 263.535L85.0196 262.123" stroke="#212121" stroke-width="0.5" stroke-linecap="round" stroke-linejoin="round"/>
<path d="M112.147 289.78C111.811 289.779 111.485 289.659 111.23 289.439C110.975 289.22 110.806 288.917 110.755 288.584L105.676 255.604C105.649 255.42 105.658 255.233 105.702 255.053C105.747 254.873 105.826 254.703 105.937 254.554C106.047 254.405 106.185 254.279 106.344 254.183C106.503 254.087 106.679 254.024 106.863 253.996C107.046 253.968 107.233 253.977 107.413 254.022C107.594 254.066 107.763 254.146 107.912 254.256C108.062 254.366 108.188 254.505 108.284 254.664C108.379 254.823 108.443 254.999 108.471 255.182L113.549 288.163C113.603 288.533 113.508 288.909 113.286 289.21C113.064 289.511 112.732 289.712 112.363 289.77L112.147 289.78Z" fill="#212121" stroke="#212121" stroke-width="0.75" stroke-linecap="round" stroke-linejoin="round"/>
<path d="M81.7549 203.535C81.7549 203.535 82.8922 200.878 82.1373 198.888C81.3824 196.898 80.6177 199.927 80.5197 199.359C80.4216 198.79 79.0098 195.378 76.5981 195.849C74.1863 196.319 76.8824 198.604 76.1275 198.319C75.3726 198.035 68.4412 197.339 64.9314 200.78C61.4216 204.221 58.7745 209.025 59.6275 213.584C60.5665 217.518 62.9722 220.944 66.353 223.163C68.1275 224.073 69.6753 225.369 70.8824 226.957C71.9013 226.138 72.8313 225.215 73.6569 224.202C73.164 224.359 72.6411 224.398 72.1303 224.317C71.6194 224.235 71.1349 224.034 70.7157 223.731C69.1961 222.682 68.4412 219.653 70.3432 218.133C72.2451 216.614 74.0785 220.065 74.0785 220.065C76.0393 221.114 75.304 218.359 74.5491 217.123C73.7942 215.888 74.8334 214.555 75.1177 212.761C75.402 210.966 72.9412 210.29 73.2255 208.486C73.5098 206.682 81.7549 203.535 81.7549 203.535Z" fill="#212121" stroke="#212121" stroke-width="0.75" stroke-linecap="round" stroke-linejoin="round"/>
<path d="M77.1863 204.81C77.1863 204.81 73.7451 203.084 71.549 205.79C69.353 208.496 69.8334 212.996 68.1079 215.653C67.7044 216.385 67.1432 217.018 66.465 217.506C65.7867 217.994 65.0084 218.326 64.1863 218.476" stroke="white" stroke-width="0.5" stroke-linecap="round" stroke-linejoin="round"/>
<path d="M62.1569 213.741C63.1934 213.852 64.2322 213.553 65.0512 212.908C65.8702 212.264 66.4043 211.324 66.5392 210.29C67.3235 206.368 71.7059 200.741 76.098 200.584C80.4902 200.427 80.1667 203.525 80.1667 203.525" stroke="white" stroke-width="0.5" stroke-linecap="round" stroke-linejoin="round"/>
<path d="M100.059 268.29L102.804 266.486C102.804 266.486 105.177 262.123 105.363 261.839C105.549 261.555 111.343 258.712 111.814 259.094C112.081 259.327 112.288 259.62 112.419 259.949C112.551 260.278 112.602 260.633 112.569 260.986C112.382 261.467 111.716 261.967 111.716 262.418C111.716 262.868 112.48 266.486 112.48 267.437C112.48 268.388 108.559 269.996 106.98 270.476C105.402 270.957 103.284 270.947 102.804 271.329L101.48 272.368L100.059 268.29Z" fill="white" stroke="#212121" stroke-width="0.75" stroke-linecap="round" stroke-linejoin="round"/>
<path d="M68.1961 249.143C68.1961 249.143 65.7353 249.8 66.5882 256.721C67.4412 263.643 74.3627 286.967 76.8235 289.819C79.2843 292.672 103.294 276.731 103.294 276.731L100.353 267.623C100.353 267.623 84.1372 273.976 82.8137 274.261C81.4902 274.545 77.6863 253.878 76.3627 251.319" fill="white"/>
<g style="mix-blend-mode:multiply" opacity="0.5">
<path d="M102.853 275.408C97.8628 276.986 86.3138 280.584 84.8138 280.427C82.853 280.241 82.3236 279.084 81.1667 277.555C80.0099 276.025 78.2942 282.153 76.7549 282.731C75.2157 283.31 76.3726 275.868 76.951 274.29C77.5295 272.712 75.6079 275.065 75.6079 275.065C75.6079 275.065 71.7746 267.221 69.853 261.829C68.6349 258.309 67.6748 254.705 66.9804 251.045L66.5491 252.104C66.3324 253.622 66.3324 255.164 66.5491 256.682C67.402 263.604 74.3236 286.927 76.7844 289.78C79.2451 292.633 103.255 276.692 103.255 276.692L102.853 275.408Z" fill="#BDBDBD"/>
</g>
<path d="M68.1961 249.143C68.1961 249.143 65.7353 249.8 66.5882 256.721C67.4412 263.643 74.3627 286.967 76.8235 289.819C79.2843 292.672 103.294 276.731 103.294 276.731L100.353 267.623C100.353 267.623 84.1372 273.976 82.8137 274.261C81.4902 274.545 77.6863 253.878 76.3627 251.319" stroke="#212121" stroke-width="0.75" stroke-linecap="round" stroke-linejoin="round"/>
<path d="M82.8039 274.261C81.8373 274.886 81.0078 275.701 80.3658 276.657C79.7237 277.612 79.2824 278.688 79.0686 279.819" stroke="#212121" stroke-width="0.5" stroke-linecap="round" stroke-linejoin="round"/>
<path d="M79.2255 276.368C78.5669 277.026 78.047 277.809 77.6967 278.671C77.3464 279.534 77.1728 280.457 77.1863 281.388" stroke="#212121" stroke-width="0.5" stroke-linecap="round" stroke-linejoin="round"/>
<path d="M54.7843 284.074C54.7843 284.074 52.1765 275.378 52.5196 257.3C52.8628 239.221 53.9118 237.486 53.0392 236.094C52.1667 234.702 36.3726 244.006 24.6079 257.565C17.1177 266.231 7.54904 279.065 6.92159 299.28C6.40198 315.447 14.0883 328.516 18.9118 332.133C27.2549 338.388 38.6471 337.957 39.8628 337.957H156.294C156.294 337.957 163.765 335.349 165.5 328.574C167.235 321.8 173.147 302.496 160.814 279.378C152.716 264.212 138.216 247.917 135.775 249.133C133.333 250.349 124.216 267.761 111.794 278.682C100.059 289.006 77.7255 296.584 54.7843 284.074Z" fill="#B75400" stroke="#212121" stroke-width="0.75" stroke-linecap="round" stroke-linejoin="round"/>
<path d="M160.843 279.378C159.108 276.143 157.088 272.859 154.961 269.702C148.157 272.045 131.098 279.045 121.627 293.025C113.5 305.025 118.902 324.064 135.843 337.957H156.304C156.304 337.957 163.775 335.349 165.51 328.565C167.245 321.78 173.147 302.496 160.843 279.378Z" fill="white" stroke="#212121" stroke-width="0.75" stroke-linecap="round" stroke-linejoin="round"/>
<path d="M164.578 315.957C164.395 317.656 164.124 319.398 163.765 321.182" stroke="#212121" stroke-width="0.75" stroke-linecap="round" stroke-linejoin="round"/>
<path d="M158.745 282.329C158.745 282.329 165.794 294.476 164.892 312.192" stroke="#212121" stroke-width="0.75" stroke-linecap="round" stroke-linejoin="round"/>
<path d="M52.0196 335.486V318.104C42.951 315.163 37.0981 311.672 31.6373 308.398C23.7941 303.702 18.3039 291.045 21.9902 282.849C25.3726 275.28 34.7353 271.898 39.7157 275.28C44.5762 278.474 49.5957 281.419 54.7549 284.104C54.7549 284.104 52.1471 275.408 52.4902 257.329C52.8334 239.251 53.8824 237.516 53.0098 236.123C52.1373 234.731 36.3432 244.035 24.5785 257.594C17.1177 266.231 7.54904 279.065 6.92159 299.28C6.40198 315.447 14.0883 328.516 18.9118 332.133C27.2549 338.388 38.6471 337.957 39.8628 337.957H52.0196C52.0196 337.065 52.0196 336.231 52.0196 335.486Z" fill="white" stroke="#212121" stroke-width="0.75" stroke-linecap="round" stroke-linejoin="round"/>
<path d="M10.6177 302.682C10.7065 304.822 10.9357 306.954 11.304 309.065" stroke="#212121" stroke-width="0.75" stroke-linecap="round" stroke-linejoin="round"/>
<path d="M38.6471 249.221C35.8236 251.751 31.6079 254.721 28.9902 257.751C21.4902 266.418 11.2451 278.8 10.5981 299.016" stroke="#212121" stroke-width="0.75" stroke-linecap="round" stroke-linejoin="round"/>
<path d="M79.1176 335.868C79.1176 345.427 64.4118 346.3 46.1765 346.3C27.9412 346.3 13.2353 345.947 13.2353 335.868C13.2353 321.947 27.9412 308.417 46.1765 308.417C64.4118 308.417 79.1176 321.947 79.1176 335.868Z" fill="#BDBDBD" stroke="#212121" stroke-width="0.75" stroke-linecap="round" stroke-linejoin="round"/>
<path d="M46.1373 308.408C29.304 308.408 15.4412 319.996 13.451 332.751C15.4118 340.78 29.304 341.084 46.1373 341.084C62.9706 341.084 76.7942 340.339 78.8138 332.692C76.8334 319.957 62.9804 308.408 46.1373 308.408Z" fill="#212121" stroke="#212121" stroke-width="0.75" stroke-linecap="round" stroke-linejoin="round"/>
<path d="M164.284 336.888C164.284 345.545 150.931 346.339 134.461 346.339C117.99 346.339 104.627 346.025 104.627 336.888C104.627 324.29 117.98 312.016 134.461 312.016C150.941 312.016 164.284 324.29 164.284 336.888Z" fill="#BDBDBD" stroke="#212121" stroke-width="0.75" stroke-linecap="round" stroke-linejoin="round"/>
<path d="M134.461 312.016C119.216 312.016 106.657 322.516 104.863 334.074C106.657 341.339 119.216 341.614 134.461 341.614C149.706 341.614 162.216 340.937 164.049 334.016C162.216 322.486 149.676 312.016 134.461 312.016Z" fill="#212121" stroke="#212121" stroke-width="0.75" stroke-linecap="round" stroke-linejoin="round"/>
<path d="M250.588 233.79C249.423 233.354 248.478 232.473 247.961 231.341C247.444 230.208 247.399 228.917 247.833 227.751L261.069 192.368C261.284 191.789 261.612 191.258 262.033 190.805C262.454 190.352 262.96 189.987 263.522 189.73C264.084 189.473 264.691 189.329 265.309 189.306C265.927 189.284 266.543 189.383 267.123 189.599C267.702 189.815 268.233 190.142 268.686 190.563C269.139 190.984 269.504 191.49 269.761 192.052C270.018 192.614 270.162 193.222 270.185 193.839C270.207 194.457 270.108 195.073 269.892 195.653L256.657 231.035C256.441 231.616 256.113 232.148 255.69 232.601C255.268 233.055 254.76 233.42 254.196 233.676C253.632 233.932 253.023 234.074 252.404 234.093C251.784 234.113 251.167 234.01 250.588 233.79Z" fill="white" stroke="#212121" stroke-width="0.75" stroke-linecap="round" stroke-linejoin="round"/>
<path d="M265.824 198.741L258.392 218.27" stroke="#212121" stroke-width="0.75" stroke-linecap="round" stroke-linejoin="round"/>
<path d="M230.451 287.712C229.424 287.329 228.483 286.747 227.681 286.001C226.878 285.254 226.231 284.356 225.776 283.359C225.321 282.363 225.066 281.286 225.027 280.19C224.989 279.095 225.166 278.003 225.549 276.976L244.441 226.457C245.221 224.383 246.793 222.704 248.811 221.789C250.829 220.875 253.127 220.799 255.201 221.579C257.275 222.359 258.953 223.931 259.868 225.949C260.783 227.967 260.858 230.265 260.078 232.339L241.147 282.81C240.374 284.874 238.814 286.549 236.81 287.467C234.806 288.386 232.52 288.473 230.451 287.712Z" fill="#212121" stroke="#212121" stroke-width="0.75" stroke-linecap="round" stroke-linejoin="round"/>
<path d="M300.578 101.614C291.16 98.0914 280.908 97.4414 271.12 99.7456C261.332 102.05 252.446 107.205 245.588 114.559C238.729 121.913 234.206 131.135 232.589 141.06C230.972 150.985 232.334 161.167 236.503 170.317C240.673 179.468 247.462 187.177 256.013 192.469C264.564 197.761 274.491 200.398 284.541 200.048C294.591 199.698 304.311 196.375 312.472 190.501C320.634 184.626 326.87 176.464 330.392 167.045C335.113 154.415 334.624 140.426 329.033 128.156C323.442 115.886 313.207 106.339 300.578 101.614ZM268.039 188.614C260.252 185.7 253.504 180.543 248.648 173.794C243.792 167.045 241.046 159.008 240.758 150.699C240.469 142.389 242.651 134.181 247.028 127.112C251.404 120.043 257.779 114.43 265.345 110.983C272.911 107.537 281.329 106.411 289.535 107.749C297.741 109.087 305.366 112.827 311.446 118.499C317.526 124.17 321.788 131.516 323.693 139.61C325.597 147.703 325.06 156.179 322.147 163.967C318.239 174.409 310.343 182.872 300.197 187.494C290.05 192.116 278.483 192.519 268.039 188.614Z" fill="#212121" stroke="#212121" stroke-width="0.75" stroke-linecap="round" stroke-linejoin="round"/>
<path d="M248.677 133.79C250.716 129.292 253.628 125.243 257.243 121.878C260.857 118.512 265.103 115.896 269.735 114.182" stroke="#212121" stroke-width="0.75" stroke-linecap="round" stroke-linejoin="round"/>
<path d="M245.314 149.359C245.303 145.545 245.879 141.753 247.02 138.114" stroke="#212121" stroke-width="0.75" stroke-linecap="round" stroke-linejoin="round"/>
<path d="M234.569 159.731C232.037 148.071 233.818 135.888 239.58 125.44C245.342 114.991 254.697 106.985 265.909 102.905C277.122 98.825 289.434 98.947 300.563 103.248C311.693 107.55 320.887 115.739 326.441 126.3" stroke="white" stroke-miterlimit="10"/>
<path d="M331.755 143.359C333.192 155.107 330.358 166.98 323.769 176.812C317.18 186.644 307.275 193.78 295.863 196.917C284.451 200.055 272.291 198.984 261.602 193.902C250.913 188.819 242.407 180.063 237.637 169.231" stroke="white" stroke-miterlimit="10"/>
<path d="M328.422 130.565C329.701 133.684 330.657 136.926 331.275 140.241" stroke="white" stroke-miterlimit="10"/>
<path d="M85.353 322.565C93.1662 322.565 99.5 316.231 99.5 308.417C99.5 300.604 93.1662 294.27 85.353 294.27C77.5398 294.27 71.2059 300.604 71.2059 308.417C71.2059 316.231 77.5398 322.565 85.353 322.565Z" fill="#212121"/>
<path d="M85.353 320.359C91.9479 320.359 97.2942 315.012 97.2942 308.417C97.2942 301.823 91.9479 296.476 85.353 296.476C78.7581 296.476 73.4118 301.823 73.4118 308.417C73.4118 315.012 78.7581 320.359 85.353 320.359Z" fill="white" stroke="#212121" stroke-width="0.75" stroke-linecap="round" stroke-linejoin="round"/>
<path d="M81.7255 311.947C81.6219 311.841 81.5639 311.698 81.5639 311.55C81.5639 311.401 81.6219 311.259 81.7255 311.153L84.9608 307.917C85.067 307.814 85.2095 307.756 85.3578 307.756C85.5062 307.756 85.6487 307.814 85.7549 307.917C85.8088 307.97 85.8518 308.032 85.8811 308.101C85.9104 308.17 85.9255 308.244 85.9255 308.319C85.9255 308.394 85.9104 308.469 85.8811 308.538C85.8518 308.607 85.8088 308.669 85.7549 308.721L82.5294 311.947C82.4773 312.001 82.4148 312.044 82.3458 312.073C82.2767 312.102 82.2025 312.118 82.1274 312.118C82.0524 312.118 81.9782 312.102 81.9091 312.073C81.84 312.044 81.7776 312.001 81.7255 311.947Z" fill="#212121"/>
<path d="M76.8039 316.868C76.7075 316.777 76.6307 316.667 76.5783 316.544C76.5258 316.422 76.4988 316.291 76.4988 316.158C76.4988 316.025 76.5258 315.893 76.5783 315.771C76.6307 315.649 76.7075 315.538 76.8039 315.447L81.4118 310.839C81.5035 310.741 81.6143 310.663 81.7374 310.61C81.8605 310.556 81.9933 310.529 82.1275 310.529C82.2616 310.529 82.3944 310.556 82.5175 310.61C82.6406 310.663 82.7514 310.741 82.8431 310.839C82.9396 310.931 83.0163 311.041 83.0688 311.163C83.1212 311.285 83.1483 311.417 83.1483 311.55C83.1483 311.683 83.1212 311.814 83.0688 311.937C83.0163 312.059 82.9396 312.169 82.8431 312.261L78.2353 316.868C78.1436 316.966 78.0328 317.044 77.9096 317.098C77.7865 317.151 77.6538 317.179 77.5196 317.179C77.3854 317.179 77.2527 317.151 77.1296 317.098C77.0065 317.044 76.8956 316.966 76.8039 316.868Z" fill="#212121"/>
<path d="M93.8431 308.614C94.7038 307.754 95.2902 306.659 95.5282 305.466C95.7662 304.274 95.645 303.037 95.1801 301.913C94.7151 300.79 93.9272 299.829 92.9161 299.153C91.9051 298.477 90.7162 298.116 89.5 298.116C88.2838 298.116 87.0949 298.477 86.0838 299.153C85.0727 299.829 84.2849 300.79 83.8199 301.913C83.3549 303.037 83.2338 304.274 83.4718 305.466C83.7097 306.659 84.2962 307.754 85.1569 308.614C86.3094 309.764 87.8714 310.41 89.5 310.41C91.1286 310.41 92.6906 309.764 93.8431 308.614Z" fill="#212121"/>
<path d="M92.6667 307.427C93.2904 306.801 93.7146 306.005 93.8858 305.138C94.0571 304.271 93.9676 303.373 93.6288 302.557C93.29 301.741 92.717 301.044 91.9821 300.553C91.2473 300.063 90.3835 299.801 89.5 299.801C88.6165 299.801 87.7527 300.063 87.0179 300.553C86.283 301.044 85.71 301.741 85.3712 302.557C85.0324 303.373 84.9429 304.271 85.1142 305.138C85.2854 306.005 85.7097 306.801 86.3333 307.427C86.7487 307.844 87.2422 308.175 87.7856 308.4C88.329 308.626 88.9116 308.742 89.5 308.742C90.0884 308.742 90.671 308.626 91.2144 308.4C91.7578 308.175 92.2514 307.844 92.6667 307.427Z" fill="white"/>
<path d="M260.843 257.967C260.843 259.212 260.348 260.406 259.468 261.287C258.587 262.168 257.393 262.663 256.147 262.663H223.039C222.405 262.692 221.772 262.592 221.177 262.369C220.583 262.146 220.04 261.806 219.581 261.367C219.122 260.929 218.756 260.402 218.507 259.818C218.257 259.234 218.129 258.606 218.129 257.971C218.129 257.337 218.257 256.708 218.507 256.125C218.756 255.541 219.122 255.014 219.581 254.576C220.04 254.137 220.583 253.796 221.177 253.574C221.772 253.351 222.405 253.251 223.039 253.28H256.147C257.391 253.28 258.584 253.774 259.464 254.652C260.345 255.531 260.841 256.723 260.843 257.967Z" fill="#B75400" stroke="#212121" stroke-width="0.75" stroke-linecap="round" stroke-linejoin="round"/>
<path d="M241.029 261.212C242.47 261.212 243.637 260.044 243.637 258.604C243.637 257.163 242.47 255.996 241.029 255.996C239.589 255.996 238.422 257.163 238.422 258.604C238.422 260.044 239.589 261.212 241.029 261.212Z" fill="white" stroke="#212121" stroke-width="0.75" stroke-linecap="round" stroke-linejoin="round"/>
<path d="M201.392 289.212C204.901 289.212 207.745 286.367 207.745 282.859C207.745 279.35 204.901 276.506 201.392 276.506C197.884 276.506 195.039 279.35 195.039 282.859C195.039 286.367 197.884 289.212 201.392 289.212Z" fill="#B75400" stroke="#212121" stroke-width="0.75" stroke-linecap="round" stroke-linejoin="round"/>
<path d="M203.775 282.859C203.776 282.387 203.638 281.926 203.378 281.532C203.117 281.139 202.746 280.832 202.311 280.651C201.876 280.469 201.396 280.42 200.933 280.511C200.471 280.602 200.045 280.828 199.711 281.161C199.377 281.494 199.149 281.918 199.056 282.38C198.964 282.843 199.01 283.322 199.19 283.758C199.37 284.194 199.676 284.567 200.068 284.829C200.46 285.091 200.921 285.231 201.392 285.231C202.022 285.231 202.627 284.982 203.073 284.537C203.52 284.092 203.772 283.489 203.775 282.859Z" fill="white" stroke="#212121" stroke-width="0.75" stroke-linecap="round" stroke-linejoin="round"/>
<path d="M223.039 264.437C226.548 264.437 229.392 261.593 229.392 258.084C229.392 254.576 226.548 251.731 223.039 251.731C219.531 251.731 216.686 254.576 216.686 258.084C216.686 261.593 219.531 264.437 223.039 264.437Z" fill="#B75400" stroke="#212121" stroke-width="0.75" stroke-linecap="round" stroke-linejoin="round"/>
<path d="M223.039 260.535C224.393 260.535 225.49 259.438 225.49 258.084C225.49 256.731 224.393 255.633 223.039 255.633C221.686 255.633 220.588 256.731 220.588 258.084C220.588 259.438 221.686 260.535 223.039 260.535Z" fill="white" stroke="#212121" stroke-width="0.75" stroke-linecap="round" stroke-linejoin="round"/>
</svg>
