<svg width="400" height="400" viewBox="0 0 400 400" fill="none" xmlns="http://www.w3.org/2000/svg">
  <path d="M202.623 329.638C202.623 330.624 202.33 331.588 201.783 332.407C201.235 333.227 200.456 333.865 199.545 334.242C198.634 334.619 197.632 334.717 196.665 334.525C195.699 334.332 194.811 333.857 194.114 333.159C193.418 332.461 192.944 331.573 192.752 330.606C192.561 329.639 192.661 328.637 193.039 327.727C193.417 326.816 194.057 326.039 194.877 325.492C195.698 324.945 196.662 324.654 197.647 324.656C198.968 324.658 200.233 325.183 201.166 326.118C202.099 327.052 202.623 328.318 202.623 329.638Z" fill="#E0E0E0" stroke="#E0E0E0"/>
  <path d="M306.998 230.976L306.998 230.977C307 231.963 306.709 232.927 306.162 233.747C305.615 234.568 304.837 235.208 303.926 235.586C303.015 235.964 302.013 236.063 301.046 235.871C300.078 235.679 299.19 235.204 298.493 234.507C297.795 233.81 297.321 232.921 297.129 231.954C296.937 230.987 297.036 229.984 297.414 229.074C297.792 228.163 298.432 227.385 299.252 226.838C300.073 226.291 301.037 226 302.023 226.001H302.024C303.343 226.001 304.609 226.525 305.541 227.458C306.474 228.391 306.998 229.656 306.998 230.976ZM302.024 225.501C303.476 225.501 304.868 226.078 305.895 227.105C306.922 228.131 307.498 229.524 307.498 230.976L302.024 225.501Z" fill="#E0E0E0" stroke="#E0E0E0"/>
  <path d="M358.347 169.195V169.196C358.347 170.181 358.055 171.145 357.507 171.964C356.96 172.783 356.181 173.422 355.271 173.799C354.361 174.176 353.359 174.275 352.392 174.083C351.426 173.891 350.538 173.416 349.841 172.719C349.144 172.022 348.67 171.135 348.477 170.168C348.285 169.201 348.384 168.2 348.761 167.289C349.138 166.379 349.777 165.601 350.596 165.053C351.415 164.506 352.379 164.213 353.364 164.213L353.365 164.213C354.019 164.212 354.668 164.341 355.273 164.591C355.877 164.841 356.427 165.208 356.89 165.67L357.243 165.317L356.89 165.67C357.353 166.133 357.72 166.683 357.97 167.288C358.22 167.892 358.348 168.541 358.347 169.195Z" fill="#E0E0E0" stroke="#E0E0E0"/>
  <path d="M298.786 174.877C298.786 175.863 298.494 176.826 297.947 177.645C297.399 178.465 296.621 179.103 295.711 179.48C294.8 179.858 293.798 179.956 292.832 179.764C291.865 179.572 290.978 179.097 290.281 178.4C289.584 177.704 289.109 176.816 288.917 175.849C288.725 174.883 288.824 173.881 289.201 172.97C289.578 172.06 290.216 171.282 291.036 170.734C291.855 170.187 292.818 169.895 293.804 169.895C295.125 169.895 296.393 170.42 297.327 171.354C298.262 172.288 298.786 173.556 298.786 174.877Z" fill="#E0E0E0" stroke="#E0E0E0"/>
  <path d="M252.523 100.58L252.523 100.581C252.524 101.567 252.233 102.531 251.687 103.351C251.14 104.172 250.362 104.811 249.452 105.19C248.542 105.568 247.54 105.668 246.573 105.476C245.606 105.285 244.717 104.811 244.02 104.114C243.322 103.418 242.847 102.53 242.654 101.563C242.461 100.596 242.559 99.5942 242.936 98.6833C243.313 97.7725 243.952 96.9939 244.771 96.4461C245.591 95.8982 246.554 95.6058 247.54 95.6058L247.541 95.6058C248.195 95.6049 248.842 95.7329 249.447 95.9824C250.051 96.232 250.6 96.5983 251.063 97.0603C251.526 97.5223 251.893 98.0711 252.143 98.6751C252.394 99.2791 252.523 99.9266 252.523 100.58Z" fill="#E0E0E0" stroke="#E0E0E0"/>
  <path d="M215.538 71.552L215.538 71.5527C215.539 72.5385 215.248 73.5025 214.702 74.3229C214.155 75.1432 213.377 75.7829 212.467 76.1612C211.557 76.5394 210.555 76.6391 209.588 76.4477C208.621 76.2562 207.732 75.7822 207.035 75.0857C206.337 74.3892 205.862 73.5014 205.669 72.5347C205.476 71.5679 205.574 70.5658 205.951 69.6549C206.328 68.744 206.967 67.9654 207.786 67.4176C208.606 66.8698 209.569 66.5774 210.555 66.5774L210.556 66.5774C211.21 66.5764 211.857 66.7044 212.462 66.954C213.066 67.2036 213.615 67.5698 214.078 68.0319C214.541 68.4939 214.908 69.0426 215.158 69.6466C215.409 70.2507 215.538 70.8981 215.538 71.552Z" fill="#E0E0E0" stroke="#E0E0E0"/>
  <path d="M113.311 143.557V143.558C113.311 144.543 113.018 145.507 112.47 146.326C111.923 147.146 111.144 147.785 110.233 148.161C109.322 148.538 108.32 148.637 107.353 148.444C106.387 148.251 105.499 147.776 104.802 147.078C104.106 146.381 103.632 145.492 103.44 144.525C103.249 143.558 103.349 142.556 103.727 141.646C104.105 140.735 104.745 139.958 105.565 139.411C106.385 138.865 107.349 138.574 108.335 138.575H108.336C108.99 138.575 109.637 138.704 110.241 138.954C110.845 139.205 111.394 139.572 111.856 140.035C112.318 140.497 112.684 141.046 112.934 141.651C113.184 142.255 113.312 142.903 113.311 143.557Z" fill="#E0E0E0" stroke="#E0E0E0"/>
  <path d="M104.032 215.038C104.034 216.024 103.743 216.989 103.196 217.809C102.649 218.63 101.871 219.269 100.96 219.647C100.049 220.025 99.0468 220.125 98.0796 219.933C97.1124 219.741 96.224 219.266 95.5267 218.569C94.8294 217.871 94.3547 216.983 94.1627 216.016C93.9707 215.049 94.07 214.046 94.448 213.135C94.826 212.225 95.4658 211.447 96.2863 210.9C97.1067 210.353 98.0711 210.061 99.0571 210.063C100.376 210.065 101.64 210.59 102.573 211.522C103.506 212.455 104.031 213.719 104.032 215.038Z" fill="#E0E0E0" stroke="#E0E0E0"/>
  <path d="M115.149 257.815V257.816C115.149 258.802 114.856 259.765 114.308 260.585C113.761 261.404 112.982 262.043 112.071 262.42C111.16 262.797 110.158 262.895 109.191 262.702C108.225 262.509 107.337 262.034 106.64 261.336C105.944 260.639 105.47 259.75 105.278 258.783C105.087 257.816 105.187 256.814 105.565 255.904C105.943 254.994 106.583 254.216 107.403 253.669C108.223 253.123 109.187 252.832 110.173 252.833H110.174C110.828 252.833 111.475 252.962 112.079 253.213C112.683 253.463 113.232 253.83 113.694 254.293C114.156 254.756 114.522 255.305 114.772 255.909C115.022 256.514 115.15 257.161 115.149 257.815Z" fill="#E0E0E0" stroke="#E0E0E0"/>
  <path d="M81.2667 310.158C81.2667 312.91 79.0359 315.141 76.2841 315.141C73.5323 315.141 71.3015 312.91 71.3015 310.158C71.3015 307.407 73.5323 305.176 76.2841 305.176C79.0359 305.176 81.2667 307.407 81.2667 310.158Z" fill="#E0E0E0" stroke="#E0E0E0"/>
  <path d="M110.174 257.816L76.284 310.159L197.64 329.638L302.024 230.976L293.804 174.877L353.364 169.18L247.54 100.588L108.336 143.557L99.0577 215.038L110.174 257.816Z" stroke="#E0E0E0" stroke-linecap="round" stroke-linejoin="round"/>
  <path d="M210.555 71.5518L247.541 100.58" stroke="#E0E0E0" stroke-linecap="round" stroke-linejoin="round"/>
  <path d="M197.64 329.638L188.243 271.9" stroke="#E0E0E0" stroke-linecap="round" stroke-linejoin="round"/>
  <path d="M108.336 143.557L140.284 172.458" stroke="#E0E0E0" stroke-linecap="round" stroke-linejoin="round"/>
  <path d="M281.327 389.079C304.087 389.079 322.538 386.094 322.538 382.411C322.538 378.728 304.087 375.743 281.327 375.743C258.567 375.743 240.116 378.728 240.116 382.411C240.116 386.094 258.567 389.079 281.327 389.079Z" fill="#B75400"/>
  <path d="M260.88 260.88C294.503 227.257 294.503 172.743 260.88 139.12C227.257 105.497 172.743 105.497 139.12 139.12C105.496 172.743 105.496 227.257 139.12 260.88C172.743 294.503 227.257 294.503 260.88 260.88Z" fill="white"/>
  <path d="M260.88 260.88C294.503 227.257 294.503 172.743 260.88 139.12C227.257 105.497 172.743 105.497 139.12 139.12C105.496 172.743 105.496 227.257 139.12 260.88C172.743 294.503 227.257 294.503 260.88 260.88Z" fill="#E2BB99" stroke="#263238" stroke-linecap="round" stroke-linejoin="round"/>
  <path d="M200.061 248.137C187.23 248.137 174.925 243.04 165.852 233.968C156.779 224.895 151.682 212.589 151.682 199.758C151.682 186.928 156.779 174.622 165.852 165.549C174.925 156.477 187.23 151.38 200.061 151.38C212.892 151.38 225.197 156.477 234.27 165.549C243.343 174.622 248.44 186.928 248.44 199.758C248.44 212.589 243.343 224.895 234.27 233.968C225.197 243.04 212.892 248.137 200.061 248.137Z" fill="#F5F5F5" stroke="#B75400" stroke-width="1.77864" stroke-miterlimit="10"/>
  <path d="M219.023 160.106C223.559 162.271 227.689 165.2 231.234 168.764L219.023 160.106Z" fill="#F5F5F5"/>
  <path d="M219.023 160.106C223.559 162.271 227.689 165.2 231.234 168.764" stroke="#212121" stroke-width="1.33398" stroke-linecap="round" stroke-linejoin="round"/>
  <path d="M172.826 165.265C173.827 164.469 174.884 163.715 175.981 162.987C181.833 159.15 188.517 156.766 195.477 156.036C202.436 155.306 209.47 156.25 215.991 158.789" fill="#F5F5F5"/>
  <path d="M172.826 165.265C173.827 164.469 174.884 163.715 175.981 162.987C181.833 159.15 188.517 156.766 195.477 156.036C202.436 155.306 209.47 156.25 215.991 158.789" stroke="#212121" stroke-width="1.33398" stroke-linecap="round" stroke-linejoin="round"/>
  <path d="M194.71 243.376C188.371 242.599 182.278 240.448 176.856 237.073C171.434 233.699 166.814 229.182 163.317 223.838C158.375 216.305 155.87 207.433 156.143 198.428C156.415 189.422 159.452 180.718 164.84 173.497" fill="#F5F5F5"/>
  <path d="M194.71 243.376C188.371 242.599 182.278 240.448 176.856 237.073C171.434 233.699 166.814 229.182 163.317 223.838V223.838C158.375 216.305 155.87 207.433 156.143 198.428C156.415 189.422 159.452 180.718 164.84 173.497" stroke="#212121" stroke-width="1.33398" stroke-linecap="round" stroke-linejoin="round"/>
  <path d="M210.955 242.347C208.096 243.102 205.168 243.561 202.215 243.719L210.955 242.347Z" fill="#F5F5F5"/>
  <path d="M210.955 242.347C208.096 243.102 205.168 243.561 202.215 243.719" stroke="#212121" stroke-width="1.33398" stroke-linecap="round" stroke-linejoin="round"/>
  <path d="M231.234 168.764C233.319 170.863 235.193 173.161 236.832 175.624C240 180.451 242.186 185.855 243.263 191.528C244.34 197.2 244.287 203.03 243.108 208.682C241.929 214.334 239.647 219.698 236.392 224.468C233.138 229.237 228.974 233.317 224.14 236.475C220.967 238.549 217.541 240.209 213.946 241.414" fill="#F5F5F5"/>
  <path d="M231.234 168.764C233.319 170.863 235.193 173.161 236.832 175.624V175.624C240 180.451 242.186 185.855 243.263 191.528C244.34 197.2 244.287 203.03 243.108 208.682C241.929 214.334 239.647 219.698 236.392 224.468C233.138 229.237 228.974 233.317 224.14 236.475C220.967 238.549 217.541 240.209 213.946 241.414" stroke="#212121" stroke-width="1.33398" stroke-linecap="round" stroke-linejoin="round"/>
  <path d="M200.836 224.171C200.254 224.171 199.684 224.095 199.136 223.947C198.283 223.717 197.457 223.334 196.55 222.744C196.414 222.656 195.551 221.912 195.067 221.496L195.056 221.485C194.964 221.409 194.888 221.343 194.834 221.294C194.307 221.551 193.807 221.896 193.318 222.235C192.335 222.919 191.314 223.619 190.005 223.668C188.881 223.712 187.691 223.531 186.328 223.121C186.208 223.088 185.942 222.973 185.508 222.798C185.024 222.596 184.296 222.344 184.057 222.246C184.036 222.235 183.943 222.18 183.911 222.082C183.878 221.989 183.878 221.841 183.894 221.808C184.796 221.113 185.665 220.282 186.507 219.472C187.061 218.941 187.637 218.389 188.213 217.885C188.413 217.71 188.598 217.519 188.777 217.311L189.071 216.933C190.624 214.8 191.276 211.342 191.64 208.771C191.982 206.375 191.797 203.885 191.596 201.741C191.227 197.78 189.972 194.908 187.751 192.949C186.719 192.041 185.562 191.302 184.465 190.629L183.987 190.339C182.868 189.656 181.716 188.95 180.668 188.113C180.549 188.02 180.5 187.872 180.538 187.73C180.711 187.051 183.645 186.1 183.672 186.094C184.199 186.012 184.769 185.968 185.41 185.968C186.138 185.968 186.865 186.023 187.55 186.072C189.217 186.203 190.293 186.964 191.439 187.774C191.841 188.058 192.254 188.348 192.704 188.622L192.748 188.572C192.884 188.397 192.981 188.184 193.09 187.96C193.237 187.648 193.389 187.325 193.655 187.062C194.285 186.444 195.056 186.275 195.665 186.198C195.887 186.171 196.088 186.154 196.289 186.154C197.408 186.154 198.104 186.614 198.978 187.205C199.114 187.292 199.25 187.385 199.396 187.484C199.76 187.719 200.07 187.839 200.32 187.839C200.738 187.839 200.988 187.522 201.373 187.002C201.781 186.45 202.237 185.826 203.111 185.722C204.013 185.618 204.725 186.078 205.344 186.482C205.816 186.789 206.267 187.084 206.723 187.084C207.087 187.084 207.462 186.898 207.864 186.51C208.358 186.034 208.771 185.673 209.271 185.673C209.624 185.673 209.977 185.853 210.379 186.242L210.471 186.329C211.34 187.166 211.579 187.402 212.671 186.816C213.502 186.373 214.561 186.094 215.441 186.094C216.94 186.094 217.869 186.876 217.923 188.228L217.788 188.266L217.549 188.343C217.44 188.386 217.38 188.397 217.283 188.441C216.12 188.797 212.606 190.772 212.253 191.045C211.074 191.948 209.966 193.108 209.135 194.311C205.914 198.962 205.974 205.587 207.006 209.849C207.549 212.092 208.277 214.707 209.586 217.141C210.167 218.225 210.846 219.231 211.596 220.134L211.672 220.227C213.47 222.399 213.866 222.486 213.98 222.601C214.051 222.672 214.1 222.722 214.11 222.787C214.127 222.93 213.969 223.039 213.85 223.105C213.692 223.187 213.524 223.241 213.35 223.28C213.182 223.318 213.073 223.334 212.85 223.373C212.666 223.406 212.476 223.422 212.285 223.438C211.471 223.499 210.667 223.531 209.852 223.449C209.347 223.395 208.842 223.334 208.342 223.241C207.739 223.132 206.463 222.864 205.751 222.437L205.284 222.7C204.551 223.203 203.204 223.761 203.03 223.821C202.324 224.046 201.58 224.171 200.836 224.171ZM195.236 220.987C195.692 221.387 196.697 222.246 196.811 222.322C197.674 222.886 198.451 223.252 199.255 223.466C200.412 223.778 201.688 223.734 202.894 223.334C203.052 223.285 204.442 222.7 205.078 222.235L204.936 221.95C204.41 220.883 203.682 219.423 203.312 218.345C203.231 218.115 203.155 217.896 203.079 217.694C202.666 216.55 202.346 215.642 202.346 214.045V212.683L205.55 221.288C205.626 221.441 205.697 221.617 205.757 221.792H205.762C206.017 222.158 207.326 222.541 208.434 222.744C210.308 223.083 212.014 223.088 213.355 222.744C212.954 222.421 212.334 221.781 211.297 220.533L211.221 220.446C210.45 219.521 209.754 218.487 209.151 217.371C207.815 214.893 207.077 212.234 206.528 209.964C205.474 205.603 205.42 198.814 208.733 194.027C209.597 192.779 210.743 191.581 211.954 190.646C212.258 190.411 216.229 188.206 217.369 187.943C217.185 186.827 216.234 186.581 215.436 186.581C214.632 186.581 213.66 186.833 212.894 187.243C211.509 187.982 211.042 187.56 210.124 186.679L210.031 186.592C209.727 186.302 209.477 186.16 209.26 186.16C208.945 186.16 208.603 186.461 208.195 186.86C207.701 187.336 207.218 187.571 206.718 187.571C206.115 187.571 205.583 187.227 205.072 186.893C204.491 186.515 203.894 186.121 203.16 186.209C202.498 186.286 202.139 186.772 201.759 187.292C201.384 187.801 200.999 188.332 200.314 188.332C199.967 188.332 199.575 188.189 199.125 187.899C198.978 187.801 198.837 187.708 198.701 187.62C197.826 187.041 197.251 186.652 196.278 186.652C196.105 186.652 195.915 186.663 195.719 186.69C194.921 186.794 194.405 187.013 193.992 187.418C193.791 187.62 193.66 187.889 193.525 188.173C193.438 188.359 193.345 188.55 193.226 188.731C194.323 190.487 194.937 192.593 195.132 193.89C195.469 196.133 194.915 197.359 194.388 198.546L193.986 199.443L192.618 189.141C192.085 188.835 191.607 188.496 191.146 188.173C190.059 187.407 189.033 186.685 187.501 186.565C186.822 186.51 186.105 186.461 185.399 186.461C184.785 186.461 184.242 186.499 183.737 186.581C183.438 186.647 181.445 187.418 181.054 187.795C182.053 188.583 183.161 189.262 184.231 189.913L184.709 190.203C185.823 190.887 187.001 191.636 188.06 192.572C190.38 194.612 191.689 197.594 192.069 201.686C192.27 203.858 192.455 206.386 192.107 208.831C191.787 211.101 191.298 213.717 190.298 215.785L192.797 213.503C193.047 213.273 193.383 213.011 193.655 212.792L195.002 211.72L193.22 214.4C192.819 214.767 192.514 215.057 192.194 215.516C191.868 215.987 191.336 216.386 190.95 216.682C190.537 216.994 190.081 217.158 189.446 217.229C189.168 217.606 188.859 217.946 188.522 218.241C187.952 218.739 187.381 219.286 186.833 219.811C186.1 220.511 185.35 221.234 184.562 221.874C184.818 221.967 185.171 222.114 185.681 222.322C186.024 222.465 186.349 222.601 186.453 222.629C187.767 223.023 188.902 223.198 189.972 223.159C191.146 223.116 192.058 222.486 193.03 221.813C193.568 221.441 194.122 221.059 194.73 220.779L197.463 210.336V212.239C197.463 214.121 197.338 214.937 197.158 215.889C197.05 216.474 196.756 217.223 196.496 217.891C196.355 218.246 196.224 218.586 196.137 218.865C195.98 219.352 195.822 219.685 195.616 220.112C195.518 220.369 195.388 220.643 195.236 220.987ZM203.052 215.971C203.177 216.496 203.35 216.977 203.551 217.535C203.627 217.743 203.704 217.962 203.785 218.192C203.981 218.766 204.285 219.456 204.605 220.139L203.052 215.971ZM196.887 214.532L196.045 217.749C196.05 217.738 196.05 217.727 196.056 217.721C196.306 217.076 196.594 216.343 196.691 215.806C196.767 215.396 196.838 215.002 196.887 214.532ZM192.216 214.723L190.195 216.567C190.369 216.496 190.521 216.408 190.668 216.299C191.026 216.025 191.52 215.653 191.803 215.248C191.939 215.046 192.074 214.876 192.216 214.723ZM193.21 189.656L194.252 197.638C194.638 196.686 194.91 195.641 194.66 193.956C194.497 192.867 194.03 191.187 193.21 189.656ZM206.316 218.722C206.115 218.268 206.012 217.809 205.914 217.366L205.838 217.026L205.67 216.441C205.659 216.392 205.643 216.348 205.626 216.299C205.485 215.916 205.3 215.582 205.121 215.254C204.915 214.876 204.703 214.482 204.545 214.012C203.948 212.207 203.546 210.642 203.546 208.88V207.108L206.164 216.403C206.218 216.567 206.267 216.742 206.305 216.912L206.767 218.547L206.316 218.722ZM200.455 202.578L201.835 199.52C201.971 199.005 202.063 198.376 202.161 197.769C202.264 197.096 202.362 196.461 202.519 196.051C202.976 194.858 203.97 194.131 204.926 193.431C205.409 193.08 205.86 192.747 206.251 192.358L207.5 191.116L202.666 199.717C202.476 200.368 201.601 202.102 201.026 202.343L200.455 202.578ZM205.55 193.584C205.436 193.666 205.322 193.753 205.208 193.835C204.263 194.525 203.372 195.176 202.97 196.232C202.834 196.587 202.742 197.2 202.639 197.846C202.574 198.283 202.503 198.726 202.416 199.153L205.55 193.584ZM207.153 192.314L207.506 191.177C207.783 190.279 208.608 188.178 210.221 188.085L210.797 188.053L207.153 192.314ZM209.428 188.901C209.135 189.119 208.858 189.442 208.608 189.858L209.428 188.901Z" fill="#212121"/>
  <path d="M184.269 223.203C186.681 227.629 193.481 228.608 197.946 228.718C199.651 228.762 201.373 228.652 203.063 228.433C203.964 228.313 204.817 228.056 205.746 227.793C207.337 227.339 208.929 226.841 210.433 226.141C211.775 225.512 213.676 224.866 214.078 223.143C213.355 224.341 207.527 223.657 206.647 223.23C206.099 222.962 206.153 222.869 205.702 223.307C204.306 224.669 201.846 225.107 200.021 224.768C198.549 224.494 196.561 223.34 195.377 222.415C194.921 222.054 195.138 221.874 194.502 222.175C193.079 222.842 192.069 223.739 190.434 224.007C188.729 224.286 187.142 223.98 185.241 223.132C184.769 222.924 184.579 222.897 184.041 222.536L184.269 223.203Z" fill="#212121"/>
  <path d="M180.733 187.101C183.596 183.189 188.31 181.783 192.748 180.547C195.007 179.917 196.887 179.529 199.271 179.529C201.352 179.529 203.378 180.021 205.404 180.432C207.44 180.842 209.526 181.165 211.33 182.27C212.492 182.981 213.861 183.359 215.023 184.086C215.414 184.332 216.788 184.661 216.614 185.257C216.365 186.105 214.333 185.306 213.692 185.634C212.997 185.99 212.079 186.652 211.286 186.422C210.526 186.203 210.308 185.301 209.456 185.213C208.152 185.082 207.891 186.477 206.588 186.379C205.599 186.302 204.464 185.06 203.465 185.126C202.519 185.186 201.493 186.209 200.792 186.729C199.505 187.692 198.951 186.351 197.848 185.908C197.191 185.645 196.936 185.569 196.213 185.569C194.405 185.569 193.302 186.379 192.275 187.823C192.623 187.33 190.331 186.242 190.103 186.176C189.141 185.908 188.142 185.503 187.148 185.487C184.639 185.443 182.868 185.514 180.733 187.101Z" fill="#212121"/>
  <path d="M199.44 166.098C198.945 165.436 198.337 165.699 197.56 165.737C197.142 166.908 197.528 167.903 197.74 168.894C197.973 169.988 198.174 171.109 198.37 172.138C198.581 173.227 198.663 174.364 198.723 175.563C198.75 176.148 198.777 176.81 198.652 177.368C198.538 177.871 198.196 178.21 198.104 178.703C199.087 178.676 200.146 178.697 201.151 178.643C201.156 178.145 200.83 177.652 200.711 177.182C200.575 176.64 200.662 176.121 200.602 175.563C200.504 174.633 200.276 173.719 200.173 172.729C199.939 170.54 199.575 168.341 199.44 166.098Z" fill="#212121"/>
  <path d="M216.875 170.179C214.181 170.223 211.232 170.354 208.739 171.766C207.571 172.422 206.74 173.248 205.648 174.058C205.099 174.468 204.54 174.829 203.899 175.152C203.253 175.475 202.487 175.53 201.889 175.891L202.204 176.618C203.014 176.389 203.188 176.252 204.019 176.203C204.839 176.153 205.621 176.017 206.517 176.104C207.359 176.186 208.337 176.17 209.141 176.389C210.08 176.646 211.275 176.646 212.237 176.722C214.154 176.87 216.506 176.449 218.423 176.044C219.803 175.749 221.644 175.152 222.703 174.107C223.149 173.664 223.382 173.232 223.915 172.734C224.42 172.258 225.202 171.306 225.577 170.754C225.946 170.207 226.283 169.873 226.63 169.282C226.935 168.768 227.51 167.69 227.521 167.039C224.914 169.993 220.433 170.119 216.875 170.179Z" fill="#212121"/>
  <path d="M300 300C355.228 244.772 355.228 155.228 300 100C244.772 44.7715 155.228 44.7715 100 100C44.7715 155.228 44.7715 244.772 100 300C155.228 355.228 244.772 355.228 300 300Z" stroke="#263238" stroke-linecap="round" stroke-linejoin="round"/>
  <path d="M346.304 240.546C339.09 240.546 332.172 237.68 327.071 232.579C321.97 227.478 319.104 220.56 319.104 213.346C319.104 206.132 321.97 199.214 327.071 194.113C332.172 189.012 339.09 186.146 346.304 186.146C353.518 186.146 360.437 189.012 365.538 194.113C370.638 199.214 373.504 206.132 373.504 213.346C373.504 220.56 370.638 227.478 365.538 232.579C360.437 237.68 353.518 240.546 346.304 240.546Z" fill="#B75400" stroke="#B75400" stroke-miterlimit="10"/>
  <path d="M333.367 234.383C330.959 232.903 328.825 231.018 327.057 228.813" stroke="white" stroke-width="0.75" stroke-linecap="round" stroke-linejoin="round"/>
  <path d="M359.503 234.251C358.886 234.637 358.253 235.023 357.598 235.339C354.098 237.134 350.221 238.067 346.288 238.06C342.355 238.054 338.481 237.107 334.987 235.3" stroke="white" stroke-width="0.75" stroke-linecap="round" stroke-linejoin="round"/>
  <path d="M351.943 189.286C355.44 190.097 358.718 191.663 361.547 193.873C364.376 196.084 366.688 198.886 368.32 202.083V202.083C370.632 206.59 371.502 211.698 370.812 216.716C370.122 221.733 367.906 226.417 364.463 230.132" stroke="white" stroke-width="0.75" stroke-linecap="round" stroke-linejoin="round"/>
  <path d="M342.779 188.885C344.423 188.646 346.087 188.576 347.746 188.676" stroke="white" stroke-width="0.75" stroke-linecap="round" stroke-linejoin="round"/>
  <path d="M327.057 228.812C326.014 227.507 325.105 226.101 324.342 224.616C322.859 221.729 321.96 218.578 321.697 215.343C321.434 212.108 321.811 208.853 322.807 205.764C323.803 202.675 325.398 199.813 327.501 197.342C329.604 194.87 332.174 192.837 335.064 191.36V191.36C336.961 190.388 338.976 189.665 341.058 189.208" stroke="white" stroke-width="0.75" stroke-linecap="round" stroke-linejoin="round"/>
  <path d="M328.307 206.794H332.763C334.487 206.806 335.78 207.537 336.642 208.987C336.95 209.474 337.145 209.986 337.227 210.521C337.291 211.055 337.323 211.98 337.323 213.293C337.323 214.69 337.274 215.664 337.175 216.217C337.128 216.496 337.058 216.746 336.965 216.966C336.866 217.18 336.746 217.403 336.607 217.634C336.234 218.246 335.716 218.752 335.052 219.15C334.394 219.578 333.587 219.792 332.632 219.792H328.307V206.794ZM330.238 217.928H332.544C333.628 217.928 334.414 217.551 334.903 216.796C335.119 216.517 335.256 216.163 335.314 215.735C335.366 215.314 335.392 214.523 335.392 213.364C335.392 212.235 335.366 211.427 335.314 210.939C335.244 210.452 335.078 210.057 334.816 209.754C334.28 208.999 333.523 208.634 332.544 208.657H330.238V217.928Z" fill="white"/>
  <path d="M338.146 213.293C338.146 211.783 338.19 210.773 338.277 210.262C338.37 209.751 338.513 209.338 338.705 209.023C339.014 208.423 339.509 207.888 340.19 207.418C340.86 206.943 341.696 206.699 342.698 206.687C343.711 206.699 344.555 206.943 345.231 207.418C345.901 207.888 346.384 208.423 346.681 209.023C346.897 209.338 347.045 209.751 347.127 210.262C347.203 210.773 347.24 211.783 347.24 213.293C347.24 214.779 347.203 215.783 347.127 216.306C347.045 216.829 346.897 217.248 346.681 217.563C346.384 218.163 345.901 218.692 345.231 219.15C344.555 219.625 343.711 219.875 342.698 219.899C341.696 219.875 340.86 219.625 340.19 219.15C339.509 218.692 339.014 218.163 338.705 217.563C338.612 217.367 338.528 217.18 338.452 217.001C338.382 216.817 338.324 216.585 338.277 216.306C338.19 215.783 338.146 214.779 338.146 213.293ZM340.086 213.293C340.086 214.571 340.132 215.435 340.225 215.887C340.307 216.339 340.473 216.704 340.723 216.984C340.927 217.251 341.195 217.468 341.527 217.634C341.853 217.83 342.243 217.928 342.698 217.928C343.158 217.928 343.557 217.83 343.895 217.634C344.215 217.468 344.471 217.251 344.663 216.984C344.914 216.704 345.086 216.339 345.179 215.887C345.266 215.435 345.31 214.571 345.31 213.293C345.31 212.015 345.266 211.145 345.179 210.681C345.086 210.241 344.914 209.882 344.663 209.602C344.471 209.335 344.215 209.112 343.895 208.934C343.557 208.761 343.158 208.669 342.698 208.657C342.243 208.669 341.853 208.761 341.527 208.934C341.195 209.112 340.927 209.335 340.723 209.602C340.473 209.882 340.307 210.241 340.225 210.681C340.132 211.145 340.086 212.015 340.086 213.293Z" fill="white"/>
  <path d="M354.153 215.138L352.309 209.46H352.274L350.431 215.138H354.153ZM354.703 216.885H349.872L348.893 219.792H346.849L351.479 206.794H353.095L357.726 219.792H355.69L354.703 216.885Z" fill="white"/>
  <path d="M359.324 217.055C359.505 217.299 359.738 217.498 360.023 217.652C360.309 217.836 360.643 217.928 361.028 217.928C361.54 217.94 362.03 217.759 362.495 217.385C362.723 217.2 362.9 216.957 363.028 216.654C363.162 216.362 363.229 215.997 363.229 215.557V206.794H365.16V215.753C365.137 217.061 364.717 218.071 363.902 218.784C363.092 219.515 362.152 219.887 361.08 219.899C359.601 219.863 358.497 219.298 357.769 218.205L359.324 217.055Z" fill="white"/>
  <path d="M127.97 110.519C120.756 110.519 113.838 107.654 108.737 102.553C103.636 97.4518 100.77 90.5333 100.77 83.3195C100.77 76.1056 103.636 69.1872 108.737 64.0862C113.838 58.9852 120.756 56.1195 127.97 56.1195C135.184 56.1195 142.102 58.9852 147.203 64.0862C152.304 69.1872 155.17 76.1056 155.17 83.3195C155.17 90.5333 152.304 97.4518 147.203 102.553C142.102 107.654 135.184 110.519 127.97 110.519Z" fill="#B75400" stroke="#B75400" stroke-miterlimit="10"/>
  <path d="M115.157 62.1827C117.57 60.7104 120.219 59.6664 122.987 59.097" stroke="white" stroke-width="0.75" stroke-linecap="round" stroke-linejoin="round"/>
  <path d="M103.362 85.5027C103.301 84.7852 103.27 84.0524 103.27 83.3196C103.267 79.3857 104.204 75.5081 106.004 72.0099C107.803 68.5117 110.412 65.4942 113.614 63.2089" stroke="white" stroke-width="0.75" stroke-linecap="round" stroke-linejoin="round"/>
  <path d="M146.824 99.2879C144.507 102.03 141.62 104.233 138.363 105.743C135.107 107.253 131.56 108.032 127.97 108.028V108.028C122.908 108.029 117.968 106.476 113.817 103.579C109.666 100.682 106.504 96.5801 104.759 91.8284" stroke="white" stroke-width="0.75" stroke-linecap="round" stroke-linejoin="round"/>
  <path d="M151.359 91.3114C150.82 92.8832 150.124 94.3972 149.284 95.831" stroke="white" stroke-width="0.75" stroke-linecap="round" stroke-linejoin="round"/>
  <path d="M122.987 59.1125C124.627 58.7769 126.296 58.6089 127.97 58.6111V58.6111C134.517 58.6111 140.796 61.2119 145.425 65.8412C150.055 70.4706 152.655 76.7494 152.655 83.2963C152.656 85.4287 152.381 87.5522 151.838 89.6141" stroke="white" stroke-width="0.75" stroke-linecap="round" stroke-linejoin="round"/>
  <path d="M113.828 87.4586C113.137 88.1407 112.397 88.4817 111.607 88.4817C110.935 88.4817 110.388 88.2719 109.968 87.8521C109.548 87.4324 109.338 86.8887 109.338 86.2209C109.338 85.3528 109.676 84.6851 110.353 84.2176C111.035 83.7454 112.009 83.5093 113.274 83.5093H113.828V82.7939C113.828 81.9783 113.373 81.5705 112.462 81.5705C111.654 81.5705 110.837 81.8042 110.01 82.2716V80.8121C110.949 80.4496 111.878 80.2683 112.798 80.2683C114.811 80.2683 115.817 81.0863 115.817 82.7223V86.1994C115.817 86.8147 116.011 87.1224 116.399 87.1224C116.469 87.1224 116.56 87.1128 116.672 87.0938L116.721 88.2814C116.282 88.415 115.894 88.4817 115.558 88.4817C114.708 88.4817 114.162 88.1407 113.919 87.4586H113.828ZM113.828 86.3211V84.7256H113.338C111.997 84.7256 111.327 85.1549 111.327 86.0134C111.327 86.3044 111.423 86.55 111.614 86.7503C111.81 86.9459 112.051 87.0437 112.336 87.0437C112.821 87.0437 113.319 86.8028 113.828 86.3211Z" fill="white"/>
  <path d="M118.493 88.3029V80.4472H120.567V81.9282C121.104 80.8216 121.921 80.2683 123.018 80.2683C123.149 80.2683 123.277 80.2826 123.403 80.3113V82.2001C123.109 82.0904 122.836 82.0355 122.584 82.0355C121.757 82.0355 121.085 82.4624 120.567 83.3162V88.3029H118.493Z" fill="white"/>
  <path d="M124.069 88.3029L127.389 83.0872L124.216 77.7142H126.731L128.839 81.2771L131.123 77.7142H132.867L129.687 82.708L132.979 88.3029H130.471L128.223 84.5181L125.813 88.3029H124.069Z" fill="white"/>
  <path d="M134.59 88.3029V80.4472H136.664V88.3029H134.59ZM134.59 79.1236V77.3564H136.664V79.1236H134.59Z" fill="white"/>
  <path d="M141.154 88.3029L138.219 80.4472H140.404L142.555 86.1136L144.691 80.4472H146.19L143.227 88.3029H141.154Z" fill="white"/>
  <path d="M131.708 48.0884H135.687C137.287 48.0884 138.821 47.4529 139.952 46.3217C141.083 45.1906 141.719 43.6564 141.719 42.0567C141.719 40.4571 141.083 38.9229 139.952 37.7918C138.821 36.6606 137.287 36.0251 135.687 36.0251H135.353C134.884 34.5894 133.973 33.3388 132.75 32.452C131.527 31.5652 130.056 31.0876 128.545 31.0876C127.035 31.0876 125.563 31.5652 124.341 32.452C123.118 33.3388 122.207 34.5894 121.738 36.0251H121.404C120.612 36.0251 119.827 36.1812 119.095 36.4843C118.364 36.7874 117.699 37.2317 117.139 37.7918C116.579 38.3518 116.134 39.0168 115.831 39.7486C115.528 40.4803 115.372 41.2647 115.372 42.0567C115.372 42.8488 115.528 43.6332 115.831 44.3649C116.134 45.0967 116.579 45.7617 117.139 46.3217C117.699 46.8818 118.364 47.3261 119.095 47.6292C119.827 47.9323 120.612 48.0884 121.404 48.0884H123.059" stroke="#263238" stroke-linecap="round" stroke-linejoin="round"/>
  <path d="M134.78 42.9565L127.395 35.5721L120.011 42.9565H124.419V48.9324H130.372V42.9565H134.78Z" fill="#B75400" stroke="#263238" stroke-linecap="round" stroke-linejoin="round"/>
  <path d="M130.775 351.104C127.201 351.107 123.661 350.406 120.359 349.04C117.056 347.674 114.055 345.671 111.527 343.145C108.998 340.619 106.993 337.62 105.624 334.318C104.256 331.017 103.552 327.478 103.552 323.904C103.552 320.33 104.256 316.791 105.624 313.49C106.993 310.188 108.998 307.188 111.527 304.662C114.055 302.136 117.056 300.133 120.359 298.768C123.661 297.402 127.201 296.701 130.775 296.704C137.989 296.704 144.907 299.57 150.008 304.671C155.109 309.772 157.975 316.69 157.975 323.904C157.975 331.118 155.109 338.036 150.008 343.137C144.907 348.238 137.989 351.104 130.775 351.104Z" fill="#B75400" stroke="#B75400" stroke-miterlimit="10"/>
  <path d="M117.939 302.775C120.351 301.302 123 300.258 125.768 299.689" stroke="white" stroke-width="0.75" stroke-linecap="round" stroke-linejoin="round"/>
  <path d="M106.136 326.095C106.074 325.37 106.043 324.644 106.043 323.904C106.041 319.97 106.978 316.092 108.777 312.594C110.577 309.096 113.186 306.079 116.388 303.793" stroke="white" stroke-width="0.75" stroke-linecap="round" stroke-linejoin="round"/>
  <path d="M149.605 339.872C147.289 342.609 144.405 344.809 141.153 346.318C137.901 347.827 134.36 348.61 130.775 348.612C125.711 348.619 120.769 347.068 116.616 344.17C112.464 341.272 109.304 337.167 107.563 332.413" stroke="white" stroke-width="0.75" stroke-linecap="round" stroke-linejoin="round"/>
  <path d="M154.133 331.896C153.599 333.47 152.904 334.985 152.058 336.415" stroke="white" stroke-width="0.75" stroke-linecap="round" stroke-linejoin="round"/>
  <path d="M125.768 299.697C127.408 299.361 129.078 299.193 130.751 299.196V299.196C137.298 299.196 143.577 301.796 148.206 306.426C152.836 311.055 155.437 317.334 155.437 323.881C155.438 326.013 155.163 328.137 154.619 330.199" stroke="white" stroke-width="0.75" stroke-linecap="round" stroke-linejoin="round"/>
  <path d="M111.896 314.848H147.357L129.626 307.51L111.896 314.848Z" fill="white"/>
  <path d="M111.896 316.124V317.72H147.357V316.124H111.896Z" fill="white"/>
  <path d="M111.896 333.033V334.628H147.357V333.033H111.896Z" fill="white"/>
  <path d="M121.262 323.755C121.262 323.217 121.118 322.834 120.83 322.605C120.547 322.376 120.148 322.262 119.633 322.262H117.6V325.304H119.633C120.148 325.304 120.547 325.18 120.83 324.933C121.118 324.685 121.262 324.292 121.262 323.755ZM123.423 323.741C123.423 324.961 123.111 325.823 122.488 326.328C121.864 326.832 120.974 327.085 119.817 327.085H117.6V330.8H115.433V320.467H119.98C121.029 320.467 121.864 320.734 122.488 321.266C123.111 321.799 123.423 322.624 123.423 323.741Z" fill="white"/>
  <path d="M131.69 320.467H134.828V330.8H132.795V323.811C132.795 323.61 132.797 323.33 132.802 322.97C132.806 322.605 132.809 322.325 132.809 322.129L130.833 330.8H128.715L126.752 322.129C126.752 322.325 126.755 322.605 126.759 322.97C126.764 323.33 126.767 323.61 126.767 323.811V330.8H124.734V320.467H127.907L129.805 328.592L131.69 320.467Z" fill="white"/>
  <path d="M136.11 325.718C136.11 323.914 136.599 322.523 137.576 321.547C138.426 320.696 139.508 320.271 140.821 320.271C142.577 320.271 143.862 320.841 144.674 321.981C145.123 322.622 145.364 323.264 145.397 323.909H143.215C143.073 323.414 142.891 323.04 142.669 322.788C142.273 322.339 141.685 322.115 140.906 322.115C140.112 322.115 139.487 322.432 139.029 323.068C138.57 323.699 138.341 324.594 138.341 325.753C138.341 326.912 138.582 327.781 139.064 328.361C139.55 328.935 140.167 329.223 140.913 329.223C141.678 329.223 142.261 328.975 142.662 328.48C142.884 328.213 143.068 327.814 143.215 327.281H145.375C145.186 328.407 144.702 329.323 143.923 330.029C143.149 330.735 142.155 331.087 140.941 331.087C139.439 331.087 138.259 330.611 137.399 329.657C136.54 328.699 136.11 327.386 136.11 325.718Z" fill="white"/>
  <path d="M300.188 145.4L300.188 145.4L300.179 145.398C296.664 144.964 293.391 143.099 290.971 140.128C288.551 137.156 287.151 133.281 287.043 129.215C287.043 129.214 287.043 129.213 287.043 129.212L286.229 74.5454C286.12 65.2818 292.86 57.7582 301.168 57.6814C301.168 57.6814 301.168 57.6814 301.168 57.6814L343.091 57.315C351.742 57.246 358.725 65.2529 358.211 74.8831L354.977 135.283C354.457 144.91 346.656 151.954 338.071 150.744L300.188 145.4Z" fill="#E0E0E0" stroke="black"/>
  <path d="M298.889 89.6788C298.889 89.6788 300.719 84.793 305.318 85.5728C309.917 86.3527 306.4 90.196 304.188 90.5382C304.18 90.5382 303.854 89.1934 298.889 89.6788Z" fill="white" stroke="#263238" stroke-linecap="round" stroke-linejoin="round"/>
  <path d="M295.841 92.4478C295.236 93.0525 293.78 93.1003 294.759 91.7873C295.563 90.734 296.651 89.931 297.894 89.4718C300.074 88.501 300.926 88.676 302.899 88.2623C304.872 87.8485 305.238 88.6363 305.923 89.0103C307.554 89.9015 307.944 90.0527 308.35 90.9518C308.756 91.851 309.209 93.0128 307.944 93.0128C306.679 93.0128 306.711 91.103 305.557 91.1746C304.403 91.2462 303.878 93.0128 303.09 93.0128H302.796C302.119 93.0128 302.087 92.4557 302.493 91.5725C302.899 90.6892 303.353 89.9015 303.353 89.9015C302.69 90.2543 302.159 90.8128 301.841 91.4929C301.3 92.6388 301.204 93.0844 300.249 93.0844C299.294 93.0844 299.326 92.3523 300.313 90.6972C299.739 91.0355 299.265 91.5184 298.936 92.0977C298.459 93.0128 298.204 92.9491 297.568 92.9491C296.772 92.9491 296.772 91.5805 298.268 90.6813C298.268 90.7449 297.942 90.3471 295.841 92.4478Z" fill="white" stroke="#263238" stroke-linecap="round" stroke-linejoin="round"/>
  <path d="M301.602 89.1693C301.602 89.1693 301.021 89.1693 300.663 90.116L301.602 89.1693Z" fill="white"/>
  <path d="M301.602 89.1693C301.602 89.1693 301.021 89.1693 300.663 90.116" stroke="#263238" stroke-linecap="round" stroke-linejoin="round"/>
  <path d="M313.22 152.724L316.403 158.286H319.124L320.318 156.599L317.373 149.438L313.22 152.724Z" fill="white" stroke="#263238" stroke-linecap="round" stroke-linejoin="round"/>
  <path d="M320.763 104.566L317.477 105.8C317.477 105.8 294.067 112.579 293.04 118.325C292.014 124.07 313.665 154.077 313.665 154.077C313.665 154.077 316.275 154.459 318.304 150.997C318.304 150.997 310.665 127.993 307.164 123.481C307.164 123.481 332.85 118.961 334.084 115.675C335.317 112.388 331.895 104.248 331.895 104.248L320.763 104.566Z" fill="#263238" stroke="#263238" stroke-linecap="round" stroke-linejoin="round"/>
  <path d="M314.668 158.175C314.724 158.074 314.804 157.99 314.902 157.928C314.999 157.867 315.11 157.832 315.225 157.825C316.207 157.763 317.162 157.474 318.014 156.981C318.866 156.489 319.592 155.805 320.135 154.984C320.231 154.846 320.376 154.748 320.541 154.71C320.705 154.672 320.878 154.696 321.026 154.777C322.239 155.491 323.258 156.491 323.994 157.689C324.259 158.111 324.352 158.618 324.252 159.105C324.153 159.593 323.869 160.023 323.461 160.307L313.307 167.135C312.767 167.499 312.129 167.693 311.477 167.692H308.955C308.813 167.692 308.674 167.659 308.548 167.594C308.422 167.529 308.313 167.435 308.232 167.32C308.15 167.204 308.097 167.071 308.077 166.931C308.058 166.79 308.072 166.648 308.119 166.514C308.22 166.207 308.397 165.929 308.633 165.708C308.87 165.487 309.158 165.329 309.472 165.249C311.143 164.843 314.334 158.851 314.668 158.175Z" fill="#263238"/>
  <path d="M314.668 158.175C314.724 158.074 314.804 157.99 314.902 157.928C314.999 157.867 315.11 157.832 315.225 157.825C316.207 157.763 317.162 157.474 318.014 156.981C318.866 156.489 319.592 155.805 320.135 154.984C320.231 154.846 320.376 154.748 320.541 154.71C320.705 154.672 320.878 154.696 321.026 154.777C322.239 155.491 323.258 156.491 323.994 157.689C324.259 158.111 324.352 158.618 324.252 159.105C324.153 159.593 323.869 160.023 323.461 160.307L313.307 167.135C312.767 167.499 312.129 167.693 311.477 167.692H308.955C308.813 167.692 308.674 167.659 308.548 167.594C308.422 167.529 308.313 167.435 308.232 167.32C308.15 167.204 308.097 167.071 308.077 166.931C308.058 166.79 308.072 166.648 308.119 166.514C308.22 166.207 308.397 165.929 308.633 165.708C308.87 165.487 309.158 165.329 309.472 165.249C311.143 164.843 314.334 158.851 314.668 158.175Z" fill="#BFBFBF" stroke="#263238" stroke-linecap="round" stroke-linejoin="round"/>
  <path d="M314.668 158.175C314.724 158.074 314.804 157.99 314.902 157.928C314.999 157.867 315.11 157.832 315.225 157.825C316.207 157.763 317.162 157.474 318.014 156.981C318.866 156.489 319.592 155.805 320.135 154.984C320.231 154.846 320.376 154.748 320.541 154.71C320.705 154.672 320.878 154.696 321.026 154.777C322.239 155.491 323.258 156.491 323.994 157.689C324.259 158.111 324.352 158.618 324.252 159.105C324.153 159.593 323.869 160.023 323.461 160.307L313.307 167.135C312.767 167.499 312.129 167.693 311.477 167.692H308.955C308.813 167.692 308.674 167.659 308.548 167.594C308.422 167.529 308.313 167.435 308.232 167.32C308.15 167.204 308.097 167.071 308.077 166.931C308.058 166.79 308.072 166.648 308.119 166.514C308.22 166.207 308.397 165.929 308.633 165.708C308.87 165.487 309.158 165.329 309.472 165.249C311.143 164.843 314.334 158.851 314.668 158.175Z" stroke="#263238" stroke-linecap="round" stroke-linejoin="round"/>
  <path d="M302.183 120.656C302.183 120.656 303.639 120.76 306.089 122.605" stroke="#7F7F7F" stroke-linecap="round" stroke-linejoin="round"/>
  <path d="M311.835 154.077L310.753 162.169L315.567 162.997L318.042 155.039L311.835 154.077Z" fill="white" stroke="#263238" stroke-linecap="round" stroke-linejoin="round"/>
  <path d="M328.466 106.731C328.76 107.845 328.251 111.506 327.224 112.023C323.246 114.132 316.673 119.733 315.217 125.725C313.371 133.317 311.318 156.528 311.318 156.528C311.318 156.528 312.965 159.194 317.278 157.96C317.278 157.96 325.283 138.656 325.896 129.211C330.04 126.462 334.446 124.13 339.049 122.248C342.932 120.784 345.049 118.349 345.821 116.264C347.873 110.694 343.768 101.686 343.768 101.686L328.569 104.742L328.466 106.731Z" fill="#263238" stroke="#263238" stroke-linecap="round" stroke-linejoin="round"/>
  <path d="M322.163 126.751C323.221 126.869 324.21 127.336 324.972 128.08" stroke="#7F7F7F" stroke-linecap="round" stroke-linejoin="round"/>
  <path d="M310.546 160.172C310.459 160.096 310.354 160.045 310.241 160.023C310.128 160 310.011 160.008 309.902 160.045C308.525 160.514 303.456 162.145 300.528 162.01C298.395 161.907 297.727 163.116 297.528 164.039C297.502 164.167 297.502 164.298 297.528 164.425C297.554 164.553 297.606 164.673 297.681 164.78C297.755 164.886 297.851 164.976 297.961 165.045C298.072 165.113 298.195 165.158 298.324 165.177L314.787 167.668C315.278 167.745 315.779 167.631 316.187 167.347C316.594 167.064 316.877 166.634 316.976 166.148C317.276 164.769 317.233 163.337 316.848 161.978C316.797 161.817 316.686 161.68 316.539 161.596C316.392 161.512 316.218 161.487 316.053 161.525C315.093 161.74 314.096 161.73 313.14 161.495C312.185 161.261 311.297 160.808 310.546 160.172Z" fill="#263238"/>
  <path d="M310.546 160.172C310.459 160.096 310.354 160.045 310.241 160.023C310.128 160 310.011 160.008 309.902 160.045C308.525 160.514 303.456 162.145 300.528 162.01C298.395 161.907 297.727 163.116 297.528 164.039C297.502 164.167 297.502 164.298 297.528 164.425C297.554 164.553 297.606 164.673 297.681 164.78C297.755 164.886 297.851 164.976 297.961 165.045C298.072 165.113 298.195 165.158 298.324 165.177L314.787 167.668C315.278 167.745 315.779 167.631 316.187 167.347C316.594 167.064 316.877 166.634 316.976 166.148C317.276 164.769 317.233 163.337 316.848 161.978C316.797 161.817 316.686 161.68 316.539 161.596C316.392 161.512 316.218 161.487 316.053 161.525C315.093 161.74 314.096 161.73 313.14 161.495C312.185 161.261 311.297 160.808 310.546 160.172Z" fill="#BFBFBF" stroke="#263238" stroke-linecap="round" stroke-linejoin="round"/>
  <path d="M310.546 160.172C310.459 160.096 310.354 160.045 310.241 160.023C310.128 160 310.011 160.008 309.902 160.045C308.525 160.514 303.456 162.145 300.528 162.01C298.395 161.907 297.727 163.116 297.528 164.039C297.502 164.167 297.502 164.298 297.528 164.425C297.554 164.553 297.606 164.673 297.681 164.78C297.755 164.886 297.851 164.976 297.961 165.045C298.072 165.113 298.195 165.158 298.324 165.177L314.787 167.668C315.278 167.745 315.779 167.631 316.187 167.347C316.594 167.064 316.877 166.634 316.976 166.148C317.276 164.769 317.233 163.337 316.848 161.978C316.797 161.817 316.686 161.68 316.539 161.596C316.392 161.512 316.218 161.487 316.053 161.525C315.093 161.74 314.096 161.73 313.14 161.495C312.185 161.261 311.297 160.808 310.546 160.172Z" stroke="#263238" stroke-linecap="round" stroke-linejoin="round"/>
  <path d="M318.312 120.036C321.113 115.953 325.339 113.066 330.161 111.943" stroke="#7F7F7F" stroke-linecap="round" stroke-linejoin="round"/>
  <path d="M346.027 104.98C333.495 108.474 317.477 105.776 317.477 105.776C317.749 103.45 317.688 101.098 317.294 98.7896H332.031C332.557 98.7916 333.078 98.6892 333.564 98.4885C334.05 98.2877 334.492 97.9925 334.863 97.6199C335.599 96.8736 336.011 95.8671 336.009 94.8189H316.554C316.029 92.4318 315.312 89.7104 314.397 86.7025C313.593 83.8766 313.06 80.9802 312.806 78.053L307.793 87.1083C307.793 87.1083 307.156 89.3125 303.949 89.3762C300.743 89.4398 301.109 88.2781 303.886 79.2306C305.631 73.9955 308.374 69.1478 311.962 64.9553C312.111 64.7804 312.312 64.6577 312.535 64.6052C312.535 64.5336 312.535 64.4938 312.535 64.4938C333.081 59.1863 341.921 65.751 341.921 65.751C336.168 82.4613 346.027 104.98 346.027 104.98Z" fill="#B75400" stroke="#263238" stroke-linecap="round" stroke-linejoin="round"/>
  <path d="M317.326 90.8323C317.326 90.8323 314.604 92.4795 315.392 92.8614C316.713 93.5059 319.586 91.4768 319.586 91.4768C319.586 91.4768 322.713 91.27 321.121 90.5538L319.53 89.8376L317.326 90.8323Z" fill="white"/>
  <path opacity="0.2" d="M317.326 90.8323C317.326 90.8323 314.604 92.4795 315.392 92.8614C316.713 93.5059 319.586 91.4768 319.586 91.4768C319.586 91.4768 322.713 91.27 321.121 90.5538L319.53 89.8376L317.326 90.8323Z" fill="black"/>
  <path d="M317.326 90.8323C317.326 90.8323 314.604 92.4795 315.392 92.8614C316.713 93.5059 319.586 91.4768 319.586 91.4768C319.586 91.4768 322.713 91.27 321.121 90.5538L319.53 89.8376L317.326 90.8323Z" stroke="#263238" stroke-linecap="round" stroke-linejoin="round"/>
  <path d="M320.89 66.1648C320.89 66.1648 322.482 73.406 324.471 73.406C326.461 73.406 330.606 62.5125 330.606 62.5125L327.853 60.6266L320.89 66.1648Z" fill="white"/>
  <path d="M316.458 59.9821C316.642 60.8872 316.936 61.7664 317.333 62.6C318.694 65.1941 320.62 69.4035 323.174 68.743C325.434 68.1622 328.784 64.7644 329.15 62.7273C329.352 61.5754 329.475 60.4109 329.516 59.2421L316.458 59.9821Z" fill="#263238" stroke="#263238" stroke-linecap="round" stroke-linejoin="round"/>
  <path d="M320.89 66.1648C320.89 66.1648 322.482 73.406 324.471 73.406C326.461 73.406 330.606 62.5125 330.606 62.5125L327.853 60.6266L320.89 66.1648Z" stroke="#263238" stroke-linecap="round" stroke-linejoin="round"/>
  <path d="M317.119 44.911C317.119 44.911 311.421 46.5024 312.432 55.3827C313.482 64.645 314.819 61.0483 314.23 62.9501C313.642 64.8519 322.649 65.011 322.649 65.011C322.649 65.011 330.519 64.0402 332.906 65.759C335.293 67.4778 336.678 63.3718 335.755 60.6266C334.832 57.8813 331.522 52.7568 330.575 48.6111C329.214 42.675 320.66 42.8341 317.119 44.911Z" fill="#263238" stroke="#263238" stroke-linecap="round" stroke-linejoin="round"/>
  <path d="M315.392 52.4066C315.392 52.4066 315.392 58.9793 316.713 61.653C318.034 64.3266 319.777 68.6315 322.482 68.1381C324.869 67.6846 328.649 64.5096 329.158 62.4805C329.463 61.2713 329.668 60.0391 329.771 58.7963C330.065 58.669 330.988 59.3772 331.41 57.0537C331.569 56.2102 332.373 53.7196 330.543 53.3535C328.561 52.9716 328.577 55.8203 328.577 55.8203L325.665 48.4041L318.933 47.2742L316.681 48.3007L315.392 52.4066Z" fill="white" stroke="#263238" stroke-linecap="round" stroke-linejoin="round"/>
  <path d="M319.641 58.8042C319.538 59.6531 319.351 60.4899 319.084 61.3023C319.047 61.4373 319.063 61.5816 319.13 61.7047C319.197 61.8279 319.309 61.9203 319.442 61.9626L320.818 62.3684" stroke="#263238" stroke-linecap="round" stroke-linejoin="round"/>
  <path d="M321.893 63.7537C321.893 63.7537 324.439 63.6821 325.473 62.2581" stroke="#263238" stroke-linecap="round" stroke-linejoin="round"/>
  <path d="M316.602 56.7592C316.661 56.6294 316.745 56.5125 316.849 56.4153C316.954 56.3181 317.077 56.2426 317.211 56.193C317.344 56.1435 317.487 56.1209 317.629 56.1266C317.772 56.1323 317.912 56.1661 318.042 56.2262" stroke="#263238" stroke-linecap="round" stroke-linejoin="round"/>
  <path d="M321.05 55.7646C321.05 55.7646 322.315 54.8577 324.009 56.1226" stroke="#263238" stroke-linecap="round" stroke-linejoin="round"/>
  <path d="M317.986 58.7644C318.034 59.1145 317.938 59.4327 317.755 59.4566C317.572 59.4804 317.389 59.21 317.334 58.8519C317.278 58.4939 317.389 58.1837 317.564 58.1598C317.739 58.1359 317.93 58.4064 317.986 58.7644Z" fill="#263238"/>
  <path d="M322.554 58.4939C322.609 58.8519 322.506 59.1622 322.331 59.1861C322.156 59.2099 321.957 58.9394 321.909 58.5894C321.861 58.2393 321.957 57.9132 322.14 57.8893C322.323 57.8654 322.482 58.1359 322.554 58.4939Z" fill="#263238"/>
  <path d="M314.962 48.4042C314.962 48.4042 312.758 54.205 315.989 54.0538C319.219 53.9027 321.964 51.8258 325.179 53.5366C328.394 55.2474 324.67 50.3537 324.67 50.3537C324.67 50.3537 327.956 53.847 327.853 56.258C327.749 58.6691 329.031 54.77 328.824 53.4889C328.617 52.2078 326.46 45.8579 326.46 45.8579L322.975 45.0621L317.007 45.6748L314.962 48.4042Z" fill="#263238" stroke="#263238" stroke-linecap="round" stroke-linejoin="round"/>
  <path d="M329.405 61.5257C329.19 62.4567 325.824 65.7828 328.052 66.4751C330.28 67.1674 335.134 66.4751 335.866 64.0004C336.598 61.5257 334.275 60.2207 334.275 60.2207C334.275 60.2207 329.683 60.2844 329.405 61.5257Z" fill="#263238" stroke="#263238" stroke-linecap="round" stroke-linejoin="round"/>
  <path d="M329.906 88.5962L322.514 88.9622C322.514 88.9622 316.299 87.4424 314.191 87.5697C312.55 87.7638 310.955 88.2347 309.472 88.9622C308.803 89.4595 308.287 90.1351 307.984 90.9118C307.922 91.2939 307.922 91.6834 307.984 92.0656C307.983 92.2673 308.06 92.4617 308.197 92.6094C308.334 92.7571 308.523 92.8472 308.724 92.8613C310.14 92.9647 312.488 93.0921 313.045 92.3918C313.045 92.3918 312.583 92.9409 313.419 92.9409C314.254 92.9409 315.392 91.62 315.392 91.62L317.891 91.5165C317.891 91.5165 318.965 92.8533 322.203 92.9409C322.729 92.8645 323.244 92.7283 323.739 92.535L329.747 93.3308L330.543 92.3043V88.827L329.906 88.5962Z" fill="white" stroke="#263238" stroke-linecap="round" stroke-linejoin="round"/>
  <path d="M309.114 92.2958C309.114 92.2958 309.806 89.8136 310.602 89.3203C311.302 88.9722 312.022 88.6641 312.758 88.3975" stroke="#263238" stroke-linecap="round" stroke-linejoin="round"/>
  <path d="M310.832 92.2958C310.915 91.7108 311.086 91.1419 311.342 90.6092C311.995 89.8785 312.813 89.314 313.728 88.9623C314.287 88.9089 314.849 88.9089 315.407 88.9623" stroke="#263238" stroke-linecap="round" stroke-linejoin="round"/>
  <path d="M313.212 91.8347C313.212 91.8347 313.434 90.7766 313.713 90.5538C314.23 90.2473 314.799 90.0396 315.392 89.9412C315.831 89.9083 316.273 89.9083 316.712 89.9412" stroke="#263238" stroke-linecap="round" stroke-linejoin="round"/>
  <path d="M328.609 93.4264C328.609 93.4264 342.844 95.2804 345.924 95.4316C349.003 95.5828 348.232 80.4879 347.921 74.0186C347.611 67.5493 341.293 65.3611 341.293 65.3611C336.821 74.6552 341.914 86.8059 341.914 86.8059L329.285 88.3496C329.285 88.3496 330.248 91.5803 328.609 93.4264Z" fill="#B75400" stroke="#263238" stroke-linecap="round" stroke-linejoin="round"/>
  <path d="M335.898 71.4009C336.071 74.5761 337.249 77.6138 339.264 80.0743" stroke="#263238" stroke-linecap="round" stroke-linejoin="round"/>
  <path d="M314.055 69.8729C313.457 72.8205 313.134 75.8174 313.092 78.8249" stroke="#263238" stroke-linecap="round" stroke-linejoin="round"/>
  <path d="M304.697 74.1777H301.514L305.899 94.8189H309.082C309.293 94.827 309.503 94.785 309.695 94.6963C309.886 94.6076 310.054 94.4747 310.185 94.3085C310.315 94.1424 310.404 93.9477 310.445 93.7404C310.486 93.5331 310.477 93.3192 310.419 93.116L306.75 75.8726C306.639 75.4056 306.378 74.9876 306.007 74.6818C305.637 74.376 305.177 74.1991 304.697 74.1777Z" fill="#263238"/>
  <path opacity="0.2" d="M304.697 74.1777H301.514L305.899 94.8189H309.082C309.293 94.827 309.503 94.785 309.695 94.6963C309.886 94.6076 310.054 94.4747 310.185 94.3085C310.315 94.1424 310.404 93.9477 310.445 93.7404C310.486 93.5331 310.477 93.3192 310.419 93.116L306.75 75.8726C306.639 75.4056 306.378 74.9876 306.007 74.6818C305.637 74.376 305.177 74.1991 304.697 74.1777Z" fill="white"/>
  <path d="M304.697 74.1777H301.514L305.899 94.8189H309.082C309.293 94.827 309.503 94.785 309.695 94.6963C309.886 94.6076 310.054 94.4747 310.185 94.3085C310.315 94.1424 310.404 93.9477 310.445 93.7404C310.486 93.5331 310.477 93.3192 310.419 93.116L306.75 75.8726C306.639 75.4056 306.378 74.9876 306.007 74.6818C305.637 74.376 305.177 74.1991 304.697 74.1777Z" stroke="#263238" stroke-linecap="round" stroke-linejoin="round"/>
  <path d="M310.427 93.1162H327.137V93.9119C327.137 94.0352 327.113 94.1573 327.066 94.2713C327.018 94.3852 326.949 94.4887 326.862 94.5759C326.775 94.6631 326.671 94.7322 326.557 94.7794C326.443 94.8266 326.321 94.8509 326.198 94.8509H311.342C311.219 94.8509 311.096 94.8266 310.982 94.7794C310.869 94.7322 310.765 94.6631 310.678 94.5759C310.591 94.4887 310.522 94.3852 310.474 94.2713C310.427 94.1573 310.403 94.0352 310.403 93.9119V93.1162H310.427Z" fill="#263238"/>
  <path opacity="0.2" d="M310.427 93.1162H327.137V93.9119C327.137 94.0352 327.113 94.1573 327.066 94.2713C327.018 94.3852 326.949 94.4887 326.862 94.5759C326.775 94.6631 326.671 94.7322 326.557 94.7794C326.443 94.8266 326.321 94.8509 326.198 94.8509H311.342C311.219 94.8509 311.096 94.8266 310.982 94.7794C310.869 94.7322 310.765 94.6631 310.678 94.5759C310.591 94.4887 310.522 94.3852 310.474 94.2713C310.427 94.1573 310.403 94.0352 310.403 93.9119V93.1162H310.427Z" fill="white"/>
  <path d="M310.427 93.1162H327.137V93.9119C327.137 94.0352 327.113 94.1573 327.066 94.2713C327.018 94.3852 326.949 94.4887 326.862 94.5759C326.775 94.6631 326.671 94.7322 326.557 94.7794C326.443 94.8266 326.321 94.8509 326.198 94.8509H311.342C311.219 94.8509 311.096 94.8266 310.982 94.7794C310.869 94.7322 310.765 94.6631 310.678 94.5759C310.591 94.4887 310.522 94.3852 310.474 94.2713C310.427 94.1573 310.403 94.0352 310.403 93.9119V93.1162H310.427Z" stroke="#263238" stroke-linecap="round" stroke-linejoin="round"/>
  <path d="M307.857 94.8188H281.979C281.498 94.7973 281.036 94.6196 280.664 94.3123C280.292 94.0051 280.03 93.5851 279.919 93.1159L276.258 75.8725C276.2 75.6698 276.191 75.4561 276.231 75.2491C276.272 75.0421 276.361 74.8478 276.492 74.6822C276.623 74.5166 276.791 74.3844 276.983 74.2967C277.174 74.2089 277.384 74.1681 277.595 74.1776H303.472C303.952 74.1977 304.413 74.3741 304.783 74.6801C305.154 74.9861 305.414 75.4048 305.525 75.8725L309.193 93.1159C309.251 93.319 309.26 93.533 309.22 93.7403C309.179 93.9476 309.09 94.1423 308.959 94.3084C308.829 94.4746 308.661 94.6075 308.469 94.6962C308.278 94.7849 308.068 94.8269 307.857 94.8188Z" fill="#263238"/>
  <path d="M307.857 94.8188H281.979C281.498 94.7973 281.036 94.6196 280.664 94.3123C280.292 94.0051 280.03 93.5851 279.919 93.1159L276.258 75.8725C276.2 75.6698 276.191 75.4561 276.231 75.2491C276.272 75.0421 276.361 74.8478 276.492 74.6822C276.623 74.5166 276.791 74.3844 276.983 74.2967C277.174 74.2089 277.384 74.1681 277.595 74.1776H303.472C303.952 74.1977 304.413 74.3741 304.783 74.6801C305.154 74.9861 305.414 75.4048 305.525 75.8725L309.193 93.1159C309.251 93.319 309.26 93.533 309.22 93.7403C309.179 93.9476 309.09 94.1423 308.959 94.3084C308.829 94.4746 308.661 94.6075 308.469 94.6962C308.278 94.7849 308.068 94.8269 307.857 94.8188Z" fill="#BFBFBF" stroke="#263238" stroke-linecap="round" stroke-linejoin="round"/>
  <path d="M307.857 94.8188H281.979C281.498 94.7974 281.036 94.6196 280.664 94.3123C280.292 94.0051 280.03 93.5851 279.919 93.1159L276.258 75.8725C276.2 75.6698 276.191 75.4561 276.231 75.2491C276.272 75.0421 276.361 74.8478 276.492 74.6822C276.623 74.5166 276.791 74.3844 276.983 74.2967C277.174 74.2089 277.384 74.1681 277.595 74.1776H303.472C303.952 74.1977 304.413 74.3741 304.783 74.6801C305.154 74.9861 305.414 75.4048 305.525 75.8725L309.193 93.1159C309.251 93.319 309.26 93.533 309.22 93.7403C309.179 93.9476 309.09 94.1423 308.959 94.3084C308.829 94.4746 308.661 94.6075 308.469 94.6962C308.278 94.7849 308.068 94.8269 307.857 94.8188Z" stroke="#263238" stroke-linecap="round" stroke-linejoin="round"/>
  <path d="M305.542 30.7662C304.328 30.7163 303.179 30.1985 302.337 29.3213C301.495 28.4441 301.025 27.2754 301.025 26.0595C301.025 24.8437 301.495 23.6749 302.337 22.7977C303.179 21.9205 304.328 21.4027 305.542 21.3528H340.69C341.905 21.4027 343.053 21.9205 343.895 22.7977C344.737 23.6749 345.207 24.8437 345.207 26.0595C345.207 27.2754 344.737 28.4441 343.895 29.3213C343.053 30.1985 341.905 30.7163 340.69 30.7662H305.542Z" fill="white"/>
  <path d="M305.542 30.7662C304.328 30.7163 303.179 30.1985 302.337 29.3213C301.495 28.4441 301.025 27.2754 301.025 26.0595C301.025 24.8437 301.495 23.6749 302.337 22.7977C303.179 21.9205 304.328 21.4027 305.542 21.3528H340.69C341.905 21.4027 343.053 21.9205 343.895 22.7977C344.737 23.6749 345.207 24.8437 345.207 26.0595C345.207 27.2754 344.737 28.4441 343.895 29.3213C343.053 30.1985 341.905 30.7163 340.69 30.7662H305.542Z" stroke="#263238" stroke-miterlimit="10"/>
  <path d="M326.566 22.96H305.543C304.748 23.0002 303.999 23.3444 303.451 23.9212C302.902 24.498 302.596 25.2635 302.596 26.0593C302.596 26.8552 302.902 27.6206 303.451 28.1974C303.999 28.7743 304.748 29.1184 305.543 29.1587H325.133L326.566 22.96Z" fill="#B75400"/>
  <path d="M291.52 282.937H265.675C265.096 282.935 264.54 282.71 264.123 282.308C263.707 281.906 263.461 281.359 263.439 280.78L261.664 233.101C261.652 232.787 261.706 232.475 261.823 232.185C261.94 231.894 262.117 231.631 262.342 231.413C262.567 231.195 262.836 231.028 263.131 230.921C263.425 230.814 263.739 230.77 264.051 230.793L294.289 232.925C294.871 232.962 295.415 233.225 295.806 233.658C296.197 234.09 296.404 234.658 296.382 235.241L293.756 280.796C293.729 281.372 293.482 281.915 293.066 282.314C292.65 282.712 292.096 282.935 291.52 282.937Z" fill="#B75400" stroke="#263238" stroke-linecap="round" stroke-linejoin="round"/>
  <path d="M273.186 254.482C273.372 253.836 273.5 253.176 273.568 252.508C273.568 252.079 273.33 251.124 272.964 250.917C272.598 250.71 270.712 251.052 270.712 251.052C270.712 251.052 271.157 249.58 270.855 249.246C270.553 248.912 269.59 249.047 269.216 249.246C268.603 249.524 267.863 250.75 267.449 251.283C266.948 251.935 266.073 253.328 265.603 253.996C265.38 254.33 264.68 255.317 264.68 255.317L258.927 257.37L259.237 263.195L265.723 259.28C265.723 259.28 271.539 259.28 272.765 257.967C273.362 257.283 273.051 255.333 273.186 254.482Z" fill="white" stroke="#263238" stroke-linecap="round" stroke-linejoin="round"/>
  <path d="M263.829 242.689C263.503 247.304 262.81 252.15 261.402 254.935H263.789C263.789 254.935 261.625 258.81 262.993 262.471C262.993 262.471 256.421 266.887 254.956 264.062C253.492 261.237 255.187 249.819 256.691 244.328C258.195 238.838 258.657 230.403 264.02 230.801" fill="#B75400"/>
  <path d="M263.829 242.689C263.503 247.304 262.81 252.15 261.402 254.935H263.789C263.789 254.935 261.625 258.81 262.993 262.471C262.993 262.471 256.421 266.887 254.956 264.062C253.492 261.237 255.187 249.819 256.691 244.328C258.195 238.838 258.657 230.403 264.02 230.801" stroke="#263238" stroke-linecap="round" stroke-linejoin="round"/>
  <path d="M260.415 255.317C259.323 255.743 258.389 256.496 257.742 257.473" stroke="#263238" stroke-linecap="round" stroke-linejoin="round"/>
  <path d="M273.25 240.326L274.332 240.182C274.509 240.158 274.689 240.168 274.861 240.213C275.034 240.259 275.196 240.337 275.338 240.445C275.48 240.553 275.599 240.688 275.689 240.843C275.778 240.997 275.837 241.167 275.86 241.344L277.078 250.28C277.102 250.457 277.092 250.638 277.047 250.811C277.002 250.984 276.923 251.146 276.815 251.289C276.707 251.432 276.572 251.551 276.418 251.642C276.264 251.732 276.093 251.791 275.916 251.816L274.834 251.959L273.25 240.326Z" fill="white" stroke="#263238" stroke-linecap="round" stroke-linejoin="round"/>
  <path d="M271.409 252.432L274.981 251.946C275.83 251.83 276.424 251.048 276.308 250.199L275.142 241.636C275.026 240.787 274.244 240.193 273.395 240.308L269.823 240.795C268.974 240.911 268.379 241.693 268.495 242.542L269.662 251.104C269.778 251.953 270.56 252.548 271.409 252.432Z" fill="#BFBFBF"/>
  <path d="M271.409 252.432L274.981 251.946C275.83 251.83 276.424 251.048 276.308 250.199L275.142 241.636C275.026 240.787 274.244 240.193 273.395 240.308L269.823 240.795C268.974 240.911 268.379 241.693 268.495 242.542L269.662 251.104C269.778 251.953 270.56 252.548 271.409 252.432Z" stroke="#263238" stroke-linecap="round" stroke-linejoin="round"/>
  <path d="M269.319 242.259C269.328 242.323 269.35 242.385 269.382 242.441C269.415 242.497 269.459 242.546 269.51 242.585C269.562 242.624 269.621 242.653 269.684 242.669C269.747 242.686 269.812 242.69 269.876 242.681C269.94 242.672 270.002 242.65 270.058 242.618C270.114 242.585 270.163 242.541 270.202 242.49C270.241 242.438 270.27 242.379 270.286 242.316C270.303 242.253 270.307 242.188 270.298 242.124C270.278 241.995 270.209 241.879 270.105 241.8C270.001 241.721 269.87 241.686 269.741 241.702C269.677 241.711 269.615 241.732 269.559 241.765C269.503 241.798 269.454 241.841 269.415 241.893C269.375 241.945 269.347 242.004 269.33 242.067C269.314 242.129 269.31 242.195 269.319 242.259Z" fill="white" stroke="#263238" stroke-linecap="round" stroke-linejoin="round"/>
  <path d="M270.226 251.068C270.114 250.405 270.061 249.734 270.067 249.063C270.147 248.633 270.457 247.71 270.863 247.519C271.268 247.328 273.091 247.909 273.091 247.909C273.091 247.909 272.804 246.389 273.146 246.095C273.489 245.8 274.428 246.039 274.738 246.246C275.319 246.588 275.916 247.893 276.266 248.466C276.687 249.174 277.404 250.646 277.793 251.37C277.984 251.728 278.589 252.779 278.589 252.779L283.73 255.134L281.342 259.455L277.125 256.606C277.125 256.606 271.34 255.946 270.266 254.513C269.741 253.821 270.266 251.951 270.226 251.068Z" fill="white" stroke="#263238" stroke-linecap="round" stroke-linejoin="round"/>
  <path d="M293.836 235.376C293.963 234.803 294.098 234.238 294.249 233.681C294.28 233.537 294.351 233.404 294.453 233.297C294.555 233.191 294.684 233.115 294.827 233.078C294.97 233.04 295.12 233.044 295.261 233.087C295.403 233.13 295.529 233.212 295.626 233.323L295.825 233.538C296.879 234.661 297.636 236.028 298.029 237.517C299.43 242.824 302.461 256.161 300.313 265.948C300.19 266.498 299.876 266.986 299.428 267.327C298.979 267.667 298.425 267.839 297.862 267.81C293.923 267.571 287.032 266.585 279.497 259.121C279.497 259.121 281.088 255.389 282.958 254.108L293.382 258.317C292.888 254.587 292.654 250.828 292.682 247.065" fill="#B75400"/>
  <path d="M293.836 235.376C293.963 234.803 294.098 234.238 294.249 233.681C294.28 233.537 294.351 233.404 294.453 233.297C294.555 233.191 294.684 233.115 294.827 233.078C294.97 233.04 295.12 233.044 295.261 233.087C295.403 233.13 295.529 233.212 295.626 233.323L295.825 233.538C296.879 234.661 297.636 236.028 298.029 237.517C299.43 242.824 302.461 256.161 300.313 265.948C300.19 266.498 299.876 266.986 299.428 267.327C298.979 267.667 298.425 267.839 297.862 267.81C293.923 267.571 287.032 266.585 279.497 259.121C279.497 259.121 281.088 255.389 282.958 254.108L293.382 258.317C292.888 254.587 292.654 250.828 292.682 247.065" stroke="#263238" stroke-linecap="round" stroke-linejoin="round"/>
  <path d="M294.281 258.993C294.712 259.226 295.092 259.542 295.399 259.923C295.707 260.304 295.935 260.743 296.071 261.213" stroke="#263238" stroke-linecap="round" stroke-linejoin="round"/>
  <path d="M280.252 224.745L287.024 213.884C287.024 213.884 290.533 212.427 288.655 210.557C288.655 210.557 291.671 205.338 287.756 205.338C287.756 205.338 287.255 201.096 283.467 202.807C283.467 202.807 280.173 198.892 277.969 201.749C277.969 201.749 273.449 199.545 272.287 202.314C272.287 202.314 268.985 202.314 269.104 204.765C269.104 204.765 267.027 207.534 269.765 207.86C269.765 207.86 269.041 210.064 272.279 210.064C275.518 210.064 279.512 214.043 279.512 214.043L280.308 218.117L280.252 224.745Z" fill="#263238" stroke="#263238" stroke-linecap="round" stroke-linejoin="round"/>
  <path d="M284.661 232.384C284.661 232.384 277.3 236.427 271.929 231.247C271.929 231.247 273.282 228.7 273.751 222.374L281.558 220.982C281.332 223.133 281.413 225.306 281.796 227.435C282.313 229.846 283.722 232.058 284.661 232.384Z" fill="white"/>
  <path d="M282.115 221.173L281.892 221.968C281.761 222.444 281.539 222.89 281.239 223.281C280.046 224.873 276.696 228.851 273.425 228.493C270.393 228.191 269.55 223.512 269.327 221.165L282.115 221.173Z" fill="#263238" stroke="#263238" stroke-linecap="round" stroke-linejoin="round"/>
  <path d="M284.661 232.384C284.661 232.384 277.3 236.427 271.929 231.247C271.929 231.247 273.282 228.7 273.751 222.374L281.558 220.982C281.332 223.133 281.413 225.306 281.796 227.435C282.313 229.846 283.722 232.058 284.661 232.384Z" stroke="#263238" stroke-linecap="round" stroke-linejoin="round"/>
  <path d="M270.401 208.918L269.168 212.849C269.032 213.264 268.994 213.706 269.057 214.138L269.232 215.3L268.587 217.886C268.556 218.02 268.532 218.155 268.516 218.292C268.38 219.653 267.855 226.91 271.699 227.841C275.096 228.636 279.234 224.976 280.73 223.488C281.102 223.119 281.399 222.681 281.605 222.199L282.465 220.241C282.956 220.314 283.457 220.232 283.899 220.007C284.341 219.782 284.702 219.424 284.931 218.984C285.727 217.393 286.762 216.494 285.226 215.396C283.69 214.297 282.719 216.525 282.719 216.525C282.719 216.525 282.767 213.724 282.401 212.881C282.035 212.038 280.77 211.059 280.444 210.327C280.283 209.76 280.177 209.179 280.125 208.592C280.125 208.592 274.873 208.735 271.142 207.311L270.401 208.918Z" fill="white" stroke="#263238" stroke-linecap="round" stroke-linejoin="round"/>
  <path d="M270.401 208.918L269.168 212.849C269.032 213.264 268.994 213.706 269.057 214.138L269.232 215.3L268.587 217.886C268.556 218.02 268.532 218.155 268.516 218.292C268.38 219.653 267.855 226.91 271.699 227.841C275.096 228.636 279.234 224.976 280.73 223.488C281.102 223.119 281.399 222.681 281.605 222.199L282.465 220.241C282.956 220.314 283.457 220.232 283.899 220.007C284.341 219.782 284.702 219.424 284.931 218.984C285.727 217.393 286.762 216.494 285.226 215.396C283.69 214.297 282.719 216.525 282.719 216.525C282.719 216.525 282.767 213.724 282.401 212.881C282.035 212.038 280.77 211.059 280.444 210.327C280.283 209.76 280.177 209.179 280.125 208.592C280.125 208.592 274.873 208.735 271.142 207.311L270.401 208.918Z" fill="white" stroke="#263238" stroke-linecap="round" stroke-linejoin="round"/>
  <path d="M272.844 216.685L270.919 219.78C270.864 219.883 270.834 219.997 270.828 220.114C270.823 220.23 270.844 220.347 270.888 220.455C270.933 220.562 271.001 220.659 271.088 220.738C271.174 220.816 271.276 220.875 271.388 220.909L273.083 221.307" stroke="#263238" stroke-linecap="round" stroke-linejoin="round"/>
  <path d="M275.645 223.083C274.467 224.021 272.971 224.157 272.247 223.496" stroke="#263238" stroke-linecap="round" stroke-linejoin="round"/>
  <path d="M275.438 217.735C275.366 218.196 275.128 218.53 274.905 218.53C274.682 218.53 274.571 218.093 274.65 217.639C274.73 217.186 274.961 216.844 275.183 216.844C275.406 216.844 275.534 217.297 275.438 217.735Z" fill="#263238"/>
  <path d="M271.149 217.043C271.07 217.504 270.831 217.838 270.616 217.838C270.402 217.838 270.282 217.401 270.354 216.947C270.425 216.494 270.672 216.151 270.887 216.151C271.102 216.151 271.221 216.589 271.149 217.043Z" fill="#263238"/>
  <path d="M269.351 214.265C269.41 214.071 269.511 213.892 269.649 213.741C269.786 213.591 269.955 213.473 270.143 213.397C270.332 213.321 270.535 213.288 270.738 213.3C270.941 213.313 271.139 213.371 271.316 213.47" stroke="#263238" stroke-linecap="round" stroke-linejoin="round"/>
  <path d="M274.515 213.756C275.01 213.763 275.49 213.918 275.895 214.202C276.299 214.486 276.609 214.885 276.783 215.347" stroke="#263238" stroke-linecap="round" stroke-linejoin="round"/>
  <path d="M281.693 208.528C281.693 208.528 277.388 211.663 276.879 209.396C276.879 209.396 273.298 210.255 273.059 209.053C273.059 209.053 269.478 210.486 269.081 209.372C268.683 208.258 271.937 205.298 271.937 205.298L279.505 206.26L281.693 208.528Z" fill="#263238" stroke="#263238" stroke-linecap="round" stroke-linejoin="round"/>
  <path d="M272.899 204.669C272.417 205.626 271.813 206.517 271.101 207.318" stroke="#7F7F7F" stroke-linecap="round" stroke-linejoin="round"/>
  <path d="M275.168 203.643C274.538 203.554 273.899 203.714 273.386 204.088" stroke="#7F7F7F" stroke-linecap="round" stroke-linejoin="round"/>
  <path d="M283.929 206.277C281.836 206.078 281.542 207.868 278.303 207.765C275.247 207.637 276.664 205.274 276.178 204.184" stroke="#7F7F7F" stroke-linecap="round" stroke-linejoin="round"/>
  <path d="M285.433 213.287C285.433 213.287 289.037 208.059 285.433 206.666" stroke="#7F7F7F" stroke-linecap="round" stroke-linejoin="round"/>
  <path d="M259.396 378.018C258.652 378.258 257.969 378.658 257.396 379.19C256.823 379.722 256.373 380.373 256.078 381.098C256.021 381.224 255.997 381.364 256.01 381.502C256.024 381.641 256.073 381.774 256.153 381.887C256.234 382.001 256.343 382.091 256.469 382.15C256.596 382.208 256.735 382.232 256.874 382.22H268.579C268.804 382.222 269.023 382.143 269.194 381.996C269.365 381.85 269.477 381.647 269.51 381.424C269.702 379.956 269.504 378.463 268.937 377.095L269.582 369.886H262.746L262.221 376.785L259.396 378.018Z" fill="white" stroke="#263238" stroke-linecap="round" stroke-linejoin="round"/>
  <path d="M266.852 377.947C268.078 379.657 267.775 377.095 268.905 377.095C269.472 378.463 269.67 379.956 269.478 381.424C269.446 381.647 269.333 381.85 269.162 381.996C268.991 382.143 268.772 382.222 268.547 382.22H256.842C256.704 382.232 256.564 382.208 256.438 382.15C256.311 382.091 256.202 382.001 256.122 381.887C256.041 381.774 255.992 381.641 255.979 381.503C255.965 381.364 255.989 381.224 256.046 381.098C256.341 380.373 256.791 379.722 257.364 379.19C257.937 378.658 258.62 378.258 259.365 378.018L262.158 376.785C262.158 376.785 265.635 376.236 266.852 377.947Z" fill="#BFBFBF" stroke="#263238" stroke-linecap="round" stroke-linejoin="round"/>
  <path d="M269.51 381.177C269.51 381.265 269.51 381.352 269.51 381.424C269.478 381.647 269.365 381.85 269.194 381.996C269.023 382.143 268.804 382.222 268.579 382.22H256.842C256.715 382.225 256.589 382.2 256.473 382.147C256.358 382.093 256.257 382.013 256.179 381.912C256.101 381.812 256.048 381.694 256.025 381.569C256.002 381.444 256.01 381.315 256.047 381.193C256.842 381.193 257.399 381.193 257.399 381.193L269.51 381.177Z" fill="white" stroke="#263238" stroke-linecap="round" stroke-linejoin="round"/>
  <path d="M264.211 281.926L261.824 374.23H270.258C270.258 374.23 272.868 351.154 273.171 343.388C273.306 339.919 274.014 333.839 274.253 330.338C274.675 324.06 275.653 317.065 278.064 304.875C278.454 302.909 280.818 299.512 281.319 297.562C282.298 293.767 282.711 281.902 282.711 281.902L264.211 281.926Z" fill="#263238" stroke="#263238" stroke-linecap="round" stroke-linejoin="round"/>
  <path d="M270.058 336.696C270.058 336.696 268.133 339.242 265.46 338.9" stroke="#7F7F7F" stroke-linecap="round" stroke-linejoin="round"/>
  <path d="M263.208 334.269C263.208 334.269 266.256 336.084 270.791 334.269" stroke="#7F7F7F" stroke-linecap="round" stroke-linejoin="round"/>
  <path d="M300.52 378.018C301.61 378.496 303.289 379.204 303.925 381.344C303.952 381.448 303.955 381.556 303.933 381.66C303.912 381.765 303.867 381.863 303.801 381.947C303.736 382.032 303.652 382.1 303.557 382.147C303.461 382.195 303.356 382.219 303.249 382.22H291.544C291.265 382.22 290.997 382.118 290.788 381.933C290.58 381.748 290.447 381.493 290.414 381.217C290.273 379.814 290.481 378.398 291.019 377.095L290.366 369.886H297.209L297.727 376.785L300.52 378.018Z" fill="white" stroke="#263238" stroke-linecap="round" stroke-linejoin="round"/>
  <path d="M303.925 381.344C303.952 381.448 303.955 381.556 303.933 381.66C303.912 381.765 303.867 381.863 303.801 381.948C303.736 382.032 303.652 382.1 303.557 382.148C303.461 382.195 303.356 382.219 303.249 382.22H291.544C291.265 382.22 290.997 382.118 290.788 381.933C290.58 381.748 290.447 381.493 290.414 381.217C290.273 379.814 290.481 378.398 291.019 377.095C292.117 376.912 291.409 379.291 293.215 377.827C295.021 376.363 297.727 376.785 297.727 376.785L300.52 378.018C301.61 378.472 303.289 379.204 303.925 381.344Z" fill="#BFBFBF" stroke="#263238" stroke-linecap="round" stroke-linejoin="round"/>
  <path d="M303.862 381.177C303.862 381.241 303.909 381.289 303.925 381.344C303.952 381.448 303.955 381.556 303.933 381.66C303.912 381.765 303.867 381.863 303.801 381.948C303.736 382.032 303.653 382.1 303.557 382.148C303.461 382.195 303.356 382.219 303.249 382.22H291.544C291.266 382.22 290.997 382.118 290.789 381.933C290.58 381.748 290.447 381.493 290.414 381.217V381.177H303.862Z" fill="white" stroke="#263238" stroke-linecap="round" stroke-linejoin="round"/>
  <path d="M292.944 281.942C292.944 281.942 294.138 291.117 294.313 294.196C294.408 296.018 294.249 299.679 294.313 301.501C294.536 308.519 295.411 322.548 296.103 329.526C296.461 333.203 297.822 340.484 298.069 344.168C298.578 351.672 298.069 374.262 298.069 374.262H289.594C289.594 374.262 286.157 348.799 285.266 340.253C284.947 337.221 281.43 307.095 279.035 300.53C278.581 299.273 277.547 297.164 277.117 295.899C276.26 293.245 275.637 290.521 275.255 287.759C275.128 286.311 275.04 281.958 275.04 281.958L292.944 281.942Z" fill="#263238" stroke="#263238" stroke-linecap="round" stroke-linejoin="round"/>
  <path d="M294.504 333.243C294.504 333.243 292.912 336.131 287.342 336.131" stroke="#7F7F7F" stroke-linecap="round" stroke-linejoin="round"/>
  <path d="M278.876 301.135C278.422 299.934 277.388 297.952 276.958 296.719C276.298 294.865 275.255 287.735 275.04 281.934" stroke="#7F7F7F" stroke-linecap="round" stroke-linejoin="round"/>
  <path d="M286.483 342.41C288.1 350.424 291.247 358.051 295.753 364.873" stroke="#7F7F7F" stroke-linecap="round" stroke-linejoin="round"/>
  <path d="M262.611 341.272C263.151 348.715 265.087 355.989 268.317 362.717" stroke="#7F7F7F" stroke-linecap="round" stroke-linejoin="round"/>
  <path d="M285.417 222.135H307.045C308.74 222.135 310.116 224.101 310.116 226.528V233.84C310.116 236.228 308.74 238.225 307.045 238.225H289.793L282.831 242.856L285.417 238.225C283.722 238.225 282.353 236.259 282.353 233.84V226.528C282.353 224.101 283.722 222.135 285.417 222.135Z" fill="white" stroke="#263238" stroke-linecap="round" stroke-linejoin="round"/>
  <path d="M305.238 226.623H286.944" stroke="#263238" stroke-linecap="round" stroke-linejoin="round"/>
  <path d="M305.238 229.87H288.353" stroke="#263238" stroke-linecap="round" stroke-linejoin="round"/>
  <path d="M305.238 233.124H286.944" stroke="#263238" stroke-linecap="round" stroke-linejoin="round"/>
  <path d="M32.7103 257.185L32.7102 257.185C30.5808 257.458 28.4179 257.29 26.356 256.692C24.2942 256.094 22.3774 255.078 20.7248 253.708C19.0723 252.337 17.7193 250.642 16.7501 248.726C15.7808 246.81 15.216 244.716 15.0907 242.572L15.0906 242.572L10.9051 171.625L10.9051 171.625C10.7668 169.31 11.1446 166.994 12.0114 164.843C12.8782 162.692 14.2121 160.761 15.9168 159.189C17.6215 157.618 19.6543 156.444 21.8681 155.754C24.0819 155.065 26.4213 154.875 28.7171 155.201L28.7175 155.201L78.4821 162.219C82.3362 162.763 85.8495 164.724 88.3371 167.717C90.8245 170.711 92.1082 174.523 91.938 178.411L91.938 178.412L89.2325 236.849L89.2325 236.85C89.0698 240.535 87.6114 244.044 85.1144 246.758C82.6174 249.472 79.2423 251.217 75.5841 251.686L32.7103 257.185Z" fill="#E0E0E0" stroke="black"/>
  <path d="M25.9703 180.964H45.9191C46.8235 181.037 47.6737 181.424 48.321 182.06C48.9683 182.696 49.3715 183.539 49.4601 184.442L54.1629 226.846C54.3415 228.485 55.1195 230 56.3474 231.1C57.5753 232.2 59.1665 232.808 60.8152 232.806" fill="#C4C4C4"/>
  <path d="M79.7376 268.797L80.3423 277.399L86.8434 277.208L86.4853 267.922L79.7376 268.797Z" fill="white" stroke="#263238" stroke-linecap="round" stroke-linejoin="round"/>
  <path d="M79.865 280.597C79.865 280.597 90.3129 281.019 93.7584 280.597C94.8326 280.47 97.3392 280.446 97.9519 279.555C98.2542 279.125 97.7131 277.478 97.7131 277.478L92.2624 275.823L88.4986 273.754C88.2072 273.592 87.8722 273.526 87.541 273.564C87.2097 273.603 86.8989 273.744 86.6525 273.969L86.2228 274.359C86.0459 274.52 85.9075 274.719 85.818 274.94C85.7284 275.162 85.69 275.401 85.7056 275.64V275.823L85.085 275.393C84.8166 275.206 84.4971 275.106 84.1699 275.107H79.674C78.8888 276.4 78.5168 277.902 78.6077 279.412C78.6222 279.734 78.7615 280.038 78.9962 280.259C79.2309 280.481 79.5425 280.602 79.865 280.597Z" fill="#263238" stroke="#263238" stroke-linecap="round" stroke-linejoin="round"/>
  <path d="M58.7465 258.882L54.4337 265.996L59.6696 269.847L64.611 262.351L58.7465 258.882Z" fill="white" stroke="#263238" stroke-linecap="round" stroke-linejoin="round"/>
  <path d="M76.8493 227.284C76.8493 227.284 69.7355 230.594 56.6458 261.182C57.3636 262.359 58.3316 263.364 59.4812 264.126C60.6308 264.888 61.9338 265.388 63.298 265.59C63.298 265.59 94.586 227.029 90.5915 220.234C86.8436 213.868 52.0226 216.255 52.0226 216.255L52.4761 231.533C52.4761 231.533 73.4197 230.467 76.8493 227.284Z" fill="#B75400" stroke="#263238" stroke-linecap="round" stroke-linejoin="round"/>
  <path d="M60.9029 144.934C60.9029 144.934 54.6485 140.231 48.5294 144.305C42.4102 148.379 38.5351 158.008 41.8055 161.811C42.7938 162.933 44.0228 163.817 45.4007 164.397C46.7786 164.977 48.2697 165.238 49.7628 165.161C49.7628 165.161 55.9615 169.936 58.5157 169.14C61.07 168.344 65.3988 161.708 65.5898 155.764C65.7807 149.82 67.7064 145.435 60.9029 144.934Z" fill="#263238" stroke="#263238" stroke-linecap="round" stroke-linejoin="round"/>
  <path d="M54.6802 166.012C54.6802 166.012 52.9455 168.4 53.033 170.437L44.8689 167.604C44.8689 167.604 48.2825 162.647 49.0942 157.793C49.9058 152.939 54.6802 166.012 54.6802 166.012Z" fill="white"/>
  <path d="M48.9114 159.997C49.0387 162.456 49.7071 163.498 51.7522 165.567C54.1393 167.954 55.6751 169.88 59.1365 165.567C61.4282 162.703 62.1364 160.88 62.3194 159.997H48.9114Z" fill="#263238" stroke="#263238" stroke-linecap="round" stroke-linejoin="round"/>
  <path d="M54.6802 166.012C54.6802 166.012 52.9455 168.4 53.033 170.437L44.8689 167.604C44.8689 167.604 48.2825 162.647 49.0942 157.793C49.9058 152.939 54.6802 166.012 54.6802 166.012Z" stroke="#263238" stroke-linecap="round" stroke-linejoin="round"/>
  <path d="M36.7526 217.194C36.7526 217.194 30.7051 230.395 40.8984 232.591C51.0916 234.787 72.624 229.997 72.624 229.997C72.624 229.997 74.3746 247.041 79.3399 271.789C82.0465 272.046 84.7772 271.827 87.4086 271.144C87.4086 271.144 87.0983 225.071 82.9446 219.422C78.7909 213.772 47.6939 214.21 36.7526 217.194Z" fill="#B75400" stroke="#263238" stroke-linecap="round" stroke-linejoin="round"/>
  <path d="M35.2247 217.21C35.2247 217.21 36.7286 218.897 46.7071 215.523L59.2795 215.037C59.2795 215.037 63.9743 193.775 62.4624 185.858C61.6175 181.26 60.4908 176.719 59.0886 172.259C52.4317 169.739 45.2898 168.762 38.2007 169.402C37.8167 169.441 37.4636 169.63 37.2189 169.928C36.9742 170.226 36.858 170.61 36.8957 170.994C37.5164 176.914 39.3545 196.25 35.2247 217.21Z" fill="#263238" stroke="#263238" stroke-linecap="round" stroke-linejoin="round"/>
  <path d="M59.1521 172.259C59.1521 172.259 64.3721 173.421 64.3721 179.643C64.3721 185.866 63.7673 195.972 63.7673 195.972L70.5151 205.115C70.5151 205.115 67.6266 206.706 67.1889 209.404C67.1889 209.404 57.0991 201.104 56.5262 198.264C55.9533 195.423 59.1521 172.259 59.1521 172.259Z" fill="#263238" stroke="#263238" stroke-linecap="round" stroke-linejoin="round"/>
  <path d="M60.2345 194.388L60.7358 196.243L59.3433 194.922L55.1737 187.903C55.1037 187.784 55.0836 187.642 55.1179 187.508C55.1522 187.373 55.238 187.258 55.3567 187.187C55.4761 187.117 55.6184 187.097 55.7525 187.131C55.8866 187.166 56.0017 187.251 56.0729 187.37L60.2345 194.388Z" fill="white" stroke="#263238" stroke-linecap="round" stroke-linejoin="round"/>
  <path d="M49.3566 195.542C50.5767 194.696 51.6699 193.681 52.6032 192.526C53.9161 190.807 54.3538 189.797 55.3882 190.139C56.4227 190.481 60.1626 191.476 59.6056 192.669C59.6236 193.18 59.4569 193.68 59.1361 194.078C58.8748 194.616 58.4937 195.087 58.0221 195.454C57.2821 195.996 57.0433 195.765 57.0433 195.765C57.0433 195.765 56.5261 196.195 56.1919 196.083C56.1919 196.083 55.3962 197.476 52.7305 198.009L45.569 201.064L44.8369 196.465L49.3566 195.542Z" fill="white" stroke="#263238" stroke-linecap="round" stroke-linejoin="round"/>
  <path d="M54.4018 191.691C54.718 191.985 55.0587 192.251 55.4203 192.487C55.9057 192.789 57.6085 193.68 57.5528 194.245C57.4971 194.81 56.3354 195.908 55.9614 195.837C55.5874 195.765 54.2506 195.264 54.2824 194.961C54.1605 195.197 54.0747 195.449 54.0278 195.709C54.0264 196.061 53.9553 196.408 53.8187 196.732C53.6822 197.056 53.4827 197.349 53.232 197.595" stroke="#263238" stroke-linecap="round" stroke-linejoin="round"/>
  <path d="M59.1358 194.086C59.0499 193.782 58.8542 193.521 58.5869 193.354C57.7419 192.871 56.9429 192.312 56.2001 191.683" stroke="#263238" stroke-linecap="round" stroke-linejoin="round"/>
  <path d="M59.605 192.677C59.4174 192.491 59.2061 192.331 58.9765 192.2C58.1056 191.613 57.1844 191.105 56.2238 190.68" stroke="#263238" stroke-linecap="round" stroke-linejoin="round"/>
  <path d="M54.6642 194.611C54.6642 194.611 55.2291 194.412 55.4598 194.611C55.6905 194.81 55.6587 195.089 55.9133 195.359" stroke="#263238" stroke-linecap="round" stroke-linejoin="round"/>
  <path d="M55.436 194.595C55.0864 194.358 54.7887 194.052 54.5609 193.696" stroke="#263238" stroke-linecap="round" stroke-linejoin="round"/>
  <path d="M38.909 187.585C38.8056 189.574 37.7472 197.675 37.7472 197.675C41.2566 196.536 44.8672 195.736 48.5293 195.287C48.5293 195.287 47.9723 197.42 49.6036 200.468C49.6036 200.468 34.5962 206.356 31.5087 205.727C28.4213 205.099 28.9226 198.439 30.1083 183.646C31.2939 168.853 38.2645 169.41 38.2645 169.41" fill="#263238"/>
  <path d="M38.909 187.585C38.8056 189.574 37.7472 197.675 37.7472 197.675C41.2566 196.536 44.8672 195.736 48.5293 195.287C48.5293 195.287 47.9723 197.42 49.6036 200.468C49.6036 200.468 34.5962 206.356 31.5087 205.727C28.4213 205.099 28.9226 198.439 30.1083 183.646C31.2939 168.853 38.2645 169.41 38.2645 169.41" stroke="#263238" stroke-linecap="round" stroke-linejoin="round"/>
  <path d="M48.9432 200.46C48.9432 200.46 42.8002 202.847 37.5643 204.438" stroke="#7F7F7F" stroke-linecap="round" stroke-linejoin="round"/>
  <path d="M38.2484 187.585C38.145 189.574 37.0866 197.675 37.0866 197.675C40.5931 196.535 44.2011 195.736 47.8608 195.288" stroke="#7F7F7F" stroke-linecap="round" stroke-linejoin="round"/>
  <path d="M43.0148 169.196C43.0148 169.196 44.7733 168.121 44.7733 166.697C44.7733 165.273 52.6271 169.418 54.4255 169.18C56.2238 168.941 55.2212 170.493 55.0302 170.93C54.5767 172.379 53.2717 174.169 43.0148 169.196Z" fill="#263238" stroke="#263238" stroke-linecap="round" stroke-linejoin="round"/>
  <path d="M55.0222 170.93C54.5606 172.267 53.3671 173.978 44.5265 169.944" stroke="#7F7F7F" stroke-linecap="round" stroke-linejoin="round"/>
  <path d="M63.4888 153.392L62.6931 158.334C62.6931 158.334 62.8283 160.307 59.3749 164.62C55.9214 168.933 54.3618 167.007 51.9905 164.62C49.6193 162.233 49.11 161.199 49.1259 157.785C49.1259 157.785 47.9085 157.61 47.1605 155.398C46.4125 153.186 49.1418 152.326 49.8341 153.735L53.9162 151.69L56.4625 148.626L57.9187 146.684L60.9027 147.798L64.0856 149.708L63.4888 153.392Z" fill="white" stroke="#263238" stroke-linecap="round" stroke-linejoin="round"/>
  <path d="M59.8359 158.493C59.8359 158.493 58.563 159.798 59.629 161.055C61.069 162.765 58.0379 162.24 58.0379 162.749" stroke="#263238" stroke-linecap="round" stroke-linejoin="round"/>
  <path d="M56.4382 163.315C56.4382 163.315 55.4597 163.562 53.7651 161.875" stroke="#263238" stroke-linecap="round" stroke-linejoin="round"/>
  <path d="M56.9956 158.222C56.8126 158.644 56.5262 158.93 56.3591 158.859C56.192 158.787 56.208 158.381 56.3591 157.96C56.5103 157.538 56.8285 157.252 56.9956 157.323C57.1626 157.395 57.1786 157.793 56.9956 158.222Z" fill="#263238"/>
  <path d="M60.7275 159.917C60.5683 160.299 60.3138 160.554 60.1626 160.49C60.0114 160.427 60.0194 160.061 60.1626 159.695C60.3058 159.329 60.5763 159.05 60.7275 159.122C60.8786 159.193 60.8945 159.536 60.7275 159.917Z" fill="#263238"/>
  <path d="M59.0241 155.056C58.6247 154.763 58.1427 154.606 57.6478 154.606C57.1529 154.606 56.6709 154.763 56.2714 155.056" stroke="#263238" stroke-linecap="round" stroke-linejoin="round"/>
  <path d="M61.595 156.512C61.793 156.579 61.9702 156.697 62.1096 156.853C62.2489 157.009 62.3457 157.198 62.3905 157.403" stroke="#263238" stroke-linecap="round" stroke-linejoin="round"/>
  <path d="M50.0331 151.69C50.0331 151.69 48.2428 156.241 50.7175 158.215C50.7175 158.215 52.7704 152.35 57.0196 151.69C61.2688 151.029 63.0114 149.708 63.0114 149.708C63.0114 149.708 62.5022 155.501 63.6639 156.925C64.8257 158.35 64.8018 150.257 64.8018 150.257L63.6639 147.48L57.505 145.053L52.2294 147.528L50.0331 151.69Z" fill="#263238" stroke="#263238" stroke-linecap="round" stroke-linejoin="round"/>
  <path d="M48.9431 158.549C48.9431 158.549 48.0996 163.61 50.0332 164.119C51.9668 164.628 47.2641 164.724 44.8292 163.602C42.3942 162.48 48.0519 157.92 48.0519 157.92L48.9431 158.549Z" fill="#263238" stroke="#263238" stroke-linecap="round" stroke-linejoin="round"/>
  <path d="M60.0197 194.102H60.9347L57.8951 213.311H56.98C56.8606 213.313 56.7423 213.289 56.6337 213.239C56.5251 213.19 56.429 213.116 56.3526 213.024C56.2762 212.933 56.2214 212.825 56.1922 212.709C56.1631 212.594 56.1604 212.473 56.1843 212.356L58.9216 195.057C58.9698 194.797 59.1047 194.561 59.3041 194.388C59.5035 194.214 59.7557 194.114 60.0197 194.102Z" fill="white" stroke="#263238" stroke-linecap="round" stroke-linejoin="round"/>
  <path d="M57.6082 213.311H68.7484C69.0146 213.304 69.2702 213.205 69.4718 213.031C69.6734 212.857 69.8086 212.618 69.8544 212.356L72.5917 195.057C72.6156 194.94 72.6129 194.819 72.5838 194.703C72.5546 194.588 72.4998 194.48 72.4234 194.388C72.347 194.296 72.2509 194.223 72.1423 194.174C72.0337 194.124 71.9153 194.1 71.796 194.102H60.6877C60.4218 194.11 60.167 194.21 59.9657 194.384C59.7644 194.558 59.6288 194.795 59.5816 195.057L56.8443 212.356C56.8209 212.47 56.823 212.588 56.8504 212.702C56.8777 212.815 56.9297 212.921 57.0026 213.012C57.0754 213.103 57.1675 213.177 57.2721 213.229C57.3768 213.281 57.4915 213.309 57.6082 213.311Z" fill="white" stroke="#263238" stroke-linecap="round" stroke-linejoin="round"/>
  <path d="M69.3214 197.491H70.3318C70.5014 197.486 70.664 197.422 70.7917 197.311C70.9194 197.199 71.0043 197.046 71.0319 196.879L71.199 195.868C71.2133 195.793 71.2106 195.716 71.191 195.642C71.1715 195.568 71.1355 195.5 71.0858 195.442C71.0362 195.384 70.9741 195.337 70.9041 195.307C70.8342 195.276 70.7582 195.261 70.6818 195.264H69.6715C69.5025 195.27 69.3404 195.333 69.2119 195.442C69.0833 195.552 68.9957 195.702 68.9634 195.868L68.8043 196.879C68.7885 196.954 68.7902 197.033 68.8092 197.107C68.8281 197.182 68.8639 197.252 68.9137 197.311C68.9635 197.37 69.0261 197.417 69.0968 197.448C69.1674 197.479 69.2442 197.494 69.3214 197.491V197.491Z" stroke="#263238" stroke-linecap="round" stroke-linejoin="round"/>
  <path d="M69.6 196.378C69.5903 196.427 69.592 196.478 69.6049 196.527C69.6179 196.576 69.6417 196.621 69.6746 196.66C69.7075 196.698 69.7487 196.728 69.795 196.748C69.8413 196.768 69.8916 196.778 69.9421 196.776C70.052 196.769 70.1568 196.727 70.2402 196.655C70.3236 196.583 70.381 196.486 70.4035 196.378C70.413 196.328 70.4112 196.276 70.3983 196.227C70.3854 196.178 70.3617 196.132 70.3289 196.094C70.2962 196.055 70.2552 196.024 70.2089 196.003C70.1626 195.982 70.1122 195.971 70.0614 195.972C69.9504 195.979 69.8448 196.022 69.7612 196.096C69.6777 196.169 69.621 196.268 69.6 196.378V196.378Z" stroke="#263238" stroke-linecap="round" stroke-linejoin="round"/>
  <path d="M70.3559 206.913C70.3559 206.913 71.414 203.826 72.2016 204.526C72.8222 205.091 71.7641 206.913 71.7641 206.913H70.3559Z" fill="white" stroke="#263238" stroke-linecap="round" stroke-linejoin="round"/>
  <path d="M72.9343 208.107C73.1173 207.757 73.73 206.953 73.4913 206.619C73.1014 205.998 71.2792 206.149 70.5789 206.356C70.1254 206.448 69.6985 206.642 69.3296 206.921C69.2262 207.064 69.083 207.486 69.2023 207.613C69.3217 207.741 70.1094 207.51 70.4118 207.502C70.9476 207.546 71.4794 207.628 72.0033 207.749C71.4101 207.935 70.8036 208.076 70.189 208.17C69.5524 208.17 67.221 207.78 67.8018 209.133C67.8018 209.133 66.9425 209.396 67.4358 210.04C67.9292 210.685 69.6002 210.629 69.6002 210.629C69.219 210.736 68.8261 210.795 68.4305 210.804C67.7621 210.804 67.2448 210.295 67.1812 210.653C67.0857 211.202 67.587 211.664 68.2952 211.926C68.6423 212.075 69.0158 212.151 69.3933 212.151C69.7708 212.151 70.1443 212.075 70.4914 211.926C71.677 211.497 72.425 209.117 72.9343 208.107Z" fill="white" stroke="#263238" stroke-linecap="round" stroke-linejoin="round"/>
  <path d="M68.3348 209.34C68.951 209.475 69.5756 209.568 70.2044 209.619C70.6388 209.627 71.0701 209.543 71.4693 209.372" stroke="#263238" stroke-linecap="round" stroke-linejoin="round"/>
  <path d="M62.9239 192.892C63.1288 190.548 63.0674 188.189 62.7409 185.858C61.8656 181.179 60.847 177.272 60.1547 174.869" stroke="#7F7F7F" stroke-linecap="round" stroke-linejoin="round"/>
  <path d="M51.4733 267.619C51.4733 267.619 58.5473 275.282 61.2687 277.415C62.1202 278.083 63.9026 279.802 64.9529 279.651C65.4702 279.563 66.242 278.019 66.242 278.019L63.5763 273.006L62.3668 268.9C62.2746 268.582 62.0855 268.301 61.8259 268.096C61.5663 267.891 61.2492 267.771 60.9186 267.754H60.3377C60.1024 267.743 59.8675 267.785 59.6501 267.876C59.4326 267.967 59.2381 268.105 59.0805 268.28L58.9532 268.423L58.8179 267.675C58.7591 267.355 58.6036 267.06 58.3723 266.831L55.1894 263.649C53.7327 264.003 52.4193 264.794 51.4256 265.916C51.2112 266.151 51.0963 266.46 51.1052 266.777C51.1141 267.095 51.2461 267.397 51.4733 267.619Z" fill="#263238" stroke="#263238" stroke-linecap="round" stroke-linejoin="round"/>
  <path d="M73.5308 228.174C73.5308 228.174 75.7743 225.087 77.0075 224.475" stroke="#263238" stroke-linecap="round" stroke-linejoin="round"/>
  <path d="M68.9476 132.688C68.5434 132.682 68.1564 132.523 67.8654 132.242C64.7146 129.097 60.4448 127.331 55.9932 127.331C51.5415 127.331 47.2717 129.097 44.1209 132.242C43.8325 132.521 43.4459 132.676 43.0445 132.672C42.6432 132.668 42.2594 132.507 41.9761 132.223C41.6928 131.938 41.5328 131.554 41.5306 131.153C41.5285 130.751 41.6843 130.365 41.9645 130.078C45.6921 126.37 50.7357 124.289 55.9932 124.289C61.2506 124.289 66.2943 126.37 70.0218 130.078C70.2358 130.291 70.3817 130.563 70.4412 130.859C70.5008 131.155 70.4712 131.462 70.3562 131.741C70.2412 132.021 70.0461 132.26 69.7954 132.428C69.5446 132.597 69.2496 132.687 68.9476 132.688Z" fill="#B75400" stroke="#263238" stroke-linecap="round" stroke-linejoin="round"/>
  <path d="M64.8815 136.754C64.6802 136.753 64.4809 136.713 64.2952 136.635C64.1094 136.557 63.9409 136.444 63.7993 136.3C61.7284 134.231 58.9207 133.069 55.9933 133.069C53.0658 133.069 50.2582 134.231 48.1872 136.3C48.0572 136.476 47.8913 136.621 47.7005 136.727C47.5096 136.832 47.2984 136.896 47.0809 136.913C46.8635 136.931 46.6448 136.901 46.4397 136.827C46.2346 136.753 46.0478 136.635 45.8918 136.483C45.7359 136.33 45.6144 136.146 45.5355 135.943C45.4567 135.739 45.4223 135.521 45.4347 135.303C45.4471 135.086 45.506 134.873 45.6075 134.68C45.7089 134.487 45.8505 134.318 46.0228 134.184C47.3321 132.874 48.8865 131.836 50.5973 131.127C52.308 130.419 54.1416 130.054 55.9933 130.054C57.8449 130.054 59.6785 130.419 61.3892 131.127C63.1 131.836 64.6544 132.874 65.9637 134.184C66.1743 134.399 66.317 134.671 66.3741 134.967C66.4312 135.262 66.4002 135.568 66.2849 135.846C66.1696 136.124 65.9751 136.362 65.7256 136.531C65.4761 136.699 65.1826 136.791 64.8815 136.794V136.754Z" fill="#B75400" stroke="#263238" stroke-linecap="round" stroke-linejoin="round"/>
  <path d="M61.3246 140.311C61.1234 140.313 60.9238 140.275 60.7378 140.199C60.5518 140.122 60.3833 140.009 60.2424 139.865C59.1136 138.742 57.5858 138.111 55.9932 138.111C54.4006 138.111 52.8728 138.742 51.744 139.865C51.4525 140.122 51.074 140.259 50.6855 140.246C50.297 140.234 49.9277 140.075 49.6529 139.8C49.378 139.525 49.2183 139.156 49.2061 138.767C49.194 138.379 49.3304 138 49.5876 137.709C51.2881 136.013 53.5916 135.06 55.9932 135.06C58.3947 135.06 60.6983 136.013 62.3988 137.709C62.541 137.85 62.6538 138.018 62.7308 138.203C62.8078 138.388 62.8475 138.586 62.8475 138.787C62.8475 138.987 62.8078 139.186 62.7308 139.371C62.6538 139.556 62.541 139.724 62.3988 139.865C62.2588 140.008 62.0916 140.121 61.907 140.197C61.7224 140.274 61.5244 140.312 61.3246 140.311Z" fill="#B75400" stroke="#263238" stroke-linecap="round" stroke-linejoin="round"/>
</svg>
