<svg width="117" height="72" viewBox="0 0 117 72" fill="none" xmlns="http://www.w3.org/2000/svg">
<path d="M115.015 66.9472C115.015 66.972 89.4596 66.9903 57.944 66.9903C26.4284 66.9903 0.866455 66.972 0.866455 66.9472C0.866455 66.9223 26.4168 66.9041 57.944 66.9041C89.4712 66.9041 115.015 66.9239 115.015 66.9472Z" fill="#212121"/>
<path d="M43.8649 0H78.0762V32.5833C78.0762 33.2965 77.7929 33.9805 77.2886 34.4848C76.7843 34.9891 76.1003 35.2724 75.3871 35.2724H43.8649V0Z" fill="#EBEBEB"/>
<path d="M75.2512 10.498C75.2512 10.5693 69.0688 10.6273 61.4423 10.6273C53.8159 10.6273 47.6301 10.5693 47.6301 10.498C47.6301 10.4267 53.8125 10.3687 61.4423 10.3687C69.0721 10.3687 75.2512 10.4267 75.2512 10.498Z" fill="#616161"/>
<path d="M61.6048 12.8903C61.6048 12.9616 58.5509 13.0196 54.7824 13.0196C51.0139 13.0196 47.9584 12.9616 47.9584 12.8903C47.9584 12.819 51.0139 12.761 54.7824 12.761C58.5509 12.761 61.6048 12.8157 61.6048 12.8903Z" fill="#616161"/>
<path d="M67.0594 12.6667C67.0594 12.738 66.2503 12.796 65.2522 12.796C64.2541 12.796 63.4451 12.738 63.4451 12.6667C63.4451 12.5954 64.2541 12.5374 65.2522 12.5374C66.2503 12.5374 67.0594 12.5954 67.0594 12.6667Z" fill="#616161"/>
<path d="M75.989 12.519C75.989 12.5903 74.3874 12.6483 72.4112 12.6483C70.4349 12.6483 68.8334 12.5903 68.8334 12.519C68.8334 12.4477 70.4349 12.3896 72.4112 12.3896C74.3874 12.3896 75.989 12.4477 75.989 12.519Z" fill="#616161"/>
<path d="M60.4658 15.1733C60.4658 15.2462 57.5926 15.3042 54.048 15.3042C50.5033 15.3042 47.6301 15.2462 47.6301 15.1733C47.6301 15.1003 50.5033 15.0439 54.048 15.0439C57.5926 15.0439 60.4658 15.102 60.4658 15.1733Z" fill="#616161"/>
<path d="M75.989 15.1088C75.989 15.1801 72.8522 15.2381 68.9826 15.2381C65.113 15.2381 61.9745 15.1801 61.9745 15.1088C61.9745 15.0375 65.1113 14.9795 68.9826 14.9795C72.8538 14.9795 75.989 15.0359 75.989 15.1088Z" fill="#616161"/>
<path d="M75.989 17.41C75.989 17.4813 74.593 17.5393 72.8688 17.5393C71.1445 17.5393 69.7485 17.4813 69.7485 17.41C69.7485 17.3387 71.1462 17.2791 72.8688 17.2791C74.5913 17.2791 75.989 17.3371 75.989 17.41Z" fill="#616161"/>
<path d="M63.0803 7.93645C63.0803 8.00774 59.6949 8.06577 55.5202 8.06577C51.3455 8.06577 47.9584 8.00774 47.9584 7.93645C47.9584 7.86516 51.3439 7.80713 55.5202 7.80713C59.6965 7.80713 63.0803 7.86516 63.0803 7.93645Z" fill="#B75400"/>
<path d="M84.1144 19.7576H17.8752C16.5411 19.7576 15.4596 20.8391 15.4596 22.1732V64.3393C15.4596 65.6734 16.5411 66.7549 17.8752 66.7549H84.1144C85.4485 66.7549 86.53 65.6734 86.53 64.3393V22.1732C86.53 20.8391 85.4485 19.7576 84.1144 19.7576Z" fill="#212121"/>
<path d="M12.5864 63.2781H89.584V64.4386C89.584 65.2213 89.2731 65.9719 88.7196 66.5254C88.1662 67.0788 87.4155 67.3897 86.6329 67.3897H15.5375C14.7549 67.3897 14.0042 67.0788 13.4508 66.5254C12.8973 65.9719 12.5864 65.2213 12.5864 64.4386V63.2781Z" fill="#212121"/>
<path d="M84.5207 21.6243H17.4657V61.3134H84.5207V21.6243Z" fill="#616161"/>
<path d="M44.087 63.2782H44.3871H45.2625L48.5104 63.2649L59.3748 63.2417H59.4544L59.4146 63.3113L58.9835 64.0508L58.5276 64.8317L58.5143 64.8549H58.4878L45.042 64.83H45.0304V64.82L44.3258 63.6744L44.1484 63.3843L44.092 63.2881C44.092 63.2881 44.1169 63.3229 44.1583 63.3893L44.3473 63.6794C44.5131 63.9364 44.7519 64.3111 45.0652 64.7968L45.047 64.7869L58.4928 64.762L58.453 64.7852L58.9089 64.0043L59.34 63.2649L59.3798 63.3345L48.5601 63.3113L45.2907 63.2914H44.402H44.1683L44.087 63.2782Z" fill="#616161"/>
<path d="M86.5284 63.2782C86.5284 63.3031 70.6123 63.3213 50.9956 63.3213C31.379 63.3213 15.4596 63.3031 15.4596 63.2782C15.4596 63.2533 31.3658 63.2351 50.9956 63.2351C70.6255 63.2351 86.5284 63.255 86.5284 63.2782Z" fill="#616161"/>
<path d="M68.3857 13.6978C68.9133 13.6978 69.4194 13.9074 69.7925 14.2805C70.1656 14.6536 70.3752 15.1596 70.3752 15.6873V19.7608H64.4398V15.999C64.4396 15.6967 64.499 15.3974 64.6145 15.1181C64.7301 14.8388 64.8996 14.585 65.1133 14.3713C65.3271 14.1575 65.5808 13.988 65.8601 13.8725C66.1394 13.7569 66.4388 13.6975 66.741 13.6978H68.3857Z" fill="#212121"/>
<path d="M68.3856 13.6978C68.3856 13.7226 62.7851 13.7359 55.8765 13.7309C48.9679 13.7259 43.3674 13.6994 43.3674 13.6762C43.3674 13.653 48.9663 13.6381 55.8765 13.643C62.7868 13.648 68.3856 13.6745 68.3856 13.6978Z" fill="#212121"/>
<path d="M68.3392 13.6928L65.8623 13.6763L62.2662 13.6978H35.8488C34.7715 13.6978 33.7383 14.1258 32.9766 14.8875C32.2148 15.6493 31.7869 16.6825 31.7869 17.7597V61.4081H65.9999V15.9244C66.101 13.6978 68.3392 13.6928 68.3392 13.6928Z" fill="#FAFAFA"/>
<path d="M68.3393 13.6929L47.7097 13.7377H37.3957H36.1058C35.8903 13.7377 35.6781 13.7377 35.4658 13.7559C35.2549 13.7783 35.046 13.8166 34.8408 13.8703C34.2215 14.0301 33.6497 14.3364 33.1736 14.7634C32.6975 15.1905 32.3311 15.7257 32.1052 16.3241C32.0721 16.4252 32.0256 16.5213 32.0024 16.6241L31.9245 16.9325C31.884 17.1409 31.8591 17.3521 31.8499 17.5642C31.8317 18.418 31.8499 19.2818 31.8499 20.1406L31.8781 61.3982L31.7952 61.3153L66.0082 61.3385L65.9485 61.3982L65.9651 36.8608L65.985 24.5921L65.9966 18.4578V16.9242V16.1566C65.9916 16.0287 65.9966 15.9007 66.0115 15.7736C66.0204 15.646 66.0409 15.5195 66.0729 15.3956C66.1796 14.8889 66.4762 14.4422 66.9018 14.1472C67.112 14.0007 67.3443 13.8887 67.5899 13.8156C67.8333 13.7422 68.0852 13.701 68.3393 13.6929ZM68.3393 13.6929C68.0835 13.7042 67.8304 13.7494 67.5866 13.8272C67.3416 13.9005 67.1098 14.0124 66.9002 14.1588C66.4774 14.454 66.1842 14.9003 66.0812 15.4056C66.0496 15.5289 66.0296 15.6549 66.0215 15.7819C66.0079 15.9091 66.0035 16.0371 66.0082 16.1649V18.4644L66.0215 24.5988L66.0414 36.8675L66.0563 61.4048V61.4678H65.9949L31.7819 61.4894H31.7007V61.4065L31.7272 20.1489C31.7272 19.2884 31.7272 18.4313 31.7388 17.5675C31.7485 17.3499 31.774 17.1332 31.8151 16.9192L31.898 16.6042C31.9212 16.4981 31.9693 16.3987 32.0024 16.2959C32.2348 15.6825 32.6113 15.134 33.1001 14.6965C33.5889 14.2591 34.1756 13.9456 34.811 13.7824C35.0217 13.728 35.2361 13.6892 35.4526 13.6664C35.6698 13.6548 35.887 13.6432 36.1008 13.6482H37.3907H47.7047L68.3393 13.6929Z" fill="#212121"/>
<path d="M36.9415 21.5515H42.91L42.92 23.551H42.6331C42.5403 22.8359 42.2728 22.3517 41.8307 22.0986C41.4818 21.9379 41.1005 21.8602 40.7166 21.8715V27.094C40.7166 27.4604 40.7796 27.7024 40.9072 27.8218C41.0349 27.9412 41.3002 28.0009 41.7047 28.0009V28.2529H38.1716V28.0009C38.5579 28.0009 38.8166 27.9395 38.9426 27.8185C39.0686 27.6975 39.1349 27.4571 39.1349 27.094V21.8715C38.7512 21.8623 38.3703 21.94 38.0208 22.0986C37.5466 22.3589 37.278 22.8414 37.2167 23.551H36.9315L36.9415 21.5515Z" fill="#B75400"/>
<path d="M61.3047 22.009C61.3047 22.0802 58.0121 22.1383 53.9502 22.1383C49.8882 22.1383 46.5956 22.0802 46.5956 22.009C46.5956 21.9377 49.8882 21.8796 53.9502 21.8796C58.0121 21.8796 61.3047 21.931 61.3047 22.009Z" fill="#B75400"/>
<path d="M52.5773 24.3534C52.5773 24.4247 51.304 24.4827 49.734 24.4827C48.1639 24.4827 46.8906 24.4247 46.8906 24.3534C46.8906 24.2821 48.1639 24.2224 49.734 24.2224C51.304 24.2224 52.5773 24.2804 52.5773 24.3534Z" fill="#616161"/>
<path d="M45.4085 31.5221C45.4085 31.5934 42.9912 31.6515 40.0086 31.6515C37.026 31.6515 34.6071 31.5934 34.6071 31.5221C34.6071 31.4508 37.0243 31.3928 40.0086 31.3928C42.9929 31.3928 45.4085 31.4591 45.4085 31.5221Z" fill="#616161"/>
<path d="M57.6406 31.5221C57.6406 31.5934 55.2217 31.6515 52.2408 31.6515C49.2598 31.6515 46.8392 31.5934 46.8392 31.5221C46.8392 31.4508 49.2565 31.3928 52.2408 31.3928C55.225 31.3928 57.6406 31.4591 57.6406 31.5221Z" fill="#B75400"/>
<path d="M45.4085 33.4372C45.4085 33.5085 42.9912 33.5665 40.0086 33.5665C37.026 33.5665 34.6071 33.5085 34.6071 33.4372C34.6071 33.3659 37.0243 33.3079 40.0086 33.3079C42.9929 33.3079 45.4085 33.3659 45.4085 33.4372Z" fill="#616161"/>
<path d="M45.4085 35.3519C45.4085 35.4232 42.9912 35.4812 40.0086 35.4812C37.026 35.4812 34.6071 35.4232 34.6071 35.3519C34.6071 35.2806 37.0243 35.2209 40.0086 35.2209C42.9929 35.2209 45.4085 35.2723 45.4085 35.3519Z" fill="#B75400"/>
<path d="M52.5773 28.2529C52.5773 28.3241 51.304 28.3822 49.734 28.3822C48.1639 28.3822 46.8906 28.3241 46.8906 28.2529C46.8906 28.1816 48.1639 28.1235 49.734 28.1235C51.304 28.1235 52.5773 28.1816 52.5773 28.2529Z" fill="#616161"/>
<path d="M62.442 31.5221C62.442 31.5934 61.5931 31.6515 60.5469 31.6515C59.5008 31.6515 58.6503 31.5934 58.6503 31.5221C58.6503 31.4508 59.4991 31.3928 60.5469 31.3928C61.5948 31.3928 62.442 31.4591 62.442 31.5221Z" fill="#616161"/>
<path d="M63.4566 24.3534C63.4566 24.4247 61.2714 24.4827 58.5773 24.4827C55.8831 24.4827 53.698 24.4247 53.698 24.3534C53.698 24.2821 55.8815 24.2224 58.5773 24.2224C61.2731 24.2224 63.4566 24.2804 63.4566 24.3534Z" fill="#616161"/>
<path d="M63.0156 26.2201C63.0156 26.2914 59.4063 26.3495 54.9531 26.3495C50.4999 26.3495 46.8906 26.2914 46.8906 26.2201C46.8906 26.1488 50.4999 26.0908 54.9531 26.0908C59.4063 26.0908 63.0156 26.1538 63.0156 26.2201Z" fill="#616161"/>
<path d="M62.442 33.4372C62.442 33.5085 58.9488 33.5665 54.6497 33.5665C50.3507 33.5665 46.8475 33.5085 46.8475 33.4372C46.8475 33.3659 50.3391 33.3079 54.6497 33.3079C58.9604 33.3079 62.442 33.3659 62.442 33.4372Z" fill="#616161"/>
<path d="M62.442 38.9797C62.442 39.051 59.1642 39.109 55.1222 39.109C51.0802 39.109 47.8008 39.051 47.8008 38.9797C47.8008 38.9084 51.0785 38.8503 55.1222 38.8503C59.1659 38.8503 62.442 38.9084 62.442 38.9797Z" fill="#B75400"/>
<path d="M62.442 40.8432C62.442 40.9145 59.1642 40.9725 55.1222 40.9725C51.0802 40.9725 47.8008 40.9145 47.8008 40.8432C47.8008 40.7719 51.0785 40.7139 55.1222 40.7139C59.1659 40.7139 62.442 40.7719 62.442 40.8432Z" fill="#616161"/>
<path d="M62.442 42.7067C62.442 42.778 59.1642 42.836 55.1222 42.836C51.0802 42.836 47.8008 42.778 47.8008 42.7067C47.8008 42.6354 51.0785 42.5774 55.1222 42.5774C59.1659 42.5774 62.442 42.6354 62.442 42.7067Z" fill="#616161"/>
<path d="M62.442 44.5702C62.442 44.6415 59.1642 44.6996 55.1222 44.6996C51.0802 44.6996 47.8008 44.6415 47.8008 44.5702C47.8008 44.4989 51.0785 44.4409 55.1222 44.4409C59.1659 44.4409 62.442 44.4989 62.442 44.5702Z" fill="#616161"/>
<path d="M56.2297 46.4335C56.2297 46.4683 55.7572 46.5015 54.9945 46.5247C54.2319 46.5479 53.1708 46.5628 52.0103 46.5628C50.8497 46.5628 49.7919 46.5479 49.026 46.5247C48.26 46.5015 47.7925 46.4683 47.7925 46.4335C47.7925 46.3987 48.2633 46.3655 49.026 46.3423C49.7886 46.3191 50.8497 46.3042 52.0103 46.3042C53.1708 46.3042 54.2269 46.3191 54.9945 46.3423C55.7621 46.3655 56.2297 46.397 56.2297 46.4335Z" fill="#616161"/>
<path d="M59.7893 35.4516C59.7893 35.5229 56.9709 35.5809 53.4892 35.5809C50.0076 35.5809 47.1891 35.5229 47.1891 35.4516C47.1891 35.3803 50.0076 35.3223 53.4892 35.3223C56.9709 35.3223 59.7893 35.3803 59.7893 35.4516Z" fill="#616161"/>
<path d="M45.1532 39.1901L45.9308 53.5743L31.8666 55.335L31.855 39.0674L45.1532 39.1901Z" fill="#E0E0E0"/>
<path d="M26.9435 38.1934L26.845 53.4526L45.9307 53.5759L46.0292 38.3166L26.9435 38.1934Z" fill="#F5F5F5"/>
<path d="M27.5953 39.1593L27.5092 52.4971L45.2536 52.6117L45.3397 39.2739L27.5953 39.1593Z" fill="#B75400"/>
<g opacity="0.2">
<path opacity="0.2" d="M27.5077 52.495L33.7597 44.2451L37.5647 49.456L40.1875 46.7005L45.2542 52.6094L27.5077 52.495Z" fill="black"/>
</g>
<g opacity="0.2">
<path opacity="0.2" d="M39.2343 43.2636C39.2327 43.5401 39.1491 43.8099 38.9941 44.0389C38.839 44.2678 38.6196 44.4456 38.3635 44.5499C38.1074 44.6541 37.8261 44.68 37.5553 44.6243C37.2845 44.5686 37.0362 44.4339 36.842 44.2371C36.6478 44.0403 36.5163 43.7903 36.4642 43.5188C36.412 43.2473 36.4416 42.9664 36.5492 42.7117C36.6567 42.4569 36.8374 42.2398 37.0683 42.0878C37.2993 41.9358 37.5702 41.8557 37.8466 41.8577C38.0301 41.8588 38.2116 41.896 38.3806 41.9673C38.5497 42.0385 38.703 42.1424 38.8319 42.273C38.9608 42.4036 39.0627 42.5583 39.1317 42.7283C39.2008 42.8982 39.2356 43.0802 39.2343 43.2636Z" fill="black"/>
</g>
<path d="M47.7676 57.1738C47.7676 57.2321 47.7503 57.2892 47.7179 57.3377C47.6854 57.3863 47.6393 57.4241 47.5854 57.4464C47.5315 57.4688 47.4722 57.4746 47.4149 57.4632C47.3577 57.4518 47.3051 57.4237 47.2638 57.3825C47.2225 57.3412 47.1944 57.2886 47.183 57.2314C47.1717 57.1741 47.1775 57.1148 47.1998 57.0608C47.2222 57.0069 47.26 56.9608 47.3085 56.9284C47.3571 56.896 47.4141 56.8787 47.4725 56.8787C47.5113 56.8784 47.5498 56.8859 47.5857 56.9007C47.6216 56.9154 47.6542 56.9372 47.6816 56.9646C47.7091 56.9921 47.7308 57.0247 47.7456 57.0606C47.7603 57.0965 47.7678 57.135 47.7676 57.1738Z" fill="#212121"/>
<path d="M49.5202 57.1738C49.5202 57.2321 49.5028 57.2892 49.4704 57.3377C49.438 57.3863 49.3919 57.4241 49.338 57.4464C49.2841 57.4688 49.2247 57.4746 49.1675 57.4632C49.1102 57.4518 49.0576 57.4237 49.0164 57.3824C48.9751 57.3412 48.947 57.2886 48.9356 57.2313C48.9242 57.1741 48.9301 57.1148 48.9524 57.0608C48.9747 57.0069 49.0126 56.9608 49.0611 56.9284C49.1096 56.896 49.1667 56.8787 49.225 56.8787C49.3033 56.8787 49.3784 56.9098 49.4337 56.9651C49.4891 57.0204 49.5202 57.0955 49.5202 57.1738Z" fill="#212121"/>
<path d="M51.2709 57.1738C51.2709 57.2321 51.2536 57.2892 51.2211 57.3377C51.1887 57.3863 51.1426 57.4241 51.0887 57.4464C51.0348 57.4688 50.9754 57.4746 50.9182 57.4632C50.861 57.4518 50.8084 57.4237 50.7671 57.3824C50.7258 57.3412 50.6977 57.2886 50.6863 57.2313C50.6749 57.1741 50.6808 57.1148 50.7031 57.0608C50.7255 57.0069 50.7633 56.9608 50.8118 56.9284C50.8604 56.896 50.9174 56.8787 50.9758 56.8787C51.054 56.8787 51.1291 56.9098 51.1845 56.9651C51.2398 57.0204 51.2709 57.0955 51.2709 57.1738Z" fill="#212121"/>
<path d="M57.7235 50.3166C57.7235 50.3879 55.3046 50.4459 52.3219 50.4459C49.3393 50.4459 46.9204 50.3879 46.9204 50.3166C46.9204 50.2453 49.3393 50.1873 52.3219 50.1873C55.3046 50.1873 57.7235 50.2453 57.7235 50.3166Z" fill="#B75400"/>
<path d="M62.5248 52.2314C62.5248 52.3027 59.0316 52.3607 54.7226 52.3607C50.4137 52.3607 46.9204 52.3027 46.9204 52.2314C46.9204 52.1601 50.4137 52.1021 54.7226 52.1021C59.0316 52.1021 62.5248 52.1601 62.5248 52.2314Z" fill="#616161"/>
<path d="M97.2517 55.6363L97.1598 64.8279L108.656 64.9428L108.748 55.7513L97.2517 55.6363Z" fill="#F5F5F5"/>
<path d="M97.2466 56.0051L97.1947 64.0393L107.883 64.1083L107.935 56.0742L97.2466 56.0051Z" fill="#B75400"/>
<path opacity="0.2" d="M97.1921 64.0357L100.957 59.0669L103.25 62.2054L104.83 60.5458L107.881 64.1053L97.1921 64.0357Z" fill="black"/>
<g opacity="0.2">
<path opacity="0.2" d="M104.256 58.4833C104.256 58.6499 104.206 58.8126 104.113 58.9508C104.019 59.0889 103.887 59.1964 103.733 59.2595C103.579 59.3226 103.409 59.3385 103.246 59.3052C103.083 59.2719 102.933 59.1909 102.816 59.0725C102.699 58.9541 102.619 58.8036 102.587 58.64C102.556 58.4764 102.573 58.307 102.638 58.1534C102.702 57.9998 102.811 57.8688 102.95 57.777C103.089 57.6852 103.253 57.6367 103.419 57.6377C103.642 57.639 103.856 57.7288 104.013 57.8873C104.17 58.0458 104.257 58.2602 104.256 58.4833Z" fill="black"/>
</g>
<path d="M95.1689 54.4627L95.1095 63.6541L106.605 63.7283L106.665 54.5369L95.1689 54.4627Z" fill="#F5F5F5"/>
<path d="M95.5629 55.044L95.511 63.0781L106.199 63.1471L106.251 55.113L95.5629 55.044Z" fill="#B75400"/>
<path opacity="0.2" d="M95.506 63.0757L99.2711 58.1069L101.564 61.2454L103.144 59.5858L106.195 63.1454L95.506 63.0757Z" fill="black"/>
<g opacity="0.2">
<path opacity="0.2" d="M102.57 57.5167C102.569 57.6837 102.519 57.8465 102.425 57.9846C102.331 58.1228 102.199 58.2299 102.044 58.2925C101.889 58.355 101.719 58.3702 101.556 58.3361C101.393 58.3019 101.243 58.22 101.126 58.1007C101.009 57.9814 100.931 57.8301 100.9 57.666C100.87 57.5019 100.889 57.3324 100.954 57.179C101.02 57.0257 101.13 56.8954 101.271 56.8047C101.411 56.7139 101.575 56.6669 101.741 56.6695C101.963 56.673 102.175 56.764 102.33 56.9226C102.485 57.0813 102.572 57.2948 102.57 57.5167Z" fill="black"/>
</g>
<path d="M93.6686 53.6717L93.6093 62.863L105.105 62.9373L105.164 53.7459L93.6686 53.6717Z" fill="#F5F5F5"/>
<path d="M94.0612 54.2512L94.0093 62.2854L104.698 62.3544L104.75 54.3203L94.0612 54.2512Z" fill="#B75400"/>
<path opacity="0.2" d="M94.0056 62.2832L97.7708 57.3127L100.064 60.4529L101.642 58.7916L104.694 62.3512L94.0056 62.2832Z" fill="black"/>
<g opacity="0.2">
<path opacity="0.2" d="M101.068 56.7226C101.067 56.8895 101.017 57.0523 100.923 57.1904C100.829 57.3286 100.697 57.4357 100.542 57.4983C100.387 57.5609 100.217 57.576 100.054 57.5419C99.8906 57.5077 99.741 57.4258 99.6243 57.3065C99.5075 57.1872 99.4289 57.0359 99.3983 56.8718C99.3677 56.7077 99.3866 56.5382 99.4525 56.3848C99.5184 56.2315 99.6284 56.1012 99.7686 56.0105C99.9087 55.9198 100.073 55.8727 100.24 55.8753C100.461 55.8788 100.673 55.9698 100.828 56.1284C100.983 56.2871 101.07 56.5006 101.068 56.7226Z" fill="black"/>
</g>
<path d="M92.3602 54.8661L92.2683 64.0576L103.764 64.1726L103.856 54.981L92.3602 54.8661Z" fill="#F5F5F5"/>
<path d="M92.3756 55.239L92.3237 63.2732L103.012 63.3422L103.064 55.3081L92.3756 55.239Z" fill="#616161"/>
<path opacity="0.2" d="M92.3196 63.2715L96.0847 58.301L98.3777 61.4395L99.956 59.7799L103.008 63.3395L92.3196 63.2715Z" fill="black"/>
<g opacity="0.2">
<path opacity="0.2" d="M99.3889 57.7108C99.3879 57.8778 99.3373 58.0406 99.2436 58.1787C99.1498 58.3168 99.0172 58.424 98.8624 58.4866C98.7077 58.5491 98.5378 58.5643 98.3744 58.5302C98.211 58.496 98.0615 58.4141 97.9447 58.2948C97.828 58.1755 97.7493 58.0242 97.7187 57.8601C97.6881 57.696 97.707 57.5265 97.7729 57.3731C97.8389 57.2198 97.9489 57.0895 98.089 56.9987C98.2291 56.908 98.393 56.861 98.5599 56.8636C98.7822 56.8663 98.9942 56.9569 99.1497 57.1158C99.3051 57.2746 99.3911 57.4886 99.3889 57.7108Z" fill="black"/>
</g>
<path d="M110.111 58.0737H103.474V66.9486H110.111V58.0737Z" fill="#212121"/>
<path d="M90.7677 58.0737V66.947H104.031V58.0737H90.7677ZM98.8169 60.1727H95.9985C95.8367 60.1727 95.6815 60.1084 95.5671 59.994C95.4526 59.8796 95.3883 59.7244 95.3883 59.5626C95.3883 59.4007 95.4526 59.2456 95.5671 59.1311C95.6815 59.0167 95.8367 58.9524 95.9985 58.9524H98.8169C98.9788 58.9524 99.1339 59.0167 99.2484 59.1311C99.3628 59.2456 99.4271 59.4007 99.4271 59.5626C99.4271 59.7244 99.3628 59.8796 99.2484 59.994C99.1339 60.1084 98.9788 60.1727 98.8169 60.1727Z" fill="#B75400"/>
<path d="M82.1547 66.0203L69.8115 65.2643C69.7335 65.0869 69.6821 64.9841 69.6821 64.9841L66.3364 65.0521L65.2472 64.9841L65.2041 65.0737L53.9733 65.2975C51.7334 65.2975 49.3791 66.6636 49.3791 68.4094C49.3509 70.0673 50.1567 71.8745 52.1628 71.833L67.4638 71.7816L82.7665 71.833C84.7726 71.8745 85.3031 70.6725 85.3065 69.2284C85.5402 66.5558 83.8657 66.0419 82.1547 66.0203Z" fill="#616161"/>
<path d="M53.5671 71.8346H53.6401H53.8573L54.6862 71.8263L57.7667 71.8131L68.0458 71.7998L68.0027 71.8446C67.9812 71.513 67.9596 71.1499 67.9364 70.7885C67.89 70.049 67.8452 69.3196 67.8021 68.6332L67.8403 68.673L58.3735 67.6019L55.5683 67.282L54.8122 67.1908L54.6166 67.1659C54.5947 67.1641 54.5731 67.1602 54.5519 67.1543H54.6183L54.8139 67.1725L55.5716 67.2471L58.3801 67.5423L67.8485 68.5669H67.8834V68.6017C67.9281 69.2947 67.9729 70.0225 68.0193 70.757C68.0425 71.1184 68.0641 71.4782 68.0856 71.8131V71.8595H68.0409L57.7617 71.8446L54.6813 71.8313H53.8523H53.6351L53.5671 71.8346Z" fill="#212121"/>
<path d="M56.7221 67.4445C56.7122 67.4561 56.5563 67.3318 56.2894 67.1676C55.9379 66.9537 55.56 66.7866 55.1653 66.6702C54.7698 66.5575 54.3612 66.4973 53.95 66.4912C53.635 66.4912 53.4394 66.5111 53.4377 66.4912C53.4812 66.4738 53.527 66.4632 53.5737 66.4597C53.6983 66.4404 53.824 66.4294 53.95 66.4265C54.7924 66.4019 55.6216 66.6401 56.3225 67.1079C56.428 67.1775 56.5288 67.2539 56.6243 67.3367C56.6906 67.4047 56.7254 67.4362 56.7221 67.4445Z" fill="#212121"/>
<path d="M81.1965 66.7879C81.1965 66.8111 78.7676 67.3997 75.7602 68.1026C72.7527 68.8056 70.3072 69.356 70.3023 69.3328C70.2973 69.3096 72.7311 68.721 75.7403 68.0181C78.7494 67.3151 81.1915 66.773 81.1965 66.7879Z" fill="#212121"/>
<path d="M79.139 66.5493C78.8054 66.6677 78.4853 66.8211 78.184 67.0069C77.8999 67.2171 77.6402 67.4585 77.4098 67.7264C77.4467 67.6263 77.5031 67.5345 77.5756 67.4562C77.8978 67.0521 78.3356 66.7559 78.8306 66.6073C78.9291 66.5697 79.0336 66.5501 79.139 66.5493Z" fill="#212121"/>
<path d="M74.5432 52.5347L78.4542 59.3421C78.692 59.756 78.8235 60.2222 78.8371 60.6993C78.8507 61.1763 78.7459 61.6494 78.5322 62.0761C78.2856 62.5685 77.9036 62.9803 77.431 63.2631C76.9585 63.5459 76.415 63.688 75.8645 63.6726L69.8595 63.5068L69.702 61.3234L74.9892 60.307L71.4246 54.1362L74.5432 52.5347Z" fill="#FFBE9D"/>
<path d="M59.9701 64.1833L65.491 65.6456L65.612 63.9876L60.5238 61.0332L64.2409 54.1362L61.1223 52.5347L57.2113 59.3421C56.9892 59.7546 56.8607 60.2109 56.8351 60.6787C56.8095 61.1464 56.8873 61.6141 57.063 62.0483C57.2387 62.4826 57.508 62.8727 57.8518 63.191C58.1955 63.5093 58.6051 63.7479 59.0516 63.8898L59.9701 64.1833Z" fill="#FFBE9D"/>
<path d="M72.8836 56.9051L76.657 54.9156C76.1927 53.9744 75.6521 53.0728 75.0406 52.2198C73.8717 50.6033 72.0563 49.4743 70.0004 49.0432L65.66 49.0946C65.1298 49.1414 64.6087 49.2614 64.1115 49.4511V49.4345C61.7556 49.9534 59.1377 55.0913 59.1377 55.0913L62.5829 56.9001L62.6591 57.4406C62.7601 58.1568 63.0717 58.8268 63.5544 59.3655L62.5597 65.9425L73.691 66.1729L72.2768 61.4677L72.8836 56.9051Z" fill="#B75400"/>
<path d="M63.6524 59.4018C63.5917 59.3674 63.536 59.325 63.4866 59.2758C63.3435 59.15 63.2161 59.0075 63.1069 58.8514C62.7491 58.3258 62.5845 57.6925 62.641 57.0592C62.6972 56.7208 62.7827 56.388 62.8963 56.0644C62.9958 55.7643 63.0986 55.499 63.1865 55.2769C63.2744 55.0547 63.3523 54.8773 63.4053 54.7563C63.4295 54.6912 63.4618 54.6293 63.5015 54.5723C63.4863 54.6399 63.4646 54.706 63.4368 54.7696C63.3854 54.9105 63.3208 55.0879 63.2428 55.2984C63.1649 55.509 63.0671 55.7958 62.9726 56.0893C62.8634 56.4101 62.7814 56.7395 62.7272 57.0741C62.6996 57.4086 62.7316 57.7455 62.8217 58.0688C62.893 58.3347 63.0049 58.5881 63.1533 58.8199C63.3032 59.0274 63.4701 59.2221 63.6524 59.4018Z" fill="#212121"/>
<path d="M61.9811 67.5307L61.3511 60.1943H74.9279L74.0276 67.6219L61.9811 67.5307Z" fill="#212121"/>
<path d="M69.0041 64.1072C69.0044 64.2785 68.9539 64.4461 68.8589 64.5886C68.7639 64.7312 68.6288 64.8424 68.4706 64.9081C68.3124 64.9738 68.1382 64.9911 67.9702 64.9577C67.8022 64.9244 67.6478 64.8419 67.5267 64.7208C67.4055 64.5997 67.3231 64.4453 67.2897 64.2773C67.2564 64.1093 67.2737 63.9351 67.3394 63.7769C67.4051 63.6187 67.5163 63.4835 67.6589 63.3886C67.8014 63.2936 67.969 63.2431 68.1403 63.2434C68.3694 63.2434 68.5891 63.3344 68.7511 63.4964C68.9131 63.6584 69.0041 63.8781 69.0041 64.1072Z" fill="#FAFAFA"/>
<path d="M67.9015 68.9631L70.2077 69.2848V71.7916L68.0872 71.7369L67.9015 68.9631Z" fill="#FFBE9D"/>
<path d="M70.2094 69.2847H71.2456C71.4471 69.2847 71.645 69.3378 71.8193 69.4389L72.3647 69.7572C72.6733 69.9282 72.9923 70.0799 73.3197 70.2114C73.9497 70.4137 75.0091 70.6873 75.2329 70.8597C75.8696 71.3571 75.6756 71.9324 75.3258 71.9921C75.0191 72.0468 70.2078 71.7931 70.2078 71.7931L70.2094 69.2847Z" fill="#B75400"/>
<path d="M71.9089 71.5811C71.8285 71.3736 71.7907 71.152 71.7978 70.9295C71.7756 70.7058 71.8005 70.4799 71.8707 70.2664C71.8874 70.4837 71.8918 70.7018 71.884 70.9196C71.9053 71.1394 71.9136 71.3603 71.9089 71.5811Z" fill="#212121"/>
<path d="M72.4012 71.5694C72.347 71.1725 72.3504 70.7699 72.4111 70.374C72.4512 70.5708 72.4641 70.7722 72.4493 70.9725C72.4611 71.1728 72.4449 71.3736 72.4012 71.5694Z" fill="#212121"/>
<path d="M72.9814 71.6689C72.8921 71.2647 72.8598 70.8501 72.8853 70.437C72.9437 70.6358 72.9744 70.8416 72.9765 71.0488C73.0064 71.2543 73.0081 71.4629 72.9814 71.6689Z" fill="#212121"/>
<path d="M71.4611 70.9177C71.3871 70.9079 71.3154 70.8855 71.2489 70.8514C71.0604 70.7723 70.8853 70.6644 70.73 70.5314C70.6819 70.49 70.6322 70.4436 70.5824 70.3922C70.5265 70.3396 70.4814 70.2765 70.4498 70.2065C70.4318 70.1645 70.4251 70.1186 70.4303 70.0732C70.4355 70.0278 70.4526 69.9846 70.4796 69.9478C70.5116 69.909 70.5573 69.884 70.6073 69.8782C70.6548 69.873 70.7029 69.8781 70.7482 69.8931C70.9288 69.9581 71.0877 70.0721 71.2071 70.2223C71.3265 70.3726 71.4017 70.5531 71.4243 70.7437C71.4468 70.9342 71.4158 71.1273 71.3348 71.3013C71.2537 71.4752 71.1258 71.6231 70.9654 71.7285C70.8938 71.7799 70.8126 71.8165 70.7267 71.8362C70.6826 71.8469 70.6365 71.8469 70.5924 71.8362C70.5696 71.8287 70.5485 71.8166 70.5305 71.8006C70.5126 71.7847 70.4981 71.7652 70.4879 71.7434C70.4732 71.7042 70.4682 71.6619 70.4734 71.6203C70.4786 71.5787 70.4938 71.539 70.5178 71.5046C70.5539 71.4434 70.5986 71.3876 70.6504 71.3389C70.7979 71.1967 70.9712 71.0841 71.1611 71.0073C71.2282 70.9748 71.3007 70.9546 71.3749 70.9476C71.3749 70.9476 71.302 70.9774 71.1743 71.0388C70.9951 71.1254 70.8324 71.2426 70.6935 71.3853C70.6472 71.429 70.6075 71.4793 70.5758 71.5345C70.5588 71.5598 70.5478 71.5885 70.5435 71.6187C70.5392 71.6488 70.5417 71.6796 70.5509 71.7086C70.5677 71.7358 70.5935 71.7562 70.6237 71.7665C70.654 71.7768 70.6868 71.7763 70.7167 71.7649C70.7914 71.7459 70.8618 71.7127 70.924 71.6671C71.0706 71.5691 71.1874 71.4325 71.2613 71.2724C71.3353 71.1123 71.3637 70.9348 71.3433 70.7596C71.3229 70.5844 71.2545 70.4182 71.1457 70.2794C71.0369 70.1405 70.8919 70.0344 70.7267 69.9727C70.6967 69.9579 70.6629 69.9525 70.6297 69.9572C70.5966 69.9619 70.5656 69.9766 70.541 69.9992C70.522 70.0256 70.5102 70.0564 70.5067 70.0886C70.5032 70.1209 70.5082 70.1535 70.5211 70.1833C70.5843 70.301 70.6706 70.4047 70.7748 70.4883C70.9807 70.6651 71.2121 70.8098 71.4611 70.9177Z" fill="#212121"/>
<path d="M75.3258 71.9905C75.3783 71.9441 75.4212 71.8877 75.4518 71.8247C75.4821 71.7384 75.4917 71.6462 75.4799 71.5555C75.4681 71.4648 75.4352 71.3781 75.3838 71.3024C75.2346 71.0707 75.0077 70.8997 74.7439 70.82C74.4504 70.7139 74.1022 70.6641 73.7491 70.5531C73.1456 70.372 72.5695 70.1099 72.0365 69.7738C71.8342 69.6445 71.6767 69.5285 71.5706 69.4422C71.5127 69.4022 71.4599 69.3555 71.4131 69.303C71.4756 69.3343 71.535 69.3715 71.5905 69.4141C71.7016 69.4887 71.8624 69.5964 72.0696 69.7191C72.6054 70.0367 73.1777 70.2884 73.774 70.4685C74.1205 70.5763 74.467 70.6343 74.7687 70.7421C75.0466 70.8322 75.2822 71.0201 75.4319 71.2709C75.4843 71.355 75.5156 71.4504 75.5231 71.5491C75.5306 71.6479 75.5141 71.747 75.475 71.8379C75.4488 71.8846 75.4126 71.9248 75.3689 71.9557C75.349 71.9855 75.3275 71.9938 75.3258 71.9905Z" fill="#212121"/>
<path d="M73.7558 50.8452C73.7578 50.8573 73.7578 50.8696 73.7558 50.8817V50.9845C73.7475 51.0807 73.7342 51.2149 73.7193 51.3857C73.6828 51.7422 73.6314 52.2512 73.5684 52.8911V52.9292L73.5336 52.911L71.5209 51.8516L71.569 51.8383L70.4814 53.6753L70.4581 53.7135L70.4217 53.6869L68.5979 52.2827H68.651L67.8535 52.9077L66.7659 53.7582L66.7261 53.7897L66.7029 53.745L65.6667 51.83L65.7181 51.8466L63.523 52.8248L63.4816 52.843V52.7999L63.15 50.8469L63.1832 50.8668L61.9198 51.3542L61.5882 51.4769L61.502 51.5084L61.4722 51.5167C61.4722 51.5167 61.4805 51.5167 61.4987 51.5018L61.5833 51.4653L61.9148 51.3293L63.1633 50.832L63.1914 50.822V50.8519C63.2893 51.3957 63.4053 52.0505 63.5396 52.8016L63.4932 52.7767L65.6833 51.782L65.7181 51.767L65.7364 51.7985C66.0679 52.4053 66.4128 53.0453 66.7759 53.7135L66.7112 53.7002L67.7988 52.848L68.5963 52.223L68.6228 52.2031L68.6493 52.223L70.4731 53.6306L70.4134 53.6422L71.5093 51.8184L71.5259 51.7903L71.5557 51.8052L73.5452 52.8762L73.5071 52.8961L73.6828 51.394C73.7044 51.2282 73.721 51.0906 73.7326 50.9944C73.7326 50.953 73.7442 50.9198 73.7475 50.8917C73.749 50.876 73.7518 50.8605 73.7558 50.8452Z" fill="#F5F5F5"/>
<path d="M75.3673 52.6922C75.3664 52.7085 75.3636 52.7247 75.359 52.7403C75.349 52.7768 75.3374 52.8232 75.3242 52.8812C75.2893 53.0089 75.2429 53.1913 75.1816 53.4234C75.0539 53.9009 74.8682 54.5839 74.6394 55.4411L74.6295 55.4742L74.5996 55.4593L72.2603 54.3386L72.3067 54.3253C71.7082 55.1775 71.045 56.1241 70.3371 57.1355L70.3073 57.1769L70.2724 57.1405L68.3857 55.2206L67.9878 54.8177H68.0409L65.491 56.4176L65.4545 56.4408L65.4329 56.4043L64.0569 53.9738L64.1 53.9904L61.4771 54.894L61.4523 54.9023L61.444 54.8774C61.1953 54.1578 60.998 53.5859 60.862 53.1896C60.7974 52.9973 60.746 52.8464 60.7112 52.7403C60.6946 52.6922 60.683 52.6541 60.673 52.6243C60.6676 52.6116 60.6643 52.5982 60.6631 52.5845C60.6704 52.5963 60.676 52.6092 60.6797 52.6226L60.7244 52.7353C60.7626 52.8414 60.8173 52.989 60.8902 53.1797C61.0311 53.5743 61.2367 54.1429 61.4954 54.8608L61.4622 54.8442L64.0751 53.9274L64.1033 53.9174L64.1182 53.944L65.5026 56.3679L65.4446 56.3529L67.9945 54.7497L68.0226 54.7315L68.0475 54.7564C68.179 54.8912 68.3117 55.0255 68.4454 55.1592L70.3371 57.0808H70.2724L72.252 54.2772L72.2686 54.2523L72.2968 54.2656L74.6278 55.403L74.5897 55.4212L75.1567 53.4101L75.3125 52.8713C75.3308 52.8149 75.3441 52.7685 75.3557 52.7337C75.3578 52.7195 75.3617 52.7055 75.3673 52.6922Z" fill="#F5F5F5"/>
<path d="M73.6911 41.1265C73.3585 41.1613 73.0223 41.1274 72.7034 41.0267C72.3846 40.926 72.0898 40.7607 71.8375 40.5413C72.441 40.8463 73.2451 40.4269 73.459 39.7852C73.6729 39.1436 73.4971 37.9483 72.9699 37.5238C72.7167 37.3223 72.4203 37.1822 72.1039 37.1143C71.7875 37.0464 71.4597 37.0527 71.1462 37.1326C70.5244 37.2983 69.8663 38.245 69.6623 38.8551L69.6739 38.8734C69.5794 38.8352 69.4816 38.8004 69.3854 38.7673C68.6975 38.5241 67.9645 38.4352 67.2384 38.507C66.5103 38.5824 65.8243 38.8845 65.2771 39.3708L69.4932 46.1467C70.2592 46.0804 70.9373 45.5631 71.3385 44.9082C71.7397 44.2534 71.8939 43.4725 71.932 42.7048C71.942 42.5109 71.9403 42.3169 71.932 42.1229L73.2866 42.3401C73.0436 42.0139 72.7374 41.7398 72.3863 41.5344C72.6186 41.6175 72.8716 41.6227 73.1071 41.5491C73.3425 41.4755 73.5476 41.3272 73.6911 41.1265Z" fill="#212121"/>
<path d="M68.3659 51.6429C68.9162 51.6313 69.4404 51.4062 69.8278 51.0151C70.2151 50.624 70.4353 50.0977 70.4416 49.5473L70.5394 41.1167C70.5444 40.9484 70.4851 40.7844 70.3737 40.6582C70.2622 40.532 70.1069 40.4529 69.9392 40.4369L66.378 39.5367C65.2357 39.4173 64.4797 40.8199 64.4067 41.9639C64.3271 43.2355 64.2791 44.7907 64.4299 45.7406C64.7333 47.6473 66.1956 47.896 66.1956 47.896C66.1956 47.896 66.1956 48.6337 66.1956 49.5373C66.1969 49.8187 66.2542 50.0971 66.3641 50.3562C66.474 50.6153 66.6345 50.8499 66.836 51.0463C67.0375 51.2427 67.2762 51.3971 67.538 51.5004C67.7998 51.6037 68.0795 51.6538 68.3609 51.6478L68.3659 51.6429Z" fill="#FFBE9D"/>
<path d="M65.1461 43.199C65.1457 43.263 65.1702 43.3246 65.2145 43.3707C65.2587 43.4169 65.3193 43.4439 65.3832 43.4461C65.4143 43.4485 65.4456 43.4448 65.4752 43.435C65.5049 43.4251 65.5322 43.4095 65.5557 43.389C65.5792 43.3684 65.5983 43.3434 65.612 43.3153C65.6256 43.2872 65.6335 43.2567 65.6352 43.2256C65.6361 43.1618 65.612 43.1001 65.568 43.054C65.5239 43.0078 65.4636 42.9807 65.3998 42.9785C65.3686 42.976 65.3372 42.9798 65.3075 42.9896C65.2778 42.9994 65.2503 43.015 65.2267 43.0355C65.2031 43.0561 65.1838 43.0811 65.1699 43.1092C65.1561 43.1372 65.148 43.1678 65.1461 43.199Z" fill="#212121"/>
<path d="M64.7383 42.7728C64.7681 42.806 64.9538 42.6684 65.2174 42.6684C65.481 42.6684 65.6734 42.801 65.7015 42.7695C65.7297 42.738 65.685 42.6966 65.6004 42.6352C65.4861 42.5573 65.3508 42.5156 65.2124 42.5159C65.0753 42.5155 64.9417 42.5591 64.8311 42.6402C64.7565 42.7016 64.7383 42.7596 64.7383 42.7728Z" fill="#212121"/>
<path d="M67.6511 43.1989C67.6503 43.263 67.6746 43.3248 67.719 43.3711C67.7634 43.4173 67.8242 43.4442 67.8882 43.4459C67.9194 43.4484 67.9508 43.4447 67.9805 43.4349C68.0103 43.4251 68.0377 43.4095 68.0613 43.3889C68.085 43.3684 68.1043 43.3434 68.1181 43.3153C68.1319 43.2872 68.14 43.2567 68.1419 43.2254C68.1424 43.1615 68.1178 43.0999 68.0736 43.0537C68.0293 43.0076 67.9687 42.9806 67.9048 42.9784C67.8736 42.9757 67.8421 42.9793 67.8123 42.989C67.7825 42.9987 67.7549 43.0143 67.7312 43.0349C67.7076 43.0554 67.6883 43.0806 67.6745 43.1088C67.6608 43.1369 67.6528 43.1676 67.6511 43.1989Z" fill="#212121"/>
<path d="M67.3329 42.8227C67.3628 42.8542 67.5485 42.7182 67.8121 42.7182C68.0757 42.7182 68.268 42.8509 68.2962 42.8177C68.3244 42.7845 68.2796 42.7464 68.1951 42.6851C68.0811 42.6063 67.9456 42.5646 67.8071 42.5657C67.6702 42.5648 67.5365 42.6078 67.4258 42.6884C67.3445 42.7514 67.318 42.8078 67.3329 42.8227Z" fill="#212121"/>
<path d="M66.3763 44.7756C66.2374 44.7322 66.0938 44.706 65.9485 44.6977C65.8822 44.6977 65.8192 44.6778 65.8076 44.6314C65.8013 44.562 65.8169 44.4924 65.8524 44.4325L66.0513 43.9202C66.3265 43.1923 66.5271 42.5938 66.4973 42.5822C66.4675 42.5706 66.2204 43.1525 65.9436 43.882L65.7529 44.396C65.7115 44.4773 65.6992 44.5703 65.7181 44.6596C65.7275 44.6837 65.7425 44.7052 65.7618 44.7225C65.7811 44.7398 65.8042 44.7523 65.8292 44.7591C65.8665 44.7691 65.9049 44.7741 65.9436 44.774C66.0871 44.7929 66.2325 44.7934 66.3763 44.7756Z" fill="#212121"/>
<path d="M66.1957 47.8909C67.094 47.9046 67.9784 47.6687 68.7505 47.2095C68.7505 47.2095 68.1305 48.5192 66.2205 48.3402L66.1957 47.8909Z" fill="#EB996E"/>
<path d="M66.489 45.409C66.5391 45.3461 66.6043 45.297 66.6785 45.2663C66.7528 45.2356 66.8336 45.2242 66.9135 45.2333C66.9718 45.2392 67.0284 45.257 67.0797 45.2855C67.131 45.314 67.176 45.3526 67.2119 45.399C67.2472 45.4427 67.2683 45.4963 67.2721 45.5523C67.276 45.6084 67.2625 45.6643 67.2334 45.7124C67.1911 45.7595 67.1358 45.7931 67.0744 45.8087C67.013 45.8243 66.9483 45.8214 66.8886 45.8003C66.7663 45.7551 66.6538 45.687 66.557 45.5997C66.5273 45.5788 66.5019 45.5524 66.4824 45.5217C66.4727 45.5073 66.4675 45.4902 66.4675 45.4728C66.4675 45.4554 66.4727 45.4384 66.4824 45.4239" fill="#EB996E"/>
<path d="M67.1522 44.9563C67.1091 44.9563 67.1091 45.2398 66.8637 45.4437C66.6183 45.6477 66.3149 45.6095 66.3133 45.6543C66.3116 45.699 66.3812 45.7107 66.5089 45.714C66.6772 45.7142 66.8402 45.6555 66.9698 45.5482C67.094 45.4463 67.1737 45.3 67.192 45.1403C67.2036 45.0259 67.1704 44.9563 67.1522 44.9563Z" fill="#212121"/>
<path d="M67.2135 42.3618C67.24 42.433 67.502 42.3999 67.812 42.4364C68.122 42.4728 68.3707 42.5574 68.4105 42.4944C68.4288 42.4629 68.3857 42.3966 68.2862 42.3286C68.1515 42.2436 67.9993 42.1904 67.8411 42.1729C67.6828 42.1554 67.5226 42.174 67.3727 42.2275C67.2599 42.2722 67.2019 42.3286 67.2135 42.3618Z" fill="#212121"/>
<path d="M64.7813 42.2871C64.8278 42.3468 65.0085 42.2871 65.2273 42.2871C65.4462 42.2871 65.6302 42.3286 65.6716 42.2656C65.6915 42.2341 65.6617 42.1744 65.5805 42.118C65.4732 42.0484 65.3468 42.0142 65.219 42.0202C65.0905 42.0225 64.9659 42.0648 64.8626 42.1412C64.7863 42.1976 64.7614 42.2589 64.7813 42.2871Z" fill="#212121"/>
<path d="M70.3271 43.4875C70.4044 43.4459 70.4916 43.4261 70.5793 43.4305C70.667 43.4349 70.7518 43.4632 70.8245 43.5124C71.0008 43.6152 71.1361 43.7758 71.2075 43.967C71.279 44.1581 71.2822 44.368 71.2167 44.5613C71.1512 44.7545 71.0209 44.9192 70.8479 45.0275C70.675 45.1357 70.4699 45.1809 70.2675 45.1554" fill="#FFBE9D"/>
<path d="M70.4615 44.5865C70.4615 44.5732 70.5344 44.6014 70.6273 44.56C70.6848 44.5275 70.7313 44.4786 70.7608 44.4195C70.7904 44.3605 70.8016 44.2939 70.7931 44.2284C70.7929 44.1631 70.7734 44.0994 70.7371 44.0451C70.7009 43.9908 70.6494 43.9485 70.5891 43.9233C70.493 43.8835 70.4233 43.9034 70.4233 43.8885C70.4233 43.8736 70.488 43.8288 70.614 43.857C70.6869 43.8744 70.7521 43.9152 70.7997 43.9731C70.8574 44.0442 70.8905 44.132 70.8942 44.2234C70.9043 44.3068 70.8863 44.3913 70.8431 44.4633C70.7998 44.5354 70.7338 44.591 70.6554 44.6213C70.5212 44.6595 70.4515 44.5931 70.4615 44.5865Z" fill="#EB996E"/>
<path d="M70.982 44.9728C70.982 44.9728 71.0151 44.991 71.0698 45.0341L71.3036 45.2198L72.1326 45.9195L72.1608 45.9427L72.1376 45.9709C71.8308 46.3389 71.4893 46.7998 71.1063 47.2806C71.0185 47.3901 70.9322 47.4962 70.8477 47.5956L70.7764 47.6785V47.5691C70.7432 46.7932 70.7151 46.1052 70.7001 45.6111C70.7001 45.3773 70.6902 45.1817 70.6869 45.0308C70.6804 44.9602 70.6804 44.8892 70.6869 44.8186C70.7034 44.8876 70.7123 44.9582 70.7134 45.0292C70.7233 45.18 70.7366 45.374 70.7532 45.6094C70.783 46.1068 70.8195 46.7882 70.8576 47.5658L70.783 47.5393L71.0383 47.2276C71.4213 46.7468 71.7662 46.2892 72.0812 45.9228V45.9742L71.2771 45.2513L71.0549 45.054C71.0277 45.0297 71.0032 45.0025 70.982 44.9728Z" fill="#616161"/>
<path d="M67.1241 38.7026C66.6565 38.7069 66.1905 38.758 65.7331 38.8552C65.2731 38.9536 64.8539 39.1895 64.5311 39.5316C64.3721 39.704 64.2586 39.9132 64.2007 40.1404C64.1428 40.3676 64.1424 40.6057 64.1995 40.8331C64.2646 41.0582 64.405 41.2541 64.5972 41.3881C64.7895 41.5221 65.0219 41.586 65.2556 41.5692C65.6071 41.5228 65.9436 41.2625 66.2835 41.3653C66.6234 41.4681 66.7809 41.8544 67.1125 41.9157C67.4441 41.977 67.7276 41.6836 68.0558 41.6537C68.4206 41.6222 68.7356 41.9207 68.8981 42.2489C69.0605 42.5772 69.1219 42.9453 69.2844 43.2719C69.3293 43.3807 69.3969 43.4786 69.4827 43.5592C69.5685 43.6398 69.6704 43.7013 69.7817 43.7394C69.887 43.761 69.9959 43.7573 70.0994 43.7285C70.2029 43.6996 70.298 43.6466 70.3769 43.5736C70.5327 43.4249 70.6518 43.2422 70.7251 43.0398C70.8974 42.6163 70.9694 42.1586 70.9354 41.7027C70.9014 41.2467 70.7625 40.8048 70.5294 40.4115C70.2963 40.0181 69.9753 39.6841 69.5917 39.4354C69.208 39.1867 68.772 39.0301 68.3178 38.9779" fill="#212121"/>
<path d="M71.7728 40.7287C71.7578 40.7287 71.7131 40.5745 71.597 40.3408C71.2855 39.7312 70.7592 39.2587 70.1198 39.0144C69.8761 38.9216 69.7153 38.8934 69.7169 38.8785C69.7186 38.8635 69.76 38.8785 69.833 38.8785C69.9377 38.8929 70.0409 38.9167 70.1414 38.9497C70.4742 39.0596 70.7804 39.2381 71.04 39.4737C71.301 39.7081 71.5095 39.9951 71.6517 40.3159C71.6955 40.4118 71.7299 40.5118 71.7545 40.6143C71.767 40.6511 71.7731 40.6898 71.7728 40.7287Z" fill="#B75400"/>
<path d="M73.2318 37.9351C73.083 37.8748 72.9293 37.8271 72.7726 37.7925C72.3914 37.7277 71.9995 37.7858 71.6535 37.9583C71.3102 38.1376 71.0143 38.3955 70.7897 38.711C70.6123 38.9514 70.5294 39.1188 70.5161 39.1122C70.524 39.0683 70.5398 39.0262 70.5625 38.9878C70.6133 38.8797 70.672 38.7755 70.7383 38.6762C70.9568 38.3398 71.259 38.0661 71.6153 37.882C71.9737 37.7009 72.3831 37.6476 72.7759 37.7311C72.8947 37.7565 73.0091 37.799 73.1157 37.8571C73.1937 37.9002 73.2351 37.9251 73.2318 37.9351Z" fill="#616161"/>
<path d="M71.3982 40.1748C71.4195 40.3049 71.4195 40.4376 71.3982 40.5677C71.3648 40.8836 71.2844 41.1926 71.1594 41.4846C71.0352 41.7762 70.8675 42.0473 70.6621 42.2887C70.5821 42.3931 70.4852 42.4833 70.3752 42.5556C70.6599 42.2205 70.8991 41.8492 71.0865 41.4514C71.2449 41.0411 71.3497 40.612 71.3982 40.1748Z" fill="#616161"/>
<path d="M71.4528 40.2163C71.4747 40.2497 71.4904 40.2868 71.4992 40.3257C71.5337 40.4277 71.5586 40.5326 71.5738 40.6391C71.6277 40.9935 71.6102 41.3551 71.5226 41.7027C71.4349 42.0503 71.2787 42.3769 71.0632 42.6634C70.9987 42.7498 70.9266 42.8303 70.8476 42.9038C70.7913 42.9569 70.7598 42.9834 70.7548 42.9784C70.7498 42.9734 70.8626 42.8491 71.0134 42.6269C71.2086 42.3387 71.3527 42.019 71.4395 41.6819C71.5228 41.3438 71.548 40.994 71.5141 40.6474C71.4859 40.3821 71.4379 40.2196 71.4528 40.2163Z" fill="#616161"/>
<path d="M76.4697 40.6508C76.287 40.7083 76.1319 40.831 76.0337 40.9955C75.9356 41.16 75.9014 41.3548 75.9375 41.5429C75.9736 41.731 76.0776 41.8992 76.2297 42.0156C76.3817 42.1321 76.5713 42.1885 76.7623 42.1743C76.9533 42.1601 77.1324 42.0762 77.2656 41.9385C77.3988 41.8009 77.4767 41.6191 77.4846 41.4277C77.4925 41.2364 77.4297 41.0488 77.3083 40.9006C77.1869 40.7525 77.0153 40.6541 76.8262 40.6243" fill="#EBEBEB"/>
<path d="M78.7112 37.3929C78.5013 37.4587 78.3229 37.5993 78.2099 37.7881C78.0969 37.9768 78.0572 38.2005 78.0984 38.4166C78.1395 38.6327 78.2587 38.8261 78.4331 38.9601C78.6076 39.0941 78.8252 39.1593 79.0447 39.1433C79.2641 39.1274 79.4699 39.0313 79.6231 38.8734C79.7763 38.7155 79.8662 38.5069 79.8756 38.2871C79.885 38.0673 79.8133 37.8517 79.6741 37.6814C79.5349 37.511 79.338 37.3977 79.1208 37.363" fill="#EBEBEB"/>
<path d="M83.4977 23.0353C82.0055 22.9093 80.4819 23.2442 79.4523 24.3418C78.9409 24.897 78.5595 25.5591 78.3358 26.28C78.1121 27.0009 78.0518 27.7626 78.1591 28.5098C76.5642 29.173 75.6954 31.2023 76.3138 32.8204C76.9322 34.4386 78.9383 35.357 80.5664 34.7817C80.9346 35.7144 81.5395 36.5351 82.3215 37.1627C83.1035 37.7904 84.0356 38.2034 85.0259 38.3611C86.0162 38.5187 87.0304 38.4156 87.9687 38.0618C88.9069 37.708 89.7368 37.1158 90.3764 36.3435C91.9398 36.6967 93.6923 36.6751 95.0186 35.7533C96.3449 34.8315 96.9285 32.8121 95.9271 31.5587C97.7293 31.1194 98.6445 28.8696 98.1106 27.0923C97.5768 25.315 95.9752 24.0417 94.2676 23.3205C93.1385 22.843 91.7293 22.5943 90.766 23.352C90.3785 22.7559 89.8541 22.261 89.2366 21.9087C88.619 21.5563 87.9262 21.3567 87.2159 21.3263C86.5055 21.296 85.7982 21.4359 85.1529 21.7343C84.5075 22.0327 83.9429 22.4811 83.5059 23.0419" fill="#F5F5F5"/>
<path d="M83.4978 23.0353C83.4978 23.0353 83.5276 22.9955 83.589 22.9192C83.6799 22.8074 83.7767 22.7006 83.8791 22.5992C84.2792 22.2056 84.7492 21.8901 85.2651 21.6691C85.6389 21.5072 86.0325 21.3957 86.4356 21.3375C86.9182 21.2704 87.4088 21.2855 87.8863 21.3823C88.4389 21.4935 88.9661 21.706 89.4414 22.009C89.9781 22.3514 90.4364 22.8034 90.786 23.3354H90.7429C91.1525 23.0267 91.6494 22.8561 92.1621 22.8479C92.7057 22.838 93.2469 22.9245 93.7604 23.1032C94.3059 23.2881 94.8309 23.5287 95.3271 23.8211C95.854 24.1251 96.3413 24.4932 96.7778 24.917C97.2398 25.3609 97.6197 25.8829 97.9002 26.4589C98.0395 26.7594 98.1462 27.074 98.2185 27.3973C98.2845 27.729 98.3073 28.0678 98.2865 28.4053C98.2451 29.1023 98.0216 29.7763 97.6383 30.36C97.4385 30.6561 97.1896 30.9157 96.9021 31.1276C96.6092 31.3439 96.2778 31.5025 95.9256 31.5952L95.9472 31.5305C96.1646 31.8082 96.317 32.1311 96.3931 32.4755C96.4683 32.8256 96.4773 33.1866 96.4197 33.5399C96.2971 34.2658 95.949 34.9346 95.4249 35.4515C94.8741 35.9649 94.1908 36.3141 93.452 36.4595C92.7038 36.6124 91.9349 36.6354 91.179 36.5275C90.9021 36.4927 90.6285 36.438 90.3599 36.3816L90.403 36.3667C89.9141 36.9613 89.3112 37.4521 88.6297 37.8102C87.9483 38.1684 87.2021 38.3865 86.435 38.4518C85.668 38.5172 84.8956 38.4284 84.1634 38.1908C83.4312 37.9531 82.7539 37.5713 82.1714 37.068C81.4457 36.4547 80.8801 35.674 80.5234 34.7933L80.5732 34.8149C80.1148 34.9624 79.6306 35.0128 79.1516 34.9628C78.6726 34.9129 78.2093 34.7637 77.7912 34.5247C77.3936 34.3101 77.0449 34.0152 76.7672 33.6587C76.4895 33.3023 76.2889 32.892 76.178 32.454C75.991 31.6298 76.1088 30.7658 76.5096 30.0218C76.8642 29.3352 77.4435 28.7909 78.151 28.4799L78.1344 28.5114C78.0396 27.8545 78.0745 27.1853 78.2372 26.5418C78.4448 25.7093 78.8613 24.9435 79.4475 24.3168C79.6175 24.1394 79.8034 23.9779 80.0029 23.8344C80.3511 23.5838 80.7366 23.3897 81.1452 23.2591C81.907 23.0248 82.7085 22.9475 83.5011 23.032C83.5011 23.032 83.448 23.032 83.3452 23.032C83.2424 23.032 83.0899 23.0203 82.8877 23.0203C82.2983 23.0206 81.7127 23.1129 81.1518 23.2939C80.747 23.4258 80.3654 23.6205 80.0211 23.8709C79.8243 24.0133 79.6412 24.1737 79.474 24.35C79.2955 24.543 79.1326 24.7498 78.9865 24.9684C78.6641 25.4549 78.4264 25.9925 78.2836 26.5584C78.1258 27.1954 78.0931 27.857 78.1874 28.5064V28.528L78.1659 28.5379C77.4733 28.846 76.9065 29.3811 76.5593 30.0549C76.1646 30.7842 76.0469 31.6315 76.2278 32.4407C76.3409 32.8699 76.5424 33.2707 76.8193 33.6176C77.0962 33.9644 77.4425 34.2497 77.8359 34.4551C78.2451 34.6881 78.6983 34.8336 79.1666 34.8821C79.635 34.9306 80.1084 34.8812 80.5566 34.7369L80.5914 34.7253L80.6063 34.7601C80.9693 35.6456 81.5437 36.4286 82.2792 37.0408C83.0148 37.6529 83.8891 38.0755 84.8258 38.2716C85.8371 38.4594 86.8801 38.3768 87.8493 38.0321C88.8184 37.6874 89.6794 37.0929 90.345 36.3087L90.3616 36.2888H90.3865C90.6534 36.3451 90.9236 36.3998 91.1988 36.433C91.9443 36.539 92.7025 36.5166 93.4404 36.3667C94.1642 36.2257 94.8339 35.8845 95.3735 35.3819C95.8837 34.8778 96.222 34.2257 96.3401 33.5184C96.4031 33.1805 96.3954 32.8333 96.3175 32.4986C96.2396 32.1638 96.0932 31.8489 95.8875 31.5736L95.8477 31.5239L95.9107 31.5073C96.2522 31.4166 96.5737 31.2631 96.859 31.0547C97.1354 30.8443 97.3742 30.5887 97.5653 30.2987C97.9418 29.7272 98.1614 29.0668 98.202 28.3837C98.2244 28.0508 98.2027 27.7163 98.1373 27.389C98.067 27.0719 97.9625 26.7634 97.8256 26.4688C97.5501 25.8999 97.1763 25.3841 96.7214 24.9452C96.2898 24.525 95.8075 24.1602 95.2857 23.8593C94.795 23.5678 94.2755 23.3278 93.7355 23.143C93.2295 22.9663 92.6964 22.8799 92.1605 22.8877C91.6602 22.8939 91.1749 23.0587 90.7744 23.3586L90.7496 23.3785L90.7313 23.3519C90.0726 22.3545 89.0454 21.6588 87.8747 21.4171C87.4024 21.3193 86.917 21.3019 86.4389 21.3657C85.481 21.5017 84.5895 21.9335 83.889 22.6009C83.7548 22.7335 83.6553 22.8396 83.5939 22.9142C83.5326 22.9888 83.4978 23.0353 83.4978 23.0353Z" fill="#212121"/>
<path d="M93.7521 28.203C93.7521 28.2743 90.8109 28.3324 87.185 28.3324C83.5591 28.3324 80.6196 28.2743 80.6196 28.203C80.6196 28.1318 83.5591 28.0737 87.185 28.0737C90.8109 28.0737 93.7521 28.1318 93.7521 28.203Z" fill="#616161"/>
<path d="M93.7521 29.6354C93.7521 29.7067 90.8109 29.7647 87.185 29.7647C83.5591 29.7647 80.6196 29.7067 80.6196 29.6354C80.6196 29.5641 83.5591 29.5044 87.185 29.5044C90.8109 29.5044 93.7521 29.5558 93.7521 29.6354Z" fill="#616161"/>
<path d="M93.7521 31.0529C93.7521 31.1242 90.8109 31.1822 87.185 31.1822C83.5591 31.1822 80.6196 31.1242 80.6196 31.0529C80.6196 30.9816 83.5591 30.9236 87.185 30.9236C90.8109 30.9236 93.7521 30.9816 93.7521 31.0529Z" fill="#616161"/>
<path d="M93.7521 32.4772C93.7521 32.5485 90.8109 32.6065 87.185 32.6065C83.5591 32.6065 80.6196 32.5485 80.6196 32.4772C80.6196 32.4059 83.5591 32.3479 87.185 32.3479C90.8109 32.3479 93.7521 32.4059 93.7521 32.4772Z" fill="#616161"/>
</svg>
