<svg width="128" height="129" viewBox="0 0 128 129" fill="none" xmlns="http://www.w3.org/2000/svg">
<path d="M117.594 75.7841C118.069 74.7554 118.308 73.6336 118.294 72.5007C118.28 71.3678 118.012 70.2524 117.511 69.2361C117.011 68.2197 116.289 67.3282 115.399 66.6266C114.51 65.9251 113.474 65.4312 112.369 65.1811C112.195 61.3632 110.601 57.7481 107.9 55.0447C105.198 52.3414 101.584 50.7449 97.7661 50.5685C93.9483 50.392 90.2023 51.6482 87.2628 54.0908C84.3233 56.5334 82.4025 59.986 81.877 63.7716C81.377 63.656 80.8656 63.5972 80.3525 63.5964C78.8085 63.5943 77.3108 64.1228 76.1102 65.0935C75.9386 64.0442 75.4494 63.0727 74.7086 62.31C73.9678 61.5472 73.011 61.0299 71.9671 60.8277C70.9233 60.6254 69.8425 60.7481 68.8705 61.179C67.8985 61.61 67.0819 62.3285 66.5308 63.2379C66.3558 59.8401 64.9878 56.613 62.6676 54.1246C60.3474 51.6362 57.2237 50.046 53.8465 49.634C50.4693 49.222 47.055 50.0145 44.2045 51.8721C41.3541 53.7297 39.2504 56.5333 38.2636 59.7893C37.8424 59.7245 37.417 59.6915 36.9909 59.6908C35.2011 59.6938 33.4614 60.2816 32.0365 61.3646C30.6116 62.4476 29.5796 63.9666 29.0975 65.6902C28.4133 65.2869 27.6528 65.0303 26.8641 64.9366C26.0755 64.8428 25.2759 64.914 24.5163 65.1456C23.7566 65.3772 23.0533 65.7642 22.4511 66.282C21.8489 66.7998 21.3609 67.4371 21.018 68.1534C20.4967 67.3971 19.7324 66.8419 18.852 66.5798C17.9716 66.3177 17.028 66.3646 16.1779 66.7126C15.3278 67.0606 14.6223 67.6889 14.1784 68.4931C13.7346 69.2974 13.5791 70.2292 13.7377 71.134C13.5268 70.6756 13.1654 70.3031 12.7136 70.0784C12.2618 69.8537 11.7468 69.7903 11.254 69.8986C10.7612 70.007 10.3202 70.2806 10.0043 70.6741C9.68844 71.0676 9.51661 71.5572 9.51736 72.0618C9.51797 72.221 9.5354 72.3797 9.56936 72.5353C9.42867 72.5751 9.29211 72.6282 9.16156 72.694C8.95866 72.4631 8.71227 72.2744 8.43645 72.1387C8.16063 72.003 7.86078 71.9229 7.55402 71.9031C6.93449 71.8631 6.32443 72.0708 5.85805 72.4806C5.62712 72.6835 5.43842 72.9298 5.30271 73.2057C5.16701 73.4815 5.08696 73.7813 5.06713 74.0881C5.0271 74.7076 5.23481 75.3177 5.64457 75.7841H117.594Z" fill="white" stroke="#A8A8A8" stroke-linecap="round" stroke-linejoin="round"/>
<path d="M48.0947 45.486C48.236 45.181 48.3074 44.8482 48.3034 44.5121C48.2994 44.176 48.2202 43.845 48.0717 43.5434C47.9231 43.2418 47.709 42.9774 47.4449 42.7693C47.1808 42.5613 46.8735 42.415 46.5456 42.3412C46.4997 41.2067 46.0302 40.1305 45.2297 39.3252C44.4292 38.5199 43.3558 38.044 42.2216 37.9914C41.0873 37.9388 39.9745 38.3133 39.1029 39.0411C38.2313 39.7689 37.6642 40.797 37.5136 41.9225C37.3655 41.8884 37.214 41.8709 37.062 41.8705C36.6041 41.8705 36.1599 42.0269 35.803 42.3139C35.7517 42.0032 35.6065 41.7157 35.3868 41.4901C35.1672 41.2644 34.8837 41.1115 34.5745 41.0519C34.2653 40.9923 33.9453 41.0288 33.6575 41.1565C33.3697 41.2843 33.128 41.4972 32.9648 41.7665C32.9133 40.7591 32.508 39.8023 31.8202 39.0645C31.1325 38.3267 30.2064 37.8552 29.2052 37.7332C28.2039 37.6112 27.1917 37.8465 26.3469 38.3975C25.5021 38.9486 24.8789 39.7801 24.587 40.7456C23.9982 40.652 23.3956 40.7787 22.8943 41.1013C22.3929 41.4239 22.028 41.9199 21.8692 42.4945C21.6662 42.3748 21.4406 42.2987 21.2066 42.271C20.9726 42.2433 20.7354 42.2646 20.5102 42.3336C20.2849 42.4026 20.0764 42.5178 19.8981 42.6718C19.7198 42.8257 19.5754 43.0152 19.4744 43.228C19.3283 43.0197 19.1196 42.8636 18.8786 42.7823C18.6375 42.701 18.3769 42.6988 18.1345 42.7762C17.8922 42.8535 17.6809 43.0062 17.5315 43.212C17.3821 43.4179 17.3024 43.6661 17.3039 43.9205C17.3039 43.9829 17.3094 44.0451 17.3204 44.1066C17.2569 43.9722 17.1497 43.8633 17.0163 43.7977C16.8829 43.7321 16.7312 43.7136 16.586 43.7454C16.4408 43.7772 16.3106 43.8573 16.2168 43.9726C16.123 44.0879 16.0711 44.2316 16.0696 44.3803C16.0654 44.4267 16.0654 44.4734 16.0696 44.5199C16.028 44.5313 15.9876 44.5469 15.9492 44.5664C15.8248 44.4388 15.6561 44.3638 15.4781 44.3569C15.3 44.35 15.1261 44.4118 14.9922 44.5295C14.8584 44.6472 14.7749 44.8117 14.7589 44.9892C14.7429 45.1667 14.7957 45.3436 14.9064 45.4833L48.0947 45.486Z" fill="white" stroke="#A8A8A8" stroke-linecap="round" stroke-linejoin="round"/>
<path d="M102.174 95.252C104.845 90.4295 109.695 87.6132 113.377 83.6857C115.47 81.4254 117.132 78.8013 118.281 75.9428L8.14062 75.8333C8.22273 76.107 8.30211 76.3807 8.38695 76.6544C10.4506 83.453 12.0682 90.8291 14.6272 97.7071C18.3905 97.77 21.8418 97.7837 24.3379 97.7071C34.2402 97.3677 52.014 95.3314 63.1835 94.992C68.7231 94.8223 85.0792 95.2657 101.961 95.668C102.018 95.5202 102.087 95.3861 102.174 95.252Z" fill="#919191"/>
<path d="M5.08887 75.8114H123.979" stroke="#212121" stroke-linecap="round" stroke-linejoin="round"/>
<path d="M12.3364 98.197C12.3364 98.197 36.2191 99.2589 46.9534 98.197C57.6878 97.135 70.2996 96.0704 81.5704 96.6013C92.3951 97.1131 103.22 98.7006 111.677 98.6376" stroke="#212121" stroke-linecap="round" stroke-linejoin="round"/>
<path d="M9.51733 97.4607C9.51733 97.4607 25.2001 97.9507 45.3194 96.1114C63.5612 94.4419 71.4382 94.5651 81.6334 94.8853C90.7885 95.159 104.963 95.783 111.324 95.8651" stroke="#212121" stroke-linecap="round" stroke-linejoin="round"/>
<path d="M87.4739 77.6917H104.648" stroke="white" stroke-linecap="round" stroke-linejoin="round"/>
<path d="M98.2083 80.3739H95.2551" stroke="white" stroke-linecap="round" stroke-linejoin="round"/>
<path d="M86.9375 79.5693H90.6926" stroke="white" stroke-linecap="round" stroke-linejoin="round"/>
<path d="M41.318 77.4235H22.8025" stroke="white" stroke-linecap="round" stroke-linejoin="round"/>
<path d="M18.24 78.4964H33.2659" stroke="white" stroke-linecap="round" stroke-linejoin="round"/>
<path d="M27.094 80.9104H34.6097" stroke="white" stroke-linecap="round" stroke-linejoin="round"/>
<path d="M43.1955 82.5197H35.4143" stroke="white" stroke-linecap="round" stroke-linejoin="round"/>
<path d="M78.0806 87.6187H89.6196" stroke="white" stroke-linecap="round" stroke-linejoin="round"/>
<path d="M80.4974 85.4729H76.2031" stroke="white" stroke-linecap="round" stroke-linejoin="round"/>
<path d="M42.6589 85.4729H47.4897" stroke="white" stroke-linecap="round" stroke-linejoin="round"/>
<path d="M39.9769 85.4729H23.6072" stroke="white" stroke-linecap="round" stroke-linejoin="round"/>
<path d="M90.4243 82.5197H98.2082" stroke="white" stroke-linecap="round" stroke-linejoin="round"/>
<path d="M101.159 82.5197H105.453" stroke="white" stroke-linecap="round" stroke-linejoin="round"/>
<path d="M85.0572 77.6917H82.375" stroke="white" stroke-linecap="round" stroke-linejoin="round"/>
<path d="M34.8779 79.0328H40.2451" stroke="white" stroke-linecap="round" stroke-linejoin="round"/>
<path d="M20.3857 81.1786H23.3389" stroke="white" stroke-linecap="round" stroke-linejoin="round"/>
<path d="M92.3047 87.6187H95.2551" stroke="white" stroke-linecap="round" stroke-linejoin="round"/>
<path d="M72.9817 91.6447H83.4478" stroke="white" stroke-linecap="round" stroke-linejoin="round"/>
<path d="M44.0002 91.3765H40.2451" stroke="white" stroke-linecap="round" stroke-linejoin="round"/>
<path d="M38.2992 91.3765H29.8447" stroke="white" stroke-linecap="round" stroke-linejoin="round"/>
<path d="M60.2141 123.224C60.2141 123.224 64.388 122.345 68.1239 122.345C71.8599 122.345 72.0679 122.26 74.2738 122.345C76.4798 122.43 79.548 122.564 84.6004 122.786" stroke="#212121" stroke-linecap="round" stroke-linejoin="round"/>
<path d="M48.842 124.592C50.8705 124.421 52.909 124.405 54.94 124.543" stroke="#212121" stroke-linecap="round" stroke-linejoin="round"/>
<path d="M20.0054 123.883C20.0054 123.883 28.7937 123.005 33.4165 124.321C37.5356 125.498 42.3553 125.101 45.5302 124.844" stroke="#212121" stroke-linecap="round" stroke-linejoin="round"/>
<path d="M88.7412 117.881C90.46 118.111 91.1908 118.185 91.1908 118.185" stroke="#212121" stroke-linecap="round" stroke-linejoin="round"/>
<path d="M39.999 117.95C39.999 117.95 46.5923 115.76 52.0827 116.414C57.573 117.068 65.7045 118.39 69.4404 118.39C73.1764 118.39 77.5692 116.201 83.2812 117.071C84.5977 117.274 85.7253 117.441 86.6832 117.58" stroke="#212121" stroke-linecap="round" stroke-linejoin="round"/>
<path d="M23.7715 112.629C24.9128 112.53 26.0842 112.459 27.0367 112.459C29.8941 112.459 34.7275 113.776 36.044 113.554C37.3605 113.332 42.1967 112.459 43.0752 112.459" stroke="#212121" stroke-linecap="round" stroke-linejoin="round"/>
<path d="M19.3486 113.116C19.3486 113.116 20.1341 113.009 21.2645 112.881" stroke="#212121" stroke-linecap="round" stroke-linejoin="round"/>
<path d="M89.9812 110.324H89.8334C86.1002 110.324 86.6011 110.398 85.5036 110.398C84.406 110.398 82.1946 110.491 82.1946 110.491" stroke="#212121" stroke-linecap="round" stroke-linejoin="round"/>
<path d="M72.5386 112.741H72.3908C68.6575 112.741 69.1584 112.812 68.0609 112.812C66.9634 112.812 64.741 112.897 64.741 112.897" stroke="#212121" stroke-linecap="round" stroke-linejoin="round"/>
<path d="M96.5141 122.433H96.3663C92.6331 122.433 93.134 122.504 92.0365 122.504C90.939 122.504 88.7166 122.589 88.7166 122.589" stroke="#212121" stroke-linecap="round" stroke-linejoin="round"/>
<path d="M46.0666 107.733H45.9188C42.1856 107.733 42.6865 107.804 41.589 107.804C40.4915 107.804 38.269 107.889 38.269 107.889" stroke="#212121" stroke-linecap="round" stroke-linejoin="round"/>
<path d="M28.9743 104.626H28.8758C26.3852 104.626 26.7191 104.675 25.9883 104.675C25.2575 104.675 23.7769 104.73 23.7769 104.73" stroke="#212121" stroke-linecap="round" stroke-linejoin="round"/>
<path d="M21.9953 107.04H21.8968C19.4089 107.04 19.7428 107.089 19.0121 107.089C18.2813 107.089 16.7979 107.144 16.7979 107.144" stroke="#212121" stroke-linecap="round" stroke-linejoin="round"/>
<path d="M82.1398 105.877H82.0413C79.5534 105.877 79.8873 105.926 79.1538 105.926C78.4203 105.926 76.9424 105.981 76.9424 105.981" stroke="#212121" stroke-linecap="round" stroke-linejoin="round"/>
<path d="M107.331 113.393H107.117C101.687 113.393 102.418 113.442 100.822 113.442C99.2266 113.442 95.9998 113.497 95.9998 113.497" stroke="#212121" stroke-linecap="round" stroke-linejoin="round"/>
<path d="M56.2593 109.164C56.2593 109.164 59.7735 108.942 62.4092 108.942H69.2215" stroke="#212121" stroke-linecap="round" stroke-linejoin="round"/>
<path d="M100.163 103.288H100.094C98.3481 103.288 98.5835 103.321 98.0689 103.321C97.5544 103.321 96.5171 103.362 96.5171 103.362" stroke="#212121" stroke-linecap="round" stroke-linejoin="round"/>
<path d="M92.0091 104.415H91.9407C90.1945 104.415 90.4272 104.451 89.9154 104.451C89.4036 104.451 88.3635 104.489 88.3635 104.489" stroke="#212121" stroke-linecap="round" stroke-linejoin="round"/>
<path d="M84.3977 102.743C84.3977 102.743 86.0399 102.642 87.2742 102.642H90.4573" stroke="#212121" stroke-linecap="round" stroke-linejoin="round"/>
<path d="M117.446 106.526H117.378C115.632 106.526 115.867 106.558 115.353 106.558C114.838 106.558 113.801 106.599 113.801 106.599" stroke="#212121" stroke-linecap="round" stroke-linejoin="round"/>
<path d="M109.29 107.653H109.222C107.476 107.653 107.711 107.689 107.197 107.689C106.682 107.689 105.645 107.727 105.645 107.727" stroke="#212121" stroke-linecap="round" stroke-linejoin="round"/>
<path d="M101.682 105.981C101.682 105.981 103.324 105.88 104.558 105.88H107.741" stroke="#212121" stroke-linecap="round" stroke-linejoin="round"/>
<path d="M28.0331 101.528H27.9646C26.2185 101.528 26.4511 101.563 25.9393 101.563C25.4275 101.563 24.3875 101.602 24.3875 101.602" stroke="#212121" stroke-linecap="round" stroke-linejoin="round"/>
<path d="M19.8795 102.658H19.8084C18.0622 102.658 18.2976 102.691 17.783 102.691C17.2685 102.691 16.2339 102.729 16.2339 102.729" stroke="#212121" stroke-linecap="round" stroke-linejoin="round"/>
<path d="M12.2681 100.986C12.2681 100.986 13.9102 100.882 15.1419 100.882H18.3277" stroke="#212121" stroke-linecap="round" stroke-linejoin="round"/>
<path d="M53.4019 127.619C55.4225 126.995 57.4766 126.485 59.5545 126.092C62.1902 125.651 66.3641 126.53 70.7596 126.53H76.6906" stroke="#212121" stroke-linecap="round" stroke-linejoin="round"/>
<path opacity="0.29" d="M48.5544 128.465C59.1566 128.465 67.7514 127.229 67.7514 125.703C67.7514 124.178 59.1566 122.942 48.5544 122.942C37.9522 122.942 29.3574 124.178 29.3574 125.703C29.3574 127.229 37.9522 128.465 48.5544 128.465Z" fill="black"/>
<path d="M48.3628 100.934C48.3628 100.934 51.2092 104.032 51.2092 104.618C51.2092 105.204 50.0378 108.636 49.786 111.146C49.5342 113.655 49.7039 122.279 49.3673 124.206C49.0306 126.133 49.7039 127.053 50.8753 126.886C52.0467 126.719 52.2137 125.712 52.4655 125.378C52.7173 125.044 53.136 124.625 53.2182 123.87C53.3003 123.114 52.5503 123.369 52.2137 122.775C51.877 122.181 52.7173 116.83 53.3085 114.654C53.8997 112.478 55.0656 107.957 55.4844 106.115C55.9031 104.273 55.4844 100.841 55.4844 100.841L48.3628 100.934Z" fill="white" stroke="#212121" stroke-linecap="round" stroke-linejoin="round"/>
<path d="M52.2137 122.783C52.2137 122.783 52.4655 123.954 52.2985 124.288C52.1983 124.491 52.0868 124.687 51.9646 124.877" stroke="#212121" stroke-linecap="round" stroke-linejoin="round"/>
<path d="M56.0647 100.597C56.0647 100.597 54.3924 104.703 54.8084 106.619C55.2244 108.534 58.4924 115.325 59.4147 118.935C60.3371 122.545 60.5095 123.205 60.5095 123.205C60.5095 123.205 59.505 123.456 59.1711 123.205C58.8372 122.953 58.6675 123.705 58.9193 124.376C59.1422 124.847 59.486 125.25 59.9156 125.545C59.9156 125.545 60.1674 126.716 60.8379 126.968C61.5085 127.22 62.0094 127.135 62.2612 125.211C62.513 123.287 61.8424 120.522 61.8424 117.424C61.8424 114.326 61.3388 109.722 60.5861 107.713C59.8335 105.704 59.5817 104.785 59.5817 104.785C59.5817 104.785 62.5102 102.439 63.3477 100.849L56.0647 100.597Z" fill="white" stroke="#212121" stroke-linecap="round" stroke-linejoin="round"/>
<path d="M60.5013 123.202C60.5013 123.202 60.3343 124.039 60.5861 124.54L60.8379 125.044" stroke="#212121" stroke-linecap="round" stroke-linejoin="round"/>
<path d="M47.03 74.2541C47.03 74.2541 46.7043 75.7786 46.8685 76.2685C47.0327 76.7584 47.4652 75.3982 47.6294 74.9C47.7936 74.4019 47.4652 73.7095 47.03 74.2541Z" fill="white" stroke="#212121" stroke-linecap="round" stroke-linejoin="round"/>
<path d="M47.1941 73.4932C47.1666 73.5249 47.1419 73.5587 47.1202 73.5945C47.013 73.7476 46.9572 73.9308 46.9606 74.1176C46.964 74.3045 47.0266 74.4855 47.1393 74.6345C47.5745 75.2339 47.9604 75.6691 47.9604 75.6691L48.2889 73.6027L47.1941 73.4932Z" fill="white" stroke="#212121" stroke-linecap="round" stroke-linejoin="round"/>
<path d="M47.7388 72.1877C47.7388 72.1877 47.1394 73.1128 47.1914 73.4932C47.2434 73.8737 48.174 74.3636 48.174 74.3636L48.4477 72.8391L47.7388 72.1877Z" fill="white" stroke="#212121" stroke-linecap="round" stroke-linejoin="round"/>
<path d="M48.6639 71.1531C48.6639 71.1531 47.684 71.6431 47.7388 72.1877C47.8483 72.6844 48.0329 73.1616 48.2862 73.6027L48.6639 71.1531Z" fill="white" stroke="#212121" stroke-linecap="round" stroke-linejoin="round"/>
<path d="M56.6749 65.1209C56.6749 65.1209 53.0977 64.4257 51.1791 64.5982C49.8106 64.7241 48.9895 66.6919 48.9102 69.396C48.8308 72.1001 47.268 77.7711 47.3419 79.9525C47.4158 82.1338 48.475 83.0917 49.2577 82.9166C49.9073 82.7175 50.5242 82.4242 51.0888 82.0462C51.0888 82.0462 48.735 87.1041 47.4267 89.8082C46.1185 92.5123 45.333 94.4309 45.8557 96.875C46.3785 99.3191 49.2577 100.277 50.1308 100.277H63.2135C63.2135 100.277 66.0052 99.1412 66.2679 96.1716C66.5307 93.202 64.6093 89.3676 64.0783 87.7966C63.5474 86.2255 62.8577 83.2614 62.9452 82.5635C62.9452 82.5635 64.1659 84.3945 65.039 83.7842C65.9121 83.1739 66.6073 79.3366 66.7825 77.0677C66.9576 74.7988 67.0562 68.6926 66.3473 67.0368C65.6384 65.3809 60.2411 65.8134 59.0177 65.5533C57.7943 65.2933 56.6749 65.1209 56.6749 65.1209Z" fill="white" stroke="#212121" stroke-linecap="round" stroke-linejoin="round"/>
<path d="M66.2708 96.1771C66.5308 93.2103 64.6122 89.3731 64.0813 87.802C63.5503 86.231 62.8606 83.2669 62.9481 82.569L64.344 66.421L62.773 66.1473L61.9875 73.6493L53.0896 71.1203L54.2337 64.7843L54.157 64.7432C53.7164 64.6912 53.2566 64.6447 52.8077 64.6146C52.5149 65.983 51.7376 69.76 51.5296 72.278C51.2559 75.4173 51.442 79.4297 51.2559 80.7407L51.0807 82.049C51.0807 82.049 48.7269 87.1069 47.4187 89.811C46.1104 92.5151 45.3249 94.4337 45.8477 96.8778C46.3704 99.3219 49.2497 100.28 50.1228 100.28H63.2054C63.2054 100.28 66.0081 99.1413 66.2708 96.1771Z" fill="#B75400" stroke="#212121" stroke-linecap="round" stroke-linejoin="round"/>
<path d="M61.6672 80.6586C61.6672 80.6586 56.8282 86.034 53.9243 88.0785" stroke="#212121" stroke-linecap="round" stroke-linejoin="round"/>
<path d="M49.0445 90.2982C48.7708 90.4733 48.4807 90.6348 48.2234 90.7771" stroke="#212121" stroke-linecap="round" stroke-linejoin="round"/>
<path d="M56.9241 83.8937C56.9241 83.8937 53.3961 87.2793 50.2295 89.5099" stroke="#212121" stroke-linecap="round" stroke-linejoin="round"/>
<path opacity="0.2" d="M55.843 65.7148C55.843 65.7148 53.3414 64.464 51.3927 66.41C49.444 68.356 50.2815 73.0854 49.7259 75.7293C49.1703 78.3732 48.612 81.0117 49.1785 81.5673C49.7451 82.1229 51.2778 80.7462 51.2778 80.7462L51.8252 80.1851C51.0892 82.5105 50.2062 84.7868 49.1813 87.0001C47.6541 90.1969 45.9845 95.3423 46.9589 97.1515C47.9332 98.9606 51.9648 103.824 51.9648 103.824C51.9648 103.824 52.7858 103.687 52.2385 105.912C51.6911 108.138 50.8481 114.944 50.2925 118.565C49.7369 122.186 49.7451 125.241 50.4321 124.406C51.119 123.571 51.5433 114.95 52.5176 111.195C53.492 107.44 54.4636 105.494 54.6032 104.659C54.7428 103.824 55.4407 105.433 55.854 107.303C56.2672 109.172 59.0535 113.56 59.7487 116.335C60.4438 119.11 60.7203 123.287 61.139 122.315C61.5578 121.343 60.9994 113.83 60.0251 110.078C59.0507 106.326 57.8027 104.517 58.3583 103.819C58.9139 103.121 62.1134 100.901 63.7802 98.9524C65.447 97.0037 65.5893 93.8069 64.7545 91.7214C63.9198 89.6358 61.8342 82.6894 61.8342 81.9887C61.8653 81.5208 62.0589 81.0783 62.3816 80.738C62.3816 80.738 64.1798 84.1756 64.875 83.0644C65.5702 81.9532 65.9971 73.3673 64.6013 69.4727C63.2054 65.578 55.843 65.7148 55.843 65.7148Z" fill="black"/>
<path d="M31.6565 100.321V10.1656" stroke="#212121" stroke-width="3" stroke-linecap="round" stroke-linejoin="round"/>
<path d="M66.7224 100.321V9.37737" stroke="#212121" stroke-width="3" stroke-linecap="round" stroke-linejoin="round"/>
<path d="M59.9893 51.1652C59.9893 51.1652 56.85 51.7755 56.6748 55.1776C56.4997 58.5796 56.5873 62.2444 55.279 64.8609C53.9707 67.4774 53.8831 70.9671 56.6748 72.4505C59.4665 73.9339 61.6479 75.7649 61.6479 78.6442C61.6479 81.5235 66.0954 83.6145 69.9327 83.7897C73.7699 83.9649 75.0781 81.1732 77.3498 80.3849C79.6215 79.5967 78.1326 80.8201 79.1808 81.258C80.2291 81.6959 81.4497 78.3787 81.0118 76.1974C80.5739 74.016 76.3015 73.4084 75.954 70.8056C75.6064 68.2027 76.9995 65.4849 75.6036 63.9139C74.2078 62.3429 69.4099 63.3036 68.6244 61.7244C67.8389 60.1451 68.712 59.8085 69.4975 57.9747C70.283 56.141 69.8478 53.0017 68.014 51.0831C66.1803 49.1645 62.8686 47.5004 59.9893 51.1652Z" fill="#212121" stroke="#212121" stroke-linecap="round" stroke-linejoin="round"/>
<path d="M60.1647 51.6004C60.1647 51.6004 57.373 55.09 58.6812 57.6217C59.9895 60.1533 63.5667 61.7271 62.4309 65.0361C61.295 68.345 59.1164 71.3146 60.8626 73.0608C62.6088 74.807 69.1501 74.2815 69.6728 76.7229C70.1956 79.1642 70.8059 81.8711 73.4225 80.5546C76.039 79.2381 78.7458 77.7629 79.0934 79.3339" stroke="#757575" stroke-linecap="round" stroke-linejoin="round"/>
<path d="M61.5605 51.5128C61.5605 51.5128 66.1833 54.4796 65.5729 58.1444C64.9626 61.8092 64.1771 62.7671 65.2992 63.465C66.4214 64.163 68.8764 65.4712 68.0033 67.5705C67.1303 69.6697 66.1723 71.4953 68.0033 72.1932C69.8344 72.8911 73.4116 70.9725 74.1095 73.0663C74.8074 75.16 75.0784 76.5532 76.737 76.4628C78.3956 76.3725 80.8424 76.8104 80.3142 78.8166" stroke="#757575" stroke-linecap="round" stroke-linejoin="round"/>
<path d="M61.7356 50.5521C61.7356 50.5521 67.6666 50.3769 68.3645 53.8666C69.0624 57.3562 65.2252 58.763 66.8811 62.1568C68.5369 65.5506 71.5914 63.3775 73.7727 64.7733C75.9541 66.1692 75.1686 68.0878 75.1686 70.4443C75.1686 72.8008 76.5644 73.8463 78.483 74.5497" stroke="#757575" stroke-linecap="round" stroke-linejoin="round"/>
<path d="M67.8854 100.231H30.4055V101.484H67.8854V100.231Z" fill="#212121" stroke="#212121" stroke-linecap="round" stroke-linejoin="round"/>
<path d="M79.816 28.2706C79.816 28.2706 77.9467 29.3927 79.192 30.0167C80.4373 30.6408 81.8086 30.7639 81.6854 29.6418C81.5622 28.5196 80.4373 27.288 79.816 28.2706Z" fill="#212121"/>
<path d="M105.25 9.63737C103.499 8.93671 102.62 8.93671 101.044 9.11187C99.4673 9.28704 97.535 10.5159 96.8343 9.28704C96.1337 8.05815 97.0095 7.00716 96.6592 5.95617C96.3088 4.90517 93.3283 3.85145 92.6276 6.13133C92.6276 6.13133 86.1383 0.870905 83.6833 4.21546C83.5656 4.37968 83.4643 4.53569 83.3712 4.69169C75.4094 2.43644 62.8222 -0.160927 50.5278 1.31429C32.7485 3.43269 25.2657 9.70579 22.734 13.0558C21.0959 14.2562 19.8395 15.9042 19.1158 17.8017C19.1158 17.8017 18.9899 21.1654 20.736 20.6673C22.4822 20.1692 23.8507 18.423 23.9766 19.1729C24.1025 19.9228 23.4785 21.7894 25.2219 21.5404C26.9654 21.2913 28.0902 19.9201 28.2134 20.9164C28.3366 21.9126 26.719 21.9126 27.7153 23.2838C28.7115 24.655 29.9596 25.2791 31.3308 24.9041C32.702 24.5291 32.5761 24.0337 32.6993 22.4135C32.8224 20.7932 35.3158 20.4182 36.1889 20.4182C37.062 20.4182 37.8092 18.6721 37.311 18.0508C37.1015 17.7979 36.8258 17.6083 36.5146 17.5034C37.1961 16.7699 37.7572 16.1869 37.9159 16.0692L38.6768 15.4534C38.5755 16.8492 38.4524 18.9184 38.5345 19.6683C38.6166 20.4182 38.6439 21.1599 38.6522 21.565C38.4828 21.6259 38.3417 21.7466 38.2553 21.9044C38.2553 21.9044 36.386 23.0265 37.634 23.6506C38.8821 24.2746 40.2505 24.3978 40.1246 23.2756C40.0707 22.8526 39.9096 22.4503 39.6566 22.1069C39.6931 22.1246 39.7306 22.1401 39.7688 22.1535C40.8882 22.5284 42.5058 23.5219 42.8835 22.5284C43.2612 21.5349 42.7603 21.5322 42.7603 21.5322C42.7603 21.5322 42.6563 21.2995 42.4866 20.9848C42.6799 21.1228 42.9015 21.2163 43.1353 21.2585C45.2838 21.7183 47.4323 18.1903 47.279 19.89C47.1258 21.5896 46.0501 22.0385 46.5099 23.1114C46.9698 24.1843 50.0406 23.4179 50.0406 23.4179C50.0406 23.4179 48.0454 25.5664 48.965 26.1823C49.8846 26.7981 52.0359 28.0242 52.7967 26.6421C53.5576 25.2599 52.1837 23.7245 52.95 23.1114C53.4426 22.72 53.9955 23.0758 54.5703 23.0676C54.844 23.2291 55.1177 23.3769 55.3476 23.4973C54.0639 23.9133 53.2127 25.1641 54.2802 26.2343C55.5282 27.4823 56.2781 26.4833 57.2908 25.3612C58.3035 24.239 59.661 26.1084 60.1619 24.8603C60.6627 23.6123 60.7859 21.8661 60.036 21.2421C59.286 20.618 57.1649 20.1172 56.9158 21.8661C56.9158 21.8661 57.4085 22.7693 56.7297 23.1771L56.1823 22.9855C55.9272 22.8861 55.6794 22.7691 55.4406 22.6352C55.4789 22.5914 55.52 22.5476 55.5611 22.4956C56.4807 21.2667 56.4807 19.7313 55.5611 18.8116C54.6414 17.892 52.95 19.7313 52.6435 17.892C52.3369 16.0528 55.5611 14.3614 55.7143 15.5875C55.8676 16.8137 56.4807 18.5051 58.0161 17.5827C59.5515 16.6604 60.1646 15.5875 59.8581 14.3614C59.5515 13.1352 60.1646 11.2905 60.6244 12.5194C61.0842 13.7483 60.4711 14.0548 60.931 15.5875C61.3908 17.1202 62.4664 17.892 63.8486 17.736C65.2307 17.58 66.3118 16.2033 66.6101 17.4295C66.9085 18.6556 65.8438 22.356 68.6054 21.8798C71.367 21.4035 69.5277 19.578 69.3717 17.892C69.2157 16.2061 70.1408 16.2033 70.7539 14.9744C71.367 13.7455 70.1518 12.8369 69.5277 12.0705C68.9037 11.3042 69.9875 10.2286 70.1408 9.3062C70.1846 9.0325 69.889 8.75881 69.4401 8.50701C70.1737 8.43037 70.8497 8.52617 71.0823 8.82723C71.4338 9.16018 71.8689 9.39187 72.3413 9.49778C71.3916 10.2532 70.8771 11.7914 72.3413 12.5714C74.2107 13.5676 73.8384 10.453 75.0783 10.078C76.3181 9.70306 75.8255 11.3261 76.4468 12.0733C76.6402 12.3124 76.8812 12.5089 77.1544 12.6502C77.4276 12.7915 77.7272 12.8746 78.0342 12.8943C77.1885 12.9956 76.3072 13.3678 75.9377 14.167C75.1905 15.7873 77.183 17.4076 78.6746 17.5335C79.805 17.6265 80.648 17.2215 80.7794 16.5345C81.7729 17.1311 82.4215 17.5745 81.5621 17.8592C80.5905 18.1849 79.3288 18.7268 79.129 19.5014C79.0473 19.4431 78.9776 19.3697 78.9237 19.2851C78.4256 18.5379 76.5562 17.4158 76.1867 19.411C75.8172 21.4063 77.6811 19.7833 78.182 21.0313C78.3626 21.8524 78.2176 22.7912 78.6007 23.4398C78.1656 23.9325 77.6921 24.4416 77.2323 24.8877C76.9257 24.9725 76.4933 24.8877 75.9404 24.2719C74.6951 22.9034 72.6999 24.2719 73.2035 25.1422C73.6386 25.9058 74.7362 26.0016 75.0099 26.4286C74.4661 26.6654 73.9075 26.8665 73.3376 27.0307C73.0201 26.4423 72.4262 25.5172 71.8323 25.5172C71.107 25.5172 69.952 27.0663 70.2284 27.8053C69.4678 27.9528 68.6914 28.0016 67.9184 27.9503C67.8657 27.9455 67.8127 27.951 67.7622 27.9667C67.7116 27.9824 67.6647 28.0078 67.6241 28.0416C67.5834 28.0754 67.5498 28.1169 67.5252 28.1637C67.5005 28.2105 67.4853 28.2617 67.4805 28.3143C67.4756 28.367 67.4812 28.4201 67.4969 28.4706C67.5125 28.5211 67.538 28.568 67.5718 28.6087C67.6056 28.6494 67.6471 28.683 67.6939 28.7076C67.7407 28.7322 67.7919 28.7474 67.8445 28.7523C67.8691 28.7523 68.1182 28.7769 68.5123 28.7769C69.2443 28.7819 69.9741 28.6973 70.6855 28.5251C70.8524 28.4813 71.0467 28.4375 71.2493 28.391C72.2647 28.8097 73.3978 29.3215 73.7125 28.5087C73.8313 28.267 73.8724 27.9946 73.8302 27.7286C74.145 27.6301 74.4625 27.5206 74.7745 27.4002C74.5528 27.8299 74.446 28.2213 75.4587 28.3855C77.079 28.6346 77.2022 26.5134 78.1957 26.2644C78.858 26.1001 79.0168 25.0519 78.6938 24.551C78.8717 24.3594 79.0469 24.1651 79.2165 23.9735L79.3151 24.0228C80.5631 24.5209 82.3066 23.6478 83.0565 22.9006C83.123 22.828 83.1783 22.7459 83.2207 22.6571C83.9816 22.8185 84.4496 22.512 84.674 21.5294C84.7553 21.6552 84.8694 21.7564 85.004 21.822C85.1386 21.8876 85.2885 21.9151 85.4377 21.9017C85.9495 21.9017 86.6145 21.8688 87.2167 21.8332C87.4083 22.2027 87.4411 22.5312 87.0169 22.6023C85.9631 22.7775 82.8074 22.252 83.5081 24.354C84.0856 26.0837 85.9714 26.5107 87.1017 26.3136C87.6174 26.5782 88.1561 26.7953 88.711 26.9623C89.6115 28.3746 90.9718 29.5432 90.1726 30.1426C88.7685 31.1936 86.6665 31.8943 88.2567 32.948C88.6595 33.2237 89.0978 33.4438 89.5595 33.6021C88.9427 34.29 88.2269 34.8822 87.4356 35.3593L87.036 35.57C86.4585 35.518 85.9412 35.6193 85.8017 36.1037C85.791 36.1516 85.7828 36.2 85.777 36.2488L84.5126 36.9494C84.3374 36.5581 83.998 36.3199 83.1715 36.6292C83.1715 36.6292 81.4198 37.505 81.7701 38.0305C82.1205 38.556 83.5218 39.2594 84.05 39.0843C84.5782 38.9091 84.9258 38.5588 84.7507 37.8554L84.726 37.7514L85.996 37.048C86.4777 37.7541 87.5561 38.2057 87.5561 38.2057L88.1992 38.8516C88.1201 38.9723 88.0342 39.0883 87.942 39.1992C87.3198 39.9134 86.6583 40.5923 85.9604 41.2328C85.2816 40.9591 84.4879 40.8359 84.0445 41.3641C83.166 42.4151 82.2902 44.1695 84.0445 43.8274C85.0837 43.6231 86.0876 43.2691 87.0251 42.7764L87.2002 41.9006C87.2002 41.9006 87.0169 41.7747 86.735 41.6269C87.3715 41.0314 87.9763 40.4029 88.5468 39.7439C88.6268 39.6503 88.7017 39.5526 88.7713 39.451L88.9519 39.6317C89.004 39.7112 89.0626 39.7862 89.1271 39.8561C89.1541 40.4294 89.2273 40.9996 89.346 41.5612C89.502 42.3057 89.669 42.9625 89.8195 43.5428C89.97 44.123 90.1069 44.6759 90.189 45.1329C90.1938 45.2401 90.2094 45.3464 90.2355 45.4504C90.2563 45.6193 90.2655 45.7894 90.2629 45.9595C89.7702 46.1374 87.6546 46.0744 87.1181 47.4703C86.4941 49.0933 86.3682 49.5942 87.2413 49.9664C88.1144 50.3386 88.4921 50.9654 89.3652 51.3349C90.2383 51.7044 91.6122 52.0848 91.7354 50.5877C91.8585 49.0906 91.2373 49.0878 92.3594 48.2147C93.4816 47.3417 94.6064 47.8398 93.4843 46.2168C92.3621 44.5938 91.9872 44.2215 91.2373 44.2215C91.1001 44.2203 90.9632 44.235 90.8294 44.2653C90.761 43.9752 90.6816 43.6687 90.5995 43.3375C90.4517 42.7655 90.2848 42.1168 90.1315 41.3915C90.0594 41.0434 90.0065 40.6917 89.9728 40.3378C90.0996 40.3594 90.2291 40.3594 90.356 40.3378C91.2318 40.1626 91.5821 39.2868 91.5821 38.7613C91.5821 38.2358 91.5821 38.5861 91.4069 37.3572C91.2728 36.4212 91.1332 35.2826 90.1507 35.4934C90.2602 34.8584 90.3231 34.3083 90.356 33.9497C90.408 33.895 90.46 33.8403 90.5092 33.7828C91.1531 33.7642 91.7747 33.543 92.2855 33.1505C93.5117 32.272 95.0909 31.221 95.2661 32.272C95.4412 33.323 95.6164 34.3767 96.8425 34.0264C98.0687 33.676 98.5969 33.8512 98.4218 31.9216C98.2466 29.9921 98.9473 29.6418 99.4727 28.7659C99.886 28.0762 100.948 27.6055 100.789 26.7515C100.82 26.7235 100.85 26.6933 100.877 26.6612C101.753 25.6102 102.278 24.3813 100.702 22.98C99.2018 21.6471 101.654 20.7905 100.852 19.5041C101.38 18.683 101.723 17.9577 101.577 16.4934C101.402 14.7391 101.928 13.6881 102.453 13.3377C102.979 12.9874 104.383 14.0384 105.084 12.9847C105.784 11.9309 107.005 10.3408 105.25 9.63737ZM89.2393 35.9121C89.1462 35.9751 89.0477 36.0435 88.9437 36.1229C88.9437 36.1229 88.6317 35.986 88.202 35.8492C88.6351 35.5566 89.0433 35.2289 89.4227 34.8693C89.3761 35.1814 89.3104 35.5372 89.2393 35.9039V35.9121ZM35.6661 17.2434C35.3924 17.1585 35.0613 17.0627 34.6945 16.9286C34.3774 16.8209 34.0974 16.6254 33.8871 16.3648C34.4728 16.4059 35.0886 16.4332 35.6634 16.4332C35.9371 16.4332 36.2108 16.4332 36.4462 16.4141C36.2135 16.6686 35.9398 16.9505 35.6661 17.2434ZM38.3702 14.2327C38.4142 14.3383 38.4654 14.4408 38.5235 14.5393L37.4287 15.4589C37.1359 15.6888 35.4417 15.6833 33.597 15.5465C33.5662 15.2428 33.6534 14.939 33.8406 14.698C34.11 14.4091 34.3046 14.0586 34.4071 13.6771C34.6002 13.6314 34.7849 13.5557 34.9545 13.4527C37.0729 12.2046 37.946 9.21314 39.6922 9.714C40.6282 9.9877 40.308 10.4639 40.0425 10.9703C38.9067 11.8871 37.9186 13.0887 38.3702 14.219V14.2327ZM42.3607 17.7606C42.3607 17.7606 41.7175 19.1975 41.994 20.2513C41.7011 19.8708 41.3535 19.5506 41.0059 19.5506C40.4585 19.5506 39.6867 20.4128 39.4377 21.1545C39.4212 20.7302 39.3911 20.1637 39.3282 19.5944C39.2461 18.8636 39.3884 16.6385 39.4897 15.2782C40.6912 15.5793 42.2512 14.6405 42.3607 15.3056C42.443 16.1173 42.443 16.9353 42.3607 17.747V17.7606ZM74.3475 8.20868L74.4515 8.27984C74.4132 8.32363 74.3804 8.36742 74.342 8.40848C74.3448 8.34279 74.3448 8.27437 74.3475 8.20868ZM91.3796 21.0067C92.2007 21.2804 92.9862 21.4528 93.3693 21.2804C93.134 21.8688 93.2872 22.7364 93.5034 23.4699C92.135 22.2575 91.6204 21.9838 91.3796 21.0067ZM98.5887 20.1719C98.5887 20.1719 96.6236 20.4456 95.7012 21.1517C95.5053 20.9103 95.2384 20.7365 94.9383 20.655C94.6382 20.5735 94.3201 20.5883 94.0289 20.6974C93.9757 20.7141 93.9236 20.7343 93.8729 20.7576C94.1439 20.3372 94.3147 19.8602 94.3721 19.3634C94.4296 18.8665 94.3721 18.3631 94.2041 17.892C93.6896 16.3019 96.8343 14.7226 97.0095 15.2454C97.1847 15.7681 97.0095 16.9998 97.1846 18.4011C97.2722 19.0908 97.9072 19.7367 98.6161 20.0898C98.6052 20.1166 98.5961 20.144 98.5887 20.1719Z" fill="#212121"/>
<path d="M102.796 20.3334C102.796 20.3334 100.88 21.2092 101.044 22.0878C101.208 22.9663 103.146 24.718 103.507 23.6642C103.868 22.6105 104.558 22.2629 104.033 21.5623C103.507 20.8616 103.674 19.8079 102.796 20.3334Z" fill="#212121"/>
</svg>
