<svg width="182" height="136" viewBox="0 0 182 136" fill="none" xmlns="http://www.w3.org/2000/svg">
<path d="M182 119.515H0V119.606H182V119.515Z" fill="#EBEBEB"/>
<path d="M86.268 103.234H15.9832C15.4326 103.233 14.9049 103.013 14.5159 102.622C14.1269 102.231 13.9084 101.702 13.9084 101.15V2.06614C13.9132 1.51712 14.1338 0.992177 14.5223 0.605319C14.9108 0.218462 15.4358 0.00094049 15.9832 0H86.268C86.8193 0 87.3479 0.219605 87.7377 0.610504C88.1275 1.0014 88.3465 1.53158 88.3465 2.08439V101.15C88.3465 101.702 88.1275 102.232 87.7377 102.623C87.3479 103.014 86.8193 103.234 86.268 103.234ZM15.9832 0.0730087C15.4568 0.0739757 14.9522 0.284392 14.5803 0.658071C14.2083 1.03175 13.9994 1.53816 13.9994 2.06614V101.15C13.9994 101.677 14.2083 102.184 14.5803 102.558C14.9522 102.931 15.4568 103.142 15.9832 103.143H86.268C86.7948 103.142 87.2998 102.931 87.6723 102.558C88.0448 102.184 88.2545 101.678 88.2555 101.15V2.06614C88.2545 1.53782 88.0448 1.03142 87.6723 0.657848C87.2998 0.284273 86.7948 0.0739736 86.268 0.0730087H15.9832Z" fill="#EBEBEB"/>
<path d="M165.005 103.234H94.7165C94.1656 103.233 93.6375 103.013 93.2479 102.622C92.8583 102.232 92.639 101.702 92.6381 101.15V2.06614C92.6438 1.51679 92.8652 0.991847 93.2543 0.605091C93.6433 0.218335 94.1687 0.000930233 94.7165 0H165.005C165.552 0.00189986 166.076 0.219846 166.464 0.606601C166.851 0.993355 167.071 1.51775 167.076 2.06614V101.15C167.076 101.701 166.858 102.23 166.47 102.621C166.082 103.012 165.555 103.232 165.005 103.234ZM94.7165 0.0730087C94.1897 0.0739736 93.6847 0.284273 93.3122 0.657848C92.9397 1.03142 92.73 1.53782 92.7291 2.06614V101.15C92.73 101.678 92.9397 102.184 93.3122 102.558C93.6847 102.931 94.1897 103.142 94.7165 103.143H165.005C165.532 103.142 166.037 102.931 166.409 102.558C166.782 102.184 166.991 101.678 166.992 101.15V2.06614C166.991 1.53782 166.782 1.03142 166.409 0.657848C166.037 0.284273 165.532 0.0739736 165.005 0.0730087H94.7165Z" fill="#EBEBEB"/>
<path d="M28.13 122.99H18.666V123.081H28.13V122.99Z" fill="#EBEBEB"/>
<path d="M69.2255 122.001H52.8346V122.092H69.2255V122.001Z" fill="#EBEBEB"/>
<path d="M50.6215 126.381H28.4939V126.473H50.6215V126.381Z" fill="#EBEBEB"/>
<path d="M163.334 125.768H156.334V125.859H163.334V125.768Z" fill="#EBEBEB"/>
<path d="M153.091 125.768H132.965V125.859H153.091V125.768Z" fill="#EBEBEB"/>
<path d="M120.673 124.228H93.5663V124.319H120.673V124.228Z" fill="#EBEBEB"/>
<path d="M69.4621 58.5672L64.8575 119.529H109.266L113.87 58.5672H69.4621ZM97.3846 101.642C97.1697 104.076 96.0634 106.343 94.2792 108.006C92.4951 109.669 90.1597 110.61 87.724 110.648C86.5708 110.666 85.4268 110.44 84.3666 109.984C83.3064 109.529 82.3539 108.855 81.5711 108.005C80.7883 107.156 80.1929 106.15 79.8237 105.055C79.4545 103.959 79.3199 102.797 79.4285 101.646L81.0483 80.2178C81.2631 77.7851 82.3689 75.5184 84.1523 73.8553C85.9357 72.1922 88.2702 71.2506 90.7052 71.2123C91.8592 71.1938 93.004 71.4195 94.0651 71.8748C95.1262 72.3301 96.0796 73.0047 96.8631 73.8545C97.6466 74.7044 98.2426 75.7103 98.6122 76.8068C98.9818 77.9033 99.1167 79.0656 99.008 80.2178L97.3846 101.642Z" fill="#9E9E9E"/>
<path d="M123.352 119.515H58.604L58.9789 115.514H123.724L123.352 119.515Z" fill="#9E9E9E"/>
<path d="M148.228 96.8857H153.972C154.049 96.8858 154.125 96.8702 154.196 96.8397C154.266 96.8092 154.33 96.7646 154.383 96.7085C154.436 96.6525 154.477 96.5862 154.503 96.5137C154.529 96.4412 154.541 96.364 154.536 96.287L154.514 95.8782C154.505 95.7184 154.436 95.568 154.32 95.4575C154.205 95.3471 154.051 95.2847 153.892 95.2832H148.148C148.071 95.2826 147.995 95.2977 147.924 95.3278C147.853 95.3578 147.789 95.402 147.736 95.4577C147.683 95.5135 147.642 95.5795 147.615 95.6518C147.588 95.7241 147.576 95.8011 147.58 95.8782L147.602 96.287C147.611 96.4478 147.681 96.5991 147.797 96.7103C147.913 96.8214 148.067 96.8841 148.228 96.8857Z" fill="#E0E0E0"/>
<path d="M138.644 96.8857H144.377C144.454 96.8864 144.53 96.8711 144.601 96.8408C144.672 96.8105 144.736 96.7659 144.789 96.7097C144.842 96.6535 144.883 96.587 144.909 96.5143C144.935 96.4415 144.946 96.3642 144.941 96.287L144.919 95.8782C144.91 95.7183 144.841 95.568 144.725 95.4575C144.61 95.3471 144.456 95.2847 144.297 95.2832H138.564C138.487 95.2826 138.411 95.2977 138.34 95.3278C138.269 95.3578 138.205 95.402 138.152 95.4577C138.099 95.5135 138.057 95.5795 138.031 95.6518C138.004 95.7241 137.992 95.8011 137.996 95.8782L138.018 96.287C138.028 96.4475 138.098 96.5983 138.214 96.7093C138.33 96.8203 138.484 96.8833 138.644 96.8857Z" fill="#E0E0E0"/>
<path d="M158.424 96.4332H24.6064C23.8543 96.4253 23.1332 96.1315 22.5887 95.6112C22.0441 95.0908 21.7167 94.3827 21.6725 93.6297L17.6431 13.0211C17.6205 12.6593 17.6726 12.2967 17.7962 11.9559C17.9197 11.6152 18.112 11.3037 18.3611 11.0409C18.6102 10.7782 18.9106 10.5697 19.2436 10.4287C19.5767 10.2876 19.9351 10.217 20.2966 10.2212H154.114C154.866 10.2283 155.587 10.5213 156.131 11.041C156.676 11.5608 157.004 12.2685 157.048 13.0211L161.077 93.6297C161.1 93.9917 161.048 94.3545 160.924 94.6954C160.801 95.0363 160.608 95.348 160.359 95.6111C160.11 95.8742 159.81 96.083 159.477 96.2244C159.144 96.3659 158.785 96.437 158.424 96.4332Z" fill="black" fill-opacity="0.38"/>
<path d="M160.062 96.4332H26.248C25.4933 96.4281 24.7686 96.1358 24.2206 95.6153C23.6726 95.0949 23.3421 94.3851 23.296 93.6296L19.292 13.021C19.2695 12.6598 19.3214 12.2978 19.4445 11.9576C19.5676 11.6174 19.7593 11.3062 20.0075 11.0436C20.2558 10.7809 20.5554 10.5723 20.8875 10.4308C21.2197 10.2893 21.5774 10.218 21.9383 10.2212H155.752C156.506 10.2253 157.231 10.5168 157.779 11.0367C158.327 11.5566 158.658 12.2659 158.704 13.021L162.708 93.6296C162.73 93.991 162.679 94.3532 162.555 94.6936C162.432 95.034 162.241 95.3454 161.993 95.6084C161.744 95.8713 161.445 96.0802 161.113 96.2221C160.781 96.364 160.423 96.4359 160.062 96.4332Z" fill="#E6E6E6"/>
<path d="M160.065 95.9332H160.062L26.2514 95.9332C26.251 95.9332 26.2506 95.9332 26.2503 95.9332C25.6231 95.9287 25.0207 95.6857 24.5649 95.2528C24.1095 94.8202 23.8343 94.2303 23.7952 93.6019C23.7952 93.601 23.7951 93.6001 23.7951 93.5992L19.7914 12.9962L19.7914 12.9962L19.791 12.99C19.7728 12.6971 19.8149 12.4035 19.9147 12.1277C20.0145 11.8519 20.1698 11.5998 20.3709 11.387C20.572 11.1742 20.8146 11.0053 21.0835 10.8908C21.3523 10.7763 21.6418 10.7186 21.9338 10.7212L21.9338 10.7212H21.9383H155.751C156.377 10.7249 156.979 10.9672 157.435 11.3995C157.89 11.8313 158.166 12.4206 158.205 13.0485C158.205 13.0495 158.205 13.0505 158.205 13.0516L162.209 93.6544L162.209 93.6607C162.227 93.9538 162.185 94.2476 162.085 94.5236C161.985 94.7997 161.83 95.0521 161.629 95.2652C161.428 95.4782 161.185 95.6474 160.916 95.7623C160.647 95.8772 160.358 95.9354 160.065 95.9332Z" stroke="black" stroke-opacity="0.38"/>
<path d="M27.0308 90.8078L23.2961 15.8464C23.2827 15.6197 23.3158 15.3926 23.3935 15.1793C23.4712 14.966 23.5917 14.7709 23.7477 14.6063C23.9037 14.4416 24.0918 14.3109 24.3003 14.2222C24.5087 14.1335 24.7332 14.0887 24.9596 14.0906H153.131C153.603 14.0944 154.055 14.2781 154.396 14.6042C154.738 14.9302 154.943 15.3744 154.969 15.8464L158.704 90.8078C158.718 91.0343 158.685 91.2613 158.608 91.4747C158.531 91.688 158.411 91.8831 158.255 92.0478C158.099 92.2125 157.911 92.3433 157.703 92.4321C157.495 92.5208 157.271 92.5656 157.044 92.5637H28.869C28.3978 92.5589 27.946 92.375 27.6048 92.0491C27.2636 91.7232 27.0584 91.2796 27.0308 90.8078Z" fill="white"/>
<path d="M31.1803 17.9236C31.1933 18.1231 31.1652 18.3233 31.0978 18.5115C31.0305 18.6998 30.9253 18.8722 30.7888 19.018C30.6523 19.1638 30.4873 19.2799 30.3042 19.3592C30.1211 19.4384 29.9237 19.4791 29.7243 19.4786C29.3073 19.4738 28.9075 19.3107 28.6056 19.0222C28.3037 18.7336 28.122 18.3411 28.0972 17.9236C28.0848 17.7243 28.1132 17.5245 28.1808 17.3367C28.2484 17.1489 28.3536 16.977 28.4901 16.8316C28.6266 16.6861 28.7913 16.5704 28.9742 16.4913C29.157 16.4123 29.3541 16.3717 29.5532 16.3721C29.9702 16.3751 30.3704 16.5372 30.6725 16.8253C30.9747 17.1134 31.1563 17.5061 31.1803 17.9236Z" fill="white"/>
<path d="M38.1944 17.9236C38.2074 18.1231 38.1794 18.3233 38.112 18.5115C38.0447 18.6998 37.9395 18.8722 37.803 19.018C37.6664 19.1638 37.5015 19.2799 37.3184 19.3592C37.1353 19.4384 36.9379 19.4791 36.7384 19.4786C36.3214 19.4738 35.9217 19.3107 35.6198 19.0222C35.3179 18.7336 35.1362 18.3411 35.1114 17.9236C35.0989 17.7243 35.1274 17.5245 35.1949 17.3367C35.2625 17.1489 35.3678 16.977 35.5043 16.8316C35.6407 16.6861 35.8055 16.5704 35.9883 16.4913C36.1712 16.4123 36.3683 16.3717 36.5674 16.3721C36.9843 16.3751 37.3845 16.5372 37.6867 16.8253C37.9889 17.1134 38.1704 17.5061 38.1944 17.9236Z" fill="white"/>
<path d="M45.2124 17.9236C45.2254 18.1231 45.1973 18.3233 45.13 18.5115C45.0626 18.6998 44.9574 18.8722 44.8209 19.018C44.6844 19.1638 44.5195 19.2799 44.3364 19.3592C44.1533 19.4384 43.9559 19.4791 43.7564 19.4786C43.3395 19.4747 42.9397 19.3117 42.6382 19.0229C42.3367 18.7341 42.1561 18.3411 42.133 17.9236C42.1205 17.7243 42.149 17.5245 42.2166 17.3367C42.2841 17.1489 42.3894 16.977 42.5259 16.8316C42.6623 16.6861 42.8271 16.5704 43.0099 16.4913C43.1928 16.4123 43.3899 16.3717 43.589 16.3721C44.005 16.3769 44.4038 16.5396 44.7051 16.8275C45.0063 17.1154 45.1876 17.507 45.2124 17.9236Z" fill="white"/>
<g opacity="0.6">
<path opacity="0.6" d="M40.3604 92.5638H58.8334L75.723 14.0907H57.25L40.3604 92.5638Z" fill="white"/>
<path opacity="0.6" d="M119.858 92.5637H124.535L141.425 14.0906H136.747L119.858 92.5637Z" fill="white"/>
<path opacity="0.6" d="M62.9392 92.5637H89.1472L106.037 14.0906H79.8288L62.9392 92.5637Z" fill="white"/>
</g>
<path d="M91 136C129.978 136 161.576 134.15 161.576 131.868C161.576 129.586 129.978 127.735 91 127.735C52.022 127.735 20.4241 129.586 20.4241 131.868C20.4241 134.15 52.022 136 91 136Z" fill="#F5F5F5"/>
<path d="M160.943 131.868C160.753 131.974 160.446 132.093 160.005 132.22C159.099 132.479 157.74 132.735 155.961 132.981C152.409 133.473 147.257 133.917 140.876 134.291C128.116 135.038 110.483 135.5 91 135.5C71.5176 135.5 53.8838 135.038 41.1245 134.291C34.743 133.917 29.5906 133.473 26.0388 132.981C24.2596 132.735 22.901 132.479 21.9955 132.22C21.5538 132.093 21.2469 131.974 21.057 131.868C21.2469 131.762 21.5538 131.642 21.9955 131.516C22.901 131.257 24.2596 131.001 26.0388 130.755C29.5906 130.263 34.743 129.819 41.1245 129.445C53.8838 128.698 71.5176 128.235 91 128.235C110.483 128.235 128.116 128.698 140.876 129.445C147.257 129.819 152.409 130.263 155.961 130.755C157.74 131.001 159.099 131.257 160.005 131.516C160.446 131.642 160.753 131.762 160.943 131.868Z" stroke="black" stroke-opacity="0.12"/>
<path d="M131.258 75.9471H131.127C121.43 75.1513 114.747 66.8211 114.478 66.4852C114.23 66.1448 114.123 65.7212 114.179 65.3032C114.235 64.8852 114.451 64.5054 114.781 64.2434C115.11 63.9814 115.528 63.8575 115.947 63.8977C116.365 63.938 116.752 64.1392 117.026 64.4592C117.102 64.5578 122.814 71.6177 130.723 72.6252C133.271 70.0699 135.455 63.324 135.211 61.2834C135.211 61.2615 135.211 61.2432 135.211 61.225C135.161 60.5679 135.037 58.3046 135.681 56.9722C135.893 56.6297 136.225 56.3781 136.611 56.266C136.997 56.154 137.411 56.1894 137.773 56.3654C138.135 56.5413 138.419 56.8455 138.57 57.2191C138.722 57.5927 138.73 58.0093 138.593 58.3886C138.433 58.7244 138.356 59.9327 138.433 60.9439C138.797 64.3023 135.885 72.7786 132.245 75.6149C131.961 75.831 131.615 75.9477 131.258 75.9471Z" fill="#212121"/>
<path d="M54.1704 67.1021C50.8209 67.0614 47.517 66.3166 44.4724 64.9156C41.4277 63.5147 38.7099 61.4888 36.4946 58.9689C36.2444 58.6894 36.0983 58.3317 36.0811 57.9565C36.0638 57.5812 36.1765 57.2116 36.4 56.9101C39.028 53.3655 43.68 44.9951 44.408 42.2683C44.0625 41.6107 43.5405 41.0632 42.901 40.6876C42.6452 40.5681 42.425 40.3836 42.2622 40.1525C42.0994 39.9213 41.9996 39.6516 41.9728 39.3698L41.7107 36.6977C41.6853 36.2766 41.8236 35.8619 42.0965 35.5408C42.3695 35.2196 42.7559 35.017 43.1746 34.9755C43.5933 34.9339 44.0117 35.0566 44.3421 35.3178C44.6726 35.5791 44.8892 35.9585 44.9467 36.3765L45.1287 38.2346C46.2047 39.0632 47.0568 40.1487 47.6075 41.3922C47.7167 41.6525 47.7568 41.9367 47.724 42.2172C47.3891 45.1119 42.7044 53.497 39.8216 57.7351C46.5519 64.4628 54.5963 63.8496 54.9494 63.8167C55.3735 63.7872 55.7923 63.9254 56.1161 64.2017C56.4399 64.4779 56.6431 64.8703 56.6821 65.2948C56.7211 65.7194 56.5928 66.1424 56.3248 66.4733C56.0568 66.8042 55.6702 67.0168 55.2479 67.0656C55.1532 67.0729 54.7783 67.1021 54.1704 67.1021Z" fill="#212121"/>
<path d="M106.605 131.813H102.237C101.986 131.813 101.739 131.755 101.514 131.644C101.289 131.532 101.094 131.37 100.942 131.17C100.79 130.97 100.686 130.738 100.639 130.491C100.591 130.244 100.601 129.989 100.668 129.747C101.807 125.644 102.368 122.304 102.786 117.076C101.243 109.776 99.7906 103.128 99.7761 103.062C99.6971 102.645 99.7837 102.213 100.017 101.859C100.251 101.504 100.613 101.255 101.027 101.164C101.441 101.074 101.874 101.148 102.233 101.373C102.593 101.597 102.852 101.953 102.954 102.365C102.954 102.431 104.453 109.25 106.015 116.631C106.048 116.784 106.058 116.942 106.044 117.098C105.68 121.793 105.203 125.038 104.344 128.553H106.594C107.012 128.573 107.406 128.754 107.694 129.057C107.983 129.361 108.144 129.764 108.144 130.183C108.144 130.603 107.983 131.006 107.694 131.309C107.406 131.613 107.012 131.793 106.594 131.813H106.605Z" fill="#212121"/>
<path d="M72.9164 131.813H70.4558C70.2232 131.814 69.9932 131.764 69.7814 131.668C69.5696 131.572 69.381 131.431 69.2284 131.255C69.0757 131.079 68.9626 130.872 68.8968 130.648C68.831 130.425 68.814 130.189 68.8469 129.959C69.2655 126.965 71.3949 121.515 73.6881 116.036C74.4998 108.808 75.1623 102.602 75.1696 102.529C75.1876 102.312 75.2489 102.1 75.35 101.907C75.451 101.713 75.5898 101.542 75.7579 101.404C75.9261 101.265 76.1203 101.162 76.3291 101.1C76.5378 101.038 76.7568 101.018 76.9732 101.043C77.1895 101.067 77.3987 101.135 77.5885 101.242C77.7783 101.349 77.9447 101.493 78.0779 101.666C78.2111 101.838 78.3085 102.036 78.3641 102.247C78.4198 102.458 78.4326 102.678 78.4019 102.894C78.4019 102.956 77.7176 109.304 76.8913 116.638C76.8745 116.792 76.8352 116.942 76.7748 117.084C75.1623 120.964 73.3204 125.534 72.4796 128.56H72.9164C73.1363 128.55 73.356 128.584 73.5623 128.662C73.7685 128.739 73.957 128.857 74.1163 129.01C74.2756 129.162 74.4025 129.345 74.4891 129.548C74.5758 129.751 74.6204 129.97 74.6204 130.19C74.6204 130.411 74.5758 130.63 74.4891 130.833C74.4025 131.036 74.2756 131.219 74.1163 131.371C73.957 131.523 73.7685 131.642 73.5623 131.719C73.356 131.796 73.1363 131.831 72.9164 131.82V131.813Z" fill="#212121"/>
<path d="M74.3325 20.4423L55.3827 39.4501C54.429 60.5166 54.5055 82.6455 55.3827 105.588H118.049C116.808 75.9835 116.691 47.4846 118.049 20.4423H74.3325Z" fill="white"/>
<path d="M118.049 105.91H55.3826C55.2982 105.91 55.217 105.877 55.156 105.819C55.0949 105.76 55.0588 105.68 55.055 105.596C54.1487 81.7694 54.1487 59.5018 55.055 39.4245C55.0599 39.343 55.095 39.2662 55.1533 39.2092L74.1031 20.2014C74.1333 20.1713 74.169 20.1474 74.2084 20.1311C74.2477 20.1148 74.2899 20.1064 74.3325 20.1065H118.049C118.093 20.1066 118.137 20.1157 118.178 20.1333C118.218 20.1509 118.255 20.1765 118.285 20.2087C118.316 20.2406 118.339 20.2785 118.354 20.32C118.369 20.3614 118.376 20.4056 118.373 20.4496C117.066 46.4917 117.066 74.3335 118.373 105.566C118.374 105.61 118.367 105.654 118.351 105.694C118.336 105.735 118.312 105.772 118.282 105.804C118.253 105.837 118.217 105.863 118.177 105.882C118.136 105.9 118.093 105.909 118.049 105.91ZM55.692 105.256H117.71C116.422 74.2787 116.418 46.6341 117.71 20.7599H74.4671L55.692 39.5815C54.8002 59.5274 54.8002 81.6197 55.692 105.256Z" fill="#212121"/>
<path d="M106.812 96.5391H99.9763C99.9116 96.5391 99.8496 96.5133 99.8039 96.4674C99.7581 96.4216 99.7324 96.3593 99.7324 96.2945C99.7324 96.2625 99.7388 96.2309 99.7511 96.2014C99.7634 96.172 99.7814 96.1452 99.8041 96.1228C99.8268 96.1004 99.8537 96.0827 99.8833 96.0708C99.9128 96.0589 99.9445 96.0531 99.9763 96.0536H106.812C106.844 96.0531 106.876 96.0589 106.905 96.0708C106.935 96.0827 106.962 96.1004 106.984 96.1228C107.007 96.1452 107.025 96.172 107.037 96.2014C107.05 96.2309 107.056 96.2625 107.056 96.2945C107.056 96.3266 107.05 96.3584 107.038 96.3881C107.025 96.4177 107.007 96.4447 106.985 96.4674C106.962 96.4901 106.935 96.5081 106.906 96.5204C106.876 96.5327 106.844 96.5391 106.812 96.5391Z" fill="#B75400"/>
<path d="M97.1444 96.5391H66.612C66.5474 96.5391 66.4853 96.5133 66.4396 96.4674C66.3939 96.4216 66.3682 96.3593 66.3682 96.2945C66.3682 96.2625 66.3745 96.2309 66.3868 96.2014C66.3991 96.172 66.4171 96.1452 66.4398 96.1228C66.4625 96.1004 66.4894 96.0827 66.519 96.0708C66.5486 96.0589 66.5802 96.0531 66.612 96.0536H97.1371C97.1689 96.0531 97.2006 96.0589 97.2301 96.0708C97.2597 96.0827 97.2866 96.1004 97.3093 96.1228C97.332 96.1452 97.35 96.172 97.3623 96.2014C97.3746 96.2309 97.381 96.2625 97.381 96.2945C97.381 96.3581 97.3563 96.4192 97.3121 96.4649C97.268 96.5106 97.2078 96.5372 97.1444 96.5391Z" fill="#B75400"/>
<path d="M77.9979 66.7363C77.9251 65.1448 77.0261 63.889 75.985 63.9255C74.944 63.962 74.165 65.2798 74.2305 66.8714C74.2961 68.463 75.2024 69.7187 76.2435 69.6786C77.2845 69.6384 78.0707 68.3243 77.9979 66.7363Z" fill="#B75400"/>
<path d="M99.9725 66.2363C99.8997 64.6484 99.0007 63.3926 97.9596 63.4291C96.9186 63.4656 96.1396 64.7834 96.2051 66.375C96.2707 67.9666 97.1807 69.2223 98.2181 69.1822C99.2555 69.142 100.045 67.8279 99.9725 66.2363Z" fill="#B75400"/>
<path d="M83.4834 73.2378C85.1627 72.6087 86.9515 72.3264 88.7423 72.408C90.5332 72.4895 92.2891 72.9332 93.9047 73.7123C93.9583 73.742 94.0054 73.782 94.0435 73.8301C94.0815 73.8782 94.1096 73.9334 94.1262 73.9925C94.1428 74.0516 94.1475 74.1134 94.1401 74.1743C94.1327 74.2353 94.1133 74.2941 94.083 74.3475C94.0212 74.4548 93.9199 74.5337 93.8009 74.5671C93.6818 74.6005 93.5545 74.5859 93.446 74.5264C93.3914 74.4972 88.2044 71.6936 82.0128 74.8914C81.9024 74.9474 81.7745 74.9581 81.6564 74.9213C81.5382 74.8845 81.4389 74.8031 81.3794 74.6943C81.3511 74.6399 81.3339 74.5805 81.3286 74.5194C81.3234 74.4583 81.3303 74.3968 81.3489 74.3384C81.3675 74.28 81.3975 74.2259 81.4371 74.1792C81.4767 74.1325 81.5251 74.0942 81.5796 74.0664C82.1946 73.747 82.8307 73.4701 83.4834 73.2378Z" fill="#B75400"/>
<path d="M74.8529 51.8242C75.0144 51.8286 75.1721 51.8738 75.3115 51.9556C75.5243 52.0819 75.6788 52.2873 75.7415 52.5272C75.8042 52.7671 75.7701 53.0221 75.6464 53.2369C74.922 54.5316 73.8969 55.632 72.6581 56.4448C71.4193 57.2575 70.0033 57.7587 68.5302 57.9058C68.2826 57.9157 68.0409 57.8274 67.8577 57.6601C67.6744 57.4927 67.5643 57.2596 67.5511 57.0114C67.5457 56.8891 67.5644 56.767 67.6062 56.652C67.6479 56.537 67.7119 56.4314 67.7944 56.3412C67.8769 56.251 67.9763 56.178 68.0869 56.1264C68.1976 56.0748 68.3173 56.0456 68.4392 56.0404C68.5812 56.0404 71.9409 55.8287 74.0303 52.2914C74.1122 52.146 74.232 52.0256 74.3769 51.9433C74.5219 51.861 74.6864 51.8198 74.8529 51.8242Z" fill="#B75400"/>
<path d="M96.8422 51.2877C96.9942 51.2577 97.1513 51.266 97.2993 51.3118C97.4473 51.3577 97.5817 51.4397 97.6903 51.5506C100.602 54.4709 103.929 53.8832 104.068 53.8576C104.308 53.8141 104.557 53.8659 104.76 54.002C104.964 54.1381 105.107 54.3481 105.16 54.5877C105.184 54.7076 105.184 54.8311 105.161 54.9512C105.138 55.0713 105.091 55.1855 105.023 55.2873C104.955 55.3891 104.868 55.4764 104.767 55.5443C104.665 55.6122 104.551 55.6593 104.432 55.6828C104.25 55.7157 100.013 56.5261 96.3471 52.8538C96.2274 52.7349 96.1424 52.5856 96.1011 52.4218C96.0599 52.2581 96.0641 52.0862 96.1131 51.9246C96.1622 51.763 96.2544 51.618 96.3796 51.5051C96.5049 51.3922 96.6585 51.3158 96.824 51.2841L96.8422 51.2877Z" fill="#B75400"/>
<path opacity="0.2" d="M117.106 54.7053L114.445 54.9535C113.985 54.9966 113.525 54.8699 113.151 54.5971C112.777 54.3242 112.515 53.924 112.414 53.4714L108.727 36.9058C108.62 36.4248 108.704 35.9212 108.96 35.5005C109.216 35.0799 109.624 34.775 110.099 34.6499L117.23 32.7736L117.106 54.7053Z" fill="black"/>
<path opacity="0.2" d="M76.0759 41.1366C74.2232 36.0662 72.3704 27.9513 74.3251 20.4351L55.3752 39.4428C60.737 41.2498 69.2764 42.02 76.0759 41.1366Z" fill="black"/>
<path d="M74.3324 39.4428C72.254 33.2882 73.1021 24.9214 74.3324 20.4351L55.3826 39.4428C61.1192 40.4905 67.5293 40.3226 74.3324 39.4428Z" fill="white"/>
<path d="M64.0639 40.4906C61.1359 40.5124 58.212 40.2681 55.3279 39.7605C55.2694 39.7509 55.2147 39.7251 55.1699 39.6861C55.1251 39.6471 55.092 39.5964 55.0742 39.5396C55.0565 39.4828 55.0548 39.4222 55.0694 39.3645C55.084 39.3069 55.1143 39.2544 55.1569 39.213L74.1067 20.2052C74.1572 20.1537 74.2234 20.1205 74.2948 20.111C74.3663 20.1014 74.4388 20.116 74.5011 20.1524C74.5633 20.1889 74.6116 20.2451 74.6384 20.3121C74.6652 20.3792 74.669 20.4534 74.6491 20.5228C73.5061 24.6989 72.5561 33.1533 74.6491 39.3371C74.6635 39.383 74.6681 39.4315 74.6625 39.4793C74.6568 39.5272 74.6411 39.5733 74.6163 39.6145C74.5913 39.6555 74.5573 39.6903 74.517 39.7162C74.4766 39.7421 74.4309 39.7585 74.3833 39.7642C70.9626 40.2273 67.5157 40.4699 64.0639 40.4906ZM56.0559 39.2276C61.0937 40.0635 66.9432 40.0453 73.8919 39.1692C72.1775 33.7154 72.567 26.4986 73.7172 21.5011L56.0559 39.2276Z" fill="#212121"/>
<path d="M139.448 67.208C139.329 67.2079 139.212 67.1681 139.117 67.0948C139.023 67.0215 138.955 66.9189 138.924 66.8028L132.248 41.2936C132.212 41.1537 132.232 41.005 132.305 40.88C132.377 40.7551 132.497 40.6642 132.636 40.6274C132.776 40.5906 132.924 40.6109 133.048 40.6838C133.173 40.7568 133.264 40.8763 133.3 41.0162L139.976 66.5253C139.994 66.5946 139.998 66.6668 139.989 66.7377C139.979 66.8086 139.955 66.8769 139.919 66.9386C139.883 67.0004 139.835 67.0543 139.778 67.0974C139.721 67.1405 139.656 67.1719 139.587 67.1897C139.542 67.2032 139.495 67.2094 139.448 67.208Z" fill="#212121"/>
<path d="M151.882 30.5644L151.529 30.6556L152.031 32.6067L152.384 32.5154L151.882 30.5644Z" fill="#B75400"/>
<path d="M150.736 27.7761L149.335 22.4209C149.144 21.6959 148.674 21.0763 148.029 20.6979C147.383 20.3195 146.615 20.2132 145.891 20.4022L142.226 21.366L142.135 21.0009L145.8 20.0336C146.616 19.8211 147.483 19.9415 148.211 20.3684C148.939 20.7953 149.468 21.4939 149.684 22.3114L151.089 27.6702L150.736 27.7761Z" fill="#B75400"/>
<path d="M146.125 21.2948L111.42 30.4256C110.401 30.6936 109.792 31.7393 110.059 32.7612L114.451 49.5508C114.719 50.5726 115.761 51.1836 116.78 50.9156L151.485 41.7848C152.504 41.5167 153.114 40.471 152.846 39.4492L148.454 22.6596C148.187 21.6378 147.144 21.0267 146.125 21.2948Z" fill="#B75400"/>
<path d="M144.397 40.853L122.501 46.6139C121.482 46.8819 120.872 47.9276 121.14 48.9495L122.512 54.1964C122.78 55.2183 123.822 55.8293 124.841 55.5612L146.737 49.8004C147.756 49.5324 148.366 48.4867 148.098 47.4648L146.726 42.2179C146.458 41.196 145.416 40.585 144.397 40.853Z" fill="#B75400"/>
<path d="M118.188 37.0054L122.251 36.0401L122.522 36.9964L119.98 37.6008L120.182 38.3135L122.557 37.7542L122.818 38.6564L120.459 39.2202L120.711 40.0998L123.327 39.4818L123.613 40.4967L119.482 41.4801L118.188 37.0054Z" fill="white"/>
<path d="M124.216 40.1201L122.935 35.4546L125.467 34.8303C125.826 34.7285 126.2 34.6779 126.575 34.6801C126.84 34.6934 127.092 34.791 127.292 34.957C127.489 35.1345 127.634 35.3579 127.712 35.6049C127.79 35.8519 127.798 36.114 127.737 36.3651C127.674 36.5839 127.551 36.7831 127.381 36.9425C127.235 37.0723 127.068 37.1785 126.886 37.2569C127.024 37.2511 127.161 37.2713 127.29 37.3164C127.419 37.3616 127.537 37.4307 127.638 37.5198C127.743 37.5905 127.842 37.669 127.935 37.7545L129.037 38.9232L127.321 39.3503L126.129 38.1206C126.029 37.9998 125.903 37.9006 125.759 37.8296C125.627 37.7897 125.485 37.7897 125.353 37.8296L125.22 37.8624L125.739 39.7399L124.216 40.1201ZM124.977 36.9659L125.62 36.811C125.754 36.7673 125.883 36.7123 126.006 36.6468C126.099 36.6056 126.172 36.5315 126.209 36.4402C126.259 36.3314 126.265 36.2082 126.223 36.0958C126.182 35.9834 126.097 35.8901 125.986 35.8348C125.791 35.7761 125.582 35.7761 125.388 35.8348L124.72 35.999L124.977 36.9659Z" fill="white"/>
<path d="M129.504 38.7601L128.359 34.0945L130.614 33.4703C130.934 33.3706 131.266 33.3201 131.6 33.3201C131.834 33.3337 132.058 33.4312 132.234 33.597C132.43 33.7798 132.566 34.025 132.621 34.2964C132.683 34.5297 132.683 34.7765 132.621 35.0098C132.564 35.2256 132.456 35.4225 132.309 35.5824C132.177 35.7112 132.029 35.8188 131.868 35.9016C132.002 35.9031 132.134 35.9268 132.26 35.972C132.359 36.0238 132.452 36.0867 132.538 36.1598C132.63 36.2302 132.717 36.3087 132.797 36.3944L133.784 37.5679L132.256 37.9903L131.186 36.7652C131.096 36.6431 130.982 36.5437 130.851 36.4742C130.735 36.4344 130.611 36.4344 130.495 36.4742L130.376 36.5071L130.838 38.3846L129.504 38.7601ZM130.186 35.6106L130.759 35.451C130.876 35.406 130.989 35.3511 131.098 35.2867C131.14 35.267 131.178 35.2387 131.21 35.2032C131.242 35.1678 131.266 35.126 131.283 35.0802C131.327 34.9719 131.331 34.8498 131.294 34.7385C131.257 34.6272 131.183 34.5347 131.085 34.4794C130.911 34.4161 130.722 34.4161 130.548 34.4794L129.958 34.6437L130.186 35.6106Z" fill="white"/>
<path d="M133.915 35.3665C133.806 35.0266 133.764 34.6631 133.792 34.3022C133.82 33.9413 133.916 33.5919 134.075 33.2792C134.234 32.9664 134.45 32.6981 134.71 32.4934C134.969 32.2887 135.265 32.1528 135.575 32.0954C135.874 31.9826 136.19 31.9396 136.503 31.9691C136.817 31.9986 137.122 32.0999 137.402 32.2671C137.661 32.4584 137.885 32.7082 138.058 33.0013C138.232 33.2945 138.353 33.6251 138.413 33.9733C138.54 34.4647 138.564 34.9836 138.484 35.4877C138.4 35.9092 138.21 36.2925 137.936 36.5881C137.613 36.9217 137.221 37.1545 136.797 37.2646C136.382 37.4063 135.945 37.4374 135.518 37.3554C135.146 37.2683 134.806 37.0536 134.541 36.7396C134.231 36.3534 134.015 35.8798 133.915 35.3665ZM135.26 34.9728C135.317 35.3646 135.49 35.7214 135.75 35.9824C135.86 36.0616 135.982 36.1144 136.11 36.1374C136.238 36.1605 136.368 36.1534 136.494 36.1166C136.619 36.0798 136.737 36.014 136.839 35.9232C136.942 35.8325 137.027 35.7186 137.091 35.5886C137.201 35.1844 137.192 34.7494 137.064 34.3519C137.009 33.9759 136.838 33.6355 136.583 33.3928C136.474 33.3093 136.351 33.2546 136.223 33.2328C136.094 33.211 135.962 33.2225 135.838 33.2666C135.713 33.2984 135.596 33.3626 135.496 33.4545C135.396 33.5463 135.315 33.6634 135.26 33.7966C135.142 34.1769 135.142 34.5924 135.26 34.9728Z" fill="white"/>
<path d="M139.811 36.0401L138.53 31.3755L141.062 30.7507C141.421 30.6462 141.795 30.5955 142.17 30.6004C142.435 30.6126 142.688 30.7104 142.887 30.8776C143.085 31.0546 143.23 31.2782 143.307 31.5258C143.385 31.7733 143.391 32.0359 143.327 32.2868C143.263 32.5042 143.142 32.7029 142.976 32.8646C142.83 32.9945 142.663 33.1009 142.481 33.1793C142.633 33.1843 142.783 33.2096 142.927 33.2545C143.036 33.3038 143.139 33.3653 143.233 33.4377C143.338 33.5083 143.436 33.5886 143.525 33.6773L144.633 34.8469L142.917 35.2744L141.715 34.0484C141.612 33.9263 141.484 33.8256 141.339 33.7524C141.209 33.7147 141.069 33.7147 140.939 33.7524L140.805 33.7853L141.324 35.6643L139.811 36.0401ZM140.573 32.8881L141.215 32.7331C141.348 32.6871 141.477 32.6322 141.601 32.5687C141.693 32.5259 141.766 32.4523 141.804 32.362C141.855 32.253 141.86 32.1298 141.819 32.0173C141.777 31.9048 141.693 31.8114 141.581 31.756C141.387 31.6951 141.177 31.6951 140.983 31.756L140.315 31.9204L140.573 32.8881Z" fill="white"/>
</svg>
