<svg width="375" height="161" viewBox="0 0 375 161" fill="none" xmlns="http://www.w3.org/2000/svg">
<g clip-path="url(#clip0_583_7567)">
<path fill-rule="evenodd" clip-rule="evenodd" d="M95.4766 106.014H131.91L139.834 128.586H157.412L121.138 32.5566L113.702 53.8415L127.183 92.4306H100.222L95.4766 106.014Z" fill="#212121"/>
<path d="M168.548 56.3191H181.639V128.592H168.548V56.3191ZM175.093 42.41C172.548 42.41 170.411 41.5918 168.684 39.9554C167.048 38.3191 166.23 36.3191 166.23 33.9554C166.23 31.5918 167.048 29.5918 168.684 27.9554C170.411 26.2281 172.548 25.3645 175.093 25.3645C177.639 25.3645 179.73 26.1827 181.366 27.8191C183.093 29.3645 183.957 31.3191 183.957 33.6827C183.957 36.1372 183.093 38.2281 181.366 39.9554C179.73 41.5918 177.639 42.41 175.093 42.41ZM209.77 129.41C207.225 129.41 205.043 128.546 203.225 126.819C201.406 125.001 200.497 122.728 200.497 120.001C200.497 117.365 201.406 115.183 203.225 113.455C205.043 111.637 207.225 110.728 209.77 110.728C212.316 110.728 214.452 111.592 216.179 113.319C217.906 115.046 218.77 117.274 218.77 120.001C218.77 122.728 217.861 125.001 216.043 126.819C214.316 128.546 212.225 129.41 209.77 129.41Z" fill="#212121"/>
<path fill-rule="evenodd" clip-rule="evenodd" d="M64.532 130.222C91.9973 130.222 114.262 107.957 114.262 80.492C114.262 53.0267 91.9973 30.7617 64.532 30.7617C37.0668 30.7617 14.8018 53.0267 14.8018 80.492C14.8018 107.957 37.0668 130.222 64.532 130.222ZM64.5331 115.795C84.0297 115.795 99.8348 99.9897 99.8348 80.4931C99.8348 60.9965 84.0297 45.1914 64.5331 45.1914C45.0365 45.1914 29.2314 60.9965 29.2314 80.4931C29.2314 99.9897 45.0365 115.795 64.5331 115.795Z" fill="#212121"/>
<rect x="235.229" y="30.6821" width="100" height="100" rx="2.27273" fill="#B75400"/>
</g>
<defs>
<clipPath id="clip0_583_7567">
<rect width="375" height="160.227" rx="2.27273" fill="white"/>
</clipPath>
</defs>
</svg>
