<svg width="576" height="290" viewBox="0 0 576 290" fill="none" xmlns="http://www.w3.org/2000/svg">
<g clip-path="url(#clip0_1342_9042)">
<path fill-rule="evenodd" clip-rule="evenodd" d="M179.478 201.014H215.913L223.836 223.586H241.414L205.139 127.556L197.704 148.84L211.185 187.431H184.223L179.478 201.014Z" fill="#212121"/>
<path d="M254.457 128.136H268.093V223.591H254.457V128.136Z" fill="#212121"/>
<path fill-rule="evenodd" clip-rule="evenodd" d="M148.533 225.222C175.998 225.222 198.263 202.957 198.263 175.492C198.263 148.027 175.998 125.762 148.533 125.762C121.068 125.762 98.8027 148.027 98.8027 175.492C98.8027 202.957 121.068 225.222 148.533 225.222ZM148.533 210.794C168.03 210.794 183.835 194.988 183.835 175.492C183.835 155.995 168.03 140.19 148.533 140.19C129.037 140.19 113.231 155.995 113.231 175.492C113.231 194.988 129.037 210.794 148.533 210.794Z" fill="#212121"/>
<rect x="280.5" y="125.682" width="100" height="100" rx="2.27273" fill="#B75400"/>
<path d="M324.784 161.284H336.858V212.863H324.784V161.284ZM330.869 152.784C328.68 152.784 326.844 152.108 325.363 150.755C323.882 149.339 323.142 147.6 323.142 145.539C323.142 143.479 323.882 141.772 325.363 140.42C326.844 139.003 328.68 138.295 330.869 138.295C333.058 138.295 334.894 138.971 336.375 140.324C337.856 141.611 338.596 143.253 338.596 145.25C338.596 147.375 337.856 149.178 336.375 150.659C334.958 152.075 333.123 152.784 330.869 152.784Z" fill="white"/>
</g>
<defs>
<clipPath id="clip0_1342_9042">
<rect x="84" y="95" width="375" height="160.227" rx="2.27273" fill="white"/>
</clipPath>
</defs>
</svg>
