<svg xmlns="http://www.w3.org/2000/svg" width="164" height="96" viewBox="0 0 164 96" fill="none">
<g clip-path="url(#clip0_2546_14277)">
<path fill-rule="evenodd" clip-rule="evenodd" d="M47.4951 63.028H68.4816L73.0456 76.0294H83.1706L62.2764 20.7158L57.9935 32.9758L65.7586 55.2041H50.2283L47.4951 63.028Z" fill="#212121"/>
<path d="M90.6833 76V21.0182H98.5379V76H90.6833Z" fill="#212121"/>
<path fill-rule="evenodd" clip-rule="evenodd" d="M29.671 76.9719C45.491 76.9719 58.3156 64.1472 58.3156 48.3272C58.3156 32.5073 45.491 19.6826 29.671 19.6826C13.851 19.6826 1.02637 32.5073 1.02637 48.3272C1.02637 64.1472 13.851 76.9719 29.671 76.9719ZM29.6711 68.6611C40.9011 68.6611 50.0049 59.5574 50.0049 48.3273C50.0049 37.0973 40.9011 27.9936 29.6711 27.9936C18.4411 27.9936 9.33731 37.0973 9.33731 48.3273C9.33731 59.5574 18.4411 68.6611 29.6711 68.6611Z" fill="#212121"/>
<rect x="105.684" y="19.6367" width="57.6" height="57.6" rx="1.30909" fill="#B75400"/>
<path d="M131.192 69.709V39.9992H138.146V69.709H131.192ZM134.697 35.1032C133.398 35.1032 132.323 34.6952 131.47 33.8792C130.654 33.0632 130.246 32.0803 130.246 30.9304C130.246 29.7435 130.654 28.7606 131.47 27.9817C132.323 27.1657 133.398 26.7577 134.697 26.7577C135.995 26.7577 137.052 27.1472 137.868 27.9261C138.721 28.6679 139.148 29.6137 139.148 30.7635C139.148 31.9875 138.74 33.0261 137.924 33.8792C137.108 34.6952 136.032 35.1032 134.697 35.1032Z" fill="white"/>
</g>
<defs>
<clipPath id="clip0_2546_14277">
<rect x="0.5" width="163" height="95.5636" rx="1.30909" fill="white"/>
</clipPath>
</defs>
</svg>
