<svg xmlns="http://www.w3.org/2000/svg" width="55" height="55" viewBox="0 0 55 55" fill="none">
  <g clip-path="url(#clip0_3192_3239)">
    <path d="M43.4792 30.9101C43.1285 30.0782 42.7177 29.2807 42.2434 28.5193V14.6988C42.252 10.8058 40.6948 7.0624 37.9276 4.30552C35.1793 1.54005 31.4376 -0.0102614 27.5343 5.11207e-05C23.6293 -0.00854263 19.8893 1.54005 17.1324 4.30552C14.367 7.0538 12.8167 10.8041 12.827 14.6988V16.7132H18.7171V14.6988C18.7171 12.3544 19.6298 10.1338 21.3038 8.46833C22.9521 6.81318 25.1968 5.88161 27.5343 5.89021C32.3949 5.8988 36.3412 9.83818 36.3498 14.6988V22.7477C33.6737 21.1527 30.6109 20.3122 27.4965 20.3208C22.8954 20.3122 18.4817 22.1376 15.2315 25.3963C11.9745 28.6465 10.1492 33.0602 10.1577 37.6613C10.1492 42.2538 11.9745 46.6658 15.2315 49.9143C18.4817 53.173 22.8954 55.0087 27.4965 55.0087C32.0976 55.0087 36.5113 53.1816 39.7615 49.9229C43.0185 46.6727 44.8438 42.259 44.8352 37.6596C44.8352 35.3221 44.3798 33.0482 43.4757 30.9083L43.4792 30.9101ZM27.4999 49.1099C21.1887 49.1099 16.0513 43.9726 16.0513 37.6613C16.0513 31.3501 21.1887 26.2127 27.4999 26.2127C33.8112 26.2127 38.9485 31.3415 38.9485 37.6613C38.9485 43.9726 33.8112 49.1099 27.4999 49.1099ZM32.4156 37.7146C32.4156 44.1857 22.7012 44.1857 22.7012 37.7146C22.7012 31.2332 32.4156 31.2332 32.4156 37.7146Z" fill="black"/>
  </g>
  <defs>
    <clipPath id="clip0_3192_3239">
      <rect width="55" height="55" fill="white"/>
    </clipPath>
  </defs>
</svg>
