<svg width="48" height="48" viewBox="0 0 48 48" fill="none" xmlns="http://www.w3.org/2000/svg">
<path d="M47.7941 42.4065L40.7836 35.3959C43.4741 31.5966 44.8939 27.1334 44.8939 22.4471C44.8939 16.4513 42.559 10.8144 38.3193 6.57465C34.0796 2.33527 28.4427 0.000335693 22.4469 0.000335693H22.4468H22.4468C16.451 0.000335693 10.8142 2.33527 6.5745 6.57484C2.33484 10.8146 0 16.4515 0 22.4472C0 28.4429 2.33484 34.0799 6.5745 38.3196C10.8142 42.5592 16.451 44.8941 22.4468 44.8941H22.4468C22.4468 44.8941 22.4468 44.8941 22.4469 44.8941C27.1333 44.8941 31.5969 43.4743 35.3963 40.7835L42.4067 47.7939C42.5386 47.9257 42.7174 47.9998 42.9039 47.9998C43.0905 47.9998 43.2692 47.9257 43.4012 47.7939L47.7941 43.401C47.9259 43.2691 48 43.0903 48 42.9037C48 42.7172 47.9259 42.5385 47.7941 42.4065ZM40.8737 32.6161H37.9265C39.3746 29.6499 39.4805 26.1888 38.2436 23.1504H43.4751C43.3662 26.5041 42.4786 29.7217 40.8737 32.6161ZM40.0208 34.0222C39.9108 34.1886 39.7975 34.3533 39.6824 34.5172C39.479 34.496 39.268 34.5631 39.112 34.719L38.511 35.3201L37.2131 34.0222H40.0208ZM43.4745 21.7441H37.5554C37.0604 20.8856 36.447 20.0772 35.7137 19.3438C35.1131 18.7432 34.4621 18.2235 33.7747 17.7827C33.5682 15.8643 33.2329 14.0133 32.7827 12.2784H40.8616C42.4269 15.1019 43.3615 18.3205 43.4745 21.7441ZM40.0084 10.8721H32.3845C31.7476 8.79915 30.9402 6.92565 29.9894 5.3468C29.1508 3.95424 28.2138 2.8148 27.2112 1.95071C32.531 3.1869 37.0822 6.44734 40.0084 10.8721ZM23.1501 1.46012C25.1819 1.76396 27.1597 3.37402 28.7848 6.07234C29.6155 7.45177 30.3313 9.07543 30.9119 10.8721H23.1501V1.46012ZM23.1501 12.2784H31.3292C31.73 13.7561 32.0439 15.3297 32.2607 16.9653C29.3757 15.6769 26.0679 15.6261 23.1501 16.8141V12.2784ZM21.7438 1.45834V10.8722H13.9774C14.3809 9.62752 14.852 8.45884 15.3881 7.38652C17.1432 3.87634 19.3778 1.8024 21.7438 1.45834ZM17.1312 32.6161H13.5592C12.7772 29.7358 12.3382 26.5124 12.2843 23.1504H16.8141C15.5773 26.1886 15.6832 29.6498 17.1312 32.6161ZM12.2843 21.7441C12.3382 18.3821 12.7772 15.1587 13.5592 12.2784H21.7438V17.5024C20.8855 17.9973 20.0773 18.6106 19.3441 19.3438C18.6108 20.0771 17.9974 20.8855 17.5024 21.7441H12.2843ZM17.6603 1.95634C16.3501 3.09362 15.1545 4.70912 14.1303 6.75765C13.5014 8.0154 12.9578 9.39671 12.5037 10.8723H4.88541C7.80759 6.45352 12.3502 3.19637 17.6603 1.95634ZM4.03219 12.2784H12.1058C11.3523 15.1848 10.9298 18.4023 10.8779 21.7441H1.42453C1.42275 21.7441 1.42097 21.7443 1.41919 21.7443C1.53225 18.3207 2.46684 15.102 4.03219 12.2784ZM1.41928 23.15C1.42106 23.15 1.42284 23.1503 1.42463 23.1503H10.878C10.93 26.4919 11.3524 29.7094 12.1058 32.616H4.03219C2.46684 29.7925 1.53225 26.5737 1.41928 23.15ZM4.88541 34.0223H12.5037C12.9578 35.4979 13.5014 36.8792 14.1303 38.137C15.1545 40.1855 16.35 41.801 17.6603 42.9383C12.3502 41.6981 7.80759 38.4408 4.88541 34.0223ZM21.7438 43.4361C19.3779 43.0921 17.1432 41.018 15.3881 37.5078C14.852 36.4355 14.3809 35.2668 13.9774 34.0221H17.9465V34.0222C18.3509 34.6186 18.8162 35.1856 19.3441 35.7135C20.0773 36.4466 20.8854 37.0599 21.7438 37.5548V43.4361ZM20.3385 34.719C16.3736 30.7542 16.3736 24.3031 20.3385 20.3382C22.3208 18.3557 24.9248 17.3645 27.5288 17.3645C30.1328 17.3645 32.7368 18.3556 34.7192 20.3382C38.6841 24.303 38.6841 30.7542 34.7192 34.719C30.7545 38.6839 24.3033 38.6839 20.3385 34.719ZM23.1501 43.4361V38.2431C24.5498 38.813 26.0393 39.0982 27.5289 39.0982C27.9028 39.0982 28.2766 39.0801 28.6491 39.0442C27.0479 41.6197 25.1413 43.1446 23.1501 43.4361ZM34.7191 39.1119C34.5631 39.2679 34.496 39.4789 34.5173 39.6825C32.2914 41.246 29.8245 42.3455 27.2164 42.9476C28.405 41.9203 29.5001 40.5008 30.4576 38.7237C31.6865 38.4044 32.8726 37.8807 33.9616 37.1522L35.3201 38.5109L34.7191 39.1119ZM35.0904 36.2924C35.3034 36.1083 35.5116 35.9156 35.7137 35.7135C35.9158 35.5113 36.1085 35.3033 36.2925 35.0903L37.5166 36.3144L36.3145 37.5166L35.0904 36.2924ZM36.2107 39.6091L39.6093 36.2106L40.8111 37.4124L37.4125 40.8109L36.2107 39.6091ZM42.9039 46.3023L38.407 41.8053L41.8056 38.4068L46.3026 42.9037L42.9039 46.3023Z" fill="black" fill-opacity="0.87"/>
</svg>
