<svg width="48" height="48" viewBox="0 0 48 48" fill="none" xmlns="http://www.w3.org/2000/svg">
<path d="M38.4 19.2C43.6938 19.2 48 14.8938 48 9.6C48 4.30625 43.6938 0 38.4 0C34.5559 0 31.2414 2.27617 29.7098 5.54727L27.1391 4.59844C27.1695 4.40156 27.2 4.20469 27.2 4C27.2 1.79453 25.4055 0 23.2 0C20.9945 0 19.2 1.79453 19.2 4C19.2 6.20547 20.9945 8 23.2 8C24.6328 8 25.8824 7.23594 26.5887 6.10078L29.1551 7.04805C28.9297 7.8625 28.8 8.71523 28.8 9.6C28.8 10.648 28.9742 11.6543 29.2863 12.5992L20.4879 16.3281C18.877 13.2824 15.6793 11.2 12 11.2C10.8078 11.2 9.67031 11.4289 8.61602 11.8273L6.40313 7.17695C7.36719 6.4457 8 5.3 8 4C8 1.79453 6.20547 0 4 0C1.79453 0 0 1.79453 0 4C0 6.20547 1.79453 8 4 8C4.33281 8 4.65195 7.94727 4.96172 7.86953L7.17188 12.5152C4.32305 14.1824 2.4 17.2672 2.4 20.8C2.4 24.1184 4.09297 27.0473 6.65938 28.7719L5.19609 31.4023C4.81523 31.2824 4.41914 31.2 4 31.2C1.79453 31.2 0 32.9945 0 35.2C0 37.4055 1.79453 39.2 4 39.2C6.20547 39.2 8 37.4055 8 35.2C8 33.9887 7.44727 32.9145 6.59453 32.1809L8.06094 29.5449C9.26406 30.0895 10.5953 30.4 12 30.4C14.1953 30.4 16.2145 29.6512 17.8336 28.4062L20.9824 31.8703C19.3855 33.5855 18.4 35.877 18.4 38.4C18.4 38.8895 18.4488 39.3664 18.5191 39.8359L14.8145 40.7152C14.177 39.352 12.8016 38.4 11.2 38.4C8.99453 38.4 7.2 40.1945 7.2 42.4C7.2 44.6055 8.99453 46.4 11.2 46.4C13.4055 46.4 15.2 44.6055 15.2 42.4C15.2 42.3559 15.1879 42.3145 15.1871 42.2703L18.8848 41.3937C20.1457 45.2246 23.752 48 28 48C33.2938 48 37.6 43.6938 37.6 38.4C37.6 36.7586 37.1848 35.2129 36.4551 33.8609L41.1543 30.8055C41.8809 31.5414 42.8871 32 44 32C46.2055 32 48 30.2055 48 28C48 25.7945 46.2055 24 44 24C41.7945 24 40 25.7945 40 28C40 28.5168 40.1063 29.0078 40.2855 29.4617L35.5754 32.5238C34.6328 31.3121 33.409 30.3336 32 29.684L35.9047 18.8594C36.7016 19.0742 37.5359 19.2 38.4 19.2ZM23.2 6.4C21.877 6.4 20.8 5.32305 20.8 4C20.8 2.67695 21.877 1.6 23.2 1.6C24.523 1.6 25.6 2.67695 25.6 4C25.6 5.32305 24.523 6.4 23.2 6.4ZM1.6 4C1.6 2.67695 2.67695 1.6 4 1.6C5.32305 1.6 6.4 2.67695 6.4 4C6.4 5.32305 5.32305 6.4 4 6.4C2.67695 6.4 1.6 5.32305 1.6 4ZM4 37.6C2.67695 37.6 1.6 36.523 1.6 35.2C1.6 33.877 2.67695 32.8 4 32.8C5.32305 32.8 6.4 33.877 6.4 35.2C6.4 36.523 5.32305 37.6 4 37.6ZM11.2 44.8C9.87695 44.8 8.8 43.723 8.8 42.4C8.8 41.077 9.87695 40 11.2 40C12.523 40 13.6 41.077 13.6 42.4C13.6 43.723 12.523 44.8 11.2 44.8ZM44 25.6C45.323 25.6 46.4 26.677 46.4 28C46.4 29.323 45.323 30.4 44 30.4C42.677 30.4 41.6 29.323 41.6 28C41.6 26.677 42.677 25.6 44 25.6ZM33.6887 16.0512C34.0457 14.2008 35.677 12.8 37.6 12.8H39.2C41.123 12.8 42.7543 14.2008 43.1113 16.0512C41.7879 17.0199 40.1625 17.6 38.4 17.6C36.6375 17.6 35.0121 17.0199 33.6887 16.0512ZM38.4 11.2C37.077 11.2 36 10.123 36 8.8C36 7.47695 37.077 6.4 38.4 6.4C39.723 6.4 40.8 7.47695 40.8 8.8C40.8 10.123 39.723 11.2 38.4 11.2ZM38.4 1.6C42.8113 1.6 46.4 5.18867 46.4 9.6C46.4 11.6 45.6566 13.4273 44.4383 14.8313C43.8777 13.3551 42.709 12.177 41.2527 11.5953C41.9609 10.8734 42.4 9.88789 42.4 8.8C42.4 6.59453 40.6055 4.8 38.4 4.8C36.1945 4.8 34.4 6.59453 34.4 8.8C34.4 9.88789 34.8391 10.8734 35.5473 11.5953C34.091 12.177 32.9223 13.3551 32.3617 14.8313C31.1434 13.4273 30.4 11.6 30.4 9.6C30.4 5.18867 33.9887 1.6 38.4 1.6ZM4 20.8C4 16.3887 7.58867 12.8 12 12.8C16.4113 12.8 20 16.3887 20 20.8C20 22.8062 19.252 24.6383 18.0273 26.0441C17.4688 24.5625 16.2977 23.3785 14.8375 22.7953C15.5449 22.0734 15.984 21.0879 15.984 20C15.984 17.7945 14.1895 16 11.984 16C9.77852 16 7.98398 17.7945 7.98398 20C7.98398 21.0879 8.42305 22.0734 9.13125 22.7953C7.6793 23.3742 6.51211 24.548 5.94961 26.0184C4.73828 24.616 4 22.7945 4 20.8ZM9.58398 20C9.58398 18.677 10.6609 17.6 11.984 17.6C13.307 17.6 14.384 18.677 14.384 20C14.384 21.323 13.307 22.4 11.984 22.4C10.6609 22.4 9.58398 21.323 9.58398 20ZM7.27539 27.2406C7.63594 25.3953 9.26484 24 11.184 24H12.784C14.7105 24 16.3449 25.4055 16.6969 27.2617C15.3762 28.2246 13.7559 28.8 12 28.8C10.2312 28.8 8.60078 28.216 7.27539 27.2406ZM23.2754 44.8406C23.6359 42.9953 25.2648 41.6 27.184 41.6H28.784C30.7105 41.6 32.3449 43.0055 32.6969 44.8617C31.3762 45.8246 29.7559 46.4 28 46.4C26.2313 46.4 24.6008 45.816 23.2754 44.8406ZM27.984 40C26.6609 40 25.584 38.923 25.584 37.6C25.584 36.277 26.6609 35.2 27.984 35.2C29.307 35.2 30.384 36.277 30.384 37.6C30.384 38.923 29.307 40 27.984 40ZM36 38.4C36 40.4062 35.252 42.2383 34.0273 43.6441C33.4688 42.1625 32.2977 40.9785 30.8375 40.3953C31.5449 39.6734 31.984 38.6879 31.984 37.6C31.984 35.3945 30.1895 33.6 27.984 33.6C25.7785 33.6 23.984 35.3945 23.984 37.6C23.984 38.6879 24.423 39.6734 25.1313 40.3953C23.6793 40.9742 22.5121 42.148 21.9496 43.6184C20.7383 42.216 20 40.3945 20 38.4C20 33.9887 23.5887 30.4 28 30.4C32.4113 30.4 36 33.9887 36 38.4ZM30.4953 29.1406C29.6984 28.9258 28.8641 28.8 28 28.8C25.8047 28.8 23.7855 29.5488 22.1664 30.7938L19.0176 27.3297C20.6145 25.6145 21.6 23.323 21.6 20.8C21.6 19.752 21.4258 18.7457 21.1137 17.8008L29.9121 14.0719C30.8977 15.9352 32.4793 17.4305 34.4008 18.316L30.4953 29.1406Z" fill="black" fill-opacity="0.87"/>
</svg>
