<svg width="48" height="48" viewBox="0 0 48 48" fill="none" xmlns="http://www.w3.org/2000/svg">
<g clip-path="url(#clip0)">
<path d="M34.8028 15.4688H41.6504C42.2924 16.3221 43.3133 16.875 44.461 16.875C46.3996 16.875 47.9767 15.2979 47.9767 13.3594C47.9767 11.4208 46.3996 9.84375 44.461 9.84375C43.3133 9.84375 42.2924 10.3967 41.6504 11.2501C41.6497 11.2501 41.6492 11.25 41.6485 11.25H34.8029C34.5917 10.9693 34.3391 10.7216 34.0548 10.5149V8.0925L36.5692 5.57812H41.6166C42.2562 6.45778 43.2926 7.03125 44.461 7.03125C46.3996 7.03125 47.9767 5.45419 47.9767 3.51562C47.9767 1.57706 46.3995 0 44.4609 0C43.3346 0 42.331 0.532969 41.6873 1.35938H35.6953C35.1319 1.35938 34.6022 1.57875 34.2038 1.97719L30.4537 5.72719C30.0553 6.12563 29.8359 6.65531 29.8359 7.21875V10.5857C28.7774 11.3965 28.1927 12.9287 28.6204 14.3527L25.9176 17.9777C25.3056 17.78 24.6535 17.672 23.9766 17.672C20.4872 17.672 17.6484 20.5107 17.6484 24.0001C17.6484 27.4895 20.4872 30.3282 23.9766 30.3282C24.6421 30.3282 25.2836 30.2243 25.8866 30.0329L28.6162 33.6617C28.5259 33.9727 28.4766 34.3009 28.4766 34.6406C28.4766 35.7669 29.0095 36.7705 29.8359 37.4143V40.7812C29.8359 41.3447 30.0553 41.8744 30.4537 42.2728L34.2038 46.0228C34.6022 46.4212 35.1319 46.6406 35.6953 46.6406H41.6873C42.3311 47.467 43.3346 48 44.4609 48C46.3995 48 47.9766 46.4229 47.9766 44.4844C47.9766 42.5458 46.3995 40.9688 44.4609 40.9688C43.2925 40.9688 42.256 41.5422 41.6165 42.4219H36.5691L34.0547 39.9075V37.4851C34.3389 37.2784 34.5916 37.0307 34.8028 36.75H41.6504C42.2924 37.6033 43.3133 38.1562 44.461 38.1562C46.3996 38.1562 47.9767 36.5792 47.9767 34.6406C47.9767 32.7021 46.3996 31.125 44.461 31.125C43.3133 31.125 42.2924 31.6779 41.6504 32.5313C41.6497 32.5313 41.6492 32.5312 41.6485 32.5312H34.8029C34.1609 31.6779 33.1401 31.125 31.9923 31.125C31.9907 31.125 31.989 31.1251 31.9874 31.1251L29.2524 27.4892C29.5356 27.0625 29.7681 26.5998 29.942 26.1094H41.6485C41.6492 26.1094 41.6497 26.1093 41.6504 26.1093C42.2924 26.9627 43.3133 27.5156 44.461 27.5156C46.3996 27.5156 47.9767 25.9386 47.9767 24C47.9767 22.0614 46.3996 20.4844 44.461 20.4844C43.3133 20.4844 42.2924 21.0373 41.6504 21.8907C41.6497 21.8907 41.6492 21.8906 41.6485 21.8906H37.5673C37.179 21.8906 36.8642 22.2054 36.8642 22.5938C36.8642 22.9821 37.179 23.2969 37.5673 23.2969H41.0161C40.9469 23.6585 40.9067 24.1351 41.0161 24.7031H30.2647C30.3034 24.3352 30.3264 23.8707 30.2647 23.2969H34.1953C34.5836 23.2969 34.8984 22.9821 34.8984 22.5938C34.8984 22.2054 34.5836 21.8906 34.1953 21.8906H29.9419C29.7717 21.4108 29.5451 20.9578 29.2703 20.5388L32.0022 16.8748C33.1459 16.8715 34.1626 16.3195 34.8028 15.4688ZM44.4609 11.25C45.6241 11.25 46.5703 12.1962 46.5703 13.3594C46.5703 14.5225 45.6241 15.4688 44.4609 15.4688C43.2978 15.4688 42.3516 14.5225 42.3516 13.3594C42.3516 12.1962 43.2978 11.25 44.4609 11.25ZM35.437 12.6562H41.016C40.9468 13.0178 40.9066 13.4945 41.016 14.0625H35.437C35.4833 13.8352 35.5078 13.6001 35.5078 13.3594C35.5078 13.1186 35.4833 12.8835 35.437 12.6562ZM44.4609 1.40625C45.6241 1.40625 46.5703 2.35247 46.5703 3.51562C46.5703 4.67878 45.6241 5.625 44.4609 5.625C43.2978 5.625 42.3516 4.67878 42.3516 3.51562C42.3516 2.35247 43.2978 1.40625 44.4609 1.40625ZM44.4609 42.375C45.6241 42.375 46.5703 43.3212 46.5703 44.4844C46.5703 45.6475 45.6241 46.5938 44.4609 46.5938C43.2978 46.5938 42.3516 45.6475 42.3516 44.4844C42.3516 43.3212 43.2978 42.375 44.4609 42.375ZM44.4609 32.5312C45.6241 32.5312 46.5703 33.4775 46.5703 34.6406C46.5703 35.8038 45.6241 36.75 44.4609 36.75C43.2978 36.75 42.3516 35.8038 42.3516 34.6406C42.3516 33.4775 43.2978 32.5312 44.4609 32.5312ZM35.437 33.9375H41.016C40.9468 34.2991 40.9066 34.7757 41.016 35.3438H35.437C35.5062 34.9822 35.5464 34.5055 35.437 33.9375ZM44.4609 21.8906C45.6241 21.8906 46.5703 22.8368 46.5703 24C46.5703 25.1632 45.6241 26.1094 44.4609 26.1094C43.2978 26.1094 42.3516 25.1632 42.3516 24C42.3516 22.8368 43.2978 21.8906 44.4609 21.8906ZM31.2422 7.21875C31.2422 7.03097 31.3153 6.85444 31.4482 6.72159L35.1982 2.97159C35.331 2.83875 35.5075 2.76562 35.6953 2.76562H41.0267C40.9739 3.00741 40.9453 3.25819 40.9453 3.51562C40.9453 3.73997 40.9673 3.95916 41.0077 4.17188H36.2778C36.0913 4.17188 35.9124 4.24594 35.7806 4.37784L32.8544 7.30406C32.7225 7.43588 32.6484 7.61475 32.6484 7.80122V9.90609C32.2734 9.83934 31.8208 9.80784 31.2422 9.92513V7.21875ZM23.9766 28.9219C21.2626 28.9219 19.0547 26.714 19.0547 24C19.0547 21.286 21.2626 19.0781 23.9766 19.0781C26.6905 19.0781 28.8984 21.286 28.8984 24C28.8984 26.714 26.6905 28.9219 23.9766 28.9219ZM35.7806 43.6222C35.9124 43.7541 36.0913 43.8281 36.2778 43.8281H41.0077C40.9409 44.2031 40.9094 44.6558 41.0267 45.2344H35.6953C35.5075 45.2344 35.3309 45.1613 35.1982 45.0284L31.4482 41.2784C31.3153 41.1456 31.2422 40.969 31.2422 40.7812V38.0749C31.5905 38.1479 32.1008 38.1968 32.6484 38.0939V40.1988C32.6484 40.3853 32.7225 40.5641 32.8544 40.6959L35.7806 43.6222ZM31.9922 32.5312C33.1553 32.5312 34.1016 33.4775 34.1016 34.6406C34.1016 35.8038 33.1553 36.75 31.9922 36.75C30.829 36.75 29.8828 35.8038 29.8828 34.6406C29.8828 33.4775 30.829 32.5312 31.9922 32.5312ZM30.4838 31.4657C30.0545 31.6705 29.6733 31.9601 29.3611 32.3125L27.2017 29.4417C27.6068 29.2007 27.9825 28.9153 28.3229 28.593L30.4838 31.4657ZM28.3446 19.4277C28.0056 19.1037 27.6316 18.8162 27.2275 18.5732L29.3708 15.6987C29.6844 16.0497 30.067 16.3374 30.4974 16.5404L28.3446 19.4277ZM29.8828 13.3594C29.8828 12.1962 30.829 11.25 31.9922 11.25C33.1553 11.25 34.1016 12.1962 34.1016 13.3594C34.1016 14.5225 33.1553 15.4688 31.9922 15.4688C30.829 15.4688 29.8828 14.5225 29.8828 13.3594Z" fill="black" fill-opacity="0.87"/>
<path d="M22.2891 46.5938H21.3694C20.718 46.5938 20.1881 46.0639 20.1881 45.4125V43.3828C20.1881 42.2651 19.4755 41.2784 18.4151 40.9276C17.5974 40.6567 16.7929 40.3234 16.0238 39.9367C15.0238 39.4335 13.821 39.6263 13.031 40.4164L11.5947 41.8526C11.3716 42.0758 11.0749 42.1987 10.7592 42.1987C10.4436 42.1987 10.1468 42.0757 9.92362 41.8525L6.17025 38.1C5.71003 37.6391 5.71003 36.8892 6.16978 36.4289L7.60725 34.9925C8.39738 34.2022 8.59003 32.9995 8.08697 31.9997C7.70016 31.2306 7.36669 30.426 7.09594 29.6085C6.74503 28.5479 5.75831 27.8353 4.64062 27.8353H2.61094C1.95956 27.8353 1.42969 27.3054 1.42969 26.6541V21.3459C1.42969 20.6946 1.95956 20.1647 2.61094 20.1647H4.64062C5.75831 20.1647 6.74503 19.4521 7.09584 18.3917C7.36669 17.574 7.70006 16.7694 8.08678 16.0004C8.58994 15.0004 8.39728 13.7977 7.60687 13.0073L6.17025 11.5716C5.71003 11.1107 5.71003 10.3608 6.16997 9.90028L9.92344 6.14681C10.3844 5.6865 11.1343 5.6865 11.5945 6.14634L13.031 7.58372C13.8212 8.37375 15.024 8.56669 16.0238 8.06344C16.7929 7.67663 17.5974 7.34316 18.4149 7.0725C19.4755 6.72159 20.1881 5.73488 20.1881 4.61719V2.5875C20.1881 1.93613 20.718 1.40625 21.3694 1.40625H26.5837C27.1644 1.40625 27.6667 1.83825 27.752 2.41134C27.7575 2.44847 27.7525 2.4885 27.7375 2.52722L27.0247 4.37063C26.8847 4.73287 27.0648 5.14003 27.4269 5.28C27.7892 5.41997 28.1963 5.23997 28.3363 4.87781L29.0491 3.03441C29.1518 2.76872 29.1842 2.48156 29.1428 2.20397C28.9557 0.947438 27.8556 0 26.5837 0H21.3694C19.9426 0 18.7819 1.16072 18.7819 2.5875V4.61719C18.7819 5.12719 18.4569 5.57737 17.973 5.7375C17.0904 6.02981 16.222 6.38972 15.3918 6.80719C14.9347 7.03716 14.3857 6.94959 14.0255 6.5895L12.5887 5.15184C11.5799 4.14431 9.93844 4.14431 8.92941 5.15213L5.17528 8.90625C4.16775 9.91509 4.16775 11.5565 5.17575 12.5658L6.61275 14.0018C6.97303 14.3621 7.06059 14.9113 6.83063 15.3684C6.41316 16.1986 6.05325 17.067 5.76084 17.9498C5.60081 18.4335 5.15063 18.7584 4.64062 18.7584H2.61094C1.18416 18.7584 0.0234375 19.9192 0.0234375 21.3459V26.6541C0.0234375 28.0808 1.18416 29.2416 2.61094 29.2416H4.64062C5.15063 29.2416 5.60081 29.5665 5.76094 30.0504C6.05325 30.933 6.41316 31.8014 6.83063 32.6317C7.06059 33.0887 6.97303 33.6378 6.61294 33.998L5.17528 35.4347C4.16775 36.4435 4.16775 38.0849 5.17566 39.0941L8.92941 42.8468C9.93834 43.8559 11.58 43.8559 12.5891 42.8468L14.0254 41.4106C14.3857 41.0503 14.9348 40.9627 15.392 41.1928C16.2221 41.6103 17.0905 41.9702 17.9733 42.2626C18.457 42.4226 18.782 42.8728 18.782 43.3828V45.4125C18.782 46.8393 19.9427 48 21.3695 48H22.2892C22.6775 48 22.9923 47.6852 22.9923 47.2969C22.9923 46.9086 22.6774 46.5938 22.2891 46.5938Z" fill="black" fill-opacity="0.87"/>
<path d="M24.856 34.0327C24.6263 33.4337 24.0647 33.0219 23.4254 32.9835C18.6614 32.6976 14.9296 28.731 14.9296 23.9531C14.9296 19.1744 18.6622 15.2077 23.4271 14.9227C24.0645 14.8845 24.6255 14.4743 24.8562 13.8776L27.1522 7.94017C27.2922 7.57801 27.1121 7.17076 26.75 7.03079C26.3878 6.89073 25.9806 7.07082 25.8406 7.43298L25.0913 9.37088C24.7216 9.34313 24.3475 9.32823 23.9766 9.32823C15.8865 9.32823 9.30469 15.91 9.30469 24.0001C9.30469 27.3127 10.3821 30.4389 12.4203 33.0408C12.5589 33.2179 12.7656 33.3103 12.9742 33.3103C13.1259 33.3103 13.2787 33.2615 13.4074 33.1607C13.7131 32.9212 13.7667 32.4792 13.5273 32.1736C11.6848 29.8215 10.7109 26.9951 10.7109 24C10.7109 16.6854 16.6619 10.7344 23.9766 10.7344C24.1702 10.7344 24.3649 10.7387 24.5591 10.747L23.5447 13.3704C23.5118 13.4553 23.4328 13.5135 23.3433 13.5189C17.8368 13.8483 13.5234 18.4316 13.5234 23.9531C13.5234 29.4737 17.8359 34.0569 23.3412 34.3872C23.4311 34.3927 23.5104 34.4513 23.5431 34.5364L24.5844 37.2512C21.4617 37.4142 18.1931 36.3793 15.7289 34.3908C15.4249 34.1491 14.9826 34.1996 14.741 34.5037C14.4993 34.8077 14.5499 35.25 14.8538 35.4916C17.7437 37.7994 21.3808 38.9076 25.1127 38.6284L27.738 45.4725C27.7527 45.5109 27.7576 45.551 27.7521 45.5882C27.667 46.1615 27.1648 46.5938 26.5837 46.5938H25.5703C25.182 46.5938 24.8672 46.9086 24.8672 47.2969C24.8672 47.6852 25.182 48 25.5703 48H26.5837C27.8563 48 28.9567 47.0519 29.1431 45.7944C29.1841 45.5181 29.1522 45.2325 29.0509 44.9686L24.856 34.0327Z" fill="black" fill-opacity="0.87"/>
</g>
<defs>
<clipPath id="clip0">
<rect width="48" height="48" fill="white"/>
</clipPath>
</defs>
</svg>
