<svg xmlns="http://www.w3.org/2000/svg" viewBox="0 0 1920 1080"><style>.st0{fill:#2a3840}.st3{fill:#b75400}.st8{fill:#fff}.st13{display:none}.st19{fill:#6c757d}.st29{display:inline}.st47{display:none;fill:#2a3840}.st48{font-family:&apos;HelveticaNeue-Bold&apos;}.st49{font-size:28px}</style><g id="Layer_4"><text transform="translate(732.573 474.895)" class="st47 st48 st49">Companies</text><text transform="translate(732.573 663.895)" class="st47 st48 st49">Developers</text><text transform="translate(723.573 839.895)" class="st47 st48 st49">Researchers</text><g class="st13"><g class="st29"><path class="st3" d="M807.19 585.03c-1.09-.77-2.6-.52-3.38.58l-1.84 2.59c-19.77 27.89-58.44 34.56-86.16 14.91-9.9-7.02-17.73-16.96-22.18-27.97l9.18-.03c1.83-.01 2.99-1.95 2.13-3.56l-28.83-54.01c-.9-1.69-3.33-1.71-4.26-.03l-30.05 54.22c-.9 1.62.28 3.6 2.13 3.6l14.48-.05c5.48 21.96 19.13 41.91 37.97 55.27 42.83 30.37 102.46 20.08 132.96-22.92l1.84-2.59c.77-1.09.52-2.6-.57-3.38l-23.42-16.63zm9.64 20.57c-27.77 34.17-77.72 41.49-113.98 15.78-17.8-12.62-30.37-31.88-34.47-52.82l-.89-4.54-8.65.03 14.97-27.01 14.37 26.91-9.57.03 1.84 7c4.27 16.24 14.8 31.28 28.87 41.26 31.49 22.33 74.46 15.65 98.34-13.14l9.17 6.5zM826.42 587.41c.9 1.69 3.33 1.71 4.26.03l7.08-12.76 22.98-41.45c.9-1.62-.28-3.6-2.13-3.6l-14.48.05c-5.41-21.88-18.73-41.75-38.04-55.31-43.28-30.39-103.26-18.81-133.85 24.32l-.88 1.24a2.43 2.43 0 0 0 .57 3.38l23.44 16.62c1.09.77 2.6.52 3.38-.58l1.12-1.58c18.31-25.82 53.2-34.81 80.96-19.59 12.93 7.09 22.82 18.37 28.09 31.62l-9.2.03c-1.83.01-2.99 1.95-2.13 3.56l28.83 54.02zm-32.92-94.5c-31.36-22.24-74.63-15.98-98.64 12.92l-9.16-6.5c27.78-34.16 77.86-41.39 114.28-15.56 17.87 12.67 30 31.35 34.16 52.6l.89 4.54 8.65-.03-14.97 27.01-14.37-26.91 9.57-.03-1.84-7c-4.34-16.48-14.49-31.05-28.57-41.04z"/><circle class="st3" cx="751.51" cy="553.35" r="40.81"/></g><g class="st29"><path class="st19" d="M1567.48 505.56h17.12v17.12h-17.12zM1601.73 505.56h17.12v17.12h-17.12zM1567.48 539.81h17.12v17.12h-17.12zM1601.73 539.81h17.12v17.12h-17.12zM1670.23 548.37h17.12v17.12h-17.12zM1670.23 582.62h17.12v17.12h-17.12zM1498.98 548.37h17.12v17.12h-17.12zM1498.98 582.62h17.12v17.12h-17.12z"/><path class="st19" d="M1481.86 531.25h51.38v85.62h-51.37v-85.62zm-2.28-17.13h-6.28c-4.73 0-8.56 3.83-8.56 8.56v102.75c0 4.73 3.83 8.56 8.56 8.56h239.75c4.73 0 8.56-3.83 8.56-8.56V522.69c0-4.73-3.83-8.56-8.56-8.56h-59.94v-34.25c0-4.73-3.83-8.56-8.56-8.56H1541.8c-4.73 0-8.56 3.83-8.56 8.56v34.25H1479.58zm130.71 59.94h-34.25c-4.73 0-8.56 3.83-8.56 8.56v34.25h-17.12V488.43h85.62v128.44h-17.12v-34.25c-.01-4.73-3.84-8.56-8.57-8.56zm-8.56 17.12v25.69h-17.12v-25.69h17.12zm51.37 25.69v-85.62h51.37v85.62h-51.37z"/></g><g class="st29"><path class="st0" d="M247.16 562.49l.17.51c.23 12.55-3.85 22.76-12.23 30.63-8.38 7.87-19.72 11.8-34.04 11.8-14.48 0-26.25-4.87-35.31-14.61-9.06-9.74-13.59-22.19-13.59-37.36v-23.6c0-15.11 4.47-27.56 13.42-37.36s20.57-14.7 34.89-14.7c14.65 0 26.2 3.85 34.63 11.54 8.43 7.7 12.54 18.05 12.31 31.05l-.17.51h-20.02c0-8.35-2.26-14.85-6.77-19.51-4.52-4.66-11.17-6.99-19.98-6.99-8.46 0-15.18 3.35-20.15 10.04-4.97 6.7-7.45 15.09-7.45 25.2v23.75c0 10.22 2.54 18.67 7.62 25.37s11.94 10.04 20.57 10.04c8.58 0 15.08-2.29 19.51-6.88 4.43-4.59 6.65-11.07 6.65-19.45h19.94zM364.31 552.78c0 15.16-4.76 27.73-14.27 37.7-9.51 9.97-21.85 14.95-37.02 14.95-14.88 0-26.96-4.98-36.25-14.95-9.29-9.97-13.93-22.53-13.93-37.7v-22.32c0-15.11 4.64-27.66 13.93-37.66 9.29-10 21.34-14.99 36.17-14.99 15.16 0 27.52 5 37.06 14.99 9.54 10 14.31 22.55 14.31 37.66v22.32zm-20.62-22.49c0-10.34-2.77-18.83-8.31-25.47-5.54-6.65-13.02-9.97-22.45-9.97-9.09 0-16.27 3.32-21.55 9.97-5.28 6.65-7.92 15.14-7.92 25.47v22.49c0 10.45 2.64 19.01 7.92 25.69 5.28 6.67 12.5 10.01 21.64 10.01 9.48 0 16.97-3.32 22.45-9.97s8.22-15.22 8.22-25.73v-22.49zM407.41 552.19v51.46h-20.7V479.6h45.83c13.86 0 24.56 3.12 32.12 9.37 7.55 6.25 11.33 15.16 11.33 26.75 0 6.42-1.66 11.94-4.98 16.57-3.32 4.63-8.16 8.34-14.53 11.12 6.99 2.22 12.01 5.84 15.08 10.86 3.07 5.03 4.6 11.2 4.6 18.53v10.31c0 3.63.45 7.19 1.36 10.65.91 3.46 2.44 6.11 4.6 7.92v1.96h-21.3c-2.27-1.87-3.73-4.83-4.39-8.86-.65-4.03-.98-7.98-.98-11.84v-9.97c0-6.36-1.82-11.42-5.45-15.16-3.63-3.75-8.63-5.62-14.99-5.62h-27.6zm0-16.62h24.02c8.29 0 14.34-1.59 18.15-4.77 3.81-3.18 5.71-8.04 5.71-14.57 0-6.25-1.87-11.15-5.62-14.7-3.75-3.55-9.46-5.32-17.12-5.32h-25.13v39.36zM577.21 547.84h-54.27v39.19h62.96v16.61h-83.66V479.6h83.06v16.61h-62.36v35.01h54.27v16.62z"/></g><g class="st29"><path class="st3" d="M1358.71 567.19H934.22c-8.03 0-14.54-6.51-14.54-14.54s6.51-14.54 14.54-14.54h424.49c8.03 0 14.54 6.51 14.54 14.54s-6.51 14.54-14.54 14.54z"/><path class="st3" d="M1345.98 596.15l75.33-43.49-75.33-43.5z"/></g></g><path class="st3" d="M765.83 465.41c3.37 0 6.87.26 10.88.8l4.75 13.36 1.94 5.44 5.45 1.92a68.8 68.8 0 0 1 6.41 2.63l5.19 2.45 5.18-2.46 12.78-6.07a85.904 85.904 0 0 1 15.39 15.39l-6.07 12.78-2.46 5.18 2.45 5.19c.98 2.08 1.87 4.23 2.63 6.41l1.92 5.45 5.44 1.94 13.36 4.75c.53 3.99.79 7.5.79 10.88 0 3.38-.25 6.89-.79 10.88l-13.36 4.75-5.44 1.94-1.92 5.45c-.78 2.2-1.66 4.35-2.63 6.42l-2.45 5.19 2.46 5.18 6.07 12.77a86.232 86.232 0 0 1-15.39 15.39l-12.78-6.07-5.18-2.46-5.19 2.45c-2.06.97-4.21 1.86-6.41 2.63l-5.45 1.92-1.94 5.44-4.75 13.36c-3.94.53-7.52.79-10.88.79-3.36 0-6.94-.26-10.88-.79l-4.75-13.36-1.94-5.44-5.45-1.92a69.94 69.94 0 0 1-6.41-2.63l-5.19-2.45-5.18 2.46-12.78 6.07a86.232 86.232 0 0 1-15.39-15.39l6.07-12.77 2.46-5.18-2.44-5.19c-.99-2.09-1.87-4.26-2.64-6.43l-1.92-5.45-5.44-1.93-13.36-4.75c-.53-4-.79-7.5-.79-10.88 0-3.39.25-6.89.79-10.88l13.36-4.75 5.43-1.93 1.93-5.44c.79-2.22 1.67-4.38 2.63-6.41l2.46-5.19-2.47-5.19-6.07-12.78a86.232 86.232 0 0 1 15.39-15.39l12.78 6.07 5.18 2.46 5.19-2.45c2.05-.97 4.2-1.85 6.4-2.63l5.45-1.92 1.94-5.44 4.75-13.36c4.01-.55 7.52-.81 10.89-.81m0-12.12c-4.73 0-9.46.42-14.91 1.25a8.42 8.42 0 0 0-6.65 5.49l-5.5 15.47a78.57 78.57 0 0 0-7.55 3.1l-14.81-7.03a8.405 8.405 0 0 0-8.59.81 98.041 98.041 0 0 0-21.06 21.06 8.394 8.394 0 0 0-.82 8.59l7.04 14.81a78.57 78.57 0 0 0-3.1 7.55l-15.47 5.5a8.413 8.413 0 0 0-5.5 6.65c-.84 5.54-1.24 10.27-1.24 14.89 0 4.62.39 9.35 1.24 14.89a8.413 8.413 0 0 0 5.5 6.66l15.46 5.5c.92 2.6 1.96 5.12 3.1 7.55l-7.04 14.8a8.414 8.414 0 0 0 .82 8.59 98.088 98.088 0 0 0 21.07 21.06 8.416 8.416 0 0 0 4.98 1.64c1.23 0 2.46-.27 3.61-.82l14.8-7.03a79.64 79.64 0 0 0 7.55 3.1l5.5 15.47a8.42 8.42 0 0 0 6.65 5.49c5.44.84 10.31 1.24 14.9 1.24s9.46-.41 14.9-1.24a8.42 8.42 0 0 0 6.65-5.49l5.5-15.47a78.57 78.57 0 0 0 7.55-3.1l14.8 7.03a8.405 8.405 0 0 0 8.59-.81 98.495 98.495 0 0 0 21.06-21.06 8.412 8.412 0 0 0 .82-8.59l-7.04-14.8a79.64 79.64 0 0 0 3.1-7.55l15.46-5.5a8.413 8.413 0 0 0 5.5-6.66c.84-5.54 1.24-10.27 1.24-14.89s-.39-9.35-1.24-14.89a8.413 8.413 0 0 0-5.5-6.66l-15.46-5.5a79.64 79.64 0 0 0-3.1-7.55l7.04-14.81a8.414 8.414 0 0 0-.82-8.59 98.495 98.495 0 0 0-21.06-21.06 8.405 8.405 0 0 0-8.59-.81l-14.8 7.03a79.64 79.64 0 0 0-7.55-3.1l-5.5-15.47a8.42 8.42 0 0 0-6.65-5.49c-5.42-.83-10.15-1.25-14.88-1.25z"/><path class="st3" d="M765.82 510.52c-21.47 0-38.95 17.47-38.95 38.94s17.47 38.94 38.95 38.94c21.47 0 38.94-17.47 38.94-38.94s-17.46-38.94-38.94-38.94zm0 66.36c-15.12 0-27.41-12.3-27.41-27.41s12.3-27.41 27.41-27.41 27.41 12.3 27.41 27.41-12.29 27.41-27.41 27.41z"/><path class="st19" d="M1564.75 545.89c-31.08 0-56.37-30.01-56.37-66.91 0-31.15 6.41-66.91 56.37-66.91 49.96 0 56.37 35.76 56.37 66.91 0 36.9-25.29 66.91-56.37 66.91zm0-119.27c-34.99 0-41.83 19.2-41.83 52.37 0 28.88 18.76 52.37 41.83 52.37 23.06 0 41.83-23.49 41.83-52.37 0-33.17-6.85-52.37-41.83-52.37zM1472.04 635.92l-.03-6.15-7.27.12c-.01-.28-.02-.63-.01-1.02v-.05c.05-1.82.53-4.59 3.5-6.39l3.62-2.19 3.7 2.07c3.11 1.74 3.62 4.63 3.71 6.44h.01v.24c.01.24.01.47.01.66l-7.27.12.03 6.15zM1657.48 636.69l.01-5.28-7.28-.18c0-.38 0-.77.01-1.18v-.48h.02c.13-2.28.74-4.85 3.72-6.51l3.73-2.07 3.63 2.25c3.7 2.3 3.52 6.08 3.41 8.34l-7.26-.18.01 5.29z"/><path class="st19" d="M1564.75 670.5c-81.24 0-97.64-28.33-99.24-31.56l-.76-1.53-.01-7.59 5.1-.12-5.06-.41c.02-.37.05-1.48.1-4.03.54-28.92 2.91-48.4 13.43-62.44 10.15-13.54 26.48-21.05 58.26-26.79l4.31-.78 2.7 3.44c.19.22 6.48 7.5 21.17 7.5s20.98-7.29 21.24-7.6l2.7-3.44 4.24.87c61.23 11.05 70.76 30.38 71.72 91.11.04 2.3.06 3.33.08 3.67l-6.14.3 6.16.14v6.14l-.28.57-.03.63h-.29l-.16.33c-1.6 3.26-18 31.59-99.24 31.59zm-85.46-37.01c3.7 4.51 22.4 22.47 85.46 22.47 62.71 0 81.55-17.76 85.46-22.51l.09-2.22-.03-.29h-.05.05c-.13-1.23-.14-2.46-.16-3.55-.84-53.44-5.87-66.75-56.14-76.36-4.63 3.88-14.13 9.73-29.22 9.73s-24.59-5.85-29.22-9.73c-49.76 9.55-55.15 23.35-56.11 74.52-.02 1.24-.05 2.6-.19 3.94h.05-.05c-.01.06-.01.12-.02.18h.07l.01 3.82z"/><g><path class="st19" d="M1603.04 656.72c-1.92 0-3.85-.64-5.44-1.96l-32.85-27.27a8.524 8.524 0 0 1 0-13.12l32.85-27.27c3.62-3.01 9-2.51 12 1.12 3.01 3.62 2.51 9-1.11 12l-24.95 20.71 24.95 20.71a8.53 8.53 0 0 1 1.11 12.01 8.513 8.513 0 0 1-6.56 3.07z"/><path class="st8" d="M1603.04 585.13c2.45 0 4.88 1.05 6.57 3.08 3.01 3.62 2.51 9-1.11 12l-24.95 20.71 24.95 20.71a8.53 8.53 0 0 1-5.45 15.09c-1.92 0-3.85-.64-5.44-1.96l-32.85-27.27a8.524 8.524 0 0 1 0-13.12l32.85-27.27a8.45 8.45 0 0 1 5.43-1.97m0-9.69c-4.24 0-8.37 1.49-11.63 4.2l-32.85 27.27a18.169 18.169 0 0 0-6.58 14.02c0 5.43 2.4 10.54 6.58 14.02l32.86 27.27c3.26 2.71 7.39 4.2 11.63 4.2 5.44 0 10.54-2.4 14.02-6.58 3.11-3.75 4.58-8.48 4.13-13.33-.45-4.85-2.76-9.23-6.5-12.33l-15.96-13.25 15.96-13.25c3.74-3.11 6.06-7.49 6.51-12.33.45-4.85-1.01-9.58-4.12-13.32-3.5-4.19-8.61-6.59-14.05-6.59z"/><path class="st19" d="M1672.96 656.72a8.49 8.49 0 0 1-6.56-3.08c-3.01-3.62-2.51-9 1.11-12.01l24.95-20.71-24.95-20.71c-3.62-3.01-4.12-8.38-1.11-12 3.01-3.62 8.38-4.12 12-1.12l32.85 27.27a8.524 8.524 0 0 1 0 13.12l-32.85 27.27a8.515 8.515 0 0 1-5.44 1.97z"/><path class="st8" d="M1672.96 585.13c1.92 0 3.85.64 5.44 1.97l32.85 27.27a8.524 8.524 0 0 1 0 13.12l-32.85 27.27a8.495 8.495 0 0 1-5.44 1.97 8.49 8.49 0 0 1-6.56-3.08c-3.01-3.62-2.51-9 1.11-12.01l24.95-20.71-24.95-20.71c-3.62-3.01-4.12-8.38-1.11-12a8.469 8.469 0 0 1 6.56-3.09m0-9.69c-5.44 0-10.55 2.4-14.02 6.58-3.11 3.74-4.57 8.47-4.12 13.32.45 4.85 2.76 9.23 6.51 12.34l15.96 13.25-15.96 13.25c-7.73 6.41-8.8 17.92-2.38 25.65 3.48 4.18 8.59 6.58 14.02 6.58 4.24 0 8.37-1.49 11.63-4.2l32.85-27.27c4.19-3.47 6.59-8.58 6.59-14.02 0-5.44-2.4-10.55-6.59-14.02l-32.85-27.26c-3.27-2.71-7.4-4.2-11.64-4.2z"/><g><path class="st19" d="M1622.34 683.54c-.78 0-1.58-.11-2.37-.34a8.525 8.525 0 0 1-5.82-10.56l31.32-108.17c1.31-4.52 6.04-7.13 10.56-5.82 4.52 1.31 7.13 6.04 5.82 10.56l-31.32 108.17a8.538 8.538 0 0 1-8.19 6.16z"/><path class="st8" d="M1653.66 558.31c.78 0 1.58.11 2.37.34 4.52 1.31 7.13 6.04 5.82 10.56l-31.32 108.17c-1.08 3.73-4.49 6.15-8.19 6.15-.79 0-1.58-.11-2.37-.34a8.525 8.525 0 0 1-5.82-10.56l31.32-108.17c1.08-3.72 4.48-6.15 8.19-6.15m0-9.69c-8.06 0-15.25 5.41-17.5 13.15l-31.32 108.18c-2.79 9.65 2.78 19.77 12.43 22.57 1.65.48 3.36.72 5.07.72 8.06 0 15.25-5.41 17.5-13.15l31.32-108.18c2.79-9.65-2.79-19.77-12.43-22.57-1.66-.48-3.37-.72-5.07-.72z"/></g></g><g><path class="st0" d="M248.16 561.28l.17.51c.23 12.55-3.85 22.76-12.23 30.63-8.38 7.87-19.72 11.8-34.04 11.8-14.48 0-26.25-4.87-35.31-14.61-9.06-9.74-13.59-22.19-13.59-37.36v-23.6c0-15.11 4.47-27.56 13.42-37.36s20.57-14.7 34.89-14.7c14.65 0 26.2 3.85 34.63 11.54 8.43 7.7 12.54 18.05 12.31 31.05l-.17.51h-20.02c0-8.35-2.26-14.85-6.77-19.51-4.52-4.66-11.17-6.99-19.98-6.99-8.46 0-15.18 3.35-20.15 10.04-4.97 6.7-7.45 15.09-7.45 25.2v23.75c0 10.22 2.54 18.67 7.62 25.37s11.94 10.04 20.57 10.04c8.58 0 15.08-2.29 19.51-6.88 4.43-4.59 6.65-11.07 6.65-19.45h19.94zM365.31 551.57c0 15.16-4.76 27.73-14.27 37.7-9.51 9.97-21.85 14.95-37.02 14.95-14.88 0-26.96-4.98-36.25-14.95-9.29-9.97-13.93-22.53-13.93-37.7v-22.32c0-15.11 4.64-27.66 13.93-37.66 9.29-10 21.34-14.99 36.17-14.99 15.16 0 27.52 5 37.06 14.99 9.54 10 14.31 22.55 14.31 37.66v22.32zm-20.62-22.49c0-10.34-2.77-18.83-8.31-25.47s-13.02-9.97-22.45-9.97c-9.09 0-16.27 3.32-21.55 9.97-5.28 6.65-7.92 15.14-7.92 25.47v22.49c0 10.45 2.64 19.01 7.92 25.69 5.28 6.67 12.5 10.01 21.64 10.01 9.48 0 16.97-3.32 22.45-9.97s8.22-15.22 8.22-25.73v-22.49zM408.41 550.97v51.46h-20.7V478.39h45.83c13.86 0 24.56 3.12 32.12 9.37 7.55 6.25 11.33 15.16 11.33 26.75 0 6.42-1.66 11.94-4.98 16.57-3.32 4.63-8.16 8.34-14.53 11.12 6.99 2.22 12.01 5.84 15.08 10.86 3.07 5.03 4.6 11.2 4.6 18.53v10.31c0 3.63.45 7.19 1.36 10.65.91 3.46 2.44 6.11 4.6 7.92v1.96h-21.3c-2.27-1.87-3.73-4.83-4.39-8.86-.65-4.03-.98-7.98-.98-11.84v-9.97c0-6.36-1.82-11.42-5.45-15.16-3.63-3.75-8.63-5.62-14.99-5.62h-27.6zm0-16.61h24.02c8.29 0 14.34-1.59 18.15-4.77 3.81-3.18 5.71-8.04 5.71-14.57 0-6.25-1.87-11.15-5.62-14.7-3.75-3.55-9.46-5.32-17.12-5.32h-25.13v39.36zM578.21 546.63h-54.27v39.19h62.96v16.61h-83.66V478.39h83.06V495h-62.36v35.01h54.27v16.62z"/></g><g><path class="st3" d="M1358.71 565.98H934.22c-8.03 0-14.54-6.51-14.54-14.54s6.51-14.54 14.54-14.54h424.49c8.03 0 14.54 6.51 14.54 14.54s-6.51 14.54-14.54 14.54z"/><path class="st3" d="M1345.98 594.94l75.33-43.49-75.33-43.5z"/></g><g class="st13"><g class="st29"><path class="st3" d="M768.28 450.3c-38.83 0-68.11 15.14-68.11 35.21v135.56c0 20.08 29.28 35.21 68.11 35.21s68.11-15.13 68.11-35.21V485.51c0-20.07-29.28-35.21-68.11-35.21zm0 12.38c31.89 0 55.72 12.05 55.72 22.83 0 10.78-23.83 22.83-55.72 22.83s-55.72-12.05-55.72-22.83c0-10.78 23.83-22.83 55.72-22.83zm0 181.23c-31.89 0-55.72-12.06-55.72-22.84v-114.8c12.12 8.87 32.15 14.46 55.72 14.46s43.6-5.58 55.72-14.46v114.8c0 10.78-23.83 22.84-55.72 22.84z"/></g><g class="st29"><path class="st19" d="M1564.83 544.72c-31.08 0-56.37-30.01-56.37-66.91 0-31.15 6.41-66.91 56.37-66.91 49.96 0 56.37 35.76 56.37 66.91 0 36.89-25.29 66.91-56.37 66.91zm0-119.27c-34.99 0-41.83 19.2-41.83 52.37 0 28.88 18.76 52.37 41.83 52.37 23.06 0 41.83-23.49 41.83-52.37 0-33.17-6.85-52.37-41.83-52.37zM1472.11 634.75l-.02-6.14-7.27.12c-.01-.29-.02-.65-.01-1.05v-.02c.05-1.82.53-4.59 3.5-6.39l3.63-2.19 3.7 2.07c3.11 1.75 3.62 4.64 3.7 6.45h.01v.23c.01.25.01.47.01.67l-7.27.12.02 6.13zM1657.56 635.52l.01-5.28-7.28-.18c0-.38 0-.77.01-1.18v-.47h.02c.13-2.28.73-4.86 3.72-6.51l3.73-2.07 3.63 2.25c3.7 2.3 3.52 6.08 3.42 8.34l-7.26-.18v5.28z"/><path class="st19" d="M1564.83 669.33c-81.24 0-97.64-28.33-99.24-31.56l-.76-1.53-.01-7.59 5.1-.12-5.06-.41c.02-.37.05-1.48.1-4.03.54-28.92 2.91-48.4 13.43-62.44 10.15-13.54 26.48-21.05 58.26-26.79l4.31-.78 2.7 3.44c.19.22 6.48 7.5 21.17 7.5s20.98-7.29 21.24-7.6l2.7-3.44 4.24.87c61.23 11.05 70.76 30.38 71.72 91.11.04 2.3.06 3.33.08 3.67l-6.14.3 6.16.14v6.14l-.28.57-.03.63h-.29l-.16.32c-1.6 3.27-18 31.6-99.24 31.6zm-85.46-37.01c3.7 4.51 22.4 22.47 85.46 22.47 62.72 0 81.55-17.76 85.46-22.51l.09-2.22-.03-.29h-.05.05c-.13-1.23-.14-2.46-.16-3.55-.84-53.44-5.87-66.75-56.14-76.36-4.63 3.88-14.13 9.73-29.22 9.73-15.09 0-24.59-5.85-29.22-9.73-49.77 9.55-55.15 23.35-56.11 74.52-.02 1.24-.05 2.6-.19 3.94h.05-.05c-.01.06-.01.12-.02.18h.07l.01 3.82z"/><g><path class="st19" d="M1581.1 698.19c-14.42 14.51-32.63-7.8-20.31-20.19 12.32-12.4 45.89-46.16 45.89-46.16l20.31 20.19s-33.82 34.03-45.89 46.16z"/><path class="st8" d="M1557.05 703.36c-6.41-6.37-8.45-17.57-.79-25.28l52-52.31 24.75 24.61-1.11 1.11s-37.51 37.74-50.9 51.2c-4.03 4.05-8.34 5.71-12.37 5.71-4.43 0-8.53-2-11.58-5.04zm49.64-69.52L1561.8 679c-4.39 4.41-5.63 12.5.7 18.79 6.31 6.28 13.43 3.6 17.6-.59 10.84-10.89 39.21-39.44 44.89-45.16l-18.3-18.2z"/><path transform="rotate(-45.17 1622.226 636.406)" class="st19" d="M1611.93 626.16h20.83v20.46h-20.83z"/><path class="st8" d="M1601.99 636.61l20.46-20.58 20.26 20.15-20.46 20.58-20.26-20.15zm20.45-12.81l-12.69 12.76 12.5 12.43 12.69-12.76-12.5-12.43z"/><g><path class="st19" d="M1626.67 630.73c20.1 19.99 52.6 19.89 72.59-.22 19.98-20.1 19.89-52.6-.21-72.59-20.1-19.99-52.6-19.89-72.59.22-19.99 20.1-19.9 52.6.21 72.59zm12.32-60.13c13.1-13.18 34.41-13.24 47.59-.14 13.18 13.11 13.24 34.41.14 47.59-13.11 13.19-34.41 13.24-47.59.14-13.18-13.1-13.24-34.41-.14-47.59z"/><path class="st8" d="M1622.39 635.03c-10.87-10.81-16.89-25.2-16.93-40.54-.04-15.33 5.88-29.76 16.69-40.63 22.31-22.45 58.73-22.55 81.17-.24 10.87 10.81 16.88 25.2 16.93 40.54.04 15.33-5.88 29.76-16.69 40.63-10.81 10.87-25.2 16.89-40.54 16.93h-.18c-15.25 0-29.62-5.92-40.45-16.69zm5.07-75.9c-9.4 9.45-14.55 22-14.52 35.34s5.27 25.85 14.72 35.25c9.42 9.36 21.91 14.52 35.18 14.52h.15c13.33-.04 25.85-5.27 35.25-14.73 9.4-9.45 14.55-22 14.51-35.33-.04-13.33-5.27-25.85-14.72-35.25-9.72-9.66-22.45-14.49-35.19-14.49-12.81-.01-25.64 4.9-35.38 14.69zm10.67 60.06c-6.64-6.6-10.32-15.4-10.34-24.77-.03-9.37 3.59-18.18 10.2-24.83 13.63-13.71 35.88-13.78 49.6-.15 13.71 13.64 13.77 35.88.14 49.59-6.84 6.88-15.86 10.33-24.87 10.33-8.95.01-17.9-3.38-24.73-10.17zm4.64-44.84c-5.33 5.37-8.26 12.49-8.24 20.05.02 7.57 2.99 14.67 8.36 20.01l-.88.88.88-.88c11.08 11.01 29.05 10.96 40.06-.12 11.01-11.08 10.96-29.05-.12-40.06-5.52-5.48-12.75-8.22-19.97-8.22-7.28 0-14.57 2.78-20.09 8.34z"/></g></g></g><g class="st29"><path class="st0" d="M249.16 563.13l.17.51c.23 12.55-3.85 22.76-12.23 30.63-8.38 7.87-19.72 11.8-34.04 11.8-14.48 0-26.25-4.87-35.31-14.61-9.06-9.74-13.59-22.19-13.59-37.36v-23.6c0-15.11 4.47-27.56 13.42-37.36s20.57-14.7 34.89-14.7c14.65 0 26.2 3.85 34.63 11.54 8.43 7.7 12.54 18.05 12.31 31.05l-.17.51h-20.02c0-8.35-2.26-14.85-6.77-19.51-4.52-4.66-11.17-6.99-19.98-6.99-8.46 0-15.18 3.35-20.15 10.04-4.97 6.7-7.45 15.09-7.45 25.2v23.75c0 10.22 2.54 18.67 7.62 25.37s11.94 10.04 20.57 10.04c8.58 0 15.08-2.29 19.51-6.88 4.43-4.59 6.65-11.07 6.65-19.45h19.94zM366.31 553.42c0 15.16-4.76 27.73-14.27 37.7-9.51 9.97-21.85 14.95-37.02 14.95-14.88 0-26.96-4.98-36.25-14.95-9.29-9.97-13.93-22.53-13.93-37.7V531.1c0-15.11 4.64-27.66 13.93-37.66 9.29-10 21.34-14.99 36.17-14.99 15.16 0 27.52 5 37.06 14.99 9.54 10 14.31 22.55 14.31 37.66v22.32zm-20.62-22.49c0-10.34-2.77-18.83-8.31-25.47-5.54-6.65-13.02-9.97-22.45-9.97-9.09 0-16.27 3.32-21.55 9.97-5.28 6.65-7.92 15.14-7.92 25.47v22.49c0 10.45 2.64 19.01 7.92 25.69 5.28 6.67 12.5 10.01 21.64 10.01 9.48 0 16.97-3.32 22.45-9.97s8.22-15.22 8.22-25.73v-22.49zM409.41 552.82v51.46h-20.7V480.23h45.83c13.86 0 24.56 3.12 32.12 9.37 7.55 6.25 11.33 15.16 11.33 26.75 0 6.42-1.66 11.94-4.98 16.57-3.32 4.63-8.16 8.34-14.53 11.12 6.99 2.22 12.01 5.84 15.08 10.86 3.07 5.03 4.6 11.2 4.6 18.53v10.31c0 3.63.45 7.19 1.36 10.65.91 3.46 2.44 6.11 4.6 7.92v1.96h-21.3c-2.27-1.87-3.73-4.83-4.39-8.86-.65-4.03-.98-7.98-.98-11.84v-9.97c0-6.36-1.82-11.42-5.45-15.16-3.63-3.75-8.63-5.62-14.99-5.62h-27.6zm0-16.61h24.02c8.29 0 14.34-1.59 18.15-4.77 3.81-3.18 5.71-8.04 5.71-14.57 0-6.25-1.87-11.15-5.62-14.7-3.75-3.55-9.46-5.32-17.12-5.32h-25.13v39.36zM579.21 548.48h-54.27v39.19h62.96v16.61h-83.66V480.23h83.06v16.61h-62.36v35.01h54.27v16.63z"/></g><g class="st29"><path class="st3" d="M1361.71 567.83H937.22c-8.03 0-14.54-6.51-14.54-14.54s6.51-14.54 14.54-14.54h424.49c8.03 0 14.54 6.51 14.54 14.54s-6.51 14.54-14.54 14.54z"/><path class="st3" d="M1348.98 596.78l75.33-43.49-75.33-43.5z"/></g></g></g></svg>