<svg viewBox="0 0 1280 800" fill="none" xmlns="http://www.w3.org/2000/svg"><g clip-path="url(#clip0)"><path fill="#fff" d="M0 0h1280v800H0z"/><g filter="url(#filter0_d)"><path fill-rule="evenodd" clip-rule="evenodd" d="M237.5 71a6 6 0 0 1 6-6h913c3.31 0 6 2.686 6 6v552c0 3.314-2.69 6-6 6h-913a6 6 0 0 1-6-6V71z" fill="#DDE1E5"/><path d="M1156.5 64.75h-913a6.25 6.25 0 0 0-6.25 6.25v552a6.25 6.25 0 0 0 6.25 6.25h913c3.45 0 6.25-2.798 6.25-6.25V71c0-3.452-2.8-6.25-6.25-6.25z" stroke="#DEDEDE" stroke-width=".5"/></g><path d="M1174.5 40.75h-949a6.25 6.25 0 0 0-6.25 6.25v594a6.25 6.25 0 0 0 6.25 6.25h949c3.45 0 6.25-2.798 6.25-6.25V47c0-3.452-2.8-6.25-6.25-6.25z" fill="#DDE1E5" stroke="#DEDEDE" stroke-width=".5"/><mask id="a" maskUnits="userSpaceOnUse" x="219" y="40" width="962" height="608"><path d="M1174.5 40.75h-949a6.25 6.25 0 0 0-6.25 6.25v594a6.25 6.25 0 0 0 6.25 6.25h949c3.45 0 6.25-2.798 6.25-6.25V47c0-3.452-2.8-6.25-6.25-6.25z" fill="#fff" stroke="#fff" stroke-width=".5"/></mask><g mask="url(#a)"><path d="M243.275 62.623a5.756 5.756 0 1 1-11.513 0 5.756 5.756 0 0 1 11.513 0z" fill="#FF6058" stroke="#E14942" stroke-width=".5"/><path d="M262.495 62.623a5.756 5.756 0 1 1-11.512 0 5.756 5.756 0 0 1 11.512 0z" fill="#FFC130" stroke="#E1A325" stroke-width=".5"/><path d="M281.715 62.623a5.756 5.756 0 1 1-11.512 0 5.756 5.756 0 0 1 11.512 0z" fill="#27CA40" stroke="#3EAF3F" stroke-width=".5"/><path d="M293.978 62.209c0-4.48 0-6.72.871-8.432a7.998 7.998 0 0 1 3.497-3.496c1.711-.872 3.951-.872 8.432-.872H514.22c4.48 0 6.721 0 8.432.872a8.001 8.001 0 0 1 3.496 3.496c.872 1.711.872 3.951.872 8.432v20.234H293.978V62.21z" fill="#fff"/><path fill-rule="evenodd" clip-rule="evenodd" d="M507.099 61.922c.276-.277.686-.316.914-.087l2.74 2.74 2.74-2.74c.228-.229.637-.19.914.087.276.276.315.686.087.914l-2.74 2.74 2.739 2.74c.229.228.19.637-.086.913-.277.277-.686.316-.915.087l-2.739-2.74-2.74 2.74c-.228.229-.637.19-.914-.087-.276-.276-.315-.685-.087-.914l2.74-2.74-2.74-2.739c-.228-.228-.189-.638.087-.914z" fill="#737373"/><path fill-rule="evenodd" clip-rule="evenodd" d="M547.322 72.123c-.498 0-.901-.317-.901-.708v-4.643h-4.643c-.391 0-.708-.403-.708-.901s.317-.9.708-.9h4.643v-4.644c0-.39.403-.708.901-.708.497 0 .901.317.901.708v4.643h4.643c.391 0 .708.403.708.901s-.317.901-.708.901h-4.643v4.643c0 .39-.404.708-.901.708z" fill="#5F6367"/><path fill-rule="evenodd" clip-rule="evenodd" d="M219.5 81.843h961v36.037h-961V81.843z" fill="#fff"/><path fill-rule="evenodd" clip-rule="evenodd" d="M304.452 94.154c.187.066.392.158.616.28.489.268 1.014.654 1.569 1.177l1.756-1.756v4.805h-4.805l2.151-2.151c-.475-.447-.91-.766-1.301-.98a2.068 2.068 0 0 0-.596-.245c-2.027-.551-4.18.237-5.343 1.92a4.718 4.718 0 0 0-.593 1.189 4.615 4.615 0 0 0-.03 2.844 4.805 4.805 0 0 0 3.157 3.142c2.558.81 5.305-.555 6.136-3.05l1.224.388c-1.051 3.154-4.524 4.88-7.758 3.855-1.938-.614-3.408-2.104-3.989-3.97a5.84 5.84 0 0 1 .037-3.597 5.945 5.945 0 0 1 .749-1.502c1.471-2.129 4.192-3.125 6.755-2.427.049.01.145.036.265.079z" fill="#5F6367"/><path d="M235.258 99.328a.707.707 0 0 0 0 1.416h11.088a.708.708 0 0 0 0-1.416h-11.088z" fill="#737373"/><path d="M234.792 99.488a.708.708 0 0 0 .999 1.003l5.377-5.36a.709.709 0 0 0-1-1.002l-5.376 5.36z" fill="#737373"/><path d="M235.792 99.582a.708.708 0 1 0-.998 1.004l5.42 5.393a.707.707 0 1 0 .998-1.004l-5.42-5.392zM277.018 99.328a.708.708 0 1 1 0 1.416H265.93a.708.708 0 0 1 0-1.416h11.088z" fill="#737373"/><path d="M277.485 99.489a.708.708 0 1 1-1 1.002l-5.376-5.36a.708.708 0 0 1 1-1.002l5.376 5.36z" fill="#737373"/><path d="M276.484 99.582a.708.708 0 0 1 .999 1.004l-5.421 5.393a.707.707 0 1 1-.998-1.004l5.42-5.392z" fill="#737373"/><rect x="324.009" y="86.647" width="783.215" height="26.427" rx="9.5" fill="#F1F3F4"/><rect x="337.223" y="98.66" width="7.207" height="6.006" rx="1" fill="#5F6367"/><path fill-rule="evenodd" clip-rule="evenodd" d="M343.229 97.638c0-1.424-1.076-2.582-2.403-2.582-1.324 0-2.402 1.156-2.402 2.582v2.564c0 .485.355.86.793.86h3.218c.432 0 .794-.385.794-.86v-2.564zm-.794 2.566s-3.211.006-3.211-.002v-2.564c0-.951.72-1.724 1.602-1.724.883 0 1.602.773 1.602 1.724 0 0-.002 2.566.007 2.566z" fill="#5F6367"/><path d="M1089.52 103.465l-.28-.199-.29.199-4.04 2.808 1.43-4.705.1-.333-.28-.211-3.92-2.97 4.92-.1.35-.007.11-.328 1.62-4.644 1.61 4.644.11.328.35.007 4.92.1-3.92 2.97-.28.211.1.333 1.43 4.705-4.04-2.808z" stroke="#5F6367"/><path fill-rule="evenodd" clip-rule="evenodd" d="M1128.85 109.471c5.3 0 9.61-4.302 9.61-9.61 0-5.307-4.31-9.61-9.61-9.61a9.608 9.608 0 0 0-9.61 9.61c0 5.308 4.3 9.61 9.61 9.61z" fill="#E5E5E5"/><mask id="b" maskUnits="userSpaceOnUse" x="1119" y="90" width="20" height="20"><path fill-rule="evenodd" clip-rule="evenodd" d="M1128.85 109.471c5.3 0 9.61-4.302 9.61-9.61 0-5.307-4.31-9.61-9.61-9.61a9.608 9.608 0 0 0-9.61 9.61c0 5.308 4.3 9.61 9.61 9.61z" fill="#fff"/></mask><g mask="url(#b)"><path d="M1119.24 90.251h19.22v19.22h-19.22z"/></g><path fill-rule="evenodd" clip-rule="evenodd" d="M1158.96 96.558c.79 0 1.42-.634 1.42-1.416a1.414 1.414 0 1 0-2.83 0c0 .782.63 1.416 1.41 1.416zm0 4.719c.79 0 1.42-.634 1.42-1.416a1.414 1.414 0 1 0-2.83 0c0 .782.63 1.416 1.41 1.416zm1.42 3.303a1.414 1.414 0 1 1-2.83 0 1.414 1.414 0 1 1 2.83 0z" fill="#5F6367"/><path opacity=".9" d="M219.5 118h961v523c0 3.314-2.69 6-6 6h-949a6 6 0 0 1-6-6V118z" fill="#fff"/><path fill="#DEDEDE" d="M219.5 117.88h961v.601h-961z"/></g><path fill="#C4C4C4" d="M280.5 211h529v24h-529zM280.5 247h406v24h-406zM280.5 283h462v24h-462zM280.5 355h554v12h-554zM280.5 379h531v12h-531zM280.5 403h546v12h-546zM280.5 427h554v12h-554zM280.5 451h531v12h-531zM280.5 475h554v12h-554zM280.5 499h540v12h-540zM280.5 523h430v12h-430zM280.5 319h90v12h-90zM380.5 319h100v12h-100zM490.5 319h65v12h-65zM916.5 355h200v60h-200z"/><path d="M948.609 393v-17.062h5.977c2.07 0 3.641.398 4.711 1.195 1.07.789 1.605 1.949 1.605 3.48 0 .836-.214 1.575-.644 2.215-.43.633-1.028 1.098-1.793 1.395.875.218 1.562.66 2.062 1.324.508.664.762 1.476.762 2.437 0 1.641-.523 2.883-1.57 3.727-1.047.844-2.539 1.273-4.477 1.289h-6.633zm3.516-7.43v4.606h3.012c.828 0 1.472-.196 1.933-.586.469-.399.703-.945.703-1.641 0-1.562-.808-2.355-2.425-2.379h-3.223zm0-2.484h2.602c1.773-.031 2.66-.738 2.66-2.121 0-.774-.227-1.328-.68-1.664-.445-.344-1.152-.516-2.121-.516h-2.461v4.301zm24.727-7.148v11.238c0 1.867-.586 3.344-1.758 4.429-1.164 1.086-2.758 1.629-4.782 1.629-1.992 0-3.574-.527-4.746-1.582-1.171-1.054-1.769-2.504-1.793-4.347v-11.367h3.516v11.261c0 1.117.266 1.934.797 2.449.539.508 1.281.762 2.226.762 1.977 0 2.981-1.039 3.012-3.117v-11.355h3.528zm8.765 7.687l3.551-7.687h3.844l-5.602 10.874V393h-3.574v-6.188l-5.602-10.874h3.856l3.527 7.687zm18.763-6.422v3.117h2.17v2.485h-2.17v6.328c0 .469.09.805.27 1.008.18.203.52.304 1.03.304.37 0 .71-.027 1-.082v2.567c-.67.203-1.35.304-2.06.304-2.37 0-3.58-1.199-3.63-3.597v-6.832h-1.849v-2.485h1.849v-3.117h3.39zm3.17 9.34c0-1.258.25-2.379.73-3.363.49-.985 1.18-1.746 2.09-2.285.91-.54 1.97-.809 3.17-.809 1.71 0 3.11.523 4.19 1.57 1.08 1.047 1.69 2.469 1.81 4.266l.03.867c0 1.945-.55 3.508-1.63 4.688-1.09 1.171-2.55 1.757-4.37 1.757-1.83 0-3.29-.586-4.39-1.757-1.08-1.172-1.63-2.766-1.63-4.782v-.152zm3.39.246c0 1.203.23 2.125.68 2.766.45.633 1.1.949 1.95.949.82 0 1.46-.313 1.92-.938.46-.632.69-1.64.69-3.023 0-1.18-.23-2.094-.69-2.742-.46-.649-1.11-.973-1.95-.973-.83 0-1.47.324-1.92.973-.45.64-.68 1.637-.68 2.988zm23.23-.035h-2.8V393h-3.52v-17.062h6.34c2.02 0 3.57.449 4.67 1.347 1.09.899 1.64 2.168 1.64 3.809 0 1.164-.26 2.136-.77 2.918-.5.773-1.26 1.39-2.28 1.851l3.69 6.973V393h-3.77l-3.2-6.246zm-2.8-2.848h2.83c.89 0 1.57-.222 2.05-.668.49-.453.73-1.074.73-1.863 0-.805-.23-1.437-.69-1.898-.45-.461-1.15-.692-2.1-.692h-2.82v5.121zm22.08 1.699h-6.75v4.571h7.92V393h-11.44v-17.062h11.41v2.847h-7.89v4.067h6.75v2.753zm12.86 3.879h-6.16l-1.17 3.516h-3.74l6.35-17.062h3.26l6.38 17.062h-3.73l-1.19-3.516zm-5.21-2.847h4.26l-2.14-6.387-2.12 6.387zm11.73 6.363v-17.062h5.25c1.5 0 2.84.339 4.02 1.019 1.19.672 2.11 1.633 2.78 2.883.66 1.242.99 2.656.99 4.242v.785c0 1.586-.33 2.996-.98 4.231a6.982 6.982 0 0 1-2.76 2.871c-1.18.679-2.52 1.023-4.02 1.031h-5.28zm3.51-14.215v11.391h1.7c1.38 0 2.43-.449 3.16-1.348.72-.898 1.09-2.183 1.11-3.855v-.903c0-1.734-.36-3.047-1.08-3.937-.72-.899-1.77-1.348-3.15-1.348h-1.74z" fill="#757575"/><path fill="#C4C4C4" d="M916.5 427h200v60h-200z"/><path d="M963.609 460.523c0-.664-.234-1.171-.703-1.523-.468-.359-1.312-.734-2.531-1.125-1.219-.398-2.184-.789-2.895-1.172-1.937-1.047-2.906-2.457-2.906-4.23 0-.922.258-1.743.774-2.461.523-.727 1.269-1.293 2.238-1.7.976-.406 2.07-.609 3.281-.609 1.219 0 2.305.223 3.258.668.953.438 1.691 1.059 2.215 1.863.531.805.797 1.719.797 2.743h-3.516c0-.782-.246-1.387-.738-1.817-.492-.437-1.184-.656-2.074-.656-.86 0-1.528.184-2.004.551a1.702 1.702 0 0 0-.715 1.429c0 .555.277 1.02.832 1.395.562.375 1.387.726 2.473 1.055 2 .601 3.457 1.347 4.371 2.238.914.89 1.371 2 1.371 3.328 0 1.477-.559 2.637-1.676 3.48-1.117.836-2.621 1.254-4.512 1.254-1.312 0-2.508-.238-3.586-.714-1.078-.485-1.902-1.145-2.472-1.981-.563-.836-.844-1.805-.844-2.906h3.527c0 1.883 1.125 2.824 3.375 2.824.836 0 1.489-.168 1.957-.504.469-.344.703-.82.703-1.43zm18.832-12.585v11.238c0 1.867-.586 3.344-1.757 4.429-1.164 1.086-2.758 1.629-4.782 1.629-1.992 0-3.574-.527-4.746-1.582-1.172-1.054-1.769-2.504-1.793-4.347v-11.367h3.516v11.261c0 1.117.266 1.934.797 2.449.539.508 1.281.762 2.226.762 1.977 0 2.981-1.039 3.012-3.117v-11.355h3.527zM985.324 465v-17.062h5.977c2.07 0 3.64.398 4.711 1.195 1.07.789 1.605 1.949 1.605 3.48 0 .836-.215 1.575-.644 2.215-.43.633-1.028 1.098-1.793 1.395.875.218 1.562.66 2.062 1.324.508.664.762 1.476.762 2.437 0 1.641-.524 2.883-1.57 3.727-1.047.844-2.539 1.273-4.477 1.289h-6.633zm3.516-7.43v4.606h3.012c.828 0 1.472-.196 1.933-.586.469-.399.703-.945.703-1.641 0-1.562-.808-2.355-2.426-2.379h-3.222zm0-2.484h2.601c1.774-.031 2.661-.738 2.661-2.121 0-.774-.227-1.328-.68-1.664-.445-.344-1.152-.516-2.121-.516h-2.461v4.301zm20.66 5.437c0-.664-.23-1.171-.7-1.523-.47-.359-1.32-.734-2.53-1.125-1.22-.398-2.19-.789-2.9-1.172-1.94-1.047-2.91-2.457-2.91-4.23 0-.922.26-1.743.78-2.461.52-.727 1.27-1.293 2.24-1.7.97-.406 2.07-.609 3.28-.609 1.22 0 2.3.223 3.26.668.95.438 1.69 1.059 2.21 1.863.53.805.8 1.719.8 2.743h-3.52c0-.782-.24-1.387-.74-1.817-.49-.437-1.18-.656-2.07-.656-.86 0-1.53.184-2 .551-.48.359-.72.836-.72 1.429 0 .555.28 1.02.83 1.395.57.375 1.39.726 2.48 1.055 2 .601 3.45 1.347 4.37 2.238.91.89 1.37 2 1.37 3.328 0 1.477-.56 2.637-1.68 3.48-1.12.836-2.62 1.254-4.51 1.254-1.31 0-2.51-.238-3.59-.714-1.07-.485-1.9-1.145-2.47-1.981-.56-.836-.842-1.805-.842-2.906h3.522c0 1.883 1.13 2.824 3.38 2.824.84 0 1.49-.168 1.96-.504.47-.344.7-.82.7-1.43zm19.31-1.207c-.13 1.836-.81 3.282-2.04 4.336-1.22 1.055-2.82 1.582-4.82 1.582-2.19 0-3.91-.734-5.17-2.203-1.25-1.476-1.88-3.5-1.88-6.07v-1.043c0-1.641.29-3.086.87-4.336.58-1.25 1.4-2.207 2.47-2.871 1.08-.672 2.33-1.008 3.75-1.008 1.97 0 3.56.527 4.76 1.582 1.2 1.055 1.9 2.535 2.09 4.442h-3.52c-.09-1.102-.39-1.899-.93-2.391-.52-.5-1.32-.75-2.4-.75-1.17 0-2.05.422-2.63 1.266-.58.836-.88 2.136-.9 3.902v1.289c0 1.844.28 3.191.84 4.043.56.852 1.44 1.277 2.65 1.277 1.08 0 1.89-.246 2.42-.738.54-.5.85-1.27.93-2.309h3.51zm8.63-.562h-2.8V465h-3.52v-17.062h6.34c2.02 0 3.57.449 4.66 1.347 1.1.899 1.65 2.168 1.65 3.809 0 1.164-.26 2.136-.77 2.918-.5.773-1.26 1.39-2.28 1.851l3.69 6.973V465h-3.77l-3.2-6.246zm-2.8-2.848h2.83c.89 0 1.57-.222 2.05-.668.49-.453.73-1.074.73-1.863 0-.805-.23-1.437-.69-1.898-.45-.461-1.15-.692-2.1-.692h-2.82v5.121zm15.55 9.094h-3.52v-17.062h3.52V465zm3.27 0v-17.062h5.97c2.07 0 3.64.398 4.71 1.195 1.07.789 1.61 1.949 1.61 3.48 0 .836-.21 1.575-.64 2.215-.43.633-1.03 1.098-1.8 1.395.88.218 1.57.66 2.07 1.324.5.664.76 1.476.76 2.437 0 1.641-.53 2.883-1.57 3.727-1.05.844-2.54 1.273-4.48 1.289h-6.63zm3.51-7.43v4.606h3.01c.83 0 1.48-.196 1.94-.586.47-.399.7-.945.7-1.641 0-1.562-.81-2.355-2.42-2.379h-3.23zm0-2.484h2.6c1.78-.031 2.66-.738 2.66-2.121 0-.774-.22-1.328-.68-1.664-.44-.344-1.15-.516-2.12-.516h-2.46v4.301zm22.08 2.519h-6.75v4.571h7.92V465h-11.43v-17.062h11.41v2.847h-7.9v4.067h6.75v2.753z" fill="#757575"/><path fill="#B75400" d="M219.5 118h961v48h-961z"/><path d="M339.5 757C306 461.5 542 365 1180.5 282.5c-59.65-3.875-95.11-8.591-155-33-.33-34.387-5.4-40.984-23-45.5C666 306 668 342.5 99 401l240.5 356z" fill="url(#paint0_linear)"/><g filter="url(#filter1_d)"><path fill="#2EAB61" d="M1029.22 249.539h151.281v33.594H1029.22z"/></g><path d="M1054.88 270.593c-.41.472-.98.839-1.71 1.101-.74.258-1.55.387-2.45.387-.94 0-1.77-.2-2.48-.598a4.152 4.152 0 0 1-1.64-1.75c-.38-.763-.58-1.66-.59-2.69v-.722c0-1.059.18-1.975.55-2.748.36-.778.89-1.371 1.58-1.779.69-.413 1.5-.62 2.42-.62 1.29 0 2.3.302 3.03.904.72.598 1.15 1.471 1.29 2.618h-2.18c-.1-.608-.32-1.053-.67-1.335-.34-.282-.8-.422-1.4-.422-.76 0-1.34.279-1.74.838-.4.559-.6 1.39-.6 2.493v.678c0 1.113.21 1.954.65 2.523.43.568 1.06.853 1.9.853.84 0 1.44-.175 1.8-.525v-1.83h-2.04v-1.611h4.28v4.235zM1060.27 272.081c-1.18 0-2.15-.355-2.89-1.065-.75-.709-1.12-1.655-1.12-2.836v-.204c0-.792.16-1.499.47-2.121.32-.627.76-1.108 1.33-1.444.58-.34 1.24-.51 1.97-.51 1.11 0 1.97.34 2.61 1.021.63.68.95 1.645.95 2.894v.86h-5.14c.07.515.28.928.63 1.239.35.312.79.467 1.33.467.83 0 1.48-.294 1.95-.882l1.06 1.159c-.32.447-.76.797-1.31 1.05-.56.248-1.17.372-1.84.372zm-.25-6.474c-.42 0-.77.141-1.04.423-.26.282-.43.685-.51 1.21h3v-.168c-.01-.466-.14-.826-.39-1.079-.25-.257-.6-.386-1.06-.386zM1067.4 262.107v1.94h1.38v1.545h-1.38v3.937c0 .292.06.501.18.627.11.126.33.19.65.19.24 0 .45-.017.64-.051v1.596c-.43.127-.86.19-1.31.19-1.51 0-2.28-.746-2.31-2.238v-4.251h-1.18v-1.545h1.18v-1.94h2.15zM1080.47 267.597h-4.3v4.338h-2.24V261.32h7.08v1.772h-4.84v2.741h4.3v1.764zM1086.33 268.049h-1.79v3.886h-2.24V261.32h4.04c1.28 0 2.27.28 2.97.838.7.559 1.04 1.349 1.04 2.37 0 .724-.16 1.329-.48 1.815-.32.481-.8.865-1.46 1.152l2.36 4.338v.102h-2.41l-2.03-3.886zm-1.79-1.771h1.81c.56 0 1-.139 1.3-.416.31-.282.47-.668.47-1.159 0-.501-.15-.894-.44-1.181-.29-.287-.74-.43-1.34-.43h-1.8v3.186zM1098.6 267.335h-4.3v2.843h5.05v1.757h-7.29V261.32h7.27v1.772h-5.03v2.529h4.3v1.714zM1107.2 267.335h-4.3v2.843h5.04v1.757h-7.28V261.32h7.27v1.772h-5.03v2.529h4.3v1.714zM1113.51 271.935v-6.343h-1.2v-1.545h1.2v-.671c0-.885.26-1.57.77-2.056.53-.491 1.25-.736 2.19-.736.3 0 .66.048 1.1.146l-.03 1.633a2.733 2.733 0 0 0-.65-.066c-.81 0-1.22.372-1.22 1.115v.635h1.61v1.545h-1.61v6.343h-2.16zM1123.23 271.133c-.53.632-1.27.948-2.21.948-.86 0-1.53-.243-1.98-.729-.46-.486-.69-1.198-.7-2.136v-5.169h2.16v5.096c0 .821.38 1.232 1.15 1.232.73 0 1.23-.248 1.5-.744v-5.584h2.17v7.888h-2.03l-.06-.802zM1129.22 271.935h-2.16v-11.198h2.16v11.198zM1133.28 271.935h-2.16v-11.198h2.16v11.198zM1141.45 262.107v1.94h1.38v1.545h-1.38v3.937c0 .292.06.501.17.627.12.126.34.19.66.19.24 0 .45-.017.63-.051v1.596a4.5 4.5 0 0 1-1.3.19c-1.52 0-2.29-.746-2.32-2.238v-4.251h-1.18v-1.545h1.18v-1.94h2.16zM1147.75 272.081c-1.19 0-2.15-.355-2.9-1.065-.74-.709-1.11-1.655-1.11-2.836v-.204c0-.792.16-1.499.47-2.121a3.38 3.38 0 0 1 1.33-1.444c.58-.34 1.23-.51 1.97-.51 1.1 0 1.97.34 2.6 1.021.64.68.96 1.645.96 2.894v.86h-5.14c.07.515.28.928.62 1.239.36.312.8.467 1.34.467.83 0 1.48-.294 1.95-.882l1.06 1.159c-.33.447-.76.797-1.32 1.05-.55.248-1.16.372-1.83.372zm-.25-6.474c-.43 0-.77.141-1.04.423-.27.282-.44.685-.51 1.21h3v-.168c-.01-.466-.14-.826-.39-1.079-.25-.257-.6-.386-1.06-.386zM1155.37 266.401l1.36-2.354h2.31l-2.3 3.864 2.39 4.024h-2.31l-1.44-2.479-1.43 2.479h-2.32l2.39-4.024-2.29-3.864h2.31l1.33 2.354zM1162.66 262.107v1.94h1.38v1.545h-1.38v3.937c0 .292.05.501.17.627.11.126.33.19.65.19.24 0 .45-.017.64-.051v1.596c-.42.127-.86.19-1.31.19-1.51 0-2.28-.746-2.31-2.238v-4.251h-1.18v-1.545h1.18v-1.94h2.16z" fill="#fff"/><g filter="url(#filter2_d)" fill-rule="evenodd" clip-rule="evenodd"><path d="M976.5 247.618v35.79c0 3.088 2.563 5.592 5.723 5.592h45.787c3.16 0 5.72-2.504 5.72-5.592v-35.79c0-3.088-2.56-5.592-5.72-5.592h-1.14v-16.775c0-11.719-9.76-21.251-21.75-21.251-11.996 0-21.752 9.532-21.752 21.251v6.709c0 1.854 1.538 3.357 3.433 3.357 1.897 0 3.435-1.503 3.435-3.357v-6.709c0-8.018 6.675-14.54 14.884-14.54 8.2 0 14.88 6.522 14.88 14.54v16.775h-37.777c-3.16 0-5.723 2.504-5.723 5.592z" fill="#2EAB61"/><path d="M1017.33 252.758c-.01.285-.27.762-.41.99-.16.262-.31.41-.48.65-.17.244-.53.667-.76.878-.24.22-.35.41-.55.607-.48.462-1.32.727-1.95.857-.88.178-1.95.364-2.82.299-.44-.033-.98-.034-1.41-.147-.37-.096-.82-.09-1.2-.127-.41-.038-.76.021-1.14.044-.38.021-.46.083-.82.185l-.15-.322c.27-.158.62-.182.92-.326.29-.141.54-.302.79-.483.5-.357.88-.721 1.41-1.014 1.14-.622 2.48-.68 3.71-.7 1.62-.026 3.66-.084 4.86-1.391zm-11.16 25.107c.08-.026.69-.274 1.02-.495l.22-.117c.32.189.9.309 1.18.358.22.041.45.068.69.09.37.039.73.025 1.1-.003l.26-.028.23-.042.22-.077.12-.14-.06-.082c-.05-.051-.23-.091-1.05-1.052l-.03-.039a7.762 7.762 0 0 1-.92-1.324c-.6-1.074-.93-2.232-1.18-3.223-.47-1.884-.49-4.813.98-6.871.37-.533.88-1.046 1.42-1.445.16-.12 1.76-.995 2.29-1.152l.12-.043.11-.034.06-.019c-.02-.595-.45-.942-1.13-.942-.4 0-.89.123-1.26.319-.5.259-.61.155-1.01-.215l-.04-.039c-.18-.172-.35-.252-.51-.252-.22 0-.41.159-.64.369-.18.172-.35.254-.52.254-.2 0-.41-.129-.63-.267-.28-.178-.6-.383-1.01-.335-.4.044-.61.321-.8.566-.17.229-.29.37-.47.37-.12 0-.26-.052-.43-.156l-.19-.124c-.4-.259-.71-.463-1.22-.463l-.29.018c-.27.036-.63.11-.91.383l-.26.397-.16.271-.02.021a8.78 8.78 0 0 1-.57-.375c-.53-.356-1.018-.694-1.777-.751a13.435 13.435 0 0 0-.977-.047c-.292 0-.55.019-.793.056-.011.002-1.348.422-1.427.722l.058.169c.479.369 1.006.684 1.515.984l.217.13c.5.298 1.026.622 1.497 1.024 1.017.865 1.587 2.137 1.757 3.888.09.948.17 2.049.02 3.11-.17 1.134-.47 2.662-1.176 3.607l-.135.166-.257.256c-.263.223-.524.466-.777.702-.383.356-.78.725-1.192 1.031l.008.123.066.071c.111.045.441.157.663.247.195.077.319.127.373.142.622.181 1.164.26 1.677.243.6-.021 1.06-.333 1.51-.635.22-.147.45-.301.69-.414l.1.086.01.004c.22.185.61.512.67.552.42.262.79.431 1.18.533.25.065.51.097.78.097.34 0 .68-.052 1.01-.158zm-8.566-.269c1.101 1.957 4.196 2.389 6.236 2.439.78.018 1.56-.03 2.33-.127.41-.053.8-.166 1.23-.285.72-.2 1.45-.419 2.13-.73.62-.278 1.48-.566 1.67-1.327-.33.53-2.99.23-3.39.041-.25-.12-.23-.161-.43.034-.64.603-1.76.795-2.59.644-.67-.122-1.58-.63-2.12-1.041-.21-.158-.11-.239-.4-.107-.65.295-1.11.693-1.85.811-.781.124-1.503-.011-2.37-.388-.216-.093-.303-.104-.547-.263l.101.299zm6.916-25.252c-.23-.291-.5-.177-.86-.16-.19.518-.01.959.08 1.396.11.484.2.98.29 1.435.1.482.14.983.16 1.514.02.259.03.553-.03.798-.05.222-.2.372-.25.592.45-.014.93-.005 1.39-.028 0-.222-.15-.437-.2-.646-.06-.24-.02-.471-.05-.716-.05-.412-.15-.815-.19-1.252-.11-.968-.28-1.94-.34-2.933zm-8.525 9.287c1.303-1.729 3.452-2.35 5.475-2.897 1.03-.277 1.89-.449 2.98-.449.94-.002 1.87.217 2.79.398.93.181 1.88.322 2.71.812.52.314 1.15.482 1.68.802.18.109.8.254.72.518-.11.375-1.04.02-1.33.166-.32.158-.74.449-1.1.35-.35-.098-.44-.499-.83-.536-.6-.058-.71.558-1.31.514-.45-.032-.97-.582-1.42-.553-.44.025-.9.477-1.22.71-.59.423-.84-.169-1.34-.363-.3-.116-.42-.149-.75-.149-.82.002-1.32.357-1.79.997.16-.217-.89-.701-.99-.73-.443-.118-.898-.296-1.351-.304-1.145-.018-1.952.014-2.924.714z" fill="#FFFFFE"/></g><g filter="url(#filter3_d)"><path fill="#FAFAFA" d="M99.5 400h240v360h-240z"/><path stroke="#CBCBCB" d="M100 400.5h239v359H100z"/></g><path fill="#C4C4C4" d="M144.5 455h150v12h-150zM129.5 473h180v12h-180zM124.5 497h90v6h-90zM124.5 509h90v6h-90zM124.5 521h90v6h-90zM124.5 533h90v6h-90zM124.5 545h90v6h-90zM124.5 557h90v6h-90zM124.5 569h90v6h-90zM124.5 581h90v6h-90zM124.5 593h90v6h-90zM124.5 605h90v6h-90zM124.5 617h90v6h-90zM124.5 629h90v6h-90zM124.5 641h90v6h-90zM124.5 653h90v6h-90zM124.5 665h90v6h-90zM124.5 677h90v6h-90zM124.5 689h90v6h-90zM124.5 701h90v6h-90zM224.5 497h90v6h-90zM224.5 509h90v6h-90zM224.5 521h90v6h-90zM224.5 533h90v6h-90zM224.5 545h90v6h-90zM224.5 557h90v6h-90zM224.5 629h90v6h-90zM224.5 641h90v6h-90zM224.5 653h90v6h-90zM224.5 665h90v6h-90zM224.5 677h90v6h-90zM224.5 689h90v6h-90zM224.5 701h90v6h-90z"/><path fill="#B75400" d="M224.5 587h12v33h-12zM243.5 569h12v51h-12zM263.5 593h12v27h-12zM282.5 581h12v39h-12zM301.5 607h12v13h-12z"/><path d="M1013.64 309.915c-.75-.997-1.49-2.742-2.99-4.984-.75-1.246-2.99-3.738-3.74-4.735-.5-.997-.5-1.496-.25-2.492.25-1.496 1.75-2.742 3.49-2.742 1.25 0 2.49.997 3.49 1.745.5.498 1.25 1.495 1.75 1.993.49.499.49.748.99 1.246.5.748.75 1.247.5.25-.25-1.246-.5-3.24-1-5.234-.24-1.495-.49-1.744-.74-2.741-.25-1.246-.5-1.994-.75-3.24-.25-.747-.5-2.741-.75-3.738-.25-1.246-.25-3.488.75-4.485.75-.748 2.24-.997 3.24-.499 1.24.748 1.99 2.492 2.24 3.24.5 1.246 1 2.99 1.25 4.984.5 2.492 1.24 6.23 1.24 6.978 0-.997-.25-2.741 0-3.738.25-.748.75-1.745 1.75-1.994.75-.249 1.49-.249 2.24-.249.75.249 1.5.747 1.99 1.246 1 1.495 1 4.735 1 4.486.25-.997.25-2.991.75-3.988.25-.498 1.24-.997 1.74-1.246.75-.249 1.75-.249 2.5 0 .49 0 1.49.748 1.74 1.246.5.748.75 3.24 1 4.237 0 .249.25-.997.74-1.745 1-1.495 4.49-1.993 4.74 1.496v5.731c0 .997-.25 3.24-.5 4.237-.25.747-1 2.492-1.74 3.489 0 0-2.74 2.99-2.99 4.485-.25 1.496-.25 1.496-.25 2.492 0 .997.25 2.243.25 2.243s-2 .249-2.99 0c-1-.249-2.25-1.993-2.5-2.741-.5-.748-1.24-.748-1.74 0-.5.997-1.75 2.741-2.74 2.741-1.75.249-5.24 0-7.73 0 0 0 .5-2.492-.5-3.489-.74-.747-1.99-1.993-2.74-2.741l-2.74-1.744z" fill="#fff"/><path d="M1013.64 309.915c-.75-.997-1.49-2.742-2.99-4.984-.75-1.246-2.99-3.738-3.74-4.735-.5-.997-.5-1.496-.25-2.492.25-1.496 1.75-2.742 3.49-2.742 1.25 0 2.49.997 3.49 1.745.5.498 1.25 1.495 1.75 1.993.49.499.49.748.99 1.246.5.748.75 1.247.5.25-.25-1.246-.5-3.24-1-5.234-.24-1.495-.49-1.744-.74-2.741-.25-1.246-.5-1.994-.75-3.24-.25-.747-.5-2.741-.75-3.738-.25-1.246-.25-3.488.75-4.485.75-.748 2.24-.997 3.24-.499 1.24.748 1.99 2.492 2.24 3.24.5 1.246 1 2.99 1.25 4.984.5 2.492 1.24 6.23 1.24 6.978 0-.997-.25-2.741 0-3.738.25-.748.75-1.745 1.75-1.994.75-.249 1.49-.249 2.24-.249.75.249 1.5.747 1.99 1.246 1 1.495 1 4.735 1 4.486.25-.997.25-2.991.75-3.988.25-.498 1.24-.997 1.74-1.246.75-.249 1.75-.249 2.5 0 .49 0 1.49.748 1.74 1.246.5.748.75 3.24 1 4.237 0 .249.25-.997.74-1.745 1-1.495 4.49-1.993 4.74 1.496v5.731c0 .997-.25 3.24-.5 4.237-.25.747-1 2.492-1.74 3.489 0 0-2.74 2.99-2.99 4.485-.25 1.496-.25 1.496-.25 2.492 0 .997.25 2.243.25 2.243s-2 .249-2.99 0c-1-.249-2.25-1.993-2.5-2.741-.5-.748-1.24-.748-1.74 0-.5.997-1.75 2.741-2.74 2.741-1.75.249-5.24 0-7.73 0 0 0 .5-2.492-.5-3.489-.74-.747-1.99-1.993-2.74-2.741l-2.74-1.744z" stroke="#000" stroke-width="2" stroke-linecap="round" stroke-linejoin="round"/><path d="M1034.33 310.662v-8.473M1029.34 310.662l-.25-8.473M1024.36 302.189v8.473" stroke="#000" stroke-width="2" stroke-linecap="round"/></g><defs><filter id="filter0_d" x="152" y="-10.5" width="1096" height="735" filterUnits="userSpaceOnUse" color-interpolation-filters="sRGB"><feFlood flood-opacity="0" result="BackgroundImageFix"/><feColorMatrix in="SourceAlpha" values="0 0 0 0 0 0 0 0 0 0 0 0 0 0 0 0 0 0 127 0"/><feOffset dy="10"/><feGaussianBlur stdDeviation="42.5"/><feColorMatrix values="0 0 0 0 0 0 0 0 0 0 0 0 0 0 0 0 0 0 0.3 0"/><feBlend in2="BackgroundImageFix" result="effect1_dropShadow"/><feBlend in="SourceGraphic" in2="effect1_dropShadow" result="shape"/></filter><filter id="filter1_d" x="1025.22" y="249.539" width="159.281" height="41.594" filterUnits="userSpaceOnUse" color-interpolation-filters="sRGB"><feFlood flood-opacity="0" result="BackgroundImageFix"/><feColorMatrix in="SourceAlpha" values="0 0 0 0 0 0 0 0 0 0 0 0 0 0 0 0 0 0 127 0"/><feOffset dy="4"/><feGaussianBlur stdDeviation="2"/><feColorMatrix values="0 0 0 0 0 0 0 0 0 0 0 0 0 0 0 0 0 0 0.25 0"/><feBlend in2="BackgroundImageFix" result="effect1_dropShadow"/><feBlend in="SourceGraphic" in2="effect1_dropShadow" result="shape"/></filter><filter id="filter2_d" x="972.5" y="204" width="65.232" height="93" filterUnits="userSpaceOnUse" color-interpolation-filters="sRGB"><feFlood flood-opacity="0" result="BackgroundImageFix"/><feColorMatrix in="SourceAlpha" values="0 0 0 0 0 0 0 0 0 0 0 0 0 0 0 0 0 0 127 0"/><feOffset dy="4"/><feGaussianBlur stdDeviation="2"/><feColorMatrix values="0 0 0 0 0 0 0 0 0 0 0 0 0 0 0 0 0 0 0.25 0"/><feBlend in2="BackgroundImageFix" result="effect1_dropShadow"/><feBlend in="SourceGraphic" in2="effect1_dropShadow" result="shape"/></filter><filter id="filter3_d" x="83.5" y="388" width="272" height="392" filterUnits="userSpaceOnUse" color-interpolation-filters="sRGB"><feFlood flood-opacity="0" result="BackgroundImageFix"/><feColorMatrix in="SourceAlpha" values="0 0 0 0 0 0 0 0 0 0 0 0 0 0 0 0 0 0 127 0"/><feOffset dy="4"/><feGaussianBlur stdDeviation="8"/><feColorMatrix values="0 0 0 0 0 0 0 0 0 0 0 0 0 0 0 0 0 0 0.15 0"/><feBlend in2="BackgroundImageFix" result="effect1_dropShadow"/><feBlend in="SourceGraphic" in2="effect1_dropShadow" result="shape"/></filter><linearGradient id="paint0_linear" x1="212" y1="753" x2="1180.5" y2="251.5" gradientUnits="userSpaceOnUse"><stop stop-color="#C4C4C4" stop-opacity=".59"/><stop offset="1" stop-color="#C4C4C4" stop-opacity="0"/></linearGradient><clipPath id="clip0"><path fill="#fff" d="M0 0h1280v800H0z"/></clipPath></defs></svg>
