<svg width="324" height="323" viewBox="0 0 324 323" fill="none" xmlns="http://www.w3.org/2000/svg">
    <path d="M264.547 286.571L206.313 271.643H261.286L320.848 286.571H264.547Z" fill="#B75400"/>
    <path d="M57.0668 286.571L115.301 271.643H60.3352L0.765503 286.571H57.0668Z" fill="#B75400"/>
    <path d="M163.494 224.472C163.494 224.472 163.439 224.197 163.353 223.686" stroke="#212121" stroke-width="0.805" stroke-miterlimit="10"/>
    <path d="M163.094 222.146C162.253 216.701 160.831 203.117 166.165 197.052C172.93 189.376 181.038 195.952 203.634 197.052C226.23 198.152 237.858 194.86 238.094 175.485C238.329 156.11 225.075 154.83 225.075 154.83H216.7" stroke="#212121" stroke-width="0.805" stroke-miterlimit="10" stroke-dasharray="1.62 1.62"/>
    <path d="M215.906 154.861H215.121" stroke="#212121" stroke-width="0.805" stroke-miterlimit="10"/>
    <path d="M215.121 95.3463H215.906" stroke="#212121" stroke-width="0.805" stroke-miterlimit="10"/>
    <path d="M217.478 95.3463H245.762C245.762 95.3463 254.286 96.0849 253.933 105.921C253.579 115.758 239.398 124.974 240.301 144.616C241.205 164.258 274.722 161.327 279.286 180.992C283.851 200.658 250.319 199.676 247.2 209.827C246.219 212.102 245.737 214.562 245.785 217.039C245.785 220.339 245.785 228.18 245.785 231.535" stroke="#212121" stroke-width="0.805" stroke-miterlimit="10" stroke-dasharray="1.61 1.61"/>
    <path d="M245.785 232.328V233.114" stroke="#212121" stroke-width="0.805" stroke-miterlimit="10"/>
    <path d="M111.003 39.6738H110.218" stroke="#212121" stroke-width="0.805" stroke-miterlimit="10"/>
    <path d="M108.654 39.6737H94.8026C94.8026 39.6737 57.0903 39.2416 57.0903 71.1006C57.0903 85.8477 62.2129 96.8706 77.3921 114.988C92.5713 133.106 92.3199 189.737 87.3859 199.896C82.4518 210.055 71.9867 208.538 68.3097 214.038C68.3097 214.038 65.662 216.811 65.4342 220.198C65.2535 222.861 65.3556 231.59 65.4342 235.173" stroke="#212121" stroke-width="0.805" stroke-miterlimit="10" stroke-dasharray="1.6 1.6"/>
    <path d="M65.395 235.997C65.395 236.492 65.395 236.783 65.395 236.783" stroke="#212121" stroke-width="0.805" stroke-miterlimit="10"/>
    <path d="M119.481 80.6935C117.783 80.6961 116.117 81.1459 114.649 81.9978C114.784 81.2432 114.853 80.4781 114.853 79.7115C114.856 76.3817 113.614 73.1711 111.373 70.709C109.131 68.2469 106.051 66.7109 102.735 66.4021C99.42 66.0933 96.1089 67.0339 93.451 69.0397C90.7932 71.0454 88.9804 73.9715 88.368 77.2444C86.7559 76.6561 85.0347 76.4269 83.3248 76.5729C81.6149 76.7189 79.9575 77.2365 78.4685 78.0897C76.9794 78.9429 75.6947 80.111 74.7041 81.5123C73.7134 82.9137 73.0408 84.5145 72.7332 86.2028C72.4256 87.8912 72.4905 89.6263 72.9232 91.287C73.356 92.9477 74.1462 94.4938 75.2386 95.8173C76.3311 97.1408 77.6994 98.2098 79.248 98.9495C80.7965 99.6891 82.4879 100.082 84.204 100.1H119.489C122.062 100.1 124.53 99.0774 126.35 97.2577C128.169 95.438 129.192 92.97 129.192 90.3966C129.192 87.8232 128.169 85.3552 126.35 83.5355C124.53 81.7158 122.062 80.6935 119.489 80.6935H119.481Z" fill="white" stroke="#212121" stroke-width="0.805" stroke-miterlimit="10"/>
    <path d="M268.641 120.119C266.831 120.12 265.054 120.596 263.487 121.501C263.625 120.7 263.696 119.887 263.699 119.074C263.7 115.53 262.377 112.113 259.99 109.493C257.604 106.873 254.325 105.239 250.796 104.911C247.267 104.582 243.743 105.583 240.913 107.718C238.084 109.852 236.154 112.966 235.501 116.45C233.779 115.811 231.939 115.557 230.109 115.705C228.278 115.854 226.503 116.402 224.907 117.31C223.312 118.219 221.934 119.466 220.872 120.964C219.81 122.462 219.089 124.174 218.76 125.981C218.431 127.787 218.501 129.644 218.966 131.42C219.432 133.197 220.281 134.849 221.453 136.262C222.626 137.675 224.094 138.814 225.754 139.599C227.414 140.384 229.226 140.796 231.062 140.805H268.641C271.381 140.805 274.009 139.717 275.946 137.779C277.884 135.842 278.972 133.214 278.972 130.474C278.972 127.734 277.884 125.106 275.946 123.168C274.009 121.231 271.381 120.142 268.641 120.142V120.119Z" fill="white" stroke="#212121" stroke-width="0.805" stroke-miterlimit="10"/>
    <path d="M261.963 143.437H265.105" stroke="#212121" stroke-width="0.805" stroke-linecap="round" stroke-linejoin="round"/>
    <path d="M246.642 143.437H257.641" stroke="#212121" stroke-width="0.805" stroke-linecap="round" stroke-linejoin="round"/>
    <path d="M236.24 105.482C237.848 104.129 239.834 103.306 241.928 103.125" stroke="#212121" stroke-width="0.805" stroke-linecap="round" stroke-linejoin="round"/>
    <path d="M232.5 111.225C232.783 109.982 233.318 108.811 234.071 107.784" stroke="#212121" stroke-width="0.805" stroke-linecap="round" stroke-linejoin="round"/>
    <path d="M113.195 167.95C110.475 167.952 107.803 168.67 105.449 170.032C105.664 168.827 105.772 167.604 105.771 166.379C105.775 161.052 103.788 155.916 100.201 151.978C96.6139 148.04 91.6849 145.584 86.3807 145.092C81.0766 144.6 75.7801 146.108 71.53 149.319C67.2799 152.531 64.3829 157.214 63.4072 162.451C60.827 161.504 58.0709 161.133 55.332 161.363C52.5932 161.593 49.9378 162.419 47.5518 163.783C45.1658 165.148 43.1069 167.017 41.5192 169.261C39.9316 171.504 38.8536 174.068 38.3609 176.772C37.8681 179.476 37.9723 182.255 38.6664 184.914C39.3605 187.574 40.6275 190.049 42.3788 192.168C44.1301 194.286 46.3234 195.996 48.8049 197.177C51.2865 198.359 53.9963 198.984 56.7447 199.008H113.195C117.251 198.917 121.11 197.241 123.947 194.341C126.783 191.44 128.371 187.544 128.371 183.487C128.371 179.43 126.783 175.534 123.947 172.633C121.11 169.733 117.251 168.057 113.195 167.966V167.95Z" fill="white" stroke="#212121" stroke-width="0.805" stroke-miterlimit="10"/>
    <path d="M42.2491 197.429C43.0396 197.953 43.8667 198.421 44.724 198.827" stroke="#212121" stroke-width="0.805" stroke-linecap="round" stroke-linejoin="round"/>
    <path d="M36.0815 190.185C36.834 191.974 37.9282 193.599 39.3028 194.97" stroke="#212121" stroke-width="0.805" stroke-linecap="round" stroke-linejoin="round"/>
    <path d="M70.9104 143.83C74.1738 141.585 78.0875 140.48 82.0434 140.687" stroke="#212121" stroke-width="0.805" stroke-linecap="round" stroke-linejoin="round"/>
    <path d="M67.5084 146.973C68.056 146.257 68.6775 145.602 69.3626 145.017" stroke="#212121" stroke-width="0.805" stroke-linecap="round" stroke-linejoin="round"/>
    <path d="M215.121 91.0017H211.389V100.87H215.121V91.0017Z" fill="#212121" stroke="#212121" stroke-width="0.805" stroke-miterlimit="10"/>
    <path d="M215.121 149.212H211.389V159.08H215.121V149.212Z" fill="#212121" stroke="#212121" stroke-width="0.805" stroke-miterlimit="10"/>
    <path d="M114.735 33.9067H111.003V43.7748H114.735V33.9067Z" fill="#212121" stroke="#212121" stroke-width="0.805" stroke-miterlimit="10"/>
    <path d="M114.735 120.48H111.003V130.348H114.735V120.48Z" fill="#212121" stroke="#212121" stroke-width="0.805" stroke-miterlimit="10"/>
    <path d="M212.614 28.4462H114.382V49.7222H212.614V28.4462Z" fill="white" stroke="#212121" stroke-width="0.805" stroke-miterlimit="10"/>
    <path d="M186.805 33.8752H119.104V44.2933H186.805V33.8752Z" fill="#B75400" stroke="#212121" stroke-width="0.805" stroke-miterlimit="10"/>
    <path d="M195.974 41.2528C197.423 41.2528 198.598 40.0779 198.598 38.6287C198.598 37.1794 197.423 36.0045 195.974 36.0045C194.524 36.0045 193.35 37.1794 193.35 38.6287C193.35 40.0779 194.524 41.2528 195.974 41.2528Z" fill="white" stroke="#212121" stroke-width="0.805" stroke-miterlimit="10"/>
    <path d="M208.882 38.6287C208.882 38.1097 208.728 37.6023 208.44 37.1708C208.152 36.7392 207.742 36.4029 207.262 36.2043C206.783 36.0057 206.255 35.9537 205.746 36.0549C205.237 36.1562 204.77 36.4061 204.403 36.7731C204.036 37.1401 203.786 37.6077 203.684 38.1167C203.583 38.6257 203.635 39.1534 203.834 39.6329C204.032 40.1124 204.369 40.5222 204.8 40.8106C205.232 41.0989 205.739 41.2528 206.258 41.2528C206.954 41.2528 207.622 40.9763 208.114 40.4842C208.606 39.9921 208.882 39.3246 208.882 38.6287Z" fill="#B75400" stroke="#212121" stroke-width="0.805" stroke-miterlimit="10"/>
    <path d="M180.661 41.2528C182.11 41.2528 183.285 40.0779 183.285 38.6287C183.285 37.1794 182.11 36.0045 180.661 36.0045C179.212 36.0045 178.037 37.1794 178.037 38.6287C178.037 40.0779 179.212 41.2528 180.661 41.2528Z" fill="white" stroke="#212121" stroke-width="0.805" stroke-miterlimit="10"/>
    <path d="M208.89 49.7224H118.114V57.0055H208.89V49.7224Z" fill="#212121" stroke="#212121" stroke-width="0.805" stroke-miterlimit="10"/>
    <path d="M212.614 57.0055H114.382V78.2815H212.614V57.0055Z" fill="white" stroke="#212121" stroke-width="0.805" stroke-miterlimit="10"/>
    <path d="M186.805 62.4345H119.104V72.8525H186.805V62.4345Z" fill="#B75400" stroke="#212121" stroke-width="0.805" stroke-miterlimit="10"/>
    <path d="M195.974 69.8199C197.423 69.8199 198.598 68.645 198.598 67.1957C198.598 65.7465 197.423 64.5716 195.974 64.5716C194.524 64.5716 193.35 65.7465 193.35 67.1957C193.35 68.645 194.524 69.8199 195.974 69.8199Z" fill="#B75400" stroke="#212121" stroke-width="0.805" stroke-miterlimit="10"/>
    <path d="M208.882 67.1957C208.882 66.6767 208.728 66.1694 208.44 65.7378C208.152 65.3063 207.742 64.97 207.262 64.7714C206.783 64.5727 206.255 64.5208 205.746 64.622C205.237 64.7233 204.77 64.9732 204.403 65.3402C204.036 65.7072 203.786 66.1748 203.684 66.6838C203.583 67.1928 203.635 67.7205 203.834 68.2C204.032 68.6795 204.369 69.0893 204.8 69.3776C205.232 69.666 205.739 69.8199 206.258 69.8199C206.603 69.8209 206.945 69.7538 207.264 69.6223C207.582 69.4907 207.872 69.2975 208.116 69.0536C208.36 68.8097 208.553 68.52 208.685 68.2012C208.816 67.8823 208.883 67.5406 208.882 67.1957Z" fill="white" stroke="#212121" stroke-width="0.805" stroke-miterlimit="10"/>
    <path d="M180.661 69.8199C182.11 69.8199 183.285 68.645 183.285 67.1957C183.285 65.7465 182.11 64.5716 180.661 64.5716C179.212 64.5716 178.037 65.7465 178.037 67.1957C178.037 68.645 179.212 69.8199 180.661 69.8199Z" fill="white" stroke="#212121" stroke-width="0.805" stroke-miterlimit="10"/>
    <path d="M208.89 78.2894H118.114V85.5726H208.89V78.2894Z" fill="#212121" stroke="#212121" stroke-width="0.805" stroke-miterlimit="10"/>
    <path d="M212.614 85.5726H114.382V106.849H212.614V85.5726Z" fill="white" stroke="#212121" stroke-width="0.805" stroke-miterlimit="10"/>
    <path d="M186.805 91.0016H119.104V101.42H186.805V91.0016Z" fill="#B75400" stroke="#212121" stroke-width="0.805" stroke-miterlimit="10"/>
    <path d="M195.974 98.3792C197.423 98.3792 198.598 97.2043 198.598 95.7551C198.598 94.3058 197.423 93.1309 195.974 93.1309C194.525 93.1309 193.35 94.3058 193.35 95.7551C193.35 97.2043 194.525 98.3792 195.974 98.3792Z" fill="white" stroke="#212121" stroke-width="0.805" stroke-miterlimit="10"/>
    <path d="M208.882 95.7551C208.882 95.2361 208.729 94.7287 208.44 94.2972C208.152 93.8656 207.742 93.5293 207.263 93.3307C206.783 93.1321 206.255 93.0801 205.746 93.1813C205.237 93.2826 204.77 93.5325 204.403 93.8995C204.036 94.2665 203.786 94.7341 203.685 95.2431C203.583 95.7522 203.635 96.2798 203.834 96.7593C204.033 97.2388 204.369 97.6486 204.8 97.937C205.232 98.2253 205.739 98.3792 206.258 98.3792C206.954 98.3792 207.622 98.1027 208.114 97.6106C208.606 97.1185 208.882 96.451 208.882 95.7551Z" fill="#B75400" stroke="#212121" stroke-width="0.805" stroke-miterlimit="10"/>
    <path d="M180.661 98.3792C182.11 98.3792 183.285 97.2043 183.285 95.7551C183.285 94.3058 182.11 93.1309 180.661 93.1309C179.212 93.1309 178.037 94.3058 178.037 95.7551C178.037 97.2043 179.212 98.3792 180.661 98.3792Z" fill="white" stroke="#212121" stroke-width="0.805" stroke-miterlimit="10"/>
    <path d="M208.89 106.849H118.114V114.132H208.89V106.849Z" fill="#212121" stroke="#212121" stroke-width="0.805" stroke-miterlimit="10"/>
    <path d="M212.614 114.132H114.382V135.408H212.614V114.132Z" fill="white" stroke="#212121" stroke-width="0.805" stroke-miterlimit="10"/>
    <path d="M186.805 119.561H119.104V129.979H186.805V119.561Z" fill="#B75400" stroke="#212121" stroke-width="0.805" stroke-miterlimit="10"/>
    <path d="M195.974 126.946C197.423 126.946 198.598 125.771 198.598 124.322C198.598 122.873 197.423 121.698 195.974 121.698C194.525 121.698 193.35 122.873 193.35 124.322C193.35 125.771 194.525 126.946 195.974 126.946Z" fill="#B75400" stroke="#212121" stroke-width="0.805" stroke-miterlimit="10"/>
    <path d="M208.882 124.322C208.882 123.803 208.729 123.296 208.44 122.864C208.152 122.433 207.742 122.096 207.263 121.898C206.783 121.699 206.255 121.647 205.746 121.748C205.237 121.849 204.77 122.099 204.403 122.466C204.036 122.833 203.786 123.301 203.685 123.81C203.583 124.319 203.635 124.847 203.834 125.326C204.033 125.806 204.369 126.216 204.8 126.504C205.232 126.792 205.739 126.946 206.258 126.946C206.603 126.947 206.945 126.88 207.264 126.748C207.583 126.617 207.872 126.424 208.116 126.18C208.36 125.936 208.553 125.646 208.685 125.327C208.816 125.009 208.883 124.667 208.882 124.322Z" fill="white" stroke="#212121" stroke-width="0.805" stroke-miterlimit="10"/>
    <path d="M180.661 126.946C182.11 126.946 183.285 125.771 183.285 124.322C183.285 122.873 182.11 121.698 180.661 121.698C179.212 121.698 178.037 122.873 178.037 124.322C178.037 125.771 179.212 126.946 180.661 126.946Z" fill="white" stroke="#212121" stroke-width="0.805" stroke-miterlimit="10"/>
    <path d="M208.89 135.416H118.114V142.699H208.89V135.416Z" fill="#212121" stroke="#212121" stroke-width="0.805" stroke-miterlimit="10"/>
    <path d="M212.614 142.699H114.382V163.975H212.614V142.699Z" fill="white" stroke="#212121" stroke-width="0.805" stroke-miterlimit="10"/>
    <path d="M186.805 148.128H119.104V158.546H186.805V148.128Z" fill="#B75400" stroke="#212121" stroke-width="0.805" stroke-miterlimit="10"/>
    <path d="M195.974 155.505C197.423 155.505 198.598 154.33 198.598 152.881C198.598 151.432 197.423 150.257 195.974 150.257C194.525 150.257 193.35 151.432 193.35 152.881C193.35 154.33 194.525 155.505 195.974 155.505Z" fill="white" stroke="#212121" stroke-width="0.805" stroke-miterlimit="10"/>
    <path d="M208.882 152.881C208.882 152.362 208.729 151.855 208.44 151.423C208.152 150.992 207.742 150.655 207.263 150.457C206.783 150.258 206.255 150.206 205.746 150.307C205.237 150.409 204.77 150.659 204.403 151.026C204.036 151.393 203.786 151.86 203.685 152.369C203.583 152.878 203.635 153.406 203.834 153.885C204.033 154.365 204.369 154.775 204.8 155.063C205.232 155.351 205.739 155.505 206.258 155.505C206.954 155.505 207.622 155.229 208.114 154.737C208.606 154.245 208.882 153.577 208.882 152.881Z" fill="#B75400" stroke="#212121" stroke-width="0.805" stroke-miterlimit="10"/>
    <path d="M180.661 155.505C182.11 155.505 183.285 154.33 183.285 152.881C183.285 151.432 182.11 150.257 180.661 150.257C179.212 150.257 178.037 151.432 178.037 152.881C178.037 154.33 179.212 155.505 180.661 155.505Z" fill="white" stroke="#212121" stroke-width="0.805" stroke-miterlimit="10"/>
    <path d="M170.039 25.5865H175.538" stroke="#212121" stroke-width="0.805" stroke-linecap="round" stroke-linejoin="round"/>
    <path d="M131.934 25.5865H163.753" stroke="#212121" stroke-width="0.805" stroke-linecap="round" stroke-linejoin="round"/>
    <path d="M110.328 154.83V158.758" stroke="#212121" stroke-width="0.805" stroke-linecap="round" stroke-linejoin="round"/>
    <path d="M110.328 142.652V150.901" stroke="#212121" stroke-width="0.805" stroke-linecap="round" stroke-linejoin="round"/>
    <path d="M255.213 70.0476L249.714 59.1661C249.683 59.0901 249.637 59.0212 249.578 58.9639C249.519 58.9065 249.45 58.8619 249.373 58.8327C249.296 58.8036 249.214 58.7905 249.132 58.7944C249.051 58.7982 248.97 58.8189 248.897 58.8552C248.823 58.8914 248.758 58.9424 248.705 59.0051C248.652 59.0677 248.612 59.1405 248.589 59.2191C248.565 59.2976 248.558 59.3802 248.568 59.4617C248.577 59.5431 248.604 59.6217 248.645 59.6925L253.901 70.6919C253.793 70.803 253.719 70.9419 253.685 71.0932C253.652 71.2445 253.662 71.4021 253.713 71.5482L259.275 81.9741C259.425 82.2727 259.896 82.3355 260.344 82.1155C260.792 81.8955 261.027 81.4791 260.878 81.1884L256.007 70.4169C255.926 70.2836 255.808 70.1773 255.666 70.1115C255.525 70.0458 255.367 70.0235 255.213 70.0476Z" fill="#212121"/>
    <path d="M285.666 70.0476L291.205 59.166C291.273 59.0255 291.394 58.9176 291.541 58.8661C291.688 58.8145 291.85 58.8235 291.991 58.8911C292.128 58.9619 292.234 59.0829 292.285 59.2291C292.336 59.3752 292.329 59.5355 292.266 59.6767L287.002 70.6761C287.112 70.7858 287.187 70.9256 287.218 71.0781C287.249 71.2305 287.234 71.3887 287.175 71.5325L281.612 81.9584C281.463 82.257 280.983 82.3198 280.544 82.0998C280.104 81.8798 279.86 81.4634 280.001 81.1727L284.88 70.4012C284.963 70.2721 285.081 70.1699 285.22 70.1071C285.36 70.0443 285.515 70.0236 285.666 70.0476Z" fill="#212121"/>
    <path d="M287.772 82.4455H253.226L255.818 78.0457H285.179L287.772 82.4455Z" fill="white" stroke="#212121" stroke-width="0.805" stroke-linecap="round" stroke-linejoin="round"/>
    <path d="M287.764 82.4455H253.226V86.8453H287.764V82.4455Z" fill="white" stroke="#212121" stroke-width="0.805" stroke-linecap="round" stroke-linejoin="round"/>
    <path d="M269.898 85.6196H256.62C256.363 85.6175 256.117 85.5139 255.936 85.3314C255.755 85.149 255.653 84.9024 255.653 84.6453C255.653 84.389 255.755 84.1432 255.936 83.962C256.118 83.7808 256.363 83.679 256.62 83.679H269.898C270.154 83.679 270.4 83.7808 270.581 83.962C270.762 84.1432 270.864 84.389 270.864 84.6453C270.864 84.9024 270.762 85.149 270.581 85.3314C270.4 85.5139 270.155 85.6175 269.898 85.6196Z" fill="white" stroke="#212121" stroke-width="0.805" stroke-miterlimit="10"/>
    <path d="M277.935 85.376C278.404 85.376 278.784 84.9961 278.784 84.5275C278.784 84.0589 278.404 83.679 277.935 83.679C277.466 83.679 277.087 84.0589 277.087 84.5275C277.087 84.9961 277.466 85.376 277.935 85.376Z" fill="white" stroke="#212121" stroke-width="0.805" stroke-miterlimit="10"/>
    <path d="M282.303 84.5275C282.303 84.3581 282.253 84.1925 282.159 84.0517C282.065 83.9109 281.931 83.8011 281.775 83.7363C281.618 83.6715 281.446 83.6545 281.28 83.6875C281.114 83.7206 280.961 83.8021 280.842 83.9219C280.722 84.0417 280.64 84.1943 280.607 84.3604C280.574 84.5265 280.591 84.6987 280.656 84.8552C280.721 85.0117 280.83 85.1454 280.971 85.2395C281.112 85.3336 281.278 85.3838 281.447 85.3838C281.56 85.3849 281.672 85.3635 281.776 85.3208C281.88 85.2781 281.975 85.2151 282.055 85.1353C282.135 85.0556 282.198 84.9608 282.24 84.8564C282.283 84.7521 282.305 84.6402 282.303 84.5275Z" fill="white" stroke="#212121" stroke-width="0.805" stroke-miterlimit="10"/>
    <path d="M284.967 85.376C285.435 85.376 285.815 84.9961 285.815 84.5275C285.815 84.0589 285.435 83.679 284.967 83.679C284.498 83.679 284.118 84.0589 284.118 84.5275C284.118 84.9961 284.498 85.376 284.967 85.376Z" fill="white" stroke="#212121" stroke-width="0.805" stroke-miterlimit="10"/>
    <path d="M299.84 57.7047C299.951 58.2449 300.006 58.7952 300.005 59.3468C300.005 59.4175 300.005 59.4803 300.005 59.551" stroke="#212121" stroke-width="0.4025" stroke-linecap="round" stroke-linejoin="round"/>
    <path d="M287.363 52.5192C288.377 51.8517 289.528 51.4191 290.73 51.2529C291.933 51.0867 293.158 51.1911 294.315 51.5585C295.472 51.9259 296.533 52.547 297.419 53.3765C298.306 54.2061 298.996 55.2231 299.439 56.3533" stroke="#212121" stroke-width="0.4025" stroke-linecap="round" stroke-linejoin="round"/>
    <path d="M289.642 53.7057C289.204 53.8768 288.787 54.0982 288.4 54.3657" stroke="#212121" stroke-width="0.4025" stroke-linecap="round" stroke-linejoin="round"/>
    <path d="M297.883 59.4959C297.887 59.4462 297.887 59.3963 297.883 59.3466C297.883 57.7401 297.245 56.1993 296.109 55.0633C294.973 53.9273 293.432 53.2891 291.826 53.2891C291.51 53.2873 291.194 53.3136 290.883 53.3677" stroke="#212121" stroke-width="0.4025" stroke-linecap="round" stroke-linejoin="round"/>
    <path d="M295.919 59.4489V59.3467C295.919 58.2632 295.489 57.224 294.723 56.4578C293.956 55.6917 292.917 55.2612 291.834 55.2612C290.941 55.2605 290.073 55.5562 289.367 56.1019" stroke="#212121" stroke-width="0.4025" stroke-linecap="round" stroke-linejoin="round"/>
    <path d="M290.977 57.2647C290.717 57.3733 290.48 57.5306 290.278 57.7283" stroke="#212121" stroke-width="0.4025" stroke-linecap="round" stroke-linejoin="round"/>
    <path d="M294.089 59.4016V59.3466C294.089 58.7486 293.851 58.175 293.428 57.7522C293.005 57.3293 292.432 57.0917 291.834 57.0917" stroke="#212121" stroke-width="0.4025" stroke-linecap="round" stroke-linejoin="round"/>
    <path d="M241.079 58.1917C241.023 58.5794 240.994 58.9706 240.993 59.3624C240.993 59.4331 240.993 59.4959 240.993 59.5666" stroke="#212121" stroke-width="0.4025" stroke-linecap="round" stroke-linejoin="round"/>
    <path d="M250.79 51.3407C250.255 51.2298 249.71 51.1745 249.164 51.1757C247.452 51.1751 245.784 51.7116 244.395 52.7096C243.005 53.7076 241.963 55.1167 241.417 56.7383" stroke="#212121" stroke-width="0.4025" stroke-linecap="round" stroke-linejoin="round"/>
    <path d="M253.634 52.5193C253.115 52.1773 252.559 51.8953 251.976 51.6786" stroke="#212121" stroke-width="0.4025" stroke-linecap="round" stroke-linejoin="round"/>
    <path d="M248.677 53.3128C248.834 53.3128 248.999 53.3128 249.164 53.3128C250.393 53.314 251.594 53.6894 252.605 54.3892" stroke="#212121" stroke-width="0.4025" stroke-linecap="round" stroke-linejoin="round"/>
    <path d="M243.114 59.4959C243.114 59.4488 243.114 59.4016 243.114 59.3466C243.115 58.1561 243.466 56.992 244.124 55.9999C244.782 55.0078 245.718 54.2316 246.815 53.7684" stroke="#212121" stroke-width="0.4025" stroke-linecap="round" stroke-linejoin="round"/>
    <path d="M245.07 59.4489V59.3467C245.07 58.2632 245.501 57.224 246.267 56.4578C247.033 55.6917 248.072 55.2612 249.156 55.2612C250.049 55.2605 250.916 55.5562 251.623 56.1019" stroke="#212121" stroke-width="0.4025" stroke-linecap="round" stroke-linejoin="round"/>
    <path d="M246.917 59.4017C246.912 59.3836 246.912 59.3648 246.917 59.3467C246.914 58.9034 247.043 58.4692 247.287 58.0989C247.531 57.7285 247.879 57.4386 248.287 57.2656C248.695 57.0926 249.145 57.0442 249.581 57.1265C250.017 57.2088 250.418 57.4182 250.735 57.7282" stroke="#212121" stroke-width="0.4025" stroke-linecap="round" stroke-linejoin="round"/>
    <path d="M146.571 203.085L141.071 192.204C141.003 192.063 140.882 191.955 140.735 191.904C140.588 191.852 140.426 191.861 140.285 191.929C140.148 192 140.042 192.121 139.991 192.267C139.94 192.413 139.947 192.573 140.01 192.715L145.274 203.714C145.166 203.823 145.091 203.961 145.06 204.112C145.03 204.263 145.044 204.42 145.101 204.563L150.664 214.996C150.813 215.287 151.293 215.35 151.733 215.138C152.173 214.926 152.416 214.501 152.275 214.203L147.396 203.431C147.305 203.301 147.18 203.199 147.034 203.138C146.887 203.077 146.727 203.059 146.571 203.085Z" fill="#212121"/>
    <path d="M177.031 203.085L182.531 192.204C182.562 192.128 182.608 192.059 182.667 192.002C182.725 191.944 182.795 191.9 182.872 191.871C182.948 191.841 183.03 191.828 183.112 191.832C183.194 191.836 183.274 191.857 183.348 191.893C183.422 191.929 183.487 191.98 183.54 192.043C183.593 192.105 183.632 192.178 183.656 192.257C183.68 192.335 183.687 192.418 183.677 192.499C183.667 192.581 183.641 192.659 183.599 192.73L178.343 203.73C178.451 203.84 178.524 203.978 178.553 204.129C178.582 204.28 178.567 204.436 178.508 204.578L172.946 215.012C172.796 215.303 172.325 215.366 171.877 215.153C171.429 214.941 171.194 214.517 171.335 214.218L176.214 203.447C176.302 203.315 176.425 203.211 176.57 203.147C176.715 203.083 176.875 203.062 177.031 203.085Z" fill="#212121"/>
    <path d="M179.129 215.483H144.591L147.176 211.091H176.536L179.129 215.483Z" fill="white" stroke="#212121" stroke-width="0.805" stroke-linecap="round" stroke-linejoin="round"/>
    <path d="M179.129 215.483H144.591V219.883H179.129V215.483Z" fill="white" stroke="#212121" stroke-width="0.805" stroke-linecap="round" stroke-linejoin="round"/>
    <path d="M161.263 216.717H147.977C147.443 216.717 147.011 217.15 147.011 217.683V217.691C147.011 218.225 147.443 218.658 147.977 218.658H161.263C161.796 218.658 162.229 218.225 162.229 217.691V217.683C162.229 217.15 161.796 216.717 161.263 216.717Z" fill="white" stroke="#212121" stroke-width="0.805" stroke-miterlimit="10"/>
    <path d="M169.292 218.422C169.761 218.422 170.141 218.042 170.141 217.573C170.141 217.105 169.761 216.725 169.292 216.725C168.824 216.725 168.444 217.105 168.444 217.573C168.444 218.042 168.824 218.422 169.292 218.422Z" fill="white" stroke="#212121" stroke-width="0.805" stroke-miterlimit="10"/>
    <path d="M173.661 217.573C173.662 217.403 173.613 217.237 173.52 217.095C173.426 216.953 173.292 216.842 173.136 216.776C172.979 216.71 172.806 216.692 172.639 216.725C172.472 216.758 172.319 216.84 172.199 216.96C172.078 217.08 171.997 217.233 171.964 217.4C171.931 217.567 171.949 217.74 172.015 217.897C172.08 218.054 172.191 218.187 172.333 218.281C172.475 218.374 172.642 218.423 172.812 218.422C173.037 218.422 173.253 218.332 173.412 218.173C173.571 218.014 173.661 217.798 173.661 217.573Z" fill="white" stroke="#212121" stroke-width="0.805" stroke-miterlimit="10"/>
    <path d="M176.324 218.422C176.793 218.422 177.172 218.042 177.172 217.573C177.172 217.105 176.793 216.725 176.324 216.725C175.855 216.725 175.475 217.105 175.475 217.573C175.475 218.042 175.855 218.422 176.324 218.422Z" fill="white" stroke="#212121" stroke-width="0.805" stroke-miterlimit="10"/>
    <path d="M187.276 185.306C188.519 186.022 189.551 187.052 190.269 188.293C190.988 189.535 191.367 190.943 191.37 192.377C191.37 192.447 191.37 192.51 191.37 192.581" stroke="#212121" stroke-width="0.4025" stroke-linecap="round" stroke-linejoin="round"/>
    <path d="M178.72 185.557C180.051 184.685 181.608 184.22 183.199 184.221C184.1 184.218 184.995 184.367 185.847 184.661" stroke="#212121" stroke-width="0.4025" stroke-linecap="round" stroke-linejoin="round"/>
    <path d="M182.138 186.421C181.292 186.58 180.489 186.915 179.781 187.403" stroke="#212121" stroke-width="0.4025" stroke-linecap="round" stroke-linejoin="round"/>
    <path d="M189.288 192.542C189.288 192.495 189.288 192.447 189.288 192.392C189.285 190.89 188.726 189.442 187.717 188.329C186.708 187.215 185.322 186.516 183.827 186.366" stroke="#212121" stroke-width="0.4025" stroke-linecap="round" stroke-linejoin="round"/>
    <path d="M186.145 189.548C185.766 189.154 185.311 188.841 184.807 188.627C184.303 188.414 183.761 188.305 183.214 188.307C182.321 188.308 181.452 188.6 180.74 189.14" stroke="#212121" stroke-width="0.4025" stroke-linecap="round" stroke-linejoin="round"/>
    <path d="M187.276 192.487C187.276 192.487 187.276 192.424 187.276 192.385C187.273 191.845 187.164 191.311 186.954 190.813" stroke="#212121" stroke-width="0.4025" stroke-linecap="round" stroke-linejoin="round"/>
    <path d="M182.649 190.185C182.267 190.282 181.918 190.477 181.635 190.75" stroke="#212121" stroke-width="0.4025" stroke-linecap="round" stroke-linejoin="round"/>
    <path d="M185.446 192.44C185.446 192.44 185.446 192.44 185.446 192.385C185.453 191.886 185.293 191.399 184.993 191.001C184.693 190.603 184.269 190.316 183.788 190.185" stroke="#212121" stroke-width="0.4025" stroke-linecap="round" stroke-linejoin="round"/>
    <path d="M132.468 191.018C132.389 191.469 132.349 191.926 132.35 192.385C132.35 192.455 132.35 192.518 132.35 192.589" stroke="#212121" stroke-width="0.4025" stroke-linecap="round" stroke-linejoin="round"/>
    <path d="M137.3 184.874C136.295 185.309 135.387 185.941 134.629 186.732C133.871 187.522 133.278 188.455 132.884 189.478" stroke="#212121" stroke-width="0.4025" stroke-linecap="round" stroke-linejoin="round"/>
    <path d="M144.991 185.557C143.664 184.685 142.11 184.22 140.521 184.221C139.969 184.22 139.419 184.275 138.879 184.386" stroke="#212121" stroke-width="0.4025" stroke-linecap="round" stroke-linejoin="round"/>
    <path d="M135.948 188.417C136.927 187.293 138.284 186.569 139.762 186.382C141.24 186.195 142.735 186.559 143.962 187.403" stroke="#212121" stroke-width="0.4025" stroke-linecap="round" stroke-linejoin="round"/>
    <path d="M134.471 192.542C134.471 192.495 134.471 192.447 134.471 192.392C134.472 191.496 134.671 190.611 135.053 189.8" stroke="#212121" stroke-width="0.4025" stroke-linecap="round" stroke-linejoin="round"/>
    <path d="M137.598 189.533C138.295 188.822 139.227 188.39 140.219 188.318C141.211 188.245 142.196 188.538 142.988 189.14" stroke="#212121" stroke-width="0.4025" stroke-linecap="round" stroke-linejoin="round"/>
    <path d="M136.443 192.487C136.443 192.487 136.443 192.424 136.443 192.385C136.442 191.775 136.579 191.173 136.844 190.625" stroke="#212121" stroke-width="0.4025" stroke-linecap="round" stroke-linejoin="round"/>
    <path d="M139.044 190.68C139.472 190.315 140.019 190.123 140.581 190.139C141.142 190.155 141.678 190.378 142.084 190.766" stroke="#212121" stroke-width="0.4025" stroke-linecap="round" stroke-linejoin="round"/>
    <path d="M138.274 192.44C138.274 192.44 138.274 192.44 138.274 192.385C138.274 192.014 138.366 191.65 138.541 191.324" stroke="#212121" stroke-width="0.4025" stroke-linecap="round" stroke-linejoin="round"/>
    <path d="M19.0482 136.83L13.5485 125.948C13.5176 125.872 13.4714 125.803 13.4128 125.746C13.3541 125.689 13.2843 125.644 13.2076 125.615C13.131 125.586 13.0491 125.572 12.9672 125.576C12.8853 125.58 12.805 125.601 12.7314 125.637C12.6578 125.673 12.5925 125.724 12.5395 125.787C12.4865 125.85 12.447 125.923 12.4234 126.001C12.3998 126.08 12.3927 126.162 12.4024 126.244C12.4121 126.325 12.4385 126.404 12.48 126.474L17.7361 137.474C17.6268 137.584 17.5505 137.723 17.5158 137.874C17.4811 138.025 17.4894 138.183 17.5397 138.33L23.1023 148.764C23.2516 149.055 23.723 149.118 24.1708 148.898C24.6186 148.678 24.8543 148.269 24.705 147.97L19.8339 137.199C19.7495 137.071 19.6316 136.969 19.493 136.904C19.3544 136.839 19.2005 136.813 19.0482 136.83Z" fill="#212121"/>
    <path d="M49.5008 136.83L55.0005 125.948C55.0684 125.808 55.1892 125.7 55.3365 125.648C55.4838 125.597 55.6455 125.606 55.7862 125.673C55.9239 125.744 56.0291 125.865 56.0803 126.011C56.1314 126.157 56.1246 126.318 56.0612 126.459L50.7972 137.458C50.9174 137.565 51.0021 137.705 51.04 137.861C51.0779 138.017 51.0672 138.181 51.0093 138.33L45.4467 148.764C45.2975 149.055 44.8182 149.118 44.3782 148.898C43.9383 148.678 43.6947 148.269 43.8361 147.971L48.7151 137.199C48.7988 137.071 48.9167 136.968 49.0555 136.903C49.1943 136.838 49.3485 136.812 49.5008 136.83Z" fill="#212121"/>
    <path d="M51.6065 149.228H17.0684L19.6532 144.828H49.0138L51.6065 149.228Z" fill="white" stroke="#212121" stroke-width="0.805" stroke-linecap="round" stroke-linejoin="round"/>
    <path d="M51.5987 149.228H17.0605V153.627H51.5987V149.228Z" fill="white" stroke="#212121" stroke-width="0.805" stroke-linecap="round" stroke-linejoin="round"/>
    <path d="M33.7244 152.402H20.4544C20.1974 152.4 19.9516 152.296 19.7706 152.114C19.5896 151.931 19.488 151.685 19.488 151.427C19.488 151.171 19.5899 150.925 19.7711 150.744C19.9523 150.563 20.1981 150.461 20.4544 150.461H33.7244C33.9807 150.461 34.2265 150.563 34.4078 150.744C34.589 150.925 34.6908 151.171 34.6908 151.427C34.6908 151.685 34.5892 151.931 34.4082 152.114C34.2272 152.296 33.9814 152.4 33.7244 152.402Z" fill="white" stroke="#212121" stroke-width="0.805" stroke-miterlimit="10"/>
    <path d="M41.7697 152.158C42.2383 152.158 42.6182 151.778 42.6182 151.31C42.6182 150.841 42.2383 150.461 41.7697 150.461C41.301 150.461 40.9211 150.841 40.9211 151.31C40.9211 151.778 41.301 152.158 41.7697 152.158Z" fill="white" stroke="#212121" stroke-width="0.805" stroke-miterlimit="10"/>
    <path d="M45.2818 152.158C45.7504 152.158 46.1303 151.778 46.1303 151.31C46.1303 150.841 45.7504 150.461 45.2818 150.461C44.8131 150.461 44.4332 150.841 44.4332 151.31C44.4332 151.778 44.8131 152.158 45.2818 152.158Z" fill="white" stroke="#212121" stroke-width="0.805" stroke-miterlimit="10"/>
    <path d="M49.6503 151.31C49.6503 151.14 49.5998 150.974 49.5054 150.833C49.4109 150.692 49.2767 150.582 49.1198 150.518C48.9628 150.453 48.7902 150.437 48.6239 150.47C48.4576 150.504 48.305 150.586 48.1855 150.707C48.0661 150.827 47.9852 150.981 47.953 151.147C47.9209 151.314 47.9389 151.486 48.005 151.643C48.071 151.799 48.182 151.932 48.3238 152.026C48.4657 152.119 48.632 152.168 48.8017 152.166C48.9138 152.166 49.0248 152.144 49.1283 152.101C49.2317 152.058 49.3256 151.994 49.4045 151.915C49.4834 151.835 49.5458 151.741 49.5879 151.637C49.6301 151.533 49.6513 151.422 49.6503 151.31Z" fill="white" stroke="#212121" stroke-width="0.805" stroke-miterlimit="10"/>
    <path d="M63.3915 123.45C63.6888 124.312 63.8401 125.217 63.8393 126.129C63.8393 126.2 63.8393 126.263 63.8393 126.333" stroke="#212121" stroke-width="0.4025" stroke-linecap="round" stroke-linejoin="round"/>
    <path d="M57.2948 118.115C58.5452 118.368 59.7195 118.908 60.7246 119.694C61.7297 120.479 62.5379 121.488 63.0852 122.64" stroke="#212121" stroke-width="0.4025" stroke-linecap="round" stroke-linejoin="round"/>
    <path d="M51.1979 119.301C52.2882 118.582 53.5362 118.138 54.8355 118.005" stroke="#212121" stroke-width="0.4025" stroke-linecap="round" stroke-linejoin="round"/>
    <path d="M60.2253 122.138C59.2479 121.019 57.8929 120.3 56.419 120.118C54.9452 119.935 53.4557 120.302 52.235 121.148" stroke="#212121" stroke-width="0.4025" stroke-linecap="round" stroke-linejoin="round"/>
    <path d="M61.7179 126.278C61.722 126.228 61.722 126.179 61.7179 126.129C61.719 125.158 61.4873 124.202 61.0422 123.34" stroke="#212121" stroke-width="0.4025" stroke-linecap="round" stroke-linejoin="round"/>
    <path d="M54.8278 122.138C54.2335 122.274 53.6776 122.542 53.2014 122.923" stroke="#212121" stroke-width="0.4025" stroke-linecap="round" stroke-linejoin="round"/>
    <path d="M59.7538 126.231V126.129C59.7542 125.2 59.4375 124.299 58.856 123.574C58.2745 122.85 57.4631 122.346 56.5562 122.145" stroke="#212121" stroke-width="0.4025" stroke-linecap="round" stroke-linejoin="round"/>
    <path d="M57.4439 124.738C57.2504 124.49 57.0066 124.284 56.7283 124.136C56.4501 123.988 56.1437 123.901 55.8293 123.879C55.5148 123.858 55.1994 123.903 54.9036 124.012C54.6078 124.12 54.3383 124.29 54.1127 124.51" stroke="#212121" stroke-width="0.4025" stroke-linecap="round" stroke-linejoin="round"/>
    <path d="M57.9233 126.184V126.129C57.9245 125.908 57.8927 125.688 57.829 125.477" stroke="#212121" stroke-width="0.4025" stroke-linecap="round" stroke-linejoin="round"/>
    <path d="M11.5686 118.084C9.67904 118.42 7.96801 119.41 6.73544 120.881C5.50287 122.352 4.82742 124.21 4.82751 126.129C4.82751 126.2 4.82751 126.263 4.82751 126.333" stroke="#212121" stroke-width="0.4025" stroke-linecap="round" stroke-linejoin="round"/>
    <path d="M17.469 119.301C16.2946 118.531 14.9417 118.077 13.5406 117.981" stroke="#212121" stroke-width="0.4025" stroke-linecap="round" stroke-linejoin="round"/>
    <path d="M14.3342 120.26C15.085 120.423 15.799 120.724 16.4398 121.148" stroke="#212121" stroke-width="0.4025" stroke-linecap="round" stroke-linejoin="round"/>
    <path d="M6.94885 126.278C6.94885 126.231 6.94885 126.184 6.94885 126.129C6.94885 124.522 7.58706 122.982 8.72306 121.846C9.85907 120.71 11.3998 120.071 13.0064 120.071" stroke="#212121" stroke-width="0.4025" stroke-linecap="round" stroke-linejoin="round"/>
    <path d="M9.8479 123.536C10.516 122.719 11.476 122.194 12.5246 122.072C13.5731 121.95 14.6279 122.241 15.4655 122.884" stroke="#212121" stroke-width="0.4025" stroke-linecap="round" stroke-linejoin="round"/>
    <path d="M8.91296 126.231V126.129C8.91268 125.589 9.02228 125.054 9.23509 124.557" stroke="#212121" stroke-width="0.4025" stroke-linecap="round" stroke-linejoin="round"/>
    <path d="M13.3993 123.913C13.8372 123.994 14.2417 124.201 14.5621 124.51" stroke="#212121" stroke-width="0.4025" stroke-linecap="round" stroke-linejoin="round"/>
    <path d="M10.7513 126.184C10.7513 126.184 10.7513 126.184 10.7513 126.129C10.7531 125.595 10.9433 125.08 11.2883 124.673C11.6334 124.266 12.111 123.994 12.637 123.905" stroke="#212121" stroke-width="0.4025" stroke-linecap="round" stroke-linejoin="round"/>
    <path d="M198.763 224.471H128.751V272.437H198.763V224.471Z" fill="#212121" stroke="#212121" stroke-width="0.805" stroke-miterlimit="10"/>
    <path d="M209.267 293.642H118.255L128.751 272.437H198.763L209.267 293.642Z" fill="white" stroke="#212121" stroke-width="0.805" stroke-linecap="round" stroke-linejoin="round"/>
    <path d="M194.52 228.266H132.994V268.642H194.52V228.266Z" fill="white" stroke="#212121" stroke-width="0.805" stroke-miterlimit="10"/>
    <path d="M172.977 244.577L163.777 233.695L154.576 244.577H158.426V261.618H169.127V244.577H172.977Z" fill="#B75400"/>
    <path d="M160.838 279.154L160.956 276.57H157.264L157.012 279.154H160.838Z" fill="white" stroke="#212121" stroke-width="0.805" stroke-miterlimit="10"/>
    <path d="M168.483 279.154L168.357 276.57H164.657L164.664 279.154H168.483Z" fill="white" stroke="#212121" stroke-width="0.805" stroke-miterlimit="10"/>
    <path d="M188.392 281.912H192.352L191.417 279.154H187.598L188.392 281.912Z" fill="white" stroke="#212121" stroke-width="0.805" stroke-miterlimit="10"/>
    <path d="M157.012 279.154L157.263 276.57H153.563L153.194 279.154H157.012Z" fill="white" stroke="#212121" stroke-width="0.805" stroke-miterlimit="10"/>
    <path d="M149.367 279.154L149.862 276.57H146.162L145.549 279.154H149.367Z" fill="white" stroke="#212121" stroke-width="0.805" stroke-miterlimit="10"/>
    <path d="M183.772 279.154L183.151 276.57H179.451L179.954 279.154H183.772Z" fill="white" stroke="#212121" stroke-width="0.805" stroke-miterlimit="10"/>
    <path d="M187.598 279.154L186.852 276.57H183.151L183.772 279.154H187.598Z" fill="white" stroke="#212121" stroke-width="0.805" stroke-miterlimit="10"/>
    <path d="M145.549 279.154L146.162 276.57H142.461L141.723 279.154H145.549Z" fill="white" stroke="#212121" stroke-width="0.805" stroke-miterlimit="10"/>
    <path d="M172.309 279.154L172.058 276.57H168.357L168.483 279.154H172.309Z" fill="white" stroke="#212121" stroke-width="0.805" stroke-miterlimit="10"/>
    <path d="M191.417 279.154L190.552 276.57H186.852L187.598 279.154H191.417Z" fill="white" stroke="#212121" stroke-width="0.805" stroke-miterlimit="10"/>
    <path d="M179.954 279.154L179.451 276.57H175.758L176.127 279.154H179.954Z" fill="white" stroke="#212121" stroke-width="0.805" stroke-miterlimit="10"/>
    <path d="M176.127 279.154L175.758 276.57H172.058L172.309 279.154H176.127Z" fill="white" stroke="#212121" stroke-width="0.805" stroke-miterlimit="10"/>
    <path d="M164.664 279.154L164.657 276.57H160.956L160.838 279.154H164.664Z" fill="white" stroke="#212121" stroke-width="0.805" stroke-miterlimit="10"/>
    <path d="M137.904 279.154H134.078L133.025 281.912H136.977L137.904 279.154Z" fill="white" stroke="#212121" stroke-width="0.805" stroke-miterlimit="10"/>
    <path d="M138.761 276.57H135.068L134.078 279.154H137.904L138.761 276.57Z" fill="white" stroke="#212121" stroke-width="0.805" stroke-miterlimit="10"/>
    <path d="M141.723 279.154L142.461 276.57H138.761L137.905 279.154H141.723Z" fill="white" stroke="#212121" stroke-width="0.805" stroke-miterlimit="10"/>
    <path d="M131.894 284.874L130.676 288.056H134.927L135.987 284.874H131.894Z" fill="white" stroke="#212121" stroke-width="0.805" stroke-miterlimit="10"/>
    <path d="M136.977 281.912H133.026L131.894 284.874H135.988L136.977 281.912Z" fill="white" stroke="#212121" stroke-width="0.805" stroke-miterlimit="10"/>
    <path d="M135.988 284.874L134.927 288.056H139.177L140.089 284.874H135.988Z" fill="white" stroke="#212121" stroke-width="0.805" stroke-miterlimit="10"/>
    <path d="M153.194 279.154L153.563 276.57H149.862L149.367 279.154H153.194Z" fill="white" stroke="#212121" stroke-width="0.805" stroke-miterlimit="10"/>
    <path d="M152.801 281.912L153.194 279.154H149.367L148.841 281.912H152.801Z" fill="white" stroke="#212121" stroke-width="0.805" stroke-miterlimit="10"/>
    <path d="M148.841 281.912L149.367 279.154H145.549L144.889 281.912H148.841Z" fill="white" stroke="#212121" stroke-width="0.805" stroke-miterlimit="10"/>
    <path d="M156.753 281.912L157.012 279.154H153.194L152.801 281.912H156.753Z" fill="white" stroke="#212121" stroke-width="0.805" stroke-miterlimit="10"/>
    <path d="M141.723 279.154H137.905L136.977 281.912H140.937L141.723 279.154Z" fill="white" stroke="#212121" stroke-width="0.805" stroke-miterlimit="10"/>
    <path d="M189.248 284.874H193.341L192.352 281.912H188.392L189.248 284.874Z" fill="white" stroke="#212121" stroke-width="0.805" stroke-miterlimit="10"/>
    <path d="M144.889 281.912L145.549 279.154H141.723L140.937 281.912H144.889Z" fill="white" stroke="#212121" stroke-width="0.805" stroke-miterlimit="10"/>
    <path d="M136.977 281.912L135.987 284.874H140.089L140.937 281.912H136.977Z" fill="white" stroke="#212121" stroke-width="0.805" stroke-miterlimit="10"/>
    <path d="M180.48 281.912L179.954 279.154H176.127L176.528 281.912H180.48Z" fill="white" stroke="#212121" stroke-width="0.805" stroke-miterlimit="10"/>
    <path d="M176.528 281.912L176.127 279.154H172.309L172.576 281.912H176.528Z" fill="white" stroke="#212121" stroke-width="0.805" stroke-miterlimit="10"/>
    <path d="M188.392 281.912L187.598 279.154H183.772L184.44 281.912H188.392Z" fill="white" stroke="#212121" stroke-width="0.805" stroke-miterlimit="10"/>
    <path d="M164.665 281.912V279.154H160.838L160.705 281.912H164.665Z" fill="white" stroke="#212121" stroke-width="0.805" stroke-miterlimit="10"/>
    <path d="M172.576 281.912L172.309 279.154H168.483L168.616 281.912H172.576Z" fill="white" stroke="#212121" stroke-width="0.805" stroke-miterlimit="10"/>
    <path d="M168.616 281.912L168.483 279.154H164.664V281.912H168.616Z" fill="white" stroke="#212121" stroke-width="0.805" stroke-miterlimit="10"/>
    <path d="M160.705 281.912L160.838 279.154H157.012L156.753 281.912H160.705Z" fill="white" stroke="#212121" stroke-width="0.805" stroke-miterlimit="10"/>
    <path d="M172.576 281.912L172.859 284.874H176.96L176.528 281.912H172.576Z" fill="white" stroke="#212121" stroke-width="0.805" stroke-miterlimit="10"/>
    <path d="M176.528 281.912L176.96 284.874H181.054L180.48 281.912H176.528Z" fill="white" stroke="#212121" stroke-width="0.805" stroke-miterlimit="10"/>
    <path d="M140.937 281.912L140.089 284.874H144.182L144.889 281.912H140.937Z" fill="white" stroke="#212121" stroke-width="0.805" stroke-miterlimit="10"/>
    <path d="M180.48 281.912L181.054 284.874H185.147L184.44 281.912H180.48Z" fill="white" stroke="#212121" stroke-width="0.805" stroke-miterlimit="10"/>
    <path d="M164.664 281.912V284.874H168.766L168.616 281.912H164.664Z" fill="white" stroke="#212121" stroke-width="0.805" stroke-miterlimit="10"/>
    <path d="M184.44 281.912L185.147 284.874H189.248L188.392 281.912H184.44Z" fill="white" stroke="#212121" stroke-width="0.805" stroke-miterlimit="10"/>
    <path d="M168.616 281.912L168.766 284.874H172.859L172.576 281.912H168.616Z" fill="white" stroke="#212121" stroke-width="0.805" stroke-miterlimit="10"/>
    <path d="M148.841 281.912L148.275 284.874H152.377L152.801 281.912H148.841Z" fill="white" stroke="#212121" stroke-width="0.805" stroke-miterlimit="10"/>
    <path d="M144.889 281.912L144.182 284.874H148.275L148.841 281.912H144.889Z" fill="white" stroke="#212121" stroke-width="0.805" stroke-miterlimit="10"/>
    <path d="M160.705 281.912L160.571 284.874H164.664V281.912H160.705Z" fill="white" stroke="#212121" stroke-width="0.805" stroke-miterlimit="10"/>
    <path d="M156.753 281.912L156.47 284.874H160.571L160.705 281.912H156.753Z" fill="white" stroke="#212121" stroke-width="0.805" stroke-miterlimit="10"/>
    <path d="M152.801 281.912L152.377 284.874H156.47L156.753 281.912H152.801Z" fill="white" stroke="#212121" stroke-width="0.805" stroke-miterlimit="10"/>
    <path d="M184.44 281.912L183.772 279.154H179.954L180.48 281.912H184.44Z" fill="white" stroke="#212121" stroke-width="0.805" stroke-miterlimit="10"/>
    <path d="M138.761 276.57L139.649 273.922H136.074L135.068 276.57H138.761Z" fill="white" stroke="#212121" stroke-width="0.805" stroke-miterlimit="10"/>
    <path d="M135.068 276.57H131.651L130.551 279.154H134.078L135.068 276.57Z" fill="white" stroke="#212121" stroke-width="0.805" stroke-miterlimit="10"/>
    <path d="M136.074 273.922H132.782L131.65 276.57H135.068L136.074 273.922Z" fill="white" stroke="#212121" stroke-width="0.805" stroke-miterlimit="10"/>
    <path d="M134.078 279.154H130.551L129.372 281.912H133.025L134.078 279.154Z" fill="white" stroke="#212121" stroke-width="0.805" stroke-miterlimit="10"/>
    <path d="M133.025 281.912H129.372L128.107 284.874H131.894L133.025 281.912Z" fill="white" stroke="#212121" stroke-width="0.805" stroke-miterlimit="10"/>
    <path d="M131.894 284.874H128.107L126.756 288.056H130.676L131.894 284.874Z" fill="white" stroke="#212121" stroke-width="0.805" stroke-miterlimit="10"/>
    <path d="M195.243 279.154L196.304 281.912H199.8L198.621 279.154H195.243Z" fill="white" stroke="#212121" stroke-width="0.805" stroke-miterlimit="10"/>
    <path d="M197.443 284.874H201.065L199.8 281.912H196.304L197.443 284.874Z" fill="white" stroke="#212121" stroke-width="0.805" stroke-miterlimit="10"/>
    <path d="M198.66 288.056H202.416L201.065 284.874H197.443L198.66 288.056Z" fill="white" stroke="#212121" stroke-width="0.805" stroke-miterlimit="10"/>
    <path d="M168.357 276.57L168.231 273.922H164.657V276.57H168.357Z" fill="white" stroke="#212121" stroke-width="0.805" stroke-miterlimit="10"/>
    <path d="M195.243 279.154H198.621L197.521 276.57H194.253L195.243 279.154Z" fill="white" stroke="#212121" stroke-width="0.805" stroke-miterlimit="10"/>
    <path d="M193.341 284.874H197.443L196.303 281.912H192.351L193.341 284.874Z" fill="white" stroke="#212121" stroke-width="0.805" stroke-miterlimit="10"/>
    <path d="M142.461 276.57L143.223 273.922H139.649L138.761 276.57H142.461Z" fill="white" stroke="#212121" stroke-width="0.805" stroke-miterlimit="10"/>
    <path d="M190.552 276.57L191.417 279.154H195.243L194.253 276.57H190.552Z" fill="white" stroke="#212121" stroke-width="0.805" stroke-miterlimit="10"/>
    <path d="M197.521 276.57L196.398 273.922H193.232L194.253 276.57H197.521Z" fill="white" stroke="#212121" stroke-width="0.805" stroke-miterlimit="10"/>
    <path d="M194.253 276.57L193.232 273.922H189.665L190.552 276.57H194.253Z" fill="white" stroke="#212121" stroke-width="0.805" stroke-miterlimit="10"/>
    <path d="M181.054 284.874L181.666 288.056H185.917L185.147 284.874H181.054Z" fill="white" stroke="#212121" stroke-width="0.805" stroke-miterlimit="10"/>
    <path d="M194.41 288.056H198.661L197.443 284.874H193.342L194.41 288.056Z" fill="white" stroke="#212121" stroke-width="0.805" stroke-miterlimit="10"/>
    <path d="M190.552 276.57L189.665 273.922H186.09L186.852 276.57H190.552Z" fill="white" stroke="#212121" stroke-width="0.805" stroke-miterlimit="10"/>
    <path d="M189.248 284.874L190.16 288.056H194.41L193.342 284.874H189.248Z" fill="white" stroke="#212121" stroke-width="0.805" stroke-miterlimit="10"/>
    <path d="M185.147 284.874L185.917 288.056H190.16L189.248 284.874H185.147Z" fill="white" stroke="#212121" stroke-width="0.805" stroke-miterlimit="10"/>
    <path d="M192.351 281.912H196.303L195.243 279.154H191.417L192.351 281.912Z" fill="white" stroke="#212121" stroke-width="0.805" stroke-miterlimit="10"/>
    <path d="M157.263 276.57L157.515 273.922H153.94L153.563 276.57H157.263Z" fill="white" stroke="#212121" stroke-width="0.805" stroke-miterlimit="10"/>
    <path d="M186.852 276.57L186.09 273.922H182.515L183.151 276.57H186.852Z" fill="white" stroke="#212121" stroke-width="0.805" stroke-miterlimit="10"/>
    <path d="M153.563 276.57L153.94 273.922H150.365L149.862 276.57H153.563Z" fill="white" stroke="#212121" stroke-width="0.805" stroke-miterlimit="10"/>
    <path d="M164.657 276.57V273.922H161.082L160.956 276.57H164.657Z" fill="white" stroke="#212121" stroke-width="0.805" stroke-miterlimit="10"/>
    <path d="M149.862 276.57L150.365 273.922H146.79L146.162 276.57H149.862Z" fill="white" stroke="#212121" stroke-width="0.805" stroke-miterlimit="10"/>
    <path d="M146.162 276.57L146.79 273.922H143.223L142.461 276.57H146.162Z" fill="white" stroke="#212121" stroke-width="0.805" stroke-miterlimit="10"/>
    <path d="M160.956 276.57L161.082 273.922H157.515L157.263 276.57H160.956Z" fill="white" stroke="#212121" stroke-width="0.805" stroke-miterlimit="10"/>
    <path d="M183.151 276.57L182.515 273.922H178.948L179.451 276.57H183.151Z" fill="white" stroke="#212121" stroke-width="0.805" stroke-miterlimit="10"/>
    <path d="M179.451 276.57L178.948 273.922H175.373L175.758 276.57H179.451Z" fill="white" stroke="#212121" stroke-width="0.805" stroke-miterlimit="10"/>
    <path d="M172.058 276.57L171.798 273.922H168.231L168.357 276.57H172.058Z" fill="white" stroke="#212121" stroke-width="0.805" stroke-miterlimit="10"/>
    <path d="M181.054 284.874H176.96H172.859H168.766H164.664H160.571H156.47H152.377H148.275H144.182H140.089L139.177 288.056H143.428H147.67H151.921H156.171H160.422H164.664H168.915H173.165H177.416H181.666L181.054 284.874Z" fill="white" stroke="#212121" stroke-width="0.805" stroke-miterlimit="10"/>
    <path d="M175.758 276.57L175.373 273.922H171.798L172.058 276.57H175.758Z" fill="white" stroke="#212121" stroke-width="0.805" stroke-miterlimit="10"/>
    <path d="M209.306 293.642H118.255V294.931H209.306V293.642Z" fill="#212121" stroke="#212121" stroke-width="0.805" stroke-miterlimit="10"/>
    <path d="M224.525 224.471H277.95V272.437H224.525C224.187 272.437 223.863 272.303 223.625 272.064C223.386 271.825 223.252 271.502 223.252 271.164V225.752C223.251 225.584 223.283 225.418 223.347 225.263C223.41 225.107 223.504 224.966 223.622 224.847C223.74 224.728 223.881 224.634 224.036 224.569C224.191 224.505 224.357 224.471 224.525 224.471Z" fill="white" stroke="#212121" stroke-width="0.805" stroke-linecap="round" stroke-linejoin="round"/>
    <path d="M279.789 224.471H224.69V272.437H279.789V224.471Z" fill="#212121" stroke="#212121" stroke-width="0.805" stroke-miterlimit="10"/>
    <path d="M276.78 228.266H228.932V268.642H276.78V228.266Z" fill="white" stroke="#212121" stroke-width="0.805" stroke-linecap="round" stroke-linejoin="round"/>
    <path d="M245.275 244.577L252.408 233.695L259.542 244.577H256.557V261.618H248.26V244.577H245.275Z" fill="#B75400"/>
    <path d="M224.69 272.437L266.456 284.513H322.765L279.789 272.437H224.69Z" fill="white" stroke="#212121" stroke-width="0.805" stroke-linecap="round" stroke-linejoin="round"/>
    <path d="M269.292 277.214L264.068 275.729L261.781 275.705L266.99 277.198L269.292 277.214Z" fill="white" stroke="#212121" stroke-width="0.20125" stroke-miterlimit="10"/>
    <path d="M273.842 277.253L268.601 275.776L266.346 275.752L271.571 277.237L273.842 277.253Z" fill="white" stroke="#212121" stroke-width="0.20125" stroke-miterlimit="10"/>
    <path d="M290.356 278.817L292.541 278.832L287.112 277.347L284.935 277.332L290.356 278.817Z" fill="white" stroke="#212121" stroke-width="0.20125" stroke-miterlimit="10"/>
    <path d="M266.99 277.198L261.781 275.705L259.479 275.682L264.673 277.182L266.99 277.198Z" fill="white" stroke="#212121" stroke-width="0.20125" stroke-miterlimit="10"/>
    <path d="M262.347 277.166L257.154 275.666L254.82 275.642L259.998 277.151L262.347 277.166Z" fill="white" stroke="#212121" stroke-width="0.20125" stroke-miterlimit="10"/>
    <path d="M282.751 277.316L277.471 275.855L275.279 275.839L280.543 277.3L282.751 277.316Z" fill="white" stroke="#212121" stroke-width="0.20125" stroke-miterlimit="10"/>
    <path d="M284.935 277.332L279.648 275.878L277.471 275.854L282.751 277.316L284.935 277.332Z" fill="white" stroke="#212121" stroke-width="0.20125" stroke-miterlimit="10"/>
    <path d="M259.998 277.151L254.82 275.642L252.463 275.619L257.625 277.135L259.998 277.151Z" fill="white" stroke="#212121" stroke-width="0.20125" stroke-miterlimit="10"/>
    <path d="M276.089 277.269L270.84 275.792L268.601 275.776L273.842 277.253L276.089 277.269Z" fill="white" stroke="#212121" stroke-width="0.20125" stroke-miterlimit="10"/>
    <path d="M287.111 277.347L281.816 275.902L279.648 275.878L284.935 277.332L287.111 277.347Z" fill="white" stroke="#212121" stroke-width="0.20125" stroke-miterlimit="10"/>
    <path d="M280.543 277.3L275.279 275.839L273.064 275.815L278.328 277.284L280.543 277.3Z" fill="white" stroke="#212121" stroke-width="0.20125" stroke-miterlimit="10"/>
    <path d="M278.328 277.284L273.064 275.815L270.84 275.792L276.089 277.269L278.328 277.284Z" fill="white" stroke="#212121" stroke-width="0.20125" stroke-miterlimit="10"/>
    <path d="M271.571 277.237L266.346 275.752L264.068 275.729L269.293 277.214L271.571 277.237Z" fill="white" stroke="#212121" stroke-width="0.20125" stroke-miterlimit="10"/>
    <path d="M255.245 277.112L252.84 277.096L258.12 278.659L260.532 278.675L255.245 277.112Z" fill="white" stroke="#212121" stroke-width="0.20125" stroke-miterlimit="10"/>
    <path d="M250.091 275.595L247.702 275.572L252.84 277.096L255.245 277.112L250.091 275.595Z" fill="white" stroke="#212121" stroke-width="0.20125" stroke-miterlimit="10"/>
    <path d="M257.625 277.135L252.463 275.619L250.091 275.595L255.245 277.111L257.625 277.135Z" fill="white" stroke="#212121" stroke-width="0.20125" stroke-miterlimit="10"/>
    <path d="M263.533 280.262L269.104 281.912H271.539L265.961 280.27L263.533 280.262Z" fill="white" stroke="#212121" stroke-width="0.20125" stroke-miterlimit="10"/>
    <path d="M260.532 278.675L258.12 278.659L263.533 280.262L265.961 280.27L260.532 278.675Z" fill="white" stroke="#212121" stroke-width="0.20125" stroke-miterlimit="10"/>
    <path d="M265.961 280.27L271.539 281.912H273.959L268.365 280.278L265.961 280.27Z" fill="white" stroke="#212121" stroke-width="0.20125" stroke-miterlimit="10"/>
    <path d="M264.673 277.182L259.479 275.682L257.154 275.666L262.347 277.166L264.673 277.182Z" fill="white" stroke="#212121" stroke-width="0.20125" stroke-miterlimit="10"/>
    <path d="M270.007 278.722L264.673 277.182L262.347 277.167L267.666 278.707L270.007 278.722Z" fill="white" stroke="#212121" stroke-width="0.20125" stroke-miterlimit="10"/>
    <path d="M267.666 278.707L262.347 277.167L259.998 277.151L265.309 278.699L267.666 278.707Z" fill="white" stroke="#212121" stroke-width="0.20125" stroke-miterlimit="10"/>
    <path d="M272.333 278.73L266.99 277.198L264.673 277.182L270.007 278.722L272.333 278.73Z" fill="white" stroke="#212121" stroke-width="0.20125" stroke-miterlimit="10"/>
    <path d="M257.625 277.135L255.245 277.112L260.532 278.675L262.929 278.683L257.625 277.135Z" fill="white" stroke="#212121" stroke-width="0.20125" stroke-miterlimit="10"/>
    <path d="M295.919 280.349L298.103 280.356L292.54 278.832L290.356 278.816L295.919 280.349Z" fill="white" stroke="#212121" stroke-width="0.20125" stroke-miterlimit="10"/>
    <path d="M265.309 278.699L259.998 277.151L257.625 277.135L262.929 278.683L265.309 278.699Z" fill="white" stroke="#212121" stroke-width="0.20125" stroke-miterlimit="10"/>
    <path d="M260.532 278.675L265.961 280.27L268.365 280.278L262.929 278.683L260.532 278.675Z" fill="white" stroke="#212121" stroke-width="0.20125" stroke-miterlimit="10"/>
    <path d="M285.949 278.801L280.543 277.3L278.328 277.284L283.717 278.785L285.949 278.801Z" fill="white" stroke="#212121" stroke-width="0.20125" stroke-miterlimit="10"/>
    <path d="M283.717 278.785L278.328 277.285L276.089 277.269L281.478 278.777L283.717 278.785Z" fill="white" stroke="#212121" stroke-width="0.20125" stroke-miterlimit="10"/>
    <path d="M290.356 278.816L284.935 277.331L282.751 277.316L288.164 278.809L290.356 278.816Z" fill="white" stroke="#212121" stroke-width="0.20125" stroke-miterlimit="10"/>
    <path d="M276.937 278.754L271.571 277.237L269.292 277.214L274.643 278.738L276.937 278.754Z" fill="white" stroke="#212121" stroke-width="0.20125" stroke-miterlimit="10"/>
    <path d="M281.478 278.777L276.089 277.269L273.842 277.253L279.216 278.762L281.478 278.777Z" fill="white" stroke="#212121" stroke-width="0.20125" stroke-miterlimit="10"/>
    <path d="M279.215 278.762L273.842 277.253L271.571 277.237L276.937 278.754L279.215 278.762Z" fill="white" stroke="#212121" stroke-width="0.20125" stroke-miterlimit="10"/>
    <path d="M274.643 278.738L269.292 277.214L266.99 277.198L272.333 278.73L274.643 278.738Z" fill="white" stroke="#212121" stroke-width="0.20125" stroke-miterlimit="10"/>
    <path d="M281.478 278.777L287.002 280.325L289.256 280.333L283.717 278.785L281.478 278.777Z" fill="white" stroke="#212121" stroke-width="0.20125" stroke-miterlimit="10"/>
    <path d="M283.717 278.785L289.256 280.333L291.488 280.341L285.949 278.801L283.717 278.785Z" fill="white" stroke="#212121" stroke-width="0.20125" stroke-miterlimit="10"/>
    <path d="M262.928 278.683L268.365 280.278L270.762 280.286L265.309 278.699L262.928 278.683Z" fill="white" stroke="#212121" stroke-width="0.20125" stroke-miterlimit="10"/>
    <path d="M285.949 278.801L291.488 280.341H293.711L288.164 278.809L285.949 278.801Z" fill="white" stroke="#212121" stroke-width="0.20125" stroke-miterlimit="10"/>
    <path d="M276.937 278.754L282.445 280.309L284.731 280.317L279.215 278.761L276.937 278.754Z" fill="white" stroke="#212121" stroke-width="0.20125" stroke-miterlimit="10"/>
    <path d="M288.164 278.809L293.711 280.341L295.919 280.349L290.356 278.816L288.164 278.809Z" fill="white" stroke="#212121" stroke-width="0.20125" stroke-miterlimit="10"/>
    <path d="M279.215 278.761L284.731 280.317L287.001 280.325L281.478 278.777L279.215 278.761Z" fill="white" stroke="#212121" stroke-width="0.20125" stroke-miterlimit="10"/>
    <path d="M267.666 278.706L273.127 280.294H275.484L270.007 278.722L267.666 278.706Z" fill="white" stroke="#212121" stroke-width="0.20125" stroke-miterlimit="10"/>
    <path d="M265.309 278.699L270.762 280.286L273.127 280.293L267.666 278.706L265.309 278.699Z" fill="white" stroke="#212121" stroke-width="0.20125" stroke-miterlimit="10"/>
    <path d="M274.643 278.738L280.143 280.309H282.445L276.937 278.754L274.643 278.738Z" fill="white" stroke="#212121" stroke-width="0.20125" stroke-miterlimit="10"/>
    <path d="M272.333 278.73L277.825 280.301L280.143 280.309L274.643 278.738L272.333 278.73Z" fill="white" stroke="#212121" stroke-width="0.20125" stroke-miterlimit="10"/>
    <path d="M270.007 278.722L275.484 280.293L277.825 280.301L272.333 278.73L270.007 278.722Z" fill="white" stroke="#212121" stroke-width="0.20125" stroke-miterlimit="10"/>
    <path d="M288.164 278.809L282.751 277.316L280.543 277.3L285.949 278.801L288.164 278.809Z" fill="white" stroke="#212121" stroke-width="0.20125" stroke-miterlimit="10"/>
    <path d="M250.091 275.595L244.599 273.977L242.226 273.953L247.702 275.572L250.091 275.595Z" fill="white" stroke="#212121" stroke-width="0.20125" stroke-miterlimit="10"/>
    <path d="M247.702 275.572L245.479 275.548L250.609 277.08L252.841 277.096L247.702 275.572Z" fill="white" stroke="#212121" stroke-width="0.20125" stroke-miterlimit="10"/>
    <path d="M242.226 273.953L240.018 273.922L245.479 275.548L247.702 275.572L242.226 273.953Z" fill="white" stroke="#212121" stroke-width="0.20125" stroke-miterlimit="10"/>
    <path d="M252.841 277.096L250.609 277.08L255.873 278.651L258.12 278.659L252.841 277.096Z" fill="white" stroke="#212121" stroke-width="0.20125" stroke-miterlimit="10"/>
    <path d="M258.12 278.659L255.873 278.651L261.279 280.262H263.533L258.12 278.659Z" fill="white" stroke="#212121" stroke-width="0.20125" stroke-miterlimit="10"/>
    <path d="M263.533 280.262H261.279L266.833 281.912H269.104L263.533 280.262Z" fill="white" stroke="#212121" stroke-width="0.20125" stroke-miterlimit="10"/>
    <path d="M289.272 277.363L294.709 278.84L296.61 278.856L291.166 277.379L289.272 277.363Z" fill="white" stroke="#212121" stroke-width="0.20125" stroke-miterlimit="10"/>
    <path d="M300.279 280.356L302.189 280.364L296.61 278.856L294.709 278.84L300.279 280.356Z" fill="white" stroke="#212121" stroke-width="0.20125" stroke-miterlimit="10"/>
    <path d="M305.999 281.912H307.908L302.189 280.364L300.28 280.356L305.999 281.912Z" fill="white" stroke="#212121" stroke-width="0.20125" stroke-miterlimit="10"/>
    <path d="M268.601 275.776L263.007 274.197L260.76 274.173L266.346 275.752L268.601 275.776Z" fill="white" stroke="#212121" stroke-width="0.20125" stroke-miterlimit="10"/>
    <path d="M289.272 277.363L291.166 277.379L285.854 275.941L283.961 275.917L289.272 277.363Z" fill="white" stroke="#212121" stroke-width="0.20125" stroke-miterlimit="10"/>
    <path d="M298.103 280.356H300.279L294.709 278.84L292.541 278.832L298.103 280.356Z" fill="white" stroke="#212121" stroke-width="0.20125" stroke-miterlimit="10"/>
    <path d="M252.463 275.619L246.956 274.008L244.599 273.977L250.091 275.595L252.463 275.619Z" fill="white" stroke="#212121" stroke-width="0.20125" stroke-miterlimit="10"/>
    <path d="M281.816 275.902L287.112 277.347L289.272 277.363L283.961 275.917L281.816 275.902Z" fill="white" stroke="#212121" stroke-width="0.20125" stroke-miterlimit="10"/>
    <path d="M285.854 275.941L280.182 274.401L278.304 274.377L283.961 275.917L285.854 275.941Z" fill="white" stroke="#212121" stroke-width="0.20125" stroke-miterlimit="10"/>
    <path d="M283.961 275.917L278.304 274.377L276.159 274.354L281.816 275.902L283.961 275.917Z" fill="white" stroke="#212121" stroke-width="0.20125" stroke-miterlimit="10"/>
    <path d="M291.488 280.341L297.176 281.912H299.407L293.711 280.341H291.488Z" fill="white" stroke="#212121" stroke-width="0.20125" stroke-miterlimit="10"/>
    <path d="M303.815 281.912H305.999L300.279 280.356H298.103L303.815 281.912Z" fill="white" stroke="#212121" stroke-width="0.20125" stroke-miterlimit="10"/>
    <path d="M281.816 275.902L276.159 274.354L274.006 274.33L279.648 275.878L281.816 275.902Z" fill="white" stroke="#212121" stroke-width="0.20125" stroke-miterlimit="10"/>
    <path d="M295.919 280.348L301.615 281.912H303.815L298.103 280.356L295.919 280.348Z" fill="white" stroke="#212121" stroke-width="0.20125" stroke-miterlimit="10"/>
    <path d="M293.711 280.341L299.407 281.912H301.615L295.919 280.348L293.711 280.341Z" fill="white" stroke="#212121" stroke-width="0.20125" stroke-miterlimit="10"/>
    <path d="M292.541 278.832L294.709 278.84L289.272 277.363L287.112 277.347L292.541 278.832Z" fill="white" stroke="#212121" stroke-width="0.20125" stroke-miterlimit="10"/>
    <path d="M261.781 275.705L256.227 274.118L253.933 274.087L259.479 275.682L261.781 275.705Z" fill="white" stroke="#212121" stroke-width="0.20125" stroke-miterlimit="10"/>
    <path d="M279.648 275.878L274.007 274.33L271.838 274.299L277.471 275.854L279.648 275.878Z" fill="white" stroke="#212121" stroke-width="0.20125" stroke-miterlimit="10"/>
    <path d="M259.48 275.682L253.933 274.087L251.623 274.063L257.154 275.666L259.48 275.682Z" fill="white" stroke="#212121" stroke-width="0.20125" stroke-miterlimit="10"/>
    <path d="M266.346 275.752L260.76 274.173L258.505 274.142L264.068 275.729L266.346 275.752Z" fill="white" stroke="#212121" stroke-width="0.20125" stroke-miterlimit="10"/>
    <path d="M257.154 275.666L251.623 274.063L249.297 274.032L254.82 275.642L257.154 275.666Z" fill="white" stroke="#212121" stroke-width="0.20125" stroke-miterlimit="10"/>
    <path d="M254.82 275.642L249.297 274.032L246.956 274.008L252.463 275.619L254.82 275.642Z" fill="white" stroke="#212121" stroke-width="0.20125" stroke-miterlimit="10"/>
    <path d="M264.068 275.729L258.505 274.142L256.227 274.118L261.781 275.705L264.068 275.729Z" fill="white" stroke="#212121" stroke-width="0.20125" stroke-miterlimit="10"/>
    <path d="M277.471 275.855L271.838 274.299L269.654 274.275L275.279 275.839L277.471 275.855Z" fill="white" stroke="#212121" stroke-width="0.20125" stroke-miterlimit="10"/>
    <path d="M275.279 275.839L269.654 274.275L267.454 274.252L273.064 275.815L275.279 275.839Z" fill="white" stroke="#212121" stroke-width="0.20125" stroke-miterlimit="10"/>
    <path d="M270.84 275.792L265.238 274.22L263.007 274.197L268.601 275.776L270.84 275.792Z" fill="white" stroke="#212121" stroke-width="0.20125" stroke-miterlimit="10"/>
    <path d="M291.488 280.341L289.257 280.333L287.002 280.325L284.731 280.317L282.445 280.309H280.143L277.825 280.301L275.484 280.294H273.127L270.762 280.286L268.365 280.278L273.959 281.912H276.356H278.744H281.109H283.45H285.784H288.094H290.388H292.666H294.929H297.176L291.488 280.341Z" fill="white" stroke="#212121" stroke-width="0.20125" stroke-miterlimit="10"/>
    <path d="M273.064 275.815L267.454 274.252L265.238 274.22L270.84 275.792L273.064 275.815Z" fill="white" stroke="#212121" stroke-width="0.20125" stroke-miterlimit="10"/>
    <path d="M224.69 272.437V274.04L266.44 286.571L266.456 284.513L224.69 272.437Z" fill="white" stroke="#212121" stroke-width="0.805" stroke-linecap="round" stroke-linejoin="round"/>
    <path d="M322.765 284.513H266.456V286.563H322.765V284.513Z" fill="#212121" stroke="#212121" stroke-width="0.805" stroke-linecap="round" stroke-linejoin="round"/>
    <path d="M100.923 272.437H47.497L47.497 224.472H100.923C101.26 224.472 101.584 224.606 101.823 224.844C102.061 225.083 102.196 225.407 102.196 225.744V271.156C102.197 271.324 102.164 271.49 102.101 271.646C102.037 271.801 101.944 271.942 101.826 272.061C101.707 272.18 101.567 272.275 101.412 272.339C101.257 272.404 101.091 272.437 100.923 272.437Z" fill="white" stroke="#212121" stroke-width="0.805" stroke-linecap="round" stroke-linejoin="round"/>
    <path d="M45.6587 272.437H100.758V224.472H45.6587L45.6587 272.437Z" fill="#212121" stroke="#212121" stroke-width="0.805" stroke-miterlimit="10"/>
    <path d="M48.6677 268.642H96.5151V228.266H48.6677L48.6677 268.642Z" fill="white" stroke="#212121" stroke-width="0.805" stroke-linecap="round" stroke-linejoin="round"/>
    <path d="M77.1799 244.577L70.046 233.695L62.9121 244.577H65.8977V261.618H74.1944V244.577H77.1799Z" fill="#B75400"/>
    <path d="M100.758 272.437L58.9915 284.513H2.68237L45.6587 272.437H100.758Z" fill="white" stroke="#212121" stroke-width="0.805" stroke-linecap="round" stroke-linejoin="round"/>
    <path d="M56.1554 277.214L61.3801 275.729L63.6664 275.705L58.4574 277.198L56.1554 277.214Z" fill="white" stroke="#212121" stroke-width="0.20125" stroke-miterlimit="10"/>
    <path d="M51.6062 277.253L56.8466 275.776L59.1015 275.752L53.8768 277.237L51.6062 277.253Z" fill="white" stroke="#212121" stroke-width="0.20125" stroke-miterlimit="10"/>
    <path d="M35.0914 278.817L32.9072 278.832L38.3362 277.347L40.5125 277.332L35.0914 278.817Z" fill="white" stroke="#212121" stroke-width="0.20125" stroke-miterlimit="10"/>
    <path d="M58.4573 277.198L63.6663 275.705L65.9683 275.682L60.775 277.182L58.4573 277.198Z" fill="white" stroke="#212121" stroke-width="0.20125" stroke-miterlimit="10"/>
    <path d="M63.1006 277.166L68.2939 275.666L70.6273 275.642L65.4498 277.151L63.1006 277.166Z" fill="white" stroke="#212121" stroke-width="0.20125" stroke-miterlimit="10"/>
    <path d="M42.6968 277.316L47.9765 275.855L50.1685 275.839L44.9045 277.3L42.6968 277.316Z" fill="white" stroke="#212121" stroke-width="0.20125" stroke-miterlimit="10"/>
    <path d="M40.5125 277.332L45.8 275.878L47.9763 275.854L42.6966 277.316L40.5125 277.332Z" fill="white" stroke="#212121" stroke-width="0.20125" stroke-miterlimit="10"/>
    <path d="M65.4498 277.151L70.6274 275.642L72.9844 275.619L67.8225 277.135L65.4498 277.151Z" fill="white" stroke="#212121" stroke-width="0.20125" stroke-miterlimit="10"/>
    <path d="M49.3593 277.269L54.6075 275.792L56.8467 275.776L51.6063 277.253L49.3593 277.269Z" fill="white" stroke="#212121" stroke-width="0.20125" stroke-miterlimit="10"/>
    <path d="M38.3363 277.347L43.6317 275.902L45.8002 275.878L40.5126 277.332L38.3363 277.347Z" fill="white" stroke="#212121" stroke-width="0.20125" stroke-miterlimit="10"/>
    <path d="M44.9044 277.3L50.1684 275.839L52.384 275.815L47.12 277.284L44.9044 277.3Z" fill="white" stroke="#212121" stroke-width="0.20125" stroke-miterlimit="10"/>
    <path d="M47.1201 277.284L52.3841 275.815L54.6076 275.792L49.3593 277.269L47.1201 277.284Z" fill="white" stroke="#212121" stroke-width="0.20125" stroke-miterlimit="10"/>
    <path d="M53.8767 277.237L59.1014 275.752L61.3799 275.729L56.1552 277.214L53.8767 277.237Z" fill="white" stroke="#212121" stroke-width="0.20125" stroke-miterlimit="10"/>
    <path d="M70.203 277.112L72.6072 277.096L67.3274 278.659L64.9154 278.675L70.203 277.112Z" fill="white" stroke="#212121" stroke-width="0.20125" stroke-miterlimit="10"/>
    <path d="M75.3571 275.595L77.7456 275.572L72.6073 277.096L70.2031 277.112L75.3571 275.595Z" fill="white" stroke="#212121" stroke-width="0.20125" stroke-miterlimit="10"/>
    <path d="M67.8225 277.135L72.9844 275.619L75.3571 275.595L70.2031 277.111L67.8225 277.135Z" fill="white" stroke="#212121" stroke-width="0.20125" stroke-miterlimit="10"/>
    <path d="M61.9142 280.262L56.3438 281.912H53.9082L59.4865 280.27L61.9142 280.262Z" fill="white" stroke="#212121" stroke-width="0.20125" stroke-miterlimit="10"/>
    <path d="M64.9156 278.675L67.3276 278.659L61.9143 280.262L59.4866 280.27L64.9156 278.675Z" fill="white" stroke="#212121" stroke-width="0.20125" stroke-miterlimit="10"/>
    <path d="M59.4864 280.27L53.9082 281.912H51.4883L57.0744 280.278L59.4864 280.27Z" fill="white" stroke="#212121" stroke-width="0.20125" stroke-miterlimit="10"/>
    <path d="M60.775 277.182L65.9683 275.682L68.2939 275.666L63.1006 277.166L60.775 277.182Z" fill="white" stroke="#212121" stroke-width="0.20125" stroke-miterlimit="10"/>
    <path d="M55.4403 278.722L60.775 277.182L63.1006 277.167L57.7816 278.707L55.4403 278.722Z" fill="white" stroke="#212121" stroke-width="0.20125" stroke-miterlimit="10"/>
    <path d="M57.7816 278.707L63.1006 277.167L65.4498 277.151L60.1386 278.699L57.7816 278.707Z" fill="white" stroke="#212121" stroke-width="0.20125" stroke-miterlimit="10"/>
    <path d="M53.1147 278.73L58.4573 277.198L60.7751 277.182L55.4403 278.722L53.1147 278.73Z" fill="white" stroke="#212121" stroke-width="0.20125" stroke-miterlimit="10"/>
    <path d="M67.8226 277.135L70.2032 277.112L64.9156 278.675L62.5193 278.683L67.8226 277.135Z" fill="white" stroke="#212121" stroke-width="0.20125" stroke-miterlimit="10"/>
    <path d="M29.5289 280.349L27.3447 280.356L32.9073 278.832L35.0915 278.816L29.5289 280.349Z" fill="white" stroke="#212121" stroke-width="0.20125" stroke-miterlimit="10"/>
    <path d="M60.1387 278.699L65.4498 277.151L67.8225 277.135L62.5193 278.683L60.1387 278.699Z" fill="white" stroke="#212121" stroke-width="0.20125" stroke-miterlimit="10"/>
    <path d="M64.9156 278.675L59.4866 280.27L57.0746 280.278L62.5193 278.683L64.9156 278.675Z" fill="white" stroke="#212121" stroke-width="0.20125" stroke-miterlimit="10"/>
    <path d="M39.4989 278.801L44.9043 277.3L47.1199 277.284L41.7302 278.785L39.4989 278.801Z" fill="white" stroke="#212121" stroke-width="0.20125" stroke-miterlimit="10"/>
    <path d="M41.7303 278.785L47.1201 277.285L49.3592 277.269L43.9695 278.777L41.7303 278.785Z" fill="white" stroke="#212121" stroke-width="0.20125" stroke-miterlimit="10"/>
    <path d="M35.0913 278.816L40.5124 277.331L42.6966 277.316L37.2833 278.809L35.0913 278.816Z" fill="white" stroke="#212121" stroke-width="0.20125" stroke-miterlimit="10"/>
    <path d="M48.5106 278.754L53.8768 277.237L56.1552 277.214L50.8048 278.738L48.5106 278.754Z" fill="white" stroke="#212121" stroke-width="0.20125" stroke-miterlimit="10"/>
    <path d="M43.9695 278.777L49.3592 277.269L51.6062 277.253L46.2322 278.762L43.9695 278.777Z" fill="white" stroke="#212121" stroke-width="0.20125" stroke-miterlimit="10"/>
    <path d="M46.2322 278.762L51.6062 277.253L53.8768 277.237L48.5106 278.754L46.2322 278.762Z" fill="white" stroke="#212121" stroke-width="0.20125" stroke-miterlimit="10"/>
    <path d="M50.8049 278.738L56.1554 277.214L58.4574 277.198L53.1148 278.73L50.8049 278.738Z" fill="white" stroke="#212121" stroke-width="0.20125" stroke-miterlimit="10"/>
    <path d="M43.9694 278.777L38.4462 280.325L36.1913 280.333L41.7303 278.785L43.9694 278.777Z" fill="white" stroke="#212121" stroke-width="0.20125" stroke-miterlimit="10"/>
    <path d="M41.7304 278.785L36.1914 280.333L33.9601 280.341L39.4991 278.801L41.7304 278.785Z" fill="white" stroke="#212121" stroke-width="0.20125" stroke-miterlimit="10"/>
    <path d="M62.5192 278.683L57.0745 280.278L54.686 280.286L60.1386 278.699L62.5192 278.683Z" fill="white" stroke="#212121" stroke-width="0.20125" stroke-miterlimit="10"/>
    <path d="M39.4989 278.801L33.9599 280.341H31.7365L37.2833 278.809L39.4989 278.801Z" fill="white" stroke="#212121" stroke-width="0.20125" stroke-miterlimit="10"/>
    <path d="M48.5108 278.754L43.0032 280.309L40.7169 280.317L46.2323 278.761L48.5108 278.754Z" fill="white" stroke="#212121" stroke-width="0.20125" stroke-miterlimit="10"/>
    <path d="M37.2834 278.809L31.7365 280.341L29.5288 280.349L35.0914 278.816L37.2834 278.809Z" fill="white" stroke="#212121" stroke-width="0.20125" stroke-miterlimit="10"/>
    <path d="M46.2322 278.761L40.7168 280.317L38.4462 280.325L43.9694 278.777L46.2322 278.761Z" fill="white" stroke="#212121" stroke-width="0.20125" stroke-miterlimit="10"/>
    <path d="M57.7816 278.706L52.3211 280.294H49.9641L55.4402 278.722L57.7816 278.706Z" fill="white" stroke="#212121" stroke-width="0.20125" stroke-miterlimit="10"/>
    <path d="M60.1386 278.699L54.686 280.286L52.3212 280.293L57.7816 278.706L60.1386 278.699Z" fill="white" stroke="#212121" stroke-width="0.20125" stroke-miterlimit="10"/>
    <path d="M50.8049 278.738L45.3052 280.309H43.0032L48.5107 278.754L50.8049 278.738Z" fill="white" stroke="#212121" stroke-width="0.20125" stroke-miterlimit="10"/>
    <path d="M53.1148 278.73L47.6229 280.301L45.3052 280.309L50.8049 278.738L53.1148 278.73Z" fill="white" stroke="#212121" stroke-width="0.20125" stroke-miterlimit="10"/>
    <path d="M55.4402 278.722L49.9641 280.293L47.6228 280.301L53.1147 278.73L55.4402 278.722Z" fill="white" stroke="#212121" stroke-width="0.20125" stroke-miterlimit="10"/>
    <path d="M37.2834 278.809L42.6967 277.316L44.9045 277.3L39.499 278.801L37.2834 278.809Z" fill="white" stroke="#212121" stroke-width="0.20125" stroke-miterlimit="10"/>
    <path d="M75.3571 275.595L80.8489 273.977L83.2216 273.953L77.7455 275.572L75.3571 275.595Z" fill="white" stroke="#212121" stroke-width="0.20125" stroke-miterlimit="10"/>
    <path d="M77.7455 275.572L79.9689 275.548L74.8385 277.08L72.6072 277.096L77.7455 275.572Z" fill="white" stroke="#212121" stroke-width="0.20125" stroke-miterlimit="10"/>
    <path d="M83.2216 273.953L85.4294 273.922L79.9689 275.548L77.7455 275.572L83.2216 273.953Z" fill="white" stroke="#212121" stroke-width="0.20125" stroke-miterlimit="10"/>
    <path d="M72.6072 277.096L74.8385 277.08L69.5745 278.651L67.3275 278.659L72.6072 277.096Z" fill="white" stroke="#212121" stroke-width="0.20125" stroke-miterlimit="10"/>
    <path d="M67.3275 278.659L69.5745 278.651L64.1691 280.262H61.9142L67.3275 278.659Z" fill="white" stroke="#212121" stroke-width="0.20125" stroke-miterlimit="10"/>
    <path d="M61.9143 280.262H64.1692L58.6145 281.912H56.3439L61.9143 280.262Z" fill="white" stroke="#212121" stroke-width="0.20125" stroke-miterlimit="10"/>
    <path d="M36.1756 277.363L30.7387 278.84L28.8374 278.856L34.2821 277.379L36.1756 277.363Z" fill="white" stroke="#212121" stroke-width="0.20125" stroke-miterlimit="10"/>
    <path d="M25.1685 280.356L23.2593 280.364L28.8375 278.856L30.7389 278.84L25.1685 280.356Z" fill="white" stroke="#212121" stroke-width="0.20125" stroke-miterlimit="10"/>
    <path d="M19.4487 281.912H17.5396L23.2592 280.364L25.1684 280.356L19.4487 281.912Z" fill="white" stroke="#212121" stroke-width="0.20125" stroke-miterlimit="10"/>
    <path d="M56.8468 275.776L62.4408 274.197L64.6878 274.173L59.1017 275.752L56.8468 275.776Z" fill="white" stroke="#212121" stroke-width="0.20125" stroke-miterlimit="10"/>
    <path d="M36.1757 277.363L34.2822 277.379L39.5934 275.941L41.479 275.917L36.1757 277.363Z" fill="white" stroke="#212121" stroke-width="0.20125" stroke-miterlimit="10"/>
    <path d="M27.3446 280.356H25.1683L30.7387 278.84L32.9072 278.832L27.3446 280.356Z" fill="white" stroke="#212121" stroke-width="0.20125" stroke-miterlimit="10"/>
    <path d="M72.9843 275.619L78.4918 274.008L80.8488 273.977L75.357 275.595L72.9843 275.619Z" fill="white" stroke="#212121" stroke-width="0.20125" stroke-miterlimit="10"/>
    <path d="M43.6316 275.902L38.3361 277.347L36.1755 277.363L41.4788 275.917L43.6316 275.902Z" fill="white" stroke="#212121" stroke-width="0.20125" stroke-miterlimit="10"/>
    <path d="M39.5933 275.941L45.2658 274.401L47.1436 274.377L41.4789 275.917L39.5933 275.941Z" fill="white" stroke="#212121" stroke-width="0.20125" stroke-miterlimit="10"/>
    <path d="M41.4789 275.917L47.1436 274.377L49.2885 274.354L43.6316 275.902L41.4789 275.917Z" fill="white" stroke="#212121" stroke-width="0.20125" stroke-miterlimit="10"/>
    <path d="M33.96 280.341L28.2717 281.912H26.0404L31.7365 280.341H33.96Z" fill="white" stroke="#212121" stroke-width="0.20125" stroke-miterlimit="10"/>
    <path d="M21.6328 281.912H19.4486L25.1683 280.356H27.3446L21.6328 281.912Z" fill="white" stroke="#212121" stroke-width="0.20125" stroke-miterlimit="10"/>
    <path d="M43.6317 275.902L49.2886 274.354L51.4413 274.33L45.8002 275.878L43.6317 275.902Z" fill="white" stroke="#212121" stroke-width="0.20125" stroke-miterlimit="10"/>
    <path d="M29.5289 280.348L23.8328 281.912H21.6329L27.3448 280.356L29.5289 280.348Z" fill="white" stroke="#212121" stroke-width="0.20125" stroke-miterlimit="10"/>
    <path d="M31.7366 280.341L26.0405 281.912H23.8328L29.5289 280.348L31.7366 280.341Z" fill="white" stroke="#212121" stroke-width="0.20125" stroke-miterlimit="10"/>
    <path d="M32.9071 278.832L30.7386 278.84L36.1755 277.363L38.3361 277.347L32.9071 278.832Z" fill="white" stroke="#212121" stroke-width="0.20125" stroke-miterlimit="10"/>
    <path d="M63.6663 275.705L69.221 274.118L71.5151 274.087L65.9683 275.682L63.6663 275.705Z" fill="white" stroke="#212121" stroke-width="0.20125" stroke-miterlimit="10"/>
    <path d="M45.8002 275.878L51.4413 274.33L53.6097 274.299L47.9765 275.854L45.8002 275.878Z" fill="white" stroke="#212121" stroke-width="0.20125" stroke-miterlimit="10"/>
    <path d="M65.9683 275.682L71.5151 274.087L73.825 274.063L68.2939 275.666L65.9683 275.682Z" fill="white" stroke="#212121" stroke-width="0.20125" stroke-miterlimit="10"/>
    <path d="M59.1016 275.752L64.6877 274.173L66.9426 274.142L61.38 275.729L59.1016 275.752Z" fill="white" stroke="#212121" stroke-width="0.20125" stroke-miterlimit="10"/>
    <path d="M68.2938 275.666L73.825 274.063L76.1506 274.032L70.6273 275.642L68.2938 275.666Z" fill="white" stroke="#212121" stroke-width="0.20125" stroke-miterlimit="10"/>
    <path d="M70.6272 275.642L76.1505 274.032L78.4918 274.008L72.9842 275.619L70.6272 275.642Z" fill="white" stroke="#212121" stroke-width="0.20125" stroke-miterlimit="10"/>
    <path d="M61.38 275.729L66.9426 274.142L69.221 274.118L63.6663 275.705L61.38 275.729Z" fill="white" stroke="#212121" stroke-width="0.20125" stroke-miterlimit="10"/>
    <path d="M47.9764 275.855L53.6097 274.299L55.7939 274.275L50.1685 275.839L47.9764 275.855Z" fill="white" stroke="#212121" stroke-width="0.20125" stroke-miterlimit="10"/>
    <path d="M50.1683 275.839L55.7937 274.275L57.9936 274.252L52.3839 275.815L50.1683 275.839Z" fill="white" stroke="#212121" stroke-width="0.20125" stroke-miterlimit="10"/>
    <path d="M54.6074 275.792L60.2093 274.22L62.4406 274.197L56.8466 275.776L54.6074 275.792Z" fill="white" stroke="#212121" stroke-width="0.20125" stroke-miterlimit="10"/>
    <path d="M33.9601 280.341L36.1914 280.333L38.4463 280.325L40.7169 280.317L43.0032 280.309H45.3052L47.623 280.301L49.9643 280.294H52.3213L54.6862 280.286L57.0746 280.278L51.4885 281.912H49.0922H46.7037H44.3467H41.9975H39.6641H37.3542H35.0601H32.7816H30.5189H28.2719L33.9601 280.341Z" fill="white" stroke="#212121" stroke-width="0.20125" stroke-miterlimit="10"/>
    <path d="M52.384 275.815L57.9937 274.252L60.2093 274.22L54.6075 275.792L52.384 275.815Z" fill="white" stroke="#212121" stroke-width="0.20125" stroke-miterlimit="10"/>
    <path d="M100.758 272.437V274.04L58.9993 286.571L58.9915 284.513L100.758 272.437Z" fill="white" stroke="#212121" stroke-width="0.805" stroke-linecap="round" stroke-linejoin="round"/>
    <path d="M2.68231 286.571H58.9915V284.52H2.68231V286.571Z" fill="#212121" stroke="#212121" stroke-width="0.805" stroke-linecap="round" stroke-linejoin="round"/>
</svg>
