<svg width="324" height="284" viewBox="0 0 324 284" fill="none" xmlns="http://www.w3.org/2000/svg">
  <path d="M52.5245 170.317C52.5711 170.317 53.3797 167.207 53.4108 166.981C53.7373 164.649 52.9832 159.844 50.573 158.678C50.1668 158.496 49.7269 158.401 49.2817 158.4C48.8365 158.399 48.3961 158.492 47.9891 158.672C47.5821 158.853 47.2176 159.117 46.9194 159.447C46.6211 159.778 46.3958 160.167 46.2581 160.591C45.6128 162.363 46.4369 164.548 47.4009 166.033C48.5438 167.805 52.5245 170.309 52.5245 170.317Z" fill="#B75400"/>
  <path d="M66.5581 153.313C63.8913 153.034 60.7348 156.68 59.7552 158.865C59.6775 159.051 58.6978 162.161 58.7445 162.153H58.8067C58.3013 162.729 57.7649 163.351 57.1973 164.035C56.1555 165.318 54.9893 166.771 53.8309 168.443C52.5583 170.225 51.3927 172.082 50.34 174.002C49.1445 176.146 48.1453 178.395 47.3546 180.719V180.805C47.3546 180.027 47.3546 177.827 47.3079 177.656C47.0047 175.285 44.9755 170.884 42.3788 170.394C41.9388 170.325 41.4891 170.349 41.0592 170.466C40.6292 170.582 40.2287 170.788 39.8838 171.07C39.5389 171.352 39.2573 171.703 39.0576 172.101C38.8578 172.499 38.7444 172.935 38.7247 173.38C38.5692 175.261 39.9375 177.151 41.267 178.34C42.7675 179.677 46.9425 180.984 47.2768 181.085C46.5195 183.447 45.9221 185.857 45.4886 188.3C45.2321 189.73 45.0222 191.176 44.8278 192.638C44.8278 191.961 44.8278 191.355 44.8278 191.27C44.5246 188.898 42.4954 184.49 39.8986 184.008C39.4593 183.939 39.0103 183.963 38.5808 184.079C38.1514 184.194 37.7513 184.4 37.4064 184.681C37.0616 184.962 36.78 185.312 36.5797 185.709C36.3795 186.106 36.2653 186.541 36.2445 186.986C36.089 188.875 37.4574 190.756 38.7868 191.946C40.1163 193.135 43.6771 194.333 44.6101 194.636L44.4002 196.315C44.0814 198.998 43.7704 201.688 43.3895 204.308C43.2573 205.233 43.0863 206.135 42.923 207.044C42.923 206.438 42.923 205.933 42.923 205.855C42.612 203.484 40.5906 199.083 37.9938 198.593C37.5539 198.524 37.1042 198.548 36.6743 198.665C36.2443 198.781 35.8438 198.987 35.4989 199.269C35.1539 199.55 34.8724 199.902 34.6727 200.3C34.4729 200.698 34.3595 201.134 34.3397 201.579C34.1842 203.46 35.5526 205.349 36.8821 206.539C38.2115 207.729 41.4225 208.809 42.5343 209.167C42.3399 210.092 42.1455 211.017 41.9201 211.904C41.749 212.502 41.6246 213.093 41.4147 213.692C41.2048 214.29 41.0337 214.866 40.8471 215.449C40.4429 216.553 40.0697 217.696 39.6187 218.769C39.3311 219.546 39.0434 220.222 38.7558 220.93C38.9035 220.013 39.1523 218.209 39.1523 218.053C39.1225 215.95 38.5551 213.889 37.504 212.067C37.5117 211.833 37.4961 211.598 37.4574 211.367C37.4031 210.924 37.2556 210.497 37.0246 210.115C36.7936 209.733 36.4844 209.404 36.1172 209.15C35.75 208.896 35.3332 208.722 34.8942 208.641C34.4552 208.559 34.0039 208.572 33.57 208.677C30.9811 209.369 29.3406 213.909 29.2162 216.296C29.2162 216.436 29.3017 217.976 29.3717 218.947C29.2473 218.38 29.1229 217.836 28.983 217.26C28.7108 216.11 28.4076 214.975 28.0811 213.754C27.9101 213.171 27.7312 212.58 27.5446 211.989C27.358 211.398 27.1326 210.784 26.9227 210.178C26.4095 208.778 25.8264 207.379 25.2045 205.995C26.2074 205.754 29.7527 204.844 31.1754 203.756C32.5982 202.667 34.0909 200.887 34.0754 198.998C34.0878 198.553 34.0064 198.111 33.8364 197.7C33.6664 197.289 33.4118 196.918 33.089 196.613C32.7662 196.307 32.3826 196.072 31.9631 195.925C31.5436 195.777 31.0977 195.719 30.6545 195.756C27.9956 196.043 25.6787 200.28 25.2122 202.628C25.2122 202.776 25.0256 204.494 24.9557 205.435C24.5747 204.603 24.1782 203.771 23.7895 202.939C22.5999 200.545 21.3171 198.158 20.0576 195.771L18.907 193.571C19.2646 193.485 23.5018 192.506 25.1267 191.277C26.5417 190.197 28.05 188.416 28.0344 186.527C28.0467 186.082 27.9653 185.64 27.7954 185.228C27.6255 184.817 27.371 184.446 27.0483 184.14C26.7257 183.833 26.3422 183.598 25.9227 183.449C25.5033 183.301 25.0572 183.242 24.6136 183.277C21.9469 183.565 19.6378 187.81 19.1713 190.15C19.1713 190.329 18.907 192.801 18.8836 193.439C18.044 191.821 17.2276 190.204 16.4813 188.579C15.4614 186.388 14.5887 184.131 13.869 181.823C14.0322 181.823 18.4638 180.781 20.0887 179.53C21.5037 178.441 23.0042 176.661 22.9887 174.772C23.0011 174.327 22.9196 173.885 22.7497 173.474C22.5797 173.063 22.325 172.693 22.0023 172.387C21.6795 172.081 21.2959 171.846 20.8764 171.699C20.4569 171.551 20.011 171.493 19.5678 171.53C16.9089 171.817 14.5998 176.062 14.1255 178.402C14.1255 178.558 13.9234 180.439 13.8612 181.341H13.7135C13.0434 179.003 12.5879 176.609 12.3529 174.189C12.1974 172.859 12.1352 171.576 12.0963 170.301C12.936 170.2 16.7611 169.687 18.3783 168.746C19.9954 167.805 21.597 166.212 21.7914 164.33C21.8515 163.89 21.8183 163.441 21.694 163.014C21.5696 162.587 21.3568 162.191 21.0694 161.851C20.782 161.512 20.4264 161.237 20.0257 161.044C19.6251 160.851 19.1883 160.744 18.7437 160.731C16.0692 160.731 13.3014 164.688 12.5706 166.95C12.5706 167.075 12.2596 168.373 12.0808 169.329C12.0808 168.762 12.0808 168.186 12.0808 167.642C12.0808 165.621 12.2129 163.755 12.3451 162.122C12.4229 161.189 12.5084 160.35 12.6017 159.564C13.3791 159.028 16.489 156.843 17.4298 155.28C18.3705 153.718 19.1169 151.556 18.4249 149.792C18.275 149.373 18.0388 148.991 17.7317 148.67C17.4245 148.348 17.0533 148.095 16.6421 147.927C16.2309 147.758 15.7888 147.678 15.3446 147.691C14.9003 147.704 14.4638 147.811 14.0633 148.003C11.5288 149.294 10.899 154.091 11.2955 156.423C11.2955 156.633 12.2285 159.759 12.2674 159.728H12.314C12.2129 160.505 12.1119 161.283 12.0108 162.184C11.8475 163.825 11.6843 165.683 11.6376 167.712C11.5606 169.903 11.6125 172.097 11.7931 174.282C11.9808 176.728 12.3867 179.153 13.006 181.528C13.006 181.528 13.006 181.59 13.006 181.613C12.5784 180.952 11.3422 179.141 11.2333 179.009C9.67839 177.205 5.58113 174.632 3.11655 175.673C2.71138 175.858 2.34965 176.125 2.055 176.459C1.76034 176.793 1.53939 177.185 1.40658 177.61C1.27377 178.034 1.23209 178.483 1.28426 178.925C1.33643 179.367 1.48127 179.793 1.70933 180.175C2.61897 181.839 4.81921 182.655 6.56852 182.912C8.55884 183.199 12.7883 181.987 13.0915 181.885C13.782 184.287 14.6313 186.64 15.6338 188.929C16.2091 190.267 16.8311 191.596 17.4764 192.918C17.0955 192.358 16.7456 191.86 16.6989 191.79C15.144 189.987 11.0467 187.413 8.58216 188.455C8.17956 188.643 7.82089 188.914 7.52931 189.249C7.23773 189.585 7.01971 189.978 6.88931 190.403C6.75891 190.827 6.71903 191.275 6.77225 191.716C6.82546 192.157 6.97059 192.583 7.19826 192.964C8.1079 194.62 10.3081 195.445 12.0574 195.701C13.8068 195.958 17.4531 194.994 18.4016 194.729L19.1791 196.245C20.3919 198.663 21.6203 201.073 22.7477 203.476C23.1442 204.315 23.5251 205.163 23.8672 206.01C23.5251 205.513 23.2375 205.101 23.183 205.038C21.6281 203.227 17.5308 200.654 15.0663 201.703C14.6617 201.888 14.3008 202.156 14.0069 202.49C13.7131 202.824 13.493 203.217 13.3609 203.641C13.2289 204.066 13.1878 204.514 13.2406 204.956C13.2933 205.397 13.4385 205.823 13.6668 206.205C14.5764 207.861 16.7767 208.677 18.526 208.941C20.2753 209.206 23.564 208.327 24.6913 208.016C25.0412 208.887 25.3833 209.773 25.6787 210.636C25.8731 211.235 26.0908 211.795 26.254 212.401C26.4173 213.008 26.5806 213.598 26.7516 214.182C27.0237 215.332 27.3114 216.514 27.5291 217.634C27.7001 218.411 27.8556 219.188 28.0033 219.911C27.6224 219.064 26.8294 217.424 26.7438 217.291C25.4766 215.27 21.8225 212.106 19.2257 212.767C18.7976 212.888 18.4 213.098 18.0586 213.384C17.7173 213.669 17.44 214.023 17.2448 214.423C17.0497 214.823 16.9411 215.259 16.926 215.704C16.911 216.149 16.9899 216.592 17.1576 217.004C17.8107 218.776 19.8399 219.919 21.5504 220.44C23.4318 221.015 27.5913 220.487 28.1122 220.44C28.361 221.684 28.5942 222.897 28.7886 224.04C29.4961 228.02 29.9237 231.356 30.1958 233.696C30.2425 234.108 30.2813 234.473 30.3202 234.831H22.2578L24.738 283.361H39.3855L41.8734 234.831H34.363L34.5341 234.489C35.5604 232.335 36.9909 229.257 38.5381 225.478C39.0279 224.289 39.5254 223.006 40.0308 221.684C40.5284 221.785 44.6956 222.625 46.5771 222.189C48.3186 221.801 50.4644 220.813 51.2419 219.08C51.4382 218.681 51.5484 218.245 51.5656 217.801C51.5827 217.357 51.5063 216.914 51.3414 216.502C51.1765 216.089 50.9267 215.716 50.6082 215.406C50.2897 215.096 49.9096 214.856 49.4926 214.702C46.9503 213.847 43.0785 216.732 41.6557 218.652C41.5702 218.769 40.8005 220.106 40.3262 220.984C40.5284 220.44 40.7305 219.919 40.9327 219.359C41.337 218.255 41.7101 217.136 42.1144 215.939C42.2855 215.356 42.4643 214.765 42.6431 214.166C42.8219 213.567 42.9619 212.938 43.1251 212.316C43.4672 210.862 43.7471 209.377 43.9959 207.876C44.96 208.226 48.4197 209.431 50.2156 209.307C52.0116 209.182 54.2352 208.529 55.2614 206.974C55.5176 206.61 55.6941 206.196 55.7793 205.759C55.8646 205.322 55.8567 204.872 55.7562 204.439C55.6557 204.005 55.4648 203.598 55.196 203.243C54.9272 202.888 54.5865 202.594 54.1963 202.38C51.8172 201.151 47.5489 203.414 45.8541 205.101C45.753 205.202 44.6723 206.555 44.0892 207.301C44.2369 206.399 44.3769 205.497 44.4935 204.572C44.82 201.921 45.0766 199.223 45.3331 196.533L45.5897 194.068C45.9318 194.193 50.0135 195.709 52.0194 195.569C53.7998 195.445 56.0311 194.791 57.0652 193.237C57.3213 192.872 57.4978 192.458 57.5831 192.021C57.6683 191.585 57.6604 191.135 57.5599 190.701C57.4594 190.267 57.2685 189.86 56.9997 189.505C56.7309 189.15 56.3903 188.856 56 188.642C53.621 187.413 49.3527 189.676 47.6578 191.363C47.5334 191.495 45.9784 193.431 45.6053 193.944C45.7996 192.14 46.0095 190.337 46.2817 188.572C46.6471 186.182 47.1665 183.819 47.8366 181.497C47.9921 181.559 52.2448 183.16 54.2974 183.052C56.0778 182.927 58.3091 182.274 59.3431 180.719C59.5993 180.355 59.7758 179.941 59.8611 179.504C59.9463 179.067 59.9384 178.617 59.8379 178.184C59.7374 177.75 59.5465 177.342 59.2777 176.988C59.0089 176.633 58.6682 176.339 58.278 176.124C55.899 174.896 51.6306 177.158 49.9358 178.846C49.8269 178.962 48.6452 180.439 48.0932 181.178L47.961 181.108C48.6905 178.788 49.6299 176.54 50.7677 174.391C51.3741 173.193 52.0272 172.058 52.6802 171.032C53.4577 171.413 56.933 173.108 58.7989 173.178C60.6648 173.248 62.8806 172.851 64.0779 171.39C64.3671 171.055 64.5835 170.664 64.7131 170.242C64.8428 169.819 64.8829 169.374 64.831 168.935C64.779 168.496 64.6362 168.073 64.4114 167.693C64.1867 167.312 63.8852 166.982 63.5259 166.725C61.2946 165.24 56.8008 167.028 54.9738 168.513C54.8727 168.598 53.9242 169.531 53.2478 170.231C53.551 169.757 53.8542 169.259 54.1574 168.808C55.277 167.121 56.4043 165.644 57.415 164.346C57.9981 163.615 58.5346 162.962 59.0477 162.355C59.9884 162.355 63.7825 162.223 65.4385 161.446C67.0945 160.668 68.906 159.269 69.3259 157.418C69.4673 156.965 69.5049 156.485 69.4359 156.015C69.367 155.544 69.1932 155.096 68.9275 154.701C68.6618 154.307 68.3109 153.978 67.9008 153.738C67.4906 153.498 67.0318 153.352 66.5581 153.313ZM37.0764 224.841C35.4671 228.541 33.9665 231.566 32.917 233.665C32.707 234.085 32.5127 234.442 32.3339 234.808H32.1239C32.0695 234.396 32.0151 233.953 31.9451 233.447C31.6186 231.115 31.1055 227.725 30.3124 223.729C30.0636 222.462 29.776 221.117 29.465 219.733C30.7177 219.231 31.9404 218.657 33.1269 218.014C34.4952 219.499 38.0094 221.233 38.4603 221.459C38.0172 222.617 37.5662 223.752 37.0764 224.841Z" fill="#B75400"/>
  <path d="M4.97434 169.283C6.89469 170.122 11.5984 170.014 11.6062 170.014C11.6139 170.014 10.5954 166.904 10.5021 166.748C9.46811 164.595 6.21051 161.026 3.55157 161.391C3.11355 161.464 2.69563 161.627 2.32483 161.872C1.95403 162.116 1.63861 162.435 1.39897 162.809C1.15934 163.182 1.00083 163.602 0.933693 164.041C0.866559 164.48 0.892296 164.928 1.00924 165.356C1.4524 167.199 3.3572 168.567 4.97434 169.283Z" fill="#B75400"/>
  <path opacity="0.3" d="M4.97434 169.283C6.89469 170.122 11.5984 170.014 11.6062 170.014C11.6139 170.014 10.5954 166.904 10.5021 166.748C9.46811 164.595 6.21051 161.026 3.55157 161.391C3.11355 161.464 2.69563 161.627 2.32483 161.872C1.95403 162.116 1.63861 162.435 1.39897 162.809C1.15934 163.182 1.00083 163.602 0.933693 164.041C0.866559 164.48 0.892296 164.928 1.00924 165.356C1.4524 167.199 3.3572 168.567 4.97434 169.283Z" fill="white"/>
  <path opacity="0.3" d="M52.5245 170.317C52.5711 170.317 53.3797 167.207 53.4108 166.981C53.7373 164.649 52.9832 159.844 50.573 158.678C50.1668 158.496 49.7269 158.401 49.2817 158.4C48.8365 158.399 48.3961 158.492 47.9891 158.672C47.5821 158.853 47.2176 159.117 46.9194 159.447C46.6211 159.778 46.3958 160.167 46.2581 160.591C45.6128 162.363 46.4369 164.548 47.4009 166.033C48.5438 167.805 52.5245 170.309 52.5245 170.317Z" fill="white"/>
  <path opacity="0.3" d="M13.1226 181.87C13.8131 184.272 14.6624 186.625 15.6649 188.914C16.2402 190.251 16.8622 191.581 17.5075 192.902C17.1265 192.342 16.7767 191.845 16.73 191.775C15.1751 189.971 11.0778 187.398 8.61326 188.44C8.20585 188.625 7.84211 188.894 7.5458 189.229C7.24949 189.564 7.0273 189.958 6.89374 190.385C6.76018 190.813 6.71827 191.263 6.77075 191.707C6.82322 192.152 6.9689 192.58 7.19826 192.964C8.1079 194.62 10.3081 195.445 12.0574 195.701C13.8068 195.958 17.4531 194.994 18.4016 194.729L19.1791 196.245C20.3919 198.663 21.6203 201.073 22.7477 203.476C23.1442 204.315 23.5251 205.163 23.8672 206.01C23.5251 205.513 23.2375 205.101 23.183 205.038C21.6281 203.227 17.5308 200.654 15.0663 201.703C14.6617 201.888 14.3008 202.156 14.0069 202.49C13.7131 202.824 13.493 203.217 13.3609 203.641C13.2289 204.066 13.1878 204.514 13.2406 204.956C13.2933 205.397 13.4385 205.823 13.6668 206.205C14.5764 207.861 16.7767 208.677 18.526 208.941C20.2753 209.206 23.564 208.327 24.6913 208.016C25.0412 208.887 25.3833 209.773 25.6787 210.636C25.8731 211.235 26.0908 211.795 26.254 212.401C26.4173 213.008 26.5806 213.598 26.7516 214.182C27.0237 215.332 27.3114 216.514 27.5291 217.634C27.7001 218.411 27.8556 219.188 28.0033 219.911C27.6224 219.064 26.8294 217.424 26.7438 217.291C25.4766 215.27 21.8225 212.106 19.2257 212.767C18.7976 212.888 18.4 213.098 18.0586 213.384C17.7173 213.669 17.44 214.023 17.2448 214.423C17.0497 214.823 16.941 215.259 16.926 215.704C16.911 216.149 16.9899 216.592 17.1576 217.004C17.8107 218.776 19.8399 219.919 21.5504 220.44C23.4318 221.015 27.5913 220.487 28.1122 220.44C28.361 221.684 28.5942 222.897 28.7886 224.04C29.4961 228.02 29.9237 231.356 30.1958 233.696C30.2425 234.108 30.2813 234.473 30.3202 234.831H22.2578L24.738 283.361H39.3855L41.8734 234.831H34.363L34.5341 234.489C35.5603 232.335 36.9909 229.257 38.5381 225.478C39.0279 224.289 39.5254 223.006 40.0308 221.684C40.5284 221.785 44.6956 222.625 46.5771 222.189C48.3186 221.801 50.4644 220.813 51.2419 219.08C51.4382 218.681 51.5484 218.245 51.5656 217.801C51.5827 217.357 51.5063 216.914 51.3414 216.502C51.1765 216.089 50.9267 215.716 50.6082 215.406C50.2897 215.096 49.9096 214.856 49.4926 214.702C46.9503 213.847 43.0785 216.732 41.6557 218.652C41.5702 218.769 40.8005 220.106 40.3262 220.984C40.5284 220.44 40.7305 219.919 40.9327 219.359C41.3369 218.255 41.7101 217.136 42.1144 215.939C42.2855 215.356 42.4643 214.765 42.6431 214.166C42.8219 213.567 42.9619 212.938 43.1251 212.316C43.4672 210.862 43.7471 209.377 43.9959 207.876C44.96 208.226 48.4197 209.431 50.2156 209.307C52.0116 209.182 54.2352 208.529 55.2614 206.974C55.5176 206.61 55.6941 206.196 55.7793 205.759C55.8646 205.322 55.8567 204.872 55.7562 204.439C55.6556 204.005 55.4647 203.598 55.196 203.243C54.9272 202.888 54.5865 202.594 54.1963 202.38C51.8172 201.151 47.5489 203.414 45.854 205.101C45.753 205.202 44.6723 206.555 44.0892 207.301C44.2369 206.399 44.3769 205.497 44.4935 204.572C44.82 201.921 45.0766 199.223 45.3331 196.533L45.5897 194.068C45.9318 194.193 50.0135 195.709 52.0194 195.569C53.7998 195.445 56.0311 194.791 57.0652 193.237C57.3213 192.872 57.4978 192.458 57.5831 192.021C57.6683 191.585 57.6604 191.135 57.5599 190.701C57.4594 190.267 57.2685 189.86 56.9997 189.505C56.7309 189.15 56.3903 188.856 56 188.642C53.621 187.413 49.3527 189.676 47.6578 191.363C47.5334 191.495 45.9784 193.431 45.6053 193.944C45.7996 192.14 46.0095 190.337 46.2817 188.572C46.6471 186.182 47.1665 183.819 47.8366 181.497C47.9921 181.559 52.2448 183.16 54.2974 183.052C56.0778 182.927 58.3091 182.274 59.3431 180.719C59.5993 180.355 59.7758 179.941 59.8611 179.504C59.9463 179.067 59.9384 178.617 59.8379 178.184C59.7374 177.75 59.5465 177.342 59.2777 176.988C59.0089 176.633 58.6682 176.339 58.278 176.124C55.8989 174.896 51.6306 177.158 49.9358 178.846C49.8269 178.962 48.6452 180.439 48.0932 181.178L47.961 181.108C48.6905 178.788 49.6299 176.54 50.7677 174.391C51.3741 173.193 52.0272 172.058 52.6802 171.032C53.4577 171.413 56.933 173.108 58.7989 173.178C60.6648 173.248 62.8806 172.851 64.0779 171.39C64.3671 171.055 64.5835 170.664 64.7131 170.242C64.8428 169.819 64.8829 169.374 64.831 168.935C64.779 168.496 64.6362 168.073 64.4114 167.693C64.1867 167.312 63.8852 166.982 63.5259 166.725C61.2946 165.24 56.8008 167.028 54.9738 168.513C54.8727 168.598 53.9242 169.531 53.2478 170.231C53.551 169.757 53.8542 169.259 54.1574 168.808C55.277 167.121 56.4043 165.644 57.415 164.346C57.9981 163.615 58.5346 162.962 59.0477 162.355C59.9884 162.355 63.7825 162.223 65.4385 161.446C67.0945 160.668 68.906 159.269 69.3259 157.418C69.43 156.988 69.4426 156.54 69.3629 156.103C69.2832 155.667 69.1129 155.253 68.8631 154.886C68.6133 154.52 68.2895 154.21 67.9125 153.977C67.5356 153.743 67.1139 153.592 66.6747 153.531C64.008 153.251 60.8514 156.898 59.8718 159.082C59.7941 159.269 58.8145 162.379 58.8611 162.371H58.9233C58.418 162.946 57.8815 163.568 57.3139 164.252C56.2721 165.535 55.1059 166.989 53.9475 168.661C52.675 170.443 51.5093 172.299 50.4567 174.22C49.2611 176.364 48.2619 178.612 47.4712 180.937V181.022C47.4712 180.245 47.4712 178.045 47.4245 177.874C47.1213 175.502 45.0921 171.102 42.4954 170.612C42.0554 170.543 41.6057 170.567 41.1758 170.683C40.7459 170.8 40.3453 171.006 40.0004 171.287C39.6555 171.569 39.3739 171.921 39.1742 172.319C38.9745 172.717 38.861 173.153 38.8413 173.598C38.6858 175.479 40.0541 177.368 41.3836 178.558C42.8841 179.895 47.0591 181.201 47.3934 181.302C46.6059 183.591 45.9696 185.928 45.4886 188.3C45.2321 189.73 45.0222 191.176 44.8278 192.638C44.8278 191.961 44.8278 191.355 44.8278 191.27C44.5246 188.898 42.4954 184.49 39.8986 184.008C39.4593 183.939 39.0103 183.963 38.5808 184.079C38.1514 184.194 37.7512 184.4 37.4064 184.681C37.0616 184.962 36.78 185.312 36.5797 185.709C36.3795 186.106 36.2653 186.541 36.2445 186.986C36.089 188.875 37.4574 190.756 38.7868 191.946C40.1163 193.135 43.6771 194.333 44.6101 194.636L44.4002 196.315C44.0814 198.998 43.7704 201.688 43.3895 204.308C43.2573 205.233 43.0863 206.135 42.923 207.044C42.923 206.438 42.923 205.933 42.923 205.855C42.612 203.484 40.5906 199.083 37.9938 198.593C37.5539 198.524 37.1042 198.548 36.6743 198.665C36.2443 198.781 35.8438 198.987 35.4989 199.269C35.1539 199.55 34.8724 199.902 34.6727 200.3C34.4729 200.698 34.3595 201.134 34.3397 201.579C34.1842 203.46 35.5526 205.349 36.882 206.539C38.2115 207.729 41.4225 208.809 42.5343 209.167C42.3399 210.092 42.1455 211.017 41.92 211.904C41.749 212.502 41.6246 213.093 41.4147 213.692C41.2048 214.29 41.0337 214.866 40.8471 215.449C40.4429 216.553 40.0697 217.696 39.6187 218.769C39.3311 219.546 39.0434 220.222 38.7557 220.93C38.9035 220.013 39.1523 218.209 39.1523 218.053C39.1225 215.95 38.5551 213.889 37.504 212.067C37.5117 211.833 37.4961 211.598 37.4574 211.367C37.4031 210.924 37.2556 210.497 37.0246 210.115C36.7936 209.733 36.4844 209.404 36.1172 209.15C35.75 208.896 35.3332 208.722 34.8942 208.641C34.4552 208.559 34.0039 208.572 33.57 208.677C30.9811 209.369 29.3406 213.909 29.2162 216.296C29.2162 216.436 29.3017 217.976 29.3717 218.947C29.2473 218.38 29.1229 217.836 28.983 217.26C28.7108 216.11 28.4076 214.975 28.0811 213.754C27.9101 213.171 27.7312 212.58 27.5446 211.989C27.358 211.398 27.1326 210.784 26.9227 210.178C26.4095 208.778 25.8264 207.379 25.2045 205.995C26.2074 205.754 29.7527 204.844 31.1754 203.756C32.5982 202.667 34.0909 200.887 34.0754 198.998C34.0878 198.553 34.0064 198.111 33.8364 197.7C33.6664 197.289 33.4118 196.918 33.089 196.613C32.7662 196.307 32.3826 196.072 31.9631 195.925C31.5436 195.777 31.0977 195.719 30.6545 195.756C27.9956 196.043 25.6787 200.28 25.2122 202.628C25.2122 202.776 25.0256 204.494 24.9557 205.435C24.5747 204.603 24.1782 203.771 23.7895 202.939C22.5999 200.545 21.3171 198.158 20.0576 195.771L18.907 193.571C19.2646 193.485 23.5018 192.506 25.1267 191.277C26.5417 190.197 28.05 188.416 28.0344 186.527C28.0467 186.082 27.9653 185.64 27.7954 185.228C27.6255 184.817 27.371 184.446 27.0483 184.14C26.7257 183.833 26.3422 183.598 25.9227 183.449C25.5032 183.301 25.0572 183.242 24.6136 183.277C21.9469 183.565 19.6378 187.81 19.1713 190.15C19.1713 190.329 18.907 192.801 18.8836 193.439C18.044 191.821 17.2276 190.204 16.4812 188.579C15.4614 186.388 14.5887 184.131 13.869 181.823C14.0322 181.823 18.4638 180.781 20.0887 179.53C21.5037 178.441 23.0042 176.661 22.9887 174.772C23.0011 174.327 22.9196 173.885 22.7497 173.474C22.5797 173.063 22.325 172.693 22.0023 172.387C21.6795 172.081 21.2959 171.846 20.8764 171.699C20.4569 171.551 20.011 171.493 19.5678 171.53C16.9089 171.817 14.5998 176.062 14.1255 178.402C14.1255 178.558 13.9234 180.439 13.8612 181.341H13.7135C13.0434 179.003 12.5879 176.609 12.3529 174.189C12.1974 172.859 12.1352 171.576 12.0963 170.301C12.936 170.2 16.7611 169.687 18.3783 168.746C19.9954 167.805 21.597 166.212 21.7914 164.33C21.8515 163.89 21.8183 163.441 21.694 163.014C21.5696 162.587 21.3568 162.191 21.0694 161.851C20.782 161.512 20.4264 161.237 20.0257 161.044C19.6251 160.851 19.1883 160.744 18.7437 160.731C16.0692 160.731 13.3014 164.688 12.5706 166.95C12.5706 167.075 12.2596 168.373 12.0808 169.329C12.0808 168.762 12.0808 168.186 12.0808 167.642C12.0808 165.621 12.2129 163.755 12.3451 162.122C12.4229 161.189 12.5084 160.35 12.6017 159.564C13.3791 159.028 16.489 156.843 17.4298 155.28C18.3705 153.718 19.1169 151.556 18.4249 149.792C18.275 149.373 18.0388 148.991 17.7317 148.67C17.4245 148.348 17.0533 148.095 16.6421 147.927C16.2309 147.758 15.7888 147.678 15.3446 147.691C14.9003 147.704 14.4638 147.811 14.0633 148.003C11.5288 149.294 10.899 154.091 11.2955 156.423C11.2955 156.633 12.2285 159.759 12.2674 159.728H12.314C12.2129 160.505 12.1119 161.283 12.0108 162.184C11.8475 163.825 11.6843 165.683 11.6376 167.712C11.5606 169.903 11.6125 172.097 11.7931 174.282C11.9808 176.728 12.3867 179.153 13.006 181.528C13.006 181.528 13.006 181.59 13.006 181.613C12.5784 180.952 11.3422 179.141 11.2333 179.009C9.67839 177.205 5.58113 174.632 3.11655 175.673C2.71138 175.858 2.34965 176.125 2.055 176.459C1.76034 176.793 1.53939 177.185 1.40658 177.61C1.27377 178.034 1.23209 178.483 1.28426 178.925C1.33643 179.367 1.48127 179.793 1.70933 180.175C2.61897 181.839 4.81921 182.655 6.56852 182.912C8.58994 183.184 12.7883 181.971 13.1226 181.87ZM33.158 217.999C34.5263 219.484 38.0405 221.218 38.4914 221.443C38.0172 222.617 37.5429 223.776 37.0764 224.825C35.4671 228.526 33.9665 231.55 32.917 233.649C32.707 234.069 32.5127 234.427 32.3338 234.792H32.1239C32.0695 234.38 32.0151 233.937 31.9451 233.432C31.6186 231.099 31.1054 227.709 30.3124 223.713C30.0636 222.446 29.776 221.101 29.465 219.717C30.7283 219.217 31.9614 218.643 33.158 217.999Z" fill="white"/>
  <path d="M54.0713 104.488H294.465C296.622 104.488 298.69 105.345 300.215 106.87C301.74 108.395 302.597 110.464 302.597 112.621V271.085H45.939V112.621C45.939 110.464 46.7958 108.395 48.3209 106.87C49.846 105.345 51.9145 104.488 54.0713 104.488V104.488Z" stroke="#212121" stroke-width="0.805" stroke-linecap="round" stroke-linejoin="round"/>
  <path d="M292.179 117.503H56.3491V250.777H292.179V117.503Z" stroke="#212121" stroke-width="0.805" stroke-linecap="round" stroke-linejoin="round"/>
  <path d="M263.047 263.061H86.6628V271.753H263.047V263.061Z" fill="#212121" stroke="#212121" stroke-width="0.805" stroke-linecap="round" stroke-linejoin="round"/>
  <path d="M263.047 267.244H86.6628V271.753H263.047V267.244Z" fill="white" stroke="#212121" stroke-width="0.805" stroke-linecap="round" stroke-linejoin="round"/>
  <path d="M25.1804 276.931C25.1804 276.931 28.0804 280.477 36.7725 283.369H312.937C312.937 283.369 319.375 281.759 322.267 277.258L25.1804 276.931Z" fill="#212121" stroke="#212121" stroke-width="0.805" stroke-linecap="round" stroke-linejoin="round"/>
  <path d="M321.428 270.564H26.0668C25.2553 270.564 24.5974 271.222 24.5974 272.033V275.858C24.5974 276.67 25.2553 277.328 26.0668 277.328H321.428C322.239 277.328 322.897 276.67 322.897 275.858V272.033C322.897 271.222 322.239 270.564 321.428 270.564Z" fill="white" stroke="#212121" stroke-width="0.805" stroke-linecap="round" stroke-linejoin="round"/>
  <path d="M176.46 109.526C176.46 109.08 176.328 108.644 176.08 108.273C175.832 107.902 175.479 107.613 175.067 107.443C174.654 107.272 174.201 107.228 173.763 107.316C173.326 107.403 172.924 107.619 172.609 107.935C172.294 108.251 172.08 108.653 171.994 109.091C171.907 109.529 171.953 109.983 172.125 110.395C172.297 110.807 172.587 111.158 172.959 111.405C173.331 111.652 173.767 111.783 174.214 111.781C174.509 111.781 174.802 111.723 175.075 111.609C175.348 111.496 175.596 111.33 175.805 111.12C176.014 110.911 176.179 110.662 176.292 110.389C176.404 110.115 176.462 109.822 176.46 109.526Z" fill="white" stroke="#212121" stroke-width="0.805" stroke-linecap="round" stroke-linejoin="round"/>
  <path d="M48.3567 151.37C48.1869 151.37 48.0239 151.303 47.9032 151.184C47.7824 151.064 47.7135 150.902 47.7114 150.732V132.073C47.7135 131.903 47.7824 131.741 47.9032 131.622C48.0239 131.502 48.1869 131.436 48.3567 131.436C48.5265 131.436 48.6895 131.502 48.8103 131.622C48.9311 131.741 49 131.903 49.002 132.073V150.732C49 150.902 48.9311 151.064 48.8103 151.184C48.6895 151.303 48.5265 151.37 48.3567 151.37Z" fill="#212121" stroke="white" stroke-width="0.556809" stroke-miterlimit="10"/>
  <path d="M228.139 117.503V250.73" stroke="#212121" stroke-width="0.805" stroke-linecap="round" stroke-linejoin="round"/>
  <path d="M231.443 117.503V250.73" stroke="#212121" stroke-width="0.805" stroke-linecap="round" stroke-linejoin="round"/>
  <path d="M56.4814 241.93H228.139" stroke="#212121" stroke-width="0.805" stroke-linecap="round" stroke-linejoin="round"/>
  <path d="M64.0461 225.338H122.108" stroke="#212121" stroke-width="0.805" stroke-linecap="round" stroke-linejoin="round"/>
  <path d="M64.0461 219.81H122.108" stroke="#212121" stroke-width="0.805" stroke-linecap="round" stroke-linejoin="round"/>
  <path d="M64.0461 214.283H122.108" stroke="#212121" stroke-width="0.805" stroke-linecap="round" stroke-linejoin="round"/>
  <path d="M64.0461 208.755H122.108" stroke="#212121" stroke-width="0.805" stroke-linecap="round" stroke-linejoin="round"/>
  <path d="M64.0461 203.219H122.108" stroke="#212121" stroke-width="0.805" stroke-linecap="round" stroke-linejoin="round"/>
  <path d="M64.0461 187.095H122.108" stroke="#212121" stroke-width="0.805" stroke-linecap="round" stroke-linejoin="round"/>
  <path d="M64.0461 181.567H122.108" stroke="#212121" stroke-width="0.805" stroke-linecap="round" stroke-linejoin="round"/>
  <path d="M64.0461 176.039H122.108" stroke="#212121" stroke-width="0.805" stroke-linecap="round" stroke-linejoin="round"/>
  <path d="M64.0461 170.511H122.108" stroke="#212121" stroke-width="0.805" stroke-linecap="round" stroke-linejoin="round"/>
  <path d="M64.0461 164.976H122.108" stroke="#212121" stroke-width="0.805" stroke-linecap="round" stroke-linejoin="round"/>
  <path d="M263.296 130.129C263.09 130.129 262.892 130.211 262.746 130.357C262.601 130.503 262.519 130.701 262.519 130.907L262.472 131.918H249.924L249.185 149.512H273.287L273.839 136.178L274.025 131.918L274.103 130.16L263.296 130.129Z" fill="#B75400" stroke="#212121" stroke-width="0.805" stroke-linecap="round" stroke-linejoin="round"/>
  <path d="M273.287 149.481L273.178 133.115H250.017L250.203 149.286L273.287 149.481Z" fill="white" stroke="#212121" stroke-width="0.805" stroke-linecap="round" stroke-linejoin="round"/>
  <path d="M273.287 149.481L272.229 133.115H249.068L249.255 149.286L273.287 149.481Z" fill="white" stroke="#212121" stroke-width="0.805" stroke-linecap="round" stroke-linejoin="round"/>
  <path d="M249.185 149.481L245.966 132.609H270.216L273.287 149.481H249.185Z" fill="#B75400" stroke="#212121" stroke-width="0.805" stroke-linecap="round" stroke-linejoin="round"/>
  <path d="M263.296 159.86C263.096 159.86 262.904 159.936 262.76 160.074C262.615 160.211 262.529 160.399 262.519 160.598L262.472 161.617H249.924L249.185 179.211H273.287L273.839 165.87L274.025 161.617L274.103 159.86H263.296Z" fill="#B75400" stroke="#212121" stroke-width="0.805" stroke-linecap="round" stroke-linejoin="round"/>
  <path d="M273.287 179.211L273.178 162.845H250.017L250.203 179.009L273.287 179.211Z" fill="white" stroke="#212121" stroke-width="0.805" stroke-linecap="round" stroke-linejoin="round"/>
  <path d="M273.287 179.211L272.229 162.845H249.068L249.255 179.009L273.287 179.211Z" fill="white" stroke="#212121" stroke-width="0.805" stroke-linecap="round" stroke-linejoin="round"/>
  <path d="M249.185 179.211L245.966 162.332H270.216L273.287 179.211H249.185Z" fill="#B75400" stroke="#212121" stroke-width="0.805" stroke-linecap="round" stroke-linejoin="round"/>
  <path d="M263.296 189.582C263.09 189.582 262.892 189.664 262.746 189.81C262.601 189.956 262.519 190.154 262.519 190.36L262.472 191.371H249.924L249.185 208.965H273.287L273.839 195.631L274.025 191.371L274.103 189.614L263.296 189.582Z" fill="#B75400" stroke="#212121" stroke-width="0.805" stroke-linecap="round" stroke-linejoin="round"/>
  <path d="M273.287 208.934L273.178 192.568H250.017L250.203 208.739L273.287 208.934Z" fill="white" stroke="#212121" stroke-width="0.805" stroke-linecap="round" stroke-linejoin="round"/>
  <path d="M273.287 208.934L272.229 192.568H249.068L249.255 208.739L273.287 208.934Z" fill="white" stroke="#212121" stroke-width="0.805" stroke-linecap="round" stroke-linejoin="round"/>
  <path d="M249.185 208.934L245.966 192.055H270.216L273.287 208.934H249.185Z" fill="#B75400" stroke="#212121" stroke-width="0.805" stroke-linecap="round" stroke-linejoin="round"/>
  <path d="M263.296 219.313C263.096 219.313 262.904 219.389 262.76 219.527C262.615 219.664 262.529 219.852 262.519 220.052L262.472 221.07H249.924L249.185 238.664H273.287L273.839 225.323L274.025 221.07L274.103 219.313H263.296Z" fill="#B75400" stroke="#212121" stroke-width="0.805" stroke-linecap="round" stroke-linejoin="round"/>
  <path d="M273.287 238.664L273.178 222.298H250.017L250.203 238.462L273.287 238.664Z" fill="white" stroke="#212121" stroke-width="0.805" stroke-linecap="round" stroke-linejoin="round"/>
  <path d="M273.287 238.664L272.229 222.298H249.068L249.255 238.462L273.287 238.664Z" fill="white" stroke="#212121" stroke-width="0.805" stroke-linecap="round" stroke-linejoin="round"/>
  <path d="M249.185 238.664L245.966 221.785H270.216L273.287 238.664H249.185Z" fill="#B75400" stroke="#212121" stroke-width="0.805" stroke-linecap="round" stroke-linejoin="round"/>
  <path d="M197.118 267.096C198.176 268.62 198.75 270.427 198.766 272.282C198.611 274.956 205.219 277.872 207.031 276.768C208.842 275.664 209.153 272.678 207.808 270.789C206.555 269.164 205.216 267.607 203.797 266.124C203.4 265.65 203.4 265.261 202.141 265.261C200.881 265.261 197.592 265.207 197.118 267.096Z" fill="#212121" stroke="#212121" stroke-width="0.805" stroke-linecap="round" stroke-linejoin="round"/>
  <path d="M208.166 271.403C208.195 272.07 208.129 272.737 207.972 273.386C207.575 274.801 207.194 274.879 207.194 274.879L206.487 273.775L204.994 274.171L204.916 275.586C204.065 275.633 203.212 275.527 202.397 275.275C201.526 274.879 199.8 273.938 199.482 272.049C199.143 270.66 198.559 269.343 197.756 268.161C198.448 269.423 198.799 270.843 198.774 272.282C198.619 274.956 205.227 277.872 207.039 276.768C208.656 275.78 209.068 273.269 208.166 271.403Z" fill="white" stroke="#212121" stroke-width="0.805" stroke-linecap="round" stroke-linejoin="round"/>
  <path d="M180.519 265.129C179.066 266.393 177.484 267.501 175.8 268.433C173.288 269.771 170.357 269.211 169.984 270.478C169.611 271.745 171.632 272.912 176.204 273.541C180.776 274.171 181.553 273.067 183.52 272.36C185.487 271.652 188.962 272.204 189.74 271.652C190.517 271.1 189.817 268.978 189.506 266.987C189.195 264.997 189.032 264.476 189.032 264.476C187.664 265.138 186.131 265.384 184.624 265.184C183.264 264.99 181.884 264.972 180.519 265.129Z" fill="#212121" stroke="#212121" stroke-width="0.805" stroke-linecap="round" stroke-linejoin="round"/>
  <path d="M183.513 272.36C185.48 271.652 188.955 272.204 189.732 271.652C190.261 271.287 190.113 270.198 189.864 268.931C189.064 269.451 188.199 269.864 187.291 270.159C185.186 270.649 183.11 271.254 181.071 271.971C178.752 272.769 176.212 272.627 173.996 271.574C172.029 270.797 172.815 270.867 173.048 270.082C173.093 269.952 173.105 269.814 173.085 269.679C173.065 269.543 173.012 269.415 172.931 269.304C171.438 269.576 170.226 269.662 169.985 270.447C169.588 271.699 171.633 272.881 176.204 273.51C180.776 274.14 181.546 273.044 183.513 272.36Z" fill="white" stroke="#212121" stroke-width="0.805" stroke-linecap="round" stroke-linejoin="round"/>
  <path d="M176.041 186.395C176.041 186.395 175.489 191.666 175.489 203.227C175.461 212.009 175.96 220.784 176.982 229.506C177.611 234.303 177.759 234.38 177.845 235.01C177.93 235.64 180.838 253.49 180.838 254.594V256.087C180.838 256.087 179.283 257.642 179.812 259.08C180.34 260.519 181.312 263.403 181.071 263.481C180.83 263.559 179.975 263.955 179.975 264.663V265.37C181 266.509 182.387 267.258 183.901 267.493C186.653 268.045 187.524 268.441 188.232 267.415C189.132 266.213 189.8 264.852 190.199 263.403C190.51 261.91 190.906 261.203 189.958 259.71C189.009 258.217 188.698 257.58 188.698 256.795C188.698 256.009 189.802 242.956 189.095 238.47C188.387 233.984 187.757 231.06 187.757 228.728C187.757 226.396 188.465 206.073 188.465 206.073C188.465 206.073 192.477 231.162 192.951 236.588C193.425 242.015 194.918 255.784 194.755 256.647C194.591 257.51 193.417 258.847 193.977 260.262C194.555 261.486 195.264 262.643 196.092 263.714C195.925 263.854 195.811 264.047 195.769 264.26C195.726 264.474 195.758 264.695 195.859 264.888C196.177 265.666 196.807 267.011 197.118 267.096C197.429 267.182 203.804 266.148 203.804 266.148C203.804 266.148 206.082 262.214 205.359 260.169C204.636 258.124 203.944 257.183 203.944 256.95C204.334 254.843 204.593 252.714 204.722 250.575C204.8 247.745 202.211 219.826 202.211 219.826C202.211 219.826 201.107 194.574 201.107 194.341C201.107 194.107 200.873 190.088 200.873 190.088C200.873 190.088 192.531 195.6 185.378 193.237C178.226 190.873 176.041 186.395 176.041 186.395Z" fill="#B75400" stroke="#212121" stroke-width="0.805" stroke-linecap="round" stroke-linejoin="round"/>
  <path d="M188.465 206.057L187.524 203.072" stroke="#212121" stroke-width="0.805" stroke-linecap="round" stroke-linejoin="round"/>
  <path d="M188.698 203.857L185.316 201.812" stroke="#212121" stroke-width="0.805" stroke-linecap="round" stroke-linejoin="round"/>
  <path d="M187.944 143.416C187.944 143.416 182.214 142.584 181.305 143.191C180.395 143.797 177.161 148.843 175.575 150.966C173.989 153.088 163.353 162.06 163.353 162.06L154.062 144.178C154.365 142.838 154.566 141.476 154.661 140.104C154.661 138.751 153.984 137.92 153.984 136.637C153.984 135.354 154.591 133.465 154.287 133.014C153.984 132.563 153.152 133.092 152.624 133.993C152.095 134.895 152.173 137.391 152.173 137.391C152.173 137.391 147.446 131.56 147.041 130.829C146.933 130.627 146.14 130.674 146.14 131.28C146.14 131.886 149.078 137.391 149.078 137.391C149.078 137.391 148.775 137.842 148.48 137.842C148.184 137.842 144.025 132.866 143.815 132.788C143.605 132.711 142.913 132.866 143.286 133.69C143.659 134.514 146.832 138.751 146.832 138.751C146.222 138.767 145.615 138.843 145.02 138.977C144.934 139.033 144.862 139.108 144.809 139.197C144.757 139.286 144.727 139.385 144.72 139.488C144.713 139.591 144.73 139.694 144.77 139.788C144.81 139.883 144.872 139.967 144.95 140.034C145.215 140.282 145.52 140.485 145.852 140.633C145.852 140.633 145.93 141.092 146 141.846C145.96 142.304 146.036 142.765 146.221 143.186C146.405 143.607 146.693 143.975 147.057 144.256C147.827 144.971 148.723 145.535 149.7 145.92C150.074 145.99 158.159 169.71 159.442 171.825C160.725 173.94 161.331 174.01 162.762 173.629C164.192 173.248 178.288 162.643 178.288 162.643C178.288 162.643 177.689 182.033 177.005 183.394C176.321 184.754 175.575 184.754 175.575 185.656C175.613 186.441 175.714 187.221 175.878 187.989C175.878 187.989 179.649 194.325 187.345 194.551C195.042 194.776 202.055 191.682 202.055 190.251C202 189.35 201.822 188.461 201.527 187.608C201.527 187.312 202.436 185.874 202.304 184.972C202.172 184.07 201.628 183.837 201.775 182.484C201.923 181.131 208.415 161.734 208.718 155.77C209.021 149.807 209.091 149.356 207.661 148.307C206.23 147.257 200.943 146.34 200.943 146.34L192.041 144.077L188.496 143.774L187.944 143.416Z" fill="#D9D9D9" stroke="#212121" stroke-width="0.805" stroke-linecap="round" stroke-linejoin="round"/>
  <path d="M208.695 155.786C208.998 149.83 209.068 149.372 207.637 148.322C206.207 147.273 200.92 146.355 200.92 146.355L192.018 144.093L188.473 143.789L187.944 143.416C187.944 143.416 182.214 142.584 181.305 143.191C180.395 143.797 177.161 148.843 175.575 150.966C173.989 153.088 163.353 162.06 163.353 162.06L160.243 155.739L154.56 159.533C156.892 165.691 158.929 170.97 159.427 171.794C160.709 173.901 161.316 173.979 162.746 173.598C164.177 173.217 178.288 162.643 178.288 162.643C178.288 162.643 177.689 182.033 177.005 183.394C176.321 184.754 175.575 184.754 175.575 185.656C175.613 186.441 175.714 187.221 175.878 187.989C175.878 187.989 179.649 194.325 187.345 194.55C195.042 194.776 202.055 191.682 202.055 190.251C201.999 189.35 201.822 188.461 201.527 187.608C201.527 187.312 202.436 185.874 202.304 184.972C202.172 184.07 201.628 183.837 201.775 182.484C201.923 181.131 208.392 161.749 208.695 155.786Z" fill="#212121" stroke="#212121" stroke-width="0.805" stroke-linecap="round" stroke-linejoin="round"/>
  <path d="M178.327 153.733L178.288 162.651L176.399 153.819" stroke="white" stroke-width="0.60375" stroke-linecap="round" stroke-linejoin="round"/>
  <path d="M176.733 188.517C184.339 190.585 192.389 190.339 199.855 187.81" stroke="white" stroke-width="0.60375" stroke-linecap="round" stroke-linejoin="round"/>
  <path d="M193.954 192.024C194.731 191.93 195.462 191.814 196.286 191.666" stroke="white" stroke-width="0.60375" stroke-linecap="round" stroke-linejoin="round"/>
  <path d="M178.793 189.544C178.793 189.544 182.953 192.35 190.51 192.257" stroke="white" stroke-width="0.60375" stroke-linecap="round" stroke-linejoin="round"/>
  <path d="M152.173 137.352C152.133 137.887 151.971 138.406 151.698 138.868C151.24 139.646 150.664 139.918 150.587 141.278C150.558 141.659 150.618 142.041 150.763 142.395C150.907 142.748 151.131 143.063 151.418 143.315" stroke="#212121" stroke-width="0.805" stroke-linecap="round" stroke-linejoin="round"/>
  <path d="M147.345 139.537C147.345 139.537 144.328 137.43 143.722 137.803C143.556 137.918 143.417 138.068 143.314 138.241C143.212 138.415 143.147 138.608 143.126 138.809C143.105 139.009 143.127 139.212 143.191 139.404C143.254 139.595 143.359 139.77 143.496 139.918C144.18 140.524 147.119 140.975 147.648 140.695C148.176 140.415 147.827 139.848 147.345 139.537Z" fill="#D9D9D9" stroke="#212121" stroke-width="0.805" stroke-linecap="round" stroke-linejoin="round"/>
  <path d="M148.278 141.877C148.278 141.877 146.171 141.426 145.658 141.34C145.144 141.255 144.841 141.543 144.88 142.079C144.919 142.615 145.44 142.95 146.256 142.981C147.073 143.012 148.884 143.315 148.962 142.53C148.985 142.437 148.983 142.339 148.956 142.247C148.93 142.154 148.879 142.071 148.809 142.005C148.74 141.938 148.654 141.891 148.561 141.869C148.467 141.847 148.37 141.849 148.278 141.877Z" fill="#D9D9D9" stroke="#212121" stroke-width="0.805" stroke-linecap="round" stroke-linejoin="round"/>
  <path d="M192.041 139.024C192.041 139.024 196.247 138.892 197.678 138.207" stroke="#212121" stroke-width="0.805" stroke-linecap="round" stroke-linejoin="round"/>
  <path d="M201.76 152.536C201.76 152.536 193.207 161.267 190.432 164.571C188.505 166.81 186.402 168.89 184.142 170.791L165.133 158.157C164.418 157.092 163.761 155.989 163.166 154.853C162.614 153.671 161.751 153.36 161.043 151.549C160.336 149.737 159.621 148.563 159.076 149.823C158.532 151.082 158.758 151.471 159.076 152.101C159.395 152.73 160.491 154.62 160.491 154.62C160.491 154.62 155.772 152.73 154.116 152.023C152.46 151.315 150.734 151.082 150.656 151.712C150.579 152.342 150.897 152.256 151.683 152.575C152.468 152.894 157.343 155.56 157.343 155.56L156.868 155.801C156.868 155.801 150.423 154.62 149.793 154.542C149.164 154.464 149.319 155.319 149.793 155.56C150.268 155.801 152.701 156.975 152.701 156.975C152.701 156.975 152.149 157.45 152.779 158.313C153.38 159.025 154.066 159.659 154.824 160.202C154.96 160.775 155.263 161.294 155.694 161.695C156.324 162.169 160.414 162.091 162.14 162.247C163.005 162.286 163.856 162.473 164.659 162.799C164.659 162.799 184.694 179.903 186.031 179.903C187.369 179.903 206.005 162.285 208.049 159.689C210.094 157.092 211.587 152.536 210.335 150.414C209.083 148.291 207.109 147.817 205.849 148.283" fill="#CCCCCC"/>
  <path d="M201.76 152.536C201.76 152.536 193.207 161.267 190.432 164.571C188.505 166.81 186.402 168.89 184.142 170.791L165.133 158.157C164.418 157.092 163.761 155.989 163.166 154.853C162.614 153.671 161.751 153.36 161.043 151.549C160.336 149.737 159.621 148.563 159.076 149.823C158.532 151.082 158.758 151.471 159.076 152.101C159.395 152.73 160.491 154.62 160.491 154.62C160.491 154.62 155.772 152.73 154.116 152.023C152.46 151.315 150.734 151.082 150.656 151.712C150.579 152.342 150.897 152.256 151.683 152.575C152.468 152.894 157.343 155.56 157.343 155.56L156.868 155.801C156.868 155.801 150.423 154.62 149.793 154.542C149.164 154.464 149.319 155.319 149.793 155.56C150.268 155.801 152.701 156.975 152.701 156.975C152.701 156.975 152.149 157.45 152.779 158.313C153.38 159.025 154.066 159.659 154.824 160.202C154.96 160.775 155.263 161.294 155.694 161.695C156.324 162.169 160.414 162.091 162.14 162.247C163.005 162.286 163.856 162.473 164.659 162.799C164.659 162.799 184.694 179.903 186.031 179.903C187.369 179.903 206.005 162.285 208.049 159.689C210.094 157.092 211.587 152.536 210.335 150.414C209.083 148.291 207.109 147.817 205.849 148.283" stroke="#212121" stroke-width="0.805" stroke-linecap="round" stroke-linejoin="round"/>
  <path d="M152.701 156.929C152.701 156.929 155.22 157.799 156.005 158.033L152.701 156.929Z" fill="white"/>
  <path d="M152.701 156.929C152.701 156.929 155.22 157.799 156.005 158.033" stroke="#212121" stroke-width="0.805" stroke-linecap="round" stroke-linejoin="round"/>
  <path d="M154.824 160.155L156.48 160.388" stroke="#212121" stroke-width="0.805" stroke-linecap="round" stroke-linejoin="round"/>
  <path d="M201.759 152.536C201.759 152.536 193.207 161.267 190.432 164.571C188.505 166.81 186.402 168.89 184.142 170.791L179.065 167.456L176.188 172.859C181.203 176.692 185.518 179.856 186.039 179.856C187.368 179.856 206.012 162.239 208.057 159.642C210.102 157.045 211.594 152.489 210.343 150.367C209.091 148.244 207.116 147.77 205.857 148.237L204.714 148.96" fill="#212121"/>
  <path d="M201.759 152.536C201.759 152.536 193.207 161.267 190.432 164.571C188.505 166.81 186.402 168.89 184.142 170.791L179.065 167.456L176.188 172.859C181.203 176.692 185.518 179.856 186.039 179.856C187.368 179.856 206.012 162.239 208.057 159.642C210.102 157.045 211.594 152.489 210.343 150.367C209.091 148.244 207.116 147.77 205.857 148.237L204.714 148.96" stroke="white" stroke-width="0.60375" stroke-linecap="round" stroke-linejoin="round"/>
  <path d="M200.92 146.355L192.018 144.093L189.188 143.844L187.944 143.416C187.944 143.416 187.299 143.323 186.389 143.222L186.164 160.521L203.945 146.993C202.39 146.604 200.92 146.355 200.92 146.355Z" fill="white" stroke="#212121" stroke-width="0.805" stroke-linecap="round" stroke-linejoin="round"/>
  <path d="M198.697 118.662C196.836 118.612 195.03 119.293 193.666 120.559C191.629 122.658 191.497 124.018 190.681 124.765C189.865 125.511 188.302 125.441 187.221 127.75C186.14 130.059 185.316 134.88 185.518 136.442C185.721 138.005 187.073 138.479 188.372 138.681C189.67 138.884 192.041 139.024 192.041 139.024C192.041 139.024 191.692 144.124 191.357 144.046C191.023 143.968 189.188 143.844 189.188 143.844C189.188 143.844 188.846 151.79 188.784 153.757L188.714 155.731L201.114 146.316L198.697 145.306C198.764 143.74 199.025 142.189 199.474 140.687C199.848 139.495 200.324 138.338 200.897 137.228C200.897 137.228 204.784 135.937 206.876 133.021C208.563 130.689 208.508 127.323 207.591 124.695C207.066 123.16 206.133 121.796 204.892 120.751C203.651 119.706 202.149 119.019 200.547 118.763C199.935 118.668 199.315 118.634 198.697 118.662Z" fill="#D9D9D9" stroke="#212121" stroke-width="0.805" stroke-linecap="round" stroke-linejoin="round"/>
  <path d="M191.901 126.397C191.235 127.139 190.483 127.799 189.662 128.364C188.574 129.041 189.39 130.331 190.751 130.806C192.111 131.28 192.515 130.674 192.515 130.674" stroke="#212121" stroke-width="0.805" stroke-linecap="round" stroke-linejoin="round"/>
  <path d="M192.717 133.053C192.717 133.053 189.934 132.641 188.644 131.42C188.732 131.797 188.916 132.145 189.178 132.43C189.439 132.716 189.769 132.93 190.136 133.053C190.986 133.244 191.868 133.244 192.717 133.053V133.053Z" stroke="#212121" stroke-width="0.60375" stroke-linecap="round" stroke-linejoin="round"/>
  <path d="M196.659 124.633C197.134 124.781 197.554 125.066 197.868 125.452C198.182 125.837 198.375 126.307 198.424 126.802" stroke="#212121" stroke-width="0.805" stroke-linecap="round" stroke-linejoin="round"/>
  <path d="M194.35 123.544C194.013 123.258 193.591 123.089 193.149 123.064C192.707 123.039 192.269 123.158 191.901 123.404" stroke="#212121" stroke-width="0.805" stroke-linecap="round" stroke-linejoin="round"/>
  <path d="M195.431 127.276C195.143 127.735 194.739 127.999 194.537 127.875C194.335 127.75 194.397 127.26 194.685 126.802C194.972 126.343 195.377 126.079 195.587 126.211C195.796 126.343 195.726 126.817 195.431 127.276Z" fill="#212121"/>
  <path d="M191.567 125.379C191.272 125.838 190.875 126.102 190.665 125.97C190.455 125.838 190.525 125.364 190.821 124.905C191.116 124.446 191.513 124.182 191.715 124.306C191.917 124.431 191.855 124.913 191.567 125.379Z" fill="#212121"/>
  <path d="M193.938 128.497C193.938 128.497 196.045 128.567 196.722 129.383" stroke="#212121" stroke-width="0.60375" stroke-linecap="round" stroke-linejoin="round"/>
  <path d="M207.56 124.726C207.035 123.191 206.102 121.827 204.861 120.782C203.62 119.737 202.118 119.05 200.516 118.794C199.915 118.691 199.306 118.646 198.697 118.662C198.002 118.668 197.31 118.756 196.636 118.926C196.898 119.32 197.227 119.665 197.608 119.945C198.23 120.403 199.987 120.217 201.884 121.033C203.781 121.849 204.94 124.563 203.719 126.188C202.498 127.813 201.239 125.807 200.609 127.299C200.329 128.04 200.09 128.795 199.894 129.562C199.872 129.822 199.89 130.084 199.948 130.339C200.166 131.117 200.679 131.505 200.391 131.894C200.104 132.283 199.653 132.672 199.653 133.208C199.658 133.349 199.716 133.482 199.816 133.581C200.967 133.123 203.392 132.33 203.703 133.776C204.108 135.673 202.483 136.629 201.192 136.831C200.177 136.902 199.159 136.765 198.199 136.427C198.199 136.427 198.673 137.531 200.625 137.749C200.765 137.461 200.85 137.305 200.85 137.305C200.85 137.305 204.737 136.015 206.829 133.099C208.531 130.705 208.477 127.354 207.56 124.726Z" fill="#212121" stroke="#212121" stroke-width="0.805" stroke-linecap="round" stroke-linejoin="round"/>
  <path d="M199.684 57.7314C199.685 55.0047 199.149 52.3045 198.106 49.7851C197.063 47.2657 195.534 44.9764 193.607 43.0479C191.679 41.1195 189.39 39.5898 186.871 38.5461C184.352 37.5024 181.652 36.9652 178.925 36.9652C177.737 36.9657 176.551 37.0697 175.38 37.2762C175.395 29.4407 172.296 21.9203 166.765 16.3696C161.235 10.8188 153.726 7.69234 145.891 7.67791C138.055 7.66347 130.535 10.7623 124.984 16.2926C119.433 21.823 116.307 29.3318 116.292 37.1673C115.342 37.037 114.383 36.9695 113.424 36.9652C108.009 36.9422 102.799 39.036 98.906 42.8C95.0131 46.564 92.7451 51.7002 92.5859 57.1129C92.4266 62.5256 94.3887 67.7863 98.0536 71.7727C101.718 75.759 106.796 78.1556 112.203 78.451H180.2C185.475 78.1264 190.428 75.8021 194.048 71.9521C197.668 68.1021 199.684 63.0162 199.684 57.7314Z" fill="white" stroke="#212121" stroke-width="0.805" stroke-linecap="round" stroke-linejoin="round"/>
  <path d="M156.869 56.9539L143.675 45.9916L130.481 56.9539H133.381V92.2044H153.976V56.9539H156.869Z" fill="#212121"/>
  <path d="M145.976 85.4093C145.73 85.4129 145.495 85.5095 145.317 85.6797C145.14 85.85 145.034 86.0812 145.02 86.3267L144.973 87.5707H129.525L128.615 109.223H158.268L158.952 92.8108L159.185 87.5707L159.279 85.4093H145.976Z" fill="#B75400" stroke="#212121" stroke-width="0.805" stroke-linecap="round" stroke-linejoin="round"/>
  <path d="M158.268 109.223L158.144 89.0789H129.642L129.867 108.974L158.268 109.223Z" fill="white" stroke="#212121" stroke-width="0.805" stroke-linecap="round" stroke-linejoin="round"/>
  <path d="M158.268 109.223L156.977 89.0789H128.475L128.701 108.974L158.268 109.223Z" fill="white" stroke="#212121" stroke-width="0.805" stroke-linecap="round" stroke-linejoin="round"/>
  <path d="M128.615 109.223L124.65 88.457H154.489L158.268 109.223H128.615Z" fill="#B75400" stroke="#212121" stroke-width="0.805" stroke-linecap="round" stroke-linejoin="round"/>
  <path d="M131.515 81.7474V83.1313" stroke="#212121" stroke-width="0.805" stroke-linecap="round" stroke-linejoin="round"/>
  <path d="M131.515 74.0504V80.3557" stroke="#212121" stroke-width="0.805" stroke-linecap="round" stroke-linejoin="round"/>
  <path d="M155.757 67.3643V72.6588" stroke="#212121" stroke-width="0.805" stroke-linecap="round" stroke-linejoin="round"/>
  <path d="M146.544 110.141V115.435" stroke="#212121" stroke-width="0.805" stroke-linecap="round" stroke-linejoin="round"/>
  <path d="M158.035 118.203V130.192" stroke="#212121" stroke-width="0.805" stroke-linecap="round" stroke-linejoin="round"/>
  <path d="M158.035 114.044V116.314" stroke="#212121" stroke-width="0.805" stroke-linecap="round" stroke-linejoin="round"/>
  <path d="M130.909 113.538V117.822" stroke="#212121" stroke-width="0.805" stroke-linecap="round" stroke-linejoin="round"/>
  <path d="M133.684 133.34V134.351" stroke="#212121" stroke-width="0.805" stroke-linecap="round" stroke-linejoin="round"/>
  <path d="M133.684 116.182V131.956" stroke="#212121" stroke-width="0.805" stroke-linecap="round" stroke-linejoin="round"/>
  <path d="M278.076 82.7426C278.081 80.9641 277.696 79.2061 276.948 77.5925C276.201 75.9788 275.108 74.5486 273.748 73.4027C272.388 72.2568 270.793 71.423 269.076 70.96C267.359 70.497 265.561 70.4161 263.809 70.7229C263.722 66.1807 261.858 61.8536 258.618 58.6695C255.377 55.4853 251.018 53.6974 246.475 53.6893C241.932 53.6812 237.567 55.4534 234.315 58.6259C231.063 61.7985 229.184 66.1189 229.08 70.6607C228.521 70.5798 227.957 70.5382 227.393 70.5363C224.222 70.5403 221.177 71.7779 218.903 73.9872C216.629 76.1964 215.303 79.2039 215.208 82.3731C215.112 85.5423 216.253 88.6245 218.389 90.9673C220.525 93.3101 223.49 94.7297 226.654 94.9255H266.624C269.724 94.7318 272.634 93.3641 274.761 91.1009C276.889 88.8376 278.074 85.8488 278.076 82.7426Z" fill="white" stroke="#212121" stroke-width="0.805" stroke-linecap="round" stroke-linejoin="round"/>
  <path d="M233.527 17.5129C233.527 15.688 232.802 13.9379 231.512 12.6476C230.221 11.3572 228.471 10.6323 226.646 10.6323C226.253 10.6302 225.86 10.664 225.472 10.7334C225.472 8.13732 224.441 5.64762 222.606 3.81195C220.77 1.97628 218.28 0.945007 215.684 0.945007C213.088 0.945007 210.598 1.97628 208.763 3.81195C206.927 5.64762 205.896 8.13732 205.896 10.7334C205.579 10.6928 205.259 10.672 204.939 10.6712C203.159 10.6835 201.452 11.3859 200.178 12.6306C198.905 13.8753 198.163 15.5653 198.11 17.3454C198.056 19.1255 198.695 20.8569 199.892 22.1757C201.089 23.4945 202.751 24.2978 204.527 24.4168H227.074C228.828 24.3076 230.473 23.5316 231.673 22.2479C232.873 20.9642 233.536 19.27 233.527 17.5129Z" fill="white" stroke="#212121" stroke-width="0.805" stroke-linecap="round" stroke-linejoin="round"/>
</svg>
