<svg xmlns="http://www.w3.org/2000/svg" width="65" height="55" viewBox="0 0 65 55" fill="none">
  <path fill-rule="evenodd" clip-rule="evenodd" d="M58.9699 5.59469H61.3548C62.3208 5.59607 63.2469 5.98258 63.9301 6.66956C64.6134 7.35653 64.9981 8.28794 65 9.25973V51.3336C64.9985 52.3056 64.6139 53.2373 63.9306 53.9246C63.2473 54.6118 62.321 54.9986 61.3548 55H3.6452C2.67897 54.9986 1.75269 54.6118 1.0694 53.9246C0.386112 53.2373 0.00154747 52.3056 0 51.3336V9.25973C0.00189113 8.28794 0.386607 7.35653 1.06986 6.66956C1.75312 5.98258 2.67919 5.59607 3.6452 5.59469H6.03005V3.66636C6.0316 2.69434 6.41616 1.7626 7.09945 1.07534C7.78274 0.388085 8.70902 0.00138339 9.67525 0H29.7199C30.2493 6.97597e-05 31.2171 0 31.2171 0H32.5L35.28 0.00432757C35.28 0.0134282 34.7507 6.97597e-05 35.28 0H55.3248C56.291 0.00138339 57.2173 0.388085 57.9006 1.07534C58.5838 1.7626 58.9684 2.69434 58.9699 3.66636V5.59469ZM39.0488 39.4008H51.5561C51.7855 39.4008 52.0056 39.3091 52.1678 39.1458C52.33 38.9826 52.4212 38.7613 52.4212 38.5305C52.4212 38.2997 52.33 38.0783 52.1678 37.915C52.0056 37.7518 51.7855 37.6601 51.5561 37.6601H39.0488C38.8193 37.6601 38.5992 37.7518 38.437 37.915C38.2747 38.0783 38.1836 38.2997 38.1836 38.5305C38.1836 38.7613 38.2747 38.9826 38.437 39.1458C38.5992 39.3091 38.8193 39.4008 39.0488 39.4008ZM42.4171 35.0851H48.1878C48.4172 35.0851 48.6373 34.9934 48.7995 34.8302C48.9617 34.667 49.0529 34.4456 49.0529 34.2148C49.0529 33.984 48.9617 33.7626 48.7995 33.5993C48.6373 33.4361 48.4172 33.3445 48.1878 33.3445H42.4171C42.1876 33.3445 41.9675 33.4361 41.8053 33.5993C41.6431 33.7626 41.5519 33.984 41.5519 34.2148C41.5519 34.4456 41.6431 34.667 41.8053 34.8302C41.9675 34.9934 42.1876 35.0851 42.4171 35.0851ZM39.0488 30.7694H51.5561C51.7855 30.7694 52.0056 30.6777 52.1678 30.5145C52.33 30.3513 52.4212 30.13 52.4212 29.8991C52.4212 29.6683 52.33 29.4469 52.1678 29.2837C52.0056 29.1205 51.7855 29.0288 51.5561 29.0288H45.3024H39.0488C38.8193 29.0288 38.5992 29.1205 38.437 29.2837C38.2747 29.4469 38.1836 29.6683 38.1836 29.8991C38.1836 30.13 38.2747 30.3513 38.437 30.5145C38.5992 30.6777 38.8193 30.7694 39.0488 30.7694ZM13.444 39.4008H25.9513C26.1807 39.4008 26.4008 39.3091 26.563 39.1458C26.7253 38.9826 26.8164 38.7613 26.8164 38.5305C26.8164 38.2997 26.7253 38.0783 26.563 37.915C26.4008 37.7518 26.1807 37.6601 25.9513 37.6601H13.444C13.2145 37.6601 12.9944 37.7518 12.8322 37.915C12.6699 38.0783 12.5788 38.2997 12.5788 38.5305C12.5788 38.7613 12.6699 38.9826 12.8322 39.1458C12.9944 39.3091 13.2145 39.4008 13.444 39.4008ZM16.8123 35.0851H22.583C22.8124 35.0851 23.0325 34.9934 23.1947 34.8302C23.357 34.667 23.4481 34.4456 23.4481 34.2148C23.4481 33.984 23.357 33.7626 23.1947 33.5993C23.0325 33.4361 22.8124 33.3445 22.583 33.3445H16.8123C16.5828 33.3445 16.3627 33.4361 16.2005 33.5993C16.0382 33.7626 15.9471 33.984 15.9471 34.2148C15.9471 34.4456 16.0382 34.667 16.2005 34.8302C16.3627 34.9934 16.5828 35.0851 16.8123 35.0851ZM13.444 30.7694H25.9513C26.1807 30.7694 26.4008 30.6777 26.563 30.5145C26.7253 30.3513 26.8164 30.13 26.8164 29.8991C26.8164 29.6683 26.7253 29.4469 26.563 29.2837C26.4008 29.1205 26.1807 29.0288 25.9513 29.0288H13.444C13.2145 29.0288 12.9944 29.1205 12.8322 29.2837C12.6699 29.4469 12.5788 29.6683 12.5788 29.8991C12.5788 30.13 12.6699 30.3513 12.8322 30.5145C12.9944 30.6777 13.2145 30.7694 13.444 30.7694ZM27.9221 16.7108L29.677 18.4763C29.8394 18.6393 30.0594 18.7308 30.2887 18.7308C30.518 18.7308 30.738 18.6393 30.9004 18.4763L36.6854 12.66C36.8427 12.4958 36.9296 12.276 36.9276 12.048C36.9255 11.8199 36.8345 11.6018 36.6742 11.4405C36.5139 11.2793 36.2971 11.1878 36.0704 11.1857C35.8437 11.1836 35.6253 11.2711 35.462 11.4293L30.29 16.6317L29.1453 15.4802C29.0656 15.3969 28.9701 15.3305 28.8645 15.2848C28.7589 15.2391 28.6454 15.215 28.5304 15.2139C28.4155 15.2128 28.3015 15.2348 28.1951 15.2785C28.0886 15.3223 27.992 15.387 27.9107 15.4688C27.8294 15.5506 27.7651 15.6478 27.7216 15.7548C27.6781 15.8618 27.6563 15.9765 27.6573 16.0921C27.6584 16.2078 27.6824 16.3221 27.7278 16.4283C27.7733 16.5345 27.8393 16.6306 27.9221 16.7108ZM32.305 5.80655C30.5064 5.80655 28.7483 6.34308 27.2529 7.3483C25.7574 8.35351 24.5919 9.78224 23.9036 11.4538C23.2154 13.1254 23.0353 14.9649 23.3863 16.7394C23.7372 18.5139 24.6033 20.1439 25.8752 21.4232C27.147 22.7026 28.7673 23.5738 30.5313 23.9267C32.2954 24.2796 34.1238 24.0983 35.7854 23.4058C37.447 22.7134 38.8672 21.5407 39.8663 20.0363C40.8654 18.5318 41.3986 16.7631 41.3985 14.9538C41.3983 12.5278 40.4402 10.2011 38.7348 8.48568C37.0295 6.77026 34.7166 5.80655 32.305 5.80655ZM37.5115 9.71615C36.4817 8.6803 35.1697 7.97489 33.7414 7.68913C32.3131 7.40338 30.8326 7.55012 29.4872 8.11078C28.1418 8.67144 26.9919 9.62085 26.1829 10.839C25.3738 12.0571 24.942 13.4892 24.942 14.9542C24.942 16.4191 25.3738 17.8512 26.1829 19.0693C26.9919 20.2874 28.1418 21.2368 29.4872 21.7975C30.8326 22.3581 32.3131 22.5049 33.7414 22.2191C35.1697 21.9334 36.4817 21.228 37.5115 20.1921C38.8924 18.8029 39.6681 16.9188 39.6681 14.9542C39.6681 12.9895 38.8924 11.1054 37.5115 9.71615ZM6.03005 7.33338H3.6452C3.13776 7.33476 2.65149 7.53815 2.29268 7.89911C1.93386 8.26007 1.73167 8.74925 1.7303 9.25973V51.3336C1.73081 51.8447 1.93262 52.3347 2.29153 52.6963C2.65044 53.058 3.1372 53.2619 3.6452 53.2632H31.6348V49.4066C31.6348 49.4066 30.3967 49.4074 29.7199 49.4066H9.67525C8.70958 49.4052 7.7838 49.019 7.1006 48.3325C6.4174 47.6459 6.03246 46.715 6.03005 45.7436V7.33338ZM29.7199 47.6699L31.6447 1.74C31.6447 1.74 30.2274 1.74138 29.7199 1.74H9.67525C9.1677 1.74121 8.68126 1.94453 8.32231 2.30552C7.96335 2.6665 7.76107 3.15577 7.7597 3.66636V45.7436C7.76124 46.2541 7.96358 46.7432 8.3225 47.1042C8.68142 47.4651 9.16775 47.6685 9.67525 47.6699H29.7199ZM33.375 1.74H31.6447L29.7199 47.6699L32.9276 47.6953L35.28 47.6699H55.3248C55.8323 47.6685 56.3186 47.4651 56.6775 47.1042C57.0364 46.7432 57.2388 46.2541 57.2403 45.7436V3.66636C57.2389 3.15577 57.0367 2.6665 56.6777 2.30552C56.3187 1.94453 55.8323 1.74121 55.3248 1.74H35.28C34.7726 1.74138 33.375 1.74 33.375 1.74ZM33.3652 48.8613V53.2632H61.3548C61.8622 53.2619 62.3485 53.0584 62.7073 52.6975C63.0661 52.3365 63.2683 51.8474 63.2697 51.3369V9.25973C63.2683 8.74925 63.0661 8.26007 62.7073 7.89911C62.3485 7.53815 61.8622 7.33476 61.3548 7.33338H58.9699V45.7436C58.9672 46.7148 58.5821 47.6453 57.8989 48.3315C57.2158 49.0178 56.2902 49.4039 55.3248 49.4053H35.28C34.6034 49.4065 33.3652 49.4066 33.3652 49.4066V48.8613Z" fill="black"/>
</svg>
