<svg xmlns="http://www.w3.org/2000/svg" width="76" height="50" viewBox="0 0 76 50" fill="none">
<path d="M50.1811 31.6915C50.1247 31.6512 50.0609 31.6226 49.9934 31.6072C49.926 31.5918 49.8562 31.59 49.788 31.6019C49.7199 31.6137 49.6547 31.639 49.5963 31.6763C49.5379 31.7136 49.4873 31.7621 49.4475 31.8191L49.0464 32.3883C44.7397 38.5106 36.3164 39.9734 30.2839 35.6596C28.1253 34.117 26.4206 31.9362 25.4547 29.5213L27.4445 29.5106C27.8403 29.5106 28.0936 29.0798 27.9089 28.7287L21.6283 16.8723C21.4331 16.5 20.9053 16.4947 20.6995 16.867L14.155 28.766C13.9597 29.1223 14.2131 29.5585 14.6195 29.5532L17.7756 29.5426C18.9683 34.3617 21.945 38.7394 26.0458 41.6755C35.3717 48.3404 48.3603 46.0798 55.005 36.6436L55.4061 36.0745C55.4461 36.0176 55.4745 35.9533 55.4897 35.8853C55.505 35.8173 55.5068 35.747 55.495 35.6783C55.4833 35.6096 55.4582 35.5439 55.4212 35.4851C55.3842 35.4262 55.336 35.3752 55.2795 35.3351L50.1811 31.6915ZM52.2817 36.2074C46.2333 43.7074 35.3558 45.3138 27.4603 39.6702C23.5811 36.8989 20.8472 32.6755 19.9553 28.0745L19.76 27.0798L17.8758 27.0851L21.1375 21.1543L24.2672 27.0585L22.1825 27.0638L22.5836 28.6011C23.5125 32.1649 25.8083 35.4681 28.8695 37.6596C35.7253 42.5585 45.0881 41.0957 50.2867 34.7766L52.2817 36.2074ZM54.3717 32.2128C54.567 32.5851 55.0947 32.5904 55.3006 32.2181L56.8417 29.4149L61.845 20.3138C61.8902 20.2329 61.9135 20.1413 61.9124 20.0485C61.9113 19.9556 61.8859 19.8646 61.8388 19.7848C61.7917 19.7049 61.7245 19.639 61.6441 19.5937C61.5636 19.5484 61.4727 19.5252 61.3806 19.5266L58.2297 19.5372C57.0528 14.734 54.15 10.3723 49.9436 7.39894C40.5122 0.728723 27.4497 3.27128 20.7892 12.7394L20.5992 13.0106C20.5592 13.0675 20.5308 13.1318 20.5156 13.1998C20.5003 13.2678 20.4985 13.3381 20.5103 13.4068C20.522 13.4755 20.5471 13.5412 20.5841 13.6001C20.6211 13.6589 20.6693 13.7099 20.7258 13.75L25.8295 17.3989C26.067 17.5691 26.3942 17.5106 26.5631 17.2713L26.8058 16.9255C30.7958 11.2553 38.3906 9.28723 44.4389 12.6223C47.2572 14.1755 49.4106 16.6543 50.5558 19.5638L48.5556 19.5745C48.1597 19.5745 47.9064 20.0053 48.0911 20.3564L54.3717 32.2128ZM47.1992 11.4734C40.3697 6.59042 30.9436 7.96808 25.7186 14.3085L23.7236 12.883C29.772 5.38298 40.6811 3.79787 48.6136 9.46808C52.5033 12.25 55.1475 16.3511 56.0553 21.016L56.2506 22.0106L58.1347 22.0053L54.8731 27.9362L51.7433 22.0319L53.8281 22.0266L53.427 20.4894C52.477 16.8617 50.2656 13.6649 47.1992 11.4734Z" fill="white"/>
<path d="M38.0528 33.6915C42.9614 33.6915 46.9406 29.6811 46.9406 24.734C46.9406 19.787 42.9614 15.7766 38.0528 15.7766C33.1442 15.7766 29.165 19.787 29.165 24.734C29.165 29.6811 33.1442 33.6915 38.0528 33.6915Z" fill="white"/>
</svg>
