<svg xmlns="http://www.w3.org/2000/svg" width="76" height="50" viewBox="0 0 76 50" fill="none">
<path d="M38.4117 2.53723C29.9567 2.53723 23.5811 5.8617 23.5811 10.266V40.0213C23.5811 44.4255 29.9567 47.75 38.4117 47.75C46.8667 47.75 53.2422 44.4255 53.2422 40.0213V10.266C53.2475 5.8617 46.872 2.53723 38.4117 2.53723ZM38.4117 5.25532C45.3572 5.25532 50.5453 7.89894 50.5453 10.266C50.5453 12.633 45.3572 15.2766 38.4117 15.2766C31.4661 15.2766 26.2781 12.633 26.2781 10.266C26.2781 7.89894 31.4661 5.25532 38.4117 5.25532ZM38.4117 45.0372C31.4661 45.0372 26.2781 42.3883 26.2781 40.0266V14.8245C28.9169 16.7713 33.2817 18 38.4117 18C43.5469 18 47.9064 16.7766 50.5453 14.8245V40.0213C50.5506 42.3883 45.3625 45.0372 38.4117 45.0372Z" fill="white"/>
</svg>
