<svg xmlns="http://www.w3.org/2000/svg" width="76" height="50" viewBox="0 0 76 50" fill="none">
<path d="M38.0052 5.31915C38.7389 5.31915 39.5041 5.37766 40.375 5.49468L41.4094 8.42553L41.8316 9.62234L43.0191 10.0426C43.4994 10.2128 43.9691 10.4096 44.4177 10.6223L45.5472 11.1596L46.6766 10.617L49.458 9.28723C50.7089 10.266 51.8383 11.3989 52.8094 12.6649L51.4847 15.4681L50.9464 16.6064L51.4794 17.7447C51.6905 18.2021 51.8858 18.6755 52.0547 19.1489L52.4716 20.3457L53.6591 20.7713L56.5672 21.8138C56.6833 22.6915 56.7361 23.4574 56.7361 24.2021C56.7361 24.9468 56.6833 25.7128 56.5672 26.5904L53.6591 27.633L52.4716 28.0585L52.0547 29.2553C51.8858 29.7394 51.6905 30.2128 51.4794 30.6649L50.9464 31.8032L51.4847 32.9415L52.8094 35.7447C51.8393 37.0096 50.7131 38.1447 49.458 39.1223L46.6766 37.7872L45.5472 37.2447L44.4177 37.7819C43.9691 37.9947 43.4994 38.1915 43.0191 38.3617L41.8316 38.7819L41.4094 39.9787L40.375 42.9096C39.5147 43.0319 38.7389 43.0851 38.0052 43.0851C37.2716 43.0851 36.4958 43.0266 35.6355 42.9096L34.6011 39.9787L34.1789 38.7819L32.9914 38.3617C32.5111 38.1915 32.0414 37.9947 31.5927 37.7819L30.4633 37.2447L29.3339 37.7872L26.5525 39.117C25.2974 38.1393 24.1712 37.0043 23.2011 35.7394L24.5258 32.9362L25.0641 31.7979L24.5311 30.6596C24.3147 30.2021 24.1247 29.7234 23.9558 29.25L23.5389 28.0532L22.3514 27.6277L19.438 26.5957C19.3219 25.7181 19.2691 24.9468 19.2691 24.2074C19.2691 23.4628 19.3219 22.6968 19.438 21.8191L22.3461 20.7766L23.5283 20.3511L23.9452 19.1596C24.1141 18.6702 24.3094 18.1968 24.5205 17.75L25.0536 16.6117L24.5152 15.4734L23.1905 12.6702C24.1669 11.4043 25.2911 10.2713 26.5419 9.29255L29.3233 10.6223L30.4527 11.1649L31.5822 10.6277C32.0308 10.4149 32.4952 10.2234 32.9755 10.0532L34.163 9.63298L34.5852 8.43617L35.6197 5.50532C36.5064 5.37766 37.2716 5.31915 38.0052 5.31915ZM38.0052 2.65957C36.9761 2.65957 35.9416 2.75 34.7594 2.93617C34.4321 2.98558 34.1244 3.12416 33.8695 3.33696C33.6147 3.54976 33.4223 3.82868 33.3133 4.14362L32.1152 7.53723C31.5505 7.73936 31.0016 7.96277 30.4686 8.21808L27.2439 6.67553C26.9457 6.53208 26.6146 6.47265 26.2857 6.50356C25.9567 6.53446 25.6422 6.65455 25.3755 6.85106C23.6233 8.14891 22.0769 9.70747 20.7891 11.4734C20.5923 11.7422 20.4716 12.0599 20.44 12.3925C20.4084 12.7251 20.4671 13.0601 20.6097 13.3617L22.1402 16.6117C21.8922 17.1436 21.6652 17.7021 21.4647 18.266L18.0975 19.4734C17.7857 19.5861 17.5099 19.7815 17.2991 20.0389C17.0882 20.2964 16.9502 20.6063 16.8994 20.9362C16.7147 22.1543 16.6302 23.1915 16.6302 24.2074C16.6302 25.2234 16.7147 26.2606 16.8994 27.4787C16.9483 27.8093 17.0856 28.1202 17.2967 28.3779C17.5078 28.6357 17.7847 28.8305 18.0975 28.9415L21.4647 30.1489C21.6652 30.7181 21.8922 31.2713 22.1402 31.8085L20.6097 35.0585C20.4671 35.3592 20.4085 35.6934 20.4401 36.0251C20.4717 36.3568 20.5924 36.6736 20.7891 36.9415C22.0755 38.7086 23.6221 40.2674 25.3755 41.5638C25.6975 41.8032 26.0775 41.9202 26.4575 41.9202C26.7266 41.9202 26.9958 41.8617 27.2439 41.7394L30.4686 40.1968C31.0016 40.4468 31.5505 40.6755 32.1152 40.8777L33.3133 44.2713C33.5402 44.9096 34.0944 45.3723 34.7594 45.4787C35.9416 45.6596 37.0025 45.7447 38.0052 45.7447C39.0027 45.7447 40.0689 45.6543 41.2511 45.4734C41.5784 45.424 41.8861 45.2854 42.141 45.0726C42.3958 44.8598 42.5881 44.5809 42.6972 44.266L43.8952 40.8723C44.46 40.6702 45.0089 40.4468 45.5419 40.1915L48.7666 41.734C49.0147 41.8564 49.2839 41.9149 49.553 41.9149C49.9383 41.9149 50.3183 41.7926 50.6402 41.5585C52.3977 40.2553 53.9389 38.7021 55.2266 36.9362C55.6277 36.3883 55.6964 35.6649 55.4061 35.0532L53.8755 31.8032C54.1236 31.266 54.3505 30.7128 54.5511 30.1436L57.9183 28.9362C58.5516 28.7074 59.0161 28.1489 59.1164 27.4734C59.3011 26.2553 59.3855 25.2181 59.3855 24.2021C59.3855 23.1862 59.3011 22.1489 59.1164 20.9309C59.0675 20.6003 58.9301 20.2894 58.719 20.0317C58.5079 19.7739 58.2311 19.5791 57.9183 19.4681L54.5511 18.2606C54.3505 17.6915 54.1236 17.1383 53.8755 16.6064L55.4061 13.3564C55.5485 13.0547 55.6071 12.7198 55.5755 12.3872C55.5439 12.0547 55.4233 11.737 55.2266 11.4681C53.9389 9.70215 52.3924 8.14359 50.6402 6.84574C50.3183 6.60638 49.9383 6.48936 49.5583 6.48936C49.2891 6.48936 49.02 6.54787 48.7719 6.67021L45.5472 8.21277C45.0141 7.96277 44.4652 7.73404 43.9005 7.53191L42.6972 4.1383C42.5857 3.82485 42.3926 3.54738 42.1382 3.33496C41.8838 3.12253 41.5774 2.98295 41.2511 2.93085C40.0636 2.75 39.0344 2.65957 38.0052 2.65957Z" fill="white"/>
<path d="M38.0053 15.2234C33.3292 15.2234 29.5239 19.0585 29.5239 23.7713C29.5239 28.484 33.3292 32.3191 38.0053 32.3191C42.6814 32.3191 46.4867 28.484 46.4867 23.7713C46.4867 19.0585 42.6814 15.2234 38.0053 15.2234ZM38.0053 29.7872C34.712 29.7872 32.0361 27.0851 32.0361 23.7713C32.0361 20.4574 34.7172 17.7553 38.0053 17.7553C41.2933 17.7553 43.9745 20.4574 43.9745 23.7713C43.9745 27.0851 41.2986 29.7872 38.0053 29.7872Z" fill="white"/>
</svg>
