<svg xmlns="http://www.w3.org/2000/svg" width="64" height="64" viewBox="0 0 64 64" fill="none">
<path d="M31.75 63.5C23.462 63.5 15.5134 60.2076 9.65292 54.3471C3.79241 48.4866 0.5 40.538 0.5 32.25C0.5 23.962 3.79241 16.0134 9.65292 10.1529C15.5134 4.29239 23.462 1 31.75 1C40.038 1 47.9866 4.29239 53.8471 10.1529C59.7076 16.0134 63 23.962 63 32.25C63 40.538 59.7076 48.4866 53.8471 54.3471C47.9866 60.2076 40.038 63.5 31.75 63.5Z" fill="#F5F5F5" stroke="#B75400" stroke-width="0.897495" stroke-miterlimit="10"/>
<path d="M43.9984 6.6366C46.9284 8.03547 49.5965 9.92708 51.8863 12.229L43.9984 6.6366Z" fill="#F5F5F5"/>
<path d="M43.9984 6.6366C46.9284 8.03547 49.5965 9.92708 51.8863 12.229" stroke="#212121" stroke-width="0.673121" stroke-linecap="round" stroke-linejoin="round"/>
<path d="M14.1575 9.96919C14.8045 9.45515 15.4869 8.96769 16.1959 8.49797C19.9758 6.01912 24.2934 4.47966 28.7889 4.00791C33.2844 3.53616 37.8275 4.14579 42.0396 5.78597" fill="#F5F5F5"/>
<path d="M14.1575 9.96919C14.8045 9.45515 15.4869 8.96769 16.1959 8.49797C19.9758 6.01912 24.2934 4.47966 28.7889 4.00791C33.2844 3.53616 37.8275 4.14579 42.0396 5.78597" stroke="#212121" stroke-width="0.673121" stroke-linecap="round" stroke-linejoin="round"/>
<path d="M28.2934 60.4247C24.1989 59.9223 20.2634 58.5329 16.7611 56.3531C13.2588 54.1734 10.2742 51.2559 8.01548 47.8041C4.82327 42.9379 3.20539 37.2075 3.38138 31.3903C3.55737 25.5732 5.5187 19.9511 8.99924 15.2867" fill="#F5F5F5"/>
<path d="M28.2934 60.4247C24.199 59.9223 20.2634 58.5329 16.7611 56.3531C13.2588 54.1734 10.2742 51.2559 8.01548 47.8041V47.8041C4.82327 42.9379 3.20539 37.2075 3.38138 31.3903C3.55737 25.5732 5.5187 19.9511 8.99924 15.2867" stroke="#212121" stroke-width="0.673121" stroke-linecap="round" stroke-linejoin="round"/>
<path d="M38.7872 59.7598C36.9405 60.2472 35.0488 60.5442 33.1416 60.646L38.7872 59.7598Z" fill="#F5F5F5"/>
<path d="M38.7872 59.7598C36.9405 60.2472 35.0488 60.5442 33.1416 60.646" stroke="#212121" stroke-width="0.673121" stroke-linecap="round" stroke-linejoin="round"/>
<path d="M51.8862 12.2291C53.2327 13.5851 54.4438 15.0693 55.5022 16.6605C57.5488 19.7784 58.9604 23.2693 59.656 26.9335C60.3517 30.5977 60.3178 34.363 59.5563 38.0141C58.7949 41.6651 57.3207 45.1301 55.2183 48.2107C53.1159 51.2913 50.4265 53.9269 47.3041 55.9667C45.2541 57.3066 43.0412 58.3788 40.7191 59.1573" fill="#F5F5F5"/>
<path d="M51.8862 12.2291C53.2327 13.5851 54.4438 15.0693 55.5022 16.6605V16.6605C57.5488 19.7784 58.9604 23.2693 59.656 26.9335C60.3517 30.5977 60.3178 34.363 59.5563 38.0141C58.7949 41.6651 57.3207 45.1301 55.2183 48.2107C53.1159 51.2913 50.4265 53.9269 47.3041 55.9667C45.2541 57.3066 43.0412 58.3788 40.7191 59.1573" stroke="#212121" stroke-width="0.673121" stroke-linecap="round" stroke-linejoin="round"/>
<path d="M32.2505 48.0194C31.8751 48.0194 31.5067 47.9699 31.1523 47.8745C30.6015 47.7261 30.0682 47.4787 29.4823 47.0971C29.3946 47.0405 28.8367 46.5599 28.5244 46.2913L28.5174 46.2843C28.4578 46.2348 28.4087 46.1924 28.3736 46.1606C28.0332 46.3267 27.7105 46.5493 27.3947 46.7684C26.7597 47.2101 26.1001 47.6625 25.2545 47.6943C24.5282 47.7226 23.7599 47.6059 22.8792 47.3409C22.802 47.3197 22.6301 47.2455 22.3494 47.1324C22.0372 47.0016 21.567 46.8391 21.4127 46.7755C21.3986 46.7684 21.339 46.7331 21.3179 46.6695C21.2969 46.6094 21.2969 46.514 21.3074 46.4928C21.8898 46.044 22.4512 45.5068 22.995 44.9838C23.3529 44.641 23.7248 44.2841 24.0967 43.959C24.2265 43.8459 24.3458 43.7222 24.4616 43.5879L24.651 43.3441C25.6545 41.9659 26.0755 39.7324 26.3106 38.0715C26.5316 36.5237 26.4123 34.9158 26.2825 33.5305C26.0439 30.9719 25.2334 29.1167 23.7985 27.8515C23.1318 27.2649 22.3845 26.7878 21.6758 26.3532L21.3671 26.1659C20.6443 25.7241 19.9005 25.2683 19.2234 24.7276C19.1462 24.6675 19.1146 24.5721 19.1392 24.4802C19.2514 24.042 21.146 23.4271 21.1636 23.4236C21.5039 23.3706 21.8723 23.3423 22.2863 23.3423C22.7564 23.3423 23.2266 23.3776 23.6687 23.4094C24.7458 23.4942 25.4405 23.9855 26.1808 24.5085C26.4404 24.6922 26.707 24.8795 26.9982 25.0562L27.0263 25.0244C27.114 24.9113 27.1772 24.7735 27.2473 24.6286C27.3421 24.4272 27.4403 24.2187 27.6122 24.0491C28.0192 23.6497 28.5174 23.5402 28.9104 23.4907C29.0542 23.473 29.184 23.4624 29.3139 23.4624C30.0366 23.4624 30.4857 23.7593 31.0506 24.1409C31.1383 24.1975 31.226 24.2576 31.3207 24.3212C31.5558 24.4731 31.7558 24.5509 31.9172 24.5509C32.1873 24.5509 32.3487 24.3459 32.5978 24.0102C32.861 23.6533 33.1557 23.2504 33.7206 23.1833C34.303 23.1161 34.7626 23.413 35.1626 23.6745C35.4678 23.8724 35.759 24.0632 36.0537 24.0632C36.2888 24.0632 36.5309 23.943 36.7905 23.6921C37.1098 23.3847 37.3764 23.1515 37.6992 23.1515C37.9273 23.1515 38.1553 23.2681 38.415 23.519L38.4746 23.5755C39.036 24.1162 39.1903 24.2682 39.8955 23.89C40.4324 23.6038 41.1165 23.4236 41.6849 23.4236C42.6532 23.4236 43.2532 23.9289 43.2883 24.8018L43.2006 24.8265L43.0462 24.876C42.976 24.9043 42.9374 24.9113 42.8743 24.9396C42.1235 25.1693 39.8534 26.445 39.6254 26.6217C38.864 27.2048 38.1483 27.954 37.6115 28.7315C35.531 31.7353 35.5695 36.0148 36.2362 38.7677C36.587 40.2166 37.0572 41.9058 37.9027 43.4784C38.2781 44.1781 38.7167 44.8283 39.2009 45.4114L39.25 45.4715C40.4113 46.8744 40.6674 46.931 40.7411 47.0052C40.7867 47.0511 40.8183 47.0829 40.8253 47.1253C40.8358 47.2172 40.7341 47.2879 40.6569 47.3303C40.5552 47.3833 40.4464 47.4186 40.3341 47.4434C40.2253 47.4681 40.1552 47.4787 40.0113 47.5035C39.892 47.5247 39.7692 47.5353 39.6464 47.5459C39.1202 47.5847 38.6009 47.6059 38.0746 47.5529C37.7483 47.5176 37.422 47.4787 37.0993 47.4186C36.7098 47.348 35.8853 47.1748 35.4257 46.8992L35.124 47.0688C34.6503 47.3939 33.7802 47.7544 33.6679 47.7932C33.2118 47.9381 32.7312 48.0194 32.2505 48.0194ZM28.6332 45.9627C28.9279 46.2207 29.577 46.7755 29.6507 46.825C30.2085 47.1889 30.7102 47.4257 31.2295 47.5635C31.9768 47.765 32.8013 47.7367 33.5802 47.4787C33.682 47.4469 34.5801 47.0688 34.9906 46.7684L34.8994 46.5846C34.5591 45.8955 34.089 44.952 33.8504 44.2558C33.7977 44.1074 33.7486 43.966 33.6995 43.8353C33.4329 43.0967 33.2259 42.5101 33.2259 41.4782V40.5982L35.2959 46.157C35.345 46.256 35.3906 46.3691 35.4292 46.4822H35.4327C35.5976 46.7189 36.4432 46.9663 37.1589 47.0971C38.3693 47.3162 39.471 47.3197 40.3376 47.0971C40.078 46.8886 39.678 46.4751 39.0079 45.6694L38.9588 45.6128C38.4606 45.0156 38.0115 44.3477 37.622 43.6268C36.7589 42.0259 36.2818 40.3085 35.9274 38.8419C35.2468 36.0254 35.2117 31.6399 37.3519 28.5477C37.9097 27.742 38.65 26.9681 39.4324 26.3638C39.6289 26.2118 42.1936 24.7876 42.9304 24.618C42.8111 23.8971 42.1971 23.7381 41.6814 23.7381C41.1621 23.7381 40.5341 23.9006 40.0394 24.1657C39.1447 24.6428 38.843 24.3706 38.2501 23.8017L38.1904 23.7452C37.9939 23.5579 37.8325 23.466 37.6922 23.466C37.4887 23.466 37.2677 23.6603 37.0045 23.9183C36.6853 24.2258 36.373 24.3777 36.0502 24.3777C35.6608 24.3777 35.3169 24.1551 34.9871 23.9395C34.6117 23.6957 34.2258 23.4412 33.7521 23.4978C33.3241 23.5473 33.0925 23.8618 32.8469 24.1975C32.6048 24.5261 32.3557 24.8689 31.9137 24.8689C31.6891 24.8689 31.4365 24.777 31.1453 24.5898C31.0506 24.5261 30.9594 24.4661 30.8716 24.4095C30.3068 24.0349 29.9349 23.784 29.3068 23.784C29.1946 23.784 29.0718 23.7911 28.9455 23.8088C28.4297 23.8759 28.0964 24.0173 27.8298 24.2788C27.6999 24.4095 27.6157 24.5827 27.528 24.7664C27.4719 24.8866 27.4122 25.0103 27.3351 25.1269C28.0438 26.2613 28.4402 27.6218 28.5665 28.4594C28.7841 29.9082 28.4262 30.6998 28.0859 31.4667L27.8262 32.0462L26.9421 25.3919C26.5983 25.194 26.2895 24.9749 25.9913 24.7664C25.2896 24.2717 24.6265 23.8052 23.6371 23.7275C23.1985 23.6921 22.7354 23.6603 22.2793 23.6603C21.8828 23.6603 21.532 23.6851 21.2057 23.7381C21.0127 23.7805 19.7251 24.2788 19.4725 24.5226C20.118 25.0315 20.8338 25.4697 21.5249 25.8902L21.8337 26.0775C22.5529 26.5193 23.3143 27.0034 23.9985 27.6077C25.4966 28.9258 26.3421 30.8518 26.5877 33.4951C26.7176 34.8981 26.8368 36.5307 26.6123 38.1104C26.4053 39.577 26.0895 41.2661 25.444 42.602L27.0579 41.1283C27.2193 40.9799 27.4368 40.8103 27.6122 40.6689L28.4823 39.9763L27.3315 41.7079C27.0719 41.9447 26.8754 42.132 26.6684 42.4288C26.4579 42.7327 26.1141 42.9907 25.865 43.1815C25.5983 43.3829 25.3036 43.489 24.8931 43.5349C24.7142 43.7787 24.5142 43.9978 24.2967 44.1887C23.9283 44.5103 23.5599 44.8636 23.2055 45.2029C22.7319 45.6552 22.2477 46.1217 21.739 46.5352C21.9039 46.5952 22.1319 46.6907 22.4617 46.825C22.6828 46.9168 22.8933 47.0052 22.9599 47.0229C23.809 47.2773 24.5423 47.3904 25.2334 47.3656C25.9913 47.3374 26.5807 46.931 27.2087 46.4963C27.5561 46.256 27.914 46.0086 28.3069 45.8284L30.0717 39.0822V40.312C30.0717 41.5277 29.991 42.0542 29.8752 42.6691C29.805 43.0472 29.6156 43.5314 29.4472 43.9625C29.356 44.1922 29.2718 44.4113 29.2156 44.5915C29.1139 44.9061 29.0121 45.1216 28.8788 45.3973C28.8156 45.5634 28.7314 45.7401 28.6332 45.9627ZM33.682 42.7221C33.7627 43.0614 33.8749 43.3723 34.0047 43.7328C34.0539 43.8671 34.103 44.0084 34.1556 44.1569C34.2819 44.5279 34.4784 44.9732 34.6854 45.4149L33.682 42.7221ZM29.6998 41.7927L29.156 43.8706C29.1595 43.8636 29.1595 43.8565 29.163 43.853C29.3244 43.436 29.5103 42.9624 29.5735 42.6161C29.6226 42.3511 29.6682 42.0966 29.6998 41.7927ZM26.6825 41.9164L25.3773 43.1073C25.4896 43.0614 25.5878 43.0048 25.6825 42.9341C25.9141 42.7575 26.2334 42.5171 26.4158 42.2556C26.5035 42.1249 26.5912 42.0153 26.6825 41.9164ZM27.3245 25.7241L27.9982 30.8801C28.2473 30.2652 28.4227 29.5902 28.2613 28.5018C28.156 27.7985 27.8543 26.7136 27.3245 25.7241ZM35.7906 44.4997C35.6608 44.2063 35.5941 43.9095 35.531 43.6232L35.4818 43.4042L35.3731 43.026C35.3661 42.9942 35.3555 42.966 35.345 42.9341C35.2538 42.6868 35.1345 42.4712 35.0187 42.2592C34.8854 42.0153 34.7486 41.7609 34.6468 41.457C34.2609 40.2908 34.0012 39.2801 34.0012 38.1422V36.9972L35.6923 43.0013C35.7274 43.1073 35.759 43.2204 35.7836 43.3299L36.0818 44.3866L35.7906 44.4997ZM32.0049 34.0712L32.8961 32.0957C32.9838 31.7635 33.0434 31.3571 33.1066 30.9649C33.1732 30.5302 33.2364 30.1203 33.3381 29.8552C33.6328 29.0849 34.2749 28.6148 34.8924 28.1625C35.2047 27.9363 35.4959 27.7208 35.7485 27.4699L36.5554 26.6677L33.4329 32.2229C33.3101 32.6435 32.7452 33.7637 32.3733 33.9192L32.0049 34.0712ZM35.2959 28.2615C35.2222 28.3145 35.1485 28.371 35.0748 28.424C34.4644 28.8693 33.889 29.2898 33.6293 29.9719C33.5416 30.2016 33.482 30.5974 33.4153 31.0144C33.3732 31.2971 33.3276 31.5833 33.2715 31.8589L35.2959 28.2615ZM36.3309 27.4416L36.5589 26.7065C36.7379 26.127 37.2712 24.77 38.3132 24.7099L38.6851 24.6887L36.3309 27.4416ZM37.801 25.2365C37.6115 25.3778 37.4326 25.5863 37.2712 25.8549L37.801 25.2365Z" fill="#212121"/>
<path d="M21.5495 47.3939C23.1073 50.2528 27.4999 50.8854 30.3839 50.9561C31.4856 50.9843 32.5978 50.9137 33.689 50.7723C34.2714 50.6946 34.8222 50.5285 35.4222 50.3588C36.4502 50.0655 37.4782 49.7439 38.45 49.2916C39.3166 48.8852 40.5446 48.4682 40.8042 47.355C40.3376 48.129 36.573 47.6872 36.0046 47.4116C35.6502 47.2384 35.6853 47.1783 35.3941 47.461C34.4924 48.341 32.9031 48.6237 31.7242 48.4046C30.7734 48.2279 29.4893 47.4823 28.7244 46.885C28.4297 46.6518 28.57 46.5352 28.1595 46.7295C27.2403 47.1607 26.5877 47.7402 25.5317 47.9134C24.43 48.0936 23.4055 47.8957 22.1775 47.348C21.8723 47.2137 21.7495 47.196 21.4021 46.9628L21.5495 47.3939Z" fill="#212121"/>
<path d="M19.2655 24.0738C21.1145 21.5471 24.1598 20.6389 27.0263 19.8402C28.4858 19.4338 29.6998 19.1829 31.24 19.1829C32.5838 19.1829 33.8925 19.501 35.2012 19.766C36.5168 20.031 37.8641 20.2395 39.0289 20.9534C39.7798 21.4128 40.6639 21.6566 41.4147 22.1266C41.6674 22.2857 42.555 22.4977 42.4427 22.8829C42.2813 23.4306 40.9692 22.9147 40.5552 23.1267C40.1061 23.3564 39.5131 23.784 39.0009 23.6356C38.5097 23.4942 38.3693 22.9112 37.8185 22.8546C36.9765 22.7698 36.8081 23.6709 35.966 23.6073C35.3275 23.5579 34.5942 22.7557 33.9486 22.7981C33.3381 22.8369 32.675 23.4978 32.2224 23.8335C31.3909 24.4555 31.033 23.5897 30.3208 23.3034C29.8963 23.1338 29.7314 23.0843 29.2647 23.0843C28.0964 23.0843 27.3842 23.6073 26.7211 24.5403C26.9456 24.2222 25.465 23.519 25.3177 23.4766C24.6966 23.3034 24.0511 23.0419 23.409 23.0313C21.7881 23.003 20.6443 23.049 19.2655 24.0738Z" fill="#212121"/>
<path d="M31.3488 10.5072C31.0295 10.0796 30.6366 10.2492 30.1348 10.274C29.8647 11.0302 30.1138 11.6734 30.2506 12.313C30.4015 13.0198 30.5313 13.7443 30.6576 14.4086C30.7945 15.1119 30.8471 15.8469 30.8857 16.6208C30.9032 16.999 30.9208 17.4266 30.8401 17.787C30.7664 18.1121 30.5453 18.3312 30.4857 18.6493C31.1207 18.6316 31.8049 18.6457 32.454 18.6104C32.4575 18.2888 32.247 17.9708 32.1698 17.6669C32.0821 17.317 32.1382 16.9813 32.0996 16.6208C32.0365 16.0201 31.8891 15.4299 31.8224 14.7903C31.6716 13.3767 31.4365 11.9561 31.3488 10.5072Z" fill="#212121"/>
<path d="M42.6112 13.1435C40.8709 13.1718 38.9658 13.2566 37.3554 14.1683C36.6011 14.5924 36.0643 15.126 35.359 15.649C35.0047 15.9141 34.6433 16.1473 34.2293 16.3558C33.8118 16.5643 33.3171 16.5996 32.9311 16.8329L33.1346 17.3029C33.6574 17.1545 33.7697 17.0661 34.3065 17.0343C34.8363 17.0025 35.3415 16.9142 35.9204 16.9707C36.4642 17.0237 37.0958 17.0131 37.615 17.1545C38.222 17.3206 38.9939 17.3206 39.6149 17.37C40.8534 17.4654 42.3726 17.1933 43.6111 16.9318C44.5022 16.741 45.6916 16.3558 46.3758 15.6808C46.6635 15.3946 46.8144 15.1154 47.1582 14.7938C47.4845 14.4864 47.9897 13.8715 48.2318 13.5146C48.4704 13.1612 48.6879 12.9456 48.9125 12.5639C49.1089 12.2318 49.4808 11.5356 49.4878 11.115C47.8038 13.0233 44.9092 13.1046 42.6112 13.1435Z" fill="#212121"/>
</svg>
