<svg xmlns="http://www.w3.org/2000/svg" width="46" height="40" viewBox="0 0 46 40" fill="none">
  <path d="M7.66671 10H3.83337V33.3334C3.83337 35.1667 5.55837 36.6667 7.66671 36.6667H34.5V33.3334H7.66671V10ZM38.3334 3.33337H15.3334C13.225 3.33337 11.5 4.83337 11.5 6.66671V26.6667C11.5 28.5 13.225 30 15.3334 30H38.3334C40.4417 30 42.1667 28.5 42.1667 26.6667V6.66671C42.1667 4.83337 40.4417 3.33337 38.3334 3.33337ZM36.4167 18.3334H17.25V15H36.4167V18.3334ZM28.75 25H17.25V21.6667H28.75V25ZM36.4167 11.6667H17.25V8.33337H36.4167V11.6667Z" fill="#B75400"/>
</svg>
