<svg width="80" height="105" viewBox="0 0 80 105" fill="none" xmlns="http://www.w3.org/2000/svg">
<path d="M0 2C0 0.89543 0.895431 0 2 0H78C79.1046 0 80 0.895431 80 2V105H0V2Z" fill="white"/>
<rect x="16" y="14" width="48" height="4" fill="#9E9E9E"/>
<rect x="14" y="20" width="52" height="4" fill="#9E9E9E"/>
<rect x="10" y="28" width="28" height="2" fill="black" fill-opacity="0.38"/>
<rect x="10" y="32" width="28" height="2" fill="black" fill-opacity="0.38"/>
<rect x="10" y="36" width="28" height="2" fill="black" fill-opacity="0.38"/>
<rect x="10" y="40" width="28" height="2" fill="black" fill-opacity="0.38"/>
<rect x="10" y="44" width="28" height="2" fill="black" fill-opacity="0.38"/>
<rect x="10" y="48" width="28" height="2" fill="black" fill-opacity="0.38"/>
<rect x="10" y="52" width="28" height="2" fill="black" fill-opacity="0.38"/>
<rect x="10" y="56" width="28" height="2" fill="black" fill-opacity="0.38"/>
<rect x="10" y="60.0002" width="28" height="2" fill="black" fill-opacity="0.38"/>
<rect x="10" y="64" width="28" height="2" fill="black" fill-opacity="0.38"/>
<rect x="10" y="68" width="28" height="2" fill="black" fill-opacity="0.38"/>
<rect x="10" y="72.0002" width="28" height="2" fill="black" fill-opacity="0.38"/>
<rect x="10" y="76" width="28" height="2" fill="black" fill-opacity="0.38"/>
<rect x="10" y="80" width="28" height="2" fill="black" fill-opacity="0.38"/>
<rect x="10" y="84.0002" width="28" height="2" fill="black" fill-opacity="0.38"/>
<rect x="10" y="88" width="28" height="2" fill="black" fill-opacity="0.38"/>
<rect x="42" y="28" width="28" height="2" fill="black" fill-opacity="0.38"/>
<rect x="42" y="32" width="28" height="2" fill="black" fill-opacity="0.38"/>
<rect x="42" y="36" width="28" height="2" fill="black" fill-opacity="0.38"/>
<rect x="42" y="40" width="28" height="2" fill="black" fill-opacity="0.38"/>
<rect x="42" y="44" width="28" height="2" fill="black" fill-opacity="0.38"/>
<rect x="42" y="68" width="28" height="2" fill="black" fill-opacity="0.38"/>
<rect x="42" y="72" width="28" height="2" fill="black" fill-opacity="0.38"/>
<rect x="42" y="76" width="28" height="2" fill="black" fill-opacity="0.38"/>
<rect x="42" y="80" width="28" height="2" fill="black" fill-opacity="0.38"/>
<rect x="42" y="84" width="28" height="2" fill="black" fill-opacity="0.38"/>
<rect x="42" y="88" width="28" height="2" fill="black" fill-opacity="0.38"/>
<rect x="42" y="53" width="4" height="13" fill="#686868"/>
<rect x="48" y="48" width="4" height="18" fill="#686868"/>
<rect x="54" y="57" width="4" height="9" fill="#686868"/>
<rect x="60" y="53" width="4" height="13" fill="#686868"/>
<rect x="66" y="62" width="4" height="4" fill="#686868"/>
</svg>
