<svg xmlns="http://www.w3.org/2000/svg" width="438" height="421" viewBox="0 0 438 421" fill="none">
<line x1="226.615" y1="124.616" x2="280.818" y2="95.3641" stroke="#B75400" stroke-width="2.58107" stroke-dasharray="2.58 2.58"/>
<line x1="220.835" y1="166.715" x2="287.943" y2="194.247" stroke="#B75400" stroke-width="2.58107" stroke-dasharray="2.58 2.58"/>
<line x1="191.367" y1="207.73" x2="224.06" y2="267.955" stroke="#B75400" stroke-width="2.58107" stroke-dasharray="2.58 2.58"/>
<line x1="150.137" y1="195.91" x2="120.885" y2="270.762" stroke="#B75400" stroke-width="2.58107" stroke-dasharray="2.58 2.58"/>
<path d="M341.656 1C378.718 1 408.763 31.0452 408.763 68.1079C408.763 105.171 378.718 135.216 341.656 135.216C304.593 135.216 274.548 105.171 274.548 68.1079C274.548 51.9923 280.228 37.2034 289.696 25.6345" stroke="#B75400" stroke-width="1.13262" stroke-linecap="round" stroke-linejoin="round"/>
<circle cx="341.656" cy="68.1078" r="57.6439" fill="#FEF5EF"/>
<path d="M318.076 63.07H314.249L313.616 64.9009H311.593L315.048 55.2786H317.292L320.747 64.9009H318.71L318.076 63.07ZM317.553 61.5283L316.163 57.5087L314.773 61.5283H317.553ZM321.543 61.0602C321.543 60.2894 321.694 59.6057 321.997 59.0092C322.309 58.4126 322.731 57.9538 323.263 57.6326C323.796 57.3114 324.388 57.1508 325.039 57.1508C325.535 57.1508 326.007 57.2609 326.457 57.4812C326.907 57.6922 327.265 57.9767 327.531 58.3346V54.7142H329.486V64.9009H327.531V63.7721C327.292 64.1484 326.957 64.4512 326.526 64.6806C326.095 64.9101 325.594 65.0248 325.026 65.0248C324.383 65.0248 323.796 64.8596 323.263 64.5292C322.731 64.1988 322.309 63.7354 321.997 63.1389C321.694 62.5332 321.543 61.8403 321.543 61.0602ZM327.545 61.0878C327.545 60.6197 327.453 60.2205 327.269 59.8902C327.086 59.5506 326.838 59.2936 326.526 59.1193C326.214 58.9357 325.879 58.844 325.521 58.844C325.163 58.844 324.833 58.9311 324.53 59.1055C324.227 59.2799 323.979 59.5368 323.787 59.8764C323.603 60.2068 323.511 60.6014 323.511 61.0602C323.511 61.5191 323.603 61.9229 323.787 62.2716C323.979 62.6112 324.227 62.8727 324.53 63.0563C324.842 63.2398 325.172 63.3316 325.521 63.3316C325.879 63.3316 326.214 63.2444 326.526 63.07C326.838 62.8865 327.086 62.6295 327.269 62.2992C327.453 61.9596 327.545 61.5558 327.545 61.0878ZM334.548 63.1251L336.475 57.2747H338.526L335.704 64.9009H333.364L330.556 57.2747H332.621L334.548 63.1251ZM340.586 56.3661C340.246 56.3661 339.962 56.2606 339.732 56.0495C339.512 55.8293 339.402 55.5585 339.402 55.2373C339.402 54.9161 339.512 54.65 339.732 54.4389C339.962 54.2187 340.246 54.1086 340.586 54.1086C340.925 54.1086 341.205 54.2187 341.426 54.4389C341.655 54.65 341.77 54.9161 341.77 55.2373C341.77 55.5585 341.655 55.8293 341.426 56.0495C341.205 56.2606 340.925 56.3661 340.586 56.3661ZM341.536 57.2747V64.9009H339.608V57.2747H341.536ZM346.358 65.0248C345.734 65.0248 345.174 64.9146 344.679 64.6944C344.183 64.465 343.788 64.1575 343.495 63.7721C343.21 63.3866 343.054 62.9599 343.027 62.4919H344.968C345.004 62.7855 345.147 63.0287 345.394 63.2215C345.651 63.4142 345.968 63.5105 346.344 63.5105C346.711 63.5105 346.996 63.4371 347.198 63.2903C347.409 63.1435 347.514 62.9553 347.514 62.7259C347.514 62.4781 347.386 62.2946 347.129 62.1753C346.881 62.0468 346.482 61.9091 345.931 61.7623C345.362 61.6246 344.894 61.4824 344.527 61.3356C344.169 61.1887 343.857 60.9639 343.591 60.661C343.334 60.3582 343.206 59.9498 343.206 59.4359C343.206 59.0137 343.325 58.6283 343.564 58.2796C343.811 57.9308 344.16 57.6555 344.61 57.4536C345.069 57.2517 345.606 57.1508 346.22 57.1508C347.129 57.1508 347.854 57.3802 348.395 57.8391C348.937 58.2887 349.235 58.899 349.29 59.6699H347.446C347.418 59.3671 347.29 59.1285 347.06 58.9541C346.84 58.7705 346.542 58.6788 346.165 58.6788C345.817 58.6788 345.546 58.743 345.353 58.8715C345.17 59 345.078 59.1789 345.078 59.4084C345.078 59.6653 345.206 59.8626 345.463 60.0003C345.72 60.1288 346.119 60.2618 346.661 60.3995C347.212 60.5371 347.666 60.6794 348.024 60.8262C348.382 60.9731 348.689 61.2025 348.946 61.5145C349.212 61.8174 349.35 62.2212 349.359 62.7259C349.359 63.1664 349.235 63.561 348.987 63.9097C348.749 64.2585 348.4 64.5338 347.941 64.7357C347.491 64.9284 346.964 65.0248 346.358 65.0248ZM354.327 65.0248C353.593 65.0248 352.932 64.8642 352.345 64.543C351.758 64.2126 351.294 63.7491 350.955 63.1526C350.624 62.5561 350.459 61.8678 350.459 61.0878C350.459 60.3077 350.629 59.6194 350.969 59.0229C351.317 58.4264 351.79 57.9675 352.386 57.6463C352.983 57.316 353.648 57.1508 354.382 57.1508C355.117 57.1508 355.782 57.316 356.378 57.6463C356.975 57.9675 357.443 58.4264 357.783 59.0229C358.131 59.6194 358.306 60.3077 358.306 61.0878C358.306 61.8678 358.127 62.5561 357.769 63.1526C357.42 63.7491 356.943 64.2126 356.337 64.543C355.741 64.8642 355.071 65.0248 354.327 65.0248ZM354.327 63.3454C354.676 63.3454 355.002 63.2628 355.305 63.0976C355.617 62.9232 355.865 62.6662 356.048 62.3267C356.232 61.9871 356.323 61.5742 356.323 61.0878C356.323 60.3628 356.131 59.8076 355.745 59.4221C355.369 59.0275 354.906 58.8302 354.355 58.8302C353.804 58.8302 353.341 59.0275 352.965 59.4221C352.597 59.8076 352.414 60.3628 352.414 61.0878C352.414 61.8128 352.593 62.3726 352.951 62.7672C353.318 63.1526 353.777 63.3454 354.327 63.3454ZM361.647 58.4585C361.894 58.0547 362.215 57.7381 362.61 57.5087C363.014 57.2793 363.473 57.1645 363.987 57.1645V59.1881H363.477C362.872 59.1881 362.413 59.3304 362.101 59.6148C361.798 59.8993 361.647 60.3949 361.647 61.1015V64.9009H359.719V57.2747H361.647V58.4585ZM372.581 57.2747L367.859 68.5075H365.808L367.46 64.7082L364.404 57.2747H366.565L368.533 62.602L370.529 57.2747H372.581ZM327.429 76.9728C327.971 77.0737 328.416 77.3444 328.764 77.7849C329.113 78.2254 329.287 78.7302 329.287 79.2992C329.287 79.8131 329.159 80.2673 328.902 80.662C328.654 81.0474 328.292 81.3503 327.815 81.5705C327.337 81.7908 326.773 81.9009 326.121 81.9009H321.978V72.2924H325.942C326.594 72.2924 327.154 72.3979 327.622 72.609C328.099 72.8201 328.457 73.1138 328.696 73.49C328.943 73.8663 329.067 74.293 329.067 74.7702C329.067 75.33 328.916 75.7981 328.613 76.1743C328.319 76.5506 327.925 76.8167 327.429 76.9728ZM323.905 76.2569H325.667C326.126 76.2569 326.479 76.156 326.727 75.9541C326.975 75.743 327.099 75.4448 327.099 75.0593C327.099 74.6739 326.975 74.3756 326.727 74.1645C326.479 73.9535 326.126 73.8479 325.667 73.8479H323.905V76.2569ZM325.846 80.3316C326.314 80.3316 326.677 80.2215 326.934 80.0012C327.2 79.781 327.333 79.4689 327.333 79.0651C327.333 78.6522 327.195 78.331 326.92 78.1015C326.644 77.8629 326.273 77.7436 325.805 77.7436H323.905V80.3316H325.846ZM334.21 82.0248C333.476 82.0248 332.815 81.8642 332.228 81.543C331.64 81.2126 331.177 80.7491 330.837 80.1526C330.507 79.5561 330.342 78.8678 330.342 78.0878C330.342 77.3077 330.511 76.6194 330.851 76.0229C331.2 75.4264 331.672 74.9675 332.269 74.6463C332.865 74.316 333.531 74.1508 334.265 74.1508C334.999 74.1508 335.664 74.316 336.261 74.6463C336.857 74.9675 337.325 75.4264 337.665 76.0229C338.014 76.6194 338.188 77.3077 338.188 78.0878C338.188 78.8678 338.009 79.5561 337.651 80.1526C337.302 80.7491 336.825 81.2126 336.22 81.543C335.623 81.8642 334.953 82.0248 334.21 82.0248ZM334.21 80.3454C334.559 80.3454 334.884 80.2628 335.187 80.0976C335.499 79.9232 335.747 79.6662 335.93 79.3267C336.114 78.9871 336.206 78.5742 336.206 78.0878C336.206 77.3628 336.013 76.8076 335.628 76.4221C335.251 76.0275 334.788 75.8302 334.237 75.8302C333.687 75.8302 333.223 76.0275 332.847 76.4221C332.48 76.8076 332.296 77.3628 332.296 78.0878C332.296 78.8128 332.475 79.3726 332.833 79.7672C333.2 80.1526 333.659 80.3454 334.21 80.3454ZM339.106 78.0602C339.106 77.2894 339.258 76.6057 339.56 76.0092C339.872 75.4126 340.29 74.9538 340.813 74.6326C341.345 74.3114 341.937 74.1508 342.589 74.1508C343.158 74.1508 343.653 74.2655 344.076 74.4949C344.507 74.7244 344.851 75.0134 345.108 75.3622V74.2747H347.049V81.9009H345.108V80.7859C344.86 81.1438 344.516 81.442 344.076 81.6806C343.644 81.9101 343.144 82.0248 342.575 82.0248C341.933 82.0248 341.345 81.8596 340.813 81.5292C340.29 81.1988 339.872 80.7354 339.56 80.1389C339.258 79.5332 339.106 78.8403 339.106 78.0602ZM345.108 78.0878C345.108 77.6197 345.016 77.2205 344.833 76.8902C344.649 76.5506 344.401 76.2936 344.089 76.1193C343.777 75.9357 343.442 75.844 343.084 75.844C342.727 75.844 342.396 75.9311 342.093 76.1055C341.79 76.2799 341.543 76.5368 341.35 76.8764C341.166 77.2068 341.075 77.6014 341.075 78.0602C341.075 78.5191 341.166 78.9229 341.35 79.2716C341.543 79.6112 341.79 79.8727 342.093 80.0563C342.405 80.2398 342.736 80.3316 343.084 80.3316C343.442 80.3316 343.777 80.2444 344.089 80.07C344.401 79.8865 344.649 79.6295 344.833 79.2992C345.016 78.9596 345.108 78.5558 345.108 78.0878ZM350.858 75.4585C351.106 75.0547 351.427 74.7381 351.822 74.5087C352.226 74.2793 352.685 74.1645 353.199 74.1645V76.1881H352.689C352.084 76.1881 351.625 76.3304 351.313 76.6148C351.01 76.8993 350.858 77.3949 350.858 78.1015V81.9009H348.931V74.2747H350.858V75.4585ZM354.001 78.0602C354.001 77.2894 354.153 76.6057 354.455 76.0092C354.767 75.4126 355.19 74.9538 355.722 74.6326C356.254 74.3114 356.846 74.1508 357.498 74.1508C357.993 74.1508 358.466 74.2609 358.915 74.4812C359.365 74.6922 359.723 74.9767 359.989 75.3346V71.7142H361.944V81.9009H359.989V80.7721C359.751 81.1484 359.416 81.4512 358.984 81.6806C358.553 81.9101 358.053 82.0248 357.484 82.0248C356.841 82.0248 356.254 81.8596 355.722 81.5292C355.19 81.1988 354.767 80.7354 354.455 80.1389C354.153 79.5332 354.001 78.8403 354.001 78.0602ZM360.003 78.0878C360.003 77.6197 359.911 77.2205 359.728 76.8902C359.544 76.5506 359.296 76.2936 358.984 76.1193C358.672 75.9357 358.337 75.844 357.979 75.844C357.621 75.844 357.291 75.9311 356.988 76.1055C356.685 76.2799 356.438 76.5368 356.245 76.8764C356.061 77.2068 355.97 77.6014 355.97 78.0602C355.97 78.5191 356.061 78.9229 356.245 79.2716C356.438 79.6112 356.685 79.8727 356.988 80.0563C357.3 80.2398 357.631 80.3316 357.979 80.3316C358.337 80.3316 358.672 80.2444 358.984 80.07C359.296 79.8865 359.544 79.6295 359.728 79.2992C359.911 78.9596 360.003 78.5558 360.003 78.0878Z" fill="#212121"/>
<ellipse cx="169.584" cy="151.132" rx="94.6393" ry="95.0695" fill="#F1D1BB"/>
<circle cx="169.584" cy="151.132" r="86.0964" fill="#B75400"/>
<path d="M169.572 178.052H168.173V179.47H167.614V178.052H166.222V177.546H167.614V176.121H168.173V177.546H169.572V178.052Z" fill="#B75400"/>
<path d="M147.718 116.543C147.718 115.48 147.955 114.53 148.43 113.694C148.915 112.847 149.571 112.192 150.397 111.727C151.233 111.252 152.168 111.015 153.2 111.015C154.408 111.015 155.466 111.324 156.375 111.944C157.283 112.563 157.918 113.42 158.28 114.515H155.786C155.539 113.998 155.187 113.611 154.733 113.353C154.289 113.095 153.773 112.966 153.185 112.966C152.555 112.966 151.992 113.116 151.497 113.415C151.011 113.704 150.629 114.117 150.351 114.654C150.082 115.191 149.948 115.821 149.948 116.543C149.948 117.256 150.082 117.886 150.351 118.433C150.629 118.97 151.011 119.388 151.497 119.687C151.992 119.976 152.555 120.121 153.185 120.121C153.773 120.121 154.289 119.992 154.733 119.734C155.187 119.465 155.539 119.073 155.786 118.557H158.28C157.918 119.661 157.283 120.523 156.375 121.143C155.477 121.752 154.418 122.057 153.2 122.057C152.168 122.057 151.233 121.824 150.397 121.36C149.571 120.885 148.915 120.229 148.43 119.393C147.955 118.557 147.718 117.607 147.718 116.543ZM165.149 122.072C164.137 122.072 163.208 121.835 162.362 121.36C161.515 120.885 160.844 120.229 160.348 119.393C159.853 118.546 159.605 117.591 159.605 116.528C159.605 115.475 159.853 114.53 160.348 113.694C160.844 112.847 161.515 112.187 162.362 111.712C163.208 111.237 164.137 110.999 165.149 110.999C166.171 110.999 167.1 111.237 167.937 111.712C168.783 112.187 169.449 112.847 169.934 113.694C170.43 114.53 170.678 115.475 170.678 116.528C170.678 117.591 170.43 118.546 169.934 119.393C169.449 120.229 168.783 120.885 167.937 121.36C167.09 121.835 166.161 122.072 165.149 122.072ZM165.149 120.136C165.799 120.136 166.372 119.992 166.868 119.703C167.364 119.403 167.751 118.98 168.03 118.433C168.308 117.886 168.448 117.251 168.448 116.528C168.448 115.805 168.308 115.175 168.03 114.639C167.751 114.091 167.364 113.673 166.868 113.384C166.372 113.095 165.799 112.951 165.149 112.951C164.499 112.951 163.92 113.095 163.415 113.384C162.919 113.673 162.532 114.091 162.253 114.639C161.974 115.175 161.835 115.805 161.835 116.528C161.835 117.251 161.974 117.886 162.253 118.433C162.532 118.98 162.919 119.403 163.415 119.703C163.92 119.992 164.499 120.136 165.149 120.136ZM177.866 121.964L175.481 117.751H174.459V121.964H172.291V111.154H176.348C177.184 111.154 177.897 111.304 178.485 111.603C179.074 111.892 179.513 112.29 179.802 112.796C180.101 113.291 180.251 113.849 180.251 114.468C180.251 115.181 180.044 115.826 179.631 116.404C179.218 116.972 178.604 117.364 177.788 117.581L180.375 121.964H177.866ZM174.459 116.125H176.271C176.859 116.125 177.298 115.986 177.587 115.707C177.876 115.418 178.021 115.021 178.021 114.515C178.021 114.019 177.876 113.637 177.587 113.369C177.298 113.09 176.859 112.951 176.271 112.951H174.459V116.125ZM184.38 112.904V115.614H188.019V117.333H184.38V120.198H188.484V121.964H182.212V111.139H188.484V112.904H184.38ZM120.166 142.245H123.727V143.964H117.997V133.154H120.166V142.245ZM133.081 139.488C133.081 139.798 133.06 140.077 133.019 140.324H126.747C126.799 140.944 127.015 141.429 127.397 141.78C127.779 142.131 128.249 142.307 128.807 142.307C129.612 142.307 130.185 141.961 130.526 141.269H132.864C132.616 142.095 132.142 142.776 131.439 143.313C130.737 143.84 129.875 144.103 128.853 144.103C128.027 144.103 127.284 143.922 126.623 143.561C125.973 143.189 125.462 142.668 125.09 141.997C124.729 141.326 124.548 140.551 124.548 139.674C124.548 138.786 124.729 138.007 125.09 137.335C125.451 136.664 125.957 136.148 126.608 135.787C127.258 135.425 128.007 135.245 128.853 135.245C129.669 135.245 130.397 135.42 131.037 135.771C131.687 136.122 132.188 136.623 132.539 137.273C132.9 137.914 133.081 138.652 133.081 139.488ZM130.835 138.869C130.825 138.311 130.624 137.867 130.232 137.537C129.839 137.196 129.359 137.026 128.791 137.026C128.254 137.026 127.8 137.191 127.428 137.521C127.067 137.841 126.845 138.29 126.763 138.869H130.835ZM134.106 139.643C134.106 138.776 134.276 138.007 134.617 137.335C134.968 136.664 135.438 136.148 136.026 135.787C136.625 135.425 137.291 135.245 138.024 135.245C138.664 135.245 139.222 135.374 139.697 135.632C140.182 135.89 140.569 136.215 140.858 136.608V135.384H143.042V143.964H140.858V142.709C140.579 143.112 140.192 143.447 139.697 143.716C139.211 143.974 138.649 144.103 138.009 144.103C137.286 144.103 136.625 143.917 136.026 143.545C135.438 143.174 134.968 142.652 134.617 141.981C134.276 141.3 134.106 140.52 134.106 139.643ZM140.858 139.674C140.858 139.147 140.755 138.698 140.548 138.327C140.342 137.945 140.063 137.655 139.712 137.459C139.361 137.253 138.984 137.15 138.582 137.15C138.179 137.15 137.807 137.248 137.467 137.444C137.126 137.64 136.847 137.929 136.63 138.311C136.424 138.683 136.321 139.127 136.321 139.643C136.321 140.159 136.424 140.613 136.63 141.006C136.847 141.388 137.126 141.682 137.467 141.888C137.818 142.095 138.189 142.198 138.582 142.198C138.984 142.198 139.361 142.1 139.712 141.904C140.063 141.697 140.342 141.408 140.548 141.037C140.755 140.655 140.858 140.2 140.858 139.674ZM144.602 139.643C144.602 138.776 144.772 138.007 145.113 137.335C145.464 136.664 145.939 136.148 146.538 135.787C147.136 135.425 147.802 135.245 148.535 135.245C149.093 135.245 149.624 135.369 150.13 135.616C150.636 135.854 151.039 136.174 151.338 136.577V132.504H153.537V143.964H151.338V142.694C151.07 143.117 150.693 143.458 150.208 143.716C149.723 143.974 149.16 144.103 148.52 144.103C147.797 144.103 147.136 143.917 146.538 143.545C145.939 143.174 145.464 142.652 145.113 141.981C144.772 141.3 144.602 140.52 144.602 139.643ZM151.354 139.674C151.354 139.147 151.251 138.698 151.044 138.327C150.838 137.945 150.559 137.655 150.208 137.459C149.857 137.253 149.48 137.15 149.077 137.15C148.675 137.15 148.303 137.248 147.962 137.444C147.622 137.64 147.343 137.929 147.126 138.311C146.92 138.683 146.816 139.127 146.816 139.643C146.816 140.159 146.92 140.613 147.126 141.006C147.343 141.388 147.622 141.682 147.962 141.888C148.313 142.095 148.685 142.198 149.077 142.198C149.48 142.198 149.857 142.1 150.208 141.904C150.559 141.697 150.838 141.408 151.044 141.037C151.251 140.655 151.354 140.2 151.354 139.674ZM163.63 139.488C163.63 139.798 163.61 140.077 163.568 140.324H157.296C157.348 140.944 157.565 141.429 157.947 141.78C158.329 142.131 158.799 142.307 159.356 142.307C160.161 142.307 160.734 141.961 161.075 141.269H163.414C163.166 142.095 162.691 142.776 161.989 143.313C161.287 143.84 160.425 144.103 159.403 144.103C158.577 144.103 157.833 143.922 157.173 143.561C156.522 143.189 156.011 142.668 155.639 141.997C155.278 141.326 155.097 140.551 155.097 139.674C155.097 138.786 155.278 138.007 155.639 137.335C156.001 136.664 156.507 136.148 157.157 135.787C157.808 135.425 158.556 135.245 159.403 135.245C160.218 135.245 160.946 135.42 161.586 135.771C162.237 136.122 162.737 136.623 163.088 137.273C163.45 137.914 163.63 138.652 163.63 139.488ZM161.385 138.869C161.375 138.311 161.173 137.867 160.781 137.537C160.389 137.196 159.909 137.026 159.341 137.026C158.804 137.026 158.35 137.191 157.978 137.521C157.617 137.841 157.395 138.29 157.312 138.869H161.385ZM167.381 136.716C167.66 136.262 168.021 135.906 168.465 135.647C168.919 135.389 169.436 135.26 170.014 135.26V137.537H169.441C168.759 137.537 168.243 137.697 167.892 138.017C167.551 138.337 167.381 138.894 167.381 139.689V143.964H165.213V135.384H167.381V136.716ZM174.757 144.103C174.055 144.103 173.425 143.979 172.868 143.731C172.31 143.473 171.866 143.127 171.536 142.694C171.216 142.26 171.04 141.78 171.009 141.253H173.193C173.234 141.584 173.394 141.857 173.673 142.074C173.962 142.291 174.318 142.399 174.742 142.399C175.155 142.399 175.475 142.317 175.702 142.152C175.939 141.987 176.058 141.775 176.058 141.517C176.058 141.238 175.914 141.032 175.624 140.897C175.346 140.753 174.897 140.598 174.277 140.433C173.637 140.278 173.11 140.118 172.697 139.953C172.295 139.787 171.944 139.535 171.644 139.194C171.355 138.853 171.211 138.394 171.211 137.816C171.211 137.341 171.345 136.907 171.613 136.515C171.892 136.122 172.285 135.813 172.79 135.585C173.307 135.358 173.911 135.245 174.602 135.245C175.624 135.245 176.44 135.503 177.049 136.019C177.658 136.525 177.994 137.212 178.056 138.079H175.981C175.95 137.738 175.805 137.47 175.547 137.273C175.299 137.067 174.964 136.964 174.54 136.964C174.148 136.964 173.843 137.036 173.627 137.181C173.42 137.325 173.317 137.526 173.317 137.785C173.317 138.074 173.461 138.296 173.751 138.45C174.04 138.595 174.489 138.745 175.098 138.9C175.717 139.054 176.228 139.214 176.631 139.38C177.034 139.545 177.38 139.803 177.669 140.154C177.968 140.495 178.123 140.949 178.133 141.517C178.133 142.012 177.994 142.456 177.715 142.849C177.447 143.241 177.054 143.551 176.538 143.778C176.032 143.995 175.439 144.103 174.757 144.103ZM184.745 135.26C185.395 135.26 185.973 135.405 186.479 135.694C186.985 135.973 187.377 136.391 187.656 136.948C187.945 137.495 188.09 138.156 188.09 138.931V143.964H185.922V139.225C185.922 138.543 185.751 138.022 185.411 137.661C185.07 137.289 184.605 137.103 184.017 137.103C183.418 137.103 182.943 137.289 182.592 137.661C182.251 138.022 182.081 138.543 182.081 139.225V143.964H179.913V132.504H182.081V136.453C182.36 136.081 182.731 135.792 183.196 135.585C183.661 135.369 184.177 135.26 184.745 135.26ZM191.251 134.362C190.869 134.362 190.549 134.243 190.291 134.006C190.043 133.758 189.919 133.453 189.919 133.092C189.919 132.731 190.043 132.431 190.291 132.194C190.549 131.946 190.869 131.822 191.251 131.822C191.633 131.822 191.948 131.946 192.196 132.194C192.454 132.431 192.583 132.731 192.583 133.092C192.583 133.453 192.454 133.758 192.196 134.006C191.948 134.243 191.633 134.362 191.251 134.362ZM192.32 135.384V143.964H190.152V135.384H192.32ZM196.63 136.623C196.909 136.231 197.291 135.906 197.776 135.647C198.271 135.379 198.834 135.245 199.464 135.245C200.197 135.245 200.858 135.425 201.446 135.787C202.045 136.148 202.515 136.664 202.855 137.335C203.206 137.996 203.382 138.765 203.382 139.643C203.382 140.52 203.206 141.3 202.855 141.981C202.515 142.652 202.045 143.174 201.446 143.545C200.858 143.917 200.197 144.103 199.464 144.103C198.834 144.103 198.277 143.974 197.791 143.716C197.316 143.458 196.929 143.133 196.63 142.74V148.052H194.462V135.384H196.63V136.623ZM201.167 139.643C201.167 139.127 201.059 138.683 200.842 138.311C200.636 137.929 200.357 137.64 200.006 137.444C199.665 137.248 199.294 137.15 198.891 137.15C198.499 137.15 198.127 137.253 197.776 137.459C197.435 137.655 197.156 137.945 196.94 138.327C196.733 138.709 196.63 139.158 196.63 139.674C196.63 140.19 196.733 140.639 196.94 141.021C197.156 141.403 197.435 141.697 197.776 141.904C198.127 142.1 198.499 142.198 198.891 142.198C199.294 142.198 199.665 142.095 200.006 141.888C200.357 141.682 200.636 141.388 200.842 141.006C201.059 140.624 201.167 140.169 201.167 139.643ZM216.964 143.964L215.787 142.802C214.785 143.7 213.562 144.149 212.117 144.149C211.322 144.149 210.619 144.015 210.01 143.747C209.412 143.468 208.947 143.081 208.617 142.585C208.286 142.079 208.121 141.496 208.121 140.835C208.121 140.123 208.322 139.483 208.725 138.915C209.128 138.347 209.721 137.888 210.506 137.537C210.227 137.196 210.026 136.871 209.902 136.561C209.778 136.241 209.716 135.9 209.716 135.539C209.716 135.043 209.845 134.599 210.103 134.207C210.361 133.805 210.728 133.49 211.203 133.262C211.688 133.035 212.251 132.922 212.891 132.922C213.541 132.922 214.099 133.046 214.563 133.293C215.028 133.541 215.374 133.872 215.601 134.285C215.828 134.698 215.926 135.157 215.895 135.663H213.789C213.799 135.322 213.717 135.064 213.541 134.889C213.366 134.703 213.128 134.61 212.829 134.61C212.54 134.61 212.297 134.698 212.101 134.873C211.915 135.038 211.822 135.255 211.822 135.524C211.822 135.782 211.9 136.04 212.055 136.298C212.209 136.546 212.462 136.855 212.813 137.227L215.539 139.922C215.56 139.901 215.575 139.88 215.585 139.86C215.596 139.839 215.606 139.818 215.616 139.798L216.499 138.327H218.76L217.676 140.231C217.47 140.634 217.248 141.016 217.01 141.377L219.627 143.964H216.964ZM212.178 142.353C213.025 142.353 213.774 142.054 214.424 141.455L211.76 138.822C210.759 139.266 210.258 139.896 210.258 140.711C210.258 141.176 210.434 141.568 210.785 141.888C211.136 142.198 211.6 142.353 212.178 142.353ZM127.514 155.154V165.964H125.346V158.933L122.45 165.964H120.808L117.897 158.933V165.964H115.729V155.154H118.191L121.629 163.192L125.067 155.154H127.514ZM129.1 161.643C129.1 160.776 129.271 160.007 129.611 159.335C129.962 158.664 130.432 158.148 131.02 157.787C131.619 157.425 132.285 157.245 133.018 157.245C133.658 157.245 134.216 157.374 134.691 157.632C135.176 157.89 135.563 158.215 135.852 158.608V157.384H138.036V165.964H135.852V164.709C135.573 165.112 135.186 165.447 134.691 165.716C134.206 165.974 133.643 166.103 133.003 166.103C132.28 166.103 131.619 165.917 131.02 165.545C130.432 165.174 129.962 164.652 129.611 163.981C129.271 163.3 129.1 162.52 129.1 161.643ZM135.852 161.674C135.852 161.147 135.749 160.698 135.543 160.327C135.336 159.945 135.057 159.655 134.706 159.459C134.355 159.253 133.978 159.15 133.576 159.15C133.173 159.15 132.801 159.248 132.461 159.444C132.12 159.64 131.841 159.929 131.624 160.311C131.418 160.683 131.315 161.127 131.315 161.643C131.315 162.159 131.418 162.613 131.624 163.006C131.841 163.388 132.12 163.682 132.461 163.888C132.812 164.095 133.183 164.198 133.576 164.198C133.978 164.198 134.355 164.1 134.706 163.904C135.057 163.697 135.336 163.408 135.543 163.037C135.749 162.655 135.852 162.2 135.852 161.674ZM144.908 157.26C145.93 157.26 146.756 157.585 147.386 158.236C148.015 158.876 148.33 159.774 148.33 160.931V165.964H146.162V161.225C146.162 160.543 145.992 160.022 145.651 159.661C145.31 159.289 144.846 159.103 144.257 159.103C143.658 159.103 143.184 159.289 142.833 159.661C142.492 160.022 142.321 160.543 142.321 161.225V165.964H140.153V157.384H142.321V158.453C142.611 158.081 142.977 157.792 143.421 157.585C143.875 157.369 144.371 157.26 144.908 157.26ZM149.834 161.643C149.834 160.776 150.005 160.007 150.345 159.335C150.697 158.664 151.166 158.148 151.755 157.787C152.354 157.425 153.019 157.245 153.752 157.245C154.393 157.245 154.95 157.374 155.425 157.632C155.91 157.89 156.297 158.215 156.587 158.608V157.384H158.77V165.964H156.587V164.709C156.308 165.112 155.921 165.447 155.425 165.716C154.94 165.974 154.377 166.103 153.737 166.103C153.014 166.103 152.354 165.917 151.755 165.545C151.166 165.174 150.697 164.652 150.345 163.981C150.005 163.3 149.834 162.52 149.834 161.643ZM156.587 161.674C156.587 161.147 156.483 160.698 156.277 160.327C156.07 159.945 155.792 159.655 155.441 159.459C155.089 159.253 154.713 159.15 154.31 159.15C153.907 159.15 153.536 159.248 153.195 159.444C152.854 159.64 152.576 159.929 152.359 160.311C152.152 160.683 152.049 161.127 152.049 161.643C152.049 162.159 152.152 162.613 152.359 163.006C152.576 163.388 152.854 163.682 153.195 163.888C153.546 164.095 153.918 164.198 154.31 164.198C154.713 164.198 155.089 164.1 155.441 163.904C155.792 163.697 156.07 163.408 156.277 163.037C156.483 162.655 156.587 162.2 156.587 161.674ZM164.248 157.245C164.888 157.245 165.451 157.374 165.936 157.632C166.421 157.88 166.803 158.205 167.082 158.608V157.384H169.266V166.026C169.266 166.821 169.106 167.528 168.786 168.147C168.466 168.777 167.986 169.273 167.345 169.634C166.705 170.006 165.931 170.191 165.023 170.191C163.804 170.191 162.803 169.908 162.018 169.34C161.244 168.772 160.805 167.998 160.702 167.017H162.854C162.968 167.409 163.211 167.719 163.582 167.946C163.964 168.183 164.424 168.302 164.961 168.302C165.59 168.302 166.101 168.111 166.494 167.729C166.886 167.357 167.082 166.79 167.082 166.026V164.694C166.803 165.096 166.416 165.432 165.921 165.7C165.435 165.969 164.878 166.103 164.248 166.103C163.525 166.103 162.865 165.917 162.266 165.545C161.667 165.174 161.192 164.652 160.841 163.981C160.5 163.3 160.33 162.52 160.33 161.643C160.33 160.776 160.5 160.007 160.841 159.335C161.192 158.664 161.662 158.148 162.25 157.787C162.849 157.425 163.515 157.245 164.248 157.245ZM167.082 161.674C167.082 161.147 166.979 160.698 166.772 160.327C166.566 159.945 166.287 159.655 165.936 159.459C165.585 159.253 165.208 159.15 164.806 159.15C164.403 159.15 164.031 159.248 163.691 159.444C163.35 159.64 163.071 159.929 162.854 160.311C162.648 160.683 162.545 161.127 162.545 161.643C162.545 162.159 162.648 162.613 162.854 163.006C163.071 163.388 163.35 163.682 163.691 163.888C164.042 164.095 164.413 164.198 164.806 164.198C165.208 164.198 165.585 164.1 165.936 163.904C166.287 163.697 166.566 163.408 166.772 163.037C166.979 162.655 167.082 162.2 167.082 161.674ZM179.359 161.488C179.359 161.798 179.338 162.077 179.297 162.324H173.025C173.077 162.944 173.293 163.429 173.675 163.78C174.057 164.131 174.527 164.307 175.085 164.307C175.89 164.307 176.463 163.961 176.804 163.269H179.142C178.894 164.095 178.419 164.776 177.717 165.313C177.015 165.84 176.153 166.103 175.131 166.103C174.305 166.103 173.562 165.922 172.901 165.561C172.251 165.189 171.74 164.668 171.368 163.997C171.006 163.326 170.826 162.551 170.826 161.674C170.826 160.786 171.006 160.007 171.368 159.335C171.729 158.664 172.235 158.148 172.886 157.787C173.536 157.425 174.284 157.245 175.131 157.245C175.947 157.245 176.675 157.42 177.315 157.771C177.965 158.122 178.466 158.623 178.817 159.273C179.178 159.914 179.359 160.652 179.359 161.488ZM177.113 160.869C177.103 160.311 176.902 159.867 176.509 159.537C176.117 159.196 175.637 159.026 175.069 159.026C174.532 159.026 174.078 159.191 173.706 159.521C173.345 159.841 173.123 160.29 173.04 160.869H177.113ZM191.596 157.26C192.649 157.26 193.496 157.585 194.136 158.236C194.786 158.876 195.111 159.774 195.111 160.931V165.964H192.943V161.225C192.943 160.554 192.773 160.043 192.432 159.692C192.092 159.33 191.627 159.15 191.039 159.15C190.45 159.15 189.98 159.33 189.629 159.692C189.289 160.043 189.118 160.554 189.118 161.225V165.964H186.95V161.225C186.95 160.554 186.78 160.043 186.439 159.692C186.098 159.33 185.634 159.15 185.045 159.15C184.446 159.15 183.972 159.33 183.621 159.692C183.28 160.043 183.109 160.554 183.109 161.225V165.964H180.941V157.384H183.109V158.422C183.388 158.06 183.744 157.776 184.178 157.57C184.622 157.363 185.107 157.26 185.634 157.26C186.305 157.26 186.904 157.405 187.43 157.694C187.957 157.973 188.365 158.375 188.654 158.902C188.932 158.406 189.335 158.009 189.862 157.709C190.398 157.41 190.977 157.26 191.596 157.26ZM205.144 161.488C205.144 161.798 205.124 162.077 205.082 162.324H198.81C198.862 162.944 199.079 163.429 199.461 163.78C199.843 164.131 200.313 164.307 200.87 164.307C201.675 164.307 202.248 163.961 202.589 163.269H204.928C204.68 164.095 204.205 164.776 203.503 165.313C202.801 165.84 201.939 166.103 200.917 166.103C200.091 166.103 199.347 165.922 198.687 165.561C198.036 165.189 197.525 164.668 197.153 163.997C196.792 163.326 196.611 162.551 196.611 161.674C196.611 160.786 196.792 160.007 197.153 159.335C197.515 158.664 198.021 158.148 198.671 157.787C199.321 157.425 200.07 157.245 200.917 157.245C201.732 157.245 202.46 157.42 203.1 157.771C203.751 158.122 204.251 158.623 204.602 159.273C204.964 159.914 205.144 160.652 205.144 161.488ZM202.899 160.869C202.888 160.311 202.687 159.867 202.295 159.537C201.903 159.196 201.422 159.026 200.855 159.026C200.318 159.026 199.863 159.191 199.492 159.521C199.13 159.841 198.908 160.29 198.826 160.869H202.899ZM211.481 157.26C212.503 157.26 213.329 157.585 213.959 158.236C214.589 158.876 214.904 159.774 214.904 160.931V165.964H212.736V161.225C212.736 160.543 212.565 160.022 212.225 159.661C211.884 159.289 211.419 159.103 210.831 159.103C210.232 159.103 209.757 159.289 209.406 159.661C209.065 160.022 208.895 160.543 208.895 161.225V165.964H206.727V157.384H208.895V158.453C209.184 158.081 209.551 157.792 209.995 157.585C210.449 157.369 210.944 157.26 211.481 157.26ZM219.49 159.165V163.315C219.49 163.605 219.557 163.816 219.691 163.95C219.836 164.074 220.073 164.136 220.403 164.136H221.41V165.964H220.047C218.22 165.964 217.306 165.076 217.306 163.3V159.165H216.284V157.384H217.306V155.262H219.49V157.384H221.41V159.165H219.49ZM154.096 177.154V178.904H151.215V187.964H149.047V178.904H146.167V177.154H154.096ZM163.653 183.488C163.653 183.798 163.632 184.077 163.591 184.324H157.319C157.371 184.944 157.588 185.429 157.97 185.78C158.352 186.131 158.821 186.307 159.379 186.307C160.184 186.307 160.757 185.961 161.098 185.269H163.436C163.189 186.095 162.714 186.776 162.012 187.313C161.309 187.84 160.447 188.103 159.425 188.103C158.599 188.103 157.856 187.922 157.195 187.561C156.545 187.189 156.034 186.668 155.662 185.997C155.301 185.326 155.12 184.551 155.12 183.674C155.12 182.786 155.301 182.007 155.662 181.335C156.023 180.664 156.529 180.148 157.18 179.787C157.83 179.425 158.579 179.245 159.425 179.245C160.241 179.245 160.969 179.42 161.609 179.771C162.259 180.122 162.76 180.623 163.111 181.273C163.472 181.914 163.653 182.652 163.653 183.488ZM161.408 182.869C161.397 182.311 161.196 181.867 160.804 181.537C160.411 181.196 159.931 181.026 159.363 181.026C158.827 181.026 158.372 181.191 158.001 181.521C157.639 181.841 157.417 182.29 157.335 182.869H161.408ZM164.678 183.643C164.678 182.776 164.848 182.007 165.189 181.335C165.54 180.664 166.01 180.148 166.598 179.787C167.197 179.425 167.863 179.245 168.596 179.245C169.236 179.245 169.794 179.374 170.269 179.632C170.754 179.89 171.141 180.215 171.43 180.608V179.384H173.614V187.964H171.43V186.709C171.151 187.112 170.764 187.447 170.269 187.716C169.783 187.974 169.221 188.103 168.581 188.103C167.858 188.103 167.197 187.917 166.598 187.545C166.01 187.174 165.54 186.652 165.189 185.981C164.848 185.3 164.678 184.52 164.678 183.643ZM171.43 183.674C171.43 183.147 171.327 182.698 171.12 182.327C170.914 181.945 170.635 181.655 170.284 181.459C169.933 181.253 169.556 181.15 169.154 181.15C168.751 181.15 168.379 181.248 168.039 181.444C167.698 181.64 167.419 181.929 167.202 182.311C166.996 182.683 166.893 183.127 166.893 183.643C166.893 184.159 166.996 184.613 167.202 185.006C167.419 185.388 167.698 185.682 168.039 185.888C168.39 186.095 168.761 186.198 169.154 186.198C169.556 186.198 169.933 186.1 170.284 185.904C170.635 185.697 170.914 185.408 171.12 185.037C171.327 184.655 171.43 184.2 171.43 183.674ZM186.386 179.26C187.439 179.26 188.286 179.585 188.926 180.236C189.576 180.876 189.901 181.774 189.901 182.931V187.964H187.733V183.225C187.733 182.554 187.563 182.043 187.222 181.692C186.882 181.33 186.417 181.15 185.828 181.15C185.24 181.15 184.77 181.33 184.419 181.692C184.079 182.043 183.908 182.554 183.908 183.225V187.964H181.74V183.225C181.74 182.554 181.57 182.043 181.229 181.692C180.888 181.33 180.424 181.15 179.835 181.15C179.236 181.15 178.761 181.33 178.41 181.692C178.07 182.043 177.899 182.554 177.899 183.225V187.964H175.731V179.384H177.899V180.422C178.178 180.06 178.534 179.776 178.968 179.57C179.412 179.363 179.897 179.26 180.424 179.26C181.095 179.26 181.694 179.405 182.22 179.694C182.747 179.973 183.154 180.375 183.444 180.902C183.722 180.406 184.125 180.009 184.652 179.709C185.188 179.41 185.767 179.26 186.386 179.26Z" fill="white"/>
<path d="M413.656 242.153C400.212 276.692 361.314 293.791 326.776 280.347C292.238 266.902 275.138 228.004 288.583 193.466C302.027 158.928 340.925 141.828 375.463 155.273C390.481 161.119 402.202 171.777 409.548 184.797" stroke="#B75400" stroke-width="1.13262" stroke-linecap="round" stroke-linejoin="round"/>
<circle cx="351.119" cy="217.81" r="57.6439" fill="#FEF5EF"/>
<path d="M328.491 209.675C329.033 209.776 329.478 210.046 329.826 210.487C330.175 210.927 330.349 211.432 330.349 212.001C330.349 212.515 330.221 212.969 329.964 213.364C329.716 213.749 329.354 214.052 328.876 214.272C328.399 214.493 327.835 214.603 327.183 214.603H323.04V204.994H327.004C327.656 204.994 328.216 205.1 328.684 205.311C329.161 205.522 329.519 205.816 329.757 206.192C330.005 206.568 330.129 206.995 330.129 207.472C330.129 208.032 329.978 208.5 329.675 208.876C329.381 209.253 328.987 209.519 328.491 209.675ZM324.967 208.959H326.729C327.188 208.959 327.541 208.858 327.789 208.656C328.037 208.445 328.161 208.147 328.161 207.761C328.161 207.376 328.037 207.078 327.789 206.866C327.541 206.655 327.188 206.55 326.729 206.55H324.967V208.959ZM326.908 213.033C327.376 213.033 327.739 212.923 327.995 212.703C328.262 212.483 328.395 212.171 328.395 211.767C328.395 211.354 328.257 211.033 327.982 210.803C327.706 210.565 327.335 210.446 326.867 210.446H324.967V213.033H326.908ZM335.272 214.727C334.538 214.727 333.877 214.566 333.289 214.245C332.702 213.914 332.239 213.451 331.899 212.855C331.569 212.258 331.404 211.57 331.404 210.79C331.404 210.01 331.573 209.321 331.913 208.725C332.262 208.128 332.734 207.669 333.331 207.348C333.927 207.018 334.593 206.853 335.327 206.853C336.061 206.853 336.726 207.018 337.323 207.348C337.919 207.669 338.387 208.128 338.727 208.725C339.076 209.321 339.25 210.01 339.25 210.79C339.25 211.57 339.071 212.258 338.713 212.855C338.364 213.451 337.887 213.914 337.282 214.245C336.685 214.566 336.015 214.727 335.272 214.727ZM335.272 213.047C335.62 213.047 335.946 212.965 336.249 212.799C336.561 212.625 336.809 212.368 336.992 212.029C337.176 211.689 337.268 211.276 337.268 210.79C337.268 210.065 337.075 209.509 336.69 209.124C336.313 208.729 335.85 208.532 335.299 208.532C334.749 208.532 334.285 208.729 333.909 209.124C333.542 209.509 333.358 210.065 333.358 210.79C333.358 211.515 333.537 212.074 333.895 212.469C334.262 212.855 334.721 213.047 335.272 213.047ZM340.168 210.762C340.168 209.991 340.32 209.308 340.622 208.711C340.934 208.115 341.352 207.656 341.875 207.334C342.407 207.013 342.999 206.853 343.651 206.853C344.22 206.853 344.715 206.967 345.138 207.197C345.569 207.426 345.913 207.715 346.17 208.064V206.977H348.111V214.603H346.17V213.488C345.922 213.846 345.578 214.144 345.138 214.383C344.706 214.612 344.206 214.727 343.637 214.727C342.995 214.727 342.407 214.561 341.875 214.231C341.352 213.901 340.934 213.437 340.622 212.841C340.32 212.235 340.168 211.542 340.168 210.762ZM346.17 210.79C346.17 210.322 346.078 209.922 345.895 209.592C345.711 209.253 345.463 208.996 345.151 208.821C344.839 208.638 344.504 208.546 344.146 208.546C343.789 208.546 343.458 208.633 343.155 208.807C342.852 208.982 342.605 209.239 342.412 209.578C342.228 209.909 342.137 210.303 342.137 210.762C342.137 211.221 342.228 211.625 342.412 211.974C342.605 212.313 342.852 212.575 343.155 212.758C343.467 212.942 343.798 213.033 344.146 213.033C344.504 213.033 344.839 212.946 345.151 212.772C345.463 212.588 345.711 212.331 345.895 212.001C346.078 211.662 346.17 211.258 346.17 210.79ZM351.92 208.16C352.168 207.757 352.489 207.44 352.884 207.211C353.288 206.981 353.747 206.866 354.261 206.866V208.89H353.751C353.146 208.89 352.687 209.032 352.375 209.317C352.072 209.601 351.92 210.097 351.92 210.803V214.603H349.993V206.977H351.92V208.16ZM355.063 210.762C355.063 209.991 355.215 209.308 355.517 208.711C355.829 208.115 356.252 207.656 356.784 207.334C357.316 207.013 357.908 206.853 358.56 206.853C359.055 206.853 359.528 206.963 359.977 207.183C360.427 207.394 360.785 207.679 361.051 208.037V204.416H363.006V214.603H361.051V213.474C360.813 213.85 360.478 214.153 360.046 214.383C359.615 214.612 359.115 214.727 358.546 214.727C357.903 214.727 357.316 214.561 356.784 214.231C356.252 213.901 355.829 213.437 355.517 212.841C355.215 212.235 355.063 211.542 355.063 210.762ZM361.065 210.79C361.065 210.322 360.973 209.922 360.79 209.592C360.606 209.253 360.358 208.996 360.046 208.821C359.734 208.638 359.399 208.546 359.041 208.546C358.683 208.546 358.353 208.633 358.05 208.807C357.747 208.982 357.5 209.239 357.307 209.578C357.123 209.909 357.032 210.303 357.032 210.762C357.032 211.221 357.123 211.625 357.307 211.974C357.5 212.313 357.747 212.575 358.05 212.758C358.362 212.942 358.693 213.033 359.041 213.033C359.399 213.033 359.734 212.946 360.046 212.772C360.358 212.588 360.606 212.331 360.79 212.001C360.973 211.662 361.065 211.258 361.065 210.79ZM371.555 214.727C370.82 214.727 370.16 214.566 369.572 214.245C368.985 213.914 368.522 213.451 368.182 212.855C367.852 212.258 367.686 211.57 367.686 210.79C367.686 210.01 367.856 209.321 368.196 208.725C368.545 208.128 369.017 207.669 369.614 207.348C370.21 207.018 370.876 206.853 371.61 206.853C372.344 206.853 373.009 207.018 373.606 207.348C374.202 207.669 374.67 208.128 375.01 208.725C375.359 209.321 375.533 210.01 375.533 210.79C375.533 211.57 375.354 212.258 374.996 212.855C374.647 213.451 374.17 213.914 373.564 214.245C372.968 214.566 372.298 214.727 371.555 214.727ZM371.555 213.047C371.903 213.047 372.229 212.965 372.532 212.799C372.844 212.625 373.092 212.368 373.275 212.029C373.459 211.689 373.551 211.276 373.551 210.79C373.551 210.065 373.358 209.509 372.972 209.124C372.596 208.729 372.133 208.532 371.582 208.532C371.032 208.532 370.568 208.729 370.192 209.124C369.825 209.509 369.641 210.065 369.641 210.79C369.641 211.515 369.82 212.074 370.178 212.469C370.545 212.855 371.004 213.047 371.555 213.047ZM380.443 208.56H379.108V214.603H377.153V208.56H376.286V206.977H377.153V206.591C377.153 205.655 377.419 204.967 377.951 204.526C378.484 204.086 379.287 203.879 380.36 203.907V205.531C379.892 205.522 379.567 205.6 379.383 205.765C379.2 205.93 379.108 206.229 379.108 206.66V206.977H380.443V208.56ZM316.988 231.699C316.318 231.699 315.712 231.584 315.17 231.355C314.638 231.126 314.216 230.795 313.904 230.364C313.592 229.933 313.431 229.423 313.422 228.836H315.487C315.515 229.23 315.652 229.543 315.9 229.772C316.157 230.001 316.506 230.116 316.946 230.116C317.396 230.116 317.749 230.011 318.006 229.799C318.263 229.579 318.392 229.295 318.392 228.946C318.392 228.662 318.304 228.427 318.13 228.244C317.956 228.06 317.735 227.918 317.469 227.817C317.212 227.707 316.854 227.588 316.396 227.459C315.772 227.276 315.262 227.097 314.868 226.922C314.482 226.739 314.147 226.468 313.863 226.11C313.587 225.743 313.45 225.257 313.45 224.651C313.45 224.082 313.592 223.587 313.876 223.164C314.161 222.742 314.56 222.421 315.074 222.201C315.588 221.971 316.175 221.857 316.836 221.857C317.827 221.857 318.63 222.1 319.245 222.586C319.869 223.063 320.213 223.733 320.278 224.596H318.158C318.139 224.266 317.997 223.995 317.731 223.784C317.474 223.564 317.13 223.453 316.698 223.453C316.322 223.453 316.019 223.55 315.79 223.743C315.57 223.935 315.46 224.215 315.46 224.582C315.46 224.839 315.542 225.055 315.707 225.229C315.882 225.394 316.093 225.532 316.341 225.642C316.598 225.743 316.955 225.862 317.414 226C318.038 226.184 318.548 226.367 318.942 226.551C319.337 226.734 319.676 227.01 319.961 227.377C320.245 227.744 320.388 228.226 320.388 228.822C320.388 229.336 320.255 229.813 319.988 230.254C319.722 230.694 319.332 231.048 318.818 231.314C318.304 231.571 317.694 231.699 316.988 231.699ZM329.258 223.977V231.603H327.317V230.639C327.069 230.97 326.743 231.231 326.34 231.424C325.945 231.607 325.514 231.699 325.046 231.699C324.449 231.699 323.921 231.575 323.463 231.327C323.004 231.071 322.641 230.699 322.375 230.212C322.118 229.717 321.99 229.13 321.99 228.45V223.977H323.917V228.175C323.917 228.781 324.068 229.249 324.371 229.579C324.674 229.9 325.087 230.061 325.61 230.061C326.142 230.061 326.56 229.9 326.863 229.579C327.166 229.249 327.317 228.781 327.317 228.175V223.977H329.258ZM333.087 225.078C333.334 224.729 333.674 224.44 334.105 224.211C334.546 223.972 335.046 223.853 335.606 223.853C336.257 223.853 336.845 224.013 337.368 224.334C337.9 224.656 338.318 225.115 338.62 225.711C338.932 226.298 339.089 226.982 339.089 227.762C339.089 228.542 338.932 229.235 338.62 229.841C338.318 230.437 337.9 230.901 337.368 231.231C336.845 231.561 336.257 231.727 335.606 231.727C335.046 231.727 334.55 231.612 334.119 231.383C333.697 231.153 333.353 230.864 333.087 230.515V235.237H331.159V223.977H333.087V225.078ZM337.12 227.762C337.12 227.303 337.024 226.909 336.831 226.578C336.647 226.239 336.4 225.982 336.088 225.807C335.785 225.633 335.454 225.546 335.096 225.546C334.748 225.546 334.417 225.638 334.105 225.821C333.802 225.996 333.555 226.253 333.362 226.592C333.178 226.932 333.087 227.331 333.087 227.79C333.087 228.249 333.178 228.648 333.362 228.987C333.555 229.327 333.802 229.588 334.105 229.772C334.417 229.946 334.748 230.033 335.096 230.033C335.454 230.033 335.785 229.942 336.088 229.758C336.4 229.575 336.647 229.313 336.831 228.974C337.024 228.634 337.12 228.23 337.12 227.762ZM342.416 225.078C342.664 224.729 343.003 224.44 343.435 224.211C343.875 223.972 344.375 223.853 344.935 223.853C345.587 223.853 346.174 224.013 346.697 224.334C347.23 224.656 347.647 225.115 347.95 225.711C348.262 226.298 348.418 226.982 348.418 227.762C348.418 228.542 348.262 229.235 347.95 229.841C347.647 230.437 347.23 230.901 346.697 231.231C346.174 231.561 345.587 231.727 344.935 231.727C344.375 231.727 343.88 231.612 343.449 231.383C343.026 231.153 342.682 230.864 342.416 230.515V235.237H340.489V223.977H342.416V225.078ZM346.45 227.762C346.45 227.303 346.353 226.909 346.16 226.578C345.977 226.239 345.729 225.982 345.417 225.807C345.114 225.633 344.784 225.546 344.426 225.546C344.077 225.546 343.747 225.638 343.435 225.821C343.132 225.996 342.884 226.253 342.691 226.592C342.508 226.932 342.416 227.331 342.416 227.79C342.416 228.249 342.508 228.648 342.691 228.987C342.884 229.327 343.132 229.588 343.435 229.772C343.747 229.946 344.077 230.033 344.426 230.033C344.784 230.033 345.114 229.942 345.417 229.758C345.729 229.575 345.977 229.313 346.16 228.974C346.353 228.634 346.45 228.23 346.45 227.762ZM353.205 231.727C352.471 231.727 351.81 231.566 351.223 231.245C350.635 230.914 350.172 230.451 349.832 229.855C349.502 229.258 349.337 228.57 349.337 227.79C349.337 227.01 349.506 226.321 349.846 225.725C350.195 225.128 350.667 224.669 351.264 224.348C351.86 224.018 352.526 223.853 353.26 223.853C353.994 223.853 354.659 224.018 355.256 224.348C355.852 224.669 356.32 225.128 356.66 225.725C357.009 226.321 357.183 227.01 357.183 227.79C357.183 228.57 357.004 229.258 356.646 229.855C356.298 230.451 355.82 230.914 355.215 231.245C354.618 231.566 353.948 231.727 353.205 231.727ZM353.205 230.047C353.554 230.047 353.879 229.965 354.182 229.799C354.494 229.625 354.742 229.368 354.926 229.029C355.109 228.689 355.201 228.276 355.201 227.79C355.201 227.065 355.008 226.509 354.623 226.124C354.246 225.729 353.783 225.532 353.232 225.532C352.682 225.532 352.218 225.729 351.842 226.124C351.475 226.509 351.291 227.065 351.291 227.79C351.291 228.515 351.47 229.074 351.828 229.469C352.195 229.855 352.654 230.047 353.205 230.047ZM360.524 225.16C360.772 224.757 361.093 224.44 361.488 224.211C361.891 223.981 362.35 223.866 362.864 223.866V225.89H362.355C361.749 225.89 361.29 226.032 360.978 226.317C360.675 226.601 360.524 227.097 360.524 227.803V231.603H358.597V223.977H360.524V225.16ZM366.406 225.56V229.249C366.406 229.506 366.466 229.694 366.585 229.813C366.713 229.923 366.925 229.978 367.218 229.978H368.113V231.603H366.902C365.277 231.603 364.465 230.814 364.465 229.235V225.56H363.557V223.977H364.465V222.091H366.406V223.977H368.113V225.56H366.406ZM376.588 227.624C376.588 227.9 376.57 228.148 376.533 228.368H370.958C371.004 228.918 371.197 229.35 371.536 229.662C371.876 229.974 372.294 230.13 372.789 230.13C373.505 230.13 374.014 229.822 374.317 229.208H376.396C376.175 229.942 375.753 230.547 375.129 231.025C374.505 231.493 373.739 231.727 372.83 231.727C372.096 231.727 371.436 231.566 370.848 231.245C370.27 230.914 369.816 230.451 369.485 229.855C369.164 229.258 369.004 228.57 369.004 227.79C369.004 227 369.164 226.308 369.485 225.711C369.807 225.115 370.256 224.656 370.834 224.334C371.413 224.013 372.078 223.853 372.83 223.853C373.555 223.853 374.202 224.009 374.771 224.321C375.35 224.633 375.795 225.078 376.107 225.656C376.428 226.225 376.588 226.881 376.588 227.624ZM374.592 227.074C374.583 226.578 374.404 226.184 374.056 225.89C373.707 225.587 373.28 225.436 372.775 225.436C372.298 225.436 371.894 225.583 371.564 225.876C371.243 226.161 371.045 226.56 370.972 227.074H374.592ZM379.922 225.16C380.17 224.757 380.491 224.44 380.886 224.211C381.29 223.981 381.749 223.866 382.263 223.866V225.89H381.753C381.148 225.89 380.689 226.032 380.377 226.317C380.074 226.601 379.922 227.097 379.922 227.803V231.603H377.995V223.977H379.922V225.16ZM386.479 231.727C385.855 231.727 385.295 231.617 384.8 231.396C384.304 231.167 383.909 230.859 383.616 230.474C383.331 230.089 383.175 229.662 383.148 229.194H385.089C385.125 229.487 385.268 229.731 385.515 229.923C385.772 230.116 386.089 230.212 386.465 230.212C386.832 230.212 387.117 230.139 387.319 229.992C387.53 229.845 387.635 229.657 387.635 229.428C387.635 229.18 387.507 228.996 387.25 228.877C387.002 228.749 386.603 228.611 386.052 228.464C385.483 228.327 385.015 228.184 384.648 228.037C384.29 227.891 383.978 227.666 383.712 227.363C383.455 227.06 383.327 226.652 383.327 226.138C383.327 225.716 383.446 225.33 383.684 224.981C383.932 224.633 384.281 224.357 384.731 224.156C385.19 223.954 385.726 223.853 386.341 223.853C387.25 223.853 387.975 224.082 388.516 224.541C389.058 224.991 389.356 225.601 389.411 226.372H387.566C387.539 226.069 387.41 225.83 387.181 225.656C386.961 225.472 386.662 225.381 386.286 225.381C385.937 225.381 385.667 225.445 385.474 225.573C385.29 225.702 385.199 225.881 385.199 226.11C385.199 226.367 385.327 226.565 385.584 226.702C385.841 226.831 386.24 226.964 386.782 227.101C387.332 227.239 387.787 227.381 388.145 227.528C388.502 227.675 388.81 227.904 389.067 228.216C389.333 228.519 389.471 228.923 389.48 229.428C389.48 229.868 389.356 230.263 389.108 230.612C388.87 230.96 388.521 231.236 388.062 231.438C387.612 231.63 387.085 231.727 386.479 231.727Z" fill="#212121"/>
<path d="M258.164 397.34C221.25 400.655 188.638 373.417 185.324 336.503C182.009 299.589 209.247 266.977 246.161 263.663C283.075 260.348 315.687 287.586 319.002 324.5C320.443 340.551 316.108 355.789 307.712 368.158" stroke="#B75400" stroke-width="1.13262" stroke-linecap="round" stroke-linejoin="round"/>
<circle cx="252.163" cy="330.501" r="57.6439" fill="#FEF5EF"/>
<path d="M225.958 298.773V300.329H223.398V308.382H221.471V300.329H218.91V298.773H225.958ZM231.659 300.646C232.238 300.646 232.752 300.774 233.201 301.031C233.651 301.279 234 301.65 234.247 302.146C234.504 302.632 234.633 303.22 234.633 303.908V308.382H232.706V304.17C232.706 303.564 232.554 303.1 232.251 302.779C231.949 302.449 231.536 302.284 231.012 302.284C230.48 302.284 230.058 302.449 229.746 302.779C229.443 303.1 229.292 303.564 229.292 304.17V308.382H227.365V298.195H229.292V301.705C229.54 301.375 229.87 301.118 230.283 300.935C230.696 300.742 231.155 300.646 231.659 300.646ZM243.555 304.404C243.555 304.679 243.536 304.927 243.5 305.147H237.925C237.971 305.698 238.163 306.129 238.503 306.441C238.842 306.753 239.26 306.909 239.756 306.909C240.471 306.909 240.981 306.601 241.284 305.987H243.362C243.142 306.721 242.72 307.326 242.096 307.804C241.472 308.272 240.705 308.506 239.797 308.506C239.063 308.506 238.402 308.345 237.815 308.024C237.236 307.694 236.782 307.23 236.452 306.634C236.131 306.037 235.97 305.349 235.97 304.569C235.97 303.779 236.131 303.087 236.452 302.49C236.773 301.894 237.223 301.435 237.801 301.114C238.379 300.792 239.044 300.632 239.797 300.632C240.522 300.632 241.169 300.788 241.738 301.1C242.316 301.412 242.761 301.857 243.073 302.435C243.394 303.004 243.555 303.66 243.555 304.404ZM241.559 303.853C241.55 303.357 241.371 302.963 241.022 302.669C240.673 302.366 240.246 302.215 239.742 302.215C239.265 302.215 238.861 302.362 238.53 302.655C238.209 302.94 238.012 303.339 237.938 303.853H241.559ZM252.702 308.478C251.802 308.478 250.976 308.267 250.224 307.845C249.471 307.423 248.875 306.84 248.434 306.097C247.994 305.344 247.774 304.495 247.774 303.55C247.774 302.614 247.994 301.774 248.434 301.031C248.875 300.278 249.471 299.691 250.224 299.269C250.976 298.847 251.802 298.636 252.702 298.636C253.61 298.636 254.436 298.847 255.18 299.269C255.932 299.691 256.524 300.278 256.955 301.031C257.396 301.774 257.616 302.614 257.616 303.55C257.616 304.495 257.396 305.344 256.955 306.097C256.524 306.84 255.932 307.423 255.18 307.845C254.427 308.267 253.601 308.478 252.702 308.478ZM252.702 306.757C253.28 306.757 253.789 306.629 254.23 306.372C254.67 306.106 255.014 305.73 255.262 305.243C255.51 304.757 255.634 304.192 255.634 303.55C255.634 302.908 255.51 302.348 255.262 301.871C255.014 301.384 254.67 301.013 254.23 300.756C253.789 300.499 253.28 300.37 252.702 300.37C252.124 300.37 251.61 300.499 251.16 300.756C250.719 301.013 250.375 301.384 250.128 301.871C249.88 302.348 249.756 302.908 249.756 303.55C249.756 304.192 249.88 304.757 250.128 305.243C250.375 305.73 250.719 306.106 251.16 306.372C251.61 306.629 252.124 306.757 252.702 306.757ZM260.977 301.857C261.225 301.508 261.564 301.219 261.996 300.99C262.436 300.751 262.936 300.632 263.496 300.632C264.148 300.632 264.735 300.792 265.258 301.114C265.79 301.435 266.208 301.894 266.511 302.49C266.823 303.077 266.979 303.761 266.979 304.541C266.979 305.321 266.823 306.014 266.511 306.62C266.208 307.216 265.79 307.68 265.258 308.01C264.735 308.341 264.148 308.506 263.496 308.506C262.936 308.506 262.441 308.391 262.01 308.162C261.587 307.932 261.243 307.643 260.977 307.294V312.016H259.05V300.756H260.977V301.857ZM265.01 304.541C265.01 304.082 264.914 303.688 264.721 303.357C264.538 303.018 264.29 302.761 263.978 302.586C263.675 302.412 263.345 302.325 262.987 302.325C262.638 302.325 262.308 302.417 261.996 302.6C261.693 302.775 261.445 303.032 261.252 303.371C261.069 303.711 260.977 304.11 260.977 304.569C260.977 305.028 261.069 305.427 261.252 305.766C261.445 306.106 261.693 306.367 261.996 306.551C262.308 306.725 262.638 306.813 262.987 306.813C263.345 306.813 263.675 306.721 263.978 306.537C264.29 306.354 264.538 306.092 264.721 305.753C264.914 305.413 265.01 305.009 265.01 304.541ZM275.469 304.404C275.469 304.679 275.45 304.927 275.414 305.147H269.839C269.884 305.698 270.077 306.129 270.417 306.441C270.756 306.753 271.174 306.909 271.669 306.909C272.385 306.909 272.895 306.601 273.197 305.987H275.276C275.056 306.721 274.634 307.326 274.01 307.804C273.386 308.272 272.619 308.506 271.711 308.506C270.977 308.506 270.316 308.345 269.728 308.024C269.15 307.694 268.696 307.23 268.366 306.634C268.044 306.037 267.884 305.349 267.884 304.569C267.884 303.779 268.044 303.087 268.366 302.49C268.687 301.894 269.136 301.435 269.715 301.114C270.293 300.792 270.958 300.632 271.711 300.632C272.436 300.632 273.083 300.788 273.652 301.1C274.23 301.412 274.675 301.857 274.987 302.435C275.308 303.004 275.469 303.66 275.469 304.404ZM273.473 303.853C273.464 303.357 273.285 302.963 272.936 302.669C272.587 302.366 272.16 302.215 271.656 302.215C271.178 302.215 270.775 302.362 270.444 302.655C270.123 302.94 269.926 303.339 269.852 303.853H273.473ZM281.101 300.646C282.01 300.646 282.744 300.935 283.304 301.513C283.864 302.082 284.144 302.88 284.144 303.908V308.382H282.217V304.17C282.217 303.564 282.065 303.1 281.762 302.779C281.459 302.449 281.046 302.284 280.523 302.284C279.991 302.284 279.569 302.449 279.257 302.779C278.954 303.1 278.803 303.564 278.803 304.17V308.382H276.875V300.756H278.803V301.705C279.06 301.375 279.385 301.118 279.78 300.935C280.184 300.742 280.624 300.646 281.101 300.646ZM219.679 315.773V321.72C219.679 322.372 219.849 322.872 220.189 323.221C220.528 323.56 221.005 323.73 221.62 323.73C222.244 323.73 222.726 323.56 223.066 323.221C223.405 322.872 223.575 322.372 223.575 321.72V315.773H225.516V321.706C225.516 322.523 225.337 323.216 224.979 323.785C224.63 324.345 224.158 324.767 223.561 325.051C222.974 325.336 222.318 325.478 221.593 325.478C220.877 325.478 220.225 325.336 219.638 325.051C219.06 324.767 218.601 324.345 218.261 323.785C217.922 323.216 217.752 322.523 217.752 321.706V315.773H219.679ZM231.604 317.646C232.513 317.646 233.247 317.935 233.807 318.513C234.366 319.082 234.646 319.88 234.646 320.908V325.382H232.719V321.17C232.719 320.564 232.568 320.1 232.265 319.779C231.962 319.449 231.549 319.284 231.026 319.284C230.494 319.284 230.071 319.449 229.759 319.779C229.457 320.1 229.305 320.564 229.305 321.17V325.382H227.378V317.756H229.305V318.705C229.562 318.375 229.888 318.118 230.283 317.935C230.686 317.742 231.127 317.646 231.604 317.646ZM237.456 316.847C237.117 316.847 236.832 316.742 236.603 316.53C236.383 316.31 236.272 316.04 236.272 315.718C236.272 315.397 236.383 315.131 236.603 314.92C236.832 314.7 237.117 314.59 237.456 314.59C237.796 314.59 238.076 314.7 238.296 314.92C238.525 315.131 238.64 315.397 238.64 315.718C238.64 316.04 238.525 316.31 238.296 316.53C238.076 316.742 237.796 316.847 237.456 316.847ZM238.406 317.756V325.382H236.479V317.756H238.406ZM243.49 323.606L245.417 317.756H247.468L244.646 325.382H242.306L239.498 317.756H241.563L243.49 323.606ZM255.64 321.404C255.64 321.679 255.622 321.927 255.585 322.147H250.01C250.056 322.698 250.249 323.129 250.588 323.441C250.928 323.753 251.345 323.909 251.841 323.909C252.557 323.909 253.066 323.601 253.369 322.987H255.447C255.227 323.721 254.805 324.326 254.181 324.804C253.557 325.272 252.791 325.506 251.882 325.506C251.148 325.506 250.487 325.345 249.9 325.024C249.322 324.694 248.867 324.23 248.537 323.634C248.216 323.037 248.055 322.349 248.055 321.569C248.055 320.779 248.216 320.087 248.537 319.49C248.858 318.894 249.308 318.435 249.886 318.114C250.464 317.792 251.13 317.632 251.882 317.632C252.607 317.632 253.254 317.788 253.823 318.1C254.401 318.412 254.846 318.857 255.158 319.435C255.48 320.004 255.64 320.66 255.64 321.404ZM253.644 320.853C253.635 320.357 253.456 319.963 253.107 319.669C252.759 319.366 252.332 319.215 251.827 319.215C251.35 319.215 250.946 319.362 250.616 319.655C250.294 319.94 250.097 320.339 250.024 320.853H253.644ZM258.974 318.939C259.222 318.536 259.543 318.219 259.938 317.99C260.341 317.76 260.8 317.646 261.314 317.646V319.669H260.805C260.199 319.669 259.74 319.811 259.428 320.096C259.125 320.38 258.974 320.876 258.974 321.582V325.382H257.047V317.756H258.974V318.939ZM265.531 325.506C264.907 325.506 264.347 325.396 263.851 325.175C263.356 324.946 262.961 324.638 262.667 324.253C262.383 323.868 262.227 323.441 262.199 322.973H264.14C264.177 323.267 264.319 323.51 264.567 323.702C264.824 323.895 265.141 323.991 265.517 323.991C265.884 323.991 266.168 323.918 266.37 323.771C266.581 323.624 266.687 323.436 266.687 323.207C266.687 322.959 266.558 322.776 266.302 322.656C266.054 322.528 265.655 322.39 265.104 322.243C264.535 322.106 264.067 321.963 263.7 321.817C263.342 321.67 263.03 321.445 262.764 321.142C262.507 320.839 262.378 320.431 262.378 319.917C262.378 319.495 262.498 319.109 262.736 318.761C262.984 318.412 263.333 318.136 263.782 317.935C264.241 317.733 264.778 317.632 265.393 317.632C266.302 317.632 267.027 317.861 267.568 318.32C268.109 318.77 268.408 319.38 268.463 320.151H266.618C266.591 319.848 266.462 319.609 266.233 319.435C266.012 319.252 265.714 319.16 265.338 319.16C264.989 319.16 264.718 319.224 264.526 319.352C264.342 319.481 264.25 319.66 264.25 319.889C264.25 320.146 264.379 320.344 264.636 320.481C264.893 320.61 265.292 320.743 265.833 320.88C266.384 321.018 266.838 321.16 267.196 321.307C267.554 321.454 267.862 321.683 268.119 321.995C268.385 322.298 268.522 322.702 268.532 323.207C268.532 323.647 268.408 324.042 268.16 324.391C267.921 324.739 267.573 325.015 267.114 325.217C266.664 325.409 266.136 325.506 265.531 325.506ZM271.091 316.847C270.751 316.847 270.467 316.742 270.237 316.53C270.017 316.31 269.907 316.04 269.907 315.718C269.907 315.397 270.017 315.131 270.237 314.92C270.467 314.7 270.751 314.59 271.091 314.59C271.43 314.59 271.71 314.7 271.931 314.92C272.16 315.131 272.275 315.397 272.275 315.718C272.275 316.04 272.16 316.31 271.931 316.53C271.71 316.742 271.43 316.847 271.091 316.847ZM272.041 317.756V325.382H270.114V317.756H272.041ZM276.189 319.339V323.028C276.189 323.285 276.248 323.473 276.368 323.592C276.496 323.702 276.707 323.757 277.001 323.757H277.896V325.382H276.684C275.06 325.382 274.248 324.593 274.248 323.014V319.339H273.339V317.756H274.248V315.87H276.189V317.756H277.896V319.339H276.189ZM286.578 317.756L281.856 328.988H279.805L281.457 325.189L278.401 317.756H280.562L282.53 323.083L284.526 317.756H286.578ZM209.919 343.478C209.249 343.478 208.644 343.363 208.102 343.134C207.57 342.905 207.148 342.574 206.836 342.143C206.524 341.712 206.363 341.202 206.354 340.615H208.419C208.446 341.01 208.584 341.322 208.832 341.551C209.089 341.78 209.437 341.895 209.878 341.895C210.328 341.895 210.681 341.79 210.938 341.579C211.195 341.358 211.323 341.074 211.323 340.725C211.323 340.441 211.236 340.207 211.062 340.023C210.887 339.839 210.667 339.697 210.401 339.596C210.144 339.486 209.786 339.367 209.327 339.238C208.703 339.055 208.194 338.876 207.799 338.701C207.414 338.518 207.079 338.247 206.794 337.889C206.519 337.522 206.381 337.036 206.381 336.43C206.381 335.861 206.524 335.366 206.808 334.943C207.093 334.521 207.492 334.2 208.006 333.98C208.52 333.75 209.107 333.636 209.768 333.636C210.759 333.636 211.562 333.879 212.177 334.365C212.801 334.843 213.145 335.512 213.209 336.375H211.089C211.071 336.045 210.929 335.774 210.663 335.563C210.406 335.343 210.061 335.233 209.63 335.233C209.254 335.233 208.951 335.329 208.722 335.522C208.501 335.714 208.391 335.994 208.391 336.361C208.391 336.618 208.474 336.834 208.639 337.008C208.813 337.173 209.024 337.311 209.272 337.421C209.529 337.522 209.887 337.642 210.346 337.779C210.97 337.963 211.479 338.146 211.874 338.33C212.269 338.513 212.608 338.789 212.893 339.156C213.177 339.523 213.319 340.005 213.319 340.601C213.319 341.115 213.186 341.592 212.92 342.033C212.654 342.473 212.264 342.827 211.75 343.093C211.236 343.35 210.626 343.478 209.919 343.478ZM217.234 337.339V341.028C217.234 341.285 217.294 341.473 217.413 341.592C217.541 341.702 217.752 341.757 218.046 341.757H218.941V343.382H217.73C216.105 343.382 215.293 342.593 215.293 341.014V337.339H214.384V335.756H215.293V333.87H217.234V335.756H218.941V337.339H217.234ZM219.832 339.541C219.832 338.77 219.983 338.087 220.286 337.49C220.598 336.894 221.015 336.435 221.538 336.114C222.071 335.792 222.663 335.632 223.314 335.632C223.883 335.632 224.379 335.746 224.801 335.976C225.232 336.205 225.576 336.494 225.833 336.843V335.756H227.774V343.382H225.833V342.267C225.586 342.625 225.241 342.923 224.801 343.162C224.37 343.391 223.869 343.506 223.3 343.506C222.658 343.506 222.071 343.341 221.538 343.01C221.015 342.68 220.598 342.216 220.286 341.62C219.983 341.014 219.832 340.321 219.832 339.541ZM225.833 339.569C225.833 339.101 225.742 338.701 225.558 338.371C225.375 338.032 225.127 337.775 224.815 337.6C224.503 337.417 224.168 337.325 223.81 337.325C223.452 337.325 223.122 337.412 222.819 337.586C222.516 337.761 222.268 338.018 222.075 338.357C221.892 338.688 221.8 339.082 221.8 339.541C221.8 340 221.892 340.404 222.075 340.753C222.268 341.092 222.516 341.354 222.819 341.537C223.131 341.721 223.461 341.813 223.81 341.813C224.168 341.813 224.503 341.725 224.815 341.551C225.127 341.367 225.375 341.11 225.558 340.78C225.742 340.441 225.833 340.037 225.833 339.569ZM234.172 343.382L231.584 340.133V343.382H229.657V333.195H231.584V338.991L234.144 335.756H236.65L233.291 339.582L236.677 343.382H234.172ZM244.785 339.404C244.785 339.679 244.767 339.927 244.73 340.147H239.155C239.201 340.698 239.393 341.129 239.733 341.441C240.072 341.753 240.49 341.909 240.986 341.909C241.701 341.909 242.211 341.601 242.514 340.987H244.592C244.372 341.721 243.95 342.326 243.326 342.804C242.702 343.272 241.935 343.506 241.027 343.506C240.293 343.506 239.632 343.345 239.045 343.024C238.466 342.694 238.012 342.23 237.682 341.634C237.361 341.037 237.2 340.349 237.2 339.569C237.2 338.779 237.361 338.087 237.682 337.49C238.003 336.894 238.453 336.435 239.031 336.114C239.609 335.792 240.274 335.632 241.027 335.632C241.752 335.632 242.399 335.788 242.968 336.1C243.546 336.412 243.991 336.857 244.303 337.435C244.624 338.004 244.785 338.66 244.785 339.404ZM242.789 338.853C242.78 338.357 242.601 337.963 242.252 337.669C241.903 337.366 241.477 337.215 240.972 337.215C240.495 337.215 240.091 337.362 239.76 337.655C239.439 337.94 239.242 338.339 239.168 338.853H242.789ZM250.486 335.646C251.065 335.646 251.579 335.774 252.028 336.031C252.478 336.279 252.827 336.65 253.074 337.146C253.331 337.632 253.46 338.22 253.46 338.908V343.382H251.533V339.17C251.533 338.564 251.381 338.1 251.078 337.779C250.776 337.449 250.363 337.284 249.839 337.284C249.307 337.284 248.885 337.449 248.573 337.779C248.27 338.1 248.119 338.564 248.119 339.17V343.382H246.192V333.195H248.119V336.705C248.367 336.375 248.697 336.118 249.11 335.935C249.523 335.742 249.982 335.646 250.486 335.646ZM258.679 343.506C257.945 343.506 257.284 343.345 256.697 343.024C256.109 342.694 255.646 342.23 255.306 341.634C254.976 341.037 254.811 340.349 254.811 339.569C254.811 338.789 254.981 338.1 255.32 337.504C255.669 336.907 256.141 336.449 256.738 336.127C257.334 335.797 258 335.632 258.734 335.632C259.468 335.632 260.133 335.797 260.73 336.127C261.327 336.449 261.795 336.907 262.134 337.504C262.483 338.1 262.657 338.789 262.657 339.569C262.657 340.349 262.478 341.037 262.12 341.634C261.772 342.23 261.294 342.694 260.689 343.024C260.092 343.345 259.422 343.506 258.679 343.506ZM258.679 341.826C259.028 341.826 259.353 341.744 259.656 341.579C259.968 341.404 260.216 341.147 260.4 340.808C260.583 340.468 260.675 340.055 260.675 339.569C260.675 338.844 260.482 338.289 260.097 337.903C259.721 337.508 259.257 337.311 258.706 337.311C258.156 337.311 257.692 337.508 257.316 337.903C256.949 338.289 256.765 338.844 256.765 339.569C256.765 340.294 256.944 340.854 257.302 341.248C257.669 341.634 258.128 341.826 258.679 341.826ZM265.998 333.195V343.382H264.071V333.195H265.998ZM267.407 339.541C267.407 338.77 267.558 338.087 267.861 337.49C268.173 336.894 268.595 336.435 269.127 336.114C269.66 335.792 270.252 335.632 270.903 335.632C271.399 335.632 271.871 335.742 272.321 335.962C272.771 336.173 273.129 336.458 273.395 336.816V333.195H275.349V343.382H273.395V342.253C273.156 342.629 272.821 342.932 272.39 343.162C271.958 343.391 271.458 343.506 270.889 343.506C270.247 343.506 269.66 343.341 269.127 343.01C268.595 342.68 268.173 342.216 267.861 341.62C267.558 341.014 267.407 340.321 267.407 339.541ZM273.408 339.569C273.408 339.101 273.317 338.701 273.133 338.371C272.95 338.032 272.702 337.775 272.39 337.6C272.078 337.417 271.743 337.325 271.385 337.325C271.027 337.325 270.697 337.412 270.394 337.586C270.091 337.761 269.843 338.018 269.65 338.357C269.467 338.688 269.375 339.082 269.375 339.541C269.375 340 269.467 340.404 269.65 340.753C269.843 341.092 270.091 341.354 270.394 341.537C270.706 341.721 271.036 341.813 271.385 341.813C271.743 341.813 272.078 341.725 272.39 341.551C272.702 341.367 272.95 341.11 273.133 340.78C273.317 340.441 273.408 340.037 273.408 339.569ZM284.321 339.404C284.321 339.679 284.303 339.927 284.266 340.147H278.691C278.737 340.698 278.929 341.129 279.269 341.441C279.609 341.753 280.026 341.909 280.522 341.909C281.237 341.909 281.747 341.601 282.05 340.987H284.128C283.908 341.721 283.486 342.326 282.862 342.804C282.238 343.272 281.471 343.506 280.563 343.506C279.829 343.506 279.168 343.345 278.581 343.024C278.003 342.694 277.548 342.23 277.218 341.634C276.897 341.037 276.736 340.349 276.736 339.569C276.736 338.779 276.897 338.087 277.218 337.49C277.539 336.894 277.989 336.435 278.567 336.114C279.145 335.792 279.81 335.632 280.563 335.632C281.288 335.632 281.935 335.788 282.504 336.1C283.082 336.412 283.527 336.857 283.839 337.435C284.16 338.004 284.321 338.66 284.321 339.404ZM282.325 338.853C282.316 338.357 282.137 337.963 281.788 337.669C281.439 337.366 281.013 337.215 280.508 337.215C280.031 337.215 279.627 337.362 279.297 337.655C278.975 337.94 278.778 338.339 278.705 338.853H282.325ZM287.655 336.939C287.903 336.536 288.224 336.219 288.618 335.99C289.022 335.76 289.481 335.646 289.995 335.646V337.669H289.486C288.88 337.669 288.421 337.811 288.109 338.096C287.806 338.38 287.655 338.876 287.655 339.582V343.382H285.728V335.756H287.655V336.939ZM294.211 343.506C293.587 343.506 293.028 343.396 292.532 343.175C292.036 342.946 291.642 342.638 291.348 342.253C291.064 341.868 290.908 341.441 290.88 340.973H292.821C292.858 341.267 293 341.51 293.248 341.702C293.505 341.895 293.821 341.991 294.198 341.991C294.565 341.991 294.849 341.918 295.051 341.771C295.262 341.624 295.368 341.436 295.368 341.207C295.368 340.959 295.239 340.776 294.982 340.656C294.735 340.528 294.335 340.39 293.785 340.243C293.216 340.106 292.748 339.963 292.381 339.817C292.023 339.67 291.711 339.445 291.445 339.142C291.188 338.839 291.059 338.431 291.059 337.917C291.059 337.495 291.178 337.109 291.417 336.761C291.665 336.412 292.014 336.136 292.463 335.935C292.922 335.733 293.459 335.632 294.074 335.632C294.982 335.632 295.707 335.861 296.249 336.32C296.79 336.77 297.088 337.38 297.144 338.151H295.299C295.271 337.848 295.143 337.609 294.914 337.435C294.693 337.252 294.395 337.16 294.019 337.16C293.67 337.16 293.399 337.224 293.207 337.352C293.023 337.481 292.931 337.66 292.931 337.889C292.931 338.146 293.06 338.344 293.317 338.481C293.574 338.61 293.973 338.743 294.514 338.88C295.065 339.018 295.519 339.16 295.877 339.307C296.235 339.454 296.542 339.683 296.799 339.995C297.066 340.298 297.203 340.702 297.212 341.207C297.212 341.647 297.088 342.042 296.841 342.391C296.602 342.739 296.253 343.015 295.795 343.217C295.345 343.409 294.817 343.506 294.211 343.506ZM234.633 352.632C235.202 352.632 235.702 352.746 236.134 352.976C236.565 353.196 236.905 353.485 237.152 353.843V352.756H239.093V360.437C239.093 361.144 238.951 361.772 238.667 362.323C238.382 362.883 237.955 363.323 237.386 363.644C236.817 363.975 236.129 364.14 235.322 364.14C234.239 364.14 233.349 363.888 232.651 363.383C231.963 362.878 231.573 362.19 231.481 361.318H233.394C233.495 361.667 233.711 361.942 234.041 362.144C234.381 362.355 234.789 362.46 235.267 362.46C235.826 362.46 236.281 362.291 236.629 361.951C236.978 361.621 237.152 361.116 237.152 360.437V359.253C236.905 359.611 236.561 359.909 236.12 360.148C235.689 360.386 235.193 360.506 234.633 360.506C233.991 360.506 233.404 360.341 232.871 360.01C232.339 359.68 231.917 359.216 231.605 358.62C231.302 358.014 231.151 357.321 231.151 356.541C231.151 355.77 231.302 355.087 231.605 354.49C231.917 353.894 232.334 353.435 232.858 353.114C233.39 352.792 233.982 352.632 234.633 352.632ZM237.152 356.569C237.152 356.101 237.061 355.701 236.877 355.371C236.694 355.032 236.446 354.775 236.134 354.6C235.822 354.417 235.487 354.325 235.129 354.325C234.771 354.325 234.441 354.412 234.138 354.586C233.835 354.761 233.587 355.018 233.394 355.357C233.211 355.688 233.119 356.082 233.119 356.541C233.119 357 233.211 357.404 233.394 357.753C233.587 358.092 233.835 358.354 234.138 358.537C234.45 358.721 234.78 358.813 235.129 358.813C235.487 358.813 235.822 358.725 236.134 358.551C236.446 358.367 236.694 358.11 236.877 357.78C237.061 357.441 237.152 357.037 237.152 356.569ZM242.903 353.939C243.151 353.536 243.472 353.219 243.866 352.99C244.27 352.76 244.729 352.646 245.243 352.646V354.669H244.734C244.128 354.669 243.669 354.811 243.357 355.096C243.054 355.38 242.903 355.876 242.903 356.582V360.382H240.976V352.756H242.903V353.939ZM249.927 360.506C249.193 360.506 248.533 360.345 247.945 360.024C247.358 359.694 246.894 359.23 246.555 358.634C246.224 358.037 246.059 357.349 246.059 356.569C246.059 355.789 246.229 355.1 246.569 354.504C246.917 353.907 247.39 353.449 247.986 353.127C248.583 352.797 249.248 352.632 249.983 352.632C250.717 352.632 251.382 352.797 251.979 353.127C252.575 353.449 253.043 353.907 253.383 354.504C253.731 355.1 253.906 355.789 253.906 356.569C253.906 357.349 253.727 358.037 253.369 358.634C253.02 359.23 252.543 359.694 251.937 360.024C251.341 360.345 250.671 360.506 249.927 360.506ZM249.927 358.826C250.276 358.826 250.602 358.744 250.905 358.579C251.217 358.404 251.465 358.147 251.648 357.808C251.832 357.468 251.923 357.055 251.923 356.569C251.923 355.844 251.731 355.289 251.345 354.903C250.969 354.508 250.506 354.311 249.955 354.311C249.404 354.311 248.941 354.508 248.565 354.903C248.198 355.289 248.014 355.844 248.014 356.569C248.014 357.294 248.193 357.854 248.551 358.248C248.918 358.634 249.377 358.826 249.927 358.826ZM262.519 352.756V360.382H260.578V359.418C260.33 359.749 260.004 360.01 259.601 360.203C259.206 360.386 258.775 360.478 258.307 360.478C257.71 360.478 257.182 360.354 256.724 360.107C256.265 359.85 255.902 359.478 255.636 358.991C255.379 358.496 255.251 357.909 255.251 357.229V352.756H257.178V356.954C257.178 357.56 257.329 358.028 257.632 358.358C257.935 358.679 258.348 358.84 258.871 358.84C259.403 358.84 259.821 358.679 260.124 358.358C260.427 358.028 260.578 357.56 260.578 356.954V352.756H262.519ZM266.348 353.857C266.595 353.508 266.935 353.219 267.366 352.99C267.807 352.751 268.307 352.632 268.867 352.632C269.518 352.632 270.106 352.792 270.629 353.114C271.161 353.435 271.579 353.894 271.881 354.49C272.193 355.077 272.349 355.761 272.349 356.541C272.349 357.321 272.193 358.014 271.881 358.62C271.579 359.216 271.161 359.68 270.629 360.01C270.106 360.341 269.518 360.506 268.867 360.506C268.307 360.506 267.811 360.391 267.38 360.162C266.958 359.932 266.614 359.643 266.348 359.294V364.016H264.42V352.756H266.348V353.857ZM270.381 356.541C270.381 356.082 270.285 355.688 270.092 355.357C269.908 355.018 269.661 354.761 269.349 354.586C269.046 354.412 268.715 354.325 268.357 354.325C268.009 354.325 267.678 354.417 267.366 354.6C267.063 354.775 266.816 355.032 266.623 355.371C266.439 355.711 266.348 356.11 266.348 356.569C266.348 357.028 266.439 357.427 266.623 357.766C266.816 358.106 267.063 358.367 267.366 358.551C267.678 358.725 268.009 358.813 268.357 358.813C268.715 358.813 269.046 358.721 269.349 358.537C269.661 358.354 269.908 358.092 270.092 357.753C270.285 357.413 270.381 357.009 270.381 356.541Z" fill="#212121"/>
<path d="M59.9154 270.586C93.0058 253.892 133.363 267.185 150.057 300.275C166.75 333.366 153.458 373.723 120.367 390.417C87.277 407.11 46.9193 393.818 30.226 360.727C22.9674 346.339 21.3781 330.576 24.6207 315.983" stroke="#B75400" stroke-width="1.13262" stroke-linecap="round" stroke-linejoin="round"/>
<circle cx="90.1414" cy="330.501" r="57.6439" fill="#FEF5EF"/>
<path d="M63.5423 315.265L61.4223 311.52H60.5138V315.265H58.5866V305.656H62.1932C62.9366 305.656 63.5698 305.789 64.0929 306.055C64.616 306.312 65.006 306.666 65.263 307.115C65.5291 307.556 65.6622 308.051 65.6622 308.602C65.6622 309.235 65.4786 309.809 65.1116 310.323C64.7445 310.827 64.1984 311.176 63.4734 311.369L65.7723 315.265H63.5423ZM60.5138 310.075H62.1244C62.6475 310.075 63.0375 309.951 63.2945 309.703C63.5514 309.446 63.6799 309.093 63.6799 308.643C63.6799 308.203 63.5514 307.863 63.2945 307.625C63.0375 307.377 62.6475 307.253 62.1244 307.253H60.5138V310.075ZM74.4946 311.286C74.4946 311.562 74.4763 311.809 74.4396 312.03H68.8644C68.9103 312.58 69.103 313.012 69.4426 313.324C69.7822 313.636 70.1997 313.792 70.6953 313.792C71.4111 313.792 71.9204 313.484 72.2233 312.869H74.3019C74.0816 313.604 73.6595 314.209 73.0355 314.686C72.4114 315.155 71.6451 315.389 70.7366 315.389C70.0024 315.389 69.3417 315.228 68.7543 314.907C68.1762 314.576 67.7219 314.113 67.3915 313.516C67.0703 312.92 66.9097 312.232 66.9097 311.452C66.9097 310.662 67.0703 309.969 67.3915 309.373C67.7127 308.776 68.1624 308.318 68.7405 307.996C69.3187 307.675 69.9841 307.515 70.7366 307.515C71.4616 307.515 72.1086 307.671 72.6775 307.983C73.2557 308.295 73.7008 308.74 74.0128 309.318C74.334 309.887 74.4946 310.543 74.4946 311.286ZM72.4986 310.736C72.4894 310.24 72.3105 309.846 71.9617 309.552C71.613 309.249 71.1863 309.098 70.6815 309.098C70.2043 309.098 69.8005 309.244 69.4701 309.538C69.1489 309.823 68.9516 310.222 68.8782 310.736H72.4986ZM78.8196 315.389C78.1956 315.389 77.6358 315.278 77.1402 315.058C76.6447 314.829 76.25 314.521 75.9564 314.136C75.6719 313.75 75.5159 313.324 75.4883 312.856H77.4293C77.466 313.149 77.6083 313.393 77.856 313.585C78.113 313.778 78.4296 313.874 78.8059 313.874C79.173 313.874 79.4574 313.801 79.6593 313.654C79.8704 313.507 79.976 313.319 79.976 313.09C79.976 312.842 79.8475 312.658 79.5905 312.539C79.3427 312.411 78.9435 312.273 78.3929 312.126C77.8239 311.988 77.3559 311.846 76.9888 311.699C76.6309 311.552 76.3189 311.328 76.0527 311.025C75.7958 310.722 75.6673 310.314 75.6673 309.8C75.6673 309.378 75.7866 308.992 76.0252 308.643C76.273 308.295 76.6217 308.019 77.0714 307.817C77.5302 307.615 78.0671 307.515 78.682 307.515C79.5905 307.515 80.3155 307.744 80.857 308.203C81.3984 308.653 81.6967 309.263 81.7517 310.034H79.9071C79.8796 309.731 79.7511 309.492 79.5217 309.318C79.3014 309.134 79.0032 309.043 78.6269 309.043C78.2782 309.043 78.0075 309.107 77.8147 309.235C77.6312 309.364 77.5394 309.543 77.5394 309.772C77.5394 310.029 77.6679 310.226 77.9249 310.364C78.1818 310.493 78.581 310.626 79.1225 310.763C79.6731 310.901 80.1274 311.043 80.4853 311.19C80.8432 311.337 81.1506 311.566 81.4076 311.878C81.6737 312.181 81.8114 312.585 81.8206 313.09C81.8206 313.53 81.6967 313.925 81.4489 314.274C81.2103 314.622 80.8615 314.898 80.4027 315.099C79.953 315.292 79.4253 315.389 78.8196 315.389ZM90.4919 311.286C90.4919 311.562 90.4735 311.809 90.4368 312.03H84.8617C84.9076 312.58 85.1003 313.012 85.4399 313.324C85.7794 313.636 86.197 313.792 86.6925 313.792C87.4084 313.792 87.9177 313.484 88.2205 312.869H90.2992C90.0789 313.604 89.6568 314.209 89.0327 314.686C88.4087 315.155 87.6424 315.389 86.7338 315.389C85.9997 315.389 85.3389 315.228 84.7516 314.907C84.1734 314.576 83.7192 314.113 83.3888 313.516C83.0676 312.92 82.907 312.232 82.907 311.452C82.907 310.662 83.0676 309.969 83.3888 309.373C83.71 308.776 84.1597 308.318 84.7378 307.996C85.316 307.675 85.9813 307.515 86.7338 307.515C87.4588 307.515 88.1058 307.671 88.6748 307.983C89.253 308.295 89.6981 308.74 90.0101 309.318C90.3313 309.887 90.4919 310.543 90.4919 311.286ZM88.4959 310.736C88.4867 310.24 88.3077 309.846 87.959 309.552C87.6103 309.249 87.1835 309.098 86.6788 309.098C86.2016 309.098 85.7978 309.244 85.4674 309.538C85.1462 309.823 84.9489 310.222 84.8755 310.736H88.4959ZM91.403 311.424C91.403 310.653 91.5544 309.969 91.8573 309.373C92.1693 308.776 92.5869 308.318 93.11 307.996C93.6422 307.675 94.2342 307.515 94.8857 307.515C95.4547 307.515 95.9503 307.629 96.3724 307.859C96.8038 308.088 97.1479 308.377 97.4049 308.726V307.638H99.3458V315.265H97.4049V314.15C97.1571 314.508 96.8129 314.806 96.3724 315.044C95.9411 315.274 95.4409 315.389 94.872 315.389C94.2296 315.389 93.6422 315.223 93.11 314.893C92.5869 314.563 92.1693 314.099 91.8573 313.503C91.5544 312.897 91.403 312.204 91.403 311.424ZM97.4049 311.452C97.4049 310.984 97.3131 310.584 97.1295 310.254C96.946 309.914 96.6982 309.657 96.3862 309.483C96.0742 309.3 95.7392 309.208 95.3813 309.208C95.0234 309.208 94.693 309.295 94.3902 309.469C94.0873 309.644 93.8395 309.901 93.6468 310.24C93.4633 310.571 93.3715 310.965 93.3715 311.424C93.3715 311.883 93.4633 312.287 93.6468 312.635C93.8395 312.975 94.0873 313.236 94.3902 313.42C94.7022 313.604 95.0326 313.695 95.3813 313.695C95.7392 313.695 96.0742 313.608 96.3862 313.434C96.6982 313.25 96.946 312.993 97.1295 312.663C97.3131 312.323 97.4049 311.92 97.4049 311.452ZM103.155 308.822C103.403 308.418 103.724 308.102 104.119 307.872C104.523 307.643 104.982 307.528 105.495 307.528V309.552H104.986C104.38 309.552 103.922 309.694 103.61 309.979C103.307 310.263 103.155 310.759 103.155 311.465V315.265H101.228V307.638H103.155V308.822ZM106.298 311.452C106.298 310.662 106.459 309.974 106.78 309.387C107.101 308.79 107.546 308.331 108.115 308.01C108.684 307.68 109.336 307.515 110.07 307.515C111.015 307.515 111.795 307.753 112.41 308.23C113.034 308.698 113.452 309.359 113.663 310.213H111.584C111.474 309.882 111.286 309.625 111.02 309.442C110.763 309.249 110.441 309.153 110.056 309.153C109.505 309.153 109.069 309.355 108.748 309.758C108.427 310.153 108.266 310.717 108.266 311.452C108.266 312.177 108.427 312.741 108.748 313.145C109.069 313.539 109.505 313.737 110.056 313.737C110.836 313.737 111.345 313.388 111.584 312.69H113.663C113.452 313.516 113.034 314.173 112.41 314.659C111.786 315.145 111.006 315.389 110.07 315.389C109.336 315.389 108.684 315.228 108.115 314.907C107.546 314.576 107.101 314.118 106.78 313.53C106.459 312.934 106.298 312.241 106.298 311.452ZM119.369 307.528C119.948 307.528 120.461 307.657 120.911 307.914C121.361 308.162 121.71 308.533 121.957 309.029C122.214 309.515 122.343 310.103 122.343 310.791V315.265H120.416V311.052C120.416 310.447 120.264 309.983 119.961 309.662C119.658 309.332 119.245 309.166 118.722 309.166C118.19 309.166 117.768 309.332 117.456 309.662C117.153 309.983 117.002 310.447 117.002 311.052V315.265H115.074V305.078H117.002V308.588C117.249 308.258 117.58 308.001 117.993 307.817C118.406 307.625 118.865 307.528 119.369 307.528ZM67.1414 324.528C68.0499 324.528 68.7841 324.817 69.3439 325.396C69.9037 325.965 70.1836 326.763 70.1836 327.791V332.265H68.2564V328.052C68.2564 327.447 68.105 326.983 67.8021 326.662C67.4993 326.332 67.0863 326.166 66.5632 326.166C66.0309 326.166 65.6088 326.332 65.2968 326.662C64.9939 326.983 64.8425 327.447 64.8425 328.052V332.265H62.9153V324.638H64.8425V325.588C65.0994 325.258 65.4252 325.001 65.8198 324.817C66.2236 324.625 66.6641 324.528 67.1414 324.528ZM79.1056 328.286C79.1056 328.562 79.0872 328.809 79.0505 329.03H73.4754C73.5213 329.58 73.714 330.012 74.0536 330.324C74.3931 330.636 74.8107 330.792 75.3063 330.792C76.0221 330.792 76.5314 330.484 76.8343 329.869H78.9129C78.6926 330.604 78.2705 331.209 77.6464 331.686C77.0224 332.155 76.2561 332.389 75.3476 332.389C74.6134 332.389 73.9526 332.228 73.3653 331.907C72.7871 331.576 72.3329 331.113 72.0025 330.516C71.6813 329.92 71.5207 329.232 71.5207 328.452C71.5207 327.662 71.6813 326.969 72.0025 326.373C72.3237 325.776 72.7734 325.318 73.3515 324.996C73.9297 324.675 74.595 324.515 75.3476 324.515C76.0725 324.515 76.7195 324.671 77.2885 324.983C77.8667 325.295 78.3118 325.74 78.6238 326.318C78.945 326.887 79.1056 327.543 79.1056 328.286ZM77.1096 327.736C77.1004 327.24 76.9214 326.846 76.5727 326.552C76.224 326.249 75.7972 326.098 75.2925 326.098C74.8153 326.098 74.4115 326.244 74.0811 326.538C73.7599 326.823 73.5626 327.222 73.4892 327.736H77.1096ZM82.7561 326.221V329.911C82.7561 330.168 82.8157 330.356 82.935 330.475C83.0635 330.585 83.2746 330.64 83.5683 330.64H84.463V332.265H83.2517C81.6273 332.265 80.8151 331.475 80.8151 329.897V326.221H79.9066V324.638H80.8151V322.753H82.7561V324.638H84.463V326.221H82.7561ZM96.4213 324.638L94.1912 332.265H92.1126L90.7222 326.937L89.3319 332.265H87.2395L84.9957 324.638H86.9504L88.2995 330.448L89.7586 324.638H91.796L93.2276 330.434L94.5766 324.638H96.4213ZM100.85 332.389C100.116 332.389 99.4555 332.228 98.8681 331.907C98.2808 331.576 97.8173 331.113 97.4778 330.516C97.1474 329.92 96.9822 329.232 96.9822 328.452C96.9822 327.671 97.152 326.983 97.4915 326.387C97.8403 325.79 98.3129 325.331 98.9094 325.01C99.5059 324.68 100.171 324.515 100.905 324.515C101.64 324.515 102.305 324.68 102.901 325.01C103.498 325.331 103.966 325.79 104.306 326.387C104.654 326.983 104.829 327.671 104.829 328.452C104.829 329.232 104.65 329.92 104.292 330.516C103.943 331.113 103.466 331.576 102.86 331.907C102.264 332.228 101.594 332.389 100.85 332.389ZM100.85 330.709C101.199 330.709 101.525 330.627 101.828 330.461C102.14 330.287 102.388 330.03 102.571 329.69C102.755 329.351 102.846 328.938 102.846 328.452C102.846 327.727 102.654 327.171 102.268 326.786C101.892 326.391 101.429 326.194 100.878 326.194C100.327 326.194 99.8638 326.391 99.4876 326.786C99.1205 327.171 98.9369 327.727 98.9369 328.452C98.9369 329.177 99.1159 329.736 99.4738 330.131C99.8409 330.516 100.3 330.709 100.85 330.709ZM108.17 325.822C108.417 325.418 108.739 325.102 109.133 324.872C109.537 324.643 109.996 324.528 110.51 324.528V326.552H110C109.395 326.552 108.936 326.694 108.624 326.979C108.321 327.263 108.17 327.759 108.17 328.465V332.265H106.242V324.638H108.17V325.822ZM116.323 332.265L113.735 329.016V332.265H111.808V322.078H113.735V327.873L116.295 324.638H118.801L115.442 328.465L118.828 332.265H116.323ZM37.9966 343.822C38.2444 343.418 38.5656 343.102 38.9602 342.872C39.364 342.643 39.8229 342.528 40.3368 342.528V344.552H39.8275C39.2218 344.552 38.7629 344.694 38.4509 344.979C38.1481 345.263 37.9966 345.759 37.9966 346.465V350.265H36.0694V342.638H37.9966V343.822ZM48.7242 346.286C48.7242 346.562 48.7059 346.809 48.6692 347.03H43.094C43.1399 347.58 43.3327 348.012 43.6722 348.324C44.0118 348.636 44.4293 348.792 44.9249 348.792C45.6407 348.792 46.15 348.484 46.4529 347.869H48.5315C48.3113 348.604 47.8891 349.209 47.2651 349.686C46.641 350.155 45.8747 350.389 44.9662 350.389C44.232 350.389 43.5713 350.228 42.9839 349.907C42.4058 349.576 41.9515 349.113 41.6211 348.516C41.2999 347.92 41.1393 347.232 41.1393 346.452C41.1393 345.662 41.2999 344.969 41.6211 344.373C41.9423 343.776 42.392 343.318 42.9702 342.996C43.5483 342.675 44.2137 342.515 44.9662 342.515C45.6912 342.515 46.3382 342.671 46.9072 342.983C47.4853 343.295 47.9304 343.74 48.2424 344.318C48.5636 344.887 48.7242 345.543 48.7242 346.286ZM46.7282 345.736C46.719 345.24 46.5401 344.846 46.1913 344.552C45.8426 344.249 45.4159 344.098 44.9111 344.098C44.4339 344.098 44.0301 344.244 43.6997 344.538C43.3785 344.823 43.1812 345.222 43.1078 345.736H46.7282ZM52.0581 343.74C52.3059 343.391 52.6454 343.102 53.0768 342.872C53.5173 342.634 54.0174 342.515 54.5772 342.515C55.2288 342.515 55.8162 342.675 56.3392 342.996C56.8715 343.318 57.2891 343.776 57.5919 344.373C57.904 344.96 58.06 345.644 58.06 346.424C58.06 347.204 57.904 347.897 57.5919 348.503C57.2891 349.099 56.8715 349.563 56.3392 349.893C55.8162 350.223 55.2288 350.389 54.5772 350.389C54.0174 350.389 53.5219 350.274 53.0905 350.044C52.6684 349.815 52.3242 349.526 52.0581 349.177V353.899H50.1309V342.638H52.0581V343.74ZM56.0915 346.424C56.0915 345.965 55.9951 345.571 55.8024 345.24C55.6188 344.901 55.3711 344.644 55.059 344.469C54.7562 344.295 54.4258 344.208 54.0679 344.208C53.7192 344.208 53.3888 344.3 53.0768 344.483C52.7739 344.657 52.5261 344.914 52.3334 345.254C52.1499 345.593 52.0581 345.993 52.0581 346.452C52.0581 346.91 52.1499 347.31 52.3334 347.649C52.5261 347.989 52.7739 348.25 53.0768 348.434C53.3888 348.608 53.7192 348.695 54.0679 348.695C54.4258 348.695 54.7562 348.604 55.059 348.42C55.3711 348.236 55.6188 347.975 55.8024 347.635C55.9951 347.296 56.0915 346.892 56.0915 346.424ZM61.3876 343.822C61.6354 343.418 61.9566 343.102 62.3512 342.872C62.755 342.643 63.2139 342.528 63.7278 342.528V344.552H63.2185C62.6128 344.552 62.1539 344.694 61.8419 344.979C61.539 345.263 61.3876 345.759 61.3876 346.465V350.265H59.4604V342.638H61.3876V343.822ZM72.1152 346.286C72.1152 346.562 72.0968 346.809 72.0601 347.03H66.485C66.5309 347.58 66.7236 348.012 67.0632 348.324C67.4027 348.636 67.8203 348.792 68.3159 348.792C69.0317 348.792 69.541 348.484 69.8438 347.869H71.9225C71.7022 348.604 71.2801 349.209 70.656 349.686C70.032 350.155 69.2657 350.389 68.3571 350.389C67.623 350.389 66.9622 350.228 66.3749 349.907C65.7967 349.576 65.3425 349.113 65.0121 348.516C64.6909 347.92 64.5303 347.232 64.5303 346.452C64.5303 345.662 64.6909 344.969 65.0121 344.373C65.3333 343.776 65.783 343.318 66.3611 342.996C66.9393 342.675 67.6046 342.515 68.3571 342.515C69.0821 342.515 69.7291 342.671 70.2981 342.983C70.8763 343.295 71.3214 343.74 71.6334 344.318C71.9546 344.887 72.1152 345.543 72.1152 346.286ZM70.1192 345.736C70.11 345.24 69.931 344.846 69.5823 344.552C69.2336 344.249 68.8068 344.098 68.3021 344.098C67.8249 344.098 67.4211 344.244 67.0907 344.538C66.7695 344.823 66.5722 345.222 66.4988 345.736H70.1192ZM76.4402 350.389C75.8162 350.389 75.2564 350.278 74.7608 350.058C74.2652 349.829 73.8706 349.521 73.5769 349.136C73.2924 348.75 73.1364 348.324 73.1089 347.856H75.0499C75.0866 348.149 75.2288 348.393 75.4766 348.585C75.7336 348.778 76.0502 348.874 76.4264 348.874C76.7935 348.874 77.078 348.801 77.2799 348.654C77.491 348.507 77.5965 348.319 77.5965 348.09C77.5965 347.842 77.468 347.658 77.2111 347.539C76.9633 347.411 76.5641 347.273 76.0135 347.126C75.4445 346.988 74.9765 346.846 74.6094 346.699C74.2515 346.552 73.9394 346.328 73.6733 346.025C73.4163 345.722 73.2879 345.314 73.2879 344.8C73.2879 344.378 73.4072 343.992 73.6458 343.643C73.8935 343.295 74.2423 343.019 74.692 342.817C75.1508 342.615 75.6877 342.515 76.3025 342.515C77.2111 342.515 77.9361 342.744 78.4775 343.203C79.019 343.653 79.3172 344.263 79.3723 345.034H77.5277C77.5002 344.731 77.3717 344.492 77.1423 344.318C76.922 344.134 76.6237 344.043 76.2475 344.043C75.8988 344.043 75.628 344.107 75.4353 344.235C75.2518 344.364 75.16 344.543 75.16 344.772C75.16 345.029 75.2885 345.226 75.5454 345.364C75.8024 345.493 76.2016 345.626 76.7431 345.763C77.2937 345.901 77.7479 346.043 78.1059 346.19C78.4638 346.337 78.7712 346.566 79.0282 346.878C79.2943 347.181 79.432 347.585 79.4411 348.09C79.4411 348.53 79.3172 348.925 79.0695 349.274C78.8309 349.622 78.4821 349.898 78.0233 350.099C77.5736 350.292 77.0459 350.389 76.4402 350.389ZM88.1125 346.286C88.1125 346.562 88.0941 346.809 88.0574 347.03H82.4823C82.5282 347.58 82.7209 348.012 83.0604 348.324C83.4 348.636 83.8176 348.792 84.3131 348.792C85.0289 348.792 85.5383 348.484 85.8411 347.869H87.9197C87.6995 348.604 87.2773 349.209 86.6533 349.686C86.0293 350.155 85.263 350.389 84.3544 350.389C83.6202 350.389 82.9595 350.228 82.3722 349.907C81.794 349.576 81.3397 349.113 81.0094 348.516C80.6882 347.92 80.5276 347.232 80.5276 346.452C80.5276 345.662 80.6882 344.969 81.0094 344.373C81.3306 343.776 81.7802 343.318 82.3584 342.996C82.9366 342.675 83.6019 342.515 84.3544 342.515C85.0794 342.515 85.7264 342.671 86.2954 342.983C86.8735 343.295 87.3186 343.74 87.6307 344.318C87.9519 344.887 88.1125 345.543 88.1125 346.286ZM86.1164 345.736C86.1073 345.24 85.9283 344.846 85.5796 344.552C85.2308 344.249 84.8041 344.098 84.2994 344.098C83.8221 344.098 83.4184 344.244 83.088 344.538C82.7668 344.823 82.5695 345.222 82.496 345.736H86.1164ZM93.7452 342.528C94.6538 342.528 95.3879 342.817 95.9477 343.396C96.5075 343.965 96.7874 344.763 96.7874 345.791V350.265H94.8602V346.052C94.8602 345.447 94.7088 344.983 94.406 344.662C94.1031 344.332 93.6902 344.166 93.1671 344.166C92.6348 344.166 92.2126 344.332 91.9006 344.662C91.5978 344.983 91.4463 345.447 91.4463 346.052V350.265H89.5191V342.638H91.4463V343.588C91.7033 343.258 92.0291 343.001 92.4237 342.817C92.8275 342.625 93.268 342.528 93.7452 342.528ZM100.864 344.221V347.911C100.864 348.168 100.924 348.356 101.043 348.475C101.171 348.585 101.382 348.64 101.676 348.64H102.571V350.265H101.359C99.7351 350.265 98.923 349.475 98.923 347.897V344.221H98.0144V342.638H98.923V340.753H100.864V342.638H102.571V344.221H100.864ZM103.461 346.424C103.461 345.653 103.613 344.969 103.916 344.373C104.228 343.776 104.645 343.318 105.168 342.996C105.701 342.675 106.293 342.515 106.944 342.515C107.513 342.515 108.009 342.629 108.431 342.859C108.862 343.088 109.206 343.377 109.463 343.726V342.638H111.404V350.265H109.463V349.15C109.216 349.508 108.871 349.806 108.431 350.044C108 350.274 107.499 350.389 106.93 350.389C106.288 350.389 105.701 350.223 105.168 349.893C104.645 349.563 104.228 349.099 103.916 348.503C103.613 347.897 103.461 347.204 103.461 346.424ZM109.463 346.452C109.463 345.984 109.372 345.584 109.188 345.254C109.004 344.914 108.757 344.657 108.445 344.483C108.133 344.3 107.798 344.208 107.44 344.208C107.082 344.208 106.751 344.295 106.449 344.469C106.146 344.644 105.898 344.901 105.705 345.24C105.522 345.571 105.43 345.965 105.43 346.424C105.43 346.883 105.522 347.287 105.705 347.635C105.898 347.975 106.146 348.236 106.449 348.42C106.761 348.604 107.091 348.695 107.44 348.695C107.798 348.695 108.133 348.608 108.445 348.434C108.757 348.25 109.004 347.993 109.188 347.663C109.372 347.323 109.463 346.92 109.463 346.452ZM115.53 344.221V347.911C115.53 348.168 115.59 348.356 115.709 348.475C115.838 348.585 116.049 348.64 116.343 348.64H117.237V350.265H116.026C114.402 350.265 113.589 349.475 113.589 347.897V344.221H112.681V342.638H113.589V340.753H115.53V342.638H117.237V344.221H115.53ZM119.601 341.73C119.261 341.73 118.977 341.624 118.747 341.413C118.527 341.193 118.417 340.922 118.417 340.601C118.417 340.28 118.527 340.014 118.747 339.803C118.977 339.582 119.261 339.472 119.601 339.472C119.94 339.472 120.22 339.582 120.44 339.803C120.67 340.014 120.785 340.28 120.785 340.601C120.785 340.922 120.67 341.193 120.44 341.413C120.22 341.624 119.94 341.73 119.601 341.73ZM120.551 342.638V350.265H118.623V342.638H120.551ZM125.635 348.489L127.562 342.638H129.613L126.791 350.265H124.451L121.643 342.638H123.707L125.635 348.489ZM137.785 346.286C137.785 346.562 137.766 346.809 137.73 347.03H132.154C132.2 347.58 132.393 348.012 132.733 348.324C133.072 348.636 133.49 348.792 133.985 348.792C134.701 348.792 135.21 348.484 135.513 347.869H137.592C137.372 348.604 136.95 349.209 136.325 349.686C135.701 350.155 134.935 350.389 134.027 350.389C133.292 350.389 132.632 350.228 132.044 349.907C131.466 349.576 131.012 349.113 130.682 348.516C130.36 347.92 130.2 347.232 130.2 346.452C130.2 345.662 130.36 344.969 130.682 344.373C131.003 343.776 131.452 343.318 132.031 342.996C132.609 342.675 133.274 342.515 134.027 342.515C134.752 342.515 135.399 342.671 135.968 342.983C136.546 343.295 136.991 343.74 137.303 344.318C137.624 344.887 137.785 345.543 137.785 346.286ZM135.789 345.736C135.779 345.24 135.6 344.846 135.252 344.552C134.903 344.249 134.476 344.098 133.972 344.098C133.494 344.098 133.091 344.244 132.76 344.538C132.439 344.823 132.242 345.222 132.168 345.736H135.789ZM142.11 350.389C141.486 350.389 140.926 350.278 140.43 350.058C139.935 349.829 139.54 349.521 139.246 349.136C138.962 348.75 138.806 348.324 138.778 347.856H140.719C140.756 348.149 140.898 348.393 141.146 348.585C141.403 348.778 141.72 348.874 142.096 348.874C142.463 348.874 142.747 348.801 142.949 348.654C143.16 348.507 143.266 348.319 143.266 348.09C143.266 347.842 143.138 347.658 142.881 347.539C142.633 347.411 142.234 347.273 141.683 347.126C141.114 346.988 140.646 346.846 140.279 346.699C139.921 346.552 139.609 346.328 139.343 346.025C139.086 345.722 138.957 345.314 138.957 344.8C138.957 344.378 139.077 343.992 139.315 343.643C139.563 343.295 139.912 343.019 140.361 342.817C140.82 342.615 141.357 342.515 141.972 342.515C142.881 342.515 143.606 342.744 144.147 343.203C144.688 343.653 144.987 344.263 145.042 345.034H143.197C143.17 344.731 143.041 344.492 142.812 344.318C142.591 344.134 142.293 344.043 141.917 344.043C141.568 344.043 141.297 344.107 141.105 344.235C140.921 344.364 140.829 344.543 140.829 344.772C140.829 345.029 140.958 345.226 141.215 345.364C141.472 345.493 141.871 345.626 142.413 345.763C142.963 345.901 143.417 346.043 143.775 346.19C144.133 346.337 144.441 346.566 144.698 346.878C144.964 347.181 145.101 347.585 145.111 348.09C145.111 348.53 144.987 348.925 144.739 349.274C144.5 349.622 144.152 349.898 143.693 350.099C143.243 350.292 142.715 350.389 142.11 350.389Z" fill="#212121"/>
</svg>
