<svg xmlns="http://www.w3.org/2000/svg" viewBox="0 0 512.005 512.005" fill="#6c757d"><path d="M486.403 459.509v-8.533a25.587 25.587 0 0 0-17.067-23.959v-10.174a25.559 25.559 0 0 0-17.067-24.028V261.67a25.558 25.558 0 0 0 17.067-24.028v-15.05l15.55-31.1 24.616-24.617a8.525 8.525 0 0 0-1.591-13.316L260.445 2.546a8.514 8.514 0 0 0-8.883 0L4.095 153.559a8.526 8.526 0 0 0-1.592 13.316l24.616 24.617 15.55 31.1v15.05a25.557 25.557 0 0 0 17.067 24.027v131.145a25.558 25.558 0 0 0-17.067 24.028v10.174a25.587 25.587 0 0 0-17.067 23.959v8.533c-14.132.015-25.585 11.468-25.6 25.6v17.067a8.53 8.53 0 0 0 8.529 8.533H503.47a8.53 8.53 0 0 0 8.533-8.529v-17.071c-.015-14.131-11.468-25.584-25.6-25.599zM452.27 237.642a8.54 8.54 0 0 1-8.533 8.533h-51.2a8.54 8.54 0 0 1-8.533-8.533v-8.533h68.267v8.533zM213.337 392.815V261.67a25.558 25.558 0 0 0 17.067-24.028v-8.533h51.2v8.533a25.557 25.557 0 0 0 17.067 24.027v131.145a25.558 25.558 0 0 0-17.067 24.028v8.533h-51.2v-8.533a25.56 25.56 0 0 0-17.067-24.027zM68.27 246.176a8.54 8.54 0 0 1-8.533-8.533v-8.533h68.267v8.533a8.54 8.54 0 0 1-8.533 8.533H68.27zm42.666 17.066v128H76.803v-128h34.133zm17.067-1.572a25.468 25.468 0 0 0 8.533-5.086 25.459 25.459 0 0 0 8.533 5.085v131.145a25.468 25.468 0 0 0-8.533 5.086 25.478 25.478 0 0 0-8.533-5.086V261.67zm17.067 155.172a8.542 8.542 0 0 1 8.533-8.533h51.2a8.54 8.54 0 0 1 8.533 8.533v8.533H145.07v-8.533zm17.066-25.6v-128h34.133v128h-34.133zm42.667-145.066h-51.2a8.54 8.54 0 0 1-8.533-8.533v-8.533h68.267v8.533a8.543 8.543 0 0 1-8.534 8.533zm93.867 170.666a8.54 8.54 0 0 1 8.533-8.533h51.2a8.54 8.54 0 0 1 8.533 8.533v8.533H298.67v-8.533zm17.066-25.6v-128h34.133v128h-34.133zm42.667-145.066h-51.2a8.54 8.54 0 0 1-8.533-8.533v-8.533h68.267v8.533a8.543 8.543 0 0 1-8.534 8.533zm8.533 15.494a25.468 25.468 0 0 0 8.533-5.086 25.459 25.459 0 0 0 8.533 5.085v131.145a25.468 25.468 0 0 0-8.533 5.086 25.478 25.478 0 0 0-8.533-5.086V261.67zm17.067 155.172a8.542 8.542 0 0 1 8.533-8.533h51.2a8.54 8.54 0 0 1 8.533 8.533v8.533h-68.267v-8.533zm17.067-25.6v-128h34.133v128H401.07zm-365.667-215.6l-13.167-13.167 233.767-142.65 233.767 142.65-13.167 13.167-216.125-133a8.525 8.525 0 0 0-8.95 0l-216.125 133zm412.317 2.267H64.286L256.003 59.93 447.72 177.909zM56.478 212.042l-8.533-17.067h416.117l-8.533 17.067H56.478zm3.258 204.8a8.54 8.54 0 0 1 8.533-8.533h51.2a8.54 8.54 0 0 1 8.533 8.533v8.533H59.736v-8.533zm435.2 76.8H17.07v-8.533a8.54 8.54 0 0 1 8.533-8.533h179.2a8.533 8.533 0 0 0 0-17.066H42.67v-8.533a8.713 8.713 0 0 1 8.867-8.533H460.47a8.714 8.714 0 0 1 8.867 8.533v8.533H307.203c-4.713 0-8.533 3.82-8.533 8.533s3.82 8.533 8.533 8.533h179.2a8.54 8.54 0 0 1 8.533 8.533v8.533z"/><path d="M256.003 88.309c-18.843.02-34.113 15.29-34.133 34.133 0 18.851 15.282 34.133 34.133 34.133 18.851 0 34.133-15.282 34.133-34.133s-15.282-34.133-34.133-34.133zm0 51.2c-9.426 0-17.067-7.641-17.067-17.067s7.641-17.067 17.067-17.067c9.421.011 17.056 7.645 17.067 17.067 0 9.426-7.641 17.067-17.067 17.067z"/></svg>
