<svg xmlns="http://www.w3.org/2000/svg" viewBox="0 0 400 345.112" fill="#2a3840"><defs><clipPath id="a"><path d="M0 0h400v345.112H0z"/></clipPath></defs><g clip-path="url(#a)"><path d="M20.813 153.363h-2.515v-49.15h18.413a32.321 32.321 0 0 1 19.181-6.285 32.32 32.32 0 0 1 19.18 6.285H195v49.15h-63.045a89.893 89.893 0 0 1-9.18 10H195v49.15H92.937v10H195v49.15H92.937v42.997H400v-42.997h-8.701v-226.6H400v-19h-48.623V0H241.572v26.064h-72.338V0H47.238v26.064H0v19h8.299v121.19c4.038-6.436 8.566-10.423 12.514-12.891zm-2.514-59.15v-49.15H195v49.15H18.299zm186.701 10h176.299v49.15H205v-49.15zm0 59.15h176.299v49.15H205v-49.15zm0 108.301v-49.15h176.299v49.15H205zM381.299 94.213H205v-49.15h176.299v49.15zM245.57 3.999h101.808v30H245.57v-30zm-194.334 0h114v30h-114v-30z"/><path d="M18.299 271.664v-7.733a18.3 18.3 0 0 1-2.781.398 17.873 17.873 0 0 1-7.218-1.075v8.411H0v42.997h18.846v-42.997h-.547v-.001z" fill="#b75400"/><path d="M28.293 88.231h10v-37.5h-10v37.5zm2-33.5h6v9.333h-6v-9.333zM42.531 88.231h10v-37.5h-10v37.5zm2-33.5h6v9.333h-6v-9.333zM56.77 88.231h10v-37.5h-10v37.5zm2-33.5h6v9.333h-6v-9.333zM71.008 88.231h10v-37.5h-10v37.5zm2-33.5h6v9.333h-6v-9.333zM85.246 88.231h10v-37.5h-10v37.5zm2-33.5h6v9.333h-6v-9.333zM227.293 88.231v-37.5h-10v37.5h10zm-8-33.5h6v9.333h-6v-9.333zM241.531 50.731h-10v37.5h10v-37.5zm-2 13.333h-6v-9.333h6v9.333zM255.77 50.731h-10v37.5h10v-37.5zm-2 13.333h-6v-9.333h6v9.333zM270.008 50.731h-10v37.5h10v-37.5zm-2 13.333h-6v-9.333h6v9.333zM284.246 50.731h-10v37.5h10v-37.5zm-2 13.333h-6v-9.333h6v9.333zM326.877 78.231h-37.5v10h37.5v-10zm-24.166 8h-9.334v-6h9.334v6zM326.877 63.992h-37.5v10h37.5v-10zm-24.166 8h-9.334v-6h9.334v6zM99.484 88.231h10v-37.5h-10v37.5zm2-33.5h6v9.333h-6v-9.333zM113.723 88.231h10v-37.5h-10v37.5zm2-33.5h6v9.333h-6v-9.333zM127.961 88.231h10v-37.5h-10v37.5zm2-33.5h6v9.333h-6v-9.333zM182.592 196.564h-37.5v10h37.5v-10zm-24.168 8h-9.332v-6h9.332v6zM182.592 182.326h-37.5v10h37.5v-10zm-24.168 8h-9.332v-6h9.332v6zM92.937 196.564h11.654v10H92.937zM92.937 182.326h11.654v10H92.937zM123.723 206.564v-37.5h-7.729a84.13 84.13 0 0 1-2.271 1.655v35.845h10zm-2-33.5v9.333h-6v-9.333h6zM137.961 169.064h-10v37.5h10v-37.5zm-2 13.333h-6v-9.333h6v9.333zM246.092 206.564h37.5v-10h-37.5v10zm4-8h9.332v6h-9.332v-6zM249.426 192.326h37.5v-10h-37.5v10zm4-8.001h20.332v6h-20.332v-6zM291.424 206.564h37.5v-10h-37.5v10zm4-8h9.334v6h-9.334v-6zM295.758 192.326h37.5v-10h-37.5v10zm4-8h9.332v6h-9.332v-6zM214.723 206.564h10v-37.5h-10v37.5zm2-33.5h6v9.333h-6v-9.333zM228.961 206.564h10v-37.5h-10v37.5zm2-33.5h6v9.333h-6v-9.333zM142.012 54.736l16.215 33.813 9.018-4.324-16.217-33.813-9.016 4.324zm7.568 11.158l-4.035-8.415 5.408-2.595 4.037 8.415-5.41 2.595zM167.695 50.412l-9.018 4.324 16.217 33.813 9.016-4.324-16.215-33.813zm-1.449 15.482l-4.035-8.415 5.41-2.595 4.035 8.415-5.41 2.595zM354.91 84.225l-16.215-33.813-9.018 4.324 16.217 33.813 9.016-4.324zm-17.664-18.331l-4.035-8.415 5.41-2.595 4.035 8.415-5.41 2.595zM371.578 84.225l-16.217-33.813-9.016 4.324 16.215 33.813 9.018-4.324zm-17.664-18.331l-4.035-8.415 5.408-2.595 4.037 8.415-5.41 2.595zM183.209 131.189h-37.982c-.042.096-.072.195-.115.291a118.313 118.313 0 0 1-1.577 3.344h16.675v9.397h-21.856a100.426 100.426 0 0 1-2.359 3.634h47.216v-16.666h-.002zM183.209 111.189h-41.938a17.788 17.788 0 0 1 2.874 3.635h16.064v9.397h-13.506a17.892 17.892 0 0 1-.402 3.634h36.908v-16.666zM88.373 131.189a32.283 32.283 0 0 1-3.967 14.82 43.206 43.206 0 0 0 2.395-1.074c4.444-2.192 8.454-5.032 12.074-8.531v-5.215H88.373zM82.064 111.189a32.455 32.455 0 0 1 2.327 3.635h8.483v9.397H87.79c.23 1.189.394 2.403.49 3.634h17.768c2.296-3.351 4.383-7.085 6.269-11.229a17.91 17.91 0 0 1 3.557-5.172v-.266h-33.81v.001zM218.877 147.855h61.666v-16.666h-61.666v16.666zm5.166-13.032h33.5v9.397h-33.5v-9.397zM288.211 147.855h61.666v-16.666h-61.666v16.666zm5.166-13.032h33.5v9.397h-33.5v-9.397zM296.711 111.189v16.666h61.666v-16.666h-61.666zm38.666 13.032h-33.5v-9.397h33.5v9.397zM289.875 111.189h-61.666v16.666h61.666v-16.666zm-23 13.032h-33.5v-9.397h33.5v9.397zM137.877 244.731h45.334v22h-45.334zM129.209 236.398h40v4.5h-40zM138.709 228.398h40v4.5h-40zM213.209 261.398h40v4.5h-40zM222.709 252.815h40v4.5h-40zM217.209 244.232h40v4.5h-40zM219.877 235.648h40v4.5h-40zM92.937 261.398h20.272v4.5H92.937zM92.937 252.815h29.772v4.5H92.937zM92.937 244.232h24.272v4.5H92.937zM92.937 235.648h26.94v4.5h-26.94zM323.543 261.398h40v4.5h-40zM333.043 252.815h40v4.5h-40zM327.543 244.232h40v4.5h-40zM324.543 235.648h40v4.5h-40zM268.709 261.398h40v4.5h-40zM275.709 252.815h40v4.5h-40zM270.209 244.232h40v4.5h-40zM270.209 235.648h40v4.5h-40zM276.709 227.648h40v4.5h-40zM333.654 170.835l4.05-1.962 17.44 36-4.05 1.962zM343.97 170.817l4.05-1.962 17.44 35.998-4.05 1.962zM354.32 170.836l4.05-1.962 17.44 36-4.05 1.962zM276.709 172.648h40v4.5h-40z"/><circle vector-effect="non-scaling-stroke" cx="55.893" cy="130.428" r="22.5" fill="#b75400"/><path d="M82.937 173.606c4.045-.86 9.346-2.423 15.264-5.303 12.51-6.049 27.58-18.247 37.799-40.943 1.818-4.026.031-8.766-3.994-10.585a7.996 7.996 0 0 0-10.584 3.991c-8.783 19.301-20.604 28.404-30.234 33.154-4.816 2.353-9.101 3.548-12.098 4.147-1.498.3-2.67.452-3.422.525-.16.016-.291.027-.412.037l-.047-.002H36.574c-.17 0-.334.015-.502.025-1.816.04-4.748.452-8.076 2.129-5.381 2.667-11.178 8.502-15.236 18.84C8.653 190 5.895 205.007 5.883 227.666c0 5.858.188 12.225.594 19.159a8.002 8.002 0 0 0 8.457 7.518 8.001 8.001 0 0 0 7.516-8.456c-.391-6.65-.568-12.708-.566-18.222-.035-24.212 3.494-37.816 6.963-44.915v149.997c0 6.83 5.537 12.363 12.363 12.363 6.828 0 12.365-5.533 12.365-12.363v-90.271h4.635v90.271c0 6.83 5.537 12.363 12.363 12.363 6.828 0 12.365-5.533 12.365-12.363V173.606h-.001z" fill="#b75400"/></g></svg>
