<svg xmlns="http://www.w3.org/2000/svg" width="119" height="120" viewBox="0 0 119 120" fill="none">
  <g clip-path="url(#clip0_3492_13603)">
    <path d="M37.9304 57.9849H33.9587V63.9083H37.9304C39.5248 63.9083 40.7866 62.5039 40.7866 61.0284C40.7833 59.3656 39.5249 57.9849 37.9304 57.9849Z" fill="white"/>
    <path d="M53.9155 58.1023H49.9676V68.7586H53.9155C60.3383 68.7592 60.6211 58.1023 53.9155 58.1023Z" fill="white"/>
    <path d="M86.275 44.8882H20.825C19.1888 44.8882 17.85 46.2269 17.85 47.8632V77.6132C17.85 79.2494 19.1888 80.5882 20.825 80.5882H86.275C87.9139 80.5882 89.25 79.2494 89.25 77.6132V47.8632C89.25 46.2269 87.9139 44.8882 86.275 44.8882ZM37.9304 66.8828H33.9587V70.0244C33.9587 71.0709 33.2926 71.6633 32.4353 71.6633C31.6498 71.6633 30.8197 71.0709 30.8197 70.0211V56.6308C30.8197 55.8452 31.4386 54.9859 32.4353 54.9859L37.9304 54.9853C41.0243 54.9853 43.8087 57.0559 43.8087 61.0276C43.806 64.7882 41.0243 66.8826 37.9304 66.8826L37.9304 66.8828ZM54.1295 71.6634H48.4684C47.6828 71.6634 46.8261 71.2317 46.8261 70.1878V56.6781C46.8261 55.8214 47.6828 55.2025 48.4684 55.2025H53.9157C64.7856 55.2025 64.548 71.6634 54.1295 71.6634ZM75.3268 58.2937H68.4014V62.0748H74.4677C75.3276 62.0748 76.1809 62.9315 76.1809 63.7649C76.1809 64.5505 75.3269 65.19 74.4677 65.19H68.4014V70.1851C68.4014 71.0178 67.809 71.6606 66.9763 71.6606C65.9291 71.6606 65.2863 71.0178 65.2863 70.1851V56.6753C65.2863 55.8187 65.9317 55.1998 66.9763 55.1998H75.3269C76.3741 55.1998 76.9897 55.8187 76.9897 56.6753C76.9897 57.4397 76.3741 58.2937 75.3268 58.2937Z" fill="white"/>
    <path d="M98.175 22.8307L78.5825 3.23818C76.8626 1.51302 73.8403 0.263184 71.4007 0.263184H38.6757C33.755 0.263184 29.7507 4.26753 29.7507 9.18818V38.9382C29.7507 40.5831 31.0808 41.9132 32.7257 41.9132C34.3706 41.9132 35.7007 40.5831 35.7007 38.9382V9.18818C35.7007 7.54928 37.0334 6.21318 38.6757 6.21318H65.4507C68.7378 6.21318 71.4007 8.87878 71.4007 12.1632V23.3194C71.4007 27.0023 74.4175 30.0132 78.0944 30.0132H89.2507C92.5378 30.0132 95.2007 32.6788 95.2007 35.9632V86.5382C95.2007 88.1771 93.8706 89.5132 92.2257 89.5132H38.6757C37.0334 89.5132 35.7007 88.1771 35.7007 86.5382C35.7007 84.8933 34.3706 83.5632 32.7257 83.5632C31.0808 83.5632 29.7507 84.8933 29.7507 86.5382C29.7507 91.4588 33.755 95.4632 38.6757 95.4632H92.2257C97.1463 95.4632 101.151 91.4588 101.151 86.5382V30.0132C101.151 27.5767 99.9009 24.554 98.1757 22.8314L98.175 22.8307Z" fill="white"/>
  </g>
  <defs>
    <clipPath id="clip0_3492_13603">
      <rect width="119" height="119" fill="white" transform="translate(0 0.263184)"/>
    </clipPath>
  </defs>
</svg>
