<svg xmlns="http://www.w3.org/2000/svg" width="303" height="120" viewBox="0 0 303 120" fill="none">
<path d="M1.98041 75.3883H13.7213V43.9059H13.8628L34.5154 75.3883H48.5196L30.8375 48.4235C37.9104 46.0235 42.437 39.5294 42.437 31.7647C42.437 18.2118 33.2423 12.2824 21.5014 12.2824H1.98041V75.3883ZM13.7213 24H18.2479C24.0476 24 29.2815 24.8471 29.2815 32.1883C29.2815 39.5294 23.6233 41.0824 17.965 41.0824H13.7213V24ZM86.0056 75.3883L89.6835 63.8118H63.9384V48.2824H82.3277V36.5647H63.9384V23.8588H86.8544L84.874 12.2824H52.1975V75.3883H86.0056ZM94.493 75.3883H106.092V50.2588H122.501V38.5412H106.092V24H128.301L125.755 12.2824H94.493V75.3883Z" fill="#8D59A0"/>
<path d="M157.866 49.4117C163.948 41.3647 167.626 36.5647 167.626 29.7882C167.626 22.447 162.675 16.6588 156.309 16.6588C149.661 16.6588 144.71 22.5882 144.144 32.1882H139.052C139.335 19.9059 146.69 10.8706 156.451 10.8706C165.929 10.8706 172.718 19.3411 172.718 29.7882C172.718 38.4 168.475 44.3294 162.251 52.5176L149.237 69.3176H173.426V75.5294H137.779L157.866 49.4117Z" fill="#2E2D62"/>
<path d="M179.225 30.6353C181.206 17.9294 187.571 10.8706 196.2 10.8706C202.707 10.8706 208.507 15.6706 211.619 24.2823C213.599 29.9294 214.307 36.4235 214.307 43.9059C214.307 51.5294 213.599 58.0235 211.619 63.6706C208.507 72.2823 202.849 77.0823 196.2 77.0823C190.401 77.0823 185.591 73.6941 182.337 67.3411C179.225 61.2706 178.377 53.5059 178.377 43.9059C178.377 39.3882 178.518 35.0117 179.225 30.6353ZM186.44 64.0941C188.703 68.6117 192.381 71.1529 196.2 71.1529C203.839 71.1529 209.214 62.4 209.214 43.7647C209.214 25.2706 203.839 16.3764 196.2 16.3764C192.381 16.3764 188.703 19.0588 186.44 23.7176C184.035 28.5176 183.469 35.1529 183.469 43.7647C183.469 52.6588 184.035 59.2941 186.44 64.0941Z" fill="#2E2D62"/>
<path d="M238.92 49.4117C245.003 41.3647 248.681 36.5647 248.681 29.7882C248.681 22.447 243.73 16.6588 237.364 16.6588C230.716 16.6588 225.765 22.5882 225.199 32.1882H220.106C220.389 19.9059 227.745 10.8706 237.506 10.8706C246.983 10.8706 253.773 19.3411 253.773 29.7882C253.773 38.4 249.529 44.3294 243.305 52.5176L230.291 69.3176H254.48V75.5294H218.833L238.92 49.4117Z" fill="#2E2D62"/>
<path d="M271.031 77.0824L266.787 73.6941L280.933 47.8588C279.518 48.4235 277.679 48.9882 275.557 48.9882C266.929 48.9882 260.704 40.5177 260.704 30.2118C260.704 18.4941 268.343 10.7294 276.972 10.7294C286.45 10.7294 292.957 19.7647 292.957 29.7882C292.957 35.8588 290.835 41.7882 287.015 48.4235L271.031 77.0824ZM287.864 30.2118C287.864 22.8706 282.913 16.9412 276.831 16.9412C270.748 16.9412 265.938 22.8706 265.938 30.2118C265.938 37.5529 270.889 43.4824 276.831 43.4824C282.772 43.4824 287.864 37.5529 287.864 30.2118Z" fill="#2E2D62"/>
<path d="M1.69745 100.376H4.80949C6.22406 100.376 7.35571 100.518 8.063 100.659C9.47756 101.223 10.3263 102.353 10.3263 103.906C10.3263 104.612 10.1848 105.035 9.90193 105.6C9.19465 107.012 7.78008 107.576 5.51678 107.576L10.4678 113.929H8.77028L3.8193 107.576H3.11201V113.929H1.69745V100.376ZM3.11201 101.647V106.306C3.8193 106.306 4.66804 106.306 5.37532 106.306C6.50697 106.306 7.49717 106.165 8.063 105.741C8.62882 105.318 8.91174 104.612 8.91174 103.906C8.91174 102.635 8.06299 101.647 5.94115 101.647H3.11201Z" fill="#8D59A0"/>
<path d="M13.8627 108.988C13.8627 111.247 15.5602 112.941 17.682 112.941C19.8039 112.941 20.7941 111.671 21.5014 110.541L22.633 111.106C21.6428 113.082 19.9453 114.071 17.8235 114.071C14.4285 114.071 12.5896 111.529 12.5896 108.847C12.5896 106.023 14.57 103.482 17.8235 103.482C20.6526 103.482 23.0574 105.6 23.0574 108.847H13.8627V108.988ZM21.6428 107.859C21.077 105.741 19.6624 104.894 17.8235 104.894C15.9846 104.894 14.7114 105.882 14.0042 107.859H21.6428Z" fill="#8D59A0"/>
<path d="M25.3207 111.953C26.028 112.659 26.7353 113.082 27.4425 113.082C28.4327 113.082 29.2815 112.376 29.2815 111.388C29.2815 110.823 28.9986 110.259 28.4327 109.976C26.1694 108.706 24.8963 108.141 24.8963 106.306C24.8963 104.753 26.1694 103.623 27.7254 103.623C28.8571 103.623 29.7058 104.188 30.5546 105.035L29.7058 105.882C29.14 105.318 28.4327 104.894 27.7254 104.894C26.8767 104.894 26.1694 105.459 26.1694 106.306C26.1694 106.87 26.4523 107.435 27.0182 107.718C29.2815 109.129 30.696 109.553 30.696 111.388C30.696 112.941 29.4229 114.353 27.584 114.353C26.4523 114.353 25.3207 113.788 24.6134 112.941L25.3207 111.953Z" fill="#8D59A0"/>
<path d="M33.6667 108.988C33.6667 111.247 35.3641 112.941 37.486 112.941C39.6078 112.941 40.598 111.671 41.3053 110.541L42.437 111.106C41.4468 113.082 39.7493 114.071 37.6274 114.071C34.2325 114.071 32.3936 111.529 32.3936 108.847C32.3936 106.023 34.3739 103.482 37.6274 103.482C40.4566 103.482 42.8613 105.6 42.8613 108.847H33.6667V108.988ZM41.4468 107.859C40.8809 105.741 39.4664 104.894 37.6274 104.894C35.7885 104.894 34.5154 105.882 33.8081 107.859H41.4468Z" fill="#8D59A0"/>
<path d="M54.0364 103.906H55.3095V114.07H54.0364V112.376C52.9047 113.647 51.4902 114.353 49.9341 114.353C46.9636 114.353 44.7003 111.953 44.7003 108.988C44.7003 106.023 46.9636 103.623 49.9341 103.623C51.6316 103.623 52.9047 104.329 54.0364 105.741V103.906ZM46.1148 108.988C46.1148 111.247 47.8123 113.082 50.0756 113.082C52.1975 113.082 54.1778 111.529 54.1778 108.988C54.1778 106.588 52.4804 104.894 50.2171 104.894C47.8123 104.894 46.1148 106.729 46.1148 108.988Z" fill="#8D59A0"/>
<path d="M59.1288 105.318C59.8361 104.188 60.6848 103.623 61.8165 103.623C62.3823 103.623 62.6652 103.765 62.9481 103.906L62.2408 105.035C62.0994 104.894 61.8165 104.894 61.5336 104.894C60.5434 104.894 59.6946 105.741 59.2703 107.153C59.1288 107.859 59.1288 108.847 59.1288 110.259V114.07H57.7142V103.906H59.1288V105.318Z" fill="#8D59A0"/>
<path d="M73.8403 111.953C72.8501 113.506 71.1526 114.212 69.0308 114.212C65.6358 114.212 63.514 111.812 63.514 108.988C63.514 106.023 65.7773 103.623 69.1722 103.623C71.1526 103.623 72.8501 104.47 73.8403 106.023L72.8501 106.729C72.0014 105.6 70.7283 105.035 69.1722 105.035C66.626 105.035 64.9285 106.87 64.9285 109.129C64.9285 111.388 66.626 113.223 69.1722 113.223C70.5868 113.223 71.8599 112.659 72.8501 111.388L73.8403 111.953Z" fill="#8D59A0"/>
<path d="M76.2451 99.9529H77.5182V105.741C78.5084 104.329 79.7815 103.623 81.3375 103.623C83.6008 103.623 85.0154 105.176 85.0154 108.141V113.929H83.7423V108.423C83.7423 106.023 83.035 104.753 81.0546 104.753C79.9229 104.753 79.0742 105.176 78.3669 106.165C77.6596 107.153 77.5182 108.141 77.5182 109.694V113.929H76.2451V99.9529Z" fill="#8D59A0"/>
<path d="M93.5028 100.376H101.283V101.647H94.7759V105.882H101.283V107.294H94.7759V112.659H101.283V113.929H93.5028V100.376Z" fill="#8D59A0"/>
<path d="M102.273 103.906H103.829L106.517 107.576L109.204 103.906H110.76L107.366 108.706L111.326 114.071H109.77L106.658 109.835L103.546 114.071H101.99L105.81 108.706L102.273 103.906Z" fill="#8D59A0"/>
<path d="M122.501 111.953C121.511 113.506 119.814 114.212 117.692 114.212C114.297 114.212 112.175 111.812 112.175 108.988C112.175 106.023 114.438 103.623 117.833 103.623C119.814 103.623 121.511 104.47 122.501 106.023L121.511 106.729C120.662 105.6 119.389 105.035 117.833 105.035C115.287 105.035 113.59 106.87 113.59 109.129C113.59 111.388 115.287 113.223 117.833 113.223C119.248 113.223 120.521 112.659 121.511 111.388L122.501 111.953Z" fill="#8D59A0"/>
<path d="M125.896 108.988C125.896 111.247 127.594 112.941 129.716 112.941C131.838 112.941 132.828 111.671 133.535 110.541L134.667 111.106C133.676 113.082 131.979 114.071 129.857 114.071C126.462 114.071 124.623 111.529 124.623 108.847C124.623 106.023 126.604 103.482 129.857 103.482C132.686 103.482 135.091 105.6 135.091 108.847H125.896V108.988ZM133.535 107.859C132.969 105.741 131.555 104.894 129.716 104.894C127.877 104.894 126.604 105.882 125.896 107.859H133.535Z" fill="#8D59A0"/>
<path d="M137.213 99.9529H138.486V113.929H137.213V99.9529Z" fill="#8D59A0"/>
<path d="M141.032 99.9529H142.305V113.929H141.032V99.9529Z" fill="#8D59A0"/>
<path d="M145.842 108.988C145.842 111.247 147.539 112.941 149.661 112.941C151.783 112.941 152.773 111.671 153.48 110.541L154.612 111.106C153.622 113.082 151.924 114.071 149.803 114.071C146.408 114.071 144.569 111.529 144.569 108.847C144.569 106.023 146.549 103.482 149.803 103.482C152.632 103.482 155.036 105.6 155.036 108.847H145.842V108.988ZM153.622 107.859C153.056 105.741 151.641 104.894 149.803 104.894C147.964 104.894 146.69 105.882 145.983 107.859H153.622Z" fill="#8D59A0"/>
<path d="M158.714 105.741C159.704 104.329 160.978 103.623 162.534 103.623C164.797 103.623 166.353 105.176 166.353 108.282V113.929H165.08V108.423C165.08 106.023 164.372 104.753 162.392 104.753C161.26 104.753 160.412 105.176 159.704 106.165C158.997 107.153 158.856 108.141 158.856 109.694V113.929H157.583V103.765H158.856V105.741H158.714Z" fill="#8D59A0"/>
<path d="M178.943 111.953C177.952 113.506 176.255 114.212 174.133 114.212C170.738 114.212 168.616 111.812 168.616 108.988C168.616 106.023 170.88 103.623 174.274 103.623C176.255 103.623 177.952 104.47 178.943 106.023L177.952 106.729C177.104 105.6 175.83 105.035 174.274 105.035C171.728 105.035 170.031 106.87 170.031 109.129C170.031 111.388 171.728 113.223 174.274 113.223C175.689 113.223 176.962 112.659 177.952 111.388L178.943 111.953Z" fill="#8D59A0"/>
<path d="M182.337 108.988C182.337 111.247 184.035 112.941 186.157 112.941C188.279 112.941 189.269 111.671 189.976 110.541L191.108 111.106C190.118 113.082 188.42 114.071 186.298 114.071C182.903 114.071 181.064 111.529 181.064 108.847C181.064 106.023 183.045 103.482 186.298 103.482C189.127 103.482 191.532 105.6 191.532 108.847H182.337V108.988ZM189.976 107.859C189.41 105.741 187.996 104.894 186.157 104.894C184.318 104.894 183.045 105.882 182.337 107.859H189.976Z" fill="#8D59A0"/>
<path d="M199.312 100.376H206.244V101.647H200.727V105.882H206.244V107.294H200.727V114.071H199.312V100.376Z" fill="#8D59A0"/>
<path d="M209.214 105.318C209.921 104.188 210.77 103.623 211.76 103.623C212.326 103.623 212.609 103.765 212.892 103.906L212.185 105.035C212.043 104.894 211.76 104.894 211.478 104.894C210.487 104.894 209.639 105.741 209.214 107.153C209.073 107.859 209.073 108.847 209.073 110.259V114.07H207.658V103.906H209.073V105.318H209.214Z" fill="#8D59A0"/>
<path d="M222.936 103.906H224.209V114.07H222.936V112.376C221.804 113.647 220.389 114.353 218.833 114.353C215.863 114.353 213.599 111.953 213.599 108.988C213.599 106.023 215.863 103.623 218.833 103.623C220.531 103.623 221.804 104.329 222.936 105.741V103.906ZM215.014 108.988C215.014 111.247 216.711 113.082 218.975 113.082C221.097 113.082 223.077 111.529 223.077 108.988C223.077 106.588 221.38 104.894 219.116 104.894C216.711 104.894 215.014 106.729 215.014 108.988Z" fill="#8D59A0"/>
<path d="M235.384 114.071H234.111V108.847C234.111 108 233.969 107.435 233.969 107.012C233.969 105.882 232.979 104.894 231.706 104.894C230.857 104.894 229.867 105.318 229.301 106.023C228.594 107.012 228.452 108.141 228.452 109.694V113.929H227.179V103.765H228.452V105.459C229.301 104.188 230.433 103.482 231.989 103.482C233.545 103.482 234.676 104.329 235.242 105.882C236.091 104.329 237.506 103.482 238.92 103.482C241.042 103.482 242.315 105.035 242.315 107.859V113.929H241.042V108.423C241.042 107.718 240.901 107.153 240.901 106.729C240.901 105.882 240.052 104.894 238.637 104.894C237.364 104.894 236.232 105.6 235.808 107.012C235.525 107.859 235.384 108.706 235.384 109.694V114.071Z" fill="#8D59A0"/>
<path d="M245.993 108.988C245.993 111.247 247.69 112.941 249.812 112.941C251.934 112.941 252.924 111.671 253.632 110.541L254.763 111.106C253.773 113.082 252.217 114.071 249.954 114.071C246.559 114.071 244.72 111.529 244.72 108.847C244.72 106.023 246.7 103.482 249.954 103.482C252.783 103.482 255.188 105.6 255.188 108.847H245.993V108.988ZM253.632 107.859C253.066 105.741 251.651 104.894 249.812 104.894C247.973 104.894 246.7 105.882 245.993 107.859H253.632Z" fill="#8D59A0"/>
<path d="M256.178 103.906H257.592L260.704 111.247L263.958 103.906H264.241L267.494 111.247L270.606 103.906H272.021L267.636 114.071H267.353L264.099 106.87L260.846 114.071H260.563L256.178 103.906Z" fill="#8D59A0"/>
<path d="M283.479 108.988C283.479 111.812 281.216 114.353 278.245 114.353C275.133 114.353 273.011 111.953 273.011 108.988C273.011 106.023 275.274 103.623 278.245 103.623C281.216 103.623 283.479 106.023 283.479 108.988ZM274.284 108.988C274.284 111.247 275.982 112.941 278.245 112.941C280.508 112.941 282.206 111.106 282.206 108.988C282.206 106.729 280.367 104.894 278.245 104.894C275.982 104.894 274.284 106.729 274.284 108.988Z" fill="#8D59A0"/>
<path d="M286.732 105.318C287.44 104.188 288.289 103.623 289.42 103.623C289.986 103.623 290.269 103.765 290.552 103.906L289.845 105.035C289.703 104.894 289.42 104.894 289.137 104.894C288.147 104.894 287.298 105.741 286.874 107.153C286.733 107.859 286.732 108.847 286.732 110.259V114.07H285.318V103.906H286.732V105.318Z" fill="#8D59A0"/>
<path d="M291.683 99.9529H292.957V108L297.625 103.906H299.605L294.088 108.706L300.029 114.071H298.19L293.098 109.553V114.071H291.825V99.9529H291.683Z" fill="#8D59A0"/>
<path d="M1.98041 88.6588H295.361" stroke="#2E2D62" stroke-width="0.670588"/>
</svg>
