<svg width="191" height="82" viewBox="0 0 191 82" fill="none" xmlns="http://www.w3.org/2000/svg">
<g clip-path="url(#clip0_49_404)">
<path fill-rule="evenodd" clip-rule="evenodd" d="M48.6299 53.9968H67.1872L71.2229 65.4934H80.176L61.7002 16.5822L57.913 27.4232L64.7794 47.0785H51.0467L48.6299 53.9968Z" fill="#212121"/>
<path d="M86.8194 16.6454H93.7649V65.2636H86.8194V16.6454Z" fill="#212121"/>
<path fill-rule="evenodd" clip-rule="evenodd" d="M32.8688 66.3264C46.8577 66.3264 58.198 54.9861 58.198 40.9971C58.198 27.0082 46.8577 15.6678 32.8688 15.6678C18.8798 15.6678 7.53949 27.0082 7.53949 40.9971C7.53949 54.9861 18.8798 66.3264 32.8688 66.3264ZM32.8688 58.9775C42.7991 58.9775 50.8491 50.9274 50.8491 40.9971C50.8491 31.0669 42.7991 23.0168 32.8688 23.0168C22.9385 23.0168 14.8885 31.0669 14.8885 40.9971C14.8885 50.9274 22.9385 58.9775 32.8688 58.9775Z" fill="#212121"/>
<rect x="108.233" y="15.6273" width="50.9333" height="50.9333" rx="1.15758" fill="#B75400"/>
<path d="M130.789 33.8834H136.938V60.1545H130.789V33.8834ZM133.888 29.554C132.773 29.554 131.838 29.2096 131.084 28.5209C130.329 27.7993 129.952 26.9138 129.952 25.8643C129.952 24.8147 130.329 23.9456 131.084 23.2568C131.838 22.5353 132.773 22.1745 133.888 22.1745C135.003 22.1745 135.938 22.5189 136.692 23.2076C137.447 23.8636 137.824 24.6999 137.824 25.7167C137.824 26.799 137.447 27.7173 136.692 28.4717C135.971 29.1932 135.036 29.554 133.888 29.554Z" fill="white"/>
</g>
<defs>
<clipPath id="clip0_49_404">
<rect width="191" height="81.6091" rx="1.15758" fill="white"/>
</clipPath>
</defs>
</svg>
