<svg width="360" height="200" viewBox="0 0 360 201" fill="none" xmlns="http://www.w3.org/2000/svg">
<path d="M229.043 67.3275C214.39 42.8276 191.338 29.1576 163.559 31.2006C135.78 33.2436 134.494 52.9972 134.494 75.1467C134.494 97.0388 101.665 86.8277 91.1985 113.234C83.0436 133.809 104.255 171.402 114.024 187.007H252.596C257.973 169.322 267.742 134.515 268.801 111.988C270.707 71.4842 240.735 86.8859 229.043 67.3275Z" fill="#9E9E9E"/>
<path d="M229.043 67.3275C214.39 42.8276 191.338 29.1576 163.559 31.2006C135.78 33.2436 134.494 52.9972 134.494 75.1467C134.494 97.0388 101.665 86.8277 91.1985 113.234C83.0436 133.809 104.255 171.402 114.024 187.007H252.596C257.973 169.322 267.742 134.515 268.801 111.988C270.707 71.4842 240.735 86.8859 229.043 67.3275Z" fill="white"/>
<path d="M217.583 158.67C217.583 158.67 226.522 133.07 215.297 156.715C215.297 156.715 211.338 136.135 212.371 158.592C212.371 158.592 200.797 141.359 210.557 162.329C210.557 162.329 195.538 147.077 211.046 166.951C211.046 166.951 241.337 165.501 217.801 164.517C217.801 164.517 245.2 153.463 219.083 161.411C219.083 161.419 242.435 139.399 217.583 158.67Z" fill="#9E9E9E"/>
<path d="M215.677 159.239C215.677 159.239 209.654 167.324 207.474 175.704" stroke="#212121" stroke-width="0.75" stroke-linecap="round" stroke-linejoin="round"/>
<path d="M199.188 159.493C199.188 159.493 178.107 143.68 196.62 160.801C196.62 160.801 176.097 157.549 197.435 163.886C197.435 163.886 177.593 168.167 200.357 166.627C200.357 166.627 181.26 174.467 204.84 167.698C204.84 167.698 213.217 141.537 204.731 161.187C204.731 161.187 203.196 134.391 202.241 159.111C202.241 159.102 189.123 132.219 199.188 159.493Z" fill="#9E9E9E"/>
<path opacity="0.3" d="M199.188 159.493C199.188 159.493 178.107 143.68 196.62 160.801C196.62 160.801 176.097 157.549 197.435 163.886C197.435 163.886 177.593 168.167 200.357 166.627C200.357 166.627 181.26 174.467 204.84 167.698C204.84 167.698 213.217 141.537 204.731 161.187C204.731 161.187 203.196 134.391 202.241 159.111C202.241 159.102 189.123 132.219 199.188 159.493Z" fill="white"/>
<path d="M209.114 176.472C205.324 164.43 198.647 161.49 198.647 161.49" stroke="#212121" stroke-width="0.75" stroke-linecap="round" stroke-linejoin="round"/>
<path d="M207.718 160.892C207.718 160.892 210.422 163.309 211.141 166.594C213.735 165.749 216.478 165.398 219.214 165.56" stroke="#212121" stroke-width="0.5" stroke-linecap="round" stroke-linejoin="round"/>
<path d="M210.574 158.288C210.574 158.288 212.432 160.435 211.141 166.593L218.25 161.847" stroke="#212121" stroke-width="0.5" stroke-linecap="round" stroke-linejoin="round"/>
<path d="M205.629 161.195C204.857 163.026 204.481 164.986 204.522 166.959C204.522 166.959 201.469 167.283 199.402 168.205" stroke="#212121" stroke-width="0.5" stroke-linecap="round" stroke-linejoin="round"/>
<path d="M202.337 160.431C202.657 162.712 203.395 164.921 204.517 166.959C204.517 166.959 202.572 165.298 197.426 165.024" stroke="#212121" stroke-width="0.5" stroke-linecap="round" stroke-linejoin="round"/>
<path d="M201.909 174.786H214.486L212.554 185.998H211.944V186.447C211.944 186.523 211.929 186.599 211.899 186.67C211.868 186.741 211.823 186.806 211.767 186.86C211.71 186.915 211.642 186.958 211.568 186.988C211.494 187.017 211.414 187.032 211.333 187.032H210.749C210.668 187.032 210.589 187.017 210.514 186.988C210.44 186.958 210.372 186.915 210.316 186.86C210.259 186.806 210.214 186.741 210.184 186.67C210.153 186.599 210.138 186.523 210.138 186.447V185.998H206.257V186.447C206.257 186.524 206.241 186.6 206.21 186.671C206.179 186.742 206.134 186.806 206.077 186.861C206.02 186.915 205.952 186.958 205.878 186.988C205.803 187.017 205.723 187.032 205.642 187.032H205.058C204.896 187.031 204.74 186.969 204.626 186.859C204.512 186.75 204.447 186.601 204.447 186.447V185.998H203.837L201.909 174.786Z" fill="#212121" stroke="#212121" stroke-width="0.75" stroke-linecap="round" stroke-linejoin="round"/>
<path d="M257.367 187.007H110.186C101.303 188.303 94.177 189.981 96.4142 191.891C101.647 196.363 139.334 191.139 138.227 196.317C137.119 201.495 165.382 200.212 180.759 200.212C196.135 200.212 212.921 198.838 207.517 194.864C202.114 190.89 237.983 193.793 253.399 193.793C264.65 193.793 272.36 190.803 257.367 187.007Z" fill="#9E9E9E"/>
<path d="M83 187.007H277" stroke="#212121" stroke-width="0.75" stroke-linecap="round" stroke-linejoin="round"/>
<path d="M220.585 40.9851H149.691C147.805 40.9851 146.276 42.5436 146.276 44.4661V139.519C146.276 141.442 147.805 143 149.691 143H220.585C222.471 143 224 141.442 224 139.519V44.4661C224 42.5436 222.471 40.9851 220.585 40.9851Z" fill="#212121" stroke="#212121" stroke-linecap="round" stroke-linejoin="round"/>
<path d="M219.345 39.489H148.451C146.565 39.489 145.036 41.0474 145.036 42.9699V138.023C145.036 139.945 146.565 141.504 148.451 141.504H219.345C221.231 141.504 222.76 139.945 222.76 138.023V42.9699C222.76 41.0474 221.231 39.489 219.345 39.489Z" fill="#9E9E9E"/>
<path opacity="0.8" d="M219.345 39.489H148.451C146.565 39.489 145.036 41.0474 145.036 42.9699V138.023C145.036 139.945 146.565 141.504 148.451 141.504H219.345C221.231 141.504 222.76 139.945 222.76 138.023V42.9699C222.76 41.0474 221.231 39.489 219.345 39.489Z" fill="white"/>
<path d="M219.345 39.489H148.451C146.565 39.489 145.036 41.0474 145.036 42.9699V138.023C145.036 139.945 146.565 141.504 148.451 141.504H219.345C221.231 141.504 222.76 139.945 222.76 138.023V42.9699C222.76 41.0474 221.231 39.489 219.345 39.489Z" stroke="#212121" stroke-linecap="round" stroke-linejoin="round"/>
<path d="M219.452 54.0662H148.343V82.3355H219.452V54.0662Z" fill="white" stroke="#212121" stroke-linecap="round" stroke-linejoin="round"/>
<path d="M219.452 82.3355L148.343 54.0662" stroke="#212121" stroke-width="0.75" stroke-linecap="round" stroke-linejoin="round"/>
<path d="M148.343 82.3355L219.452 54.0662" stroke="#212121" stroke-width="0.75" stroke-linecap="round" stroke-linejoin="round"/>
<path d="M183.898 88.0627H148.343V116.332H183.898V88.0627Z" fill="#9E9E9E"/>
<path opacity="0.5" d="M183.898 88.0627H148.343V116.332H183.898V88.0627Z" fill="white"/>
<path d="M183.898 88.0627H148.343V116.332H183.898V88.0627Z" stroke="#212121" stroke-linecap="round" stroke-linejoin="round"/>
<path d="M199.298 44.3649H168.498C168.155 44.3649 167.878 44.6479 167.878 44.997C167.878 45.3461 168.155 45.6292 168.498 45.6292H199.298C199.64 45.6292 199.918 45.3461 199.918 44.997C199.918 44.6479 199.64 44.3649 199.298 44.3649Z" fill="#212121" stroke="#212121" stroke-width="0.75" stroke-linecap="round" stroke-linejoin="round"/>
<path d="M218.832 89.327H188.032C187.868 89.327 187.71 89.2604 187.594 89.1418C187.477 89.0233 187.412 88.8625 187.412 88.6948C187.412 88.5272 187.477 88.3664 187.594 88.2478C187.71 88.1293 187.868 88.0627 188.032 88.0627H218.832C218.997 88.0627 219.154 88.1293 219.271 88.2478C219.387 88.3664 219.452 88.5272 219.452 88.6948C219.452 88.8625 219.387 89.0233 219.271 89.1418C219.154 89.2604 218.997 89.327 218.832 89.327Z" fill="#212121" stroke="#212121" stroke-width="0.75" stroke-linecap="round" stroke-linejoin="round"/>
<path d="M212.217 96.3143H188.032C187.868 96.3143 187.71 96.2477 187.594 96.1291C187.477 96.0106 187.412 95.8498 187.412 95.6821C187.412 95.5145 187.477 95.3537 187.594 95.2351C187.71 95.1166 187.868 95.05 188.032 95.05H212.217C212.382 95.05 212.54 95.1166 212.656 95.2351C212.772 95.3537 212.837 95.5145 212.837 95.6821C212.837 95.8498 212.772 96.0106 212.656 96.1291C212.54 96.2477 212.382 96.3143 212.217 96.3143Z" fill="#212121" stroke="#212121" stroke-width="0.75" stroke-linecap="round" stroke-linejoin="round"/>
<path d="M209.013 99.9933H188.032C187.69 99.9933 187.412 100.276 187.412 100.625C187.412 100.975 187.69 101.258 188.032 101.258H209.013C209.356 101.258 209.633 100.975 209.633 100.625C209.633 100.276 209.356 99.9933 209.013 99.9933Z" fill="#212121" stroke="#212121" stroke-width="0.75" stroke-linecap="round" stroke-linejoin="round"/>
<path d="M215.111 106.197H188.032C187.868 106.197 187.71 106.13 187.594 106.012C187.477 105.893 187.412 105.732 187.412 105.565C187.412 105.397 187.477 105.236 187.594 105.118C187.71 104.999 187.868 104.932 188.032 104.932H215.111C215.276 104.932 215.434 104.999 215.55 105.118C215.666 105.236 215.731 105.397 215.731 105.565C215.731 105.732 215.666 105.893 215.55 106.012C215.434 106.13 215.276 106.197 215.111 106.197Z" fill="#212121" stroke="#212121" stroke-width="0.75" stroke-linecap="round" stroke-linejoin="round"/>
<path d="M212.527 111.136H188.032C187.868 111.136 187.71 111.069 187.594 110.951C187.477 110.832 187.412 110.671 187.412 110.504C187.412 110.336 187.477 110.175 187.594 110.057C187.71 109.938 187.868 109.872 188.032 109.872H212.527C212.692 109.872 212.85 109.938 212.966 110.057C213.082 110.175 213.148 110.336 213.148 110.504C213.148 110.671 213.082 110.832 212.966 110.951C212.85 111.069 212.692 111.136 212.527 111.136Z" fill="#212121" stroke="#212121" stroke-width="0.75" stroke-linecap="round" stroke-linejoin="round"/>
<path d="M209.013 116.079H188.032C187.868 116.079 187.71 116.013 187.594 115.894C187.477 115.776 187.412 115.615 187.412 115.447C187.412 115.279 187.477 115.119 187.594 115C187.71 114.882 187.868 114.815 188.032 114.815H209.013C209.178 114.815 209.336 114.882 209.452 115C209.568 115.119 209.633 115.279 209.633 115.447C209.633 115.615 209.568 115.776 209.452 115.894C209.336 116.013 209.178 116.079 209.013 116.079Z" fill="#212121" stroke="#212121" stroke-width="0.75" stroke-linecap="round" stroke-linejoin="round"/>
<path d="M203.949 49.9109H163.847C163.682 49.9109 163.524 49.8443 163.408 49.7258C163.292 49.6073 163.226 49.4465 163.226 49.2788C163.226 49.1112 163.292 48.9504 163.408 48.8318C163.524 48.7133 163.682 48.6467 163.847 48.6467H203.949C204.113 48.6467 204.271 48.7133 204.387 48.8318C204.504 48.9504 204.569 49.1112 204.569 49.2788C204.569 49.4465 204.504 49.6073 204.387 49.7258C204.271 49.8443 204.113 49.9109 203.949 49.9109Z" fill="#212121" stroke="#212121" stroke-width="0.75" stroke-linecap="round" stroke-linejoin="round"/>
<path d="M183.898 137.146C187.551 137.146 190.513 134.128 190.513 130.404C190.513 126.68 187.551 123.661 183.898 123.661C180.244 123.661 177.283 126.68 177.283 130.404C177.283 134.128 180.244 137.146 183.898 137.146Z" fill="#9E9E9E" stroke="#212121" stroke-width="0.75" stroke-linecap="round" stroke-linejoin="round"/>
<path d="M164.053 137.146C167.707 137.146 170.668 134.128 170.668 130.404C170.668 126.68 167.707 123.661 164.053 123.661C160.4 123.661 157.439 126.68 157.439 130.404C157.439 134.128 160.4 137.146 164.053 137.146Z" fill="#9E9E9E" stroke="#212121" stroke-linecap="round" stroke-linejoin="round"/>
<path d="M203.742 137.146C207.395 137.146 210.357 134.128 210.357 130.404C210.357 126.68 207.395 123.661 203.742 123.661C200.089 123.661 197.127 126.68 197.127 130.404C197.127 134.128 200.089 137.146 203.742 137.146Z" fill="#9E9E9E" stroke="#212121" stroke-linecap="round" stroke-linejoin="round"/>
<path d="M202.232 99.3559H190.527V84.0123H199.053L202.232 87.0354V99.3559Z" fill="white" stroke="#212121" stroke-linecap="round" stroke-linejoin="round"/>
<path d="M199.053 84.0123V84.4276V87.4548H202.232V87.0354L199.053 84.0123Z" fill="#212121" stroke="#212121" stroke-width="0.75" stroke-linecap="round" stroke-linejoin="round"/>
<path d="M199.053 87.0395H202.232L199.053 84.0123V87.0395Z" fill="white" stroke="#212121" stroke-linecap="round" stroke-linejoin="round"/>
<path d="M195.909 87.8784H197.801L199.249 96.3412H197.849L197.596 94.6594V94.6843H196.009L195.756 96.3453H194.448L195.909 87.8784ZM197.444 93.5258L196.824 89.3442H196.798L196.188 93.5258H197.444Z" fill="#9E9E9E" stroke="#9E9E9E" stroke-width="0.5" stroke-linecap="round" stroke-linejoin="round"/>
<path d="M195.036 87.463H196.929L198.377 95.9258H196.977L196.724 94.2441V94.269H195.137L194.884 95.93H193.575L195.036 87.463ZM196.571 93.1104L195.952 88.9289H195.926L195.315 93.1104H196.571Z" fill="white" stroke="#212121" stroke-width="0.75" stroke-linecap="round" stroke-linejoin="round"/>
<path d="M237.098 126.958L244.947 155.195C244.947 155.195 245.056 158.309 246.583 160.697L248.724 184.482C248.724 184.482 250.359 186.87 256.246 184.482C256.246 184.482 256.504 167.457 254.323 156.856L252.47 136.683C252.888 133.514 252.777 130.302 252.143 127.165L237.098 126.958Z" fill="#212121"/>
<path opacity="0.5" d="M249.958 129.678C248.889 130.035 247.716 130.251 246.674 130.508C246.61 130.526 246.544 130.54 246.478 130.55C245.58 132.626 244.681 134.702 243.674 136.753C242.488 139.162 240.97 142.193 240.918 145.058C241.317 145.103 241.691 145.27 241.982 145.534C242.273 145.799 242.466 146.146 242.531 146.524C242.64 147.195 242.786 147.861 242.967 148.518C243.229 149.286 243.547 150.004 243.748 150.801C243.8 151.009 243.853 151.217 243.901 151.42C243.787 146.919 243.499 142.538 246.67 138.597C248.977 135.757 249.731 132.198 249.958 129.678Z" fill="#9E9E9E"/>
<path d="M237.098 126.958L244.947 155.195C244.947 155.195 245.056 158.309 246.583 160.697L248.724 184.482C248.724 184.482 250.359 186.87 256.246 184.482C256.246 184.482 256.504 167.457 254.323 156.856L252.47 136.683C252.888 133.514 252.777 130.302 252.143 127.165L237.098 126.958Z" stroke="#212121" stroke-width="0.75" stroke-linecap="round" stroke-linejoin="round"/>
<path d="M249.177 184.47C249.177 184.47 245.396 186.131 244.04 186.131C243.111 186.131 241.376 185.238 240.551 187.31C240.551 187.31 239.566 189.142 245.54 189.802C249.338 190.159 253.163 190.185 256.966 189.881C257.082 189.872 257.195 189.84 257.298 189.787C257.4 189.734 257.49 189.661 257.56 189.573C257.631 189.485 257.682 189.384 257.708 189.276C257.735 189.168 257.738 189.055 257.716 188.946L257.642 188.577C257.642 188.577 257.494 185.853 255.714 184.487L249.177 184.47Z" fill="#B75400" stroke="#212121" stroke-linecap="round" stroke-linejoin="round"/>
<path d="M244.454 188.751C240.569 188.029 240.669 187.011 240.669 187.011C240.621 187.103 240.578 187.194 240.534 187.298C240.534 187.298 239.548 189.129 245.523 189.789C249.321 190.147 253.145 190.173 256.948 189.868C257.065 189.86 257.178 189.828 257.28 189.775C257.383 189.722 257.472 189.649 257.543 189.561C257.614 189.473 257.664 189.371 257.691 189.263C257.718 189.155 257.72 189.043 257.699 188.934L257.668 188.797L254.123 189.1C254.123 189.1 248.336 189.47 244.454 188.751Z" fill="white" stroke="#212121" stroke-width="0.75" stroke-linecap="round" stroke-linejoin="round"/>
<path d="M249.094 155.98C249.637 156.534 250.31 156.958 251.058 157.217C251.807 157.476 252.608 157.563 253.399 157.47" stroke="#9E9E9E" stroke-width="0.75" stroke-linecap="round" stroke-linejoin="round"/>
<path d="M229.579 125.803C229.579 125.803 227.617 130.682 231.215 151.549C231.215 151.549 230.561 153.521 231.869 157.466L233.613 170.858V184.146C233.613 184.146 234.812 186.949 241.899 184.146C241.899 184.146 242.117 160.581 241.354 155.598L243.024 140.391C243.106 139.683 243.342 139 243.717 138.384C244.093 137.768 244.599 137.234 245.205 136.816C246.761 135.724 248.759 133.436 249.086 128.797L229.579 125.803Z" fill="#212121" stroke="#212121" stroke-width="0.75" stroke-linecap="round" stroke-linejoin="round"/>
<path d="M234.102 183.889C234.102 183.889 229.928 185.716 228.432 185.703C227.408 185.703 225.489 184.719 224.564 187.003C224.564 187.003 223.474 189.025 230.068 189.752C234.262 190.146 238.484 190.177 242.684 189.843C242.812 189.833 242.936 189.798 243.049 189.739C243.162 189.68 243.26 189.599 243.337 189.501C243.415 189.404 243.469 189.292 243.498 189.172C243.527 189.053 243.529 188.929 243.504 188.809L243.425 188.394C243.425 188.394 243.26 185.384 241.297 183.88L234.102 183.889Z" fill="#B75400" stroke="#212121" stroke-linecap="round" stroke-linejoin="round"/>
<path d="M228.886 188.61C224.599 187.817 224.713 186.696 224.713 186.696C224.656 186.798 224.607 186.903 224.564 187.011C224.564 187.011 223.474 189.034 230.068 189.76C234.262 190.154 238.484 190.185 242.684 189.852C242.812 189.842 242.936 189.806 243.049 189.747C243.162 189.688 243.26 189.607 243.337 189.51C243.415 189.412 243.469 189.3 243.498 189.181C243.527 189.061 243.529 188.938 243.504 188.818L243.473 188.668L239.548 189C239.548 189 233.177 189.407 228.886 188.61Z" fill="white" stroke="#212121" stroke-width="0.75" stroke-linecap="round" stroke-linejoin="round"/>
<path d="M235.031 154.559C235.031 154.559 236.74 156.511 240.155 156.245" stroke="#9E9E9E" stroke-width="0.75" stroke-linecap="round" stroke-linejoin="round"/>
<path d="M238.175 73.2739C238.175 73.2739 234.647 74.7813 234.376 73.2739C235.231 72.9588 235.973 72.4187 236.518 71.7167C237.39 70.5748 241.751 70.8862 241.751 70.8862C241.751 70.8862 249.439 70.201 248.458 73.9466C248.458 73.9466 251.51 76.6914 248.894 80.6903C246.277 84.6892 244.768 86.0263 244.768 86.0263L242.152 85.611L238.515 75.0761L238.175 73.2739Z" fill="#212121" stroke="#212121" stroke-width="0.75" stroke-linecap="round" stroke-linejoin="round"/>
<path d="M238.711 88.7628V87.189C238.711 87.189 235.881 87.6042 235.493 86.9108C235.105 86.2173 235.737 83.3354 235.737 83.3354C235.737 83.3354 234.376 83.3811 234.376 82.779C234.376 82.1769 235.981 79.6273 235.981 79.6273C235.981 79.6273 235.789 77.5842 235.981 76.9364C236.173 76.2886 238.162 72.6219 238.162 72.6219C238.162 72.6219 241.083 74.1501 240.988 74.9847C240.892 75.8194 240.063 76.6084 240.743 77.306C241.424 78.0036 242.352 79.8806 242.052 80.7733L242.488 81.064C242.488 81.064 242.732 79.403 243.709 79.1165C244.686 78.83 245.453 80.6903 244.777 81.99C244.101 83.2898 243.316 83.0572 243.316 83.0572C243.316 83.0572 243.709 85.2871 244.729 86.0263L245.039 88.3475L238.711 88.7628Z" fill="white"/>
<path d="M235.493 86.9107C235.493 86.9107 236.936 87.2554 240.098 86.0262C243.259 84.7971 243.338 83.0572 243.338 83.0572L243.478 83.2939C243.478 83.2939 243.207 86.0262 238.711 87.1889C235.083 88.1233 235.083 87.4464 235.083 87.4464L235.493 86.9107Z" fill="#212121" stroke="#212121" stroke-width="0.5" stroke-linecap="round" stroke-linejoin="round"/>
<path d="M238.711 88.7628V87.189C238.711 87.189 235.881 87.6042 235.493 86.9108C235.105 86.2173 235.737 83.3354 235.737 83.3354C235.737 83.3354 234.376 83.3811 234.376 82.779C234.376 82.1769 235.981 79.6273 235.981 79.6273C235.981 79.6273 235.789 77.5842 235.981 76.9364C236.173 76.2886 238.162 72.6219 238.162 72.6219C238.162 72.6219 241.083 74.1501 240.988 74.9847C240.892 75.8194 240.063 76.6084 240.743 77.306C241.424 78.0036 242.352 79.8806 242.052 80.7733L242.488 81.064C242.488 81.064 242.732 79.403 243.709 79.1165C244.686 78.83 245.453 80.6903 244.777 81.99C244.101 83.2898 243.316 83.0572 243.316 83.0572C243.316 83.0572 243.709 85.2871 244.729 86.0263L245.039 88.3475L238.711 88.7628Z" stroke="#212121" stroke-linecap="round" stroke-linejoin="round"/>
<path d="M238.567 83.3354C238.567 83.3354 238.074 84.8345 236.504 84.0289" stroke="#212121" stroke-width="0.75" stroke-linecap="round" stroke-linejoin="round"/>
<path d="M236.836 77.5385C237.126 77.5041 237.42 77.5687 237.665 77.7207C237.91 77.8727 238.09 78.1023 238.175 78.369" stroke="#212121" stroke-width="0.75" stroke-linecap="round" stroke-linejoin="round"/>
<path d="M236.518 79.1165C236.518 79.4238 236.661 79.6729 236.836 79.6729C237.01 79.6729 237.15 79.4238 237.15 79.1165C237.15 78.8092 237.01 78.5601 236.836 78.5601C236.661 78.5601 236.518 78.8092 236.518 79.1165Z" fill="#2E353A"/>
<path d="M254.925 97.8152C254.925 97.8152 263.158 113.956 261.414 116.456C259.67 118.956 252.147 127.153 252.147 127.153L249.094 123.831L255.2 113.964L252.038 107.844C252.038 107.844 250.621 103.043 254.925 97.8152Z" fill="#B75400"/>
<path opacity="0.2" d="M255.296 108.778C255.767 106.286 255.4 101.719 255.296 100.705C254.836 103.784 254.188 106.834 253.355 109.841C253.319 109.984 253.268 110.123 253.202 110.256C253.987 111.427 254.916 112.536 254.781 114.018C254.646 115.501 253.128 117.432 252.243 118.677C252.142 118.819 252.025 118.95 251.894 119.068C251.964 119.191 252.021 119.32 252.064 119.454C252.431 120.637 252.374 121.854 252.383 123.071C253.447 116.9 257.319 114.973 257.655 113.578C258.061 111.884 254.764 111.581 255.296 108.778Z" fill="#9E9E9E"/>
<path d="M254.925 97.8152C254.925 97.8152 263.158 113.956 261.414 116.456C259.67 118.956 252.147 127.153 252.147 127.153L249.094 123.831L255.2 113.964L252.038 107.844C252.038 107.844 250.621 103.043 254.925 97.8152Z" stroke="#212121" stroke-linecap="round" stroke-linejoin="round"/>
<path d="M256.259 113.736C257.184 113.495 258.16 113.495 259.085 113.736" stroke="#212121" stroke-width="0.75" stroke-linecap="round" stroke-linejoin="round"/>
<path d="M236.775 91.1298L238.737 88.0735C238.737 88.0735 244.188 85.9516 246.914 88.0735L248.44 92.1679L236.775 91.1298Z" fill="#B75400" stroke="#212121" stroke-linecap="round" stroke-linejoin="round"/>
<path d="M228.925 126.775L230.552 114.039L229.893 94.9375C229.859 94.1014 230.121 93.2787 230.637 92.6011C231.152 91.9235 231.892 91.4302 232.736 91.2003C238.275 89.6722 250.132 87.7952 254.925 97.8194C255.329 98.6562 255.458 99.5898 255.296 100.498L252.038 118.333L252.91 128.062C252.91 128.062 242.296 135.495 228.925 126.775Z" fill="#B75400"/>
<path opacity="0.2" d="M242.605 125.803C242.335 122.066 249.421 120.613 249.094 119.072C248.767 117.531 243.752 118.329 243.752 116.809C243.752 115.289 230.482 112.009 233.517 104.937C234.368 103.07 234.825 101.062 234.865 99.0278C233.44 100.772 231.833 102.373 230.068 103.807C230.178 104.111 230.216 104.435 230.177 104.754C230.177 104.8 230.216 104.846 230.229 104.891C230.487 105.953 230.511 107.055 230.299 108.126C230.316 108.341 230.303 108.558 230.26 108.77C230.427 109.992 230.491 111.225 230.451 112.457C230.451 112.557 230.478 112.656 230.499 112.756C230.559 113.072 230.547 113.396 230.465 113.707C230.633 114.123 230.645 114.583 230.499 115.007C230.421 115.243 230.338 115.48 230.255 115.717C230.286 115.832 230.303 115.951 230.308 116.07C230.386 117.951 229.963 119.807 229.627 121.638C229.313 123.345 229.252 125.093 228.921 126.796C229.15 126.898 229.358 127.039 229.536 127.211C230.678 128.307 232.758 129.021 234.259 129.57C236.008 130.188 237.818 130.638 239.662 130.915C243.412 131.543 247.276 130.927 250.608 129.171C249.26 129.208 242.85 129.154 242.605 125.803Z" fill="#9E9E9E"/>
<path d="M228.925 126.775L230.552 114.039L229.893 94.9375C229.859 94.1014 230.121 93.2787 230.637 92.6011C231.152 91.9235 231.892 91.4302 232.736 91.2003C238.275 89.6722 250.132 87.7952 254.925 97.8194C255.329 98.6562 255.458 99.5898 255.296 100.498L252.038 118.333L252.91 128.062C252.91 128.062 242.296 135.495 228.925 126.775Z" stroke="#212121" stroke-linecap="round" stroke-linejoin="round"/>
<path d="M250.839 118.744C250.839 118.744 234.485 122.066 233.613 118.744C232.741 115.422 238.192 117.498 242.605 116.979" stroke="#212121" stroke-width="0.75" stroke-linecap="round" stroke-linejoin="round"/>
<path d="M210.352 99.0901L205.119 97.2837C205.119 97.2837 203.745 93.8704 202.76 93.1644C201.774 92.4585 200.579 91.0882 200.257 91.6114C200.025 91.981 200.627 92.9651 201.464 93.6503C202.372 94.3936 201.979 95.3362 201.792 95.7265C201.604 96.1169 200.147 96.7564 198.97 97.1509C197.793 97.5454 195.045 96.5695 194.343 97.2464C193.641 97.9232 195.446 98.1516 195.446 98.1516C195.446 98.1516 194.103 98.243 193.981 98.9821C193.911 99.4264 195.25 99.1482 195.917 99.0818C196.585 99.0153 197.954 98.9323 197.954 98.9323C197.954 98.9323 195.634 99.7005 195.804 100.315C195.974 100.93 197.596 99.9953 198.944 99.7752C198.944 99.7752 197.134 100.631 197.374 101.204C197.614 101.777 198.482 100.95 200.034 100.373L203.287 99.6631L208.577 102.412L210.352 99.0901Z" fill="white" stroke="#212121" stroke-linecap="round" stroke-linejoin="round"/>
<path d="M195.943 98.1433C196.681 98.3033 197.438 98.3675 198.194 98.3343" stroke="#212121" stroke-width="0.75" stroke-linecap="round" stroke-linejoin="round"/>
<path d="M232.178 91.6156C232.007 91.5515 231.819 91.5378 231.64 91.5763C231.46 91.6148 231.297 91.7037 231.171 91.8315L221.817 101.316L206.479 97.2838L204.783 101.353C204.783 101.353 216.418 107.553 222.331 107.212C226.819 106.951 232.305 102.354 234.69 100.153C235.085 99.786 235.379 99.3328 235.548 98.8327C235.717 98.3327 235.755 97.801 235.658 97.2838" fill="#B75400"/>
<path d="M232.178 91.6156C232.007 91.5515 231.819 91.5378 231.64 91.5763C231.46 91.6148 231.297 91.7037 231.171 91.8315L221.817 101.316L206.479 97.2838L204.783 101.353C204.783 101.353 216.418 107.553 222.331 107.212C226.819 106.951 232.305 102.354 234.69 100.153C235.085 99.786 235.379 99.3328 235.548 98.8327C235.717 98.3327 235.755 97.801 235.658 97.2838" stroke="#212121" stroke-linecap="round" stroke-linejoin="round"/>
<path d="M208.028 100.921C208.043 101.018 208.027 101.116 207.984 101.204C207.94 101.292 207.87 101.366 207.783 101.417C207.695 101.467 207.594 101.492 207.492 101.487C207.39 101.483 207.291 101.45 207.208 101.393C207.126 101.335 207.063 101.256 207.027 101.165C206.992 101.073 206.986 100.974 207.009 100.879C207.033 100.784 207.086 100.699 207.161 100.632C207.235 100.566 207.329 100.522 207.43 100.506C207.498 100.495 207.568 100.497 207.635 100.512C207.702 100.527 207.766 100.554 207.821 100.593C207.877 100.632 207.924 100.681 207.96 100.737C207.995 100.794 208.018 100.856 208.028 100.921Z" fill="white" stroke="#212121" stroke-width="0.75" stroke-linecap="round" stroke-linejoin="round"/>
<path d="M221.664 104.127C222.161 102.902 221.481 101.893 222.179 101.777C222.877 101.66 222.929 103.762 224.085 103.733" stroke="#212121" stroke-width="0.75" stroke-linecap="round" stroke-linejoin="round"/>
<path d="M167.79 187.36L156.783 186.181V162.47L162.43 159.239V158.056H147.293V159.231L152.962 162.453V186.181L141.955 187.36C141.461 187.413 141.005 187.638 140.673 187.991C140.342 188.344 140.159 188.801 140.159 189.275V190.246H169.617V189.275C169.616 188.797 169.428 188.336 169.091 187.982C168.753 187.628 168.289 187.407 167.79 187.36Z" fill="white" stroke="#212121" stroke-width="0.75" stroke-linecap="round" stroke-linejoin="round"/>
<path d="M144.005 144.162H140.996V157.176H144.005V144.162Z" fill="white" stroke="#212121" stroke-width="0.75" stroke-linecap="round" stroke-linejoin="round"/>
<path d="M170.855 154.481H138.877C137.834 154.481 136.988 155.286 136.988 156.279V158.073C136.988 159.066 137.834 159.871 138.877 159.871H170.855C171.898 159.871 172.743 159.066 172.743 158.073V156.279C172.743 155.286 171.898 154.481 170.855 154.481Z" fill="#212121" stroke="#212121" stroke-linecap="round" stroke-linejoin="round"/>
<path d="M148.806 130.861H136.199C134.195 130.861 132.571 132.408 132.571 134.316V141.894C132.571 143.802 134.195 145.349 136.199 145.349H148.806C150.81 145.349 152.435 143.802 152.435 141.894V134.316C152.435 132.408 150.81 130.861 148.806 130.861Z" fill="#212121"/>
<path opacity="0.5" d="M152.121 130.861H139.513C137.509 130.861 135.885 132.408 135.885 134.316V141.894C135.885 143.802 137.509 145.349 139.513 145.349H152.121C154.125 145.349 155.749 143.802 155.749 141.894V134.316C155.749 132.408 154.125 130.861 152.121 130.861Z" fill="#9E9E9E"/>
<path d="M148.806 130.861H136.199C134.195 130.861 132.571 132.408 132.571 134.316V141.894C132.571 143.802 134.195 145.349 136.199 145.349H148.806C150.81 145.349 152.435 143.802 152.435 141.894V134.316C152.435 132.408 150.81 130.861 148.806 130.861Z" stroke="#212121" stroke-linecap="round" stroke-linejoin="round"/>
<path d="M166.39 153.667C167.331 152.951 168.375 152.368 169.49 151.935" stroke="#212121" stroke-width="0.75" stroke-linecap="round" stroke-linejoin="round"/>
<path d="M168.26 150.951C168.26 150.951 165.099 153.418 165.74 153.787" stroke="#212121" stroke-width="0.75" stroke-linecap="round" stroke-linejoin="round"/>
<path d="M178.256 174.01L179.237 180.592C179.237 180.592 177.401 182.02 177.309 185.907L180.545 187.003L181.417 185.907L184.304 188.772C184.304 188.772 189.42 190.965 190.117 189.499C190.815 188.033 187.994 186.949 185.608 183.727C184.989 182.896 182.917 180.521 182.917 180.521L183.122 173.653L178.256 174.01Z" fill="#212121" stroke="#212121" stroke-width="0.75" stroke-linecap="round" stroke-linejoin="round"/>
<path d="M153.555 146.076C153.555 146.076 180.632 144.348 181.867 147.99C183.101 151.632 183.681 163.288 183.742 167.922C183.803 172.557 183.419 178.407 183.419 178.407C181.793 178.877 180.057 178.877 178.43 178.407C178.43 178.407 177.24 171.685 176.381 168.416C175.521 165.148 174.61 160.788 175.129 153.883C175.129 153.883 149.181 157.62 149.038 153.285C148.894 148.949 153.555 146.076 153.555 146.076Z" fill="white"/>
<path opacity="0.5" d="M153.555 146.076C153.555 146.076 180.632 144.348 181.867 147.99C183.101 151.632 183.681 163.288 183.742 167.922C183.803 172.557 183.419 178.407 183.419 178.407C181.793 178.877 180.057 178.877 178.43 178.407C178.43 178.407 177.24 171.685 176.381 168.416C175.521 165.148 174.61 160.788 175.129 153.883C175.129 153.883 149.181 157.62 149.038 153.285C148.894 148.949 153.555 146.076 153.555 146.076Z" fill="#9E9E9E"/>
<path opacity="0.2" d="M172.63 147.297L173.101 147.496L173.289 147.567L173.402 147.617C173.603 147.698 173.795 147.799 173.973 147.92C175.914 148.821 176.83 150.465 176.154 152.562C176.15 152.679 176.139 152.796 176.119 152.911C175.817 154.386 175.379 155.832 174.811 157.234C174.985 157.52 175.057 157.852 175.016 158.181C174.946 158.708 174.889 159.231 174.845 159.759C175.048 160.213 175.112 160.712 175.029 161.199C174.979 161.516 174.956 161.835 174.959 162.155C175.12 163.309 175.277 164.463 175.504 165.605L175.766 166.56C175.766 166.336 175.766 166.095 175.739 165.825C175.234 156.353 176.769 160.203 177.445 153.667C177.981 148.75 174.427 147.575 172.63 147.297Z" fill="#9E9E9E"/>
<path d="M153.555 146.076C153.555 146.076 180.632 144.348 181.867 147.99C183.101 151.632 183.681 163.288 183.742 167.922C183.803 172.557 183.419 178.407 183.419 178.407C181.793 178.877 180.057 178.877 178.43 178.407C178.43 178.407 177.24 171.685 176.381 168.416C175.521 165.148 174.61 160.788 175.129 153.883C175.129 153.883 149.181 157.62 149.038 153.285C148.894 148.949 153.555 146.076 153.555 146.076Z" stroke="#212121" stroke-linecap="round" stroke-linejoin="round"/>
<path d="M178.038 151.536C178.038 151.536 177.759 152.732 176.005 153.891" stroke="#212121" stroke-width="0.75" stroke-linecap="round" stroke-linejoin="round"/>
<path d="M184.047 176.925L183.859 178.669C183.859 178.669 180.763 180.251 178.038 178.789L177.471 177.074C177.471 177.074 179.315 178.279 184.047 176.925Z" fill="#9E9E9E"/>
<path opacity="0.3" d="M184.047 176.925L183.859 178.669C183.859 178.669 180.763 180.251 178.038 178.789L177.471 177.074C177.471 177.074 179.315 178.279 184.047 176.925Z" fill="#9E9E9E" stroke="#212121" stroke-width="0.75" stroke-miterlimit="10"/>
<path d="M184.047 176.925L183.859 178.669C183.859 178.669 180.763 180.251 178.038 178.789L177.471 177.074C177.471 177.074 179.315 178.279 184.047 176.925Z" stroke="#212121" stroke-width="0.75" stroke-linecap="round" stroke-linejoin="round"/>
<path d="M182.747 181.111C183.985 182.29 185.079 183.598 186.009 185.01" stroke="#9E9E9E" stroke-linecap="round" stroke-linejoin="round"/>
<path d="M158.575 169.413L155.553 175.405C155.553 175.405 153.193 175.621 150.852 178.806L152.906 181.426L154.271 180.978L155.003 184.89C155.003 184.89 157.977 189.416 159.412 188.564C160.847 187.713 159.137 185.321 159.033 181.381C159.002 180.355 158.662 177.29 158.662 177.29L162.84 171.689L158.575 169.413Z" fill="#212121" stroke="#212121" stroke-width="0.75" stroke-linecap="round" stroke-linejoin="round"/>
<path d="M144.24 147.048C144.24 147.048 140.398 154.356 145.309 155.004C150.219 155.652 165.23 154.821 165.23 154.821C163.349 157.694 161.682 160.688 160.241 163.782C158.296 168.159 156.355 172.665 156.355 172.665C156.355 172.665 157.197 174.824 160.629 175.256C160.629 175.256 163.415 171.103 169.503 164.646C175.591 158.189 177.279 151.69 175.984 149.469C174.688 147.247 167.951 146.047 157.066 145.569L144.24 147.048Z" fill="white"/>
<path opacity="0.5" d="M144.24 147.048C144.24 147.048 140.398 154.356 145.309 155.004C150.219 155.652 165.23 154.821 165.23 154.821C163.349 157.694 161.682 160.688 160.241 163.782C158.296 168.159 156.355 172.665 156.355 172.665C156.355 172.665 157.197 174.824 160.629 175.256C160.629 175.256 163.415 171.103 169.503 164.646C175.591 158.189 177.279 151.69 175.984 149.469C174.688 147.247 167.951 146.047 157.066 145.569L144.24 147.048Z" fill="#9E9E9E"/>
<path d="M144.24 147.048C144.24 147.048 140.398 154.356 145.309 155.004C150.219 155.652 165.23 154.821 165.23 154.821C163.349 157.694 161.682 160.688 160.241 163.782C158.296 168.159 156.355 172.665 156.355 172.665C156.355 172.665 157.197 174.824 160.629 175.256C160.629 175.256 163.415 171.103 169.503 164.646C175.591 158.189 177.279 151.69 175.984 149.469C174.688 147.247 167.951 146.047 157.066 145.569L144.24 147.048Z" stroke="#212121" stroke-linecap="round" stroke-linejoin="round"/>
<path d="M161.78 174.637L160.616 175.995C160.616 175.995 157.127 175.688 155.692 173.034L156.211 171.307C156.211 171.307 157.053 173.279 161.78 174.637Z" fill="#9E9E9E"/>
<path opacity="0.3" d="M161.78 174.637L160.616 175.995C160.616 175.995 157.127 175.688 155.692 173.034L156.211 171.307C156.211 171.307 157.053 173.279 161.78 174.637Z" fill="#9E9E9E" stroke="#212121" stroke-width="0.75" stroke-miterlimit="10"/>
<path d="M161.78 174.637L160.616 175.995C160.616 175.995 157.127 175.688 155.692 173.034L156.211 171.307C156.211 171.307 157.053 173.279 161.78 174.637Z" stroke="#212121" stroke-width="0.75" stroke-linecap="round" stroke-linejoin="round"/>
<path d="M158.065 177.855C158.239 178.76 158.566 180.604 158.736 182.593" stroke="#9E9E9E" stroke-linecap="round" stroke-linejoin="round"/>
<path d="M156.665 103.334C156.665 103.334 160.001 101.756 156.486 99.6508C152.971 97.5454 146.826 103.334 146.826 103.334L146.229 106.037C146.229 106.037 146.486 108.192 147.302 109.442C147.956 110.451 149.12 110.456 149.67 111.456C150.511 112.976 150.232 114.056 151.1 113.391C153.246 111.73 153.939 105.165 153.939 105.165L156.665 103.334Z" fill="#212121" stroke="#212121" stroke-linecap="round" stroke-linejoin="round"/>
<path d="M155.378 116.302L155.958 113.063L151.571 109.463L150.333 114.886L155.378 116.302Z" fill="white"/>
<path d="M151.144 109.841C151.144 109.841 151.501 111.71 152.57 112.885C153.638 114.06 156.425 115.455 156.425 115.455L156.665 113.23L152.304 110.065L151.571 109.471L151.144 109.841Z" fill="#212121" stroke="#212121" stroke-width="0.5" stroke-linecap="round" stroke-linejoin="round"/>
<path d="M155.378 116.302L155.958 113.063L151.571 109.463L150.333 114.886L155.378 116.302Z" stroke="#212121" stroke-linecap="round" stroke-linejoin="round"/>
<path d="M156.774 102.192C156.774 102.192 158.767 105.514 158.723 106.473C158.723 106.473 161.34 113.014 158.723 114.089C156.691 114.92 154.14 113.3 153.141 112.561C152.868 112.355 152.638 112.102 152.465 111.814L151.615 110.389C151.615 110.389 150.568 110.676 149.613 109.38C148.658 108.085 149.639 106.855 150.69 107.619C150.69 107.619 151.484 106.054 151.235 105.19C150.987 104.327 152.177 104.314 152.23 103.396C152.243 103.396 155.073 103.301 156.774 102.192Z" fill="white"/>
<path d="M156.774 102.192C156.774 102.192 158.767 105.514 158.723 106.473C158.723 106.473 161.34 113.014 158.723 114.089C156.691 114.92 154.14 113.3 153.141 112.561C152.868 112.355 152.638 112.102 152.465 111.814L151.615 110.389C151.615 110.389 150.568 110.676 149.613 109.38C148.658 108.085 149.639 106.855 150.69 107.619C150.69 107.619 151.484 106.054 151.235 105.19C150.987 104.327 152.177 104.314 152.23 103.396C152.243 103.396 155.073 103.301 156.774 102.192Z" stroke="#212121" stroke-linecap="round" stroke-linejoin="round"/>
<path d="M156.407 111.157C156.407 111.157 157.053 111.988 158.366 110.879" stroke="#212121" stroke-width="0.75" stroke-linecap="round" stroke-linejoin="round"/>
<path d="M157.493 107.283C157.733 108.18 157.454 109.019 156.87 109.16C156.285 109.301 155.618 108.695 155.378 107.802C155.138 106.909 155.522 106.556 156.107 106.419C156.691 106.282 157.254 106.39 157.493 107.283Z" stroke="#212121" stroke-width="0.75" stroke-linecap="round" stroke-linejoin="round"/>
<path d="M160.162 106.565C160.402 107.462 160.21 108.28 159.726 108.396C159.242 108.512 158.666 107.881 158.418 106.988C158.169 106.095 158.483 105.767 158.959 105.651C159.434 105.535 159.94 105.651 160.162 106.565Z" fill="white" stroke="#212121" stroke-width="0.75" stroke-linecap="round" stroke-linejoin="round"/>
<path d="M155.069 106.394C155.145 106.245 155.251 106.112 155.382 106.002C155.513 105.893 155.666 105.809 155.831 105.756C155.997 105.704 156.171 105.683 156.345 105.696C156.519 105.708 156.689 105.754 156.844 105.83" stroke="#212121" stroke-width="0.75" stroke-linecap="round" stroke-linejoin="round"/>
<path d="M157.956 105.468C157.986 105.331 158.053 105.203 158.15 105.097C158.247 104.991 158.371 104.91 158.509 104.862" stroke="#212121" stroke-width="0.75" stroke-linecap="round" stroke-linejoin="round"/>
<path d="M155.378 107.802L154.266 108.23L150.703 107.619" stroke="#212121" stroke-width="0.75" stroke-linecap="round" stroke-linejoin="round"/>
<path d="M158.4 106.818L157.511 107.163" stroke="#212121" stroke-width="0.75" stroke-linecap="round" stroke-linejoin="round"/>
<path d="M157.001 107.499C157.031 107.781 156.913 108.026 156.726 108.047C156.538 108.068 156.364 107.852 156.329 107.57C156.294 107.287 156.416 107.042 156.599 107.021C156.782 107.001 156.966 107.212 157.001 107.499Z" fill="#212121"/>
<path d="M159.177 106.747C159.212 107.026 159.133 107.258 158.998 107.275C158.863 107.291 158.732 107.076 158.701 106.801C158.671 106.527 158.745 106.291 158.876 106.278C159.007 106.266 159.142 106.473 159.177 106.747Z" fill="#212121"/>
<path d="M158.169 106.914L160.001 108.446C160.044 108.483 160.078 108.528 160.1 108.58C160.122 108.631 160.131 108.686 160.126 108.742C160.121 108.797 160.103 108.85 160.073 108.898C160.043 108.945 160.002 108.985 159.953 109.015L159.011 109.575" fill="white"/>
<path d="M158.169 106.914L160.001 108.446C160.044 108.483 160.078 108.528 160.1 108.58C160.122 108.631 160.131 108.686 160.126 108.742C160.121 108.797 160.103 108.85 160.073 108.898C160.043 108.945 160.002 108.985 159.953 109.015L159.011 109.575" stroke="#212121" stroke-width="0.75" stroke-linecap="round" stroke-linejoin="round"/>
<path d="M147.795 103.446C147.795 103.446 147.472 97.9233 142.971 100.124C138.471 102.325 142.771 108.803 141.423 110.231C140.076 111.66 142.653 111.02 142.971 109.986C143.29 108.952 143.028 111.71 143.652 111.809C144.275 111.909 144.376 109.442 144.96 109.442C145.544 109.442 144.807 110.979 145.274 111.149C145.741 111.319 146.827 108.134 147.136 106.374C147.3 105.387 147.52 104.41 147.795 103.446Z" fill="#212121" stroke="#212121" stroke-linecap="round" stroke-linejoin="round"/>
<path d="M147.795 102.695C147.795 102.695 146.22 104.356 146.835 108.508C146.857 108.5 143.804 104.293 147.795 102.695Z" fill="#9E9E9E" stroke="#212121" stroke-linecap="round" stroke-linejoin="round"/>
<path d="M151.523 103.334C151.523 103.334 153.268 103.795 153.508 105.165C153.747 106.536 154.559 102.018 151.523 103.334Z" fill="#212121" stroke="#212121" stroke-width="0.75" stroke-linecap="round" stroke-linejoin="round"/>
<path d="M157.323 103.039C157.323 103.039 159.22 102.495 159.787 103.679C159.774 103.679 159.504 100.826 157.323 103.039Z" fill="#212121" stroke="#212121" stroke-width="0.75" stroke-linecap="round" stroke-linejoin="round"/>
<path d="M172.299 101.852C172.683 101.752 173.079 102.225 173.079 102.225C173.489 101.561 174.143 102.666 174.143 102.666C174.693 102.026 174.972 103.425 174.972 103.425C174.972 103.425 175.552 103.297 175.482 103.998C175.391 104.92 174.266 107.03 174.266 107.03L173.533 110.601L170.79 110.294L171.662 106.868L170.842 105.365C170.541 104.761 170.392 104.098 170.406 103.43C170.537 102.578 171.915 101.947 172.299 101.852Z" fill="white" stroke="#212121" stroke-linecap="round" stroke-linejoin="round"/>
<path d="M172.303 102.707C172.303 102.707 173.123 104.339 173.023 102.707C173.023 102.707 173.62 104.729 173.999 103.085C173.999 103.085 173.768 104.974 174.575 103.915C174.575 103.915 174.235 104.48 174.387 104.746C174.54 105.012 174.972 104.576 174.972 104.576" fill="white"/>
<path d="M172.303 102.707C172.303 102.707 173.123 104.339 173.023 102.707C173.023 102.707 173.62 104.729 173.999 103.085C173.999 103.085 173.768 104.974 174.575 103.915C174.575 103.915 174.235 104.48 174.387 104.746C174.54 105.012 174.972 104.576 174.972 104.576" stroke="#212121" stroke-width="0.75" stroke-linecap="round" stroke-linejoin="round"/>
<path d="M158.915 117.461L167.698 117.635L170.995 108.915L173.895 109.887C173.895 109.887 172.408 120.928 170.921 121.584C169.433 122.24 160.376 123.175 160.376 123.175C160.376 123.175 157.559 120.214 158.915 117.461Z" fill="#B75400"/>
<path opacity="0.2" d="M162.033 119.965C161.644 119.288 161.114 118.695 160.475 118.221C159.836 117.746 159.102 117.402 158.318 117.208C159.665 118.038 160.467 119.699 160.995 121.057C161.208 121.607 161.37 122.174 161.479 122.751C163.383 122.747 165.282 122.563 167.148 122.203C165.779 122.133 163.132 121.767 162.033 119.965Z" fill="#9E9E9E"/>
<path d="M158.915 117.461L167.698 117.635L170.995 108.915L173.895 109.887C173.895 109.887 172.408 120.928 170.921 121.584C169.433 122.24 160.376 123.175 160.376 123.175C160.376 123.175 157.559 120.214 158.915 117.461Z" stroke="#212121" stroke-linecap="round" stroke-linejoin="round"/>
<path d="M170.476 109.588L173.895 110.696L174.126 109.214L170.89 108.234L170.476 109.588Z" fill="#9E9E9E" stroke="#212121" stroke-linecap="round" stroke-linejoin="round"/>
<path d="M175.273 105.622C174.959 105.691 174.635 105.7 174.317 105.649C174 105.598 173.696 105.489 173.424 105.326C173.151 105.163 172.915 104.951 172.729 104.701C172.542 104.451 172.41 104.169 172.338 103.87L168.95 89.772L173.747 88.7297L177.118 102.827C177.189 103.126 177.198 103.436 177.144 103.738C177.09 104.04 176.975 104.329 176.803 104.589C176.632 104.848 176.409 105.073 176.146 105.25C175.883 105.428 175.587 105.554 175.273 105.622Z" fill="white" stroke="#212121" stroke-width="0.75" stroke-linecap="round" stroke-linejoin="round"/>
<path d="M173.016 89.6028L169.938 90.2735L170.44 92.3622L173.518 91.6915L173.016 89.6028Z" fill="#9E9E9E"/>
<path opacity="0.7" d="M173.016 89.6028L169.938 90.2735L170.44 92.3622L173.518 91.6915L173.016 89.6028Z" fill="white"/>
<path d="M173.641 92.1874L170.564 92.858L171.066 94.9467L174.143 94.2761L173.641 92.1874Z" fill="#9E9E9E"/>
<path opacity="0.3" d="M173.641 92.1874L170.564 92.8581L171.066 94.9468L174.143 94.2761L173.641 92.1874Z" fill="white"/>
<path d="M174.262 94.777L171.185 95.4477L171.687 97.5364L174.764 96.8657L174.262 94.777Z" fill="#9E9E9E"/>
<path d="M174.882 97.3574L171.804 98.0281L172.306 100.117L175.384 99.4461L174.882 97.3574Z" fill="#9E9E9E"/>
<path opacity="0.2" d="M174.882 97.3575L171.804 98.0281L172.306 100.117L175.384 99.4462L174.882 97.3575Z" fill="#9E9E9E"/>
<path d="M175.503 99.9471L172.425 100.618L172.927 102.706L176.005 102.036L175.503 99.9471Z" fill="#9E9E9E"/>
<path opacity="0.3" d="M175.503 99.9471L172.426 100.618L172.928 102.706L176.005 102.036L175.503 99.9471Z" fill="#9E9E9E"/>
<path d="M171.13 103.131C171.142 103.037 171.183 102.949 171.246 102.877C171.31 102.804 171.394 102.751 171.488 102.722C171.583 102.694 171.684 102.692 171.78 102.716C171.875 102.741 171.962 102.791 172.028 102.861C172.735 103.355 173.773 103.517 173.655 103.824C173.537 104.131 173.267 104.318 172.255 103.928C172.255 103.928 172.076 104.032 172.329 104.343C172.669 104.682 172.902 105.105 173.001 105.564" fill="white"/>
<path d="M171.13 103.131C171.142 103.037 171.183 102.949 171.246 102.877C171.31 102.804 171.394 102.751 171.488 102.722C171.583 102.694 171.684 102.692 171.78 102.716C171.875 102.741 171.962 102.791 172.028 102.861C172.735 103.355 173.773 103.517 173.655 103.824C173.537 104.131 173.267 104.318 172.255 103.928C172.255 103.928 172.076 104.032 172.329 104.343C172.669 104.682 172.902 105.105 173.001 105.564" stroke="#212121" stroke-width="0.75" stroke-linecap="round" stroke-linejoin="round"/>
<path d="M142.566 117.644L145.309 140.997L143.565 148.019C143.565 148.019 145.4 148.414 150.49 146.89C155.579 145.366 161.026 145.823 161.026 145.823C161.026 145.823 163.28 130.276 162.378 125.417C161.865 122.553 160.685 119.834 158.924 117.461C158.924 117.461 149.151 113.391 143.181 116.502C142.971 116.612 142.8 116.78 142.691 116.983C142.581 117.187 142.538 117.417 142.566 117.644Z" fill="#B75400"/>
<path opacity="0.12" d="M147.795 131.143C148 128.237 146.639 123.457 146.639 123.457L145.623 123.586C145.42 126.399 145.446 129.223 145.701 132.032C145.806 133.157 146.43 134.328 146.39 135.445C146.356 136.438 145.758 137.106 145.252 137.937C145.165 138.078 145.087 138.219 144.999 138.352C145.248 138.721 145.346 139.165 145.274 139.598C145.217 140.125 145.126 140.644 145.025 141.159C145.057 141.419 145.039 141.682 144.973 141.936C144.668 143.157 144.397 144.365 144.162 145.598C143.932 146.418 143.753 147.25 143.626 148.09C145.546 148.035 147.454 147.79 149.321 147.359C150.087 147.183 150.832 146.928 151.541 146.599C144.48 147.592 146.901 143.244 147.114 141.438C147.328 139.631 154.144 137.426 154.484 135.454C154.824 133.481 147.585 134.038 147.795 131.143Z" fill="#9E9E9E"/>
<path d="M142.566 117.644L145.309 140.997L143.565 148.019C143.565 148.019 145.4 148.414 150.49 146.89C155.579 145.366 161.026 145.823 161.026 145.823C161.026 145.823 163.28 130.276 162.378 125.417C161.865 122.553 160.685 119.834 158.924 117.461C158.924 117.461 149.151 113.391 143.181 116.502C142.971 116.612 142.8 116.78 142.691 116.983C142.581 117.187 142.538 117.417 142.566 117.644V117.644Z" stroke="#212121" stroke-linecap="round" stroke-linejoin="round"/>
<path d="M148.75 115.455L150.036 113.063C151.517 113.539 153.024 113.939 154.55 114.259C157.022 114.774 156.425 115.455 156.425 115.455L155.793 117.27C155.793 117.27 154.82 118.192 148.75 115.455Z" fill="#B75400" stroke="#212121" stroke-linecap="round" stroke-linejoin="round"/>
<path d="M143.97 133.556C143.97 133.556 145.37 132.506 145.715 132.954C146.059 133.402 145.322 133.253 144.768 134.781" stroke="#212121" stroke-linecap="round" stroke-linejoin="round"/>
<path d="M156.521 144.627C156.424 144.14 156.533 143.637 156.825 143.226C157.116 142.816 157.567 142.533 158.078 142.438L170.009 140.254L170.751 143.921L158.819 146.105C158.308 146.199 157.78 146.096 157.349 145.819C156.918 145.542 156.62 145.113 156.521 144.627Z" fill="white" stroke="#212121" stroke-width="0.75" stroke-linecap="round" stroke-linejoin="round"/>
<path d="M170.037 143.354L169.559 140.989L167.79 141.313L168.268 143.678L170.037 143.354Z" fill="#9E9E9E"/>
<path opacity="0.7" d="M170.036 143.354L169.558 140.989L167.79 141.313L168.268 143.678L170.036 143.354Z" fill="white"/>
<path d="M167.847 143.758L167.369 141.393L165.6 141.717L166.078 144.082L167.847 143.758Z" fill="#9E9E9E"/>
<path opacity="0.3" d="M167.847 143.758L167.369 141.393L165.6 141.717L166.078 144.082L167.847 143.758Z" fill="white"/>
<path d="M165.656 144.154L165.179 141.793L163.411 142.117L163.888 144.478L165.656 144.154Z" fill="#9E9E9E"/>
<path d="M163.467 144.554L162.99 142.193L161.221 142.517L161.698 144.878L163.467 144.554Z" fill="#9E9E9E"/>
<path opacity="0.2" d="M163.467 144.554L162.99 142.193L161.221 142.517L161.698 144.878L163.467 144.554Z" fill="#9E9E9E"/>
<path d="M161.277 144.953L160.8 142.592L159.031 142.916L159.508 145.277L161.277 144.953Z" fill="#9E9E9E"/>
<path opacity="0.3" d="M161.277 144.953L160.8 142.592L159.031 142.916L159.508 145.277L161.277 144.953Z" fill="#9E9E9E"/>
<path d="M156.996 145.117C156.827 144.931 156.698 144.716 156.617 144.483C156.535 144.25 156.502 144.004 156.521 143.76C156.539 143.515 156.607 143.276 156.723 143.056C156.838 142.836 156.998 142.641 157.192 142.48L166.377 134.906L168.945 137.729L159.761 145.304C159.567 145.464 159.341 145.587 159.097 145.665C158.853 145.742 158.595 145.773 158.338 145.756C158.081 145.739 157.83 145.673 157.6 145.564C157.37 145.454 157.165 145.302 156.996 145.117Z" fill="white" stroke="#212121" stroke-width="0.75" stroke-linecap="round" stroke-linejoin="round"/>
<path d="M168.026 137.578L166.374 135.76L165.012 136.883L166.665 138.7L168.026 137.578Z" fill="#9E9E9E"/>
<path opacity="0.7" d="M168.026 137.578L166.374 135.76L165.012 136.883L166.665 138.7L168.026 137.578Z" fill="white"/>
<path d="M166.347 138.968L164.691 137.147L163.329 138.27L164.985 140.091L166.347 138.968Z" fill="#9E9E9E"/>
<path opacity="0.3" d="M166.347 138.968L164.691 137.147L163.329 138.27L164.985 140.091L166.347 138.968Z" fill="white"/>
<path d="M164.656 140.358L163.004 138.541L161.642 139.663L163.295 141.481L164.656 140.358Z" fill="#9E9E9E"/>
<path d="M162.973 141.751L161.321 139.934L159.959 141.056L161.612 142.874L162.973 141.751Z" fill="#9E9E9E"/>
<path opacity="0.2" d="M162.973 141.751L161.321 139.934L159.959 141.056L161.612 142.874L162.973 141.751Z" fill="#9E9E9E"/>
<path d="M161.289 143.137L159.634 141.317L158.272 142.439L159.928 144.26L161.289 143.137Z" fill="#9E9E9E"/>
<path opacity="0.3" d="M161.29 143.137L159.634 141.317L158.272 142.439L159.928 144.26L161.29 143.137Z" fill="#9E9E9E"/>
<path d="M157.367 145.183C156.876 145.02 156.474 144.678 156.247 144.233C156.021 143.788 155.989 143.275 156.159 142.808L160.136 131.895L163.838 133.116L159.861 144.049C159.688 144.514 159.328 144.894 158.86 145.107C158.392 145.319 157.856 145.347 157.367 145.183Z" fill="white" stroke="#212121" stroke-width="0.75" stroke-linecap="round" stroke-linejoin="round"/>
<path d="M162.969 133.407L160.579 132.618L159.989 134.239L162.379 135.027L162.969 133.407Z" fill="#9E9E9E"/>
<path opacity="0.7" d="M162.969 133.407L160.579 132.618L159.989 134.239L162.379 135.027L162.969 133.407Z" fill="white"/>
<path d="M162.233 135.409L159.847 134.622L159.257 136.242L161.643 137.029L162.233 135.409Z" fill="#9E9E9E"/>
<path opacity="0.3" d="M162.233 135.409L159.847 134.622L159.257 136.242L161.643 137.029L162.233 135.409Z" fill="white"/>
<path d="M161.505 137.413L159.119 136.626L158.53 138.247L160.915 139.034L161.505 137.413Z" fill="#9E9E9E"/>
<path d="M160.781 139.423L158.391 138.635L157.802 140.255L160.192 141.044L160.781 139.423Z" fill="#9E9E9E"/>
<path opacity="0.2" d="M160.781 139.423L158.391 138.635L157.801 140.255L160.191 141.044L160.781 139.423Z" fill="#9E9E9E"/>
<path d="M160.045 141.425L157.659 140.638L157.07 142.258L159.455 143.045L160.045 141.425Z" fill="#9E9E9E"/>
<path opacity="0.3" d="M160.045 141.425L157.659 140.638L157.069 142.258L159.455 143.045L160.045 141.425Z" fill="#9E9E9E"/>
<path d="M152.783 138.344L156.089 140.64C156.089 140.64 159.839 140.64 160.52 141.616C161.2 142.592 161.392 143.692 160.781 144.087C160.171 144.481 161.1 143.032 159.403 142.297C159.403 142.297 160.276 146.064 158.762 145.258C158.762 145.258 158.566 145.897 157.995 145.312C158.094 144.843 158.02 144.356 157.785 143.933C157.718 143.777 157.609 143.639 157.469 143.535C157.329 143.43 157.163 143.361 156.987 143.335C156.987 143.335 158.051 144.718 157.349 145.096C156.782 145.399 156.477 143.41 155.718 143.186C155.308 143.16 154.913 143.031 154.572 142.812C154.231 142.593 153.957 142.292 153.778 141.94L151.218 140.615L152.783 138.344Z" fill="white" stroke="#212121" stroke-linecap="round" stroke-linejoin="round"/>
<path d="M158.893 144.672C158.977 143.971 158.771 143.267 158.318 142.708" stroke="#212121" stroke-width="0.75" stroke-linecap="round" stroke-linejoin="round"/>
<path d="M159.713 141.649C159.713 141.649 159.643 141.936 158.963 141.874C158.462 141.828 157.725 142.791 156.957 142.646" stroke="#212121" stroke-width="0.75" stroke-linecap="round" stroke-linejoin="round"/>
<path d="M143.281 117C143.242 116.949 143.189 116.909 143.127 116.884C143.066 116.859 142.999 116.85 142.933 116.859C142.866 116.867 142.804 116.893 142.752 116.932C142.7 116.972 142.659 117.024 142.636 117.083C141.916 118.844 139.989 124.728 141.027 135.159C141.027 135.159 141.86 137.289 151.645 141.359L153.508 138.618L146.273 133.025C146.273 133.025 147.219 125.55 146.504 122.76" fill="#B75400"/>
<path d="M143.281 117C143.242 116.949 143.189 116.909 143.127 116.884C143.066 116.859 142.999 116.85 142.933 116.859C142.866 116.867 142.804 116.893 142.752 116.932C142.7 116.972 142.659 117.024 142.636 117.083C141.916 118.844 139.989 124.728 141.027 135.159C141.027 135.159 141.86 137.289 151.645 141.359L153.508 138.618L146.273 133.025C146.273 133.025 147.219 125.55 146.504 122.76" stroke="#212121" stroke-linecap="round" stroke-linejoin="round"/>
<path d="M153.076 137.987L150.83 141.45L152.592 142.052L154.484 139.025L153.076 137.987Z" fill="#9E9E9E" stroke="#212121" stroke-linecap="round" stroke-linejoin="round"/>
<path d="M113.688 83.3852C113.727 84.4981 113.849 87.8367 113.849 87.8367L120.8 91.8065L121.237 84.2406L121.476 73.8594L122.619 72.3478C122.619 72.3478 124.328 69.8563 121.476 68.8888C118.624 67.9212 119.418 69.7193 116.583 70.0224C113.749 70.3256 107.103 74.5902 110.112 78.2984C113.121 82.0066 113.618 81.5249 113.688 83.3852Z" fill="white"/>
<path d="M116.352 81.4044C116.76 81.7394 117.248 81.9721 117.774 82.0813C117.774 82.0813 118.851 84.988 119.392 85.3784C119.933 85.7687 121.86 86.0802 121.86 86.0802L122.427 82.2474L118.424 79.7559L116.243 79.133L116.352 81.4044Z" fill="#212121" stroke="#212121" stroke-linecap="round" stroke-linejoin="round"/>
<path d="M113.688 83.3852C113.727 84.4981 113.849 87.8367 113.849 87.8367L120.8 91.8065L121.237 84.2406L121.476 73.8594L122.619 72.3478C122.619 72.3478 124.328 69.8563 121.476 68.8888C118.624 67.9212 119.418 69.7193 116.583 70.0224C113.749 70.3256 107.103 74.5902 110.112 78.2984C113.121 82.0066 113.618 81.5249 113.688 83.3852Z" stroke="#212121" stroke-linecap="round" stroke-linejoin="round"/>
<path d="M121.472 73.8677L122.615 72.3561C122.615 72.3561 124.324 69.8646 121.472 68.8971C118.62 67.9295 119.414 69.7276 116.579 70.0307C113.744 70.3339 107.103 74.5902 110.112 78.2984C112.066 80.7235 112.964 81.3588 113.369 82.0357C113.69 81.8395 114.072 81.755 114.45 81.7966C114.829 81.8383 115.18 82.0034 115.445 82.264C116.579 83.3395 117.735 77.3309 117.735 77.3309L121.45 74.8186L121.472 73.8677Z" fill="#212121" stroke="#212121" stroke-linecap="round" stroke-linejoin="round"/>
<path d="M116.409 77.8666C116.409 77.8666 113.609 77.9372 115.101 79.9429C116.592 81.9485 118.153 81.5665 118.153 81.5665L119.858 84.6601C119.858 84.6601 125.794 85.4574 127.193 85.0754C128.593 84.6933 126.173 80.0342 126.173 80.0342L127.102 79.021C127.154 78.9655 127.193 78.9006 127.217 78.8301C127.242 78.7596 127.251 78.6852 127.244 78.6113C127.237 78.5374 127.214 78.4656 127.177 78.4004C127.14 78.3352 127.089 78.2779 127.028 78.232L124.812 76.5378C125 75.4955 122.58 72.3604 122.58 72.3604C122.58 72.3604 118.986 72.323 118.655 73.4774C118.451 74.1605 118.287 74.8536 118.162 75.5537L116.121 76.3468L116.409 77.8666Z" fill="white"/>
<path opacity="0.3" d="M117.774 74.7314L118.21 75.5619C118.21 75.5619 120.007 76.7329 120.103 77.364C120.225 78.1946 119.296 78.7676 121.193 80.5324C123.09 82.2972 124.908 80.2459 126.23 80.03C127.551 79.814 128.65 83.0198 128.65 83.0198L128.502 85.9265L121.193 86.1425L119.61 85.2082L117.539 81.8861C117.539 81.8861 119.784 81.6951 118.664 79.8099C117.111 77.2063 115.297 77.5758 115.297 77.5758L114.045 76.5169L117.264 74.312L117.774 74.7314Z" fill="#9E9E9E"/>
<path d="M116.409 77.8666C116.409 77.8666 113.609 77.9372 115.101 79.9429C116.592 81.9485 118.153 81.5665 118.153 81.5665L119.858 84.6601C119.858 84.6601 125.794 85.4574 127.193 85.0754C128.593 84.6933 126.173 80.0342 126.173 80.0342L127.102 79.021C127.154 78.9655 127.193 78.9006 127.217 78.8301C127.242 78.7596 127.251 78.6852 127.244 78.6113C127.237 78.5374 127.214 78.4656 127.177 78.4004C127.14 78.3352 127.089 78.2779 127.028 78.232L124.812 76.5378C125 75.4955 122.58 72.3604 122.58 72.3604C122.58 72.3604 118.986 72.323 118.655 73.4774C118.451 74.1605 118.287 74.8536 118.162 75.5537L116.121 76.3468L116.409 77.8666Z" stroke="#212121" stroke-linecap="round" stroke-linejoin="round"/>
<path d="M124.302 76.8118C124.416 77.1315 124.398 77.4305 124.259 77.4762C124.119 77.5218 123.914 77.2976 123.801 76.9737C123.687 76.6498 123.709 76.3591 123.844 76.3135C123.98 76.2678 124.18 76.492 124.302 76.8118Z" fill="#212121"/>
<path d="M123.744 75.3086C123.744 75.3086 122.724 75.0927 122.436 76.4257" stroke="#212121" stroke-linecap="round" stroke-linejoin="round"/>
<path d="M125.772 80.682C125.772 80.682 125.419 81.6205 124.071 81.1471" stroke="#212121" stroke-linecap="round" stroke-linejoin="round"/>
<path d="M150.385 80.5034C150.821 80.6819 150.856 81.4335 150.856 81.4335C151.789 81.0722 151.562 82.6253 151.562 82.6253C152.605 82.3886 151.78 83.9707 151.78 83.9707C151.78 83.9707 152.456 84.2614 151.833 84.9009C151.013 85.7314 148.239 87.0186 148.239 87.0186L144.698 90.0251L142.234 87.7578L145.784 84.9881C145.784 84.9881 145.954 84.087 146.177 82.9118C146.177 82.9118 146.504 81.4667 147.289 80.7068C148.074 79.9469 149.91 80.3248 150.385 80.5034Z" fill="white" stroke="#212121" stroke-linecap="round" stroke-linejoin="round"/>
<path d="M149.718 81.3505C149.718 81.3505 149.234 83.5514 150.429 81.8571C150.429 81.8571 149.426 84.2822 151.096 82.9326C151.096 82.9326 149.373 84.631 151.013 84.1493C151.013 84.1493 150.237 84.4649 150.176 84.8303C150.115 85.1958 150.886 85.0795 150.886 85.0795" fill="#9E9E9E"/>
<path d="M149.718 81.3505C149.718 81.3505 149.234 83.5514 150.429 81.8571C150.429 81.8571 149.426 84.2822 151.096 82.9326C151.096 82.9326 149.373 84.631 151.013 84.1493C151.013 84.1493 150.237 84.4649 150.176 84.8303C150.115 85.1958 150.886 85.0795 150.886 85.0795" stroke="#212121" stroke-linecap="round" stroke-linejoin="round"/>
<path d="M113.513 99.0901C113.513 99.0901 119.824 100.489 133.342 98.5918C133.342 98.5918 143.726 93.4261 146.377 88.6714L143.913 85.9764L131.158 92.7949C131.158 92.7949 117.874 90.8432 115.415 91.1339L113.513 99.0901Z" fill="#212121" stroke="#212121" stroke-linecap="round" stroke-linejoin="round"/>
<path d="M168.249 66.7985L146.939 70.3801L149.734 85.4573L171.044 81.8758L168.249 66.7985Z" fill="#B75400" stroke="#212121" stroke-width="0.75" stroke-linecap="round" stroke-linejoin="round"/>
<path d="M150.729 70.747L148.496 71.1223L148.788 72.7008L151.022 72.3255L150.729 70.747Z" fill="#212121" stroke="#212121" stroke-linecap="round" stroke-linejoin="round"/>
<path d="M152.587 81.5914L156.277 73.3984L162.687 79.893L152.587 81.5914Z" fill="#9E9E9E"/>
<path opacity="0.5" d="M152.587 81.5914L156.277 73.3984L162.687 79.893L152.587 81.5914Z" fill="white"/>
<path d="M152.587 81.5914L156.277 73.3984L162.687 79.893L152.587 81.5914Z" stroke="#212121" stroke-width="0.75" stroke-linecap="round" stroke-linejoin="round"/>
<path d="M159.259 80.4702L162.077 74.2165L166.974 79.1746L159.259 80.4702Z" fill="#9E9E9E" stroke="#212121" stroke-width="0.75" stroke-linecap="round" stroke-linejoin="round"/>
<path d="M161.296 72.5554C161.341 72.7982 161.31 73.0483 161.206 73.274C161.102 73.4998 160.93 73.6911 160.712 73.8237C160.493 73.9563 160.239 74.0243 159.98 74.019C159.721 74.0137 159.469 73.9354 159.257 73.794C159.045 73.6525 158.882 73.4544 158.788 73.2245C158.695 72.9947 158.675 72.7436 158.731 72.5029C158.787 72.2623 158.917 72.0429 159.104 71.8726C159.292 71.7023 159.528 71.5888 159.783 71.5464C160.124 71.4896 160.475 71.564 160.758 71.7531C161.042 71.9423 161.235 72.2308 161.296 72.5554Z" fill="#9E9E9E"/>
<path opacity="0.7" d="M161.296 72.5554C161.341 72.7982 161.31 73.0483 161.206 73.274C161.102 73.4998 160.93 73.6911 160.712 73.8237C160.493 73.9563 160.239 74.0243 159.98 74.019C159.721 74.0137 159.469 73.9354 159.257 73.794C159.045 73.6525 158.882 73.4544 158.788 73.2245C158.695 72.9947 158.675 72.7436 158.731 72.5029C158.787 72.2623 158.917 72.0429 159.104 71.8726C159.292 71.7023 159.528 71.5888 159.783 71.5464C160.124 71.4896 160.475 71.564 160.758 71.7531C161.042 71.9423 161.235 72.2308 161.296 72.5554Z" fill="white"/>
<path d="M161.296 72.5554C161.341 72.7982 161.31 73.0483 161.206 73.274C161.102 73.4998 160.93 73.6911 160.712 73.8237C160.493 73.9563 160.239 74.0243 159.98 74.019C159.721 74.0137 159.469 73.9354 159.257 73.794C159.045 73.6525 158.882 73.4544 158.788 73.2245C158.695 72.9947 158.675 72.7436 158.731 72.5029C158.787 72.2623 158.917 72.0429 159.104 71.8726C159.292 71.7023 159.528 71.5888 159.783 71.5464C160.124 71.4896 160.475 71.564 160.758 71.7531C161.042 71.9423 161.235 72.2308 161.296 72.5554V72.5554Z" stroke="#212121" stroke-width="0.75" stroke-linecap="round" stroke-linejoin="round"/>
<path d="M148.218 80.5117C148.305 80.429 148.414 80.3717 148.534 80.3465C148.654 80.3213 148.779 80.3292 148.895 80.3694C149.01 80.4095 149.111 80.4801 149.186 80.573C149.261 80.6659 149.306 80.7772 149.317 80.8937C149.626 81.882 150.965 82.3762 150.599 82.5879C150.232 82.7997 149.391 83.215 148.697 82.1062C148.697 82.1062 148.44 82.0813 148.457 82.5589C148.479 83.1402 148.457 83.8669 148.156 84.2406" fill="#9E9E9E"/>
<path d="M148.218 80.5117C148.305 80.429 148.414 80.3717 148.534 80.3465C148.654 80.3213 148.779 80.3292 148.895 80.3694C149.01 80.4095 149.111 80.4801 149.186 80.573C149.261 80.6659 149.306 80.7772 149.317 80.8937C149.626 81.882 150.965 82.3762 150.599 82.5879C150.232 82.7997 149.391 83.215 148.697 82.1062C148.697 82.1062 148.44 82.0813 148.457 82.5589C148.479 83.1402 148.457 83.8669 148.156 84.2406" stroke="#212121" stroke-linecap="round" stroke-linejoin="round"/>
<path d="M100.029 181.655C98.8901 183.047 98.0889 184.662 97.6832 186.384C97.6424 186.555 97.638 186.731 97.6702 186.903C97.7024 187.075 97.7705 187.239 97.8706 187.385C97.9706 187.532 98.1006 187.658 98.2527 187.755C98.4048 187.853 98.5759 187.92 98.756 187.954L107.609 189.673C109.554 190.055 112.532 189.976 114.037 189.906C114.21 189.9 114.38 189.858 114.536 189.785C114.691 189.711 114.829 189.607 114.938 189.479C115.048 189.351 115.128 189.202 115.173 189.042C115.217 188.882 115.225 188.715 115.197 188.552C115.114 188.232 114.957 187.935 114.735 187.682C114.514 187.43 114.234 187.229 113.919 187.094C111.826 185.99 106.85 185.246 104.8 182.253L100.029 181.655Z" fill="#212121" stroke="#212121" stroke-linecap="round" stroke-linejoin="round"/>
<path d="M126.426 129.794C126.426 129.794 121.768 142.114 115.807 153.903C115.807 153.903 114.651 159.086 112.048 162.624L105.507 182.51C105.507 182.51 102.637 183.635 99.2356 181.68C99.2356 181.68 100.858 168.956 105.005 159.725L107.452 152.413L110.504 137.688C110.504 137.688 107.918 133.427 108.607 127.174L120.09 127.024L126.426 129.794Z" fill="#B75400"/>
<path opacity="0.2" d="M111.682 127.867C110.91 128.282 110.177 128.751 109.392 129.142C108.984 129.328 108.589 129.541 108.21 129.777C108.237 129.777 108.184 129.815 108.132 129.86C108.14 129.928 108.14 129.996 108.132 130.064C108.11 130.189 108.072 130.312 108.019 130.429C108.222 130.618 108.378 130.847 108.475 131.101C108.572 131.355 108.609 131.626 108.581 131.895C108.581 132.086 108.581 132.277 108.546 132.468L108.603 132.551C108.857 133.09 109.029 133.66 109.113 134.245C109.298 135.117 109.601 135.961 110.016 136.758C110.104 136.942 110.17 137.136 110.212 137.335L110.504 137.688C110.504 137.688 113.33 155.693 115.436 155.29C117.543 154.887 118.925 145.295 118.925 145.295L111.682 127.867Z" fill="#9E9E9E"/>
<path d="M126.426 129.794C126.426 129.794 121.768 142.114 115.807 153.903C115.807 153.903 114.651 159.086 112.048 162.624L105.507 182.51C105.507 182.51 102.637 183.635 99.2356 181.68C99.2356 181.68 100.858 168.956 105.005 159.725L107.452 152.413L110.504 137.688C110.504 137.688 107.918 133.427 108.607 127.174L120.09 127.024L126.426 129.794Z" stroke="#212121" stroke-linecap="round" stroke-linejoin="round"/>
<path d="M119.819 183.631C119.819 183.631 118.424 185.404 118.35 188.568C118.348 188.752 118.384 188.934 118.457 189.104C118.53 189.274 118.637 189.429 118.773 189.559C118.909 189.689 119.071 189.792 119.249 189.862C119.427 189.933 119.618 189.968 119.811 189.968H129.405C131.511 189.968 134.585 189.283 136.134 188.905C136.314 188.862 136.483 188.783 136.628 188.673C136.774 188.564 136.894 188.426 136.979 188.269C137.065 188.111 137.114 187.939 137.124 187.762C137.133 187.585 137.104 187.409 137.036 187.244C136.876 186.931 136.645 186.657 136.359 186.442C136.073 186.226 135.739 186.074 135.383 185.998C132.959 185.28 127.625 185.516 124.826 182.821L119.819 183.631Z" fill="#212121" stroke="#212121" stroke-linecap="round" stroke-linejoin="round"/>
<path d="M125.597 125.998C125.597 125.998 127.521 139.249 125.597 152.217C125.597 152.217 125.715 157.616 124.355 161.727L125.44 183.017C125.44 183.017 123.107 184.744 119.248 183.88C119.248 183.88 115.275 170.48 116.195 160.863L115.759 153.189L112.667 137.293C112.667 137.293 109.122 134.802 107.787 128.648L118.69 125.189L125.597 125.998Z" fill="#B75400" stroke="#212121" stroke-linecap="round" stroke-linejoin="round"/>
<path d="M112.781 87.4838C112.781 87.4838 108.014 90.9429 107.33 99.5884C106.645 108.234 105.175 126.281 108.128 131.035C108.128 131.035 110.962 126.181 126.286 128.129C126.286 128.129 127.874 120.887 125.488 106.731C123.103 92.5748 120.382 88.9995 112.781 87.4838Z" fill="#212121" stroke="#212121" stroke-linecap="round" stroke-linejoin="round"/>
<path d="M112.781 87.9157L113.217 85.2166C115.505 85.3294 117.694 86.1436 119.457 87.5378C121.485 89.1656 122.126 90.7269 120.648 92.5624L112.781 88.2396V87.9157Z" fill="#212121" stroke="#212121" stroke-linecap="round" stroke-linejoin="round"/>
<path d="M120.543 91.5491C118.882 89.5019 116.758 88.4098 113.88 87.7163" stroke="#9E9E9E" stroke-width="0.75" stroke-linecap="round" stroke-linejoin="round"/>
<path d="M124.224 100.161C123.417 96.9142 122.51 94.5057 121.367 92.6869" stroke="#9E9E9E" stroke-width="0.75" stroke-linecap="round" stroke-linejoin="round"/>
<path d="M137.267 118.614L115.628 118.643L115.65 133.953L137.289 133.924L137.267 118.614Z" fill="#9E9E9E" stroke="#212121" stroke-width="0.75" stroke-linecap="round" stroke-linejoin="round"/>
<path d="M119.297 119.626L117.029 119.629L117.031 121.232L119.299 121.229L119.297 119.626Z" fill="#212121" stroke="#212121" stroke-linecap="round" stroke-linejoin="round"/>
<path d="M119.156 130.62L124.276 123.154L129.413 130.604L119.156 130.62Z" fill="#9E9E9E"/>
<path opacity="0.5" d="M119.156 130.62L124.276 123.154L129.413 130.604L119.156 130.62Z" fill="white"/>
<path d="M119.156 130.62L124.276 123.154L129.413 130.604L119.156 130.62Z" stroke="#212121" stroke-width="0.75" stroke-linecap="round" stroke-linejoin="round"/>
<path d="M125.933 130.612L129.841 124.91L133.765 130.599L125.933 130.612Z" fill="#9E9E9E" stroke="#212121" stroke-width="0.75" stroke-linecap="round" stroke-linejoin="round"/>
<path d="M129.374 123.146C129.374 123.392 129.297 123.633 129.154 123.838C129.01 124.043 128.805 124.202 128.566 124.297C128.327 124.391 128.064 124.416 127.81 124.367C127.557 124.319 127.324 124.201 127.141 124.027C126.958 123.852 126.833 123.63 126.783 123.389C126.732 123.147 126.758 122.897 126.857 122.669C126.956 122.441 127.124 122.247 127.339 122.11C127.554 121.973 127.807 121.9 128.066 121.9C128.413 121.9 128.745 122.031 128.991 122.265C129.236 122.498 129.374 122.815 129.374 123.146Z" fill="#9E9E9E"/>
<path opacity="0.7" d="M129.374 123.146C129.374 123.392 129.297 123.633 129.154 123.838C129.01 124.043 128.805 124.202 128.566 124.297C128.327 124.391 128.064 124.416 127.81 124.367C127.557 124.319 127.324 124.201 127.141 124.027C126.958 123.852 126.833 123.63 126.783 123.389C126.732 123.147 126.758 122.897 126.857 122.669C126.956 122.441 127.124 122.247 127.339 122.11C127.554 121.973 127.807 121.9 128.066 121.9C128.413 121.9 128.745 122.031 128.991 122.265C129.236 122.498 129.374 122.815 129.374 123.146Z" fill="white"/>
<path d="M129.374 123.146C129.374 123.392 129.297 123.633 129.154 123.838C129.01 124.043 128.805 124.202 128.566 124.297C128.327 124.391 128.064 124.416 127.81 124.367C127.557 124.319 127.324 124.201 127.141 124.027C126.958 123.852 126.833 123.63 126.783 123.389C126.732 123.147 126.758 122.897 126.857 122.669C126.956 122.441 127.124 122.247 127.339 122.11C127.554 121.973 127.807 121.9 128.066 121.9C128.413 121.9 128.745 122.031 128.991 122.265C129.236 122.498 129.374 122.815 129.374 123.146Z" stroke="#212121" stroke-width="0.75" stroke-linecap="round" stroke-linejoin="round"/>
<path d="M136.13 117.358L114.675 120.041L116.768 135.221L138.223 132.538L136.13 117.358Z" fill="white" stroke="#212121" stroke-width="0.75" stroke-linecap="round" stroke-linejoin="round"/>
<path d="M118.452 120.568L116.204 120.849L116.423 122.438L118.671 122.157L118.452 120.568Z" fill="#212121" stroke="#212121" stroke-linecap="round" stroke-linejoin="round"/>
<path d="M119.802 131.48L123.871 123.449L129.976 130.205L119.802 131.48Z" fill="#9E9E9E"/>
<path opacity="0.5" d="M119.802 131.48L123.871 123.449L129.976 130.205L119.802 131.48Z" fill="white"/>
<path d="M119.802 131.48L123.87 123.449L129.976 130.205L119.802 131.48Z" stroke="#212121" stroke-width="0.75" stroke-linecap="round" stroke-linejoin="round"/>
<path d="M126.522 130.637L129.627 124.508L134.289 129.665L126.522 130.637Z" fill="#9E9E9E" stroke="#212121" stroke-width="0.75" stroke-linecap="round" stroke-linejoin="round"/>
<path d="M128.925 122.813C128.959 123.058 128.916 123.306 128.802 123.527C128.687 123.748 128.507 123.932 128.283 124.055C128.059 124.179 127.802 124.236 127.544 124.22C127.285 124.204 127.038 124.116 126.833 123.966C126.627 123.816 126.473 123.612 126.39 123.379C126.306 123.146 126.297 122.894 126.364 122.656C126.43 122.418 126.57 122.204 126.764 122.041C126.958 121.879 127.199 121.775 127.455 121.742C127.626 121.72 127.799 121.731 127.965 121.773C128.131 121.815 128.287 121.888 128.423 121.988C128.56 122.087 128.674 122.211 128.76 122.353C128.846 122.495 128.902 122.651 128.925 122.813Z" fill="#9E9E9E"/>
<path opacity="0.7" d="M128.925 122.813C128.959 123.058 128.916 123.306 128.802 123.527C128.687 123.748 128.507 123.932 128.283 124.055C128.059 124.179 127.802 124.236 127.544 124.22C127.285 124.204 127.038 124.116 126.833 123.966C126.627 123.816 126.473 123.612 126.39 123.379C126.306 123.146 126.297 122.894 126.364 122.656C126.43 122.418 126.57 122.204 126.764 122.041C126.958 121.879 127.199 121.775 127.455 121.742C127.626 121.72 127.799 121.731 127.965 121.773C128.131 121.815 128.287 121.888 128.423 121.988C128.56 122.087 128.674 122.211 128.76 122.353C128.846 122.495 128.902 122.651 128.925 122.813Z" fill="white"/>
<path d="M128.925 122.813C128.959 123.058 128.916 123.306 128.802 123.527C128.687 123.748 128.507 123.932 128.283 124.055C128.059 124.179 127.802 124.236 127.544 124.22C127.285 124.204 127.038 124.116 126.833 123.966C126.627 123.816 126.473 123.612 126.39 123.379C126.306 123.146 126.297 122.894 126.364 122.656C126.43 122.418 126.57 122.204 126.764 122.041C126.958 121.879 127.199 121.775 127.455 121.742C127.626 121.72 127.799 121.731 127.965 121.773C128.131 121.815 128.287 121.888 128.423 121.988C128.56 122.087 128.674 122.211 128.76 122.353C128.846 122.495 128.902 122.651 128.925 122.813V122.813Z" stroke="#212121" stroke-width="0.75" stroke-linecap="round" stroke-linejoin="round"/>
<path d="M123.53 125.998L125.82 129.105L128.436 129.682C129.509 129.918 130.076 130.143 130.486 131.123C130.778 131.824 130.582 132.04 130.05 132.223C130.05 132.223 131.611 135.076 129.985 134.798C129.985 134.798 130.12 136.106 128.497 135.628C128.497 135.628 127.979 136.513 126.853 135.794C126.853 135.794 125.981 136.43 124.769 134.283L123.025 131.226L120.456 128.469L123.53 125.998Z" fill="white" stroke="#212121" stroke-linecap="round" stroke-linejoin="round"/>
<path d="M129.849 133.876C129.849 133.876 130.067 134.739 129.173 134.706C128.279 134.673 128.441 135.537 126.352 135.234" fill="#9E9E9E"/>
<path d="M129.849 133.876C129.849 133.876 130.067 134.739 129.173 134.706C128.279 134.673 128.441 135.537 126.352 135.234" stroke="#212121" stroke-linecap="round" stroke-linejoin="round"/>
<path d="M111.189 94.9375C111.189 94.9375 108.921 101.42 110.168 115.7C110.168 115.7 115.755 126.937 121.472 130.072L125.035 127.261L118.114 113.861C118.114 113.861 121.655 100.136 121.472 97.5453" fill="#212121"/>
<path d="M111.189 94.9375C111.189 94.9375 108.921 101.42 110.168 115.7C110.168 115.7 115.755 126.937 121.472 130.072L125.035 127.261L118.114 113.861C118.114 113.861 121.655 100.136 121.472 97.5453" stroke="#212121" stroke-linecap="round" stroke-linejoin="round"/>
<path d="M120.661 103.118C121.18 100.627 121.533 98.4257 121.494 97.5371" stroke="#9E9E9E" stroke-width="0.75" stroke-linecap="round" stroke-linejoin="round"/>
<path d="M118.511 114.571L118.14 113.852C118.14 113.852 119.449 108.774 120.434 104.21" stroke="#9E9E9E" stroke-width="0.75" stroke-linecap="round" stroke-linejoin="round"/>
<path d="M120.43 118.3L118.964 115.459" stroke="#9E9E9E" stroke-width="0.75" stroke-linecap="round" stroke-linejoin="round"/>
<path d="M110.068 114.16C110.103 114.662 110.142 115.169 110.19 115.692C111.55 118.342 113.099 120.901 114.826 123.349" stroke="#9E9E9E" stroke-width="0.75" stroke-linecap="round" stroke-linejoin="round"/>
<path d="M111.211 94.9375C111.211 94.9375 109.235 100.589 109.985 112.943" stroke="#9E9E9E" stroke-width="0.75" stroke-linecap="round" stroke-linejoin="round"/>
<path d="M256.246 71.5173C255.842 67.8624 254.963 64.2694 253.63 60.8204" stroke="#212121" stroke-linecap="round" stroke-linejoin="round"/>
<path d="M242.828 44.7419C242.849 44.7594 242.868 44.779 242.885 44.8004" stroke="#212121" stroke-linecap="round" stroke-linejoin="round"/>
<path d="M241.598 43.6457C241.402 43.4754 241.206 43.3135 241.009 43.1557C236.151 39.1817 232.357 38.2972 230.766 38.0979" stroke="#212121" stroke-linecap="round" stroke-linejoin="round"/>
<path d="M230.326 37.2472L229.347 37.7028L229.825 38.6356L230.805 38.1801L230.326 37.2472Z" stroke="#212121" stroke-linecap="round" stroke-linejoin="round"/>
<path d="M256.542 71.3823L255.562 71.8378L256.041 72.7707L257.021 72.3151L256.542 71.3823Z" stroke="#212121" stroke-linecap="round" stroke-linejoin="round"/>
<path d="M248.03 49.5963L248.61 50.1527C248.592 50.2227 248.552 50.2861 248.497 50.3354C248.447 50.3865 248.384 50.4238 248.314 50.4434L247.725 49.8786L242.575 44.9911L242.871 44.7004L248.03 49.5963Z" fill="#212121" stroke="#212121" stroke-linecap="round" stroke-linejoin="round"/>
<path d="M248.724 49.7083C248.805 49.7847 248.862 49.8811 248.889 49.9867C248.916 50.0923 248.912 50.2029 248.876 50.3063C248.851 50.4005 248.8 50.4866 248.728 50.5554C248.657 50.6194 248.572 50.6676 248.479 50.6966C248.369 50.7314 248.251 50.7366 248.138 50.7117C248.025 50.6868 247.921 50.6327 247.838 50.5554C247.756 50.4762 247.698 50.377 247.671 50.2686C247.644 50.1601 247.649 50.0468 247.686 49.9409C247.716 49.8515 247.768 49.7704 247.838 49.7042C247.909 49.6343 247.998 49.5841 248.096 49.5588C248.205 49.5262 248.321 49.5228 248.432 49.5492C248.543 49.5756 248.644 49.6307 248.724 49.7083Z" fill="#212121" stroke="#212121" stroke-linecap="round" stroke-linejoin="round"/>
<path d="M241.528 43.6457L236.474 38.8745" stroke="#212121" stroke-linecap="round" stroke-linejoin="round"/>
<path d="M236.57 38.347C236.61 38.4303 236.624 38.523 236.609 38.6137C236.594 38.7043 236.552 38.7888 236.487 38.8564C236.422 38.9241 236.337 38.9719 236.243 38.9938C236.15 39.0158 236.052 39.011 235.961 38.9799C235.87 38.9488 235.791 38.8929 235.734 38.8192C235.677 38.7455 235.644 38.6573 235.639 38.5657C235.634 38.4741 235.658 38.3832 235.707 38.3044C235.756 38.2256 235.829 38.1624 235.916 38.1228C235.974 38.0962 236.037 38.0809 236.102 38.0778C236.166 38.0747 236.231 38.0838 236.292 38.1047C236.353 38.1256 236.409 38.1577 236.456 38.1993C236.504 38.2409 236.543 38.2911 236.57 38.347V38.347Z" stroke="#212121" stroke-linecap="round" stroke-linejoin="round"/>
<path d="M242.893 43.6456L242.884 44.6838L242.828 44.7419L242.762 44.8083L242.531 45.0326L241.437 45.0243L241.441 43.6456H242.893Z" stroke="#212121" stroke-linecap="round" stroke-linejoin="round"/>
<path d="M242.884 44.6838V44.9288V45.0326H242.531L242.762 44.8084L242.828 44.7419L242.884 44.6838Z" stroke="#9E9E9E" stroke-miterlimit="10"/>
<path d="M252.758 47.3082L254.589 51.9009L250.333 55.9621L245.51 54.2346L242.099 45.4437L242.762 44.8084L242.828 44.742L243.512 44.09L252.758 47.3082Z" stroke="#212121" stroke-linecap="round" stroke-linejoin="round"/>
<path d="M260.267 54.8159L253.769 61.0156L250.333 55.9661L254.589 51.9008L260.267 54.8159Z" stroke="#212121" stroke-linecap="round" stroke-linejoin="round"/>
<path d="M252.452 55.5012L255.073 52.9972L257.515 54.2388" stroke="#212121" stroke-linecap="round" stroke-linejoin="round"/>
<path d="M251.637 56.2818L251.898 56.0285" stroke="#212121" stroke-linecap="round" stroke-linejoin="round"/>
<path d="M125.877 48.8447C125.56 48.0488 125.081 47.3209 124.466 46.7034C123.851 46.0859 123.113 45.5913 122.295 45.2484C121.477 44.9054 120.596 44.7211 119.702 44.7061C118.808 44.6911 117.921 44.8457 117.091 45.1609C116.261 45.4762 115.505 45.9457 114.867 46.5421C114.23 47.1385 113.723 47.8499 113.378 48.6347C113.032 49.4195 112.854 50.2619 112.854 51.1129C112.854 51.9639 113.033 52.8063 113.378 53.5911C114.377 55.9746 117.046 56.83 119.095 58.2377C119.732 58.6779 120.604 60.8787 120.604 60.8787L125.925 58.8689C125.925 58.8689 124.965 56.7013 125.113 55.9621C125.558 53.6035 126.875 51.2324 125.877 48.8447Z" stroke="#212121" stroke-linecap="round" stroke-linejoin="round"/>
<path d="M120.747 61.2146L126.05 59.2013L126.105 59.3324C126.177 59.5061 126.213 59.6918 126.21 59.8788C126.207 60.0658 126.165 60.2504 126.087 60.4218C126.009 60.5933 125.895 60.7483 125.754 60.8779C125.612 61.0075 125.445 61.1091 125.262 61.1768L122.722 62.1412C122.356 62.2803 121.947 62.2751 121.584 62.1268C121.222 61.9785 120.936 61.6992 120.79 61.3504L120.735 61.2192L120.747 61.2146Z" stroke="#212121" stroke-linecap="round" stroke-linejoin="round"/>
<path opacity="0.5" d="M120.747 61.2146L126.05 59.2013L126.105 59.3324C126.177 59.5061 126.213 59.6918 126.21 59.8788C126.207 60.0658 126.165 60.2504 126.087 60.4218C126.009 60.5933 125.895 60.7483 125.754 60.8779C125.612 61.0075 125.445 61.1091 125.262 61.1768L122.722 62.1412C122.356 62.2803 121.947 62.2751 121.584 62.1268C121.222 61.9785 120.936 61.6992 120.79 61.3504L120.735 61.2192L120.747 61.2146Z" stroke="#212121" stroke-linecap="round" stroke-linejoin="round"/>
<path d="M122.905 62.4697L125.384 61.5288L125.429 61.6368C125.548 61.9213 125.544 62.239 125.417 62.5203C125.289 62.8016 125.05 63.0233 124.752 63.1366L124.529 63.2212C124.23 63.3345 123.896 63.3302 123.601 63.2093C123.306 63.0883 123.073 62.8606 122.954 62.5762L122.909 62.4682L122.905 62.4697Z" stroke="#212121" stroke-linecap="round" stroke-linejoin="round"/>
<path opacity="0.2" d="M122.905 62.4697L125.384 61.5288L125.429 61.6368C125.548 61.9213 125.544 62.239 125.417 62.5203C125.289 62.8016 125.05 63.0233 124.752 63.1366L124.529 63.2212C124.23 63.3345 123.896 63.3302 123.601 63.2093C123.306 63.0883 123.073 62.8606 122.954 62.5762L122.909 62.4682L122.905 62.4697Z" stroke="#212121" stroke-linecap="round" stroke-linejoin="round"/>
<path d="M115.947 37.6246L117.486 43.1059" stroke="#212121" stroke-linecap="round" stroke-linejoin="round"/>
<path d="M115.323 35.4113L115.637 36.5283" stroke="#212121" stroke-linecap="round" stroke-linejoin="round"/>
<path d="M109.27 53.6077L103.379 55.1109" stroke="#212121" stroke-linecap="round" stroke-linejoin="round"/>
<path d="M111.459 53.0511L110.461 53.3045" stroke="#212121" stroke-linecap="round" stroke-linejoin="round"/>
<path d="M134.097 47.2708L127.931 48.8446" stroke="#212121" stroke-linecap="round" stroke-linejoin="round"/>
<path d="M136.007 46.785L135.13 47.0092" stroke="#212121" stroke-linecap="round" stroke-linejoin="round"/>
<path d="M115.432 57.9802L111.25 64.8775" stroke="#212121" stroke-linecap="round" stroke-linejoin="round"/>
<path d="M128.14 37.0183L123.958 43.9156" stroke="#212121" stroke-linecap="round" stroke-linejoin="round"/>
<path d="M112.305 46.8888L105.066 42.9066" stroke="#212121" stroke-linecap="round" stroke-linejoin="round"/>
<path d="M128.179 55.6132L127.08 55.007" stroke="#212121" stroke-linecap="round" stroke-linejoin="round"/>
<path d="M134.324 58.9892L129.182 56.1655" stroke="#212121" stroke-linecap="round" stroke-linejoin="round"/>
</svg>
