<svg width="360" height="200" viewBox="0 0 360 201" fill="none" xmlns="http://www.w3.org/2000/svg">
<path d="M232.538 82.096C241.009 100.845 257.809 112.97 269.598 129.294C280.459 144.296 284.003 165.219 274.464 181.869C263.553 200.863 240.471 198.508 222.627 192.362C213.313 189.154 202.959 182.792 192.877 182.792C179.029 182.792 161.807 201.134 134.131 200.366C113.932 199.829 90.0117 195.189 82.1588 173.785C72.3277 146.947 98.4269 126.206 113.128 107.532C123.06 94.9147 129.391 79.9571 139.484 67.4498C146.132 59.2103 155.009 50.6344 165.643 48.5858C178.156 46.1707 190.668 46.231 202.748 50.7549C218.138 56.524 226.016 67.6556 232.538 82.096Z" fill="#9E9E9E"/>
<path d="M232.538 82.096C241.009 100.845 257.809 112.97 269.598 129.294C280.459 144.296 284.003 165.219 274.464 181.869C263.553 200.863 240.471 198.508 222.627 192.362C213.313 189.154 202.959 182.792 192.877 182.792C179.029 182.792 161.807 201.134 134.131 200.366C113.932 199.829 90.0117 195.189 82.1588 173.785C72.3277 146.947 98.4269 126.206 113.128 107.532C123.06 94.9147 129.391 79.9571 139.484 67.4498C146.132 59.2103 155.009 50.6344 165.643 48.5858C178.156 46.1707 190.668 46.231 202.748 50.7549C218.138 56.524 226.016 67.6556 232.538 82.096Z" fill="white"/>
<path d="M187.941 71.9988L190.954 70.613L190.311 66.9727L186.962 66.7116C186.536 65.5897 185.975 64.524 185.29 63.5383L187.018 60.6262L184.402 58.0102L181.459 59.7525C179.77 58.6063 177.86 57.8264 175.851 57.4629L175.048 54.1089H171.347L170.499 57.483C169.351 57.7019 168.233 58.0576 167.17 58.5424L164.503 56.2529L161.491 58.3767L162.741 61.6454C161.928 62.4792 161.213 63.4042 160.612 64.402L157.133 64.0455L155.867 67.52L158.749 69.4782C158.612 70.2894 158.543 71.1107 158.543 71.9335C158.543 72.2849 158.543 72.6314 158.584 72.9728L155.571 74.6649L156.53 78.2399L159.964 78.1947C160.47 79.2713 161.104 80.2829 161.852 81.2073L160.346 84.2852L163.183 86.6651L165.929 84.6969C166.971 85.2964 168.082 85.7652 169.238 86.0927L169.786 89.4066L173.471 89.7279L174.586 86.5898C175.795 86.4825 176.985 86.2244 178.13 85.8216L180.455 88.1865L183.659 86.3388L182.78 83.1504C183.707 82.361 184.533 81.4605 185.24 80.4692L188.499 81.0667L190.06 77.7127L187.505 75.6089C187.799 74.4282 187.946 73.2156 187.941 71.9988ZM182.469 71.9335C182.469 73.7607 181.927 75.5469 180.912 77.0662C179.896 78.5855 178.454 79.7696 176.765 80.4689C175.077 81.1681 173.22 81.3511 171.428 80.9946C169.635 80.6381 167.989 79.7582 166.697 78.4662C165.405 77.1741 164.525 75.528 164.169 73.7358C163.812 71.9437 163.995 70.0861 164.695 68.398C165.394 66.7099 166.578 65.267 168.097 64.2518C169.616 63.2367 171.403 62.6948 173.23 62.6948C175.68 62.6948 178.03 63.6682 179.763 65.4008C181.495 67.1333 182.469 69.4832 182.469 71.9335Z" fill="#212121"/>
<path d="M187.941 70.131L190.954 68.7502L190.311 65.1049L186.962 64.8438C186.538 63.7229 185.976 62.6588 185.29 61.6756L187.018 58.7584L184.402 56.1424L181.459 57.8897C179.771 56.7418 177.86 55.9617 175.851 55.6001L175.048 52.2411H171.347L170.499 55.6202C169.351 55.8375 168.233 56.1915 167.17 56.6746L164.503 54.3901L161.491 56.5089L162.741 59.7826C161.925 60.6144 161.211 61.5397 160.612 62.5392L157.133 62.1777L155.867 65.6572L158.749 67.6104C158.612 68.4216 158.543 69.2429 158.543 70.0657C158.543 70.4171 158.543 70.7636 158.584 71.11L155.571 72.8021L156.47 76.3771L159.904 76.3319C160.409 77.4087 161.043 78.4203 161.792 79.3445L160.286 82.4274L163.123 84.8023L165.869 82.8341C166.909 83.4373 168.021 83.9079 169.178 84.235L169.725 87.5438L173.411 87.8702L174.525 84.7321C175.734 84.6247 176.925 84.3667 178.07 83.9638L180.395 86.3237L183.598 84.476L182.72 81.2876C183.648 80.4994 184.474 79.5988 185.18 78.6064L188.439 79.2089L190 75.8549L187.444 73.7461C187.76 72.5665 187.927 71.352 187.941 70.131ZM182.469 70.0657C182.466 71.8923 181.921 73.677 180.904 75.1943C179.887 76.7116 178.443 77.8934 176.755 78.5903C175.067 79.2873 173.209 79.4681 171.418 79.1099C169.627 78.7517 167.982 77.8707 166.692 76.578C165.401 75.2854 164.523 73.6392 164.168 71.8475C163.812 70.0557 163.996 68.1989 164.696 66.5117C165.396 64.8244 166.58 63.3824 168.099 62.3679C169.618 61.3534 171.403 60.812 173.23 60.812C174.444 60.812 175.647 61.0514 176.769 61.5166C177.891 61.9819 178.91 62.6637 179.768 63.5232C180.626 64.3827 181.306 65.4029 181.77 66.5256C182.233 67.6482 182.471 68.8512 182.469 70.0657Z" fill="#9E9E9E" stroke="#212121" stroke-width="1.08337" stroke-linecap="round" stroke-linejoin="round"/>
<path d="M182.514 123.268L187.911 120.813L186.772 114.336L180.817 113.869C180.059 111.875 179.059 109.981 177.839 108.23L180.907 103.049L176.258 98.3992L171.031 101.482C168.027 99.4454 164.63 98.06 161.059 97.4151L159.553 91.4451H152.955L151.449 97.4703C149.409 97.8575 147.423 98.488 145.534 99.3482L140.834 95.2812L135.447 99.052L137.666 104.871C136.213 106.348 134.941 107.991 133.875 109.767L127.684 109.129L125.435 115.31L130.561 118.79C130.315 120.233 130.191 121.694 130.19 123.158C130.19 123.78 130.22 124.393 130.265 125.006L124.868 128.018L126.57 134.37L132.68 134.289C133.58 136.203 134.71 138.001 136.044 139.642L133.408 145.115L138.429 149.342L143.31 145.828C145.163 146.892 147.139 147.727 149.194 148.313L150.194 154.203L156.746 154.775L158.724 149.182C160.875 148.99 162.993 148.531 165.031 147.816L169.163 152.019L174.862 148.73L173.295 143.061C174.947 141.659 176.417 140.056 177.674 138.291L183.463 139.361L186.239 133.401L181.72 129.65C182.249 127.564 182.516 125.42 182.514 123.268ZM172.788 123.158C172.788 126.406 171.825 129.582 170.02 132.282C168.216 134.983 165.65 137.088 162.649 138.331C159.648 139.574 156.346 139.9 153.16 139.266C149.974 138.632 147.048 137.068 144.751 134.771C142.454 132.474 140.89 129.548 140.256 126.362C139.622 123.176 139.948 119.874 141.191 116.873C142.434 113.872 144.539 111.307 147.24 109.502C149.941 107.697 153.116 106.734 156.364 106.734C160.72 106.735 164.896 108.466 167.976 111.546C171.056 114.626 172.787 118.802 172.788 123.158Z" fill="#212121"/>
<path d="M182.514 120.743L187.911 118.282L186.772 111.805L180.817 111.343C180.059 109.349 179.059 107.455 177.839 105.705L180.907 100.523L176.258 95.8687L171.031 98.9716C168.027 96.9333 164.631 95.5463 161.059 94.8996L159.553 88.9346H152.955L151.449 94.9598C149.409 95.347 147.423 95.9775 145.534 96.8377L140.834 92.7707L135.447 96.5415L137.666 102.361C136.217 103.839 134.947 105.484 133.885 107.261L127.699 106.604L125.45 112.784L130.576 116.264C130.33 117.705 130.206 119.165 130.205 120.627C130.205 121.25 130.235 121.867 130.28 122.48L124.883 125.493L126.585 131.849L132.695 131.769C133.591 133.676 134.715 135.467 136.044 137.101L133.408 142.579L138.429 146.807L143.31 143.292C145.162 144.357 147.138 145.19 149.194 145.772L150.194 151.692L156.746 152.27L158.724 146.671C160.875 146.479 162.993 146.02 165.031 145.306L169.163 149.508L174.862 146.219L173.295 140.551C174.947 139.148 176.417 137.546 177.674 135.781L183.463 136.85L186.239 130.885L181.72 127.14C182.25 125.049 182.517 122.9 182.514 120.743ZM172.788 120.627C172.788 123.876 171.825 127.051 170.02 129.752C168.216 132.453 165.65 134.558 162.649 135.801C159.648 137.044 156.346 137.369 153.16 136.735C149.974 136.102 147.048 134.537 144.751 132.241C142.454 129.944 140.89 127.017 140.256 123.831C139.622 120.645 139.948 117.343 141.191 114.342C142.434 111.341 144.539 108.776 147.24 106.971C149.941 105.167 153.116 104.204 156.364 104.204C160.72 104.204 164.898 105.934 167.978 109.014C171.058 112.094 172.788 116.271 172.788 120.627Z" fill="#9E9E9E" stroke="#212121" stroke-width="1.08337" stroke-linecap="round" stroke-linejoin="round"/>
<path d="M242.033 137.588L247.43 135.128L246.286 128.651L240.321 128.189C239.562 126.203 238.566 124.316 237.353 122.57L240.421 117.384L235.772 112.734L230.55 115.837C227.545 113.799 224.146 112.412 220.573 111.765L219.067 105.8H212.489L210.983 111.825C208.943 112.212 206.957 112.842 205.068 113.703L200.363 109.631L194.976 113.407L197.195 119.226C195.749 120.706 194.481 122.351 193.419 124.127L187.224 123.489L184.974 129.67L190.111 133.114C189.869 134.556 189.746 136.016 189.744 137.478C189.744 138.1 189.774 138.718 189.814 139.325L184.422 142.338L186.094 148.68L192.199 148.599C193.098 150.505 194.225 152.296 195.553 153.932L192.917 159.41L197.938 163.637L202.824 160.122C204.673 161.201 206.65 162.044 208.708 162.633L209.713 168.523L216.24 169.095L218.213 163.522C220.364 163.328 222.482 162.87 224.52 162.156L228.657 166.354L234.351 163.065L232.789 157.401C234.439 155.997 235.91 154.395 237.167 152.631L242.977 153.701L245.758 147.741L241.24 143.99C241.766 141.897 242.032 139.747 242.033 137.588ZM232.287 137.473C232.29 140.722 231.329 143.9 229.525 146.603C227.722 149.306 225.157 151.413 222.155 152.658C219.154 153.903 215.85 154.23 212.663 153.597C209.476 152.963 206.548 151.399 204.25 149.101C201.952 146.803 200.388 143.875 199.754 140.688C199.121 137.501 199.448 134.197 200.693 131.196C201.938 128.194 204.045 125.629 206.748 123.826C209.451 122.022 212.629 121.061 215.878 121.064C220.229 121.067 224.402 122.796 227.478 125.873C230.555 128.95 232.284 133.122 232.287 137.473Z" fill="#212121"/>
<path d="M242.033 135.063L247.43 132.602L246.286 126.125L240.321 125.663C239.559 123.668 238.557 121.773 237.338 120.02L240.406 114.838L235.757 110.189L230.535 113.292C227.53 111.253 224.131 109.866 220.558 109.219L219.052 103.255H212.474L210.968 109.28C208.928 109.666 206.942 110.297 205.053 111.158L200.348 107.086L194.961 110.861L197.18 116.681C195.733 118.159 194.465 119.804 193.404 121.581L187.208 120.944L184.964 127.089L190.111 130.604C189.869 132.048 189.746 133.509 189.744 134.972C189.744 135.595 189.774 136.207 189.814 136.82L184.422 139.833L186.094 146.169L192.199 146.094C193.099 147.999 194.226 149.79 195.553 151.426L192.917 156.904L197.938 161.132L202.824 157.617C204.677 158.682 206.653 159.517 208.708 160.102L209.713 165.992L216.24 166.564L218.228 160.991C220.379 160.8 222.498 160.341 224.535 159.625L228.672 163.828L234.366 160.539L232.804 154.876C234.453 153.47 235.924 151.869 237.183 150.106L242.977 151.19L245.758 145.23L241.24 141.479C241.767 139.381 242.033 137.226 242.033 135.063ZM232.287 134.947C232.287 138.195 231.324 141.371 229.519 144.072C227.715 146.773 225.149 148.878 222.148 150.121C219.147 151.364 215.845 151.689 212.659 151.055C209.473 150.422 206.547 148.857 204.25 146.56C201.953 144.264 200.389 141.337 199.755 138.151C199.121 134.965 199.447 131.663 200.69 128.662C201.933 125.661 204.038 123.096 206.739 121.291C209.44 119.487 212.615 118.523 215.863 118.523C218.02 118.523 220.156 118.947 222.149 119.772C224.142 120.597 225.953 121.807 227.478 123.332C229.003 124.858 230.213 126.668 231.038 128.661C231.863 130.654 232.288 132.79 232.287 134.947Z" fill="#9E9E9E" stroke="#212121" stroke-width="1.08337" stroke-linecap="round" stroke-linejoin="round"/>
<path d="M234.928 150.623C234.989 151.049 234.893 151.483 234.657 151.843C234.25 152.656 233.572 152.927 233.979 153.349C234.39 153.683 234.847 153.957 235.335 154.163C235.335 154.163 235.606 156.874 236.841 158.094C238.076 159.314 240.908 157.823 240.908 157.823L242.264 160.263L245.517 158.365C245.517 158.365 244.704 157.552 243.755 154.705C242.806 151.858 241.315 149.824 238.468 149.553C235.621 149.282 234.928 150.623 234.928 150.623Z" fill="white" stroke="#212121" stroke-miterlimit="10"/>
<path d="M227.196 163.637L226.382 161.468C225.976 160.384 225.027 159.962 223.942 159.962C222.858 159.962 222.315 158.877 221.773 159.013C221.231 159.149 222.044 159.962 222.451 160.369C222.734 160.638 223.053 160.866 223.4 161.046C222.257 160.958 221.124 160.777 220.011 160.504C218.504 160.097 218.791 160.64 219.875 161.589C220.96 162.538 222.586 163.487 223.129 163.487C223.772 163.564 224.408 163.7 225.027 163.893L225.76 165.249L227.196 163.637Z" fill="white" stroke="#212121" stroke-miterlimit="10"/>
<path d="M241.963 145.938L239.703 145.436C238.568 145.19 238.031 144.306 237.88 143.232C237.73 142.157 236.575 141.776 236.63 141.223C236.685 140.671 237.634 141.354 238.071 141.726C238.376 141.969 238.646 142.253 238.875 142.569C238.63 141.451 238.294 140.354 237.87 139.29C237.253 137.869 237.83 138.065 238.925 139.004C240.019 139.943 241.184 141.419 241.265 141.952C241.369 142.374 241.564 142.768 241.837 143.106L242.741 144.236L241.963 145.938Z" fill="white" stroke="#212121" stroke-miterlimit="10"/>
<path d="M225.84 175.432L225.027 163.908C225.346 163.706 225.706 163.576 226.081 163.529C226.456 163.482 226.837 163.519 227.196 163.637L230.71 173.534C230.71 173.534 228.009 177.33 225.84 175.432Z" fill="#B75400" stroke="#212121" stroke-miterlimit="10"/>
<path d="M236.013 184.786C236.013 184.786 230.992 183.023 230.585 185.057C230.178 187.09 236.555 189.536 238.724 189.4C240.893 189.264 238.86 185.875 236.013 184.786Z" fill="white" stroke="#212121" stroke-miterlimit="10"/>
<path d="M244.84 180.719C244.84 180.719 236.841 175.698 234.672 174.618C232.503 173.539 230.058 173.805 229.109 175.974C228.16 178.143 237.644 186.96 239.824 189.942C242.003 192.925 247.28 193.738 249.991 193.738C252.702 193.738 257.447 190.756 257.99 188.18C258.532 185.604 258.261 176.923 257.583 174.623C256.905 172.324 255.278 170.827 253.38 172.996C251.482 175.166 246.722 180.854 244.84 180.719Z" fill="#212121"/>
<path d="M244.307 180.95C244.307 180.95 241.737 187.181 242.033 189.259" stroke="white" stroke-width="0.5" stroke-miterlimit="10"/>
<path d="M255.585 180.061C255.585 180.061 257.759 182.632 257.854 185.203" stroke="white" stroke-width="0.5" stroke-miterlimit="10"/>
<path d="M245.638 157.672C245.638 157.672 242.655 159.299 241.435 160.655C240.215 162.01 227.879 172.991 226.653 173.669C225.428 174.347 225.298 177.058 227.467 177.33C229.636 177.601 240.215 171.907 240.215 171.907C240.215 171.907 239.266 174.347 240.215 175.161C241.164 175.974 243.604 176.667 243.876 177.736C244.147 178.806 243.74 180.99 245.096 182.074C246.451 183.159 250.654 183.581 253.23 181.532C255.805 179.484 255.67 174.618 255.128 171.365C254.585 168.111 255.534 156.181 254.856 153.47C254.179 150.758 241.978 144.251 241.978 144.251L241.435 146.285C241.435 146.285 249.569 152.25 249.705 152.812C249.84 153.374 245.638 157.672 245.638 157.672Z" fill="#B75400" stroke="#212121" stroke-miterlimit="10"/>
<path d="M240.215 171.907L245.146 170.285" stroke="#212121" stroke-miterlimit="10" stroke-linecap="round"/>
<path d="M240.752 171.576L245.146 172.996" stroke="#212121" stroke-miterlimit="10" stroke-linecap="round"/>
<path d="M239.266 144.116C238.573 143.608 237.73 143.346 236.871 143.371C236.012 143.395 235.185 143.705 234.521 144.251C231.946 146.149 233.572 148.996 234.25 149.809L234.928 150.623C234.928 150.623 236.962 154.283 238.995 155.774C241.029 157.266 245.638 157.672 245.638 157.672C245.638 157.672 247.4 159.435 247.144 164.451C246.888 169.467 245.111 172.178 248.229 176.245C251.347 180.312 256.89 181.818 259.601 177.601C262.313 173.383 262.991 169.065 259.737 164.722C256.483 160.379 251.061 158.486 249.569 157.808C248.078 157.13 247.536 156.046 247.536 155.503C247.536 154.961 249.976 148.725 247.536 145.2C245.096 141.675 241.435 142.89 239.266 144.116Z" fill="#212121"/>
<path d="M238.674 144.758C238.674 144.758 236.695 144.065 236.299 146.832C235.902 149.599 237.639 154.389 241.641 156.03" stroke="white" stroke-width="0.5" stroke-miterlimit="10" stroke-linecap="round"/>
<path d="M237.78 148.911C238.588 150.913 239.794 152.731 241.325 154.253C242.896 155.703 244.855 156.664 246.963 157.02" stroke="white" stroke-width="0.5" stroke-miterlimit="10" stroke-linecap="round"/>
<path d="M248.068 159.098C248.068 159.098 251.723 163.15 250.343 168.493C248.962 173.835 252.12 179.268 256.177 178.876C260.234 178.484 260.229 172.851 260.229 172.851" stroke="white" stroke-width="0.5" stroke-miterlimit="10" stroke-linecap="round"/>
<path d="M247.375 158.305C247.375 158.305 249.549 158.405 252.813 162.854C256.077 167.303 254.098 171.259 254.495 174.623C254.892 177.987 257.759 177.39 258.452 176.004" stroke="white" stroke-width="0.5" stroke-miterlimit="10" stroke-linecap="round"/>
<path d="M235.726 73.7612C233.07 70.5025 228.481 69.8649 225.072 67.5452C222.79 65.9866 220.61 64.2844 218.545 62.4488H218.389C217.329 61.3147 215.91 60.582 214.372 60.3752C210.857 60.0789 207.398 61.2187 207.704 65.1953C207.503 65.3259 207.308 65.4614 207.107 65.6171C206.778 65.6622 206.457 65.7517 206.153 65.8832C203.697 66.9175 203.507 72.0088 205.339 74.3386C206.313 75.5738 208.221 76.6181 209.974 77.2006V77.2558C209.974 77.2558 210.124 77.7579 215.221 78.26C220.317 78.7621 221.808 80.7705 221.577 83.2157C221.49 84.1275 221.598 85.0475 221.896 85.9136C222.194 86.7797 222.674 87.5719 223.304 88.2367C223.922 89.1054 224.926 89.7882 226.538 90.1849C235.862 92.4444 241.325 80.6148 235.726 73.7612Z" fill="#212121"/>
<path d="M209.883 66.787C212.292 69.4036 215.357 71.3279 218.76 72.3603C224.153 73.8666 230.063 72.049 233.582 74.5545C237.102 77.06 237.152 79.6408 236.821 81.0818" stroke="white" stroke-width="0.5" stroke-miterlimit="10" stroke-linecap="round"/>
<path d="M208.964 65.0999C210.493 64.3865 212.218 64.2096 213.86 64.5978C216.566 65.2506 218.414 68.69 223.179 70.6231C227.944 72.5562 230.545 71.1252 232.895 72.4356" stroke="white" stroke-width="0.5" stroke-miterlimit="10" stroke-linecap="round"/>
<path d="M208.934 67.4698C208.225 67.9713 207.646 68.6355 207.245 69.4069C206.845 70.1783 206.636 71.0344 206.635 71.9033C206.635 74.8708 208.889 75.2825 208.889 75.2825" stroke="white" stroke-width="0.5" stroke-miterlimit="10" stroke-linecap="round"/>
<path d="M208.186 67.0079C208.186 67.0079 204.425 69.1218 204.702 71.4214C204.753 72.0574 204.974 72.668 205.341 73.1898C205.709 73.7116 206.209 74.1256 206.79 74.3888" stroke="white" stroke-width="0.5" stroke-miterlimit="10" stroke-linecap="round"/>
<path d="M211.199 85.6911C211.199 85.6911 208.036 88.4627 207.252 91.8519C206.469 95.2411 205.746 107.593 206.926 108.717C208.106 109.842 209.467 109.305 210.3 108.361C211.134 107.417 215.291 94.1967 215.291 94.1967L216.481 94.503C216.481 94.503 221.241 105.198 221.743 106.423C222.245 107.648 224.198 109.631 226.146 108.517C228.095 107.402 226.648 98.9767 225.644 95.8536C224.64 92.7305 222.004 84.9932 219.915 84.1697C217.827 83.3463 212.228 84.0542 211.199 85.6911Z" fill="#212121"/>
<path d="M210.697 86.9212C210.697 86.9212 213.252 90.7673 216.416 90.1146C219.579 89.4619 220.473 85.7312 220.347 84.9329C220.222 84.1346 210.697 86.9212 210.697 86.9212Z" fill="#B75400" stroke="#212121" stroke-miterlimit="10"/>
<path d="M213.207 73.6155C213.207 73.6155 206.067 76.0256 204.722 77.8683C203.376 79.711 201.473 92.7406 201.207 93.2678C200.941 93.795 197.19 106.458 197.19 106.458L199.289 106.297C199.289 106.297 205.505 93.7448 205.751 93.2125C205.997 92.6803 207.865 84.722 207.865 84.722C207.865 84.722 208.713 87.0417 210.064 87.3229C211.415 87.6041 215.085 87.0317 217.631 86.64C220.176 86.2484 220.98 86.1379 221.924 84.8325C222.868 83.527 222.732 81.604 222.732 81.604L226.899 90.5916L224.078 105.072L226.166 105.891C226.166 105.891 230.505 92.8108 230.65 91.6409C230.796 90.4711 227.688 81.9805 225.629 78.2148C223.571 74.449 223.119 74.5243 221.171 73.6959C219.222 72.8674 213.207 73.6155 213.207 73.6155Z" fill="#B75400" stroke="#212121" stroke-miterlimit="10"/>
<path d="M212.655 77.2959C212.655 77.2959 213.062 80.9864 214.593 81.4031C216.124 81.8199 215.572 77.1704 215.572 77.1704L212.655 77.2959Z" fill="white" stroke="#212121" stroke-miterlimit="10"/>
<path d="M211.565 69.9954C211.024 71.0283 210.214 71.8958 209.221 72.5059C209.585 73.8588 210.194 75.1335 211.018 76.2667C213.267 79.1839 214.432 79.3295 215.587 78.3353C216.561 77.4918 217.385 74.911 217.385 72.6867C212.399 71.3009 211.565 69.9954 211.565 69.9954Z" fill="white" stroke="#212121" stroke-miterlimit="10"/>
<path d="M210.325 73.2992C210.492 73.1053 210.707 72.9596 210.949 72.8774C211.191 72.7953 211.451 72.7797 211.701 72.8323C212.615 72.993 212.76 74.193 212.986 74.9361C213.212 75.6792 213.303 77.1002 214.307 75.9001" stroke="#212121" stroke-width="0.5" stroke-linecap="round" stroke-linejoin="round"/>
<path d="M213.795 72.7319C213.795 72.7319 214.638 71.5168 216.024 72.7319" stroke="#212121" stroke-width="0.5" stroke-linecap="round" stroke-linejoin="round"/>
<path d="M213.378 77.1453C213.378 77.1453 214.382 77.6474 215.015 76.819" stroke="#212121" stroke-width="0.5" stroke-linecap="round" stroke-linejoin="round"/>
<path d="M211.144 74.0323C211.144 74.0323 211.646 74.5846 212.228 73.8666" stroke="#212121" stroke-width="0.5" stroke-linecap="round" stroke-linejoin="round"/>
<path d="M214.503 73.6708C214.603 73.7592 214.72 73.8266 214.846 73.8692C214.973 73.9118 215.107 73.9286 215.24 73.9188C215.374 73.909 215.504 73.8727 215.623 73.812C215.742 73.7513 215.847 73.6675 215.934 73.5654" stroke="#212121" stroke-width="0.5" stroke-linecap="round" stroke-linejoin="round"/>
<path d="M197.25 106.458C196.612 107.216 196.084 108.062 195.684 108.968C195.352 109.998 194.213 112.137 195.011 112.011C195.809 111.886 196.874 109.275 196.874 109.275C197.656 109.062 198.378 108.67 198.983 108.13C199.186 107.872 199.326 107.57 199.39 107.248C199.453 106.926 199.44 106.593 199.349 106.277L197.25 106.458Z" fill="white" stroke="#212121" stroke-miterlimit="10"/>
<path d="M224.138 105.072C224.138 105.072 222.632 106.779 222.521 107.281C222.411 107.784 222.33 110.249 222.33 110.249C222.33 110.249 222.561 110.701 223.124 110.123C223.281 109.996 223.408 109.836 223.495 109.653C223.582 109.471 223.626 109.271 223.626 109.069C223.626 109.069 223.42 110.897 223.676 111.509C223.932 112.122 225.248 111.102 225.624 110.394C226.001 109.687 226.237 105.876 226.237 105.876L224.138 105.072Z" fill="white" stroke="#212121" stroke-miterlimit="10"/>
<path d="M113.716 152.636C113.716 152.636 118.596 153.856 116.834 154.67C115.072 155.483 111.682 155.619 109.805 155.076C107.927 154.534 107.635 152.501 109.127 152.229C110.618 151.958 113.716 152.636 113.716 152.636Z" fill="white" stroke="#212121" stroke-linecap="round" stroke-linejoin="round"/>
<path d="M98.6679 168.362L93.5163 169.582L94.0586 172.565L95.2787 172.836C95.2787 172.836 94.872 176.35 95.4143 177.857C95.9566 179.363 96.3633 182.059 97.4227 181.653C98.4821 181.246 97.8294 175.552 98.2361 174.874C98.8572 174.058 99.5368 173.288 100.27 172.57L98.9139 168.909L98.6679 168.362Z" fill="white" stroke="#212121" stroke-linecap="round" stroke-linejoin="round"/>
<path d="M95.3791 169.266C95.3791 169.266 95.9967 179.639 97.4478 181.648" stroke="#212121" stroke-linecap="round" stroke-linejoin="round"/>
<path d="M108.293 153.585C108.293 153.585 117.918 156.025 122.392 158.194C126.866 160.364 129.311 163.617 126.6 166.057C123.888 168.498 112.225 170.938 108.835 171.887C105.446 172.836 99.7524 173.895 99.7524 173.895L98.3917 167.9L110.598 165.354L101.922 161.965C101.922 161.965 98.8035 160.881 100.295 157.627C101.786 154.373 108.293 153.585 108.293 153.585Z" fill="#212121"/>
<path d="M110.598 165.38C110.598 165.38 118.054 166.735 120.901 166.735" stroke="white" stroke-width="0.5" stroke-miterlimit="10" stroke-linecap="round"/>
<path d="M110.327 152.365L113.58 153.721C115.229 152.08 117.157 150.747 119.274 149.784C122.663 148.278 126.6 147.073 125.922 143.142C125.244 139.21 122.121 138.668 119.003 138.668H113.58L110.327 152.365Z" fill="#212121"/>
<path d="M124.416 118.348C124.416 118.348 127.197 118.97 127.428 118.654C127.659 118.338 130.441 117.218 130.988 116.957C131.535 116.696 131.847 116.078 131.249 115.953C130.652 115.827 127.955 116.651 127.955 116.651L129.683 114.215C129.683 114.215 132.314 112.83 131.862 112.307C131.41 111.785 130.13 112.307 129.452 112.307C128.774 112.307 126.384 112.493 125.525 113.372C124.667 114.251 122.724 116.515 122.724 116.515L124.416 118.348Z" fill="white" stroke="#212121" stroke-linecap="round" stroke-linejoin="round"/>
<path d="M119.073 124.252L125.244 118.92L123.06 117.318L113.741 121.25C110.919 122.018 107.676 123.017 106.802 123.76C105.175 125.116 105.175 129.454 105.175 129.861C105.175 130.268 102.745 134.194 99.3457 137.448C95.9465 140.701 90.5339 143.277 89.1782 144.477C87.8225 145.677 89.1782 154.65 93.1096 158.717C95.7224 161.317 98.7453 163.47 102.057 165.088C102.057 165.088 111.005 153.701 112.099 151.667C113.194 149.634 113.455 149.222 113.455 149.222C113.455 149.222 116.844 143.393 116.573 141.63C116.302 139.868 116.166 132.412 116.166 130.785C116.166 129.158 118.606 125.633 119.013 124.413C119.023 124.373 119.048 124.313 119.073 124.252Z" fill="#B75400" stroke="#212121" stroke-linecap="round" stroke-linejoin="round"/>
<path d="M105.175 129.856C105.175 129.856 108.273 125.704 110.894 124.333" stroke="#212121" stroke-miterlimit="10" stroke-linecap="round"/>
<path d="M127.955 121.993C128.177 123.017 128.223 124.071 128.091 125.111C127.82 126.331 129.176 126.873 128.498 127.416C127.82 127.958 127.142 128.636 127.142 128.636L125.636 131.618C125.229 132.432 124.129 133.516 123.191 133.381C122.252 133.245 120.072 131.618 119.259 131.618C118.446 131.618 116.412 132.703 116.412 132.703C116.412 132.703 116.141 128.636 116.141 127.145C116.141 125.653 117.903 125.247 117.903 125.247C117.903 125.247 119.124 122.671 120.75 121.451C122.377 120.231 126.6 120.095 127.955 121.993Z" fill="white" stroke="#212121" stroke-linecap="round" stroke-linejoin="round"/>
<path d="M120.359 129.72C120.359 129.72 121.172 130.669 121.714 130.669H122.257C122.43 131.275 122.657 131.865 122.934 132.432" stroke="#212121" stroke-linecap="round" stroke-linejoin="round"/>
<path d="M127.955 124.579C127.692 124.769 127.472 125.011 127.308 125.292C127.145 125.572 127.042 125.883 127.006 126.206" stroke="#212121" stroke-linecap="round" stroke-linejoin="round"/>
<path d="M120.359 129.72C120.359 129.72 118.325 128.907 116.844 125.924C115.363 122.942 114.539 119.146 118.2 116.299C121.86 113.452 125.119 114.944 126.735 115.486C128.352 116.028 130.938 117.384 129.989 120.231C129.04 123.078 124.702 123.349 124.837 124.027C124.973 124.704 126.344 126.035 125.515 126.331C124.687 126.627 123.883 127.145 123.883 127.551C123.883 127.958 123.753 129.058 123.341 129.058C122.929 129.058 121.714 126.346 120.765 127.16C119.816 127.973 120.359 129.72 120.359 129.72Z" fill="#212121"/>
<path d="M116.834 125.924L117.808 132.296L119.842 136.77H115.639C114.926 134.581 114.339 132.353 113.882 130.097C113.724 129.25 113.81 128.375 114.13 127.575C114.45 126.775 114.991 126.083 115.689 125.578L116.834 125.924Z" fill="white" stroke="#212121" stroke-linecap="round" stroke-linejoin="round"/>
<path d="M137.174 148.022C137.174 148.022 138.394 145.446 138.801 145.446C139.208 145.446 141.783 143.94 142.316 143.684C142.848 143.428 143.536 143.548 143.265 144.09C142.993 144.633 140.689 146.26 140.689 146.26L143.671 146.395C143.671 146.395 146.383 145.175 146.518 145.853C146.654 146.531 145.434 147.208 145.012 147.751C144.59 148.293 143.003 150.06 141.758 150.191C140.513 150.322 137.556 150.467 137.556 150.467L137.174 148.022Z" fill="white" stroke="#212121" stroke-linecap="round" stroke-linejoin="round"/>
<path d="M108.835 144.633C108.835 144.633 122.121 157.245 123.612 157.381C125.104 157.517 138.259 151.416 138.259 151.416L137.174 147.344L124.024 150.357C124.024 150.357 113.58 136.93 112.631 136.93C111.682 136.93 110.056 138.286 110.056 138.286" fill="#B75400"/>
<path d="M108.835 144.633C108.835 144.633 122.121 157.245 123.612 157.381C125.104 157.517 138.259 151.416 138.259 151.416L137.174 147.344L124.024 150.357C124.024 150.357 113.58 136.93 112.631 136.93C111.682 136.93 110.056 138.286 110.056 138.286" stroke="#212121" stroke-linecap="round" stroke-linejoin="round"/>
<path d="M108.971 156.161C108.971 156.161 100.973 161.182 99.0746 161.855C97.1767 162.528 96.2177 162.939 96.2177 162.939C96.2177 162.939 97.5081 164.561 98.2261 164.913C99.8981 165.751 102.057 165.108 102.057 165.108L108.971 156.161Z" fill="#B75400" stroke="#212121" stroke-linecap="round" stroke-linejoin="round"/>
</svg>
