<svg width="454" height="360" viewBox="0 0 454 360" fill="none" xmlns="http://www.w3.org/2000/svg">
<path d="M204.111 246.154C235.771 235.816 256.085 227.985 279.206 227.712C279.206 227.712 312.138 231.955 325.765 227.712C365.611 215.284 369.081 170.024 347.568 136.61C325.293 102.007 285.202 111.882 285.202 111.882C237.216 120.694 205.201 110.973 188.458 102.879C175.04 96.4103 158.823 98.8178 148.485 109.52C146.156 111.829 144.334 114.598 143.134 117.65C128.408 157.978 145.369 197.387 151.419 221.453C153.654 230.374 172.441 256.493 204.111 246.154Z" stroke="#212121" stroke-width="1.63776" stroke-linecap="round" stroke-linejoin="round" stroke-dasharray="0.45 0.45"/>
<path d="M218.774 79.3309C217.493 94.4298 216.148 109.738 216.484 124.827C217.275 161.384 220.945 197.823 223.271 234.299C224.661 256.039 228.958 279.014 224.579 300.617C220.482 320.867 204.356 337.583 183.234 339.082C159.986 340.736 143.188 319.032 145.723 297.202C147.622 280.849 157.452 265.741 158.033 249.261C158.805 227.076 132.877 229.938 116.025 215.648C96.193 198.859 76.6154 176.538 70.8556 150.519C69.1931 143.042 68.7661 135.075 71.537 127.889C84.083 95.4382 137.338 87.2892 158.033 114.871C179.355 143.306 170.951 184.66 205.846 188.539C240.741 192.418 274.99 177.555 308.595 169.152C342.199 160.749 379.674 181.435 373.86 225.368C368.045 269.302 313.764 268.067 288.563 237.651C263.362 207.235 274.99 145.241 280.159 120.648C283.003 107.167 290.307 95.0657 296.712 83.0375C301.754 73.553 308.113 63.6507 306.478 52.4491C301.654 19.4261 246.519 10.0869 229.757 38.5858C229.739 38.6221 221.227 50.3324 218.774 79.3309Z" stroke="#212121" stroke-width="1.63776" stroke-linecap="round" stroke-linejoin="round" stroke-dasharray="0.45 0.45"/>
<path d="M226.014 212.186C217.519 212.186 209.371 208.811 203.364 202.804C197.356 196.797 193.981 188.649 193.981 180.153C193.981 171.658 197.356 163.51 203.364 157.503C209.371 151.495 217.519 148.121 226.014 148.121C234.51 148.121 242.658 151.495 248.665 157.503C254.672 163.51 258.047 171.658 258.047 180.153C258.047 188.649 254.672 196.797 248.665 202.804C242.658 208.811 234.51 212.186 226.014 212.186Z" fill="white" stroke="#B75400" stroke-width="1.63776" stroke-miterlimit="10"/>
<path d="M238.569 153.898C241.573 155.332 244.308 157.271 246.655 159.631L238.569 153.898Z" fill="white"/>
<path d="M238.569 153.898C241.573 155.332 244.308 157.271 246.655 159.631" stroke="#212121" stroke-width="1.63776" stroke-linecap="round" stroke-linejoin="round"/>
<path d="M207.981 157.314C208.644 156.787 209.344 156.288 210.071 155.806C213.945 153.265 218.371 151.687 222.979 151.204C227.587 150.72 232.244 151.345 236.562 153.026" fill="white"/>
<path d="M207.981 157.314C208.644 156.787 209.344 156.288 210.071 155.806C213.945 153.265 218.371 151.687 222.979 151.204C227.587 150.72 232.244 151.345 236.562 153.026" stroke="#212121" stroke-width="1.63776" stroke-linecap="round" stroke-linejoin="round"/>
<path d="M222.471 209.034C218.274 208.519 214.24 207.094 210.65 204.86C207.06 202.626 204.001 199.635 201.685 196.097C198.413 191.109 196.755 185.235 196.935 179.272C197.116 173.309 199.126 167.546 202.694 162.765" fill="white"/>
<path d="M222.471 209.034C218.274 208.519 214.24 207.094 210.65 204.86C207.06 202.626 204.001 199.635 201.685 196.097V196.097C198.413 191.109 196.755 185.235 196.935 179.272C197.116 173.309 199.126 167.546 202.694 162.765" stroke="#212121" stroke-width="1.63776" stroke-linecap="round" stroke-linejoin="round"/>
<path d="M233.228 208.353C231.335 208.852 229.396 209.157 227.441 209.261L233.228 208.353Z" fill="white"/>
<path d="M233.228 208.353C231.335 208.852 229.396 209.157 227.441 209.261" stroke="#212121" stroke-width="1.63776" stroke-linecap="round" stroke-linejoin="round"/>
<path d="M246.655 159.631C248.035 161.021 249.276 162.542 250.361 164.173C252.459 167.369 253.906 170.948 254.619 174.704C255.332 178.46 255.298 182.319 254.517 186.062C253.736 189.804 252.225 193.356 250.07 196.514C247.915 199.672 245.158 202.373 241.958 204.464C239.857 205.838 237.588 206.937 235.208 207.735" fill="white"/>
<path d="M246.655 159.631C248.035 161.021 249.276 162.542 250.361 164.173C252.459 167.369 253.906 170.948 254.619 174.704C255.332 178.46 255.298 182.319 254.517 186.062C253.736 189.804 252.225 193.356 250.07 196.514C247.915 199.672 245.158 202.373 241.958 204.464C239.857 205.838 237.588 206.937 235.208 207.735" stroke="#212121" stroke-width="1.63776" stroke-linecap="round" stroke-linejoin="round"/>
<path d="M241.259 187.343L232.46 182.314C231.87 184.205 230.883 185.948 229.567 187.425L238.366 192.454C239.77 193.256 241.555 192.763 242.353 191.351C243.154 189.943 242.663 188.148 241.259 187.343Z" fill="#212121"/>
<path d="M231.426 175.489C229.715 169.225 223.276 165.543 217.045 167.267C210.814 168.987 207.152 175.461 208.863 181.724C210.575 187.988 217.013 191.666 223.244 189.946C229.475 188.222 233.137 181.749 231.426 175.489ZM222.778 188.233C217.497 189.694 212.018 186.562 210.568 181.253C209.117 175.943 212.229 170.435 217.514 168.977C222.796 167.515 228.275 170.647 229.725 175.961C231.175 181.274 228.06 186.775 222.778 188.233Z" fill="#212121"/>
<path d="M212.155 179.359L214.036 178.841C213.323 176.234 214.851 173.535 217.444 172.818L216.925 170.928C213.299 171.928 211.157 175.713 212.155 179.359Z" fill="#212121"/>
<path d="M358.743 212.186C350.247 212.186 342.099 208.811 336.092 202.804C330.085 196.797 326.71 188.649 326.71 180.153C326.71 171.658 330.085 163.51 336.092 157.503C342.099 151.495 350.247 148.121 358.743 148.121C367.238 148.121 375.386 151.495 381.393 157.503C387.401 163.51 390.775 171.658 390.775 180.153C390.775 188.649 387.401 196.797 381.393 202.804C375.386 208.811 367.238 212.186 358.743 212.186Z" fill="#B75400" stroke="#212121" stroke-width="1.63776" stroke-miterlimit="10"/>
<path d="M370.753 168.762H349.584C348.128 168.762 346.951 169.952 346.951 171.408L346.938 195.223L352.23 189.93H370.753C372.208 189.93 373.399 188.74 373.399 187.284V171.408C373.399 169.952 372.208 168.762 370.753 168.762ZM352.23 178.023H368.107V180.669H352.23V178.023ZM362.814 184.638H352.23V181.992H362.814V184.638ZM368.107 176.7H352.23V174.054H368.107V176.7Z" fill="white"/>
<path d="M343.507 204.927C340.672 203.184 338.158 200.965 336.076 198.368" stroke="white" stroke-width="1.63776" stroke-linecap="round" stroke-linejoin="round"/>
<path d="M374.287 204.773C373.56 205.227 372.815 205.681 372.043 206.054C367.922 208.168 363.355 209.267 358.723 209.259C354.092 209.251 349.529 208.137 345.415 206.008" stroke="white" stroke-width="1.63776" stroke-linecap="round" stroke-linejoin="round"/>
<path d="M365.384 151.818C369.502 152.773 373.362 154.617 376.694 157.22C380.026 159.824 382.748 163.124 384.67 166.89V166.89C387.394 172.196 388.418 178.212 387.606 184.122C386.793 190.031 384.183 195.547 380.128 199.922" stroke="white" stroke-width="1.63776" stroke-linecap="round" stroke-linejoin="round"/>
<path d="M354.591 151.345C356.527 151.065 358.488 150.982 360.441 151.1" stroke="white" stroke-width="1.63776" stroke-linecap="round" stroke-linejoin="round"/>
<path d="M336.076 198.368C334.848 196.832 333.777 195.176 332.878 193.426C331.132 190.026 330.074 186.315 329.764 182.506C329.454 178.696 329.898 174.863 331.071 171.225C332.244 167.588 334.122 164.217 336.599 161.306C339.076 158.395 342.103 156.002 345.506 154.262V154.262C347.74 153.117 350.113 152.265 352.565 151.727" stroke="white" stroke-width="1.63776" stroke-linecap="round" stroke-linejoin="round"/>
<path d="M226.014 329.226C217.518 329.226 209.371 325.851 203.363 319.843C197.356 313.836 193.981 305.688 193.981 297.193C193.981 288.696 197.356 280.548 203.363 274.539C209.37 268.53 217.518 265.153 226.014 265.151C234.511 265.153 242.658 268.53 248.665 274.539C254.672 280.548 258.047 288.696 258.047 297.193C258.047 305.688 254.672 313.836 248.665 319.843C242.657 325.851 234.51 329.226 226.014 329.226Z" fill="#B75400" stroke="#212121" stroke-width="1.63776" stroke-miterlimit="10"/>
<path d="M210.925 272.3C213.766 270.567 216.885 269.337 220.146 268.667" stroke="white" stroke-width="1.63776" stroke-linecap="round" stroke-linejoin="round"/>
<path d="M197.034 299.764C196.961 298.919 196.925 298.056 196.925 297.193C196.921 292.56 198.025 287.993 200.144 283.873C202.264 279.754 205.337 276.2 209.107 273.509" stroke="white" stroke-width="1.63776" stroke-linecap="round" stroke-linejoin="round"/>
<path d="M248.217 315.971C245.491 319.203 242.091 321.8 238.256 323.579C234.421 325.359 230.242 326.278 226.014 326.273C220.053 326.274 214.234 324.445 209.346 321.033C204.457 317.621 200.733 312.791 198.678 307.195" stroke="white" stroke-width="1.63776" stroke-linecap="round" stroke-linejoin="round"/>
<path d="M253.559 306.604C252.926 308.453 252.107 310.234 251.116 311.919" stroke="white" stroke-width="1.63776" stroke-linecap="round" stroke-linejoin="round"/>
<path d="M220.146 268.73C222.077 268.335 224.043 268.137 226.014 268.139V268.139C233.724 268.139 241.119 271.202 246.571 276.654C252.023 282.106 255.085 289.5 255.085 297.211C255.086 299.722 254.763 302.223 254.123 304.651" stroke="white" stroke-width="1.63776" stroke-linecap="round" stroke-linejoin="round"/>
<path d="M226.788 282.015C218.024 282.015 210.927 289.128 210.927 297.892C210.927 306.656 218.024 313.768 226.788 313.768C235.568 313.768 242.681 306.656 242.681 297.892C242.681 289.128 235.568 282.015 226.788 282.015ZM237.791 291.541H233.107C232.599 289.556 231.869 287.651 230.916 285.889C233.838 286.889 236.267 288.921 237.791 291.541ZM226.804 285.254C228.122 287.159 229.154 289.271 229.837 291.541H223.772C224.454 289.271 225.486 287.159 226.804 285.254ZM214.516 301.067C214.262 300.051 214.103 298.987 214.103 297.892C214.103 296.796 214.262 295.733 214.516 294.716H219.882C219.755 295.764 219.66 296.812 219.66 297.892C219.66 298.971 219.755 300.019 219.882 301.067H214.516ZM215.818 304.242H220.501C221.009 306.227 221.74 308.132 222.692 309.895C219.771 308.894 217.342 306.878 215.818 304.242ZM220.501 291.541H215.818C217.342 288.906 219.771 286.889 222.692 285.889C221.74 287.651 221.009 289.556 220.501 291.541ZM226.804 310.53C225.486 308.624 224.454 306.513 223.772 304.242H229.837C229.154 306.513 228.122 308.624 226.804 310.53ZM230.519 301.067H223.089C222.946 300.019 222.835 298.971 222.835 297.892C222.835 296.812 222.946 295.748 223.089 294.716H230.519C230.662 295.748 230.773 296.812 230.773 297.892C230.773 298.971 230.662 300.019 230.519 301.067ZM230.916 309.895C231.869 308.132 232.599 306.227 233.107 304.242H237.791C236.267 306.862 233.838 308.894 230.916 309.895ZM233.726 301.067C233.853 300.019 233.949 298.971 233.949 297.892C233.949 296.812 233.853 295.764 233.726 294.716H239.093C239.347 295.733 239.505 296.796 239.505 297.892C239.505 298.987 239.347 300.051 239.093 301.067H233.726Z" fill="white"/>
<path d="M95.2846 212.186C91.0757 212.19 86.9073 211.364 83.0178 209.756C79.1282 208.148 75.5937 205.789 72.6163 202.814C69.6389 199.839 67.277 196.306 65.6654 192.418C64.0539 188.53 63.2245 184.362 63.2245 180.153C63.2245 175.944 64.0539 171.777 65.6654 167.889C67.277 164 69.6389 160.468 72.6163 157.493C75.5937 154.518 79.1282 152.159 83.0178 150.551C86.9073 148.943 91.0757 148.117 95.2846 148.121C103.78 148.121 111.928 151.495 117.935 157.503C123.943 163.51 127.317 171.658 127.317 180.153C127.317 188.649 123.943 196.797 117.935 202.804C111.928 208.811 103.78 212.186 95.2846 212.186Z" fill="#B75400" stroke="#212121" stroke-width="1.63776" stroke-miterlimit="10"/>
<path d="M98.2032 188.343H82.3265V191.518H98.2032V188.343ZM107.729 175.641H82.3265V178.817H107.729V175.641ZM82.3265 185.167H107.729V181.992H82.3265V185.167ZM82.3265 169.291V172.466H107.729V169.291H82.3265Z" fill="white"/>
<path d="M80.1676 155.27C83.0082 153.535 86.128 152.305 89.3886 151.636" stroke="white" stroke-width="1.63776" stroke-linecap="round" stroke-linejoin="round"/>
<path d="M66.268 182.733C66.1953 181.879 66.1589 181.025 66.1589 180.153C66.1555 175.52 67.2594 170.954 69.3785 166.834C71.4977 162.714 74.5707 159.161 78.3416 156.469" stroke="white" stroke-width="1.63776" stroke-linecap="round" stroke-linejoin="round"/>
<path d="M117.46 198.959C114.733 202.182 111.337 204.772 107.507 206.55C103.677 208.327 99.5065 209.249 95.2845 209.252C89.3214 209.259 83.5003 207.433 78.6104 204.02C73.7204 200.607 69.9982 195.774 67.9484 190.174" stroke="white" stroke-width="1.63776" stroke-linecap="round" stroke-linejoin="round"/>
<path d="M122.793 189.565C122.165 191.419 121.346 193.203 120.35 194.889" stroke="white" stroke-width="1.63776" stroke-linecap="round" stroke-linejoin="round"/>
<path d="M89.3885 151.645C91.3197 151.25 93.2861 151.052 95.2573 151.055V151.055C102.967 151.055 110.362 154.118 115.814 159.569C121.266 165.021 124.329 172.416 124.329 180.126C124.33 182.637 124.007 185.138 123.366 187.566" stroke="white" stroke-width="1.63776" stroke-linecap="round" stroke-linejoin="round"/>
<path d="M226.014 87.716C217.519 87.716 209.371 84.3411 203.364 78.3338C197.356 72.3265 193.981 64.1788 193.981 55.6832C193.981 47.1875 197.356 39.0398 203.364 33.0325C209.371 27.0252 217.519 23.6503 226.014 23.6503C234.51 23.6503 242.658 27.0252 248.665 33.0325C254.672 39.0398 258.047 47.1875 258.047 55.6832C258.047 64.1788 254.672 72.3265 248.665 78.3338C242.658 84.3411 234.51 87.716 226.014 87.716Z" fill="#B75400" stroke="#212121" stroke-width="1.63776" stroke-miterlimit="10"/>
<path d="M229.98 39.1023H217.278C215.532 39.1023 214.119 40.5312 214.119 42.2777L214.103 67.6803C214.103 69.4268 215.516 70.8557 217.262 70.8557H236.33C238.077 70.8557 239.506 69.4268 239.506 67.6803V48.6283L229.98 39.1023ZM233.155 64.505H220.454V61.3297H233.155V64.505ZM233.155 58.1543H220.454V54.979H233.155V58.1543ZM228.392 50.216V41.4838L237.124 50.216H228.392Z" fill="white"/>
<path d="M210.925 30.7911C213.766 29.0572 216.886 27.8278 220.146 27.1572" stroke="white" stroke-width="1.63776" stroke-linecap="round" stroke-linejoin="round"/>
<path d="M197.034 58.2543C196.961 57.4094 196.925 56.5463 196.925 55.6833C196.922 51.0505 198.025 46.4839 200.145 42.3641C202.264 38.2444 205.337 34.6907 209.108 31.9993" stroke="white" stroke-width="1.63776" stroke-linecap="round" stroke-linejoin="round"/>
<path d="M248.218 74.4888C245.49 77.7183 242.089 80.3127 238.254 82.0906C234.419 83.8686 230.242 84.7871 226.014 84.7819V84.7819C220.053 84.7828 214.235 82.9538 209.346 79.542C204.457 76.1301 200.734 71.2999 198.678 65.7039" stroke="white" stroke-width="1.63776" stroke-linecap="round" stroke-linejoin="round"/>
<path d="M253.559 65.0949C252.924 66.9463 252.105 68.7297 251.116 70.4186" stroke="white" stroke-width="1.63776" stroke-linecap="round" stroke-linejoin="round"/>
<path d="M220.146 27.1752C222.077 26.7799 224.043 26.5821 226.014 26.5847V26.5847C233.725 26.5847 241.119 29.6476 246.571 35.0995C252.023 40.5514 255.086 47.9458 255.086 55.656C255.087 58.1672 254.763 60.6681 254.123 63.0964" stroke="white" stroke-width="1.63776" stroke-linecap="round" stroke-linejoin="round"/>
<path d="M292.597 274.145C313.635 274.145 330.689 257.091 330.689 236.053C330.689 215.015 313.635 197.96 292.597 197.96C271.559 197.96 254.505 215.015 254.505 236.053C254.505 257.091 271.559 274.145 292.597 274.145Z" fill="#BDBDBD" stroke="#212121" stroke-width="1.63776" stroke-miterlimit="10"/>
<path opacity="0.3" d="M292.597 274.145C313.635 274.145 330.689 257.091 330.689 236.053C330.689 215.015 313.635 197.96 292.597 197.96C271.559 197.96 254.505 215.015 254.505 236.053C254.505 257.091 271.559 274.145 292.597 274.145Z" fill="white" stroke="#212121" stroke-width="1.63776" stroke-miterlimit="10"/>
<path d="M292.597 197.959C292.597 197.959 273.328 195.87 270.257 205.4C267.187 214.93 280.142 213.24 278.098 217.664C276.053 222.089 267.532 227.848 270.939 234.353C274.346 240.858 280.478 247.98 273.664 245.6C266.851 243.22 265.152 242.529 266.514 250.024C267.877 257.519 275.027 259.563 286.61 258.537C298.193 257.51 297.166 262.97 303.635 263.651C310.103 264.333 316.581 260.581 316.581 251.042C316.581 241.503 308.749 243.556 315.899 238.786C323.049 234.017 321.695 221.752 319.651 218.01C317.607 214.267 313.519 215.965 313.519 211.196C313.519 206.426 303.689 197.324 292.597 197.959Z" fill="#212121" stroke="#212121" stroke-width="1.63776" stroke-miterlimit="10"/>
<path d="M281.995 202.411C281.995 202.411 274.863 201.457 275.099 205.972C275.336 210.487 287.709 219.29 299.365 219.536C311.021 219.781 312.202 213.821 310.539 212.631" stroke="white" stroke-width="1.63776" stroke-linecap="round" stroke-linejoin="round"/>
<path d="M289.371 206.19C289.371 206.19 283.666 206.899 284.375 210.732C285.083 214.566 288.654 216.438 294.132 218.582" stroke="white" stroke-width="1.63776" stroke-linecap="round" stroke-linejoin="round"/>
<path d="M317.907 229.493C317.907 229.493 317.434 235.443 310.067 239.25C302.699 243.056 296.058 248.743 302.417 251.614C308.777 254.485 312.411 257.792 310.03 258.509" stroke="white" stroke-width="1.63776" stroke-linecap="round" stroke-linejoin="round"/>
<path d="M281.522 247.09C281.522 247.09 278.67 253.749 274.391 252.541C270.112 251.333 268.677 247.998 271.538 247.998C274.4 247.998 274.627 249.425 274.627 249.425" stroke="white" stroke-width="1.63776" stroke-linecap="round" stroke-linejoin="round"/>
<path d="M304.234 219.836C304.234 219.836 310.076 219.745 309.122 225.45C308.168 231.155 302.699 231.637 301.273 235.916" stroke="white" stroke-width="1.63776" stroke-linecap="round" stroke-linejoin="round"/>
<path d="M292.597 274.181C301.147 274.191 309.449 271.309 316.154 266.004C313.483 264.033 308.722 260.554 305.951 258.737C301.945 256.066 296.603 247.753 289.472 249.234C283.748 250.433 268.431 257.029 262.599 259.591C266.162 264.141 270.716 267.82 275.914 270.348C281.111 272.876 286.817 274.187 292.597 274.181Z" fill="white" stroke="#212121" stroke-width="1.63776" stroke-miterlimit="10"/>
<path d="M288.308 247.98C288.308 247.98 277.752 251.042 276.389 259.899C275.027 268.757 285.074 262.371 285.074 262.371C285.074 262.371 290.353 270.12 295.122 267.74C299.892 265.359 300.573 257.174 297.847 251.723C295.122 246.272 288.308 247.98 288.308 247.98Z" fill="white" stroke="#212121" stroke-width="1.63776" stroke-miterlimit="10"/>
<path d="M288.027 241.475C288.083 244.378 287.687 247.271 286.855 250.051C285.52 254.167 281.168 259.836 285.038 262.38C288.908 264.923 293.869 256.829 295.159 250.033C296.449 243.238 297.384 235.116 297.384 235.116L288.027 241.475Z" fill="white"/>
<g style="mix-blend-mode:multiply" opacity="0.5">
<path d="M287.128 249.143C288.375 249.594 289.671 249.899 290.989 250.051C292.17 250.188 292.642 249.933 292.806 249.633C292.66 251.332 292.106 255.993 290.171 259.427C289.58 260.481 289.099 261.371 288.717 262.152C291.588 260.217 294.268 254.821 295.177 250.06C296.467 243.274 297.366 235.17 297.366 235.17L288.009 241.53C288.054 244.095 287.757 246.655 287.128 249.143Z" fill="white"/>
</g>
<path d="M288.027 241.475C288.083 244.378 287.687 247.271 286.855 250.051C285.52 254.167 281.168 259.836 285.038 262.38C288.908 264.923 293.869 256.829 295.159 250.033C296.449 243.238 297.384 235.116 297.384 235.116L288.027 241.475Z" stroke="#212121" stroke-width="1.63776" stroke-miterlimit="10"/>
<path d="M282.313 215.13C282.313 215.13 279.042 228.757 279.042 233.835C279.042 238.914 283.712 245.128 289.635 245.645C297.194 246.254 299.974 236.097 301.609 230.31C303.026 225.286 303.989 220.944 304.225 219.872C292.733 224.214 282.313 215.13 282.313 215.13Z" fill="white"/>
<g style="mix-blend-mode:multiply" opacity="0.5">
<path d="M304.234 219.836C303.091 220.272 301.907 220.592 300.7 220.79C300.164 224.251 298.52 232.763 294.75 237.996C291.552 242.439 288.127 244.047 286.183 244.628C287.265 245.168 288.439 245.5 289.644 245.609C297.203 246.218 299.982 236.061 301.618 230.274" fill="white"/>
</g>
<path d="M282.313 215.13C282.313 215.13 279.042 228.757 279.042 233.835C279.042 238.914 283.712 245.128 289.635 245.645C297.194 246.254 299.974 236.097 301.609 230.31C303.026 225.286 303.989 220.944 304.225 219.872C292.733 224.214 282.313 215.13 282.313 215.13Z" stroke="#212121" stroke-width="1.63776" stroke-miterlimit="10"/>
<path d="M288.545 224.778C288.129 226.26 287.476 227.665 286.61 228.939C285.429 230.419 282.903 229.084 283.648 229.974C284.06 230.496 284.575 230.926 285.162 231.239C285.748 231.552 286.393 231.74 287.055 231.791" stroke="#212121" stroke-width="1.63776" stroke-linecap="round" stroke-linejoin="round"/>
<path d="M282.831 234.607C282.831 234.607 285.056 237.878 289.653 236.242" stroke="#212121" stroke-width="1.63776" stroke-linecap="round" stroke-linejoin="round"/>
<path d="M286.383 223.724C286.247 224.532 285.774 225.132 285.329 225.05C284.884 224.968 284.63 224.26 284.766 223.451C284.902 222.643 285.374 222.052 285.82 222.125C286.265 222.197 286.519 222.915 286.383 223.724Z" fill="#212121"/>
<path d="M293.869 225.859C293.669 226.658 293.16 227.221 292.724 227.112C292.288 227.003 292.088 226.277 292.279 225.477C292.47 224.678 292.978 224.123 293.423 224.223C293.869 224.323 294.059 225.068 293.869 225.859Z" fill="#212121"/>
<path d="M283.339 219.726C283.339 219.726 284.529 216.91 288.091 218.545" stroke="#212121" stroke-width="1.63776" stroke-linecap="round" stroke-linejoin="round"/>
<path d="M292.233 220.935C292.233 220.935 295.504 219.899 296.394 223.161" stroke="#212121" stroke-width="1.63776" stroke-linecap="round" stroke-linejoin="round"/>
<path d="M159.995 274.144C181.033 274.144 198.088 257.09 198.088 236.052C198.088 215.014 181.033 197.959 159.995 197.959C138.957 197.959 121.903 215.014 121.903 236.052C121.903 257.09 138.957 274.144 159.995 274.144Z" fill="#BDBDBD" stroke="#212121" stroke-width="1.63776" stroke-miterlimit="10"/>
<path opacity="0.3" d="M159.995 274.144C181.033 274.144 198.088 257.09 198.088 236.052C198.088 215.014 181.033 197.959 159.995 197.959C138.957 197.959 121.903 215.014 121.903 236.052C121.903 257.09 138.957 274.144 159.995 274.144Z" fill="white" stroke="#212121" stroke-width="1.63776" stroke-miterlimit="10"/>
<path d="M136.166 265.732C143.636 271.749 153.103 274.724 162.673 274.06C172.242 273.397 181.208 269.144 187.776 262.152C183.488 256.629 174.703 247.162 164.928 247.162C154.081 247.162 141.199 260.108 136.166 265.732Z" fill="white" stroke="#212121" stroke-width="1.63776" stroke-miterlimit="10"/>
<path d="M155.78 244.346C155.78 244.346 149.321 245.082 148.767 250.069C148.212 255.057 152.083 263.36 152.455 264.278C152.827 265.196 161.131 256.901 164.265 256.901C167.399 256.901 175.521 261.325 175.521 261.325C175.521 261.325 172.941 250.987 168.326 247.108C163.711 243.229 157.061 242.865 155.78 244.346Z" fill="white" stroke="#212121" stroke-width="1.63776" stroke-miterlimit="10"/>
<path opacity="0.5" d="M147.286 226.031C147.286 226.031 144.515 223.26 143.043 225.477C141.571 227.694 142.852 230.274 144.86 231.936C146.868 233.599 150.029 233.753 150.029 232.491C150.029 231.228 147.286 226.031 147.286 226.031Z" fill="white" stroke="#212121" stroke-width="1.63776" stroke-miterlimit="10"/>
<path d="M147.286 226.031C147.286 226.031 144.515 223.26 143.043 225.477C141.571 227.694 142.852 230.274 144.86 231.936C146.868 233.599 150.029 233.753 150.029 232.491C150.029 231.228 147.286 226.031 147.286 226.031Z" stroke="#212121" stroke-width="1.63776" stroke-miterlimit="10"/>
<path d="M171.106 219.608C171.106 219.608 172.396 216.283 174.24 219.79C176.084 223.297 172.578 226.431 172.578 226.431L171.106 219.608Z" fill="white" stroke="#212121" stroke-width="1.63776" stroke-miterlimit="10"/>
<path d="M150.056 232.527C150.056 232.527 153.745 245.818 154.671 250.433C155.598 255.048 159.841 261.698 162.975 259.518C166.109 257.337 165.936 253.24 164.083 249.733C162.863 247.309 161.875 244.776 161.131 242.166L150.056 232.527Z" fill="white"/>
<g style="mix-blend-mode:multiply" opacity="0.5">
<path d="M164.083 249.697C162.863 247.273 161.875 244.739 161.131 242.129L150.056 232.527C150.056 232.527 153.082 243.429 154.335 248.879C155.936 250.13 157.757 251.07 159.704 251.65C161.387 252.11 163.183 251.905 164.719 251.078C164.536 250.605 164.324 250.143 164.083 249.697Z" fill="white"/>
</g>
<path d="M150.056 232.527C150.056 232.527 153.745 245.818 154.671 250.433C155.598 255.048 159.841 261.698 162.975 259.518C166.109 257.337 165.936 253.24 164.083 249.733C162.863 247.309 161.875 244.776 161.131 242.166L150.056 232.527Z" stroke="#212121" stroke-width="1.63776" stroke-miterlimit="10"/>
<path d="M143.434 218.682C143.434 218.682 152.11 239.577 155.807 244.346C159.505 249.116 169.434 249.515 173.713 242.529C177.992 235.543 173.159 226.104 172.423 221.852C171.688 217.601 169.698 210.596 170.943 209.306C172.187 208.016 177.402 207.09 175.376 203.765C173.35 200.44 170.388 202.102 170.025 199.704C169.662 197.305 171.497 191.391 164.665 190.474C157.833 189.556 145.832 197.669 141.045 203.946C136.257 210.224 134.731 215.911 143.434 218.682Z" fill="#212121" stroke="#212121" stroke-width="1.63776" stroke-miterlimit="10"/>
<path d="M146.159 212.404C146.159 212.404 140.472 211.977 143.325 206.508C146.177 201.039 165.21 193.671 165.446 197.714C165.682 201.757 161.403 202.947 161.403 202.947" stroke="white" stroke-width="1.63776" stroke-linecap="round" stroke-linejoin="round"/>
<path d="M153.809 207.226C153.809 207.226 149.53 206.272 150.956 203.183C152.382 200.094 162.848 198.641 160.949 200.567C159.823 201.695 158.542 202.656 157.143 203.419" stroke="white" stroke-width="1.63776" stroke-linecap="round" stroke-linejoin="round"/>
<path d="M167.59 231.237C167.59 231.237 164.456 236.215 159.468 233.817" stroke="white" stroke-width="1.63776" stroke-linecap="round" stroke-linejoin="round"/>
<path d="M172.396 221.816C171.705 217.846 169.879 211.441 170.706 209.579C170.152 208.243 168.244 205.127 162.612 204.837C155.407 204.464 147.658 208.525 146.177 212.404C144.696 216.283 148.212 214.221 149.502 217.019C150.792 219.817 147.467 223.115 148.212 225.141C148.957 227.167 152.455 235.134 152.455 235.134C153.009 232.918 161.322 229.22 161.322 229.22C162.524 229.538 163.769 229.663 165.01 229.593C166.672 229.411 165.746 227.93 165.746 227.93L174.258 228.439C173.531 225.759 172.668 223.424 172.396 221.816Z" fill="white"/>
<g style="mix-blend-mode:multiply" opacity="0.5">
<path d="M152.737 213.885C152.391 210.251 150.011 209.533 148.431 209.47C147.449 210.251 146.67 211.258 146.159 212.404C144.688 216.283 148.194 214.221 149.484 217.019C150.774 219.817 147.449 223.115 148.194 225.141C148.939 227.167 152.437 235.134 152.437 235.134C152.619 234.425 153.582 233.562 154.817 232.727C153 230.137 150.783 226.985 149.53 225.159C147.168 221.661 153.273 219.517 152.737 213.885Z" fill="white"/>
</g>
<path d="M172.396 221.816C171.705 217.846 169.879 211.441 170.706 209.579C170.152 208.243 168.244 205.127 162.612 204.837C155.407 204.464 147.658 208.525 146.177 212.404C144.696 216.283 148.212 214.221 149.502 217.019C150.792 219.817 147.467 223.115 148.212 225.141C148.957 227.167 152.455 235.134 152.455 235.134C153.009 232.918 161.322 229.22 161.322 229.22C162.524 229.538 163.769 229.663 165.01 229.593C166.672 229.411 165.746 227.93 165.746 227.93L174.258 228.439C173.531 225.759 172.668 223.424 172.396 221.816Z" stroke="#212121" stroke-width="1.63776" stroke-miterlimit="10"/>
<path d="M156.752 220.925C156.988 221.952 156.752 222.888 156.289 222.997C155.825 223.106 155.208 222.361 154.981 221.325C154.753 220.29 154.981 219.363 155.444 219.254C155.907 219.145 156.525 219.89 156.752 220.925Z" fill="#212121"/>
<path d="M167.745 218.663C167.981 219.699 167.745 220.626 167.281 220.735C166.818 220.844 166.2 220.099 165.964 219.063C165.728 218.027 165.964 217.101 166.436 216.992C166.909 216.883 167.508 217.628 167.745 218.663Z" fill="#212121"/>
<path d="M152.455 216.093C152.455 216.093 153.191 212.032 157.443 213.694" stroke="#212121" stroke-width="1.63776" stroke-linecap="round" stroke-linejoin="round"/>
<path d="M168.871 211.85C165.728 209.815 164.619 212.758 164.619 212.758C164.619 212.758 162.63 214.939 163.438 218.963" stroke="#212121" stroke-width="1.63776" stroke-linecap="round" stroke-linejoin="round"/>
<path d="M153.009 226.985L158.36 224.778" stroke="#212121" stroke-width="1.63776" stroke-linecap="round" stroke-linejoin="round"/>
<path d="M165.937 223.115L170.361 222.743" stroke="#212121" stroke-width="1.63776" stroke-linecap="round" stroke-linejoin="round"/>
<path d="M301.505 154.47C321.959 149.548 334.55 128.977 329.628 108.523C324.706 88.0692 304.135 75.4779 283.681 80.3998C263.227 85.3217 250.636 105.893 255.558 126.347C260.48 146.801 281.051 159.392 301.505 154.47Z" fill="#BDBDBD" stroke="#212121" stroke-width="1.63776" stroke-miterlimit="10"/>
<path opacity="0.3" d="M301.505 154.47C321.959 149.548 334.55 128.977 329.628 108.523C324.706 88.0692 304.135 75.4779 283.681 80.3998C263.227 85.3217 250.636 105.893 255.558 126.347C260.48 146.801 281.051 159.392 301.505 154.47Z" fill="white" stroke="#212121" stroke-width="1.63776" stroke-miterlimit="10"/>
<path d="M325.13 109.852C330.261 96.0171 322.744 80.4704 308.34 75.1278C293.936 69.7852 278.099 76.6697 272.967 90.5048C267.836 104.34 275.353 119.887 289.757 125.229C304.161 130.572 319.998 123.687 325.13 109.852Z" fill="#212121" stroke="#212121" stroke-width="1.63776" stroke-miterlimit="10"/>
<path d="M324.929 94.8841C326.189 99.3851 326.106 104.156 324.693 108.611" stroke="white" stroke-width="1.63776" stroke-linecap="round" stroke-linejoin="round"/>
<path d="M323.003 112.218C323.003 112.218 321.314 114.389 320.351 115.597" stroke="white" stroke-width="1.63776" stroke-linecap="round" stroke-linejoin="round"/>
<path d="M283.503 83.3192C283.503 83.3192 279.651 87.8616 282.058 93.4396" stroke="white" stroke-width="1.63776" stroke-linecap="round" stroke-linejoin="round"/>
<path d="M292.596 155.534C299.616 155.547 306.5 153.609 312.483 149.938C308.041 145.841 296.476 135.638 291.025 135.193C285.32 134.73 268.667 140.063 263.334 141.834C266.907 146.127 271.38 149.579 276.438 151.947C281.495 154.315 287.012 155.54 292.596 155.534Z" fill="white" stroke="#212121" stroke-width="1.63776" stroke-miterlimit="10"/>
<path d="M298.22 139.999C298.374 139.545 298.511 139.091 298.656 138.718C295.731 136.774 292.978 135.357 291.025 135.193C288.653 135.169 286.288 135.44 283.984 136.002C282.976 138.727 282.712 141.453 281.895 146.095C280.786 152.372 282.449 154.217 287.064 151.818C291.679 149.42 296.376 145.532 298.22 139.999Z" fill="white" stroke="#212121" stroke-width="1.63776" stroke-miterlimit="10"/>
<path d="M287.146 128.361C287.146 128.361 288.254 130.396 286.964 135.193C285.674 139.99 282.422 147.912 283.93 149.42C285.438 150.928 294.532 144.06 294.895 138.891C295.258 133.721 295.267 123.383 295.267 123.383L287.146 128.361Z" fill="white"/>
<g style="mix-blend-mode:multiply" opacity="0.5">
<path d="M287.572 131.469L293.405 136.011L292.96 143.279C293.993 142.017 294.663 140.496 294.895 138.882C295.267 133.713 295.267 123.374 295.267 123.374L287.146 128.352C287.54 129.341 287.687 130.411 287.572 131.469Z" fill="white"/>
</g>
<path d="M287.146 128.361C287.146 128.361 288.254 130.396 286.964 135.193C285.674 139.99 282.422 147.912 283.93 149.42C285.438 150.928 294.532 144.06 294.895 138.891C295.258 133.721 295.267 123.383 295.267 123.383L287.146 128.361Z" stroke="#212121" stroke-width="1.63776" stroke-miterlimit="10"/>
<path d="M277.888 105.658C277.888 105.658 276.598 102.333 274.936 104.75C273.273 107.167 275.299 110.101 276.226 110.101C277.152 110.101 277.888 105.658 277.888 105.658Z" fill="white" stroke="#212121" stroke-width="1.63776" stroke-miterlimit="10"/>
<path d="M282.158 94.9476C282.158 94.9476 276.807 105.468 275.517 112.672C274.227 119.876 279.578 130.76 284.929 130.76C290.28 130.76 298.556 122.456 298.556 122.456C298.556 122.456 306.305 122.638 307.414 120.058C308.522 117.478 307.232 115.443 305.197 115.443H301.136C301.136 115.443 300.028 115.997 300.582 110.828C301.136 105.659 302.799 103.26 302.799 103.26C302.799 103.26 288.79 104.359 282.158 94.9476Z" fill="white"/>
<g style="mix-blend-mode:multiply" opacity="0.5">
<path d="M296.349 119.122C295.226 121.978 293.379 124.493 290.99 126.419C288.6 128.344 285.751 129.615 282.721 130.106H282.667C283.365 130.514 284.157 130.736 284.965 130.751C290.316 130.751 298.592 122.447 298.592 122.447C298.592 122.447 306.342 122.629 307.45 120.049C308.558 117.469 307.268 115.434 305.233 115.434H301.173C301.173 115.434 300.064 115.988 300.618 110.819C301.173 105.649 302.835 103.251 302.835 103.251C302.835 103.251 301.927 103.315 300.428 103.251H300.364" fill="white"/>
</g>
<path d="M282.158 94.9476C282.158 94.9476 276.807 105.468 275.517 112.672C274.227 119.876 279.578 130.76 284.929 130.76C290.28 130.76 298.556 122.456 298.556 122.456C298.556 122.456 306.305 122.638 307.414 120.058C308.522 117.478 307.232 115.443 305.197 115.443H301.136C301.136 115.443 300.028 115.997 300.582 110.828C301.136 105.659 302.799 103.26 302.799 103.26C302.799 103.26 288.79 104.359 282.158 94.9476Z" stroke="#212121" stroke-width="1.63776" stroke-miterlimit="10"/>
<path d="M283.139 106.722C282.921 107.685 282.467 108.402 282.131 108.33C281.795 108.257 281.704 107.421 281.922 106.44C282.14 105.459 282.594 104.759 282.93 104.832C283.267 104.905 283.339 105.749 283.139 106.722Z" fill="#212121"/>
<path d="M291.815 110.592C291.597 111.555 291.143 112.281 290.807 112.2C290.471 112.118 290.38 111.291 290.598 110.319C290.816 109.347 291.27 108.629 291.606 108.711C291.942 108.793 292.033 109.629 291.815 110.592Z" fill="#212121"/>
<path d="M284.556 109.165C284.556 109.165 280.496 112.118 281.05 112.854C282.565 114.157 284.428 114.991 286.41 115.252C288.072 115.252 287.7 113.226 287.7 113.226" stroke="#212121" stroke-width="1.63776" stroke-linecap="round" stroke-linejoin="round"/>
<path d="M281.604 117.66C283.634 118.766 285.957 119.217 288.254 118.95C289.202 118.857 290.114 118.541 290.916 118.027C291.718 117.514 292.387 116.818 292.869 115.997" stroke="#212121" stroke-width="1.63776" stroke-linecap="round" stroke-linejoin="round"/>
<path d="M281.976 102.334C281.976 102.334 283.085 99.9352 285.301 102.706" stroke="#212121" stroke-width="1.63776" stroke-linecap="round" stroke-linejoin="round"/>
<path d="M291.388 105.659C291.388 105.659 295.086 104.55 295.086 108.239" stroke="#212121" stroke-width="1.63776" stroke-linecap="round" stroke-linejoin="round"/>
<path d="M166.179 155.032C186.938 151.618 200.999 132.021 197.584 111.262C194.17 90.5034 174.574 76.4427 153.815 79.857C133.056 83.2713 118.995 102.868 122.41 123.627C125.824 144.385 145.42 158.446 166.179 155.032Z" fill="#BDBDBD" stroke="#212121" stroke-width="1.63776" stroke-miterlimit="10"/>
<path opacity="0.3" d="M166.179 155.032C186.938 151.618 200.999 132.021 197.584 111.262C194.17 90.5034 174.574 76.4427 153.815 79.857C133.056 83.2713 118.995 102.868 122.41 123.627C125.824 144.385 145.42 158.446 166.179 155.032Z" fill="white" stroke="#212121" stroke-width="1.63776" stroke-miterlimit="10"/>
<path d="M133.786 136.764C133.132 139.372 130.152 139.008 131.06 142.215C137.147 149.341 145.648 153.971 154.936 155.22C164.224 156.468 173.646 154.248 181.399 148.983C184.124 145.758 185.76 142.37 185.832 139.644C186.078 131.323 177.284 125.109 176.811 121.102C176.339 117.096 180.136 108.038 180.136 108.038C180.136 108.038 186.786 107.084 189.166 101.152C191.547 95.2197 182.498 81.8742 174.413 77.8315C166.327 73.7888 152.791 77.3591 146.141 87.098C139.491 96.8368 147.567 105.395 143.288 109.91C139.009 114.425 127.844 114.661 126.654 123.691C125.464 132.722 134.494 133.912 133.786 136.764Z" fill="#212121" stroke="#212121" stroke-width="1.63776" stroke-miterlimit="10"/>
<path d="M174.44 86.8892C174.44 86.8892 176.848 92.7852 167.472 96.2646C158.097 99.7441 150.865 97.8726 148.449 104.032C146.032 110.192 147.913 114.489 148.185 117.659C148.458 120.83 140.917 120.33 136.375 124.355C131.833 128.379 140.917 133.194 143.343 135.874C145.769 138.554 145.215 142.57 140.926 143.914" stroke="white" stroke-width="1.63776" stroke-linecap="round" stroke-linejoin="round"/>
<path d="M146.041 99.2173C146.041 99.2173 149.521 90.6413 154.881 89.2968C160.241 87.9522 166.137 91.9768 170.152 88.2248C174.168 84.4728 173.368 81.8019 170.416 79.6579" stroke="white" stroke-width="1.63776" stroke-linecap="round" stroke-linejoin="round"/>
<path d="M178.456 90.3687C178.456 90.3687 187.84 96.5373 184.624 101.361C181.408 106.185 180.336 100.289 180.336 100.289" stroke="white" stroke-width="1.63776" stroke-linecap="round" stroke-linejoin="round"/>
<path d="M139.337 149.438C146.453 154.037 154.9 156.13 163.34 155.386C171.78 154.643 179.73 151.104 185.932 145.332C183.128 142.755 180.153 140.369 177.029 138.191C171.088 134.148 166.336 132.74 163.011 132.958C163.011 132.958 160.395 134.148 155.407 138.9C152.155 141.997 144.342 146.603 139.337 149.438Z" fill="white" stroke="#212121" stroke-width="1.63776" stroke-miterlimit="10"/>
<path d="M171.796 139.49C171.799 137.909 171.573 136.336 171.124 134.82C168.608 133.563 165.823 132.939 163.012 133.003C163.012 133.003 160.931 133.912 156.961 137.546C156.877 138.218 156.835 138.894 156.834 139.572C156.834 145.813 160.177 150.864 164.311 150.864C168.444 150.864 171.796 145.731 171.796 139.49Z" fill="white" stroke="#212121" stroke-width="1.63776" stroke-miterlimit="10"/>
<path d="M161.104 120.839C161.104 120.839 161.104 127.498 160.395 133.676C159.686 139.854 160.631 146.504 165.146 146.976C169.662 147.448 168.944 136.765 168.471 132.486C168.191 129.801 168.191 127.094 168.471 124.409L161.104 120.839Z" fill="white"/>
<g style="mix-blend-mode:multiply" opacity="0.5">
<path d="M160.259 135.111L168.281 127.335C168.281 127.089 168.281 126.853 168.281 126.635L166.645 123.592L161.076 120.866C161.076 120.866 161.076 127.525 160.368 133.703C160.34 134.148 160.295 134.63 160.259 135.111Z" fill="white"/>
</g>
<path d="M161.104 120.839C161.104 120.839 161.104 127.498 160.395 133.676C159.686 139.854 160.631 146.504 165.146 146.976C169.662 147.448 168.944 136.765 168.471 132.486C168.191 129.801 168.191 127.094 168.471 124.409L161.104 120.839Z" stroke="#212121" stroke-width="1.63776" stroke-miterlimit="10"/>
<path d="M177.266 91.1409C177.266 91.1409 177.738 94.2297 169.662 98.0362C161.585 101.843 157.542 104.922 156.834 108.484C156.125 112.045 155.88 113.48 155.88 113.48C155.88 113.48 154.217 110.146 151.129 111.809C148.04 113.471 150.892 119.894 153.745 120.13C156.598 120.367 157.306 119.413 157.306 119.413C157.306 119.413 166.573 128.679 172.033 128.679C177.493 128.679 179.637 123.455 180.827 114.143C181.98 105.204 177.266 91.1409 177.266 91.1409Z" fill="white"/>
<g style="mix-blend-mode:multiply" opacity="0.5">
<path d="M159.432 110.201C159.72 107.208 160.785 104.343 162.521 101.888C159.132 104.105 157.288 106.194 156.834 108.484C156.116 112.054 155.88 113.48 155.88 113.48C155.88 113.48 154.217 110.146 151.129 111.809C148.04 113.471 150.892 119.894 153.745 120.13C156.598 120.367 157.306 119.413 157.306 119.413C157.306 119.413 166.573 128.679 172.033 128.679C170.412 127.874 168.888 126.886 167.49 125.736C164.256 123.374 159.169 116.106 159.432 110.201Z" fill="white"/>
</g>
<path d="M177.266 91.1409C177.266 91.1409 177.738 94.2297 169.662 98.0362C161.585 101.843 157.542 104.922 156.834 108.484C156.125 112.045 155.88 113.48 155.88 113.48C155.88 113.48 154.217 110.146 151.129 111.809C148.04 113.471 150.892 119.894 153.745 120.13C156.598 120.367 157.306 119.413 157.306 119.413C157.306 119.413 166.573 128.679 172.033 128.679C177.493 128.679 179.637 123.455 180.827 114.143C181.981 105.204 177.266 91.1409 177.266 91.1409Z" stroke="#212121" stroke-width="1.63776" stroke-miterlimit="10"/>
<path d="M175.621 105.559C175.351 106.295 175.24 107.08 175.293 107.863C175.346 108.645 175.563 109.408 175.93 110.101C177.175 112.436 177.802 113.208 177.338 113.835C177.205 114.05 177.031 114.237 176.826 114.386C176.621 114.534 176.388 114.64 176.142 114.698C175.895 114.756 175.64 114.765 175.39 114.725C175.14 114.684 174.901 114.595 174.685 114.462" stroke="#212121" stroke-width="1.63776" stroke-linecap="round" stroke-linejoin="round"/>
<path d="M174.685 120.048C174.685 120.048 170.143 121.765 168.608 118.486" stroke="#212121" stroke-width="1.63776" stroke-linecap="round" stroke-linejoin="round"/>
<path d="M170.17 109.065C170.17 110.055 169.889 110.882 169.543 110.882C169.198 110.882 168.926 110.083 168.926 109.065C168.926 108.048 169.198 107.248 169.543 107.248C169.889 107.248 170.17 108.075 170.17 109.065Z" fill="#212121"/>
<path d="M177.801 108.829C178.148 108.829 178.428 108.028 178.428 107.039C178.428 106.051 178.148 105.25 177.801 105.25C177.455 105.25 177.175 106.051 177.175 107.039C177.175 108.028 177.455 108.829 177.801 108.829Z" fill="#212121"/>
<path d="M165.655 103.85C165.655 103.85 166.564 101.352 170.325 101.824" stroke="#212121" stroke-width="1.63776" stroke-linecap="round" stroke-linejoin="round"/>
<path d="M175.776 101.352C175.776 101.352 176.866 98.7086 179.2 100.889" stroke="#212121" stroke-width="1.63776" stroke-linecap="round" stroke-linejoin="round"/>
</svg>
