<?xml version="1.0" standalone="no"?><svg xmlns="http://www.w3.org/2000/svg" xmlns:xlink="http://www.w3.org/1999/xlink" style="isolation:isolate" viewBox="0 0 431.168 299.215" width="431.168" height="299.215"><defs><clipPath id="_clipPath_5kBI62R4PNA3TgQTLUInTywPzkQ0c55b"><rect width="431.168" height="299.215"/></clipPath></defs><g clip-path="url(#_clipPath_5kBI62R4PNA3TgQTLUInTywPzkQ0c55b)"><path d=" M 156.492 8 L 275.992 8 L 275.992 270 L 181.617 270 L 181.617 278 L 283.994 278 L 283.994 0 L 148.492 0 L 148.492 61.042 C 151.255 61.077 153.934 61.457 156.492 62.143 L 156.492 8 Z " fill="rgb(1,106,160)"/><path d=" M 264.992 19.417 L 167.492 19.417 L 167.492 37.417 L 264.992 37.417 L 264.992 19.417 Z  M 206.742 31.75 L 173.992 31.75 L 173.992 24.75 L 206.742 24.75 L 206.742 31.75 Z  M 236.992 31.75 L 229.992 31.75 L 229.992 24.75 L 236.992 24.75 L 236.992 31.75 Z  M 248.242 31.75 L 241.242 31.75 L 241.242 24.75 L 248.242 24.75 L 248.242 31.75 Z  M 259.492 31.75 L 252.492 31.75 L 252.492 24.75 L 259.492 24.75 L 259.492 31.75 Z " fill="rgb(1,106,160)"/><path d=" M 173.992 73.95 L 173.992 73.899 L 206.742 73.899 L 206.742 80.899 L 178.018 80.899 C 178.785 82.709 179.384 84.606 179.814 86.565 L 264.992 86.565 L 264.992 68.565 L 168.853 68.565 C 170.765 70.158 172.489 71.965 173.992 73.95 Z  M 252.492 73.899 L 259.492 73.899 L 259.492 80.899 L 252.492 80.899 L 252.492 73.899 L 252.492 73.899 Z  M 241.242 73.899 L 248.242 73.899 L 248.242 80.899 L 241.242 80.899 L 241.242 73.899 Z  M 229.992 73.899 L 236.992 73.899 L 236.992 80.899 L 229.992 80.899 L 229.992 73.899 Z " fill="rgb(1,106,160)"/><path d=" M 188.252 123.046 L 206.742 123.046 L 206.742 130.046 L 188.846 130.046 C 188.894 131.501 188.925 132.959 188.95 134.379 C 188.958 134.822 188.966 135.268 188.974 135.713 L 264.993 135.713 L 264.993 117.713 L 186.902 117.713 C 187.564 119.613 187.987 121.397 188.252 123.046 Z  M 252.492 123.046 L 259.492 123.046 L 259.492 130.046 L 252.492 130.046 L 252.492 123.046 L 252.492 123.046 Z  M 241.242 123.046 L 248.242 123.046 L 248.242 130.046 L 241.242 130.046 L 241.242 123.046 Z  M 229.992 123.046 L 236.992 123.046 L 236.992 130.046 L 229.992 130.046 L 229.992 123.046 Z " fill="rgb(1,106,160)"/><path d=" M 189.607 145.046 C 189.726 145.734 189.853 146.296 189.98 146.752 C 190.929 146.874 192.085 146.948 193.179 146.948 L 193.193 146.948 L 193.281 146.948 C 194.572 146.948 195.543 146.869 195.769 146.848 C 196.392 146.782 197.023 146.75 197.648 146.75 C 199.562 146.75 201.404 147.064 203.14 147.62 L 206.742 147.62 L 206.742 149.225 C 210.805 151.608 213.851 155.545 215.059 160.286 L 264.992 160.286 L 264.992 142.286 L 189.259 142.286 C 189.345 143.273 189.455 144.207 189.607 145.046 Z  M 252.492 147.621 L 259.492 147.621 L 259.492 154.621 L 252.492 154.621 L 252.492 147.621 L 252.492 147.621 Z  M 241.242 147.621 L 248.242 147.621 L 248.242 154.621 L 241.242 154.621 L 241.242 147.621 Z  M 229.992 147.621 L 236.992 147.621 L 236.992 154.621 L 229.992 154.621 L 229.992 147.621 Z " fill="rgb(1,106,160)"/><path d=" M 211.684 176.01 C 208.674 179.763 204.385 182.118 199.602 182.642 C 198.971 182.71 196.608 182.945 193.288 182.947 C 190.456 182.936 186.315 182.804 181.618 181.828 L 181.618 184.861 L 264.993 184.861 L 264.993 166.861 L 215.504 166.861 C 215.117 170.183 213.825 173.339 211.684 176.01 Z  M 252.492 172.195 L 259.492 172.195 L 259.492 179.195 L 252.492 179.195 L 252.492 172.195 L 252.492 172.195 Z  M 241.242 172.195 L 248.242 172.195 L 248.242 179.195 L 241.242 179.195 L 241.242 172.195 Z  M 236.992 172.195 L 236.992 179.195 L 229.992 179.195 L 229.992 172.195 L 236.992 172.195 Z " fill="rgb(1,106,160)"/><path d=" M 181.617 196.769 L 206.742 196.769 L 206.742 203.769 L 181.617 203.769 L 181.617 209.435 L 264.992 209.435 L 264.992 191.435 L 181.617 191.435 L 181.617 196.769 L 181.617 196.769 Z  M 252.492 196.769 L 259.492 196.769 L 259.492 203.769 L 252.492 203.769 L 252.492 196.769 L 252.492 196.769 Z  M 241.242 196.769 L 248.242 196.769 L 248.242 203.769 L 241.242 203.769 L 241.242 196.769 Z  M 229.992 196.769 L 236.992 196.769 L 236.992 203.769 L 229.992 203.769 L 229.992 196.769 Z " fill="rgb(1,106,160)"/><path d=" M 181.617 221.342 L 206.742 221.342 L 206.742 228.342 L 181.617 228.342 L 181.617 234.009 L 264.992 234.009 L 264.992 216.009 L 181.617 216.009 L 181.617 221.342 L 181.617 221.342 Z  M 252.492 221.342 L 259.492 221.342 L 259.492 228.342 L 252.492 228.342 L 252.492 221.342 L 252.492 221.342 Z  M 241.242 221.342 L 248.242 221.342 L 248.242 228.342 L 241.242 228.342 L 241.242 221.342 Z  M 229.992 221.342 L 236.992 221.342 L 236.992 228.342 L 229.992 228.342 L 229.992 221.342 Z " fill="rgb(1,106,160)"/><path d=" M 181.617 245.917 L 206.742 245.917 L 206.742 252.917 L 181.617 252.917 L 181.617 258.584 L 264.992 258.584 L 264.992 240.584 L 181.617 240.584 L 181.617 245.917 L 181.617 245.917 Z  M 252.492 245.917 L 259.492 245.917 L 259.492 252.917 L 252.492 252.917 L 252.492 245.917 L 252.492 245.917 Z  M 241.242 245.917 L 248.242 245.917 L 248.242 252.917 L 241.242 252.917 L 241.242 245.917 Z  M 229.992 245.917 L 236.992 245.917 L 236.992 252.917 L 229.992 252.917 L 229.992 245.917 Z " fill="rgb(1,106,160)"/><path d=" M 295.666 0 L 295.666 278 L 431.168 278 L 431.168 0 L 295.666 0 Z  M 423.168 270 L 303.666 270 L 303.666 8 L 423.168 8 L 423.168 270 Z " fill="rgb(1,106,160)"/><path d=" M 412.168 19.417 L 314.668 19.417 L 314.668 37.417 L 412.168 37.417 L 412.168 19.417 Z  M 353.918 31.75 L 321.168 31.75 L 321.168 24.75 L 353.918 24.75 L 353.918 31.75 Z  M 384.168 31.75 L 377.168 31.75 L 377.168 24.75 L 384.168 24.75 L 384.168 31.75 Z  M 395.418 31.75 L 388.418 31.75 L 388.418 24.75 L 395.418 24.75 L 395.418 31.75 Z  M 406.668 31.75 L 399.668 31.75 L 399.668 24.75 L 406.668 24.75 L 406.668 31.75 Z " fill="rgb(1,106,160)"/><path d=" M 412.168 68.565 L 314.668 68.565 L 314.668 86.565 L 412.168 86.565 L 412.168 68.565 Z  M 353.918 80.899 L 321.168 80.899 L 321.168 73.899 L 353.918 73.899 L 353.918 80.899 Z  M 384.168 80.899 L 377.168 80.899 L 377.168 73.899 L 384.168 73.899 L 384.168 80.899 Z  M 395.418 80.899 L 388.418 80.899 L 388.418 73.899 L 395.418 73.899 L 395.418 80.899 Z  M 406.668 80.899 L 399.668 80.899 L 399.668 73.899 L 406.668 73.899 L 406.668 80.899 Z " fill="rgb(1,106,160)"/><path d=" M 412.168 117.713 L 314.668 117.713 L 314.668 135.713 L 412.168 135.713 L 412.168 117.713 Z  M 353.918 130.046 L 321.168 130.046 L 321.168 123.046 L 353.918 123.046 L 353.918 130.046 Z  M 384.168 130.046 L 377.168 130.046 L 377.168 123.046 L 384.168 123.046 L 384.168 130.046 Z  M 395.418 130.046 L 388.418 130.046 L 388.418 123.046 L 395.418 123.046 L 395.418 130.046 Z  M 406.668 130.046 L 399.668 130.046 L 399.668 123.046 L 406.668 123.046 L 406.668 130.046 Z " fill="rgb(1,106,160)"/><path d=" M 412.168 142.287 L 314.668 142.287 L 314.668 160.287 L 412.168 160.287 L 412.168 142.287 Z  M 353.918 154.621 L 321.168 154.621 L 321.168 147.621 L 353.918 147.621 L 353.918 154.621 Z  M 384.168 154.621 L 377.168 154.621 L 377.168 147.621 L 384.168 147.621 L 384.168 154.621 Z  M 395.418 154.621 L 388.418 154.621 L 388.418 147.621 L 395.418 147.621 L 395.418 154.621 Z  M 406.668 154.621 L 399.668 154.621 L 399.668 147.621 L 406.668 147.621 L 406.668 154.621 Z " fill="rgb(1,106,160)"/><path d=" M 412.168 191.435 L 314.668 191.435 L 314.668 209.435 L 412.168 209.435 L 412.168 191.435 Z  M 353.918 203.769 L 321.168 203.769 L 321.168 196.769 L 353.918 196.769 L 353.918 203.769 Z  M 384.168 203.769 L 377.168 203.769 L 377.168 196.769 L 384.168 196.769 L 384.168 203.769 Z  M 395.418 203.769 L 388.418 203.769 L 388.418 196.769 L 395.418 196.769 L 395.418 203.769 Z  M 406.668 203.769 L 399.668 203.769 L 399.668 196.769 L 406.668 196.769 L 406.668 203.769 Z " fill="rgb(1,106,160)"/><path d=" M 412.168 216.009 L 314.668 216.009 L 314.668 234.009 L 412.168 234.009 L 412.168 216.009 Z  M 353.918 228.342 L 321.168 228.342 L 321.168 221.342 L 353.918 221.342 L 353.918 228.342 Z  M 384.168 228.342 L 377.168 228.342 L 377.168 221.342 L 384.168 221.342 L 384.168 228.342 Z  M 395.418 228.342 L 388.418 228.342 L 388.418 221.342 L 395.418 221.342 L 395.418 228.342 Z  M 406.668 228.342 L 399.668 228.342 L 399.668 221.342 L 406.668 221.342 L 406.668 228.342 Z " fill="rgb(1,106,160)"/><path d=" M 412.168 240.583 L 314.668 240.583 L 314.668 258.583 L 412.168 258.583 L 412.168 240.583 Z  M 353.918 252.917 L 321.168 252.917 L 321.168 245.917 L 353.918 245.917 L 353.918 252.917 Z  M 384.168 252.917 L 377.168 252.917 L 377.168 245.917 L 384.168 245.917 L 384.168 252.917 Z  M 395.418 252.917 L 388.418 252.917 L 388.418 245.917 L 395.418 245.917 L 395.418 252.917 Z  M 406.668 252.917 L 399.668 252.917 L 399.668 245.917 L 406.668 245.917 L 406.668 252.917 Z " fill="rgb(1,106,160)"/><path d=" M 107.531 270 L 8 270 L 8 8 L 127.5 8 L 127.5 68.395 C 129.905 66.423 132.597 64.788 135.502 63.564 L 135.502 0 L 0 0 L 0 278 L 107.531 278 L 107.531 270 Z " fill="rgb(1,106,160)"/><path d=" M 116.5 19.417 L 19 19.417 L 19 37.417 L 116.5 37.417 L 116.5 19.417 Z  M 58.25 31.75 L 25.5 31.75 L 25.5 24.75 L 58.25 24.75 L 58.25 31.75 Z  M 88.5 31.75 L 81.5 31.75 L 81.5 24.75 L 88.5 24.75 L 88.5 31.75 Z  M 99.75 31.75 L 92.75 31.75 L 92.75 24.75 L 99.75 24.75 L 99.75 31.75 Z  M 111 31.75 L 104 31.75 L 104 24.75 L 111 24.75 L 111 31.75 Z " fill="rgb(1,106,160)"/><path d=" M 116.5 43.991 L 19 43.991 L 19 61.991 L 116.5 61.991 L 116.5 43.991 Z  M 58.25 56.325 L 25.5 56.325 L 25.5 49.325 L 58.25 49.325 L 58.25 56.325 Z  M 88.5 56.325 L 81.5 56.325 L 81.5 49.325 L 88.5 49.325 L 88.5 56.325 Z  M 99.75 56.325 L 92.75 56.325 L 92.75 49.325 L 99.75 49.325 L 99.75 56.325 Z  M 111 56.325 L 104 56.325 L 104 49.325 L 111 49.325 L 111 56.325 Z " fill="rgb(1,106,160)"/><path d=" M 116.5 85.856 L 116.5 68.565 L 19 68.565 L 19 86.565 L 116.336 86.565 C 116.388 86.328 116.442 86.091 116.5 85.856 Z  M 58.25 80.899 L 25.5 80.899 L 25.5 73.899 L 58.25 73.899 L 58.25 80.899 Z  M 88.5 80.899 L 81.5 80.899 L 81.5 73.899 L 88.5 73.899 L 88.5 80.899 Z  M 99.75 80.899 L 92.75 80.899 L 92.75 73.899 L 99.75 73.899 L 99.75 80.899 Z  M 104 80.899 L 104 73.899 L 111 73.899 L 111 80.899 L 104 80.899 Z " fill="rgb(1,106,160)"/><path d=" M 110.367 107.291 L 110.465 107.235 L 110.563 107.18 C 112.369 106.186 114.313 105.212 116.501 104.428 L 116.501 101.207 C 115.902 98.744 115.577 96.176 115.577 93.532 C 115.577 93.4 115.586 93.27 115.587 93.139 L 19 93.139 L 19 111.139 L 104.705 111.139 C 106.528 109.72 108.417 108.422 110.367 107.291 Z  M 104 98.472 L 111 98.472 L 111 105.472 L 104 105.472 L 104 98.472 Z  M 58.25 105.472 L 25.5 105.472 L 25.5 98.472 L 58.25 98.472 L 58.25 105.472 Z  M 88.5 105.472 L 81.5 105.472 L 81.5 98.472 L 88.5 98.472 L 88.5 105.472 Z  M 99.75 105.472 L 92.75 105.472 L 92.75 98.472 L 99.75 98.472 L 99.75 105.472 Z " fill="rgb(1,106,160)"/><path d=" M 88.082 156.758 C 88.07 156.729 88.063 156.699 88.053 156.67 C 87.791 155.995 87.559 155.311 87.345 154.62 L 81.5 154.62 L 81.5 147.62 L 86.028 147.62 C 85.97 146.822 85.933 146.019 85.935 145.211 C 85.943 144.232 85.994 143.257 86.081 142.286 L 19 142.286 L 19 160.286 L 89.707 160.286 C 89.094 159.139 88.547 157.963 88.082 156.758 Z  M 58.25 154.621 L 25.5 154.621 L 25.5 147.621 L 58.25 147.621 L 58.25 154.621 Z " fill="rgb(1,106,160)"/><path d=" M 107.531 203.769 L 104 203.769 L 104 196.769 L 107.531 196.769 L 107.531 191.435 L 19 191.435 L 19 209.435 L 107.531 209.435 L 107.531 203.769 Z  M 58.25 203.769 L 25.5 203.769 L 25.5 196.769 L 58.25 196.769 L 58.25 203.769 Z  M 88.5 203.769 L 81.5 203.769 L 81.5 196.769 L 88.5 196.769 L 88.5 203.769 Z  M 99.75 203.769 L 92.75 203.769 L 92.75 196.769 L 99.75 196.769 L 99.75 203.769 Z " fill="rgb(1,106,160)"/><path d=" M 107.531 228.342 L 104 228.342 L 104 221.342 L 107.531 221.342 L 107.531 216.009 L 19 216.009 L 19 234.009 L 107.531 234.009 L 107.531 228.342 Z  M 58.25 228.342 L 25.5 228.342 L 25.5 221.342 L 58.25 221.342 L 58.25 228.342 Z  M 88.5 228.342 L 81.5 228.342 L 81.5 221.342 L 88.5 221.342 L 88.5 228.342 Z  M 99.75 228.342 L 92.75 228.342 L 92.75 221.342 L 99.75 221.342 L 99.75 228.342 Z " fill="rgb(1,106,160)"/><path d=" M 104 252.917 L 104 245.917 L 107.531 245.917 L 107.531 240.584 L 19 240.584 L 19 258.584 L 107.531 258.584 L 107.531 252.917 L 104 252.917 Z  M 58.25 252.917 L 25.5 252.917 L 25.5 245.917 L 58.25 245.917 L 58.25 252.917 Z  M 88.5 252.917 L 81.5 252.917 L 81.5 245.917 L 88.5 245.917 L 88.5 252.917 Z  M 99.75 252.917 L 92.75 252.917 L 92.75 245.917 L 99.75 245.917 L 99.75 252.917 Z " fill="rgb(1,106,160)"/><path d=" M 133.575 110.731 L 162.574 110.731 C 167.465 106.604 170.574 100.433 170.574 93.532 C 170.574 81.106 160.5 71.032 148.074 71.032 C 135.65 71.032 125.576 81.106 125.576 93.532 C 125.576 100.433 128.686 106.604 133.575 110.731 Z " fill="rgb(1,106,160)"/><path d=" M 125.258 112.731 C 124.653 112.731 124.067 112.807 123.5 112.939 C 120.422 113.362 117.945 114.534 115.387 115.942 C 110.836 118.583 106.358 122.446 102.649 127.315 C 99.008 132.17 95.989 138.145 95.936 145.229 C 95.932 147.827 96.389 150.549 97.415 153.165 C 97.415 153.165 97.415 153.166 97.416 153.166 L 97.415 153.166 C 99.418 158.357 103.513 162.828 109.099 166.194 C 111.042 167.37 113.189 168.436 115.531 169.411 L 115.531 151.226 C 113.574 149.711 112.744 148.404 112.329 147.371 L 112.328 147.371 C 112.326 147.367 112.325 147.364 112.324 147.36 C 112.058 146.666 111.939 146.01 111.935 145.229 C 111.925 143.846 112.394 142.012 113.46 140.002 C 114.423 138.143 115.89 136.207 117.53 134.488 L 117.53 286.851 C 117.53 293.681 123.067 299.214 129.893 299.214 C 136.721 299.214 142.256 293.681 142.256 286.851 L 142.256 196.58 L 146.891 196.58 L 146.891 286.851 C 146.891 293.681 152.428 299.214 159.254 299.214 C 166.082 299.214 171.619 293.681 171.619 286.851 L 171.619 166.09 C 175 169.461 179.012 170.9 182.551 171.791 C 186.58 172.754 190.367 172.938 193.281 172.948 C 196.256 172.946 198.301 172.725 198.511 172.702 C 202.906 172.22 206.074 168.268 205.591 163.877 C 205.107 159.485 201.153 156.315 196.761 156.799 C 196.581 156.816 195.175 156.947 193.281 156.947 C 191.177 156.953 188.441 156.763 186.301 156.236 C 184.102 155.749 182.856 154.836 182.852 154.715 C 181.442 152.996 180.372 150.313 179.768 146.826 C 178.823 141.601 179.065 135.156 178.817 129.314 C 178.633 126.341 178.489 123.513 177.163 120.175 C 176.475 118.53 175.339 116.614 173.341 115.073 C 171.366 113.51 168.655 112.723 166.388 112.764 C 165.999 112.764 165.62 112.801 165.247 112.854 C 164.808 112.776 164.356 112.729 163.892 112.729 L 125.258 112.729 L 125.258 112.731 Z " fill="rgb(1,106,160)"/></g></svg>
