<?xml version="1.0" standalone="no"?><svg xmlns="http://www.w3.org/2000/svg" xmlns:xlink="http://www.w3.org/1999/xlink" style="isolation:isolate" viewBox="0 0 400 345.112" width="400" height="345.112"><defs><clipPath id="_clipPath_hAdJF7cpvt6RL1DCHWWIndJClBy63pbo"><rect width="400" height="345.112"/></clipPath></defs><g clip-path="url(#_clipPath_hAdJF7cpvt6RL1DCHWWIndJClBy63pbo)"><path d=" M 20.813 153.363 L 18.298 153.363 L 18.298 104.213 L 36.711 104.213 C 42.091 100.266 48.722 97.928 55.892 97.928 C 63.061 97.928 69.692 100.266 75.072 104.213 L 195 104.213 L 195 153.363 L 131.955 153.363 C 128.959 157.156 125.869 160.474 122.775 163.363 L 195 163.363 L 195 212.513 L 92.937 212.513 L 92.937 222.513 L 195 222.513 L 195 271.663 L 92.937 271.663 L 92.937 314.66 L 400 314.66 L 400 271.663 L 391.299 271.663 L 391.299 45.063 L 400 45.063 L 400 26.063 L 351.377 26.063 L 351.377 4 L 351.377 0 L 347.379 0 L 245.57 0 L 241.572 0 L 241.572 4 L 241.572 26.064 L 169.234 26.064 L 169.234 4 L 169.234 0 L 165.236 0 L 51.236 0 L 47.238 0 L 47.238 4 L 47.238 26.064 L 0 26.064 L 0 45.064 L 8.299 45.064 L 8.299 166.254 C 12.337 159.818 16.865 155.831 20.813 153.363 Z  M 18.299 94.213 L 18.299 45.063 L 195 45.063 L 195 94.213 L 18.299 94.213 Z  M 205 104.213 L 381.299 104.213 L 381.299 153.363 L 205 153.363 L 205 104.213 Z  M 205 163.363 L 381.299 163.363 L 381.299 212.513 L 205 212.513 L 205 163.363 Z  M 205 271.664 L 205 222.514 L 381.299 222.514 L 381.299 271.664 L 205 271.664 Z  M 381.299 94.213 L 205 94.213 L 205 45.063 L 381.299 45.063 L 381.299 94.213 Z  M 245.57 3.999 L 347.378 3.999 L 347.378 33.999 L 245.57 33.999 L 245.57 3.999 Z  M 51.236 3.999 L 165.236 3.999 L 165.236 33.999 L 51.236 33.999 L 51.236 3.999 Z " fill="rgb(1,106,160)"/><path d=" M 18.299 271.664 L 18.299 263.931 C 17.39 264.128 16.465 264.272 15.518 264.329 C 15.198 264.349 14.827 264.36 14.458 264.36 C 12.296 264.36 10.226 263.959 8.3 263.254 L 8.3 271.665 L 0 271.665 L 0 314.662 L 18.846 314.662 L 18.846 271.665 L 18.299 271.665 L 18.299 271.664 Z " fill="rgb(1,106,160)"/><path d=" M 28.293 88.231 L 38.293 88.231 L 38.293 50.731 L 28.293 50.731 L 28.293 88.231 Z  M 30.293 54.731 L 36.293 54.731 L 36.293 64.064 L 30.293 64.064 L 30.293 54.731 Z " fill="rgb(1,106,160)"/><path d=" M 42.531 88.231 L 52.531 88.231 L 52.531 50.731 L 42.531 50.731 L 42.531 88.231 Z  M 44.531 54.731 L 50.531 54.731 L 50.531 64.064 L 44.531 64.064 L 44.531 54.731 Z " fill="rgb(1,106,160)"/><path d=" M 56.77 88.231 L 66.77 88.231 L 66.77 50.731 L 56.77 50.731 L 56.77 88.231 Z  M 58.77 54.731 L 64.77 54.731 L 64.77 64.064 L 58.77 64.064 L 58.77 54.731 Z " fill="rgb(1,106,160)"/><path d=" M 71.008 88.231 L 81.008 88.231 L 81.008 50.731 L 71.008 50.731 L 71.008 88.231 Z  M 73.008 54.731 L 79.008 54.731 L 79.008 64.064 L 73.008 64.064 L 73.008 54.731 Z " fill="rgb(1,106,160)"/><path d=" M 85.246 88.231 L 95.246 88.231 L 95.246 50.731 L 85.246 50.731 L 85.246 88.231 Z  M 87.246 54.731 L 93.246 54.731 L 93.246 64.064 L 87.246 64.064 L 87.246 54.731 Z " fill="rgb(1,106,160)"/><path d=" M 227.293 88.231 L 227.293 50.731 L 217.293 50.731 L 217.293 88.231 L 227.293 88.231 Z  M 219.293 54.731 L 225.293 54.731 L 225.293 64.064 L 219.293 64.064 L 219.293 54.731 Z " fill="rgb(1,106,160)"/><path d=" M 241.531 50.731 L 231.531 50.731 L 231.531 88.231 L 241.531 88.231 L 241.531 50.731 Z  M 239.531 64.064 L 233.531 64.064 L 233.531 54.731 L 239.531 54.731 L 239.531 64.064 Z " fill="rgb(1,106,160)"/><path d=" M 255.77 50.731 L 245.77 50.731 L 245.77 88.231 L 255.77 88.231 L 255.77 50.731 Z  M 253.77 64.064 L 247.77 64.064 L 247.77 54.731 L 253.77 54.731 L 253.77 64.064 Z " fill="rgb(1,106,160)"/><path d=" M 270.008 50.731 L 260.008 50.731 L 260.008 88.231 L 270.008 88.231 L 270.008 50.731 Z  M 268.008 64.064 L 262.008 64.064 L 262.008 54.731 L 268.008 54.731 L 268.008 64.064 Z " fill="rgb(1,106,160)"/><path d=" M 284.246 50.731 L 274.246 50.731 L 274.246 88.231 L 284.246 88.231 L 284.246 50.731 Z  M 282.246 64.064 L 276.246 64.064 L 276.246 54.731 L 282.246 54.731 L 282.246 64.064 Z " fill="rgb(1,106,160)"/><path d=" M 326.877 78.231 L 289.377 78.231 L 289.377 88.231 L 326.877 88.231 L 326.877 78.231 Z  M 302.711 86.231 L 293.377 86.231 L 293.377 80.231 L 302.711 80.231 L 302.711 86.231 Z " fill="rgb(1,106,160)"/><path d=" M 326.877 63.992 L 289.377 63.992 L 289.377 73.992 L 326.877 73.992 L 326.877 63.992 Z  M 302.711 71.992 L 293.377 71.992 L 293.377 65.992 L 302.711 65.992 L 302.711 71.992 Z " fill="rgb(1,106,160)"/><path d=" M 99.484 88.231 L 109.484 88.231 L 109.484 50.731 L 99.484 50.731 L 99.484 88.231 Z  M 101.484 54.731 L 107.484 54.731 L 107.484 64.064 L 101.484 64.064 L 101.484 54.731 Z " fill="rgb(1,106,160)"/><path d=" M 113.723 88.231 L 123.723 88.231 L 123.723 50.731 L 113.723 50.731 L 113.723 88.231 Z  M 115.723 54.731 L 121.723 54.731 L 121.723 64.064 L 115.723 64.064 L 115.723 54.731 Z " fill="rgb(1,106,160)"/><path d=" M 127.961 88.231 L 137.961 88.231 L 137.961 50.731 L 127.961 50.731 L 127.961 88.231 L 127.961 88.231 Z  M 129.961 54.731 L 135.961 54.731 L 135.961 64.064 L 129.961 64.064 L 129.961 54.731 Z " fill="rgb(1,106,160)"/><path d=" M 182.592 196.564 L 145.092 196.564 L 145.092 206.564 L 182.592 206.564 L 182.592 196.564 Z  M 158.424 204.564 L 149.092 204.564 L 149.092 198.564 L 158.424 198.564 L 158.424 204.564 Z " fill="rgb(1,106,160)"/><path d=" M 182.592 182.326 L 145.092 182.326 L 145.092 192.326 L 182.592 192.326 L 182.592 182.326 Z  M 158.424 190.326 L 149.092 190.326 L 149.092 184.326 L 158.424 184.326 L 158.424 190.326 Z " fill="rgb(1,106,160)"/><rect x="92.937" y="196.564" width="11.654" height="10" transform="matrix(1,0,0,1,0,0)" fill="rgb(1,106,160)"/><rect x="92.937" y="182.326" width="11.654" height="10" transform="matrix(1,0,0,1,0,0)" fill="rgb(1,106,160)"/><path d=" M 123.723 206.564 L 123.723 169.064 L 115.994 169.064 C 115.232 169.639 114.475 170.19 113.723 170.719 L 113.723 206.564 L 123.723 206.564 Z  M 121.723 173.064 L 121.723 182.397 L 115.723 182.397 L 115.723 173.064 L 121.723 173.064 Z " fill="rgb(1,106,160)"/><path d=" M 137.961 169.064 L 127.961 169.064 L 127.961 206.564 L 137.961 206.564 L 137.961 169.064 Z  M 135.961 182.397 L 129.961 182.397 L 129.961 173.064 L 135.961 173.064 L 135.961 182.397 Z " fill="rgb(1,106,160)"/><path d=" M 246.092 206.564 L 283.592 206.564 L 283.592 196.564 L 246.092 196.564 L 246.092 206.564 L 246.092 206.564 Z  M 250.092 198.564 L 259.424 198.564 L 259.424 204.564 L 250.092 204.564 L 250.092 198.564 L 250.092 198.564 Z " fill="rgb(1,106,160)"/><path d=" M 249.426 192.326 L 286.926 192.326 L 286.926 182.326 L 249.426 182.326 L 249.426 192.326 Z  M 253.426 184.325 L 273.758 184.325 L 273.758 190.325 L 253.426 190.325 L 253.426 184.325 Z " fill="rgb(1,106,160)"/><path d=" M 291.424 206.564 L 328.924 206.564 L 328.924 196.564 L 291.424 196.564 L 291.424 206.564 Z  M 295.424 198.564 L 304.758 198.564 L 304.758 204.564 L 295.424 204.564 L 295.424 198.564 Z " fill="rgb(1,106,160)"/><path d=" M 295.758 192.326 L 333.258 192.326 L 333.258 182.326 L 295.758 182.326 L 295.758 192.326 Z  M 299.758 184.326 L 309.09 184.326 L 309.09 190.326 L 299.758 190.326 L 299.758 184.326 Z " fill="rgb(1,106,160)"/><path d=" M 214.723 206.564 L 224.723 206.564 L 224.723 169.064 L 214.723 169.064 L 214.723 206.564 Z  M 216.723 173.064 L 222.723 173.064 L 222.723 182.397 L 216.723 182.397 L 216.723 173.064 Z " fill="rgb(1,106,160)"/><path d=" M 228.961 206.564 L 238.961 206.564 L 238.961 169.064 L 228.961 169.064 L 228.961 206.564 Z  M 230.961 173.064 L 236.961 173.064 L 236.961 182.397 L 230.961 182.397 L 230.961 173.064 Z " fill="rgb(1,106,160)"/><path d=" M 142.012 54.736 L 158.227 88.549 L 167.245 84.225 L 151.028 50.412 L 142.012 54.736 Z  M 149.58 65.894 L 145.545 57.479 L 150.953 54.884 L 154.99 63.299 L 149.58 65.894 Z " fill="rgb(1,106,160)"/><path d=" M 167.695 50.412 L 158.677 54.736 L 174.894 88.549 L 183.91 84.225 L 167.695 50.412 Z  M 166.246 65.894 L 162.211 57.479 L 167.621 54.884 L 171.656 63.299 L 166.246 65.894 Z " fill="rgb(1,106,160)"/><path d=" M 354.91 84.225 L 338.695 50.412 L 329.677 54.736 L 345.894 88.549 L 354.91 84.225 Z  M 337.246 65.894 L 333.211 57.479 L 338.621 54.884 L 342.656 63.299 L 337.246 65.894 Z " fill="rgb(1,106,160)"/><path d=" M 371.578 84.225 L 355.361 50.412 L 346.345 54.736 L 362.56 88.549 L 371.578 84.225 Z  M 353.914 65.894 L 349.879 57.479 L 355.287 54.884 L 359.324 63.299 L 353.914 65.894 Z " fill="rgb(1,106,160)"/><path d=" M 183.209 131.189 L 145.227 131.189 C 145.185 131.285 145.155 131.384 145.112 131.48 C 144.597 132.623 144.069 133.731 143.535 134.824 L 160.21 134.824 L 160.21 144.221 L 138.354 144.221 C 137.58 145.472 136.792 146.683 135.995 147.855 L 183.211 147.855 L 183.211 131.189 L 183.209 131.189 Z " fill="rgb(1,106,160)"/><path d=" M 183.209 111.189 L 141.271 111.189 C 142.378 112.268 143.346 113.483 144.145 114.824 L 160.209 114.824 L 160.209 124.221 L 146.703 124.221 C 146.692 125.44 146.561 126.656 146.301 127.855 L 183.209 127.855 L 183.209 111.189 Z " fill="rgb(1,106,160)"/><path d=" M 88.373 131.189 C 88.249 136.546 86.831 141.589 84.406 146.009 C 85.179 145.688 85.975 145.338 86.801 144.935 C 91.245 142.743 95.255 139.903 98.875 136.404 L 98.875 131.189 L 88.373 131.189 L 88.373 131.189 Z " fill="rgb(1,106,160)"/><path d=" M 82.064 111.189 C 82.917 112.345 83.695 113.558 84.391 114.824 L 92.874 114.824 L 92.874 124.221 L 87.79 124.221 C 88.02 125.41 88.184 126.624 88.28 127.855 L 106.048 127.855 C 108.344 124.504 110.431 120.77 112.317 116.626 C 113.201 114.674 114.417 112.935 115.874 111.454 L 115.874 111.188 L 82.064 111.188 L 82.064 111.189 Z " fill="rgb(1,106,160)"/><path d=" M 218.877 147.855 L 280.543 147.855 L 280.543 131.189 L 218.877 131.189 L 218.877 147.855 Z  M 224.043 134.823 L 257.543 134.823 L 257.543 144.22 L 224.043 144.22 L 224.043 134.823 Z " fill="rgb(1,106,160)"/><path d=" M 288.211 147.855 L 349.877 147.855 L 349.877 131.189 L 288.211 131.189 L 288.211 147.855 Z  M 293.377 134.823 L 326.877 134.823 L 326.877 144.22 L 293.377 144.22 L 293.377 134.823 Z " fill="rgb(1,106,160)"/><path d=" M 296.711 111.189 L 296.711 127.855 L 358.377 127.855 L 358.377 111.189 L 296.711 111.189 Z  M 335.377 124.221 L 301.877 124.221 L 301.877 114.824 L 335.377 114.824 L 335.377 124.221 Z " fill="rgb(1,106,160)"/><path d=" M 289.875 111.189 L 228.209 111.189 L 228.209 127.855 L 289.875 127.855 L 289.875 111.189 Z  M 266.875 124.221 L 233.375 124.221 L 233.375 114.824 L 266.875 114.824 L 266.875 124.221 Z " fill="rgb(1,106,160)"/><rect x="137.877" y="244.731" width="45.334" height="22" transform="matrix(1,0,0,1,0,0)" fill="rgb(1,106,160)"/><rect x="129.209" y="236.398" width="40" height="4.5" transform="matrix(1,0,0,1,0,0)" fill="rgb(1,106,160)"/><rect x="138.709" y="228.398" width="40" height="4.5" transform="matrix(1,0,0,1,0,0)" fill="rgb(1,106,160)"/><rect x="213.209" y="261.398" width="40" height="4.5" transform="matrix(1,0,0,1,0,0)" fill="rgb(1,106,160)"/><rect x="222.709" y="252.815" width="40" height="4.5" transform="matrix(1,0,0,1,0,0)" fill="rgb(1,106,160)"/><rect x="217.209" y="244.232" width="40" height="4.5" transform="matrix(1,0,0,1,0,0)" fill="rgb(1,106,160)"/><rect x="219.877" y="235.648" width="40" height="4.5" transform="matrix(1,0,0,1,0,0)" fill="rgb(1,106,160)"/><rect x="92.937" y="261.398" width="20.272" height="4.5" transform="matrix(1,0,0,1,0,0)" fill="rgb(1,106,160)"/><rect x="92.937" y="252.815" width="29.772" height="4.5" transform="matrix(1,0,0,1,0,0)" fill="rgb(1,106,160)"/><rect x="92.937" y="244.232" width="24.272" height="4.5" transform="matrix(1,0,0,1,0,0)" fill="rgb(1,106,160)"/><rect x="92.937" y="235.648" width="26.94" height="4.5" transform="matrix(1,0,0,1,0,0)" fill="rgb(1,106,160)"/><rect x="323.543" y="261.398" width="40" height="4.5" transform="matrix(1,0,0,1,0,0)" fill="rgb(1,106,160)"/><rect x="333.043" y="252.815" width="40" height="4.5" transform="matrix(1,0,0,1,0,0)" fill="rgb(1,106,160)"/><rect x="327.543" y="244.232" width="40" height="4.5" transform="matrix(1,0,0,1,0,0)" fill="rgb(1,106,160)"/><rect x="324.543" y="235.648" width="40" height="4.5" transform="matrix(1,0,0,1,0,0)" fill="rgb(1,106,160)"/><rect x="268.709" y="261.398" width="40" height="4.5" transform="matrix(1,0,0,1,0,0)" fill="rgb(1,106,160)"/><rect x="275.709" y="252.815" width="40" height="4.5" transform="matrix(1,0,0,1,0,0)" fill="rgb(1,106,160)"/><rect x="270.209" y="244.232" width="40" height="4.5" transform="matrix(1,0,0,1,0,0)" fill="rgb(1,106,160)"/><rect x="270.209" y="235.648" width="40" height="4.5" transform="matrix(1,0,0,1,0,0)" fill="rgb(1,106,160)"/><rect x="276.709" y="227.648" width="40" height="4.5" transform="matrix(1,0,0,1,0,0)" fill="rgb(1,106,160)"/><rect x="342.128" y="167.889" width="4.5" height="40" transform="matrix(0.9,-0.436,0.436,0.9,-47.461,168.903)" fill="rgb(1,106,160)"/><rect x="352.443" y="167.908" width="4.5" height="39.998" transform="matrix(0.9,-0.436,0.436,0.9,-46.436,173.365)" fill="rgb(1,106,160)"/><rect x="362.795" y="167.892" width="4.5" height="40" transform="matrix(0.9,-0.436,0.436,0.9,-45.396,177.912)" fill="rgb(1,106,160)"/><rect x="276.709" y="172.648" width="40" height="4.5" transform="matrix(1,0,0,1,0,0)" fill="rgb(1,106,160)"/><circle vector-effect="non-scaling-stroke" cx="55.893" cy="130.428" r="22.5" fill="rgb(1,106,160)"/><path d=" M 82.937 173.606 C 86.982 172.746 92.283 171.183 98.201 168.303 C 110.711 162.254 125.781 150.056 136 127.36 C 137.818 123.334 136.031 118.594 132.006 116.775 C 127.983 114.952 123.242 116.74 121.422 120.766 C 112.639 140.067 100.818 149.17 91.188 153.92 C 86.372 156.273 82.087 157.468 79.09 158.067 C 77.592 158.367 76.42 158.519 75.668 158.592 C 75.508 158.608 75.377 158.619 75.256 158.629 C 75.24 158.629 75.225 158.627 75.209 158.627 L 36.574 158.627 C 36.404 158.627 36.24 158.642 36.072 158.652 C 34.256 158.692 31.324 159.104 27.996 160.781 C 22.615 163.448 16.818 169.283 12.76 179.621 C 8.653 190 5.895 205.007 5.883 227.666 C 5.883 233.524 6.071 239.891 6.477 246.825 C 6.727 251.076 10.252 254.357 14.458 254.357 C 14.616 254.357 14.774 254.353 14.934 254.343 C 19.342 254.084 22.709 250.298 22.45 245.887 C 22.059 239.237 21.882 233.179 21.884 227.665 C 21.849 203.453 25.378 189.849 28.847 182.75 L 28.847 332.747 C 28.847 339.577 34.384 345.11 41.21 345.11 C 48.038 345.11 53.575 339.577 53.575 332.747 L 53.575 242.476 L 58.21 242.476 L 58.21 332.747 C 58.21 339.577 63.747 345.11 70.573 345.11 C 77.401 345.11 82.938 339.577 82.938 332.747 L 82.938 173.606 L 82.937 173.606 Z " fill="rgb(1,106,160)"/></g></svg>
