<?xml version="1.0" standalone="no"?> <svg xmlns="http://www.w3.org/2000/svg" xmlns:xlink="http://www.w3.org/1999/xlink" style="isolation:isolate" viewBox="0 0 298.84 168.098" width="298.84" height="168.098"><defs><clipPath id="_clipPath_stkwHmPOEI1GhYhxGJstTNd6w8MXjClj"><rect width="298.84" height="168.098"/></clipPath></defs><g clip-path="url(#_clipPath_stkwHmPOEI1GhYhxGJstTNd6w8MXjClj)"><path d=" M 140.23 0.416 C 124.576 3.203 110.998 14.943 105.721 30.419 C 102.637 39.313 102.519 48.207 105.187 69.671 C 107.203 86.332 107.144 88.23 104.298 94.515 C 102.637 98.191 97.538 103.409 93.684 105.484 C 92.142 106.314 90.897 107.145 90.897 107.382 C 90.897 108.034 98.724 112.422 103.764 114.616 C 108.982 116.809 116.038 119.181 121.552 120.604 C 136.672 124.399 157.543 124.28 174.738 120.248 C 181.557 118.648 193.535 114.556 199.82 111.769 L 204.504 109.576 L 202.784 108.508 C 200.175 106.907 196.618 103.29 194.661 100.207 C 190.273 93.27 189.621 85.74 191.874 69.256 C 192.823 62.141 193.238 56.448 193.238 48.503 C 193.297 35.755 192.764 33.146 188.435 24.193 C 186.064 19.449 184.818 17.73 180.312 13.223 C 174.264 7.175 168.691 3.855 160.982 1.661 C 155.765 0.119 145.21 -0.473 140.23 0.416 Z " fill="rgb(1,106,160)"/><rect x="19.448" y="33.917" width="24.548" height="2.372" transform="matrix(1,0,0,1,0,0)" fill="rgb(1,106,160)"/><rect x="24.192" y="60.421" width="40.794" height="2.372" transform="matrix(1,0,0,1,0,0)" fill="rgb(1,106,160)"/><rect x="55.084" y="68.011" width="7.649" height="2.372" transform="matrix(1,0,0,1,0,0)" fill="rgb(1,106,160)"/><rect x="24.192" y="52.832" width="32.849" height="2.372" transform="matrix(1,0,0,1,0,0)" fill="rgb(1,106,160)"/><rect x="24.192" y="56.745" width="12.926" height="2.372" transform="matrix(1,0,0,1,0,0)" fill="rgb(1,106,160)"/><rect x="36.643" y="94.396" width="37.948" height="2.372" transform="matrix(1,0,0,1,0,0)" fill="rgb(1,106,160)"/><rect x="19.448" y="41.388" width="6.878" height="2.372" transform="matrix(1,0,0,1,0,0)" fill="rgb(1,106,160)"/><rect x="19.448" y="22.592" width="38.897" height="2.372" transform="matrix(1,0,0,1,0,0)" fill="rgb(1,106,160)"/><rect x="19.448" y="26.505" width="45.538" height="2.372" transform="matrix(1,0,0,1,0,0)" fill="rgb(1,106,160)"/><rect x="24.192" y="49.037" width="15.357" height="2.372" transform="matrix(1,0,0,1,0,0)" fill="rgb(1,106,160)"/><rect x="21.227" y="45.361" width="19.804" height="2.372" transform="matrix(1,0,0,1,0,0)" fill="rgb(1,106,160)"/><rect x="59.234" y="52.832" width="15.357" height="2.372" transform="matrix(1,0,0,1,0,0)" fill="rgb(1,106,160)"/><rect x="66.883" y="60.421" width="7.649" height="2.372" transform="matrix(1,0,0,1,0,0)" fill="rgb(1,106,160)"/><rect x="15.298" y="22.592" width="2.253" height="2.253" transform="matrix(1,0,0,1,0,0)" fill="rgb(1,106,160)"/><rect x="15.298" y="26.564" width="2.253" height="2.253" transform="matrix(1,0,0,1,0,0)" fill="rgb(1,106,160)"/><rect x="15.298" y="30.241" width="2.253" height="2.253" transform="matrix(1,0,0,1,0,0)" fill="rgb(1,106,160)"/><rect x="15.298" y="56.804" width="2.253" height="2.253" transform="matrix(1,0,0,1,0,0)" fill="rgb(1,106,160)"/><rect x="15.298" y="33.976" width="2.253" height="2.253" transform="matrix(1,0,0,1,0,0)" fill="rgb(1,106,160)"/><rect x="15.298" y="60.48" width="2.253" height="2.253" transform="matrix(1,0,0,1,0,0)" fill="rgb(1,106,160)"/><rect x="15.298" y="45.361" width="2.253" height="2.253" transform="matrix(1,0,0,1,0,0)" fill="rgb(1,106,160)"/><rect x="15.298" y="37.949" width="2.253" height="2.253" transform="matrix(1,0,0,1,0,0)" fill="rgb(1,106,160)"/><rect x="15.298" y="41.447" width="2.253" height="2.253" transform="matrix(1,0,0,1,0,0)" fill="rgb(1,106,160)"/><rect x="15.298" y="49.096" width="2.253" height="2.253" transform="matrix(1,0,0,1,0,0)" fill="rgb(1,106,160)"/><rect x="15.298" y="52.891" width="2.253" height="2.253" transform="matrix(1,0,0,1,0,0)" fill="rgb(1,106,160)"/><rect x="264.746" y="48.918" width="25.318" height="2.372" transform="matrix(1,0,0,1,0,0)" fill="rgb(1,106,160)"/><rect x="264.746" y="55.085" width="25.318" height="2.372" transform="matrix(1,0,0,1,0,0)" fill="rgb(1,106,160)"/><rect x="264.746" y="61.014" width="25.318" height="2.372" transform="matrix(1,0,0,1,0,0)" fill="rgb(1,106,160)"/><rect x="264.746" y="67.003" width="25.318" height="2.372" transform="matrix(1,0,0,1,0,0)" fill="rgb(1,106,160)"/><rect x="264.746" y="72.932" width="25.318" height="2.372" transform="matrix(1,0,0,1,0,0)" fill="rgb(1,106,160)"/><rect x="264.746" y="79.158" width="25.318" height="2.372" transform="matrix(1,0,0,1,0,0)" fill="rgb(1,106,160)"/><rect x="264.746" y="85.028" width="25.318" height="2.372" transform="matrix(1,0,0,1,0,0)" fill="rgb(1,106,160)"/><rect x="264.746" y="91.135" width="25.318" height="2.372" transform="matrix(1,0,0,1,0,0)" fill="rgb(1,106,160)"/><rect x="264.746" y="96.946" width="25.318" height="2.372" transform="matrix(1,0,0,1,0,0)" fill="rgb(1,106,160)"/><rect x="264.746" y="27.572" width="25.318" height="17.788" transform="matrix(1,0,0,1,0,0)" fill="rgb(1,106,160)"/><path d=" M 171.774 4.211 C 172.96 4.922 174.146 5.693 175.272 6.582 C 174.146 5.693 172.96 4.922 171.774 4.211 Z " fill="rgb(1,106,160)"/><path d=" M 168.098 2.254 C 169.343 2.847 170.588 3.499 171.774 4.211 C 170.588 3.499 169.402 2.847 168.098 2.254 Z " fill="rgb(1,106,160)"/><rect x="15.298" y="71.746" width="2.253" height="2.253" transform="matrix(1,0,0,1,0,0)" fill="rgb(1,106,160)"/><rect x="15.298" y="68.189" width="2.253" height="2.253" transform="matrix(1,0,0,1,0,0)" fill="rgb(1,106,160)"/><rect x="15.298" y="75.66" width="2.253" height="2.253" transform="matrix(1,0,0,1,0,0)" fill="rgb(1,106,160)"/><rect x="15.298" y="64.275" width="2.253" height="2.253" transform="matrix(1,0,0,1,0,0)" fill="rgb(1,106,160)"/><rect x="15.298" y="56.804" width="2.253" height="2.253" transform="matrix(1,0,0,1,0,0)" fill="rgb(1,106,160)"/><rect x="15.298" y="45.361" width="2.253" height="2.253" transform="matrix(1,0,0,1,0,0)" fill="rgb(1,106,160)"/><rect x="15.298" y="49.096" width="2.253" height="2.253" transform="matrix(1,0,0,1,0,0)" fill="rgb(1,106,160)"/><rect x="15.298" y="60.48" width="2.253" height="2.253" transform="matrix(1,0,0,1,0,0)" fill="rgb(1,106,160)"/><rect x="15.298" y="79.395" width="2.253" height="2.253" transform="matrix(1,0,0,1,0,0)" fill="rgb(1,106,160)"/><rect x="15.298" y="52.891" width="2.253" height="2.253" transform="matrix(1,0,0,1,0,0)" fill="rgb(1,106,160)"/><rect x="19.448" y="79.277" width="6.878" height="2.372" transform="matrix(1,0,0,1,0,0)" fill="rgb(1,106,160)"/><rect x="19.448" y="71.687" width="11.681" height="2.372" transform="matrix(1,0,0,1,0,0)" fill="rgb(1,106,160)"/><rect x="15.298" y="101.986" width="2.253" height="2.253" transform="matrix(1,0,0,1,0,0)" fill="rgb(1,106,160)"/><rect x="19.448" y="41.388" width="6.878" height="2.372" transform="matrix(1,0,0,1,0,0)" fill="rgb(1,106,160)"/><rect x="15.298" y="98.251" width="2.253" height="2.253" transform="matrix(1,0,0,1,0,0)" fill="rgb(1,106,160)"/><rect x="15.298" y="87.103" width="2.253" height="2.253" transform="matrix(1,0,0,1,0,0)" fill="rgb(1,106,160)"/><rect x="15.298" y="90.839" width="2.253" height="2.253" transform="matrix(1,0,0,1,0,0)" fill="rgb(1,106,160)"/><rect x="19.448" y="33.917" width="24.548" height="2.372" transform="matrix(1,0,0,1,0,0)" fill="rgb(1,106,160)"/><rect x="15.298" y="94.456" width="2.253" height="2.253" transform="matrix(1,0,0,1,0,0)" fill="rgb(1,106,160)"/><rect x="15.298" y="83.19" width="2.253" height="2.253" transform="matrix(1,0,0,1,0,0)" fill="rgb(1,106,160)"/><rect x="262.493" y="22.888" width="29.706" height="82.122" transform="matrix(1,0,0,1,0,0)" fill="rgb(1,106,160)"/><rect x="19.448" y="101.927" width="6.878" height="2.372" transform="matrix(1,0,0,1,0,0)" fill="rgb(1,106,160)"/><rect x="15.298" y="26.564" width="2.253" height="2.253" transform="matrix(1,0,0,1,0,0)" fill="rgb(1,106,160)"/><rect x="15.298" y="30.241" width="2.253" height="2.253" transform="matrix(1,0,0,1,0,0)" fill="rgb(1,106,160)"/><rect x="15.298" y="37.949" width="2.253" height="2.253" transform="matrix(1,0,0,1,0,0)" fill="rgb(1,106,160)"/><rect x="15.298" y="33.976" width="2.253" height="2.253" transform="matrix(1,0,0,1,0,0)" fill="rgb(1,106,160)"/><rect x="15.298" y="41.447" width="2.253" height="2.253" transform="matrix(1,0,0,1,0,0)" fill="rgb(1,106,160)"/><rect x="15.298" y="22.592" width="2.253" height="2.253" transform="matrix(1,0,0,1,0,0)" fill="rgb(1,106,160)"/><rect x="21.227" y="45.361" width="19.804" height="2.372" transform="matrix(1,0,0,1,0,0)" fill="rgb(1,106,160)"/><rect x="24.192" y="49.037" width="15.357" height="2.372" transform="matrix(1,0,0,1,0,0)" fill="rgb(1,106,160)"/><rect x="24.192" y="68.011" width="28.757" height="2.372" transform="matrix(1,0,0,1,0,0)" fill="rgb(1,106,160)"/><rect x="21.464" y="83.071" width="27.927" height="2.372" transform="matrix(1,0,0,1,0,0)" fill="rgb(1,106,160)"/><rect x="24.192" y="56.745" width="12.926" height="2.372" transform="matrix(1,0,0,1,0,0)" fill="rgb(1,106,160)"/><rect x="24.192" y="64.157" width="19.863" height="2.372" transform="matrix(1,0,0,1,0,0)" fill="rgb(1,106,160)"/><path d=" M 121.137 7.116 C 121.967 6.523 122.738 5.93 123.627 5.337 C 122.738 5.93 121.967 6.523 121.137 7.116 Z " fill="rgb(1,106,160)"/><rect x="24.192" y="86.748" width="15.357" height="2.372" transform="matrix(1,0,0,1,0,0)" fill="rgb(1,106,160)"/><path d=" M 123.627 5.397 C 124.457 4.863 125.347 4.329 126.177 3.796 C 125.288 4.329 124.457 4.804 123.627 5.397 Z " fill="rgb(1,106,160)"/><path d=" M 233.38 155.291 C 233.558 155.884 233.736 156.536 233.914 157.188 C 233.736 156.536 233.558 155.884 233.38 155.291 Z " fill="rgb(1,106,160)"/><path d=" M 234.329 159.086 C 234.447 159.738 234.566 160.39 234.625 160.983 C 234.566 160.331 234.447 159.738 234.329 159.086 Z " fill="rgb(1,106,160)"/><rect x="24.192" y="60.421" width="40.794" height="2.372" transform="matrix(1,0,0,1,0,0)" fill="rgb(1,106,160)"/><rect x="55.084" y="68.011" width="7.649" height="2.372" transform="matrix(1,0,0,1,0,0)" fill="rgb(1,106,160)"/><rect x="66.883" y="60.421" width="7.649" height="2.372" transform="matrix(1,0,0,1,0,0)" fill="rgb(1,106,160)"/><rect x="24.192" y="52.832" width="32.849" height="2.372" transform="matrix(1,0,0,1,0,0)" fill="rgb(1,106,160)"/><rect x="19.448" y="22.592" width="38.897" height="2.372" transform="matrix(1,0,0,1,0,0)" fill="rgb(1,106,160)"/><rect x="59.234" y="52.832" width="15.357" height="2.372" transform="matrix(1,0,0,1,0,0)" fill="rgb(1,106,160)"/><rect x="19.448" y="26.505" width="45.538" height="2.372" transform="matrix(1,0,0,1,0,0)" fill="rgb(1,106,160)"/><rect x="24.192" y="94.396" width="9.961" height="2.372" transform="matrix(1,0,0,1,0,0)" fill="rgb(1,106,160)"/><rect x="24.192" y="90.78" width="15.357" height="2.372" transform="matrix(1,0,0,1,0,0)" fill="rgb(1,106,160)"/><rect x="36.643" y="94.396" width="37.948" height="2.372" transform="matrix(1,0,0,1,0,0)" fill="rgb(1,106,160)"/><path d=" M 298.84 112.896 L 298.84 13.698 L 186.301 13.698 C 188.376 16.129 189.621 18.145 191.4 21.643 L 191.4 21.643 L 191.4 21.643 C 193.831 26.683 195.135 29.944 195.847 33.917 L 240.732 33.917 L 240.732 36.289 L 196.143 36.289 C 196.203 36.763 196.262 37.237 196.262 37.771 L 209.307 37.771 L 209.307 40.143 L 196.44 40.143 C 196.44 40.617 196.499 41.032 196.499 41.506 L 215.177 41.506 L 215.177 43.878 L 196.559 43.878 C 196.559 44.946 196.559 46.131 196.559 47.436 C 196.559 50.756 196.499 53.78 196.321 56.626 L 219.624 56.626 L 219.624 58.998 L 196.143 58.998 C 196.025 60.658 195.847 62.378 195.669 64.157 L 209.722 64.157 L 209.722 66.528 L 195.432 66.528 C 195.373 67.062 195.313 67.655 195.195 68.189 L 201.243 68.189 L 201.243 70.56 L 194.898 70.56 C 194.839 70.916 194.78 71.272 194.78 71.628 L 212.271 71.628 L 212.271 73.999 L 194.483 73.999 C 193.89 79.217 193.712 83.368 193.95 86.866 L 203.674 86.866 L 203.674 89.238 L 194.187 89.238 C 194.246 89.653 194.305 90.127 194.424 90.542 L 203.674 90.542 L 203.674 92.914 L 194.958 92.914 C 195.135 93.507 195.313 94.041 195.551 94.574 L 230 94.574 L 230 96.946 L 196.618 96.946 C 196.796 97.302 197.033 97.658 197.211 98.013 L 224.842 98.013 L 224.842 100.385 L 198.812 100.385 C 200.65 102.757 203.199 105.188 205.097 106.374 L 206.816 107.441 L 210.552 109.753 L 206.579 111.592 L 202.547 113.489 L 202.547 131.336 C 204.682 132.107 206.757 132.819 208.951 133.471 C 215.414 135.368 220.454 137.384 224.308 139.815 L 224.308 112.837 L 298.84 112.837 L 298.84 112.896 Z  M 262.493 22.888 L 292.199 22.888 L 292.199 105.069 L 262.493 105.069 L 262.493 22.888 Z  M 212.271 64.157 L 223.122 64.157 L 223.122 66.528 L 212.271 66.528 L 212.271 64.157 Z  M 214.347 70.56 L 204.267 70.56 L 204.267 68.189 L 214.347 68.189 L 214.347 70.56 Z  M 226.028 74.059 L 215.058 74.059 L 215.058 71.687 L 226.028 71.687 L 226.028 74.059 Z " fill="rgb(1,106,160)"/><path d=" M 94.988 131.04 L 94.988 113.193 C 94.514 112.955 94.04 112.659 93.565 112.422 C 88.525 109.576 87.755 108.746 87.755 107.263 C 87.755 105.84 88.644 104.951 91.846 103.231 C 95.344 101.334 100.147 96.353 101.629 93.151 C 104.179 87.518 104.416 86.332 102.341 69.197 C 101.867 65.461 101.511 62.141 101.214 59.057 L 39.786 59.057 L 39.786 56.686 L 100.977 56.686 C 99.791 43.048 100.384 35.755 102.993 28.284 C 104.831 22.948 107.618 17.967 111.057 13.638 L 0 13.638 L 0 112.837 L 73.228 112.837 L 73.228 139.222 C 76.607 137.325 80.817 135.783 85.976 134.538 C 87.814 134.123 90.779 132.997 94.988 131.04 Z  M 21.227 47.732 L 21.227 45.361 L 41.031 45.361 L 41.031 47.732 L 21.227 47.732 Z  M 39.49 49.037 L 39.49 51.409 L 24.133 51.409 L 24.133 49.037 L 39.49 49.037 Z  M 24.192 56.745 L 37.118 56.745 L 37.118 59.117 L 24.192 59.117 L 24.192 56.745 Z  M 24.192 64.157 L 44.055 64.157 L 44.055 66.528 L 24.192 66.528 L 24.192 64.157 Z  M 24.192 68.011 L 52.949 68.011 L 52.949 70.382 L 24.192 70.382 L 24.192 68.011 Z  M 21.464 85.443 L 21.464 83.071 L 49.392 83.071 L 49.392 85.443 L 21.464 85.443 Z  M 39.49 86.748 L 39.49 89.119 L 24.133 89.119 L 24.133 86.748 L 39.49 86.748 Z  M 24.192 94.396 L 34.153 94.396 L 34.153 96.768 L 24.192 96.768 L 24.192 94.396 Z  M 24.192 93.151 L 24.192 90.78 L 39.549 90.78 L 39.549 93.151 L 24.192 93.151 Z  M 36.643 94.396 L 74.591 94.396 L 74.591 96.768 L 36.643 96.768 L 36.643 94.396 Z  M 42.751 93.151 L 42.751 90.78 L 87.933 90.78 L 87.933 93.151 L 42.751 93.151 Z  M 42.751 89.119 L 42.751 86.748 L 87.933 86.748 L 87.933 89.119 L 42.751 89.119 Z  M 55.084 70.382 L 55.084 68.011 L 62.733 68.011 L 62.733 70.382 L 55.084 70.382 Z  M 66.883 60.421 L 74.532 60.421 L 74.532 62.793 L 66.883 62.793 L 66.883 60.421 Z  M 64.927 60.421 L 64.927 62.793 L 24.133 62.793 L 24.133 60.421 L 64.927 60.421 Z  M 56.981 55.203 L 24.133 55.203 L 24.133 52.832 L 56.981 52.832 L 56.981 55.203 Z  M 74.532 55.203 L 59.175 55.203 L 59.175 52.832 L 74.532 52.832 L 74.532 55.203 Z  M 19.448 22.592 L 58.345 22.592 L 58.345 24.964 L 19.448 24.964 L 19.448 22.592 L 19.448 22.592 Z  M 19.448 26.505 L 64.986 26.505 L 64.986 28.877 L 19.448 28.877 L 19.448 26.505 Z  M 19.448 33.917 L 43.996 33.917 L 43.996 36.289 L 19.448 36.289 L 19.448 33.917 Z  M 19.448 41.388 L 26.326 41.388 L 26.326 43.76 L 19.448 43.76 L 19.448 41.388 Z  M 19.448 71.687 L 31.129 71.687 L 31.129 74.059 L 19.448 74.059 L 19.448 71.687 Z  M 19.448 79.277 L 26.326 79.277 L 26.326 81.648 L 19.448 81.648 L 19.448 79.277 Z  M 17.551 104.298 L 15.298 104.298 L 15.298 102.045 L 17.551 102.045 L 17.551 104.298 Z  M 17.551 100.504 L 15.298 100.504 L 15.298 98.251 L 17.551 98.251 L 17.551 100.504 Z  M 17.551 96.709 L 15.298 96.709 L 15.298 94.456 L 17.551 94.456 L 17.551 96.709 Z  M 17.551 93.092 L 15.298 93.092 L 15.298 90.839 L 17.551 90.839 L 17.551 93.092 Z  M 17.551 89.356 L 15.298 89.356 L 15.298 87.103 L 17.551 87.103 L 17.551 89.356 Z  M 17.551 85.443 L 15.298 85.443 L 15.298 83.19 L 17.551 83.19 L 17.551 85.443 Z  M 17.551 81.648 L 15.298 81.648 L 15.298 79.395 L 17.551 79.395 L 17.551 81.648 Z  M 17.551 77.913 L 15.298 77.913 L 15.298 75.66 L 17.551 75.66 L 17.551 77.913 Z  M 17.551 73.999 L 15.298 73.999 L 15.298 71.746 L 17.551 71.746 L 17.551 73.999 Z  M 17.551 70.501 L 15.298 70.501 L 15.298 68.248 L 17.551 68.248 L 17.551 70.501 Z  M 17.551 66.528 L 15.298 66.528 L 15.298 64.275 L 17.551 64.275 L 17.551 66.528 Z  M 17.551 62.793 L 15.298 62.793 L 15.298 60.54 L 17.551 60.54 L 17.551 62.793 Z  M 17.551 59.057 L 15.298 59.057 L 15.298 56.804 L 17.551 56.804 L 17.551 59.057 Z  M 17.551 55.144 L 15.298 55.144 L 15.298 52.891 L 17.551 52.891 L 17.551 55.144 Z  M 17.551 51.349 L 15.298 51.349 L 15.298 49.096 L 17.551 49.096 L 17.551 51.349 Z  M 17.551 47.673 L 15.298 47.673 L 15.298 45.42 L 17.551 45.42 L 17.551 47.673 Z  M 17.551 43.7 L 15.298 43.7 L 15.298 41.447 L 17.551 41.447 L 17.551 43.7 Z  M 17.551 40.202 L 15.298 40.202 L 15.298 37.949 L 17.551 37.949 L 17.551 40.202 Z  M 17.551 36.229 L 15.298 36.229 L 15.298 33.976 L 17.551 33.976 L 17.551 36.229 Z  M 17.551 32.494 L 15.298 32.494 L 15.298 30.241 L 17.551 30.241 L 17.551 32.494 Z  M 17.551 28.818 L 15.298 28.818 L 15.298 26.564 L 17.551 26.564 L 17.551 28.818 Z  M 17.551 24.845 L 15.298 24.845 L 15.298 22.592 L 17.551 22.592 L 17.551 24.845 Z  M 26.326 104.298 L 19.448 104.298 L 19.448 101.927 L 26.326 101.927 L 26.326 104.298 Z  M 24.192 100.563 L 24.192 98.191 L 95.048 98.191 L 95.048 100.563 L 24.192 100.563 Z " fill="rgb(1,106,160)"/><path d=" M 234.625 160.983 C 234.566 160.331 234.447 159.738 234.329 159.086 C 234.21 158.434 234.091 157.781 233.914 157.188 C 233.736 156.536 233.558 155.943 233.38 155.291 C 233.083 154.402 232.787 153.512 232.491 152.682 C 232.194 151.852 231.838 151.14 231.483 150.488 C 230.83 149.243 230 148.057 229.111 146.99 C 228.636 146.456 228.162 145.923 227.628 145.389 C 227.273 145.033 226.917 144.737 226.502 144.381 C 226.324 144.203 226.087 144.025 225.909 143.907 C 225.494 143.61 225.079 143.254 224.664 142.958 C 224.545 142.899 224.427 142.78 224.367 142.721 C 220.513 140.053 215.295 137.859 208.299 135.783 C 206.342 135.19 204.445 134.598 202.547 133.886 C 196.855 131.87 191.281 129.261 184.581 125.585 L 179.245 122.68 L 174.62 123.628 C 173.375 123.865 172.13 124.103 170.944 124.34 C 170.529 124.399 170.173 124.458 169.758 124.577 C 168.928 124.696 168.157 124.873 167.327 124.992 C 166.852 125.051 166.378 125.111 165.904 125.229 C 165.192 125.348 164.481 125.466 163.769 125.526 C 163.295 125.585 162.761 125.644 162.287 125.704 C 161.635 125.763 160.982 125.881 160.33 125.941 C 159.796 126 159.322 126.059 158.788 126.119 C 158.136 126.178 157.543 126.237 156.891 126.296 C 156.357 126.356 155.883 126.356 155.349 126.415 C 154.757 126.474 154.104 126.534 153.511 126.534 C 152.978 126.534 152.503 126.593 151.97 126.593 C 151.377 126.593 150.784 126.652 150.191 126.652 C 149.657 126.652 149.183 126.652 148.649 126.652 C 148.234 126.652 147.76 126.652 147.345 126.652 C 147.167 126.652 147.048 126.652 146.87 126.652 C 146.278 126.652 145.625 126.652 145.032 126.652 C 144.499 126.652 143.965 126.652 143.431 126.593 C 142.838 126.593 142.186 126.534 141.593 126.534 C 141.06 126.534 140.526 126.474 139.992 126.474 C 139.34 126.415 138.747 126.356 138.095 126.296 C 137.561 126.237 137.028 126.237 136.494 126.178 C 135.842 126.119 135.19 126.059 134.537 125.941 C 134.004 125.881 133.47 125.822 132.936 125.763 C 132.284 125.704 131.573 125.585 130.92 125.466 C 130.387 125.407 129.912 125.348 129.379 125.229 C 128.667 125.111 127.956 124.992 127.185 124.873 C 126.711 124.814 126.177 124.696 125.703 124.636 C 124.872 124.518 124.042 124.34 123.212 124.162 C 122.797 124.103 122.382 123.984 121.967 123.925 C 120.722 123.688 119.417 123.391 118.113 123.095 C 118.054 123.095 117.994 123.095 117.935 123.095 C 117.876 123.095 117.876 123.095 117.817 123.095 C 117.757 123.095 117.698 123.095 117.639 123.095 C 117.579 123.095 117.52 123.095 117.461 123.154 C 117.401 123.154 117.342 123.213 117.224 123.213 C 117.164 123.213 117.105 123.272 116.986 123.272 C 116.927 123.272 116.809 123.332 116.749 123.332 C 116.69 123.332 116.571 123.391 116.512 123.45 C 116.393 123.51 116.334 123.51 116.216 123.569 C 116.097 123.628 116.038 123.628 115.919 123.688 C 115.801 123.747 115.682 123.806 115.563 123.806 C 115.445 123.865 115.326 123.925 115.208 123.925 C 115.089 123.984 114.97 124.043 114.793 124.103 C 114.674 124.162 114.555 124.221 114.378 124.28 C 114.259 124.34 114.081 124.399 113.903 124.458 C 113.785 124.518 113.607 124.577 113.488 124.636 C 113.31 124.696 113.132 124.755 113.014 124.873 C 112.836 124.933 112.717 124.992 112.539 125.051 C 112.362 125.111 112.184 125.229 112.006 125.288 C 111.828 125.348 111.709 125.407 111.531 125.526 C 111.354 125.585 111.116 125.704 110.938 125.822 C 110.761 125.881 110.583 126 110.405 126.059 C 110.227 126.178 109.99 126.237 109.753 126.356 C 109.575 126.415 109.397 126.534 109.219 126.593 C 108.982 126.711 108.745 126.83 108.507 126.949 C 108.33 127.008 108.152 127.127 107.974 127.186 C 107.737 127.304 107.499 127.423 107.203 127.542 C 107.025 127.66 106.847 127.719 106.61 127.838 C 106.314 127.957 106.017 128.135 105.721 128.253 C 105.543 128.312 105.424 128.431 105.246 128.49 C 104.772 128.727 104.298 128.965 103.823 129.202 C 102.163 130.032 100.681 130.743 99.198 131.455 C 98.25 131.929 97.36 132.344 96.471 132.759 C 95.878 133.056 95.344 133.293 94.751 133.53 C 94.099 133.827 93.506 134.123 92.913 134.36 C 92.202 134.657 91.49 134.953 90.897 135.19 C 90.245 135.428 89.652 135.665 89.118 135.902 C 88.585 136.08 88.051 136.258 87.577 136.436 C 87.102 136.614 86.687 136.673 86.272 136.791 C 83.663 137.384 81.351 138.096 79.216 138.926 C 78.801 139.104 78.386 139.222 77.971 139.4 C 77.141 139.756 76.37 140.053 75.659 140.468 C 74.71 140.942 73.821 141.476 72.931 142.009 C 72.813 142.069 72.694 142.128 72.575 142.246 C 71.923 142.661 71.39 143.077 70.797 143.551 C 69.967 144.203 69.196 144.974 68.543 145.745 C 64.867 149.836 63.326 155.35 63.326 162.762 L 63.326 168.098 L 117.164 168.098 C 146.811 168.098 185.352 167.921 202.784 167.683 L 234.566 167.328 L 234.566 164.541 C 234.922 163.414 234.803 162.228 234.625 160.983 Z " fill="rgb(1,106,160)"/><path d=" M 226.502 144.381 C 226.858 144.737 227.273 145.033 227.628 145.389 C 227.273 145.033 226.917 144.737 226.502 144.381 Z " fill="rgb(1,106,160)"/><path d=" M 224.664 142.958 C 225.079 143.254 225.494 143.61 225.909 143.907 C 225.553 143.551 225.138 143.254 224.664 142.958 Z " fill="rgb(1,106,160)"/><path d=" M 234.922 164.482 C 234.922 163.414 234.803 162.228 234.625 160.983 C 234.803 162.228 234.922 163.414 234.922 164.482 L 234.922 164.482 Z " fill="rgb(1,106,160)"/><path d=" M 71.093 143.551 C 71.627 143.077 72.22 142.661 72.872 142.246 C 72.279 142.661 71.686 143.136 71.093 143.551 Z " fill="rgb(1,106,160)"/><path d=" M 232.491 152.682 C 232.787 153.512 233.143 154.342 233.38 155.291 C 233.083 154.402 232.787 153.512 232.491 152.682 Z " fill="rgb(1,106,160)"/><path d=" M 232.491 152.682 C 232.194 151.852 231.838 151.14 231.483 150.488 C 230.83 149.243 230 148.057 229.111 146.99 C 230 148.117 230.83 149.243 231.483 150.488 C 231.838 151.14 232.135 151.852 232.491 152.682 Z " fill="rgb(1,106,160)"/><path d=" M 71.093 143.551 C 70.263 144.203 69.492 144.974 68.84 145.745 C 69.492 144.974 70.263 144.262 71.093 143.551 Z " fill="rgb(1,106,160)"/><path d=" M 75.955 140.527 C 76.667 140.171 77.438 139.815 78.268 139.46 C 77.438 139.815 76.667 140.171 75.955 140.527 Z " fill="rgb(1,106,160)"/></g></svg>
