<svg xmlns="http://www.w3.org/2000/svg" viewBox="0 0 298.84 168.098" fill="#2a3840"><defs><clipPath id="a"><path d="M0 0h298.84v168.098H0z"/></clipPath></defs><g clip-path="url(#a)"><path d="M140.23.416c-15.654 2.787-29.232 14.527-34.509 30.003-3.084 8.894-3.202 17.788-.534 39.252 2.016 16.661 1.957 18.559-.889 24.844-1.661 3.676-6.76 8.894-10.614 10.969-1.542.83-2.787 1.661-2.787 1.898 0 .652 7.827 5.04 12.867 7.234 5.218 2.193 12.274 4.565 17.788 5.988 15.12 3.795 35.991 3.676 53.186-.356 6.819-1.6 18.797-5.692 25.082-8.479l4.684-2.193-1.72-1.068c-2.609-1.601-6.166-5.218-8.123-8.301-4.388-6.937-5.04-14.467-2.787-30.951.949-7.115 1.364-12.808 1.364-20.753.059-12.748-.474-15.357-4.803-24.31-2.371-4.744-3.617-6.463-8.123-10.97-6.048-6.048-11.621-9.368-19.33-11.562C155.765.119 145.21-.473 140.23.416z" fill="#b75400"/><path d="M19.448 33.917h24.548v2.372H19.448zM24.192 60.421h40.794v2.372H24.192zM55.084 68.011h7.649v2.372h-7.649zM24.192 52.832h32.849v2.372H24.192zM24.192 56.745h12.926v2.372H24.192zM36.643 94.396h37.948v2.372H36.643zM19.448 41.388h6.878v2.372h-6.878zM19.448 22.592h38.897v2.372H19.448zM19.448 26.505h45.538v2.372H19.448zM24.192 49.037h15.357v2.372H24.192zM21.227 45.361h19.804v2.372H21.227zM59.234 52.832h15.357v2.372H59.234zM66.883 60.421h7.649v2.372h-7.649zM15.298 22.592h2.253v2.253h-2.253zM15.298 26.564h2.253v2.253h-2.253zM15.298 30.241h2.253v2.253h-2.253zM15.298 56.804h2.253v2.253h-2.253zM15.298 33.976h2.253v2.253h-2.253zM15.298 60.48h2.253v2.253h-2.253zM15.298 45.361h2.253v2.253h-2.253zM15.298 37.949h2.253v2.253h-2.253zM15.298 41.447h2.253V43.7h-2.253zM15.298 49.096h2.253v2.253h-2.253zM15.298 52.891h2.253v2.253h-2.253zM264.746 48.918h25.318v2.372h-25.318zM264.746 55.085h25.318v2.372h-25.318zM264.746 61.014h25.318v2.372h-25.318zM264.746 67.003h25.318v2.372h-25.318zM264.746 72.932h25.318v2.372h-25.318zM264.746 79.158h25.318v2.372h-25.318zM264.746 85.028h25.318V87.4h-25.318zM264.746 91.135h25.318v2.372h-25.318zM264.746 96.946h25.318v2.372h-25.318zM264.746 27.572h25.318V45.36h-25.318zM171.774 4.211c1.186.711 2.372 1.482 3.498 2.371-1.126-.889-2.312-1.66-3.498-2.371zM168.098 2.254a43.567 43.567 0 0 1 3.676 1.957 36.047 36.047 0 0 0-3.676-1.957zM15.298 71.746h2.253v2.253h-2.253zM15.298 68.189h2.253v2.253h-2.253zM15.298 75.66h2.253v2.253h-2.253zM15.298 64.275h2.253v2.253h-2.253z"/><path d="M15.298 56.804h2.253v2.253h-2.253zM15.298 45.361h2.253v2.253h-2.253zM15.298 49.096h2.253v2.253h-2.253zM15.298 60.48h2.253v2.253h-2.253zM15.298 79.395h2.253v2.253h-2.253zM15.298 52.891h2.253v2.253h-2.253zM19.448 79.277h6.878v2.372h-6.878zM19.448 71.687h11.681v2.372H19.448zM15.298 101.986h2.253v2.253h-2.253zM19.448 41.388h6.878v2.372h-6.878zM15.298 98.251h2.253v2.253h-2.253zM15.298 87.103h2.253v2.253h-2.253zM15.298 90.839h2.253v2.253h-2.253zM19.448 33.917h24.548v2.372H19.448zM15.298 94.456h2.253v2.253h-2.253zM15.298 83.19h2.253v2.253h-2.253zM262.493 22.888h29.706v82.122h-29.706zM19.448 101.927h6.878v2.372h-6.878zM15.298 26.564h2.253v2.253h-2.253zM15.298 30.241h2.253v2.253h-2.253zM15.298 37.949h2.253v2.253h-2.253zM15.298 33.976h2.253v2.253h-2.253zM15.298 41.447h2.253V43.7h-2.253zM15.298 22.592h2.253v2.253h-2.253zM21.227 45.361h19.804v2.372H21.227zM24.192 49.037h15.357v2.372H24.192zM24.192 68.011h28.757v2.372H24.192zM21.464 83.071h27.927v2.372H21.464zM24.192 56.745h12.926v2.372H24.192zM24.192 64.157h19.863v2.372H24.192zM121.137 7.116c.83-.593 1.601-1.186 2.49-1.779-.889.593-1.66 1.186-2.49 1.779zM24.192 86.748h15.357v2.372H24.192zM123.627 5.397c.83-.534 1.72-1.068 2.55-1.601-.889.533-1.72 1.008-2.55 1.601zM233.38 155.291c.178.593.356 1.245.534 1.897-.178-.652-.356-1.304-.534-1.897zM234.329 159.086c.118.652.237 1.304.296 1.897-.059-.652-.178-1.245-.296-1.897zM24.192 60.421h40.794v2.372H24.192zM55.084 68.011h7.649v2.372h-7.649zM66.883 60.421h7.649v2.372h-7.649zM24.192 52.832h32.849v2.372H24.192zM19.448 22.592h38.897v2.372H19.448zM59.234 52.832h15.357v2.372H59.234zM19.448 26.505h45.538v2.372H19.448zM24.192 94.396h9.961v2.372h-9.961zM24.192 90.78h15.357v2.372H24.192zM36.643 94.396h37.948v2.372H36.643z"/><path d="M298.84 112.896V13.698H186.301c2.075 2.431 3.32 4.447 5.099 7.945 2.431 5.04 3.735 8.301 4.447 12.274h44.885v2.372h-44.589c.06.474.119.948.119 1.482h13.045v2.372H196.44c0 .474.059.889.059 1.363h18.678v2.372h-18.618v3.558c0 3.32-.06 6.344-.238 9.19h23.303v2.372h-23.481c-.118 1.66-.296 3.38-.474 5.159h14.053v2.371h-14.29c-.059.534-.119 1.127-.237 1.661h6.048v2.371h-6.345c-.059.356-.118.712-.118 1.068h17.491v2.371h-17.788c-.593 5.218-.771 9.369-.533 12.867h9.724v2.372h-9.487c.059.415.118.889.237 1.304h9.25v2.372h-8.716c.177.593.355 1.127.593 1.66H230v2.372h-33.382c.178.356.415.712.593 1.067h27.631v2.372h-26.03c1.838 2.372 4.387 4.803 6.285 5.989l1.719 1.067 3.736 2.312-3.973 1.839-4.032 1.897v17.847c2.135.771 4.21 1.483 6.404 2.135 6.463 1.897 11.503 3.913 15.357 6.344v-26.978h74.532v.059zm-36.347-90.008h29.706v82.181h-29.706V22.888zm-50.222 41.269h10.851v2.371h-10.851v-2.371zm2.076 6.403h-10.08v-2.371h10.08v2.371zm11.681 3.499h-10.97v-2.372h10.97v2.372zM94.988 131.04v-17.847c-.474-.238-.948-.534-1.423-.771-5.04-2.846-5.81-3.676-5.81-5.159 0-1.423.889-2.312 4.091-4.032 3.498-1.897 8.301-6.878 9.783-10.08 2.55-5.633 2.787-6.819.712-23.954-.474-3.736-.83-7.056-1.127-10.14H39.786v-2.371h61.191c-1.186-13.638-.593-20.931 2.016-28.402 1.838-5.336 4.625-10.317 8.064-14.646H0v99.199h73.228v26.385c3.379-1.897 7.589-3.439 12.748-4.684 1.838-.415 4.803-1.541 9.012-3.498zM21.227 47.732v-2.371h19.804v2.371H21.227zm18.263 1.305v2.372H24.133v-2.372H39.49zm-15.298 7.708h12.926v2.372H24.192v-2.372zm0 7.412h19.863v2.371H24.192v-2.371zm0 3.854h28.757v2.371H24.192v-2.371zm-2.728 17.432v-2.372h27.928v2.372H21.464zm18.026 1.305v2.371H24.133v-2.371H39.49zm-15.298 7.648h9.961v2.372h-9.961v-2.372zm0-1.245V90.78h15.357v2.371H24.192zm12.451 1.245h37.948v2.372H36.643v-2.372zm6.108-1.245V90.78h45.182v2.371H42.751zm0-4.032v-2.371h45.182v2.371H42.751zm12.333-18.737v-2.371h7.649v2.371h-7.649zm11.799-9.961h7.649v2.372h-7.649v-2.372zm-1.956 0v2.372H24.133v-2.372h40.794zm-7.946-5.218H24.133v-2.371h32.848v2.371zm17.551 0H59.175v-2.371h15.357v2.371zM19.448 22.592h38.897v2.372H19.448v-2.372zm0 3.913h45.538v2.372H19.448v-2.372zm0 7.412h24.548v2.372H19.448v-2.372zm0 7.471h6.878v2.372h-6.878v-2.372zm0 30.299h11.681v2.372H19.448v-2.372zm0 7.59h6.878v2.371h-6.878v-2.371zm-1.897 25.021h-2.253v-2.253h2.253v2.253zm0-3.794h-2.253v-2.253h2.253v2.253zm0-3.795h-2.253v-2.253h2.253v2.253zm0-3.617h-2.253v-2.253h2.253v2.253zm0-3.736h-2.253v-2.253h2.253v2.253zm0-3.913h-2.253V83.19h2.253v2.253zm0-3.795h-2.253v-2.253h2.253v2.253zm0-3.735h-2.253V75.66h2.253v2.253zm0-3.914h-2.253v-2.253h2.253v2.253zm0-3.498h-2.253v-2.253h2.253v2.253zm0-3.973h-2.253v-2.253h2.253v2.253zm0-3.735h-2.253V60.54h2.253v2.253zm0-3.736h-2.253v-2.253h2.253v2.253zm0-3.913h-2.253v-2.253h2.253v2.253zm0-3.795h-2.253v-2.253h2.253v2.253zm0-3.676h-2.253V45.42h2.253v2.253zm0-3.973h-2.253v-2.253h2.253V43.7zm0-3.498h-2.253v-2.253h2.253v2.253zm0-3.973h-2.253v-2.253h2.253v2.253zm0-3.735h-2.253v-2.253h2.253v2.253zm0-3.676h-2.253v-2.254h2.253v2.254zm0-3.973h-2.253v-2.253h2.253v2.253zm8.775 79.453h-6.878v-2.371h6.878v2.371zm-2.134-3.735v-2.372h70.856v2.372H24.192z"/><path d="M234.625 160.983c-.059-.652-.178-1.245-.296-1.897-.119-.652-.238-1.305-.415-1.898-.178-.652-.356-1.245-.534-1.897-.297-.889-.593-1.779-.889-2.609a15.295 15.295 0 0 0-1.008-2.194c-.653-1.245-1.483-2.431-2.372-3.498-.475-.534-.949-1.067-1.483-1.601-.355-.356-.711-.652-1.126-1.008a4.102 4.102 0 0 0-.593-.474c-.415-.297-.83-.653-1.245-.949-.119-.059-.237-.178-.297-.237-3.854-2.668-9.072-4.862-16.068-6.938-1.957-.593-3.854-1.185-5.752-1.897-5.692-2.016-11.266-4.625-17.966-8.301l-5.336-2.905-4.625.948c-1.245.237-2.49.475-3.676.712a8.298 8.298 0 0 0-1.186.237c-.83.119-1.601.296-2.431.415-.475.059-.949.119-1.423.237-.712.119-1.423.237-2.135.297-.474.059-1.008.118-1.482.178-.652.059-1.305.177-1.957.237-.534.059-1.008.118-1.542.178-.652.059-1.245.118-1.897.177-.534.06-1.008.06-1.542.119-.592.059-1.245.119-1.838.119-.533 0-1.008.059-1.541.059-.593 0-1.186.059-1.779.059H145.032c-.533 0-1.067 0-1.601-.059-.593 0-1.245-.059-1.838-.059-.533 0-1.067-.06-1.601-.06-.652-.059-1.245-.118-1.897-.178-.534-.059-1.067-.059-1.601-.118-.652-.059-1.304-.119-1.957-.237l-1.601-.178a23.386 23.386 0 0 1-2.016-.297 13.674 13.674 0 0 1-1.541-.237c-.712-.118-1.423-.237-2.194-.356-.474-.059-1.008-.177-1.482-.237-.831-.118-1.661-.296-2.491-.474-.415-.059-.83-.178-1.245-.237-1.245-.237-2.55-.534-3.854-.83h-.474c-.06 0-.119 0-.178.059-.06 0-.119.059-.237.059-.06 0-.119.059-.238.059-.059 0-.177.06-.237.06a.45.45 0 0 0-.237.118c-.119.06-.178.06-.296.119-.119.059-.178.059-.297.119-.118.059-.237.118-.356.118-.118.059-.237.119-.355.119-.119.059-.238.118-.415.178a2.963 2.963 0 0 1-.415.177c-.119.06-.297.119-.475.178-.118.06-.296.119-.415.178-.178.06-.356.119-.474.237-.178.06-.297.119-.475.178-.177.06-.355.178-.533.237-.178.06-.297.119-.475.238a2.805 2.805 0 0 0-.593.296c-.177.059-.355.178-.533.237-.178.119-.415.178-.652.297-.178.059-.356.178-.534.237l-.712.356c-.177.059-.355.178-.533.237-.237.118-.475.237-.771.356-.178.118-.356.177-.593.296-.296.119-.593.297-.889.415-.178.059-.297.178-.475.237l-1.423.712c-1.66.83-3.142 1.541-4.625 2.253-.948.474-1.838.889-2.727 1.304-.593.297-1.127.534-1.72.771-.652.297-1.245.593-1.838.83-.711.297-1.423.593-2.016.83-.652.238-1.245.475-1.779.712-.533.178-1.067.356-1.541.534-.475.178-.89.237-1.305.355-2.609.593-4.921 1.305-7.056 2.135-.415.178-.83.296-1.245.474-.83.356-1.601.653-2.312 1.068-.949.474-1.838 1.008-2.728 1.541-.118.06-.237.119-.356.237-.652.415-1.185.831-1.778 1.305a15.838 15.838 0 0 0-2.254 2.194c-3.676 4.091-5.217 9.605-5.217 17.017v5.336h53.838c29.647 0 68.188-.177 85.62-.415l31.782-.355v-2.787c.356-1.127.237-2.313.059-3.558z" fill="#b75400"/><path d="M226.502 144.381c.356.356.771.652 1.126 1.008-.355-.356-.711-.652-1.126-1.008zM224.664 142.958c.415.296.83.652 1.245.949-.356-.356-.771-.653-1.245-.949zM234.922 164.482c0-1.068-.119-2.254-.297-3.499.178 1.245.297 2.431.297 3.499zM71.093 143.551c.534-.474 1.127-.89 1.779-1.305-.593.415-1.186.89-1.779 1.305zM232.491 152.682c.296.83.652 1.66.889 2.609-.297-.889-.593-1.779-.889-2.609zM232.491 152.682a15.295 15.295 0 0 0-1.008-2.194c-.653-1.245-1.483-2.431-2.372-3.498.889 1.127 1.719 2.253 2.372 3.498.355.652.652 1.364 1.008 2.194zM71.093 143.551a15.777 15.777 0 0 0-2.253 2.194c.652-.771 1.423-1.483 2.253-2.194zM75.955 140.527z"/></g></svg>
