<svg width="152" height="152" viewBox="-10 -20 172 172" style="background:#fff" xmlns="http://www.w3.org/2000/svg"><path d="M152 146.663a5.402 5.402 0 0 1-1.54 3.769 5.21 5.21 0 0 1-3.702 1.568H5.196a5.217 5.217 0 0 1-3.673-1.584A5.404 5.404 0 0 1 0 146.663c0-27.162 33.642-37.995 48.082-41.405a.399.399 0 0 0 .295-.395v-5.748a45.184 45.184 0 0 1-7.352-14.923c-3.8-3.79-5.476-9.743-6.375-13.06-1.474-5.274-2.947-12.933 1.101-18.38l.186-.238a54.868 54.868 0 0 1-.59-4.737c-1.83-12.38-.418-21.619 4.204-27.398 2.485-3.205 6.104-5.29 10.082-5.811C51.99 6.278 63.499-1.808 73.937.355c10.128 2.211 31.269-.22 31.532-.252.267-.026.533.053.745.22a1.032 1.032 0 0 1 .357.71 10.785 10.785 0 0 1-.718 4.17 10.626 10.626 0 0 1-2.26 3.553c16.906 11.48 14.471 34.141 12.516 43.727l.171.237c4.048 5.463 2.575 13.106 1.117 18.38-.9 3.254-2.575 9.286-6.359 13.092a45.017 45.017 0 0 1-7.352 14.812v5.843a.405.405 0 0 0 .294.395c14.425 3.426 48.02 14.275 48.02 41.421zm-53.262-32.12a11.011 11.011 0 0 1-4.963-6.064 35.72 35.72 0 0 1-7.57 3.869 30.08 30.08 0 0 1-20.41 0 34.972 34.972 0 0 1-7.6-3.853 11.01 11.01 0 0 1-4.949 5.985 27.891 27.891 0 0 0 9.998 8.598A27.342 27.342 0 0 0 76 126.055c4.416.062 8.784-.95 12.738-2.953a27.871 27.871 0 0 0 10-8.559zm4.653-36.605c.543 0 2.482-.852 4.855-9.474 1.861-6.696 1.07-9.128.45-9.98a2.408 2.408 0 0 0-1.022-.698 2.363 2.363 0 0 0-1.227-.092.997.997 0 0 1-1.084-.84 1.031 1.031 0 0 1 .044-.502v-.206c.466-1.579 2.42-9.759-4.374-14.875-5.971 1.358-15.758 1.721-28.91-3.995-6.422-2.796-11.82-2.89-16.007-.285-8.407 5.212-9.554 19.629-9.57 19.771-.02.266-.142.512-.34.687a.981.981 0 0 1-.715.245h-.45a2.106 2.106 0 0 0-1.023.176 2.146 2.146 0 0 0-.822.645c-.636.853-1.411 3.285.45 9.98 2.388 8.575 4.327 9.38 4.87 9.475a.984.984 0 0 1 .604.263c.167.155.276.363.311.59 1.365 8.953 8.019 20.529 19.45 24.555a20.665 20.665 0 0 0 14.083 0c10.966-4.026 18.116-15.38 19.496-24.54a1.02 1.02 0 0 1 .315-.633.985.985 0 0 1 .647-.267h-.031z" fill="#212121"/><path d="M87.633 69.02a14.557 14.557 0 0 0 2.512-8.673 14.65 14.65 0 0 0-4.311-9.894A14.14 14.14 0 0 0 76 46.34h-.046a13.901 13.901 0 0 0-7.495 2.229 14.26 14.26 0 0 0-5.177 5.95 4.064 4.064 0 0 0-.306 3.16c.163.52.428 1 .78 1.412.352.412.782.746 1.265.983a3.882 3.882 0 0 0 4.456-.739c.384-.38.688-.837.893-1.341a6.283 6.283 0 0 1 2.295-2.651A6.123 6.123 0 0 1 76 54.362c1.617.04 3.16.697 4.322 1.841a6.62 6.62 0 0 1 1.96 4.333 6.4 6.4 0 0 1-1.09 3.896A6.215 6.215 0 0 1 78 66.852a8.663 8.663 0 0 0-4.292 3.161 8.917 8.917 0 0 0-1.68 5.114v3.427c0 1.064.416 2.084 1.154 2.837a3.904 3.904 0 0 0 2.786 1.174 3.904 3.904 0 0 0 2.786-1.174 4.048 4.048 0 0 0 1.154-2.837v-3.427c0-.457.62-.678.62-.678a14.141 14.141 0 0 0 7.104-5.429zM73.803 88.029A3.905 3.905 0 0 1 76 87.35a3.92 3.92 0 0 1 2.797 1.18 4.064 4.064 0 0 1 1.158 2.847 4.08 4.08 0 0 1-.666 2.237 3.972 3.972 0 0 1-1.775 1.483 3.89 3.89 0 0 1-2.286.23 3.934 3.934 0 0 1-2.025-1.103 4.05 4.05 0 0 1-1.082-2.062 4.094 4.094 0 0 1 .225-2.326c.3-.736.806-1.365 1.457-1.807z" fill="#B75400"/></svg>