<svg width="320" height="175" viewBox="0 0 320 175" fill="none" xmlns="http://www.w3.org/2000/svg">
<rect x="0.818824" y="0.818824" width="318.362" height="173.362" rx="2.45647" fill="#0C1E46"/>
<path d="M159.381 105.612C158.426 104.635 157.278 103.866 156.011 103.355C154.744 102.844 153.385 102.601 152.019 102.643C150.37 102.612 148.73 102.906 147.194 103.509C145.658 104.112 144.256 105.012 143.067 106.157C141.879 107.302 140.928 108.67 140.268 110.182C139.609 111.695 139.254 113.323 139.223 114.973V114.973V115.77C139.087 119.099 140.279 122.345 142.536 124.795C144.793 127.245 147.93 128.699 151.259 128.836H152.069C153.435 128.881 154.795 128.64 156.063 128.129C157.33 127.618 158.477 126.847 159.43 125.867V128.554H165.159V102.998H159.381V105.612ZM152.265 123.426C150.702 123.534 149.143 123.163 147.796 122.361C146.45 121.56 145.38 120.366 144.731 118.94C144.081 117.514 143.883 115.924 144.162 114.382C144.441 112.84 145.184 111.42 146.292 110.312C147.4 109.204 148.82 108.461 150.362 108.182C151.904 107.903 153.494 108.102 154.92 108.751C156.346 109.401 157.539 110.47 158.341 111.817C159.143 113.163 159.514 114.722 159.405 116.285C159.276 118.137 158.483 119.879 157.171 121.191C155.858 122.503 154.116 123.297 152.265 123.426V123.426Z" fill="#F9D247"/>
<path d="M217.569 117.144C217.569 120.824 215.569 123.585 212.085 123.585C208.601 123.585 206.859 121.72 206.859 117.144V102.998H201.031V118.346C201.031 125.167 204.356 128.897 210.613 128.897C211.929 128.921 213.233 128.643 214.424 128.084C215.615 127.524 216.662 126.699 217.483 125.67V128.578H223.213V102.998H217.569V117.144Z" fill="#F9D247"/>
<path d="M193.425 102.888C191.804 102.513 190.113 102.568 188.519 103.045C186.925 103.523 185.483 104.407 184.334 105.612V102.998H178.617V128.603H184.347V114.788C184.347 109.636 188.273 107.317 193.438 108.311L193.425 102.888Z" fill="#F9D247"/>
<path d="M195.536 128.921C196.918 128.921 198.039 127.784 198.039 126.381C198.039 124.979 196.918 123.842 195.536 123.842C194.154 123.842 193.033 124.979 193.033 126.381C193.033 127.784 194.154 128.921 195.536 128.921Z" fill="#F9D247"/>
<path d="M230.044 128.921C231.426 128.921 232.547 127.784 232.547 126.381C232.547 124.979 231.426 123.842 230.044 123.842C228.662 123.842 227.541 124.979 227.541 126.381C227.541 127.784 228.662 128.921 230.044 128.921Z" fill="#F9D247"/>
<path d="M171.856 128.921C173.239 128.921 174.359 127.784 174.359 126.381C174.359 124.979 173.239 123.842 171.856 123.842C170.474 123.842 169.354 124.979 169.354 126.381C169.354 127.784 170.474 128.921 171.856 128.921Z" fill="#F9D247"/>
<path d="M143.427 50.7093H165.118V49.1757C158.784 47.8568 152.581 45.9764 146.58 43.5567C145.304 43.0955 143.943 42.9181 142.591 43.0367C141.239 43.1554 139.929 43.5673 138.753 44.2438C134.755 46.5686 130.022 47.2836 125.515 46.2435V47.9489C128.805 48.6328 132.215 48.4767 135.428 47.4949C134.556 48.9381 134.098 50.5934 134.103 52.2797C134.103 55.1137 135.134 56.5614 137.072 59.8984L143.207 70.5966C143.551 71.196 143.732 71.8756 143.731 72.567C143.729 73.2585 143.546 73.9374 143.199 74.5355C142.852 75.1336 142.354 75.6299 141.754 75.9743C141.155 76.3188 140.475 76.4993 139.784 76.4977C135.809 76.4977 133.244 69.0262 123.945 69.0262C121.841 69.0321 119.761 69.4709 117.834 70.3151C115.907 71.1593 114.174 72.3911 112.744 73.9336L87.6914 98.9491C89.2986 99.2436 96.4634 100.176 99.9599 100.372L95.2488 110.396C105.774 108.522 115.975 105.146 125.54 100.372V128.59H127.196V99.4767C128.603 98.7406 129.989 97.9799 131.355 97.1947C133.664 95.9047 135.593 94.0293 136.948 91.7572C138.303 89.4851 139.035 86.8964 139.072 84.2514C139.599 84.2888 140.128 84.2888 140.655 84.2514C142.62 84.1086 144.517 83.4687 146.168 82.3918C147.818 81.3148 149.168 79.8362 150.09 78.0946C151.012 76.353 151.477 74.4057 151.44 72.4353C151.404 70.465 150.867 68.5362 149.881 66.8301L141.992 53.1998C141.847 52.9499 141.771 52.6664 141.771 52.3778C141.761 52.1699 141.792 51.9621 141.863 51.7663C141.933 51.5705 142.042 51.3905 142.182 51.2367C142.322 51.0828 142.491 50.9581 142.68 50.8697C142.868 50.7814 143.072 50.731 143.28 50.7216H143.427V50.7093ZM135.539 77.2707C136.482 78.8076 137.108 80.5179 137.379 82.3007C134.447 81.4788 133.024 79.5771 131.245 78.2276C132.368 77.5908 133.634 77.2489 134.925 77.2338L135.539 77.2707ZM124.055 70.8051C126.012 70.8041 127.945 71.2333 129.717 72.0622C131.49 72.8912 133.058 74.0997 134.312 75.6021C132.689 75.7003 131.12 76.2205 129.76 77.1112C127.735 75.4521 125.327 74.3268 122.755 73.8382C120.183 73.3495 117.53 73.5131 115.038 74.3139C117.493 72.0634 120.7 70.8119 124.031 70.8051H124.055ZM91.2861 97.7959L109.517 79.847L100.672 98.8142C97.6044 98.5811 94.2796 98.2498 91.2615 97.8082L91.2861 97.7959ZM98.181 108.138L101.751 100.495C103.616 100.593 105.432 100.63 107.358 100.63C112.844 100.626 118.323 100.216 123.749 99.4031C115.601 103.349 107.003 106.286 98.1442 108.151L98.181 108.138ZM125.564 84.4232V97.4892C119.537 98.507 113.434 99.02 107.321 99.0228C105.702 99.0228 104.07 99.0228 102.414 98.9123L112.462 77.3075C114.685 75.9757 117.231 75.2797 119.823 75.2954C122.933 75.2937 125.956 76.3299 128.411 78.2399C126.687 79.8476 125.665 82.0684 125.564 84.4232V84.4232ZM127.221 97.023V84.9262C127.222 83.8732 127.441 82.8317 127.863 81.867C128.285 80.9023 128.902 80.035 129.674 79.3195C132.128 81.1843 133.6 83.2945 137.367 84.141C137.345 87.1115 136.334 89.9902 134.495 92.3227C132.656 94.6553 130.092 96.309 127.208 97.023H127.221ZM148.457 67.7135C149.291 69.1808 149.74 70.8348 149.764 72.522C149.788 74.2093 149.385 75.8753 148.594 77.3656C147.802 78.8558 146.647 80.1221 145.236 81.047C143.824 81.9719 142.202 82.5255 140.52 82.6565C140.009 82.698 139.496 82.698 138.986 82.6565C138.818 80.9942 138.37 79.3723 137.661 77.8595C138.741 78.3154 139.936 78.4216 141.079 78.1633C142.222 77.9049 143.255 77.2949 144.033 76.419C144.812 75.5432 145.296 74.4454 145.418 73.2801C145.541 72.1147 145.295 70.9403 144.716 69.9218V69.9218L138.581 59.2236C137.855 58.0059 137.616 56.558 137.915 55.1716C138.213 53.7852 139.025 52.5634 140.188 51.7521C140.049 52.5288 140.193 53.3296 140.593 54.0095L148.457 67.7135ZM136.263 54.9297C135.844 53.7767 135.712 52.5397 135.876 51.3243C136.04 50.1089 136.496 48.9514 137.205 47.9506C137.914 46.9499 138.855 46.1357 139.947 45.5778C141.039 45.0199 142.25 44.7347 143.476 44.7468C144.343 44.7497 145.202 44.9033 146.016 45.2007C150.261 46.722 153.856 48.0225 157.512 49.053H143.427C141.737 49.0645 140.102 49.6574 138.798 50.732C137.493 51.8066 136.598 53.2975 136.263 54.9542V54.9297Z" fill="#F9D247"/>
<path d="M143.429 40.9308C145.054 40.9295 146.639 41.4309 147.968 42.3662L150.606 37.9005L149.17 37.0662L147.416 40.0843C146.448 39.6371 145.411 39.3591 144.349 39.2623V38.1336C144.893 37.9385 145.35 37.5577 145.641 37.0583C145.932 36.5589 146.037 35.9729 145.938 35.4035C145.839 34.8342 145.542 34.3181 145.1 33.9461C144.658 33.5741 144.099 33.3701 143.521 33.3701C142.943 33.3701 142.383 33.5741 141.941 33.9461C141.499 34.3181 141.202 34.8342 141.103 35.4035C141.004 35.9729 141.109 36.5589 141.4 37.0583C141.691 37.5577 142.149 37.9385 142.693 38.1336V39.2745C141.631 39.3714 140.593 39.6494 139.625 40.0965L137.871 37.0662L136.436 37.9005L139 42.3417C140.3 41.4365 141.844 40.9448 143.429 40.9308V40.9308ZM142.594 35.7903C142.594 35.6253 142.643 35.464 142.735 35.3268C142.827 35.1896 142.957 35.0827 143.109 35.0195C143.262 34.9564 143.43 34.9398 143.591 34.972C143.753 35.0042 143.902 35.0837 144.019 35.2004C144.135 35.317 144.215 35.4657 144.247 35.6275C144.279 35.7893 144.263 35.9571 144.199 36.1095C144.136 36.262 144.029 36.3923 143.892 36.4839C143.755 36.5756 143.594 36.6245 143.429 36.6245C143.207 36.6245 142.995 36.5366 142.839 36.3802C142.682 36.2237 142.594 36.0115 142.594 35.7903V35.7903Z" fill="#F9D247"/>
</svg>
