<svg width="195" height="54" viewBox="0 0 195 54" fill="none" xmlns="http://www.w3.org/2000/svg">
<rect width="195" height="54" fill="#E5E5E5"/>
<g id="API Service Page" clip-path="url(#clip0_8_7576)">
<rect width="1442" height="4094" transform="translate(-375 -1489)" fill="white"/>
<g id="Frame 9">
<g id="Frame 5">
<g id="Members logo">
<g id="Group 1196">
<g id="Frame 1196">
<g id="Item 09">
<rect x="-8.5" y="-24.5" width="212" height="103" rx="1.5" stroke="#B75400"/>
<g id="Logo-Audemic-Vector-35 1">
<path id="Vector" d="M16.9273 24.8678C15.6476 24.8678 14.3966 25.2478 13.3325 25.9599C12.2685 26.672 11.4391 27.684 10.9494 28.8682C10.4597 30.0523 10.3315 31.3553 10.5812 32.6123C10.8309 33.8694 11.4471 35.0241 12.352 35.9304C13.2569 36.8367 14.4099 37.4538 15.665 37.7039C16.9201 37.9539 18.2211 37.8256 19.4034 37.3351C20.5858 36.8446 21.5963 36.014 22.3073 34.9484C23.0183 33.8827 23.3977 32.6298 23.3977 31.3481C23.398 30.497 23.2308 29.6542 22.9058 28.8679C22.5807 28.0815 22.1041 27.367 21.5032 26.7652C20.9023 26.1634 20.1889 25.6861 19.4038 25.3605C18.6186 25.0349 17.7771 24.8675 16.9273 24.8678ZM16.9273 35.2359C16.1596 35.2359 15.409 35.0079 14.7707 34.5807C14.1323 34.1535 13.6348 33.5463 13.3409 32.8359C13.0471 32.1255 12.9703 31.3438 13.12 30.5896C13.2698 29.8355 13.6395 29.1427 14.1824 28.599C14.7253 28.0553 15.417 27.685 16.17 27.535C16.923 27.385 17.7035 27.462 18.4128 27.7562C19.1222 28.0505 19.7284 28.5488 20.155 29.1881C20.5815 29.8275 20.8092 30.5791 20.8092 31.3481C20.8092 32.3792 20.4002 33.3681 19.6722 34.0972C18.9442 34.8263 17.9568 35.2359 16.9273 35.2359Z" fill="#21BBBF"/>
<path id="Vector_2" d="M24.1359 23.5685H22.8426V26.159H24.1359C24.8242 26.1454 25.5083 26.2694 26.1482 26.5239C26.7881 26.7783 27.3709 27.158 27.8625 27.6407C28.3541 28.1234 28.7446 28.6995 29.0112 29.3352C29.2778 29.9709 29.4151 30.6535 29.4151 31.343C29.4151 32.0326 29.2778 32.7151 29.0112 33.3509C28.7446 33.9866 28.3541 34.5627 27.8625 35.0454C27.3709 35.5281 26.7881 35.9078 26.1482 36.1622C25.5083 36.4166 24.8242 36.5407 24.1359 36.5271H22.8426V39.1196H24.1359C26.195 39.1196 28.1697 38.3004 29.6257 36.8422C31.0817 35.384 31.8996 33.4063 31.8996 31.3441C31.8996 29.2818 31.0817 27.3041 29.6257 25.8459C28.1697 24.3877 26.195 23.5685 24.1359 23.5685Z" fill="#21BBBF"/>
<path id="Vector_3" d="M55.1666 20.4079H59.503V39.1257H55.1666V37.1657C53.3859 38.8322 51.4738 39.6649 49.4303 39.6635C46.8464 39.6635 44.7097 38.7282 43.0202 36.8575C41.3455 34.9478 40.5074 32.5648 40.5061 29.7084C40.5061 26.903 41.3441 24.5649 43.0202 22.6942C43.7989 21.7921 44.7666 21.0729 45.8543 20.5879C46.9421 20.1029 48.1232 19.864 49.3137 19.8882C51.4899 19.8882 53.4409 20.7852 55.1666 22.5794V20.4079ZM44.9209 29.7084C44.9209 31.5025 45.4003 32.963 46.359 34.0897C46.8109 34.6372 47.3804 35.0753 48.0251 35.3715C48.6698 35.6676 49.3729 35.8141 50.082 35.7999C51.6803 35.7999 52.9723 35.2493 53.9578 34.1481C54.9434 33.0079 55.4361 31.5603 55.4361 29.8051C55.4361 28.0498 54.9434 26.6022 53.9578 25.462C52.9723 24.3474 51.6931 23.7901 50.1202 23.7901C49.4135 23.7783 48.7129 23.9239 48.0691 24.2161C47.4253 24.5084 46.8543 24.9401 46.3972 25.4801C45.4117 26.623 44.9196 28.0324 44.9209 29.7084Z" fill="#03565C"/>
<path id="Vector_4" d="M69.27 20.4079V31.1507C69.27 34.2515 70.4916 35.8012 72.9347 35.7999C75.3778 35.7986 76.5993 34.2488 76.5993 31.1507V20.4079H80.9176V31.2453C80.9453 32.5617 80.7571 33.8738 80.3605 35.1291C79.9703 36.1489 79.3306 37.0543 78.5 37.7619C77.0425 39.0283 75.1874 39.6622 72.9347 39.6635C70.682 39.6649 68.8336 39.031 67.3894 37.7619C66.5483 37.0557 65.8958 36.1509 65.4908 35.1291C65.1327 34.2575 64.9537 32.963 64.9537 31.2453V20.4079H69.27Z" fill="#03565C"/>
<path id="Vector_5" d="M100.144 6.66766H104.48V39.1257H100.144V37.1657C98.4423 38.8322 96.5175 39.6649 94.3694 39.6635C91.8083 39.6635 89.6843 38.7282 87.9975 36.8575C86.32 34.9478 85.4813 32.5648 85.4813 29.7084C85.4813 26.9164 86.3194 24.5851 87.9955 22.7144C88.7673 21.8078 89.7308 21.0844 90.8161 20.5966C91.9014 20.1089 93.0815 19.8689 94.2708 19.8942C96.4578 19.8942 98.4148 20.7913 100.142 22.5854L100.144 6.66766ZM89.9062 29.7084C89.9062 31.5025 90.3856 32.963 91.3443 34.0897C91.7962 34.6372 92.3658 35.0753 93.0104 35.3715C93.6551 35.6676 94.3582 35.8141 95.0673 35.7999C96.6656 35.7999 97.9576 35.2493 98.9431 34.1481C99.9287 33.0079 100.421 31.5603 100.421 29.8051C100.421 28.0498 99.9287 26.6022 98.9431 25.462C97.9576 24.3474 96.6784 23.7901 95.1055 23.7901C94.3988 23.7783 93.6982 23.9239 93.0544 24.2161C92.4106 24.5084 91.8396 24.9401 91.3826 25.4801C90.3916 26.623 89.8995 28.0324 89.9062 29.7084Z" fill="#03565C"/>
<path id="Vector_6" d="M126.951 30.7861H113.557C113.671 32.3224 114.17 33.5458 115.054 34.4563C115.937 35.3668 117.069 35.8147 118.449 35.7999C119.522 35.7999 120.411 35.5441 121.116 35.0324C121.821 34.5208 122.608 33.5726 123.477 32.1881L127.116 34.2246C126.61 35.1089 126.012 35.9367 125.332 36.6943C124.743 37.3488 124.066 37.9182 123.32 38.3864C122.601 38.8291 121.817 39.156 120.997 39.3553C120.111 39.5671 119.203 39.6706 118.292 39.6635C115.503 39.6635 113.264 38.7664 111.576 36.9723C109.888 35.1781 109.044 32.7823 109.044 29.7849C109.044 26.8305 109.863 24.4347 111.5 22.5975C113.152 20.7926 115.34 19.8895 118.065 19.8882C120.814 19.8882 122.988 20.7658 124.588 22.521C126.187 24.2762 126.98 26.6935 126.967 29.7728L126.951 30.7861ZM122.526 27.2488C121.924 24.9416 120.472 23.7887 118.169 23.7901C117.667 23.7868 117.168 23.8678 116.693 24.0298C116.238 24.1873 115.812 24.4216 115.436 24.7227C115.054 25.0278 114.727 25.3948 114.467 25.8085C114.188 26.2535 113.981 26.7395 113.853 27.2488H122.526Z" fill="#03565C"/>
<path id="Vector_7" d="M131.671 20.4079H135.988V22.1362C136.82 21.266 137.53 20.6771 138.118 20.3696C138.856 20.025 139.665 19.86 140.479 19.8882C142.588 19.8882 144.257 20.8108 145.485 22.6559C146.843 20.8108 148.68 19.8882 150.994 19.8882C155.201 19.8882 157.304 22.4444 157.306 27.557V39.1257H152.969V28.7294C152.969 26.9345 152.754 25.6675 152.316 24.9242C151.877 24.1808 151.133 23.7901 150.103 23.7901C148.912 23.7901 148.046 24.2386 147.503 25.1357C146.959 26.0328 146.691 27.4737 146.698 29.4586V39.1277H142.36V28.7858C142.36 25.4566 141.4 23.7914 139.481 23.7901C138.264 23.7901 137.378 24.2446 136.822 25.1538C136.267 26.063 135.989 27.4979 135.988 29.4586V39.1277H131.671V20.4079Z" fill="#03565C"/>
<path id="Vector_8" d="M162.113 12.6242C162.109 12.2584 162.18 11.8957 162.322 11.5586C162.464 11.2214 162.673 10.917 162.937 10.6642C163.198 10.4024 163.507 10.1946 163.848 10.0529C164.189 9.91112 164.555 9.83814 164.924 9.83814C165.293 9.83814 165.658 9.91112 165.999 10.0529C166.34 10.1946 166.649 10.4024 166.91 10.6642C167.177 10.919 167.388 11.2266 167.53 11.5675C167.672 11.9084 167.742 12.2751 167.734 12.6444C167.74 13.0162 167.67 13.3852 167.528 13.7289C167.386 14.0725 167.176 14.3835 166.91 14.6427C166.655 14.91 166.348 15.1215 166.008 15.2637C165.668 15.4059 165.301 15.4756 164.933 15.4686C164.561 15.4686 164.193 15.3948 163.85 15.2516C163.506 15.1084 163.195 14.8985 162.933 14.634C162.671 14.3696 162.464 14.0558 162.324 13.7109C162.184 13.3659 162.114 12.9966 162.117 12.6242H162.113ZM167.083 20.4079V39.1257H162.754V20.4079H167.083Z" fill="#03565C"/>
<path id="Vector_9" d="M187.085 21.2157V26.9607C186.1 25.7521 185.217 24.9255 184.437 24.481C183.615 24.0058 182.679 23.7667 181.731 23.7901C180.974 23.7708 180.221 23.9133 179.523 24.2082C178.825 24.5031 178.197 24.9436 177.682 25.5003C176.61 26.6404 176.073 28.0686 176.073 29.7849C176.073 31.5415 176.592 32.9831 177.628 34.1098C178.665 35.2365 180.002 35.7999 181.639 35.7999C182.596 35.8195 183.542 35.5883 184.382 35.1291C185.148 34.6927 186.05 33.8466 187.087 32.591V38.2998C185.469 39.1747 183.663 39.6427 181.824 39.6635C178.934 39.6635 176.521 38.7302 174.583 36.8635C172.645 34.9968 171.673 32.6588 171.667 29.8494C171.667 27.0547 172.652 24.6972 174.621 22.7768C176.591 20.8564 179.009 19.8955 181.874 19.8942C183.694 19.8892 185.487 20.3437 187.085 21.2157Z" fill="#03565C"/>
</g>
</g>
</g>
</g>
</g>
</g>
</g>
</g>
<g id="Contunue --&#62; Rectangle 1">
<path d="M-95.5018 1828.57C-98.0008 1828.57 -100 1831.33 -100 1834.78C-100 1838.24 -98.0008 1841 -95.5018 1841C-93.0028 1841 -91.0036 1838.24 -91.0036 1834.78C-91.0036 1831.33 -93.0028 1828.57 -95.5018 1828.57Z" fill="white"/>
<path d="M1146.06 -2012.06C1145.47 -2012.65 1144.53 -2012.65 1143.94 -2012.06L1134.39 -2002.51C1133.81 -2001.93 1133.81 -2000.98 1134.39 -2000.39C1134.98 -1999.81 1135.93 -1999.81 1136.51 -2000.39L1145 -2008.88L1153.49 -2000.39C1154.07 -1999.81 1155.02 -1999.81 1155.61 -2000.39C1156.19 -2000.98 1156.19 -2001.93 1155.61 -2002.51L1146.06 -2012.06ZM-98.5 1834.78C-98.5 1833.33 -98.0783 1832.1 -97.4728 1831.26C-96.8679 1830.42 -96.1553 1830.07 -95.5018 1830.07V1827.07C-97.3473 1827.07 -98.8838 1828.09 -99.9033 1829.5C-100.922 1830.91 -101.5 1832.78 -101.5 1834.78H-98.5ZM-95.5018 1830.07C-94.8483 1830.07 -94.1357 1830.42 -93.5308 1831.26C-92.9253 1832.1 -92.5036 1833.33 -92.5036 1834.78H-89.5036C-89.5036 1832.78 -90.0816 1830.91 -91.1004 1829.5C-92.1198 1828.09 -93.6563 1827.07 -95.5018 1827.07V1830.07ZM-92.5036 1834.78C-92.5036 1836.23 -92.9253 1837.47 -93.5308 1838.31C-94.1357 1839.14 -94.8483 1839.5 -95.5018 1839.5V1842.5C-93.6564 1842.5 -92.1198 1841.48 -91.1004 1840.07C-90.0815 1838.66 -89.5036 1836.79 -89.5036 1834.78H-92.5036ZM-95.5018 1839.5C-96.1554 1839.5 -96.8679 1839.14 -97.4728 1838.31C-98.0783 1837.47 -98.5 1836.23 -98.5 1834.78H-101.5C-101.5 1836.79 -100.922 1838.66 -99.9032 1840.07C-98.8838 1841.48 -97.3473 1842.5 -95.5018 1842.5V1839.5ZM-91.0036 1836.28H1125V1833.28H-91.0036V1836.28ZM1146.5 1814.78V-2011H1143.5V1814.78H1146.5ZM1125 1836.28C1136.87 1836.28 1146.5 1826.66 1146.5 1814.78H1143.5C1143.5 1825 1135.22 1833.28 1125 1833.28V1836.28Z" fill="#F60000"/>
</g>
<defs>
<clipPath id="clip0_8_7576">
<rect width="1442" height="4094" fill="white" transform="translate(-375 -1489)"/>
</clipPath>
</defs>
</svg>
