<svg width="168" height="84" viewBox="0 0 168 84" fill="none" xmlns="http://www.w3.org/2000/svg">
<rect width="168" height="84" fill="white"/>
<path d="M21.1946 40.124C20.1971 40.124 19.222 40.4198 18.3925 40.974C17.5631 41.5282 16.9167 42.3159 16.5349 43.2375C16.1532 44.1591 16.0533 45.1732 16.2479 46.1516C16.4425 47.13 16.9229 48.0287 17.6282 48.734C18.3336 49.4394 19.2323 49.9197 20.2107 50.1144C21.189 50.309 22.2031 50.2091 23.1247 49.8273C24.0463 49.4456 24.834 48.7991 25.3882 47.9697C25.9424 47.1403 26.2382 46.1652 26.2382 45.1676C26.2384 44.5052 26.1081 43.8493 25.8547 43.2373C25.6013 42.6253 25.2298 42.0692 24.7615 41.6008C24.2931 41.1324 23.737 40.7609 23.125 40.5075C22.513 40.2541 21.857 40.1238 21.1946 40.124ZM21.1946 48.1935C20.5962 48.1935 20.0111 48.016 19.5135 47.6836C19.0159 47.3511 18.6281 46.8785 18.3991 46.3256C18.1701 45.7727 18.1102 45.1643 18.2269 44.5773C18.3437 43.9904 18.6318 43.4512 19.055 43.028C19.4782 42.6049 20.0173 42.3167 20.6043 42.1999C21.1913 42.0832 21.7997 42.1431 22.3526 42.3721C22.9055 42.6011 23.378 42.989 23.7105 43.4866C24.043 43.9842 24.2205 44.5692 24.2205 45.1676C24.2205 45.9702 23.9017 46.7398 23.3342 47.3072C22.7668 47.8747 21.9971 48.1935 21.1946 48.1935Z" fill="#21BBBF"/>
<path d="M26.8136 39.113H25.8055V41.1292H26.8136C27.3501 41.1187 27.8834 41.2152 28.3822 41.4132C28.8809 41.6112 29.3352 41.9067 29.7184 42.2824C30.1016 42.6581 30.406 43.1065 30.6138 43.6013C30.8216 44.0961 30.9286 44.6273 30.9286 45.164C30.9286 45.7006 30.8216 46.2319 30.6138 46.7267C30.406 47.2214 30.1016 47.6698 29.7184 48.0455C29.3352 48.4212 28.8809 48.7167 28.3822 48.9147C27.8834 49.1127 27.3501 49.2093 26.8136 49.1987H25.8055V51.2165H26.8136C28.4186 51.2165 29.9579 50.5789 31.0928 49.444C32.2277 48.309 32.8653 46.7698 32.8653 45.1648C32.8653 43.5597 32.2277 42.0205 31.0928 40.8855C29.9579 39.7506 28.4186 39.113 26.8136 39.113Z" fill="#21BBBF"/>
<path d="M51.0017 36.6526H54.3819V51.2206H51.0017V49.6952C49.6137 50.9923 48.1233 51.6403 46.5304 51.6392C44.5163 51.6392 42.8507 50.9113 41.5338 49.4553C40.2283 47.969 39.5751 46.1143 39.574 43.8912C39.574 41.7077 40.2273 39.888 41.5338 38.4321C42.1408 37.7299 42.895 37.1702 43.7429 36.7927C44.5908 36.4152 45.5115 36.2293 46.4394 36.2481C48.1358 36.2481 49.6566 36.9463 51.0017 38.3427V36.6526ZM43.0154 43.8912C43.0154 45.2875 43.389 46.4242 44.1363 47.3011C44.4886 47.7272 44.9325 48.0683 45.435 48.2987C45.9375 48.5292 46.4856 48.6432 47.0383 48.6322C48.2842 48.6322 49.2913 48.2037 50.0595 47.3466C50.8277 46.4592 51.2118 45.3325 51.2118 43.9664C51.2118 42.6003 50.8277 41.4736 50.0595 40.5862C49.2913 39.7187 48.2942 39.285 47.0681 39.285C46.5172 39.2758 45.9712 39.3891 45.4693 39.6166C44.9675 39.844 44.5224 40.18 44.1661 40.6003C43.3979 41.4898 43.0143 42.5867 43.0154 43.8912Z" fill="#03565C"/>
<path d="M61.9951 36.6528V45.0139C61.9951 47.4273 62.9473 48.6335 64.8517 48.6324C66.756 48.6314 67.7082 47.4252 67.7082 45.0139V36.6528H71.0743V45.0876C71.0958 46.1122 70.9491 47.1333 70.64 48.1103C70.3359 48.9041 69.8372 49.6087 69.1898 50.1595C68.0536 51.1451 66.6076 51.6384 64.8517 51.6395C63.0957 51.6405 61.6549 51.1472 60.5292 50.1595C59.8735 49.6098 59.3649 48.9056 59.0492 48.1103C58.7701 47.432 58.6306 46.4244 58.6306 45.0876V36.6528H61.9951Z" fill="#03565C"/>
<path d="M86.0608 25.9585H89.441V51.2205H86.0608V49.695C84.7344 50.9921 83.2341 51.6401 81.5596 51.6391C79.5633 51.6391 77.9077 50.9111 76.5929 49.4551C75.2853 47.9689 74.6315 46.1142 74.6315 43.891C74.6315 41.718 75.2848 39.9036 76.5913 38.4476C77.1929 37.742 77.9439 37.179 78.7899 36.7994C79.6359 36.4198 80.5558 36.233 81.4828 36.2527C83.1876 36.2527 84.713 36.9509 86.0592 38.3473L86.0608 25.9585ZM78.0807 43.891C78.0807 45.2874 78.4544 46.4241 79.2017 47.301C79.5539 47.7271 79.9979 48.0681 80.5004 48.2986C81.0029 48.5291 81.5509 48.6431 82.1037 48.6321C83.3496 48.6321 84.3566 48.2035 85.1248 47.3465C85.8931 46.4591 86.2772 45.3324 86.2772 43.9663C86.2772 42.6002 85.8931 41.4735 85.1248 40.5861C84.3566 39.7186 83.3595 39.2848 82.1335 39.2848C81.5826 39.2757 81.0365 39.389 80.5347 39.6164C80.0328 39.8439 79.5877 40.1799 79.2315 40.6002C78.4591 41.4897 78.0755 42.5866 78.0807 43.891Z" fill="#03565C"/>
<path d="M106.957 44.7301H96.5166C96.6054 45.9258 96.9942 46.878 97.683 47.5866C98.3718 48.2953 99.2539 48.6439 100.329 48.6324C101.166 48.6324 101.859 48.4333 102.408 48.035C102.958 47.6368 103.572 46.8989 104.249 45.8213L107.085 47.4063C106.691 48.0945 106.225 48.7389 105.694 49.3285C105.235 49.8378 104.708 50.281 104.127 50.6454C103.566 50.9899 102.955 51.2444 102.316 51.3995C101.625 51.5644 100.917 51.6449 100.207 51.6394C98.0331 51.6394 96.2882 50.9412 94.9723 49.5448C93.6564 48.1484 92.9984 46.2838 92.9984 43.9509C92.9984 41.6515 93.6365 39.7868 94.9127 38.357C96.2004 36.9522 97.9062 36.2493 100.03 36.2483C102.173 36.2483 103.867 36.9313 105.114 38.2974C106.361 39.6635 106.98 41.5448 106.969 43.9415L106.957 44.7301ZM103.507 41.977C103.038 40.1814 101.906 39.2841 100.112 39.2851C99.7202 39.2826 99.3312 39.3456 98.9608 39.4717C98.6058 39.5943 98.2744 39.7767 97.9809 40.011C97.6835 40.2484 97.428 40.5341 97.2252 40.8561C97.0082 41.2024 96.8468 41.5807 96.747 41.977H103.507Z" fill="#03565C"/>
<path d="M110.636 36.653H114.001V37.9982C114.65 37.3209 115.203 36.8625 115.661 36.6232C116.236 36.355 116.867 36.2266 117.502 36.2485C119.146 36.2485 120.446 36.9665 121.404 38.4027C122.463 36.9665 123.894 36.2485 125.698 36.2485C128.977 36.2485 130.617 38.238 130.618 42.2171V51.221H127.238V43.1296C127.238 41.7327 127.07 40.7465 126.728 40.168C126.386 39.5895 125.806 39.2853 125.004 39.2853C124.075 39.2853 123.4 39.6344 122.976 40.3326C122.553 41.0308 122.344 42.1523 122.349 43.6971V51.2226H118.968V43.1735C118.968 40.5824 118.22 39.2864 116.724 39.2853C115.775 39.2853 115.084 39.6391 114.651 40.3467C114.219 41.0543 114.002 42.1711 114.001 43.6971V51.2226H110.636V36.653Z" fill="#03565C"/>
<path d="M134.365 30.5947C134.362 30.31 134.417 30.0277 134.528 29.7653C134.639 29.5029 134.802 29.266 135.008 29.0692C135.211 28.8654 135.452 28.7037 135.718 28.5934C135.983 28.4831 136.268 28.4263 136.556 28.4263C136.844 28.4263 137.128 28.4831 137.394 28.5934C137.66 28.7037 137.901 28.8654 138.104 29.0692C138.312 29.2675 138.477 29.5069 138.587 29.7722C138.698 30.0375 138.752 30.323 138.747 30.6104C138.751 30.8997 138.697 31.187 138.586 31.4544C138.476 31.7219 138.312 31.9639 138.104 32.1656C137.906 32.3737 137.666 32.5383 137.401 32.649C137.136 32.7596 136.85 32.8139 136.563 32.8084C136.273 32.8084 135.986 32.751 135.719 32.6396C135.451 32.5281 135.208 32.3647 135.004 32.1589C134.8 31.9531 134.639 31.7089 134.53 31.4404C134.421 31.1719 134.366 30.8845 134.368 30.5947H134.365ZM138.239 36.6527V51.2207H134.865V36.6527H138.239Z" fill="#03565C"/>
<path d="M153.831 37.2817V41.7531C153.062 40.8124 152.374 40.1691 151.766 39.8231C151.126 39.4532 150.396 39.2671 149.657 39.2853C149.067 39.2703 148.48 39.3813 147.936 39.6108C147.392 39.8403 146.903 40.1831 146.501 40.6164C145.665 41.5038 145.247 42.6153 145.247 43.9511C145.247 45.3182 145.651 46.4403 146.459 47.3172C147.267 48.1941 148.309 48.6326 149.585 48.6326C150.331 48.6478 151.068 48.4678 151.724 48.1105C152.32 47.7708 153.023 47.1123 153.832 46.1351V50.5782C152.571 51.2592 151.163 51.6234 149.729 51.6396C147.477 51.6396 145.596 50.9132 144.085 49.4604C142.575 48.0075 141.817 46.1878 141.812 44.0013C141.812 41.8262 142.58 39.9914 144.115 38.4967C145.65 37.0021 147.535 36.2543 149.768 36.2532C151.187 36.2493 152.584 36.6031 153.831 37.2817Z" fill="#03565C"/>
</svg>
