<svg width="240" height="82" viewBox="0 0 240 82" fill="none" xmlns="http://www.w3.org/2000/svg">
  <path d="M76.1724 35.4064C76.067 34.7765 75.5402 32.5697 75.4371 32.1494C75.3318 31.6261 74.8049 30.7855 74.6996 30.2599C74.4912 30.0491 74.1763 28.7882 74.0709 28.3691C73.9655 27.8446 73.0196 25.6378 72.7035 25.0091C72.3874 24.3769 72.282 23.6417 72.3874 23.4322C72.282 22.9053 71.2331 21.2253 72.282 21.0146L72.3874 20.8039C73.6494 22.9065 74.805 25.1122 75.6455 27.319C75.7509 27.5297 75.7509 27.7404 75.8563 27.8458V28.0542C76.801 30.5771 77.4321 33.2054 77.8524 35.9356C77.4309 36.0409 76.3808 36.1463 76.1712 35.4087L76.1724 35.4064ZM67.3451 23.8513C67.5558 24.5853 68.188 25.8462 68.6071 26.2665C69.1339 26.688 70.1829 27.9477 70.6032 28.2626C71.0247 28.5787 71.4438 29.0002 72.2844 30.3652C73.0219 31.4154 73.441 33.5168 73.6506 34.252C73.6506 34.9873 73.9667 35.4076 74.3858 35.9332C74.7019 36.2493 75.5413 36.0386 75.4371 35.6171C75.3318 35.198 74.8049 34.1467 74.6996 33.0965C74.4912 31.4142 73.6506 30.679 73.441 30.1533C73.2303 29.7319 72.6016 28.9978 72.2855 28.368C71.9694 27.8435 70.8151 27.3178 70.2894 26.688C69.868 26.2665 69.1339 24.5865 69.1339 24.1662C68.9255 23.7471 69.5554 23.5364 70.0822 23.8525C70.5013 24.2739 71.0258 25.8485 71.3419 26.4784C71.5527 26.8999 72.8124 27.2136 72.707 26.6891C72.3909 26.2677 72.3909 25.4283 71.9718 24.7972C71.5503 24.165 71.2366 23.7459 71.3419 22.8C71.5527 21.7498 70.8151 21.7498 70.2906 21.4337C69.8692 21.223 70.1852 20.6985 70.2906 20.2782C70.5014 19.6484 69.5554 19.3334 69.1351 19.0173C68.6106 18.8066 66.8253 18.3875 66.5092 18.1768C66.1931 17.8607 66.5092 17.232 66.8252 17.1266C67.4551 16.8105 69.1363 17.3373 70.1852 17.7565C69.2416 16.601 68.2957 15.4454 67.2467 14.3965C65.8793 13.1344 64.5131 11.8735 63.0438 10.8222C61.7817 11.6628 60.6262 13.5547 60.3113 13.975C60.1006 14.3965 60.1006 14.9198 59.7845 15.5508C59.4707 16.1807 58.314 19.0162 58.1045 19.6484C57.7884 20.3836 57.3693 21.1188 57.0543 21.4337C56.7382 21.7498 57.3704 22.1713 57.4758 22.485C57.6865 22.8011 57.3704 23.1149 57.0543 23.431C56.7382 23.6417 56.949 24.1662 56.4245 24.5865C56.003 25.008 56.5299 25.3217 57.2651 25.3217C57.6865 25.0056 58.1057 24.7949 58.3152 24.0608C58.4206 23.7471 59.0528 23.7471 59.1558 23.4322C59.3665 23.2214 59.3665 22.6946 59.788 22.1713C60.2071 21.7498 60.4167 21.12 60.1017 21.0146C59.7857 20.8039 59.4719 21.0146 59.3665 20.6985C59.1558 20.2794 60.1017 19.5442 60.2071 19.2292C60.2071 18.3887 61.5722 15.9723 61.7829 15.4478C61.8883 14.8156 62.517 14.3965 62.8319 14.1857C63.0426 14.0804 63.6725 14.0804 64.0928 13.7643C64.6196 13.4505 65.1441 14.0804 65.459 14.5018C65.7751 15.0263 66.7199 15.0263 66.8252 15.552C67.1413 16.1818 66.1931 16.3926 65.6686 16.4968C65.0364 16.8129 64.4077 18.1768 64.4077 18.2821C64.6184 18.4928 65.7728 19.6484 66.2984 19.9633C66.5092 20.2794 67.139 20.2794 67.4539 20.0687C67.77 19.9633 68.5052 20.3847 68.6094 20.7008C68.8202 21.6456 67.7689 21.6456 67.4539 21.6456C67.1378 21.6456 66.2984 21.0134 65.7728 20.9104C65.3513 20.6997 65.1406 20.5943 64.6161 20.6997C63.9862 20.9104 64.3 21.3295 64.4054 21.6445C64.6161 21.9606 64.6161 22.5904 64.4054 22.8C64.3 23.1161 63.7755 23.1161 63.7755 23.7459C63.8809 24.1674 64.0916 24.4811 64.0916 24.7961C64.0916 25.1098 64.4077 25.5301 63.7755 26.1611C63.5648 26.4772 63.4594 27.2113 63.5648 27.6316C63.6701 28.2638 64.3023 28.5775 64.6161 28.9978C65.0376 29.6265 64.8268 30.6778 65.562 31.0981C65.9835 31.4142 66.4026 31.0981 66.2973 30.4659C66.0865 29.9426 65.7704 28.9966 66.2973 28.6817C66.508 28.5763 67.0325 29.1032 67.1378 29.4169C67.4539 29.9438 67.5593 30.7832 68.0838 31.3077C68.5052 31.7291 69.2393 31.413 69.1339 30.9916C68.9255 30.6778 68.2945 29.7319 68.8202 29.4169C69.2416 29.2062 69.45 29.6277 69.765 30.0468C70.0811 30.4682 70.5002 32.044 70.8151 32.5685C70.9205 33.4091 72.3909 33.5145 72.2855 32.8846C72.1802 32.2524 70.9205 30.0468 70.2894 29.2062C69.7626 28.2614 69.4489 28.3668 68.7136 28.2614C67.8731 28.0507 67.5581 27.3166 66.8229 26.2665C65.9823 25.2152 65.9823 24.7949 66.0854 24.0597C66.2961 23.2203 67.0336 23.1149 67.3474 23.8513H67.3451ZM56.7347 18.3863C57.2616 17.335 57.0508 17.0201 57.0508 16.5998C57.0508 16.1783 57.2616 15.6538 57.3669 15.5485C57.4723 15.2324 57.9968 13.0267 58.4171 12.5011C58.7332 12.185 60.9388 10.8187 62.1985 10.1889C61.674 9.7674 61.0442 9.45364 60.5185 9.03335C59.2577 10.0835 56.6317 12.0796 55.9995 13.8661C55.0547 16.5974 55.0547 17.9637 54.6344 20.4854C54.213 23.1114 53.4789 25.3182 53.164 26.2642C52.8479 26.9994 54.0046 26.4749 54.2142 26.0534C54.3195 25.632 54.8463 25.2128 54.8463 24.7925C54.9517 24.2657 55.2655 23.8466 55.6858 23.1102C56.2126 22.375 55.5804 21.8493 55.8965 21.0087C56.0019 20.064 56.3156 19.4329 56.7359 18.3828L56.7347 18.3863ZM46.4393 3.88682C50.7476 4.51902 54.9505 5.98828 58.8374 8.08974C57.9968 8.30048 56.9466 8.82496 56.7359 9.03569C55.7923 9.77091 54.9517 9.77091 54.2153 9.77091C53.2705 9.77091 51.7989 9.34945 50.8553 11.1372C50.1178 12.9225 49.3825 15.7592 49.173 17.6511C49.0676 19.2269 48.1217 21.1165 48.5408 21.2218C49.0676 21.3272 49.8028 20.0675 50.1178 18.8066C50.4339 18.0714 50.75 17.0201 51.0637 16.5998C51.1691 16.073 52.0097 15.3377 52.0097 16.389C52.0097 17.4392 51.2745 18.4905 50.8542 19.8544C50.4327 21.2218 50.4327 21.957 49.8028 22.4827C48.8581 23.3233 48.7527 24.1639 49.3814 23.9531C50.0136 23.7447 50.7488 23.9531 50.435 24.3746C50.1189 25.0068 49.4867 25.3205 49.8028 25.6355C50.1189 25.8462 51.0637 25.7408 51.1691 25.1086C51.2745 24.48 51.2745 23.3245 51.5905 23.0095C51.9043 22.5881 52.3246 23.0095 52.2192 23.6394C51.9031 24.48 52.8514 24.0608 52.5353 25.1098C52.5353 25.4259 51.7978 26.1611 51.9031 26.4761C51.9031 26.7922 52.8514 27.422 50.8542 27.5274C50.222 27.5274 47.7014 26.7898 46.9673 26.3707C46.019 25.8462 45.285 25.0056 44.5498 24.6895C43.8157 24.3734 42.1346 23.952 41.8196 23.7436C41.3982 23.4275 41.0821 23.0084 41.0821 22.6923C41.0821 22.2708 40.1385 21.3272 39.5074 20.4866C38.983 19.5407 38.037 18.3851 38.3519 16.389C38.668 14.2876 38.668 11.0306 37.9305 9.9793C36.9857 9.03452 34.7812 7.56291 34.3597 6.61931C33.8329 5.67102 32.6786 5.14653 31.838 5.14653C31.4165 5.14653 31.7326 8.61423 31.7326 9.45481C31.7326 10.3996 32.0487 11.0306 32.3648 11.136C32.6786 11.3467 33.0989 12.0808 33.0989 12.816C32.9935 13.5535 32.1506 13.2374 32.3613 14.4971C32.4667 15.2347 32.8881 15.024 33.2042 15.024C33.518 15.024 33.7276 16.389 33.518 16.5986C33.2019 16.704 32.8858 16.8093 33.0965 17.3327C33.2019 17.7541 33.4126 18.9096 33.8341 18.9096C34.3586 18.9096 34.6735 18.1721 34.6735 17.7529C34.5681 17.3315 34.7789 12.9202 34.8842 12.185C35.095 11.4497 34.6735 10.7145 34.1467 10.0835C33.7276 9.45364 32.4678 8.71725 32.6774 7.98204C32.7828 7.24682 32.9935 6.30087 33.3073 6.40623C33.7287 6.72233 33.7287 7.66711 33.6234 8.0874C33.7287 8.29813 36.46 10.1889 36.9834 10.9241C37.5102 11.5563 37.5102 14.7055 37.5102 15.2324C37.2994 15.7569 36.6696 16.2825 36.5654 15.7569C36.46 14.9174 36.9869 13.5524 36.1463 13.5524C35.6195 13.5524 35.3057 14.4971 35.5141 15.758C35.6195 17.1254 35.9356 20.0663 36.2516 20.3824C36.5677 20.5931 36.9857 20.8039 37.1964 21.223C37.3018 21.6445 37.6155 22.4839 38.2454 22.5892C38.983 22.6946 39.6116 22.9053 39.086 23.2191C38.3508 23.6405 37.3006 24.165 36.8803 24.165C35.5141 24.2704 34.4639 25.3217 33.7276 25.742C32.7828 26.3719 32.1518 27.7381 31.7315 28.7882C31.6261 28.8936 31.4154 29.9438 30.7867 30.5736C30.0491 31.3088 29.2097 31.7291 28.6852 31.9399C28.2638 32.256 27.6339 32.8846 28.5799 32.6751C29.4204 32.359 31.1016 31.6249 31.3112 32.5697C31.4165 33.3049 29.9461 33.3049 29.3151 33.4103C28.8936 33.621 27.6339 34.1455 28.2649 34.7765C28.581 35.3034 29.7365 34.1443 30.5771 34.1443C31.4177 34.1443 32.469 34.6712 33.2042 34.7765C33.9383 34.9873 35.5141 34.9873 36.0397 34.7765C36.6696 34.6712 38.7711 32.99 40.0319 33.0954C40.8725 33.3038 41.8185 34.0401 42.5537 34.3551C43.6038 34.7765 44.5498 35.4052 46.7566 35.4052C49.0676 35.4052 50.5381 34.5646 50.7488 35.0891C50.8542 35.7213 50.4327 35.7213 50.4327 36.3512C50.4327 36.7726 50.5381 37.1941 50.222 37.5078C49.9082 37.8239 49.173 37.5078 48.8581 37.1917C48.6473 37.0864 48.3336 36.6673 48.0187 36.6673C47.7026 36.6673 46.547 36.6673 46.6524 36.878C46.7578 37.1941 47.0739 37.4025 47.8079 37.4025C48.3347 37.4025 49.4891 38.7687 49.804 38.8741C50.1201 38.9795 51.0649 39.7147 50.8553 40.0296C50.6446 40.3457 50.5392 40.3457 50.2231 40.2403C49.804 40.0296 49.804 39.6081 49.2784 39.7135C48.8569 39.7135 48.4378 40.5564 48.0175 40.6618C47.3853 40.9755 46.2309 40.9755 45.5999 40.8702C44.8647 40.5541 44.2349 40.0296 43.7092 39.6093C43.1824 38.9795 42.8686 38.1389 42.2388 37.1929C41.6066 36.1416 40.7672 35.0903 40.2427 35.301C39.8212 35.301 39.5051 36.4565 39.7158 37.4013C39.8212 38.4526 40.2427 38.9783 40.1373 39.5028C39.8212 39.7135 39.1914 40.3434 39.1914 41.1839C39.086 42.1287 39.8235 41.7084 39.8235 42.1287C39.8235 42.6555 39.7182 43.3896 39.4021 43.2842C39.086 43.0735 38.3508 42.8628 38.3508 43.495C38.3508 44.1248 38.6669 44.0194 39.086 44.1248C39.5075 44.2302 39.4021 44.86 39.5074 45.1749C39.7182 45.491 39.7182 45.8048 40.1373 45.9102C40.7672 46.2263 40.8725 45.4887 41.5024 45.6994C42.2399 45.8048 42.2399 45.9102 42.7632 46.1209C43.2901 46.2263 44.0241 46.1209 44.2349 45.8048C44.5509 45.4887 44.3402 44.7547 44.0241 44.4386C43.9188 44.1248 43.6027 43.3896 44.0241 43.3896C44.6563 43.2842 44.7617 43.8111 44.9701 44.1248C45.0754 44.4409 45.4969 45.0708 45.7053 45.3857C45.916 45.6994 46.3375 45.6994 46.6512 46.1197C47.0727 46.4358 47.0727 46.7519 47.2811 47.0657C47.3865 47.4871 48.3324 47.5925 48.542 47.9063C48.7527 48.3277 48.7527 48.9564 49.1742 49.5874C49.6986 50.1107 50.1189 50.6364 49.6987 51.0567C49.1742 51.6889 48.0187 50.3215 47.2823 49.3755C46.4417 48.638 45.6011 47.4836 44.9712 47.4836C44.3414 47.4836 44.3414 48.1135 44.6551 49.269C44.9712 50.5287 45.182 51.0544 45.2873 51.2651C45.4981 51.2651 45.7065 51.0544 45.9172 51.2651C46.0226 51.3705 46.6524 52.6302 47.3876 53.0505C48.1228 53.4719 49.0688 53.9964 49.804 53.6826C50.5392 53.3666 50.2255 52.7344 50.4362 52.629C50.5392 52.4206 51.4852 52.2099 51.9055 52.2099C52.2216 52.2099 52.3269 50.8448 52.3269 50.5287C52.3269 50.2126 51.9055 49.7935 52.0108 49.4786C52.1162 49.1625 52.5377 48.741 52.5377 48.5303C52.5377 48.4272 52.5377 47.3759 52.8514 46.7461C53.1675 46.0085 53.589 44.6446 53.4836 43.3837C53.2729 42.7515 53.2729 42.2282 53.589 41.2823C53.9027 40.4394 54.0081 40.1256 53.9027 39.3904C53.692 38.5498 53.5866 38.1295 53.5866 37.7092C53.5866 37.2877 52.958 36.7633 53.1675 36.028C53.2729 35.7119 53.589 34.6618 53.589 34.0319C53.589 32.7711 53.589 32.2454 53.2729 31.6156C52.9568 30.878 52.3269 30.144 52.012 30.0386C51.2768 29.8279 51.4852 29.4087 51.1714 29.0938C50.8553 28.9884 50.5392 28.4616 51.0661 28.3562C51.4875 28.2509 51.8013 28.3562 52.3269 28.2509C52.9591 28.0402 52.9591 27.3061 53.2729 27.3061C53.6944 27.3061 54.7433 27.4115 54.638 27.7276C54.5326 28.0413 54.3219 28.9873 55.5839 28.1467C56.0054 28.0413 56.1107 27.7276 56.5299 28.0413C57.0567 28.3574 56.7406 28.6735 56.4245 28.9896C56.1084 29.095 55.269 29.4087 55.269 29.5141C55.269 29.7248 55.0583 30.144 55.5851 30.144C56.1096 30.144 56.7394 29.7225 56.8448 29.5141C57.0555 29.4087 57.2662 28.9873 57.477 28.9873C58.0015 28.9873 57.7931 29.4087 58.5271 29.3034C59.2623 29.0926 59.5773 28.7765 59.8934 27.4126C60.2095 26.0464 60.6286 23.4205 60.8381 21.8435C60.9435 20.1635 61.1542 19.1122 61.1542 18.9026C61.1542 18.3758 61.365 17.9567 61.5757 17.7459C61.6811 17.6406 62.3109 16.3809 62.6258 16.1701C62.9419 15.854 63.676 15.9594 63.3611 16.6969C63.045 17.431 62.5205 17.7459 62.5205 18.3769C62.3097 18.9038 62.8366 19.6378 62.6258 20.0581C62.5205 20.4796 61.5745 20.5849 61.6799 21.2148C61.8906 21.95 61.9937 23.6312 61.9937 24.1568C61.9937 24.5783 61.2584 24.6837 61.3638 25.3135C61.5745 25.9434 61.6799 26.3637 61.3638 26.784C61.0477 27.2054 60.837 28.1502 60.6286 28.4651C60.6286 28.7812 60.5232 30.4612 60.2071 30.5666C59.5773 30.8827 58.842 30.5666 58.4218 30.8827C58.1057 31.1988 57.8949 31.7221 57.4758 31.7221C57.0543 31.7221 56.7382 31.9328 56.4245 32.2489C56.003 32.3543 55.7946 33.2979 56.3191 32.983C56.846 32.6669 57.8949 31.9317 58.4206 31.9317C58.842 31.9317 59.2612 31.9317 59.5761 31.7209C59.8922 31.6156 60.6274 31.2995 61.0477 30.9857C61.5745 30.775 61.6799 29.9356 61.6799 29.8302C61.6799 29.6195 62.6247 29.8302 62.6247 30.1463C62.6247 30.4601 62.9408 31.6167 62.73 31.9317C62.6247 32.3531 61.9925 32.8764 61.9925 32.8764C61.9925 32.8764 60.8381 33.2956 60.9435 33.7159C60.9435 34.1373 61.9948 33.8212 62.4151 33.7159C63.0473 33.6105 63.7814 32.9806 63.8867 33.086C64.0975 33.2944 63.3599 34.135 63.676 35.0809C63.7814 36.0269 65.4625 36.1322 66.0924 35.8161C66.6192 35.7108 66.6192 35.3947 66.933 35.2917C67.1437 35.0809 67.9843 35.0809 68.4046 35.2917C68.9314 35.397 69.5601 35.5024 69.5601 35.8161C69.5601 36.1322 68.7195 36.343 68.9302 36.7621C69.0356 37.1836 69.3517 37.1836 69.875 37.0782C70.3995 37.0782 71.0293 37.1836 71.6604 37.3919C72.1872 37.4973 74.3917 38.1295 75.2311 38.4433C75.8633 38.5486 76.2848 39.2838 76.2848 40.5447C76.2848 41.7014 76.1794 43.0676 75.8633 43.0676C75.2311 43.0676 75.2311 41.596 74.812 40.6513C74.3905 39.7065 73.3415 39.1808 73.1308 39.2862C73.0278 39.6023 72.7117 39.916 73.3415 40.5471C73.8684 41.1793 74.1845 41.5984 74.1845 42.0187C74.1845 42.4401 74.1845 42.9646 74.3929 43.07C74.3929 43.2807 74.9197 43.8052 74.8143 44.1201C74.6036 44.7523 73.4481 44.5416 73.132 44.2255C72.8182 44.1201 73.029 41.9133 72.7129 41.3888C72.5021 40.9674 71.6627 39.2862 71.0317 38.9713C70.2965 38.7605 69.5612 38.9713 69.8762 39.7065C70.1899 40.5471 70.2953 41.3876 70.821 41.7026C71.2424 42.0187 71.6615 42.6485 71.6615 42.6485L71.5562 43.07C71.5562 43.07 71.5562 44.3297 71.6615 44.6446C71.7669 45.0661 72.2914 45.1714 72.3968 45.4875C72.3968 45.8013 72.8182 47.0622 73.3427 47.5878C73.7642 48.2177 73.6588 48.5326 74.2887 48.5326C74.8155 48.5326 75.0262 48.1135 75.1292 47.4836C75.1292 47.0622 76.6009 46.9568 77.651 46.9568C76.3901 54.6274 72.8182 61.667 67.2502 67.2362C60.2106 74.38 50.86 78.268 40.773 78.268C30.7925 78.268 21.4407 74.3788 14.4023 67.235C7.25735 60.1954 3.37053 50.8448 3.37053 40.8632C3.37053 30.7773 7.25735 21.4255 14.297 14.3871C14.8238 13.8603 15.3471 13.4411 15.8728 13.0209C16.6103 13.0209 17.4497 13.2316 17.7647 13.4423C18.0807 14.3871 18.816 14.8074 19.5512 14.4913C20.2864 14.1752 20.9174 14.3859 21.2324 15.1235C21.5485 15.8575 21.9676 16.2778 21.8622 17.013C21.6515 18.3793 20.4971 22.6864 21.2324 25.6296C21.6538 27.1001 21.5485 27.7299 23.2284 29.8325C24.069 30.8815 25.7502 32.4585 26.0651 32.7734C26.1705 33.0895 26.3812 33.614 26.592 33.5086C27.0111 33.2979 26.592 32.1424 26.0651 31.4072C25.4353 30.7773 22.5998 28.7801 22.2837 26.1541C21.9676 23.4228 22.4944 21.7405 22.7028 21.0052C23.0189 20.27 23.0189 19.0091 23.0189 18.5889C23.0189 18.5889 23.0189 17.6441 23.4403 17.8536C23.9637 17.959 24.069 19.3252 24.069 19.9551C24.069 20.3766 24.2798 21.4267 24.2798 21.4267C24.2798 21.4267 24.7012 22.478 24.7012 22.7929C24.7012 23.109 24.2798 24.1592 24.3851 24.5795C24.4905 25.0009 25.1203 25.4201 25.4364 25.8404C25.7525 26.1564 25.3311 26.6809 25.6472 27.1012C25.8579 27.6257 26.8015 28.992 27.4325 29.0973C27.9594 29.3057 29.6382 29.8314 29.9543 29.5164C30.2704 29.3057 31.0044 28.5705 29.8489 28.0448C28.5881 27.6257 26.8015 26.9959 26.3812 25.4201C25.8567 23.8443 26.0651 20.3766 23.9648 16.1736C21.8645 11.9707 20.4995 12.3922 19.7643 12.0761C19.3428 12.0761 18.398 11.6546 17.6628 11.5516C18.7129 10.711 19.8685 9.87042 21.0228 9.13403C21.4443 9.76623 22.2848 10.8152 22.4956 10.8152C22.7063 10.8152 23.0224 9.87042 23.3362 9.87042C23.966 9.97579 24.0714 11.0259 24.2821 11.5516C24.3875 11.9731 24.8089 12.391 25.1227 12.7071C25.6495 13.1262 26.4889 16.4886 26.5943 17.4333C26.805 18.2739 27.6444 24.5783 28.1701 25.207C28.9077 26.2606 29.6417 26.2606 29.2214 24.5783C28.5916 22.6864 28.4862 18.3793 28.8 16.9077C29.116 15.4372 28.4862 12.7048 28.1713 12.2856C27.8575 11.7588 27.9629 10.9194 28.2766 10.814C28.4874 10.6033 29.5387 11.3409 29.6429 11.9707C29.8536 12.6029 29.959 16.4897 30.1697 17.1196C30.2751 17.6464 30.6942 17.9602 30.9038 18.3805C31.1145 19.0103 30.9038 19.6413 31.1145 20.0616C31.3252 20.4831 32.3754 22.3738 32.7957 22.7941C33.2171 23.4263 33.8458 23.5293 34.0565 23.1102C34.1619 22.6887 32.3754 20.798 31.9551 18.5912C31.639 17.2261 31.0091 16.1748 31.0091 15.2312C30.693 14.8097 30.7984 14.4936 30.693 14.1775C30.5877 13.8638 30.693 11.657 30.3793 11.1336C30.0632 10.6068 28.2778 9.24057 27.9629 9.34594C27.1223 9.87276 26.071 8.71374 25.6507 8.50535C25.44 8.29462 24.7047 7.76779 24.0749 7.34867C25.5465 6.71648 26.9127 6.0878 28.3832 5.56214C28.2778 6.29736 28.2778 7.13794 28.5939 7.6636C28.91 8.50652 29.2238 9.5555 29.8548 8.50652C30.1709 7.55823 30.2762 5.9836 30.4846 4.93346C31.5359 4.61736 32.6915 4.30126 33.7416 4.09287C33.9523 4.51433 34.1631 4.93346 34.3738 5.03765C34.5822 5.14302 35.3186 6.29853 35.9484 6.50926C36.6836 6.61462 37.6296 6.82536 38.2594 6.82536C39.3108 6.93072 40.046 7.97969 40.1513 8.71491C40.8866 10.7122 39.4161 13.1286 39.4161 13.1286C39.4161 13.1286 39.1 13.7584 39.2054 15.1247C39.4161 16.4897 39.2054 17.2261 39.9406 17.2261C40.4674 17.2261 40.4674 14.599 40.9919 13.7584C41.2027 12.8125 41.4134 11.9731 41.4134 11.7623C41.4134 11.0283 41.4134 8.1916 41.2027 7.77013C41.0973 7.24565 40.4651 6.2997 39.4161 6.1955C38.2594 6.09014 36.6836 5.77404 36.8944 5.03882C36.8944 4.72272 37.2105 4.51433 37.5242 4.40897C38.3648 4.19824 39.4161 4.19824 40.4663 4.19824H41.0985C41.5176 4.40897 41.9379 5.03765 42.1486 5.87823C42.254 7.13911 42.1486 9.87042 42.1486 10.2919C42.1486 11.0271 42.9892 10.0812 43.1988 10.2919C43.6202 10.7133 42.7773 12.288 42.5689 13.7572C42.4635 15.23 41.8337 16.4897 42.2528 16.5951C42.885 16.5951 43.619 14.1775 44.565 12.2868C45.4079 10.08 45.3026 10.3949 45.3026 10.08C45.3026 9.97462 45.1972 9.02984 45.6163 8.71374C46.0378 8.50301 47.7178 8.29228 48.7691 8.18926C49.5067 8.18926 50.0311 7.66243 49.8204 7.34867C49.6097 7.03257 48.35 6.92721 48.035 6.92721C47.5082 6.92721 46.5634 7.24331 46.2485 6.92721C46.0378 6.82184 46.3539 4.82692 46.4592 3.88097L46.4393 3.88682ZM45.5988 39.5039C46.0202 39.6093 46.965 39.9254 47.7002 39.6093C48.3324 39.5039 48.7515 39.1878 48.7515 38.4538C48.7515 38.1377 48.3324 38.0323 47.8067 37.8216C47.3853 37.7186 47.2799 38.0323 47.3853 38.1377C47.3853 38.2431 47.8067 38.5592 47.3853 38.9806C46.9662 39.5039 46.2309 39.2944 45.916 38.9806C45.5999 38.7699 45.916 38.1377 46.1268 38.0323C46.3375 37.7186 45.8107 37.5078 45.1785 38.0323C44.7605 38.4538 44.9689 39.5039 45.5988 39.5039ZM7.56291 50.0112C7.77365 49.379 6.61931 48.9599 6.61931 48.645C6.61931 48.3312 7.04077 47.8056 7.66945 47.2799C8.09091 46.8585 9.45715 46.4393 10.1924 46.2298C10.7192 46.2298 11.9789 45.9137 13.0291 45.9137C13.3451 45.9137 14.2899 45.703 14.6049 45.3892C14.9209 45.0731 15.237 45.3892 15.6562 45.0731C16.0776 44.757 17.0212 44.0218 17.6523 43.3919C18.1768 42.9705 17.3362 42.2364 16.8117 42.0257C16.3902 41.9203 14.3941 41.9203 12.8171 42.6579C12.1873 42.9716 10.1912 44.1272 9.66554 44.9677C8.82496 45.8083 7.35452 46.7543 7.24916 46.8585C7.03843 47.1746 6.30321 47.9098 6.30321 47.9098C6.30321 47.8044 5.98711 46.4382 5.98711 46.334C5.88175 45.4934 5.67336 44.9677 6.40857 44.3379C7.24916 43.7057 8.40467 43.077 8.51003 42.9716C8.82379 42.7609 10.3996 41.5 10.8199 41.2905C12.1861 40.9744 14.2876 40.5529 16.4932 40.869C17.6488 40.9744 17.6488 40.9744 17.3327 40.2392C17.0166 39.5016 16.3879 39.1878 15.4419 39.1878C14.9151 39.1878 13.7608 38.8717 13.0255 38.8717C12.4987 38.8717 12.9202 38.0323 13.5524 37.7174C14.181 37.4013 15.9676 37.4013 16.807 37.8228C17.7529 38.2419 18.069 38.558 19.1192 38.2419C19.8544 38.1365 21.2206 37.5067 21.326 36.1416C21.5367 35.0903 22.9018 34.67 23.4275 35.0903C24.0573 35.6171 24.0573 36.4565 23.952 36.6661C23.7436 36.7715 23.1125 36.7715 22.6923 36.8768C22.3762 36.8768 22.1678 37.1929 22.2708 37.5067C22.3762 38.1389 21.957 38.1389 21.6421 38.4526C21.2206 38.558 20.9069 39.3986 20.8015 39.3986C20.5908 39.5039 20.1693 39.1878 19.8532 39.1878C19.5395 39.1878 19.2246 39.9231 19.2246 39.9231C19.2246 39.9231 19.1192 40.869 20.1705 40.4499C20.4866 40.2392 21.1165 40.1338 21.2218 40.2392C21.5379 40.5553 21.957 40.5553 22.3773 40.2392C22.6934 39.9231 23.1125 39.9231 23.4286 40.4499C23.6394 40.6606 24.3734 40.869 24.6883 40.5553C25.0044 40.2392 25.8439 40.6606 26.1588 40.5553C26.7886 40.4499 26.5802 38.558 26.5802 38.0323C26.5802 37.4001 27.2089 36.3512 27.2089 35.9309C27.1036 35.301 27.1036 34.5646 26.4737 34.5646C26.0522 34.5646 25.7385 34.3539 25.1075 33.6199C24.7914 32.9877 24.4776 32.8823 23.8478 32.5685C23.0072 32.2524 22.5869 31.0981 22.2708 30.4671C21.8493 29.8372 21.2206 29.7319 20.8004 29.4169C20.2735 29.3116 19.8521 28.5763 19.3287 28.1561C18.9073 27.6316 18.5912 27.7369 18.0679 27.3166C17.6464 27.0005 17.3303 26.4761 17.6464 26.0558C17.7518 25.6343 18.0679 25.0056 18.4893 24.5853C18.9085 24.1639 19.749 22.7988 19.8532 22.1689C19.9586 21.5367 19.1192 21.1176 18.8043 21.5367C18.4882 21.8528 18.069 22.7988 17.6488 23.534C17.1219 24.2716 16.8082 25.2152 16.0729 25.9504C15.2335 26.8963 14.6025 25.7397 15.2335 25.0056C15.758 24.4788 16.8093 22.0624 18.0702 20.0651C18.4917 19.1204 17.438 18.3851 17.0189 19.015C16.4921 19.6472 15.758 21.2218 15.3377 21.8517C15.0216 22.4839 13.8673 25.5278 13.5524 25.9492C13.2363 26.3707 12.1861 26.7898 11.8712 26.6868C11.7658 26.4761 11.7658 26.0546 11.8712 25.6331C11.9766 25.3194 13.4482 22.7976 13.8685 22.1678C14.2899 21.5356 16.0753 18.5947 16.4944 17.2296C17.0189 15.9688 15.9676 15.9688 15.6538 16.5974C15.3377 17.2296 14.7079 17.7541 14.393 18.3851C14.1822 19.015 12.6064 21.5367 11.9766 22.5881C11.4521 23.6382 10.0858 26.3695 9.98047 26.6856C9.76974 27.3155 8.2993 27.4208 8.51003 26.4749C9.03452 25.214 10.505 22.4827 11.136 21.7475C11.9766 20.4866 11.136 19.4353 10.6092 19.8556C10.5038 20.0663 8.82379 22.4839 8.50886 23.534C8.29813 24.6895 6.30087 28.7871 6.30087 28.7871C6.30087 28.7871 7.77247 29.8372 8.0874 29.1032C8.29813 28.7871 8.4035 28.471 9.13755 28.3656C9.76974 28.3656 11.1348 28.1549 11.5551 28.1549C11.8712 28.3656 12.4999 28.7871 12.8148 28.3656C13.1309 27.8411 13.9715 28.0495 14.181 28.8924C14.181 29.2062 13.3405 29.8372 14.2864 30.5724C14.7079 30.9939 15.4419 30.9939 15.6527 31.728C15.9688 32.8835 16.3879 32.8835 16.7028 33.724C16.8082 34.3562 17.8571 34.3562 18.0679 33.6187C18.1732 32.9888 18.4893 31.728 18.8031 31.728C19.1192 31.728 20.4843 32.2548 20.5885 32.6739C20.7992 33.0954 20.0616 33.4091 19.8509 33.8294C19.8509 34.3562 19.2222 35.301 19.4318 35.8255C19.5371 36.4577 18.9073 36.4577 18.487 36.247C18.1709 36.1416 17.6464 36.0362 16.3855 35.7201C15.3342 35.5094 13.5489 36.4577 13.0232 36.5631C12.6017 36.7715 12.1826 36.5631 12.1826 36.1416C12.1826 35.7201 12.1826 35.301 11.8665 35.0903C11.7612 34.9849 10.2919 35.0903 10.9217 34.0401C11.5539 32.6739 10.1865 32.359 9.97579 33.0942C9.4513 34.3539 9.1352 34.3539 8.82028 34.1432C8.29345 33.8271 8.50418 33.3026 8.71491 32.6727C9.34711 30.782 7.97969 31.2023 7.66477 31.7268C7.45638 32.0429 7.45638 33.8282 7.24565 34.3539C6.92955 34.9837 7.45638 35.404 7.45638 36.0351C7.35101 36.7703 6.71882 38.9771 6.71882 39.292C6.61579 39.9219 8.08623 39.9219 8.08623 39.1867C8.08623 38.7652 8.50769 37.5055 9.13637 37.6109C9.45247 37.6109 9.6632 36.8756 9.76857 36.4554C9.76857 36.1416 10.1877 35.8255 10.608 36.0362C10.9241 36.0362 10.8187 36.5631 10.8187 37.1917C10.7133 37.9258 10.608 38.7664 10.5026 38.9771C10.3973 39.2932 8.82145 40.5529 8.40116 40.8678C8.08506 40.9732 5.9836 41.918 5.66867 42.0233C5.66867 42.2341 4.82809 42.3394 4.82809 43.0747C4.82809 43.8099 5.14419 47.0669 5.24955 47.5937C5.35492 48.6427 6.71882 53.0551 7.24448 53.3701C7.66594 53.4754 7.7713 52.7379 8.08506 52.1092C8.40116 51.5824 6.71882 51.0579 7.45521 50.0077H7.56057L7.56291 50.0112ZM25.8462 42.6567C25.5301 42.5513 24.7949 42.2353 24.48 42.5513C24.0585 42.7621 23.7447 42.7621 23.3244 42.7621C23.0084 42.7621 21.9582 42.7621 21.1176 43.0782C20.277 43.2866 18.1756 44.0218 17.5469 44.4421C17.0201 44.9689 16.2849 45.7041 16.0753 45.8095C15.7592 45.9149 16.286 46.4393 16.4968 46.2309C16.8128 46.1256 17.0212 46.1256 17.4415 46.1256C17.863 46.2309 20.174 46.7554 21.6445 46.5447C23.1149 46.2286 25.0068 45.4946 25.1098 45.0743C25.3205 44.6528 25.8474 44.1283 26.0581 43.8134C26.3719 43.708 26.1635 42.7621 25.8474 42.6579L25.8462 42.6567ZM10.7169 52.7414C11.1383 52.0073 11.5574 51.6924 11.5574 50.956C11.5574 50.2208 12.1873 49.6951 12.5022 49.2748C12.816 48.9588 13.7619 48.2235 13.8673 47.8032C13.9727 47.2764 13.7619 47.068 13.0267 47.1734C12.6052 47.2788 11.4509 48.2235 10.8199 48.6438C10.5038 48.9599 9.03452 50.7465 8.82379 51.0614C8.50769 51.7966 9.35062 52.0073 8.82379 52.9533C8.71842 53.164 8.71842 53.6908 8.50769 53.8992C8.08857 54.6345 8.50769 55.2655 9.35062 55.475C9.76974 55.5804 9.35062 56.6317 9.76974 57.052C10.1912 57.3681 10.6103 56.6329 10.8199 55.8965C10.9253 54.9517 10.5038 53.6908 10.6092 52.7449H10.7145L10.7169 52.7414ZM12.2927 60.3078C13.1332 59.4672 13.3428 57.9956 13.9738 57.0508C14.6037 56.2114 14.9186 55.8953 15.3389 55.5804C15.7604 55.475 15.7604 55.1589 15.655 54.6344C15.4443 54.4237 15.655 54.4237 16.3902 53.8992C17.1254 53.4778 17.4404 53.3724 17.7553 52.5342C18.0714 52.0073 19.1215 50.0124 18.5959 49.907C18.1744 49.6963 17.6511 49.3802 17.7553 48.9611C17.7553 48.5396 18.4928 48.5396 18.8066 48.3312C19.1227 48.2259 18.912 48.0151 18.5959 47.8044C18.1744 47.596 17.335 47.4907 16.8105 47.596C16.389 47.8068 16.2837 48.2259 15.7569 48.6462C15.4431 48.9623 15.0228 48.6462 14.6025 49.3837C14.0757 50.0136 13.9727 51.6947 13.6566 52.3246C13.3405 52.7461 13.3405 52.5353 13.0267 53.0598C12.816 53.4813 13.5535 53.3759 13.6566 53.795C13.9727 54.2165 13.9727 54.5326 13.5512 54.5326C12.1861 54.5326 13.0267 55.1613 12.9213 55.7923C12.816 56.2138 11.5563 58.629 11.4509 59.2577C11.2402 59.6791 11.767 60.1006 12.2915 60.3113L12.2927 60.3078ZM19.9609 68.7136C19.9609 67.9761 18.912 67.4516 18.4917 67.1367C16.8105 66.2961 17.6511 65.5609 17.0201 65.0352C16.3902 64.6161 15.8646 66.6122 16.0753 66.9271C16.286 67.1378 16.286 67.9784 16.7075 68.188C17.1266 68.5041 17.7565 69.1339 18.0726 69.4489C18.1779 69.5542 19.543 70.3948 19.6484 70.6044C19.7537 70.6044 20.0698 69.5542 19.9645 68.7136H19.9609ZM21.8528 66.2961C22.9042 66.7176 22.6934 66.2961 22.0636 65.5609C21.5367 64.6149 19.6472 62.1985 19.2269 61.7794C18.9108 61.4633 18.3863 59.7822 17.6511 59.6768C16.7051 59.4661 17.1243 59.9929 15.9699 59.4661C14.7102 59.0469 14.1846 59.0469 14.1846 59.4661C14.1846 59.9929 14.606 60.309 14.2899 60.412C13.8685 60.5174 13.5547 60.7281 13.344 61.4633C13.2386 62.4081 14.8156 61.8848 15.4454 61.8848C16.0776 61.8848 16.4956 62.5135 17.3362 62.9338C18.0737 63.4606 18.3875 63.7743 18.597 64.1946C19.1239 64.6161 21.3284 65.9812 21.8528 66.2961ZM30.4694 73.859C29.6265 73.2303 28.5775 72.9154 27.2113 72.2844C25.8462 71.6545 24.2704 71.1289 23.9543 70.9193C22.6946 70.7086 22.1701 71.5492 22.1701 71.5492C22.2755 71.6545 24.0608 73.125 24.7961 73.2303C25.4259 73.3357 29.3127 75.333 30.5736 75.6479C31.6249 75.964 31.1004 74.5977 30.4682 73.8614L30.4694 73.859ZM30.8885 69.7615C30.048 69.4477 28.8924 70.1829 28.7871 70.499C28.471 71.1289 29.2062 71.6545 29.9426 71.9694C30.5724 72.1802 31.413 72.2855 31.7279 71.6534C32.2548 71.1289 31.4118 70.1829 30.8874 69.7626L30.8885 69.7615ZM47.2787 75.018C45.5976 74.9127 41.7108 75.3318 41.0797 75.3318C40.6583 75.3318 39.9231 74.5966 39.6081 74.4912C38.9783 74.1751 38.6622 73.859 37.612 73.756C36.7715 73.5452 36.1416 73.2291 36.1416 73.1238C36.1416 72.9154 36.247 72.4951 36.4577 72.1802C36.5631 71.8641 36.247 71.4426 36.1416 71.2342C36.0362 71.1289 35.8255 70.0787 35.8255 69.7626C35.8255 69.1304 36.3523 68.291 36.5631 67.6612C36.8768 67.029 37.1917 67.029 37.5067 66.7152C37.8228 66.3991 38.8729 66.2938 38.7675 65.8746C38.5568 65.5585 38.2407 65.1371 37.8216 64.8233C37.2971 64.5072 36.5619 64.8233 35.8255 65.034C35.1956 65.2448 34.1443 66.2937 34.0401 66.6087C33.8294 66.9248 33.6187 67.7642 33.3026 68.3952C33.0942 69.0251 33.3026 69.8656 33.724 70.917C33.8294 71.2331 33.8294 71.8617 34.0401 72.282C34.1455 72.8089 34.67 73.1226 34.8807 73.3334C35.1968 73.6494 35.1968 74.0709 35.1968 74.3847C35.1968 74.7008 34.8807 76.2766 35.1968 76.6969C35.5106 77.1183 36.8768 77.1183 36.6661 76.8022C36.5607 76.6969 36.8768 74.9103 37.8216 74.9103C39.3986 74.9103 39.3986 76.5915 40.1338 76.8011C40.3445 76.8011 41.4989 76.8011 43.8099 76.6957C46.8573 76.3796 49.694 76.1712 50.2196 75.7509C50.8518 75.3294 48.014 74.9103 47.2776 75.0157L47.2787 75.018ZM37.1929 62.0932C37.5067 62.0932 38.1377 62.4093 38.3473 62.8284C38.6634 63.2499 39.0825 63.7743 39.2932 63.8797C39.7147 64.1958 40.0284 64.5096 40.9744 64.8257C41.815 65.0364 43.8111 65.0364 44.4397 65.0364C45.1773 65.0364 44.5451 64.5096 44.126 64.2988C43.5991 64.2988 41.4989 63.9851 41.0786 63.669C40.4464 63.4582 40.1326 62.9338 40.0272 62.7242C39.9219 62.3027 39.3974 62.3027 39.0813 61.8836C38.9759 61.4622 38.8706 60.7269 38.6598 60.3066C38.6598 59.7798 38.1365 59.7798 37.8204 60.0959C37.2959 60.412 36.9798 60.5174 36.6649 60.7281C36.4542 61.0419 36.6649 62.092 37.1917 62.092L37.1929 62.0932ZM52.8456 70.9205C53.4778 70.7097 54.5279 70.3936 54.8428 70.1829C55.0536 70.0775 55.3697 69.4477 55.6834 69.1328C55.9995 68.819 56.4186 68.819 56.9443 68.7136C57.2604 68.6083 57.2604 68.6083 57.2604 68.3976C57.0497 68.2922 56.9443 67.9784 56.7336 67.8731C56.6305 67.6623 56.7336 66.9271 56.7336 66.6122C56.7336 66.2961 55.5792 66.1907 55.6846 66.7176C55.6846 67.139 55.3685 67.9784 55.1578 68.2934C54.844 68.6095 54.5291 68.3987 54.0034 68.7148C53.582 68.8202 53.1628 69.3447 52.4276 69.4489C51.9008 69.4489 51.2721 69.5542 51.1667 69.4489C51.0614 69.3435 51.0614 68.2934 50.956 67.8731C50.8506 67.3462 50.3262 66.7176 50.1154 66.6122C50.0101 66.4015 50.1154 66.4015 49.7993 65.9823C49.694 65.5609 49.2748 65.2448 49.0653 65.3501C48.9599 65.5609 48.7492 65.6662 48.4354 65.6662C48.3301 65.7716 47.8032 65.3501 47.4895 65.034C47.3841 64.8257 46.5435 64.6149 46.2286 64.6149C45.9125 64.6149 46.2286 65.3501 46.5447 65.5609C46.6501 65.6662 46.9638 66.2961 47.0692 66.4015C47.2799 66.6122 47.699 66.7176 48.2247 66.7176C48.4354 66.7176 48.9599 67.0313 48.9599 67.4516C48.9599 67.9784 48.2247 67.9784 48.0151 68.0838C47.699 68.2922 47.3829 68.3976 47.0692 68.2922C46.8585 68.0815 46.9638 67.4516 46.5424 67.0313C46.334 66.7152 45.2827 66.2961 44.4421 65.9812C43.4985 65.7704 42.0269 66.1896 41.5012 66.4003C41.0797 66.7164 40.0308 67.1355 39.7158 67.1355C39.3997 67.1355 39.0836 67.0301 38.6645 67.1355C38.2431 67.1355 37.6144 68.3964 37.509 68.7113C37.2983 69.0274 36.8792 69.7615 37.509 69.8668C37.9305 70.0776 38.8753 69.7615 39.2955 69.5507C39.717 69.4454 40.6618 69.0239 41.0809 68.8155C41.5 68.8155 42.1311 68.6048 42.7609 68.394C43.3931 68.1833 43.4985 68.0803 43.8122 67.7642C44.1283 67.4481 44.5474 67.7642 44.8624 67.9749C45.1785 68.0803 45.5976 68.0803 46.1232 68.1857C46.5447 68.1857 46.5447 68.5017 46.334 68.7101C46.0179 69.0262 45.7018 69.0262 45.2827 69.1316C44.8612 69.1316 44.4397 69.4454 44.126 69.5507C43.5991 69.7615 42.7597 70.0775 42.6555 70.1806C42.1287 70.2859 40.7636 71.1265 40.6594 71.2319C40.4487 71.4426 40.0296 71.4426 39.7147 71.548C39.3986 71.6534 39.2932 72.1778 39.7147 72.3874C40.2415 72.7035 41.0797 72.7035 41.8161 72.5981C42.5513 72.5981 44.2325 72.282 45.4922 72.3874C46.6489 72.3874 48.2247 72.3874 48.7504 72.1767C49.3825 71.8606 49.8017 71.8606 50.4327 71.8606C51.0625 71.9659 51.2733 71.9659 51.5882 71.8606C51.7989 71.5468 52.5342 71.2319 52.8491 70.917L52.8456 70.9205ZM58.4147 65.2459C58.0986 65.562 57.9933 65.9835 57.9933 66.4026C57.9933 66.9271 58.4147 67.2432 59.0469 66.9271C59.6756 66.7164 59.3607 66.2973 60.0959 65.9823C60.412 65.877 60.2013 64.5096 60.2013 64.1946C60.2013 63.8785 59.8852 63.1445 59.7798 62.8284C59.5691 62.5123 59.1499 62.4069 59.1499 62.0932C59.1499 61.8824 59.0446 61.4633 58.5201 61.4633C58.0986 61.4633 56.3133 61.674 55.5781 61.8848C54.9482 62.1985 54.6321 62.7242 54.5279 62.8284C54.3172 63.1445 54.5279 63.4606 54.9494 63.1445C55.3685 62.9338 57.2592 62.9338 57.3646 62.9338C57.47 63.1445 57.9944 63.5659 58.0998 63.8797C58.0998 63.8797 58.7285 64.9298 58.4147 65.2459ZM54.3172 65.9835C53.7903 65.7728 53.267 65.6674 53.1617 64.9298C52.9509 64.1958 52.9509 63.8809 52.2157 63.8809C51.7943 63.8809 51.0602 63.8809 51.0602 64.931C51.0602 65.3525 51.2709 65.9847 51.4817 66.0877C51.587 66.2984 52.2157 67.0337 52.7414 67.139C52.9521 67.139 53.7927 67.0337 54.213 67.0337C54.7398 67.0337 54.9505 66.1931 54.4237 65.9835H54.3172ZM65.98 63.1457C65.0317 63.251 65.5585 62.1997 65.5585 61.8848C65.4532 61.5687 64.7179 61.5687 64.6126 61.0419C64.6126 60.7281 64.4018 60.2024 64.0857 59.8875C63.9827 59.7822 63.4571 59.4661 63.4571 59.15C63.3517 58.8362 63.7732 58.8362 63.7732 58.4159C63.9839 57.9944 63.7732 57.3658 63.6678 56.9455C63.6678 56.421 63.4571 54.8452 63.7732 54.6344C64.1923 54.5291 64.2977 54.9506 64.403 55.372C64.6137 55.8953 65.3478 56.0007 65.3478 55.6858C65.3478 55.3697 65.3478 54.6345 65.2424 54.0046C65.0317 53.4778 63.772 52.8491 63.5624 52.7437C63.2463 52.5353 63.141 52.5353 62.8249 52.3246C62.5111 52.1139 60.2001 52.1139 59.3595 52.0085C58.3082 51.6947 57.4676 51.1691 57.0485 51.0637C56.6294 50.853 56.7324 50.7476 56.1037 51.1691C55.6823 52.0097 55.9983 52.0097 56.6305 52.43C57.1539 53.0598 57.0497 53.795 57.0497 54.2153C57.0497 54.6368 57.7872 54.8475 58.101 55.1613C58.4171 55.372 58.5224 55.8965 59.0469 56.0019C59.4684 56.2126 59.7821 56.2126 60.2024 56.6341C60.7293 57.0532 60.5185 57.683 60.8323 58.3129C61.2537 59.0504 61.8859 58.7343 61.989 59.3642C62.1997 59.6803 61.8836 60.0994 61.8836 60.4143C61.8836 60.7304 62.1997 61.886 62.1997 62.9361C62.1997 63.882 61.2537 64.7226 61.2537 65.3525C61.2537 65.9847 61.4645 65.7739 61.7806 66.4038C61.989 67.0337 60.5185 67.139 60.309 67.3486C60.2036 67.6647 59.363 68.3999 59.1523 68.5053C58.8362 68.716 57.7872 70.0811 57.7872 70.5014C57.7872 71.5515 53.4789 71.6569 53.4789 74.0721V74.3882C53.6897 74.2828 55.3697 73.653 56.7336 73.1273C58.101 72.3933 60.2024 71.4473 60.0971 71.1324C59.4672 70.0822 60.0971 69.1363 60.3078 68.8214C60.8323 68.5053 62.6188 67.4551 62.8284 67.3497C63.5659 66.7199 63.9851 65.9847 64.0893 65.6686C64.3 65.3525 64.3 64.828 64.4054 64.5119C64.6161 64.1958 65.7704 64.1958 65.6651 64.828C65.6651 65.2495 66.4003 65.5632 66.7152 65.7728C67.0313 66.0865 67.5558 65.0352 67.7654 64.9298C68.1868 64.3012 67.5546 63.2499 65.98 63.1457ZM72.7023 57.7872C72.3862 57.0497 71.8617 57.2604 71.9671 56.5252C71.9671 56.2091 72.3886 55.2643 72.2832 54.9494C72.1778 54.6333 71.9671 54.6333 71.5456 54.1088C71.2319 53.4766 71.0211 52.7426 70.917 52.4276C70.7062 52.1115 70.4955 51.4817 70.2848 51.4817C70.1794 51.4817 70.0764 51.3763 69.8656 51.1656C69.7603 51.0602 69.2334 50.4315 68.6036 50.7465C68.4982 50.9572 68.1821 51.0626 68.2875 51.587C68.4982 51.7978 69.1304 52.533 69.4442 53.0575C69.7603 53.4789 69.8656 55.1589 69.5495 55.9995C69.4442 56.6317 70.0764 56.8401 70.0764 57.3658C69.971 57.9956 69.4442 57.9956 69.4442 58.3105C69.4442 58.6266 70.0764 59.4672 69.4442 60.0971C69.1281 60.4132 69.4442 61.7782 69.6549 61.7782C70.2848 61.7782 71.02 61.0407 71.2307 60.5162C71.3361 59.781 72.8065 58.2052 72.8065 57.7849H72.7011L72.7023 57.7872ZM56.2067 36.6673C56.7336 36.6673 57.1527 36.3512 57.3634 36.1428C57.4688 36.0374 57.8879 35.6159 58.6243 35.7213C59.5691 35.932 60.7258 36.4589 60.9353 36.6673C61.2514 36.7726 61.6729 37.0887 61.6729 37.7186C61.6729 38.2431 61.0407 38.2431 60.6216 38.5592C60.3055 38.8753 59.9894 38.9806 59.5702 38.9806C59.1488 38.9806 58.3094 38.5592 57.8891 38.7699C57.4676 38.8753 57.0497 39.3997 57.4676 39.6093C57.7837 39.9254 58.4159 39.82 58.835 39.82C59.2565 39.82 59.1511 40.8702 58.5189 40.8702C57.8891 40.9755 57.7849 41.8161 58.2052 41.8161C58.9404 41.6054 59.15 42.0269 58.835 42.3406C58.5189 42.5513 57.8891 42.6567 57.7849 42.7621C57.4688 42.9728 57.9933 43.3919 58.4136 43.3919C58.7297 43.3919 59.4649 43.0758 59.5691 42.9705C59.9905 42.6567 60.515 42.8651 60.9353 43.0758C61.2514 43.3919 62.1974 42.5513 63.0379 42.3406C63.9839 42.2353 64.7191 41.9192 65.034 41.9192C65.3501 41.9192 65.3501 42.8674 65.6662 42.8674C65.7716 42.9728 66.8217 42.9728 67.4516 42.9728C68.0838 43.0782 68.9232 43.6015 69.4477 43.3919C69.9745 43.2866 69.5531 42.6567 69.4477 42.3406C69.4477 42.2353 69.4477 41.9192 69.237 41.6054C69.1316 41.5 68.6071 41.1839 68.6071 40.6606C68.6071 40.4499 69.1339 39.1902 68.0826 38.8753C67.0313 38.5592 66.5056 38.7699 66.5056 38.4538C66.5056 38.2431 66.7164 37.7197 66.4003 37.7197C66.0842 37.7197 63.5648 37.509 63.2487 37.4037C62.5135 37.1929 61.5675 35.7237 60.5174 35.4076C59.4672 35.0915 58.7308 34.7777 57.7861 35.3022C56.9431 35.7237 56.4186 35.7237 55.9983 35.7237C55.6823 36.0397 55.9983 36.8792 56.2091 36.6684L56.2067 36.6673ZM56.3121 45.1785C56.9443 45.2838 57.6783 45.2838 57.9933 45.8083C58.3094 46.1244 57.7825 46.4382 57.3634 46.4382C56.942 46.4382 56.6282 46.1221 56.3121 45.9137C55.996 45.8083 55.5769 46.4382 55.6822 46.6489C55.893 46.965 56.3121 46.965 56.6282 47.1757C57.0497 47.2788 58.0986 46.965 58.4136 47.1757C58.7297 47.2788 58.6243 47.8044 58.4136 48.0151C58.3082 48.3312 58.6243 48.9599 58.9404 49.0653C59.1488 49.276 56.7324 49.0653 56.6282 49.3814C56.4175 50.1154 57.3634 50.1154 57.7837 50.1154C58.4124 50.0101 58.0975 50.1154 60.0936 50.0101C62.8249 49.9047 64.4018 51.0614 65.2424 51.4817C66.083 52.0085 66.714 53.7927 66.8194 54.9494C66.8194 56.3144 66.2926 56.8401 66.0818 57.7861C65.9788 58.9404 66.714 61.5675 66.8194 62.092C67.0301 62.7242 67.7642 62.3027 67.7642 62.092C67.7642 61.7759 67.7642 61.4621 68.0803 61.1472C68.3964 60.8311 68.5017 60.8311 68.1856 60.2024C67.8695 59.6756 67.7642 59.0469 67.7642 58.101C67.7642 57.0508 68.0803 57.2604 68.291 55.3697C68.7101 53.5831 67.7642 51.7966 67.3427 50.7453C66.8194 49.6951 64.6126 48.7504 64.0881 48.5396C63.6666 48.2259 63.2452 47.9109 63.1421 47.596C62.9314 47.2799 62.5099 47.4907 62.1962 47.1746C61.8801 46.8585 62.6177 46.5447 62.9314 46.4393C63.5636 46.1232 64.0869 45.4946 64.2977 45.5988C64.7191 45.9149 64.0869 46.5447 64.403 46.6501C64.9275 46.8608 65.3478 46.2286 65.6627 46.4393C65.9788 46.6501 66.5021 47.1769 65.7681 47.2799C65.0305 47.596 65.9788 47.9121 66.2926 47.9121C66.3979 47.9121 67.3427 47.2799 67.5535 47.596C67.8695 47.9121 67.3427 48.5408 67.8695 48.6462C68.0803 48.6462 68.2887 48.7515 68.9197 48.7515C69.4442 48.9623 69.2358 49.3837 69.5495 49.3837C69.8656 49.3837 70.5997 49.2784 71.2307 49.5945C71.9659 49.9082 72.8065 50.7488 73.1214 51.0637C73.6483 51.5906 74.2781 50.9584 74.3835 50.6423C74.4889 50.3285 74.2781 49.9082 74.0674 49.9082C73.7536 50.0136 73.3333 50.1189 73.0184 50.0136C72.3862 49.6975 72.2809 48.9623 72.0725 48.6473C71.9671 48.3336 70.917 46.862 70.6009 46.6524C70.1794 46.547 69.1304 45.2862 68.0803 44.7617C66.8194 44.1318 65.9788 44.2372 64.6126 44.4456C63.2463 44.551 61.1472 45.9184 60.7257 46.1279C60.4097 46.1279 59.8852 45.6011 59.4649 45.2873C59.0434 44.9712 58.7273 45.182 58.3082 44.9712C57.7837 44.8659 57.6783 44.7605 57.0485 44.4444C56.524 44.1307 56.2091 44.236 55.6834 44.4444C55.262 44.5498 55.6834 44.9712 56.3133 45.182L56.3121 45.1785ZM51.059 55.1589C51.059 55.7911 51.8996 56.3144 52.2145 56.2103C52.5306 56.2103 52.5306 55.5781 52.3199 55.1589C52.2145 54.5291 52.5306 54.213 52.9521 54.1088C53.4754 54.1088 53.4754 54.6333 53.7903 55.5792C54.0011 56.6305 54.8417 57.0508 55.262 57.0508C55.6834 57.0508 56.1025 57.0508 57.0485 57.2616C57.6807 57.3669 58.4147 57.5777 58.3094 57.9968C58.204 58.4183 58.5201 59.2577 58.8362 59.0481C59.15 58.9427 59.5702 58.3105 59.466 57.9968C59.3607 57.6807 58.3094 56.6317 57.3646 56.2114C56.4186 55.79 55.9983 55.79 55.3685 54.9506C54.8417 54.11 55.1578 52.8491 55.2631 51.7978C55.2631 50.9572 54.947 50.4327 54.3172 50.6423C53.6873 50.7476 53.4766 50.9584 53.4766 51.5882C53.4766 52.0097 53.1605 52.115 52.8444 52.5342C52.4253 52.8503 51.8996 53.3736 51.4793 53.6897C51.0579 53.8981 51.059 54.5291 51.059 55.1589ZM46.2263 56.4198C46.2263 56.7359 46.6477 57.2604 46.7531 57.3658C46.9615 57.5765 46.6477 58.6266 47.4871 58.3105C47.9086 58.3105 48.014 58.6266 48.117 58.9427C48.4331 59.3619 48.3277 59.6768 48.3277 59.8875C48.117 60.309 48.7492 60.412 49.0629 60.7281C49.6928 61.2526 50.7441 61.4633 51.4793 61.4633C52.2145 61.4633 53.4754 61.4633 54.2106 61.0419C54.7375 60.7281 55.9972 60.412 56.3121 60.3078C56.6282 60.0971 57.3634 60.4132 57.6783 60.3078C57.9921 60.0971 57.7837 59.6756 57.6783 59.3619C57.3622 59.0458 56.8354 59.0458 56.5217 59.0458C56.3109 59.1511 55.9948 59.0458 55.5757 58.9404C55.0489 58.7297 54.8405 58.6266 54.2095 58.7297C53.5796 58.9404 51.8984 58.9404 51.1632 58.6266C50.428 58.3105 50.0077 57.3658 49.797 56.9455C49.4809 56.5263 48.9564 57.0508 48.4319 56.9455C48.1158 56.8401 47.486 56.3156 46.8549 56.2114C45.9102 55.8953 46.1197 56.3168 46.2251 56.4222L46.2263 56.4198ZM38.9771 50.3262C39.2932 51.0614 40.0272 50.6423 40.3422 50.853C40.6583 50.853 40.6583 51.0614 40.9744 51.0614C41.2905 51.0614 41.3958 50.956 41.9191 51.3775C42.446 52.0073 43.0758 51.3775 42.3406 50.6399C41.8138 50.1154 42.1299 48.5396 41.3947 48.5396C41.0786 48.5396 40.6571 48.8557 40.341 48.9611C40.0273 49.1718 39.9219 48.8557 39.0813 48.9611C38.3461 49.1718 38.8706 49.6963 38.9759 50.3273L38.9771 50.3262ZM32.6751 39.6093C32.9912 39.7147 34.3562 40.0308 35.0915 39.7147C35.5129 39.6093 35.932 38.8741 35.932 38.4538C35.932 38.1377 35.8267 37.8216 35.4052 37.6132C34.8819 37.5078 34.8819 38.0347 35.0915 38.2431C35.1968 38.5592 35.4076 39.189 34.3562 39.2944C33.4103 39.2944 33.4103 38.5592 33.621 38.1389C33.8317 37.4013 33.4103 37.4013 32.6751 38.0335C32.2536 38.5603 32.359 39.189 32.6751 39.6093ZM31.3088 40.5553C31.6249 40.6606 32.3601 40.8713 33.4103 40.9767C34.0425 41.1874 35.0915 40.9767 35.4064 40.9767C35.7225 40.9767 36.247 40.766 36.247 41.3982C36.4577 42.1322 35.5129 41.9215 35.198 41.9215C34.7765 41.9215 33.7264 41.9215 33.0965 41.7108C32.5697 41.7108 30.9939 41.397 30.4682 40.9767C30.1521 40.6606 29.8384 40.2415 29.2074 40.0308C28.5775 39.9254 28.1572 40.9767 28.5775 41.0809C28.8936 41.2916 29.3127 41.6054 28.8936 42.0257C28.2614 42.6579 28.5775 43.4973 28.8936 43.8122C29.2074 44.1283 29.8384 44.9677 30.1533 45.2827C30.364 45.5964 30.8885 45.4934 31.0993 45.5964C31.31 45.8071 32.0452 46.2286 32.3601 46.6477C32.4655 46.9638 32.9923 46.5424 33.4115 46.2263C33.7276 45.9125 34.252 46.5424 34.0437 46.8585C33.8329 47.1746 33.7276 47.1746 33.4115 47.9086C33.0954 48.6438 32.5709 48.5385 31.941 48.5385C31.3088 48.5385 31.4142 48.9599 31.4142 48.9599C31.5196 48.9599 31.7303 49.5921 31.7303 49.6951C31.7303 49.9059 31.3088 50.1166 30.6801 50.1166C30.1533 50.1166 29.6288 50.0112 29.2085 49.9059C28.8924 49.6951 29.1032 50.3273 29.3139 50.6411C29.63 50.9572 29.9461 51.6924 30.6801 51.7966C30.9962 52.0073 31.6261 51.7966 31.7303 51.6912C32.2571 51.3751 32.9912 51.0614 32.9912 50.6411C32.9912 50.1143 32.6751 49.9059 33.3049 49.3802C33.7264 49.1695 34.1455 49.694 34.4616 50.0101C34.7777 50.2208 35.4064 50.0101 35.8267 49.5886C36.2481 49.2725 36.2481 48.014 36.1428 47.5937C35.932 47.1722 35.5106 47.1722 35.0915 46.8561C34.5646 46.437 35.4076 45.8071 35.4076 45.8071C35.4076 45.8071 36.878 45.0719 36.6673 44.3367C36.5619 43.3908 36.878 42.6555 36.9834 42.2353C37.1941 41.9192 36.5619 41.9192 36.9834 41.1839C37.2994 40.5517 38.2431 39.9219 38.3484 39.292C38.3484 38.7652 37.927 38.4515 37.5078 38.2407C36.981 38.1354 36.981 38.7675 36.878 39.292C36.6673 39.9219 36.1428 40.238 35.5117 40.3422H32.7804C32.359 40.2392 32.1482 40.2392 31.6249 39.9231C30.9927 39.7123 30.8874 40.4499 31.3088 40.5553ZM28.1572 36.8792C28.2626 37.6144 29.3139 37.9293 29.8396 37.9293C30.0503 37.9293 30.5748 37.0887 30.8897 36.6684C31.1004 36.1439 31.4165 35.5129 31.1004 35.3034C30.8897 34.9873 29.9449 34.5658 29.2085 35.3034C28.4733 35.9332 27.9477 36.1439 28.1572 36.8792ZM27.1082 54.8452C26.7922 54.9506 26.1623 55.372 25.111 55.372C24.3758 55.372 23.0107 55.2666 22.9053 55.6858C22.6946 56.1072 22.4839 56.421 22.5892 56.7359C22.6946 57.052 22.2731 57.7896 21.6445 57.3681C21.223 56.9466 21.3284 55.8965 21.5391 55.372C21.5391 54.9506 22.2743 52.2192 22.5904 51.9043C22.9065 51.5882 23.6405 50.1178 24.1662 49.8028C24.693 49.4868 25.3229 49.6975 25.4282 50.0136C25.5336 50.2243 25.639 51.484 25.4282 51.5894C25.3229 51.9055 25.0068 51.5894 24.4823 51.9055C24.2716 52.2192 23.6417 53.1652 23.6417 53.4801C23.6417 53.7939 23.431 53.8992 24.0632 53.8992C24.6919 53.7939 24.7972 53.5831 25.008 53.7939C25.111 53.7939 25.742 54.0046 26.1623 53.7939C26.5838 53.5831 27.5285 53.5831 27.4232 52.2181C27.4232 50.853 27.2124 50.4327 27.5285 49.8017C27.6339 49.3802 28.1584 48.7515 27.5285 48.1205C26.8963 47.596 26.4772 46.8596 25.742 46.8596C24.3758 46.6489 24.7961 47.3865 24.4811 47.5972C24.165 47.7002 23.431 48.0163 22.9053 47.9109C22.2731 47.7002 21.5391 47.7002 21.2242 48.1217C20.6973 48.7515 20.592 49.0665 20.4889 49.4868C20.4889 50.0112 19.9621 50.7465 19.6484 51.1667C19.2269 51.4828 19.2269 51.7966 19.1215 52.3223C18.9131 52.9545 18.8078 53.8981 18.8078 54.213C18.597 54.5291 19.3346 56.8401 19.6484 57.6807C19.8591 58.4147 20.2782 59.8863 20.5931 60.2013C20.9092 60.412 21.223 60.412 21.5379 60.2013C21.9594 60.0959 22.3785 59.8852 22.5892 60.412C22.9053 60.6227 22.6946 61.9866 22.6946 62.3027C22.6946 62.6188 23.1137 63.2475 23.3244 63.3529C23.6405 63.5636 23.4298 63.8797 23.6405 64.1935C23.7459 64.4042 23.9543 64.6149 24.3746 64.7203C24.6907 64.9287 25.1098 65.034 25.3205 65.349C25.4259 65.6651 25.4259 65.9812 25.8474 66.2949C26.3707 66.5057 26.8963 67.0301 26.8963 67.3451C26.8963 67.6612 26.4749 67.9773 25.8462 68.0826C25.3194 68.1856 24.165 68.3964 24.0597 68.7113C23.9543 69.0274 23.7459 69.3435 24.165 69.4465C24.6919 69.5519 26.0569 69.5519 26.8975 69.3412C27.8435 69.0251 28.8936 68.7113 29.1043 68.3964C29.2074 68.1857 29.6277 67.6612 29.9438 67.4504C30.2599 67.3451 30.9939 67.1343 31.4142 67.029C31.6249 67.029 32.0464 67.029 32.1494 66.9236C32.3601 66.7152 32.7816 65.98 33.2031 65.8746C33.4115 65.4532 33.7264 65.3478 34.1467 65.0317C34.5681 64.9263 34.7789 64.1923 34.8842 63.9827C35.198 63.6666 35.9332 63.772 35.9332 63.2452C35.9332 62.6165 34.8831 62.7219 34.3574 62.7219C33.7252 62.7219 33.0965 63.0379 32.3613 63.3517C31.7315 63.6678 31.3112 63.8785 30.7867 64.0869C30.3652 64.403 29.9461 64.7191 29.8407 65.0329C29.63 65.349 29.63 65.6651 29.3139 65.9812C29.0001 66.0842 28.3703 66.2949 28.1596 65.9812C27.8458 65.6651 27.8458 65.1382 27.5309 65.0329C27.2148 64.9275 26.8987 64.7191 26.7933 64.6137C26.4796 64.2977 26.4796 64.0869 26.3742 63.9839C26.1635 63.9839 25.8497 63.9839 25.7443 63.6678C25.5336 63.2463 25.639 62.723 25.3229 62.5123C24.7984 61.9855 24.693 61.1472 24.3781 60.9365C24.062 60.8311 23.4333 60.6227 23.4333 60.412C23.4333 59.8875 23.6441 59.4672 24.0632 59.4672C24.4846 59.2565 24.3793 58.5213 24.4846 58.3105C24.6954 57.9944 25.6402 57.155 26.3754 57.0508C26.9022 56.8401 27.4267 56.6317 27.5321 56.7347C27.6374 56.8401 27.4267 57.5777 27.6374 57.683C27.8481 57.683 29.6323 58.1022 30.158 57.9968C30.5795 57.7861 31.4189 57.052 32.0499 57.052C32.6797 57.052 32.7851 57.2627 32.6797 57.6842C32.3637 57.998 31.6296 58.4183 31.3135 58.7332C30.9974 59.1546 30.5783 59.6791 30.5783 59.6791C30.5783 59.6791 30.1568 59.4684 29.6323 59.4684C29.2109 59.4684 27.9523 59.6791 27.6362 60.5197C27.2148 61.4657 27.4255 61.9901 27.5309 62.3062C27.5309 62.6223 27.847 63.4618 27.847 63.5671C27.9523 63.6725 28.5822 63.6725 28.6876 63.5671C28.8983 63.4618 29.3174 62.7265 29.212 62.5158C29.212 62.1997 28.896 60.94 29.3174 60.6251C29.7389 60.4143 30.3687 60.5197 30.3687 60.8358C30.2634 61.1519 30.3687 61.5699 30.6848 61.4657C30.9986 61.2549 31.6296 61.1496 31.8392 61.1496C32.1553 61.1496 32.8893 61.4657 33.2054 61.4657C34.4651 61.1496 34.5693 60.6251 34.78 60.4143C35.0961 59.4696 35.8302 58.5236 36.6708 58.8385C37.6167 59.1546 37.9316 58.6278 38.3519 58.4171C38.668 58.3117 38.9841 58.4171 39.1925 58.7332C39.5086 59.0493 40.0331 60.2048 40.4534 61.0454C40.8749 61.7829 41.5047 62.3074 41.8208 62.517C42.1369 62.7277 42.7656 62.7277 42.871 62.9384C42.9763 63.0438 43.6062 63.5683 44.0265 63.6725C44.5533 63.6725 46.2333 63.4618 46.3387 63.4618C46.444 63.4618 47.2834 63.6725 47.4942 64.1993C48.021 64.5131 48.021 64.5131 48.3347 64.7238C48.6508 64.9345 49.07 65.2506 49.07 64.7238C49.07 64.3023 48.8592 63.2522 48.4401 62.8319C48.0187 62.3074 47.7026 61.8871 47.3888 61.8871C46.9673 61.8871 46.2333 61.571 46.0226 61.571C45.2873 61.4657 44.867 61.0442 44.5521 60.8335C44.133 60.5197 44.3437 59.7845 44.3437 59.4696C44.3437 59.0481 44.2384 58.3129 44.0276 57.683C43.6062 56.421 43.6062 56.0007 43.5031 55.3708C43.2924 54.6333 43.5031 53.7939 42.9763 53.5843C42.5572 53.4789 41.5059 53.1628 40.9814 53.2682C40.1408 53.2682 39.8259 53.4789 39.4056 53.2682C38.9841 53.1628 38.668 52.8467 37.934 52.8467C37.1988 53.0575 36.988 52.8467 36.6731 52.7414C36.4624 52.533 36.1486 52.533 35.623 52.7414C35.4122 52.8467 35.0961 53.1628 35.3069 53.2682C35.623 53.4789 36.1498 53.2682 36.2528 53.5843C36.4635 53.8981 36.5689 54.213 36.885 54.5291C37.2011 54.8452 37.6202 55.1589 37.5149 55.2643C37.3041 55.3697 36.885 55.5804 36.6743 55.5804C36.5689 55.5804 35.9391 55.1589 35.5188 54.8428C34.8889 54.5291 34.4686 54.0034 34.0483 54.213C33.7322 54.3184 33.7322 55.1589 33.4161 55.2643C33.1024 55.5804 32.7875 55.6858 32.4725 55.3697C32.1564 55.1589 32.0534 54.213 31.7373 54.0034C31.6319 53.8981 30.8967 53.582 30.1615 54.0034C29.3209 54.3195 28.9006 54.5303 28.5857 54.5303C28.1642 54.6333 27.5356 54.6333 27.1153 54.844L27.1082 54.8452ZM48.6438 8.93033C47.699 9.56018 46.2286 10.6115 44.6516 14.6037C43.1812 18.7012 42.9716 18.912 42.8663 19.7526C42.8663 21.0123 43.8122 21.1176 44.2325 20.3824C44.7593 19.4365 44.9677 18.912 45.5976 18.912C46.019 18.912 46.2298 19.4365 46.1244 20.3824C46.019 21.223 46.6489 20.6985 47.0692 20.0663C47.596 19.4365 47.699 17.6511 47.9098 16.601C47.9098 15.655 48.2259 14.9186 48.2259 14.078C48.3312 13.2374 48.4366 12.2927 48.0151 12.2927C47.5937 12.2927 47.2776 12.398 47.2776 12.0819C47.2776 11.5574 48.7504 10.2966 49.1707 9.98047C50.0112 9.55901 49.4867 8.51004 48.6438 8.93033ZM81.635 40.8702C81.635 63.2487 63.2487 81.635 40.7648 81.635C18.1756 81.635 0 63.2499 0 40.8702C0 18.2809 18.3863 0 40.7648 0C63.354 0 81.635 18.3863 81.635 40.8702ZM79.5347 40.8702C79.5347 30.4682 75.5425 20.8039 68.1868 13.4482C60.8311 6.09365 51.1667 2.10146 40.7648 2.10146C30.4682 2.10146 20.6985 6.19901 13.4482 13.4482C6.09365 20.8039 1.99609 30.4682 1.99609 40.8702C2.10146 51.1667 6.09365 60.9365 13.4482 68.1868C20.6973 75.5413 30.4682 79.5347 40.7648 79.5347C51.1667 79.5347 60.8311 75.5425 68.1868 68.1868C75.4371 60.9365 79.5347 51.1667 79.5347 40.8702ZM40.4487 57.2604C40.9755 57.2604 41.397 56.3144 41.397 55.8942C41.397 55.5781 40.6594 55.2643 40.135 54.9494C39.6081 54.6333 38.8741 54.2118 38.2431 55.2655C37.8216 55.9995 39.9231 57.2604 40.4487 57.2604ZM50.5357 68.6071C50.4304 68.291 50.1143 68.291 50.0112 68.6071C49.8005 68.8178 48.9599 69.7626 48.3301 69.868C47.6979 70.1817 48.014 70.0787 47.4895 70.0787C47.068 70.0787 46.334 70.1817 46.334 70.1817C46.334 70.1817 46.2286 70.3925 46.1232 70.4978C45.8071 70.6032 45.4934 70.8139 44.9677 70.8139C44.757 70.8139 44.4409 70.9193 44.1271 71.1277C43.8111 71.2331 44.1271 71.5492 44.4432 71.5492C44.654 71.5492 45.1773 71.4438 45.4934 71.4438C45.7018 71.4438 46.5424 71.5492 46.6477 71.4438C46.8585 71.4438 47.0692 71.2331 47.4883 71.2331C48.0151 71.2331 48.2235 71.2331 48.4343 71.1277C48.7504 70.917 49.1695 70.8116 49.694 70.6009C50.1154 70.3925 50.7453 70.4978 50.9548 70.3925C51.1656 70.1817 51.1656 70.0764 51.0602 69.8656C50.8495 69.5519 50.7441 68.8167 50.6387 68.6059H50.5334L50.5357 68.6071ZM238.288 77.013V73.6506H93.8223V77.013M94.3491 23.1137C94.3491 22.0636 96.2398 22.3785 96.2398 22.3785H107.481C107.481 22.3785 114.417 22.5892 117.043 25.6355C122.296 31.4142 119.564 37.7174 117.778 39.2944C116.413 40.5553 114.207 41.1851 114.207 41.1851C114.207 41.1851 117.462 42.0245 119.774 44.0206C122.401 46.437 125.553 54.7375 122.191 60.3055C119.039 65.349 114.941 66.1896 109.793 65.98C105.169 65.7693 106.012 65.2424 101.282 65.3478C97.29 65.4532 95.1885 65.5585 95.1885 65.5585C95.1885 65.5585 93.6127 65.7693 93.7181 64.7179C93.9288 63.6666 94.7694 63.772 96.241 62.9314C97.0816 62.3016 97.8168 60.6204 98.0275 59.15C98.3436 57.1527 98.449 54.4202 98.449 54.4202V30.7832C98.449 30.7832 98.3437 30.3617 98.3437 29.9402C98.3437 26.9994 96.0315 24.4776 95.1909 24.1627C94.4557 23.8489 94.4557 23.6382 94.3503 23.1126L94.3491 23.1137ZM104.12 26.5814V38.8741C104.12 38.8741 104.12 39.5039 104.331 39.82C104.645 40.3445 105.276 40.4499 105.276 40.4499H107.166C107.166 40.4499 108.322 40.4499 109.268 40.1361C109.9 40.0308 111.684 38.8753 112.838 37.509C113.681 36.5642 114.417 34.3574 114.417 32.7816C114.417 29.2085 113.157 27.7381 111.476 26.8975C109.059 25.742 106.117 25.742 106.117 25.742H104.963C104.963 25.742 104.436 25.742 104.225 25.9527C104.122 26.2688 104.122 26.5826 104.122 26.5826L104.12 26.5814ZM104.12 44.1272V60.8335C104.12 61.2526 104.75 61.6729 105.17 61.8836C106.011 62.1974 106.746 62.3027 106.746 62.3027H110.211C110.211 62.3027 112.838 62.4081 114.836 61.1472C117.147 59.5714 117.882 56.1049 117.777 53.4789C117.671 49.9059 116.306 48.0151 114.311 46.1232C111.998 44.0218 106.956 44.1272 106.956 44.1272H104.118H104.12ZM122.296 64.8257C122.506 63.4594 123.452 64.6149 125.239 62.6188C126.605 61.1484 127.446 59.7822 128.39 57.8891C128.812 56.9455 129.442 55.1589 129.442 55.1589L139.633 27.1083C139.633 27.1083 139.738 26.16 139.738 25.4259C139.738 24.7937 139.633 24.165 139.633 24.165C139.633 24.165 140.157 24.0597 140.472 24.0597L141.418 23.7459L145.937 22.2743L158.438 53.4789C158.438 53.4789 160.434 58.9416 162.641 61.5687C163.482 62.6188 164.427 63.4594 165.478 63.4594C167.265 63.5648 166.319 65.4555 165.162 65.4555C164.217 65.4555 160.748 65.3501 157.913 65.4555C154.656 65.4555 148.562 65.6662 148.562 65.6662C148.562 65.6662 147.301 65.7716 147.512 64.8257C147.933 63.5648 148.877 63.7743 149.613 63.669C151.504 63.2475 153.922 62.4081 154.341 60.5174C154.657 59.1511 153.711 56.7359 153.711 56.7359L149.403 46.1232H137.215L133.645 56.1049C133.645 56.1049 133.223 57.47 133.118 58.2063C133.012 58.8362 133.012 61.1484 133.958 62.1985C134.904 63.354 137.424 63.669 138.583 63.669C139.737 63.7743 138.897 65.5609 137.951 65.5609C137.005 65.5609 133.223 65.4555 130.388 65.3501C127.759 65.2448 123.031 65.5609 123.031 65.5609C123.031 65.5609 122.293 65.877 122.293 64.8257H122.296ZM138.477 42.7609H148.248L143.101 29.733L138.477 42.7609ZM163.379 23.2191C163.379 23.2191 164.533 23.3245 166.005 23.4298C167.581 23.4298 169.892 23.5352 169.892 23.5352H186.493C186.493 23.5352 189.224 23.5352 191.955 23.3245C194.058 23.1137 197.209 22.903 197.209 22.903C197.209 22.903 197.104 25.2152 196.58 28.0519C196.053 30.9951 195.634 32.6762 195.634 32.6762C195.634 32.6762 195.423 33.8317 195.109 33.9371C194.898 34.1478 193.323 34.6723 193.323 34.6723C193.323 34.6723 193.639 32.6762 193.639 31.7303C193.533 30.3652 193.112 28.1596 192.272 27.5274C190.697 26.4772 188.807 26.5826 187.335 26.4772C185.864 26.3719 183.449 26.4772 182.816 27.0041C182.081 27.4232 182.187 28.7882 182.187 28.7882V57.0497C182.187 57.0497 182.081 60.6227 183.762 61.8848C185.13 62.9338 187.441 63.5648 187.441 63.5648C187.441 63.5648 189.122 63.5648 188.702 64.7203C188.491 65.5609 187.545 65.6651 187.545 65.6651C187.545 65.6651 181.661 65.4543 178.823 65.4543C174.623 65.4543 171.155 65.6651 169.894 65.6651C168.213 65.7704 168.633 63.6678 170.105 63.5636C170.945 63.4582 173.151 63.2475 174.624 61.5663C176.198 59.8852 176.408 56.4175 176.408 56.4175V30.048C176.408 30.048 176.303 28.0519 175.776 27.422C174.726 26.2665 172.1 26.3707 169.998 26.5814C167.371 26.7922 165.69 27.7369 165.06 29.5235C164.325 31.3088 164.009 33.7264 163.379 33.9371C162.854 34.2509 161.384 34.5658 161.384 34.5658C161.384 34.5658 162.014 31.7291 162.539 28.368C162.856 26.0569 163.38 23.2203 163.38 23.2203L163.379 23.2191ZM200.886 22.903C199.414 22.7976 199.099 24.7949 199.94 25.0056C200.99 25.214 201.83 25.1086 202.776 26.16C203.826 27.4208 203.617 30.1521 203.617 30.1521V55.6834C203.617 55.6834 203.617 58.6255 203.406 59.9917C203.09 62.092 202.251 62.8272 201.095 63.2463C200.147 63.6678 199.307 63.7732 199.203 64.8245C199.098 65.8746 200.148 65.6639 200.148 65.6639C200.148 65.6639 202.882 65.4532 206.348 65.4532C209.816 65.4532 213.493 65.6639 214.543 65.6639C215.699 65.6639 216.33 63.8774 214.754 63.6666C212.967 63.3505 211.181 63.0368 209.919 61.8813C208.87 60.933 209.079 58.5178 209.079 58.5178V43.3919H229.146V58.5213C229.146 58.5213 229.146 61.8836 227.466 62.4081C225.889 62.9349 224.944 63.0403 223.79 63.2487C222.631 63.4594 221.476 65.6651 222.841 65.6651C224.209 65.6651 228.516 65.349 231.879 65.349C233.874 65.349 237.131 65.5597 237.552 65.5597C238.602 65.6651 239.022 65.2436 239.127 64.5084C239.444 63.7732 238.392 63.5636 237.761 63.3529C237.024 63.0368 236.29 62.826 235.554 61.7771C234.819 60.515 235.028 57.7849 235.028 57.7849V30.2575C235.028 30.2575 234.922 27.6304 235.765 26.3707C236.71 24.8991 237.13 25.1086 237.971 24.7937C239.02 24.4776 239.23 22.7965 238.284 22.9018C237.234 23.0072 233.871 23.2179 231.981 23.2179C229.039 23.1126 225.886 23.0072 225.151 22.9018C223.786 22.9018 223.47 25.0033 224.521 25.0033C225.572 25.0033 227.463 25.317 228.303 26.5779C229.249 27.9442 229.249 30.3594 229.146 30.4647V39.8165H209.076V30.2552C209.076 30.2552 208.971 27.1036 210.441 26.1576C211.492 25.4224 212.437 25.4224 213.593 25.2117C214.749 25.0009 215.485 22.9006 214.225 23.006H206.554C203.612 23.006 202.035 23.006 200.88 22.9006L200.886 22.903ZM214.543 9.66555C214.543 7.88018 215.07 6.51394 216.224 5.46263C217.17 4.51785 218.535 4.09755 220.006 4.09755C221.373 4.09755 222.529 4.51902 223.579 5.35843C224.84 6.40858 225.471 7.88018 225.471 9.77208C225.471 11.4521 224.839 12.9213 223.79 13.975C222.738 14.8144 221.477 15.3401 220.114 15.3401C216.75 15.3401 214.543 13.0279 214.543 9.66555ZM220.217 5.25189C218.326 5.25189 217.065 6.93423 217.065 9.77091C217.065 12.713 218.431 14.5007 220.112 14.5007C222.003 14.5007 223.264 12.713 223.264 9.87628C223.264 6.93423 222.003 5.25189 220.217 5.25189ZM228.622 15.3401H233.35V14.4995H232.3L231.984 14.1834V10.4019H234.19L234.401 10.6127L234.612 11.767H235.557V7.98438H234.611L234.4 9.14106L234.189 9.35179H231.985V5.3596H235.136L235.347 5.56799L235.558 7.14496H236.712V4.41365H228.517V5.1477L229.568 5.25307L229.884 5.4638V14.1834L229.568 14.4995H228.622V15.3401Z" fill="#202329"/>
  <path d="M95.6113 4.41326V5.14731L96.6615 5.25268L96.8722 5.46341V11.0314C96.8722 12.2923 96.9776 13.2382 97.6074 14.0788C98.2373 14.9194 99.4981 15.3397 101.073 15.3397C104.121 15.3397 105.381 14.0788 105.381 11.1368V5.5676L105.592 5.25151L106.538 5.14614V4.41326H102.862V5.14731L103.911 5.25268L104.121 5.56878V10.926C104.121 13.0275 103.492 14.0788 101.705 14.0788C99.7089 14.0788 99.0779 13.1329 99.0779 11.0314V5.46341L99.2886 5.25268L100.233 5.14731V4.41326H95.6113ZM109.059 15.3397H112.841V14.6021L111.791 14.3937L111.58 14.183V6.51473L117.255 15.3397H119.041V5.5676L119.357 5.25151L120.301 5.14614V4.41326H116.519V5.14731L117.57 5.25268L117.886 5.56878V12.6072L112.842 4.83122V4.40975H109.061V5.14731L110.11 5.25268L110.426 5.46341V14.1818L110.11 14.3926L109.061 14.6033V15.3385M122.823 15.3397H127.658V14.4991H126.499L126.29 14.183V5.46341L126.501 5.25268L127.657 5.14731V4.41326H122.823V5.14731L123.874 5.25268L124.19 5.46341V14.183L123.874 14.4991H122.823V15.3397ZM129.862 4.41326V5.14731L130.914 5.35804L134.592 15.3397H136.168L139.738 5.35804L140.79 5.14731V4.41326H137.324V5.14731L138.164 5.25268L138.375 5.46341L135.853 12.921L133.119 5.46341L133.33 5.25268L134.275 5.14731V4.41326H129.862ZM142.786 15.3397H151.402V12.3976H150.349L150.035 14.183L149.824 14.3937H146.148V10.1908H148.144L148.458 10.4015L148.563 11.5571H149.508V7.7756H148.563L148.458 8.92994L148.142 9.14067H146.146V5.25385H149.299L149.509 5.46458L149.72 6.93385H150.874V4.41326H142.785V5.14731L143.729 5.25268L143.94 5.46341V14.183L143.729 14.4991H142.784V15.3397M154.553 4.41326H159.386C161.909 4.41326 163.275 5.35804 163.275 7.14458C163.275 8.61501 162.329 9.56096 160.438 9.87589C161.172 10.0866 161.802 10.4027 162.117 10.926C162.644 11.6636 162.749 12.5018 163.063 13.3424C163.379 14.183 163.904 14.3937 164.955 14.3937H165.166V15.2343C164.639 15.2343 164.114 15.3397 163.589 15.3397C162.855 15.3397 162.329 15.129 161.909 14.8129C161.068 14.183 160.858 13.4478 160.648 12.7126C160.121 11.1356 159.702 10.4004 158.126 10.4004H157.81V14.0765L158.126 14.2872L159.072 14.3926V15.2331H154.553V14.3926L155.501 14.2872L155.71 14.0765V5.46458L155.499 5.25385L154.554 5.14848V4.41326H154.553ZM157.915 5.25268V9.35023C158.126 9.4556 158.337 9.4556 158.44 9.4556C160.121 9.4556 160.961 8.72038 160.961 7.24877C160.961 5.9879 160.121 5.25268 158.65 5.25268H157.915ZM167.686 14.814C168.737 15.1301 169.789 15.3409 170.734 15.3409C173.361 15.3409 175.042 13.9734 175.042 11.9773C175.042 11.0326 174.515 10.192 173.57 9.56213C172.625 8.92994 171.785 8.72155 171.259 8.40545C170.419 7.87863 169.998 7.4595 169.998 6.72429C169.998 5.77834 170.734 5.14731 171.89 5.14731C172.417 5.14731 172.733 5.25268 173.047 5.35804L173.258 5.56878L173.571 7.24877H174.728V4.624C173.677 4.3079 172.732 4.09717 171.681 4.09717C169.371 4.09717 167.899 5.46341 167.899 7.24877C167.899 8.08936 168.321 8.82457 169.056 9.4556C169.791 10.0855 170.526 10.4015 171.156 10.7165C172.313 11.2433 172.837 11.872 172.837 12.7126C172.837 13.6573 172.102 14.2872 170.736 14.2872C170.314 14.2872 169.791 14.1818 169.371 14.0765L169.16 13.8657L168.949 11.8708H167.69V14.814H167.686ZM178.403 15.3397H183.13V14.4991H182.08L181.764 14.183V5.46341L182.08 5.25268L183.13 5.14731V4.41326H178.403V5.14731L179.453 5.25268L179.664 5.46341V14.183L179.453 14.4991H178.403V15.3397ZM185.967 4.41326V7.24643H187.018L187.334 5.46107L187.543 5.3557H189.435V14.1807L189.224 14.4968H188.174V15.3373H193.009V14.4968H191.958L191.642 14.1807V5.35804H193.533L193.85 5.46341L194.058 7.24877H195.215V4.41326H185.967ZM197.105 4.41326V5.14731L198.154 5.35804L201.307 11.0314V14.183L201.096 14.3937L199.94 14.4991V15.3397H204.878V14.4991L203.722 14.3937L203.512 14.183V10.6123L206.559 5.35804L207.505 5.14731V4.41326H204.037V5.14731L204.983 5.35804L205.089 5.56878L202.776 9.56096L200.571 5.46341L200.676 5.25268L201.622 5.14731V4.41326H197.103" fill="#202329"/>
</svg>
