<svg width="320" height="175" viewBox="0 0 320 175" fill="none" xmlns="http://www.w3.org/2000/svg">
<rect x="0.818824" y="0.818824" width="318.362" height="173.362" rx="2.45647" fill="white"/>
<rect x="0.818824" y="0.818824" width="318.362" height="173.362" rx="2.45647" stroke="#E0E0E0" stroke-width="1.63765"/>
<g clip-path="url(#clip0_3411_1985)">
<path d="M116.276 82.0363C116.171 81.4064 115.644 79.1996 115.541 78.7793C115.435 78.256 114.908 77.4154 114.803 76.8897C114.595 76.679 114.28 75.4181 114.174 74.999C114.069 74.4745 113.123 72.2677 112.807 71.639C112.491 71.0068 112.386 70.2716 112.491 70.062C112.386 69.5352 111.337 67.8552 112.386 67.6445L112.491 67.4338C113.753 69.5364 114.908 71.742 115.749 73.9489C115.854 74.1596 115.854 74.3703 115.96 74.4757V74.6841C116.905 77.207 117.536 79.8353 117.956 82.5654C117.534 82.6708 116.484 82.7762 116.275 82.0386L116.276 82.0363ZM107.449 70.4812C107.659 71.2152 108.292 72.4761 108.711 72.8964C109.237 73.3178 110.286 74.5775 110.707 74.8925C111.128 75.2086 111.547 75.63 112.388 76.9951C113.125 78.0452 113.545 80.1467 113.754 80.8819C113.754 81.6171 114.07 82.0374 114.489 82.5631C114.805 82.8792 115.645 82.6685 115.541 82.247C115.435 81.8279 114.908 80.7766 114.803 79.7264C114.595 78.0441 113.754 77.3089 113.545 76.7832C113.334 76.3617 112.705 75.6277 112.389 74.9978C112.073 74.4734 110.919 73.9477 110.393 73.3178C109.971 72.8964 109.237 71.2164 109.237 70.7961C109.029 70.377 109.659 70.1662 110.186 70.4823C110.605 70.9038 111.129 72.4784 111.445 73.1083C111.656 73.5297 112.916 73.8435 112.811 73.319C112.494 72.8975 112.494 72.0581 112.075 71.4271C111.654 70.7949 111.34 70.3758 111.445 69.4298C111.656 68.3797 110.919 68.3797 110.394 68.0636C109.973 67.8529 110.289 67.3284 110.394 66.9081C110.605 66.2782 109.659 65.9633 109.239 65.6472C108.714 65.4365 106.929 65.0174 106.613 64.8066C106.297 64.4905 106.613 63.8619 106.929 63.7565C107.559 63.4404 109.24 63.9672 110.289 64.3863C109.345 63.2308 108.399 62.0753 107.35 61.0263C105.983 59.7643 104.617 58.5034 103.147 57.4521C101.885 58.2927 100.73 60.1846 100.415 60.6049C100.204 61.0263 100.204 61.5497 99.888 62.1807C99.5742 62.8105 98.4176 65.646 98.208 66.2782C97.8919 67.0135 97.4728 67.7487 97.1579 68.0636C96.8418 68.3797 97.474 68.8012 97.5793 69.1149C97.7901 69.431 97.474 69.7448 97.1579 70.0609C96.8418 70.2716 97.0525 70.7961 96.528 71.2164C96.1065 71.6378 96.6334 71.9516 97.3686 71.9516C97.7901 71.6355 98.2092 71.4248 98.4187 70.6907C98.5241 70.377 99.1563 70.377 99.2593 70.062C99.4701 69.8513 99.4701 69.3245 99.8915 68.8012C100.311 68.3797 100.52 67.7499 100.205 67.6445C99.8892 67.4338 99.5754 67.6445 99.4701 67.3284C99.2593 66.9093 100.205 66.174 100.311 65.8591C100.311 65.0185 101.676 62.6022 101.886 62.0777C101.992 61.4455 102.62 61.0263 102.935 60.8156C103.146 60.7103 103.776 60.7103 104.196 60.3942C104.723 60.0804 105.248 60.7103 105.563 61.1317C105.879 61.6562 106.823 61.6562 106.929 62.1819C107.245 62.8117 106.297 63.0224 105.772 63.1266C105.14 63.4427 104.511 64.8066 104.511 64.912C104.722 65.1227 105.876 66.2782 106.402 66.5932C106.613 66.9093 107.243 66.9093 107.557 66.6985C107.874 66.5932 108.609 67.0146 108.713 67.3307C108.924 68.2755 107.872 68.2755 107.557 68.2755C107.241 68.2755 106.402 67.6433 105.876 67.5403C105.455 67.3296 105.244 67.2242 104.72 67.3296C104.09 67.5403 104.404 67.9594 104.509 68.2743C104.72 68.5904 104.72 69.2203 104.509 69.4298C104.404 69.7459 103.879 69.7459 103.879 70.3758C103.984 70.7973 104.195 71.111 104.195 71.4259C104.195 71.7397 104.511 72.16 103.879 72.791C103.668 73.1071 103.563 73.8412 103.668 74.2614C103.774 74.8936 104.406 75.2074 104.72 75.6277C105.141 76.2564 104.93 77.3077 105.666 77.728C106.087 78.0441 106.506 77.728 106.401 77.0958C106.19 76.5725 105.874 75.6265 106.401 75.3116C106.612 75.2062 107.136 75.7331 107.241 76.0468C107.557 76.5736 107.663 77.4131 108.187 77.9375C108.609 78.359 109.343 78.0429 109.237 77.6214C109.029 77.3077 108.398 76.3617 108.924 76.0468C109.345 75.8361 109.554 76.2575 109.868 76.6767C110.185 77.0981 110.604 78.6739 110.919 79.1984C111.024 80.039 112.494 80.1444 112.389 79.5145C112.284 78.8823 111.024 76.6767 110.393 75.8361C109.866 74.8913 109.552 74.9967 108.817 74.8913C107.977 74.6806 107.662 73.9465 106.926 72.8964C106.086 71.8451 106.086 71.4248 106.189 70.6896C106.4 69.8501 107.137 69.7448 107.451 70.4812H107.449ZM96.8382 65.0162C97.3651 63.9649 97.1543 63.65 97.1543 63.2297C97.1543 62.8082 97.3651 62.2837 97.4704 62.1783C97.5758 61.8622 98.1003 59.6566 98.5206 59.1309C98.8367 58.8148 101.042 57.4486 102.302 56.8187C101.778 56.3973 101.148 56.0835 100.622 55.6632C99.3612 56.7134 96.7352 58.7095 96.103 60.496C95.1583 63.2273 95.1583 64.5936 94.738 67.1153C94.3165 69.7413 93.5825 71.9481 93.2675 72.894C92.9514 73.6293 94.1081 73.1048 94.3177 72.6833C94.423 72.2618 94.9499 71.8427 94.9499 71.4224C95.0552 70.8956 95.369 70.4765 95.7893 69.7401C96.3161 69.0049 95.6839 68.4792 96 67.6386C96.1054 66.6939 96.4191 66.0628 96.8394 65.0127L96.8382 65.0162ZM86.5429 50.5167C90.8511 51.1489 95.0541 52.6182 98.9409 54.7196C98.1003 54.9304 97.0502 55.4548 96.8394 55.6656C95.8958 56.4008 95.0552 56.4008 94.3188 56.4008C93.3741 56.4008 91.9025 55.9793 90.9588 57.767C90.2213 59.5524 89.4861 62.3891 89.2765 64.281C89.1711 65.8568 88.2252 67.7463 88.6443 67.8517C89.1711 67.9571 89.9064 66.6974 90.2213 65.4365C90.5374 64.7013 90.8535 63.65 91.1672 63.2297C91.2726 62.7028 92.1132 61.9676 92.1132 63.0189C92.1132 64.0691 91.378 65.1204 90.9577 66.4843C90.5362 67.8517 90.5362 68.5869 89.9064 69.1126C88.9616 69.9532 88.8562 70.7937 89.4849 70.583C90.1171 70.3746 90.8523 70.583 90.5386 71.0045C90.2225 71.6367 89.5903 71.9504 89.9064 72.2654C90.2225 72.4761 91.1672 72.3707 91.2726 71.7385C91.378 71.1098 91.378 69.9543 91.6941 69.6394C92.0078 69.2179 92.4281 69.6394 92.3227 70.2693C92.0066 71.1098 92.9549 70.6907 92.6388 71.7397C92.6388 72.0558 91.9013 72.791 92.0066 73.1059C92.0066 73.422 92.9549 74.0519 90.9577 74.1573C90.3255 74.1573 87.8049 73.4197 87.0709 73.0006C86.1226 72.4761 85.3885 71.6355 84.6533 71.3194C83.9192 71.0033 82.2381 70.5818 81.9232 70.3735C81.5017 70.0574 81.1856 69.6382 81.1856 69.3221C81.1856 68.9007 80.242 67.9571 79.611 67.1165C79.0865 66.1705 78.1405 65.015 78.4555 63.0189C78.7715 60.9175 78.7715 57.6605 78.034 56.6092C77.0892 55.6644 74.8847 54.1928 74.4633 53.2492C73.9364 52.3009 72.7821 51.7764 71.9415 51.7764C71.52 51.7764 71.8361 55.2441 71.8361 56.0847C71.8361 57.0295 72.1522 57.6605 72.4683 57.7659C72.7821 57.9766 73.2024 58.7106 73.2024 59.4459C73.097 60.1834 72.2541 59.8673 72.4648 61.127C72.5702 61.8646 72.9917 61.6539 73.3078 61.6539C73.6215 61.6539 73.8311 63.0189 73.6215 63.2285C73.3054 63.3339 72.9893 63.4392 73.2 63.9625C73.3054 64.384 73.5161 65.5395 73.9376 65.5395C74.4621 65.5395 74.777 64.802 74.777 64.3828C74.6717 63.9614 74.8824 59.5501 74.9877 58.8148C75.1985 58.0796 74.777 57.3444 74.2502 56.7134C73.8311 56.0835 72.5714 55.3471 72.7809 54.6119C72.8863 53.8767 73.097 52.9308 73.4108 53.0361C73.8322 53.3522 73.8322 54.297 73.7269 54.7173C73.8322 54.928 76.5636 56.8187 77.0869 57.554C77.6137 58.1862 77.6137 61.3354 77.6137 61.8622C77.403 62.3867 76.7731 62.9124 76.6689 62.3867C76.5636 61.5473 77.0904 60.1823 76.2498 60.1823C75.723 60.1823 75.4092 61.127 75.6176 62.3879C75.723 63.7553 76.0391 66.6962 76.3552 67.0123C76.6713 67.223 77.0892 67.4338 77.2999 67.8529C77.4053 68.2743 77.7191 69.1138 78.3489 69.2191C79.0865 69.3245 79.7152 69.5352 79.1895 69.849C78.4543 70.2704 77.4041 70.7949 76.9838 70.7949C75.6176 70.9003 74.5675 71.9516 73.8311 72.3719C72.8863 73.0017 72.2553 74.368 71.835 75.4181C71.7296 75.5235 71.5189 76.5736 70.8902 77.2035C70.1526 77.9387 69.3132 78.359 68.7887 78.5697C68.3673 78.8858 67.7374 79.5145 68.6834 79.305C69.524 78.9889 71.2051 78.2548 71.4147 79.1996C71.52 79.9348 70.0496 79.9348 69.4186 80.0402C68.9971 80.2509 67.7374 80.7754 68.3684 81.4064C68.6845 81.9332 69.8401 80.7742 70.6806 80.7742C71.5212 80.7742 72.5725 81.301 73.3078 81.4064C74.0418 81.6171 75.6176 81.6171 76.1433 81.4064C76.7731 81.301 78.8746 79.6199 80.1354 79.7252C80.976 79.9336 81.922 80.67 82.6572 80.985C83.7073 81.4064 84.6533 82.0351 86.8601 82.0351C89.1711 82.0351 90.6416 81.1945 90.8523 81.719C90.9577 82.3512 90.5362 82.3512 90.5362 82.981C90.5362 83.4025 90.6416 83.824 90.3255 84.1377C90.0117 84.4538 89.2765 84.1377 88.9616 83.8216C88.7509 83.7163 88.4371 83.2971 88.1222 83.2971C87.8061 83.2971 86.6506 83.2971 86.7559 83.5079C86.8613 83.824 87.1774 84.0324 87.9114 84.0324C88.4383 84.0324 89.5926 85.3986 89.9075 85.504C90.2236 85.6093 91.1684 86.3446 90.9588 86.6595C90.7481 86.9756 90.6427 86.9756 90.3266 86.8702C89.9075 86.6595 89.9075 86.238 89.3819 86.3434C88.9604 86.3434 88.5413 87.1863 88.121 87.2917C87.4888 87.6054 86.3345 87.6054 85.7034 87.5001C84.9682 87.184 84.3384 86.6595 83.8127 86.2392C83.2859 85.6093 82.9721 84.7687 82.3423 83.8228C81.7101 82.7715 80.8707 81.7202 80.3462 81.9309C79.9247 81.9309 79.6086 83.0864 79.8194 84.0312C79.9247 85.0825 80.3462 85.6082 80.2408 86.1327C79.9247 86.3434 79.2949 86.9732 79.2949 87.8138C79.1895 88.7586 79.9271 88.3383 79.9271 88.7586C79.9271 89.2854 79.8217 90.0195 79.5056 89.9141C79.1895 89.7034 78.4543 89.4926 78.4543 90.1248C78.4543 90.7547 78.7704 90.6493 79.1895 90.7547C79.611 90.8601 79.5056 91.4899 79.611 91.8048C79.8217 92.1209 79.8217 92.4347 80.2408 92.5401C80.8707 92.8562 80.976 92.1186 81.6059 92.3293C82.3434 92.4347 82.3434 92.5401 82.8668 92.7508C83.3936 92.8562 84.1276 92.7508 84.3384 92.4347C84.6545 92.1186 84.4437 91.3845 84.1276 91.0684C84.0223 90.7547 83.7062 90.0195 84.1276 90.0195C84.7598 89.9141 84.8652 90.4409 85.0736 90.7547C85.179 91.0708 85.6004 91.7006 85.8088 92.0156C86.0195 92.3293 86.441 92.3293 86.7548 92.7496C87.1762 93.0657 87.1762 93.3818 87.3846 93.6956C87.49 94.117 88.4359 94.2224 88.6455 94.5361C88.8562 94.9576 88.8562 95.5863 89.2777 96.2173C89.8022 96.7406 90.2225 97.2663 89.8022 97.6866C89.2777 98.3188 88.1222 96.9514 87.3858 96.0054C86.5452 95.2679 85.7046 94.1135 85.0748 94.1135C84.4449 94.1135 84.4449 94.7434 84.7587 95.8989C85.0748 97.1586 85.2855 97.6842 85.3909 97.895C85.6016 97.895 85.81 97.6842 86.0207 97.895C86.1261 98.0003 86.7559 99.26 87.4911 99.6803C88.2264 100.102 89.1723 100.626 89.9075 100.313C90.6427 99.9964 90.329 99.3642 90.5397 99.2589C90.6427 99.0505 91.5887 98.8398 92.009 98.8398C92.3251 98.8398 92.4305 97.4747 92.4305 97.1586C92.4305 96.8425 92.009 96.4234 92.1144 96.1084C92.2197 95.7923 92.6412 95.3709 92.6412 95.1601C92.6412 95.0571 92.6412 94.0058 92.9549 93.376C93.271 92.6384 93.6925 91.2745 93.5871 90.0136C93.3764 89.3814 93.3764 88.8581 93.6925 87.9122C94.0063 87.0692 94.1116 86.7555 94.0063 86.0203C93.7955 85.1797 93.6902 84.7594 93.6902 84.3391C93.6902 83.9176 93.0615 83.3931 93.271 82.6579C93.3764 82.3418 93.6925 81.2917 93.6925 80.6618C93.6925 79.401 93.6925 78.8753 93.3764 78.2454C93.0603 77.5079 92.4305 76.7738 92.1155 76.6685C91.3803 76.4577 91.5887 76.0386 91.2749 75.7237C90.9588 75.6183 90.6427 75.0915 91.1696 74.9861C91.591 74.8808 91.9048 74.9861 92.4305 74.8808C93.0626 74.67 93.0626 73.936 93.3764 73.936C93.7979 73.936 94.8468 74.0414 94.7415 74.3574C94.6361 74.6712 94.4254 75.6172 95.6874 74.7766C96.1089 74.6712 96.2143 74.3574 96.6334 74.6712C97.1602 74.9873 96.8441 75.3034 96.528 75.6195C96.2119 75.7249 95.3725 76.0386 95.3725 76.144C95.3725 76.3547 95.1618 76.7738 95.6886 76.7738C96.2131 76.7738 96.8429 76.3524 96.9483 76.144C97.159 76.0386 97.3698 75.6172 97.5805 75.6172C98.105 75.6172 97.8966 76.0386 98.6306 75.9333C99.3659 75.7225 99.6808 75.4064 99.9969 74.0425C100.313 72.6763 100.732 70.0503 100.942 68.4734C101.047 66.7934 101.258 65.742 101.258 65.5325C101.258 65.0057 101.468 64.5865 101.679 64.3758C101.785 64.2704 102.414 63.0107 102.729 62.8C103.045 62.4839 103.78 62.5893 103.465 63.3268C103.148 64.0609 102.624 64.3758 102.624 65.0068C102.413 65.5337 102.94 66.2677 102.729 66.688C102.624 67.1095 101.678 67.2148 101.783 67.8447C101.994 68.5799 102.097 70.2611 102.097 70.7867C102.097 71.2082 101.362 71.3136 101.467 71.9434C101.678 72.5733 101.783 72.9935 101.467 73.4138C101.151 73.8353 100.94 74.7801 100.732 75.095C100.732 75.4111 100.627 77.0911 100.311 77.1965C99.6808 77.5126 98.9456 77.1965 98.5253 77.5126C98.2092 77.8287 97.9984 78.352 97.5793 78.352C97.1579 78.352 96.8418 78.5627 96.528 78.8788C96.1065 78.9842 95.8982 79.9278 96.4226 79.6129C96.9495 79.2968 97.9984 78.5615 98.5241 78.5615C98.9456 78.5615 99.3647 78.5615 99.6796 78.3508C99.9957 78.2454 100.731 77.9293 101.151 77.6156C101.678 77.4049 101.783 76.5654 101.783 76.4601C101.783 76.2493 102.728 76.4601 102.728 76.7762C102.728 77.0899 103.044 78.2466 102.834 78.5615C102.728 78.983 102.096 79.5063 102.096 79.5063C102.096 79.5063 100.942 79.9254 101.047 80.3457C101.047 80.7672 102.098 80.4511 102.519 80.3457C103.151 80.2404 103.885 79.6105 103.99 79.7159C104.201 79.9243 103.463 80.7649 103.78 81.7108C103.885 82.6568 105.566 82.7621 106.196 82.446C106.723 82.3407 106.723 82.0246 107.036 81.9215C107.247 81.7108 108.088 81.7108 108.508 81.9215C109.035 82.0269 109.664 82.1323 109.664 82.446C109.664 82.7621 108.823 82.9728 109.034 83.392C109.139 83.8134 109.455 83.8134 109.979 83.7081C110.503 83.7081 111.133 83.8134 111.764 84.0218C112.291 84.1272 114.495 84.7594 115.335 85.0731C115.967 85.1785 116.388 85.9137 116.388 87.1746C116.388 88.3313 116.283 89.6975 115.967 89.6975C115.335 89.6975 115.335 88.2259 114.915 87.2811C114.494 86.3364 113.445 85.8107 113.234 85.9161C113.131 86.2322 112.815 86.5459 113.445 87.1769C113.972 87.8091 114.288 88.2283 114.288 88.6485C114.288 89.07 114.288 89.5945 114.496 89.6999C114.496 89.9106 115.023 90.4351 114.918 90.75C114.707 91.3822 113.552 91.1715 113.235 90.8554C112.922 90.75 113.132 88.5432 112.816 88.0187C112.606 87.5972 111.766 85.9161 111.135 85.6011C110.4 85.3904 109.665 85.6011 109.98 86.3364C110.293 87.1769 110.399 88.0175 110.924 88.3324C111.346 88.6485 111.765 89.2784 111.765 89.2784L111.66 89.6999C111.66 89.6999 111.66 90.9596 111.765 91.2745C111.87 91.696 112.395 91.8013 112.5 92.1174C112.5 92.4312 112.922 93.6921 113.446 94.2177C113.868 94.8476 113.762 95.1625 114.392 95.1625C114.919 95.1625 115.13 94.7434 115.233 94.1135C115.233 93.6921 116.704 93.5867 117.755 93.5867C116.494 101.257 112.922 108.297 107.354 113.866C100.314 121.01 90.9635 124.898 80.8765 124.898C70.896 124.898 61.5443 121.009 54.5058 113.865C47.3609 106.825 43.474 97.4747 43.474 87.493C43.474 77.4072 47.3609 68.0554 54.4005 61.017C54.9273 60.4902 55.4506 60.071 55.9763 59.6507C56.7138 59.6507 57.5532 59.8615 57.8682 60.0722C58.1843 61.017 58.9195 61.4373 59.6547 61.1212C60.3899 60.8051 61.0209 61.0158 61.3359 61.7534C61.652 62.4874 62.0711 62.9077 61.9657 63.6429C61.755 65.0092 60.6007 69.3163 61.3359 72.2595C61.7573 73.7299 61.652 74.3598 63.332 76.4624C64.1725 77.5114 65.8537 79.0884 66.1686 79.4033C66.274 79.7194 66.4847 80.2439 66.6955 80.1385C67.1146 79.9278 66.6955 78.7723 66.1686 78.0371C65.5388 77.4072 62.7033 75.4099 62.3872 72.784C62.0711 70.0527 62.5979 68.3703 62.8063 67.6351C63.1224 66.8999 63.1224 65.639 63.1224 65.2187C63.1224 65.2187 63.1224 64.274 63.5439 64.4835C64.0672 64.5889 64.1725 65.9551 64.1725 66.585C64.1725 67.0064 64.3833 68.0566 64.3833 68.0566C64.3833 68.0566 64.8047 69.1079 64.8047 69.4228C64.8047 69.7389 64.3833 70.7891 64.4886 71.2094C64.594 71.6308 65.2239 72.0499 65.54 72.4702C65.8561 72.7863 65.4346 73.3108 65.7507 73.7311C65.9614 74.2556 66.905 75.6218 67.5361 75.7272C68.0629 75.9356 69.7417 76.4613 70.0578 76.1463C70.3739 75.9356 71.108 75.2004 69.9524 74.6747C68.6916 74.2556 66.905 73.6257 66.4847 72.0499C65.9603 70.4741 66.1686 67.0064 64.0684 62.8035C61.9681 58.6006 60.603 59.0221 59.8678 58.706C59.4463 58.706 58.5015 58.2845 57.7663 58.1815C58.8165 57.3409 59.972 56.5003 61.1263 55.7639C61.5478 56.3961 62.3884 57.4451 62.5991 57.4451C62.8098 57.4451 63.1259 56.5003 63.4397 56.5003C64.0695 56.6057 64.1749 57.6558 64.3856 58.1815C64.491 58.6029 64.9124 59.0209 65.2262 59.337C65.753 59.7561 66.5924 63.1184 66.6978 64.0632C66.9085 64.9038 67.748 71.2082 68.2736 71.8369C69.0112 72.8905 69.7452 72.8905 69.3249 71.2082C68.6951 69.3163 68.5897 65.0092 68.9035 63.5376C69.2196 62.0671 68.5897 59.3346 68.2748 58.9155C67.961 58.3887 68.0664 57.5493 68.3802 57.4439C68.5909 57.2332 69.6422 57.9707 69.7464 58.6006C69.9571 59.2328 70.0625 63.1196 70.2732 63.7495C70.3786 64.2763 70.7977 64.59 71.0073 65.0103C71.218 65.6402 71.0073 66.2712 71.218 66.6915C71.4287 67.113 72.4789 69.0037 72.8992 69.424C73.3206 70.0562 73.9493 70.1592 74.16 69.7401C74.2654 69.3186 72.4789 67.4279 72.0586 65.2211C71.7425 63.856 71.1126 62.8047 71.1126 61.8611C70.7965 61.4396 70.9019 61.1235 70.7965 60.8074C70.6912 60.4937 70.7965 58.2868 70.4828 57.7635C70.1667 57.2367 68.3813 55.8705 68.0664 55.9758C67.2258 56.5026 66.1745 55.3436 65.7542 55.1352C65.5435 54.9245 64.8083 54.3977 64.1784 53.9786C65.65 53.3464 67.0163 52.7177 68.4867 52.192C68.3813 52.9272 68.3813 53.7678 68.6974 54.2935C69.0135 55.1364 69.3273 56.1854 69.9583 55.1364C70.2744 54.1881 70.3798 52.6135 70.5881 51.5633C71.6395 51.2472 72.795 50.9311 73.8451 50.7228C74.0558 51.1442 74.2666 51.5633 74.4773 51.6675C74.6857 51.7729 75.4221 52.9284 76.0519 53.1391C76.7872 53.2445 77.7331 53.4552 78.363 53.4552C79.4143 53.5606 80.1495 54.6096 80.2549 55.3448C80.9901 57.3421 79.5196 59.7584 79.5196 59.7584C79.5196 59.7584 79.2035 60.3883 79.3089 61.7545C79.5196 63.1196 79.3089 63.856 80.0441 63.856C80.571 63.856 80.571 61.2289 81.0954 60.3883C81.3062 59.4424 81.5169 58.6029 81.5169 58.3922C81.5169 57.6582 81.5169 54.8215 81.3062 54.4C81.2008 53.8755 80.5686 52.9296 79.5196 52.8254C78.363 52.72 76.7872 52.4039 76.9979 51.6687C76.9979 51.3526 77.314 51.1442 77.6277 51.0389C78.4683 50.8281 79.5196 50.8281 80.5698 50.8281H81.202C81.6211 51.0389 82.0414 51.6675 82.2521 52.5081C82.3575 53.769 82.2521 56.5003 82.2521 56.9218C82.2521 57.657 83.0927 56.711 83.3023 56.9218C83.7237 57.3432 82.8808 58.9179 82.6724 60.3871C82.5671 61.8599 81.9372 63.1196 82.3563 63.225C82.9885 63.225 83.7226 60.8074 84.6685 58.9167C85.5114 56.7099 85.4061 57.0248 85.4061 56.7099C85.4061 56.6045 85.3007 55.6597 85.7198 55.3436C86.1413 55.1329 87.8213 54.9222 88.8726 54.8191C89.6102 54.8191 90.1347 54.2923 89.9239 53.9786C89.7132 53.6625 88.4535 53.5571 88.1386 53.5571C87.6117 53.5571 86.667 53.8732 86.352 53.5571C86.1413 53.4517 86.4574 51.4568 86.5628 50.5109L86.5429 50.5167ZM85.7023 86.1338C86.1237 86.2392 87.0685 86.5553 87.8037 86.2392C88.4359 86.1338 88.855 85.8177 88.855 85.0837C88.855 84.7676 88.4359 84.6622 87.9103 84.4515C87.4888 84.3485 87.3834 84.6622 87.4888 84.7676C87.4888 84.8729 87.9103 85.189 87.4888 85.6105C87.0697 86.1338 86.3345 85.9243 86.0195 85.6105C85.7034 85.3998 86.0195 84.7676 86.2303 84.6622C86.441 84.3485 85.9142 84.1377 85.282 84.6622C84.864 85.0837 85.0724 86.1338 85.7023 86.1338ZM47.6664 96.6411C47.8772 96.0089 46.7228 95.5898 46.7228 95.2749C46.7228 94.9611 47.1443 94.4355 47.773 93.9098C48.1944 93.4883 49.5607 93.0692 50.2959 92.8597C50.8227 92.8597 52.0824 92.5436 53.1326 92.5436C53.4487 92.5436 54.3934 92.3328 54.7084 92.0191C55.0245 91.703 55.3406 92.0191 55.7597 91.703C56.1811 91.3869 57.1248 90.6517 57.7558 90.0218C58.2803 89.6004 57.4397 88.8663 56.9152 88.6556C56.4937 88.5502 54.4976 88.5502 52.9207 89.2878C52.2908 89.6015 50.2947 90.757 49.7691 91.5976C48.9285 92.4382 47.458 93.3842 47.3527 93.4883C47.1419 93.8044 46.4067 94.5397 46.4067 94.5397C46.4067 94.4343 46.0906 93.0681 46.0906 92.9639C45.9853 92.1233 45.7769 91.5976 46.5121 90.9678C47.3527 90.3356 48.5082 89.7069 48.6136 89.6015C48.9273 89.3908 50.5031 88.1299 50.9234 87.9204C52.2896 87.6043 54.3911 87.1828 56.5968 87.4989C57.7523 87.6043 57.7523 87.6043 57.4362 86.869C57.1201 86.1315 56.4914 85.8177 55.5454 85.8177C55.0186 85.8177 53.8643 85.5016 53.1291 85.5016C52.6022 85.5016 53.0237 84.6622 53.6559 84.3473C54.2846 84.0312 56.0711 84.0312 56.9105 84.4527C57.8565 84.8718 58.1726 85.1879 59.2227 84.8718C59.9579 84.7664 61.3242 84.1366 61.4295 82.7715C61.6403 81.7202 63.0053 81.2999 63.531 81.7202C64.1608 82.247 64.1608 83.0864 64.0555 83.296C63.8471 83.4013 63.2161 83.4013 62.7958 83.5067C62.4797 83.5067 62.2713 83.8228 62.3743 84.1366C62.4797 84.7687 62.0606 84.7688 61.7456 85.0825C61.3242 85.1879 61.0104 86.0285 60.905 86.0285C60.6943 86.1338 60.2728 85.8177 59.9568 85.8177C59.643 85.8177 59.3281 86.5529 59.3281 86.5529C59.3281 86.5529 59.2227 87.4989 60.274 87.0798C60.5901 86.869 61.22 86.7637 61.3253 86.869C61.6414 87.1851 62.0606 87.1851 62.4808 86.869C62.7969 86.5529 63.2161 86.5529 63.5322 87.0798C63.7429 87.2905 64.4769 87.4989 64.7919 87.1851C65.108 86.869 65.9474 87.2905 66.2623 87.1851C66.8922 87.0798 66.6838 85.1879 66.6838 84.6622C66.6838 84.03 67.3124 82.981 67.3124 82.5608C67.2071 81.9309 67.2071 81.1945 66.5772 81.1945C66.1558 81.1945 65.842 80.9838 65.211 80.2497C64.8949 79.6175 64.5811 79.5122 63.9513 79.1984C63.1107 78.8823 62.6904 77.728 62.3743 77.097C61.9528 76.4671 61.3242 76.3617 60.9039 76.0468C60.377 75.9414 59.9556 75.2062 59.4323 74.7859C59.0108 74.2614 58.6947 74.3668 58.1714 73.9465C57.7499 73.6304 57.4338 73.1059 57.7499 72.6856C57.8553 72.2642 58.1714 71.6355 58.5929 71.2152C59.012 70.7937 59.8526 69.4287 59.9568 68.7988C60.0621 68.1666 59.2227 67.7475 58.9078 68.1666C58.5917 68.4827 58.1726 69.4287 57.7523 70.1639C57.2254 70.9015 56.9117 71.8451 56.1765 72.5803C55.3371 73.5262 54.706 72.3695 55.3371 71.6355C55.8615 71.1087 56.9129 68.6923 58.1737 66.695C58.5952 65.7502 57.5415 65.015 57.1224 65.6449C56.5956 66.2771 55.8615 67.8517 55.4412 68.4816C55.1251 69.1137 53.9708 72.1576 53.6559 72.5791C53.3398 73.0006 52.2896 73.4197 51.9747 73.3167C51.8693 73.1059 51.8693 72.6845 51.9747 72.263C52.0801 71.9493 53.5517 69.4275 53.972 68.7977C54.3934 68.1655 56.1788 65.2246 56.5979 63.8595C57.1224 62.5986 56.0711 62.5986 55.7573 63.2273C55.4412 63.8595 54.8114 64.384 54.4965 65.015C54.2857 65.6449 52.7099 68.1666 52.0801 69.2179C51.5556 70.2681 50.1894 72.9994 50.084 73.3155C49.8733 73.9454 48.4028 74.0507 48.6136 73.1048C49.138 71.8439 50.6085 69.1126 51.2395 68.3774C52.0801 67.1165 51.2395 66.0652 50.7127 66.4855C50.6073 66.6962 48.9273 69.1137 48.6124 70.1639C48.4016 71.3194 46.4044 75.417 46.4044 75.417C46.4044 75.417 47.876 76.4671 48.1909 75.7331C48.4016 75.417 48.507 75.1009 49.2411 74.9955C49.8733 74.9955 51.2383 74.7848 51.6586 74.7848C51.9747 74.9955 52.6034 75.417 52.9183 74.9955C53.2344 74.471 54.075 74.6794 54.2846 75.5223C54.2846 75.8361 53.444 76.4671 54.3899 77.2023C54.8114 77.6238 55.5454 77.6238 55.7562 78.3578C56.0723 79.5133 56.4914 79.5133 56.8063 80.3539C56.9117 80.9861 57.9607 80.9861 58.1714 80.2486C58.2768 79.6187 58.5928 78.3578 58.9066 78.3578C59.2227 78.3578 60.5878 78.8847 60.692 79.3038C60.9027 79.7252 60.1651 80.039 59.9544 80.4593C59.9544 80.9861 59.3257 81.9309 59.5353 82.4554C59.6407 83.0876 59.0108 83.0876 58.5905 82.8769C58.2744 82.7715 57.7499 82.6661 56.489 82.35C55.4377 82.1393 53.6524 83.0876 53.1267 83.1929C52.7053 83.4013 52.2861 83.1929 52.2861 82.7715C52.2861 82.35 52.2861 81.9309 51.97 81.7202C51.8647 81.6148 50.3954 81.7202 51.0253 80.67C51.6574 79.3038 50.29 78.9889 50.0793 79.7241C49.5548 80.9838 49.2387 80.9838 48.9238 80.773C48.397 80.457 48.6077 79.9325 48.8184 79.3026C49.4506 77.4119 48.0832 77.8322 47.7683 78.3567C47.5599 78.6728 47.5599 80.4581 47.3492 80.9838C47.0331 81.6136 47.5599 82.0339 47.5599 82.6649C47.4545 83.4002 46.8223 85.607 46.8223 85.9219C46.7193 86.5518 48.1897 86.5518 48.1897 85.8166C48.1897 85.3951 48.6112 84.1354 49.2399 84.2408C49.556 84.2408 49.7667 83.5055 49.8721 83.0852C49.8721 82.7715 50.2912 82.4554 50.7115 82.6661C51.0276 82.6661 50.9222 83.1929 50.9222 83.8216C50.8169 84.5557 50.7115 85.3963 50.6061 85.607C50.5008 85.9231 48.925 87.1828 48.5047 87.4977C48.1886 87.6031 46.0871 88.5479 45.7722 88.6532C45.7722 88.864 44.9316 88.9693 44.9316 89.7045C44.9316 90.4398 45.2477 93.6967 45.3531 94.2236C45.4584 95.2725 46.8223 99.685 47.348 99.9999C47.7695 100.105 47.8748 99.3677 48.1886 98.7391C48.5047 98.2122 46.8223 97.6878 47.5587 96.6376H47.6641L47.6664 96.6411ZM65.9497 89.2866C65.6336 89.1812 64.8984 88.8651 64.5835 89.1812C64.162 89.392 63.8483 89.392 63.428 89.392C63.1119 89.392 62.0617 89.392 61.2211 89.7081C60.3806 89.9165 58.2791 90.6517 57.6504 91.072C57.1236 91.5988 56.3884 92.334 56.1788 92.4394C55.8627 92.5447 56.3895 93.0692 56.6003 92.8608C56.9164 92.7555 57.1248 92.7555 57.545 92.7555C57.9665 92.8608 60.2775 93.3853 61.748 93.1746C63.2184 92.8585 65.1103 92.1244 65.2133 91.7042C65.4241 91.2827 65.9509 90.7582 66.1616 90.4433C66.4754 90.3379 66.267 89.392 65.9509 89.2878L65.9497 89.2866ZM50.8204 99.3713C51.2418 98.6372 51.661 98.3223 51.661 97.5859C51.661 96.8507 52.2908 96.325 52.6057 95.9047C52.9195 95.5886 53.8654 94.8534 53.9708 94.4331C54.0762 93.9063 53.8654 93.6979 53.1302 93.8033C52.7088 93.9086 51.5544 94.8534 50.9234 95.2737C50.6073 95.5898 49.138 97.3763 48.9273 97.6913C48.6112 98.4265 49.4541 98.6372 48.9273 99.5832C48.8219 99.7939 48.8219 100.321 48.6112 100.529C48.1921 101.264 48.6112 101.895 49.4541 102.105C49.8733 102.21 49.4541 103.262 49.8733 103.682C50.2947 103.998 50.7138 103.263 50.9234 102.526C51.0288 101.582 50.6073 100.321 50.7127 99.3748H50.818L50.8204 99.3713ZM52.3962 106.938C53.2368 106.097 53.4463 104.625 54.0773 103.681C54.7072 102.841 55.0221 102.525 55.4424 102.21C55.8639 102.105 55.8639 101.789 55.7585 101.264C55.5478 101.054 55.7585 101.054 56.4937 100.529C57.229 100.108 57.5439 100.002 57.8588 99.164C58.1749 98.6372 59.225 96.6423 58.6994 96.5369C58.2779 96.3262 57.7546 96.0101 57.8588 95.591C57.8588 95.1695 58.5964 95.1695 58.9101 94.9611C59.2262 94.8558 59.0155 94.645 58.6994 94.4343C58.2779 94.2259 57.4385 94.1205 56.914 94.2259C56.4926 94.4366 56.3872 94.8558 55.8604 95.276C55.5466 95.5921 55.1263 95.276 54.706 96.0136C54.1792 96.6435 54.0762 98.3246 53.7601 98.9545C53.444 99.3759 53.444 99.1652 53.1302 99.6897C52.9195 100.111 53.6571 100.006 53.7601 100.425C54.0762 100.846 54.0762 101.162 53.6547 101.162C52.2896 101.162 53.1302 101.791 53.0249 102.422C52.9195 102.844 51.6598 105.259 51.5544 105.888C51.3437 106.309 51.8705 106.73 52.395 106.941L52.3962 106.938ZM60.0645 115.344C60.0645 114.606 59.0155 114.081 58.5952 113.767C56.914 112.926 57.7546 112.191 57.1236 111.665C56.4937 111.246 55.9681 113.242 56.1788 113.557C56.3895 113.768 56.3895 114.608 56.811 114.818C57.2301 115.134 57.86 115.764 58.1761 116.079C58.2814 116.184 59.6465 117.025 59.7519 117.234C59.8572 117.234 60.1733 116.184 60.068 115.344H60.0645ZM61.9564 112.926C63.0077 113.347 62.7969 112.926 62.1671 112.191C61.6403 111.245 59.7507 108.828 59.3304 108.409C59.0143 108.093 58.4898 106.412 57.7546 106.307C56.8087 106.096 57.2278 106.623 56.0734 106.096C54.8137 105.677 54.2881 105.677 54.2881 106.096C54.2881 106.623 54.7095 106.939 54.3934 107.042C53.972 107.147 53.6582 107.358 53.4475 108.093C53.3421 109.038 54.9191 108.515 55.549 108.515C56.1811 108.515 56.5991 109.143 57.4397 109.564C58.1772 110.09 58.491 110.404 58.7006 110.825C59.2274 111.246 61.4319 112.611 61.9564 112.926ZM70.5729 120.489C69.73 119.86 68.681 119.545 67.3148 118.914C65.9497 118.284 64.3739 117.759 64.0578 117.549C62.7981 117.338 62.2736 118.179 62.2736 118.179C62.379 118.284 64.1644 119.755 64.8996 119.86C65.5294 119.966 69.4162 121.963 70.6771 122.278C71.7284 122.594 71.204 121.228 70.5718 120.491L70.5729 120.489ZM70.9921 116.391C70.1515 116.078 68.996 116.813 68.8906 117.129C68.5745 117.759 69.3097 118.284 70.0461 118.599C70.676 118.81 71.5165 118.915 71.8315 118.283C72.3583 117.759 71.5154 116.813 70.9909 116.393L70.9921 116.391ZM87.3823 121.648C85.7011 121.543 81.8143 121.962 81.1833 121.962C80.7618 121.962 80.0266 121.226 79.7116 121.121C79.0818 120.805 78.7657 120.489 77.7155 120.386C76.875 120.175 76.2451 119.859 76.2451 119.754C76.2451 119.545 76.3505 119.125 76.5612 118.81C76.6666 118.494 76.3505 118.073 76.2451 117.864C76.1397 117.759 75.929 116.709 75.929 116.393C75.929 115.76 76.4558 114.921 76.6666 114.291C76.9803 113.659 77.2953 113.659 77.6102 113.345C77.9263 113.029 78.9764 112.924 78.8711 112.505C78.6603 112.188 78.3442 111.767 77.9251 111.453C77.4006 111.137 76.6654 111.453 75.929 111.664C75.2992 111.875 74.2478 112.924 74.1437 113.239C73.9329 113.555 73.7222 114.394 73.4061 115.025C73.1977 115.655 73.4061 116.496 73.8276 117.547C73.9329 117.863 73.9329 118.492 74.1437 118.912C74.249 119.439 74.7735 119.753 74.9842 119.963C75.3003 120.279 75.3003 120.701 75.3003 121.015C75.3003 121.331 74.9842 122.906 75.3003 123.327C75.6141 123.748 76.9803 123.748 76.7696 123.432C76.6642 123.327 76.9803 121.54 77.9251 121.54C79.5021 121.54 79.5021 123.221 80.2373 123.431C80.448 123.431 81.6024 123.431 83.9134 123.326C86.9608 123.009 89.7975 122.801 90.3231 122.381C90.9553 121.959 88.1175 121.54 87.3811 121.646L87.3823 121.648ZM77.2964 108.723C77.6102 108.723 78.2412 109.039 78.4508 109.458C78.7669 109.88 79.186 110.404 79.3967 110.51C79.8182 110.826 80.1319 111.139 81.0779 111.456C81.9185 111.666 83.9146 111.666 84.5432 111.666C85.2808 111.666 84.6486 111.139 84.2295 110.929C83.7027 110.929 81.6024 110.615 81.1821 110.299C80.5499 110.088 80.2361 109.564 80.1308 109.354C80.0254 108.933 79.5009 108.933 79.1848 108.513C79.0795 108.092 78.9741 107.357 78.7634 106.937C78.7634 106.41 78.24 106.41 77.9239 106.726C77.3995 107.042 77.0834 107.147 76.7684 107.358C76.5577 107.672 76.7684 108.722 77.2953 108.722L77.2964 108.723ZM92.9491 117.55C93.5813 117.34 94.6314 117.024 94.9464 116.813C95.1571 116.707 95.4732 116.078 95.7869 115.763C96.103 115.449 96.5222 115.449 97.0478 115.344C97.3639 115.238 97.3639 115.238 97.3639 115.027C97.1532 114.922 97.0478 114.608 96.8371 114.503C96.7341 114.292 96.8371 113.557 96.8371 113.242C96.8371 112.926 95.6827 112.821 95.7881 113.347C95.7881 113.769 95.472 114.608 95.2613 114.923C94.9475 115.239 94.6326 115.029 94.1069 115.345C93.6855 115.45 93.2664 115.975 92.5311 116.079C92.0043 116.079 91.3756 116.184 91.2703 116.079C91.1649 115.973 91.1649 114.923 91.0595 114.503C90.9542 113.976 90.4297 113.347 90.2189 113.242C90.1136 113.031 90.2189 113.031 89.9028 112.612C89.7975 112.191 89.3784 111.875 89.1688 111.98C89.0634 112.191 88.8527 112.296 88.5389 112.296C88.4336 112.401 87.9068 111.98 87.593 111.664C87.4876 111.456 86.647 111.245 86.3321 111.245C86.016 111.245 86.3321 111.98 86.6482 112.191C86.7536 112.296 87.0673 112.926 87.1727 113.031C87.3834 113.242 87.8026 113.347 88.3282 113.347C88.5389 113.347 89.0634 113.661 89.0634 114.081C89.0634 114.608 88.3282 114.608 88.1187 114.714C87.8026 114.922 87.4865 115.027 87.1727 114.922C86.962 114.711 87.0673 114.081 86.6459 113.661C86.4375 113.345 85.3862 112.926 84.5456 112.611C83.602 112.4 82.1304 112.819 81.6047 113.03C81.1833 113.346 80.1343 113.765 79.8194 113.765C79.5033 113.765 79.1872 113.66 78.768 113.765C78.3466 113.765 77.7179 115.026 77.6125 115.341C77.4018 115.657 76.9827 116.391 77.6125 116.497C78.034 116.707 78.9788 116.391 79.3991 116.181C79.8205 116.075 80.7653 115.654 81.1844 115.445C81.6035 115.445 82.2346 115.235 82.8644 115.024C83.4966 114.813 83.602 114.71 83.9157 114.394C84.2318 114.078 84.651 114.394 84.9659 114.605C85.282 114.71 85.7011 114.71 86.2268 114.816C86.6482 114.816 86.6482 115.132 86.4375 115.34C86.1214 115.656 85.8053 115.656 85.3862 115.761C84.9647 115.761 84.5432 116.075 84.2295 116.181C83.7027 116.391 82.8633 116.707 82.7591 116.81C82.2322 116.916 80.8672 117.756 80.763 117.862C80.5522 118.073 80.1331 118.073 79.8182 118.178C79.5021 118.283 79.3967 118.808 79.8182 119.017C80.345 119.333 81.1833 119.333 81.9196 119.228C82.6549 119.228 84.336 118.912 85.5957 119.017C86.7524 119.017 88.3282 119.017 88.8539 118.807C89.4861 118.49 89.9052 118.49 90.5362 118.49C91.1661 118.596 91.3768 118.596 91.6917 118.49C91.9025 118.177 92.6377 117.862 92.9526 117.547L92.9491 117.55ZM98.5182 111.876C98.2022 112.192 98.0968 112.613 98.0968 113.033C98.0968 113.557 98.5182 113.873 99.1504 113.557C99.7791 113.346 99.4642 112.927 100.199 112.612C100.516 112.507 100.305 111.139 100.305 110.825C100.305 110.508 99.9887 109.774 99.8833 109.458C99.6726 109.142 99.2535 109.037 99.2535 108.723C99.2535 108.512 99.1481 108.093 98.6236 108.093C98.2022 108.093 96.4168 108.304 95.6816 108.515C95.0517 108.828 94.7356 109.354 94.6314 109.458C94.4207 109.774 94.6314 110.09 95.0529 109.774C95.472 109.564 97.3627 109.564 97.4681 109.564C97.5735 109.774 98.098 110.196 98.2033 110.51C98.2033 110.51 98.832 111.56 98.5182 111.876ZM94.4207 112.613C93.8939 112.403 93.3705 112.297 93.2652 111.56C93.0545 110.826 93.0545 110.511 92.3192 110.511C91.8978 110.511 91.1637 110.511 91.1637 111.561C91.1637 111.982 91.3745 112.615 91.5852 112.718C91.6906 112.928 92.3192 113.664 92.8449 113.769C93.0556 113.769 93.8962 113.664 94.3165 113.664C94.8433 113.664 95.0541 112.823 94.5272 112.613H94.4207ZM106.084 109.776C105.135 109.881 105.662 108.83 105.662 108.515C105.557 108.199 104.821 108.199 104.716 107.672C104.716 107.358 104.505 106.832 104.189 106.517C104.086 106.412 103.561 106.096 103.561 105.78C103.455 105.466 103.877 105.466 103.877 105.046C104.087 104.624 103.877 103.996 103.771 103.575C103.771 103.051 103.561 101.475 103.877 101.264C104.296 101.159 104.401 101.58 104.507 102.002C104.717 102.525 105.451 102.631 105.451 102.316C105.451 102 105.451 101.264 105.346 100.634C105.135 100.108 103.876 99.479 103.666 99.3736C103.35 99.1652 103.244 99.1652 102.928 98.9545C102.615 98.7438 100.304 98.7438 99.463 98.6384C98.4117 98.3246 97.5711 97.799 97.152 97.6936C96.7329 97.4829 96.8359 97.3775 96.2072 97.799C95.7858 98.6396 96.1019 98.6396 96.7341 99.0599C97.2574 99.6897 97.1532 100.425 97.1532 100.845C97.1532 101.267 97.8907 101.477 98.2045 101.791C98.5206 102.002 98.626 102.526 99.1504 102.632C99.5719 102.842 99.8857 102.842 100.306 103.264C100.833 103.683 100.622 104.313 100.936 104.943C101.357 105.68 101.989 105.364 102.092 105.994C102.303 106.31 101.987 106.729 101.987 107.044C101.987 107.36 102.303 108.516 102.303 109.566C102.303 110.512 101.357 111.353 101.357 111.982C101.357 112.615 101.568 112.404 101.884 113.034C102.092 113.664 100.622 113.769 100.412 113.978C100.307 114.295 99.4665 115.03 99.2558 115.135C98.9397 115.346 97.8907 116.711 97.8907 117.131C97.8907 118.181 93.5825 118.287 93.5825 120.702V121.018C93.7932 120.913 95.4732 120.283 96.8371 119.757C98.2045 119.023 100.306 118.077 100.201 117.762C99.5707 116.712 100.201 115.766 100.411 115.451C100.936 115.135 102.722 114.085 102.932 113.98C103.669 113.35 104.089 112.615 104.193 112.298C104.404 111.982 104.404 111.458 104.509 111.142C104.72 110.826 105.874 110.826 105.769 111.458C105.769 111.879 106.504 112.193 106.819 112.403C107.135 112.716 107.659 111.665 107.869 111.56C108.29 110.931 107.658 109.88 106.084 109.776ZM112.806 104.417C112.49 103.68 111.965 103.89 112.071 103.155C112.071 102.839 112.492 101.894 112.387 101.579C112.281 101.263 112.071 101.263 111.649 100.739C111.335 100.106 111.125 99.3724 111.02 99.0575C110.81 98.7414 110.599 98.1116 110.388 98.1116C110.283 98.1116 110.18 98.0062 109.969 97.7955C109.864 97.6901 109.337 97.0614 108.707 97.3763C108.602 97.5871 108.286 97.6924 108.391 98.2169C108.602 98.4277 109.234 99.1629 109.548 99.6874C109.864 100.109 109.969 101.789 109.653 102.629C109.548 103.262 110.18 103.47 110.18 103.996C110.075 104.625 109.548 104.625 109.548 104.94C109.548 105.257 110.18 106.097 109.548 106.727C109.232 107.043 109.548 108.408 109.758 108.408C110.388 108.408 111.123 107.671 111.334 107.146C111.44 106.411 112.91 104.835 112.91 104.415H112.805L112.806 104.417ZM96.3102 83.2971C96.8371 83.2971 97.2562 82.981 97.4669 82.7727C97.5723 82.6673 97.9914 82.2458 98.7278 82.3512C99.6726 82.5619 100.829 83.0888 101.039 83.2971C101.355 83.4025 101.776 83.7186 101.776 84.3485C101.776 84.8729 101.144 84.8729 100.725 85.189C100.409 85.5051 100.093 85.6105 99.6738 85.6105C99.2523 85.6105 98.4129 85.189 97.9926 85.3998C97.5711 85.5051 97.1532 86.0296 97.5711 86.2392C97.8872 86.5553 98.5194 86.4499 98.9385 86.4499C99.36 86.4499 99.2546 87.5001 98.6224 87.5001C97.9926 87.6054 97.8884 88.446 98.3087 88.446C99.0439 88.2353 99.2535 88.6567 98.9385 88.9705C98.6224 89.1812 97.9926 89.2866 97.8884 89.392C97.5723 89.6027 98.0968 90.0218 98.5171 90.0218C98.8332 90.0218 99.5684 89.7057 99.6726 89.6004C100.094 89.2866 100.619 89.495 101.039 89.7057C101.355 90.0218 102.301 89.1812 103.141 88.9705C104.087 88.8651 104.823 88.549 105.138 88.549C105.454 88.549 105.454 89.4973 105.77 89.4973C105.875 89.6027 106.925 89.6027 107.555 89.6027C108.187 89.7081 109.027 90.2314 109.551 90.0218C110.078 89.9164 109.657 89.2866 109.551 88.9705C109.551 88.8651 109.551 88.549 109.34 88.2353C109.235 88.1299 108.711 87.8138 108.711 87.2905C108.711 87.0798 109.237 85.8201 108.186 85.5051C107.135 85.189 106.609 85.3998 106.609 85.0837C106.609 84.8729 106.82 84.3496 106.504 84.3496C106.188 84.3496 103.668 84.1389 103.352 84.0335C102.617 83.8228 101.671 82.3535 100.621 82.0374C99.5707 81.7213 98.8343 81.4076 97.8896 81.9321C97.0466 82.3535 96.5222 82.3535 96.1019 82.3535C95.7858 82.6696 96.1019 83.509 96.3126 83.2983L96.3102 83.2971ZM96.4156 91.8083C97.0478 91.9137 97.7819 91.9137 98.0968 92.4382C98.4129 92.7543 97.8861 93.0681 97.4669 93.0681C97.0455 93.0681 96.7317 92.752 96.4156 92.5436C96.0995 92.4382 95.6804 93.0681 95.7858 93.2788C95.9965 93.5949 96.4156 93.5949 96.7317 93.8056C97.1532 93.9086 98.2022 93.5949 98.5171 93.8056C98.8332 93.9086 98.7278 94.4343 98.5171 94.645C98.4117 94.9611 98.7278 95.5898 99.0439 95.6952C99.2523 95.9059 96.8359 95.6952 96.7317 96.0113C96.521 96.7453 97.4669 96.7453 97.8872 96.7453C98.5159 96.6399 98.201 96.7453 100.197 96.6399C102.928 96.5346 104.505 97.6913 105.346 98.1116C106.187 98.6384 106.818 100.423 106.923 101.579C106.923 102.944 106.396 103.47 106.185 104.416C106.082 105.57 106.818 108.197 106.923 108.722C107.134 109.354 107.868 108.933 107.868 108.722C107.868 108.406 107.868 108.092 108.184 107.777C108.5 107.461 108.605 107.461 108.289 106.832C107.973 106.305 107.868 105.677 107.868 104.731C107.868 103.681 108.184 103.89 108.395 102C108.814 100.213 107.868 98.4265 107.446 97.3752C106.923 96.325 104.716 95.3802 104.192 95.1695C103.77 94.8558 103.349 94.5408 103.246 94.2259C103.035 93.9098 102.613 94.1205 102.3 93.8044C101.984 93.4883 102.721 93.1746 103.035 93.0692C103.667 92.7531 104.19 92.1244 104.401 92.2286C104.823 92.5447 104.19 93.1746 104.507 93.28C105.031 93.4907 105.451 92.8585 105.766 93.0692C106.082 93.28 106.606 93.8068 105.872 93.9098C105.134 94.2259 106.082 94.542 106.396 94.542C106.501 94.542 107.446 93.9098 107.657 94.2259C107.973 94.542 107.446 95.1707 107.973 95.276C108.184 95.276 108.392 95.3814 109.023 95.3814C109.548 95.5921 109.339 96.0136 109.653 96.0136C109.969 96.0136 110.703 95.9082 111.334 96.2243C112.069 96.5381 112.91 97.3787 113.225 97.6936C113.752 98.2204 114.382 97.5882 114.487 97.2721C114.592 96.9584 114.382 96.5381 114.171 96.5381C113.857 96.6435 113.437 96.7488 113.122 96.6435C112.49 96.3274 112.384 95.5921 112.176 95.2772C112.071 94.9635 111.02 93.4919 110.704 93.2823C110.283 93.1769 109.234 91.9161 108.184 91.3916C106.923 90.7617 106.082 90.8671 104.716 91.0755C103.35 91.1808 101.251 92.5483 100.829 92.7578C100.513 92.7578 99.9887 92.231 99.5684 91.9172C99.1469 91.6011 98.8308 91.8119 98.4117 91.6011C97.8872 91.4958 97.7819 91.3904 97.152 91.0743C96.6275 90.7605 96.3126 90.8659 95.7869 91.0743C95.3655 91.1797 95.7869 91.6011 96.4168 91.8119L96.4156 91.8083ZM91.1626 101.789C91.1626 102.421 92.0031 102.944 92.3181 102.84C92.6342 102.84 92.6342 102.208 92.4234 101.789C92.3181 101.159 92.6342 100.843 93.0556 100.739C93.5789 100.739 93.5789 101.263 93.8939 102.209C94.1046 103.26 94.9452 103.681 95.3655 103.681C95.7869 103.681 96.2061 103.681 97.152 103.891C97.7842 103.997 98.5182 104.208 98.4129 104.627C98.3075 105.048 98.6236 105.888 98.9397 105.678C99.2535 105.573 99.6738 104.94 99.5696 104.627C99.4642 104.311 98.4129 103.262 97.4681 102.841C96.5222 102.42 96.1019 102.42 95.472 101.58C94.9452 100.74 95.2613 99.479 95.3666 98.4277C95.3666 97.5871 95.0505 97.0626 94.4207 97.2721C93.7908 97.3775 93.5801 97.5882 93.5801 98.2181C93.5801 98.6396 93.264 98.7449 92.9479 99.164C92.5288 99.4801 92.0031 100.003 91.5828 100.32C91.1614 100.528 91.1626 101.159 91.1626 101.789ZM86.3298 103.05C86.3298 103.366 86.7512 103.89 86.8566 103.996C87.065 104.206 86.7512 105.257 87.5907 104.94C88.0121 104.94 88.1175 105.257 88.2205 105.573C88.5366 105.992 88.4312 106.307 88.4312 106.517C88.2205 106.939 88.8527 107.042 89.1665 107.358C89.7963 107.882 90.8476 108.093 91.5828 108.093C92.3181 108.093 93.5789 108.093 94.3142 107.672C94.841 107.358 96.1007 107.042 96.4156 106.938C96.7317 106.727 97.4669 107.043 97.7819 106.938C98.0956 106.727 97.8872 106.305 97.7819 105.992C97.4658 105.676 96.9389 105.676 96.6252 105.676C96.4144 105.781 96.0983 105.676 95.6792 105.57C95.1524 105.36 94.944 105.257 94.313 105.36C93.6831 105.57 92.002 105.57 91.2667 105.257C90.5315 104.94 90.1112 103.996 89.9005 103.575C89.5844 103.156 89.0599 103.681 88.5354 103.575C88.2193 103.47 87.5895 102.946 86.9585 102.841C86.0137 102.525 86.2232 102.947 86.3286 103.052L86.3298 103.05ZM79.0806 96.956C79.3967 97.6913 80.1308 97.2721 80.4457 97.4829C80.7618 97.4829 80.7618 97.6913 81.0779 97.6913C81.394 97.6913 81.4993 97.5859 82.0227 98.0074C82.5495 98.6372 83.1793 98.0074 82.4441 97.2698C81.9173 96.7453 82.2334 95.1695 81.4982 95.1695C81.1821 95.1695 80.7606 95.4856 80.4445 95.591C80.1308 95.8017 80.0254 95.4856 79.1848 95.591C78.4496 95.8017 78.9741 96.3262 79.0795 96.9572L79.0806 96.956ZM72.7786 86.2392C73.0947 86.3446 74.4597 86.6606 75.195 86.3446C75.6164 86.2392 76.0356 85.504 76.0356 85.0837C76.0356 84.7676 75.9302 84.4515 75.5087 84.2431C74.9854 84.1377 74.9854 84.6646 75.195 84.8729C75.3003 85.189 75.5111 85.8189 74.4598 85.9243C73.5138 85.9243 73.5138 85.189 73.7245 84.7687C73.9353 84.0312 73.5138 84.0312 72.7786 84.6634C72.3571 85.1902 72.4625 85.8189 72.7786 86.2392ZM71.4123 87.1851C71.7284 87.2905 72.4637 87.5012 73.5138 87.6066C74.146 87.8173 75.195 87.6066 75.5099 87.6066C75.826 87.6066 76.3505 87.3959 76.3505 88.0281C76.5612 88.7621 75.6164 88.5514 75.3015 88.5514C74.88 88.5514 73.8299 88.5514 73.2 88.3406C72.6732 88.3406 71.0974 88.0269 70.5718 87.6066C70.2557 87.2905 69.9419 86.8714 69.3109 86.6607C68.681 86.5553 68.2607 87.6066 68.681 87.7108C68.9971 87.9215 69.4162 88.2353 68.9971 88.6556C68.3649 89.2878 68.681 90.1272 68.9971 90.4421C69.3109 90.7582 69.9419 91.5976 70.2568 91.9125C70.4676 92.2263 70.992 92.1233 71.2028 92.2263C71.4135 92.437 72.1487 92.8585 72.4637 93.2776C72.569 93.5937 73.0959 93.1722 73.515 92.8562C73.8311 92.5424 74.3556 93.1723 74.1472 93.4883C73.9364 93.8044 73.8311 93.8044 73.515 94.5385C73.1989 95.2737 72.6744 95.1683 72.0445 95.1683C71.4123 95.1683 71.5177 95.5898 71.5177 95.5898C71.6231 95.5898 71.8338 96.222 71.8338 96.325C71.8338 96.5358 71.4123 96.7465 70.7837 96.7465C70.2568 96.7465 69.7323 96.6411 69.3121 96.5358C68.996 96.325 69.2067 96.9572 69.4174 97.271C69.7335 97.5871 70.0496 98.3223 70.7837 98.4265C71.0998 98.6372 71.7296 98.4265 71.8338 98.3211C72.3606 98.005 73.0947 97.6913 73.0947 97.271C73.0947 96.7441 72.7786 96.5358 73.4084 96.0101C73.8299 95.7994 74.249 96.3239 74.5651 96.6399C74.8812 96.8507 75.5099 96.6399 75.9302 96.2185C76.3516 95.9024 76.3517 94.6439 76.2463 94.2236C76.0356 93.8021 75.6141 93.8021 75.195 93.486C74.6681 93.0669 75.5111 92.437 75.5111 92.437C75.5111 92.437 76.9815 91.7018 76.7708 90.9666C76.6654 90.0206 76.9815 89.2854 77.0869 88.8651C77.2976 88.549 76.6654 88.549 77.0869 87.8138C77.403 87.1816 78.3466 86.5518 78.4519 85.9219C78.4519 85.3951 78.0305 85.0813 77.6114 84.8706C77.0845 84.7652 77.0845 85.3974 76.9815 85.9219C76.7708 86.5518 76.2463 86.8679 75.6153 86.9721H72.8839C72.4625 86.869 72.2518 86.869 71.7284 86.5529C71.0962 86.3422 70.9909 87.0798 71.4123 87.1851ZM68.2607 83.509C68.3661 84.2443 69.4174 84.5592 69.9431 84.5592C70.1538 84.5592 70.6783 83.7186 70.9932 83.2983C71.204 82.7738 71.52 82.1428 71.204 81.9332C70.9932 81.6171 70.0484 81.1957 69.3121 81.9332C68.5768 82.5631 68.0512 82.7738 68.2607 83.509ZM67.2118 101.475C66.8957 101.58 66.2658 102.002 65.2145 102.002C64.4793 102.002 63.1142 101.897 63.0088 102.316C62.7981 102.737 62.5874 103.051 62.6927 103.366C62.7981 103.682 62.3766 104.419 61.748 103.998C61.3265 103.577 61.4319 102.526 61.6426 102.002C61.6426 101.58 62.3778 98.8491 62.6939 98.5342C63.01 98.2181 63.7441 96.7477 64.2697 96.4327C64.7965 96.1166 65.4264 96.3274 65.5318 96.6435C65.6371 96.8542 65.7425 98.1139 65.5318 98.2193C65.4264 98.5354 65.1103 98.2193 64.5858 98.5354C64.3751 98.8491 63.7452 99.7951 63.7452 100.11C63.7452 100.424 63.5345 100.529 64.1667 100.529C64.7954 100.424 64.9007 100.213 65.1115 100.424C65.2145 100.424 65.8455 100.634 66.2658 100.424C66.6873 100.213 67.6321 100.213 67.5267 98.8479C67.5267 97.4829 67.316 97.0626 67.6321 96.4316C67.7374 96.0101 68.2619 95.3814 67.6321 94.7504C66.9999 94.2259 66.5807 93.4895 65.8455 93.4895C64.4793 93.2788 64.8996 94.0163 64.5846 94.2271C64.2685 94.3301 63.5345 94.6462 63.0088 94.5408C62.3766 94.3301 61.6426 94.3301 61.3277 94.7516C60.8008 95.3814 60.6955 95.6963 60.5925 96.1166C60.5925 96.6411 60.0656 97.3763 59.7519 97.7966C59.3304 98.1127 59.3304 98.4265 59.225 98.9521C59.0167 99.5843 58.9113 100.528 58.9113 100.843C58.7006 101.159 59.4381 103.47 59.7519 104.311C59.9626 105.045 60.3817 106.516 60.6967 106.831C61.0127 107.042 61.3265 107.042 61.6414 106.831C62.0629 106.726 62.482 106.515 62.6927 107.042C63.0088 107.253 62.7981 108.617 62.7981 108.933C62.7981 109.249 63.2172 109.877 63.428 109.983C63.7441 110.193 63.5333 110.51 63.7441 110.823C63.8494 111.034 64.0578 111.245 64.4781 111.35C64.7942 111.559 65.2133 111.664 65.4241 111.979C65.5294 112.295 65.5294 112.611 65.9509 112.925C66.4742 113.136 66.9999 113.66 66.9999 113.975C66.9999 114.291 66.5784 114.607 65.9497 114.713C65.4229 114.816 64.2685 115.026 64.1632 115.341C64.0578 115.657 63.8494 115.973 64.2685 116.076C64.7954 116.182 66.1604 116.182 67.001 115.971C67.947 115.655 68.9971 115.341 69.2079 115.026C69.3109 114.816 69.7312 114.291 70.0473 114.08C70.3634 113.975 71.0974 113.764 71.5177 113.659C71.7284 113.659 72.1499 113.659 72.2529 113.553C72.4637 113.345 72.8851 112.61 73.3066 112.505C73.515 112.083 73.8299 111.978 74.2502 111.662C74.6717 111.556 74.8824 110.822 74.9877 110.613C75.3015 110.297 76.0367 110.402 76.0367 109.875C76.0367 109.246 74.9866 109.352 74.4609 109.352C73.8287 109.352 73.2 109.668 72.4648 109.982C71.835 110.298 71.4147 110.508 70.8902 110.717C70.4687 111.033 70.0496 111.349 69.9442 111.663C69.7335 111.979 69.7335 112.295 69.4174 112.611C69.1037 112.714 68.4738 112.925 68.2631 112.611C67.9493 112.295 67.9493 111.768 67.6344 111.663C67.3183 111.557 67.0022 111.349 66.8968 111.244C66.5831 110.928 66.5831 110.717 66.4777 110.614C66.267 110.614 65.9532 110.614 65.8479 110.298C65.6371 109.876 65.7425 109.353 65.4264 109.142C64.9019 108.615 64.7965 107.777 64.4816 107.566C64.1655 107.461 63.5368 107.253 63.5368 107.042C63.5368 106.517 63.7476 106.097 64.1667 106.097C64.5882 105.886 64.4828 105.151 64.5882 104.94C64.7989 104.624 65.7437 103.785 66.4789 103.681C67.0057 103.47 67.5302 103.262 67.6356 103.365C67.7409 103.47 67.5302 104.208 67.7409 104.313C67.9517 104.313 69.7359 104.732 70.2615 104.627C70.683 104.416 71.5224 103.682 72.1534 103.682C72.7833 103.682 72.8886 103.893 72.7833 104.314C72.4672 104.628 71.7331 105.048 71.417 105.363C71.1009 105.785 70.6818 106.309 70.6818 106.309C70.6818 106.309 70.2603 106.098 69.7359 106.098C69.3144 106.098 68.0559 106.309 67.7398 107.15C67.3183 108.096 67.529 108.62 67.6344 108.936C67.6344 109.252 67.9505 110.092 67.9505 110.197C68.0559 110.302 68.6857 110.302 68.7911 110.197C69.0018 110.092 69.4209 109.356 69.3156 109.146C69.3156 108.83 68.9995 107.57 69.4209 107.255C69.8424 107.044 70.4722 107.15 70.4722 107.466C70.3669 107.782 70.4722 108.2 70.7883 108.096C71.1021 107.885 71.7331 107.779 71.9427 107.779C72.2588 107.779 72.9928 108.096 73.3089 108.096C74.5686 107.779 74.6728 107.255 74.8836 107.044C75.1997 106.099 75.9337 105.153 76.7743 105.468C77.7202 105.785 78.0352 105.258 78.4555 105.047C78.7715 104.942 79.0876 105.047 79.296 105.363C79.6121 105.679 80.1366 106.835 80.5569 107.675C80.9784 108.413 81.6082 108.937 81.9243 109.147C82.2404 109.358 82.8691 109.358 82.9745 109.568C83.0798 109.674 83.7097 110.198 84.13 110.302C84.6568 110.302 86.3368 110.092 86.4422 110.092C86.5475 110.092 87.3869 110.302 87.5977 110.829C88.1245 111.143 88.1245 111.143 88.4383 111.354C88.7544 111.564 89.1735 111.881 89.1735 111.354C89.1735 110.932 88.9628 109.882 88.5436 109.462C88.1222 108.937 87.8061 108.517 87.4923 108.517C87.0709 108.517 86.3368 108.201 86.1261 108.201C85.3909 108.096 84.9706 107.674 84.6556 107.463C84.2365 107.15 84.4472 106.414 84.4472 106.099C84.4472 105.678 84.3419 104.943 84.1311 104.313C83.7097 103.051 83.7097 102.631 83.6067 102.001C83.3959 101.263 83.6067 100.424 83.0798 100.214C82.6607 100.109 81.6094 99.7927 81.0849 99.8981C80.2443 99.8981 79.9294 100.109 79.5091 99.8981C79.0876 99.7927 78.7715 99.4766 78.0375 99.4766C77.3023 99.6874 77.0916 99.4766 76.7766 99.3713C76.5659 99.1629 76.2521 99.1629 75.7265 99.3713C75.5157 99.4766 75.1997 99.7927 75.4104 99.8981C75.7265 100.109 76.2533 99.8981 76.3563 100.214C76.5671 100.528 76.6724 100.843 76.9885 101.159C77.3046 101.475 77.7237 101.789 77.6184 101.894C77.4076 102 76.9885 102.21 76.7778 102.21C76.6724 102.21 76.0426 101.789 75.6223 101.473C74.9924 101.159 74.5721 100.633 74.1518 100.843C73.8358 100.948 73.8358 101.789 73.5197 101.894C73.2059 102.21 72.891 102.316 72.576 102C72.2599 101.789 72.1569 100.843 71.8408 100.633C71.7355 100.528 71.0002 100.212 70.265 100.633C69.4244 100.949 69.0042 101.16 68.6892 101.16C68.2678 101.263 67.6391 101.263 67.2188 101.474L67.2118 101.475ZM88.7473 55.5602C87.8026 56.1901 86.3321 57.2414 84.7551 61.2336C83.2847 65.3311 83.0752 65.5419 82.9698 66.3824C82.9698 67.6421 83.9157 67.7475 84.336 67.0123C84.8629 66.0663 85.0712 65.5419 85.7011 65.5419C86.1226 65.5419 86.3333 66.0663 86.2279 67.0123C86.1226 67.8529 86.7524 67.3284 87.1727 66.6962C87.6995 66.0663 87.8026 64.281 88.0133 63.2308C88.0133 62.2849 88.3294 61.5485 88.3294 60.7079C88.4348 59.8673 88.5401 58.9225 88.1187 58.9225C87.6972 58.9225 87.3811 59.0279 87.3811 58.7118C87.3811 58.1873 88.8539 56.9265 89.2742 56.6104C90.1147 56.1889 89.5903 55.1399 88.7473 55.5602ZM121.739 87.5001C121.739 109.879 103.352 128.265 80.8683 128.265C58.2791 128.265 40.1035 109.88 40.1035 87.5001C40.1035 64.9108 58.4898 46.6299 80.8683 46.6299C103.458 46.6299 121.739 65.0162 121.739 87.5001ZM119.638 87.5001C119.638 77.0981 115.646 67.4338 108.29 60.0781C100.935 52.7235 91.2703 48.7313 80.8683 48.7313C70.5718 48.7313 60.802 52.8289 53.5517 60.0781C46.1972 67.4338 42.0996 77.0981 42.0996 87.5001C42.205 97.7966 46.1972 107.566 53.5517 114.817C60.8008 122.171 70.5718 126.165 80.8683 126.165C91.2703 126.165 100.935 122.172 108.29 114.817C115.541 107.566 119.638 97.7966 119.638 87.5001ZM80.5522 103.89C81.0791 103.89 81.5005 102.944 81.5005 102.524C81.5005 102.208 80.763 101.894 80.2385 101.579C79.7116 101.263 78.9776 100.842 78.3466 101.895C77.9251 102.629 80.0266 103.89 80.5522 103.89ZM90.6392 115.237C90.5339 114.921 90.2178 114.921 90.1147 115.237C89.904 115.448 89.0634 116.393 88.4336 116.498C87.8014 116.812 88.1175 116.709 87.593 116.709C87.1715 116.709 86.4375 116.812 86.4375 116.812C86.4375 116.812 86.3321 117.022 86.2268 117.128C85.9107 117.233 85.5969 117.444 85.0712 117.444C84.8605 117.444 84.5444 117.549 84.2307 117.758C83.9146 117.863 84.2307 118.179 84.5468 118.179C84.7575 118.179 85.2808 118.074 85.5969 118.074C85.8053 118.074 86.6459 118.179 86.7512 118.074C86.962 118.074 87.1727 117.863 87.5918 117.863C88.1187 117.863 88.327 117.863 88.5378 117.758C88.8539 117.547 89.273 117.441 89.7975 117.231C90.2189 117.022 90.8488 117.128 91.0584 117.022C91.2691 116.812 91.2691 116.706 91.1637 116.496C90.953 116.182 90.8476 115.447 90.7423 115.236H90.6369L90.6392 115.237ZM278.392 123.643V120.28H133.926V123.643M134.453 69.7436C134.453 68.6935 136.343 69.0084 136.343 69.0084H147.585C147.585 69.0084 154.52 69.2191 157.146 72.2654C162.399 78.0441 159.668 84.3473 157.881 85.9243C156.516 87.1851 154.311 87.815 154.311 87.815C154.311 87.815 157.565 88.6544 159.877 90.6505C162.504 93.0669 165.656 101.367 162.295 106.935C159.142 111.979 155.045 112.819 149.897 112.61C145.273 112.399 146.115 111.872 141.386 111.978C137.394 112.083 135.292 112.188 135.292 112.188C135.292 112.188 133.716 112.399 133.822 111.348C134.032 110.297 134.873 110.402 136.345 109.561C137.185 108.931 137.92 107.25 138.131 105.78C138.447 103.783 138.553 101.05 138.553 101.05V77.4131C138.553 77.4131 138.447 76.9916 138.447 76.5701C138.447 73.6293 136.135 71.1075 135.294 70.7926C134.559 70.4788 134.559 70.2681 134.454 69.7424L134.453 69.7436ZM144.224 73.2113V85.504C144.224 85.504 144.224 86.1338 144.434 86.4499C144.748 86.9744 145.379 87.0798 145.379 87.0798H147.27C147.27 87.0798 148.425 87.0798 149.371 86.766C150.003 86.6607 151.788 85.5051 152.942 84.1389C153.785 83.1941 154.52 80.9873 154.52 79.4115C154.52 75.8384 153.26 74.368 151.579 73.5274C149.163 72.3719 146.221 72.3719 146.221 72.3719H145.066C145.066 72.3719 144.54 72.3719 144.329 72.5826C144.226 72.8987 144.226 73.2125 144.226 73.2125L144.224 73.2113ZM144.224 90.757V107.463C144.224 107.882 144.853 108.303 145.274 108.513C146.114 108.827 146.849 108.933 146.849 108.933H150.315C150.315 108.933 152.942 109.038 154.939 107.777C157.25 106.201 157.985 102.735 157.88 100.109C157.775 96.5358 156.41 94.645 154.415 92.7531C152.101 90.6517 147.059 90.757 147.059 90.757H144.221H144.224ZM162.399 111.456C162.61 110.089 163.556 111.245 165.342 109.249C166.709 107.778 167.549 106.412 168.494 104.519C168.915 103.575 169.545 101.789 169.545 101.789L179.736 73.7381C179.736 73.7381 179.842 72.7898 179.842 72.0558C179.842 71.4236 179.736 70.7949 179.736 70.7949C179.736 70.7949 180.261 70.6896 180.576 70.6896L181.522 70.3758L186.041 68.9042L198.542 100.109C198.542 100.109 200.538 105.571 202.745 108.199C203.585 109.249 204.53 110.089 205.581 110.089C207.368 110.195 206.422 112.085 205.265 112.085C204.321 112.085 200.852 111.98 198.016 112.085C194.759 112.085 188.666 112.296 188.666 112.296C188.666 112.296 187.405 112.401 187.615 111.456C188.037 110.195 188.981 110.404 189.717 110.299C191.608 109.877 194.025 109.038 194.444 107.147C194.76 105.781 193.814 103.366 193.814 103.366L189.506 92.7531H177.319L173.748 102.735C173.748 102.735 173.327 104.1 173.221 104.836C173.116 105.466 173.116 107.778 174.062 108.828C175.008 109.984 177.527 110.299 178.686 110.299C179.841 110.404 179 112.191 178.054 112.191C177.108 112.191 173.327 112.085 170.491 111.98C167.863 111.875 163.134 112.191 163.134 112.191C163.134 112.191 162.397 112.507 162.397 111.456H162.399ZM178.581 89.3908H188.352L183.204 76.3629L178.581 89.3908ZM203.482 69.849C203.482 69.849 204.637 69.9543 206.108 70.0597C207.684 70.0597 209.995 70.1651 209.995 70.1651H226.596C226.596 70.1651 229.327 70.1651 232.059 69.9543C234.161 69.7436 237.313 69.5329 237.313 69.5329C237.313 69.5329 237.208 71.8451 236.683 74.6817C236.156 77.625 235.737 79.3061 235.737 79.3061C235.737 79.3061 235.526 80.4616 235.213 80.567C235.002 80.7777 233.426 81.3022 233.426 81.3022C233.426 81.3022 233.742 79.3061 233.742 78.3602C233.637 76.9951 233.215 74.7894 232.376 74.1573C230.8 73.1071 228.911 73.2125 227.439 73.1071C225.967 73.0017 223.552 73.1071 222.92 73.6339C222.185 74.0531 222.29 75.4181 222.29 75.4181V103.68C222.29 103.68 222.185 107.253 223.866 108.515C225.233 109.564 227.544 110.195 227.544 110.195C227.544 110.195 229.226 110.195 228.805 111.35C228.595 112.191 227.649 112.295 227.649 112.295C227.649 112.295 221.764 112.084 218.927 112.084C214.726 112.084 211.258 112.295 209.997 112.295C208.316 112.4 208.737 110.298 210.208 110.193C211.049 110.088 213.254 109.877 214.727 108.196C216.302 106.515 216.511 103.047 216.511 103.047V76.6778C216.511 76.6778 216.406 74.6817 215.879 74.0519C214.829 72.8964 212.203 73.0006 210.102 73.2113C207.475 73.422 205.793 74.3668 205.164 76.1533C204.428 77.9387 204.112 80.3563 203.482 80.567C202.958 80.8808 201.487 81.1957 201.487 81.1957C201.487 81.1957 202.117 78.359 202.643 74.9978C202.959 72.6868 203.484 69.8501 203.484 69.8501L203.482 69.849ZM240.989 69.5329C239.517 69.4275 239.202 71.4248 240.043 71.6355C241.093 71.8439 241.934 71.7385 242.88 72.7898C243.93 74.0507 243.72 76.782 243.72 76.782V102.313C243.72 102.313 243.72 105.255 243.51 106.622C243.194 108.722 242.354 109.457 241.199 109.876C240.25 110.298 239.411 110.403 239.307 111.454C239.201 112.505 240.251 112.294 240.251 112.294C240.251 112.294 242.985 112.083 246.452 112.083C249.919 112.083 253.597 112.294 254.647 112.294C255.802 112.294 256.433 110.507 254.858 110.297C253.071 109.98 251.284 109.667 250.022 108.511C248.973 107.563 249.183 105.148 249.183 105.148V90.0218H269.249V105.151C269.249 105.151 269.249 108.513 267.569 109.038C265.992 109.565 265.048 109.67 263.893 109.879C262.734 110.089 261.58 112.295 262.945 112.295C264.312 112.295 268.619 111.979 271.983 111.979C273.978 111.979 277.235 112.19 277.655 112.19C278.705 112.295 279.126 111.873 279.231 111.138C279.547 110.403 278.496 110.193 277.865 109.983C277.127 109.667 276.393 109.456 275.658 108.407C274.923 107.145 275.131 104.415 275.131 104.415V76.8874C275.131 76.8874 275.026 74.2603 275.869 73.0006C276.813 71.529 277.234 71.7385 278.074 71.4236C279.123 71.1075 279.334 69.4263 278.388 69.5317C277.338 69.6371 273.974 69.8478 272.085 69.8478C269.143 69.7424 265.99 69.6371 265.255 69.5317C263.89 69.5317 263.574 71.6332 264.625 71.6332C265.675 71.6332 267.567 71.9469 268.406 73.2078C269.352 74.574 269.352 76.9892 269.249 77.0946V86.4464H249.179V76.8851C249.179 76.8851 249.074 73.7335 250.545 72.7875C251.596 72.0523 252.541 72.0523 253.696 71.8416C254.853 71.6308 255.588 69.5305 254.328 69.6359H246.658C243.716 69.6359 242.139 69.6359 240.983 69.5305L240.989 69.5329ZM254.647 56.2954C254.647 54.5101 255.174 53.1438 256.328 52.0925C257.274 51.1477 258.639 50.7274 260.109 50.7274C261.477 50.7274 262.632 51.1489 263.682 51.9883C264.943 53.0385 265.574 54.5101 265.574 56.402C265.574 58.082 264.942 59.5512 263.893 60.6049C262.842 61.4443 261.581 61.97 260.217 61.97C256.854 61.97 254.647 59.6578 254.647 56.2954ZM260.32 51.8818C258.429 51.8818 257.169 53.5641 257.169 56.4008C257.169 59.3428 258.535 61.1305 260.216 61.1305C262.107 61.1305 263.368 59.3428 263.368 56.5062C263.368 53.5641 262.107 51.8818 260.32 51.8818ZM268.726 61.97H273.453V61.1294H272.403L272.087 60.8133V57.0318H274.294L274.505 57.2425L274.715 58.3969H275.66V54.6143H274.714L274.504 55.7709L274.293 55.9817H272.088V51.9895H275.24L275.451 52.1979L275.661 53.7748H276.816V51.0435H268.621V51.7776L269.672 51.8829L269.988 52.0937V60.8133L269.672 61.1294H268.726V61.97Z" fill="#202329"/>
<path d="M135.715 51.0431V51.7772L136.765 51.8826L136.976 52.0933V57.6613C136.976 58.9222 137.081 59.8681 137.711 60.7087C138.341 61.5493 139.602 61.9696 141.176 61.9696C144.225 61.9696 145.485 60.7087 145.485 57.7666V52.1975L145.695 51.8814L146.641 51.776V51.0431H142.965V51.7772L144.014 51.8826L144.225 52.1987V57.5559C144.225 59.6574 143.595 60.7087 141.808 60.7087C139.812 60.7087 139.181 59.7627 139.181 57.6613V52.0933L139.392 51.8826L140.337 51.7772V51.0431H135.715ZM149.163 61.9696H152.944V61.232L151.894 61.0236L151.684 60.8129V53.1446L157.358 61.9696H159.145V52.1975L159.461 51.8814L160.404 51.776V51.0431H156.623V51.7772L157.673 51.8826L157.989 52.1987V59.2371L152.946 51.4611V51.0396H149.164V51.7772L150.213 51.8826L150.529 52.0933V60.8117L150.213 61.0224L149.164 61.2332V61.9684M162.926 61.9696H167.761V61.129H166.602L166.394 60.8129V52.0933L166.605 51.8826L167.76 51.7772V51.0431H162.926V51.7772L163.977 51.8826L164.294 52.0933V60.8129L163.977 61.129H162.926V61.9696ZM169.966 51.0431V51.7772L171.017 51.9879L174.695 61.9696H176.271L179.842 51.9879L180.893 51.7772V51.0431H177.428V51.7772L178.267 51.8826L178.478 52.0933L175.956 59.5508L173.223 52.0933L173.433 51.8826L174.378 51.7772V51.0431H169.966ZM182.889 61.9696H191.506V59.0275H190.452L190.139 60.8129L189.928 61.0236H186.252V56.8207H188.248L188.562 57.0314L188.667 58.1869H189.612V54.4055H188.667L188.562 55.5598L188.245 55.7706H186.249V51.8837H189.402L189.613 52.0945L189.824 53.5637H190.978V51.0431H182.888V51.7772L183.833 51.8826L184.044 52.0933V60.8129L183.833 61.129H182.887V61.9696M194.656 51.0431H199.489C202.012 51.0431 203.378 51.9879 203.378 53.7745C203.378 55.2449 202.432 56.1908 200.542 56.5058C201.276 56.7165 201.906 57.0326 202.22 57.5559C202.747 58.2935 202.853 59.1317 203.166 59.9723C203.483 60.8129 204.007 61.0236 205.058 61.0236H205.269V61.8642C204.742 61.8642 204.218 61.9696 203.692 61.9696C202.958 61.9696 202.432 61.7588 202.012 61.4427C201.172 60.8129 200.962 60.0777 200.751 59.3425C200.224 57.7655 199.805 57.0303 198.229 57.0303H197.913V60.7064L198.229 60.9171L199.175 61.0224V61.863H194.656V61.0224L195.605 60.9171L195.813 60.7064V52.0945L195.602 51.8837L194.658 51.7784V51.0431H194.656ZM198.019 51.8826V55.9801C198.229 56.0855 198.44 56.0855 198.543 56.0855C200.224 56.0855 201.065 55.3503 201.065 53.8787C201.065 52.6178 200.224 51.8826 198.754 51.8826H198.019ZM207.79 61.4439C208.841 61.76 209.892 61.9707 210.837 61.9707C213.464 61.9707 215.145 60.6033 215.145 58.6072C215.145 57.6625 214.619 56.8219 213.674 56.192C212.729 55.5598 211.888 55.3514 211.363 55.0353C210.522 54.5085 210.102 54.0894 210.102 53.3542C210.102 52.4082 210.837 51.7772 211.994 51.7772C212.521 51.7772 212.837 51.8826 213.15 51.9879L213.361 52.1987L213.675 53.8787H214.832V51.2539C213.78 50.9378 212.835 50.7271 211.784 50.7271C209.474 50.7271 208.003 52.0933 208.003 53.8787C208.003 54.7192 208.424 55.4545 209.159 56.0855C209.895 56.7153 210.63 57.0314 211.26 57.3464C212.416 57.8732 212.941 58.5019 212.941 59.3425C212.941 60.2872 212.206 60.9171 210.839 60.9171C210.418 60.9171 209.895 60.8117 209.474 60.7064L209.264 60.4956L209.053 58.5007H207.793V61.4439H207.79ZM218.507 61.9696H223.234V61.129H222.184L221.868 60.8129V52.0933L222.184 51.8826L223.234 51.7772V51.0431H218.507V51.7772L219.557 51.8826L219.767 52.0933V60.8129L219.557 61.129H218.507V61.9696ZM226.071 51.0431V53.8763H227.122L227.438 52.091L227.646 51.9856H229.538V60.8105L229.328 61.1266H228.277V61.9672H233.113V61.1266H232.061L231.745 60.8105V51.9879H233.637L233.953 52.0933L234.161 53.8787H235.318V51.0431H226.071ZM237.209 51.0431V51.7772L238.258 51.9879L241.411 57.6613V60.8129L241.2 61.0236L240.043 61.129V61.9696H244.981V61.129L243.826 61.0236L243.615 60.8129V57.2422L246.663 51.9879L247.608 51.7772V51.0431H244.141V51.7772L245.087 51.9879L245.192 52.1987L242.88 56.1908L240.674 52.0933L240.78 51.8826L241.726 51.7772V51.0431H237.207" fill="#202329"/>
</g>
<defs>
<clipPath id="clip0_3411_1985">
<rect width="240" height="81.9511" fill="white" transform="translate(40 46.5244)"/>
</clipPath>
</defs>
</svg>
