<svg width="320" height="175" viewBox="0 0 320 175" fill="none" xmlns="http://www.w3.org/2000/svg">
<rect x="0.818824" y="0.818824" width="318.362" height="173.362" rx="2.45647" fill="white"/>
<rect x="0.818824" y="0.818824" width="318.362" height="173.362" rx="2.45647" stroke="#E0E0E0" stroke-width="1.63765"/>
<g clip-path="url(#clip0_3412_3352)">
<path d="M69.545 94.4281H63.2201C63.1197 96.9379 63.0193 99.9498 62.8185 102.761H68.2398C68.8422 100.251 69.3442 97.3395 69.545 94.4281ZM62.1157 103.464H59.4051V109.487H61.2122C61.5134 107.981 61.8146 105.973 62.1157 103.464ZM65.4288 109.487C66.5331 107.981 67.3363 105.873 68.0391 103.464H62.7181C62.5173 105.672 62.2161 107.781 61.8146 109.487H65.4288ZM74.2635 102.761C75.3679 100.251 76.171 97.3395 76.5726 94.4281H70.2477C70.0469 97.3395 69.545 100.251 68.9426 102.761H74.2635ZM81.7932 93.8257C82.0943 92.3198 82.2951 90.8138 82.2951 89.3079H77.5766C77.5766 90.8138 77.4762 92.3198 77.2754 93.8257H81.7932ZM62.6177 94.4281H59.4051V102.761H62.1157C62.3165 100.452 62.5173 97.6407 62.6177 94.4281ZM62.6177 89.2075H59.3047V93.8257H62.5173C62.6177 92.3198 62.6177 90.8138 62.6177 89.2075ZM69.7458 89.2075H63.2201C63.2201 90.1111 63.2201 91.7174 63.1197 93.7253H69.4446C69.7458 92.3198 69.7458 90.7134 69.7458 89.2075ZM77.7774 102.761C79.5845 100.351 80.8896 97.4399 81.6928 94.4281H77.175C76.7734 97.3395 76.0706 100.251 74.9663 102.761H77.7774ZM76.5726 93.8257C76.7734 92.3198 76.8738 90.8138 76.8738 89.3079H70.3481C70.3481 90.8138 70.2477 92.3198 70.1473 93.8257H76.5726ZM59.4051 112.098C59.7063 112.098 59.9071 112.098 60.2082 112.098C60.5094 111.796 60.8106 111.194 61.1118 110.09H59.4051V112.098ZM64.9268 110.09H61.7142C61.5134 110.893 61.2122 111.596 61.0114 112.098C61.6138 112.098 62.1157 111.997 62.6177 111.897C63.4209 111.495 64.224 110.893 64.9268 110.09ZM64.3244 111.596C65.8304 111.294 67.2359 110.792 68.6414 110.19C68.7418 110.19 68.7418 110.09 68.8422 110.09H65.8304C65.228 110.692 64.8264 111.194 64.3244 111.596ZM68.6414 103.464C67.9387 105.773 67.1355 107.881 66.1315 109.487H69.545C71.3521 107.981 72.858 105.873 73.9624 103.464H68.6414ZM71.0509 108.885C73.4604 107.479 75.5687 105.572 77.2754 103.464H74.6651C73.7616 105.572 72.5568 107.379 71.0509 108.885Z" fill="#6A6A75"/>
<path d="M45.8506 80.673H52.2758C52.3762 78.1632 52.4766 75.0509 52.6774 72.2399H47.1557C46.5533 74.7497 46.0513 77.6612 45.8506 80.673ZM53.3802 71.5371H56.0908V65.5134H54.1833C53.8822 67.0193 53.581 69.0272 53.3802 71.5371ZM49.9668 65.5134C48.8624 67.0193 47.9589 69.1276 47.3565 71.5371H52.7778C52.9786 69.228 53.2798 67.1197 53.6814 65.5134H49.9668ZM41.0316 72.2399C39.9273 74.8501 39.1241 77.7616 38.7225 80.673H45.1478C45.3486 77.6612 45.8506 74.8501 46.5533 72.2399H41.0316ZM33.502 81.3758C33.2008 82.7813 33 84.3876 33 85.8936H37.819C37.819 84.3876 37.9194 82.7813 38.1201 81.2754H33.502V81.3758ZM52.8782 80.673H56.0908V72.2399H53.2798C53.079 74.6493 52.9786 77.4604 52.8782 80.673ZM52.7778 85.8936H56.0908V81.2754H52.7778C52.7778 82.7813 52.7778 84.2873 52.7778 85.8936ZM45.6498 85.8936H52.1754C52.1754 84.99 52.1754 83.3837 52.2758 81.2754H45.8506C45.6498 82.8817 45.6498 84.3876 45.6498 85.8936ZM37.5178 72.2399C35.7107 74.7497 34.3051 77.5608 33.6024 80.673H38.1201C38.5217 77.6612 39.2245 74.8501 40.3288 72.2399H37.5178ZM38.7225 81.3758C38.5217 82.8817 38.4213 84.488 38.4213 85.994H44.947C44.947 84.488 45.0474 82.8817 45.1478 81.3758H38.7225ZM56.0908 62.8027C55.7897 62.8027 55.5889 62.8027 55.2877 62.8027C54.9865 63.1039 54.6853 63.7063 54.3841 64.8106H56.0908V62.8027ZM50.4687 64.911H53.6814C53.8822 64.1079 54.1833 63.4051 54.4845 62.9031C53.8822 62.9031 53.3802 63.0035 52.7778 63.1039C51.9747 63.4051 51.1715 64.0075 50.4687 64.911ZM51.1715 63.4051C49.6656 63.7063 48.26 64.2083 46.8545 64.8106C46.7541 64.8106 46.7541 64.911 46.6537 64.911H49.6656C50.1675 64.3087 50.6695 63.8067 51.1715 63.4051ZM46.7541 71.5371C47.4569 69.1276 48.26 67.1197 49.3644 65.5134H45.951C44.1438 67.0193 42.6379 69.1276 41.4332 71.5371H46.7541ZM44.3446 66.1158C41.8348 67.5213 39.7265 69.4288 38.0197 71.5371H40.63C41.634 69.4288 42.8387 67.6217 44.3446 66.1158Z" fill="#6A6A75"/>
<path d="M70.6473 76.4568C70.8481 76.3564 71.0489 76.1556 70.9485 75.8544C70.8481 75.6536 70.6473 75.5532 70.3461 75.5532C70.1453 75.6536 70.0449 75.8544 70.0449 76.1556C70.1453 76.3564 70.4465 76.4568 70.6473 76.4568Z" fill="#6A6A75"/>
<path d="M65.9305 78.5654C65.1274 78.3646 64.3242 79.0674 64.1234 80.1718C63.9226 81.2761 64.3242 82.2801 65.1274 82.4808C65.9305 82.6816 66.7337 81.9789 66.9345 80.8745C67.1353 79.7702 66.7337 78.7662 65.9305 78.5654Z" fill="#6A6A75"/>
<path d="M69.1426 79.6696C69.5442 79.77 70.0461 79.9708 70.4477 79.9708C71.3513 80.0712 72.1544 80.0712 72.9576 79.77C73.3592 79.6696 73.6604 79.4689 73.9615 79.2681C74.0619 79.1677 74.1623 79.1677 74.3631 79.0673C73.6604 78.6657 70.9497 77.0594 70.6485 76.959C70.5481 77.1598 69.4438 79.0673 69.1426 79.6696Z" fill="#6A6A75"/>
<path d="M72.9576 69.731C73.3592 69.6306 73.6604 69.4298 73.9615 69.229C74.0619 69.1286 74.1623 69.1286 74.3631 69.0282C73.6604 68.6266 70.9497 67.0203 70.6485 66.9199C70.4477 67.1207 69.4438 69.0282 69.1426 69.6306C69.5442 69.731 70.0461 69.9318 70.4477 69.9318C71.3513 70.0322 72.1544 69.9318 72.9576 69.731Z" fill="#6A6A75"/>
<path d="M59.4043 62.8027V85.8936H82.4951V62.8027H59.4043ZM68.741 69.4288L70.3474 66.7181C70.0462 66.6177 69.8454 66.5173 69.745 66.2162C69.5442 65.8146 69.8454 65.3126 70.247 65.1118C70.6485 65.0114 71.1505 65.2122 71.3513 65.6138C71.4517 66.0154 71.3513 66.417 71.0501 66.6177L74.8651 68.8264C74.9655 68.8264 75.0659 68.726 75.1663 68.726C75.5679 68.726 76.0699 68.8264 76.2707 69.228C76.4714 69.6296 76.4714 70.232 76.1703 70.5331C75.9695 70.7339 75.7687 70.9347 75.5679 71.1355C75.6683 70.8343 75.5679 70.5331 75.5679 70.3324C75.3671 70.5331 75.2667 70.6335 75.1663 70.7339V70.8343C75.1663 71.1355 75.0659 71.4367 74.8651 71.8383C74.5639 72.0391 74.2628 72.2399 73.8612 72.4407C74.062 72.1395 74.1624 71.7379 74.1624 71.3363C74.062 71.4367 73.8612 71.5371 73.6604 71.5371C73.56 71.9387 73.2588 72.4407 72.8572 72.7418C72.4556 72.8422 72.0541 73.043 71.6525 73.1434C71.9537 72.8422 72.2549 72.3403 72.3553 71.9387C72.1545 71.9387 72.0541 72.0391 71.8533 72.0391C71.7529 72.541 71.3513 73.043 70.8493 73.3442C70.4477 73.4446 70.1466 73.4446 69.745 73.4446C70.1466 73.043 70.4477 72.541 70.5481 72.0391C70.247 72.0391 70.1466 72.1395 70.0462 72.3403C69.9458 72.541 69.8454 72.7418 69.6446 72.9426C69.4438 73.1434 69.243 73.4446 68.9418 73.4446C68.8414 73.4446 68.6406 73.4446 68.5402 73.4446C68.2391 73.4446 67.9379 73.4446 67.6367 73.3442C68.8414 72.4407 69.4438 71.1355 68.741 69.4288ZM63.7213 70.0312C63.9221 69.228 64.3237 68.6256 64.8256 68.2241C65.2272 68.0233 65.6288 67.9229 66.0304 68.0233C66.2312 68.1237 66.4319 68.2241 66.6327 68.3245C67.1347 68.726 67.6367 68.9268 68.1387 69.1276C68.3395 69.228 68.4398 69.6296 68.4398 69.73C68.5402 69.9308 68.5402 70.232 68.6406 70.5331C68.6406 71.0351 68.5402 71.5371 68.3395 71.9387C68.2391 72.1395 68.0383 72.3403 67.9379 72.541C67.7371 72.7418 67.6367 72.9426 67.3355 73.043C67.1347 73.1434 66.9339 73.2438 66.7331 73.1434C66.2312 73.043 65.8296 72.9426 65.3276 72.8422C65.2272 72.8422 65.1268 72.8422 65.0264 72.8422C64.0225 72.6414 63.4201 71.3363 63.7213 70.0312ZM67.3355 83.1829C67.1347 83.2833 66.9339 83.3837 66.7331 83.2833C66.2312 83.1829 65.8296 83.0825 65.3276 82.9821C65.2272 82.9821 65.1268 82.9821 65.0264 82.9821C64.0225 82.6809 63.4201 81.4762 63.7213 80.0707C63.9221 79.2675 64.3237 78.6651 64.8256 78.2636C65.2272 78.0628 65.6288 77.9624 66.0304 78.0628C66.2312 78.1632 66.4319 78.2636 66.6327 78.364C67.1347 78.6651 67.6367 78.9663 68.1387 79.1671C68.3395 79.2675 68.4398 79.6691 68.4398 79.7695C68.5402 79.9703 68.5402 80.2715 68.6406 80.4723C68.6406 80.9742 68.5402 81.4762 68.3395 81.8778C68.2391 82.0786 68.0383 82.2794 67.9379 82.4802C67.7371 82.8817 67.5363 83.0825 67.3355 83.1829ZM76.1703 80.673C75.9695 80.8738 75.7687 81.0746 75.5679 81.2754C75.6683 80.9742 75.5679 80.7734 75.5679 80.4723C75.4675 80.5726 75.3671 80.673 75.2667 80.7734V80.8738C75.2667 81.175 75.1663 81.4762 74.9655 81.8778C74.6643 82.0786 74.3631 82.2794 73.9616 82.4802C74.1624 82.179 74.2628 81.7774 74.3631 81.4762C74.2628 81.5766 74.062 81.677 73.8612 81.677C73.7608 82.0786 73.4596 82.5805 73.058 82.8817C72.6564 83.0825 72.2549 83.1829 71.8533 83.2833C72.1545 82.9821 72.4556 82.4801 72.556 82.0786C72.3553 82.0786 72.2549 82.179 72.0541 82.179C71.9537 82.6809 71.5521 83.1829 71.0501 83.4841C70.6485 83.5845 70.3473 83.5845 69.9458 83.5845C70.3473 83.1829 70.6485 82.7813 70.7489 82.179C70.4477 82.179 70.3473 82.2794 70.247 82.4802C70.1466 82.6809 70.0462 82.8817 69.8454 83.0825C69.6446 83.2833 69.4438 83.5845 69.1426 83.5845C69.0422 83.5845 68.8414 83.5845 68.741 83.5845C68.4398 83.5845 68.1387 83.5845 67.8375 83.4841C68.9418 82.5805 69.5442 81.175 68.8414 79.4683L70.4477 76.7576C70.1466 76.6572 69.9458 76.5568 69.8454 76.2557C69.6446 75.8541 69.9458 75.3521 70.3474 75.1513C70.7489 75.0509 71.2509 75.2517 71.4517 75.6533C71.5521 76.0549 71.4517 76.4565 71.1505 76.6572L74.9655 78.8659C75.0659 78.8659 75.1663 78.7655 75.2667 78.7655C75.6683 78.7655 76.1703 78.8659 76.371 79.2675C76.4714 79.6691 76.4714 80.3719 76.1703 80.673ZM76.7726 79.6691C76.7726 79.3679 76.6722 79.1671 76.4714 78.9663C76.1703 78.5647 75.7687 78.364 75.2667 78.364C76.6722 77.0588 77.2746 75.4525 77.7766 75.5529C78.0778 75.6533 77.9774 77.6612 76.7726 79.6691ZM76.7726 69.6296C76.7726 69.3284 76.6722 69.1276 76.4714 68.9268C76.1703 68.5252 75.7687 68.3245 75.2667 68.3245C76.6722 67.0193 77.2746 65.413 77.7766 65.5134C78.0778 65.6138 77.9774 67.6217 76.7726 69.6296Z" fill="#6A6A75"/>
<path d="M65.1274 72.4418C65.9305 72.6426 66.7337 71.9398 66.9345 70.8355C67.1353 69.7311 66.7337 68.7272 65.9305 68.5264C65.1274 68.3256 64.3242 69.0283 64.1234 70.1327C63.9226 71.237 64.3242 72.241 65.1274 72.4418Z" fill="#6A6A75"/>
<path d="M70.6507 66.3176C70.8515 66.2172 71.0523 66.0164 70.9519 65.7152C70.8515 65.5145 70.6507 65.4141 70.3496 65.4141C70.1488 65.6149 70.0484 65.8156 70.1488 66.0164C70.1488 66.3176 70.4499 66.418 70.6507 66.3176Z" fill="#6A6A75"/>
<path d="M39.5263 95.5316C39.1247 95.7324 38.8235 95.8328 38.5223 95.8328H37.418V96.3347H38.5223C38.8235 96.3347 39.2251 96.1339 39.7271 95.9331C40.3294 95.632 40.9318 95.4312 41.5342 95.4312C42.4377 95.4312 43.1405 95.8328 43.2409 95.8328V95.3308C42.9397 95.2304 42.2369 94.9292 41.5342 94.9292C40.731 95.0296 40.0282 95.3308 39.5263 95.5316Z" fill="#6A6A75"/>
<path d="M49.867 105.17C49.2646 104.869 48.5618 104.568 47.8591 104.568C47.1563 104.568 46.5539 104.769 46.1523 104.969V105.471C46.2527 105.471 46.9555 105.07 47.8591 105.07C48.5618 105.07 49.1642 105.371 49.6662 105.572C50.0677 105.773 50.4693 105.973 50.8709 105.973H51.9753V105.471H50.8709C50.6701 105.471 50.2685 105.271 49.867 105.17Z" fill="#6A6A75"/>
<path d="M39.5263 97.5399C39.1247 97.7407 38.8235 97.8411 38.5223 97.8411H37.418V98.343H38.5223C38.8235 98.343 39.2251 98.1422 39.7271 97.9414C40.3294 97.7407 40.9318 97.4395 41.5342 97.4395C42.4377 97.4395 43.1405 97.8411 43.2409 97.8411V97.3391C42.9397 97.2387 42.2369 96.9375 41.5342 96.9375C40.731 96.9375 40.0282 97.2387 39.5263 97.5399Z" fill="#6A6A75"/>
<path d="M39.5263 105.17C39.1247 105.371 38.8235 105.471 38.5223 105.471H37.418V105.973H38.5223C38.8235 105.973 39.2251 105.772 39.7271 105.572C40.3294 105.371 40.9318 105.07 41.5342 105.07C42.4377 105.07 43.1405 105.471 43.2409 105.471V104.869C42.9397 104.768 42.2369 104.467 41.5342 104.467C40.731 104.568 40.0282 104.869 39.5263 105.17Z" fill="#6A6A75"/>
<path d="M39.5263 99.347C39.1247 99.5478 38.8235 99.6482 38.5223 99.6482H37.418V100.15H38.5223C38.8235 100.15 39.2251 99.9494 39.7271 99.7486C40.3294 99.4474 40.9318 99.2466 41.5342 99.2466C42.4377 99.2466 43.1405 99.6482 43.2409 99.6482V99.1462C42.9397 99.0458 42.2369 98.7446 41.5342 98.7446C40.731 98.845 40.0282 99.1462 39.5263 99.347Z" fill="#6A6A75"/>
<path d="M39.5263 103.363C39.1247 103.564 38.8235 103.664 38.5223 103.664H37.418V104.166H38.5223C38.8235 104.166 39.2251 103.965 39.7271 103.765C40.3294 103.464 40.9318 103.263 41.5342 103.263C42.4377 103.263 43.1405 103.664 43.2409 103.664V103.162C42.9397 103.062 42.2369 102.761 41.5342 102.761C40.731 102.761 40.0282 103.062 39.5263 103.363Z" fill="#6A6A75"/>
<path d="M49.867 103.363C49.2646 103.062 48.5618 102.761 47.8591 102.761C47.1563 102.761 46.5539 102.962 46.1523 103.162V103.664C46.2527 103.664 46.9555 103.263 47.8591 103.263C48.5618 103.263 49.1642 103.564 49.6662 103.765C50.0677 103.965 50.4693 104.166 50.8709 104.166H51.9753V103.664H50.8709C50.6701 103.664 50.2685 103.464 49.867 103.363Z" fill="#6A6A75"/>
<path d="M39.5263 101.355C39.1247 101.556 38.8235 101.656 38.5223 101.656H37.418V102.158H38.5223C38.8235 102.158 39.2251 101.957 39.7271 101.756C40.3294 101.455 40.9318 101.254 41.5342 101.254C42.4377 101.254 43.1405 101.656 43.2409 101.656V101.154C42.9397 101.054 42.2369 100.752 41.5342 100.752C40.731 100.752 40.0282 101.054 39.5263 101.355Z" fill="#6A6A75"/>
<path d="M49.867 97.5399C49.2646 97.2387 48.5618 96.9375 47.8591 96.9375C47.1563 96.9375 46.5539 97.1383 46.1523 97.3391V97.8411C46.2527 97.8411 46.9555 97.4395 47.8591 97.4395C48.5618 97.4395 49.1642 97.7407 49.6662 97.9414C50.0677 98.1422 50.4693 98.343 50.8709 98.343H51.9753V97.8411H50.8709C50.6701 97.8411 50.2685 97.6403 49.867 97.5399Z" fill="#6A6A75"/>
<path d="M49.867 101.355C49.2646 101.054 48.5618 100.752 47.8591 100.752C47.1563 100.752 46.5539 100.953 46.1523 101.154V101.656C46.2527 101.656 46.9555 101.254 47.8591 101.254C48.5618 101.254 49.1642 101.556 49.6662 101.756C50.0677 101.957 50.4693 102.158 50.8709 102.158H51.9753V101.656H50.8709C50.6701 101.656 50.2685 101.455 49.867 101.355Z" fill="#6A6A75"/>
<path d="M33 89.2075V112.298H56.0908V89.2075H33ZM36.4134 105.17H35.2087C34.9075 105.17 34.7067 104.97 34.7067 104.668C34.7067 104.367 34.9075 104.166 35.2087 104.166H36.4134V105.17ZM36.4134 102.56H35.2087C34.9075 102.56 34.7067 102.359 34.7067 102.058C34.7067 101.757 34.9075 101.556 35.2087 101.556H36.4134V102.56ZM36.4134 100.151H35.2087C34.9075 100.151 34.7067 99.9498 34.7067 99.6486C34.7067 99.3474 34.9075 99.1466 35.2087 99.1466H36.4134V100.151ZM36.4134 97.4399H35.2087C34.9075 97.4399 34.7067 97.2391 34.7067 96.9379C34.7067 96.6367 34.9075 96.436 35.2087 96.436H36.4134V97.4399ZM44.445 107.68C43.9431 107.379 42.8387 106.676 42.0355 106.676C40.63 106.676 40.0276 107.58 38.7225 107.58C37.819 107.58 36.7146 107.479 36.7146 107.479V94.1269C36.7146 94.1269 37.819 94.2273 38.7225 94.2273C39.6261 94.2273 40.4292 93.4241 42.0355 93.4241C42.8387 93.4241 44.0434 94.0265 44.445 94.3277V107.68ZM50.6695 107.58C49.3644 107.58 49.3644 106.676 47.2561 106.676C46.4529 106.676 45.2482 107.379 44.7462 107.68V94.3277C45.2482 94.0265 46.3525 93.4241 47.1557 93.4241C48.5612 93.4241 49.5652 94.2273 50.3683 94.2273C51.2719 94.2273 52.4766 94.1269 52.4766 94.1269V107.479C52.6774 107.479 51.5731 107.58 50.6695 107.58ZM53.9825 103.865H52.8782V102.761H53.9825C54.2837 102.761 54.4845 102.962 54.4845 103.263C54.5849 103.564 54.2837 103.865 53.9825 103.865ZM53.9825 101.355H52.8782V100.251H53.9825C54.2837 100.251 54.4845 100.452 54.4845 100.753C54.5849 101.054 54.2837 101.355 53.9825 101.355ZM53.9825 98.745H52.8782V97.6407H53.9825C54.2837 97.6407 54.4845 97.8415 54.4845 98.1427C54.5849 98.5443 54.2837 98.745 53.9825 98.745Z" fill="#6A6A75"/>
<path d="M49.867 95.5316C49.2646 95.2304 48.5618 94.9292 47.8591 94.9292C47.1563 94.9292 46.5539 95.13 46.1523 95.3308V95.8328C46.2527 95.8328 46.9555 95.4312 47.8591 95.4312C48.5618 95.4312 49.1642 95.7324 49.6662 95.9331C50.0677 96.1339 50.4693 96.3347 50.8709 96.3347H51.9753V95.8328H50.8709C50.6701 95.9332 50.2685 95.7324 49.867 95.5316Z" fill="#6A6A75"/>
<path d="M49.867 99.347C49.2646 99.0458 48.5618 98.7446 47.8591 98.7446C47.1563 98.7446 46.5539 98.9454 46.1523 99.1462V99.6482C46.2527 99.6482 46.9555 99.2466 47.8591 99.2466C48.5618 99.2466 49.1642 99.5478 49.6662 99.7486C50.0677 99.9494 50.4693 100.15 50.8709 100.15H51.9753V99.6482H50.8709C50.6701 99.7486 50.2685 99.5478 49.867 99.347Z" fill="#6A6A75"/>
<path d="M107.193 72.3404C107.193 73.0432 107.093 73.7459 106.993 74.4487C106.792 75.1515 106.591 75.7538 106.189 76.2558C105.788 76.7578 105.286 77.1594 104.684 77.4605C104.081 77.7617 103.278 77.9625 102.374 77.9625C101.471 77.9625 100.668 77.7617 100.065 77.4605C99.463 77.1594 98.8606 76.7578 98.5594 76.2558C98.1578 75.7538 97.8567 75.1515 97.7563 74.4487C97.5555 73.7459 97.4551 73.0432 97.4551 72.3404V63.9072H98.7602V72.0392C98.7602 72.5412 98.7602 73.0432 98.8606 73.6455C98.961 74.2479 99.1618 74.7499 99.3626 75.1515C99.6638 75.6534 99.965 76.055 100.467 76.3562C100.969 76.6574 101.571 76.8582 102.374 76.8582C103.178 76.8582 103.78 76.6574 104.282 76.3562C104.784 76.055 105.185 75.6534 105.386 75.1515C105.687 74.6495 105.788 74.1475 105.888 73.6455C105.989 73.0432 105.989 72.5412 105.989 72.0392V63.9072H107.294V72.3404H107.193Z" fill="black"/>
<path d="M111.711 63.9072H113.418L121.75 75.8542V63.9072H123.056V77.5609H121.349L113.016 65.6139V77.5609H111.711V63.9072Z" fill="black"/>
<path d="M127.771 63.9072H128.976V77.5609H127.771V63.9072Z" fill="black"/>
<path d="M132.492 63.9072H133.797L138.215 75.8542L142.732 63.9072H144.038L138.817 77.5609H137.612L132.492 63.9072Z" fill="black"/>
<path d="M147.451 63.9072H155.784V65.0116H148.656V69.9309H155.382V71.0353H148.656V76.4566H156.085V77.5609H147.451V63.9072Z" fill="black"/>
<path d="M160.502 63.9072H164.116C164.317 63.9072 164.518 63.9072 164.819 63.9072C165.12 63.9072 165.421 64.0076 165.823 64.0076C166.224 64.108 166.526 64.2084 166.927 64.3088C167.329 64.4092 167.63 64.61 167.931 64.9112C168.232 65.2124 168.433 65.5135 168.634 65.9151C168.835 66.3167 168.935 66.8187 168.935 67.421C168.935 68.1238 168.835 68.6258 168.634 69.0274C168.433 69.4289 168.132 69.8305 167.73 70.0313C167.429 70.3325 167.028 70.5333 166.626 70.6337C166.224 70.7341 165.823 70.8345 165.421 70.9349L169.437 77.5609H168.032L164.217 71.0353H161.807V77.5609H160.502V63.9072ZM161.807 69.9309H164.518C165.221 69.9309 165.722 69.8305 166.124 69.6297C166.526 69.4289 166.827 69.2282 167.128 69.0274C167.329 68.8266 167.53 68.5254 167.63 68.2242C167.73 67.923 167.73 67.7222 167.73 67.421C167.73 67.2203 167.73 66.9191 167.63 66.6179C167.53 66.3167 167.429 66.1159 167.128 65.8147C166.927 65.6139 166.526 65.3128 166.124 65.2124C165.722 65.0116 165.12 64.9112 164.518 64.9112H161.807V69.9309Z" fill="black"/>
<path d="M173.853 75.052C174.154 75.6543 174.656 76.0559 175.158 76.3571C175.66 76.6583 176.262 76.7587 176.965 76.7587C177.367 76.7587 177.768 76.6583 178.17 76.5579C178.571 76.4575 178.873 76.2567 179.174 76.0559C179.475 75.8551 179.676 75.5539 179.876 75.2527C180.077 74.9516 180.077 74.55 180.077 74.1484C180.077 73.6464 179.977 73.2449 179.776 72.9437C179.575 72.6425 179.274 72.3413 178.973 72.1405C178.672 71.9397 178.27 71.7389 177.869 71.6385C177.467 71.5381 176.965 71.3373 176.563 71.237C176.162 71.1366 175.66 70.9358 175.258 70.735C174.857 70.5342 174.455 70.3334 174.154 70.0322C173.853 69.731 173.552 69.3294 173.351 68.9279C173.15 68.5263 173.05 67.9239 173.05 67.3215C173.05 66.7192 173.15 66.2172 173.451 65.7152C173.652 65.2133 174.054 64.8117 174.455 64.5105C174.857 64.2093 175.359 63.9081 175.861 63.8077C176.363 63.6069 176.965 63.6069 177.567 63.6069C178.27 63.6069 178.973 63.7073 179.676 64.0085C180.278 64.3097 180.88 64.7113 181.382 65.3136L180.278 66.1168C179.977 65.6148 179.575 65.3136 179.174 65.1129C178.772 64.9121 178.27 64.8117 177.668 64.8117C177.266 64.8117 176.865 64.9121 176.463 65.0125C176.061 65.1129 175.76 65.3136 175.459 65.5144C175.158 65.7152 174.957 66.0164 174.756 66.3176C174.556 66.6188 174.556 67.0204 174.556 67.4219C174.556 68.1247 174.756 68.6267 175.058 69.0283C175.359 69.4298 175.861 69.731 176.363 69.9318C176.865 70.1326 177.467 70.3334 178.069 70.5342C178.672 70.735 179.274 70.9358 179.776 71.1366C180.278 71.4377 180.78 71.7389 181.081 72.2409C181.382 72.7429 181.583 73.3452 181.583 74.2488C181.583 74.8512 181.483 75.4535 181.282 75.8551C181.081 76.3571 180.78 76.7587 180.378 77.0599C179.977 77.361 179.575 77.6622 178.973 77.7626C178.471 77.9634 177.969 78.0638 177.367 78.0638C176.463 78.0638 175.66 77.863 174.857 77.5618C174.054 77.2606 173.451 76.7587 172.949 75.9555L173.853 75.052Z" fill="black"/>
<path d="M185.6 63.9072H186.905V77.5609H185.6V63.9072Z" fill="black"/>
<path d="M195.24 65.0116H190.521V63.9072H201.264V65.0116H196.545V77.5609H195.24V65.0116Z" fill="black"/>
<path d="M207.987 71.6376L202.967 63.9072H204.473L208.589 70.3325L212.906 63.9072H214.311L209.292 71.6376V77.5609H207.987V71.6376Z" fill="black"/>
<path d="M220.438 73.1439C220.438 72.4411 220.538 71.8387 220.739 71.2364C220.939 70.634 221.341 70.132 221.743 69.7304C222.144 69.3288 222.646 69.0277 223.249 68.7265C223.851 68.5257 224.453 68.4253 225.156 68.4253C225.859 68.4253 226.461 68.5257 227.064 68.7265C227.666 68.9273 228.168 69.3288 228.569 69.7304C228.971 70.132 229.272 70.634 229.573 71.2364C229.774 71.8387 229.875 72.4411 229.875 73.1439C229.875 73.8466 229.774 74.449 229.573 75.0514C229.373 75.6537 228.971 76.1557 228.569 76.5573C228.168 76.9589 227.666 77.2601 227.064 77.5612C226.461 77.762 225.859 77.8624 225.156 77.8624C224.453 77.8624 223.851 77.762 223.249 77.5612C222.646 77.3604 222.144 76.9589 221.743 76.5573C221.341 76.1557 221.04 75.6537 220.739 75.0514C220.538 74.449 220.438 73.7462 220.438 73.1439ZM221.542 73.1439C221.542 73.6458 221.642 74.1478 221.743 74.5494C221.943 74.951 222.144 75.3525 222.445 75.7541C222.747 76.0553 223.148 76.3565 223.55 76.5573C223.951 76.7581 224.453 76.8585 225.056 76.8585C225.558 76.8585 226.06 76.7581 226.562 76.5573C226.963 76.3565 227.365 76.0553 227.666 75.7541C227.967 75.4529 228.168 75.0514 228.369 74.5494C228.57 74.1478 228.569 73.6458 228.569 73.1439C228.569 72.6419 228.469 72.1399 228.369 71.7383C228.168 71.3367 227.967 70.9352 227.666 70.5336C227.365 70.2324 226.963 69.9312 226.562 69.7304C226.16 69.5296 225.658 69.4292 225.056 69.4292C224.554 69.4292 224.052 69.5296 223.55 69.7304C223.148 69.9312 222.747 70.2324 222.445 70.5336C222.144 70.8348 221.943 71.2364 221.743 71.7383C221.642 72.1399 221.542 72.6419 221.542 73.1439Z" fill="black"/>
<path d="M233.691 69.7303H231.783V68.7263H233.691V65.7145C233.691 65.1121 233.791 64.6101 233.992 64.309C234.193 63.9074 234.393 63.6062 234.594 63.4054C234.895 63.2046 235.096 63.0038 235.498 62.9034C235.799 62.7026 236.1 62.7026 236.301 62.7026C236.803 62.7026 237.305 62.803 237.606 62.9034L237.405 63.9074C237.104 63.807 236.803 63.7066 236.401 63.7066C235.397 63.7066 234.795 64.5097 234.795 66.1161V68.6259H236.903V69.6299H234.795V77.5611H233.59V69.7303H233.691Z" fill="black"/>
<path d="M97.152 86.4961H104.28C105.184 86.4961 106.188 86.5965 107.091 86.6969C108.095 86.7973 108.898 87.1989 109.701 87.6004C110.504 88.1024 111.107 88.7048 111.508 89.6083C112.01 90.4115 112.211 91.6162 112.211 93.0218C112.211 94.3269 111.81 95.3308 111.107 96.3348C110.404 97.2384 109.3 97.8407 107.794 98.1419V98.2423C108.597 98.3427 109.4 98.5435 110.003 98.8447C110.705 99.1459 111.207 99.5474 111.709 100.049C112.211 100.551 112.613 101.154 112.814 101.957C113.115 102.66 113.215 103.463 113.215 104.366C113.215 105.772 112.914 106.977 112.412 107.88C111.91 108.784 111.207 109.487 110.304 109.989C109.501 110.49 108.597 110.892 107.593 110.992C106.589 111.193 105.686 111.294 104.882 111.294H96.9512V86.4961H97.152ZM99.461 97.138H104.28C105.485 97.138 106.388 97.0376 107.191 96.7364C107.894 96.4352 108.497 96.134 108.898 95.632C109.3 95.2305 109.601 94.7285 109.701 94.3269C109.802 93.8249 109.902 93.4233 109.902 93.0218C109.902 92.1182 109.802 91.4154 109.501 90.9135C109.199 90.3111 108.798 89.9095 108.296 89.5079C107.794 89.2068 107.191 88.9056 106.589 88.8052C105.987 88.7048 105.284 88.6044 104.481 88.6044H99.3606V97.138H99.461ZM99.461 109.085H104.682C105.987 109.085 107.091 108.884 107.995 108.583C108.798 108.282 109.501 107.88 109.902 107.378C110.304 106.876 110.605 106.374 110.806 105.872C111.006 105.37 111.006 104.868 111.006 104.366C111.006 103.463 110.806 102.66 110.504 102.057C110.203 101.455 109.701 100.853 109.099 100.451C108.497 100.049 107.894 99.7482 107.191 99.5474C106.489 99.3466 105.786 99.2463 105.083 99.2463H99.461V109.085Z" fill="black"/>
<path d="M118.738 86.4961H125.264C125.565 86.4961 126.067 86.4961 126.569 86.4961C127.171 86.4961 127.774 86.5965 128.376 86.6969C128.979 86.7973 129.681 86.9981 130.384 87.2993C131.087 87.6004 131.689 87.9016 132.191 88.4036C132.693 88.9056 133.195 89.5079 133.496 90.2107C133.798 90.9135 133.998 91.817 133.998 92.9214C133.998 94.1261 133.798 95.1301 133.396 95.8328C132.994 96.636 132.492 97.2384 131.89 97.7403C131.288 98.2423 130.585 98.5435 129.882 98.8447C129.179 99.0455 128.477 99.2463 127.774 99.3466L135.002 111.193H132.392L125.364 99.447H121.047V111.193H118.738V86.4961ZM121.047 97.3387H125.967C127.171 97.3387 128.175 97.138 128.878 96.8368C129.681 96.5356 130.183 96.134 130.685 95.7324C131.087 95.3309 131.388 94.8289 131.589 94.3269C131.79 93.8249 131.79 93.323 131.79 92.9214C131.79 92.5198 131.689 92.0178 131.589 91.5158C131.388 91.0139 131.187 90.5119 130.685 90.1103C130.284 89.7087 129.681 89.3072 128.878 89.006C128.075 88.7048 127.171 88.504 125.967 88.504H121.047V97.3387Z" fill="black"/>
<path d="M149.257 86.4961H151.666L162.107 111.193H159.497L156.786 104.668H143.735L140.924 111.193H138.414L149.257 86.4961ZM150.361 89.006L144.639 102.559H155.983L150.361 89.006Z" fill="black"/>
<path d="M166.727 86.4961H174.357C176.465 86.4961 178.272 86.7973 179.778 87.2993C181.284 87.8012 182.489 88.504 183.493 89.3072C184.496 90.1103 185.3 91.0139 185.802 92.0178C186.404 93.0218 186.806 93.9253 187.107 94.8289C187.408 95.7324 187.508 96.5356 187.609 97.3387C187.709 98.0415 187.709 98.5435 187.709 98.8447C187.709 99.1459 187.709 99.6478 187.609 100.351C187.508 101.053 187.408 101.857 187.107 102.86C186.806 103.764 186.404 104.668 185.802 105.672C185.199 106.675 184.496 107.579 183.493 108.382C182.489 109.185 181.284 109.888 179.778 110.39C178.272 110.892 176.465 111.193 174.357 111.193H166.727V86.4961ZM168.935 109.085H173.654C175.26 109.085 176.766 108.884 178.272 108.483C179.678 108.081 180.882 107.479 181.987 106.575C182.991 105.772 183.894 104.668 184.496 103.362C185.099 102.057 185.4 100.551 185.4 98.7443C185.4 96.9372 185.099 95.4312 184.496 94.1261C183.894 92.821 183.091 91.817 181.987 90.9135C180.983 90.1103 179.678 89.4075 178.272 89.006C176.866 88.6044 175.361 88.4036 173.654 88.4036H168.935V109.085Z" fill="black"/>
<path d="M193.129 86.4961H207.887V88.6044H195.438V97.3387H206.983V99.447H195.438V111.193H193.129V86.4961Z" fill="black"/>
<path d="M213.008 98.8448C213.008 96.9373 213.309 95.2306 213.911 93.6243C214.514 92.0179 215.417 90.7128 216.522 89.5081C217.626 88.4037 219.032 87.5002 220.537 86.7974C222.144 86.195 223.85 85.7935 225.758 85.7935C227.665 85.7935 229.372 86.0946 230.979 86.7974C232.585 87.3998 233.89 88.3033 234.994 89.5081C236.099 90.6124 237.002 92.0179 237.605 93.6243C238.207 95.2306 238.508 96.9373 238.508 98.8448C238.508 100.752 238.207 102.459 237.605 104.065C237.002 105.672 236.099 107.077 234.994 108.182C233.89 109.286 232.585 110.189 230.979 110.892C229.372 111.495 227.665 111.896 225.758 111.896C223.85 111.896 222.144 111.595 220.537 110.892C218.931 110.29 217.626 109.386 216.522 108.182C215.417 107.077 214.514 105.672 213.911 104.065C213.309 102.459 213.008 100.752 213.008 98.8448ZM215.317 98.8448C215.317 100.351 215.518 101.857 216.02 103.162C216.522 104.467 217.224 105.672 218.128 106.575C219.032 107.579 220.136 108.282 221.441 108.884C222.746 109.487 224.152 109.687 225.758 109.687C227.364 109.687 228.77 109.386 230.075 108.884C231.38 108.282 232.484 107.579 233.388 106.575C234.292 105.571 234.994 104.467 235.496 103.162C235.998 101.857 236.199 100.451 236.199 98.8448C236.199 97.3389 235.998 95.833 235.496 94.5278C234.994 93.2227 234.292 92.0179 233.388 91.1144C232.484 90.1104 231.38 89.4077 230.075 88.8053C228.77 88.2029 227.364 88.0021 225.758 88.0021C224.152 88.0021 222.746 88.3033 221.441 88.8053C220.136 89.4077 219.032 90.1104 218.128 91.1144C217.224 92.1183 216.522 93.2227 216.02 94.5278C215.618 95.833 215.317 97.3389 215.317 98.8448Z" fill="black"/>
<path d="M244.631 86.4961H251.157C251.458 86.4961 251.96 86.4961 252.462 86.4961C253.064 86.4961 253.666 86.5965 254.269 86.6969C254.871 86.7973 255.574 86.9981 256.277 87.2993C256.979 87.6004 257.582 87.9016 258.084 88.4036C258.586 88.9056 259.088 89.5079 259.389 90.2107C259.69 90.9135 259.891 91.817 259.891 92.9214C259.891 94.1261 259.69 95.1301 259.289 95.8328C258.887 96.636 258.385 97.2384 257.783 97.7403C257.18 98.2423 256.477 98.5435 255.775 98.8447C255.072 99.0455 254.369 99.2463 253.666 99.3466L260.895 111.193H258.285L251.357 99.447H247.04V111.193H244.731V86.4961H244.631ZM246.94 97.3387H251.859C253.064 97.3387 254.068 97.138 254.771 96.8368C255.574 96.5356 256.076 96.134 256.578 95.7324C256.979 95.3309 257.281 94.8289 257.481 94.3269C257.682 93.8249 257.682 93.323 257.682 92.9214C257.682 92.5198 257.582 92.0178 257.481 91.5158C257.281 91.0139 257.08 90.5119 256.578 90.1103C256.176 89.7087 255.574 89.3072 254.771 89.006C253.968 88.7048 253.064 88.504 251.859 88.504H246.94V97.3387Z" fill="black"/>
<path d="M266.018 86.4961H273.648C275.756 86.4961 277.563 86.7973 279.069 87.2993C280.575 87.8012 281.78 88.504 282.784 89.3072C283.787 90.1103 284.591 91.0139 285.093 92.0178C285.695 93.0218 286.097 93.9253 286.297 94.8289C286.599 95.7324 286.699 96.5356 286.799 97.3387C286.9 98.0415 286.9 98.5435 286.9 98.8447C286.9 99.1459 286.9 99.6478 286.799 100.351C286.699 101.053 286.599 101.857 286.297 102.86C285.996 103.764 285.595 104.668 285.093 105.672C284.49 106.675 283.787 107.579 282.784 108.382C281.78 109.185 280.575 109.888 279.069 110.39C277.563 110.892 275.756 111.193 273.648 111.193H266.018V86.4961ZM268.327 109.085H273.045C274.652 109.085 276.157 108.884 277.663 108.483C279.069 108.081 280.274 107.479 281.378 106.575C282.382 105.772 283.285 104.668 283.888 103.362C284.49 102.057 284.791 100.551 284.791 98.7443C284.791 96.9372 284.49 95.4312 283.888 94.1261C283.285 92.821 282.482 91.817 281.378 90.9135C280.374 90.1103 279.069 89.4075 277.663 89.006C276.258 88.6044 274.752 88.4036 273.045 88.4036H268.327V109.085Z" fill="black"/>
</g>
<defs>
<clipPath id="clip0_3412_3352">
<rect width="253.999" height="49.5951" fill="white" transform="translate(33 62.7026)"/>
</clipPath>
</defs>
</svg>
