<svg width="254" height="50" viewBox="0 0 254 50" fill="none" xmlns="http://www.w3.org/2000/svg">
  <g clip-path="url(#clip0_3412_3354)">
    <path d="M36.545 31.7254H30.2201C30.1197 34.2353 30.0193 37.2471 29.8185 40.0582H35.2398C35.8422 37.5483 36.3442 34.6369 36.545 31.7254ZM29.1157 40.761H26.4051V46.7847H28.2122C28.5134 45.2787 28.8146 43.2708 29.1157 40.761ZM32.4288 46.7847C33.5331 45.2787 34.3363 43.1704 35.0391 40.761H29.7181C29.5173 42.9697 29.2161 45.0779 28.8146 46.7847H32.4288ZM41.2635 40.0582C42.3679 37.5483 43.171 34.6369 43.5726 31.7254H37.2477C37.0469 34.6369 36.545 37.5483 35.9426 40.0582H41.2635ZM48.7932 31.1231C49.0943 29.6171 49.2951 28.1112 49.2951 26.6053H44.5766C44.5766 28.1112 44.4762 29.6171 44.2754 31.1231H48.7932ZM29.6177 31.7254H26.4051V40.0582H29.1157C29.3165 37.7491 29.5173 34.9381 29.6177 31.7254ZM29.6177 26.5049H26.3047V31.1231H29.5173C29.6177 29.6171 29.6177 28.1112 29.6177 26.5049ZM36.7458 26.5049H30.2201C30.2201 27.4084 30.2201 29.0148 30.1197 31.0227H36.4446C36.7458 29.6171 36.7458 28.0108 36.7458 26.5049ZM44.7774 40.0582C46.5845 37.6487 47.8896 34.7373 48.6928 31.7254H44.175C43.7734 34.6369 43.0706 37.5483 41.9663 40.0582H44.7774ZM43.5726 31.1231C43.7734 29.6171 43.8738 28.1112 43.8738 26.6053H37.3481C37.3481 28.1112 37.2477 29.6171 37.1473 31.1231H43.5726ZM26.4051 49.3949C26.7063 49.3949 26.9071 49.3949 27.2082 49.3949C27.5094 49.0938 27.8106 48.4914 28.1118 47.387H26.4051V49.3949ZM31.9268 47.387H28.7142C28.5134 48.1902 28.2122 48.893 28.0114 49.3949C28.6138 49.3949 29.1157 49.2945 29.6177 49.1941C30.4209 48.7926 31.224 48.1902 31.9268 47.387ZM31.3244 48.893C32.8304 48.5918 34.2359 48.0898 35.6414 47.4874C35.7418 47.4874 35.7418 47.387 35.8422 47.387H32.8304C32.228 47.9894 31.8264 48.4914 31.3244 48.893ZM35.6414 40.761C34.9387 43.0701 34.1355 45.1783 33.1315 46.7847H36.545C38.3521 45.2787 39.858 43.1704 40.9624 40.761H35.6414ZM38.0509 46.1823C40.4604 44.7768 42.5687 42.8693 44.2754 40.761H41.6651C40.7616 42.8693 39.5568 44.6764 38.0509 46.1823Z" fill="#6A6A75"/>
    <path d="M12.8506 17.9704H19.2758C19.3762 15.4605 19.4766 12.3483 19.6774 9.53722H14.1557C13.5533 12.0471 13.0513 14.9585 12.8506 17.9704ZM20.3802 8.83446H23.0908V2.81076H21.1833C20.8822 4.31669 20.581 6.32458 20.3802 8.83446ZM16.9668 2.81076C15.8624 4.31669 14.9589 6.42498 14.3565 8.83446H19.7778C19.9786 6.52537 20.2798 4.41708 20.6814 2.81076H16.9668ZM8.0316 9.53722C6.92725 12.1475 6.12409 15.0589 5.72251 17.9704H12.1478C12.3486 14.9585 12.8506 12.1475 13.5533 9.53722H8.0316ZM0.501975 18.6732C0.20079 20.0787 0 21.685 0 23.1909H4.81896C4.81896 21.685 4.91935 20.0787 5.12014 18.5728H0.501975V18.6732ZM19.8782 17.9704H23.0908V9.53722H20.2798C20.079 11.9467 19.9786 14.7578 19.8782 17.9704ZM19.7778 23.1909H23.0908V18.5728H19.7778C19.7778 20.0787 19.7778 21.5846 19.7778 23.1909ZM12.6498 23.1909H19.1754C19.1754 22.2874 19.1754 20.6811 19.2758 18.5728H12.8506C12.6498 20.1791 12.6498 21.685 12.6498 23.1909ZM4.51777 9.53722C2.71066 12.0471 1.30513 14.8582 0.60237 17.9704H5.12014C5.52172 14.9585 6.22449 12.1475 7.32883 9.53722H4.51777ZM5.72251 18.6732C5.52172 20.1791 5.42133 21.7854 5.42133 23.2913H11.947C11.947 21.7854 12.0474 20.1791 12.1478 18.6732H5.72251ZM23.0908 0.100098C22.7897 0.100098 22.5889 0.100098 22.2877 0.100098C21.9865 0.401283 21.6853 1.00365 21.3841 2.108H23.0908V0.100098ZM17.4687 2.20839H20.6814C20.8822 1.40523 21.1833 0.702467 21.4845 0.200493C20.8822 0.200493 20.3802 0.300888 19.7778 0.401283C18.9747 0.702467 18.1715 1.30484 17.4687 2.20839ZM18.1715 0.702467C16.6656 1.00365 15.26 1.50563 13.8545 2.108C13.7541 2.108 13.7541 2.20839 13.6537 2.20839H16.6656C17.1675 1.60602 17.6695 1.10405 18.1715 0.702467ZM13.7541 8.83446C14.4569 6.42498 15.26 4.41708 16.3644 2.81076H12.951C11.1438 4.31669 9.63792 6.42498 8.43318 8.83446H13.7541ZM11.3446 3.41313C8.83476 4.81866 6.72646 6.72616 5.01975 8.83446H7.63002C8.63397 6.72616 9.83871 4.91906 11.3446 3.41313Z" fill="#6A6A75"/>
    <path d="M37.6473 13.7541C37.8481 13.6537 38.0489 13.453 37.9485 13.1518C37.8481 12.951 37.6473 12.8506 37.3461 12.8506C37.1453 12.951 37.0449 13.1518 37.0449 13.453C37.1453 13.6537 37.4465 13.7541 37.6473 13.7541Z" fill="#6A6A75"/>
    <path d="M32.9305 15.8628C32.1274 15.662 31.3242 16.3648 31.1234 17.4691C30.9226 18.5735 31.3242 19.5774 32.1274 19.7782C32.9305 19.979 33.7337 19.2762 33.9345 18.1719C34.1353 17.0675 33.7337 16.0636 32.9305 15.8628Z" fill="#6A6A75"/>
    <path d="M36.1426 16.967C36.5442 17.0674 37.0461 17.2682 37.4477 17.2682C38.3513 17.3686 39.1544 17.3686 39.9576 17.0674C40.3592 16.967 40.6604 16.7662 40.9615 16.5654C41.0619 16.465 41.1623 16.465 41.3631 16.3646C40.6604 15.9631 37.9497 14.3567 37.6485 14.2563C37.5481 14.4571 36.4438 16.3646 36.1426 16.967Z" fill="#6A6A75"/>
    <path d="M39.9576 7.02834C40.3592 6.92795 40.6604 6.72716 40.9615 6.52637C41.0619 6.42597 41.1623 6.42597 41.3631 6.32558C40.6604 5.924 37.9497 4.31768 37.6485 4.21729C37.4477 4.41808 36.4438 6.32558 36.1426 6.92795C36.5442 7.02834 37.0461 7.22913 37.4477 7.22913C38.3513 7.32953 39.1544 7.22913 39.9576 7.02834Z" fill="#6A6A75"/>
    <path d="M26.4043 0.100098V23.1909H49.4951V0.100098H26.4043ZM35.741 6.72617L37.3474 4.0155C37.0462 3.91511 36.8454 3.81471 36.745 3.51353C36.5442 3.11195 36.8454 2.60997 37.247 2.40918C37.6485 2.30879 38.1505 2.50958 38.3513 2.91116C38.4517 3.31274 38.3513 3.71432 38.0501 3.91511L41.8651 6.1238C41.9655 6.1238 42.0659 6.0234 42.1663 6.0234C42.5679 6.0234 43.0699 6.1238 43.2707 6.52538C43.4714 6.92696 43.4714 7.52933 43.1703 7.83051C42.9695 8.0313 42.7687 8.23209 42.5679 8.43288C42.6683 8.13169 42.5679 7.83051 42.5679 7.62972C42.3671 7.83051 42.2667 7.93091 42.1663 8.0313V8.1317C42.1663 8.43288 42.0659 8.73407 41.8651 9.13565C41.5639 9.33644 41.2628 9.53722 40.8612 9.73802C41.062 9.43683 41.1624 9.03525 41.1624 8.63367C41.062 8.73407 40.8612 8.83446 40.6604 8.83446C40.56 9.23604 40.2588 9.73802 39.8572 10.0392C39.4556 10.1396 39.0541 10.3404 38.6525 10.4408C38.9537 10.1396 39.2549 9.63762 39.3553 9.23604C39.1545 9.23604 39.0541 9.33644 38.8533 9.33644C38.7529 9.83841 38.3513 10.3404 37.8493 10.6416C37.4477 10.742 37.1466 10.742 36.745 10.742C37.1466 10.3404 37.4477 9.83841 37.5481 9.33644C37.247 9.33644 37.1466 9.43683 37.0462 9.63762C36.9458 9.83841 36.8454 10.0392 36.6446 10.24C36.4438 10.4408 36.243 10.742 35.9418 10.742C35.8414 10.742 35.6406 10.742 35.5402 10.742C35.2391 10.742 34.9379 10.742 34.6367 10.6416C35.8414 9.73802 36.4438 8.43288 35.741 6.72617ZM30.7213 7.32854C30.9221 6.52538 31.3237 5.92301 31.8256 5.52143C32.2272 5.32064 32.6288 5.22024 33.0304 5.32064C33.2312 5.42103 33.4319 5.52143 33.6327 5.62182C34.1347 6.0234 34.6367 6.22419 35.1387 6.42498C35.3395 6.52538 35.4398 6.92696 35.4398 7.02735C35.5402 7.22814 35.5402 7.52933 35.6406 7.83051C35.6406 8.33249 35.5402 8.83446 35.3395 9.23604C35.2391 9.43683 35.0383 9.63762 34.9379 9.83841C34.7371 10.0392 34.6367 10.24 34.3355 10.3404C34.1347 10.4408 33.9339 10.5412 33.7331 10.4408C33.2312 10.3404 32.8296 10.24 32.3276 10.1396C32.2272 10.1396 32.1268 10.1396 32.0264 10.1396C31.0225 9.93881 30.4201 8.63367 30.7213 7.32854ZM34.3355 20.4803C34.1347 20.5807 33.9339 20.6811 33.7331 20.5807C33.2312 20.4803 32.8296 20.3799 32.3276 20.2795C32.2272 20.2795 32.1268 20.2795 32.0264 20.2795C31.0225 19.9783 30.4201 18.7736 30.7213 17.368C30.9221 16.5649 31.3237 15.9625 31.8256 15.5609C32.2272 15.3601 32.6288 15.2597 33.0304 15.3601C33.2312 15.4605 33.4319 15.5609 33.6327 15.6613C34.1347 15.9625 34.6367 16.2637 35.1387 16.4645C35.3395 16.5649 35.4398 16.9665 35.4398 17.0668C35.5402 17.2676 35.5402 17.5688 35.6406 17.7696C35.6406 18.2716 35.5402 18.7736 35.3395 19.1751C35.2391 19.3759 35.0383 19.5767 34.9379 19.7775C34.7371 20.1791 34.5363 20.3799 34.3355 20.4803ZM43.1703 17.9704C42.9695 18.1712 42.7687 18.372 42.5679 18.5728C42.6683 18.2716 42.5679 18.0708 42.5679 17.7696C42.4675 17.87 42.3671 17.9704 42.2667 18.0708V18.1712C42.2667 18.4724 42.1663 18.7736 41.9655 19.1751C41.6643 19.3759 41.3631 19.5767 40.9616 19.7775C41.1624 19.4763 41.2628 19.0747 41.3631 18.7736C41.2628 18.874 41.062 18.9744 40.8612 18.9744C40.7608 19.3759 40.4596 19.8779 40.058 20.1791C39.6564 20.3799 39.2549 20.4803 38.8533 20.5807C39.1545 20.2795 39.4556 19.7775 39.556 19.3759C39.3553 19.3759 39.2549 19.4763 39.0541 19.4763C38.9537 19.9783 38.5521 20.4803 38.0501 20.7815C37.6485 20.8819 37.3473 20.8819 36.9458 20.8819C37.3473 20.4803 37.6485 20.0787 37.7489 19.4763C37.4477 19.4763 37.3473 19.5767 37.247 19.7775C37.1466 19.9783 37.0462 20.1791 36.8454 20.3799C36.6446 20.5807 36.4438 20.8819 36.1426 20.8819C36.0422 20.8819 35.8414 20.8819 35.741 20.8819C35.4398 20.8819 35.1387 20.8819 34.8375 20.7815C35.9418 19.8779 36.5442 18.4724 35.8414 16.7657L37.4477 14.055C37.1466 13.9546 36.9458 13.8542 36.8454 13.553C36.6446 13.1514 36.9458 12.6495 37.3474 12.4487C37.7489 12.3483 38.2509 12.5491 38.4517 12.9507C38.5521 13.3522 38.4517 13.7538 38.1505 13.9546L41.9655 16.1633C42.0659 16.1633 42.1663 16.0629 42.2667 16.0629C42.6683 16.0629 43.1703 16.1633 43.371 16.5649C43.4714 16.9665 43.4714 17.6692 43.1703 17.9704ZM43.7726 16.9665C43.7726 16.6653 43.6722 16.4645 43.4714 16.2637C43.1703 15.8621 42.7687 15.6613 42.2667 15.6613C43.6722 14.3562 44.2746 12.7499 44.7766 12.8503C45.0778 12.9507 44.9774 14.9586 43.7726 16.9665ZM43.7726 6.92696C43.7726 6.62577 43.6722 6.42498 43.4714 6.22419C43.1703 5.82261 42.7687 5.62182 42.2667 5.62182C43.6722 4.31669 44.2746 2.71037 44.7766 2.81076C45.0778 2.91116 44.9774 4.91906 43.7726 6.92696Z" fill="#6A6A75"/>
    <path d="M32.1274 9.73914C32.9305 9.93993 33.7337 9.23717 33.9345 8.13282C34.1353 7.02848 33.7337 6.02453 32.9305 5.82374C32.1274 5.62295 31.3242 6.32571 31.1234 7.43006C30.9226 8.5344 31.3242 9.53835 32.1274 9.73914Z" fill="#6A6A75"/>
    <path d="M37.6507 3.61498C37.8515 3.51459 38.0523 3.3138 37.9519 3.01261C37.8515 2.81182 37.6507 2.71143 37.3496 2.71143C37.1488 2.91222 37.0484 3.11301 37.1488 3.3138C37.1488 3.61498 37.4499 3.71538 37.6507 3.61498Z" fill="#6A6A75"/>
    <path d="M6.52626 32.8289C6.12468 33.0297 5.8235 33.1301 5.52231 33.1301H4.41797V33.6321H5.52231C5.8235 33.6321 6.22508 33.4313 6.72705 33.2305C7.32942 32.9293 7.93179 32.7285 8.53416 32.7285C9.43772 32.7285 10.1405 33.1301 10.2409 33.1301V32.6281C9.93969 32.5277 9.23693 32.2266 8.53416 32.2266C7.731 32.327 7.02824 32.6281 6.52626 32.8289Z" fill="#6A6A75"/>
    <path d="M16.867 42.4676C16.2646 42.1664 15.5618 41.8652 14.8591 41.8652C14.1563 41.8652 13.5539 42.066 13.1523 42.2668V42.7688C13.2527 42.7688 13.9555 42.3672 14.8591 42.3672C15.5618 42.3672 16.1642 42.6684 16.6662 42.8692C17.0677 43.07 17.4693 43.2708 17.8709 43.2708H18.9753V42.7688H17.8709C17.6701 42.7688 17.2685 42.568 16.867 42.4676Z" fill="#6A6A75"/>
    <path d="M6.52626 34.8372C6.12468 35.038 5.8235 35.1384 5.52231 35.1384H4.41797V35.6404H5.52231C5.8235 35.6404 6.22508 35.4396 6.72705 35.2388C7.32942 35.038 7.93179 34.7368 8.53416 34.7368C9.43772 34.7368 10.1405 35.1384 10.2409 35.1384V34.6364C9.93969 34.536 9.23693 34.2349 8.53416 34.2349C7.731 34.2349 7.02824 34.5361 6.52626 34.8372Z" fill="#6A6A75"/>
    <path d="M6.52626 42.4674C6.12468 42.6682 5.8235 42.7686 5.52231 42.7686H4.41797V43.2706H5.52231C5.8235 43.2706 6.22508 43.0698 6.72705 42.869C7.32942 42.6682 7.93179 42.367 8.53416 42.367C9.43772 42.367 10.1405 42.7686 10.2409 42.7686V42.1662C9.93969 42.0658 9.23693 41.7646 8.53416 41.7646C7.731 41.865 7.02824 42.1662 6.52626 42.4674Z" fill="#6A6A75"/>
    <path d="M6.52626 36.6444C6.12468 36.8452 5.8235 36.9455 5.52231 36.9455H4.41797V37.4475H5.52231C5.8235 37.4475 6.22508 37.2467 6.72705 37.0459C7.32942 36.7448 7.93179 36.544 8.53416 36.544C9.43772 36.544 10.1405 36.9455 10.2409 36.9455V36.4436C9.93969 36.3432 9.23693 36.042 8.53416 36.042C7.731 36.1424 7.02824 36.4436 6.52626 36.6444Z" fill="#6A6A75"/>
    <path d="M6.52626 40.6605C6.12468 40.8613 5.8235 40.9617 5.52231 40.9617H4.41797V41.4636H5.52231C5.8235 41.4636 6.22508 41.2628 6.72705 41.0621C7.32942 40.7609 7.93179 40.5601 8.53416 40.5601C9.43772 40.5601 10.1405 40.9617 10.2409 40.9617V40.4597C9.93969 40.3593 9.23693 40.0581 8.53416 40.0581C7.731 40.0581 7.02824 40.3593 6.52626 40.6605Z" fill="#6A6A75"/>
    <path d="M16.867 40.6605C16.2646 40.3593 15.5618 40.0581 14.8591 40.0581C14.1563 40.0581 13.5539 40.2589 13.1523 40.4597V40.9617C13.2527 40.9617 13.9555 40.5601 14.8591 40.5601C15.5618 40.5601 16.1642 40.8613 16.6662 41.0621C17.0677 41.2628 17.4693 41.4636 17.8709 41.4636H18.9753V40.9617H17.8709C17.6701 40.9617 17.2685 40.7609 16.867 40.6605Z" fill="#6A6A75"/>
    <path d="M6.52626 38.6522C6.12468 38.853 5.8235 38.9534 5.52231 38.9534H4.41797V39.4553H5.52231C5.8235 39.4553 6.22508 39.2545 6.72705 39.0538C7.32942 38.7526 7.93179 38.5518 8.53416 38.5518C9.43772 38.5518 10.1405 38.9534 10.2409 38.9534V38.4514C9.93969 38.351 9.23693 38.0498 8.53416 38.0498C7.731 38.0498 7.02824 38.351 6.52626 38.6522Z" fill="#6A6A75"/>
    <path d="M16.867 34.8372C16.2646 34.5361 15.5618 34.2349 14.8591 34.2349C14.1563 34.2349 13.5539 34.4357 13.1523 34.6364V35.1384C13.2527 35.1384 13.9555 34.7368 14.8591 34.7368C15.5618 34.7368 16.1642 35.038 16.6662 35.2388C17.0677 35.4396 17.4693 35.6404 17.8709 35.6404H18.9753V35.1384H17.8709C17.6701 35.1384 17.2685 34.9376 16.867 34.8372Z" fill="#6A6A75"/>
    <path d="M16.867 38.6522C16.2646 38.351 15.5618 38.0498 14.8591 38.0498C14.1563 38.0498 13.5539 38.2506 13.1523 38.4514V38.9534C13.2527 38.9534 13.9555 38.5518 14.8591 38.5518C15.5618 38.5518 16.1642 38.853 16.6662 39.0538C17.0677 39.2545 17.4693 39.4553 17.8709 39.4553H18.9753V38.9534H17.8709C17.6701 38.9534 17.2685 38.7526 16.867 38.6522Z" fill="#6A6A75"/>
    <path d="M0 26.5049V49.5957H23.0908V26.5049H0ZM3.41343 42.4677H2.20869C1.9075 42.4677 1.70671 42.2669 1.70671 41.9657C1.70671 41.6645 1.9075 41.4637 2.20869 41.4637H3.41343V42.4677ZM3.41343 39.8574H2.20869C1.9075 39.8574 1.70671 39.6566 1.70671 39.3554C1.70671 39.0543 1.9075 38.8535 2.20869 38.8535H3.41343V39.8574ZM3.41343 37.4479H2.20869C1.9075 37.4479 1.70671 37.2471 1.70671 36.946C1.70671 36.6448 1.9075 36.444 2.20869 36.444H3.41343V37.4479ZM3.41343 34.7373H2.20869C1.9075 34.7373 1.70671 34.5365 1.70671 34.2353C1.70671 33.9341 1.9075 33.7333 2.20869 33.7333H3.41343V34.7373ZM11.445 44.9776C10.9431 44.6764 9.83871 43.9736 9.03555 43.9736C7.63002 43.9736 7.02765 44.8772 5.72251 44.8772C4.81896 44.8772 3.71461 44.7768 3.71461 44.7768V31.4242C3.71461 31.4242 4.81896 31.5246 5.72251 31.5246C6.62607 31.5246 7.42923 30.7215 9.03555 30.7215C9.83871 30.7215 11.0434 31.3238 11.445 31.625V44.9776ZM17.6695 44.8772C16.3644 44.8772 16.3644 43.9736 14.2561 43.9736C13.4529 43.9736 12.2482 44.6764 11.7462 44.9776V31.625C12.2482 31.3238 13.3525 30.7215 14.1557 30.7215C15.5612 30.7215 16.5652 31.5246 17.3683 31.5246C18.2719 31.5246 19.4766 31.4242 19.4766 31.4242V44.7768C19.6774 44.7768 18.5731 44.8772 17.6695 44.8772ZM20.9825 41.1625H19.8782V40.0582H20.9825C21.2837 40.0582 21.4845 40.259 21.4845 40.5602C21.5849 40.8614 21.2837 41.1625 20.9825 41.1625ZM20.9825 38.6527H19.8782V37.5483H20.9825C21.2837 37.5483 21.4845 37.7491 21.4845 38.0503C21.5849 38.3515 21.2837 38.6527 20.9825 38.6527ZM20.9825 36.0424H19.8782V34.9381H20.9825C21.2837 34.9381 21.4845 35.1388 21.4845 35.44C21.5849 35.8416 21.2837 36.0424 20.9825 36.0424Z" fill="#6A6A75"/>
    <path d="M16.867 32.8289C16.2646 32.5277 15.5618 32.2266 14.8591 32.2266C14.1563 32.2266 13.5539 32.4274 13.1523 32.6281V33.1301C13.2527 33.1301 13.9555 32.7285 14.8591 32.7285C15.5618 32.7285 16.1642 33.0297 16.6662 33.2305C17.0677 33.4313 17.4693 33.6321 17.8709 33.6321H18.9753V33.1301H17.8709C17.6701 33.2305 17.2685 33.0297 16.867 32.8289Z" fill="#6A6A75"/>
    <path d="M16.867 36.6444C16.2646 36.3432 15.5618 36.042 14.8591 36.042C14.1563 36.042 13.5539 36.2428 13.1523 36.4436V36.9455C13.2527 36.9455 13.9555 36.544 14.8591 36.544C15.5618 36.544 16.1642 36.8452 16.6662 37.0459C17.0677 37.2467 17.4693 37.4475 17.8709 37.4475H18.9753V36.9455H17.8709C17.6701 37.0459 17.2685 36.8452 16.867 36.6444Z" fill="#6A6A75"/>
    <path d="M74.1934 9.63777C74.1934 10.3405 74.093 11.0433 73.9926 11.7461C73.7918 12.4488 73.591 13.0512 73.1894 13.5532C72.7879 14.0551 72.2859 14.4567 71.6835 14.7579C71.0811 15.0591 70.278 15.2599 69.3744 15.2599C68.4709 15.2599 67.6677 15.0591 67.0654 14.7579C66.463 14.4567 65.8606 14.0551 65.5594 13.5532C65.1578 13.0512 64.8567 12.4488 64.7563 11.7461C64.5555 11.0433 64.4551 10.3405 64.4551 9.63777V1.20459H65.7602V9.33658C65.7602 9.83856 65.7602 10.3405 65.8606 10.9429C65.961 11.5453 66.1618 12.0472 66.3626 12.4488C66.6638 12.9508 66.965 13.3524 67.4669 13.6536C67.9689 13.9548 68.5713 14.1555 69.3744 14.1555C70.1776 14.1555 70.78 13.9548 71.2819 13.6536C71.7839 13.3524 72.1855 12.9508 72.3863 12.4488C72.6875 11.9469 72.7879 11.4449 72.8883 10.9429C72.9887 10.3405 72.9886 9.83856 72.9886 9.33658V1.20459H74.2938V9.63777H74.1934Z" fill="black"/>
    <path d="M78.7109 1.20459H80.4176L88.7504 13.1516V1.20459H90.0556V14.8583H88.3489L80.0161 2.9113V14.8583H78.7109V1.20459Z" fill="black"/>
    <path d="M94.7715 1.20459H95.9762V14.8583H94.7715V1.20459Z" fill="black"/>
    <path d="M99.4922 1.20459H100.797L105.215 13.1516L109.732 1.20459H111.038L105.817 14.8583H104.612L99.4922 1.20459Z" fill="black"/>
    <path d="M114.451 1.20459H122.784V2.30893H115.656V7.22829H122.382V8.33263H115.656V13.754H123.085V14.8583H114.451V1.20459Z" fill="black"/>
    <path d="M127.502 1.20459H131.116C131.317 1.20459 131.518 1.20459 131.819 1.20459C132.12 1.20459 132.421 1.30498 132.823 1.30498C133.224 1.40538 133.526 1.50577 133.927 1.60617C134.329 1.70656 134.63 1.90735 134.931 2.20854C135.232 2.50972 135.433 2.81091 135.634 3.21249C135.835 3.61407 135.935 4.11604 135.935 4.71841C135.935 5.42118 135.835 5.92315 135.634 6.32473C135.433 6.72631 135.132 7.12789 134.73 7.32868C134.429 7.62987 134.028 7.83066 133.626 7.93105C133.224 8.03145 132.823 8.13184 132.421 8.23224L136.437 14.8583H135.032L131.217 8.33263H128.807V14.8583H127.502V1.20459ZM128.807 7.22829H131.518C132.221 7.22829 132.722 7.12789 133.124 6.9271C133.526 6.72631 133.827 6.52552 134.128 6.32473C134.329 6.12394 134.53 5.82276 134.63 5.52157C134.73 5.22039 134.73 5.0196 134.73 4.71841C134.73 4.51762 134.73 4.21644 134.63 3.91525C134.53 3.61407 134.429 3.41328 134.128 3.11209C133.927 2.9113 133.526 2.61012 133.124 2.50972C132.722 2.30893 132.12 2.20854 131.518 2.20854H128.807V7.22829Z" fill="black"/>
    <path d="M140.853 12.3493C141.154 12.9517 141.656 13.3533 142.158 13.6545C142.66 13.9556 143.262 14.056 143.965 14.056C144.367 14.056 144.768 13.9556 145.17 13.8552C145.571 13.7549 145.873 13.5541 146.174 13.3533C146.475 13.1525 146.676 12.8513 146.876 12.5501C147.077 12.2489 147.077 11.8473 147.077 11.4458C147.077 10.9438 146.977 10.5422 146.776 10.241C146.575 9.93984 146.274 9.63866 145.973 9.43787C145.672 9.23708 145.27 9.03629 144.869 8.93589C144.467 8.8355 143.965 8.63471 143.563 8.53431C143.162 8.43392 142.66 8.23313 142.258 8.03234C141.857 7.83155 141.455 7.63076 141.154 7.32957C140.853 7.02839 140.552 6.62681 140.351 6.22523C140.15 5.82365 140.05 5.22128 140.05 4.61891C140.05 4.01654 140.15 3.51457 140.451 3.01259C140.652 2.51062 141.054 2.10904 141.455 1.80785C141.857 1.50667 142.359 1.20548 142.861 1.10509C143.363 0.904297 143.965 0.904297 144.567 0.904297C145.27 0.904297 145.973 1.00469 146.676 1.30588C147.278 1.60706 147.88 2.00864 148.382 2.61101L147.278 3.41417C146.977 2.9122 146.575 2.61101 146.174 2.41022C145.772 2.20943 145.27 2.10904 144.668 2.10904C144.266 2.10904 143.865 2.20943 143.463 2.30983C143.061 2.41022 142.76 2.61101 142.459 2.8118C142.158 3.01259 141.957 3.31378 141.756 3.61496C141.556 3.91615 141.556 4.31773 141.556 4.71931C141.556 5.42207 141.756 5.92405 142.058 6.32562C142.359 6.7272 142.861 7.02839 143.363 7.22918C143.865 7.42997 144.467 7.63076 145.069 7.83155C145.672 8.03234 146.274 8.23313 146.776 8.43392C147.278 8.7351 147.78 9.03629 148.081 9.53826C148.382 10.0402 148.583 10.6426 148.583 11.5462C148.583 12.1485 148.483 12.7509 148.282 13.1525C148.081 13.6545 147.78 14.056 147.378 14.3572C146.977 14.6584 146.575 14.9596 145.973 15.06C145.471 15.2608 144.969 15.3612 144.367 15.3612C143.463 15.3612 142.66 15.1604 141.857 14.8592C141.054 14.558 140.451 14.056 139.949 13.2529L140.853 12.3493Z" fill="black"/>
    <path d="M152.6 1.20459H153.905V14.8583H152.6V1.20459Z" fill="black"/>
    <path d="M162.24 2.30893H157.521V1.20459H168.264V2.30893H163.545V14.8583H162.24V2.30893Z" fill="black"/>
    <path d="M174.987 8.935L169.967 1.20459H171.473L175.589 7.62987L179.906 1.20459H181.311L176.292 8.935V14.8583H174.987V8.935Z" fill="black"/>
    <path d="M187.438 10.4412C187.438 9.73845 187.538 9.13609 187.739 8.53372C187.939 7.93135 188.341 7.42937 188.743 7.02779C189.144 6.62621 189.646 6.32503 190.249 6.02384C190.851 5.82305 191.453 5.72266 192.156 5.72266C192.859 5.72266 193.461 5.82305 194.064 6.02384C194.666 6.22463 195.168 6.62621 195.569 7.02779C195.971 7.42937 196.272 7.93135 196.573 8.53372C196.774 9.13609 196.875 9.73845 196.875 10.4412C196.875 11.144 196.774 11.7464 196.573 12.3487C196.373 12.9511 195.971 13.4531 195.569 13.8546C195.168 14.2562 194.666 14.5574 194.064 14.8586C193.461 15.0594 192.859 15.1598 192.156 15.1598C191.453 15.1598 190.851 15.0594 190.249 14.8586C189.646 14.6578 189.144 14.2562 188.743 13.8546C188.341 13.4531 188.04 12.9511 187.739 12.3487C187.538 11.7464 187.438 11.0436 187.438 10.4412ZM188.542 10.4412C188.542 10.9432 188.642 11.4452 188.743 11.8467C188.943 12.2483 189.144 12.6499 189.445 13.0515C189.747 13.3527 190.148 13.6539 190.55 13.8546C190.951 14.0554 191.453 14.1558 192.056 14.1558C192.558 14.1558 193.06 14.0554 193.562 13.8546C193.963 13.6539 194.365 13.3527 194.666 13.0515C194.967 12.7503 195.168 12.3487 195.369 11.8467C195.57 11.4452 195.569 10.9432 195.569 10.4412C195.569 9.93924 195.469 9.43727 195.369 9.03569C195.168 8.63411 194.967 8.23253 194.666 7.83095C194.365 7.52977 193.963 7.22858 193.562 7.02779C193.16 6.827 192.658 6.72661 192.056 6.72661C191.554 6.72661 191.052 6.827 190.55 7.02779C190.148 7.22858 189.747 7.52977 189.445 7.83095C189.144 8.13214 188.943 8.53372 188.743 9.03569C188.642 9.43727 188.542 9.93924 188.542 10.4412Z" fill="black"/>
    <path d="M200.691 7.02765H198.783V6.0237H200.691V3.01185C200.691 2.40948 200.791 1.9075 200.992 1.60632C201.193 1.20474 201.393 0.903555 201.594 0.702765C201.895 0.501975 202.096 0.301185 202.498 0.20079C202.799 0 203.1 0 203.301 0C203.803 0 204.305 0.100395 204.606 0.20079L204.405 1.20474C204.104 1.10434 203.803 1.00395 203.401 1.00395C202.397 1.00395 201.795 1.80711 201.795 3.41343V5.9233H203.903V6.92725H201.795V14.8585H200.59V7.02765H200.691Z" fill="black"/>
    <path d="M64.152 23.7935H71.28C72.1836 23.7935 73.1875 23.8939 74.0911 23.9942C75.095 24.0946 75.8982 24.4962 76.7013 24.8978C77.5045 25.3998 78.1069 26.0021 78.5084 26.9057C79.0104 27.7089 79.2112 28.9136 79.2112 30.3191C79.2112 31.6243 78.8096 32.6282 78.1069 33.6322C77.4041 34.5357 76.2998 35.1381 74.7938 35.4393V35.5397C75.597 35.6401 76.4001 35.8409 77.0025 36.142C77.7053 36.4432 78.2073 36.8448 78.7092 37.3468C79.2112 37.8488 79.6128 38.4511 79.8136 39.2543C80.1148 39.957 80.2152 40.7602 80.2152 41.6638C80.2152 43.0693 79.914 44.274 79.412 45.1776C78.91 46.0811 78.2073 46.7839 77.3037 47.2859C76.5005 47.7879 75.597 48.1894 74.593 48.2898C73.5891 48.4906 72.6855 48.591 71.8824 48.591H63.9512V23.7935H64.152ZM66.461 34.4353H71.28C72.4847 34.4353 73.3883 34.3349 74.1915 34.0337C74.8942 33.7326 75.4966 33.4314 75.8982 32.9294C76.2998 32.5278 76.6009 32.0258 76.7013 31.6243C76.8017 31.1223 76.9021 30.7207 76.9021 30.3191C76.9021 29.4156 76.8017 28.7128 76.5005 28.2108C76.1994 27.6085 75.7978 27.2069 75.2958 26.8053C74.7938 26.5041 74.1915 26.2029 73.5891 26.1025C72.9867 26.0021 72.2839 25.9017 71.4808 25.9017H66.3606V34.4353H66.461ZM66.461 46.3823H71.6816C72.9867 46.3823 74.0911 46.1815 74.9946 45.8803C75.7978 45.5792 76.5005 45.1776 76.9021 44.6756C77.3037 44.1736 77.6049 43.6717 77.8057 43.1697C78.0065 42.6677 78.0065 42.1657 78.0065 41.6638C78.0065 40.7602 77.8057 39.957 77.5045 39.3547C77.2033 38.7523 76.7013 38.1499 76.099 37.7484C75.4966 37.3468 74.8942 37.0456 74.1915 36.8448C73.4887 36.644 72.7859 36.5436 72.0832 36.5436H66.461V46.3823Z" fill="black"/>
    <path d="M85.7383 23.7935H92.264C92.5651 23.7935 93.0671 23.7935 93.5691 23.7935C94.1715 23.7935 94.7738 23.8939 95.3762 23.9942C95.9786 24.0946 96.6813 24.2954 97.3841 24.5966C98.0869 24.8978 98.6892 25.199 99.1912 25.701C99.6932 26.2029 100.195 26.8053 100.496 27.5081C100.798 28.2108 100.998 29.1144 100.998 30.2187C100.998 31.4235 100.798 32.4274 100.396 33.1302C99.9944 33.9333 99.4924 34.5357 98.89 35.0377C98.2877 35.5397 97.5849 35.8409 96.8821 36.142C96.1794 36.3428 95.4766 36.5436 94.7738 36.644L102.002 48.4906H99.392L92.3643 36.7444H88.0474V48.4906H85.7383V23.7935ZM88.0474 34.6361H92.9667C94.1715 34.6361 95.1754 34.4353 95.8782 34.1341C96.6813 33.833 97.1833 33.4314 97.6853 33.0298C98.0869 32.6282 98.388 32.1262 98.5888 31.6243C98.7896 31.1223 98.7896 30.6203 98.7896 30.2187C98.7896 29.8172 98.6892 29.3152 98.5888 28.8132C98.388 28.3112 98.1873 27.8093 97.6853 27.4077C97.2837 27.0061 96.6813 26.6045 95.8782 26.3033C95.075 26.0021 94.1715 25.8014 92.9667 25.8014H88.0474V34.6361Z" fill="black"/>
    <path d="M116.257 23.7935H118.666L129.107 48.4906H126.497L123.786 41.9649H110.735L107.924 48.4906H105.414L116.257 23.7935ZM117.361 26.3033L111.639 39.8567H122.983L117.361 26.3033Z" fill="black"/>
    <path d="M133.727 23.7935H141.357C143.465 23.7935 145.272 24.0946 146.778 24.5966C148.284 25.0986 149.489 25.8014 150.493 26.6045C151.496 27.4077 152.3 28.3112 152.802 29.3152C153.404 30.3191 153.806 31.2227 154.107 32.1262C154.408 33.0298 154.508 33.833 154.609 34.6361C154.709 35.3389 154.709 35.8409 154.709 36.142C154.709 36.4432 154.709 36.9452 154.609 37.648C154.508 38.3507 154.408 39.1539 154.107 40.1578C153.806 41.0614 153.404 41.9649 152.802 42.9689C152.199 43.9728 151.496 44.8764 150.493 45.6796C149.489 46.4827 148.284 47.1855 146.778 47.6875C145.272 48.1894 143.465 48.4906 141.357 48.4906H133.727V23.7935ZM135.935 46.3823H140.654C142.26 46.3823 143.766 46.1815 145.272 45.78C146.678 45.3784 147.882 44.776 148.987 43.8724C149.991 43.0693 150.894 41.9649 151.496 40.6598C152.099 39.3547 152.4 37.8488 152.4 36.0416C152.4 34.2345 152.099 32.7286 151.496 31.4235C150.894 30.1183 150.091 29.1144 148.987 28.2108C147.983 27.4077 146.678 26.7049 145.272 26.3033C143.866 25.9018 142.361 25.701 140.654 25.701H135.935V46.3823Z" fill="black"/>
    <path d="M160.129 23.7935H174.887V25.9017H162.438V34.6361H173.983V36.7444H162.438V48.4906H160.129V23.7935Z" fill="black"/>
    <path d="M180.008 36.1422C180.008 34.2347 180.309 32.5279 180.911 30.9216C181.514 29.3153 182.417 28.0102 183.522 26.8054C184.626 25.7011 186.032 24.7975 187.537 24.0948C189.144 23.4924 190.85 23.0908 192.758 23.0908C194.665 23.0908 196.372 23.392 197.979 24.0948C199.585 24.6971 200.89 25.6007 201.994 26.8054C203.099 27.9098 204.002 29.3153 204.605 30.9216C205.207 32.5279 205.508 34.2347 205.508 36.1422C205.508 38.0497 205.207 39.7564 204.605 41.3627C204.002 42.969 203.099 44.3746 201.994 45.4789C200.89 46.5832 199.585 47.4868 197.979 48.1896C196.372 48.7919 194.665 49.1935 192.758 49.1935C190.85 49.1935 189.144 48.8923 187.537 48.1896C185.931 47.5872 184.626 46.6836 183.522 45.4789C182.417 44.3746 181.514 42.969 180.911 41.3627C180.309 39.7564 180.008 38.0497 180.008 36.1422ZM182.317 36.1422C182.317 37.6481 182.518 39.154 183.02 40.4591C183.522 41.7643 184.224 42.969 185.128 43.8726C186.032 44.8765 187.136 45.5793 188.441 46.1817C189.746 46.784 191.152 46.9848 192.758 46.9848C194.364 46.9848 195.77 46.6836 197.075 46.1817C198.38 45.5793 199.484 44.8765 200.388 43.8726C201.292 42.8686 201.994 41.7643 202.496 40.4591C202.998 39.154 203.199 37.7485 203.199 36.1422C203.199 34.6362 202.998 33.1303 202.496 31.8252C201.994 30.52 201.292 29.3153 200.388 28.4118C199.484 27.4078 198.38 26.705 197.075 26.1027C195.77 25.5003 194.364 25.2995 192.758 25.2995C191.152 25.2995 189.746 25.6007 188.441 26.1027C187.136 26.705 186.032 27.4078 185.128 28.4118C184.224 29.4157 183.522 30.52 183.02 31.8252C182.618 33.1303 182.317 34.6362 182.317 36.1422Z" fill="black"/>
    <path d="M211.631 23.7935H218.157C218.458 23.7935 218.96 23.7935 219.462 23.7935C220.064 23.7935 220.666 23.8939 221.269 23.9942C221.871 24.0946 222.574 24.2954 223.277 24.5966C223.979 24.8978 224.582 25.199 225.084 25.701C225.586 26.2029 226.088 26.8053 226.389 27.5081C226.69 28.2108 226.891 29.1144 226.891 30.2187C226.891 31.4235 226.69 32.4274 226.289 33.1302C225.887 33.9333 225.385 34.5357 224.783 35.0377C224.18 35.5397 223.477 35.8409 222.775 36.142C222.072 36.3428 221.369 36.5436 220.666 36.644L227.895 48.4906H225.285L218.357 36.7444H214.04V48.4906H211.731V23.7935H211.631ZM213.94 34.6361H218.859C220.064 34.6361 221.068 34.4353 221.771 34.1341C222.574 33.833 223.076 33.4314 223.578 33.0298C223.979 32.6282 224.281 32.1262 224.481 31.6243C224.682 31.1223 224.682 30.6203 224.682 30.2187C224.682 29.8172 224.582 29.3152 224.481 28.8132C224.281 28.3112 224.08 27.8093 223.578 27.4077C223.176 27.0061 222.574 26.6045 221.771 26.3033C220.968 26.0021 220.064 25.8014 218.859 25.8014H213.94V34.6361Z" fill="black"/>
    <path d="M233.018 23.7935H240.648C242.756 23.7935 244.563 24.0946 246.069 24.5966C247.575 25.0986 248.78 25.8014 249.784 26.6045C250.787 27.4077 251.591 28.3112 252.093 29.3152C252.695 30.3191 253.097 31.2227 253.297 32.1262C253.599 33.0298 253.699 33.833 253.799 34.6361C253.9 35.3389 253.9 35.8409 253.9 36.142C253.9 36.4432 253.9 36.9452 253.799 37.648C253.699 38.3507 253.599 39.1539 253.297 40.1578C252.996 41.0614 252.595 41.9649 252.093 42.9689C251.49 43.9728 250.787 44.8764 249.784 45.6796C248.78 46.4827 247.575 47.1855 246.069 47.6875C244.563 48.1894 242.756 48.4906 240.648 48.4906H233.018V23.7935ZM235.327 46.3823H240.045C241.652 46.3823 243.157 46.1815 244.663 45.78C246.069 45.3784 247.274 44.776 248.378 43.8724C249.382 43.0693 250.285 41.9649 250.888 40.6598C251.49 39.3547 251.791 37.8488 251.791 36.0416C251.791 34.2345 251.49 32.7286 250.888 31.4235C250.285 30.1183 249.482 29.1144 248.378 28.2108C247.374 27.4077 246.069 26.7049 244.663 26.3033C243.258 25.9018 241.752 25.701 240.045 25.701H235.327V46.3823Z" fill="black"/>
  </g>
  <defs>
    <clipPath id="clip0_3412_3354">
      <rect width="253.999" height="49.5951" fill="white"/>
    </clipPath>
  </defs>
</svg>
