<svg width="320" height="175" viewBox="0 0 320 175" fill="none" xmlns="http://www.w3.org/2000/svg">
<rect x="0.818824" y="0.818824" width="318.362" height="173.362" rx="2.45647" fill="white"/>
<rect x="0.818824" y="0.818824" width="318.362" height="173.362" rx="2.45647" stroke="#E0E0E0" stroke-width="1.63765"/>
<g clip-path="url(#clip0_3431_3740)">
<path d="M97.9801 107.094H100.7V106.659H97.9801V104.247H100.787V103.819H97.5039V109.984H100.866V109.556H97.9801V107.094Z" fill="#1C1D1C"/>
<path d="M104.047 106.623C102.922 106.131 102.792 105.731 102.792 105.239C102.796 105.084 102.833 104.931 102.9 104.79C102.967 104.65 103.063 104.525 103.182 104.423C103.301 104.322 103.44 104.246 103.59 104.201C103.74 104.156 103.899 104.142 104.055 104.161C104.541 104.174 105.011 104.339 105.396 104.632V104.097C104.992 103.86 104.532 103.734 104.062 103.733C103.844 103.712 103.624 103.734 103.416 103.8C103.208 103.866 103.016 103.974 102.851 104.116C102.687 104.259 102.554 104.433 102.46 104.629C102.367 104.825 102.315 105.037 102.309 105.253C102.309 106.059 102.698 106.509 103.752 106.98C104.92 107.522 105.151 107.858 105.151 108.471C105.156 108.63 105.126 108.788 105.065 108.935C105.004 109.082 104.912 109.215 104.796 109.324C104.68 109.434 104.541 109.518 104.39 109.572C104.239 109.625 104.078 109.646 103.917 109.634C103.33 109.62 102.77 109.379 102.359 108.964V109.549C102.804 109.894 103.352 110.082 103.917 110.084C104.141 110.105 104.366 110.079 104.579 110.009C104.791 109.938 104.987 109.824 105.152 109.674C105.317 109.524 105.449 109.341 105.538 109.138C105.627 108.934 105.673 108.714 105.671 108.493C105.635 107.629 105.295 107.18 104.047 106.623Z" fill="#1C1D1C"/>
<path d="M106.832 104.247H109.09V109.984H109.566V104.247H111.839V103.819H106.832V104.247Z" fill="#1C1D1C"/>
<path d="M113.116 109.199H112.531V109.984H113.116V109.199Z" fill="#1C1D1C"/>
<path d="M118.396 105.182L118.663 105.517L119.948 104.518V109.984H120.424V103.74H120.215L118.396 105.182Z" fill="#1C1D1C"/>
<path d="M125.929 106.802C126.212 106.682 126.453 106.484 126.622 106.23C126.791 105.976 126.882 105.679 126.881 105.374C126.853 104.948 126.662 104.548 126.346 104.255C126.031 103.963 125.614 103.8 125.182 103.8C124.75 103.8 124.333 103.963 124.018 104.255C123.702 104.548 123.511 104.948 123.483 105.374C123.481 105.677 123.569 105.973 123.736 106.227C123.903 106.481 124.141 106.68 124.421 106.802C124.102 106.912 123.827 107.119 123.634 107.393C123.441 107.668 123.34 107.995 123.346 108.329C123.346 108.807 123.538 109.267 123.881 109.605C124.223 109.944 124.687 110.134 125.171 110.134C125.655 110.134 126.12 109.944 126.462 109.605C126.804 109.267 126.997 108.807 126.997 108.329C127.003 107.996 126.903 107.669 126.711 107.395C126.52 107.121 126.246 106.914 125.929 106.802ZM123.952 105.374C123.976 105.07 124.115 104.785 124.341 104.577C124.568 104.37 124.866 104.254 125.175 104.254C125.484 104.254 125.781 104.37 126.008 104.577C126.235 104.785 126.374 105.07 126.398 105.374C126.404 105.535 126.376 105.695 126.318 105.844C126.26 105.994 126.171 106.13 126.058 106.245C125.944 106.36 125.809 106.451 125.659 106.512C125.509 106.573 125.348 106.604 125.186 106.602C125.021 106.606 124.858 106.576 124.705 106.516C124.553 106.455 124.415 106.364 124.299 106.248C124.184 106.133 124.093 105.995 124.033 105.843C123.974 105.692 123.946 105.53 123.952 105.367V105.374ZM125.178 109.656C125.002 109.665 124.825 109.637 124.659 109.575C124.494 109.513 124.343 109.418 124.217 109.295C124.091 109.172 123.992 109.025 123.926 108.862C123.861 108.699 123.83 108.525 123.837 108.35C123.837 108 123.977 107.664 124.227 107.417C124.478 107.169 124.817 107.03 125.171 107.03C125.525 107.03 125.865 107.169 126.115 107.417C126.365 107.664 126.506 108 126.506 108.35C126.508 108.521 126.475 108.691 126.408 108.849C126.342 109.006 126.243 109.149 126.119 109.268C125.995 109.387 125.847 109.48 125.685 109.54C125.524 109.601 125.351 109.628 125.178 109.62V109.656Z" fill="#1C1D1C"/>
<path d="M130.401 103.74C130.161 103.732 129.922 103.773 129.699 103.86C129.476 103.946 129.273 104.077 129.103 104.244C128.932 104.411 128.798 104.611 128.709 104.831C128.62 105.051 128.577 105.287 128.583 105.524C128.577 105.753 128.62 105.98 128.707 106.192C128.794 106.404 128.924 106.596 129.089 106.756C129.254 106.917 129.45 107.042 129.666 107.125C129.881 107.207 130.112 107.245 130.343 107.237C130.839 107.239 131.32 107.072 131.707 106.766C131.497 107.786 130.769 108.756 129.434 109.72L129.715 110.062C131.389 108.913 132.327 107.408 132.327 105.931C132.334 104.618 131.577 103.74 130.401 103.74ZM130.401 106.808C130.047 106.808 129.707 106.669 129.457 106.422C129.207 106.174 129.066 105.839 129.066 105.488C129.066 105.138 129.207 104.803 129.457 104.555C129.707 104.307 130.047 104.168 130.401 104.168C131.317 104.168 131.844 104.882 131.844 105.838C131.836 106.566 131.043 106.808 130.43 106.808H130.401Z" fill="#1C1D1C"/>
<path d="M134.297 105.182L134.564 105.517L135.855 104.518V109.984H136.324V103.74H136.115L134.297 105.182Z" fill="#1C1D1C"/>
<path d="M105.801 92.5591L98.449 84.0679H97.5039V94.3429H98.6005V85.8803L105.894 94.3429H106.897V84.0679H105.801V92.5591Z" fill="#1C1D1C"/>
<path d="M111.896 89.6692H116.282V88.6631H111.896V85.0811H116.434V84.0679H110.756V94.3429H116.556V93.3154H111.896V89.6692Z" fill="#1C1D1C"/>
<path d="M130.61 91.8527H130.596L127.458 84.0679H126.44L123.367 91.8883H123.352L120.229 84.0679H119.074L123.23 94.4143H123.468L126.945 85.6662L130.444 94.4143H130.69L134.816 84.0679H133.655L130.61 91.8527Z" fill="#1C1D1C"/>
<path d="M151.879 84.0679H150.739V89.9832C150.739 92.2094 149.685 93.4653 147.528 93.4653C145.371 93.4653 144.318 92.2451 144.318 89.9832V84.0679H143.178V89.9832C143.178 92.8374 144.7 94.4714 147.564 94.4714C150.428 94.4714 151.893 92.6804 151.893 89.9832V84.0679H151.879Z" fill="#1C1D1C"/>
<path d="M163.914 92.5591L156.562 84.0679H155.617V94.3429H156.714V85.8803L164.008 94.3429H165.011V84.0679H163.914V92.5591Z" fill="#1C1D1C"/>
<path d="M170.009 84.0679H168.869V94.3358H170.009V84.0679Z" fill="#1C1D1C"/>
<path d="M177.261 92.0667H177.246L173.863 84.0679H172.723L177.124 94.4428H177.383L181.77 84.0679H180.623L177.261 92.0667Z" fill="#1C1D1C"/>
<path d="M185.622 89.6692H190.009V88.6631H185.622V85.0811H190.16V84.0679H184.482V94.3429H190.283V93.3154H185.622V89.6692Z" fill="#1C1D1C"/>
<path d="M197.584 89.3909C198.16 89.2627 198.671 88.939 199.03 88.4761C199.388 88.0132 199.571 87.4405 199.547 86.8578C199.547 85.2951 198.464 84.1035 196.379 84.1035H193.652V94.3358H194.821V89.6692H195.781C196.661 89.6692 197.303 90.0045 198.262 91.503L200.088 94.3572H201.444L199.431 91.2889C198.558 89.976 198.248 89.7049 197.584 89.3909ZM195.86 88.6774H194.821V85.0668H196.264C197.584 85.0668 198.428 85.5806 198.428 86.8435C198.371 88.3348 197.288 88.6774 195.86 88.6774Z" fill="#1C1D1C"/>
<path d="M206.868 88.5704C205.151 87.7142 204.978 87.1433 204.978 86.4298C204.978 85.5379 205.699 84.9385 206.789 84.9385C207.658 84.9497 208.493 85.2774 209.134 85.859V84.596C208.441 84.1623 207.638 83.9322 206.818 83.9324C205.086 83.9324 203.816 85.017 203.816 86.4797C203.816 87.7855 204.444 88.5704 206.067 89.3981C208.08 90.4399 208.369 90.9465 208.369 91.8242C208.37 92.0529 208.322 92.2793 208.23 92.4889C208.137 92.6984 208.001 92.8865 207.831 93.041C207.66 93.1956 207.459 93.3132 207.24 93.3862C207.02 93.4593 206.788 93.4862 206.558 93.4654C206.041 93.4512 205.533 93.3273 205.069 93.102C204.604 92.8767 204.195 92.5553 203.867 92.1596V93.5867C204.639 94.172 205.585 94.4903 206.558 94.4929C208.34 94.4929 209.53 93.3512 209.53 91.8313C209.538 90.4114 209.018 89.6693 206.868 88.5704Z" fill="#1C1D1C"/>
<path d="M213.982 84.0679H212.842V94.3358H213.982V84.0679Z" fill="#1C1D1C"/>
<path d="M216.896 85.0668H220.569V94.3429H221.709V85.0668H225.424V84.0679H216.896V85.0668Z" fill="#1C1D1C"/>
<path d="M231.839 87.8639L228.752 84.0679H227.381L231.262 88.8558V94.3429H232.431V88.8558L236.298 84.0679H234.927L231.839 87.8639Z" fill="#1C1D1C"/>
<path d="M102.511 70.9529C103.114 70.7983 103.646 70.446 104.021 69.9535C104.396 69.4611 104.591 68.8576 104.574 68.2415C104.574 66.2721 103.037 65.0947 100.722 65.0947H97.5039V77.4177H101.306C103.593 77.4177 105.635 76.3902 105.635 74.114C105.635 72.4871 104.444 71.2241 102.511 70.9529ZM98.8675 66.2935H100.455C102.302 66.2935 103.16 66.9428 103.16 68.3699C103.16 69.6329 102.28 70.5748 100.238 70.5748H98.8675V66.2935ZM101.032 76.2261H98.8675V71.745H100.859C103.218 71.745 104.221 72.5798 104.221 74.0069C104.206 75.5625 103.037 76.2261 101.032 76.2261Z" fill="#1C1D1C"/>
<path d="M118.937 72.2016C118.937 74.8774 117.675 76.3759 115.085 76.3759C112.495 76.3759 111.232 74.9488 111.232 72.2016V65.1304H109.861V72.2658C109.861 75.7123 111.687 77.6531 115.121 77.6531C118.555 77.6531 120.308 75.5125 120.308 72.2658V65.1304H118.937V72.2658V72.2016Z" fill="#1C1D1C"/>
<path d="M135.906 76.547V75.0485C134.615 75.8705 133.112 76.3089 131.577 76.3115C130.896 76.3423 130.215 76.2335 129.578 75.9918C128.941 75.7501 128.362 75.3809 127.876 74.9071C127.39 74.4334 127.009 73.8655 126.756 73.239C126.502 72.6126 126.383 71.9411 126.404 71.2667C126.392 70.592 126.519 69.922 126.776 69.297C127.033 68.6719 127.415 68.1049 127.9 67.6301C128.385 67.1553 128.962 66.7826 129.596 66.5344C130.231 66.2863 130.91 66.1678 131.592 66.1863C133.078 66.2088 134.533 66.6146 135.812 67.3636V65.908C134.488 65.2847 133.043 64.9512 131.577 64.9304C130.715 64.9004 129.856 65.0438 129.052 65.3519C128.248 65.66 127.515 66.1265 126.898 66.7229C126.282 67.3194 125.794 68.0335 125.465 68.8219C125.136 69.6103 124.972 70.4566 124.983 71.3095C124.972 72.1544 125.136 72.9925 125.465 73.7724C125.793 74.5524 126.28 75.2576 126.894 75.845C127.508 76.4323 128.237 76.8894 129.036 77.188C129.835 77.4866 130.688 77.6206 131.541 77.5816C133.059 77.5881 134.556 77.2332 135.906 76.547Z" fill="#1C1D1C"/>
<path d="M143.605 71.0243L149.174 65.0947H147.457L141.996 70.8816V65.0947H140.625V77.4177H141.996V71.2954L148.388 77.4177H150.271L143.605 71.0243Z" fill="#1C1D1C"/>
<path d="M155.558 65.0947H154.188V77.4177H155.558V65.0947Z" fill="#1C1D1C"/>
<path d="M170.875 75.2913L162.045 65.0947H160.912V77.4177H162.232V67.2639L170.984 77.4177H172.189V65.0947H170.875V75.2913Z" fill="#1C1D1C"/>
<path d="M183.544 66.1435C185.058 66.1664 186.539 66.5849 187.837 67.3565V65.9294C186.521 65.2795 185.073 64.933 183.602 64.9162C182.735 64.8818 181.871 65.0236 181.062 65.3328C180.252 65.642 179.516 66.1122 178.898 66.7141C178.28 67.316 177.793 68.0369 177.468 68.8323C177.143 69.6276 176.986 70.4805 177.008 71.3381C177.008 74.4991 179.172 77.5888 183.66 77.5888C185.201 77.594 186.722 77.2369 188.097 76.547V71.5522H184.186V72.7438H186.726V75.7478C185.757 76.1606 184.714 76.3765 183.66 76.3829C182.965 76.4166 182.27 76.306 181.621 76.0583C180.972 75.8106 180.382 75.4313 179.89 74.9447C179.398 74.4581 179.015 73.875 178.764 73.2329C178.514 72.5909 178.402 71.9041 178.436 71.2168C178.42 70.5479 178.54 69.8825 178.791 69.2609C179.041 68.6393 179.416 68.0744 179.894 67.6003C180.371 67.1261 180.941 66.7526 181.568 66.5022C182.196 66.2518 182.868 66.1298 183.544 66.1435Z" fill="#1C1D1C"/>
<path d="M203.572 77.4177V65.0947H202.201V70.589H194.64V65.0947H193.27V77.4177H194.64V71.8377H202.201V77.4177H203.572Z" fill="#1C1D1C"/>
<path d="M207.568 77.4175H209.011L210.692 73.5501H216.356L218.109 77.4175H219.516L213.96 65.0232H212.994L207.568 77.4175ZM215.742 72.3442H211.154L213.383 67.1068L215.742 72.3442Z" fill="#1C1D1C"/>
<path d="M233.475 77.4177H234.846V65.0947H233.555L229.168 70.4963L224.767 65.0947H223.469V77.4177H224.84V67.2496H224.876L229.038 72.3943H229.276L233.439 67.2496H233.475V77.4177Z" fill="#1C1D1C"/>
<path d="M243.496 70.4961C241.433 69.4686 241.231 68.7622 241.231 67.9487C241.231 66.8855 242.09 66.1577 243.395 66.1577C244.438 66.1716 245.439 66.5625 246.209 67.2566V65.7225C245.377 65.206 244.414 64.9315 243.432 64.9304C241.346 64.9304 239.824 66.2291 239.824 67.9844C239.824 69.5542 240.546 70.4961 242.53 71.4879C244.954 72.7366 245.322 73.3503 245.322 74.4063C245.323 74.68 245.266 74.9509 245.155 75.2017C245.045 75.4526 244.882 75.6778 244.679 75.8631C244.475 76.0484 244.235 76.1897 243.973 76.278C243.711 76.3662 243.433 76.3995 243.157 76.3757C242.537 76.3565 241.927 76.2065 241.37 75.9358C240.813 75.6651 240.32 75.2799 239.925 74.8059V76.5042C240.854 77.2046 241.99 77.5832 243.157 77.5816C245.322 77.5816 246.721 76.2045 246.721 74.3849C246.692 72.7081 246.043 71.8162 243.496 70.4961Z" fill="#1C1D1C"/>
<path d="M252.767 71.8377H260.328V77.4177H261.699V65.0947H260.328V70.589H252.767V65.0947H251.396V77.4177H252.767V71.8377Z" fill="#1C1D1C"/>
<path d="M268.431 65.0947H267.061V77.4177H268.431V65.0947Z" fill="#1C1D1C"/>
<path d="M278.51 71.4382C279.2 71.2865 279.815 70.8997 280.246 70.3453C280.677 69.791 280.898 69.1044 280.869 68.4056C280.869 66.5218 279.57 65.0947 277.067 65.0947H273.799V77.4177H275.17V71.8163H276.346C277.406 71.8163 278.171 72.2159 279.325 74.0212L281.49 77.4177H283.113L280.674 73.7358C279.671 72.1802 279.311 71.852 278.51 71.4382ZM276.447 70.6247H275.17V66.2864H276.887C278.474 66.2864 279.462 66.9 279.462 68.427C279.455 70.2109 278.156 70.6247 276.439 70.6247H276.447Z" fill="#1C1D1C"/>
<path d="M288.416 76.1904V71.8163H293.675V70.6104H288.416V66.3078H293.855V65.0947H287.045V77.4177H294V76.1904H288.416Z" fill="#1C1D1C"/>
<path d="M57.8299 87.7211C58.4575 86.4439 58.8471 85.2737 58.5513 84.7742C58.0095 85.4925 57.5678 86.2797 57.2383 87.1146C57.7433 86.8221 57.9742 87.0218 57.8299 87.7211Z" fill="#1C1D1C"/>
<path d="M53.6953 87.4358C54.0993 86.9292 54.5611 86.2014 55.7082 87.5928C55.1581 86.1474 55.0135 84.5818 55.2897 83.0618C54.5178 83.5113 53.7602 84.7386 53.6953 87.4358Z" fill="#1C1D1C"/>
<path d="M50.5293 84.6458C50.3942 85.2156 50.4053 85.8098 50.5615 86.3743C50.7177 86.9389 51.0142 87.4558 51.4239 87.8781C51.258 87.2431 51.6548 87.0433 52.636 87.2716C51.6776 86.6312 50.942 85.7144 50.5293 84.6458Z" fill="#1C1D1C"/>
<path d="M59.7139 89.8403C59.9995 89.5127 60.1781 89.1072 60.2261 88.6772C59.8217 89.0532 59.3239 89.3166 58.7832 89.4407C59.3964 89.3908 59.7139 89.5335 59.7139 89.8403Z" fill="#1C1D1C"/>
<path d="M48.0535 87.7498C48.0244 88.1108 48.0694 88.474 48.186 88.8173C48.3025 89.1607 48.4882 89.4772 48.7317 89.7477C48.8832 89.2982 49.2944 89.0341 49.9438 89.0341C49.2067 88.7851 48.5529 88.3409 48.0535 87.7498Z" fill="#1C1D1C"/>
<path d="M53.5881 82.1485C52.9564 82.952 52.4973 83.8747 52.239 84.86C52.0584 84.5359 51.9828 84.1647 52.0226 83.7968C52.0258 83.3931 52.1142 82.9945 52.2823 82.6266C52.6863 81.5277 52.5709 80.279 51.6402 79.7724L51.734 80.5644C51.744 80.8042 51.6728 81.0404 51.5316 81.2356C51.3905 81.4307 51.1875 81.5737 50.9548 81.6419C49.5913 82.2983 48.7905 84.4176 48.7905 85.124C48.7794 85.7291 48.8796 86.3311 49.0862 86.9007C48.4042 86.3752 47.9563 85.6072 47.8381 84.7601C47.1167 85.7162 46.5684 86.337 46.5684 87.6143C46.6281 88.5172 46.8926 89.3952 47.3423 90.1833C47.7919 90.9714 48.415 91.6493 49.1656 92.1667C48.9327 92.4116 48.7947 92.73 48.776 93.0658C48.7656 93.2559 48.7958 93.446 48.8646 93.6238C48.9335 93.8016 49.0394 93.9631 49.1755 94.0977C49.3116 94.2324 49.4749 94.3371 49.6547 94.4052C49.8345 94.4733 50.0267 94.5031 50.2189 94.4929C50.3188 94.4937 50.4176 94.4717 50.5075 94.4286C51.098 96.2704 51.4851 98.17 51.6619 100.094L52.1957 108.015C52.239 109.442 52.2751 110.912 52.2895 112.503C51.9874 112.811 51.8169 113.222 51.8134 113.652C51.8134 114.765 52.9244 115.55 54.1292 115.55C55.3341 115.55 56.4451 114.765 56.4451 113.652C56.4488 113.308 56.3399 112.973 56.1349 112.695C56.1926 110.626 56.2792 108.714 56.4018 106.937L56.9574 101.393C57.2346 99.0063 57.7741 96.6567 58.5662 94.3858C58.6379 94.3966 58.7109 94.3966 58.7826 94.3858C58.9654 94.4024 59.1497 94.3827 59.3247 94.3279C59.4997 94.2731 59.6618 94.1842 59.8016 94.0666C59.9414 93.9489 60.056 93.8048 60.1387 93.6428C60.2214 93.4807 60.2706 93.3039 60.2833 93.1228C60.2536 92.7368 60.0755 92.3768 59.7855 92.1167C60.902 90.988 61.6162 89.5301 61.82 87.9639C61.8761 87.4789 61.774 86.9889 61.5287 86.5653C61.2834 86.1418 60.9077 85.8068 60.4564 85.6092L60.2977 85.8803L60.1895 86.073C60.1895 85.8518 60.1895 85.5949 60.1895 85.3024C60.1895 83.5399 59.1722 82.3483 58.0251 81.1709C58.0684 82.912 57.8592 82.7051 57.0295 84.0251C57.1738 82.9263 57.4047 82.4054 56.9574 81.2423C56.2359 79.4085 55.0671 78.9161 53.4366 78.1169C54.3962 79.7082 54.7641 80.4931 53.5881 82.1485ZM56.2575 101.885L55.9545 104.604C55.7429 106.83 55.5938 109.342 55.5072 112.139C55.5072 112.467 54.9156 112.538 54.5044 112.51C54.324 112.51 54.2447 113.138 54.5044 113.138C55.5505 113.138 55.5144 112.731 55.7164 113.245C55.7789 113.374 55.8109 113.516 55.8102 113.659C55.7529 114.044 55.546 114.392 55.2336 114.629C54.9211 114.866 54.5276 114.974 54.1365 114.929C53.7411 114.978 53.342 114.871 53.025 114.633C52.7081 114.394 52.4984 114.042 52.441 113.652C52.4478 113.418 52.5313 113.192 52.6791 113.009C52.8739 112.81 52.8018 113.131 53.7036 113.131C53.9344 113.131 53.8839 112.503 53.7036 112.503C53.3573 112.503 52.9172 112.346 52.9172 112.039C52.9172 110.612 52.8667 109.242 52.8306 107.957L52.5276 102.584C52.2246 98.6885 51.734 95.8343 51.0847 94.0219C51.4835 93.5498 51.9874 93.1753 52.5568 92.9277C53.1263 92.6801 53.7459 92.5662 54.3673 92.5948C55.0529 92.5603 55.7378 92.6739 56.3745 92.9277C57.0112 93.1816 57.5843 93.5696 58.054 94.0647C57.1442 96.592 56.5412 99.2172 56.2575 101.885ZM58.7754 93.8078C58.6744 93.8078 58.5373 93.6865 58.3858 93.5438C57.8585 93.018 57.2264 92.6062 56.5297 92.3348C55.8329 92.0633 55.0867 91.938 54.3385 91.9669C53.6631 91.9469 52.9914 92.071 52.3689 92.3308C51.7464 92.5906 51.1879 92.98 50.7312 93.4725C50.5869 93.6295 50.4426 93.8507 50.3055 93.8507H50.2406C50.1317 93.8635 50.0212 93.8515 49.9177 93.8158C49.8141 93.7801 49.7202 93.7214 49.6429 93.6444C49.5657 93.5673 49.5073 93.4739 49.4721 93.3712C49.4369 93.2684 49.4258 93.1591 49.4398 93.0515C49.4325 92.2452 51.9721 90.8181 54.3745 90.8181C56.0581 90.8249 57.6966 91.3567 59.0568 92.3379C59.0902 92.3929 59.1409 92.4355 59.2011 92.4592C59.4424 92.6292 59.6078 92.8849 59.6628 93.1728C59.6556 93.5224 59.3165 93.8078 58.7754 93.8078ZM56.6111 83.1403C56.4571 83.9563 56.3966 84.7869 56.4307 85.6163C56.4307 86.6866 56.6111 86.7081 57.0511 85.6877C57.4119 84.3962 58.3065 83.6826 58.6239 82.6836C59.2267 83.4242 59.571 84.3379 59.6051 85.2881C59.6051 87.0934 58.9702 87.5572 57.9746 88.9771C59.5257 88.021 59.8504 87.9853 60.6945 86.4654C60.8808 86.6615 61.0223 86.8948 61.1095 87.1496C61.1966 87.4045 61.2273 87.6749 61.1995 87.9425C61.0051 89.3785 60.3443 90.7132 59.3165 91.7457C57.8606 90.7559 56.141 90.2147 54.3745 90.1902C52.6822 90.231 51.0402 90.7674 49.6562 91.7314C48.9622 91.2737 48.3827 90.6657 47.9614 89.9536C47.5402 89.2416 47.2883 88.444 47.2249 87.6214C47.2086 87.0894 47.3544 86.5648 47.6433 86.1158C48.3143 87.4644 49.6706 87.9639 50.9476 88.549C49.9881 87.2646 49.5047 86.7865 49.5047 85.0812C49.5047 84.5246 50.2262 82.6836 51.2795 82.1628C51.5504 82.0448 51.7827 81.8545 51.9504 81.6133C51.9937 82.3269 51.4454 82.862 51.4454 83.6255C51.4454 85.2025 51.8783 85.3594 52.7801 86.387C52.8269 85.2781 53.1226 84.1934 53.6459 83.2117C54.3673 82.0486 55.2836 81.071 54.9373 79.544C55.527 79.9281 55.9941 80.4702 56.2841 81.107C56.5741 81.7438 56.675 82.449 56.575 83.1403H56.6111Z" fill="#1C1D1C"/>
<path d="M55.2541 104.133L55.4272 102.342C55.7447 99.4875 56.2569 96.9259 56.6609 94.614C56.7691 94.0003 55.9972 93.9433 55.889 94.4998C55.4314 97.2978 55.1256 100.118 54.9727 102.948L54.9294 103.526L54.8934 104.054C54.8573 104.325 55.1892 104.375 55.2541 104.133Z" fill="#1C1D1C"/>
<path d="M53.8986 94.0218L54.0789 104.375C54.0733 104.405 54.0743 104.436 54.082 104.466C54.0897 104.495 54.1039 104.522 54.1235 104.546C54.1432 104.569 54.1678 104.588 54.1956 104.601C54.2234 104.614 54.2538 104.621 54.2846 104.621C54.3153 104.621 54.3457 104.614 54.3735 104.601C54.4014 104.588 54.426 104.569 54.4456 104.546C54.4652 104.522 54.4794 104.495 54.4871 104.466C54.4948 104.436 54.4959 104.405 54.4902 104.375L54.7932 94.0575C54.8073 93.9934 54.807 93.927 54.7924 93.863C54.7778 93.799 54.7492 93.7389 54.7086 93.687C54.668 93.6351 54.6165 93.5926 54.5575 93.5625C54.4986 93.5324 54.4337 93.5155 54.3674 93.5128C54.3011 93.5102 54.235 93.5219 54.1738 93.5472C54.1126 93.5725 54.0577 93.6108 54.013 93.6593C53.9684 93.7078 53.935 93.7654 53.9152 93.828C53.8954 93.8907 53.8897 93.9568 53.8986 94.0218Z" fill="#1C1D1C"/>
<path d="M53.6458 102.948C53.4925 100.123 53.1866 97.3074 52.7296 94.5142C52.6214 93.9504 51.8494 94.0147 51.9576 94.6283C52.3617 96.9402 52.8739 99.5161 53.1913 102.356L53.3573 104.147C53.4222 104.397 53.7469 104.34 53.7252 104.054V103.526L53.6458 102.948Z" fill="#1C1D1C"/>
<path d="M70.9029 69.5613C72.7715 69.2545 73.1105 67.6847 71.5883 66.9569C71.5643 66.9436 71.5361 66.9403 71.5097 66.9477C71.4833 66.955 71.461 66.9725 71.4476 66.9961C71.4342 67.0198 71.4308 67.0477 71.4383 67.0738C71.4457 67.0999 71.4633 67.122 71.4873 67.1353C71.6727 67.2211 71.8348 67.3494 71.9602 67.5094C72.0857 67.6695 72.1708 67.8567 72.2087 68.0557C72.1446 68.0168 72.0736 67.9902 71.9995 67.9773C71.9835 67.9731 71.9667 67.9726 71.9504 67.9758C71.9342 67.979 71.9189 67.9859 71.9058 67.9959C71.8926 68.0059 71.882 68.0187 71.8747 68.0334C71.8674 68.0482 71.8636 68.0643 71.8636 68.0807C71.8636 68.0971 71.8674 68.1133 71.8747 68.128C71.882 68.1427 71.8926 68.1555 71.9058 68.1655C71.9189 68.1755 71.9342 68.1824 71.9504 68.1856C71.9667 68.1889 71.9835 68.1884 71.9995 68.1842C72.0569 68.1842 72.1119 68.2067 72.1525 68.2469C72.1931 68.287 72.2159 68.3415 72.2159 68.3982C72.1316 68.6155 71.9948 68.809 71.8175 68.962C71.6402 69.115 71.4277 69.2227 71.1987 69.2759C71.2354 69.213 71.2547 69.1416 71.2547 69.069C71.2547 68.9963 71.2354 68.925 71.1987 68.8621C71.1482 68.7336 71.0327 68.805 71.0905 68.9334C71.1482 69.0618 71.0905 69.176 70.8812 69.3829C70.7297 69.4757 70.773 69.5827 70.9029 69.5613Z" fill="#1C1D1C"/>
<path d="M64.474 60.5066C64.2503 60.5066 63.9257 60.8848 64.0483 61.0275C64.171 61.1702 64.272 60.6636 64.474 60.5066Z" fill="#1C1D1C"/>
<path d="M67.613 77.6816C68.0243 77.5674 68.1469 77.6816 68.4211 77.8813C68.5726 77.9884 67.9377 77.6173 69.294 77.0322C67.9738 77.2106 67.1225 77.703 67.613 77.6816Z" fill="#1C1D1C"/>
<path d="M67.1223 76.1474C66.6489 76.1128 66.1732 76.171 65.7226 76.3186C65.5639 76.39 65.8453 76.5113 66.0184 76.4471C66.369 76.3062 66.7438 76.2335 67.1223 76.233C67.3098 76.2473 67.3171 76.1616 67.1223 76.1474Z" fill="#1C1D1C"/>
<path d="M68.5656 76.8825C68.0922 76.8479 67.6166 76.9061 67.166 77.0537C67.0073 77.1322 67.2886 77.2464 67.4618 77.1822C67.8124 77.0413 68.1872 76.9686 68.5656 76.9681C68.7388 76.9824 68.7388 76.8967 68.5656 76.8825Z" fill="#1C1D1C"/>
<path d="M63.0385 62.6613C63.76 62.5543 64.8782 61.6695 65.5852 61.3556C66.2923 61.0416 66.8406 61.1772 67.3095 60.3851C67.3095 60.4636 67.3095 60.5421 67.3095 60.6349C67.3095 61.5696 66.5304 62.062 65.8666 62.6685C65.7348 62.7923 65.5924 62.9045 65.441 63.0038C64.5716 63.8739 63.7572 64.7962 63.0024 65.7653C62.7284 66.2622 62.5568 66.8078 62.4974 67.3708C62.4835 67.8164 62.5247 68.2621 62.6201 68.698C62.7469 69.5341 63.1473 70.306 63.76 70.8957L64.7989 71.6449C65.2228 71.9302 65.6636 72.1899 66.1191 72.4227C66.1191 72.4227 66.3572 72.5582 66.6747 72.7081H66.7179C67.1312 72.9236 67.5813 73.0615 68.0454 73.1148H68.233C68.5113 73.6176 68.7269 74.1519 68.8751 74.706C68.8318 75.1127 68.8751 75.4196 68.7019 75.5551C68.0437 75.6797 67.373 75.7276 66.7035 75.6979C65.6574 75.6979 64.7123 76.0332 64.4886 76.811C64.3948 77.1464 65.0874 76.8681 65.3327 76.811C65.404 76.8094 65.4748 76.8225 65.5407 76.8496C65.6065 76.8766 65.6659 76.9169 65.7151 76.968C65.6072 77.0851 65.526 77.2238 65.477 77.3747C65.3832 77.7101 66.0758 77.4318 66.3211 77.3747C66.1547 77.5388 66.0459 77.7514 66.0109 77.9812C65.9985 78.2158 66.0786 78.4461 66.2346 78.6234C66.4726 78.9159 67.0715 78.181 67.5332 78.181C67.7785 78.181 68.0382 78.5877 68.1609 78.709C68.2835 78.8303 68.8029 79.2228 68.8823 78.8945C68.948 78.6169 69.071 78.3557 69.2436 78.1273C69.4161 77.899 69.6346 77.7083 69.8851 77.5673L70.0222 77.496C70.3829 77.2962 70.3252 77.1321 70.3252 76.7824C70.2619 76.3465 70.3014 75.9021 70.4407 75.4838C70.5372 75.3201 70.5681 75.1266 70.5272 74.9415C70.6499 74.6347 70.8158 74.5419 70.8519 74.1495C70.9962 74.2779 71.09 74.2494 71.1549 74.1495C71.9918 74.8131 72.7565 75.4838 73.3986 75.9975C73.8444 76.4906 74.4183 76.8534 75.058 77.0465C75.563 77.0465 77.0276 76.7182 77.0276 75.9476C76.9764 75.7104 76.8618 75.491 76.6957 75.3125C75.9337 74.5024 75.2636 73.6123 74.6973 72.6581C75.1734 72.701 75.6207 72.7224 76.0175 72.7224C76.2556 72.7224 78.0737 72.6153 77.5037 72.1515C76.6886 71.5839 75.9598 70.9039 75.3394 70.1322C75.5679 69.7167 75.6824 69.2493 75.6712 68.7764C75.6466 68.3362 75.474 67.9168 75.1806 67.5848C75.0809 67.2051 74.8819 66.8581 74.6035 66.5787C74.8055 66.2077 73.3048 65.4656 73.0163 65.3728C73.1245 64.9019 71.3064 64.7021 70.9818 64.7021C70.3509 64.653 69.7227 64.8247 69.207 65.1873C69.173 65.2081 69.1456 65.2377 69.1276 65.2729C68.8301 65.329 68.5521 65.4592 68.3196 65.6511C68.1897 65.7439 66.5664 66.4075 66.4221 66.4788C66.2961 66.5866 66.1636 66.6867 66.0253 66.7785L65.9243 66.8213C65.8838 66.4663 65.9385 66.107 66.0831 65.7795C66.4636 65.0414 66.9495 64.3614 67.526 63.7602C67.8651 63.3321 68.1969 62.8968 68.5072 62.4544C68.8559 61.9657 69.1012 61.4123 69.2286 60.8275C69.2789 60.44 69.2401 60.0463 69.1152 59.6757C68.9903 59.305 68.7824 58.9671 68.5072 58.6869C68.269 58.401 67.9708 58.1699 67.6331 58.0097C67.2954 57.8495 66.9265 57.764 66.552 57.7593C65.7007 57.7593 65.2822 58.2374 64.6113 58.6227C64.3054 58.7121 64.0225 58.8654 63.7816 59.0722C63.4858 59.3719 63.6085 59.9927 63.5724 60.4137C63.4137 60.6848 63.1828 60.9631 63.0024 61.22C62.6706 61.6767 62.2305 61.8479 62.2305 62.1476C62.2331 62.2774 62.2787 62.4027 62.3603 62.5044C62.5619 62.6312 62.801 62.6866 63.0385 62.6613ZM65.6069 76.6041C65.4129 76.5789 65.2165 76.5789 65.0225 76.6041C64.9143 76.6041 64.9143 76.5398 65.2317 76.2758C65.8242 76.0241 66.4627 75.8954 67.1075 75.8976C67.3456 75.8976 68.3845 75.8192 68.8102 75.7977C69.2358 75.7763 69.0987 74.756 69.106 74.4349C69.106 74.4349 68.5288 73.1933 68.5144 73.1576H68.5649C68.6298 73.1576 68.7164 73.1576 68.7597 73.1576C68.803 73.1576 69.243 74.2279 69.243 74.2565C69.243 74.285 69.2791 74.5062 69.3008 74.8202C69.3569 75.1915 69.3569 75.5691 69.3008 75.9405C69.1565 76.3971 68.6442 76.3329 68.334 76.3757C67.9279 76.397 67.5209 76.397 67.1147 76.3757C66.7511 76.4412 66.3973 76.5514 66.0614 76.704C65.9081 76.6793 65.7563 76.6459 65.6069 76.6041ZM71.1116 72.6367C71.6599 72.9079 71.1549 71.8518 71.1116 71.7234C71.5931 71.9334 72.087 72.1145 72.5906 72.2657C72.8792 72.5297 73.1894 72.8579 73.1894 73.1434C73.1894 73.3217 73.1894 73.4787 72.7349 73.4787C72.2091 73.513 71.6908 73.3413 71.292 73.0006C71.2687 72.8646 71.206 72.7382 71.1116 72.6367ZM75.7073 74.7417C76.0568 75.1073 76.3686 75.5065 76.638 75.9333C76.638 76.3472 75.361 76.6469 75.0869 76.6469C74.5602 76.6469 71.7609 74.1851 71.2631 73.7927C71.2703 73.6643 71.2703 73.5357 71.2631 73.4074C71.5616 73.6016 71.9032 73.7216 72.2587 73.757C72.9428 74.408 73.6655 75.0179 74.4231 75.5837C74.4446 75.5943 74.4691 75.5975 74.4927 75.5928C74.5163 75.5882 74.5376 75.5759 74.5533 75.5579C74.569 75.5399 74.5782 75.5172 74.5795 75.4934C74.5807 75.4697 74.5739 75.4462 74.5602 75.4267C73.9181 74.8987 73.2543 74.3778 72.6628 73.7855H72.7133C72.8476 73.8047 72.9846 73.7891 73.111 73.7403C73.2374 73.6916 73.349 73.6113 73.4347 73.5073C73.9614 74.1352 74.5674 74.7132 75.1374 75.2983C75.1577 75.3106 75.1816 75.316 75.2053 75.3135C75.2291 75.311 75.2513 75.3009 75.2686 75.2846C75.2859 75.2683 75.2973 75.2468 75.3009 75.2235C75.3046 75.2001 75.3003 75.1763 75.2889 75.1556C74.6526 74.5146 74.0597 73.8329 73.5141 73.1148C73.4494 72.8573 73.3342 72.6149 73.175 72.4013C73.5501 72.4869 73.8964 72.544 74.2788 72.6082C74.648 73.384 75.1292 74.1027 75.7073 74.7417ZM71.0467 64.9732C71.5741 64.9773 72.0957 65.0814 72.5834 65.2801C72.4896 65.3942 72.67 65.5798 72.8575 65.6226C73.4085 65.7318 73.9122 66.0058 74.3005 66.4075C74.2427 66.486 74.3005 66.5859 74.3654 66.6715C74.52 66.7936 74.6487 66.9447 74.744 67.1161C74.8393 67.2875 74.8995 67.4759 74.9209 67.6704C74.9209 67.8845 75.4259 68.1057 75.4259 68.755C75.4191 69.1201 75.3355 69.4797 75.1806 69.8111C75.0087 69.6069 74.8497 69.3924 74.7045 69.1689C75.0941 69.2046 75.0363 68.1128 74.3005 67.6348C74.351 67.4992 74.149 67.2066 74.0768 67.0925C73.9021 66.8782 73.6828 66.7035 73.4339 66.5804C73.1849 66.4573 72.9121 66.3886 72.6339 66.3789C72.6916 65.9651 71.4146 65.5726 71.1549 65.5441C70.8998 65.4755 70.6308 65.4755 70.3757 65.5441C70.4262 65.4228 70.1882 65.3015 69.8058 65.2658C70.1758 65.0363 70.6118 64.9335 71.0467 64.9732ZM65.0947 58.7868C65.1323 58.7409 65.176 58.7001 65.2245 58.6655C65.5907 58.3535 66.0484 58.1659 66.5304 58.1303C67.1664 58.1526 67.7686 58.4192 68.2091 58.8735C68.6496 59.3278 68.8937 59.9341 68.8895 60.5635C68.8612 60.6999 68.8443 60.8383 68.839 60.9774C68.8026 61.1269 68.7519 61.2726 68.6875 61.4126C68.5788 61.6205 68.4558 61.8207 68.3196 62.012C68.0454 62.433 67.7496 62.8326 67.4538 63.2393C66.9849 63.8744 66.4582 64.488 66.0109 65.1516C65.7843 65.4675 65.636 65.8317 65.578 66.2148C65.5659 66.5697 65.5999 66.9246 65.679 67.2709C65.686 67.3203 65.7038 67.3676 65.7313 67.4095C65.7587 67.4514 65.795 67.4869 65.8378 67.5135C65.8559 67.5256 65.8768 67.5332 65.8986 67.5357C65.9203 67.5382 65.9424 67.5354 65.9629 67.5277C65.9834 67.5201 66.0017 67.5076 66.0164 67.4915C66.031 67.4753 66.0415 67.456 66.047 67.435C66.0652 67.4471 66.086 67.4547 66.1078 67.4572C66.1296 67.4597 66.1516 67.4569 66.1721 67.4493C66.1926 67.4416 66.2109 67.4291 66.2256 67.413C66.2402 67.3968 66.2507 67.3775 66.2562 67.3565L66.3067 67.2209C66.9836 66.922 67.6371 66.5738 68.2619 66.1791C68.4776 65.9445 68.7557 65.7745 69.0644 65.6887C69.3731 65.6029 69.7 65.6047 70.0078 65.6939C69.9284 65.8794 69.7986 66.0721 70.3108 65.9008C70.6348 65.8136 70.9747 65.8004 71.3047 65.8622C71.6347 65.924 71.9461 66.0592 72.2154 66.2576C71.3641 66.7571 71.8691 66.6429 72.2804 66.6001C72.5804 66.5836 72.88 66.6399 73.1529 66.7643C73.4258 66.8887 73.6638 67.0773 73.8459 67.3137H73.5934C73.3048 67.3137 72.67 67.3636 73.5501 67.6276C74.2139 67.8274 74.5674 68.1343 74.6107 68.7265L74.3365 68.6123C74.0985 68.5196 73.6151 68.1485 74.084 68.9192C74.286 69.2331 74.5025 69.5399 74.7261 69.8396C74.7305 70.0084 74.7086 70.1769 74.6612 70.3391C74.5747 70.4988 74.4439 70.6307 74.2841 70.7192C74.1243 70.8077 73.9422 70.8491 73.7594 70.8386C73.8404 70.664 73.8823 70.4741 73.8823 70.282C73.8823 70.0899 73.8404 69.9001 73.7594 69.7255C73.7569 69.7094 73.7509 69.6942 73.7416 69.6808C73.7323 69.6674 73.7201 69.6563 73.7059 69.6483C73.6916 69.6403 73.6758 69.6356 73.6594 69.6345C73.6431 69.6335 73.6267 69.6361 73.6115 69.6422C73.5963 69.6483 73.5828 69.6578 73.5718 69.6698C73.5609 69.6819 73.5529 69.6962 73.5483 69.7118C73.5438 69.7274 73.5429 69.7438 73.5457 69.7597C73.5486 69.7757 73.555 69.7908 73.5646 69.804C73.6196 69.9368 73.6412 70.0809 73.6273 70.2238C73.6135 70.3668 73.5647 70.5042 73.4852 70.6243C73.4056 70.7444 73.2977 70.8436 73.1708 70.9132C73.0439 70.9829 72.9017 71.021 72.7565 71.0241C72.5961 71.0236 72.4363 71.0044 72.2804 70.967C72.4712 70.7291 72.5617 70.4274 72.5329 70.125C72.5329 69.9895 72.367 69.9895 72.3309 70.125C72.2931 70.291 72.2027 70.4407 72.073 70.5523C71.9432 70.664 71.7808 70.7318 71.6094 70.7458C71.5863 70.7519 71.5659 70.7653 71.5514 70.784C71.5368 70.8027 71.5289 70.8257 71.5289 70.8493C71.5289 70.8729 71.5368 70.8959 71.5514 70.9146C71.5659 70.9333 71.5863 70.9467 71.6094 70.9528C71.8101 70.9401 72.004 70.8762 72.1722 70.7672L72.0351 70.967C71.8547 71.2096 72.7565 71.231 72.7565 71.231C72.8452 71.2419 72.9348 71.2419 73.0235 71.231C73.8158 71.4449 74.628 71.5788 75.4476 71.6306C75.5847 71.6306 75.7289 71.4808 75.5847 71.4737C74.8358 71.4102 74.0944 71.2789 73.3698 71.0812L73.4852 70.9884C73.4851 71.0019 73.4879 71.0153 73.4934 71.0276C73.499 71.0399 73.5073 71.0508 73.5176 71.0596C73.5279 71.0685 73.54 71.075 73.5531 71.0787C73.5662 71.0824 73.58 71.0833 73.5934 71.0812C74.5602 71.0812 74.755 70.6888 74.8921 70.439C74.9176 70.338 74.9369 70.2355 74.9498 70.1322C75.5614 70.8894 76.2398 71.5915 76.9771 72.23C77.0997 72.3228 76.371 72.3727 76.0103 72.3727C73.5856 72.3926 71.2142 71.6697 69.2214 70.3034C68.0743 69.44 68.2258 69.8254 69.0771 70.4961L70.2603 71.3809C70.6643 71.6877 70.9313 71.9945 70.9818 72.23C71.0323 72.4655 70.116 71.6806 70.8519 72.6296C71.0051 72.9944 71.0255 73.4004 70.9096 73.7784C70.8097 73.7149 70.7316 73.6228 70.686 73.5144C70.4767 73.0149 70.318 73.1219 70.4984 73.6714C70.5925 73.9321 70.5925 74.217 70.4984 74.4777V74.5348C70.4201 74.7668 70.3645 75.0058 70.3324 75.2483C70.3021 75.3555 70.2585 75.4586 70.2026 75.5551C70.175 75.6041 70.1556 75.6571 70.1449 75.7121C70.0871 76.1902 70.0511 76.6611 70.0511 76.8395C70.0696 76.9422 70.0526 77.048 70.0029 77.1399C69.9531 77.2318 69.8735 77.3045 69.7769 77.3461L69.6398 77.4175C69.1053 77.6796 68.6923 78.134 68.4855 78.6876L68.4206 78.6305C68.1609 78.3879 67.9877 77.9883 67.4538 77.9883C67.0743 78.0277 66.7127 78.1683 66.4077 78.3951C66.3487 78.2963 66.3282 78.1795 66.35 78.0668C66.5809 77.2819 67.324 77.3533 66.8045 77.2177C66.5168 77.1568 66.2193 77.1568 65.9315 77.2177C66.1413 76.9914 66.4024 76.8176 66.6935 76.7109C66.9846 76.6042 67.2971 76.5676 67.6053 76.6041C67.8939 76.6041 68.1825 76.6041 68.4278 76.6397C69.1493 76.6397 69.5966 76.3829 69.7048 75.7407C69.7048 75.6479 69.5821 75.4196 69.5677 75.2555V75.1912C69.5677 74.9843 69.5677 74.6347 69.5677 74.3849C69.5677 74.2422 69.5677 74.1352 69.5677 74.0995C69.5028 73.914 69.4306 73.7356 69.409 73.6571V73.6072C69.1348 72.8365 68.5937 72.3727 68.3629 71.5807C68.3654 71.324 68.3087 71.0702 68.1969 70.8386C68.1889 70.8213 68.1774 70.8057 68.1633 70.7927C68.1492 70.7797 68.1326 70.7696 68.1145 70.763C68.0964 70.7564 68.0772 70.7534 68.0579 70.7541C68.0386 70.7548 68.0197 70.7593 68.0021 70.7672C67.9846 70.7752 67.9688 70.7865 67.9557 70.8005C67.9426 70.8145 67.9324 70.8309 67.9257 70.8488C67.919 70.8667 67.9159 70.8857 67.9167 70.9048C67.9174 70.9238 67.9219 70.9426 67.93 70.9599C67.9805 71.0598 67.93 71.2096 67.829 71.3666H67.7496C67 71.2813 66.3074 70.9287 65.8017 70.3748C65.773 70.3492 65.7352 70.336 65.6966 70.338C65.6581 70.34 65.6219 70.3571 65.5961 70.3855C65.5702 70.4139 65.5569 70.4513 65.5589 70.4894C65.5609 70.5275 65.5782 70.5633 65.6069 70.5889C66.2744 71.1578 67.0294 71.6179 67.8434 71.9517C67.9444 72.0159 68.435 72.5226 68.3124 72.7794C67.2518 72.4644 66.269 71.9347 65.4265 71.2239C65.4265 71.3452 65.3688 71.4665 65.34 71.5878C64.2939 70.9491 63.4881 69.9893 63.0457 68.8549C62.9303 68.3878 62.8722 67.9087 62.8726 67.4278C62.9405 66.9369 63.0739 66.457 63.2694 66.0007C63.9782 65.0598 64.7571 64.1725 65.5997 63.3464L66.0037 62.9967C66.7252 62.3831 67.6414 61.7837 67.6414 60.6063C67.641 60.2558 67.5699 59.9089 67.4322 59.586C67.2374 59.0651 67.1941 58.8082 67.0354 59.6216C66.8767 60.4351 66.4438 60.7134 65.8522 60.7348L66.047 60.6135C66.047 60.6135 65.8522 60.6634 65.5564 60.2852C65.5564 60.1996 65.5203 60.0997 65.5564 60.0712C65.7296 59.9876 65.888 59.8767 66.0253 59.7429C66.0566 59.727 66.0844 59.7051 66.1071 59.6786C66.1298 59.652 66.147 59.6213 66.1578 59.5882C66.1685 59.5551 66.1725 59.5202 66.1696 59.4855C66.1667 59.4508 66.1569 59.4171 66.1408 59.3862C66.1247 59.3552 66.1026 59.3278 66.0757 59.3053C66.0489 59.2828 66.0178 59.2658 65.9843 59.2552C65.9508 59.2446 65.9155 59.2406 65.8805 59.2435C65.8454 59.2464 65.8113 59.2561 65.78 59.272H65.7223C65.5554 59.3377 65.3843 59.3926 65.2101 59.4361C65.1834 59.4323 65.1581 59.4217 65.1366 59.4055C65.1151 59.3892 65.0982 59.3679 65.0874 59.3434C65.0354 59.1723 65.0135 58.9937 65.0225 58.8153L65.0947 58.7868ZM65.679 59.5574C65.679 59.5433 65.6833 59.5295 65.6912 59.5178C65.6991 59.506 65.7104 59.4969 65.7236 59.4915C65.7368 59.4861 65.7513 59.4847 65.7653 59.4874C65.7793 59.4902 65.7921 59.497 65.8022 59.507C65.8123 59.5169 65.8192 59.5297 65.8219 59.5435C65.8247 59.5573 65.8233 59.5717 65.8178 59.5847C65.8124 59.5978 65.8031 59.6089 65.7913 59.6167C65.7794 59.6246 65.7655 59.6288 65.7512 59.6288C65.732 59.6288 65.7137 59.6213 65.7002 59.6079C65.6866 59.5945 65.679 59.5763 65.679 59.5574ZM62.8726 61.7908C63.1695 61.516 63.4378 61.2124 63.6734 60.8846C63.9908 60.4279 63.9403 60.2353 64.1207 60.2353C64.3603 60.2381 64.5921 60.1515 64.77 59.9927C64.8796 59.9801 64.9905 60.0023 65.0865 60.0562C65.1825 60.1101 65.2586 60.1928 65.3039 60.2924C65.3148 60.3441 65.3148 60.3976 65.3039 60.4493C65.3073 60.4754 65.3073 60.5018 65.3039 60.5278C65.2657 60.4722 65.2342 60.4123 65.2101 60.3495C65.1019 60.0284 64.7844 60.7062 63.6157 61.6838C63.5074 61.7765 63.6157 61.8836 63.7239 61.7837L65.0658 60.6848C65.099 60.7528 65.1456 60.8134 65.2029 60.8632C65.2029 60.9631 65.2029 61.0416 65.1596 61.1058C64.3227 61.5625 63.3559 62.3831 62.9375 62.3831C62.6778 62.3831 62.5551 62.3331 62.5551 62.119C62.5551 61.905 62.6706 61.9549 62.8365 61.7908H62.8726Z" fill="#1C1D1C"/>
<path d="M37.759 68.9407C37.8167 68.8123 37.7013 68.7409 37.6508 68.8694C37.6161 68.9329 37.5979 69.0041 37.5979 69.0763C37.5979 69.1486 37.6161 69.2197 37.6508 69.2832C37.4217 69.2301 37.2093 69.1223 37.032 68.9693C36.8547 68.8163 36.7179 68.6228 36.6335 68.4056C36.6335 68.3775 36.6391 68.3496 36.65 68.3237C36.6609 68.2977 36.6768 68.2741 36.6969 68.2542C36.717 68.2343 36.7409 68.2186 36.7671 68.2078C36.7934 68.197 36.8216 68.1915 36.85 68.1915C36.873 68.183 36.8924 68.167 36.905 68.1461C36.9176 68.1252 36.9227 68.1007 36.9193 68.0766C36.916 68.0525 36.9044 68.0303 36.8865 68.0135C36.8687 67.9968 36.8456 67.9866 36.8211 67.9846C36.7462 67.9945 36.6746 68.0213 36.6119 68.0631C36.6509 67.8645 36.7364 67.6777 36.8618 67.5178C36.9871 67.358 37.1486 67.2294 37.3334 67.1426C37.3452 67.136 37.3556 67.1272 37.364 67.1167C37.3724 67.1061 37.3786 67.0941 37.3823 67.0811C37.386 67.0682 37.3871 67.0547 37.3855 67.0414C37.3839 67.0281 37.3797 67.0152 37.373 67.0035C37.3664 66.9917 37.3575 66.9814 37.3468 66.9731C37.3362 66.9648 37.324 66.9587 37.3109 66.955C37.2978 66.9514 37.2842 66.9503 37.2707 66.9519C37.2572 66.9535 37.2442 66.9576 37.2323 66.9642C35.7101 67.6778 36.0492 69.2618 37.9538 69.5687C38.0837 69.5687 38.1414 69.4759 38.0404 69.3903C37.7518 69.1833 37.7229 69.0406 37.759 68.9407Z" fill="#1C1D1C"/>
<path d="M44.7577 61.0275C44.8876 60.8776 44.5629 60.5066 44.332 60.5066C44.5052 60.6636 44.6206 61.1488 44.7577 61.0275Z" fill="#1C1D1C"/>
<path d="M40.3561 77.8813C40.4552 77.7763 40.5826 77.7016 40.7233 77.6662C40.864 77.6308 41.012 77.6361 41.1497 77.6815C41.6476 77.6815 40.789 77.2034 39.4688 77.0393C40.8467 77.6173 40.2119 77.9741 40.3561 77.8813Z" fill="#1C1D1C"/>
<path d="M42.759 76.447C42.9321 76.5113 43.2135 76.39 43.0547 76.3186C42.6039 76.1721 42.1285 76.1139 41.6551 76.1474C41.4603 76.1474 41.4675 76.2473 41.6551 76.233C42.0336 76.2335 42.4083 76.3062 42.759 76.447Z" fill="#1C1D1C"/>
<path d="M41.3371 77.1822C41.5102 77.2464 41.7916 77.1251 41.6329 77.0537C41.182 76.9072 40.7066 76.849 40.2332 76.8825C40.0385 76.8825 40.0457 76.9824 40.2332 76.9681C40.6113 76.9728 40.9853 77.0453 41.3371 77.1822Z" fill="#1C1D1C"/>
<path d="M35.3779 76.0691C36.02 75.5553 36.7847 74.8917 37.6216 74.221C37.6866 74.3423 37.7803 74.3709 37.9246 74.221C37.9679 74.6135 38.1266 74.6991 38.2493 75.013C38.2268 75.1046 38.2229 75.1997 38.2377 75.2928C38.2526 75.3858 38.286 75.4751 38.3359 75.5553C38.4751 75.9736 38.5146 76.4181 38.4513 76.854C38.4513 77.1751 38.3936 77.3392 38.7543 77.5675L38.8914 77.6389C39.1412 77.7809 39.359 77.9718 39.5314 78.2001C39.7039 78.4283 39.8273 78.689 39.8942 78.9661C39.988 79.2943 40.5363 78.8733 40.6157 78.7806C40.695 78.6878 41.0053 78.2525 41.2433 78.2525C41.7051 78.2525 42.3039 78.9661 42.542 78.6949C42.6979 78.5177 42.7781 78.2874 42.7656 78.0528C42.7273 77.824 42.619 77.6123 42.4554 77.4462C42.7007 77.4462 43.3933 77.7602 43.2995 77.4462C43.2505 77.2954 43.1693 77.1567 43.0614 77.0395C43.1106 76.9885 43.17 76.9482 43.2359 76.9211C43.3017 76.8941 43.3725 76.8809 43.4438 76.8825C43.6891 76.8825 44.3817 77.1965 44.2879 76.8825C44.0642 76.0976 43.1264 75.7694 42.073 75.7694C41.4035 75.7991 40.7328 75.7512 40.0746 75.6267C39.8942 75.5054 39.9447 75.1843 39.9014 74.7776C40.0496 74.2234 40.2652 73.6891 40.5435 73.1864H40.7311C41.1952 73.1331 41.6453 72.9952 42.0586 72.7796H42.1019C42.4193 72.6298 42.6574 72.4942 42.6574 72.4942C43.1144 72.2641 43.5555 72.0043 43.9777 71.7165L45.0166 70.9672C45.6448 70.3599 46.0465 69.5601 46.1565 68.6982C46.2491 68.262 46.2879 67.8163 46.2719 67.371C46.211 66.8083 46.0395 66.2629 45.7669 65.7655C45.008 64.791 44.1887 63.864 43.3139 62.9898C43.1608 62.8927 43.0182 62.7803 42.8883 62.6544C42.2245 62.055 41.4454 61.5627 41.4454 60.6208C41.4454 60.528 41.4454 60.4495 41.4454 60.3711C41.9143 61.1631 42.4987 61.0418 43.1696 61.3415C43.8406 61.6412 45.0238 62.5402 45.7164 62.6473C45.827 62.6579 45.9387 62.6456 46.0443 62.6112C46.1498 62.5768 46.247 62.5211 46.3296 62.4475C46.4155 62.3482 46.4617 62.2213 46.4595 62.0907C46.4595 61.791 46.0266 61.6198 45.6875 61.1631C45.4999 60.9062 45.2763 60.6279 45.1176 60.3568C45.0815 59.9358 45.2041 59.315 44.9084 59.0153C44.6657 58.8111 44.3833 58.6581 44.0787 58.5658C43.4149 58.1805 42.9893 57.7024 42.138 57.7024C41.7637 57.7086 41.3953 57.7946 41.0578 57.9547C40.7204 58.1148 40.4219 58.3452 40.1828 58.63C39.9075 58.9102 39.6997 59.2482 39.5748 59.6188C39.4498 59.9894 39.4111 60.3831 39.4613 60.7706C39.5965 61.3529 39.8412 61.9048 40.1828 62.3975C40.493 62.8471 40.8321 63.2752 41.164 63.7033C41.7404 64.3045 42.2264 64.9846 42.6069 65.7227C42.7514 66.0501 42.8062 66.4094 42.7656 66.7644L42.6646 66.7216C42.5263 66.6298 42.3938 66.5297 42.2678 66.4219C42.1235 66.3434 40.5002 65.7084 40.3704 65.5942C40.1388 65.4009 39.8603 65.2706 39.5623 65.216C39.5482 65.1806 39.5229 65.1506 39.4902 65.1304C38.9739 64.769 38.3461 64.5973 37.7154 64.6452C37.3908 64.6452 35.551 64.8521 35.6809 65.3159C35.3923 65.4087 33.8917 66.1508 34.0937 66.5218C33.819 66.804 33.6205 67.15 33.5165 67.5279C33.229 67.855 33.0568 68.2658 33.0259 68.6982C33.012 69.1713 33.1266 69.6395 33.3578 70.0539C32.7504 70.8249 32.0336 71.505 31.2295 72.0732C30.6596 72.5442 32.4704 72.6441 32.7157 72.6441C33.1197 72.6441 33.567 72.6441 34.036 72.5799C33.4697 73.534 32.7995 74.4241 32.0375 75.2342C31.869 75.4111 31.754 75.6311 31.7057 75.8693C31.7057 76.6399 33.1486 76.9682 33.6753 76.9682C34.2019 76.9682 34.7069 76.59 35.3779 76.0691ZM37.6866 72.6369C37.6047 72.7341 37.5544 72.8535 37.5423 72.9794C37.1416 73.3167 36.6246 73.488 36.0994 73.4575C35.6376 73.4575 35.6448 73.3005 35.6448 73.1221C35.6448 72.9438 35.9551 72.5156 36.2436 72.2445C36.7468 72.0921 37.2406 71.911 37.7226 71.7022C37.6216 71.8449 37.1166 72.9081 37.6721 72.6369H37.6866ZM39.7066 74.4422C39.7066 74.7562 39.5696 75.7837 40.0024 75.8051C40.4353 75.8265 41.4454 75.9121 41.7051 75.905C42.3498 75.9041 42.9879 76.0328 43.5809 76.2832C43.8983 76.5472 43.8983 76.6114 43.7901 76.6114C43.5961 76.5863 43.3997 76.5863 43.2057 76.6114L42.7584 76.7327C42.4229 76.5793 42.0689 76.4689 41.7051 76.4045C41.299 76.4294 40.8918 76.4294 40.4858 76.4045C40.1756 76.3616 39.6634 76.4045 39.5191 75.9692C39.4628 75.5978 39.4628 75.2203 39.5191 74.8489C39.5191 74.535 39.5768 74.2852 39.5768 74.2852C39.5768 74.2852 40.0313 73.272 40.0602 73.1864C40.1247 73.176 40.1904 73.176 40.2549 73.1864H40.3271C40.3271 73.1864 39.7066 74.4065 39.7066 74.4422ZM44.7568 60.2355C44.9372 60.2355 44.8867 60.421 45.2042 60.8848C45.4317 61.2188 45.7008 61.5233 46.005 61.791C46.1709 61.9551 46.3008 62.0051 46.3008 62.1121C46.3008 62.3262 46.1781 62.3761 45.9184 62.3761C45.4999 62.3761 44.5404 61.5555 43.6963 61.0989C43.6963 61.0347 43.6963 60.9562 43.653 60.8563C43.7103 60.8065 43.7569 60.7458 43.7901 60.6779L45.132 61.7767C45.2402 61.8695 45.3557 61.7767 45.2402 61.6768C44.0787 60.6993 43.754 60.0143 43.6458 60.3425C43.6232 60.4061 43.5916 60.4661 43.552 60.5209C43.5486 60.4948 43.5486 60.4685 43.552 60.4424C43.5493 60.3878 43.5618 60.3335 43.5881 60.2854C43.6296 60.2011 43.6927 60.129 43.7712 60.0764C43.8497 60.0238 43.9408 59.9926 44.0354 59.9857C44.2132 60.1501 44.4486 60.2396 44.6919 60.2355H44.7568ZM33.935 67.6706C33.9813 67.2787 34.1807 66.9203 34.4905 66.6717C34.533 66.6439 34.5633 66.6012 34.5753 66.5523C34.5874 66.5033 34.5803 66.4517 34.5554 66.4077C34.9448 66.0074 35.4481 65.7337 35.9983 65.6228C36.1859 65.58 36.3663 65.3944 36.2725 65.2803C36.7599 65.081 37.2818 64.9768 37.8092 64.9734C38.2403 64.9358 38.6719 65.0412 39.0357 65.2731C38.6533 65.3088 38.4224 65.4301 38.4657 65.5514C38.2102 65.4858 37.9421 65.4858 37.6866 65.5514C37.434 65.5871 36.1571 65.9724 36.2076 66.3863C35.9298 66.3977 35.6576 66.4672 35.4089 66.5902C35.1602 66.7132 34.9406 66.8869 34.7647 67.0998C34.6925 67.214 34.4905 67.5065 34.541 67.6421C33.8195 68.1202 33.7474 69.2119 34.137 69.1762C33.9893 69.3981 33.8304 69.6124 33.6608 69.8184C33.5059 69.487 33.4224 69.1274 33.4155 68.7624C33.3795 68.1059 33.87 67.8918 33.8845 67.6706H33.935ZM32.7879 72.3444C32.4271 72.3444 31.6985 72.2944 31.8211 72.2017C32.5594 71.572 33.2379 70.877 33.8484 70.1252C33.862 70.2285 33.8812 70.3309 33.9061 70.4321C34.036 70.6818 34.238 71.0743 35.2047 71.0743C35.2182 71.0763 35.232 71.0755 35.2451 71.0718C35.2582 71.068 35.2703 71.0615 35.2806 71.0527C35.2909 71.0439 35.2991 71.0329 35.3047 71.0206C35.3103 71.0083 35.3131 70.995 35.313 70.9815L35.4284 71.0743C34.7048 71.2761 33.963 71.4075 33.2135 71.4667C33.0764 71.4667 33.2135 71.638 33.3506 71.6237C34.1702 71.5719 34.9824 71.438 35.7747 71.2241C35.8633 71.2354 35.953 71.2354 36.0416 71.2241C36.0416 71.2241 36.9579 71.2241 36.7631 70.9601C36.7118 70.8974 36.6659 70.8306 36.626 70.7603C36.769 70.856 36.9316 70.9193 37.1022 70.9458C37.1272 70.9452 37.1513 70.936 37.1702 70.9198C37.1892 70.9036 37.2019 70.8814 37.2061 70.857C37.2104 70.8326 37.2059 70.8075 37.1936 70.7859C37.1812 70.7644 37.1616 70.7478 37.1383 70.7389C36.9668 70.7248 36.8045 70.657 36.6747 70.5454C36.5449 70.4337 36.4546 70.2841 36.4168 70.1181C36.3807 69.9897 36.2364 69.9897 36.2148 70.1181C36.1982 70.4216 36.2987 70.72 36.4962 70.953C36.3402 70.9899 36.1804 71.0091 36.02 71.01C35.8749 71.0069 35.7327 70.9688 35.6057 70.8992C35.4788 70.8295 35.3709 70.7304 35.2914 70.6103C35.2118 70.4901 35.163 70.3527 35.1492 70.2098C35.1354 70.0668 35.1569 69.9227 35.212 69.7899C35.2215 69.7767 35.228 69.7616 35.2308 69.7457C35.2336 69.7297 35.2327 69.7133 35.2282 69.6977C35.2237 69.6822 35.2156 69.6678 35.2047 69.6558C35.1938 69.6437 35.1802 69.6343 35.165 69.6282C35.1498 69.622 35.1335 69.6194 35.1171 69.6205C35.1008 69.6215 35.0849 69.6262 35.0706 69.6343C35.0564 69.6423 35.0442 69.6534 35.0349 69.6667C35.0257 69.6801 35.0196 69.6954 35.0172 69.7114C34.938 69.8865 34.897 70.0761 34.897 70.268C34.897 70.4598 34.938 70.6494 35.0172 70.8245C34.8343 70.8351 34.6522 70.7936 34.4924 70.7051C34.3326 70.6166 34.2018 70.4847 34.1153 70.325C34.0716 70.1621 34.0498 69.9941 34.0504 69.8256C34.2741 69.5259 34.4905 69.219 34.6925 68.9051C35.1759 68.1345 34.6925 68.5055 34.44 68.5983L34.1875 68.6982C34.238 68.0988 34.5843 67.7919 35.248 67.5993C36.1282 67.3424 35.4933 67.2711 35.2047 67.2853H34.9522C35.1344 67.049 35.3724 66.8604 35.6453 66.736C35.9182 66.6116 36.2178 66.5552 36.5178 66.5718C36.929 66.6075 37.4413 66.7288 36.5827 66.2293C36.8526 66.0318 37.164 65.8972 37.4938 65.8354C37.8236 65.7736 38.1632 65.7863 38.4874 65.8725C38.9996 66.0438 38.8697 65.8725 38.7904 65.6656C39.0908 65.5847 39.4079 65.5872 39.707 65.6728C40.006 65.7584 40.2755 65.9238 40.4858 66.1508C41.1137 66.54 41.7669 66.8881 42.441 67.1926L42.4915 67.3281C42.497 67.3491 42.5075 67.3685 42.5221 67.3846C42.5367 67.4008 42.5551 67.4132 42.5756 67.4209C42.596 67.4286 42.6181 67.4313 42.6399 67.4288C42.6617 67.4263 42.6825 67.4187 42.7007 67.4066C42.7062 67.4276 42.7167 67.447 42.7313 67.4631C42.746 67.4793 42.7643 67.4917 42.7848 67.4994C42.8053 67.5071 42.8273 67.5098 42.8491 67.5073C42.8709 67.5048 42.8917 67.4972 42.9099 67.4851C42.9548 67.4647 42.9948 67.4351 43.0271 67.3982C43.0595 67.3612 43.0835 67.3179 43.0975 67.2711C43.164 66.9256 43.1858 66.5731 43.1624 66.2221C43.1034 65.8394 42.9552 65.4754 42.7296 65.159C42.3111 64.4882 41.7772 63.8817 41.2866 63.2467C40.9908 62.8471 40.695 62.4403 40.4209 62.0194C40.2872 61.8264 40.1644 61.6263 40.0529 61.42C39.9843 61.2817 39.9334 61.1355 39.9014 60.9847C39.8962 60.8456 39.8793 60.7072 39.8509 60.5709C39.8468 59.9414 40.0909 59.3352 40.5314 58.8808C40.9719 58.4265 41.5741 58.1599 42.2101 58.1377C42.6918 58.1742 43.1492 58.3617 43.5159 58.6728C43.566 58.7055 43.6099 58.7466 43.6458 58.7941V58.8655C43.6556 59.0439 43.6336 59.2226 43.5809 59.3935C43.5809 59.4434 43.5159 59.4863 43.4582 59.4863C43.2843 59.4417 43.1133 59.3869 42.946 59.3221H42.8883C42.8344 59.3121 42.7789 59.3161 42.7271 59.3336C42.6752 59.3511 42.6289 59.3816 42.5925 59.422C42.5735 59.4861 42.5767 59.5545 42.6015 59.6166C42.6264 59.6786 42.6714 59.7307 42.7296 59.7645C42.8664 59.8989 43.0249 60.0098 43.1985 60.0928C43.2706 60.0928 43.2562 60.2283 43.2346 60.3068C42.9388 60.685 42.744 60.6351 42.744 60.6351L42.9388 60.7564C42.3544 60.7564 41.9143 60.4567 41.7556 59.6432C41.5969 58.8298 41.5536 59.0867 41.3588 59.6076C41.2218 59.9307 41.1507 60.2775 41.1496 60.6279C41.1496 61.7982 42.073 62.4047 42.7873 63.0183L43.1913 63.368C44.0206 64.1941 44.7851 65.0815 45.4783 66.0224C45.6737 66.4786 45.8072 66.9585 45.8751 67.4494C45.8716 67.9301 45.8135 68.4087 45.702 68.8765C45.2577 70.0098 44.4523 70.9692 43.4077 71.6094C43.372 71.4898 43.3431 71.3683 43.3211 71.2455C42.4786 71.9563 41.4959 72.486 40.4353 72.801C40.3127 72.5442 40.796 72.0376 40.9043 71.9733C41.7187 71.6415 42.472 71.1786 43.1336 70.6033C43.1623 70.5778 43.1795 70.542 43.1816 70.5039C43.1836 70.4657 43.1702 70.4284 43.1444 70.4C43.1186 70.3716 43.0824 70.3545 43.0438 70.3525C43.0053 70.3505 42.9675 70.3637 42.9388 70.3893C42.4364 70.9475 41.7421 71.301 40.9908 71.3811H40.9115C40.8465 71.217 40.76 71.0743 40.8105 70.9744C40.8169 70.9448 40.8136 70.914 40.8012 70.8864C40.7888 70.8588 40.7679 70.8358 40.7414 70.8208C40.7149 70.8057 40.6843 70.7993 40.6539 70.8026C40.6236 70.8058 40.595 70.8185 40.5724 70.8388C40.4804 71.0848 40.4482 71.3488 40.4786 71.6094C40.2477 72.4015 39.7066 72.8653 39.4325 73.6359V73.6858C39.4325 73.7572 39.3387 73.9427 39.2738 74.1282C39.2738 74.1639 39.2738 74.271 39.2738 74.4137C39.2738 74.5564 39.2738 75.013 39.2377 75.22V75.2628C39.2377 75.4269 39.0862 75.6624 39.1006 75.748C39.216 76.3973 39.685 76.6613 40.3776 76.6471C40.6229 76.6471 40.9115 76.6471 41.2001 76.6471C41.5083 76.6094 41.8213 76.6455 42.1125 76.7523C42.4038 76.859 42.6649 77.0334 42.8738 77.2607C42.5858 77.2033 42.289 77.2033 42.0009 77.2607C41.4886 77.382 42.2245 77.3249 42.4554 78.1098C42.4772 78.2226 42.4567 78.3393 42.3977 78.4381C42.0873 78.1874 41.7127 78.0268 41.3155 77.9743C40.7816 77.9743 40.594 78.3739 40.3487 78.6165L40.2838 78.6878C40.0954 78.1558 39.7152 77.7112 39.216 77.4391L39.079 77.3678C38.9824 77.3261 38.9028 77.2534 38.853 77.1615C38.8033 77.0696 38.7863 76.9638 38.8048 76.8611C38.8048 76.6827 38.7687 76.2118 38.711 75.7337C38.7016 75.6784 38.682 75.6252 38.6533 75.5767C38.5986 75.4796 38.555 75.3767 38.5235 75.2699C38.4847 75.0286 38.4293 74.7902 38.3575 74.5564V74.4993C38.2597 74.2392 38.2597 73.953 38.3575 73.693C38.5379 73.1507 38.3575 73.0365 38.1699 73.536C38.1242 73.6444 38.0462 73.7365 37.9463 73.8C37.8304 73.422 37.8508 73.016 38.004 72.6512C38.7255 71.7022 37.8741 72.4585 37.8741 72.2516C37.8741 72.0447 38.1483 71.7093 38.5595 71.4025L39.7066 70.4749C40.5507 69.797 40.7023 69.4117 39.5623 70.2822C37.5726 71.6428 35.2068 72.3629 32.7879 72.3444ZM43.1336 59.5576C43.1336 59.5717 43.1293 59.5855 43.1214 59.5973C43.1135 59.609 43.1022 59.6181 43.089 59.6235C43.0758 59.6289 43.0613 59.6304 43.0473 59.6276C43.0334 59.6248 43.0205 59.618 43.0104 59.6081C43.0003 59.5981 42.9934 59.5854 42.9907 59.5715C42.9879 59.5577 42.9893 59.5433 42.9948 59.5303C43.0002 59.5173 43.0095 59.5061 43.0213 59.4983C43.0332 59.4904 43.0472 59.4863 43.0614 59.4863C43.0806 59.4863 43.0989 59.4938 43.1124 59.5072C43.126 59.5205 43.1336 59.5387 43.1336 59.5576ZM32.1458 75.9692C32.4105 75.5392 32.7226 75.1395 33.0764 74.7776C33.6596 74.1369 34.1457 73.4158 34.5194 72.6369C34.8801 72.5799 35.2408 72.5156 35.6232 72.43C35.464 72.6436 35.3488 72.886 35.2841 73.1436C34.7473 73.8422 34.1614 74.5027 33.531 75.1201C33.5195 75.1408 33.5152 75.1647 33.5189 75.188C33.5225 75.2113 33.5339 75.2328 33.5512 75.2491C33.5685 75.2654 33.5907 75.2756 33.6145 75.278C33.6382 75.2805 33.6621 75.2751 33.6825 75.2628C34.2452 74.6777 34.8584 74.0997 35.3851 73.4718C35.4709 73.5758 35.5824 73.6561 35.7088 73.7048C35.8352 73.7536 35.9723 73.7692 36.1066 73.7501H36.1571C35.5655 74.3423 34.9017 74.8561 34.2596 75.3912C34.1514 75.4769 34.2596 75.6338 34.3967 75.5482C35.156 74.9846 35.8789 74.3745 36.5611 73.7215C36.9104 73.6882 37.2467 73.5732 37.5423 73.3862C37.5423 73.5075 37.5423 73.643 37.5423 73.7715C37.0445 74.1639 34.2524 76.6257 33.7185 76.6257C33.4155 76.6185 32.1458 76.3474 32.1458 75.9335V75.9692Z" fill="#1C1D1C"/>
<path d="M53.4148 121.622L54.2156 122L55.0165 121.622C83.2615 108.25 82.4319 81.128 82.4319 80.0648V53H25.9994V79.9721C25.9994 80.2504 24.5926 107.979 53.4148 121.622ZM27.1898 54.1631H81.2198V80.1148C81.2198 80.3859 82.504 107.308 54.4898 120.566L54.2012 120.701L53.9126 120.566C25.9201 107.315 27.1682 80.3074 27.1898 80.0006V54.1631Z" fill="#1C1D1C"/>
<path d="M42.2819 73.543L40.839 74.5848C40.8156 74.638 40.7963 74.6929 40.7812 74.7489C40.7812 74.7846 40.7812 74.8203 40.7812 74.856H40.8462L43.8691 72.7153C43.4867 72.9365 43.0322 73.1863 42.4262 73.4717L42.2819 73.543Z" fill="#1C1D1C"/>
<path d="M29.195 86.1229L29.7938 89.391L54.4821 71.6736L78.6221 89.391L79.2281 86.1158C79.5427 84.1983 79.6827 82.2568 79.6466 80.3146V55.8542H28.7694V80.2005C28.7325 82.1832 28.8749 84.1653 29.195 86.1229ZM78.9396 56.5678V58.8868L75.6714 56.5678H78.9396ZM75.2673 56.5678L78.9396 59.1794V61.0132L72.6845 56.5678H75.2673ZM72.2877 56.5678L78.9468 61.3057V63.1467L69.7049 56.5678H72.2877ZM29.4692 56.5678H33.3146L29.4692 59.2935V56.5678ZM29.4692 59.5861L33.7186 56.5678H36.3014L29.4692 61.4199V59.5861ZM29.4692 61.7267L36.6982 56.5678H39.281L29.4692 63.5463V61.7267ZM33.2785 77.8529L29.4692 80.543C29.4692 80.3432 29.4692 80.229 29.4692 80.2147V78.6878L31.5903 77.1893C31.5245 77.1409 31.4619 77.0884 31.4027 77.0323L29.4764 78.4023V76.5471L30.977 75.4768C31.0364 75.3165 31.1139 75.1633 31.2079 75.0201L29.4692 76.2688V74.4065L31.1069 73.2434C31.0248 73.2111 30.9453 73.1729 30.8688 73.1292L29.4692 74.1496V72.3158L31.3522 70.9814C31.7398 70.6804 32.0951 70.3409 32.4127 69.9682L29.4764 72.0304V70.1894L32.2901 68.1915C32.3201 68.0645 32.3611 67.9404 32.4127 67.8204L29.4836 69.904V68.0702L38.8193 61.4271C38.8193 61.3486 38.776 61.2629 38.7544 61.1844L29.4764 67.7848V65.9509L38.8554 59.265C38.9137 59.116 38.9811 58.9706 39.0574 58.8297L29.4764 65.6655V63.8317L39.7067 56.5678H42.2895L41.7845 56.9317C41.9215 56.9246 42.0587 56.9246 42.1957 56.9317L42.6791 56.5678H45.2619L43.9561 57.4954L44.122 57.6096C44.1338 57.6066 44.1462 57.6066 44.1581 57.6096L45.6587 56.5678H48.2415L45.5577 58.473C45.6141 58.528 45.6626 58.5905 45.702 58.6585L48.6455 56.5678H51.25L46.0844 60.2426L46.2214 60.4281L51.6324 56.5678H54.2152L47.1882 61.5626C47.2268 61.6331 47.2582 61.7072 47.282 61.7838L54.4966 56.6534L61.5452 61.6483C61.5769 61.5771 61.6131 61.508 61.6534 61.4413L54.7635 56.5678H57.3463L62.6418 60.3353L62.7933 60.1355L57.7431 56.5678H60.3259L63.1396 58.5657C63.1646 58.5293 63.1936 58.4958 63.2262 58.4658L63.3056 58.3945L60.7372 56.5678H63.32L64.7196 57.5668L64.9577 57.4312L63.7168 56.5678H66.2996L66.783 56.9103C66.9481 56.9172 67.1123 56.9387 67.2736 56.9745L66.7036 56.5678H69.2865L78.9323 63.4321V65.2659L69.5534 58.5871C69.6545 58.7433 69.746 58.9053 69.8276 59.0723L78.9323 65.5585V67.3923L70.0584 61.0845C70.0435 61.167 70.0218 61.2482 69.9935 61.3272L78.9251 67.6849V69.5187L76.2413 67.6135C76.314 67.7458 76.3744 67.8843 76.4217 68.0274L78.9179 69.8041V71.645L76.3928 69.8469L76.3495 69.9896L76.6453 70.3178L78.9179 71.9305V73.7643L78.0017 73.115C77.9313 73.1646 77.8564 73.2076 77.778 73.2434L78.9179 74.0568V75.8907L77.3307 74.7632V74.7989C77.4609 74.9625 77.5768 75.1368 77.677 75.3198L78.8891 76.1832V78.0242L77.4461 76.9752L77.273 77.1394L78.9251 78.3096V80.1148L75.6569 77.7887L75.3178 77.8386L78.9251 80.4074C78.9251 80.65 78.9251 81.2779 78.9251 82.2198L71.1478 76.7398V77.0252L78.8674 82.5195C78.8674 83.0261 78.7953 83.6041 78.7231 84.2534L70.3831 78.3167L70.2821 78.3738C70.2409 78.3958 70.2022 78.4221 70.1666 78.4523L78.6654 84.5174C78.6149 84.9812 78.55 85.4665 78.4706 85.9873V86.1943L69.3442 79.7081C69.2794 79.7639 69.2064 79.8097 69.1277 79.8437L78.4201 86.4511L78.1027 88.1565L54.4605 70.8387L30.2628 88.1708L30.0103 86.8151L39.7067 79.9008C39.6199 79.8744 39.5373 79.836 39.4614 79.7866L29.967 86.5368L29.866 86.0016C29.8083 85.6092 29.7578 85.2381 29.7145 84.8813L38.6678 78.5094C38.6047 78.4561 38.5371 78.4084 38.4658 78.3667L29.6856 84.6387C29.6135 84.0037 29.563 83.4328 29.5197 82.9191L37.5856 77.2107V76.9039L29.498 82.6479C29.4475 81.8702 29.4331 81.2637 29.4331 80.8569L33.6031 77.8886C33.4975 77.8573 33.3886 77.8382 33.2785 77.8315V77.8529Z" fill="#1C1D1C"/>
<path d="M54.4978 69.1047L44.8086 75.9976C44.8519 76.0618 44.9024 76.126 44.9385 76.1903L54.4978 69.4116L63.92 76.1189C63.9591 76.052 64.0025 75.9877 64.0499 75.9262L54.5627 69.1547L54.4978 69.1047Z" fill="#1C1D1C"/>
<path d="M46.0845 64.7591L54.4967 58.7725L62.7935 64.6664L62.945 64.488L54.5616 58.537L54.4895 58.4871L45.9258 64.5808C45.9835 64.6378 46.034 64.7021 46.0845 64.7591Z" fill="#1C1D1C"/>
<path d="M38.4596 63.8104L39.5995 62.9898L39.5057 62.8613L39.4624 62.7971L38.0195 63.8318H38.2504L38.4596 63.8104Z" fill="#1C1D1C"/>
<path d="M40.4998 64.1956L40.168 64.431L40.37 64.5737L40.6441 64.4168C40.6008 64.3169 40.5503 64.2598 40.4998 64.1956Z" fill="#1C1D1C"/>
<path d="M54.4973 67.2708L65.4418 75.0556L65.7448 74.9843L54.5622 67.0282L54.49 66.9783L43.1992 75.0128C43.3002 75.0128 43.3868 75.0699 43.4806 75.0984L54.4973 67.2708Z" fill="#1C1D1C"/>
<path d="M62.001 65.9509L54.57 60.6635L54.4978 60.6135L46.8359 66.065C46.8359 66.1435 46.8864 66.222 46.9153 66.2934L54.4978 60.8989L61.9216 66.1792C61.9437 66.1017 61.9702 66.0254 62.001 65.9509Z" fill="#1C1D1C"/>
<path d="M45.6816 71.4166L54.4979 65.1303L62.7946 71.0313C62.6489 70.853 62.5163 70.6647 62.3978 70.4676L54.5628 64.9091L54.4906 64.8591L46.2516 70.7245C46.0805 70.9698 45.8899 71.2013 45.6816 71.4166Z" fill="#1C1D1C"/>
<path d="M54.4971 62.7327L47.1094 67.9844C47.1094 68.0843 47.1094 68.1913 47.1094 68.2912L54.4971 63.0252L61.7117 68.1485C61.7117 68.0486 61.7117 67.9487 61.7117 67.8488L54.5981 62.7897L54.4971 62.7327Z" fill="#1C1D1C"/>
<path d="M69.2871 62.9041L70.5857 63.8245C70.7156 63.8245 70.8599 63.8245 71.0186 63.8245L69.4098 62.6829L69.3088 62.847L69.2871 62.9041Z" fill="#1C1D1C"/>
<path d="M68.0241 74.7562C68.0241 74.6919 67.9591 74.5635 67.8798 74.3851L67.1583 73.8714L66.3431 73.4718L65.8164 73.2078L68.0241 74.7776V74.7562Z" fill="#1C1D1C"/>
<path d="M68.2923 64.1813L68.2129 64.2812L68.5159 64.4953L68.7179 64.3526L68.3572 64.0957L68.2923 64.1813Z" fill="#1C1D1C"/>
<path d="M30.5293 92.0738L30.6014 92.3093C33.0977 100.508 39.1868 111.803 54.0488 119.039L54.2075 119.117L54.3663 119.039C69.2283 111.803 75.3246 100.487 77.8209 92.3093L77.893 92.081L54.4961 74.5134L30.5293 92.0738ZM54.2075 118.339C39.8289 111.283 33.8408 100.365 31.3518 92.345L54.4889 75.3768L77.0778 92.3378C74.5815 100.358 68.5646 111.275 54.2075 118.339Z" fill="#1C1D1C"/>
</g>
<defs>
<clipPath id="clip0_3431_3740">
<rect width="268" height="69" fill="white" transform="translate(26 53)"/>
</clipPath>
</defs>
</svg>
