<svg width="268" height="69" viewBox="0 0 268 69" fill="none" xmlns="http://www.w3.org/2000/svg">
  <g clip-path="url(#clip0_3431_3743)">
    <path d="M71.9801 54.094H74.7V53.6588H71.9801V51.247H74.7865V50.8188H71.5039V56.9839H74.8659V56.5558H71.9801V54.094Z" fill="#1C1D1C"/>
    <path d="M78.0473 53.6231C76.9218 53.1308 76.792 52.7312 76.792 52.2388C76.7958 52.0835 76.8325 51.9308 76.8997 51.7903C76.9668 51.6499 77.0629 51.5249 77.1819 51.4234C77.3008 51.3219 77.4399 51.2462 77.5902 51.2011C77.7404 51.1559 77.8986 51.1424 78.0545 51.1614C78.541 51.1736 79.011 51.3386 79.3964 51.6323V51.0972C78.9925 50.86 78.5315 50.7343 78.0617 50.7333C77.8442 50.7116 77.6245 50.7345 77.4162 50.8004C77.208 50.8663 77.0157 50.9739 76.8513 51.1164C76.6868 51.259 76.5538 51.4334 76.4605 51.629C76.3671 51.8245 76.3154 52.037 76.3086 52.2531C76.3086 53.0594 76.6982 53.509 77.7515 53.9799C78.9203 54.5222 79.1511 54.8576 79.1511 55.4712C79.1556 55.6301 79.1264 55.7881 79.0652 55.935C79.004 56.082 78.9123 56.2146 78.796 56.3242C78.6796 56.4339 78.5413 56.5182 78.39 56.5716C78.2387 56.625 78.0777 56.6463 77.9174 56.6343C77.3295 56.6199 76.7704 56.3793 76.3591 55.9636V56.5487C76.8036 56.8941 77.3522 57.0825 77.9174 57.0838C78.1408 57.1048 78.366 57.0792 78.5787 57.0086C78.7914 56.938 78.9867 56.824 79.1519 56.674C79.3172 56.524 79.4488 56.3413 79.5381 56.1378C79.6275 55.9343 79.6726 55.7145 79.6706 55.4926C79.6345 54.6292 79.2954 54.1797 78.0473 53.6231Z" fill="#1C1D1C"/>
    <path d="M80.832 51.247H83.0902V56.9839H83.5664V51.247H85.839V50.8188H80.832V51.247Z" fill="#1C1D1C"/>
    <path d="M87.1156 56.199H86.5312V56.9839H87.1156V56.199Z" fill="#1C1D1C"/>
    <path d="M92.3965 52.1816L92.6634 52.517L93.9476 51.518V56.9838H94.4238V50.7402H94.2146L92.3965 52.1816Z" fill="#1C1D1C"/>
    <path d="M99.9287 53.8016C100.212 53.6824 100.453 53.4836 100.622 53.2298C100.791 52.976 100.882 52.6785 100.881 52.3745C100.853 51.9477 100.662 51.5475 100.346 51.2551C100.031 50.9628 99.6144 50.8 99.182 50.8C98.7496 50.8 98.3334 50.9628 98.0179 51.2551C97.7024 51.5475 97.5111 51.9477 97.483 52.3745C97.4813 52.6769 97.5692 52.9733 97.7359 53.2269C97.9026 53.4805 98.1407 53.6803 98.4209 53.8016C98.1024 53.9123 97.8271 54.1194 97.6342 54.3935C97.4413 54.6675 97.3404 54.9947 97.3459 55.3285C97.3459 55.8073 97.5382 56.2665 97.8805 56.6051C98.2228 56.9436 98.6871 57.1338 99.1712 57.1338C99.6553 57.1338 100.12 56.9436 100.462 56.6051C100.804 56.2665 100.997 55.8073 100.997 55.3285C101.003 54.9955 100.903 54.669 100.711 54.3951C100.52 54.1211 100.246 53.9135 99.9287 53.8016ZM97.9519 52.3745C97.9756 52.0697 98.1147 51.7851 98.3415 51.5774C98.5682 51.3698 98.8658 51.2544 99.1748 51.2544C99.4838 51.2544 99.7815 51.3698 100.008 51.5774C100.235 51.7851 100.374 52.0697 100.398 52.3745C100.404 52.5348 100.376 52.6946 100.318 52.8443C100.26 52.9939 100.171 53.1303 100.058 53.245C99.9443 53.3598 99.8085 53.4506 99.6586 53.5119C99.5088 53.5732 99.3478 53.6038 99.1856 53.6018C99.0213 53.6058 98.8579 53.5765 98.7054 53.5157C98.5529 53.4548 98.4147 53.3638 98.2991 53.2482C98.1835 53.1326 98.0931 52.9948 98.0334 52.8433C97.9737 52.6918 97.946 52.5298 97.9519 52.3673V52.3745ZM99.1784 56.6557C99.0016 56.6648 98.8249 56.6373 98.6594 56.5752C98.4939 56.513 98.3433 56.4175 98.2171 56.2947C98.0909 56.1719 97.9919 56.0245 97.9264 55.8619C97.8609 55.6993 97.8303 55.5249 97.8365 55.35C97.8365 54.9998 97.9771 54.6641 98.2274 54.4165C98.4777 54.169 98.8172 54.0299 99.1712 54.0299C99.5252 54.0299 99.8647 54.169 100.115 54.4165C100.365 54.6641 100.506 54.9998 100.506 55.35C100.508 55.521 100.475 55.6906 100.408 55.8485C100.342 56.0064 100.243 56.1492 100.119 56.2681C99.9948 56.3871 99.8472 56.4796 99.6855 56.5401C99.5237 56.6007 99.3512 56.6279 99.1784 56.6201V56.6557Z" fill="#1C1D1C"/>
    <path d="M104.401 50.7402C104.161 50.7324 103.922 50.773 103.699 50.8597C103.476 50.9464 103.273 51.0773 103.103 51.2443C102.932 51.4113 102.798 51.611 102.709 51.8311C102.62 52.0512 102.577 52.287 102.583 52.5241C102.577 52.7528 102.62 52.9801 102.707 53.192C102.794 53.404 102.924 53.596 103.089 53.7565C103.254 53.9169 103.45 54.0422 103.666 54.1248C103.881 54.2074 104.112 54.2454 104.343 54.2366C104.839 54.2387 105.32 54.0724 105.707 53.7657C105.497 54.786 104.769 55.7564 103.434 56.7197L103.715 57.0622C105.389 55.9134 106.327 54.4078 106.327 52.9308C106.334 51.6179 105.577 50.7402 104.401 50.7402ZM104.401 53.8085C104.047 53.8085 103.707 53.6694 103.457 53.4218C103.207 53.1743 103.066 52.8385 103.066 52.4884C103.066 52.1383 103.207 51.8025 103.457 51.555C103.707 51.3074 104.047 51.1683 104.401 51.1683C105.317 51.1683 105.844 51.8819 105.844 52.838C105.836 53.5659 105.043 53.8085 104.43 53.8085H104.401Z" fill="#1C1D1C"/>
    <path d="M108.297 52.1816L108.564 52.517L109.855 51.518V56.9838H110.324V50.7402H110.115L108.297 52.1816Z" fill="#1C1D1C"/>
    <path d="M79.8007 39.5591L72.449 31.0679H71.5039V41.3429H72.6005V32.8803L79.8945 41.3429H80.8973V31.0679H79.8007V39.5591Z" fill="#1C1D1C"/>
    <path d="M85.8958 36.6692H90.2822V35.6631H85.8958V32.0811H90.4337V31.0679H84.7559V41.3429H90.5564V40.3154H85.8958V36.6692Z" fill="#1C1D1C"/>
    <path d="M104.61 38.8527H104.596L101.458 31.0679H100.44L97.3669 38.8883H97.3525L94.2286 31.0679H93.0742L97.2298 41.4143H97.4679L100.945 32.6662L104.444 41.4143H104.69L108.816 31.0679H107.655L104.61 38.8527Z" fill="#1C1D1C"/>
    <path d="M125.879 31.0679H124.739V36.9832C124.739 39.2094 123.685 40.4653 121.528 40.4653C119.371 40.4653 118.318 39.2451 118.318 36.9832V31.0679H117.178V36.9832C117.178 39.8374 118.7 41.4714 121.564 41.4714C124.428 41.4714 125.893 39.6804 125.893 36.9832V31.0679H125.879Z" fill="#1C1D1C"/>
    <path d="M137.914 39.5591L130.562 31.0679H129.617V41.3429H130.714V32.8803L138.008 41.3429H139.011V31.0679H137.914V39.5591Z" fill="#1C1D1C"/>
    <path d="M144.009 31.0679H142.869V41.3358H144.009V31.0679Z" fill="#1C1D1C"/>
    <path d="M151.261 39.0667H151.246L147.863 31.0679H146.723L151.124 41.4428H151.383L155.77 31.0679H154.623L151.261 39.0667Z" fill="#1C1D1C"/>
    <path d="M159.622 36.6692H164.009V35.6631H159.622V32.0811H164.16V31.0679H158.482V41.3429H164.283V40.3154H159.622V36.6692Z" fill="#1C1D1C"/>
    <path d="M171.584 36.3909C172.16 36.2627 172.671 35.939 173.03 35.4761C173.388 35.0132 173.571 34.4405 173.547 33.8578C173.547 32.2951 172.464 31.1035 170.379 31.1035H167.652V41.3358H168.821V36.6692H169.781C170.661 36.6692 171.303 37.0045 172.262 38.503L174.088 41.3572H175.444L173.431 38.2889C172.558 36.976 172.248 36.7049 171.584 36.3909ZM169.86 35.6774H168.821V32.0668H170.264C171.584 32.0668 172.428 32.5806 172.428 33.8435C172.371 35.3348 171.288 35.6774 169.86 35.6774Z" fill="#1C1D1C"/>
    <path d="M180.868 35.5704C179.151 34.7142 178.978 34.1433 178.978 33.4298C178.978 32.5379 179.699 31.9385 180.789 31.9385C181.658 31.9497 182.493 32.2774 183.134 32.859V31.596C182.441 31.1623 181.638 30.9322 180.818 30.9324C179.086 30.9324 177.816 32.017 177.816 33.4797C177.816 34.7855 178.444 35.5704 180.067 36.3981C182.08 37.4399 182.369 37.9465 182.369 38.8242C182.37 39.0529 182.322 39.2793 182.23 39.4889C182.137 39.6984 182.001 39.8865 181.831 40.041C181.66 40.1956 181.459 40.3132 181.24 40.3862C181.02 40.4593 180.788 40.4862 180.558 40.4654C180.041 40.4512 179.533 40.3273 179.069 40.102C178.604 39.8767 178.195 39.5553 177.867 39.1596V40.5867C178.639 41.172 179.585 41.4903 180.558 41.4929C182.34 41.4929 183.53 40.3512 183.53 38.8313C183.538 37.4114 183.018 36.6693 180.868 35.5704Z" fill="#1C1D1C"/>
    <path d="M187.982 31.0679H186.842V41.3358H187.982V31.0679Z" fill="#1C1D1C"/>
    <path d="M190.896 32.0668H194.569V41.3429H195.709V32.0668H199.424V31.0679H190.896V32.0668Z" fill="#1C1D1C"/>
    <path d="M205.839 34.8639L202.752 31.0679H201.381L205.262 35.8558V41.3429H206.431V35.8558L210.298 31.0679H208.927L205.839 34.8639Z" fill="#1C1D1C"/>
    <path d="M76.5108 17.9529C77.114 17.7983 77.6465 17.446 78.0212 16.9535C78.3959 16.4611 78.5909 15.8576 78.5742 15.2415C78.5742 13.2721 77.0375 12.0947 74.7216 12.0947H71.5039V24.4177H75.306C77.593 24.4177 79.6347 23.3902 79.6347 21.114C79.6347 19.4871 78.4443 18.2241 76.5108 17.9529ZM72.8675 13.2935H74.4547C76.3016 13.2935 77.1601 13.9428 77.1601 15.3699C77.1601 16.6329 76.28 17.5748 74.2382 17.5748H72.8675V13.2935ZM75.0318 23.2261H72.8675V18.745H74.8587C77.2179 18.745 78.2207 19.5798 78.2207 21.0069C78.2062 22.5625 77.0375 23.2261 75.0318 23.2261Z" fill="#1C1D1C"/>
    <path d="M92.9373 19.2016C92.9373 21.8774 91.6747 23.3759 89.0847 23.3759C86.4947 23.3759 85.2321 21.9488 85.2321 19.2016V12.1304H83.8613V19.2658C83.8613 22.7123 85.6866 24.6531 89.1208 24.6531C92.5549 24.6531 94.308 22.5125 94.308 19.2658V12.1304H92.9373V19.2658V19.2016Z" fill="#1C1D1C"/>
    <path d="M109.906 23.547V22.0485C108.615 22.8705 107.112 23.3089 105.577 23.3115C104.896 23.3423 104.215 23.2335 103.578 22.9918C102.941 22.7501 102.362 22.3809 101.876 21.9071C101.39 21.4334 101.009 20.8655 100.756 20.239C100.502 19.6126 100.383 18.9411 100.404 18.2667C100.392 17.592 100.519 16.922 100.776 16.297C101.033 15.6719 101.415 15.1049 101.9 14.6301C102.385 14.1553 102.962 13.7826 103.596 13.5344C104.231 13.2863 104.91 13.1678 105.592 13.1863C107.078 13.2088 108.533 13.6146 109.812 14.3636V12.908C108.488 12.2847 107.043 11.9512 105.577 11.9304C104.715 11.9004 103.856 12.0438 103.052 12.3519C102.248 12.66 101.515 13.1265 100.898 13.7229C100.282 14.3194 99.7941 15.0335 99.4649 15.8219C99.1356 16.6103 98.9717 17.4566 98.983 18.3095C98.9722 19.1544 99.1362 19.9925 99.4648 20.7724C99.7934 21.5524 100.28 22.2576 100.894 22.845C101.508 23.4323 102.237 23.8894 103.036 24.188C103.835 24.4866 104.688 24.6206 105.541 24.5816C107.059 24.5881 108.556 24.2332 109.906 23.547Z" fill="#1C1D1C"/>
    <path d="M117.605 18.0243L123.174 12.0947H121.457L115.996 17.8816V12.0947H114.625V24.4177H115.996V18.2954L122.388 24.4177H124.271L117.605 18.0243Z" fill="#1C1D1C"/>
    <path d="M129.558 12.0947H128.188V24.4177H129.558V12.0947Z" fill="#1C1D1C"/>
    <path d="M144.875 22.2913L136.045 12.0947H134.912V24.4177H136.232V14.2639L144.984 24.4177H146.189V12.0947H144.875V22.2913Z" fill="#1C1D1C"/>
    <path d="M157.544 13.1435C159.058 13.1664 160.539 13.5849 161.837 14.3565V12.9294C160.521 12.2795 159.073 11.933 157.602 11.9162C156.735 11.8818 155.871 12.0236 155.062 12.3328C154.252 12.642 153.516 13.1122 152.898 13.7141C152.28 14.316 151.793 15.0369 151.468 15.8323C151.143 16.6276 150.986 17.4805 151.008 18.3381C151.008 21.4991 153.172 24.5888 157.66 24.5888C159.201 24.594 160.722 24.2369 162.097 23.547V18.5522H158.186V19.7438H160.726V22.7478C159.757 23.1606 158.714 23.3765 157.66 23.3829C156.965 23.4166 156.27 23.306 155.621 23.0583C154.972 22.8106 154.382 22.4313 153.89 21.9447C153.398 21.4581 153.015 20.875 152.764 20.2329C152.514 19.5909 152.402 18.9041 152.436 18.2168C152.42 17.5479 152.54 16.8825 152.791 16.2609C153.041 15.6393 153.416 15.0744 153.894 14.6003C154.371 14.1261 154.941 13.7526 155.568 13.5022C156.196 13.2518 156.868 13.1298 157.544 13.1435Z" fill="#1C1D1C"/>
    <path d="M177.572 24.4177V12.0947H176.201V17.589H168.64V12.0947H167.27V24.4177H168.64V18.8377H176.201V24.4177H177.572Z" fill="#1C1D1C"/>
    <path d="M181.568 24.4175H183.011L184.692 20.5501H190.356L192.109 24.4175H193.516L187.96 12.0232H186.994L181.568 24.4175ZM189.742 19.3442H185.154L187.383 14.1068L189.742 19.3442Z" fill="#1C1D1C"/>
    <path d="M207.475 24.4177H208.846V12.0947H207.555L203.168 17.4963L198.767 12.0947H197.469V24.4177H198.84V14.2496H198.876L203.038 19.3943H203.276L207.439 14.2496H207.475V24.4177Z" fill="#1C1D1C"/>
    <path d="M217.496 17.4961C215.433 16.4686 215.231 15.7622 215.231 14.9487C215.231 13.8855 216.09 13.1577 217.395 13.1577C218.438 13.1716 219.439 13.5625 220.209 14.2566V12.7225C219.377 12.206 218.414 11.9315 217.432 11.9304C215.346 11.9304 213.824 13.2291 213.824 14.9844C213.824 16.5542 214.546 17.4961 216.53 18.4879C218.954 19.7366 219.322 20.3503 219.322 21.4063C219.323 21.68 219.266 21.9509 219.155 22.2017C219.045 22.4526 218.882 22.6778 218.679 22.8631C218.475 23.0484 218.235 23.1897 217.973 23.278C217.711 23.3662 217.433 23.3995 217.157 23.3757C216.537 23.3565 215.927 23.2065 215.37 22.9358C214.813 22.6651 214.32 22.2799 213.925 21.8059V23.5042C214.854 24.2046 215.99 24.5832 217.157 24.5816C219.322 24.5816 220.721 23.2045 220.721 21.3849C220.692 19.7081 220.043 18.8162 217.496 17.4961Z" fill="#1C1D1C"/>
    <path d="M226.767 18.8377H234.328V24.4177H235.699V12.0947H234.328V17.589H226.767V12.0947H225.396V24.4177H226.767V18.8377Z" fill="#1C1D1C"/>
    <path d="M242.431 12.0947H241.061V24.4177H242.431V12.0947Z" fill="#1C1D1C"/>
    <path d="M252.51 18.4382C253.2 18.2865 253.815 17.8997 254.246 17.3453C254.677 16.791 254.898 16.1044 254.869 15.4056C254.869 13.5218 253.57 12.0947 251.067 12.0947H247.799V24.4177H249.17V18.8163H250.346C251.406 18.8163 252.171 19.2159 253.325 21.0212L255.49 24.4177H257.113L254.674 20.7358C253.671 19.1802 253.311 18.852 252.51 18.4382ZM250.447 17.6247H249.17V13.2864H250.887C252.474 13.2864 253.462 13.9 253.462 15.427C253.455 17.2109 252.156 17.6247 250.439 17.6247H250.447Z" fill="#1C1D1C"/>
    <path d="M262.416 23.1904V18.8163H267.675V17.6104H262.416V13.3078H267.855V12.0947H261.045V24.4177H268V23.1904H262.416Z" fill="#1C1D1C"/>
    <path d="M31.8299 34.7211C32.4575 33.4439 32.8471 32.2737 32.5513 31.7742C32.0095 32.4925 31.5678 33.2797 31.2383 34.1146C31.7433 33.8221 31.9742 34.0218 31.8299 34.7211Z" fill="#1C1D1C"/>
    <path d="M27.6953 34.4358C28.0993 33.9292 28.5611 33.2014 29.7082 34.5928C29.1581 33.1474 29.0135 31.5818 29.2897 30.0618C28.5178 30.5113 27.7602 31.7386 27.6953 34.4358Z" fill="#1C1D1C"/>
    <path d="M24.5293 31.6458C24.3942 32.2156 24.4053 32.8098 24.5615 33.3743C24.7177 33.9389 25.0142 34.4558 25.4239 34.8781C25.258 34.2431 25.6548 34.0433 26.636 34.2716C25.6776 33.6312 24.942 32.7144 24.5293 31.6458Z" fill="#1C1D1C"/>
    <path d="M33.7139 36.8403C33.9995 36.5127 34.1781 36.1072 34.2261 35.6772C33.8217 36.0532 33.3239 36.3166 32.7832 36.4407C33.3964 36.3908 33.7139 36.5335 33.7139 36.8403Z" fill="#1C1D1C"/>
    <path d="M22.0535 34.7498C22.0244 35.1108 22.0694 35.474 22.186 35.8173C22.3025 36.1607 22.4882 36.4772 22.7317 36.7477C22.8832 36.2982 23.2944 36.0341 23.9438 36.0341C23.2067 35.7851 22.5529 35.3409 22.0535 34.7498Z" fill="#1C1D1C"/>
    <path d="M27.5881 29.1485C26.9564 29.952 26.4973 30.8747 26.239 31.86C26.0584 31.5359 25.9828 31.1647 26.0226 30.7968C26.0258 30.3931 26.1142 29.9945 26.2823 29.6266C26.6863 28.5277 26.5709 27.279 25.6402 26.7724L25.734 27.5644C25.744 27.8042 25.6728 28.0404 25.5316 28.2356C25.3905 28.4307 25.1875 28.5737 24.9548 28.6419C23.5913 29.2983 22.7905 31.4176 22.7905 32.124C22.7794 32.7291 22.8796 33.3311 23.0862 33.9007C22.4042 33.3752 21.9563 32.6072 21.8381 31.7601C21.1167 32.7162 20.5684 33.337 20.5684 34.6143C20.6281 35.5172 20.8926 36.3952 21.3423 37.1833C21.7919 37.9714 22.415 38.6493 23.1656 39.1667C22.9327 39.4116 22.7947 39.73 22.776 40.0658C22.7656 40.2559 22.7958 40.446 22.8646 40.6238C22.9335 40.8016 23.0394 40.9631 23.1755 41.0977C23.3116 41.2324 23.4749 41.3371 23.6547 41.4052C23.8345 41.4733 24.0267 41.5031 24.2189 41.4928C24.3188 41.4937 24.4176 41.4717 24.5075 41.4286C25.098 43.2704 25.4851 45.17 25.6619 47.0942L26.1957 55.0146C26.239 56.4417 26.2751 57.9116 26.2895 59.5028C25.9874 59.8109 25.8169 60.2224 25.8134 60.6516C25.8134 61.7647 26.9244 62.5496 28.1292 62.5496C29.3341 62.5496 30.4451 61.7647 30.4451 60.6516C30.4488 60.3081 30.3399 59.9727 30.1349 59.6954C30.1926 57.6262 30.2792 55.7138 30.4018 53.9371L30.9574 48.3928C31.2346 46.0063 31.7741 43.6567 32.5662 41.3858C32.6379 41.3966 32.7109 41.3966 32.7826 41.3858C32.9654 41.4024 33.1497 41.3827 33.3247 41.3279C33.4997 41.2731 33.6618 41.1842 33.8016 41.0666C33.9414 40.9489 34.056 40.8048 34.1387 40.6428C34.2214 40.4807 34.2706 40.3039 34.2833 40.1228C34.2536 39.7368 34.0755 39.3767 33.7855 39.1167C34.902 37.988 35.6162 36.5301 35.82 34.9639C35.8761 34.4789 35.774 33.9889 35.5287 33.5653C35.2834 33.1418 34.9077 32.8068 34.4564 32.6092L34.2977 32.8803L34.1895 33.073C34.1895 32.8518 34.1895 32.5949 34.1895 32.3024C34.1895 30.5399 33.1722 29.3483 32.0251 28.1709C32.0684 29.912 31.8592 29.7051 31.0295 31.0251C31.1738 29.9262 31.4047 29.4054 30.9574 28.2423C30.2359 26.4085 29.0671 25.9161 27.4366 25.1169C28.3962 26.7082 28.7641 27.4931 27.5881 29.1485ZM30.2575 48.8852L29.9545 51.6038C29.7429 53.8301 29.5938 56.3418 29.5072 59.1389C29.5072 59.4671 28.9156 59.5385 28.5044 59.5099C28.324 59.5099 28.2447 60.1378 28.5044 60.1378C29.5505 60.1378 29.5144 59.7311 29.7164 60.2449C29.7789 60.3741 29.8109 60.5155 29.8102 60.6587C29.7529 61.0441 29.546 61.3922 29.2336 61.6293C28.9211 61.8663 28.5276 61.9738 28.1365 61.9288C27.7411 61.9778 27.342 61.8714 27.025 61.6326C26.7081 61.3938 26.4984 61.0416 26.441 60.6516C26.4478 60.4176 26.5313 60.1922 26.6791 60.0094C26.8739 59.8096 26.8018 60.1307 27.7036 60.1307C27.9344 60.1307 27.8839 59.5028 27.7036 59.5028C27.3573 59.5028 26.9172 59.3458 26.9172 59.039C26.9172 57.6119 26.8667 56.2419 26.8306 54.9575L26.5276 49.5845C26.2246 45.6885 25.734 42.8343 25.0847 41.0219C25.4835 40.5498 25.9874 40.1753 26.5568 39.9277C27.1263 39.6801 27.7459 39.5662 28.3673 39.5948C29.0529 39.5603 29.7378 39.6739 30.3745 39.9277C31.0112 40.1816 31.5843 40.5696 32.054 41.0647C31.1442 43.592 30.5412 46.2172 30.2575 48.8852ZM32.7754 40.8078C32.6744 40.8078 32.5373 40.6865 32.3858 40.5438C31.8585 40.018 31.2264 39.6062 30.5297 39.3348C29.8329 39.0633 29.0867 38.938 28.3385 38.9669C27.6631 38.9469 26.9914 39.071 26.3689 39.3308C25.7464 39.5906 25.1879 39.98 24.7312 40.4725C24.5869 40.6295 24.4426 40.8507 24.3055 40.8507H24.2406C24.1317 40.8635 24.0212 40.8515 23.9177 40.8158C23.8141 40.7801 23.7202 40.7214 23.6429 40.6444C23.5657 40.5673 23.5073 40.4739 23.4721 40.3712C23.4369 40.2684 23.4258 40.1591 23.4398 40.0515C23.4325 39.2452 25.9721 37.8181 28.3745 37.8181C30.0581 37.8249 31.6966 38.3567 33.0568 39.3379C33.0902 39.3929 33.1409 39.4355 33.2011 39.4592C33.4424 39.6292 33.6078 39.8849 33.6628 40.1728C33.6556 40.5224 33.3165 40.8078 32.7754 40.8078ZM30.6111 30.1403C30.4571 30.9563 30.3966 31.7869 30.4307 32.6163C30.4307 33.6866 30.6111 33.7081 31.0511 32.6877C31.4119 31.3962 32.3065 30.6826 32.6239 29.6836C33.2267 30.4242 33.571 31.3379 33.6051 32.2881C33.6051 34.0934 32.9702 34.5572 31.9746 35.9771C33.5257 35.021 33.8504 34.9853 34.6945 33.4654C34.8808 33.6615 35.0223 33.8948 35.1095 34.1496C35.1966 34.4045 35.2273 34.6749 35.1995 34.9425C35.0051 36.3785 34.3443 37.7132 33.3165 38.7457C31.8606 37.7559 30.141 37.2147 28.3745 37.1902C26.6822 37.231 25.0402 37.7674 23.6562 38.7314C22.9622 38.2737 22.3827 37.6657 21.9614 36.9536C21.5402 36.2416 21.2883 35.444 21.2249 34.6214C21.2086 34.0894 21.3544 33.5648 21.6433 33.1158C22.3143 34.4644 23.6706 34.9639 24.9476 35.549C23.9881 34.2646 23.5047 33.7865 23.5047 32.0812C23.5047 31.5246 24.2262 29.6836 25.2795 29.1628C25.5504 29.0448 25.7827 28.8545 25.9504 28.6133C25.9937 29.3269 25.4454 29.862 25.4454 30.6255C25.4454 32.2025 25.8783 32.3594 26.7801 33.387C26.8269 32.2781 27.1226 31.1934 27.6459 30.2117C28.3673 29.0486 29.2836 28.071 28.9373 26.544C29.527 26.9281 29.9941 27.4702 30.2841 28.107C30.5741 28.7438 30.675 29.449 30.575 30.1403H30.6111Z" fill="#1C1D1C"/>
    <path d="M29.2541 51.1327L29.4272 49.3417C29.7447 46.4875 30.2569 43.9259 30.6609 41.614C30.7691 41.0003 29.9972 40.9433 29.889 41.4998C29.4314 44.2978 29.1256 47.1179 28.9727 49.9482L28.9294 50.5262L28.8934 51.0542C28.8573 51.3254 29.1892 51.3753 29.2541 51.1327Z" fill="#1C1D1C"/>
    <path d="M27.8986 41.0218L28.0789 51.3754C28.0733 51.4053 28.0743 51.4361 28.082 51.4655C28.0897 51.495 28.1039 51.5224 28.1235 51.5458C28.1432 51.5692 28.1678 51.588 28.1956 51.601C28.2234 51.6139 28.2538 51.6206 28.2846 51.6206C28.3153 51.6206 28.3457 51.6139 28.3735 51.601C28.4014 51.588 28.426 51.5692 28.4456 51.5458C28.4652 51.5224 28.4794 51.495 28.4871 51.4655C28.4948 51.4361 28.4959 51.4053 28.4902 51.3754L28.7932 41.0575C28.8073 40.9934 28.807 40.927 28.7924 40.863C28.7778 40.799 28.7492 40.7389 28.7086 40.687C28.668 40.6351 28.6165 40.5926 28.5575 40.5625C28.4986 40.5324 28.4337 40.5155 28.3674 40.5128C28.3011 40.5102 28.235 40.5219 28.1738 40.5472C28.1126 40.5725 28.0577 40.6108 28.013 40.6593C27.9684 40.7078 27.935 40.7654 27.9152 40.828C27.8954 40.8907 27.8897 40.9568 27.8986 41.0218Z" fill="#1C1D1C"/>
    <path d="M27.6458 49.9483C27.4925 47.1228 27.1866 44.3074 26.7296 41.5142C26.6214 40.9504 25.8494 41.0147 25.9576 41.6283C26.3617 43.9402 26.8739 46.5161 27.1913 49.356L27.3573 51.147C27.4222 51.3968 27.7469 51.3397 27.7252 51.0543V50.5262L27.6458 49.9483Z" fill="#1C1D1C"/>
    <path d="M44.9029 16.5613C46.7715 16.2545 47.1105 14.6847 45.5883 13.9569C45.5643 13.9436 45.5361 13.9403 45.5097 13.9477C45.4833 13.955 45.461 13.9725 45.4476 13.9961C45.4342 14.0198 45.4308 14.0477 45.4383 14.0738C45.4457 14.0999 45.4633 14.122 45.4873 14.1353C45.6727 14.2211 45.8348 14.3494 45.9602 14.5094C46.0857 14.6695 46.1708 14.8567 46.2087 15.0557C46.1446 15.0168 46.0736 14.9902 45.9995 14.9773C45.9835 14.9731 45.9667 14.9726 45.9504 14.9758C45.9342 14.979 45.9189 14.9859 45.9058 14.9959C45.8926 15.0059 45.882 15.0187 45.8747 15.0334C45.8674 15.0482 45.8636 15.0643 45.8636 15.0807C45.8636 15.0971 45.8674 15.1133 45.8747 15.128C45.882 15.1427 45.8926 15.1555 45.9058 15.1655C45.9189 15.1755 45.9342 15.1824 45.9504 15.1856C45.9667 15.1889 45.9835 15.1884 45.9995 15.1842C46.0569 15.1842 46.1119 15.2067 46.1525 15.2469C46.1931 15.287 46.2159 15.3415 46.2159 15.3982C46.1316 15.6155 45.9948 15.809 45.8175 15.962C45.6402 16.115 45.4277 16.2227 45.1987 16.2759C45.2354 16.213 45.2547 16.1416 45.2547 16.069C45.2547 15.9963 45.2354 15.925 45.1987 15.8621C45.1482 15.7336 45.0327 15.805 45.0905 15.9334C45.1482 16.0618 45.0905 16.176 44.8812 16.3829C44.7297 16.4757 44.773 16.5827 44.9029 16.5613Z" fill="#1C1D1C"/>
    <path d="M38.474 7.50659C38.2503 7.50659 37.9257 7.88477 38.0483 8.02748C38.171 8.17019 38.272 7.66357 38.474 7.50659Z" fill="#1C1D1C"/>
    <path d="M41.613 24.6816C42.0243 24.5674 42.1469 24.6816 42.4211 24.8813C42.5726 24.9884 41.9377 24.6173 43.294 24.0322C41.9738 24.2106 41.1225 24.703 41.613 24.6816Z" fill="#1C1D1C"/>
    <path d="M41.1223 23.1474C40.6489 23.1128 40.1732 23.171 39.7226 23.3186C39.5639 23.39 39.8453 23.5113 40.0184 23.4471C40.369 23.3062 40.7438 23.2335 41.1223 23.233C41.3098 23.2473 41.3171 23.1616 41.1223 23.1474Z" fill="#1C1D1C"/>
    <path d="M42.5656 23.8825C42.0922 23.8479 41.6166 23.9061 41.166 24.0537C41.0073 24.1322 41.2886 24.2464 41.4618 24.1822C41.8124 24.0413 42.1872 23.9686 42.5656 23.9681C42.7388 23.9824 42.7388 23.8967 42.5656 23.8825Z" fill="#1C1D1C"/>
    <path d="M37.0385 9.66135C37.76 9.55431 38.8782 8.66952 39.5852 8.35555C40.2923 8.04159 40.8406 8.17717 41.3095 7.38513C41.3095 7.46362 41.3095 7.54211 41.3095 7.63487C41.3095 8.56962 40.5304 9.06197 39.8666 9.66848C39.7348 9.79228 39.5924 9.90449 39.441 10.0038C38.5716 10.8739 37.7572 11.7962 37.0024 12.7653C36.7284 13.2622 36.5568 13.8078 36.4974 14.3708C36.4835 14.8164 36.5247 15.2621 36.6201 15.698C36.7469 16.5341 37.1473 17.306 37.76 17.8957L38.7989 18.6449C39.2228 18.9302 39.6636 19.1899 40.1191 19.4227C40.1191 19.4227 40.3572 19.5582 40.6747 19.7081H40.7179C41.1312 19.9236 41.5813 20.0615 42.0454 20.1148H42.233C42.5113 20.6176 42.7269 21.1519 42.8751 21.706C42.8318 22.1127 42.8751 22.4196 42.7019 22.5551C42.0437 22.6797 41.373 22.7276 40.7035 22.6979C39.6574 22.6979 38.7123 23.0332 38.4886 23.811C38.3948 24.1464 39.0874 23.8681 39.3327 23.811C39.404 23.8094 39.4748 23.8225 39.5407 23.8496C39.6065 23.8766 39.6659 23.9169 39.7151 23.968C39.6072 24.0851 39.526 24.2238 39.477 24.3747C39.3832 24.7101 40.0758 24.4318 40.3211 24.3747C40.1547 24.5388 40.0459 24.7514 40.0109 24.9812C39.9985 25.2158 40.0786 25.4461 40.2346 25.6234C40.4726 25.9159 41.0715 25.181 41.5332 25.181C41.7785 25.181 42.0382 25.5877 42.1609 25.709C42.2835 25.8303 42.8029 26.2228 42.8823 25.8945C42.948 25.6169 43.071 25.3557 43.2436 25.1273C43.4161 24.899 43.6346 24.7083 43.8851 24.5673L44.0222 24.496C44.3829 24.2962 44.3252 24.1321 44.3252 23.7824C44.2619 23.3465 44.3014 22.9021 44.4407 22.4838C44.5372 22.3201 44.5681 22.1266 44.5272 21.9415C44.6499 21.6347 44.8158 21.5419 44.8519 21.1495C44.9962 21.2779 45.09 21.2494 45.1549 21.1495C45.9918 21.8131 46.7565 22.4838 47.3986 22.9975C47.8444 23.4906 48.4183 23.8534 49.058 24.0465C49.563 24.0465 51.0276 23.7182 51.0276 22.9476C50.9764 22.7104 50.8618 22.491 50.6957 22.3125C49.9337 21.5024 49.2636 20.6123 48.6973 19.6581C49.1734 19.701 49.6207 19.7224 50.0175 19.7224C50.2556 19.7224 52.0737 19.6153 51.5037 19.1515C50.6886 18.5839 49.9598 17.9039 49.3394 17.1322C49.5679 16.7167 49.6824 16.2493 49.6712 15.7764C49.6466 15.3362 49.474 14.9168 49.1806 14.5848C49.0809 14.2051 48.8819 13.8581 48.6035 13.5787C48.8055 13.2077 47.3048 12.4656 47.0163 12.3728C47.1245 11.9019 45.3064 11.7021 44.9818 11.7021C44.3509 11.653 43.7227 11.8247 43.207 12.1873C43.173 12.2081 43.1456 12.2377 43.1276 12.2729C42.8301 12.329 42.5521 12.4592 42.3196 12.6511C42.1897 12.7439 40.5664 13.4075 40.4221 13.4788C40.2961 13.5866 40.1636 13.6867 40.0253 13.7785L39.9243 13.8213C39.8838 13.4663 39.9385 13.107 40.0831 12.7795C40.4636 12.0414 40.9495 11.3614 41.526 10.7602C41.8651 10.3321 42.1969 9.89682 42.5072 9.45442C42.8559 8.96565 43.1012 8.41231 43.2286 7.82753C43.2789 7.44003 43.2401 7.0463 43.1152 6.67567C42.9903 6.30505 42.7824 5.96706 42.5072 5.68689C42.269 5.40098 41.9708 5.16987 41.6331 5.00966C41.2954 4.84945 40.9265 4.76401 40.552 4.75928C39.7007 4.75928 39.2822 5.23735 38.6113 5.62267C38.3054 5.71208 38.0225 5.86538 37.7816 6.0722C37.4858 6.37189 37.6085 6.99268 37.5724 7.41367C37.4137 7.68482 37.1828 7.9631 37.0024 8.21998C36.6706 8.67665 36.2305 8.8479 36.2305 9.14759C36.2331 9.27738 36.2787 9.40273 36.3603 9.50437C36.5619 9.63124 36.801 9.68659 37.0385 9.66135ZM39.6069 23.6041C39.4129 23.5789 39.2165 23.5789 39.0225 23.6041C38.9143 23.6041 38.9143 23.5398 39.2317 23.2758C39.8242 23.0241 40.4627 22.8954 41.1075 22.8976C41.3456 22.8976 42.3845 22.8192 42.8102 22.7977C43.2358 22.7763 43.0987 21.756 43.106 21.4349C43.106 21.4349 42.5288 20.1933 42.5144 20.1576H42.5649C42.6298 20.1576 42.7164 20.1576 42.7597 20.1576C42.803 20.1576 43.243 21.2279 43.243 21.2565C43.243 21.285 43.2791 21.5062 43.3008 21.8202C43.3569 22.1915 43.3569 22.5691 43.3008 22.9405C43.1565 23.3971 42.6442 23.3329 42.334 23.3757C41.9279 23.397 41.5209 23.397 41.1147 23.3757C40.7511 23.4412 40.3973 23.5514 40.0614 23.704C39.9081 23.6793 39.7563 23.6459 39.6069 23.6041ZM45.1116 19.6367C45.6599 19.9079 45.1549 18.8518 45.1116 18.7234C45.5931 18.9334 46.087 19.1145 46.5906 19.2657C46.8792 19.5297 47.1894 19.8579 47.1894 20.1434C47.1894 20.3217 47.1894 20.4787 46.7349 20.4787C46.2091 20.513 45.6908 20.3413 45.292 20.0006C45.2687 19.8646 45.206 19.7382 45.1116 19.6367ZM49.7073 21.7417C50.0568 22.1073 50.3686 22.5065 50.638 22.9333C50.638 23.3472 49.361 23.6469 49.0869 23.6469C48.5602 23.6469 45.7609 21.1851 45.2631 20.7927C45.2703 20.6643 45.2703 20.5357 45.2631 20.4074C45.5616 20.6016 45.9032 20.7216 46.2587 20.757C46.9428 21.408 47.6655 22.0179 48.4231 22.5837C48.4446 22.5943 48.4691 22.5975 48.4927 22.5928C48.5163 22.5882 48.5376 22.5759 48.5533 22.5579C48.569 22.5399 48.5782 22.5172 48.5795 22.4934C48.5807 22.4697 48.5739 22.4462 48.5602 22.4267C47.9181 21.8987 47.2543 21.3778 46.6628 20.7855H46.7133C46.8476 20.8047 46.9846 20.7891 47.111 20.7403C47.2374 20.6916 47.349 20.6113 47.4347 20.5073C47.9614 21.1352 48.5674 21.7132 49.1374 22.2983C49.1577 22.3106 49.1816 22.316 49.2053 22.3135C49.2291 22.311 49.2513 22.3009 49.2686 22.2846C49.2859 22.2683 49.2973 22.2468 49.3009 22.2235C49.3046 22.2001 49.3003 22.1763 49.2889 22.1556C48.6526 21.5146 48.0597 20.8329 47.5141 20.1148C47.4494 19.8573 47.3342 19.6149 47.175 19.4013C47.5501 19.4869 47.8964 19.544 48.2788 19.6082C48.648 20.384 49.1292 21.1027 49.7073 21.7417ZM45.0467 11.9732C45.5741 11.9773 46.0957 12.0814 46.5834 12.2801C46.4896 12.3942 46.67 12.5798 46.8575 12.6226C47.4085 12.7318 47.9122 13.0058 48.3005 13.4075C48.2427 13.486 48.3005 13.5859 48.3654 13.6715C48.52 13.7936 48.6487 13.9447 48.744 14.1161C48.8393 14.2875 48.8995 14.4759 48.9209 14.6704C48.9209 14.8845 49.4259 15.1057 49.4259 15.755C49.4191 16.1201 49.3355 16.4797 49.1806 16.8111C49.0087 16.6069 48.8497 16.3924 48.7045 16.1689C49.0941 16.2046 49.0363 15.1128 48.3005 14.6348C48.351 14.4992 48.149 14.2066 48.0768 14.0925C47.9021 13.8782 47.6828 13.7035 47.4339 13.5804C47.1849 13.4573 46.9121 13.3886 46.6339 13.3789C46.6916 12.9651 45.4146 12.5726 45.1549 12.5441C44.8998 12.4755 44.6308 12.4755 44.3757 12.5441C44.4262 12.4228 44.1882 12.3015 43.8058 12.2658C44.1758 12.0363 44.6118 11.9335 45.0467 11.9732ZM39.0947 5.78678C39.1323 5.74086 39.176 5.70008 39.2245 5.66548C39.5907 5.35348 40.0484 5.1659 40.5304 5.13032C41.1664 5.15259 41.7686 5.41919 42.2091 5.87351C42.6496 6.32783 42.8937 6.93408 42.8895 7.56352C42.8612 7.69986 42.8443 7.83828 42.839 7.97738C42.8026 8.1269 42.7519 8.27264 42.6875 8.41264C42.5788 8.62045 42.4558 8.82071 42.3196 9.01202C42.0454 9.43301 41.7496 9.8326 41.4538 10.2393C40.9849 10.8744 40.4582 11.488 40.0109 12.1516C39.7843 12.4675 39.636 12.8317 39.578 13.2148C39.5659 13.5697 39.5999 13.9246 39.679 14.2709C39.686 14.3203 39.7038 14.3676 39.7313 14.4095C39.7587 14.4514 39.795 14.4869 39.8378 14.5135C39.8559 14.5256 39.8768 14.5332 39.8986 14.5357C39.9203 14.5381 39.9424 14.5354 39.9629 14.5277C39.9834 14.5201 40.0017 14.5076 40.0164 14.4915C40.031 14.4753 40.0415 14.456 40.047 14.435C40.0652 14.4471 40.086 14.4547 40.1078 14.4572C40.1296 14.4597 40.1516 14.4569 40.1721 14.4493C40.1926 14.4416 40.2109 14.4291 40.2256 14.413C40.2402 14.3968 40.2507 14.3775 40.2562 14.3565L40.3067 14.2209C40.9836 13.922 41.6371 13.5738 42.2619 13.1791C42.4776 12.9445 42.7557 12.7745 43.0644 12.6887C43.3731 12.6029 43.7 12.6047 44.0078 12.6939C43.9284 12.8794 43.7986 13.0721 44.3108 12.9008C44.6348 12.8136 44.9747 12.8004 45.3047 12.8622C45.6347 12.924 45.9461 13.0592 46.2154 13.2576C45.3641 13.7571 45.8691 13.6429 46.2804 13.6001C46.5804 13.5836 46.88 13.6399 47.1529 13.7643C47.4258 13.8887 47.6638 14.0773 47.8459 14.3137H47.5934C47.3048 14.3137 46.67 14.3636 47.5501 14.6276C48.2139 14.8274 48.5674 15.1343 48.6107 15.7265L48.3365 15.6123C48.0985 15.5196 47.6151 15.1485 48.084 15.9192C48.286 16.2331 48.5025 16.5399 48.7261 16.8396C48.7305 17.0084 48.7086 17.1769 48.6612 17.3391C48.5747 17.4988 48.4439 17.6307 48.2841 17.7192C48.1243 17.8077 47.9422 17.8491 47.7594 17.8386C47.8404 17.664 47.8823 17.4741 47.8823 17.282C47.8823 17.0899 47.8404 16.9001 47.7594 16.7255C47.7569 16.7094 47.7509 16.6942 47.7416 16.6808C47.7323 16.6674 47.7201 16.6563 47.7059 16.6483C47.6916 16.6403 47.6758 16.6356 47.6594 16.6345C47.6431 16.6335 47.6267 16.6361 47.6115 16.6422C47.5963 16.6483 47.5828 16.6578 47.5718 16.6698C47.5609 16.6819 47.5529 16.6962 47.5483 16.7118C47.5438 16.7274 47.5429 16.7438 47.5457 16.7597C47.5486 16.7757 47.555 16.7908 47.5646 16.804C47.6196 16.9368 47.6412 17.0809 47.6273 17.2238C47.6135 17.3668 47.5647 17.5042 47.4852 17.6243C47.4056 17.7444 47.2977 17.8436 47.1708 17.9132C47.0439 17.9829 46.9017 18.021 46.7565 18.0241C46.5961 18.0236 46.4363 18.0044 46.2804 17.967C46.4712 17.7291 46.5617 17.4274 46.5329 17.125C46.5329 16.9895 46.367 16.9895 46.3309 17.125C46.2931 17.291 46.2027 17.4407 46.073 17.5523C45.9432 17.664 45.7808 17.7318 45.6094 17.7458C45.5863 17.7519 45.5659 17.7653 45.5514 17.784C45.5368 17.8027 45.5289 17.8257 45.5289 17.8493C45.5289 17.8729 45.5368 17.8959 45.5514 17.9146C45.5659 17.9333 45.5863 17.9467 45.6094 17.9528C45.8101 17.9401 46.004 17.8762 46.1722 17.7672L46.0351 17.967C45.8547 18.2096 46.7565 18.231 46.7565 18.231C46.8452 18.2419 46.9348 18.2419 47.0235 18.231C47.8158 18.4449 48.628 18.5788 49.4476 18.6306C49.5847 18.6306 49.7289 18.4808 49.5847 18.4737C48.8358 18.4102 48.0944 18.2789 47.3698 18.0812L47.4852 17.9884C47.4851 18.0019 47.4879 18.0153 47.4934 18.0276C47.499 18.0399 47.5073 18.0508 47.5176 18.0596C47.5279 18.0685 47.54 18.075 47.5531 18.0787C47.5662 18.0824 47.58 18.0833 47.5934 18.0812C48.5602 18.0812 48.755 17.6888 48.8921 17.439C48.9176 17.338 48.9369 17.2355 48.9498 17.1322C49.5614 17.8894 50.2398 18.5915 50.9771 19.23C51.0997 19.3228 50.371 19.3727 50.0103 19.3727C47.5856 19.3926 45.2142 18.6697 43.2214 17.3034C42.0743 16.44 42.2258 16.8254 43.0771 17.4961L44.2603 18.3809C44.6643 18.6877 44.9313 18.9945 44.9818 19.23C45.0323 19.4655 44.116 18.6806 44.8519 19.6296C45.0051 19.9944 45.0255 20.4004 44.9096 20.7784C44.8097 20.7149 44.7316 20.6228 44.686 20.5144C44.4767 20.0149 44.318 20.1219 44.4984 20.6714C44.5925 20.9321 44.5925 21.217 44.4984 21.4777V21.5348C44.4201 21.7668 44.3645 22.0058 44.3324 22.2483C44.3021 22.3555 44.2585 22.4586 44.2026 22.5551C44.175 22.6041 44.1556 22.6571 44.1449 22.7121C44.0871 23.1902 44.0511 23.6611 44.0511 23.8395C44.0696 23.9422 44.0526 24.048 44.0029 24.1399C43.9531 24.2318 43.8735 24.3045 43.7769 24.3461L43.6398 24.4175C43.1053 24.6796 42.6923 25.134 42.4855 25.6876L42.4206 25.6305C42.1609 25.3879 41.9877 24.9883 41.4538 24.9883C41.0743 25.0277 40.7127 25.1683 40.4077 25.3951C40.3487 25.2963 40.3282 25.1795 40.35 25.0668C40.5809 24.2819 41.324 24.3533 40.8045 24.2177C40.5168 24.1568 40.2193 24.1568 39.9315 24.2177C40.1413 23.9914 40.4024 23.8176 40.6935 23.7109C40.9846 23.6042 41.2971 23.5676 41.6053 23.6041C41.8939 23.6041 42.1825 23.6041 42.4278 23.6397C43.1493 23.6397 43.5966 23.3829 43.7048 22.7407C43.7048 22.6479 43.5821 22.4196 43.5677 22.2555V22.1912C43.5677 21.9843 43.5677 21.6347 43.5677 21.3849C43.5677 21.2422 43.5677 21.1352 43.5677 21.0995C43.5028 20.914 43.4306 20.7356 43.409 20.6571V20.6072C43.1348 19.8365 42.5937 19.3727 42.3629 18.5807C42.3654 18.324 42.3087 18.0702 42.1969 17.8386C42.1889 17.8213 42.1774 17.8057 42.1633 17.7927C42.1492 17.7797 42.1326 17.7696 42.1145 17.763C42.0964 17.7564 42.0772 17.7534 42.0579 17.7541C42.0386 17.7548 42.0197 17.7593 42.0021 17.7672C41.9846 17.7752 41.9688 17.7865 41.9557 17.8005C41.9426 17.8145 41.9324 17.8309 41.9257 17.8488C41.919 17.8667 41.9159 17.8857 41.9167 17.9048C41.9174 17.9238 41.9219 17.9426 41.93 17.9599C41.9805 18.0598 41.93 18.2096 41.829 18.3666H41.7496C41 18.2813 40.3074 17.9287 39.8017 17.3748C39.773 17.3492 39.7352 17.336 39.6966 17.338C39.6581 17.34 39.6219 17.3571 39.5961 17.3855C39.5702 17.4139 39.5569 17.4513 39.5589 17.4894C39.5609 17.5275 39.5782 17.5633 39.6069 17.5889C40.2744 18.1578 41.0294 18.6179 41.8434 18.9517C41.9444 19.0159 42.435 19.5226 42.3124 19.7794C41.2518 19.4644 40.269 18.9347 39.4265 18.2239C39.4265 18.3452 39.3688 18.4665 39.34 18.5878C38.2939 17.9491 37.4881 16.9893 37.0457 15.8549C36.9303 15.3878 36.8722 14.9087 36.8726 14.4278C36.9405 13.9369 37.0739 13.457 37.2694 13.0007C37.9782 12.0598 38.7571 11.1725 39.5997 10.3464L40.0037 9.99671C40.7252 9.38306 41.6414 8.78368 41.6414 7.60633C41.641 7.25582 41.5699 6.90892 41.4322 6.58596C41.2374 6.06507 41.1941 5.80819 41.0354 6.62164C40.8767 7.43508 40.4438 7.71336 39.8522 7.73477L40.047 7.61347C40.047 7.61347 39.8522 7.66341 39.5564 7.28523C39.5564 7.19961 39.5203 7.09971 39.5564 7.07117C39.7296 6.98756 39.888 6.87671 40.0253 6.74294C40.0566 6.72701 40.0844 6.70514 40.1071 6.67859C40.1298 6.65204 40.147 6.62133 40.1578 6.5882C40.1685 6.55507 40.1725 6.52017 40.1696 6.48551C40.1667 6.45084 40.1569 6.41709 40.1408 6.38616C40.1247 6.35524 40.1026 6.32776 40.0757 6.30529C40.0489 6.28281 40.0178 6.26579 39.9843 6.25519C39.9508 6.24459 39.9155 6.24062 39.8805 6.2435C39.8454 6.24638 39.8113 6.25607 39.78 6.272H39.7223C39.5554 6.33775 39.3843 6.39257 39.2101 6.43611C39.1834 6.43225 39.1581 6.42171 39.1366 6.40548C39.1151 6.38924 39.0982 6.36786 39.0874 6.34335C39.0354 6.17231 39.0135 5.99371 39.0225 5.81533L39.0947 5.78678ZM39.679 6.55742C39.679 6.5433 39.6833 6.52951 39.6912 6.51777C39.6991 6.50604 39.7104 6.49689 39.7236 6.49149C39.7368 6.48609 39.7513 6.48468 39.7653 6.48743C39.7793 6.49019 39.7921 6.49698 39.8022 6.50696C39.8123 6.51694 39.8192 6.52965 39.8219 6.5435C39.8247 6.55734 39.8233 6.57168 39.8178 6.58472C39.8124 6.59776 39.8031 6.6089 39.7913 6.61674C39.7794 6.62459 39.7655 6.62877 39.7512 6.62877C39.732 6.62877 39.7137 6.62125 39.7002 6.60787C39.6866 6.59449 39.679 6.57634 39.679 6.55742ZM36.8726 8.79082C37.1695 8.51602 37.4378 8.21243 37.6734 7.88461C37.9908 7.42794 37.9403 7.23529 38.1207 7.23529C38.3603 7.23809 38.5921 7.15146 38.77 6.99268C38.8796 6.98005 38.9905 7.00229 39.0865 7.05618C39.1825 7.11007 39.2586 7.1928 39.3039 7.29237C39.3148 7.34414 39.3148 7.39758 39.3039 7.44935C39.3073 7.47541 39.3073 7.50178 39.3039 7.52784C39.2657 7.47219 39.2342 7.41233 39.2101 7.34945C39.1019 7.02836 38.7844 7.70623 37.6157 8.68379C37.5074 8.77655 37.6157 8.88358 37.7239 8.78368L39.0658 7.68482C39.099 7.75276 39.1456 7.81342 39.2029 7.86321C39.2029 7.9631 39.2029 8.04159 39.1596 8.10581C38.3227 8.56248 37.3559 9.38306 36.9375 9.38306C36.6778 9.38306 36.5551 9.33311 36.5551 9.11905C36.5551 8.90499 36.6706 8.95493 36.8365 8.79082H36.8726Z" fill="#1C1D1C"/>
    <path d="M11.759 15.9407C11.8167 15.8123 11.7013 15.7409 11.6508 15.8694C11.6161 15.9329 11.5979 16.0041 11.5979 16.0763C11.5979 16.1486 11.6161 16.2197 11.6508 16.2832C11.4217 16.2301 11.2093 16.1223 11.032 15.9693C10.8547 15.8163 10.7179 15.6228 10.6335 15.4056C10.6335 15.3775 10.6391 15.3496 10.65 15.3237C10.6609 15.2977 10.6768 15.2741 10.6969 15.2542C10.717 15.2343 10.7409 15.2186 10.7671 15.2078C10.7934 15.197 10.8216 15.1915 10.85 15.1915C10.873 15.183 10.8924 15.167 10.905 15.1461C10.9176 15.1252 10.9227 15.1007 10.9193 15.0766C10.916 15.0525 10.9044 15.0303 10.8865 15.0135C10.8687 14.9968 10.8456 14.9866 10.8211 14.9846C10.7462 14.9945 10.6746 15.0213 10.6119 15.0631C10.6509 14.8645 10.7364 14.6777 10.8618 14.5178C10.9871 14.358 11.1486 14.2294 11.3334 14.1426C11.3452 14.136 11.3556 14.1272 11.364 14.1167C11.3724 14.1061 11.3786 14.0941 11.3823 14.0811C11.386 14.0682 11.3871 14.0547 11.3855 14.0414C11.3839 14.0281 11.3797 14.0152 11.373 14.0035C11.3664 13.9917 11.3575 13.9814 11.3468 13.9731C11.3362 13.9648 11.324 13.9587 11.3109 13.955C11.2978 13.9514 11.2842 13.9503 11.2707 13.9519C11.2572 13.9535 11.2442 13.9576 11.2323 13.9642C9.71007 14.6778 10.0492 16.2618 11.9538 16.5687C12.0837 16.5687 12.1414 16.4759 12.0404 16.3903C11.7518 16.1833 11.7229 16.0406 11.759 15.9407Z" fill="#1C1D1C"/>
    <path d="M18.7577 8.02748C18.8876 7.87764 18.5629 7.50659 18.332 7.50659C18.5052 7.66357 18.6206 8.14878 18.7577 8.02748Z" fill="#1C1D1C"/>
    <path d="M14.3561 24.8813C14.4552 24.7763 14.5826 24.7016 14.7233 24.6662C14.864 24.6308 15.012 24.6361 15.1497 24.6815C15.6476 24.6815 14.789 24.2034 13.4688 24.0393C14.8467 24.6173 14.2119 24.9741 14.3561 24.8813Z" fill="#1C1D1C"/>
    <path d="M16.759 23.447C16.9321 23.5113 17.2135 23.39 17.0547 23.3186C16.6039 23.1721 16.1285 23.1139 15.6551 23.1474C15.4603 23.1474 15.4675 23.2473 15.6551 23.233C16.0336 23.2335 16.4083 23.3062 16.759 23.447Z" fill="#1C1D1C"/>
    <path d="M15.3371 24.1822C15.5102 24.2464 15.7916 24.1251 15.6329 24.0537C15.182 23.9072 14.7066 23.849 14.2332 23.8825C14.0385 23.8825 14.0457 23.9824 14.2332 23.9681C14.6113 23.9728 14.9853 24.0453 15.3371 24.1822Z" fill="#1C1D1C"/>
    <path d="M9.37789 23.0691C10.02 22.5553 10.7847 21.8917 11.6216 21.221C11.6866 21.3423 11.7803 21.3709 11.9246 21.221C11.9679 21.6135 12.1266 21.6991 12.2493 22.013C12.2268 22.1046 12.2229 22.1997 12.2377 22.2928C12.2526 22.3858 12.286 22.4751 12.3359 22.5553C12.4751 22.9736 12.5146 23.4181 12.4513 23.854C12.4513 24.1751 12.3936 24.3392 12.7543 24.5675L12.8914 24.6389C13.1412 24.7809 13.359 24.9718 13.5314 25.2001C13.7039 25.4283 13.8273 25.689 13.8942 25.9661C13.988 26.2943 14.5363 25.8733 14.6157 25.7806C14.695 25.6878 15.0053 25.2525 15.2433 25.2525C15.7051 25.2525 16.3039 25.9661 16.542 25.6949C16.6979 25.5177 16.7781 25.2874 16.7656 25.0528C16.7273 24.824 16.619 24.6123 16.4554 24.4462C16.7007 24.4462 17.3933 24.7602 17.2995 24.4462C17.2505 24.2954 17.1693 24.1567 17.0614 24.0395C17.1106 23.9885 17.17 23.9482 17.2359 23.9211C17.3017 23.8941 17.3725 23.8809 17.4438 23.8825C17.6891 23.8825 18.3817 24.1965 18.2879 23.8825C18.0642 23.0976 17.1264 22.7694 16.073 22.7694C15.4035 22.7991 14.7328 22.7512 14.0746 22.6267C13.8942 22.5054 13.9447 22.1843 13.9014 21.7776C14.0496 21.2234 14.2652 20.6891 14.5435 20.1864H14.7311C15.1952 20.1331 15.6453 19.9952 16.0586 19.7796H16.1019C16.4193 19.6298 16.6574 19.4942 16.6574 19.4942C17.1144 19.2641 17.5555 19.0043 17.9777 18.7165L19.0166 17.9672C19.6448 17.3599 20.0465 16.5601 20.1565 15.6982C20.2491 15.262 20.2879 14.8163 20.2719 14.371C20.211 13.8083 20.0395 13.2629 19.7669 12.7655C19.008 11.791 18.1887 10.864 17.3139 9.98978C17.1608 9.89266 17.0182 9.78029 16.8883 9.65441C16.2245 9.05503 15.4454 8.56268 15.4454 7.6208C15.4454 7.52804 15.4454 7.44955 15.4454 7.37106C15.9143 8.1631 16.4987 8.04179 17.1696 8.34148C17.8406 8.64117 19.0238 9.54024 19.7164 9.64727C19.827 9.65789 19.9387 9.64561 20.0443 9.61121C20.1498 9.57681 20.247 9.52105 20.3296 9.44748C20.4155 9.34822 20.4617 9.22132 20.4595 9.09071C20.4595 8.79102 20.0266 8.61977 19.6875 8.1631C19.4999 7.90622 19.2763 7.62794 19.1176 7.35679C19.0815 6.9358 19.2042 6.31501 18.9084 6.01532C18.6657 5.81111 18.3833 5.65814 18.0787 5.56578C17.4149 5.18047 16.9893 4.70239 16.138 4.70239C15.7637 4.70855 15.3953 4.79463 15.0578 4.95473C14.7204 5.11484 14.4219 5.34519 14.1828 5.63C13.9075 5.91018 13.6997 6.24816 13.5748 6.61879C13.4498 6.98942 13.4111 7.38314 13.4613 7.77065C13.5965 8.35292 13.8412 8.90483 14.1828 9.39753C14.493 9.84707 14.8321 10.2752 15.164 10.7033C15.7404 11.3045 16.2264 11.9846 16.6069 12.7227C16.7514 13.0501 16.8062 13.4094 16.7656 13.7644L16.6646 13.7216C16.5263 13.6298 16.3938 13.5297 16.2678 13.4219C16.1235 13.3434 14.5002 12.7084 14.3704 12.5942C14.1388 12.4009 13.8603 12.2706 13.5623 12.216C13.5482 12.1806 13.5229 12.1506 13.4902 12.1304C12.9739 11.769 12.3461 11.5973 11.7154 11.6452C11.3908 11.6452 9.55104 11.8521 9.68091 12.3159C9.39232 12.4087 7.89169 13.1508 8.0937 13.5218C7.81897 13.804 7.62049 14.15 7.51653 14.5279C7.22898 14.855 7.05679 15.2658 7.02594 15.6982C7.01203 16.1713 7.12663 16.6395 7.35781 17.0539C6.75042 17.8249 6.03358 18.505 5.22951 19.0732C4.65956 19.5442 6.47042 19.6441 6.71571 19.6441C7.11973 19.6441 7.56703 19.6441 8.03598 19.5799C7.46966 20.534 6.79953 21.4241 6.03754 22.2342C5.86903 22.4111 5.75405 22.6311 5.70567 22.8693C5.70567 23.6399 7.14859 23.9682 7.67525 23.9682C8.20192 23.9682 8.70694 23.59 9.37789 23.0691ZM11.6866 19.6369C11.6047 19.7341 11.5544 19.8535 11.5423 19.9794C11.1416 20.3167 10.6246 20.488 10.0994 20.4575C9.63762 20.4575 9.64483 20.3005 9.64483 20.1221C9.64483 19.9438 9.95506 19.5156 10.2436 19.2445C10.7468 19.0921 11.2406 18.911 11.7226 18.7022C11.6216 18.8449 11.1166 19.9081 11.6721 19.6369H11.6866ZM13.7066 21.4422C13.7066 21.7562 13.5696 22.7837 14.0024 22.8051C14.4353 22.8265 15.4454 22.9121 15.7051 22.905C16.3498 22.9041 16.9879 23.0328 17.5809 23.2832C17.8983 23.5472 17.8983 23.6114 17.7901 23.6114C17.5961 23.5863 17.3997 23.5863 17.2057 23.6114L16.7584 23.7327C16.4229 23.5793 16.0689 23.4689 15.7051 23.4045C15.299 23.4293 14.8918 23.4293 14.4858 23.4045C14.1756 23.3616 13.6634 23.4045 13.5191 22.9692C13.4628 22.5978 13.4628 22.2203 13.5191 21.8489C13.5191 21.535 13.5768 21.2852 13.5768 21.2852C13.5768 21.2852 14.0313 20.272 14.0602 20.1864C14.1247 20.176 14.1904 20.176 14.2549 20.1864H14.3271C14.3271 20.1864 13.7066 21.4065 13.7066 21.4422ZM18.7568 7.23548C18.9372 7.23548 18.8867 7.42101 19.2042 7.88481C19.4317 8.21881 19.7008 8.52325 20.005 8.79102C20.1709 8.95513 20.3008 9.00508 20.3008 9.11211C20.3008 9.32618 20.1781 9.37613 19.9184 9.37613C19.4999 9.37613 18.5404 8.55555 17.6963 8.09888C17.6963 8.03466 17.6963 7.95617 17.653 7.85627C17.7103 7.80648 17.7569 7.74582 17.7901 7.67788L19.132 8.77675C19.2402 8.86951 19.3557 8.77675 19.2402 8.67685C18.0787 7.69929 17.754 7.01429 17.6458 7.34252C17.6232 7.40606 17.5916 7.46612 17.552 7.5209C17.5486 7.49485 17.5486 7.46847 17.552 7.44241C17.5493 7.38781 17.5618 7.33353 17.5881 7.28543C17.6296 7.2011 17.6927 7.12902 17.7712 7.07642C17.8497 7.02382 17.9408 6.99255 18.0354 6.98574C18.2132 7.15008 18.4486 7.23963 18.6919 7.23548H18.7568ZM7.93498 14.6706C7.98134 14.2787 8.18068 13.9203 8.4905 13.6717C8.53299 13.6439 8.56329 13.6012 8.57533 13.5523C8.58737 13.5033 8.58026 13.4517 8.55543 13.4077C8.94485 13.0074 9.44805 12.7337 9.99835 12.6228C10.1859 12.58 10.3663 12.3944 10.2725 12.2803C10.7599 12.081 11.2818 11.9768 11.8092 11.9734C12.2403 11.9358 12.6719 12.0412 13.0357 12.2731C12.6533 12.3088 12.4224 12.4301 12.4657 12.5514C12.2102 12.4858 11.9421 12.4858 11.6866 12.5514C11.434 12.5871 10.1571 12.9724 10.2076 13.3863C9.92976 13.3977 9.65755 13.4672 9.40886 13.5902C9.16016 13.7132 8.94061 13.8869 8.76465 14.0998C8.69251 14.214 8.4905 14.5065 8.541 14.6421C7.81954 15.1202 7.7474 16.2119 8.13699 16.1762C7.98927 16.3981 7.83035 16.6124 7.66082 16.8184C7.50591 16.487 7.42238 16.1274 7.41553 15.7624C7.37945 15.1059 7.87005 14.8918 7.88448 14.6706H7.93498ZM6.78786 19.3444C6.42713 19.3444 5.69846 19.2944 5.82111 19.2017C6.55936 18.572 7.23794 17.877 7.8484 17.1252C7.86197 17.2285 7.88124 17.3309 7.90612 17.4321C8.03598 17.6818 8.23799 18.0743 9.20474 18.0743C9.21821 18.0763 9.23198 18.0755 9.24508 18.0718C9.25818 18.068 9.2703 18.0615 9.28061 18.0527C9.29091 18.0439 9.29914 18.0329 9.30473 18.0206C9.31031 18.0083 9.31312 17.995 9.31296 17.9815L9.4284 18.0743C8.70479 18.2761 7.96297 18.4075 7.21352 18.4667C7.07644 18.4667 7.21352 18.638 7.3506 18.6237C8.17021 18.5719 8.9824 18.438 9.7747 18.2241C9.86331 18.2354 9.95302 18.2354 10.0416 18.2241C10.0416 18.2241 10.9579 18.2241 10.7631 17.9601C10.7118 17.8974 10.6659 17.8306 10.626 17.7603C10.769 17.856 10.9316 17.9193 11.1022 17.9458C11.1272 17.9452 11.1513 17.936 11.1702 17.9198C11.1892 17.9036 11.2019 17.8814 11.2061 17.857C11.2104 17.8326 11.2059 17.8075 11.1936 17.7859C11.1812 17.7644 11.1616 17.7478 11.1383 17.7389C10.9668 17.7248 10.8045 17.657 10.6747 17.5454C10.5449 17.4337 10.4546 17.2841 10.4168 17.1181C10.3807 16.9897 10.2364 16.9897 10.2148 17.1181C10.1982 17.4216 10.2987 17.72 10.4962 17.953C10.3402 17.9899 10.1804 18.0091 10.02 18.01C9.87486 18.0069 9.73268 17.9688 9.60573 17.8992C9.47879 17.8295 9.37089 17.7304 9.29135 17.6103C9.21181 17.4901 9.16302 17.3527 9.14919 17.2098C9.13535 17.0668 9.1569 16.9227 9.21196 16.7899C9.22154 16.7767 9.22798 16.7616 9.2308 16.7457C9.23361 16.7297 9.23272 16.7133 9.2282 16.6977C9.22368 16.6822 9.21565 16.6678 9.2047 16.6558C9.19376 16.6437 9.18019 16.6343 9.16502 16.6282C9.14985 16.622 9.13347 16.6194 9.11712 16.6205C9.10078 16.6215 9.08489 16.6262 9.07065 16.6343C9.05641 16.6423 9.0442 16.6534 9.03494 16.6667C9.02567 16.6801 9.0196 16.6954 9.01716 16.7114C8.93796 16.8865 8.89702 17.0761 8.89702 17.268C8.89702 17.4598 8.93796 17.6494 9.01716 17.8245C8.83432 17.8351 8.65225 17.7936 8.49244 17.7051C8.33264 17.6166 8.20179 17.4847 8.11534 17.325C8.07161 17.1621 8.04978 16.9942 8.05041 16.8256C8.27406 16.5259 8.4905 16.219 8.69251 15.9051C9.17589 15.1345 8.69251 15.5055 8.44 15.5983L8.18749 15.6982C8.23799 15.0988 8.58429 14.7919 9.24803 14.5993C10.1282 14.3424 9.49333 14.2711 9.20474 14.2853H8.95223C9.13442 14.049 9.37237 13.8604 9.64529 13.736C9.9182 13.6116 10.2178 13.5552 10.5178 13.5718C10.929 13.6075 11.4413 13.7288 10.5827 13.2293C10.8526 13.0318 11.164 12.8972 11.4938 12.8354C11.8236 12.7736 12.1632 12.7863 12.4874 12.8725C12.9996 13.0438 12.8697 12.8725 12.7904 12.6656C13.0908 12.5847 13.4079 12.5872 13.707 12.6728C14.006 12.7584 14.2755 12.9237 14.4858 13.1508C15.1137 13.54 15.7669 13.8881 16.441 14.1926L16.4915 14.3281C16.497 14.3491 16.5075 14.3685 16.5221 14.3846C16.5367 14.4008 16.5551 14.4132 16.5756 14.4209C16.596 14.4286 16.6181 14.4313 16.6399 14.4288C16.6617 14.4263 16.6825 14.4187 16.7007 14.4066C16.7062 14.4276 16.7167 14.447 16.7313 14.4631C16.746 14.4793 16.7643 14.4917 16.7848 14.4994C16.8053 14.5071 16.8273 14.5098 16.8491 14.5073C16.8709 14.5048 16.8917 14.4972 16.9099 14.4851C16.9548 14.4647 16.9948 14.4351 17.0271 14.3982C17.0595 14.3612 17.0835 14.3179 17.0975 14.2711C17.164 13.9256 17.1858 13.5731 17.1624 13.2221C17.1034 12.8394 16.9552 12.4754 16.7296 12.159C16.3111 11.4882 15.7772 10.8817 15.2866 10.2467C14.9908 9.84707 14.695 9.44035 14.4209 9.01935C14.2872 8.82638 14.1644 8.62629 14.0529 8.41997C13.9843 8.2817 13.9334 8.13547 13.9014 7.98471C13.8962 7.84562 13.8793 7.70719 13.8509 7.57085C13.8468 6.94141 14.0909 6.33516 14.5314 5.88084C14.9719 5.42653 15.5741 5.15992 16.2101 5.13766C16.6918 5.17422 17.1492 5.36168 17.5159 5.67282C17.566 5.70553 17.6099 5.74657 17.6458 5.79412V5.86547C17.6556 6.04388 17.6336 6.2226 17.5809 6.3935C17.5809 6.44345 17.5159 6.48626 17.4582 6.48626C17.2843 6.44168 17.1133 6.38688 16.946 6.32214H16.8883C16.8344 6.31214 16.7789 6.31609 16.7271 6.33359C16.6752 6.35109 16.6289 6.38157 16.5925 6.42204C16.5735 6.48608 16.5767 6.55454 16.6015 6.61658C16.6264 6.67862 16.6714 6.73069 16.7296 6.76454C16.8664 6.89892 17.0249 7.00984 17.1985 7.09278C17.2706 7.09278 17.2562 7.22835 17.2346 7.30684C16.9388 7.68502 16.744 7.63507 16.744 7.63507L16.9388 7.75637C16.3544 7.75637 15.9143 7.45668 15.7556 6.64324C15.5969 5.8298 15.5536 6.08667 15.3588 6.60756C15.2218 6.93075 15.1507 7.27751 15.1496 7.62794C15.1496 8.79815 16.073 9.40467 16.7873 10.0183L17.1913 10.368C18.0206 11.1941 18.7851 12.0815 19.4783 13.0224C19.6737 13.4786 19.8072 13.9585 19.8751 14.4494C19.8716 14.9301 19.8135 15.4087 19.702 15.8765C19.2577 17.0098 18.4523 17.9692 17.4077 18.6094C17.372 18.4898 17.3431 18.3683 17.3211 18.2455C16.4786 18.9563 15.4959 19.486 14.4353 19.801C14.3127 19.5442 14.796 19.0376 14.9043 18.9733C15.7187 18.6415 16.472 18.1786 17.1336 17.6033C17.1623 17.5778 17.1795 17.542 17.1816 17.5039C17.1836 17.4657 17.1702 17.4284 17.1444 17.4C17.1186 17.3716 17.0824 17.3545 17.0438 17.3525C17.0053 17.3505 16.9675 17.3637 16.9388 17.3893C16.4364 17.9475 15.7421 18.301 14.9908 18.3811H14.9115C14.8465 18.217 14.76 18.0743 14.8105 17.9744C14.8169 17.9448 14.8136 17.914 14.8012 17.8864C14.7888 17.8588 14.7679 17.8358 14.7414 17.8208C14.7149 17.8057 14.6843 17.7993 14.6539 17.8026C14.6236 17.8058 14.595 17.8185 14.5724 17.8388C14.4804 18.0848 14.4482 18.3488 14.4786 18.6094C14.2477 19.4015 13.7066 19.8653 13.4325 20.6359V20.6858C13.4325 20.7572 13.3387 20.9427 13.2738 21.1282C13.2738 21.1639 13.2738 21.271 13.2738 21.4137C13.2738 21.5564 13.2738 22.013 13.2377 22.22V22.2628C13.2377 22.4269 13.0862 22.6624 13.1006 22.748C13.216 23.3973 13.685 23.6613 14.3776 23.6471C14.6229 23.6471 14.9115 23.6471 15.2001 23.6471C15.5083 23.6094 15.8213 23.6455 16.1125 23.7523C16.4038 23.859 16.6649 24.0334 16.8738 24.2607C16.5858 24.2033 16.289 24.2033 16.0009 24.2607C15.4886 24.382 16.2245 24.3249 16.4554 25.1098C16.4772 25.2225 16.4567 25.3393 16.3977 25.4381C16.0873 25.1874 15.7127 25.0268 15.3155 24.9743C14.7816 24.9743 14.594 25.3739 14.3487 25.6165L14.2838 25.6878C14.0954 25.1558 13.7152 24.7112 13.216 24.4391L13.079 24.3678C12.9824 24.3261 12.9028 24.2534 12.853 24.1615C12.8033 24.0696 12.7863 23.9638 12.8048 23.8611C12.8048 23.6827 12.7687 23.2118 12.711 22.7337C12.7016 22.6784 12.682 22.6252 12.6533 22.5767C12.5986 22.4796 12.555 22.3767 12.5235 22.2699C12.4847 22.0286 12.4293 21.7902 12.3575 21.5564V21.4993C12.2597 21.2392 12.2597 20.953 12.3575 20.693C12.5379 20.1507 12.3575 20.0365 12.1699 20.536C12.1242 20.6444 12.0462 20.7365 11.9463 20.8C11.8304 20.422 11.8508 20.016 12.004 19.6512C12.7255 18.7022 11.8741 19.4585 11.8741 19.2516C11.8741 19.0447 12.1483 18.7093 12.5595 18.4025L13.7066 17.4749C14.5507 16.797 14.7023 16.4117 13.5623 17.2822C11.5726 18.6428 9.20679 19.3629 6.78786 19.3444ZM17.1336 6.55761C17.1336 6.57173 17.1293 6.58552 17.1214 6.59726C17.1135 6.60899 17.1022 6.61814 17.089 6.62354C17.0758 6.62894 17.0613 6.63035 17.0473 6.6276C17.0334 6.62485 17.0205 6.61805 17.0104 6.60807C17.0003 6.59809 16.9934 6.58538 16.9907 6.57154C16.9879 6.55769 16.9893 6.54335 16.9948 6.53031C17.0002 6.51727 17.0095 6.50613 17.0213 6.49829C17.0332 6.49045 17.0472 6.48626 17.0614 6.48626C17.0806 6.48626 17.0989 6.49378 17.1124 6.50716C17.126 6.52054 17.1336 6.53869 17.1336 6.55761ZM6.14576 22.9692C6.41048 22.5392 6.72262 22.1395 7.07644 21.7776C7.65965 21.1369 8.14569 20.4158 8.51936 19.6369C8.88009 19.5799 9.24082 19.5156 9.62319 19.43C9.46402 19.6436 9.34881 19.886 9.2841 20.1436C8.74728 20.8422 8.16145 21.5027 7.53096 22.1201C7.51947 22.1408 7.51522 22.1647 7.51888 22.188C7.52254 22.2113 7.5339 22.2328 7.55119 22.2491C7.56848 22.2654 7.59073 22.2756 7.61447 22.278C7.63822 22.2805 7.66212 22.2751 7.68247 22.2628C8.2452 21.6777 8.85844 21.0997 9.38511 20.4718C9.47087 20.5758 9.58238 20.6561 9.7088 20.7048C9.83523 20.7536 9.97225 20.7692 10.1066 20.7501H10.1571C9.56547 21.3423 8.90173 21.8561 8.25963 22.3912C8.15141 22.4769 8.25963 22.6338 8.39671 22.5482C9.156 21.9846 9.87887 21.3745 10.5611 20.7215C10.9104 20.6882 11.2467 20.5732 11.5423 20.3862C11.5423 20.5075 11.5423 20.643 11.5423 20.7715C11.0445 21.1639 8.25242 23.6257 7.71854 23.6257C7.41553 23.6185 6.14576 23.3474 6.14576 22.9335V22.9692Z" fill="#1C1D1C"/>
    <path d="M27.4148 68.6218L28.2156 69L29.0165 68.6218C57.2615 55.2499 56.4319 28.128 56.4319 27.0648V0H-0.000590262V26.9721C-0.000590262 27.2504 -1.40743 54.9788 27.4148 68.6218ZM1.18982 1.16308H55.2198V27.1148C55.2198 27.3859 56.504 54.3081 28.4898 67.5658L28.2012 67.7013L27.9126 67.5658C-0.0799499 54.3152 1.16817 27.3074 1.18982 27.0006V1.16308Z" fill="#1C1D1C"/>
    <path d="M16.2819 20.543L14.839 21.5848C14.8156 21.638 14.7963 21.6929 14.7812 21.7489C14.7812 21.7846 14.7812 21.8203 14.7812 21.856H14.8462L17.8691 19.7153C17.4867 19.9365 17.0322 20.1863 16.4262 20.4717L16.2819 20.543Z" fill="#1C1D1C"/>
    <path d="M3.19503 33.1229L3.79384 36.391L28.4821 18.6736L52.6221 36.391L53.2281 33.1158C53.5427 31.1983 53.6827 29.2568 53.6466 27.3146V2.85425H2.76937V27.2005C2.73245 29.1832 2.87491 31.1653 3.19503 33.1229ZM52.9396 3.5678V5.88682L49.6714 3.5678H52.9396ZM49.2673 3.5678L52.9396 6.17938V8.01319L46.6845 3.5678H49.2673ZM46.2877 3.5678L52.9468 8.30575V10.1467L43.7049 3.5678H46.2877ZM3.46919 3.5678H7.31456L3.46919 6.29354V3.5678ZM3.46919 6.5861L7.71858 3.5678H10.3014L3.46919 8.41992V6.5861ZM3.46919 8.72674L10.6982 3.5678H13.281L3.46919 10.5463V8.72674ZM7.27849 24.8529L3.46919 27.543C3.46919 27.3432 3.46919 27.229 3.46919 27.2147V25.6878L5.59027 24.1893C5.52453 24.1409 5.46188 24.0884 5.4027 24.0323L3.4764 25.4023V23.5471L4.97704 22.4768C5.03643 22.3165 5.11387 22.1633 5.2079 22.0201L3.46919 23.2688V21.4065L5.1069 20.2434C5.02485 20.2111 4.94528 20.1729 4.86882 20.1292L3.46919 21.1496V19.3158L5.35219 17.9814C5.73977 17.6804 6.09514 17.3409 6.41274 16.9682L3.4764 19.0304V17.1894L6.29009 15.1915C6.32008 15.0645 6.36112 14.9404 6.41274 14.8204L3.48362 16.904V15.0702L12.8193 8.42705C12.8193 8.34856 12.776 8.26293 12.7544 8.18444L3.4764 14.7848V12.9509L12.8554 6.265C12.9137 6.11599 12.9811 5.97063 13.0574 5.82974L3.4764 12.6655V10.8317L13.7067 3.5678H16.2895L15.7845 3.9317C15.9215 3.92462 16.0587 3.92462 16.1957 3.9317L16.6791 3.5678H19.2619L17.9561 4.49541L18.122 4.60957C18.1338 4.60655 18.1462 4.60655 18.1581 4.60957L19.6587 3.5678H22.2415L19.5577 5.47297C19.6141 5.52804 19.6626 5.59046 19.702 5.65849L22.6455 3.5678H25.25L20.0844 7.24256L20.2214 7.42808L25.6324 3.5678H28.2152L21.1882 8.56262C21.2268 8.63309 21.2582 8.70719 21.282 8.78382L28.4966 3.65342L35.5452 8.64825C35.5769 8.57713 35.6131 8.50802 35.6534 8.44132L28.7635 3.5678H31.3463L36.6418 7.33532L36.7933 7.13553L31.7431 3.5678H34.3259L37.1396 5.56573C37.1646 5.52928 37.1936 5.49576 37.2262 5.46583L37.3056 5.39448L34.7372 3.5678H37.32L38.7196 4.56676L38.9577 4.43119L37.7168 3.5678H40.2996L40.783 3.9103C40.9481 3.91719 41.1123 3.93868 41.2736 3.97452L40.7036 3.5678H43.2865L52.9324 10.4321V12.2659L43.5534 5.58713C43.6545 5.74332 43.746 5.90535 43.8275 6.07235L52.9324 12.5585V14.3923L44.0584 8.08455C44.0435 8.16704 44.0218 8.24818 43.9935 8.32715L52.9251 14.6849V16.5187L50.2413 14.6135C50.314 14.7458 50.3744 14.8843 50.4217 15.0274L52.9179 16.8041V18.645L50.3928 16.8469L50.3495 16.9896L50.6453 17.3178L52.9179 18.9305V20.7643L52.0017 20.115C51.9313 20.1646 51.8564 20.2076 51.778 20.2434L52.9179 21.0568V22.8906L51.3307 21.7632V21.7989C51.4609 21.9625 51.5768 22.1368 51.677 22.3198L52.8891 23.1832V25.0242L51.4461 23.9752L51.273 24.1394L52.9251 25.3096V27.1148L49.6569 24.7887L49.3178 24.8386L52.9251 27.4074C52.9251 27.65 52.9251 28.2779 52.9251 29.2198L45.1478 23.7398V24.0252L52.8674 29.5195C52.8674 30.0261 52.7953 30.6041 52.7231 31.2534L44.3831 25.3167L44.2821 25.3738C44.2409 25.3958 44.2022 25.4221 44.1666 25.4523L52.6654 31.5174C52.6149 31.9812 52.55 32.4664 52.4706 32.9873V33.1943L43.3442 26.7081C43.2794 26.7639 43.2064 26.8097 43.1277 26.8437L52.4201 33.4511L52.1027 35.1565L28.4605 17.8387L4.26279 35.1708L4.01028 33.8151L13.7067 26.9008C13.6199 26.8744 13.5373 26.836 13.4614 26.7866L3.96699 33.5368L3.86599 33.0016C3.80827 32.6092 3.75777 32.2381 3.71448 31.8813L12.6678 25.5094C12.6047 25.4561 12.5371 25.4084 12.4658 25.3667L3.68563 31.6387C3.61348 31.0037 3.56298 30.4328 3.51969 29.9191L11.5856 24.2107V23.9039L3.49805 29.6479C3.44754 28.8702 3.43312 28.2637 3.43312 27.8569L7.60314 24.8886C7.49749 24.8573 7.38856 24.8382 7.27849 24.8315V24.8529Z" fill="#1C1D1C"/>
    <path d="M28.4978 16.1047L18.8086 22.9976C18.8519 23.0618 18.9024 23.126 18.9385 23.1903L28.4978 16.4116L37.92 23.1189C37.9591 23.052 38.0025 22.9877 38.0499 22.9262L28.5627 16.1547L28.4978 16.1047Z" fill="#1C1D1C"/>
    <path d="M20.0845 11.7591L28.4967 5.77248L36.7935 11.6664L36.945 11.488L28.5616 5.53701L28.4895 5.48706L19.9258 11.5808C19.9835 11.6378 20.034 11.7021 20.0845 11.7591Z" fill="#1C1D1C"/>
    <path d="M12.4596 10.8104L13.5995 9.98978L13.5057 9.86134L13.4624 9.79712L12.0195 10.8318H12.2504L12.4596 10.8104Z" fill="#1C1D1C"/>
    <path d="M14.4998 11.1956L14.168 11.431L14.37 11.5737L14.6441 11.4168C14.6008 11.3169 14.5503 11.2598 14.4998 11.1956Z" fill="#1C1D1C"/>
    <path d="M28.4973 14.2708L39.4418 22.0556L39.7448 21.9843L28.5622 14.0282L28.49 13.9783L17.1992 22.0128C17.3002 22.0128 17.3868 22.0699 17.4806 22.0984L28.4973 14.2708Z" fill="#1C1D1C"/>
    <path d="M36.001 12.9509L28.57 7.66347L28.4978 7.61353L20.8359 13.065C20.8359 13.1435 20.8864 13.222 20.9153 13.2934L28.4978 7.89894L35.9216 13.1792C35.9437 13.1017 35.9702 13.0254 36.001 12.9509Z" fill="#1C1D1C"/>
    <path d="M19.6816 18.4166L28.4979 12.1303L36.7946 18.0313C36.6489 17.853 36.5163 17.6647 36.3978 17.4676L28.5628 11.9091L28.4906 11.8591L20.2516 17.7245C20.0805 17.9698 19.8899 18.2013 19.6816 18.4166Z" fill="#1C1D1C"/>
    <path d="M28.4971 9.73267L21.1094 14.9844C21.1094 15.0843 21.1094 15.1913 21.1094 15.2912L28.4971 10.0252L35.7117 15.1485C35.7117 15.0486 35.7117 14.9487 35.7117 14.8488L28.5981 9.78975L28.4971 9.73267Z" fill="#1C1D1C"/>
    <path d="M43.2871 9.90406L44.5857 10.8245C44.7156 10.8245 44.8599 10.8245 45.0186 10.8245L43.4098 9.68286L43.3088 9.84698L43.2871 9.90406Z" fill="#1C1D1C"/>
    <path d="M42.0241 21.7562C42.0241 21.6919 41.9591 21.5635 41.8798 21.3851L41.1583 20.8714L40.3431 20.4718L39.8164 20.2078L42.0241 21.7776V21.7562Z" fill="#1C1D1C"/>
    <path d="M42.2923 11.1813L42.2129 11.2812L42.5159 11.4953L42.7179 11.3526L42.3572 11.0957L42.2923 11.1813Z" fill="#1C1D1C"/>
    <path d="M4.5293 39.0738L4.60144 39.3093C7.09769 47.5079 13.1868 58.8034 28.0488 66.0388L28.2075 66.1173L28.3663 66.0388C43.2283 58.8034 49.3246 47.4865 51.8209 39.3093L51.893 39.081L28.4961 21.5134L4.5293 39.0738ZM28.2075 65.3395C13.8289 58.2825 7.84079 47.3652 5.35176 39.345L28.4889 22.3768L51.0778 39.3378C48.5815 47.3581 42.5646 58.2754 28.2075 65.3395Z" fill="#1C1D1C"/>
  </g>
  <defs>
    <clipPath id="clip0_3431_3743">
      <rect width="268" height="69" fill="white"/>
    </clipPath>
  </defs>
</svg>
