<svg xmlns="http://www.w3.org/2000/svg" width="156" height="58" viewBox="0 0 156 58" fill="none">
<g id="Caktus logo horiz color" clip-path="url(#clip0_2265_5519)">
<path id="Vector" d="M68.6053 32.0731H73.2143C72.402 26.6877 67.9624 22.9411 62.3611 22.9411C56.2969 22.9411 51.5471 27.8582 51.5471 34.1373C51.5471 40.4163 56.2969 45.3932 62.3611 45.3932C68.0583 45.3932 72.3989 41.7185 73.2143 36.2299H68.6039C67.9938 39.4179 65.5237 41.5509 62.4211 41.5509C58.641 41.5509 56.0001 38.502 56.0001 34.1358C56.0001 29.7696 58.641 26.782 62.4211 26.782C65.5567 26.782 68.0268 28.9029 68.6053 32.0731Z" fill="black"/>
<path id="Vector_2" d="M133.747 28.8445H137.949V45.0834H134.612V43.0012H133.939C133.939 43.0012 133.164 45.3871 129.454 45.3871C126.916 45.3871 123.697 43.4114 123.697 39.1844V28.8445H127.634V38.0678C127.634 40.349 129.055 41.6468 130.761 41.6468C132.284 41.6468 133.745 40.1364 133.745 37.9466V28.8445H133.747Z" fill="black"/>
<path id="Vector_3" d="M148.282 45.3871C143.654 45.3871 141.066 43.1674 140.73 39.5481H144.78C144.81 41.2201 146.241 42.2859 148.342 42.2859C149.987 42.2859 151.235 41.7695 151.235 40.6139C151.235 39.5797 150.565 39.1545 149.012 38.8507L146.09 38.3028C143.167 37.7865 141.4 36.1745 141.4 33.6508C141.4 30.6407 143.988 28.5422 148.038 28.5422C152.088 28.5422 154.921 30.7021 155.225 34.1985H151.175C151.022 32.6179 149.835 31.6435 148.038 31.6435C146.485 31.6435 145.45 32.2213 145.45 33.2557C145.45 34.2286 146.12 34.6237 147.581 34.8976L150.718 35.4754C153.885 36.0831 155.499 37.544 155.499 39.8849C155.499 43.2901 152.911 45.3888 148.282 45.3888V45.3871Z" fill="black"/>
<path id="Vector_4" d="M85.6789 43.0807H86.3517V45.0834H89.5324V34.8662C89.5324 30.8817 87.0352 28.5407 82.7726 28.5407C78.844 28.5407 76.1342 30.973 75.8898 34.7134H79.697C79.8498 32.8888 80.9454 31.8247 82.7726 31.8247C84.5996 31.8247 85.574 32.8888 85.574 34.7134V35.4739H82.8639C78.1141 35.4739 75.5556 37.6217 75.5556 40.3699C75.5556 43.4114 77.8084 45.3871 81.1897 45.3871C82.3498 45.3871 83.3421 45.1701 84.1799 44.7481C85.3641 44.0461 85.6789 43.0807 85.6789 43.0807ZM79.544 40.2487C79.544 38.7893 80.7312 38.0289 83.1367 38.0289H85.5723V39.397C85.5723 40.8758 83.9896 42.4684 82.101 42.4684C80.5167 42.4684 79.5425 41.6167 79.5425 40.2487H79.544Z" fill="black"/>
<path id="Vector_5" d="M121.254 32.7586V28.8445H120.27C117.724 29.1184 117.16 30.8324 117.16 30.8324H116.588L116.592 22.9411H112.39V28.846H109.101V32.7602H112.39V39.8251C112.39 43.4743 114.491 45.3903 117.841 45.3903C119.089 45.3903 120.064 45.1777 121.099 44.6598V40.9806C120.491 41.3144 119.759 41.4971 118.968 41.4971C117.445 41.4971 116.592 40.7366 116.592 38.8507V32.7586H121.251H121.254Z" fill="black"/>
<path id="Vector_6" d="M93.197 45.1162V22.9396H97.4296V35.7492L103.368 28.8759H108.241L101.511 36.6609L109.032 45.1147H103.642L97.4296 37.5724V45.1147H93.197V45.1162Z" fill="black"/>
<path id="Vector_7" d="M17.5592 38.5902L13.292 28.2428C13.0956 27.7683 12.9952 27.2609 12.9952 26.7475V22.088C12.9952 20.8621 13.5693 19.705 14.545 18.9626L21.7665 13.4708C22.8891 12.6162 24.3848 12.4291 25.6845 12.9799L27.0754 13.5681C28.345 14.1055 29.2397 15.267 29.4345 16.6306L30.8134 26.2895C30.929 27.0933 30.791 27.9136 30.4192 28.6365L26.6332 38.5917H17.5562L17.5592 38.5902Z" fill="url(#paint0_linear_2265_5519)"/>
<path id="Vector_8" d="M12.9967 22.088C12.9967 20.8621 13.5708 19.705 14.5466 18.9626L21.768 13.4708C22.8906 12.6162 24.3865 12.4291 25.6859 12.9799L26.4054 13.2837L26.4683 27.1501L12.9967 22.088Z" fill="url(#paint1_linear_2265_5519)"/>
<path id="Vector_9" d="M26.4683 27.1502L25.3128 38.5903H17.5607L13.2935 28.2429C13.0972 27.7683 12.9967 27.261 12.9967 26.7475V22.088L26.4683 27.1502Z" fill="url(#paint2_linear_2265_5519)"/>
<path id="Vector_10" d="M26.4685 27.1501L30.4224 28.635L26.6363 38.5902H17.5593L26.4685 27.1501Z" fill="url(#paint3_linear_2265_5519)"/>
<path id="Vector_11" d="M19.2321 15.3987L15.4669 4.8357C15.1386 3.91368 14.4027 3.19371 13.4719 2.88387L8.10905 1.09818C7.21875 0.801815 6.243 0.912579 5.44111 1.40054L2.02674 3.4796C0.845655 4.19955 0.264104 5.59907 0.589353 6.94471L1.59807 11.1193C1.75096 11.7509 2.09419 12.3212 2.58131 12.7538L6.52778 16.2503C7.04637 16.7099 7.69987 16.9868 8.39084 17.0421L16.2553 17.6663L19.2335 15.4017L19.2321 15.3987Z" fill="url(#paint4_linear_2265_5519)"/>
<path id="Vector_12" d="M19.2321 15.3987L15.4669 4.8357C15.1386 3.91368 14.4027 3.19371 13.4719 2.88387L8.10905 1.09818C7.21875 0.801815 6.243 0.912579 5.44111 1.40054L2.02674 3.4796C0.845655 4.19955 0.264104 5.59907 0.589353 6.94471L1.59807 11.1193C1.75096 11.7509 2.09419 12.3212 2.58131 12.7538L6.52778 16.2503C7.04637 16.7099 7.69987 16.9868 8.39084 17.0421L16.2553 17.6663L19.2335 15.4017L19.2321 15.3987Z" fill="url(#paint5_linear_2265_5519)"/>
<path id="Vector_13" d="M17.6762 16.5827L19.2336 15.3987L15.4684 4.83574C15.1402 3.9137 14.4042 3.19375 13.4734 2.88389L8.10907 1.09821C7.21876 0.801846 6.24301 0.912609 5.44114 1.40057L2.02676 3.47962L12.8784 8.13918L17.6732 16.5842L17.6762 16.5827Z" fill="url(#paint6_linear_2265_5519)"/>
<path id="Vector_14" d="M6.52774 16.2489C7.04634 16.7084 7.69985 16.9853 8.3908 17.0407L16.2552 17.6649L19.2334 15.4002L15.4684 4.83725L6.52924 16.2504L6.52774 16.2489Z" fill="url(#paint7_linear_2265_5519)"/>
<path id="Vector_15" d="M29.7974 19.1617L33.6028 14.8748C34.3059 14.083 35.4405 13.8361 36.4103 14.2641L39.3644 15.5679C40.3942 16.0229 40.9786 17.123 40.7763 18.2307L40.0749 22.061C39.8606 23.2271 38.8369 24.0698 37.6483 24.0562L30.4838 23.968L29.7974 19.1632V19.1617Z" fill="url(#paint8_linear_2265_5519)"/>
<path id="Vector_16" d="M40.7763 18.2307L40.0749 22.061C39.8605 23.2271 38.8369 24.0698 37.6483 24.0562L30.4838 23.968L35.3071 19.4535L40.7763 18.2307Z" fill="url(#paint9_linear_2265_5519)"/>
<path id="Vector_17" d="M31.1807 38.5902H12.6715C11.8437 38.5902 11.1727 39.2603 11.1727 40.087V41.518C11.1727 42.3445 11.8437 43.0148 12.6715 43.0148H31.1807C32.0085 43.0148 32.6795 42.3445 32.6795 41.518V40.087C32.6795 39.2603 32.0085 38.5902 31.1807 38.5902Z" fill="url(#paint10_linear_2265_5519)"/>
<path id="Vector_18" d="M27.2477 57.0653H16.5969C15.927 57.0653 15.3484 56.5983 15.2075 55.9442L12.6505 43.0148H31.2122L28.6386 55.9442C28.4978 56.5983 27.9192 57.0653 27.2492 57.0653H27.2477Z" fill="url(#paint11_linear_2265_5519)"/>
<path id="Vector_19" d="M31.2122 43.0148L28.6386 55.9442C28.4978 56.5983 27.9192 57.0653 27.2493 57.0653H16.5985C15.9285 57.0653 15.3499 56.5983 15.209 55.9442L31.2137 43.0148H31.2122Z" fill="url(#paint12_linear_2265_5519)"/>
<path id="Vector_20" d="M22.0347 50.4284L12.6505 43.0148H31.2122L22.0347 50.4284Z" fill="url(#paint13_linear_2265_5519)"/>
</g>
<defs>
<linearGradient id="paint0_linear_2265_5519" x1="29.9201" y1="11.998" x2="22.8244" y2="24.5494" gradientUnits="userSpaceOnUse">
<stop offset="0.25" stop-color="#69D56B"/>
<stop offset="0.37" stop-color="#65CD67"/>
<stop offset="0.55" stop-color="#5BB85C"/>
<stop offset="0.76" stop-color="#4A954B"/>
<stop offset="1" stop-color="#346735"/>
</linearGradient>
<linearGradient id="paint1_linear_2265_5519" x1="26.0126" y1="26.4601" x2="19.3562" y2="17.1818" gradientUnits="userSpaceOnUse">
<stop stop-color="#B4EAB5"/>
<stop offset="0.14" stop-color="#9CE39D"/>
<stop offset="0.31" stop-color="#85DD87"/>
<stop offset="0.5" stop-color="#75D877"/>
<stop offset="0.72" stop-color="#6CD56D"/>
<stop offset="1" stop-color="#69D56B"/>
</linearGradient>
<linearGradient id="paint2_linear_2265_5519" x1="19.5692" y1="27.3417" x2="19.1073" y2="35.0997" gradientUnits="userSpaceOnUse">
<stop stop-color="#69D56B"/>
<stop offset="0.28" stop-color="#58B25A"/>
<stop offset="0.76" stop-color="#3E7C3F"/>
<stop offset="1" stop-color="#346735"/>
</linearGradient>
<linearGradient id="paint3_linear_2265_5519" x1="26.5628" y1="27.5319" x2="21.5879" y2="39.8867" gradientUnits="userSpaceOnUse">
<stop stop-color="#B4EAB5"/>
<stop offset="0.14" stop-color="#9CE39D"/>
<stop offset="0.31" stop-color="#85DD87"/>
<stop offset="0.5" stop-color="#75D877"/>
<stop offset="0.72" stop-color="#6CD56D"/>
<stop offset="1" stop-color="#69D56B"/>
</linearGradient>
<linearGradient id="paint4_linear_2265_5519" x1="16.639" y1="16.6575" x2="4.83011" y2="4.13712" gradientUnits="userSpaceOnUse">
<stop stop-color="#346735"/>
<stop offset="0.07" stop-color="#3C773D"/>
<stop offset="0.25" stop-color="#4C994D"/>
<stop offset="0.43" stop-color="#58B35A"/>
<stop offset="0.61" stop-color="#61C663"/>
<stop offset="0.8" stop-color="#67D169"/>
<stop offset="1" stop-color="#69D56B"/>
</linearGradient>
<linearGradient id="paint5_linear_2265_5519" x1="13.319" y1="9.50874" x2="-0.129764" y2="8.2315" gradientUnits="userSpaceOnUse">
<stop stop-color="#B4EAB5"/>
<stop offset="0.14" stop-color="#9CE39D"/>
<stop offset="0.31" stop-color="#85DD87"/>
<stop offset="0.5" stop-color="#75D877"/>
<stop offset="0.72" stop-color="#6CD56D"/>
<stop offset="1" stop-color="#69D56B"/>
</linearGradient>
<linearGradient id="paint6_linear_2265_5519" x1="5.63299" y1="0.969488" x2="20.6471" y2="15.2305" gradientUnits="userSpaceOnUse">
<stop stop-color="#B4EAB5"/>
<stop offset="0.14" stop-color="#9CE39D"/>
<stop offset="0.31" stop-color="#85DD87"/>
<stop offset="0.5" stop-color="#75D877"/>
<stop offset="0.72" stop-color="#6CD56D"/>
<stop offset="1" stop-color="#69D56B"/>
</linearGradient>
<linearGradient id="paint7_linear_2265_5519" x1="17.7706" y1="15.9121" x2="10.7634" y2="10.3452" gradientUnits="userSpaceOnUse">
<stop stop-color="#346735"/>
<stop offset="0.11" stop-color="#3B763C"/>
<stop offset="0.48" stop-color="#54A955"/>
<stop offset="0.76" stop-color="#63C965"/>
<stop offset="0.92" stop-color="#69D56B"/>
</linearGradient>
<linearGradient id="paint8_linear_2265_5519" x1="40.7149" y1="17.5496" x2="30.902" y2="21.1101" gradientUnits="userSpaceOnUse">
<stop stop-color="#B4EAB5"/>
<stop offset="0.14" stop-color="#9CE39D"/>
<stop offset="0.31" stop-color="#85DD87"/>
<stop offset="0.5" stop-color="#75D877"/>
<stop offset="0.72" stop-color="#6CD56D"/>
<stop offset="1" stop-color="#69D56B"/>
</linearGradient>
<linearGradient id="paint9_linear_2265_5519" x1="30.163" y1="23.1642" x2="40.171" y2="20.9597" gradientUnits="userSpaceOnUse">
<stop stop-color="#346735"/>
<stop offset="0.46" stop-color="#50A151"/>
<stop offset="0.82" stop-color="#62C664"/>
<stop offset="1" stop-color="#69D56B"/>
</linearGradient>
<linearGradient id="paint10_linear_2265_5519" x1="21.8999" y1="39.7442" x2="21.9911" y2="43.4772" gradientUnits="userSpaceOnUse">
<stop stop-color="#FFD2B3"/>
<stop offset="0.02" stop-color="#FECFAE"/>
<stop offset="0.18" stop-color="#FBBC90"/>
<stop offset="0.35" stop-color="#F9AD79"/>
<stop offset="0.54" stop-color="#F8A368"/>
<stop offset="0.74" stop-color="#F79C5F"/>
<stop offset="1" stop-color="#F79B5C"/>
</linearGradient>
<linearGradient id="paint11_linear_2265_5519" x1="22.342" y1="49.4392" x2="14.458" y2="51.5039" gradientUnits="userSpaceOnUse">
<stop offset="0.19" stop-color="#B75920"/>
<stop offset="0.4" stop-color="#C3652B"/>
<stop offset="0.8" stop-color="#E38649"/>
<stop offset="1" stop-color="#F79B5C"/>
</linearGradient>
<linearGradient id="paint12_linear_2265_5519" x1="23.2098" y1="46.2539" x2="23.2098" y2="55.6359" gradientUnits="userSpaceOnUse">
<stop offset="0.26" stop-color="#F79B5C"/>
<stop offset="0.56" stop-color="#FAAF7D"/>
<stop offset="1" stop-color="#FFD2B3"/>
</linearGradient>
<linearGradient id="paint13_linear_2265_5519" x1="21.9313" y1="43.1794" x2="21.9313" y2="47.0278" gradientUnits="userSpaceOnUse">
<stop stop-color="#B75920"/>
<stop offset="0.03" stop-color="#BF6127"/>
<stop offset="0.15" stop-color="#D77A3E"/>
<stop offset="0.27" stop-color="#E98C4F"/>
<stop offset="0.39" stop-color="#F39758"/>
<stop offset="0.54" stop-color="#F79B5C"/>
<stop offset="0.7" stop-color="#F9AB76"/>
<stop offset="1" stop-color="#FFD2B3"/>
</linearGradient>
<clipPath id="clip0_2265_5519">
<rect width="155" height="56.1302" fill="white" transform="translate(0.5 0.934906)"/>
</clipPath>
</defs>
</svg>
