<svg width="235" height="48" viewBox="0 0 235 48" fill="none" xmlns="http://www.w3.org/2000/svg">
  <path d="M233.682 3.38365V3.30127C233.641 2.72463 233.641 1.98502 233.641 1.20333V1.07976L233.517 1.12095C233.311 1.16214 232.367 1.16214 231.422 1.16214H228.503C227.927 1.16214 227.393 1.16214 226.694 1.12095H226.612C226.567 1.15531 226.529 1.19849 226.501 1.24789C226.472 1.29729 226.455 1.35188 226.448 1.40838C226.448 1.53195 226.488 1.65551 226.571 1.6967L226.859 1.73789C227.64 1.82027 227.681 1.90264 227.681 3.5887V9.26559C227.681 10.9525 227.64 11.0349 226.859 11.1173L226.407 11.1585L226.366 11.1997C226.283 11.2821 226.242 11.4468 226.283 11.5283C226.283 11.6519 226.366 11.7342 226.448 11.7754H226.53C227.27 11.7342 227.804 11.7342 228.503 11.7342C229.119 11.7342 229.695 11.7342 230.599 11.7754H230.682C230.805 11.7342 230.846 11.5695 230.846 11.4871C230.846 11.3644 230.805 11.2409 230.723 11.1997L230.147 11.1173C229.325 11.0349 229.284 10.9525 229.284 9.26649V7.08616C229.284 6.79784 229.284 6.79784 229.696 6.79784H230.764C231.298 6.79784 231.75 6.79784 231.956 6.88022C232.162 6.9626 232.284 7.08617 232.367 7.37359L232.531 8.03172L232.573 8.07291C232.737 8.19647 233.065 8.19648 233.148 8.03172V7.94934C233.148 7.78548 233.147 7.57954 233.106 7.3324C233.106 7.04498 233.065 6.71547 233.065 6.42804C233.065 6.09853 233.065 5.76902 233.106 5.48159C233.106 5.23446 233.148 5.02852 233.148 4.82347V4.74109C233.065 4.61752 232.901 4.61752 232.86 4.61752C232.737 4.61752 232.613 4.65871 232.573 4.74109L232.408 5.43951C232.326 5.81021 232.202 5.8514 232.079 5.89259C231.915 5.93378 231.421 5.97497 230.763 5.97497H229.695C229.284 5.97497 229.284 5.97496 229.284 5.68664V2.39601C229.284 1.90264 229.284 1.90264 229.654 1.90264H230.599C231.257 1.90264 231.75 1.90264 232.079 1.98502C232.736 2.14888 232.942 2.60196 233.106 3.38365V3.42484L233.148 3.46513C233.22 3.51688 233.306 3.54559 233.395 3.54751C233.477 3.54751 233.641 3.46513 233.682 3.38365ZM223.118 6.42804C223.118 3.75346 221.35 0.87382 217.528 0.87382C214.239 0.87382 211.773 3.34246 211.773 6.55071C211.773 9.26649 213.746 12.0217 217.528 12.0217C220.693 12.0637 223.118 9.63629 223.118 6.42714V6.42804ZM221.268 6.92052C221.268 10.1709 219.337 11.3232 217.692 11.3232C214.445 11.3232 213.582 8.03172 213.582 6.05734C213.582 2.76582 215.555 1.61432 217.24 1.61432C220.241 1.61432 221.269 4.49396 221.269 6.92141L221.268 6.92052ZM208.362 33.8267C208.362 40.6551 213.417 46.6615 221.844 46.6615C229.16 46.6615 234.997 41.1081 234.997 33.4148C234.997 26.7511 230.599 20.4152 221.844 20.4152C214.075 20.4564 208.362 26.2569 208.362 33.8267ZM212.143 32.6331C212.143 24.3237 217.24 21.65 221.187 21.65C228.421 21.65 231.175 28.396 231.175 34.6495C231.175 42.0949 226.859 45.51 222.296 45.51C214.897 45.51 212.143 38.2276 212.143 32.6331ZM203.799 1.6967C203.839 1.66068 203.871 1.61642 203.892 1.56696C203.913 1.5175 203.924 1.46401 203.922 1.41017C203.921 1.35216 203.905 1.29536 203.877 1.24499C203.848 1.19461 203.807 1.15227 203.758 1.12185H203.675C202.565 1.20423 201.908 1.20423 200.716 1.12185H200.633C200.586 1.14327 200.545 1.17776 200.516 1.22132C200.487 1.26489 200.471 1.31577 200.47 1.36809C200.428 1.49165 200.47 1.61522 200.592 1.6976L200.633 1.73878L200.963 1.77997C201.249 1.82116 201.455 1.90354 201.497 1.94473C201.455 2.15067 200.881 3.1786 200.551 3.83673L200.47 3.96029C200.099 4.7008 199.648 5.48249 199.113 6.42804C198.701 5.68754 198.291 4.86555 197.88 4.04267C197.715 3.71316 197.551 3.42484 197.428 3.09623C197.251 2.71785 197.086 2.33381 196.934 1.94473C196.934 1.90354 197.017 1.86235 197.509 1.77997L197.756 1.73878L197.798 1.6976C197.88 1.61522 197.92 1.45046 197.88 1.3269C197.839 1.20423 197.798 1.12095 197.674 1.12095H197.592C197.222 1.16304 196.646 1.16304 195.907 1.16304C195.167 1.16304 194.591 1.16304 194.098 1.12185H194.015C193.934 1.16304 193.893 1.24541 193.852 1.36809C193.833 1.42521 193.831 1.48639 193.846 1.54465C193.86 1.60291 193.891 1.6559 193.934 1.6976L193.974 1.73878L194.468 1.82116C194.88 1.90354 195.085 1.94473 195.619 2.97266L197.468 6.5928C197.92 7.45687 197.962 7.62162 197.962 8.48569V9.30768C197.962 11.0358 197.92 11.1182 197.14 11.2006L196.605 11.2418L196.565 11.2829C196.482 11.3653 196.441 11.5292 196.482 11.6116C196.482 11.7351 196.565 11.8175 196.646 11.8587H196.729C197.592 11.8175 198.126 11.8175 198.783 11.8175C199.442 11.8175 199.976 11.8175 200.922 11.8587H201.003C201.086 11.8175 201.127 11.7351 201.168 11.6116C201.168 11.488 201.168 11.3653 201.086 11.2829L201.044 11.2418L200.387 11.2006C199.648 11.1594 199.565 11.0358 199.565 9.30768V8.48569C199.565 7.29211 199.606 7.16944 200.305 5.97586L201.292 4.24772C201.374 4.08386 201.455 3.96029 201.538 3.79554C202.155 2.72552 202.607 1.94473 203.264 1.82116L203.799 1.6976V1.6967ZM198.25 21.0322C196.673 20.6635 195.06 20.4704 193.441 20.4564C187.727 20.4564 183.986 22.2257 181.438 24.8994C179.094 27.4093 178.026 30.6587 178.026 33.8678C178.026 37.1997 179.218 40.2029 181.52 42.4656C184.439 45.4276 188.549 46.6615 193.071 46.6615C195.126 46.6615 197.839 46.2093 199.853 45.6747C200.551 45.4688 201.249 45.3452 201.703 45.3452C201.738 45.3208 201.769 45.2888 201.791 45.2513C201.813 45.2139 201.826 45.1721 201.83 45.1288C201.834 45.0856 201.828 45.042 201.813 45.0012C201.798 44.9605 201.775 44.9235 201.744 44.893C201.045 44.6459 200.839 43.6994 200.839 42.2184V40.0793C200.839 38.1452 200.881 37.0761 202.483 36.9122L203.1 36.8299C203.346 36.5827 203.347 36.0482 203.059 35.8834C201.718 35.9696 200.374 36.0108 199.03 36.007C196.811 36.007 194.714 35.9658 193.604 35.8834C193.358 36.007 193.317 36.6651 193.604 36.8299L195.29 37.0358C197.633 37.282 197.756 37.5283 197.756 40.6962V42.2184C197.756 43.412 197.551 44.1113 197.387 44.3988C196.975 45.0569 195.578 45.5511 193.235 45.5511C185.63 45.5511 181.89 39.8331 181.89 32.5516C181.89 26.8747 185.095 21.65 192.454 21.65C196.318 21.65 199.154 22.9251 200.222 27.0386C200.47 27.2857 201.127 27.2445 201.25 26.915C200.922 24.6523 200.675 22.6779 200.675 21.4029C200.14 21.444 198.989 21.1969 198.25 21.0322ZM191.796 0.915903V0.833526C191.755 0.70996 191.59 0.709959 191.509 0.709959C191.467 0.709959 191.426 0.709959 191.344 0.751148H191.303L191.262 0.792338C191.056 1.16304 190.974 1.16304 190.152 1.16304H183.616C182.918 1.16304 182.588 1.12185 182.547 0.792338V0.709959C182.491 0.658313 182.417 0.629018 182.341 0.627582C182.301 0.627582 182.177 0.627582 182.095 0.668771L182.055 0.709959V0.751148C181.931 1.36898 181.725 2.39691 181.479 3.09623V3.13741L181.52 3.1786C181.602 3.38455 181.931 3.46603 182.095 3.34336H182.136V3.30217C182.301 2.93147 182.466 2.60285 182.834 2.27334C183.164 1.94473 183.986 1.90354 184.685 1.90354H185.548C185.918 1.90354 185.918 1.90354 185.918 2.27334V9.34886C185.918 11.077 185.836 11.1182 185.055 11.2006L184.479 11.2418H184.438C184.356 11.2829 184.274 11.4065 184.315 11.5704C184.315 11.6939 184.356 11.8175 184.479 11.8587H184.562C185.507 11.8175 186.123 11.8175 186.74 11.8175C187.357 11.8175 187.851 11.8175 188.795 11.8587H188.878C188.923 11.8243 188.961 11.781 188.99 11.7315C189.018 11.6819 189.036 11.6271 189.042 11.5704C189.042 11.4477 189.001 11.3241 188.919 11.2829L188.343 11.2006C187.562 11.1182 187.521 11.0358 187.521 9.34886V2.23216C187.521 2.0674 187.521 1.90354 187.562 1.90354C187.603 1.86235 187.768 1.86235 187.891 1.86235H189.001C189.864 1.86235 190.439 1.98592 190.769 2.23216C190.933 2.35572 191.056 2.72553 191.097 3.30217V3.34336L191.138 3.38455C191.18 3.46603 191.303 3.50722 191.426 3.50722C191.591 3.50722 191.714 3.42574 191.755 3.34336V3.26098C191.549 2.8079 191.632 1.53284 191.796 0.915903ZM177.409 9.30768V3.67197C177.409 1.94383 177.45 1.82116 178.272 1.77997L178.684 1.73878H178.725C178.807 1.6976 178.848 1.57403 178.848 1.45046C178.848 1.40927 178.807 1.20423 178.683 1.16304H178.601C177.861 1.20423 177.286 1.20422 176.67 1.20422C176.011 1.20422 175.437 1.20423 174.696 1.16304H174.615C174.569 1.19731 174.531 1.24045 174.503 1.28986C174.474 1.33926 174.456 1.3939 174.45 1.45046C174.45 1.57403 174.491 1.6976 174.573 1.73878H174.615L175.026 1.77997C175.848 1.86235 175.889 1.94473 175.889 3.67197V9.30768C175.889 10.9946 175.848 11.077 175.026 11.2006L174.573 11.2418L174.532 11.2829C174.45 11.3653 174.409 11.5292 174.45 11.6116C174.45 11.7351 174.532 11.8175 174.615 11.8587H174.696C175.518 11.8175 176.012 11.8175 176.67 11.8175C177.286 11.8175 177.82 11.8175 178.601 11.8587H178.683C178.729 11.8243 178.767 11.781 178.795 11.7315C178.824 11.6819 178.842 11.6271 178.848 11.5704C178.848 11.4477 178.807 11.3241 178.725 11.2829L178.272 11.2006C177.45 11.077 177.409 10.9946 177.409 9.30768ZM174.82 45.1384C173.176 44.9324 172.682 44.3979 171.614 41.1072L166.434 25.8853C165.858 24.1992 165.242 22.4711 164.749 20.8262C164.667 20.5791 164.42 20.4967 164.173 20.4967C163.762 20.9901 163.105 21.6894 162.201 21.9365C162.323 22.5544 162.077 23.2528 161.543 24.6102L157.679 34.8537C156.076 39.0917 155.007 41.5603 154.35 43.2876C153.815 44.645 152.993 45.056 152.089 45.1384L150.856 45.2619C150.609 45.4679 150.691 46.0436 150.937 46.2084C151.965 46.1672 153.322 46.0848 154.555 46.0848C156.322 46.126 157.514 46.126 158.501 46.2084C158.829 46.0436 158.829 45.4679 158.583 45.2619L157.35 45.1384C156.446 45.056 156.24 44.8509 156.24 44.3979C156.24 43.986 156.487 42.958 157.062 41.272L158.378 37.2812C158.624 36.4995 158.871 36.3768 159.816 36.3768H165.53C166.681 36.3768 166.804 36.4995 167.092 37.3223L168.777 42.4647C169.065 43.369 169.27 44.0692 169.27 44.4802C169.27 44.8509 168.736 45.0981 167.955 45.1796L166.845 45.3031C166.599 45.5091 166.599 46.0848 166.928 46.2496C168.038 46.2084 169.476 46.126 171.285 46.126C172.97 46.126 174.326 46.1672 175.848 46.2496C176.054 46.0848 176.094 45.5091 175.848 45.3031L174.82 45.1384ZM165.036 34.8125H160.392C159.323 34.8125 159.282 34.7722 159.611 33.9081L161.995 27.326C162.407 26.1736 162.776 25.2692 162.899 25.1045H162.981C163.228 25.5567 163.557 26.5855 163.845 27.4907L165.9 33.661C166.229 34.6898 166.147 34.8125 165.036 34.8125ZM166.599 3.26008C166.599 2.64225 166.845 1.61432 168.366 1.61432C169.763 1.61432 170.175 2.51869 170.381 3.30127L170.421 3.34246C170.463 3.42484 170.545 3.42484 170.668 3.42484C170.791 3.42484 170.956 3.38365 171.038 3.26008C171.038 2.60196 170.915 1.6967 170.75 1.28481L170.709 1.20333H170.627C170.504 1.20333 170.298 1.16214 170.093 1.12095C169.723 1.03857 169.106 0.915008 168.613 0.915008C166.598 0.915008 165.284 2.06651 165.284 3.75346C165.284 5.19327 166.394 6.13972 167.051 6.5919L168.53 7.57954C169.641 8.27796 169.764 9.01935 169.764 9.67748C169.764 10.5004 169.188 11.3644 167.914 11.3644C166.311 11.3644 165.612 10.1297 165.325 9.10173V9.06054C165.284 8.97817 165.201 8.93698 165.078 8.93698C165.013 8.93376 164.949 8.94724 164.892 8.97611C164.834 9.00498 164.785 9.04826 164.749 9.10173L164.708 9.14292V9.18411C164.749 9.88253 164.955 11.0761 165.16 11.4468V11.4871H165.201C165.53 11.6519 166.393 12.1049 167.708 12.1049C169.804 12.1049 171.202 10.8702 171.202 9.06054C171.202 7.78548 170.545 6.75666 169.188 5.93377L167.914 5.15208C167.421 4.82347 166.598 4.16534 166.598 3.26008H166.599ZM162.612 11.899C162.694 11.8578 162.735 11.7342 162.694 11.6519C162.694 11.5695 162.612 11.4871 162.57 11.4459H162.529C162.159 11.4056 161.79 11.2821 161.501 11.0349C160.433 10.1306 159.57 8.77222 158.337 6.88022C158.255 6.75666 158.255 6.67428 158.255 6.67428C158.789 6.46833 160.269 5.68664 160.269 3.9594C160.269 2.64315 159.529 1.98502 158.912 1.65551C158.131 1.24362 157.103 1.16214 156.24 1.16214C154.802 1.16214 153.692 1.20333 152.705 1.28481H152.664C152.614 1.31534 152.574 1.35773 152.545 1.4081C152.516 1.45847 152.501 1.51521 152.5 1.57313C152.5 1.6967 152.541 1.82027 152.623 1.90264H152.664L153.198 1.98502C153.733 2.0665 153.774 2.14888 153.774 3.71316V9.39005C153.774 11.0761 153.733 11.1585 152.952 11.2409L152.5 11.2821L152.459 11.3232C152.376 11.4468 152.376 11.5695 152.376 11.693C152.417 11.8166 152.459 11.899 152.541 11.899H152.623C153.322 11.8578 153.898 11.8578 154.596 11.8578C155.254 11.8578 155.788 11.8578 156.487 11.899H156.569C156.692 11.8578 156.733 11.693 156.733 11.6107C156.73 11.4964 156.702 11.3842 156.651 11.2821L156.61 11.2409L156.24 11.1997C155.418 11.0761 155.418 11.0349 155.418 9.34797V7.37359C155.418 7.16765 155.418 7.16765 156.035 7.16765C156.651 7.16765 156.857 7.3324 157.062 7.62072C157.309 7.94934 157.596 8.40242 157.844 8.8546C158.131 9.30678 158.377 9.71867 158.583 10.0061C159.652 11.5695 160.474 12.0637 161.954 12.0637C162.159 11.9814 162.406 11.9402 162.612 11.899ZM157.884 6.01615C157.433 6.34566 156.816 6.38596 156.322 6.38596C155.624 6.38596 155.377 6.34566 155.336 6.34566V2.19007C155.336 1.82027 155.336 1.82027 156.24 1.82027C158.007 1.82027 158.624 3.05414 158.624 4.12415C158.624 5.02852 158.376 5.60516 157.884 6.01615ZM149.704 9.55391V9.47154C149.622 9.30678 149.458 9.26559 149.335 9.26559C149.252 9.26559 149.17 9.30678 149.129 9.30678L149.088 9.34797C148.636 10.2532 148.225 10.7063 148.019 10.829C147.691 10.9937 147.197 11.0349 146.047 11.0349C144.73 11.0349 144.402 10.8702 144.238 10.7063C144.032 10.4592 143.95 9.9658 143.95 9.14292V6.9626C143.95 6.67428 143.95 6.67428 144.361 6.67428H145.266C145.799 6.67428 146.21 6.67428 146.457 6.75665C146.663 6.79784 146.786 6.9626 146.869 7.25003L146.991 7.86786L147.032 7.90815C147.074 7.99053 147.197 8.03172 147.321 8.03172C147.485 8.03172 147.567 7.99053 147.649 7.86696V7.78548C147.649 7.62073 147.649 7.41478 147.608 7.20884C147.608 6.92141 147.567 6.5919 147.567 6.26329C147.567 5.93377 147.567 5.60516 147.608 5.31684C147.608 5.06971 147.649 4.86466 147.649 4.69901V4.61752C147.608 4.53514 147.485 4.45277 147.321 4.45277C147.197 4.45277 147.074 4.49396 147.032 4.57634L146.869 5.27565C146.786 5.64545 146.704 5.68754 146.58 5.72783C146.416 5.76902 145.923 5.81021 145.265 5.81021H144.361C143.95 5.81021 143.95 5.81021 143.95 5.48159V2.39601C143.95 1.90264 143.95 1.90264 144.319 1.90264H145.471C146.128 1.90264 146.663 1.90264 146.991 1.98502C147.69 2.14888 147.854 2.60196 148.06 3.30127L148.102 3.38365L148.143 3.42484C148.184 3.50632 148.307 3.50632 148.389 3.50632C148.51 3.50974 148.628 3.46573 148.718 3.38365L148.759 3.34246L148.718 3.09533C148.636 2.19097 148.554 1.40838 148.471 1.16125L148.43 1.03857L148.307 1.07976C148.143 1.12095 147.156 1.12095 146.211 1.12095H143.251C142.634 1.12095 142.141 1.12095 141.401 1.07976H141.319C141.274 1.11412 141.236 1.1573 141.207 1.2067C141.179 1.2561 141.161 1.31069 141.155 1.36719C141.155 1.49076 141.196 1.61432 141.278 1.65551L141.566 1.6967C142.388 1.77908 142.429 1.90264 142.429 3.54751V9.2244C142.429 10.9525 142.347 10.9937 141.566 11.0761L140.99 11.1173L140.949 11.1585C140.867 11.2409 140.825 11.4056 140.867 11.4871C140.867 11.6107 140.949 11.693 141.031 11.7342H141.114C142.018 11.693 142.593 11.693 143.251 11.693H144.69C146.047 11.693 147.443 11.693 148.924 11.7342H149.006L149.047 11.6519C149.211 11.3644 149.622 10.1297 149.704 9.55391ZM138.894 1.6967C138.976 1.61432 138.976 1.44957 138.976 1.36719C138.976 1.24452 138.894 1.16124 138.853 1.12095H138.77C138.236 1.16214 137.743 1.16214 137.25 1.16214C136.633 1.16214 136.016 1.16214 135.605 1.12095H135.523C135.474 1.1514 135.433 1.19365 135.404 1.24385C135.376 1.29405 135.36 1.35061 135.359 1.40838C135.359 1.53195 135.4 1.65551 135.483 1.73789L135.523 1.77908L135.852 1.82027C136.387 1.90264 136.468 1.98502 136.468 1.98502C136.468 2.10769 136.468 2.23126 136.346 2.56077C136.057 3.25919 135.318 5.0697 134.866 6.09763C134.742 6.38596 134.619 6.71547 134.454 7.08616C134.143 7.84751 133.814 8.60165 133.469 9.34797C132.728 7.61983 132.029 5.89259 131.331 4.16534C130.878 3.01295 130.591 2.19007 130.55 1.98502C130.591 1.94383 130.714 1.86145 131.166 1.82027L131.454 1.77908L131.495 1.73789C131.578 1.64821 131.622 1.53 131.618 1.40838C131.617 1.35061 131.601 1.29405 131.573 1.24385C131.544 1.19365 131.503 1.1514 131.454 1.12095H131.372C130.673 1.16214 130.098 1.16214 129.481 1.16214C128.823 1.16214 128.33 1.16214 127.837 1.12095H127.795L127.754 1.16214C127.705 1.19259 127.664 1.23484 127.636 1.28504C127.607 1.33524 127.592 1.39179 127.59 1.44957C127.59 1.57313 127.631 1.6967 127.713 1.73789L127.754 1.77908L128.083 1.82027C128.7 1.90264 128.906 2.19007 129.276 3.05414L131.989 9.84134C132.317 10.6651 132.564 11.3635 132.728 11.9402V11.9814L132.769 12.0226C132.852 12.0637 132.975 12.0637 133.057 12.0637C133.139 12.0637 133.222 12.0226 133.304 11.9814L133.344 11.9402V11.899C133.633 11.0349 134.372 9.18411 134.989 7.78548L135.852 5.8514C136.592 4.20564 137.209 2.93057 137.62 2.23126C137.826 1.90264 138.031 1.77908 138.359 1.73789L138.894 1.6967ZM128.576 23.7059C125.699 25.9265 123.808 29.5475 123.808 33.7434C123.808 38.6386 126.151 42.094 129.193 44.1516C131.947 46.0024 135.194 46.7017 138.606 46.7017C141.031 46.7017 143.744 46.126 144.608 45.8377C145.019 45.6738 145.471 45.5503 145.923 45.4679C146.499 44.7274 147.485 42.2587 147.732 40.2835C147.567 40.0372 146.991 39.9548 146.745 40.1196C145.882 42.3411 143.703 45.5503 138.812 45.5503C132.605 45.5503 127.549 41.1484 127.549 33.2088C127.549 25.3507 132.481 21.6894 138.277 21.6894C143.786 21.6894 145.471 24.6514 146.047 27.2436C146.293 27.4907 146.869 27.4496 147.074 27.1612C146.786 24.8573 146.581 22.4711 146.539 21.6079C146.21 21.6491 145.923 21.5667 145.471 21.4432C143.703 20.9489 140.825 20.5379 138.77 20.5379C134.866 20.4555 131.331 21.5255 128.576 23.7059ZM123.726 9.30768V3.67108C123.726 1.94294 123.767 1.82027 124.589 1.77908L125.001 1.73789H125.041C125.124 1.6967 125.165 1.57313 125.165 1.44957C125.165 1.40838 125.124 1.20333 125 1.16214H124.919C124.178 1.20333 123.602 1.20333 122.986 1.20333C122.288 1.20333 121.753 1.20333 121.014 1.16214H120.931C120.886 1.19641 120.848 1.23956 120.819 1.28896C120.791 1.33837 120.773 1.393 120.767 1.44957C120.767 1.57313 120.808 1.6967 120.89 1.73789H120.931L121.342 1.77908C122.123 1.86146 122.205 1.98502 122.205 3.67108V9.30678C122.205 10.9937 122.164 11.0761 121.342 11.1997L120.89 11.2409L120.849 11.2821C120.767 11.3644 120.725 11.5283 120.767 11.6107C120.767 11.7342 120.849 11.8166 120.931 11.8578H121.014C121.836 11.8166 122.329 11.8166 122.986 11.8166C123.603 11.8166 124.137 11.8166 124.919 11.8578H125C125.046 11.8234 125.084 11.7801 125.112 11.7306C125.14 11.681 125.158 11.6262 125.165 11.5695C125.165 11.4468 125.124 11.3232 125.041 11.2821L124.589 11.1997C123.767 11.0761 123.726 10.9946 123.726 9.30768ZM115.834 40.3246V26.8326C115.834 22.8015 115.916 22.1846 118.136 21.9795L119.081 21.8962C119.328 21.7315 119.246 21.0734 118.999 20.9498C117.108 21.0322 115.834 21.0734 114.313 21.0734C112.711 21.0734 111.435 21.0322 109.545 20.9498C109.298 21.0734 109.257 21.7315 109.463 21.8962L110.408 21.9786C112.628 22.1846 112.71 22.8015 112.71 26.8326V40.3264C112.71 44.3576 112.628 44.893 110.408 45.1393L109.463 45.2628C109.216 45.51 109.298 46.0857 109.545 46.2093C111.435 46.1269 112.71 46.0857 114.313 46.0857C115.834 46.0857 117.108 46.1269 118.999 46.2093C119.246 46.0857 119.286 45.4276 119.081 45.2628L118.136 45.1393C115.916 44.893 115.835 44.3576 115.835 40.3264L115.834 40.3246ZM117.766 1.6967C117.848 1.61432 117.89 1.49076 117.848 1.36719C117.847 1.31477 117.831 1.26383 117.802 1.22025C117.772 1.17667 117.732 1.14224 117.684 1.12095L117.642 1.07976H117.601C117.068 1.12095 116.656 1.12095 115.998 1.12095C115.423 1.12095 114.929 1.12095 114.149 1.07976H114.066C114.018 1.10119 113.978 1.13567 113.949 1.17924C113.92 1.22281 113.904 1.27368 113.902 1.326C113.881 1.39282 113.881 1.46472 113.903 1.53134C113.925 1.59797 113.968 1.65587 114.025 1.6967L114.066 1.73789L114.354 1.77908C114.888 1.86146 115.176 1.94383 115.259 2.02531C115.465 2.31364 115.546 3.50632 115.546 5.23446V9.06054C115.012 8.4848 114.436 7.86696 113.696 7.04498L111.518 4.57634C109.956 2.80701 109.052 1.65551 108.846 1.16214L108.805 1.07976H108.723C108.517 1.12095 108.271 1.12095 108.025 1.12095C107.737 1.12095 106.915 1.12095 106.256 1.07976H106.174C106.092 1.12095 106.051 1.20333 106.01 1.326C105.991 1.38965 105.989 1.45701 106.003 1.52181C106.018 1.58661 106.048 1.64677 106.092 1.6967L106.133 1.73789L106.462 1.77908C106.873 1.82027 107.202 1.94383 107.367 2.10769C107.653 2.4372 107.695 2.72553 107.695 3.17771V7.86696C107.695 8.64866 107.695 10.418 107.489 10.9114C107.448 10.9937 107.326 11.1173 106.873 11.1585L106.421 11.1997L106.38 11.2409C106.298 11.3232 106.256 11.4056 106.298 11.5283C106.339 11.6519 106.38 11.7342 106.421 11.8166L106.462 11.8578H106.504C107.037 11.8166 107.489 11.8166 108.148 11.8166C108.682 11.8166 109.216 11.8166 109.997 11.8578H110.039L110.079 11.8166C110.161 11.7754 110.202 11.693 110.202 11.5695C110.202 11.4468 110.202 11.3232 110.12 11.2409L110.079 11.1997L109.545 11.1585C109.175 11.1173 108.887 11.0349 108.847 10.9114C108.682 10.6239 108.558 9.43035 108.558 7.7031V4.24683C108.558 3.9594 108.559 3.67108 108.6 3.46513C108.846 3.75345 109.257 4.24683 109.627 4.6999C109.874 4.98733 110.12 5.27565 110.285 5.48159L113.943 9.63629C115.176 11.0349 115.752 11.693 115.957 12.0226L115.998 12.0637H116.081C116.287 12.0637 116.451 11.9814 116.492 11.8166V11.7342C116.451 11.5695 116.451 10.9114 116.451 8.97817V4.98733C116.451 4.16534 116.451 2.47839 116.657 1.98502C116.657 1.94383 116.862 1.82027 117.437 1.73789L117.766 1.6967ZM103.626 1.6967C103.708 1.61432 103.749 1.49076 103.708 1.36719C103.708 1.28481 103.626 1.20333 103.543 1.12095H103.461C102.927 1.16214 102.475 1.16214 101.817 1.16214C101.201 1.16214 100.625 1.16214 100.008 1.12095H99.967L99.9268 1.16214C99.8444 1.20333 99.8032 1.28481 99.8032 1.40838C99.8032 1.53195 99.8032 1.65551 99.8856 1.73789L99.9268 1.77908L100.379 1.82027C100.749 1.86145 100.995 1.94383 101.077 2.10769C101.242 2.4372 101.365 3.5887 101.365 5.31684V7.12646C101.365 8.97817 100.83 11.1997 98.3231 11.1997C96.2269 11.1997 95.2402 9.88342 95.2402 7.08616V3.67108C95.2402 1.98502 95.2814 1.86145 96.0622 1.82027L96.4741 1.77908H96.5143C96.5967 1.73789 96.6379 1.61432 96.6379 1.49076C96.6379 1.36719 96.5967 1.24452 96.4732 1.20333H96.3917C95.6512 1.24452 95.1166 1.24452 94.4594 1.24452C93.8013 1.24452 93.2676 1.24452 92.5271 1.20333H92.4456C92.3221 1.24452 92.2809 1.40927 92.2809 1.49076C92.2809 1.61432 92.322 1.73789 92.4044 1.77908H92.4456L92.8566 1.82027C93.6374 1.90264 93.6786 2.02621 93.6786 3.67108V7.41478C93.6786 9.30678 94.0896 10.5004 94.9528 11.2409C95.6512 11.8166 96.6791 12.1452 97.9945 12.1452C99.2274 12.1452 100.419 11.693 101.077 10.9525C101.858 10.1297 102.228 8.8546 102.228 7.08616V5.31684C102.228 4.53515 102.228 2.64315 102.434 2.14888C102.516 1.98502 102.763 1.86145 103.132 1.82027L103.626 1.6967ZM85.4981 21.8953C85.7453 21.7306 85.6629 21.0725 85.4166 20.9489C83.7718 21.0313 82.4976 21.0725 81.0184 21.0725C79.3735 21.0725 78.0994 20.9901 76.2495 20.9489C76.0032 21.0725 75.9629 21.7306 76.168 21.8953L77.1538 21.9777C79.1273 22.1425 79.3744 22.7594 79.3744 26.7502V40.4079C79.3744 44.3979 79.2921 44.7686 77.195 45.1384L76.5378 45.2619C76.2906 45.5091 76.373 46.0848 76.6202 46.2084C78.0994 46.1672 79.3735 46.0848 81.0184 46.0848C82.4976 46.0848 83.7718 46.126 85.8268 46.2084C86.0739 46.0848 86.1151 45.4267 85.9091 45.2619L84.7997 45.1384C82.6624 44.8921 82.4985 44.3979 82.4985 40.4079V35.0596C82.4985 33.9081 82.58 33.867 84.3878 33.867H95.199C97.0077 33.867 97.0901 33.9493 97.0901 35.0596V40.4079C97.0901 44.3979 97.0901 44.7686 94.7889 45.1384L94.0484 45.2619C93.8013 45.5091 93.8836 46.0848 94.1308 46.2084C95.6502 46.1283 97.1714 46.0871 98.6929 46.0848C100.173 46.0848 101.447 46.126 103.256 46.2084C103.502 46.0848 103.543 45.4267 103.338 45.2619L102.434 45.1384C100.255 44.8921 100.173 44.3979 100.173 40.4079V26.7502C100.173 22.7594 100.255 22.1837 102.434 21.9777L103.215 21.8953C103.461 21.7306 103.379 21.0725 103.132 20.9489C101.64 21.0284 100.146 21.0696 98.6517 21.0725C97.0901 21.0725 95.8159 21.0313 94.0896 20.9489C93.8425 21.0725 93.8013 21.7306 94.0072 21.8953L94.7468 21.9777C96.9674 22.2248 97.0489 22.7594 97.0489 26.7502V31.1109C97.0489 32.3036 96.9665 32.3036 95.1578 32.3036H84.3475C82.5388 32.3036 82.4564 32.2624 82.4564 31.1109V26.7502C82.4564 22.7594 82.5388 22.1837 84.7173 21.9777L85.4981 21.8953ZM83.9777 9.55391V9.47154C83.8954 9.30678 83.7306 9.26559 83.6079 9.26559C83.5255 9.26559 83.4432 9.30678 83.402 9.30678L83.3608 9.34797C82.9086 10.2532 82.4976 10.7063 82.2926 10.829C81.9631 10.9937 81.4706 11.0349 80.3191 11.0349C79.0037 11.0349 78.6751 10.8702 78.5104 10.7063C78.3044 10.4592 78.2641 9.9658 78.2641 9.14292V6.9626C78.2641 6.67428 78.2641 6.67428 78.6751 6.67428H79.5795C80.114 6.67428 80.525 6.67428 80.7713 6.75665C80.9772 6.79784 81.0999 6.9626 81.1832 7.25003L81.3058 7.86786L81.347 7.90815C81.3882 7.99053 81.5109 8.03172 81.6344 8.03172C81.7992 8.03172 81.8816 7.99053 81.9631 7.86696V7.78548C81.9631 7.62073 81.9631 7.41478 81.9228 7.20884C81.9228 6.92141 81.8816 6.5919 81.8816 6.26329C81.8816 5.93377 81.8816 5.60516 81.9228 5.31684C81.9228 5.06971 81.9631 4.86466 81.9631 4.69901V4.61752C81.9228 4.53514 81.7992 4.45277 81.6344 4.45277C81.5109 4.45277 81.3882 4.49396 81.347 4.57634L81.1823 5.27565C81.0999 5.64545 81.0184 5.68754 80.8948 5.72783C80.7301 5.76902 80.2367 5.81021 79.5786 5.81021H78.6742C78.2641 5.81021 78.2641 5.81021 78.2641 5.48159V2.39601C78.2641 1.90264 78.2641 1.90264 78.6339 1.90264H79.7845C80.4427 1.90264 80.9772 1.90264 81.3058 1.98502C82.0454 2.14888 82.169 2.60196 82.3741 3.30127L82.4152 3.38365L82.4564 3.42484C82.4976 3.50632 82.6212 3.50632 82.7036 3.50632C82.8249 3.50974 82.9428 3.46573 83.0322 3.38365L83.0734 3.34246L83.0322 3.09533C82.9498 2.19097 82.8674 1.40838 82.7859 1.16125L82.6624 1.07976L82.5388 1.12095C82.374 1.16214 81.3882 1.16214 80.4427 1.16214H77.4833C76.8664 1.16214 76.373 1.16214 75.6334 1.12095H75.551C75.5056 1.15522 75.4675 1.19837 75.4392 1.24777C75.4109 1.29718 75.3929 1.35181 75.3863 1.40838C75.3863 1.53195 75.4275 1.65551 75.5098 1.6967L75.7973 1.73789C76.6202 1.82027 76.6605 1.94383 76.6605 3.5887V9.26559C76.6605 10.9937 76.579 11.0349 75.7973 11.1173L75.2224 11.1585L75.1812 11.1997C75.0988 11.2821 75.0577 11.4468 75.0989 11.5283C75.0989 11.6519 75.1812 11.7342 75.2636 11.7754H75.3451C76.2495 11.7342 76.8252 11.7342 77.4833 11.7342H78.9214C80.2779 11.7342 81.6756 11.7342 83.1557 11.7754H83.2381L83.2784 11.693C83.4432 11.3644 83.8542 10.1297 83.9768 9.55391H83.9777ZM70.783 9.30678V3.62989C70.783 1.94383 70.8242 1.86146 71.605 1.77908L71.9336 1.73789L71.9748 1.6967C72.0572 1.65551 72.0983 1.53195 72.0983 1.40838C72.0983 1.36719 72.0571 1.16214 71.9336 1.12095H71.8512C71.0704 1.16214 70.577 1.16214 70.0022 1.16214C69.3038 1.16214 68.7683 1.16214 68.1111 1.12095H68.0287C67.9834 1.15531 67.9455 1.19849 67.9173 1.24789C67.8892 1.29729 67.8713 1.35188 67.8648 1.40838C67.8648 1.53195 67.9051 1.65551 67.9875 1.6967L68.3573 1.73789C69.1802 1.82027 69.2205 1.94383 69.2205 3.5887V5.39922C69.2205 5.76902 69.2205 5.76902 68.5633 5.76902H64.0415C63.3842 5.76902 63.3842 5.76902 63.3842 5.39922V3.5887C63.3842 1.90264 63.4254 1.82027 64.2062 1.73789L64.4936 1.6967L64.5348 1.65551C64.6172 1.61432 64.6584 1.49076 64.6584 1.36719C64.6584 1.326 64.6172 1.12095 64.4936 1.07976H64.4112C63.7128 1.12095 63.1783 1.12095 62.6025 1.12095C62.1915 1.12095 61.8217 1.12095 61.4519 1.07976C61.2057 1.07976 60.9174 1.07976 60.6299 1.03857H60.5476C60.4652 1.16214 60.4652 1.36719 60.4652 1.40838C60.4652 1.53195 60.5064 1.65551 60.5887 1.6967H60.6299L61.0821 1.73789C61.7805 1.77908 61.9041 1.94383 61.9041 3.5887V9.26559C61.9041 10.9114 61.8629 10.9937 61.0821 11.1173L60.7947 11.1585L60.7535 11.1997C60.6711 11.2821 60.6299 11.4468 60.6711 11.5283C60.6711 11.6519 60.7535 11.7342 60.8359 11.7754H61.5343C61.9041 11.7754 62.2739 11.7342 62.7261 11.7342C63.3018 11.7342 63.8364 11.7342 64.7408 11.7754H64.8222C64.9458 11.7342 64.987 11.5695 64.987 11.4871C64.987 11.3644 64.9458 11.2409 64.8634 11.1997L64.371 11.1173C63.6305 11.0349 63.5069 10.9525 63.5069 9.26649V7.04498C63.5069 6.67428 63.5069 6.67428 64.165 6.67428H68.6868C69.3441 6.67428 69.3441 6.67428 69.3441 7.04498V9.26559C69.3441 10.9525 69.3441 10.9937 68.4809 11.1173L68.1523 11.1585L68.1111 11.1997C68.0287 11.2821 67.9875 11.4468 68.0287 11.5283C68.0287 11.6519 68.1111 11.7342 68.1935 11.7754H68.2758C69.0154 11.7342 69.5912 11.7342 70.166 11.7342C70.783 11.7342 71.3175 11.7342 72.0571 11.7754H72.1395C72.1849 11.741 72.2229 11.6976 72.2511 11.6481C72.2792 11.5985 72.297 11.5438 72.3034 11.4871C72.3034 11.3644 72.2631 11.2409 72.1807 11.1997L71.7688 11.1173C70.8242 11.0761 70.783 10.9937 70.783 9.30678ZM57.7933 0.915008V0.87382L57.753 0.832631C57.7118 0.709065 57.5059 0.709064 57.4647 0.709064C57.4235 0.709064 57.3823 0.709064 57.3008 0.750253H57.2596L57.2184 0.791441C57.0125 1.16214 56.9301 1.16214 56.1081 1.16214H49.5725C48.8741 1.16214 48.5446 1.12095 48.5043 0.791441V0.750253L48.4631 0.709064C48.4068 0.657418 48.3336 0.628121 48.2572 0.626686C48.216 0.626686 48.0933 0.626687 48.0109 0.667876L47.9697 0.709064V0.750253C47.8462 1.36808 47.6411 2.39602 47.394 3.09533V3.13652L47.4352 3.17771C47.5176 3.38365 47.8471 3.46513 48.0109 3.34246H48.0521V3.30127C48.216 2.93057 48.3807 2.60196 48.7505 2.23126C49.0792 1.90264 49.9011 1.86145 50.6005 1.86145H51.4636C51.8334 1.86145 51.8334 1.86145 51.8334 2.23126V9.30678C51.8334 11.0349 51.7511 11.0761 50.9703 11.1585L50.3945 11.1997H50.3533C50.2718 11.2409 50.1895 11.3644 50.2307 11.5283C50.2307 11.6519 50.2718 11.7754 50.3945 11.8166H50.4769C51.4636 11.7754 52.0394 11.7754 52.6554 11.7754C53.2724 11.7754 53.7657 11.7754 54.7104 11.8166H54.7928C54.9163 11.7754 54.9575 11.6107 54.9575 11.5283C54.9575 11.4056 54.9163 11.2821 54.834 11.2409L54.2582 11.1585C53.4774 11.0761 53.4362 10.9937 53.4362 9.30678V2.23126C53.4362 2.0665 53.4362 1.90264 53.4774 1.90264C53.5186 1.86146 53.6834 1.86145 53.8069 1.86145H54.9163C55.7795 1.86145 56.3553 1.98502 56.6839 2.23126C56.8486 2.35483 56.9713 2.72463 57.0125 3.30127V3.34246L57.0537 3.38365C57.0949 3.46513 57.2184 3.50632 57.3411 3.50632C57.5059 3.50632 57.6294 3.42484 57.6706 3.34246V3.26008C57.5059 2.80701 57.6294 1.53194 57.7933 0.915008ZM47.0654 33.7434C47.0654 38.6386 49.4087 42.094 52.4504 44.1516C55.2038 46.0024 58.4514 46.7017 61.8629 46.7017C64.2886 46.7017 67.0008 46.126 67.8648 45.8377C68.2758 45.6738 68.728 45.5503 69.1802 45.4679C69.7551 44.7274 70.7418 42.2587 70.9889 40.2835C70.8242 40.0372 70.2484 39.9548 70.0022 40.1196C69.139 42.3411 66.9605 45.5503 62.0689 45.5503C55.8619 45.5503 50.8055 41.1484 50.8055 33.2088C50.8055 25.3507 55.7392 21.6894 61.5343 21.6894C67.042 21.6894 68.728 24.6514 69.3029 27.2436C69.55 27.4907 70.1249 27.4496 70.3308 27.1612C70.0434 24.8573 69.8374 22.4711 69.7962 21.6079C69.4676 21.6491 69.1802 21.5667 68.728 21.4432C66.9605 20.9489 64.0826 20.5379 62.0277 20.5379C58.0816 20.5379 54.5868 21.6079 51.7931 23.747C48.9565 25.9274 47.0654 29.5475 47.0654 33.7434ZM37.1998 27.326V0.914113C15.9902 -1.14264 0 0.914113 0 0.914113V27.3251C1.68516 45.2198 18.4562 47.3178 18.5797 47.2766C21.6214 46.7832 35.6373 43.9457 37.1998 27.326ZM6.00103 33.9072C6.33054 34.1544 6.74154 34.2368 7.11134 34.4015C7.56352 35.5942 7.11134 36.7466 6.86421 36.2523C6.41202 35.4303 6.20697 34.7292 6.00103 33.9072ZM6.00103 20.9489C5.95984 20.9086 3.61745 22.3896 2.09705 21.6894C3.20646 21.0725 7.11134 18.6047 8.17956 17.9054C8.67293 18.0281 8.87798 17.823 9.04274 17.7406C8.63174 17.7818 7.2752 17.9878 7.97451 16.753C8.22075 17.823 10.1119 16.8354 10.8103 16.6706C12.7014 16.2184 12.7014 18.2752 12.5366 19.0981C12.4963 19.4276 13.1124 19.6326 13.441 19.5914C12.9073 20.9077 11.9618 19.6738 11.8794 20.1681C11.8382 20.374 11.2213 20.5379 11.2213 21.0313C11.2213 21.7306 11.5096 21.3608 11.5096 21.8953C11.5508 22.4299 11.3036 22.0189 11.3448 22.5947C11.4272 23.4999 12.9476 22.4711 13.5654 22.7182C13.8932 22.8418 14.0991 23.1301 14.3865 23.0477C14.4689 22.9653 14.4277 22.6358 14.4277 22.5123C14.3865 22.2248 13.852 22.1837 13.6057 21.8139C13.3998 21.4843 13.852 20.4555 14.0982 20.1269C14.4689 21.813 16.0314 21.2784 16.2776 23.0889C16.4424 23.5814 15.7431 24.158 16.2776 24.9809C15.8658 25.3928 15.3733 27.326 16.2365 28.2313C16.0717 28.6422 15.9078 29.5887 16.6886 30.1644C16.4424 30.7402 16.4827 31.3983 16.6886 32.0985C16.1962 32.0985 16.3188 29.3827 13.3998 29.2601C13.3183 29.218 13.3183 29.5887 13.3998 29.7114C13.7705 30.3292 14.2227 30.288 14.0982 31.7278C14.0579 32.2212 13.7705 31.6454 13.6057 31.5219C13.2359 31.1924 12.9888 31.1512 12.8249 30.1644C11.6332 31.1109 11.7558 32.2212 11.8382 32.7969C11.8382 32.7969 11.592 32.0985 11.2625 31.3571C11.2625 31.3159 12.4551 29.8349 12.6602 29.5063C15.127 25.0633 11.0574 30.9461 11.0574 30.9049C10.8515 30.4107 10.6455 29.9585 10.5228 29.8349C10.564 29.7937 11.2213 29.012 11.5508 28.3951C13.441 24.4464 10.3993 29.7114 10.3178 29.6299C10.0707 29.4239 9.90591 29.1768 9.74205 29.2592C9.70086 29.877 9.5773 29.7937 9.61848 30.4107C9.28987 30.8226 8.63174 31.5219 8.13837 31.8514C8.13837 31.8514 8.0157 30.7402 8.05689 30.699C8.30313 30.4107 9.24778 29.3827 9.41344 29.0944C12.5366 24.1992 7.93332 30.288 7.93332 30.2047C7.89214 29.9997 7.6459 29.6711 7.39877 29.4239C7.39877 29.4239 8.42669 28.0253 8.67293 27.531C10.564 23.6235 7.15253 29.2592 7.11134 29.2592C7.02896 29.1768 6.98777 29.1768 6.9054 29.1356C6.82302 29.0944 7.02896 28.0253 7.15253 27.3672C7.39876 26.0509 6.70035 27.12 6.53559 29.1768C6.37084 29.218 5.91955 29.2592 5.75479 29.3827C5.87836 29.9173 6.00103 29.5063 6.20697 30.0409C6.4944 30.6587 5.83717 31.7278 6.41292 32.4674C6.61797 32.7558 6.65916 32.7146 6.61797 32.9205C6.24816 32.8793 6.04222 32.8793 5.79598 33.1676C5.3438 31.1924 5.38409 30.2468 5.46737 28.2304C5.50766 27.326 5.79598 25.9274 5.67331 25.9274C5.59004 25.8862 3.49389 31.2336 3.00052 32.2624C2.13734 31.9741 3.53507 27.3672 5.3438 25.1457C5.50766 24.4464 4.39825 25.8441 3.74102 26.4207C3.12319 26.9553 2.34329 27.6134 1.52041 27.3672C2.58952 26.2148 5.05548 24.0757 5.3438 23.5411C5.59004 23.0889 3.65864 24.9809 1.64397 24.2816C2.96022 23.6235 6.00103 22.0601 6.00103 20.9489ZM9.65967 30.9864C9.65967 31.4807 9.61848 31.8514 9.78324 32.3448C10.0295 33.0853 9.90591 32.8793 9.57729 32.5919C9.33106 32.3036 9.08482 32.0976 8.96125 31.7681C8.96125 31.5219 9.12511 31.521 9.65967 30.9864ZM14.5513 18.9745C14.2639 18.4811 14.9211 17.9878 14.9211 17.9878C14.9211 19.3864 16.7298 18.44 17.6754 18.8921C17.9216 19.0157 18.0452 19.1805 18.1679 19.4276C17.0996 18.6871 15.2094 20.126 14.5513 18.9745ZM3.90398 7.62072C2.3012 7.62072 2.34239 5.19417 3.90398 5.19417C5.50677 5.19417 5.50677 7.62072 3.90398 7.62072ZM3.90398 12.4747C2.26001 12.4747 2.26001 10.0482 3.90398 10.0482C5.50677 10.0482 5.50677 12.4747 3.90398 12.4747ZM5.54795 5.8514H6.94569V7.25003H5.54885L5.54795 5.8514ZM5.54795 10.7063H6.94569V12.1049H5.54885L5.54795 10.7063ZM18.3317 14.4903C18.3317 14.4903 16.8525 13.7086 15.1261 13.5859C13.4401 13.4624 10.0698 14.8198 7.48025 14.6551V3.17771C7.48025 3.17771 10.4396 3.5896 11.6726 3.09533C15.8246 1.49076 18.3729 3.30127 18.3729 3.30127V14.4903H18.3317ZM21.2096 16.342C21.2919 16.7539 20.88 16.8766 20.88 16.8766C21.4979 17.0413 21.7844 16.6706 21.908 16.4244C22.1551 17.4111 21.1272 17.4523 20.8398 17.5347C20.8398 17.5347 21.3322 17.6994 21.3734 18.0281C21.4558 18.8518 21.9903 18.8098 22.1139 18.7283C22.1139 18.8098 21.908 19.3452 21.3322 18.8921C21.2096 18.9745 21.497 19.1393 21.5382 19.5503C21.6205 20.0857 21.5794 20.5791 22.1954 20.8665C21.8256 21.1548 21.3734 20.374 21.3322 20.4967C21.2919 20.6203 21.8668 20.8674 21.2507 22.3484C20.9624 22.1837 21.1272 22.2248 20.7986 21.813C20.5514 21.607 20.469 21.5667 20.675 21.8953C21.0448 22.3484 21.1272 23.3763 21.0036 23.6647C20.7162 23.5411 20.7977 23.294 20.4279 22.9653C20.3876 23.0889 20.5514 23.7882 20.9212 24.1168C21.5382 24.6926 21.7844 25.3919 21.7844 25.5155C21.8256 26.05 21.6617 26.7091 21.6206 27.4084C21.3322 27.3672 21.0448 26.5031 21.0036 26.5443C20.9212 26.5855 21.0448 27.4084 21.6206 27.9429C21.908 28.7658 21.7844 29.1768 21.7029 29.218C21.6205 29.2592 21.291 28.3951 21.1272 28.5599C21.9492 30.6166 21.3734 31.3571 21.1684 32.0161C21.0036 31.3571 20.9212 30.8638 20.7162 30.1232C20.264 30.4519 20.1816 30.9873 19.6059 31.4807C19.6059 30.6166 19.1134 28.6011 18.7427 28.1077C18.7427 28.0665 18.0443 29.9173 17.7157 30.7814C17.3038 31.8514 17.2635 33.1676 17.7157 34.2377C16.7289 32.7969 16.6054 30.1232 17.4685 29.7937C17.5509 29.5878 17.4273 28.9709 17.2223 29.0532C17.1811 29.3416 17.2223 29.6299 16.934 29.9173C16.2767 29.7114 16.5642 28.8894 16.6474 28.6422C17.5097 27.6134 16.9752 27.3672 16.934 27.4084C16.8525 27.6546 16.7701 27.9429 16.4818 28.0253C15.9481 27.0789 16.2759 25.5567 17.3459 24.4464C17.3862 24.0345 16.8937 24.775 16.523 24.7338C16.4415 23.9109 16.7289 22.5535 18.209 22.4711C17.9207 22.3896 17.7569 22.3484 17.7157 22.1013C18.1679 22.0189 19.5647 21.9365 19.3596 20.8262C19.2361 20.9489 19.1949 21.1548 18.8251 21.402C18.5788 21.5667 18.2905 21.5667 18.1679 21.3608C18.8251 21.1548 18.62 20.332 17.756 20.5791C17.5097 20.6615 17.0987 20.3731 17.0987 20.0857C17.3047 20.2917 17.6745 20.1269 17.8795 20.0033C18.8251 19.3855 19.442 20.2908 19.5647 20.4967C19.6059 20.4967 19.9766 19.5923 18.62 19.3452C18.4965 19.0157 18.2081 18.4811 17.2635 18.5214C16.9752 17.4523 16.0305 17.9878 16.0708 18.4811C15.085 17.7406 16.0708 16.8354 16.4827 16.7118C16.7692 16.753 16.6877 17.6171 17.1811 17.4523C17.3047 17.4111 16.8113 16.8354 16.9752 16.5882C17.4273 16.342 17.4273 16.9178 17.6333 16.7118C17.7569 16.342 18.1679 16.1361 18.5377 16.0949C19.4832 15.7663 20.264 16.8766 21.2096 16.342ZM30.2111 14.6551C28.0326 14.7786 23.5519 13.5448 22.4013 13.5448C20.0169 13.5448 18.9075 14.4491 18.9075 14.4491V3.30127C18.9075 3.30127 22.0315 1.86146 24.2924 2.68344C27.0458 3.71316 30.2523 3.26008 30.2523 3.26008L30.2111 14.6551ZM33.0889 10.2532C34.2807 10.0885 34.4858 11.4871 34.4858 11.4871C34.1993 11.2409 33.5814 11.1585 33.2116 11.4056C31.8551 12.2688 30.6633 12.2688 30.6633 12.2688V10.0885C30.6221 10.1297 30.8692 10.5827 33.0889 10.2532ZM34.527 7.29121C34.527 7.20884 34.4858 7.12646 34.4858 7.00379C34.4455 6.79784 33.8286 6.67428 33.4176 6.83904C32.8006 7.12646 31.2802 7.99053 30.7045 7.82577V5.64545C32.1013 6.26329 32.6368 5.68664 33.0889 5.68664C34.4455 5.68664 34.527 6.9626 34.527 6.9626C34.4858 7.12646 34.4858 7.20884 34.527 7.29121ZM32.9654 29.7123C32.5535 29.8349 31.4853 30.2468 31.239 30.6578C31.3626 28.3539 30.6221 26.0912 30.3759 25.5567C29.9237 24.4875 30.5818 28.0253 30.6221 28.8482C30.6221 28.8894 26.7996 23.9109 29.1017 27.7379C29.7177 28.7246 30.6221 29.3827 30.6221 29.3827C30.6221 30.0812 30.5809 30.5754 30.4582 30.9461C30.2111 31.1521 25.238 24.3228 27.9914 29.0532C28.3209 29.6299 30.3347 31.3992 30.2935 31.4395C30.1318 31.7912 29.9093 32.1116 29.6362 32.3859C29.5951 32.3448 28.4847 31.5219 28.4847 31.4807C28.4024 30.9461 28.4024 30.4519 27.7451 30.8226C27.7451 30.8226 25.2783 27.9841 26.4289 29.9585C26.9232 30.8226 27.2518 30.9461 27.3753 31.0688C27.3753 31.0688 27.0055 31.6043 26.882 32.1388C26.8408 32.3448 24.7446 29.8349 25.5657 31.4404C25.8129 31.9329 26.7584 32.5095 26.7584 32.5507C26.6813 32.8443 26.5853 33.1327 26.471 33.4139C26.3474 33.661 24.4975 35.142 24.5387 35.142C24.5387 35.142 24.9085 33.9905 25.6902 33.4139C26.1415 33.0853 26.1415 33.1676 26.4298 32.9617C26.4298 32.7969 26.265 32.5095 26.06 32.4271C25.8128 32.3448 24.9497 32.5095 24.9497 32.5095C25.0321 32.0976 24.6623 31.1512 24.6623 30.1232C24.3336 30.1644 23.7579 30.6578 23.6343 30.9461C23.5519 32.6322 23.1821 32.1388 22.8123 33.3727C22.4425 32.8802 22.8535 32.1388 22.4837 31.6445C21.9904 30.9873 21.908 30.5342 21.8256 29.7114C21.9492 29.6299 22.4425 29.0944 21.9903 27.8605C21.908 25.9685 22.7711 25.2692 21.2507 23.9521C21.3734 23.9109 21.4567 22.9653 21.4567 22.9653C22.5661 23.5411 22.361 22.266 22.7711 22.0189C23.4696 21.607 23.3469 21.196 23.0183 20.7027C24.9909 21.2784 22.9359 22.5947 23.7991 22.6367C24.4563 22.6367 24.8673 22.5123 25.1556 22.0601C25.4431 21.6079 25.1144 21.3196 25.9364 20.5791C26.0188 20.4967 26.2238 20.0033 25.5666 19.8798C25.4019 19.8386 25.5666 19.304 25.5666 19.304C25.0321 19.7562 24.8682 20.3731 24.0453 19.9621C23.5931 19.7562 23.3469 19.9621 23.141 20.0445C23.141 20.0445 23.0595 19.6738 23.4293 19.5503C24.3748 19.2216 24.5799 18.8518 24.5396 18.6871C24.4151 18.1928 24.3748 18.6871 24.4151 18.1928C24.4151 17.9869 24.6623 17.6994 24.8673 17.4944C25.4842 16.753 25.9364 17.0001 26.1012 17.0825C26.471 16.7942 26.5122 16.8354 26.882 16.6706C27.4568 16.4244 28.7319 16.8354 29.4303 17.1649C29.7589 17.3287 30.1699 17.4111 30.5809 17.3288C30.5809 17.5347 30.417 17.6583 30.2935 17.6994C30.0875 17.7818 29.801 17.6995 29.8413 17.8642C29.8413 17.9466 30.1699 17.9878 30.3338 18.0281C31.3626 18.3164 32.7191 19.2628 31.856 19.0578C31.7324 19.0157 32.5132 19.6326 33.0469 20.374L35.0203 22.3072C34.938 22.4299 34.2395 22.3072 32.0207 20.2496C31.6912 20.5379 34.6917 22.8006 35.9659 25.1869C35.8423 25.2692 34.3219 24.6926 33.7462 24.1168C32.883 23.2125 31.8963 20.9489 31.4853 21.2784C31.4441 21.2784 33.1301 23.9109 33.9521 25.4743C34.3631 26.256 34.7329 27.3672 34.7329 28.2304C34.8565 32.4271 34.2404 32.0985 34.2404 32.0985C33.2528 28.807 32.8006 24.98 31.3626 23.2116C30.7868 22.5132 32.883 26.2972 32.9654 29.7123ZM28.6495 33.4551C28.1973 33.8258 27.909 33.9905 28.0326 33.7846C28.1561 33.5786 28.2385 33.3727 28.2797 33.2088L28.6495 33.4551ZM28.3612 32.9617C28.4436 32.5919 28.4436 32.386 28.5259 32.0573C28.5259 31.9329 28.5671 31.9329 28.5671 31.8102C28.5671 31.769 29.5127 32.5919 29.5951 32.6322C29.3479 32.9205 29.1429 33.0441 28.9369 33.25C28.6907 33.1265 28.3209 33.0029 28.3612 32.9617ZM31.4441 34.0317C30.1287 35.348 28.1149 34.8537 26.5534 35.5539C25.1144 36.0885 24.0865 37.4047 22.6073 37.7333C22.1551 37.8569 22.1139 38.104 22.3602 38.104C22.5249 38.104 23.4293 39.0505 24.8673 38.31C25.3607 38.0628 26.882 37.24 27.1282 37.1576C26.3062 37.9393 25.8952 38.6386 25.1556 39.0505C24.7034 39.2967 22.8947 39.9548 21.086 39.585C20.264 39.4203 19.6471 40.1608 19.853 40.1608C20.264 40.0372 20.7574 40.1196 21.0448 40.4903C21.5794 40.9022 22.319 41.4358 22.9771 40.6542C23.183 40.4079 24.2513 39.8734 25.1968 40.8601C24.1689 40.8189 24.2513 42.6706 22.2778 42.4647C21.5382 42.4647 19.9354 40.7777 19.4832 41.3132C18.6612 42.2175 21.2507 43.0816 20.1404 44.234C19.1537 45.2619 17.9207 43.4102 17.9207 43.4102C18.5377 43.6574 19.6883 43.8633 19.1949 42.8345C18.9889 42.4235 18.62 42.0537 18.62 41.3123C18.5377 40.9425 16.2356 44.2743 14.7152 42.753C14.0973 42.1764 12.9064 40.8601 11.7961 40.3667C14.7152 40.1196 15.1261 41.2711 15.29 41.477C16.2356 42.7118 17.0575 41.477 17.2635 41.2308C17.5509 40.9013 18.0031 40.407 17.8383 40.3255C16.728 39.791 15.4136 39.6674 14.468 40.1196C16.523 37.2812 18.1267 39.9548 18.1267 39.9548C18.3326 40.0784 18.0855 38.2688 16.0305 38.1864C14.7554 38.104 13.646 39.2555 12.7829 39.2555C12.0844 39.2555 9.90502 37.8157 9.41254 36.4995C10.6867 37.4459 12.2895 37.9805 13.2762 37.3635C15.1664 36.2532 17.5097 37.9393 17.6333 37.7333C17.0987 37.3223 15.9069 35.7187 12.7005 36.623C11.4675 37.3223 10.9329 36.0885 10.1521 36.0885C11.4675 34.9361 12.3719 35.5118 12.824 35.553C12.9476 35.553 12.2895 35.0184 11.8373 34.9773C8.26105 34.6075 6.00014 33.6198 6.00014 33.6198C6.00014 33.6198 6.28846 32.9214 7.80886 33.4139C7.80886 33.4139 6.45232 32.5919 6.45232 31.4807C6.49351 30.8226 6.82212 30.0821 6.32965 29.5466C8.38461 29.4651 6.94569 32.3448 8.38461 33.0853C8.4258 33.0853 7.97272 32.3859 8.59056 31.8514C8.87709 32.7146 9.61759 33.1265 10.1521 33.2912C10.2757 33.2088 10.4396 32.9617 10.4396 32.9617C9.90501 32.0573 9.82353 30.9873 9.98739 29.7937H10.0286C10.1521 29.7937 10.3572 30.2056 10.4808 30.4931C10.7682 31.1512 10.7682 32.0564 11.3851 32.839C11.7137 33.25 11.9197 33.7022 12.2071 33.9081C12.3307 33.6198 12.2483 33.0844 12.2071 32.9617C12.1247 32.4683 11.8373 31.6043 12.6593 30.8638C13.0712 31.9741 13.5637 31.6866 13.646 32.2212C13.7284 32.9617 13.7284 32.8793 13.646 33.4551C13.6872 34.2788 14.4268 34.4839 15.0429 35.0185C16.523 35.8001 17.4694 36.2523 18.1267 37.2812C18.4553 35.553 13.8108 35.2244 14.3856 31.8917C14.3033 30.5754 14.5504 30.4519 13.6048 29.6299C15.4548 29.6711 16.4818 32.7558 16.5642 33.2912C16.7701 34.3191 17.3862 34.3603 18.209 35.7178C18.3317 35.759 16.6877 32.1388 18.6612 29.0532C18.6612 29.0532 19.3184 30.6578 19.031 31.7278C18.8251 32.3448 19.031 33.0441 19.0722 33.456C19.1125 33.867 18.9898 31.9741 20.3876 31.0285C20.469 31.7269 21.1684 32.8381 20.5102 33.9905C19.7294 35.4303 19.6883 34.8949 19.6471 36.6642C19.7294 36.623 19.9354 35.4715 20.4691 34.7722C21.6205 33.3727 20.7986 32.5919 21.908 31.3571C21.9904 31.975 22.1551 31.7278 22.2366 32.2624C22.4013 33.4963 21.086 34.8125 21.3734 34.7722C21.7029 34.731 22.2366 34.4427 22.4013 33.4963C22.4013 33.4963 22.8535 34.3603 22.4425 34.6486C21.6617 35.142 21.497 35.7178 21.6206 36.3347C22.2366 35.5942 23.0998 34.7722 22.9359 33.7022C23.0183 33.0441 23.7167 32.7978 23.8403 31.3159C23.8815 31.0697 24.1277 30.7814 24.3748 30.6175C24.2513 31.4395 24.9085 32.3036 24.1689 33.3315C24.3336 33.4139 24.9497 32.5507 25.8952 32.839C24.0453 33.1676 24.5799 35.1832 23.1821 36.0885C22.7711 36.3759 22.8123 36.6642 22.6897 36.7054C23.9629 36.623 24.9085 35.142 25.0732 35.0185C26.3474 34.1544 26.5936 34.0317 27.1282 32.6322C27.3342 32.0976 27.1694 31.8917 27.8687 31.1512C28.1552 31.8514 27.7451 33.2912 27.6216 33.6198C27.3753 34.2779 26.5937 34.8537 26.7584 34.8537C30.1287 33.3727 30.0884 32.3448 30.9104 31.2747C31.1567 30.8629 32.3484 30.1644 32.8006 30.0821C32.678 30.288 32.2258 30.6999 32.1846 31.0697C32.1434 31.8102 31.8963 32.2624 31.5265 32.8793C31.7324 33.1265 32.1434 32.3859 32.5544 32.7558C32.1022 33.0441 31.856 33.661 31.4441 34.0317ZM32.0198 33.8258C31.8139 34.8125 31.4853 35.7178 30.8692 36.5818C30.4573 37.1997 30.2935 36.0061 30.6221 34.8949C31.1621 34.6475 31.6397 34.2822 32.0198 33.8258ZM29.4321 8.73103C29.3497 8.68985 29.1859 8.68984 29.1035 8.68984C29.0211 8.68984 28.9387 8.8546 29.0623 8.8546C29.1447 8.89579 29.3085 8.89579 29.4321 8.89579C29.5557 8.93698 29.5145 8.77222 29.4321 8.73103ZM29.0623 9.2253C29.1447 9.26649 29.3085 9.26649 29.4321 9.26649C29.5145 9.26649 29.5145 9.10173 29.4321 9.10173C29.3497 9.06054 29.1859 9.06054 29.1035 9.06054C28.9799 9.06054 28.8975 9.18411 29.0623 9.2253ZM29.0623 11.3644C28.9182 11.233 28.7673 11.1093 28.6101 10.9937C28.4865 11.0761 28.2815 11.2409 28.1579 11.3232C28.0756 11.1997 27.9108 11.0349 27.7057 10.8702C27.5822 10.9525 27.2133 11.2821 27.0888 11.3644C27.2948 11.3644 27.6234 11.4468 27.6234 11.6519V13.0093C27.7469 13.0505 27.9108 13.0093 28.1167 13.0093V11.5283C28.1991 11.4871 28.2403 11.4468 28.2815 11.4056C28.363 11.4468 28.5689 11.7342 28.7337 11.7754C28.8152 11.693 29.0623 11.4871 29.1447 11.4056C29.2673 11.3644 29.1447 11.2821 29.0623 11.3644ZM28.4454 9.67748C28.5689 9.47154 28.7337 9.10173 28.7337 8.81341C28.7337 8.4848 28.5277 7.94934 27.9932 7.78548C27.3771 7.99143 26.9661 8.52599 26.9661 9.10173C26.9661 9.43035 27.2536 10.1709 27.8705 10.1709C28.0764 10.0061 28.2403 9.80105 28.4454 9.67748ZM28.0756 9.80105C27.952 9.75986 27.541 9.43035 27.4183 9.14292C27.2948 8.81341 27.2948 8.44361 27.6646 8.19647C27.952 8.32004 28.2815 8.56628 28.3227 8.81431C28.3227 9.18411 28.2403 9.5951 28.0756 9.80105ZM28.0344 7.16855L28.4865 6.67428C28.4865 6.67428 28.2806 6.50952 28.1579 6.38596C28.1579 6.26329 28.1579 5.27565 28.1991 5.23446C27.8705 4.94614 27.6234 4.90495 27.4586 4.90495C27.1721 4.94614 26.8838 5.31684 26.8014 5.44041C26.719 5.52278 26.7602 5.64635 26.8014 5.68664C26.8426 5.72783 26.925 5.76902 27.0073 5.81021C27.0073 5.81021 26.9661 5.81021 26.9661 5.76902C26.8426 5.89259 26.6366 6.2221 26.6366 6.46833C26.6366 6.71547 26.8426 7.04498 27.0073 7.16765C27.1712 7.04498 27.4183 6.83903 27.7469 6.75665C27.8293 6.9626 27.9108 7.08617 28.0344 7.16855ZM27.7881 6.01615C27.5822 5.93377 27.13 5.72783 26.9661 5.60426C26.9249 5.56397 26.9249 5.56397 26.9661 5.48159C27.0476 5.31684 27.1721 5.19327 27.2536 5.19327C27.3359 5.19327 27.7881 5.44041 27.746 5.56397C27.7881 5.64545 27.7881 5.8514 27.7881 6.01615ZM27.7881 6.71547C27.6646 6.71547 27.5822 6.75666 27.4183 6.83904C27.2948 6.75666 26.9661 6.34566 27.2124 5.93467C27.1712 5.93467 27.13 5.89259 27.13 5.89259C27.3359 6.01615 27.5822 6.13972 27.7881 6.18091V6.71547ZM26.4719 4.65871C26.3492 4.65871 25.6508 4.65871 25.6508 4.61752C25.584 4.41401 25.5988 4.19254 25.692 3.99969C25.7323 3.87702 25.6508 3.83583 25.5684 3.9594C25.5272 4.08297 25.1565 4.57633 24.7876 4.74109C24.5817 4.82347 25.0338 4.98733 24.9936 4.98733C24.9936 5.48159 25.0741 6.18091 25.1574 6.46833C25.2398 6.63309 25.4037 6.92141 25.5684 6.83904C25.6508 6.79785 25.8558 6.42714 25.897 6.34566C26.0206 6.26328 25.897 6.09853 25.8146 6.2221C25.7323 6.30448 25.6508 6.18091 25.6087 6.09853C25.5684 6.01615 25.486 4.94614 25.5272 4.94614C25.5272 4.94614 26.3904 4.82347 26.4728 4.82347C26.5551 4.86466 26.5543 4.65871 26.4719 4.65871ZM24.1295 6.5928L24.4993 6.13972C24.253 6.09853 24.1295 6.05734 23.9647 5.8514V4.74109L23.5949 4.37039H23.4722L22.8965 4.86466C22.8553 4.94614 22.9789 4.94614 23.0613 4.86466L23.4722 5.1109V6.2212C23.5125 6.34566 23.5949 6.46834 23.7588 6.63309H24.1295V6.5928ZM23.8421 4.08296L24.048 3.91821V3.62989L23.8009 3.38365L23.5537 3.58959V3.91821L23.7185 4.08296H23.8421ZM22.9377 3.75346C22.7729 3.75346 22.2796 3.79464 22.1157 3.79464C21.951 3.83583 21.951 3.91821 22.0745 3.91821C22.2384 3.91821 22.2384 3.9594 22.3208 4.16534C22.4031 4.37129 22.0333 5.27565 21.951 5.48159C21.8274 5.31684 21.4585 4.49396 21.4585 4.37129C21.4585 4.28801 21.6223 4.20564 21.7047 4.20564C21.8274 4.16534 21.8274 4.08297 21.7459 4.04178C21.4576 4.00059 20.3894 3.91821 20.2246 3.87702C20.101 3.87702 20.0187 4.00059 20.1834 4.00059C20.3482 4.00059 20.512 3.9594 20.718 4.20653C20.9239 4.49396 21.5812 5.93467 21.7459 6.55071C21.8274 6.42714 22.4855 4.49396 22.5267 4.28801C22.5679 4.08207 22.7326 3.87613 22.8965 3.83583C23.1024 3.83583 23.1024 3.75346 22.9377 3.75346ZM19.8127 8.40242C19.8127 9.18411 20.1422 9.26649 20.512 9.47154C20.8415 9.67748 21.4164 9.63629 21.8686 9.51273C22.0333 9.47154 22.1157 9.47154 22.1157 9.5951C22.1157 9.67748 22.2384 9.67748 22.2384 9.5951V8.77222C22.2384 8.68985 22.1157 8.68985 22.1157 8.77222C22.1157 8.89579 22.1157 8.93698 21.9921 9.06054C21.7047 9.51273 20.9642 9.47243 20.5532 8.93698C20.4297 8.77222 20.307 8.52509 20.4297 8.44361C20.5944 8.40242 21.0878 8.4848 21.3752 8.52598C21.5812 8.52598 21.9921 8.56628 22.0736 8.60747C22.1157 8.64866 22.1972 8.68984 22.1972 8.60747V8.11499C22.1972 8.03172 22.1157 8.07291 22.0745 8.11499C22.0333 8.15529 21.54 8.23766 21.3761 8.27885C21.1702 8.32004 20.5944 8.36123 20.4717 8.32004C20.307 8.27885 20.3482 7.94934 20.512 7.78548C20.9239 7.25003 21.7459 7.29121 22.0333 7.74429C22.1157 7.90815 22.1157 7.95024 22.1157 8.07291C22.1157 8.15528 22.2384 8.15528 22.2384 8.07291V7.12646C22.2384 7.04498 22.1157 7.04498 22.1157 7.12646C22.1157 7.16765 21.9921 7.20884 21.8686 7.16765C21.6223 7.08617 20.8818 7.20884 20.5532 7.37359C20.2246 7.53835 19.8127 7.90815 19.8127 8.40242ZM19.9372 9.80105C19.9372 10.0473 20.0187 11.9814 20.0187 12.2688C20.0187 12.4335 20.2246 12.5983 20.3894 12.7219C20.4708 12.5983 20.6759 12.31 20.8415 12.1873C20.923 12.1049 20.8818 12.0637 20.8004 12.0637C20.6356 12.1461 20.512 12.0637 20.4708 11.899V9.80105C20.3894 9.84224 20.0598 9.84224 19.9372 9.80105ZM21.54 11.4056C21.4164 11.5283 21.1702 11.8578 21.1702 12.0637C21.1702 12.31 21.2937 12.5159 21.4164 12.6807C21.6635 12.5159 21.7862 12.2688 22.1972 12.1461C22.2384 12.31 22.3619 12.3521 22.5267 12.4747C22.6091 12.3924 22.9377 11.9814 23.0192 11.899C23.1016 11.8166 23.0613 11.7754 22.9377 11.8166C22.8141 11.899 22.7729 11.8578 22.5679 11.6519C22.5679 11.5283 22.5679 10.7063 22.6091 10.6651C22.4443 10.5004 22.2796 10.2532 22.1157 10.2532C21.8274 10.2944 21.4988 10.7466 21.4173 10.8711C21.334 10.9525 21.4173 11.3232 21.4576 11.3635L21.54 11.4056ZM21.7459 11.5695C21.9098 11.6519 21.9921 11.6107 22.1972 11.5695V11.9402C22.0745 12.0226 21.951 12.0637 21.8274 12.1461C21.7047 12.0226 21.54 11.9402 21.7459 11.5695ZM21.6223 10.8711C21.7047 10.7063 21.7862 10.7063 21.8686 10.7063C21.951 10.7063 22.2384 10.9123 22.1972 11.0349V11.4871C21.9912 11.5283 21.8274 11.5283 21.6223 11.3232C21.5812 11.2821 21.5812 10.9534 21.6223 10.8711ZM23.3075 10.5415C23.1427 10.6239 23.5537 10.7878 23.5134 10.7878C23.5134 11.2821 23.4311 12.0226 23.5949 12.2688C23.6773 12.4335 23.9244 12.5159 24.0883 12.4747C24.253 12.4335 24.4169 12.1049 24.5002 12.0629C24.6229 11.9814 24.5002 11.899 24.4169 11.9814C24.3354 12.0637 24.0883 12.0226 24.0471 11.9402C24.0059 11.8578 24.0059 10.8299 24.0471 10.7878H24.4169C24.4993 10.7878 24.4993 10.5818 24.4169 10.5818C24.2942 10.5818 24.0883 10.5416 24.0471 10.5004C24.0059 10.418 24.0471 10.0885 24.1295 9.9658C24.2119 9.84224 24.0883 9.75986 24.0059 9.92461C23.9244 10.0885 23.6361 10.3768 23.3075 10.5415ZM23.3899 8.40152C23.3899 8.8546 23.1839 9.30678 22.9377 9.55391C23.3899 9.43035 23.4302 9.18411 23.6773 8.8555C23.8009 9.06054 24.0471 9.30678 24.253 9.38916C24.3766 9.30678 24.7455 8.89579 24.8279 8.81341C24.5817 8.73103 24.0883 8.4848 23.9647 8.19647C23.8832 7.99053 23.8832 7.90815 24.0059 7.74429C24.0883 7.86696 24.7043 8.15528 24.9927 7.66191C24.7052 7.53835 24.4169 7.37359 24.3354 7.20884C24.253 7.29121 24.0059 7.57954 23.8421 7.66191C23.8009 7.49716 23.5537 7.3324 23.3487 7.29121C23.2663 7.37359 22.8141 7.7031 22.6091 7.82577C22.5267 7.86696 22.5679 7.99053 22.6494 7.94934C22.7317 7.90815 22.8965 7.78548 23.0613 7.7031C23.1427 7.78548 23.3899 7.99053 23.3899 8.40152ZM25.486 8.48479C25.5272 8.19647 25.7323 8.1141 25.8146 8.03172C25.9382 8.15529 26.0618 8.32004 26.2668 8.32004C26.4316 8.32004 26.6366 8.23766 26.6787 8.15528C26.514 8.03172 26.1844 7.66191 26.103 7.62072C25.9382 7.7031 25.1574 8.1141 25.1162 8.56628C25.0338 9.2253 25.2398 9.34797 25.5272 9.71867C25.692 9.92461 25.9794 9.92461 26.103 9.92461C26.2256 9.84224 26.719 9.34797 26.8014 9.30678C26.8426 9.26649 26.7602 9.18411 26.719 9.26649C26.6778 9.30678 26.6778 9.34797 26.5954 9.34797C26.514 9.34797 26.1844 9.43035 25.9794 9.30678C25.7323 9.14292 25.4448 8.8546 25.486 8.48479ZM25.1162 10.5827C24.9927 10.7063 24.8279 10.829 24.6229 11.0349C24.7876 11.0349 24.9103 11.0761 24.9515 11.2409C25.0338 11.3644 24.9515 11.9814 24.9927 12.2276C24.9927 12.4335 25.1574 12.5159 25.3213 12.6807C25.486 12.6395 25.9794 12.4336 26.1844 12.31C26.1844 12.5159 26.3904 12.7219 26.5551 12.7631C26.6366 12.6807 26.7611 12.5983 26.8838 12.4747C26.7602 12.3924 26.7602 12.3924 26.719 12.1873C26.6778 12.0226 26.719 11.3635 26.719 11.0761C26.5954 10.9114 26.4316 10.7063 26.2668 10.5827C26.1433 10.7063 25.9794 10.829 25.7744 11.0761C25.9382 11.0761 26.2256 11.1173 26.2256 11.2409C26.2256 11.4056 26.2668 11.7342 26.2256 12.0226C26.1844 12.31 25.4448 12.1873 25.4448 11.9814C25.4448 11.7754 25.486 11.2409 25.486 10.9937C25.4036 10.829 25.3213 10.7475 25.1162 10.5827ZM20.2658 17.2061C19.8539 17.1237 19.5262 16.8354 19.1143 16.6706C18.5806 16.4647 18.0049 16.8766 18.0049 16.9589C18.0049 17.1237 18.1696 17.1649 18.5806 16.9178C18.5343 16.9648 18.4984 17.0211 18.4752 17.0829C18.4519 17.1447 18.4419 17.2107 18.4458 17.2766C18.4497 17.3425 18.4674 17.4068 18.4977 17.4655C18.528 17.5241 18.5703 17.5758 18.6218 17.6171C18.4983 17.5759 18.2923 17.5347 18.1285 17.4935C18.0873 17.6171 18.2923 17.6994 18.3747 17.7406C19.1555 18.0281 19.6077 17.3288 20.2658 17.2061ZM19.0328 17.5759C19.0328 17.5759 19.2388 17.3699 19.2388 17.2061C19.2388 17.0001 19.0328 16.8766 19.0328 16.8766C19.1967 16.9178 19.5665 17.1237 19.7312 17.2473L19.0328 17.5759ZM15.0867 12.1049L15.2927 11.8578C15.0456 11.8166 15.1682 11.8166 15.0456 11.693V10.7466L14.7572 10.2944H14.6346L14.1412 10.7466C14.0176 10.8702 14.1412 10.9114 14.2648 10.7878L14.5934 10.9525V11.9402C14.6346 12.0637 14.7169 12.1049 14.8808 12.2688L15.0867 12.1049ZM15.1682 8.81341C15.333 9.26649 15.7028 9.43124 15.9911 9.43124C16.0811 9.25431 16.1914 9.08844 16.3197 8.93698C16.4433 8.77222 16.3197 8.64866 16.2373 8.8546C16.155 9.01936 15.7852 8.8546 15.6616 8.73103C15.4977 8.56628 15.3742 8.1141 15.4977 7.99053C15.6204 7.82578 15.8264 7.90815 16.1138 7.90815C16.2785 7.90815 16.3197 7.74429 16.3609 7.66191C16.2785 7.62073 16.155 7.53835 15.9911 7.45597C15.8264 7.57954 15.5389 7.78548 15.4566 7.86786C15.2918 7.94934 15.0044 8.36033 15.1682 8.81341ZM15.8666 11.3232C15.7028 11.4871 15.5801 11.693 15.5801 11.9402C15.5801 12.1873 15.6616 12.3924 15.9087 12.5159C16.1147 12.3512 16.4012 12.1873 16.6483 12.104C16.7719 12.2688 16.977 12.3512 17.1005 12.4747C17.1829 12.3924 17.4291 12.1461 17.5124 12.1049C17.5939 12.0226 17.5124 11.9402 17.4291 12.0226C17.3879 12.1049 17.1829 12.0637 17.1417 11.9402C17.1417 11.8578 17.0593 10.7878 17.1005 10.7466C16.9358 10.5827 16.6895 10.212 16.5248 10.212C16.2785 10.2532 15.8675 10.6239 15.7852 10.7063C15.7028 10.7878 15.7843 11.2409 15.8666 11.3232C15.8666 11.2821 15.8255 11.2821 15.8666 11.3232ZM16.5248 11.4056C16.3188 11.4056 16.155 11.3644 15.9499 11.1585C15.9087 11.1173 15.8675 10.8702 15.9087 10.7878C15.9911 10.6239 15.9911 10.5818 16.0726 10.5818C16.155 10.5818 16.5248 10.829 16.5248 10.9525C16.5662 11.1007 16.5662 11.2574 16.5248 11.4056ZM16.0323 11.4468C16.1962 11.5695 16.3188 11.5695 16.5248 11.5283V11.8166C16.5248 11.8578 16.566 11.899 16.566 11.9402L16.1962 12.0637C16.0726 11.9814 15.7037 11.7351 16.0323 11.4468ZM17.4703 9.47154L17.6763 9.2253C17.4291 9.18411 17.4291 9.18411 17.3065 9.10173V7.99143L17.1005 7.7031H16.977L16.4845 8.15528C16.3609 8.27885 16.4845 8.32004 16.6072 8.19647L16.8543 8.36123V9.38916C16.8955 9.51273 16.977 9.55392 17.1417 9.71867L17.4703 9.47154ZM17.1005 5.64545C17.0181 5.64545 16.8543 5.81021 17.4291 5.89259C17.5115 5.8514 17.6351 5.64545 17.1005 5.64545ZM17.1005 5.27565C17.0181 5.27565 16.8543 5.52278 17.4291 5.52278C17.5527 5.52278 17.5939 5.31684 17.1005 5.27565ZM17.2241 7.00379L16.977 6.75665L16.7307 6.9626V7.25003L16.8955 7.41478H17.0593L17.2241 7.25003V7.00379ZM16.7307 4.65782C16.566 4.53515 16.4021 4.24683 15.9911 4.24683C15.5792 4.24683 15.1279 4.61753 14.9632 4.82347C14.7572 5.1109 15.0044 5.39922 15.2506 5.60516C15.0867 5.72783 14.8396 5.97496 14.6346 6.18091C14.7169 6.26329 15.1682 6.50952 15.4566 6.46833C15.8675 6.46833 16.1962 6.26239 16.4433 6.05645C16.8543 5.72783 16.7298 5.39921 16.2785 5.15208C16.2373 5.11089 16.1962 5.1109 16.155 5.1109C16.4433 4.90495 16.6895 4.7402 16.7307 4.65782ZM15.7028 5.52278C15.8264 5.60516 15.9911 5.64545 16.1147 5.72873C16.3197 5.8514 16.2373 6.09853 15.9911 6.18091C15.744 6.30448 15.333 5.97496 15.2506 5.8514C15.333 5.76902 15.4977 5.64545 15.7028 5.52278ZM16.1147 4.94614C16.0726 4.98733 15.9911 5.0697 15.8675 5.15208H15.6616C15.4557 5.11089 15.3742 4.94614 15.2506 4.82347C15.1682 4.6999 15.4154 4.57634 15.5389 4.57634C15.6616 4.61752 15.9499 4.78228 16.1138 4.94614H16.1147ZM14.4286 5.81021C14.243 5.86746 14.0427 5.85272 13.8675 5.76893C13.6922 5.68514 13.555 5.53844 13.4831 5.35803C13.7302 5.1109 14.1412 4.6999 14.3874 4.49396C14.2236 4.3292 14.1412 4.08207 13.8529 4.08207C13.6066 4.08207 12.9897 4.37039 12.867 5.15208C12.7846 5.89259 13.4419 6.30448 14.0176 6.30448C14.1824 6.30448 14.4295 6.05734 14.5522 6.01615C14.7984 5.89259 14.7169 5.76902 14.4286 5.81021ZM13.4419 5.23446C13.278 4.74109 13.3604 4.57633 13.6478 4.3301C13.7237 4.46878 13.8378 4.58282 13.9764 4.65871C13.8126 4.82347 13.5654 5.15208 13.4419 5.23446ZM12.7435 4.78228C12.867 4.6999 12.7435 4.61753 12.6611 4.6999C12.5415 4.58564 12.4316 4.46164 12.3325 4.3292C12.2501 4.41158 12.0039 4.53514 11.8803 4.61752C11.7979 4.49396 11.6743 4.49396 11.4684 4.3292C11.3457 4.41158 11.0995 4.57633 10.9759 4.74109C11.2222 4.82347 11.3878 4.82347 11.3878 5.02852V6.34477C11.5105 6.38596 11.6743 6.34477 11.8391 6.34477V4.82257C11.901 4.79204 11.9569 4.75047 12.0039 4.6999C12.0853 4.74109 12.2098 4.94614 12.3325 5.02852C12.4148 5.02852 12.6611 4.86466 12.7435 4.78228ZM10.8524 7.3324C10.6061 7.37359 10.1951 7.66192 10.1127 7.90815C10.0716 8.03172 10.1128 8.40242 10.1951 8.44361L10.2775 8.52598C10.1128 8.68984 9.948 8.81341 9.948 9.06054C9.948 9.30678 10.1539 9.51273 10.3599 9.5951C10.4184 9.49986 10.496 9.4178 10.5879 9.35415C10.6797 9.29049 10.7838 9.24661 10.8935 9.2253C10.8935 9.38916 10.9347 9.55392 11.0583 9.63629C11.1407 9.55392 11.4693 9.2244 11.5508 9.18411C11.6341 9.10173 11.5508 9.01936 11.4693 9.10173C11.4281 9.14292 11.3045 9.06054 11.2633 9.01935C11.2633 8.93698 11.2634 7.86696 11.3045 7.82577C11.1819 7.7031 11.0171 7.3324 10.8524 7.3324ZM10.8524 8.40242C10.5649 8.60836 10.4826 8.56628 10.2775 8.36123C10.2416 8.29953 10.2193 8.23082 10.2122 8.15976C10.2051 8.0887 10.2133 8.01694 10.2363 7.94934C10.3187 7.82577 10.4826 7.66191 10.5649 7.66191C10.6473 7.66191 10.8524 7.94934 10.8524 8.0738V8.40242ZM10.8524 8.93698V9.10173C10.8112 9.10173 10.7297 9.14292 10.6464 9.18411C10.5237 9.10173 10.0304 8.93698 10.3599 8.64866C10.5649 8.77222 10.6464 8.68985 10.8524 8.56628V8.93698ZM10.6464 6.71547C10.6061 6.67428 10.5237 6.5919 10.5237 6.50952V5.72783C10.5237 5.64545 10.359 5.64545 10.359 5.72783C10.359 5.8514 10.359 6.01615 10.2775 6.18091C9.98918 6.5928 9.45462 6.79784 9.08482 6.26329C8.96215 6.09853 8.92096 5.81021 8.92096 5.64545C8.87977 5.39922 9.08482 5.06971 9.08482 5.02852C9.57819 4.41158 10.2363 4.86466 10.2775 5.1109C10.3187 5.27565 10.359 5.48159 10.359 5.60516C10.359 5.68664 10.5237 5.68664 10.5237 5.60516V4.49485C10.5237 4.41158 10.4002 4.41158 10.4002 4.49485C10.4002 4.65871 10.3187 4.65871 10.1942 4.61752C9.94799 4.53514 9.41433 4.41158 9.12601 4.61752C8.83858 4.78228 8.42759 5.15208 8.42759 5.60516C8.42759 6.38596 8.71502 6.42715 9.08482 6.67428C9.41433 6.88022 9.82532 6.75666 10.2363 6.63309C10.4002 6.5919 10.4002 6.67428 10.4826 6.79784C10.6473 6.9626 10.7288 6.83903 10.6464 6.71547ZM8.50997 7.82577C8.22165 8.23766 8.09808 8.89579 8.55116 9.26649C8.7571 9.43035 8.96215 9.5951 9.41433 9.51273C9.49581 9.34797 9.537 9.26649 9.70086 9.06054C9.41433 9.10173 9.1672 9.06054 8.92096 8.89579C8.46878 8.52598 8.59145 7.94934 8.7562 7.74429C9.00334 7.37359 9.37314 7.90815 9.41433 7.99053C9.49581 7.90815 9.62027 7.74429 9.78413 7.66191C9.66057 7.49716 9.537 7.29121 9.45462 7.20884C9.12601 7.29121 8.67383 7.53835 8.50997 7.82667V7.82577ZM8.67383 11.3644C8.59145 12.1049 9.29076 12.5571 9.61938 12.6807C9.73592 12.449 9.87382 12.2287 10.0313 12.0226C10.1539 11.8578 10.0313 11.8166 9.90681 11.9402C9.74294 12.1049 9.29076 11.9402 9.1672 11.7342C9.37314 11.5695 9.98918 11.0761 10.2363 10.8702C10.0716 10.7063 9.82443 10.3356 9.78413 10.0885C9.537 10.2944 8.79739 10.5827 8.67383 11.3644ZM9.41433 10.5827C9.49581 10.7466 9.70086 11.0761 9.78413 11.1173C9.61938 11.2821 9.20839 11.5695 9.08572 11.6519C8.87977 11.3644 8.7562 10.9534 9.41433 10.5827ZM10.9347 10.2944C10.77 10.418 10.6885 10.5416 10.4826 10.7063C10.5649 10.829 10.7297 10.9525 10.77 11.1585V12.4747H11.1819C11.1407 12.31 11.1819 11.1585 11.1819 10.9525C11.2633 10.8702 11.3045 10.829 11.4281 10.7466C11.5105 10.829 11.7155 10.8702 11.7155 10.9937C11.7155 11.1173 11.7567 11.693 11.7155 11.8981C11.6743 12.1461 11.6743 12.3512 11.8391 12.5983C11.9627 12.4747 12.3316 12.2276 12.4148 12.1461C12.4972 12.0637 12.456 12.0226 12.3325 12.0637C12.2089 12.1049 12.2089 12.1049 12.2089 12.0226C12.2089 11.899 12.1677 11.2821 12.1265 10.8702C12.1265 10.4583 11.9206 10.3768 11.7979 10.2944C11.6743 10.418 11.4281 10.5827 11.2633 10.7063C11.0995 10.7063 11.0574 10.5004 10.9347 10.2944ZM12.4972 9.34797C12.6199 9.2253 12.7435 9.06054 12.7838 9.01935C12.867 8.93698 12.7838 8.8546 12.7032 8.93698C12.6199 9.01935 12.456 8.8546 12.456 8.8546C12.4148 8.77222 12.2913 7.86696 12.3325 7.86696C12.3325 7.86696 12.9082 7.78548 12.9897 7.78548C13.0309 7.78548 13.0721 7.62072 12.9897 7.62072C12.9082 7.62072 12.456 7.66191 12.456 7.62072C12.4148 7.53835 12.3737 7.20884 12.4972 6.92141C12.5787 6.79785 12.4972 6.67428 12.456 6.79784C12.4148 6.92141 12.0441 7.49626 11.7979 7.57954C11.592 7.66192 11.6341 7.7031 11.7567 7.74429C11.8391 7.74429 11.9627 7.86696 11.9215 7.86696C11.9215 8.32004 11.8391 8.89579 12.0039 9.14292C12.1265 9.30678 12.3737 9.43035 12.4963 9.34886L12.4972 9.34797ZM14.4698 9.55391C14.3874 9.67748 14.3051 9.84224 14.0588 9.92461C14.1824 10.0473 14.3462 10.1709 14.4707 10.2532C14.5934 10.1297 14.7169 9.9658 14.8396 9.84134C14.7169 9.80105 14.5522 9.71777 14.4698 9.55391ZM13.5654 9.06054C13.7302 9.06054 14.0588 9.14292 14.3462 9.14292C14.7169 9.10173 15.0447 8.52509 14.8808 8.03262C14.7169 7.57954 14.2236 7.66192 13.8941 7.57954C13.6066 7.49716 13.4419 7.29121 13.8126 7.08616C14.2236 6.83903 14.6758 7.25003 14.7169 7.3324C14.7984 7.45597 14.8396 7.45597 14.8396 7.29121C14.8396 6.92141 14.7984 7.12646 14.7984 6.79784C14.7984 6.67428 14.7169 6.67428 14.6758 6.79784C14.6758 6.92141 14.511 6.88022 14.4286 6.88022C14.3051 6.88022 13.9764 6.83903 13.689 7.00379C13.5243 7.12646 13.1133 7.41478 13.3192 7.82577C13.4419 8.03172 14.2236 8.23767 14.4295 8.36123C14.6346 8.4848 14.6758 8.81341 14.4698 8.97817C14.2236 9.18411 13.6066 9.01935 13.4831 8.89579C13.3604 8.77222 13.3192 8.64865 13.2771 8.4839C13.3192 8.19647 13.1956 8.19648 13.1956 8.36123C13.1956 8.52599 13.2368 9.05965 13.278 9.18411C13.3192 9.30678 13.4419 9.26649 13.4419 9.18411C13.4419 9.06054 13.4831 9.06054 13.5654 9.06054ZM12.7435 10.7063C12.5787 10.829 12.9082 10.9937 12.9082 10.9525C12.9082 11.4056 12.867 11.899 12.9897 12.1461C13.0721 12.31 13.4016 12.3924 13.4419 12.2688C13.4831 12.1461 13.7302 11.8578 13.7714 11.7763C13.8529 11.693 13.7714 11.6107 13.689 11.693C13.5243 11.8578 13.4419 11.7754 13.2771 11.6519C13.2368 11.5695 13.1956 10.9534 13.2368 10.9114C13.2368 10.9114 13.5654 10.8702 13.6066 10.8702C13.6478 10.8702 13.6478 10.7063 13.6066 10.7063C13.5243 10.7063 13.2368 10.7063 13.2368 10.6651C13.1956 10.5827 13.278 10.1297 13.3192 9.92461C13.3192 9.80105 13.278 9.75986 13.2368 9.88342C13.2368 10.0061 12.9082 10.5818 12.7435 10.7063Z" fill="#800000"/>
</svg>
