<svg width="320" height="175" viewBox="0 0 320 175" fill="none" xmlns="http://www.w3.org/2000/svg">
<rect x="0.818824" y="0.818824" width="318.362" height="173.362" rx="2.45647" fill="white"/>
<rect x="0.818824" y="0.818824" width="318.362" height="173.362" rx="2.45647" stroke="#E0E0E0" stroke-width="1.63765"/>
<path d="M276.184 67.245V67.1626C276.143 66.586 276.143 65.8464 276.143 65.0647V64.9411L276.019 64.9823C275.813 65.0235 274.869 65.0235 273.924 65.0235H271.005C270.429 65.0235 269.895 65.0235 269.196 64.9823H269.114C269.069 65.0166 269.031 65.0598 269.003 65.1092C268.974 65.1586 268.956 65.2132 268.95 65.2697C268.95 65.3933 268.99 65.5168 269.073 65.558L269.361 65.5992C270.142 65.6816 270.183 65.764 270.183 67.45V73.1269C270.183 74.8139 270.142 74.8962 269.361 74.9786L268.909 75.0198L268.868 75.061C268.785 75.1434 268.744 75.3081 268.785 75.3896C268.785 75.5132 268.868 75.5956 268.95 75.6368H269.031C269.772 75.5956 270.306 75.5956 271.005 75.5956C271.621 75.5956 272.197 75.5956 273.101 75.6368H273.184C273.307 75.5956 273.348 75.4308 273.348 75.3484C273.348 75.2258 273.307 75.1022 273.225 75.061L272.649 74.9786C271.827 74.8962 271.786 74.8139 271.786 73.1278V70.9475C271.786 70.6592 271.786 70.6592 272.198 70.6592H273.266C273.8 70.6592 274.252 70.6592 274.458 70.7415C274.664 70.8239 274.786 70.9475 274.869 71.2349L275.033 71.893L275.075 71.9342C275.238 72.0578 275.567 72.0578 275.649 71.893V71.8107C275.649 71.6468 275.649 71.4409 275.608 71.1937C275.608 70.9063 275.567 70.5768 275.567 70.2894C275.567 69.9599 275.567 69.6303 275.608 69.3429C275.608 69.0958 275.649 68.8898 275.649 68.6848V68.6024C275.567 68.4789 275.403 68.4789 275.362 68.4789C275.238 68.4789 275.115 68.52 275.075 68.6024L274.91 69.3008C274.827 69.6715 274.704 69.7127 274.581 69.7539C274.416 69.7951 273.923 69.8363 273.265 69.8363H272.197C271.786 69.8363 271.786 69.8363 271.786 69.548V66.2573C271.786 65.764 271.786 65.764 272.156 65.764H273.101C273.759 65.764 274.252 65.764 274.581 65.8463C275.238 66.0102 275.444 66.4633 275.608 67.245V67.2862L275.649 67.3265C275.722 67.3782 275.808 67.4069 275.897 67.4088C275.979 67.4088 276.143 67.3265 276.184 67.245ZM265.62 70.2894C265.62 67.6148 263.852 64.7351 260.03 64.7351C256.741 64.7351 254.275 67.2038 254.275 70.412C254.275 73.1278 256.248 75.883 260.03 75.883C263.195 75.9251 265.62 73.4976 265.62 70.2885V70.2894ZM263.77 70.7818C263.77 74.0322 261.839 75.1846 260.194 75.1846C256.947 75.1846 256.084 71.893 256.084 69.9187C256.084 66.6271 258.056 65.4757 259.742 65.4757C262.743 65.4757 263.771 68.3553 263.771 70.7827L263.77 70.7818ZM250.864 97.688C250.864 104.516 255.919 110.523 264.346 110.523C271.662 110.523 277.499 104.969 277.499 97.2761C277.499 90.6125 273.101 84.2766 264.346 84.2766C256.577 84.3177 250.864 90.1182 250.864 97.688ZM254.645 96.4944C254.645 88.185 259.742 85.5113 263.689 85.5113C270.923 85.5113 273.677 92.2573 273.677 98.5109C273.677 105.956 269.361 109.371 264.798 109.371C257.399 109.371 254.645 102.089 254.645 96.4944ZM246.301 65.558C246.341 65.522 246.372 65.4777 246.394 65.4283C246.415 65.3788 246.425 65.3253 246.424 65.2715C246.423 65.2135 246.407 65.1567 246.379 65.1063C246.35 65.0559 246.309 65.0136 246.259 64.9832H246.177C245.067 65.0656 244.41 65.0656 243.218 64.9832H243.135C243.088 65.0046 243.047 65.0391 243.018 65.0827C242.989 65.1262 242.973 65.1771 242.971 65.2294C242.93 65.353 242.972 65.4765 243.094 65.5589L243.135 65.6001L243.465 65.6413C243.751 65.6825 243.957 65.7649 243.999 65.8061C243.957 66.012 243.382 67.0399 243.053 67.6981L242.971 67.8216C242.601 68.5621 242.15 69.3438 241.615 70.2894C241.203 69.5489 240.793 68.7269 240.382 67.904C240.217 67.5745 240.052 67.2862 239.93 66.9576C239.753 66.5792 239.588 66.1951 239.436 65.8061C239.436 65.7649 239.519 65.7237 240.011 65.6413L240.258 65.6001L240.3 65.5589C240.382 65.4765 240.422 65.3118 240.382 65.1882C240.341 65.0656 240.3 64.9823 240.176 64.9823H240.094C239.724 65.0244 239.148 65.0244 238.409 65.0244C237.669 65.0244 237.093 65.0244 236.6 64.9832H236.517C236.436 65.0244 236.395 65.1067 236.354 65.2294C236.335 65.2865 236.333 65.3477 236.347 65.406C236.362 65.4642 236.393 65.5172 236.436 65.5589L236.476 65.6001L236.97 65.6825C237.381 65.7649 237.587 65.8061 238.121 66.834L239.97 70.4541C240.422 71.3182 240.463 71.483 240.463 72.347V73.169C240.463 74.8971 240.422 74.9795 239.641 75.0619L239.107 75.1031L239.067 75.1443C238.984 75.2267 238.943 75.3905 238.984 75.4729C238.984 75.5965 239.067 75.6788 239.148 75.72H239.23C240.094 75.6788 240.628 75.6788 241.285 75.6788C241.944 75.6788 242.478 75.6788 243.424 75.72H243.505C243.588 75.6788 243.629 75.5965 243.67 75.4729C243.67 75.3493 243.67 75.2267 243.588 75.1443L243.546 75.1031L242.889 75.0619C242.15 75.0207 242.067 74.8971 242.067 73.169V72.347C242.067 71.1534 242.108 71.0308 242.807 69.8372L243.793 68.109C243.876 67.9452 243.957 67.8216 244.04 67.6569C244.657 66.5869 245.109 65.8061 245.766 65.6825L246.301 65.5589V65.558ZM240.752 84.8935C239.175 84.5248 237.562 84.3317 235.943 84.3177C230.229 84.3177 226.488 86.0871 223.94 88.7608C221.596 91.2706 220.528 94.52 220.528 97.7292C220.528 101.061 221.72 104.064 224.022 106.327C226.941 109.289 231.051 110.523 235.573 110.523C237.628 110.523 240.341 110.071 242.355 109.536C243.053 109.33 243.751 109.207 244.204 109.207C244.24 109.182 244.27 109.15 244.293 109.113C244.315 109.075 244.328 109.033 244.332 108.99C244.336 108.947 244.33 108.903 244.315 108.863C244.3 108.822 244.277 108.785 244.246 108.754C243.547 108.507 243.341 107.561 243.341 106.08V103.941C243.341 102.007 243.383 100.937 244.985 100.774L245.602 100.691C245.848 100.444 245.848 99.9095 245.561 99.7447C244.22 99.8309 242.876 99.8721 241.532 99.8683C239.313 99.8683 237.216 99.8271 236.106 99.7447C235.86 99.8683 235.819 100.526 236.106 100.691L237.792 100.897C240.135 101.143 240.258 101.39 240.258 104.558V106.08C240.258 107.273 240.052 107.973 239.889 108.26C239.477 108.918 238.08 109.412 235.737 109.412C228.132 109.412 224.392 103.694 224.392 96.4129C224.392 90.736 227.597 85.5113 234.956 85.5113C238.819 85.5113 241.656 86.7864 242.724 90.8999C242.971 91.147 243.629 91.1058 243.752 90.7763C243.424 88.5136 243.177 86.5393 243.177 85.2642C242.642 85.3054 241.491 85.0582 240.752 84.8935ZM234.298 64.7772V64.6949C234.256 64.5713 234.092 64.5713 234.011 64.5713C233.969 64.5713 233.928 64.5713 233.845 64.6125H233.805L233.764 64.6537C233.558 65.0244 233.476 65.0244 232.654 65.0244H226.118C225.42 65.0244 225.09 64.9832 225.049 64.6537V64.5713C224.993 64.5196 224.919 64.4903 224.843 64.4889C224.803 64.4889 224.679 64.4889 224.597 64.5301L224.557 64.5713V64.6125C224.433 65.2303 224.227 66.2582 223.981 66.9576V66.9987L224.022 67.0399C224.104 67.2459 224.433 67.3274 224.597 67.2047H224.638V67.1635C224.803 66.7928 224.968 66.4642 225.336 66.1347C225.666 65.8061 226.488 65.7649 227.187 65.7649H228.05C228.42 65.7649 228.42 65.7649 228.42 66.1347V73.2102C228.42 74.9383 228.338 74.9795 227.557 75.0619L226.981 75.1031H226.94C226.858 75.1443 226.776 75.2678 226.817 75.4317C226.817 75.5553 226.858 75.6788 226.981 75.72H227.064C228.009 75.6788 228.625 75.6788 229.242 75.6788C229.859 75.6788 230.353 75.6788 231.297 75.72H231.38C231.425 75.6857 231.463 75.6424 231.492 75.5928C231.52 75.5432 231.538 75.4884 231.544 75.4317C231.544 75.309 231.503 75.1855 231.421 75.1443L230.845 75.0619C230.064 74.9795 230.023 74.8971 230.023 73.2102V66.0935C230.023 65.9287 230.023 65.7649 230.064 65.7649C230.105 65.7237 230.27 65.7237 230.393 65.7237H231.503C232.366 65.7237 232.941 65.8472 233.271 66.0935C233.435 66.217 233.558 66.5869 233.599 67.1635V67.2047L233.64 67.2459C233.682 67.3274 233.805 67.3685 233.928 67.3685C234.093 67.3685 234.216 67.2871 234.257 67.2047V67.1223C234.051 66.6692 234.134 65.3942 234.298 64.7772ZM219.911 73.169V67.5333C219.911 65.8052 219.952 65.6825 220.774 65.6413L221.186 65.6001H221.226C221.309 65.5589 221.35 65.4354 221.35 65.3118C221.35 65.2706 221.309 65.0656 221.185 65.0244H221.103C220.363 65.0656 219.788 65.0656 219.172 65.0656C218.513 65.0656 217.939 65.0656 217.198 65.0244H217.117C217.071 65.0586 217.033 65.1018 217.005 65.1512C216.976 65.2006 216.958 65.2552 216.952 65.3118C216.952 65.4354 216.993 65.5589 217.075 65.6001H217.117L217.528 65.6413C218.35 65.7237 218.391 65.8061 218.391 67.5333V73.169C218.391 74.856 218.35 74.9383 217.528 75.0619L217.075 75.1031L217.034 75.1443C216.952 75.2267 216.911 75.3905 216.952 75.4729C216.952 75.5965 217.034 75.6788 217.117 75.72H217.198C218.02 75.6788 218.514 75.6788 219.172 75.6788C219.788 75.6788 220.322 75.6788 221.103 75.72H221.185C221.231 75.6857 221.269 75.6424 221.297 75.5928C221.326 75.5432 221.344 75.4884 221.35 75.4317C221.35 75.309 221.309 75.1855 221.226 75.1443L220.774 75.0619C219.952 74.9383 219.911 74.856 219.911 73.169ZM217.322 109C215.678 108.794 215.184 108.259 214.116 104.969L208.936 89.7466C208.36 88.0606 207.744 86.3324 207.251 84.6875C207.169 84.4404 206.922 84.358 206.675 84.358C206.264 84.8514 205.607 85.5507 204.703 85.7979C204.825 86.4157 204.579 87.1141 204.044 88.4715L200.181 98.715C198.578 102.953 197.509 105.422 196.852 107.149C196.317 108.506 195.495 108.917 194.591 109L193.358 109.123C193.111 109.329 193.193 109.905 193.439 110.07C194.467 110.029 195.824 109.946 197.057 109.946C198.824 109.987 200.016 109.987 201.003 110.07C201.331 109.905 201.331 109.329 201.085 109.123L199.852 109C198.948 108.917 198.742 108.712 198.742 108.259C198.742 107.847 198.989 106.819 199.564 105.133L200.88 101.142C201.126 100.361 201.373 100.238 202.318 100.238H208.032C209.183 100.238 209.306 100.361 209.594 101.184L211.279 106.326C211.567 107.23 211.772 107.931 211.772 108.342C211.772 108.712 211.238 108.959 210.457 109.041L209.347 109.164C209.101 109.37 209.101 109.946 209.429 110.111C210.54 110.07 211.978 109.987 213.787 109.987C215.472 109.987 216.828 110.029 218.35 110.111C218.555 109.946 218.596 109.37 218.35 109.164L217.322 109ZM207.538 98.6738H202.894C201.825 98.6738 201.784 98.6335 202.113 97.7695L204.497 91.1873C204.909 90.0349 205.277 89.1306 205.401 88.9658H205.483C205.73 89.418 206.059 90.4468 206.347 91.3521L208.402 97.5223C208.731 98.5512 208.649 98.6738 207.538 98.6738ZM209.101 67.1214C209.101 66.5036 209.347 65.4757 210.868 65.4757C212.265 65.4757 212.677 66.38 212.883 67.1626L212.923 67.2038C212.965 67.2862 213.047 67.2862 213.17 67.2862C213.293 67.2862 213.458 67.245 213.54 67.1214C213.54 66.4633 213.417 65.558 213.252 65.1461L213.211 65.0647H213.129C213.006 65.0647 212.8 65.0235 212.595 64.9823C212.225 64.8999 211.608 64.7763 211.115 64.7763C209.1 64.7763 207.786 65.9278 207.786 67.6148C207.786 69.0546 208.896 70.001 209.553 70.4532L211.032 71.4409C212.143 72.1393 212.266 72.8807 212.266 73.5388C212.266 74.3617 211.69 75.2258 210.416 75.2258C208.813 75.2258 208.114 73.991 207.827 72.9631V72.9219C207.786 72.8395 207.703 72.7983 207.58 72.7983C207.515 72.7951 207.451 72.8086 207.394 72.8374C207.336 72.8663 207.287 72.9096 207.251 72.9631L207.21 73.0042V73.0454C207.251 73.7439 207.457 74.9374 207.662 75.3081V75.3484H207.703C208.032 75.5132 208.895 75.9663 210.21 75.9663C212.306 75.9663 213.704 74.7315 213.704 72.9219C213.704 71.6468 213.047 70.618 211.689 69.7951L210.416 69.0134C209.923 68.6848 209.1 68.0267 209.1 67.1214H209.101ZM205.114 75.7603C205.196 75.7191 205.237 75.5956 205.196 75.5132C205.196 75.4308 205.114 75.3484 205.072 75.3072H205.031C204.661 75.2669 204.292 75.1434 204.003 74.8963C202.935 73.9919 202.072 72.6335 200.839 70.7415C200.757 70.618 200.757 70.5356 200.757 70.5356C201.291 70.3297 202.771 69.548 202.771 67.8207C202.771 66.5045 202.031 65.8463 201.414 65.5168C200.633 65.105 199.605 65.0235 198.742 65.0235C197.304 65.0235 196.194 65.0647 195.207 65.1461H195.166C195.116 65.1767 195.076 65.2191 195.047 65.2694C195.018 65.3198 195.003 65.3765 195.002 65.4345C195.002 65.558 195.043 65.6816 195.125 65.764H195.166L195.7 65.8463C196.235 65.9278 196.276 66.0102 196.276 67.5745V73.2514C196.276 74.9374 196.235 75.0198 195.454 75.1022L195.002 75.1434L194.961 75.1846C194.878 75.3081 194.878 75.4308 194.878 75.5544C194.919 75.6779 194.961 75.7603 195.043 75.7603H195.125C195.824 75.7191 196.399 75.7191 197.098 75.7191C197.756 75.7191 198.29 75.7191 198.989 75.7603H199.071C199.194 75.7191 199.235 75.5544 199.235 75.472C199.232 75.3577 199.204 75.2455 199.153 75.1434L199.112 75.1022L198.742 75.061C197.92 74.9374 197.92 74.8962 197.92 73.2093V71.2349C197.92 71.029 197.92 71.029 198.537 71.029C199.153 71.029 199.359 71.1937 199.564 71.4821C199.811 71.8107 200.098 72.2637 200.346 72.7159C200.633 73.1681 200.879 73.58 201.085 73.8674C202.154 75.4308 202.976 75.9251 204.455 75.9251C204.661 75.8427 204.908 75.8015 205.114 75.7603ZM200.386 69.8775C199.935 70.207 199.318 70.2473 198.824 70.2473C198.126 70.2473 197.879 70.207 197.838 70.207V66.0514C197.838 65.6816 197.838 65.6816 198.742 65.6816C200.509 65.6816 201.126 66.9155 201.126 67.9855C201.126 68.8898 200.878 69.4665 200.386 69.8775ZM192.206 73.4152V73.3329C192.124 73.1681 191.96 73.1269 191.836 73.1269C191.754 73.1269 191.672 73.1681 191.631 73.1681L191.59 73.2093C191.138 74.1146 190.727 74.5676 190.521 74.6903C190.193 74.8551 189.699 74.8963 188.549 74.8963C187.232 74.8963 186.904 74.7315 186.74 74.5676C186.534 74.3205 186.452 73.8271 186.452 73.0042V70.8239C186.452 70.5356 186.451 70.5356 186.863 70.5356H187.768C188.301 70.5356 188.712 70.5356 188.959 70.618C189.165 70.6592 189.288 70.8239 189.371 71.1114L189.493 71.7292L189.534 71.7695C189.576 71.8519 189.699 71.893 189.823 71.893C189.987 71.893 190.069 71.8519 190.151 71.7283V71.6468C190.151 71.4821 190.151 71.2761 190.11 71.0702C190.11 70.7827 190.069 70.4532 190.069 70.1246C190.069 69.7951 190.069 69.4665 190.11 69.1782C190.11 68.931 190.151 68.726 190.151 68.5603V68.4789C190.11 68.3965 189.987 68.3141 189.823 68.3141C189.699 68.3141 189.576 68.3553 189.534 68.4377L189.371 69.137C189.288 69.5068 189.206 69.5489 189.082 69.5892C188.918 69.6303 188.425 69.6715 187.767 69.6715H186.862C186.451 69.6715 186.452 69.6715 186.452 69.3429V66.2573C186.452 65.764 186.451 65.764 186.821 65.764H187.973C188.63 65.764 189.165 65.764 189.493 65.8463C190.192 66.0102 190.356 66.4633 190.562 67.1626L190.604 67.245L190.645 67.2862C190.686 67.3677 190.809 67.3677 190.891 67.3677C191.012 67.3711 191.13 67.3271 191.22 67.245L191.261 67.2038L191.22 66.9567C191.138 66.0523 191.056 65.2697 190.973 65.0226L190.932 64.8999L190.809 64.9411C190.645 64.9823 189.658 64.9823 188.713 64.9823H185.753C185.136 64.9823 184.643 64.9823 183.903 64.9411H183.821C183.775 64.9754 183.738 65.0186 183.709 65.068C183.681 65.1174 183.663 65.172 183.657 65.2285C183.657 65.3521 183.698 65.4757 183.78 65.5168L184.068 65.558C184.89 65.6404 184.931 65.764 184.931 67.4088V73.0857C184.931 74.8139 184.849 74.8551 184.068 74.9374L183.492 74.9786L183.451 75.0198C183.369 75.1022 183.327 75.2669 183.369 75.3484C183.369 75.472 183.451 75.5544 183.533 75.5956H183.616C184.52 75.5544 185.095 75.5544 185.753 75.5544H187.192C188.549 75.5544 189.945 75.5544 191.425 75.5956H191.508L191.549 75.5132C191.713 75.2258 192.124 73.991 192.206 73.4152ZM181.396 65.558C181.478 65.4756 181.478 65.3109 181.478 65.2285C181.478 65.1058 181.396 65.0226 181.355 64.9823H181.272C180.738 65.0235 180.245 65.0235 179.752 65.0235C179.135 65.0235 178.518 65.0235 178.107 64.9823H178.025C177.976 65.0127 177.935 65.055 177.906 65.1052C177.878 65.1554 177.862 65.2119 177.861 65.2697C177.861 65.3933 177.902 65.5168 177.985 65.5992L178.025 65.6404L178.354 65.6816C178.889 65.764 178.97 65.8463 178.97 65.8463C178.97 65.969 178.97 66.0926 178.848 66.4221C178.559 67.1205 177.82 68.931 177.368 69.959C177.244 70.2473 177.121 70.5768 176.956 70.9475C176.645 71.7088 176.316 72.463 175.971 73.2093C175.23 71.4812 174.531 69.7539 173.832 68.0267C173.38 66.8743 173.093 66.0514 173.052 65.8463C173.093 65.8052 173.216 65.7228 173.668 65.6816L173.956 65.6404L173.997 65.5992C174.079 65.5095 174.123 65.3913 174.12 65.2697C174.119 65.2119 174.103 65.1554 174.075 65.1052C174.046 65.055 174.005 65.0127 173.956 64.9823H173.874C173.175 65.0235 172.6 65.0235 171.983 65.0235C171.325 65.0235 170.832 65.0235 170.339 64.9823H170.297L170.256 65.0235C170.207 65.0539 170.166 65.0962 170.138 65.1464C170.109 65.1966 170.094 65.2531 170.092 65.3109C170.092 65.4345 170.133 65.558 170.215 65.5992L170.256 65.6404L170.585 65.6816C171.202 65.764 171.408 66.0514 171.778 66.9155L174.491 73.7027C174.819 74.5264 175.065 75.2249 175.23 75.8015V75.8427L175.271 75.8839C175.354 75.9251 175.477 75.9251 175.559 75.9251C175.641 75.9251 175.724 75.8839 175.806 75.8427L175.846 75.8015V75.7603C176.135 74.8962 176.874 73.0454 177.491 71.6468L178.354 69.7127C179.094 68.067 179.711 66.7919 180.122 66.0926C180.328 65.764 180.533 65.6404 180.861 65.5992L181.396 65.558ZM171.078 87.5672C168.201 89.7878 166.31 93.4088 166.31 97.6047C166.31 102.5 168.653 105.955 171.695 108.013C174.449 109.864 177.696 110.563 181.108 110.563C183.533 110.563 186.246 109.987 187.11 109.699C187.521 109.535 187.973 109.412 188.425 109.329C189.001 108.589 189.987 106.12 190.234 104.145C190.069 103.899 189.493 103.816 189.247 103.981C188.384 106.202 186.205 109.412 181.314 109.412C175.107 109.412 170.051 105.01 170.051 97.0702C170.051 89.212 174.983 85.5507 180.779 85.5507C186.288 85.5507 187.973 88.5127 188.549 91.1049C188.795 91.3521 189.371 91.3109 189.576 91.0226C189.288 88.7187 189.083 86.3324 189.041 85.4692C188.712 85.5104 188.425 85.428 187.973 85.3045C186.205 84.8102 183.327 84.3992 181.272 84.3992C177.368 84.3168 173.832 85.3869 171.078 87.5672ZM166.228 73.169V67.5324C166.228 65.8043 166.269 65.6816 167.091 65.6404L167.503 65.5992H167.543C167.626 65.558 167.667 65.4345 167.667 65.3109C167.667 65.2697 167.626 65.0647 167.502 65.0235H167.42C166.68 65.0647 166.104 65.0647 165.488 65.0647C164.79 65.0647 164.255 65.0647 163.516 65.0235H163.433C163.388 65.0577 163.35 65.1009 163.321 65.1503C163.293 65.1997 163.275 65.2543 163.268 65.3109C163.268 65.4345 163.31 65.558 163.392 65.5992H163.433L163.844 65.6404C164.625 65.7228 164.707 65.8463 164.707 67.5324V73.1681C164.707 74.8551 164.666 74.9374 163.844 75.061L163.392 75.1022L163.351 75.1434C163.268 75.2258 163.227 75.3896 163.268 75.472C163.268 75.5956 163.351 75.6779 163.433 75.7191H163.516C164.338 75.6779 164.831 75.6779 165.488 75.6779C166.105 75.6779 166.639 75.6779 167.42 75.7191H167.502C167.548 75.6848 167.586 75.6415 167.614 75.5919C167.642 75.5423 167.66 75.4875 167.667 75.4308C167.667 75.3081 167.626 75.1846 167.543 75.1434L167.091 75.061C166.269 74.9374 166.228 74.856 166.228 73.169ZM158.336 104.186V90.6939C158.336 86.6628 158.418 86.0459 160.638 85.8408L161.583 85.7576C161.83 85.5928 161.748 84.9347 161.501 84.8111C159.61 84.8935 158.336 84.9347 156.815 84.9347C155.212 84.9347 153.937 84.8935 152.047 84.8111C151.8 84.9347 151.759 85.5928 151.965 85.7576L152.91 85.8399C155.13 86.0459 155.212 86.6628 155.212 90.6939V104.188C155.212 108.219 155.13 108.754 152.91 109.001L151.965 109.124C151.718 109.371 151.8 109.947 152.047 110.071C153.937 109.988 155.212 109.947 156.815 109.947C158.336 109.947 159.61 109.988 161.501 110.071C161.748 109.947 161.788 109.289 161.583 109.124L160.638 109.001C158.418 108.754 158.337 108.219 158.337 104.188L158.336 104.186ZM160.268 65.558C160.35 65.4756 160.392 65.3521 160.35 65.2285C160.349 65.1761 160.333 65.1252 160.304 65.0816C160.274 65.038 160.233 65.0036 160.186 64.9823L160.144 64.9411H160.103C159.57 64.9823 159.158 64.9823 158.5 64.9823C157.925 64.9823 157.431 64.9823 156.65 64.9411H156.568C156.52 64.9625 156.48 64.997 156.451 65.0406C156.422 65.0841 156.406 65.135 156.404 65.1873C156.383 65.2541 156.383 65.326 156.405 65.3927C156.427 65.4593 156.47 65.5172 156.527 65.558L156.568 65.5992L156.856 65.6404C157.39 65.7228 157.678 65.8052 157.761 65.8866C157.967 66.175 158.048 67.3677 158.048 69.0958V72.9219C157.514 72.3461 156.938 71.7283 156.198 70.9063L154.02 68.4377C152.458 66.6683 151.554 65.5168 151.348 65.0235L151.307 64.9411H151.225C151.019 64.9823 150.773 64.9823 150.527 64.9823C150.238 64.9823 149.416 64.9823 148.758 64.9411H148.676C148.594 64.9823 148.553 65.0647 148.512 65.1873C148.493 65.251 148.491 65.3183 148.505 65.3831C148.52 65.4479 148.55 65.5081 148.594 65.558L148.635 65.5992L148.964 65.6404C149.375 65.6816 149.704 65.8052 149.869 65.969C150.155 66.2985 150.197 66.5869 150.197 67.039V71.7283C150.197 72.51 150.197 74.2793 149.991 74.7727C149.95 74.8551 149.827 74.9786 149.375 75.0198L148.923 75.061L148.882 75.1022C148.8 75.1846 148.758 75.2669 148.8 75.3896C148.841 75.5132 148.882 75.5956 148.923 75.6779L148.964 75.7191H149.005C149.539 75.6779 149.991 75.6779 150.649 75.6779C151.184 75.6779 151.718 75.6779 152.499 75.7191H152.541L152.581 75.6779C152.663 75.6368 152.704 75.5544 152.704 75.4308C152.704 75.3081 152.704 75.1846 152.622 75.1022L152.581 75.061L152.047 75.0198C151.676 74.9786 151.389 74.8963 151.349 74.7727C151.184 74.4853 151.06 73.2917 151.06 71.5644V68.1082C151.06 67.8207 151.06 67.5324 151.102 67.3265C151.348 67.6148 151.759 68.1082 152.129 68.5612C152.376 68.8487 152.622 69.137 152.787 69.3429L156.445 73.4976C157.678 74.8963 158.254 75.5544 158.459 75.8839L158.5 75.9251H158.583C158.789 75.9251 158.953 75.8427 158.994 75.6779V75.5956C158.953 75.4308 158.953 74.7727 158.953 72.8395V68.8487C158.953 68.0267 158.953 66.3397 159.159 65.8463C159.159 65.8052 159.364 65.6816 159.939 65.5992L160.268 65.558ZM146.128 65.558C146.21 65.4756 146.251 65.3521 146.21 65.2285C146.21 65.1461 146.128 65.0647 146.045 64.9823H145.963C145.429 65.0235 144.977 65.0235 144.319 65.0235C143.703 65.0235 143.127 65.0235 142.51 64.9823H142.469L142.429 65.0235C142.346 65.0647 142.305 65.1461 142.305 65.2697C142.305 65.3933 142.305 65.5168 142.388 65.5992L142.429 65.6404L142.881 65.6816C143.251 65.7228 143.497 65.8052 143.579 65.969C143.744 66.2985 143.867 67.45 143.867 69.1782V70.9878C143.867 72.8395 143.332 75.061 140.825 75.061C138.729 75.061 137.742 73.7448 137.742 70.9475V67.5324C137.742 65.8463 137.783 65.7228 138.564 65.6816L138.976 65.6404H139.016C139.099 65.5992 139.14 65.4757 139.14 65.3521C139.14 65.2285 139.099 65.1058 138.975 65.0647H138.894C138.153 65.1058 137.619 65.1058 136.961 65.1058C136.303 65.1058 135.77 65.1058 135.029 65.0647H134.948C134.824 65.1058 134.783 65.2706 134.783 65.3521C134.783 65.4757 134.824 65.5992 134.906 65.6404H134.948L135.359 65.6816C136.139 65.764 136.181 65.8875 136.181 67.5324V71.2761C136.181 73.1681 136.592 74.3617 137.455 75.1022C138.153 75.6779 139.181 76.0066 140.496 76.0066C141.729 76.0066 142.921 75.5544 143.579 74.8139C144.36 73.991 144.73 72.7159 144.73 70.9475V69.1782C144.73 68.3965 144.73 66.5045 144.936 66.0102C145.018 65.8464 145.264 65.7228 145.634 65.6816L146.128 65.558ZM128 85.7567C128.247 85.5919 128.165 84.9338 127.919 84.8102C126.274 84.8926 125 84.9338 123.52 84.9338C121.875 84.9338 120.601 84.8514 118.751 84.8102C118.505 84.9338 118.465 85.5919 118.67 85.7567L119.656 85.839C121.629 86.0038 121.876 86.6207 121.876 90.6116V104.269C121.876 108.259 121.794 108.63 119.697 109L119.04 109.123C118.793 109.37 118.875 109.946 119.122 110.07C120.601 110.029 121.875 109.946 123.52 109.946C125 109.946 126.274 109.987 128.329 110.07C128.576 109.946 128.617 109.288 128.411 109.123L127.302 109C125.164 108.753 125 108.259 125 104.269V98.921C125 97.7695 125.082 97.7283 126.89 97.7283H137.701C139.51 97.7283 139.592 97.8107 139.592 98.921V104.269C139.592 108.259 139.592 108.63 137.291 109L136.55 109.123C136.303 109.37 136.386 109.946 136.633 110.07C138.152 109.99 139.673 109.948 141.195 109.946C142.675 109.946 143.949 109.987 145.758 110.07C146.004 109.946 146.045 109.288 145.84 109.123L144.936 109C142.757 108.753 142.675 108.259 142.675 104.269V90.6116C142.675 86.6207 142.757 86.045 144.936 85.839L145.717 85.7567C145.963 85.5919 145.881 84.9338 145.634 84.8102C144.142 84.8897 142.648 84.9309 141.154 84.9338C139.592 84.9338 138.318 84.8926 136.592 84.8102C136.344 84.9338 136.303 85.5919 136.509 85.7567L137.249 85.839C139.469 86.0862 139.551 86.6207 139.551 90.6116V94.9722C139.551 96.1649 139.468 96.1649 137.66 96.1649H126.849C125.041 96.1649 124.958 96.1237 124.958 94.9722V90.6116C124.958 86.6207 125.041 86.045 127.219 85.839L128 85.7567ZM126.48 73.4152V73.3329C126.397 73.1681 126.233 73.1269 126.11 73.1269C126.027 73.1269 125.945 73.1681 125.904 73.1681L125.863 73.2093C125.411 74.1146 125 74.5676 124.795 74.6903C124.465 74.8551 123.973 74.8963 122.821 74.8963C121.506 74.8963 121.177 74.7315 121.012 74.5676C120.806 74.3205 120.766 73.8271 120.766 73.0042V70.8239C120.766 70.5356 120.766 70.5356 121.177 70.5356H122.081C122.616 70.5356 123.027 70.5356 123.273 70.618C123.479 70.6592 123.602 70.8239 123.685 71.1114L123.808 71.7292L123.849 71.7695C123.89 71.8519 124.013 71.893 124.136 71.893C124.301 71.893 124.384 71.8519 124.465 71.7283V71.6468C124.465 71.4821 124.465 71.2761 124.425 71.0702C124.425 70.7827 124.384 70.4532 124.384 70.1246C124.384 69.7951 124.384 69.4665 124.425 69.1782C124.425 68.931 124.465 68.726 124.465 68.5603V68.4789C124.425 68.3965 124.301 68.3141 124.136 68.3141C124.013 68.3141 123.89 68.3553 123.849 68.4377L123.684 69.137C123.602 69.5068 123.52 69.5489 123.397 69.5892C123.232 69.6303 122.739 69.6715 122.081 69.6715H121.176C120.766 69.6715 120.766 69.6715 120.766 69.3429V66.2573C120.766 65.764 120.766 65.764 121.136 65.764H122.286C122.945 65.764 123.479 65.764 123.808 65.8463C124.547 66.0102 124.671 66.4633 124.876 67.1626L124.917 67.245L124.958 67.2862C125 67.3677 125.123 67.3677 125.206 67.3677C125.327 67.3711 125.445 67.3271 125.534 67.245L125.575 67.2038L125.534 66.9567C125.452 66.0523 125.369 65.2697 125.288 65.0226L125.164 64.9411L125.041 64.9823C124.876 65.0235 123.89 65.0235 122.945 65.0235H119.985C119.368 65.0235 118.875 65.0235 118.135 64.9823H118.053C118.008 65.0165 117.969 65.0597 117.941 65.1091C117.913 65.1585 117.895 65.2131 117.888 65.2697C117.888 65.3933 117.929 65.5168 118.012 65.558L118.299 65.5992C119.122 65.6816 119.162 65.8052 119.162 67.45V73.1269C119.162 74.8551 119.081 74.8962 118.299 74.9786L117.724 75.0198L117.683 75.061C117.601 75.1434 117.56 75.3081 117.601 75.3896C117.601 75.5132 117.683 75.5956 117.766 75.6368H117.847C118.751 75.5956 119.327 75.5956 119.985 75.5956H121.423C122.78 75.5956 124.178 75.5956 125.658 75.6368H125.74L125.78 75.5544C125.945 75.2258 126.356 73.991 126.479 73.4152H126.48ZM113.285 73.1681V67.4912C113.285 65.8052 113.326 65.7228 114.107 65.6404L114.436 65.5992L114.477 65.558C114.559 65.5168 114.6 65.3933 114.6 65.2697C114.6 65.2285 114.559 65.0235 114.436 64.9823H114.353C113.572 65.0235 113.079 65.0235 112.504 65.0235C111.806 65.0235 111.27 65.0235 110.613 64.9823H110.531C110.485 65.0166 110.447 65.0598 110.419 65.1092C110.391 65.1586 110.373 65.2132 110.367 65.2697C110.367 65.3933 110.407 65.5168 110.489 65.558L110.859 65.5992C111.682 65.6816 111.722 65.8052 111.722 67.45V69.2605C111.722 69.6303 111.722 69.6303 111.065 69.6303H106.543C105.886 69.6303 105.886 69.6303 105.886 69.2605V67.45C105.886 65.764 105.927 65.6816 106.708 65.5992L106.996 65.558L107.037 65.5168C107.119 65.4757 107.16 65.3521 107.16 65.2285C107.16 65.1873 107.119 64.9823 106.996 64.9411H106.913C106.215 64.9823 105.68 64.9823 105.104 64.9823C104.693 64.9823 104.324 64.9823 103.954 64.9411C103.708 64.9411 103.419 64.9411 103.132 64.8999H103.05C102.967 65.0235 102.967 65.2285 102.967 65.2697C102.967 65.3933 103.008 65.5168 103.091 65.558H103.132L103.584 65.5992C104.282 65.6404 104.406 65.8052 104.406 67.45V73.1269C104.406 74.7727 104.365 74.8551 103.584 74.9786L103.297 75.0198L103.255 75.061C103.173 75.1434 103.132 75.3081 103.173 75.3896C103.173 75.5132 103.255 75.5956 103.338 75.6368H104.036C104.406 75.6368 104.776 75.5956 105.228 75.5956C105.804 75.5956 106.338 75.5956 107.243 75.6368H107.324C107.448 75.5956 107.489 75.4308 107.489 75.3484C107.489 75.2258 107.448 75.1022 107.365 75.061L106.873 74.9786C106.132 74.8962 106.009 74.8139 106.009 73.1278V70.9063C106.009 70.5356 106.009 70.5356 106.667 70.5356H111.189C111.846 70.5356 111.846 70.5356 111.846 70.9063V73.1269C111.846 74.8139 111.846 74.8551 110.983 74.9786L110.654 75.0198L110.613 75.061C110.531 75.1434 110.489 75.3081 110.531 75.3896C110.531 75.5132 110.613 75.5956 110.695 75.6368H110.778C111.517 75.5956 112.093 75.5956 112.668 75.5956C113.285 75.5956 113.819 75.5956 114.559 75.6368H114.641C114.687 75.6023 114.725 75.559 114.753 75.5094C114.781 75.4599 114.799 75.4051 114.805 75.3484C114.805 75.2258 114.765 75.1022 114.683 75.061L114.271 74.9786C113.326 74.9374 113.285 74.8551 113.285 73.1681ZM100.295 64.7763V64.7351L100.255 64.694C100.214 64.5704 100.008 64.5704 99.9666 64.5704C99.9254 64.5704 99.8842 64.5704 99.8028 64.6116H99.7616L99.7204 64.6528C99.5144 65.0235 99.4321 65.0235 98.6101 65.0235H92.0745C91.3761 65.0235 91.0466 64.9823 91.0063 64.6528V64.6116L90.9651 64.5704C90.9088 64.5187 90.8355 64.4894 90.7591 64.488C90.7179 64.488 90.5953 64.488 90.5129 64.5292L90.4717 64.5704V64.6116C90.3481 65.2294 90.1431 66.2573 89.896 66.9567V66.9978L89.9371 67.039C90.0195 67.245 90.349 67.3265 90.5129 67.2038H90.5541V67.1626C90.7179 66.7919 90.8827 66.4633 91.2525 66.0926C91.5811 65.764 92.4031 65.7228 93.1024 65.7228H93.9656C94.3354 65.7228 94.3354 65.7228 94.3354 66.0926V73.1681C94.3354 74.8963 94.253 74.9374 93.4722 75.0198L92.8965 75.061H92.8553C92.7738 75.1022 92.6914 75.2258 92.7326 75.3896C92.7326 75.5132 92.7738 75.6368 92.8965 75.6779H92.9788C93.9656 75.6368 94.5413 75.6368 95.1574 75.6368C95.7743 75.6368 96.2677 75.6368 97.2123 75.6779H97.2947C97.4183 75.6368 97.4595 75.472 97.4595 75.3896C97.4595 75.2669 97.4183 75.1434 97.3359 75.1022L96.7602 75.0198C95.9794 74.9374 95.9382 74.8551 95.9382 73.1681V66.0926C95.9382 65.9278 95.9382 65.764 95.9794 65.764C96.0206 65.7228 96.1853 65.7228 96.3089 65.7228H97.4183C98.2815 65.7228 98.8572 65.8463 99.1858 66.0926C99.3506 66.2162 99.4732 66.586 99.5144 67.1626V67.2038L99.5556 67.245C99.5968 67.3265 99.7204 67.3677 99.8431 67.3677C100.008 67.3677 100.131 67.2862 100.173 67.2038V67.1214C100.008 66.6683 100.131 65.3933 100.295 64.7763ZM89.5673 97.6047C89.5673 102.5 91.9106 105.955 94.9523 108.013C97.7057 109.864 100.953 110.563 104.365 110.563C106.791 110.563 109.503 109.987 110.367 109.699C110.778 109.535 111.23 109.412 111.682 109.329C112.257 108.589 113.244 106.12 113.491 104.145C113.326 103.899 112.75 103.816 112.504 103.981C111.641 106.202 109.462 109.412 104.571 109.412C98.3638 109.412 93.3075 105.01 93.3075 97.0702C93.3075 89.212 98.2412 85.5507 104.036 85.5507C109.544 85.5507 111.23 88.5127 111.805 91.1049C112.052 91.3521 112.627 91.3109 112.833 91.0226C112.545 88.7187 112.339 86.3324 112.298 85.4692C111.97 85.5104 111.682 85.428 111.23 85.3045C109.462 84.8102 106.585 84.3992 104.53 84.3992C100.584 84.3992 97.0888 85.4692 94.2951 87.6084C91.4584 89.7887 89.5673 93.4088 89.5673 97.6047ZM79.7017 91.1873V64.7754C58.4922 62.7187 42.502 64.7754 42.502 64.7754V91.1864C44.1871 109.081 60.9581 111.179 61.0817 111.138C64.1234 110.645 78.1392 107.807 79.7017 91.1873ZM48.503 97.7686C48.8325 98.0157 49.2435 98.0981 49.6133 98.2628C50.0655 99.4555 49.6133 100.608 49.3662 100.114C48.914 99.2917 48.7089 98.5906 48.503 97.7686ZM48.503 84.8102C48.4618 84.7699 46.1194 86.2509 44.599 85.5507C45.7084 84.9338 49.6133 82.466 50.6815 81.7667C51.1749 81.8894 51.3799 81.6843 51.5447 81.602C51.1337 81.6432 49.7772 81.8491 50.4765 80.6143C50.7227 81.6843 52.6138 80.6967 53.3122 80.532C55.2033 80.0798 55.2033 82.1365 55.0386 82.9594C54.9983 83.2889 55.6143 83.494 55.9429 83.4528C55.4093 84.769 54.4637 83.5352 54.3813 84.0294C54.3402 84.2354 53.7232 84.3992 53.7232 84.8926C53.7232 85.5919 54.0115 85.2221 54.0115 85.7567C54.0527 86.2912 53.8056 85.8802 53.8468 86.456C53.9292 87.3612 55.4496 86.3324 56.0674 86.5795C56.3951 86.7031 56.6011 86.9914 56.8885 86.9091C56.9709 86.8267 56.9297 86.4972 56.9297 86.3736C56.8885 86.0862 56.3539 86.045 56.1077 85.6752C55.9017 85.3457 56.3539 84.3168 56.6002 83.9882C56.9709 85.6743 58.5334 85.1397 58.7796 86.9502C58.9444 87.4427 58.245 88.0194 58.7796 88.8422C58.3677 89.2541 57.8752 91.1873 58.7384 92.0926C58.5736 92.5036 58.4098 93.45 59.1906 94.0258C58.9443 94.6015 58.9846 95.2596 59.1906 95.9599C58.6981 95.9599 58.8208 93.2441 55.9017 93.1214C55.8203 93.0793 55.8203 93.45 55.9017 93.5727C56.2724 94.1905 56.7246 94.1493 56.6002 95.5891C56.5599 96.0825 56.2724 95.5068 56.1077 95.3832C55.7379 95.0537 55.4908 95.0125 55.3269 94.0258C54.1351 94.9722 54.2578 96.0825 54.3402 96.6583C54.3402 96.6583 54.0939 95.9598 53.7644 95.2184C53.7644 95.1773 54.9571 93.6963 55.1621 93.3676C57.629 88.9246 53.5594 94.8075 53.5594 94.7663C53.3534 94.272 53.1475 93.8198 53.0248 93.6963C53.066 93.6551 53.7232 92.8734 54.0527 92.2564C55.9429 88.3077 52.9012 93.5727 52.8198 93.4912C52.5726 93.2853 52.4079 93.0381 52.244 93.1205C52.2028 93.7383 52.0792 93.6551 52.1204 94.272C51.7918 94.6839 51.1337 95.3832 50.6403 95.7127C50.6403 95.7127 50.5177 94.6015 50.5588 94.5603C50.8051 94.272 51.7497 93.2441 51.9154 92.9558C55.0386 88.0606 50.4353 94.1493 50.4353 94.0661C50.3941 93.861 50.1479 93.5324 49.9007 93.2853C49.9007 93.2853 50.9286 91.8866 51.1749 91.3924C53.066 87.4848 49.6545 93.1205 49.6133 93.1205C49.5309 93.0381 49.4897 93.0381 49.4073 92.9969C49.325 92.9558 49.5309 91.8866 49.6545 91.2285C49.9007 89.9123 49.2023 90.9814 49.0375 93.0381C48.8728 93.0793 48.4215 93.1205 48.2567 93.2441C48.3803 93.7786 48.503 93.3676 48.7089 93.9022C48.9964 94.52 48.3391 95.5892 48.9149 96.3288C49.1199 96.6171 49.1611 96.5759 49.1199 96.7818C48.7501 96.7406 48.5442 96.7406 48.2979 97.029C47.8458 95.0537 47.886 94.1081 47.9693 92.0917C48.0096 91.1873 48.2979 89.7887 48.1753 89.7887C48.092 89.7475 45.9958 95.0949 45.5025 96.1237C44.6393 95.8354 46.037 91.2285 47.8458 89.007C48.0096 88.3077 46.9002 89.7054 46.243 90.2821C45.6251 90.8166 44.8452 91.4747 44.0224 91.2285C45.0915 90.0761 47.5574 87.937 47.8458 87.4024C48.092 86.9502 46.1606 88.8422 44.1459 88.1429C45.4622 87.4848 48.503 85.9214 48.503 84.8102ZM52.1616 94.8478C52.1616 95.342 52.1204 95.7127 52.2852 96.2061C52.5314 96.9466 52.4079 96.7406 52.0792 96.4532C51.833 96.1649 51.5868 95.959 51.4632 95.6294C51.4632 95.3832 51.6271 95.3823 52.1616 94.8478ZM57.0532 82.8358C56.7658 82.3425 57.4231 81.8491 57.4231 81.8491C57.4231 83.2477 59.2318 82.3013 60.1773 82.7535C60.4236 82.877 60.5471 83.0418 60.6698 83.2889C59.6016 82.5484 57.7114 83.9873 57.0532 82.8358ZM46.4059 71.4821C44.8032 71.4821 44.8443 69.0555 46.4059 69.0555C48.0087 69.0555 48.0087 71.4821 46.4059 71.4821ZM46.4059 76.3361C44.762 76.3361 44.762 73.9095 46.4059 73.9095C48.0087 73.9095 48.0087 76.3361 46.4059 76.3361ZM48.0499 69.7127H49.4476V71.1114H48.0508L48.0499 69.7127ZM48.0499 74.5676H49.4476V75.9663H48.0508L48.0499 74.5676ZM60.8337 78.3516C60.8337 78.3516 59.3544 77.5699 57.6281 77.4473C55.942 77.3237 52.5717 78.6811 49.9822 78.5164V67.039C49.9822 67.039 52.9415 67.4509 54.1745 66.9567C58.3265 65.3521 60.8748 67.1626 60.8748 67.1626V78.3516H60.8337ZM63.7115 80.2033C63.7939 80.6152 63.382 80.7379 63.382 80.7379C63.9998 80.9027 64.2864 80.532 64.4099 80.2857C64.6571 81.2725 63.6291 81.3136 63.3417 81.396C63.3417 81.396 63.8342 81.5608 63.8754 81.8894C63.9577 82.7132 64.4923 82.6711 64.6159 82.5896C64.6159 82.6711 64.4099 83.2065 63.8342 82.7535C63.7115 82.8358 63.9989 83.0006 64.0401 83.4116C64.1225 83.947 64.0813 84.4404 64.6974 84.7278C64.3276 85.0162 63.8754 84.2354 63.8342 84.358C63.7939 84.4816 64.3687 84.7287 63.7527 86.2097C63.4644 86.045 63.6291 86.0862 63.3005 85.6743C63.0534 85.4683 62.971 85.428 63.1769 85.7567C63.5467 86.2097 63.6291 87.2377 63.5056 87.526C63.2181 87.4024 63.2996 87.1553 62.9298 86.8267C62.8895 86.9502 63.0534 87.6496 63.4232 87.9782C64.0401 88.5539 64.2864 89.2532 64.2864 89.3768C64.3276 89.9114 64.1637 90.5704 64.1225 91.2697C63.8342 91.2285 63.5468 90.3644 63.5056 90.4056C63.4232 90.4468 63.5468 91.2697 64.1225 91.8043C64.4099 92.6271 64.2864 93.0381 64.2049 93.0793C64.1225 93.1205 63.793 92.2564 63.6291 92.4212C64.4511 94.4779 63.8754 95.2184 63.6703 95.8775C63.5056 95.2184 63.4232 94.7251 63.2181 93.9846C62.766 94.3132 62.6836 94.8486 62.1078 95.342C62.1078 94.4779 61.6154 92.4624 61.2447 91.969C61.2447 91.9278 60.5462 93.7786 60.2176 94.6427C59.8057 95.7127 59.7654 97.029 60.2176 98.099C59.2309 96.6583 59.1073 93.9846 59.9705 93.6551C60.0529 93.4491 59.9293 92.8322 59.7243 92.9146C59.6831 93.2029 59.7242 93.4912 59.4359 93.7786C58.7787 93.5727 59.0661 92.7507 59.1494 92.5036C60.0117 91.4747 59.4771 91.2285 59.4359 91.2697C59.3544 91.5159 59.2721 91.8043 58.9837 91.8866C58.4501 90.9402 58.7778 89.418 59.8478 88.3077C59.8881 87.8958 59.3956 88.6363 59.0249 88.5951C58.9435 87.7722 59.2309 86.4148 60.711 86.3324C60.4227 86.2509 60.2588 86.2097 60.2176 85.9626C60.6698 85.8802 62.0666 85.7979 61.8616 84.6875C61.738 84.8102 61.6968 85.0162 61.327 85.2633C61.0808 85.4281 60.7925 85.428 60.6698 85.2221C61.327 85.0162 61.122 84.1933 60.2579 84.4404C60.0117 84.5228 59.6007 84.2345 59.6007 83.947C59.8066 84.153 60.1764 83.9882 60.3815 83.8647C61.327 83.2468 61.944 84.1521 62.0666 84.358C62.1078 84.358 62.4785 83.4537 61.122 83.2065C60.9984 82.877 60.7101 82.3425 59.7654 82.3828C59.4771 81.3136 58.5325 81.8491 58.5728 82.3425C57.5869 81.602 58.5728 80.6967 58.9846 80.5731C59.2712 80.6143 59.1897 81.4784 59.6831 81.3136C59.8066 81.2725 59.3133 80.6967 59.4771 80.4496C59.9293 80.2033 59.9293 80.7791 60.1352 80.5731C60.2588 80.2033 60.6698 79.9974 61.0396 79.9562C61.9852 79.6276 62.766 80.7379 63.7115 80.2033ZM72.7131 78.5164C70.5345 78.64 66.0539 77.4061 64.9033 77.4061C62.5188 77.4061 61.4094 78.3104 61.4094 78.3104V67.1626C61.4094 67.1626 64.5335 65.7228 66.7944 66.5448C69.5478 67.5745 72.7542 67.1214 72.7542 67.1214L72.7131 78.5164ZM75.5909 74.1146C76.7827 73.9498 76.9877 75.3484 76.9877 75.3484C76.7012 75.1022 76.0834 75.0198 75.7136 75.2669C74.357 76.1301 73.1652 76.1301 73.1652 76.1301V73.9498C73.124 73.991 73.3712 74.4441 75.5909 74.1146ZM77.0289 71.1525C77.0289 71.0702 76.9877 70.9878 76.9877 70.8651C76.9474 70.6592 76.3305 70.5356 75.9195 70.7004C75.3026 70.9878 73.7822 71.8519 73.2064 71.6871V69.5068C74.6033 70.1246 75.1387 69.548 75.5909 69.548C76.9474 69.548 77.0289 70.8239 77.0289 70.8239C76.9877 70.9878 76.9877 71.0702 77.0289 71.1525ZM75.4673 93.5736C75.0554 93.6963 73.9872 94.1081 73.741 94.5191C73.8646 92.2152 73.1241 89.9526 72.8778 89.418C72.4256 88.3489 73.0838 91.8866 73.124 92.7095C73.124 92.7507 69.3015 87.7722 71.6036 91.5992C72.2197 92.5859 73.124 93.2441 73.124 93.2441C73.124 93.9425 73.0829 94.4368 72.9602 94.8075C72.7131 95.0134 67.74 88.1841 70.4933 92.9146C70.8228 93.4912 72.8366 95.2605 72.7954 95.3008C72.6337 95.6525 72.4112 95.9729 72.1382 96.2473C72.097 96.2061 70.9867 95.3832 70.9867 95.342C70.9043 94.8075 70.9043 94.3132 70.2471 94.6839C70.2471 94.6839 67.7802 91.8454 68.9308 93.8198C69.4251 94.6839 69.7537 94.8075 69.8773 94.9301C69.8773 94.9301 69.5075 95.4656 69.3839 96.0001C69.3427 96.2061 67.2466 93.6963 68.0677 95.3017C68.3148 95.7942 69.2604 96.3708 69.2604 96.412C69.1833 96.7057 69.0873 96.994 68.9729 97.2752C68.8494 97.5223 66.9994 99.0033 67.0406 99.0033C67.0406 99.0033 67.4104 97.8519 68.1921 97.2752C68.6434 96.9466 68.6434 97.029 68.9317 96.823C68.9317 96.6583 68.767 96.3708 68.5619 96.2885C68.3148 96.2061 67.4516 96.3708 67.4516 96.3708C67.534 95.959 67.1642 95.0125 67.1642 93.9846C66.8356 94.0258 66.2598 94.5191 66.1363 94.8075C66.0539 96.4935 65.6841 96.0001 65.3143 97.234C64.9445 96.7415 65.3555 96.0001 64.9857 95.5059C64.4923 94.8486 64.4099 94.3956 64.3275 93.5727C64.4511 93.4912 64.9445 92.9558 64.4923 91.7219C64.4099 89.8299 65.2731 89.1306 63.7527 87.8134C63.8754 87.7722 63.9586 86.8267 63.9586 86.8267C65.068 87.4024 64.863 86.1274 65.2731 85.8802C65.9715 85.4683 65.8488 85.0573 65.5202 84.564C67.4928 85.1397 65.4379 86.456 66.301 86.4981C66.9583 86.4981 67.3693 86.3736 67.6576 85.9214C67.945 85.4692 67.6164 85.1809 68.4384 84.4404C68.5208 84.358 68.7258 83.8647 68.0686 83.7411C67.9038 83.6999 68.0686 83.1653 68.0686 83.1653C67.534 83.6175 67.3701 84.2345 66.5473 83.8235C66.0951 83.6175 65.8489 83.8235 65.6429 83.9059C65.6429 83.9059 65.5614 83.5352 65.9312 83.4116C66.8768 83.083 67.0818 82.7132 67.0415 82.5484C66.9171 82.0541 66.8768 82.5484 66.9171 82.0541C66.9171 81.8482 67.1642 81.5608 67.3693 81.3557C67.9862 80.6143 68.4384 80.8615 68.6031 80.9438C68.9729 80.6555 69.0141 80.6967 69.3839 80.532C69.9588 80.2857 71.2338 80.6967 71.9323 81.0262C72.2609 81.1901 72.6719 81.2725 73.0829 81.1901C73.0829 81.396 72.919 81.5196 72.7954 81.5608C72.5895 81.6432 72.303 81.5608 72.3433 81.7255C72.3433 81.8079 72.6719 81.8491 72.8357 81.8894C73.8645 82.1777 75.2211 83.1242 74.3579 82.9191C74.2344 82.877 75.0151 83.494 75.5488 84.2354L77.5223 86.1686C77.4399 86.2912 76.7415 86.1686 74.5227 84.1109C74.1932 84.3992 77.1937 86.6619 78.4678 89.0482C78.3443 89.1306 76.8239 88.5539 76.2481 87.9782C75.385 87.0738 74.3982 84.8102 73.9872 85.1397C73.946 85.1397 75.6321 87.7722 76.4541 89.3356C76.8651 90.1173 77.2349 91.2285 77.2349 92.0917C77.3584 96.2885 76.7424 95.9599 76.7424 95.9599C75.7548 92.6683 75.3026 88.8413 73.8646 87.0729C73.2888 86.3745 75.385 90.1585 75.4673 93.5736ZM71.1515 97.3164C70.6993 97.6871 70.411 97.8519 70.5345 97.6459C70.6581 97.44 70.7405 97.234 70.7817 97.0702L71.1515 97.3164ZM70.8631 96.823C70.9455 96.4532 70.9455 96.2473 71.0279 95.9187C71.0279 95.7942 71.0691 95.7942 71.0691 95.6715C71.0691 95.6303 72.0146 96.4532 72.097 96.4935C71.8499 96.7818 71.6448 96.9054 71.4389 97.1113C71.1927 96.9878 70.8228 96.8642 70.8631 96.823ZM73.946 97.893C72.6307 99.2093 70.6169 98.715 69.0553 99.4152C67.6164 99.9498 66.5885 101.266 65.1092 101.595C64.6571 101.718 64.6159 101.965 64.8621 101.965C65.0269 101.965 65.9312 102.912 67.3693 102.171C67.8626 101.924 69.3839 101.101 69.6302 101.019C68.8082 101.801 68.3972 102.5 67.6576 102.912C67.2054 103.158 65.3967 103.816 63.5879 103.446C62.766 103.282 62.149 104.022 62.355 104.022C62.766 103.899 63.2593 103.981 63.5468 104.352C64.0813 104.764 64.8209 105.297 65.479 104.515C65.685 104.269 66.7532 103.735 67.6988 104.721C66.6708 104.68 66.7532 106.532 64.7797 106.326C64.0401 106.326 62.4373 104.639 61.9852 105.175C61.1632 106.079 63.7527 106.943 62.6424 108.095C61.6556 109.123 60.4227 107.272 60.4227 107.272C61.0396 107.519 62.1902 107.725 61.6968 106.696C61.4909 106.285 61.122 105.915 61.122 105.174C61.0396 104.804 58.7375 108.136 57.2171 106.614C56.5993 106.038 55.4084 104.721 54.2981 104.228C57.2171 103.981 57.6281 105.132 57.792 105.338C58.7375 106.573 59.5595 105.338 59.7654 105.092C60.0529 104.763 60.505 104.268 60.3403 104.187C59.23 103.652 57.9155 103.529 56.97 103.981C59.0249 101.142 60.6286 103.816 60.6286 103.816C60.8346 103.94 60.5874 102.13 58.5325 102.048C57.2574 101.965 56.148 103.117 55.2848 103.117C54.5864 103.117 52.407 101.677 51.9145 100.361C53.1887 101.307 54.7914 101.842 55.7782 101.225C57.6684 100.115 60.0117 101.801 60.1352 101.595C59.6007 101.184 58.4089 99.58 55.2024 100.484C53.9695 101.184 53.4349 99.9498 52.6541 99.9498C53.9695 98.7974 54.8738 99.3732 55.326 99.4143C55.4496 99.4143 54.7914 98.8798 54.3393 98.8386C50.763 98.4688 48.5021 97.4811 48.5021 97.4811C48.5021 97.4811 48.7904 96.7827 50.3108 97.2752C50.3108 97.2752 48.9543 96.4532 48.9543 95.342C48.9955 94.6839 49.3241 93.9434 48.8316 93.4079C50.8866 93.3265 49.4476 96.2061 50.8866 96.9466C50.9278 96.9466 50.4747 96.2473 51.0925 95.7127C51.379 96.5759 52.1195 96.9878 52.6541 97.1525C52.7777 97.0702 52.9415 96.823 52.9415 96.823C52.407 95.9187 52.3255 94.8486 52.4893 93.6551H52.5305C52.6541 93.6551 52.8592 94.067 52.9827 94.3544C53.2701 95.0125 53.2701 95.9178 53.8871 96.7004C54.2157 97.1113 54.4216 97.5635 54.7091 97.7695C54.8326 97.4811 54.7503 96.9457 54.7091 96.823C54.6267 96.3297 54.3393 95.4656 55.1612 94.7251C55.5731 95.8354 56.0656 95.548 56.148 96.0825C56.2304 96.823 56.2304 96.7406 56.148 97.3164C56.1892 98.1402 56.9288 98.3452 57.5448 98.8798C59.0249 99.6615 59.9714 100.114 60.6286 101.142C60.9572 99.4143 56.3127 99.0857 56.8876 95.753C56.8052 94.4368 57.0524 94.3132 56.1068 93.4912C57.9567 93.5324 58.9837 96.6171 59.0661 97.1525C59.2721 98.1805 59.8881 98.2217 60.711 99.5791C60.8337 99.6203 59.1897 96.0001 61.1632 92.9146C61.1632 92.9146 61.8204 94.5191 61.533 95.5891C61.327 96.2061 61.533 96.9054 61.5742 97.3173C61.6145 97.7283 61.4918 95.8354 62.8895 94.8898C62.971 95.5883 63.6703 96.6995 63.0122 97.8518C62.2314 99.2917 62.1902 98.7562 62.149 100.526C62.2314 100.484 62.4373 99.3329 62.971 98.6335C64.1225 97.234 63.3005 96.4532 64.4099 95.2184C64.4923 95.8363 64.6571 95.5891 64.7385 96.1237C64.9033 97.3576 63.5879 98.6738 63.8754 98.6335C64.2049 98.5924 64.7385 98.304 64.9033 97.3576C64.9033 97.3576 65.3555 98.2217 64.9445 98.51C64.1637 99.0033 63.9989 99.5791 64.1225 100.196C64.7385 99.4555 65.6017 98.6335 65.4379 97.5635C65.5202 96.9054 66.2187 96.6592 66.3422 95.1773C66.3834 94.931 66.6296 94.6427 66.8768 94.4788C66.7532 95.3008 67.4104 96.1649 66.6708 97.1928C66.8356 97.2752 67.4516 96.412 68.3972 96.7004C66.5473 97.029 67.0818 99.0445 65.6841 99.9498C65.2731 100.237 65.3143 100.526 65.1916 100.567C66.4649 100.484 67.4104 99.0033 67.5752 98.8798C68.8494 98.0157 69.0956 97.893 69.6302 96.4935C69.8361 95.959 69.6714 95.753 70.3707 95.0125C70.6572 95.7127 70.2471 97.1525 70.1235 97.4811C69.8773 98.1393 69.0956 98.715 69.2604 98.715C72.6307 97.234 72.5904 96.2061 73.4124 95.1361C73.6586 94.7242 74.8504 94.0258 75.3026 93.9434C75.1799 94.1493 74.7277 94.5612 74.6865 94.931C74.6453 95.6715 74.3982 96.1237 74.0284 96.7406C74.2344 96.9878 74.6453 96.2473 75.0563 96.6171C74.6042 96.9054 74.3579 97.5223 73.946 97.893ZM74.5218 97.6871C74.3158 98.6738 73.9872 99.5791 73.3712 100.443C72.9593 101.061 72.7954 99.8674 73.124 98.7562C73.664 98.5089 74.1417 98.1435 74.5218 97.6871ZM71.9341 72.5924C71.8517 72.5512 71.6878 72.5512 71.6054 72.5512C71.5231 72.5512 71.4407 72.7159 71.5642 72.7159C71.6466 72.7571 71.8105 72.7571 71.9341 72.7571C72.0576 72.7983 72.0164 72.6336 71.9341 72.5924ZM71.5642 73.0866C71.6466 73.1278 71.8105 73.1278 71.9341 73.1278C72.0164 73.1278 72.0164 72.9631 71.9341 72.9631C71.8517 72.9219 71.6878 72.9219 71.6054 72.9219C71.4819 72.9219 71.3995 73.0454 71.5642 73.0866ZM71.5642 75.2258C71.4201 75.0943 71.2692 74.9706 71.1121 74.8551C70.9885 74.9374 70.7834 75.1022 70.6599 75.1846C70.5775 75.061 70.4127 74.8962 70.2077 74.7315C70.0841 74.8139 69.7152 75.1434 69.5908 75.2258C69.7967 75.2258 70.1253 75.3081 70.1253 75.5132V76.8706C70.2489 76.9118 70.4127 76.8706 70.6187 76.8706V75.3896C70.7011 75.3484 70.7423 75.3081 70.7834 75.2669C70.8649 75.3081 71.0709 75.5956 71.2356 75.6368C71.3171 75.5544 71.5642 75.3484 71.6466 75.2669C71.7693 75.2258 71.6466 75.1434 71.5642 75.2258ZM70.9473 73.5388C71.0709 73.3329 71.2356 72.9631 71.2356 72.6747C71.2356 72.3461 71.0297 71.8107 70.4951 71.6468C69.8791 71.8528 69.4681 72.3873 69.4681 72.9631C69.4681 73.2917 69.7555 74.0322 70.3725 74.0322C70.5784 73.8674 70.7423 73.6624 70.9473 73.5388ZM70.5775 73.6624C70.4539 73.6212 70.0429 73.2917 69.9203 73.0042C69.7967 72.6747 69.7967 72.3049 70.1665 72.0578C70.4539 72.1814 70.7834 72.4276 70.8246 72.6756C70.8246 73.0454 70.7423 73.4564 70.5775 73.6624ZM70.5363 71.0299L70.9885 70.5356C70.9885 70.5356 70.7826 70.3709 70.6599 70.2473C70.6599 70.1246 70.6599 69.137 70.7011 69.0958C70.3725 68.8075 70.1253 68.7663 69.9606 68.7663C69.674 68.8075 69.3857 69.1782 69.3033 69.3017C69.221 69.3841 69.2621 69.5077 69.3033 69.548C69.3445 69.5892 69.4269 69.6303 69.5093 69.6715C69.5093 69.6715 69.4681 69.6715 69.4681 69.6303C69.3445 69.7539 69.1386 70.0834 69.1386 70.3297C69.1386 70.5768 69.3445 70.9063 69.5093 71.029C69.6731 70.9063 69.9203 70.7004 70.2489 70.618C70.3313 70.8239 70.4127 70.9475 70.5363 71.0299ZM70.2901 69.8775C70.0841 69.7951 69.6319 69.5892 69.4681 69.4656C69.4269 69.4253 69.4269 69.4253 69.4681 69.3429C69.5496 69.1782 69.674 69.0546 69.7555 69.0546C69.8379 69.0546 70.2901 69.3017 70.248 69.4253C70.2901 69.5068 70.2901 69.7127 70.2901 69.8775ZM70.2901 70.5768C70.1665 70.5768 70.0841 70.618 69.9203 70.7004C69.7967 70.618 69.4681 70.207 69.7143 69.796C69.6731 69.796 69.632 69.7539 69.632 69.7539C69.8379 69.8775 70.0841 70.001 70.2901 70.0422V70.5768ZM68.9738 68.52C68.8512 68.52 68.1527 68.52 68.1527 68.4789C68.086 68.2753 68.1007 68.0539 68.1939 67.861C68.2342 67.7383 68.1527 67.6972 68.0704 67.8207C68.0292 67.9443 67.6585 68.4377 67.2896 68.6024C67.0836 68.6848 67.5358 68.8487 67.4955 68.8487C67.4955 69.3429 67.5761 70.0422 67.6594 70.3297C67.7417 70.4944 67.9056 70.7827 68.0704 70.7004C68.1527 70.6592 68.3578 70.2885 68.399 70.207C68.5225 70.1246 68.399 69.9599 68.3166 70.0834C68.2342 70.1658 68.1527 70.0422 68.1107 69.9599C68.0704 69.8775 67.988 68.8075 68.0292 68.8075C68.0292 68.8075 68.8923 68.6848 68.9747 68.6848C69.0571 68.726 69.0562 68.52 68.9738 68.52ZM66.6314 70.4541L67.0012 70.001C66.755 69.9599 66.6314 69.9187 66.4667 69.7127V68.6024L66.0969 68.2317H65.9742L65.3985 68.726C65.3573 68.8075 65.4808 68.8075 65.5632 68.726L65.9742 68.9722V70.0825C66.0145 70.207 66.0969 70.3297 66.2607 70.4944H66.6314V70.4541ZM66.344 67.9443L66.55 67.7795V67.4912L66.3028 67.245L66.0557 67.4509V67.7795L66.2204 67.9443H66.344ZM65.4396 67.6148C65.2749 67.6148 64.7815 67.656 64.6177 67.656C64.4529 67.6972 64.4529 67.7795 64.5765 67.7795C64.7403 67.7795 64.7403 67.8207 64.8227 68.0267C64.9051 68.2326 64.5353 69.137 64.4529 69.3429C64.3293 69.1782 63.9604 68.3553 63.9604 68.2326C63.9604 68.1493 64.1243 68.067 64.2067 68.067C64.3293 68.0267 64.3293 67.9443 64.2479 67.9031C63.9595 67.8619 62.8913 67.7795 62.7266 67.7383C62.603 67.7383 62.5206 67.8619 62.6854 67.8619C62.8501 67.8619 63.014 67.8207 63.2199 68.0679C63.4259 68.3553 64.0831 69.796 64.2479 70.412C64.3293 70.2885 64.9875 68.3553 65.0287 68.1493C65.0698 67.9434 65.2346 67.7375 65.3985 67.6972C65.6044 67.6972 65.6044 67.6148 65.4396 67.6148ZM62.3147 72.2637C62.3147 73.0454 62.6442 73.1278 63.014 73.3329C63.3435 73.5388 63.9183 73.4976 64.3705 73.3741C64.5353 73.3329 64.6177 73.3329 64.6177 73.4564C64.6177 73.5388 64.7403 73.5388 64.7403 73.4564V72.6336C64.7403 72.5512 64.6177 72.5512 64.6177 72.6336C64.6177 72.7571 64.6177 72.7983 64.4941 72.9219C64.2067 73.3741 63.4662 73.3338 63.0552 72.7983C62.9316 72.6336 62.8089 72.3864 62.9316 72.3049C63.0964 72.2637 63.5897 72.3461 63.8772 72.3873C64.0831 72.3873 64.4941 72.4276 64.5756 72.4688C64.6177 72.51 64.6991 72.5512 64.6991 72.4688V71.9763C64.6991 71.893 64.6177 71.9342 64.5765 71.9763C64.5353 72.0166 64.0419 72.099 63.8781 72.1402C63.6721 72.1814 63.0964 72.2226 62.9737 72.1814C62.8089 72.1402 62.8501 71.8107 63.014 71.6468C63.4259 71.1114 64.2479 71.1525 64.5353 71.6056C64.6177 71.7695 64.6177 71.8116 64.6177 71.9342C64.6177 72.0166 64.7403 72.0166 64.7403 71.9342V70.9878C64.7403 70.9063 64.6177 70.9063 64.6177 70.9878C64.6177 71.029 64.4941 71.0702 64.3705 71.029C64.1243 70.9475 63.3838 71.0702 63.0552 71.2349C62.7266 71.3997 62.3147 71.7695 62.3147 72.2637ZM62.4391 73.6624C62.4391 73.9086 62.5206 75.8427 62.5206 76.1301C62.5206 76.2949 62.7266 76.4596 62.8913 76.5832C62.9728 76.4596 63.1778 76.1713 63.3435 76.0486C63.425 75.9663 63.3838 75.9251 63.3023 75.9251C63.1376 76.0075 63.014 75.9251 62.9728 75.7603V73.6624C62.8913 73.7036 62.5618 73.7036 62.4391 73.6624ZM64.0419 75.2669C63.9183 75.3896 63.6721 75.7191 63.6721 75.9251C63.6721 76.1713 63.7957 76.3773 63.9183 76.542C64.1655 76.3773 64.2882 76.1301 64.6991 76.0075C64.7403 76.1713 64.8639 76.2134 65.0287 76.3361C65.111 76.2537 65.4396 75.8427 65.5211 75.7603C65.6035 75.6779 65.5632 75.6368 65.4396 75.6779C65.3161 75.7603 65.2749 75.7191 65.0698 75.5132C65.0698 75.3896 65.0698 74.5676 65.111 74.5264C64.9463 74.3617 64.7815 74.1146 64.6177 74.1146C64.3293 74.1557 64.0007 74.6079 63.9192 74.7324C63.836 74.8139 63.9192 75.1846 63.9595 75.2249L64.0419 75.2669ZM64.2479 75.4308C64.4117 75.5132 64.4941 75.472 64.6991 75.4308V75.8015C64.5765 75.8839 64.4529 75.9251 64.3293 76.0075C64.2067 75.8839 64.0419 75.8015 64.2479 75.4308ZM64.1243 74.7324C64.2067 74.5676 64.2881 74.5676 64.3705 74.5676C64.4529 74.5676 64.7403 74.7736 64.6991 74.8963V75.3484C64.4932 75.3896 64.3293 75.3896 64.1243 75.1846C64.0831 75.1434 64.0831 74.8148 64.1243 74.7324ZM65.8094 74.4029C65.6447 74.4853 66.0557 74.6491 66.0154 74.6491C66.0154 75.1434 65.933 75.8839 66.0969 76.1301C66.1793 76.2949 66.4264 76.3773 66.5902 76.3361C66.755 76.2949 66.9189 75.9663 67.0021 75.9242C67.1248 75.8427 67.0021 75.7603 66.9189 75.8427C66.8374 75.9251 66.5902 75.8839 66.5491 75.8015C66.5079 75.7191 66.5079 74.6912 66.5491 74.6491H66.9189C67.0012 74.6491 67.0012 74.4432 66.9189 74.4432C66.7962 74.4432 66.5902 74.4029 66.5491 74.3617C66.5079 74.2793 66.5491 73.9498 66.6314 73.8271C66.7138 73.7036 66.5902 73.6212 66.5079 73.7859C66.4264 73.9498 66.1381 74.2381 65.8094 74.4029ZM65.8918 72.2629C65.8918 72.7159 65.6859 73.1681 65.4396 73.4152C65.8918 73.2917 65.9321 73.0454 66.1793 72.7168C66.3028 72.9219 66.5491 73.1681 66.755 73.2505C66.8786 73.1681 67.2475 72.7571 67.3299 72.6747C67.0836 72.5924 66.5902 72.3461 66.4667 72.0578C66.3852 71.8519 66.3852 71.7695 66.5079 71.6056C66.5902 71.7283 67.2063 72.0166 67.4946 71.5232C67.2072 71.3997 66.9189 71.2349 66.8374 71.0702C66.755 71.1525 66.5079 71.4409 66.344 71.5232C66.3028 71.3585 66.0557 71.1937 65.8506 71.1525C65.7683 71.2349 65.3161 71.5644 65.111 71.6871C65.0287 71.7283 65.0698 71.8519 65.1513 71.8107C65.2337 71.7695 65.3985 71.6468 65.5632 71.5644C65.6447 71.6468 65.8918 71.8519 65.8918 72.2629ZM67.988 72.3461C68.0292 72.0578 68.2342 71.9754 68.3166 71.893C68.4402 72.0166 68.5637 72.1814 68.7688 72.1814C68.9335 72.1814 69.1386 72.099 69.1807 72.0166C69.0159 71.893 68.6864 71.5232 68.6049 71.4821C68.4402 71.5644 67.6594 71.9754 67.6182 72.4276C67.5358 73.0866 67.7417 73.2093 68.0292 73.58C68.1939 73.7859 68.4814 73.7859 68.6049 73.7859C68.7276 73.7036 69.221 73.2093 69.3033 73.1681C69.3445 73.1278 69.2621 73.0454 69.221 73.1278C69.1798 73.1681 69.1798 73.2093 69.0974 73.2093C69.0159 73.2093 68.6864 73.2917 68.4814 73.1681C68.2342 73.0043 67.9468 72.7159 67.988 72.3461ZM67.6182 74.4441C67.4946 74.5676 67.3299 74.6903 67.1248 74.8963C67.2896 74.8963 67.4122 74.9374 67.4534 75.1022C67.5358 75.2258 67.4534 75.8427 67.4946 76.0889C67.4946 76.2949 67.6594 76.3773 67.8232 76.542C67.988 76.5008 68.4813 76.2949 68.6864 76.1713C68.6864 76.3773 68.8923 76.5832 69.0571 76.6244C69.1386 76.542 69.263 76.4596 69.3857 76.3361C69.2621 76.2537 69.2621 76.2537 69.221 76.0486C69.1798 75.8839 69.221 75.2249 69.221 74.9374C69.0974 74.7727 68.9335 74.5676 68.7688 74.4441C68.6452 74.5676 68.4814 74.6903 68.2763 74.9374C68.4402 74.9374 68.7276 74.9786 68.7276 75.1022C68.7276 75.2669 68.7688 75.5956 68.7276 75.8839C68.6864 76.1713 67.9468 76.0486 67.9468 75.8427C67.9468 75.6368 67.988 75.1022 67.988 74.8551C67.9056 74.6903 67.8232 74.6088 67.6182 74.4441ZM62.7677 81.0674C62.3559 80.985 62.0281 80.6967 61.6163 80.532C61.0826 80.326 60.5068 80.7379 60.5068 80.8203C60.5068 80.985 60.6716 81.0262 61.0826 80.7791C61.0363 80.8261 61.0003 80.8824 60.9771 80.9442C60.9539 81.006 60.9439 81.072 60.9478 81.1379C60.9517 81.2038 60.9693 81.2682 60.9996 81.3268C61.03 81.3855 61.0722 81.4371 61.1238 81.4784C61.0002 81.4372 60.7943 81.396 60.6304 81.3548C60.5892 81.4784 60.7943 81.5608 60.8766 81.602C61.6574 81.8894 62.1096 81.1901 62.7677 81.0674ZM61.5348 81.4372C61.5348 81.4372 61.7407 81.2313 61.7407 81.0674C61.7407 80.8615 61.5348 80.7379 61.5348 80.7379C61.6986 80.7791 62.0684 80.985 62.2332 81.1086L61.5348 81.4372ZM57.5887 75.9663L57.7946 75.7191C57.5475 75.6779 57.6702 75.6779 57.5475 75.5544V74.6079L57.2592 74.1557H57.1365L56.6431 74.6079C56.5196 74.7315 56.6431 74.7727 56.7667 74.6491L57.0953 74.8139V75.8015C57.1365 75.9251 57.2189 75.9663 57.3828 76.1301L57.5887 75.9663ZM57.6702 72.6747C57.8349 73.1278 58.2047 73.2926 58.4931 73.2926C58.5831 73.1156 58.6934 72.9498 58.8217 72.7983C58.9452 72.6336 58.8217 72.51 58.7393 72.7159C58.6569 72.8807 58.2871 72.7159 58.1636 72.5924C57.9997 72.4276 57.8761 71.9754 57.9997 71.8519C58.1224 71.6871 58.3283 71.7695 58.6157 71.7695C58.7805 71.7695 58.8217 71.6056 58.8629 71.5232C58.7805 71.4821 58.6569 71.3997 58.4931 71.3173C58.3283 71.4409 58.0409 71.6468 57.9585 71.7292C57.7937 71.8107 57.5063 72.2217 57.6702 72.6747ZM58.3686 75.1846C58.2047 75.3484 58.0821 75.5544 58.0821 75.8015C58.0821 76.0486 58.1636 76.2537 58.4107 76.3773C58.6166 76.2125 58.9032 76.0486 59.1503 75.9654C59.2739 76.1301 59.4789 76.2125 59.6025 76.3361C59.6849 76.2537 59.9311 76.0075 60.0144 75.9663C60.0958 75.8839 60.0144 75.8015 59.9311 75.8839C59.8899 75.9663 59.6849 75.9251 59.6437 75.8015C59.6437 75.7191 59.5613 74.6491 59.6025 74.6079C59.4377 74.4441 59.1915 74.0734 59.0267 74.0734C58.7805 74.1146 58.3695 74.4853 58.2871 74.5676C58.2047 74.6491 58.2862 75.1022 58.3686 75.1846C58.3686 75.1434 58.3274 75.1434 58.3686 75.1846ZM59.0267 75.2669C58.8208 75.2669 58.6569 75.2258 58.4519 75.0198C58.4107 74.9786 58.3695 74.7315 58.4107 74.6491C58.4931 74.4853 58.4931 74.4432 58.5745 74.4432C58.6569 74.4432 59.0267 74.6903 59.0267 74.8139C59.0681 74.9621 59.0681 75.1188 59.0267 75.2669ZM58.5343 75.3081C58.6981 75.4308 58.8208 75.4308 59.0267 75.3896V75.6779C59.0267 75.7191 59.0679 75.7603 59.0679 75.8015L58.6981 75.9251C58.5745 75.8427 58.2056 75.5965 58.5343 75.3081ZM59.9723 73.3329L60.1782 73.0866C59.9311 73.0454 59.9311 73.0454 59.8084 72.9631V71.8528L59.6025 71.5644H59.4789L58.9864 72.0166C58.8629 72.1402 58.9864 72.1814 59.1091 72.0578L59.3562 72.2226V73.2505C59.3974 73.3741 59.4789 73.4152 59.6437 73.58L59.9723 73.3329ZM59.6025 69.5068C59.5201 69.5068 59.3562 69.6715 59.9311 69.7539C60.0135 69.7127 60.137 69.5068 59.6025 69.5068ZM59.6025 69.137C59.5201 69.137 59.3562 69.3841 59.9311 69.3841C60.0547 69.3841 60.0958 69.1782 59.6025 69.137ZM59.726 70.8651L59.4789 70.618L59.2327 70.8239V71.1114L59.3974 71.2761H59.5613L59.726 71.1114V70.8651ZM59.2327 68.5191C59.0679 68.3965 58.9041 68.1082 58.4931 68.1082C58.0812 68.1082 57.6299 68.4789 57.4651 68.6848C57.2592 68.9722 57.5063 69.2605 57.7526 69.4665C57.5887 69.5892 57.3416 69.8363 57.1365 70.0422C57.2189 70.1246 57.6702 70.3709 57.9585 70.3297C58.3695 70.3297 58.6981 70.1237 58.9452 69.9178C59.3562 69.5892 59.2318 69.2605 58.7805 69.0134C58.7393 68.9722 58.6981 68.9722 58.6569 68.9722C58.9452 68.7663 59.1915 68.6015 59.2327 68.5191ZM58.2047 69.3841C58.3283 69.4665 58.4931 69.5068 58.6166 69.5901C58.8217 69.7127 58.7393 69.9599 58.4931 70.0422C58.2459 70.1658 57.8349 69.8363 57.7526 69.7127C57.8349 69.6303 57.9997 69.5068 58.2047 69.3841ZM58.6166 68.8075C58.5745 68.8487 58.4931 68.931 58.3695 69.0134H58.1636C57.9576 68.9722 57.8761 68.8075 57.7526 68.6848C57.6702 68.5612 57.9173 68.4377 58.0409 68.4377C58.1636 68.4789 58.4519 68.6436 58.6157 68.8075H58.6166ZM56.9306 69.6715C56.745 69.7288 56.5446 69.714 56.3694 69.6303C56.1942 69.5465 56.057 69.3998 55.985 69.2194C56.2322 68.9722 56.6431 68.5612 56.8894 68.3553C56.7255 68.1905 56.6431 67.9434 56.3548 67.9434C56.1086 67.9434 55.4917 68.2317 55.369 69.0134C55.2866 69.7539 55.9438 70.1658 56.5196 70.1658C56.6843 70.1658 56.9315 69.9187 57.0541 69.8775C57.3004 69.7539 57.2189 69.6303 56.9306 69.6715ZM55.9438 69.0958C55.78 68.6024 55.8624 68.4377 56.1498 68.1914C56.2257 68.3301 56.3397 68.4441 56.4784 68.52C56.3145 68.6848 56.0674 69.0134 55.9438 69.0958ZM55.2454 68.6436C55.369 68.5612 55.2454 68.4789 55.163 68.5612C55.0434 68.447 54.9335 68.323 54.8344 68.1905C54.752 68.2729 54.5058 68.3965 54.3822 68.4789C54.2999 68.3553 54.1763 68.3553 53.9704 68.1905C53.8477 68.2729 53.6014 68.4377 53.4779 68.6024C53.7241 68.6848 53.8898 68.6848 53.8898 68.8898V70.2061C54.0124 70.2473 54.1763 70.2061 54.3411 70.2061V68.6839C54.403 68.6534 54.4588 68.6118 54.5058 68.5612C54.5873 68.6024 54.7117 68.8075 54.8344 68.8898C54.9168 68.8898 55.163 68.726 55.2454 68.6436ZM53.3543 71.1937C53.1081 71.2349 52.6971 71.5232 52.6147 71.7695C52.5735 71.893 52.6147 72.2637 52.6971 72.3049L52.7795 72.3873C52.6147 72.5512 52.4499 72.6747 52.4499 72.9219C52.4499 73.1681 52.6559 73.3741 52.8618 73.4564C52.9203 73.3612 52.998 73.2791 53.0898 73.2155C53.1817 73.1518 53.2858 73.1079 53.3955 73.0866C53.3955 73.2505 53.4367 73.4152 53.5603 73.4976C53.6426 73.4152 53.9712 73.0857 54.0527 73.0454C54.136 72.9631 54.0527 72.8807 53.9712 72.9631C53.9301 73.0043 53.8065 72.9219 53.7653 72.8807C53.7653 72.7983 53.7653 71.7283 53.8065 71.6871C53.6838 71.5644 53.5191 71.1937 53.3543 71.1937ZM53.3543 72.2637C53.0669 72.4697 52.9845 72.4276 52.7795 72.2226C52.7435 72.1609 52.7212 72.0922 52.7141 72.0211C52.707 71.95 52.7152 71.8783 52.7383 71.8107C52.8206 71.6871 52.9845 71.5232 53.0669 71.5232C53.1493 71.5232 53.3543 71.8107 53.3543 71.9351V72.2637ZM53.3543 72.7983V72.9631C53.3131 72.9631 53.2316 73.0043 53.1484 73.0454C53.0257 72.9631 52.5323 72.7983 52.8618 72.51C53.0669 72.6336 53.1484 72.5512 53.3543 72.4276V72.7983ZM53.1484 70.5768C53.1081 70.5356 53.0257 70.4532 53.0257 70.3709V69.5892C53.0257 69.5068 52.8609 69.5068 52.8609 69.5892C52.8609 69.7127 52.8609 69.8775 52.7795 70.0422C52.4911 70.4541 51.9566 70.6592 51.5868 70.1246C51.4641 69.9599 51.4229 69.6715 51.4229 69.5068C51.3817 69.2605 51.5868 68.931 51.5868 68.8898C52.0801 68.2729 52.7383 68.726 52.7795 68.9722C52.8206 69.137 52.8609 69.3429 52.8609 69.4665C52.8609 69.548 53.0257 69.548 53.0257 69.4665V68.3562C53.0257 68.2729 52.9021 68.2729 52.9021 68.3562C52.9021 68.52 52.8206 68.52 52.6962 68.4789C52.4499 68.3965 51.9163 68.2729 51.628 68.4789C51.3405 68.6436 50.9295 69.0134 50.9295 69.4665C50.9295 70.2473 51.217 70.2885 51.5868 70.5356C51.9163 70.7416 52.3273 70.618 52.7383 70.4944C52.9021 70.4532 52.9021 70.5356 52.9845 70.6592C53.1493 70.8239 53.2307 70.7004 53.1484 70.5768ZM51.0119 71.6871C50.7236 72.099 50.6 72.7571 51.0531 73.1278C51.2591 73.2917 51.4641 73.4564 51.9163 73.3741C51.9978 73.2093 52.039 73.1278 52.2028 72.9219C51.9163 72.9631 51.6692 72.9219 51.4229 72.7571C50.9707 72.3873 51.0934 71.8107 51.2582 71.6056C51.5053 71.2349 51.8751 71.7695 51.9163 71.8519C51.9978 71.7695 52.1222 71.6056 52.2861 71.5232C52.1625 71.3585 52.039 71.1525 51.9566 71.0702C51.628 71.1525 51.1758 71.3997 51.0119 71.688V71.6871ZM51.1758 75.2258C51.0934 75.9663 51.7927 76.4184 52.1213 76.542C52.2379 76.3103 52.3758 76.09 52.5332 75.8839C52.6559 75.7191 52.5332 75.6779 52.4088 75.8015C52.2449 75.9663 51.7927 75.8015 51.6692 75.5956C51.8751 75.4308 52.4911 74.9374 52.7383 74.7315C52.5735 74.5676 52.3264 74.1969 52.2861 73.9498C52.039 74.1557 51.2993 74.4441 51.1758 75.2258ZM51.9163 74.4441C51.9978 74.6079 52.2028 74.9374 52.2861 74.9786C52.1213 75.1434 51.7103 75.4308 51.5877 75.5132C51.3817 75.2258 51.2582 74.8148 51.9163 74.4441ZM53.4367 74.1557C53.2719 74.2793 53.1905 74.4029 52.9845 74.5676C53.0669 74.6903 53.2316 74.8139 53.2719 75.0198V76.3361H53.6838C53.6426 76.1713 53.6838 75.0198 53.6838 74.8139C53.7653 74.7315 53.8065 74.6903 53.9301 74.6079C54.0124 74.6903 54.2175 74.7315 54.2175 74.8551C54.2175 74.9786 54.2587 75.5544 54.2175 75.7594C54.1763 76.0075 54.1763 76.2125 54.3411 76.4596C54.4646 76.3361 54.8335 76.0889 54.9168 76.0075C54.9992 75.9251 54.958 75.8839 54.8344 75.9251C54.7109 75.9663 54.7109 75.9663 54.7109 75.8839C54.7109 75.7603 54.6697 75.1434 54.6285 74.7315C54.6285 74.3196 54.4225 74.2381 54.2999 74.1557C54.1763 74.2793 53.9301 74.4441 53.7653 74.5676C53.6014 74.5676 53.5594 74.3617 53.4367 74.1557ZM54.9992 73.2093C55.1218 73.0866 55.2454 72.9219 55.2857 72.8807C55.369 72.7983 55.2857 72.7159 55.2051 72.7983C55.1218 72.8807 54.958 72.7159 54.958 72.7159C54.9168 72.6336 54.7932 71.7283 54.8344 71.7283C54.8344 71.7283 55.4102 71.6468 55.4917 71.6468C55.5328 71.6468 55.574 71.4821 55.4917 71.4821C55.4102 71.4821 54.958 71.5232 54.958 71.4821C54.9168 71.3997 54.8756 71.0702 54.9992 70.7827C55.0807 70.6592 54.9992 70.5356 54.958 70.6592C54.9168 70.7827 54.5461 71.3576 54.2999 71.4409C54.0939 71.5232 54.136 71.5644 54.2587 71.6056C54.3411 71.6056 54.4646 71.7283 54.4234 71.7283C54.4234 72.1814 54.341 72.7571 54.5058 73.0042C54.6285 73.1681 54.8756 73.2917 54.9983 73.2102L54.9992 73.2093ZM56.9718 73.4152C56.8894 73.5388 56.807 73.7036 56.5608 73.7859C56.6843 73.9086 56.8482 74.0322 56.9727 74.1146C57.0953 73.991 57.2189 73.8271 57.3416 73.7027C57.2189 73.6624 57.0541 73.5791 56.9718 73.4152ZM56.0674 72.9219C56.2322 72.9219 56.5608 73.0042 56.8482 73.0042C57.2189 72.9631 57.5466 72.3864 57.3828 71.8939C57.2189 71.4409 56.7255 71.5232 56.396 71.4409C56.1086 71.3585 55.9438 71.1525 56.3145 70.9475C56.7255 70.7004 57.1777 71.1114 57.2189 71.1937C57.3004 71.3173 57.3416 71.3173 57.3416 71.1525C57.3416 70.7827 57.3004 70.9878 57.3004 70.6592C57.3004 70.5356 57.2189 70.5356 57.1777 70.6592C57.1777 70.7827 57.013 70.7415 56.9306 70.7415C56.807 70.7415 56.4784 70.7004 56.191 70.8651C56.0262 70.9878 55.6152 71.2761 55.8212 71.6871C55.9438 71.893 56.7255 72.099 56.9315 72.2226C57.1365 72.3461 57.1777 72.6747 56.9718 72.8395C56.7255 73.0454 56.1086 72.8807 55.985 72.7571C55.8624 72.6335 55.8212 72.51 55.7791 72.3452C55.8212 72.0578 55.6976 72.0578 55.6976 72.2226C55.6976 72.3873 55.7388 72.921 55.78 73.0454C55.8212 73.1681 55.9438 73.1278 55.9438 73.0454C55.9438 72.9219 55.985 72.9219 56.0674 72.9219ZM55.2454 74.5676C55.0807 74.6903 55.4102 74.8551 55.4102 74.8139C55.4102 75.2669 55.369 75.7603 55.4917 76.0075C55.574 76.1713 55.9035 76.2537 55.9438 76.1301C55.985 76.0075 56.2322 75.7191 56.2733 75.6376C56.3548 75.5544 56.2733 75.472 56.191 75.5544C56.0262 75.7191 55.9438 75.6368 55.7791 75.5132C55.7388 75.4308 55.6976 74.8148 55.7388 74.7727C55.7388 74.7727 56.0674 74.7315 56.1086 74.7315C56.1498 74.7315 56.1498 74.5676 56.1086 74.5676C56.0262 74.5676 55.7388 74.5676 55.7388 74.5264C55.6976 74.4441 55.78 73.991 55.8212 73.7859C55.8212 73.6624 55.78 73.6212 55.7388 73.7448C55.7388 73.8674 55.4102 74.4432 55.2454 74.5676Z" fill="#800000"/>
</svg>
