<svg xmlns="http://www.w3.org/2000/svg" width="212" height="88" viewBox="0 0 212 88" fill="none">
<g id="logo-background 1">
<g id="Group">
<path id="Vector" d="M185.095 20.8523V20.7957C185.067 20.3999 185.067 19.8921 185.067 19.3554V19.2706L184.982 19.2989C184.84 19.3271 184.192 19.3271 183.543 19.3271H181.539C181.144 19.3271 180.777 19.3271 180.297 19.2989H180.241C180.21 19.3225 180.184 19.3521 180.164 19.386C180.145 19.4199 180.133 19.4574 180.128 19.4962C180.128 19.581 180.156 19.6659 180.213 19.6941L180.411 19.7224C180.947 19.779 180.975 19.8355 180.975 20.9931V24.8905C180.975 26.0486 180.947 26.1052 180.411 26.1617L180.1 26.19L180.072 26.2183C180.015 26.2748 179.987 26.3879 180.015 26.4439C180.015 26.5287 180.072 26.5853 180.128 26.6136H180.184C180.693 26.5853 181.059 26.5853 181.539 26.5853C181.962 26.5853 182.357 26.5853 182.978 26.6136H183.035C183.12 26.5853 183.148 26.4722 183.148 26.4156C183.148 26.3314 183.12 26.2466 183.063 26.2183L182.668 26.1617C182.104 26.1052 182.075 26.0486 182.075 24.8911V23.3942C182.075 23.1963 182.075 23.1963 182.358 23.1963H183.091C183.458 23.1963 183.768 23.1963 183.91 23.2528C184.051 23.3094 184.135 23.3942 184.192 23.5915L184.305 24.0434L184.333 24.0716C184.446 24.1565 184.671 24.1565 184.728 24.0434V23.9868C184.728 23.8743 184.728 23.7329 184.7 23.5633C184.7 23.3659 184.671 23.1397 184.671 22.9424C184.671 22.7162 184.671 22.4899 184.7 22.2926C184.7 22.1229 184.728 21.9816 184.728 21.8408V21.7842C184.671 21.6994 184.559 21.6994 184.53 21.6994C184.446 21.6994 184.361 21.7277 184.333 21.7842L184.22 22.2637C184.163 22.5182 184.079 22.5465 183.994 22.5748C183.881 22.6031 183.543 22.6313 183.091 22.6313H182.357C182.075 22.6313 182.075 22.6313 182.075 22.4334V20.1742C182.075 19.8355 182.075 19.8355 182.329 19.8355H182.978C183.43 19.8355 183.768 19.8355 183.994 19.8921C184.446 20.0046 184.587 20.3156 184.7 20.8523V20.8806L184.728 20.9082C184.777 20.9438 184.837 20.9635 184.897 20.9648C184.954 20.9648 185.067 20.9082 185.095 20.8523ZM177.842 22.9424C177.842 21.1062 176.629 19.1292 174.004 19.1292C171.747 19.1292 170.054 20.824 170.054 23.0266C170.054 24.8911 171.408 26.7826 174.004 26.7826C176.178 26.8115 177.842 25.145 177.842 22.9418V22.9424ZM176.572 23.2805C176.572 25.512 175.246 26.3031 174.117 26.3031C171.888 26.3031 171.295 24.0434 171.295 22.6879C171.295 20.4281 172.65 19.6376 173.807 19.6376C175.867 19.6376 176.573 21.6146 176.573 23.2811L176.572 23.2805ZM167.711 41.7525C167.711 46.4405 171.182 50.5641 176.967 50.5641C181.99 50.5641 185.998 46.7515 185.998 41.4698C185.998 36.8949 182.978 32.5451 176.967 32.5451C171.634 32.5734 167.711 36.5556 167.711 41.7525ZM170.307 40.9331C170.307 35.2284 173.807 33.3928 176.516 33.3928C181.483 33.3928 183.374 38.0242 183.374 42.3175C183.374 47.429 180.411 49.7735 177.278 49.7735C172.198 49.7735 170.307 44.7739 170.307 40.9331ZM164.579 19.6941C164.606 19.6694 164.628 19.639 164.643 19.6051C164.657 19.5711 164.665 19.5344 164.664 19.4974C164.663 19.4576 164.652 19.4186 164.632 19.384C164.613 19.3494 164.584 19.3204 164.551 19.2995H164.494C163.732 19.356 163.28 19.356 162.462 19.2995H162.406C162.373 19.3142 162.345 19.3379 162.325 19.3678C162.305 19.3977 162.294 19.4326 162.293 19.4685C162.265 19.5534 162.293 19.6382 162.377 19.6948L162.406 19.723L162.632 19.7513C162.829 19.7796 162.97 19.8361 162.998 19.8644C162.97 20.0058 162.575 20.7115 162.349 21.1634L162.293 21.2482C162.039 21.7566 161.729 22.2932 161.362 22.9424C161.079 22.434 160.798 21.8697 160.515 21.3047C160.402 21.0785 160.289 20.8806 160.205 20.655C160.084 20.3952 159.971 20.1315 159.866 19.8644C159.866 19.8361 159.923 19.8079 160.261 19.7513L160.431 19.723L160.459 19.6948C160.515 19.6382 160.543 19.5251 160.515 19.4403C160.487 19.356 160.459 19.2989 160.374 19.2989H160.317C160.064 19.3278 159.668 19.3278 159.161 19.3278C158.653 19.3278 158.258 19.3278 157.919 19.2995H157.862C157.806 19.3278 157.778 19.3843 157.75 19.4685C157.737 19.5078 157.736 19.5498 157.746 19.5898C157.756 19.6297 157.777 19.6661 157.806 19.6948L157.834 19.723L158.173 19.7796C158.455 19.8361 158.596 19.8644 158.963 20.5701L160.233 23.0555C160.543 23.6487 160.571 23.7618 160.571 24.355V24.9194C160.571 26.1058 160.543 26.1623 160.007 26.2189L159.64 26.2472L159.612 26.2755C159.556 26.332 159.528 26.4445 159.556 26.5011C159.556 26.5859 159.612 26.6424 159.668 26.6707H159.725C160.317 26.6424 160.684 26.6424 161.136 26.6424C161.587 26.6424 161.954 26.6424 162.604 26.6707H162.66C162.716 26.6424 162.744 26.5859 162.773 26.5011C162.773 26.4162 162.773 26.332 162.716 26.2755L162.688 26.2472L162.237 26.2189C161.729 26.1906 161.672 26.1058 161.672 24.9194V24.355C161.672 23.5356 161.701 23.4514 162.18 22.6319L162.858 21.4455C162.914 21.333 162.97 21.2482 163.027 21.1351C163.45 20.4005 163.761 19.8644 164.212 19.7796L164.579 19.6948V19.6941ZM160.769 32.9686C159.687 32.7155 158.579 32.583 157.468 32.5734C153.545 32.5734 150.977 33.7881 149.227 35.6237C147.618 37.3468 146.885 39.5776 146.885 41.7808C146.885 44.0682 147.703 46.13 149.284 47.6835C151.288 49.717 154.109 50.5641 157.214 50.5641C158.624 50.5641 160.487 50.2536 161.87 49.8867C162.349 49.7453 162.829 49.6604 163.14 49.6604C163.164 49.6437 163.185 49.6217 163.2 49.596C163.215 49.5703 163.225 49.5416 163.227 49.5119C163.23 49.4822 163.226 49.4523 163.216 49.4243C163.206 49.3963 163.189 49.3709 163.168 49.35C162.688 49.1803 162.547 48.5306 162.547 47.5138V46.0452C162.547 44.7174 162.575 43.9834 163.676 43.8709L164.099 43.8143C164.268 43.6447 164.268 43.2777 164.071 43.1646C163.15 43.2237 162.228 43.252 161.305 43.2494C159.781 43.2494 158.342 43.2211 157.58 43.1646C157.411 43.2494 157.383 43.7012 157.58 43.8143L158.737 43.9557C160.346 44.1248 160.431 44.2938 160.431 46.4687V47.5138C160.431 48.3332 160.289 48.8133 160.177 49.0107C159.894 49.4625 158.935 49.8018 157.326 49.8018C152.105 49.8018 149.538 45.8761 149.538 40.8772C149.538 36.9798 151.738 33.3928 156.79 33.3928C159.443 33.3928 161.39 34.2682 162.124 37.0923C162.293 37.2619 162.744 37.2336 162.829 37.0074C162.604 35.454 162.434 34.0985 162.434 33.2231C162.067 33.2514 161.277 33.0818 160.769 32.9686ZM156.338 19.1581V19.1015C156.31 19.0167 156.197 19.0167 156.142 19.0167C156.113 19.0167 156.084 19.0167 156.028 19.045H156L155.972 19.0733C155.831 19.3278 155.774 19.3278 155.21 19.3278H150.723C150.243 19.3278 150.017 19.2995 149.989 19.0733V19.0167C149.95 18.9813 149.9 18.9611 149.847 18.9602C149.82 18.9602 149.735 18.9602 149.678 18.9884L149.651 19.0167V19.045C149.566 19.4692 149.424 20.1749 149.255 20.655V20.6832L149.284 20.7115C149.34 20.8529 149.566 20.9089 149.678 20.8246H149.707V20.7964C149.82 20.5419 149.933 20.3163 150.186 20.09C150.412 19.8644 150.977 19.8361 151.457 19.8361H152.049C152.303 19.8361 152.303 19.8361 152.303 20.09V24.9476C152.303 26.1341 152.247 26.1623 151.711 26.2189L151.315 26.2472H151.287C151.231 26.2755 151.175 26.3603 151.202 26.4728C151.202 26.5576 151.231 26.6424 151.315 26.6707H151.372C152.021 26.6424 152.444 26.6424 152.868 26.6424C153.291 26.6424 153.63 26.6424 154.278 26.6707H154.335C154.366 26.6471 154.392 26.6174 154.412 26.5834C154.431 26.5493 154.444 26.5117 154.448 26.4728C154.448 26.3886 154.42 26.3037 154.363 26.2755L153.968 26.2189C153.432 26.1623 153.404 26.1058 153.404 24.9476V20.0618C153.404 19.9486 153.404 19.8361 153.432 19.8361C153.46 19.8079 153.573 19.8079 153.657 19.8079H154.42C155.012 19.8079 155.407 19.8927 155.633 20.0618C155.746 20.1466 155.831 20.4005 155.859 20.7964V20.8246L155.887 20.8529C155.915 20.9089 156 20.9371 156.084 20.9371C156.198 20.9371 156.282 20.8812 156.31 20.8246V20.7681C156.169 20.457 156.226 19.5816 156.338 19.1581ZM146.461 24.9194V21.0502C146.461 19.8638 146.49 19.7796 147.054 19.7513L147.337 19.723H147.364C147.421 19.6948 147.449 19.6099 147.449 19.5251C147.449 19.4968 147.421 19.356 147.336 19.3278H147.28C146.772 19.356 146.377 19.356 145.954 19.356C145.502 19.356 145.107 19.356 144.599 19.3278H144.543C144.512 19.3513 144.486 19.3809 144.466 19.4148C144.447 19.4487 144.434 19.4863 144.43 19.5251C144.43 19.6099 144.458 19.6948 144.515 19.723H144.543L144.825 19.7513C145.389 19.8079 145.418 19.8644 145.418 21.0502V24.9194C145.418 26.0775 145.389 26.1341 144.825 26.2189L144.515 26.2472L144.486 26.2755C144.43 26.332 144.401 26.4445 144.43 26.5011C144.43 26.5859 144.486 26.6424 144.543 26.6707H144.599C145.163 26.6424 145.502 26.6424 145.954 26.6424C146.377 26.6424 146.744 26.6424 147.28 26.6707H147.336C147.367 26.6471 147.394 26.6174 147.413 26.5834C147.433 26.5493 147.445 26.5117 147.449 26.4728C147.449 26.3886 147.421 26.3037 147.364 26.2755L147.054 26.2189C146.49 26.1341 146.461 26.0775 146.461 24.9194ZM144.684 49.5184C143.555 49.377 143.216 49.01 142.483 46.7509L138.927 36.3005C138.531 35.1429 138.108 33.9565 137.77 32.8273C137.713 32.6576 137.544 32.601 137.374 32.601C137.092 32.9397 136.641 33.4199 136.02 33.5895C136.104 34.0137 135.935 34.4932 135.568 35.4251L132.916 42.4576C131.815 45.3671 131.081 47.062 130.63 48.2478C130.263 49.1797 129.699 49.4619 129.078 49.5184L128.232 49.6033C128.062 49.7446 128.118 50.1399 128.288 50.253C128.993 50.2248 129.925 50.1682 130.771 50.1682C131.985 50.1965 132.803 50.1965 133.48 50.253C133.706 50.1399 133.706 49.7446 133.537 49.6033L132.69 49.5184C132.069 49.4619 131.928 49.3211 131.928 49.01C131.928 48.7273 132.098 48.0216 132.492 46.864L133.396 44.1242C133.565 43.5875 133.734 43.5033 134.383 43.5033H138.306C139.096 43.5033 139.181 43.5875 139.379 44.1524L140.535 47.6828C140.733 48.3037 140.874 48.7844 140.874 49.0666C140.874 49.3211 140.507 49.4908 139.971 49.5467L139.209 49.6315C139.04 49.7729 139.04 50.1682 139.265 50.2813C140.028 50.253 141.015 50.1965 142.257 50.1965C143.414 50.1965 144.345 50.2248 145.389 50.2813C145.531 50.1682 145.558 49.7729 145.389 49.6315L144.684 49.5184ZM137.967 42.4293H134.778C134.044 42.4293 134.016 42.4017 134.242 41.8085L135.879 37.2896C136.162 36.4984 136.415 35.8775 136.5 35.7644H136.556C136.725 36.0749 136.952 36.7812 137.149 37.4027L138.56 41.6388C138.786 42.3451 138.729 42.4293 137.967 42.4293ZM139.04 20.7675C139.04 20.3433 139.209 19.6376 140.253 19.6376C141.212 19.6376 141.495 20.2585 141.636 20.7957L141.664 20.824C141.692 20.8806 141.749 20.8806 141.833 20.8806C141.918 20.8806 142.031 20.8523 142.088 20.7675C142.088 20.3156 142.003 19.6941 141.89 19.4114L141.861 19.3554H141.805C141.721 19.3554 141.579 19.3271 141.438 19.2989C141.185 19.2423 140.761 19.1575 140.422 19.1575C139.039 19.1575 138.137 19.948 138.137 21.1062C138.137 22.0947 138.899 22.7444 139.35 23.0549L140.366 23.7329C141.128 24.2124 141.213 24.7214 141.213 25.1732C141.213 25.7382 140.818 26.3314 139.943 26.3314C138.842 26.3314 138.362 25.4837 138.165 24.778V24.7497C138.137 24.6931 138.08 24.6649 137.995 24.6649C137.951 24.6626 137.907 24.6719 137.868 24.6917C137.828 24.7115 137.794 24.7413 137.77 24.778L137.741 24.8062V24.8345C137.77 25.314 137.911 26.1334 138.052 26.3879V26.4156H138.08C138.306 26.5287 138.898 26.8398 139.801 26.8398C141.241 26.8398 142.2 25.9921 142.2 24.7497C142.2 23.8743 141.749 23.168 140.817 22.603L139.943 22.0664C139.604 21.8408 139.039 21.389 139.039 20.7675H139.04ZM136.302 26.6984C136.359 26.6701 136.387 26.5853 136.359 26.5287C136.359 26.4722 136.302 26.4156 136.274 26.3873H136.246C135.992 26.3597 135.738 26.2748 135.54 26.1052C134.807 25.4843 134.214 24.5517 133.368 23.2528C133.311 23.168 133.311 23.1114 133.311 23.1114C133.678 22.97 134.694 22.4334 134.694 21.2476C134.694 20.3439 134.186 19.8921 133.762 19.6659C133.226 19.3831 132.521 19.3271 131.928 19.3271C130.941 19.3271 130.178 19.3554 129.501 19.4114H129.473C129.439 19.4323 129.411 19.4614 129.391 19.496C129.372 19.5306 129.361 19.5695 129.36 19.6093C129.36 19.6941 129.389 19.779 129.445 19.8355H129.473L129.84 19.8921C130.207 19.948 130.235 20.0046 130.235 21.0785V24.9759C130.235 26.1334 130.207 26.19 129.671 26.2466L129.36 26.2748L129.332 26.3031C129.275 26.3879 129.275 26.4722 129.275 26.557C129.304 26.6418 129.332 26.6984 129.389 26.6984H129.445C129.925 26.6701 130.32 26.6701 130.799 26.6701C131.251 26.6701 131.618 26.6701 132.098 26.6984H132.154C132.238 26.6701 132.267 26.557 132.267 26.5004C132.265 26.422 132.245 26.345 132.21 26.2748L132.182 26.2466L131.928 26.2183C131.364 26.1334 131.364 26.1052 131.364 24.947V23.5915C131.364 23.4501 131.364 23.4502 131.787 23.4502C132.21 23.4502 132.352 23.5633 132.492 23.7612C132.662 23.9868 132.859 24.2979 133.029 24.6083C133.226 24.9187 133.395 25.2015 133.537 25.3988C134.271 26.4722 134.835 26.8115 135.851 26.8115C135.992 26.7549 136.161 26.7267 136.302 26.6984ZM133.057 22.6596C132.747 22.8858 132.323 22.9135 131.985 22.9135C131.505 22.9135 131.335 22.8858 131.307 22.8858V20.0329C131.307 19.779 131.307 19.779 131.928 19.779C133.141 19.779 133.565 20.6261 133.565 21.3607C133.565 21.9816 133.395 22.3774 133.057 22.6596ZM127.441 25.0884V25.0319C127.384 24.9187 127.272 24.8905 127.187 24.8905C127.131 24.8905 127.074 24.9187 127.046 24.9187L127.018 24.947C126.708 25.5685 126.426 25.8796 126.284 25.9638C126.059 26.0769 125.72 26.1052 124.93 26.1052C124.026 26.1052 123.801 25.9921 123.688 25.8796C123.547 25.7099 123.49 25.3712 123.49 24.8062V23.3094C123.49 23.1114 123.49 23.1114 123.773 23.1114H124.394C124.76 23.1114 125.042 23.1114 125.211 23.168C125.353 23.1963 125.438 23.3094 125.494 23.5067L125.578 23.9309L125.607 23.9585C125.635 24.0151 125.72 24.0434 125.805 24.0434C125.917 24.0434 125.974 24.0151 126.03 23.9303V23.8743C126.03 23.7612 126.03 23.6198 126.002 23.4784C126.002 23.2811 125.974 23.0549 125.974 22.8293C125.974 22.603 125.974 22.3774 126.002 22.1795C126.002 22.0098 126.03 21.8691 126.03 21.7553V21.6994C126.002 21.6428 125.917 21.5863 125.805 21.5863C125.72 21.5863 125.635 21.6146 125.607 21.6711L125.494 22.1512C125.438 22.4051 125.381 22.434 125.296 22.4617C125.184 22.4899 124.845 22.5182 124.393 22.5182H123.772C123.49 22.5182 123.49 22.5182 123.49 22.2926V20.1742C123.49 19.8355 123.49 19.8355 123.744 19.8355H124.535C124.986 19.8355 125.353 19.8355 125.578 19.8921C126.058 20.0046 126.171 20.3156 126.312 20.7957L126.341 20.8523L126.369 20.8806C126.397 20.9365 126.481 20.9365 126.538 20.9365C126.621 20.9389 126.702 20.9086 126.764 20.8523L126.792 20.824L126.764 20.6544C126.708 20.0335 126.651 19.4962 126.595 19.3265L126.566 19.2423L126.481 19.2706C126.369 19.2989 125.692 19.2989 125.043 19.2989H123.011C122.587 19.2989 122.248 19.2989 121.741 19.2706H121.684C121.653 19.2942 121.627 19.3238 121.608 19.3577C121.588 19.3917 121.576 19.4291 121.572 19.4679C121.572 19.5528 121.6 19.6376 121.656 19.6659L121.854 19.6941C122.418 19.7507 122.446 19.8355 122.446 20.9648V24.8622C122.446 26.0486 122.39 26.0769 121.854 26.1334L121.458 26.1617L121.43 26.19C121.374 26.2466 121.345 26.3597 121.374 26.4156C121.374 26.5004 121.43 26.557 121.487 26.5853H121.543C122.164 26.557 122.559 26.557 123.011 26.557H123.999C124.93 26.557 125.889 26.557 126.905 26.5853H126.962L126.99 26.5287C127.102 26.3314 127.384 25.4837 127.441 25.0884ZM120.019 19.6941C120.076 19.6376 120.076 19.5245 120.076 19.4679C120.076 19.3837 120.019 19.3265 119.991 19.2989H119.935C119.568 19.3271 119.229 19.3271 118.891 19.3271C118.467 19.3271 118.044 19.3271 117.761 19.2989H117.705C117.671 19.3198 117.643 19.3488 117.624 19.3832C117.604 19.4177 117.593 19.4565 117.592 19.4962C117.592 19.581 117.621 19.6659 117.677 19.7224L117.705 19.7507L117.931 19.779C118.298 19.8355 118.354 19.8921 118.354 19.8921C118.354 19.9763 118.354 20.0611 118.27 20.2874C118.072 20.7668 117.564 22.0098 117.254 22.7155C117.169 22.9135 117.085 23.1397 116.971 23.3942C116.757 23.9169 116.532 24.4346 116.295 24.947C115.786 23.7606 115.306 22.5748 114.827 21.389C114.516 20.5978 114.319 20.0329 114.291 19.8921C114.319 19.8638 114.403 19.8073 114.714 19.779L114.912 19.7507L114.94 19.7224C114.996 19.6608 115.027 19.5797 115.024 19.4962C115.023 19.4565 115.013 19.4177 114.993 19.3832C114.973 19.3488 114.945 19.3198 114.912 19.2989H114.855C114.376 19.3271 113.98 19.3271 113.557 19.3271C113.106 19.3271 112.767 19.3271 112.428 19.2989H112.4L112.372 19.3271C112.338 19.3481 112.31 19.3771 112.29 19.4115C112.271 19.446 112.26 19.4848 112.259 19.5245C112.259 19.6093 112.287 19.6941 112.343 19.7224L112.372 19.7507L112.597 19.779C113.021 19.8355 113.162 20.0329 113.416 20.6261L115.279 25.2857C115.504 25.8513 115.673 26.3308 115.786 26.7267V26.7549L115.815 26.7832C115.871 26.8115 115.956 26.8115 116.012 26.8115C116.069 26.8115 116.125 26.7832 116.182 26.7549L116.209 26.7267V26.6984C116.407 26.1052 116.915 24.8345 117.339 23.8743L117.931 22.5465C118.439 21.4166 118.862 20.5412 119.145 20.0611C119.286 19.8355 119.427 19.7507 119.652 19.7224L120.019 19.6941ZM112.936 34.8042C110.961 36.3288 109.662 38.8147 109.662 41.6954C109.662 45.0561 111.271 47.4283 113.359 48.841C115.25 50.1116 117.479 50.5917 119.821 50.5917C121.487 50.5917 123.349 50.1965 123.942 49.9985C124.224 49.886 124.535 49.8012 124.845 49.7446C125.24 49.2363 125.917 47.5415 126.087 46.1854C125.974 46.0163 125.578 45.9597 125.409 46.0729C124.817 47.598 123.321 49.8012 119.963 49.8012C115.702 49.8012 112.231 46.7792 112.231 41.3284C112.231 35.9335 115.617 33.4199 119.596 33.4199C123.378 33.4199 124.535 35.4534 124.93 37.233C125.099 37.4027 125.494 37.3744 125.635 37.1765C125.438 35.5948 125.297 33.9565 125.268 33.3639C125.042 33.3922 124.845 33.3356 124.535 33.2508C123.321 32.9115 121.345 32.6293 119.935 32.6293C117.254 32.5728 114.827 33.3074 112.936 34.8042ZM109.606 24.9194V21.0496C109.606 19.8632 109.634 19.779 110.198 19.7507L110.481 19.7224H110.509C110.565 19.6941 110.594 19.6093 110.594 19.5245C110.594 19.4962 110.565 19.3554 110.481 19.3271H110.425C109.916 19.3554 109.521 19.3554 109.098 19.3554C108.619 19.3554 108.252 19.3554 107.744 19.3271H107.687C107.656 19.3507 107.63 19.3803 107.61 19.4142C107.591 19.4481 107.579 19.4856 107.574 19.5245C107.574 19.6093 107.602 19.6941 107.659 19.7224H107.687L107.969 19.7507C108.505 19.8073 108.562 19.8921 108.562 21.0496V24.9187C108.562 26.0769 108.534 26.1334 107.969 26.2183L107.659 26.2466L107.631 26.2748C107.574 26.3314 107.546 26.4439 107.574 26.5004C107.574 26.5853 107.631 26.6418 107.687 26.6701H107.744C108.308 26.6418 108.647 26.6418 109.098 26.6418C109.522 26.6418 109.888 26.6418 110.425 26.6701H110.481C110.512 26.6465 110.538 26.6168 110.558 26.5828C110.577 26.5487 110.589 26.5111 110.594 26.4722C110.594 26.3879 110.565 26.3031 110.509 26.2748L110.198 26.2183C109.634 26.1334 109.606 26.0775 109.606 24.9194ZM104.188 46.2136V36.9509C104.188 34.1833 104.244 33.7598 105.768 33.619L106.417 33.5619C106.586 33.4487 106.53 32.9969 106.361 32.9121C105.062 32.9686 104.188 32.9969 103.144 32.9969C102.043 32.9969 101.168 32.9686 99.8704 32.9121C99.7007 32.9969 99.6724 33.4487 99.8138 33.5619L100.463 33.6184C101.987 33.7598 102.043 34.1833 102.043 36.9509V46.2149C102.043 48.9824 101.987 49.35 100.463 49.519L99.8138 49.6039C99.6441 49.7735 99.7007 50.1688 99.8704 50.2536C101.168 50.1971 102.043 50.1688 103.144 50.1688C104.188 50.1688 105.062 50.1971 106.361 50.2536C106.53 50.1688 106.558 49.717 106.417 49.6039L105.768 49.519C104.244 49.35 104.188 48.9824 104.188 46.2149L104.188 46.2136ZM105.514 19.6941C105.571 19.6376 105.599 19.5528 105.571 19.4679C105.57 19.4319 105.559 19.397 105.539 19.367C105.519 19.3371 105.491 19.3135 105.458 19.2989L105.429 19.2706H105.401C105.035 19.2989 104.752 19.2989 104.301 19.2989C103.905 19.2989 103.567 19.2989 103.031 19.2706H102.974C102.941 19.2853 102.913 19.309 102.894 19.3389C102.874 19.3688 102.863 19.4037 102.862 19.4396C102.847 19.4855 102.847 19.5349 102.862 19.5806C102.877 19.6264 102.907 19.6661 102.946 19.6941L102.974 19.7224L103.172 19.7507C103.538 19.8073 103.736 19.8638 103.793 19.9197C103.934 20.1177 103.99 20.9365 103.99 22.1229V24.7497C103.623 24.3544 103.228 23.9303 102.72 23.3659L101.225 21.6711C100.153 20.4564 99.5316 19.6659 99.3903 19.3271L99.362 19.2706H99.306C99.1647 19.2989 98.9956 19.2989 98.8266 19.2989C98.6286 19.2989 98.0643 19.2989 97.6125 19.2706H97.5559C97.4994 19.2989 97.4717 19.3554 97.4434 19.4396C97.4305 19.4833 97.4289 19.5296 97.4387 19.5741C97.4485 19.6186 97.4693 19.6599 97.4993 19.6941L97.5276 19.7224L97.7538 19.7507C98.036 19.779 98.2616 19.8638 98.3747 19.9763C98.5714 20.2025 98.6003 20.4005 98.6003 20.7109V23.9303C98.6003 24.4669 98.6003 25.6816 98.4589 26.0203C98.4307 26.0769 98.3464 26.1617 98.036 26.19L97.7256 26.2183L97.6973 26.2466C97.6407 26.3031 97.6125 26.3597 97.6407 26.4439C97.669 26.5287 97.6973 26.5853 97.7256 26.6418L97.7538 26.6701H97.7821C98.1485 26.6418 98.4589 26.6418 98.9108 26.6418C99.2778 26.6418 99.6441 26.6418 100.181 26.6701H100.209L100.237 26.6418C100.293 26.6136 100.322 26.557 100.322 26.4722C100.322 26.3879 100.322 26.3031 100.265 26.2466L100.237 26.2183L99.8704 26.19C99.6159 26.1617 99.4185 26.1052 99.3909 26.0203C99.2778 25.823 99.1929 25.0036 99.1929 23.8178V21.4449C99.1929 21.2476 99.1929 21.0496 99.2212 20.9082C99.3903 21.1062 99.6724 21.4449 99.9263 21.756C100.096 21.9533 100.265 22.1512 100.378 22.2926L102.89 25.145C103.736 26.1052 104.132 26.557 104.272 26.7832L104.301 26.8115H104.357C104.499 26.8115 104.611 26.7549 104.639 26.6418V26.5853C104.611 26.4722 104.611 26.0203 104.611 24.6931V21.9533C104.611 21.389 104.611 20.2308 104.753 19.8921C104.753 19.8638 104.893 19.779 105.289 19.7224L105.514 19.6941ZM95.8064 19.6941C95.8629 19.6376 95.8912 19.5528 95.8629 19.4679C95.8629 19.4114 95.8064 19.3554 95.7498 19.2989H95.6933C95.3269 19.3271 95.0165 19.3271 94.5646 19.3271C94.1417 19.3271 93.7464 19.3271 93.3229 19.2989H93.2946L93.2669 19.3271C93.2104 19.3554 93.1821 19.4114 93.1821 19.4962C93.1821 19.581 93.1821 19.6659 93.2386 19.7224L93.2669 19.7507L93.5774 19.779C93.8313 19.8073 94.0003 19.8638 94.0569 19.9763C94.17 20.2025 94.2542 20.9931 94.2542 22.1795V23.4219C94.2542 24.6931 93.8872 26.2183 92.1659 26.2183C90.7269 26.2183 90.0494 25.3146 90.0494 23.3942V21.0496C90.0494 19.8921 90.0777 19.8073 90.6138 19.779L90.8965 19.7507H90.9242C90.9807 19.7224 91.009 19.6376 91.009 19.5528C91.009 19.4679 90.9807 19.3837 90.8959 19.3554H90.84C90.3316 19.3837 89.9646 19.3837 89.5134 19.3837C89.0616 19.3837 88.6952 19.3837 88.1868 19.3554H88.1309C88.046 19.3837 88.0177 19.4968 88.0177 19.5528C88.0177 19.6376 88.046 19.7224 88.1026 19.7507H88.1309L88.413 19.779C88.9491 19.8355 88.9773 19.9204 88.9773 21.0496V23.6198C88.9773 24.9187 89.2595 25.7382 89.8521 26.2466C90.3316 26.6418 91.0373 26.8674 91.9403 26.8674C92.7868 26.8674 93.605 26.557 94.0569 26.0486C94.5929 25.4837 94.8468 24.6083 94.8468 23.3942V22.1795C94.8468 21.6428 94.8468 20.3439 94.9882 20.0046C95.0447 19.8921 95.2138 19.8073 95.4677 19.779L95.8064 19.6941ZM83.3612 33.5612C83.5308 33.4481 83.4743 32.9963 83.3052 32.9115C82.1759 32.968 81.3012 32.9963 80.2857 32.9963C79.1564 32.9963 78.2816 32.9397 77.0116 32.9115C76.8426 32.9963 76.8149 33.4481 76.9557 33.5612L77.6325 33.6178C78.9873 33.7309 79.157 34.1545 79.157 36.8943V46.2708C79.157 49.01 79.1005 49.2645 77.6608 49.5184L77.2095 49.6033C77.0399 49.7729 77.0964 50.1682 77.2661 50.253C78.2816 50.2248 79.1564 50.1682 80.2857 50.1682C81.3012 50.1682 82.176 50.1965 83.5868 50.253C83.7564 50.1682 83.7847 49.7164 83.6433 49.6033L82.8817 49.5184C81.4143 49.3494 81.3018 49.01 81.3018 46.2708V42.599C81.3018 41.8085 81.3577 41.7802 82.5989 41.7802H90.0211C91.2629 41.7802 91.3195 41.8367 91.3195 42.599V46.2708C91.3195 49.01 91.3195 49.2645 89.7396 49.5184L89.2312 49.6033C89.0616 49.7729 89.1181 50.1682 89.2878 50.253C90.3309 50.198 91.3753 50.1698 92.4198 50.1682C93.436 50.1682 94.3107 50.1965 95.5525 50.253C95.7215 50.1682 95.7498 49.7164 95.609 49.6033L94.9882 49.5184C93.4925 49.3494 93.436 49.01 93.436 46.2708V36.8943C93.436 34.1545 93.4925 33.7592 94.9882 33.6178L95.5242 33.5612C95.6933 33.4481 95.6373 32.9963 95.4677 32.9115C94.4432 32.9661 93.4175 32.9943 92.3916 32.9963C91.3195 32.9963 90.4447 32.968 89.2595 32.9115C89.0898 32.9963 89.0616 33.4481 89.2029 33.5612L89.7107 33.6178C91.2352 33.7875 91.2912 34.1545 91.2912 36.8943V39.8881C91.2912 40.7069 91.2346 40.7069 89.9929 40.7069H82.5712C81.3295 40.7069 81.2729 40.6786 81.2729 39.8881V36.8943C81.2729 34.1545 81.3295 33.7592 82.8251 33.6178L83.3612 33.5612ZM82.3173 25.0884V25.0319C82.2608 24.9187 82.1477 24.8905 82.0635 24.8905C82.0069 24.8905 81.9503 24.9187 81.9221 24.9187L81.8938 24.947C81.5834 25.5685 81.3012 25.8796 81.1604 25.9638C80.9342 26.0769 80.5961 26.1052 79.8056 26.1052C78.9025 26.1052 78.6769 25.9921 78.5638 25.8796C78.4224 25.7099 78.3947 25.3712 78.3947 24.8062V23.3094C78.3947 23.1114 78.3947 23.1114 78.6769 23.1114H79.2978C79.6648 23.1114 79.9469 23.1114 80.116 23.168C80.2574 23.1963 80.3416 23.3094 80.3988 23.5067L80.483 23.9309L80.5113 23.9585C80.5395 24.0151 80.6238 24.0434 80.7086 24.0434C80.8217 24.0434 80.8783 24.0151 80.9342 23.9303V23.8743C80.9342 23.7612 80.9342 23.6198 80.9065 23.4784C80.9065 23.2811 80.8783 23.0549 80.8783 22.8293C80.8783 22.603 80.8783 22.3774 80.9065 22.1795C80.9065 22.0098 80.9342 21.8691 80.9342 21.7553V21.6994C80.9065 21.6428 80.8217 21.5863 80.7086 21.5863C80.6238 21.5863 80.5395 21.6146 80.5113 21.6711L80.3981 22.1512C80.3416 22.4051 80.2857 22.434 80.2008 22.4617C80.0877 22.4899 79.749 22.5182 79.2972 22.5182H78.6763C78.3947 22.5182 78.3947 22.5182 78.3947 22.2926V20.1742C78.3947 19.8355 78.3947 19.8355 78.6486 19.8355H79.4386C79.8904 19.8355 80.2574 19.8355 80.483 19.8921C80.9907 20.0046 81.0756 20.3156 81.2164 20.7957L81.2446 20.8523L81.2729 20.8806C81.3012 20.9365 81.386 20.9365 81.4426 20.9365C81.5259 20.9389 81.6068 20.9086 81.6682 20.8523L81.6965 20.824L81.6682 20.6544C81.6116 20.0335 81.5551 19.4962 81.4991 19.3265L81.4143 19.2706L81.3295 19.2989C81.2164 19.3271 80.5395 19.3271 79.8904 19.3271H77.8587C77.4351 19.3271 77.0964 19.3271 76.5887 19.2989H76.5321C76.5009 19.3224 76.4748 19.352 76.4553 19.3859C76.4359 19.4199 76.4235 19.4574 76.419 19.4962C76.419 19.581 76.4473 19.6659 76.5038 19.6941L76.7012 19.7224C77.2661 19.779 77.2938 19.8638 77.2938 20.9931V24.8905C77.2938 26.0769 77.2378 26.1052 76.7012 26.1617L76.3065 26.19L76.2782 26.2183C76.2217 26.2748 76.1934 26.3879 76.2217 26.4439C76.2217 26.5287 76.2782 26.5853 76.3348 26.6136H76.3907C77.0116 26.5853 77.4069 26.5853 77.8587 26.5853H78.846C79.7773 26.5853 80.7369 26.5853 81.753 26.6136H81.8096L81.8372 26.557C81.9503 26.3314 82.2325 25.4837 82.3167 25.0884H82.3173ZM73.2587 24.9187V21.0213C73.2587 19.8638 73.2869 19.8073 73.823 19.7507L74.0486 19.7224L74.0769 19.6941C74.1334 19.6659 74.1617 19.581 74.1617 19.4962C74.1617 19.4679 74.1334 19.3271 74.0486 19.2989H73.992C73.456 19.3271 73.1173 19.3271 72.7226 19.3271C72.2431 19.3271 71.8755 19.3271 71.4243 19.2989H71.3678C71.3366 19.3225 71.3106 19.3521 71.2913 19.386C71.272 19.4199 71.2597 19.4574 71.2553 19.4962C71.2553 19.581 71.2829 19.6659 71.3395 19.6941L71.5934 19.7224C72.1583 19.779 72.186 19.8638 72.186 20.9931V22.2361C72.186 22.4899 72.186 22.4899 71.7347 22.4899H68.6304C68.1791 22.4899 68.1791 22.4899 68.1791 22.2361V20.9931C68.1791 19.8355 68.2074 19.779 68.7435 19.7224L68.9408 19.6941L68.9691 19.6659C69.0256 19.6376 69.0539 19.5528 69.0539 19.4679C69.0539 19.4396 69.0256 19.2989 68.9408 19.2706H68.8842C68.4048 19.2989 68.0378 19.2989 67.6425 19.2989C67.3603 19.2989 67.1064 19.2989 66.8526 19.2706C66.6835 19.2706 66.4856 19.2706 66.2882 19.2423H66.2317C66.1751 19.3271 66.1751 19.4679 66.1751 19.4962C66.1751 19.581 66.2034 19.6659 66.26 19.6941H66.2882L66.5987 19.7224C67.0782 19.7507 67.163 19.8638 67.163 20.9931V24.8905C67.163 26.0203 67.1347 26.0769 66.5987 26.1617L66.4013 26.19L66.3731 26.2183C66.3165 26.2748 66.2882 26.3879 66.3165 26.4439C66.3165 26.5287 66.3731 26.5853 66.4296 26.6136H66.9091C67.163 26.6136 67.4169 26.5853 67.7273 26.5853C68.1226 26.5853 68.4896 26.5853 69.1105 26.6136H69.1664C69.2512 26.5853 69.2795 26.4722 69.2795 26.4156C69.2795 26.3314 69.2512 26.2466 69.1947 26.2183L68.8566 26.1617C68.3482 26.1052 68.2634 26.0486 68.2634 24.8911V23.3659C68.2634 23.1114 68.2634 23.1114 68.7152 23.1114H71.8196C72.2708 23.1114 72.2708 23.1114 72.2708 23.3659V24.8905C72.2708 26.0486 72.2708 26.0769 71.6782 26.1617L71.4526 26.19L71.4243 26.2183C71.3678 26.2748 71.3395 26.3879 71.3678 26.4439C71.3678 26.5287 71.4243 26.5853 71.4809 26.6136H71.5374C72.0452 26.5853 72.4405 26.5853 72.8351 26.5853C73.2587 26.5853 73.6257 26.5853 74.1334 26.6136H74.19C74.2212 26.5899 74.2472 26.5602 74.2665 26.5261C74.2859 26.4921 74.2981 26.4545 74.3025 26.4156C74.3025 26.3314 74.2748 26.2466 74.2183 26.2183L73.9355 26.1617C73.2869 26.1334 73.2587 26.0769 73.2587 24.9187ZM64.3408 19.1575V19.1292L64.3131 19.1009C64.2848 19.0161 64.1434 19.0161 64.1152 19.0161C64.0869 19.0161 64.0586 19.0161 64.0027 19.0444H63.9744L63.9461 19.0726C63.8047 19.3271 63.7482 19.3271 63.1838 19.3271H58.6969C58.2174 19.3271 57.9912 19.2989 57.9635 19.0726V19.0444L57.9353 19.0161C57.8966 18.9806 57.8463 18.9605 57.7939 18.9595C57.7656 18.9595 57.6814 18.9595 57.6248 18.9878L57.5965 19.0161V19.0444C57.5117 19.4685 57.3709 20.1742 57.2013 20.6544V20.6826L57.2296 20.7109C57.2861 20.8523 57.5123 20.9082 57.6248 20.824H57.6531V20.7957C57.7656 20.5412 57.8787 20.3156 58.1326 20.0611C58.3582 19.8355 58.9225 19.8073 59.4026 19.8073H59.9952C60.2491 19.8073 60.2491 19.8073 60.2491 20.0611V24.9187C60.2491 26.1052 60.1926 26.1334 59.6565 26.19L59.2612 26.2183H59.233C59.177 26.2466 59.1205 26.3314 59.1487 26.4439C59.1487 26.5287 59.177 26.6136 59.2612 26.6418H59.3178C59.9952 26.6136 60.3905 26.6136 60.8134 26.6136C61.237 26.6136 61.5757 26.6136 62.2242 26.6418H62.2808C62.3656 26.6136 62.3939 26.5004 62.3939 26.4439C62.3939 26.3597 62.3656 26.2748 62.3091 26.2466L61.9138 26.19C61.3778 26.1334 61.3495 26.0769 61.3495 24.9187V20.0611C61.3495 19.948 61.3495 19.8355 61.3778 19.8355C61.406 19.8073 61.5192 19.8073 61.604 19.8073H62.3656C62.9582 19.8073 63.3535 19.8921 63.5791 20.0611C63.6922 20.146 63.7764 20.3999 63.8047 20.7957V20.824L63.833 20.8523C63.8613 20.9082 63.9461 20.9365 64.0303 20.9365C64.1434 20.9365 64.2283 20.8806 64.2565 20.824V20.7675C64.1434 20.4564 64.2283 19.581 64.3408 19.1575ZM56.9757 41.6954C56.9757 45.0561 58.5844 47.4283 60.6727 48.841C62.563 50.1116 64.7926 50.5917 67.1347 50.5917C68.8 50.5917 70.662 50.1965 71.2553 49.9985C71.5374 49.886 71.8479 49.8012 72.1583 49.7446C72.553 49.2363 73.2304 47.5415 73.4001 46.1854C73.2869 46.0163 72.8917 45.9597 72.7226 46.0729C72.13 47.598 70.6344 49.8012 67.2761 49.8012C63.0148 49.8012 59.5434 46.7792 59.5434 41.3284C59.5434 35.9335 62.9306 33.4199 66.9091 33.4199C70.6903 33.4199 71.8479 35.4534 72.2425 37.233C72.4122 37.4027 72.8068 37.3744 72.9482 37.1765C72.7509 35.5948 72.6095 33.9565 72.5812 33.3639C72.3556 33.3922 72.1583 33.3356 71.8479 33.2508C70.6344 32.9115 68.6586 32.6293 67.2478 32.6293C64.5387 32.6293 62.1394 33.3639 60.2215 34.8325C58.274 36.3294 56.9757 38.8147 56.9757 41.6954ZM50.2026 37.2896V19.1569C35.6414 17.7448 24.6636 19.1569 24.6636 19.1569V37.289C25.8205 49.5744 37.3344 51.0147 37.4192 50.9864C39.5075 50.6477 49.1299 48.6996 50.2026 37.2896ZM28.7835 41.8079C29.0097 41.9775 29.2919 42.0341 29.5458 42.1472C29.8562 42.966 29.5458 43.7572 29.3761 43.4178C29.0657 42.8535 28.9249 42.3722 28.7835 41.8079ZM28.7835 32.9115C28.7552 32.8838 27.1471 33.9006 26.1033 33.4199C26.8649 32.9963 29.5458 31.3021 30.2791 30.822C30.6179 30.9062 30.7586 30.7654 30.8717 30.7089C30.5896 30.7372 29.6583 30.8786 30.1384 30.0308C30.3074 30.7654 31.6057 30.0874 32.0852 29.9743C33.3835 29.6638 33.3835 31.0759 33.2704 31.6408C33.2428 31.867 33.6657 32.0078 33.8913 31.9795C33.5249 32.8832 32.8758 32.0361 32.8192 32.3754C32.7909 32.5168 32.3674 32.6293 32.3674 32.968C32.3674 33.4481 32.5653 33.1942 32.5653 33.5612C32.5936 33.9282 32.4239 33.6461 32.4522 34.0413C32.5088 34.6628 33.5526 33.9565 33.9767 34.1262C34.2017 34.211 34.3431 34.409 34.5405 34.3524C34.597 34.2958 34.5687 34.0696 34.5687 33.9848C34.5405 33.7875 34.1735 33.7592 34.0044 33.5053C33.863 33.2791 34.1735 32.5728 34.3425 32.3471C34.597 33.5047 35.6697 33.1377 35.8388 34.3807C35.9519 34.7188 35.4718 35.1147 35.8388 35.6796C35.556 35.9624 35.2179 37.2896 35.8105 37.9111C35.6974 38.1932 35.5849 38.843 36.1209 39.2383C35.9519 39.6336 35.9795 40.0854 36.1209 40.5661C35.7828 40.5661 35.867 38.7016 33.863 38.6174C33.8071 38.5885 33.8071 38.843 33.863 38.9272C34.1175 39.3514 34.428 39.3231 34.3425 40.3116C34.3148 40.6503 34.1175 40.255 34.0044 40.1702C33.7505 39.944 33.5809 39.9157 33.4684 39.2383C32.6502 39.8881 32.7344 40.6503 32.7909 41.0456C32.7909 41.0456 32.6219 40.5661 32.3957 40.0571C32.3957 40.0288 33.2145 39.0121 33.3553 38.7865C35.0488 35.7362 32.2549 39.7749 32.2549 39.7467C32.1135 39.4073 31.9721 39.0969 31.8879 39.0121C31.9162 38.9838 32.3674 38.4471 32.5936 38.0236C33.8913 35.3126 31.8031 38.9272 31.7471 38.8713C31.5775 38.7299 31.4643 38.5602 31.3518 38.6168C31.3236 39.041 31.2387 38.9838 31.267 39.4073C31.0414 39.6901 30.5896 40.1702 30.2509 40.3964C30.2509 40.3964 30.1666 39.6336 30.1949 39.6053C30.364 39.4073 31.0125 38.7016 31.1262 38.5037C33.2704 35.1429 30.1101 39.3231 30.1101 39.2659C30.0818 39.1252 29.9128 38.8996 29.7431 38.7299C29.7431 38.7299 30.4488 37.7697 30.6179 37.4304C31.9162 34.7477 29.574 38.6168 29.5458 38.6168C29.4892 38.5602 29.4609 38.5602 29.4044 38.532C29.3478 38.5037 29.4892 37.7697 29.574 37.3179C29.7431 36.4142 29.2636 37.1482 29.1505 38.5602C29.0374 38.5885 28.7276 38.6168 28.6144 38.7016C28.6993 39.0686 28.7835 38.7865 28.9249 39.1534C29.1222 39.5776 28.671 40.3116 29.0663 40.8194C29.207 41.0173 29.2353 40.989 29.207 41.1304C28.9532 41.1021 28.8118 41.1021 28.6427 41.3001C28.3323 39.944 28.36 39.2948 28.4171 37.9105C28.4448 37.2896 28.6427 36.3294 28.5585 36.3294C28.5013 36.3011 27.0623 39.9723 26.7235 40.6786C26.1309 40.4807 27.0905 37.3179 28.3323 35.7927C28.4448 35.3126 27.6831 36.2722 27.2319 36.6681C26.8078 37.0351 26.2723 37.4869 25.7074 37.3179C26.4414 36.5267 28.1343 35.0581 28.3323 34.6911C28.5013 34.3807 27.1754 35.6796 25.7922 35.1995C26.6959 34.7477 28.7835 33.6744 28.7835 32.9115ZM31.2953 39.8026C31.2953 40.1419 31.267 40.3964 31.3801 40.7352C31.5492 41.2435 31.4643 41.1021 31.2387 40.9048C31.0697 40.7069 30.9006 40.5655 30.8158 40.3393C30.8158 40.1702 30.9283 40.1696 31.2953 39.8026ZM34.6536 31.556C34.4562 31.2173 34.9075 30.8786 34.9075 30.8786C34.9075 31.8388 36.1492 31.189 36.7984 31.4994C36.9674 31.5843 37.0522 31.6974 37.1365 31.867C36.4031 31.3587 35.1054 32.3465 34.6536 31.556ZM27.3438 23.7612C26.2434 23.7612 26.2717 22.0953 27.3438 22.0953C28.4442 22.0953 28.4442 23.7612 27.3438 23.7612ZM27.3438 27.0937C26.2152 27.0937 26.2152 25.4277 27.3438 25.4277C28.4442 25.4277 28.4442 27.0937 27.3438 27.0937ZM28.4724 22.5465H29.432V23.5067H28.4731L28.4724 22.5465ZM28.4724 25.8796H29.432V26.8398H28.4731L28.4724 25.8796ZM37.249 28.4774C37.249 28.4774 36.2334 27.9408 35.0482 27.8565C33.8907 27.7717 31.5768 28.7036 29.799 28.5905V20.7109C29.799 20.7109 31.8307 20.9937 32.6772 20.6544C35.5277 19.5528 37.2772 20.7957 37.2772 20.7957V28.4774H37.249ZM39.2247 29.7487C39.2813 30.0315 38.9985 30.1157 38.9985 30.1157C39.4226 30.2288 39.6194 29.9743 39.7042 29.8052C39.8739 30.4827 39.1682 30.5109 38.9708 30.5675C38.9708 30.5675 39.3089 30.6806 39.3372 30.9062C39.3938 31.4718 39.7607 31.4429 39.8456 31.3869C39.8456 31.4429 39.7042 31.8105 39.3089 31.4994C39.2247 31.556 39.422 31.6691 39.4503 31.9513C39.5069 32.3189 39.4786 32.6576 39.9015 32.8549C39.6476 33.0529 39.3372 32.5168 39.3089 32.601C39.2813 32.6859 39.6759 32.8555 39.253 33.8723C39.055 33.7592 39.1681 33.7875 38.9425 33.5047C38.7729 33.3633 38.7163 33.3356 38.8577 33.5612C39.1116 33.8723 39.1681 34.578 39.0833 34.776C38.886 34.6911 38.9419 34.5215 38.688 34.2958C38.6604 34.3807 38.7729 34.8608 39.0268 35.0864C39.4503 35.4817 39.6194 35.9618 39.6194 36.0466C39.6476 36.4136 39.5351 36.866 39.5069 37.3461C39.3089 37.3179 39.1116 36.7246 39.0833 36.7529C39.0268 36.7812 39.1116 37.3461 39.5069 37.7131C39.7042 38.2781 39.6194 38.5602 39.5634 38.5885C39.5069 38.6168 39.2806 38.0236 39.1682 38.1367C39.7325 39.5487 39.3372 40.0571 39.1964 40.5095C39.0833 40.0571 39.0268 39.7184 38.886 39.21C38.5756 39.4356 38.519 39.8032 38.1237 40.1419C38.1237 39.5487 37.7856 38.165 37.5311 37.8262C37.5311 37.798 37.0516 39.0686 36.826 39.6618C36.5433 40.3964 36.5156 41.3001 36.826 42.0347C36.1486 41.0456 36.0638 39.21 36.6564 38.9838C36.7129 38.8424 36.6281 38.4188 36.4873 38.4754C36.459 38.6733 36.4873 38.8713 36.2894 39.0686C35.8382 38.9272 36.0355 38.3629 36.0927 38.1932C36.6846 37.4869 36.3176 37.3179 36.2894 37.3461C36.2334 37.5152 36.1769 37.7131 35.9789 37.7697C35.6125 37.1199 35.8375 36.0749 36.5721 35.3126C36.5998 35.0298 36.2617 35.5382 36.0072 35.5099C35.9513 34.945 36.1486 34.0131 37.1647 33.9565C36.9668 33.9006 36.8543 33.8723 36.826 33.7026C37.1365 33.6461 38.0954 33.5895 37.9547 32.8273C37.8698 32.9115 37.8416 33.0529 37.5877 33.2225C37.4186 33.3356 37.2207 33.3356 37.1365 33.1942C37.5877 33.0529 37.4469 32.4879 36.8537 32.6576C36.6846 32.7141 36.4025 32.5162 36.4025 32.3189C36.5439 32.4603 36.7977 32.3471 36.9385 32.2623C37.5877 31.8382 38.0112 32.4596 38.0954 32.601C38.1237 32.601 38.3782 31.9802 37.4469 31.8105C37.3621 31.5843 37.1641 31.2173 36.5156 31.2449C36.3176 30.5109 35.6691 30.8786 35.6968 31.2173C35.0199 30.7089 35.6968 30.0874 35.9795 30.0026C36.1763 30.0308 36.1203 30.6241 36.459 30.5109C36.5439 30.4827 36.2051 30.0874 36.3176 29.9177C36.6281 29.7487 36.6281 30.144 36.7695 30.0026C36.8543 29.7487 37.1365 29.6073 37.3903 29.579C38.0395 29.3534 38.5755 30.1157 39.2247 29.7487ZM45.4046 28.5905C43.909 28.6754 40.8328 27.8283 40.0429 27.8283C38.4059 27.8283 37.6442 28.4491 37.6442 28.4491V20.7957C37.6442 20.7957 39.789 19.8073 41.3412 20.3716C43.2315 21.0785 45.4329 20.7675 45.4329 20.7675L45.4046 28.5905ZM47.3803 25.5685C48.1985 25.4554 48.3393 26.4156 48.3393 26.4156C48.1426 26.2466 47.7184 26.19 47.4646 26.3597C46.5332 26.9523 45.715 26.9523 45.715 26.9523V25.4554C45.6868 25.4837 45.8564 25.7947 47.3803 25.5685ZM48.3676 23.535C48.3676 23.4784 48.3393 23.4219 48.3393 23.3377C48.3117 23.1963 47.8881 23.1114 47.6059 23.2245C47.1824 23.4219 46.1386 24.0151 45.7433 23.902V22.4051C46.7023 22.8293 47.0699 22.4334 47.3803 22.4334C48.3117 22.4334 48.3676 23.3094 48.3676 23.3094C48.3393 23.4219 48.3393 23.4784 48.3676 23.535ZM47.2955 38.9278C47.0127 39.0121 46.2794 39.2948 46.1103 39.577C46.1951 37.9953 45.6868 36.4419 45.5177 36.0749C45.2073 35.3409 45.6591 37.7697 45.6868 38.3346C45.6868 38.3629 43.0625 34.945 44.6429 37.5724C45.0659 38.2498 45.6868 38.7016 45.6868 38.7016C45.6868 39.1811 45.6585 39.5204 45.5743 39.7749C45.4046 39.9163 41.9904 35.2278 43.8807 38.4754C44.1069 38.8713 45.4894 40.086 45.4612 40.1137C45.3501 40.3551 45.1974 40.5751 45.0099 40.7634C44.9817 40.7351 44.2194 40.1702 44.2194 40.1419C44.1628 39.7749 44.1628 39.4356 43.7116 39.6901C43.7116 39.6901 42.018 37.7414 42.808 39.0969C43.1473 39.6901 43.3729 39.7749 43.4577 39.8592C43.4577 39.8592 43.2039 40.2268 43.119 40.5938C43.0907 40.7351 41.6517 39.0121 42.2154 40.1143C42.385 40.4524 43.0342 40.8483 43.0342 40.8765C42.9813 41.0781 42.9154 41.2761 42.8369 41.4691C42.752 41.6388 41.482 42.6556 41.5103 42.6556C41.5103 42.6556 41.7642 41.865 42.3008 41.4691C42.6106 41.2435 42.6106 41.3001 42.8086 41.1587C42.8086 41.0456 42.6955 40.8483 42.5547 40.7917C42.385 40.7351 41.7924 40.8483 41.7924 40.8483C41.849 40.5655 41.5951 39.9157 41.5951 39.21C41.3695 39.2383 40.9742 39.577 40.8894 39.7749C40.8328 40.9325 40.579 40.5938 40.3251 41.4409C40.0712 41.1028 40.3534 40.5938 40.0995 40.2544C39.7608 39.8032 39.7042 39.4922 39.6476 38.9272C39.7325 38.8713 40.0712 38.5037 39.7607 37.6566C39.7042 36.3577 40.2968 35.8775 39.253 34.9733C39.3372 34.945 39.3944 34.2958 39.3944 34.2958C40.156 34.6911 40.0152 33.8157 40.2968 33.6461C40.7763 33.3633 40.6921 33.0811 40.4665 32.7424C41.8207 33.1377 40.4099 34.0413 41.0025 34.0702C41.4537 34.0702 41.7359 33.9848 41.9338 33.6744C42.1312 33.3639 41.9055 33.166 42.4699 32.6576C42.5264 32.601 42.6672 32.2623 42.216 32.1775C42.1029 32.1492 42.216 31.7822 42.216 31.7822C41.849 32.0926 41.7365 32.5162 41.1716 32.234C40.8611 32.0926 40.6921 32.234 40.5507 32.2906C40.5507 32.2906 40.4947 32.0361 40.7486 31.9513C41.3978 31.7257 41.5386 31.4718 41.5109 31.3587C41.4254 31.0193 41.3978 31.3587 41.4254 31.0193C41.4254 30.8779 41.5951 30.6806 41.7359 30.5398C42.1594 30.0308 42.4699 30.2005 42.583 30.2571C42.8369 30.0591 42.8651 30.0874 43.119 29.9743C43.5137 29.8052 44.3891 30.0874 44.8685 30.3136C45.0942 30.4261 45.3763 30.4827 45.6585 30.4261C45.6585 30.5675 45.546 30.6523 45.4612 30.6806C45.3198 30.7372 45.1231 30.6806 45.1507 30.7937C45.1507 30.8503 45.3763 30.8786 45.4888 30.9062C46.1951 31.1042 47.1265 31.7539 46.5339 31.6132C46.449 31.5843 46.9851 32.0078 47.3514 32.5168L48.7063 33.844C48.6498 33.9282 48.1703 33.844 46.647 32.4314C46.4207 32.6293 48.4807 34.1827 49.3555 35.821C49.2706 35.8775 48.2268 35.4817 47.8316 35.0864C47.239 34.4655 46.5615 32.9115 46.2794 33.1377C46.2511 33.1377 47.4086 34.945 47.9729 36.0183C48.2551 36.555 48.509 37.3179 48.509 37.9105C48.5938 40.7917 48.1709 40.5661 48.1709 40.5661C47.4928 38.3063 47.1824 35.679 46.1951 34.4649C45.7999 33.9854 47.239 36.5833 47.2955 38.9278ZM44.3325 41.4974C44.0221 41.7519 43.8241 41.865 43.909 41.7236C43.9938 41.5823 44.0503 41.4409 44.0786 41.3284L44.3325 41.4974ZM44.1346 41.1587C44.1911 40.9048 44.1911 40.7634 44.2477 40.5378C44.2477 40.4524 44.2759 40.4524 44.2759 40.3682C44.2759 40.3399 44.9251 40.9048 44.9817 40.9325C44.812 41.1304 44.6712 41.2153 44.5298 41.3566C44.3608 41.2718 44.1069 41.187 44.1346 41.1587ZM46.2511 41.8933C45.348 42.797 43.9655 42.4576 42.8934 42.9383C41.9055 43.3053 41.1998 44.209 40.1843 44.4346C39.8739 44.5194 39.8456 44.6891 40.0146 44.6891C40.1277 44.6891 40.7486 45.3389 41.7359 44.8305C42.0746 44.6608 43.119 44.0959 43.2881 44.0393C42.7238 44.576 42.4416 45.0561 41.9338 45.3389C41.6234 45.5079 40.3816 45.9597 39.1399 45.7059C38.5756 45.5928 38.152 46.1011 38.2934 46.1011C38.5755 46.0163 38.9143 46.0729 39.1116 46.3274C39.4786 46.6101 39.9864 46.9765 40.4382 46.4399C40.5796 46.2708 41.3129 45.9038 41.9621 46.5812C41.2564 46.553 41.3129 47.8242 39.9581 47.6828C39.4503 47.6828 38.3499 46.5247 38.0395 46.8923C37.4752 47.5132 39.253 48.1064 38.4907 48.8975C37.8133 49.6033 36.9668 48.332 36.9668 48.332C37.3903 48.5017 38.1803 48.643 37.8416 47.9367C37.7002 47.6546 37.4469 47.4007 37.4469 46.8917C37.3903 46.6378 35.8099 48.9252 34.7661 47.8808C34.3419 47.4849 33.5243 46.5812 32.762 46.2425C34.7661 46.0729 35.0482 46.8634 35.1607 47.0048C35.8099 47.8525 36.3742 47.0048 36.5156 46.8357C36.7129 46.6095 37.0234 46.2702 36.9102 46.2142C36.148 45.8473 35.2456 45.7624 34.5964 46.0729C36.0072 44.1242 37.1082 45.9597 37.1082 45.9597C37.2496 46.0446 37.0799 44.8022 35.6691 44.7457C34.7937 44.6891 34.0321 45.4796 33.4395 45.4796C32.96 45.4796 31.4637 44.4912 31.1256 43.5875C32.0004 44.2373 33.1008 44.6043 33.7782 44.1807C35.0759 43.4184 36.6846 44.576 36.7695 44.4346C36.4025 44.1524 35.5843 43.0515 33.3829 43.6723C32.5364 44.1524 32.1694 43.3053 31.6334 43.3053C32.5364 42.5142 33.1573 42.9095 33.4677 42.9377C33.5526 42.9377 33.1008 42.5707 32.7903 42.5425C30.3351 42.2886 28.7829 41.6105 28.7829 41.6105C28.7829 41.6105 28.9808 41.131 30.0246 41.4691C30.0246 41.4691 29.0933 40.9048 29.0933 40.1419C29.1216 39.6901 29.3472 39.1817 29.0091 38.8141C30.4199 38.7582 29.432 40.7351 30.4199 41.2435C30.4482 41.2435 30.1371 40.7634 30.5613 40.3964C30.758 40.989 31.2664 41.2718 31.6334 41.3849C31.7182 41.3284 31.8307 41.1587 31.8307 41.1587C31.4637 40.5378 31.4078 39.8032 31.5203 38.9838H31.5486C31.6334 38.9838 31.7742 39.2666 31.859 39.4639C32.0563 39.9157 32.0563 40.5372 32.4799 41.0745C32.7055 41.3566 32.8469 41.6671 33.0442 41.8085C33.129 41.6105 33.0725 41.2429 33.0442 41.1587C32.9876 40.82 32.7903 40.2268 33.3546 39.7184C33.6374 40.4807 33.9755 40.2833 34.0321 40.6503C34.0886 41.1587 34.0886 41.1021 34.0321 41.4974C34.0604 42.063 34.5681 42.2037 34.9911 42.5707C36.0072 43.1074 36.657 43.4178 37.1082 44.1242C37.3338 42.9377 34.1452 42.7121 34.5398 40.4241C34.4833 39.5204 34.653 39.4356 34.0038 38.8713C35.2738 38.8996 35.9789 41.0173 36.0355 41.3849C36.1769 42.0906 36.5998 42.1189 37.1647 43.0508C37.249 43.0791 36.1203 40.5938 37.4752 38.4754C37.4752 38.4754 37.9264 39.577 37.7291 40.3116C37.5877 40.7351 37.7291 41.2153 37.7573 41.498C37.785 41.7802 37.7008 40.4807 38.6604 39.8315C38.7163 40.311 39.1964 41.0739 38.7446 41.865C38.2086 42.8535 38.1803 42.4859 38.152 43.7006C38.2086 43.6723 38.3499 42.8818 38.7163 42.4017C39.5069 41.4409 38.9425 40.9048 39.7042 40.0571C39.7608 40.4813 39.8739 40.3116 39.9298 40.6786C40.0429 41.5257 39.1399 42.4293 39.3372 42.4017C39.5634 42.3734 39.9298 42.1755 40.0429 41.5257C40.0429 41.5257 40.3534 42.1189 40.0712 42.3169C39.5351 42.6556 39.422 43.0508 39.5069 43.4744C39.9298 42.966 40.5224 42.4017 40.4099 41.6671C40.4665 41.2153 40.946 41.0462 41.0308 40.0288C41.0591 39.8598 41.2281 39.6618 41.3978 39.5493C41.3129 40.1137 41.7642 40.7069 41.2564 41.4126C41.3695 41.4691 41.7924 40.8765 42.4416 41.0745C41.1716 41.3001 41.5386 42.6838 40.579 43.3053C40.2968 43.5027 40.3251 43.7006 40.2409 43.7289C41.115 43.6723 41.7642 42.6556 41.8773 42.5707C42.752 41.9775 42.9211 41.8933 43.2881 40.9325C43.4295 40.5655 43.3164 40.4241 43.7965 39.9157C43.9932 40.3964 43.7116 41.3849 43.6268 41.6105C43.4577 42.0624 42.9211 42.4576 43.0342 42.4576C45.348 41.4409 45.3204 40.7351 45.8847 40.0005C46.0538 39.7178 46.872 39.2383 47.1824 39.1817C47.0982 39.3231 46.7877 39.6059 46.7595 39.8598C46.7312 40.3682 46.5615 40.6786 46.3076 41.1021C46.449 41.2718 46.7312 40.7634 47.0133 41.0173C46.7029 41.2153 46.5339 41.6388 46.2511 41.8933ZM46.6464 41.7519C46.505 42.4293 46.2794 43.0508 45.8564 43.6441C45.5736 44.0682 45.4611 43.2488 45.6868 42.4859C46.0575 42.3161 46.3854 42.0653 46.6464 41.7519ZM44.8698 24.5235C44.8132 24.4952 44.7007 24.4952 44.6442 24.4952C44.5876 24.4952 44.5311 24.6083 44.6159 24.6083C44.6725 24.6366 44.7849 24.6366 44.8698 24.6366C44.9546 24.6649 44.9263 24.5517 44.8698 24.5235ZM44.6159 24.8628C44.6725 24.8911 44.7849 24.8911 44.8698 24.8911C44.9263 24.8911 44.9263 24.778 44.8698 24.778C44.8132 24.7497 44.7007 24.7497 44.6442 24.7497C44.5593 24.7497 44.5028 24.8345 44.6159 24.8628ZM44.6159 26.3314C44.517 26.2412 44.4133 26.1562 44.3055 26.0769C44.2206 26.1334 44.0798 26.2466 43.995 26.3031C43.9385 26.2183 43.8254 26.1052 43.6846 25.9921C43.5997 26.0486 43.3465 26.2748 43.261 26.3314C43.4024 26.3314 43.628 26.3879 43.628 26.5287V27.4607C43.7129 27.4889 43.8254 27.4607 43.9667 27.4607V26.4439C44.0233 26.4156 44.0516 26.3879 44.0798 26.3597C44.1358 26.3879 44.2772 26.5853 44.3903 26.6136C44.4462 26.557 44.6159 26.4156 44.6725 26.3597C44.7567 26.3314 44.6725 26.2748 44.6159 26.3314ZM44.1923 25.1732C44.2772 25.0319 44.3903 24.778 44.3903 24.58C44.3903 24.3544 44.2489 23.9868 43.8819 23.8743C43.459 24.0157 43.1768 24.3827 43.1768 24.778C43.1768 25.0036 43.3741 25.512 43.7977 25.512C43.9391 25.3988 44.0516 25.2581 44.1923 25.1732ZM43.9385 25.2581C43.8536 25.2298 43.5715 25.0036 43.4872 24.8062C43.4024 24.58 43.4024 24.3261 43.6563 24.1565C43.8536 24.2413 44.0798 24.4104 44.1081 24.5806C44.1081 24.8345 44.0516 25.1167 43.9385 25.2581ZM43.9102 23.4508L44.2206 23.1114C44.2206 23.1114 44.0792 22.9983 43.995 22.9135C43.995 22.8293 43.995 22.1512 44.0233 22.1229C43.7977 21.925 43.628 21.8967 43.5149 21.8967C43.3182 21.925 43.1203 22.1795 43.0637 22.2643C43.0071 22.3209 43.0354 22.4057 43.0637 22.4334C43.092 22.4617 43.1485 22.4899 43.2051 22.5182C43.2051 22.5182 43.1768 22.5182 43.1768 22.4899C43.092 22.5748 42.9506 22.801 42.9506 22.97C42.9506 23.1397 43.092 23.3659 43.2051 23.4502C43.3176 23.3659 43.4872 23.2245 43.7129 23.168C43.7694 23.3094 43.8253 23.3942 43.9102 23.4508ZM43.7411 22.6596C43.5997 22.603 43.2893 22.4617 43.1768 22.3768C43.1485 22.3492 43.1485 22.3492 43.1768 22.2926C43.2327 22.1795 43.3182 22.0947 43.3741 22.0947C43.4307 22.0947 43.7411 22.2643 43.7122 22.3492C43.7411 22.4051 43.7411 22.5465 43.7411 22.6596ZM43.7411 23.1397C43.6563 23.1397 43.5997 23.168 43.4872 23.2245C43.4024 23.168 43.1768 22.8858 43.3459 22.6037C43.3176 22.6037 43.2893 22.5748 43.2893 22.5748C43.4307 22.6596 43.5997 22.7444 43.7411 22.7727V23.1397ZM42.8375 21.7277C42.7533 21.7277 42.2738 21.7277 42.2738 21.6994C42.2279 21.5597 42.2381 21.4076 42.302 21.2752C42.3297 21.191 42.2738 21.1627 42.2172 21.2476C42.1889 21.3324 41.9344 21.6711 41.6812 21.7842C41.5398 21.8408 41.8502 21.9533 41.8226 21.9533C41.8226 22.2926 41.8779 22.7727 41.9351 22.97C41.9916 23.0832 42.1041 23.2811 42.2172 23.2245C42.2738 23.1963 42.4145 22.9418 42.4428 22.8858C42.5277 22.8293 42.4428 22.7162 42.3863 22.801C42.3297 22.8575 42.2738 22.7727 42.2449 22.7162C42.2172 22.6596 42.1607 21.925 42.1889 21.925C42.1889 21.925 42.7815 21.8408 42.8381 21.8408C42.8946 21.8691 42.894 21.7277 42.8375 21.7277ZM41.2293 23.0555L41.4832 22.7444C41.3142 22.7162 41.2293 22.6879 41.1162 22.5465V21.7842L40.8623 21.5297H40.7781L40.3829 21.8691C40.3546 21.925 40.4394 21.925 40.496 21.8691L40.7781 22.0381V22.8004C40.8058 22.8858 40.8623 22.97 40.9748 23.0832H41.2293V23.0555ZM41.032 21.3324L41.1734 21.2193V21.0213L41.0037 20.8523L40.8341 20.9937V21.2193L40.9472 21.3324H41.032ZM40.4111 21.1062C40.298 21.1062 39.9593 21.1345 39.8468 21.1345C39.7337 21.1627 39.7337 21.2193 39.8185 21.2193C39.931 21.2193 39.931 21.2476 39.9876 21.389C40.0441 21.5303 39.7903 22.1512 39.7337 22.2926C39.6489 22.1795 39.3956 21.6146 39.3956 21.5303C39.3956 21.4732 39.5081 21.4166 39.5646 21.4166C39.6489 21.389 39.6489 21.3324 39.5929 21.3041C39.395 21.2758 38.6616 21.2193 38.5485 21.191C38.4637 21.191 38.4071 21.2758 38.5202 21.2758C38.6333 21.2758 38.7458 21.2476 38.8872 21.4172C39.0286 21.6146 39.4798 22.6037 39.5929 23.0266C39.6489 22.9418 40.1007 21.6146 40.129 21.4732C40.1572 21.3318 40.2704 21.1904 40.3829 21.1627C40.5242 21.1627 40.5242 21.1062 40.4111 21.1062ZM38.2657 24.2979C38.2657 24.8345 38.4919 24.8911 38.7458 25.0319C38.972 25.1732 39.3667 25.145 39.6771 25.0601C39.7903 25.0319 39.8468 25.0319 39.8468 25.1167C39.8468 25.1732 39.931 25.1732 39.931 25.1167V24.5517C39.931 24.4952 39.8468 24.4952 39.8468 24.5517C39.8468 24.6366 39.8468 24.6649 39.762 24.7497C39.5646 25.0601 39.0563 25.0325 38.7741 24.6649C38.6893 24.5517 38.6051 24.3821 38.6893 24.3261C38.8024 24.2979 39.1411 24.3544 39.3384 24.3827C39.4798 24.3827 39.762 24.4104 39.8179 24.4386C39.8468 24.4669 39.9028 24.4952 39.9028 24.4386V24.1005C39.9028 24.0434 39.8468 24.0716 39.8185 24.1005C39.7903 24.1282 39.4515 24.1848 39.339 24.213C39.1977 24.2413 38.8024 24.2696 38.7182 24.2413C38.6051 24.213 38.6333 23.9868 38.7458 23.8743C39.0286 23.5067 39.5929 23.535 39.7903 23.846C39.8468 23.9585 39.8468 23.9874 39.8468 24.0716C39.8468 24.1282 39.931 24.1282 39.931 24.0716V23.4219C39.931 23.3659 39.8468 23.3659 39.8468 23.4219C39.8468 23.4501 39.762 23.4784 39.6771 23.4502C39.5081 23.3942 38.9997 23.4784 38.7741 23.5915C38.5485 23.7046 38.2657 23.9585 38.2657 24.2979ZM38.3512 25.2581C38.3512 25.4271 38.4071 26.7549 38.4071 26.9523C38.4071 27.0654 38.5485 27.1785 38.6616 27.2633C38.7176 27.1785 38.8583 26.9805 38.9721 26.8963C39.028 26.8398 38.9997 26.8115 38.9438 26.8115C38.8307 26.8681 38.7458 26.8115 38.7176 26.6984V25.2581C38.6616 25.2863 38.4354 25.2863 38.3512 25.2581ZM39.4515 26.3597C39.3667 26.4439 39.1977 26.6701 39.1977 26.8115C39.1977 26.9805 39.2825 27.1219 39.3667 27.235C39.5364 27.1219 39.6206 26.9523 39.9028 26.8681C39.931 26.9805 40.0159 27.0094 40.129 27.0937C40.1855 27.0371 40.4111 26.7549 40.4671 26.6984C40.5236 26.6418 40.496 26.6136 40.4111 26.6418C40.3263 26.6984 40.298 26.6701 40.1573 26.5287C40.1573 26.4439 40.1573 25.8796 40.1855 25.8513C40.0724 25.7382 39.9593 25.5685 39.8468 25.5685C39.6489 25.5968 39.4233 25.9072 39.3673 25.9927C39.3102 26.0486 39.3673 26.3031 39.395 26.3308L39.4515 26.3597ZM39.5929 26.4722C39.7054 26.5287 39.762 26.5004 39.9028 26.4722V26.7267C39.8185 26.7832 39.7337 26.8115 39.6489 26.8681C39.5647 26.7832 39.4515 26.7267 39.5929 26.4722ZM39.5081 25.9927C39.5647 25.8796 39.6206 25.8796 39.6771 25.8796C39.7337 25.8796 39.931 26.021 39.9028 26.1052V26.4156C39.7614 26.4439 39.6489 26.4439 39.5081 26.3031C39.4798 26.2748 39.4798 26.0492 39.5081 25.9927ZM40.665 25.7665C40.5519 25.823 40.8341 25.9355 40.8064 25.9355C40.8064 26.2748 40.7499 26.7832 40.8623 26.9523C40.9189 27.0654 41.0886 27.1219 41.2011 27.0937C41.3142 27.0654 41.4267 26.8398 41.4838 26.8109C41.5681 26.7549 41.4838 26.6984 41.4267 26.7549C41.3707 26.8115 41.2011 26.7832 41.1728 26.7267C41.1445 26.6701 41.1445 25.9644 41.1728 25.9355H41.4267C41.4832 25.9355 41.4832 25.7941 41.4267 25.7941C41.3425 25.7941 41.2011 25.7665 41.1728 25.7382C41.1445 25.6816 41.1728 25.4554 41.2293 25.3712C41.2859 25.2864 41.2011 25.2298 41.1445 25.3429C41.0886 25.4554 40.8906 25.6533 40.665 25.7665ZM40.7216 24.2972C40.7216 24.6083 40.5802 24.9187 40.4111 25.0884C40.7216 25.0036 40.7492 24.8345 40.9189 24.6089C41.0037 24.7497 41.1728 24.9187 41.3142 24.9753C41.399 24.9187 41.6523 24.6366 41.7088 24.58C41.5398 24.5235 41.2011 24.3544 41.1162 24.1565C41.0603 24.0151 41.0603 23.9585 41.1445 23.846C41.2011 23.9303 41.624 24.1282 41.8219 23.7895C41.6246 23.7046 41.4267 23.5915 41.3707 23.4784C41.3142 23.535 41.1445 23.7329 41.032 23.7895C41.0037 23.6764 40.8341 23.5633 40.6933 23.535C40.6367 23.5915 40.3263 23.8178 40.1855 23.902C40.129 23.9303 40.1573 24.0151 40.2132 23.9868C40.2697 23.9585 40.3829 23.8743 40.496 23.8178C40.5519 23.8743 40.7216 24.0151 40.7216 24.2972ZM42.1607 24.3544C42.1889 24.1565 42.3297 24.0999 42.3863 24.0434C42.4711 24.1282 42.5559 24.2413 42.6967 24.2413C42.8098 24.2413 42.9506 24.1848 42.9795 24.1282C42.8664 24.0434 42.6402 23.7895 42.5842 23.7612C42.4711 23.8178 41.9351 24.0999 41.9068 24.4104C41.8502 24.8628 41.9916 24.947 42.1889 25.2015C42.302 25.3429 42.4994 25.3429 42.5842 25.3429C42.6684 25.2863 43.0071 24.947 43.0637 24.9187C43.092 24.8911 43.0354 24.8345 43.0071 24.8911C42.9789 24.9187 42.9789 24.947 42.9223 24.947C42.8664 24.947 42.6402 25.0036 42.4994 24.9187C42.3297 24.8062 42.1324 24.6083 42.1607 24.3544ZM41.9068 25.7947C41.8219 25.8796 41.7088 25.9638 41.5681 26.1052C41.6812 26.1052 41.7654 26.1335 41.7937 26.2466C41.8502 26.3314 41.7937 26.7549 41.8219 26.924C41.8219 27.0654 41.9351 27.1219 42.0475 27.235C42.1607 27.2068 42.4994 27.0654 42.6401 26.9805C42.6401 27.1219 42.7815 27.2633 42.8946 27.2916C42.9506 27.235 43.036 27.1785 43.1203 27.0937C43.0354 27.0371 43.0354 27.0371 43.0071 26.8963C42.9789 26.7832 43.0071 26.3308 43.0071 26.1334C42.9223 26.0203 42.8098 25.8796 42.6967 25.7947C42.6119 25.8796 42.4994 25.9638 42.3586 26.1334C42.4711 26.1334 42.6684 26.1617 42.6684 26.2466C42.6684 26.3597 42.6967 26.5853 42.6684 26.7832C42.6402 26.9805 42.1324 26.8963 42.1324 26.7549C42.1324 26.6136 42.1607 26.2466 42.1607 26.0769C42.1041 25.9638 42.0476 25.9078 41.9068 25.7947ZM38.5768 30.3419C38.294 30.2853 38.069 30.0874 37.7862 29.9743C37.4199 29.8329 37.0246 30.1157 37.0246 30.1722C37.0246 30.2853 37.1377 30.3136 37.4199 30.144C37.3881 30.1763 37.3634 30.2149 37.3474 30.2573C37.3315 30.2997 37.3246 30.345 37.3273 30.3903C37.33 30.4355 37.3421 30.4797 37.3629 30.52C37.3837 30.5603 37.4128 30.5957 37.4481 30.6241C37.3633 30.5958 37.2219 30.5675 37.1094 30.5392C37.0811 30.6241 37.2219 30.6806 37.2785 30.7089C37.8145 30.9062 38.125 30.4261 38.5768 30.3419ZM37.7303 30.5958C37.7303 30.5958 37.8717 30.4544 37.8717 30.3419C37.8717 30.2005 37.7303 30.1157 37.7303 30.1157C37.8428 30.144 38.0967 30.2853 38.2098 30.3702L37.7303 30.5958ZM35.0212 26.8398L35.1626 26.6701C34.9929 26.6418 35.0771 26.6418 34.9929 26.557V25.9072L34.795 25.5968H34.7107L34.372 25.9072C34.2872 25.9921 34.372 26.0203 34.4569 25.9355L34.6825 26.0486V26.7267C34.7107 26.8115 34.7673 26.8398 34.8798 26.9523L35.0212 26.8398ZM35.0771 24.58C35.1902 24.8911 35.4441 25.0042 35.6421 25.0042C35.7038 24.8827 35.7796 24.7688 35.8677 24.6649C35.9525 24.5517 35.8677 24.4669 35.8111 24.6083C35.7545 24.7214 35.5007 24.6083 35.4158 24.5235C35.3033 24.4104 35.2185 24.0999 35.3033 24.0151C35.3876 23.902 35.5289 23.9585 35.7263 23.9585C35.8394 23.9585 35.8677 23.846 35.8959 23.7895C35.8394 23.7612 35.7545 23.7046 35.6421 23.6481C35.5289 23.7329 35.3316 23.8743 35.2751 23.9309C35.1619 23.9868 34.9646 24.269 35.0771 24.58ZM35.5566 26.3031C35.4441 26.4156 35.3599 26.557 35.3599 26.7267C35.3599 26.8963 35.4158 27.0371 35.5855 27.1219C35.7269 27.0088 35.9236 26.8963 36.0933 26.8392C36.1781 26.9523 36.3189 27.0088 36.4037 27.0937C36.4603 27.0371 36.6293 26.8681 36.6865 26.8398C36.7424 26.7832 36.6865 26.7267 36.6293 26.7832C36.601 26.8398 36.4603 26.8115 36.432 26.7267C36.432 26.6701 36.3754 25.9355 36.4037 25.9072C36.2906 25.7947 36.1215 25.5402 36.0084 25.5402C35.8394 25.5685 35.5572 25.823 35.5007 25.8796C35.4441 25.9355 35.5001 26.2466 35.5566 26.3031C35.5566 26.2748 35.5283 26.2748 35.5566 26.3031ZM36.0084 26.3597C35.867 26.3597 35.7545 26.3314 35.6138 26.19C35.5855 26.1617 35.5572 25.9921 35.5855 25.9355C35.6421 25.823 35.6421 25.7941 35.698 25.7941C35.7545 25.7941 36.0084 25.9638 36.0084 26.0486C36.0369 26.1504 36.0369 26.2579 36.0084 26.3597ZM35.6703 26.3879C35.7828 26.4722 35.867 26.4722 36.0084 26.4439V26.6418C36.0084 26.6701 36.0367 26.6984 36.0367 26.7267L35.7828 26.8115C35.698 26.7549 35.4447 26.5859 35.6703 26.3879ZM36.6576 25.0319L36.799 24.8628C36.6293 24.8345 36.6293 24.8345 36.5451 24.778V24.0157L36.4037 23.8178H36.3189L35.9808 24.1282C35.8959 24.213 35.9808 24.2413 36.065 24.1565L36.2347 24.2696V24.9753C36.2629 25.0601 36.3189 25.0884 36.432 25.2015L36.6576 25.0319ZM36.4037 22.4051C36.3471 22.4051 36.2347 22.5182 36.6293 22.5748C36.6859 22.5465 36.7707 22.4051 36.4037 22.4051ZM36.4037 22.1512C36.3471 22.1512 36.2347 22.3209 36.6293 22.3209C36.7141 22.3209 36.7424 22.1795 36.4037 22.1512ZM36.4885 23.3377L36.3189 23.168L36.1498 23.3094V23.5067L36.2629 23.6198H36.3754L36.4885 23.5067V23.3377ZM36.1498 21.7271C36.0367 21.6428 35.9242 21.4449 35.6421 21.4449C35.3593 21.4449 35.0495 21.6994 34.9363 21.8408C34.795 22.0381 34.9646 22.2361 35.1337 22.3774C35.0212 22.4617 34.8515 22.6313 34.7107 22.7727C34.7673 22.8293 35.0771 22.9983 35.2751 22.97C35.5572 22.97 35.7828 22.8287 35.9525 22.6873C36.2347 22.4617 36.1492 22.2361 35.8394 22.0664C35.8111 22.0381 35.7828 22.0381 35.7545 22.0381C35.9525 21.8967 36.1215 21.7836 36.1498 21.7271ZM35.4441 22.3209C35.5289 22.3774 35.6421 22.4051 35.7269 22.4623C35.8677 22.5465 35.8111 22.7162 35.6421 22.7727C35.4724 22.8575 35.1902 22.6313 35.1337 22.5465C35.1902 22.4899 35.3033 22.4051 35.4441 22.3209ZM35.7269 21.925C35.698 21.9533 35.6421 22.0098 35.5572 22.0664H35.4158C35.2744 22.0381 35.2185 21.925 35.1337 21.8408C35.0771 21.756 35.2468 21.6711 35.3316 21.6711C35.4158 21.6994 35.6138 21.8125 35.7263 21.925H35.7269ZM34.5693 22.5182C34.4419 22.5575 34.3044 22.5474 34.1841 22.4899C34.0638 22.4323 33.9696 22.3316 33.9202 22.2078C34.0899 22.0381 34.372 21.756 34.5411 21.6146C34.4286 21.5015 34.372 21.3318 34.1741 21.3318C34.005 21.3318 33.5815 21.5297 33.4973 22.0664C33.4407 22.5748 33.8919 22.8575 34.2872 22.8575C34.4003 22.8575 34.57 22.6879 34.6542 22.6596C34.8232 22.5748 34.7673 22.4899 34.5693 22.5182ZM33.8919 22.1229C33.7794 21.7842 33.836 21.6711 34.0333 21.5021C34.0854 21.5973 34.1637 21.6756 34.2589 21.7277C34.1464 21.8408 33.9767 22.0664 33.8919 22.1229ZM33.4124 21.8125C33.4973 21.756 33.4124 21.6994 33.3559 21.756C33.2738 21.6775 33.1983 21.5924 33.1303 21.5015C33.0737 21.558 32.9047 21.6428 32.8198 21.6994C32.7633 21.6146 32.6784 21.6146 32.537 21.5015C32.4528 21.558 32.2838 21.6711 32.1989 21.7842C32.368 21.8408 32.4817 21.8408 32.4817 21.9816V22.8852C32.5659 22.9135 32.6784 22.8852 32.7915 22.8852V21.8402C32.8341 21.8192 32.8724 21.7907 32.9047 21.756C32.9606 21.7842 33.046 21.925 33.1303 21.9816C33.1868 21.9816 33.3559 21.8691 33.4124 21.8125ZM32.1141 23.5633C31.9451 23.5915 31.6629 23.7895 31.6063 23.9585C31.5781 24.0434 31.6063 24.2979 31.6629 24.3261L31.7195 24.3827C31.6063 24.4952 31.4932 24.58 31.4932 24.7497C31.4932 24.9187 31.6346 25.0601 31.776 25.1167C31.8162 25.0513 31.8695 24.995 31.9325 24.9513C31.9956 24.9076 32.0671 24.8774 32.1424 24.8628C32.1424 24.9753 32.1707 25.0884 32.2555 25.145C32.3121 25.0884 32.5377 24.8622 32.5936 24.8345C32.6508 24.778 32.5936 24.7214 32.5377 24.778C32.5094 24.8062 32.4246 24.7497 32.3963 24.7214C32.3963 24.6649 32.3963 23.9303 32.4246 23.902C32.3403 23.8178 32.2272 23.5633 32.1141 23.5633ZM32.1141 24.2979C31.9168 24.4393 31.8602 24.4104 31.7195 24.2696C31.6948 24.2272 31.6795 24.1801 31.6746 24.1313C31.6697 24.0825 31.6754 24.0332 31.6912 23.9868C31.7477 23.902 31.8602 23.7895 31.9168 23.7895C31.9733 23.7895 32.1141 23.9868 32.1141 24.0723V24.2979ZM32.1141 24.6649V24.778C32.0858 24.778 32.0299 24.8062 31.9727 24.8345C31.8885 24.778 31.5498 24.6649 31.776 24.4669C31.9168 24.5517 31.9727 24.4952 32.1141 24.4104V24.6649ZM31.9727 23.1397C31.9451 23.1114 31.8885 23.0549 31.8885 22.9983V22.4617C31.8885 22.4051 31.7754 22.4051 31.7754 22.4617C31.7754 22.5465 31.7754 22.6596 31.7195 22.7727C31.5215 23.0555 31.1545 23.1963 30.9006 22.8293C30.8164 22.7162 30.7881 22.5182 30.7881 22.4051C30.7599 22.2361 30.9006 22.0098 30.9006 21.9816C31.2394 21.558 31.6912 21.8691 31.7195 22.0381C31.7477 22.1512 31.7754 22.2926 31.7754 22.3774C31.7754 22.4334 31.8885 22.4334 31.8885 22.3774V21.6152C31.8885 21.558 31.8037 21.558 31.8037 21.6152C31.8037 21.7277 31.7477 21.7277 31.6623 21.6994C31.4932 21.6428 31.1269 21.558 30.9289 21.6994C30.7316 21.8125 30.4494 22.0664 30.4494 22.3774C30.4494 22.9135 30.6467 22.9418 30.9006 23.1114C31.1269 23.2528 31.409 23.168 31.6912 23.0832C31.8037 23.0549 31.8037 23.1114 31.8602 23.1963C31.9733 23.3094 32.0293 23.2245 31.9727 23.1397ZM30.506 23.902C30.308 24.1848 30.2232 24.6366 30.5343 24.8911C30.6756 25.0036 30.8164 25.1167 31.1269 25.0601C31.1828 24.947 31.2111 24.8911 31.3236 24.7497C31.1269 24.778 30.9572 24.7497 30.7881 24.6366C30.4777 24.3827 30.5619 23.9868 30.675 23.846C30.8447 23.5915 31.0986 23.9585 31.1269 24.0151C31.1828 23.9585 31.2682 23.846 31.3807 23.7895C31.2959 23.6764 31.2111 23.535 31.1545 23.4784C30.9289 23.535 30.6185 23.7046 30.506 23.9026V23.902ZM30.6185 26.3314C30.5619 26.8398 31.042 27.1502 31.2676 27.235C31.3476 27.076 31.4423 26.9247 31.5504 26.7832C31.6346 26.6701 31.5504 26.6418 31.465 26.7267C31.3525 26.8398 31.042 26.7267 30.9572 26.5853C31.0986 26.4722 31.5215 26.1334 31.6912 25.9921C31.5781 25.8796 31.4084 25.6251 31.3807 25.4554C31.2111 25.5968 30.7033 25.7947 30.6185 26.3314ZM31.1269 25.7947C31.1828 25.9072 31.3236 26.1334 31.3807 26.1617C31.2676 26.2748 30.9855 26.4722 30.9012 26.5287C30.7599 26.3314 30.675 26.0492 31.1269 25.7947ZM32.1707 25.5968C32.0576 25.6816 32.0016 25.7665 31.8602 25.8796C31.9168 25.9638 32.0299 26.0486 32.0576 26.19V27.0937H32.3403C32.3121 26.9805 32.3403 26.19 32.3403 26.0486C32.3963 25.9921 32.4246 25.9638 32.5094 25.9072C32.5659 25.9638 32.7067 25.9921 32.7067 26.0769C32.7067 26.1617 32.735 26.557 32.7067 26.6978C32.6784 26.8681 32.6784 27.0088 32.7915 27.1785C32.8764 27.0937 33.1296 26.924 33.1868 26.8681C33.2434 26.8115 33.2151 26.7832 33.1303 26.8115C33.0454 26.8398 33.0454 26.8398 33.0454 26.7832C33.0454 26.6984 33.0172 26.2748 32.9889 25.9921C32.9889 25.7093 32.8475 25.6533 32.7633 25.5968C32.6784 25.6816 32.5094 25.7947 32.3963 25.8796C32.2838 25.8796 32.2549 25.7382 32.1707 25.5968ZM33.2434 24.947C33.3276 24.8628 33.4124 24.7497 33.4401 24.7214C33.4973 24.6649 33.4401 24.6083 33.3848 24.6649C33.3276 24.7214 33.2151 24.6083 33.2151 24.6083C33.1868 24.5517 33.102 23.9303 33.1303 23.9303C33.1303 23.9303 33.5255 23.8743 33.5815 23.8743C33.6098 23.8743 33.638 23.7612 33.5815 23.7612C33.5255 23.7612 33.2151 23.7895 33.2151 23.7612C33.1868 23.7046 33.1585 23.4784 33.2434 23.2811C33.2993 23.1963 33.2434 23.1114 33.2151 23.1963C33.1868 23.2811 32.9323 23.6758 32.7633 23.7329C32.6219 23.7895 32.6508 23.8178 32.735 23.846C32.7915 23.846 32.8764 23.9303 32.8481 23.9303C32.8481 24.2413 32.7915 24.6366 32.9047 24.8062C32.9889 24.9187 33.1585 25.0036 33.2428 24.9476L33.2434 24.947ZM34.5976 25.0884C34.5411 25.1732 34.4845 25.2863 34.3155 25.3429C34.4003 25.4271 34.5128 25.512 34.5982 25.5685C34.6825 25.4837 34.7673 25.3712 34.8515 25.2857C34.7673 25.2581 34.6542 25.2009 34.5976 25.0884ZM33.9767 24.7497C34.0899 24.7497 34.3155 24.8062 34.5128 24.8062C34.7673 24.778 34.9923 24.3821 34.8798 24.044C34.7673 23.7329 34.4286 23.7895 34.2024 23.7329C34.005 23.6764 33.8919 23.535 34.1464 23.3942C34.4286 23.2245 34.739 23.5067 34.7673 23.5633C34.8232 23.6481 34.8515 23.6481 34.8515 23.535C34.8515 23.2811 34.8232 23.4219 34.8232 23.1963C34.8232 23.1114 34.7673 23.1114 34.739 23.1963C34.739 23.2811 34.6259 23.2528 34.5693 23.2528C34.4845 23.2528 34.2589 23.2245 34.0616 23.3377C33.9485 23.4219 33.6663 23.6198 33.8077 23.902C33.8919 24.0434 34.4286 24.1848 34.57 24.2696C34.7107 24.3544 34.739 24.58 34.5976 24.6931C34.4286 24.8345 34.005 24.7214 33.9202 24.6366C33.836 24.5517 33.8077 24.4669 33.7788 24.3538C33.8077 24.1565 33.7229 24.1565 33.7229 24.2696C33.7229 24.3827 33.7511 24.7491 33.7794 24.8345C33.8077 24.9187 33.8919 24.8911 33.8919 24.8345C33.8919 24.7497 33.9202 24.7497 33.9767 24.7497ZM33.4124 25.8796C33.2993 25.9638 33.5255 26.0769 33.5255 26.0486C33.5255 26.3597 33.4973 26.6984 33.5815 26.8681C33.638 26.9805 33.8643 27.0371 33.8919 26.9523C33.9202 26.8681 34.0899 26.6701 34.1181 26.6142C34.1741 26.557 34.1181 26.5004 34.0616 26.557C33.9485 26.6701 33.8919 26.6136 33.7788 26.5287C33.7511 26.4722 33.7229 26.0492 33.7511 26.0203C33.7511 26.0203 33.9767 25.9921 34.005 25.9921C34.0333 25.9921 34.0333 25.8796 34.005 25.8796C33.9485 25.8796 33.7511 25.8796 33.7511 25.8513C33.7229 25.7947 33.7794 25.4837 33.8077 25.3429C33.8077 25.2581 33.7794 25.2298 33.7511 25.3146C33.7511 25.3988 33.5255 25.7941 33.4124 25.8796Z" fill="#800000"/>
</g>
</g>
</svg>
