<svg xmlns="http://www.w3.org/2000/svg" width="170" height="46" viewBox="0 0 170 46" fill="none">
<g clip-path="url(#clip0_2486_17151)">
<path d="M13.3322 38.8335C10.1824 37.1564 7.70514 34.8204 5.90054 31.8256C4.09594 28.8307 3.19615 25.4399 3.20119 21.6531C3.20119 17.8664 4.10097 14.4756 5.90054 11.4807C7.7001 8.48579 10.1773 6.15021 13.3322 4.47395C16.4813 2.796 20.0359 1.95703 23.9961 1.95703C27.4525 1.95703 30.5662 2.57048 33.3373 3.79739C36.0397 4.97054 38.4131 6.79104 40.2488 9.09882L33.4457 15.2737C30.997 12.3159 28.0273 10.8369 24.5365 10.8369C22.485 10.8369 20.6577 11.288 19.0546 12.1901C17.4707 13.0734 16.1768 14.3985 15.33 16.0046C14.4499 17.6421 14.0099 19.525 14.0099 21.6531C14.0099 23.7813 14.4512 25.6662 15.3338 27.308C16.1806 28.914 17.4745 30.2392 19.0584 31.1225C20.6606 32.0246 22.4879 32.4756 24.5402 32.4756C28.031 32.4756 31.0008 30.9967 33.4495 28.0388L40.2513 34.2074C38.4156 36.5152 36.0423 38.3357 33.3399 39.5088C30.5687 40.7349 27.455 41.3479 23.9986 41.3479C20.0367 41.3488 16.4813 40.5106 13.3322 38.8335ZM113.576 33.233H97.5925L94.6249 40.5919H83.7154L100.4 2.71564H110.929L127.668 40.5919H116.542L113.576 33.233ZM110.443 25.3326L105.584 13.215L100.724 25.3326H110.443Z" fill="#7DC34B"/>
<path d="M63.3559 42.716C74.9763 42.716 84.3965 33.2761 84.3965 21.6314C84.3965 9.98675 74.9763 0.546875 63.3559 0.546875C51.7356 0.546875 42.3154 9.98675 42.3154 21.6314C42.3154 33.2761 51.7356 42.716 63.3559 42.716Z" fill="black"/>
<mask id="mask0_2486_17151" style="mask-type:luminance" maskUnits="userSpaceOnUse" x="42" y="0" width="43" height="43">
<path d="M63.3555 42.717C74.9758 42.717 84.396 33.2771 84.396 21.6324C84.396 9.98773 74.9758 0.547852 63.3555 0.547852C51.7351 0.547852 42.3149 9.98773 42.3149 21.6324C42.3149 33.2771 51.7351 42.717 63.3555 42.717Z" fill="white"/>
</mask>
<g mask="url(#mask0_2486_17151)">
<path d="M79.3234 9.17003H80.782V10.6317H79.3234V9.17003ZM57.8281 3.46973H59.2868V4.93141H57.8281V3.46973Z" fill="#7DC34B"/>
<path d="M59.3477 3.40723H57.7656V4.99387H59.3477V3.40723ZM59.2217 4.86891H57.8865V3.53345H59.2293L59.2217 4.86891ZM61.164 15.059H62.6214V16.5207H61.164V15.059Z" fill="#7DC34B"/>
<path d="M62.6849 14.9971H61.1016V16.5837H62.6849V14.9971ZM62.5589 16.4588H61.2263V15.122H62.5602L62.5589 16.4588ZM62.0538 20.6317H63.5125V22.0934H62.0538V20.6317Z" fill="#7DC34B"/>
<path d="M63.5745 20.5752H61.9912V22.1606H63.5745V20.5752ZM63.4486 22.0369H62.1159V20.7014H63.4498L63.4486 22.0369ZM65.8355 20.8554H67.2942V22.3171H65.8355V20.8554Z" fill="#7DC34B"/>
<path d="M67.3553 20.7928H65.772V22.3794H67.3553V20.7928ZM67.2293 22.2545H65.8967V20.9165H67.2306L67.2293 22.2545ZM68.0594 17.7344H69.5168V19.1961H68.0594V17.7344Z" fill="#7DC34B"/>
<path d="M69.5787 17.672H67.9967V19.2574H69.5787V17.672ZM69.4528 19.1337H68.1176V17.7982H69.4528V19.1337ZM64.5 17.0674H65.9586V18.5291H64.5V17.0674Z" fill="#7DC34B"/>
<path d="M66.0206 17.0046H64.4385V18.5912H66.0206V17.0046ZM65.8947 18.4662H64.5595V17.1295H65.8947V18.4662ZM63.9146 6.47363H65.3719V7.93531H63.9146V6.47363Z" fill="#7DC34B"/>
<path d="M65.4337 6.41113H63.8504V7.99651H65.4337V6.41113ZM65.3077 7.87281H63.9751V6.53483H65.309L65.3077 7.87281ZM48.041 14.1689H49.4996V15.6306H48.041V14.1689Z" fill="#7DC34B"/>
<path d="M49.5616 14.1074H47.9782V15.6928H49.5616V14.1074ZM49.4356 15.5691H48.1029V14.2311H49.4369L49.4356 15.5691ZM46.9277 27.0959H48.3864V28.5576H46.9277V27.0959Z" fill="#7DC34B"/>
<path d="M48.45 27.0342H46.8667V28.6208H48.45V27.0342ZM48.3241 28.4959H46.9914V27.1579H48.3253L48.3241 28.4959ZM59.163 37.5727H60.6216V39.0344H59.163V37.5727Z" fill="#7DC34B"/>
<path d="M60.6813 37.5106H59.103V39.0973H60.6851V37.5106H60.6813ZM60.5554 38.9723H59.229V37.6356H60.5629L60.5554 38.9723ZM78.0727 33.6191H79.5314V35.0808H78.0727V33.6191Z" fill="#7DC34B"/>
<path d="M79.5945 33.5527H78.0112V35.1394H78.1371L79.4711 35.4032L79.597 35.1394V33.5527H79.5945ZM79.4686 35.0144H78.1359V33.6777H79.4698L79.4686 35.0144ZM66.9468 41.1363H68.4054V42.598H66.9468V41.1363Z" fill="#7DC34B"/>
<path d="M68.4673 41.0757H66.884V42.6649H68.4673V41.0757ZM68.3413 42.5374H67.0087V41.2007H68.3426L68.3413 42.5374ZM61.1641 23.085H62.6214V24.5466H61.1641V23.085Z" fill="#7DC34B"/>
<path d="M62.6849 23.0215H61.1016V24.6132H62.6849V23.0215ZM62.5589 24.4832H61.2263V23.1452H62.5602L62.5589 24.4832ZM67.3921 28.2093H68.8507V29.671H67.3921V28.2093Z" fill="#7DC34B"/>
<path d="M68.9119 28.1486H67.3286V29.7353H68.9119V28.1486ZM68.786 29.6103H67.4533V28.2749H68.7872L68.786 29.6103ZM78.0668 27.3193H79.5254V28.781H78.0668V27.3193Z" fill="#7DC34B"/>
<path d="M79.5874 27.2553H78.0053V28.8407H79.5874V27.2553ZM79.4614 28.717H78.1237V27.379H79.4589L79.4614 28.717ZM58.0493 22.6367H59.5079V24.0984H58.0493V22.6367Z" fill="#7DC34B"/>
<path d="M59.5693 22.575H57.9873V24.1604H59.5693V22.575ZM59.4434 24.0367H58.112V22.6987H59.4459L59.4434 24.0367ZM52.0444 19.5166H53.5031V20.9783H52.0444V19.5166Z" fill="#7DC34B"/>
<path d="M53.5617 19.4549H51.9834V21.0415H53.5617V19.4549ZM53.4357 20.9165H52.1005V19.5798H53.4357V20.9165ZM68.2815 11.9395H69.7389V13.4011H68.2815V11.9395Z" fill="#7DC34B"/>
<path d="M69.8016 11.877H68.2183V13.4636H69.8016V11.877ZM69.6756 13.3386H68.343V12.0007H69.6769L69.6756 13.3386ZM79.624 21.9686H81.0827V23.4303H79.624V21.9686Z" fill="#7DC34B"/>
<path d="M81.1471 21.9072H79.5625V23.4939H81.1471V21.9072ZM81.0212 23.3689H79.686V22.0309H81.0212V23.3689ZM63.6108 29.5476H65.0695V31.0093H63.6108V29.5476Z" fill="#7DC34B"/>
<path d="M65.1303 29.4844H63.547V31.071H65.1303V29.4844ZM65.0044 30.9461H63.6717V29.6093H65.0056L65.0044 30.9461ZM51.5996 34.8956H53.0582V36.3573H51.5996V34.8956Z" fill="#7DC34B"/>
<path d="M53.1205 34.8383H51.5372V36.4249H53.1205V34.8383ZM52.9945 36.3H51.6619V34.9645H52.9958L52.9945 36.3ZM47.9473 5.38379H49.4059V6.84547H47.9473V5.38379Z" fill="#7DC34B"/>
<path d="M49.4681 5.32129H47.8848V6.90793H49.4681V5.32129ZM49.3421 6.78297H48.0095V5.44625H49.3434L49.3421 6.78297ZM41.4507 23.976H42.9093V25.4377H41.4507V23.976Z" fill="#7DC34B"/>
<path d="M42.9717 23.9136H41.3896V25.4977H42.9717V23.9136ZM42.8546 25.3715H41.5194V24.0385H42.8546V25.3715ZM72.5473 12.2744H74.006V13.7361H72.5473V12.2744Z" fill="#7DC34B"/>
<path d="M74.0684 12.2119H72.4863V13.7973H74.0684V12.2119ZM73.9424 13.6736H72.6073V12.3356H73.9424V13.6736ZM75.6215 17.7342H77.0789V19.1959H75.6215V17.7342Z" fill="#7DC34B"/>
<path d="M77.1413 17.6712H75.558V19.2566H77.1413V17.6712ZM77.0153 19.1329H75.6827V17.7974H77.0166L77.0153 19.1329ZM64.5439 2.18848H66.0026V3.65016H64.5439V2.18848Z" fill="#7DC34B"/>
</g>
<path d="M157.463 25.749C159.788 24.8654 161.592 23.5098 162.825 21.7098C164.085 19.8707 164.726 17.5444 164.726 14.7927C164.726 10.8924 163.475 7.86552 161.009 5.7967C158.543 3.72788 154.989 2.68652 150.428 2.68652H132.375V40.5817H142.266V26.8484H147.906L155.88 40.5173L155.92 40.5867H167.061L157.463 25.749ZM142.266 10.3799H148.778C150.821 10.3799 152.321 10.7586 153.241 11.4894C154.16 12.2203 154.61 13.3891 154.61 14.9694C154.61 16.5889 154.149 17.7792 153.241 18.5037C152.333 19.2283 150.821 19.6132 148.778 19.6132H142.266V10.3799Z" fill="#7DC34B"/>
</g>
<defs>
<clipPath id="clip0_2486_17151">
<rect width="170" height="44.9057" fill="white" transform="translate(0 0.546875)"/>
</clipPath>
</defs>
</svg>
