<svg xmlns="http://www.w3.org/2000/svg" width="185" height="44" viewBox="0 0 185 44" fill="none">
<g id="649c716d3230615831dbfcf9_Nav Logo 1" clip-path="url(#clip0_2308_6913)">
<path id="Vector" d="M152.429 0.158943C150.641 0.658297 149.545 2.01554 149.545 3.74407C149.545 5.21655 150.289 6.34331 151.724 7.03469C152.52 7.41882 152.703 7.45723 153.772 7.44445C154.763 7.44445 155.077 7.39326 155.677 7.12437C156.694 6.66339 157.164 6.21526 157.62 5.31897C158.599 3.41117 157.829 1.27289 155.859 0.389419C154.946 -0.0203194 153.446 -0.122747 152.429 0.158943Z" fill="#001848"/>
<path id="Vector_2" d="M10.8814 2.89902C8.2594 3.44959 6.0027 4.64037 4.08512 6.49696C2.14146 8.37914 1.04571 10.2229 0.341282 12.7453C0.0412764 13.8594 0.00212173 14.2177 0.00212173 16.2279C-0.0108999 18.2896 0.0282249 18.5713 0.341282 19.7237C1.61967 24.1922 4.93302 27.6494 9.31603 29.0834C10.6075 29.5058 11.1814 29.6084 14.534 29.9796C16.621 30.2101 18.3299 30.4151 18.3689 30.4534C18.3951 30.4789 18.0692 31.2855 17.6517 32.2331L16.8951 33.9617L17.1558 34.384C17.2995 34.6274 17.8344 35.5239 18.343 36.3943C18.8647 37.2778 19.2954 37.9693 19.3082 37.9564C19.3213 37.9439 20.0257 36.3817 20.8475 34.4739C21.6824 32.5789 22.4128 30.9784 22.465 30.9272C22.5433 30.8503 25.8828 31.1577 25.9611 31.2472C26.1307 31.4519 28.9615 36.3431 29.0917 36.6634C29.3658 37.3162 29.3134 38.1103 28.9484 38.8529C28.5568 39.5955 27.9308 40.0819 27.0306 40.2998C26.2481 40.4917 25.1915 40.2229 24.6697 39.685L24.3175 39.3264L24.9045 37.9693C25.2305 37.2138 25.4915 36.5353 25.4915 36.4583C25.4915 36.2024 23.2218 32.489 23.1303 32.5917C22.9998 32.7069 20.1431 39.1986 20.1431 39.3651C20.1431 39.6721 21.4998 41.5929 22.1259 42.182C24.6175 44.4738 28.5178 44.4355 30.9701 42.0667C32.2485 40.8374 32.8227 39.4417 32.8355 37.6107C32.8355 36.6248 32.7703 36.2407 32.5096 35.5622C32.2485 34.8836 28.2961 28.0462 27.996 27.726C27.9439 27.6877 27.0568 27.5467 26.0133 27.4315C24.9697 27.3162 24.1086 27.201 24.0958 27.1884C24.0827 27.1755 24.6828 25.767 25.4394 24.0384C26.1959 22.3227 26.9525 20.4534 27.1221 19.8772C29.3786 12.2075 24.4087 4.35868 16.3209 2.84781C14.8993 2.57892 12.2901 2.60452 10.8814 2.89902ZM16.0733 6.82986C16.5298 6.93229 17.3385 7.21397 17.8865 7.45723C21.1738 8.94248 23.1956 11.657 23.6652 15.2294C23.8348 16.433 23.7043 17.9053 23.3521 19.0448C23.1956 19.557 20.1821 26.5993 20.0778 26.7146C19.9735 26.8041 12.4469 25.9208 11.4293 25.6903C7.9333 24.9091 5.07653 22.0922 4.22862 18.6225C3.77206 16.753 3.95467 14.397 4.68519 12.6044C5.18088 11.3753 5.80702 10.4534 6.83755 9.44177C9.2769 7.02191 12.6164 6.07444 16.0733 6.82986Z" fill="#001848"/>
<path id="Vector_3" d="M109.238 10.4793C107.151 10.6712 105.273 11.4779 103.825 12.7837L103.238 13.3217V12.0157V10.7223H99.9768H96.7151V26.7916V42.8606H100.107H103.498V37.2268V31.5801L104.32 32.2461C105.351 33.1039 106.903 33.8208 108.312 34.0899C109.943 34.4227 112.682 34.3075 114.234 33.8465C117.535 32.8735 120 30.7863 121.383 27.803C122.622 25.1271 122.843 21.4778 121.957 18.469C120.365 13.0912 115.291 9.90307 109.238 10.4793ZM111.469 16.2409C113.112 16.7018 114.495 18.0207 115.135 19.7492C115.487 20.6968 115.617 23.0783 115.369 24.1665C115.135 25.2295 114.612 26.2026 113.882 26.9709C112.63 28.2768 111.403 28.7761 109.499 28.7761C107.595 28.7761 106.368 28.2768 105.116 26.9709C103.968 25.7673 103.498 24.4099 103.498 22.3102C103.498 20.4535 103.864 19.2757 104.816 18.0718C106.303 16.1643 108.808 15.4854 111.469 16.2409Z" fill="#001848"/>
<path id="Vector_4" d="M48.3461 10.7355C45.4762 11.3246 43.2846 12.5281 41.3933 14.5384C37.9755 18.1748 37.4147 24.039 40.0626 28.5205C40.7411 29.66 42.7891 31.6702 43.9759 32.3487C45.959 33.5011 47.9549 34.1031 50.2376 34.2695C54.5423 34.564 58.0253 33.4754 60.3862 31.1069C61.13 30.3643 62.1473 28.9045 62.1473 28.5845C62.1473 28.4564 57.1773 25.7035 56.9556 25.7035C56.9035 25.7035 56.7076 25.9595 56.4991 26.2669C55.9773 27.0864 55.0772 27.8416 54.0858 28.3025C53.2377 28.6997 53.1465 28.7123 51.5029 28.7123H49.8071L48.8026 28.2259C46.0764 26.9071 44.824 24.0645 45.5284 20.7355C46.0243 18.3795 47.7591 16.5869 50.0288 16.1005C51.229 15.8443 53.055 15.9853 53.9815 16.395C54.9857 16.856 55.7684 17.4834 56.3817 18.3412C56.6424 18.7252 56.9163 19.0327 56.9687 19.0455C57.0209 19.0455 58.2339 18.4307 59.6687 17.6752L62.2647 16.3052L61.9908 15.7931C60.6341 13.1684 57.8948 11.3117 54.4511 10.6715C52.9117 10.3769 49.9114 10.4155 48.3461 10.7355Z" fill="#001848"/>
<path id="Vector_5" d="M141.328 10.659C139.371 11.0434 138.002 11.709 136.763 12.8614C136.306 13.3095 135.901 13.6681 135.888 13.6681C135.863 13.6681 135.849 13.0021 135.849 12.1954V10.7231H132.588H129.327V22.3747V34.0266H132.706H136.084L136.149 27.778C136.189 22.5411 136.24 21.4274 136.411 20.8128C137.037 18.6617 138.197 17.4452 140.219 16.8435C140.924 16.6256 141.458 16.5619 142.607 16.5619H144.067V13.5145V10.4672L143.128 10.4798C142.607 10.4798 141.798 10.5695 141.328 10.659Z" fill="#001848"/>
<path id="Vector_6" d="M171.839 10.6717C166.973 11.5296 164.168 14.1801 164.155 17.9189C164.155 19.865 164.716 21.2734 165.943 22.3746C167.352 23.6422 169.086 24.2312 173.509 24.9355C176.587 25.4219 177.54 25.6907 178.048 26.2157C178.544 26.7153 178.596 27.5345 178.166 28.0853C176.835 29.8521 171.095 29.5959 166.921 27.5985C166.321 27.3169 165.825 27.0993 165.799 27.1247C165.682 27.2786 163.634 31.6959 163.634 31.8112C163.634 31.9904 165.525 32.8866 166.634 33.2452C167.821 33.6167 169.504 33.9878 170.808 34.1543C172.387 34.3593 175.596 34.3336 177.07 34.1031C181.818 33.3476 184.688 30.9405 184.975 27.4579C185.223 24.3848 183.631 22.0929 180.527 21.0814C179.587 20.7741 178.57 20.5564 173.809 19.6729C171.538 19.2502 170.678 18.6998 170.678 17.701C170.678 15.2684 176.417 14.7051 180.879 16.7024C181.439 16.9584 181.923 17.1377 181.962 17.1122C181.987 17.0736 182.51 16.0239 183.109 14.7563L184.218 12.4515L183.227 11.9777C182.066 11.4272 180.292 10.9406 178.44 10.6589C176.809 10.4155 173.208 10.4284 171.839 10.6717Z" fill="#001848"/>
<path id="Vector_7" d="M64.6271 10.8121C64.6271 10.8507 66.923 16.1388 69.7404 22.5535L74.841 34.2051L74.4234 34.9992C73.9018 35.9849 73.2365 36.6763 72.4666 37.0094C71.2143 37.5599 68.9186 37.2399 67.6403 36.318C67.3401 36.113 67.0663 35.9465 67.0142 35.9465C66.9489 35.9465 66.3619 36.9965 65.6965 38.2771C64.5878 40.428 64.5096 40.6201 64.7052 40.8249C65.0574 41.1963 66.5967 41.9261 67.8229 42.2975C68.8796 42.6175 69.2058 42.6432 71.019 42.6558C73.3276 42.6687 74.4106 42.4382 75.9888 41.6315C77.5677 40.812 79.1067 39.1475 80.1242 37.1501C80.3199 36.7661 88.642 17.6623 91.4597 11.1323L91.6298 10.7226H88.3425H85.0417L81.7159 18.5459C79.8894 22.848 78.3632 26.382 78.324 26.4075C78.2849 26.4332 76.7715 22.9121 74.9449 18.5842L71.632 10.7226H68.1361C66.2055 10.7226 64.6271 10.7609 64.6271 10.8121Z" fill="#001848"/>
<path id="Vector_8" d="M150.33 22.3742V34.0261H153.787H157.244V22.3742V10.7226H153.787H150.33V22.3742Z" fill="#001848"/>
</g>
<defs>
<clipPath id="clip0_2308_6913">
<rect width="185" height="44" fill="white"/>
</clipPath>
</defs>
</svg>
