<svg width="248" height="103" viewBox="0 0 248 103" fill="none" xmlns="http://www.w3.org/2000/svg">
  <path d="M205.862 102.528C208.28 102.528 209.841 101.308 211.204 97.9914L217.942 81.4065H215.4L210.233 94.7881L204.395 81.4065H201.75L209.045 97.4024C208.084 99.6654 207.185 100.409 205.759 100.409C204.882 100.435 204.013 100.232 203.238 99.8204L202.432 101.711C203.487 102.261 204.662 102.541 205.852 102.528M196.81 97.7434C197.816 97.7605 198.811 97.5261 199.704 97.0614V94.9948C198.981 95.3653 198.18 95.5567 197.368 95.5528C197.004 95.6077 196.632 95.577 196.282 95.4629C195.932 95.3489 195.613 95.1547 195.351 94.8959C195.09 94.637 194.892 94.3206 194.774 93.9718C194.656 93.623 194.62 93.2515 194.671 92.8868V83.5042H199.766V81.4375H194.671V76.5602H192.274V81.4065H190.042V83.4732H192.274V93.1658C192.274 96.4311 194.237 97.7021 196.81 97.7021M184.111 97.4231H186.498V81.4065H184.111V97.4231ZM183.956 77.8519H186.684V75.2065H183.956V77.8519ZM174.356 97.7331C177.559 97.7331 180.07 95.9558 180.07 92.9178V92.8558C180.07 89.9625 177.404 89.0015 174.904 88.2575C172.765 87.6065 170.77 87.0175 170.77 85.4882V85.4262C170.77 84.0932 171.99 83.1012 173.87 83.1012C175.568 83.1652 177.214 83.702 178.624 84.6512L179.657 82.8532C177.934 81.7364 175.933 81.1243 173.881 81.0862C170.708 81.0862 168.414 82.9152 168.414 85.6742V85.7362C168.414 88.6915 171.204 89.5595 173.726 90.2725C175.792 90.8615 177.735 91.4918 177.735 93.1038V93.1658C177.735 94.7158 176.33 95.7078 174.408 95.7078C172.38 95.6374 170.43 94.9123 168.848 93.6411L167.639 95.3461C169.534 96.8432 171.869 97.6747 174.284 97.7124M157.017 97.4024H159.404V91.0268C159.404 86.1908 162.266 83.6695 165.769 83.6695H165.955V81.0965C164.536 81.0728 163.144 81.4892 161.971 82.2885C160.798 83.0879 159.901 84.2309 159.404 85.5605V81.3755H157.017V97.4024ZM140.68 88.4228C141.021 85.3228 143.129 83.0185 145.898 83.0185C149.06 83.0185 150.744 85.4985 151.065 88.4228H140.68ZM140.68 90.3448H153.545V89.5078C153.545 84.7855 150.817 81.0035 146.064 81.0035C141.62 81.0035 138.355 84.7235 138.355 89.3838C138.302 90.4684 138.47 91.5525 138.849 92.5701C139.228 93.5876 139.811 94.5172 140.561 95.3023C141.311 96.0874 142.214 96.7114 143.213 97.1365C144.212 97.5615 145.288 97.7786 146.373 97.7744C147.633 97.8087 148.883 97.5546 150.03 97.0317C151.176 96.5087 152.187 95.7307 152.987 94.7571L151.478 93.4861C150.847 94.2053 150.067 94.7797 149.193 95.1702C148.32 95.5608 147.372 95.7582 146.415 95.7491C144.964 95.764 143.564 95.2155 142.51 94.2191C141.456 93.2226 140.829 91.8559 140.763 90.4068M128.022 97.5884H130.088L137.074 81.4065H134.501L129.065 94.7261L123.661 81.4065H121.016L128.022 97.5884ZM115.312 97.4644H117.709V81.4065H115.312V97.4644ZM115.157 77.8932H117.895V75.2479H115.157V77.8932ZM96.5568 97.4644H98.9437V88.2678C98.9006 87.6142 98.9939 86.9587 99.2177 86.3431C99.4415 85.7275 99.791 85.1652 100.244 84.6919C100.697 84.2186 101.243 83.8447 101.848 83.594C102.453 83.3433 103.104 83.2212 103.759 83.2355C106.59 83.2355 108.202 85.0955 108.202 88.0818V97.4644H110.589V87.4928C110.589 83.6695 108.326 81.0655 104.441 81.0655C103.329 81.0292 102.228 81.2991 101.258 81.8458C100.289 82.3924 99.4883 83.1949 98.9437 84.1655V81.3755H96.5568V97.4644ZM82.6998 97.8054C88.1351 97.8054 91.7724 94.5091 91.7724 88.1748V75.7232H89.3131V88.3608C89.3131 93.1141 86.7711 95.5321 82.7618 95.5321C78.7525 95.5321 76.1175 92.8971 76.1175 88.2058V75.7232H73.6582V88.3608C73.6582 94.5608 77.3265 97.8054 82.6998 97.8054Z" fill="#002A41"/>
  <path d="M218.714 66.4235V64.4498H218.58C217.649 64.4729 216.724 64.2894 215.873 63.9125C215.098 63.5508 214.715 62.6828 214.715 61.2982V51.3679C214.706 50.0958 214.88 48.829 215.232 47.6066C215.523 46.5329 216.111 45.5626 216.927 44.8063C217.842 44.0624 219.005 43.6931 220.182 43.7729C220.913 43.6997 221.65 43.8173 222.322 44.1144C222.994 44.4114 223.577 44.8777 224.015 45.4676C224.829 46.9145 225.212 48.5635 225.121 50.2209V66.4545H233.305V64.4808H233.16C232.256 64.516 231.358 64.3129 230.556 63.8918C229.874 63.4992 229.523 62.5692 229.523 61.0915V50.7272C229.511 49.5481 229.678 48.3739 230.019 47.2449C230.301 46.2521 230.865 45.3622 231.641 44.6823C232.521 43.9912 233.624 43.6458 234.741 43.7109C235.474 43.6358 236.213 43.7526 236.887 44.0497C237.561 44.3468 238.146 44.8141 238.585 45.4056C239.398 46.8525 239.782 48.5015 239.691 50.1589V66.3925H247.875V64.4188H247.73C246.825 64.454 245.927 64.2509 245.126 63.8298C244.444 63.4372 244.093 62.5072 244.093 61.0295V49.9522C244.093 46.7282 243.404 44.386 242.026 42.9256C241.297 42.181 240.418 41.6004 239.447 41.2226C238.476 40.8449 237.435 40.6786 236.394 40.7349C234.995 40.7235 233.608 41.005 232.323 41.5616C230.858 42.3023 229.688 43.5194 229.006 45.0129H228.634C228.171 43.6053 227.198 42.422 225.906 41.6959C224.628 41.0406 223.209 40.7105 221.773 40.7349C220.419 40.7136 219.077 40.9961 217.846 41.5616C216.446 42.3419 215.334 43.5519 214.674 45.0129H214.509L213.899 41.1999H206.511V43.1839H206.645C207.542 43.152 208.434 43.3437 209.239 43.7419C209.931 44.1243 210.272 45.0026 210.272 46.3769V61.0605C210.272 62.5382 209.941 63.4682 209.239 63.8608C208.434 64.2837 207.532 64.4868 206.624 64.4498H206.015V66.4235H218.714ZM186.102 59.6035C186.049 58.8345 186.157 58.0628 186.421 57.3384C186.684 56.6139 187.097 55.9528 187.632 55.3979C188.651 54.4403 190.494 53.8961 193.16 53.7652L196.177 53.6309V57.4439C196.267 59.1969 195.658 60.9139 194.483 62.2178C193.887 62.8152 193.173 63.2811 192.386 63.5855C191.6 63.8898 190.758 64.0259 189.915 63.9848C187.373 63.9848 186.102 62.5175 186.102 59.6035ZM192.034 66.3098C192.87 65.9275 193.621 65.3831 194.245 64.7082C194.93 63.9684 195.575 63.1923 196.177 62.3832H196.549L197.304 66.4235H203.659V64.4498H203.514C203.11 64.4913 202.703 64.4503 202.316 64.3296C201.928 64.2088 201.57 64.0106 201.261 63.7472C200.728 62.9588 200.494 62.0062 200.6 61.0605V48.8776C200.6 45.8913 199.887 43.7936 198.461 42.5639C197.035 41.3343 194.875 40.7349 191.992 40.7349C190.557 40.7186 189.125 40.8677 187.725 41.1793C186.588 41.4046 185.524 41.9049 184.625 42.6363C184.258 42.963 183.967 43.3668 183.774 43.8187C183.582 44.2706 183.491 44.7595 183.509 45.2506C183.469 45.6881 183.543 46.1284 183.724 46.5286C183.905 46.9289 184.187 47.2753 184.542 47.5342C185.45 48.0482 186.488 48.2853 187.528 48.2162C187.518 47.3282 187.622 46.4426 187.838 45.5813C188.011 44.8362 188.452 44.1811 189.078 43.7419C189.892 43.2597 190.831 43.0296 191.775 43.0806C192.79 43.0066 193.801 43.2719 194.648 43.8349C195.287 44.3589 195.722 45.0901 195.878 45.9016C196.076 46.8844 196.17 47.8854 196.157 48.8879V51.7089L192.251 51.8432C188.644 51.9776 185.947 52.6286 184.18 53.8272C183.293 54.4411 182.582 55.2759 182.116 56.2491C181.65 57.2223 181.446 58.3001 181.525 59.3762C181.525 61.9492 182.207 63.8505 183.591 65.0698C184.764 65.9952 186.158 66.5975 187.636 66.8169C189.113 67.0362 190.622 66.865 192.013 66.3201M164.671 66.4338V64.4602H164.526C163.599 64.4852 162.677 64.3016 161.829 63.9228C161.054 63.5612 160.672 62.6932 160.672 61.3085V51.3679C160.575 49.422 161.057 47.4909 162.057 45.8189C162.534 45.13 163.182 44.5771 163.938 44.2147C164.693 43.8524 165.53 43.693 166.366 43.7523C168.277 43.7523 169.621 44.3206 170.385 45.4469C171.237 46.8803 171.64 48.5358 171.543 50.2002V66.4338H179.727V64.4602H179.592C178.684 64.4972 177.783 64.294 176.978 63.8712C176.306 63.4785 175.945 62.5485 175.945 61.0708V49.9522C175.945 46.7282 175.232 44.386 173.806 42.9256C172.977 42.1557 171.999 41.5641 170.933 41.1873C169.867 40.8105 168.734 40.6565 167.606 40.7349C166.17 40.6816 164.751 41.0609 163.533 41.8237C162.315 42.5865 161.354 43.6976 160.775 45.0129H160.538C160.6 44.1656 160.641 43.4319 160.683 42.8016C160.724 42.1713 160.683 41.5823 160.683 41.0139V30.6807H152.023V32.6543H152.406C153.336 32.6354 154.259 32.8298 155.103 33.2227C155.878 33.5947 156.26 34.4833 156.26 35.8576V61.0605C156.26 62.5382 155.878 63.4682 155.134 63.8608C154.285 64.2744 153.349 64.4765 152.406 64.4498H152.023V66.4235L164.671 66.4338ZM145.1 66.4338V64.4602H143.777C142.846 64.4822 141.922 64.2988 141.07 63.9228C140.305 63.5612 139.923 62.6932 139.923 61.3085V53.9202C139.929 52.8829 140.005 51.8472 140.15 50.8202C140.309 49.6955 140.561 48.586 140.905 47.5032C141.195 46.5359 141.677 45.6365 142.32 44.8579C142.588 44.5317 142.926 44.2695 143.309 44.0907C143.691 43.9119 144.109 43.821 144.532 43.8246C144.902 43.7902 145.275 43.8531 145.614 44.0072C145.953 44.1612 146.246 44.401 146.464 44.7029C146.901 45.5685 147.093 46.5365 147.022 47.5032C148.235 47.635 149.454 47.3109 150.442 46.5939C150.777 46.2898 151.042 45.9175 151.22 45.5021C151.398 45.0868 151.485 44.6381 151.476 44.1863C151.499 43.6915 151.396 43.1989 151.177 42.7544C150.959 42.3099 150.631 41.928 150.225 41.6443C149.066 40.9689 147.73 40.6592 146.392 40.7556C145.267 40.6982 144.147 40.9407 143.147 41.4583C142.378 41.9156 141.732 42.5542 141.266 43.3183C140.766 44.1403 140.324 44.9966 139.944 45.8809H139.706L138.817 41.2206H131.584V43.1839H131.729C132.662 43.1638 133.587 43.3546 134.436 43.7419C135.201 44.1243 135.593 45.0026 135.593 46.3769V61.0605C135.593 62.5382 135.211 63.4682 134.457 63.8608C133.608 64.2744 132.672 64.4765 131.729 64.4498H131.584V66.4235L145.1 66.4338ZM118.078 66.0825C119.583 65.3486 120.793 64.124 121.509 62.6105H121.747L122.356 66.4235H129.848V64.4498H129.703C128.772 64.4729 127.848 64.2894 126.996 63.9125C126.221 63.5508 125.839 62.6828 125.839 61.2982V41.1999H117.376V43.1839H117.52C118.463 43.1589 119.397 43.3572 120.248 43.7626C121.003 44.1656 121.375 45.0956 121.375 46.5732V56.2659C121.468 58.2076 120.979 60.1328 119.969 61.7942C119.457 62.4991 118.771 63.0597 117.978 63.4218C117.185 63.7838 116.312 63.9351 115.443 63.8608C113.532 63.8608 112.23 63.3028 111.537 62.1765C110.777 60.7118 110.421 59.0712 110.504 57.4232V41.1999H102.082V43.1839H102.227C103.157 43.1618 104.079 43.3527 104.924 43.7419C105.699 44.1243 106.081 45.0026 106.081 46.3769V57.6712C106.081 60.9021 106.77 63.2477 108.148 64.7082C108.894 65.4617 109.793 66.047 110.784 66.4248C111.775 66.8026 112.835 66.9642 113.893 66.8988C115.344 66.9132 116.782 66.632 118.12 66.0722M78.7603 35.2273H82.8936C86.5929 35.2273 89.3829 36.4673 91.2429 38.9473C93.1028 41.4273 94.0432 44.9923 94.0432 49.6319C94.0432 54.2715 93.1132 57.8985 91.2429 60.3372C89.3725 62.7758 86.5825 64.0778 82.8419 64.0778H78.7086L78.7603 35.2273ZM83.9269 66.4751C86.8948 66.5845 89.8349 65.8691 92.4209 64.4085C94.7064 63.0447 96.5118 61.0046 97.5875 58.5702C98.7986 55.7495 99.3872 52.7007 99.3131 49.6319C99.3131 44.2999 97.9629 40.1666 95.2625 37.232C92.5621 34.2973 88.7973 32.8403 83.9682 32.861H69.543V34.8346H70.1526C71.0869 34.8119 72.0137 35.0065 72.86 35.403C73.6246 35.775 74.0069 36.6533 74.0069 38.038V61.0605C74.0069 62.5382 73.6349 63.4682 72.8806 63.8608C72.0321 64.2744 71.0962 64.4765 70.1526 64.4498H69.543V66.4235L83.9269 66.4751Z" fill="#002A41"/>
  <path d="M64.3059 29.4297C64.7914 21.6492 64.4241 13.839 63.2105 6.13845C63.0626 5.20211 62.6271 4.33498 61.9642 3.65731C61.3013 2.97965 60.4441 2.52502 59.5112 2.35647C51.7653 0.749931 43.8723 -0.0397187 35.9617 0.000484383C34.9935 8.35591 34.5173 16.761 34.5357 25.1724V29.192L35.476 29.285C35.9307 29.285 36.1063 29.5743 36.1683 30.029C36.2303 30.4837 36.2923 31.0623 36.2923 31.0623C36.2923 31.0623 53.3112 30.9383 64.3059 29.4297Z" fill="#68246D"/>
  <path d="M30.1019 37.4177L29.1512 37.2937C28.6966 37.242 28.5106 37.0043 28.4589 36.5393C28.4073 36.0744 28.3349 35.506 28.3349 35.506C19.2845 35.3612 10.2356 35.8828 1.26172 37.0663C2.73938 45.5706 12.463 64.8009 28.1283 73.0262C28.9032 66.6609 30.1226 51.1299 30.1226 41.1583V37.3557L30.1019 37.4177Z" fill="#68246D"/>
  <path d="M36.3423 35.568C45.4168 35.4233 54.4897 35.9448 63.4879 37.1283C61.9999 45.6326 52.2866 64.8629 36.6213 73.0882C35.8463 66.7229 34.5547 51.1919 34.5547 41.2203V37.4177L35.464 37.335C35.9083 37.2833 36.0943 37.0457 36.1563 36.5807C36.2183 36.1157 36.27 35.5474 36.27 35.5474L36.3423 35.568Z" fill="#68246D"/>
  <path d="M15.6373 18.3527C15.6164 18.3944 15.6055 18.4404 15.6055 18.4871C15.6055 18.5337 15.6164 18.5797 15.6373 18.6214C15.7467 18.6091 15.8523 18.5739 15.9473 18.5181C16.0314 18.4626 16.1108 18.4004 16.1849 18.3321C16.0021 18.3283 15.8193 18.3352 15.6373 18.3527Z" fill="#702567"/>
  <path d="M15.4786 14.561L0.154297 29.4306C9.45219 30.639 18.8233 31.1949 28.1988 31.0943H28.3435C28.3435 31.0943 28.4055 30.588 28.4572 30.061C28.5088 29.534 28.6948 29.3583 29.1495 29.317L30.1002 29.224L15.4786 14.561ZM14.1456 18.932C14.0732 19.18 14.0836 19.5003 14.4246 19.5003C14.7149 19.4587 14.9951 19.3641 15.2512 19.2213V19.3143C14.9051 19.5797 14.5017 19.7602 14.0732 19.8413C14.0278 19.8473 13.9817 19.8434 13.9379 19.8299C13.8941 19.8165 13.8538 19.7938 13.8195 19.7635C13.7852 19.7331 13.7579 19.6958 13.7392 19.654C13.7206 19.6121 13.7112 19.5668 13.7116 19.521C13.7529 19.2627 13.9389 19.18 14.1456 18.932ZM19.1365 22.497C19.1365 22.7657 18.7232 22.9207 18.6509 23.0447C18.6069 23.0873 18.5748 23.1408 18.5579 23.1997C18.5062 23.024 18.5579 22.8897 18.5579 22.7657C18.5579 22.6417 18.4545 22.559 18.3202 22.559C18.2047 22.6142 18.102 22.6929 18.0187 22.79C17.9353 22.8872 17.8732 23.0007 17.8362 23.1232C17.7993 23.2458 17.7883 23.3747 17.804 23.5018C17.8197 23.6288 17.8618 23.7511 17.9275 23.861C17.913 23.767 17.9173 23.671 17.9404 23.5787C17.9635 23.4865 18.0048 23.3997 18.0619 23.3237C18.1185 23.2537 18.1479 23.1656 18.1445 23.0757C18.2297 23.2123 18.2761 23.3694 18.2789 23.5303C18.2789 23.8817 18.0205 23.954 18.1342 24.2227C18.1342 24.295 18.1859 24.3467 18.2169 24.4397C18.2002 24.3335 18.2002 24.2254 18.2169 24.1193C18.2169 24.0367 18.3719 23.8713 18.3822 23.8093C18.3981 23.7413 18.3981 23.6706 18.3822 23.6027C18.4439 23.6672 18.4922 23.7434 18.5241 23.8268C18.5561 23.9101 18.571 23.9991 18.5682 24.0883C18.5678 24.2655 18.5137 24.4384 18.4132 24.5843C18.3726 24.673 18.3448 24.7669 18.3305 24.8633C18.2582 25.442 17.9689 25.721 17.5969 25.721C17.4394 25.7216 17.2839 25.6863 17.1422 25.6176C17.1422 26.3616 16.2846 26.31 16.2846 26.7956C16.2989 26.9442 16.3647 27.0831 16.4706 27.1883C16.6723 27.2964 16.8627 27.4245 17.0389 27.5706C16.8546 27.5705 16.6772 27.6407 16.5429 27.767C16.8529 27.922 16.8426 28.0976 16.8839 28.325C16.5842 28.1803 16.4396 28.263 16.3672 28.325C16.2949 28.387 16.3672 28.5523 16.2122 28.697C16.2122 28.5833 16.0882 28.48 15.9539 28.48C15.7856 28.5294 15.6418 28.6399 15.5509 28.79C15.5554 28.83 15.5512 28.8706 15.5385 28.9088C15.5259 28.9471 15.5051 28.9821 15.4776 29.0116C15.4501 29.0411 15.4166 29.0642 15.3793 29.0795C15.342 29.0947 15.3018 29.1017 15.2616 29.1C15.2154 29.1468 15.1818 29.2044 15.1638 29.2676C15.1457 29.3308 15.1438 29.3975 15.1582 29.4616C15.0446 29.348 15.0239 29.2756 15.0652 29.069C14.9309 29.069 14.9516 28.8933 14.9929 28.8003C14.9102 28.8726 14.8379 28.9656 14.6519 28.8726C14.6034 28.9002 14.5621 28.939 14.5316 28.9857C14.501 29.0324 14.4821 29.0858 14.4762 29.1413C14.4762 28.8313 14.4762 28.728 14.5796 28.6866C14.567 28.6318 14.5734 28.5743 14.5978 28.5236C14.6222 28.4729 14.6632 28.432 14.7139 28.4076V28.3456C14.6704 28.349 14.6267 28.3413 14.5869 28.3233C14.5472 28.3052 14.5126 28.2773 14.4866 28.2423C14.3832 28.2423 14.2489 28.3456 14.2282 28.4076C14.214 28.3338 14.2178 28.2577 14.2394 28.1857C14.261 28.1137 14.2997 28.048 14.3522 27.9943C14.4659 27.7566 14.6829 27.7153 14.8172 27.8496C14.9411 27.9472 15.0935 28.0017 15.2512 28.0046C15.3258 27.9987 15.3984 27.9773 15.4642 27.9417C15.5301 27.9061 15.5877 27.8571 15.6336 27.798C15.664 27.7645 15.6885 27.7261 15.7059 27.6843C15.7059 27.5913 15.8196 27.488 15.6336 27.2503C15.4476 27.0126 15.1272 26.713 15.1169 26.465C15.112 26.308 15.1429 26.1519 15.2074 26.0087C15.2719 25.8654 15.3681 25.7388 15.4889 25.6383H15.3442C15.0756 25.6383 15.0549 25.473 14.7862 25.473C14.6948 25.4809 14.6102 25.5242 14.5503 25.5938C14.4905 25.6633 14.4602 25.7534 14.4659 25.845C14.4606 25.9591 14.4933 26.0718 14.5589 26.1653C14.6387 26.2796 14.672 26.42 14.6519 26.558C14.582 26.4785 14.4849 26.4281 14.3798 26.4167C14.2746 26.4052 14.1689 26.4335 14.0836 26.496C14.0719 26.5711 14.0448 26.6429 14.0039 26.707C13.963 26.771 13.9092 26.8259 13.8459 26.868C13.8263 26.8029 13.7898 26.7443 13.74 26.6981C13.6902 26.6519 13.6291 26.6198 13.5628 26.605C13.4965 26.5903 13.4274 26.5935 13.3628 26.6143C13.2981 26.6351 13.2402 26.6727 13.1949 26.7233C13.1949 26.7956 13.1329 26.9506 12.9262 26.9506H12.7506C12.6671 27.0232 12.6031 27.1156 12.5646 27.2193C12.5492 27.1557 12.5476 27.0896 12.5601 27.0254C12.5726 26.9612 12.5988 26.9005 12.6369 26.8473C12.6369 26.775 12.6369 26.5993 12.7196 26.5476C12.6616 26.6044 12.5837 26.6363 12.5026 26.6363C12.4214 26.6363 12.3435 26.6044 12.2856 26.5476C12.2029 26.5476 12.1306 26.6096 12.0479 26.775C12.0496 26.6194 12.1127 26.4708 12.2236 26.3616C12.2236 26.2376 12.3992 26.124 12.5852 26.1653V26.1033C12.5852 26.1033 12.3579 26.1033 12.3682 25.8553C12.321 25.8428 12.2714 25.8429 12.2242 25.8556C12.1771 25.8683 12.1341 25.8931 12.0996 25.9276C12.1258 25.8574 12.1722 25.7965 12.2328 25.7524C12.2934 25.7083 12.3657 25.683 12.4406 25.6796C12.4406 25.597 12.6059 25.5866 12.6782 25.5866C12.7269 25.5816 12.7758 25.5932 12.8171 25.6194C12.8583 25.6457 12.8895 25.6851 12.9056 25.7313C12.9859 25.8361 13.0916 25.9186 13.2128 25.9711C13.334 26.0235 13.4665 26.0441 13.5979 26.031C13.6327 26.031 13.6672 26.024 13.6992 26.0104C13.7312 25.9968 13.7602 25.9768 13.7843 25.9517C13.8084 25.9266 13.8273 25.8969 13.8396 25.8643C13.852 25.8318 13.8576 25.7971 13.8562 25.7623C13.8562 25.597 13.5876 25.1216 13.5876 24.9047C13.6283 24.753 13.7094 24.6153 13.8222 24.5061C13.935 24.3969 14.0754 24.3204 14.2282 24.2847C14.6309 24.2967 15.0246 24.4066 15.3752 24.605C15.6336 24.605 15.6646 24.605 15.6956 24.5223C15.3236 24.0573 15.0962 24.0677 14.7346 23.83C14.6522 23.7664 14.5833 23.687 14.5318 23.5966C14.4804 23.5061 14.4474 23.4063 14.4349 23.303C14.2179 23.3547 14.0112 23.644 13.9079 23.83C13.8862 23.79 13.8552 23.756 13.8173 23.7307C13.7795 23.7055 13.7361 23.6899 13.6909 23.6853C13.5152 23.6853 13.3912 23.9127 13.3086 24.109C13.2965 23.9972 13.2453 23.8934 13.164 23.8158C13.0826 23.7382 12.9764 23.692 12.8642 23.6853C12.7196 23.6853 12.5542 23.6853 12.5129 23.83C12.4812 23.901 12.4255 23.9586 12.3556 23.9926C12.2857 24.0266 12.206 24.0349 12.1306 24.016C12.0479 24.016 11.9859 24.0883 11.9342 24.326C11.8619 24.0263 11.9342 23.9747 11.9342 23.9023C11.9147 23.8492 11.9111 23.7916 11.9239 23.7365C11.9368 23.6814 11.9655 23.6313 12.0066 23.5923C11.8929 23.5923 11.7172 23.5923 11.6759 23.52C11.6346 23.4477 11.5002 23.52 11.3969 23.6957C11.4012 23.6145 11.4263 23.5357 11.4697 23.467C11.5131 23.3982 11.5734 23.3418 11.6449 23.303C11.6772 23.251 11.7232 23.209 11.778 23.1816C11.8327 23.1543 11.894 23.1426 11.9549 23.148V23.0963C11.9101 23.0707 11.8735 23.0328 11.8497 22.9869C11.8259 22.9411 11.8158 22.8894 11.8206 22.838C11.7276 22.7243 11.6139 22.838 11.5312 22.838C11.6862 22.6727 11.8722 22.6107 11.9859 22.683C12.0996 22.7553 12.3476 22.683 12.3786 22.869C12.4096 23.055 12.6679 23.0653 12.9469 23.0653C13.5566 23.0653 14.5176 22.497 14.4452 22.032C14.3562 22.0184 14.2656 22.0184 14.1766 22.032C13.8459 22.032 13.4429 22.435 13.1432 22.4453C13.2982 22.2593 13.1432 22.0837 13.2879 21.9493C13.0603 21.998 12.8283 22.0222 12.5956 22.0217C12.7077 21.9242 12.778 21.7873 12.7919 21.6393C12.7919 21.5567 12.7919 21.3913 12.4302 21.3913C12.3616 21.4003 12.2922 21.4003 12.2236 21.3913C12.1409 21.3913 11.9032 21.3913 11.9032 21.1847C11.8439 21.1708 11.782 21.173 11.7238 21.1912C11.6657 21.2094 11.6134 21.2428 11.5726 21.288C11.6413 21.144 11.7637 21.0327 11.9136 20.978C11.9297 20.9389 11.9568 20.9054 11.9917 20.8815C12.0266 20.8577 12.0677 20.8445 12.1099 20.8437V20.7713C12.1099 20.699 11.8309 20.7093 11.8309 20.513C11.8309 20.3167 11.6862 20.4097 11.5002 20.4613C11.7379 20.2857 11.8206 20.3167 11.9032 20.3373C11.9544 20.2916 12.0206 20.2663 12.0892 20.2663C12.1579 20.2663 12.2241 20.2916 12.2752 20.3373C12.2507 20.2893 12.238 20.2362 12.238 20.1823C12.238 20.1285 12.2507 20.0753 12.2752 20.0273C12.2752 19.893 12.2029 19.8517 12.0789 19.8207C12.164 19.8082 12.2509 19.8167 12.332 19.8455C12.413 19.8744 12.4858 19.9226 12.5439 19.986C12.6067 19.9945 12.665 20.0233 12.7098 20.0681C12.7546 20.1129 12.7834 20.1712 12.7919 20.234C12.7919 20.482 12.5336 20.6577 13.0399 20.9263C13.2392 21.0123 13.4427 21.0881 13.6496 21.1537C13.8519 21.2238 14.0591 21.2791 14.2696 21.319C14.1869 21.1847 14.2696 21.04 14.0732 20.9057C14.2477 20.9087 14.4212 20.933 14.5899 20.978C14.5899 20.7817 14.5899 20.7817 14.4762 20.6577H14.8379C15.4166 20.7197 15.4269 20.4303 15.5406 20.0583C15.2394 20.0719 14.9472 20.1646 14.6932 20.327C14.7037 20.2308 14.7037 20.1338 14.6932 20.0377C14.6917 20.0101 14.6961 19.9826 14.7059 19.9569C14.7158 19.9311 14.7309 19.9077 14.7504 19.8882C14.7699 19.8687 14.7933 19.8536 14.8191 19.8437C14.8448 19.8338 14.8724 19.8295 14.8999 19.831H15.0859C15.2099 19.831 15.3856 19.6863 15.3029 19.397C15.2202 19.1077 15.1582 19.18 15.0446 19.211L14.8069 19.2833C14.7654 19.3019 14.7304 19.3325 14.7064 19.3712C14.6825 19.4099 14.6707 19.4549 14.6726 19.5003L14.6002 19.2937L14.5279 19.1387V19.0767C14.5148 19.0478 14.5085 19.0162 14.5096 18.9845C14.5106 18.9528 14.5189 18.9217 14.5339 18.8937C14.5489 18.8658 14.5702 18.8416 14.596 18.8232C14.6218 18.8047 14.6516 18.7924 14.6829 18.7873L15.0549 18.6943C15.2616 18.6323 15.3236 18.56 15.3649 18.4463C15.4062 18.3327 15.4372 18.2914 15.6232 18.2914H16.1089C16.3982 18.2914 16.7082 18.064 16.6049 17.816C16.8012 17.816 16.8839 18.1674 16.8322 18.2914C16.9973 18.2819 17.1589 18.2397 17.3075 18.1674C17.2857 18.3805 17.182 18.5769 17.0182 18.715C17.188 18.7346 17.3599 18.706 17.5142 18.6323C17.4541 18.8438 17.3402 19.0361 17.1835 19.1903C17.3161 19.2286 17.4369 19.2999 17.5345 19.3974C17.632 19.495 17.7033 19.6158 17.7415 19.7483C17.5349 19.6657 17.4212 19.7483 17.2455 19.7483C17.4683 20.0643 17.6555 20.4039 17.8035 20.761C17.6606 20.6785 17.5121 20.606 17.3592 20.544C17.5142 20.8953 17.2972 21.2363 17.3592 21.4223C17.2384 21.369 17.1321 21.2875 17.0492 21.1847C16.9293 21.4242 16.8826 21.6937 16.9149 21.9597C16.8173 21.8717 16.7098 21.7954 16.5945 21.7323C16.42 21.9665 16.3423 22.2588 16.3776 22.5487C16.4071 23.1033 16.5626 23.644 16.8322 24.1297C16.9756 24.3985 17.0766 24.6877 17.1319 24.9873C17.1511 25.1088 17.2123 25.2198 17.3048 25.3009C17.3973 25.3821 17.5152 25.4283 17.6382 25.4316C17.7615 25.4212 17.8762 25.364 17.9588 25.2718C18.0414 25.1796 18.0856 25.0594 18.0825 24.9357C18.0825 24.45 17.4832 24.14 17.4832 23.272C17.4832 22.7037 17.9275 22.4247 17.9379 22.063C17.9482 21.7013 17.6485 21.939 17.4315 21.7943C17.7105 21.7943 17.8759 21.4327 18.1239 21.443C18.3719 21.4533 18.4029 21.5773 18.4132 21.691C18.4102 21.831 18.3672 21.9673 18.2892 22.0837C18.4957 21.9091 18.6255 21.6605 18.6509 21.3913C18.6509 21.1537 18.3099 20.885 18.3925 20.42V20.327C18.4855 20.8437 19.2295 20.978 19.2295 21.4947C19.2295 22.0113 18.8059 21.8977 18.5682 22.2283C18.8369 22.156 19.1365 22.2077 19.1365 22.497Z" fill="#68246D"/>
  <path d="M28.6958 0.00105327C20.7833 -0.00798301 12.89 0.781343 5.13592 2.35704C4.21062 2.53096 3.36237 2.98847 2.70877 3.66614C2.05517 4.3438 1.62863 5.20804 1.48827 6.13902C0.312877 12.8365 -0.168446 19.6373 0.0519437 26.4336C1.57094 24.9869 15.5519 11.378 15.5519 11.378L30.1218 25.9273C30.1382 17.2651 29.6621 8.60911 28.6958 0.00105327ZM6.99591 4.7027C6.93391 4.9507 6.93391 5.27103 7.28524 5.27103C7.58158 5.22726 7.8682 5.13289 8.13257 4.99203V5.08503C7.7782 5.35149 7.3686 5.5351 6.93391 5.62236C6.65491 5.62236 6.55158 5.45703 6.55158 5.29169C6.55158 5.12636 6.80991 4.9507 7.01657 4.7027H6.99591ZM12.0902 8.36068C12.0902 8.62934 11.6872 8.78434 11.6046 8.90834C11.5219 9.03234 11.5219 9.00134 11.5116 9.07367V8.62934C11.5116 8.50534 11.4082 8.42268 11.2636 8.42268C11.1189 8.42268 10.4782 8.93934 10.8192 9.77634C10.7956 9.58199 10.8473 9.38598 10.9639 9.22867C11.019 9.15787 11.0481 9.07036 11.0466 8.98067C11.1379 9.11825 11.1848 9.28057 11.1809 9.44567C11.1809 9.797 10.9226 9.87967 11.0466 10.138C11.0682 10.2158 11.0959 10.2918 11.1292 10.3653C11.1164 10.2589 11.1164 10.1514 11.1292 10.045C11.1812 9.93473 11.2398 9.82775 11.3049 9.72467C11.3258 9.65386 11.3258 9.57849 11.3049 9.50767C11.3705 9.57412 11.4219 9.65335 11.4556 9.74045C11.4894 9.82755 11.5049 9.92066 11.5012 10.014C11.4926 10.1898 11.4393 10.3606 11.3462 10.51C11.3022 10.5973 11.2742 10.6918 11.2636 10.789C11.1809 11.3883 10.8916 11.6673 10.5092 11.6673C10.3293 11.6407 10.1588 11.5697 10.0132 11.4607C10.0132 12.215 9.14523 12.153 9.14523 12.6593C9.1596 12.8079 9.22538 12.9468 9.33123 13.052C9.42423 13.145 9.77556 13.2793 9.90989 13.4447C9.72161 13.4497 9.54162 13.5232 9.40356 13.6513C9.72389 13.8063 9.71356 13.982 9.75489 14.2196C9.44489 14.0646 9.30023 14.1576 9.2279 14.2196C9.15556 14.2816 9.17623 14.447 9.0729 14.602C9.0729 14.478 8.93856 14.3746 8.81456 14.3746C8.72839 14.3959 8.64739 14.4344 8.57637 14.4876C8.50536 14.5409 8.4458 14.6079 8.40123 14.6846C8.40573 14.726 8.40124 14.7679 8.38806 14.8074C8.37489 14.8469 8.35334 14.8831 8.32489 14.9136C8.29644 14.944 8.26175 14.9679 8.22321 14.9837C8.18467 14.9994 8.14318 15.0067 8.10157 15.005C8.05546 15.0518 8.02183 15.1094 8.00378 15.1726C7.98573 15.2358 7.98382 15.3025 7.99824 15.3666C7.88457 15.253 7.8639 15.1806 7.90524 14.974C7.7709 14.912 7.78124 14.7983 7.82257 14.695C7.78668 14.7495 7.73075 14.7876 7.66692 14.8012C7.60309 14.8147 7.5365 14.8025 7.48157 14.7673C7.4317 14.7959 7.38961 14.8363 7.35898 14.8849C7.32835 14.9336 7.31013 14.989 7.30591 15.0463C7.30591 14.726 7.30591 14.6226 7.40924 14.5813C7.39224 14.5264 7.39664 14.4672 7.42156 14.4154C7.44648 14.3636 7.49007 14.3232 7.54357 14.3023C7.54535 14.2817 7.54535 14.2609 7.54357 14.2403C7.49881 14.2448 7.45368 14.2365 7.41344 14.2164C7.37319 14.1963 7.33949 14.1652 7.31624 14.1266C7.25941 14.1274 7.20397 14.1444 7.1564 14.1755C7.10883 14.2066 7.07109 14.2506 7.04757 14.3023C7.05112 14.2196 7.07577 14.1391 7.11917 14.0686C7.16258 13.998 7.2233 13.9398 7.29557 13.8993C7.40924 13.672 7.63657 13.6307 7.7709 13.765C7.89403 13.864 8.04693 13.9186 8.2049 13.92C8.35773 13.9049 8.49862 13.8308 8.59757 13.7133C8.62711 13.6754 8.65144 13.6337 8.6699 13.5893C8.6699 13.4963 8.78357 13.393 8.59757 13.1553C8.41157 12.9177 8.0809 12.6077 8.07057 12.3493C8.06368 12.188 8.09468 12.0274 8.16107 11.8802C8.22747 11.7331 8.32741 11.6035 8.4529 11.502H8.2979C8.02924 11.502 8.00857 11.3367 7.72957 11.3367C7.63731 11.3471 7.55258 11.3926 7.49295 11.4638C7.43332 11.5349 7.40335 11.6263 7.40924 11.719C7.40233 11.8333 7.43519 11.9465 7.50224 12.0393C7.58093 12.158 7.61397 12.3012 7.59524 12.4423C7.51847 12.3696 7.41678 12.3291 7.31107 12.3291C7.20536 12.3291 7.10367 12.3696 7.02691 12.4423C6.99247 12.5925 6.90425 12.7248 6.77891 12.8143C6.75764 12.7493 6.71976 12.691 6.66902 12.6451C6.61828 12.5993 6.55644 12.5674 6.48962 12.5528C6.42281 12.5382 6.35333 12.5413 6.28807 12.5618C6.22282 12.5823 6.16405 12.6195 6.11758 12.6697C6.11758 12.742 6.05558 12.897 5.83858 12.897H5.66292C5.57686 12.9715 5.51259 13.0679 5.47692 13.176C5.45993 13.1109 5.45761 13.0428 5.47012 12.9767C5.48262 12.9106 5.50965 12.8481 5.54925 12.7937C5.54925 12.7213 5.54925 12.5353 5.63192 12.4837C5.57223 12.5411 5.4926 12.5732 5.40975 12.5732C5.3269 12.5732 5.24727 12.5411 5.18758 12.4837C5.11525 12.4837 5.03259 12.556 4.94992 12.7213C4.94751 12.6423 4.96193 12.5636 4.99221 12.4906C5.0225 12.4176 5.06796 12.3518 5.12558 12.2977C5.12558 12.1633 5.31158 12.06 5.48725 12.091C5.66292 12.122 5.48725 12.091 5.48725 12.029C5.48725 11.967 5.25992 12.029 5.28058 11.7707C5.22926 11.7606 5.17627 11.7628 5.12597 11.7772C5.07567 11.7915 5.0295 11.8176 4.99125 11.8533C5.01991 11.7818 5.068 11.7197 5.13008 11.6741C5.19216 11.6284 5.26576 11.601 5.34258 11.595C5.34258 11.5123 5.51825 11.502 5.59058 11.502C5.6164 11.4814 5.64657 11.467 5.6788 11.4598C5.71104 11.4527 5.74448 11.4529 5.77658 11.4607C5.85947 11.5679 5.96869 11.6518 6.09363 11.7043C6.21857 11.7569 6.35498 11.7761 6.48958 11.7603C6.52531 11.7604 6.56068 11.7531 6.59345 11.7389C6.62622 11.7246 6.65568 11.7037 6.67996 11.6775C6.70424 11.6513 6.72281 11.6203 6.73451 11.5865C6.74621 11.5528 6.75077 11.5169 6.74791 11.4813C6.74791 11.316 6.46891 10.8407 6.46891 10.6237C6.51012 10.4667 6.59355 10.3239 6.71013 10.211C6.82672 10.0981 6.97201 10.0192 7.13024 9.983C7.93624 9.983 8.16357 10.3137 8.2979 10.3137C8.43223 10.3137 8.58723 10.3137 8.62857 10.2207C8.24623 9.75567 7.99824 9.766 7.59524 9.518C7.51286 9.4544 7.44395 9.37506 7.3925 9.28459C7.34106 9.19412 7.30811 9.09432 7.29557 8.99101C7.07857 9.04267 6.86158 9.34234 6.74791 9.52834C6.73026 9.48452 6.70046 9.44665 6.66202 9.41919C6.62357 9.39173 6.57809 9.37582 6.53091 9.37334C6.35525 9.37334 6.23125 9.611 6.13825 9.80734C6.08658 9.58 5.95225 9.37334 5.69392 9.37334C5.62708 9.36791 5.55995 9.37924 5.4986 9.4063C5.43725 9.43337 5.38363 9.47531 5.34258 9.52834C5.30885 9.59964 5.25073 9.65654 5.17872 9.68875C5.10671 9.72096 5.02556 9.72637 4.94992 9.704C4.89171 9.73619 4.84237 9.78229 4.80631 9.83819C4.77025 9.89408 4.74859 9.95803 4.74325 10.0243C4.67092 9.72467 4.74325 9.673 4.74325 9.59034C4.72623 9.53614 4.72497 9.47823 4.73961 9.42334C4.75424 9.36846 4.78418 9.31886 4.82592 9.28034C4.70192 9.28034 4.53659 9.28034 4.48492 9.20801C4.43325 9.13567 4.30926 9.20801 4.19559 9.38367C4.20092 9.30144 4.22754 9.22201 4.27283 9.15317C4.31811 9.08434 4.38052 9.02845 4.45392 8.99101C4.45392 8.87734 4.65025 8.83601 4.77425 8.83601C4.89825 8.83601 4.77425 8.83601 4.77425 8.77401C4.72955 8.74628 4.69398 8.70604 4.67193 8.65829C4.64989 8.61053 4.64235 8.55735 4.65025 8.50534C4.54692 8.39168 4.44359 8.50534 4.35059 8.50534C4.50559 8.35034 4.69159 8.28834 4.81559 8.36068C5.08425 8.26768 5.18758 8.36068 5.20825 8.54668C5.22892 8.73267 5.50792 8.74301 5.79725 8.74301C6.40691 8.74301 7.38857 8.17468 7.31624 7.70968C7.22418 7.69103 7.12931 7.69103 7.03724 7.70968C6.70658 7.70968 6.30358 8.11268 6.00391 8.12301C6.16925 7.93701 6.06591 7.75101 6.15891 7.61668C5.92841 7.66977 5.69278 7.69749 5.45625 7.69935C5.56739 7.59679 5.63722 7.45714 5.65258 7.30668C5.65258 7.22402 5.65258 7.04835 5.29092 7.04835C5.21885 7.05711 5.14599 7.05711 5.07392 7.04835C4.99125 7.04835 4.75359 7.04835 4.75359 6.84168C4.69266 6.82801 4.62924 6.83034 4.56948 6.84844C4.50972 6.86655 4.45567 6.89982 4.41259 6.94502C4.48552 6.80038 4.61133 6.68937 4.76392 6.63502C4.7822 6.5966 4.80969 6.5633 4.84394 6.53806C4.87819 6.51282 4.91814 6.49644 4.96025 6.49035V6.42835C4.96025 6.36635 4.67092 6.36635 4.68125 6.15969C4.69159 5.95302 4.53659 6.05636 4.34026 6.15969C4.57792 5.97369 4.67092 6.00469 4.74325 6.03569C4.76824 6.01038 4.79801 5.99029 4.83083 5.97658C4.86364 5.96286 4.89885 5.9558 4.93442 5.9558C4.96999 5.9558 5.0052 5.96286 5.03801 5.97658C5.07083 5.99029 5.10059 6.01038 5.12558 6.03569V5.98402C5.10098 5.93422 5.08819 5.87941 5.08819 5.82386C5.08819 5.7683 5.10098 5.7135 5.12558 5.66369C5.12558 5.51903 5.06358 5.47769 4.92925 5.44669C5.01512 5.43722 5.10201 5.4482 5.18283 5.47873C5.26364 5.50926 5.33609 5.55848 5.39425 5.62236C5.4589 5.6287 5.51953 5.6566 5.56639 5.70159C5.61325 5.74658 5.64361 5.80602 5.65258 5.87036C5.65258 6.12869 5.38392 6.30435 5.91091 6.57302C6.11087 6.66874 6.31821 6.74822 6.53091 6.81069C6.7367 6.88111 6.94738 6.93637 7.16124 6.97602C7.06824 6.84169 7.16124 6.69702 6.96491 6.55235C7.13984 6.55887 7.31334 6.58663 7.48157 6.63502C7.48157 6.42835 7.48157 6.42835 7.36791 6.30435H7.72957C8.3289 6.36635 8.33923 6.06669 8.4529 5.69469C8.14361 5.70717 7.84355 5.80362 7.58491 5.97369C7.60041 5.8744 7.60041 5.77331 7.58491 5.67402C7.58341 5.64649 7.58774 5.61896 7.5976 5.59321C7.60745 5.56746 7.62263 5.54407 7.64212 5.52458C7.66162 5.50508 7.685 5.48991 7.71075 5.48005C7.7365 5.47019 7.76404 5.46587 7.79157 5.46736H7.97757C8.10157 5.46736 8.28757 5.32269 8.2049 5.03336C8.19995 5.00328 8.18899 4.9745 8.17268 4.94874C8.15638 4.92298 8.13506 4.90077 8.10999 4.88341C8.08493 4.86606 8.05663 4.85393 8.02678 4.84773C7.99693 4.84154 7.96614 4.84141 7.93624 4.84736C7.85552 4.86624 7.77612 4.8904 7.69857 4.9197C7.59524 4.9197 7.56424 5.03336 7.55391 5.13669C7.55391 5.08503 7.55391 4.96103 7.48157 4.9197C7.45563 4.87391 7.43484 4.82539 7.41957 4.77503V4.7027C7.40638 4.67305 7.40036 4.64071 7.40199 4.6083C7.40362 4.5759 7.41286 4.54433 7.42896 4.51616C7.44506 4.48798 7.46756 4.464 7.49466 4.44614C7.52175 4.42828 7.55267 4.41705 7.58491 4.41336L7.9569 4.32036C8.02559 4.3093 8.09023 4.28064 8.14456 4.23719C8.19888 4.19373 8.24103 4.13694 8.2669 4.07237C8.31857 3.9587 8.34957 3.90703 8.53557 3.90703H8.90757C9.1969 3.90703 9.51723 3.66937 9.4139 3.42137C9.61023 3.42137 9.69289 3.78303 9.64123 3.90703C9.80631 3.89754 9.96787 3.85539 10.1166 3.78303C10.1112 3.8899 10.0825 3.99429 10.0325 4.0889C9.98254 4.1835 9.91247 4.26603 9.82723 4.3307C9.99944 4.35799 10.1759 4.33278 10.3336 4.25836C10.2691 4.47098 10.1559 4.6656 10.0029 4.8267C10.1372 4.86498 10.2592 4.93749 10.357 5.03712C10.4548 5.13675 10.5251 5.26008 10.5609 5.39503C10.3542 5.30203 10.2406 5.39503 10.0649 5.39503C10.3173 5.77708 10.5188 6.19046 10.6642 6.62469C10.5202 6.54429 10.3719 6.47185 10.2199 6.40769C10.3749 6.76935 10.1476 7.12068 10.2199 7.30668C10.1004 7.24649 9.99484 7.16203 9.90989 7.05868C9.79555 7.30369 9.74916 7.57493 9.77556 7.84401C9.6753 7.75945 9.56815 7.68341 9.45523 7.61668C9.27445 7.852 9.19286 8.14868 9.2279 8.44334C9.2574 9.00919 9.41649 9.56071 9.69289 10.0553C9.83733 10.331 9.9384 10.6272 9.99256 10.9337C10.014 11.056 10.0772 11.1672 10.1714 11.2482C10.2656 11.3292 10.385 11.3751 10.5092 11.378C10.6344 11.37 10.7516 11.3139 10.8364 11.2215C10.9211 11.129 10.9668 11.0074 10.9639 10.882C10.9639 10.386 10.3542 10.0657 10.3542 9.18734C10.3542 8.60868 10.7986 8.31934 10.8089 7.95768C10.8192 7.59601 10.5299 7.83368 10.3026 7.68901C10.5919 7.62701 10.7572 7.31702 11.0156 7.32735C11.0506 7.32293 11.0862 7.32606 11.12 7.33653C11.1538 7.347 11.1849 7.36456 11.2113 7.38805C11.2377 7.41153 11.2588 7.44039 11.2732 7.4727C11.2875 7.505 11.2948 7.54 11.2946 7.57535C11.2944 7.71757 11.255 7.85699 11.1809 7.97835C11.3859 7.79951 11.5122 7.54702 11.5322 7.27568C11.5322 7.02768 11.1912 6.74869 11.2842 6.24235C11.2795 6.21153 11.2795 6.18018 11.2842 6.14936C11.3876 6.67635 12.1419 6.81069 12.1419 7.33768C12.1419 7.86468 11.7182 7.74068 11.4702 8.09201C11.7906 7.97835 12.0902 8.03001 12.0902 8.36068ZM21.2765 3.72103C21.2042 3.97937 21.2042 4.31003 21.5762 4.31003C21.8833 4.26447 22.1804 4.16661 22.4545 4.0207V4.1137C22.0845 4.39056 21.6573 4.58121 21.2042 4.6717C21.155 4.68115 21.1043 4.6793 21.0559 4.6663C21.0076 4.6533 20.9628 4.62948 20.925 4.59664C20.8871 4.56379 20.8573 4.52279 20.8376 4.47672C20.818 4.43066 20.809 4.38072 20.8115 4.3307C20.8942 4.06203 21.1008 3.96903 21.2765 3.72103ZM26.5671 7.49268C26.5671 7.77168 26.1331 7.93701 26.0505 8.07135C26.0079 8.11912 25.9762 8.17552 25.9575 8.23668C25.8955 8.05068 25.9575 7.90601 25.9575 7.77168C25.9575 7.63735 25.8541 7.55468 25.6991 7.55468C25.5746 7.61591 25.4637 7.7016 25.373 7.80663C25.2823 7.91165 25.2137 8.03387 25.1713 8.16599C25.1289 8.29811 25.1135 8.43742 25.126 8.57561C25.1386 8.71381 25.1789 8.84805 25.2445 8.97034C25.2145 8.77067 25.2626 8.56714 25.3788 8.40201C25.4426 8.33147 25.476 8.23867 25.4718 8.14368C25.5662 8.2881 25.6164 8.45684 25.6165 8.62934C25.6165 9.00134 25.3478 9.07367 25.4718 9.35267C25.4949 9.43338 25.5225 9.51273 25.5545 9.59034C25.5356 9.47746 25.5356 9.36222 25.5545 9.24934C25.5545 9.15634 25.7198 8.99101 25.7301 8.91867C25.7514 8.84439 25.7514 8.76563 25.7301 8.69134C25.7959 8.76196 25.8471 8.84485 25.8808 8.93528C25.9145 9.02571 25.93 9.1219 25.9265 9.21834C25.9215 9.40125 25.868 9.57954 25.7715 9.735C25.7237 9.8289 25.6923 9.93023 25.6785 10.0347C25.5958 10.6547 25.2961 10.944 24.8932 10.944C24.6833 10.9579 24.4742 10.9074 24.2938 10.7993C24.2938 11.595 23.3948 11.533 23.3948 12.0497C23.4087 12.2044 23.4742 12.35 23.5808 12.463C23.6842 12.556 24.0458 12.6903 24.1802 12.8763C23.9875 12.8747 23.8019 12.9489 23.6635 13.083C23.9838 13.2483 23.9735 13.4343 24.0148 13.672C23.6945 13.517 23.5498 13.61 23.4672 13.672C23.3845 13.734 23.4672 13.9096 23.3122 14.075C23.3122 13.951 23.1778 13.8373 23.0332 13.8373C22.8537 13.887 22.7013 14.006 22.6095 14.168C22.6123 14.2104 22.6064 14.2529 22.5921 14.293C22.5778 14.333 22.5554 14.3697 22.5263 14.4007C22.4973 14.4317 22.4621 14.4564 22.4231 14.4732C22.3841 14.4901 22.342 14.4987 22.2995 14.4986C22.249 14.5469 22.2127 14.608 22.1945 14.6754C22.1763 14.7428 22.1768 14.8139 22.1962 14.881C22.0722 14.757 22.0515 14.6846 22.0928 14.4676C21.9482 14.4056 21.9688 14.2816 22.0102 14.168C21.969 14.222 21.9096 14.2591 21.843 14.2724C21.7764 14.2857 21.7073 14.2743 21.6485 14.2403C21.5985 14.2724 21.5561 14.3148 21.524 14.3647C21.4919 14.4146 21.4709 14.4709 21.4625 14.5296C21.4625 14.199 21.4625 14.0853 21.5762 14.044C21.5593 13.9864 21.5648 13.9246 21.5917 13.8709C21.6185 13.8172 21.6647 13.7757 21.7208 13.7546C21.727 13.7309 21.727 13.706 21.7208 13.6823C21.6748 13.6854 21.6287 13.6765 21.5871 13.6566C21.5455 13.6367 21.5097 13.6064 21.4832 13.5687C21.3798 13.5687 21.2352 13.6823 21.2042 13.7546C21.207 13.6691 21.2324 13.5858 21.2777 13.5132C21.3231 13.4406 21.3868 13.3813 21.4625 13.3413C21.5865 13.0933 21.8242 13.052 21.9585 13.1967C22.0895 13.2958 22.2489 13.3502 22.4132 13.3517C22.4934 13.3462 22.5715 13.324 22.6427 13.2867C22.7138 13.2493 22.7764 13.1975 22.8265 13.1347C22.856 13.0967 22.8804 13.055 22.8988 13.0107C22.8988 12.9177 23.0228 12.804 22.8265 12.556C22.6302 12.308 22.2892 11.9877 22.2788 11.719C22.2681 11.5517 22.2983 11.3844 22.3667 11.2313C22.4351 11.0783 22.5397 10.9442 22.6715 10.8407H22.5165C22.2375 10.8407 22.2065 10.665 21.9172 10.665C21.8222 10.6754 21.7348 10.722 21.6732 10.7952C21.6117 10.8683 21.5806 10.9623 21.5865 11.0577C21.5782 11.1786 21.6109 11.2987 21.6795 11.3987C21.7233 11.4571 21.7543 11.5241 21.7703 11.5954C21.7863 11.6666 21.7871 11.7404 21.7725 11.812C21.6923 11.7379 21.5872 11.6968 21.478 11.6968C21.3688 11.6968 21.2637 11.7379 21.1835 11.812C21.1493 11.9705 21.0572 12.1105 20.9252 12.2047C20.9055 12.1346 20.8672 12.0713 20.8144 12.0212C20.7616 11.9712 20.6962 11.9364 20.6253 11.9205C20.5543 11.9046 20.4803 11.9082 20.4112 11.931C20.3422 11.9537 20.2805 11.9947 20.2328 12.0497C20.2328 12.122 20.1708 12.2873 19.9538 12.2873C19.7368 12.2873 19.8298 12.2873 19.7678 12.2357C19.6731 12.3086 19.6043 12.41 19.5715 12.525C19.5542 12.4559 19.5527 12.3838 19.567 12.3141C19.5813 12.2443 19.6111 12.1787 19.6542 12.122C19.6542 12.0497 19.6542 11.8533 19.7368 11.8017V11.75C19.7071 11.78 19.6717 11.8038 19.6326 11.82C19.5936 11.8363 19.5518 11.8446 19.5095 11.8446C19.4672 11.8446 19.4254 11.8363 19.3864 11.82C19.3474 11.8038 19.312 11.78 19.2822 11.75C19.1995 11.75 19.1168 11.8223 19.0342 11.998C19.0151 11.9009 19.0212 11.8005 19.0519 11.7064C19.0827 11.6123 19.1371 11.5277 19.2098 11.4607C19.2098 11.3263 19.3958 11.2127 19.5818 11.254V11.1817C19.5818 11.1817 19.3442 11.1817 19.3545 10.913C19.3035 10.8963 19.2488 10.8953 19.1972 10.91C19.1456 10.9248 19.0997 10.9546 19.0652 10.9957C19.0919 10.92 19.1405 10.8539 19.205 10.8061C19.2694 10.7582 19.3467 10.7307 19.4268 10.727C19.4268 10.6443 19.6025 10.634 19.6748 10.634C19.7263 10.6278 19.7784 10.6385 19.8232 10.6647C19.8679 10.6908 19.9029 10.7308 19.9228 10.7787C20.0066 10.8913 20.1184 10.9802 20.2471 11.0364C20.3758 11.0925 20.5169 11.1141 20.6565 11.099C20.694 11.099 20.7312 11.0915 20.7657 11.0768C20.8003 11.0622 20.8315 11.0407 20.8575 11.0137C20.8836 10.9866 20.9039 10.9547 20.9173 10.9196C20.9307 10.8846 20.9369 10.8472 20.9355 10.8097C20.9355 10.634 20.6358 10.138 20.6358 9.91067C20.6788 9.74611 20.766 9.59648 20.8881 9.47806C21.0102 9.35964 21.1624 9.27695 21.3282 9.23901C22.1652 9.23901 22.3615 9.59034 22.5372 9.59034C22.7128 9.59034 22.8368 9.53867 22.8782 9.49734C22.4855 9.01167 22.2375 9.02201 21.8448 8.76367C21.7588 8.69586 21.687 8.6116 21.6338 8.5158C21.5806 8.42001 21.5469 8.31459 21.5348 8.20568C21.2972 8.25734 21.0698 8.56734 20.9665 8.76367C20.9461 8.71975 20.9142 8.68215 20.8742 8.65487C20.8342 8.62758 20.7875 8.61162 20.7392 8.60868C20.5532 8.60868 20.4188 8.85667 20.3258 9.06334C20.3258 8.82567 20.1295 8.60868 19.8608 8.60868C19.7913 8.60154 19.7211 8.61311 19.6575 8.64217C19.594 8.67124 19.5393 8.71675 19.4992 8.77401C19.4604 8.84622 19.3989 8.90359 19.3241 8.93723C19.2494 8.97086 19.1656 8.97887 19.0858 8.96001C19.0032 8.96001 18.9308 9.03234 18.8688 9.28034C18.7965 8.97034 18.8688 8.91867 18.8688 8.83601C18.85 8.77949 18.8468 8.71892 18.8595 8.66072C18.8722 8.60251 18.9005 8.54883 18.9412 8.50534C18.8172 8.50534 18.6415 8.50534 18.5898 8.43301C18.5382 8.36068 18.4142 8.43301 18.2902 8.61901C18.2979 8.53343 18.3264 8.45103 18.3732 8.37899C18.42 8.30695 18.4838 8.24745 18.5588 8.20568C18.5588 8.09201 18.7655 8.04035 18.8895 8.04035V7.97835C18.8419 7.95316 18.8034 7.91372 18.7793 7.86554C18.7552 7.81737 18.7468 7.76288 18.7552 7.70968C18.6518 7.58568 18.5382 7.65801 18.4452 7.70968C18.6105 7.53402 18.7965 7.47202 18.9308 7.54435C19.2098 7.45135 19.3132 7.54435 19.3338 7.74068C19.3545 7.93701 19.6542 7.94735 19.9435 7.94735C20.5842 7.94735 21.6072 7.34802 21.5348 6.91402C21.4392 6.89586 21.3411 6.89586 21.2455 6.91402C20.9045 6.91402 20.4705 7.34802 20.1398 7.34802C20.3052 7.16202 20.2018 6.96568 20.2948 6.83135C20.0526 6.87484 19.8073 6.89903 19.5612 6.90369C19.6793 6.80087 19.7533 6.65657 19.7678 6.50069C19.7678 6.40769 19.7678 6.24235 19.3855 6.24235C19.3134 6.25112 19.2406 6.25112 19.1685 6.24235C19.0755 6.24235 18.8275 6.24235 18.8275 6.01502C18.7642 6.00544 18.6994 6.01071 18.6385 6.03044C18.5775 6.05017 18.5219 6.0838 18.4762 6.12869C18.5491 5.97557 18.6788 5.85693 18.8378 5.79802C18.8588 5.75747 18.8897 5.7229 18.9276 5.69759C18.9656 5.67228 19.0094 5.65706 19.0548 5.65336C19.0564 5.62927 19.0564 5.60511 19.0548 5.58103C18.9205 5.58103 18.7552 5.51903 18.7655 5.30203C18.7758 5.08503 18.6105 5.19869 18.4039 5.30203C18.6622 5.11603 18.7552 5.14703 18.8378 5.17803C18.8901 5.12628 18.9606 5.09726 19.0342 5.09726C19.1077 5.09726 19.1783 5.12628 19.2305 5.17803V5.11603C19.2024 5.06733 19.1876 5.01209 19.1876 4.95586C19.1876 4.89963 19.2024 4.84439 19.2305 4.7957C19.2305 4.6407 19.1582 4.59936 19.0135 4.56836C19.1042 4.55636 19.1964 4.56602 19.2826 4.59656C19.3689 4.62709 19.4466 4.67763 19.5095 4.74403C19.5765 4.75576 19.6382 4.78785 19.6863 4.83592C19.7344 4.884 19.7664 4.94572 19.7782 5.01269C19.7782 5.27103 19.4992 5.45703 20.0365 5.73602C20.2476 5.83348 20.4651 5.91634 20.6875 5.98402C20.8991 6.06104 21.1169 6.11981 21.3385 6.15969C21.2455 6.01502 21.3385 5.87036 21.1318 5.71536C21.317 5.72109 21.5009 5.74884 21.6795 5.79802C21.6795 5.59136 21.6795 5.59136 21.5555 5.45703H21.9378C22.5578 5.51903 22.5682 5.21936 22.6922 4.8267C22.3684 4.83896 22.0541 4.93897 21.7828 5.11603C21.7984 5.01328 21.7984 4.90877 21.7828 4.80603C21.7813 4.77714 21.7859 4.74826 21.7963 4.72126C21.8067 4.69426 21.8226 4.66974 21.8431 4.64929C21.8635 4.62883 21.8881 4.6129 21.9151 4.60252C21.9421 4.59214 21.9709 4.58755 21.9998 4.58903H22.1962C22.3305 4.58903 22.5165 4.43403 22.4338 4.13437C22.4338 3.9897 22.2788 3.8967 22.1548 3.93803C22.0308 3.97937 22.0412 3.93803 21.9068 4.01037C21.8614 4.02873 21.8225 4.06011 21.7949 4.10057C21.7673 4.14102 21.7523 4.18874 21.7518 4.2377C21.7518 4.2377 21.7002 4.0517 21.6795 4.0207L21.6072 3.85537V3.79337C21.5922 3.76255 21.5847 3.72862 21.5853 3.69435C21.5859 3.66008 21.5946 3.62645 21.6108 3.5962C21.6269 3.56596 21.65 3.53997 21.6781 3.52035C21.7062 3.50074 21.7385 3.48807 21.7725 3.48337L22.1652 3.39037C22.3822 3.32837 22.4442 3.2457 22.4855 3.13204C22.5268 3.01837 22.5682 2.9667 22.7645 2.9667H23.3432C23.6428 2.9667 23.9735 2.72904 23.8598 2.46037C24.0768 2.46037 24.1595 2.83237 24.1078 2.9667C24.2795 2.95725 24.4479 2.91517 24.6038 2.84271C24.5983 2.95467 24.5676 3.06394 24.5139 3.16236C24.4602 3.26077 24.385 3.34578 24.2938 3.41104C24.4728 3.43936 24.6561 3.4142 24.8208 3.3387C24.7572 3.557 24.6399 3.75592 24.4798 3.91737C24.6188 3.96072 24.7446 4.03834 24.8458 4.14307C24.9469 4.2478 25.02 4.37629 25.0585 4.5167C24.8518 4.4237 24.7278 4.5167 24.5418 4.5167C24.8066 4.91833 25.0185 5.35248 25.1721 5.80836C25.0245 5.71833 24.8689 5.64223 24.7072 5.58103C24.8725 5.95302 24.6348 6.31469 24.7072 6.51102C24.5851 6.4503 24.4762 6.36601 24.3868 6.26302C24.2611 6.51557 24.2109 6.79899 24.2422 7.07935C24.1368 6.98576 24.0226 6.9027 23.9012 6.83135C23.7206 7.08259 23.6396 7.39185 23.6738 7.69935C23.702 8.28774 23.8684 8.86122 24.1595 9.37334C24.3063 9.66349 24.4107 9.9732 24.4695 10.293C24.4911 10.4209 24.5565 10.5372 24.6546 10.6221C24.7526 10.7069 24.8772 10.755 25.0068 10.758C25.1375 10.75 25.2599 10.6918 25.3486 10.5954C25.4372 10.4991 25.4851 10.3722 25.4821 10.2413C25.4821 9.71434 24.8518 9.38367 24.8518 8.47434C24.8518 7.87501 25.3065 7.57535 25.3271 7.19302C25.3478 6.81069 25.0275 7.05868 24.7898 6.90369C25.0895 6.90369 25.2651 6.52135 25.5338 6.53169C25.8025 6.54202 25.8128 6.67635 25.8231 6.79002C25.8222 6.93864 25.783 7.08452 25.7095 7.21368C25.9176 7.02177 26.0497 6.76133 26.0815 6.48002C26.0815 6.22169 25.7198 5.93236 25.8128 5.44669C25.8097 5.41232 25.8097 5.37774 25.8128 5.34336C25.9265 5.90136 26.7118 6.04602 26.7118 6.59369C26.7118 7.14135 26.2675 7.00702 26.0091 7.36868C26.2881 7.13102 26.6085 7.18268 26.6085 7.49268H26.5671Z" fill="#68246D"/>
  <path d="M8.53843 4.11257C8.51828 4.15448 8.50781 4.20039 8.50781 4.2469C8.50781 4.29341 8.51828 4.33932 8.53843 4.38123C8.65081 4.36751 8.75954 4.33243 8.85876 4.2779C8.95176 4.2159 8.98276 4.16423 9.09643 4.0919C8.91022 4.07877 8.72315 4.0857 8.53843 4.11257Z" fill="#702567"/>
  <path d="M22.8964 3.10007C22.8759 3.14553 22.8652 3.19485 22.8652 3.24473C22.8652 3.29462 22.8759 3.34394 22.8964 3.3894C23.0114 3.36705 23.1227 3.3288 23.2271 3.27573C23.3304 3.21373 23.3614 3.16207 23.4751 3.0794C23.282 3.06597 23.088 3.0729 22.8964 3.10007Z" fill="#702567"/>
</svg>
