<svg width="320" height="175" viewBox="0 0 320 175" fill="none" xmlns="http://www.w3.org/2000/svg">
<rect x="0.818824" y="0.818824" width="318.362" height="173.362" rx="2.45647" fill="white"/>
<rect x="0.818824" y="0.818824" width="318.362" height="173.362" rx="2.45647" stroke="#E0E0E0" stroke-width="1.63765"/>
<g clip-path="url(#clip0_3412_3413)">
<path d="M241.864 138.878C244.282 138.878 245.842 137.659 247.206 134.342L253.944 117.757H251.402L246.235 131.138L240.397 117.757H237.752L245.047 133.753C244.086 136.016 243.187 136.76 241.761 136.76C240.883 136.785 240.015 136.582 239.239 136.171L238.433 138.062C239.489 138.611 240.664 138.891 241.854 138.878M232.812 134.094C233.818 134.111 234.813 133.876 235.706 133.412V131.345C234.983 131.715 234.182 131.907 233.37 131.903C233.006 131.958 232.634 131.927 232.284 131.813C231.934 131.699 231.615 131.505 231.353 131.246C231.092 130.987 230.894 130.671 230.776 130.322C230.658 129.973 230.622 129.602 230.673 129.237V119.854H235.768V117.788H230.673V112.91H228.276V117.757H226.044V119.823H228.276V129.516C228.276 132.781 230.239 134.052 232.812 134.052M220.113 133.773H222.5V117.757H220.113V133.773ZM219.958 114.202H222.686V111.557H219.958V114.202ZM210.358 134.083C213.561 134.083 216.072 132.306 216.072 129.268V129.206C216.072 126.313 213.406 125.352 210.906 124.608C208.767 123.957 206.772 123.368 206.772 121.838V121.776C206.772 120.443 207.992 119.451 209.872 119.451C211.57 119.515 213.216 120.052 214.626 121.001L215.659 119.203C213.936 118.087 211.935 117.474 209.883 117.436C206.71 117.436 204.416 119.265 204.416 122.024V122.086C204.416 125.042 207.206 125.91 209.728 126.623C211.794 127.212 213.737 127.842 213.737 129.454V129.516C213.737 131.066 212.332 132.058 210.41 132.058C208.382 131.987 206.432 131.262 204.85 129.991L203.641 131.696C205.536 133.193 207.871 134.025 210.286 134.063M193.019 133.753H195.406V127.377C195.406 122.541 198.268 120.02 201.771 120.02H201.957V117.447C200.538 117.423 199.146 117.839 197.973 118.639C196.8 119.438 195.903 120.581 195.406 121.911V117.726H193.019V133.753ZM176.682 124.773C177.023 121.673 179.131 119.369 181.9 119.369C185.062 119.369 186.746 121.849 187.067 124.773H176.682ZM176.682 126.695H189.547V125.858C189.547 121.136 186.819 117.354 182.065 117.354C177.622 117.354 174.357 121.074 174.357 125.734C174.304 126.819 174.472 127.903 174.851 128.92C175.23 129.938 175.813 130.867 176.563 131.652C177.313 132.437 178.216 133.062 179.215 133.487C180.214 133.912 181.29 134.129 182.375 134.125C183.635 134.159 184.885 133.905 186.032 133.382C187.178 132.859 188.189 132.081 188.989 131.107L187.48 129.836C186.849 130.555 186.069 131.13 185.195 131.52C184.322 131.911 183.374 132.108 182.417 132.099C180.966 132.114 179.566 131.566 178.512 130.569C177.458 129.573 176.831 128.206 176.764 126.757M164.024 133.939H166.09L173.075 117.757H170.503L165.067 131.076L159.663 117.757H157.018L164.024 133.939ZM151.314 133.815H153.711V117.757H151.314V133.815ZM151.159 114.243H153.897V111.598H151.159V114.243ZM132.559 133.815H134.946V124.618C134.903 123.964 134.996 123.309 135.22 122.693C135.443 122.078 135.793 121.515 136.246 121.042C136.699 120.569 137.245 120.195 137.85 119.944C138.455 119.693 139.106 119.571 139.761 119.586C142.592 119.586 144.204 121.446 144.204 124.432V133.815H146.591V123.843C146.591 120.02 144.328 117.416 140.443 117.416C139.331 117.379 138.23 117.649 137.26 118.196C136.291 118.743 135.49 119.545 134.946 120.516V117.726H132.559V133.815ZM118.702 134.156C124.137 134.156 127.774 130.859 127.774 124.525V112.073H125.315V124.711C125.315 129.464 122.773 131.882 118.764 131.882C114.754 131.882 112.119 129.247 112.119 124.556V112.073H109.66V124.711C109.66 130.911 113.328 134.156 118.702 134.156Z" fill="#002A41"/>
<path d="M254.716 102.774V100.8H254.582C253.651 100.823 252.726 100.64 251.875 100.263C251.1 99.9009 250.717 99.0329 250.717 97.6483V87.718C250.708 86.4459 250.882 85.1791 251.234 83.9567C251.525 82.883 252.113 81.9127 252.928 81.1564C253.844 80.4125 255.007 80.0432 256.183 80.123C256.914 80.0498 257.652 80.1674 258.324 80.4645C258.996 80.7615 259.579 81.2278 260.017 81.8177C260.831 83.2646 261.214 84.9136 261.123 86.571V102.805H269.307V100.831H269.162C268.257 100.866 267.359 100.663 266.558 100.242C265.876 99.8493 265.525 98.9193 265.525 97.4416V87.0773C265.513 85.8982 265.68 84.724 266.021 83.595C266.303 82.6022 266.867 81.7123 267.643 81.0324C268.523 80.3413 269.626 79.9959 270.743 80.061C271.476 79.9859 272.215 80.1027 272.889 80.3998C273.563 80.6969 274.148 81.1642 274.587 81.7557C275.4 83.2026 275.784 84.8516 275.693 86.509V102.743H283.877V100.769H283.732C282.827 100.804 281.929 100.601 281.128 100.18C280.446 99.7873 280.095 98.8573 280.095 97.3796V86.3023C280.095 83.0783 279.406 80.7361 278.028 79.2757C277.299 78.5311 276.42 77.9505 275.449 77.5727C274.477 77.1949 273.437 77.0287 272.396 77.085C270.996 77.0736 269.61 77.3551 268.325 77.9117C266.86 78.6523 265.69 79.8695 265.008 81.363H264.636C264.173 79.9554 263.2 78.7721 261.908 78.046C260.63 77.3907 259.211 77.0606 257.775 77.085C256.421 77.0637 255.079 77.3462 253.848 77.9117C252.448 78.692 251.336 79.902 250.676 81.363H250.511L249.901 77.55H242.513V79.534H242.647C243.544 79.5021 244.436 79.6938 245.241 80.092C245.933 80.4744 246.274 81.3527 246.274 82.727V97.4106C246.274 98.8883 245.943 99.8183 245.241 100.211C244.436 100.634 243.534 100.837 242.626 100.8H242.017V102.774H254.716ZM222.104 95.9536C222.051 95.1846 222.159 94.4129 222.423 93.6885C222.686 92.964 223.099 92.3029 223.634 91.748C224.653 90.7904 226.496 90.2462 229.162 90.1153L232.179 89.981V93.794C232.269 95.547 231.66 97.264 230.485 98.5679C229.889 99.1653 229.175 99.6312 228.388 99.9356C227.602 100.24 226.76 100.376 225.917 100.335C223.375 100.335 222.104 98.8676 222.104 95.9536ZM228.036 102.66C228.871 102.278 229.623 101.733 230.247 101.058C230.932 100.318 231.577 99.5424 232.179 98.7333H232.551L233.306 102.774H239.661V100.8H239.516C239.112 100.841 238.705 100.8 238.318 100.68C237.93 100.559 237.572 100.361 237.263 100.097C236.73 99.3089 236.496 98.3563 236.602 97.4106V85.2277C236.602 82.2413 235.889 80.1437 234.463 78.914C233.037 77.6844 230.877 77.085 227.994 77.085C226.559 77.0687 225.127 77.2178 223.727 77.5294C222.59 77.7547 221.526 78.255 220.627 78.9864C220.26 79.3131 219.969 79.7169 219.776 80.1688C219.584 80.6207 219.493 81.1096 219.511 81.6007C219.471 82.0382 219.545 82.4785 219.726 82.8787C219.907 83.279 220.189 83.6254 220.544 83.8843C221.452 84.3983 222.49 84.6354 223.53 84.5663C223.52 83.6783 223.624 82.7927 223.84 81.9314C224.013 81.1863 224.454 80.5312 225.08 80.092C225.894 79.6098 226.833 79.3797 227.777 79.4307C228.792 79.3567 229.803 79.622 230.65 80.185C231.289 80.709 231.724 81.4402 231.88 82.2517C232.078 83.2345 232.171 84.2355 232.159 85.238V88.059L228.253 88.1933C224.646 88.3277 221.949 88.9786 220.182 90.1773C219.295 90.7912 218.583 91.626 218.118 92.5992C217.652 93.5724 217.448 94.6502 217.527 95.7263C217.527 98.2993 218.209 100.201 219.593 101.42C220.766 102.345 222.16 102.948 223.638 103.167C225.115 103.386 226.624 103.215 228.015 102.67M200.673 102.784V100.81H200.528C199.601 100.835 198.679 100.652 197.831 100.273C197.056 99.9113 196.674 99.0433 196.674 97.6586V87.718C196.577 85.7721 197.058 83.841 198.059 82.169C198.536 81.4801 199.184 80.9272 199.939 80.5648C200.695 80.2025 201.532 80.0431 202.368 80.1024C204.279 80.1024 205.623 80.6707 206.387 81.797C207.239 83.2304 207.642 84.8859 207.545 86.5503V102.784H215.729V100.81H215.594C214.686 100.847 213.785 100.644 212.98 100.221C212.308 99.8286 211.947 98.8986 211.947 97.4209V86.3023C211.947 83.0783 211.234 80.7361 209.808 79.2757C208.979 78.5058 208.001 77.9142 206.935 77.5374C205.868 77.1606 204.736 77.0066 203.608 77.085C202.172 77.0317 200.753 77.411 199.535 78.1738C198.317 78.9366 197.356 80.0477 196.777 81.363H196.54C196.602 80.5157 196.643 79.782 196.684 79.1517C196.726 78.5214 196.684 77.9324 196.684 77.364V67.0308H188.025V69.0044H188.408C189.338 68.9855 190.261 69.1799 191.104 69.5727C191.879 69.9447 192.262 70.8334 192.262 72.2077V97.4106C192.262 98.8883 191.879 99.8183 191.135 100.211C190.287 100.625 189.351 100.827 188.408 100.8H188.025V102.774L200.673 102.784ZM181.102 102.784V100.81H179.779C178.848 100.832 177.924 100.649 177.072 100.273C176.307 99.9113 175.925 99.0433 175.925 97.6586V90.2703C175.931 89.233 176.007 88.1973 176.152 87.1703C176.311 86.0456 176.563 84.936 176.907 83.8533C177.197 82.886 177.679 81.9866 178.322 81.208C178.59 80.8818 178.928 80.6196 179.311 80.4408C179.693 80.262 180.111 80.1711 180.534 80.1747C180.904 80.1403 181.277 80.2032 181.616 80.3573C181.955 80.5113 182.248 80.7511 182.466 81.053C182.902 81.9185 183.095 82.8866 183.024 83.8533C184.237 83.9851 185.456 83.661 186.444 82.944C186.778 82.6399 187.044 82.2676 187.222 81.8522C187.4 81.4369 187.487 80.9882 187.477 80.5364C187.501 80.0416 187.398 79.549 187.179 79.1045C186.961 78.66 186.633 78.2781 186.227 77.9944C185.068 77.319 183.732 77.0093 182.394 77.1057C181.269 77.0483 180.149 77.2908 179.149 77.8084C178.38 78.2657 177.734 78.9043 177.268 79.6684C176.768 80.4904 176.326 81.3467 175.946 82.231H175.708L174.819 77.5707H167.586V79.534H167.731C168.664 79.5139 169.589 79.7047 170.438 80.092C171.203 80.4744 171.595 81.3527 171.595 82.727V97.4106C171.595 98.8883 171.213 99.8183 170.459 100.211C169.61 100.625 168.674 100.827 167.731 100.8H167.586V102.774L181.102 102.784ZM154.08 102.433C155.585 101.699 156.795 100.474 157.511 98.9606H157.749L158.358 102.774H165.85V100.8H165.705C164.774 100.823 163.85 100.64 162.998 100.263C162.223 99.9009 161.841 99.0329 161.841 97.6483V77.55H153.378V79.534H153.522C154.465 79.509 155.399 79.7072 156.25 80.1127C157.005 80.5157 157.377 81.4457 157.377 82.9233V92.616C157.47 94.5577 156.981 96.4829 155.971 98.1443C155.459 98.8492 154.773 99.4098 153.98 99.7719C153.187 100.134 152.314 100.285 151.445 100.211C149.534 100.211 148.232 99.6529 147.539 98.5266C146.779 97.0619 146.423 95.4213 146.506 93.7733V77.55H138.084V79.534H138.229C139.159 79.5119 140.081 79.7028 140.926 80.092C141.701 80.4744 142.083 81.3527 142.083 82.727V94.0213C142.083 97.2522 142.772 99.5978 144.15 101.058C144.896 101.812 145.795 102.397 146.786 102.775C147.777 103.153 148.837 103.314 149.895 103.249C151.346 103.263 152.784 102.982 154.122 102.422M114.762 71.5774H118.896C122.595 71.5774 125.385 72.8174 127.245 75.2974C129.105 77.7774 130.045 81.3424 130.045 85.982C130.045 90.6216 129.115 94.2486 127.245 96.6873C125.374 99.1259 122.584 100.428 118.844 100.428H114.711L114.762 71.5774ZM119.929 102.825C122.897 102.935 125.837 102.219 128.423 100.759C130.708 99.3948 132.514 97.3547 133.589 94.9203C134.801 92.0996 135.389 89.0508 135.315 85.982C135.315 80.65 133.965 76.5167 131.264 73.5821C128.564 70.6474 124.799 69.1904 119.97 69.2111H105.545V71.1847H106.155C107.089 71.162 108.016 71.3566 108.862 71.7531C109.627 72.1251 110.009 73.0034 110.009 74.3881V97.4106C110.009 98.8883 109.637 99.8183 108.883 100.211C108.034 100.625 107.098 100.827 106.155 100.8H105.545V102.774L119.929 102.825Z" fill="#002A41"/>
<path d="M100.308 65.7798C100.793 57.9993 100.426 50.1891 99.2125 42.4886C99.0646 41.5522 98.629 40.6851 97.9662 40.0074C97.3033 39.3297 96.446 38.8751 95.5132 38.7066C87.7673 37.1 79.8742 36.3104 71.9636 36.3506C70.9954 44.706 70.5193 53.1111 70.5376 61.5225V65.5421L71.478 65.6351C71.9326 65.6351 72.1083 65.9244 72.1703 66.3791C72.2323 66.8338 72.2943 67.4124 72.2943 67.4124C72.2943 67.4124 89.3132 67.2884 100.308 65.7798Z" fill="#68246D"/>
<path d="M66.1039 73.7678L65.1532 73.6438C64.6985 73.5921 64.5125 73.3544 64.4609 72.8894C64.4092 72.4244 64.3369 71.8561 64.3369 71.8561C55.2864 71.7113 46.2376 72.2329 37.2637 73.4164C38.7413 81.9207 48.4649 101.151 64.1302 109.376C64.9052 103.011 66.1245 87.48 66.1245 77.5084V73.7058L66.1039 73.7678Z" fill="#68246D"/>
<path d="M72.3443 71.9181C81.4188 71.7734 90.4917 72.2949 99.4898 73.4784C98.0018 81.9827 88.2886 101.213 72.6233 109.438C71.8483 103.073 70.5566 87.542 70.5566 77.5704V73.7678L71.466 73.6851C71.9103 73.6334 72.0963 73.3958 72.1583 72.9308C72.2203 72.4658 72.272 71.8975 72.272 71.8975L72.3443 71.9181Z" fill="#68246D"/>
<path d="M51.6392 54.7028C51.6183 54.7445 51.6074 54.7905 51.6074 54.8372C51.6074 54.8838 51.6183 54.9298 51.6392 54.9715C51.7487 54.9592 51.8543 54.924 51.9492 54.8682C52.0333 54.8127 52.1128 54.7505 52.1869 54.6822C52.0041 54.6784 51.8212 54.6853 51.6392 54.7028Z" fill="#702567"/>
<path d="M51.4805 50.9111L36.1562 65.7807C45.4541 66.9891 54.8252 67.545 64.2008 67.4444H64.3454C64.3454 67.4444 64.4074 66.9381 64.4591 66.4111C64.5108 65.8841 64.6968 65.7084 65.1514 65.6671L66.1021 65.5741L51.4805 50.9111ZM50.1475 55.2821C50.0752 55.5301 50.0855 55.8504 50.4265 55.8504C50.7168 55.8088 50.997 55.7142 51.2532 55.5714V55.6644C50.9071 55.9298 50.5036 56.1102 50.0752 56.1914C50.0298 56.1973 49.9836 56.1935 49.9399 56.18C49.8961 56.1666 49.8557 56.1439 49.8214 56.1136C49.7872 56.0832 49.7598 56.0459 49.7412 56.004C49.7226 55.9622 49.7131 55.9169 49.7135 55.8711C49.7549 55.6128 49.9408 55.5301 50.1475 55.2821ZM55.1385 58.8471C55.1385 59.1158 54.7252 59.2708 54.6528 59.3948C54.6088 59.4374 54.5768 59.4909 54.5598 59.5498C54.5082 59.3741 54.5598 59.2398 54.5598 59.1158C54.5598 58.9918 54.4565 58.9091 54.3222 58.9091C54.2067 58.9643 54.104 59.043 54.0206 59.1401C53.9373 59.2373 53.8751 59.3508 53.8382 59.4733C53.8012 59.5959 53.7903 59.7248 53.806 59.8519C53.8217 59.9789 53.8638 60.1012 53.9295 60.2111C53.9149 60.1171 53.9193 60.0211 53.9424 59.9288C53.9654 59.8366 54.0067 59.7498 54.0638 59.6738C54.1205 59.6038 54.1498 59.5157 54.1465 59.4258C54.2316 59.5624 54.2781 59.7195 54.2808 59.8804C54.2808 60.2318 54.0225 60.3041 54.1362 60.5728C54.1362 60.6451 54.1878 60.6968 54.2188 60.7897C54.2022 60.6836 54.2022 60.5755 54.2188 60.4694C54.2188 60.3868 54.3738 60.2214 54.3842 60.1594C54.4 60.0914 54.4 60.0207 54.3842 59.9528C54.4459 60.0173 54.4941 60.0935 54.5261 60.1769C54.558 60.2602 54.573 60.3492 54.5702 60.4384C54.5697 60.6156 54.5157 60.7885 54.4152 60.9344C54.3746 61.0231 54.3468 61.117 54.3325 61.2134C54.2602 61.7921 53.9708 62.0711 53.5988 62.0711C53.4414 62.0717 53.2859 62.0364 53.1442 61.9677C53.1442 62.7117 52.2865 62.6601 52.2865 63.1457C52.3009 63.2943 52.3667 63.4332 52.4725 63.5384C52.6743 63.6465 52.8647 63.7746 53.0408 63.9207C52.8565 63.9206 52.6791 63.9908 52.5448 64.1171C52.8548 64.2721 52.8445 64.4477 52.8858 64.6751C52.5862 64.5304 52.4415 64.6131 52.3692 64.6751C52.2968 64.7371 52.3692 64.9024 52.2142 65.0471C52.2142 64.9334 52.0902 64.8301 51.9558 64.8301C51.7875 64.8795 51.6438 64.99 51.5528 65.1401C51.5574 65.1801 51.5531 65.2206 51.5405 65.2589C51.5278 65.2972 51.5071 65.3322 51.4796 65.3617C51.4521 65.3911 51.4185 65.4143 51.3812 65.4296C51.3439 65.4448 51.3038 65.4518 51.2635 65.4501C51.2174 65.4969 51.1838 65.5545 51.1657 65.6177C51.1477 65.6809 51.1458 65.7476 51.1602 65.8117C51.0465 65.6981 51.0258 65.6257 51.0672 65.4191C50.9328 65.4191 50.9535 65.2434 50.9948 65.1504C50.9122 65.2227 50.8398 65.3157 50.6538 65.2227C50.6053 65.2503 50.5641 65.2891 50.5335 65.3358C50.503 65.3825 50.484 65.4359 50.4782 65.4914C50.4782 65.1814 50.4782 65.0781 50.5815 65.0367C50.5689 64.9819 50.5754 64.9244 50.5998 64.8737C50.6242 64.823 50.6651 64.7821 50.7158 64.7577V64.6957C50.6723 64.6991 50.6286 64.6914 50.5889 64.6734C50.5491 64.6553 50.5146 64.6274 50.4885 64.5924C50.3852 64.5924 50.2508 64.6957 50.2302 64.7577C50.2159 64.6839 50.2197 64.6078 50.2413 64.5358C50.2629 64.4638 50.3016 64.3981 50.3542 64.3444C50.4678 64.1067 50.6848 64.0654 50.8192 64.1997C50.9431 64.2973 51.0955 64.3518 51.2532 64.3547C51.3278 64.3488 51.4003 64.3274 51.4662 64.2918C51.532 64.2562 51.5897 64.2072 51.6355 64.1481C51.666 64.1146 51.6905 64.0762 51.7078 64.0344C51.7078 63.9414 51.8215 63.8381 51.6355 63.6004C51.4495 63.3627 51.1292 63.0631 51.1188 62.8151C51.1139 62.6581 51.1449 62.502 51.2094 62.3588C51.2738 62.2155 51.3701 62.0889 51.4908 61.9884H51.3462C51.0775 61.9884 51.0568 61.8231 50.7882 61.8231C50.6968 61.831 50.6121 61.8743 50.5523 61.9438C50.4924 62.0134 50.4621 62.1035 50.4678 62.1951C50.4626 62.3092 50.4953 62.4218 50.5608 62.5154C50.6407 62.6297 50.674 62.7701 50.6538 62.9081C50.584 62.8286 50.4869 62.7782 50.3817 62.7668C50.2765 62.7553 50.1709 62.7836 50.0855 62.8461C50.0739 62.9212 50.0467 62.993 50.0058 63.0571C49.9649 63.1211 49.9111 63.1759 49.8478 63.2181C49.8283 63.153 49.7917 63.0944 49.7419 63.0482C49.6922 63.002 49.631 62.9699 49.5647 62.9551C49.4984 62.9404 49.4294 62.9436 49.3647 62.9644C49.3001 62.9852 49.2421 63.0228 49.1969 63.0734C49.1969 63.1457 49.1349 63.3007 48.9282 63.3007H48.7525C48.669 63.3733 48.6051 63.4657 48.5665 63.5694C48.5511 63.5058 48.5496 63.4397 48.5621 63.3755C48.5746 63.3113 48.6008 63.2506 48.6389 63.1974C48.6389 63.1251 48.6389 62.9494 48.7215 62.8977C48.6636 62.9545 48.5857 62.9864 48.5045 62.9864C48.4234 62.9864 48.3455 62.9545 48.2875 62.8977C48.2049 62.8977 48.1325 62.9597 48.0499 63.1251C48.0515 62.9695 48.1147 62.8209 48.2255 62.7117C48.2255 62.5877 48.4012 62.4741 48.5872 62.5154V62.4534C48.5872 62.4534 48.3599 62.4534 48.3702 62.2054C48.323 62.1929 48.2733 62.193 48.2262 62.2057C48.1791 62.2184 48.1361 62.2432 48.1015 62.2777C48.1278 62.2075 48.1741 62.1466 48.2347 62.1025C48.2954 62.0584 48.3676 62.0331 48.4425 62.0297C48.4425 61.9471 48.6079 61.9367 48.6802 61.9367C48.7288 61.9317 48.7778 61.9433 48.819 61.9695C48.8603 61.9958 48.8915 62.0352 48.9075 62.0814C48.9878 62.1862 49.0936 62.2687 49.2148 62.3212C49.3359 62.3736 49.4685 62.3942 49.5999 62.3811C49.6347 62.3811 49.6691 62.3741 49.7012 62.3605C49.7332 62.3468 49.7621 62.3269 49.7863 62.3018C49.8104 62.2767 49.8292 62.247 49.8416 62.2144C49.8539 62.1819 49.8596 62.1472 49.8582 62.1124C49.8582 61.9471 49.5895 61.4717 49.5895 61.2547C49.6303 61.1031 49.7113 60.9654 49.8242 60.8562C49.937 60.747 50.0773 60.6705 50.2302 60.6348C50.6329 60.6468 51.0265 60.7567 51.3772 60.9551C51.6355 60.9551 51.6665 60.9551 51.6975 60.8724C51.3255 60.4074 51.0982 60.4178 50.7365 60.1801C50.6541 60.1165 50.5852 60.0371 50.5338 59.9467C50.4823 59.8562 50.4494 59.7564 50.4368 59.6531C50.2198 59.7048 50.0132 59.9941 49.9099 60.1801C49.8882 60.1401 49.8571 60.1061 49.8193 60.0808C49.7815 60.0556 49.7381 60.04 49.6929 60.0354C49.5172 60.0354 49.3932 60.2628 49.3105 60.4591C49.2985 60.3473 49.2473 60.2435 49.1659 60.1659C49.0846 60.0883 48.9784 60.0421 48.8662 60.0354C48.7215 60.0354 48.5562 60.0354 48.5149 60.1801C48.4832 60.2511 48.4275 60.3087 48.3575 60.3427C48.2876 60.3767 48.208 60.385 48.1325 60.3661C48.0499 60.3661 47.9879 60.4384 47.9362 60.6761C47.8639 60.3764 47.9362 60.3248 47.9362 60.2524C47.9166 60.1993 47.913 60.1417 47.9259 60.0866C47.9388 60.0315 47.9675 59.9814 48.0085 59.9424C47.8949 59.9424 47.7192 59.9424 47.6779 59.8701C47.6365 59.7978 47.5022 59.8701 47.3989 60.0458C47.4032 59.9646 47.4282 59.8858 47.4716 59.8171C47.5151 59.7483 47.5754 59.6919 47.6469 59.6531C47.6791 59.6011 47.7252 59.5591 47.7799 59.5317C47.8347 59.5044 47.8959 59.4927 47.9569 59.4981V59.4464C47.912 59.4208 47.8755 59.3828 47.8517 59.337C47.8278 59.2912 47.8177 59.2395 47.8225 59.1881C47.7295 59.0744 47.6159 59.1881 47.5332 59.1881C47.6882 59.0228 47.8742 58.9608 47.9879 59.0331C48.1015 59.1054 48.3495 59.0331 48.3805 59.2191C48.4115 59.4051 48.6699 59.4154 48.9489 59.4154C49.5585 59.4154 50.5195 58.8471 50.4472 58.3821C50.3581 58.3685 50.2676 58.3685 50.1785 58.3821C49.8479 58.3821 49.4449 58.7851 49.1452 58.7954C49.3002 58.6094 49.1452 58.4338 49.2899 58.2994C49.0623 58.3481 48.8302 58.3723 48.5975 58.3718C48.7096 58.2743 48.7799 58.1374 48.7939 57.9894C48.7939 57.9068 48.7939 57.7414 48.4322 57.7414C48.3636 57.7504 48.2941 57.7504 48.2255 57.7414C48.1429 57.7414 47.9052 57.7414 47.9052 57.5348C47.8459 57.5209 47.7839 57.5231 47.7258 57.5413C47.6676 57.5595 47.6154 57.5929 47.5745 57.6381C47.6433 57.4941 47.7657 57.3828 47.9155 57.3281C47.9316 57.289 47.9588 57.2555 47.9936 57.2316C48.0285 57.2078 48.0696 57.1946 48.1119 57.1938V57.1214C48.1119 57.0491 47.8329 57.0594 47.8329 56.8631C47.8329 56.6668 47.6882 56.7598 47.5022 56.8114C47.7399 56.6358 47.8225 56.6668 47.9052 56.6874C47.9563 56.6417 48.0226 56.6164 48.0912 56.6164C48.1598 56.6164 48.226 56.6417 48.2772 56.6874C48.2527 56.6394 48.2399 56.5863 48.2399 56.5324C48.2399 56.4786 48.2527 56.4254 48.2772 56.3774C48.2772 56.2431 48.2049 56.2018 48.0809 56.1708C48.166 56.1583 48.2529 56.1668 48.3339 56.1956C48.415 56.2245 48.4877 56.2727 48.5459 56.3361C48.6086 56.3446 48.6669 56.3734 48.7117 56.4182C48.7565 56.463 48.7854 56.5213 48.7939 56.5841C48.7939 56.8321 48.5355 57.0078 49.0419 57.2764C49.2411 57.3624 49.4446 57.4382 49.6515 57.5038C49.8539 57.5739 50.0611 57.6292 50.2715 57.6691C50.1888 57.5348 50.2715 57.3901 50.0752 57.2558C50.2497 57.2588 50.4232 57.2831 50.5918 57.3281C50.5918 57.1318 50.5918 57.1318 50.4782 57.0078H50.8398C51.4185 57.0698 51.4288 56.7804 51.5425 56.4084C51.2414 56.422 50.9491 56.5147 50.6952 56.6771C50.7057 56.5809 50.7057 56.4839 50.6952 56.3878C50.6937 56.3602 50.698 56.3327 50.7079 56.307C50.7177 56.2812 50.7329 56.2578 50.7524 56.2383C50.7719 56.2188 50.7953 56.2037 50.821 56.1938C50.8468 56.1839 50.8743 56.1796 50.9018 56.1811H51.0878C51.2118 56.1811 51.3875 56.0364 51.3048 55.7471C51.2222 55.4578 51.1602 55.5301 51.0465 55.5611L50.8088 55.6334C50.7673 55.652 50.7323 55.6826 50.7084 55.7213C50.6844 55.76 50.6726 55.805 50.6745 55.8504L50.6022 55.6438L50.5298 55.4888V55.4268C50.5167 55.3979 50.5105 55.3663 50.5115 55.3346C50.5126 55.3029 50.5209 55.2718 50.5359 55.2438C50.5509 55.2158 50.5721 55.1917 50.5979 55.1732C50.6238 55.1548 50.6535 55.1425 50.6848 55.1374L51.0568 55.0444C51.2635 54.9824 51.3255 54.9101 51.3668 54.7964C51.4082 54.6828 51.4392 54.6414 51.6252 54.6414H52.1108C52.4002 54.6414 52.7102 54.4141 52.6068 54.1661C52.8032 54.1661 52.8858 54.5174 52.8342 54.6414C52.9993 54.632 53.1608 54.5898 53.3095 54.5174C53.2877 54.7306 53.1839 54.927 53.0202 55.0651C53.19 55.0847 53.3619 55.0561 53.5162 54.9824C53.4561 55.1939 53.3421 55.3862 53.1855 55.5404C53.3181 55.5787 53.4388 55.65 53.5364 55.7475C53.634 55.8451 53.7052 55.9658 53.7435 56.0984C53.5368 56.0158 53.4232 56.0984 53.2475 56.0984C53.4703 56.4144 53.6574 56.754 53.8055 57.1111C53.6626 57.0286 53.5141 56.9561 53.3612 56.8941C53.5162 57.2454 53.2992 57.5864 53.3612 57.7724C53.2403 57.7191 53.134 57.6376 53.0512 57.5348C52.9313 57.7743 52.8845 58.0438 52.9168 58.3098C52.8192 58.2218 52.7117 58.1455 52.5965 58.0824C52.422 58.3166 52.3443 58.6089 52.3795 58.8988C52.4091 59.4534 52.5645 59.9941 52.8342 60.4798C52.9775 60.7486 53.0786 61.0378 53.1338 61.3374C53.1531 61.4589 53.2143 61.5699 53.3067 61.651C53.3992 61.7322 53.5172 61.7784 53.6402 61.7817C53.7635 61.7713 53.8781 61.7141 53.9607 61.6219C54.0433 61.5297 54.0876 61.4095 54.0845 61.2857C54.0845 60.8001 53.4852 60.4901 53.4852 59.6221C53.4852 59.0538 53.9295 58.7748 53.9398 58.4131C53.9502 58.0514 53.6505 58.2891 53.4335 58.1444C53.7125 58.1444 53.8778 57.7828 54.1258 57.7931C54.3738 57.8034 54.4048 57.9274 54.4152 58.0411C54.4122 58.1811 54.3691 58.3174 54.2912 58.4338C54.4977 58.2592 54.6275 58.0106 54.6528 57.7414C54.6528 57.5038 54.3118 57.2351 54.3945 56.7701V56.6771C54.4875 57.1938 55.2315 57.3281 55.2315 57.8448C55.2315 58.3614 54.8078 58.2478 54.5702 58.5784C54.8388 58.5061 55.1385 58.5578 55.1385 58.8471Z" fill="#68246D"/>
<path d="M64.6978 36.3512C56.7852 36.3421 48.8919 37.1314 41.1379 38.7071C40.2126 38.8811 39.3643 39.3386 38.7107 40.0162C38.0571 40.6939 37.6306 41.5581 37.4902 42.4891C36.3148 49.1866 35.8335 55.9874 36.0539 62.7837C37.5729 61.337 51.5538 47.7281 51.5538 47.7281L66.1237 62.2774C66.1402 53.6152 65.6641 44.9592 64.6978 36.3512ZM42.9979 41.0528C42.9359 41.3008 42.9359 41.6211 43.2872 41.6211C43.5835 41.5774 43.8701 41.483 44.1345 41.3421V41.4351C43.7802 41.7016 43.3706 41.8852 42.9359 41.9725C42.6569 41.9725 42.5535 41.8071 42.5535 41.6418C42.5535 41.4765 42.8119 41.3008 43.0185 41.0528H42.9979ZM48.0922 44.7108C48.0922 44.9794 47.6892 45.1344 47.6065 45.2584C47.5238 45.3824 47.5238 45.3514 47.5135 45.4238V44.9794C47.5135 44.8554 47.4102 44.7728 47.2655 44.7728C47.1208 44.7728 46.4802 45.2894 46.8212 46.1264C46.7975 45.9321 46.8493 45.7361 46.9658 45.5788C47.0209 45.508 47.0501 45.4205 47.0485 45.3308C47.1399 45.4683 47.1868 45.6307 47.1828 45.7958C47.1828 46.1471 46.9245 46.2298 47.0485 46.4881C47.0702 46.5659 47.0978 46.6419 47.1312 46.7154C47.1184 46.609 47.1184 46.5015 47.1312 46.3951C47.1831 46.2848 47.2418 46.1778 47.3068 46.0748C47.3278 46.004 47.3278 45.9286 47.3068 45.8578C47.3725 45.9242 47.4238 46.0035 47.4576 46.0905C47.4913 46.1776 47.5069 46.2708 47.5032 46.3641C47.4946 46.5399 47.4412 46.7107 47.3482 46.8601C47.3041 46.9474 47.2761 47.0419 47.2655 47.1391C47.1828 47.7384 46.8935 48.0174 46.5112 48.0174C46.3312 47.9908 46.1608 47.9198 46.0152 47.8108C46.0152 48.5651 45.1472 48.5031 45.1472 49.0094C45.1616 49.158 45.2273 49.2969 45.3332 49.4021C45.4262 49.4951 45.7775 49.6294 45.9118 49.7947C45.7236 49.7998 45.5436 49.8733 45.4055 50.0014C45.7258 50.1564 45.7155 50.3321 45.7568 50.5697C45.4468 50.4147 45.3022 50.5077 45.2298 50.5697C45.1575 50.6317 45.1782 50.7971 45.0749 50.9521C45.0749 50.8281 44.9405 50.7247 44.8165 50.7247C44.7303 50.746 44.6493 50.7845 44.5783 50.8377C44.5073 50.891 44.4478 50.958 44.4032 51.0347C44.4077 51.0761 44.4032 51.118 44.39 51.1575C44.3768 51.197 44.3553 51.2332 44.3268 51.2637C44.2984 51.2941 44.2637 51.318 44.2252 51.3338C44.1866 51.3495 44.1451 51.3568 44.1035 51.3551C44.0574 51.4019 44.0238 51.4595 44.0057 51.5227C43.9877 51.5859 43.9858 51.6526 44.0002 51.7167C43.8865 51.6031 43.8659 51.5307 43.9072 51.3241C43.7729 51.2621 43.7832 51.1484 43.8245 51.0451C43.7886 51.0996 43.7327 51.1377 43.6689 51.1513C43.605 51.1648 43.5385 51.1526 43.4835 51.1174C43.4337 51.146 43.3916 51.1864 43.3609 51.235C43.3303 51.2837 43.3121 51.3391 43.3079 51.3964C43.3079 51.0761 43.3079 50.9727 43.4112 50.9314C43.3942 50.8765 43.3986 50.8173 43.4235 50.7655C43.4484 50.7137 43.492 50.6733 43.5455 50.6524C43.5473 50.6318 43.5473 50.611 43.5455 50.5904C43.5008 50.5949 43.4556 50.5866 43.4154 50.5665C43.3751 50.5464 43.3414 50.5153 43.3182 50.4767C43.2614 50.4775 43.2059 50.4945 43.1584 50.5256C43.1108 50.5567 43.073 50.6007 43.0495 50.6524C43.0531 50.5697 43.0777 50.4892 43.1211 50.4187C43.1645 50.3481 43.2253 50.2899 43.2975 50.2494C43.4112 50.0221 43.6385 49.9807 43.7729 50.1151C43.896 50.2141 44.0489 50.2687 44.2069 50.2701C44.3597 50.255 44.5006 50.1809 44.5995 50.0634C44.6291 50.0255 44.6534 49.9838 44.6719 49.9394C44.6719 49.8464 44.7855 49.7431 44.5995 49.5054C44.4135 49.2678 44.0829 48.9578 44.0725 48.6994C44.0656 48.5381 44.0966 48.3775 44.163 48.2303C44.2294 48.0832 44.3294 47.9536 44.4549 47.8521H44.2999C44.0312 47.8521 44.0105 47.6868 43.7315 47.6868C43.6393 47.6972 43.5545 47.7427 43.4949 47.8139C43.4353 47.885 43.4053 47.9764 43.4112 48.0691C43.4043 48.1834 43.4371 48.2966 43.5042 48.3894C43.5829 48.5081 43.6159 48.6513 43.5972 48.7924C43.5204 48.7197 43.4187 48.6792 43.313 48.6792C43.2073 48.6792 43.1056 48.7197 43.0289 48.7924C42.9944 48.9426 42.9062 49.0749 42.7809 49.1644C42.7596 49.0994 42.7217 49.0411 42.671 48.9952C42.6202 48.9494 42.5584 48.9175 42.4916 48.9029C42.4248 48.8883 42.3553 48.8914 42.29 48.9119C42.2248 48.9324 42.166 48.9696 42.1195 49.0198C42.1195 49.0921 42.0575 49.2471 41.8405 49.2471H41.6649C41.5788 49.3216 41.5145 49.418 41.4789 49.5261C41.4619 49.461 41.4596 49.3929 41.4721 49.3268C41.4846 49.2607 41.5116 49.1982 41.5512 49.1438C41.5512 49.0714 41.5512 48.8854 41.6339 48.8338C41.5742 48.8912 41.4946 48.9233 41.4117 48.9233C41.3289 48.9233 41.2492 48.8912 41.1895 48.8338C41.1172 48.8338 41.0345 48.9061 40.9519 49.0714C40.9495 48.9924 40.9639 48.9137 40.9942 48.8407C41.0244 48.7677 41.0699 48.7019 41.1275 48.6478C41.1275 48.5134 41.3135 48.4101 41.4892 48.4411C41.6649 48.4721 41.4892 48.4411 41.4892 48.3791C41.4892 48.3171 41.2619 48.3791 41.2825 48.1208C41.2312 48.1107 41.1782 48.1129 41.1279 48.1273C41.0776 48.1416 41.0315 48.1677 40.9932 48.2034C41.0219 48.1319 41.0699 48.0698 41.132 48.0242C41.1941 47.9785 41.2677 47.9511 41.3445 47.9451C41.3445 47.8624 41.5202 47.8521 41.5925 47.8521C41.6184 47.8315 41.6485 47.8171 41.6808 47.8099C41.713 47.8028 41.7464 47.803 41.7785 47.8108C41.8614 47.918 41.9706 48.0019 42.0956 48.0544C42.2205 48.107 42.3569 48.1262 42.4915 48.1104C42.5273 48.1105 42.5626 48.1032 42.5954 48.089C42.6282 48.0747 42.6576 48.0538 42.6819 48.0276C42.7062 48.0014 42.7248 47.9704 42.7365 47.9366C42.7482 47.9029 42.7527 47.867 42.7499 47.8314C42.7499 47.6661 42.4709 47.1908 42.4709 46.9738C42.5121 46.8168 42.5955 46.674 42.7121 46.5611C42.8287 46.4482 42.974 46.3693 43.1322 46.3331C43.9382 46.3331 44.1655 46.6638 44.2999 46.6638C44.4342 46.6638 44.5892 46.6638 44.6305 46.5708C44.2482 46.1058 44.0002 46.1161 43.5972 45.8681C43.5148 45.8045 43.4459 45.7252 43.3945 45.6347C43.343 45.5442 43.3101 45.4444 43.2975 45.3411C43.0805 45.3928 42.8635 45.6924 42.7499 45.8784C42.7322 45.8346 42.7024 45.7967 42.664 45.7693C42.6255 45.7418 42.58 45.7259 42.5329 45.7234C42.3572 45.7234 42.2332 45.9611 42.1402 46.1574C42.0885 45.9301 41.9542 45.7234 41.6959 45.7234C41.629 45.718 41.5619 45.7293 41.5006 45.7564C41.4392 45.7835 41.3856 45.8254 41.3445 45.8784C41.3108 45.9497 41.2527 46.0066 41.1807 46.0388C41.1087 46.0711 41.0275 46.0765 40.9519 46.0541C40.8937 46.0863 40.8443 46.1324 40.8083 46.1883C40.7722 46.2442 40.7505 46.3081 40.7452 46.3744C40.6729 46.0748 40.7452 46.0231 40.7452 45.9404C40.7282 45.8862 40.7269 45.8283 40.7416 45.7734C40.7562 45.7186 40.7861 45.669 40.8279 45.6304C40.7039 45.6304 40.5385 45.6304 40.4869 45.5581C40.4352 45.4858 40.3112 45.5581 40.1975 45.7338C40.2029 45.6515 40.2295 45.5721 40.2748 45.5033C40.3201 45.4344 40.3825 45.3786 40.4559 45.3411C40.4559 45.2274 40.6522 45.1861 40.7762 45.1861C40.9002 45.1861 40.7762 45.1861 40.7762 45.1241C40.7315 45.0964 40.6959 45.0561 40.6739 45.0084C40.6518 44.9606 40.6443 44.9074 40.6522 44.8554C40.5489 44.7418 40.4455 44.8554 40.3525 44.8554C40.5075 44.7004 40.6935 44.6384 40.8175 44.7108C41.0862 44.6178 41.1895 44.7108 41.2102 44.8968C41.2309 45.0828 41.5099 45.0931 41.7992 45.0931C42.4089 45.0931 43.3905 44.5248 43.3182 44.0598C43.2261 44.0411 43.1313 44.0411 43.0392 44.0598C42.7085 44.0598 42.3055 44.4628 42.0059 44.4731C42.1712 44.2871 42.0679 44.1011 42.1609 43.9668C41.9304 44.0199 41.6947 44.0476 41.4582 44.0494C41.5693 43.9469 41.6392 43.8072 41.6545 43.6568C41.6545 43.5741 41.6545 43.3984 41.2929 43.3984C41.2208 43.4072 41.1479 43.4072 41.0759 43.3984C40.9932 43.3984 40.7555 43.3984 40.7555 43.1918C40.6946 43.1781 40.6312 43.1804 40.5714 43.1985C40.5117 43.2167 40.4576 43.2499 40.4145 43.2951C40.4875 43.1505 40.6133 43.0395 40.7659 42.9851C40.7842 42.9467 40.8116 42.9134 40.8459 42.8882C40.8801 42.8629 40.9201 42.8465 40.9622 42.8405V42.7785C40.9622 42.7165 40.6729 42.7165 40.6832 42.5098C40.6935 42.3031 40.5385 42.4065 40.3422 42.5098C40.5799 42.3238 40.6729 42.3548 40.7452 42.3858C40.7702 42.3605 40.8 42.3404 40.8328 42.3267C40.8656 42.313 40.9008 42.3059 40.9364 42.3059C40.9719 42.3059 41.0071 42.313 41.04 42.3267C41.0728 42.3404 41.1025 42.3605 41.1275 42.3858V42.3341C41.1029 42.2843 41.0901 42.2295 41.0901 42.174C41.0901 42.1184 41.1029 42.0636 41.1275 42.0138C41.1275 41.8691 41.0655 41.8278 40.9312 41.7968C41.0171 41.7873 41.104 41.7983 41.1848 41.8288C41.2656 41.8594 41.338 41.9086 41.3962 41.9725C41.4609 41.9788 41.5215 42.0067 41.5683 42.0517C41.6152 42.0967 41.6456 42.1561 41.6545 42.2205C41.6545 42.4788 41.3859 42.6545 41.9129 42.9231C42.1128 43.0188 42.3202 43.0983 42.5329 43.1608C42.7387 43.2312 42.9493 43.2865 43.1632 43.3261C43.0702 43.1918 43.1632 43.0471 42.9669 42.9025C43.1418 42.909 43.3153 42.9367 43.4835 42.9851C43.4835 42.7785 43.4835 42.7785 43.3699 42.6545H43.7315C44.3309 42.7165 44.3412 42.4168 44.4549 42.0448C44.1456 42.0573 43.8455 42.1537 43.5869 42.3238C43.6024 42.2245 43.6024 42.1234 43.5869 42.0241C43.5854 41.9966 43.5897 41.9691 43.5995 41.9433C43.6094 41.9176 43.6246 41.8942 43.6441 41.8747C43.6636 41.8552 43.687 41.84 43.7127 41.8301C43.7385 41.8203 43.766 41.816 43.7935 41.8175H43.9795C44.1035 41.8175 44.2895 41.6728 44.2069 41.3835C44.2019 41.3534 44.1909 41.3246 44.1746 41.2988C44.1583 41.2731 44.137 41.2509 44.1119 41.2335C44.0869 41.2162 44.0586 41.204 44.0287 41.1978C43.9989 41.1916 43.9681 41.1915 43.9382 41.1975C43.8575 41.2163 43.7781 41.2405 43.7005 41.2698C43.5972 41.2698 43.5662 41.3835 43.5559 41.4868C43.5559 41.4351 43.5559 41.3111 43.4835 41.2698C43.4576 41.224 43.4368 41.1755 43.4215 41.1251V41.0528C43.4083 41.0231 43.4023 40.9908 43.4039 40.9584C43.4056 40.926 43.4148 40.8944 43.4309 40.8663C43.447 40.8381 43.4695 40.8141 43.4966 40.7962C43.5237 40.7784 43.5546 40.7671 43.5869 40.7635L43.9589 40.6705C44.0275 40.6594 44.0922 40.6307 44.1465 40.5873C44.2008 40.5438 44.243 40.487 44.2689 40.4225C44.3205 40.3088 44.3515 40.2571 44.5375 40.2571H44.9095C45.1988 40.2571 45.5192 40.0195 45.4158 39.7715C45.6122 39.7715 45.6948 40.1331 45.6432 40.2571C45.8083 40.2476 45.9698 40.2055 46.1185 40.1331C46.1131 40.24 46.0845 40.3444 46.0345 40.439C45.9845 40.5336 45.9144 40.6161 45.8292 40.6808C46.0014 40.7081 46.1778 40.6829 46.3355 40.6085C46.2711 40.8211 46.1578 41.0157 46.0048 41.1768C46.1391 41.2151 46.2611 41.2876 46.3589 41.3872C46.4568 41.4868 46.527 41.6102 46.5628 41.7451C46.3562 41.6521 46.2425 41.7451 46.0668 41.7451C46.3193 42.1272 46.5208 42.5406 46.6662 42.9748C46.5221 42.8944 46.3738 42.8219 46.2218 42.7578C46.3768 43.1195 46.1495 43.4708 46.2218 43.6568C46.1024 43.5966 45.9968 43.5121 45.9118 43.4088C45.7975 43.6538 45.7511 43.925 45.7775 44.1941C45.6773 44.1095 45.5701 44.0335 45.4572 43.9668C45.2764 44.2021 45.1948 44.4988 45.2298 44.7934C45.2594 45.3593 45.4184 45.9108 45.6948 46.4054C45.8393 46.6811 45.9404 46.9773 45.9945 47.2838C46.016 47.4061 46.0792 47.5173 46.1734 47.5983C46.2676 47.6793 46.387 47.7252 46.5112 47.7281C46.6363 47.7201 46.7536 47.664 46.8383 47.5716C46.9231 47.4791 46.9688 47.3575 46.9658 47.2321C46.9658 46.7361 46.3562 46.4158 46.3562 45.5374C46.3562 44.9588 46.8005 44.6694 46.8108 44.3078C46.8212 43.9461 46.5318 44.1838 46.3045 44.0391C46.5938 43.9771 46.7592 43.6671 47.0175 43.6774C47.0526 43.673 47.0882 43.6762 47.122 43.6866C47.1557 43.6971 47.1869 43.7147 47.2133 43.7381C47.2397 43.7616 47.2608 43.7905 47.2751 43.8228C47.2895 43.8551 47.2968 43.8901 47.2965 43.9254C47.2963 44.0677 47.257 44.2071 47.1828 44.3284C47.3879 44.1496 47.5141 43.8971 47.5342 43.6258C47.5342 43.3778 47.1932 43.0988 47.2862 42.5925C47.2815 42.5616 47.2815 42.5303 47.2862 42.4995C47.3895 43.0265 48.1438 43.1608 48.1438 43.6878C48.1438 44.2148 47.7202 44.0908 47.4722 44.4421C47.7925 44.3284 48.0922 44.3801 48.0922 44.7108ZM57.2785 40.0711C57.2061 40.3295 57.2061 40.6601 57.5781 40.6601C57.8853 40.6146 58.1824 40.5167 58.4564 40.3708V40.4638C58.0865 40.7407 57.6593 40.9313 57.2061 41.0218C57.1569 41.0312 57.1062 41.0294 57.0579 41.0164C57.0095 41.0034 56.9647 40.9796 56.9269 40.9467C56.8891 40.9139 56.8592 40.8729 56.8396 40.8268C56.8199 40.7808 56.811 40.7308 56.8135 40.6808C56.8961 40.4121 57.1028 40.3191 57.2785 40.0711ZM62.5691 43.8428C62.5691 44.1218 62.1351 44.2871 62.0524 44.4214C62.0099 44.4692 61.9782 44.5256 61.9594 44.5868C61.8974 44.4008 61.9594 44.2561 61.9594 44.1218C61.9594 43.9874 61.8561 43.9048 61.7011 43.9048C61.5766 43.966 61.4657 44.0517 61.375 44.1567C61.2843 44.2618 61.2157 44.384 61.1732 44.5161C61.1308 44.6482 61.1154 44.7875 61.128 44.9257C61.1406 45.0639 61.1809 45.1981 61.2464 45.3204C61.2165 45.1208 61.2646 44.9172 61.3808 44.7521C61.4445 44.6816 61.4779 44.5888 61.4738 44.4938C61.5681 44.6382 61.6184 44.8069 61.6184 44.9794C61.6184 45.3514 61.3498 45.4238 61.4738 45.7028C61.4968 45.7835 61.5244 45.8628 61.5564 45.9404C61.5375 45.8276 61.5375 45.7123 61.5564 45.5994C61.5564 45.5064 61.7218 45.3411 61.7321 45.2688C61.7533 45.1945 61.7533 45.1157 61.7321 45.0414C61.7979 45.1121 61.8491 45.1949 61.8828 45.2854C61.9165 45.3758 61.932 45.472 61.9284 45.5684C61.9234 45.7513 61.8699 45.9296 61.7734 46.0851C61.7257 46.179 61.6942 46.2803 61.6804 46.3848C61.5978 47.0048 61.2981 47.2941 60.8951 47.2941C60.6853 47.308 60.4762 47.2575 60.2958 47.1494C60.2958 47.9451 59.3968 47.8831 59.3968 48.3998C59.4106 48.5545 59.4762 48.7001 59.5828 48.8131C59.6861 48.9061 60.0478 49.0404 60.1821 49.2264C59.9894 49.2248 59.8038 49.299 59.6654 49.4331C59.9858 49.5984 59.9754 49.7844 60.0168 50.0221C59.6964 49.8671 59.5518 49.9601 59.4691 50.0221C59.3864 50.0841 59.4691 50.2597 59.3141 50.4251C59.3141 50.3011 59.1798 50.1874 59.0351 50.1874C58.8557 50.2371 58.7033 50.3561 58.6114 50.5181C58.6143 50.5605 58.6084 50.603 58.5941 50.6431C58.5798 50.6831 58.5574 50.7198 58.5283 50.7508C58.4992 50.7818 58.4641 50.8065 58.4251 50.8233C58.386 50.8402 58.344 50.8488 58.3015 50.8487C58.251 50.897 58.2146 50.9581 58.1964 51.0255C58.1782 51.0929 58.1788 51.164 58.1981 51.2311C58.0741 51.1071 58.0535 51.0347 58.0948 50.8177C57.9501 50.7557 57.9708 50.6317 58.0121 50.5181C57.971 50.5721 57.9115 50.6092 57.8449 50.6225C57.7784 50.6358 57.7092 50.6244 57.6505 50.5904C57.6005 50.6225 57.558 50.6649 57.5259 50.7148C57.4938 50.7647 57.4729 50.821 57.4645 50.8797C57.4645 50.5491 57.4645 50.4354 57.5781 50.3941C57.5613 50.3365 57.5668 50.2747 57.5936 50.221C57.6205 50.1673 57.6666 50.1258 57.7228 50.1047C57.7289 50.081 57.7289 50.0561 57.7228 50.0324C57.6767 50.0355 57.6307 50.0266 57.5891 50.0067C57.5474 49.9868 57.5116 49.9565 57.4851 49.9187C57.3818 49.9187 57.2371 50.0324 57.2061 50.1047C57.2089 50.0192 57.2343 49.9359 57.2797 49.8633C57.325 49.7907 57.3888 49.7314 57.4645 49.6914C57.5885 49.4434 57.8261 49.4021 57.9605 49.5467C58.0914 49.6459 58.2508 49.7003 58.4151 49.7017C58.4953 49.6963 58.5735 49.6741 58.6446 49.6368C58.7158 49.5994 58.7784 49.5476 58.8284 49.4848C58.858 49.4468 58.8823 49.4051 58.9008 49.3608C58.9008 49.2678 59.0248 49.1541 58.8284 48.9061C58.6321 48.6581 58.2911 48.3378 58.2808 48.0691C58.2701 47.9018 58.3003 47.7345 58.3687 47.5814C58.4371 47.4284 58.5417 47.2943 58.6734 47.1908H58.5185C58.2395 47.1908 58.2085 47.0151 57.9191 47.0151C57.8241 47.0255 57.7368 47.0721 57.6752 47.1453C57.6136 47.2184 57.5826 47.3124 57.5885 47.4078C57.5801 47.5287 57.6129 47.6488 57.6815 47.7488C57.7253 47.8072 57.7562 47.8742 57.7723 47.9455C57.7883 48.0167 57.789 48.0905 57.7745 48.1621C57.6943 48.088 57.5891 48.0469 57.48 48.0469C57.3708 48.0469 57.2656 48.088 57.1855 48.1621C57.1512 48.3206 57.0591 48.4606 56.9271 48.5548C56.9074 48.4847 56.8692 48.4214 56.8164 48.3713C56.7636 48.3213 56.6982 48.2865 56.6272 48.2706C56.5562 48.2547 56.4823 48.2583 56.4132 48.2811C56.3441 48.3038 56.2825 48.3448 56.2348 48.3998C56.2348 48.4721 56.1728 48.6374 55.9558 48.6374C55.7388 48.6374 55.8318 48.6374 55.7698 48.5858C55.675 48.6587 55.6062 48.7601 55.5735 48.8751C55.5562 48.806 55.5546 48.7339 55.5689 48.6642C55.5833 48.5944 55.613 48.5288 55.6561 48.4721C55.6561 48.3998 55.6561 48.2034 55.7388 48.1518V48.1001C55.709 48.1301 55.6736 48.1539 55.6346 48.1701C55.5956 48.1864 55.5537 48.1947 55.5115 48.1947C55.4692 48.1947 55.4274 48.1864 55.3883 48.1701C55.3493 48.1539 55.3139 48.1301 55.2841 48.1001C55.2015 48.1001 55.1188 48.1724 55.0361 48.3481C55.017 48.251 55.0231 48.1506 55.0539 48.0565C55.0846 47.9624 55.139 47.8778 55.2118 47.8108C55.2118 47.6764 55.3978 47.5628 55.5838 47.6041V47.5318C55.5838 47.5318 55.3461 47.5318 55.3565 47.2631C55.3055 47.2464 55.2507 47.2454 55.1991 47.2601C55.1476 47.2749 55.1016 47.3047 55.0671 47.3458C55.0938 47.2701 55.1425 47.204 55.2069 47.1562C55.2714 47.1083 55.3486 47.0808 55.4288 47.0771C55.4288 46.9944 55.6045 46.9841 55.6768 46.9841C55.7283 46.9779 55.7803 46.9886 55.8251 47.0147C55.8699 47.0409 55.9049 47.0809 55.9248 47.1288C56.0086 47.2414 56.1204 47.3303 56.249 47.3865C56.3777 47.4426 56.5189 47.4642 56.6585 47.4491C56.696 47.4491 56.7331 47.4416 56.7677 47.4269C56.8022 47.4122 56.8334 47.3908 56.8595 47.3638C56.8855 47.3367 56.9059 47.3048 56.9193 47.2697C56.9327 47.2347 56.9388 47.1973 56.9375 47.1598C56.9375 46.9841 56.6378 46.4881 56.6378 46.2608C56.6807 46.0962 56.768 45.9466 56.8901 45.8282C57.0121 45.7097 57.1643 45.6271 57.3301 45.5891C58.1671 45.5891 58.3634 45.9404 58.5391 45.9404C58.7148 45.9404 58.8388 45.8888 58.8801 45.8474C58.4874 45.3618 58.2395 45.3721 57.8468 45.1138C57.7607 45.046 57.689 44.9617 57.6358 44.8659C57.5825 44.7701 57.5489 44.6647 57.5368 44.5558C57.2991 44.6074 57.0718 44.9174 56.9685 45.1138C56.9481 45.0698 56.9162 45.0322 56.8761 45.005C56.8361 44.9777 56.7895 44.9617 56.7411 44.9588C56.5551 44.9588 56.4208 45.2068 56.3278 45.4134C56.3278 45.1758 56.1315 44.9588 55.8628 44.9588C55.7933 44.9516 55.7231 44.9632 55.6595 44.9923C55.5959 45.0213 55.5412 45.0668 55.5011 45.1241C55.4624 45.1963 55.4008 45.2537 55.3261 45.2873C55.2513 45.321 55.1676 45.329 55.0878 45.3101C55.0051 45.3101 54.9328 45.3824 54.8708 45.6304C54.7985 45.3204 54.8708 45.2688 54.8708 45.1861C54.8519 45.1296 54.8487 45.069 54.8614 45.0108C54.8742 44.9526 54.9024 44.8989 54.9431 44.8554C54.8191 44.8554 54.6435 44.8554 54.5918 44.7831C54.5401 44.7108 54.4161 44.7831 54.2921 44.9691C54.2998 44.8835 54.3283 44.8011 54.3752 44.7291C54.422 44.657 54.4857 44.5975 54.5608 44.5558C54.5608 44.4421 54.7675 44.3904 54.8915 44.3904V44.3284C54.8439 44.3033 54.8053 44.2638 54.7812 44.2156C54.7572 44.1675 54.7487 44.113 54.7571 44.0598C54.6538 43.9358 54.5401 44.0081 54.4471 44.0598C54.6125 43.8841 54.7985 43.8221 54.9328 43.8944C55.2118 43.8014 55.3151 43.8944 55.3358 44.0908C55.3565 44.2871 55.6561 44.2974 55.9455 44.2974C56.5861 44.2974 57.6091 43.6981 57.5368 43.2641C57.4412 43.246 57.343 43.246 57.2475 43.2641C56.9065 43.2641 56.4725 43.6981 56.1418 43.6981C56.3071 43.5121 56.2038 43.3158 56.2968 43.1814C56.0545 43.2249 55.8092 43.2491 55.5631 43.2538C55.6812 43.151 55.7552 43.0067 55.7698 42.8508C55.7698 42.7578 55.7698 42.5925 55.3875 42.5925C55.3154 42.6012 55.2425 42.6012 55.1705 42.5925C55.0775 42.5925 54.8295 42.5925 54.8295 42.3651C54.7661 42.3555 54.7014 42.3608 54.6404 42.3805C54.5794 42.4003 54.5239 42.4339 54.4781 42.4788C54.551 42.3257 54.6808 42.207 54.8398 42.1481C54.8607 42.1076 54.8916 42.073 54.9296 42.0477C54.9675 42.0224 55.0113 42.0072 55.0568 42.0035C55.0583 41.9794 55.0583 41.9552 55.0568 41.9311C54.9225 41.9311 54.7571 41.8691 54.7675 41.6521C54.7778 41.4351 54.6125 41.5488 54.4058 41.6521C54.6641 41.4661 54.7571 41.4971 54.8398 41.5281C54.892 41.4764 54.9626 41.4474 55.0361 41.4474C55.1097 41.4474 55.1802 41.4764 55.2325 41.5281V41.4661C55.2044 41.4174 55.1896 41.3622 55.1896 41.306C55.1896 41.2497 55.2044 41.1945 55.2325 41.1458C55.2325 40.9908 55.1601 40.9495 55.0155 40.9185C55.1061 40.9065 55.1984 40.9161 55.2846 40.9467C55.3708 40.9772 55.4486 41.0277 55.5115 41.0941C55.5784 41.1059 55.6402 41.1379 55.6882 41.186C55.7363 41.2341 55.7684 41.2958 55.7801 41.3628C55.7801 41.6211 55.5011 41.8071 56.0385 42.0861C56.2495 42.1836 56.467 42.2664 56.6895 42.3341C56.9011 42.4111 57.1188 42.4699 57.3405 42.5098C57.2475 42.3651 57.3405 42.2205 57.1338 42.0655C57.319 42.0712 57.5028 42.0989 57.6815 42.1481C57.6815 41.9415 57.6815 41.9415 57.5575 41.8071H57.9398C58.5598 41.8691 58.5701 41.5695 58.6941 41.1768C58.3704 41.1891 58.0561 41.2891 57.7848 41.4661C57.8004 41.3634 57.8004 41.2589 57.7848 41.1561C57.7833 41.1272 57.7879 41.0984 57.7983 41.0714C57.8087 41.0444 57.8246 41.0198 57.845 40.9994C57.8655 40.9789 57.89 40.963 57.917 40.9526C57.944 40.9422 57.9729 40.9376 58.0018 40.9391H58.1981C58.3324 40.9391 58.5184 40.7841 58.4358 40.4845C58.4358 40.3398 58.2808 40.2468 58.1568 40.2881C58.0328 40.3295 58.0431 40.2881 57.9088 40.3605C57.8634 40.3788 57.8245 40.4102 57.7969 40.4507C57.7693 40.4911 57.7543 40.5388 57.7538 40.5878C57.7538 40.5878 57.7021 40.4018 57.6815 40.3708L57.6091 40.2055V40.1435C57.5941 40.1127 57.5866 40.0787 57.5872 40.0444C57.5879 40.0102 57.5966 39.9765 57.6127 39.9463C57.6289 39.9161 57.6519 39.8901 57.68 39.8705C57.7081 39.8508 57.7405 39.8382 57.7745 39.8335L58.1671 39.7405C58.3841 39.6785 58.4461 39.5958 58.4874 39.4821C58.5288 39.3685 58.5701 39.3168 58.7664 39.3168H59.3451C59.6448 39.3168 59.9754 39.0791 59.8618 38.8105C60.0788 38.8105 60.1614 39.1825 60.1098 39.3168C60.2815 39.3074 60.4498 39.2653 60.6058 39.1928C60.6003 39.3048 60.5695 39.414 60.5158 39.5125C60.4621 39.6109 60.3869 39.6959 60.2958 39.7611C60.4747 39.7895 60.6581 39.7643 60.8228 39.6888C60.7591 39.9071 60.6419 40.106 60.4818 40.2675C60.6207 40.3108 60.7466 40.3884 60.8477 40.4932C60.9488 40.5979 61.022 40.7264 61.0604 40.8668C60.8538 40.7738 60.7298 40.8668 60.5438 40.8668C60.8086 41.2684 61.0204 41.7026 61.1741 42.1585C61.0265 42.0684 60.8708 41.9923 60.7091 41.9311C60.8744 42.3031 60.6368 42.6648 60.7091 42.8611C60.587 42.8004 60.4781 42.7161 60.3888 42.6131C60.2631 42.8657 60.2129 43.1491 60.2441 43.4294C60.1388 43.3359 60.0246 43.2528 59.9031 43.1814C59.7225 43.4327 59.6416 43.742 59.6758 44.0494C59.704 44.6378 59.8704 45.2113 60.1614 45.7234C60.3082 46.0136 60.4126 46.3233 60.4714 46.6431C60.493 46.771 60.5585 46.8873 60.6565 46.9722C60.7546 47.057 60.8791 47.1051 61.0088 47.1081C61.1394 47.1001 61.2619 47.0418 61.3505 46.9455C61.4391 46.8492 61.487 46.7223 61.4841 46.5914C61.4841 46.0644 60.8538 45.7338 60.8538 44.8244C60.8538 44.2251 61.3084 43.9254 61.3291 43.5431C61.3498 43.1608 61.0294 43.4088 60.7918 43.2538C61.0914 43.2538 61.2671 42.8715 61.5358 42.8818C61.8044 42.8921 61.8148 43.0265 61.8251 43.1401C61.8241 43.2887 61.785 43.4346 61.7114 43.5638C61.9196 43.3719 62.0516 43.1114 62.0834 42.8301C62.0834 42.5718 61.7218 42.2825 61.8148 41.7968C61.8117 41.7624 61.8117 41.7278 61.8148 41.6935C61.9284 42.2515 62.7138 42.3961 62.7138 42.9438C62.7138 43.4914 62.2694 43.3571 62.0111 43.7188C62.2901 43.4811 62.6104 43.5328 62.6104 43.8428H62.5691Z" fill="#68246D"/>
<path d="M44.5404 40.4627C44.5202 40.5046 44.5098 40.5505 44.5098 40.597C44.5098 40.6435 44.5202 40.6894 44.5404 40.7313C44.6528 40.7176 44.7615 40.6825 44.8607 40.628C44.9537 40.566 44.9847 40.5143 45.0984 40.442C44.9122 40.4289 44.7251 40.4358 44.5404 40.4627Z" fill="#702567"/>
<path d="M58.8984 39.4502C58.8778 39.4956 58.8672 39.5449 58.8672 39.5948C58.8672 39.6447 58.8778 39.694 58.8984 39.7395C59.0133 39.7172 59.1246 39.6789 59.229 39.6258C59.3324 39.5638 59.3634 39.5122 59.477 39.4295C59.2839 39.4161 59.09 39.423 58.8984 39.4502Z" fill="#702567"/>
</g>
<defs>
<clipPath id="clip0_3412_3413">
<rect width="247.999" height="102.299" fill="white" transform="translate(36 36.3501)"/>
</clipPath>
</defs>
</svg>
