<svg width="320" height="175" viewBox="0 0 320 175" fill="none" xmlns="http://www.w3.org/2000/svg">
  <rect x="0.818824" y="0.818824" width="318.362" height="173.362" rx="2.45647" fill="#163B3B"/>
  <g clip-path="url(#clip0_3456_2101)">
    <path d="M133.694 87.5073C133.694 102.765 121.25 115.132 105.898 115.132C90.5464 115.132 78.1172 102.75 78.1172 87.5073C78.1172 72.2647 90.5612 59.8828 105.913 59.8828C121.265 59.8828 133.694 72.25 133.694 87.5073Z" fill="#00C896"/>
    <path d="M119.79 76.6218V73.2036H116.173C113.28 71.1498 109.737 69.9468 105.914 69.9468C102.09 69.9468 98.5477 71.1498 95.6544 73.2036H92.0379V76.6218C89.6613 79.6146 88.2441 83.3849 88.2441 87.4926C88.2441 93.4782 91.2703 98.7742 95.8759 101.943C96.1711 102.148 96.4663 102.324 96.7763 102.486L105.914 107.298L115.051 102.486C115.391 102.31 115.701 102.119 116.011 101.899C120.587 98.7302 123.583 93.4488 123.583 87.478C123.583 83.3996 122.166 79.6146 119.79 76.6218Z" fill="white"/>
    <path d="M119.051 94.725V73.981H92.7754V94.725C92.7754 97.7324 94.4434 100.505 97.13 101.913L105.913 106.535L114.696 101.913C117.368 100.49 119.051 97.7324 119.051 94.725ZM110.637 101.444C110.637 100.989 111.006 100.608 111.478 100.608C111.936 100.608 112.32 100.975 112.32 101.444C112.32 101.899 111.951 102.28 111.478 102.28C111.021 102.28 110.637 101.913 110.637 101.444ZM105.027 104.173C105.027 103.718 105.397 103.337 105.869 103.337C106.326 103.337 106.71 103.703 106.71 104.173C106.71 104.642 106.341 105.009 105.869 105.009C105.397 105.009 105.027 104.628 105.027 104.173ZM102.385 100.402L105.913 98.5099L109.426 100.402L105.898 102.251L102.385 100.402ZM99.4329 101.444C99.4329 100.989 99.8019 100.608 100.274 100.608C100.732 100.608 101.116 100.975 101.116 101.444C101.116 101.899 100.732 102.28 100.274 102.28C99.8167 102.266 99.4329 101.899 99.4329 101.444ZM96.5691 93.4927L102.651 96.7642L99.0933 98.6713L98.9014 98.5686C98.1929 98.2019 97.6024 97.6444 97.2039 96.9696C96.7905 96.2947 96.5691 95.5172 96.5691 94.725V93.4927ZM93.8235 92.8912C93.8235 92.4364 94.1925 92.055 94.6649 92.055C95.1225 92.055 95.5063 92.4217 95.5063 92.8912C95.5063 93.346 95.1225 93.7274 94.6649 93.7274C94.1925 93.7274 93.8235 93.346 93.8235 92.8912ZM93.8235 87.2724C93.8235 86.8176 94.1925 86.4362 94.6649 86.4362C95.1225 86.4362 95.5063 86.8029 95.5063 87.2724C95.5063 87.7272 95.1225 88.1086 94.6649 88.1086C94.1925 88.1086 93.8235 87.7272 93.8235 87.2724ZM93.8235 81.6536C93.8235 81.1988 94.1925 80.8174 94.6649 80.8174C95.1225 80.8174 95.5063 81.1841 95.5063 81.6536C95.5063 82.1084 95.1225 82.4898 94.6649 82.4898C94.1925 82.4751 93.8235 82.1084 93.8235 81.6536ZM95.521 75.8881C95.521 76.3429 95.152 76.7243 94.6796 76.7243C94.222 76.7243 93.8382 76.3576 93.8382 75.8881C93.8382 75.4333 94.222 75.0519 94.6796 75.0519C95.152 75.0519 95.521 75.4333 95.521 75.8881ZM96.4363 97.9085C96.4363 98.3632 96.0672 98.7447 95.5948 98.7447C95.1225 98.7447 94.7534 98.3779 94.7534 97.9085C94.7534 97.4537 95.1225 97.0722 95.5948 97.0722C96.0672 97.0722 96.4363 97.4537 96.4363 97.9085ZM102.99 75.8881C102.99 76.3429 102.621 76.7243 102.149 76.7243C101.691 76.7243 101.308 76.3576 101.308 75.8881C101.308 75.4333 101.677 75.0519 102.149 75.0519C102.607 75.0519 102.99 75.4333 102.99 75.8881ZM110.445 75.8881C110.445 76.3429 110.076 76.7243 109.604 76.7243C109.146 76.7243 108.762 76.3576 108.762 75.8881C108.762 75.4333 109.131 75.0519 109.604 75.0519C110.076 75.0519 110.445 75.4333 110.445 75.8881ZM115.257 90.0011L105.913 95.0037L96.5691 89.9864V77.7513H115.257V90.0011ZM115.257 94.725C115.257 95.5172 115.036 96.2947 114.637 96.9696C114.224 97.6444 113.633 98.2019 112.94 98.5686L112.748 98.6713L109.19 96.7642L115.257 93.5073V94.725ZM116.217 97.1016C116.674 97.1016 117.058 97.4683 117.058 97.9378C117.058 98.3926 116.689 98.774 116.217 98.774C115.759 98.774 115.375 98.4073 115.375 97.9378C115.39 97.4683 115.759 97.1016 116.217 97.1016ZM117.914 75.8881C117.914 76.3429 117.545 76.7243 117.073 76.7243C116.615 76.7243 116.232 76.3576 116.232 75.8881C116.232 75.4333 116.601 75.0519 117.073 75.0519C117.545 75.0519 117.914 75.4333 117.914 75.8881ZM117.914 81.6683C117.914 82.1231 117.545 82.5045 117.073 82.5045C116.615 82.5045 116.232 82.1377 116.232 81.6683C116.232 81.2135 116.601 80.8321 117.073 80.8321C117.545 80.8321 117.914 81.2135 117.914 81.6683ZM117.914 87.2871C117.914 87.7418 117.545 88.1233 117.073 88.1233C116.615 88.1233 116.232 87.7565 116.232 87.2871C116.232 86.8323 116.601 86.4508 117.073 86.4508C117.545 86.4508 117.914 86.8323 117.914 87.2871ZM117.914 92.9058C117.914 93.3606 117.545 93.7421 117.073 93.7421C116.615 93.7421 116.232 93.3753 116.232 92.9058C116.232 92.4511 116.601 92.0696 117.073 92.0696C117.545 92.0696 117.914 92.4511 117.914 92.9058ZM105.913 91.9523L106.267 92.2017H108.6L109.028 91.9816V89.0622L108.792 88.8275V91.7909L108.216 91.5121C107.862 91.3361 107.522 91.2481 107.212 91.2481C106.902 91.2481 106.563 91.3361 106.208 91.5121L105.913 91.6589L105.618 91.5121C105.264 91.3361 104.924 91.2481 104.614 91.2481C104.304 91.2481 103.965 91.3361 103.61 91.5121L103.035 91.7909V88.7981L102.813 89.0622V91.9963L103.241 92.2163H105.574L105.913 91.9523ZM107.936 86.7736L109.722 88.1233C109.84 87.1697 109.958 86.2308 110.061 85.3506L107.507 83.4287C107.64 84.4997 107.773 85.6293 107.921 86.7589L107.936 86.7736ZM110.474 83.4727C110.253 85.3359 110.032 87.199 109.795 89.0475C110.976 89.6197 112.32 89.6197 113.501 89.0475C113.264 87.1844 113.028 85.3359 112.822 83.4727C112.039 83.3554 111.257 83.3554 110.474 83.4727ZM111.464 85.1305C111.464 84.9985 111.508 84.8664 111.582 84.7491C111.611 84.7051 111.626 84.6904 111.655 84.6464C111.685 84.6904 111.7 84.7051 111.729 84.7491C111.803 84.8664 111.847 84.9838 111.847 85.1305V86.0401C111.729 86.0401 111.611 86.0401 111.478 86.0401L111.464 85.1305ZM112.822 83.282C112.94 83.1206 113.043 82.9593 113.176 82.7979C112.172 82.5338 111.139 82.5338 110.15 82.7979C110.268 82.9593 110.386 83.1206 110.504 83.282C111.257 83.15 112.039 83.15 112.822 83.282ZM111.744 82.4018C112.216 82.4018 112.703 82.4751 113.161 82.6219V81.7123C112.984 81.6389 112.822 81.5949 112.644 81.5509C112.585 81.6683 112.526 81.7856 112.467 81.903C112.349 81.8883 112.231 81.859 112.113 81.8443C112.054 81.7123 111.995 81.5656 111.936 81.4335C111.759 81.4189 111.567 81.4189 111.39 81.4335C111.331 81.5656 111.272 81.7123 111.213 81.8443C111.094 81.859 110.976 81.8737 110.858 81.903C110.799 81.7856 110.74 81.6683 110.681 81.5509C110.504 81.5949 110.327 81.6536 110.165 81.7123V82.6219C110.652 82.4605 111.198 82.3871 111.744 82.4018ZM110.194 84.4263L109.869 84.1916L109.795 84.397L109.5 84.1769L109.382 83.8248L109.087 83.6048L108.969 83.7808L108.674 83.5608L108.555 83.2087L108.26 82.9886L108.142 83.1647L107.847 82.9446L107.729 82.5925L107.404 82.3578C107.404 82.3578 107.478 82.9739 107.507 83.2087L110.12 85.1598C110.12 84.9985 110.194 84.4263 110.194 84.4263ZM107.079 80.9934C107.197 80.8321 107.301 80.6707 107.434 80.5093C106.43 80.2452 105.397 80.2452 104.407 80.5093C104.526 80.6707 104.644 80.8321 104.762 80.9934C105.515 80.8761 106.297 80.8761 107.079 80.9934ZM105.81 80.1132C106.341 80.0985 106.902 80.1719 107.419 80.3333V79.4237C107.242 79.3503 107.079 79.3063 106.887 79.2623C106.828 79.3797 106.769 79.497 106.71 79.6144C106.592 79.5997 106.474 79.5704 106.356 79.5557C106.297 79.4237 106.238 79.277 106.179 79.145C106.002 79.1303 105.825 79.1303 105.633 79.145C105.574 79.277 105.515 79.4237 105.456 79.5557C105.337 79.5704 105.219 79.5851 105.101 79.6144C105.042 79.497 104.983 79.3797 104.924 79.2623C104.747 79.3063 104.57 79.365 104.393 79.4237V80.3333C104.85 80.2012 105.337 80.1279 105.81 80.1132ZM104.422 82.3284L104.098 82.5632L103.979 82.9153L103.684 83.1353L103.566 82.9593L103.271 83.1793L103.153 83.5314L102.858 83.7515L102.739 83.5754L102.444 83.7955L102.326 84.1476L102.031 84.3676L101.942 84.1623L101.618 84.397C101.618 84.397 101.691 84.9691 101.706 85.1012L104.319 83.15C104.348 82.9446 104.422 82.3284 104.422 82.3284ZM101.337 83.282C101.455 83.1206 101.559 82.9593 101.691 82.7979C100.688 82.5338 99.6543 82.5338 98.6653 82.7979C98.7833 82.9593 98.9014 83.1206 99.0195 83.282C99.7724 83.15 100.555 83.15 101.337 83.282ZM100.082 82.4018C100.614 82.3871 101.175 82.4605 101.691 82.6219V81.7123C101.514 81.6389 101.352 81.5949 101.16 81.5509C101.101 81.6683 101.042 81.7856 100.983 81.903C100.865 81.8883 100.747 81.859 100.629 81.8443C100.569 81.7123 100.51 81.5656 100.451 81.4335C100.274 81.4189 100.097 81.4189 99.9052 81.4335C99.8462 81.5656 99.7871 81.7123 99.7281 81.8443C99.61 81.859 99.4919 81.8737 99.3738 81.903C99.3148 81.7856 99.2557 81.6683 99.1967 81.5509C99.0195 81.5949 98.8424 81.6536 98.6653 81.7123V82.6219C99.1081 82.4751 99.5952 82.4018 100.082 82.4018ZM99.0048 83.4727C98.7833 85.3359 98.5619 87.199 98.3257 89.0475C99.5067 89.6197 100.85 89.6197 102.031 89.0475C101.795 87.1844 101.573 85.3359 101.352 83.4727C100.555 83.3554 99.7724 83.3554 99.0048 83.4727ZM99.979 85.1305C99.979 84.9985 100.023 84.8664 100.097 84.7491C100.127 84.7051 100.141 84.6904 100.156 84.6464C100.186 84.6904 100.2 84.7051 100.215 84.7491C100.289 84.8664 100.333 84.9838 100.333 85.1305V86.0401C100.215 86.0401 100.097 86.0401 99.9643 86.0401L99.979 85.1305ZM102.075 88.1086L103.861 86.7589V86.7296C104.009 85.6 104.142 84.4703 104.275 83.3994L101.736 85.3359C101.839 86.2308 101.957 87.1697 102.075 88.1086ZM105.692 91.3361L105.78 91.3801V88.1526C105.352 87.9472 104.983 87.8445 104.599 87.8445C104.186 87.8445 103.788 87.9619 103.33 88.1966L103.227 88.2553V91.4681L103.507 91.3214C103.891 91.1307 104.26 91.0427 104.599 91.0427C104.954 91.0574 105.308 91.1454 105.692 91.3361ZM107.197 87.8592C106.814 87.8592 106.445 87.9619 106.017 88.1673V91.3948L106.105 91.3508C106.489 91.1601 106.858 91.072 107.197 91.072C107.537 91.072 107.906 91.1601 108.29 91.3508L108.57 91.4975V88.2846L108.467 88.226C108.009 87.9619 107.596 87.8592 107.197 87.8592ZM105.898 85.0425C106.164 85.2039 106.386 85.4239 106.548 85.7026C106.696 85.9667 106.784 86.2748 106.784 86.5829V86.8616C106.887 86.935 106.932 86.9643 107.035 87.0523C107.286 86.979 107.522 86.891 107.758 86.7736C107.522 84.9104 107.286 83.0473 107.079 81.1988C106.297 81.0815 105.515 81.0815 104.747 81.1988C104.526 83.062 104.304 84.9251 104.068 86.7736C104.304 86.891 104.54 86.979 104.791 87.0523C104.895 86.979 104.939 86.9496 105.042 86.8616V86.5829C105.027 85.952 105.367 85.3652 105.898 85.0425ZM106.09 83.7661C105.972 83.7661 105.854 83.7661 105.721 83.7661V82.8566C105.721 82.7245 105.766 82.5925 105.839 82.4751C105.869 82.4311 105.884 82.4165 105.898 82.3725C105.928 82.4165 105.943 82.4311 105.957 82.4751C106.031 82.5778 106.076 82.7099 106.076 82.8566L106.09 83.7661Z" fill="#003C3C"/>
    <path d="M128.617 91.9671C128.602 92.0552 128.543 92.1285 128.469 92.1872C128.395 92.2459 128.307 92.2459 128.218 92.2312C128.13 92.2165 128.056 92.1725 127.997 92.0845C127.938 92.0111 127.923 91.9231 127.952 91.8351C127.967 91.7471 128.026 91.6737 128.1 91.615C128.174 91.571 128.262 91.5564 128.351 91.571C128.44 91.5857 128.513 91.6297 128.572 91.7031C128.617 91.7764 128.632 91.8644 128.617 91.9671ZM125.709 96.4563L125.96 95.8548C126.019 95.7081 126.107 95.6054 126.24 95.5614C126.358 95.5174 126.476 95.5174 126.609 95.5761C126.742 95.6347 126.831 95.7228 126.875 95.8401C126.919 95.9575 126.904 96.0895 126.845 96.2362L126.594 96.823L125.709 96.4563ZM128.72 96.3976L128.986 95.7961L127.288 96.2949C127.347 96.1482 127.362 96.0015 127.362 95.8548C127.347 95.6788 127.303 95.532 127.2 95.4C127.096 95.268 126.978 95.1653 126.801 95.0919C126.639 95.0186 126.476 95.0039 126.314 95.0186C126.152 95.0333 126.004 95.1066 125.871 95.224C125.738 95.3267 125.635 95.4734 125.546 95.6641L125.074 96.7644L128.041 98.0114L128.248 97.5272L126.978 96.9991L127.037 96.8671L128.72 96.3976ZM126.314 101.063C126.181 101.268 126.019 101.415 125.812 101.503C125.605 101.606 125.399 101.65 125.177 101.635C124.956 101.62 124.749 101.547 124.543 101.415L122.889 100.315L123.184 99.8745L124.838 100.975C124.971 101.063 125.104 101.107 125.236 101.121C125.369 101.136 125.487 101.107 125.605 101.048C125.723 100.989 125.812 100.901 125.901 100.784C125.974 100.667 126.019 100.549 126.033 100.417C126.048 100.285 126.019 100.168 125.96 100.051C125.901 99.9332 125.812 99.8305 125.679 99.7425L124.026 98.6422L124.321 98.2021L125.974 99.3024C126.181 99.4344 126.329 99.5958 126.417 99.8012C126.506 99.9919 126.55 100.197 126.535 100.417C126.521 100.652 126.447 100.857 126.314 101.063ZM124.129 103.865L121.885 101.576L121.62 101.826L122.136 104.1L119.863 103.513L119.597 103.762L121.841 106.051L122.225 105.684L120.793 104.217L122.417 104.642L122.683 104.393L122.314 102.765L123.745 104.232L124.129 103.865ZM119.597 107.694L117.767 105.068L118.21 104.774L120.04 107.4L119.597 107.694ZM116.63 109.44C116.409 109.542 116.188 109.586 115.966 109.572C115.745 109.557 115.538 109.484 115.361 109.366C115.184 109.249 115.036 109.073 114.918 108.853L114.047 107.063L114.519 106.828L115.39 108.603C115.464 108.75 115.553 108.853 115.656 108.926C115.759 109 115.878 109.044 116.01 109.044C116.143 109.044 116.261 109.029 116.394 108.956C116.527 108.897 116.63 108.809 116.689 108.706C116.763 108.603 116.808 108.486 116.808 108.354C116.808 108.222 116.793 108.09 116.719 107.958L115.848 106.168L116.32 105.933L117.191 107.723C117.295 107.943 117.339 108.163 117.324 108.369C117.309 108.589 117.236 108.779 117.118 108.97C117.014 109.19 116.852 109.337 116.63 109.44ZM112.261 110.393C112.128 110.525 111.951 110.613 111.744 110.672C111.597 110.716 111.434 110.716 111.301 110.701C111.169 110.687 111.021 110.628 110.903 110.555C110.785 110.481 110.681 110.379 110.593 110.261C110.504 110.144 110.445 109.997 110.401 109.836C110.342 109.616 110.342 109.41 110.386 109.22C110.431 109.029 110.534 108.867 110.667 108.735C110.8 108.603 110.977 108.515 111.183 108.457C111.346 108.413 111.493 108.413 111.626 108.427C111.759 108.442 111.907 108.501 112.025 108.574C112.143 108.647 112.246 108.75 112.335 108.867C112.423 108.985 112.482 109.132 112.527 109.293C112.586 109.513 112.586 109.718 112.541 109.909C112.541 109.909 112.541 109.924 112.541 109.938L111.848 109.528L111.597 109.938L112.305 110.364C112.29 110.364 112.276 110.379 112.261 110.393ZM113.589 110.555L112.984 110.188C113.029 110.07 113.073 109.938 113.088 109.806C113.117 109.586 113.102 109.381 113.058 109.146C113.014 108.911 112.91 108.735 112.778 108.559C112.645 108.383 112.482 108.251 112.305 108.134C112.128 108.017 111.921 107.958 111.715 107.914C111.508 107.885 111.287 107.885 111.065 107.943C110.844 108.002 110.652 108.09 110.475 108.222C110.298 108.354 110.165 108.501 110.061 108.691C109.958 108.867 109.884 109.073 109.855 109.278C109.825 109.498 109.84 109.704 109.884 109.924C109.943 110.144 110.032 110.335 110.165 110.511C110.298 110.687 110.46 110.819 110.637 110.936C110.814 111.053 111.021 111.112 111.228 111.156C111.434 111.2 111.656 111.185 111.877 111.127C112.099 111.068 112.29 110.98 112.468 110.848C112.571 110.775 112.66 110.672 112.748 110.584L113.353 110.951L113.589 110.555ZM108.364 111.743L108.334 111.259L106.696 111.347L106.652 110.423L108.128 110.349L108.098 109.894L106.622 109.968L106.578 109.117L108.187 109.029L108.157 108.545L106.017 108.662L106.179 111.86L108.364 111.743ZM102.991 111.714C102.74 111.684 102.533 111.611 102.371 111.493C102.208 111.376 102.061 111.229 101.943 111.039L102.341 110.731C102.415 110.863 102.504 110.98 102.622 111.068C102.74 111.156 102.887 111.215 103.079 111.229C103.256 111.244 103.404 111.229 103.507 111.171C103.625 111.112 103.684 111.024 103.699 110.892C103.714 110.789 103.699 110.701 103.655 110.628C103.611 110.555 103.537 110.496 103.463 110.437C103.389 110.379 103.286 110.335 103.183 110.291C103.079 110.247 102.976 110.188 102.873 110.129C102.769 110.07 102.681 110.012 102.592 109.924C102.504 109.85 102.445 109.748 102.4 109.645C102.356 109.528 102.341 109.396 102.371 109.234C102.385 109.044 102.459 108.897 102.563 108.765C102.666 108.633 102.814 108.559 102.976 108.501C103.138 108.457 103.33 108.442 103.522 108.457C103.729 108.486 103.921 108.545 104.068 108.647C104.216 108.75 104.349 108.867 104.437 109.014L104.039 109.322C103.965 109.205 103.876 109.117 103.788 109.058C103.699 109 103.581 108.956 103.463 108.941C103.301 108.926 103.183 108.941 103.079 108.985C102.976 109.029 102.932 109.117 102.917 109.234C102.902 109.337 102.917 109.41 102.976 109.484C103.02 109.557 103.094 109.601 103.183 109.66C103.271 109.704 103.36 109.762 103.463 109.806C103.566 109.85 103.67 109.909 103.773 109.968C103.876 110.026 103.965 110.1 104.054 110.173C104.142 110.261 104.201 110.349 104.231 110.467C104.275 110.584 104.29 110.731 104.26 110.892C104.231 111.171 104.098 111.391 103.876 111.538C103.611 111.699 103.33 111.758 102.991 111.714ZM98.5179 107.371L96.5989 108.721L96.2889 106.418L95.9494 106.271L94.6652 109.205L95.1523 109.41L95.9789 107.532L96.2151 109.19L96.5546 109.337L97.9275 108.383L97.1008 110.261L97.588 110.467L98.8722 107.532L98.5179 107.371ZM94.3552 105.86L94.6356 105.464L92.879 104.246L91.0338 106.858L92.8052 108.09L93.0857 107.694L91.7424 106.77L92.2738 106.007L93.4842 106.858L93.75 106.476L92.5395 105.625L93.0266 104.921L94.3552 105.86ZM88.5539 104.745C88.3915 104.584 88.2734 104.393 88.1996 104.202C88.1258 103.997 88.0815 103.792 88.0963 103.586C88.0963 103.381 88.1406 103.175 88.2291 102.985C88.3177 102.794 88.4358 102.618 88.6129 102.457C88.7753 102.295 88.9524 102.178 89.1591 102.09C89.3658 102.002 89.5577 101.958 89.7791 101.972C89.9858 101.972 90.1924 102.016 90.3991 102.09C90.6057 102.163 90.7829 102.295 90.9453 102.457C91.1224 102.647 91.2553 102.823 91.3291 103.029C91.4029 103.219 91.4324 103.425 91.4324 103.63H90.9305C90.9453 103.483 90.9157 103.351 90.8567 103.219C90.7976 103.087 90.7091 102.955 90.591 102.823C90.4729 102.706 90.3548 102.633 90.2219 102.574C90.0891 102.515 89.9562 102.501 89.8086 102.501C89.6758 102.501 89.5281 102.53 89.3953 102.589C89.2624 102.647 89.1296 102.735 89.0115 102.853C88.8934 102.97 88.8048 103.102 88.731 103.234C88.672 103.366 88.6277 103.513 88.6277 103.645C88.6277 103.777 88.6425 103.924 88.7015 104.056C88.7605 104.188 88.8344 104.305 88.9524 104.422C89.0853 104.569 89.2329 104.657 89.3658 104.716C89.4986 104.774 89.6462 104.789 89.7791 104.789V105.288C89.5724 105.288 89.3658 105.244 89.1591 105.171C88.9229 105.068 88.7458 104.921 88.5539 104.745ZM85.4244 100.901C85.2916 100.696 85.2178 100.491 85.203 100.271C85.1883 100.051 85.2325 99.8452 85.3359 99.6398C85.4392 99.4344 85.5868 99.273 85.7935 99.141L87.4615 98.0554L87.7568 98.4955L86.0887 99.5811C85.9559 99.6691 85.8673 99.7718 85.8082 99.8892C85.7492 100.007 85.7197 100.124 85.7344 100.256C85.7492 100.388 85.7935 100.505 85.8673 100.623C85.9411 100.74 86.0444 100.828 86.1478 100.887C86.2658 100.945 86.3839 100.96 86.5168 100.96C86.6496 100.945 86.7825 100.901 86.9006 100.813L88.5686 99.7278L88.8639 100.168L87.1958 101.254C86.9892 101.386 86.7825 101.459 86.5611 101.474C86.3397 101.488 86.133 101.444 85.9411 101.342C85.7197 101.254 85.5573 101.107 85.4244 100.901ZM86.2068 95.488L86.0001 95.0039L83.0478 96.2656L83.8597 98.1287L84.3026 97.938L83.6973 96.559L86.2068 95.488ZM83.2102 91.9671C83.1954 91.8791 83.2102 91.7911 83.2545 91.7177C83.3135 91.6444 83.3726 91.6004 83.4759 91.5857C83.5792 91.571 83.653 91.5857 83.7269 91.6297C83.8007 91.6737 83.8449 91.7471 83.8745 91.8498C83.8892 91.9378 83.8745 92.0258 83.8302 92.0992C83.7859 92.1725 83.7121 92.2165 83.6088 92.2459C83.5202 92.2605 83.4316 92.2459 83.3578 92.2019C83.2692 92.1432 83.225 92.0698 83.2102 91.9671ZM129.812 87.1112C129.724 87.1992 129.606 87.2579 129.473 87.2579C129.325 87.2579 129.207 87.2286 129.119 87.1406C129.03 87.0525 128.986 86.9352 128.971 86.7738L128.956 86.1283L129.916 86.0989L129.931 86.7444C129.945 86.9058 129.901 87.0232 129.812 87.1112ZM130.359 85.5561L127.141 85.6735L127.155 86.2016L128.513 86.1576V86.2897L127.185 87.434L127.214 88.0941L128.543 86.9205C128.558 87.0819 128.602 87.2286 128.676 87.3459C128.75 87.4926 128.868 87.61 129.015 87.6834C129.163 87.7567 129.325 87.8007 129.502 87.786C129.68 87.786 129.842 87.7274 129.975 87.6393C130.108 87.5513 130.211 87.434 130.285 87.2726C130.359 87.1112 130.403 86.9352 130.388 86.7444L130.359 85.5561ZM127.082 82.446L127.982 82.2553L128.292 83.693L128.75 83.5903L128.44 82.1526L129.281 81.9766L129.621 83.5463L130.093 83.4436L129.635 81.3604L126.491 82.0352L126.949 84.1331L127.421 84.0304L127.082 82.446ZM128.602 79.5999L129.045 79.4239L128.041 77.0179L127.598 77.194L127.997 78.1622L125.473 79.2038L125.679 79.688L128.203 78.6464L128.602 79.5999ZM124.823 75.0374L125.62 76.2844L126.019 76.035L125.222 74.788L125.945 74.3332L126.801 75.6829L127.214 75.4335L126.078 73.6291L123.362 75.3308L124.513 77.15L124.926 76.9006L124.055 75.5216L124.823 75.0374ZM124.469 71.5752L123.037 71.7806L123.347 70.3576L122.919 69.9028L122.535 71.7806L120.527 72.0447L120.926 72.4848L122.505 72.2794L122.136 73.7904L122.55 74.2452L123.007 72.2941L124.867 72.03L124.469 71.5752ZM120.247 69.9908L120.527 69.624L119.346 68.7438L119.863 68.0543L121.162 69.0079L121.443 68.6264L119.701 67.3648L117.782 69.9321L119.524 71.2084L119.819 70.827L118.505 69.8588L119.051 69.1252L120.247 69.9908ZM115.951 65.795L116.128 65.3549L114.209 64.5774L112.999 67.5408L113.486 67.7315L114.003 66.4552L115.361 66.998L115.538 66.5579L114.18 66.0151L114.505 65.2082L115.951 65.795ZM110.047 66.2938C110.268 66.3379 110.46 66.3232 110.637 66.2645C110.814 66.2058 110.962 66.0885 111.095 65.9417C111.228 65.795 111.301 65.6043 111.346 65.3843C111.375 65.2229 111.375 65.0615 111.36 64.9148C111.331 64.7681 111.287 64.6361 111.213 64.5187C111.139 64.4014 111.036 64.2987 110.918 64.2253C110.8 64.152 110.652 64.0933 110.504 64.0639C110.298 64.0199 110.091 64.0346 109.914 64.0933C109.737 64.152 109.589 64.2693 109.456 64.416C109.338 64.5627 109.25 64.7534 109.205 64.9735C109.176 65.1349 109.176 65.2962 109.191 65.443C109.22 65.5897 109.264 65.7217 109.338 65.8391C109.412 65.9564 109.515 66.0591 109.633 66.1325C109.751 66.2058 109.884 66.2645 110.047 66.2938ZM109.958 66.7926C109.737 66.7486 109.53 66.6606 109.353 66.5432C109.176 66.4259 109.028 66.2792 108.91 66.0885C108.792 65.9124 108.703 65.7217 108.674 65.5016C108.63 65.2962 108.63 65.0762 108.674 64.8415C108.718 64.6214 108.807 64.416 108.925 64.24C109.043 64.0639 109.191 63.9172 109.368 63.7852C109.545 63.6678 109.737 63.5798 109.943 63.5358C110.15 63.4918 110.371 63.4918 110.593 63.5358C110.814 63.5798 111.021 63.6678 111.198 63.7852C111.375 63.9026 111.523 64.0493 111.641 64.2253C111.759 64.4014 111.848 64.5921 111.877 64.8121C111.907 65.0322 111.921 65.2376 111.877 65.4723C111.833 65.6924 111.744 65.8977 111.626 66.0738C111.508 66.2498 111.36 66.3965 111.183 66.5286C111.006 66.6606 110.814 66.734 110.608 66.778C110.386 66.822 110.18 66.8366 109.958 66.7926ZM105.633 63.1104L105.028 63.1544L104.29 64.5187L103.36 63.2717L102.755 63.3157L104.054 65.0322L104.157 66.4259L104.688 66.3965L104.585 64.9882L105.633 63.1104ZM101.588 63.9906L101.47 63.5211L98.9165 64.1373L99.0346 64.6067L100.053 64.3573L100.688 66.998L101.205 66.8807L100.57 64.24L101.588 63.9906ZM98.0013 67.8636L96.8351 64.8855L97.3223 64.6948L98.4884 67.6729L98.0013 67.8636ZM95.4918 69.1252C95.2704 69.2426 95.0637 69.316 94.8571 69.316C94.6504 69.316 94.4585 69.2866 94.2371 69.1986L94.3699 68.7145C94.5028 68.7878 94.6504 68.8172 94.798 68.8172C94.9456 68.8172 95.0933 68.7731 95.2556 68.6851C95.418 68.5971 95.5213 68.4944 95.5656 68.377C95.6247 68.2597 95.6247 68.1423 95.5509 68.0396C95.4918 67.9516 95.4328 67.8782 95.3442 67.8489C95.2556 67.8196 95.1671 67.8049 95.0637 67.8049C94.9604 67.8049 94.8571 67.8196 94.739 67.8489C94.6209 67.8636 94.5176 67.8929 94.3995 67.9076C94.2814 67.9223 94.1633 67.9223 94.0599 67.9076C93.9419 67.8929 93.8385 67.8489 93.7352 67.7902C93.6319 67.7169 93.5433 67.6142 93.4695 67.4821C93.3809 67.3208 93.3366 67.1594 93.3514 66.998C93.3662 66.8366 93.4252 66.6899 93.5285 66.5432C93.6319 66.4112 93.7647 66.2938 93.9419 66.1911C94.119 66.0885 94.3109 66.0298 94.5028 66.0298C94.6947 66.0298 94.8571 66.0444 95.0047 66.1031L94.8718 66.5872C94.739 66.5432 94.6209 66.5139 94.5028 66.5286C94.3847 66.5286 94.2814 66.5726 94.1633 66.6313C94.0304 66.7046 93.9271 66.7926 93.8828 66.8953C93.8385 66.998 93.8385 67.1007 93.8976 67.1887C93.9419 67.2768 94.0157 67.3354 94.0895 67.3501C94.1633 67.3795 94.2518 67.3795 94.3552 67.3795C94.4585 67.3795 94.5618 67.3648 94.6652 67.3354C94.7833 67.3208 94.8866 67.2914 95.0047 67.2768C95.1228 67.2621 95.2409 67.2621 95.359 67.2914C95.4771 67.3208 95.5804 67.3501 95.6837 67.4235C95.787 67.4968 95.8756 67.5995 95.9642 67.7462C96.097 67.9956 96.1266 68.245 96.038 68.4944C95.9937 68.7438 95.8018 68.9492 95.4918 69.1252ZM90.2957 69.3306L90.7976 68.9198C90.9305 68.8172 91.0486 68.7731 91.1814 68.7878C91.3143 68.8025 91.4176 68.8612 91.4914 68.9639C91.58 69.0812 91.6243 69.1986 91.6095 69.316C91.5948 69.4333 91.521 69.5507 91.4029 69.6534L90.901 70.0641L90.2957 69.3306ZM92.9971 70.6803L93.5138 70.2549L91.7719 69.9028C91.89 69.7854 91.9786 69.668 92.0376 69.5507C92.1114 69.3893 92.1262 69.2426 92.1114 69.0812C92.0967 68.9199 92.0229 68.7731 91.9048 68.6264C91.7867 68.4944 91.6538 68.3917 91.5062 68.333C91.3586 68.2744 91.1962 68.2744 91.0191 68.3037C90.8567 68.333 90.6796 68.4211 90.5319 68.5384L89.602 69.2866L91.6391 71.7659L92.0524 71.4285L91.1962 70.3722L91.2995 70.2842L92.9971 70.6803ZM90.3991 72.9836L90.03 72.6755L88.982 73.9225L88.2734 73.3357L89.2329 72.206L88.8786 71.9126L87.9191 73.0422L87.2696 72.4848L88.3029 71.2525L87.9339 70.9444L86.5611 72.5728L89.0263 74.6267L90.3991 72.9836ZM85.5573 73.8931L85.2768 74.3773L86.8268 76.3431L84.3468 75.947L84.0516 76.4458L87.4763 76.9446L87.6682 76.6365L85.5573 73.8931ZM86.1773 79.6146L83.2102 78.3823L83.4169 77.8982L86.3839 79.1305L86.1773 79.6146ZM85.5573 81.2284L82.4278 80.4655L82.3097 80.979L84.4649 81.5071L81.8964 82.6221L81.8079 82.9741L84.9373 83.737L85.0554 83.2235L82.9002 82.6954L85.454 81.5804L85.5573 81.2284ZM84.7011 86.5244C84.6864 86.7591 84.6273 86.9792 84.5092 87.1699C84.3911 87.3606 84.2287 87.4926 84.0368 87.61C83.8449 87.7274 83.6235 87.7567 83.3873 87.742L81.3945 87.654L81.4241 87.1259L83.4169 87.2139C83.5792 87.2139 83.7121 87.1992 83.8302 87.1406C83.9483 87.0819 84.0368 86.9938 84.1107 86.8912C84.1845 86.7738 84.214 86.6564 84.2288 86.5244C84.2435 86.3777 84.214 86.2603 84.1549 86.143C84.0959 86.0256 84.0073 85.9376 83.904 85.8642C83.7859 85.7909 83.653 85.7615 83.5054 85.7469L81.5126 85.6588L81.5421 85.1307L83.535 85.2187C83.7711 85.2334 83.9926 85.2921 84.1697 85.4094C84.3468 85.5268 84.4945 85.6882 84.5978 85.8789C84.6716 86.0549 84.7159 86.275 84.7011 86.5244Z" fill="#003C3C"/>
    <path d="M173.742 72.1034C173.742 71.3992 174.318 70.827 175.027 70.827C175.735 70.827 176.311 71.3992 176.311 72.1034C176.311 72.8075 175.735 73.3797 175.027 73.3797C174.318 73.3797 173.742 72.8075 173.742 72.1034ZM145.961 72.3528V80.2601C145.961 84.1478 148.161 86.2897 152.058 86.2897C156.014 86.2897 158.228 84.1625 158.228 80.1721V72.3528C158.228 71.5459 158.627 70.783 159.291 70.3282L159.852 69.9321H155.158L155.807 70.3282C156.531 70.783 156.973 71.5605 156.973 72.4114V79.7173C156.973 81.4044 156.973 85.0867 152.633 85.0867C148.663 85.0867 148.161 82.1379 148.161 79.7173V72.3381C148.161 71.5312 148.559 70.783 149.209 70.3282L149.77 69.9468H144.367L144.928 70.3429C145.563 70.7977 145.961 71.5459 145.961 72.3528ZM174.082 78.1182V83.7664C174.082 84.4852 173.757 85.1747 173.211 85.6442L172.827 85.9669H177.359L176.946 85.6442C176.341 85.1747 175.971 84.4559 175.971 83.693V74.6267L172.813 75.859L173.314 76.3431C173.802 76.8126 174.082 77.4581 174.082 78.1182ZM213.171 85.2921C212.004 85.2921 210.661 84.0744 210.248 83.1209L208.86 84.7346C209.554 85.6148 211.532 86.2897 212.861 86.2897C215.532 86.2897 217.392 84.984 217.392 82.8861C217.392 81.1404 216.389 80.3775 214.721 79.7173L213.569 79.2479C212.211 78.7051 211.237 78.1476 211.237 77.106C211.237 76.0644 212.019 75.5656 213.112 75.5803C214.942 75.5949 215.857 77.4874 215.857 77.4874C216.256 76.7392 216.433 76.4018 216.891 75.5509C216.049 75.1108 214.75 74.568 213.377 74.568C210.927 74.568 209.333 75.771 209.333 77.7221C209.333 79.6586 210.824 80.3775 212.255 80.9496L213.451 81.4338C214.558 81.8885 215.355 82.3287 215.355 83.4143C215.37 84.7053 214.499 85.2921 213.171 85.2921ZM179.426 77.7075L182.614 85.9669C182.629 85.9669 184.09 85.9669 184.105 85.9669L187.426 77.6928C187.648 77.15 187.943 76.6365 188.312 76.1671C188.681 75.7123 189.109 75.3015 189.596 74.9641H185.965L185.98 74.9788C186.467 75.6243 186.585 76.4752 186.305 77.238L184.179 82.8128C184.046 83.1649 183.928 83.5023 183.825 83.8544C183.721 83.517 183.618 83.1649 183.485 82.8128L181.315 77.238C181.212 76.9593 181.153 76.6659 181.153 76.3871C181.153 75.8883 181.315 75.3895 181.625 74.9641H177.256C178.23 75.6389 178.998 76.5925 179.426 77.7075ZM220.596 73.3797C221.304 73.3797 221.88 72.8075 221.88 72.1034C221.88 71.3992 221.304 70.827 220.596 70.827C219.887 70.827 219.311 71.3992 219.311 72.1034C219.311 72.8075 219.887 73.3797 220.596 73.3797ZM189.065 78.7784C189.744 76.3871 192.076 74.656 194.542 74.656C197.007 74.656 199.162 76.3871 199.841 78.7784C199.944 79.1158 200.003 79.4826 200.048 79.8347H191.383C191.383 79.8494 191.383 79.864 191.383 79.8787V79.9227C191.383 79.9667 191.383 79.9961 191.368 80.0401C191.368 80.0841 191.368 80.1281 191.368 80.1721C191.368 80.2161 191.368 80.2455 191.368 80.2895C191.368 80.3335 191.368 80.3628 191.368 80.4068C191.368 80.4508 191.368 80.4802 191.368 80.5242C191.471 82.9008 192.947 84.808 194.925 84.9693C195.014 84.9693 195.102 84.984 195.191 84.984C196.859 84.984 198.291 83.7224 198.852 81.9472H199.9C199.28 84.4412 197.154 86.275 194.63 86.275C191.619 86.275 188.844 83.6637 188.844 80.4508C188.844 80.2308 188.858 80.0254 188.873 79.82C188.888 79.4679 188.962 79.1158 189.065 78.7784ZM191.53 78.7784H197.464C197.036 77.0326 196.121 75.7416 194.733 75.6243C194.66 75.6243 194.571 75.6096 194.497 75.6096C193.006 75.6096 192.003 76.9299 191.53 78.7784ZM200.963 85.6442L200.579 85.9669H205.244L204.771 85.6442C204.107 85.1894 203.708 84.4265 203.708 83.6197V78.2796C205.701 76.4018 208.107 77.062 208.107 77.062V74.5387C204.816 74.5387 203.576 77.1353 203.576 77.1353L203.354 74.6267L200.668 75.859L201.184 76.4311C201.598 76.8859 201.819 77.4727 201.819 78.0742V83.7664C201.834 84.4852 201.509 85.1747 200.963 85.6442ZM190.172 102.515L187.825 99.1557L190.157 96.2949C190.763 95.5467 191.456 94.8719 192.209 94.2851L192.504 94.0504H188.504C189.198 94.6372 189.316 95.6494 188.77 96.3683C188.253 97.0578 187.736 97.7473 187.205 98.4368L185.744 96.2949C185.271 95.5907 185.375 94.6518 185.995 94.0797L186.039 94.0357H181.094L181.168 94.0944C182.098 94.7399 182.895 95.5467 183.529 96.471L185.906 99.8892L183.588 102.823C182.968 103.615 182.245 104.32 181.448 104.936L181.315 105.039H185.301L185.286 105.024C184.533 104.452 184.386 103.395 184.947 102.647C185.463 101.958 185.98 101.254 186.496 100.564L188.091 102.853C188.563 103.527 188.489 104.437 187.899 105.024L187.884 105.039H192.814L192.8 105.024C191.781 104.378 190.881 103.513 190.172 102.515ZM221.54 83.693V74.6267L218.381 75.859L218.883 76.3431C219.37 76.8126 219.636 77.4434 219.636 78.1182V83.7664C219.636 84.4852 219.311 85.1747 218.765 85.6442L218.381 85.9669H222.928L222.515 85.6442C221.895 85.1747 221.54 84.4559 221.54 83.693ZM213.643 99.2584C213.643 99.3024 213.643 99.3317 213.643 99.3757C213.643 99.4197 213.643 99.4491 213.643 99.4931C213.643 99.5371 213.643 99.5664 213.643 99.6104C213.746 101.987 215.222 103.894 217.201 104.056C217.289 104.056 217.378 104.07 217.466 104.07C219.134 104.07 220.566 102.809 221.127 101.033H222.175C221.555 103.527 219.43 105.361 216.905 105.361C213.894 105.361 211.119 102.75 211.119 99.5371C211.119 99.317 211.134 99.1117 211.148 98.9063C211.178 98.5395 211.252 98.1874 211.355 97.85C212.034 95.4587 214.366 93.7276 216.831 93.7276C219.297 93.7276 221.452 95.4587 222.131 97.85C222.234 98.1874 222.293 98.5542 222.338 98.9063H213.673C213.673 98.9209 213.673 98.9356 213.673 98.9503V98.9943C213.673 99.0383 213.673 99.0676 213.673 99.1117C213.643 99.185 213.643 99.2143 213.643 99.2584ZM213.82 97.8647H219.754C219.311 96.1189 218.411 94.8279 217.009 94.7105C216.935 94.7105 216.861 94.6959 216.772 94.6959C215.296 94.6959 214.278 96.0162 213.82 97.8647ZM238.221 74.9494C238.93 75.5949 239.18 76.5925 238.87 77.4874C238.251 79.2479 236.671 83.737 236.523 84.2505C236.391 83.7517 234.132 77.5901 234.132 77.5901C233.778 76.6365 234.073 75.5803 234.87 74.9348L230.663 74.9201H227.268V71.0031L225.334 72.6902V74.9348H223.459V76.0937H225.334V83.737C225.334 84.9253 225.939 86.1576 227.976 86.1576C228.906 86.1576 229.94 85.8202 230.811 85.1454L230.619 84.6026C228.198 85.1601 227.283 84.764 227.283 83.1502V76.1084H231.475L235.21 85.9669H235.918C235.918 85.9669 234.427 89.2238 232.036 89.2238L232.951 90.8375C235.151 90.2067 236.597 86.9499 237.867 83.5903L240.406 76.8419C240.612 76.2991 240.937 75.815 241.365 75.4335L241.882 74.9641L238.221 74.9494ZM207.665 102.28V95.2533H210.499V94.065H207.665V90.1333L205.731 91.8204V94.065H203.856V95.2533H205.731V102.882C205.731 104.07 206.336 105.303 208.373 105.303C209.303 105.303 210.336 104.965 211.207 104.29L211.015 103.748C208.58 104.305 207.665 103.894 207.665 102.28ZM155.409 97.982C155.409 101.811 152.323 105.259 148.382 105.259C145.696 105.259 144.264 103.865 144.264 101.004C144.264 97.1752 147.349 93.7276 151.29 93.7276C153.992 93.7276 155.409 95.1213 155.409 97.982ZM153.194 96.8817C153.194 95.4147 152.737 94.5932 151.29 94.6078C148.515 94.6225 146.507 98.5982 146.507 102.119C146.507 103.586 146.965 104.408 148.412 104.393C151.172 104.364 153.194 100.388 153.194 96.8817ZM226.161 96.1776L225.939 93.6689L223.253 94.9012L223.769 95.4734C224.183 95.9282 224.404 96.515 224.404 97.1165V102.809C224.404 103.527 224.079 104.217 223.533 104.686L223.149 105.009H227.814L227.342 104.686C226.677 104.232 226.279 103.469 226.279 102.662V97.3219C228.272 95.444 230.678 96.1042 230.678 96.1042V93.5662C227.401 93.5809 226.161 96.1776 226.161 96.1776ZM158.405 92.7007C158.317 93.1408 158.243 93.5809 158.154 94.0357H156.043V95.1066L156.029 95.1506H157.948L156.161 104.525C155.837 106.241 155.438 107.723 153.504 109.894L153.903 110.232C156.28 108.838 157.549 107.327 157.962 105.141L159.896 95.1653L163.232 95.136V94.0357H160.118C160.738 90.8669 160.885 88.3435 162.598 88.3435C163.158 88.3435 164.177 88.6663 164.959 89.2238L165.727 87.8154C165.373 87.4486 164.354 87.1846 163.705 87.1846C161.062 87.1846 159.025 89.4292 158.405 92.7007ZM167.498 85.6442L167.115 85.9669H171.587L171.189 85.6442C170.613 85.1747 170.274 84.4705 170.274 83.737V78.309C170.274 76.1377 169.491 74.6267 166.937 74.6267C165.609 74.6267 164.31 75.2135 163.395 76.3284C163.306 75.7416 163.173 74.6267 163.173 74.6267L160.28 75.859L160.826 76.4018C161.284 76.8566 161.549 77.4874 161.549 78.1329V83.7517C161.549 84.4705 161.225 85.1601 160.679 85.6295L160.295 85.9523H164.827L164.413 85.6442C163.793 85.1747 163.439 84.4559 163.439 83.6783V77.7955C163.749 77.1793 164.827 76.1377 166.096 76.1377C167.912 76.1377 168.399 77.0326 168.399 78.6464V83.7224C168.399 84.4852 168.059 85.1747 167.498 85.6442ZM194.866 99.2584C194.866 99.3024 194.866 99.3317 194.866 99.3757C194.866 99.4197 194.866 99.4491 194.866 99.4931C194.866 99.5371 194.866 99.5664 194.866 99.6104C194.97 101.987 196.446 103.894 198.424 104.056C198.512 104.056 198.601 104.07 198.69 104.07C200.358 104.07 201.789 102.809 202.35 101.033H203.398C202.778 103.527 200.653 105.361 198.129 105.361C195.117 105.361 192.342 102.75 192.342 99.5371C192.342 99.317 192.357 99.1117 192.372 98.9063C192.401 98.5395 192.475 98.1874 192.578 97.85C193.257 95.4587 195.59 93.7276 198.055 93.7276C200.52 93.7276 202.675 95.4587 203.354 97.85C203.458 98.1874 203.517 98.5542 203.561 98.9063H194.881C194.881 98.9209 194.881 98.9356 194.881 98.9503V98.9943C194.881 99.0383 194.881 99.0676 194.866 99.1117C194.866 99.185 194.866 99.2143 194.866 99.2584ZM195.043 97.8647H200.978C200.549 96.1189 199.634 94.8279 198.247 94.7105C198.173 94.7105 198.084 94.6959 198.011 94.6959C196.52 94.6959 195.501 96.0162 195.043 97.8647ZM174.791 104.026C174.171 104.026 173.359 104.026 172.325 104.026L172.355 96.8964H174.392C175.145 96.8964 175.883 96.9844 176.621 97.1458L178.717 97.6153V95.356L176.503 95.8108C175.824 95.9575 175.145 96.0162 174.451 96.0162H172.325V89.9573C173.492 89.9573 174.392 89.9573 175.056 89.9573C175.957 89.9573 176.842 90.1627 177.654 90.5588L180.134 91.7618L179.883 89.0184H168.517L169.078 89.4145C169.742 89.8693 170.141 90.6321 170.141 91.439V102.647C170.141 103.454 169.742 104.202 169.078 104.657L168.517 105.053H180.252L180.444 102.192L177.92 103.351C176.916 103.792 175.868 104.026 174.791 104.026Z" fill="white"/>
  </g>
  <defs>
    <clipPath id="clip0_3456_2101">
      <rect width="163.765" height="55.2342" fill="white" transform="translate(78.1172 59.8828)"/>
    </clipPath>
  </defs>
</svg>
