<svg xmlns="http://www.w3.org/2000/svg" width="193" height="38" viewBox="0 0 193 38" fill="none">
<g id="flow-logo-dark.5833392a 1">
<g id="Clip path group">
<mask id="mask0_2308_6944" style="mask-type:luminance" maskUnits="userSpaceOnUse" x="8" y="1" width="177" height="36">
<g id="clip0_959_48086">
<path id="Vector" d="M184.831 1.60847H8.16931V36.3915H184.831V1.60847Z" fill="white"/>
</g>
</mask>
<g mask="url(#mask0_2308_6944)">
<g id="Group">
<path id="Vector_2" d="M25.6101 1.60847C22.1606 1.60847 18.7886 2.62846 15.9205 4.53947C13.0524 6.45047 10.817 9.16667 9.49692 12.3446C8.17687 15.5225 7.83148 19.0193 8.50444 22.3929C9.1774 25.7666 10.8385 28.8654 13.2776 31.2977C15.7167 33.7299 18.8244 35.3863 22.2076 36.0574C25.5907 36.7284 29.0975 36.384 32.2844 35.0677C35.4713 33.7514 38.1951 31.5222 40.1115 28.6622C42.028 25.8022 43.0508 22.4397 43.0508 19C43.0511 16.716 42.6001 14.4544 41.7237 12.3443C40.8474 10.2341 39.5627 8.3168 37.9431 6.70179C36.3235 5.0868 34.4008 3.80575 32.2846 2.93183C30.1685 2.05791 27.9005 1.60823 25.6101 1.60847ZM25.6101 31.7879L20.244 22.519L17.239 17.333L16.2276 15.5881L13.1716 10.3042H19.1162L22.1758 15.5881L23.1799 17.333L26.1776 22.519L28.5769 26.6673L25.6101 31.7879ZM30.9762 22.519H28.1385L25.159 17.333H33.9812L30.9762 22.519ZM34.9926 15.5881H24.1585L21.1171 10.3042H38.0503L34.9926 15.5881Z" fill="#15B6B6"/>
<path id="Vector_3" d="M64.5182 11.3625H52.287V14.8451H64.5182V11.3625Z" fill="#29303B"/>
<path id="Vector_4" d="M167.566 11.3588H154.134V14.8415H167.566V11.3588Z" fill="#29303B"/>
<path id="Vector_5" d="M183.865 11.3588H171.018V14.8415H183.865V11.3588Z" fill="#29303B"/>
<path id="Vector_6" d="M183.865 24.388H171.018V27.8706H183.865V24.388Z" fill="#29303B"/>
<path id="Vector_7" d="M180.373 17.8743H171.018V21.357H180.373V17.8743Z" fill="#29303B"/>
<path id="Vector_8" d="M52.287 17.5315V20.4337V27.8742H55.7813V20.4337H62.6592V16.951H52.287V17.5315Z" fill="#29303B"/>
<path id="Vector_9" d="M71.6685 17.5315V11.3588H68.1761V17.5315V24.388V27.8706H71.6685H77.3222V24.388H71.6685V17.5315Z" fill="#29303B"/>
<path id="Vector_10" d="M149.966 11.3588H146.474V27.8706H149.966V11.3588Z" fill="#29303B"/>
<path id="Vector_11" d="M118.95 21.6816L115.987 13.0602L115.4 11.3588H112.878L112.296 13.0548L109.31 21.7397L105.741 11.3588H102.048L107.463 27.1052L107.725 27.8706H110.892L111.154 27.1106L114.141 18.4312L117.104 27.0526L117.384 27.8706H120.517L120.797 27.0526L126.188 11.3588H122.501L118.95 21.6816Z" fill="#29303B"/>
<path id="Vector_12" d="M162.596 17.2159H159.104V27.8706H162.596V17.2159Z" fill="#29303B"/>
<path id="Vector_13" d="M89.071 11.25C87.412 11.25 85.79 11.7406 84.4104 12.6599C83.0307 13.5791 81.9553 14.8856 81.3202 16.4142C80.6856 17.9428 80.5192 19.6249 80.8432 21.2477C81.1668 22.8704 81.9656 24.3611 83.1391 25.531C84.3123 26.701 85.8072 27.4977 87.4345 27.8205C89.0618 28.1433 90.7487 27.9776 92.2817 27.3445C93.8144 26.7113 95.1249 25.639 96.0466 24.2633C96.9683 22.8876 97.4606 21.2702 97.4606 19.6156C97.459 17.3974 96.5748 15.2704 95.0017 13.7018C93.4285 12.1333 91.2956 11.2514 89.071 11.25ZM89.071 24.6147C88.0795 24.6147 87.1105 24.3215 86.2858 23.7722C85.4614 23.2229 84.8191 22.4422 84.4394 21.5287C84.06 20.6152 83.9608 19.6101 84.1543 18.6403C84.3478 17.6706 84.8252 16.7799 85.5263 16.0807C86.2274 15.3816 87.1208 14.9055 88.0932 14.7126C89.0656 14.5197 90.0735 14.6187 90.9895 14.9971C91.9058 15.3754 92.6885 16.0162 93.2396 16.8383C93.7903 17.6604 94.0842 18.6269 94.0842 19.6156C94.0831 20.941 93.5541 22.2117 92.6145 23.1489C91.6745 24.0861 90.4002 24.6132 89.071 24.6147Z" fill="#29303B"/>
<path id="Vector_14" d="M136.791 24.6927C135.961 24.6938 135.142 24.4922 134.407 24.1055C133.673 23.7189 133.044 23.1588 132.576 22.4743C132.108 21.7897 131.815 21.0014 131.723 20.1781C131.631 19.3548 131.742 18.5215 132.046 17.7508C132.351 16.9801 132.841 16.2955 133.471 15.7565C134.102 15.2176 134.856 14.8408 135.666 14.6589C136.477 14.477 137.32 14.4956 138.121 14.713C138.923 14.9304 139.659 15.3401 140.266 15.9062L142.688 13.4902C141.465 12.3187 139.919 11.538 138.248 11.2481C136.577 10.9583 134.858 11.1724 133.309 11.8631C131.761 12.5538 130.455 13.6896 129.558 15.125C128.661 16.5605 128.215 18.2303 128.275 19.9205C128.336 21.6106 128.901 23.2443 129.899 24.6122C130.896 25.9801 132.28 27.02 133.874 27.5986C135.467 28.1773 137.198 28.2684 138.844 27.8602C140.49 27.4521 141.976 26.5632 143.112 25.3076L140.684 22.8951C140.206 23.4591 139.609 23.9121 138.937 24.2225C138.264 24.533 137.532 24.6935 136.791 24.6927Z" fill="#29303B"/>
</g>
</g>
</g>
</g>
</svg>
