<svg width="320" height="175" viewBox="0 0 320 175" fill="none" xmlns="http://www.w3.org/2000/svg">
<rect x="0.818824" y="0.818824" width="318.362" height="173.362" rx="2.45647" fill="#123862"/>
<rect x="0.818824" y="0.818824" width="318.362" height="173.362" rx="2.45647" stroke="#E0E0E0" stroke-width="1.63765"/>
<path d="M47.9421 89.8338C47.9421 100.913 61.6285 113.129 69.8115 113.547H69.7827C77.9801 113.129 91.6664 100.898 91.652 89.8194C91.7096 74.7788 91.652 54.062 91.652 54.062H47.9277V89.8338H47.9421Z" fill="#00365F"/>
<path d="M69.7984 114.124H69.7696C61.5434 113.691 47.3672 101.518 47.3672 89.8339V53.5146H92.2152V54.0765C92.2152 54.2782 92.2728 74.9662 92.2152 89.8339C92.2296 101.518 78.0534 113.677 69.8128 114.124H69.7984ZM48.5053 54.6528V89.8339C48.5053 100.74 62.1484 112.553 69.7984 112.985C77.4483 112.553 91.0914 100.74 91.0914 89.8339C91.1347 76.3492 91.1058 58.0816 91.0914 54.6384L48.5053 54.6528Z" fill="white"/>
<path d="M70.8799 69.1602H69.4824V107.669H70.8799V69.1602Z" fill="#ACDEF9"/>
<path d="M78.7179 82.4143H85.5754C87.6068 82.4143 87.7797 82.688 87.9237 83.1346C87.8373 82.4575 87.4051 78.9999 87.1025 76.5075C87.0305 75.8592 86.8 74.0584 85.8924 72.9923C85.6043 72.6465 85.4746 72.4737 84.8551 72.2143C84.8983 72.0847 85.4602 70.6872 85.878 69.5635C86.0941 68.9872 85.8636 68.411 85.417 68.1517C85.028 67.9211 84.5382 67.9067 84.1924 67.9067C81.8441 67.9067 80.0289 67.9067 79.2941 67.9067C78.0407 67.9067 77.4501 68.6991 77.8391 69.6788C78.1272 70.4135 78.617 71.6525 78.8331 72.2287C77.2916 72.7474 76.773 74.8508 76.5569 76.6804C76.1823 79.7634 75.6781 83.8693 75.6348 84.1142C75.5772 84.5032 75.5196 84.8346 76.1535 84.8634C77.378 84.9354 78.7899 84.9498 81.1958 84.8922C81.4263 85.0219 81.7289 85.1083 82.1178 85.0939C82.5068 85.0939 82.795 84.9786 82.9966 84.8346C83.9763 84.8058 85.0856 84.7625 86.3534 84.7049C85.2441 84.6761 84.1924 84.6473 83.2272 84.6185C83.5729 84.1863 83.5441 83.5956 83.5153 83.4804C83.3712 85.0939 81.2822 84.9354 81.8009 83.221C81.5704 83.221 80.9941 83.221 80.6195 83.5236C80.5187 83.7685 80.5475 84.1863 80.7924 84.532C79.4382 84.4744 78.3289 84.4168 77.5077 84.3736C77.0899 84.3592 76.8882 84.0566 77.1043 83.7829C77.9975 82.6304 78.0552 82.4143 78.7179 82.4143ZM79.3518 68.9152C80.5907 68.9152 82.6077 68.9152 83.9043 68.9152C84.3077 68.9152 84.9704 68.8 84.5958 69.6932C84.2644 70.4855 83.789 71.5804 83.5873 72.0559C82.8958 72.0559 80.1153 72.0559 80.1153 72.0415C79.8992 71.5228 79.5823 70.7881 79.1789 69.866C78.9484 69.3618 78.8475 68.9152 79.3518 68.9152Z" fill="#FFD125"/>
<path d="M69.8445 107.496C69.8445 107.943 69.5419 108.318 69.1673 108.318C68.7928 108.318 68.4902 107.943 68.4902 107.496V103.679C68.4902 103.232 68.7928 102.857 69.1673 102.857C69.5419 102.857 69.8445 103.232 69.8445 103.679V107.496Z" fill="white"/>
<path d="M60.4211 62.1155C60.6372 62.0291 60.9542 62.0435 61.2279 62.0435C60.9109 61.7842 60.6228 61.6833 60.4499 61.6401C60.0609 60.113 57.8423 60.5308 57.6262 61.885C57.5398 62.3749 55.811 62.591 53.8229 65.2562C52.9008 66.4808 51.633 67.5469 51.2585 67.7918C50.8695 68.0367 51.8059 67.9646 52.2525 67.5036C52.6559 67.9214 53.4627 66.6825 54.6728 66.4808C54.9898 66.4231 58.9948 65.7028 57.9432 63.4121C59.355 65.2274 57.0067 66.5384 55.5228 66.6825C55.6525 66.7545 56.4305 66.8121 56.5169 66.8409C56.733 66.913 56.4449 67.1867 56.6322 67.2875C57.0644 67.5324 57.9143 68.3392 57.9143 68.3392C57.9143 68.3392 58.4042 68.1807 58.1881 67.9502C57.5254 67.518 57.3525 67.3884 57.1796 67.1147C57.1652 67.1002 56.9491 66.6969 57.3957 66.5816C57.9864 66.4952 60.0321 65.7748 59.6864 63.196C59.6287 62.7926 59.9169 62.346 60.4211 62.1155Z" fill="#E4A224"/>
<path d="M60.1185 61.6976C60.1185 61.8272 60.0176 61.9425 59.888 61.9425C59.7727 61.9425 59.6719 61.8416 59.6719 61.6976C59.6719 61.5679 59.7727 61.4526 59.888 61.4526C60.0176 61.4526 60.1185 61.5535 60.1185 61.6976Z" fill="#00365F"/>
<path d="M71.2113 102.713H70.4766V108.13H71.2113V102.713Z" fill="white"/>
<path d="M71.8731 108.966C72.0892 108.736 72.2333 108.419 72.2333 108.073C72.2333 107.367 71.657 106.791 70.9511 106.791H68.7613C68.0554 106.791 67.4647 107.367 67.4647 108.073C67.4647 108.405 67.5943 108.707 67.796 108.938C67.5367 109.168 67.0613 109.629 66.9316 109.788C68.4011 110.436 71.196 110.378 72.7663 109.773C72.6079 109.658 72.1036 109.197 71.8731 108.966Z" fill="#FFD125"/>
<path d="M69.814 64.5646C69.814 64.5934 69.814 64.579 69.814 64.5646C68.8631 63.7002 65.8089 63.34 63.8496 63.8442C63.9793 64.0892 64.1377 64.8527 64.2242 65.1552C67.1199 64.19 69.814 65.6019 69.814 65.6019C69.814 65.6019 72.508 64.19 75.4182 65.1552C75.5046 64.8527 75.6631 64.0892 75.7927 63.8586C73.819 63.34 70.7648 63.7146 69.814 64.5646Z" fill="#ACDEF9"/>
<path d="M71.1236 69.146H70.6914V98.9822H71.1236V69.146Z" fill="white"/>
<path d="M69.8987 69.1602H68.5156V96.8498H69.8987V69.1602Z" fill="white"/>
<path d="M71.226 79.8066C71.3124 79.4753 71.3556 78.6829 71.226 78.4236C70.5777 78.4236 69.5692 78.4236 68.9785 78.4092C70.3183 78.9134 71.226 79.8066 71.226 79.8066Z" fill="#00365F"/>
<path d="M66.3691 104.457C67.1471 104.572 71.2962 104.773 71.2962 104.773L71.9733 106.531C71.9733 106.531 68.3429 106.43 66.3691 104.457Z" fill="#00365F"/>
<path d="M83.3706 91.8223C82.074 90.9867 80.4893 91.635 78.7893 90.1943C78.7893 94.6316 82.0308 95.5248 80.2156 96.7206C78.5876 97.7867 77.0173 98.046 75.3893 97.9163C75.5334 97.6858 75.7783 97.2968 75.9656 97.0951C73.9631 96.8358 72.2199 96.9799 71.4851 97.0663C68.9928 96.3316 66.2267 95.4096 62.8987 95.3663C63.5038 95.8562 64.0945 96.7206 64.0945 98.19C63.5903 96.2019 61.5157 95.1646 60.5072 94.7613C60.2047 94.646 59.9166 94.5884 59.6284 94.5452C59.4844 94.7468 59.153 95.0926 58.62 95.2943C58.3174 95.1358 58.0581 95.424 58.1013 95.5248C58.1157 95.568 58.1157 95.6257 58.0725 95.6689C57.77 96.029 56.8047 95.8418 56.07 95.5968C55.2344 95.3087 55.2632 95.885 55.4361 96.1731C55.6954 96.6341 55.9547 96.9367 56.07 97.196C57.1793 99.4578 58.0005 100.956 60.464 102.368C62.7979 104.097 65.7513 104.99 68.7479 105.091C69.8428 105.48 72.3495 106.171 75.4902 105.667C74.8851 105.249 74.2656 104.846 74.0639 104.443C78.0546 103.29 81.5122 100.654 82.924 96.6917C82.9384 96.6485 82.9528 96.6053 82.9672 96.5621C83.2266 95.6977 82.3766 94.5452 81.1808 95.6833C82.2181 93.1909 83.9325 94.2714 83.5579 95.7409C84.9266 93.8969 86.7562 91.9231 89.1909 91.174C86.9867 90.1367 84.8113 91.0299 83.3706 91.8223Z" fill="#ACDEF9"/>
<path d="M71.2709 87.9468C71.3573 87.6154 71.4005 86.823 71.2709 86.5637C70.6226 86.5637 69.6141 86.5781 69.0234 86.5493C70.3633 87.0535 71.2709 87.9468 71.2709 87.9468Z" fill="#00365F"/>
<path d="M72.2059 85.3391C72.2059 86.0594 71.6152 86.6357 70.8949 86.6357H68.6762C67.9559 86.6357 67.3652 86.0594 67.3652 85.3391C67.3652 84.6332 67.9559 84.0569 68.6762 84.0569H70.8949C71.6152 84.0425 72.2059 84.6188 72.2059 85.3391Z" fill="#FFD125"/>
<path d="M70.8676 86.1892C69.571 86.2036 68.4473 86.1892 68.4473 86.1892C68.4473 86.1892 70.2769 86.0739 71.4439 84.835C71.7464 85.0367 71.804 86.1892 70.8676 86.1892Z" fill="#E4A224"/>
<path d="M71.2845 96.2163C71.371 95.8993 71.4142 95.0926 71.2845 94.8333C70.6362 94.8333 69.6278 94.8477 69.0371 94.8188C70.3913 95.3087 71.2845 96.2163 71.2845 96.2163Z" fill="#00365F"/>
<path d="M72.2208 93.5507C72.2208 94.2711 71.6445 94.8473 70.9242 94.8473H68.7055C67.9852 94.8473 67.3945 94.2711 67.3945 93.5507C67.3945 92.8448 67.9708 92.2686 68.7055 92.2686H70.9242C71.6445 92.2686 72.2208 92.8448 72.2208 93.5507Z" fill="#FFD125"/>
<path d="M70.8813 94.4011C69.5847 94.4155 68.4609 94.4011 68.4609 94.4011C68.4609 94.4011 70.2906 94.3003 71.4575 93.0469C71.7601 93.263 71.8177 94.4011 70.8813 94.4011Z" fill="#E4A224"/>
<path d="M71.7604 71.2495H67.8418V75.0961H71.7604V71.2495Z" fill="#FFD125"/>
<path d="M71.7741 75.0957C71.1114 75.2542 71.1546 75.816 71.1258 76.0177C71.1258 76.0177 69.5411 76.0321 68.5038 76.0177C68.5182 75.9601 68.5326 75.1965 67.8555 75.0957C67.8411 75.0957 71.5148 75.0957 71.7741 75.0957Z" fill="#E4A224"/>
<path d="M71.1989 71.2495H70.1328V75.1537H71.1989V71.2495Z" fill="#E4A224"/>
<path d="M57.4968 92.586C57.079 92.7733 56.7333 93.1478 56.5604 93.6232C56.3731 94.1131 56.3731 94.6173 56.5604 95.0351C56.69 95.3376 56.9206 95.5681 57.2087 95.669C57.4824 95.7698 57.8138 95.7554 58.1163 95.6258C58.5341 95.4529 58.8799 95.0639 59.0671 94.5885C59.3985 93.7241 59.1104 92.8021 58.4333 92.5427C58.1307 92.4419 57.7994 92.4563 57.4968 92.586ZM57.3816 95.1936C57.1799 95.1215 57.079 94.9487 57.0214 94.8334C56.8917 94.5453 56.8917 94.1707 57.0358 93.8249C57.1799 93.4792 57.4248 93.191 57.7129 93.0614C57.8426 93.0038 58.0299 92.9605 58.2316 93.0326C58.5197 93.1478 58.6782 93.4648 58.6782 93.8537C58.6782 94.0266 58.6494 94.2283 58.5773 94.4012C58.4477 94.7614 58.1883 95.0351 57.9002 95.1648C57.7705 95.2224 57.5833 95.28 57.3816 95.1936Z" fill="#FFD125"/>
<path d="M58.0883 95.0633C57.8722 94.9912 57.3248 94.8328 56.6621 94.8183C56.2011 94.8039 55.74 94.5302 55.7689 94.4006C55.7977 94.2997 55.9129 94.2565 56.1146 94.2277C56.5612 94.17 57.5409 94.2133 58.5926 94.3862C58.4917 94.6167 58.3477 94.8616 58.0883 95.0633Z" fill="#ACDEF9"/>
<path d="M59.7437 63.7871C59.7293 65.7464 58.231 66.3659 57.7988 66.4668C57.9285 66.0345 58.548 64.0032 59.7437 63.7871Z" fill="#E63320"/>
<path d="M72.2352 77.1562C72.2352 77.8766 71.6589 78.4528 70.9242 78.4528H68.7055C67.9852 78.4528 67.3945 77.8766 67.3945 77.1562C67.3945 76.4503 67.9708 75.874 68.7055 75.874H70.9242C71.6589 75.874 72.2352 76.4503 72.2352 77.1562Z" fill="#FFD125"/>
<path d="M70.893 78.0061C69.5964 78.0205 68.4727 78.0061 68.4727 78.0061C68.4727 78.0061 70.3023 77.8908 71.4692 76.6519C71.7718 76.868 71.8438 78.0061 70.893 78.0061Z" fill="#E4A224"/>
<path d="M62.2063 95.8271C63.6182 96.778 64.0936 98.161 64.0936 98.161C64.0936 98.161 64.569 96.9941 63.9207 96.0864C65.2029 95.7119 67.436 96.3025 69.4529 97.0805C72.4063 98.2474 74.6249 98.622 76.8867 98.2474C79.1342 97.8585 80.3299 97.3975 81.0503 96.2737C81.4392 95.6687 82.5774 95.7983 82.2604 96.7059C81.9435 97.6136 80.546 100.178 77.9096 100.898C75.2732 101.604 70.908 102.786 64.4682 101.172C62.7394 100.74 58.6911 99.6593 57.0488 97.5415C56.7174 97.1093 56.631 96.317 56.6166 96.2017C56.6021 96.0432 56.703 95.9712 57.0632 96.0288C58.2013 96.2305 58.4174 95.7983 58.8352 95.3229C59.2818 95.2653 60.9097 94.9771 62.2063 95.8271Z" fill="white"/>
<path d="M81.7835 96.5331C79.8098 100.279 76.0064 100.855 72.0302 100.97C70.4166 101.014 68.8031 100.812 67.4056 100.466C68.5726 100.581 69.7827 100.495 70.5319 100.236C70.2438 98.7373 67.6794 97.6424 65.8929 97.5416C65.5472 97.1526 65.4607 96.6484 64.6396 96.3602C65.2158 96.8933 65.1726 97.628 65.4607 98.017C66.9302 98.3195 68.7022 98.6941 69.5666 99.8322C69.2641 100.221 66.6133 100.005 65.1726 99.6738C64.5531 99.4433 63.9048 99.0687 63.5591 98.3916C62.8675 99.1551 61.7726 98.8814 60.6489 98.3195C60.6345 97.8873 60.3608 97.4984 59.7845 97.3831C59.9142 97.5704 59.943 97.7721 59.943 97.9306C58.6752 97.1958 57.465 96.3026 56.86 96.3458C55.9956 96.4179 58.7472 101.23 61.0667 101.748C67.9531 105.725 79.464 103.967 82.1869 97.2679C82.5471 96.3314 82.2157 95.7119 81.7835 96.5331Z" fill="#0098D6"/>
<path d="M60.0334 97.9015C60.0766 98.3193 59.7452 98.6939 59.2986 98.7371C58.852 98.7947 58.463 98.4778 58.4198 98.06C58.3766 97.6422 58.7079 97.2532 59.1545 97.21C59.5867 97.1668 59.9901 97.4837 60.0334 97.9015Z" fill="white"/>
<path d="M59.6449 97.9742C59.6449 98.1759 59.4576 98.3488 59.2127 98.3488C58.9822 98.3488 58.7949 98.1903 58.7949 97.9742C58.7949 97.7725 58.9822 97.5996 59.2127 97.5996C59.4576 97.5996 59.6449 97.7725 59.6449 97.9742Z" fill="#00365F"/>
<path d="M79.3811 91.1162C78.9057 92.7442 80.9227 94.9484 80.9227 94.9484C80.9227 94.9484 80.015 92.0959 79.3811 91.1162Z" fill="white"/>
<path d="M80.7909 91.4619C80.0994 92.4128 81.396 94.5882 81.396 94.5882C81.396 94.5882 81.3384 92.8594 80.7909 91.4619Z" fill="white"/>
<path d="M82.9803 93.9397C83.5278 92.7439 84.6227 91.5626 85.7896 91.1304C83.3693 91.4329 82.8218 93.0465 82.9803 93.9397Z" fill="white"/>
<path d="M69.8133 57.8078C68.7904 55.8341 67.3353 57.3612 64.7709 56.5688C64.3243 58.6578 63.8777 62.3891 63.748 63.0374C65.4913 63.5561 67.0328 61.9281 69.1073 63.2968C68.8912 60.6027 69.7556 58.3553 69.7556 58.3553C69.7556 58.3553 69.7844 58.0239 69.8133 57.8078Z" fill="white"/>
<path d="M69.8138 57.8078C69.6121 57.462 69.4248 57.1595 69.0791 56.9722C68.7765 60.1849 68.7045 60.8764 67.6816 62.7637C68.3155 62.8501 68.7765 63.0806 69.1079 63.3111C68.8774 60.6171 69.8138 58.4849 69.8138 58.4849C69.8138 58.4849 69.8138 57.9086 69.8138 57.8078Z" fill="#ACDEF9"/>
<path d="M74.8424 56.5547C72.2924 57.3471 70.8229 55.8199 69.8145 57.8081C69.8145 58.4852 69.8145 63.4699 69.8145 63.8301C72.2636 61.5394 73.9492 63.614 75.8797 63.0233C75.75 62.3894 75.3034 58.6437 74.8424 56.5547Z" fill="white"/>
<path d="M70.5337 67.5034H69.1074V69.1602H70.5337V67.5034Z" fill="#FFD125"/>
<path d="M69.8304 65.9189L70.5364 67.1579H69.0957L69.8304 65.9189Z" fill="#FFD125"/>
<path d="M57.8717 70.8023C57.8579 70.7886 57.8579 70.7886 57.8717 70.8023Z" fill="#008A3B"/>
<path d="M63.5913 78.8844C63.5913 78.8844 65.5362 77.9192 65.7379 76.9395C65.1328 76.3633 63.6057 76.2912 63.6057 76.2912C63.6057 76.2912 65.3489 74.9658 65.2769 73.9862C64.3981 73.5828 62.8422 73.8133 62.8422 73.8133C63.5625 72.8192 63.7642 72.0269 63.7354 71.3209C62.8278 71.1625 61.4303 71.7099 61.4303 71.7099C61.4303 71.7099 61.9057 70.0387 61.4303 69.1599C60.5947 68.9294 59.399 70.4133 59.399 70.4133C59.399 70.4133 58.9812 68.5837 57.9871 67.604C56.9931 68.5837 56.5609 70.4133 56.5609 70.4133C56.5609 70.4133 55.3795 68.9294 54.5295 69.1599C54.0685 70.0243 54.5439 71.7099 54.5439 71.7099C54.5439 71.7099 53.1465 71.1769 52.2244 71.3209C52.1956 72.0124 52.4117 72.8192 53.1321 73.8133C53.1321 73.8133 51.5761 73.5828 50.6973 73.9862C50.6253 74.9514 52.3685 76.2912 52.3685 76.2912C52.3685 76.2912 50.8414 76.3489 50.2363 76.9395C50.4812 77.9192 52.4261 78.8844 52.4261 78.8844C52.4261 78.8844 51.2592 79.1293 50.5533 79.9217C50.9999 80.5268 52.0228 81.0886 52.8151 81.2327C52.1236 81.7802 51.749 82.2124 51.5761 82.5437C52.6855 83.4513 55.0338 83.5666 57.3676 82.8463C57.3676 83.2929 57.3676 86.9089 56.8202 88.5513H59.1829C58.6354 86.8945 58.6498 83.2929 58.6498 82.8463C60.9837 83.581 63.332 83.4513 64.4413 82.5437C64.2684 82.2268 63.8794 81.7946 63.2023 81.2327C63.9947 81.1031 65.0032 80.5268 65.4642 79.9217C64.7438 79.1293 63.5913 78.8844 63.5913 78.8844Z" fill="#86BC25"/>
<path d="M61.4598 78.9425C61.6759 78.8273 62.8141 78.4815 63.3903 77.473C62.8141 76.9112 61.4598 76.8824 61.4598 76.8824C61.4598 76.8824 62.6556 76.09 63.0734 74.9087C62.0361 74.6061 60.97 74.9087 60.97 74.9087C60.97 74.9087 61.8488 73.6697 61.9641 72.618C60.97 72.7332 59.9327 73.2519 59.9327 73.2519C60.2353 72.6036 60.3793 71.6816 60.2497 70.8892C59.7598 70.99 59.3132 71.5519 59.0395 71.8977C58.7946 71.0909 58.3624 70.846 58.0743 70.6875C57.5988 71.3934 57.498 71.8544 57.5556 72.8197C57.7141 72.6612 57.9734 72.4019 58.3912 72.157C58.6505 73.54 58.1607 74.5485 58.1607 74.5485C58.1607 74.5485 58.7658 74.1451 59.5726 74.0587C59.6014 74.8222 59.3276 75.6146 58.5209 76.551C58.5209 76.551 59.2268 76.1188 60.048 76.0612C59.9183 77.1417 59.2556 77.8476 58.5785 78.4671C59.0251 78.251 59.8031 78.2798 60.3361 78.4527C60.0624 79.2739 59.4285 79.6773 58.4921 80.1815C59.0683 80.1815 59.659 80.2535 59.9904 80.484C59.6158 81.19 58.7082 81.5213 58.0743 81.6942C59.5293 82.2561 60.9556 82.4866 62.3386 82.1408C62.2378 81.723 61.7192 81.2188 61.0997 80.873C61.6615 80.7434 62.4971 80.5705 63.2319 79.951C62.742 79.4612 62.1658 79.1442 61.4598 78.9425Z" fill="#008E3D"/>
<path d="M71.3997 107.367C71.587 107.598 71.731 108.678 70.7802 108.75C69.1666 108.88 68.3887 108.707 68.3887 108.707C68.3887 108.707 70.5641 108.462 71.3997 107.367Z" fill="#E4A224"/>
<path d="M78.6587 74.2893C78.7596 72.9639 79.3791 72.6614 80.2435 72.6758C80.7189 72.6902 81.4536 72.6902 83.2113 72.6758C82.2172 72.7622 80.9782 73.2809 80.8197 74.5775C80.6757 75.7732 80.6613 79.9223 80.6325 81.6944C79.7681 81.7232 78.6011 81.6944 78.3418 81.7664C78.4571 79.9223 78.5579 75.6003 78.6587 74.2893Z" fill="#E4A224"/>
<path d="M70.2603 67.5034H69.8281V69.1602H70.2603V67.5034Z" fill="#E4A224"/>
<path d="M70.2603 67.1579L69.8281 65.9189V67.1579H70.2603Z" fill="#E4A224"/>
<path d="M88.8006 115.521C89.665 115.521 90.3853 115.348 90.9184 115.031L91.1633 114.887L91.1201 115.737V120.203C91.1201 120.347 91.0625 120.477 90.9328 120.578C90.6591 120.852 90.0828 121.024 89.4489 121.01H50.1187C49.4704 121.024 48.8941 120.866 48.606 120.578C48.4907 120.463 48.4331 120.347 48.4331 120.203V116.573V115.766C48.4331 115.78 48.4187 115.276 48.4187 115.276L48.4043 115.031L48.6204 115.132C49.1534 115.391 49.8594 115.507 50.7382 115.507H88.8006V115.521Z" fill="#00365F" stroke="#00365F" stroke-width="0.710681"/>
<path d="M86.1518 110.839C86.5408 114.383 86.123 113.821 86.1518 114.844C86.4832 114.93 89.1484 115.449 90.1137 114.93C91.0789 114.412 91.612 114.167 91.1654 113.648C90.7187 113.13 88.5145 111.732 87.6357 111.588C86.7425 111.43 86.3967 111.098 86.1518 110.839Z" fill="#ACDEF9"/>
<path d="M53.6221 110.954C53.9534 112.063 53.017 113.763 53.6365 115.002C53.1034 114.974 49.9772 115.118 49.3865 114.902C48.767 114.671 47.4272 114.21 48.7526 113.49C50.0924 112.769 53.4492 111.473 53.6221 110.954Z" fill="#ACDEF9"/>
<path d="M54.0082 109.528C53.1294 110.738 51.7319 111.314 50.5074 111.833L49.9311 112.092C49.9023 112.092 49.3692 112.337 49.3692 112.337C49.3548 112.337 49.1675 112.423 49.1675 112.423L48.8506 112.611C47.943 113.1 47.3379 113.749 47.3379 115.319L47.3523 115.78V116.558V120.203C47.3523 120.635 47.5252 121.024 47.8565 121.341C48.3608 121.831 49.1964 122.105 50.1328 122.09H89.4342C90.3706 122.119 91.1918 121.845 91.696 121.341C92.0274 121.024 92.2003 120.621 92.2003 120.189V116.529V115.751L92.2147 115.189C92.2147 113.835 91.7969 113.317 91.0766 112.87C91.0621 112.856 90.3706 112.423 90.3706 112.423L89.5494 112.063C89.535 112.049 89.4774 112.02 89.4774 112.02C89.4918 112.034 89.0164 111.818 89.0164 111.818C87.7918 111.3 86.4088 110.723 85.5156 109.513C85.5156 109.513 85.4724 109.456 85.4147 109.369C85.4003 109.441 85.3715 109.542 85.3715 109.542C85.2995 109.83 85.2563 110.104 85.2563 110.392C85.2563 110.925 85.3859 111.4 85.53 111.948C85.7029 112.567 85.8901 113.302 85.9334 114.267V114.426H53.5904V114.267C53.6192 113.302 53.8209 112.582 53.9794 111.991C54.1234 111.444 54.2675 110.939 54.2675 110.406C54.2675 110.133 54.2387 109.845 54.1522 109.556C54.1522 109.556 54.1234 109.47 54.109 109.384C54.0658 109.456 54.0082 109.528 54.0082 109.528ZM49.3692 114.267L49.2108 114.224L49.2684 114.066C49.3692 113.792 49.6574 113.489 50.0463 113.245C50.0752 113.23 50.3201 113.1 50.3201 113.1C50.3345 113.086 51.0404 112.798 51.0404 112.798C51.5879 112.596 52.2506 112.337 52.798 111.847L53.1006 111.573L53.0285 112.078L53.0141 112.193C52.9565 112.409 52.8989 112.668 52.8989 112.971C52.8989 113.331 52.9997 113.734 53.187 114.21L53.2734 114.411H50.7523C50.2192 114.426 49.7582 114.368 49.3692 114.267ZM86.3512 114.224C86.5529 113.749 86.6393 113.345 86.6393 112.985C86.6393 112.697 86.5817 112.467 86.5384 112.25C86.524 112.207 86.5096 112.078 86.5096 112.078L86.4376 111.602L86.7401 111.861C87.2876 112.351 87.9503 112.611 88.4978 112.812L89.074 113.057C89.0884 113.057 89.6503 113.36 89.6503 113.36C89.9384 113.561 90.1545 113.792 90.241 114.008L90.2986 114.152L90.1545 114.21C89.924 114.311 89.4918 114.426 88.7715 114.426H86.2503L86.3512 114.224ZM88.8003 115.521C89.6647 115.521 90.385 115.348 90.9181 115.031L91.163 114.887L91.1198 115.737V120.203C91.1198 120.347 91.0621 120.477 90.9325 120.578C90.6588 120.851 90.0825 121.024 89.4486 121.01H50.1184C49.4701 121.024 48.8938 120.866 48.6057 120.578C48.4904 120.462 48.4328 120.347 48.4328 120.203V116.572V115.766C48.4328 115.78 48.4184 115.276 48.4184 115.276L48.404 115.031L48.6201 115.132C49.1531 115.391 49.8591 115.506 50.7379 115.506H88.8003V115.521Z" fill="white"/>
<path d="M50.1484 116.803H50.984L51.5747 118.431C51.5891 118.474 51.6179 118.604 51.6755 118.82C51.7332 118.589 51.762 118.46 51.7764 118.431L52.3527 116.803H53.2027L51.9781 119.713H51.3586L50.1484 116.803Z" fill="white"/>
<path d="M54.4552 116.803H53.6484V119.713H54.4552V116.803Z" fill="white"/>
<path d="M55.9538 116.803H56.9478L57.9563 119.713H57.1639L57.0199 119.194H55.8962L55.7377 119.713H54.9453L55.9538 116.803ZM56.847 118.632L56.5445 117.667C56.53 117.624 56.5012 117.494 56.4436 117.278C56.386 117.494 56.3572 117.624 56.3428 117.667L56.0546 118.632H56.847Z" fill="white"/>
<path d="M59.5273 116.803H60.3773L60.9536 118.431C60.968 118.474 60.9968 118.604 61.0545 118.82C61.1121 118.589 61.1409 118.46 61.1553 118.431L61.7316 116.803H62.5672L61.3426 119.713H60.7375L59.5273 116.803Z" fill="white"/>
<path d="M63.0117 116.803H64.7837V117.451H63.7753V117.955H64.7261V118.575H63.7753V119.065H64.7837V119.713H63.0117V116.803Z" fill="white"/>
<path d="M65.5195 116.803H66.3551C66.3695 116.803 66.3839 116.803 66.3983 116.803C66.8017 116.803 67.1043 116.803 67.3636 117.004C67.5653 117.163 67.6805 117.422 67.6805 117.725C67.6805 118.171 67.45 118.46 67.0322 118.56L67.8246 119.727H66.9314L66.2687 118.589V119.727H65.5195V116.803ZM66.4127 118.186C66.7441 118.186 66.9026 118.085 66.9026 117.826C66.9026 117.523 66.7585 117.422 66.4272 117.422H66.2687V118.186H66.4127Z" fill="white"/>
<path d="M69.1505 116.803H68.3438V119.713H69.1505V116.803Z" fill="white"/>
<path d="M70.4178 117.494H69.7695V116.803H71.8585V117.494H71.2102V119.713H70.4178V117.494Z" fill="white"/>
<path d="M73.1132 116.803H74.1073L75.1157 119.713H74.3234L74.1793 119.194H73.0556L72.9115 119.713H72.1191L73.1132 116.803ZM74.0064 118.632L73.7039 117.667C73.6895 117.624 73.6607 117.494 73.603 117.278C73.5454 117.494 73.5166 117.624 73.5022 117.667L73.214 118.632H74.0064Z" fill="white"/>
<path d="M76.4111 119.166C76.6272 119.166 76.7712 119.036 76.7712 118.863C76.7712 118.633 76.6128 118.561 76.2814 118.474C75.7628 118.345 75.5034 118.129 75.5034 117.668C75.5034 117.12 75.8924 116.717 76.5119 116.717C76.8433 116.717 77.117 116.803 77.3763 116.976L77.1314 117.538C76.9441 117.38 76.7568 117.307 76.5695 117.307C76.3678 117.307 76.2382 117.408 76.2382 117.552C76.2382 117.768 76.4399 117.812 76.6992 117.884C77.2178 118.028 77.506 118.215 77.506 118.748C77.506 119.353 77.0738 119.771 76.3967 119.771C75.9789 119.771 75.6763 119.641 75.3594 119.339L75.7195 118.748C75.95 119.051 76.1806 119.166 76.4111 119.166Z" fill="white"/>
<path d="M79.25 116.803H80.1L80.6907 118.431C80.7051 118.474 80.7339 118.604 80.7771 118.82C80.8347 118.589 80.8635 118.46 80.878 118.431L81.4542 116.803H82.3042L81.0796 119.713H80.4746L79.25 116.803Z" fill="white"/>
<path d="M83.5568 116.803H82.75V119.713H83.5568V116.803Z" fill="white"/>
<path d="M84.8085 117.494H84.1602V116.803H86.2491V117.494H85.6008V119.713H84.8085V117.494Z" fill="white"/>
<path d="M87.5026 116.803H88.4967L89.5051 119.713H88.7128L88.5687 119.194H87.445L87.2865 119.713H86.4941L87.5026 116.803ZM88.3958 118.632L88.0933 117.667C88.0789 117.624 88.0501 117.494 87.9924 117.278C87.9348 117.494 87.906 117.624 87.8916 117.667L87.6035 118.632H88.3958Z" fill="white"/>
<path d="M135.018 53.4863V54.2931C132.151 54.3363 131.128 55.4889 131.128 58.2261V69.7803C131.128 75.0819 127.742 80.787 118.45 80.787C110.282 80.787 106.075 76.1192 106.075 69.9964V57.5202C106.075 54.7829 105.311 54.3507 102.387 54.3075V53.4863H113.393V54.2931H113.004C110.656 54.2931 109.619 54.9414 109.619 57.4193V69.3193C109.619 75.0963 113.004 78.5683 119.372 78.5683C124.213 78.5683 129.14 76.5514 129.14 69.2904V59.3066C129.14 55.2007 128.492 54.466 124.948 54.2931V53.4863H135.018Z" fill="white"/>
<path d="M139.861 76.3926C139.861 78.7409 140.423 79.3028 142.728 79.3028V80.1096H134.127V79.3028C136.014 79.3028 136.994 78.2655 136.994 76.6087V67.619C136.994 66.0342 136.821 65.7317 135.712 65.5156L134.257 65.2131V64.5359L139.184 62.7351H139.875V66.0775C142.742 64.2766 145.134 62.6919 147.237 62.6919C150.147 62.6919 151.818 64.8241 151.818 69.1029C151.818 74.7935 151.516 75.9028 151.473 77.5884C151.429 78.7409 152.106 79.3028 153.864 79.3028H154.801V80.1096H145.595V79.3028C146.834 79.2596 147.554 78.957 148.029 78.4816C148.836 77.6604 148.923 74.5342 148.923 68.8435C148.923 65.4148 147.251 64.3487 145.537 64.3487C144.168 64.3487 142.079 65.5444 139.846 67.0859V76.3926H139.861Z" fill="white"/>
<path d="M162.449 76.868C162.449 78.3663 163.256 79.3171 165.532 79.3171V80.1239H156.023V79.3171C158.631 79.3171 159.582 78.4527 159.582 76.1909V67.5901C159.582 65.9189 159.366 65.7028 158.256 65.4867L156.24 65.0977V64.4062L161.801 62.4757H162.449V76.868ZM160.691 52.8521C161.714 52.8521 162.578 53.5724 162.578 54.48C162.578 55.3732 161.728 56.108 160.691 56.108C159.654 56.108 158.847 55.3732 158.847 54.48C158.847 53.5724 159.654 52.8521 160.691 52.8521Z" fill="white"/>
<path d="M174.248 80.4982L168.039 66.2932C167.391 64.7949 166.843 64.2763 166.152 64.1466L164.826 63.9305V63.167H173.557V63.945C170.949 64.0314 170.128 64.3627 171.151 66.3797L175.689 77.0406L180.054 67.1576C180.832 65.4 180.443 64.1611 177.317 63.945V63.167H184.765V63.945C183.137 64.2475 182.186 65.1839 181.379 67.0712L175.473 80.5126H174.248V80.4982Z" fill="white"/>
<path d="M187.372 69.2472C187.285 69.8955 187.213 70.4861 187.213 71.048C187.213 75.4997 190.34 78.4963 193.711 78.4963C195.857 78.4963 197.529 77.6463 199.156 75.7158L199.632 76.2344C197.831 78.5107 195.137 80.6428 192.011 80.6428C187.818 80.6428 184.562 76.8395 184.562 71.8692C184.562 67.3311 187.602 62.7065 192.818 62.7065C198.595 62.7065 198.465 66.8557 199.877 68.2675V69.2472H187.372ZM196.275 68.1379C195.8 65.3574 194.1 63.5133 192.04 63.5133C190.628 63.5133 188.496 64.1616 187.501 68.1379H196.275Z" fill="white"/>
<path d="M207.658 76.9975C207.658 78.7551 208.306 79.3169 210.438 79.3169H212.066V80.1237H201.924V79.3169C204.114 79.2737 204.791 78.3805 204.791 76.1043V66.2069L201.924 65.1696V64.4493L206.808 62.7349H207.672V67.273H207.759C209.891 63.7577 210.409 62.951 211.821 62.951C212.34 62.951 212.47 62.9942 213.276 63.3399C213.708 63.5128 214.472 63.6857 215.495 63.9738L214.472 66.5526C213.824 66.4662 213.017 66.2501 212.196 65.8611C211.735 65.645 211.216 65.4433 210.697 65.4433C209.934 65.4433 209.459 65.962 209.026 66.5526C208.464 67.3162 208.003 68.0509 207.658 68.6848V76.9975Z" fill="white"/>
<path d="M217.901 75.7876C218.405 78.3664 220.033 79.807 221.963 79.807C223.678 79.807 225.003 78.5248 225.003 76.9833C225.003 76.0901 224.787 75.5282 223.635 74.3757C220.595 71.3359 217.209 71.0334 217.209 67.4893C217.209 64.6656 219.442 62.6919 222.684 62.6919C223.836 62.6919 225.032 62.9512 226.113 63.3834L226.199 67.2732H225.464C225.162 65.0834 223.75 63.7292 222.035 63.7292C220.624 63.7292 219.428 64.7088 219.428 66.1207C219.428 69.8952 227.38 70.5291 227.38 75.7587C227.38 78.5392 225.061 80.6426 222.064 80.6426C221.258 80.6426 220.652 80.5129 220.177 80.3401C219.702 80.2104 219.356 80.0807 219.024 80.0807C218.765 80.0807 218.506 80.2536 218.29 80.585H217.641L217.166 75.7876H217.901Z" fill="white"/>
<path d="M235.894 76.868C235.894 78.3663 236.701 79.3171 238.977 79.3171V80.1239H229.469V79.3171C232.091 79.3171 233.027 78.4527 233.027 76.1909V67.5901C233.027 65.9189 232.811 65.7028 231.702 65.4867L229.685 65.0977V64.4062L235.246 62.4757H235.894V76.868ZM234.137 52.8521C235.159 52.8521 236.024 53.5724 236.024 54.48C236.024 55.3732 235.174 56.108 234.137 56.108C233.099 56.108 232.292 55.3732 232.292 54.48C232.292 53.5724 233.114 52.8521 234.137 52.8521Z" fill="white"/>
<path d="M250.185 63.1667L249.507 65.054H244.897V75.0234C244.897 77.7175 246.828 78.6251 247.721 78.6251C248.672 78.6251 249.522 77.8903 250.329 76.4785L251.02 77.1268C249.997 79.3598 248.326 80.642 246.352 80.642C243.831 80.642 242.03 78.5386 242.03 75.6717V65.054H240.057V64.3625C241.728 63.5557 243.183 61.582 244.163 58.9312H244.897V63.1667H250.185Z" fill="white"/>
<path d="M266.163 67.9212C267.445 64.6653 266.638 64.0314 264.103 63.945V63.167H271.205V63.945C269.448 64.1611 268.468 65.3568 267.661 67.3737L260.386 85.5261C259.104 88.6956 258.124 90.1075 256.626 90.1075C255.603 90.1075 254.868 89.4592 254.868 88.6092C254.868 86.8516 257.346 87.2838 258.412 86.2177C258.888 85.7422 259.521 84.6329 259.867 83.7829L261.149 80.5703L254.522 66.4949C253.701 64.7373 252.938 64.0026 251.137 63.9738V63.167H259.738V63.945C257.13 63.9882 256.827 64.7517 257.677 66.5526L262.518 76.9974L266.163 67.9212Z" fill="white"/>
<path d="M113.872 94.5884C115.111 94.5884 117.762 96.3028 117.762 100.884C117.762 109.009 109.665 112.568 107.663 112.568C105.66 112.568 103.859 109.355 103.859 105.797C103.859 98.8672 111.308 94.5884 113.872 94.5884ZM111.697 96.1731C109.003 96.1731 106.597 101.345 106.597 105.638C106.597 109.226 108.138 110.983 109.593 110.983C113.022 110.983 115.025 105.422 115.025 101.475C115.025 98.4782 113.569 96.1731 111.697 96.1731Z" fill="white"/>
<path d="M119.3 96.5188L119.43 95.712C120.453 95.5824 121.49 95.4095 122.556 95.1502C123.205 91.6349 124.487 87.9612 126.878 85.5697C128.377 84.0714 130.264 83.2646 131.935 83.2646C133.606 83.2646 134.975 84.2011 134.975 85.3248C134.975 86.0019 134.456 86.5638 133.779 86.5638C132.367 86.5638 131.215 84.8062 129.976 84.8062C128.304 84.8062 126.936 86.6934 126.331 89.5171L125.178 95.1213H128.852L128.42 96.5332H124.905L122.729 109.038C121.058 118.633 116.174 122.047 112.155 122.047C110.354 122.047 108.855 121.154 108.855 120.074C108.855 119.382 109.547 118.792 110.267 118.792C111.852 118.792 112.702 120.679 114.33 120.679C115.31 120.679 116.174 120.203 116.938 119.44C119.07 117.293 119.891 109.989 120.064 108.952L122.254 96.5332H119.3V96.5188Z" fill="white"/>
<path d="M160.173 110.047C155.937 112.237 150.506 112.741 148.705 112.741C139.326 112.741 134.961 105.509 134.961 99.2563C134.961 92.8309 139.456 84.792 149.901 84.792C154.482 84.792 157.522 86.2471 158.415 86.2471C158.804 86.2471 159.15 86.1606 159.395 85.9445H160V92.8741H159.15C157.983 87.5293 154.352 85.8581 150.376 85.8581C142.841 85.8581 138.995 92.1106 138.995 98.997C138.995 107.771 145.161 111.66 150.088 111.66C152.062 111.66 154.237 111.228 156.643 110.032V104.644C156.643 102.21 155.793 101.388 153.214 101.388H151.629V100.625H163.184V101.388C161.051 101.518 160.187 102.253 160.187 104.083V110.047H160.173Z" fill="white"/>
<path d="M169.608 108.678C169.608 110.436 170.429 111.242 172.086 111.242H172.821V112.064H163.197V111.242C165.935 111.242 166.741 110.436 166.741 108.375V87.7019C166.741 86.4917 166.612 86.1172 165.416 85.9875L163.485 85.7714V85.0511L168.96 83.2935H169.594V108.678H169.608Z" fill="white"/>
<path d="M174.924 100.193C174.838 99.9333 174.794 99.8036 174.794 99.5875C174.794 98.0892 178.353 94.6172 181.133 94.6172C182.416 94.6172 184.433 95.2223 185.628 96.8934C186.277 97.7867 186.277 98.3485 186.277 100.567V106.301C186.277 109.73 186.277 110.493 187.386 110.493C187.847 110.493 188.409 110.45 189.475 109.557L189.691 110.205C187.386 112.092 186.176 112.553 185.455 112.553C183.698 112.553 183.525 110.623 183.482 109.946C180.528 112.381 179.678 112.553 178.511 112.553C176.033 112.553 174.535 111.142 174.535 109.038C174.535 106.431 176.84 105.523 179.592 104.846C180.485 104.63 181.897 104.111 183.395 103.218V99.8324C183.395 98.6367 183.395 97.9451 182.661 97.0951C182.113 96.4036 181.205 95.8562 180.269 95.8562C178.857 95.8562 177.618 97.0519 177.618 97.9451C177.618 98.2044 177.661 98.3773 177.834 98.7663L174.924 100.193ZM183.395 104.097C182.588 104.572 181.897 104.875 180.874 105.293C178.266 106.359 177.272 106.791 177.272 108.548C177.272 110.09 178.511 111.07 179.794 111.07C180.471 111.07 180.989 110.854 183.395 109.182V104.097Z" fill="white"/>
<path d="M191.796 107.727C192.315 110.291 193.943 111.76 195.873 111.76C197.588 111.76 198.913 110.464 198.913 108.937C198.913 108.029 198.697 107.482 197.545 106.315C194.505 103.275 191.119 102.972 191.119 99.4283C191.119 96.6046 193.338 94.6309 196.594 94.6309C197.746 94.6309 198.942 94.8902 200.022 95.3224L200.109 99.2122H199.389C199.086 97.0224 197.674 95.6537 195.96 95.6537C194.548 95.6537 193.352 96.6334 193.352 98.0452C193.352 101.805 201.319 102.454 201.319 107.683C201.319 110.464 199 112.567 196.017 112.567C195.211 112.567 194.606 112.438 194.13 112.265C193.669 112.135 193.323 112.005 192.978 112.005C192.718 112.005 192.459 112.178 192.257 112.524H191.609L191.148 107.727H191.796Z" fill="white"/>
<path d="M221.846 98.6222C221.198 98.579 219.196 98.4061 217.568 98.1036C217.827 98.579 218.288 99.4722 218.288 100.841C218.288 104.01 215.551 107.05 210.796 107.05C209.99 107.05 209.601 106.964 208.823 106.704C208.146 107.439 206.215 107.9 206.215 108.88C206.215 109.96 208.059 110.378 212.338 110.421C217.179 110.465 218.85 110.681 220.132 111.963C221.155 112.986 221.414 114.066 221.414 114.959C221.414 117.74 217.654 122.019 209.73 122.019C205.279 122.019 203.146 120.045 203.146 117.956C203.146 115.478 205.754 115.089 207.728 112.698C205.423 112.481 203.665 111.026 203.665 109.658C203.665 107.684 206.532 107.598 208.03 106.488C205.423 105.465 203.924 103.621 203.924 101.172C203.924 97.4841 207.224 94.6172 211.459 94.6172C213.433 94.6172 215.104 95.2223 216.257 96.3316C218.173 96.3316 219.973 96.1155 221.861 95.8994V98.6222H221.846ZM212.136 120.823C215.781 120.823 219.196 118.431 219.196 115.723C219.196 114.138 217.87 113.331 216.329 113.202C215.219 113.072 209.831 113.029 208.578 112.856C207.382 114.268 205.797 114.873 205.797 116.53C205.797 118.561 208.621 120.823 212.136 120.823ZM210.926 95.4528C209.298 95.4528 206.777 96.346 206.777 100.337C206.777 102.858 208.059 106.243 211.315 106.243C213.793 106.243 215.421 104.183 215.421 101.23C215.421 97.5417 213.548 95.4528 210.926 95.4528Z" fill="white"/>
<path d="M231.96 94.6309C237.19 94.6309 241.166 98.5207 241.166 103.621C241.166 108.663 237.19 112.567 232.09 112.567C226.788 112.567 222.711 108.721 222.711 103.707C222.711 97.8003 227.508 94.6309 231.96 94.6309ZM232.565 111.544C235.086 111.544 237.953 108.98 237.953 104.701C237.953 99.8173 234.957 95.6681 231.369 95.6681C228.546 95.6681 225.924 98.5783 225.924 102.266C225.924 107.438 228.877 111.544 232.565 111.544Z" fill="white"/>
<path d="M261.035 112.438L255.935 100.365L250.792 112.438H249.597L243.214 98.0457C242.624 96.7202 242.019 96.0719 240.045 95.8702V95.0923H248.358V95.8702C245.836 95.9999 245.664 96.7202 246.557 98.7372L251.181 109.052L255.374 99.1262C254.437 96.9507 253.702 96.1728 252.204 95.9999L251.181 95.8702V95.0923H260.041V95.8702C257.938 95.9135 257.304 96.5474 258.197 98.694L262.39 108.879L266.496 98.8668C267.432 96.5906 266.712 95.8702 264.018 95.8702V95.0923H271.207V95.8702C269.579 96.0431 268.556 96.8499 267.691 98.9533L262.174 112.438H261.035Z" fill="white"/>
</svg>
