<svg width="320" height="175" viewBox="0 0 320 175" fill="none" xmlns="http://www.w3.org/2000/svg">
<rect x="0.818824" y="0.818824" width="318.362" height="173.362" rx="2.45647" fill="#378089"/>
<rect x="0.818824" y="0.818824" width="318.362" height="173.362" rx="2.45647" stroke="#E0E0E0" stroke-width="1.63765"/>
<g clip-path="url(#clip0_3412_3520)">
<path d="M137.177 55.6044L136.877 57.8805C136.877 57.8805 137.057 57.8805 129.189 57.8805H121.442L121.142 55.6044H129.189H137.177ZM138.558 46.8594C138.558 46.8594 138.138 44.4037 136.396 45.0625C136.396 45.0625 134.474 45.9011 135.796 48.7162C135.796 48.7162 136.036 47.8178 136.877 47.8777C136.877 47.8777 138.438 48.0574 137.657 50.034C137.657 50.034 137.057 51.4116 135.856 51.1121C135.856 51.1121 134.114 50.9324 134.114 48.3569C134.114 48.3569 132.913 50.6329 131.532 50.4532C131.532 50.4532 129.79 50.6329 129.85 48.5964C129.85 48.5964 129.97 47.099 131.231 46.8594C131.231 46.8594 132.733 46.6797 132.492 48.1173C132.492 48.1173 135.976 45.1823 132.793 43.4453C132.793 43.4453 131.411 42.8463 130.27 44.1641C130.27 44.1641 130.871 43.4453 130.931 42.487C130.931 42.487 131.471 40.7499 129.309 39.552C127.147 40.7499 127.688 42.487 127.688 42.487C127.748 43.4453 128.348 44.1641 128.348 44.1641C127.147 42.7864 125.766 43.4453 125.766 43.4453C122.583 45.2422 126.066 48.1173 126.066 48.1173C125.766 46.6797 127.327 46.8594 127.327 46.8594C128.589 47.099 128.709 48.5964 128.709 48.5964C128.709 50.6329 126.967 50.4532 126.967 50.4532C125.466 50.6329 124.265 48.3569 124.265 48.3569C124.265 50.9324 122.523 51.1121 122.523 51.1121C121.322 51.4116 120.721 50.034 120.721 50.034C119.94 48.0574 121.502 47.8777 121.502 47.8777C122.343 47.8178 122.583 48.7162 122.583 48.7162C123.904 45.9011 121.982 45.0625 121.982 45.0625C120.241 44.4037 119.82 46.8594 119.82 46.8594C118.679 43.9844 116.457 44.7031 116.457 44.7031C119.82 49.2553 121.021 53.5679 121.021 53.5679H137.477C137.477 53.5679 138.618 49.2553 142.042 44.7031C141.982 44.7031 139.699 43.9245 138.558 46.8594ZM120.961 59.7972H129.189V62.0733H120.961C120.961 62.0733 119.82 62.0732 119.82 60.9352C119.82 60.9352 119.82 59.7972 120.961 59.7972ZM138.498 60.9352C138.498 62.0732 137.357 62.0733 137.357 62.0733H129.129V59.7972H137.357C138.498 59.7972 138.498 60.9352 138.498 60.9352Z" fill="white"/>
<path d="M62.8249 55.7849C61.0832 55.7849 61.0832 53.3291 62.8249 53.3291H74.0557C75.7974 53.3291 75.7974 55.7849 74.0557 55.7849H62.8249ZM64.6867 59.798H72.1939C73.9356 59.798 73.9356 57.3422 72.1939 57.3422H64.6867C62.945 57.3422 62.945 59.798 64.6867 59.798ZM66.5485 63.811H70.3922C72.0738 63.811 72.0738 61.3553 70.3922 61.3553H66.5485C64.8068 61.3553 64.8068 63.811 66.5485 63.811ZM62.0442 51.7718C62.0442 51.7718 60.3025 50.2743 61.7439 46.8602C61.7439 46.8602 63.0651 48.8368 65.3473 49.1962C65.3473 49.1962 66.3083 45.5425 68.7706 45.0633C68.7706 45.0633 67.8698 47.3394 70.212 49.2561C70.212 49.2561 72.254 46.381 74.8365 46.381C74.8365 46.381 73.3951 47.8186 74.2359 49.1962C74.2359 49.1962 75.0166 50.7535 74.1158 51.7718C74.1158 51.7718 75.7373 51.7718 76.9385 50.7535C76.9385 50.7535 78.6802 49.7353 77.8994 45.9019C77.8994 45.9019 77.479 43.3263 81.5629 42.368C81.5629 42.368 76.8784 40.3914 72.1339 43.6857C72.1339 43.6857 69.8517 40.3315 74.5362 37.6361C74.5362 37.6361 66.7287 36.9772 63.3054 44.4643C63.3054 44.4643 60.4226 43.0268 62.3444 39.4929C62.3444 39.4929 56.9993 41.4695 57.4798 47.7587C57.3597 47.6988 57.4798 51.7718 62.0442 51.7718Z" fill="white"/>
<path d="M104.745 49.9145C104.745 49.9145 103.964 49.4353 104.384 48.5369C104.384 48.5369 104.685 47.5785 104.084 46.7999C104.084 46.7999 103.363 45.9613 102.523 46.5603L102.463 46.6202C102.463 46.6202 102.883 45.542 101.742 45.0629C101.742 45.0629 101.021 44.6436 99.8801 45.4222C99.8801 45.4222 99.1594 46.0212 98.4387 45.3024C98.4387 45.3024 97.5979 44.7035 96.697 45.0629C96.697 45.0629 95.676 45.4821 95.9763 46.5004L96.0364 46.5603C95.9163 46.5004 95.1355 45.9014 94.3548 46.74C94.3548 46.74 93.7542 47.279 94.1145 48.6567C94.1145 48.6567 94.4148 49.4952 93.574 49.9744C93.574 49.9744 92.7332 50.6333 92.7933 51.5317C92.7933 51.5317 92.8533 52.6099 93.9344 52.6698H93.9944C93.9944 52.6698 93.0335 53.3286 93.6341 54.3469C93.6341 54.3469 93.9944 55.0656 95.3758 55.1255C95.3758 55.1255 96.2766 55.0656 96.4568 56.024C96.4568 56.024 96.8171 56.9823 97.718 57.2219C97.718 57.2219 98.799 57.4615 99.1594 56.5032V56.3834C99.1594 56.3834 99.4597 57.5214 100.601 57.2219C100.601 57.2219 101.442 57.162 101.922 55.7844C101.922 55.7844 102.162 54.886 103.123 55.0057C103.123 55.0057 104.144 54.9459 104.685 54.1672C104.685 54.1672 105.285 53.2088 104.444 52.6099H104.384C104.384 52.6099 105.526 52.6698 105.646 51.4718C105.706 51.5916 105.826 50.7531 104.745 49.9145ZM102.463 52.0708C102.463 52.0708 101.862 54.287 99.2195 54.4068C99.2195 54.4068 96.9373 54.4667 95.9763 52.0708C95.9763 52.0708 95.1956 49.9145 97.2375 48.2973C97.2375 48.2973 99.0393 46.8598 101.201 48.2973C101.261 48.2973 103.183 49.5551 102.463 52.0708ZM97.6579 51.0526C97.6579 50.1541 98.3786 49.4353 99.2795 49.4353C100.18 49.4353 100.901 50.1541 100.901 51.0526C100.901 51.951 100.18 52.6698 99.2795 52.6698C98.3786 52.6099 97.6579 51.8911 97.6579 51.0526ZM111.711 49.4353C111.711 49.4353 111.051 47.4587 109.069 47.878C109.069 47.878 110.871 46.9197 110.21 45.0629C110.21 45.0629 109.309 42.5472 106.727 43.1462C106.727 43.1462 105.646 43.266 105.165 42.8467C105.165 42.8467 104.625 42.5472 104.384 41.469C104.384 41.469 104.144 38.8336 101.502 38.7737C101.502 38.7737 99.3996 38.7737 99.1594 40.7503C99.1594 40.7503 98.799 38.7737 96.8772 38.7737C96.8772 38.7737 94.2347 38.8336 93.9944 41.469C93.9944 41.469 93.7542 42.4873 93.2137 42.8467C93.2137 42.8467 92.7332 43.266 91.6522 43.1462C91.6522 43.1462 89.0697 42.5472 88.1688 45.0629C88.1688 45.0629 87.5082 47.0395 89.37 47.878C89.37 47.878 87.328 47.6384 86.7875 49.4353C86.7875 49.4353 86.0067 51.951 88.4691 53.0292C88.4691 53.0292 89.43 53.5682 89.5502 54.1672C89.5502 54.1672 89.7904 54.7662 89.37 55.7245C89.37 55.7245 87.9886 58.0006 90.0907 59.6178C90.0907 59.6178 91.7723 60.8756 93.1536 59.3782C93.1536 59.3782 92.3128 61.235 93.8743 62.3132C93.8743 62.3132 96.0364 63.8106 97.8381 61.834C97.8381 61.834 98.6189 61.1152 99.2795 61.1751C99.2795 61.1751 99.9401 61.1152 100.721 61.834C100.721 61.834 102.463 63.8106 104.685 62.3132C104.685 62.3132 106.366 61.1152 105.405 59.3183C105.405 59.3183 106.907 60.696 108.468 59.5579C108.468 59.5579 110.57 57.9407 109.189 55.6646C109.189 55.6646 108.769 54.7063 109.009 54.1073C109.009 54.1073 109.129 53.5083 110.09 52.9693C110.03 53.0292 112.492 51.951 111.711 49.4353ZM108.288 51.951C108.288 51.951 107.988 53.4484 106.426 53.3885C106.546 53.4484 107.688 54.3469 107.087 55.6047C107.087 55.6047 106.366 57.162 104.505 56.7428C104.505 56.7428 103.363 56.5032 103.063 57.761C103.063 57.761 102.823 59.6777 101.141 59.8574C101.141 59.8574 99.6399 60.0371 99.2195 58.5397C99.2195 58.5996 98.739 60.0371 97.2976 59.8574C97.2976 59.8574 95.616 59.6777 95.3758 57.761C95.3758 57.761 95.2556 56.623 93.9344 56.7428C93.9344 56.7428 92.0726 57.1021 91.3519 55.6047C91.3519 55.6047 90.6912 54.2271 92.0125 53.3885C91.9525 53.3885 90.451 53.3885 90.1507 51.951C90.1507 51.951 89.8504 50.2739 91.5921 49.4952C91.5921 49.4952 92.6732 49.0161 92.1326 47.8181C92.1326 47.8181 91.1717 46.141 92.4329 45.003C92.4329 45.003 93.514 43.9847 94.7752 44.9431C94.7151 44.8233 94.2947 43.4456 95.5559 42.7269C95.5559 42.7269 97.0574 41.8883 98.3186 43.3258C98.3186 43.3258 99.0993 44.1644 100.06 43.3258C100.06 43.3258 101.382 41.8883 102.823 42.7269C102.823 42.7269 104.144 43.4456 103.604 44.9431C103.664 44.8832 104.865 43.9847 105.946 45.003C105.946 45.003 107.207 46.141 106.246 47.8181C106.246 47.8181 105.646 48.8364 106.787 49.4952C106.907 49.4952 108.649 50.2739 108.288 51.951Z" fill="white"/>
<path d="M183.002 42.6672C182.581 40.6307 181.2 40.4511 180.6 40.4511V41.1698C181.2 41.1698 181.38 41.649 181.38 41.8886C181.32 42.6073 180.66 42.6073 180.66 42.6073C180.239 42.6073 179.939 42.248 179.939 41.8886C179.939 41.4693 180.239 41.1698 180.6 41.1099V40.3912C178.798 40.3313 178.858 41.8287 178.858 41.8287C178.437 42.1881 177.537 42.4875 177.537 42.4875C177.236 42.7271 177.236 43.2063 177.236 43.2063C177.236 43.4459 177.236 43.5657 177.236 43.5058C178.858 42.8469 179.278 43.1464 179.278 43.1464L179.579 43.386C179.999 43.9251 180.119 45.123 180.119 45.123C179.819 47.459 177.837 47.459 178.137 50.8132C178.377 56.2039 185.644 57.5816 185.644 57.5816C186.065 58.4201 185.104 60.217 185.104 60.217C184.984 60.5165 184.744 60.5165 183.843 60.3368C183.362 60.2769 183.062 60.1571 183.062 60.1571C181.56 59.6181 182.101 61.2353 182.101 61.2353H187.566C187.987 59.7379 186.966 60.217 186.966 60.217C185.945 60.6962 186.065 60.1571 186.065 60.1571C186.365 58.5399 187.146 57.5217 187.146 57.5217C174.414 49.8549 182.882 47.5788 182.882 47.5788C182.882 47.5788 177.116 50.4538 190.029 57.4618C193.272 59.4384 193.392 59.4983 194.413 60.0373C195.134 60.5165 195.314 60.217 195.314 60.217C195.434 59.9774 195.073 59.6181 195.073 59.6181L192.071 55.9045C196.034 58.4201 197.776 59.7379 197.776 59.7379C199.638 60.5165 202.401 58.0009 198.797 56.5034C183.783 48.4772 183.002 42.6672 183.002 42.6672Z" fill="white"/>
<path d="M168.048 45.9619C168.048 45.9619 165.405 45.2431 163.483 47.9984C163.483 47.9984 161.922 49.975 161.681 54.048H160.06C160.06 54.048 160.18 51.4125 160.841 48.8968C160.841 48.8968 161.261 47.3395 161.742 44.704C161.742 44.704 162.222 42.4279 161.501 40.7508C161.501 40.7508 160.6 38.1154 158.919 38.2352C157.237 38.1154 156.336 40.7508 156.336 40.7508C155.616 42.4878 156.096 44.704 156.096 44.704C156.577 47.3395 156.997 48.8968 156.997 48.8968C157.718 51.4125 157.838 54.048 157.838 54.048H156.216C155.976 49.9151 154.414 47.9984 154.414 47.9984C152.493 45.2431 149.85 45.9619 149.85 45.9619C146.547 46.7405 146.607 49.975 146.607 49.975C146.547 52.85 148.289 53.8084 148.289 53.8084C149.79 54.7667 151.412 54.4672 151.412 54.4672C150.871 53.9282 150.571 53.449 150.571 53.449C149.97 52.1313 151.111 51.4724 151.111 51.4724C152.252 50.8734 153.213 51.8917 153.213 51.8917C154.114 52.7901 154.354 54.048 154.354 54.048H153.153C152.072 54.048 152.072 55.3058 152.072 55.3058C152.072 56.5636 153.153 56.5636 153.153 56.5636H154.354C154.234 57.8215 153.033 57.7616 153.033 57.7616C151.832 57.7616 151.051 56.2042 151.051 56.2042C150.21 57.1027 150.511 58.2407 150.511 58.3006C150.931 60.397 153.033 60.3371 153.033 60.3371C156.096 60.3371 156.216 56.6834 156.216 56.6834H157.778C157.417 60.8163 155.496 61.5351 155.496 61.5351C156.336 63.6315 158.859 63.5117 158.859 63.5117C158.859 63.5117 161.381 63.6315 162.222 61.5351C162.222 61.5351 160.24 60.8163 159.94 56.6834H161.501C161.501 56.6834 161.621 60.397 164.684 60.3371C164.684 60.3371 166.786 60.397 167.207 58.3006C167.207 58.3006 167.507 57.1626 166.666 56.2042C166.666 56.2042 165.886 57.7616 164.744 57.7616C164.744 57.7616 163.543 57.8814 163.423 56.5636H164.624C164.624 56.5636 165.705 56.5636 165.705 55.3058C165.705 55.3058 165.705 54.048 164.624 54.048H163.423C163.423 54.048 163.663 52.7302 164.564 51.8917C164.564 51.8917 165.525 50.8734 166.666 51.4724C166.666 51.4724 167.807 52.0714 167.207 53.449C167.207 53.449 166.907 53.9282 166.366 54.4672C166.366 54.4672 167.988 54.7667 169.489 53.8084C169.489 53.8084 171.231 52.85 171.171 49.975C171.291 49.975 171.411 46.7405 168.048 45.9619Z" fill="white"/>
<path d="M59.7016 91.4235V79.0847C59.7016 78.5456 59.1611 77.8868 58.5605 77.8868H57.1191V75.5508H66.9086V77.8868H63.7856V91.6032C63.7856 96.5746 66.2479 97.8324 69.8514 97.8324C73.3948 97.8324 75.8572 96.6345 75.8572 91.6032V77.8868H72.7342V75.5508H81.5026V77.8868H80.0612C79.5207 77.8868 78.9802 78.5456 78.9802 79.0847V91.4235C78.9802 97.7725 75.737 100.707 69.431 100.707C63.3651 100.707 59.7016 97.7725 59.7016 91.4235Z" fill="white"/>
<path d="M82.6445 98.1918H84.146C84.6865 98.1918 85.227 97.533 85.227 97.0538V79.0847C85.227 78.5456 84.6264 77.8868 84.146 77.8868H82.6445V75.5508H89.6112L101.082 93.7594H101.202V77.8868H98.0794V75.5508H106.908V77.8868H105.466C104.926 77.8868 104.385 78.5456 104.385 79.0847V100.468H100.842L88.5302 81.1212H88.4101V98.1918H91.5931V100.468H82.6445V98.1918Z" fill="white"/>
<path d="M107.988 98.1918H109.79C110.391 98.1918 110.871 97.533 110.871 97.0538V79.0847C110.871 78.5456 110.331 77.8868 109.79 77.8868H107.988V75.5508H117.898V77.8868H116.096C115.495 77.8868 115.015 78.5456 115.015 79.0847V97.0538C115.015 97.533 115.556 98.1918 116.096 98.1918H117.898V100.468H107.988V98.1918Z" fill="white"/>
<path d="M121.323 79.0843C121.083 78.4853 120.482 77.8864 119.882 77.8864H119.041V75.5504H128.59V77.8864H125.467L131.773 96.3346H131.833L137.539 80.1624C138.079 78.665 137.719 77.8265 136.338 77.8265H134.776V75.4905H143.485V77.8265H142.704C141.983 77.8265 141.382 78.3655 141.142 79.0843L133.335 100.408H128.89L121.323 79.0843Z" fill="white"/>
<path d="M144.625 98.1918H146.126C146.667 98.1918 147.207 97.533 147.207 97.0538V79.0847C147.207 78.5456 146.607 77.8868 146.126 77.8868H144.625V75.5508H163.904V82.1993H161.321L160.901 78.1263H151.291V86.5718H156.156L156.456 83.6369H158.979V92.0224H156.456L156.156 89.0875H151.291V98.072H161.201L161.621 93.5199H164.324V100.468H144.625V98.1918Z" fill="white"/>
<path d="M175.252 87.1109C179.095 87.1109 180.537 85.6734 180.537 82.6785C180.537 79.504 178.975 78.0665 175.252 78.0665H171.889V87.1708H175.252V87.1109ZM165.162 98.1918H166.664C167.204 98.1918 167.745 97.533 167.745 97.0538V79.0847C167.745 78.5456 167.144 77.8868 166.664 77.8868H165.162V75.5508H175.372C181.077 75.5508 184.801 77.5274 184.801 82.4389C184.801 85.9728 182.579 87.65 179.216 88.2489V88.3687C181.738 88.9078 183.179 89.926 184.26 93.9391L185.161 97.2335C185.342 97.8923 185.822 98.1918 186.182 98.1918H187.383V100.468H181.558L180.177 93.7594C179.516 90.525 178.255 89.5667 175.012 89.5667H171.889V98.1918H175.072V100.468H165.162V98.1918Z" fill="white"/>
<path d="M191.89 99.5689C191.649 99.5689 191.409 99.9882 191.349 100.467H188.646V93.2198H191.469L191.83 96.2147C193.091 97.4126 194.352 98.0715 197.055 98.0715C199.937 98.0715 201.799 96.7537 201.799 93.9985C201.799 90.6442 199.277 90.225 195.673 89.2067C191.289 88.0088 189.127 86.152 189.127 81.9592C189.127 77.4669 192.43 75.2507 197.055 75.2507C199.577 75.2507 200.838 75.9096 201.559 76.269C201.799 76.269 202.039 75.8497 202.099 75.4903H204.682V82.079H201.919L201.559 79.5633C200.658 78.7248 199.457 77.8263 197.055 77.8263C194.472 77.8263 192.67 78.8445 192.67 81.5399C192.67 84.4749 194.953 84.954 198.376 85.8525C203.18 87.1103 205.583 88.6676 205.583 93.2797C205.583 98.0715 202.64 100.587 197.175 100.587C194.292 100.707 192.851 100.108 191.89 99.5689Z" fill="white"/>
<path d="M206.846 98.1918H208.647C209.188 98.1918 209.728 97.533 209.728 97.0538V79.0847C209.728 78.5456 209.188 77.8868 208.647 77.8868H206.846V75.5508H216.755V77.8868H214.953C214.353 77.8868 213.872 78.5456 213.872 79.0847V97.0538C213.872 97.533 214.413 98.1918 214.953 98.1918H216.755V100.468H206.846V98.1918Z" fill="white"/>
<path d="M223.779 98.1918H225.52C226.121 98.1918 226.601 97.533 226.601 97.0538V78.0066H221.256L220.896 83.2775H218.193V75.5508H239.093V83.2775H236.391L236.031 78.0066H230.685V97.0538C230.685 97.533 231.226 98.1918 231.766 98.1918H233.508V100.468H223.719V98.1918H223.779Z" fill="white"/>
<path d="M246.963 98.1918H248.705C249.245 98.1918 249.786 97.533 249.786 97.0538V90.1656L242.819 78.9649C242.399 78.3659 241.918 77.8868 241.258 77.8868H240.537V75.5508H249.786V77.8868H246.843L252.429 87.051H252.489L256.633 80.2227C257.533 78.7253 256.933 77.8868 255.491 77.8868H254.35V75.5508H262.939V77.8868H262.278C261.617 77.8868 261.077 78.3659 260.656 79.0248L253.93 89.9859V97.0538C253.93 97.533 254.471 98.1918 255.011 98.1918H256.753V100.468H246.963V98.1918Z" fill="white"/>
<path d="M77.1779 120.293C77.1779 113.644 73.9348 110.35 69.5506 110.35C65.1063 110.35 61.8632 113.704 61.8632 120.293C61.8632 126.882 65.1063 130.236 69.5506 130.236C73.9348 130.176 77.1779 126.882 77.1779 120.293ZM57.5391 120.173C57.5391 111.967 63.0644 107.475 69.5506 107.475C76.0369 107.475 81.5021 111.967 81.5021 120.173C81.5021 128.379 75.9768 132.871 69.5506 132.871C63.0644 132.931 57.5391 128.439 57.5391 120.173Z" fill="white"/>
<path d="M81.9238 130.356H83.4253C83.9658 130.356 84.5063 129.697 84.5063 129.218V111.249C84.5063 110.71 83.9057 110.051 83.4253 110.051H81.9238V107.715H101.022V114.543H98.4397L97.9592 110.231H88.7104V119.215H93.4549L93.7552 116.161H96.2176V124.786H93.7552L93.4549 121.611H88.7104V130.236H91.8934V132.512H81.9238V130.356Z" fill="white"/>
<path d="M109.672 130.356H111.173C111.714 130.356 112.254 129.697 112.254 129.218V111.249C112.254 110.71 111.654 110.051 111.173 110.051H109.672V107.715H119.581V110.051H116.458V118.616H127.689V110.051H124.506V107.715H134.476V110.051H132.974C132.434 110.051 131.833 110.71 131.833 111.249V129.218C131.833 129.697 132.434 130.356 132.974 130.356H134.476V132.632H124.506V130.356H127.689V121.072H116.458V130.356H119.641V132.632H109.672V130.356Z" fill="white"/>
<path d="M138.198 123.588V111.249C138.198 110.71 137.657 110.051 137.057 110.051H135.615V107.715H145.405V110.051H142.282V123.827C142.282 128.799 144.744 130.057 148.347 130.057C151.891 130.057 154.353 128.859 154.353 123.827V110.111H151.23V107.775H159.999V110.111H158.557C158.017 110.111 157.476 110.77 157.476 111.309V123.648C157.476 129.997 154.233 132.932 147.927 132.932C141.801 132.932 138.198 129.937 138.198 123.588Z" fill="white"/>
<path d="M161.139 130.356H162.64C163.181 130.356 163.721 129.697 163.721 129.218V111.249C163.721 110.71 163.121 110.051 162.64 110.051H161.139V107.715H171.469V110.051H167.865V130.117H176.994L177.414 124.906H180.237V132.632H161.199V130.356H161.139Z" fill="white"/>
<path d="M181.262 130.356H182.763C183.304 130.356 183.844 129.697 183.844 129.218V111.249C183.844 110.71 183.244 110.051 182.763 110.051H181.262V107.715H191.592V110.051H187.988V130.117H197.117L197.537 124.906H200.36V132.632H181.322V130.356H181.262Z" fill="white"/>
</g>
<defs>
<clipPath id="clip0_3412_3520">
<rect width="205.998" height="113.025" fill="white" transform="translate(57 30.9873)"/>
</clipPath>
</defs>
</svg>
