<svg xmlns="http://www.w3.org/2000/svg" version="1.0" width="780.000000pt" height="520.000000pt" viewBox="0 0 780.000000 520.000000" preserveAspectRatio="xMidYMid meet">
<g transform="translate(0.000000,520.000000) scale(0.100000,-0.100000)" fill="#0000cd" stroke="none">
<path d="M476 2958 c-3 -13 -4 -41 -3 -63 l2 -40 85 -5 85 -5 3 -242 2 -242 -87 -3 -88 -3 2 -55 c0 -30 1 -58 2 -62 1 -5 111 -8 246 -8 l245 0 0 65 0 65 -90 0 -90 0 2 243 3 242 88 0 87 0 0 68 0 67 -245 0 -245 0 -4 -22z"/>
<path d="M1340 2605 l0 -375 70 0 70 0 0 273 0 272 83 -190 83 -190 76 -3 76 -3 44 103 c25 57 63 143 84 192 l39 90 3 -272 2 -272 70 0 70 0 -2 373 -3 372 -100 3 -101 3 -89 -220 c-49 -121 -90 -219 -92 -217 -2 2 -43 100 -91 217 l-88 214 -102 3 -102 3 0 -376z"/>
<path d="M2470 2606 l0 -376 70 0 70 0 0 124 0 123 108 5 c126 5 179 25 236 88 83 92 74 256 -19 338 -63 55 -98 64 -292 69 l-173 5 0 -376z m288 243 c72 -15 97 -45 97 -119 0 -48 -4 -63 -24 -84 -30 -32 -78 -46 -158 -46 l-63 0 0 123 c0 68 3 127 7 130 10 10 86 8 141 -4z"/>
<path d="M3310 2605 l0 -375 245 0 245 0 0 65 0 65 -175 0 -175 0 0 90 0 89 158 3 157 3 3 62 3 62 -158 3 -158 3 0 85 0 85 173 3 172 2 0 65 0 65 -245 0 -245 0 0 -375z"/>
<path d="M4158 2974 c-5 -4 -8 -173 -8 -376 l0 -368 75 0 75 0 0 135 0 135 69 0 70 0 68 -132 68 -133 73 -5 c41 -3 76 -2 79 3 2 4 -30 74 -72 154 -56 106 -73 148 -64 152 31 9 97 88 108 126 35 125 -13 241 -119 289 -39 17 -70 21 -230 24 -102 2 -188 0 -192 -4z m345 -135 c75 -35 75 -168 0 -197 -15 -6 -67 -14 -115 -18 l-88 -6 0 122 0 123 88 -5 c48 -3 100 -12 115 -19z"/>
<path d="M5040 2913 l0 -68 85 3 85 3 0 -245 0 -246 -85 0 -85 0 0 -65 0 -65 245 0 245 0 0 65 0 65 -85 0 -85 0 0 245 0 245 85 0 85 0 0 65 0 65 -245 0 -245 0 0 -67z"/>
<path d="M6059 2953 c-17 -44 -238 -717 -236 -719 5 -5 36 -6 89 -5 l57 1 24 78 24 77 141 3 141 3 24 -78 25 -78 76 -3 c42 -2 76 -2 76 0 -1 2 -56 170 -123 373 l-123 370 -92 3 -92 3 -11 -28z m150 -271 c25 -81 47 -153 49 -159 3 -10 -21 -13 -98 -13 -93 0 -102 2 -98 18 21 76 94 302 98 302 3 0 25 -67 49 -148z"/>
<path d="M6827 2974 c-4 -4 -7 -173 -7 -376 l0 -368 245 0 245 0 0 65 0 65 -170 0 -170 0 -2 308 -3 307 -65 3 c-36 2 -69 0 -73 -4z"/>
</g>
</svg>
