<svg xmlns="http://www.w3.org/2000/svg" width="79" height="80" viewBox="0 0 79 80" fill="none">
<g id="InteracLogo 1" clip-path="url(#clip0_2308_6924)">
<g id="Clip path group">
<mask id="mask0_2308_6924" style="mask-type:luminance" maskUnits="userSpaceOnUse" x="-1" y="0" width="80" height="80">
<g id="a">
<path id="Vector" d="M78.9996 0H-0.000427246V80H78.9996V0Z" fill="white"/>
</g>
</mask>
<g mask="url(#mask0_2308_6924)">
<g id="Group">
<path id="Vector_2" d="M7.70466 1.36301H71.2946C72.9813 1.36301 74.5989 2.0415 75.7915 3.24923C76.9842 4.45696 77.6542 6.09499 77.6542 7.80298V72.1977C77.6542 73.9055 76.9842 75.5434 75.7916 76.7511C74.5991 77.9587 72.9816 78.6372 71.2951 78.6372H7.70374C6.01744 78.6372 4.4002 77.9588 3.2078 76.7514C2.0154 75.5439 1.34552 73.9062 1.34552 72.1986V7.80253C1.34552 6.95687 1.51 6.11951 1.82958 5.33823C2.14916 4.55695 2.61757 3.84706 3.20807 3.2491C3.79857 2.65113 4.4996 2.1768 5.27112 1.85318C6.04265 1.52957 6.86957 1.36301 7.70466 1.36301Z" fill="#FDB913"/>
<path id="Vector_3" d="M71.2959 1.36291C72.9823 1.36343 74.5994 2.04214 75.7917 3.24979C76.9841 4.45745 77.654 6.09518 77.6541 7.80288V72.1976C77.654 73.9052 76.9841 75.543 75.7918 76.7506C74.5994 77.9582 72.9822 78.6367 71.2959 78.6371H7.70502C6.86988 78.6373 6.04287 78.4708 5.27126 78.1473C4.49965 77.8238 3.79854 77.3494 3.20801 76.7514C2.61747 76.1534 2.14906 75.4435 1.82956 74.6621C1.51005 73.8807 1.3457 73.0433 1.34589 72.1976V7.80288C1.34573 6.95717 1.5101 6.1197 1.82961 5.33832C2.14912 4.55694 2.61752 3.84696 3.20804 3.24892C3.79857 2.65089 4.49966 2.17652 5.27126 1.85292C6.04286 1.52931 6.86986 1.3628 7.70502 1.36291H71.2959ZM71.2959 0H7.70502C5.66212 0.00224084 3.70354 0.825063 2.25903 2.28791C0.814525 3.75077 0.00209148 5.73416 0 7.80288V72.1976C0.00226055 74.2662 0.814764 76.2494 2.25925 77.7122C3.70373 79.1749 5.66222 79.9977 7.70503 80H71.2959C73.3386 79.9976 75.2969 79.1748 76.7412 77.712C78.1855 76.2493 78.9979 74.2661 79 72.1976V7.80288C78.998 5.73428 78.1858 3.75095 76.7414 2.28809C75.2971 0.825239 73.3387 0.00235283 71.2959 0Z" fill="white"/>
<path id="Vector_4" d="M43.9529 40.8342L43.9466 26.999L47.5128 26.142V27.9557C47.5128 27.9557 48.4367 25.5705 50.5804 25.0168C50.9006 24.9124 51.2412 24.8892 51.5723 24.9494V28.4794C50.9302 28.4879 50.2958 28.6216 49.7037 28.8733C48.3859 29.4003 47.7227 30.5502 47.7227 32.3056L47.725 39.9451L43.9529 40.8342Z" fill="#231F20"/>
<path id="Vector_5" d="M25.1531 45.3332C25.1531 45.3332 24.5733 44.4527 24.5733 41.3399V34.451L22.7383 34.8931V32.0552L24.5774 31.6155V28.5219L28.3694 27.6149V30.7084L31.0489 30.0639V32.8985L28.3694 33.5425C28.3694 33.5425 28.3653 39.1865 28.3694 40.5572C28.3694 43.7467 29.2053 44.3591 29.2053 44.3591L25.1531 45.3332Z" fill="#231F20"/>
<path id="Vector_6" d="M31.4453 37.1025C31.4453 34.6429 31.7912 32.8485 32.5337 31.4713C33.4172 29.8371 34.866 28.7721 36.9767 28.2855C41.1368 27.3275 42.6382 29.821 42.5801 33.1647C42.5579 34.3606 42.5634 34.9431 42.5634 34.9431L35.2341 36.6875V36.8073C35.2341 39.1434 35.7178 40.252 37.1798 39.938C38.4427 39.6681 38.794 38.867 38.8938 37.8764C38.9101 37.7167 38.9178 37.3104 38.9178 37.3104L42.3512 36.4772C42.3512 36.4772 42.3594 36.7618 42.3544 37.0813C42.3245 38.4089 41.9432 41.7021 37.1712 42.8447C32.6507 43.9312 31.4453 41.1356 31.4453 37.1025ZM37.129 30.8626C35.9146 31.1417 35.2777 32.3481 35.25 34.3468L38.9368 33.4576C38.9432 33.3672 38.9441 33.168 38.9432 32.8558C38.9368 31.3469 38.4763 30.5505 37.129 30.8626Z" fill="#231F20"/>
<path id="Vector_7" d="M64.4069 29.0118C64.265 24.7982 65.3444 21.454 69.9868 20.389C72.9456 19.7083 74.0694 20.4877 74.6383 21.241C75.1854 21.9599 75.3967 22.9294 75.3967 24.2873L75.3998 24.5365L71.7679 25.4106C71.7679 25.4106 71.7651 24.9148 71.7651 24.8987C71.7679 23.2884 71.3259 22.676 70.1708 22.9689C68.7973 23.3182 68.2424 24.6384 68.2424 27.2633C68.2424 28.1951 68.2465 28.3622 68.2465 28.488C68.2465 31.1555 68.6064 32.3766 70.1894 32.041C71.5625 31.7537 71.7506 30.5326 71.7728 29.4621C71.7756 29.2941 71.7824 28.7561 71.7824 28.7561L75.4089 27.8885C75.4089 27.8885 75.4125 28.1598 75.4125 28.4614C75.4035 31.9593 73.5829 34.1637 70.1722 34.9675C65.4731 36.0829 64.5529 33.3333 64.4069 29.0118Z" fill="#231F20"/>
<path id="Vector_8" d="M51.8516 34.911C51.8516 31.7059 53.7057 30.6924 56.4963 29.5232C59.0059 28.4719 59.0603 27.95 59.0707 27.0365C59.0848 26.2676 58.7325 25.6098 57.4832 25.9325C57.0666 26.0175 56.6905 26.2425 56.416 26.571C56.1415 26.8996 55.9847 27.3124 55.9709 27.7425C55.9505 27.9786 55.9426 28.2157 55.9473 28.4527L52.4287 29.2941C52.405 28.584 52.487 27.8743 52.6717 27.1889C53.2342 25.2724 54.9034 23.9829 57.7846 23.3077C61.5281 22.4341 62.7761 24.0977 62.7806 26.6853V32.8132C62.7806 35.7768 63.3237 36.211 63.3237 36.211L59.8694 37.0387C59.6789 36.6345 59.524 36.2141 59.4066 35.7823C59.4066 35.7823 58.65 37.7121 56.0416 38.3327C53.3022 38.9869 51.8516 37.2677 51.8516 34.911ZM59.0467 30.5344C58.4645 30.9478 57.8498 31.3123 57.2089 31.6242C56.0575 32.1939 55.5371 32.8967 55.5371 33.9791C55.5371 34.9165 56.1105 35.5321 57.1527 35.2713C58.2706 34.9858 59.0467 33.9296 59.0467 32.462V30.5344Z" fill="#231F20"/>
<path id="Vector_9" d="M5.32584 55.0317C4.9316 55.0312 4.54478 54.923 4.20611 54.7187C3.86744 54.5143 3.58945 54.2212 3.4014 53.8704C3.21334 53.5195 3.12219 53.1237 3.13752 52.7248C3.15286 52.3259 3.27413 51.9385 3.48855 51.6035L3.51303 51.5714L3.55428 51.5604L8.71212 50.3274V54.294L8.63188 54.3128C7.46187 54.5979 6.06339 54.9224 5.77553 54.9844C5.62769 55.0161 5.47696 55.0319 5.32584 55.0317Z" fill="#231F20"/>
<path id="Vector_10" d="M5.32585 60.1059C4.74546 60.1061 4.18876 59.8729 3.77811 59.4575C3.36745 59.0422 3.13645 58.4788 3.13587 57.891C3.13469 57.4628 3.25729 57.0436 3.48855 56.6851L3.51303 56.6479L3.55428 56.6374L8.71212 55.4048V59.3715L8.63189 59.3926C7.46188 59.6767 6.06339 60.005 5.77554 60.0633C5.62737 60.0923 5.47676 60.1066 5.32585 60.1059Z" fill="#231F20"/>
<path id="Vector_11" d="M5.32585 65.19C4.7453 65.1896 4.18861 64.956 3.77801 64.5404C3.36741 64.1248 3.13647 63.5611 3.13588 62.9732C3.13424 62.545 3.25688 62.1256 3.48856 61.7673L3.51304 61.7274L8.71213 60.4866V64.4532L8.6319 64.4743C7.39615 64.7755 6.02396 65.0895 5.77555 65.145C5.62748 65.175 5.47685 65.1901 5.32585 65.19Z" fill="#231F20"/>
<path id="Vector_12" d="M4.71724 50.1711L4.71588 27.9766L8.71187 27.0204V49.2144L4.71724 50.1711Z" fill="#231F20"/>
<path id="Vector_13" d="M14.6703 48.2829C14.6703 47.6208 14.4105 46.9858 13.9482 46.5176C13.4859 46.0494 12.8588 45.7864 12.2049 45.7864C11.5511 45.7864 10.924 46.0494 10.4617 46.5176C9.99931 46.9858 9.73956 47.6208 9.73956 48.2829L9.74364 69.0268C9.74584 70.8182 10.4492 72.5356 11.6997 73.8027C12.9501 75.0698 14.6457 75.7833 16.4147 75.7867C18.281 75.7867 23.3935 75.7775 23.3935 75.7775L23.3957 67.1236C23.3971 62.3954 23.398 57.5827 23.398 57.473C23.3986 56.935 23.2681 56.4052 23.018 55.9306C22.7678 55.456 22.4059 55.0512 21.9642 54.7523L15.7442 50.4744C15.7442 50.4744 15.7428 59.7618 15.7428 60.1887C15.7428 60.3312 15.687 60.4678 15.5875 60.5685C15.488 60.6692 15.3531 60.7258 15.2125 60.7258C15.0718 60.7258 14.9369 60.6692 14.8374 60.5685C14.738 60.4678 14.6821 60.3312 14.6821 60.1887C14.6821 60.0845 14.6703 49.5659 14.6703 48.2829Z" fill="#231F20"/>
<path id="Vector_14" d="M17.9999 32.8059C17.2441 32.9836 16.5351 33.3243 15.9212 33.8049C15.3074 34.2854 14.8032 34.8945 14.4432 35.5905V34.0307L10.8452 34.8928L10.8493 44.8541C11.4804 44.6014 12.1683 44.5302 12.8369 44.6486C13.5054 44.7669 14.1286 45.0702 14.6377 45.5248V39.0931C14.6377 37.5525 15.3947 36.3218 16.4763 36.0803C17.29 35.8995 17.9695 36.1942 17.9695 37.6617L17.9723 47.0456L21.762 46.1459V36.219C21.762 33.8122 20.8467 32.1298 17.9999 32.8059Z" fill="#231F20"/>
<path id="Vector_15" d="M73.0624 18.601C72.599 18.6014 72.1458 18.4626 71.7603 18.2022C71.3748 17.9417 71.0742 17.5713 70.8966 17.1378C70.719 16.7044 70.6724 16.2273 70.7627 15.767C70.8529 15.3066 71.076 14.8838 71.4036 14.5519C71.7313 14.22 72.1488 13.9939 72.6033 13.9024C73.0578 13.8108 73.529 13.8578 73.9571 14.0375C74.3853 14.2171 74.7511 14.5213 75.0085 14.9116C75.2658 15.3019 75.4031 15.7607 75.4029 16.23C75.4023 16.8585 75.1555 17.4611 74.7168 17.9056C74.278 18.3501 73.683 18.6002 73.0624 18.601ZM73.0624 14.1552C72.6572 14.1551 72.2611 14.2766 71.9242 14.5045C71.5873 14.7324 71.3246 15.0563 71.1695 15.4353C71.0144 15.8143 70.9737 16.2314 71.0527 16.6338C71.1316 17.0363 71.3267 17.4059 71.6131 17.6961C71.8995 17.9863 72.2645 18.1839 72.6619 18.2641C73.0592 18.3442 73.4711 18.3032 73.8455 18.1463C74.2198 17.9894 74.5398 17.7236 74.765 17.3825C74.9902 17.0414 75.1104 16.6403 75.1105 16.23C75.11 15.68 74.8942 15.1527 74.5102 14.7637C74.1262 14.3747 73.6055 14.1558 73.0624 14.1552Z" fill="#231F20"/>
<path id="Vector_16" d="M72.2094 14.8165H73.219C73.3176 14.8058 73.4174 14.8177 73.5109 14.8515C73.6044 14.8852 73.6892 14.9399 73.7589 15.0114C73.8287 15.0829 73.8816 15.1694 73.9138 15.2645C73.9459 15.3596 73.9565 15.4608 73.9447 15.5606C73.9447 15.9361 73.7802 16.2248 73.4683 16.274V16.2795C73.7521 16.3089 73.9012 16.4672 73.9157 16.8744C73.9211 17.058 73.9239 17.2857 73.9325 17.4629C73.9326 17.5127 73.9451 17.5618 73.9687 17.6055C73.9924 17.6492 74.0266 17.6862 74.068 17.7131H73.5521C73.5029 17.6365 73.4762 17.5474 73.4751 17.456C73.4592 17.2829 73.4633 17.1195 73.4556 16.9093C73.4479 16.5935 73.3522 16.4553 73.039 16.4553H72.6655V17.7131H72.2094V14.8165ZM73.0308 16.1064C73.0928 16.1122 73.1553 16.1039 73.2138 16.0822C73.2722 16.0606 73.3252 16.026 73.3689 15.9811C73.4126 15.9362 73.4459 15.882 73.4663 15.8224C73.4868 15.7629 73.494 15.6995 73.4873 15.6368C73.4873 15.3279 73.3554 15.1654 73.0549 15.1654H72.6655V16.1064H73.0308Z" fill="#231F20"/>
</g>
</g>
</g>
</g>
<defs>
<clipPath id="clip0_2308_6924">
<rect width="79" height="80" fill="white"/>
</clipPath>
</defs>
</svg>
