<svg width="320" height="175" viewBox="0 0 320 175" fill="none" xmlns="http://www.w3.org/2000/svg">
<rect x="0.818824" y="0.818824" width="318.362" height="173.362" rx="2.45647" fill="white"/>
<rect x="0.818824" y="0.818824" width="318.362" height="173.362" rx="2.45647" stroke="#E0E0E0" stroke-width="1.63765"/>
<g clip-path="url(#clip0_3455_1929)">
<path d="M243 24H77V151H243V24Z" fill="#E2231A"/>
<path d="M157.81 76.4524C157.909 76.4607 158.007 76.4342 158.087 76.3773C158.168 76.3205 158.226 76.237 158.252 76.1413L159.762 71.182C159.898 70.7836 159.762 70.5599 159.498 70.5599C159.362 70.5599 159.275 70.6018 159.097 70.8709C158.83 71.2204 158.475 71.7622 158.21 71.7622C158.134 71.767 158.058 71.7533 157.989 71.7223C157.919 71.6913 157.858 71.6438 157.81 71.5839C157.275 70.9826 156.613 70.5076 155.874 70.1928C155.134 69.878 154.334 69.7313 153.532 69.763C146.964 69.763 141.234 76.753 141.234 83.2781C141.234 87.0247 143.499 89.1671 146.8 89.1671C148.174 89.1671 149.416 88.898 151.323 88.0941C151.715 87.9086 152.136 87.7905 152.568 87.7446C153.01 87.7446 153.055 88.3248 153.1 89.0832C153.093 89.1286 153.095 89.175 153.106 89.2196C153.117 89.2643 153.137 89.3063 153.164 89.3433C153.191 89.3803 153.225 89.4116 153.265 89.4353C153.304 89.4591 153.347 89.4748 153.392 89.4816H153.448C153.536 89.4922 153.625 89.4766 153.704 89.4369C153.783 89.3971 153.849 89.3349 153.893 89.2579L155.754 83.8163C155.932 83.3724 155.713 83.1487 155.445 83.1487C155.177 83.1487 155.003 83.2816 154.78 83.638C153.358 86.0461 149.91 87.9194 147.099 87.9194C144.925 87.9194 143.948 86.2697 143.948 83.9072C143.948 78.2418 149.051 70.9758 153.403 70.9758C155.667 70.9758 157.4 72.3738 157.4 75.2571C157.4 75.4808 157.355 75.7918 157.355 76.0155C157.348 76.1262 157.385 76.2351 157.458 76.3183C157.531 76.4015 157.634 76.4522 157.744 76.4594H157.8L157.81 76.4524Z" fill="white"/>
<path d="M166.688 74.6245C162.472 74.6245 158.92 79.7097 158.92 84.8403C158.92 87.1155 160.075 88.9888 162.249 88.9888C166.51 88.9888 170.062 83.4563 170.062 78.773C170.062 76.4978 168.907 74.6245 166.688 74.6245ZM166.824 75.7394C167.843 75.7394 168.288 76.5432 168.288 77.7036C168.288 81.1985 164.736 87.783 162.162 87.783C161.139 87.783 160.694 87.0841 160.694 85.9097C160.694 82.1177 164.246 75.7394 166.824 75.7394Z" fill="white"/>
<path d="M177.534 71.182C177.52 71.3384 177.475 71.4905 177.402 71.6293C175.137 76.8928 172.963 81.8416 170.792 87.1085C170.622 87.4727 170.517 87.8644 170.482 88.2654C170.491 88.4838 170.584 88.6904 170.742 88.8407C170.9 88.991 171.11 89.073 171.328 89.0692C171.69 89.0714 172.05 89.0112 172.392 88.891C173.727 88.4339 174.911 87.6151 175.812 86.5249C175.866 86.4737 175.91 86.4121 175.941 86.3436C175.971 86.2752 175.988 86.2014 175.989 86.1264C175.989 85.9028 175.899 85.777 175.721 85.777C175.607 85.7885 175.499 85.8348 175.412 85.9098C174.783 86.4365 174.114 86.9133 173.411 87.3357C173.304 87.4014 173.187 87.4475 173.064 87.472C173.033 87.476 173.002 87.4676 172.977 87.4486C172.952 87.4296 172.936 87.4016 172.931 87.3707C172.928 87.3593 172.928 87.3471 172.931 87.3357C172.942 87.215 172.973 87.0969 173.022 86.9862L180.035 70.7067C180.14 70.498 180.201 70.2693 180.212 70.0356C180.212 69.8609 180.08 69.77 179.864 69.77C179.517 69.77 178.845 69.8155 178.309 69.8609C177.868 69.9028 176.845 69.9483 176.181 70.0356C175.913 70.0811 175.735 70.2593 175.735 70.4376C175.735 70.5302 175.772 70.6191 175.837 70.6847C175.902 70.7502 175.991 70.787 176.083 70.787H176.142C176.56 70.8185 176.975 70.8781 177.384 70.9653C177.434 70.9758 177.48 71.0034 177.512 71.0436C177.544 71.0837 177.562 71.1338 177.562 71.1855L177.534 71.182Z" fill="white"/>
<path d="M184.801 71.1819C184.787 71.3383 184.742 71.4904 184.669 71.6292C182.405 76.8927 180.23 81.8415 178.06 87.1084C177.889 87.4726 177.784 87.8643 177.75 88.2653C177.76 88.4832 177.854 88.6887 178.011 88.8386C178.169 88.9885 178.378 89.0712 178.595 89.0691C178.958 89.0714 179.318 89.0111 179.66 88.8909C180.996 88.4351 182.179 87.6161 183.079 86.5248C183.134 86.4736 183.178 86.412 183.208 86.3436C183.239 86.2751 183.255 86.2013 183.257 86.1264C183.257 85.9027 183.166 85.7769 182.989 85.7769C182.875 85.7884 182.767 85.8347 182.679 85.9097C182.052 86.4372 181.385 86.914 180.683 87.3356C180.574 87.3983 180.457 87.4443 180.335 87.4719C180.304 87.4759 180.273 87.4675 180.248 87.4485C180.223 87.4295 180.207 87.4015 180.202 87.3706C180.199 87.3592 180.199 87.347 180.202 87.3356C180.213 87.2149 180.244 87.0968 180.293 86.9861L187.275 70.6996C187.38 70.4909 187.44 70.2623 187.452 70.0286C187.452 69.8538 187.32 69.7629 187.104 69.7629C186.756 69.7629 186.085 69.8084 185.553 69.8538C185.107 69.8957 184.085 69.9412 183.42 70.0286C183.152 70.074 182.975 70.2522 182.975 70.4305C182.975 70.5232 183.012 70.6121 183.077 70.6776C183.142 70.7432 183.231 70.78 183.323 70.78H183.379C183.796 70.8114 184.211 70.871 184.62 70.9582C184.671 70.9674 184.717 70.9947 184.75 71.0351C184.782 71.0756 184.799 71.1264 184.798 71.1784L184.801 71.1819Z" fill="white"/>
<path d="M194.303 85.9971C194.408 85.8722 194.472 85.7167 194.484 85.5532C194.484 85.5003 194.474 85.4478 194.454 85.3989C194.434 85.3499 194.405 85.3054 194.367 85.268C194.33 85.2306 194.286 85.201 194.237 85.1809C194.188 85.1609 194.136 85.1508 194.084 85.1513C193.95 85.1656 193.826 85.2291 193.736 85.3295C192.849 86.2662 191.558 87.472 190.006 87.472C188.852 87.472 188.184 86.6227 188.184 85.2422C188.224 84.3282 188.452 83.4324 188.852 82.6105C190.153 82.3773 191.441 82.0786 192.713 81.7158C195.955 80.6917 197.642 79.0386 197.642 76.9871C197.642 75.5891 196.665 74.981 195.291 74.981C191.294 74.981 185.832 80.5135 185.832 85.8643C185.832 87.6956 187.029 88.9888 188.852 88.9888C191.335 88.9888 192.936 87.7376 194.31 85.9971H194.303ZM192.529 80.6917C191.498 81.0489 190.439 81.3166 189.363 81.4921C190.068 80.0257 191.008 78.6856 192.146 77.5253C192.723 76.8997 193.701 76.0959 194.633 76.0959C195.298 76.0959 195.656 76.4978 195.656 77.2562C195.656 78.8184 194.32 80.1116 192.501 80.6917H192.529Z" fill="white"/>
<path d="M218.19 85.9971C218.293 85.8711 218.355 85.716 218.367 85.5532C218.368 85.5009 218.358 85.449 218.338 85.4005C218.319 85.352 218.29 85.3078 218.254 85.2705C218.217 85.2331 218.174 85.2034 218.126 85.183C218.078 85.1625 218.026 85.1518 217.974 85.1513C217.84 85.1656 217.716 85.2291 217.626 85.3295C216.739 86.2662 215.452 87.472 213.897 87.472C212.742 87.472 212.078 86.6227 212.078 85.2422C212.119 84.3288 212.346 83.4334 212.742 82.6105C213.72 82.4322 215.629 82.0303 216.607 81.7158C219.846 80.6917 221.533 79.0386 221.533 76.9871C221.533 75.5891 220.555 74.981 219.181 74.981C215.184 74.981 209.723 80.5135 209.723 85.8643C209.723 87.6956 210.878 88.9888 212.742 88.9888C215.229 88.9888 216.826 87.7376 218.204 85.9971H218.19ZM216.412 80.6917C215.386 81.0488 214.332 81.3166 213.26 81.4921C213.966 80.0257 214.906 78.6856 216.043 77.5253C216.621 76.8997 217.598 76.0959 218.531 76.0959C219.195 76.0959 219.55 76.4978 219.55 77.2562C219.55 78.8184 218.221 80.1116 216.398 80.6917H216.412Z" fill="white"/>
<path d="M208.776 77.9237C208.757 77.4464 208.713 76.9705 208.644 76.4978C208.644 76.1867 208.992 75.963 209.531 75.963C210.07 75.963 210.554 76.4069 211.086 76.4069C211.194 76.4046 211.3 76.381 211.399 76.3375C211.498 76.2939 211.587 76.2312 211.662 76.153C211.736 76.0748 211.795 75.9826 211.834 75.8816C211.873 75.7806 211.892 75.6729 211.89 75.5646C211.89 75.5646 211.89 75.5332 211.89 75.5157C211.89 74.9809 211.49 74.7153 210.867 74.7153C210.171 74.7337 209.495 74.9493 208.916 75.3374C208.743 75.457 208.546 75.5336 208.338 75.5611C208.196 75.5506 208.058 75.505 207.938 75.4283C207.266 75.0338 206.492 74.8477 205.715 74.8936C204.811 74.9228 203.926 75.1582 203.126 75.5821C202.326 76.0059 201.633 76.6071 201.099 77.34C200.212 78.5878 200.034 79.3916 200.034 80.2828C200.041 80.9379 200.209 81.5813 200.521 82.1561C200.567 82.2435 200.699 82.3798 200.699 82.4672C200.699 82.6454 200.434 82.7363 199.902 82.8691C198.97 83.0928 197.77 83.7149 197.77 84.8752C197.77 85.7699 198.257 86.3046 199.189 86.9722C197.502 87.4195 194.705 88.5344 194.705 90.4671C194.705 92.3998 197.06 93.7664 200.567 93.7664C203.941 93.7664 206.293 92.3404 206.293 90.1106C206.293 88.9049 205.186 87.8354 203.231 86.8533C201.276 85.8713 199.857 85.2037 199.857 84.4453C199.857 83.7743 200.389 83.4632 201.367 83.4632C201.899 83.4632 202.609 83.6415 203.144 83.6415C204.741 83.6415 206.915 83.1522 208.248 80.2968C208.588 79.5543 208.769 78.7482 208.78 77.9307L208.776 77.9237ZM202.929 82.6105C202.216 82.6105 201.861 81.9849 201.861 81.0482C201.92 80.056 202.226 79.0947 202.751 78.2522C203.638 76.6446 204.793 75.7079 205.9 75.7079C206.595 75.7079 207.054 76.1553 207.054 76.9591C207.009 78.0609 206.689 79.1338 206.126 80.0801C204.88 82.1771 203.858 82.6244 202.929 82.6244V82.6105ZM200.751 92.7458C198.354 92.7458 196.977 91.6729 196.977 90.5161C196.977 89.1181 198.532 88.15 200.087 87.6152C200.751 87.9647 201.729 88.4191 202.483 88.8629C203.725 89.6214 203.948 90.0233 203.948 90.6943C203.948 91.8966 202.706 92.7458 200.751 92.7458Z" fill="white"/>
<path d="M221.088 123.18H98.8535V124.795H221.088V123.18Z" fill="white"/>
<path d="M221.088 128.926H98.8535V132.068H221.088V128.926Z" fill="white"/>
<path d="M198.661 59.3377C198.661 57.4993 200 57.3176 201.162 57.2407C201.385 57.2407 201.51 57.0135 201.51 56.7444C201.512 56.693 201.503 56.6417 201.486 56.5935C201.468 56.5453 201.441 56.5011 201.406 56.4635C201.371 56.4258 201.329 56.3954 201.282 56.3741C201.236 56.3527 201.185 56.3408 201.134 56.339H192.048C191.735 56.339 191.512 56.5172 191.512 56.7863C191.509 56.8543 191.52 56.9221 191.543 56.986C191.566 57.0498 191.602 57.1084 191.648 57.1584C191.694 57.2084 191.749 57.2488 191.811 57.2773C191.872 57.3058 191.938 57.3219 192.006 57.3246H192.048C193.836 57.4609 195.266 57.7754 195.266 59.5264V62.263C195.284 62.5576 195.228 62.8523 195.103 63.1193C194.978 63.3864 194.787 63.6172 194.549 63.7903C193.168 64.7687 191.503 65.2602 189.814 65.1882C184.186 65.1882 181.639 60.4735 181.639 55.6715C181.639 49.2093 185.703 45.7527 190.173 45.7527C194.281 45.7527 196.963 47.5457 198.48 50.6457C198.661 50.9952 198.828 51.1385 199.106 51.1385C199.224 51.1253 199.332 51.0664 199.407 50.9744C199.483 50.8823 199.519 50.7644 199.51 50.6457V45.7807C199.516 45.7263 199.511 45.6712 199.496 45.6185C199.481 45.5658 199.456 45.5167 199.422 45.4738C199.388 45.4309 199.346 45.3952 199.299 45.3687C199.251 45.3422 199.198 45.3255 199.144 45.3194H199.103C198.835 45.3194 198.703 45.4976 198.612 45.7667C198.476 46.3084 198.209 46.6649 197.808 46.6649C197.468 46.6084 197.146 46.4706 196.869 46.263C195.039 45.1866 193.474 44.3757 190.169 44.3757C184.718 44.3757 177.928 47.3849 177.928 55.5107C177.928 63.9475 184.269 66.5513 189.811 66.5513C193.036 66.5782 196.167 65.4648 198.657 63.4058L198.661 59.3377Z" fill="white"/>
<path d="M204.157 47.7656C204.347 47.7745 204.537 47.7285 204.703 47.6332C204.868 47.5379 205.004 47.3972 205.093 47.2274C205.148 47.3356 205.179 47.4551 205.183 47.5769C205.183 48.4751 204.466 49.3244 203.263 49.8242C203.172 49.8581 203.093 49.9191 203.037 49.999C202.981 50.0788 202.951 50.1739 202.95 50.2715C202.95 50.4952 203.172 50.621 203.44 50.5861C205.406 50.2366 206.477 48.4297 206.477 46.7416C206.477 45.2178 205.632 44.407 204.425 44.407C203.621 44.407 202.546 44.8124 202.546 46.1545C202.53 46.5655 202.677 46.9661 202.955 47.2683C203.233 47.5704 203.619 47.7493 204.028 47.7656C204.071 47.7691 204.114 47.7691 204.157 47.7656Z" fill="white"/>
<path d="M220.82 49.7335C220.913 49.7335 221.001 49.6967 221.066 49.6311C221.132 49.5656 221.168 49.4767 221.168 49.384C221.175 49.3459 221.175 49.3068 221.168 49.2687L220.497 44.5714C220.452 44.2569 220.319 44.166 220.093 44.166C219.961 44.166 219.825 44.2569 219.745 44.4806C219.61 44.8301 219.398 45.2005 218.942 45.2005C218.18 45.2005 217.203 44.3897 215.053 44.3897C212.27 44.3897 208.621 45.8261 208.621 49.6881C208.621 53.7282 211.838 55.1647 214.607 56.1502C217.644 57.2302 219.878 57.9467 219.878 60.9978C219.878 64.0489 217.554 65.1288 215.234 65.1288C212.774 65.1288 210.016 63.9615 208.934 60.3267C208.843 60.0122 208.708 59.8339 208.398 59.8339C208.088 59.8339 207.904 60.0122 207.904 60.4141V65.6216C207.897 65.6785 207.901 65.7363 207.915 65.7917C207.93 65.8471 207.956 65.899 207.991 65.9444C208.026 65.9899 208.069 66.028 208.119 66.0565C208.168 66.0851 208.223 66.1036 208.28 66.1109H208.353C208.53 66.1109 208.662 66.0235 208.798 65.7998C208.934 65.4853 209.202 64.989 209.647 64.989C210.541 64.989 212.284 66.5617 215.456 66.5617C218.448 66.5617 223.005 65.4399 223.005 60.0087C223.005 57.7649 222.111 54.8466 216.66 53.2739C212.833 52.152 211.612 50.761 211.612 48.8318C211.612 47.1263 212.774 45.7353 215.279 45.7353C217.109 45.7353 219.029 46.588 220.372 49.37C220.504 49.6391 220.64 49.7195 220.817 49.7195L220.82 49.7335Z" fill="white"/>
<path d="M145.763 48.1153C145.763 46.4097 146.254 45.557 147.952 45.3193C148.265 45.2774 148.442 45.1411 148.442 44.872C148.442 44.6028 148.265 44.5225 147.952 44.5225H140.09C139.777 44.5225 139.596 44.6588 139.596 44.872C139.596 45.0852 139.777 45.2774 140.09 45.3193C141.787 45.543 142.278 46.3958 142.278 48.1153V62.8396C142.278 64.5451 141.787 65.3979 140.09 65.6355C139.777 65.681 139.596 65.8173 139.596 66.0864C139.596 66.3555 139.777 66.4359 140.09 66.4359H147.965C148.279 66.4359 148.456 66.2996 148.456 66.0864C148.456 65.8732 148.279 65.681 147.965 65.6355C146.268 65.4119 145.777 64.5591 145.777 62.8396L145.763 48.1153Z" fill="white"/>
<path d="M173.329 48.5206C173.416 46.3223 173.82 45.5569 175.517 45.3332C175.83 45.2913 176.008 45.155 176.008 44.8859C176.008 44.6167 175.83 44.5364 175.517 44.5364H168.772C168.591 44.5364 168.459 44.7146 168.459 44.9418C168.462 45.0387 168.499 45.1315 168.562 45.2047C168.625 45.2778 168.712 45.3269 168.807 45.3437C170.237 45.5674 171.263 45.8819 171.444 48.5311C171.666 51.6276 171.712 60.3825 171.712 60.3825L157.647 44.5259H152.064C151.751 44.5259 151.57 44.6622 151.57 44.8754C151.57 45.0886 151.751 45.2808 152.064 45.3227C153 45.459 154.252 45.9064 154.252 47.3883C154.252 51.8304 154.252 57.6669 154.071 62.4166C153.984 64.6184 153.581 65.3803 151.883 65.604C151.57 65.6494 151.393 65.7857 151.393 66.0549C151.393 66.324 151.57 66.4044 151.883 66.4044H158.632C158.809 66.4044 158.941 66.2226 158.941 65.9989C158.939 65.9014 158.903 65.8078 158.839 65.7339C158.776 65.66 158.689 65.6104 158.593 65.5935C157.164 65.3698 156.134 65.0553 155.957 62.4061C155.779 59.3096 155.689 47.9999 155.689 47.9999L172.129 66.4044H173.173C173.173 66.4044 173.173 53.2493 173.354 48.4927L173.329 48.5206Z" fill="white"/>
<path d="M108.902 51.2153C108.947 48.6989 109.351 46.5915 114.221 45.917C114.712 45.8261 114.979 45.6024 114.979 45.155C114.98 45.0729 114.965 44.9914 114.935 44.9151C114.904 44.8388 114.859 44.7694 114.802 44.7106C114.745 44.6519 114.677 44.605 114.602 44.5727C114.526 44.5405 114.446 44.5234 114.364 44.5225H114.308C111.271 44.6588 109.932 44.6588 106.178 44.6588C102.961 44.6588 98.8522 44.5225 98.2261 44.5225C97.6903 44.5225 97.3773 44.7461 97.3773 45.1516C97.3773 45.557 97.6451 45.7772 98.1356 45.8226C99.875 46.0952 102.561 46.4971 102.738 51.5683C102.783 53.141 102.828 60.9069 102.828 69.3437C102.828 74.7749 102.783 79.5315 102.693 81.7333C102.515 86.8045 99.8332 87.21 98.0904 87.4791C97.5999 87.5245 97.332 87.7936 97.332 88.1501C97.332 88.5066 97.6451 88.7792 98.1808 88.7792C98.807 88.7792 102.915 88.6464 106.133 88.6464C109.887 88.6464 111.762 88.6464 114.802 88.7792C114.967 88.7907 115.13 88.7362 115.255 88.6275C115.38 88.5188 115.457 88.3648 115.47 88.199V88.1501C115.47 87.7027 115.202 87.4791 114.712 87.3882C109.841 86.7137 109.08 84.5922 108.857 82.0933C108.77 81.0134 108.68 78.2768 108.68 75.404C108.68 72.5311 108.725 69.7491 108.77 69.1654C108.812 68.4909 109.17 68.2672 109.528 68.2672C109.838 68.2742 110.137 68.3849 110.377 68.5818C113.414 71.1401 122.751 82.317 128.07 88.7792H139.417C139.863 88.7792 140.043 88.5555 140.043 88.1955C140.057 88.0201 140.001 87.8463 139.888 87.7122C139.774 87.578 139.613 87.4942 139.438 87.4791H139.417C137.274 87.2554 135.939 86.85 133.253 84.6831C130.47 82.4848 114.934 63.8112 114.934 63.8112C116.141 62.4132 123.283 55.1052 127.398 51.3796C132.223 46.9794 134.102 46.3958 136.154 45.903C136.311 45.8773 136.453 45.7942 136.553 45.6697C136.652 45.5451 136.702 45.3879 136.694 45.2284C136.694 44.8265 136.422 44.5295 135.799 44.5295C134.728 44.5295 131.51 44.6658 129.454 44.6658C125.882 44.6658 122.932 44.5295 122.306 44.5295C121.77 44.5295 121.366 44.7986 121.366 45.2284C121.366 45.6583 121.714 45.903 122.215 45.9938C122.914 46.093 123.603 46.258 124.271 46.4866C124.988 46.7557 125.388 47.0703 125.388 47.8322C125.352 48.5455 125.11 49.2329 124.692 49.8103C123.554 51.5347 122.253 53.1441 120.806 54.6159C116.559 59.0126 111.334 64.2201 109.591 65.6565C109.467 65.7678 109.308 65.831 109.142 65.8347C108.874 65.8347 108.794 65.5237 108.794 65.2092C108.794 64.8946 108.836 56.6779 108.927 51.2048L108.902 51.2153Z" fill="white"/>
<path d="M98.8946 97.4607C98.8524 97.4616 98.8109 97.4709 98.7723 97.4882C98.7338 97.5055 98.6991 97.5303 98.6702 97.5612C98.6414 97.5922 98.619 97.6286 98.6044 97.6683C98.5897 97.7081 98.5831 97.7504 98.585 97.7927V97.8102C98.597 97.9078 98.6445 97.9974 98.7184 98.062C98.7922 98.1265 98.8872 98.1613 98.9851 98.1597C100.46 98.2471 100.996 99.2361 100.996 100.673V113.15C100.996 114.586 100.46 115.53 98.9851 115.662C98.8872 115.661 98.7922 115.696 98.7184 115.76C98.6445 115.825 98.597 115.914 98.585 116.012C98.5782 116.097 98.6051 116.182 98.6598 116.247C98.7145 116.312 98.7926 116.353 98.8772 116.361H114.667L115.648 111.063C115.738 110.714 115.561 110.479 115.3 110.479C115.193 110.48 115.088 110.513 115 110.576C114.912 110.639 114.846 110.727 114.81 110.829C113.418 114.673 111.234 115.138 107.971 115.138C104.708 115.138 103.946 114.652 103.946 113.122V100.19C103.946 98.6664 105.24 98.261 106.179 98.2156C106.447 98.1737 106.579 98.0374 106.579 97.8661C106.578 97.8113 106.566 97.7573 106.545 97.7071C106.523 97.657 106.491 97.6117 106.451 97.574C106.412 97.5362 106.365 97.5068 106.314 97.4873C106.263 97.4679 106.209 97.4588 106.155 97.4607H98.8946Z" fill="white"/>
<path d="M126.418 116.54C131.956 116.54 135.887 112.695 135.887 106.754C135.887 101.546 132.06 97.3173 126.418 97.3173C125.201 97.3006 123.992 97.525 122.862 97.9776C121.731 98.4302 120.7 99.1021 119.828 99.9551C118.956 100.808 118.259 101.825 117.779 102.948C117.298 104.072 117.042 105.279 117.025 106.502V106.754C117.025 112.318 120.734 116.54 126.418 116.54ZM120.205 106.754C120.205 102.084 122.442 98.537 126.418 98.537C129.945 98.537 132.718 101.906 132.718 106.754C132.718 112.723 130.213 115.327 126.418 115.327C122.71 115.327 120.205 111.724 120.205 106.754Z" fill="white"/>
<path d="M155.904 116.403L155.994 100.694C155.994 99.2571 156.53 98.4043 158.005 98.1807C158.273 98.1352 158.405 97.9989 158.405 97.8312C158.412 97.746 158.385 97.6616 158.33 97.5962C158.275 97.5308 158.197 97.4897 158.113 97.4817H152.178C152.086 97.4817 151.997 97.5185 151.932 97.584C151.867 97.6496 151.83 97.7385 151.83 97.8312C151.83 98.0094 151.966 98.1457 152.234 98.1807C153.709 98.4498 154.422 98.8971 154.467 100.694L154.69 111.465L142.806 97.4607H137.766C137.673 97.4607 137.585 97.4975 137.52 97.5631C137.455 97.6286 137.418 97.7175 137.418 97.8102C137.418 98.0339 137.554 98.1597 137.821 98.2121C139.07 98.3938 139.651 98.7993 139.651 100.009L139.564 113.16C139.564 114.597 139.025 115.449 137.554 115.673C137.286 115.718 137.15 115.855 137.15 116.022C137.146 116.066 137.15 116.111 137.164 116.153C137.178 116.195 137.2 116.234 137.23 116.267C137.259 116.3 137.295 116.326 137.335 116.344C137.376 116.362 137.419 116.372 137.463 116.372H143.359C143.452 116.372 143.54 116.335 143.605 116.27C143.671 116.204 143.707 116.115 143.707 116.022C143.707 115.844 143.575 115.708 143.304 115.673C142.278 115.495 141.116 115.226 141.07 113.16L140.938 99.9211L154.877 116.393L155.904 116.403Z" fill="white"/>
<path d="M160.238 97.4606C160.196 97.4615 160.154 97.4708 160.116 97.4878C160.077 97.5048 160.043 97.5292 160.014 97.5597C159.985 97.5902 159.962 97.6262 159.947 97.6656C159.931 97.7049 159.924 97.7469 159.925 97.7892V97.8101C159.925 97.8588 159.935 97.907 159.954 97.9516C159.973 97.9962 160.002 98.0362 160.038 98.0691C160.073 98.102 160.115 98.127 160.161 98.1426C160.207 98.1582 160.256 98.164 160.304 98.1596H160.328C161.8 98.2924 162.336 99.2361 162.336 100.673V113.15C162.336 114.586 161.8 115.53 160.328 115.662C160.057 115.708 159.925 115.844 159.925 116.012C159.918 116.097 159.945 116.181 160 116.247C160.054 116.312 160.132 116.353 160.217 116.361H169.307C173.238 116.361 179.743 114.341 179.743 106.712C179.743 99.9316 174.56 97.4187 169.199 97.4187L160.238 97.4606ZM165.331 100.512C165.331 98.8097 166.225 98.6734 168.59 98.6734C172.57 98.6734 176.591 100.603 176.591 106.663C176.591 112.632 173.196 115.191 168.775 115.191H167.794C166.545 115.191 165.338 114.841 165.338 112.541L165.331 100.512Z" fill="white"/>
<path d="M191.644 116.54C197.186 116.54 201.117 112.695 201.117 106.754C201.117 101.546 197.29 97.3175 191.644 97.3175C190.427 97.3013 189.218 97.5262 188.087 97.9794C186.956 98.4326 185.925 99.1052 185.053 99.9588C184.181 100.812 183.485 101.83 183.004 102.954C182.523 104.078 182.268 105.286 182.252 106.509V106.754C182.252 112.318 185.96 116.54 191.644 116.54ZM185.435 106.754C185.435 102.085 187.672 98.5372 191.644 98.5372C195.175 98.5372 197.944 101.906 197.944 106.754C197.944 112.723 195.443 115.327 191.644 115.327C187.936 115.327 185.435 111.724 185.435 106.754Z" fill="white"/>
<path d="M221.087 116.403L221.178 100.694C221.178 99.2571 221.713 98.4043 223.188 98.1807C223.456 98.1352 223.588 97.9989 223.588 97.8312C223.595 97.746 223.568 97.6616 223.514 97.5962C223.459 97.5308 223.381 97.4897 223.296 97.4817H217.382C217.29 97.4817 217.202 97.5185 217.136 97.584C217.071 97.6496 217.035 97.7385 217.035 97.8312C217.035 98.0094 217.17 98.1457 217.438 98.1807C218.913 98.4498 219.626 98.8971 219.671 100.694L219.894 111.465L208.007 97.4607H202.949C202.857 97.4607 202.769 97.4975 202.703 97.5631C202.638 97.6286 202.601 97.7175 202.601 97.8102C202.601 98.0339 202.734 98.1597 203.005 98.2121C204.254 98.3938 204.835 98.7993 204.835 100.009L204.744 113.16C204.744 114.597 204.209 115.449 202.734 115.673C202.466 115.718 202.334 115.855 202.334 116.022C202.329 116.066 202.334 116.111 202.348 116.153C202.362 116.195 202.384 116.234 202.413 116.267C202.443 116.3 202.479 116.326 202.519 116.344C202.559 116.362 202.603 116.372 202.647 116.372H208.543C208.635 116.372 208.724 116.335 208.789 116.27C208.854 116.204 208.891 116.115 208.891 116.022C208.891 115.844 208.755 115.708 208.487 115.673C207.444 115.495 206.299 115.226 206.254 113.16L206.118 99.9211L220.061 116.393L221.087 116.403Z" fill="white"/>
</g>
<defs>
<clipPath id="clip0_3455_1929">
<rect width="166" height="127" fill="white" transform="translate(77 24)"/>
</clipPath>
</defs>
</svg>
