<svg width="166" height="127" viewBox="0 0 166 127" fill="none" xmlns="http://www.w3.org/2000/svg">
  <g clip-path="url(#clip0_3455_2049)">
    <path d="M166 0H0V127H166V0Z" fill="#E2231A"/>
    <path d="M80.8104 52.4524C80.9086 52.4607 81.0067 52.4342 81.0874 52.3773C81.1681 52.3205 81.2264 52.237 81.2522 52.1413L82.7619 47.182C82.8976 46.7836 82.7619 46.5599 82.4975 46.5599C82.3619 46.5599 82.2749 46.6018 82.0975 46.8709C81.8296 47.2204 81.4748 47.7622 81.2104 47.7622C81.1344 47.767 81.0583 47.7533 80.9887 47.7223C80.919 47.6913 80.8578 47.6438 80.8104 47.5839C80.2746 46.9826 79.6133 46.5076 78.8736 46.1928C78.134 45.878 77.3342 45.7313 76.5316 45.763C69.9638 45.763 64.2344 52.753 64.2344 59.2781C64.2344 63.0247 66.499 65.1671 69.8003 65.1671C71.1744 65.1671 72.4163 64.898 74.3226 64.0941C74.7154 63.9086 75.1363 63.7905 75.568 63.7446C76.0098 63.7446 76.055 64.3248 76.1002 65.0832C76.0933 65.1286 76.0954 65.175 76.1063 65.2196C76.1173 65.2643 76.1369 65.3063 76.164 65.3433C76.1912 65.3803 76.2253 65.4116 76.2645 65.4353C76.3037 65.4591 76.3472 65.4748 76.3924 65.4816H76.4481C76.5359 65.4922 76.625 65.4766 76.7041 65.4369C76.7833 65.3971 76.8491 65.3349 76.8934 65.2579L78.7545 59.8163C78.9319 59.3724 78.7127 59.1487 78.4449 59.1487C78.177 59.1487 78.0031 59.2816 77.7804 59.638C76.3576 62.0461 72.9102 63.9194 70.0995 63.9194C67.9253 63.9194 66.9478 62.2697 66.9478 59.9072C66.9478 54.2418 72.051 46.9758 76.4029 46.9758C78.6675 46.9758 80.3999 48.3738 80.3999 51.2571C80.3999 51.4808 80.3547 51.7918 80.3547 52.0155C80.348 52.1262 80.3852 52.2351 80.4583 52.3183C80.5313 52.4015 80.6341 52.4522 80.7443 52.4594H80.7999L80.8104 52.4524Z" fill="white"/>
    <path d="M89.6879 50.6245C85.4717 50.6245 81.9199 55.7097 81.9199 60.8403C81.9199 63.1155 83.0748 64.9888 85.249 64.9888C89.5104 64.9888 93.0622 59.4563 93.0622 54.773C93.0622 52.4978 91.9073 50.6245 89.6879 50.6245ZM89.8235 51.7394C90.8428 51.7394 91.2881 52.5432 91.2881 53.7036C91.2881 57.1985 87.7363 63.783 85.1621 63.783C84.1393 63.783 83.6941 63.0841 83.6941 61.9097C83.6941 58.1177 87.2458 51.7394 89.8235 51.7394Z" fill="white"/>
    <path d="M100.534 47.182C100.52 47.3384 100.475 47.4905 100.402 47.6293C98.1369 52.8928 95.9627 57.8416 93.792 63.1085C93.6216 63.4727 93.5167 63.8644 93.4824 64.2654C93.4906 64.4838 93.5837 64.6904 93.7417 64.8407C93.8998 64.991 94.1102 65.073 94.3277 65.0692C94.6901 65.0714 95.0502 65.0112 95.3922 64.891C96.7273 64.4339 97.9107 63.6151 98.8118 62.5249C98.8663 62.4737 98.91 62.4121 98.9405 62.3437C98.971 62.2752 98.9875 62.2014 98.9892 62.1264C98.9892 61.9028 98.8988 61.777 98.7213 61.777C98.6071 61.7885 98.4991 61.8348 98.4117 61.9098C97.7828 62.4365 97.1141 62.9133 96.4115 63.3357C96.3044 63.4014 96.1867 63.4475 96.0636 63.472C96.0327 63.476 96.0015 63.4676 95.9768 63.4486C95.952 63.4296 95.9357 63.4016 95.9314 63.3707C95.9279 63.3593 95.9279 63.3471 95.9314 63.3357C95.9422 63.215 95.9727 63.0969 96.0219 62.9862L103.035 46.7067C103.14 46.498 103.201 46.2693 103.212 46.0356C103.212 45.8609 103.08 45.77 102.864 45.77C102.517 45.77 101.845 45.8155 101.309 45.8609C100.868 45.9028 99.845 45.9483 99.1805 46.0356C98.9127 46.0811 98.7352 46.2593 98.7352 46.4376C98.7352 46.5302 98.7719 46.6191 98.8371 46.6847C98.9024 46.7502 98.9909 46.7871 99.0831 46.7871H99.1423C99.5597 46.8185 99.9746 46.8781 100.384 46.9653C100.434 46.9758 100.48 47.0034 100.512 47.0436C100.544 47.0837 100.562 47.1338 100.562 47.1855L100.534 47.182Z" fill="white"/>
    <path d="M107.801 47.1819C107.787 47.3383 107.742 47.4904 107.669 47.6292C105.405 52.8927 103.23 57.8415 101.06 63.1084C100.889 63.4726 100.784 63.8643 100.75 64.2653C100.76 64.4832 100.854 64.6887 101.011 64.8386C101.169 64.9885 101.378 65.0712 101.595 65.0691C101.958 65.0714 102.318 65.0111 102.66 64.8909C103.996 64.4351 105.179 63.6161 106.079 62.5248C106.134 62.4736 106.178 62.412 106.208 62.3436C106.239 62.2751 106.255 62.2013 106.257 62.1264C106.257 61.9027 106.166 61.7769 105.989 61.7769C105.875 61.7884 105.767 61.8347 105.679 61.9097C105.052 62.4372 104.385 62.914 103.683 63.3356C103.574 63.3983 103.457 63.4443 103.335 63.4719C103.304 63.4759 103.273 63.4675 103.248 63.4485C103.223 63.4295 103.207 63.4015 103.202 63.3706C103.199 63.3592 103.199 63.347 103.202 63.3356C103.213 63.2149 103.244 63.0968 103.293 62.9861L110.275 46.6996C110.38 46.4909 110.44 46.2623 110.452 46.0286C110.452 45.8538 110.32 45.7629 110.104 45.7629C109.756 45.7629 109.085 45.8084 108.553 45.8538C108.107 45.8957 107.085 45.9412 106.42 46.0286C106.152 46.074 105.975 46.2522 105.975 46.4305C105.975 46.5232 106.012 46.6121 106.077 46.6776C106.142 46.7432 106.231 46.78 106.323 46.78H106.379C106.796 46.8114 107.211 46.871 107.62 46.9582C107.671 46.9674 107.717 46.9947 107.75 47.0351C107.782 47.0756 107.799 47.1264 107.798 47.1784L107.801 47.1819Z" fill="white"/>
    <path d="M117.303 61.9971C117.408 61.8722 117.472 61.7167 117.484 61.5532C117.484 61.5003 117.474 61.4478 117.454 61.3989C117.434 61.3499 117.405 61.3054 117.367 61.268C117.33 61.2306 117.286 61.201 117.237 61.1809C117.188 61.1609 117.136 61.1508 117.084 61.1513C116.95 61.1656 116.826 61.2291 116.736 61.3295C115.849 62.2662 114.558 63.472 113.006 63.472C111.852 63.472 111.184 62.6227 111.184 61.2422C111.224 60.3282 111.452 59.4324 111.852 58.6105C113.153 58.3773 114.441 58.0786 115.713 57.7158C118.955 56.6917 120.642 55.0386 120.642 52.9871C120.642 51.5891 119.665 50.981 118.291 50.981C114.294 50.981 108.832 56.5135 108.832 61.8643C108.832 63.6956 110.029 64.9888 111.852 64.9888C114.335 64.9888 115.936 63.7376 117.31 61.9971H117.303ZM115.529 56.6917C114.498 57.0489 113.439 57.3166 112.363 57.4921C113.068 56.0257 114.008 54.6856 115.146 53.5253C115.723 52.8997 116.701 52.0959 117.633 52.0959C118.298 52.0959 118.656 52.4978 118.656 53.2562C118.656 54.8184 117.32 56.1116 115.501 56.6917H115.529Z" fill="white"/>
    <path d="M141.19 61.9971C141.293 61.8711 141.355 61.716 141.367 61.5532C141.368 61.5009 141.358 61.449 141.338 61.4005C141.319 61.352 141.29 61.3078 141.254 61.2705C141.217 61.2331 141.174 61.2034 141.126 61.183C141.078 61.1625 141.026 61.1518 140.974 61.1513C140.84 61.1656 140.716 61.2291 140.626 61.3295C139.739 62.2662 138.452 63.472 136.897 63.472C135.742 63.472 135.078 62.6227 135.078 61.2422C135.119 60.3288 135.346 59.4334 135.742 58.6105C136.72 58.4322 138.629 58.0303 139.607 57.7158C142.846 56.6917 144.533 55.0386 144.533 52.9871C144.533 51.5891 143.555 50.981 142.181 50.981C138.184 50.981 132.723 56.5135 132.723 61.8643C132.723 63.6956 133.878 64.9888 135.742 64.9888C138.229 64.9888 139.826 63.7376 141.204 61.9971H141.19ZM139.412 56.6917C138.386 57.0488 137.332 57.3166 136.26 57.4921C136.966 56.0257 137.906 54.6856 139.043 53.5253C139.621 52.8997 140.598 52.0959 141.531 52.0959C142.195 52.0959 142.55 52.4978 142.55 53.2562C142.55 54.8184 141.221 56.1116 139.398 56.6917H139.412Z" fill="white"/>
    <path d="M131.776 53.9237C131.757 53.4464 131.713 52.9705 131.644 52.4978C131.644 52.1867 131.992 51.963 132.531 51.963C133.07 51.963 133.554 52.4069 134.086 52.4069C134.194 52.4046 134.3 52.381 134.399 52.3375C134.498 52.2939 134.587 52.2312 134.662 52.153C134.736 52.0748 134.795 51.9826 134.834 51.8816C134.873 51.7806 134.892 51.6729 134.89 51.5646C134.89 51.5646 134.89 51.5332 134.89 51.5157C134.89 50.9809 134.49 50.7153 133.867 50.7153C133.171 50.7337 132.495 50.9493 131.916 51.3374C131.743 51.457 131.546 51.5336 131.338 51.5611C131.196 51.5506 131.058 51.505 130.938 51.4283C130.266 51.0338 129.492 50.8477 128.715 50.8936C127.811 50.9228 126.926 51.1582 126.126 51.5821C125.326 52.0059 124.633 52.6071 124.099 53.34C123.212 54.5878 123.034 55.3916 123.034 56.2828C123.041 56.9379 123.209 57.5813 123.521 58.1561C123.567 58.2435 123.699 58.3798 123.699 58.4672C123.699 58.6454 123.434 58.7363 122.902 58.8691C121.97 59.0928 120.77 59.7149 120.77 60.8752C120.77 61.7699 121.257 62.3046 122.189 62.9722C120.502 63.4195 117.705 64.5344 117.705 66.4671C117.705 68.3998 120.06 69.7664 123.567 69.7664C126.941 69.7664 129.293 68.3404 129.293 66.1106C129.293 64.9049 128.186 63.8354 126.231 62.8533C124.276 61.8713 122.857 61.2037 122.857 60.4453C122.857 59.7743 123.389 59.4632 124.367 59.4632C124.899 59.4632 125.609 59.6415 126.144 59.6415C127.741 59.6415 129.915 59.1522 131.248 56.2968C131.588 55.5543 131.769 54.7482 131.78 53.9307L131.776 53.9237ZM125.929 58.6105C125.216 58.6105 124.861 57.9849 124.861 57.0482C124.92 56.056 125.226 55.0947 125.751 54.2522C126.638 52.6446 127.793 51.7079 128.9 51.7079C129.595 51.7079 130.054 52.1553 130.054 52.9591C130.009 54.0609 129.689 55.1338 129.126 56.0801C127.88 58.1771 126.858 58.6244 125.929 58.6244V58.6105ZM123.751 68.7458C121.354 68.7458 119.977 67.6729 119.977 66.5161C119.977 65.1181 121.532 64.15 123.087 63.6152C123.751 63.9647 124.729 64.4191 125.483 64.8629C126.725 65.6214 126.948 66.0233 126.948 66.6943C126.948 67.8966 125.706 68.7458 123.751 68.7458Z" fill="white"/>
    <path d="M144.088 99.1802H21.8535V100.795H144.088V99.1802Z" fill="white"/>
    <path d="M144.088 104.926H21.8535V108.068H144.088V104.926Z" fill="white"/>
    <path d="M121.661 35.3377C121.661 33.4993 123 33.3176 124.162 33.2407C124.385 33.2407 124.51 33.0135 124.51 32.7444C124.512 32.693 124.503 32.6417 124.486 32.5935C124.468 32.5453 124.441 32.5011 124.406 32.4635C124.371 32.4258 124.329 32.3954 124.282 32.3741C124.236 32.3527 124.185 32.3408 124.134 32.339H115.048C114.735 32.339 114.512 32.5172 114.512 32.7863C114.509 32.8543 114.52 32.9221 114.543 32.986C114.566 33.0498 114.602 33.1084 114.648 33.1584C114.694 33.2084 114.749 33.2488 114.811 33.2773C114.872 33.3058 114.938 33.3219 115.006 33.3246H115.048C116.836 33.4609 118.266 33.7754 118.266 35.5264V38.263C118.284 38.5576 118.228 38.8523 118.103 39.1193C117.978 39.3864 117.787 39.6172 117.549 39.7903C116.168 40.7687 114.503 41.2602 112.814 41.1882C107.186 41.1882 104.639 36.4735 104.639 31.6715C104.639 25.2093 108.703 21.7527 113.173 21.7527C117.281 21.7527 119.963 23.5457 121.48 26.6457C121.661 26.9952 121.828 27.1385 122.106 27.1385C122.224 27.1253 122.332 27.0664 122.407 26.9744C122.483 26.8823 122.519 26.7644 122.51 26.6457V21.7807C122.516 21.7263 122.511 21.6712 122.496 21.6185C122.481 21.5658 122.456 21.5167 122.422 21.4738C122.388 21.4309 122.346 21.3952 122.299 21.3687C122.251 21.3422 122.198 21.3255 122.144 21.3194H122.103C121.835 21.3194 121.703 21.4976 121.612 21.7667C121.476 22.3084 121.209 22.6649 120.808 22.6649C120.468 22.6084 120.146 22.4706 119.869 22.263C118.039 21.1866 116.474 20.3757 113.169 20.3757C107.718 20.3757 100.928 23.3849 100.928 31.5107C100.928 39.9475 107.269 42.5513 112.811 42.5513C116.036 42.5782 119.167 41.4648 121.657 39.4058L121.661 35.3377Z" fill="white"/>
    <path d="M127.157 23.7656C127.347 23.7745 127.537 23.7285 127.703 23.6332C127.868 23.5379 128.004 23.3972 128.093 23.2274C128.148 23.3356 128.179 23.4551 128.183 23.5769C128.183 24.4751 127.466 25.3244 126.263 25.8242C126.172 25.8581 126.093 25.9191 126.037 25.999C125.981 26.0788 125.951 26.1739 125.95 26.2715C125.95 26.4952 126.172 26.621 126.44 26.5861C128.406 26.2366 129.477 24.4297 129.477 22.7416C129.477 21.2178 128.632 20.407 127.425 20.407C126.621 20.407 125.546 20.8124 125.546 22.1545C125.53 22.5655 125.677 22.9661 125.955 23.2683C126.233 23.5704 126.619 23.7493 127.028 23.7656C127.071 23.7691 127.114 23.7691 127.157 23.7656Z" fill="white"/>
    <path d="M143.82 25.7335C143.913 25.7335 144.001 25.6967 144.066 25.6311C144.132 25.5656 144.168 25.4767 144.168 25.384C144.175 25.3459 144.175 25.3068 144.168 25.2687L143.497 20.5714C143.452 20.2569 143.319 20.166 143.093 20.166C142.961 20.166 142.825 20.2569 142.745 20.4806C142.61 20.8301 142.398 21.2005 141.942 21.2005C141.18 21.2005 140.203 20.3897 138.053 20.3897C135.27 20.3897 131.621 21.8261 131.621 25.6881C131.621 29.7282 134.838 31.1647 137.607 32.1502C140.644 33.2302 142.878 33.9467 142.878 36.9978C142.878 40.0489 140.554 41.1288 138.234 41.1288C135.774 41.1288 133.016 39.9615 131.934 36.3267C131.843 36.0122 131.708 35.8339 131.398 35.8339C131.088 35.8339 130.904 36.0122 130.904 36.4141V41.6216C130.897 41.6785 130.901 41.7363 130.915 41.7917C130.93 41.8471 130.956 41.899 130.991 41.9444C131.026 41.9899 131.069 42.028 131.119 42.0565C131.168 42.0851 131.223 42.1036 131.28 42.1109H131.353C131.53 42.1109 131.662 42.0235 131.798 41.7998C131.934 41.4853 132.202 40.989 132.647 40.989C133.541 40.989 135.284 42.5617 138.456 42.5617C141.448 42.5617 146.005 41.4399 146.005 36.0087C146.005 33.7649 145.111 30.8466 139.66 29.2739C135.833 28.152 134.612 26.761 134.612 24.8318C134.612 23.1263 135.774 21.7353 138.279 21.7353C140.109 21.7353 142.029 22.588 143.372 25.37C143.504 25.6391 143.64 25.7195 143.817 25.7195L143.82 25.7335Z" fill="white"/>
    <path d="M68.7634 24.1153C68.7634 22.4097 69.2539 21.557 70.9515 21.3193C71.2646 21.2774 71.442 21.1411 71.442 20.872C71.442 20.6028 71.2646 20.5225 70.9515 20.5225H63.0897C62.7766 20.5225 62.5957 20.6588 62.5957 20.872C62.5957 21.0852 62.7766 21.2774 63.0897 21.3193C64.7873 21.543 65.2778 22.3958 65.2778 24.1153V38.8396C65.2778 40.5451 64.7873 41.3979 63.0897 41.6355C62.7766 41.681 62.5957 41.8173 62.5957 42.0864C62.5957 42.3555 62.7766 42.4359 63.0897 42.4359H70.9655C71.2785 42.4359 71.4559 42.2996 71.4559 42.0864C71.4559 41.8732 71.2785 41.681 70.9655 41.6355C69.2678 41.4119 68.7774 40.5591 68.7774 38.8396L68.7634 24.1153Z" fill="white"/>
    <path d="M96.3292 24.5206C96.4162 22.3223 96.8197 21.5569 98.5174 21.3332C98.8304 21.2913 99.0078 21.155 99.0078 20.8859C99.0078 20.6167 98.8304 20.5364 98.5174 20.5364H91.7722C91.5913 20.5364 91.4591 20.7146 91.4591 20.9418C91.4624 21.0387 91.4988 21.1315 91.5621 21.2047C91.6254 21.2778 91.7119 21.3269 91.8069 21.3437C93.2367 21.5674 94.2629 21.8819 94.4438 24.5311C94.6664 27.6276 94.7117 36.3825 94.7117 36.3825L80.6473 20.5259H75.064C74.7509 20.5259 74.57 20.6622 74.57 20.8754C74.57 21.0886 74.7509 21.2808 75.064 21.3227C75.9997 21.459 77.2521 21.9064 77.2521 23.3883C77.2521 27.8304 77.2521 33.6669 77.0712 38.4166C76.9842 40.6184 76.5807 41.3803 74.8831 41.604C74.57 41.6494 74.3926 41.7857 74.3926 42.0549C74.3926 42.324 74.57 42.4044 74.8831 42.4044H81.6317C81.8092 42.4044 81.9414 42.2226 81.9414 41.9989C81.9388 41.9014 81.9028 41.8078 81.8394 41.7339C81.776 41.66 81.6891 41.6104 81.5935 41.5935C80.1637 41.3698 79.134 41.0553 78.9566 38.4061C78.7792 35.3096 78.6888 23.9999 78.6888 23.9999L95.1291 42.4044H96.1727C96.1727 42.4044 96.1727 29.2493 96.3536 24.4927L96.3292 24.5206Z" fill="white"/>
    <path d="M31.9022 27.2153C31.9474 24.6989 32.3509 22.5915 37.2211 21.917C37.7116 21.8261 37.9795 21.6024 37.9795 21.155C37.9804 21.0729 37.9652 20.9914 37.9347 20.9151C37.9043 20.8388 37.8592 20.7694 37.802 20.7106C37.7448 20.6519 37.6767 20.605 37.6015 20.5727C37.5263 20.5405 37.4455 20.5234 37.3637 20.5225H37.3081C34.2712 20.6588 32.9319 20.6588 29.1784 20.6588C25.9606 20.6588 21.8522 20.5225 21.2261 20.5225C20.6903 20.5225 20.3773 20.7461 20.3773 21.1516C20.3773 21.557 20.6451 21.7772 21.1356 21.8226C22.875 22.0952 25.5605 22.4971 25.7379 27.5683C25.7832 29.141 25.8284 36.9069 25.8284 45.3437C25.8284 50.7749 25.7832 55.5315 25.6927 57.7333C25.5153 62.8045 22.8332 63.21 21.0904 63.4791C20.5999 63.5245 20.332 63.7936 20.332 64.1501C20.332 64.5066 20.6451 64.7792 21.1808 64.7792C21.807 64.7792 25.9153 64.6464 29.1331 64.6464C32.8867 64.6464 34.7617 64.6464 37.8021 64.7792C37.9671 64.7907 38.13 64.7362 38.2551 64.6275C38.3803 64.5188 38.4575 64.3648 38.47 64.199V64.1501C38.47 63.7027 38.2021 63.4791 37.7116 63.3882C32.8414 62.7137 32.0796 60.5922 31.857 58.0933C31.77 57.0134 31.6795 54.2768 31.6795 51.404C31.6795 48.5311 31.7248 45.7491 31.77 45.1654C31.8117 44.4909 32.17 44.2672 32.5283 44.2672C32.8383 44.2742 33.137 44.3849 33.3771 44.5818C36.4141 47.1401 45.7509 58.317 51.0698 64.7792H62.4173C62.8626 64.7792 63.0435 64.5555 63.0435 64.1955C63.057 64.0201 63.0009 63.8463 62.8876 63.7122C62.7742 63.578 62.6127 63.4942 62.4382 63.4791H62.4173C60.2744 63.2554 58.9386 62.85 56.2531 60.6831C53.4701 58.4848 37.9342 39.8112 37.9342 39.8112C39.1414 38.4132 46.2831 31.1052 50.3984 27.3796C55.2234 22.9794 57.1019 22.3958 59.1543 21.903C59.3112 21.8773 59.4532 21.7942 59.5527 21.6697C59.6523 21.5451 59.7024 21.3879 59.6935 21.2284C59.6935 20.8265 59.4222 20.5295 58.7995 20.5295C57.728 20.5295 54.5102 20.6658 52.4543 20.6658C48.8817 20.6658 45.9318 20.5295 45.3056 20.5295C44.7699 20.5295 44.3664 20.7986 44.3664 21.2284C44.3664 21.6583 44.7142 21.903 45.2152 21.9938C45.9143 22.093 46.6026 22.258 47.2711 22.4866C47.9877 22.7557 48.3877 23.0703 48.3877 23.8322C48.3522 24.5455 48.1104 25.2329 47.692 25.8103C46.5545 27.5347 45.2531 29.1441 43.8063 30.6159C39.5588 35.0126 34.3338 40.2201 32.591 41.6565C32.4673 41.7678 32.3082 41.831 32.1422 41.8347C31.8744 41.8347 31.7943 41.5237 31.7943 41.2092C31.7943 40.8946 31.8361 32.6779 31.9265 27.2048L31.9022 27.2153Z" fill="white"/>
    <path d="M21.8946 73.4607C21.8524 73.4616 21.8109 73.4709 21.7723 73.4882C21.7338 73.5055 21.6991 73.5303 21.6702 73.5612C21.6414 73.5922 21.619 73.6286 21.6044 73.6683C21.5897 73.7081 21.5831 73.7504 21.585 73.7927V73.8102C21.597 73.9078 21.6445 73.9974 21.7184 74.062C21.7922 74.1265 21.8872 74.1613 21.9851 74.1597C23.46 74.2471 23.9958 75.2361 23.9958 76.6726V89.1496C23.9958 90.586 23.46 91.5296 21.9851 91.6625C21.8872 91.6609 21.7922 91.6957 21.7184 91.7602C21.6445 91.8247 21.597 91.9144 21.585 92.012C21.5782 92.0971 21.6051 92.1815 21.6598 92.2469C21.7145 92.3123 21.7926 92.3535 21.8772 92.3614H37.667L38.648 87.0631C38.7385 86.7136 38.5611 86.4794 38.3002 86.4794C38.1925 86.4797 38.0876 86.5135 37.9998 86.5761C37.9119 86.6386 37.8455 86.727 37.8097 86.8289C36.4182 90.6734 34.2336 91.1382 30.9705 91.1382C27.7075 91.1382 26.9457 90.6524 26.9457 89.1216V76.1903C26.9457 74.6664 28.2398 74.261 29.179 74.2156C29.4469 74.1737 29.5791 74.0374 29.5791 73.8661C29.5782 73.8113 29.5664 73.7573 29.5445 73.7071C29.5226 73.657 29.491 73.6117 29.4515 73.574C29.412 73.5362 29.3654 73.5068 29.3144 73.4873C29.2635 73.4679 29.2091 73.4588 29.1547 73.4607H21.8946Z" fill="white"/>
    <path d="M49.4179 92.5396C54.956 92.5396 58.8869 88.6951 58.8869 82.7537C58.8869 77.5462 55.0603 73.3173 49.4179 73.3173C48.2009 73.3006 46.9925 73.525 45.8618 73.9776C44.7311 74.4302 43.7002 75.1021 42.828 75.9551C41.9558 76.808 41.2594 77.8251 40.7785 78.9485C40.2976 80.0718 40.0417 81.2793 40.0254 82.502V82.7537C40.0254 88.3177 43.7337 92.5396 49.4179 92.5396ZM43.2049 82.7537C43.2049 78.0844 45.4417 74.537 49.4179 74.537C52.9453 74.537 55.7178 77.9062 55.7178 82.7537C55.7178 88.7231 53.2131 91.3268 49.4179 91.3268C45.7096 91.3268 43.2049 87.7235 43.2049 82.7537Z" fill="white"/>
    <path d="M78.9037 92.4034L78.9941 76.6935C78.9941 75.2571 79.5298 74.4043 81.0048 74.1807C81.2726 74.1352 81.4048 73.9989 81.4048 73.8312C81.4116 73.746 81.3847 73.6616 81.3301 73.5962C81.2754 73.5308 81.1973 73.4897 81.1126 73.4817H75.178C75.0857 73.4817 74.9972 73.5185 74.932 73.584C74.8667 73.6496 74.8301 73.7385 74.8301 73.8312C74.8301 74.0094 74.9658 74.1457 75.2336 74.1807C76.7086 74.4498 77.4217 74.8971 77.4669 76.6935L77.6896 87.465L65.8064 73.4607H60.7657C60.6735 73.4607 60.585 73.4975 60.5197 73.5631C60.4545 73.6286 60.4178 73.7175 60.4178 73.8102C60.4178 74.0339 60.5535 74.1597 60.8214 74.2121C62.0702 74.3938 62.6512 74.7993 62.6512 76.0085L62.5642 89.1601C62.5642 90.5965 62.025 91.4493 60.5535 91.6729C60.2857 91.7184 60.15 91.8547 60.15 92.0224C60.1456 92.0665 60.1505 92.1109 60.1642 92.153C60.1779 92.1951 60.2002 92.2338 60.2297 92.2667C60.2592 92.2996 60.2951 92.3259 60.3353 92.344C60.3755 92.3622 60.419 92.3717 60.4631 92.3719H66.3595C66.4517 92.3719 66.5402 92.3351 66.6054 92.2696C66.6707 92.204 66.7073 92.1151 66.7073 92.0224C66.7073 91.8442 66.5751 91.7079 66.3038 91.6729C65.2776 91.4947 64.1157 91.2256 64.0705 89.1601L63.9383 75.9211L77.8774 92.3929L78.9037 92.4034Z" fill="white"/>
    <path d="M83.2379 73.4606C83.1959 73.4615 83.1545 73.4708 83.116 73.4878C83.0775 73.5048 83.0427 73.5292 83.0137 73.5597C82.9846 73.5902 82.9618 73.6262 82.9465 73.6656C82.9313 73.7049 82.9239 73.7469 82.9249 73.7892V73.8101C82.9247 73.8588 82.9346 73.907 82.954 73.9516C82.9734 73.9962 83.0019 74.0362 83.0376 74.0691C83.0732 74.102 83.1154 74.127 83.1613 74.1426C83.2072 74.1582 83.2558 74.164 83.304 74.1596H83.3284C84.7999 74.2924 85.3356 75.2361 85.3356 76.6725V89.1495C85.3356 90.586 84.7999 91.5296 83.3284 91.6624C83.057 91.7078 82.9249 91.8441 82.9249 92.0119C82.9181 92.097 82.9449 92.1815 82.9996 92.2469C83.0543 92.3123 83.1324 92.3534 83.2171 92.3614H92.3069C96.2378 92.3614 102.743 90.3413 102.743 82.7118C102.743 75.9316 97.5597 73.4187 92.1991 73.4187L83.2379 73.4606ZM88.3308 76.5117C88.3308 74.8097 89.2248 74.6734 91.5903 74.6734C95.5699 74.6734 99.5913 76.6026 99.5913 82.6629C99.5913 88.6323 96.1961 91.1906 91.7747 91.1906H90.7937C89.5448 91.1906 88.3377 90.8411 88.3377 88.5414L88.3308 76.5117Z" fill="white"/>
    <path d="M114.644 92.5398C120.186 92.5398 124.117 88.6953 124.117 82.7539C124.117 77.5464 120.29 73.3175 114.644 73.3175C113.427 73.3013 112.218 73.5262 111.087 73.9794C109.956 74.4326 108.925 75.1052 108.053 75.9588C107.181 76.8123 106.485 77.8301 106.004 78.9541C105.523 80.078 105.268 81.286 105.252 82.5092V82.7539C105.252 88.3178 108.96 92.5398 114.644 92.5398ZM108.435 82.7539C108.435 78.0846 110.672 74.5372 114.644 74.5372C118.175 74.5372 120.944 77.9064 120.944 82.7539C120.944 88.7233 118.443 91.327 114.644 91.327C110.936 91.327 108.435 87.7237 108.435 82.7539Z" fill="white"/>
    <path d="M144.087 92.4034L144.178 76.6935C144.178 75.2571 144.713 74.4043 146.188 74.1807C146.456 74.1352 146.588 73.9989 146.588 73.8312C146.595 73.746 146.568 73.6616 146.514 73.5962C146.459 73.5308 146.381 73.4897 146.296 73.4817H140.382C140.29 73.4817 140.202 73.5185 140.136 73.584C140.071 73.6496 140.035 73.7385 140.035 73.8312C140.035 74.0094 140.17 74.1457 140.438 74.1807C141.913 74.4498 142.626 74.8971 142.671 76.6935L142.894 87.465L131.007 73.4607H125.949C125.857 73.4607 125.769 73.4975 125.703 73.5631C125.638 73.6286 125.601 73.7175 125.601 73.8102C125.601 74.0339 125.734 74.1597 126.005 74.2121C127.254 74.3938 127.835 74.7993 127.835 76.0085L127.744 89.1601C127.744 90.5965 127.209 91.4493 125.734 91.6729C125.466 91.7184 125.334 91.8547 125.334 92.0224C125.329 92.0665 125.334 92.1109 125.348 92.153C125.362 92.1951 125.384 92.2338 125.413 92.2667C125.443 92.2996 125.479 92.3259 125.519 92.344C125.559 92.3622 125.603 92.3717 125.647 92.3719H131.543C131.635 92.3719 131.724 92.3351 131.789 92.2696C131.854 92.204 131.891 92.1151 131.891 92.0224C131.891 91.8442 131.755 91.7079 131.487 91.6729C130.444 91.4947 129.299 91.2256 129.254 89.1601L129.118 75.9211L143.061 92.3929L144.087 92.4034Z" fill="white"/>
  </g>
  <defs>
    <clipPath id="clip0_3455_2049">
      <rect width="166" height="127" fill="white"/>
    </clipPath>
  </defs>
</svg>
