<svg width="231" height="73" viewBox="0 0 231 73" fill="none" xmlns="http://www.w3.org/2000/svg">
  <path d="M230.987 23.9167V29.2307C230.987 39.1313 226.12 61.0023 202.291 72.665C178.435 61.0303 173.568 39.1313 173.568 29.2307V23.9167H230.987Z" fill="#B0B7BC"/>
  <path d="M202.291 0.00431589C202.291 0.00431589 221.03 -0.275364 230.987 3.66812V23.917H173.568V3.66812C183.553 -0.247396 202.291 0.00431589 202.291 0.00431589Z" fill="#B5121B"/>
  <path d="M179.808 5.93336C179.752 5.93336 179.696 5.96133 179.668 5.96133C179.696 5.90539 179.752 5.84946 179.836 5.79352C179.948 5.68165 180.116 5.59774 180.339 5.59774C180.507 5.59774 180.731 5.65368 180.983 5.84946C180.955 5.87742 180.899 5.90539 180.871 5.93336C180.787 5.9893 180.731 6.04523 180.675 6.12914C180.591 6.04523 180.395 5.93336 180.088 5.93336C179.976 5.90539 179.892 5.90539 179.808 5.93336ZM180.395 7.66738C180.256 7.61144 180.116 7.61144 180.004 7.61144C179.696 7.61144 179.5 7.75128 179.389 7.91909C179.305 8.03096 179.249 8.14283 179.221 8.2547C179.249 8.22674 179.305 8.19877 179.333 8.1708C179.556 8.03096 179.752 8.00299 179.92 8.00299C180.032 8.00299 180.116 8.03096 180.172 8.03096C180.256 7.83518 180.367 7.72331 180.395 7.66738C180.395 7.69534 180.395 7.69534 180.395 7.66738ZM180.591 6.6885C180.563 6.71646 180.563 6.74443 180.563 6.74443V6.7724C180.563 6.80037 180.535 6.82834 180.535 6.88427C180.535 6.96818 180.563 7.05208 180.703 7.13598C180.871 7.21989 181.178 7.44363 181.43 7.61144C181.514 7.35973 181.654 7.16395 181.85 6.96818L181.458 6.21304V6.18507L181.43 6.12914C181.402 6.10117 181.346 6.0732 181.29 6.0732C181.234 6.0732 181.178 6.10117 181.095 6.1571C180.843 6.35288 180.675 6.57663 180.591 6.6885ZM182.018 19.6656C181.934 19.8335 181.906 20.0292 181.906 20.1691V20.197C181.906 20.1691 181.934 20.1411 181.962 20.1131C182.101 19.8335 182.353 19.6936 182.521 19.6097C182.493 19.4978 182.465 19.358 182.437 19.2461C182.241 19.358 182.101 19.4978 182.018 19.6656ZM182.773 10.604C183.136 10.9117 183.36 10.9956 183.472 10.9956C183.556 10.9956 183.612 10.9676 183.668 10.8837C183.696 10.8278 183.752 10.7718 183.807 10.6879C183.863 10.604 183.863 10.5201 183.863 10.4362C183.863 10.2684 183.807 10.0726 183.752 9.98872C183.724 9.90482 182.885 8.00299 182.661 7.24786C182.633 7.13598 182.633 7.02411 182.605 6.96818L182.577 6.94021C182.577 6.94021 182.549 6.94021 182.521 6.94021C182.465 6.94021 182.381 6.96818 182.297 7.02411C181.794 7.33176 181.598 7.77925 181.598 8.28267C181.626 9.17765 182.297 10.2404 182.773 10.604ZM181.318 8.0869C181.318 8.05893 181.318 8.03096 181.318 7.97502C181.318 7.91909 181.011 7.80722 180.983 7.80722C180.871 7.77925 180.731 7.77925 180.619 7.89112C180.535 8.00299 180.367 8.2547 180.367 8.47845C180.367 8.56235 180.395 8.64626 180.451 8.70219C180.507 8.75813 180.591 8.81406 180.731 8.87C180.983 8.9539 181.234 9.00984 181.458 9.09374C181.374 8.81406 181.318 8.53438 181.318 8.2547C181.318 8.19877 181.318 8.14283 181.318 8.0869ZM182.633 4.98245C182.661 4.98245 182.689 4.98245 182.717 4.98245C182.857 4.98245 182.968 5.03838 183.052 5.06635C183.024 4.70277 182.885 4.50699 182.717 4.36715C182.549 4.22731 182.353 4.19934 182.185 4.19934C182.157 4.19934 182.101 4.19934 182.073 4.19934C182.101 4.22731 182.157 4.25528 182.185 4.28325C182.521 4.56293 182.605 4.84261 182.633 4.98245ZM181.906 6.01726C181.934 6.12914 181.962 6.26898 182.018 6.38085C182.018 6.40882 182.157 6.74443 182.129 6.74443C182.157 6.74443 182.157 6.71646 182.185 6.71646C182.297 6.66053 182.437 6.60459 182.549 6.60459C182.605 6.60459 182.661 6.60459 182.717 6.63256C182.745 6.52069 182.801 6.40882 182.857 6.26898C182.912 6.10117 182.968 5.96133 182.968 5.87742C182.968 5.82149 182.968 5.76555 182.968 5.68165C182.968 5.59774 182.968 5.48587 182.912 5.42994C182.884 5.374 182.829 5.31806 182.689 5.31806C182.633 5.31806 182.577 5.31806 182.521 5.34603C182.325 5.40197 182.045 5.4579 181.934 5.65368C181.85 5.76555 181.878 5.87742 181.906 6.01726ZM185.29 6.38085C185.486 6.12914 185.541 5.90539 185.541 5.73758C185.541 5.54181 185.458 5.374 185.346 5.23416C185.29 5.15026 185.206 5.09432 185.178 5.06635C185.178 5.09432 185.206 5.15026 185.206 5.20619C185.234 5.2901 185.234 5.374 185.234 5.4579C185.234 5.76555 185.094 5.96133 185.038 6.04523C185.122 6.1571 185.206 6.26898 185.29 6.38085ZM191.75 5.09432C191.75 4.98245 191.834 4.84261 191.89 4.7587C191.974 4.64683 192.114 4.50699 192.058 4.36715C192.03 4.28325 191.918 4.22731 191.918 4.11544C191.918 4.0595 191.946 4.00357 192.002 3.9756C192.058 3.91966 192.142 3.8917 192.226 3.86373C192.478 3.77983 193.261 3.50014 193.261 3.50014C193.345 3.41624 193.372 3.36031 193.456 3.2764C193.54 3.1925 193.708 3.10859 194.044 3.05266C194.855 2.88485 197.092 2.74501 197.288 2.71704C197.344 2.71704 197.428 2.74501 197.54 2.82891C197.68 2.94078 197.819 3.10859 197.931 3.24843C197.987 3.30437 198.043 3.38827 198.071 3.41624C198.099 3.47218 198.127 3.50014 198.127 3.50014L198.155 3.55608L198.183 3.52811C198.183 3.52811 198.211 3.50014 198.267 3.50014C198.323 3.50014 198.379 3.47218 198.435 3.47218C198.519 3.47218 198.63 3.50014 198.714 3.55608C198.798 3.61202 198.882 3.72389 198.938 3.91966C198.966 4.00357 198.966 4.11544 198.966 4.19934C198.966 4.73074 198.603 5.26213 198.351 5.54181L198.323 5.56978L198.351 5.59774C199.19 6.82834 199.33 7.94706 199.33 8.31064C199.218 8.1708 199.078 7.91909 199.078 7.91909C199.078 7.91909 199.05 7.89112 199.022 7.83518C198.994 7.80722 198.938 7.75128 198.882 7.72331C198.854 7.72331 198.854 7.72331 198.826 7.72331C198.798 7.72331 198.742 7.72331 198.714 7.77925C198.686 7.80722 198.658 7.86315 198.658 7.89112C198.658 7.94706 198.658 8.00299 198.686 8.05893C199.05 9.12171 199.106 10.2404 199.106 10.8557C199.106 10.8837 199.106 10.8837 199.106 10.9117C198.966 10.6879 198.742 10.3243 198.742 10.3243C198.686 10.2125 198.603 10.1565 198.519 10.1565C198.463 10.1565 198.435 10.1845 198.407 10.2125C198.379 10.2404 198.379 10.2964 198.379 10.3243C198.379 10.3523 198.379 10.3803 198.407 10.4082C198.603 10.9117 198.658 11.3871 198.658 11.8066C198.658 12.394 198.547 12.8694 198.407 13.233C198.351 13.4008 198.295 13.5407 198.239 13.6525C198.239 13.6805 198.211 13.7085 198.211 13.7364C198.183 13.6805 198.155 13.6246 198.099 13.5407C198.015 13.4008 197.903 13.205 197.847 13.0652C197.819 13.0093 197.791 12.9533 197.763 12.8974C197.736 12.8694 197.68 12.8415 197.652 12.8415C197.596 12.8415 197.568 12.8694 197.54 12.8974C197.512 12.9254 197.512 12.9813 197.512 13.0372C197.512 13.0652 197.512 13.0932 197.512 13.0932C197.512 13.205 197.512 13.3169 197.512 13.4008C197.512 14.3797 197.12 15.0789 196.729 15.4984C196.533 15.7222 196.337 15.89 196.197 15.9739C196.141 16.0298 196.085 16.0578 196.029 16.0857C196.029 15.834 196.029 15.023 196.029 14.6873C196.029 14.6314 196.001 14.5755 195.974 14.5195C195.946 14.4916 195.918 14.4356 195.862 14.4356C195.834 14.4356 195.806 14.4356 195.778 14.4636C195.75 14.4916 195.722 14.5195 195.722 14.5475C195.442 15.1908 195.162 15.5544 194.911 15.7781C194.659 15.9739 194.463 16.0298 194.295 16.0298C194.212 16.0298 194.156 16.0298 194.128 16.0018C194.156 15.9459 194.212 15.862 194.267 15.7501C194.351 15.5544 194.435 15.3306 194.435 15.1069C194.435 14.9391 194.379 14.7992 194.267 14.6873C194.156 14.5755 193.96 14.5195 193.652 14.5195C193.568 14.5195 193.484 14.5195 193.373 14.5475C192.701 14.6314 191.778 15.0509 190.995 15.4425C190.352 15.7781 189.793 16.1137 189.653 16.1976C189.485 15.862 189.429 15.5823 189.429 15.3026C189.429 14.9111 189.541 14.6034 189.681 14.3797C189.737 14.2678 189.793 14.1839 189.849 14.128C189.877 14.1 189.876 14.072 189.904 14.072L189.932 14.0441C189.932 14.0441 189.96 14.0161 189.988 13.9881C190.016 13.9602 190.044 13.9042 190.044 13.8483C190.044 13.8203 190.016 13.7644 189.988 13.7364C189.96 13.7085 189.904 13.7085 189.849 13.7085C189.513 13.7364 189.261 13.8483 189.065 13.9881C188.926 14.072 188.842 14.156 188.758 14.2399C188.814 13.1771 189.177 12.5058 189.597 12.0584C190.016 11.6109 190.464 11.4151 190.576 11.3871C190.66 11.3592 190.716 11.3312 190.744 11.2752C190.771 11.2473 190.799 11.1913 190.799 11.1634C190.799 11.1354 190.799 11.1074 190.799 11.1074C190.799 11.0795 190.771 11.0515 190.744 11.0235C190.688 10.9676 190.576 10.9676 190.576 10.9676C190.576 10.9676 190.324 10.9117 190.1 10.8557C189.988 10.8278 189.849 10.7998 189.765 10.7718C189.737 10.7718 189.709 10.7439 189.681 10.7439C190.38 9.87685 191.387 9.73701 191.918 9.73701C192.03 9.73701 192.142 9.73701 192.198 9.73701C192.226 9.73701 192.254 9.73701 192.282 9.73701C192.31 9.73701 192.31 9.73701 192.31 9.73701C192.338 9.73701 192.394 9.73701 192.422 9.73701C192.505 9.73701 192.561 9.70904 192.617 9.68107C192.673 9.65311 192.701 9.59717 192.701 9.54123C192.701 9.4853 192.673 9.42936 192.645 9.42936C192.617 9.40139 192.589 9.40139 192.589 9.40139H192.561C192.533 9.37343 192.422 9.31749 192.17 9.17765C192.086 9.12171 192.03 9.09374 192.002 9.06578C191.974 9.03781 191.974 9.00984 191.974 9.00984V8.98187C192.03 8.98187 192.142 8.98187 192.254 9.00984C192.422 9.00984 192.617 9.03781 192.673 9.06578C192.925 9.14968 193.149 9.20562 193.345 9.20562C193.708 9.20562 193.988 9.06578 194.156 8.87C194.323 8.70219 194.435 8.50642 194.491 8.39454C194.547 8.31064 194.575 8.22674 194.575 8.14283C194.575 7.97503 194.491 7.86315 194.351 7.83518C194.267 7.80722 194.156 7.77925 193.988 7.77925C193.82 7.77925 193.624 7.80722 193.456 7.97502C193.345 8.0869 193.261 8.11486 193.205 8.11486C193.177 8.11486 193.149 8.11486 193.121 8.0869H193.093L192.757 7.77925C192.617 7.75128 192.533 7.69534 192.478 7.66738C192.422 7.63941 192.422 7.61144 192.422 7.61144L192.45 7.58347C192.45 7.58347 192.478 7.5555 192.506 7.5555C192.701 7.44363 192.785 7.41566 192.953 7.41566C193.121 7.41566 193.345 7.44363 193.736 7.44363C193.792 7.44363 193.876 7.44363 193.96 7.44363C194.267 7.44363 194.435 7.33176 194.547 7.19192C194.659 7.05208 194.687 6.88427 194.687 6.74443C194.687 6.54866 194.631 6.40882 194.631 6.40882C194.631 6.40882 194.435 5.82149 194.016 5.17822C193.904 4.98245 193.736 4.92651 193.596 4.92651C193.372 4.92651 193.149 5.06635 192.981 5.17822C192.813 5.2901 192.701 5.42994 192.701 5.42994C192.561 5.56978 192.422 5.59774 192.282 5.59774C192.142 5.59774 192.002 5.54181 191.89 5.42994C191.834 5.374 191.778 5.23416 191.75 5.09432ZM193.904 3.94763C194.016 4.00357 194.128 4.0595 194.212 4.11544L194.24 4.14341L194.267 4.11544C194.267 4.11544 194.379 4.00357 194.519 3.8917C194.575 3.83576 194.799 3.69592 194.771 3.61202C194.743 3.47218 194.128 3.63998 194.044 3.66795C193.96 3.69592 193.876 3.72389 193.848 3.75186C193.82 3.75186 193.792 3.77982 193.792 3.77982L193.764 3.80779C193.652 3.91966 193.876 3.94763 193.904 3.94763ZM182.996 7.16395C183.136 7.72331 183.668 8.95391 183.919 9.54123C184.003 9.73701 184.059 9.84888 184.059 9.84888C184.059 9.84888 184.199 10.1286 184.199 10.4362C184.199 10.576 184.171 10.7439 184.087 10.8837C183.975 11.0795 183.863 11.1913 183.863 11.2193V11.2473C183.863 11.2473 183.835 11.2752 183.835 11.3032C183.807 11.3592 183.779 11.4431 183.779 11.527C183.779 11.6109 183.807 11.7507 183.891 11.8905C183.891 11.8905 184.003 12.0584 184.115 12.2541C184.227 12.4499 184.367 12.6736 184.451 12.7855C184.479 12.8135 184.507 12.8694 184.535 12.8974C184.563 12.9254 184.591 12.9533 184.591 12.9533V12.9254C184.591 12.8974 184.619 12.8415 184.619 12.7296C184.619 12.7016 184.619 12.7016 184.619 12.6736V12.6457C184.619 12.5338 184.619 12.366 184.646 12.2541C184.646 12.1423 184.73 12.0863 184.814 12.0863C184.87 12.0863 184.954 12.1423 184.982 12.2262C185.01 12.3101 185.038 12.4779 185.094 12.6457C185.094 12.6457 185.094 12.6736 185.122 12.7016C185.122 12.7296 185.15 12.7855 185.178 12.8415C185.234 12.9533 185.318 13.1211 185.43 13.2889C185.625 13.6246 185.961 13.9602 186.381 14.156C186.381 14.1 186.381 14.0441 186.381 14.0161C186.381 13.7924 186.381 13.6525 186.381 13.5966C186.381 13.5966 186.381 13.5686 186.381 13.5407C186.381 13.5127 186.381 13.4847 186.381 13.4568C186.381 13.4288 186.436 13.4008 186.464 13.4008C186.492 13.4008 186.52 13.4288 186.548 13.4288C186.576 13.4568 186.604 13.4568 186.604 13.4847C186.632 13.5127 186.632 13.5407 186.66 13.5407L186.688 13.5686C186.688 13.5686 186.716 13.5966 186.744 13.6525C186.772 13.7085 186.856 13.7924 186.912 13.9042C187.052 14.128 187.275 14.4077 187.527 14.6873C188.003 15.2187 188.59 15.7222 189.121 15.834C189.093 15.6942 189.065 15.5264 189.065 15.3865C189.065 15.0789 189.121 14.7992 189.233 14.5195C189.177 14.5755 189.121 14.6034 189.065 14.6314L188.31 15.2747L188.338 14.2958C188.394 13.2889 188.702 12.4779 189.289 11.8346C189.485 11.6388 189.681 11.471 189.904 11.3312C189.821 11.3032 189.737 11.3032 189.681 11.2752C189.653 11.2752 189.597 11.2473 189.569 11.2473L189.345 11.1913C188.031 10.9956 186.129 10.4362 184.339 8.73016C184.115 8.53438 183.891 8.19877 183.891 7.80722C183.891 7.61144 183.947 7.41566 184.115 7.21989C184.255 7.02411 184.507 6.8563 184.87 6.74443H184.898L184.954 6.71646C184.982 6.6885 185.01 6.66053 185.01 6.63256C185.01 6.57662 184.954 6.43678 184.73 6.26898C184.451 6.04523 184.227 5.87742 184.087 5.76555C183.947 5.65368 183.891 5.62571 183.891 5.62571C183.863 5.62571 183.807 5.62571 183.724 5.73758C183.556 5.90539 182.996 6.35288 182.996 6.94021C182.968 6.96818 182.968 7.05208 182.996 7.16395ZM185.01 17.1206V17.0646C185.01 17.0087 184.982 16.9248 184.87 16.8409C184.758 16.757 184.646 16.6731 184.563 16.5892C184.479 16.5332 184.451 16.4773 184.423 16.4773C184.423 16.4773 184.395 16.4773 184.367 16.4773C184.339 16.4773 184.283 16.4773 184.199 16.5332C184.171 16.5332 184.171 16.5612 184.115 16.5612C184.087 16.5892 184.031 16.6171 183.975 16.6451C183.863 16.701 183.724 16.7849 183.584 16.8968C183.612 16.9248 183.64 16.9528 183.668 16.9807C183.835 17.1765 184.115 17.4282 184.451 17.596C184.591 17.652 184.758 17.7079 184.898 17.7359C184.898 17.6799 184.87 17.596 184.87 17.5401C184.926 17.3163 185.01 17.1206 185.01 17.1206ZM182.689 17.0087C182.409 17.0087 182.213 17.1206 182.073 17.2324C181.99 17.2884 181.934 17.3723 181.878 17.4282C181.906 17.4282 181.934 17.4002 181.962 17.4002C182.101 17.3443 182.241 17.3163 182.381 17.3163C182.493 17.3163 182.605 17.3443 182.689 17.3723C182.745 17.2604 182.829 17.1485 182.94 17.0646C182.857 17.0367 182.773 17.0087 182.689 17.0087ZM184.507 15.5544C184.339 15.4425 184.171 15.4145 184.031 15.3865C184.059 15.4145 184.087 15.4145 184.115 15.4425C184.451 15.6942 184.535 15.9739 184.535 16.1417C184.563 16.1417 184.563 16.1417 184.591 16.1696H184.619L184.646 16.1976C184.646 16.1976 184.814 16.3375 184.982 16.4773C184.954 15.9739 184.73 15.7222 184.507 15.5544ZM219.523 18.0435C219.606 18.0155 219.662 17.9316 219.746 17.8477C219.774 17.8198 219.802 17.7918 219.858 17.7638C219.69 17.6799 219.523 17.652 219.383 17.652C219.131 17.652 218.935 17.7638 218.767 17.8757C218.684 17.9316 218.628 17.9876 218.572 18.0435C218.6 18.0435 218.628 18.0155 218.656 18.0155C218.795 17.9596 218.935 17.9316 219.047 17.9316C219.271 17.9316 219.439 18.0155 219.523 18.0435ZM219.467 18.7707C219.467 18.9664 219.606 19.1902 219.718 19.33C219.802 19.4419 219.942 19.4699 220.082 19.4978C220.222 19.5258 220.362 19.5538 220.501 19.5538C220.613 19.5538 220.921 19.4978 220.809 19.33C220.753 19.2461 220.669 19.1902 220.613 19.0783C220.557 18.9664 220.501 18.8546 220.473 18.7427C220.418 18.5749 220.39 18.4071 220.362 18.2393C220.362 18.1833 220.334 18.1274 220.306 18.0715C220.278 18.0155 220.222 17.9876 220.166 17.9876C220.138 17.9876 220.082 18.0155 219.998 18.0994C219.718 18.3791 219.662 18.4351 219.579 18.5469C219.467 18.6029 219.467 18.6868 219.467 18.7707ZM218.208 20.3369C218.096 20.5327 218.068 20.7564 218.068 20.8962V20.9242C218.096 20.8962 218.096 20.8683 218.124 20.8403C218.348 20.4488 218.628 20.3369 218.767 20.3089C218.767 20.253 218.739 20.197 218.739 20.1411C218.739 20.0572 218.739 20.0013 218.767 19.9174C218.767 19.9174 218.767 19.9174 218.767 19.8894C218.488 20.0013 218.32 20.1691 218.208 20.3369ZM203.301 17.4562C203.385 17.4562 203.441 17.4562 203.497 17.4562C203.553 17.4562 203.581 17.4562 203.637 17.4562H203.665C203.693 17.4562 203.721 17.4562 203.749 17.4562C203.637 17.1485 203.469 16.9528 203.301 16.8409C203.105 16.729 202.91 16.6731 202.742 16.6731C202.686 16.6731 202.658 16.6731 202.602 16.6731C202.63 16.6731 202.658 16.701 202.686 16.701C203.105 16.8968 203.245 17.1765 203.273 17.3163L203.301 17.4562ZM220.613 21.12C220.585 21.092 220.557 21.064 220.529 21.0081C220.39 21.2319 220.334 21.4276 220.334 21.6234C220.334 21.959 220.529 22.2107 220.669 22.3506C220.669 22.3226 220.641 22.2946 220.641 22.2667C220.613 22.1548 220.613 22.0429 220.613 21.959C220.613 21.6793 220.697 21.5115 220.781 21.4276L220.837 21.3437L220.809 21.3158C220.753 21.2319 220.697 21.148 220.613 21.12ZM222.991 21.2039L222.963 21.12H222.683C222.655 21.12 222.599 21.12 222.543 21.12C222.655 21.4556 222.823 21.6514 222.991 21.7632C223.186 21.8751 223.41 21.9031 223.578 21.9031H223.606C223.578 21.9031 223.55 21.8751 223.522 21.8472C223.158 21.6514 223.019 21.3437 222.991 21.2039ZM184.115 20.5327C183.863 20.7564 183.807 21.0361 183.807 21.2598C183.807 21.3717 183.835 21.4836 183.835 21.5675C183.835 21.5395 183.863 21.5115 183.863 21.4836C183.947 21.1759 184.143 20.9801 184.283 20.8683C184.255 20.8123 184.199 20.7284 184.143 20.6725C184.143 20.6166 184.115 20.5886 184.115 20.5327ZM200.365 17.7918C200.085 17.7918 199.861 17.9316 199.721 18.0155C199.749 18.0155 199.777 18.0155 199.805 18.0155C199.861 18.0155 199.889 18.0155 199.945 18.0155C200.085 18.0155 200.225 18.0435 200.337 18.0715C200.42 17.9596 200.504 17.9037 200.588 17.8198C200.504 17.7918 200.42 17.7918 200.365 17.7918ZM200.728 19.0783C200.728 19.1063 200.728 19.1063 200.728 19.1343C200.728 19.1902 200.728 19.1902 200.784 19.2182C200.84 19.2461 200.924 19.2741 201.092 19.2741C201.176 19.2741 201.232 19.2741 201.315 19.2741C201.427 19.2741 201.483 19.2741 201.539 19.2461C201.567 19.1902 201.567 19.1343 201.595 19.0783C201.623 18.9664 201.679 18.8546 201.679 18.7427C201.707 18.6308 201.707 18.5469 201.707 18.463C201.707 18.4071 201.707 18.3512 201.707 18.2672C201.595 18.1554 201.427 17.9876 201.343 17.9316C201.287 17.9037 201.232 17.8477 201.148 17.8477C201.092 17.8477 201.008 17.8757 200.924 17.9316C200.84 17.9876 200.756 18.0435 200.672 18.1274C200.616 18.1833 200.56 18.2672 200.56 18.3232C200.56 18.3512 200.56 18.4071 200.616 18.463C200.728 18.6308 200.756 18.7707 200.756 18.8825C200.728 18.9944 200.728 19.0504 200.728 19.0783ZM223.662 19.6377C223.606 19.5538 223.578 19.4699 223.578 19.386C223.578 19.1622 223.718 18.9944 223.83 18.8266C223.858 18.7986 223.858 18.7707 223.886 18.7707C223.997 18.6029 224.053 18.4071 224.053 18.1833C224.053 17.9037 223.942 17.5401 223.578 17.1485C223.578 17.1485 223.494 17.0646 223.494 16.8688C223.494 16.729 223.522 16.5053 223.662 16.1696C223.774 15.89 223.886 15.6383 223.886 15.3865C223.886 15.2747 223.858 15.1348 223.774 14.995C223.718 15.2187 223.662 15.6942 223.354 15.6662C223.13 15.6662 223.158 15.3865 223.158 15.2187C223.158 15.1908 223.158 15.1348 223.186 15.0789C223.214 14.967 223.214 14.7992 223.214 14.6034C223.214 14.3238 223.186 14.0161 223.075 13.7085C223.019 13.9042 222.991 14.0441 222.907 14.128C222.879 14.156 222.823 14.1839 222.795 14.1839C222.739 14.1839 222.683 14.156 222.655 14.1C222.627 14.0441 222.599 14.0161 222.571 13.9602C222.543 13.8483 222.543 13.7644 222.515 13.7644C222.515 13.7644 222.487 13.5127 222.403 13.261C222.347 13.0093 222.263 12.7296 222.207 12.5897C222.207 12.6736 222.18 12.7855 222.152 12.8974C222.124 13.0372 222.096 13.233 221.928 13.2889C221.816 13.3169 221.76 13.205 221.76 13.0932C221.732 12.9813 221.704 12.8415 221.676 12.7296C221.62 12.5338 221.564 12.3101 221.48 12.1143C221.452 12.0024 221.396 11.9465 221.368 11.9185C221.368 11.9465 221.34 11.9744 221.34 12.0024C221.313 12.0863 221.257 12.1702 221.173 12.2821C221.033 12.5058 220.837 12.7855 220.585 12.9813C220.082 13.3728 219.662 13.4008 219.327 13.4008C218.823 13.4008 217.956 13.233 217.201 12.7576C216.782 12.4779 216.055 12.0584 215.579 11.7227L215.467 11.6388H215.635C215.803 11.6388 215.971 11.6388 216.138 11.6388C216.866 11.6388 217.649 11.5549 218.152 11.3032C218.795 10.9956 219.103 10.576 219.411 10.1845C219.718 9.79294 219.998 9.37343 220.557 9.06578C220.893 8.87 221.257 8.81406 221.592 8.81406C221.984 8.81406 222.319 8.89797 222.459 8.9539C222.319 8.45048 221.732 8.00299 221.005 8.00299C220.473 8.00299 219.914 8.22674 219.383 8.81406L219.299 8.89797V8.7861V8.75813C219.299 8.73016 219.299 8.73016 219.299 8.70219C219.299 8.64626 219.271 8.56235 219.271 8.47845C219.215 8.28267 219.131 8.03096 218.963 7.77925C218.6 7.27582 217.9 6.7724 216.474 6.7724C216.362 6.7724 216.25 6.7724 216.11 6.7724C214.936 6.82834 212.754 7.52754 210.741 7.91909C208.783 8.31064 205.874 8.47845 204.644 8.47845C204.168 8.47845 203.721 8.42251 203.301 8.33861C202.91 8.2547 202.574 8.0869 202.35 7.86315C202.21 7.69534 202.126 7.52754 202.126 7.30379C202.126 6.8563 202.378 6.57662 202.686 6.43678C202.993 6.29694 203.385 6.26898 203.665 6.26898C204.616 6.26898 205.93 6.85631 206.993 7.24786C207.748 7.52754 208.475 7.52754 208.895 7.52754C209.985 7.52754 211.384 6.94021 212.083 6.66053C212.642 6.43678 213.118 6.26898 213.929 6.26898C214.125 6.26898 214.348 6.26898 214.572 6.29694C214.265 5.96133 213.621 5.62571 212.782 5.62571C212.251 5.62571 211.608 5.76555 210.964 6.12914L210.908 6.1571L210.88 6.10117C210.852 6.04523 210.825 5.9893 210.825 5.90539C210.825 5.73758 210.908 5.54181 211.076 5.34603C211.216 5.17822 211.412 5.03838 211.664 4.95448C211.496 4.87058 211.244 4.7587 210.88 4.70277C210.461 4.61887 209.958 4.53496 209.398 4.53496C209.342 4.53496 209.286 4.53496 209.202 4.53496C208.279 4.56293 207.664 4.78667 207.077 5.01042C206.462 5.23416 205.874 5.4579 205.007 5.4579C204.923 5.4579 204.839 5.4579 204.783 5.4579C204.616 5.4579 204.448 5.4579 204.252 5.4579C203.413 5.4579 202.658 5.56978 202.099 5.82149C201.539 6.10117 201.204 6.52069 201.204 7.16395C201.204 7.72331 201.539 8.19877 202.154 8.56235C202.77 8.89797 203.665 9.09374 204.755 9.09374C204.783 9.09374 204.811 9.09374 204.811 9.09374C207.552 9.06578 210.853 8.42251 212.866 8.0869C213.537 7.97502 214.936 7.58347 216.138 7.58347C216.698 7.58347 217.201 7.66738 217.565 7.89112C217.956 8.11486 218.18 8.50642 218.18 9.06578C218.18 9.34546 218.124 9.70904 217.872 9.98872C217.621 10.2684 217.201 10.4921 216.502 10.4921C215.691 10.4921 214.768 10.2684 213.649 10.1006H213.565C213.342 10.0726 213.09 10.0447 212.81 9.98872C211.188 9.79294 209.091 9.6531 207.916 9.6531C207.804 9.6531 207.692 9.6531 207.608 9.6531C206.713 9.68107 204.979 9.79294 203.329 10.0447C201.623 10.3243 200.057 10.6879 199.553 10.7998V10.8557L199.525 12.4219L199.078 11.7227C199.078 11.7507 199.078 11.7787 199.078 11.8066C199.078 12.4499 198.938 13.0093 198.826 13.3728C198.742 13.5686 198.686 13.7364 198.63 13.8203C198.603 13.8483 198.603 13.8763 198.603 13.9042L198.239 14.6034L197.903 14.0441C197.791 14.7153 197.512 15.3026 197.064 15.8061C196.952 15.9179 196.757 16.1137 196.505 16.3095C196.477 16.3375 196.477 16.3375 196.449 16.3654C196.365 16.4214 196.309 16.4773 196.253 16.5053L195.582 16.8968V15.7222C195.442 15.89 195.302 16.0578 195.162 16.1696C194.883 16.4214 194.575 16.5332 194.267 16.5332C194.156 16.5332 194.072 16.5053 193.96 16.4773L193.4 16.3095L193.708 15.834C193.736 15.8061 193.792 15.7222 193.82 15.6103C193.932 15.3865 193.96 15.2467 193.96 15.1628C193.96 15.1348 193.96 15.1069 193.932 15.0789C193.904 15.0509 193.792 15.023 193.624 15.023C193.54 15.023 193.484 15.023 193.4 15.0509C193.065 15.0789 192.394 15.2747 191.163 15.9179C190.52 16.2536 189.904 16.6171 189.289 16.9807C188.898 17.2324 188.506 17.4562 188.087 17.652C187.499 17.9596 186.884 18.2393 186.241 18.3232C186.073 18.3512 185.877 18.3791 185.709 18.3791C185.43 18.3791 185.178 18.2952 185.038 18.1274C184.758 18.0994 184.507 18.0435 184.283 17.9316C184.031 17.7918 183.807 17.624 183.64 17.4841C183.5 17.3723 183.416 17.2324 183.332 17.1485C183.024 17.4282 182.745 17.7918 182.689 18.2672C182.689 18.3791 182.689 18.491 182.689 18.6029C182.689 18.6588 182.689 18.7147 182.689 18.7707C182.745 18.7707 182.801 18.7707 182.857 18.7707C184.115 18.7707 184.814 18.5749 184.87 18.5749H184.926C185.01 18.5749 185.066 18.6308 185.094 18.6868V18.7427C185.094 18.8266 185.038 18.8825 184.982 18.9105C184.982 18.9105 184.227 19.1343 182.885 19.1343C182.829 19.1343 182.801 19.1343 182.745 19.1343C182.773 19.4978 182.885 19.8335 183.024 20.0572C183.22 20.3648 183.5 20.4488 183.612 20.4488H183.64C184.674 19.7216 185.346 19.4978 185.374 19.4978C185.402 19.4978 185.402 19.4978 185.43 19.4978C185.513 19.4978 185.569 19.5538 185.597 19.6097C185.597 19.6377 185.597 19.6377 185.597 19.6656C185.597 19.7216 185.541 19.8055 185.486 19.8335H185.458C185.43 19.8335 185.402 19.8614 185.318 19.8894C185.206 19.9453 185.038 20.0013 184.842 20.1131C184.702 20.197 184.563 20.2809 184.395 20.3648V20.3928C184.395 20.4208 184.395 20.4488 184.451 20.5327C184.591 20.7564 184.758 21.0361 184.87 21.2039C184.954 21.3158 185.094 21.4556 185.29 21.4556C185.458 21.4556 185.681 21.3437 185.933 20.9801C186.101 20.7844 186.297 20.6166 186.688 20.6166L187.611 20.5606H187.639C187.639 20.5606 187.667 20.5606 187.695 20.5606C187.723 20.5606 187.779 20.5327 187.863 20.5327C187.975 20.4767 188.142 20.4208 188.226 20.2809C188.282 20.197 188.366 20.1131 188.422 20.0852C188.506 20.0292 188.59 20.0292 188.674 20.0292C188.842 20.0292 189.01 20.0852 189.289 20.1411C189.681 20.253 189.988 20.3089 190.212 20.3089C190.268 20.3089 190.324 20.3089 190.38 20.2809C190.352 20.253 190.324 20.225 190.268 20.1691C190.184 20.0852 190.072 19.9733 190.016 19.8894C189.96 19.8335 189.932 19.7496 189.932 19.6936C189.932 19.6656 189.932 19.6097 189.96 19.5817C190.016 19.5258 190.072 19.4978 190.128 19.4978C190.184 19.4978 190.24 19.5258 190.268 19.5538C190.296 19.5817 190.352 19.6097 190.352 19.6377C190.744 19.9174 191.471 20.1131 192.058 20.1131C192.226 20.1131 192.366 20.1131 192.506 20.0572C192.394 20.0013 192.254 19.9174 192.17 19.8055C192.114 19.7496 192.086 19.6936 192.086 19.6097C192.086 19.5817 192.114 19.5258 192.142 19.4978C192.198 19.4419 192.254 19.4419 192.338 19.4419C192.505 19.4419 192.729 19.4978 192.757 19.4978C192.757 19.4978 192.785 19.4978 192.869 19.5258C192.925 19.5258 193.037 19.5538 193.149 19.5817C193.373 19.6097 193.68 19.6656 193.96 19.6656C194.267 19.6656 194.547 19.6097 194.715 19.4978C194.407 19.2182 194.212 19.0224 194.212 19.0224C194.212 19.0224 194.128 18.9664 194.128 18.8546C194.128 18.8266 194.128 18.7707 194.184 18.7147C194.212 18.6588 194.295 18.6588 194.323 18.6588C194.435 18.6588 194.547 18.7147 194.575 18.7427C194.575 18.7427 194.631 18.7707 194.715 18.7986C194.799 18.8266 194.911 18.8546 195.051 18.9105C195.33 18.9944 195.694 19.0504 196.029 19.0504C196.309 19.0504 196.589 18.9944 196.785 18.8546C196.561 18.7707 196.421 18.6308 196.421 18.6308C196.421 18.6308 196.365 18.5749 196.365 18.491C196.365 18.463 196.365 18.4351 196.393 18.3791C196.421 18.3232 196.477 18.2952 196.505 18.2952C196.561 18.2672 196.589 18.2672 196.645 18.2672C196.673 18.2672 196.701 18.2672 196.701 18.2672C196.813 18.2672 196.896 18.2952 197.008 18.2952C197.568 18.2952 197.875 18.1274 197.987 18.0715L197.428 17.3723C197.484 17.3443 197.652 17.2604 197.68 17.2604C197.736 17.2324 197.847 17.1765 197.959 17.1485C198.183 17.0926 198.491 17.0087 198.854 16.8968C199.581 16.6731 200.588 16.2815 201.595 15.7222C203.581 14.6314 205.539 13.261 207.496 12.7855C207.972 12.6736 208.447 12.6177 208.895 12.6177C209.426 12.6177 209.902 12.6736 210.265 12.7576C210.629 12.8415 211.048 13.1491 211.468 13.5686C211.915 13.9881 212.363 14.4916 212.754 14.9111C213.202 15.4145 213.593 15.7501 213.761 15.89C213.817 15.9459 213.845 15.9739 213.845 15.9739C213.845 15.9739 213.901 16.0298 214.013 16.0857C214.125 16.1417 214.265 16.2536 214.404 16.3375C214.712 16.5332 215.104 16.701 215.439 16.7849C215.411 16.6731 215.271 15.9459 215.579 16.0857C215.719 16.1417 215.775 16.2815 215.887 16.3934C216.027 16.5053 216.138 16.6171 216.306 16.729C216.53 16.8968 216.81 17.0087 217.033 17.0087C217.117 17.0087 217.173 16.9807 217.257 16.9528C217.117 16.7849 217.005 16.6451 217.005 16.6451C217.005 16.6451 216.95 16.5892 216.95 16.5332C216.95 16.4773 216.977 16.4493 217.033 16.4214C217.089 16.3934 217.173 16.3654 217.285 16.3654C217.313 16.3654 217.369 16.3654 217.425 16.3654C217.509 16.3654 217.677 16.3654 217.872 16.3654C218.208 16.3654 218.656 16.3375 219.047 16.2815C219.606 16.1976 220.082 16.0298 220.278 15.9459C220.334 15.9179 220.39 15.9179 220.39 15.9179C220.39 15.9179 220.529 15.862 220.697 15.862C220.781 15.862 220.865 15.89 220.949 15.9179C221.061 16.0018 221.145 16.1137 221.201 16.2536C221.257 16.3934 221.313 16.5332 221.34 16.5892C221.508 16.9807 221.844 17.4282 221.844 18.1833C221.844 18.2952 221.844 18.4071 221.816 18.519C221.788 18.7147 221.732 19.1343 221.536 19.4419C221.173 19.9453 220.809 19.9733 220.753 19.9733C220.725 19.9733 220.669 19.9733 220.557 19.9733C220.501 19.9733 220.418 19.9733 220.334 19.9453C220.082 19.8894 219.83 19.7775 219.634 19.7775C219.579 19.7775 219.523 19.7775 219.467 19.8055C219.243 19.9174 219.215 20.0572 219.187 20.225C219.187 20.3928 219.271 20.5606 219.299 20.6166C219.299 20.6166 219.299 20.6445 219.327 20.6725C219.355 20.7005 219.383 20.7564 219.411 20.8123C219.495 20.9242 219.634 21.0081 219.858 21.0081C219.886 21.0081 219.914 21.0081 219.942 21.0081C220.11 20.9801 220.306 20.8962 220.418 20.7564C220.557 20.6445 220.669 20.5047 220.697 20.4488L220.725 20.4208L221.061 19.9453C221.061 19.9453 221.089 19.9174 221.089 19.8894C221.117 19.8614 221.145 19.8335 221.201 19.8335C221.229 19.8335 221.257 19.8335 221.285 19.8614C221.34 19.8894 221.368 19.9453 221.368 20.0013C221.368 20.0292 221.368 20.0572 221.34 20.0852C221.34 20.1131 221.313 20.1411 221.313 20.1411C221.313 20.1411 221.285 20.197 221.229 20.225C221.201 20.2809 221.145 20.3369 221.089 20.3928C220.977 20.5327 220.893 20.6445 220.893 20.6445V20.6725C220.893 20.7005 220.893 20.7005 220.893 20.7284C220.893 20.7564 220.893 20.8123 220.977 20.8683C221.061 20.9522 221.145 21.064 221.229 21.148C221.285 21.2319 221.341 21.3158 221.452 21.3437C221.676 21.3997 221.9 21.148 222.012 21.0081C222.124 20.8962 222.235 20.7564 222.263 20.6166C222.347 20.3928 222.347 20.1691 222.347 19.9733C222.347 19.8614 222.347 19.7775 222.347 19.6936C222.347 19.6377 222.347 19.5817 222.347 19.5817C222.347 19.5817 222.347 19.5538 222.347 19.5258C222.347 19.4978 222.347 19.4699 222.375 19.4139C222.403 19.386 222.431 19.358 222.487 19.33H222.515C222.599 19.33 222.655 19.386 222.655 19.4139C222.683 19.4419 222.683 19.4978 222.683 19.4978C222.683 19.4978 222.683 19.5538 222.683 19.6656C222.683 19.8055 222.683 19.9733 222.683 20.1691C222.683 20.3369 222.655 20.5047 222.627 20.5886C222.627 20.6166 222.627 20.6445 222.627 20.6445C222.627 20.6725 222.627 20.7005 222.655 20.7005C222.655 20.7005 222.683 20.7284 222.711 20.7284C222.767 20.7564 222.795 20.7564 222.823 20.7564L223.634 20.7284C223.662 20.7284 223.774 20.7284 223.858 20.6725C223.942 20.6166 224.025 20.5047 224.053 20.3089C224.053 20.253 224.053 20.225 224.053 20.197C224.053 20.0292 223.997 19.9174 223.942 19.8614C223.774 19.7775 223.718 19.7216 223.662 19.6377ZM211.72 17.652C211.552 17.624 211.328 17.568 211.132 17.4562C210.741 17.2324 210.489 16.757 210.489 16.4214C210.489 16.0578 210.713 15.5544 211.048 15.1908C211.3 14.9391 211.552 14.7153 211.775 14.5755C211.775 14.5755 210.853 13.6525 210.769 13.5686C210.461 13.3169 210.153 13.0652 209.762 12.9533C209.342 12.8415 208.951 12.9813 208.587 13.1491C208.363 13.261 208.112 13.3728 207.888 13.5127C206.993 14.072 206.545 15.1069 206.406 15.4704C206.434 15.4425 206.489 15.4145 206.545 15.3586C206.685 15.2467 206.853 15.1348 206.965 15.1069C206.993 15.1069 207.049 15.0789 207.077 15.0789C207.161 15.0789 207.217 15.1069 207.245 15.1628C207.273 15.2187 207.273 15.2747 207.273 15.3026C207.273 15.3865 207.245 15.4425 207.245 15.4425C207.245 15.4425 207.217 15.4984 207.217 15.5823C207.189 15.6662 207.161 15.7781 207.133 15.9179C207.077 16.1417 207.021 16.4214 207.021 16.701C207.189 16.4493 207.384 16.2536 207.384 16.2256L207.412 16.1976C207.44 16.1696 207.468 16.1696 207.524 16.1696C207.552 16.1696 207.58 16.1696 207.608 16.1976C207.636 16.2256 207.636 16.2536 207.664 16.2815C207.664 16.3095 207.664 16.3375 207.664 16.3934C207.664 16.729 207.58 17.0926 207.776 17.4002C207.944 17.6799 208.028 17.9037 207.888 18.2113C207.776 18.463 207.496 18.6868 207.273 18.8546C207.133 18.9385 206.965 19.0224 206.741 19.0224C206.545 19.0504 206.238 19.0224 205.986 19.1063C205.65 19.2182 205.371 19.4699 205.035 19.5538C204.923 19.5817 204.839 19.5817 204.728 19.5817C204.336 19.5817 203.861 19.4699 203.581 19.1622C203.441 18.9944 203.385 18.8266 203.385 18.6868C203.385 18.2672 203.749 17.9037 203.777 17.8757L203.805 17.8477C203.805 17.8198 203.833 17.7918 203.833 17.7638V17.7359C203.833 17.7359 203.805 17.7079 203.749 17.7079C203.721 17.7079 203.665 17.7079 203.609 17.7079C203.273 17.7079 202.742 17.7079 202.714 17.7079C202.714 17.7079 202.49 17.7079 202.35 17.8477L202.322 17.8757C202.294 17.9037 202.294 17.9037 202.266 17.9316C202.238 17.9876 202.182 18.0715 202.126 18.1833C202.071 18.3232 202.099 18.5469 202.071 18.8266C202.015 19.0783 201.875 19.386 201.847 19.5817C201.847 19.6097 201.847 19.6656 201.847 19.6936C201.847 19.9733 201.959 20.197 202.071 20.3369C202.406 20.8123 203.049 21.092 203.637 21.2878C204.224 21.4556 204.783 21.5395 205.007 21.5675C205.063 21.5675 205.091 21.5675 205.091 21.5675C205.175 21.5395 206.098 21.2878 206.406 21.2319C206.713 21.1759 207.496 21.092 207.832 21.0361L207.329 20.7844C207.329 20.7844 207.301 20.7564 207.273 20.7284C207.245 20.7005 207.217 20.6445 207.217 20.5886C207.217 20.5606 207.217 20.5327 207.245 20.5047C207.273 20.4488 207.301 20.4208 207.329 20.4208C207.357 20.3928 207.412 20.3928 207.44 20.3928C207.496 20.3928 207.524 20.3928 207.524 20.3928C207.552 20.3928 207.664 20.4208 207.832 20.4208C208.028 20.4208 208.279 20.4488 208.531 20.4488C208.727 20.4488 208.923 20.4488 209.091 20.4208C209.51 20.3648 209.734 20.197 209.818 20.0852C209.79 20.0852 209.762 20.0852 209.734 20.0572C209.65 20.0292 209.566 20.0013 209.51 20.0013C209.426 19.9733 209.314 19.9174 209.258 19.8614C209.23 19.8335 209.202 19.8335 209.174 19.8055C209.146 19.7775 209.118 19.7216 209.118 19.6656V19.6377C209.118 19.6097 209.146 19.5817 209.174 19.5538C209.202 19.5258 209.23 19.5258 209.258 19.4978C209.314 19.4699 209.37 19.4699 209.37 19.4699C209.37 19.4699 209.538 19.4419 209.734 19.4139C209.93 19.386 210.181 19.33 210.377 19.2461C210.657 19.1343 210.964 18.9105 211.104 18.8266C211.048 18.7986 210.992 18.7707 210.936 18.7427C210.797 18.6868 210.629 18.6029 210.517 18.491C210.517 18.491 210.489 18.463 210.461 18.4351C210.433 18.4071 210.405 18.3512 210.405 18.2952V18.2393C210.433 18.2113 210.433 18.1833 210.461 18.1833C210.489 18.1554 210.517 18.1554 210.545 18.1554C210.601 18.1274 210.657 18.1274 210.657 18.1274C210.657 18.1274 210.713 18.1274 210.769 18.0994C210.853 18.0715 210.936 18.0715 211.048 18.0435C211.272 17.9876 211.552 17.9037 211.72 17.8198C211.831 17.7638 211.887 17.7079 211.915 17.652H211.887C211.887 17.6799 211.803 17.6799 211.72 17.652ZM199.861 20.0013C199.777 20.1131 199.721 20.197 199.693 20.2809C199.721 20.253 199.749 20.253 199.777 20.225C199.973 20.0572 200.169 20.0013 200.309 19.9733C200.309 19.9174 200.337 19.8335 200.337 19.8055V19.7775C200.365 19.7216 200.364 19.6656 200.392 19.6377C200.141 19.6936 199.973 19.8335 199.861 20.0013ZM201.763 20.8403C201.707 20.8683 201.651 20.9242 201.623 20.9522C201.595 20.9801 201.567 21.0081 201.539 21.0361C201.511 21.064 201.511 21.092 201.483 21.12C201.483 21.148 201.455 21.2039 201.455 21.2598C201.455 21.3437 201.483 21.4276 201.539 21.5115C201.595 21.5954 201.707 21.6793 201.875 21.7632C202.015 21.8192 202.126 21.8472 202.238 21.8472C202.434 21.8472 202.546 21.7632 202.63 21.6514C202.686 21.5675 202.742 21.4556 202.77 21.3717C202.434 21.2319 202.126 21.0361 201.875 20.7844C201.875 20.7844 201.819 20.8123 201.763 20.8403ZM201.651 20.4767C201.539 20.3089 201.427 20.0572 201.427 19.7216C201.427 19.6656 201.427 19.6377 201.427 19.5817C201.315 19.5817 201.176 19.5538 201.064 19.5538C201.036 19.5538 201.036 19.5538 201.008 19.5538H200.98C200.952 19.5538 200.924 19.5538 200.896 19.5538C200.84 19.5538 200.812 19.5538 200.784 19.6097C200.756 19.6377 200.7 19.7216 200.644 19.8894C200.616 19.9733 200.588 20.1131 200.588 20.225C200.588 20.2809 200.588 20.3369 200.616 20.3648C200.644 20.4208 200.672 20.4488 200.728 20.4767C201.008 20.5886 201.204 20.6166 201.343 20.6166H201.371C201.399 20.6166 201.483 20.6166 201.511 20.5886C201.623 20.5606 201.651 20.5047 201.651 20.4767ZM201.232 21.3717C201.036 21.6234 201.008 21.9031 201.008 22.0709V22.0989C201.008 22.0709 201.036 22.0429 201.064 22.015C201.12 21.8751 201.204 21.7632 201.287 21.7073C201.259 21.6234 201.232 21.5395 201.232 21.4276C201.204 21.4276 201.232 21.3997 201.232 21.3717ZM188.142 6.24101C188.394 6.43678 188.674 6.57662 188.954 6.66053C189.233 6.74443 189.541 6.7724 189.793 6.7724C190.352 6.7724 190.855 6.66053 191.359 6.57662C191.862 6.49272 192.366 6.40882 192.869 6.40882C193.373 6.40882 193.876 6.52069 194.323 6.8563C193.932 6.49272 193.428 6.29694 192.897 6.21304C192.366 6.12914 191.834 6.1571 191.331 6.18507C190.827 6.21304 190.296 6.24101 189.821 6.18507C189.345 6.12914 188.898 5.96133 188.618 5.65368L188.59 5.62571C188.422 5.48587 188.17 5.51384 188.059 5.68165C187.947 5.84946 187.975 6.10117 188.142 6.24101Z" fill="white"/>
  <path d="M189.54 59.9113C189.624 59.4638 189.708 58.9883 189.82 58.5688C190.687 59.0443 192.113 59.296 193.763 59.5757C195.917 59.9672 198.462 60.4147 200.252 61.4775C199.804 61.3097 199.245 61.1139 198.574 60.9181C196.28 60.3028 195.134 60.3588 193.987 60.3867C192.868 60.4147 191.722 60.4706 189.54 59.9113ZM215.159 60.5266C212.837 61.03 211.635 60.9741 210.46 60.9461C209.257 60.8901 208.111 60.8622 205.789 61.3936C204.922 61.5893 204.279 61.7572 203.804 61.9529C204.363 61.8131 205.09 61.7012 206.041 61.5893C208.474 61.3376 209.677 61.5054 210.852 61.6733C211.97 61.8411 213.117 62.0089 215.382 61.7851C215.299 61.3376 215.215 60.9461 215.159 60.5266ZM204.335 61.4495C204.783 61.2817 205.342 61.0859 206.013 60.8901C208.307 60.2749 209.453 60.3308 210.6 60.3588C211.691 60.4147 212.837 60.4427 215.019 59.8833C214.935 59.4358 214.851 58.9604 214.739 58.5408C213.872 59.0163 212.446 59.268 210.796 59.5477C208.67 59.9392 206.125 60.3867 204.335 61.4495ZM194.127 60.9461C192.952 60.9741 191.75 61.03 189.428 60.5266C189.344 60.9461 189.288 61.3376 189.232 61.7572C191.498 61.9809 192.645 61.8131 193.763 61.6453C194.938 61.4775 196.113 61.3097 198.574 61.5614C199.525 61.6733 200.252 61.7851 200.811 61.925C200.308 61.7572 199.664 61.5614 198.825 61.3656C196.448 60.8622 195.329 60.8901 194.127 60.9461ZM192.337 50.7937L189.96 57.9255C191.945 59.2121 199.273 58.9044 202.042 62.1487V54.5694C201.315 51.3251 194.323 52.0802 192.337 50.7937ZM212.222 50.7937C210.236 52.0802 203.244 51.3251 202.517 54.5694V62.1487C205.258 58.8765 212.586 59.2121 214.599 57.9255L212.222 50.7937Z" fill="white"/>
  <path d="M179.667 31.7755L180.002 32.3348C180.142 32.5586 180.366 32.6984 180.646 32.6984H180.673C180.534 32.9781 180.422 33.3696 180.394 33.8451C180.394 33.929 180.394 34.0129 180.394 34.1248C180.394 34.3485 180.394 34.7121 180.31 34.8799C180.282 34.9358 180.198 35.0198 180.142 35.1037C179.974 35.2715 179.723 35.5511 179.862 35.9427C180.002 36.3342 180.366 36.4182 180.59 36.4461C180.673 36.4741 180.785 36.4741 180.841 36.53C181.009 36.6139 181.205 36.8936 181.345 37.0894C181.401 37.1733 181.457 37.2572 181.513 37.3131C181.848 37.7326 182.184 38.0123 182.575 38.1522C182.296 38.292 182.128 38.6276 182.212 38.9632L182.352 39.6065C182.435 39.9421 182.715 40.1938 183.079 40.1938C183.135 40.1938 183.191 40.1938 183.247 40.1659L183.89 40.026C184.169 39.9701 184.365 39.7743 184.449 39.5226C184.701 39.7743 185.037 39.9701 185.456 40.1379C185.54 40.1659 185.624 40.1938 185.708 40.2218C185.931 40.3057 186.267 40.3896 186.407 40.5294C186.463 40.5854 186.519 40.6693 186.547 40.7532C186.659 40.949 186.854 41.2846 187.274 41.2846C187.693 41.2846 187.889 40.949 188.001 40.7532C188.057 40.6693 188.085 40.5854 188.141 40.5294C188.253 40.3896 188.616 40.2777 188.84 40.2218C188.924 40.1938 189.036 40.1659 189.092 40.1379C189.595 39.9421 189.959 39.7184 190.211 39.4107C190.239 39.5226 190.294 39.6345 190.35 39.7463C190.462 39.8862 190.658 39.9981 190.854 40.026L191.497 40.082C191.525 40.082 191.553 40.082 191.581 40.082C191.973 40.082 192.28 39.8023 192.308 39.4107L192.364 38.7675C192.392 38.5717 192.336 38.3759 192.196 38.2361C192.14 38.1801 192.112 38.1242 192.056 38.0962C192.364 37.9284 192.672 37.6767 192.951 37.3131C193.007 37.2572 193.063 37.1733 193.119 37.0894C193.259 36.8936 193.455 36.6139 193.623 36.53C193.707 36.5021 193.79 36.4741 193.874 36.4461C194.098 36.3902 194.49 36.3063 194.602 35.9147C194.713 35.5232 194.462 35.2435 194.322 35.0757C194.266 34.9918 194.182 34.9358 194.154 34.8519C194.07 34.6841 194.07 34.3485 194.07 34.0968C194.07 33.9849 194.07 33.901 194.07 33.8171C194.042 33.2298 193.902 32.8103 193.707 32.5306C193.735 32.5306 193.763 32.5306 193.79 32.5306C194.07 32.5306 194.35 32.3628 194.462 32.0831L194.713 31.4958C194.797 31.328 194.797 31.1042 194.713 30.9364C194.63 30.7406 194.518 30.6008 194.322 30.5169L193.735 30.2652C193.651 30.2372 193.539 30.2093 193.427 30.2093C193.259 30.2093 193.119 30.2652 192.979 30.3491C192.923 30.0135 192.784 29.6219 192.532 29.2583C192.476 29.1744 192.42 29.1185 192.364 29.0346C192.224 28.8388 192.001 28.5591 192.001 28.3913C192.001 28.3074 192.001 28.2235 192.001 28.1117C192.029 27.8879 192.056 27.4964 191.749 27.2446C191.637 27.1607 191.497 27.1048 191.357 27.1048C191.161 27.1048 191.022 27.1607 190.854 27.2446C190.77 27.2726 190.686 27.3286 190.602 27.3286C190.574 27.3286 190.546 27.3286 190.518 27.3286C190.322 27.3286 190.071 27.2446 189.847 27.1607C189.763 27.1328 189.679 27.1048 189.595 27.0768C189.288 26.9929 189.008 26.937 188.756 26.937C188.616 26.937 188.421 26.965 188.253 26.9929C188.309 26.8811 188.337 26.7692 188.337 26.6294C188.337 26.4336 188.253 26.2658 188.085 26.1259L187.61 25.6784C187.47 25.5666 187.302 25.4827 187.106 25.4827C186.91 25.4827 186.687 25.5666 186.547 25.7344L186.099 26.2098C185.904 26.4056 185.876 26.7133 185.959 26.937C185.82 26.909 185.708 26.909 185.596 26.909C185.344 26.909 185.064 26.965 184.757 27.0489C184.673 27.0768 184.589 27.1048 184.505 27.1328C184.281 27.2167 184.03 27.3006 183.834 27.3006C183.806 27.3006 183.778 27.3006 183.75 27.3006C183.666 27.2726 183.582 27.2446 183.498 27.2167C183.358 27.1607 183.191 27.0768 182.995 27.0768C182.855 27.0768 182.715 27.1328 182.603 27.2167C182.268 27.4684 182.324 27.832 182.324 28.0837C182.324 28.1676 182.352 28.2795 182.352 28.3634C182.324 28.5312 182.128 28.8388 181.988 29.0066C181.932 29.0905 181.876 29.1465 181.82 29.2304C181.513 29.6779 181.373 30.0974 181.345 30.4889C181.205 30.3491 181.037 30.2932 180.841 30.2932C180.701 30.2932 180.59 30.3211 180.478 30.405L179.918 30.7406C179.751 30.8525 179.639 30.9924 179.583 31.1881C179.555 31.4119 179.583 31.6077 179.667 31.7755Z" fill="white"/>
  <path d="M187.164 30.3496C187.891 30.3496 188.506 30.881 188.646 31.5522C188.702 31.5522 188.786 31.5522 188.842 31.5522C189.485 31.5522 190.073 31.9718 190.268 32.587C190.492 33.2862 190.184 34.0134 189.569 34.377C189.709 34.6567 189.737 34.9643 189.709 35.272C189.653 35.6635 189.429 36.0271 189.094 36.2509C188.842 36.4466 188.534 36.5305 188.199 36.5305C187.807 36.5305 187.444 36.3907 187.192 36.139C186.912 36.3907 186.549 36.5585 186.157 36.5585C185.849 36.5585 185.542 36.4466 185.262 36.2788C184.675 35.8593 184.479 35.0762 184.787 34.4329C184.507 34.2931 184.311 34.0694 184.171 33.7897C183.976 33.4261 183.948 33.0345 184.087 32.643C184.283 32.0277 184.871 31.6082 185.514 31.6082C185.57 31.6082 185.626 31.6082 185.682 31.6082C185.738 31.3005 185.877 31.0208 186.101 30.8251C186.381 30.4894 186.772 30.3496 187.164 30.3496Z" fill="white"/>
  <path d="M187.358 30.3494C188.001 30.4333 188.504 30.9088 188.644 31.5521C188.7 31.5521 188.784 31.5521 188.84 31.5521C189.427 31.5521 189.959 31.8877 190.21 32.4191C190.714 32.2792 191.161 32.0555 191.441 31.9156C192.643 31.3283 192.727 30.5452 192.084 29.5943C191.888 29.3146 191.497 28.8951 191.441 28.4476C191.413 28.14 191.525 27.8043 191.413 27.7204C191.301 27.6365 191.021 27.8603 190.714 27.9162C190.294 28.0001 189.763 27.7484 189.427 27.6645C188.336 27.3569 187.637 27.6925 187.441 29.007C187.413 29.3146 187.33 29.818 187.358 30.3494ZM187.05 27.5806C187.106 27.6365 187.218 27.6365 187.274 27.5806L187.693 26.8814C187.749 26.8255 187.749 26.7136 187.693 26.6577L187.218 26.2102C187.162 26.1542 187.05 26.1542 186.994 26.2102L186.546 26.6856C186.49 26.7416 186.49 26.8534 186.546 26.9094L187.05 27.5806ZM182.967 31.9156C183.246 32.0555 183.666 32.2792 184.169 32.3911C184.421 31.8877 184.952 31.5521 185.512 31.5521C185.568 31.5521 185.623 31.5521 185.679 31.5521C185.735 31.2444 185.875 30.9647 186.099 30.741C186.351 30.4893 186.686 30.3215 187.05 30.2935C187.078 29.7621 186.994 29.2866 186.966 28.979C186.77 27.6645 186.043 27.3289 184.98 27.6365C184.645 27.7204 184.113 27.9721 183.694 27.8882C183.386 27.8323 183.106 27.6086 182.995 27.6925C182.883 27.7764 182.994 28.112 182.967 28.4196C182.911 28.8392 182.519 29.2866 182.323 29.5663C181.708 30.5452 181.792 31.3283 182.967 31.9156ZM180.17 31.4961L180.505 32.0555C180.561 32.1394 180.645 32.1673 180.729 32.1114L181.484 31.8317C181.568 31.7758 181.596 31.6919 181.54 31.608L181.009 30.9927C180.953 30.9088 180.869 30.8808 180.785 30.9368L180.226 31.2724C180.142 31.3003 180.114 31.4122 180.17 31.4961ZM192.951 31.7758L193.734 31.9716C193.818 31.9995 193.902 31.9716 193.958 31.8877L194.21 31.3003C194.238 31.2164 194.21 31.1325 194.126 31.0766L193.538 30.8249C193.455 30.7969 193.371 30.8249 193.315 30.9088L192.867 31.58C192.811 31.636 192.867 31.7478 192.951 31.7758ZM183.806 38.4601C183.778 38.3762 183.694 38.3203 183.61 38.3203L182.883 38.6559C182.799 38.6839 182.743 38.7678 182.743 38.8517L182.883 39.495C182.911 39.5789 182.994 39.6348 183.078 39.6348L183.722 39.495C183.806 39.467 183.862 39.3831 183.862 39.2992L183.806 38.4601ZM193.482 33.8734C193.427 32.7547 192.895 32.1673 191.609 32.3911C191.301 32.447 190.826 32.5309 190.322 32.6987C190.49 33.342 190.182 34.0412 189.595 34.3489C189.735 34.6285 189.763 34.9362 189.735 35.2438C189.679 35.5794 189.511 35.8871 189.287 36.1108C189.567 36.5304 189.903 36.838 190.098 37.0617C191.021 38.0127 191.804 37.8449 192.504 36.9778C192.699 36.7261 193.007 36.1947 193.399 36.0269C193.706 35.8871 194.042 35.9151 194.07 35.7752C194.126 35.6354 193.818 35.4396 193.65 35.1879C193.427 34.7963 193.482 34.209 193.482 33.8734ZM184.812 34.4048C184.533 34.2649 184.337 34.0412 184.197 33.7615C184.029 33.4259 183.973 33.0623 184.085 32.6987C183.61 32.5309 183.162 32.447 182.855 32.3911C181.54 32.1673 181.009 32.7547 180.981 33.8734C180.981 34.209 181.037 34.7963 180.813 35.1599C180.645 35.4396 180.365 35.6354 180.393 35.7473C180.449 35.8871 180.785 35.8591 181.065 35.999C181.456 36.1668 181.736 36.6982 181.96 36.9499C182.659 37.8448 183.442 37.9847 184.365 37.0338C184.561 36.838 184.896 36.5024 185.176 36.1108C184.673 35.6913 184.533 34.9921 184.812 34.4048ZM191.637 38.5161L190.854 38.2923C190.77 38.2923 190.686 38.3483 190.658 38.4322L190.714 39.2433C190.714 39.3272 190.77 39.4111 190.854 39.439L191.497 39.495C191.581 39.495 191.665 39.439 191.665 39.3551L191.721 38.7119C191.776 38.6 191.721 38.5441 191.637 38.5161ZM189.679 37.3694C190.294 38.544 189.903 39.2432 188.84 39.6348C188.532 39.7467 187.945 39.8585 187.665 40.1942C187.441 40.4459 187.358 40.7815 187.218 40.7815C187.078 40.7815 186.994 40.4459 186.77 40.1942C186.491 39.8865 185.903 39.7467 185.596 39.6348C184.533 39.2432 184.141 38.572 184.756 37.3694C184.896 37.1177 185.092 36.7261 185.372 36.3346C185.596 36.4744 185.875 36.5583 186.155 36.5583C186.546 36.5583 186.91 36.4185 187.19 36.1388C187.469 36.3905 187.833 36.5304 188.197 36.5304C188.476 36.5304 188.756 36.4465 188.98 36.3066C189.343 36.6982 189.539 37.0897 189.679 37.3694Z" fill="#B5121B"/>
  <path d="M185.234 33.9853C185.318 34.0133 185.402 34.0133 185.486 34.0412C185.542 34.0412 185.57 34.0692 185.597 34.0972C185.653 34.1811 185.625 34.265 185.569 34.3209C185.514 34.3769 185.458 34.4328 185.402 34.4887C185.094 34.9083 185.178 35.4956 185.597 35.8032C186.017 36.1109 186.604 36.027 186.912 35.6075C186.968 35.5515 186.996 35.4676 187.024 35.3837C187.052 35.3278 187.08 35.2998 187.136 35.2998C187.22 35.2718 187.304 35.2998 187.331 35.3837C187.359 35.4396 187.387 35.5235 187.443 35.5795C187.751 35.999 188.338 36.0829 188.758 35.7753C189.177 35.4676 189.261 34.8803 188.954 34.4608C188.898 34.4048 188.842 34.3209 188.786 34.265C188.758 34.237 188.73 34.1811 188.73 34.1251C188.73 34.0412 188.786 33.9573 188.87 33.9573C188.954 33.9573 189.01 33.9294 189.093 33.9014C189.597 33.7336 189.849 33.2022 189.709 32.7267C189.541 32.2233 189.01 31.9716 188.534 32.1115C188.45 32.1394 188.366 32.1674 188.31 32.2233C188.282 32.2513 188.226 32.2513 188.171 32.2513C188.087 32.2233 188.031 32.1394 188.059 32.0555C188.087 31.9716 188.087 31.9157 188.087 31.8318C188.087 31.3004 187.667 30.8809 187.136 30.8809C186.604 30.8809 186.185 31.3004 186.185 31.8318C186.185 31.9157 186.185 31.9996 186.213 32.0835C186.213 32.1394 186.213 32.1674 186.185 32.2233C186.129 32.3072 186.045 32.3072 185.961 32.2793C185.905 32.2513 185.821 32.1954 185.765 32.1954C185.262 32.0275 184.73 32.3072 184.591 32.8107C184.451 33.2861 184.73 33.8175 185.234 33.9853Z" fill="#B5121B"/>
  <path d="M186.379 33.5931C186.379 33.1736 186.715 32.866 187.106 32.866C187.526 32.866 187.833 33.2016 187.833 33.5931C187.833 34.0127 187.498 34.3203 187.106 34.3203C186.715 34.3203 186.379 34.0127 186.379 33.5931Z" fill="white"/>
  <path d="M224.889 31.7755L224.553 32.3348C224.414 32.5586 224.19 32.6984 223.91 32.6984H223.882C224.022 32.9781 224.134 33.3696 224.162 33.8451C224.162 33.929 224.162 34.0129 224.162 34.1248C224.162 34.3485 224.162 34.7121 224.246 34.8799C224.274 34.9358 224.358 35.0198 224.414 35.1037C224.581 35.2715 224.833 35.5511 224.693 35.9427C224.553 36.3342 224.19 36.4182 223.966 36.4461C223.882 36.4741 223.77 36.4741 223.714 36.53C223.547 36.6139 223.351 36.8936 223.211 37.0894C223.155 37.1733 223.099 37.2572 223.043 37.3131C222.707 37.7326 222.372 38.0123 221.98 38.1522C222.26 38.292 222.428 38.6276 222.344 38.9632L222.204 39.6065C222.12 39.9421 221.84 40.1938 221.477 40.1938C221.421 40.1938 221.365 40.1938 221.309 40.1659L220.666 40.026C220.386 39.9701 220.19 39.7743 220.106 39.5226C219.855 39.7743 219.519 39.9701 219.1 40.1379C219.016 40.1659 218.932 40.1938 218.848 40.2218C218.624 40.3057 218.289 40.3896 218.149 40.5294C218.093 40.5854 218.037 40.6693 218.009 40.7532C217.897 40.949 217.701 41.2846 217.282 41.2846C216.862 41.2846 216.666 40.949 216.555 40.7532C216.499 40.6693 216.471 40.5854 216.415 40.5294C216.303 40.3896 215.939 40.2777 215.716 40.2218C215.632 40.1938 215.52 40.1659 215.464 40.1379C214.96 39.9421 214.597 39.7184 214.345 39.4107C214.317 39.5226 214.261 39.6345 214.205 39.7463C214.093 39.8862 213.898 39.9981 213.702 40.026L213.059 40.082C213.031 40.082 213.003 40.082 212.975 40.082C212.583 40.082 212.275 39.8023 212.247 39.4107L212.192 38.7675C212.164 38.5717 212.22 38.3759 212.359 38.2361C212.415 38.1801 212.443 38.1242 212.499 38.0962C212.192 37.9284 211.884 37.6767 211.604 37.3131C211.548 37.2572 211.492 37.1733 211.436 37.0894C211.297 36.8936 211.101 36.6139 210.933 36.53C210.849 36.5021 210.765 36.4741 210.681 36.4461C210.458 36.3902 210.066 36.3063 209.954 35.9147C209.842 35.5232 210.094 35.2435 210.234 35.0757C210.29 34.9918 210.374 34.9358 210.402 34.8519C210.485 34.6841 210.485 34.3485 210.485 34.0968C210.485 33.9849 210.485 33.901 210.485 33.8171C210.513 33.2298 210.653 32.8103 210.849 32.5306C210.821 32.5306 210.793 32.5306 210.765 32.5306C210.485 32.5306 210.206 32.3628 210.094 32.0831L209.842 31.4958C209.758 31.328 209.758 31.1042 209.842 30.9364C209.926 30.7406 210.038 30.6008 210.234 30.5169L210.821 30.2652C210.905 30.2372 211.017 30.2093 211.129 30.2093C211.297 30.2093 211.436 30.2652 211.576 30.3491C211.632 30.0135 211.772 29.6219 212.024 29.2583C212.08 29.1744 212.136 29.1185 212.192 29.0346C212.331 28.8388 212.555 28.5591 212.555 28.3913C212.555 28.3074 212.555 28.2235 212.555 28.1117C212.527 27.8879 212.499 27.4964 212.807 27.2446C212.919 27.1607 213.059 27.1048 213.198 27.1048C213.394 27.1048 213.534 27.1607 213.702 27.2446C213.786 27.2726 213.87 27.3286 213.954 27.3286C213.981 27.3286 214.009 27.3286 214.037 27.3286C214.233 27.3286 214.485 27.2446 214.709 27.1607C214.793 27.1328 214.876 27.1048 214.96 27.0768C215.268 26.9929 215.548 26.937 215.799 26.937C215.939 26.937 216.135 26.965 216.303 26.9929C216.247 26.8811 216.219 26.7692 216.219 26.6294C216.219 26.4336 216.303 26.2658 216.471 26.1259L216.946 25.6784C217.086 25.5666 217.254 25.4827 217.45 25.4827C217.645 25.4827 217.869 25.5666 218.009 25.7344L218.456 26.2098C218.652 26.4056 218.68 26.7133 218.596 26.937C218.736 26.909 218.848 26.909 218.96 26.909C219.211 26.909 219.491 26.965 219.799 27.0489C219.883 27.0768 219.967 27.1048 220.051 27.1328C220.274 27.2167 220.526 27.3006 220.722 27.3006C220.75 27.3006 220.778 27.3006 220.806 27.3006C220.89 27.2726 220.973 27.2446 221.057 27.2167C221.197 27.1607 221.365 27.0768 221.561 27.0768C221.701 27.0768 221.84 27.1328 221.952 27.2167C222.288 27.4684 222.232 27.832 222.232 28.0837C222.232 28.1676 222.204 28.2795 222.204 28.3634C222.232 28.5312 222.428 28.8388 222.568 29.0066C222.624 29.0905 222.68 29.1465 222.735 29.2304C223.043 29.6779 223.183 30.0974 223.211 30.4889C223.351 30.3491 223.519 30.2932 223.714 30.2932C223.854 30.2932 223.966 30.3211 224.078 30.405L224.637 30.7406C224.805 30.8525 224.917 30.9924 224.973 31.1881C225.001 31.4119 224.973 31.6077 224.889 31.7755Z" fill="white"/>
  <path d="M217.394 30.3496C216.667 30.3496 216.052 30.881 215.912 31.5522C215.856 31.5522 215.772 31.5522 215.716 31.5522C215.073 31.5522 214.485 31.9718 214.29 32.587C214.066 33.2862 214.374 34.0134 214.989 34.377C214.849 34.6567 214.821 34.9643 214.849 35.272C214.905 35.6635 215.129 36.0271 215.464 36.2509C215.716 36.4466 216.024 36.5305 216.359 36.5305C216.751 36.5305 217.114 36.3907 217.366 36.139C217.646 36.3907 218.009 36.5585 218.401 36.5585C218.709 36.5585 219.016 36.4466 219.296 36.2788C219.883 35.8593 220.079 35.0762 219.771 34.4329C220.051 34.2931 220.247 34.0694 220.387 33.7897C220.582 33.4261 220.61 33.0345 220.471 32.643C220.275 32.0277 219.688 31.6082 219.044 31.6082C218.988 31.6082 218.932 31.6082 218.876 31.6082C218.821 31.3005 218.681 31.0208 218.457 30.8251C218.177 30.4894 217.786 30.3496 217.394 30.3496Z" fill="white"/>
  <path d="M217.197 30.3491C217.225 29.8177 217.141 29.3142 217.113 29.0066C216.917 27.6921 216.19 27.3565 215.127 27.6641C214.791 27.748 214.26 27.9998 213.84 27.9158C213.533 27.8599 213.253 27.6362 213.141 27.7201C213.029 27.804 213.141 28.1396 213.113 28.4472C213.057 28.8668 212.666 29.3142 212.47 29.5939C211.855 30.5169 211.939 31.3 213.113 31.9153C213.393 32.0551 213.84 32.2789 214.344 32.4187C214.596 31.8873 215.127 31.5517 215.714 31.5517C215.77 31.5517 215.854 31.5517 215.91 31.5517C216.022 30.9364 216.553 30.433 217.197 30.3491ZM217.98 26.937C218.036 26.881 218.064 26.7692 217.98 26.7132L217.532 26.2378C217.476 26.1818 217.364 26.1539 217.308 26.2378L216.833 26.6853C216.777 26.7412 216.749 26.8531 216.833 26.909L217.253 27.6082C217.309 27.6641 217.42 27.6921 217.476 27.6082L217.98 26.937ZM221.588 31.9153C222.79 31.3279 222.874 30.5448 222.231 29.5939C222.035 29.3142 221.644 28.8947 221.588 28.4472C221.56 28.1396 221.672 27.804 221.56 27.7201C221.448 27.6362 221.168 27.8599 220.86 27.9158C220.441 27.9998 219.91 27.748 219.574 27.6641C218.483 27.3565 217.784 27.6921 217.588 29.0066C217.532 29.3142 217.476 29.7897 217.504 30.3211C217.868 30.3491 218.203 30.4889 218.455 30.7686C218.679 30.9923 218.819 31.272 218.875 31.5797C218.931 31.5797 218.987 31.5797 219.043 31.5797C219.63 31.5797 220.133 31.9153 220.385 32.4187C220.888 32.2789 221.308 32.0551 221.588 31.9153ZM224.384 31.4958C224.44 31.4118 224.412 31.3279 224.328 31.272L223.769 30.9364C223.685 30.8805 223.601 30.9084 223.545 30.9923L223.014 31.6076C222.958 31.6915 222.986 31.7754 223.07 31.8314L223.825 32.111C223.909 32.167 223.993 32.139 224.049 32.0551L224.384 31.4958ZM211.603 31.7754C211.687 31.7475 211.715 31.6356 211.687 31.5517L211.239 30.8805C211.211 30.7966 211.1 30.7686 211.016 30.7966L210.428 31.0483C210.344 31.0762 210.317 31.1881 210.344 31.272L210.596 31.8593C210.624 31.9432 210.736 31.9712 210.82 31.9432L211.603 31.7754ZM220.693 39.2709C220.665 39.3548 220.721 39.4387 220.832 39.4666L221.476 39.6065C221.56 39.6344 221.644 39.5785 221.672 39.4666L221.811 38.8234C221.839 38.7395 221.783 38.6556 221.672 38.6276L220.916 38.3199C220.832 38.292 220.749 38.3479 220.721 38.4598L220.693 39.2709ZM211.072 33.873C211.072 34.2086 211.128 34.796 210.904 35.1596C210.736 35.4392 210.456 35.635 210.484 35.7469C210.54 35.8867 210.876 35.8588 211.156 35.9986C211.547 36.1664 211.827 36.6978 212.051 36.9495C212.75 37.8445 213.533 37.9843 214.456 37.0334C214.652 36.8376 214.987 36.502 215.267 36.0825C215.015 35.8588 214.875 35.5511 214.819 35.2155C214.763 34.9078 214.819 34.6002 214.959 34.3205C214.372 33.9849 214.092 33.3137 214.232 32.6704C213.729 32.4746 213.253 32.3907 212.945 32.3628C211.631 32.167 211.1 32.7543 211.072 33.873ZM219.742 34.4044C220.021 34.9918 219.882 35.691 219.406 36.1384C219.686 36.53 219.993 36.8656 220.217 37.0614C221.14 38.0123 221.923 37.8445 222.622 36.9775C222.818 36.7258 223.126 36.1944 223.517 36.0266C223.825 35.8867 224.161 35.9147 224.189 35.7749C224.245 35.635 223.937 35.4392 223.769 35.1875C223.545 34.8239 223.629 34.2366 223.601 33.901C223.545 32.7823 223.014 32.195 221.727 32.4187C221.448 32.4746 220.972 32.5306 220.497 32.7263C220.581 33.0899 220.553 33.4535 220.385 33.7891C220.245 34.0408 220.021 34.2646 219.742 34.4044ZM212.918 38.5157C212.834 38.5157 212.75 38.5996 212.778 38.6835L212.834 39.3268C212.834 39.4107 212.918 39.4946 213.001 39.4666L213.645 39.4107C213.729 39.4107 213.813 39.3268 213.785 39.2149L213.84 38.4038C213.84 38.3199 213.757 38.236 213.645 38.264L212.918 38.5157ZM214.875 37.369C215.015 37.1173 215.211 36.6978 215.519 36.3062C215.77 36.4461 216.022 36.53 216.302 36.53C216.693 36.53 217.057 36.3902 217.308 36.1384C217.588 36.3902 217.952 36.558 218.343 36.558C218.623 36.558 218.875 36.4741 219.126 36.3342C219.406 36.7258 219.63 37.1173 219.742 37.369C220.357 38.5437 219.965 39.2429 218.903 39.6344C218.595 39.7463 218.008 39.8582 217.728 40.1938C217.504 40.4455 217.42 40.7811 217.281 40.7811C217.141 40.7811 217.057 40.4455 216.833 40.1938C216.553 39.8862 215.966 39.7463 215.658 39.6344C214.652 39.2149 214.26 38.5437 214.875 37.369Z" fill="#B5121B"/>
  <path d="M219.324 33.9853C219.24 34.0133 219.156 34.0133 219.072 34.0412C219.016 34.0412 218.988 34.0692 218.96 34.0972C218.904 34.1811 218.932 34.265 218.988 34.3209C219.044 34.3769 219.1 34.4328 219.156 34.4887C219.464 34.9083 219.38 35.4956 218.96 35.8032C218.541 36.1109 217.953 36.027 217.646 35.6075C217.59 35.5515 217.562 35.4676 217.534 35.3837C217.506 35.3278 217.478 35.2998 217.422 35.2998C217.338 35.2718 217.254 35.2998 217.226 35.3837C217.198 35.4396 217.17 35.5235 217.114 35.5795C216.807 35.999 216.219 36.0829 215.8 35.7753C215.38 35.4676 215.296 34.8803 215.604 34.4608C215.66 34.4048 215.716 34.3209 215.772 34.265C215.8 34.237 215.828 34.1811 215.828 34.1251C215.828 34.0412 215.772 33.9573 215.688 33.9573C215.604 33.9573 215.548 33.9294 215.464 33.9014C214.961 33.7336 214.709 33.2022 214.849 32.7267C215.017 32.2233 215.548 31.9716 216.023 32.1115C216.107 32.1394 216.191 32.1674 216.247 32.2233C216.275 32.2513 216.331 32.2513 216.387 32.2513C216.471 32.2233 216.527 32.1394 216.499 32.0555C216.471 31.9716 216.471 31.9157 216.471 31.8318C216.471 31.3004 216.891 30.8809 217.422 30.8809C217.953 30.8809 218.373 31.3004 218.373 31.8318C218.373 31.9157 218.373 31.9996 218.345 32.0835C218.345 32.1394 218.345 32.1674 218.373 32.2233C218.429 32.3072 218.513 32.3072 218.597 32.2793C218.652 32.2513 218.736 32.1954 218.792 32.1954C219.296 32.0275 219.827 32.3072 219.967 32.8107C220.079 33.2861 219.827 33.8175 219.324 33.9853Z" fill="#B5121B"/>
  <path d="M218.148 33.5931C218.148 33.1736 217.812 32.866 217.421 32.866C217.001 32.866 216.693 33.2016 216.693 33.5931C216.693 34.0127 217.029 34.3203 217.421 34.3203C217.84 34.3203 218.148 34.0127 218.148 33.5931Z" fill="white"/>
  <path d="M67.1232 17.3166C67.1232 14.352 67.9902 11.6391 70.1158 9.90508C71.7379 8.59058 73.9753 7.86342 76.2128 7.86342C78.3663 7.86342 80.2681 8.53465 81.7504 9.5415C81.7504 9.5415 83.7362 10.7721 83.7362 12.9256C83.7362 13.9884 82.8971 14.8554 81.8623 14.8554C80.8275 14.8554 80.0724 14.0443 80.1283 12.9256C80.1563 12.3942 80.2402 11.5272 79.9045 10.856C79.0375 9.09401 76.5764 9.17791 76.5764 9.17791C72.9685 9.17791 71.4023 12.7858 71.4023 17.2327C71.4023 23.1339 74.6466 25.2875 77.4154 25.2875C77.4154 25.2875 80.5478 25.3434 83.2327 21.8194L84.3515 22.5466C82.6734 25.0917 79.7927 26.7977 76.5204 26.7977C71.3184 26.7418 67.1232 22.5186 67.1232 17.3166ZM74.5627 35.9992H67.3749V36.9501L70.0598 37.6773L65.7807 49.6196L61.3618 37.6493L63.8789 36.9781V35.9433H55.5724V36.9501L57.7539 37.5654L63.8509 52.6402H65.8367L72.2133 37.6214L74.6186 36.9781V35.9992H74.5627ZM21.9828 31.0489V31.0209L25.0314 30.2098V29.0352H16.7249V30.098L20.0251 30.965V46.2075C20.0251 46.2075 20.2768 51.3257 13.5085 51.3257C6.76825 51.3257 6.76825 46.8788 6.76825 46.2075C6.76825 45.5922 6.76825 33.3982 6.76825 30.9929L10.1244 30.07V29.0352H0.0559361V30.098L3.32819 30.965V45.9558C3.32819 45.9558 2.76883 53.0597 12.9212 53.0597C22.5702 53.0597 21.9549 46.3753 21.9549 46.3753V31.0489H21.9828ZM155.642 36.9501L158.579 37.7612L154.188 49.4239L149.433 37.6214L151.838 36.9501V35.9433H143.728V37.0061L145.965 37.6214L152.509 53.7589C152.09 54.542 151.67 55.3531 151.251 56.1362C150.747 57.0871 149.713 58.6253 148.51 58.7372C147.419 58.8491 147.112 57.5066 146.245 57.0311C144.678 56.1641 143.196 58.2617 144.259 59.6042C144.79 60.2475 145.685 60.639 146.496 60.695C147.391 60.7509 148.314 60.5831 149.125 60.2195C149.573 60.0237 150.02 59.744 150.384 59.4084C151.139 58.7372 151.698 57.8982 152.174 57.0032C152.957 55.5209 153.684 54.0665 154.327 52.5563C154.887 51.2418 155.418 49.9273 155.977 48.6128C156.649 47.0186 157.32 45.4244 157.991 43.8303C158.579 42.4598 159.138 41.0614 159.725 39.691C160.005 39.0198 160.285 38.3485 160.564 37.7053C160.564 37.6773 160.564 37.6773 160.592 37.6493L162.969 37.0061V35.9433H155.586V36.9501H155.642ZM22.2625 18.3794L21.3675 18.0438L21.1997 17.9599C18.7106 22.2949 13.7603 24.9239 10.488 24.9239C10.488 24.9239 7.0759 25.0917 7.0759 22.0432V2.71731L10.3482 1.79436L10.3761 0.955322H0.027968V1.9342L3.13241 2.74527V24.2527L0 25.0917V26.3503H19.2699L22.2625 18.3794ZM46.8184 24.2247L43.714 25.2315V26.3503H53.5307V25.2315L50.3983 24.2247V12.8138V12.7858C51.2653 12.1146 52.1883 11.4993 53.1672 10.9679C54.3698 10.3246 55.964 9.56946 57.3624 9.79321C58.0895 9.90508 58.9006 10.4085 59.3201 10.9958C59.9634 11.8628 60.1871 13.0655 60.1871 14.1282L60.1591 24.1688C60.1591 24.0849 60.1591 24.2527 60.1591 24.2527L57.0547 25.2036V26.3503H66.9554V25.2315L63.8789 24.2247V12.7578C63.8789 11.4713 63.4314 10.2966 62.4525 9.45759C61.4177 8.59058 60.1032 8.1431 58.7607 7.97529C56.3555 7.69561 54.0342 8.53465 52.0484 9.82118C51.4891 10.1848 50.9297 10.5763 50.3704 10.9958V8.28294H49.0559L43.5462 9.73727V10.828H46.7904V24.2247H46.8184ZM60.1591 24.1408C60.1591 24.1408 60.1591 24.1688 60.1591 24.1967V24.1408ZM39.4069 50.5985C39.4069 50.5985 39.4069 50.6265 39.4069 50.6544V50.5985ZM42.819 50.6265V40.1105C42.819 38.9359 42.4274 37.8451 41.5045 37.09C40.5536 36.2789 39.323 35.8873 38.1204 35.7475C35.9109 35.4958 33.7853 36.2509 31.9674 37.4536C31.436 37.7892 30.9326 38.1528 30.4292 38.5163V36.0272H29.2266L24.1643 37.3696V38.3765H27.129V50.6544L24.2762 51.5774V52.6122H33.3099V51.5774L30.4292 50.6544V40.1664V40.1385C31.2123 39.5232 32.0793 38.9359 32.9743 38.4884C34.093 37.901 35.5193 37.2018 36.8338 37.3976C37.4771 37.5095 38.2322 37.957 38.6238 38.4884C39.2111 39.2994 39.4069 40.3902 39.4069 41.3691V50.5705C39.4069 50.5146 39.4069 50.6544 39.4069 50.6544L36.5542 51.5494V52.5842H45.6438V51.5215L42.819 50.6265ZM114.669 14.9953C111.9 14.4639 109.662 13.7367 109.662 11.8908C109.662 9.65337 112.347 9.45759 113.466 9.51353C118.584 9.7093 119.983 13.9884 119.983 13.9884H121.129L119.955 8.3109H118.92L118.556 9.5415C117.661 8.95417 115.787 7.91935 113.55 7.91935C109.047 7.91935 106.446 10.5483 106.446 13.429C106.446 16.3097 110.138 17.5124 112.935 18.3234C115.648 19.1066 119.256 19.2464 119.256 21.9313C119.256 25.2036 114.809 25.1197 114.809 25.1197C108.768 25.1197 107.201 19.7498 107.201 19.7498H105.971L107.173 26.3503H108.376L108.823 24.868C108.823 24.868 111.844 26.6299 115.004 26.6299C119.507 26.6299 122.556 23.6933 122.556 20.5609C122.5 16.3098 117.549 15.5546 114.669 14.9953ZM139.812 51.5215C138.386 51.5215 137.407 50.4027 137.211 49.2281C137.127 48.7247 137.155 47.8297 137.155 47.0186V37.034H142.077V35.9433H137.155V29.5945H135.617C135.617 29.5945 135.701 32.4193 134.302 34.433C133.24 35.9712 131.086 36.0552 131.086 36.0552V37.1179H133.799V47.2983C133.799 48.1094 133.799 48.8645 133.799 49.3679C133.799 51.6054 135.98 52.8919 138.442 52.8919C141.602 52.8919 142.888 51.5215 143.728 50.6265L142.861 49.8993C141.882 50.7383 141.015 51.5215 139.812 51.5215ZM125.464 20.5049C125.464 21.372 125.464 22.211 125.464 22.7424C125.464 25.1756 127.814 26.574 130.471 26.574C133.575 26.574 135.001 25.3434 135.924 24.3925C135.673 24.0569 135.421 23.7213 135.197 23.3857C134.162 24.2527 133.24 25.0637 131.953 25.0637C130.387 25.0637 129.352 23.8611 129.156 22.6025C129.072 22.0712 129.1 21.0923 129.1 20.1973V9.45759H134.442V8.227H129.1V1.37484H127.394C127.394 1.37484 127.478 4.42335 125.968 6.60486C124.821 8.25497 122.5 8.33887 122.5 8.33887V9.48556H125.436V20.5049H125.464ZM135.141 17.3166C135.141 14.2121 136.4 11.3035 138.721 9.6254C140.232 8.50668 142.049 8.00326 144.063 8.00326C148.51 8.00326 151.866 11.0238 152.118 15.6105H139.029C139.029 15.6105 137.658 24.9798 145.042 24.9798C145.042 24.9798 148.902 25.1476 150.775 21.5957L151.922 22.1551C150.999 24.7841 147.867 26.6299 144.539 26.6299C139.42 26.6299 135.141 22.4627 135.141 17.3166ZM139.141 14.0164H148.202C148.063 11.1916 146.273 9.34572 143.755 9.34572C141.714 9.34572 139.141 10.5483 139.141 14.0164ZM77.8909 42.7395C77.8909 42.7395 76.6323 51.3816 83.4565 51.3816C83.4565 51.3816 87.0084 51.5215 88.7424 48.2492L89.8052 48.7526C88.9382 51.1858 86.0575 52.8919 82.981 52.8919C78.2824 52.8919 74.3389 49.0323 74.3389 44.2777C74.3389 41.397 75.4856 38.7401 77.6391 37.1739C79.0376 36.1391 80.6877 35.6636 82.5615 35.6636C86.6728 35.6636 89.7493 38.4604 90.001 42.7115H77.8909V42.7395ZM78.0027 41.2852H86.3931C86.2533 38.6841 84.6032 36.9781 82.2818 36.9781C80.408 36.9781 78.0027 38.0688 78.0027 41.2852ZM167.053 8.05919C167.025 8.05919 167.025 8.05919 166.997 8.03122C166.969 8.03122 166.969 8.03122 166.941 8.03122C163.165 7.19218 160.229 10.2966 159.613 11.0518V8.33887H158.131L152.733 9.79321V10.884H155.977V24.4484L152.845 25.2875V26.3503H162.969V25.2875L159.613 24.4205V12.7019C159.837 12.4781 161.543 10.6882 162.997 10.6882C164.648 10.6882 164.704 11.751 166.354 11.9188H166.382C166.438 11.9188 166.493 11.9188 166.549 11.9188C167.64 11.9188 168.507 11.0238 168.507 9.96102C168.535 9.03807 167.892 8.28294 167.053 8.05919ZM104.405 35.7755C104.377 35.7755 104.377 35.7755 104.349 35.7755C104.321 35.7755 104.321 35.7755 104.293 35.7755C100.825 35.0203 98.1117 37.8731 97.5524 38.5443V36.0272H96.1819L91.2316 37.3696V38.3765H94.2242V50.8502L91.3435 51.6333V52.6402H100.657V51.6333L97.5803 50.8223V40.0546C97.7761 39.8308 99.3423 38.2087 100.685 38.2087C102.223 38.2087 102.251 39.1876 103.761 39.3274H103.789C103.845 39.3274 103.901 39.3274 103.957 39.3274C104.964 39.3274 105.775 38.5163 105.775 37.5095C105.747 36.6984 105.188 35.9712 104.405 35.7755ZM53.0553 35.9992L46.9303 36.6425V38.0129H49.811V50.6544L46.8464 51.5774V52.6402H55.908V51.5774L53.0553 50.6544V35.9992ZM51.6289 30.1259C50.4822 30.1259 49.5593 31.0489 49.5593 32.1956C49.5593 33.3423 50.4822 34.2652 51.6289 34.2652C52.7756 34.2652 53.6985 33.3423 53.6985 32.1956C53.6985 31.0489 52.7756 30.1259 51.6289 30.1259ZM128.849 35.9992L122.724 36.6425V38.0129H125.604V50.6544L122.696 51.5774V52.6402H131.701V51.5774L128.849 50.6544V35.9992ZM125.241 32.1956C125.241 33.3423 126.164 34.2652 127.31 34.2652C128.457 34.2652 129.38 33.3423 129.38 32.1956C129.38 31.0489 128.457 30.1259 127.31 30.1259C126.164 30.1259 125.241 31.0489 125.241 32.1956ZM98.2516 15.8343V12.2544C98.2516 9.5415 95.3429 9.45759 94.0843 9.45759C93.0775 9.45759 91.1757 9.51353 90.2527 10.6602C89.7493 11.2755 89.9171 12.3942 89.9451 12.8977C90.001 13.9884 89.2459 14.8274 88.211 14.8274C87.1762 14.8274 86.3372 13.9604 86.3372 12.8977C86.3372 10.7441 88.3229 9.51353 88.3229 9.51353C89.8332 8.50668 92.4062 7.97529 94.5598 7.97529C96.7972 7.97529 98.6711 8.42278 100.349 9.68134C101.188 10.3246 101.859 11.4154 101.859 13.6528C101.859 16.5894 101.859 24.1967 101.859 24.1967L105.439 25.1756L105.635 26.2943H100.377L98.2516 23.973C98.2516 23.973 95.203 26.546 91.3714 26.546C87.5398 26.546 85.7778 24.4764 85.7778 22.5746C85.7778 22.5746 85.1346 18.6311 90.84 16.925C91.9028 16.6174 92.8817 16.4216 93.6928 16.2538C96.7413 15.7784 98.2516 15.8343 98.2516 15.8343ZM98.2236 17.1208C98.2236 17.1208 94.6437 17.2327 92.2105 18.2955C90.3646 19.1065 89.3577 20.5049 89.4416 22.183C89.4976 23.1899 90.5883 24.8959 93.1893 24.7281C95.7624 24.5603 98.2236 22.3229 98.2236 22.3229V17.1208ZM114.389 42.0962C111.844 41.6208 109.774 40.9216 109.774 39.2155C109.774 37.1459 112.236 36.9781 113.27 37.0061C117.997 37.1739 119.283 41.1453 119.283 41.1453H120.346L119.283 35.9153H118.333L117.997 37.034C117.186 36.4747 115.452 35.5238 113.354 35.5238C109.187 35.5238 106.782 37.957 106.782 40.6139C106.782 43.2709 110.194 44.3896 112.767 45.1168C115.256 45.844 118.612 45.9838 118.612 48.445C118.612 51.4655 114.501 51.4096 114.501 51.4096C108.935 51.4096 107.481 46.4313 107.481 46.4313H106.306L107.397 52.5283H108.516L108.907 51.1579C108.907 51.1579 111.676 52.808 114.613 52.808C118.78 52.808 121.577 50.0951 121.577 47.1864C121.633 43.2989 117.074 42.5997 114.389 42.0962ZM35.5753 15.8343V12.2544C35.5753 9.5415 32.6666 9.45759 31.4081 9.45759C30.4012 9.45759 28.4994 9.51353 27.5764 10.6602C27.073 11.2755 27.2408 12.3942 27.2688 12.8977C27.3247 13.9884 26.5696 14.8274 25.5348 14.8274C24.5 14.8274 23.6609 13.9604 23.6609 12.8977C23.6609 10.7441 25.6467 9.51353 25.6467 9.51353C27.1569 8.50668 29.73 7.97529 31.8835 7.97529C34.121 7.97529 35.9948 8.42278 37.6729 9.68134C38.5119 10.3246 39.1832 11.4154 39.1832 13.6528C39.1832 16.5894 39.1832 24.1967 39.1832 24.1967L42.5393 25.1197V26.2943H37.7009L35.5753 23.973C35.5753 23.973 32.5268 26.546 28.6952 26.546C24.8635 26.546 23.1016 24.4764 23.1016 22.5746C23.1016 22.5746 22.4583 18.6311 28.1638 16.925C29.2266 16.6174 30.2054 16.4216 31.0165 16.2538C34.065 15.7784 35.5753 15.8343 35.5753 15.8343ZM35.5194 17.1208C35.5194 17.1208 31.9394 17.2327 29.5062 18.2955C27.6603 19.1065 26.6535 20.5049 26.7374 22.183C26.7933 23.1899 27.8841 24.8959 30.4851 24.7281C33.0582 24.5603 35.5194 22.3229 35.5194 22.3229V17.1208Z" fill="#212121"/>
  <path d="M224.86 48.3891C223.489 48.7807 221.839 49.0324 219.462 49.0324C217.364 49.0324 215.826 48.8086 214.54 48.501C213.589 48.2772 212.75 47.9696 211.967 47.6619C210.764 47.1865 209.589 46.6551 208.079 46.2356C206.569 45.8161 204.751 45.5364 202.29 45.5364C200.08 45.5364 198.402 45.7601 197.004 46.0957C195.941 46.3474 195.046 46.6831 194.235 47.0187C192.976 47.5221 191.886 48.0255 190.515 48.4171C189.145 48.8086 187.495 49.0603 185.117 49.0603C183.02 49.0603 181.481 48.8366 180.195 48.529C179.3 48.3052 178.517 48.0255 177.762 47.7458C178.041 48.3891 178.349 49.0044 178.657 49.6477C178.88 49.7036 179.104 49.7875 179.328 49.8434C180.838 50.263 182.656 50.5426 185.117 50.5426C187.327 50.5426 189.005 50.3189 190.403 49.9833C191.466 49.7316 192.361 49.396 193.172 49.0603C194.431 48.5569 195.521 48.0535 196.892 47.6899C198.262 47.2984 199.912 47.0466 202.29 47.0466C204.387 47.0466 205.925 47.2704 207.212 47.578C208.163 47.8018 209.002 48.1094 209.785 48.4171C210.988 48.8925 212.162 49.4239 213.673 49.8434C215.183 50.263 217.001 50.5426 219.462 50.5426C221.671 50.5426 223.35 50.3189 224.748 49.9833C225.167 49.8714 225.531 49.7595 225.923 49.6477C226.23 49.0044 226.538 48.3891 226.818 47.7458C226.174 47.9696 225.559 48.1933 224.86 48.3891Z" fill="white"/>
  <path d="M219.466 46.068C217.369 46.068 215.831 45.8443 214.544 45.5366C213.593 45.3129 212.754 45.0052 211.971 44.6976C210.768 44.2221 209.594 43.6907 208.084 43.2712C206.573 42.8517 204.755 42.572 202.294 42.572C200.085 42.572 198.407 42.7958 197.008 43.1314C195.945 43.3831 195.05 43.7187 194.239 44.0543C192.981 44.5578 191.89 45.0612 190.52 45.4248C189.149 45.8163 187.499 46.068 185.122 46.068C183.024 46.068 181.486 45.8443 180.199 45.5366C179.249 45.3129 178.409 45.0052 177.626 44.6976C177.207 44.5298 176.787 44.362 176.34 44.1662C176.564 44.7815 176.815 45.4248 177.067 46.068C177.766 46.3477 178.493 46.6274 179.332 46.8511C180.843 47.2706 182.661 47.5503 185.122 47.5503C187.331 47.5503 189.009 47.3266 190.408 46.991C191.471 46.7393 192.366 46.4036 193.177 46.068C194.435 45.5646 195.526 45.0612 196.896 44.6976C198.267 44.306 199.917 44.0543 202.294 44.0543C204.392 44.0543 205.93 44.2781 207.217 44.5857C208.167 44.8095 209.006 45.1171 209.79 45.4248C210.992 45.9002 212.167 46.4316 213.677 46.8511C215.187 47.2706 217.005 47.5503 219.466 47.5503C221.676 47.5503 223.354 47.3266 224.752 46.991C225.787 46.7393 226.682 46.4036 227.521 46.096C227.773 45.4527 228.025 44.8095 228.248 44.1942C227.13 44.6417 226.123 45.0891 224.864 45.4248C223.466 45.7883 221.816 46.068 219.466 46.068Z" fill="white"/>
  <path d="M175.862 42.7112C176.925 43.1587 178.016 43.6062 179.33 43.9977C180.84 44.4173 182.658 44.6969 185.119 44.6969C187.329 44.6969 189.007 44.4732 190.405 44.1376C191.468 43.8859 192.363 43.5503 193.174 43.2146C194.433 42.7112 195.524 42.2078 196.894 41.8442C198.264 41.4527 199.915 41.2009 202.292 41.2009C204.389 41.2009 205.928 41.4247 207.214 41.7323C208.165 41.9561 209.004 42.2637 209.787 42.5714C210.99 43.0468 212.165 43.5782 213.675 43.9977C215.185 44.4173 217.003 44.6969 219.464 44.6969C221.674 44.6969 223.352 44.4732 224.75 44.1376C225.813 43.8859 226.708 43.5503 227.519 43.2146C227.938 43.0468 228.33 42.879 228.722 42.7392C228.917 42.1239 229.085 41.5366 229.253 40.9213C229.029 41.0052 228.806 41.0891 228.582 41.173C227.323 41.6764 226.232 42.1798 224.862 42.5434C223.492 42.935 221.841 43.1867 219.464 43.1867C217.367 43.1867 215.828 42.9629 214.542 42.6553C213.591 42.4315 212.752 42.1239 211.969 41.8162C210.766 41.3408 209.591 40.8094 208.081 40.3899C206.571 39.9704 204.753 39.6907 202.292 39.6907C200.082 39.6907 198.404 39.9144 197.006 40.25C195.943 40.5017 195.048 40.8374 194.237 41.173C192.978 41.6764 191.888 42.1798 190.517 42.5434C189.147 42.935 187.497 43.1867 185.119 43.1867C183.022 43.1867 181.484 42.9629 180.197 42.6553C179.246 42.4315 178.407 42.1239 177.624 41.8162C176.869 41.5086 176.142 41.2009 175.303 40.8933C175.471 41.4806 175.638 42.0959 175.862 42.7112Z" fill="white"/>
  <path d="M230.987 23.5251H173.568V24.2803H230.987V23.5251Z" fill="white"/>
</svg>
