<svg width="320" height="175" viewBox="0 0 320 175" fill="none" xmlns="http://www.w3.org/2000/svg">
<rect x="0.818824" y="0.818824" width="318.362" height="173.362" rx="2.45647" fill="white"/>
<rect x="0.818824" y="0.818824" width="318.362" height="173.362" rx="2.45647" stroke="#E0E0E0" stroke-width="1.63765"/>
<path d="M274.508 74.8159V80.1298C274.508 90.0305 269.642 111.901 245.813 123.564C221.956 111.929 217.09 90.0305 217.09 80.1298V74.8159H274.508Z" fill="#B0B7BC"/>
<path d="M245.813 50.9035C245.813 50.9035 264.552 50.6238 274.508 54.5673V74.8161H217.09V54.5673C227.074 50.6518 245.813 50.9035 245.813 50.9035Z" fill="#B5121B"/>
<path d="M223.33 56.8325C223.274 56.8325 223.218 56.8605 223.19 56.8605C223.218 56.8046 223.274 56.7486 223.357 56.6927C223.469 56.5808 223.637 56.4969 223.861 56.4969C224.029 56.4969 224.252 56.5529 224.504 56.7486C224.476 56.7766 224.42 56.8046 224.392 56.8325C224.308 56.8885 224.252 56.9444 224.197 57.0283C224.113 56.9444 223.917 56.8325 223.609 56.8325C223.497 56.8046 223.413 56.8046 223.33 56.8325ZM223.917 58.5665C223.777 58.5106 223.637 58.5106 223.525 58.5106C223.218 58.5106 223.022 58.6505 222.91 58.8183C222.826 58.9301 222.77 59.042 222.742 59.1539C222.77 59.1259 222.826 59.0979 222.854 59.07C223.078 58.9301 223.274 58.9022 223.441 58.9022C223.553 58.9022 223.637 58.9301 223.693 58.9301C223.777 58.7344 223.889 58.6225 223.917 58.5665C223.917 58.5945 223.917 58.5945 223.917 58.5665ZM224.113 57.5877C224.085 57.6156 224.085 57.6436 224.085 57.6436V57.6716C224.085 57.6995 224.057 57.7275 224.057 57.7834C224.057 57.8673 224.085 57.9513 224.224 58.0352C224.392 58.1191 224.7 58.3428 224.952 58.5106C225.036 58.2589 225.175 58.0631 225.371 57.8673L224.98 57.1122V57.0842L224.952 57.0283C224.924 57.0003 224.868 56.9724 224.812 56.9724C224.756 56.9724 224.7 57.0003 224.616 57.0563C224.364 57.2521 224.197 57.4758 224.113 57.5877ZM225.539 70.5648C225.455 70.7326 225.427 70.9284 225.427 71.0682V71.0962C225.427 71.0682 225.455 71.0403 225.483 71.0123C225.623 70.7326 225.875 70.5928 226.042 70.5089C226.014 70.397 225.986 70.2572 225.959 70.1453C225.763 70.2572 225.623 70.397 225.539 70.5648ZM226.294 61.5032C226.658 61.8108 226.881 61.8947 226.993 61.8947C227.077 61.8947 227.133 61.8668 227.189 61.7829C227.217 61.7269 227.273 61.671 227.329 61.5871C227.385 61.5032 227.385 61.4193 227.385 61.3354C227.385 61.1676 227.329 60.9718 227.273 60.8879C227.245 60.804 226.406 58.9022 226.182 58.147C226.154 58.0352 226.154 57.9233 226.126 57.8673L226.098 57.8394C226.098 57.8394 226.07 57.8394 226.042 57.8394C225.986 57.8394 225.903 57.8673 225.819 57.9233C225.315 58.2309 225.119 58.6784 225.119 59.1818C225.147 60.0768 225.819 61.1396 226.294 61.5032ZM224.84 58.9861C224.84 58.9581 224.84 58.9301 224.84 58.8742C224.84 58.8183 224.532 58.7064 224.504 58.7064C224.392 58.6784 224.252 58.6784 224.141 58.7903C224.057 58.9022 223.889 59.1539 223.889 59.3776C223.889 59.4615 223.917 59.5454 223.973 59.6014C224.029 59.6573 224.113 59.7132 224.252 59.7692C224.504 59.8531 224.756 59.909 224.98 59.9929C224.896 59.7132 224.84 59.4336 224.84 59.1539C224.84 59.0979 224.84 59.042 224.84 58.9861ZM226.154 55.8816C226.182 55.8816 226.21 55.8816 226.238 55.8816C226.378 55.8816 226.49 55.9376 226.574 55.9655C226.546 55.6019 226.406 55.4062 226.238 55.2663C226.07 55.1265 225.875 55.0985 225.707 55.0985C225.679 55.0985 225.623 55.0985 225.595 55.0985C225.623 55.1265 225.679 55.1545 225.707 55.1824C226.042 55.4621 226.126 55.7418 226.154 55.8816ZM225.427 56.9164C225.455 57.0283 225.483 57.1681 225.539 57.28C225.539 57.308 225.679 57.6436 225.651 57.6436C225.679 57.6436 225.679 57.6156 225.707 57.6156C225.819 57.5597 225.958 57.5038 226.07 57.5038C226.126 57.5038 226.182 57.5038 226.238 57.5317C226.266 57.4199 226.322 57.308 226.378 57.1681C226.434 57.0003 226.49 56.8605 226.49 56.7766C226.49 56.7207 226.49 56.6647 226.49 56.5808C226.49 56.4969 226.49 56.385 226.434 56.3291C226.406 56.2732 226.35 56.2172 226.21 56.2172C226.154 56.2172 226.098 56.2172 226.042 56.2452C225.847 56.3011 225.567 56.3571 225.455 56.5529C225.371 56.6647 225.399 56.7766 225.427 56.9164ZM228.811 57.28C229.007 57.0283 229.063 56.8046 229.063 56.6368C229.063 56.441 228.979 56.2732 228.867 56.1333C228.811 56.0494 228.727 55.9935 228.699 55.9655C228.699 55.9935 228.727 56.0494 228.727 56.1054C228.755 56.1893 228.755 56.2732 228.755 56.3571C228.755 56.6647 228.615 56.8605 228.56 56.9444C228.643 57.0563 228.727 57.1681 228.811 57.28ZM235.272 55.9935C235.272 55.8816 235.356 55.7418 235.412 55.6579C235.496 55.546 235.635 55.4062 235.579 55.2663C235.552 55.1824 235.44 55.1265 235.44 55.0146C235.44 54.9587 235.468 54.9027 235.524 54.8748C235.579 54.8188 235.663 54.7909 235.747 54.7629C235.999 54.679 236.782 54.3993 236.782 54.3993C236.866 54.3154 236.894 54.2595 236.978 54.1756C237.062 54.0917 237.23 54.0078 237.565 53.9518C238.376 53.784 240.614 53.6442 240.81 53.6162C240.865 53.6162 240.949 53.6442 241.061 53.7281C241.201 53.84 241.341 54.0078 241.453 54.1476C241.509 54.2035 241.565 54.2874 241.593 54.3154C241.621 54.3713 241.649 54.3993 241.649 54.3993L241.677 54.4553L241.704 54.4273C241.704 54.4273 241.732 54.3993 241.788 54.3993C241.844 54.3993 241.9 54.3713 241.956 54.3713C242.04 54.3713 242.152 54.3993 242.236 54.4553C242.32 54.5112 242.404 54.6231 242.46 54.8188C242.488 54.9027 242.488 55.0146 242.488 55.0985C242.488 55.6299 242.124 56.1613 241.872 56.441L241.844 56.4689L241.872 56.4969C242.711 57.7275 242.851 58.8462 242.851 59.2098C242.739 59.07 242.599 58.8183 242.599 58.8183C242.599 58.8183 242.571 58.7903 242.544 58.7344C242.516 58.7064 242.46 58.6505 242.404 58.6225C242.376 58.6225 242.376 58.6225 242.348 58.6225C242.32 58.6225 242.264 58.6225 242.236 58.6784C242.208 58.7064 242.18 58.7623 242.18 58.7903C242.18 58.8462 242.18 58.9022 242.208 58.9581C242.571 60.0209 242.627 61.1396 242.627 61.7549C242.627 61.7829 242.627 61.7829 242.627 61.8108C242.488 61.5871 242.264 61.2235 242.264 61.2235C242.208 61.1116 242.124 61.0557 242.04 61.0557C241.984 61.0557 241.956 61.0837 241.928 61.1116C241.9 61.1396 241.9 61.1955 241.9 61.2235C241.9 61.2515 241.9 61.2794 241.928 61.3074C242.124 61.8108 242.18 62.2863 242.18 62.7058C242.18 63.2931 242.068 63.7686 241.928 64.1322C241.872 64.3 241.816 64.4398 241.76 64.5517C241.76 64.5797 241.732 64.6076 241.732 64.6356C241.704 64.5797 241.677 64.5237 241.621 64.4398C241.537 64.3 241.425 64.1042 241.369 63.9644C241.341 63.9084 241.313 63.8525 241.285 63.7966C241.257 63.7686 241.201 63.7406 241.173 63.7406C241.117 63.7406 241.089 63.7686 241.061 63.7966C241.033 63.8245 241.033 63.8805 241.033 63.9364C241.033 63.9644 241.033 63.9923 241.033 63.9923C241.033 64.1042 241.033 64.2161 241.033 64.3C241.033 65.2789 240.642 65.9781 240.25 66.3976C240.054 66.6213 239.859 66.7891 239.719 66.873C239.663 66.929 239.607 66.9569 239.551 66.9849C239.551 66.7332 239.551 65.9221 239.551 65.5865C239.551 65.5306 239.523 65.4746 239.495 65.4187C239.467 65.3907 239.439 65.3348 239.383 65.3348C239.355 65.3348 239.327 65.3348 239.299 65.3628C239.271 65.3907 239.243 65.4187 239.243 65.4467C238.964 66.0899 238.684 66.4535 238.432 66.6773C238.181 66.873 237.985 66.929 237.817 66.929C237.733 66.929 237.677 66.929 237.649 66.901C237.677 66.8451 237.733 66.7612 237.789 66.6493C237.873 66.4535 237.957 66.2298 237.957 66.006C237.957 65.8382 237.901 65.6984 237.789 65.5865C237.677 65.4746 237.481 65.4187 237.174 65.4187C237.09 65.4187 237.006 65.4187 236.894 65.4467C236.223 65.5306 235.3 65.9501 234.517 66.3417C233.873 66.6773 233.314 67.0129 233.174 67.0968C233.006 66.7612 232.951 66.4815 232.951 66.2018C232.951 65.8103 233.062 65.5026 233.202 65.2789C233.258 65.167 233.314 65.0831 233.37 65.0272C233.398 64.9992 233.398 64.9712 233.426 64.9712L233.454 64.9433C233.454 64.9433 233.482 64.9153 233.51 64.8873C233.538 64.8593 233.566 64.8034 233.566 64.7475C233.566 64.7195 233.538 64.6636 233.51 64.6356C233.482 64.6076 233.426 64.6076 233.37 64.6076C233.034 64.6356 232.783 64.7475 232.587 64.8873C232.447 64.9712 232.363 65.0551 232.279 65.139C232.335 64.0762 232.699 63.405 233.118 62.9575C233.538 62.51 233.985 62.3143 234.097 62.2863C234.181 62.2583 234.237 62.2304 234.265 62.1744C234.293 62.1465 234.321 62.0905 234.321 62.0625C234.321 62.0346 234.321 62.0066 234.321 62.0066C234.321 61.9786 234.293 61.9507 234.265 61.9227C234.209 61.8668 234.097 61.8668 234.097 61.8668C234.097 61.8668 233.845 61.8108 233.622 61.7549C233.51 61.7269 233.37 61.699 233.286 61.671C233.258 61.671 233.23 61.643 233.202 61.643C233.901 60.776 234.908 60.6362 235.44 60.6362C235.552 60.6362 235.663 60.6362 235.719 60.6362C235.747 60.6362 235.775 60.6362 235.803 60.6362C235.831 60.6362 235.831 60.6362 235.831 60.6362C235.859 60.6362 235.915 60.6362 235.943 60.6362C236.027 60.6362 236.083 60.6082 236.139 60.5802C236.195 60.5523 236.223 60.4963 236.223 60.4404C236.223 60.3845 236.195 60.3285 236.167 60.3285C236.139 60.3006 236.111 60.3006 236.111 60.3006H236.083C236.055 60.2726 235.943 60.2167 235.691 60.0768C235.607 60.0209 235.552 59.9929 235.524 59.9649C235.496 59.937 235.496 59.909 235.496 59.909V59.881C235.552 59.881 235.663 59.881 235.775 59.909C235.943 59.909 236.139 59.937 236.195 59.9649C236.446 60.0489 236.67 60.1048 236.866 60.1048C237.23 60.1048 237.509 59.9649 237.677 59.7692C237.845 59.6014 237.957 59.4056 238.013 59.2937C238.069 59.2098 238.097 59.1259 238.097 59.042C238.097 58.8742 238.013 58.7623 237.873 58.7344C237.789 58.7064 237.677 58.6784 237.509 58.6784C237.341 58.6784 237.146 58.7064 236.978 58.8742C236.866 58.9861 236.782 59.014 236.726 59.014C236.698 59.014 236.67 59.014 236.642 58.9861H236.614L236.279 58.6784C236.139 58.6505 236.055 58.5945 235.999 58.5665C235.943 58.5386 235.943 58.5106 235.943 58.5106L235.971 58.4826C235.971 58.4826 235.999 58.4547 236.027 58.4547C236.223 58.3428 236.307 58.3148 236.474 58.3148C236.642 58.3148 236.866 58.3428 237.258 58.3428C237.314 58.3428 237.397 58.3428 237.481 58.3428C237.789 58.3428 237.957 58.2309 238.069 58.0911C238.181 57.9513 238.208 57.7834 238.208 57.6436C238.208 57.4478 238.153 57.308 238.153 57.308C238.153 57.308 237.957 56.7207 237.537 56.0774C237.425 55.8816 237.258 55.8257 237.118 55.8257C236.894 55.8257 236.67 55.9655 236.502 56.0774C236.335 56.1893 236.223 56.3291 236.223 56.3291C236.083 56.4689 235.943 56.4969 235.803 56.4969C235.663 56.4969 235.524 56.441 235.412 56.3291C235.356 56.2732 235.3 56.1333 235.272 55.9935ZM237.425 54.8468C237.537 54.9027 237.649 54.9587 237.733 55.0146L237.761 55.0426L237.789 55.0146C237.789 55.0146 237.901 54.9027 238.041 54.7909C238.097 54.7349 238.32 54.5951 238.292 54.5112C238.264 54.3713 237.649 54.5392 237.565 54.5671C237.481 54.5951 237.397 54.6231 237.369 54.651C237.341 54.651 237.314 54.679 237.314 54.679L237.286 54.707C237.174 54.8188 237.397 54.8468 237.425 54.8468ZM226.518 58.0631C226.658 58.6225 227.189 59.8531 227.441 60.4404C227.525 60.6362 227.581 60.7481 227.581 60.7481C227.581 60.7481 227.72 61.0277 227.72 61.3354C227.72 61.4752 227.693 61.643 227.609 61.7829C227.497 61.9786 227.385 62.0905 227.385 62.1185V62.1465C227.385 62.1465 227.357 62.1744 227.357 62.2024C227.329 62.2583 227.301 62.3422 227.301 62.4261C227.301 62.51 227.329 62.6499 227.413 62.7897C227.413 62.7897 227.525 62.9575 227.637 63.1533C227.748 63.3491 227.888 63.5728 227.972 63.6847C228 63.7127 228.028 63.7686 228.056 63.7966C228.084 63.8245 228.112 63.8525 228.112 63.8525V63.8245C228.112 63.7966 228.14 63.7406 228.14 63.6288C228.14 63.6008 228.14 63.6008 228.14 63.5728V63.5449C228.14 63.433 228.14 63.2652 228.168 63.1533C228.168 63.0414 228.252 62.9855 228.336 62.9855C228.392 62.9855 228.476 63.0414 228.504 63.1253C228.532 63.2092 228.56 63.377 228.615 63.5449C228.615 63.5449 228.615 63.5728 228.643 63.6008C228.643 63.6288 228.671 63.6847 228.699 63.7406C228.755 63.8525 228.839 64.0203 228.951 64.1881C229.147 64.5237 229.482 64.8593 229.902 65.0551C229.902 64.9992 229.902 64.9433 229.902 64.9153C229.902 64.6915 229.902 64.5517 229.902 64.4958C229.902 64.4958 229.902 64.4678 229.902 64.4398C229.902 64.4119 229.902 64.3839 229.902 64.3559C229.902 64.328 229.958 64.3 229.986 64.3C230.014 64.3 230.042 64.328 230.07 64.328C230.098 64.3559 230.126 64.3559 230.126 64.3839C230.154 64.4119 230.154 64.4398 230.182 64.4398L230.21 64.4678C230.21 64.4678 230.238 64.4958 230.266 64.5517C230.294 64.6076 230.377 64.6915 230.433 64.8034C230.573 65.0272 230.797 65.3068 231.049 65.5865C231.524 66.1179 232.111 66.6213 232.643 66.7332C232.615 66.5934 232.587 66.4256 232.587 66.2857C232.587 65.9781 232.643 65.6984 232.755 65.4187C232.699 65.4746 232.643 65.5026 232.587 65.5306L231.832 66.1738L231.86 65.195C231.916 64.1881 232.223 63.377 232.811 62.7338C233.006 62.538 233.202 62.3702 233.426 62.2304C233.342 62.2024 233.258 62.2024 233.202 62.1744C233.174 62.1744 233.118 62.1465 233.09 62.1465L232.867 62.0905C231.552 61.8947 229.65 61.3354 227.86 59.6293C227.637 59.4336 227.413 59.0979 227.413 58.7064C227.413 58.5106 227.469 58.3148 227.637 58.1191C227.776 57.9233 228.028 57.7555 228.392 57.6436H228.42L228.476 57.6156C228.504 57.5877 228.532 57.5597 228.532 57.5317C228.532 57.4758 228.476 57.336 228.252 57.1681C227.972 56.9444 227.748 56.7766 227.609 56.6647C227.469 56.5529 227.413 56.5249 227.413 56.5249C227.385 56.5249 227.329 56.5249 227.245 56.6368C227.077 56.8046 226.518 57.2521 226.518 57.8394C226.49 57.8673 226.49 57.9513 226.518 58.0631ZM228.532 68.0197V67.9638C228.532 67.9079 228.504 67.824 228.392 67.7401C228.28 67.6561 228.168 67.5722 228.084 67.4883C228 67.4324 227.972 67.3765 227.944 67.3765C227.944 67.3765 227.916 67.3765 227.888 67.3765C227.86 67.3765 227.804 67.3765 227.72 67.4324C227.693 67.4324 227.693 67.4604 227.637 67.4604C227.609 67.4883 227.553 67.5163 227.497 67.5443C227.385 67.6002 227.245 67.6841 227.105 67.796C227.133 67.824 227.161 67.8519 227.189 67.8799C227.357 68.0757 227.637 68.3274 227.972 68.4952C228.112 68.5511 228.28 68.6071 228.42 68.635C228.42 68.5791 228.392 68.4952 228.392 68.4393C228.448 68.2155 228.532 68.0197 228.532 68.0197ZM226.21 67.9079C225.931 67.9079 225.735 68.0197 225.595 68.1316C225.511 68.1875 225.455 68.2714 225.399 68.3274C225.427 68.3274 225.455 68.2994 225.483 68.2994C225.623 68.2435 225.763 68.2155 225.903 68.2155C226.014 68.2155 226.126 68.2435 226.21 68.2714C226.266 68.1596 226.35 68.0477 226.462 67.9638C226.378 67.9358 226.294 67.9079 226.21 67.9079ZM228.028 66.4535C227.86 66.3417 227.693 66.3137 227.553 66.2857C227.581 66.3137 227.609 66.3137 227.637 66.3417C227.972 66.5934 228.056 66.873 228.056 67.0409C228.084 67.0409 228.084 67.0408 228.112 67.0688H228.14L228.168 67.0968C228.168 67.0968 228.336 67.2366 228.504 67.3765C228.476 66.873 228.252 66.6213 228.028 66.4535ZM263.044 68.9427C263.128 68.9147 263.184 68.8308 263.268 68.7469C263.296 68.7189 263.324 68.691 263.38 68.663C263.212 68.5791 263.044 68.5511 262.904 68.5511C262.653 68.5511 262.457 68.663 262.289 68.7749C262.205 68.8308 262.149 68.8867 262.093 68.9427C262.121 68.9427 262.149 68.9147 262.177 68.9147C262.317 68.8588 262.457 68.8308 262.569 68.8308C262.792 68.8308 262.96 68.9147 263.044 68.9427ZM262.988 69.6698C262.988 69.8656 263.128 70.0894 263.24 70.2292C263.324 70.3411 263.464 70.369 263.603 70.397C263.743 70.425 263.883 70.4529 264.023 70.4529C264.135 70.4529 264.442 70.397 264.331 70.2292C264.275 70.1453 264.191 70.0894 264.135 69.9775C264.079 69.8656 264.023 69.7537 263.995 69.6419C263.939 69.4741 263.911 69.3063 263.883 69.1385C263.883 69.0825 263.855 69.0266 263.827 68.9706C263.799 68.9147 263.743 68.8867 263.687 68.8867C263.659 68.8867 263.603 68.9147 263.52 68.9986C263.24 69.2783 263.184 69.3342 263.1 69.4461C262.988 69.502 262.988 69.5859 262.988 69.6698ZM261.73 71.236C261.618 71.4318 261.59 71.6556 261.59 71.7954V71.8234C261.618 71.7954 261.618 71.7674 261.646 71.7395C261.869 71.3479 262.149 71.2361 262.289 71.2081C262.289 71.1521 262.261 71.0962 262.261 71.0403C262.261 70.9564 262.261 70.9004 262.289 70.8165C262.289 70.8165 262.289 70.8165 262.289 70.7886C262.009 70.9004 261.841 71.0682 261.73 71.236ZM246.823 68.3553C246.907 68.3553 246.962 68.3553 247.018 68.3553C247.074 68.3553 247.102 68.3553 247.158 68.3553H247.186C247.214 68.3553 247.242 68.3553 247.27 68.3553C247.158 68.0477 246.99 67.8519 246.823 67.7401C246.627 67.6282 246.431 67.5722 246.263 67.5722C246.207 67.5722 246.179 67.5722 246.123 67.5722C246.151 67.5722 246.179 67.6002 246.207 67.6002C246.627 67.796 246.767 68.0757 246.795 68.2155L246.823 68.3553ZM264.135 72.0192C264.107 71.9912 264.079 71.9632 264.051 71.9073C263.911 72.131 263.855 72.3268 263.855 72.5226C263.855 72.8582 264.051 73.1099 264.191 73.2497C264.191 73.2218 264.163 73.1938 264.163 73.1658C264.135 73.054 264.135 72.9421 264.135 72.8582C264.135 72.5785 264.219 72.4107 264.303 72.3268L264.359 72.2429L264.331 72.2149C264.275 72.131 264.219 72.0471 264.135 72.0192ZM266.512 72.1031L266.484 72.0192H266.204C266.176 72.0192 266.121 72.0192 266.065 72.0192C266.176 72.3548 266.344 72.5505 266.512 72.6624C266.708 72.7743 266.932 72.8023 267.099 72.8023H267.127C267.099 72.8023 267.071 72.7743 267.043 72.7463C266.68 72.5505 266.54 72.2429 266.512 72.1031ZM227.637 71.4318C227.385 71.6556 227.329 71.9353 227.329 72.159C227.329 72.2709 227.357 72.3827 227.357 72.4666C227.357 72.4387 227.385 72.4107 227.385 72.3827C227.469 72.0751 227.665 71.8793 227.804 71.7674C227.776 71.7115 227.72 71.6276 227.665 71.5717C227.665 71.5157 227.637 71.4878 227.637 71.4318ZM243.886 68.691C243.606 68.691 243.383 68.8308 243.243 68.9147C243.271 68.9147 243.299 68.9147 243.327 68.9147C243.383 68.9147 243.411 68.9147 243.466 68.9147C243.606 68.9147 243.746 68.9427 243.858 68.9706C243.942 68.8588 244.026 68.8028 244.11 68.7189C244.026 68.691 243.942 68.691 243.886 68.691ZM244.25 69.9775C244.25 70.0055 244.25 70.0055 244.25 70.0334C244.25 70.0894 244.25 70.0894 244.306 70.1173C244.361 70.1453 244.445 70.1733 244.613 70.1733C244.697 70.1733 244.753 70.1733 244.837 70.1733C244.949 70.1733 245.005 70.1733 245.061 70.1453C245.089 70.0894 245.089 70.0334 245.117 69.9775C245.145 69.8656 245.2 69.7537 245.2 69.6419C245.228 69.53 245.228 69.4461 245.228 69.3622C245.228 69.3063 245.228 69.2503 245.228 69.1664C245.117 69.0545 244.949 68.8867 244.865 68.8308C244.809 68.8028 244.753 68.7469 244.669 68.7469C244.613 68.7469 244.529 68.7749 244.445 68.8308C244.361 68.8867 244.278 68.9427 244.194 69.0266C244.138 69.0825 244.082 69.1664 244.082 69.2224C244.082 69.2503 244.082 69.3063 244.138 69.3622C244.25 69.53 244.278 69.6698 244.278 69.7817C244.25 69.8936 244.25 69.9495 244.25 69.9775ZM267.183 70.5368C267.127 70.4529 267.099 70.369 267.099 70.2851C267.099 70.0614 267.239 69.8936 267.351 69.7258C267.379 69.6978 267.379 69.6698 267.407 69.6698C267.519 69.502 267.575 69.3063 267.575 69.0825C267.575 68.8028 267.463 68.4392 267.099 68.0477C267.099 68.0477 267.016 67.9638 267.016 67.768C267.016 67.6282 267.043 67.4044 267.183 67.0688C267.295 66.7891 267.407 66.5374 267.407 66.2857C267.407 66.1738 267.379 66.034 267.295 65.8942C267.239 66.1179 267.183 66.5934 266.876 66.5654C266.652 66.5654 266.68 66.2857 266.68 66.1179C266.68 66.0899 266.68 66.034 266.708 65.9781C266.736 65.8662 266.736 65.6984 266.736 65.5026C266.736 65.2229 266.708 64.9153 266.596 64.6076C266.54 64.8034 266.512 64.9433 266.428 65.0272C266.4 65.0551 266.344 65.0831 266.316 65.0831C266.26 65.0831 266.204 65.0551 266.176 64.9992C266.149 64.9433 266.121 64.9153 266.093 64.8593C266.065 64.7475 266.065 64.6636 266.037 64.6636C266.037 64.6636 266.009 64.4119 265.925 64.1601C265.869 63.9084 265.785 63.6288 265.729 63.4889C265.729 63.5728 265.701 63.6847 265.673 63.7966C265.645 63.9364 265.617 64.1322 265.449 64.1881C265.337 64.2161 265.282 64.1042 265.282 63.9923C265.254 63.8805 265.226 63.7406 265.198 63.6288C265.142 63.433 265.086 63.2092 265.002 63.0135C264.974 62.9016 264.918 62.8457 264.89 62.8177C264.89 62.8457 264.862 62.8736 264.862 62.9016C264.834 62.9855 264.778 63.0694 264.694 63.1813C264.554 63.405 264.359 63.6847 264.107 63.8805C263.603 64.272 263.184 64.3 262.848 64.3C262.345 64.3 261.478 64.1322 260.723 63.6567C260.303 63.377 259.576 62.9575 259.101 62.6219L258.989 62.538H259.157C259.324 62.538 259.492 62.538 259.66 62.538C260.387 62.538 261.17 62.4541 261.674 62.2024C262.317 61.8947 262.625 61.4752 262.932 61.0837C263.24 60.6921 263.52 60.2726 264.079 59.9649C264.414 59.7692 264.778 59.7132 265.114 59.7132C265.505 59.7132 265.841 59.7971 265.981 59.8531C265.841 59.3497 265.254 58.9022 264.526 58.9022C263.995 58.9022 263.436 59.1259 262.904 59.7132L262.82 59.7971V59.6853V59.6573C262.82 59.6293 262.82 59.6293 262.82 59.6014C262.82 59.5454 262.792 59.4615 262.792 59.3776C262.736 59.1818 262.653 58.9301 262.485 58.6784C262.121 58.175 261.422 57.6716 259.996 57.6716C259.884 57.6716 259.772 57.6716 259.632 57.6716C258.457 57.7275 256.276 58.4267 254.262 58.8183C252.304 59.2098 249.396 59.3776 248.165 59.3776C247.69 59.3776 247.242 59.3217 246.823 59.2378C246.431 59.1539 246.095 58.9861 245.872 58.7623C245.732 58.5945 245.648 58.4267 245.648 58.203C245.648 57.7555 245.9 57.4758 246.207 57.336C246.515 57.1961 246.907 57.1681 247.186 57.1681C248.137 57.1681 249.452 57.7555 250.514 58.147C251.27 58.4267 251.997 58.4267 252.416 58.4267C253.507 58.4267 254.905 57.8394 255.605 57.5597C256.164 57.336 256.639 57.1681 257.45 57.1681C257.646 57.1681 257.87 57.1681 258.094 57.1961C257.786 56.8605 257.143 56.5249 256.304 56.5249C255.772 56.5249 255.129 56.6647 254.486 57.0283L254.43 57.0563L254.402 57.0003C254.374 56.9444 254.346 56.8885 254.346 56.8046C254.346 56.6368 254.43 56.441 254.598 56.2452C254.738 56.0774 254.933 55.9376 255.185 55.8537C255.017 55.7697 254.766 55.6579 254.402 55.6019C253.982 55.518 253.479 55.4341 252.92 55.4341C252.864 55.4341 252.808 55.4341 252.724 55.4341C251.801 55.4621 251.186 55.6858 250.598 55.9096C249.983 56.1333 249.396 56.3571 248.529 56.3571C248.445 56.3571 248.361 56.3571 248.305 56.3571C248.137 56.3571 247.969 56.3571 247.774 56.3571C246.935 56.3571 246.179 56.4689 245.62 56.7207C245.061 57.0003 244.725 57.4199 244.725 58.0631C244.725 58.6225 245.061 59.0979 245.676 59.4615C246.291 59.7971 247.186 59.9929 248.277 59.9929C248.305 59.9929 248.333 59.9929 248.333 59.9929C251.074 59.9649 254.374 59.3217 256.388 58.9861C257.059 58.8742 258.457 58.4826 259.66 58.4826C260.219 58.4826 260.723 58.5665 261.086 58.7903C261.478 59.014 261.702 59.4056 261.702 59.9649C261.702 60.2446 261.646 60.6082 261.394 60.8879C261.142 61.1676 260.723 61.3913 260.024 61.3913C259.212 61.3913 258.29 61.1676 257.171 60.9998H257.087C256.863 60.9718 256.611 60.9438 256.332 60.8879C254.71 60.6921 252.612 60.5523 251.437 60.5523C251.325 60.5523 251.214 60.5523 251.13 60.5523C250.235 60.5802 248.501 60.6921 246.851 60.9438C245.145 61.2235 243.578 61.5871 243.075 61.699V61.7549L243.047 63.3211L242.599 62.6219C242.599 62.6499 242.599 62.6778 242.599 62.7058C242.599 63.3491 242.46 63.9084 242.348 64.272C242.264 64.4678 242.208 64.6356 242.152 64.7195C242.124 64.7475 242.124 64.7754 242.124 64.8034L241.76 65.5026L241.425 64.9433C241.313 65.6145 241.033 66.2018 240.586 66.7052C240.474 66.8171 240.278 67.0129 240.026 67.2087C239.998 67.2366 239.998 67.2366 239.97 67.2646C239.887 67.3205 239.831 67.3765 239.775 67.4044L239.103 67.796V66.6213C238.964 66.7891 238.824 66.9569 238.684 67.0688C238.404 67.3205 238.097 67.4324 237.789 67.4324C237.677 67.4324 237.593 67.4044 237.481 67.3765L236.922 67.2087L237.23 66.7332C237.258 66.7052 237.313 66.6213 237.341 66.5095C237.453 66.2857 237.481 66.1459 237.481 66.062C237.481 66.034 237.481 66.006 237.453 65.9781C237.425 65.9501 237.314 65.9221 237.146 65.9221C237.062 65.9221 237.006 65.9221 236.922 65.9501C236.586 65.9781 235.915 66.1738 234.685 66.8171C234.041 67.1527 233.426 67.5163 232.811 67.8799C232.419 68.1316 232.028 68.3553 231.608 68.5511C231.021 68.8588 230.405 69.1385 229.762 69.2224C229.594 69.2503 229.399 69.2783 229.231 69.2783C228.951 69.2783 228.699 69.1944 228.56 69.0266C228.28 68.9986 228.028 68.9427 227.804 68.8308C227.553 68.691 227.329 68.5232 227.161 68.3833C227.021 68.2714 226.937 68.1316 226.853 68.0477C226.546 68.3274 226.266 68.691 226.21 69.1664C226.21 69.2783 226.21 69.3902 226.21 69.502C226.21 69.558 226.21 69.6139 226.21 69.6698C226.266 69.6698 226.322 69.6698 226.378 69.6698C227.637 69.6698 228.336 69.4741 228.392 69.4741H228.448C228.532 69.4741 228.587 69.53 228.615 69.5859V69.6419C228.615 69.7258 228.56 69.7817 228.504 69.8097C228.504 69.8097 227.748 70.0334 226.406 70.0334C226.35 70.0334 226.322 70.0334 226.266 70.0334C226.294 70.397 226.406 70.7326 226.546 70.9564C226.742 71.264 227.021 71.3479 227.133 71.3479H227.161C228.196 70.6208 228.867 70.397 228.895 70.397C228.923 70.397 228.923 70.397 228.951 70.397C229.035 70.397 229.091 70.4529 229.119 70.5089C229.119 70.5369 229.119 70.5368 229.119 70.5648C229.119 70.6208 229.063 70.7047 229.007 70.7326H228.979C228.951 70.7326 228.923 70.7606 228.839 70.7886C228.727 70.8445 228.56 70.9004 228.364 71.0123C228.224 71.0962 228.084 71.1801 227.916 71.264V71.292C227.916 71.32 227.916 71.3479 227.972 71.4318C228.112 71.6556 228.28 71.9352 228.392 72.1031C228.476 72.2149 228.615 72.3548 228.811 72.3548C228.979 72.3548 229.203 72.2429 229.455 71.8793C229.622 71.6835 229.818 71.5157 230.21 71.5157L231.133 71.4598H231.161C231.161 71.4598 231.189 71.4598 231.216 71.4598C231.244 71.4598 231.3 71.4318 231.384 71.4318C231.496 71.3759 231.664 71.32 231.748 71.1801C231.804 71.0962 231.888 71.0123 231.944 70.9843C232.028 70.9284 232.111 70.9284 232.195 70.9284C232.363 70.9284 232.531 70.9843 232.811 71.0403C233.202 71.1521 233.51 71.2081 233.734 71.2081C233.79 71.2081 233.845 71.2081 233.901 71.1801C233.873 71.1521 233.845 71.1242 233.79 71.0682C233.706 70.9843 233.594 70.8725 233.538 70.7886C233.482 70.7326 233.454 70.6487 233.454 70.5928C233.454 70.5648 233.454 70.5089 233.482 70.4809C233.538 70.425 233.594 70.397 233.65 70.397C233.706 70.397 233.762 70.425 233.79 70.4529C233.818 70.4809 233.873 70.5089 233.873 70.5368C234.265 70.8165 234.992 71.0123 235.579 71.0123C235.747 71.0123 235.887 71.0123 236.027 70.9564C235.915 70.9004 235.775 70.8165 235.691 70.7047C235.635 70.6487 235.607 70.5928 235.607 70.5089C235.607 70.4809 235.635 70.425 235.663 70.397C235.719 70.3411 235.775 70.3411 235.859 70.3411C236.027 70.3411 236.251 70.397 236.279 70.397C236.279 70.397 236.307 70.397 236.391 70.425C236.447 70.425 236.558 70.4529 236.67 70.4809C236.894 70.5089 237.202 70.5648 237.481 70.5648C237.789 70.5648 238.069 70.5089 238.236 70.397C237.929 70.1173 237.733 69.9216 237.733 69.9216C237.733 69.9216 237.649 69.8656 237.649 69.7537C237.649 69.7258 237.649 69.6698 237.705 69.6139C237.733 69.558 237.817 69.558 237.845 69.558C237.957 69.558 238.069 69.6139 238.097 69.6419C238.097 69.6419 238.153 69.6698 238.236 69.6978C238.32 69.7258 238.432 69.7537 238.572 69.8097C238.852 69.8936 239.215 69.9495 239.551 69.9495C239.831 69.9495 240.11 69.8936 240.306 69.7537C240.082 69.6698 239.943 69.53 239.943 69.53C239.943 69.53 239.887 69.4741 239.887 69.3902C239.887 69.3622 239.887 69.3342 239.915 69.2783C239.942 69.2224 239.998 69.1944 240.026 69.1944C240.082 69.1664 240.11 69.1664 240.166 69.1664C240.194 69.1664 240.222 69.1664 240.222 69.1664C240.334 69.1664 240.418 69.1944 240.53 69.1944C241.089 69.1944 241.397 69.0266 241.509 68.9706L240.949 68.2714C241.005 68.2435 241.173 68.1596 241.201 68.1596C241.257 68.1316 241.369 68.0757 241.481 68.0477C241.704 67.9918 242.012 67.9079 242.376 67.796C243.103 67.5722 244.11 67.1807 245.117 66.6213C247.102 65.5306 249.06 64.1601 251.018 63.6847C251.493 63.5728 251.969 63.5169 252.416 63.5169C252.948 63.5169 253.423 63.5728 253.787 63.6567C254.15 63.7406 254.57 64.0483 254.989 64.4678C255.437 64.8873 255.884 65.3907 256.276 65.8103C256.723 66.3137 257.115 66.6493 257.283 66.7891C257.339 66.8451 257.367 66.873 257.367 66.873C257.367 66.873 257.422 66.929 257.534 66.9849C257.646 67.0408 257.786 67.1527 257.926 67.2366C258.234 67.4324 258.625 67.6002 258.961 67.6841C258.933 67.5722 258.793 66.8451 259.101 66.9849C259.24 67.0408 259.296 67.1807 259.408 67.2926C259.548 67.4044 259.66 67.5163 259.828 67.6282C260.051 67.796 260.331 67.9079 260.555 67.9079C260.639 67.9079 260.695 67.8799 260.779 67.8519C260.639 67.6841 260.527 67.5443 260.527 67.5443C260.527 67.5443 260.471 67.4883 260.471 67.4324C260.471 67.3765 260.499 67.3485 260.555 67.3205C260.611 67.2926 260.695 67.2646 260.807 67.2646C260.835 67.2646 260.891 67.2646 260.946 67.2646C261.03 67.2646 261.198 67.2646 261.394 67.2646C261.73 67.2646 262.177 67.2366 262.569 67.1807C263.128 67.0968 263.603 66.929 263.799 66.8451C263.855 66.8171 263.911 66.8171 263.911 66.8171C263.911 66.8171 264.051 66.7612 264.219 66.7612C264.303 66.7612 264.387 66.7891 264.47 66.8171C264.582 66.901 264.666 67.0129 264.722 67.1527C264.778 67.2926 264.834 67.4324 264.862 67.4883C265.03 67.8799 265.365 68.3274 265.365 69.0825C265.365 69.1944 265.365 69.3063 265.337 69.4181C265.309 69.6139 265.254 70.0334 265.058 70.3411C264.694 70.8445 264.331 70.8725 264.275 70.8725C264.247 70.8725 264.191 70.8725 264.079 70.8725C264.023 70.8725 263.939 70.8725 263.855 70.8445C263.603 70.7886 263.352 70.6767 263.156 70.6767C263.1 70.6767 263.044 70.6767 262.988 70.7047C262.764 70.8165 262.736 70.9564 262.708 71.1242C262.708 71.292 262.792 71.4598 262.82 71.5157C262.82 71.5157 262.82 71.5437 262.848 71.5717C262.876 71.5996 262.904 71.6556 262.932 71.7115C263.016 71.8234 263.156 71.9073 263.38 71.9073C263.408 71.9073 263.436 71.9073 263.464 71.9073C263.631 71.8793 263.827 71.7954 263.939 71.6556C264.079 71.5437 264.191 71.4039 264.219 71.3479L264.247 71.32L264.582 70.8445C264.582 70.8445 264.61 70.8165 264.61 70.7886C264.638 70.7606 264.666 70.7326 264.722 70.7326C264.75 70.7326 264.778 70.7326 264.806 70.7606C264.862 70.7886 264.89 70.8445 264.89 70.9004C264.89 70.9284 264.89 70.9564 264.862 70.9843C264.862 71.0123 264.834 71.0403 264.834 71.0403C264.834 71.0403 264.806 71.0962 264.75 71.1242C264.722 71.1801 264.666 71.236 264.61 71.292C264.498 71.4318 264.415 71.5437 264.415 71.5437V71.5717C264.415 71.5996 264.415 71.5996 264.415 71.6276C264.415 71.6556 264.414 71.7115 264.498 71.7674C264.582 71.8513 264.666 71.9632 264.75 72.0471C264.806 72.131 264.862 72.2149 264.974 72.2429C265.198 72.2988 265.421 72.0471 265.533 71.9073C265.645 71.7954 265.757 71.6556 265.785 71.5157C265.869 71.292 265.869 71.0682 265.869 70.8725C265.869 70.7606 265.869 70.6767 265.869 70.5928C265.869 70.5368 265.869 70.4809 265.869 70.4809C265.869 70.4809 265.869 70.4529 265.869 70.425C265.869 70.397 265.869 70.369 265.897 70.3131C265.925 70.2851 265.953 70.2572 266.009 70.2292H266.037C266.121 70.2292 266.176 70.2851 266.176 70.3131C266.204 70.3411 266.204 70.397 266.204 70.397C266.204 70.397 266.204 70.4529 266.204 70.5648C266.204 70.7047 266.204 70.8725 266.204 71.0682C266.204 71.2361 266.176 71.4039 266.149 71.4878C266.149 71.5157 266.149 71.5437 266.149 71.5437C266.149 71.5717 266.149 71.5996 266.176 71.5996C266.176 71.5996 266.204 71.6276 266.232 71.6276C266.288 71.6556 266.316 71.6556 266.344 71.6556L267.155 71.6276C267.183 71.6276 267.295 71.6276 267.379 71.5717C267.463 71.5157 267.547 71.4039 267.575 71.2081C267.575 71.1521 267.575 71.1242 267.575 71.0962C267.575 70.9284 267.519 70.8165 267.463 70.7606C267.295 70.6767 267.239 70.6208 267.183 70.5368ZM255.241 68.5511C255.073 68.5232 254.849 68.4672 254.654 68.3553C254.262 68.1316 254.01 67.6561 254.01 67.3205C254.01 66.9569 254.234 66.4535 254.57 66.0899C254.821 65.8382 255.073 65.6145 255.297 65.4746C255.297 65.4746 254.374 64.5517 254.29 64.4678C253.982 64.2161 253.675 63.9644 253.283 63.8525C252.864 63.7406 252.472 63.8805 252.109 64.0483C251.885 64.1601 251.633 64.272 251.409 64.4119C250.514 64.9712 250.067 66.006 249.927 66.3696C249.955 66.3416 250.011 66.3137 250.067 66.2577C250.207 66.1459 250.375 66.034 250.486 66.006C250.514 66.006 250.57 65.9781 250.598 65.9781C250.682 65.9781 250.738 66.006 250.766 66.062C250.794 66.1179 250.794 66.1738 250.794 66.2018C250.794 66.2857 250.766 66.3417 250.766 66.3417C250.766 66.3417 250.738 66.3976 250.738 66.4815C250.71 66.5654 250.682 66.6773 250.654 66.8171C250.598 67.0409 250.542 67.3205 250.542 67.6002C250.71 67.3485 250.906 67.1527 250.906 67.1248L250.934 67.0968C250.962 67.0688 250.99 67.0688 251.046 67.0688C251.074 67.0688 251.102 67.0688 251.13 67.0968C251.158 67.1248 251.158 67.1527 251.186 67.1807C251.186 67.2087 251.186 67.2366 251.186 67.2926C251.186 67.6282 251.102 67.9918 251.298 68.2994C251.465 68.5791 251.549 68.8028 251.409 69.1105C251.298 69.3622 251.018 69.5859 250.794 69.7537C250.654 69.8376 250.486 69.9216 250.263 69.9216C250.067 69.9495 249.759 69.9216 249.508 70.0055C249.172 70.1173 248.892 70.369 248.557 70.4529C248.445 70.4809 248.361 70.4809 248.249 70.4809C247.857 70.4809 247.382 70.369 247.102 70.0614C246.962 69.8936 246.907 69.7258 246.907 69.5859C246.907 69.1664 247.27 68.8028 247.298 68.7749L247.326 68.7469C247.326 68.7189 247.354 68.691 247.354 68.663V68.635C247.354 68.635 247.326 68.6071 247.27 68.6071C247.242 68.6071 247.186 68.6071 247.13 68.6071C246.795 68.6071 246.263 68.6071 246.235 68.6071C246.235 68.6071 246.012 68.6071 245.872 68.7469L245.844 68.7749C245.816 68.8028 245.816 68.8028 245.788 68.8308C245.76 68.8867 245.704 68.9706 245.648 69.0825C245.592 69.2224 245.62 69.4461 245.592 69.7258C245.536 69.9775 245.396 70.2851 245.368 70.4809C245.368 70.5089 245.368 70.5648 245.368 70.5928C245.368 70.8725 245.48 71.0962 245.592 71.236C245.928 71.7115 246.571 71.9912 247.158 72.187C247.746 72.3548 248.305 72.4387 248.529 72.4666C248.585 72.4666 248.613 72.4666 248.613 72.4666C248.696 72.4387 249.619 72.187 249.927 72.131C250.235 72.0751 251.018 71.9912 251.353 71.9352L250.85 71.6835C250.85 71.6835 250.822 71.6556 250.794 71.6276C250.766 71.5996 250.738 71.5437 250.738 71.4878C250.738 71.4598 250.738 71.4318 250.766 71.4039C250.794 71.3479 250.822 71.32 250.85 71.32C250.878 71.292 250.934 71.292 250.962 71.292C251.018 71.292 251.046 71.292 251.046 71.292C251.074 71.292 251.186 71.32 251.353 71.32C251.549 71.32 251.801 71.3479 252.053 71.3479C252.248 71.3479 252.444 71.3479 252.612 71.32C253.032 71.264 253.255 71.0962 253.339 70.9843C253.311 70.9843 253.283 70.9843 253.255 70.9564C253.171 70.9284 253.087 70.9004 253.032 70.9004C252.948 70.8725 252.836 70.8165 252.78 70.7606C252.752 70.7326 252.724 70.7326 252.696 70.7047C252.668 70.6767 252.64 70.6208 252.64 70.5648V70.5368C252.64 70.5089 252.668 70.4809 252.696 70.4529C252.724 70.425 252.752 70.425 252.78 70.397C252.836 70.369 252.892 70.369 252.892 70.369C252.892 70.369 253.059 70.3411 253.255 70.3131C253.451 70.2851 253.703 70.2292 253.899 70.1453C254.178 70.0334 254.486 69.8097 254.626 69.7258C254.57 69.6978 254.514 69.6698 254.458 69.6419C254.318 69.5859 254.15 69.502 254.038 69.3902C254.038 69.3902 254.01 69.3622 253.982 69.3342C253.954 69.3063 253.927 69.2503 253.927 69.1944V69.1385C253.954 69.1105 253.954 69.0825 253.982 69.0825C254.01 69.0545 254.038 69.0545 254.066 69.0545C254.122 69.0266 254.178 69.0266 254.178 69.0266C254.178 69.0266 254.234 69.0266 254.29 68.9986C254.374 68.9706 254.458 68.9706 254.57 68.9427C254.794 68.8867 255.073 68.8028 255.241 68.7189C255.353 68.663 255.409 68.6071 255.437 68.5511H255.409C255.409 68.5791 255.325 68.5791 255.241 68.5511ZM243.383 70.9004C243.299 71.0123 243.243 71.0962 243.215 71.1801C243.243 71.1521 243.271 71.1521 243.299 71.1242C243.494 70.9564 243.69 70.9004 243.83 70.8725C243.83 70.8165 243.858 70.7326 243.858 70.7047V70.6767C243.886 70.6208 243.886 70.5648 243.914 70.5368C243.662 70.5928 243.494 70.7326 243.383 70.9004ZM245.284 71.7395C245.228 71.7674 245.173 71.8234 245.145 71.8513C245.117 71.8793 245.089 71.9073 245.061 71.9352C245.033 71.9632 245.033 71.9912 245.005 72.0192C245.005 72.0471 244.977 72.1031 244.977 72.159C244.977 72.2429 245.005 72.3268 245.061 72.4107C245.117 72.4946 245.228 72.5785 245.396 72.6624C245.536 72.7184 245.648 72.7463 245.76 72.7463C245.956 72.7463 246.067 72.6624 246.151 72.5505C246.207 72.4666 246.263 72.3548 246.291 72.2709C245.956 72.131 245.648 71.9352 245.396 71.6835C245.396 71.6835 245.34 71.7115 245.284 71.7395ZM245.173 71.3759C245.061 71.2081 244.949 70.9564 244.949 70.6208C244.949 70.5648 244.949 70.5369 244.949 70.4809C244.837 70.4809 244.697 70.4529 244.585 70.4529C244.557 70.4529 244.557 70.4529 244.529 70.4529H244.501C244.473 70.4529 244.445 70.4529 244.417 70.4529C244.361 70.4529 244.333 70.4529 244.306 70.5089C244.278 70.5369 244.222 70.6208 244.166 70.7886C244.138 70.8725 244.11 71.0123 244.11 71.1242C244.11 71.1801 244.11 71.236 244.138 71.264C244.166 71.32 244.194 71.3479 244.25 71.3759C244.529 71.4878 244.725 71.5157 244.865 71.5157H244.893C244.921 71.5157 245.005 71.5157 245.033 71.4878C245.145 71.4598 245.173 71.4039 245.173 71.3759ZM244.753 72.2709C244.557 72.5226 244.529 72.8023 244.529 72.9701V72.998C244.529 72.9701 244.557 72.9421 244.585 72.9141C244.641 72.7743 244.725 72.6624 244.809 72.6065C244.781 72.5226 244.753 72.4387 244.753 72.3268C244.725 72.3268 244.753 72.2988 244.753 72.2709ZM231.664 57.1402C231.916 57.336 232.195 57.4758 232.475 57.5597C232.755 57.6436 233.062 57.6716 233.314 57.6716C233.873 57.6716 234.377 57.5597 234.88 57.4758C235.384 57.3919 235.887 57.308 236.391 57.308C236.894 57.308 237.397 57.4199 237.845 57.7555C237.453 57.3919 236.95 57.1961 236.419 57.1122C235.887 57.0283 235.356 57.0563 234.852 57.0842C234.349 57.1122 233.818 57.1402 233.342 57.0842C232.867 57.0283 232.419 56.8605 232.139 56.5529L232.111 56.5249C231.944 56.385 231.692 56.413 231.58 56.5808C231.468 56.7486 231.496 57.0003 231.664 57.1402Z" fill="white"/>
<path d="M233.062 110.81C233.145 110.363 233.229 109.887 233.341 109.468C234.208 109.943 235.635 110.195 237.285 110.475C239.438 110.866 241.983 111.314 243.773 112.377C243.326 112.209 242.766 112.013 242.095 111.817C239.802 111.202 238.655 111.258 237.508 111.286C236.39 111.314 235.243 111.37 233.062 110.81ZM258.68 111.426C256.359 111.929 255.156 111.873 253.982 111.845C252.779 111.789 251.632 111.761 249.311 112.293C248.444 112.489 247.801 112.656 247.325 112.852C247.885 112.712 248.612 112.6 249.563 112.489C251.996 112.237 253.199 112.405 254.373 112.572C255.492 112.74 256.639 112.908 258.904 112.684C258.82 112.237 258.736 111.845 258.68 111.426ZM247.857 112.349C248.304 112.181 248.863 111.985 249.535 111.789C251.828 111.174 252.975 111.23 254.121 111.258C255.212 111.314 256.359 111.342 258.54 110.782C258.456 110.335 258.373 109.86 258.261 109.44C257.394 109.915 255.967 110.167 254.317 110.447C252.192 110.838 249.647 111.286 247.857 112.349ZM237.648 111.845C236.474 111.873 235.271 111.929 232.95 111.426C232.866 111.845 232.81 112.237 232.754 112.656C235.019 112.88 236.166 112.712 237.285 112.544C238.459 112.377 239.634 112.209 242.095 112.461C243.046 112.572 243.773 112.684 244.333 112.824C243.829 112.656 243.186 112.461 242.347 112.265C239.97 111.761 238.851 111.789 237.648 111.845ZM235.858 101.693L233.481 108.825C235.467 110.111 242.794 109.804 245.563 113.048V105.469C244.836 102.224 237.844 102.979 235.858 101.693ZM255.744 101.693C253.758 102.979 246.766 102.224 246.039 105.469V113.048C248.78 109.776 256.107 110.111 258.121 108.825L255.744 101.693Z" fill="white"/>
<path d="M223.188 82.6746L223.524 83.234C223.664 83.4577 223.887 83.5976 224.167 83.5976H224.195C224.055 83.8773 223.943 84.2688 223.915 84.7443C223.915 84.8282 223.915 84.9121 223.915 85.0239C223.915 85.2477 223.915 85.6113 223.831 85.7791C223.803 85.835 223.72 85.9189 223.664 86.0028C223.496 86.1706 223.244 86.4503 223.384 86.8419C223.524 87.2334 223.887 87.3173 224.111 87.3453C224.195 87.3733 224.307 87.3733 224.363 87.4292C224.531 87.5131 224.726 87.7928 224.866 87.9886C224.922 88.0725 224.978 88.1564 225.034 88.2123C225.37 88.6318 225.705 88.9115 226.097 89.0513C225.817 89.1912 225.649 89.5268 225.733 89.8624L225.873 90.5057C225.957 90.8413 226.237 91.093 226.6 91.093C226.656 91.093 226.712 91.093 226.768 91.065L227.411 90.9252C227.691 90.8693 227.887 90.6735 227.971 90.4218C228.222 90.6735 228.558 90.8693 228.978 91.0371C229.061 91.065 229.145 91.093 229.229 91.121C229.453 91.2049 229.789 91.2888 229.928 91.4286C229.984 91.4846 230.04 91.5685 230.068 91.6524C230.18 91.8481 230.376 92.1837 230.795 92.1837C231.215 92.1837 231.411 91.8481 231.523 91.6524C231.579 91.5685 231.607 91.4846 231.662 91.4286C231.774 91.2888 232.138 91.1769 232.362 91.121C232.446 91.093 232.557 91.065 232.613 91.0371C233.117 90.8413 233.48 90.6175 233.732 90.3099C233.76 90.4218 233.816 90.5336 233.872 90.6455C233.984 90.7853 234.18 90.8972 234.375 90.9252L235.019 90.9811C235.047 90.9811 235.075 90.9811 235.102 90.9811C235.494 90.9811 235.802 90.7014 235.83 90.3099L235.886 89.6666C235.914 89.4709 235.858 89.2751 235.718 89.1352C235.662 89.0793 235.634 89.0234 235.578 88.9954C235.886 88.8276 236.193 88.5759 236.473 88.2123C236.529 88.1564 236.585 88.0725 236.641 87.9886C236.781 87.7928 236.976 87.5131 237.144 87.4292C237.228 87.4012 237.312 87.3733 237.396 87.3453C237.62 87.2894 238.011 87.2054 238.123 86.8139C238.235 86.4223 237.983 86.1427 237.843 85.9749C237.787 85.891 237.704 85.835 237.676 85.7511C237.592 85.5833 237.592 85.2477 237.592 84.996C237.592 84.8841 237.592 84.8002 237.592 84.7163C237.564 84.129 237.424 83.7094 237.228 83.4298C237.256 83.4298 237.284 83.4298 237.312 83.4298C237.592 83.4298 237.871 83.262 237.983 82.9823L238.235 82.395C238.319 82.2271 238.319 82.0034 238.235 81.8356C238.151 81.6398 238.039 81.5 237.843 81.4161L237.256 81.1644C237.172 81.1364 237.06 81.1084 236.948 81.1084C236.781 81.1084 236.641 81.1644 236.501 81.2483C236.445 80.9127 236.305 80.5211 236.053 80.1575C235.997 80.0736 235.942 80.0177 235.886 79.9338C235.746 79.738 235.522 79.4583 235.522 79.2905C235.522 79.2066 235.522 79.1227 235.522 79.0108C235.55 78.7871 235.578 78.3955 235.27 78.1438C235.158 78.0599 235.019 78.004 234.879 78.004C234.683 78.004 234.543 78.0599 234.375 78.1438C234.291 78.1718 234.208 78.2277 234.124 78.2277C234.096 78.2277 234.068 78.2277 234.04 78.2277C233.844 78.2277 233.592 78.1438 233.368 78.0599C233.285 78.0319 233.201 78.004 233.117 77.976C232.809 77.8921 232.529 77.8362 232.278 77.8362C232.138 77.8362 231.942 77.8641 231.774 77.8921C231.83 77.7802 231.858 77.6684 231.858 77.5285C231.858 77.3327 231.774 77.1649 231.606 77.0251L231.131 76.5776C230.991 76.4657 230.823 76.3818 230.628 76.3818C230.432 76.3818 230.208 76.4657 230.068 76.6335L229.621 77.109C229.425 77.3048 229.397 77.6124 229.481 77.8362C229.341 77.8082 229.229 77.8082 229.117 77.8082C228.866 77.8082 228.586 77.8641 228.278 77.948C228.194 77.976 228.111 78.004 228.027 78.0319C227.803 78.1159 227.551 78.1998 227.355 78.1998C227.327 78.1998 227.299 78.1998 227.271 78.1998C227.188 78.1718 227.104 78.1438 227.02 78.1159C226.88 78.0599 226.712 77.976 226.516 77.976C226.376 77.976 226.237 78.0319 226.125 78.1159C225.789 78.3676 225.845 78.7311 225.845 78.9829C225.845 79.0668 225.873 79.1786 225.873 79.2625C225.845 79.4303 225.649 79.738 225.509 79.9058C225.454 79.9897 225.398 80.0456 225.342 80.1295C225.034 80.577 224.894 80.9966 224.866 81.3881C224.726 81.2483 224.559 81.1923 224.363 81.1923C224.223 81.1923 224.111 81.2203 223.999 81.3042L223.44 81.6398C223.272 81.7517 223.16 81.8915 223.104 82.0873C223.076 82.3111 223.104 82.5068 223.188 82.6746Z" fill="white"/>
<path d="M230.685 81.2488C231.413 81.2488 232.028 81.7802 232.168 82.4514C232.224 82.4514 232.308 82.4514 232.363 82.4514C233.007 82.4514 233.594 82.8709 233.79 83.4862C234.014 84.1854 233.706 84.9126 233.091 85.2762C233.23 85.5558 233.258 85.8635 233.23 86.1711C233.175 86.5627 232.951 86.9263 232.615 87.15C232.363 87.3458 232.056 87.4297 231.72 87.4297C231.329 87.4297 230.965 87.2899 230.713 87.0382C230.434 87.2899 230.07 87.4577 229.679 87.4577C229.371 87.4577 229.063 87.3458 228.784 87.178C228.196 86.7585 228 85.9754 228.308 85.3321C228.028 85.1923 227.833 84.9685 227.693 84.6888C227.497 84.3253 227.469 83.9337 227.609 83.5422C227.805 82.9269 228.392 82.5073 229.035 82.5073C229.091 82.5073 229.147 82.5073 229.203 82.5073C229.259 82.1997 229.399 81.92 229.623 81.7242C229.902 81.3886 230.294 81.2488 230.685 81.2488Z" fill="white"/>
<path d="M230.879 81.2486C231.522 81.3325 232.026 81.808 232.166 82.4512C232.221 82.4512 232.305 82.4512 232.361 82.4512C232.949 82.4512 233.48 82.7868 233.732 83.3182C234.235 83.1784 234.683 82.9546 234.962 82.8148C236.165 82.2275 236.249 81.4444 235.606 80.4935C235.41 80.2138 235.018 79.7943 234.962 79.3468C234.934 79.0391 235.046 78.7035 234.934 78.6196C234.822 78.5357 234.543 78.7594 234.235 78.8154C233.816 78.8993 233.284 78.6476 232.949 78.5637C231.858 78.256 231.159 78.5916 230.963 79.9061C230.935 80.2138 230.851 80.7172 230.879 81.2486ZM230.571 78.4798C230.627 78.5357 230.739 78.5357 230.795 78.4798L231.215 77.7806C231.271 77.7246 231.271 77.6128 231.215 77.5568L230.739 77.1093C230.683 77.0534 230.571 77.0534 230.515 77.1093L230.068 77.5848C230.012 77.6407 230.012 77.7526 230.068 77.8085L230.571 78.4798ZM226.488 82.8148C226.768 82.9546 227.187 83.1784 227.691 83.2903C227.942 82.7868 228.474 82.4512 229.033 82.4512C229.089 82.4512 229.145 82.4512 229.201 82.4512C229.257 82.1436 229.397 81.8639 229.62 81.6401C229.872 81.3884 230.208 81.2206 230.571 81.1927C230.599 80.6613 230.515 80.1858 230.487 79.8782C230.292 78.5637 229.564 78.2281 228.502 78.5357C228.166 78.6196 227.635 78.8713 227.215 78.7874C226.908 78.7315 226.628 78.5077 226.516 78.5916C226.404 78.6755 226.516 79.0112 226.488 79.3188C226.432 79.7383 226.041 80.1858 225.845 80.4655C225.229 81.4444 225.313 82.2275 226.488 82.8148ZM223.691 82.3953L224.027 82.9546C224.083 83.0385 224.167 83.0665 224.251 83.0106L225.006 82.7309C225.09 82.675 225.118 82.5911 225.062 82.5072L224.53 81.8919C224.474 81.808 224.39 81.78 224.307 81.8359L223.747 82.1715C223.663 82.1995 223.635 82.3114 223.691 82.3953ZM236.473 82.675L237.256 82.8707C237.34 82.8987 237.423 82.8707 237.479 82.7868L237.731 82.1995C237.759 82.1156 237.731 82.0317 237.647 81.9758L237.06 81.7241C236.976 81.6961 236.892 81.7241 236.836 81.808L236.389 82.4792C236.333 82.5351 236.389 82.647 236.473 82.675ZM227.327 89.3593C227.299 89.2754 227.215 89.2195 227.131 89.2195L226.404 89.5551C226.32 89.5831 226.264 89.667 226.264 89.7509L226.404 90.3941C226.432 90.478 226.516 90.534 226.6 90.534L227.243 90.3941C227.327 90.3662 227.383 90.2823 227.383 90.1984L227.327 89.3593ZM237.004 84.7726C236.948 83.6538 236.417 83.0665 235.13 83.2903C234.822 83.3462 234.347 83.4301 233.844 83.5979C234.011 84.2412 233.704 84.9404 233.116 85.248C233.256 85.5277 233.284 85.8353 233.256 86.143C233.2 86.4786 233.033 86.7863 232.809 87.01C233.088 87.4295 233.424 87.7372 233.62 87.9609C234.543 88.9118 235.326 88.744 236.025 87.877C236.221 87.6253 236.529 87.0939 236.92 86.9261C237.228 86.7863 237.563 86.8142 237.591 86.6744C237.647 86.5345 237.34 86.3388 237.172 86.0871C236.948 85.6955 237.004 85.1082 237.004 84.7726ZM228.334 85.304C228.054 85.1641 227.858 84.9404 227.719 84.6607C227.551 84.3251 227.495 83.9615 227.607 83.5979C227.131 83.4301 226.684 83.3462 226.376 83.2903C225.062 83.0665 224.53 83.6538 224.502 84.7726C224.502 85.1082 224.558 85.6955 224.334 86.0591C224.167 86.3388 223.887 86.5346 223.915 86.6464C223.971 86.7863 224.307 86.7583 224.586 86.8981C224.978 87.0659 225.257 87.5973 225.481 87.849C226.18 88.744 226.963 88.8839 227.886 87.9329C228.082 87.7372 228.418 87.4016 228.697 87.01C228.194 86.5905 228.054 85.8913 228.334 85.304ZM235.158 89.4153L234.375 89.1915C234.291 89.1915 234.207 89.2474 234.179 89.3313L234.235 90.1424C234.235 90.2263 234.291 90.3102 234.375 90.3382L235.018 90.3941C235.102 90.3941 235.186 90.3382 235.186 90.2543L235.242 89.611C235.298 89.4992 235.242 89.4432 235.158 89.4153ZM233.2 88.2686C233.816 89.4432 233.424 90.1424 232.361 90.534C232.054 90.6458 231.466 90.7577 231.187 91.0933C230.963 91.345 230.879 91.6807 230.739 91.6807C230.599 91.6807 230.515 91.345 230.292 91.0933C230.012 90.7857 229.425 90.6458 229.117 90.534C228.054 90.1424 227.663 89.4712 228.278 88.2686C228.418 88.0169 228.614 87.6253 228.893 87.2337C229.117 87.3736 229.397 87.4575 229.676 87.4575C230.068 87.4575 230.432 87.3177 230.711 87.038C230.991 87.2897 231.354 87.4295 231.718 87.4295C231.998 87.4295 232.277 87.3456 232.501 87.2058C232.865 87.5973 233.06 87.9889 233.2 88.2686Z" fill="#B5121B"/>
<path d="M228.755 84.8845C228.839 84.9124 228.923 84.9124 229.007 84.9404C229.063 84.9404 229.091 84.9684 229.119 84.9963C229.175 85.0803 229.147 85.1642 229.091 85.2201C229.035 85.276 228.979 85.332 228.923 85.3879C228.616 85.8074 228.699 86.3947 229.119 86.7024C229.538 87.01 230.126 86.9261 230.433 86.5066C230.489 86.4507 230.517 86.3668 230.545 86.2829C230.573 86.2269 230.601 86.199 230.657 86.199C230.741 86.171 230.825 86.199 230.853 86.2829C230.881 86.3388 230.909 86.4227 230.965 86.4787C231.272 86.8982 231.86 86.9821 232.279 86.6744C232.699 86.3668 232.783 85.7795 232.475 85.3599C232.419 85.304 232.363 85.2201 232.307 85.1642C232.279 85.1362 232.251 85.0803 232.251 85.0243C232.251 84.9404 232.307 84.8565 232.391 84.8565C232.475 84.8565 232.531 84.8285 232.615 84.8006C233.118 84.6328 233.37 84.1014 233.23 83.6259C233.062 83.1225 232.531 82.8708 232.056 83.0106C231.972 83.0386 231.888 83.0666 231.832 83.1225C231.804 83.1505 231.748 83.1505 231.692 83.1505C231.608 83.1225 231.552 83.0386 231.58 82.9547C231.608 82.8708 231.608 82.8148 231.608 82.7309C231.608 82.1995 231.189 81.78 230.657 81.78C230.126 81.78 229.706 82.1995 229.706 82.7309C229.706 82.8148 229.706 82.8987 229.734 82.9827C229.734 83.0386 229.734 83.0666 229.706 83.1225C229.65 83.2064 229.566 83.2064 229.483 83.1784C229.427 83.1505 229.343 83.0945 229.287 83.0945C228.783 82.9267 228.252 83.2064 228.112 83.7098C227.972 84.1853 228.252 84.7167 228.755 84.8845Z" fill="#B5121B"/>
<path d="M229.9 84.4923C229.9 84.0728 230.236 83.7651 230.628 83.7651C231.047 83.7651 231.355 84.1008 231.355 84.4923C231.355 84.9118 231.019 85.2195 230.628 85.2195C230.236 85.2195 229.9 84.9118 229.9 84.4923Z" fill="white"/>
<path d="M268.41 82.6746L268.075 83.234C267.935 83.4577 267.711 83.5976 267.432 83.5976H267.404C267.543 83.8773 267.655 84.2688 267.683 84.7443C267.683 84.8282 267.683 84.9121 267.683 85.0239C267.683 85.2477 267.683 85.6113 267.767 85.7791C267.795 85.835 267.879 85.9189 267.935 86.0028C268.103 86.1706 268.355 86.4503 268.215 86.8419C268.075 87.2334 267.711 87.3173 267.488 87.3453C267.404 87.3733 267.292 87.3733 267.236 87.4292C267.068 87.5131 266.872 87.7928 266.732 87.9886C266.676 88.0725 266.621 88.1564 266.565 88.2123C266.229 88.6318 265.893 88.9115 265.502 89.0513C265.781 89.1912 265.949 89.5268 265.865 89.8624L265.726 90.5057C265.642 90.8413 265.362 91.093 264.998 91.093C264.942 91.093 264.887 91.093 264.831 91.065L264.187 90.9252C263.908 90.8693 263.712 90.6735 263.628 90.4218C263.376 90.6735 263.041 90.8693 262.621 91.0371C262.537 91.065 262.453 91.093 262.369 91.121C262.146 91.2049 261.81 91.2888 261.67 91.4286C261.614 91.4846 261.558 91.5685 261.53 91.6524C261.418 91.8481 261.223 92.1837 260.803 92.1837C260.384 92.1837 260.188 91.8481 260.076 91.6524C260.02 91.5685 259.992 91.4846 259.936 91.4286C259.824 91.2888 259.461 91.1769 259.237 91.121C259.153 91.093 259.041 91.065 258.985 91.0371C258.482 90.8413 258.118 90.6175 257.867 90.3099C257.839 90.4218 257.783 90.5336 257.727 90.6455C257.615 90.7853 257.419 90.8972 257.223 90.9252L256.58 90.9811C256.552 90.9811 256.524 90.9811 256.496 90.9811C256.105 90.9811 255.797 90.7014 255.769 90.3099L255.713 89.6666C255.685 89.4709 255.741 89.2751 255.881 89.1352C255.937 89.0793 255.965 89.0234 256.021 88.9954C255.713 88.8276 255.405 88.5759 255.126 88.2123C255.07 88.1564 255.014 88.0725 254.958 87.9886C254.818 87.7928 254.622 87.5131 254.454 87.4292C254.371 87.4012 254.287 87.3733 254.203 87.3453C253.979 87.2894 253.587 87.2054 253.476 86.8139C253.364 86.4223 253.615 86.1427 253.755 85.9749C253.811 85.891 253.895 85.835 253.923 85.7511C254.007 85.5833 254.007 85.2477 254.007 84.996C254.007 84.8841 254.007 84.8002 254.007 84.7163C254.035 84.129 254.175 83.7094 254.371 83.4298C254.343 83.4298 254.315 83.4298 254.287 83.4298C254.007 83.4298 253.727 83.262 253.615 82.9823L253.364 82.395C253.28 82.2271 253.28 82.0034 253.364 81.8356C253.448 81.6398 253.559 81.5 253.755 81.4161L254.343 81.1644C254.426 81.1364 254.538 81.1084 254.65 81.1084C254.818 81.1084 254.958 81.1644 255.098 81.2483C255.154 80.9127 255.293 80.5211 255.545 80.1575C255.601 80.0736 255.657 80.0177 255.713 79.9338C255.853 79.738 256.077 79.4583 256.077 79.2905C256.077 79.2066 256.077 79.1227 256.077 79.0108C256.049 78.7871 256.021 78.3955 256.328 78.1438C256.44 78.0599 256.58 78.004 256.72 78.004C256.916 78.004 257.055 78.0599 257.223 78.1438C257.307 78.1718 257.391 78.2277 257.475 78.2277C257.503 78.2277 257.531 78.2277 257.559 78.2277C257.755 78.2277 258.006 78.1438 258.23 78.0599C258.314 78.0319 258.398 78.004 258.482 77.976C258.789 77.8921 259.069 77.8362 259.321 77.8362C259.461 77.8362 259.657 77.8641 259.824 77.8921C259.768 77.7802 259.74 77.6684 259.74 77.5285C259.74 77.3327 259.824 77.1649 259.992 77.0251L260.468 76.5776C260.607 76.4657 260.775 76.3818 260.971 76.3818C261.167 76.3818 261.391 76.4657 261.53 76.6335L261.978 77.109C262.174 77.3048 262.202 77.6124 262.118 77.8362C262.258 77.8082 262.369 77.8082 262.481 77.8082C262.733 77.8082 263.013 77.8641 263.32 77.948C263.404 77.976 263.488 78.004 263.572 78.0319C263.796 78.1159 264.047 78.1998 264.243 78.1998C264.271 78.1998 264.299 78.1998 264.327 78.1998C264.411 78.1718 264.495 78.1438 264.579 78.1159C264.719 78.0599 264.887 77.976 265.082 77.976C265.222 77.976 265.362 78.0319 265.474 78.1159C265.809 78.3676 265.754 78.7311 265.754 78.9829C265.754 79.0668 265.726 79.1786 265.726 79.2625C265.754 79.4303 265.949 79.738 266.089 79.9058C266.145 79.9897 266.201 80.0456 266.257 80.1295C266.565 80.577 266.704 80.9966 266.732 81.3881C266.872 81.2483 267.04 81.1923 267.236 81.1923C267.376 81.1923 267.488 81.2203 267.599 81.3042L268.159 81.6398C268.327 81.7517 268.438 81.8915 268.494 82.0873C268.522 82.3111 268.494 82.5068 268.41 82.6746Z" fill="white"/>
<path d="M260.916 81.2488C260.188 81.2488 259.573 81.7802 259.433 82.4514C259.377 82.4514 259.293 82.4514 259.238 82.4514C258.594 82.4514 258.007 82.8709 257.811 83.4862C257.587 84.1854 257.895 84.9126 258.51 85.2762C258.371 85.5558 258.343 85.8635 258.371 86.1711C258.426 86.5627 258.65 86.9263 258.986 87.15C259.238 87.3458 259.545 87.4297 259.881 87.4297C260.272 87.4297 260.636 87.2899 260.888 87.0382C261.167 87.2899 261.531 87.4577 261.922 87.4577C262.23 87.4577 262.538 87.3458 262.817 87.178C263.405 86.7585 263.601 85.9754 263.293 85.3321C263.573 85.1923 263.768 84.9685 263.908 84.6888C264.104 84.3253 264.132 83.9337 263.992 83.5422C263.796 82.9269 263.209 82.5073 262.566 82.5073C262.51 82.5073 262.454 82.5073 262.398 82.5073C262.342 82.1997 262.202 81.92 261.978 81.7242C261.699 81.3886 261.307 81.2488 260.916 81.2488Z" fill="white"/>
<path d="M260.718 81.2482C260.746 80.7168 260.662 80.2134 260.634 79.9058C260.438 78.5913 259.711 78.2557 258.648 78.5633C258.313 78.6472 257.781 78.8989 257.362 78.815C257.054 78.7591 256.775 78.5353 256.663 78.6192C256.551 78.7031 256.663 79.0388 256.635 79.3464C256.579 79.7659 256.187 80.2134 255.992 80.4931C255.376 81.416 255.46 82.1991 256.635 82.8144C256.914 82.9543 257.362 83.178 257.865 83.3179C258.117 82.7865 258.648 82.4509 259.236 82.4509C259.292 82.4509 259.376 82.4509 259.432 82.4509C259.543 81.8356 260.075 81.3321 260.718 81.2482ZM261.501 77.8361C261.557 77.7802 261.585 77.6683 261.501 77.6124L261.054 77.1369C260.998 77.081 260.886 77.053 260.83 77.1369L260.355 77.5844C260.299 77.6404 260.271 77.7522 260.355 77.8082L260.774 78.5074C260.83 78.5633 260.942 78.5913 260.998 78.5074L261.501 77.8361ZM265.109 82.8144C266.312 82.2271 266.396 81.444 265.752 80.4931C265.557 80.2134 265.165 79.7939 265.109 79.3464C265.081 79.0388 265.193 78.7031 265.081 78.6192C264.969 78.5353 264.69 78.7591 264.382 78.815C263.962 78.8989 263.431 78.6472 263.095 78.5633C262.005 78.2557 261.305 78.5913 261.11 79.9058C261.054 80.2134 260.998 80.6889 261.026 81.2203C261.389 81.2482 261.725 81.3881 261.977 81.6678C262.2 81.8915 262.34 82.1712 262.396 82.4788C262.452 82.4788 262.508 82.4788 262.564 82.4788C263.151 82.4788 263.655 82.8144 263.906 83.3179C264.41 83.178 264.829 82.9543 265.109 82.8144ZM267.906 82.3949C267.962 82.311 267.934 82.2271 267.85 82.1712L267.291 81.8356C267.207 81.7796 267.123 81.8076 267.067 81.8915L266.535 82.5068C266.48 82.5907 266.507 82.6746 266.591 82.7305L267.347 83.0102C267.43 83.0662 267.514 83.0382 267.57 82.9543L267.906 82.3949ZM255.125 82.6746C255.208 82.6466 255.236 82.5348 255.208 82.4509L254.761 81.7796C254.733 81.6957 254.621 81.6678 254.537 81.6957L253.95 81.9474C253.866 81.9754 253.838 82.0873 253.866 82.1712L254.118 82.7585C254.146 82.8424 254.258 82.8704 254.341 82.8424L255.125 82.6746ZM264.214 90.17C264.186 90.2539 264.242 90.3378 264.354 90.3658L264.997 90.5056C265.081 90.5336 265.165 90.4777 265.193 90.3658L265.333 89.7225C265.361 89.6386 265.305 89.5547 265.193 89.5268L264.438 89.2191C264.354 89.1911 264.27 89.2471 264.242 89.359L264.214 90.17ZM254.593 84.7722C254.593 85.1078 254.649 85.6951 254.425 86.0587C254.258 86.3384 253.978 86.5342 254.006 86.6461C254.062 86.7859 254.397 86.7579 254.677 86.8978C255.069 87.0656 255.348 87.597 255.572 87.8487C256.271 88.7437 257.054 88.8835 257.977 87.9326C258.173 87.7368 258.509 87.4012 258.788 86.9817C258.537 86.7579 258.397 86.4503 258.341 86.1147C258.285 85.807 258.341 85.4994 258.481 85.2197C257.893 84.8841 257.614 84.2128 257.753 83.5696C257.25 83.3738 256.775 83.2899 256.467 83.2619C255.152 83.0662 254.621 83.6535 254.593 84.7722ZM263.263 85.3036C263.543 85.8909 263.403 86.5901 262.928 87.0376C263.207 87.4292 263.515 87.7648 263.739 87.9606C264.662 88.9115 265.445 88.7437 266.144 87.8766C266.34 87.6249 266.647 87.0935 267.039 86.9257C267.347 86.7859 267.682 86.8139 267.71 86.674C267.766 86.5342 267.458 86.3384 267.291 86.0867C267.067 85.7231 267.151 85.1358 267.123 84.8002C267.067 83.6814 266.535 83.0941 265.249 83.3179C264.969 83.3738 264.494 83.4297 264.018 83.6255C264.102 83.9891 264.074 84.3527 263.906 84.6883C263.767 84.94 263.543 85.1638 263.263 85.3036ZM256.439 89.4149C256.355 89.4149 256.271 89.4988 256.299 89.5827L256.355 90.226C256.355 90.3099 256.439 90.3938 256.523 90.3658L257.166 90.3099C257.25 90.3099 257.334 90.226 257.306 90.1141L257.362 89.303C257.362 89.2191 257.278 89.1352 257.166 89.1632L256.439 89.4149ZM258.397 88.2682C258.537 88.0165 258.732 87.597 259.04 87.2054C259.292 87.3453 259.543 87.4292 259.823 87.4292C260.215 87.4292 260.578 87.2893 260.83 87.0376C261.11 87.2893 261.473 87.4571 261.865 87.4571C262.144 87.4571 262.396 87.3732 262.648 87.2334C262.928 87.6249 263.151 88.0165 263.263 88.2682C263.878 89.4429 263.487 90.1421 262.424 90.5336C262.117 90.6455 261.529 90.7574 261.249 91.093C261.026 91.3447 260.942 91.6803 260.802 91.6803C260.662 91.6803 260.578 91.3447 260.355 91.093C260.075 90.7853 259.488 90.6455 259.18 90.5336C258.173 90.1141 257.781 89.4429 258.397 88.2682Z" fill="#B5121B"/>
<path d="M262.845 84.8845C262.761 84.9124 262.677 84.9124 262.594 84.9404C262.538 84.9404 262.51 84.9684 262.482 84.9963C262.426 85.0803 262.454 85.1642 262.51 85.2201C262.566 85.276 262.621 85.332 262.677 85.3879C262.985 85.8074 262.901 86.3947 262.482 86.7024C262.062 87.01 261.475 86.9261 261.167 86.5066C261.111 86.4507 261.083 86.3668 261.055 86.2829C261.027 86.2269 260.999 86.199 260.943 86.199C260.859 86.171 260.776 86.199 260.748 86.2829C260.72 86.3388 260.692 86.4227 260.636 86.4787C260.328 86.8982 259.741 86.9821 259.321 86.6744C258.902 86.3668 258.818 85.7795 259.125 85.3599C259.181 85.304 259.237 85.2201 259.293 85.1642C259.321 85.1362 259.349 85.0803 259.349 85.0243C259.349 84.9404 259.293 84.8565 259.209 84.8565C259.125 84.8565 259.07 84.8285 258.986 84.8006C258.482 84.6328 258.23 84.1014 258.37 83.6259C258.538 83.1225 259.07 82.8708 259.545 83.0106C259.629 83.0386 259.713 83.0666 259.769 83.1225C259.797 83.1505 259.853 83.1505 259.909 83.1505C259.992 83.1225 260.048 83.0386 260.02 82.9547C259.992 82.8708 259.992 82.8148 259.992 82.7309C259.992 82.1995 260.412 81.78 260.943 81.78C261.475 81.78 261.894 82.1995 261.894 82.7309C261.894 82.8148 261.894 82.8987 261.866 82.9827C261.866 83.0386 261.866 83.0666 261.894 83.1225C261.95 83.2064 262.034 83.2064 262.118 83.1784C262.174 83.1505 262.258 83.0945 262.314 83.0945C262.817 82.9267 263.349 83.2064 263.488 83.7098C263.6 84.1853 263.349 84.7167 262.845 84.8845Z" fill="#B5121B"/>
<path d="M261.669 84.4923C261.669 84.0728 261.334 83.7651 260.942 83.7651C260.522 83.7651 260.215 84.1008 260.215 84.4923C260.215 84.9118 260.55 85.2195 260.942 85.2195C261.362 85.2195 261.669 84.9118 261.669 84.4923Z" fill="white"/>
<path d="M110.645 68.2158C110.645 65.2512 111.512 62.5383 113.637 60.8042C115.259 59.4898 117.497 58.7626 119.734 58.7626C121.888 58.7626 123.79 59.4338 125.272 60.4407C125.272 60.4407 127.258 61.6713 127.258 63.8248C127.258 64.8876 126.419 65.7546 125.384 65.7546C124.349 65.7546 123.594 64.9435 123.65 63.8248C123.678 63.2934 123.762 62.4264 123.426 61.7552C122.559 59.9932 120.098 60.0771 120.098 60.0771C116.49 60.0771 114.924 63.685 114.924 68.1319C114.924 74.0331 118.168 76.1866 120.937 76.1866C120.937 76.1866 124.069 76.2426 126.754 72.7186L127.873 73.4458C126.195 75.9909 123.314 77.6969 120.042 77.6969C114.84 77.641 110.645 73.4178 110.645 68.2158ZM118.084 86.8984H110.896V87.8493L113.581 88.5765L109.302 100.519L104.883 88.5485L107.4 87.8773V86.8425H99.0939V87.8493L101.275 88.4646L107.372 103.539H109.358L115.735 88.5205L118.14 87.8773V86.8984H118.084ZM65.5043 81.9481V81.9201L68.5528 81.109V79.9344H60.2463V80.9971L63.5466 81.8641V97.1067C63.5466 97.1067 63.7983 102.225 57.03 102.225C50.2897 102.225 50.2897 97.7779 50.2897 97.1067C50.2897 96.4914 50.2897 84.2974 50.2897 81.8921L53.6459 80.9692V79.9344H43.5774V80.9971L46.8497 81.8641V96.855C46.8497 96.855 46.2903 103.959 56.4427 103.959C66.0917 103.959 65.4764 97.2745 65.4764 97.2745V81.9481H65.5043ZM199.163 87.8493L202.1 88.6604L197.709 100.323L192.954 88.5205L195.36 87.8493V86.8425H187.249V87.9052L189.486 88.5205L196.031 104.658C195.611 105.441 195.192 106.252 194.772 107.035C194.269 107.986 193.234 109.524 192.032 109.636C190.941 109.748 190.633 108.406 189.766 107.93C188.2 107.063 186.718 109.161 187.78 110.503C188.312 111.147 189.207 111.538 190.018 111.594C190.913 111.65 191.836 111.482 192.647 111.119C193.094 110.923 193.542 110.643 193.905 110.308C194.661 109.636 195.22 108.797 195.695 107.902C196.478 106.42 197.206 104.966 197.849 103.455C198.408 102.141 198.94 100.826 199.499 99.512C200.17 97.9178 200.841 96.3236 201.513 94.7294C202.1 93.359 202.659 91.9606 203.247 90.5902C203.526 89.9189 203.806 89.2477 204.086 88.6044C204.086 88.5765 204.086 88.5765 204.114 88.5485L206.491 87.9052V86.8425H199.107V87.8493H199.163ZM65.784 69.2786L64.889 68.9429L64.7212 68.859C62.2321 73.1941 57.2817 75.8231 54.0095 75.8231C54.0095 75.8231 50.5974 75.9909 50.5974 72.9424V53.6165L53.8696 52.6935L53.8976 51.8545H43.5495V52.8334L46.6539 53.6444V75.1518L43.5215 75.9909V77.2494H62.7914L65.784 69.2786ZM90.3399 75.1239L87.2355 76.1307V77.2494H97.0522V76.1307L93.9198 75.1239V63.7129V63.685C94.7868 63.0137 95.7098 62.3984 96.6886 61.867C97.8913 61.2238 99.4854 60.4686 100.884 60.6924C101.611 60.8042 102.422 61.3077 102.842 61.895C103.485 62.762 103.709 63.9646 103.709 65.0274L103.681 75.0679C103.681 74.984 103.681 75.1518 103.681 75.1518L100.576 76.1027V77.2494H110.477V76.1307L107.4 75.1239V63.657C107.4 62.3705 106.953 61.1958 105.974 60.3568C104.939 59.4898 103.625 59.0423 102.282 58.8745C99.877 58.5948 97.5556 59.4338 95.5699 60.7203C95.0106 61.0839 94.4512 61.4755 93.8918 61.895V59.1821H92.5773L87.0676 60.6364V61.7272H90.3119V75.1239H90.3399ZM103.681 75.04C103.681 75.04 103.681 75.0679 103.681 75.0959V75.04ZM82.9284 101.498C82.9284 101.498 82.9284 101.526 82.9284 101.554V101.498ZM86.3405 101.526V91.0097C86.3405 89.835 85.9489 88.7443 85.026 87.9891C84.0751 87.1781 82.8445 86.7865 81.6419 86.6467C79.4324 86.395 77.3068 87.1501 75.4889 88.3527C74.9575 88.6883 74.4541 89.0519 73.9507 89.4155V86.9264H72.748L67.6858 88.2688V89.2757H70.6504V101.554L67.7977 102.477V103.511H76.8314V102.477L73.9507 101.554V91.0656V91.0377C74.7338 90.4224 75.6008 89.835 76.4957 89.3875C77.6145 88.8002 79.0408 88.101 80.3553 88.2968C80.9986 88.4087 81.7537 88.8561 82.1453 89.3875C82.7326 90.1986 82.9284 91.2894 82.9284 92.2682V101.47C82.9284 101.414 82.9284 101.554 82.9284 101.554L80.0756 102.449V103.483H89.1652V102.421L86.3405 101.526ZM158.19 65.8944C155.421 65.363 153.184 64.6359 153.184 62.79C153.184 60.5525 155.869 60.3568 156.988 60.4127C162.106 60.6085 163.504 64.8876 163.504 64.8876H164.651L163.476 59.2101H162.441L162.078 60.4407C161.183 59.8533 159.309 58.8185 157.072 58.8185C152.569 58.8185 149.968 61.4475 149.968 64.3282C149.968 67.2089 153.659 68.4115 156.456 69.2226C159.169 70.0057 162.777 70.1456 162.777 72.8305C162.777 76.1027 158.33 76.0188 158.33 76.0188C152.289 76.0188 150.723 70.649 150.723 70.649H149.492L150.695 77.2494H151.897L152.345 75.7671C152.345 75.7671 155.365 77.5291 158.526 77.5291C163.029 77.5291 166.077 74.5925 166.077 71.4601C166.021 67.2089 161.071 66.4538 158.19 65.8944ZM183.333 102.421C181.907 102.421 180.928 101.302 180.732 100.127C180.649 99.6238 180.677 98.7288 180.677 97.9178V87.9332H185.599V86.8425H180.677V80.4937H179.138C179.138 80.4937 179.222 83.3185 177.824 85.3322C176.761 86.8704 174.607 86.9543 174.607 86.9543V88.0171H177.32V98.1975C177.32 99.0085 177.32 99.7637 177.32 100.267C177.32 102.505 179.502 103.791 181.963 103.791C185.123 103.791 186.41 102.421 187.249 101.526L186.382 100.798C185.403 101.638 184.536 102.421 183.333 102.421ZM168.986 71.4041C168.986 72.2711 168.986 73.1102 168.986 73.6416C168.986 76.0748 171.335 77.4732 173.992 77.4732C177.097 77.4732 178.523 76.2426 179.446 75.2917C179.194 74.9561 178.943 74.6204 178.719 74.2848C177.684 75.1518 176.761 75.9629 175.474 75.9629C173.908 75.9629 172.873 74.7603 172.678 73.5017C172.594 72.9703 172.622 71.9914 172.622 71.0965V60.3568H177.964V59.1262H172.622V52.274H170.916C170.916 52.274 171 55.3225 169.489 57.504C168.343 59.1541 166.021 59.238 166.021 59.238V60.3847H168.958V71.4041H168.986ZM178.663 68.2158C178.663 65.1113 179.921 62.2026 182.243 60.5246C183.753 59.4059 185.571 58.9024 187.585 58.9024C192.032 58.9024 195.388 61.923 195.639 66.5097H182.55C182.55 66.5097 181.18 75.879 188.564 75.879C188.564 75.879 192.423 76.0468 194.297 72.4949L195.444 73.0542C194.521 75.6832 191.388 77.5291 188.06 77.5291C182.942 77.5291 178.663 73.3619 178.663 68.2158ZM182.662 64.9155H191.724C191.584 62.0908 189.794 60.2449 187.277 60.2449C185.235 60.2449 182.662 61.4475 182.662 64.9155ZM121.412 93.6387C121.412 93.6387 120.154 102.281 126.978 102.281C126.978 102.281 130.53 102.421 132.264 99.1484L133.327 99.6518C132.46 102.085 129.579 103.791 126.503 103.791C121.804 103.791 117.86 99.9315 117.86 95.1769C117.86 92.2962 119.007 89.6392 121.161 88.073C122.559 87.0382 124.209 86.5628 126.083 86.5628C130.194 86.5628 133.271 89.3596 133.522 93.6107H121.412V93.6387ZM121.524 92.1843H129.915C129.775 89.5833 128.125 87.8773 125.803 87.8773C123.929 87.8773 121.524 88.968 121.524 92.1843ZM210.574 58.9584C210.546 58.9584 210.546 58.9584 210.518 58.9304C210.49 58.9304 210.49 58.9304 210.462 58.9304C206.687 58.0914 203.75 61.1958 203.135 61.9509V59.238H201.653L196.255 60.6924V61.7831H199.499V75.3476L196.367 76.1866V77.2494H206.491V76.1866L203.135 75.3196V63.601C203.359 63.3773 205.065 61.5874 206.519 61.5874C208.169 61.5874 208.225 62.6501 209.875 62.8179H209.903C209.959 62.8179 210.015 62.8179 210.071 62.8179C211.162 62.8179 212.029 61.923 212.029 60.8602C212.057 59.9372 211.413 59.1821 210.574 58.9584ZM147.926 86.6746C147.898 86.6746 147.898 86.6746 147.87 86.6746C147.842 86.6746 147.842 86.6746 147.814 86.6746C144.346 85.9195 141.633 88.7722 141.074 89.4435V86.9264H139.703L134.753 88.2688V89.2757H137.746V101.749L134.865 102.532V103.539H144.178V102.532L141.102 101.721V90.9537C141.298 90.73 142.864 89.1079 144.206 89.1079C145.744 89.1079 145.772 90.0867 147.283 90.2266H147.311C147.367 90.2266 147.423 90.2266 147.479 90.2266C148.485 90.2266 149.296 89.4155 149.296 88.4087C149.268 87.5976 148.709 86.8704 147.926 86.6746ZM96.5768 86.8984L90.4518 87.5417V88.9121H93.3325V101.554L90.3679 102.477V103.539H99.4295V102.477L96.5768 101.554V86.8984ZM95.1504 81.0251C94.0037 81.0251 93.0808 81.9481 93.0808 83.0947C93.0808 84.2414 94.0037 85.1644 95.1504 85.1644C96.2971 85.1644 97.22 84.2414 97.22 83.0947C97.22 81.9481 96.2971 81.0251 95.1504 81.0251ZM172.37 86.8984L166.245 87.5417V88.9121H169.126V101.554L166.217 102.477V103.539H175.223V102.477L172.37 101.554V86.8984ZM168.762 83.0947C168.762 84.2414 169.685 85.1644 170.832 85.1644C171.978 85.1644 172.901 84.2414 172.901 83.0947C172.901 81.9481 171.978 81.0251 170.832 81.0251C169.685 81.0251 168.762 81.9481 168.762 83.0947ZM141.773 66.7335V63.1536C141.773 60.4407 138.864 60.3568 137.606 60.3568C136.599 60.3568 134.697 60.4127 133.774 61.5594C133.271 62.1747 133.439 63.2934 133.467 63.7968C133.522 64.8876 132.767 65.7266 131.733 65.7266C130.698 65.7266 129.859 64.8596 129.859 63.7968C129.859 61.6433 131.844 60.4127 131.844 60.4127C133.355 59.4058 135.928 58.8745 138.081 58.8745C140.319 58.8745 142.193 59.3219 143.871 60.5805C144.71 61.2238 145.381 62.3145 145.381 64.552C145.381 67.4886 145.381 75.0959 145.381 75.0959L148.961 76.0748L149.157 77.1935H143.899L141.773 74.8722C141.773 74.8722 138.725 77.4452 134.893 77.4452C131.061 77.4452 129.299 75.3756 129.299 73.4738C129.299 73.4738 128.656 69.5303 134.362 67.8242C135.424 67.5166 136.403 67.3208 137.214 67.153C140.263 66.6775 141.773 66.7335 141.773 66.7335ZM141.745 68.02C141.745 68.02 138.165 68.1319 135.732 69.1946C133.886 70.0057 132.879 71.4041 132.963 73.0822C133.019 74.089 134.11 75.7951 136.711 75.6273C139.284 75.4595 141.745 73.222 141.745 73.222V68.02ZM157.911 92.9954C155.365 92.52 153.296 91.8208 153.296 90.1147C153.296 88.0451 155.757 87.8773 156.792 87.9052C161.518 88.073 162.805 92.0445 162.805 92.0445H163.868L162.805 86.8145H161.854L161.518 87.9332C160.707 87.3738 158.973 86.4229 156.876 86.4229C152.709 86.4229 150.303 88.8561 150.303 91.5131C150.303 94.1701 153.715 95.2888 156.288 96.016C158.778 96.7431 162.134 96.883 162.134 99.3441C162.134 102.365 158.022 102.309 158.022 102.309C152.457 102.309 151.002 97.3304 151.002 97.3304H149.828L150.919 103.427H152.037L152.429 102.057C152.429 102.057 155.198 103.707 158.134 103.707C162.302 103.707 165.098 100.994 165.098 98.0856C165.154 94.198 160.596 93.4988 157.911 92.9954ZM79.0968 66.7335V63.1536C79.0968 60.4407 76.1881 60.3568 74.9295 60.3568C73.9227 60.3568 72.0209 60.4127 71.0979 61.5594C70.5945 62.1747 70.7623 63.2934 70.7903 63.7968C70.8462 64.8876 70.0911 65.7266 69.0563 65.7266C68.0214 65.7266 67.1824 64.8596 67.1824 63.7968C67.1824 61.6433 69.1681 60.4127 69.1681 60.4127C70.6784 59.4058 73.2515 58.8745 75.405 58.8745C77.6424 58.8745 79.5163 59.3219 81.1944 60.5805C82.0334 61.2238 82.7046 62.3145 82.7046 64.552C82.7046 67.4886 82.7046 75.0959 82.7046 75.0959L86.0608 76.0188V77.1935H81.2223L79.0968 74.8722C79.0968 74.8722 76.0483 77.4452 72.2166 77.4452C68.385 77.4452 66.623 75.3756 66.623 73.4738C66.623 73.4738 65.9798 69.5303 71.6853 67.8242C72.748 67.5166 73.7269 67.3208 74.538 67.153C77.5865 66.6775 79.0968 66.7335 79.0968 66.7335ZM79.0408 68.02C79.0408 68.02 75.4609 68.1319 73.0277 69.1946C71.1818 70.0057 70.175 71.4041 70.2589 73.0822C70.3148 74.089 71.4056 75.7951 74.0066 75.6273C76.5797 75.4595 79.0408 73.222 79.0408 73.222V68.02Z" fill="#212121"/>
<path d="M268.381 99.2883C267.011 99.6798 265.361 99.9315 262.983 99.9315C260.886 99.9315 259.348 99.7078 258.061 99.4002C257.11 99.1764 256.271 98.8688 255.488 98.5611C254.285 98.0857 253.111 97.5543 251.6 97.1347C250.09 96.7152 248.272 96.4355 245.811 96.4355C243.602 96.4355 241.924 96.6593 240.525 96.9949C239.462 97.2466 238.567 97.5822 237.756 97.9178C236.498 98.4213 235.407 98.9247 234.037 99.3162C232.666 99.7078 231.016 99.9595 228.639 99.9595C226.541 99.9595 225.003 99.7358 223.716 99.4281C222.821 99.2044 222.038 98.9247 221.283 98.645C221.563 99.2883 221.871 99.9036 222.178 100.547C222.402 100.603 222.626 100.687 222.849 100.743C224.36 101.162 226.178 101.442 228.639 101.442C230.848 101.442 232.526 101.218 233.925 100.882C234.988 100.631 235.882 100.295 236.694 99.9595C237.952 99.4561 239.043 98.9527 240.413 98.5891C241.784 98.1975 243.434 97.9458 245.811 97.9458C247.909 97.9458 249.447 98.1696 250.733 98.4772C251.684 98.701 252.523 99.0086 253.307 99.3162C254.509 99.7917 255.684 100.323 257.194 100.743C258.704 101.162 260.522 101.442 262.983 101.442C265.193 101.442 266.871 101.218 268.269 100.882C268.689 100.771 269.053 100.659 269.444 100.547C269.752 99.9036 270.059 99.2883 270.339 98.645C269.696 98.8688 269.08 99.0925 268.381 99.2883Z" fill="white"/>
<path d="M262.988 96.9672C260.89 96.9672 259.352 96.7434 258.066 96.4358C257.115 96.2121 256.276 95.9044 255.493 95.5968C254.29 95.1213 253.115 94.5899 251.605 94.1704C250.095 93.7509 248.277 93.4712 245.816 93.4712C243.606 93.4712 241.928 93.6949 240.53 94.0306C239.467 94.2823 238.572 94.6179 237.761 94.9535C236.502 95.4569 235.412 95.9603 234.041 96.3239C232.671 96.7155 231.021 96.9672 228.643 96.9672C226.546 96.9672 225.007 96.7434 223.721 96.4358C222.77 96.2121 221.931 95.9044 221.148 95.5968C220.728 95.429 220.309 95.2611 219.861 95.0654C220.085 95.6807 220.337 96.3239 220.589 96.9672C221.288 97.2469 222.015 97.5266 222.854 97.7503C224.364 98.1698 226.182 98.4495 228.643 98.4495C230.853 98.4495 232.531 98.2258 233.929 97.8901C234.992 97.6384 235.887 97.3028 236.698 96.9672C237.957 96.4638 239.047 95.9603 240.418 95.5968C241.788 95.2052 243.438 94.9535 245.816 94.9535C247.913 94.9535 249.451 95.1772 250.738 95.4849C251.689 95.7086 252.528 96.0163 253.311 96.3239C254.514 96.7994 255.688 97.3308 257.199 97.7503C258.709 98.1698 260.527 98.4495 262.988 98.4495C265.197 98.4495 266.876 98.2258 268.274 97.8901C269.309 97.6384 270.204 97.3028 271.043 96.9952C271.294 96.3519 271.546 95.7086 271.77 95.0933C270.651 95.5408 269.644 95.9883 268.386 96.3239C266.987 96.6875 265.337 96.9672 262.988 96.9672Z" fill="white"/>
<path d="M219.384 93.6104C220.446 94.0579 221.537 94.5054 222.852 94.8969C224.362 95.3164 226.18 95.5961 228.641 95.5961C230.85 95.5961 232.529 95.3724 233.927 95.0368C234.99 94.785 235.885 94.4494 236.696 94.1138C237.954 93.6104 239.045 93.107 240.415 92.7434C241.786 92.3518 243.436 92.1001 245.813 92.1001C247.911 92.1001 249.449 92.3239 250.736 92.6315C251.687 92.8553 252.526 93.1629 253.309 93.4705C254.511 93.946 255.686 94.4774 257.196 94.8969C258.707 95.3164 260.524 95.5961 262.986 95.5961C265.195 95.5961 266.873 95.3724 268.272 95.0368C269.334 94.785 270.229 94.4494 271.04 94.1138C271.46 93.946 271.852 93.7782 272.243 93.6384C272.439 93.0231 272.607 92.4357 272.774 91.8204C272.551 91.9043 272.327 91.9882 272.103 92.0721C270.845 92.5756 269.754 93.079 268.383 93.4426C267.013 93.8341 265.363 94.0858 262.986 94.0858C260.888 94.0858 259.35 93.8621 258.063 93.5545C257.112 93.3307 256.273 93.0231 255.49 92.7154C254.288 92.24 253.113 91.7086 251.603 91.289C250.092 90.8695 248.275 90.5898 245.813 90.5898C243.604 90.5898 241.926 90.8136 240.527 91.1492C239.465 91.4009 238.57 91.7365 237.759 92.0721C236.5 92.5756 235.409 93.079 234.039 93.4426C232.668 93.8341 231.018 94.0858 228.641 94.0858C226.543 94.0858 225.005 93.8621 223.719 93.5545C222.768 93.3307 221.929 93.0231 221.146 92.7154C220.39 92.4078 219.663 92.1001 218.824 91.7925C218.992 92.3798 219.16 92.9951 219.384 93.6104Z" fill="white"/>
<path d="M274.508 74.4243H217.09V75.1795H274.508V74.4243Z" fill="white"/>
</svg>
