<svg xmlns="http://www.w3.org/2000/svg" width="182" height="38" viewBox="0 0 182 38" fill="none">
<g id="logo_x2F_lean-library-navy">
<path id="Vector" d="M181.652 0.516266H0.34816V37.5213H181.652V0.516266Z" fill="white"/>
<g id="lean-library-logo">
<path id="Path" d="M21.6534 37.5213C18.4401 37.5213 15.2618 36.6866 12.4677 35.1216L13.9695 32.5131C20.7453 36.3388 29.3372 34.5999 34.0872 28.4092C38.8023 22.2185 38.2085 13.5237 32.6901 8.02857C27.1718 2.53346 18.4401 1.94221 12.2232 6.6374C6.00627 11.3326 4.25994 19.8883 8.10186 26.6354L5.48237 28.1309C1.32611 20.8621 2.58347 11.7152 8.55591 5.83748C14.5283 -0.0402002 23.714 -1.22269 30.9787 2.98559C38.2435 7.19387 41.771 15.7148 39.5707 23.7835C37.4052 31.9219 30.0707 37.5213 21.6534 37.5213Z" fill="#253A59"/>
<path id="Path_00000012437225099404099160000013170288367128830114_" d="M28.499 25.1051C25.4953 25.1051 23.0504 22.6706 23.0504 19.6796V12.9324H26.0541V19.6796C26.0541 21.036 27.1368 22.1141 28.499 22.1141H31.0835V25.1051H28.499Z" fill="#253A59"/>
<path id="Path_00000138535202883606277960000012301329876546052001_" d="M19.0688 25.1051C16.0651 25.1051 13.6203 22.6706 13.6203 19.6796V12.9324H16.6239V19.6796C16.6239 21.036 17.7067 22.1141 19.0688 22.1141H21.6534V25.1051H19.0688Z" fill="#253A59"/>
<path id="Path_00000120548366023861505460000004108237852041527939_" d="M9.60369 33.313C8.38126 33.313 7.40332 32.3392 7.40332 31.122C7.40332 29.9047 8.38126 28.9309 9.60369 28.9309C10.8261 28.9309 11.8041 29.9047 11.8041 31.122C11.8041 32.3392 10.7912 33.313 9.60369 33.313Z" fill="#EE8573"/>
<path id="Shape" d="M50.9917 29.9395H47.4641L46.7306 31.6089H45.9273L48.8262 25.1399H49.5946L52.4935 31.6089H51.6902L50.9917 29.9395ZM50.7122 29.2439L49.2453 25.9398L47.7784 29.2439H50.7122Z" fill="#939190"/>
<path id="Path_00000132088515960666378450000009591545926046467004_" d="M58.6056 25.8007C57.7674 25.8007 57.2086 26.1485 57.2086 26.705C57.2086 28.3744 60.8759 27.5049 60.8759 29.8699C60.8759 30.948 59.8979 31.6436 58.5358 31.6436C57.5928 31.6436 56.7196 31.2958 56.056 30.635L56.4053 30.009C56.999 30.5655 57.7674 30.8785 58.5707 30.9133C59.5137 30.9133 60.1075 30.5307 60.1075 29.9047C60.1075 28.1657 56.4402 29.07 56.4402 26.7745C56.4402 25.766 57.3483 25.1051 58.6755 25.1051C59.4089 25.1051 60.1424 25.3138 60.7711 25.6964L60.4567 26.3572C59.8979 25.9746 59.2692 25.8007 58.6056 25.8007Z" fill="#939190"/>
<path id="Shape_00000114041086574704813980000012167782023338400920_" d="M66.534 29.9395H62.9715L62.238 31.6089H61.4347L64.3336 25.1399H65.102L68.0009 31.6089H67.1976L66.534 29.9395ZM66.2546 29.2439L64.7876 25.9398L63.3207 29.2439H66.2546Z" fill="#939190"/>
<path id="Path_00000098917978384962334580000002182111436266330293_" d="M73.5542 28.4092H74.2178V30.7742C73.5193 31.2958 72.681 31.6089 71.8079 31.6089C70.6204 31.6436 69.5027 31.0176 68.874 30.009C68.2803 28.9656 68.2803 27.7136 68.909 26.6702C69.5376 25.6268 70.6553 25.0356 71.8428 25.1051C72.7159 25.1051 73.5891 25.4182 74.2527 26.0094L73.8336 26.5311C73.2748 26.0442 72.5762 25.8007 71.8777 25.7659C70.9347 25.7312 70.0266 26.2181 69.5376 27.018C69.0487 27.8179 69.0487 28.8613 69.5376 29.6612C70.0266 30.4611 70.9347 30.948 71.8777 30.9133C72.5064 30.9133 73.1001 30.7046 73.5891 30.3568L73.5542 28.4092Z" fill="#939190"/>
<path id="Path_00000030452271187189432100000018376545729462514599_" d="M80.2252 25.1051V25.766H76.5579V27.957H79.841V28.6178H76.5579V30.8785H80.3649V31.5741H75.7895V25.1051H80.2252Z" fill="#939190"/>
<path id="Shape_00000013876210353979148050000012525396508712831422_" d="M90.0046 27.2615C90.0046 28.6874 89.0616 29.5221 87.455 29.5221H85.7436V31.6089H85.0101V25.1051H87.455C89.0965 25.1051 90.0046 25.9051 90.0046 27.2615ZM89.3061 27.2615C89.3061 26.2876 88.6425 25.766 87.455 25.766H85.7785V28.8265H87.455C88.6075 28.8265 89.3061 28.3048 89.3061 27.2615Z" fill="#939190"/>
<path id="Path_00000025403074210141396320000007761959987964679053_" d="M95.4881 26.705V31.5741H94.7546V30.4611C94.4403 31.1915 93.7068 31.6436 92.9035 31.5741C91.7509 31.5741 91.0524 30.8437 91.0524 29.6612V26.6702H91.7859V29.4873C91.7509 29.8699 91.8557 30.2177 92.1351 30.4959C92.4145 30.7741 92.7638 30.9133 93.148 30.8785C94.1609 30.8785 94.7546 30.1133 94.7546 29.07V26.6702H95.4881V26.705Z" fill="#939190"/>
<path id="Shape_00000150784855788765382540000001954561770068748734_" d="M102.054 29.1395C102.054 30.6003 101.111 31.6089 99.7142 31.6089C98.9109 31.6436 98.1774 31.2263 97.7932 30.5307V31.5741H97.0598V24.6878H97.7932V27.7484C98.1774 27.0528 98.9109 26.6354 99.6792 26.6702C101.111 26.6702 102.054 27.7136 102.054 29.1395ZM101.321 29.1395C101.286 28.2005 100.483 27.4354 99.5046 27.4701C98.5616 27.5049 97.7932 28.3048 97.7932 29.2439C97.7932 30.1829 98.5965 30.9481 99.5395 30.9481C100.029 30.9481 100.483 30.7394 100.832 30.3916C101.181 30.0438 101.356 29.6264 101.321 29.1395Z" fill="#939190"/>
<path id="Path_00000024002046185408252390000016787724736050317496_" d="M104.15 24.7226V31.5741H103.416V24.7226H104.15Z" fill="#939190"/>
<path id="Shape_00000052807580114898196920000015077703127265094559_" d="M106.665 25.3138C106.665 25.5573 106.42 25.766 106.176 25.766C105.931 25.766 105.722 25.5573 105.722 25.279C105.722 25.0008 105.931 24.8269 106.211 24.8269C106.35 24.8269 106.455 24.8965 106.56 24.966C106.63 25.0704 106.665 25.1747 106.665 25.3138ZM106.56 26.705V31.5741H105.861V26.705H106.56Z" fill="#939190"/>
<path id="Path_00000091737966889721050270000014416730047743427456_" d="M109.598 27.2962C109.04 27.2962 108.62 27.5049 108.62 27.957C108.62 29.07 111.345 28.4787 111.345 30.2525C111.345 31.1915 110.506 31.6436 109.563 31.6436C108.865 31.6436 108.201 31.4002 107.677 30.948L107.957 30.4263C108.411 30.8089 108.97 31.0524 109.598 31.0524C110.192 31.0524 110.646 30.8437 110.646 30.322C110.681 29.1395 107.922 29.7308 107.922 28.0266C107.922 27.0875 108.725 26.705 109.633 26.705C110.192 26.705 110.716 26.8441 111.205 27.1571L110.926 27.7136C110.541 27.4353 110.087 27.2962 109.598 27.2962Z" fill="#939190"/>
<path id="Path_00000095327646263550729010000000577889052092396960_" d="M117.143 28.5831V31.5741H116.409V28.757C116.444 28.3744 116.304 27.9918 116.06 27.7484C115.78 27.4701 115.431 27.331 115.047 27.3658C113.999 27.3658 113.37 28.1309 113.37 29.1743V31.5741H112.637V24.6878H113.37V27.7831C113.72 27.018 114.488 26.5659 115.291 26.6702C116.444 26.6702 117.143 27.4006 117.143 28.5831Z" fill="#939190"/>
<path id="Shape_00000006704511043011588450000008378009805188586651_" d="M119.552 25.3138C119.552 25.5573 119.308 25.766 119.063 25.766C118.819 25.766 118.609 25.5573 118.609 25.279C118.609 25.0008 118.819 24.8269 119.098 24.8269C119.238 24.8269 119.343 24.8965 119.448 24.966C119.518 25.0704 119.552 25.1747 119.552 25.3138ZM119.448 26.705V31.5741H118.714V26.705H119.448Z" fill="#939190"/>
<path id="Path_00000094597485062436320770000006266206340159920775_" d="M125.595 28.5831V31.5741H124.861V28.7569C124.896 28.3744 124.757 27.9918 124.512 27.7483C124.233 27.4701 123.883 27.331 123.499 27.3658C123.08 27.3658 122.626 27.5049 122.312 27.8179C121.997 28.1309 121.823 28.5483 121.823 28.9656V31.5741H121.124V26.705H121.858V27.7831C122.207 27.0528 122.94 26.6354 123.744 26.6702C124.931 26.6702 125.595 27.4006 125.595 28.5831Z" fill="#939190"/>
<path id="Shape_00000134236599708211084610000004361475029836638897_" d="M131.567 26.705V31.0524C131.567 32.4783 130.589 33.3826 129.087 33.3826C128.354 33.3826 127.655 33.1391 127.062 32.687L127.411 32.1653C127.865 32.5827 128.459 32.7913 129.087 32.7913C129.541 32.8261 130.03 32.687 130.345 32.3392C130.694 32.0262 130.869 31.5741 130.834 31.0872V30.3568C130.484 31.0176 129.786 31.4002 129.018 31.3654C127.69 31.3654 126.782 30.3916 126.782 29.0004C126.782 27.6092 127.69 26.6702 128.983 26.6702C129.751 26.6354 130.45 27.0528 130.799 27.7136V26.705H131.567ZM130.869 29.0352C130.834 28.1309 130.065 27.4353 129.157 27.4701C128.249 27.5049 127.551 28.2353 127.551 29.1395C127.551 30.0438 128.319 30.7741 129.227 30.7741C129.681 30.7741 130.135 30.6002 130.45 30.2525C130.729 29.9394 130.869 29.4873 130.869 29.0352Z" fill="#939190"/>
<path id="Path_00000164507010978773800080000006553813959335046052_" d="M139.286 25.7659C138.343 25.7659 137.505 26.2529 137.051 27.0528C136.597 27.8527 136.597 28.8265 137.051 29.6264C137.505 30.4264 138.378 30.9133 139.286 30.9133C140.019 30.9133 140.683 30.635 141.207 30.1481L141.661 30.635C140.997 31.2611 140.159 31.6088 139.251 31.6088C138.064 31.6436 136.911 31.0176 136.317 30.009C135.723 28.9656 135.723 27.7136 136.317 26.6702C136.946 25.6616 138.064 25.0356 139.251 25.0704C140.124 25.0704 140.997 25.4182 141.626 26.0094L141.172 26.5311C140.683 26.0442 140.019 25.7659 139.286 25.7659Z" fill="#939190"/>
<path id="Shape_00000119117839180897043540000008748436090710474160_" d="M147.354 29.1395C147.354 30.1481 146.76 31.0524 145.817 31.4697C144.874 31.8871 143.791 31.6436 143.093 30.948C142.359 30.2525 142.15 29.1743 142.534 28.2353C142.918 27.2962 143.826 26.705 144.839 26.705C145.503 26.6702 146.166 26.9137 146.621 27.4006C147.109 27.8179 147.354 28.4787 147.354 29.1395ZM143.093 29.1395C143.128 30.0786 143.931 30.8437 144.909 30.8089C145.852 30.7741 146.621 29.9742 146.621 29.0352C146.621 28.0961 145.817 27.2962 144.874 27.2962C144.385 27.2962 143.931 27.4701 143.582 27.8179C143.233 28.2005 143.058 28.6526 143.093 29.1395Z" fill="#939190"/>
<path id="Path_00000027596416556644007480000005453446068518573995_" d="M156.679 28.5831V31.5741H155.946V28.757C155.981 28.3744 155.841 28.0266 155.597 27.7484C155.352 27.4701 154.968 27.331 154.584 27.3658C153.571 27.4006 152.977 28.1309 152.977 29.1743V31.5741H152.244V28.757C152.279 28.3744 152.174 27.9918 151.894 27.7136C151.615 27.4353 151.266 27.2962 150.882 27.331C149.869 27.3658 149.275 28.0962 149.275 29.1395V31.5393H148.542V26.6702H149.24V27.7831C149.554 27.0528 150.323 26.6006 151.126 26.6702C151.929 26.6006 152.698 27.1571 152.872 27.9223C153.152 27.1223 153.955 26.6006 154.793 26.6702C156.016 26.6702 156.679 27.4006 156.679 28.5831Z" fill="#939190"/>
<path id="Shape_00000088819165170503829760000010841743406564505257_" d="M163.281 29.1395C163.281 30.6002 162.337 31.6088 160.94 31.6088C160.137 31.6436 159.404 31.2263 159.019 30.5307V33.3826H158.286V26.705H159.019V27.7484C159.404 27.0528 160.137 26.6354 160.906 26.6702C162.337 26.6702 163.281 27.7136 163.281 29.1395ZM162.547 29.1395C162.512 28.2005 161.709 27.4353 160.731 27.4701C159.788 27.5049 159.019 28.3048 159.019 29.2439C159.054 30.1829 159.823 30.948 160.766 30.948C161.255 30.948 161.709 30.7394 162.058 30.3916C162.407 30.0786 162.582 29.6264 162.547 29.1395Z" fill="#939190"/>
<path id="Shape_00000001634429003764220060000007263444725530999967_" d="M167.681 31.5741V30.8089C167.262 31.3654 166.564 31.6436 165.9 31.6088C164.887 31.6088 164.224 30.9828 164.224 30.1481C164.224 29.3134 164.887 28.7569 166.075 28.7569H167.681V28.4439C167.681 27.7136 167.227 27.2962 166.354 27.2962C165.795 27.331 165.236 27.5049 164.817 27.8527L164.503 27.331C165.062 26.9136 165.795 26.6702 166.494 26.6702C167.716 26.6702 168.38 27.2962 168.38 28.3396V31.5741H167.681ZM167.681 29.9394V29.3134H166.144C165.306 29.3134 164.887 29.5569 164.887 30.1133C164.887 30.6698 165.341 31.0176 166.005 31.0176C166.773 31.0524 167.437 30.6002 167.681 29.9394Z" fill="#939190"/>
<path id="Path_00000038402129807126495370000003709403527382385076_" d="M174.457 28.5831V31.5741H173.724V28.7569C173.758 28.3744 173.619 27.9918 173.339 27.7483C173.06 27.4701 172.711 27.331 172.326 27.3658C171.907 27.3658 171.488 27.5049 171.174 27.8179C170.86 28.1309 170.685 28.5135 170.685 28.9656V31.5741H169.951V26.705H170.685V27.7831C171.034 27.0528 171.768 26.6354 172.571 26.6702C173.793 26.6702 174.457 27.4006 174.457 28.5831Z" fill="#939190"/>
<path id="Path_00000134225761282859936920000002963240255736068517_" d="M176.099 33.4174C175.714 33.4174 175.365 33.313 175.051 33.0696L175.365 32.4783C175.575 32.6174 175.819 32.7218 176.064 32.7218C176.483 32.687 176.832 32.4088 176.972 32.0262L177.181 31.5741L175.156 26.7398H175.924L177.565 30.8089L179.137 26.7398H179.871L177.635 32.3044C177.251 33 176.727 33.4174 176.099 33.4174Z" fill="#939190"/>
<path id="Path_00000117639281330672710360000015567047723695682232_" d="M46.7306 18.7753V6.60262H49.7343V16.2364H55.0431V18.7753H46.7306Z" fill="#253A59"/>
<path id="Path_00000172401561601717384640000018036402724188831147_" d="M57.453 18.7753V6.60262H67.0578V8.93282H60.4567V11.5065H66.4292V13.8019L60.4567 13.8367V16.4103H67.2325V18.7753H57.453Z" fill="#253A59"/>
<path id="Shape_00000099641757746051870850000009353698578135849136_" d="M79.6664 18.7753L78.7932 16.5842H73.2399L72.3667 18.7753H69.2932L74.5322 6.60262H77.7105L82.8447 18.7753H79.6664ZM74.113 14.3236H77.92L76.034 9.41973L74.113 14.3236Z" fill="#253A59"/>
<path id="Path_00000143586537257847807590000016562664922590987183_" d="M93.4623 18.7753L87.6296 11.0891V18.7753H84.8355V6.60262H87.4899L93.3576 14.3236V6.60262H96.1168V18.7753H93.4623Z" fill="#253A59"/>
<path id="Path_00000042713501395396039480000007616812724648680863_" d="M106.28 6.4635V17.5581H111.729V18.8797H104.848V6.4635H106.28Z" fill="#253A59"/>
<path id="Path_00000125573151169952720250000007216203041615112100_" d="M115.711 6.4635V18.8797H114.279V6.4635H115.711Z" fill="#253A59"/>
<path id="Shape_00000120531068361385421310000007962971642569349023_" d="M128.878 9.55885C128.948 10.95 127.935 12.1673 126.573 12.376C128.389 12.6542 129.437 13.8019 129.437 15.5061C129.437 17.6276 127.76 18.8797 124.931 18.8797H119.587V6.4635H124.861C127.341 6.4635 128.878 7.61122 128.878 9.55885ZM127.411 9.8023C127.411 8.51547 126.433 7.78511 124.757 7.78511H120.984V11.8543H124.757C126.433 11.8543 127.411 11.0891 127.411 9.8023ZM127.97 15.3322C127.97 13.941 126.782 13.1411 124.757 13.1411H120.984V17.5581H124.757C126.782 17.5928 127.97 16.7581 127.97 15.3322Z" fill="#253A59"/>
<path id="Shape_00000116201685687875694290000012643204344635858565_" d="M140.508 18.8797L137.889 14.9148C137.644 14.9496 137.365 14.9496 137.086 14.9496H133.768V18.8797H132.336V6.4635H137.086C140.194 6.4635 142.01 7.99378 142.01 10.637C142.01 12.689 140.997 14.0801 139.181 14.6366L142.115 18.8797H140.508ZM137.086 13.628C139.356 13.628 140.648 12.6194 140.648 10.6718C140.648 8.72415 139.356 7.78511 137.086 7.78511H133.768V13.6628H137.086V13.628Z" fill="#253A59"/>
<path id="Shape_00000123442075649718823790000009580014034545583290_" d="M166.319 18.8797L163.7 14.9148C163.455 14.9496 163.176 14.9496 162.896 14.9496H159.578V18.8797H158.146V6.4635H162.896C166.005 6.4635 167.821 7.99378 167.821 10.637C167.821 12.689 166.808 14.0801 164.992 14.6366L167.926 18.8797H166.319ZM162.896 13.628C165.167 13.628 166.459 12.6194 166.459 10.6718C166.459 8.72415 165.167 7.78511 162.896 7.78511H159.578V13.6628H162.896V13.628Z" fill="#253A59"/>
<path id="Path_00000156586453582082096420000015103592940153777554_" d="M175.051 14.5671V18.8797H173.654V14.6018L168.834 6.4635H170.301L174.352 12.9672L178.334 6.4635H179.801L175.051 14.5671Z" fill="#253A59"/>
<path id="Shape_00000027603230267023964510000015051584729157364144_" d="M150.777 6.4635H149.31L143.722 18.8797H145.223L146.97 14.9496H153.082L154.828 18.8797H156.365L150.777 6.4635ZM147.494 13.628L149.973 7.99379L152.453 13.628H147.494Z" fill="#253A59"/>
</g>
</g>
</svg>
