<svg xmlns="http://www.w3.org/2000/svg" width="180" height="82" viewBox="0 0 180 82" fill="none">
<g id="Los_Alamos_National_Laboratory_logo_2001-2021 1" clip-path="url(#clip0_2453_16943)">
<g id="g2412">
<g id="g2484">
<g id="g2486">
<g id="g2492">
<g id="g2494">
<path id="path2504" d="M17.6452 44.0091C15.6904 45.0561 14.956 47.4771 16.0066 49.4232C17.053 51.3715 19.4896 52.1018 21.4443 51.0591C23.4055 50.0122 24.142 47.589 23.0892 45.6408C22.3634 44.2962 20.9774 43.5321 19.5447 43.5321C18.9038 43.5321 18.2522 43.6862 17.6452 44.0091Z" fill="url(#paint0_radial_2453_16943)"/>
</g>
</g>
</g>
</g>
<g id="g2506">
<g id="Clip path group">
<mask id="mask0_2453_16943" style="mask-type:luminance" maskUnits="userSpaceOnUse" x="-1" y="-1" width="181" height="84">
<g id="clipPath2510">
<path id="path2512" d="M-0.0581055 82.001H180V-0.223396H-0.0581055V82.001Z" fill="white"/>
</g>
</mask>
<g mask="url(#mask0_2453_16943)">
<g id="g2508">
<g id="g2514">
<path id="path2516" d="M33.124 60.6811H34.5333L37.7234 66.4687H37.7403V60.6811H38.7782V67.8682H37.4538L34.1831 61.9602H34.1598V67.8682H33.124V60.6811Z" fill="black"/>
</g>
<g id="g2518">
<path id="path2520" d="M44.4208 60.6811H45.5096L48.5638 67.8682H47.4347L46.7003 66.0571H43.158L42.4236 67.8682H41.3369L44.4208 60.6811ZM44.9302 61.6499L43.4912 65.2107H46.3671L44.9302 61.6499Z" fill="black"/>
</g>
<g id="g2522">
<path id="path2524" d="M51.8032 61.5866H49.5576V60.6811H55.0845V61.5866H52.8389V67.8682H51.8032V61.5866Z" fill="black"/>
</g>
<path id="path2526" d="M57.6426 60.6811H58.6783V67.8682H57.6426V60.6811Z" fill="black"/>
<g id="g2528">
<path id="path2530" d="M65.0466 60.5591C67.2412 60.5591 68.5253 62.1443 68.5253 64.274C68.5253 66.4586 67.2518 67.9932 65.0466 67.9932C62.8413 67.9932 61.5679 66.4586 61.5679 64.274C61.5679 62.1443 62.852 60.5591 65.0466 60.5591ZM65.0466 67.0877C66.7127 67.0877 67.428 65.7072 67.428 64.274C67.428 62.8134 66.6405 61.4541 65.0466 61.4646C63.4526 61.4541 62.6652 62.8134 62.6652 64.274C62.6652 65.7072 63.3783 67.0877 65.0466 67.0877Z" fill="black"/>
</g>
<g id="g2532">
<path id="path2534" d="M71.3521 60.6811H72.7614L75.9472 66.4687H75.9705V60.6811H77.0063V67.8682H75.6797L72.4069 61.9602H72.3878V67.8682H71.3521V60.6811Z" fill="black"/>
</g>
<g id="g2536">
<path id="path2538" d="M82.545 60.6811H83.6338L86.688 67.8682H85.5568L84.8224 66.0571H81.2822L80.5478 67.8682H79.459L82.545 60.6811ZM83.0523 61.6499L81.6111 65.2107H84.4913L83.0523 61.6499Z" fill="black"/>
</g>
<g id="g2540">
<path id="path2542" d="M89.2437 60.6811H90.2794V66.9627H93.3018V67.8682H89.2437V60.6811Z" fill="black"/>
</g>
<g id="g2544">
<path id="path2546" d="M100.343 60.6811H101.377V66.9627H104.401V67.8682H100.343V60.6811Z" fill="black"/>
</g>
<g id="g2548">
<path id="path2550" d="M109.34 60.6811H110.427L113.481 67.8682H112.354L111.618 66.0571H108.077L107.343 67.8682H106.256L109.34 60.6811ZM109.848 61.6499L108.409 65.2107H111.289L109.848 61.6499Z" fill="black"/>
</g>
<g id="g2552">
<path id="path2554" d="M115.884 60.6811H117.841C119.342 60.6811 120.378 61.1665 120.378 62.4942C120.378 63.482 119.798 63.9759 118.885 64.2039V64.225C119.87 64.3052 120.564 64.9448 120.564 65.9537C120.564 67.4967 119.28 67.8682 117.809 67.8682H115.884V60.6811ZM116.92 63.7501H117.489C118.493 63.7501 119.342 63.6593 119.342 62.5976C119.342 61.7428 118.605 61.5254 118.009 61.5254H116.92V63.7501ZM116.92 67.0239H117.697C118.629 67.0239 119.467 66.8297 119.467 65.8608C119.467 64.7506 118.482 64.5944 117.593 64.5944H116.92V67.0239Z" fill="black"/>
</g>
<g id="g2556">
<path id="path2558" d="M126.745 60.5591C128.942 60.5591 130.226 62.1443 130.226 64.274C130.226 66.4586 128.95 67.9932 126.745 67.9932C124.54 67.9932 123.266 66.4586 123.266 64.274C123.266 62.1443 124.55 60.5591 126.745 60.5591ZM126.745 67.0877C128.413 67.0877 129.126 65.7072 129.126 64.274C129.126 62.8134 128.341 61.4541 126.745 61.4646C125.151 61.4541 124.363 62.8134 124.363 64.274C124.363 65.7072 125.079 67.0877 126.745 67.0877Z" fill="black"/>
</g>
<g id="g2560">
<path id="path2562" d="M133.052 60.6811H134.822C136.25 60.6811 137.626 60.909 137.626 62.6293C137.626 63.5031 136.976 64.1195 136.136 64.2651V64.2841C136.456 64.4086 136.613 64.5648 136.84 65.006L138.207 67.8682H137.027L135.919 65.3775C135.597 64.6767 135.257 64.6767 134.709 64.6767H134.085V67.8682H133.052V60.6811ZM134.085 63.7712H134.966C135.951 63.7712 136.53 63.3385 136.53 62.6483C136.53 62.0003 136.034 61.5866 135.081 61.5866H134.085V63.7712Z" fill="black"/>
</g>
<g id="g2564">
<path id="path2566" d="M143.25 60.6811H144.337L147.393 67.8682H146.262L145.527 66.0571H141.987L141.253 67.8682H140.166L143.25 60.6811ZM143.757 61.6499L142.316 65.2107H145.196L143.757 61.6499Z" fill="black"/>
</g>
<g id="g2568">
<path id="path2570" d="M150.632 61.5866H148.385V60.6811H153.914V61.5866H151.668V67.8682H150.632V61.5866Z" fill="black"/>
</g>
<g id="g2572">
<path id="path2574" d="M159.258 60.5591C161.453 60.5591 162.737 62.1443 162.737 64.274C162.737 66.4586 161.463 67.9932 159.258 67.9932C157.051 67.9932 155.779 66.4586 155.779 64.274C155.779 62.1443 157.061 60.5591 159.258 60.5591ZM159.258 67.0877C160.924 67.0877 161.637 65.7072 161.637 64.274C161.637 62.8134 160.852 61.4541 159.258 61.4646C157.662 61.4541 156.877 62.8134 156.877 64.274C156.877 65.7072 157.59 67.0877 159.258 67.0877Z" fill="black"/>
</g>
<g id="g2576">
<path id="path2578" d="M165.563 60.6811H167.334C168.762 60.6811 170.137 60.909 170.137 62.6293C170.137 63.5031 169.488 64.1195 168.647 64.2651V64.2841C168.97 64.4086 169.125 64.5648 169.352 65.006L170.719 67.8682H169.539L168.431 65.3775C168.11 64.6767 167.769 64.6767 167.221 64.6767H166.597V67.8682H165.563V60.6811ZM166.597 63.7712H167.48C168.461 63.7712 169.042 63.3385 169.042 62.6483C169.042 62.0003 168.546 61.5866 167.593 61.5866H166.597V63.7712Z" fill="black"/>
</g>
<g id="g2580">
<path id="path2582" d="M175.309 64.8613L172.482 60.6799H173.694L175.848 63.903L177.947 60.6799H179.159L176.343 64.8613V67.8691H175.309V64.8613Z" fill="black"/>
</g>
</g>
</g>
</g>
</g>
<g id="g2584">
<g id="g2586">
<g id="g2592">
<g id="g2594">
<path id="path2606" d="M51.4579 0.848789C43.3225 4.20277 29.707 20.2361 21.8943 40.3009C21.7945 40.5479 21.9049 40.7251 22.0747 40.761C22.3718 40.8201 22.4546 40.6935 22.5735 40.4465C34.2724 15.3117 48.8515 2.54161 54.9663 2.98276C58.931 3.26349 61.1978 7.29081 61.2827 13.7771C61.2869 13.9165 61.3718 14.136 61.5692 14.1508C61.7899 14.1676 61.9322 14.0262 61.9491 13.7941C62.6071 5.37426 60.4061 1.29628 56.9147 0.240902C56.3904 0.0804863 55.8259 0.000278473 55.2273 0.000278473C54.094 0.000278473 52.8332 0.285217 51.4579 0.848789Z" fill="url(#paint1_linear_2453_16943)"/>
</g>
</g>
</g>
</g>
<g id="g2608">
<g id="g2610">
<g id="g2616">
<g id="g2618">
<path id="path2630" d="M58.3965 18.1969C49.8451 18.4818 39.0864 20.7868 28.0985 24.6917C17.6391 28.415 8.5635 33.0798 0.307173 38.8992C0.00366297 39.1102 -0.0578834 39.3382 0.048239 39.5049C0.154361 39.6738 0.451499 39.6506 0.691336 39.5049C8.70782 34.551 14.4257 31.1632 26.7741 26.7708C37.1295 23.0917 47.4998 20.8923 55.9769 20.5778C63.4733 20.3013 68.8622 21.553 70.3862 23.9234C72.5638 27.3048 70.9592 30.9881 65.0312 36.2333C64.8169 36.4148 64.7999 36.647 64.889 36.7631C64.9463 36.8412 65.1055 36.9383 65.4409 36.723C75.1447 30.4245 74.1726 24.8985 73.6696 23.3661C72.5702 19.9889 67.7734 18.1695 60.0923 18.1695C59.5426 18.1695 58.978 18.1779 58.3965 18.1969Z" fill="url(#paint2_linear_2453_16943)"/>
</g>
</g>
</g>
</g>
<g id="g2632">
<g id="Clip path group_2">
<mask id="mask1_2453_16943" style="mask-type:luminance" maskUnits="userSpaceOnUse" x="-1" y="-1" width="181" height="84">
<g id="clipPath2636">
<path id="path2638" d="M-0.0581055 82.001H180V-0.223396H-0.0581055V82.001Z" fill="white"/>
</g>
</mask>
<g mask="url(#mask1_2453_16943)">
<g id="g2634">
<g id="g2640">
<path id="path2642" d="M87.6177 76.486H90.6698V77.1699H88.3987V78.7529H90.4681V79.4368H88.3987V81.2225H90.6698V81.9043H87.6177V76.486Z" fill="black"/>
</g>
<g id="g2644">
<path id="path2646" d="M95.5414 77.3015C95.1424 77.1453 94.9259 77.0735 94.5205 77.0735C94.0811 77.0735 93.5654 77.2318 93.5654 77.7975C93.5654 78.8381 95.9107 78.5975 95.9107 80.3832C95.9107 81.5399 95.0108 82 93.9177 82C93.5335 82 93.16 81.8881 92.8013 81.7741L92.8798 81.0523C93.1451 81.1599 93.6142 81.3161 94.0132 81.3161C94.4568 81.3161 95.0808 81.067 95.0808 80.4296C95.0808 79.218 92.7397 79.5536 92.7397 77.8671C92.7397 76.9046 93.5038 76.3938 94.4865 76.3938C94.8473 76.3938 95.2761 76.4551 95.6517 76.588L95.5414 77.3015Z" fill="black"/>
</g>
<g id="g2648">
<path id="path2650" d="M99.2035 77.1689H97.5098V76.485H101.678V77.1689H99.9845V81.9033H99.2035V77.1689Z" fill="black"/>
</g>
<path id="path2652" d="M102.842 81.0358H103.719V81.9033H102.842V81.0358Z" fill="black"/>
<g id="g2654">
<path id="path2656" d="M107.615 77.3788L106.778 78.0923L106.367 77.5751L107.7 76.486H108.394V81.9043H107.615V77.3788Z" fill="black"/>
</g>
<g id="g2658">
<path id="path2660" d="M111.713 81.1357C111.995 81.2856 112.331 81.3616 112.681 81.3616C113.696 81.3616 114.188 80.4307 114.203 79.388L114.188 79.3986C113.821 79.7532 113.447 79.8925 112.993 79.8925C111.938 79.8925 111.354 79.1558 111.354 78.1849C111.354 77.0662 112.112 76.3929 113.103 76.3929C114.625 76.3929 114.937 77.7585 114.937 78.9933C114.937 80.4603 114.453 81.999 112.728 81.999C112.354 81.999 111.8 81.9125 111.603 81.8281L111.713 81.1357ZM113.095 79.255C113.742 79.255 114.109 78.7759 114.109 78.1701C114.109 77.6572 113.791 77.0282 113.148 77.0282C112.494 77.0282 112.18 77.5876 112.18 78.1701C112.18 78.6746 112.477 79.255 113.095 79.255Z" fill="black"/>
</g>
<g id="g2662">
<path id="path2664" d="M119.177 80.6726H116.641V80.0351L118.842 76.487H119.958V80.0351H120.646V80.6726H119.958V81.9053H119.177V80.6726ZM119.177 77.1223H119.162L117.458 80.0351H119.177V77.1223Z" fill="black"/>
</g>
<g id="g2666">
<path id="path2668" d="M123.113 78.7696H123.549C124.111 78.7696 124.901 78.5733 124.901 77.8831C124.901 77.2646 124.4 77.0282 123.829 77.0282C123.338 77.0282 122.948 77.1633 122.621 77.3237L122.572 76.6314C122.931 76.5005 123.479 76.3929 123.939 76.3929C124.901 76.3929 125.726 76.8446 125.726 77.8683C125.726 78.5522 125.181 78.9849 124.557 79.1031V79.12C125.283 79.2656 125.775 79.6941 125.775 80.4603C125.775 81.7035 124.705 81.999 123.627 81.999C123.19 81.999 122.723 81.8893 122.377 81.7879L122.426 81.0682C122.708 81.2075 123.15 81.3616 123.621 81.3616C124.213 81.3616 124.947 81.1294 124.947 80.4392C124.947 79.6308 124.291 79.4049 123.589 79.4049H123.113V78.7696Z" fill="black"/>
</g>
<path id="path2670" d="M33.2046 79.4551H82.2055V78.748H33.2046V79.4551Z" fill="black"/>
<path id="path2672" d="M131.118 79.4551H179.219V78.748H131.118V79.4551Z" fill="black"/>
<g id="g2674">
<path id="path2676" d="M33.2021 33.9589H37.5192V51.9172H45.8753V55.2881H33.2021V33.9589Z" fill="black"/>
</g>
<g id="g2678">
<path id="path2680" d="M74.7589 42.8102C73.496 42.3817 72.5706 42.1369 71.0637 42.1369C69.9494 42.1369 68.625 42.5358 68.625 43.8825C68.625 46.3985 75.8052 44.8028 75.8052 50.5039C75.8052 54.1829 72.507 55.6562 69.1492 55.6562C67.5765 55.6562 65.9741 55.3776 64.4671 54.9808L64.7112 51.6099C66.0059 52.2516 67.36 52.6484 68.7778 52.6484C69.8305 52.6484 71.4945 52.2516 71.4945 50.7213C71.4945 47.6227 64.3101 49.7377 64.3101 44.0387C64.3101 40.6361 67.2963 39.1333 70.5373 39.1333C72.4772 39.1333 73.7443 39.4372 75.0348 39.7158L74.7589 42.8102Z" fill="black"/>
</g>
<g id="g2682">
<path id="path2684" d="M88.6454 33.8904H93.5164L101.96 55.2871H97.184L95.3353 50.3817H86.6121L84.7316 55.2871H80.2617L88.6454 33.8904ZM91.0183 38.1816H90.9589L87.8452 47.0108H94.1319L91.0183 38.1816Z" fill="black"/>
</g>
<path id="path2686" d="M103.269 33.9177H107.399V55.2891H103.269V33.9177Z" fill="black"/>
<g id="g2688">
<path id="path2690" d="M110.937 40.3289C112.537 39.5923 114.698 39.1343 116.458 39.1343C121.293 39.1343 123.296 41.1247 123.296 45.7852V47.8073C123.296 49.401 123.326 50.5978 123.358 51.7629C123.39 52.9576 123.449 54.0657 123.54 55.29H119.904C119.754 54.4583 119.754 53.4198 119.722 52.928H119.658C118.705 54.6736 116.64 55.6572 114.762 55.6572C111.956 55.6572 109.209 53.9707 109.209 50.9629C109.209 48.6052 110.351 47.2248 111.92 46.4586C113.495 45.6924 115.53 45.5383 117.258 45.5383H119.533C119.533 42.999 118.395 42.1379 115.961 42.1379C114.201 42.1379 112.448 42.8112 111.06 43.8539L110.937 40.3289ZM115.776 52.6494C117.037 52.6494 118.026 52.1006 118.673 51.2415C119.351 50.3529 119.533 49.2173 119.533 47.9889H117.748C115.902 47.9889 113.155 48.2991 113.155 50.7223C113.155 52.0732 114.297 52.6494 115.776 52.6494Z" fill="black"/>
</g>
<g id="g2692">
<path id="path2694" d="M125.823 39.5008H129.678V41.7044H129.737C131.034 39.7731 132.912 39.1335 134.453 39.1335C136.671 39.1335 138.246 39.9609 139.137 41.9197C140.095 40.0221 142.16 39.1335 144.102 39.1335C148.016 39.1335 149.123 41.7973 149.123 45.3244V55.2871H144.995V45.8753C144.995 44.402 144.995 42.3208 142.622 42.3208C139.878 42.3208 139.539 45.5692 139.539 47.6209V55.2871H135.408V45.8753C135.408 44.402 135.408 42.3208 133.037 42.3208C130.295 42.3208 129.956 45.5692 129.956 47.6209V55.2871H125.823V39.5008Z" fill="black"/>
</g>
<g id="g2696">
<path id="path2698" d="M167.941 47.3873C167.941 51.9613 164.189 55.6699 159.228 55.6699C154.317 55.6699 150.514 51.9613 150.514 47.3873C150.514 42.8175 154.292 39.1153 159.228 39.1153C164.189 39.1153 167.941 42.8175 167.941 47.3873ZM163.548 47.4633C163.548 44.7658 161.803 42.5811 159.301 42.5811C156.79 42.5811 155.051 44.7658 155.051 47.4633C155.051 50.1651 156.819 52.3539 159.301 52.3539C161.773 52.3539 163.552 50.1651 163.548 47.4633Z" fill="black"/>
</g>
<g id="g2700">
<path id="path2702" d="M63.5209 47.3873C63.5209 51.9613 59.7684 55.6699 54.8103 55.6699C49.8947 55.6699 46.0913 51.9613 46.0913 47.3873C46.0913 42.8175 49.8756 39.1153 54.8103 39.1153C59.7684 39.1153 63.5209 42.8175 63.5209 47.3873ZM59.0828 47.4633C59.0828 44.7658 57.336 42.5811 54.8337 42.5811C52.3228 42.5811 50.5845 44.7658 50.5845 47.4633C50.5845 50.1651 52.3547 52.3539 54.8337 52.3539C57.3084 52.3539 59.0849 50.1651 59.0828 47.4633Z" fill="black"/>
</g>
<g id="g2704">
<path id="path2706" d="M178.952 42.8102C177.685 42.3817 176.762 42.1369 175.255 42.1369C174.141 42.1369 172.82 42.5358 172.82 43.8825C172.82 46.3985 180.001 44.8028 180.001 50.5039C180.001 54.1829 176.702 55.6562 173.34 55.6562C171.77 55.6562 170.167 55.3776 168.66 54.9808L168.902 51.6099C170.199 52.2516 171.553 52.6484 172.973 52.6484C174.018 52.6484 175.686 52.2516 175.686 50.7213C175.686 47.6227 168.503 49.7377 168.503 44.0387C168.503 40.6361 171.492 39.1333 174.729 39.1333C176.671 39.1333 177.936 39.4372 179.23 39.7158L178.952 42.8102Z" fill="black"/>
</g>
</g>
</g>
</g>
</g>
</g>
</g>
<defs>
<radialGradient id="paint0_radial_2453_16943" cx="0" cy="0" r="1" gradientUnits="userSpaceOnUse" gradientTransform="translate(18.3957 46.1794) rotate(-4.36265) scale(5.5097 5.47971)">
<stop stop-color="#FFC222"/>
<stop offset="0.955048" stop-color="#1468B3"/>
<stop offset="1" stop-color="#1468B3"/>
</radialGradient>
<linearGradient id="paint1_linear_2453_16943" x1="30.3712" y1="43.9834" x2="48.6762" y2="12.2883" gradientUnits="userSpaceOnUse">
<stop stop-color="#FFC222"/>
<stop offset="0.91011" stop-color="#1468B3"/>
<stop offset="1" stop-color="#1468B3"/>
</linearGradient>
<linearGradient id="paint2_linear_2453_16943" x1="0.0501765" y1="28.8466" x2="73.5759" y2="28.8466" gradientUnits="userSpaceOnUse">
<stop stop-color="#FFC222"/>
<stop offset="0.91011" stop-color="#1468B3"/>
<stop offset="1" stop-color="#1468B3"/>
</linearGradient>
<clipPath id="clip0_2453_16943">
<rect width="180" height="82" fill="white"/>
</clipPath>
</defs>
</svg>
