<svg width="254" height="97" viewBox="0 0 254 97" fill="none" xmlns="http://www.w3.org/2000/svg">
  <g clip-path="url(#clip0_3412_3579)">
    <path d="M95.9522 26.9375H97.5131C97.7944 26.9375 97.8457 26.9375 98.1017 27.0145C98.025 26.7585 98.025 26.7059 98.025 26.4239V15.4059C98.025 15.1239 98.025 15.0708 98.1017 14.8148C97.8457 14.8923 97.7954 14.8923 97.5131 14.8923H95.9522V12.3492H103.882L106.544 21.9292C107.056 23.7518 107.157 24.2158 107.44 25.9104H107.567C107.899 24.2158 107.976 23.7518 108.489 21.9542L111.251 12.3497H119.106V14.8928H117.545C117.265 14.8928 117.213 14.8928 116.957 14.8153C117.033 15.0713 117.033 15.1244 117.033 15.4064V26.4244C117.033 26.7064 117.033 26.759 116.957 27.015C117.212 26.938 117.264 26.938 117.545 26.938H119.106V29.4801H111.893V26.938H113.171C113.452 26.938 113.504 26.938 113.761 27.015C113.684 26.759 113.684 26.7064 113.684 26.4244V19.7461C113.684 17.408 113.709 16.6129 113.914 14.2493L113.785 14.2248C113.275 16.5614 113.095 17.2295 112.405 19.5656L109.463 29.4801H105.32L102.378 19.5656C101.764 17.408 101.559 16.5864 101.047 14.2248L100.894 14.2493C101.097 16.6129 101.124 17.408 101.124 19.7461V26.4239C101.124 26.7059 101.124 26.7585 101.047 27.0145C101.304 26.9375 101.354 26.9375 101.636 26.9375H102.89V29.4796H95.9547L95.9522 26.9375ZM128.838 27.8115C127.456 29.2241 126.305 29.7361 124.667 29.7361C122.007 29.7361 120.216 28.1695 120.216 25.8599C120.216 23.1363 122.237 21.7757 126.305 21.7757C126.612 21.7757 127.149 21.8002 127.738 21.8527H128.018L128.299 21.8777L128.606 21.9047C128.529 21.8002 128.529 21.7502 128.529 21.6462V21.4402C128.529 20.6701 128.454 20.2606 128.224 19.9256C127.891 19.4881 127.176 19.2076 126.33 19.2076C124.923 19.2076 124.284 19.7461 124.104 21.0307H120.804C120.829 18.3595 122.748 16.9464 126.355 16.9464C128.196 16.9464 129.809 17.435 130.729 18.2815C131.445 18.9495 131.804 19.9256 131.804 21.3902V26.7835C131.804 26.9895 131.804 27.0395 131.727 27.1935C131.881 27.1165 131.932 27.1165 132.111 27.1165L133.339 27.0915V29.4796H128.76V28.7606C128.76 28.4025 128.786 28.2465 128.913 27.8615L128.838 27.8115ZM126.79 23.9828C124.643 23.9828 123.618 24.6003 123.618 25.8839C123.618 26.809 124.386 27.4515 125.511 27.4515C126.586 27.4515 127.558 26.9125 128.095 26.0389C128.427 25.4474 128.505 25.0879 128.505 24.0348L126.79 23.9828ZM134.637 27.0915L135.915 27.1165C136.094 27.1165 136.145 27.143 136.299 27.1935C136.248 27.039 136.248 26.9895 136.248 26.8085V19.9501C136.248 19.7966 136.248 19.7456 136.299 19.5921C136.145 19.6426 136.095 19.6426 135.915 19.6426L134.637 19.6696V17.306H139.6V18.1795C139.6 18.589 139.548 18.8725 139.37 19.4116L139.472 19.4636C140.572 17.666 141.724 16.9974 143.591 16.9974C146.353 16.9974 147.965 18.589 147.965 21.2862V26.8085C147.965 26.989 147.965 27.039 147.889 27.1935C148.043 27.143 148.093 27.1165 148.273 27.1165L149.475 27.0915V29.4796H142.849V27.0915L144.153 27.1165C144.332 27.1165 144.384 27.143 144.537 27.1935C144.462 27.039 144.462 26.9895 144.462 26.8085V21.9287C144.462 20.3621 143.821 19.6426 142.389 19.6426C140.676 19.6426 139.727 20.7986 139.727 22.8282V26.809C139.727 26.9895 139.727 27.0395 139.676 27.194C139.83 27.1435 139.855 27.117 140.035 27.117L141.364 27.092V29.4801H134.637V27.0915ZM161.874 25.3189C161.694 28.2465 159.801 29.8401 156.475 29.8401C154.48 29.8401 152.917 29.2241 151.87 28.067C150.822 26.9125 150.233 25.1914 150.233 23.3938C150.233 19.5156 152.408 16.9734 155.733 16.9734C157.422 16.9734 158.47 17.588 159.315 19.0521L159.389 19.0276C159.237 18.4885 159.188 18.257 159.188 17.9745V17.307H161.794V22.1857H158.955C158.802 20.3631 158.084 19.5411 156.68 19.5411C154.864 19.5411 153.84 20.9792 153.84 23.4713C153.84 25.9104 154.837 27.323 156.601 27.323C157.856 27.323 158.673 26.6029 158.878 25.3194L161.874 25.3189ZM163.173 27.0915L164.451 27.1165C164.628 27.1165 164.68 27.143 164.859 27.1935C164.783 27.039 164.783 26.9895 164.783 26.8085V14.9418C164.783 14.6613 164.783 14.6093 164.859 14.3538C164.604 14.4298 164.551 14.4298 164.269 14.4298H163.171V12.0417H168.261V15.9204C168.261 17.408 168.237 17.7945 168.107 19.1556L168.183 19.2076C169.462 17.512 170.41 16.9979 172.074 16.9979C174.784 16.9979 176.498 18.54 176.498 20.9787V26.809C176.498 26.9895 176.498 27.0395 176.423 27.194C176.6 27.1435 176.627 27.117 176.831 27.117L178.007 27.092V29.4801H171.382V27.092L172.688 27.117C172.866 27.117 172.915 27.1435 173.069 27.194C173.019 27.0395 173.019 26.99 173.019 26.809V21.9292C173.019 20.4141 172.328 19.6431 170.971 19.6431C169.205 19.6431 168.261 20.7476 168.261 22.8287V26.8095C168.261 26.99 168.261 27.04 168.184 27.1945C168.365 27.144 168.414 27.1175 168.568 27.1175L169.9 27.0925V29.4806H163.173L163.173 27.0915ZM190.92 25.7304C190.638 28.1695 188.337 29.8401 185.188 29.8401C181.249 29.8401 178.818 27.3475 178.818 23.3933C178.818 21.3132 179.331 19.8731 180.533 18.693C181.659 17.5885 183.243 16.9974 185.061 16.9974C188.824 16.9974 191.049 19.3616 191.049 23.3668V24.3698H182.91C182.604 24.3698 182.527 24.3698 182.272 24.2658C182.427 26.2949 183.5 27.426 185.265 27.426C186.544 27.426 187.413 26.809 187.72 25.7304H190.92ZM186.953 22.1852C187.338 22.1852 187.415 22.1852 187.72 22.2627C187.492 20.2851 186.621 19.3096 185.088 19.3096C183.501 19.3096 182.529 20.3626 182.324 22.2627C182.63 22.1852 182.71 22.1852 183.065 22.1852H186.953ZM195.414 25.2169C195.543 26.7064 196.488 27.5535 197.922 27.5535C199.02 27.5535 199.688 27.0395 199.688 26.2694C199.688 25.4229 199.149 25.0109 197.564 24.7278C194.979 24.2408 194.212 23.9828 193.574 23.3938C192.881 22.6992 192.573 21.9807 192.573 20.9282C192.573 18.359 194.135 16.9204 197.002 16.9204C198.406 16.9204 199.406 17.4345 200.351 18.6935L200.429 18.667C200.326 18.2815 200.276 18.1035 200.276 17.845V17.306H202.834V21.3382H200.17C199.994 19.9006 199.2 19.1551 197.817 19.1551C196.769 19.1551 196.078 19.6426 196.078 20.4396C196.078 20.8241 196.259 21.1592 196.539 21.3132C196.794 21.4667 197.129 21.5942 197.564 21.6712L199.148 22.0307C201.196 22.4672 201.886 22.8027 202.527 23.6243C202.986 24.2148 203.19 24.9584 203.19 25.8834C203.19 28.375 201.554 29.7881 198.612 29.7881C197.051 29.7881 196.235 29.3506 195.133 27.913L195.031 27.9645C195.185 28.35 195.238 28.581 195.238 28.8371V29.4796H192.627V25.2164L195.414 25.2169ZM204.054 17.306H205.437C205.717 17.306 205.768 17.306 206.024 17.3575C205.948 17.0995 205.948 17.0755 205.948 16.7919V15.0458L209.454 13.9158V16.7919C209.454 17.075 209.454 17.0995 209.375 17.3575C209.632 17.306 209.683 17.306 209.964 17.306H212.778V19.7196H209.964C209.684 19.7196 209.632 19.7196 209.375 19.6426C209.454 19.9006 209.454 19.9501 209.454 20.2331V25.9099C209.454 26.962 209.734 27.3745 210.425 27.3745C211.166 27.3745 211.449 26.9125 211.523 25.5494H213.546V25.9864C213.546 28.479 212.369 29.6596 209.889 29.6596C207.255 29.6596 205.948 28.5295 205.948 26.2444V20.2331C205.948 19.9501 205.948 19.9001 206.025 19.6426C205.768 19.7196 205.718 19.7196 205.437 19.7196H204.054V17.306ZM226.612 25.7304C226.331 28.1695 224.028 29.8401 220.881 29.8401C216.941 29.8401 214.51 27.3475 214.51 23.3933C214.51 21.3132 215.024 19.8731 216.225 18.693C217.351 17.5885 218.938 16.9974 220.753 16.9974C224.514 16.9974 226.74 19.3616 226.74 23.3668V24.3698H218.605C218.297 24.3698 218.221 24.3698 217.964 24.2658C218.119 26.2949 219.194 27.426 220.957 27.426C222.238 27.426 223.108 26.809 223.416 25.7304H226.612ZM222.65 22.1852C223.031 22.1852 223.109 22.1852 223.415 22.2627C223.183 20.2851 222.314 19.3096 220.779 19.3096C219.193 19.3096 218.221 20.3626 218.017 22.2627C218.324 22.1852 218.4 22.1852 218.757 22.1852H222.65ZM227.986 27.0915L229.264 27.1165C229.442 27.1165 229.497 27.143 229.675 27.1935C229.599 27.039 229.599 26.9895 229.599 26.8085V19.9501C229.599 19.7966 229.599 19.7456 229.675 19.5921C229.497 19.6426 229.442 19.6426 229.264 19.6426L227.986 19.6696V17.306H232.821V18.5125C232.821 19.0271 232.771 19.4386 232.564 20.3871L232.694 20.4136C233.589 18.0255 234.764 17.049 236.606 17.049C237.067 17.049 237.322 17.075 237.937 17.1765V20.1556C237.451 20.0786 237.246 20.0541 236.863 20.0541C234.409 20.0541 233.077 21.3627 233.077 23.7778V26.5519C233.077 26.885 233.077 26.937 233.026 27.193C233.282 27.1425 233.359 27.116 233.638 27.116L235.095 27.091V29.4791H227.986L227.986 27.0915ZM95.9522 51.1412H97.5131C97.7944 51.1412 97.8457 51.1412 98.1017 51.2182C98.025 50.9612 98.025 50.9097 98.025 50.6267V39.6091C98.025 39.3271 98.025 39.2746 98.1017 39.0186C97.8457 39.0956 97.7954 39.0956 97.5131 39.0956H95.9522V36.5535H103.882L106.544 46.1325C107.056 47.9561 107.157 48.4196 107.44 50.1127H107.567C107.899 48.4191 107.976 47.9565 108.489 46.1575L111.251 36.553H119.106V39.0951H117.545C117.265 39.0951 117.213 39.0951 116.957 39.0181C117.033 39.2741 117.033 39.3266 117.033 39.6086V50.6272C117.033 50.9102 117.033 50.9617 116.957 51.2182C117.212 51.1417 117.264 51.1417 117.545 51.1417H119.106V53.6838H111.893V51.1417H113.171C113.452 51.1417 113.504 51.1417 113.761 51.2182C113.684 50.9617 113.684 50.9107 113.684 50.6272V43.9508C113.684 41.6117 113.709 40.8162 113.914 38.4526L113.785 38.4281C113.275 40.7647 113.095 41.4327 112.405 43.7698L109.463 53.6838H105.32L102.378 43.7698C101.764 41.6122 101.559 40.7897 101.047 38.4281L100.894 38.4526C101.097 40.8167 101.124 41.6117 101.124 43.9508V50.6277C101.124 50.9107 101.124 50.9622 101.047 51.2187C101.304 51.1422 101.354 51.1422 101.636 51.1422H102.89V53.6843H95.9547L95.9522 51.1412ZM132.087 49.9347C131.807 52.3733 129.503 54.0439 126.356 54.0439C122.417 54.0439 119.987 51.5517 119.987 47.5975C119.987 45.5174 120.498 44.0774 121.7 42.8973C122.826 41.7927 124.411 41.2012 126.229 41.2012C129.989 41.2012 132.215 43.5653 132.215 47.571V48.5736H124.079C123.773 48.5736 123.695 48.5736 123.44 48.4696C123.594 50.4987 124.668 51.6287 126.433 51.6287C127.713 51.6287 128.582 51.0127 128.89 49.9352L132.087 49.9347ZM128.122 46.3885C128.506 46.3885 128.583 46.3885 128.889 46.466C128.659 44.4899 127.789 43.5133 126.254 43.5133C124.668 43.5133 123.695 44.5659 123.491 46.466C123.799 46.3885 123.875 46.3885 124.232 46.3885H128.122ZM133.128 41.5097H134.508C134.789 41.5097 134.842 41.5097 135.097 41.5612C135.021 41.3037 135.021 41.2792 135.021 40.9962V39.2496L138.526 38.12V40.9957C138.526 41.2787 138.526 41.3032 138.448 41.5607C138.706 41.5092 138.757 41.5092 139.038 41.5092H141.852V43.9233H139.038C138.758 43.9233 138.706 43.9233 138.448 43.8458C138.526 44.1044 138.526 44.1534 138.526 44.4364V50.1132C138.526 51.1662 138.806 51.5782 139.498 51.5782C140.24 51.5782 140.521 51.1172 140.597 49.7536H142.619V50.1917C142.619 52.6838 141.443 53.8639 138.96 53.8639C136.325 53.8639 135.021 52.7338 135.021 50.4487V44.4369C135.021 44.1539 135.021 44.1044 135.097 43.8463C134.841 43.9238 134.79 43.9238 134.508 43.9238H133.128V41.5097ZM143.764 51.2947L145.044 51.3202C145.222 51.3202 145.274 51.3467 145.452 51.3967C145.376 51.2427 145.376 51.1927 145.376 51.0112V44.1539C145.376 44.0003 145.376 43.9508 145.452 43.7958C145.274 43.8463 145.222 43.8463 145.044 43.8463L143.764 43.8733V41.5097H148.599V42.7168C148.599 43.2308 148.548 43.6423 148.343 44.5919L148.472 44.6179C149.367 42.2293 150.543 41.2532 152.386 41.2532C152.846 41.2532 153.102 41.2787 153.715 41.3807V44.3604C153.23 44.2829 153.023 44.2579 152.641 44.2579C150.185 44.2579 148.854 45.5664 148.854 47.9826V50.7557C148.854 51.0892 148.854 51.1412 148.803 51.3967C149.059 51.3462 149.136 51.3202 149.417 51.3202L150.873 51.2947V53.6833H143.762L143.764 51.2947ZM167.243 47.571C167.243 51.4742 164.684 53.9669 160.719 53.9669C159.133 53.9669 157.345 53.3243 156.294 52.4258C155.04 51.3732 154.323 49.5741 154.323 47.5715C154.323 45.7739 154.938 44.0518 156.012 42.9998C157.164 41.8702 158.928 41.2017 160.795 41.2017C164.684 41.2012 167.243 43.7198 167.243 47.571ZM157.907 47.5455C157.907 49.9842 159.006 51.4742 160.797 51.4742C162.562 51.4742 163.688 49.9597 163.688 47.6225C163.688 45.2089 162.587 43.6923 160.822 43.6923C159.006 43.6923 157.907 45.1569 157.907 47.5455ZM167.952 55.7635H169.051C169.331 55.7635 169.384 55.7635 169.64 55.8415C169.564 55.5829 169.564 55.5339 169.564 55.2504V44.1539C169.564 44.0003 169.564 43.9508 169.64 43.7958C169.462 43.8463 169.436 43.8463 169.23 43.8463L167.953 43.8733V41.5097H172.815V42.4088C172.815 42.8208 172.763 43.1013 172.607 43.7438L172.711 43.7693C173.71 41.9982 175.038 41.1497 176.856 41.1497C180.181 41.1497 182.278 43.6148 182.278 47.5975C182.278 51.5017 180.259 53.9669 177.035 53.9669C175.193 53.9669 173.837 53.1703 172.942 51.5262L172.84 51.5782C173.017 52.5548 173.044 52.8868 173.044 53.8634V55.2514C173.044 55.5339 173.044 55.5839 172.993 55.842C173.248 55.765 173.273 55.765 173.554 55.765H174.885V58.1536H167.953V55.7635H167.952ZM172.889 47.6745C172.889 49.9842 174.092 51.5017 175.856 51.5017C177.699 51.5017 178.774 50.0632 178.774 47.5975C178.774 45.1569 177.698 43.6673 175.983 43.6673C174.066 43.6673 172.889 45.2089 172.889 47.6745ZM196.239 47.571C196.239 51.4742 193.681 53.9669 189.714 53.9669C188.127 53.9669 186.336 53.3243 185.286 52.4258C184.035 51.3732 183.317 49.5741 183.317 47.5715C183.317 45.7739 183.932 44.0518 185.008 42.9998C186.159 41.8702 187.923 41.2017 189.791 41.2017C193.681 41.2012 196.239 43.7198 196.239 47.571ZM186.9 47.5455C186.9 49.9842 188 51.4742 189.79 51.4742C191.557 51.4742 192.681 49.9597 192.681 47.6225C192.681 45.2089 191.582 43.6923 189.818 43.6923C188 43.6923 186.9 45.1569 186.9 47.5455ZM197.103 51.2947L198.379 51.3202C198.585 51.3202 198.611 51.3202 198.789 51.3967C198.713 51.2427 198.713 51.1927 198.713 51.0112V39.1461C198.713 38.8646 198.713 38.8126 198.789 38.5566C198.531 38.6341 198.483 38.6341 198.2 38.6341H197.103V36.2444H202.192V51.0127C202.192 51.1927 202.192 51.2432 202.14 51.3977C202.295 51.3217 202.344 51.3217 202.524 51.3217L203.699 51.2957V53.6843H197.103V51.2947ZM205.126 51.2947L206.408 51.3202C206.586 51.3202 206.638 51.3467 206.819 51.3967C206.74 51.2427 206.74 51.1927 206.74 51.0112V44.1539C206.74 44.0003 206.74 43.9508 206.819 43.7958C206.638 43.8463 206.586 43.8463 206.408 43.8463L205.126 43.8733V41.5097H210.221V51.0122C210.221 51.1922 210.221 51.2427 210.143 51.3972C210.322 51.3462 210.373 51.3212 210.554 51.3212L211.729 51.2952V53.6838H205.126V51.2947ZM206.612 36.2444H210.22V39.7366H206.612V36.2444ZM212.109 41.5097H213.489C213.771 41.5097 213.821 41.5097 214.079 41.5612C214.002 41.3037 214.002 41.2792 214.002 40.9962V39.2496L217.506 38.12V40.9957C217.506 41.2787 217.506 41.3032 217.429 41.5607C217.686 41.5092 217.74 41.5092 218.02 41.5092H220.834V43.9233H218.02C217.74 43.9233 217.686 43.9233 217.429 43.8458C217.506 44.1044 217.506 44.1534 217.506 44.4364V50.1132C217.506 51.1662 217.787 51.5782 218.481 51.5782C219.221 51.5782 219.503 51.1172 219.579 49.7536H221.602V50.1917C221.602 52.6838 220.426 53.8639 217.943 53.8639C215.306 53.8639 214.002 52.7338 214.002 50.4487V44.4369C214.002 44.1539 214.002 44.1044 214.079 43.8463C213.821 43.9238 213.772 43.9238 213.489 43.9238H212.109V41.5097ZM231.059 52.0153C229.677 53.4273 228.527 53.9404 226.891 53.9404C224.229 53.9404 222.438 52.3733 222.438 50.0632C222.438 47.34 224.46 45.979 228.528 45.979C228.835 45.979 229.37 46.0039 229.961 46.0565H230.241L230.523 46.0815L230.829 46.108C230.754 46.0039 230.754 45.9544 230.754 45.8499V45.6444C230.754 44.8739 230.675 44.4639 230.447 44.1293C230.115 43.6923 229.399 43.4098 228.554 43.4098C227.146 43.4098 226.506 43.9513 226.326 45.2339H223.028C223.053 42.5623 224.973 41.1497 228.579 41.1497C230.421 41.1497 232.032 41.6387 232.953 42.4853C233.669 43.1533 234.029 44.1294 234.029 45.5939V50.9882C234.029 51.1932 234.029 51.2442 233.95 51.3972C234.105 51.3212 234.158 51.3212 234.335 51.3212L235.563 51.2952V53.6838H230.982V52.9643C230.982 52.6068 231.009 52.4533 231.137 52.0658L231.059 52.0153ZM229.011 48.1866C226.864 48.1866 225.841 48.8046 225.841 50.0892C225.841 51.0127 226.607 51.6562 227.734 51.6562C228.808 51.6562 229.778 51.1172 230.318 50.2432C230.649 49.6511 230.726 49.2926 230.726 48.2401L229.011 48.1866ZM236.679 51.2947L237.957 51.3202C238.135 51.3202 238.189 51.3467 238.341 51.3967C238.288 51.2427 238.288 51.1927 238.288 51.0112V44.1539C238.288 44.0003 238.288 43.9508 238.341 43.7958C238.188 43.8463 238.136 43.8463 237.957 43.8463L236.679 43.8733V41.5097H241.643V42.3833C241.643 42.7943 241.591 43.0773 241.412 43.6153L241.515 43.6673C242.614 41.8702 243.766 41.2012 245.633 41.2012C248.397 41.2012 250.009 42.7938 250.009 45.4904V51.0122C250.009 51.1922 250.009 51.2427 249.931 51.3972C250.086 51.3462 250.137 51.3212 250.315 51.3212L251.517 51.2952V53.6838H244.89V51.2952L246.194 51.3212C246.373 51.3212 246.427 51.3467 246.578 51.3972C246.502 51.2437 246.502 51.1932 246.502 51.0122V46.132C246.502 44.5654 245.863 43.8453 244.43 43.8453C242.717 43.8453 241.767 45.0024 241.767 47.031V51.0117C241.767 51.1917 241.767 51.2422 241.717 51.3967C241.87 51.3457 241.896 51.3207 242.077 51.3207L243.405 51.2947V53.6833H236.678L236.679 51.2947ZM98.5106 62.9648C98.5106 62.6838 98.5106 62.6578 98.5868 62.4013C98.3313 62.4508 98.281 62.4508 97.9986 62.4508H96.2072V60.7572H103.498V62.4508H101.299C101.042 62.4508 100.991 62.4508 100.736 62.4013C100.787 62.6578 100.787 62.6838 100.787 62.9648V71.7238C100.787 72.9568 101.043 73.8039 101.555 74.5754C102.322 75.679 103.705 76.346 105.187 76.346C108.053 76.346 109.69 74.4459 109.69 71.1583V62.9648C109.69 62.6838 109.69 62.6578 109.766 62.4013C109.51 62.4508 109.459 62.4508 109.204 62.4508H107.029V60.7572H114.013V62.4508H112.247C111.991 62.4508 111.94 62.4508 111.685 62.4013C111.736 62.6578 111.736 62.6838 111.736 62.9648V70.8757C111.736 73.2899 111.48 74.3689 110.584 75.6535C109.458 77.2966 107.488 78.2726 105.238 78.2726C102.86 78.2726 100.966 77.4511 99.7637 75.9365C98.8687 74.7789 98.5096 73.5219 98.5096 71.5188L98.5106 62.9648ZM118.531 68.3856C119.196 66.5105 120.552 65.611 122.674 65.611C125.284 65.611 126.845 67.0245 126.845 69.3362V75.7835C126.845 76.065 126.845 76.1155 126.768 76.374C127.024 76.2965 127.076 76.2965 127.357 76.2965H128.764V77.8896H122.599V76.2965H124.186C124.442 76.2965 124.492 76.2965 124.748 76.374C124.697 76.1155 124.697 76.0655 124.697 75.7835V70.0792C124.697 68.3336 123.826 67.3826 122.189 67.2811C120.092 67.1786 118.685 68.6681 118.685 71.0822V75.7835C118.685 76.0395 118.685 76.1155 118.609 76.374C118.865 76.2965 118.916 76.2965 119.198 76.2965H120.809V77.8896H114.311V76.2965H116.025C116.306 76.2965 116.331 76.2965 116.587 76.374C116.536 76.1155 116.536 76.0655 116.536 75.7835V68.0506C116.536 67.7431 116.536 67.6651 116.587 67.4091C116.307 67.4861 116.255 67.4861 115.948 67.4861L114.311 67.5116V65.9195H118.558V67.024C118.558 67.3571 118.506 67.6646 118.379 68.3586L118.531 68.3856ZM133.999 75.7825C133.999 76.0645 133.999 76.1155 133.923 76.3735C134.18 76.296 134.231 76.296 134.512 76.296H136.124V77.8886H129.652V76.296H131.341C131.622 76.296 131.647 76.296 131.903 76.3735C131.852 76.1145 131.852 76.065 131.852 75.7825V68.0496C131.852 67.7421 131.852 67.6641 131.903 67.4091C131.647 67.4856 131.571 67.4856 131.291 67.4856L129.653 67.5106V65.919H134.001L133.999 75.7825ZM133.975 60.7567V63.0943H131.621V60.7567H133.975ZM145.226 68.8986C145.415 68.3956 145.62 67.8988 145.841 67.4091C145.329 67.4856 145.226 67.4856 144.664 67.4856L143.563 67.5106V65.919H149.269V67.5106L147.888 67.4591L143.743 77.8876H141.057L136.836 67.4591L135.455 67.5106V65.919H141.288V67.5106L140.212 67.4856C139.676 67.4856 139.523 67.4856 139.037 67.4091C139.252 67.8922 139.456 68.38 139.65 68.8721L141.34 73.3414C141.876 74.7289 141.979 75.0105 142.362 76.2955H142.465C142.849 75.0105 142.952 74.7289 143.489 73.3414L145.226 68.8986ZM160.85 74.1904C160.466 76.629 158.317 78.1961 155.325 78.1961C151.591 78.1961 149.211 75.7835 149.211 72.0063C149.211 68.0501 151.54 65.611 155.325 65.611C158.09 65.611 160.058 67.0245 160.696 69.4632C160.954 70.3897 161.003 70.8762 161.003 72.3903H151.871C151.666 72.3903 151.615 72.3903 151.437 72.3143C151.488 74.7299 153.099 76.501 155.299 76.501C157.219 76.501 158.549 75.6545 158.88 74.1909L160.85 74.1904ZM158.242 70.8242C158.522 70.8242 158.575 70.8242 158.805 70.9022C158.676 68.6931 157.348 67.28 155.275 67.28C153.227 67.28 151.769 68.6676 151.488 70.9022C151.821 70.8242 151.924 70.8242 152.307 70.8242H158.242ZM166.395 68.7446C166.829 66.69 168.159 65.61 170.283 65.61C170.565 65.61 170.873 65.6605 171.178 65.7385V67.6641C170.742 67.4331 170.513 67.3566 170.028 67.3566C167.851 67.3566 166.521 69.0006 166.521 71.7223V75.782C166.521 76.0635 166.521 76.114 166.446 76.372C166.675 76.295 166.752 76.295 167.036 76.295H169.08V77.8881H162.148V76.295H163.835C164.118 76.295 164.17 76.295 164.425 76.372C164.35 76.114 164.35 76.064 164.35 75.782V68.0486C164.35 67.7416 164.35 67.6631 164.425 67.4076C164.143 67.4846 164.069 67.4846 163.786 67.4846L162.149 67.5101V65.918H166.395V67.177C166.395 67.2785 166.369 67.5616 166.319 67.9466C166.319 68.1016 166.294 68.3841 166.267 68.7161L166.395 68.7446ZM181.891 65.9195V69.8232H180.154C180.154 68.2566 178.975 67.2811 176.98 67.2811C175.242 67.2811 174.166 68.0006 174.166 69.1301C174.166 69.5157 174.32 69.8747 174.602 70.1062C174.934 70.3892 175.269 70.5162 176.291 70.6452L177.775 70.8757C179.311 71.1068 180.282 71.4148 180.895 71.9038C181.612 72.4678 182.022 73.3664 182.022 74.3439C182.022 76.733 180.206 78.1961 177.239 78.1961C175.396 78.1961 174.246 77.5796 173.53 76.22L173.427 76.2445C173.53 76.682 173.556 76.887 173.556 77.1436V77.8891H171.844V73.7539H173.556C173.659 75.4475 175.015 76.5005 177.062 76.5005C177.496 76.5005 178.314 76.3465 178.774 76.1425C179.364 75.8835 179.799 75.2685 179.799 74.6774C179.799 73.9584 179.517 73.4704 178.979 73.2119C178.597 73.0338 178.138 72.9308 177.063 72.7768L175.733 72.6228C172.994 72.2108 171.945 71.2873 171.945 69.2061C171.945 68.0246 172.484 67.073 173.507 66.458C174.503 65.842 175.734 65.534 177.01 65.6105C178.597 65.713 179.542 66.227 180.184 67.4336L180.311 67.4081C180.184 66.997 180.158 66.791 180.158 66.5865V65.9185H181.891V65.9195ZM187.667 75.7825C187.667 76.0645 187.667 76.1155 187.59 76.3735C187.845 76.296 187.899 76.296 188.18 76.296H189.79V77.8886H183.318V76.296H185.008C185.288 76.296 185.313 76.296 185.571 76.3735C185.52 76.1145 185.52 76.065 185.52 75.7825V68.0496C185.52 67.7421 185.52 67.6641 185.571 67.4091C185.313 67.4856 185.239 67.4856 184.958 67.4856L183.319 67.5106V65.919H187.668L187.667 75.7825ZM187.642 60.7567V63.0943H185.287V60.7567H187.642ZM198.178 74.1904C198.178 75.7055 198.05 76.321 197.639 76.9646C197.051 77.8631 196.337 78.1961 194.852 78.1961C193.88 78.1961 193.19 77.9906 192.627 77.5036C191.886 76.912 191.63 76.1425 191.63 74.5754V68.0501C191.63 67.7431 191.63 67.6646 191.704 67.4091C191.424 67.4861 191.347 67.4861 191.091 67.4861L189.274 67.5116V65.9195H191.117C191.398 65.9195 191.451 65.9195 191.705 65.9955C191.631 65.7385 191.631 65.6885 191.631 65.4055V63.2473L193.805 62.4773V65.4055C193.805 65.6875 193.805 65.7385 193.727 65.9955C193.985 65.9195 194.034 65.9195 194.316 65.9195H197.694V67.5116L194.342 67.4861C194.06 67.4861 193.985 67.4596 193.728 67.4091C193.806 67.6651 193.806 67.7431 193.806 68.0251V74.5754C193.806 75.4475 193.882 75.7825 194.111 76.065C194.341 76.3735 194.727 76.527 195.162 76.527C195.723 76.527 196.183 76.2195 196.337 75.7055C196.439 75.3975 196.465 75.0099 196.515 74.1904H198.178ZM199.556 67.4596L198.25 67.5116V65.9195H204.082V67.5116L202.93 67.4861C202.369 67.4861 202.214 67.4861 201.702 67.4341C202.035 68.0491 202.063 68.1536 202.419 68.9751L204.209 73.1354C204.748 74.3689 204.877 74.6764 205.258 75.858H205.361C205.745 74.6764 205.822 74.4449 206.385 73.1354L208.097 68.9486C208.433 68.1781 208.483 68.0491 208.791 67.4341C208.28 67.4861 208.126 67.4861 207.564 67.4861L206.435 67.5116V65.9195H212.038V67.5116L210.811 67.4596L205.847 79.0432C205.105 80.7907 204.644 81.5353 204.16 81.9203C203.648 82.3053 202.855 82.5113 201.933 82.5113C201.32 82.5113 200.757 82.4593 200.346 82.3568V80.7387C200.602 80.7907 201.139 80.8152 201.447 80.8152C202.675 80.8152 202.93 80.6092 203.57 79.2482L204.208 77.9131L199.556 67.4596ZM85.5621 73.4904V73.4914C77.7902 78.9602 58.3069 84.5729 55.0418 74.7504C49.1176 79.2262 45.5705 91.4258 44.061 97.4831C42.5519 91.4258 39.0049 79.2277 33.0812 74.7514C29.8146 84.5744 10.3338 78.9602 2.56286 73.4924H2.56087C1.73213 64.0014 6.62885 44.2539 16.7341 46.3285C15.8356 38.9436 7.09601 29.7621 2.62312 25.4174V25.4154C8.60507 27.1345 20.8957 30.1421 27.7173 27.232C20.8743 19.4821 35.4579 5.35084 44.061 1.32764C52.6641 5.35084 67.2487 19.4826 60.4032 27.2325C67.2238 30.1441 79.5164 27.135 85.4984 25.4149L85.5004 25.4164C81.027 29.7581 72.2864 38.9431 71.3879 46.3265C81.4936 44.2524 86.3908 63.9984 85.5621 73.4904ZM44.0615 5.58086C37.2558 9.07004 30.2419 15.2999 29.1079 22.8713L29.1173 22.8717C37.6672 19.9776 42.4269 31.8247 44.062 38.4491C45.6961 31.8247 50.4553 19.9776 59.0076 22.8717L59.0146 22.8713C57.8801 15.2999 50.8657 9.07004 44.0615 5.58086ZM81.8661 71.3168C82.2576 63.6559 80.39 54.4409 74.4259 49.6716L74.423 49.6776C72.644 58.5561 60.0416 56.771 53.5083 54.8799C58.408 59.6157 66.2481 69.6777 59.4758 75.6665L59.4748 75.67C66.5719 78.4721 75.4519 75.4865 81.8661 71.3168ZM6.25682 71.3143V71.3163C12.6726 75.487 21.5526 78.4721 28.6477 75.6705L28.6452 75.665C21.8768 69.6782 29.715 59.6152 34.6142 54.8789C28.0809 56.7705 15.479 58.5561 13.6995 49.6766L13.696 49.6711C7.7335 54.4394 5.86785 63.6569 6.25682 71.3143ZM44.0615 51.2597C37.2558 55.1099 30.2419 61.9843 29.1084 70.3347H29.1178C37.6677 67.143 42.4274 80.2167 44.0625 87.5256C45.6965 80.2167 50.4558 67.143 59.0081 70.3347H59.0151C57.8801 61.9843 50.8657 55.1099 44.0615 51.2597ZM42.4628 48.4776C42.544 40.6342 40.125 31.1002 33.4851 25.9399L33.4787 25.9444C31.9591 34.9729 18.3019 32.5788 11.1809 30.3466C16.6668 35.4184 25.5613 46.0965 18.533 51.9323L18.5315 51.9408C26.3029 55.1309 35.7392 52.4668 42.4628 48.4776ZM45.6597 48.4776L45.6632 48.4786C52.3842 52.4703 61.8216 55.1314 69.5935 51.9413L69.591 51.9323C62.5627 46.098 71.4566 35.4209 76.9435 30.3466C69.8231 32.5803 56.1643 34.9754 54.6458 25.9444L54.6423 25.9404C48 31.1017 45.5795 40.6357 45.6597 48.4776Z" fill="black"/>
  </g>
  <defs>
    <clipPath id="clip0_3412_3579">
      <rect width="254" height="97.005" fill="white"/>
    </clipPath>
  </defs>
</svg>
