<svg width="320" height="175" viewBox="0 0 320 175" fill="none" xmlns="http://www.w3.org/2000/svg">
<rect x="0.818824" y="0.818824" width="318.362" height="173.362" rx="2.45647" fill="white"/>
<rect x="0.818824" y="0.818824" width="318.362" height="173.362" rx="2.45647" stroke="#E0E0E0" stroke-width="1.63765"/>
<g clip-path="url(#clip0_3412_3577)">
<path d="M128.952 65.935H130.513C130.794 65.935 130.846 65.935 131.102 66.012C131.025 65.756 131.025 65.7035 131.025 65.4215V54.4034C131.025 54.1214 131.025 54.0684 131.102 53.8124C130.846 53.8899 130.795 53.8899 130.513 53.8899H128.952V51.3468H136.882L139.544 60.9268C140.056 62.7494 140.157 63.2134 140.44 64.908H140.567C140.899 63.2134 140.976 62.7494 141.489 60.9518L144.251 51.3473H152.106V53.8904H150.545C150.265 53.8904 150.213 53.8904 149.957 53.8129C150.033 54.0689 150.033 54.1219 150.033 54.4039V65.422C150.033 65.704 150.033 65.7565 149.957 66.0125C150.212 65.9355 150.264 65.9355 150.545 65.9355H152.106V68.4777H144.893V65.9355H146.171C146.452 65.9355 146.504 65.9355 146.761 66.0125C146.684 65.7565 146.684 65.704 146.684 65.422V58.7436C146.684 56.4055 146.709 55.6105 146.914 53.2469L146.785 53.2224C146.275 55.559 146.095 56.227 145.405 58.5631L142.463 68.4777H138.32L135.378 58.5631C134.764 56.4055 134.559 55.584 134.047 53.2224L133.894 53.2469C134.097 55.6105 134.124 56.4055 134.124 58.7436V65.4215C134.124 65.7035 134.124 65.756 134.047 66.012C134.304 65.935 134.354 65.935 134.636 65.935H135.89V68.4772H128.955L128.952 65.935ZM161.838 66.8091C160.456 68.2216 159.305 68.7337 157.667 68.7337C155.007 68.7337 153.216 67.1671 153.216 64.8575C153.216 62.1338 155.237 60.7733 159.305 60.7733C159.612 60.7733 160.149 60.7978 160.738 60.8503H161.018L161.299 60.8753L161.606 60.9023C161.529 60.7978 161.529 60.7478 161.529 60.6437V60.4377C161.529 59.6677 161.454 59.2582 161.224 58.9232C160.891 58.4856 160.176 58.2051 159.33 58.2051C157.923 58.2051 157.284 58.7436 157.104 60.0282H153.804C153.829 57.3571 155.748 55.944 159.355 55.944C161.196 55.944 162.809 56.4325 163.729 57.2791C164.445 57.9471 164.804 58.9232 164.804 60.3877V65.781C164.804 65.987 164.804 66.037 164.727 66.191C164.881 66.114 164.932 66.114 165.111 66.114L166.339 66.089V68.4772H161.76V67.7581C161.76 67.4001 161.786 67.2441 161.913 66.8591L161.838 66.8091ZM159.79 62.9804C157.643 62.9804 156.618 63.5979 156.618 64.8815C156.618 65.8065 157.386 66.449 158.511 66.449C159.586 66.449 160.558 65.91 161.095 65.0365C161.427 64.4449 161.505 64.0854 161.505 63.0324L159.79 62.9804ZM167.637 66.089L168.915 66.114C169.094 66.114 169.145 66.1405 169.299 66.191C169.248 66.0365 169.248 65.987 169.248 65.806V58.9477C169.248 58.7942 169.248 58.7431 169.299 58.5896C169.145 58.6401 169.095 58.6401 168.915 58.6401L167.637 58.6671V56.3035H172.6V57.1771C172.6 57.5866 172.548 57.8701 172.37 58.4091L172.472 58.4611C173.572 56.6635 174.724 55.995 176.591 55.995C179.353 55.995 180.965 57.5866 180.965 60.2837V65.806C180.965 65.9865 180.965 66.0365 180.889 66.191C181.043 66.1405 181.093 66.114 181.273 66.114L182.475 66.089V68.4772H175.849V66.089L177.153 66.114C177.332 66.114 177.384 66.1405 177.537 66.191C177.462 66.0365 177.462 65.987 177.462 65.806V60.9263C177.462 59.3597 176.821 58.6401 175.389 58.6401C173.676 58.6401 172.727 59.7962 172.727 61.8258V65.8065C172.727 65.987 172.727 66.037 172.676 66.1915C172.83 66.141 172.855 66.1145 173.035 66.1145L174.364 66.0895V68.4777H167.637V66.089ZM194.874 64.3164C194.694 67.2441 192.801 68.8377 189.475 68.8377C187.48 68.8377 185.917 68.2216 184.87 67.0646C183.822 65.91 183.233 64.1889 183.233 62.3913C183.233 58.5131 185.408 55.971 188.733 55.971C190.422 55.971 191.47 56.5855 192.315 58.0496L192.389 58.0251C192.237 57.4861 192.188 57.2546 192.188 56.9721V56.3045H194.794V61.1833H191.955C191.802 59.3607 191.084 58.5386 189.68 58.5386C187.864 58.5386 186.84 59.9767 186.84 62.4688C186.84 64.908 187.837 66.3205 189.601 66.3205C190.856 66.3205 191.673 65.6005 191.878 64.3169L194.874 64.3164ZM196.173 66.089L197.451 66.114C197.628 66.114 197.68 66.1405 197.859 66.191C197.783 66.0365 197.783 65.987 197.783 65.806V53.9394C197.783 53.6589 197.783 53.6069 197.859 53.3514C197.604 53.4274 197.551 53.4274 197.269 53.4274H196.171V51.0392H201.261V54.918C201.261 56.4055 201.237 56.792 201.107 58.1531L201.183 58.2051C202.462 56.5095 203.41 55.9955 205.074 55.9955C207.784 55.9955 209.498 57.5376 209.498 59.9762V65.8065C209.498 65.987 209.498 66.037 209.423 66.1915C209.6 66.141 209.627 66.1145 209.831 66.1145L211.007 66.0895V68.4777H204.382V66.0895L205.688 66.1145C205.866 66.1145 205.915 66.141 206.069 66.1915C206.019 66.037 206.019 65.9875 206.019 65.8065V60.9268C206.019 59.4117 205.328 58.6406 203.971 58.6406C202.205 58.6406 201.261 59.7452 201.261 61.8263V65.807C201.261 65.9875 201.261 66.0375 201.184 66.192C201.365 66.1415 201.414 66.115 201.568 66.115L202.9 66.09V68.4782H196.173L196.173 66.089ZM223.92 64.728C223.638 67.1671 221.337 68.8377 218.188 68.8377C214.249 68.8377 211.818 66.345 211.818 62.3908C211.818 60.3107 212.331 58.8707 213.533 57.6906C214.659 56.586 216.243 55.995 218.061 55.995C221.824 55.995 224.049 58.3591 224.049 62.3643V63.3674H215.91C215.604 63.3674 215.527 63.3674 215.272 63.2634C215.427 65.2925 216.5 66.4235 218.265 66.4235C219.544 66.4235 220.413 65.8065 220.72 64.728H223.92ZM219.953 61.1828C220.338 61.1828 220.415 61.1828 220.72 61.2603C220.492 59.2827 219.621 58.3071 218.088 58.3071C216.501 58.3071 215.529 59.3602 215.324 61.2603C215.63 61.1828 215.71 61.1828 216.065 61.1828H219.953ZM228.414 64.2144C228.543 65.704 229.488 66.5511 230.922 66.5511C232.02 66.5511 232.688 66.037 232.688 65.267C232.688 64.4204 232.149 64.0084 230.564 63.7254C227.979 63.2384 227.212 62.9804 226.574 62.3913C225.881 61.6968 225.573 60.9783 225.573 59.9257C225.573 57.3566 227.135 55.918 230.002 55.918C231.406 55.918 232.406 56.432 233.351 57.6911L233.429 57.6646C233.326 57.2791 233.276 57.1011 233.276 56.8425V56.3035H235.834V60.3357H233.17C232.994 58.8982 232.2 58.1526 230.817 58.1526C229.769 58.1526 229.078 58.6401 229.078 59.4372C229.078 59.8217 229.259 60.1567 229.539 60.3107C229.794 60.4642 230.129 60.5917 230.564 60.6687L232.148 61.0283C234.196 61.4648 234.886 61.8003 235.527 62.6218C235.986 63.2124 236.19 63.9559 236.19 64.881C236.19 67.3726 234.554 68.7857 231.612 68.7857C230.051 68.7857 229.235 68.3481 228.133 66.9106L228.031 66.9621C228.185 67.3476 228.238 67.5786 228.238 67.8346V68.4772H225.627V64.2139L228.414 64.2144ZM237.054 56.3035H238.437C238.717 56.3035 238.768 56.3035 239.024 56.355C238.948 56.097 238.948 56.073 238.948 55.7895V54.0434L242.454 52.9133V55.7895C242.454 56.0725 242.454 56.097 242.375 56.355C242.632 56.3035 242.683 56.3035 242.964 56.3035H245.778V58.7171H242.964C242.684 58.7171 242.632 58.7171 242.375 58.6401C242.454 58.8982 242.454 58.9477 242.454 59.2307V64.9075C242.454 65.9595 242.734 66.372 243.425 66.372C244.166 66.372 244.449 65.91 244.523 64.5469H246.546V64.984C246.546 67.4766 245.369 68.6572 242.889 68.6572C240.255 68.6572 238.948 67.5271 238.948 65.242V59.2307C238.948 58.9477 238.948 58.8977 239.025 58.6401C238.768 58.7171 238.718 58.7171 238.437 58.7171H237.054V56.3035ZM259.612 64.728C259.331 67.1671 257.028 68.8377 253.881 68.8377C249.941 68.8377 247.51 66.345 247.51 62.3908C247.51 60.3107 248.024 58.8707 249.225 57.6906C250.351 56.586 251.938 55.995 253.753 55.995C257.514 55.995 259.74 58.3591 259.74 62.3643V63.3674H251.605C251.297 63.3674 251.221 63.3674 250.964 63.2634C251.119 65.2925 252.194 66.4235 253.957 66.4235C255.238 66.4235 256.108 65.8065 256.416 64.728H259.612ZM255.65 61.1828C256.031 61.1828 256.109 61.1828 256.415 61.2603C256.183 59.2827 255.314 58.3071 253.779 58.3071C252.193 58.3071 251.221 59.3602 251.017 61.2603C251.324 61.1828 251.4 61.1828 251.757 61.1828H255.65ZM260.986 66.089L262.264 66.114C262.442 66.114 262.497 66.1405 262.675 66.191C262.599 66.0365 262.599 65.987 262.599 65.806V58.9477C262.599 58.7942 262.599 58.7431 262.675 58.5896C262.497 58.6401 262.442 58.6401 262.264 58.6401L260.986 58.6671V56.3035H265.821V57.5101C265.821 58.0246 265.771 58.4361 265.564 59.3847L265.694 59.4112C266.589 57.0231 267.764 56.0465 269.606 56.0465C270.067 56.0465 270.322 56.0725 270.937 56.174V59.1532C270.451 59.0762 270.246 59.0517 269.863 59.0517C267.409 59.0517 266.077 60.3602 266.077 62.7754V65.5495C266.077 65.8825 266.077 65.9345 266.026 66.1905C266.282 66.14 266.359 66.1135 266.638 66.1135L268.095 66.0885V68.4767H260.986L260.986 66.089ZM128.952 90.1388H130.513C130.794 90.1388 130.846 90.1388 131.102 90.2158C131.025 89.9588 131.025 89.9073 131.025 89.6242V78.6067C131.025 78.3247 131.025 78.2722 131.102 78.0161C130.846 78.0932 130.795 78.0932 130.513 78.0932H128.952V75.551H136.882L139.544 85.13C140.056 86.9536 140.157 87.4171 140.44 89.1102H140.567C140.899 87.4166 140.976 86.9541 141.489 85.155L144.251 75.5505H152.106V78.0927H150.545C150.265 78.0927 150.213 78.0926 149.957 78.0156C150.033 78.2717 150.033 78.3242 150.033 78.6062V89.6247C150.033 89.9078 150.033 89.9593 149.957 90.2158C150.212 90.1393 150.264 90.1393 150.545 90.1393H152.106V92.6814H144.893V90.1393H146.171C146.452 90.1393 146.504 90.1393 146.761 90.2158C146.684 89.9593 146.684 89.9083 146.684 89.6247V82.9484C146.684 80.6093 146.709 79.8137 146.914 77.4501L146.785 77.4256C146.275 79.7622 146.095 80.4303 145.405 82.7674L142.463 92.6814H138.32L135.378 82.7674C134.764 80.6098 134.559 79.7872 134.047 77.4256L133.894 77.4501C134.097 79.8142 134.124 80.6093 134.124 82.9484V89.6252C134.124 89.9083 134.124 89.9598 134.047 90.2163C134.304 90.1398 134.354 90.1398 134.636 90.1398H135.89V92.6819H128.955L128.952 90.1388ZM165.087 88.9322C164.807 91.3708 162.503 93.0414 159.356 93.0414C155.417 93.0414 152.987 90.5493 152.987 86.5951C152.987 84.515 153.498 83.0749 154.7 81.8948C155.826 80.7903 157.411 80.1988 159.229 80.1988C162.989 80.1988 165.215 82.5629 165.215 86.5686V87.5711H157.079C156.773 87.5711 156.695 87.5711 156.44 87.4671C156.594 89.4962 157.668 90.6263 159.433 90.6263C160.713 90.6263 161.582 90.0103 161.89 88.9327L165.087 88.9322ZM161.122 85.386C161.506 85.386 161.583 85.386 161.889 85.4635C161.659 83.4874 160.789 82.5109 159.254 82.5109C157.668 82.5109 156.695 83.5634 156.491 85.4635C156.799 85.386 156.875 85.386 157.232 85.386H161.122ZM166.128 80.5073H167.508C167.789 80.5073 167.842 80.5073 168.097 80.5588C168.021 80.3013 168.021 80.2768 168.021 79.9937V78.2472L171.526 77.1176V79.9932C171.526 80.2763 171.526 80.3008 171.448 80.5583C171.706 80.5068 171.757 80.5068 172.038 80.5068H174.852V82.9209H172.038C171.758 82.9209 171.706 82.9209 171.448 82.8434C171.526 83.1019 171.526 83.1509 171.526 83.4339V89.1107C171.526 90.1638 171.806 90.5758 172.498 90.5758C173.24 90.5758 173.521 90.1148 173.597 88.7512H175.619V89.1892C175.619 91.6814 174.443 92.8614 171.96 92.8614C169.325 92.8614 168.021 91.7314 168.021 89.4462V83.4344C168.021 83.1514 168.021 83.1019 168.097 82.8439C167.841 82.9214 167.79 82.9214 167.508 82.9214H166.128V80.5073ZM176.764 90.2923L178.044 90.3178C178.222 90.3178 178.274 90.3443 178.452 90.3943C178.376 90.2403 178.376 90.1903 178.376 90.0088V83.1514C178.376 82.9979 178.376 82.9484 178.452 82.7934C178.274 82.8439 178.222 82.8439 178.044 82.8439L176.764 82.8709V80.5073H181.599V81.7143C181.599 82.2284 181.548 82.6399 181.343 83.5894L181.472 83.6154C182.367 81.2268 183.543 80.2508 185.386 80.2508C185.846 80.2508 186.102 80.2763 186.715 80.3783V83.3579C186.23 83.2804 186.023 83.2554 185.641 83.2554C183.185 83.2554 181.854 84.564 181.854 86.9801V89.7533C181.854 90.0868 181.854 90.1388 181.803 90.3943C182.059 90.3438 182.136 90.3178 182.417 90.3178L183.873 90.2923V92.6809H176.762L176.764 90.2923ZM200.243 86.5686C200.243 90.4718 197.684 92.9644 193.719 92.9644C192.133 92.9644 190.345 92.3219 189.294 91.4233C188.04 90.3708 187.323 88.5717 187.323 86.5691C187.323 84.7715 187.938 83.0494 189.012 81.9974C190.164 80.8678 191.928 80.1993 193.795 80.1993C197.684 80.1988 200.243 82.7174 200.243 86.5686ZM190.907 86.5431C190.907 88.9817 192.006 90.4718 193.797 90.4718C195.562 90.4718 196.688 88.9572 196.688 86.6201C196.688 84.2065 195.587 82.6899 193.822 82.6899C192.006 82.6899 190.907 84.1545 190.907 86.5431ZM200.952 94.761H202.051C202.331 94.761 202.384 94.761 202.64 94.839C202.564 94.5805 202.564 94.5315 202.564 94.248V83.1514C202.564 82.9979 202.564 82.9484 202.64 82.7934C202.462 82.8439 202.436 82.8439 202.23 82.8439L200.953 82.8709V80.5073H205.815V81.4063C205.815 81.8183 205.763 82.0989 205.607 82.7414L205.711 82.7669C206.71 80.9958 208.038 80.1473 209.856 80.1473C213.181 80.1473 215.278 82.6124 215.278 86.5951C215.278 90.4993 213.259 92.9644 210.034 92.9644C208.193 92.9644 206.837 92.1679 205.942 90.5238L205.84 90.5758C206.017 91.5523 206.044 91.8844 206.044 92.8609V94.249C206.044 94.5315 206.044 94.5815 205.993 94.8395C206.248 94.7625 206.273 94.7625 206.554 94.7625H207.885V97.1511H200.953V94.761H200.952ZM205.889 86.6721C205.889 88.9817 207.092 90.4993 208.856 90.4993C210.699 90.4993 211.774 89.0607 211.774 86.5951C211.774 84.1545 210.698 82.6649 208.983 82.6649C207.066 82.6649 205.889 84.2065 205.889 86.6721ZM229.239 86.5686C229.239 90.4718 226.681 92.9644 222.714 92.9644C221.127 92.9644 219.336 92.3219 218.286 91.4233C217.035 90.3708 216.317 88.5717 216.317 86.5691C216.317 84.7715 216.932 83.0494 218.008 81.9974C219.159 80.8678 220.923 80.1993 222.791 80.1993C226.681 80.1988 229.239 82.7174 229.239 86.5686ZM219.9 86.5431C219.9 88.9817 221 90.4718 222.79 90.4718C224.557 90.4718 225.681 88.9572 225.681 86.6201C225.681 84.2065 224.582 82.6899 222.818 82.6899C221 82.6899 219.9 84.1545 219.9 86.5431ZM230.103 90.2923L231.379 90.3178C231.585 90.3178 231.611 90.3178 231.789 90.3943C231.713 90.2403 231.713 90.1903 231.713 90.0088V78.1437C231.713 77.8621 231.713 77.8101 231.789 77.5541C231.531 77.6316 231.483 77.6316 231.2 77.6316H230.103V75.242H235.192V90.0103C235.192 90.1903 235.192 90.2408 235.14 90.3953C235.295 90.3193 235.344 90.3193 235.524 90.3193L236.699 90.2933V92.6819H230.103V90.2923ZM238.126 90.2923L239.408 90.3178C239.586 90.3178 239.638 90.3443 239.819 90.3943C239.74 90.2403 239.74 90.1903 239.74 90.0088V83.1514C239.74 82.9979 239.74 82.9484 239.819 82.7934C239.638 82.8439 239.586 82.8439 239.408 82.8439L238.126 82.8709V80.5073H243.221V90.0098C243.221 90.1898 243.221 90.2403 243.143 90.3948C243.322 90.3438 243.373 90.3188 243.554 90.3188L244.729 90.2928V92.6814H238.126V90.2923ZM239.612 75.242H243.22V78.7342H239.612V75.242ZM245.109 80.5073H246.489C246.771 80.5073 246.821 80.5073 247.079 80.5588C247.002 80.3013 247.002 80.2768 247.002 79.9937V78.2472L250.506 77.1176V79.9932C250.506 80.2763 250.506 80.3008 250.429 80.5583C250.686 80.5068 250.74 80.5068 251.02 80.5068H253.834V82.9209H251.02C250.74 82.9209 250.686 82.9209 250.429 82.8434C250.506 83.1019 250.506 83.1509 250.506 83.4339V89.1107C250.506 90.1638 250.787 90.5758 251.481 90.5758C252.221 90.5758 252.503 90.1148 252.579 88.7512H254.602V89.1892C254.602 91.6814 253.426 92.8614 250.943 92.8614C248.306 92.8614 247.002 91.7314 247.002 89.4462V83.4344C247.002 83.1514 247.002 83.1019 247.079 82.8439C246.821 82.9214 246.772 82.9214 246.489 82.9214H245.109V80.5073ZM264.059 91.0128C262.677 92.4249 261.527 92.9379 259.891 92.9379C257.229 92.9379 255.438 91.3708 255.438 89.0607C255.438 86.3376 257.46 84.9765 261.528 84.9765C261.835 84.9765 262.37 85.0015 262.961 85.054H263.241L263.523 85.079L263.829 85.1055C263.754 85.0015 263.754 84.952 263.754 84.8475V84.642C263.754 83.8715 263.675 83.4614 263.447 83.1269C263.115 82.6899 262.399 82.4074 261.554 82.4074C260.146 82.4074 259.506 82.9489 259.326 84.2315H256.028C256.053 81.5598 257.973 80.1473 261.579 80.1473C263.421 80.1473 265.032 80.6363 265.953 81.4828C266.669 82.1509 267.029 83.1269 267.029 84.5915V89.9858C267.029 90.1908 267.029 90.2418 266.95 90.3948C267.105 90.3188 267.158 90.3188 267.335 90.3188L268.563 90.2928V92.6814H263.982V91.9619C263.982 91.6044 264.009 91.4508 264.137 91.0633L264.059 91.0128ZM262.011 87.1841C259.864 87.1841 258.841 87.8022 258.841 89.0867C258.841 90.0103 259.607 90.6538 260.734 90.6538C261.808 90.6538 262.778 90.1148 263.318 89.2407C263.649 88.6487 263.726 88.2902 263.726 87.2376L262.011 87.1841ZM269.679 90.2923L270.957 90.3178C271.135 90.3178 271.189 90.3443 271.341 90.3943C271.288 90.2403 271.288 90.1903 271.288 90.0088V83.1514C271.288 82.9979 271.288 82.9484 271.341 82.7934C271.188 82.8439 271.136 82.8439 270.957 82.8439L269.679 82.8709V80.5073H274.643V81.3808C274.643 81.7918 274.591 82.0749 274.412 82.6129L274.515 82.6649C275.614 80.8678 276.766 80.1988 278.633 80.1988C281.397 80.1988 283.009 81.7913 283.009 84.488V90.0098C283.009 90.1898 283.009 90.2403 282.931 90.3948C283.086 90.3438 283.137 90.3188 283.315 90.3188L284.517 90.2928V92.6814H277.89V90.2928L279.194 90.3188C279.373 90.3188 279.427 90.3443 279.578 90.3948C279.502 90.2413 279.502 90.1908 279.502 90.0098V85.1295C279.502 83.5629 278.863 82.8429 277.43 82.8429C275.717 82.8429 274.767 84 274.767 86.0286V90.0093C274.767 90.1893 274.767 90.2398 274.717 90.3943C274.87 90.3433 274.896 90.3183 275.077 90.3183L276.405 90.2923V92.6809H269.678L269.679 90.2923ZM131.511 101.962C131.511 101.681 131.511 101.655 131.587 101.399C131.331 101.448 131.281 101.448 130.999 101.448H129.207V99.7548H136.498V101.448H134.299C134.042 101.448 133.991 101.448 133.736 101.399C133.787 101.655 133.787 101.681 133.787 101.962V110.721C133.787 111.954 134.043 112.801 134.555 113.573C135.322 114.677 136.705 115.344 138.187 115.344C141.053 115.344 142.69 113.443 142.69 110.156V101.962C142.69 101.681 142.69 101.655 142.766 101.399C142.51 101.448 142.459 101.448 142.204 101.448H140.029V99.7548H147.013V101.448H145.247C144.991 101.448 144.94 101.448 144.685 101.399C144.736 101.655 144.736 101.681 144.736 101.962V109.873C144.736 112.287 144.48 113.366 143.584 114.651C142.458 116.294 140.488 117.27 138.238 117.27C135.86 117.27 133.966 116.449 132.764 114.934C131.869 113.776 131.51 112.519 131.51 110.516L131.511 101.962ZM151.531 107.383C152.196 105.508 153.552 104.609 155.674 104.609C158.284 104.609 159.845 106.022 159.845 108.334V114.781C159.845 115.063 159.845 115.113 159.768 115.372C160.024 115.294 160.076 115.294 160.357 115.294H161.764V116.887H155.599V115.294H157.186C157.442 115.294 157.492 115.294 157.748 115.372C157.697 115.113 157.697 115.063 157.697 114.781V109.077C157.697 107.331 156.826 106.38 155.189 106.279C153.092 106.176 151.685 107.666 151.685 110.08V114.781C151.685 115.037 151.685 115.113 151.609 115.372C151.865 115.294 151.916 115.294 152.198 115.294H153.809V116.887H147.311V115.294H149.025C149.306 115.294 149.331 115.294 149.587 115.372C149.536 115.113 149.536 115.063 149.536 114.781V107.048C149.536 106.741 149.536 106.663 149.587 106.407C149.307 106.484 149.255 106.484 148.948 106.484L147.311 106.509V104.917H151.558V106.022C151.558 106.355 151.506 106.662 151.379 107.356L151.531 107.383ZM166.999 114.78C166.999 115.062 166.999 115.113 166.923 115.371C167.18 115.294 167.231 115.294 167.512 115.294H169.124V116.886H162.652V115.294H164.341C164.622 115.294 164.647 115.294 164.903 115.371C164.852 115.112 164.852 115.063 164.852 114.78V107.047C164.852 106.74 164.852 106.662 164.903 106.407C164.647 106.483 164.571 106.483 164.291 106.483L162.653 106.508V104.917H167.001L166.999 114.78ZM166.975 99.7543V102.092H164.621V99.7543H166.975ZM178.226 107.896C178.415 107.393 178.62 106.896 178.841 106.407C178.329 106.483 178.226 106.483 177.664 106.483L176.563 106.508V104.917H182.269V106.508L180.888 106.457L176.743 116.885H174.057L169.836 106.457L168.455 106.508V104.917H174.288V106.508L173.212 106.483C172.676 106.483 172.523 106.483 172.037 106.407C172.252 106.89 172.456 107.378 172.65 107.87L174.34 112.339C174.876 113.726 174.979 114.008 175.362 115.293H175.465C175.849 114.008 175.952 113.726 176.489 112.339L178.226 107.896ZM193.85 113.188C193.466 115.627 191.317 117.194 188.325 117.194C184.591 117.194 182.211 114.781 182.211 111.004C182.211 107.048 184.54 104.609 188.325 104.609C191.09 104.609 193.058 106.022 193.696 108.461C193.954 109.387 194.003 109.874 194.003 111.388H184.871C184.666 111.388 184.615 111.388 184.437 111.312C184.488 113.727 186.099 115.499 188.299 115.499C190.219 115.499 191.549 114.652 191.88 113.188L193.85 113.188ZM191.242 109.822C191.522 109.822 191.575 109.822 191.805 109.9C191.676 107.691 190.348 106.278 188.275 106.278C186.227 106.278 184.769 107.665 184.488 109.9C184.821 109.822 184.924 109.822 185.307 109.822H191.242ZM199.395 107.742C199.829 105.688 201.159 104.608 203.283 104.608C203.565 104.608 203.873 104.658 204.178 104.736V106.662C203.742 106.431 203.513 106.354 203.028 106.354C200.851 106.354 199.521 107.998 199.521 110.72V114.78C199.521 115.061 199.521 115.112 199.446 115.37C199.675 115.293 199.752 115.293 200.036 115.293H202.08V116.886H195.148V115.293H196.835C197.118 115.293 197.17 115.293 197.425 115.37C197.35 115.112 197.35 115.062 197.35 114.78V107.046C197.35 106.739 197.35 106.661 197.425 106.405C197.143 106.482 197.069 106.482 196.786 106.482L195.149 106.508V104.916H199.395V106.175C199.395 106.276 199.369 106.559 199.319 106.944C199.319 107.099 199.294 107.382 199.267 107.714L199.395 107.742ZM214.891 104.917V108.821H213.154C213.154 107.254 211.975 106.279 209.98 106.279C208.242 106.279 207.166 106.998 207.166 108.128C207.166 108.513 207.32 108.872 207.602 109.104C207.934 109.387 208.269 109.514 209.291 109.643L210.775 109.873C212.311 110.104 213.282 110.412 213.895 110.901C214.612 111.465 215.022 112.364 215.022 113.341C215.022 115.731 213.207 117.194 210.239 117.194C208.396 117.194 207.246 116.577 206.53 115.218L206.427 115.242C206.53 115.68 206.556 115.885 206.556 116.141V116.887H204.844V112.751H206.556C206.659 114.445 208.015 115.498 210.062 115.498C210.496 115.498 211.314 115.344 211.774 115.14C212.364 114.881 212.799 114.266 212.799 113.675C212.799 112.956 212.517 112.468 211.979 112.209C211.597 112.031 211.138 111.928 210.063 111.774L208.733 111.62C205.994 111.208 204.945 110.285 204.945 108.204C204.945 107.022 205.484 106.071 206.507 105.456C207.503 104.84 208.734 104.532 210.01 104.608C211.597 104.711 212.542 105.225 213.184 106.431L213.311 106.406C213.184 105.995 213.158 105.789 213.158 105.584V104.916H214.891V104.917ZM220.667 114.78C220.667 115.062 220.667 115.113 220.59 115.371C220.845 115.294 220.899 115.294 221.18 115.294H222.79V116.886H216.318V115.294H218.008C218.288 115.294 218.313 115.294 218.571 115.371C218.52 115.112 218.52 115.063 218.52 114.78V107.047C218.52 106.74 218.52 106.662 218.571 106.407C218.313 106.483 218.239 106.483 217.958 106.483L216.319 106.508V104.917H220.668L220.667 114.78ZM220.642 99.7543V102.092H218.287V99.7543H220.642ZM231.178 113.188C231.178 114.703 231.05 115.319 230.639 115.962C230.051 116.861 229.337 117.194 227.852 117.194C226.88 117.194 226.19 116.988 225.627 116.501C224.886 115.91 224.63 115.14 224.63 113.573V107.048C224.63 106.741 224.63 106.662 224.704 106.407C224.424 106.484 224.347 106.484 224.091 106.484L222.274 106.509V104.917H224.117C224.398 104.917 224.451 104.917 224.705 104.993C224.631 104.736 224.631 104.686 224.631 104.403V102.245L226.805 101.475V104.403C226.805 104.685 226.805 104.736 226.727 104.993C226.985 104.917 227.034 104.917 227.316 104.917H230.694V106.509L227.342 106.484C227.06 106.484 226.985 106.457 226.728 106.407C226.806 106.663 226.806 106.741 226.806 107.023V113.573C226.806 114.445 226.882 114.78 227.111 115.063C227.341 115.371 227.727 115.525 228.162 115.525C228.723 115.525 229.183 115.217 229.337 114.703C229.439 114.395 229.465 114.008 229.515 113.188H231.178ZM232.556 106.457L231.25 106.509V104.917H237.082V106.509L235.93 106.484C235.369 106.484 235.214 106.484 234.702 106.432C235.035 107.047 235.063 107.151 235.419 107.973L237.209 112.133C237.748 113.366 237.877 113.674 238.258 114.856H238.361C238.745 113.674 238.822 113.442 239.385 112.133L241.097 107.946C241.433 107.176 241.483 107.047 241.791 106.432C241.28 106.484 241.126 106.484 240.564 106.484L239.435 106.509V104.917H245.038V106.509L243.811 106.457L238.847 118.041C238.105 119.788 237.644 120.533 237.16 120.918C236.648 121.303 235.855 121.509 234.933 121.509C234.32 121.509 233.757 121.457 233.346 121.354V119.736C233.602 119.788 234.139 119.813 234.447 119.813C235.675 119.813 235.93 119.607 236.57 118.246L237.208 116.911L232.556 106.457ZM118.562 112.488V112.489C110.79 117.958 91.3069 123.571 88.0418 113.748C82.1176 118.224 78.5705 130.423 77.061 136.481C75.5519 130.423 72.0049 118.225 66.0812 113.749C62.8146 123.572 43.3338 117.958 35.5629 112.49H35.5609C34.7321 102.999 39.6289 83.2514 49.7341 85.326C48.8356 77.9411 40.096 68.7597 35.6231 64.4149V64.4129C41.6051 66.132 53.8957 69.1397 60.7173 66.2295C53.8743 58.4796 68.4579 44.3484 77.061 40.3252C85.6641 44.3484 100.249 58.4801 93.4032 66.23C100.224 69.1417 112.516 66.1325 118.498 64.4124L118.5 64.4139C114.027 68.7557 105.286 77.9406 104.388 85.324C114.494 83.2499 119.391 102.996 118.562 112.488ZM77.0615 44.5784C70.2558 48.0676 63.2419 54.2974 62.1079 61.8688L62.1173 61.8693C70.6672 58.9752 75.4269 70.8223 77.062 77.4466C78.6961 70.8223 83.4553 58.9752 92.0076 61.8693L92.0146 61.8688C90.8801 54.2974 83.8657 48.0676 77.0615 44.5784ZM114.866 110.314C115.258 102.653 113.39 93.4384 107.426 88.6692L107.423 88.6752C105.644 97.5537 93.0416 95.7686 86.5083 93.8775C91.408 98.6132 99.2481 108.675 92.4758 114.664L92.4748 114.668C99.5719 117.47 108.452 114.484 114.866 110.314ZM39.2568 110.312V110.314C45.6726 114.485 54.5526 117.47 61.6477 114.668L61.6452 114.663C54.8768 108.676 62.715 98.6127 67.6142 93.8765C61.0809 95.7681 48.479 97.5537 46.6995 88.6742L46.696 88.6687C40.7335 93.4369 38.8678 102.654 39.2568 110.312ZM77.0615 90.2573C70.2558 94.1075 63.2419 100.982 62.1084 109.332H62.1178C70.6677 106.141 75.4274 119.214 77.0625 126.523C78.6966 119.214 83.4558 106.141 92.0081 109.332H92.0151C90.8801 100.982 83.8657 94.1075 77.0615 90.2573ZM75.4628 87.4751C75.544 79.6317 73.125 70.0977 66.4851 64.9375L66.4787 64.942C64.9591 73.9704 51.3019 71.5763 44.1809 69.3442C49.6668 74.416 58.5613 85.094 51.533 90.9298L51.5315 90.9383C59.3029 94.1285 68.7392 91.4643 75.4628 87.4751ZM78.6597 87.4751L78.6632 87.4761C85.3842 91.4678 94.8216 94.129 102.593 90.9388L102.591 90.9298C95.5627 85.0955 104.457 74.4185 109.944 69.3442C102.823 71.5778 89.1643 73.9729 87.6458 64.942L87.6423 64.938C81 70.0992 78.5795 79.6332 78.6597 87.4751Z" fill="black"/>
</g>
<defs>
<clipPath id="clip0_3412_3577">
<rect width="254" height="97.005" fill="white" transform="translate(33 38.9976)"/>
</clipPath>
</defs>
</svg>
