<svg width="320" height="175" viewBox="0 0 320 175" fill="none" xmlns="http://www.w3.org/2000/svg">
<rect x="0.818824" y="0.818824" width="318.362" height="173.362" rx="2.45647" fill="white"/>
<rect x="0.818824" y="0.818824" width="318.362" height="173.362" rx="2.45647" stroke="#E0E0E0" stroke-width="1.63765"/>
<g clip-path="url(#clip0_3412_3581)">
<path d="M277.457 108.173V97.2582C277.457 95.8879 276.69 94.754 274.824 94.754C273.771 94.754 273.005 95.0374 272.382 95.6517C272.573 96.1715 272.621 96.6913 272.621 97.778V108.22H269.079V97.2582C269.079 95.9824 268.744 94.6595 266.445 94.6595C265.296 94.6595 264.866 94.8484 264.243 95.1319V108.22H260.701V93.7616C262.041 93.1947 263.956 92.4858 266.638 92.4858C268.84 92.4858 270.276 93.0056 271.185 93.7616C272.238 93.0056 273.626 92.4858 275.637 92.4858C279.372 92.4858 280.999 94.6121 280.999 97.2582V108.22H277.457V108.173Z" fill="#1B2A6B"/>
<path d="M240.116 108.173V97.4467C240.116 95.9347 239.494 94.8479 237.483 94.8479C236.382 94.8479 235.616 95.1313 234.85 95.6039V108.173H231.307V87.5713H234.85V93.2886C235.759 92.8633 237.1 92.5798 238.344 92.5798C242.222 92.5798 243.61 94.8951 243.61 97.2104V108.173H240.116Z" fill="#1B2A6B"/>
<path d="M196.983 90.5483C195.643 90.5483 194.924 89.6979 194.924 88.7055C194.924 87.7133 195.643 86.8628 196.983 86.8628C198.275 86.8628 199.041 87.7133 199.041 88.7055C199.041 89.6979 198.275 90.5483 196.983 90.5483Z" fill="#1B2A6B"/>
<path d="M210.1 108.173V97.2582C210.1 95.9824 209.574 94.6595 207.324 94.6595C206.174 94.6595 205.6 94.8484 204.929 95.1319V108.22H201.387V93.7616C202.727 93.1947 204.834 92.4858 207.466 92.4858C212.111 92.4858 213.642 94.7067 213.642 97.1637V108.173H210.1Z" fill="#1B2A6B"/>
<path d="M195.211 108.172V92.7688H198.755V108.172H195.211Z" fill="#1B2A6B"/>
<path d="M190.569 108.362C187.505 108.362 186.259 106.661 186.259 104.157V94.9904H184.537V92.7696H186.259V89.6984L189.803 88.7061V92.7696H192.292V94.9904H189.803V104.157C189.803 105.527 190.569 105.953 191.527 105.953C191.814 105.953 192.244 105.953 192.58 105.905V108.221C192.244 108.268 191.334 108.362 190.569 108.362Z" fill="#1B2A6B"/>
<path d="M181.136 108.362C178.072 108.362 176.827 106.661 176.827 104.157V94.9904H175.104V92.7696H176.827V89.6984L180.37 88.7061V92.7696H182.859V94.9904H180.37V104.157C180.37 105.527 181.136 105.953 182.092 105.953C182.38 105.953 182.811 105.953 183.147 105.905V108.221C182.811 108.268 181.901 108.362 181.136 108.362Z" fill="#1B2A6B"/>
<path d="M155.379 108.172L147.959 95.7927C147.48 95.0367 147.145 94.2807 146.762 93.3829H146.714C146.81 94.3751 146.906 95.1784 146.906 95.8871V108.172H143.459V88.5161H147.097L153.991 100.093C154.374 100.801 154.757 101.416 155.092 102.313H155.14C155.044 101.321 155.044 100.659 155.044 99.9507V88.5161H158.491V108.172H155.379Z" fill="#1B2A6B"/>
<path d="M252.086 92.4858C249.645 92.4858 247.776 93.1947 246.724 93.6199L247.537 95.7462C248.447 95.2736 249.932 94.754 251.415 94.754C253.283 94.754 254.479 95.2736 254.479 97.2582V98.1087C254.192 98.0614 253.139 97.8725 252.229 97.8725C248.638 97.8725 245.719 99.7153 245.719 103.354C245.719 106.33 247.73 108.551 252.182 108.551C254.623 108.551 256.586 108.079 257.926 107.464V97.778C257.974 93.8561 255.341 92.4858 252.086 92.4858ZM254.527 106.236C254.097 106.425 253.235 106.661 252.421 106.661C250.553 106.661 249.261 105.48 249.261 103.354C249.261 101.369 250.362 99.9515 252.516 99.9515C253.522 99.9515 254.145 100.141 254.479 100.188V106.236H254.527Z" fill="#1B2A6B"/>
<path d="M223.313 92.4858C218.286 92.4858 215.797 95.6517 215.797 100.613C215.797 105.433 218.286 108.268 222.069 108.268C223.457 108.268 224.51 108.031 225.133 107.701V108.693C225.133 110.772 224.032 112.095 221.446 112.095C219.723 112.095 218.622 111.622 217.665 111.244L216.659 113.418C217.808 114.032 219.675 114.552 222.069 114.552C225.947 114.552 228.627 112.426 228.627 108.362V93.5727C227.526 93.0056 225.659 92.4858 223.313 92.4858ZM225.133 105.48C224.607 105.763 223.936 106 223.122 106C220.633 106 219.532 104.157 219.532 100.613C219.532 96.9275 220.681 94.6595 223.313 94.6595C224.08 94.6595 224.653 94.7067 225.181 94.9902V105.48H225.133Z" fill="#1B2A6B"/>
<path d="M167.396 92.4858C162.991 92.4858 160.789 95.7934 160.789 100.518C160.789 105.149 162.991 108.504 167.396 108.504C171.8 108.504 174.002 105.196 174.002 100.518C174.002 95.7934 171.8 92.4858 167.396 92.4858ZM167.587 106.378C165.145 106.378 164.763 103.259 164.763 100.518C164.763 97.7307 165.145 94.6121 167.587 94.6121C170.029 94.6121 170.412 97.6835 170.412 100.518C170.459 103.259 170.029 106.378 167.587 106.378Z" fill="#1B2A6B"/>
<path d="M250.266 68.813C248.974 68.813 248.687 69.4271 248.687 70.3722V70.8446H250.553V72.7347H248.687V81.3815H245.862V72.7347H244.713V70.8446H245.862V70.0886C245.862 67.9624 247.25 66.8284 249.597 66.8284C250.075 66.8284 250.411 66.8284 250.841 66.8756V68.7656H250.266V68.813Z" fill="#1B2A6B"/>
<path d="M223.794 85.6341C222.213 85.6341 220.969 85.3033 220.155 84.8781L220.778 83.2243C221.399 83.5079 222.213 83.7913 223.41 83.7913C225.182 83.7913 225.756 82.9881 225.756 81.6178V80.9563C225.421 81.1454 224.702 81.4288 223.554 81.4288C220.921 81.4288 219.771 80.153 219.771 78.0268V70.8447H222.596V77.8378C222.596 78.7828 222.932 79.5388 224.32 79.5388C224.989 79.5388 225.421 79.3498 225.756 79.2081V70.8447H228.58V81.0035C228.58 84.3111 226.57 85.6341 223.794 85.6341Z" fill="#1B2A6B"/>
<path d="M216.227 81.5236C214.168 81.5236 213.115 80.4368 213.115 78.6414V72.7351H211.918V70.845H213.115V68.6715L215.94 67.9155V70.845H217.664V72.7351H215.94V78.4051C215.94 79.3501 216.418 79.6337 217.089 79.6337C217.423 79.6337 217.71 79.6337 218.046 79.5863V81.3347C217.807 81.3819 217.232 81.5236 216.227 81.5236Z" fill="#1B2A6B"/>
<path d="M207.18 81.3816V70.8447H210.004V81.3816H207.18Z" fill="#1B2A6B"/>
<path d="M201.338 81.6173C199.95 81.6173 198.849 81.2866 198.035 80.8613L198.706 79.1129C199.281 79.3965 199.998 79.7272 200.908 79.7272C201.961 79.7272 202.584 79.3965 202.584 78.5933C202.584 77.8372 202.105 77.5064 200.86 77.034C198.801 76.2308 198.371 75.0022 198.371 73.8209C198.371 72.1199 199.663 70.7024 202.009 70.7024C203.301 70.7024 204.307 71.0331 205.025 71.4584L204.259 73.1122C203.924 72.9232 203.158 72.5451 202.344 72.5451C201.386 72.5451 200.908 72.9704 200.908 73.6319C200.908 74.3879 201.674 74.6714 202.632 75.0495C204.786 75.8527 205.264 77.0812 205.264 78.4043C205.264 80.247 203.685 81.6173 201.338 81.6173Z" fill="#1B2A6B"/>
<path d="M197.125 72.7342C196.934 72.687 196.311 72.5925 195.833 72.5925C195.355 72.5925 194.923 72.6397 194.636 72.7342V81.381H191.812V71.4584C192.243 71.2694 193.87 70.7024 195.737 70.7024C196.838 70.7024 197.125 70.7496 197.509 70.8441L197.125 72.7342Z" fill="#1B2A6B"/>
<path d="M167.444 69.569C166.391 69.569 165.912 68.9547 165.912 68.1987C165.912 67.4427 166.391 66.8284 167.444 66.8284C168.402 66.8284 168.976 67.4427 168.976 68.1987C168.976 68.9547 168.402 69.569 167.444 69.569Z" fill="#1B2A6B"/>
<path d="M176.587 81.3816H173.906L170.268 70.8447H173.284L174.672 75.806C174.815 76.2785 175.151 77.5071 175.294 78.1212H175.342C175.39 77.5071 175.773 76.2785 175.917 75.806L177.353 70.8447H180.177L176.587 81.3816Z" fill="#1B2A6B"/>
<path d="M165.961 81.3816V70.8447H168.786V81.3816H165.961Z" fill="#1B2A6B"/>
<path d="M208.664 69.569C207.611 69.569 207.131 68.9547 207.131 68.1987C207.131 67.4427 207.611 66.8284 208.664 66.8284C209.622 66.8284 210.195 67.4427 210.195 68.1987C210.148 68.9547 209.622 69.569 208.664 69.569Z" fill="#1B2A6B"/>
<path d="M161.125 81.3817V73.9633C161.125 73.2073 160.79 72.4513 159.401 72.4513C158.731 72.4513 158.3 72.593 157.965 72.7347V81.3817H155.141V71.4591C156.337 70.9865 157.774 70.6558 159.545 70.6558C162.8 70.6558 163.949 72.2151 163.949 74.0105V81.4288H161.125V81.3817Z" fill="#1B2A6B"/>
<path d="M148.247 81.6173C145.471 81.6173 143.412 80.1998 143.412 77.412V67.9619H146.38V77.3647C146.38 78.6405 147.05 79.3493 148.247 79.3493C149.396 79.3493 150.114 78.6878 150.114 77.3647V67.9619H153.082V77.3647C153.082 80.1525 151.024 81.6173 148.247 81.6173Z" fill="#1B2A6B"/>
<path d="M238.92 70.6558C235.761 70.6558 234.229 72.9711 234.229 76.0896C234.229 79.3025 235.761 81.6179 238.92 81.6179C242.08 81.6179 243.611 79.3025 243.611 76.0896C243.611 72.9711 242.08 70.6558 238.92 70.6558ZM238.92 79.7751C237.485 79.7751 237.15 78.1213 237.15 76.0896C237.15 74.105 237.485 72.4985 238.92 72.4985C240.356 72.4985 240.74 74.1524 240.74 76.0896C240.692 78.1213 240.356 79.7751 238.92 79.7751Z" fill="#1B2A6B"/>
<path d="M189.994 75.9006C189.994 72.5458 188.27 70.6558 185.351 70.6558C182.382 70.6558 180.611 72.6875 180.611 76.0896C180.611 79.6334 182.622 81.6179 185.781 81.6179C187.457 81.6179 188.702 81.2871 189.564 80.8147L188.893 78.9718C188.127 79.3027 187.314 79.5861 186.068 79.5861C184.776 79.5861 183.579 79.0191 183.388 76.9873H189.994V75.9006ZM187.314 75.1918H183.292C183.292 73.16 184.105 72.404 185.303 72.404C186.404 72.404 187.314 73.0655 187.314 75.0501V75.1918Z" fill="#1B2A6B"/>
<path d="M128.38 43.3916H39V131.608H128.38V43.3916Z" fill="url(#paint0_radial_3412_3581)"/>
<path d="M99.3702 64.6075C97.3594 63.5207 95.4445 62.6702 92.8594 62.0559V67.3007C95.1572 67.8205 97.3594 68.6237 99.3702 69.5214V64.6075Z" fill="white"/>
<path d="M90.5134 81.8059C89.891 81.8059 89.3644 82.3257 89.3644 82.9872L89.0293 93.7131H92.0932L91.6623 82.9872C91.6623 82.3257 91.2315 81.8059 90.5134 81.8059Z" fill="white"/>
<path d="M93.2411 111.337C89.9857 111.337 87.6877 110.581 84.7196 109.116C81.56 107.51 78.0174 106.14 73.5173 106.14C69.3044 106.14 64.8043 107.604 61.3574 112.66C65.4745 110.156 69.2565 109.353 72.4641 109.353C75.8631 109.353 78.4961 110.203 81.1291 111.574C84.1452 113.133 86.7303 114.219 90.5123 114.219C94.1507 114.219 98.2678 112.849 101.81 108.266C98.9859 110.628 95.9699 111.337 93.2411 111.337Z" fill="white"/>
<path d="M75.241 104.392C78.1135 104.392 81.4647 105.195 85.2467 107.227V96.5953L83.6669 94.6581V79.9631L86.7307 75.2852L85.4382 79.7741C86.2999 79.6796 87.1616 79.585 88.119 79.585C91.1351 79.585 93.9117 80.1048 96.2575 81.0025L99.3215 78.2149V70.6547C97.3107 69.757 95.1085 69.001 92.8107 68.434C91.4224 68.1031 89.9382 67.8669 88.4063 67.6779V61.1574C86.7786 60.9212 85.103 60.8267 83.3796 60.8267C81.7518 60.8267 80.1242 60.9212 78.5922 61.1101V67.3471C77.1081 67.5362 75.6241 67.8197 74.2358 68.1505V62.0079C71.7463 62.6694 69.4005 63.6616 67.2463 64.8429V77.6478L70.2144 80.4356L69.3527 94.7998L66.959 97.1623V105.478L67.7729 106.329C69.7836 105.242 72.2729 104.392 75.241 104.392ZM74.8103 82.9871C74.8103 82.3256 75.3369 81.8059 75.9593 81.8059C76.5815 81.8059 77.1081 82.3256 77.1081 82.9871L77.4912 93.713H74.4273L74.8103 82.9871Z" fill="white"/>
</g>
<defs>
<radialGradient id="paint0_radial_3412_3581" cx="0" cy="0" r="1" gradientUnits="userSpaceOnUse" gradientTransform="translate(38.2156 35.4286) scale(113.08 111.608)">
<stop stop-color="#009BBD"/>
<stop offset="0.1735" stop-color="#009BBD"/>
<stop offset="1" stop-color="#1B2A6B"/>
</radialGradient>
<clipPath id="clip0_3412_3581">
<rect width="242" height="88.2168" fill="white" transform="translate(39 43.3916)"/>
</clipPath>
</defs>
</svg>
