<svg width="242" height="89" viewBox="0 0 242 89" fill="none" xmlns="http://www.w3.org/2000/svg">
  <g clip-path="url(#clip0_3412_3582)">
    <path d="M238.457 64.7816V53.8666C238.457 52.4963 237.69 51.3624 235.824 51.3624C234.771 51.3624 234.005 51.6458 233.382 52.2601C233.573 52.7799 233.621 53.2997 233.621 54.3864V64.8287H230.079V53.8666C230.079 52.5908 229.744 51.2679 227.445 51.2679C226.296 51.2679 225.866 51.4568 225.243 51.7403V64.8287H221.701V50.37C223.041 49.8031 224.956 49.0942 227.638 49.0942C229.84 49.0942 231.276 49.614 232.185 50.37C233.238 49.614 234.626 49.0942 236.637 49.0942C240.372 49.0942 241.999 51.2205 241.999 53.8666V64.8287H238.457V64.7816Z" fill="#1B2A6B"/>
    <path d="M201.116 64.781V54.0551C201.116 52.5431 200.494 51.4563 198.483 51.4563C197.382 51.4563 196.616 51.7397 195.85 52.2123V64.781H192.307V44.1797H195.85V49.897C196.759 49.4717 198.1 49.1882 199.344 49.1882C203.222 49.1882 204.61 51.5035 204.61 53.8188V64.781H201.116Z" fill="#1B2A6B"/>
    <path d="M157.983 47.1567C156.643 47.1567 155.924 46.3063 155.924 45.3139C155.924 44.3217 156.643 43.4712 157.983 43.4712C159.275 43.4712 160.041 44.3217 160.041 45.3139C160.041 46.3063 159.275 47.1567 157.983 47.1567Z" fill="#1B2A6B"/>
    <path d="M171.1 64.7816V53.8666C171.1 52.5908 170.574 51.2679 168.324 51.2679C167.174 51.2679 166.6 51.4568 165.929 51.7403V64.8287H162.387V50.37C163.727 49.8031 165.834 49.0942 168.466 49.0942C173.111 49.0942 174.642 51.3151 174.642 53.7721V64.7816H171.1Z" fill="#1B2A6B"/>
    <path d="M156.211 64.7808V49.3772H159.755V64.7808H156.211Z" fill="#1B2A6B"/>
    <path d="M151.569 64.9707C148.505 64.9707 147.259 63.2696 147.259 60.7654V51.5988H145.537V49.378H147.259V46.3068L150.803 45.3145V49.378H153.292V51.5988H150.803V60.7654C150.803 62.1357 151.569 62.561 152.527 62.561C152.814 62.561 153.244 62.561 153.58 62.5136V64.829C153.244 64.8762 152.334 64.9707 151.569 64.9707Z" fill="#1B2A6B"/>
    <path d="M142.136 64.9707C139.072 64.9707 137.827 63.2696 137.827 60.7654V51.5988H136.104V49.378H137.827V46.3068L141.37 45.3145V49.378H143.859V51.5988H141.37V60.7654C141.37 62.1357 142.136 62.561 143.092 62.561C143.38 62.561 143.811 62.561 144.147 62.5136V64.829C143.811 64.8762 142.901 64.9707 142.136 64.9707Z" fill="#1B2A6B"/>
    <path d="M116.379 64.7807L108.959 52.4011C108.48 51.6451 108.145 50.8891 107.762 49.9913H107.714C107.81 50.9835 107.906 51.7868 107.906 52.4955V64.7807H104.459V45.1245H108.097L114.991 56.7009C115.374 57.4096 115.757 58.0239 116.092 58.9216H116.14C116.044 57.9294 116.044 57.2679 116.044 56.5591V45.1245H119.491V64.7807H116.379Z" fill="#1B2A6B"/>
    <path d="M213.086 49.0942C210.645 49.0942 208.776 49.8031 207.724 50.2283L208.537 52.3546C209.447 51.882 210.932 51.3624 212.415 51.3624C214.283 51.3624 215.479 51.882 215.479 53.8666V54.7171C215.192 54.6698 214.139 54.4809 213.229 54.4809C209.638 54.4809 206.719 56.3237 206.719 59.962C206.719 62.9387 208.73 65.1595 213.182 65.1595C215.623 65.1595 217.586 64.687 218.926 64.0727V54.3864C218.974 50.4645 216.341 49.0942 213.086 49.0942ZM215.527 62.8443C215.097 63.0332 214.235 63.2694 213.421 63.2694C211.553 63.2694 210.261 62.0881 210.261 59.962C210.261 57.9774 211.362 56.5599 213.516 56.5599C214.522 56.5599 215.145 56.7489 215.479 56.7961V62.8443H215.527Z" fill="#1B2A6B"/>
    <path d="M184.313 49.0942C179.286 49.0942 176.797 52.2601 176.797 57.2214C176.797 62.041 179.286 64.8759 183.069 64.8759C184.457 64.8759 185.51 64.6397 186.133 64.309V65.3012C186.133 67.3803 185.032 68.7033 182.446 68.7033C180.723 68.7033 179.622 68.2308 178.665 67.8528L177.659 70.0263C178.808 70.6405 180.675 71.1603 183.069 71.1603C186.947 71.1603 189.627 69.034 189.627 64.9704V50.1811C188.526 49.614 186.659 49.0942 184.313 49.0942ZM186.133 62.0881C185.607 62.3717 184.936 62.6079 184.122 62.6079C181.633 62.6079 180.532 60.7652 180.532 57.2214C180.532 53.5359 181.681 51.2679 184.313 51.2679C185.08 51.2679 185.653 51.3151 186.181 51.5986V62.0881H186.133Z" fill="#1B2A6B"/>
    <path d="M128.396 49.0942C123.991 49.0942 121.789 52.4018 121.789 57.1269C121.789 61.7574 123.991 65.1123 128.396 65.1123C132.8 65.1123 135.002 61.8047 135.002 57.1269C135.002 52.4018 132.8 49.0942 128.396 49.0942ZM128.587 62.986C126.145 62.986 125.763 59.8675 125.763 57.1269C125.763 54.3391 126.145 51.2205 128.587 51.2205C131.029 51.2205 131.412 54.2919 131.412 57.1269C131.459 59.8675 131.029 62.986 128.587 62.986Z" fill="#1B2A6B"/>
    <path d="M211.266 25.4214C209.974 25.4214 209.687 26.0355 209.687 26.9806V27.453H211.553V29.3431H209.687V37.9899H206.862V29.3431H205.713V27.453H206.862V26.697C206.862 24.5708 208.25 23.4368 210.597 23.4368C211.075 23.4368 211.411 23.4368 211.841 23.484V25.374H211.266V25.4214Z" fill="#1B2A6B"/>
    <path d="M184.793 42.2425C183.213 42.2425 181.969 41.9117 181.155 41.4864L181.778 39.8327C182.399 40.1163 183.213 40.3997 184.41 40.3997C186.182 40.3997 186.756 39.5965 186.756 38.2262V37.5647C186.421 37.7538 185.702 38.0372 184.554 38.0372C181.921 38.0372 180.771 36.7614 180.771 34.6352V27.4531H183.596V34.4462C183.596 35.3912 183.932 36.1472 185.32 36.1472C185.989 36.1472 186.421 35.9582 186.756 35.8165V27.4531H189.58V37.6119C189.58 40.9195 187.57 42.2425 184.793 42.2425Z" fill="#1B2A6B"/>
    <path d="M177.227 38.132C175.168 38.132 174.115 37.0452 174.115 35.2498V29.3435H172.918V27.4534H174.115V25.2799L176.94 24.5239V27.4534H178.664V29.3435H176.94V35.0135C176.94 35.9585 177.418 36.2421 178.089 36.2421C178.423 36.2421 178.71 36.2421 179.046 36.1947V37.9431C178.807 37.9903 178.232 38.132 177.227 38.132Z" fill="#1B2A6B"/>
    <path d="M168.18 37.99V27.4531H171.004V37.99H168.18Z" fill="#1B2A6B"/>
    <path d="M162.338 38.2257C160.95 38.2257 159.849 37.895 159.035 37.4697L159.706 35.7213C160.281 36.0049 160.998 36.3356 161.908 36.3356C162.961 36.3356 163.584 36.0049 163.584 35.2017C163.584 34.4456 163.105 34.1148 161.86 33.6424C159.801 32.8392 159.371 31.6106 159.371 30.4293C159.371 28.7283 160.663 27.3108 163.009 27.3108C164.301 27.3108 165.307 27.6415 166.025 28.0668L165.259 29.7206C164.924 29.5316 164.158 29.1535 163.344 29.1535C162.386 29.1535 161.908 29.5788 161.908 30.2403C161.908 30.9963 162.674 31.2798 163.632 31.6579C165.786 32.4611 166.264 33.6896 166.264 35.0127C166.264 36.8554 164.685 38.2257 162.338 38.2257Z" fill="#1B2A6B"/>
    <path d="M158.125 29.3426C157.934 29.2954 157.311 29.2009 156.833 29.2009C156.355 29.2009 155.923 29.2481 155.636 29.3426V37.9894H152.812V28.0668C153.243 27.8778 154.87 27.3108 156.737 27.3108C157.838 27.3108 158.125 27.358 158.509 27.4525L158.125 29.3426Z" fill="#1B2A6B"/>
    <path d="M128.444 26.1774C127.391 26.1774 126.912 25.5631 126.912 24.8071C126.912 24.0511 127.391 23.4368 128.444 23.4368C129.402 23.4368 129.976 24.0511 129.976 24.8071C129.976 25.5631 129.402 26.1774 128.444 26.1774Z" fill="#1B2A6B"/>
    <path d="M137.587 37.99H134.906L131.268 27.4531H134.284L135.672 32.4144C135.815 32.8869 136.151 34.1155 136.294 34.7296H136.342C136.39 34.1155 136.773 32.8869 136.917 32.4144L138.353 27.4531H141.177L137.587 37.99Z" fill="#1B2A6B"/>
    <path d="M126.961 37.99V27.4531H129.786V37.99H126.961Z" fill="#1B2A6B"/>
    <path d="M169.664 26.1774C168.611 26.1774 168.131 25.5631 168.131 24.8071C168.131 24.0511 168.611 23.4368 169.664 23.4368C170.622 23.4368 171.195 24.0511 171.195 24.8071C171.148 25.5631 170.622 26.1774 169.664 26.1774Z" fill="#1B2A6B"/>
    <path d="M122.125 37.9901V30.5717C122.125 29.8157 121.79 29.0597 120.401 29.0597C119.731 29.0597 119.3 29.2014 118.965 29.3431V37.9901H116.141V28.0675C117.337 27.5949 118.774 27.2642 120.545 27.2642C123.8 27.2642 124.949 28.8235 124.949 30.6189V38.0372H122.125V37.9901Z" fill="#1B2A6B"/>
    <path d="M109.247 38.2257C106.471 38.2257 104.412 36.8082 104.412 34.0204V24.5703H107.38V33.9731C107.38 35.2489 108.05 35.9577 109.247 35.9577C110.396 35.9577 111.114 35.2962 111.114 33.9731V24.5703H114.082V33.9731C114.082 36.7609 112.024 38.2257 109.247 38.2257Z" fill="#1B2A6B"/>
    <path d="M199.92 27.2642C196.761 27.2642 195.229 29.5795 195.229 32.698C195.229 35.9109 196.761 38.2263 199.92 38.2263C203.08 38.2263 204.611 35.9109 204.611 32.698C204.611 29.5795 203.08 27.2642 199.92 27.2642ZM199.92 36.3835C198.485 36.3835 198.15 34.7297 198.15 32.698C198.15 30.7134 198.485 29.1069 199.92 29.1069C201.356 29.1069 201.74 30.7608 201.74 32.698C201.692 34.7297 201.356 36.3835 199.92 36.3835Z" fill="#1B2A6B"/>
    <path d="M150.994 32.509C150.994 29.1542 149.27 27.2642 146.351 27.2642C143.382 27.2642 141.611 29.2959 141.611 32.698C141.611 36.2418 143.622 38.2263 146.781 38.2263C148.457 38.2263 149.702 37.8955 150.564 37.4231L149.893 35.5802C149.127 35.9111 148.314 36.1945 147.068 36.1945C145.776 36.1945 144.579 35.6275 144.388 33.5957H150.994V32.509ZM148.314 31.8002H144.292C144.292 29.7684 145.105 29.0124 146.303 29.0124C147.404 29.0124 148.314 29.6739 148.314 31.6585V31.8002Z" fill="#1B2A6B"/>
    <path d="M89.3797 0H0V88.2168H89.3797V0Z" fill="url(#paint0_radial_3412_3582)"/>
    <path d="M60.3702 21.2159C58.3594 20.1291 56.4445 19.2786 53.8594 18.6643V23.9091C56.1572 24.4289 58.3594 25.2321 60.3702 26.1298V21.2159Z" fill="white"/>
    <path d="M51.5134 38.4143C50.891 38.4143 50.3644 38.9341 50.3644 39.5956L50.0293 50.3215H53.0932L52.6623 39.5956C52.6623 38.9341 52.2315 38.4143 51.5134 38.4143Z" fill="white"/>
    <path d="M54.2411 67.9457C50.9857 67.9457 48.6877 67.1897 45.7196 65.7249C42.56 64.1183 39.0174 62.748 34.5173 62.748C30.3044 62.748 25.8043 64.2129 22.3574 69.2687C26.4745 66.7644 30.2565 65.9611 33.4641 65.9611C36.8631 65.9611 39.4961 66.8116 42.1291 68.1819C45.1452 69.7411 47.7303 70.8279 51.5123 70.8279C55.1507 70.8279 59.2678 69.4577 62.8105 64.8744C59.9859 67.2369 56.9699 67.9457 54.2411 67.9457Z" fill="white"/>
    <path d="M36.241 61C39.1135 61 42.4647 61.8033 46.2467 63.8351V53.2037L44.6669 51.2665V36.5715L47.7307 31.8936L46.4382 36.3825C47.2999 36.288 48.1616 36.1934 49.119 36.1934C52.1351 36.1934 54.9117 36.7132 57.2575 37.6109L60.3215 34.8233V27.2631C58.3107 26.3654 56.1085 25.6094 53.8107 25.0424C52.4224 24.7115 50.9382 24.4753 49.4063 24.2863V17.7658C47.7786 17.5296 46.103 17.4351 44.3796 17.4351C42.7518 17.4351 41.1242 17.5296 39.5922 17.7185V23.9555C38.1081 24.1446 36.6241 24.4281 35.2358 24.7589V18.6163C32.7463 19.2778 30.4005 20.27 28.2463 21.4513V34.2562L31.2144 37.044L30.3527 51.4082L27.959 53.7707V62.0867L28.7729 62.9373C30.7836 61.8505 33.2729 61 36.241 61ZM35.8103 39.5955C35.8103 38.934 36.3369 38.4143 36.9593 38.4143C37.5815 38.4143 38.1081 38.934 38.1081 39.5955L38.4912 50.3214H35.4273L35.8103 39.5955Z" fill="white"/>
  </g>
  <defs>
    <radialGradient id="paint0_radial_3412_3582" cx="0" cy="0" r="1" gradientUnits="userSpaceOnUse" gradientTransform="translate(-0.784356 -7.96304) scale(113.08 111.608)">
      <stop stop-color="#009BBD"/>
      <stop offset="0.1735" stop-color="#009BBD"/>
      <stop offset="1" stop-color="#1B2A6B"/>
    </radialGradient>
    <clipPath id="clip0_3412_3582">
      <rect width="242" height="88.2168" fill="white"/>
    </clipPath>
  </defs>
</svg>
