<svg xmlns="http://www.w3.org/2000/svg" width="110" height="78" viewBox="0 0 110 78" fill="none">
<g id="Nvidia_logo 1" clip-path="url(#clip0_2307_6865)">
<path id="path17" d="M108.739 75.5321C108.739 76.6687 107.88 77.4316 106.864 77.4316V77.4246C105.818 77.4315 104.975 76.6687 104.975 75.5324C104.975 74.3964 105.818 73.6356 106.864 73.6356C107.881 73.6353 108.739 74.3961 108.739 75.5321ZM109.5 75.5321C109.5 73.9723 108.253 73.0668 106.864 73.0668C105.465 73.0668 104.218 73.9723 104.218 75.5321C104.218 77.091 105.465 78 106.864 78C108.254 78 109.5 77.091 109.5 75.5321ZM106.427 75.7406H106.709L107.363 76.8568H108.081L107.357 75.6936C107.731 75.6677 108.039 75.4944 108.039 75.0046C108.039 74.3961 107.607 74.2005 106.876 74.2005H105.818V76.8568H106.426V75.7406M106.427 75.2909V74.6514H106.85C107.08 74.6514 107.393 74.6694 107.393 74.9422C107.393 75.2391 107.231 75.2909 106.96 75.2909H106.427Z" fill="black"/>
<path id="path19" d="M91.7473 61.944L95.0341 70.6827H88.3587L91.7473 61.944ZM88.2272 58.5414L80.6528 77.1925H86.0014L87.1995 73.8969H96.1633L97.2971 77.1925H103.103L95.4726 58.539L88.2272 58.5414ZM73.0204 77.1995H78.4468V58.5356L73.0195 58.5344L73.0204 77.1995ZM35.3492 58.5344L30.8219 73.327L26.485 58.5356L20.6299 58.5344L26.8239 77.1995H34.6415L40.8855 58.5344H35.3492ZM57.2835 62.5986H59.6157C62.9993 62.5986 65.1876 64.0749 65.1876 67.9061C65.1876 71.7382 62.9993 73.2148 59.6157 73.2148H57.2835V62.5986ZM51.9027 58.5344V77.1995H60.7C65.387 77.1995 66.9176 76.4423 68.5724 74.7436C69.7413 73.5509 70.4974 70.9335 70.4974 68.0722C70.4974 65.4478 69.8576 63.1086 68.7421 61.651C66.7321 59.0441 63.8367 58.5344 59.5156 58.5344H51.9027ZM0.5 58.5085V77.1995H5.97233V63.0073L10.2125 63.0085C11.6165 63.0085 12.6173 63.3485 13.2934 64.0505C14.1509 64.9382 14.501 66.3711 14.501 68.9921V77.1995H19.8037V66.8726C19.8037 59.5023 14.97 58.5085 10.2404 58.5085H0.5ZM43.1693 58.5344L43.1715 77.1995H48.5954V58.5344H43.1693Z" fill="black"/>
<path id="path21" d="M15.0834 21.3705C15.0834 21.3705 22.0627 11.3628 35.998 10.3275V6.69669C20.5629 7.90142 7.19672 20.6064 7.19672 20.6064C7.19672 20.6064 14.7671 41.8753 35.998 43.8227V39.9635C20.4178 38.0586 15.0834 21.3705 15.0834 21.3705ZM35.998 32.2884V35.8227C24.2228 33.7825 20.9543 21.8865 20.9543 21.8865C20.9543 21.8865 26.6081 15.7995 35.998 14.8124V18.6906C35.9909 18.6906 35.9859 18.6885 35.98 18.6885C31.0517 18.1137 27.2017 22.5882 27.2017 22.5882C27.2017 22.5882 29.3596 30.1207 35.998 32.2884ZM35.998 0V6.69669C36.4511 6.66294 36.9042 6.6343 37.3598 6.61923C54.9079 6.04445 66.3416 20.6064 66.3416 20.6064C66.3416 20.6064 53.2096 36.1253 39.5283 36.1253C38.2744 36.1253 37.1005 36.0123 35.998 35.8224V39.9635C36.9408 40.0798 37.9184 40.1482 38.9384 40.1482C51.6697 40.1482 60.8767 33.8292 69.7919 26.3503C71.27 27.5008 77.3213 30.2997 78.5653 31.5249C70.0887 38.4221 50.3334 43.9818 39.1335 43.9818C38.0539 43.9818 37.0171 43.9182 35.998 43.8227V49.6417H84.389V0H35.998ZM35.998 14.8124V10.3275C36.4465 10.297 36.8983 10.2738 37.3598 10.2596C49.9786 9.87444 58.2573 20.7984 58.2573 20.7984C58.2573 20.7984 49.3155 32.8677 39.728 32.8677C38.3482 32.8677 37.1114 32.6522 35.998 32.2884V18.6906C40.9105 19.2675 41.8989 21.3765 44.8524 26.1614L51.421 20.7785C51.421 20.7785 46.626 14.6668 38.543 14.6668C37.6644 14.6665 36.8236 14.7265 35.998 14.8124Z" fill="#77B900"/>
</g>
<defs>
<clipPath id="clip0_2307_6865">
<rect width="109" height="78" fill="white" transform="translate(0.5)"/>
</clipPath>
</defs>
</svg>
