<svg width="87" height="60" viewBox="0 0 87 60" fill="none" xmlns="http://www.w3.org/2000/svg">
<g clip-path="url(#clip0)">
<path d="M62.1233 21.2796L62.5202 21.1321C62.164 20.4796 61.9355 19.7227 61.9355 19.0244C61.9355 16.5635 63.4536 15.9774 65.6945 15.9774C67.9495 15.9774 69.4529 16.6758 69.4529 19.1369C69.4529 19.7227 69.3204 20.2028 69.0636 20.7838H71.5206V22.2771H62.1233V21.2796ZM65.6945 17.4947C64.4082 17.4947 63.2927 17.7133 63.2927 19.1369C63.2927 19.851 63.4389 20.3578 63.6376 20.7838H67.7669C67.8516 20.6209 68.0948 19.9526 68.0948 19.1369C68.0948 17.7133 66.9897 17.4947 65.6945 17.4947Z" fill="#2A51AA"/>
<path d="M69.2646 55.4968V57.0313H61.0443V59.7266H59.6672V52.7839H61.0443V55.4968H69.2646Z" fill="#2A51AA"/>
<path d="M64.1853 46.9498C63.5127 46.9498 63.2917 47.4883 63.2917 48.1659C63.2917 48.8993 63.454 49.5012 63.6385 49.8985H69.2646V51.3826H59.6653V49.8985H62.3948C62.1346 49.3695 61.9364 48.5618 61.9364 47.9858C61.9364 46.1818 62.7922 45.458 64.2355 45.458H69.2646L69.2423 46.9498H64.1853Z" fill="#2A51AA"/>
<path d="M64.4603 31.7781C61.8537 31.7781 59.4634 31.0054 59.4634 27.8285C59.4634 24.5535 61.8537 23.89 64.4603 23.89C67.0593 23.89 69.4515 24.65 69.4534 27.8285C69.4534 31.1034 67.0578 31.7781 64.4603 31.7781ZM64.4603 30.1756C66.4589 30.1756 68.0664 29.8413 68.0664 27.8175C68.0664 25.7952 66.4589 25.4896 64.4603 25.4896C62.4592 25.4896 60.8499 25.8158 60.8499 27.835C60.8499 29.8603 62.4592 30.1756 64.4603 30.1756Z" fill="#2A51AA"/>
<path d="M63.2908 3.59654C63.2908 3.43064 63.2657 2.41527 64.208 2.41527H69.265V0.917405H64.2345C62.7926 0.918831 61.9369 1.65849 61.9369 3.44965C61.9369 4.14938 62.1403 4.99647 62.5216 5.63488L62.1242 5.77892V6.78003H69.265V5.28502H63.6356C63.453 4.89237 63.2922 4.32384 63.2908 3.59654Z" fill="#2A51AA"/>
<path d="M66.3264 13.1025C67.5729 12.9917 68.071 12.4392 68.071 10.9946C68.071 10.322 67.9447 9.63601 67.6689 8.79035H68.9736C69.3317 9.68212 69.4514 10.5373 69.45 11.3606C69.4514 13.8469 67.9495 14.6418 65.6944 14.6418C63.4895 14.6418 61.9374 13.766 61.9374 11.3606C61.936 8.81887 63.7799 8.44191 65.7573 8.43716H66.3264V13.1025ZM65.1097 13.0993V9.96402C64.1593 9.96829 63.1602 10.2093 63.1602 11.4129C63.1602 12.6797 63.9753 13.0297 65.1097 13.0993Z" fill="#2A51AA"/>
<path d="M66.3264 42.5402C67.5734 42.4281 68.0696 41.8738 68.0696 40.4308C68.0696 39.7594 67.9433 39.0753 67.6694 38.2295H68.9741C69.3303 39.1182 69.4514 39.9781 69.4514 40.7983C69.45 43.2862 67.9495 44.0781 65.6944 44.0781C63.4899 44.0781 61.9374 43.2039 61.9374 40.7983C61.9374 38.2534 63.7799 37.8733 65.7578 37.8733H66.3264V42.5402ZM65.1745 42.5179V39.3811C64.2241 39.3858 63.2236 39.6264 63.2236 40.8332C63.2236 42.0983 64.0396 42.45 65.1745 42.5179Z" fill="#2A51AA"/>
<path d="M75.1149 53.8065H81.1998C83.3555 53.8065 83.5183 55.1065 83.5183 55.9109C83.5183 56.7157 83.3527 58.011 81.1984 58.0091H75.1149V59.4917L81.3876 59.4932C84.4734 59.4959 84.9554 57.2632 84.9554 55.9109C84.9568 54.5585 84.4734 52.321 81.3876 52.321L75.1149 52.3223V53.8065Z" fill="#2A51AA"/>
<path d="M75.5242 42.0246C76.063 42.0229 76.4901 42.4584 76.4901 43.0032C76.4901 43.548 76.063 43.9819 75.5242 43.9819C74.9745 43.9819 74.5487 43.548 74.5487 43.0032C74.5487 42.4567 74.9726 42.0246 75.5242 42.0246Z" fill="#2A51AA"/>
<path d="M83.374 43.7378H77.6074V42.2573L83.2401 42.2557C83.497 42.2557 83.61 42.2399 83.61 41.8455V41.5937H84.9072C84.928 41.7615 84.9356 41.9389 84.9356 42.2826C84.9356 43.1472 84.5117 43.7395 83.374 43.7378Z" fill="#2A51AA"/>
<path d="M83.3731 15.0166H77.6084V13.5328L83.2425 13.5311C83.4961 13.5311 83.6124 13.5138 83.6124 13.1226L83.611 12.8742H84.9067C84.9271 13.0357 84.9365 13.2162 84.9365 13.5614C84.9365 14.4243 84.5108 15.0166 83.3731 15.0166Z" fill="#2A51AA"/>
<path d="M77.6093 35.6805L77.6079 34.0703L84.9346 36.8747V38.0845L77.6079 40.9036V39.285L83.1692 37.4843L77.6093 35.6805Z" fill="#2A51AA"/>
<path d="M81.8158 32.0896C83.0623 31.9772 83.5571 31.4373 83.5571 30.0294C83.5571 29.3722 83.4327 28.7039 83.1569 27.8819H84.4582C84.8197 28.7515 84.936 29.5861 84.936 30.3889C84.936 32.8149 83.4341 33.5879 81.1823 33.5879C78.9774 33.5879 77.422 32.7311 77.422 30.3889C77.422 27.9071 79.2674 27.5336 81.2419 27.5367L81.8158 27.5384V32.0896ZM80.5957 29.0033C79.6458 29.0049 78.6463 29.2422 78.6463 30.4362C78.6463 31.6907 79.4595 32.0391 80.5957 32.1041V29.0033Z" fill="#2A51AA"/>
<path d="M78.8885 22.3387C78.8332 22.6333 78.8176 22.958 78.8176 23.3316C78.8176 23.8813 78.9387 24.3611 79.1151 24.7332H84.762V26.2107H77.5995V25.221L77.9982 25.0769C77.6562 24.6286 77.4353 23.8163 77.4353 23.2952C77.4353 22.9803 77.4353 22.6063 77.4968 22.3373L78.8885 22.3387Z" fill="#2A51AA"/>
<path d="M82.5978 16.2161C83.7369 16.2161 84.9352 16.9302 84.9352 19.1395C84.9352 19.8284 84.7521 20.8671 84.5364 21.3977L83.1508 21.3994C83.3528 20.8259 83.5794 20.0262 83.5794 19.125C83.5794 17.9738 83.0926 17.6429 82.6106 17.6429C82.1347 17.6429 81.821 17.8139 81.7198 18.9288C81.5358 21.0398 80.7477 21.4673 79.6885 21.4673C78.6203 21.4673 77.4207 20.7992 77.4207 18.7294C77.4207 18.0737 77.5124 17.2882 77.8403 16.5438L79.1937 16.5455C78.9652 17.2455 78.7779 17.8997 78.7779 18.7437C78.7779 19.8409 79.1828 20.0706 79.6918 20.0706C80.1048 20.0706 80.3172 19.8567 80.4184 18.772C80.6124 16.6976 81.3357 16.2161 82.5978 16.2161Z" fill="#2A51AA"/>
<path d="M84.8401 7.574C84.9077 7.90675 84.9347 8.39114 84.9347 8.93923C84.9347 10.1034 84.3405 11.0123 82.9379 11.0123L78.8672 11.0137V12.2634H77.6855L77.608 11.0137H75.8099L75.6064 9.55815H77.608L77.6094 7.58208H78.8672V9.55815H82.76C83.3617 9.55815 83.5841 9.23395 83.5841 8.48621C83.5855 8.19671 83.559 7.70424 83.5354 7.574H84.8401Z" fill="#2A51AA"/>
<path d="M77.6074 0.0018115V1.53628L82.7623 3.32744L77.6074 4.88709V6.53564L84.409 4.03667L87 5.04729V3.65829L77.6074 0.0018115Z" fill="#2A51AA"/>
<path d="M78.7891 47.7196C78.7891 47.5561 78.7641 46.5682 79.7017 46.5682H84.762V45.1016H79.7334C78.291 45.1016 77.4338 45.8271 77.4338 47.5752C77.4338 48.2611 77.6358 49.0891 78.0171 49.7134L77.6183 49.8526V50.8293H84.762V49.373H79.1312C78.9467 48.9879 78.7891 48.4302 78.7891 47.7196Z" fill="#2A51AA"/>
<path d="M75.5242 13.1826C76.063 13.1826 76.4901 13.6151 76.4901 14.1612C76.4901 14.7075 76.063 15.1416 75.5242 15.1416C74.9745 15.1416 74.5487 14.7075 74.5487 14.1612C74.5487 13.6134 74.9745 13.1826 75.5242 13.1826Z" fill="#2A51AA"/>
<path d="M21.9012 29.7291C15.7612 31.3364 9.51722 27.7082 7.95225 21.6256C6.38913 15.5429 10.0972 9.30811 16.237 7.70044C22.3755 6.09325 28.6193 9.72309 30.1826 15.8057C31.7461 21.8884 28.0363 28.1231 21.9012 29.7291ZM47.4345 0.411259H3.0147C1.63119 0.411259 -0.00012207 1.77507 -0.00012207 3.19545V35.6676C-0.00012207 49.9295 11.2507 59.9995 25.127 59.9995C39.0081 59.9995 50.2586 49.9295 50.2586 35.6676V3.3409C50.2586 1.92053 48.8167 0.411259 47.4345 0.411259Z" fill="#2A51AA"/>
</g>
<defs>
<clipPath id="clip0">
<rect width="87" height="60" fill="white"/>
</clipPath>
</defs>
</svg>
