<svg width="320" height="175" viewBox="0 0 320 175" fill="none" xmlns="http://www.w3.org/2000/svg">
<rect x="0.818824" y="0.818824" width="318.362" height="173.362" rx="2.45647" fill="#082144"/>
<rect x="0.818824" y="0.818824" width="318.362" height="173.362" rx="2.45647" stroke="#E0E0E0" stroke-width="1.63765"/>
<g clip-path="url(#clip0_3411_2361)">
<path d="M46.1328 52.0195V131.232H273.868V52.0195H46.1328ZM272.648 130.005H47.3521V53.2483H272.648V130.005Z" fill="white"/>
<path d="M125.037 78.4128C124.479 79.0301 123.606 79.5137 122.295 79.5137C121.226 79.5137 120.201 79.1466 119.509 78.3797C118.605 77.3784 118.635 76.1111 118.635 75.0102V68.1714H119.991V75.1775C119.991 76.0283 119.96 76.8617 120.563 77.5289C120.97 77.9795 121.602 78.2297 122.34 78.2297C123.079 78.2297 123.636 77.9459 123.998 77.5457C124.676 76.7951 124.616 75.9443 124.616 74.0597V68.1714H125.942V73.8258C125.942 75.894 126.002 77.3453 125.037 78.4128Z" fill="white"/>
<path d="M135.626 79.2971L130.881 70.44L130.911 79.2971H129.676V68.1714H131.016L135.762 77.0621L135.732 68.1714H136.966V79.2971H135.626Z" fill="white"/>
<path d="M141.02 79.2971V68.1714H142.375V79.2971H141.02Z" fill="white"/>
<path d="M149.911 79.2971H148.42L144.955 68.1714H146.356L149.202 77.7623L152.126 68.1714H153.436L149.911 79.2971Z" fill="white"/>
<path d="M156.068 79.2971V68.1714H161.628V69.4056H157.394V72.9084H161.372V74.1095H157.394V78.0293H161.748V79.2971H156.068Z" fill="white"/>
<path d="M170.343 79.2971L169.183 76.3949C168.49 74.6771 168.157 74.5266 166.802 74.5266H166.169V79.2971H164.844V68.1714H167.073C168.414 68.1714 169.454 68.1552 170.267 69.0558C170.764 69.606 171.051 70.3403 171.051 71.274C171.051 72.0414 170.855 72.6918 170.433 73.1922C170.072 73.626 169.483 73.9931 168.821 74.076C169.153 74.0928 169.483 74.3094 169.68 74.5266C169.981 74.8607 170.192 75.3941 170.463 76.0781L171.759 79.2971H170.343ZM169.273 69.9396C168.731 69.339 168.023 69.3558 167.209 69.3558H166.169V73.3422H166.637C167.6 73.3422 168.58 73.3758 169.213 72.675C169.529 72.3251 169.71 71.808 169.71 71.274C169.71 70.6729 169.499 70.1898 169.273 69.9396Z" fill="white"/>
<path d="M176.936 79.5309C175.157 79.5309 173.968 78.4635 173.848 78.3297L174.495 77.2954C174.676 77.4291 175.655 78.2463 176.876 78.2463C178.11 78.2463 178.834 77.4291 178.834 76.4115C178.834 75.1941 177.603 74.5935 176.519 74.0097C175.239 73.3257 174.134 72.5919 174.134 70.957C174.134 69.1888 175.429 67.9546 177.282 67.9546C179.135 67.9546 180.054 68.9722 180.145 69.0886L179.466 70.0564C179.346 69.9399 178.547 69.2224 177.373 69.2224C176.273 69.2224 175.49 69.823 175.49 70.8238C175.49 71.8744 176.378 72.2638 177.373 72.8313C178.261 73.3312 180.235 74.0931 180.235 76.2783C180.234 78.1131 179.015 79.5309 176.936 79.5309Z" fill="white"/>
<path d="M183.41 79.2971V68.1714H184.766V79.2971H183.41Z" fill="white"/>
<path d="M191.69 69.4056V79.2971H190.334V69.4056H187.381V68.1714H194.627V69.4056H191.69Z" fill="white"/>
<path d="M200.476 74.8937V79.2971H199.136V74.8937L195.957 68.1714H197.439L199.889 73.4066L202.293 68.1714H203.656L200.476 74.8937Z" fill="white"/>
<path d="M214.896 79.5141C212.245 79.5141 210.332 77.1286 210.332 73.7595C210.332 70.3234 212.23 67.9546 214.972 67.9546C217.653 67.9546 219.521 70.3234 219.521 73.6761C219.521 77.1453 217.638 79.5141 214.896 79.5141ZM214.881 69.2224C212.968 69.2224 211.718 71.0073 211.718 73.726C211.718 76.4283 213.119 78.2295 214.956 78.2295C217.05 78.2295 218.135 76.2442 218.135 73.6258C218.135 70.9738 216.795 69.2224 214.881 69.2224Z" fill="white"/>
<path d="M224.077 69.4056V72.9084H227.934V74.1095H224.077V79.2971H222.736V68.1714H228.175V69.4056H224.077Z" fill="white"/>
<path d="M139 101.164C139 108.29 134.044 113.451 127.846 113.451C121.535 113.451 116.691 108.224 116.691 101.427C116.691 94.3082 121.654 89.1428 127.846 89.1428C134.165 89.1423 139 94.365 139 101.164ZM135.409 101.295C135.409 94.8259 132.633 90.4539 127.846 90.4539C122.655 90.4539 120.295 95.7438 120.295 101.295C120.295 107.767 123.069 112.162 127.846 112.162C133.046 112.162 135.409 106.859 135.409 101.295Z" fill="white"/>
<path d="M207.113 101.164C207.113 108.29 202.155 113.451 195.958 113.451C189.648 113.451 184.803 108.224 184.803 101.427C184.803 94.3082 189.763 89.1428 195.958 89.1428C202.271 89.1423 207.113 94.365 207.113 101.164ZM203.515 101.295C203.515 94.8259 200.741 90.4539 195.958 90.4539C190.762 90.4539 188.404 95.7438 188.404 101.295C188.404 107.767 191.177 112.162 195.958 112.162C201.151 112.162 203.515 106.859 203.515 101.295Z" fill="white"/>
<path d="M215.733 101.36H218.388C222.402 101.36 223.231 98.6304 223.231 95.9448C223.231 93.9335 222.461 92.2915 220.575 91.3746C219.568 90.9154 218.624 90.8515 217.328 90.8515H215.733L215.733 101.36ZM220.575 105.233C219.335 103.264 218.862 102.672 217.328 102.672H215.733V110.525C215.733 111.182 215.91 111.505 216.618 111.639L219.039 112.162V113.085H209.48V112.162L211.661 111.639C212.372 111.439 212.543 111.182 212.543 110.525V92.0982C212.543 91.4407 212.313 91.1104 211.661 90.9804L209.48 90.454V89.5393H218.802C220.753 89.5393 222.109 89.7332 223.231 90.194C225.53 91.1748 226.827 93.6031 226.827 95.8771C226.827 98.7593 224.883 101.164 221.635 102.017V102.151C222.287 102.474 222.639 102.941 224.942 106.278L227.893 110.525C228.304 111.182 228.779 111.64 229.542 111.772L231.552 112.162V113.085H226.42C225.827 113.085 225.53 112.885 225.001 112.095L220.575 105.233Z" fill="white"/>
<path d="M178.961 97.6475H179.965V105.433H178.961L178.546 103.196C178.375 102.348 177.902 102.017 177.19 102.017H172.057V110.525C172.057 111.182 172.235 111.505 172.939 111.639L175.364 112.162V113.085H165.799V112.162L167.979 111.639C168.691 111.439 168.869 111.182 168.869 110.525V92.0982C168.869 91.4407 168.631 91.1104 167.979 90.9804L165.799 90.454V89.5393H181.912V95.4174H180.912L180.083 92.0987C179.847 91.1748 179.371 90.8515 178.665 90.8515H172.057V100.703H177.19C177.901 100.703 178.375 100.396 178.546 99.5494L178.961 97.6475Z" fill="white"/>
<path d="M233.264 113.085V112.162L235.446 111.639C236.155 111.439 236.333 111.182 236.333 110.525V92.0982C236.333 91.4407 236.097 91.1104 235.446 90.9804L233.264 90.454V89.5393H243.24C245.953 89.5393 247.903 89.9271 249.491 90.7188C253.509 92.7545 255.335 97.1243 255.335 101.427C255.335 105.624 253.924 109.536 250.321 111.639C248.668 112.618 246.368 113.085 243.358 113.085H233.264ZM239.463 90.8515V110.716C239.463 111.572 239.638 111.772 240.407 111.772H243.003C245.48 111.772 247.311 111.44 248.61 110.393C250.796 108.623 251.739 105.562 251.739 101.494C251.739 97.5137 250.796 93.7342 247.844 91.8312C246.599 91.0454 245.009 90.851 242.53 90.851L239.463 90.8515Z" fill="white"/>
<path d="M147.387 112.162V113.084H139.77V112.162L141.657 111.705C142.365 111.505 142.898 111.248 143.316 110.648L149.693 101.627L143.316 92.098C142.898 91.4405 142.366 91.1102 141.717 90.9147L139.951 90.4533V89.5386H149.337V90.4533L147.327 90.8508C146.681 90.9797 146.74 91.1741 147.097 91.6994L151.813 99.0916H151.933L156.829 91.8304C157.185 91.3068 157.185 91.0446 156.651 90.9147L154.766 90.4533V89.5386H162.376V90.4533L160.492 90.9147C159.781 91.1102 159.247 91.3739 158.836 91.9637L152.763 100.396L159.543 110.525C159.958 111.182 160.491 111.505 161.142 111.706L162.908 112.162V113.085H153.521V112.162L155.535 111.772C156.177 111.639 156.117 111.44 155.77 110.915L150.627 102.94H150.512L145.259 110.915C144.903 111.44 144.846 111.572 145.495 111.706L147.387 112.162Z" fill="white"/>
<path d="M90.8952 81.52C90.8952 81.52 90.8952 92.317 90.8952 93.1683C90.1523 93.1683 83.2432 93.1683 83.2432 93.1683L83.1381 93.4559C83.0138 93.7971 82.7884 94.1128 81.9921 94.1128C81.1963 94.1128 80.9714 93.7971 80.8466 93.4559L80.742 93.1683C80.742 93.1683 73.849 93.1683 73.1061 93.1683C73.1061 92.317 73.1061 81.52 73.1061 81.52H72.2746V81.8211L71.6916 81.6229C71.606 81.3364 71.3649 81.1279 71.0778 81.1279C70.7198 81.1279 70.4278 81.4502 70.4278 81.8477C70.4278 82.2452 70.7198 82.5674 71.0778 82.5674C71.227 82.5674 71.3629 82.5094 71.4725 82.4152L72.2746 82.6882V83.5774L71.6975 83.4631C71.5982 83.2297 71.3918 83.0624 71.1433 83.0488C70.7853 83.0299 70.4801 83.3359 70.463 83.7328C70.4454 84.1298 70.7227 84.4666 71.0807 84.4861C71.2695 84.4964 71.4417 84.4146 71.5664 84.2787L72.2746 84.4195V85.3288L71.6691 85.299C71.5537 85.1002 71.3527 84.9676 71.1233 84.9676C70.7652 84.9676 70.4733 85.2898 70.4733 85.6867C70.4733 86.0837 70.7652 86.4065 71.1233 86.4065C71.3316 86.4065 71.515 86.2955 71.6339 86.1265L72.2741 86.1579V87.1468L71.6481 87.1717C71.5292 87 71.3443 86.8874 71.134 86.8874C70.776 86.8874 70.4845 87.2096 70.4845 87.6066C70.4845 88.0035 70.776 88.3258 71.134 88.3258C71.3615 88.3258 71.5615 88.1958 71.6769 87.9992L72.2736 87.9754V88.8863L71.582 89.0179C71.4642 88.8873 71.3018 88.8067 71.1223 88.8067C70.7643 88.8067 70.4723 89.1289 70.4723 89.5258C70.4723 89.9239 70.7643 90.245 71.1223 90.245C71.3805 90.245 71.6021 90.0766 71.7068 89.8351L72.2731 89.7273V90.6187L71.5057 90.8781C71.3957 90.7844 71.2602 90.7259 71.1106 90.7259C70.752 90.7259 70.4605 91.0476 70.4605 91.4451C70.4605 91.8432 70.752 92.1648 71.1106 92.1648C71.3977 92.1648 71.6388 91.9574 71.7244 91.6704L72.2731 91.4846V92.3425L71.4158 92.7519C71.3096 92.6799 71.1834 92.6409 71.0499 92.6463C70.6919 92.662 70.4121 92.9972 70.4263 93.3942C70.4405 93.7917 70.7442 94.1009 71.1017 94.0847C71.405 94.0711 71.6491 93.8285 71.7092 93.5144L72.2727 93.2447V94.0901C72.2727 94.0901 79.7902 94.0901 80.2274 94.0901C80.5644 94.7107 81.1347 95.0335 81.9902 95.0335C82.8466 95.0335 83.4159 94.7107 83.7534 94.0901C84.1906 94.0901 91.7248 94.0901 91.7248 94.0901V81.5206L90.8952 81.52Z" fill="white"/>
<path d="M76.7773 78.972C78.3792 78.972 79.6777 78.6963 79.6777 78.3562C79.6777 78.0162 78.3792 77.7405 76.7773 77.7405C75.1755 77.7405 73.877 78.0162 73.877 78.3562C73.877 78.6963 75.1755 78.972 76.7773 78.972Z" fill="white"/>
<path d="M80.771 73.7633L79.0968 75.0657L79.0826 75.1979L79.4802 75.3955C79.559 75.4394 79.56 75.5093 79.5199 75.5515L78.4683 76.5339L78.368 76.5241L77.6236 75.3083C77.5727 75.2293 77.5908 75.1508 77.6803 75.1345L78.1802 75.0441V74.9043L76.8846 72.8762H76.6713L75.3757 74.9043V75.0441L75.8755 75.1345C75.9651 75.1513 75.9841 75.2298 75.9323 75.3083L75.1874 76.5241L75.0866 76.5344L74.105 75.552C74.0649 75.5098 74.0654 75.4394 74.1436 75.3961L74.5418 75.1984L74.5276 75.0663L72.7839 73.7638L72.6426 73.825L73.6663 77.2888C74.1857 77.0305 75.3796 76.8485 76.777 76.841C78.1743 76.848 79.3687 77.0305 79.8877 77.2888L80.9118 73.825L80.771 73.7633Z" fill="white"/>
<path d="M81.9785 102.198C83.5803 102.198 84.8789 101.922 84.8789 101.582C84.8789 101.242 83.5803 100.966 81.9785 100.966C80.3767 100.966 79.0781 101.242 79.0781 101.582C79.0781 101.922 80.3767 102.198 81.9785 102.198Z" fill="white"/>
<path d="M85.9717 96.9888L84.2975 98.2918L84.2833 98.4239L84.6809 98.6216C84.7597 98.6649 84.7606 98.7348 84.7205 98.777L83.669 99.76L83.5687 99.7497L82.8243 98.5344C82.7734 98.4554 82.7915 98.3768 82.8815 98.36L83.3809 98.2701V98.1304L82.0848 96.1023H81.872L80.5764 98.1304V98.2701L81.0762 98.36C81.1657 98.3768 81.1848 98.4554 81.133 98.5344L80.3881 99.7497L80.2883 99.76L79.3062 98.777C79.2661 98.7348 79.267 98.6649 79.3453 98.6216L79.7434 98.4239L79.7283 98.2918L77.9851 96.9888L77.8438 97.05L78.8679 100.514C79.3874 100.255 80.5813 100.073 81.9786 100.066C83.376 100.073 84.5699 100.255 85.0893 100.514L86.1135 97.05L85.9717 96.9888Z" fill="white"/>
<path d="M87.168 78.972C88.7698 78.972 90.0683 78.6963 90.0683 78.3562C90.0683 78.0162 88.7698 77.7405 87.168 77.7405C85.5661 77.7405 84.2676 78.0162 84.2676 78.3562C84.2676 78.6963 85.5661 78.972 87.168 78.972Z" fill="white"/>
<path d="M91.1611 73.763L89.4869 75.0655L89.4727 75.1976L89.8704 75.3953C89.9491 75.4392 89.9501 75.509 89.91 75.5513L88.8584 76.5336L88.7586 76.5239L88.0137 75.3081C87.9629 75.229 87.981 75.1505 88.0705 75.1343L88.5708 75.0438V74.9041L87.2747 72.876H87.061L85.7653 74.9041V75.0438L86.2652 75.1343C86.3552 75.1511 86.3738 75.2296 86.3219 75.3081L85.577 76.5239L85.4772 76.5336L84.4951 75.5383C84.4555 75.496 84.4555 75.4256 84.5338 75.3823L84.9329 75.1971L84.9177 75.0649L83.1741 73.7625L83.0332 73.8237L84.0569 77.2875C84.5763 77.0292 85.7702 76.8472 87.1676 76.8396C88.5654 76.8467 89.7593 77.0292 90.2788 77.2875L91.3025 73.8237L91.1611 73.763Z" fill="white"/>
<path d="M81.96 65.0978C82.2885 65.0978 82.5547 64.803 82.5547 64.4393C82.5547 64.0756 82.2885 63.7808 81.96 63.7808C81.6315 63.7808 81.3652 64.0756 81.3652 64.4393C81.3652 64.803 81.6315 65.0978 81.96 65.0978Z" fill="white"/>
<path d="M95.8448 71.2026C96.1732 71.2026 96.4395 70.9077 96.4395 70.544C96.4395 70.1803 96.1732 69.8855 95.8448 69.8855C95.5163 69.8855 95.25 70.1803 95.25 70.544C95.25 70.9077 95.5163 71.2026 95.8448 71.2026Z" fill="white"/>
<path d="M75.4142 82.6201C75.3644 82.6201 75.3365 82.6277 75.3213 82.6369C75.3101 82.6412 75.3086 82.697 75.3086 82.7566V83.6772C75.3086 83.8901 75.3565 83.9312 75.4602 83.9312C75.6466 83.9312 75.8354 83.7038 75.8354 83.2792C75.8349 82.7642 75.5986 82.6201 75.4142 82.6201Z" fill="white"/>
<path d="M77.1813 83.9683C77.3676 83.9683 77.4689 83.769 77.4689 83.3357C77.4689 82.8543 77.3133 82.5884 77.127 82.5884C76.9607 82.5884 76.8223 82.799 76.8223 83.2182C76.8218 83.652 76.969 83.9683 77.1813 83.9683Z" fill="white"/>
<path d="M81.5642 83.3343C81.5642 82.3682 81.2687 81.5894 80.63 81.1735C80.2299 80.913 79.6875 80.828 79.0189 80.828L74.1797 80.8269V91.6943H79.4488C80.6686 91.6943 81.3856 91.9987 81.4482 93.2101H81.5651L81.5642 83.3343ZM77.9942 83.9647C78.0984 83.9544 78.139 83.9311 78.1522 83.8417C78.1634 83.7676 78.1757 83.6408 78.1864 83.4226L78.2104 82.939C78.2255 82.6373 78.2084 82.6108 78.0372 82.594V82.5003H78.5459L78.9245 83.4497L79.2556 82.5003H79.7814V82.594C79.617 82.6108 79.6087 82.6205 79.6146 82.8724L79.6361 83.6749C79.643 83.9409 79.6464 83.9479 79.8029 83.9652V84.0578H79.1255V83.9652C79.2874 83.9479 79.2942 83.9409 79.2923 83.6749L79.2854 82.8312H79.2766L78.8589 84.0318H78.742L78.3459 82.9151H78.3415L78.3263 83.447C78.3195 83.6527 78.3219 83.7676 78.3307 83.8417C78.3395 83.9311 78.387 83.9528 78.5273 83.9647V84.0573H77.9927V83.9647H77.9942ZM79.2204 86.3194L79.1881 86.302C79.011 86.2111 78.8095 86.0865 78.8095 85.8303C78.8095 85.5596 78.9866 85.3392 79.327 85.3392C79.394 85.3392 79.4635 85.3489 79.5261 85.3684C79.5755 85.3825 79.6102 85.3917 79.6381 85.402C79.6469 85.4951 79.662 85.6126 79.686 85.7751L79.5906 85.7919C79.5427 85.6338 79.4674 85.4637 79.2962 85.4637C79.1857 85.4637 79.1079 85.5569 79.1079 85.6722C79.1079 85.7919 79.192 85.8612 79.3304 85.9311L79.3784 85.9549C79.5779 86.0556 79.7486 86.178 79.7486 86.458C79.7486 86.7526 79.5344 86.9681 79.1993 86.9681C79.1128 86.9681 79.0238 86.9492 78.9651 86.9275C78.901 86.9032 78.855 86.8842 78.8296 86.8696C78.8125 86.7591 78.7836 86.6302 78.7577 86.4694L78.8531 86.438C78.8981 86.5771 79.0262 86.8431 79.238 86.8431C79.3505 86.8431 79.4371 86.7613 79.4371 86.6059C79.4366 86.4661 79.3519 86.3871 79.2204 86.3194ZM77.7956 85.5937C77.8348 85.7274 78.0059 86.2002 78.0862 86.4347C78.1532 86.2311 78.2916 85.7729 78.3258 85.6608C78.3718 85.5141 78.3581 85.4881 78.2608 85.4767L78.1957 85.4691V85.3754H78.72V85.4691C78.5958 85.4859 78.5664 85.4978 78.4813 85.7161C78.4691 85.7491 78.205 86.4607 78.0426 86.9497H77.8758C77.7262 86.5187 77.5232 85.9262 77.4449 85.7009C77.3745 85.4951 77.3305 85.4832 77.2263 85.4686V85.3749H77.9257V85.4686L77.8524 85.4778C77.7721 85.4881 77.7721 85.5092 77.7956 85.5937ZM77.1696 82.464C77.5657 82.464 77.8714 82.7852 77.8714 83.2596C77.8714 83.7724 77.555 84.093 77.1397 84.093C76.7025 84.093 76.4188 83.741 76.4188 83.3002C76.4188 82.9119 76.6526 82.464 77.1696 82.464ZM74.7632 84.0573V83.9647C74.9212 83.9495 74.9383 83.9333 74.9383 83.6744V82.8832C74.9383 82.6249 74.9212 82.6075 74.7803 82.5935V82.4998H75.4122C75.6788 82.4998 75.8994 82.5577 76.0437 82.7131C76.1459 82.8209 76.2305 82.998 76.2305 83.2043C76.2305 83.8011 75.8211 84.0573 75.3217 84.0573H74.7632ZM76.2031 88.3442C76.0539 88.3583 76.0368 88.3751 76.0368 88.634V89.4246C76.0368 89.6835 76.0539 89.7003 76.2031 89.7149V89.8081H75.5022V89.7149C75.6514 89.7003 75.669 89.683 75.669 89.4246V88.634C75.669 88.3751 75.6514 88.3589 75.5022 88.3442V88.2506H76.2031V88.3442ZM76.2378 86.933H75.6988V86.8398C75.7942 86.8344 75.8505 86.8014 75.8612 86.7169C75.87 86.6427 75.8783 86.5111 75.8783 86.2593V85.8184C75.8783 85.6413 75.8734 85.6099 75.8304 85.5428C75.7981 85.4924 75.7438 85.4762 75.6661 85.4686V85.3749H76.1449L76.8654 86.3692H76.8693V86.048C76.8693 85.7962 76.8609 85.6646 76.8526 85.5904C76.8419 85.507 76.7832 85.4756 76.6404 85.468V85.3744H77.1921V85.468C77.084 85.4729 77.0277 85.5065 77.0175 85.5904C77.0087 85.6646 76.9994 85.7962 76.9994 86.048V86.9497H76.8135L76.0128 85.8184H76.0084V86.2593C76.0084 86.5111 76.0172 86.6427 76.0256 86.7169C76.0368 86.8008 76.095 86.8322 76.2378 86.8398V86.933ZM77.4175 89.8081H76.3449V89.7149C76.5093 89.7003 76.5264 89.683 76.5264 89.4246V88.634C76.5264 88.3751 76.5093 88.3589 76.364 88.3442V88.2506H77.0673V88.3442C76.9118 88.3583 76.8942 88.3751 76.8942 88.634V89.4561C76.8942 89.5806 76.8986 89.6402 76.9372 89.6619C76.9725 89.6813 77.0224 89.6835 77.0894 89.6835C77.1588 89.6835 77.2517 89.6765 77.2972 89.6142C77.3315 89.5692 77.3686 89.5043 77.4034 89.377L77.4963 89.3938C77.4826 89.4848 77.4376 89.7339 77.4175 89.8081ZM78.6251 89.8081H77.5521V89.7149C77.7169 89.7003 77.734 89.683 77.734 89.4246V88.634C77.734 88.3751 77.7169 88.3589 77.5716 88.3442V88.2506H78.2749V88.3442C78.1189 88.3583 78.1018 88.3751 78.1018 88.634V89.4561C78.1018 89.5806 78.1067 89.6402 78.1458 89.6619C78.1801 89.6813 78.2299 89.6835 78.297 89.6835C78.3664 89.6835 78.4593 89.6765 78.5048 89.6142C78.5395 89.5692 78.5762 89.5043 78.611 89.377L78.7039 89.3938C78.6912 89.4848 78.6452 89.7339 78.6251 89.8081ZM79.98 88.3442C79.8562 88.361 79.8264 88.3729 79.7418 88.5912C79.729 88.6248 79.4649 89.3364 79.3025 89.8249H79.1358C78.9856 89.3938 78.7826 88.8013 78.7049 88.576C78.633 88.3702 78.5904 88.3583 78.4862 88.3437V88.25H79.1857V88.3437L79.1123 88.3529C79.0321 88.3627 79.0321 88.3843 79.056 88.4683C79.0952 88.602 79.2664 89.0748 79.3466 89.3093C79.4136 89.1057 79.552 88.6481 79.5862 88.5354C79.6317 88.3892 79.6185 88.3627 79.5212 88.3507L79.4561 88.3437V88.25H79.98V88.3442ZM80.6515 82.5935C80.5013 82.6075 80.4847 82.6249 80.4847 82.8832V83.6744C80.4847 83.9333 80.5013 83.9495 80.6515 83.9647V84.0573H79.9501V83.9647C80.0993 83.9495 80.1164 83.9333 80.1164 83.6744V82.8832C80.1164 82.6249 80.0993 82.6075 79.9501 82.5935V82.4998H80.6515V82.5935Z" fill="white"/>
<path d="M88.1882 83.0386L88.0547 83.4962H88.3315L88.1951 83.0386H88.1882Z" fill="white"/>
<path d="M86.9785 86.1462C86.9785 86.58 87.1257 86.8968 87.3375 86.8968C87.5239 86.8968 87.6256 86.6975 87.6256 86.2637C87.6256 85.7817 87.4706 85.5164 87.2837 85.5164C87.1169 85.5164 86.9785 85.727 86.9785 86.1462Z" fill="white"/>
<path d="M87.6784 88.7896L87.5449 89.2472H87.8218L87.6853 88.7896H87.6784Z" fill="white"/>
<path d="M84.9496 80.8284C84.282 80.8284 83.7391 80.9134 83.339 81.1739C82.6997 81.5899 82.4048 82.3686 82.4048 83.3347L82.4043 93.2111H82.5207C82.5833 91.9996 83.3008 91.6953 84.5202 91.6953H89.8235V80.8279L84.9496 80.8284ZM86.0907 82.5522H86.569L87.2895 83.5465H87.2934V83.2254C87.2934 82.9735 87.2851 82.8419 87.2767 82.7677C87.2655 82.6843 87.2073 82.6529 87.0645 82.6459V82.5522H87.6162V82.6459C87.5081 82.6502 87.4518 82.6843 87.4411 82.7677C87.4328 82.8419 87.4235 82.9735 87.4235 83.2254V84.1265H87.2381L86.4369 82.9952H86.4325V83.436C86.4325 83.6873 86.4413 83.8194 86.4497 83.8936C86.4609 83.9776 86.5191 84.0084 86.6619 84.0166V84.1097H86.1234V84.0166C86.2183 84.0111 86.2746 83.9781 86.2848 83.8936C86.2941 83.8194 86.3024 83.6873 86.3024 83.436V82.9952C86.3024 82.8181 86.2976 82.7867 86.2545 82.7201C86.2222 82.6697 86.1675 82.6529 86.0907 82.6459V82.5522ZM88.0256 86.1877C88.0256 86.7005 87.7096 87.0211 87.2939 87.0211C86.8571 87.0211 86.5734 86.6691 86.5734 86.2283C86.5734 85.84 86.8067 85.3921 87.3237 85.3921C87.7204 85.3921 88.0256 85.7133 88.0256 86.1877ZM86.3929 86.8922V86.9854H85.6916V86.8922C85.8407 86.8776 85.8578 86.8603 85.8578 86.602V85.8113C85.8578 85.5524 85.8407 85.5356 85.6916 85.5215V85.4279H86.3929V85.5215C86.2428 85.5356 86.2261 85.5524 86.2261 85.8113V86.602C86.2266 86.8608 86.2433 86.8776 86.3929 86.8922ZM85.2788 84.0171C85.4284 84.0025 85.4455 83.9857 85.4455 83.7268V82.9356C85.4455 82.6773 85.4284 82.66 85.2788 82.6459V82.5522H85.9796V82.6459C85.8305 82.66 85.8133 82.6768 85.8133 82.9356V83.7268C85.8133 83.9857 85.8305 84.0025 85.9796 84.0171V84.1103H85.2788V84.0171ZM85.2915 86.8922V86.9854H84.5353V86.8922C84.7085 86.8776 84.7256 86.8603 84.7256 86.602V85.5524H84.6889C84.5441 85.5524 84.4849 85.5817 84.4507 85.625C84.4248 85.6602 84.3993 85.723 84.3705 85.8573H84.2795C84.2888 85.6559 84.3015 85.4907 84.3054 85.3688H84.3729C84.4057 85.4235 84.4267 85.4284 84.4849 85.4284H85.3487C85.4049 85.4284 85.4157 85.4143 85.4509 85.3688H85.5179C85.5199 85.4696 85.5306 85.6732 85.5414 85.8503L85.4465 85.8579C85.4142 85.7143 85.3908 85.6515 85.358 85.6109C85.3213 85.5676 85.2494 85.5535 85.1457 85.5535H85.0929V86.603C85.0929 86.8608 85.1105 86.8776 85.2915 86.8922ZM83.8569 84.1103H83.3228V84.0171C83.4265 84.0074 83.4676 83.9835 83.4803 83.8942C83.4911 83.82 83.5043 83.6927 83.5146 83.475L83.5385 82.9914C83.5537 82.6898 83.5366 82.6632 83.3654 82.6464V82.5527H83.8736L84.2526 83.5021L84.5842 82.5527H85.11V82.6464C84.9452 82.6632 84.9364 82.6724 84.9427 82.9242L84.9643 83.7268C84.9711 83.9927 84.975 83.9998 85.131 84.0171V84.1103H84.4541V84.0171C84.6155 83.9998 84.6229 83.9927 84.6204 83.7268L84.6136 82.8831H84.6048L84.1871 84.0837H84.0702L83.674 82.967H83.6696L83.6549 83.4994C83.6476 83.7052 83.65 83.82 83.6588 83.8942C83.6676 83.983 83.7151 84.0046 83.8555 84.0171V84.1103H83.8569ZM85.7532 89.861H85.0758V89.7679C85.2382 89.7511 85.245 89.7435 85.2421 89.4776L85.2362 88.6339H85.2274L84.8092 89.8345H84.6933L84.2971 88.7178H84.2922L84.2776 89.2496C84.2707 89.4554 84.2732 89.5702 84.282 89.6444C84.2908 89.7332 84.3372 89.7549 84.4786 89.7674V89.8605H83.9435V89.7674C84.0477 89.7571 84.0888 89.7338 84.102 89.6444C84.1122 89.5702 84.1254 89.443 84.1357 89.2252L84.1602 88.7411C84.1753 88.4389 84.1577 88.4129 83.987 88.3961V88.3024H84.4957L84.8743 89.2512L85.2054 88.3024H85.7317V88.3961C85.5673 88.4129 85.559 88.4227 85.5644 88.6739L85.5864 89.4765C85.5928 89.7424 85.5967 89.7495 85.7527 89.7668L85.7532 89.861ZM86.9843 89.861H85.8828V89.7679C86.0491 89.7533 86.0662 89.7359 86.0662 89.4776V88.6864C86.0662 88.4275 86.0491 88.4113 85.9048 88.3967V88.303H86.93C86.9324 88.3441 86.9432 88.5191 86.9539 88.6983L86.859 88.7059C86.837 88.5884 86.8136 88.5218 86.7788 88.4828C86.7451 88.4422 86.6732 88.4275 86.5587 88.4275H86.5221C86.4394 88.4275 86.4355 88.4275 86.4355 88.5115V88.974H86.5436C86.7294 88.974 86.7358 88.9599 86.7578 88.7774H86.8532V89.3428H86.7578C86.7358 89.1321 86.7294 89.118 86.5436 89.118H86.4355V89.5085C86.4355 89.6336 86.4394 89.6926 86.4785 89.7143C86.5132 89.7338 86.5626 89.7359 86.6301 89.7359C86.7167 89.7359 86.8121 89.7219 86.8595 89.6645C86.8962 89.6211 86.9329 89.5329 86.9662 89.4175L87.0606 89.4343C87.0493 89.5518 87.0043 89.7961 86.9843 89.861ZM88.4995 89.861H87.8196V89.7679L87.8852 89.7576C87.9644 89.7457 87.9688 89.7219 87.9409 89.6352L87.8632 89.391H87.5081L87.4425 89.6211C87.4147 89.724 87.4147 89.7479 87.5144 89.7598L87.5775 89.7674V89.8605H87.0733V89.7674C87.1838 89.7506 87.2161 89.7403 87.2875 89.5394L87.7208 88.3008L87.8705 88.2672L88.0177 88.72C88.1107 89.0054 88.2031 89.2881 88.2853 89.5323C88.3552 89.7403 88.3943 89.7522 88.5 89.7674L88.4995 89.861ZM89.0077 84.1103H88.3273V84.0171L88.3934 84.0074C88.4726 83.9954 88.477 83.9711 88.4486 83.885L88.3713 83.6407H88.0158L87.9507 83.8709C87.9228 83.9743 87.9228 83.9976 88.0221 84.0095L88.0847 84.0171V84.1103H87.5814V84.0171C87.6915 83.9998 87.7248 83.99 87.7962 83.7891L88.229 82.5506L88.3782 82.517L88.5249 82.9697C88.6183 83.2546 88.7118 83.5378 88.7934 83.7821C88.8634 83.99 88.9025 84.0025 89.0086 84.0171V84.1103H89.0077Z" fill="white"/>
<path d="M79.4131 110.247C79.7416 110.247 80.0079 109.952 80.0079 109.589C80.0079 109.225 79.7416 108.93 79.4131 108.93C79.0846 108.93 78.8184 109.225 78.8184 109.589C78.8184 109.952 79.0846 110.247 79.4131 110.247Z" fill="white"/>
<path d="M85.2686 111.309C85.597 111.309 85.8633 111.015 85.8633 110.651C85.8633 110.287 85.597 109.992 85.2686 109.992C84.9401 109.992 84.6738 110.287 84.6738 110.651C84.6738 111.015 84.9401 111.309 85.2686 111.309Z" fill="white"/>
<path d="M66.0544 97.1824C66.2579 97.1835 66.8336 97.2447 67.3212 98.0126C67.5217 98.3278 67.664 98.7004 67.6631 99.0898C67.6621 99.7342 67.3784 100.107 66.6951 100.639L64.8825 102.055L64.3895 101.278L66.4193 99.6925C66.6071 99.5463 66.8575 99.3064 66.858 98.9982C66.858 98.8287 66.8375 98.6906 66.6986 98.4713C66.4834 98.1323 66.2579 98.1036 66.1151 98.103C65.8999 98.1025 65.6964 98.2466 65.2596 98.5866L63.5008 99.8566L63.0215 99.1017L64.8889 97.7483C65.3824 97.3649 65.7008 97.1802 66.0544 97.1824Z" fill="white"/>
<path d="M62.8297 95.3472L65.3109 94.2695L65.5784 95.0396L61.8329 96.6475L61.5678 95.8443L63.5056 93.1117L61.0068 94.0783L60.7402 93.2687L64.52 91.8054L64.7709 92.5647L62.8297 95.3472Z" fill="white"/>
<path d="M60.1367 89.8301L64.1156 89.1597L64.2447 90.0976L60.2654 90.7675L60.1367 89.8301Z" fill="white"/>
<path d="M63.9727 86.2352L59.8926 87.5891L59.9288 86.6337L62.9896 85.7207L60.01 84.5049L60.0452 83.5767L64.0074 85.3134L63.9727 86.2352Z" fill="white"/>
<path d="M60.4727 81.1641L61.1398 78.5679L61.8015 78.7764L61.3658 80.4731L62.2652 80.7568L62.6746 79.1636L63.3246 79.3678L62.9147 80.9616L63.9013 81.2724L64.3503 79.5243L65.0238 79.736L64.3434 82.3837L60.4727 81.1641Z" fill="white"/>
<path d="M66.6165 76.1656L65.4241 76.0492C64.8597 75.9912 64.8049 76.1407 64.646 76.4564L64.5985 76.549L66.0135 77.3819L65.5933 78.2062L62.0547 76.0616L62.6348 74.9336C62.8964 74.4142 63.1752 73.8618 63.8834 73.8618C64.328 73.8618 64.9468 74.2756 64.9468 75.0197C64.9468 75.1518 64.9179 75.291 64.868 75.4372C65.0275 75.1832 65.3155 75.1453 65.5772 75.1486C65.723 75.1496 65.8653 75.174 65.9832 75.1848L67.0572 75.2894L66.6165 76.1656ZM63.6452 74.8166C63.4403 74.8805 63.3337 75.0559 63.1806 75.3592L63.0481 75.6116L64.0243 76.1943L64.1886 75.8672C64.3271 75.5932 64.3574 75.4361 64.3085 75.2455C64.2713 75.0998 64.1476 74.9471 64.0268 74.8724C63.8849 74.7846 63.744 74.7852 63.6452 74.8166Z" fill="white"/>
<path d="M68.3984 67.3906L69.0827 66.8198L71.5047 70.3784L70.821 70.9497L68.3984 67.3906Z" fill="white"/>
<path d="M72.9175 65.1815L74.4469 68.4655L73.6854 68.9003L72.156 65.6163L71.1748 66.1769L70.8594 65.4999L73.5788 63.9473L73.8938 64.6242L72.9175 65.1815Z" fill="white"/>
<path d="M77.6284 65.4197L78.0163 67.1441L77.2205 67.3639L76.8321 65.6391L75.0176 63.3786L75.8608 63.1457L77.061 64.7006L77.4646 62.7L78.273 62.4807L77.6284 65.4197Z" fill="white"/>
<path d="M92.1947 67.0208L93.4654 67.858L93.1196 68.5014L91.8494 67.6641L90.9661 69.3056L90.2402 68.8274L92.2998 64.998L94.3629 66.3584L94.0112 67.0126L92.674 66.131L92.1947 67.0208Z" fill="white"/>
<path d="M99.4305 81.4988L100.531 80.1579L98.9331 79.7392L98.6699 78.8083L101.045 79.4961L102.535 77.5654L102.811 78.5408L101.789 79.7771L103.273 80.173L103.53 81.085L101.321 80.4303L99.7039 82.4687L99.4305 81.4988Z" fill="white"/>
<path d="M103.278 84.6757L102.344 84.7591L102.444 86.4054L101.769 86.4553L101.67 84.8219L99.9488 84.9503L99.8906 84.0551L103.909 83.6912L104.069 86.3708L103.382 86.4217L103.278 84.6757Z" fill="white"/>
<path d="M106.108 86.8615C106.216 72.1605 95.4824 60.1027 82.1823 59.9836C75.9672 59.9278 70.0462 62.4807 65.5097 67.1716C60.6348 72.2135 57.9198 79.0528 57.866 86.4294C57.8015 95.2253 61.6551 103.459 68.1773 108.503C68.7965 111.36 71.1256 113.493 73.9037 113.493C74.6985 113.493 75.4683 113.321 76.1947 112.983C76.9679 113.255 77.7608 113.484 78.5516 113.668C78.2949 114.451 77.9305 115.188 77.5759 115.856L78.1535 116.495C78.2914 116.393 78.4533 116.344 78.6162 116.343C79.0579 116.343 79.4809 116.677 79.4775 117.281C79.4775 117.771 79.1787 118.232 78.5575 118.231C78.221 118.231 77.7847 118.034 77.5495 117.475C77.5495 117.475 77.393 118.019 77.393 118.674C77.393 120.656 79.3391 122.838 81.9426 123.752C84.5613 122.845 86.4991 120.656 86.4991 118.674C86.4991 118.019 86.3426 117.475 86.3426 117.475C86.1078 118.034 85.671 118.231 85.334 118.231C84.7134 118.232 84.4145 117.771 84.4145 117.281C84.4111 116.677 84.8337 116.343 85.2753 116.343C85.4377 116.344 85.6001 116.394 85.7385 116.495L86.2687 115.911L86.2819 115.902L86.3039 115.872C86.3069 115.874 86.3098 115.874 86.3118 115.876L86.3127 115.86L86.3157 115.856L86.3137 115.85V115.849C86.053 115.159 85.8628 114.529 85.7292 113.927C90.048 113.272 93.6933 111.242 96.5956 107.865L96.5907 107.858C102.579 102.817 106.046 95.1901 106.108 86.8615ZM73.9032 112.596C71.1241 112.596 68.864 110.083 68.864 106.996C68.864 106.03 69.0846 105.122 69.4729 104.328C69.7307 104.588 70.006 104.857 70.2922 105.129C70.0466 105.703 69.9053 106.34 69.9053 107.015C69.9053 108.692 70.6688 110.076 72.1121 111.019C72.9495 111.566 73.8998 112.059 74.9064 112.486C74.5787 112.559 74.2436 112.596 73.9032 112.596ZM81.9866 104.419C81.0436 104.419 80.1153 104.325 79.2026 104.147C78.2191 101.929 76.1448 100.498 73.9037 100.498C73.3295 100.498 72.7753 100.594 72.2501 100.763C68.2966 97.4094 65.9426 92.1688 65.9426 86.6455C65.9426 76.8455 73.1402 68.8721 81.9866 68.8721C90.8335 68.8721 98.0307 76.8455 98.0307 86.6455C98.0307 96.4465 90.8335 104.419 81.9866 104.419ZM85.4103 104.931C84.9946 105.673 84.7398 106.638 84.6517 107.614C83.1825 107.188 81.8467 106.625 80.6748 106.037C80.8372 105.662 81.2173 105.313 81.8653 105.313C81.9064 105.313 81.946 105.317 81.9866 105.317C83.159 105.317 84.304 105.183 85.4103 104.931ZM80.2792 105.223C80.1466 105.352 80.0356 105.499 79.9451 105.656C79.4296 105.414 78.4362 104.9 78.1139 104.685C78.6235 104.867 79.7627 105.166 80.2792 105.223ZM73.9032 101.395C75.5911 101.395 77.1719 102.354 78.0987 103.892C77.2839 103.667 76.4832 103.372 75.7036 103.004L75.7012 103.01L75.6782 102.996C75.1348 102.711 74.5518 102.567 73.9472 102.567C72.6027 102.567 71.4127 103.296 70.6776 104.411C70.3699 104.221 70.0628 104.022 69.7605 103.814C70.6712 102.355 72.1879 101.395 73.9032 101.395ZM85.2044 115.516C84.2795 115.516 83.5933 116.315 83.5933 117.301C83.5933 118.451 84.3201 119.143 85.2572 119.143C85.3737 119.143 85.4876 119.129 85.5972 119.103C85.3179 120.537 83.787 122.09 81.9421 122.785C80.1295 122.09 78.5732 120.538 78.2944 119.103C78.4044 119.129 78.5179 119.143 78.6343 119.143C79.5709 119.143 80.2977 118.451 80.2977 117.301C80.2977 116.315 79.612 115.516 78.6866 115.516C78.9199 115.041 79.1845 114.457 79.3802 113.843C80.4689 114.05 81.5406 114.164 82.5388 114.164C83.3439 114.164 84.1274 114.117 84.8924 114.034C84.9956 114.47 85.244 115.306 85.3101 115.524C85.2773 115.519 85.2431 115.516 85.2044 115.516ZM82.5398 113.266C79.3279 113.266 75.3177 112.056 72.5626 110.257C71.7399 109.72 70.7588 108.72 70.7588 107.015C70.7588 106.572 70.8356 106.149 70.9691 105.758C72.0099 106.706 73.0766 107.587 73.7501 107.997C73.9086 108.093 74.0005 108.14 74.1849 108.14C74.6271 108.14 74.9866 107.742 74.9866 107.249C74.9866 106.874 74.8022 106.569 74.4975 106.422C73.9198 106.141 72.7225 105.593 71.4244 104.854C72.0079 104.011 72.9201 103.466 73.9472 103.466C74.4192 103.466 74.8741 103.578 75.2986 103.8L76.1756 104.366C78.9635 106.252 86.0897 111.069 94.7248 108.567C91.463 111.721 87.4616 113.266 82.5398 113.266ZM96.0332 107.179C92.1736 108.685 88.5694 108.589 85.4871 107.837C85.5854 106.375 86.077 104.756 86.8904 104.512C93.8234 102.184 98.8841 95.0564 98.8841 86.6455C98.8841 76.3505 91.3035 67.9748 81.9866 67.9748C72.6692 67.9748 65.0886 76.3505 65.0886 86.6455C65.0886 92.2684 67.4153 97.6185 71.3496 101.149C70.4277 101.64 69.6412 102.39 69.0616 103.309C68.7848 103.095 68.5177 102.875 68.2688 102.648L68.1113 102.823C68.2825 103.052 68.5368 103.347 68.8454 103.677C68.3172 104.649 68.01 105.782 68.01 106.996C68.01 107.079 68.0188 107.16 68.0213 107.242C62.1227 102.333 58.6589 94.6399 58.719 86.4359C58.7714 79.2987 61.3954 72.6841 66.1079 67.8107C70.4815 63.2876 76.1878 60.8268 82.1749 60.8804C95.0041 60.9952 105.357 72.6473 105.254 86.8545C105.195 94.9226 101.835 102.308 96.0332 107.179Z" fill="white"/>
<path d="M69.132 72.1755C69.132 72.5573 68.9814 72.9602 68.6801 73.3247C68.1015 74.0249 67.4847 74.0888 67.4211 74.0872L67.246 73.3485C67.3429 73.3198 67.7963 73.2175 68.1176 72.8276C68.2629 72.6516 68.3382 72.4642 68.3382 72.2985C68.3382 72.1225 68.2335 71.817 67.9058 71.817C67.5561 71.817 66.9712 72.3781 66.3715 72.3781C66.1412 72.3781 65.8854 72.3423 65.6188 72.0716C65.3615 71.8111 65.2422 71.478 65.2422 71.1401C65.2422 70.7707 65.3948 70.3824 65.6775 70.0396C66.215 69.3892 66.8063 69.3362 66.8577 69.334L67.002 70.0591C66.934 70.0721 66.4943 70.1788 66.2214 70.5092C66.081 70.6787 66.0067 70.8633 66.0067 71.0253C66.0067 71.2007 66.1074 71.4157 66.3691 71.4201C66.6567 71.4238 67.3805 70.8379 67.9689 70.8379C68.2419 70.8379 68.4404 70.8915 68.7163 71.1715C68.9936 71.4515 69.132 71.804 69.132 72.1755Z" fill="white"/>
<path d="M87.6752 67.6945C86.648 67.6945 85.7168 66.8285 85.7168 65.5266C85.7168 64.3639 86.4206 63.0149 87.6991 63.0149C88.7394 63.0149 89.7025 63.8289 89.7025 65.1383C89.702 66.124 89.1014 67.6945 87.6752 67.6945ZM88.8441 65.1264C88.8441 64.8188 88.781 64.4966 88.6123 64.2469C88.4382 63.9875 88.1515 63.8061 87.8111 63.8061C87.0897 63.8061 86.5615 64.7972 86.5615 65.6149C86.5615 66.3742 87.0247 66.8903 87.6468 66.8903C88.4631 66.8908 88.8441 65.7167 88.8441 65.1264Z" fill="white"/>
<path d="M98.8396 77.2158C97.6144 77.2158 96.9395 75.909 96.9395 75.0322C96.9395 73.7027 98.2317 72.6868 99.2412 72.6868C100.342 72.6868 101.149 73.8457 101.149 74.8958C101.15 76.0894 100.023 77.2158 98.8396 77.2158ZM98.6963 76.3119C99.4031 76.3119 100.383 75.635 100.383 74.7236C100.383 74.0959 99.943 73.6063 99.3781 73.6063C98.7169 73.6063 97.7088 74.2573 97.7088 75.1763C97.7088 75.6664 98.0473 76.3119 98.6963 76.3119Z" fill="white"/>
<path d="M99.6309 90.3443C99.6309 89.2438 100.304 88.1624 101.642 88.1624C102.766 88.1624 103.854 88.9303 103.854 90.3091C103.854 91.4415 103.198 92.53 101.869 92.53C100.733 92.53 99.6309 91.735 99.6309 90.3443ZM101.914 91.5779C102.628 91.5779 103.15 91.0943 103.15 90.3849C103.15 89.5379 102.264 89.1068 101.581 89.1068C100.705 89.1068 100.35 89.7372 100.35 90.3297C100.35 91.2573 101.377 91.5779 101.914 91.5779Z" fill="white"/>
<path d="M98.0968 95.5983L99.2937 95.6037C99.861 95.6091 99.9045 95.4553 100.039 95.1266L100.079 95.0291L98.6387 94.2888L98.984 93.4429L102.627 95.3047L102.16 96.4658C101.841 97.2468 101.567 97.641 100.9 97.641C100.471 97.641 99.8414 97.2462 99.8463 96.52C99.8473 96.4084 99.861 96.2888 99.8938 96.1615C99.6796 96.5736 99.1401 96.5162 98.8026 96.5162L97.7246 96.5108L98.0968 95.5983ZM100.431 96.0943C100.431 96.435 100.69 96.7057 100.977 96.7057C101.234 96.7057 101.395 96.5492 101.546 96.1788L101.673 95.8458L100.678 95.3286L100.512 95.7396C100.457 95.8745 100.431 95.9931 100.431 96.0943Z" fill="white"/>
<path d="M95.6504 100.526C95.6504 99.6138 96.0319 99.1177 96.5151 98.4592L97.0375 97.7498L100.159 100.563L99.4581 101.516C99.0624 102.054 98.5963 102.717 97.7002 102.717C97.1906 102.717 96.743 102.455 96.4261 102.169C96.0299 101.813 95.6504 101.207 95.6504 100.526ZM97.7946 101.833C98.2196 101.833 98.4657 101.692 98.9538 101.028L99.1064 100.82L97.0326 98.952L96.7778 99.2991C96.5283 99.6398 96.3987 99.9739 96.3987 100.297C96.3987 100.725 96.5904 101.103 96.9822 101.457C97.2649 101.71 97.5246 101.833 97.7946 101.833Z" fill="white"/>
</g>
<defs>
<clipPath id="clip0_3411_2361">
<rect width="227.735" height="79.2123" fill="white" transform="translate(46.1328 52.019)"/>
</clipPath>
</defs>
</svg>
