<svg width="320" height="175" viewBox="0 0 320 175" fill="none" xmlns="http://www.w3.org/2000/svg">
<rect x="0.818824" y="0.818824" width="318.362" height="173.362" rx="2.45647" fill="#16336F"/>
<rect x="0.818824" y="0.818824" width="318.362" height="173.362" rx="2.45647" stroke="#E0E0E0" stroke-width="1.63765"/>
<g clip-path="url(#clip0_3412_3699)">
<path fill-rule="evenodd" clip-rule="evenodd" d="M120.777 88.146C122.937 88.5212 124.719 89.7228 126.083 91.7488C127.561 89.7228 128.357 86.7579 128.357 82.9311C128.357 75.3151 125.098 71.0381 120.057 71.0381C115.017 71.0381 111.757 75.3151 111.757 82.9311C111.757 90.5482 115.017 94.8241 120.057 94.8241C121.687 94.8241 123.165 94.3739 124.378 93.4746C123.203 91.485 122.331 90.8108 120.777 90.5835V88.146ZM131.844 98.727C129.456 98.727 126.879 97.863 125.439 95.3129C123.923 96.3259 122.104 96.85 120.057 96.85C113.197 96.85 109.256 90.9234 109.256 82.9311C109.256 74.9399 113.197 69.0122 120.057 69.0122C126.917 69.0122 130.858 74.9399 130.858 82.9311C130.858 87.5093 129.57 91.41 127.144 93.8861C128.319 95.9121 129.456 96.4748 131.844 96.4748V98.727ZM147.647 76.9659V96.4748H145.373V93.3995C143.251 95.5744 141.507 96.85 138.628 96.85C134.535 96.85 132.791 94.5239 132.791 90.2845V76.9659H135.065V90.0605C135.065 93.287 136.049 95.0514 139.082 95.0514C141.507 95.0514 142.872 93.5882 145.374 91.335V76.9681H147.648L147.647 76.9659ZM163.185 84.9946C162.731 80.9813 160.949 78.429 157.5 78.3926C153.483 78.354 151.778 82.4059 151.74 84.9946H163.185ZM151.74 86.7965C151.74 91.2235 153.597 95.0503 158.069 95.0503C160.608 95.0503 161.859 94.1874 163.829 91.111L165.686 92.0864C163.565 95.5369 161.631 96.8489 157.879 96.8489C152.725 96.8489 149.466 93.5871 149.466 86.7192C149.466 80.679 152.573 76.5907 157.576 76.5907C162.921 76.5907 165.459 80.7551 165.459 86.7954L151.74 86.7965ZM180.998 84.9946C180.544 80.9813 178.762 78.429 175.313 78.3926C171.297 78.354 169.591 82.4059 169.552 84.9946H180.998ZM169.552 86.7965C169.552 91.2235 171.409 95.0503 175.881 95.0503C178.421 95.0503 179.671 94.1874 181.642 91.111L183.499 92.0864C181.378 95.5369 179.444 96.8489 175.692 96.8489C170.539 96.8489 167.278 93.5871 167.278 86.7192C167.278 80.679 170.386 76.5907 175.39 76.5907C180.734 76.5907 183.273 80.7551 183.273 86.7954H169.551L169.552 86.7965ZM185.319 96.4748V76.9659H187.592V80.0423C189.714 77.8674 191.459 76.5907 194.339 76.5907C198.432 76.5907 200.176 78.9168 200.176 83.1562V96.4748H197.901V83.3824C197.901 80.1559 196.916 78.3915 193.885 78.3915C191.459 78.3915 190.093 79.8536 187.592 82.1068V96.4737H185.318L185.319 96.4748ZM211.923 96.4748V69.3874H216.32L223.863 92.349H223.937L231.517 69.3863H235.913V96.4748H233.413V71.4144H233.337L225.112 96.4737H222.725L214.502 71.4144H214.425V96.4737L211.923 96.4748ZM250.164 85.4448C241.145 87.3968 239.931 89.2351 239.931 91.7101C239.931 93.8497 241.41 95.0503 243.455 95.0503C245.579 95.0503 248.193 93.8111 250.165 91.8238V85.4448H250.164ZM250.543 96.4748L250.24 94.1112C247.888 95.9507 246.108 96.85 243.078 96.85C240.008 96.85 237.657 94.9741 237.657 91.7488C237.657 86.4213 242.054 85.4448 250.278 83.645V82.2944C250.278 79.7057 249.141 78.3915 245.768 78.3915C243.416 78.3915 241.485 79.6682 240.046 81.9192L238.53 81.0177C240.235 77.8674 242.661 76.5918 245.842 76.5918C250.316 76.5918 252.437 78.3904 252.437 82.7071V92.9118C252.437 93.8861 252.513 95.1628 252.742 96.4748H250.544H250.543ZM254.787 96.4748V76.9659H257.061V80.6801H257.137C258.198 78.279 260.32 76.5907 262.822 76.5907H263.845V78.7667H262.822C260.32 78.7667 257.061 81.693 257.061 85.4448V96.4748H254.787Z" fill="#FEFEFE"/>
<path fill-rule="evenodd" clip-rule="evenodd" d="M273.019 92.8357H273.093L278.589 76.9659H281.014L273.662 97.8619C272.335 101.689 270.934 103.377 267.372 103.377C266.386 103.377 265.778 103.302 265.248 103.153V101.316C265.932 101.391 266.65 101.578 267.522 101.578C269.114 101.578 270.858 100.19 271.956 96.1747L265.098 76.9659H267.599L273.019 92.8357ZM112.429 104.672V112.761C112.429 113.866 112.915 114.443 113.999 114.443C115.082 114.443 115.585 113.866 115.585 112.761V104.672H117.816V112.778C117.816 115.323 116.296 116.398 113.999 116.398C111.701 116.398 110.196 115.323 110.196 112.778V104.672H112.429ZM119.112 116.238V107.525H121.085V108.518C121.828 107.878 122.525 107.365 123.365 107.365C124.614 107.365 125.26 107.989 125.26 109.605V116.236H123.22V109.83C123.22 109.255 123.026 108.869 122.477 108.869C122.055 108.869 121.586 109.27 121.15 109.654V116.238H119.112ZM126.489 116.238H128.527V107.525H126.489V116.238ZM126.49 106.019H128.528V104.192H126.49V106.019ZM132.848 113.13H132.881L134.222 107.525H136.262L133.867 116.236H131.86L129.466 107.525H131.506L132.848 113.13ZM140.889 110.728V110.247C140.889 109.479 140.517 108.999 139.692 108.999C138.867 108.999 138.495 109.479 138.495 110.246V110.728H140.889ZM138.495 112.361V113.515C138.495 114.38 139.012 114.762 139.692 114.762C140.549 114.762 140.889 114.22 140.889 113.547H142.928C142.831 115.342 141.746 116.398 139.692 116.398C137.75 116.398 136.455 115.212 136.455 113.307V110.456C136.455 108.55 137.75 107.365 139.692 107.365C141.585 107.365 142.928 108.55 142.928 110.329V112.361H138.495ZM144.06 116.238V107.525H146.051V108.677H146.082C146.551 107.813 147.167 107.364 148.186 107.364V109.543C147.846 109.447 147.458 109.318 147.102 109.318C146.439 109.318 146.099 109.814 146.099 110.28V116.238H144.058H144.06ZM153.17 110.184C152.894 109.382 152.377 108.999 151.762 108.999C151.292 108.999 150.937 109.334 150.937 109.782C150.937 111.128 154.916 111.161 154.916 113.755C154.916 115.486 153.687 116.398 151.988 116.398C150.758 116.398 149.658 116.093 148.672 113.915L150.5 113.418C150.678 114.235 151.18 114.763 151.988 114.763C152.603 114.763 152.976 114.476 152.976 113.995C152.976 112.329 148.995 112.731 148.995 109.798C148.995 108.149 150.338 107.365 151.778 107.365C153.299 107.365 154.351 108.23 154.853 109.543L153.17 110.184ZM155.758 116.238H157.797V107.525H155.758V116.238ZM155.758 106.019H157.797V104.192H155.758V106.019ZM158.8 109.542V107.909H159.609V105.539H161.648V107.909H162.958V109.542H161.648V113.994C161.648 114.428 162.02 114.636 162.57 114.636C162.715 114.636 162.845 114.636 162.974 114.62V116.317C162.589 116.375 162.199 116.402 161.809 116.396C160.482 116.396 159.609 115.916 159.609 114.668V109.542H158.8ZM164.041 117.519C164.236 117.55 164.431 117.55 164.64 117.55C165.53 117.55 166.112 116.783 166.112 116.396C166.112 115.886 165.95 115.292 165.741 114.555L163.701 107.524H165.773L167.148 113.29H167.18L168.458 107.524H170.53L168.184 116.206C167.552 118.559 166.727 119.313 164.689 119.313C164.495 119.313 164.268 119.296 164.041 119.281V117.519ZM176.596 113.61C176.596 114.283 177.083 114.636 177.794 114.636C178.506 114.636 178.991 114.283 178.991 113.61V110.151C178.991 109.479 178.506 109.126 177.794 109.126C177.083 109.126 176.597 109.479 176.597 110.151L176.596 113.61ZM174.559 110.664C174.559 108.358 175.756 107.365 177.794 107.365C179.834 107.365 181.031 108.358 181.031 110.664V113.097C181.031 115.404 179.834 116.396 177.794 116.396C175.756 116.396 174.559 115.404 174.559 113.097V110.664ZM185.884 106.276H185.302C184.817 106.276 184.607 106.58 184.607 107.012V107.909H185.82V109.542H184.607V116.238H182.567V109.543H181.645V107.909H182.568V107.077C182.568 105.057 183.425 104.513 184.913 104.513C185.205 104.513 185.544 104.561 185.883 104.609V106.276H185.884ZM190.706 116.238V104.673H192.939V114.283H196.531V116.236L190.706 116.238ZM199.329 113.61C199.329 114.283 199.815 114.636 200.527 114.636C201.24 114.636 201.724 114.283 201.724 113.61V110.151C201.724 109.479 201.239 109.126 200.527 109.126C199.815 109.126 199.329 109.479 199.329 110.151V113.61ZM197.291 110.664C197.291 108.358 198.488 107.365 200.527 107.365C202.564 107.365 203.763 108.358 203.763 110.664V113.097C203.763 115.404 202.564 116.396 200.527 116.396C198.488 116.396 197.291 115.404 197.291 113.097V110.664ZM205.058 116.238V107.525H207.031V108.518C207.775 107.878 208.472 107.365 209.311 107.365C210.559 107.365 211.206 107.989 211.206 109.605V116.236H209.167V109.83C209.167 109.255 208.973 108.869 208.423 108.869C208.002 108.869 207.534 109.27 207.095 109.654V116.238H205.058ZM216.609 109.494C216.205 109.063 215.832 108.87 215.379 108.87C214.829 108.87 214.377 109.223 214.377 110.952V112.811C214.377 114.539 214.829 114.894 215.38 114.894C215.832 114.894 216.205 114.7 216.609 114.268V109.494ZM216.771 116.236V115.18H216.739C216.383 115.724 215.477 116.398 214.57 116.398C212.984 116.398 212.338 115.18 212.338 112.938V110.824C212.338 108.583 212.984 107.365 214.57 107.365C215.12 107.365 215.638 107.622 216.61 108.325V104.672H218.648V116.236H216.771ZM221.658 113.61C221.658 114.283 222.144 114.636 222.856 114.636C223.568 114.636 224.052 114.283 224.052 113.61V110.151C224.052 109.479 223.568 109.126 222.856 109.126C222.145 109.126 221.658 109.479 221.658 110.151V113.61ZM219.618 110.664C219.618 108.358 220.816 107.365 222.856 107.365C224.894 107.365 226.092 108.358 226.092 110.664V113.097C226.092 115.404 224.892 116.396 222.855 116.396C220.815 116.396 219.619 115.404 219.619 113.097V110.664H219.618ZM227.385 116.238V107.525H229.359V108.518C230.102 107.878 230.799 107.365 231.64 107.365C232.886 107.365 233.534 107.989 233.534 109.605V116.236H231.495V109.83C231.495 109.255 231.301 108.869 230.75 108.869C230.33 108.869 229.861 109.27 229.424 109.654V116.238H227.385ZM67.5733 95.5369C61.8829 95.5369 57.2692 89.9071 57.2692 82.962C57.2692 76.018 61.8829 70.3882 67.5733 70.3882C73.2649 70.3882 77.8796 76.018 77.8796 82.962C77.8796 89.9071 73.2649 95.5369 67.5733 95.5369ZM67.4574 69.4304C59.7828 69.4304 53.5629 75.5159 53.5629 83.0249C53.5629 90.5306 59.7828 96.6194 67.4574 96.6194C75.132 96.6194 81.353 90.5306 81.353 83.0249C81.353 75.5159 75.132 69.4304 67.4574 69.4304ZM38.498 70.4081C38.498 70.4081 48.5536 77.4426 43.9756 85.959C43.9756 85.959 50.7417 76.8037 53.01 89.6842C53.01 89.6842 51.066 86.7656 47.3129 87.495C44.0324 88.1328 43.6267 90.6464 43.6267 90.6464L38.498 70.4081ZM96.0445 70.4081C96.0445 70.4081 85.9889 77.4426 90.5669 85.959C90.5669 85.959 83.8008 76.8037 81.5324 89.6842C81.5324 89.6842 83.4764 86.7656 87.2296 87.495C90.509 88.1328 90.9158 90.6464 90.9158 90.6464L96.0445 70.4081Z" fill="#FEFEFE"/>
<path fill-rule="evenodd" clip-rule="evenodd" d="M54.5023 97.3426C55.9759 96.8273 57.3625 96.3793 59.1683 95.6985C58.465 95.3002 57.5353 94.5288 56.8654 93.9639C55.0886 94.5951 53.4467 95.2251 52.4201 95.5727C51.3801 95.9236 47.9792 96.7048 46.7441 93.4011C45.839 90.9779 47.579 89.4353 49.2577 89.4353C49.8864 89.4353 50.5262 89.6726 50.524 89.7542C50.216 89.7531 49.9147 89.8425 49.6581 90.0111C49.4015 90.1796 49.2011 90.4197 49.0825 90.7011C48.9638 90.9824 48.9321 91.2922 48.9915 91.5914C49.0508 91.8905 49.1984 92.1655 49.4157 92.3815C49.633 92.5975 49.9102 92.7449 50.2121 92.8049C50.514 92.8649 50.8272 92.8349 51.1118 92.7186C51.3965 92.6024 51.64 92.4051 51.8113 92.1518C51.9827 91.8985 52.0743 91.6006 52.0745 91.2957C52.0745 90.6282 51.7312 90.1173 51.2195 89.7311C50.5284 89.2566 49.5642 88.9752 48.6502 88.9752C46.6048 88.9752 44.8213 90.7562 44.5315 92.8196C44.2015 95.1589 46.7932 100.036 54.5023 97.3426ZM46.4732 101.257C46.1634 100.185 47.3449 99.309 49.0972 99.309H86.1458C87.8981 99.309 89.0796 100.185 88.7708 101.257C88.4587 102.327 86.7778 103.099 85.03 102.97L70.7588 101.922C69.0087 101.793 66.1507 101.793 64.4017 101.922L50.2119 102.97C48.4652 103.099 46.7809 102.328 46.4732 101.257ZM69.7098 68.0991C68.2217 65.9628 69.1023 64.6276 70.1111 64.6331C71.7118 64.6431 72.297 65.5368 72.2881 66.9691C73.1464 66.4748 73.9434 65.1782 73.9523 63.9611C73.959 62.7462 73.0015 61.613 71.7742 61.6053C70.2739 61.5942 69.5025 62.061 68.8136 62.8411C68.9284 62.5984 69.0511 62.3611 69.1714 62.1316C69.4312 61.6306 69.7344 61.0204 69.731 60.4786C69.7277 59.8276 69.4156 59.1137 68.973 58.3346C68.5517 57.5777 67.952 56.4522 67.5518 55.4988C67.1628 56.4577 66.5787 57.5898 66.1663 58.3523C65.7315 59.1357 65.4306 59.853 65.4339 60.504C65.4373 61.0469 65.7483 61.6516 66.0136 62.1504C66.1406 62.3821 66.2666 62.6237 66.3881 62.872C65.6914 62.072 64.9212 61.5953 63.4019 61.6053C62.1757 61.613 61.2171 62.7462 61.2249 63.9611C61.2316 65.1782 62.0297 66.4748 62.8869 66.9691C62.878 65.5368 63.4643 64.6431 65.0639 64.6331C66.0726 64.6276 66.9443 65.8392 65.3726 68.098C67.0892 67.6842 68.0545 67.7471 69.7087 68.098M90.0628 93.0193C89.7718 90.9559 87.9917 89.1749 85.9451 89.1749C85.03 89.1749 84.0669 89.4552 83.3758 89.9286C82.863 90.317 82.5197 90.8268 82.5197 91.4933C82.5195 91.7982 82.6107 92.0963 82.7817 92.3498C82.9528 92.6034 83.196 92.801 83.4806 92.9176C83.7652 93.0342 84.0783 93.0647 84.3804 93.005C84.6824 92.9453 84.9598 92.7982 85.1773 92.5824C85.3949 92.3666 85.5428 92.0917 85.6025 91.7926C85.6621 91.4934 85.6307 91.1835 85.5123 90.9021C85.3939 90.6206 85.1937 90.3803 84.9372 90.2115C84.6807 90.0427 84.3794 89.9531 84.0714 89.9539C84.068 89.8701 84.709 89.6339 85.3376 89.6339C87.0163 89.6339 88.7552 91.1766 87.8501 93.5986C86.6151 96.9046 83.2131 96.1233 82.1742 95.7713C81.1476 95.4248 76.5116 93.6748 74.7359 93.0425L74.639 93.1242C70.3998 91.5981 69.7098 91.3542 67.6878 90.9393C61.1725 89.6008 60.72 93.8811 60.72 93.8811C60.72 94.0301 61.2728 91.9887 65.5878 92.4268C67.3579 92.6033 68.4079 93.0844 72.4809 94.7473C72.4653 94.7562 72.4475 94.7694 72.4341 94.7782C74.2399 95.4591 78.6195 97.0282 80.092 97.5424C87.8011 100.235 90.3916 95.3586 90.0628 93.0193Z" fill="#FEFEFE"/>
</g>
<defs>
<clipPath id="clip0_3412_3699">
<rect width="243" height="64" fill="white" transform="translate(38.5 55.5)"/>
</clipPath>
</defs>
</svg>
