<svg xmlns="http://www.w3.org/2000/svg" xmlns:xlink="http://www.w3.org/1999/xlink" viewBox="0 0 164 127"><use xlink:href="#path0_fill" transform="translate(124.949 48.595)" fill="#27AAE1"/><use xlink:href="#path1_fill" transform="translate(90.408 48.335)" fill="#27AAE1"/><use xlink:href="#path2_fill" fill="#27AAE1"/><use xlink:href="#path3_fill" transform="translate(121.029 48.595)" fill="#27AAE1"/><use xlink:href="#path4_fill" transform="translate(30.468 43.03)" fill="#27AAE1"/><defs><path id="path0_fill" d="M25.132 22.519L38.474 0H25.092L17.21 13.723 9.502 0h-6.81a62.366 62.366 0 0 1 1.794 14.243l4.883 8.276L0 38.329l2.883 7.636h6.025l8.36-14.441 8.36 14.44h13.423L25.132 22.52z"/><path id="path1_fill" d="M0 23.158h15.763L7.835 0 0 23.158z"/><path id="path2_fill" d="M114.047 94.56l-4.377-12.744H86.896l-4.33 12.744H68.73l23.495-61.854h12.038l20.659 54.144a62.239 62.239 0 0 0 4.537-23.344v-.667l-8.429-14.243h6.613c-3.539-14.38-12.085-27.096-24.161-35.954S76.555-.66 61.495.079c-15.06.738-29.383 6.612-40.5 16.606C9.88 26.68 2.668 40.168.607 54.822c-2.06 14.654 1.159 29.554 9.102 42.129 7.943 12.574 20.111 22.032 34.404 26.743a65.898 65.898 0 0 0 43.885-.941c14.07-5.319 25.805-15.29 33.181-28.193h-7.132zm-47.463 0H52.643l-11.82-22.626H30.445V94.56H17.478V32.706h23.426c7.449 0 13.195 1.63 17.239 4.888 4.044 3.258 6.064 7.868 6.06 13.83 0 4.22-.93 7.738-2.79 10.555-1.861 2.817-4.683 5.06-8.465 6.731l13.636 25.279v.571z"/><path id="path3_fill" d="M8.406 14.243A62.366 62.366 0 0 0 6.613 0H0l8.406 14.243z"/><path id="path4_fill" d="M10.436 0H0v18.576h10.482c3.263 0 5.789-.815 7.576-2.444s2.683-3.873 2.687-6.73c0-2.92-.844-5.214-2.531-6.885C16.526.847 13.934.007 10.436 0z"/></defs></svg>