<svg width="215" height="70" viewBox="0 0 215 70" fill="none" xmlns="http://www.w3.org/2000/svg">
  <path d="M47.1357 3.27142C47.1357 3.27142 42.193 2.73804 25.2314 2.73804H25.0536C9.72762 2.73804 4.42933 3.09363 3.1492 3.27142C2.61582 3.27142 2.22467 3.8048 2.22467 4.19595C2.22467 4.19595 2.22467 18.8107 2.04688 28.6606C4.25153 28.4828 10.6166 28.1272 25.2314 28.1272C39.4905 28.1272 45.8556 28.305 48.0602 28.4828V4.19595C48.0602 4.01816 48.0602 3.48478 47.1357 3.27142Z" fill="#E32118"/>
  <path d="M47.1357 3.27142C47.1357 3.27142 42.193 2.73804 25.2314 2.73804H25.0536C9.72762 2.73804 4.42933 3.09363 3.1492 3.27142C2.61582 3.27142 2.22467 3.8048 2.22467 4.19595C2.22467 4.19595 2.22467 18.8107 2.04688 28.6606C4.25153 28.4828 10.6166 28.1272 25.2314 28.1272C39.4905 28.1272 45.8556 28.305 48.0602 28.4828V4.19595C48.0602 4.01816 48.0602 3.48478 47.1357 3.27142Z" stroke="#E32118" stroke-width="4.01546"/>
  <path d="M25.2331 63.1882C25.2331 63.1882 10.085 55.3296 6.2446 49.4979C6.2446 49.4979 0.76851 43.4529 1.69304 33.6031V29.4071C1.69304 29.4071 21.6061 29.0515 25.4465 29.0515C25.4465 29.0515 45.7151 29.2293 48.8087 29.2293V34.7054C48.8087 34.7054 50.0889 43.6663 43.866 49.6757C43.866 49.8535 37.4654 57.0009 25.2331 63.1882Z" fill="white"/>
  <path d="M77.8201 12.7658V2.16919H74.5487V14.4015C74.5487 15.5038 74.5487 16.215 74.3709 16.7839C74.0153 18.5975 72.7351 19.3442 70.5305 19.3442C68.3258 19.3442 67.2591 18.5975 66.6901 16.9617C66.5123 16.4284 66.5123 15.5038 66.5123 14.5793V2.16919H62.4941V13.2992C62.4941 16.0372 62.6719 17.8507 63.5965 19.1308C64.6988 20.7666 66.6901 22.0467 70.3527 22.0467C74.3709 22.0467 76.1844 20.411 77.1089 18.7753C77.4645 17.3529 77.8201 16.0728 77.8201 12.7658Z" fill="black"/>
  <path d="M93.541 21.7266V13.1569C93.541 12.6235 93.541 11.3434 93.3632 10.4189C93.0076 8.96096 91.9053 7.32525 88.9895 7.32525C86.0736 7.32525 84.7935 9.13876 84.7935 9.13876V7.32525H80.9531V21.3711H84.7935V9.84994C84.7935 9.84994 85.718 9.31655 86.9982 9.31655C88.4561 9.31655 89.3806 9.84994 89.7362 11.1301C89.914 11.6634 89.914 12.4102 89.914 13.1569V21.1933H93.541M100.831 3.48487C100.831 2.38254 99.9061 1.45801 98.6259 1.45801C97.168 1.45801 96.2435 2.20475 96.2435 3.48487C96.2435 4.5872 97.168 5.51173 98.4482 5.51173C99.9416 5.47617 100.831 4.72944 100.831 3.48487ZM100.475 7.28968H96.6347V21.3711H100.475V7.28968ZM116.014 7.28968H112.53L109.791 16.4284C109.614 17.1751 109.258 18.2419 109.258 18.2419C109.258 18.2419 109.258 17.4951 109.08 16.6062L106.342 7.46748H102.146L107.053 21.7266H110.894L116.014 7.28968ZM129.349 14.6148V14.437C129.349 12.9791 129.349 10.9523 128.424 9.67214C127.5 8.21422 126.042 7.11189 123.304 7.11189C117.65 7.11189 116.548 11.8768 116.548 14.4015C116.548 20.0554 120.032 21.6911 123.837 21.6911C127.109 21.6911 128.78 20.7666 128.78 20.7666L128.033 18.5619C128.033 18.5619 126.931 19.0953 125.117 19.0953C122.379 19.0953 120.566 17.4596 120.566 14.7215V14.6148H129.349ZM125.509 12.7658H120.566C120.566 12.588 120.566 11.8412 120.744 11.1301C121.099 9.84994 121.668 9.1032 123.126 9.1032C124.762 9.1032 125.509 10.2055 125.509 12.1968C125.509 12.2324 125.509 12.7658 125.509 12.7658ZM140.657 7.68084C140.301 7.50304 139.732 7.32525 138.843 7.32525C136.461 7.32525 135.358 9.35211 135.358 9.35211V7.50304H131.518V21.5844H135.358V10.4544C135.358 10.4544 136.105 9.92106 137.385 9.92106C138.665 9.92106 139.412 10.4544 139.768 10.6678L140.657 7.68084Z" fill="black"/>
  <path d="M151.253 17.3529C151.253 15.5394 150.328 14.437 148.515 13.5125L146.488 12.4102C145.386 11.8768 144.852 11.4856 144.852 10.5967C144.852 9.49434 145.955 9.13876 147.057 9.13876C148.87 9.13876 150.151 9.88549 150.151 9.88549L150.897 7.68084C150.897 7.68084 149.439 6.93409 146.523 6.93409C143.43 6.93409 141.403 8.21422 141.403 10.9523C141.403 12.9791 142.328 13.8681 144.141 14.9704L146.168 16.0728C147.092 16.6062 147.448 16.8195 147.448 17.7085C147.448 18.8108 146.523 19.3442 145.066 19.3442C142.683 19.3442 141.403 18.5975 141.403 18.5975L140.656 20.8021C140.656 20.8021 142.114 21.7266 145.421 21.7266C148.693 21.7266 151.253 20.6243 151.253 17.3529ZM158.009 3.48487C158.009 2.38254 157.085 1.45801 155.804 1.45801C154.346 1.45801 153.422 2.20475 153.422 3.48487C153.422 4.5872 154.346 5.51173 155.627 5.51173C157.085 5.47617 158.009 4.72944 158.009 3.48487ZM157.653 7.28968H153.813V21.3711H157.653V7.28968ZM169.708 21.0155L169.175 18.8108C169.175 18.8108 168.428 19.1664 167.539 19.1664C165.725 19.1664 165.512 18.0641 165.512 16.6062V9.31655H169.708V7.28968H165.512V4.19605H162.952V4.37385C162.774 5.83177 161.672 7.28968 160.214 7.64527L159.858 7.82307V9.63658H161.672V16.5706C161.672 17.6729 161.672 18.7753 162.027 19.4864C162.561 21.2999 164.054 21.8689 166.401 21.8689C168.072 21.7266 169.317 21.3711 169.708 21.0155Z" fill="black"/>
  <path d="M184.321 7.28937H180.836L178.276 16.428C178.098 17.1748 177.743 18.0638 177.743 18.0638C177.743 18.0638 177.743 17.5304 177.387 16.2502L174.649 7.11157H170.453L176.107 21.9041L175.574 23.1842C175.04 24.4644 174.471 25.2111 173.369 25.2111C172.622 25.2111 171.733 24.8555 171.733 24.8555L171.378 27.238C171.378 27.238 172.302 27.5936 173.76 27.5936C176.143 27.5936 177.423 26.669 178.525 23.931L184.321 7.28937Z" fill="black"/>
  <path d="M203.309 14.437C203.309 10.0632 200.927 7.32516 196.553 7.32516C191.433 7.32516 189.441 10.9877 189.441 15.0059C189.441 19.3797 191.824 22.1177 196.198 22.1177C201.496 21.7266 203.309 18.2773 203.309 14.437ZM199.291 14.6148C199.291 18.0995 198.545 19.7353 196.375 19.7353C194.206 19.7353 193.46 17.9217 193.46 14.6148C193.46 11.13 194.206 9.49426 196.375 9.49426C198.545 9.49426 199.291 11.3078 199.291 14.6148ZM214.084 0.533385C214.084 0.533385 213.159 0 211.168 0C208.43 0 207.15 1.10233 206.403 2.91584C206.047 3.84038 206.047 5.65388 206.047 6.40062V7.14736H204.234V9.17423H206.047V21.2287H209.888V9.17423H212.804V7.36072H209.888V5.54721C209.888 4.44488 209.888 3.7337 210.243 3.34255C210.421 2.80917 210.99 2.41801 211.879 2.41801C212.804 2.41801 213.337 2.7736 213.337 2.7736L214.084 0.533385Z" fill="black"/>
  <path d="M160.569 28.8384C158.186 28.8384 156.729 30.1185 156.729 32.1098C156.729 33.9233 158.186 35.2034 160.391 35.2034C162.774 35.2034 164.231 33.9233 164.231 31.932C164.054 29.9407 162.56 28.8384 160.569 28.8384Z" fill="black"/>
  <path d="M96.8114 38.1548C87.3172 38.1548 86.2148 46.0133 86.2148 49.4625C86.2148 58.6012 92.4377 60.4147 97.5226 60.4147C102.074 60.4147 104.634 59.4902 105.381 59.1346C105.203 58.779 104.457 56.3966 104.279 55.8632C103.745 56.2188 102.074 56.7877 99.7273 56.7877C94.9624 56.7877 92.7933 53.6941 92.7933 50.5649V50.0315H106.306V49.8537C106.306 47.4712 106.128 44.3776 105.026 42.3507C103.568 39.4349 100.83 38.1548 96.8114 38.1548ZM100.118 47.1157H92.8288V46.9379C92.8288 46.4045 92.8288 45.3021 93.0066 44.3776C93.3622 42.173 94.6423 41.1062 96.4914 41.1062C99.0516 41.1062 100.154 42.5641 100.154 45.8711V47.1157H100.118Z" fill="black"/>
  <path d="M76.8979 47.1156C77.0757 47.1156 82.9429 45.302 82.9429 38.3325C82.9429 32.6786 78.178 31.0429 76.7201 30.8295C75.0844 30.4739 72.5241 30.2961 68.8616 30.2961C65.9457 30.2961 63.2077 30.4739 62.4609 30.4739V60.059H68.6838V48.1823H70.4973C70.4973 48.1823 78.7114 59.8812 78.8892 60.059H86.3922C85.8588 59.3123 76.5423 47.2578 76.5423 47.2578L76.8979 47.1156ZM73.2709 44.9465C72.5241 45.1242 72.1685 45.1242 70.7106 45.1242H68.6838V33.6031H68.8616C68.8616 33.6031 69.3949 33.6031 70.6751 33.6031C74.5154 33.6031 76.5067 35.4166 76.5067 39.4348C76.5423 42.7418 74.9066 44.3775 73.2709 44.9465Z" fill="black"/>
  <path d="M118.575 38.1548C114.201 38.1548 111.285 39.0793 110.538 39.2571C110.716 39.6127 111.463 42.1729 111.641 42.5285C112.387 42.1729 114.201 41.604 116.761 41.604C118.041 41.604 119.855 41.7818 120.601 43.4175C120.779 43.9509 120.957 44.6976 120.957 45.8V47.2579V47.4357L117.863 47.2579C115.481 47.2579 112.921 47.4357 110.929 48.7158C109.294 49.8181 108.547 51.4538 108.547 53.8363C108.547 57.8545 111.107 60.2369 115.303 60.2369C119.321 60.2369 120.779 58.0323 120.779 58.0323L121.313 57.2855V59.8458H127.358V46.6889C127.358 44.8754 127.358 43.0264 126.824 41.7462C125.686 39.4349 123.126 38.1548 118.575 38.1548ZM121.099 56.4321C120.921 56.6099 120.175 56.9655 118.539 56.9655C117.081 56.9655 114.876 56.6099 114.876 53.4807C114.876 52.9473 115.054 51.4539 115.801 50.7427C116.548 50.0315 117.614 49.6403 119.072 49.6403H120.886H121.064V56.4321H121.099Z" fill="black"/>
  <path d="M163.483 38.5461H157.082V60.0949H163.483V38.5461Z" fill="black"/>
  <path d="M140.835 38.1547C134.79 38.1547 130.771 42.7063 130.771 49.6759C130.771 56.4321 133.865 60.2724 139.555 60.2724C143.751 60.2724 145.208 57.89 145.386 57.89L145.92 57.1433V60.0591H152.142V27.167H145.742V38.6881V39.2215L145.386 38.8659C145.208 38.9015 143.928 38.1547 140.835 38.1547ZM145.6 41.6395V55.8987H145.422C145.422 55.8987 144.319 56.4321 142.684 56.4321C139.412 56.4321 137.385 53.694 137.385 49.1425C137.385 43.8442 139.412 41.2839 143.43 41.2839C144.853 41.2839 145.422 41.6395 145.6 41.6395Z" fill="black"/>
  <path d="M181.584 38.1548C177.033 38.1548 175.362 40.715 175.362 40.715L174.828 41.4618V38.5459H168.605V60.0947H175.006V42.7419H175.184C175.184 42.7419 176.286 42.2085 178.1 42.2085C180.304 42.2085 181.584 43.133 181.94 44.7688C182.118 45.5155 182.118 46.9734 182.118 47.5068V60.308H188.519V47.329C188.519 46.4045 188.519 44.591 188.163 43.133C187.95 41.284 186.669 38.1548 181.584 38.1548Z" fill="black"/>
  <path d="M201.108 38.1548C194.885 38.1548 191.969 41.8174 191.969 45.4444C191.969 51.0983 196.734 51.845 196.912 51.845L197.836 52.0228L196.912 52.3784C196.734 52.3784 193.64 53.6585 193.64 56.7521C193.64 58.9568 195.276 59.668 195.276 59.668L196.201 60.0236L195.276 60.2014C195.098 60.2014 190.725 60.7348 190.725 64.5751C190.725 68.9489 196.378 69.6956 199.685 69.6956C202.424 69.6956 204.628 69.34 206.442 68.7711C211.918 66.9576 212.665 63.295 212.665 61.0904C212.665 56.3254 209.002 55.792 205.908 55.792H202.815H201.179C200.254 55.792 198.619 55.7921 198.619 53.9785C198.619 52.8762 199.152 52.3428 199.365 52.3428H199.543L201.57 52.5206C207.224 52.5206 210.353 49.9604 210.353 45.7644C210.353 43.5598 209.073 42.2796 209.073 42.2796L208.717 41.924H213.091V38.8304C212.558 38.8304 204.522 38.8304 204.522 38.8304C204.024 38.1548 202.744 38.1548 201.108 38.1548ZM202.957 60.4503C204.984 60.4503 206.442 60.4503 207.153 61.197C207.508 61.5526 207.686 62.1216 207.686 62.6549C207.686 64.2907 206.584 66.3175 201.463 66.3175C199.081 66.3175 196.165 65.9619 196.165 63.0461C196.165 61.0192 197.801 60.308 197.979 60.308L202.957 60.4503ZM203.313 49.4981C202.779 49.8537 202.21 50.0315 201.499 50.0315C199.294 50.0315 198.014 48.3958 198.014 45.4799C198.014 44.022 198.192 42.2085 199.472 41.284C200.006 40.9284 200.752 40.7506 201.286 40.7506C203.49 40.7506 204.77 42.3863 204.77 45.3021C204.77 46.7601 204.593 48.5736 203.313 49.4981Z" fill="black"/>
  <path d="M49.5179 37.2659V4.01826C49.5179 2.91593 48.5934 2.20475 47.491 1.99139C47.3132 1.99139 42.3705 1.45801 25.3733 1.45801H25.1955C9.65623 1.45801 4.00235 1.8136 2.90002 1.99139C1.79769 2.16919 0.873154 3.09372 0.873154 4.01826C0.873154 4.19605 0.695359 37.2659 0.695359 37.2659C0.695359 37.4437 0.517564 39.6484 1.4421 42.3864C2.36663 45.6579 4.71353 50.0672 9.83403 54.0854C18.6171 60.8416 24.6266 63.4018 24.8044 63.5796C24.9822 63.5796 24.9822 63.5796 24.9822 63.5796C24.9822 63.5796 24.9822 63.5796 25.16 63.5796C25.3378 63.4018 31.3828 60.8416 40.1303 54.0854C45.4286 50.0672 47.6333 45.6934 48.7 42.3864C49.6957 39.8262 49.6957 37.6215 49.5179 37.2659ZM2.18884 4.19605C2.18884 3.66267 2.54443 3.27152 3.11337 3.27152C4.2157 3.09372 9.69179 2.73813 25.0177 2.73813H25.1955C42.0149 2.73813 46.9221 3.27152 46.9221 3.27152C47.6688 3.44932 48.0244 4.01826 48.0244 4.19605L48.2022 28.6607C45.9976 28.4829 39.6325 28.3051 25.3733 28.3051C10.7586 28.3051 4.35794 28.4829 2.18884 28.6607C2.18884 18.8108 2.18884 4.19605 2.18884 4.19605ZM44.0418 48.5737C43.864 48.0403 43.2951 47.827 42.9395 47.827C42.1927 47.827 41.6594 48.3604 41.6594 48.9293V49.1071C41.6594 49.1071 41.6594 49.1071 41.6594 48.9293C41.6594 48.1826 40.9126 47.827 40.3792 47.827C39.6325 47.827 39.0991 48.3604 39.0991 48.9293V49.1071C39.0991 49.1071 39.0991 49.1071 39.0991 48.9293C38.9213 48.1826 38.3524 47.827 37.819 47.827C37.0722 47.827 36.5388 48.3604 36.5388 48.9293V49.1071C36.5388 49.1071 36.5388 49.1071 36.5388 48.9293C36.5388 48.1826 35.7921 47.827 35.2587 47.827C34.512 47.827 33.9786 48.3604 33.9786 48.9293C33.8008 48.1826 33.2319 47.827 32.6985 47.827C31.9517 47.827 31.4184 48.3604 31.4184 49.1071C31.4184 49.8538 31.9517 50.3872 32.5207 50.3872C31.7739 50.565 31.4184 51.134 31.4184 51.6673C31.4184 52.4141 31.9517 52.9475 32.5207 52.9475C31.7739 52.9475 31.4184 53.6942 31.4184 54.2276C31.4184 54.9743 31.9517 55.5077 32.5207 55.5077C31.7739 55.6855 31.4184 56.2545 31.4184 56.7878C31.4184 57.3212 31.7739 57.8902 32.3429 58.068C31.8095 58.4236 31.5961 58.6014 31.5961 58.6014C28.6803 60.4149 26.6534 61.3394 26.1201 61.5172C25.5867 61.3394 23.7376 60.4149 20.8218 58.6014C20.8218 58.6014 20.4662 58.4236 19.8972 58.068C20.4306 57.8902 20.9996 57.3212 20.9996 56.7878C20.9996 56.0411 20.4662 55.5077 19.8972 55.5077H19.7194C19.7194 55.5077 19.7194 55.5077 19.8972 55.5077C20.644 55.3299 20.9996 54.761 20.9996 54.2276C20.9996 53.4809 20.4662 52.9475 19.8972 52.9475H19.7194C19.7194 52.9475 19.7194 52.9475 19.8972 52.9475C20.644 52.9475 20.9996 52.2007 20.9996 51.6673C20.9996 50.9206 20.4662 50.3872 19.8972 50.3872H19.7194C19.7194 50.3872 19.7194 50.3872 19.8972 50.3872C20.644 50.2094 20.9996 49.6405 20.9996 49.1071C20.9996 48.3604 20.4662 47.827 19.7194 47.827C18.9727 47.827 18.4393 48.3604 18.4393 48.9293V49.1071C18.4393 49.1071 18.4393 49.1071 18.4393 48.9293C18.2615 48.1826 17.6926 47.827 17.1592 47.827C16.4124 47.827 15.8791 48.3604 15.8791 48.9293V49.1071C15.8791 49.1071 15.8791 49.1071 15.8791 48.9293C15.7013 48.1826 15.1323 47.827 14.5989 47.827C13.8522 47.827 13.3188 48.3604 13.3188 48.9293V49.1071C13.3188 49.1071 13.3188 49.1071 13.3188 48.9293C13.3188 48.1826 12.5721 47.827 12.0387 47.827C11.2919 47.827 10.7586 48.3604 10.7586 48.9293V49.1071C10.7586 49.1071 10.7586 49.1071 10.7586 48.9293C10.5808 48.1826 10.0118 47.827 9.47844 47.827C8.94505 47.827 8.5539 48.1826 8.37611 48.5737C5.28247 44.5555 4.35794 40.7152 4.18014 38.7239V38.5461H4.35794C4.89132 38.3683 5.28247 38.0127 5.28247 37.4437V37.2659C5.28247 37.2659 5.28247 37.2659 5.28247 37.4437C5.46027 38.1905 6.02921 38.5461 6.5626 38.5461C7.30934 38.5461 7.84272 38.0127 7.84272 37.4437V37.2659C7.84272 37.2659 7.84272 37.2659 7.84272 37.4437C8.02052 38.1905 8.58946 38.5461 9.12285 38.5461C9.86959 38.5461 10.403 38.0127 10.403 37.4437V37.2659C10.403 37.2659 10.403 37.2659 10.403 37.4437C10.5808 38.1905 11.1497 38.5461 11.6831 38.5461C12.4298 38.5461 12.9632 38.0127 12.9632 37.4437V37.2659C12.9632 37.2659 12.9632 37.2659 12.9632 37.4437C13.141 38.1905 13.71 38.5461 14.2433 38.5461C14.9901 38.5461 15.5235 38.0127 15.5235 37.4437V37.2659C15.5235 37.2659 15.5235 37.2659 15.5235 37.4437C15.5235 38.1905 16.2702 38.5461 16.8036 38.5461C17.5503 38.5461 18.0837 38.0127 18.0837 37.4437C18.2615 38.1905 18.8305 38.5461 19.3638 38.5461C20.1106 38.5461 20.644 38.0127 20.644 37.2659C20.644 36.5192 20.1106 35.9858 19.5416 35.9858C20.2884 35.808 20.644 35.2391 20.644 34.7057C20.644 33.959 20.1106 33.4256 19.5416 33.4256C20.2884 33.4256 20.644 32.6788 20.644 32.1454C20.644 31.3987 20.1106 30.8653 19.5416 30.8653C19.8972 30.8653 20.2884 30.5097 20.4662 30.1186C23.0264 30.1186 25.0177 30.1186 25.7645 30.1186C26.5112 30.1186 28.6803 30.1186 31.2406 30.1186C31.4184 30.4742 31.7739 30.652 32.1651 30.8653H32.3429C32.3429 30.8653 32.3429 30.8653 32.1651 30.8653C31.4184 31.0431 31.0628 31.6121 31.0628 32.1454C31.0628 32.8922 31.5961 33.4256 32.1651 33.4256C32.1651 33.4256 32.3429 33.4256 32.3429 33.6034C32.3429 33.6034 32.3429 33.6034 32.1651 33.6034C31.4184 33.6034 31.0628 34.3501 31.0628 34.8835C31.0628 35.6302 31.5961 36.1636 32.1651 36.1636H32.3429C32.3429 36.1636 32.3429 36.1636 32.1651 36.1636C31.4184 36.1636 31.0628 36.9104 31.0628 37.4437C31.0628 38.1905 31.5961 38.7239 32.3429 38.7239C33.0896 38.7239 33.623 38.1905 33.623 37.6215V37.4437C33.623 37.4437 33.623 37.4437 33.623 37.6215C33.8008 38.3683 34.3698 38.7239 34.9031 38.7239C35.6499 38.7239 36.1833 38.1905 36.1833 37.6215V37.4437C36.1833 37.4437 36.1833 37.4437 36.1833 37.6215C36.3611 38.3683 36.93 38.7239 37.4634 38.7239C38.2101 38.7239 38.7435 38.1905 38.7435 37.6215V37.4437C38.7435 37.4437 38.7435 37.4437 38.7435 37.6215C38.9213 38.3683 39.4902 38.7239 40.0236 38.7239C40.7704 38.7239 41.3038 38.1905 41.3038 37.6215V37.4437C41.3038 37.4437 41.3038 37.4437 41.3038 37.6215C41.3038 38.3683 42.0505 38.7239 42.5839 38.7239C43.3306 38.7239 43.864 38.1905 43.864 37.6215V37.4437C43.864 37.4437 43.864 37.4437 43.864 37.6215C44.0418 38.3683 44.6107 38.7239 45.1441 38.7239C45.8909 38.7239 46.4243 38.1905 46.4243 37.6215V37.4437C46.4243 37.4437 46.4243 37.4437 46.4243 37.6215C46.4243 38.1549 46.9576 38.5461 47.5266 38.7239V38.9016C48.06 40.7152 47.3132 44.3777 44.0418 48.5737Z" fill="black"/>
  <path d="M25.2313 40.7148C24.4846 40.7148 23.9512 41.2482 23.9512 41.995C23.9512 42.7417 24.4846 43.2751 25.2313 43.2751C25.978 43.2751 26.5114 42.7417 26.5114 41.995C26.5114 41.2482 25.9425 40.7148 25.2313 40.7148Z" fill="#FFE400"/>
  <path d="M25.2313 43.4531C25.9383 43.4531 26.5114 42.8799 26.5114 42.1729C26.5114 41.466 25.9383 40.8928 25.2313 40.8928C24.5243 40.8928 23.9512 41.466 23.9512 42.1729C23.9512 42.8799 24.5243 43.4531 25.2313 43.4531Z" stroke="#FFE400" stroke-width="1.60934"/>
  <path d="M29.9594 41.284C29.7816 41.1062 29.6038 41.1062 29.2127 41.284H28.8571L28.6793 41.4618L28.1459 41.6396C27.2214 41.9952 26.8658 41.8174 26.8658 41.6396V41.4618C26.8658 41.284 27.2214 41.1062 27.7903 40.9284L28.3237 40.7506H28.5015L28.8571 40.5728C29.0349 40.5728 29.2127 40.395 29.2127 40.0394C29.5683 39.1149 28.8571 38.2259 28.1104 37.657C27.1858 37.1236 26.0835 36.7324 25.3723 37.3014C25.1945 37.4792 25.0167 37.657 25.0167 37.8347V38.1903V38.5459V39.0793C25.0167 40.1816 24.8389 40.3594 24.6611 40.3594H24.4833C24.3055 40.1816 24.3055 39.4349 24.3055 39.2571V38.7237V38.5459V38.1903C24.3055 38.0125 24.3055 37.8347 23.95 37.657C23.4166 37.1236 22.1364 37.4792 21.2119 38.0125C20.4652 38.5459 19.754 39.4705 20.1096 40.395C20.2874 40.5728 20.2874 40.7506 20.4652 40.9284L20.8208 41.1062H20.9986L21.5319 41.284C22.0653 41.4618 22.4565 41.6396 22.4565 41.8174V41.9952C22.4565 42.173 22.2787 42.3507 21.1763 41.9952L21.5319 41.4618L21.3541 41.284L20.9986 41.1062C20.8208 41.1062 20.643 41.1062 20.2518 41.1062C19.5051 41.4618 19.5051 42.2085 19.8962 43.6664C20.074 44.7688 20.8208 45.6933 21.7097 45.6933C22.0653 45.6933 22.2431 45.6933 22.2431 45.5155L22.4209 45.1599L22.5987 44.9821L22.9543 44.4487C23.1321 44.2709 23.4877 43.702 23.8788 43.702H24.0566V43.8798C24.0566 44.0576 23.701 44.6265 23.701 44.8043L23.3454 45.3377L23.1677 45.5155L22.9899 45.6933C22.8121 45.8711 22.8121 46.0489 22.8121 46.44C22.9899 47.1868 24.0922 47.7202 25.1945 47.7202C26.1191 47.7202 27.2214 47.5424 27.577 46.6178C27.577 46.44 27.577 46.0844 27.577 45.8711L27.3992 45.5155L27.0436 45.3377L26.688 44.8043L26.5102 44.6265C26.3324 44.4487 25.9768 43.8798 26.1546 43.702V43.5242H26.3324C26.5102 43.5242 26.688 43.702 27.2569 44.2709L27.6125 44.8043L27.7903 44.9821L27.9681 45.3377C28.1459 45.5155 28.3237 45.5155 28.5015 45.5155C29.2482 45.5155 29.9594 44.4132 30.315 43.4886C30.4928 43.133 30.4928 42.7419 30.4928 42.3863C30.7062 41.8174 30.5284 41.284 29.9594 41.284ZM25.2301 43.4531C24.4833 43.4531 23.95 42.9197 23.95 42.173C23.95 41.4262 24.4833 40.8928 25.2301 40.8928C25.9768 40.8928 26.5102 41.4262 26.5102 42.173C26.5102 42.5641 25.9413 43.4531 25.2301 43.4531Z" fill="#E32118"/>
  <path d="M29.2495 40.7154C29.0717 40.7154 29.0717 40.7154 28.7161 40.8932C28.5383 40.8932 28.1827 41.071 27.9694 41.071C27.436 41.2488 27.2227 41.4265 27.2227 41.6043C27.2227 41.7821 27.5782 41.6043 28.1472 41.4265C28.325 41.4265 28.6806 41.2488 28.8939 41.071C29.2495 40.8932 29.2495 40.8932 29.4273 40.8932C29.7829 40.7154 30.1741 40.8932 30.3519 40.8932C30.5296 41.071 30.7074 41.071 30.7074 41.2488C31.8098 39.9686 32.3432 39.7908 32.3432 39.7908C32.3432 39.7908 31.4186 39.9686 29.9607 39.613C29.9607 39.7908 29.9607 39.7908 29.9607 39.9686C29.7829 40.0042 29.6051 40.3598 29.2495 40.7154Z" fill="#009580"/>
  <path d="M29.2495 40.7154C29.0717 40.7154 29.0717 40.7154 28.7161 40.8932C28.5383 40.8932 28.1827 41.071 27.9694 41.071C27.436 41.2488 27.2227 41.4265 27.2227 41.6043C27.2227 41.7821 27.5782 41.6043 28.1472 41.4265C28.325 41.4265 28.6806 41.2488 28.8939 41.071C29.2495 40.8932 29.2495 40.8932 29.4273 40.8932C29.7829 40.7154 30.1741 40.8932 30.3519 40.8932C30.5296 41.071 30.7074 41.071 30.7074 41.2488C31.8098 39.9686 32.3432 39.7908 32.3432 39.7908C32.3432 39.7908 31.4186 39.9686 29.9607 39.613C29.9607 39.7908 29.9607 39.7908 29.9607 39.9686C29.7829 40.0042 29.6051 40.3598 29.2495 40.7154Z" stroke="#009580" stroke-width="1.60934"/>
  <path d="M25.0518 37.6213C25.0518 37.7991 25.0518 37.7991 25.0518 38.1547C25.0518 38.3325 25.0518 38.6881 25.0518 39.0793C25.0518 39.6126 25.0518 40.0038 25.2296 39.826C25.4074 39.826 25.4074 39.4704 25.4074 39.0793C25.4074 38.9015 25.4074 38.5459 25.4074 38.1547C25.4074 37.7991 25.4074 37.7991 25.4074 37.6213C25.4074 37.2658 25.5852 36.8746 25.763 36.8746C25.9408 36.6968 25.9408 36.6968 26.1186 36.6968C25.3719 35.2389 25.1941 34.8833 25.1941 34.8833C25.1941 34.8833 25.0163 35.4167 24.2695 36.9102C24.4473 36.9102 24.4473 36.9102 24.6251 37.088C24.8385 37.088 25.0518 37.2658 25.0518 37.6213Z" fill="#009580"/>
  <path d="M25.0518 37.6213C25.0518 37.7991 25.0518 37.7991 25.0518 38.1547C25.0518 38.3325 25.0518 38.6881 25.0518 39.0793C25.0518 39.6126 25.0518 40.0038 25.2296 39.826C25.4074 39.826 25.4074 39.4704 25.4074 39.0793C25.4074 38.9015 25.4074 38.5459 25.4074 38.1547C25.4074 37.7991 25.4074 37.7991 25.4074 37.6213C25.4074 37.2658 25.5852 36.8746 25.763 36.8746C25.9408 36.6968 25.9408 36.6968 26.1186 36.6968C25.3719 35.2389 25.1941 34.8833 25.1941 34.8833C25.1941 34.8833 25.0163 35.4167 24.2695 36.9102C24.4473 36.9102 24.4473 36.9102 24.6251 37.088C24.8385 37.088 25.0518 37.2658 25.0518 37.6213Z" stroke="#009580" stroke-width="1.60934"/>
  <path d="M28.8565 45.8357C28.6787 45.8357 28.3231 45.8357 28.1098 45.4801C27.932 45.3023 27.932 45.3023 27.7542 44.9467C27.5764 44.7689 27.3986 44.4133 27.2208 44.1999C26.8652 43.8444 26.474 43.4532 26.474 43.6666C26.2963 43.6666 26.474 44.0221 26.8296 44.4133C27.0074 44.5911 27.1852 44.9467 27.363 45.16C27.5408 45.5156 27.5408 45.5156 27.7186 45.6934C27.8964 46.049 27.8964 46.4402 27.8964 46.618C27.8964 46.7958 27.8964 46.7958 27.7186 46.9735C29.1765 47.7203 29.7455 48.0759 29.7455 48.0759C29.6032 48.0403 29.2476 47.2936 28.8565 45.8357Z" fill="#009580"/>
  <path d="M28.8565 45.8357C28.6787 45.8357 28.3231 45.8357 28.1098 45.4801C27.932 45.3023 27.932 45.3023 27.7542 44.9467C27.5764 44.7689 27.3986 44.4133 27.2208 44.1999C26.8652 43.8444 26.474 43.4532 26.474 43.6666C26.2963 43.6666 26.474 44.0221 26.8296 44.4133C27.0074 44.5911 27.1852 44.9467 27.363 45.16C27.5408 45.5156 27.5408 45.5156 27.7186 45.6934C27.8964 46.049 27.8964 46.4402 27.8964 46.618C27.8964 46.7958 27.8964 46.7958 27.7186 46.9735C29.1765 47.7203 29.7455 48.0759 29.7455 48.0759C29.6032 48.0403 29.2476 47.2936 28.8565 45.8357Z" stroke="#009580" stroke-width="1.60934"/>
  <path d="M23.2027 45.3022C23.3805 45.1244 23.5583 44.7689 23.7361 44.5555C24.0917 44.1999 24.0917 44.0221 23.9139 43.8088C23.7361 43.631 23.5583 43.9866 23.1671 44.3422C22.9894 44.5199 22.8116 44.8755 22.6338 45.0889C22.456 45.4445 22.456 45.4445 22.2782 45.6223C22.1004 45.8001 21.7448 45.8001 21.5314 45.8001C21.3181 45.8001 21.5314 45.8001 21.3536 45.8001C21.1758 47.4358 20.998 48.0047 20.998 48.0047C20.998 48.0047 21.3536 47.6491 22.8116 47.0802C22.6338 46.9024 22.6338 46.7246 22.456 46.5468C22.456 46.369 22.456 46.0134 22.6338 45.6223C22.8471 45.48 22.8471 45.48 23.2027 45.3022Z" fill="#009580"/>
  <path d="M23.2027 45.3022C23.3805 45.1244 23.5583 44.7689 23.7361 44.5555C24.0917 44.1999 24.0917 44.0221 23.9139 43.8088C23.7361 43.631 23.5583 43.9866 23.1671 44.3422C22.9894 44.5199 22.8116 44.8755 22.6338 45.0889C22.456 45.4445 22.456 45.4445 22.2782 45.6223C22.1004 45.8001 21.7448 45.8001 21.5314 45.8001C21.3181 45.8001 21.5314 45.8001 21.3536 45.8001C21.1758 47.4358 20.998 48.0047 20.998 48.0047C20.998 48.0047 21.3536 47.6491 22.8116 47.0802C22.6338 46.9024 22.6338 46.7246 22.456 46.5468C22.456 46.369 22.456 46.0134 22.6338 45.6223C22.8471 45.48 22.8471 45.48 23.2027 45.3022Z" stroke="#009580" stroke-width="1.60934"/>
  <path d="M21.0329 40.7153C21.2107 40.7153 21.2107 40.8931 21.5663 40.8931C21.7441 40.8931 22.0997 41.0709 22.313 41.2487C22.8464 41.4264 23.0598 41.4264 23.2376 41.2487C23.2376 41.0709 23.0598 40.8931 22.4908 40.7153C22.313 40.7153 21.9574 40.5375 21.7441 40.5375C21.3885 40.3597 21.3885 40.5375 21.2107 40.3597C20.8551 40.1819 20.6773 40.0041 20.6773 39.8263C20.6773 39.6485 20.6773 39.6485 20.6773 39.4707C19.0416 39.8263 18.4727 39.6485 18.4727 39.8263C18.4727 39.8263 18.8282 40.0041 20.1084 41.2842C20.2862 41.1064 20.2862 41.1064 20.464 40.9286C20.2862 40.7153 20.6418 40.7153 21.0329 40.7153Z" fill="#009580"/>
  <path d="M21.0329 40.7153C21.2107 40.7153 21.2107 40.8931 21.5663 40.8931C21.7441 40.8931 22.0997 41.0709 22.313 41.2487C22.8464 41.4264 23.0598 41.4264 23.2376 41.2487C23.2376 41.0709 23.0598 40.8931 22.4908 40.7153C22.313 40.7153 21.9574 40.5375 21.7441 40.5375C21.3885 40.3597 21.3885 40.5375 21.2107 40.3597C20.8551 40.1819 20.6773 40.0041 20.6773 39.8263C20.6773 39.6485 20.6773 39.6485 20.6773 39.4707C19.0416 39.8263 18.4727 39.6485 18.4727 39.8263C18.4727 39.8263 18.8282 40.0041 20.1084 41.2842C20.2862 41.1064 20.2862 41.1064 20.464 40.9286C20.2862 40.7153 20.6418 40.7153 21.0329 40.7153Z" stroke="#009580" stroke-width="1.60934"/>
  <path d="M29.9594 39.0796C29.9594 38.3328 29.4261 37.6217 28.6793 37.0527C28.1459 36.5193 27.2214 36.306 26.6525 36.306C26.1191 35.5592 25.3723 33.3901 25.1945 33.3901C25.0167 33.3901 24.4478 35.417 23.9144 36.306C23.1677 36.1282 22.4565 36.4838 21.7098 37.0527C21.1764 37.5861 20.6074 38.1551 20.4296 38.8662C19.5051 39.044 17.1582 39.2218 17.1582 39.2218C17.1582 39.2218 18.9717 40.5019 19.5407 41.4265C19.3629 41.9599 19.3629 42.8844 19.5407 43.4533C19.7185 44.3779 20.2874 45.0891 20.9986 45.4802C20.9986 46.4047 20.2518 48.7516 20.2518 48.7516C20.2518 48.7516 22.0653 47.4715 23.1677 47.1159C23.7011 47.4715 24.4478 47.6493 25.1945 47.8627C25.9413 47.8627 26.6525 47.6849 27.2214 47.1159C28.1459 47.4715 30.1372 48.7516 30.1372 48.7516C30.1372 48.7516 29.3905 46.547 29.3905 45.4802C30.1372 45.1246 30.6706 44.3779 30.8484 43.4533C31.0262 42.7066 31.0262 41.9954 30.8484 41.4265C31.3818 40.6797 33.2309 39.2218 33.2309 39.2218C33.2664 39.4352 31.0618 39.4352 29.9594 39.0796ZM30.7062 41.2842C30.5284 41.1064 30.5284 41.1064 30.3506 40.9287C30.1728 40.7509 29.8172 40.7509 29.4261 40.9287C29.2483 40.9287 29.2483 41.1064 28.8927 41.1064C28.7149 41.1064 28.3593 41.2842 28.1459 41.462C27.6126 41.6398 27.3992 41.6398 27.2214 41.6398C27.2214 41.462 27.3992 41.2842 27.9681 41.1064C28.1459 41.1064 28.5015 40.9287 28.7149 40.9287C29.0705 40.7509 29.0705 40.9287 29.2483 40.7509C29.6039 40.5731 29.7817 40.3953 29.7817 40.2175C29.7817 40.0397 29.7817 40.0397 29.7817 39.8619C31.4174 40.2175 32.1641 40.0397 32.1641 40.0397C32.3419 40.0041 31.8085 40.0041 30.7062 41.2842ZM25.2301 34.8836C25.2301 34.8836 25.4079 35.417 26.1546 36.9105C25.9768 36.9105 25.9768 36.9105 25.799 37.0883C25.6213 37.2661 25.4435 37.4439 25.4435 37.835C25.4435 38.0128 25.4435 38.0128 25.4435 38.3684C25.4435 38.5462 25.4435 38.9018 25.4435 39.2929C25.4435 39.8263 25.4435 40.2175 25.2657 40.0397C25.0879 40.0397 25.0879 39.6841 25.0879 39.2929C25.0879 39.1151 25.0879 38.7595 25.0879 38.3684C25.0879 38.0128 25.0879 38.0128 25.0879 37.835C25.0879 37.4794 24.9101 37.0883 24.7323 37.0883C24.5545 36.7327 24.5545 36.7327 24.3767 36.7327C25.0523 35.2392 25.2301 34.8836 25.2301 34.8836ZM19.754 41.2842C18.6517 40.1819 18.1183 39.8263 18.1183 39.8263C18.1183 39.8263 18.6517 39.8263 20.323 39.4707C20.323 39.6485 20.323 39.6485 20.323 39.8263C20.323 40.0041 20.5008 40.3597 20.8563 40.3597C21.0341 40.3597 21.0341 40.3597 21.3897 40.5375C21.5675 40.5375 21.9231 40.7153 22.1365 40.7153C22.6699 40.8931 22.8832 41.0709 22.8832 41.2487C22.8832 41.4265 22.5276 41.4265 21.9587 41.2487C21.7809 41.2487 21.4253 41.0709 21.2119 40.8931C20.8563 40.7153 20.8563 40.7153 20.6785 40.7153C20.323 40.5375 19.9318 40.7153 19.754 40.7153C19.9318 40.9287 19.9318 40.9287 19.754 41.2842ZM21.0341 48.0405C21.0341 48.0405 21.2119 47.5071 21.3897 45.8358C21.5675 45.8358 21.3897 45.8358 21.5675 45.8358C21.7453 45.8358 22.1009 45.8358 22.3143 45.4802C22.4921 45.3024 22.4921 45.3024 22.6699 44.9468C22.8476 44.769 23.0254 44.4134 23.2032 44.2001C23.5588 43.8445 23.7366 43.4533 23.95 43.6667C24.1278 43.8445 23.95 44.0223 23.7722 44.4134C23.5944 44.5912 23.4166 44.9468 23.2388 45.1602C23.061 45.5158 23.061 45.338 22.8832 45.5158C22.7054 45.8714 22.7054 46.0492 22.7054 46.4403C22.7054 46.6181 22.8832 46.7959 23.061 46.9737C21.3897 47.6849 21.0341 48.0405 21.0341 48.0405ZM29.4261 48.0405C29.4261 48.0405 28.8927 47.6849 27.3992 46.9381C27.577 46.7603 27.577 46.7603 27.577 46.5825C27.577 46.4047 27.7548 46.0491 27.3992 45.658C27.2214 45.4802 27.2214 45.4802 27.0436 45.1246C26.8658 44.9468 26.688 44.5912 26.5102 44.3779C26.3324 44.0223 25.9768 43.6311 26.1546 43.6311C26.3324 43.4533 26.688 43.8089 26.9014 44.1645C27.0792 44.3423 27.257 44.6979 27.4348 44.9113C27.6126 45.2669 27.6126 45.2669 27.7903 45.4447C28.3237 45.8002 28.7149 45.8002 28.8927 45.8002C29.0705 45.8002 28.8927 45.8002 29.0705 45.8002C29.2483 47.2937 29.6039 48.0405 29.4261 48.0405ZM30.3506 43.6667C30.1728 44.769 29.4261 45.6936 28.7149 45.6936C28.5371 45.6936 28.3593 45.6936 28.1815 45.5158C28.0037 45.338 28.0037 45.1602 27.8259 44.9824C27.6481 44.8046 27.6481 44.6268 27.4703 44.449C27.2925 44.2712 26.5458 43.3467 26.1902 43.7023C25.8346 44.0578 26.368 44.8046 26.5458 45.1602C26.7236 45.338 26.7236 45.5158 26.9014 45.6936C27.0792 45.8714 27.0792 46.0491 27.257 46.2269C27.257 46.4047 27.4348 46.4047 27.257 46.7603C27.0792 47.2937 26.1546 47.6849 25.0523 47.6849C23.95 47.6849 22.8476 47.3293 22.8476 46.5825C22.8476 46.5825 22.8476 46.5825 22.8476 46.4047C22.8476 46.2269 22.8476 46.0491 23.0254 46.0491C23.2032 45.8714 23.2032 45.8714 23.381 45.6936C23.5588 45.5158 23.5588 45.338 23.7366 45.1602C23.9144 44.9824 24.4834 44.2356 24.0922 43.88C23.7366 43.5245 22.9899 44.4134 22.8121 44.6268C22.6343 44.8046 22.4565 44.9824 22.4565 45.1602C22.2787 45.338 22.2787 45.5158 22.1009 45.6936C21.9231 45.8714 21.9231 45.8714 21.5675 45.8714C20.8208 45.8714 20.2874 44.9468 19.9318 43.8445C19.754 42.92 19.5762 41.8176 20.2874 41.462C20.4652 41.2842 20.643 41.2842 20.8208 41.462C20.9986 41.462 21.1764 41.6398 21.3542 41.6398C21.532 41.6398 21.7098 41.8176 21.8876 41.8176C22.2431 41.9954 23.1677 42.351 23.3455 41.8176C23.5233 41.2842 22.5987 40.8931 22.2431 40.8931C22.0653 40.8931 21.8876 40.7153 21.7098 40.7153C21.3542 40.7153 21.3542 40.7153 21.1764 40.5375C20.9986 40.5375 20.9986 40.3597 20.8208 40.1819C20.4652 39.4352 21.1764 38.5462 21.9231 37.9773C22.8476 37.4439 23.95 37.0527 24.3056 37.6217C24.4834 37.7995 24.4834 37.9773 24.4834 38.1551C24.4834 38.3328 24.4834 38.5106 24.4834 38.6884C24.4834 38.8662 24.4834 39.044 24.4834 39.2218C24.4834 39.5774 24.4834 40.6797 25.0167 40.6797C25.5501 40.6797 25.5501 39.5774 25.5501 39.2218C25.5501 39.044 25.5501 38.6884 25.5501 38.6884C25.5501 38.3328 25.5501 38.3328 25.5501 38.1551C25.5501 37.9773 25.5501 37.7995 25.7279 37.6217C26.2613 37.2661 27.3636 37.4439 28.1104 37.9773C28.8571 38.5106 29.5683 39.4352 29.2127 40.1819C29.0349 40.3597 29.0349 40.5375 28.8571 40.5375C28.6793 40.5375 28.5015 40.5375 28.3237 40.7153C28.1459 40.7153 27.9681 40.8931 27.7903 40.8931C27.4348 41.0709 26.5102 41.4265 26.688 41.8176C26.8658 42.351 27.7903 41.9954 28.1459 41.8176C28.3237 41.8176 28.5015 41.6398 28.6793 41.6398C28.8571 41.462 29.0349 41.462 29.2127 41.462C29.3905 41.462 29.5683 41.462 29.7461 41.462C30.5284 41.6398 30.5284 42.5644 30.3506 43.6667Z" fill="black"/>
  <path d="M29.7825 15.5391C29.4269 15.3613 29.0357 15.0058 29.0357 14.7924C28.6801 14.4368 26.1199 10.952 25.551 10.2408C25.3732 10.063 25.1954 9.88525 25.0176 9.88525C24.8398 9.88525 24.662 9.88525 24.4842 10.2408C23.9508 11.1654 21.5683 14.4368 20.9994 14.7924C20.8216 14.9702 20.466 15.148 20.2527 15.5391C20.0749 15.7169 19.3281 16.2859 19.3281 16.6415C19.3281 16.8193 19.3281 16.9971 19.3281 17.1749C19.3281 17.3527 19.5059 17.5304 19.6837 17.7082C19.8615 17.5304 21.8884 15.5036 22.0662 15.5036C22.244 15.6814 20.2527 18.0638 20.0393 18.2416C20.0393 18.2416 20.2171 18.775 20.3949 19.1662C20.5727 19.5217 20.9283 19.6995 20.9283 19.6995C21.1061 19.5217 22.9551 16.6059 23.1329 16.6059C23.3107 16.6059 21.675 19.8773 21.4972 20.0907C21.4972 20.0907 22.0306 20.6241 22.4218 20.8374C22.5996 21.0152 22.9551 21.0152 23.1685 21.0152C23.1685 20.8374 24.2708 17.1749 24.4486 17.1749C24.6264 17.1749 24.093 21.0152 24.093 21.193C24.093 21.193 24.4486 21.193 24.6264 21.3708C24.8042 21.3708 24.982 21.5486 25.1598 21.5486C25.3376 21.5486 25.5154 21.3708 25.6932 21.3708C25.871 21.3708 26.2266 21.193 26.2266 21.193C26.2266 21.0152 25.6932 17.1749 25.871 17.1749C26.0488 17.1749 26.9733 20.8374 27.1511 21.0152C27.3289 21.0152 27.6845 20.8374 27.8978 20.8374C28.0756 20.6596 28.8224 20.0907 28.8224 20.0907C28.8224 19.9129 27.0089 16.6059 27.1867 16.6059C27.3645 16.6059 29.2135 19.5217 29.3913 19.6995C29.3913 19.6995 29.7469 19.5217 29.9247 19.1662C30.1025 18.8106 30.2803 18.2416 30.2803 18.2416C30.1025 18.0638 28.0756 15.5036 28.2534 15.5036C28.4312 15.3258 30.4581 17.5304 30.6359 17.7082C30.6359 17.5304 30.8137 17.3527 30.9915 17.1749C30.9915 16.9971 31.1693 16.8193 30.9915 16.6415C30.707 16.0725 30.1381 15.5391 29.7825 15.5391Z" fill="#FFE400"/>
  <path d="M29.7825 15.5391C29.4269 15.3613 29.0357 15.0058 29.0357 14.7924C28.6801 14.4368 26.1199 10.952 25.551 10.2408C25.3732 10.063 25.1954 9.88525 25.0176 9.88525C24.8398 9.88525 24.662 9.88525 24.4842 10.2408C23.9508 11.1654 21.5683 14.4368 20.9994 14.7924C20.8216 14.9702 20.466 15.148 20.2527 15.5391C20.0749 15.7169 19.3281 16.2859 19.3281 16.6415C19.3281 16.8193 19.3281 16.9971 19.3281 17.1749C19.3281 17.3527 19.5059 17.5304 19.6837 17.7082C19.8615 17.5304 21.8884 15.5036 22.0662 15.5036C22.244 15.6814 20.2527 18.0638 20.0393 18.2416C20.0393 18.2416 20.2171 18.775 20.3949 19.1662C20.5727 19.5217 20.9283 19.6995 20.9283 19.6995C21.1061 19.5217 22.9551 16.6059 23.1329 16.6059C23.3107 16.6059 21.675 19.8773 21.4972 20.0907C21.4972 20.0907 22.0306 20.6241 22.4218 20.8374C22.5996 21.0152 22.9551 21.0152 23.1685 21.0152C23.1685 20.8374 24.2708 17.1749 24.4486 17.1749C24.6264 17.1749 24.093 21.0152 24.093 21.193C24.093 21.193 24.4486 21.193 24.6264 21.3708C24.8042 21.3708 24.982 21.5486 25.1598 21.5486C25.3376 21.5486 25.5154 21.3708 25.6932 21.3708C25.871 21.3708 26.2266 21.193 26.2266 21.193C26.2266 21.0152 25.6932 17.1749 25.871 17.1749C26.0488 17.1749 26.9733 20.8374 27.1511 21.0152C27.3289 21.0152 27.6845 20.8374 27.8978 20.8374C28.0756 20.6596 28.8224 20.0907 28.8224 20.0907C28.8224 19.9129 27.0089 16.6059 27.1867 16.6059C27.3645 16.6059 29.2135 19.5217 29.3913 19.6995C29.3913 19.6995 29.7469 19.5217 29.9247 19.1662C30.1025 18.8106 30.2803 18.2416 30.2803 18.2416C30.1025 18.0638 28.0756 15.5036 28.2534 15.5036C28.4312 15.3258 30.4581 17.5304 30.6359 17.7082C30.6359 17.5304 30.8137 17.3527 30.9915 17.1749C30.9915 16.9971 31.1693 16.8193 30.9915 16.6415C30.707 16.0725 30.1381 15.5391 29.7825 15.5391Z" stroke="#FFE400" stroke-width="1.4806"/>
  <path d="M23.3805 10.9519H21.1758H20.998C20.998 11.1297 20.998 11.3075 20.998 11.3075L21.7448 13.3344C21.9226 13.1566 23.2027 11.5208 23.3805 10.9519Z" fill="#FFE400"/>
  <path d="M23.3805 10.9519H21.1758H20.998C20.998 11.1297 20.998 11.3075 20.998 11.3075L21.7448 13.3344C21.9226 13.1566 23.2027 11.5208 23.3805 10.9519Z" stroke="#FFE400" stroke-width="1.4806"/>
  <path d="M29.4293 11.5211C29.4293 11.5211 29.4293 11.3433 29.4293 11.1655H29.2515H27.0469C27.2247 11.5211 28.5048 13.1924 28.6826 13.3702L29.4293 11.5211Z" fill="#FFE400"/>
  <path d="M29.4293 11.5211C29.4293 11.5211 29.4293 11.3433 29.4293 11.1655H29.2515H27.0469C27.2247 11.5211 28.5048 13.1924 28.6826 13.3702L29.4293 11.5211Z" stroke="#FFE400" stroke-width="1.4806"/>
  <path d="M15.5222 15.5392C15.1667 15.3614 14.7755 15.0058 14.7755 15.0058C14.4199 14.6502 11.8597 10.9876 11.2907 10.4542C11.1129 10.0986 10.9351 10.0986 10.7573 10.0986C10.5795 10.0986 10.4017 10.0986 10.224 10.4542C9.86836 11.3788 7.30811 14.6502 6.95252 15.0058C6.77473 15.1836 6.41914 15.1836 6.20579 15.5392C6.02799 15.717 5.28125 16.2859 5.28125 16.6415C5.28125 16.8193 5.28125 16.9971 5.28125 17.1749C5.28125 17.3527 5.45905 17.5305 5.63684 17.7083C5.81464 17.5305 7.8415 15.5036 8.01929 15.5036C8.19709 15.6814 6.20578 18.0639 5.99243 18.2417C5.99243 18.2417 6.17023 18.775 6.34802 19.1662C6.52582 19.5218 6.88141 19.9129 6.88141 19.9129C6.88141 19.7351 8.69492 16.8193 8.90827 16.9971C9.08607 16.9971 7.45035 20.2685 7.27256 20.4819C7.27256 20.4819 7.80594 21.0153 8.19709 21.2286C8.37489 21.4064 8.73047 21.4064 8.94383 21.4064C8.94383 21.2286 10.0462 17.566 10.224 17.566C10.4017 17.566 9.86836 21.4064 9.86836 21.5842C9.86836 21.5842 10.224 21.5842 10.4017 21.762C10.5795 21.762 10.7573 21.9398 10.9351 21.9398C11.1129 21.9398 11.2907 21.762 11.4685 21.762C11.6463 21.762 12.0019 21.5842 12.0019 21.5842C12.0019 21.4064 11.4685 17.566 11.6463 17.566C11.8241 17.566 12.7486 21.2286 12.9264 21.4064C13.1042 21.4064 13.4598 21.2286 13.6732 21.2286C13.851 21.0508 14.4199 20.4819 14.4199 20.4819C14.4199 20.3041 12.6064 16.9971 12.7842 16.9971C12.962 16.9971 14.8111 19.9129 14.9889 20.0907C14.9889 20.0907 15.3445 19.9129 15.5222 19.5573C15.7 19.2017 15.8778 18.6328 15.8778 18.6328C15.7 18.455 13.6732 15.8948 13.851 15.8948C14.0288 15.717 16.0556 17.9216 16.2334 18.0994C16.4112 17.9216 16.4112 17.7438 16.589 17.566C16.589 17.3882 16.7668 17.2104 16.589 17.0326C16.4468 16.2503 15.7356 15.8948 15.5222 15.5392Z" fill="#FFE400"/>
  <path d="M15.5222 15.5392C15.1667 15.3614 14.7755 15.0058 14.7755 15.0058C14.4199 14.6502 11.8597 10.9876 11.2907 10.4542C11.1129 10.0986 10.9351 10.0986 10.7573 10.0986C10.5795 10.0986 10.4017 10.0986 10.224 10.4542C9.86836 11.3788 7.30811 14.6502 6.95252 15.0058C6.77473 15.1836 6.41914 15.1836 6.20579 15.5392C6.02799 15.717 5.28125 16.2859 5.28125 16.6415C5.28125 16.8193 5.28125 16.9971 5.28125 17.1749C5.28125 17.3527 5.45905 17.5305 5.63684 17.7083C5.81464 17.5305 7.8415 15.5036 8.01929 15.5036C8.19709 15.6814 6.20578 18.0639 5.99243 18.2417C5.99243 18.2417 6.17023 18.775 6.34802 19.1662C6.52582 19.5218 6.88141 19.9129 6.88141 19.9129C6.88141 19.7351 8.69492 16.8193 8.90827 16.9971C9.08607 16.9971 7.45035 20.2685 7.27256 20.4819C7.27256 20.4819 7.80594 21.0153 8.19709 21.2286C8.37488 21.4064 8.73047 21.4064 8.94383 21.4064C8.94383 21.2286 10.0462 17.566 10.224 17.566C10.4017 17.566 9.86836 21.4064 9.86836 21.5842C9.86836 21.5842 10.224 21.5842 10.4017 21.762C10.5795 21.762 10.7573 21.9398 10.9351 21.9398C11.1129 21.9398 11.2907 21.762 11.4685 21.762C11.6463 21.762 12.0019 21.5842 12.0019 21.5842C12.0019 21.4064 11.4685 17.566 11.6463 17.566C11.8241 17.566 12.7486 21.2286 12.9264 21.4064C13.1042 21.4064 13.4598 21.2286 13.6732 21.2286C13.851 21.0508 14.4199 20.4819 14.4199 20.4819C14.4199 20.3041 12.6064 16.9971 12.7842 16.9971C12.962 16.9971 14.8111 19.9129 14.9889 20.0907C14.9889 20.0907 15.3445 19.9129 15.5222 19.5573C15.7 19.2017 15.8778 18.6328 15.8778 18.6328C15.7 18.455 13.6732 15.8948 13.851 15.8948C14.0288 15.717 16.0556 17.9216 16.2334 18.0994C16.4112 17.9216 16.4112 17.7438 16.589 17.566C16.589 17.3882 16.7668 17.2104 16.589 17.0326C16.4468 16.2503 15.7356 15.8948 15.5222 15.5392Z" stroke="#FFE400" stroke-width="1.4806"/>
  <path d="M9.15785 11.3079H6.95319H6.77539C6.77539 11.4857 6.77539 11.6635 6.77539 11.6635C6.77539 11.6635 7.52213 13.477 7.52213 13.6903C7.69992 13.3347 8.98005 11.5212 9.15785 11.3079Z" fill="#FFE400"/>
  <path d="M9.15784 11.3079H6.95319H6.77539C6.77539 11.4857 6.77539 11.6635 6.77539 11.6635C6.77539 11.6635 7.52213 13.477 7.52213 13.6903C7.69992 13.3347 8.98005 11.5212 9.15784 11.3079Z" stroke="#FFE400" stroke-width="1.4806"/>
  <path d="M15.1677 11.5211C15.1677 11.5211 15.1677 11.3433 15.1677 11.1655H14.9899H12.6074C12.7852 11.5211 14.0653 13.3702 14.2431 13.3702C14.4209 13.3702 15.1677 11.5211 15.1677 11.5211Z" fill="#FFE400"/>
  <path d="M15.1677 11.5211C15.1677 11.5211 15.1677 11.3433 15.1677 11.1655H14.9899H12.6074C12.7852 11.5211 14.0653 13.3702 14.2431 13.3702C14.4209 13.3702 15.1677 11.5211 15.1677 11.5211Z" stroke="#FFE400" stroke-width="1.4806"/>
  <path d="M44.0422 15.5391C43.6867 15.3613 43.2955 15.0058 43.2955 14.7924C42.9399 14.4368 40.3797 10.952 39.8107 10.2408C39.6329 10.063 39.4551 9.88525 39.2773 9.88525C39.0995 9.88525 38.9217 9.88525 38.7439 10.2408C38.2106 11.1654 35.8281 14.4368 35.2592 14.7924C35.0814 14.9702 34.7258 15.148 34.5124 15.5391C34.3346 15.7169 33.5879 16.2859 33.5879 16.6415C33.5879 16.8193 33.5879 16.9971 33.5879 17.1749C33.5879 17.3527 33.7657 17.5304 33.9435 17.7082C34.1213 17.5304 36.1481 15.5036 36.3259 15.5036C36.5037 15.6814 34.5124 18.0638 34.2991 18.2416C34.2991 18.2416 34.4769 18.775 34.6547 19.1662C34.8325 19.5573 35.188 19.6995 35.188 19.6995C35.3658 19.5217 37.2149 16.6059 37.3927 16.6059C37.5705 16.6059 35.9348 19.8773 35.757 20.0907C35.757 20.0907 36.2904 20.6241 36.6815 20.8374C36.8593 21.0152 37.2149 21.0152 37.4283 21.0152C37.4283 20.8374 38.5306 17.1749 38.7084 17.1749C38.8862 17.1749 38.3528 21.0152 38.3528 21.193C38.3528 21.193 38.7084 21.193 38.8862 21.3708C39.064 21.3708 39.2418 21.5486 39.4196 21.5486C39.5974 21.5486 39.7752 21.3708 39.953 21.3708C40.1308 21.3708 40.4863 21.193 40.4863 21.193C40.4863 21.0152 39.953 17.1749 40.1308 17.1749C40.3085 17.1749 41.2331 20.8374 41.4109 21.0152C41.5887 21.0152 41.9443 20.8374 42.1576 20.8374C42.3354 20.6596 43.0822 20.0907 43.0822 20.0907C43.0822 19.9129 41.2686 16.6059 41.4464 16.6059C41.6242 16.6059 43.4733 19.5217 43.6511 19.6995C43.6511 19.6995 44.0067 19.5217 44.1845 19.1662C44.3623 18.8106 44.5401 18.2416 44.5401 18.2416C44.3623 18.0638 42.3354 15.5036 42.5132 15.5036C42.691 15.3258 44.7179 17.5304 44.8957 17.7082C45.0735 17.5304 45.0735 17.3527 45.2512 17.1749C45.2512 16.9971 45.429 16.8193 45.2512 16.6415C44.9312 16.2503 44.3978 15.8947 44.0422 15.5391Z" fill="#FFE400"/>
  <path d="M44.0422 15.5391C43.6867 15.3613 43.2955 15.0058 43.2955 14.7924C42.9399 14.4368 40.3797 10.952 39.8107 10.2408C39.6329 10.063 39.4551 9.88525 39.2773 9.88525C39.0995 9.88525 38.9217 9.88525 38.7439 10.2408C38.2106 11.1654 35.8281 14.4368 35.2592 14.7924C35.0814 14.9702 34.7258 15.148 34.5124 15.5391C34.3346 15.7169 33.5879 16.2859 33.5879 16.6415C33.5879 16.8193 33.5879 16.9971 33.5879 17.1749C33.5879 17.3527 33.7657 17.5304 33.9435 17.7082C34.1213 17.5304 36.1481 15.5036 36.3259 15.5036C36.5037 15.6814 34.5124 18.0638 34.2991 18.2416C34.2991 18.2416 34.4769 18.775 34.6547 19.1662C34.8325 19.5573 35.188 19.6995 35.188 19.6995C35.3658 19.5217 37.2149 16.6059 37.3927 16.6059C37.5705 16.6059 35.9348 19.8773 35.757 20.0907C35.757 20.0907 36.2904 20.6241 36.6815 20.8374C36.8593 21.0152 37.2149 21.0152 37.4283 21.0152C37.4283 20.8374 38.5306 17.1749 38.7084 17.1749C38.8862 17.1749 38.3528 21.0152 38.3528 21.193C38.3528 21.193 38.7084 21.193 38.8862 21.3708C39.064 21.3708 39.2418 21.5486 39.4196 21.5486C39.5974 21.5486 39.7752 21.3708 39.953 21.3708C40.1308 21.3708 40.4863 21.193 40.4863 21.193C40.4863 21.0152 39.953 17.1749 40.1308 17.1749C40.3085 17.1749 41.2331 20.8374 41.4109 21.0152C41.5887 21.0152 41.9443 20.8374 42.1576 20.8374C42.3354 20.6596 43.0822 20.0907 43.0822 20.0907C43.0822 19.9129 41.2686 16.6059 41.4464 16.6059C41.6242 16.6059 43.4733 19.5217 43.6511 19.6995C43.6511 19.6995 44.0067 19.5217 44.1845 19.1662C44.3623 18.8106 44.5401 18.2416 44.5401 18.2416C44.3623 18.0638 42.3354 15.5036 42.5132 15.5036C42.691 15.3258 44.7179 17.5304 44.8957 17.7082C45.0735 17.5304 45.0735 17.3527 45.2512 17.1749C45.2512 16.9971 45.429 16.8193 45.2512 16.6415C44.9312 16.2503 44.3978 15.8947 44.0422 15.5391Z" stroke="#FFE400" stroke-width="1.4806"/>
  <path d="M37.6403 11.3079H35.4356H35.2578C35.2578 11.4857 35.2578 11.6635 35.2578 11.6635C35.2578 11.6635 36.0046 13.477 36.0046 13.6903C36.1823 13.3347 37.4625 11.5212 37.6403 11.3079Z" fill="#FFE400"/>
  <path d="M37.6403 11.3079H35.4356H35.2578C35.2578 11.4857 35.2578 11.6635 35.2578 11.6635C35.2578 11.6635 36.0046 13.477 36.0046 13.6903C36.1823 13.3347 37.4625 11.5212 37.6403 11.3079Z" stroke="#FFE400" stroke-width="1.4806"/>
  <path d="M43.65 11.5211C43.65 11.5211 43.65 11.3433 43.65 11.1655H43.4722H41.2676C41.4454 11.5211 42.7255 13.1924 42.9033 13.3702C42.9389 13.3346 43.65 11.5211 43.65 11.5211Z" fill="#FFE400"/>
  <path d="M43.65 11.5211C43.65 11.5211 43.65 11.3433 43.65 11.1655H43.4722H41.2676C41.4454 11.5211 42.7255 13.1924 42.9033 13.3702C42.9389 13.3346 43.65 11.5211 43.65 11.5211Z" stroke="#FFE400" stroke-width="1.4806"/>
  <path d="M16.093 15.1479C15.9152 14.9701 15.5596 14.6145 15.3462 14.6145C15.3462 14.6145 15.1684 14.2589 14.8129 14.0811L15.7374 11.8764C15.7374 11.6986 15.7374 11.5208 15.7374 11.5208C15.7374 11.3431 15.7374 11.1653 15.5596 11.1653C15.3818 10.9875 15.204 10.9875 15.0262 10.9875C15.0262 10.9875 12.466 10.9875 12.2882 10.9875C12.2882 10.8097 11.9326 10.4541 11.9326 10.4541C11.7548 9.70734 11.577 9.52954 11.008 9.52954C10.4391 9.52954 10.0835 9.70734 9.90571 10.0629L9.55013 10.8097H6.77652C6.59873 10.8097 6.42093 10.9875 6.24314 10.9875C6.24314 11.1653 6.06534 11.1653 6.06534 11.3431C6.06534 11.5208 6.06534 11.6986 6.06534 11.6986L6.98988 13.7255C6.81208 14.0811 6.45649 14.4722 6.45649 14.4722C6.2787 14.65 5.92311 15.0056 5.70975 15.0056C4.96301 15.539 4.60742 16.108 4.60742 16.4636C4.60742 16.9969 4.96301 17.5659 5.14081 17.9215V18.4549C5.3186 18.6326 5.67419 19.735 6.06534 20.0906C6.24314 20.4462 7.52326 21.5485 8.09221 21.7263C8.4478 21.9041 9.01674 22.0819 9.19453 22.0819H9.37233C9.55013 22.0819 10.4747 22.4375 11.008 22.4375C11.3636 22.4375 12.2882 22.0819 12.466 22.0819H12.6438C12.8216 22.0819 13.3905 21.9041 13.7461 21.7263C14.1017 21.5485 15.5596 20.2684 15.773 20.0906C15.9507 19.735 16.5197 18.8104 16.6975 18.4549L16.8753 18.2771C17.0531 17.9215 17.4087 17.3525 17.4087 16.8191C17.3731 16.2502 16.8042 15.539 16.093 15.1479ZM13.7105 15.8946C13.7105 16.2502 15.524 18.4549 15.7374 18.6326C15.7374 18.6326 15.5596 19.166 15.3818 19.3794C15.204 19.5572 15.0262 19.9128 14.8484 19.9128C14.6706 19.735 12.8216 16.8191 12.6438 16.8191C12.6438 16.9969 13.1771 18.0993 14.1017 20.3039C14.1017 20.3039 13.5683 20.8373 13.1771 21.0507C12.9993 21.2285 12.6438 21.2285 12.4304 21.2285C12.4304 21.0507 11.3281 17.3881 11.1503 17.3881C11.1503 17.3881 11.1503 17.3881 11.1503 17.5659C11.1503 18.3126 11.5059 21.2285 11.5059 21.4063H11.3281H10.9725H10.7947C10.6169 21.4063 10.6169 21.4063 10.4391 21.5841C10.2613 21.5841 10.0835 21.5841 10.0835 21.4063H9.90571H9.55013H9.37233C9.37233 21.2285 9.72792 18.3126 9.72792 17.5659C9.72792 17.3881 9.72792 17.3881 9.72792 17.3881C9.55013 17.3881 8.62559 21.0507 8.4478 21.2285C8.27 21.2285 8.09221 21.0507 7.70106 21.0507C8.05665 21.0507 7.52326 20.5173 7.34547 20.5173C8.09221 18.8816 8.80339 17.4236 8.80339 17.0325C8.80339 16.6769 6.98988 19.5927 6.77652 19.7705C6.77652 19.7705 6.42093 19.4149 6.24314 19.2372C6.24314 19.0594 6.06534 18.4904 6.06534 18.4904C6.24314 18.3126 8.09221 15.9302 8.09221 15.7524C7.91441 15.7524 5.88755 17.7792 5.70975 17.957L5.53196 17.7792L5.35416 17.4236C5.35416 17.2458 5.35416 17.2458 5.35416 17.0681V16.8903C5.35416 16.5347 5.70975 16.1435 6.2787 15.7879C6.45649 15.6101 6.81208 15.4323 7.02544 15.2545V14.8989C7.38103 14.5434 9.94127 11.0586 10.5102 10.3474C10.688 10.1696 10.8658 10.1696 11.0436 10.1696C11.2214 10.1696 11.3992 10.1696 11.577 10.3474C11.9326 11.2719 14.4928 14.5434 14.8484 14.8989L15.0262 15.0767C15.204 15.2545 15.3818 15.4323 15.773 15.6101C16.1285 15.7879 16.6975 16.3569 16.6975 16.7125V16.8903C16.6975 17.0681 16.6975 17.2458 16.6975 17.2458L16.5197 17.6014C16.5197 17.6014 16.5197 17.7792 16.3419 17.7792C15.9152 17.7081 14.0661 15.539 13.7105 15.8946ZM12.786 11.3075H14.9907C15.1684 11.3075 15.1684 11.3075 15.1684 11.3075V11.4853C15.1684 11.4853 14.6351 13.121 14.4217 13.2988C14.2439 13.3344 12.9994 11.5208 12.786 11.3075ZM9.15898 11.3075L7.52326 13.3344L6.77652 11.5208V11.3431C6.77652 11.3431 6.77652 11.3431 6.95432 11.3431C6.95432 11.3075 8.98118 11.3075 9.15898 11.3075Z" fill="black"/>
  <path d="M30.5305 14.9704C30.3528 14.7926 29.9972 14.437 29.7838 14.437C29.7838 14.437 29.606 14.0814 29.2504 13.9036L30.175 11.6989C30.175 11.5212 30.175 11.3434 30.175 11.3434C30.175 11.1656 30.175 10.9878 29.9972 10.9878C29.8194 10.81 29.6416 10.81 29.4638 10.81C29.4638 10.81 26.9035 10.81 26.7257 10.81C26.7257 10.6322 26.5479 10.2766 26.3701 10.2766C26.1923 9.52985 25.8368 9.35205 25.2678 9.35205C24.7344 9.35205 24.3433 9.52985 24.1655 10.0988C24.1655 10.2766 23.8099 10.6322 23.8099 10.6322H21.0718C20.8941 10.6322 20.7163 10.81 20.5385 10.81C20.5385 10.9878 20.3607 10.9878 20.3607 11.1656C20.3607 11.3434 20.3607 11.3434 20.3607 11.5212L21.2852 13.7258C21.1074 14.0814 20.7518 14.2592 20.7518 14.2592C20.574 14.437 20.2184 14.7926 20.0051 14.7926C19.2583 15.326 18.9027 15.8949 18.9027 16.4283C18.9027 16.9617 19.2583 17.5306 19.4361 17.8862L19.6139 18.064C19.7917 18.2418 20.1473 19.3441 20.5385 19.6997C20.7163 20.0553 21.9964 21.1576 22.5653 21.3354C22.9209 21.5132 23.4899 21.691 23.6677 21.691H23.8454C24.0232 21.691 24.9478 22.0466 25.4812 22.0466C25.8368 22.0466 26.9391 21.691 27.1169 21.691H27.2947C27.4725 21.691 28.0414 21.5132 28.397 21.3354C28.7526 21.1576 30.2105 19.8775 30.4239 19.6997C30.6017 19.3441 31.1706 18.4196 31.3484 18.064L31.5262 17.8862C31.704 17.5306 32.0596 16.9617 32.0596 16.4283C31.5973 16.0727 31.2417 15.5393 30.5305 14.9704ZM27.9703 15.5393C27.9703 15.8949 29.7838 18.0996 29.9972 18.2774C29.9972 18.2774 29.8194 18.8107 29.6416 19.0241C29.4638 19.2375 29.286 19.3797 29.1082 19.5575C28.9304 19.3797 27.0813 16.4639 26.9035 16.4639C26.9035 16.6417 27.4369 17.744 28.3614 19.9486C28.3614 19.9486 27.8281 20.482 27.4369 20.6954C27.2591 20.8732 26.9035 20.8732 26.6902 20.8732C26.6902 20.6954 25.5878 17.0328 25.41 17.0328C25.41 17.0328 25.41 17.0328 25.41 17.2106C25.41 17.9573 25.7656 20.8732 25.7656 21.051H25.5878H25.2323H25.0545C24.8767 21.051 24.8767 21.051 24.6989 21.2288C24.5211 21.2288 24.3433 21.2288 24.3433 21.051H24.1655H23.8099H23.6321C23.6321 20.8732 23.9877 17.9573 23.9877 17.2106C23.9877 17.0328 23.9877 17.0328 23.9877 17.0328C23.8099 17.0328 22.8854 20.6954 22.7076 20.8732C22.5298 20.8732 22.352 20.6954 21.9608 20.6954C21.783 20.5176 21.2141 20.162 21.0363 19.9486C21.783 18.4907 22.4942 16.855 22.4942 16.6772C22.3164 16.4994 20.4673 19.593 20.2895 19.7708C20.2895 19.7708 19.934 19.4153 19.7562 19.2375C19.5784 19.0597 19.4006 18.4907 19.4006 18.3129C19.5784 18.1351 21.4274 15.7527 21.4274 15.5749C21.2496 15.5749 19.2228 17.6017 19.045 17.7795L18.8672 17.6017L19.7917 17.0684C19.7917 16.8906 19.7917 16.8906 19.7917 16.7128V16.535C19.7917 16.1794 20.1473 15.7882 20.7163 15.4326C20.8941 15.2548 21.2496 15.077 21.463 14.8993L21.6408 14.7215C21.9964 14.3659 24.5566 10.8811 25.1256 10.1699C25.3034 9.99211 25.4812 9.99211 25.659 9.99211C25.8368 9.99211 26.0145 9.99211 26.1923 10.1699C26.7257 11.0944 29.1082 14.3659 29.6771 14.7215L29.8549 14.8993C30.0327 15.077 30.2105 15.2548 30.6017 15.4326C30.9573 15.6104 31.5262 16.1794 31.5262 16.535V16.7128C31.5262 16.8906 31.5262 17.0684 31.5262 17.0684L31.3484 17.4239C31.3484 17.4239 31.3484 17.6017 31.1706 17.6017C30.3527 17.3528 28.3259 15.5393 27.9703 15.5393ZM27.0458 10.9522H29.2504C29.4282 10.9522 29.4282 10.9522 29.4282 10.9522V11.13C29.4282 11.13 28.8948 12.7657 28.6815 12.9435C28.6815 13.3347 27.2236 11.3078 27.0458 10.9522ZM23.3832 10.9522L21.7475 13.1569L21.0007 11.3434V11.1656C21.0007 11.1656 21.0007 11.1656 21.1785 11.1656C21.2141 10.9522 23.2054 10.9522 23.3832 10.9522Z" fill="black"/>
  <path d="M44.7529 15.1483C44.5751 14.9705 44.2195 14.6149 44.0061 14.6149C44.0061 14.6149 43.8283 14.2593 43.4727 14.0815L44.3973 11.8769C44.3973 11.6991 44.3973 11.5213 44.3973 11.5213C44.3973 11.3435 44.3973 11.1657 44.2195 11.1657C44.0417 10.9879 43.8639 10.9879 43.6861 10.9879C43.6861 10.9879 41.1258 10.9879 40.948 10.9879C40.948 10.8101 40.7703 10.4545 40.5925 10.4545C40.4147 9.92112 40.0591 9.70776 39.4901 9.70776C38.9212 9.70776 38.5656 9.88556 38.3878 10.4545C38.3878 10.6323 38.0322 10.9879 38.0322 10.9879H35.2942C35.1164 10.9879 34.9386 11.1657 34.7608 11.1657C34.7608 11.3435 34.583 11.3435 34.583 11.5213C34.583 11.6991 34.583 11.8769 34.583 11.8769L35.5075 14.0815C35.1519 14.4371 34.9741 14.6149 34.9741 14.6149C34.7963 14.7927 34.4407 15.1483 34.2274 15.1483C33.4807 15.6817 33.1251 16.2506 33.1251 16.784C33.1251 17.3174 33.4807 17.8863 33.6584 18.2419L33.8362 18.4197C34.014 18.5975 34.3696 19.6998 34.7608 20.0554C34.9386 20.411 36.2187 21.5134 36.7876 21.6911C37.1432 21.8689 37.7122 22.0467 37.89 22.0467H38.0678C38.2456 22.0467 39.1701 22.4023 39.7035 22.4023C40.0591 22.4023 41.1614 22.0467 41.3392 22.0467H41.517C41.6948 22.0467 42.2637 21.8689 42.6193 21.6911C42.9749 21.5134 44.4328 20.2332 44.6462 20.0554C44.824 19.6998 45.3929 18.7753 45.5707 18.4197L45.7485 18.2419C45.9263 17.8863 46.2819 17.3174 46.2819 16.784C45.8552 16.2506 45.4996 15.5394 44.7529 15.1483ZM42.1926 15.895C42.1926 16.2506 44.0061 18.4553 44.2195 18.6331C44.2195 18.6331 44.0417 19.1665 43.8639 19.3798C43.6861 19.5576 43.5083 19.7354 43.3305 19.9132C43.1527 19.7354 41.3036 16.8196 41.1258 16.8196C41.1258 16.9974 41.6592 18.0997 42.5838 20.3044C42.5838 20.3044 42.0504 20.8377 41.6592 21.0511C41.4814 21.2289 41.1258 21.2289 40.9125 21.2289C40.9125 21.0511 39.8102 17.3885 39.6324 17.3885C39.6324 17.3885 39.6324 17.3885 39.6324 17.5663C39.6324 18.313 39.9879 21.2289 39.9879 21.4067H39.8457H39.4901H39.3123C39.1345 21.4067 39.1345 21.4067 38.9567 21.5845C38.7789 21.5845 38.6012 21.5845 38.6012 21.4067H38.4234H38.0678H37.89C37.89 21.2289 38.2456 18.313 38.2456 17.5663C38.2456 17.3885 38.2456 17.3885 38.2456 17.3885C38.0678 17.3885 37.1432 21.0511 36.9654 21.2289C36.7876 21.2289 36.6098 21.0511 36.2187 21.0511C36.0409 20.8733 35.472 20.5177 35.2942 20.3044C36.0409 18.8464 36.7521 17.2107 36.7521 17.0329C36.5743 16.8551 34.7252 19.9488 34.5474 20.1266C34.5474 20.1266 34.1918 19.771 34.014 19.5932C33.8362 19.4154 33.6584 18.8464 33.6584 18.6686C33.8362 18.4908 35.6853 16.1084 35.6853 15.9306C35.5075 15.9306 33.4807 17.9575 33.3029 18.1352L33.1251 17.9575L32.9473 17.6019C32.9473 17.4241 32.9473 17.4241 32.9473 17.2463V17.0685C32.9473 16.7129 33.3029 16.3217 33.8718 15.9661C34.0496 15.7884 34.4052 15.6106 34.6185 15.4328L34.7963 15.255C35.1519 14.8994 37.7122 11.4146 38.2811 10.7034C38.4589 10.5256 38.6367 10.5256 38.8145 10.5256C38.9923 10.5256 39.1701 10.5256 39.3479 10.7034C39.8813 11.628 42.2637 14.8994 42.8327 15.255L43.0105 15.4328C43.1883 15.6106 43.3661 15.7884 43.7572 15.9661C44.1128 16.1439 44.6817 16.7129 44.6817 17.0685V17.2463C44.6817 17.4241 44.6817 17.6019 44.6817 17.6019L44.504 17.9575C44.504 17.9575 44.504 18.1352 44.3262 18.1352C44.3973 17.7085 42.5838 15.5394 42.1926 15.895ZM41.3036 11.3079H43.5083C43.6861 11.3079 43.6861 11.3079 43.6861 11.3079V11.4857C43.6861 11.4857 43.1527 13.1214 42.9393 13.2992C42.7616 13.3348 41.4814 11.5213 41.3036 11.3079ZM37.6411 11.3079L36.0053 13.5126L35.2586 11.6991V11.3435C35.2586 11.3435 35.2586 11.3435 35.4364 11.3435C35.4364 11.3079 37.4633 11.3079 37.6411 11.3079Z" fill="black"/>
</svg>
