<svg width="320" height="175" viewBox="0 0 320 175" fill="none" xmlns="http://www.w3.org/2000/svg">
<rect x="0.818824" y="0.818824" width="318.362" height="173.362" rx="2.45647" fill="white"/>
<rect x="0.818824" y="0.818824" width="318.362" height="173.362" rx="2.45647" stroke="#E0E0E0" stroke-width="1.63765"/>
<path d="M99.7529 55.9235C99.7529 55.9235 94.8102 55.3901 77.8485 55.3901H77.6707C62.3448 55.3901 57.0465 55.7457 55.7664 55.9235C55.233 55.9235 54.8419 56.4569 54.8419 56.8481C54.8419 56.8481 54.8419 71.4628 54.6641 81.3127C56.8687 81.1349 63.2338 80.7793 77.8485 80.7793C92.1077 80.7793 98.4728 80.9571 100.677 81.1349V56.8481C100.677 56.6703 100.677 56.1369 99.7529 55.9235Z" fill="#E32118"/>
<path d="M99.7529 55.9235C99.7529 55.9235 94.8102 55.3901 77.8485 55.3901H77.6707C62.3448 55.3901 57.0465 55.7457 55.7664 55.9235C55.233 55.9235 54.8419 56.4569 54.8419 56.8481C54.8419 56.8481 54.8419 71.4628 54.6641 81.3127C56.8687 81.1349 63.2338 80.7793 77.8485 80.7793C92.1077 80.7793 98.4728 80.9571 100.677 81.1349V56.8481C100.677 56.6703 100.677 56.1369 99.7529 55.9235Z" stroke="#E32118" stroke-width="4.01546"/>
<path d="M77.8503 115.84C77.8503 115.84 62.7022 107.982 58.8618 102.15C58.8618 102.15 53.3857 96.105 54.3102 86.2552V82.0592C54.3102 82.0592 74.2233 81.7036 78.0637 81.7036C78.0637 81.7036 98.3323 81.8814 101.426 81.8814V87.3575C101.426 87.3575 102.706 96.3184 96.4832 102.328C96.4832 102.506 90.0826 109.653 77.8503 115.84Z" fill="white"/>
<path d="M130.437 65.4179V54.8213H127.166V67.0536C127.166 68.1559 127.166 68.8671 126.988 69.436C126.632 71.2496 125.352 71.9963 123.148 71.9963C120.943 71.9963 119.876 71.2496 119.307 69.6138C119.129 69.0805 119.129 68.1559 119.129 67.2314V54.8213H115.111V65.9513C115.111 68.6893 115.289 70.5028 116.214 71.7829C117.316 73.4187 119.307 74.6988 122.97 74.6988C126.988 74.6988 128.802 73.0631 129.726 71.4274C130.082 70.005 130.437 68.7249 130.437 65.4179Z" fill="black"/>
<path d="M146.158 74.3787V65.809C146.158 65.2756 146.158 63.9955 145.98 63.071C145.625 61.6131 144.522 59.9773 141.607 59.9773C138.691 59.9773 137.411 61.7909 137.411 61.7909V59.9773H133.57V74.0232H137.411V62.502C137.411 62.502 138.335 61.9687 139.615 61.9687C141.073 61.9687 141.998 62.502 142.353 63.7822C142.531 64.3155 142.531 65.0623 142.531 65.809V73.8454H146.158M153.448 56.137C153.448 55.0346 152.523 54.1101 151.243 54.1101C149.785 54.1101 148.861 54.8568 148.861 56.137C148.861 57.2393 149.785 58.1638 151.065 58.1638C152.559 58.1283 153.448 57.3815 153.448 56.137ZM153.092 59.9418H149.252V74.0232H153.092V59.9418ZM168.632 59.9418H165.147L162.409 69.0805C162.231 69.8272 161.875 70.894 161.875 70.894C161.875 70.894 161.875 70.1472 161.697 69.2583L158.959 60.1196H154.763L159.671 74.3787H163.511L168.632 59.9418ZM181.966 67.2669V67.0891C181.966 65.6312 181.966 63.6044 181.042 62.3242C180.117 60.8663 178.659 59.764 175.921 59.764C170.267 59.764 169.165 64.5289 169.165 67.0536C169.165 72.7075 172.65 74.3432 176.454 74.3432C179.726 74.3432 181.397 73.4187 181.397 73.4187L180.65 71.214C180.65 71.214 179.548 71.7474 177.735 71.7474C174.997 71.7474 173.183 70.1117 173.183 67.3736V67.2669H181.966ZM178.126 65.4179H173.183C173.183 65.2401 173.183 64.4933 173.361 63.7822C173.716 62.502 174.285 61.7553 175.743 61.7553C177.379 61.7553 178.126 62.8576 178.126 64.8489C178.126 64.8845 178.126 65.4179 178.126 65.4179ZM193.274 60.3329C192.918 60.1551 192.349 59.9773 191.46 59.9773C189.078 59.9773 187.976 62.0042 187.976 62.0042V60.1551H184.135V74.2365H187.976V63.1065C187.976 63.1065 188.722 62.5732 190.002 62.5732C191.283 62.5732 192.029 63.1065 192.385 63.3199L193.274 60.3329Z" fill="black"/>
<path d="M203.87 70.005C203.87 68.1915 202.945 67.0891 201.132 66.1646L199.105 65.0623C198.003 64.5289 197.469 64.1377 197.469 63.2488C197.469 62.1464 198.572 61.7909 199.674 61.7909C201.488 61.7909 202.768 62.5376 202.768 62.5376L203.514 60.3329C203.514 60.3329 202.057 59.5862 199.141 59.5862C196.047 59.5862 194.02 60.8663 194.02 63.6044C194.02 65.6312 194.945 66.5202 196.758 67.6225L198.785 68.7249C199.71 69.2583 200.065 69.4716 200.065 70.3606C200.065 71.4629 199.141 71.9963 197.683 71.9963C195.3 71.9963 194.02 71.2496 194.02 71.2496L193.273 73.4542C193.273 73.4542 194.731 74.3787 198.038 74.3787C201.31 74.3787 203.87 73.2764 203.87 70.005ZM210.626 56.137C210.626 55.0346 209.702 54.1101 208.422 54.1101C206.964 54.1101 206.039 54.8568 206.039 56.137C206.039 57.2393 206.964 58.1638 208.244 58.1638C209.702 58.1283 210.626 57.3815 210.626 56.137ZM210.271 59.9418H206.43V74.0232H210.271V59.9418ZM222.325 73.6676L221.792 71.4629C221.792 71.4629 221.045 71.8185 220.156 71.8185C218.343 71.8185 218.129 70.7162 218.129 69.2583V61.9687H222.325V59.9418H218.129V56.8482H215.569V57.0259C215.391 58.4839 214.289 59.9418 212.831 60.2974L212.475 60.4752V62.2887H214.289V69.2227C214.289 70.325 214.289 71.4274 214.644 72.1385C215.178 73.952 216.671 74.521 219.018 74.521C220.689 74.3787 221.934 74.0232 222.325 73.6676Z" fill="black"/>
<path d="M236.938 59.9415H233.454L230.893 69.0801C230.716 69.8269 230.36 70.7159 230.36 70.7159C230.36 70.7159 230.36 70.1825 230.004 68.9023L227.266 59.7637H223.07L228.724 74.5562L228.191 75.8364C227.657 77.1165 227.088 77.8632 225.986 77.8632C225.239 77.8632 224.35 77.5076 224.35 77.5076L223.995 79.8901C223.995 79.8901 224.919 80.2457 226.377 80.2457C228.76 80.2457 230.04 79.3211 231.142 76.5831L236.938 59.9415Z" fill="black"/>
<path d="M255.927 67.0891C255.927 62.7153 253.544 59.9773 249.17 59.9773C244.05 59.9773 242.059 63.6398 242.059 67.658C242.059 72.0318 244.441 74.7698 248.815 74.7698C254.113 74.3787 255.927 70.9294 255.927 67.0891ZM251.908 67.2669C251.908 70.7516 251.162 72.3874 248.993 72.3874C246.824 72.3874 246.077 70.5738 246.077 67.2669C246.077 63.7821 246.824 62.1464 248.993 62.1464C251.162 62.1464 251.908 63.9599 251.908 67.2669ZM266.701 53.1855C266.701 53.1855 265.776 52.6521 263.785 52.6521C261.047 52.6521 259.767 53.7544 259.02 55.5679C258.665 56.4925 258.665 58.306 258.665 59.0527V59.7995H256.851V61.8263H258.665V73.8808H262.505V61.8263H265.421V60.0128H262.505V58.1993C262.505 57.097 262.505 56.3858 262.861 55.9947C263.038 55.4613 263.607 55.0701 264.496 55.0701C265.421 55.0701 265.954 55.4257 265.954 55.4257L266.701 53.1855Z" fill="black"/>
<path d="M213.186 81.4905C210.804 81.4905 209.346 82.7706 209.346 84.7619C209.346 86.5754 210.804 87.8555 213.008 87.8555C215.391 87.8555 216.849 86.5754 216.849 84.5841C216.671 82.5928 215.177 81.4905 213.186 81.4905Z" fill="black"/>
<path d="M149.429 90.8069C139.934 90.8069 138.832 98.6654 138.832 102.115C138.832 111.253 145.055 113.067 150.14 113.067C154.691 113.067 157.252 112.142 157.998 111.787C157.821 111.431 157.074 109.049 156.896 108.515C156.363 108.871 154.691 109.44 152.344 109.44C147.58 109.44 145.41 106.346 145.41 103.217V102.684H158.923V102.506C158.923 100.123 158.745 97.0297 157.643 95.0028C156.185 92.087 153.447 90.8069 149.429 90.8069ZM152.736 99.7678H145.446V99.59C145.446 99.0566 145.446 97.9542 145.624 97.0297C145.979 94.8251 147.26 93.7583 149.109 93.7583C151.669 93.7583 152.771 95.2162 152.771 98.5232V99.7678H152.736Z" fill="black"/>
<path d="M129.515 99.7677C129.693 99.7677 135.56 97.9541 135.56 90.9846C135.56 85.3307 130.795 83.695 129.337 83.4816C127.702 83.126 125.141 82.9482 121.479 82.9482C118.563 82.9482 115.825 83.126 115.078 83.126V112.711H121.301V100.834H123.114C123.114 100.834 131.329 112.533 131.506 112.711H139.009C138.476 111.964 129.159 99.9099 129.159 99.9099L129.515 99.7677ZM125.888 97.5986C125.141 97.7763 124.786 97.7763 123.328 97.7763H121.301V86.2552H121.479C121.479 86.2552 122.012 86.2552 123.292 86.2552C127.133 86.2552 129.124 88.0687 129.124 92.0869C129.159 95.3939 127.524 97.0296 125.888 97.5986Z" fill="black"/>
<path d="M171.192 90.8069C166.818 90.8069 163.902 91.7314 163.155 91.9092C163.333 92.2648 164.08 94.825 164.258 95.1806C165.004 94.825 166.818 94.2561 169.378 94.2561C170.658 94.2561 172.472 94.4339 173.219 96.0696C173.396 96.603 173.574 97.3497 173.574 98.4521V99.91V100.088L170.481 99.91C168.098 99.91 165.538 100.088 163.547 101.368C161.911 102.47 161.164 104.106 161.164 106.488C161.164 110.507 163.724 112.889 167.92 112.889C171.938 112.889 173.396 110.684 173.396 110.684L173.93 109.938V112.498H179.975V99.341C179.975 97.5275 179.975 95.6785 179.441 94.3983C178.304 92.087 175.743 90.8069 171.192 90.8069ZM173.716 109.084C173.539 109.262 172.792 109.618 171.156 109.618C169.698 109.618 167.494 109.262 167.494 106.133C167.494 105.599 167.671 104.106 168.418 103.395C169.165 102.684 170.232 102.292 171.69 102.292H173.503H173.681V109.084H173.716Z" fill="black"/>
<path d="M216.1 91.1982H209.699V112.747H216.1V91.1982Z" fill="black"/>
<path d="M193.452 90.8068C187.407 90.8068 183.389 95.3584 183.389 102.328C183.389 109.084 186.482 112.925 192.172 112.925C196.368 112.925 197.826 110.542 198.003 110.542L198.537 109.795V112.711H204.76V79.8191H198.359V91.3402V91.8736L198.003 91.518C197.826 91.5536 196.546 90.8068 193.452 90.8068ZM198.217 94.2916V108.551H198.039C198.039 108.551 196.937 109.084 195.301 109.084C192.03 109.084 190.003 106.346 190.003 101.795C190.003 96.4963 192.03 93.936 196.048 93.936C197.47 93.936 198.039 94.2916 198.217 94.2916Z" fill="black"/>
<path d="M234.202 90.8069C229.65 90.8069 227.979 93.3671 227.979 93.3671L227.445 94.1139V91.198H221.223V112.747H227.623V95.394H227.801C227.801 95.394 228.903 94.8606 230.717 94.8606C232.922 94.8606 234.202 95.7851 234.557 97.4209C234.735 98.1676 234.735 99.6255 234.735 100.159V112.96H241.136V99.9811C241.136 99.0566 241.136 97.2431 240.78 95.7851C240.567 93.9361 239.287 90.8069 234.202 90.8069Z" fill="black"/>
<path d="M253.725 90.8069C247.502 90.8069 244.586 94.4695 244.586 98.0965C244.586 103.75 249.351 104.497 249.529 104.497L250.454 104.675L249.529 105.03C249.351 105.03 246.258 106.311 246.258 109.404C246.258 111.609 247.893 112.32 247.893 112.32L248.818 112.676L247.893 112.853C247.716 112.853 243.342 113.387 243.342 117.227C243.342 121.601 248.996 122.348 252.303 122.348C255.041 122.348 257.245 121.992 259.059 121.423C264.535 119.61 265.282 115.947 265.282 113.742C265.282 108.978 261.619 108.444 258.526 108.444H255.432H253.796C252.872 108.444 251.236 108.444 251.236 106.631C251.236 105.528 251.769 104.995 251.983 104.995H252.16L254.187 105.173C259.841 105.173 262.97 102.612 262.97 98.4165C262.97 96.2119 261.69 94.9317 261.69 94.9317L261.335 94.5761H265.708V91.4825C265.175 91.4825 257.139 91.4825 257.139 91.4825C256.641 90.8069 255.361 90.8069 253.725 90.8069ZM255.574 113.102C257.601 113.102 259.059 113.102 259.77 113.849C260.126 114.205 260.303 114.774 260.303 115.307C260.303 116.943 259.201 118.97 254.081 118.97C251.698 118.97 248.782 118.614 248.782 115.698C248.782 113.671 250.418 112.96 250.596 112.96L255.574 113.102ZM255.93 102.15C255.396 102.506 254.827 102.684 254.116 102.684C251.912 102.684 250.631 101.048 250.631 98.132C250.631 96.6741 250.809 94.8606 252.089 93.9361C252.623 93.5805 253.369 93.4027 253.903 93.4027C256.107 93.4027 257.388 95.0384 257.388 97.9542C257.388 99.4122 257.21 101.226 255.93 102.15Z" fill="black"/>
<path d="M102.135 89.918V56.6704C102.135 55.568 101.211 54.8568 100.108 54.6435C99.9304 54.6435 94.9877 54.1101 77.9905 54.1101H77.8127C62.2734 54.1101 56.6195 54.4657 55.5172 54.6435C54.4149 54.8213 53.4903 55.7458 53.4903 56.6704C53.4903 56.8482 53.3125 89.918 53.3125 89.918C53.3125 90.0958 53.1348 92.3005 54.0593 95.0385C54.9838 98.31 57.3307 102.719 62.4512 106.737C71.2343 113.494 77.2438 116.054 77.4216 116.232C77.5994 116.232 77.5994 116.232 77.5994 116.232C77.5994 116.232 77.5994 116.232 77.7772 116.232C77.9549 116.054 84 113.494 92.7475 106.737C98.0458 102.719 100.25 98.3455 101.317 95.0385C102.313 92.4783 102.313 90.2736 102.135 89.918ZM54.806 56.8482C54.806 56.3148 55.1616 55.9236 55.7306 55.9236C56.8329 55.7458 62.309 55.3902 77.6349 55.3902H77.8127C94.6321 55.3902 99.5393 55.9236 99.5393 55.9236C100.286 56.1014 100.642 56.6704 100.642 56.8482L100.819 81.3128C98.6147 81.135 92.2497 80.9572 77.9905 80.9572C63.3758 80.9572 56.9751 81.135 54.806 81.3128C54.806 71.4629 54.806 56.8482 54.806 56.8482ZM96.659 101.226C96.4812 100.692 95.9123 100.479 95.5567 100.479C94.8099 100.479 94.2765 101.012 94.2765 101.581V101.759C94.2765 101.759 94.2765 101.759 94.2765 101.581C94.2765 100.835 93.5298 100.479 92.9964 100.479C92.2497 100.479 91.7163 101.012 91.7163 101.581V101.759C91.7163 101.759 91.7163 101.759 91.7163 101.581C91.5385 100.835 90.9695 100.479 90.4362 100.479C89.6894 100.479 89.156 101.012 89.156 101.581V101.759C89.156 101.759 89.156 101.759 89.156 101.581C89.156 100.835 88.4093 100.479 87.8759 100.479C87.1292 100.479 86.5958 101.012 86.5958 101.581C86.418 100.835 85.8491 100.479 85.3157 100.479C84.5689 100.479 84.0355 101.012 84.0355 101.759C84.0355 102.506 84.5689 103.039 85.1379 103.039C84.3911 103.217 84.0355 103.786 84.0355 104.319C84.0355 105.066 84.5689 105.6 85.1379 105.6C84.3911 105.6 84.0355 106.346 84.0355 106.88C84.0355 107.626 84.5689 108.16 85.1379 108.16C84.3911 108.338 84.0355 108.907 84.0355 109.44C84.0355 109.973 84.3911 110.542 84.9601 110.72C84.4267 111.076 84.2133 111.253 84.2133 111.253C81.2975 113.067 79.2706 113.991 78.7372 114.169C78.2039 113.991 76.3548 113.067 73.439 111.253C73.439 111.253 73.0834 111.076 72.5144 110.72C73.0478 110.542 73.6167 109.973 73.6167 109.44C73.6167 108.693 73.0834 108.16 72.5144 108.16H72.3366C72.3366 108.16 72.3366 108.16 72.5144 108.16C73.2612 107.982 73.6167 107.413 73.6167 106.88C73.6167 106.133 73.0834 105.6 72.5144 105.6H72.3366C72.3366 105.6 72.3366 105.6 72.5144 105.6C73.2612 105.6 73.6167 104.853 73.6167 104.319C73.6167 103.573 73.0834 103.039 72.5144 103.039H72.3366C72.3366 103.039 72.3366 103.039 72.5144 103.039C73.2612 102.862 73.6167 102.293 73.6167 101.759C73.6167 101.012 73.0834 100.479 72.3366 100.479C71.5899 100.479 71.0565 101.012 71.0565 101.581V101.759C71.0565 101.759 71.0565 101.759 71.0565 101.581C70.8787 100.835 70.3098 100.479 69.7764 100.479C69.0296 100.479 68.4962 101.012 68.4962 101.581V101.759C68.4962 101.759 68.4962 101.759 68.4962 101.581C68.3185 100.835 67.7495 100.479 67.2161 100.479C66.4694 100.479 65.936 101.012 65.936 101.581V101.759C65.936 101.759 65.936 101.759 65.936 101.581C65.936 100.835 65.1893 100.479 64.6559 100.479C63.9091 100.479 63.3757 101.012 63.3757 101.581V101.759C63.3757 101.759 63.3757 101.759 63.3757 101.581C63.198 100.835 62.629 100.479 62.0956 100.479C61.5622 100.479 61.1711 100.835 60.9933 101.226C57.8997 97.2076 56.9751 93.3673 56.7973 91.376V91.1982H56.9751C57.5085 91.0204 57.8997 90.6648 57.8997 90.0958V89.918C57.8997 89.918 57.8997 89.918 57.8997 90.0958C58.0775 90.8426 58.6464 91.1982 59.1798 91.1982C59.9265 91.1982 60.4599 90.6648 60.4599 90.0958V89.918C60.4599 89.918 60.4599 89.918 60.4599 90.0958C60.6377 90.8426 61.2066 91.1982 61.74 91.1982C62.4868 91.1982 63.0202 90.6648 63.0202 90.0958V89.918C63.0202 89.918 63.0202 89.918 63.0202 90.0958C63.198 90.8426 63.7669 91.1982 64.3003 91.1982C65.047 91.1982 65.5804 90.6648 65.5804 90.0958V89.918C65.5804 89.918 65.5804 89.918 65.5804 90.0958C65.7582 90.8426 66.3271 91.1982 66.8605 91.1982C67.6073 91.1982 68.1407 90.6648 68.1407 90.0958V89.918C68.1407 89.918 68.1407 89.918 68.1407 90.0958C68.1407 90.8426 68.8874 91.1982 69.4208 91.1982C70.1675 91.1982 70.7009 90.6648 70.7009 90.0958C70.8787 90.8426 71.4476 91.1982 71.981 91.1982C72.7278 91.1982 73.2612 90.6648 73.2612 89.918C73.2612 89.1713 72.7278 88.6379 72.1588 88.6379C72.9056 88.4601 73.2612 87.8912 73.2612 87.3578C73.2612 86.6111 72.7278 86.0777 72.1588 86.0777C72.9056 86.0777 73.2612 85.3309 73.2612 84.7975C73.2612 84.0508 72.7278 83.5174 72.1588 83.5174C72.5144 83.5174 72.9056 83.1618 73.0834 82.7707C75.6436 82.7707 77.6349 82.7707 78.3817 82.7707C79.1284 82.7707 81.2975 82.7707 83.8577 82.7707C84.0355 83.1263 84.3911 83.3041 84.7823 83.5174H84.9601C84.9601 83.5174 84.9601 83.5174 84.7823 83.5174C84.0355 83.6952 83.68 84.2642 83.68 84.7975C83.68 85.5443 84.2133 86.0777 84.7823 86.0777C84.7823 86.0777 84.9601 86.0777 84.9601 86.2555C84.9601 86.2555 84.9601 86.2555 84.7823 86.2555C84.0355 86.2555 83.68 87.0022 83.68 87.5356C83.68 88.2823 84.2133 88.8157 84.7823 88.8157H84.9601C84.9601 88.8157 84.9601 88.8157 84.7823 88.8157C84.0355 88.8157 83.68 89.5625 83.68 90.0958C83.68 90.8426 84.2133 91.376 84.9601 91.376C85.7068 91.376 86.2402 90.8426 86.2402 90.2736V90.0958C86.2402 90.0958 86.2402 90.0958 86.2402 90.2736C86.418 91.0204 86.9869 91.376 87.5203 91.376C88.2671 91.376 88.8004 90.8426 88.8004 90.2736V90.0958C88.8004 90.0958 88.8004 90.0958 88.8004 90.2736C88.9782 91.0204 89.5472 91.376 90.0806 91.376C90.8273 91.376 91.3607 90.8426 91.3607 90.2736V90.0958C91.3607 90.0958 91.3607 90.0958 91.3607 90.2736C91.5385 91.0204 92.1074 91.376 92.6408 91.376C93.3876 91.376 93.9209 90.8426 93.9209 90.2736V90.0958C93.9209 90.0958 93.9209 90.0958 93.9209 90.2736C93.9209 91.0204 94.6677 91.376 95.2011 91.376C95.9478 91.376 96.4812 90.8426 96.4812 90.2736V90.0958C96.4812 90.0958 96.4812 90.0958 96.4812 90.2736C96.659 91.0204 97.2279 91.376 97.7613 91.376C98.5081 91.376 99.0414 90.8426 99.0414 90.2736V90.0958C99.0414 90.0958 99.0414 90.0958 99.0414 90.2736C99.0414 90.807 99.5748 91.1982 100.144 91.376V91.5538C100.677 93.3673 99.9304 97.0298 96.659 101.226Z" fill="black"/>
<path d="M77.8485 93.3669C77.1017 93.3669 76.5684 93.9003 76.5684 94.6471C76.5684 95.3938 77.1017 95.9272 77.8485 95.9272C78.5952 95.9272 79.1286 95.3938 79.1286 94.6471C79.1286 93.9003 78.5597 93.3669 77.8485 93.3669Z" fill="#FFE400"/>
<path d="M77.8485 96.1052C78.5555 96.1052 79.1286 95.532 79.1286 94.825C79.1286 94.1181 78.5555 93.5449 77.8485 93.5449C77.1415 93.5449 76.5684 94.1181 76.5684 94.825C76.5684 95.532 77.1415 96.1052 77.8485 96.1052Z" stroke="#FFE400" stroke-width="1.60934"/>
<path d="M82.5766 93.9361C82.3988 93.7583 82.221 93.7583 81.8299 93.9361H81.4743L81.2965 94.1139L80.7631 94.2917C79.8386 94.6473 79.483 94.4695 79.483 94.2917V94.1139C79.483 93.9361 79.8386 93.7583 80.4075 93.5805L80.9409 93.4027H81.1187L81.4743 93.2249C81.6521 93.2249 81.8299 93.0471 81.8299 92.6915C82.1855 91.767 81.4743 90.878 80.7275 90.3091C79.803 89.7757 78.7007 89.3845 77.9895 89.9535C77.8117 90.1313 77.6339 90.3091 77.6339 90.4868V90.8424V91.198V91.7314C77.6339 92.8337 77.4561 93.0115 77.2783 93.0115H77.1005C76.9227 92.8337 76.9227 92.087 76.9227 91.9092V91.3758V91.198V90.8424C76.9227 90.6646 76.9227 90.4868 76.5671 90.3091C76.0338 89.7757 74.7536 90.1313 73.8291 90.6646C73.0824 91.198 72.3712 92.1226 72.7268 93.0471C72.9046 93.2249 72.9046 93.4027 73.0824 93.5805L73.4379 93.7583H73.6157L74.1491 93.9361C74.6825 94.1139 75.0737 94.2917 75.0737 94.4695V94.6473C75.0737 94.8251 74.8959 95.0028 73.7935 94.6473L74.1491 94.1139L73.9713 93.9361L73.6157 93.7583C73.4379 93.7583 73.2602 93.7583 72.869 93.7583C72.1223 94.1139 72.1223 94.8606 72.5134 96.3185C72.6912 97.4209 73.4379 98.3454 74.3269 98.3454C74.6825 98.3454 74.8603 98.3454 74.8603 98.1676L75.0381 97.812L75.2159 97.6342L75.5715 97.1008C75.7493 96.923 76.1049 96.3541 76.496 96.3541H76.6738V96.5319C76.6738 96.7097 76.3182 97.2786 76.3182 97.4564L75.9626 97.9898L75.7848 98.1676L75.607 98.3454C75.4293 98.5232 75.4293 98.701 75.4293 99.0921C75.607 99.8389 76.7094 100.372 77.8117 100.372C78.7362 100.372 79.8386 100.194 80.1942 99.2699C80.1942 99.0921 80.1942 98.7365 80.1942 98.5232L80.0164 98.1676L79.6608 97.9898L79.3052 97.4564L79.1274 97.2786C78.9496 97.1008 78.594 96.5319 78.7718 96.3541V96.1763H78.9496C79.1274 96.1763 79.3052 96.3541 79.8741 96.923L80.2297 97.4564L80.4075 97.6342L80.5853 97.9898C80.7631 98.1676 80.9409 98.1676 81.1187 98.1676C81.8654 98.1676 82.5766 97.0653 82.9322 96.1407C83.11 95.7851 83.11 95.394 83.11 95.0384C83.3234 94.4695 83.1456 93.9361 82.5766 93.9361ZM77.8473 96.1052C77.1005 96.1052 76.5671 95.5718 76.5671 94.8251C76.5671 94.0783 77.1005 93.5449 77.8473 93.5449C78.594 93.5449 79.1274 94.0783 79.1274 94.8251C79.1274 95.2162 78.5584 96.1052 77.8473 96.1052Z" fill="#E32118"/>
<path d="M81.8667 93.3675C81.6889 93.3675 81.6889 93.3675 81.3333 93.5453C81.1555 93.5453 80.7999 93.7231 80.5866 93.7231C80.0532 93.9009 79.8398 94.0786 79.8398 94.2564C79.8398 94.4342 80.1954 94.2564 80.7644 94.0786C80.9422 94.0786 81.2978 93.9009 81.5111 93.7231C81.8667 93.5453 81.8667 93.5453 82.0445 93.5453C82.4001 93.3675 82.7912 93.5453 82.969 93.5453C83.1468 93.7231 83.3246 93.7231 83.3246 93.9009C84.427 92.6207 84.9603 92.4429 84.9603 92.4429C84.9603 92.4429 84.0358 92.6207 82.5779 92.2651C82.5779 92.4429 82.5779 92.4429 82.5779 92.6207C82.4001 92.6563 82.2223 93.0119 81.8667 93.3675Z" fill="#009580"/>
<path d="M81.8667 93.3675C81.6889 93.3675 81.6889 93.3675 81.3333 93.5453C81.1555 93.5453 80.7999 93.7231 80.5866 93.7231C80.0532 93.9009 79.8398 94.0786 79.8398 94.2564C79.8398 94.4342 80.1954 94.2564 80.7644 94.0786C80.9422 94.0786 81.2978 93.9009 81.5111 93.7231C81.8667 93.5453 81.8667 93.5453 82.0445 93.5453C82.4001 93.3675 82.7912 93.5453 82.969 93.5453C83.1468 93.7231 83.3246 93.7231 83.3246 93.9009C84.427 92.6207 84.9603 92.4429 84.9603 92.4429C84.9603 92.4429 84.0358 92.6207 82.5779 92.2651C82.5779 92.4429 82.5779 92.4429 82.5779 92.6207C82.4001 92.6563 82.2223 93.0119 81.8667 93.3675Z" stroke="#009580" stroke-width="1.60934"/>
<path d="M77.669 90.2734C77.669 90.4512 77.669 90.4512 77.669 90.8068C77.669 90.9846 77.669 91.3402 77.669 91.7314C77.669 92.2647 77.669 92.6559 77.8468 92.4781C78.0246 92.4781 78.0246 92.1225 78.0246 91.7314C78.0246 91.5536 78.0246 91.198 78.0246 90.8068C78.0246 90.4512 78.0246 90.4512 78.0246 90.2734C78.0246 89.9179 78.2024 89.5267 78.3802 89.5267C78.558 89.3489 78.558 89.3489 78.7358 89.3489C77.989 87.891 77.8113 87.5354 77.8113 87.5354C77.8113 87.5354 77.6335 88.0688 76.8867 89.5623C77.0645 89.5623 77.0645 89.5623 77.2423 89.7401C77.4557 89.7401 77.669 89.9179 77.669 90.2734Z" fill="#009580"/>
<path d="M77.669 90.2734C77.669 90.4512 77.669 90.4512 77.669 90.8068C77.669 90.9846 77.669 91.3402 77.669 91.7314C77.669 92.2647 77.669 92.6559 77.8468 92.4781C78.0246 92.4781 78.0246 92.1225 78.0246 91.7314C78.0246 91.5536 78.0246 91.198 78.0246 90.8068C78.0246 90.4512 78.0246 90.4512 78.0246 90.2734C78.0246 89.9179 78.2024 89.5267 78.3802 89.5267C78.558 89.3489 78.558 89.3489 78.7358 89.3489C77.989 87.891 77.8113 87.5354 77.8113 87.5354C77.8113 87.5354 77.6335 88.0688 76.8867 89.5623C77.0645 89.5623 77.0645 89.5623 77.2423 89.7401C77.4557 89.7401 77.669 89.9179 77.669 90.2734Z" stroke="#009580" stroke-width="1.60934"/>
<path d="M81.4737 98.4878C81.2959 98.4878 80.9403 98.4878 80.7269 98.1322C80.5492 97.9544 80.5492 97.9544 80.3714 97.5988C80.1936 97.421 80.0158 97.0654 79.838 96.852C79.4824 96.4965 79.0912 96.1053 79.0912 96.3187C78.9134 96.3187 79.0912 96.6742 79.4468 97.0654C79.6246 97.2432 79.8024 97.5988 79.9802 97.8121C80.158 98.1677 80.158 98.1677 80.3358 98.3455C80.5136 98.7011 80.5136 99.0923 80.5136 99.2701C80.5136 99.4479 80.5136 99.4479 80.3358 99.6256C81.7937 100.372 82.3627 100.728 82.3627 100.728C82.2204 100.692 81.8648 99.9457 81.4737 98.4878Z" fill="#009580"/>
<path d="M81.4737 98.4878C81.2959 98.4878 80.9403 98.4878 80.7269 98.1322C80.5492 97.9544 80.5492 97.9544 80.3714 97.5988C80.1936 97.421 80.0158 97.0654 79.838 96.852C79.4824 96.4965 79.0912 96.1053 79.0912 96.3187C78.9134 96.3187 79.0912 96.6742 79.4468 97.0654C79.6246 97.2432 79.8024 97.5988 79.9802 97.8121C80.158 98.1677 80.158 98.1677 80.3358 98.3455C80.5136 98.7011 80.5136 99.0923 80.5136 99.2701C80.5136 99.4479 80.5136 99.4479 80.3358 99.6256C81.7937 100.372 82.3627 100.728 82.3627 100.728C82.2204 100.692 81.8648 99.9457 81.4737 98.4878Z" stroke="#009580" stroke-width="1.60934"/>
<path d="M75.8199 97.9543C75.9977 97.7765 76.1755 97.421 76.3533 97.2076C76.7089 96.852 76.7089 96.6742 76.5311 96.4609C76.3533 96.2831 76.1755 96.6387 75.7843 96.9943C75.6065 97.172 75.4287 97.5276 75.2509 97.741C75.0732 98.0966 75.0732 98.0966 74.8954 98.2744C74.7176 98.4522 74.362 98.4522 74.1486 98.4522C73.9353 98.4522 74.1486 98.4522 73.9708 98.4522C73.793 100.088 73.6152 100.657 73.6152 100.657C73.6152 100.657 73.9708 100.301 75.4287 99.7323C75.2509 99.5545 75.2509 99.3767 75.0732 99.1989C75.0732 99.0211 75.0732 98.6655 75.2509 98.2744C75.4643 98.1321 75.4643 98.1321 75.8199 97.9543Z" fill="#009580"/>
<path d="M75.8199 97.9543C75.9977 97.7765 76.1755 97.421 76.3533 97.2076C76.7089 96.852 76.7089 96.6742 76.5311 96.4609C76.3533 96.2831 76.1755 96.6387 75.7843 96.9943C75.6065 97.172 75.4287 97.5276 75.2509 97.741C75.0732 98.0966 75.0732 98.0966 74.8954 98.2744C74.7176 98.4522 74.362 98.4522 74.1486 98.4522C73.9353 98.4522 74.1486 98.4522 73.9708 98.4522C73.793 100.088 73.6152 100.657 73.6152 100.657C73.6152 100.657 73.9708 100.301 75.4287 99.7323C75.2509 99.5545 75.2509 99.3767 75.0732 99.1989C75.0732 99.0211 75.0732 98.6655 75.2509 98.2744C75.4643 98.1321 75.4643 98.1321 75.8199 97.9543Z" stroke="#009580" stroke-width="1.60934"/>
<path d="M73.6501 93.3674C73.8279 93.3674 73.8279 93.5452 74.1835 93.5452C74.3613 93.5452 74.7169 93.723 74.9302 93.9008C75.4636 94.0785 75.677 94.0785 75.8548 93.9008C75.8548 93.723 75.677 93.5452 75.108 93.3674C74.9302 93.3674 74.5746 93.1896 74.3613 93.1896C74.0057 93.0118 74.0057 93.1896 73.8279 93.0118C73.4723 92.834 73.2945 92.6562 73.2945 92.4784C73.2945 92.3006 73.2945 92.3006 73.2945 92.1228C71.6588 92.4784 71.0898 92.3006 71.0898 92.4784C71.0898 92.4784 71.4454 92.6562 72.7256 93.9363C72.9034 93.7585 72.9034 93.7585 73.0811 93.5807C72.9034 93.3674 73.2589 93.3674 73.6501 93.3674Z" fill="#009580"/>
<path d="M73.6501 93.3674C73.8279 93.3674 73.8279 93.5452 74.1835 93.5452C74.3613 93.5452 74.7169 93.723 74.9302 93.9008C75.4636 94.0785 75.677 94.0785 75.8548 93.9008C75.8548 93.723 75.677 93.5452 75.108 93.3674C74.9302 93.3674 74.5746 93.1896 74.3613 93.1896C74.0057 93.0118 74.0057 93.1896 73.8279 93.0118C73.4723 92.834 73.2945 92.6562 73.2945 92.4784C73.2945 92.3006 73.2945 92.3006 73.2945 92.1228C71.6588 92.4784 71.0898 92.3006 71.0898 92.4784C71.0898 92.4784 71.4454 92.6562 72.7256 93.9363C72.9034 93.7585 72.9034 93.7585 73.0811 93.5807C72.9034 93.3674 73.2589 93.3674 73.6501 93.3674Z" stroke="#009580" stroke-width="1.60934"/>
<path d="M82.5766 91.7317C82.5766 90.9849 82.0433 90.2738 81.2965 89.7048C80.7631 89.1714 79.8386 88.9581 79.2696 88.9581C78.7363 88.2113 77.9895 86.0422 77.8117 86.0422C77.6339 86.0422 77.065 88.0691 76.5316 88.9581C75.7849 88.7803 75.0737 89.1359 74.3269 89.7048C73.7936 90.2382 73.2246 90.8072 73.0468 91.5183C72.1223 91.6961 69.7754 91.8739 69.7754 91.8739C69.7754 91.8739 71.5889 93.154 72.1578 94.0786C71.9801 94.612 71.9801 95.5365 72.1578 96.1054C72.3356 97.03 72.9046 97.7412 73.6158 98.1323C73.6158 99.0568 72.869 101.404 72.869 101.404C72.869 101.404 74.6825 100.124 75.7849 99.768C76.3183 100.124 77.065 100.301 77.8117 100.515C78.5585 100.515 79.2696 100.337 79.8386 99.768C80.7631 100.124 82.7544 101.404 82.7544 101.404C82.7544 101.404 82.0077 99.1991 82.0077 98.1323C82.7544 97.7767 83.2878 97.03 83.4656 96.1054C83.6434 95.3587 83.6434 94.6475 83.4656 94.0786C83.999 93.3318 85.8481 91.8739 85.8481 91.8739C85.8836 92.0873 83.679 92.0873 82.5766 91.7317ZM83.3234 93.9363C83.1456 93.7585 83.1456 93.7585 82.9678 93.5808C82.79 93.403 82.4344 93.403 82.0433 93.5808C81.8655 93.5808 81.8655 93.7585 81.5099 93.7585C81.3321 93.7585 80.9765 93.9363 80.7631 94.1141C80.2297 94.2919 80.0164 94.2919 79.8386 94.2919C79.8386 94.1141 80.0164 93.9363 80.5853 93.7585C80.7631 93.7585 81.1187 93.5808 81.3321 93.5808C81.6877 93.403 81.6877 93.5808 81.8655 93.403C82.221 93.2252 82.3988 93.0474 82.3988 92.8696C82.3988 92.6918 82.3988 92.6918 82.3988 92.514C84.0346 92.8696 84.7813 92.6918 84.7813 92.6918C84.9591 92.6562 84.4257 92.6562 83.3234 93.9363ZM77.8473 87.5357C77.8473 87.5357 78.0251 88.0691 78.7718 89.5626C78.594 89.5626 78.594 89.5626 78.4162 89.7404C78.2384 89.9182 78.0606 90.096 78.0606 90.4871C78.0606 90.6649 78.0606 90.6649 78.0606 91.0205C78.0606 91.1983 78.0606 91.5539 78.0606 91.945C78.0606 92.4784 78.0606 92.8696 77.8828 92.6918C77.7051 92.6918 77.7051 92.3362 77.7051 91.945C77.7051 91.7672 77.7051 91.4116 77.7051 91.0205C77.7051 90.6649 77.7051 90.6649 77.7051 90.4871C77.7051 90.1315 77.5273 89.7404 77.3495 89.7404C77.1717 89.3848 77.1717 89.3848 76.9939 89.3848C77.6695 87.8913 77.8473 87.5357 77.8473 87.5357ZM72.3712 93.9363C71.2689 92.834 70.7355 92.4784 70.7355 92.4784C70.7355 92.4784 71.2689 92.4784 72.9401 92.1228C72.9401 92.3006 72.9401 92.3006 72.9401 92.4784C72.9401 92.6562 73.1179 93.0118 73.4735 93.0118C73.6513 93.0118 73.6513 93.0118 74.0069 93.1896C74.1847 93.1896 74.5403 93.3674 74.7537 93.3674C75.287 93.5452 75.5004 93.723 75.5004 93.9008C75.5004 94.0786 75.1448 94.0786 74.5759 93.9008C74.3981 93.9008 74.0425 93.723 73.8291 93.5452C73.4735 93.3674 73.4735 93.3674 73.2957 93.3674C72.9401 93.1896 72.549 93.3674 72.3712 93.3674C72.549 93.5807 72.549 93.5808 72.3712 93.9363ZM73.6513 100.693C73.6513 100.693 73.8291 100.159 74.0069 98.4879C74.1847 98.4879 74.0069 98.4879 74.1847 98.4879C74.3625 98.4879 74.7181 98.4879 74.9314 98.1323C75.1092 97.9545 75.1092 97.9545 75.287 97.5989C75.4648 97.4211 75.6426 97.0655 75.8204 96.8522C76.176 96.4966 76.3538 96.1054 76.5672 96.3188C76.745 96.4966 76.5672 96.6744 76.3894 97.0655C76.2116 97.2433 76.0338 97.5989 75.856 97.8123C75.6782 98.1679 75.6782 97.9901 75.5004 98.1679C75.3226 98.5235 75.3226 98.7013 75.3226 99.0924C75.3226 99.2702 75.5004 99.448 75.6782 99.6258C74.0069 100.337 73.6513 100.693 73.6513 100.693ZM82.0433 100.693C82.0433 100.693 81.5099 100.337 80.0164 99.5902C80.1942 99.4124 80.1942 99.4124 80.1942 99.2346C80.1942 99.0568 80.372 98.7012 80.0164 98.3101C79.8386 98.1323 79.8386 98.1323 79.6608 97.7767C79.483 97.5989 79.3052 97.2433 79.1274 97.03C78.9496 96.6744 78.594 96.2832 78.7718 96.2832C78.9496 96.1054 79.3052 96.461 79.5186 96.8166C79.6964 96.9944 79.8742 97.35 80.0519 97.5634C80.2297 97.919 80.2297 97.919 80.4075 98.0968C80.9409 98.4523 81.3321 98.4523 81.5099 98.4523C81.6877 98.4523 81.5099 98.4523 81.6877 98.4523C81.8655 99.9458 82.221 100.693 82.0433 100.693ZM82.9678 96.3188C82.79 97.4211 82.0433 98.3457 81.3321 98.3457C81.1543 98.3457 80.9765 98.3457 80.7987 98.1679C80.6209 97.9901 80.6209 97.8123 80.4431 97.6345C80.2653 97.4567 80.2653 97.2789 80.0875 97.1011C79.9097 96.9233 79.163 95.9988 78.8074 96.3544C78.4518 96.7099 78.9852 97.4567 79.163 97.8123C79.3408 97.9901 79.3408 98.1679 79.5186 98.3457C79.6964 98.5235 79.6964 98.7012 79.8742 98.879C79.8742 99.0568 80.0519 99.0568 79.8742 99.4124C79.6964 99.9458 78.7718 100.337 77.6695 100.337C76.5672 100.337 75.4648 99.9814 75.4648 99.2346C75.4648 99.2346 75.4648 99.2346 75.4648 99.0568C75.4648 98.879 75.4648 98.7012 75.6426 98.7012C75.8204 98.5235 75.8204 98.5235 75.9982 98.3457C76.176 98.1679 76.176 97.9901 76.3538 97.8123C76.5316 97.6345 77.1005 96.8877 76.7094 96.5321C76.3538 96.1766 75.6071 97.0655 75.4293 97.2789C75.2515 97.4567 75.0737 97.6345 75.0737 97.8123C74.8959 97.9901 74.8959 98.1679 74.7181 98.3457C74.5403 98.5235 74.5403 98.5235 74.1847 98.5235C73.438 98.5235 72.9046 97.5989 72.549 96.4966C72.3712 95.5721 72.1934 94.4697 72.9046 94.1141C73.0824 93.9363 73.2602 93.9363 73.438 94.1141C73.6158 94.1141 73.7936 94.2919 73.9714 94.2919C74.1492 94.2919 74.3269 94.4697 74.5047 94.4697C74.8603 94.6475 75.7849 95.0031 75.9627 94.4697C76.1405 93.9363 75.2159 93.5452 74.8603 93.5452C74.6825 93.5452 74.5047 93.3674 74.3269 93.3674C73.9714 93.3674 73.9714 93.3674 73.7936 93.1896C73.6158 93.1896 73.6158 93.0118 73.438 92.834C73.0824 92.0873 73.7936 91.1983 74.5403 90.6294C75.4648 90.096 76.5672 89.7048 76.9228 90.2738C77.1006 90.4516 77.1006 90.6294 77.1006 90.8072C77.1006 90.9849 77.1006 91.1627 77.1006 91.3405C77.1006 91.5183 77.1006 91.6961 77.1006 91.8739C77.1006 92.2295 77.1006 93.3318 77.6339 93.3318C78.1673 93.3318 78.1673 92.2295 78.1673 91.8739C78.1673 91.6961 78.1673 91.3405 78.1673 91.3405C78.1673 90.9849 78.1673 90.9849 78.1673 90.8072C78.1673 90.6294 78.1673 90.4516 78.3451 90.2738C78.8785 89.9182 79.9808 90.096 80.7276 90.6294C81.4743 91.1627 82.1855 92.0873 81.8299 92.834C81.6521 93.0118 81.6521 93.1896 81.4743 93.1896C81.2965 93.1896 81.1187 93.1896 80.9409 93.3674C80.7631 93.3674 80.5853 93.5452 80.4075 93.5452C80.0519 93.723 79.1274 94.0786 79.3052 94.4697C79.483 95.0031 80.4075 94.6475 80.7631 94.4697C80.9409 94.4697 81.1187 94.2919 81.2965 94.2919C81.4743 94.1141 81.6521 94.1141 81.8299 94.1141C82.0077 94.1141 82.1855 94.1141 82.3633 94.1141C83.1456 94.2919 83.1456 95.2165 82.9678 96.3188Z" fill="black"/>
<path d="M82.3997 68.1912C82.0441 68.0134 81.6529 67.6579 81.6529 67.4445C81.2973 67.0889 78.7371 63.6041 78.1681 62.8929C77.9903 62.7151 77.8126 62.5374 77.6348 62.5374C77.457 62.5374 77.2792 62.5374 77.1014 62.8929C76.568 63.8175 74.1855 67.0889 73.6166 67.4445C73.4388 67.6223 73.0832 67.8001 72.8698 68.1912C72.6921 68.369 71.9453 68.938 71.9453 69.2936C71.9453 69.4714 71.9453 69.6492 71.9453 69.827C71.9453 70.0048 72.1231 70.1825 72.3009 70.3603C72.4787 70.1825 74.5056 68.1557 74.6834 68.1557C74.8612 68.3335 72.8698 70.7159 72.6565 70.8937C72.6565 70.8937 72.8343 71.4271 73.0121 71.8183C73.1899 72.1738 73.5455 72.3516 73.5455 72.3516C73.7233 72.1738 75.5723 69.258 75.7501 69.258C75.9279 69.258 74.2922 72.5294 74.1144 72.7428C74.1144 72.7428 74.6478 73.2762 75.0389 73.4895C75.2167 73.6673 75.5723 73.6673 75.7857 73.6673C75.7857 73.4895 76.888 69.827 77.0658 69.827C77.2436 69.827 76.7102 73.6673 76.7102 73.8451C76.7102 73.8451 77.0658 73.8451 77.2436 74.0229C77.4214 74.0229 77.5992 74.2007 77.777 74.2007C77.9548 74.2007 78.1326 74.0229 78.3104 74.0229C78.4882 74.0229 78.8438 73.8451 78.8438 73.8451C78.8438 73.6673 78.3104 69.827 78.4882 69.827C78.666 69.827 79.5905 73.4895 79.7683 73.6673C79.9461 73.6673 80.3017 73.4895 80.515 73.4895C80.6928 73.3117 81.4396 72.7428 81.4396 72.7428C81.4396 72.565 79.6261 69.258 79.8039 69.258C79.9817 69.258 81.8307 72.1738 82.0085 72.3516C82.0085 72.3516 82.3641 72.1738 82.5419 71.8183C82.7197 71.4627 82.8975 70.8937 82.8975 70.8937C82.7197 70.7159 80.6928 68.1557 80.8706 68.1557C81.0484 67.9779 83.0753 70.1825 83.2531 70.3603C83.2531 70.1825 83.4309 70.0048 83.6087 69.827C83.6087 69.6492 83.7865 69.4714 83.6087 69.2936C83.3242 68.7246 82.7553 68.1912 82.3997 68.1912Z" fill="#FFE400"/>
<path d="M82.3997 68.1912C82.0441 68.0134 81.6529 67.6579 81.6529 67.4445C81.2973 67.0889 78.7371 63.6041 78.1681 62.8929C77.9903 62.7151 77.8126 62.5374 77.6348 62.5374C77.457 62.5374 77.2792 62.5374 77.1014 62.8929C76.568 63.8175 74.1855 67.0889 73.6166 67.4445C73.4388 67.6223 73.0832 67.8001 72.8698 68.1912C72.6921 68.369 71.9453 68.938 71.9453 69.2936C71.9453 69.4714 71.9453 69.6492 71.9453 69.827C71.9453 70.0048 72.1231 70.1825 72.3009 70.3603C72.4787 70.1825 74.5056 68.1557 74.6834 68.1557C74.8612 68.3335 72.8698 70.7159 72.6565 70.8937C72.6565 70.8937 72.8343 71.4271 73.0121 71.8183C73.1899 72.1738 73.5455 72.3516 73.5455 72.3516C73.7233 72.1738 75.5723 69.258 75.7501 69.258C75.9279 69.258 74.2922 72.5294 74.1144 72.7428C74.1144 72.7428 74.6478 73.2762 75.0389 73.4895C75.2167 73.6673 75.5723 73.6673 75.7857 73.6673C75.7857 73.4895 76.888 69.827 77.0658 69.827C77.2436 69.827 76.7102 73.6673 76.7102 73.8451C76.7102 73.8451 77.0658 73.8451 77.2436 74.0229C77.4214 74.0229 77.5992 74.2007 77.777 74.2007C77.9548 74.2007 78.1326 74.0229 78.3104 74.0229C78.4882 74.0229 78.8438 73.8451 78.8438 73.8451C78.8438 73.6673 78.3104 69.827 78.4882 69.827C78.666 69.827 79.5905 73.4895 79.7683 73.6673C79.9461 73.6673 80.3017 73.4895 80.515 73.4895C80.6928 73.3117 81.4396 72.7428 81.4396 72.7428C81.4396 72.565 79.6261 69.258 79.8039 69.258C79.9817 69.258 81.8307 72.1738 82.0085 72.3516C82.0085 72.3516 82.3641 72.1738 82.5419 71.8183C82.7197 71.4627 82.8975 70.8937 82.8975 70.8937C82.7197 70.7159 80.6928 68.1557 80.8706 68.1557C81.0484 67.9779 83.0753 70.1825 83.2531 70.3603C83.2531 70.1825 83.4309 70.0048 83.6087 69.827C83.6087 69.6492 83.7865 69.4714 83.6087 69.2936C83.3242 68.7246 82.7553 68.1912 82.3997 68.1912Z" stroke="#FFE400" stroke-width="1.4806"/>
<path d="M75.9977 63.604H73.793H73.6152C73.6152 63.7818 73.6152 63.9596 73.6152 63.9596L74.362 65.9865C74.5398 65.8087 75.8199 64.1729 75.9977 63.604Z" fill="#FFE400"/>
<path d="M75.9977 63.604H73.793H73.6152C73.6152 63.7818 73.6152 63.9596 73.6152 63.9596L74.362 65.9865C74.5398 65.8087 75.8199 64.1729 75.9977 63.604Z" stroke="#FFE400" stroke-width="1.4806"/>
<path d="M82.0465 64.1732C82.0465 64.1732 82.0465 63.9954 82.0465 63.8176H81.8687H79.6641C79.8419 64.1732 81.122 65.8445 81.2998 66.0223L82.0465 64.1732Z" fill="#FFE400"/>
<path d="M82.0465 64.1732C82.0465 64.1732 82.0465 63.9954 82.0465 63.8176H81.8687H79.6641C79.8419 64.1732 81.122 65.8445 81.2998 66.0223L82.0465 64.1732Z" stroke="#FFE400" stroke-width="1.4806"/>
<path d="M68.1394 68.1913C67.7838 68.0135 67.3927 67.6579 67.3927 67.6579C67.0371 67.3023 64.4769 63.6397 63.9079 63.1063C63.7301 62.7507 63.5523 62.7507 63.3745 62.7507C63.1967 62.7507 63.0189 62.7507 62.8411 63.1063C62.4856 64.0309 59.9253 67.3023 59.5697 67.6579C59.3919 67.8357 59.0363 67.8357 58.823 68.1913C58.6452 68.3691 57.8984 68.938 57.8984 69.2936C57.8984 69.4714 57.8984 69.6492 57.8984 69.827C57.8984 70.0048 58.0762 70.1826 58.254 70.3604C58.4318 70.1826 60.4587 68.1557 60.6365 68.1557C60.8143 68.3335 58.823 70.716 58.6096 70.8938C58.6096 70.8938 58.7874 71.4271 58.9652 71.8183C59.143 72.1739 59.4986 72.565 59.4986 72.565C59.4986 72.3872 61.3121 69.4714 61.5255 69.6492C61.7033 69.6492 60.0675 72.9206 59.8897 73.134C59.8897 73.134 60.4231 73.6674 60.8143 73.8807C60.9921 74.0585 61.3477 74.0585 61.561 74.0585C61.561 73.8807 62.6633 70.2181 62.8411 70.2181C63.0189 70.2181 62.4856 74.0585 62.4856 74.2363C62.4856 74.2363 62.8411 74.2363 63.0189 74.4141C63.1967 74.4141 63.3745 74.5919 63.5523 74.5919C63.7301 74.5919 63.9079 74.4141 64.0857 74.4141C64.2635 74.4141 64.6191 74.2363 64.6191 74.2363C64.6191 74.0585 64.0857 70.2181 64.2635 70.2181C64.4413 70.2181 65.3658 73.8807 65.5436 74.0585C65.7214 74.0585 66.077 73.8807 66.2904 73.8807C66.4682 73.7029 67.0371 73.134 67.0371 73.134C67.0371 72.9562 65.2236 69.6492 65.4014 69.6492C65.5792 69.6492 67.4283 72.565 67.606 72.7428C67.606 72.7428 67.9616 72.565 68.1394 72.2094C68.3172 71.8538 68.495 71.2849 68.495 71.2849C68.3172 71.1071 66.2904 68.5469 66.4682 68.5469C66.646 68.3691 68.6728 70.5737 68.8506 70.7515C69.0284 70.5737 69.0284 70.3959 69.2062 70.2181C69.2062 70.0403 69.384 69.8625 69.2062 69.6847C69.064 68.9024 68.3528 68.5469 68.1394 68.1913Z" fill="#FFE400"/>
<path d="M68.1394 68.1913C67.7838 68.0135 67.3927 67.6579 67.3927 67.6579C67.0371 67.3023 64.4769 63.6397 63.9079 63.1063C63.7301 62.7507 63.5523 62.7507 63.3745 62.7507C63.1967 62.7507 63.0189 62.7507 62.8411 63.1063C62.4856 64.0309 59.9253 67.3023 59.5697 67.6579C59.3919 67.8357 59.0363 67.8357 58.823 68.1913C58.6452 68.3691 57.8984 68.938 57.8984 69.2936C57.8984 69.4714 57.8984 69.6492 57.8984 69.827C57.8984 70.0048 58.0762 70.1826 58.254 70.3604C58.4318 70.1826 60.4587 68.1557 60.6365 68.1557C60.8143 68.3335 58.823 70.716 58.6096 70.8938C58.6096 70.8938 58.7874 71.4271 58.9652 71.8183C59.143 72.1739 59.4986 72.565 59.4986 72.565C59.4986 72.3872 61.3121 69.4714 61.5255 69.6492C61.7033 69.6492 60.0675 72.9206 59.8897 73.134C59.8897 73.134 60.4231 73.6674 60.8143 73.8807C60.9921 74.0585 61.3477 74.0585 61.561 74.0585C61.561 73.8807 62.6633 70.2181 62.8411 70.2181C63.0189 70.2181 62.4856 74.0585 62.4856 74.2363C62.4856 74.2363 62.8411 74.2363 63.0189 74.4141C63.1967 74.4141 63.3745 74.5919 63.5523 74.5919C63.7301 74.5919 63.9079 74.4141 64.0857 74.4141C64.2635 74.4141 64.6191 74.2363 64.6191 74.2363C64.6191 74.0585 64.0857 70.2181 64.2635 70.2181C64.4413 70.2181 65.3658 73.8807 65.5436 74.0585C65.7214 74.0585 66.077 73.8807 66.2904 73.8807C66.4682 73.7029 67.0371 73.134 67.0371 73.134C67.0371 72.9562 65.2236 69.6492 65.4014 69.6492C65.5792 69.6492 67.4283 72.565 67.606 72.7428C67.606 72.7428 67.9616 72.565 68.1394 72.2094C68.3172 71.8538 68.495 71.2849 68.495 71.2849C68.3172 71.1071 66.2904 68.5469 66.4682 68.5469C66.646 68.3691 68.6728 70.5737 68.8506 70.7515C69.0284 70.5737 69.0284 70.3959 69.2062 70.2181C69.2062 70.0403 69.384 69.8625 69.2062 69.6847C69.064 68.9024 68.3528 68.5469 68.1394 68.1913Z" stroke="#FFE400" stroke-width="1.4806"/>
<path d="M61.775 63.96H59.5704H59.3926C59.3926 64.1378 59.3926 64.3156 59.3926 64.3156C59.3926 64.3156 60.1393 66.1291 60.1393 66.3424C60.3171 65.9868 61.5972 64.1733 61.775 63.96Z" fill="#FFE400"/>
<path d="M61.775 63.96H59.5704H59.3926C59.3926 64.1378 59.3926 64.3156 59.3926 64.3156C59.3926 64.3156 60.1393 66.1291 60.1393 66.3424C60.3171 65.9868 61.5972 64.1733 61.775 63.96Z" stroke="#FFE400" stroke-width="1.4806"/>
<path d="M67.7849 64.1732C67.7849 64.1732 67.7849 63.9954 67.7849 63.8176H67.6071H65.2246C65.4024 64.1732 66.6825 66.0223 66.8603 66.0223C67.0381 66.0223 67.7849 64.1732 67.7849 64.1732Z" fill="#FFE400"/>
<path d="M67.7849 64.1732C67.7849 64.1732 67.7849 63.9954 67.7849 63.8176H67.6071H65.2246C65.4024 64.1732 66.6825 66.0223 66.8603 66.0223C67.0381 66.0223 67.7849 64.1732 67.7849 64.1732Z" stroke="#FFE400" stroke-width="1.4806"/>
<path d="M96.6594 68.1912C96.3038 68.0134 95.9127 67.6579 95.9127 67.4445C95.5571 67.0889 92.9968 63.6041 92.4279 62.8929C92.2501 62.7151 92.0723 62.5374 91.8945 62.5374C91.7167 62.5374 91.5389 62.5374 91.3611 62.8929C90.8278 63.8175 88.4453 67.0889 87.8764 67.4445C87.6986 67.6223 87.343 67.8001 87.1296 68.1912C86.9518 68.369 86.2051 68.938 86.2051 69.2936C86.2051 69.4714 86.2051 69.6492 86.2051 69.827C86.2051 70.0048 86.3829 70.1825 86.5607 70.3603C86.7385 70.1825 88.7653 68.1557 88.9431 68.1557C89.1209 68.3335 87.1296 70.7159 86.9163 70.8937C86.9163 70.8937 87.0941 71.4271 87.2718 71.8183C87.4496 72.2094 87.8052 72.3516 87.8052 72.3516C87.983 72.1738 89.8321 69.258 90.0099 69.258C90.1877 69.258 88.552 72.5294 88.3742 72.7428C88.3742 72.7428 88.9076 73.2762 89.2987 73.4895C89.4765 73.6673 89.8321 73.6673 90.0455 73.6673C90.0455 73.4895 91.1478 69.827 91.3256 69.827C91.5034 69.827 90.97 73.6673 90.97 73.8451C90.97 73.8451 91.3256 73.8451 91.5034 74.0229C91.6812 74.0229 91.859 74.2007 92.0368 74.2007C92.2146 74.2007 92.3923 74.0229 92.5701 74.0229C92.7479 74.0229 93.1035 73.8451 93.1035 73.8451C93.1035 73.6673 92.5701 69.827 92.7479 69.827C92.9257 69.827 93.8503 73.4895 94.0281 73.6673C94.2059 73.6673 94.5614 73.4895 94.7748 73.4895C94.9526 73.3117 95.6993 72.7428 95.6993 72.7428C95.6993 72.565 93.8858 69.258 94.0636 69.258C94.2414 69.258 96.0905 72.1738 96.2683 72.3516C96.2683 72.3516 96.6239 72.1738 96.8017 71.8183C96.9795 71.4627 97.1573 70.8937 97.1573 70.8937C96.9795 70.7159 94.9526 68.1557 95.1304 68.1557C95.3082 67.9779 97.335 70.1825 97.5128 70.3603C97.6906 70.1825 97.6906 70.0048 97.8684 69.827C97.8684 69.6492 98.0462 69.4714 97.8684 69.2936C97.5484 68.9024 97.015 68.5468 96.6594 68.1912Z" fill="#FFE400"/>
<path d="M96.6594 68.1912C96.3038 68.0134 95.9127 67.6579 95.9127 67.4445C95.5571 67.0889 92.9968 63.6041 92.4279 62.8929C92.2501 62.7151 92.0723 62.5374 91.8945 62.5374C91.7167 62.5374 91.5389 62.5374 91.3611 62.8929C90.8278 63.8175 88.4453 67.0889 87.8764 67.4445C87.6986 67.6223 87.343 67.8001 87.1296 68.1912C86.9518 68.369 86.2051 68.938 86.2051 69.2936C86.2051 69.4714 86.2051 69.6492 86.2051 69.827C86.2051 70.0048 86.3829 70.1825 86.5607 70.3603C86.7385 70.1825 88.7653 68.1557 88.9431 68.1557C89.1209 68.3335 87.1296 70.7159 86.9163 70.8937C86.9163 70.8937 87.0941 71.4271 87.2718 71.8183C87.4496 72.2094 87.8052 72.3516 87.8052 72.3516C87.983 72.1738 89.8321 69.258 90.0099 69.258C90.1877 69.258 88.552 72.5294 88.3742 72.7428C88.3742 72.7428 88.9076 73.2762 89.2987 73.4895C89.4765 73.6673 89.8321 73.6673 90.0455 73.6673C90.0455 73.4895 91.1478 69.827 91.3256 69.827C91.5034 69.827 90.97 73.6673 90.97 73.8451C90.97 73.8451 91.3256 73.8451 91.5034 74.0229C91.6812 74.0229 91.859 74.2007 92.0368 74.2007C92.2146 74.2007 92.3923 74.0229 92.5701 74.0229C92.7479 74.0229 93.1035 73.8451 93.1035 73.8451C93.1035 73.6673 92.5701 69.827 92.7479 69.827C92.9257 69.827 93.8503 73.4895 94.0281 73.6673C94.2059 73.6673 94.5614 73.4895 94.7748 73.4895C94.9526 73.3117 95.6993 72.7428 95.6993 72.7428C95.6993 72.565 93.8858 69.258 94.0636 69.258C94.2414 69.258 96.0905 72.1738 96.2683 72.3516C96.2683 72.3516 96.6239 72.1738 96.8017 71.8183C96.9795 71.4627 97.1573 70.8937 97.1573 70.8937C96.9795 70.7159 94.9526 68.1557 95.1304 68.1557C95.3082 67.9779 97.335 70.1825 97.5128 70.3603C97.6906 70.1825 97.6906 70.0048 97.8684 69.827C97.8684 69.6492 98.0462 69.4714 97.8684 69.2936C97.5484 68.9024 97.015 68.5468 96.6594 68.1912Z" stroke="#FFE400" stroke-width="1.4806"/>
<path d="M90.2575 63.96H88.0528H87.875C87.875 64.1378 87.875 64.3156 87.875 64.3156C87.875 64.3156 88.6217 66.1291 88.6217 66.3424C88.7995 65.9868 90.0797 64.1733 90.2575 63.96Z" fill="#FFE400"/>
<path d="M90.2575 63.96H88.0528H87.875C87.875 64.1378 87.875 64.3156 87.875 64.3156C87.875 64.3156 88.6217 66.1291 88.6217 66.3424C88.7995 65.9868 90.0797 64.1733 90.2575 63.96Z" stroke="#FFE400" stroke-width="1.4806"/>
<path d="M96.2672 64.1732C96.2672 64.1732 96.2672 63.9954 96.2672 63.8176H96.0894H93.8848C94.0626 64.1732 95.3427 65.8445 95.5205 66.0223C95.556 65.9867 96.2672 64.1732 96.2672 64.1732Z" fill="#FFE400"/>
<path d="M96.2672 64.1732C96.2672 64.1732 96.2672 63.9954 96.2672 63.8176H96.0894H93.8848C94.0626 64.1732 95.3427 65.8445 95.5205 66.0223C95.556 65.9867 96.2672 64.1732 96.2672 64.1732Z" stroke="#FFE400" stroke-width="1.4806"/>
<path d="M68.7102 67.8C68.5324 67.6222 68.1768 67.2666 67.9634 67.2666C67.9634 67.2666 67.7856 66.911 67.43 66.7332L68.3546 64.5285C68.3546 64.3507 68.3546 64.1729 68.3546 64.1729C68.3546 63.9952 68.3546 63.8174 68.1768 63.8174C67.999 63.6396 67.8212 63.6396 67.6434 63.6396C67.6434 63.6396 65.0832 63.6396 64.9054 63.6396C64.9054 63.4618 64.5498 63.1062 64.5498 63.1062C64.372 62.3594 64.1942 62.1816 63.6252 62.1816C63.0563 62.1816 62.7007 62.3594 62.5229 62.715L62.1673 63.4618H59.3937C59.2159 63.4618 59.0381 63.6396 58.8603 63.6396C58.8603 63.8174 58.6825 63.8174 58.6825 63.9952C58.6825 64.1729 58.6825 64.3507 58.6825 64.3507L59.6071 66.3776C59.4293 66.7332 59.0737 67.1243 59.0737 67.1243C58.8959 67.3021 58.5403 67.6577 58.3269 67.6577C57.5802 68.1911 57.2246 68.7601 57.2246 69.1157C57.2246 69.649 57.5802 70.218 57.758 70.5736V71.107C57.9358 71.2847 58.2914 72.3871 58.6825 72.7427C58.8603 73.0983 60.1404 74.2006 60.7094 74.3784C61.065 74.5562 61.6339 74.734 61.8117 74.734H61.9895C62.1673 74.734 63.0918 75.0896 63.6252 75.0896C63.9808 75.0896 64.9054 74.734 65.0832 74.734H65.2609C65.4387 74.734 66.0077 74.5562 66.3633 74.3784C66.7189 74.2006 68.1768 72.9205 68.3901 72.7427C68.5679 72.3871 69.1369 71.4625 69.3147 71.107L69.4925 70.9292C69.6703 70.5736 70.0259 70.0046 70.0259 69.4712C69.9903 68.9023 69.4214 68.1911 68.7102 67.8ZM66.3277 68.5467C66.3277 68.9023 68.1412 71.107 68.3546 71.2847C68.3546 71.2847 68.1768 71.8181 67.999 72.0315C67.8212 72.2093 67.6434 72.5649 67.4656 72.5649C67.2878 72.3871 65.4387 69.4712 65.2609 69.4712C65.2609 69.649 65.7943 70.7514 66.7189 72.956C66.7189 72.956 66.1855 73.4894 65.7943 73.7028C65.6165 73.8806 65.2609 73.8806 65.0476 73.8806C65.0476 73.7028 63.9453 70.0402 63.7675 70.0402C63.7675 70.0402 63.7675 70.0402 63.7675 70.218C63.7675 70.9647 64.1231 73.8806 64.1231 74.0584H63.9453H63.5897H63.4119C63.2341 74.0584 63.2341 74.0584 63.0563 74.2362C62.8785 74.2362 62.7007 74.2362 62.7007 74.0584H62.5229H62.1673H61.9895C61.9895 73.8806 62.3451 70.9647 62.3451 70.218C62.3451 70.0402 62.3451 70.0402 62.3451 70.0402C62.1673 70.0402 61.2428 73.7028 61.065 73.8806C60.8872 73.8806 60.7094 73.7028 60.3182 73.7028C60.6738 73.7028 60.1404 73.1694 59.9627 73.1694C60.7094 71.5337 61.4206 70.0757 61.4206 69.6846C61.4206 69.329 59.6071 72.2448 59.3937 72.4226C59.3937 72.4226 59.0381 72.067 58.8603 71.8893C58.8603 71.7115 58.6825 71.1425 58.6825 71.1425C58.8603 70.9647 60.7094 68.5823 60.7094 68.4045C60.5316 68.4045 58.5047 70.4313 58.3269 70.6091L58.1491 70.4313L57.9713 70.0757C57.9713 69.8979 57.9713 69.8979 57.9713 69.7202V69.5424C57.9713 69.1868 58.3269 68.7956 58.8959 68.44C59.0737 68.2622 59.4293 68.0844 59.6426 67.9066V67.551C59.9982 67.1955 62.5585 63.7107 63.1274 62.9995C63.3052 62.8217 63.483 62.8217 63.6608 62.8217C63.8386 62.8217 64.0164 62.8217 64.1942 62.9995C64.5498 63.924 67.11 67.1955 67.4656 67.551L67.6434 67.7288C67.8212 67.9066 67.999 68.0844 68.3901 68.2622C68.7457 68.44 69.3147 69.009 69.3147 69.3646V69.5424C69.3147 69.7202 69.3147 69.8979 69.3147 69.8979L69.1369 70.2535C69.1369 70.2535 69.1369 70.4313 68.9591 70.4313C68.5324 70.3602 66.6833 68.1911 66.3277 68.5467ZM65.4032 63.9596H67.6078C67.7856 63.9596 67.7856 63.9596 67.7856 63.9596V64.1374C67.7856 64.1374 67.2523 65.7731 67.0389 65.9509C66.8611 65.9865 65.6165 64.1729 65.4032 63.9596ZM61.7762 63.9596L60.1404 65.9865L59.3937 64.1729V63.9952C59.3937 63.9952 59.3937 63.9952 59.5715 63.9952C59.5715 63.9596 61.5984 63.9596 61.7762 63.9596Z" fill="black"/>
<path d="M83.1477 67.6225C82.9699 67.4447 82.6143 67.0891 82.401 67.0891C82.401 67.0891 82.2232 66.7335 81.8676 66.5557L82.7921 64.351C82.7921 64.1733 82.7921 63.9955 82.7921 63.9955C82.7921 63.8177 82.7921 63.6399 82.6143 63.6399C82.4366 63.4621 82.2588 63.4621 82.081 63.4621C82.081 63.4621 79.5207 63.4621 79.3429 63.4621C79.3429 63.2843 79.1651 62.9287 78.9873 62.9287C78.8095 62.1819 78.4539 62.0042 77.885 62.0042C77.3516 62.0042 76.9605 62.1819 76.7827 62.7509C76.7827 62.9287 76.4271 63.2843 76.4271 63.2843H73.689C73.5112 63.2843 73.3334 63.4621 73.1556 63.4621C73.1556 63.6399 72.9779 63.6399 72.9779 63.8177C72.9779 63.9955 72.9779 63.9955 72.9779 64.1733L73.9024 66.3779C73.7246 66.7335 73.369 66.9113 73.369 66.9113C73.1912 67.0891 72.8356 67.4447 72.6223 67.4447C71.8755 67.9781 71.5199 68.547 71.5199 69.0804C71.5199 69.6138 71.8755 70.1827 72.0533 70.5383L72.2311 70.7161C72.4089 70.8939 72.7645 71.9962 73.1556 72.3518C73.3334 72.7074 74.6136 73.8097 75.1825 73.9875C75.5381 74.1653 76.107 74.3431 76.2848 74.3431H76.4626C76.6404 74.3431 77.565 74.6987 78.0984 74.6987C78.4539 74.6987 79.5563 74.3431 79.7341 74.3431H79.9119C80.0897 74.3431 80.6586 74.1653 81.0142 73.9875C81.3698 73.8097 82.8277 72.5296 83.0411 72.3518C83.2189 71.9962 83.7878 71.0717 83.9656 70.7161L84.1434 70.5383C84.3212 70.1827 84.6768 69.6138 84.6768 69.0804C84.2145 68.7248 83.8589 68.1914 83.1477 67.6225ZM80.5875 68.1914C80.5875 68.547 82.401 70.7517 82.6143 70.9295C82.6143 70.9295 82.4366 71.4628 82.2588 71.6762C82.081 71.8896 81.9032 72.0318 81.7254 72.2096C81.5476 72.0318 79.6985 69.116 79.5207 69.116C79.5207 69.2938 80.0541 70.3961 80.9786 72.6007C80.9786 72.6007 80.4452 73.1341 80.0541 73.3475C79.8763 73.5253 79.5207 73.5253 79.3074 73.5253C79.3074 73.3475 78.205 69.6849 78.0272 69.6849C78.0272 69.6849 78.0272 69.6849 78.0272 69.8627C78.0272 70.6094 78.3828 73.5253 78.3828 73.7031H78.205H77.8494H77.6716C77.4938 73.7031 77.4938 73.7031 77.3161 73.8809C77.1383 73.8809 76.9605 73.8809 76.9605 73.7031H76.7827H76.4271H76.2493C76.2493 73.5253 76.6049 70.6094 76.6049 69.8627C76.6049 69.6849 76.6049 69.6849 76.6049 69.6849C76.4271 69.6849 75.5025 73.3475 75.3247 73.5253C75.147 73.5253 74.9692 73.3475 74.578 73.3475C74.4002 73.1697 73.8313 72.8141 73.6535 72.6007C74.4002 71.1428 75.1114 69.5071 75.1114 69.3293C74.9336 69.1515 73.0845 72.2451 72.9067 72.4229C72.9067 72.4229 72.5511 72.0674 72.3734 71.8896C72.1956 71.7118 72.0178 71.1428 72.0178 70.965C72.1956 70.7872 74.0446 68.4048 74.0446 68.227C73.8668 68.227 71.84 70.2538 71.6622 70.4316L71.4844 70.2538L72.4089 69.7205C72.4089 69.5427 72.4089 69.5427 72.4089 69.3649V69.1871C72.4089 68.8315 72.7645 68.4403 73.3334 68.0847C73.5112 67.9069 73.8668 67.7291 74.0802 67.5514L74.258 67.3736C74.6136 67.018 77.1738 63.5332 77.7428 62.822C77.9206 62.6442 78.0984 62.6442 78.2761 62.6442C78.4539 62.6442 78.6317 62.6442 78.8095 62.822C79.3429 63.7465 81.7254 67.018 82.2943 67.3736L82.4721 67.5514C82.6499 67.7291 82.8277 67.9069 83.2189 68.0847C83.5744 68.2625 84.1434 68.8315 84.1434 69.1871V69.3649C84.1434 69.5427 84.1434 69.7205 84.1434 69.7205L83.9656 70.076C83.9656 70.076 83.9656 70.2538 83.7878 70.2538C82.9699 70.0049 80.9431 68.1914 80.5875 68.1914ZM79.6629 63.6043H81.8676C82.0454 63.6043 82.0454 63.6043 82.0454 63.6043V63.7821C82.0454 63.7821 81.512 65.4178 81.2987 65.5956C81.2987 65.9868 79.8407 63.9599 79.6629 63.6043ZM76.0004 63.6043L74.3647 65.809L73.6179 63.9955V63.8177C73.6179 63.8177 73.6179 63.8177 73.7957 63.8177C73.8313 63.6043 75.8226 63.6043 76.0004 63.6043Z" fill="black"/>
<path d="M97.37 67.8004C97.1923 67.6226 96.8367 67.267 96.6233 67.267C96.6233 67.267 96.4455 66.9114 96.0899 66.7336L97.0145 64.529C97.0145 64.3512 97.0145 64.1734 97.0145 64.1734C97.0145 63.9956 97.0145 63.8178 96.8367 63.8178C96.6589 63.64 96.4811 63.64 96.3033 63.64C96.3033 63.64 93.743 63.64 93.5652 63.64C93.5652 63.4622 93.3874 63.1066 93.2096 63.1066C93.0318 62.5732 92.6763 62.3599 92.1073 62.3599C91.5384 62.3599 91.1828 62.5377 91.005 63.1066C91.005 63.2844 90.6494 63.64 90.6494 63.64H87.9113C87.7336 63.64 87.5558 63.8178 87.378 63.8178C87.378 63.9956 87.2002 63.9956 87.2002 64.1734C87.2002 64.3512 87.2002 64.529 87.2002 64.529L88.1247 66.7336C87.7691 67.0892 87.5913 67.267 87.5913 67.267C87.4135 67.4448 87.0579 67.8004 86.8446 67.8004C86.0978 68.3338 85.7422 68.9027 85.7422 69.4361C85.7422 69.9695 86.0978 70.5384 86.2756 70.894L86.4534 71.0718C86.6312 71.2496 86.9868 72.3519 87.378 72.7075C87.5558 73.0631 88.8359 74.1655 89.4048 74.3432C89.7604 74.521 90.3294 74.6988 90.5072 74.6988H90.685C90.8627 74.6988 91.7873 75.0544 92.3207 75.0544C92.6763 75.0544 93.7786 74.6988 93.9564 74.6988H94.1342C94.312 74.6988 94.8809 74.521 95.2365 74.3432C95.5921 74.1655 97.05 72.8853 97.2634 72.7075C97.4412 72.3519 98.0101 71.4274 98.1879 71.0718L98.3657 70.894C98.5435 70.5384 98.8991 69.9695 98.8991 69.4361C98.4724 68.9027 98.1168 68.1915 97.37 67.8004ZM94.8098 68.5471C94.8098 68.9027 96.6233 71.1074 96.8367 71.2852C96.8367 71.2852 96.6589 71.8186 96.4811 72.0319C96.3033 72.2097 96.1255 72.3875 95.9477 72.5653C95.7699 72.3875 93.9208 69.4717 93.743 69.4717C93.743 69.6495 94.2764 70.7518 95.2009 72.9565C95.2009 72.9565 94.6676 73.4898 94.2764 73.7032C94.0986 73.881 93.743 73.881 93.5297 73.881C93.5297 73.7032 92.4273 70.0406 92.2495 70.0406C92.2495 70.0406 92.2495 70.0406 92.2495 70.2184C92.2495 70.9651 92.6051 73.881 92.6051 74.0588H92.4629H92.1073H91.9295C91.7517 74.0588 91.7517 74.0588 91.5739 74.2366C91.3961 74.2366 91.2183 74.2366 91.2183 74.0588H91.0405H90.685H90.5072C90.5072 73.881 90.8627 70.9651 90.8627 70.2184C90.8627 70.0406 90.8627 70.0406 90.8627 70.0406C90.685 70.0406 89.7604 73.7032 89.5826 73.881C89.4048 73.881 89.227 73.7032 88.8359 73.7032C88.6581 73.5254 88.0891 73.1698 87.9113 72.9565C88.6581 71.4985 89.3693 69.8628 89.3693 69.685C89.1915 69.5072 87.3424 72.6009 87.1646 72.7787C87.1646 72.7787 86.809 72.4231 86.6312 72.2453C86.4534 72.0675 86.2756 71.4985 86.2756 71.3207C86.4534 71.1429 88.3025 68.7605 88.3025 68.5827C88.1247 68.5827 86.0978 70.6096 85.92 70.7873L85.7422 70.6096L85.5645 70.254C85.5645 70.0762 85.5645 70.0762 85.5645 69.8984V69.7206C85.5645 69.365 85.92 68.9738 86.489 68.6182C86.6668 68.4405 87.0224 68.2627 87.2357 68.0849L87.4135 67.9071C87.7691 67.5515 90.3294 64.0667 90.8983 63.3555C91.0761 63.1777 91.2539 63.1777 91.4317 63.1777C91.6095 63.1777 91.7873 63.1777 91.9651 63.3555C92.4985 64.2801 94.8809 67.5515 95.4499 67.9071L95.6277 68.0849C95.8054 68.2627 95.9832 68.4405 96.3744 68.6182C96.73 68.796 97.2989 69.365 97.2989 69.7206V69.8984C97.2989 70.0762 97.2989 70.254 97.2989 70.254L97.1211 70.6096C97.1211 70.6096 97.1211 70.7873 96.9433 70.7873C97.0145 70.3606 95.201 68.1915 94.8098 68.5471ZM93.9208 63.96H96.1255C96.3033 63.96 96.3033 63.96 96.3033 63.96V64.1378C96.3033 64.1378 95.7699 65.7735 95.5565 65.9513C95.3787 65.9869 94.0986 64.1734 93.9208 63.96ZM90.2582 63.96L88.6225 66.1647L87.8758 64.3512V63.9956C87.8758 63.9956 87.8758 63.9956 88.0536 63.9956C88.0536 63.96 90.0805 63.96 90.2582 63.96Z" fill="black"/>
</svg>
