<svg baseProfile="tiny" xmlns="http://www.w3.org/2000/svg" viewBox="95 806.91 400 58.426"><path fill="#D40005" d="M135.315 835.841a467.335 467.335 0 0 0 16.277 8.468l-6.727 11.761c-7.245-4.845-15.524-9.879-15.524-9.879l-.141-.047v.141c.235 9.644.8 18.346.8 18.346h-13.501c.612-8.703.8-18.346.8-18.346v-.141l-.141.047c-8.232 5.034-15.524 9.879-15.524 9.879L95 844.261c7.856-3.81 16.277-8.468 16.277-8.468l.141-.047-.141-.047C102.856 831.09 95 827.232 95 827.232l6.774-11.761c7.244 4.845 15.524 9.879 15.524 9.879l.141.047v-.141c-.235-9.644-.8-18.346-.8-18.346h13.501c-.612 8.703-.8 18.346-.8 18.346v.141l.141-.047c8.232-5.034 15.524-9.879 15.524-9.879l6.774 11.761c-7.856 3.81-16.277 8.468-16.277 8.468l-.141.047v.094h-.046z"/><path d="M226.013 847.225c0 3.575 2.775 6.821 7.715 6.821 4.61 0 6.68-1.27 9.032-3.622l7.95 7.997c-4.469 4.469-8.844 6.915-16.935 6.915-9.691 0-20.793-3.528-20.793-22.345 0-14.301 8.138-22.345 19.57-22.345 12.654 0 19.664 9.267 19.664 20.699v5.927H226.06v-.047h-.047zm12.278-12.231c-.8-1.882-2.587-3.387-5.739-3.387s-4.986 1.552-5.739 3.387c-.612 1.129-.706 2.352-.706 3.387h13.031c-.095-1.035-.283-2.211-.847-3.387m35.187 30.295c-6.586 0-13.031-.376-19.005-6.351l8.609-8.609c3.622 3.622 8.374 3.622 10.679 3.622 1.929 0 5.692-.612 5.692-2.87 0-1.223-.612-2.54-3.152-2.775l-6.727-.659c-7.574-.706-12.654-4.14-12.654-12.654 0-9.691 8.703-14.489 17.406-14.489 7.15 0 12.89 1.035 17.217 5.41l-8.185 8.185c-2.164-2.164-5.833-2.587-9.267-2.587-3.293 0-4.281 1.552-4.281 2.54 0 .47-.188 2.117 2.87 2.399l6.727.659c9.22.894 13.125 6.351 13.125 13.313-.096 10.397-8.846 14.866-19.054 14.866m37.069-18.064c0 3.575 2.776 6.821 7.715 6.821 4.61 0 6.68-1.27 9.032-3.622l7.997 7.997c-4.469 4.469-8.844 6.915-16.935 6.915-9.691 0-20.793-3.528-20.793-22.345 0-14.301 8.138-22.345 19.57-22.345 12.654 0 19.664 9.267 19.664 20.699v5.927h-26.203v-.047h-.047zm12.326-12.231c-.8-1.882-2.587-3.387-5.739-3.387-3.152 0-4.986 1.552-5.739 3.387-.612 1.129-.706 2.352-.706 3.387h12.937c-.048-1.035-.236-2.211-.753-3.387m42.149 29.825v-3.575c-2.681 2.681-5.128 3.999-9.738 3.999-4.375 0-8.044-1.458-10.49-3.952-2.54-2.54-3.81-6.162-3.81-10.255 0-6.586 4.469-12.654 14.818-12.654h8.844v-1.129c0-3.999-1.929-5.457-6.586-5.457-3.387 0-4.845.8-6.962 2.917l-8.279-8.279c4.469-4.469 8.562-5.833 15.947-5.833 12.56 0 19.24 5.222 19.24 15.806v28.414h-12.984v-.002zm-.329-17.594h-6.727c-2.587 0-4.234 1.458-4.234 3.528 0 1.929 1.458 3.622 4.375 3.622 2.587 0 3.81-.235 5.269-1.646.988-.894 1.27-2.305 1.27-4.375l.047-1.129zm45.396-12.278c-1.317-1.317-2.54-2.305-4.798-2.305-1.835 0-5.41 1.035-5.41 5.974v26.155h-13.313v-43.749h13.031v3.575c1.929-1.929 5.739-4.046 10.349-4.046 4.281 0 7.197 1.035 10.255 4.046l-10.114 10.35zm28.319 30.342c-7.574 0-19.664-3.293-19.664-22.345 0-19.099 12.09-22.345 19.664-22.345 6.116 0 10.773 1.976 14.395 5.645l-9.032 9.032c-1.693-1.694-3.152-2.587-5.41-2.587-1.835 0-3.011.612-4.187 1.693-1.552 1.646-2.164 4.469-2.164 8.609s.659 6.962 2.164 8.609c1.129 1.129 2.352 1.693 4.187 1.693 2.164 0 3.622-.894 5.41-2.587l9.032 9.032c-3.528 3.529-8.279 5.551-14.395 5.551m43.326-.47v-26.532c0-4.704-3.387-5.692-5.081-5.692s-5.128.988-5.128 5.692v26.532h-13.36v-57.862h13.313v17.735c2.776-2.776 6.257-4.046 9.55-4.046 9.408 0 13.972 6.962 13.972 15.806v28.366h-13.266v.001zm-286.252-.282l-10.161-21.404h-4.798v21.404h-14.16v-57.58h22.815c3.105 0 5.833.47 8.279 1.505 2.493.988 4.563 2.352 6.257 4.14a17.474 17.474 0 0 1 3.81 5.974 19.542 19.542 0 0 1 1.27 6.915c0 3.622-.894 6.727-2.728 9.267-1.835 2.54-4.046 4.469-6.68 5.739l12.466 24.039h-16.37v.001zm-2.493-43.185c-1.082-1.129-2.587-1.741-4.469-1.741h-7.997v11.619h7.997c1.882 0 3.387-.612 4.469-1.741 1.082-1.129 1.646-2.54 1.646-4.14 0-1.41-.564-2.821-1.646-3.997" fill="#333"/></svg>