<svg xmlns="http://www.w3.org/2000/svg" width="180" height="54" viewBox="0 0 180 54" fill="none">
<g id="UK_Research_and_Innovation_logo 1" clip-path="url(#clip0_2453_17075)">
<g id="layer1">
<g id="g1146">
<path id="path224" d="M73.9743 19.0104C73.9743 22.7273 71.8052 24.2837 69.1767 24.2837C66.5481 24.2837 64.3501 22.7273 64.3501 19.0104V12.0928H66.722V18.8384C66.722 20.8101 67.5416 22.0015 69.1767 22.0015C70.8159 22.0015 71.6024 20.8101 71.6024 18.8384V12.0928H73.9743" fill="#1E1E5C"/>
<path id="path226" d="M79.3307 19.0985H78.3414V24.1998H76.0522V12.0928H78.3414V16.85H79.2934L82.3152 12.0928H84.9272L81.2058 17.9743L85.4363 24.1998H82.8119" fill="#1E1E5C"/>
<path id="path228" d="M93.5782 17.6093H95.4534C96.4262 17.6093 97.0761 16.85 97.0761 15.8474C97.0761 14.8447 96.4096 14.2532 95.4534 14.2532H93.5782M97.5355 24.1998L94.9939 19.753H93.5782V24.1998H91.4092V12.0928H95.6231C97.5852 12.0928 99.3279 13.4268 99.3279 15.8096C99.3279 17.4709 98.4048 18.7336 97.1754 19.3377L100.061 24.1998" fill="#1E1E5C"/>
<path id="path230" d="M102.689 18.7841H106.526C106.27 17.7647 105.57 17.3494 104.717 17.3494C103.782 17.3494 103.028 17.8864 102.689 18.7841ZM108.778 20.5335H102.552C102.809 21.8465 103.865 22.3332 104.788 22.3332C105.947 22.3332 106.443 21.6032 106.443 21.6032H108.592C107.942 23.3358 106.39 24.2839 104.717 24.2839C102.416 24.2839 100.4 22.5052 100.4 19.8077C100.4 17.1271 102.399 15.4658 104.651 15.4658C106.837 15.4658 109.051 17.0054 108.778 20.5335Z" fill="#1E1E5C"/>
<path id="path232" d="M113.439 17.2991C112.719 17.2991 112.413 17.6598 112.413 18.0248C112.413 18.6121 113.183 18.7883 113.696 18.889C115.211 19.2162 116.751 19.6861 116.751 21.5193C116.751 23.298 115.298 24.2839 113.543 24.2839C111.577 24.2839 110.061 23.0757 109.958 21.2424H112.057C112.106 21.7584 112.45 22.4338 113.489 22.4338C114.358 22.4338 114.565 21.9682 114.565 21.6032C114.565 20.9656 113.969 20.7726 113.385 20.6383C112.38 20.4118 110.215 19.9965 110.215 18.0248C110.215 16.33 111.817 15.4658 113.472 15.4658C115.385 15.4658 116.647 16.6404 116.751 18.0961H114.648C114.582 17.8025 114.309 17.2991 113.439 17.2991Z" fill="#1E1E5C"/>
<path id="path234" d="M120.092 18.7841H123.933C123.676 17.7647 122.977 17.3494 122.124 17.3494C121.184 17.3494 120.435 17.8864 120.092 18.7841ZM126.185 20.5335H119.955C120.212 21.8465 121.271 22.3332 122.19 22.3332C123.353 22.3332 123.846 21.6032 123.846 21.6032H125.994C125.349 23.3358 123.796 24.2839 122.124 24.2839C119.818 24.2839 117.807 22.5052 117.807 19.8077C117.807 17.1271 119.802 15.4658 122.054 15.4658C124.239 15.4658 126.458 17.0054 126.185 20.5335Z" fill="#1E1E5C"/>
<path id="path236" d="M132.547 20.567V20.395C130.995 20.567 129.459 20.7558 129.459 21.6577C129.459 22.9708 132.41 22.8659 132.547 20.567ZM135.656 22.5387V24.2H135.142C134.153 24.2 133.453 23.835 133.164 23.0925C132.65 23.8014 131.798 24.2839 130.465 24.2839C128.54 24.2839 127.311 23.2812 127.311 21.7249C127.311 19.0274 130.945 18.7883 132.58 18.7002C132.547 17.6976 132.001 17.3326 131.131 17.3326C129.918 17.3326 129.836 18.0752 129.836 18.0752H127.704C127.857 16.5398 129.099 15.4658 131.185 15.4658C133.213 15.4658 134.646 16.4852 134.646 18.9939V21.2928C134.646 22.2954 135.006 22.5387 135.656 22.5387Z" fill="#1E1E5C"/>
<path id="path238" d="M142.378 15.4658V17.6808C142.204 17.6431 141.914 17.6095 141.625 17.6095C140.433 17.6095 139.187 18.2304 139.187 19.8245V24.2H136.914V15.5539H138.657L138.963 16.502H139.236C139.613 16.1244 140.449 15.4658 141.848 15.4658" fill="#1E1E5C"/>
<path id="path240" d="M147.205 24.2839C144.833 24.2839 142.887 22.4338 142.887 19.8916C142.887 17.3158 144.899 15.4658 147.292 15.4658C149.237 15.4658 150.889 16.695 151.369 18.717H149.047C148.691 18.008 148.057 17.5592 147.238 17.5592C146.046 17.5592 145.089 18.5282 145.089 19.8748C145.089 21.2257 146.046 22.1947 147.238 22.1947C148.008 22.1947 148.604 21.7962 148.98 21.1543H151.315C150.769 23.2141 149.014 24.2839 147.205 24.2839Z" fill="#1E1E5C"/>
<path id="path242" d="M160.906 19.514V24.1999H158.621V20.03C158.621 19.1826 158.758 17.471 157.222 17.471C156.469 17.471 155.02 17.8695 155.02 20.1348V24.1999H152.731V11.9209H154.9V16.4516H155.19C155.6 16.0195 156.386 15.4657 157.649 15.4657C159.847 15.4657 160.906 17.127 160.906 19.514Z" fill="#1E1E5C"/>
<path id="path244" d="M69.4166 38.2828V38.1067C67.8643 38.2828 66.3285 38.4716 66.3285 39.3694C66.3285 40.6824 69.28 40.5817 69.4166 38.2828ZM72.5211 40.2503V41.9116H72.012C71.0227 41.9116 70.3189 41.5508 70.0333 40.8041C69.52 41.5131 68.6673 41.9997 67.3344 41.9997C65.4054 41.9997 64.1802 40.9971 64.1802 39.4407C64.1802 36.7433 67.8146 36.4999 69.4497 36.4118C69.4166 35.4092 68.8701 35.0484 68.0009 35.0484C66.788 35.0484 66.7052 35.791 66.7052 35.791H64.5693C64.7224 34.2514 65.9684 33.1816 68.0505 33.1816C70.083 33.1816 71.5152 34.201 71.5152 36.7055V39.0086C71.5152 40.0112 71.8754 40.2503 72.5211 40.2503Z" fill="#1E1E5C"/>
<path id="path246" d="M81.9756 37.225V41.9109H79.7072V37.7452C79.7072 37.4515 79.9101 35.2701 78.2708 35.1862C77.4719 35.1317 76.0355 35.5847 76.0355 37.8501V41.9109H73.7837V33.2649H75.5264L75.8162 34.322H76.1059C76.4619 33.8857 77.2649 33.1768 78.6972 33.1768C80.8994 33.1768 81.9756 34.838 81.9756 37.225Z" fill="#1E1E5C"/>
<path id="path248" d="M89.6169 37.5899C89.6169 36.1552 88.8512 35.3036 87.7418 35.3036C86.7028 35.3036 85.6597 36.0671 85.6597 37.5899C85.6597 39.1085 86.7028 39.872 87.7418 39.872C88.8512 39.872 89.6169 39.0246 89.6169 37.5899ZM91.7529 29.6318V41.9108H90.0806L89.8405 41.0802H89.5838C89.054 41.6675 88.3379 41.9989 87.4189 41.9989C85.2498 41.9989 83.4409 40.1992 83.4409 37.5899C83.4409 34.9764 85.2498 33.1809 87.4189 33.1809C88.3047 33.1809 89.0747 33.4913 89.6169 34.1122V29.6318" fill="#1E1E5C"/>
<path id="path250" d="M100.777 41.9114H98.4048V29.8086H100.777V41.9114Z" fill="#1E1E5C"/>
<path id="path252" d="M111.084 37.225V41.9109H108.816V37.7452C108.816 37.4515 109.018 35.2701 107.379 35.1862C106.576 35.1317 105.144 35.5847 105.144 37.8501V41.9109H102.892V33.2649H104.631L104.925 34.322H105.214C105.57 33.8857 106.373 33.1768 107.806 33.1768C110.008 33.1768 111.084 34.838 111.084 37.225Z" fill="#1E1E5C"/>
<path id="path254" d="M121.114 37.225V41.9109H118.846V37.7452C118.846 37.4515 119.053 35.2701 117.413 35.1862C116.61 35.1317 115.178 35.5847 115.178 37.8501V41.9109H112.926V33.2649H114.665L114.959 34.322H115.244C115.604 33.8857 116.408 33.1768 117.84 33.1768C120.042 33.1768 121.114 34.838 121.114 37.225Z" fill="#1E1E5C"/>
<path id="path256" d="M129.066 37.5907C129.066 36.2398 128.279 35.1827 126.984 35.1827C125.688 35.1827 124.819 36.2398 124.819 37.5907C124.819 38.9373 125.688 39.9944 126.984 39.9944C128.279 39.9944 129.066 38.9373 129.066 37.5907ZM122.583 37.6074C122.583 34.8387 124.699 33.1816 126.984 33.1816C129.289 33.1816 131.301 34.8555 131.301 37.5739C131.301 40.3217 129.219 41.9997 126.917 41.9997C124.595 41.9997 122.583 40.3217 122.583 37.6074Z" fill="#1E1E5C"/>
<path id="path258" d="M140.619 33.2656L137.854 41.9117H134.542L131.777 33.2656H134.049L136.028 39.6295H136.367L138.35 33.2656" fill="#1E1E5C"/>
<path id="path260" d="M146.609 38.2828V38.1067C145.056 38.2828 143.521 38.4716 143.521 39.3694C143.521 40.6824 146.472 40.5817 146.609 38.2828ZM149.713 40.2503V41.9116H149.2C148.211 41.9116 147.511 41.5508 147.221 40.8041C146.708 41.5131 145.855 41.9997 144.527 41.9997C142.598 41.9997 141.368 40.9971 141.368 39.4407C141.368 36.7433 145.003 36.4999 146.642 36.4118C146.609 35.4092 146.062 35.0484 145.193 35.0484C143.98 35.0484 143.893 35.791 143.893 35.791H141.761C141.915 34.2514 143.161 33.1816 145.243 33.1816C147.271 33.1816 148.703 34.201 148.703 36.7055V39.0086C148.703 40.0112 149.063 40.2503 149.713 40.2503Z" fill="#1E1E5C"/>
<path id="path262" d="M156.572 41.2738C156.572 41.2738 155.852 41.9995 154.54 41.9995C152.905 41.9995 151.485 40.8753 151.485 39.1259V35.1154H149.779V33.4206H150.632C151.212 33.4206 151.605 33.0263 151.605 32.4012V30.6729H153.67V33.2654H155.823V35.1154H153.67V38.9917C153.67 39.579 154.146 40.0279 154.763 40.0279C155.272 40.0279 155.752 39.7342 155.752 39.7342" fill="#1E1E5C"/>
<path id="path264" d="M159.693 41.9109H157.508V33.2648H159.693V41.9109ZM157.135 30.8443C157.135 30.0136 157.802 29.376 158.601 29.376C159.387 29.376 160.033 30.0136 160.033 30.8443C160.033 31.6245 159.387 32.2957 158.601 32.2957C157.802 32.2957 157.135 31.6245 157.135 30.8443Z" fill="#1E1E5C"/>
<path id="path266" d="M167.765 37.5907C167.765 36.2398 166.979 35.1827 165.683 35.1827C164.388 35.1827 163.514 36.2398 163.514 37.5907C163.514 38.9373 164.388 39.9944 165.683 39.9944C166.979 39.9944 167.765 38.9373 167.765 37.5907ZM161.279 37.6074C161.279 34.8387 163.394 33.1816 165.683 33.1816C167.985 33.1816 170.001 34.8555 170.001 37.5739C170.001 40.3217 167.918 41.9997 165.613 41.9997C163.295 41.9997 161.279 40.3217 161.279 37.6074Z" fill="#1E1E5C"/>
<g id="Clip path group">
<mask id="mask0_2453_17075" style="mask-type:luminance" maskUnits="userSpaceOnUse" x="171" y="32" width="9" height="11">
<g id="clip1">
<path id="path216" d="M171.296 32.5566H179.641V42.2221H171.296V32.5566Z" fill="white"/>
</g>
</mask>
<g mask="url(#mask0_2453_17075)">
<g id="g270">
<path id="path268" d="M179.642 37.226V41.9119H177.373V37.7462C177.373 37.4525 177.576 35.2711 175.937 35.1872C175.134 35.1326 173.702 35.5857 173.702 37.851V41.9119H171.45V33.2658H173.188L173.482 34.323H173.772C174.128 33.8867 174.931 33.1777 176.363 33.1777C178.565 33.1777 179.642 34.839 179.642 37.226Z" fill="#1E1E5C"/>
</g>
</g>
</g>
<g id="Clip path group_2">
<mask id="mask1_2453_17075" style="mask-type:luminance" maskUnits="userSpaceOnUse" x="0" y="0" width="54" height="54">
<g id="clip2">
<path id="path219" d="M0.358398 0.363281H53.6701V53.6365H0.358398V0.363281Z" fill="white"/>
</g>
</mask>
<g mask="url(#mask1_2453_17075)">
<g id="g274">
<path id="path272" d="M52.9292 53.6365H0.358398V0.363281H52.9292V53.6365Z" fill="#1E1E5C"/>
</g>
</g>
</g>
<path id="path276" d="M41.0119 27.0015H32.7745V18.0828M33.83 43.5805H26.644V46.4918L21.5856 39.7713C25.4353 39.054 27.4263 37.0361 27.4263 33.5249C27.4263 32.6565 27.3021 31.8804 27.062 31.1966H33.83M12.276 31.1966H17.8849C20.1865 31.1966 21.122 32.1027 21.122 33.5249C21.122 34.947 20.1865 35.8783 17.8849 35.8783H12.276M26.644 20.646V30.2821C25.34 28.0503 22.339 27.0099 17.8849 27.0015C21.8588 26.5904 25.5305 24.4174 26.644 20.646ZM47.1424 6.22754H41.0119L32.7745 15.1211V6.22754H20.8653V18.0325C20.8653 20.5579 19.0191 22.0262 16.5686 22.0262C14.1222 22.0262 12.276 20.5579 12.276 18.0325V6.22754H6.14551V18.1206C6.14551 23.4483 10.3884 26.5065 15.1777 27.0015H6.14551V47.7755H12.276V40.0734H14.9501L20.617 47.7755H47.1424V43.5805H39.9564V31.1966H47.1424V25.7136L38.3586 16.5978L47.1424 7.51123" fill="white"/>
</g>
</g>
</g>
<defs>
<clipPath id="clip0_2453_17075">
<rect width="180" height="54" fill="white"/>
</clipPath>
</defs>
</svg>
