<svg xmlns="http://www.w3.org/2000/svg" viewBox="0 0 58 83" fill="#4B8ADD"><g opacity=".7"><path d="M57.3 43.4l-17.8-.1-.1-.3 16.3-11.4 1.6 11.8zm-17.2-.5l16.9.2-1.4-10.9-15.5 10.7z"/><path d="M51.4 54.9l-11.5-8.8.1-.3 17.1-2.7.2.2-5.9 11.6zm-11-8.8l10.9 8.3 5.6-11-16.5 2.7z"/><path d="M39.9 46.1l-.5-3.2 17.8.1v.3l-17.3 2.8zm-.1-2.8l.4 2.5 15-2.4-15.4-.1z"/><path d="M39.4 43.4L37 28.5l18.7 3.2.1.3-16.4 11.4zm-2-14.5l2.3 13.9L55.3 32l-17.9-3.1zm6.5 26.5l-4-9.4.2-.2 11.3 8.7-.1.3-7.4.6zm-3.5-8.9l3.7 8.6 6.8-.5-10.5-8.1z"/><path d="M39.4 43.2l-9.4-11 7.2-3.7 2.4 14.6-.2.1zm-8.8-10.9l8.7 10.2L37 29l-6.4 3.3zM44 55.4l-12-6.5v-.3l1.3-.4 10.8 6.9-.1.3zm-11.5-6.6l7.6 4.1-6.8-4.3-.8.2z"/><path d="M28.4 64.9l-.2-.2 3.7-16.2 12.2 6.6v.3l-15.7 9.5zM32.1 49l-3.5 15.4 15.1-9.1L32.1 49z"/><path d="M39.6 67.3l-11.2-2.4-.1-.3L44 55.1l.2.2-4.6 12zm-10.8-2.6L39.3 67l4.4-11.3-14.9 9z"/><path d="M43.9 55.4l-10.8-6.9v-.3l6.9-2.5 4.1 9.4-.2.3zm-10.2-7l10 6.4-3.7-8.7-6.3 2.3zm-2.5-35.6L28 9.2 33.4 1l.3.1-2.2 11.6-.3.1zm-2.7-3.7l2.8 3.2 2-10.5-4.8 7.3zm6.7 61.2l-7-5.5.1-.3L39.5 67l.1.3-4.4 3zM29 65l6.2 4.9 3.8-2.7L29 65z"/><path d="M33.2 48.7l-3-16.4.3-.1 9.4 11-6.7 5.5zm-2.6-15.9L33.4 48l5.9-5-8.7-10.2z"/><path d="M33.3 48.5l-.2-.3 6.3-5.3.3.1.5 3-6.9 2.5zm6.1-5.1L34 47.9l5.8-2-.4-2.5zM27.2 31l3.9-18.3h.3l5.9 16.2L27.2 31zm4.2-17.7l-3.7 17.3 9.3-2-5.6-15.3z"/><path d="M27.6 31l-3.8-1.7 7.4-16.6.3.1L27.6 31zm-3.4-1.9l3.1 1.4 3.5-16.3-6.6 14.9zm7.7 19.8l-1.7-16.6.3-.1 3 16.3-1.6.4zm-1-12.5l1.3 12.1.9-.2-2.2-11.9z"/><path d="M28.5 64.9L26 64l5.9-15.4.3.1-3.7 16.2zm-2.1-1.1l1.8.7 3.1-13.6-4.9 12.9zm3.9-31.4l-2.9-1.5.1-.3 9.7-2.1.1.3-7 3.6zm-2.4-1.6l2.4 1.2 5.7-2.9-8.1 1.7zM13.65 72.093l.179-.241L28.297 82.56l-.179.241z"/><path d="M26.3 64H26l-3.6-15.6 9.8.2L26.3 64zm-3.4-15.4l3.4 14.7 5.6-14.5-9-.2z"/><path d="M32.2 48.9l-9.8-.2 7.8-16.5.3.1 1.7 16.6zm-9.3-.6l8.9.2-1.6-15.7-7.3 15.5zm5.5 31l-.3-.1.1-14.5.3-.1 7 5.5-7.1 9.2zm.1-14.3l-.1 13.7 6.6-8.6-6.5-5.1z"/><path d="M22.8 48.5l-.3-.1 4.9-17.9 3.2 1.6-7.8 16.4zM27.6 31l-4.3 15.7 6.8-14.4-2.5-1.3zm.7-21.6L16.9 3l.1-.3L33.5.9l.2.2-5.4 8.3zM17.6 3l10.6 6 5-7.7L17.6 3zm5 61.3l-.1-15.8h.3l3.6 15.6-3.8.2zm.2-14.3l.1 14 3.1-.2L22.8 50z"/><path d="M28.1 79.3L22.6 64l3.8-.2 2.1 15.5h-.4zm-5.1-15l4.9 13.5-1.8-13.7-3.1.2z"/><path d="M28.1 79.2L26 63.7l2.5.9-.1 14.6h-.3zm-1.7-15L28.1 77l.1-12.1-1.8-.7zm-2.2-35l-.3-.1 4.2-20 .3-.1 3.1 3.6-.1.1-7.2 16.5zm4.1-19.7l-3.8 18.2 6.7-15-2.9-3.2z"/><path d="M22.8 48.5l-.3-.1 1.4-19.6 3.8 1.8-4.9 17.9zm1.4-19.1L23 46.8l4.3-16-3.1-1.4z"/><path d="M24.1 29.3L7.5 25.9l-.1-.3L28.2 9l.3.2-4.4 20.1zM7.9 25.6l16 3.3L28 9.6l-20.1 16zm20.3 53.8L13.5 72l9.4-8.1 5.6 15.3-.3.2zM14 71.9l13.9 7-5.3-14.5-8.6 7.5z"/><path d="M7.7 25.9l-.2-.2 9.6-23 11.6 6.5-21 16.7zm9.4-22.8L8 25.2l20-16-10.9-6.1zm11.1 79.7L13.6 72l.2-.3L28.4 79v3.5l-.2.3zm-12.8-9.9l12.7 9.4v-3l-12.7-6.4zm7.1-24.3l-14-20.3.2-.3 15.5 1-1.4 19.5-.3.1zM8.9 28.4L22.5 48l1.3-18.7-14.9-.9z"/><path d="M22.9 64.3H12l-.1-.3 10.6-15.7.3.1.1 15.9zM12.3 64h10.3l-.1-15-10.2 15zM7.4 25.8L.7 15.1 16.9 2.7l.2.2-9.4 22.9h-.3zM1.1 15.2l6.4 10.2 9.1-22L1.1 15.2z"/><path d="M1.1 51.8l7.3-23.6.3-.1 14.2 20.4-21.8 3.3zm7.5-23.2l-7 22.7 20.7-3L8.6 28.6z"/><path d="M24 29.3l-15.5-.9-1.1-2.6.2-.2L24.1 29l-.1.3zM8.7 28.1l13.1.8-14-2.9.9 2.1zm4.9 44.1L11.8 64h11l.1.3-9.3 7.9zm-1.4-7.9l1.6 7.3 8.5-7.3H12.2z"/></g><path d="M21.9 23.7c0-4-2.4-7.5-5.9-8.9-1.2-.5-2.4-.8-3.8-.8H.8v27h5.9v-7.6H11l3.7 7.6h6.4l-4.4-8.8c3.1-1.6 5.2-4.8 5.2-8.5zm-5.9 0c0 2.1-1.7 3.8-3.8 3.8H6.7v-7.6h5.5c2.1 0 3.8 1.7 3.8 3.8z"/><path d="M29.2 32.4v-2.1l-5 4.6 5 4.8v-2.1c4.8 0 7.6 4.1 7.6 8.3 0 4.2-2.9 8.5-7.6 8.5-5.1 0-7.6-4.3-7.6-8.5h-5.9c0 7.5 6 13.5 13.5 13.5s13.5-6 13.5-13.5-6-13.5-13.5-13.5z"/></svg>