<svg width="320" height="175" viewBox="0 0 320 175" fill="none" xmlns="http://www.w3.org/2000/svg">
<rect x="0.818824" y="0.818824" width="318.362" height="173.362" rx="2.45647" fill="white"/>
<rect x="0.818824" y="0.818824" width="318.362" height="173.362" rx="2.45647" stroke="#E0E0E0" stroke-width="1.63765"/>
<g clip-path="url(#clip0_3412_3614)">
<path d="M79.016 103.619C79.1424 102.86 79.2267 101.638 79.2267 99.9525H80.0277C80.0699 101.09 80.112 101.765 80.2385 101.975C80.3228 102.186 80.5336 102.397 80.913 102.65C81.2503 102.902 81.714 103.113 82.3042 103.282C82.8944 103.45 83.4424 103.577 83.9905 103.577C84.7914 103.577 85.5081 103.408 86.1826 103.029C86.8571 102.65 87.3209 102.186 87.6581 101.596C87.9532 101.006 88.1218 100.374 88.1218 99.6996C88.1218 99.1939 88.0375 98.7304 87.9111 98.3511C87.7424 97.9718 87.5316 97.6768 87.1944 97.424C86.8993 97.2133 86.4777 97.0447 86.014 96.9183C85.7189 96.8761 85.1287 96.7918 84.2856 96.6654C83.4003 96.539 82.6836 96.4125 82.0512 96.2861C81.2503 96.0333 80.6179 95.7383 80.2385 95.4011C79.8591 95.064 79.5218 94.6004 79.3111 94.0526C79.0581 93.5047 78.9316 92.9147 78.9316 92.2826C78.9316 91.3555 79.1846 90.4705 79.6483 89.6698C80.112 88.8691 80.8287 88.1948 81.7983 87.7734C82.7679 87.3098 83.7797 87.0991 84.8758 87.0991C85.5503 87.0991 86.2669 87.1834 87.0679 87.352C87.8689 87.5205 88.5856 87.7734 89.3022 88.1105C89.1758 88.6162 89.1336 89.0798 89.0493 89.5012C89.0071 89.9226 88.965 90.5548 88.9228 91.3976H88.1218C88.0797 90.1755 88.0797 89.5434 87.9954 89.4169C87.7846 89.1219 87.5316 88.8691 87.1944 88.6584C86.3934 88.1948 85.5503 87.9841 84.665 87.9841C83.5267 87.9841 82.5993 88.3212 81.9248 89.0377C81.2503 89.7119 80.913 90.6391 80.913 91.7348C80.913 92.409 81.0395 92.9147 81.2924 93.294C81.5454 93.6733 81.9669 93.9683 82.5993 94.179C83.0209 94.3476 83.7375 94.474 84.7071 94.6004C85.6767 94.7269 86.562 94.8533 87.363 95.0219C88.1218 95.2326 88.6699 95.4854 89.0071 95.8226C89.3444 96.1175 89.6395 96.539 89.8924 97.0025C90.1032 97.5082 90.2297 98.0561 90.2297 98.7304C90.2297 100.29 89.5973 101.68 88.2905 102.818C86.9836 103.998 85.2973 104.546 83.2316 104.546C81.714 104.546 80.2807 104.251 79.016 103.619Z" fill="black"/>
<path d="M91.4941 94.9379V94.4322C92.253 94.1372 92.8432 93.8844 93.3069 93.6315C93.3069 91.7351 93.3069 90.5552 93.3069 90.0494C94.1079 89.7545 94.7824 89.4595 95.2883 89.1223L95.5834 89.3752C95.499 90.0494 95.4147 91.4823 95.2883 93.7158H96.4265C96.5108 93.7158 96.8902 93.7158 97.649 93.6737C98.0706 93.6737 98.3657 93.6315 98.5765 93.6315L98.6608 93.7158L98.4079 94.8115C97.902 94.8115 97.4383 94.8115 97.0588 94.8115C96.6373 94.8115 96.0471 94.8115 95.3304 94.8115L95.2883 99.6157C95.2461 100.796 95.2883 101.47 95.3304 101.723C95.3726 101.934 95.4569 102.144 95.5412 102.313C95.6677 102.481 95.7941 102.608 95.9628 102.734C96.1314 102.861 96.4265 102.903 96.8481 102.987C97.1853 102.987 97.4383 102.987 97.649 102.945C97.8598 102.903 98.1128 102.861 98.4079 102.734L98.5343 103.198C98.1549 103.493 97.8177 103.788 97.4804 104.125C97.1853 104.251 96.8902 104.294 96.6373 104.336C96.3843 104.378 96.0892 104.378 95.752 104.378C95.3304 104.378 94.9932 104.336 94.7402 104.251C94.4873 104.167 94.2765 104.041 94.0657 103.872C93.8549 103.704 93.6863 103.493 93.5598 103.24C93.4334 102.987 93.349 102.566 93.3069 102.018C93.3069 101.47 93.349 100.88 93.349 100.248C93.349 100.121 93.349 99.995 93.349 99.8264V94.9379H92.8432C92.4216 94.8958 92 94.8958 91.4941 94.9379Z" fill="black"/>
<path d="M104.436 104.209V103.409C105.068 103.409 105.447 103.367 105.616 103.324C105.785 103.282 105.911 103.198 106.038 103.072C106.164 102.945 106.375 102.65 106.586 102.102C106.712 101.807 107.26 100.712 108.103 98.773L111.054 92.1146C111.391 91.3982 112.066 89.7546 113.12 87.2261H113.879L118.938 99.068C119.781 101.007 120.287 102.187 120.582 102.692C120.75 102.987 120.877 103.156 121.088 103.24C121.256 103.324 121.678 103.367 122.268 103.367V104.167C121.045 104.083 120.16 104.041 119.696 104.041L115.902 104.167V103.367C116.788 103.367 117.336 103.324 117.504 103.282C117.673 103.24 117.799 103.198 117.884 103.114C117.968 103.029 117.968 102.945 117.968 102.819C117.968 102.65 117.926 102.439 117.799 102.144L116.366 98.5202H109.537L108.272 101.554C108.061 102.102 107.935 102.482 107.935 102.734C107.935 102.861 107.977 102.945 108.019 102.987C108.103 103.114 108.23 103.156 108.44 103.198C108.736 103.282 109.241 103.282 109.958 103.324V104.125C108.609 104.041 107.639 103.999 106.965 103.999C106.164 104.083 105.321 104.125 104.436 104.209ZM109.916 97.5931H115.86L112.909 90.471L109.916 97.5931Z" fill="black"/>
<path d="M123.195 104.21V103.535H124.334C124.502 103.535 124.629 103.493 124.713 103.451C124.797 103.409 124.882 103.325 124.924 103.24C125.008 103.072 125.05 102.819 125.092 102.397C125.092 102.313 125.135 101.175 125.135 99.026V97.5932C125.135 96.961 125.135 96.2868 125.092 95.5704C125.05 95.1068 125.05 94.8118 124.966 94.7275C124.924 94.6432 124.839 94.5589 124.713 94.5168C124.586 94.4747 124.081 94.4747 123.195 94.4747V93.8004C124.797 93.5897 125.936 93.2947 126.694 92.9154C126.863 92.8311 126.947 92.789 127.032 92.789C127.074 92.789 127.116 92.8311 127.158 92.8311C127.2 92.8733 127.2 92.9154 127.2 92.9997V93.1682C127.158 93.4632 127.158 94.0532 127.116 94.9804L129.308 93.084C129.94 92.8311 130.573 92.7468 131.163 92.7468C131.795 92.7468 132.386 92.8733 132.976 93.1261C133.566 93.379 133.987 93.7161 134.283 94.0954C134.578 94.4747 134.746 94.9804 134.873 95.5704C134.915 95.9075 134.957 96.9189 134.957 98.5203V100.627C134.957 101.639 134.999 102.355 135.041 102.735C135.084 102.987 135.126 103.114 135.21 103.24C135.294 103.325 135.421 103.409 135.589 103.409L136.854 103.451V104.125C136.095 104.083 135.421 104.041 134.915 104.041C134.451 104.041 133.735 104.083 132.723 104.125C132.849 102.187 132.891 100.965 132.891 100.459V98.4782C132.891 97.256 132.849 96.4132 132.765 96.0339C132.638 95.4861 132.343 95.0646 131.837 94.7696C131.374 94.4325 130.784 94.3061 130.109 94.3061C129.519 94.3061 128.971 94.4325 128.507 94.7275C128.001 95.0225 127.664 95.3175 127.453 95.6968C127.242 96.0761 127.116 96.6661 127.116 97.551V98.9839C127.158 101.049 127.158 102.145 127.158 102.313C127.158 102.692 127.2 102.987 127.285 103.156C127.327 103.24 127.369 103.282 127.411 103.325C127.453 103.367 127.58 103.409 127.706 103.451C127.748 103.451 128.17 103.451 129.013 103.493V104.167C128.043 104.125 127.2 104.083 126.399 104.083C125.767 104.125 124.671 104.125 123.195 104.21Z" fill="black"/>
<path d="M144.949 88.153V87.4787C145.835 87.3944 146.551 87.268 147.184 87.1415C147.774 87.0151 148.364 86.8465 148.954 86.678L149.123 86.8044C149.081 87.4787 149.038 88.7851 148.996 90.6815L148.954 92.5779V99.9528C148.954 100.753 148.954 101.47 148.996 102.018C149.038 102.608 149.081 102.945 149.165 103.071C149.249 103.198 149.334 103.282 149.502 103.366C149.671 103.451 150.177 103.493 150.978 103.577V104.209C150.008 104.167 149.334 104.125 148.954 104.125C148.617 104.125 147.9 104.167 146.888 104.209C146.931 103.661 146.931 102.945 146.931 102.018C146.593 102.228 146.172 102.608 145.666 103.029C145.118 103.493 144.696 103.872 144.401 104.167C143.769 104.336 143.221 104.42 142.715 104.42C141.83 104.42 140.986 104.209 140.27 103.746C139.511 103.324 138.963 102.65 138.541 101.807C138.12 100.964 137.951 100.037 137.951 98.9835C137.951 98.1828 138.078 97.4664 138.331 96.75C138.584 96.0335 138.879 95.4857 139.258 95.1064C139.469 94.8957 139.933 94.5586 140.691 94.095C141.45 93.6314 142.04 93.3364 142.546 93.1257C143.01 92.915 143.516 92.8307 144.064 92.8307C144.57 92.8307 145.034 92.8729 145.539 92.9993C146.003 93.1257 146.467 93.2943 146.931 93.5472V90.4286C146.931 89.3329 146.888 88.6587 146.804 88.4479C146.762 88.3637 146.72 88.2794 146.635 88.2372C146.425 88.1951 145.877 88.153 144.949 88.153ZM146.888 95.57C146.34 94.98 145.792 94.5586 145.202 94.2636C144.612 94.0107 144.022 93.8422 143.474 93.8422C142.841 93.8422 142.251 94.0107 141.703 94.3479C141.155 94.685 140.734 95.1907 140.438 95.8228C140.143 96.4971 140.017 97.2978 140.017 98.2249C140.017 99.6578 140.354 100.796 141.071 101.596C141.787 102.397 142.631 102.818 143.642 102.818C144.19 102.818 144.654 102.692 145.076 102.481C145.497 102.271 145.877 101.933 146.172 101.512C146.467 101.091 146.678 100.627 146.762 100.079C146.846 99.7421 146.846 98.8992 146.846 97.5085V95.57H146.888Z" fill="black"/>
<path d="M152.285 104.209V103.535C153.17 103.535 153.676 103.493 153.718 103.493C153.845 103.451 153.971 103.451 154.014 103.366C154.098 103.324 154.14 103.24 154.182 103.156C154.267 102.987 154.309 102.692 154.309 102.313C154.351 100.206 154.351 99.11 154.351 99.0257V97.5928C154.351 96.9607 154.351 96.2864 154.309 95.57C154.309 95.1065 154.267 94.8115 154.224 94.7272C154.182 94.6429 154.098 94.5586 153.971 94.5165C153.845 94.4743 153.339 94.4743 152.412 94.4743V93.8C154.014 93.5893 155.152 93.2943 155.911 92.9151C156.079 92.8308 156.164 92.7886 156.248 92.7886C156.29 92.7886 156.332 92.8308 156.374 92.8308C156.417 92.8729 156.417 92.9151 156.417 92.9993V93.1679C156.374 93.6315 156.374 94.39 156.332 95.4014C156.669 94.98 157.007 94.6007 157.302 94.1793C157.597 93.7579 157.808 93.5051 157.934 93.3786C158.187 93.1679 158.44 92.9993 158.735 92.8729C159.03 92.7465 159.367 92.7043 159.705 92.7043C160.042 92.7043 160.379 92.7886 160.674 92.9151L160.759 93.0836C160.632 94.1372 160.59 95.0643 160.548 95.865H160C159.831 95.4857 159.62 95.1907 159.368 95.0222C159.115 94.8536 158.819 94.7693 158.482 94.7693C157.892 94.7693 157.344 95.0222 156.922 95.5279C156.501 96.0336 156.29 96.7921 156.29 97.7614V98.9835C156.29 99.4892 156.29 100.459 156.332 101.849C156.332 102.355 156.374 102.65 156.374 102.776C156.417 102.903 156.459 102.987 156.501 103.071C156.543 103.113 156.627 103.198 156.754 103.198C157.007 103.282 157.639 103.324 158.651 103.408V104.083C157.26 104.041 156.079 103.998 155.11 103.998C154.182 104.125 153.213 104.125 152.285 104.209Z" fill="black"/>
<path d="M171.298 102.355L170.919 103.198C170.371 103.535 169.991 103.746 169.739 103.872C169.359 104.041 168.938 104.167 168.474 104.294C168.01 104.42 167.504 104.462 166.956 104.462C165.902 104.462 164.975 104.251 164.132 103.83C163.288 103.409 162.614 102.734 162.15 101.892C161.687 101.049 161.434 100.037 161.434 98.8573C161.434 97.9723 161.56 97.1295 161.813 96.4131C162.066 95.6966 162.361 95.1488 162.656 94.8116C162.867 94.5588 163.246 94.2638 163.71 93.9267C164.174 93.5895 164.68 93.3367 165.143 93.1681C165.776 92.9152 166.45 92.7888 167.167 92.7888C168.052 92.7888 168.853 92.9995 169.57 93.3788C170.287 93.8002 170.792 94.3481 171.13 95.0224C171.467 95.6966 171.636 96.4973 171.636 97.3823C171.636 97.593 171.593 97.888 171.593 98.183C171.045 98.3094 170.539 98.3516 170.076 98.3937C169.233 98.4359 168.389 98.478 167.546 98.478H163.752C163.752 99.6159 163.963 100.543 164.342 101.217C164.722 101.934 165.228 102.439 165.902 102.777C166.577 103.114 167.251 103.282 167.968 103.282C168.432 103.282 168.938 103.198 169.401 103.072C169.865 102.903 170.455 102.65 171.172 102.229L171.298 102.355ZM163.752 97.5509C163.963 97.593 164.385 97.593 165.017 97.6352C166.197 97.6773 166.998 97.6773 167.42 97.6773C168.474 97.6773 169.148 97.6352 169.486 97.6352C169.486 97.4666 169.486 97.298 169.486 97.2138C169.486 95.9916 169.233 95.0645 168.727 94.4745C168.221 93.8845 167.546 93.5895 166.703 93.5895C165.818 93.5895 165.101 93.9267 164.553 94.5588C164.005 95.1488 163.752 96.1602 163.752 97.5509Z" fill="black"/>
<path d="M177.536 104.335L177.03 102.692L175.934 99.0254C175.639 97.9719 175.302 96.9605 174.964 95.949C174.627 94.9798 174.416 94.3898 174.332 94.2634C174.248 94.1369 174.079 94.0105 173.953 93.9262C173.784 93.8841 173.405 93.7998 172.814 93.7576V93.0834C173.7 93.1255 174.627 93.1677 175.597 93.1677C176.651 93.1677 177.62 93.1255 178.548 93.0834V93.7576C177.831 93.7576 177.325 93.7998 177.114 93.8419C176.946 93.8841 176.862 93.9262 176.777 94.0105C176.693 94.0948 176.693 94.1791 176.693 94.3055C176.693 94.4741 176.819 94.9798 177.03 95.7805L178.126 99.5733C178.295 100.205 178.548 100.922 178.801 101.638L179.686 99.5733L181.414 95.6962C181.836 94.7691 182.215 93.8419 182.553 92.9148H183.143C183.649 94.3476 184.028 95.3169 184.197 95.7805L185.546 99.194C186.01 100.332 186.347 101.217 186.6 101.807L187.485 99.489C188.075 97.9719 188.497 96.7076 188.834 95.654C189.003 95.064 189.087 94.6848 189.087 94.4319C189.087 94.2212 189.003 94.0526 188.876 93.9684C188.708 93.8841 188.202 93.7998 187.359 93.7998V93.1255C188.539 93.1676 189.382 93.2098 189.846 93.2098C190.394 93.2098 191.153 93.1676 192.08 93.1255V93.7998C191.616 93.7998 191.321 93.8419 191.153 93.9262C190.984 94.0105 190.858 94.1369 190.731 94.3055C190.52 94.5583 190.225 95.1905 189.762 96.2019L188.539 99.1519L187.991 100.458C187.907 100.711 187.569 101.512 187.063 102.86C186.853 103.408 186.684 103.914 186.558 104.335H185.462L184.913 102.86L182.215 96.0755L181.077 98.5197L179.728 101.47C179.433 102.144 179.18 102.734 178.969 103.24L178.59 104.335H177.536Z" fill="black"/>
<path d="M193.726 100.627H194.442C194.442 101.091 194.484 101.428 194.527 101.723C194.569 101.976 194.653 102.271 194.737 102.524C194.822 102.777 194.99 102.987 195.159 103.156C195.37 103.325 195.58 103.451 195.791 103.577C196.002 103.662 196.255 103.746 196.508 103.788C196.761 103.83 197.098 103.83 197.604 103.83C198.405 103.83 199.08 103.62 199.585 103.198C200.091 102.777 200.344 102.187 200.344 101.428C200.344 101.091 200.26 100.796 200.091 100.543C199.923 100.29 199.712 100.08 199.375 99.9531C199.08 99.8267 198.405 99.616 197.393 99.4053C196.381 99.1946 195.749 99.026 195.454 98.8996C195.032 98.731 194.653 98.5203 194.4 98.3096C194.147 98.0568 193.936 97.7618 193.768 97.4246C193.599 97.0453 193.557 96.666 193.557 96.2446C193.557 95.6125 193.726 95.0647 194.063 94.5168C194.4 94.0111 194.906 93.5475 195.623 93.2525C196.339 92.9154 197.098 92.7468 197.899 92.7468C198.405 92.7468 198.953 92.8311 199.628 92.9575C200.302 93.084 200.808 93.2525 201.23 93.4632C201.187 94.3482 201.145 95.2332 201.103 96.1182H200.471C200.429 95.5282 200.386 95.1489 200.344 94.9804C200.302 94.8118 200.218 94.6432 200.133 94.4747C200.049 94.3482 199.881 94.1797 199.67 94.0111C199.459 93.8425 199.164 93.7161 198.827 93.5897C198.489 93.4632 198.068 93.4211 197.604 93.4211C196.93 93.4211 196.339 93.6318 195.918 94.0532C195.496 94.4747 195.285 94.9382 195.285 95.4861C195.285 95.7811 195.328 96.0761 195.454 96.2868C195.581 96.4975 195.749 96.7082 195.96 96.8346C196.171 96.9611 196.466 97.0875 196.803 97.2139L198.784 97.6775C199.796 97.9303 200.471 98.141 200.85 98.3096C201.23 98.4782 201.525 98.7732 201.735 99.1524C201.946 99.5317 202.073 99.9953 202.073 100.543C202.073 101.597 201.651 102.524 200.766 103.325C199.881 104.125 198.7 104.505 197.225 104.505C196.55 104.505 195.665 104.378 194.527 104.21C193.894 104.083 193.557 103.999 193.515 103.957C193.473 103.915 193.473 103.915 193.473 103.83C193.473 103.746 193.473 103.704 193.515 103.62C193.599 103.282 193.641 102.945 193.641 102.608C193.683 102.313 193.726 101.639 193.726 100.627Z" fill="black"/>
<path d="M209.366 109.941V64.5535H210.504V109.941H209.281H209.366Z" fill="black"/>
<path d="M287.82 109.941V64.5535H289V109.941H287.777H287.82Z" fill="black"/>
<path d="M218.809 70.032V69.6527C219.399 69.6949 219.905 69.6949 220.326 69.6949C220.621 69.6949 221.127 69.6949 221.928 69.6527C222.687 69.6527 223.193 69.6106 223.488 69.6106H224.289C224.542 69.6106 224.753 69.6106 224.921 69.6527C224.837 69.9899 224.753 70.5799 224.753 71.4227H224.373C224.331 70.9591 224.289 70.5799 224.247 70.327C224.036 70.2427 223.783 70.2006 223.488 70.1584C223.193 70.1163 222.856 70.1163 222.434 70.1163C222.013 70.1163 221.633 70.1584 221.212 70.2006C221.169 70.4113 221.169 70.622 221.169 70.7906C221.169 70.8749 221.169 71.3384 221.127 72.1391V73.4455H222.308C222.813 73.4455 223.193 73.4034 223.488 73.3613C223.614 73.3191 223.657 73.3191 223.699 73.277C223.741 73.2348 223.783 73.0663 223.825 72.7713L223.867 72.392H224.247L224.205 73.7405L224.247 75.1734H223.867L223.825 74.7941C223.783 74.3727 223.741 74.1198 223.741 74.1198C223.699 74.0777 223.614 74.0355 223.53 73.9934C223.319 73.9512 222.813 73.9091 222.013 73.9091C221.717 73.9091 221.464 73.9091 221.169 73.9512V75.1312C221.169 75.6791 221.169 76.1848 221.212 76.6905C221.212 77.0698 221.254 77.2805 221.296 77.3648C221.338 77.449 221.422 77.4912 221.507 77.5333C221.591 77.5755 221.886 77.5755 222.35 77.5755V77.9547C221.844 77.9126 221.338 77.9126 220.874 77.9126C220.411 77.9126 219.778 77.9126 218.935 77.9547V77.5755C219.399 77.5755 219.694 77.5333 219.778 77.5333C219.863 77.4912 219.947 77.449 219.989 77.4069C220.031 77.3226 220.073 77.1541 220.073 76.8169C220.073 76.7326 220.073 76.1848 220.115 75.1312V72.392C220.115 71.8441 220.115 71.3384 220.115 70.8327C220.115 70.4534 220.073 70.2427 220.031 70.1584C219.989 70.0742 219.905 70.032 219.82 69.9899C219.525 70.0742 219.272 70.0742 218.809 70.032Z" fill="black"/>
<path d="M225.512 73.909C225.512 73.2768 225.596 72.729 225.807 72.1811C225.975 71.6333 226.313 71.1697 226.734 70.7483C227.156 70.3269 227.662 69.9897 228.21 69.779C228.758 69.5683 229.39 69.4419 230.065 69.4419C230.697 69.4419 231.287 69.5262 231.835 69.6947C232.383 69.8633 232.805 70.1162 233.142 70.4112C233.479 70.7062 233.732 71.0433 233.943 71.3804C234.112 71.6333 234.196 71.9704 234.28 72.3076C234.365 72.6447 234.407 73.0661 234.407 73.4454C234.407 74.7518 233.943 75.8475 233.058 76.7325C232.173 77.6175 231.034 78.0389 229.685 78.0389C229.053 78.0389 228.505 77.9546 227.957 77.7439C227.409 77.5332 226.987 77.2382 226.608 76.8589C226.228 76.4796 225.975 75.9739 225.765 75.4261C225.638 75.0047 225.512 74.4568 225.512 73.909ZM226.734 73.4033C226.734 73.7825 226.776 74.1618 226.861 74.5411C226.945 74.9204 227.029 75.2575 227.156 75.5525C227.324 76.0161 227.577 76.4375 227.915 76.7325C228.21 77.0696 228.547 77.2803 228.926 77.4489C229.306 77.6175 229.727 77.6596 230.191 77.6596C230.823 77.6596 231.372 77.4911 231.835 77.1961C232.299 76.9011 232.636 76.4375 232.889 75.8896C233.1 75.3418 233.226 74.6675 233.226 73.9511C233.226 73.319 233.142 72.7711 232.973 72.2233C232.889 71.8861 232.721 71.5911 232.552 71.3383C232.383 71.0854 232.173 70.8326 231.962 70.664C231.709 70.4533 231.414 70.3269 231.034 70.1583C230.655 70.0319 230.233 69.9476 229.812 69.9476C229.179 69.9476 228.631 70.074 228.168 70.369C227.704 70.664 227.324 71.0433 227.114 71.5911C226.861 72.139 226.734 72.7711 226.734 73.4033Z" fill="black"/>
<path d="M234.869 70.0319V69.6526C235.501 69.6947 236.092 69.6947 236.64 69.6947C237.188 69.6947 237.736 69.6947 238.284 69.6526V70.0319C237.82 70.0319 237.525 70.074 237.441 70.074C237.356 70.1162 237.272 70.1583 237.23 70.2004C237.188 70.2847 237.146 70.4533 237.146 70.7904C237.146 70.8747 237.146 71.4226 237.103 72.4761V74.6675C237.103 75.5104 237.146 76.0582 237.272 76.3532C237.399 76.6061 237.567 76.8589 237.778 77.0275C237.947 77.1539 238.2 77.2803 238.495 77.3646C238.79 77.4489 239.127 77.491 239.506 77.491C239.928 77.491 240.35 77.4489 240.687 77.3225C241.024 77.196 241.277 77.0696 241.446 76.9432C241.614 76.7746 241.741 76.606 241.825 76.4375C241.909 76.2268 241.951 75.9739 241.994 75.6368C242.036 75.2996 242.036 74.8782 242.036 74.3725V72.5604C242.036 72.0125 242.036 71.5068 241.994 71.0011C241.994 70.6219 241.951 70.4111 241.909 70.3269C241.867 70.2426 241.783 70.2004 241.699 70.1583C241.614 70.1161 241.319 70.1161 240.855 70.1161V69.7369C241.488 69.779 241.994 69.779 242.289 69.779C242.542 69.779 243.048 69.779 243.764 69.7369V70.1161C243.301 70.1161 243.005 70.1583 242.921 70.1583C242.837 70.2004 242.752 70.2426 242.71 70.2847C242.668 70.369 242.626 70.5376 242.626 70.8747C242.626 70.959 242.626 71.5068 242.584 72.5604V74.5411C242.584 75.5103 242.5 76.1846 242.373 76.5639C242.247 76.9432 241.994 77.2803 241.614 77.5753C241.361 77.786 241.024 77.9546 240.56 78.081C240.139 78.2075 239.675 78.2496 239.127 78.2496C238.537 78.2496 237.989 78.1653 237.567 78.0389C237.103 77.9125 236.766 77.7017 236.555 77.491C236.345 77.2803 236.176 77.0275 236.092 76.7746C235.965 76.4375 235.923 75.9318 235.923 75.1732V72.5604C235.923 72.0125 235.923 71.5068 235.923 71.0011C235.923 70.6219 235.881 70.4111 235.839 70.3269C235.797 70.2426 235.712 70.2004 235.628 70.1583C235.628 70.074 235.333 70.074 234.869 70.0319Z" fill="black"/>
<path d="M244.44 78.0389V77.6596C244.861 77.6596 245.114 77.6175 245.241 77.5753C245.283 77.5332 245.325 77.5332 245.367 77.4489C245.409 77.3646 245.452 77.1539 245.452 76.8168C245.452 76.3111 245.494 75.8475 245.494 75.4682V70.7061C245.494 70.5797 245.494 70.4954 245.452 70.4533C245.409 70.369 245.367 70.2847 245.241 70.2004C245.156 70.1583 245.072 70.074 244.988 70.074C244.904 70.074 244.693 70.0319 244.355 70.0319V69.6526C245.03 69.6526 245.452 69.6947 245.62 69.6947C245.915 69.6947 246.21 69.6947 246.505 69.6526C246.843 70.074 247.096 70.4111 247.222 70.6219L248.445 72.139L250.215 74.2882C250.763 74.9625 251.227 75.5104 251.564 75.8896C251.775 76.1425 251.944 76.3532 252.112 76.4796V72.1811C252.112 71.8018 252.112 71.3383 252.07 70.8326C252.07 70.4954 252.028 70.3269 251.986 70.2426C251.944 70.2004 251.902 70.1583 251.859 70.1161C251.733 70.074 251.48 70.0319 251.058 70.0319V69.6526C251.522 69.6526 251.986 69.6947 252.45 69.6947C252.913 69.6947 253.293 69.6947 253.672 69.6526V70.0319C253.251 70.0319 252.998 70.074 252.871 70.1161C252.829 70.1583 252.787 70.1583 252.745 70.2426C252.703 70.3269 252.66 70.5376 252.66 70.8747C252.66 71.3804 252.618 71.844 252.618 72.2233V75.0468C252.618 75.6368 252.618 76.6903 252.66 78.2496L252.07 78.081L251.944 78.0389C251.902 78.0389 251.902 77.9967 251.859 77.9967C251.817 77.9967 251.775 77.9125 251.649 77.7439C251.311 77.3646 251.101 77.0696 250.932 76.901L250.173 75.9318L246 70.8747V75.4261C246 75.8053 246 76.2689 246.042 76.8168C246.042 77.1539 246.084 77.3646 246.126 77.4068L246.253 77.5332C246.379 77.5753 246.632 77.6175 247.054 77.6175V77.9967C246.716 77.9546 246.337 77.9546 245.915 77.9546C245.452 77.9967 244.946 77.9967 244.44 78.0389Z" fill="black"/>
<path d="M254.64 78.039V77.744C254.851 77.6176 255.062 77.4911 255.188 77.4069C255.231 77.154 255.231 76.7747 255.231 76.3112C255.273 75.5105 255.273 74.9626 255.273 74.6255V72.2234C255.273 71.8441 255.273 71.3805 255.231 70.8748C255.231 70.5377 255.188 70.3691 255.146 70.2848C255.104 70.2427 255.062 70.2005 255.02 70.1584C254.893 70.1162 254.598 70.0741 254.219 70.0741V69.6948C254.809 69.6948 255.315 69.737 255.736 69.737H257.128C257.718 69.737 258.181 69.6948 258.477 69.6948C259.446 69.6948 260.205 69.8213 260.795 70.0741C261.385 70.327 261.891 70.7484 262.271 71.2962C262.692 71.8862 262.861 72.5605 262.861 73.4033C262.861 73.9933 262.777 74.5412 262.566 75.089C262.355 75.5947 262.102 76.0583 261.765 76.4376C261.428 76.8169 261.09 77.154 260.711 77.3647C260.332 77.5754 259.952 77.744 259.531 77.8704C259.109 77.9969 258.561 78.039 257.844 78.039C257.591 78.039 257.296 78.039 256.875 77.9968C256.327 77.9968 255.989 77.9547 255.821 77.9547C255.652 77.9968 255.231 77.9968 254.64 78.039ZM256.453 77.4069C256.875 77.4911 257.338 77.5333 257.802 77.5333C258.308 77.5333 258.73 77.4911 259.109 77.4069C259.488 77.3226 259.826 77.1961 260.079 77.0276C260.332 76.859 260.584 76.6483 260.88 76.3533C261.132 76.0583 261.343 75.6369 261.47 75.1733C261.596 74.7097 261.681 74.204 261.681 73.6983C261.681 72.9819 261.554 72.3498 261.301 71.8019C261.048 71.2962 260.627 70.8748 260.121 70.622C259.615 70.327 258.856 70.2005 257.971 70.2005C257.507 70.2005 257.001 70.2427 256.495 70.327C256.495 70.5377 256.453 70.8748 256.453 71.3384L256.411 72.1812V74.5412V76.3533C256.411 76.6062 256.411 76.9433 256.453 77.4069Z" fill="black"/>
<path d="M263.832 78.0389V77.6596C264.254 77.6596 264.507 77.6175 264.633 77.5753C264.676 77.5332 264.718 77.5332 264.76 77.4489C264.802 77.3646 264.844 77.1539 264.844 76.8168C264.886 76.3111 264.886 75.8475 264.886 75.4682V72.4761C264.886 71.9283 264.886 71.4226 264.886 70.9169C264.886 70.5376 264.844 70.3269 264.802 70.2426C264.76 70.1583 264.675 70.1162 264.591 70.074C264.507 70.0319 264.212 70.0319 263.748 70.0319V69.6526L265.434 69.6947L267.205 69.6526H269.06C269.439 69.6526 269.819 69.6947 270.156 69.7369C270.072 69.9476 270.029 70.1583 270.029 70.3269C270.029 70.369 269.987 70.7904 269.945 71.549H269.566C269.566 71.1697 269.524 70.7904 269.481 70.4533C269.271 70.369 269.018 70.2847 268.765 70.2847C268.343 70.2426 267.879 70.2004 267.458 70.2004C267.374 70.2004 267.163 70.2004 266.826 70.2426C266.488 70.2426 266.277 70.2847 266.109 70.2847C266.109 70.7061 266.067 71.1276 266.067 71.5068L266.025 73.4875C266.488 73.5297 266.91 73.5297 267.289 73.5297C267.753 73.5297 268.175 73.4875 268.47 73.4454C268.596 73.4454 268.68 73.4032 268.723 73.3611C268.765 73.319 268.807 73.1504 268.807 72.8975L268.849 72.4761H269.186V72.6025L269.144 73.8247L269.186 75.2154H268.765V74.7939C268.765 74.4989 268.723 74.3304 268.68 74.2461C268.638 74.1618 268.554 74.1197 268.427 74.0775C268.217 74.0354 267.795 73.9932 267.121 73.9932C266.868 73.9932 266.488 73.9932 265.982 74.0354C265.982 74.4147 265.94 75.0046 265.94 75.8053C265.94 76.5218 265.94 77.0696 265.982 77.4489C266.53 77.491 267.163 77.5332 267.879 77.5332C268.385 77.5332 268.723 77.5332 268.933 77.491C269.144 77.4489 269.355 77.4068 269.524 77.3225C269.566 77.196 269.608 77.0275 269.65 76.8168C269.734 76.4796 269.819 76.2268 269.819 76.0161H270.198C270.114 76.8168 270.029 77.4489 270.029 77.9967C269.692 78.0389 269.271 78.081 268.807 78.081L265.308 78.0389C265.35 77.9967 264.802 77.9967 263.832 78.0389Z" fill="black"/>
<path d="M271.336 78.039V77.744C271.546 77.6176 271.757 77.4911 271.884 77.4069C271.884 77.154 271.926 76.7747 271.926 76.3112C271.968 75.5105 271.968 74.9626 271.968 74.6255V72.2234C271.968 71.8441 271.968 71.3805 271.926 70.8748C271.884 70.5377 271.884 70.3691 271.842 70.2848C271.799 70.2427 271.757 70.2005 271.715 70.1584C271.589 70.1162 271.293 70.0741 270.914 70.0741V69.6948C271.504 69.6948 271.968 69.737 272.432 69.737H273.823C274.413 69.737 274.877 69.6948 275.172 69.6948C276.142 69.6948 276.9 69.8213 277.491 70.0741C278.081 70.327 278.587 70.7484 278.966 71.2962C279.388 71.8862 279.598 72.5605 279.598 73.4033C279.598 73.9933 279.514 74.5412 279.303 75.089C279.093 75.5947 278.84 76.0583 278.502 76.4376C278.165 76.8169 277.828 77.154 277.448 77.3647C277.069 77.5754 276.69 77.744 276.268 77.8704C275.846 77.9969 275.298 78.039 274.582 78.039C274.329 78.039 274.034 78.039 273.612 77.9968C273.064 77.9968 272.727 77.9547 272.558 77.9547C272.347 77.9968 271.926 77.9968 271.336 78.039ZM273.148 77.4069C273.57 77.4911 274.034 77.5333 274.497 77.5333C275.003 77.5333 275.425 77.4911 275.804 77.4069C276.184 77.3226 276.521 77.1961 276.774 77.0276C277.027 76.859 277.322 76.6483 277.575 76.3533C277.828 76.0583 278.039 75.6369 278.165 75.1733C278.292 74.7097 278.376 74.204 278.376 73.6983C278.376 72.9819 278.249 72.3498 277.996 71.8019C277.743 71.2962 277.364 70.8748 276.816 70.622C276.268 70.327 275.551 70.2005 274.666 70.2005C274.202 70.2005 273.696 70.2427 273.191 70.327C273.191 70.5377 273.148 70.8748 273.148 71.3384L273.106 72.1812V74.5412V76.3533C273.106 76.6062 273.106 76.9433 273.148 77.4069Z" fill="black"/>
<path d="M220.03 88.448L219.777 88.3637L219.65 87.2259L219.777 87.0994C220.789 86.8044 221.885 86.4252 223.065 85.9195C224.836 85.1609 225.932 84.6973 226.438 84.4023L226.817 84.5288C226.648 88.8273 226.606 91.3137 226.606 91.9458V97.1714C226.606 99.2785 226.648 100.838 226.691 101.933C226.733 102.566 226.817 102.945 226.944 103.113C227.07 103.282 227.281 103.408 227.492 103.451C227.745 103.535 228.545 103.577 229.937 103.661V104.504C227.534 104.42 226.058 104.42 225.468 104.42C225.004 104.42 223.402 104.462 220.662 104.504V103.661C222.095 103.577 222.939 103.493 223.149 103.451C223.36 103.408 223.529 103.324 223.655 103.198C223.782 103.113 223.824 102.945 223.908 102.776C223.993 102.481 224.035 101.639 224.119 100.248C224.161 98.8571 224.203 97.8036 224.203 97.0871V91.5244C224.203 89.2487 224.203 87.8159 224.203 87.268C224.203 87.0152 224.161 86.8466 224.119 86.8044C224.077 86.7623 224.035 86.7623 223.95 86.7623C223.866 86.7623 223.655 86.8466 223.318 86.973C221.632 87.6894 220.578 88.1951 220.03 88.448Z" fill="black"/>
<path d="M238.327 104.546V103.703C239.802 103.661 240.645 103.619 240.898 103.577C241.151 103.535 241.32 103.45 241.446 103.324C241.573 103.155 241.657 102.86 241.741 102.481C241.826 101.807 241.868 101.048 241.868 100.332V99.2784H238.79C237.104 99.2784 235.586 99.3206 234.237 99.3627L233.984 98.6041C234.701 97.2556 235.671 95.5699 236.893 93.5892C238.664 90.7235 240.434 87.9422 242.205 85.245C242.331 85.2029 242.584 85.0765 242.964 84.9079C243.68 84.6129 244.102 84.4443 244.186 84.4443L244.524 84.6129C244.439 85.7508 244.397 87.1414 244.397 88.785C244.355 92.2828 244.313 94.1792 244.313 94.5163V97.4242C245.578 97.4242 246.631 97.382 247.475 97.3399C247.432 97.8034 247.432 98.1406 247.432 98.267L247.475 99.3206C246.505 99.2363 245.704 99.2363 245.029 99.2363H244.313V100.206C244.313 101.765 244.397 102.734 244.524 103.113C244.566 103.24 244.692 103.366 244.861 103.45C245.198 103.619 246.083 103.703 247.475 103.703V104.546C245.451 104.462 243.891 104.462 242.795 104.462C241.615 104.42 240.097 104.462 238.327 104.546ZM235.839 97.4663H241.868L241.994 87.4364C240.982 88.9114 239.802 90.7235 238.495 92.8728C237.188 94.9799 236.303 96.5392 235.839 97.4663Z" fill="black"/>
<path d="M251.86 88.448L251.607 88.3637L251.48 87.2259L251.607 87.0994C252.619 86.8044 253.715 86.4252 254.895 85.9195C256.624 85.1609 257.762 84.6973 258.268 84.4023L258.647 84.5288C258.479 88.8273 258.436 91.3137 258.436 91.9458V97.1714C258.436 99.2785 258.479 100.838 258.521 101.933C258.563 102.566 258.605 102.945 258.774 103.113C258.9 103.282 259.111 103.408 259.322 103.451C259.575 103.535 260.376 103.577 261.767 103.661V104.504C259.364 104.42 257.888 104.42 257.298 104.42C256.834 104.42 255.275 104.462 252.534 104.504V103.661C253.968 103.577 254.811 103.493 255.022 103.451C255.232 103.408 255.401 103.324 255.528 103.198C255.654 103.113 255.738 102.945 255.78 102.776C255.865 102.481 255.907 101.639 255.991 100.248C256.033 98.8571 256.076 97.8036 256.076 97.0871V91.5244C256.076 89.2487 256.076 87.8159 256.076 87.268C256.076 87.0152 256.033 86.8466 255.991 86.8044C255.949 86.7623 255.907 86.7623 255.823 86.7623C255.738 86.7623 255.528 86.8466 255.19 86.973C253.42 87.6894 252.366 88.1951 251.86 88.448Z" fill="black"/>
<path d="M267.077 104.083C266.951 103.282 266.824 102.65 266.74 102.228C266.698 101.975 266.445 101.175 266.107 99.9105L266.866 99.6155C267.456 101.175 268.131 102.27 268.89 102.818C269.649 103.366 270.66 103.661 271.883 103.661C272.768 103.661 273.569 103.493 274.159 103.113C274.792 102.776 275.255 102.186 275.677 101.428C276.056 100.627 276.267 99.784 276.267 98.7726C276.267 97.4662 275.93 96.4548 275.255 95.7805C274.581 95.0641 273.696 94.727 272.557 94.727C272.178 94.727 271.841 94.7691 271.503 94.8534C271.166 94.9377 270.703 95.1063 270.07 95.3591L269.902 95.2327L270.197 93.7156C270.955 93.7577 271.461 93.7999 271.714 93.7999C272.853 93.7999 273.738 93.3784 274.37 92.5777C275.003 91.777 275.298 90.8499 275.298 89.8385C275.298 88.9114 274.96 88.1528 274.286 87.5207C273.611 86.8885 272.768 86.5514 271.756 86.5514C271.166 86.5514 270.576 86.6778 269.986 86.9307C269.438 87.1835 268.932 87.5207 268.51 87.8999C268.342 88.2371 268.089 88.9535 267.709 89.9228H266.824L267.709 86.5514C268.342 85.8771 268.932 85.4136 269.48 85.1607C270.407 84.7393 271.377 84.5286 272.473 84.5286C274.075 84.5286 275.34 84.95 276.267 85.7928C277.195 86.6357 277.658 87.6471 277.658 88.8271C277.658 89.6278 277.405 90.4285 276.942 91.2292C276.478 92.0299 275.635 92.8306 274.497 93.6313C275.551 93.7577 276.394 94.0106 277.026 94.3477C277.658 94.6848 278.122 95.1905 278.459 95.8227C278.797 96.4548 278.965 97.1712 278.965 97.9298C278.965 99.0676 278.628 100.163 277.911 101.217C277.195 102.313 276.225 103.198 274.918 103.914C273.653 104.63 272.262 104.968 270.745 104.968C270.07 104.968 269.48 104.925 268.932 104.799C268.384 104.63 267.794 104.42 267.077 104.083Z" fill="black"/>
<path d="M78.5098 66.3234V65.7334C79.5215 65.7755 80.4911 65.7755 81.3343 65.7755C82.2196 65.7755 83.1049 65.7334 83.9902 65.7334V66.3234C83.2735 66.3234 82.8098 66.3655 82.6411 66.4077C82.4725 66.4498 82.3882 66.5341 82.3039 66.6184C82.2196 66.7448 82.1774 67.0398 82.1353 67.5455C82.1353 67.6719 82.0931 68.5569 82.0931 70.2005V73.6561C82.0931 75.0047 82.1774 75.8897 82.346 76.3111C82.5147 76.7325 82.7676 77.1118 83.147 77.3647C83.4421 77.5754 83.8215 77.7439 84.3274 77.8704C84.8333 77.9968 85.3392 78.0811 85.9715 78.0811C86.6882 78.0811 87.2784 77.9968 87.8264 77.8282C88.3745 77.6597 88.796 77.4489 89.049 77.1961C89.3019 76.9432 89.5127 76.6904 89.6392 76.3532C89.7657 76.0582 89.85 75.6368 89.9343 75.089C89.9764 74.5411 90.0186 73.8668 90.0186 73.0661V70.2005C90.0186 69.3576 90.0186 68.5148 89.9764 67.7141C89.9764 67.1241 89.9343 66.787 89.85 66.6605C89.7657 66.5341 89.6813 66.4498 89.5127 66.4077C89.3441 66.3655 88.9225 66.3234 88.1637 66.3234V65.7334C89.1755 65.7755 89.9343 65.7755 90.398 65.7755C90.8196 65.7755 91.6205 65.7334 92.7166 65.7334V66.3234C91.9578 66.3234 91.5362 66.3655 91.3676 66.4077C91.199 66.4498 91.1147 66.5341 91.0304 66.6184C90.946 66.7448 90.9039 67.0398 90.9039 67.5455C90.9039 67.6719 90.9039 68.5569 90.8617 70.2005V73.319C90.8617 74.8783 90.7353 75.9318 90.5245 76.564C90.3137 77.1539 89.9343 77.7018 89.3441 78.1654C88.9225 78.5025 88.3745 78.7975 87.7 78.9661C87.0255 79.1768 86.2666 79.2611 85.4656 79.2611C84.496 79.2611 83.6529 79.1346 82.9784 78.9239C82.2617 78.7132 81.7558 78.4182 81.3764 78.0389C80.997 77.6597 80.7441 77.2804 80.6176 76.9011C80.449 76.3954 80.3647 75.5525 80.3647 74.3304V70.2005C80.3647 69.3576 80.3647 68.5148 80.3225 67.7141C80.3225 67.1241 80.2804 66.787 80.196 66.6605C80.1117 66.5341 80.0274 66.4498 79.8588 66.4077C79.7323 66.3655 79.2686 66.3234 78.5098 66.3234Z" fill="black"/>
<path d="M93.3898 79.008V78.4602H94.2751C94.4016 78.4602 94.5281 78.418 94.5702 78.3759C94.6545 78.3337 94.6967 78.2916 94.7388 78.2073C94.8231 78.0809 94.8653 77.8702 94.8653 77.533C94.8653 77.4487 94.8653 76.5637 94.9075 74.8359V73.6981C94.9075 73.1924 94.9075 72.6445 94.8653 72.0967C94.8653 71.7174 94.8232 71.5067 94.781 71.4224C94.7388 71.3381 94.6545 71.296 94.5702 71.2538C94.4859 71.2117 94.0643 71.2117 93.3477 71.2117V70.6638C94.6124 70.4953 95.5398 70.2424 96.13 69.9896C96.2565 69.9474 96.3408 69.9053 96.383 69.9053C96.4251 69.9053 96.4673 69.9053 96.4673 69.9474C96.5094 69.9896 96.5094 70.0317 96.5094 70.0739V70.2424C96.5094 70.4531 96.4673 70.9588 96.4673 71.6753L98.1957 70.2003C98.7016 70.0317 99.2075 69.9053 99.629 69.9053C100.135 69.9053 100.599 69.9896 101.062 70.2003C101.526 70.411 101.863 70.6638 102.074 70.9588C102.285 71.2538 102.454 71.6753 102.538 72.1388C102.58 72.4338 102.622 73.1924 102.622 74.4988V76.1423C102.622 76.943 102.664 77.4909 102.664 77.7859C102.706 77.9544 102.749 78.123 102.791 78.1652C102.875 78.2494 102.959 78.2916 103.086 78.2916L104.098 78.3337V78.8816C103.507 78.8394 102.959 78.7973 102.58 78.7973C102.243 78.7973 101.653 78.8394 100.852 78.8816C100.936 77.3223 100.978 76.353 100.978 75.9738V74.4145C100.978 73.4452 100.936 72.8131 100.852 72.476C100.725 72.0545 100.514 71.7174 100.135 71.4645C99.7555 71.2117 99.2918 71.0853 98.7859 71.0853C98.3222 71.0853 97.9006 71.2117 97.5212 71.4224C97.1418 71.6331 96.8467 71.886 96.6781 72.181C96.5094 72.476 96.4251 72.9395 96.4251 73.6559V74.7938C96.4673 76.3952 96.4673 77.2802 96.4673 77.4066C96.4673 77.7016 96.5094 77.9544 96.5937 78.0809C96.6359 78.123 96.6359 78.2073 96.7202 78.2073C96.7624 78.2494 96.8467 78.2916 96.9731 78.2916C97.0153 78.2916 97.3526 78.2916 98.0271 78.3337V78.8816C97.2682 78.8394 96.5937 78.7973 95.9614 78.7973C95.4555 78.9237 94.6124 78.9659 93.3898 79.008Z" fill="black"/>
<path d="M104.732 71.2959V70.748C105.954 70.6216 106.966 70.3687 107.767 69.9473L107.978 70.0738C107.936 71.4223 107.893 72.4337 107.893 73.108V74.7937C107.936 76.3951 107.936 77.2801 107.936 77.4065C107.936 77.7015 107.978 77.9543 108.02 78.0808C108.062 78.1229 108.104 78.2072 108.146 78.2072C108.188 78.2493 108.273 78.2915 108.357 78.2915C108.399 78.2915 108.737 78.2915 109.411 78.3336V78.8815C108.441 78.8393 107.725 78.7972 107.135 78.7972C106.629 78.7972 105.828 78.8393 104.689 78.8815V78.3336H105.575C105.701 78.3336 105.828 78.2915 105.87 78.2493C105.954 78.2072 105.996 78.1651 106.038 78.0808C106.123 77.9543 106.165 77.7436 106.165 77.4065C106.165 77.3222 106.165 76.4372 106.207 74.7094V73.0658C106.207 72.1387 106.165 71.5909 106.123 71.4223C106.081 71.338 105.996 71.2537 105.912 71.2116C105.87 71.338 105.448 71.2959 104.732 71.2959ZM107.008 65.8174C107.303 65.8174 107.556 65.9017 107.767 66.1124C107.978 66.3231 108.062 66.5759 108.062 66.8709C108.062 67.1659 107.978 67.4188 107.767 67.6295C107.556 67.8402 107.303 67.9245 107.008 67.9245C106.713 67.9245 106.46 67.8402 106.249 67.6295C106.038 67.4188 105.954 67.1659 105.954 66.8709C105.954 66.5759 106.038 66.3231 106.249 66.1124C106.46 65.9438 106.713 65.8174 107.008 65.8174Z" fill="black"/>
<path d="M114.639 79.0922C114.386 78.4601 114.217 78.0387 114.133 77.8279L113.374 76.058L111.477 71.5909C111.35 71.2959 111.224 71.1273 111.14 71.043C111.055 70.9588 110.971 70.8745 110.844 70.8745C110.76 70.8323 110.507 70.8323 110.17 70.8323V70.2002C111.224 70.2423 111.941 70.2845 112.446 70.2845C112.952 70.2845 113.669 70.2423 114.596 70.2002V70.748C113.922 70.748 113.542 70.7902 113.416 70.8745C113.29 70.9588 113.247 71.043 113.247 71.1695C113.247 71.338 113.374 71.7595 113.627 72.3916L114.765 75.2151L115.018 75.8473C115.313 76.6058 115.524 77.0694 115.65 77.3222L116.578 75.2151C116.62 75.0887 116.915 74.3723 117.421 73.108C117.716 72.3494 117.927 71.8016 118.011 71.4223C118.053 71.2959 118.053 71.2116 118.053 71.1273C118.053 71.0009 118.011 70.9588 117.927 70.9166C117.758 70.8323 117.379 70.7902 116.746 70.748V70.2002C117.674 70.2423 118.264 70.2845 118.517 70.2845C118.728 70.2845 119.318 70.2423 120.288 70.2002V70.748C119.908 70.748 119.655 70.7902 119.529 70.8745C119.402 70.9588 119.276 71.0852 119.149 71.338C119.065 71.5066 118.728 72.1809 118.138 73.3609L117.252 75.2573C117.084 75.5944 116.578 76.8587 115.65 79.0501L114.639 79.0922Z" fill="black"/>
<path d="M128.972 77.533L128.677 78.2073C128.255 78.4602 127.918 78.6709 127.749 78.7552C127.454 78.8816 127.117 79.008 126.737 79.0923C126.358 79.1766 125.979 79.2187 125.557 79.2187C124.714 79.2187 123.997 79.0502 123.323 78.713C122.648 78.3759 122.142 77.8702 121.763 77.1959C121.383 76.5216 121.215 75.7209 121.215 74.7938C121.215 74.0774 121.299 73.4453 121.51 72.8553C121.721 72.2653 121.932 71.8438 122.184 71.591C122.353 71.3803 122.648 71.1696 123.028 70.9167C123.407 70.6639 123.786 70.4532 124.166 70.3267C124.672 70.116 125.178 70.0317 125.768 70.0317C126.484 70.0317 127.117 70.2003 127.665 70.4953C128.213 70.8324 128.634 71.2539 128.887 71.8017C129.14 72.3496 129.267 72.9817 129.267 73.656C129.267 73.8245 129.267 74.0353 129.225 74.2881C128.761 74.3724 128.382 74.4145 128.002 74.4567C127.328 74.4988 126.653 74.5409 125.979 74.5409H122.985C122.985 75.4259 123.154 76.1424 123.449 76.6902C123.744 77.2381 124.166 77.6595 124.672 77.9123C125.178 78.1652 125.726 78.2916 126.274 78.2916C126.653 78.2916 127.032 78.2495 127.412 78.123C127.791 77.9966 128.255 77.7859 128.803 77.4488L128.972 77.533ZM122.985 73.7402C123.154 73.7402 123.491 73.7824 123.955 73.7824C124.882 73.8245 125.515 73.8245 125.894 73.8245C126.737 73.8245 127.285 73.8245 127.538 73.7824C127.538 73.6138 127.538 73.5295 127.538 73.4453C127.538 72.476 127.328 71.7174 126.948 71.296C126.569 70.8324 126.021 70.6217 125.346 70.6217C124.63 70.6217 124.082 70.8746 123.66 71.3803C123.196 71.8438 122.985 72.6446 122.985 73.7402Z" fill="black"/>
<path d="M130.322 79.0082V78.4603C131.039 78.4603 131.418 78.4182 131.46 78.4182C131.587 78.4182 131.629 78.376 131.713 78.3339C131.756 78.2918 131.798 78.2496 131.84 78.1653C131.882 78.0389 131.924 77.7861 131.966 77.4911C132.009 75.8475 132.009 74.9625 132.009 74.8782V73.7825C132.009 73.2768 132.009 72.729 131.966 72.1811C131.966 71.8019 131.924 71.5912 131.882 71.5069C131.84 71.4226 131.756 71.3804 131.671 71.3383C131.545 71.2962 131.165 71.2962 130.449 71.2962V70.7483C131.713 70.5797 132.641 70.3269 133.189 70.074C133.315 70.0319 133.4 69.9897 133.442 69.9897C133.484 69.9897 133.526 69.9897 133.526 70.0319C133.568 70.074 133.568 70.1162 133.568 70.1583V70.3269C133.526 70.7062 133.526 71.2962 133.526 72.0969C133.821 71.7597 134.074 71.4647 134.285 71.1276C134.538 70.7905 134.707 70.6219 134.791 70.4955C134.96 70.3269 135.212 70.2005 135.423 70.1162C135.676 70.0319 135.929 69.9897 136.182 69.9897C136.435 69.9897 136.688 70.0319 136.941 70.1583L136.983 70.2847C136.899 71.1276 136.857 71.844 136.814 72.4761H136.393C136.266 72.1811 136.098 71.9704 135.887 71.8019C135.718 71.6754 135.465 71.5911 135.17 71.5911C134.707 71.5911 134.285 71.8019 133.948 72.1811C133.61 72.5604 133.442 73.1926 133.442 73.9511V74.9204C133.442 75.3418 133.442 76.1004 133.484 77.1539C133.484 77.5332 133.526 77.7861 133.526 77.9125C133.568 78.0389 133.568 78.081 133.61 78.1232C133.653 78.1653 133.737 78.2075 133.821 78.2496C133.99 78.2918 134.496 78.376 135.339 78.4182V78.966C134.243 78.9239 133.315 78.8818 132.514 78.8818C131.84 78.9239 131.081 78.966 130.322 79.0082Z" fill="black"/>
<path d="M138.289 76.1845H138.837C138.837 76.5638 138.879 76.8166 138.879 77.0274C138.922 77.2381 138.964 77.4488 139.048 77.6595C139.132 77.8702 139.259 78.0388 139.385 78.1652C139.554 78.2916 139.723 78.418 139.891 78.5023C140.06 78.5866 140.271 78.6288 140.439 78.6709C140.608 78.713 140.903 78.713 141.325 78.713C141.957 78.713 142.463 78.5445 142.884 78.2073C143.306 77.8702 143.517 77.4066 143.517 76.8166C143.517 76.5638 143.432 76.3109 143.306 76.1424C143.179 75.9317 143.011 75.8052 142.758 75.6788C142.505 75.5524 141.999 75.4259 141.198 75.2574C140.397 75.0888 139.891 74.9624 139.68 74.8781C139.343 74.7517 139.048 74.5831 138.837 74.4145C138.626 74.246 138.458 73.9931 138.331 73.6981C138.205 73.4031 138.163 73.1081 138.163 72.771C138.163 72.2653 138.289 71.8438 138.542 71.4224C138.795 71.001 139.217 70.6639 139.765 70.411C140.313 70.1582 140.903 70.0317 141.577 70.0317C141.957 70.0317 142.421 70.0739 142.926 70.2003C143.432 70.3267 143.854 70.4532 144.191 70.6217C144.149 71.296 144.107 72.0124 144.107 72.7288H143.601C143.559 72.2653 143.517 71.9703 143.475 71.8438C143.432 71.7174 143.39 71.591 143.306 71.4646C143.222 71.3381 143.137 71.2117 142.926 71.0853C142.758 70.9589 142.547 70.8324 142.294 70.7481C142.041 70.6639 141.704 70.5796 141.325 70.5796C140.776 70.5796 140.313 70.7482 139.976 71.0853C139.638 71.4224 139.47 71.8017 139.47 72.2231C139.47 72.476 139.512 72.6867 139.596 72.8553C139.68 73.0238 139.807 73.1924 139.976 73.2767C140.144 73.4031 140.355 73.4874 140.65 73.5717L142.21 73.951C143.011 74.1617 143.559 74.3302 143.854 74.4567C144.149 74.5831 144.402 74.836 144.571 75.131C144.739 75.4259 144.824 75.8052 144.824 76.2266C144.824 77.0695 144.486 77.7859 143.77 78.418C143.053 79.0502 142.126 79.3452 140.987 79.3452C140.439 79.3452 139.723 79.2609 138.837 79.0923C138.331 79.008 138.078 78.9237 138.036 78.8816C137.994 78.8395 137.994 78.8395 137.994 78.7973C137.994 78.7552 137.994 78.713 137.994 78.6288C138.036 78.3759 138.078 78.0809 138.121 77.8281C138.289 77.5331 138.289 76.9852 138.289 76.1845Z" fill="black"/>
<path d="M146.005 71.2959V70.748C147.228 70.6216 148.239 70.3687 149.04 69.9473L149.251 70.0738C149.209 71.4223 149.167 72.4337 149.167 73.108V74.7937C149.209 76.3951 149.209 77.2801 149.209 77.4065C149.209 77.7015 149.251 77.9543 149.293 78.0808C149.335 78.1229 149.378 78.2072 149.42 78.2072C149.462 78.2493 149.546 78.2915 149.631 78.2915C149.673 78.2915 150.01 78.2915 150.684 78.3336V78.8815C149.715 78.8393 148.998 78.7972 148.408 78.7972C147.902 78.7972 147.101 78.8393 145.963 78.8815V78.3336H146.848C146.975 78.3336 147.101 78.2915 147.143 78.2493C147.228 78.2072 147.27 78.1651 147.312 78.0808C147.396 77.9543 147.438 77.7436 147.438 77.4065C147.438 77.3222 147.438 76.4372 147.481 74.7094V73.0658C147.481 72.1387 147.438 71.5909 147.396 71.4223C147.354 71.338 147.312 71.2537 147.185 71.2116C147.143 71.338 146.722 71.2959 146.005 71.2959ZM148.282 65.8174C148.577 65.8174 148.83 65.9017 149.04 66.1124C149.251 66.3231 149.335 66.5759 149.335 66.8709C149.335 67.1659 149.251 67.4188 149.04 67.6295C148.83 67.8402 148.577 67.9245 148.282 67.9245C147.986 67.9245 147.733 67.8402 147.523 67.6295C147.312 67.4188 147.228 67.1659 147.228 66.8709C147.228 66.5759 147.312 66.3231 147.523 66.1124C147.733 65.9438 147.986 65.8174 148.282 65.8174Z" fill="black"/>
<path d="M151.568 71.6756V71.2963C152.159 71.0435 152.664 70.8328 153.002 70.6642C153.002 69.1892 153.002 68.22 153.002 67.8407C153.634 67.63 154.182 67.3771 154.561 67.1243L154.772 67.2928C154.688 67.7985 154.646 68.9364 154.561 70.7064H155.447H156.416C156.754 70.7064 156.964 70.7064 157.133 70.6642L157.175 70.7485L156.964 71.6335C156.585 71.6335 156.206 71.6335 155.868 71.6335C155.531 71.6335 155.067 71.6335 154.477 71.6335L154.435 75.4263V77.0698C154.477 77.2384 154.519 77.407 154.604 77.5334C154.688 77.6598 154.814 77.7862 154.941 77.8705C155.067 77.9548 155.32 77.997 155.658 78.0391C155.911 78.0391 156.121 78.0391 156.29 77.997C156.459 77.9548 156.627 77.9127 156.88 77.8284L157.007 78.2077C156.711 78.4605 156.416 78.6712 156.163 78.9241C155.911 79.0084 155.7 79.0505 155.489 79.0927C155.278 79.1348 155.067 79.1348 154.772 79.1348C154.435 79.1348 154.182 79.0927 153.971 79.0084C153.761 78.9241 153.592 78.8398 153.423 78.7134C153.255 78.587 153.128 78.4184 153.002 78.2077C152.875 77.997 152.833 77.6598 152.791 77.2384C152.791 76.817 152.791 76.3534 152.833 75.8477C152.833 75.7634 152.833 75.637 152.833 75.5106V71.6335H152.454C152.327 71.6335 151.948 71.6335 151.568 71.6756Z" fill="black"/>
<path d="M157.807 84.0228L158.271 82.59H158.482C158.608 82.6743 158.692 82.7586 158.777 82.8429C158.861 82.885 158.945 82.9271 159.03 82.9693C159.114 83.0114 159.283 83.0114 159.451 83.0114C159.662 83.0114 159.831 82.9693 159.999 82.885C160.168 82.8007 160.337 82.6743 160.505 82.5057C160.674 82.3372 160.842 82 161.053 81.5786C161.39 80.9043 161.686 80.2301 161.939 79.5558C161.728 79.0079 161.517 78.3758 161.222 77.6594L159.746 73.993C159.283 72.8973 158.945 72.0545 158.65 71.4645C158.524 71.2538 158.439 71.0852 158.271 71.0009C158.144 70.9166 157.849 70.8745 157.428 70.7902V70.2002C158.187 70.2423 158.988 70.2845 159.704 70.2845C160.421 70.2845 161.138 70.2423 161.812 70.2002V70.748C161.18 70.7902 160.8 70.8323 160.716 70.8745C160.547 70.9166 160.463 71.043 160.463 71.2116C160.463 71.2959 160.505 71.5066 160.632 71.8016C160.885 72.5602 161.095 73.2344 161.306 73.7823L161.896 75.2573C162.234 76.1422 162.571 76.8587 162.782 77.3644L163.288 76.2687C163.498 75.8473 163.836 75.0044 164.299 73.7823C164.805 72.5602 165.058 71.8016 165.142 71.5066C165.185 71.4223 165.185 71.338 165.185 71.2538C165.185 71.1273 165.142 71.043 165.058 70.9588C164.974 70.8745 164.594 70.8323 163.92 70.748V70.2002C164.637 70.2423 165.269 70.2845 165.859 70.2845C166.407 70.2845 166.955 70.2423 167.503 70.2002L167.419 70.748C167.082 70.748 166.871 70.8323 166.66 70.9588C166.491 71.0852 166.239 71.5066 165.859 72.223C165.522 72.9394 164.847 74.3301 163.878 76.4372L161.728 81.4943C161.39 82.295 161.095 82.885 160.842 83.2643C160.59 83.6014 160.294 83.8964 159.915 84.065C159.578 84.2336 159.156 84.3178 158.735 84.3178C158.524 84.3178 158.355 84.2757 158.187 84.2336C158.187 84.1914 158.018 84.1071 157.807 84.0228Z" fill="black"/>
<path d="M173.49 74.7097C173.49 73.319 173.954 72.1811 174.839 71.2962C175.725 70.4112 176.863 69.9897 178.254 69.9897C179.561 69.9897 180.615 70.4112 181.458 71.2119C182.301 72.0547 182.68 73.1083 182.68 74.4147C182.68 75.3418 182.47 76.1425 182.048 76.9011C181.627 77.6596 181.036 78.2496 180.235 78.671C179.434 79.0925 178.591 79.3032 177.664 79.3032C176.947 79.3032 176.315 79.1768 175.809 78.9239C175.303 78.6711 174.881 78.376 174.586 77.9968C174.291 77.6175 174.038 77.2382 173.87 76.8589C173.617 76.1846 173.49 75.4682 173.49 74.7097ZM175.219 73.9933C175.219 74.7518 175.345 75.5525 175.598 76.3532C175.851 77.1539 176.23 77.7439 176.694 78.0811C177.158 78.4603 177.706 78.6289 178.254 78.6289C178.971 78.6289 179.603 78.3339 180.067 77.7861C180.573 77.1961 180.783 76.3111 180.783 75.1311C180.783 74.1197 180.657 73.2768 180.362 72.5604C180.067 71.844 179.687 71.3383 179.266 71.0433C178.802 70.7483 178.338 70.5797 177.79 70.5797C177.031 70.5797 176.399 70.8747 175.935 71.4226C175.472 71.9704 175.219 72.8133 175.219 73.9933Z" fill="black"/>
<path d="M183.987 71.6752V71.2959C184.493 71.0852 184.915 70.8745 185.294 70.6638V70.1159C185.294 69.3152 185.336 68.7252 185.463 68.3881C185.547 68.0509 185.716 67.7559 185.884 67.5031C186.179 67.1238 186.601 66.6181 187.233 66.0281C187.655 65.6488 187.95 65.396 188.119 65.2695C188.372 65.1431 188.667 65.0588 189.004 65.0588C189.257 65.0588 189.51 65.101 189.763 65.1853L189.805 66.7445L189.594 66.8288C189.383 66.6602 189.215 66.5338 189.004 66.4917C188.793 66.4074 188.582 66.3652 188.329 66.3652C187.992 66.3652 187.697 66.4495 187.486 66.576C187.276 66.7024 187.107 66.9131 187.023 67.1659C186.938 67.4188 186.896 67.9245 186.896 68.7252V70.6638H187.866C188.372 70.6638 188.835 70.6216 189.341 70.5795L189.426 70.6216L189.257 71.5909C188.709 71.5487 188.329 71.5487 188.077 71.5487C187.824 71.5487 187.402 71.5487 186.896 71.5909V74.9201C186.896 75.3415 186.896 76.058 186.938 77.1537C186.938 77.5329 186.98 77.7858 186.98 77.9122C187.023 78.0386 187.023 78.0808 187.065 78.1229C187.107 78.1651 187.191 78.2072 187.276 78.2494C187.444 78.2915 187.95 78.3758 188.793 78.4179V78.9658C187.36 78.9236 186.432 78.8815 186.137 78.8815C185.842 78.8815 185.041 78.9236 183.734 78.9658V78.4179H184.62C184.746 78.4179 184.873 78.3758 184.915 78.3336C184.999 78.2915 185.041 78.2494 185.083 78.1651C185.168 78.0386 185.21 77.8279 185.21 77.4908C185.21 77.4065 185.21 76.5215 185.252 74.7937V71.5066L183.987 71.6752Z" fill="black"/>
<path d="M33.1926 64.6798C33.1504 65.7755 32.9396 71.5912 32.9396 71.5912C32.771 75.6368 32.6445 79.1768 32.6445 82.3374C32.6445 96.2444 35.3426 102.608 50.8141 110.109C66.3279 102.608 68.9837 96.2444 68.9837 82.3374C68.9837 79.1768 68.8573 75.5947 68.6886 71.549C68.6886 71.549 68.4779 65.7334 68.4357 64.6377C68.4779 64.6798 33.1926 64.6798 33.1926 64.6798Z" fill="white"/>
<path d="M67.3804 65.8599H34.3294L33.9922 75.089H67.802L67.3804 65.8599ZM51.951 74.4569L51.9089 74.3726C51.9089 74.3726 52.1618 74.2462 52.4991 74.0776C53.1314 73.6983 53.6794 72.8555 53.6794 72.0969C53.6794 70.7484 52.4147 69.6105 50.8128 69.6105C49.2108 69.6105 47.904 70.7062 47.904 72.0969C47.904 72.8555 48.452 73.6983 49.0843 74.0776C49.4216 74.2883 49.6745 74.3726 49.6745 74.3726L49.6324 74.4569C49.6324 74.4569 49.3373 74.3726 49.0422 74.1619C47.9461 73.4876 47.3138 72.3498 47.3138 71.3384C47.3138 69.6105 48.9157 68.2198 50.8128 68.2198C52.7098 68.2198 54.3118 69.6105 54.3118 71.3384C54.3118 72.3498 53.7216 73.4455 52.5834 74.1619C52.2461 74.3726 51.951 74.4569 51.951 74.4569ZM52.752 74.2883V74.204C53.7638 73.5297 54.4383 72.434 54.4383 71.3384C54.4383 69.5262 52.7941 68.0513 50.7706 68.0513C48.7892 68.0513 47.103 69.5262 47.103 71.3384C47.103 72.3919 47.7775 73.5297 48.7892 74.204L48.7471 74.2883C47.2294 73.5719 46.1334 72.1812 46.1334 70.6641C46.1334 68.5148 48.2834 66.7448 50.7706 66.7448C53.2579 66.7448 55.3657 68.5148 55.3657 70.6641C55.4079 72.1812 54.3118 73.614 52.752 74.2883Z" fill="#EE3124"/>
<path d="M55.0714 76.1006V81.2841C55.0292 81.3262 54.6498 81.6212 54.0175 81.6212C53.3851 81.6212 52.5841 81.3262 51.9096 81.3262C51.4881 81.3262 51.1508 81.4948 50.8557 81.7898H50.6871C50.6871 81.7898 50.2655 81.3262 49.6332 81.3262C48.9586 81.3262 48.1577 81.6212 47.5253 81.6212C46.893 81.6212 46.5557 81.2841 46.4714 81.2419V76.1006C46.3449 76.3534 46.0498 76.6484 45.7969 76.6484V81.7476C46.0498 81.9584 46.3871 82.0426 46.7243 82.0426C47.5675 82.0848 48.5792 81.6634 49.4645 81.6634C49.9282 81.6634 50.392 81.7898 50.7292 82.1691C51.0665 81.7898 51.4881 81.6634 51.9939 81.6634C52.8792 81.6634 53.891 82.0426 54.7341 82.0426C55.0714 82.0426 55.4086 81.9584 55.6616 81.7476V76.6484C55.493 76.6484 55.1557 76.3534 55.0714 76.1006Z" fill="#EE3124"/>
<path d="M63.6295 97.3398C63.5451 97.0027 63.25 96.7498 62.9549 96.7077C62.9971 96.7498 63.0814 96.8341 63.1236 96.8763C63.4187 97.2134 63.25 98.0141 62.9128 98.1827C63.0393 97.7191 62.702 97.3398 62.1961 97.4663C62.3648 97.5927 62.4912 97.8877 62.4069 98.1405C62.3226 98.3934 62.0275 98.6462 61.7324 98.6041C61.3108 98.5198 61.5638 97.972 61.5216 97.6348C61.5216 97.1713 61.1844 96.9184 60.9736 96.8341C60.9314 96.8341 60.9736 96.792 60.9736 96.792C61.1422 96.8341 61.2687 96.9184 61.5216 96.8763C61.8167 96.8763 62.0697 96.7077 62.154 96.5813C62.2804 96.4127 62.3226 96.1598 62.2383 95.9913C62.1961 96.0756 62.1118 96.1598 62.0275 96.2441C61.8589 96.4127 61.5216 96.4127 61.2687 96.2863C61.0157 96.1598 60.7628 95.907 60.5942 95.6541C59.9197 94.7691 59.1608 93.842 58.3177 93.3363C57.8118 92.9992 57.1373 92.7463 56.5049 92.7042C56.1255 92.7042 55.7461 92.7885 55.4089 92.9992C54.9451 93.2942 54.6922 93.7577 54.65 94.2213C54.5657 94.7691 54.7765 95.317 55.1138 95.7384C55.5775 96.3284 56.1677 96.7077 56.7579 97.087C57.1795 97.382 57.6432 97.677 58.0226 98.0141C58.3598 98.2669 58.6128 98.5619 58.6971 98.9834C58.7814 99.3626 58.6128 99.6155 58.4863 99.7841C58.1912 99.9948 57.4746 99.9948 57.2216 99.7419C57.053 98.4355 56.1255 97.8455 54.9451 97.5505C54.3971 97.4241 53.7648 97.2555 53.301 97.0027C52.8795 96.792 52.5 96.5391 52.2893 95.9913C52.2049 95.9913 52.0363 95.9913 51.8677 95.907C51.5304 95.7806 51.404 95.5277 51.3197 95.3591C51.5304 95.5699 51.6991 95.6963 52.2471 95.7384C52.5844 95.7384 53.0059 95.5699 53.1324 95.317C52.7951 95.3591 52.5422 95.3591 52.3736 95.2327C52.2049 95.1063 51.9942 94.8534 52.0363 94.6006C52.3314 94.9377 52.9216 95.0641 53.4697 94.7691C53.554 94.727 53.7648 94.5584 53.8069 94.4742C53.5118 94.5163 53.2589 94.4742 53.0902 94.3056C52.9216 94.1792 52.7951 93.9684 52.7951 93.6735C52.9638 93.842 53.301 93.9684 53.6383 93.9263C53.9755 93.8842 54.2706 93.7999 54.3549 93.5049C54.102 93.547 53.8912 93.5049 53.6804 93.3785C53.5118 93.252 53.3853 93.0835 53.3432 92.8727C53.0481 92.8306 52.7951 92.7042 52.6265 92.5356C52.4579 92.7885 52.3736 93.3784 52.4157 93.7577C51.9098 93.7577 51.4883 93.3784 51.404 92.9149C51.1932 93.1677 51.151 93.7577 51.2775 94.0949C50.6873 94.0527 50.3079 93.7577 50.1814 93.252C50.0971 93.4206 50.0549 93.6734 50.0549 93.9263C50.0549 94.0106 50.0549 94.137 50.0971 94.2634C50.0971 94.2634 49.9706 94.2634 49.7598 94.0949C49.5069 93.9263 49.254 93.4627 49.2961 93.252C49.4648 93.5049 49.6334 93.6735 49.8863 93.842C49.8442 93.2942 50.0971 92.8727 50.3922 92.662C50.3922 93.252 50.603 93.5892 51.0667 93.7156C50.9824 93.3784 51.1089 93.0835 51.151 92.8727C51.2353 92.662 51.4461 92.4092 51.5726 92.3249C51.5726 92.7885 51.7834 93.2942 52.2049 93.3785C52.2049 92.9992 52.2471 92.5777 52.4157 92.3249C52.5 92.1985 52.5422 92.072 52.6687 92.0299C52.7951 92.4092 53.2589 92.6199 53.7226 92.6199C54.903 92.662 54.9873 91.6928 54.9873 91.6928C54.8187 91.777 54.6079 91.9035 54.2285 91.9035C53.7226 91.9035 53.5961 91.5242 53.5961 91.5242C53.8912 91.6506 54.4393 91.4821 54.6922 91.2713C54.8608 91.1449 55.0716 90.8499 55.0716 90.5971C55.0716 90.3442 55.0295 90.1335 54.8608 90.0492C54.65 90.5549 53.554 90.8499 53.1324 90.3021C53.554 90.3442 53.9334 90.1335 54.102 89.8807C54.1442 89.7964 54.1863 89.5856 54.1442 89.5014C54.1442 89.5014 53.8491 89.7121 53.4275 89.7121C53.0059 89.7121 52.753 89.5435 52.753 89.5435C53.0481 89.5435 53.5961 89.2064 53.554 88.8692C53.554 88.8692 53.3853 88.9535 53.2589 88.9535C52.9216 88.9957 52.5422 88.9535 52.3314 88.785C52.3314 88.7428 52.4579 87.9 52.3736 87.8157C51.9942 87.9842 51.6569 88.2371 51.4461 88.6164C51.2353 88.5742 50.9824 88.5321 50.6451 88.5742C50.35 88.5742 50.0128 88.6164 49.8442 88.7007C49.7598 88.7428 49.6334 88.8271 49.5491 88.9114C49.4648 88.9957 49.4226 89.1221 49.3383 89.2064C49.1275 89.3328 48.7902 89.3749 48.4951 89.4171C48.2844 89.4592 47.9893 89.4171 47.9471 89.5857C47.8628 89.7542 48.0314 89.8806 48.0736 89.9649C48.1157 90.0071 48.1579 90.1335 48.2 90.2178C48.2422 90.3021 48.2422 90.4285 48.2844 90.5128C48.5795 90.9764 48.8324 90.7656 49.1275 90.6814C49.4648 90.5549 49.9285 90.4285 50.35 90.4285C50.603 90.4285 50.8559 90.4706 51.0667 90.5971C51.2353 90.7235 51.3618 90.9763 51.3197 91.1871C51.3197 91.3978 51.2353 91.5663 51.0667 91.6928C50.9824 91.777 50.6873 91.9456 50.2657 91.9456C49.7598 91.9456 49.254 91.6928 48.7902 91.6928C48.6638 91.6928 48.5373 91.7349 48.4951 91.7771C48.3687 91.9035 48.3687 92.1142 48.4951 92.2828C48.9589 92.2828 48.9167 92.7885 48.8746 92.9992C48.6638 93.5892 48.2 93.5892 47.9893 93.5892C47.7363 93.547 47.4412 93.4627 47.3569 93.2942C47.1461 93.9263 47.5677 94.4742 48.1579 94.4742C47.7363 94.8113 46.9353 94.5584 46.851 94.0949C46.8089 94.1792 46.7246 94.3056 46.7246 94.432C46.6824 95.2327 47.3148 95.5277 48.1157 95.5277C47.652 95.7384 47.0618 95.612 46.5138 95.4856C46.0079 95.3591 45.7549 95.2327 45.4177 95.022C44.9961 94.8113 44.5324 94.4742 44.3216 94.0949C44.2373 93.9684 44.153 93.7156 44.1951 93.547C44.2373 92.957 44.9118 92.8727 44.8275 92.1563C44.3638 92.0299 43.8579 92.2406 43.7314 92.7042C43.6893 92.8306 43.6893 92.957 43.6893 93.1256C43.5206 92.957 43.352 92.7885 43.1412 92.6199C42.9726 92.4935 42.804 92.4092 42.6353 92.4092C42.6353 92.4092 42.5932 92.5356 42.4667 92.7042C42.4246 92.7463 42.2138 92.9149 42.2138 92.9149C42.2138 93.0413 42.3402 93.1677 42.3824 93.1677C42.551 93.2942 42.8461 93.3785 42.9726 93.5892C43.0148 93.6313 43.0148 93.7156 43.0148 93.7999C42.8883 93.842 42.7618 93.842 42.6353 93.7999C42.2559 93.7156 42.003 93.3785 41.5393 93.3785C41.3706 93.3785 41.202 93.3784 41.1177 93.5049C41.2442 93.6734 41.202 93.9684 41.1177 94.137C41.202 94.3056 41.3285 94.3477 41.4971 94.3899C41.75 94.432 42.0451 94.3899 42.2559 94.3899C42.3824 94.3899 42.5089 94.432 42.551 94.5163C42.4246 94.6006 42.2981 94.6849 42.1295 94.727C41.7922 94.8113 41.3706 94.5584 41.0755 94.727C41.0755 94.727 41.1598 94.8534 41.0755 95.022C41.0334 95.1484 40.9491 95.317 40.9491 95.317C41.1177 95.4434 41.2442 95.4856 41.4128 95.5277C41.7079 95.5277 42.0451 95.3591 42.3402 95.2327C42.5089 95.1906 42.6353 95.1484 42.7618 95.1484C42.5089 95.4856 42.1295 95.7806 41.6657 95.8227C41.6236 95.8227 41.5393 95.8227 41.5393 95.8227C41.5393 95.8648 41.6657 95.907 41.7079 95.9491C41.7922 95.9913 42.003 96.0334 42.1295 96.0756C42.7618 96.1177 43.2677 95.907 43.6893 95.6541C43.4785 96.0334 43.1412 96.2441 42.7197 96.4127C42.7618 96.4548 42.8883 96.497 42.9726 96.497C43.9422 96.6655 44.7853 95.9913 44.7853 95.9913C44.7853 96.1598 44.6167 96.4548 44.3216 96.6234C44.2373 96.7498 44.0687 96.7498 44.0687 96.7498C44.1951 96.8763 44.5324 96.9184 44.7853 96.8763C45.0804 96.8763 45.3755 96.7498 45.6706 96.7077C46.0922 96.6234 46.3873 96.6655 46.6402 96.5813C46.3451 96.7077 46.05 96.8341 45.7128 96.9184C45.3334 97.0448 44.9961 97.2555 44.6589 97.4241C44.3216 97.5927 43.9844 97.8877 43.6893 98.0141C43.352 98.1827 42.9304 98.0984 42.7618 97.8455C42.6775 97.7191 42.6775 97.5505 42.6353 97.382C42.551 97.0448 42.2981 96.7077 41.8765 96.7498C41.8344 97.0448 41.5814 97.2555 41.4549 97.3398C41.4971 97.8877 42.2138 97.8877 42.2981 98.4777C42.2559 98.5198 42.0873 98.5198 41.9608 98.4777C41.6657 98.3934 41.4549 98.267 41.202 98.267C41.0334 98.267 40.9069 98.3091 40.7383 98.3934C40.7804 98.4355 40.8226 98.5198 40.8648 98.6041C40.9069 98.7727 40.8648 98.9834 40.7804 99.1098C40.9069 99.2362 41.0334 99.2784 41.1598 99.2784C41.4128 99.2784 41.7079 99.1941 41.9608 99.1519C42.0873 99.1519 42.2559 99.1519 42.3824 99.1941C42.2559 99.5312 41.7079 99.5312 41.3285 99.6155C41.1598 99.6576 40.9912 99.7419 40.9069 99.9105C41.1598 99.9948 41.3706 100.205 41.3706 100.585C41.4971 100.585 41.6236 100.543 41.75 100.543C42.0873 100.374 42.2981 100.037 42.6353 99.9105C42.6353 100.29 42.3824 100.5 42.3402 100.838V101.175C42.3402 101.175 42.5089 101.09 42.6775 101.09C42.8461 101.09 42.9304 101.133 43.0148 101.217C43.0991 101.133 43.1834 101.006 43.1834 100.88C43.2255 100.627 43.2255 100.332 43.2255 100.079C43.2677 99.9526 43.2255 99.8684 43.352 99.8684C43.8157 99.8684 44.3216 99.6155 44.4902 99.4048C44.4059 99.6998 44.3216 99.8684 44.153 100.079C44.1108 100.163 43.9844 100.248 43.9 100.332C44.1951 100.374 44.4902 100.29 44.701 100.121C45.2069 99.7841 45.5863 99.4048 45.7971 98.8991C45.8393 99.1098 45.8393 99.4048 45.7549 99.6155C45.7128 99.7841 45.5863 99.9105 45.5442 99.9948C45.6285 99.9948 45.7971 99.9948 45.8814 99.9526C46.2187 99.7841 46.5138 99.4891 46.6824 99.1098C46.7667 98.8991 46.8932 98.6462 46.8932 98.3934C47.104 98.6041 47.1461 98.9834 46.9775 99.3627C46.9353 99.4469 46.8932 99.5312 46.851 99.5734C47.104 99.5312 47.2726 99.4048 47.4412 99.2362C47.7363 98.9834 47.9471 98.4355 47.9049 97.972C48.1579 98.1827 48.2422 98.8148 48.0736 99.1941C48.3265 99.1519 48.4951 98.9834 48.6638 98.8148C48.8746 98.6041 48.9589 98.4355 49.0853 98.0562C49.2118 97.677 49.1275 97.4241 49.1275 97.4241C49.1697 97.4663 49.254 97.5927 49.254 97.7191C49.3804 98.1827 49.2118 98.6884 48.8324 99.0677C48.7902 99.1098 48.6216 99.2362 48.6216 99.2362C48.8746 99.5734 49.3383 99.7419 49.8442 99.7419C50.6873 99.7841 51.1932 99.4469 51.9942 99.3627C51.6569 99.5312 51.3618 99.6998 51.151 99.7841C50.6873 99.9948 50.2657 100.121 49.8863 100.121C49.6755 100.121 49.4226 100.121 49.2118 99.9948C49.0432 100.205 49.0432 100.416 49.0432 100.753C49.0853 101.175 49.3383 101.47 49.2118 101.891C49.001 102.734 47.5255 102.608 46.9775 102.186C46.5138 101.849 46.5559 101.048 46.1765 100.711C46.05 100.627 45.9236 100.543 45.6706 100.543C45.5863 100.795 45.4177 100.964 45.2069 101.09C45.2491 101.259 45.3334 101.343 45.4177 101.47C45.5863 101.638 45.7971 101.765 45.9657 101.975C46.0079 102.06 46.05 102.144 46.0922 102.27C45.9236 102.27 45.7971 102.228 45.7128 102.186C45.4177 102.06 45.1648 101.765 44.8275 101.68C44.701 101.68 44.5746 101.68 44.4059 101.68C44.4481 101.849 44.3638 102.144 44.1951 102.27C44.3216 102.608 44.6589 102.818 45.1226 102.818C45.3755 102.818 45.6706 102.818 45.7971 102.987C45.4598 103.366 44.9118 102.987 44.4059 102.987C44.2795 102.987 44.153 103.029 44.0265 103.071C44.0265 103.113 44.1108 103.198 44.1108 103.324C44.1108 103.493 44.0265 103.703 44.0265 103.703C44.0265 103.83 44.3216 103.914 44.4902 103.914H44.8275C45.1648 103.872 45.5863 103.619 45.9236 103.619C45.9657 103.619 46.0922 103.661 46.0922 103.703C45.9657 103.998 45.6706 104.04 45.502 104.209C45.4599 104.293 45.3755 104.378 45.3755 104.504C45.6706 104.42 45.7971 104.546 45.9236 104.715C46.05 104.715 46.1765 104.673 46.2608 104.63C46.4295 104.504 46.5559 104.209 46.6824 104.04C46.7246 103.998 46.7667 103.914 46.8932 103.914C46.9353 103.914 47.0197 104.04 47.104 104.125C47.3569 104.462 47.7785 104.715 48.3265 104.63C48.4951 104.63 48.6638 104.546 48.7481 104.42C48.4108 104.378 48.1579 104.125 48.0314 103.788C48.3265 103.998 48.8746 104.209 49.3383 104.125C49.3804 104.125 49.5491 104.083 49.5491 103.998C49.2118 103.914 48.9167 103.577 49.0432 103.155C49.2118 103.408 49.5069 103.661 49.8863 103.703C50.0128 103.703 50.1393 103.703 50.2657 103.619C50.2236 103.577 50.1393 103.493 50.0971 103.408C50.0549 103.324 50.0128 103.198 50.0549 103.071C50.0971 102.776 50.5187 102.692 50.8138 102.65C51.1932 102.608 51.5726 102.692 51.9098 102.565C52.1206 102.481 52.3314 102.313 52.3314 102.06C52.2049 102.144 52.0363 102.228 51.8255 102.186C51.5304 102.144 51.404 101.891 51.404 101.723C51.404 101.343 51.6148 101.175 52.0785 101.133C52.2893 101.133 52.5844 101.175 52.753 101.259C52.753 101.259 53.0481 101.385 53.0481 101.343C52.9216 101.09 53.0481 100.627 53.1324 100.416C53.301 100.079 53.4697 99.8684 53.554 99.5312C53.554 99.5734 53.5961 99.6576 53.554 99.7419C53.5118 100.121 53.3853 100.332 53.3432 100.753C53.301 100.964 53.3853 101.259 53.5961 101.428C53.9334 101.723 54.5236 101.807 54.7344 102.27C54.8608 102.65 54.7344 102.945 54.5657 103.155C54.3128 103.493 53.9334 103.83 53.5118 103.998C53.3853 104.04 53.1746 104.167 53.0059 104.083C52.6265 103.956 52.5 103.282 52.2049 103.071C52.0785 102.987 51.9098 102.987 51.7412 102.987C51.6991 103.113 51.6991 103.155 51.6148 103.282C51.5726 103.366 51.404 103.45 51.404 103.45C51.404 103.577 51.5304 103.703 51.5726 103.788C51.7412 103.956 52.1206 104.04 52.2049 104.251C52.1628 104.293 52.0785 104.335 51.9942 104.335C51.6148 104.335 51.404 103.998 51.0246 103.956C50.9402 103.956 50.7716 103.956 50.6873 104.04V104.293C50.6451 104.42 50.603 104.462 50.5608 104.504C50.603 104.799 51.1089 104.841 51.5304 104.841C51.6569 104.841 51.7834 104.883 51.8255 104.968C51.7412 105.052 51.6148 105.136 51.4461 105.178C51.151 105.22 50.8981 105.052 50.603 105.052C50.5187 105.052 50.3922 105.094 50.2657 105.136C50.3079 105.22 50.3079 105.347 50.2657 105.431C50.2236 105.558 50.2236 105.642 50.1814 105.684C50.2236 105.726 50.3922 105.81 50.5187 105.81C50.9402 105.853 51.2775 105.515 51.6991 105.642C51.5304 105.895 51.2353 105.937 50.9824 106.063C50.8981 106.105 50.7716 106.232 50.7295 106.358C50.8138 106.4 50.8981 106.443 50.9402 106.527C50.9824 106.611 51.0246 106.695 51.0246 106.78C51.5304 106.822 51.7834 106.485 51.9942 106.19C52.3314 105.81 52.8373 105.558 53.5118 105.515C54.2706 105.473 55.1981 105.81 55.5353 105.178C55.1138 105.178 54.65 105.094 54.4814 104.799C55.1981 105.01 56.0834 104.799 56.4628 104.335C55.9569 104.42 55.451 104.293 55.2402 103.998C55.7883 104.125 56.3785 104.04 56.8422 103.788C57.1373 103.619 57.4324 103.366 57.5167 103.071C57.4746 103.071 57.3902 103.113 57.3059 103.155C56.9687 103.324 56.3363 103.282 56.1677 102.987C56.5049 102.987 56.8 102.945 57.0108 102.818C57.3059 102.65 57.4746 102.397 57.601 102.186C57.7275 101.975 57.854 101.723 57.9804 101.554C58.0648 101.47 58.1069 101.428 58.1912 101.428C58.1491 101.385 57.9804 101.343 57.8961 101.385C57.4324 101.47 57.2216 101.891 56.8 101.975C56.9687 101.512 57.0108 100.922 57.053 100.416C57.9383 100.753 58.6971 100.5 59.0765 99.9526C59.2873 99.6155 59.3716 99.2362 59.3716 98.9834C59.3716 98.4355 59.0765 98.0562 58.8236 97.7612C58.3177 97.2134 57.6432 96.792 57.053 96.3706C56.6314 96.0756 56.2099 95.7806 55.8304 95.4434C55.5775 95.2327 55.2824 94.8956 55.2402 94.5163C55.1559 93.9263 55.4932 93.4627 55.9148 93.3785C57.2216 92.9992 58.5285 94.3899 59.1608 95.1484C59.2873 95.317 59.8353 95.907 59.6246 96.3284C59.5824 96.4127 59.4138 96.497 59.2873 96.497C59.1187 96.497 58.95 96.2863 59.0765 96.0334C58.7393 96.1177 58.5706 96.6234 58.7814 96.9184C58.9079 97.1291 59.1608 97.1712 59.3716 97.1291C59.5402 97.087 59.7089 97.0027 59.751 96.8763C59.5402 97.5505 59.7932 98.3091 60.1304 98.6884C60.552 99.1519 61.1422 99.2784 61.3951 99.2784C62.0275 99.3205 62.6598 99.1519 63.0814 98.6041C63.6295 98.3091 63.7981 97.8034 63.6295 97.3398ZM50.4344 89.7964C50.35 89.6278 50.3079 89.3749 50.3922 89.2485C50.6451 89.4171 50.8981 89.4592 51.151 89.5014C50.9402 89.5435 50.6451 89.6278 50.4344 89.7964Z" fill="#EE3124"/>
<path d="M62.7017 66.4919L59.0762 70.5797L62.7017 74.7097L66.2428 70.5797L62.7017 66.4919ZM60.5095 70.5797L62.6595 68.1355L64.8095 70.6219L62.7017 73.024L60.5095 70.5797Z" fill="#FFEF00"/>
<path d="M35.6797 70.5797L39.3473 74.7097L42.8885 70.5797L39.3473 66.4919L35.6797 70.5797ZM39.3473 73.024L37.1552 70.5797L39.3052 68.1355L41.4552 70.6219L39.3473 73.024Z" fill="#FFEF00"/>
<path d="M53.0045 80.0618C52.3721 79.8933 51.6976 79.7247 51.1074 80.0618V80.2304C51.6555 79.8511 52.2878 80.0197 52.9623 80.1883C53.5104 80.3147 54.1006 80.4833 54.6486 80.2725V80.1461C54.1427 80.3568 53.5947 80.2304 53.0045 80.0618Z" fill="#00539B"/>
<path d="M48.5777 78.7976C47.9875 78.9662 47.4395 79.0926 46.9336 78.8819V79.0505C47.4395 79.2612 48.0297 79.0926 48.6199 78.9662C49.2944 78.7976 49.9267 78.629 50.4748 79.0083V78.8397C49.8846 78.4605 49.2101 78.629 48.5777 78.7976Z" fill="#00539B"/>
<path d="M48.5777 77.4913C47.9875 77.6598 47.4395 77.7863 46.9336 77.5756V77.702C47.4395 77.9127 48.0297 77.7441 48.6199 77.6177C49.2944 77.4491 49.9267 77.2806 50.4748 77.6599V77.4913C49.8846 77.1541 49.2101 77.3227 48.5777 77.4913Z" fill="#00539B"/>
<path d="M48.5777 80.0616C47.9875 80.188 47.4395 80.3566 46.9336 80.1037V80.2302C47.4395 80.4409 48.0297 80.3144 48.6199 80.1459C49.2944 79.9773 49.9267 79.8087 50.4748 80.188V80.0194C49.8846 79.7666 49.2101 79.893 48.5777 80.0616Z" fill="#00539B"/>
<path d="M53.0045 77.4913C52.3721 77.3227 51.6976 77.1541 51.1074 77.4913V77.6599C51.6555 77.2806 52.2878 77.4491 52.9623 77.6177C53.5104 77.7441 54.1006 77.9127 54.6486 77.702V77.5756C54.1427 77.7863 53.5947 77.6598 53.0045 77.4913Z" fill="#00539B"/>
<path d="M53.0045 78.7976C52.3721 78.629 51.6976 78.4605 51.1074 78.8397V79.0083C51.6555 78.629 52.2878 78.7976 52.9623 78.9662C53.5104 79.0926 54.1006 79.2612 54.6486 79.0505V78.8819C54.1427 79.0505 53.5947 78.924 53.0045 78.7976Z" fill="#00539B"/>
<path d="M43.5602 103.872C43.8975 103.535 44.1926 103.704 44.1926 103.704C44.3612 103.535 44.319 103.156 44.1926 103.029C43.8553 103.156 43.5181 103.451 43.5602 103.872Z" fill="#00539B"/>
<path d="M43.5605 102.229C43.5605 102.229 43.7292 102.144 43.9821 102.144C44.1929 102.144 44.3615 102.186 44.3615 102.186C44.5302 102.102 44.6988 101.765 44.5723 101.596C44.0664 101.681 43.687 101.891 43.5605 102.229Z" fill="#00539B"/>
<path d="M42.3379 101.133C42.3379 101.133 42.38 101.554 42.6751 101.849C42.7595 101.933 42.8859 102.018 43.0124 102.018C42.8438 101.807 42.8859 101.428 43.0124 101.217C42.8438 101.048 42.5065 101.048 42.3379 101.133Z" fill="#00539B"/>
<path d="M42.7183 92.4513C42.2124 92.3249 41.7065 92.5778 41.5801 92.9571C41.5801 92.9571 41.9595 92.7885 42.3389 92.9571C42.3389 92.9571 42.6762 92.7463 42.7183 92.4513Z" fill="#00539B"/>
<path d="M44.1937 92.2829C44.4045 92.1564 44.6574 92.1143 44.9104 92.1986C44.9104 92.03 44.6996 91.9036 44.5731 91.8614C44.3202 91.735 44.1937 91.6929 43.8986 91.6929C43.6878 91.6929 43.6035 91.7772 43.6035 91.7772C43.8565 91.8614 44.1094 91.9879 44.1937 92.2829Z" fill="#00539B"/>
<path d="M45.837 100.501C45.5419 100.417 45.1625 100.459 44.9095 100.585C44.6987 100.712 44.5723 100.88 44.5723 100.88C45.1203 100.838 45.4154 101.091 45.4154 101.091C45.584 101.007 45.8791 100.754 45.837 100.501Z" fill="#00539B"/>
<path d="M40.9043 99.9104C40.7356 100.079 40.567 100.458 40.6513 100.838C40.6935 101.006 40.82 101.09 40.82 101.09C40.8621 100.88 41.0307 100.585 41.368 100.585C41.4523 100.163 41.0729 99.9104 40.9043 99.9104Z" fill="#00539B"/>
<path d="M40.7788 98.3933C40.7788 98.3933 40.5259 98.4355 40.2308 98.7726C40.1043 98.899 39.9778 99.1519 40.02 99.3626C40.02 99.3626 40.1886 99.194 40.4416 99.1097C40.6102 99.0676 40.6945 99.0676 40.7788 99.0676C40.9474 99.0254 40.9896 98.5619 40.7788 98.3933Z" fill="#00539B"/>
<path d="M50.8124 82.7586C51.4026 82.7586 51.6977 82.2529 51.6977 82.2529H56.335V76.7744H55.7448V81.705C55.7448 81.705 55.4497 82 54.733 82C53.8899 82 52.9624 81.6629 52.0771 81.6629C51.234 81.6629 50.8967 82.0843 50.8124 82.1686C50.8124 82.1686 50.3909 81.6629 49.5899 81.6629C48.7467 81.6629 47.7771 82 46.7654 82C46.2595 82 45.9644 81.7472 45.8801 81.705V76.7744H45.332V82.2529H49.9271C49.9271 82.2529 50.1801 82.7586 50.8124 82.7586Z" fill="#00539B"/>
<path d="M41.0728 95.3593C41.0728 95.3593 41.3257 95.0221 41.1571 94.7693C40.6512 94.8114 40.3561 95.1064 40.1875 95.4436C40.2297 95.4436 40.6934 95.275 41.0728 95.3593Z" fill="#00539B"/>
<path d="M45.5416 104.504C45.5416 104.504 45.373 105.136 45.8367 105.347C45.8367 105.347 45.7524 105.01 46.0897 104.757C46.0053 104.546 45.7102 104.42 45.5416 104.504Z" fill="#00539B"/>
<path d="M40.6523 97.2559C40.9053 97.2137 41.2847 97.1716 41.4533 97.3401C41.7484 97.1716 41.917 96.8766 41.8749 96.7502C41.8327 96.708 41.6641 96.708 41.5798 96.708C41.0739 96.7502 40.7788 96.9609 40.6523 97.2559Z" fill="#00539B"/>
<path d="M41.2002 94.2212C41.2002 94.2212 41.4532 93.842 41.2002 93.5891C40.8208 93.6734 40.5257 93.9684 40.4414 94.3898C40.4414 94.3898 40.5679 94.3055 40.6943 94.2634C40.9051 94.1791 41.0738 94.2212 41.2002 94.2212Z" fill="#00539B"/>
<path d="M50.8105 85.9197L66.4086 95.0646C68.2213 90.2604 68.1792 84.2762 67.8419 75.8899L50.8105 85.9197Z" fill="#00539B"/>
<path d="M50.812 91.4402C50.7699 91.5666 50.7277 91.8195 50.6855 91.9459C50.812 91.988 50.9385 91.8616 51.065 91.8195C50.9385 91.693 50.8542 91.5245 50.812 91.4402Z" fill="#00539B"/>
<path d="M49.5898 105.979C49.5898 105.979 49.7163 105.895 49.8849 105.811C50.0114 105.726 50.2644 105.726 50.3908 105.811C50.5173 105.726 50.5595 105.305 50.4751 105.221C50.0536 105.263 49.632 105.558 49.5898 105.979Z" fill="#00539B"/>
<path d="M49.6725 91.5239C49.6304 91.6082 49.5882 91.7346 49.5039 91.8611C49.5882 91.9032 49.7568 91.9453 49.8412 91.9032C49.799 91.7768 49.7568 91.5661 49.6725 91.5239Z" fill="#00539B"/>
<path d="M69.9507 71.6332L69.6556 63.4998H32.0096L31.7145 71.6332C30.8713 93.505 30.5341 101.723 50.5164 111.331L50.8115 111.458L51.1066 111.331C71.1311 101.723 70.7939 93.505 69.9507 71.6332ZM50.8537 110.151C35.34 102.65 32.6841 96.2864 32.6841 82.3795C32.6841 79.2188 32.8105 75.6789 32.9792 71.6332C32.9792 71.6332 33.19 65.8176 33.2321 64.7219H68.5174C68.5596 65.8176 68.7703 71.6332 68.7703 71.6332C68.939 75.6789 69.0654 79.2609 69.0654 82.4216C69.0233 96.2864 66.3252 102.608 50.8537 110.151Z" fill="#00539B"/>
<path d="M35.2976 95.0641L50.8113 85.9192L33.8221 75.9736C33.527 84.3178 33.527 90.2598 35.2976 95.0641Z" fill="#00539B"/>
<path d="M50.9785 103.493C51.1471 103.451 51.4001 103.409 51.5687 103.535C51.7795 103.409 51.906 103.24 51.906 103.072C51.4844 102.987 51.0628 103.156 50.9785 103.493Z" fill="#00539B"/>
<path d="M50.8958 106.485C50.7272 106.611 50.4742 107.032 50.5164 107.327C50.5585 107.496 50.685 107.58 50.685 107.58C50.7693 107.285 51.0223 107.032 51.2331 106.948C51.2752 106.78 51.0223 106.485 50.8958 106.485Z" fill="#00539B"/>
<path d="M49.7578 90.5126C49.8 90.5969 49.8843 90.8919 49.8843 90.8919C49.9264 90.7655 50.0529 90.5969 50.0951 90.4705C49.9686 90.4705 49.8421 90.4705 49.7578 90.5126Z" fill="#00539B"/>
<path d="M49.209 90.6814C49.209 90.6814 49.3355 90.8921 49.3776 90.9764L49.5041 90.5549C49.4198 90.5549 49.2933 90.6392 49.209 90.6814Z" fill="#00539B"/>
<path d="M50.3066 90.4286C50.3066 90.4286 50.4331 90.7236 50.4753 90.85C50.5174 90.7236 50.6439 90.555 50.7282 90.4286C50.5596 90.3864 50.4331 90.3864 50.3066 90.4286Z" fill="#00539B"/>
<path d="M50.0527 91.9453C50.1792 91.9875 50.3057 91.9875 50.39 91.9875C50.3478 91.8611 50.2214 91.6082 50.2214 91.5239C50.2214 91.6082 50.0949 91.8611 50.0527 91.9453Z" fill="#00539B"/>
<path d="M49.9258 104.631C50.0523 104.546 50.4317 104.462 50.7268 104.588C50.8111 104.546 50.9375 104.251 50.8532 104.125C50.4317 103.999 50.0101 104.251 49.9258 104.631Z" fill="#00539B"/>
<path d="M51.2329 90.9763C51.0643 90.9342 50.8535 90.9763 50.6849 90.9763C50.0525 91.1028 49.2515 91.1871 48.7457 91.1449C48.3241 91.1028 47.7761 90.9764 47.7761 90.4285C47.7761 90.2178 47.8604 90.0071 47.8604 90.0071C47.6496 90.0492 47.3545 90.3442 47.3966 90.7235C47.4388 91.1449 47.8182 91.3978 48.6192 91.4399C49.2515 91.4821 50.1368 91.2714 50.6849 91.1449C51.0221 91.0606 51.2329 90.9763 51.2329 90.9763Z" fill="#00539B"/>
<path d="M49.6735 81.3262C50.3058 81.3262 50.7274 81.7898 50.7274 81.7898H50.896C51.1911 81.4948 51.4862 81.3262 51.95 81.3262C52.6666 81.3262 53.4254 81.6212 54.0578 81.6212C54.648 81.6212 55.0696 81.3262 55.1117 81.2841V76.1006L54.9852 76.1849C54.4372 76.6484 53.7627 76.4799 53.046 76.3113C52.2872 76.1006 51.4862 75.932 50.8117 76.6063C50.1372 75.932 49.3362 76.1006 48.5774 76.3113C47.8607 76.4799 47.2284 76.6484 46.6382 76.1849L46.5117 76.1006V81.2841C46.5539 81.3262 46.9333 81.6634 47.5656 81.6634C48.198 81.6212 48.999 81.3262 49.6735 81.3262ZM50.8539 76.6906C51.4441 76.0584 52.2029 76.227 52.9617 76.3956C53.6362 76.5642 54.3107 76.6906 54.9431 76.3113V81.1577C54.3951 81.5369 53.7205 81.4526 53.0039 81.2841C52.2451 81.1155 51.4862 80.9891 50.8539 81.5791V76.6906ZM46.6382 81.1998V76.3534C47.2284 76.7327 47.9451 76.6063 48.6196 76.4377C49.4205 76.227 50.1372 76.0584 50.7274 76.7327V81.6212C50.0951 81.0312 49.2941 81.1577 48.5774 81.3262C47.8607 81.4948 47.1862 81.6212 46.6382 81.1998Z" fill="#00539B"/>
<path d="M48.6199 78.9235C49.2944 78.755 49.9267 78.5864 50.4748 78.9657V78.7971C49.8846 78.46 49.2101 78.6285 48.5777 78.755C47.9875 78.9235 47.4395 79.05 46.9336 78.8393V79.0078C47.4395 79.2185 48.0297 79.05 48.6199 78.9235Z" fill="#00539B"/>
<path d="M48.6199 77.6177C49.2944 77.4491 49.9267 77.2806 50.4748 77.6599V77.4913C49.8846 77.1541 49.2101 77.3227 48.5777 77.4913C47.9875 77.6598 47.4395 77.7863 46.9336 77.5756V77.702C47.4395 77.9127 48.0297 77.7863 48.6199 77.6177Z" fill="#00539B"/>
<path d="M50.4318 80.2724V80.1038C49.8416 79.7667 49.1671 79.9353 48.5347 80.1038C47.9445 80.2303 47.3965 80.3988 46.8906 80.146V80.2724C47.3965 80.4831 47.9867 80.3567 48.5769 80.1881C49.2514 80.0617 49.8838 79.8931 50.4318 80.2724Z" fill="#00539B"/>
<path d="M53.0053 78.9237C53.5533 79.0501 54.1435 79.2187 54.6916 79.008V78.8394C54.1857 79.0501 53.6376 78.9237 53.0474 78.7551C52.4151 78.5866 51.7406 78.418 51.1504 78.7973V78.9658C51.6984 78.5866 52.3308 78.7551 53.0053 78.9237Z" fill="#00539B"/>
<path d="M53.0053 77.6177C53.5533 77.7441 54.1435 77.9127 54.6916 77.702V77.5756C54.1857 77.7863 53.6376 77.6598 53.0474 77.4913C52.4151 77.3227 51.7406 77.1541 51.1504 77.4913V77.6599C51.6984 77.3227 52.3308 77.4491 53.0053 77.6177Z" fill="#00539B"/>
<path d="M53.0053 80.2303C53.5533 80.3568 54.1435 80.5253 54.6916 80.3146V80.1882C54.1857 80.3989 53.6376 80.2725 53.0474 80.1461C52.4151 79.9775 51.7406 79.8089 51.1504 80.1461V80.3146C51.6984 79.8932 52.3308 80.0618 53.0053 80.2303Z" fill="#00539B"/>
</g>
<defs>
<clipPath id="clip0_3412_3614">
<rect width="258" height="48" fill="white" transform="translate(31 63.5)"/>
</clipPath>
</defs>
</svg>
