<svg xmlns="http://www.w3.org/2000/svg" width="178" height="34" viewBox="0 0 178 34" fill="none">
<g id="logo-foundation 2" clip-path="url(#clip0_2453_16751)">
<path id="Vector" d="M33.1275 27.6884C33.2148 27.1649 33.2729 26.3214 33.2729 25.158H33.8255C33.8546 25.9433 33.8837 26.4087 33.971 26.5541C34.0291 26.6995 34.1746 26.845 34.4363 27.0195C34.669 27.194 34.9889 27.3394 35.3961 27.4557C35.8033 27.5721 36.1814 27.6593 36.5595 27.6593C37.1121 27.6593 37.6066 27.543 38.0719 27.2812C38.5373 27.0195 38.8572 26.6995 39.0899 26.2923C39.2935 25.8851 39.4099 25.4489 39.4099 24.9835C39.4099 24.6345 39.3517 24.3146 39.2644 24.0528C39.1481 23.791 39.0027 23.5874 38.77 23.4129C38.5664 23.2675 38.2755 23.1512 37.9556 23.0639C37.752 23.0348 37.3448 22.9766 36.7631 22.8894C36.1523 22.8021 35.6579 22.7149 35.2216 22.6276C34.669 22.4531 34.2327 22.2495 33.971 22.0168C33.7092 21.7842 33.4765 21.4642 33.3311 21.0861C33.1566 20.708 33.0693 20.3008 33.0693 19.8646C33.0693 19.2247 33.2438 18.6139 33.5638 18.0613C33.8837 17.5087 34.3782 17.0433 35.0471 16.7525C35.7161 16.4325 36.4141 16.2871 37.1703 16.2871C37.6357 16.2871 38.1301 16.3453 38.6827 16.4616C39.2354 16.578 39.7298 16.7525 40.2242 16.9851C40.137 17.3342 40.1079 17.6541 40.0497 17.9449C40.0206 18.2358 39.9916 18.6721 39.9625 19.2538H39.4099C39.3808 18.4103 39.3808 17.974 39.3226 17.8868C39.1772 17.6832 39.0027 17.5087 38.77 17.3632C38.2174 17.0433 37.6357 16.8979 37.0249 16.8979C36.2396 16.8979 35.5997 17.1306 35.1344 17.625C34.669 18.0904 34.4363 18.7302 34.4363 19.4865C34.4363 19.9518 34.5236 20.3008 34.6981 20.5626C34.8726 20.8244 35.1635 21.028 35.5997 21.1734C35.8906 21.2897 36.385 21.377 37.054 21.4642C37.7229 21.5515 38.3337 21.6387 38.8863 21.7551C39.4099 21.9005 39.788 22.075 40.0206 22.3077C40.2533 22.5113 40.4569 22.8021 40.6314 23.1221C40.7769 23.4711 40.8641 23.8492 40.8641 24.3146C40.8641 25.3907 40.4278 26.3505 39.5262 27.1358C38.6246 27.9502 37.4612 28.3283 36.036 28.3283C34.9889 28.3283 34.0001 28.1247 33.1275 27.6884Z" fill="black"/>
<path id="Vector_2" d="M41.7373 21.6973V21.3483C42.2608 21.1447 42.668 20.9702 42.988 20.7957C42.988 19.4869 42.988 18.6725 42.988 18.3235C43.5406 18.1199 44.0059 17.9163 44.355 17.6836L44.5585 17.8581C44.5004 18.3235 44.4422 19.3124 44.355 20.8539H45.1402C45.1984 20.8539 45.4602 20.8539 45.9837 20.8248C46.2746 20.8248 46.4782 20.7957 46.6236 20.7957L46.6817 20.8539L46.5072 21.6101C46.1582 21.6101 45.8383 21.6101 45.5765 21.6101C45.2857 21.6101 44.8785 21.6101 44.384 21.6101L44.355 24.9257C44.3259 25.7401 44.355 26.2055 44.384 26.38C44.4131 26.5254 44.4713 26.6709 44.5295 26.7872C44.6167 26.9035 44.704 26.9908 44.8203 27.078C44.9367 27.1653 45.1402 27.1944 45.4311 27.2525C45.6638 27.2525 45.8383 27.2526 45.9837 27.2235C46.1291 27.1944 46.3036 27.1653 46.5072 27.078L46.5945 27.398C46.3327 27.6016 46.1 27.8052 45.8674 28.0378C45.6638 28.1251 45.4602 28.1542 45.2857 28.1833C45.1112 28.2124 44.9076 28.2124 44.6749 28.2124C44.384 28.2124 44.1514 28.1833 43.9768 28.1251C43.8023 28.0669 43.6569 27.9797 43.5115 27.8633C43.3661 27.747 43.2497 27.6016 43.1625 27.4271C43.0752 27.2525 43.017 26.9617 42.988 26.5836C42.988 26.2055 43.017 25.7983 43.017 25.362C43.017 25.2748 43.017 25.1875 43.017 25.0712V21.6973H42.668C42.3772 21.6682 42.0863 21.6682 41.7373 21.6973Z" fill="black"/>
<path id="Vector_3" d="M50.666 28.0962V27.5436C51.1023 27.5436 51.3641 27.5145 51.4804 27.4855C51.5967 27.4564 51.684 27.3982 51.7712 27.311C51.8585 27.2237 52.0039 27.0201 52.1494 26.642C52.2366 26.4384 52.6147 25.6822 53.1964 24.3443L55.2324 19.7489C55.465 19.2544 55.9304 18.1201 56.6575 16.375H57.1811L60.6712 24.5479C61.2529 25.8858 61.602 26.7002 61.8056 27.0492C61.9219 27.2528 62.0092 27.3691 62.1546 27.4273C62.2709 27.4855 62.5618 27.5145 62.969 27.5145V28.0672C62.1255 28.009 61.5147 27.9799 61.1948 27.9799L58.5771 28.0672V27.5145C59.1879 27.5145 59.566 27.4855 59.6824 27.4564C59.7987 27.4273 59.886 27.3982 59.9441 27.34C60.0023 27.2819 60.0023 27.2237 60.0023 27.1364C60.0023 27.0201 59.9732 26.8747 59.8859 26.6711L58.8971 24.1698H54.1853L53.3127 26.2639C53.1673 26.642 53.0801 26.9038 53.0801 27.0783C53.0801 27.1655 53.1092 27.2237 53.1382 27.2528C53.1964 27.34 53.2837 27.3691 53.4291 27.3982C53.6327 27.4564 53.9817 27.4564 54.4761 27.4855V28.0381C53.5454 27.9799 52.8765 27.9508 52.4111 27.9508C51.8585 28.009 51.2768 28.0381 50.666 28.0962ZM54.4471 23.5299H58.548L56.5121 18.6145L54.4471 23.5299Z" fill="black"/>
<path id="Vector_4" d="M63.6089 28.0957V27.6303H64.3942C64.5105 27.6303 64.5978 27.6012 64.6559 27.5722C64.7141 27.5431 64.7723 27.4849 64.8014 27.4267C64.8595 27.3104 64.8886 27.1359 64.9177 26.845C64.9177 26.7869 64.9468 26.0016 64.9468 24.5182V23.5293C64.9468 23.0931 64.9468 22.6277 64.9177 22.1333C64.8886 21.8133 64.8886 21.6097 64.8305 21.5516C64.8014 21.4934 64.7432 21.4352 64.6559 21.4061C64.5687 21.3771 64.2197 21.3771 63.6089 21.3771V20.9117C64.7141 20.7663 65.4994 20.5627 66.0229 20.3009C66.1393 20.2427 66.1975 20.2137 66.2556 20.2137C66.2847 20.2137 66.3138 20.2427 66.3429 20.2427C66.372 20.2718 66.372 20.3009 66.372 20.3591V20.4754C66.3429 20.679 66.3429 21.0862 66.3138 21.7261L67.8262 20.4172C68.2625 20.2427 68.6988 20.1846 69.1059 20.1846C69.5422 20.1846 69.9494 20.2718 70.3566 20.4463C70.7638 20.6208 71.0546 20.8535 71.2582 21.1153C71.4618 21.3771 71.5782 21.7261 71.6654 22.1333C71.6945 22.3659 71.7236 23.064 71.7236 24.1692V25.6235C71.7236 26.3215 71.7527 26.8159 71.7818 27.0777C71.8108 27.2522 71.8399 27.3395 71.8981 27.4267C71.9563 27.4849 72.0435 27.5431 72.1599 27.5431L73.0324 27.5722V28.0375C72.5089 28.0084 72.0435 27.9793 71.6945 27.9793C71.3746 27.9793 70.8801 28.0084 70.1821 28.0375C70.2693 26.6996 70.2984 25.8561 70.2984 25.5071V24.1401C70.2984 23.2967 70.2693 22.715 70.2112 22.4532C70.1239 22.0751 69.9203 21.7842 69.5713 21.5806C69.2514 21.348 68.8442 21.2607 68.3788 21.2607C67.9716 21.2607 67.5935 21.348 67.2736 21.5516C66.9246 21.7552 66.6919 21.9588 66.5465 22.2205C66.401 22.4823 66.3138 22.8895 66.3138 23.5003V24.4891C66.3429 25.9143 66.3429 26.6705 66.3429 26.7869C66.3429 27.0486 66.372 27.2522 66.4301 27.3686C66.4592 27.4267 66.4883 27.4558 66.5174 27.4849C66.5465 27.514 66.6337 27.5431 66.721 27.5722C66.7501 27.5722 67.0409 27.5722 67.6226 27.6012V28.0666C66.9537 28.0375 66.372 28.0084 65.8193 28.0084C65.3831 28.0375 64.6269 28.0375 63.6089 28.0957Z" fill="black"/>
<path id="Vector_5" d="M78.6167 17.015V16.5497C79.2275 16.4915 79.7219 16.4043 80.1582 16.317C80.5654 16.2298 80.9726 16.1134 81.3797 15.9971L81.4961 16.0843C81.467 16.5497 81.4379 17.4513 81.4088 18.7601L81.3797 20.069V25.1588C81.3797 25.7114 81.3798 26.2059 81.4088 26.584C81.4379 26.9912 81.467 27.2239 81.5252 27.3111C81.5833 27.3984 81.6415 27.4565 81.7579 27.5147C81.8742 27.5729 82.2232 27.602 82.7758 27.6601V28.0964C82.1069 28.0673 81.6415 28.0382 81.3797 28.0382C81.1471 28.0382 80.6526 28.0673 79.9546 28.0964C79.9837 27.7183 79.9837 27.2239 79.9837 26.584C79.751 26.7294 79.4601 26.9912 79.1111 27.282C78.733 27.602 78.4422 27.8637 78.2386 28.0673C77.8023 28.1837 77.4242 28.2418 77.0752 28.2418C76.4644 28.2418 75.8827 28.0964 75.3883 27.7765C74.8647 27.4856 74.4866 27.0203 74.1958 26.4386C73.9049 25.8569 73.7886 25.217 73.7886 24.4899C73.7886 23.9373 73.8758 23.4428 74.0503 22.9484C74.2249 22.4539 74.4284 22.0758 74.6902 21.8141C74.8356 21.6686 75.1556 21.436 75.6791 21.116C76.2026 20.7961 76.6098 20.5925 76.9588 20.4471C77.2788 20.3016 77.6278 20.2435 78.0059 20.2435C78.3549 20.2435 78.6749 20.2726 79.0239 20.3598C79.3438 20.4471 79.6637 20.5634 79.9837 20.7379V18.5856C79.9837 17.8294 79.9546 17.3641 79.8964 17.2186C79.8673 17.1605 79.8382 17.1023 79.7801 17.0732C79.6347 17.0441 79.2565 17.015 78.6167 17.015ZM79.9546 22.134C79.5765 21.7268 79.1984 21.436 78.7912 21.2324C78.384 21.0579 77.9768 20.9415 77.5987 20.9415C77.1624 20.9415 76.7552 21.0578 76.3771 21.2905C75.999 21.5232 75.7082 21.8722 75.5046 22.3085C75.301 22.7739 75.2137 23.3265 75.2137 23.9663C75.2137 24.9552 75.4464 25.7405 75.9409 26.2931C76.4353 26.8458 77.017 27.1366 77.715 27.1366C78.0932 27.1366 78.4131 27.0494 78.7039 26.9039C78.9948 26.7585 79.2566 26.5258 79.4601 26.235C79.6637 25.9441 79.8092 25.6242 79.8673 25.2461C79.9255 25.0134 79.9255 24.4317 79.9255 23.4719V22.134H79.9546Z" fill="black"/>
<path id="Vector_6" d="M83.6772 28.0965V27.6311C84.288 27.6311 84.637 27.602 84.6661 27.602C84.7534 27.5729 84.8406 27.5729 84.8697 27.5148C84.9279 27.4857 84.957 27.4275 84.9861 27.3693C85.0442 27.253 85.0733 27.0494 85.0733 26.7876C85.1024 25.3334 85.1024 24.5772 85.1024 24.519V23.5301C85.1024 23.0938 85.1024 22.6285 85.0733 22.134C85.0733 21.8141 85.0442 21.6105 85.0151 21.5523C84.9861 21.4942 84.9279 21.436 84.8406 21.4069C84.7534 21.3778 84.4044 21.3778 83.7645 21.3778V20.9125C84.8697 20.767 85.655 20.5634 86.1785 20.3017C86.2949 20.2435 86.3531 20.2144 86.4112 20.2144C86.4403 20.2144 86.4694 20.2435 86.4985 20.2435C86.5276 20.2726 86.5276 20.3017 86.5276 20.3598V20.4762C86.4985 20.7961 86.4985 21.3196 86.4694 22.0177C86.7021 21.7268 86.9348 21.4651 87.1384 21.1742C87.3419 20.8834 87.4874 20.7089 87.5746 20.6216C87.7491 20.4762 87.9236 20.3598 88.1272 20.2726C88.3308 20.1853 88.5635 20.1562 88.7962 20.1562C89.0289 20.1562 89.2616 20.2144 89.4652 20.3017L89.5233 20.418C89.4361 21.1451 89.407 21.785 89.3779 22.3376H88.9998C88.8835 22.0759 88.738 21.8723 88.5635 21.7559C88.389 21.6396 88.1854 21.5814 87.9527 21.5814C87.5455 21.5814 87.1674 21.7559 86.8766 22.1049C86.5857 22.454 86.4403 22.9775 86.4403 23.6464V24.4899C86.4403 24.8389 86.4403 25.5079 86.4694 26.4677C86.4694 26.8167 86.4985 27.0203 86.4985 27.1076C86.5276 27.1948 86.5567 27.253 86.5857 27.3112C86.6148 27.3402 86.673 27.3984 86.7602 27.3984C86.9348 27.4566 87.371 27.4857 88.0691 27.5438V28.0092C87.1093 27.9801 86.2949 27.951 85.6259 27.951C84.9861 28.0383 84.3171 28.0383 83.6772 28.0965Z" fill="black"/>
<path id="Vector_7" d="M96.7947 26.8161L96.5329 27.3978C96.1548 27.6305 95.893 27.776 95.7185 27.8632C95.4567 27.9796 95.1659 28.0668 94.846 28.1541C94.526 28.2413 94.177 28.2704 93.7989 28.2704C93.0718 28.2704 92.4319 28.125 91.8502 27.8341C91.2685 27.5433 90.8032 27.0779 90.4832 26.4962C90.1633 25.9145 89.9888 25.2165 89.9888 24.4021C89.9888 23.7913 90.076 23.2096 90.2505 22.7152C90.425 22.2207 90.6286 21.8426 90.8322 21.6099C90.9777 21.4354 91.2394 21.2318 91.5594 20.9992C91.8793 20.7665 92.2283 20.592 92.5483 20.4756C92.9845 20.3011 93.4499 20.2139 93.9443 20.2139C94.5551 20.2139 95.1077 20.3593 95.6022 20.6211C96.0966 20.9119 96.4456 21.29 96.6783 21.7554C96.911 22.2207 97.0273 22.7733 97.0273 23.3841C97.0273 23.5296 96.9982 23.7331 96.9982 23.9367C96.6201 24.024 96.2711 24.0531 95.9512 24.0822C95.3695 24.1112 94.7878 24.1403 94.2061 24.1403H91.5884C91.5884 24.9256 91.7339 25.5655 91.9956 26.0309C92.2574 26.5253 92.6064 26.8743 93.0718 27.107C93.5371 27.3397 94.0025 27.456 94.4969 27.456C94.8169 27.456 95.1659 27.3979 95.4858 27.3106C95.8058 27.1943 96.213 27.0197 96.7074 26.7289L96.7947 26.8161ZM91.5884 23.5005C91.7339 23.5296 92.0247 23.5296 92.461 23.5586C93.2754 23.5877 93.828 23.5877 94.1188 23.5877C94.846 23.5877 95.3113 23.5586 95.544 23.5586C95.544 23.4423 95.544 23.326 95.544 23.2678C95.544 22.4243 95.3695 21.7845 95.0205 21.3773C94.6715 20.9701 94.2061 20.7665 93.6244 20.7665C93.0136 20.7665 92.5192 20.9992 92.1411 21.4354C91.763 21.8426 91.5884 22.5407 91.5884 23.5005Z" fill="black"/>
<path id="Vector_8" d="M101.099 28.1838L100.75 27.0495L99.9941 24.5191C99.7905 23.792 99.5578 23.0939 99.3251 22.3959C99.0925 21.7269 98.947 21.3197 98.8889 21.2325C98.8307 21.1452 98.7143 21.058 98.6271 20.9998C98.5108 20.9707 98.249 20.9125 97.8418 20.8835V20.4181C98.4526 20.4472 99.0925 20.4763 99.7614 20.4763C100.489 20.4763 101.157 20.4472 101.797 20.4181V20.8835C101.303 20.8835 100.954 20.9125 100.808 20.9416C100.692 20.9707 100.634 20.9998 100.576 21.058C100.518 21.1161 100.518 21.1743 100.518 21.2616C100.518 21.3779 100.605 21.7269 100.75 22.2795L101.507 24.8972C101.623 25.3335 101.797 25.8279 101.972 26.3223L102.583 24.8972L103.775 22.2214C104.066 21.5815 104.328 20.9416 104.56 20.3018H104.968C105.317 21.2906 105.578 21.9596 105.695 22.2795L106.625 24.6354C106.945 25.4207 107.178 26.0315 107.353 26.4387L107.963 24.839C108.371 23.792 108.661 22.9194 108.894 22.1923C109.01 21.7851 109.069 21.5233 109.069 21.3488C109.069 21.2034 109.01 21.0871 108.923 21.0289C108.807 20.9707 108.458 20.9125 107.876 20.9125V20.4472C108.69 20.4763 109.272 20.5054 109.592 20.5054C109.97 20.5054 110.494 20.4763 111.134 20.4472V20.9125C110.814 20.9125 110.61 20.9416 110.494 20.9998C110.377 21.058 110.29 21.1452 110.203 21.2616C110.057 21.4361 109.854 21.8724 109.534 22.5704L108.69 24.6063L108.312 25.508C108.254 25.6825 108.022 26.2351 107.673 27.1658C107.527 27.5439 107.411 27.8929 107.323 28.1838H106.567L106.189 27.1658L104.328 22.4831L103.542 24.1701L102.612 26.206C102.408 26.6714 102.234 27.0786 102.088 27.4276L101.826 28.1838H101.099Z" fill="black"/>
<path id="Vector_9" d="M112.268 25.6235H112.763C112.763 25.9434 112.792 26.1761 112.821 26.3797C112.85 26.5542 112.908 26.7578 112.966 26.9323C113.024 27.1068 113.141 27.2522 113.257 27.3686C113.403 27.4849 113.548 27.5722 113.693 27.6594C113.839 27.7176 114.013 27.7758 114.188 27.8048C114.362 27.8339 114.595 27.8339 114.944 27.8339C115.497 27.8339 115.962 27.6885 116.311 27.3976C116.66 27.1068 116.835 26.6996 116.835 26.1761C116.835 25.9434 116.776 25.7398 116.66 25.5653C116.544 25.3908 116.398 25.2454 116.166 25.1581C115.962 25.0708 115.497 24.9254 114.799 24.78C114.101 24.6346 113.664 24.5182 113.461 24.431C113.17 24.3146 112.908 24.1692 112.734 24.0238C112.559 23.8493 112.414 23.6457 112.297 23.413C112.181 23.1512 112.152 22.8895 112.152 22.5986C112.152 22.1623 112.268 21.7842 112.501 21.4061C112.734 21.0571 113.083 20.7372 113.577 20.5336C114.072 20.3009 114.595 20.1846 115.148 20.1846C115.497 20.1846 115.875 20.2427 116.34 20.33C116.806 20.4173 117.155 20.5336 117.445 20.679C117.416 21.2898 117.387 21.9006 117.358 22.5114H116.922C116.893 22.1042 116.864 21.8424 116.835 21.7261C116.806 21.6097 116.747 21.4934 116.689 21.3771C116.631 21.2898 116.515 21.1735 116.369 21.0571C116.224 20.9408 116.02 20.8535 115.788 20.7663C115.555 20.679 115.264 20.6499 114.944 20.6499C114.479 20.6499 114.072 20.7954 113.781 21.0862C113.49 21.3771 113.344 21.697 113.344 22.0751C113.344 22.2787 113.373 22.4823 113.461 22.6277C113.548 22.7731 113.664 22.9186 113.81 23.0058C113.955 23.0931 114.159 23.1803 114.391 23.2676L115.758 23.5875C116.456 23.762 116.922 23.9074 117.184 24.0238C117.445 24.1401 117.649 24.3437 117.794 24.6055C117.94 24.8673 118.027 25.1872 118.027 25.5653C118.027 26.2924 117.736 26.9323 117.125 27.4849C116.515 28.0375 115.7 28.2993 114.682 28.2993C114.217 28.2993 113.606 28.212 112.821 28.0957C112.385 28.0084 112.152 27.9503 112.123 27.9212C112.094 27.8921 112.094 27.8921 112.094 27.8339C112.094 27.7757 112.094 27.7467 112.123 27.6885C112.181 27.4558 112.21 27.2231 112.21 26.9905C112.239 26.7869 112.268 26.3215 112.268 25.6235Z" fill="black"/>
<path id="Vector_10" d="M123.059 32.052V0.727539H123.844V32.052H123H123.059Z" fill="black"/>
<path id="Vector_11" d="M177.185 32.052V0.727539H178V32.052H177.156H177.185Z" fill="black"/>
<path id="Vector_12" d="M129.574 4.50862V4.24686C129.981 4.27595 130.33 4.27594 130.621 4.27594C130.824 4.27594 131.173 4.27595 131.726 4.24686C132.25 4.24686 132.599 4.21777 132.802 4.21777H133.355C133.529 4.21777 133.675 4.21778 133.791 4.24686C133.733 4.47954 133.675 4.88672 133.675 5.46842H133.413C133.384 5.14849 133.355 4.88672 133.326 4.71221C133.18 4.65404 133.006 4.62496 132.802 4.59587C132.599 4.56679 132.366 4.56679 132.075 4.56679C131.784 4.56679 131.522 4.59588 131.232 4.62496C131.202 4.77039 131.202 4.91581 131.202 5.03215C131.202 5.09032 131.202 5.41026 131.173 5.96287V6.86451H131.988C132.337 6.86451 132.599 6.83542 132.802 6.80633C132.889 6.77725 132.919 6.77725 132.948 6.74816C132.977 6.71908 133.006 6.60274 133.035 6.39915L133.064 6.13738H133.326L133.297 7.0681L133.326 8.05698H133.064L133.035 7.79522C133.006 7.50437 132.977 7.32986 132.977 7.32986C132.948 7.30077 132.889 7.27169 132.831 7.24261C132.686 7.21352 132.337 7.18443 131.784 7.18443C131.581 7.18443 131.406 7.18444 131.202 7.21352V8.02791C131.202 8.40601 131.202 8.75502 131.232 9.10404C131.232 9.36581 131.261 9.51124 131.29 9.56941C131.319 9.62758 131.377 9.65666 131.435 9.68574C131.493 9.71483 131.697 9.71483 132.017 9.71483V9.97659C131.668 9.94751 131.319 9.94751 130.999 9.94751C130.679 9.94751 130.243 9.94751 129.661 9.97659V9.71483C129.981 9.71483 130.185 9.68574 130.243 9.68574C130.301 9.65666 130.359 9.62758 130.388 9.59849C130.417 9.54032 130.446 9.42398 130.446 9.1913C130.446 9.13313 130.446 8.75503 130.475 8.02791V6.13738C130.475 5.75928 130.475 5.41026 130.475 5.06124C130.475 4.79947 130.446 4.65404 130.417 4.59587C130.388 4.5377 130.33 4.50862 130.272 4.47954C130.068 4.53771 129.894 4.53771 129.574 4.50862Z" fill="black"/>
<path id="Vector_13" d="M134.198 7.18359C134.198 6.74731 134.256 6.36921 134.401 5.99111C134.518 5.613 134.75 5.29306 135.041 5.00221C135.332 4.71136 135.681 4.47869 136.059 4.33326C136.437 4.18784 136.874 4.10059 137.339 4.10059C137.775 4.10059 138.182 4.15875 138.56 4.27509C138.939 4.39143 139.229 4.56594 139.462 4.76954C139.695 4.97313 139.869 5.20581 140.015 5.43849C140.131 5.613 140.189 5.84568 140.247 6.07836C140.306 6.31104 140.335 6.60189 140.335 6.86366C140.335 7.76529 140.015 8.5215 139.404 9.13228C138.793 9.74307 138.008 10.0339 137.077 10.0339C136.641 10.0339 136.263 9.97574 135.885 9.83032C135.507 9.68489 135.216 9.4813 134.954 9.21953C134.692 8.95777 134.518 8.60875 134.372 8.23065C134.285 7.9398 134.198 7.56169 134.198 7.18359ZM135.041 6.83457C135.041 7.09634 135.07 7.3581 135.128 7.61986C135.187 7.88162 135.245 8.11431 135.332 8.31791C135.448 8.63784 135.623 8.92869 135.856 9.13228C136.059 9.36496 136.292 9.51039 136.554 9.62673C136.815 9.74307 137.106 9.77215 137.426 9.77215C137.862 9.77215 138.241 9.65581 138.56 9.45222C138.88 9.24862 139.113 8.92869 139.288 8.55058C139.433 8.17248 139.52 7.70712 139.52 7.21267C139.52 6.7764 139.462 6.39829 139.346 6.02019C139.288 5.78751 139.171 5.58392 139.055 5.40941C138.939 5.2349 138.793 5.06039 138.648 4.94405C138.473 4.79862 138.27 4.71136 138.008 4.59503C137.746 4.50777 137.455 4.4496 137.164 4.4496C136.728 4.4496 136.35 4.53686 136.03 4.74045C135.71 4.94404 135.448 5.20581 135.303 5.58391C135.128 5.96202 135.041 6.3983 135.041 6.83457Z" fill="black"/>
<path id="Vector_14" d="M140.655 4.50786V4.24609C141.091 4.27518 141.498 4.27517 141.876 4.27517C142.254 4.27517 142.633 4.27518 143.011 4.24609V4.50786C142.691 4.50786 142.487 4.53694 142.429 4.53694C142.371 4.56603 142.313 4.59511 142.284 4.62419C142.254 4.68236 142.225 4.7987 142.225 5.03138C142.225 5.08955 142.225 5.46766 142.196 6.19478V7.7072C142.196 8.2889 142.225 8.66701 142.313 8.8706C142.4 9.04511 142.516 9.21962 142.662 9.33596C142.778 9.42322 142.952 9.51047 143.156 9.56864C143.36 9.62681 143.592 9.65589 143.854 9.65589C144.145 9.65589 144.436 9.62681 144.669 9.53955C144.901 9.4523 145.076 9.36504 145.192 9.27779C145.308 9.16145 145.396 9.04511 145.454 8.92877C145.512 8.78334 145.541 8.60883 145.57 8.37615C145.599 8.14347 145.599 7.85262 145.599 7.5036V6.25295C145.599 5.87485 145.599 5.52583 145.57 5.17681C145.57 4.91504 145.541 4.76962 145.512 4.71145C145.483 4.65328 145.425 4.62419 145.367 4.59511C145.308 4.56602 145.105 4.56602 144.785 4.56602V4.30426C145.221 4.33334 145.57 4.33335 145.774 4.33335C145.948 4.33335 146.297 4.33334 146.792 4.30426V4.56602C146.472 4.56602 146.268 4.59511 146.21 4.59511C146.152 4.62419 146.094 4.65328 146.065 4.68237C146.036 4.74054 146.006 4.85688 146.006 5.08956C146.006 5.14773 146.006 5.52583 145.977 6.25295V7.61994C145.977 8.2889 145.919 8.75426 145.832 9.01603C145.745 9.27779 145.57 9.51047 145.308 9.71406C145.134 9.85949 144.901 9.97583 144.581 10.0631C144.29 10.1503 143.97 10.1794 143.592 10.1794C143.185 10.1794 142.807 10.1213 142.516 10.034C142.196 9.94675 141.964 9.80132 141.818 9.65589C141.673 9.51047 141.556 9.33596 141.498 9.16145C141.411 8.92877 141.382 8.57975 141.382 8.05622V6.25295C141.382 5.87485 141.382 5.52583 141.382 5.17681C141.382 4.91504 141.353 4.76962 141.324 4.71145C141.295 4.65328 141.236 4.62419 141.178 4.59511C141.178 4.53694 140.975 4.53694 140.655 4.50786Z" fill="black"/>
<path id="Vector_15" d="M147.257 10.034V9.77224C147.548 9.77224 147.723 9.74315 147.81 9.71406C147.839 9.68498 147.868 9.68498 147.897 9.62681C147.926 9.56864 147.955 9.42322 147.955 9.19054C147.955 8.84152 147.985 8.52158 147.985 8.25982V4.97322C147.985 4.88596 147.985 4.82779 147.955 4.79871C147.926 4.74054 147.897 4.68236 147.81 4.62419C147.752 4.59511 147.694 4.53694 147.635 4.53694C147.577 4.53694 147.432 4.50786 147.199 4.50786V4.24609C147.665 4.24609 147.955 4.27517 148.072 4.27517C148.275 4.27517 148.479 4.27518 148.683 4.24609C148.915 4.53694 149.09 4.76962 149.177 4.91504L150.02 5.96211L151.242 7.44544C151.62 7.9108 151.94 8.2889 152.173 8.55067C152.318 8.72518 152.435 8.8706 152.551 8.95785V5.99119C152.551 5.72943 152.551 5.40949 152.522 5.06047C152.522 4.82779 152.493 4.71145 152.464 4.65328C152.435 4.6242 152.405 4.59511 152.376 4.56602C152.289 4.53694 152.115 4.50786 151.824 4.50786V4.24609C152.144 4.24609 152.464 4.27517 152.784 4.27517C153.103 4.27517 153.365 4.27518 153.627 4.24609V4.50786C153.336 4.50786 153.162 4.53694 153.074 4.56602C153.045 4.59511 153.016 4.59511 152.987 4.65328C152.958 4.71145 152.929 4.85688 152.929 5.08956C152.929 5.43858 152.9 5.7585 152.9 6.02027V7.96897C152.9 8.37616 152.9 9.10328 152.929 10.1794L152.522 10.0631L152.435 10.034C152.405 10.034 152.405 10.0049 152.376 10.0049C152.347 10.0049 152.318 9.94674 152.231 9.8304C151.998 9.56864 151.853 9.36504 151.736 9.2487L151.213 8.57975L148.334 5.08956V8.23073C148.334 8.49249 148.334 8.81243 148.363 9.19054C148.363 9.42322 148.392 9.56864 148.421 9.59773L148.508 9.68498C148.595 9.71406 148.77 9.74315 149.061 9.74315V10.0049C148.828 9.97583 148.566 9.97583 148.275 9.97583C147.955 10.0049 147.606 10.0049 147.257 10.034Z" fill="black"/>
<path id="Vector_16" d="M154.296 10.0342V9.83062C154.441 9.74337 154.587 9.65611 154.674 9.59794C154.703 9.42343 154.703 9.16167 154.703 8.84173C154.732 8.28912 154.732 7.91101 154.732 7.67834V6.02049C154.732 5.75872 154.732 5.43879 154.703 5.08977C154.703 4.8571 154.674 4.74076 154.645 4.68259C154.616 4.6535 154.587 4.62441 154.558 4.59533C154.47 4.56624 154.267 4.53716 154.005 4.53716V4.27539C154.412 4.27539 154.761 4.30448 155.052 4.30448H156.012C156.419 4.30448 156.739 4.27539 156.942 4.27539C157.611 4.27539 158.135 4.36265 158.542 4.53716C158.949 4.71167 159.298 5.00252 159.56 5.38062C159.851 5.78781 159.967 6.25317 159.967 6.83487C159.967 7.24206 159.909 7.62017 159.764 7.99827C159.618 8.34729 159.444 8.66722 159.211 8.92899C158.978 9.19075 158.746 9.42343 158.484 9.56886C158.222 9.71428 157.96 9.83063 157.67 9.91788C157.379 10.0051 157.001 10.0342 156.506 10.0342C156.332 10.0342 156.128 10.0342 155.837 10.0051C155.459 10.0051 155.226 9.97605 155.11 9.97605C154.994 10.0051 154.703 10.0051 154.296 10.0342ZM155.546 9.59794C155.837 9.65611 156.157 9.6852 156.477 9.6852C156.826 9.6852 157.117 9.65611 157.379 9.59794C157.64 9.53977 157.873 9.45252 158.048 9.33618C158.222 9.21984 158.397 9.07442 158.6 8.87082C158.775 8.66723 158.92 8.37637 159.008 8.05644C159.095 7.7365 159.153 7.38748 159.153 7.03846C159.153 6.54402 159.066 6.10774 158.891 5.72964C158.717 5.38062 158.426 5.08977 158.077 4.91526C157.728 4.71167 157.204 4.62441 156.593 4.62441C156.274 4.62441 155.924 4.6535 155.575 4.71167C155.575 4.85709 155.546 5.08978 155.546 5.40971L155.517 5.99141V7.62016V8.87082C155.517 9.04533 155.517 9.27801 155.546 9.59794Z" fill="black"/>
<path id="Vector_17" d="M160.636 10.034V9.77224C160.927 9.77224 161.102 9.74315 161.189 9.71407C161.218 9.68498 161.247 9.68498 161.276 9.62681C161.305 9.56864 161.334 9.42322 161.334 9.19054C161.363 8.84152 161.363 8.52158 161.363 8.25982V6.19478C161.363 5.81668 161.363 5.46766 161.363 5.11864C161.363 4.85688 161.334 4.71145 161.305 4.65328C161.276 4.59511 161.218 4.56603 161.16 4.53694C161.102 4.50786 160.898 4.50786 160.578 4.50786V4.24609L161.742 4.27517L162.963 4.24609H164.243C164.505 4.24609 164.766 4.27517 164.999 4.30426C164.941 4.44968 164.912 4.59511 164.912 4.71145C164.912 4.74053 164.883 5.03139 164.854 5.55492H164.592C164.592 5.29315 164.563 5.03139 164.534 4.79871C164.388 4.74054 164.214 4.68237 164.039 4.68237C163.748 4.65328 163.428 4.62419 163.138 4.62419C163.079 4.62419 162.934 4.6242 162.701 4.65328C162.469 4.65328 162.323 4.68237 162.207 4.68237C162.207 4.97322 162.178 5.26407 162.178 5.52583L162.149 6.89282C162.469 6.9219 162.76 6.92191 163.021 6.92191C163.341 6.92191 163.632 6.89283 163.836 6.86374C163.923 6.86374 163.981 6.83465 164.01 6.80557C164.039 6.77648 164.068 6.66014 164.068 6.48563L164.097 6.19478H164.33V6.28204L164.301 7.1255L164.33 8.0853H164.039V7.79446C164.039 7.59086 164.01 7.47452 163.981 7.41635C163.952 7.35818 163.894 7.3291 163.807 7.30002C163.661 7.27093 163.37 7.24184 162.905 7.24184C162.73 7.24184 162.469 7.24184 162.12 7.27093C162.12 7.53269 162.091 7.93988 162.091 8.49249C162.091 8.98694 162.091 9.36505 162.12 9.62681C162.498 9.6559 162.934 9.68498 163.428 9.68498C163.777 9.68498 164.01 9.68498 164.156 9.65589C164.301 9.62681 164.446 9.59772 164.563 9.53955C164.592 9.4523 164.621 9.33596 164.65 9.19054C164.708 8.95786 164.766 8.78334 164.766 8.63792H165.028C164.97 9.19053 164.912 9.62681 164.912 10.0049C164.679 10.034 164.388 10.0631 164.068 10.0631L161.654 10.034C161.683 10.0049 161.305 10.0049 160.636 10.034Z" fill="black"/>
<path id="Vector_18" d="M165.813 10.0342V9.83062C165.959 9.74337 166.104 9.65611 166.191 9.59794C166.191 9.42343 166.221 9.16167 166.221 8.84173C166.25 8.28912 166.25 7.91101 166.25 7.67834V6.02049C166.25 5.75872 166.25 5.43879 166.221 5.08977C166.191 4.8571 166.191 4.74076 166.162 4.68259C166.133 4.6535 166.104 4.62441 166.075 4.59533C165.988 4.56624 165.784 4.53716 165.522 4.53716V4.27539C165.93 4.27539 166.25 4.30448 166.57 4.30448H167.529C167.937 4.30448 168.256 4.27539 168.46 4.27539C169.129 4.27539 169.653 4.36265 170.06 4.53716C170.467 4.71167 170.816 5.00252 171.078 5.38062C171.369 5.78781 171.514 6.25317 171.514 6.83487C171.514 7.24206 171.456 7.62017 171.31 7.99827C171.165 8.34729 170.99 8.66722 170.758 8.92899C170.525 9.19075 170.292 9.42343 170.031 9.56886C169.769 9.71428 169.507 9.83063 169.216 9.91788C168.925 10.0051 168.547 10.0342 168.053 10.0342C167.878 10.0342 167.675 10.0342 167.384 10.0051C167.006 10.0051 166.773 9.97605 166.657 9.97605C166.511 10.0051 166.221 10.0051 165.813 10.0342ZM167.064 9.59794C167.355 9.65611 167.675 9.6852 167.995 9.6852C168.344 9.6852 168.635 9.65611 168.896 9.59794C169.158 9.53977 169.391 9.45252 169.565 9.33618C169.74 9.21984 169.943 9.07442 170.118 8.87082C170.292 8.66723 170.438 8.37637 170.525 8.05644C170.612 7.7365 170.671 7.38748 170.671 7.03846C170.671 6.54402 170.583 6.10774 170.409 5.72964C170.234 5.38062 169.972 5.08977 169.594 4.91526C169.216 4.71167 168.722 4.62441 168.111 4.62441C167.791 4.62441 167.442 4.6535 167.093 4.71167C167.093 4.85709 167.064 5.08978 167.064 5.40971L167.035 5.99141V7.62016V8.87082C167.035 9.04533 167.035 9.27801 167.064 9.59794Z" fill="black"/>
<path id="Vector_19" d="M130.417 17.2179L130.243 17.1598L130.155 16.3745L130.243 16.2872C130.941 16.0836 131.697 15.8219 132.511 15.4728C133.733 14.9493 134.489 14.6294 134.838 14.4258L135.1 14.513C134.983 17.4797 134.954 19.1957 134.954 19.632V23.2385C134.954 24.6928 134.983 25.7689 135.012 26.5251C135.042 26.9614 135.1 27.2232 135.187 27.3395C135.274 27.4558 135.42 27.5431 135.565 27.5722C135.74 27.6304 136.292 27.6594 137.252 27.7176V28.2993C135.594 28.2411 134.576 28.2411 134.169 28.2411C133.849 28.2411 132.744 28.2702 130.853 28.2993V27.7176C131.842 27.6594 132.424 27.6013 132.569 27.5722C132.715 27.5431 132.831 27.4849 132.918 27.3977C133.006 27.3395 133.035 27.2232 133.093 27.1068C133.151 26.9032 133.18 26.3215 133.238 25.3617C133.267 24.4019 133.296 23.6748 133.296 23.1803V19.3411C133.296 17.7706 133.296 16.7817 133.296 16.4036C133.296 16.229 133.267 16.1127 133.238 16.0836C133.209 16.0545 133.18 16.0545 133.122 16.0545C133.064 16.0545 132.918 16.1127 132.686 16.2C131.522 16.6944 130.795 17.0434 130.417 17.2179Z" fill="black"/>
<path id="Vector_20" d="M143.04 28.3286V27.7469C144.058 27.7178 144.639 27.6887 144.814 27.6597C144.988 27.6306 145.105 27.5724 145.192 27.4852C145.279 27.3688 145.337 27.1652 145.396 26.9035C145.454 26.4381 145.483 25.9146 145.483 25.4201V24.693H143.36C142.196 24.693 141.149 24.7221 140.218 24.7512L140.044 24.2276C140.538 23.2969 141.207 22.1335 142.051 20.7665C143.272 18.7887 144.494 16.8691 145.716 15.0077C145.803 14.9786 145.977 14.8914 146.239 14.775C146.733 14.5714 147.024 14.4551 147.083 14.4551L147.315 14.5714C147.257 15.3567 147.228 16.3165 147.228 17.4508C147.199 19.8649 147.17 21.1737 147.17 21.4064V23.4133C148.042 23.4133 148.769 23.3842 149.351 23.3551C149.322 23.675 149.322 23.9077 149.322 23.995L149.351 24.7221C148.682 24.6639 148.13 24.6639 147.664 24.6639H147.17V25.3329C147.17 26.409 147.228 27.078 147.315 27.3397C147.344 27.427 147.432 27.5142 147.548 27.5724C147.781 27.6887 148.391 27.7469 149.351 27.7469V28.3286C147.955 28.2704 146.879 28.2704 146.123 28.2704C145.308 28.2414 144.261 28.2704 143.04 28.3286ZM141.324 23.4423H145.483L145.57 16.5201C144.872 17.5381 144.058 18.7887 143.156 20.2721C142.254 21.7263 141.644 22.8025 141.324 23.4423Z" fill="black"/>
<path id="Vector_21" d="M152.376 17.2179L152.202 17.1598L152.114 16.3745L152.202 16.2872C152.9 16.0836 153.656 15.8219 154.47 15.4728C155.663 14.9493 156.448 14.6294 156.797 14.4258L157.059 14.513C156.942 17.4797 156.913 19.1957 156.913 19.632V23.2385C156.913 24.6928 156.942 25.7689 156.971 26.5251C157.001 26.9614 157.03 27.2232 157.146 27.3395C157.233 27.4558 157.379 27.5431 157.524 27.5722C157.699 27.6304 158.251 27.6594 159.211 27.7176V28.2993C157.553 28.2411 156.535 28.2411 156.128 28.2411C155.808 28.2411 154.732 28.2702 152.841 28.2993V27.7176C153.83 27.6594 154.412 27.6013 154.557 27.5722C154.703 27.5431 154.819 27.4849 154.906 27.3977C154.994 27.3395 155.052 27.2232 155.081 27.1068C155.139 26.9032 155.168 26.3215 155.226 25.3617C155.255 24.4019 155.285 23.6748 155.285 23.1803V19.3411C155.285 17.7706 155.285 16.7817 155.285 16.4036C155.285 16.229 155.255 16.1127 155.226 16.0836C155.197 16.0545 155.168 16.0545 155.11 16.0545C155.052 16.0545 154.906 16.1127 154.674 16.2C153.452 16.6944 152.725 17.0434 152.376 17.2179Z" fill="black"/>
<path id="Vector_22" d="M162.875 28.0091C162.788 27.4565 162.701 27.0202 162.643 26.7294C162.614 26.5548 162.439 26.0022 162.207 25.1297L162.73 24.9261C163.137 26.0022 163.603 26.7584 164.126 27.1365C164.65 27.5146 165.348 27.7182 166.191 27.7182C166.802 27.7182 167.355 27.6019 167.762 27.3401C168.198 27.1075 168.518 26.7003 168.809 26.1767C169.071 25.6241 169.216 25.0424 169.216 24.3444C169.216 23.4428 168.983 22.7447 168.518 22.2794C168.053 21.7849 167.442 21.5522 166.657 21.5522C166.395 21.5522 166.162 21.5813 165.929 21.6395C165.697 21.6977 165.377 21.814 164.941 21.9885L164.824 21.9013L165.028 20.8542C165.551 20.8833 165.9 20.9124 166.075 20.9124C166.86 20.9124 167.471 20.6215 167.907 20.0689C168.343 19.5163 168.547 18.8764 168.547 18.1784C168.547 17.5385 168.314 17.015 167.849 16.5787C167.384 16.1424 166.802 15.9097 166.104 15.9097C165.697 15.9097 165.29 15.997 164.882 16.1715C164.504 16.346 164.155 16.5787 163.864 16.8405C163.748 17.0731 163.574 17.5676 163.312 18.2365H162.701L163.312 15.9097C163.748 15.4444 164.155 15.1245 164.533 14.9499C165.173 14.6591 165.842 14.5137 166.598 14.5137C167.704 14.5137 168.576 14.8045 169.216 15.3862C169.856 15.9679 170.176 16.666 170.176 17.4803C170.176 18.033 170.001 18.5856 169.681 19.1382C169.361 19.6908 168.78 20.2434 167.994 20.796C168.722 20.8833 169.303 21.0578 169.74 21.2905C170.176 21.5231 170.496 21.8722 170.728 22.3084C170.961 22.7447 171.077 23.2392 171.077 23.7627C171.077 24.548 170.845 25.3042 170.35 26.0313C169.856 26.7875 169.187 27.3983 168.285 27.8928C167.413 28.3872 166.453 28.6199 165.406 28.6199C164.941 28.6199 164.533 28.5908 164.155 28.5035C163.777 28.3872 163.37 28.2418 162.875 28.0091Z" fill="black"/>
<path id="Vector_23" d="M32.7788 1.94918V1.54199C33.4768 1.57108 34.1458 1.57108 34.7275 1.57108C35.3383 1.57108 35.9491 1.54199 36.5599 1.54199V1.94918C36.0654 1.94918 35.7455 1.97827 35.6291 2.00735C35.5128 2.03644 35.4546 2.09461 35.3965 2.15278C35.3383 2.24003 35.3092 2.44363 35.2801 2.79265C35.2801 2.87991 35.251 3.49069 35.251 4.625V7.00997C35.251 7.94069 35.3092 8.55147 35.4255 8.84232C35.5419 9.13317 35.7164 9.39493 35.9782 9.56944C36.1817 9.71487 36.4435 9.83121 36.7925 9.91847C37.1416 10.0057 37.4906 10.0639 37.9268 10.0639C38.4213 10.0639 38.8285 10.0057 39.2066 9.88938C39.5847 9.77304 39.8755 9.62762 40.05 9.45311C40.2246 9.2786 40.37 9.10409 40.4572 8.87141C40.5445 8.66781 40.6027 8.37696 40.6608 7.99886C40.6899 7.62075 40.719 7.15539 40.719 6.60277V4.625C40.719 4.0433 40.719 3.4616 40.6899 2.90899C40.6899 2.5018 40.6608 2.26912 40.6027 2.18186C40.5445 2.09461 40.4863 2.03644 40.37 2.00735C40.2536 1.97827 39.9628 1.94918 39.4393 1.94918V1.54199C40.1373 1.57108 40.6608 1.57108 40.9808 1.57108C41.2716 1.57108 41.8242 1.54199 42.5804 1.54199V1.94918C42.0569 1.94918 41.7661 1.97827 41.6497 2.00735C41.5334 2.03644 41.4752 2.09461 41.417 2.15278C41.3589 2.24003 41.3298 2.44363 41.3298 2.79265C41.3298 2.87991 41.3298 3.49069 41.3007 4.625V6.77729C41.3007 7.85343 41.2134 8.58056 41.068 9.01683C40.9226 9.42402 40.6608 9.80212 40.2536 10.1221C39.9628 10.3547 39.5847 10.5583 39.1193 10.6747C38.654 10.8201 38.1304 10.8783 37.5778 10.8783C36.9089 10.8783 36.3272 10.791 35.8618 10.6456C35.3674 10.5002 35.0184 10.2966 34.7566 10.0348C34.4948 9.77304 34.3203 9.51127 34.2331 9.24951C34.1167 8.90049 34.0585 8.31879 34.0585 7.47532V4.625C34.0585 4.0433 34.0585 3.4616 34.0295 2.90899C34.0295 2.5018 34.0004 2.26912 33.9422 2.18186C33.884 2.09461 33.8259 2.03644 33.7095 2.00735C33.6223 1.97827 33.3023 1.94918 32.7788 1.94918Z" fill="black"/>
<path id="Vector_24" d="M43.0457 10.7033V10.3252H43.6565C43.7437 10.3252 43.831 10.2961 43.8601 10.267C43.9182 10.2379 43.9473 10.2088 43.9764 10.1506C44.0346 10.0634 44.0637 9.91796 44.0637 9.68528C44.0637 9.62711 44.0637 9.01633 44.0927 7.82384V7.03855C44.0927 6.68953 44.0927 6.31142 44.0637 5.93332C44.0637 5.67156 44.0346 5.52613 44.0055 5.46796C43.9764 5.40979 43.9182 5.38071 43.8601 5.35162C43.8019 5.32254 43.511 5.32253 43.0166 5.32253V4.94443C43.8892 4.82809 44.529 4.65358 44.9362 4.47907C45.0235 4.44999 45.0816 4.4209 45.1107 4.4209C45.1398 4.4209 45.1689 4.4209 45.1689 4.44999C45.198 4.47907 45.198 4.50816 45.198 4.53725V4.65358C45.198 4.79901 45.1689 5.14803 45.1689 5.64247L46.3614 4.6245C46.7104 4.50816 47.0594 4.4209 47.3503 4.4209C47.6993 4.4209 48.0192 4.47907 48.3392 4.6245C48.6591 4.76992 48.8918 4.94443 49.0372 5.14802C49.1826 5.35162 49.299 5.64247 49.3571 5.96241C49.3862 6.166 49.4153 6.68953 49.4153 7.59117V8.72548C49.4153 9.27809 49.4444 9.6562 49.4444 9.85979C49.4735 9.97613 49.5026 10.0925 49.5316 10.1216C49.5898 10.1797 49.648 10.2088 49.7352 10.2088L50.4333 10.2379V10.616C50.0261 10.5869 49.648 10.5578 49.3862 10.5578C49.1535 10.5578 48.7463 10.5869 48.1937 10.616C48.2519 9.53986 48.281 8.87091 48.281 8.60914V7.53299C48.281 6.86404 48.2519 6.42776 48.1937 6.19508C48.1065 5.90423 47.961 5.67156 47.6993 5.49705C47.4375 5.32254 47.1176 5.23528 46.7686 5.23528C46.4486 5.23528 46.1578 5.32253 45.896 5.46796C45.6343 5.61338 45.4307 5.7879 45.3143 5.99149C45.198 6.19509 45.1398 6.51502 45.1398 7.00947V7.79476C45.1689 8.89998 45.1689 9.51077 45.1689 9.59803C45.1689 9.80162 45.198 9.97613 45.2561 10.0634C45.2852 10.0925 45.2852 10.1506 45.3434 10.1506C45.3725 10.1797 45.4307 10.2088 45.5179 10.2088C45.547 10.2088 45.7797 10.2088 46.245 10.2379V10.616C45.7215 10.5869 45.2561 10.5578 44.8199 10.5578C44.4709 10.6451 43.8892 10.6742 43.0457 10.7033Z" fill="black"/>
<path id="Vector_25" d="M50.8699 5.38066V5.00255C51.7134 4.91529 52.4114 4.74078 52.964 4.44993L53.1094 4.53719C53.0804 5.46791 53.0513 6.16595 53.0513 6.63131V7.7947C53.0804 8.89993 53.0804 9.51072 53.0804 9.59798C53.0804 9.80157 53.1094 9.97608 53.1385 10.0633C53.1676 10.0924 53.1967 10.1506 53.2258 10.1506C53.2549 10.1797 53.313 10.2088 53.3712 10.2088C53.4003 10.2088 53.633 10.2088 54.0983 10.2378V10.6159C53.4294 10.5869 52.9349 10.5578 52.5277 10.5578C52.1787 10.5578 51.6261 10.5869 50.8408 10.6159V10.2378H51.4516C51.5389 10.2378 51.6261 10.2088 51.6552 10.1797C51.7134 10.1506 51.7425 10.1215 51.7715 10.0633C51.8297 9.97608 51.8588 9.83066 51.8588 9.59798C51.8588 9.53981 51.8588 8.92902 51.8879 7.73654V6.60222C51.8879 5.96235 51.8588 5.58425 51.8297 5.46791C51.8006 5.40974 51.7425 5.35157 51.6843 5.32248C51.6552 5.40974 51.3643 5.38066 50.8699 5.38066ZM52.4405 1.59961C52.6441 1.59961 52.8186 1.65777 52.964 1.8032C53.1094 1.94862 53.1676 2.12314 53.1676 2.32673C53.1676 2.53033 53.1094 2.70483 52.964 2.85026C52.8186 2.99568 52.6441 3.05386 52.4405 3.05386C52.2369 3.05386 52.0624 2.99568 51.917 2.85026C51.7715 2.70483 51.7134 2.53033 51.7134 2.32673C51.7134 2.12314 51.7715 1.94862 51.917 1.8032C52.0624 1.68686 52.2369 1.59961 52.4405 1.59961Z" fill="black"/>
<path id="Vector_26" d="M57.7046 10.761C57.5301 10.3247 57.4137 10.0338 57.3556 9.8884L56.832 8.66683L55.5232 5.58382C55.436 5.38023 55.3487 5.26389 55.2905 5.20572C55.2324 5.14755 55.1742 5.08938 55.0869 5.08938C55.0288 5.0603 54.8543 5.0603 54.6216 5.0603V4.62402C55.3487 4.65311 55.8431 4.6822 56.1922 4.6822C56.5412 4.6822 57.0356 4.65311 57.6755 4.62402V5.00212C57.2101 5.00212 56.9484 5.03121 56.8611 5.08938C56.7739 5.14755 56.7448 5.20572 56.7448 5.29297C56.7448 5.40931 56.832 5.70017 57.0065 6.13645L57.7918 8.08513L57.9664 8.52141C58.1699 9.04494 58.3154 9.36487 58.4026 9.53938L59.0425 8.08513C59.0716 7.99788 59.2752 7.50343 59.6242 6.63088C59.8278 6.10736 59.9732 5.72925 60.0314 5.46749C60.0605 5.38023 60.0605 5.32207 60.0605 5.2639C60.0605 5.17664 60.0314 5.14756 59.9732 5.11847C59.8569 5.0603 59.5951 5.03121 59.1588 5.00212V4.62402C59.7987 4.65311 60.2059 4.6822 60.3804 4.6822C60.5258 4.6822 60.933 4.65311 61.602 4.62402V5.00212C61.3402 5.00212 61.1657 5.03121 61.0784 5.08938C60.9912 5.14755 60.9039 5.23481 60.8167 5.40932C60.7585 5.52566 60.5258 5.99102 60.1186 6.8054L59.5079 8.11422C59.3915 8.3469 59.0425 9.21945 58.4026 10.7319L57.7046 10.761Z" fill="black"/>
<path id="Vector_27" d="M67.5933 9.68493L67.3897 10.1503C67.0989 10.3248 66.8662 10.4702 66.7499 10.5284C66.5463 10.6157 66.3136 10.7029 66.0518 10.7611C65.7901 10.8193 65.5283 10.8483 65.2375 10.8483C64.6558 10.8483 64.1613 10.732 63.6959 10.4993C63.2306 10.2666 62.8816 9.91762 62.6198 9.45226C62.358 8.9869 62.2417 8.43428 62.2417 7.79441C62.2417 7.29997 62.2999 6.86369 62.4453 6.4565C62.5907 6.04931 62.7361 5.75846 62.9107 5.58395C63.027 5.43853 63.2306 5.29311 63.4924 5.1186C63.7541 4.94409 64.0159 4.79866 64.2776 4.7114C64.6267 4.56598 64.9757 4.50781 65.3829 4.50781C65.8773 4.50781 66.3136 4.62415 66.6917 4.82775C67.0698 5.06043 67.3607 5.35127 67.5352 5.72938C67.7097 6.10748 67.7969 6.54376 67.7969 7.00912C67.7969 7.12546 67.7969 7.27089 67.7678 7.4454C67.4479 7.50357 67.1861 7.53265 66.9244 7.56173C66.459 7.59082 65.9937 7.6199 65.5283 7.6199H63.4633C63.4633 8.23068 63.5796 8.72513 63.7832 9.10323C63.9868 9.48134 64.2776 9.77219 64.6267 9.9467C64.9757 10.1212 65.3538 10.2085 65.7319 10.2085C65.9937 10.2085 66.2554 10.1794 66.5172 10.0921C66.779 10.0049 67.0989 9.85945 67.477 9.62677L67.5933 9.68493ZM63.4633 7.06729C63.5796 7.06729 63.8123 7.09637 64.1322 7.09637C64.7721 7.12546 65.2084 7.12546 65.4701 7.12546C66.0518 7.12546 66.4299 7.12546 66.6044 7.09637C66.6044 6.98003 66.6044 6.92187 66.6044 6.8637C66.6044 6.19474 66.459 5.67121 66.1973 5.38036C65.9355 5.06043 65.5574 4.915 65.092 4.915C64.5976 4.915 64.2195 5.08951 63.9286 5.43853C63.6087 5.75846 63.4633 6.31108 63.4633 7.06729Z" fill="black"/>
<path id="Vector_28" d="M68.5244 10.7037V10.3256C69.0189 10.3256 69.2806 10.2965 69.3097 10.2965C69.397 10.2965 69.426 10.2674 69.4842 10.2383C69.5133 10.2092 69.5424 10.1801 69.5715 10.122C69.6006 10.0347 69.6296 9.86021 69.6587 9.65661C69.6878 8.5223 69.6878 7.91152 69.6878 7.85335V7.09714C69.6878 6.74812 69.6878 6.37002 69.6587 5.99191C69.6587 5.73015 69.6296 5.58472 69.6006 5.52655C69.5715 5.46838 69.5133 5.4393 69.4551 5.41021C69.3679 5.38113 69.1061 5.38113 68.6117 5.38113V5.00302C69.4842 4.88668 70.1241 4.71218 70.5022 4.53767C70.5894 4.50858 70.6476 4.47949 70.6767 4.47949C70.7058 4.47949 70.7349 4.47949 70.7349 4.50858C70.764 4.53766 70.764 4.56675 70.764 4.59583V4.71217C70.7349 4.97393 70.7349 5.38113 70.7349 5.93374C70.9385 5.70106 71.113 5.49747 71.2584 5.26479C71.4329 5.03211 71.5492 4.91577 71.6074 4.82852C71.7238 4.71218 71.8983 4.62491 72.0437 4.56674C72.2182 4.50857 72.3927 4.47949 72.5672 4.47949C72.7417 4.47949 72.9162 4.50858 73.0908 4.59583L73.1198 4.68309C73.0617 5.26479 73.0326 5.75923 73.0035 6.1955H72.7126C72.6254 5.99191 72.5091 5.84648 72.3636 5.73014C72.2473 5.64289 72.0728 5.58472 71.8692 5.58472C71.5493 5.58472 71.2584 5.73015 71.0257 5.99191C70.793 6.25368 70.6767 6.68995 70.6767 7.21348V7.88244C70.6767 8.17329 70.6767 8.69681 70.7058 9.42394C70.7058 9.6857 70.7349 9.86021 70.7349 9.94746C70.764 10.0347 70.764 10.0638 70.793 10.0929C70.8221 10.122 70.8803 10.1511 70.9385 10.1801C71.0548 10.2092 71.4038 10.2674 71.9855 10.2965V10.6746C71.2293 10.6455 70.5894 10.6164 70.0368 10.6164C69.5715 10.6455 69.0479 10.6746 68.5244 10.7037Z" fill="black"/>
<path id="Vector_29" d="M74.0215 8.75422H74.3996C74.3996 9.01598 74.4287 9.19049 74.4287 9.33592C74.4577 9.48134 74.4868 9.62677 74.545 9.77219C74.6032 9.91762 74.6904 10.034 74.7777 10.1212C74.894 10.2085 75.0104 10.2957 75.1267 10.3539C75.243 10.4121 75.3885 10.4411 75.5048 10.4702C75.6211 10.4993 75.8247 10.4993 76.1156 10.4993C76.5519 10.4993 76.9009 10.383 77.1917 10.1503C77.4826 9.91761 77.628 9.59768 77.628 9.19049C77.628 9.01598 77.5698 8.84147 77.4826 8.72513C77.3953 8.57971 77.279 8.49245 77.1045 8.4052C76.93 8.31794 76.5809 8.23069 76.0283 8.11435C75.4757 7.99801 75.1267 7.91075 74.9813 7.85258C74.7486 7.76533 74.545 7.64899 74.3996 7.53265C74.2541 7.41631 74.1378 7.24179 74.0506 7.0382C73.9633 6.8346 73.9342 6.63102 73.9342 6.39834C73.9342 6.04932 74.0215 5.75846 74.196 5.46761C74.3705 5.17676 74.6613 4.94409 75.0394 4.76958C75.4175 4.59507 75.8247 4.50781 76.2901 4.50781C76.5519 4.50781 76.8718 4.5369 77.2208 4.62415C77.5698 4.71141 77.8607 4.79866 78.0934 4.915C78.0643 5.38036 78.0352 5.8748 78.0352 6.36925H77.6862C77.6571 6.04931 77.628 5.84572 77.5989 5.75846C77.5698 5.67121 77.5407 5.58395 77.4826 5.4967C77.4244 5.40944 77.3662 5.32219 77.2208 5.23494C77.1045 5.14768 76.959 5.06042 76.7845 5.00225C76.61 4.94408 76.3774 4.88591 76.1156 4.88591C75.7375 4.88591 75.4175 5.00226 75.1849 5.23494C74.9522 5.46762 74.8358 5.72938 74.8358 6.02023C74.8358 6.19474 74.8649 6.34016 74.9231 6.4565C74.9813 6.57284 75.0685 6.68918 75.1849 6.74735C75.3012 6.8346 75.4466 6.89278 75.6502 6.95095L76.7264 7.21271C77.279 7.35814 77.6571 7.47448 77.8607 7.56173C78.0643 7.64899 78.2388 7.8235 78.3551 8.0271C78.4715 8.23069 78.5296 8.49245 78.5296 8.7833C78.5296 9.365 78.297 9.85945 77.8025 10.2957C77.3081 10.732 76.6682 10.9356 75.8829 10.9356C75.5048 10.9356 75.0104 10.8774 74.3996 10.7611C74.0506 10.7029 73.876 10.6447 73.847 10.6157C73.8179 10.5866 73.8179 10.5866 73.8179 10.5575C73.8179 10.5284 73.8179 10.4993 73.8179 10.4411C73.847 10.2666 73.876 10.063 73.9051 9.88853C74.0215 9.68494 74.0215 9.30683 74.0215 8.75422Z" fill="black"/>
<path id="Vector_30" d="M79.344 5.38066V5.00255C80.1875 4.91529 80.8855 4.74078 81.4381 4.44993L81.5836 4.53719C81.5545 5.46791 81.5254 6.16595 81.5254 6.63131V7.7947C81.5545 8.89993 81.5545 9.51072 81.5545 9.59798C81.5545 9.80157 81.5836 9.97608 81.6127 10.0633C81.6417 10.0924 81.6708 10.1506 81.6999 10.1506C81.729 10.1797 81.7872 10.2088 81.8453 10.2088C81.8744 10.2088 82.1071 10.2088 82.5725 10.2378V10.6159C81.9035 10.5869 81.4091 10.5578 81.0019 10.5578C80.6528 10.5578 80.1002 10.5869 79.3149 10.6159V10.2378H79.9257C80.013 10.2378 80.1002 10.2088 80.1293 10.1797C80.1875 10.1506 80.2166 10.1215 80.2457 10.0633C80.3038 9.97608 80.3329 9.83066 80.3329 9.59798C80.3329 9.53981 80.3329 8.92902 80.362 7.73654V6.60222C80.362 5.96235 80.3329 5.58425 80.3038 5.46791C80.2747 5.40974 80.2457 5.35157 80.1584 5.32248C80.1293 5.40974 79.8385 5.38066 79.344 5.38066ZM80.9146 1.59961C81.1182 1.59961 81.2927 1.65777 81.4381 1.8032C81.5836 1.94862 81.6417 2.12314 81.6417 2.32673C81.6417 2.53033 81.5836 2.70483 81.4381 2.85026C81.2927 2.99568 81.1182 3.05386 80.9146 3.05386C80.711 3.05386 80.5365 2.99568 80.3911 2.85026C80.2457 2.70483 80.1875 2.53033 80.1875 2.32673C80.1875 2.12314 80.2457 1.94862 80.3911 1.8032C80.5365 1.68686 80.711 1.59961 80.9146 1.59961Z" fill="black"/>
<path id="Vector_31" d="M83.1831 5.64215V5.38039C83.5903 5.20588 83.9393 5.06045 84.172 4.94411C84.172 3.92614 84.172 3.25718 84.172 2.99542C84.6083 2.84999 84.9864 2.67549 85.2481 2.50098L85.3936 2.61731C85.3354 2.96633 85.3063 3.75163 85.2481 4.9732H85.8589H86.5279C86.7606 4.9732 86.906 4.9732 87.0223 4.94411L87.0514 5.00228L86.906 5.61306C86.6442 5.61306 86.3825 5.61306 86.1498 5.61306C85.9171 5.61306 85.5972 5.61306 85.19 5.61306L85.1609 8.23071V9.36502C85.19 9.48136 85.2191 9.5977 85.2772 9.68496C85.3354 9.77221 85.4226 9.85947 85.5099 9.91764C85.5972 9.97581 85.7717 10.0049 86.0044 10.034C86.1789 10.034 86.3243 10.034 86.4406 10.0049C86.557 9.97581 86.6733 9.94673 86.8478 9.88856L86.9351 10.1503C86.7315 10.3248 86.5279 10.4703 86.3534 10.6448C86.1789 10.7029 86.0334 10.732 85.888 10.7611C85.7426 10.7902 85.5972 10.7902 85.3936 10.7902C85.1609 10.7902 84.9864 10.7611 84.841 10.7029C84.6955 10.6448 84.5792 10.5866 84.4628 10.4993C84.3465 10.4121 84.2592 10.2957 84.172 10.1503C84.0847 10.0049 84.0557 9.77222 84.0266 9.48137C84.0266 9.19052 84.0266 8.87058 84.0557 8.52156C84.0557 8.46339 84.0557 8.37614 84.0557 8.28888V5.61306H83.7939C83.7066 5.61306 83.4449 5.61306 83.1831 5.64215Z" fill="black"/>
<path id="Vector_32" d="M87.4873 14.1639L87.8073 13.175H87.9527C88.04 13.2332 88.0981 13.2913 88.1563 13.3495C88.2145 13.3786 88.2727 13.4077 88.3308 13.4368C88.389 13.4658 88.5053 13.4659 88.6217 13.4659C88.7671 13.4659 88.8834 13.4368 88.9998 13.3786C89.1161 13.3204 89.2325 13.2332 89.3488 13.1168C89.4651 13.0005 89.5815 12.7678 89.7269 12.477C89.9596 12.0116 90.1632 11.5462 90.3377 11.0809C90.1923 10.7028 90.0468 10.2665 89.8432 9.77207L88.8253 7.24167C88.5053 6.48546 88.2726 5.90376 88.069 5.49657C87.9818 5.35115 87.9236 5.23481 87.8073 5.17664C87.72 5.11847 87.5164 5.08938 87.2256 5.03121V4.62402C87.7491 4.65311 88.3017 4.6822 88.7962 4.6822C89.2906 4.6822 89.7851 4.65311 90.2504 4.62402V5.00212C89.8141 5.03121 89.5524 5.0603 89.4942 5.08938C89.3779 5.11847 89.3197 5.20572 89.3197 5.32206C89.3197 5.38023 89.3488 5.52565 89.436 5.72925C89.6106 6.25278 89.756 6.71814 89.9014 7.09625L90.3086 8.11422C90.5413 8.725 90.774 9.21945 90.9194 9.56847L91.2684 8.81226C91.4138 8.52141 91.6465 7.93971 91.9664 7.09625C92.3155 6.25278 92.49 5.72925 92.5481 5.52566C92.5772 5.46749 92.5772 5.40932 92.5772 5.35115C92.5772 5.26389 92.5481 5.20572 92.49 5.14755C92.4318 5.08938 92.17 5.06029 91.7047 5.00212V4.62402C92.1991 4.65311 92.6354 4.6822 93.0426 4.6822C93.4207 4.6822 93.7988 4.65311 94.1769 4.62402L94.1187 5.00212C93.886 5.00212 93.7406 5.06029 93.5952 5.14755C93.4789 5.2348 93.3043 5.52565 93.0426 6.0201C92.8099 6.51454 92.3445 7.47435 91.6756 8.9286L90.1923 12.4188C89.9596 12.9714 89.756 13.3786 89.5815 13.6404C89.407 13.873 89.2034 14.0766 88.9416 14.193C88.7089 14.3093 88.4181 14.3675 88.1272 14.3675C87.9818 14.3675 87.8655 14.3384 87.7491 14.3093C87.7491 14.2802 87.6328 14.2221 87.4873 14.1639Z" fill="black"/>
<path id="Vector_33" d="M98.3076 7.73701C98.3076 6.77721 98.6276 5.99191 99.2383 5.38113C99.8491 4.77034 100.634 4.47949 101.594 4.47949C102.496 4.47949 103.223 4.77034 103.805 5.32295C104.386 5.90465 104.648 6.63178 104.648 7.53341C104.648 8.17328 104.503 8.7259 104.212 9.24943C103.921 9.77295 103.514 10.1801 102.961 10.471C102.409 10.7618 101.827 10.9073 101.187 10.9073C100.693 10.9073 100.256 10.82 99.9073 10.6455C99.5583 10.471 99.2674 10.2674 99.0638 10.0056C98.8602 9.74387 98.6857 9.4821 98.5694 9.22034C98.3949 8.75498 98.3076 8.26054 98.3076 7.73701ZM99.5001 7.24256C99.5001 7.76609 99.5874 8.31871 99.7619 8.87132C99.9364 9.42394 100.198 9.83113 100.518 10.0638C100.838 10.3256 101.216 10.4419 101.594 10.4419C102.089 10.4419 102.525 10.2383 102.845 9.86021C103.194 9.45302 103.339 8.84224 103.339 8.02786C103.339 7.32982 103.252 6.74812 103.048 6.25368C102.845 5.75923 102.583 5.41021 102.292 5.20662C101.972 5.00302 101.652 4.88668 101.274 4.88668C100.751 4.88668 100.314 5.09027 99.9945 5.46838C99.6746 5.84648 99.5001 6.42819 99.5001 7.24256Z" fill="black"/>
<path id="Vector_34" d="M105.549 5.64252V5.38075C105.898 5.23533 106.189 5.0899 106.451 4.94448V4.56637C106.451 4.01375 106.48 3.60657 106.567 3.37389C106.625 3.14121 106.742 2.93762 106.858 2.76311C107.061 2.50134 107.352 2.15232 107.789 1.74513C108.079 1.48337 108.283 1.30885 108.399 1.2216C108.574 1.13434 108.777 1.07617 109.01 1.07617C109.185 1.07617 109.359 1.10526 109.534 1.16343L109.563 2.23957L109.417 2.29774C109.272 2.1814 109.156 2.09415 109.01 2.06507C108.865 2.0069 108.719 1.97781 108.545 1.97781C108.312 1.97781 108.109 2.03598 107.963 2.12323C107.818 2.21049 107.701 2.35591 107.643 2.53042C107.585 2.70493 107.556 3.05395 107.556 3.60657V4.94448H108.225C108.574 4.94448 108.894 4.91539 109.243 4.8863L109.301 4.91539L109.185 5.58434C108.807 5.55526 108.545 5.55526 108.37 5.55526C108.196 5.55526 107.905 5.55526 107.556 5.58434V7.88206C107.556 8.17291 107.556 8.66735 107.585 9.42356C107.585 9.68533 107.614 9.85983 107.614 9.94709C107.643 10.0343 107.643 10.0634 107.672 10.0925C107.701 10.1216 107.759 10.1507 107.818 10.1798C107.934 10.2089 108.283 10.267 108.865 10.2961V10.6742C107.876 10.6451 107.236 10.616 107.032 10.616C106.829 10.616 106.276 10.6451 105.375 10.6742V10.2961H105.985C106.073 10.2961 106.16 10.267 106.189 10.2379C106.247 10.2089 106.276 10.1798 106.305 10.1216C106.363 10.0343 106.392 9.88892 106.392 9.65624C106.392 9.59807 106.392 8.98728 106.422 7.7948V5.52618L105.549 5.64252Z" fill="black"/>
<path id="Vector_35" d="M1.51238 0.814243C1.4833 1.57045 1.33787 5.58418 1.33787 5.58418C1.22153 8.37633 1.13428 10.8195 1.13428 13.0008C1.13428 22.5989 2.99571 26.9907 13.6699 32.1678C24.3732 26.9907 26.2055 22.5989 26.2055 13.0008C26.2055 10.8195 26.1183 8.34726 26.0019 5.5551C26.0019 5.5551 25.8565 1.54137 25.8274 0.785156C25.8565 0.814241 1.51238 0.814243 1.51238 0.814243Z" fill="white"/>
<path id="Vector_36" d="M25.1002 1.62891H2.29762L2.06494 7.99851H25.3911L25.1002 1.62891ZM14.4551 7.56224L14.4261 7.50406C14.4261 7.50406 14.6006 7.41681 14.8332 7.30047C15.2695 7.03871 15.6476 6.45701 15.6476 5.93348C15.6476 5.00276 14.7751 4.21747 13.6698 4.21747C12.5646 4.21747 11.663 4.97367 11.663 5.93348C11.663 6.45701 12.0411 7.03871 12.4774 7.30047C12.71 7.4459 12.8846 7.50406 12.8846 7.50406L12.8555 7.56224C12.8555 7.56224 12.6519 7.50406 12.4483 7.35864C11.6921 6.89328 11.2558 6.10799 11.2558 5.40995C11.2558 4.21747 12.361 3.25766 13.6698 3.25766C14.9787 3.25766 16.0839 4.21747 16.0839 5.40995C16.0839 6.10799 15.6767 6.86419 14.8914 7.35864C14.6587 7.50406 14.4551 7.56224 14.4551 7.56224ZM15.0078 7.4459V7.38773C15.7058 6.92237 16.1712 6.16616 16.1712 5.40995C16.1712 4.1593 15.0368 3.14132 13.6408 3.14132C12.2738 3.14132 11.1104 4.1593 11.1104 5.40995C11.1104 6.13708 11.5757 6.92237 12.2738 7.38773L12.2447 7.4459C11.1976 6.95146 10.4414 5.99165 10.4414 4.94459C10.4414 3.46126 11.9247 2.23968 13.6408 2.23968C15.3568 2.23968 16.811 3.46126 16.811 4.94459C16.8401 5.99165 16.0839 6.98054 15.0078 7.4459Z" fill="#EE3124"/>
<path id="Vector_37" d="M16.6077 8.69629V12.2737C16.5786 12.3028 16.3168 12.5064 15.8806 12.5064C15.4443 12.5064 14.8917 12.3028 14.4263 12.3028C14.1355 12.3028 13.9028 12.4192 13.6992 12.6228H13.5828C13.5828 12.6228 13.292 12.3028 12.8557 12.3028C12.3904 12.3028 11.8377 12.5064 11.4015 12.5064C10.9652 12.5064 10.7325 12.2737 10.6743 12.2447V8.69629C10.5871 8.8708 10.3835 9.07439 10.209 9.07439V12.5937C10.3835 12.7391 10.6162 12.7973 10.8489 12.7973C11.4306 12.8264 12.1286 12.5355 12.7394 12.5355C13.0593 12.5355 13.3792 12.6228 13.6119 12.8845C13.8446 12.6228 14.1355 12.5355 14.4845 12.5355C15.0953 12.5355 15.7933 12.7973 16.375 12.7973C16.6077 12.7973 16.8404 12.7391 17.0149 12.5937V9.07439C16.8985 9.07439 16.6658 8.8708 16.6077 8.69629Z" fill="#EE3124"/>
<path id="Vector_38" d="M22.5119 23.3554C22.4537 23.1228 22.2501 22.9482 22.0465 22.9192C22.0756 22.9482 22.1338 23.0064 22.1629 23.0355C22.3665 23.2682 22.2501 23.8208 22.0174 23.9371C22.1047 23.6172 21.872 23.3554 21.523 23.4427C21.6393 23.5299 21.7266 23.7335 21.6684 23.908C21.6103 24.0826 21.4067 24.2571 21.2031 24.228C20.9122 24.1698 21.0867 23.7917 21.0576 23.559C21.0576 23.2391 20.825 23.0646 20.6795 23.0064C20.6504 23.0064 20.6795 22.9773 20.6795 22.9773C20.7959 23.0064 20.8831 23.0646 21.0576 23.0355C21.2612 23.0355 21.4357 22.9192 21.4939 22.8319C21.5812 22.7156 21.6103 22.5411 21.5521 22.4247C21.523 22.4829 21.4648 22.541 21.4067 22.5992C21.2903 22.7156 21.0576 22.7156 20.8831 22.6283C20.7086 22.5411 20.5341 22.3665 20.4178 22.192C19.9524 21.5812 19.4289 20.9414 18.8472 20.5924C18.4982 20.3597 18.0328 20.1852 17.5965 20.1561C17.3348 20.1561 17.073 20.2143 16.8403 20.3597C16.5204 20.5633 16.3459 20.8832 16.3168 21.2031C16.2586 21.5812 16.404 21.9594 16.6367 22.2502C16.9567 22.6574 17.3638 22.9192 17.771 23.1809C18.0619 23.3845 18.3818 23.5881 18.6436 23.8208C18.8763 23.9953 19.0508 24.1989 19.1089 24.4897C19.1671 24.7515 19.0508 24.926 18.9635 25.0424C18.7599 25.1878 18.2655 25.1878 18.091 25.0133C17.9746 24.1116 17.3348 23.7045 16.5204 23.5009C16.1423 23.4136 15.706 23.2973 15.3861 23.1228C15.0952 22.9773 14.8335 22.8028 14.688 22.4247C14.6299 22.4247 14.5135 22.4247 14.3972 22.3665C14.1645 22.2793 14.0772 22.1048 14.0191 21.9884C14.1645 22.1339 14.2808 22.2211 14.6589 22.2502C14.8916 22.2502 15.1825 22.1339 15.2697 21.9594C15.0371 21.9884 14.8625 21.9884 14.7462 21.9012C14.6299 21.8139 14.4844 21.6394 14.5135 21.4649C14.7171 21.6976 15.1243 21.7848 15.5024 21.5812C15.5606 21.5522 15.706 21.4358 15.7351 21.3777C15.5315 21.4067 15.357 21.3777 15.2406 21.2613C15.1243 21.1741 15.0371 21.0286 15.0371 20.825C15.1534 20.9414 15.3861 21.0286 15.6187 20.9995C15.8514 20.9705 16.055 20.9123 16.1132 20.7087C15.9387 20.7378 15.7933 20.7087 15.6478 20.6214C15.5315 20.5342 15.4442 20.4178 15.4152 20.2724C15.2116 20.2433 15.0371 20.1561 14.9207 20.0397C14.8044 20.2143 14.7462 20.6214 14.7753 20.8832C14.4263 20.8832 14.1354 20.6214 14.0772 20.3015C13.9318 20.476 13.9027 20.8832 13.99 21.1159C13.5828 21.0868 13.321 20.8832 13.2338 20.5342C13.1756 20.6505 13.1465 20.825 13.1465 20.9995C13.1465 21.0577 13.1465 21.145 13.1756 21.2322C13.1756 21.2322 13.0884 21.2322 12.9429 21.1159C12.7684 20.9996 12.5939 20.6796 12.623 20.5342C12.7393 20.7087 12.8557 20.825 13.0302 20.9414C13.0011 20.5633 13.1756 20.2724 13.3792 20.127C13.3792 20.5342 13.5246 20.7669 13.8446 20.8541C13.7864 20.6214 13.8737 20.4178 13.9027 20.2724C13.9609 20.127 14.1063 19.9525 14.1936 19.8943C14.1936 20.2143 14.339 20.5633 14.6299 20.6214C14.6299 20.3597 14.6589 20.0688 14.7753 19.8943C14.8335 19.8071 14.8625 19.7198 14.9498 19.6907C15.0371 19.9525 15.357 20.0979 15.6769 20.0979C16.4913 20.127 16.5495 19.458 16.5495 19.458C16.4331 19.5162 16.2877 19.6035 16.0259 19.6035C15.6769 19.6035 15.5897 19.3417 15.5897 19.3417C15.7933 19.429 16.1714 19.3126 16.3459 19.1672C16.4622 19.0799 16.6076 18.8763 16.6076 18.7018C16.6076 18.5273 16.5786 18.3819 16.4622 18.3237C16.3168 18.6728 15.5606 18.8764 15.2697 18.4982C15.5606 18.5273 15.8223 18.3819 15.9387 18.2074C15.9678 18.1492 15.9969 18.0038 15.9678 17.9456C15.9678 17.9456 15.7642 18.0911 15.4733 18.0911C15.1825 18.0911 15.008 17.9747 15.008 17.9747C15.2116 17.9747 15.5897 17.742 15.5606 17.5094C15.5606 17.5094 15.4442 17.5675 15.357 17.5675C15.1243 17.5966 14.8625 17.5675 14.7171 17.4512C14.7171 17.4221 14.8044 16.8404 14.7462 16.7822C14.4844 16.8986 14.2518 17.0731 14.1063 17.3348C13.9609 17.3058 13.7864 17.2767 13.5537 17.3058C13.3501 17.3058 13.1174 17.3348 13.0011 17.393C12.9429 17.4221 12.8557 17.4803 12.7975 17.5384C12.7393 17.5966 12.7103 17.6839 12.6521 17.742C12.5067 17.8293 12.274 17.8584 12.0704 17.8875C11.925 17.9165 11.7214 17.8875 11.6923 18.0038C11.6341 18.1201 11.7504 18.2074 11.7795 18.2656C11.8086 18.2946 11.8377 18.3819 11.8668 18.4401C11.8959 18.4982 11.8959 18.5855 11.925 18.6437C12.1286 18.9636 12.3031 18.8182 12.5067 18.76C12.7393 18.6728 13.0593 18.5855 13.3501 18.5855C13.5246 18.5855 13.6991 18.6146 13.8446 18.7018C13.9609 18.7891 14.0482 18.9636 14.0191 19.109C14.0191 19.2544 13.9609 19.3708 13.8446 19.458C13.7864 19.5162 13.5828 19.6326 13.292 19.6326C12.9429 19.6326 12.5939 19.458 12.274 19.458C12.1867 19.458 12.0995 19.4871 12.0704 19.5162C11.9831 19.6035 11.9831 19.7489 12.0704 19.8652C12.3903 19.8652 12.3612 20.2143 12.3321 20.3597C12.1867 20.7669 11.8668 20.7669 11.7214 20.7669C11.5469 20.7378 11.3433 20.6796 11.2851 20.5633C11.1397 20.9995 11.4305 21.3777 11.8377 21.3777C11.5469 21.6103 10.9942 21.4358 10.9361 21.1159C10.907 21.1741 10.8488 21.2613 10.8488 21.3486C10.8197 21.9012 11.256 22.1048 11.8086 22.1048C11.4887 22.2502 11.0815 22.1629 10.7034 22.0757C10.3544 21.9884 10.1799 21.9012 9.94718 21.7558C9.65633 21.6103 9.3364 21.3777 9.19097 21.1159C9.1328 21.0286 9.07463 20.8541 9.10372 20.7378C9.1328 20.3306 9.59816 20.2724 9.53999 19.778C9.22006 19.6907 8.87104 19.8361 8.78378 20.1561C8.7547 20.2433 8.7547 20.3306 8.7547 20.4469C8.63836 20.3306 8.52202 20.2143 8.37659 20.0979C8.26025 20.0107 8.14391 19.9525 8.02757 19.9525C8.02757 19.9525 7.99849 20.0397 7.91123 20.1561C7.88215 20.1852 7.73672 20.3015 7.73672 20.3015C7.73672 20.3888 7.82398 20.476 7.85306 20.476C7.9694 20.5633 8.173 20.6214 8.26025 20.7669C8.28934 20.796 8.28934 20.8541 8.28934 20.9123C8.20208 20.9414 8.11483 20.9414 8.02757 20.9123C7.76581 20.8541 7.5913 20.6214 7.27136 20.6214C7.15502 20.6214 7.03868 20.6214 6.98051 20.7087C7.06777 20.825 7.03868 21.0286 6.98051 21.145C7.03868 21.2613 7.12594 21.2904 7.24228 21.3195C7.41679 21.3486 7.62038 21.3195 7.76581 21.3195C7.85306 21.3195 7.94032 21.3486 7.9694 21.4067C7.88215 21.4649 7.79489 21.5231 7.67855 21.5522C7.44587 21.6103 7.15502 21.4358 6.95143 21.5522C6.95143 21.5522 7.0096 21.6394 6.95143 21.7558C6.92234 21.843 6.86417 21.9594 6.86417 21.9594C6.98051 22.0466 7.06777 22.0757 7.18411 22.1048C7.3877 22.1048 7.62038 21.9884 7.82398 21.9012C7.94032 21.8721 8.02757 21.843 8.11483 21.843C7.94032 22.0757 7.67855 22.2793 7.35862 22.3084C7.32953 22.3084 7.27136 22.3084 7.27136 22.3084C7.27136 22.3375 7.35862 22.3665 7.3877 22.3956C7.44587 22.4247 7.5913 22.4538 7.67855 22.4829C8.11483 22.512 8.46385 22.3665 8.7547 22.192C8.60927 22.4538 8.37659 22.5992 8.08574 22.7156C8.11483 22.7447 8.20208 22.7737 8.26025 22.7737C8.92921 22.8901 9.51091 22.4247 9.51091 22.4247C9.51091 22.5411 9.39457 22.7447 9.19097 22.861C9.1328 22.9482 9.01646 22.9482 9.01646 22.9482C9.10372 23.0355 9.3364 23.0646 9.51091 23.0355C9.7145 23.0355 9.9181 22.9482 10.1217 22.9192C10.4125 22.861 10.6161 22.8901 10.7906 22.8319C10.587 22.9192 10.3835 23.0064 10.1508 23.0646C9.88901 23.1518 9.65633 23.2973 9.42365 23.4136C9.19097 23.5299 8.95829 23.7335 8.7547 23.8208C8.52202 23.9371 8.23117 23.879 8.11483 23.7045C8.05666 23.6172 8.05666 23.5009 8.02757 23.3845C7.9694 23.1518 7.79489 22.9192 7.50404 22.9482C7.47496 23.1518 7.30045 23.2973 7.21319 23.3554C7.24228 23.7335 7.73672 23.7335 7.79489 24.1407C7.76581 24.1698 7.64947 24.1698 7.56221 24.1407C7.35862 24.0826 7.21319 23.9953 7.03868 23.9953C6.92234 23.9953 6.83509 24.0244 6.71875 24.0826C6.74783 24.1116 6.77692 24.1698 6.806 24.228C6.83509 24.3443 6.80601 24.4897 6.74784 24.577C6.83509 24.6643 6.92234 24.6933 7.0096 24.6933C7.18411 24.6933 7.3877 24.6352 7.56221 24.6061C7.64947 24.6061 7.76581 24.6061 7.85306 24.6352C7.76581 24.8678 7.3877 24.8678 7.12594 24.926C7.0096 24.9551 6.89326 25.0133 6.83509 25.1296C7.0096 25.1878 7.15502 25.3332 7.15502 25.595C7.24228 25.595 7.32953 25.5659 7.41679 25.5659C7.64947 25.4495 7.79489 25.2169 8.02757 25.1296C8.02757 25.3914 7.85306 25.5368 7.82398 25.7695V26.0022C7.82398 26.0022 7.94032 25.944 8.05666 25.944C8.173 25.944 8.23117 25.9731 8.28934 26.0313C8.34751 25.9731 8.40568 25.8858 8.40568 25.7986C8.43476 25.6241 8.43476 25.4205 8.43476 25.246C8.46385 25.1587 8.43476 25.1005 8.52202 25.1005C8.84195 25.1005 9.19097 24.926 9.30731 24.7806C9.24914 24.9842 9.19097 25.1005 9.07463 25.246C9.04555 25.3041 8.95829 25.3623 8.90012 25.4205C9.10372 25.4495 9.30731 25.3914 9.45274 25.275C9.80176 25.0424 10.0635 24.7806 10.2089 24.4316C10.238 24.577 10.238 24.7806 10.1799 24.926C10.1508 25.0424 10.0635 25.1296 10.0344 25.1878C10.0926 25.1878 10.2089 25.1878 10.2671 25.1587C10.4998 25.0424 10.7034 24.8388 10.8197 24.577C10.8779 24.4316 10.9652 24.2571 10.9652 24.0826C11.1106 24.228 11.1397 24.4897 11.0233 24.7515C10.9942 24.8097 10.9652 24.8679 10.9361 24.8969C11.1106 24.8679 11.2269 24.7806 11.3433 24.6643C11.5469 24.4897 11.6923 24.1116 11.6632 23.7917C11.8377 23.9371 11.8959 24.3734 11.7795 24.6352C11.954 24.6061 12.0704 24.4897 12.1867 24.3734C12.3321 24.228 12.3903 24.1116 12.4776 23.8499C12.5648 23.5881 12.5067 23.4136 12.5067 23.4136C12.5357 23.4427 12.5939 23.5299 12.5939 23.6172C12.6812 23.9371 12.5648 24.2862 12.3031 24.5479C12.274 24.577 12.1576 24.6643 12.1576 24.6643C12.3321 24.8969 12.6521 25.0133 13.0011 25.0133C13.5828 25.0424 13.9318 24.8097 14.4844 24.7515C14.2518 24.8679 14.0482 24.9842 13.9027 25.0424C13.5828 25.1878 13.292 25.275 13.0302 25.275C12.8848 25.275 12.7103 25.275 12.5648 25.1878C12.4485 25.3332 12.4485 25.4786 12.4485 25.7113C12.4776 26.0022 12.6521 26.2058 12.5648 26.4966C12.4194 27.0783 11.4014 26.9911 11.0233 26.7002C10.7034 26.4675 10.7325 25.9149 10.4707 25.6822C10.3835 25.6241 10.2962 25.5659 10.1217 25.5659C10.0635 25.7404 9.94718 25.8567 9.80176 25.944C9.83084 26.0603 9.88901 26.1185 9.94718 26.2058C10.0635 26.3221 10.2089 26.4094 10.3253 26.5548C10.3544 26.6129 10.3835 26.6711 10.4125 26.7584C10.2962 26.7584 10.2089 26.7293 10.1508 26.7002C9.94718 26.6129 9.77267 26.4094 9.53999 26.3512C9.45274 26.3512 9.36548 26.3512 9.24914 26.3512C9.27823 26.4675 9.22006 26.6711 9.10372 26.7584C9.19097 26.9911 9.42365 27.1365 9.74359 27.1365C9.9181 27.1365 10.1217 27.1365 10.2089 27.2528C9.97627 27.5146 9.59816 27.2528 9.24914 27.2528C9.16189 27.2528 9.07463 27.2819 8.98738 27.311C8.98738 27.3401 9.04555 27.3982 9.04555 27.4855C9.04555 27.6018 8.98738 27.7473 8.98738 27.7473C8.98738 27.8345 9.19097 27.8927 9.30731 27.8927H9.53999C9.77267 27.8636 10.0635 27.6891 10.2962 27.6891C10.3253 27.6891 10.4125 27.7182 10.4125 27.7473C10.3253 27.9509 10.1217 27.9799 10.0054 28.0963C9.97627 28.1545 9.9181 28.2126 9.9181 28.2999C10.1217 28.2417 10.2089 28.329 10.2962 28.4453C10.3835 28.4453 10.4707 28.4162 10.5289 28.3871C10.6452 28.2999 10.7325 28.0963 10.8197 27.9799C10.8488 27.9509 10.8779 27.8927 10.9652 27.8927C10.9942 27.8927 11.0524 27.9799 11.1106 28.0381C11.2851 28.2708 11.5759 28.4453 11.954 28.3871C12.0704 28.3871 12.1867 28.329 12.2449 28.2417C12.0122 28.2126 11.8377 28.0381 11.7504 27.8054C11.954 27.9509 12.3321 28.0963 12.6521 28.0381C12.6812 28.0381 12.7975 28.009 12.7975 27.9509C12.5648 27.8927 12.3612 27.66 12.4485 27.3692C12.5648 27.5437 12.7684 27.7182 13.0302 27.7473C13.1174 27.7473 13.2047 27.7473 13.292 27.6891C13.2629 27.66 13.2047 27.6018 13.1756 27.5437C13.1465 27.4855 13.1174 27.3982 13.1465 27.311C13.1756 27.1074 13.4665 27.0492 13.6701 27.0201C13.9318 26.9911 14.1936 27.0492 14.4263 26.962C14.5717 26.9038 14.7171 26.7875 14.7171 26.613C14.6299 26.6711 14.5135 26.7293 14.3681 26.7002C14.1645 26.6711 14.0772 26.4966 14.0772 26.3803C14.0772 26.1185 14.2227 26.0022 14.5426 25.9731C14.688 25.9731 14.8916 26.0022 15.008 26.0603C15.008 26.0603 15.2116 26.1476 15.2116 26.1185C15.1243 25.944 15.2116 25.6241 15.2697 25.4786C15.3861 25.246 15.5024 25.1005 15.5606 24.8679C15.5606 24.8969 15.5897 24.9551 15.5606 25.0133C15.5315 25.275 15.4442 25.4205 15.4152 25.7113C15.3861 25.8567 15.4442 26.0603 15.5897 26.1767C15.8223 26.3803 16.2295 26.4384 16.375 26.7584C16.4622 27.0201 16.375 27.2237 16.2586 27.3692C16.0841 27.6018 15.8223 27.8345 15.5315 27.9509C15.4442 27.9799 15.2988 28.0672 15.1825 28.009C14.9207 27.9218 14.8335 27.4564 14.6299 27.311C14.5426 27.2528 14.4263 27.2528 14.3099 27.2528C14.2808 27.3401 14.2808 27.3692 14.2227 27.4564C14.1936 27.5146 14.0772 27.5728 14.0772 27.5728C14.0772 27.66 14.1645 27.7473 14.1936 27.8054C14.3099 27.9218 14.5717 27.9799 14.6299 28.1254C14.6008 28.1544 14.5426 28.1835 14.4844 28.1835C14.2227 28.1835 14.0772 27.9509 13.8155 27.9218C13.7573 27.9218 13.641 27.9218 13.5828 27.9799V28.1544C13.5537 28.2417 13.5246 28.2708 13.4955 28.2999C13.5246 28.5035 13.8737 28.5326 14.1645 28.5326C14.2518 28.5326 14.339 28.5616 14.3681 28.6198C14.3099 28.678 14.2227 28.7362 14.1063 28.7652C13.9027 28.7943 13.7282 28.678 13.5246 28.678C13.4665 28.678 13.3792 28.7071 13.292 28.7361C13.321 28.7943 13.321 28.8816 13.292 28.9397C13.2629 29.027 13.2629 29.0852 13.2338 29.1143C13.2629 29.1433 13.3792 29.2015 13.4665 29.2015C13.7573 29.2306 13.99 28.9979 14.2808 29.0852C14.1645 29.2597 13.9609 29.2888 13.7864 29.376C13.7282 29.4051 13.641 29.4924 13.6119 29.5796C13.6701 29.6087 13.7282 29.6378 13.7573 29.696C13.7864 29.7541 13.8155 29.8123 13.8155 29.8705C14.1645 29.8995 14.339 29.6669 14.4844 29.4633C14.7171 29.2015 15.0661 29.027 15.5315 28.9979C16.055 28.9688 16.6949 29.2015 16.9276 28.7652C16.6367 28.7652 16.3168 28.7071 16.2004 28.5035C16.6949 28.6489 17.3057 28.5035 17.5674 28.1835C17.2184 28.2417 16.8694 28.1545 16.724 27.9509C17.1021 28.0381 17.5093 27.9799 17.8292 27.8054C18.0328 27.6891 18.2364 27.5146 18.2946 27.311C18.2655 27.311 18.2073 27.3401 18.1491 27.3692C17.9165 27.4855 17.4802 27.4564 17.3638 27.2528C17.5965 27.2528 17.8001 27.2237 17.9455 27.1365C18.1491 27.0201 18.2655 26.8456 18.3527 26.7002C18.44 26.5548 18.5272 26.3803 18.6145 26.2639C18.6727 26.2058 18.7018 26.1767 18.7599 26.1767C18.7308 26.1476 18.6145 26.1185 18.5563 26.1476C18.2364 26.2058 18.091 26.4966 17.8001 26.5548C17.9165 26.2348 17.9455 25.8277 17.9746 25.4786C18.5854 25.7113 19.1089 25.5368 19.3707 25.1587C19.5161 24.926 19.5743 24.6643 19.5743 24.4897C19.5743 24.1116 19.3707 23.8499 19.1962 23.6463C18.8472 23.2682 18.3818 22.9773 17.9746 22.6865C17.6838 22.4829 17.3929 22.2793 17.1312 22.0466C16.9567 21.9012 16.7531 21.6685 16.724 21.4067C16.6658 20.9996 16.8985 20.6796 17.1893 20.6214C18.091 20.3597 18.9926 21.3195 19.4289 21.843C19.5161 21.9594 19.8942 22.3665 19.7488 22.6574C19.7197 22.7156 19.6034 22.7737 19.5161 22.7737C19.3998 22.7737 19.2835 22.6283 19.3707 22.4538C19.138 22.512 19.0217 22.861 19.1671 23.0646C19.2544 23.21 19.4289 23.2391 19.5743 23.21C19.6906 23.1809 19.807 23.1227 19.8361 23.0355C19.6906 23.5009 19.8652 24.0244 20.0978 24.2862C20.3887 24.6061 20.7959 24.6933 20.9704 24.6933C21.4067 24.7224 21.8429 24.6061 22.1338 24.228C22.5119 24.0244 22.6282 23.6754 22.5119 23.3554ZM13.4083 18.1492C13.3501 18.0329 13.321 17.8584 13.3792 17.7711C13.5537 17.8875 13.7282 17.9165 13.9027 17.9456C13.7573 17.9747 13.5537 18.0329 13.4083 18.1492Z" fill="#EE3124"/>
<path id="Vector_39" d="M21.8719 2.06543L19.3706 4.88667L21.8719 7.737L24.3151 4.88667L21.8719 2.06543ZM20.3595 4.88667L21.8428 3.19974L23.3262 4.91575L21.8719 6.5736L20.3595 4.88667Z" fill="#FFEF00"/>
<path id="Vector_40" d="M3.22852 4.88667L5.75891 7.737L8.20205 4.88667L5.75891 2.06543L3.22852 4.88667ZM5.75891 6.5736L4.24649 4.88667L5.72982 3.19974L7.21316 4.91575L5.75891 6.5736Z" fill="#FFEF00"/>
<g id="Group">
<path id="Vector_41" d="M15.1824 11.4302C14.7461 11.3139 14.2807 11.1976 13.8735 11.4302V11.5466C14.2516 11.2848 14.6879 11.4012 15.1533 11.5175C15.5314 11.6048 15.9386 11.7211 16.3167 11.5757V11.4884C15.9677 11.6338 15.5895 11.5466 15.1824 11.4302Z" fill="#00539B"/>
<path id="Vector_42" d="M12.1285 10.5578C11.7213 10.6741 11.3432 10.7614 10.9941 10.616V10.7323C11.3432 10.8777 11.7503 10.7614 12.1575 10.6741C12.6229 10.5578 13.0592 10.4414 13.4373 10.7032V10.5869C13.0301 10.3251 12.5647 10.4414 12.1285 10.5578Z" fill="#00539B"/>
<path id="Vector_43" d="M12.1285 9.65582C11.7213 9.77216 11.3432 9.85942 10.9941 9.714V9.80125C11.3432 9.94667 11.7503 9.83034 12.1575 9.74308C12.6229 9.62674 13.0592 9.5104 13.4373 9.77217V9.65582C13.0301 9.42314 12.5647 9.53948 12.1285 9.65582Z" fill="#00539B"/>
<path id="Vector_44" d="M12.1285 11.4305C11.7213 11.5178 11.3432 11.6341 10.9941 11.4596V11.5468C11.3432 11.6923 11.7503 11.605 12.1575 11.4887C12.6229 11.3723 13.0592 11.256 13.4373 11.5178V11.4014C13.0301 11.2269 12.5647 11.3142 12.1285 11.4305Z" fill="#00539B"/>
<path id="Vector_45" d="M15.1824 9.65582C14.7461 9.53948 14.2807 9.42314 13.8735 9.65582V9.77217C14.2516 9.5104 14.6879 9.62674 15.1533 9.74308C15.5314 9.83034 15.9386 9.94667 16.3167 9.80125V9.714C15.9677 9.85942 15.5895 9.77216 15.1824 9.65582Z" fill="#00539B"/>
<path id="Vector_46" d="M15.1824 10.5578C14.7461 10.4414 14.2807 10.3251 13.8735 10.5869V10.7032C14.2516 10.4414 14.6879 10.5578 15.1533 10.6741C15.5314 10.7614 15.9386 10.8777 16.3167 10.7323V10.616C15.9677 10.7323 15.5895 10.645 15.1824 10.5578Z" fill="#00539B"/>
<path id="Vector_47" d="M8.66751 27.8639C8.90019 27.6312 9.10378 27.7476 9.10378 27.7476C9.22012 27.6312 9.19104 27.3695 9.10378 27.2822C8.8711 27.3695 8.63842 27.5731 8.66751 27.8639Z" fill="#00539B"/>
<path id="Vector_48" d="M8.66748 26.7292C8.66748 26.7292 8.78382 26.6711 8.95833 26.6711C9.10375 26.6711 9.2201 26.7002 9.2201 26.7002C9.33644 26.642 9.45278 26.4093 9.36552 26.293C9.0165 26.3511 8.75474 26.4966 8.66748 26.7292Z" fill="#00539B"/>
<path id="Vector_49" d="M7.82373 25.9728C7.82373 25.9728 7.85282 26.2636 8.05641 26.4672C8.11458 26.5254 8.20184 26.5836 8.28909 26.5836C8.17275 26.4381 8.20184 26.1764 8.28909 26.031C8.17275 25.9146 7.94007 25.9146 7.82373 25.9728Z" fill="#00539B"/>
<path id="Vector_50" d="M8.08559 19.9817C7.73657 19.8944 7.38755 20.0689 7.30029 20.3307C7.30029 20.3307 7.56206 20.2144 7.82382 20.3307C7.82382 20.3307 8.0565 20.1853 8.08559 19.9817Z" fill="#00539B"/>
<path id="Vector_51" d="M9.10348 19.8652C9.2489 19.7779 9.42341 19.7489 9.59792 19.807C9.59792 19.6907 9.4525 19.6034 9.36524 19.5743C9.19073 19.4871 9.10348 19.458 8.89988 19.458C8.75446 19.458 8.69629 19.5162 8.69629 19.5162C8.8708 19.5744 9.04531 19.6616 9.10348 19.8652Z" fill="#00539B"/>
<path id="Vector_52" d="M10.2378 25.5361C10.0342 25.478 9.77242 25.507 9.59791 25.5943C9.45249 25.6816 9.36523 25.7979 9.36523 25.7979C9.74334 25.7688 9.94693 25.9433 9.94693 25.9433C10.0633 25.8851 10.2669 25.7106 10.2378 25.5361Z" fill="#00539B"/>
<path id="Vector_53" d="M6.835 25.1289C6.71866 25.2452 6.60232 25.507 6.66049 25.7688C6.68958 25.8851 6.77683 25.9433 6.77683 25.9433C6.80592 25.7979 6.92226 25.5943 7.15494 25.5943C7.21311 25.3034 6.95134 25.1289 6.835 25.1289Z" fill="#00539B"/>
<path id="Vector_54" d="M6.7475 24.082C6.7475 24.082 6.57299 24.1111 6.36939 24.3438C6.28214 24.431 6.19488 24.6056 6.22397 24.751C6.22397 24.751 6.34031 24.6346 6.51482 24.5765C6.63116 24.5474 6.68933 24.5474 6.7475 24.5474C6.86384 24.5183 6.89292 24.1984 6.7475 24.082Z" fill="#00539B"/>
<path id="Vector_55" d="M13.6697 13.2922C14.0769 13.2922 14.2805 12.9432 14.2805 12.9432H17.4798V9.16211H17.0727V12.565C17.0727 12.565 16.8691 12.7686 16.3746 12.7686C15.7929 12.7686 15.1531 12.536 14.5423 12.536C13.9606 12.536 13.7279 12.8268 13.6697 12.885C13.6697 12.885 13.3789 12.536 12.8263 12.536C12.2446 12.536 11.5756 12.7686 10.8776 12.7686C10.5285 12.7686 10.3249 12.5941 10.2668 12.565V9.16211H9.88867V12.9432H13.0589C13.0589 12.9432 13.2334 13.2922 13.6697 13.2922Z" fill="#00539B"/>
<path id="Vector_56" d="M6.9516 21.9883C6.9516 21.9883 7.12611 21.7556 7.00977 21.5811C6.66076 21.6101 6.45716 21.8137 6.34082 22.0464C6.36991 22.0464 6.68984 21.9301 6.9516 21.9883Z" fill="#00539B"/>
<path id="Vector_57" d="M10.0343 28.2995C10.0343 28.2995 9.91796 28.7357 10.2379 28.8812C10.2379 28.8812 10.1797 28.6485 10.4124 28.474C10.3542 28.3286 10.1506 28.2413 10.0343 28.2995Z" fill="#00539B"/>
<path id="Vector_58" d="M6.66064 23.2971C6.83515 23.268 7.09692 23.2389 7.21326 23.3552C7.41685 23.2389 7.53319 23.0353 7.50411 22.948C7.47502 22.9189 7.35868 22.9189 7.30051 22.9189C6.95149 22.948 6.7479 23.0935 6.66064 23.2971Z" fill="#00539B"/>
<path id="Vector_59" d="M7.03867 21.2029C7.03867 21.2029 7.21318 20.9411 7.03867 20.7666C6.7769 20.8248 6.57331 21.0284 6.51514 21.3192C6.51514 21.3192 6.60239 21.261 6.68965 21.232C6.83507 21.1738 6.95141 21.2029 7.03867 21.2029Z" fill="#00539B"/>
<path id="Vector_60" d="M13.6699 15.473L24.4314 21.7844C25.682 18.4688 25.6529 14.3387 25.4202 8.55078L13.6699 15.473Z" fill="#00539B"/>
<path id="Vector_61" d="M13.6698 19.2832C13.6407 19.3705 13.6116 19.545 13.5825 19.6322C13.6698 19.6613 13.757 19.5741 13.8443 19.545C13.757 19.4577 13.6989 19.3414 13.6698 19.2832Z" fill="#00539B"/>
<path id="Vector_62" d="M12.8267 29.3175C12.8267 29.3175 12.9139 29.2593 13.0303 29.2011C13.1175 29.143 13.292 29.143 13.3793 29.2011C13.4665 29.143 13.4956 28.8521 13.4374 28.7939C13.1466 28.823 12.8557 29.0266 12.8267 29.3175Z" fill="#00539B"/>
<path id="Vector_63" d="M12.8844 19.3418C12.8553 19.4 12.8262 19.4872 12.7681 19.5745C12.8262 19.6036 12.9426 19.6326 13.0007 19.6036C12.9717 19.5163 12.9426 19.3709 12.8844 19.3418Z" fill="#00539B"/>
<path id="Vector_64" d="M26.8745 5.6134L26.6709 0H0.698056L0.494461 5.6134C-0.0872381 20.7085 -0.319919 26.3801 13.4664 33.0114L13.67 33.0987L13.8735 33.0114C27.6889 26.3801 27.4562 20.7085 26.8745 5.6134ZM13.699 32.1971C2.99577 27.0199 1.16342 22.6281 1.16342 13.0301C1.16342 10.8487 1.25067 8.40555 1.36701 5.6134C1.36701 5.6134 1.51244 1.59967 1.54152 0.843462H25.8856C25.9147 1.59967 26.0601 5.6134 26.0601 5.6134C26.1765 8.40555 26.2637 10.8778 26.2637 13.0591C26.2347 22.6281 24.3732 26.9908 13.699 32.1971Z" fill="#00539B"/>
<path id="Vector_65" d="M2.96656 21.7849L13.6698 15.4734L1.94859 8.60938C1.74499 14.3682 1.74499 18.4692 2.96656 21.7849Z" fill="#00539B"/>
<path id="Vector_66" d="M13.7861 27.6016C13.9025 27.5725 14.077 27.5434 14.1933 27.6307C14.3387 27.5434 14.426 27.4271 14.426 27.3107C14.1352 27.2526 13.8443 27.3689 13.7861 27.6016Z" fill="#00539B"/>
<path id="Vector_67" d="M13.7279 29.667C13.6115 29.7542 13.437 30.0451 13.4661 30.2487C13.4952 30.365 13.5824 30.4232 13.5824 30.4232C13.6406 30.2196 13.8151 30.0451 13.9606 29.9869C13.9896 29.8706 13.8151 29.667 13.7279 29.667Z" fill="#00539B"/>
<path id="Vector_68" d="M12.9424 18.6433C12.9715 18.7015 13.0296 18.9051 13.0296 18.9051C13.0587 18.8179 13.146 18.7015 13.1751 18.6143C13.0878 18.6143 13.0006 18.6143 12.9424 18.6433Z" fill="#00539B"/>
<path id="Vector_69" d="M12.5649 18.7601C12.5649 18.7601 12.6522 18.9055 12.6813 18.9637L12.7685 18.6729C12.7104 18.6729 12.6231 18.731 12.5649 18.7601Z" fill="#00539B"/>
<path id="Vector_70" d="M13.3208 18.5853C13.3208 18.5853 13.4081 18.7889 13.4371 18.8761C13.4662 18.7889 13.5535 18.6725 13.6117 18.5853C13.4953 18.5562 13.4081 18.5562 13.3208 18.5853Z" fill="#00539B"/>
<path id="Vector_71" d="M13.1465 19.6326C13.2337 19.6617 13.321 19.6617 13.3792 19.6617C13.3501 19.5745 13.2628 19.4 13.2628 19.3418C13.2628 19.4 13.1756 19.5745 13.1465 19.6326Z" fill="#00539B"/>
<path id="Vector_72" d="M13.0591 28.3873C13.1463 28.3292 13.4081 28.271 13.6117 28.3583C13.6699 28.3292 13.7571 28.1256 13.699 28.0383C13.4081 27.9511 13.1173 28.1256 13.0591 28.3873Z" fill="#00539B"/>
<path id="Vector_73" d="M13.9606 18.9639C13.8442 18.9348 13.6988 18.9639 13.5825 18.9639C13.1462 19.0511 12.5936 19.1093 12.2446 19.0802C11.9537 19.0511 11.5756 18.9639 11.5756 18.5858C11.5756 18.4403 11.6338 18.2949 11.6338 18.2949C11.4883 18.324 11.2848 18.5276 11.3138 18.7894C11.3429 19.0802 11.6047 19.2547 12.1573 19.2838C12.5936 19.3129 13.2044 19.1675 13.5825 19.0802C13.8151 19.022 13.9606 18.9639 13.9606 18.9639Z" fill="#00539B"/>
<path id="Vector_74" d="M12.8845 12.3028C13.3208 12.3028 13.6116 12.6228 13.6116 12.6228H13.728C13.9316 12.4192 14.1352 12.3028 14.4551 12.3028C14.9495 12.3028 15.4731 12.5064 15.9093 12.5064C16.3165 12.5064 16.6074 12.3028 16.6365 12.2737V8.69629L16.5492 8.75446C16.1711 9.0744 15.7057 8.95805 15.2113 8.84171C14.6878 8.69629 14.1352 8.57995 13.6698 9.04531C13.2044 8.57995 12.6518 8.69629 12.1283 8.84171C11.6338 8.95805 11.1976 9.0744 10.7904 8.75446L10.7031 8.69629V12.2737C10.7322 12.3028 10.994 12.5355 11.4302 12.5355C11.8665 12.5064 12.4191 12.3028 12.8845 12.3028ZM13.6989 9.10348C14.1061 8.6672 14.6296 8.78355 15.1531 8.89989C15.6185 9.01623 16.0838 9.10348 16.5201 8.84171V12.1865C16.142 12.4483 15.6767 12.3901 15.1822 12.2737C14.6587 12.1574 14.1352 12.0701 13.6989 12.4773V9.10348ZM10.7904 12.2156V8.8708C11.1976 9.13257 11.692 9.04531 12.1574 8.92897C12.71 8.78354 13.2044 8.6672 13.6116 9.13256V12.5064C13.1753 12.0992 12.6227 12.1865 12.1283 12.3028C11.6338 12.4192 11.1685 12.5064 10.7904 12.2156Z" fill="#00539B"/>
<path id="Vector_75" d="M12.1575 10.6448C12.6229 10.5285 13.0592 10.4121 13.4373 10.6739V10.5575C13.0301 10.3249 12.5647 10.4412 12.1285 10.5285C11.7213 10.6448 11.3432 10.7321 10.9941 10.5866V10.703C11.3432 10.8484 11.7503 10.7321 12.1575 10.6448Z" fill="#00539B"/>
<path id="Vector_76" d="M12.1575 9.74308C12.6229 9.62674 13.0592 9.5104 13.4373 9.77217V9.65582C13.0301 9.42314 12.5647 9.53948 12.1285 9.65582C11.7213 9.77216 11.3432 9.85942 10.9941 9.714V9.80125C11.3432 9.94667 11.7503 9.85942 12.1575 9.74308Z" fill="#00539B"/>
<path id="Vector_77" d="M13.408 11.5759V11.4595C13.0008 11.2269 12.5354 11.3432 12.0992 11.4595C11.692 11.5468 11.3139 11.6631 10.9648 11.4886V11.5759C11.3139 11.7213 11.7211 11.634 12.1282 11.5177C12.5936 11.4305 13.0299 11.3141 13.408 11.5759Z" fill="#00539B"/>
<path id="Vector_78" d="M15.1826 10.6448C15.5607 10.7321 15.9679 10.8484 16.346 10.703V10.5867C15.997 10.7321 15.6188 10.6448 15.2117 10.5285C14.7754 10.4121 14.31 10.2958 13.9028 10.5576V10.6739C14.2809 10.4121 14.7172 10.5285 15.1826 10.6448Z" fill="#00539B"/>
<path id="Vector_79" d="M15.1826 9.74308C15.5607 9.83034 15.9679 9.94667 16.346 9.80125V9.714C15.997 9.85942 15.6188 9.77216 15.2117 9.65582C14.7754 9.53948 14.31 9.42314 13.9028 9.65582V9.77217C14.2809 9.53949 14.7172 9.62674 15.1826 9.74308Z" fill="#00539B"/>
<path id="Vector_80" d="M15.1826 11.547C15.5607 11.6342 15.9679 11.7506 16.346 11.6052V11.5179C15.997 11.6633 15.6188 11.5761 15.2117 11.4888C14.7754 11.3725 14.31 11.2562 13.9028 11.4888V11.6052C14.2809 11.3143 14.7172 11.4307 15.1826 11.547Z" fill="#00539B"/>
</g>
</g>
<defs>
<clipPath id="clip0_2453_16751">
<rect width="178" height="33.1278" fill="white"/>
</clipPath>
</defs>
</svg>
