<svg xmlns="http://www.w3.org/2000/svg" width="160" height="50" viewBox="0 0 160 50" fill="none">
<g id="Turnitin_logo_(2021) 1" clip-path="url(#clip0_2307_6821)">
<path id="Vector" d="M2.00919 18.6L1.37213 22.725H7.81623C2.74426 27.4 0 34.675 0 39.375C0 42.85 1.0781 45.55 3.25881 47.4C4.99847 48.9 7.39969 49.725 10.389 49.925L10.683 49.95V48.5L10.4625 48.45C7.74273 47.825 3.2098 45.975 3.1608 40.35C3.13629 36.15 7.37519 28.3 12.2757 25L10.977 32.625H15.1179L17.4456 18.625L2.00919 18.6Z" fill="#0096FF"/>
<path id="Vector_2" d="M6.02762 0C3.89592 0 2.15626 1.775 2.13175 3.925L1.98474 14.975L4.21445 15H6.41966L6.54217 4.525H24.7719L24.8944 32.9H19.0628L18.3033 37.425H25.4334C27.5651 37.425 29.3293 35.45 29.3538 33.275L29.2803 0H6.02762Z" fill="#0096FF"/>
<path id="Vector_3" d="M67.9448 29.25C67.9448 30.675 67.5038 31.775 66.6217 32.55C65.7151 33.35 64.686 33.75 63.4119 33.75C62.4318 33.75 61.6232 33.525 61.0107 33.05C60.3981 32.575 59.9326 31.95 59.663 31.175C59.369 30.375 59.222 29.475 59.222 28.5V17H54.7136V29.575C54.7136 32.15 55.3751 34.2 56.6983 35.65C58.0214 37.125 59.7611 37.875 61.8683 37.875C63.4609 37.875 64.833 37.5 65.9846 36.75C66.7442 36.25 67.4058 35.675 67.9203 35.075V37.5H72.4287V17H67.9203V29.25H67.9448ZM85.6845 16.575C84.4104 16.575 83.1852 17 82.0336 17.8C81.2741 18.325 80.637 18.975 80.147 19.725V17H75.5895V37.5H80.147V26.225C80.147 25.25 80.392 24.4 80.833 23.7C81.2986 23 81.8866 22.425 82.5972 22.05C83.6508 21.475 84.8024 21.35 85.807 21.6C86.15 21.675 86.4196 21.775 86.6401 21.9L87.0321 22.1L88.2082 17.15L87.9632 17.025C87.3996 16.7 86.6646 16.575 85.6845 16.575ZM105.335 17.725C104.306 16.95 102.885 16.55 101.072 16.55C99.6263 16.55 98.3032 16.925 97.1271 17.675C96.3185 18.175 95.6324 18.75 95.0934 19.375V16.95H90.5849V37.45H95.0689V25.125C95.0689 24.35 95.2649 23.625 95.6814 22.975C96.098 22.325 96.6615 21.8 97.3721 21.4C98.0826 21 98.8912 20.8 99.8468 20.8C100.827 20.725 101.562 20.875 102.101 21.275C102.64 21.65 103.008 22.175 103.228 22.875C103.473 23.6 103.571 24.4 103.571 25.325V37.475H108.055V25.075C108.055 23.55 107.859 22.125 107.467 20.85C107.075 19.55 106.364 18.5 105.335 17.725ZM111.191 17H115.7V37.5H111.191V17ZM134.836 17H139.345V37.5H134.836V17ZM159.412 20.85C159.02 19.55 158.285 18.5 157.28 17.725C156.251 16.95 154.83 16.55 153.017 16.55C151.571 16.55 150.248 16.925 149.072 17.675C148.263 18.175 147.577 18.75 147.038 19.375V16.95H142.53V37.45H147.014V25.125C147.014 24.35 147.21 23.625 147.626 22.975C148.043 22.325 148.606 21.8 149.317 21.4C150.028 21 150.836 20.8 151.792 20.8C152.747 20.725 153.507 20.875 154.046 21.275C154.585 21.65 154.952 22.175 155.173 22.875C155.418 23.6 155.516 24.4 155.516 25.325V37.475H160V25.075C160 23.525 159.804 22.125 159.412 20.85ZM47.3874 11.95H42.879V17H38.8606V21.5H42.879V32.075L42.9035 32.05C43.124 35.975 44.8637 37.5 48.931 37.5C50.2542 37.5 50.9892 37.425 51.0137 37.425L51.3323 37.4V33.175L50.9402 33.2C50.9402 33.2 50.0826 33.275 49.7151 33.275C47.7794 33.275 47.3874 32.825 47.3874 30.575V21.475H51.8958V16.975H47.3874V11.95ZM127.02 11.95H122.511V17H118.493V21.5H122.511V32.075L122.536 32.05C122.756 35.975 124.496 37.5 128.564 37.5C129.887 37.5 130.622 37.425 130.646 37.425L130.965 37.4V33.175L130.573 33.2C130.573 33.2 129.715 33.275 129.348 33.275C127.412 33.275 127.02 32.825 127.02 30.575V21.475H131.528V16.975H127.02V11.95Z" fill="#003C46"/>
<path id="Vector_4" d="M113.446 13.575C114.718 13.575 115.749 12.5229 115.749 11.225C115.749 9.92713 114.718 8.875 113.446 8.875C112.174 8.875 111.142 9.92713 111.142 11.225C111.142 12.5229 112.174 13.575 113.446 13.575Z" fill="#003C46"/>
<path id="Vector_5" d="M137.09 13.575C138.362 13.575 139.394 12.5229 139.394 11.225C139.394 9.92713 138.362 8.875 137.09 8.875C135.818 8.875 134.787 9.92713 134.787 11.225C134.787 12.5229 135.818 13.575 137.09 13.575Z" fill="#003C46"/>
</g>
<defs>
<clipPath id="clip0_2307_6821">
<rect width="160" height="50" fill="white"/>
</clipPath>
</defs>
</svg>
