<svg viewBox="0 0 1220 220" xmlns="http://www.w3.org/2000/svg"><path d="M174.825 3.719v140.478c0 23.34-7.789 41.797-23.365 55.371-15.472 13.575-36.656 20.362-63.552 20.362-26.48 0-47.508-6.592-63.084-19.776C9.248 186.971 1.304 168.855.992 145.809V3.719h46.73V144.49c0 13.965 3.53 24.17 10.591 30.615 7.165 6.348 17.03 9.522 29.595 9.522 26.273 0 39.616-12.988 40.032-38.965V3.719h46.885zm109.346 127.734l-24.299 24.609V217h-46.729V3.719h46.729v96.679l20.561-26.513 57.788-70.166h57.477l-80.53 94.775L398.034 217h-55.607l-58.256-85.547zm304.518 14.502c-1.765 22.949-10.799 41.016-27.103 54.199-16.199 13.184-37.591 19.776-64.174 19.776-29.076 0-51.974-9.18-68.692-27.539-16.615-18.457-24.922-43.75-24.922-75.879v-13.037c0-20.508 3.842-38.575 11.526-54.2 7.684-15.625 18.64-27.587 32.866-35.888C462.52 4.988 479.135.789 498.035.789c26.168 0 47.248 6.592 63.24 19.776 15.992 13.183 25.234 31.689 27.726 55.517h-46.729c-1.143-13.77-5.244-23.73-12.306-29.883-6.957-6.25-17.601-9.375-31.931-9.375-15.577 0-27.259 5.274-35.047 15.82-7.685 10.45-11.631 26.71-11.838 48.78v16.113c0 23.047 3.686 39.893 11.059 50.537 7.477 10.645 19.211 15.967 35.203 15.967 14.434 0 25.181-3.076 32.243-9.229 7.165-6.25 11.267-15.869 12.305-28.857h46.729zm334.892-7.031h-37.227V217h-46.729V3.719h84.268c26.791 0 47.456 5.615 61.994 16.845 14.533 11.23 21.803 27.1 21.803 47.608 0 14.55-3.37 26.709-10.121 36.474-6.646 9.668-16.77 17.383-30.374 23.145l49.065 87.158V217h-50.155l-42.524-78.076zm-37.227-35.596h37.695c11.734 0 20.82-2.783 27.258-8.35 6.439-5.663 9.658-13.427 9.658-23.29 0-10.06-3.064-17.97-9.19-23.731-6.023-5.762-15.317-8.642-27.882-8.642h-37.539v64.013zm240.966 35.596h-37.23V217h-46.73V3.719h84.27c26.79 0 47.46 5.615 62 16.845 14.53 11.23 21.8 27.1 21.8 47.608 0 14.55-3.37 26.709-10.12 36.474-6.65 9.668-16.77 17.383-30.38 23.145l49.07 87.158V217h-50.16l-42.52-78.076zm-37.23-35.596h37.7c11.73 0 20.82-2.783 27.26-8.35 6.43-5.663 9.65-13.427 9.65-23.29 0-10.06-3.06-17.97-9.19-23.731-6.02-5.762-15.31-8.642-27.88-8.642h-37.54v64.013z" fill="#404041"/><path d="M805.668 115.193c0 20.996-3.946 39.405-11.838 55.225-7.892 15.82-19.211 28.027-33.956 36.621-14.642 8.594-31.465 12.891-50.468 12.891-18.795 0-35.566-4.248-50.312-12.744-14.745-8.497-26.168-20.606-34.268-36.329-8.099-15.82-12.201-33.984-12.305-54.492v-10.547c0-20.996 3.998-39.453 11.994-55.37 8.1-16.016 19.47-28.272 34.112-36.768C673.373 5.086 690.195.79 709.095.79c18.899 0 35.669 4.296 50.311 12.89 14.746 8.496 26.117 20.752 34.113 36.767 8.099 15.918 12.149 34.326 12.149 55.225v9.521zm-47.352-9.668c0-22.363-4.258-39.355-12.773-50.976-8.515-11.621-20.664-17.432-36.448-17.432-15.681 0-27.778 5.762-36.293 17.285-8.515 11.426-12.825 28.223-12.929 50.391v10.4c0 21.778 4.258 38.672 12.773 50.684s20.768 18.018 36.76 18.018c15.68 0 27.726-5.762 36.137-17.286 8.412-11.621 12.669-28.515 12.773-50.683v-10.401z" fill="#F2832C"/></svg>