<svg xmlns="http://www.w3.org/2000/svg" width="66" height="36" viewBox="0 0 66 36" fill="none">
<g id="Group 73">
<path id="Vector" d="M60.1653 35.9798C62.6124 35.992 64.9491 34.5221 65.22 32.09C65.691 27.8615 64.2257 23.6897 61.3986 20.2014C59.5125 17.9398 57.0744 16.2565 54.3447 15.3313C51.615 14.4061 48.6963 14.2736 45.9002 14.9482C45.1541 10.5592 42.8871 6.61183 39.5328 3.86107C36.1785 1.11031 31.9723 -0.250779 27.7187 0.0381126C23.465 0.327004 19.4625 2.2456 16.4765 5.42697C13.4906 8.60833 11.7309 12.8292 11.5338 17.2822C9.62397 17.6177 7.81011 18.396 6.22534 19.56C4.64057 20.7241 3.32508 22.2444 2.37537 24.0095C1.42567 25.7746 0.86583 27.7396 0.73694 29.7604C0.678855 30.6711 0.670016 31.6893 0.761017 32.6573C0.947332 34.6392 2.82289 35.6939 4.8135 35.7038L60.1653 35.9798Z" fill="#FAE2D2"/>
<path id="Vector_2" d="M31.1222 29.3014C30.5699 29.3014 30.1222 28.8537 30.1222 28.3014V20.0888H27.5935C26.7914 20.0888 26.3157 19.192 26.7656 18.528L31.5288 11.4963C31.9247 10.9118 32.7852 10.9105 33.1829 11.4937L37.9336 18.4604C38.3863 19.1242 37.9109 20.0238 37.1074 20.0238H34.6666V28.3014C34.6666 28.8537 34.2189 29.3014 33.6666 29.3014H31.1222Z" fill="white"/>
</g>
</svg>
