<svg data-name="Layer 1" xmlns="http://www.w3.org/2000/svg" width="79.97mm" height="122.23" viewBox="0 0 226.7 91.66"><defs><linearGradient id="a" x1="30.61" y1="94.15" x2="30.61" y2="2.49" gradientTransform="matrix(1 0 0 -1 .03 94.15)" gradientUnits="userSpaceOnUse"><stop offset="0" stop-color="#e5097f"/><stop offset=".48" stop-color="#e31e24"/><stop offset="1" stop-color="#ffed00"/></linearGradient></defs><path d="M174.44 76.59a2.23 2.23 0 0 1-.76-.11 1 1 0 0 1-.46-.34 1.32 1.32 0 0 1-.23-.55 4.27 4.27 0 0 1-.06-.76v-4h-1.12v-.53l1.12-.27.27-1.7h.8V70h1.64v.84H174v3.75a1.56 1.56 0 0 0 .17.84.63.63 0 0 0 .55.24h.55a3.34 3.34 0 0 0 .55-.1l.18.73a2.33 2.33 0 0 1-.48.18l-.44.09h-.58zm-5.37 0a5.29 5.29 0 0 1-1-.1 3.45 3.45 0 0 1-.8-.25l.27-.78a4.07 4.07 0 0 0 .76.23 4 4 0 0 0 .77.08 1.9 1.9 0 0 0 1-.23.92.92 0 0 0 .37-.84 1 1 0 0 0-.3-.83 2.52 2.52 0 0 0-.94-.44l-.68-.22a2 2 0 0 1-.57-.31 1.44 1.44 0 0 1-.4-.5 1.78 1.78 0 0 1-.15-.8 1.63 1.63 0 0 1 .2-.83 1.67 1.67 0 0 1 .5-.54 2.1 2.1 0 0 1 .68-.3 3.18 3.18 0 0 1 .74-.09 4.44 4.44 0 0 1 1 .1 3.09 3.09 0 0 1 .66.21l-.24.77a3.59 3.59 0 0 0-.66-.16 4.34 4.34 0 0 0-.64-.05q-1.21 0-1.21.9a.82.82 0 0 0 .09.41.73.73 0 0 0 .25.26 1.73 1.73 0 0 0 .37.17l.45.14.67.23a2 2 0 0 1 .61.36 1.72 1.72 0 0 1 .44.59 2.15 2.15 0 0 1 .17.91 1.94 1.94 0 0 1-.19.88 1.64 1.64 0 0 1-.51.6 2.2 2.2 0 0 1-.76.34 3.85 3.85 0 0 1-.95.09zM164.6 70l.24.88a4.62 4.62 0 0 1 1-.72 3 3 0 0 1 1.18-.35l.18 1.19c-.55.05-1 .11-1.36.17a7.73 7.73 0 0 0-1 .22v5h-1V70h.76zm-3.63.85l-.71-.19V70H162v6.4h-1v-5.55zm.39-2.43a.66.66 0 0 1-.49-.21.71.71 0 0 1-.2-.51.69.69 0 0 1 .2-.5.7.7 0 0 1 1 0 .7.7 0 0 1 .2.49.71.71 0 0 1-.2.5.66.66 0 0 1-.52.23zm-1.52-.4a3.8 3.8 0 0 0-.49-.08h-.49a.86.86 0 0 0-.67.22 1 1 0 0 0-.2.7V70h1.6v.81H158v5.59h-1v-5.56h-.89v-.55L157 70v-1.14a2 2 0 0 1 .46-1.39 1.68 1.68 0 0 1 1.32-.51 3.15 3.15 0 0 1 .61.07 2.73 2.73 0 0 1 .68.24zm-9.93 2.67a1.06 1.06 0 0 0-.62.18 1.54 1.54 0 0 0-.43.46 2.08 2.08 0 0 0-.25.61 2.83 2.83 0 0 0-.08.65h2.78a4.44 4.44 0 0 0-.06-.76 1.64 1.64 0 0 0-.22-.6 1.14 1.14 0 0 0-.43-.4 1.44 1.44 0 0 0-.69-.14zm-1.38 2.75v.8a2 2 0 0 0 .21.73 1.39 1.39 0 0 0 .51.53 1.77 1.77 0 0 0 .93.21 5.61 5.61 0 0 0 .86-.07 4.62 4.62 0 0 0 1-.27l.29.74a5.5 5.5 0 0 1-1 .34 4.78 4.78 0 0 1-1.19.14 3.28 3.28 0 0 1-1.39-.25 2.1 2.1 0 0 1-.85-.7 2.65 2.65 0 0 1-.42-1.06 7.35 7.35 0 0 1-.11-1.32 8 8 0 0 1 .08-1 3.76 3.76 0 0 1 .34-1.13 2.54 2.54 0 0 1 .75-.92 2.13 2.13 0 0 1 1.33-.38 2.74 2.74 0 0 1 1.4.3 1.93 1.93 0 0 1 .76.8 3.16 3.16 0 0 1 .31 1.16q.06.66.06 1.36h-3.87zm-3.26 3V72.3a4.83 4.83 0 0 0 0-.58 1.27 1.27 0 0 0-.15-.47.8.8 0 0 0-.33-.31 1.21 1.21 0 0 0-.56-.11 1.67 1.67 0 0 0-.51.08 3.41 3.41 0 0 0-.46.19 2.75 2.75 0 0 0-.39.23l-.29.22v4.85h-1V67h1v3.69l1-.57a2.14 2.14 0 0 1 .45-.19 1.59 1.59 0 0 1 .45-.08 1.92 1.92 0 0 1 1 .24 1.54 1.54 0 0 1 .56.6 2.18 2.18 0 0 1 .23.79v4.92h-1zm-5.9.19a2.23 2.23 0 0 1-.76-.11 1 1 0 0 1-.47-.34 1.32 1.32 0 0 1-.23-.55 4.37 4.37 0 0 1-.06-.76v-4h-1.12v-.57l1.12-.27.27-1.7h.78V70h1.63v.84h-1.62v3.75a1.55 1.55 0 0 0 .17.84.62.62 0 0 0 .55.24h.55a3.33 3.33 0 0 0 .55-.1l.15.73a2.36 2.36 0 0 1-.48.18l-.44.09h-.58v.06zM131 70l.24.88a4.62 4.62 0 0 1 1-.72 3 3 0 0 1 1.18-.35l.16 1.19c-.55.05-1 .11-1.36.17a7.69 7.69 0 0 0-1 .22v5h-1V70h.78zm-4.47.69a1.06 1.06 0 0 0-.62.18 1.54 1.54 0 0 0-.43.46 2.08 2.08 0 0 0-.25.61 2.83 2.83 0 0 0-.08.65h2.78a4.43 4.43 0 0 0-.06-.76 1.64 1.64 0 0 0-.22-.6 1.14 1.14 0 0 0-.43-.4 1.44 1.44 0 0 0-.71-.14zm-1.38 2.75v.8a2 2 0 0 0 .21.73 1.39 1.39 0 0 0 .51.53 1.77 1.77 0 0 0 .93.21 5.61 5.61 0 0 0 .86-.07 4.62 4.62 0 0 0 1-.27l.34.74a5.5 5.5 0 0 1-1 .34 4.78 4.78 0 0 1-1.19.14 3.29 3.29 0 0 1-1.39-.25 2.1 2.1 0 0 1-.85-.7 2.65 2.65 0 0 1-.43-1.06 7.35 7.35 0 0 1-.11-1.32 8 8 0 0 1 .08-1 3.73 3.73 0 0 1 .34-1.13 2.54 2.54 0 0 1 .75-.92 2.13 2.13 0 0 1 1.33-.38 2.73 2.73 0 0 1 1.4.3 1.92 1.92 0 0 1 .76.8 3.16 3.16 0 0 1 .31 1.16q.06.66.06 1.36h-3.86zm-3 3.15a2.22 2.22 0 0 1-.76-.11 1 1 0 0 1-.47-.34 1.33 1.33 0 0 1-.23-.55 4.37 4.37 0 0 1-.06-.76v-4h-1.12v-.53l1.12-.27.27-1.7h.78V70h1.64v.84h-1.62v3.75a1.55 1.55 0 0 0 .17.84.62.62 0 0 0 .55.24h.58a3.33 3.33 0 0 0 .55-.1l.15.73a2.36 2.36 0 0 1-.48.18l-.44.09h-.58zM119.43 68a3.77 3.77 0 0 0-.49-.08h-.49a.87.87 0 0 0-.67.22 1 1 0 0 0-.2.7V70h1.6v.81h-1.6v5.59h-1v-5.56h-.89v-.55l.89-.26v-1.17a2 2 0 0 1 .46-1.39 1.68 1.68 0 0 1 1.32-.51 3.15 3.15 0 0 1 .64.04 2.73 2.73 0 0 1 .68.24zm-5.81 5.2a7.28 7.28 0 0 0-.76 0 3 3 0 0 0-.8.2 1.79 1.79 0 0 0-.64.43 1 1 0 0 0-.26.74 1.35 1.35 0 0 0 .19.78.8.8 0 0 0 .7.27 1.27 1.27 0 0 0 .38-.07 2.92 2.92 0 0 0 .45-.19l.43-.25a2.1 2.1 0 0 0 .32-.25V73.2zm1.66 3.12a3.73 3.73 0 0 1-.45.14 2 2 0 0 1-.47.06.8.8 0 0 1-.43-.1.74.74 0 0 1-.25-.44l-.07-.25-.69.45a2.7 2.7 0 0 1-.55.29 1.3 1.3 0 0 1-.42.08 2 2 0 0 1-1-.2 1.51 1.51 0 0 1-.55-.49 1.59 1.59 0 0 1-.24-.61 3.8 3.8 0 0 1-.05-.58 1.86 1.86 0 0 1 .27-1 2 2 0 0 1 .73-.68 3.61 3.61 0 0 1 1.1-.39 8 8 0 0 1 1.38-.14V72a1.41 1.41 0 0 0-.24-.88 1.15 1.15 0 0 0-.94-.31 3.64 3.64 0 0 0-.9.11c-.27.07-.53.15-.76.23l-.24-.72a4.39 4.39 0 0 1 1-.4 4 4 0 0 1 1.07-.15 2.1 2.1 0 0 1 1.61.51 2 2 0 0 1 .46 1.36v4h.63v.57zm-10.62-5.08q-.3-.2-.66-.39a1.63 1.63 0 0 0-.79-.19.84.84 0 0 0-.66.29 2 2 0 0 0-.39.68 3.72 3.72 0 0 0-.19.84 7.27 7.27 0 0 0 0 .74 4.56 4.56 0 0 0 .27 1.8 1 1 0 0 0 1 .58 1.34 1.34 0 0 0 .39-.07 2.38 2.38 0 0 0 .41-.17 3.52 3.52 0 0 0 .38-.23 3.24 3.24 0 0 0 .31-.25v-3.61zm.27 5.14l-.25-.66-.65.41a2.21 2.21 0 0 1-1.08.43 1.83 1.83 0 0 1-1.06-.29 2 2 0 0 1-.65-.75 3.38 3.38 0 0 1-.33-1.08 9.14 9.14 0 0 1-.09-1.25 7 7 0 0 1 .1-1.14 3.82 3.82 0 0 1 .35-1.1 2.29 2.29 0 0 1 .7-.82 1.88 1.88 0 0 1 1.14-.33 2.49 2.49 0 0 1 1.56.63V67h1v9.4h-.77zm-7.5-5.71a1.06 1.06 0 0 0-.62.18 1.54 1.54 0 0 0-.43.46 2.08 2.08 0 0 0-.25.61 2.83 2.83 0 0 0-.08.65h2.78a4.43 4.43 0 0 0-.06-.76 1.64 1.64 0 0 0-.22-.6 1.14 1.14 0 0 0-.43-.4 1.44 1.44 0 0 0-.69-.12zm-1.38 2.75v.8a2 2 0 0 0 .21.73 1.38 1.38 0 0 0 .51.53 1.77 1.77 0 0 0 .93.21 5.62 5.62 0 0 0 .86-.07 4.62 4.62 0 0 0 1-.27l.29.74a5.5 5.5 0 0 1-1 .34 4.78 4.78 0 0 1-1.19.14 3.29 3.29 0 0 1-1.39-.25 2.1 2.1 0 0 1-.85-.7 2.65 2.65 0 0 1-.42-1 7.35 7.35 0 0 1-.11-1.32 8 8 0 0 1 .08-1 3.76 3.76 0 0 1 .34-1.13 2.55 2.55 0 0 1 .75-.92 2.13 2.13 0 0 1 1.33-.38 2.73 2.73 0 0 1 1.4.3 1.92 1.92 0 0 1 .76.8 3.18 3.18 0 0 1 .31 1.16q.06.66.06 1.36h-3.87zm-3.37 3v-4.26a2 2 0 0 0-.2-1 .75.75 0 0 0-.72-.36 1.45 1.45 0 0 0-.45.07 2.26 2.26 0 0 0-.43.18 2.89 2.89 0 0 0-.36.24l-.27.22v4.89h-1v-4.8a1.15 1.15 0 0 0-.12-.43.64.64 0 0 0-.27-.27 1 1 0 0 0-.46-.09 1.45 1.45 0 0 0-.43.07 2.13 2.13 0 0 0-.41.17 3.49 3.49 0 0 0-.37.23l-.31.25v4.87h-1V70h.77l.25.66.63-.38.23-.13L88 70l.33-.12a1 1 0 0 1 .3-.05 2.21 2.21 0 0 1 .6.07 1.28 1.28 0 0 1 .41.2 1.39 1.39 0 0 1 .29.29 3.36 3.36 0 0 1 .21.34l.72-.45a3.94 3.94 0 0 1 .6-.31 1.58 1.58 0 0 1 .6-.14 1.77 1.77 0 0 1 .9.2 1.28 1.28 0 0 1 .5.54 2.35 2.35 0 0 1 .21.8 9.75 9.75 0 0 1 0 1v4h-1v.05zm-9.49-3.19a7.28 7.28 0 0 0-.76 0 3 3 0 0 0-.8.2 1.79 1.79 0 0 0-.64.43 1 1 0 0 0-.26.74 1.34 1.34 0 0 0 .19.78.8.8 0 0 0 .7.27 1.27 1.27 0 0 0 .38 0 2.93 2.93 0 0 0 .45-.19l.43-.25a2.09 2.09 0 0 0 .32-.25v-1.74zm1.66 3.12a3.73 3.73 0 0 1-.45.14 2 2 0 0 1-.47.06.8.8 0 0 1-.43-.1.74.74 0 0 1-.25-.45l-.07-.25-.69.45a2.73 2.73 0 0 1-.55.29 1.3 1.3 0 0 1-.42.08 2 2 0 0 1-1-.2 1.51 1.51 0 0 1-.52-.49 1.59 1.59 0 0 1-.24-.61 3.92 3.92 0 0 1-.05-.58 1.86 1.86 0 0 1 .26-1 2 2 0 0 1 .73-.69 3.61 3.61 0 0 1 1.1-.39 8 8 0 0 1 1.38-.14V72a1.41 1.41 0 0 0-.24-.88 1.14 1.14 0 0 0-.94-.35 3.64 3.64 0 0 0-.9.11c-.27.07-.53.15-.76.23l-.24-.72a4.39 4.39 0 0 1 1-.4 4 4 0 0 1 1.07-.15 2.1 2.1 0 0 1 1.61.51 2 2 0 0 1 .47 1.36v4h.63v.66zm-7.32.07V72.3a4.83 4.83 0 0 0 0-.58 1.27 1.27 0 0 0-.15-.47.8.8 0 0 0-.38-.31 1.2 1.2 0 0 0-.56-.11 1.68 1.68 0 0 0-.51.08 3.39 3.39 0 0 0-.46.19 2.7 2.7 0 0 0-.39.23l-.29.22v4.85h-1V70h.77l.25.66 1-.57a2.19 2.19 0 0 1 .43-.19 1.45 1.45 0 0 1 .43-.08 2 2 0 0 1 1 .24 1.54 1.54 0 0 1 .57.6 2.29 2.29 0 0 1 .23.79 7.65 7.65 0 0 1 0 .8v4.15h-1zM115.41 86.85a7.31 7.31 0 0 0-.76 0 3 3 0 0 0-.8.2 1.79 1.79 0 0 0-.64.43 1 1 0 0 0-.26.74 1.35 1.35 0 0 0 .19.78.8.8 0 0 0 .7.27 1.25 1.25 0 0 0 .38-.07 3 3 0 0 0 .44-.19l.43-.25a2.06 2.06 0 0 0 .32-.25v-1.66zm1.66 3.15l-.45.14a2 2 0 0 1-.46.06.8.8 0 0 1-.43-.1.75.75 0 0 1-.24-.45l-.07-.25-.69.45a2.75 2.75 0 0 1-.54.29 1.3 1.3 0 0 1-.43.08 2 2 0 0 1-1-.2 1.5 1.5 0 0 1-.55-.49 1.59 1.59 0 0 1-.21-.63 3.81 3.81 0 0 1-.05-.58 1.86 1.86 0 0 1 .27-1 2.05 2.05 0 0 1 .73-.68 3.6 3.6 0 0 1 1.1-.39 7.87 7.87 0 0 1 1.38-.14v-.51a1.4 1.4 0 0 0-.25-.88 1.14 1.14 0 0 0-.94-.31 3.59 3.59 0 0 0-.9.11l-.76.22-.26-.74a4.37 4.37 0 0 1 1-.4 4 4 0 0 1 1.07-.15A2.1 2.1 0 0 1 116 84a1.94 1.94 0 0 1 .47 1.36v4h.62V90zm-7.58-5.49l-.7-.19v-.67h1.74V90h-1v-5.52zm.39-2.43a.66.66 0 0 1-.49-.21.71.71 0 0 1-.2-.51.69.69 0 0 1 .2-.5.7.7 0 0 1 1 0 .69.69 0 0 1 .2.49.72.72 0 0 1-.2.51.67.67 0 0 1-.51.19zm-4.15 8.17a5.13 5.13 0 0 1-1-.1 3.44 3.44 0 0 1-.8-.24l.27-.79a4 4 0 0 0 .76.23 3.94 3.94 0 0 0 .77.08 1.89 1.89 0 0 0 1-.23.91.91 0 0 0 .37-.84 1 1 0 0 0-.3-.83 2.52 2.52 0 0 0-.94-.45l-.68-.22a1.94 1.94 0 0 1-.57-.3 1.44 1.44 0 0 1-.4-.5 1.79 1.79 0 0 1-.15-.8 1.62 1.62 0 0 1 .2-.83 1.66 1.66 0 0 1 .5-.54 2.09 2.09 0 0 1 .69-.3 3.08 3.08 0 0 1 .74-.09 4.44 4.44 0 0 1 1 .1 3.11 3.11 0 0 1 .66.21l-.24.77a3.59 3.59 0 0 0-.66-.16 4.34 4.34 0 0 0-.64-.05q-1.21 0-1.21.9a.81.81 0 0 0 .09.41.74.74 0 0 0 .25.26 1.76 1.76 0 0 0 .37.17l.45.14.67.23a2 2 0 0 1 .61.36 1.71 1.71 0 0 1 .44.59 2.15 2.15 0 0 1 .17.91 1.94 1.94 0 0 1-.19.88 1.63 1.63 0 0 1-.51.6 2.19 2.19 0 0 1-.76.34 3.85 3.85 0 0 1-1 .06zm-4.65 0a5.14 5.14 0 0 1-1-.1 3.43 3.43 0 0 1-.8-.24l.27-.79a4.08 4.08 0 0 0 .76.23 3.94 3.94 0 0 0 .77.08 1.89 1.89 0 0 0 1-.23.91.91 0 0 0 .37-.84 1 1 0 0 0-.3-.83 2.54 2.54 0 0 0-.94-.45l-.68-.22a2 2 0 0 1-.57-.3 1.45 1.45 0 0 1-.4-.5 1.8 1.8 0 0 1-.15-.8 1.62 1.62 0 0 1 .2-.83 1.64 1.64 0 0 1 .5-.54 2.09 2.09 0 0 1 .68-.3 3.09 3.09 0 0 1 .74-.09 4.44 4.44 0 0 1 1 .1 3.09 3.09 0 0 1 .66.21l-.24.77a3.61 3.61 0 0 0-.66-.16 4.35 4.35 0 0 0-.64-.05q-1.21 0-1.21.9a.82.82 0 0 0 .09.41.74.74 0 0 0 .25.26 1.73 1.73 0 0 0 .37.17l.45.14.67.23a2 2 0 0 1 .61.36 1.71 1.71 0 0 1 .44.59 2.15 2.15 0 0 1 .17.91 1.93 1.93 0 0 1-.19.88 1.63 1.63 0 0 1-.51.6 2.2 2.2 0 0 1-.76.34 3.85 3.85 0 0 1-1 .06zm-6.47-6.56v4.11a5.06 5.06 0 0 0 0 .58 1.27 1.27 0 0 0 .15.47.79.79 0 0 0 .33.31 1.2 1.2 0 0 0 .56.11 1.71 1.71 0 0 0 .51-.08 3.24 3.24 0 0 0 .48-.19 2.67 2.67 0 0 0 .36-.26l.29-.22v-4.86h1V90h-.7l-.25-.66-1 .57a2.24 2.24 0 0 1-.45.19 1.59 1.59 0 0 1-.45.08 1.92 1.92 0 0 1-1-.24 1.55 1.55 0 0 1-.56-.6 2.18 2.18 0 0 1-.23-.79v-4.89h1zm-3.39-.27a1.54 1.54 0 0 0-.16-.74 1.25 1.25 0 0 0-.41-.46 1.57 1.57 0 0 0-.59-.22 3.74 3.74 0 0 0-.66-.06h-1.06v3.27h1.06a1.94 1.94 0 0 0 1.36-.43 1.77 1.77 0 0 0 .46-1.39zm.15 6.58l-1.55-3.91h-1.48V90h-1.09v-9h2.31a4.32 4.32 0 0 1 1.14.14 2.35 2.35 0 0 1 .88.44 2 2 0 0 1 .57.75 2.69 2.69 0 0 1 .2 1.09 2.87 2.87 0 0 1-.51 1.75 2.44 2.44 0 0 1-1.44.92l.84.6L92.62 90h-1.25zm-8-8.39a3.75 3.75 0 0 0-.49-.08h-.49a.87.87 0 0 0-.66.22 1 1 0 0 0-.2.7v1.2h1.6v.81h-1.6V90h-1v-5.53h-.93v-.54l.89-.27v-1.17A2 2 0 0 1 81 81.1a1.68 1.68 0 0 1 1.32-.51 3.08 3.08 0 0 1 .61.07 2.65 2.65 0 0 1 .68.24zm-7 2.67a1.3 1.3 0 0 0-.74.19 1.34 1.34 0 0 0-.45.52 2.6 2.6 0 0 0-.23.78 6.4 6.4 0 0 0-.07.94 7.7 7.7 0 0 0 .07 1 2.88 2.88 0 0 0 .23.83 1.32 1.32 0 0 0 .45.54 1.5 1.5 0 0 0 1.46 0 1.28 1.28 0 0 0 .45-.53 2.85 2.85 0 0 0 .24-.82 7.07 7.07 0 0 0 .07-1 6.39 6.39 0 0 0-.07-.94 2.57 2.57 0 0 0-.24-.79 1.51 1.51 0 0 0-.46-.54 1.22 1.22 0 0 0-.72-.15zm-.05 5.9a2.47 2.47 0 0 1-1.19-.18 2.18 2.18 0 0 1-.79-.71 3.09 3.09 0 0 1-.45-1.06 6 6 0 0 1-.14-1.32 6.13 6.13 0 0 1 .13-1.28 3.15 3.15 0 0 1 .45-1.09 2.31 2.31 0 0 1 .81-.75 2.46 2.46 0 0 1 1.22-.28 2.59 2.59 0 0 1 1.2.26 2.21 2.21 0 0 1 .81.71 3 3 0 0 1 .45 1.06 5.85 5.85 0 0 1 .14 1.3 6 6 0 0 1-.14 1.31 3.19 3.19 0 0 1-.46 1.09 2.31 2.31 0 0 1-.82.75 2.59 2.59 0 0 1-1.23.23zM219.9 76.4v-4.1a4.81 4.81 0 0 0 0-.58 1.26 1.26 0 0 0-.15-.47.79.79 0 0 0-.33-.31 1.21 1.21 0 0 0-.56-.11 1.68 1.68 0 0 0-.51.08 3.35 3.35 0 0 0-.46.19 2.66 2.66 0 0 0-.39.23l-.29.22v4.85h-1V70h.79l.25.66 1-.57a2.41 2.41 0 0 1 .43-.19 1.47 1.47 0 0 1 .43-.08 1.94 1.94 0 0 1 1 .24 1.52 1.52 0 0 1 .57.6 2.27 2.27 0 0 1 .23.79 7.63 7.63 0 0 1 0 .8v4.15h-1zm-7.32-5.71a1.06 1.06 0 0 0-.62.18 1.52 1.52 0 0 0-.43.46 2 2 0 0 0-.25.61 2.79 2.79 0 0 0-.08.65h2.8a4.44 4.44 0 0 0-.06-.76 1.61 1.61 0 0 0-.22-.6 1.13 1.13 0 0 0-.43-.4 1.43 1.43 0 0 0-.72-.14zm-1.38 2.75v.8a2 2 0 0 0 .21.73 1.39 1.39 0 0 0 .51.53 1.76 1.76 0 0 0 .93.21 5.51 5.51 0 0 0 .86-.07 4.58 4.58 0 0 0 1-.27l.3.74a5.56 5.56 0 0 1-1 .34 4.78 4.78 0 0 1-1.19.14 3.29 3.29 0 0 1-1.39-.25 2.11 2.11 0 0 1-.85-.7 2.65 2.65 0 0 1-.42-1.06 7.25 7.25 0 0 1-.11-1.32 7.82 7.82 0 0 1 .08-1 3.72 3.72 0 0 1 .34-1.13 2.52 2.52 0 0 1 .75-.92 2.12 2.12 0 0 1 1.33-.38 2.74 2.74 0 0 1 1.4.3 1.93 1.93 0 0 1 .76.8 3.19 3.19 0 0 1 .31 1.16q.06.66.06 1.36h-3.88zm-3.4-2.18q-.3-.2-.66-.39a1.62 1.62 0 0 0-.79-.19.84.84 0 0 0-.66.29 2 2 0 0 0-.39.68 3.78 3.78 0 0 0-.19.84v.74a4.57 4.57 0 0 0 .27 1.8 1 1 0 0 0 1 .58 1.34 1.34 0 0 0 .39-.07 2.46 2.46 0 0 0 .41-.17 3.8 3.8 0 0 0 .38-.23l.31-.25v-3.63h-.07zm.2 5.14l-.25-.66-.65.41a2.21 2.21 0 0 1-1.08.42 1.82 1.82 0 0 1-1.06-.29 2 2 0 0 1-.65-.75 3.36 3.36 0 0 1-.33-1.08 9 9 0 0 1-.09-1.25 6.89 6.89 0 0 1 .1-1.14 3.76 3.76 0 0 1 .35-1.1 2.29 2.29 0 0 1 .7-.82 1.87 1.87 0 0 1 1.14-.33 2.48 2.48 0 0 1 1.55.62V67h1v9.4H208zm-6.66-5.56l-.7-.19V70h1.74v6.4h-1v-5.55zm.39-2.43a.66.66 0 0 1-.49-.21.71.71 0 0 1-.2-.51.69.69 0 0 1 .2-.5.7.7 0 0 1 1 0 .7.7 0 0 1 .2.49.72.72 0 0 1-.2.51.66.66 0 0 1-.47.23zm-4.15 8.17a5.14 5.14 0 0 1-1-.1 3.44 3.44 0 0 1-.8-.24l.27-.78a4.2 4.2 0 0 0 .76.23 4 4 0 0 0 .77.08 1.88 1.88 0 0 0 1-.23.91.91 0 0 0 .42-.84 1 1 0 0 0-.3-.83 2.52 2.52 0 0 0-.94-.45l-.76-.22a2 2 0 0 1-.57-.31 1.44 1.44 0 0 1-.4-.5 1.79 1.79 0 0 1-.15-.8 1.62 1.62 0 0 1 .2-.83 1.68 1.68 0 0 1 .51-.54 2.09 2.09 0 0 1 .68-.3 3.08 3.08 0 0 1 .74-.09 4.44 4.44 0 0 1 1 .1 3.08 3.08 0 0 1 .66.21l-.24.77a3.59 3.59 0 0 0-.66-.16 4.33 4.33 0 0 0-.64-.05q-1.21 0-1.21.9a.82.82 0 0 0 .05.4.76.76 0 0 0 .25.26 1.8 1.8 0 0 0 .37.17l.45.14.67.23a2 2 0 0 1 .61.36 1.72 1.72 0 0 1 .44.59 2.17 2.17 0 0 1 .17.91 1.93 1.93 0 0 1-.19.88 1.63 1.63 0 0 1-.51.6 2.18 2.18 0 0 1-.76.34 3.85 3.85 0 0 1-.87.11h-.05zm-4.88-5.9a1.06 1.06 0 0 0-.62.18 1.52 1.52 0 0 0-.43.46 2 2 0 0 0-.25.61 2.79 2.79 0 0 0-.08.65h2.78a4.44 4.44 0 0 0-.06-.76 1.63 1.63 0 0 0-.22-.6 1.13 1.13 0 0 0-.43-.4 1.44 1.44 0 0 0-.64-.13h-.05zm-1.38 2.75v.8a1.94 1.94 0 0 0 .21.73 1.38 1.38 0 0 0 .5.53 1.76 1.76 0 0 0 .93.21 5.49 5.49 0 0 0 .86-.07 4.57 4.57 0 0 0 1-.27l.29.74a5.56 5.56 0 0 1-1 .34 4.78 4.78 0 0 1-1.19.14 3.29 3.29 0 0 1-1.39-.25 2.1 2.1 0 0 1-.85-.7 2.62 2.62 0 0 1-.43-1.06 7.25 7.25 0 0 1-.11-1.32 7.82 7.82 0 0 1 .08-1 3.72 3.72 0 0 1 .34-1.13 2.52 2.52 0 0 1 .75-.92 2.12 2.12 0 0 1 1.33-.38 2.74 2.74 0 0 1 1.4.3 1.93 1.93 0 0 1 .76.8 3.19 3.19 0 0 1 .31 1.16q.06.66.06 1.36h-3.85zm-4-3.44l.24.88a4.63 4.63 0 0 1 1-.72 3 3 0 0 1 1.18-.35L190 71c-.55.05-1 .11-1.36.17a8.07 8.07 0 0 0-1 .22v5h-1V70h.68zm-6-1.73v3.35h1a4.68 4.68 0 0 0 .7-.05 1.37 1.37 0 0 0 .59-.23 1.23 1.23 0 0 0 .39-.53 2.42 2.42 0 0 0 .15-1 2 2 0 0 0-.15-.8 1.2 1.2 0 0 0-.4-.48 1.29 1.29 0 0 0-.55-.2 4.33 4.33 0 0 0-.58 0h-1.13zm43.06 8.32a2.2 2.2 0 0 1-.76-.11 1 1 0 0 1-.47-.34 1.3 1.3 0 0 1-.23-.55 4.27 4.27 0 0 1-.06-.76v-4h-1.12v-.52l1.12-.26.27-1.7h.78V70h1.64v.84h-1.64v3.75a1.54 1.54 0 0 0 .17.84.62.62 0 0 0 .55.24h.55a3.33 3.33 0 0 0 .55-.1l.15.73a2.39 2.39 0 0 1-.48.18l-.44.09h-.58zm-43.06-4v3.82h-1.12v-9.1h2.29a7 7 0 0 1 .86.06 2.31 2.31 0 0 1 .9.31 2 2 0 0 1 .71.76 2.85 2.85 0 0 1 .29 1.4 3.11 3.11 0 0 1-.25 1.37 2.28 2.28 0 0 1-.68.84 2.48 2.48 0 0 1-.94.42 5 5 0 0 1-1 .11h-1.06zM173.33 90v-4.11a4.82 4.82 0 0 0 0-.58 1.26 1.26 0 0 0-.15-.47.79.79 0 0 0-.33-.31 1.19 1.19 0 0 0-.56-.11 1.65 1.65 0 0 0-.51.08 3.23 3.23 0 0 0-.46.19 2.69 2.69 0 0 0-.39.23l-.29.22V90h-1v-6.38h.77l.25.66 1-.57a2.25 2.25 0 0 1 .43-.19 1.43 1.43 0 0 1 .43-.08 2 2 0 0 1 1 .24 1.54 1.54 0 0 1 .57.6 2.3 2.3 0 0 1 .23.79 7.59 7.59 0 0 1 0 .8V90h-1zm-6.49-5.56l-.7-.19v-.64h1.74V90h-1v-5.56zm.39-2.44a.66.66 0 0 1-.49-.21.71.71 0 0 1-.2-.51.69.69 0 0 1 .2-.5.7.7 0 0 1 1 0 .7.7 0 0 1 .2.49.71.71 0 0 1-.2.51.66.66 0 0 1-.51.22zm-4.15 8.17a5.13 5.13 0 0 1-1-.1 3.42 3.42 0 0 1-.8-.25l.27-.78a4.08 4.08 0 0 0 .76.23 3.94 3.94 0 0 0 .77.08 1.89 1.89 0 0 0 1-.23.92.92 0 0 0 .37-.84 1 1 0 0 0-.3-.83 2.52 2.52 0 0 0-.94-.45l-.68-.22a2 2 0 0 1-.57-.3 1.45 1.45 0 0 1-.4-.5 1.8 1.8 0 0 1-.15-.8 1.61 1.61 0 0 1 .2-.83 1.66 1.66 0 0 1 .51-.54 2.14 2.14 0 0 1 .68-.3 3.15 3.15 0 0 1 .74-.09 4.43 4.43 0 0 1 1 .1 3.09 3.09 0 0 1 .66.21l-.2.77a3.69 3.69 0 0 0-.66-.16 4.48 4.48 0 0 0-.64-.05q-1.21 0-1.21.9a.82.82 0 0 0 .09.41.75.75 0 0 0 .25.26 1.81 1.81 0 0 0 .37.17l.45.14.67.23a2 2 0 0 1 .61.36 1.72 1.72 0 0 1 .44.59 2.15 2.15 0 0 1 .17.91 1.94 1.94 0 0 1-.19.88 1.63 1.63 0 0 1-.51.6 2.22 2.22 0 0 1-.76.34 3.85 3.85 0 0 1-1 .11zm-3.46 0a2.2 2.2 0 0 1-.76-.11 1 1 0 0 1-.47-.34 1.32 1.32 0 0 1-.23-.55 4.37 4.37 0 0 1-.06-.76v-4H157v-.51l1.12-.27.26-1.7h.78v1.69h1.64v.84h-1.64v3.74a1.55 1.55 0 0 0 .17.84.63.63 0 0 0 .55.24h.55a3.32 3.32 0 0 0 .55-.1l.15.73a2.31 2.31 0 0 1-.48.18l-.44.09h-.6zM155 81.43l-.69-.2v-.64H156V90h-1v-8.57zm-3.69 2.86a1.06 1.06 0 0 0-.62.18 1.51 1.51 0 0 0-.43.46 2.09 2.09 0 0 0-.25.61 2.79 2.79 0 0 0-.08.65h2.78a4.44 4.44 0 0 0-.06-.76 1.64 1.64 0 0 0-.22-.6 1.14 1.14 0 0 0-.43-.4 1.44 1.44 0 0 0-.7-.15zM149.93 87v.8a1.94 1.94 0 0 0 .21.73 1.38 1.38 0 0 0 .51.53 1.77 1.77 0 0 0 .93.21 5.39 5.39 0 0 0 .86-.07 4.57 4.57 0 0 0 1-.27l.29.74a5.48 5.48 0 0 1-1 .34 4.73 4.73 0 0 1-1.19.14 3.29 3.29 0 0 1-1.39-.25 2.1 2.1 0 0 1-.85-.7 2.64 2.64 0 0 1-.43-1.06 7.36 7.36 0 0 1-.11-1.32 8 8 0 0 1 .08-1 3.75 3.75 0 0 1 .34-1.13 2.53 2.53 0 0 1 .82-.89 2.12 2.12 0 0 1 1.33-.38 2.75 2.75 0 0 1 1.39.3 1.93 1.93 0 0 1 .76.8 3.18 3.18 0 0 1 .31 1.16q.06.66.06 1.36H150zm-2.76-6.13h1.24l-2.63 5.22V90h-1.12v-3.84l-2.57-5.25h1.26l1.5 3.35.39.85h.05l.39-.85zm-6.72 9.22a.78.78 0 0 1-.58-.25.85.85 0 0 1 0-1.18.78.78 0 0 1 .58-.25.86.86 0 1 1 0 1.72zM137 88v-7.1h1V90h-1.21l-3-6.54-.32-.8h-.05V90h-1v-9.1h1.33l2.82 6.3.43.8zm-7.49 2.18a.78.78 0 0 1-.59-.25.85.85 0 0 1 0-1.18.78.78 0 0 1 .59-.25.84.84 0 0 1 0 1.63zm-3.23-2.74a1.78 1.78 0 0 0-.15-.76 1.52 1.52 0 0 0-.41-.54 1.75 1.75 0 0 0-.61-.32 2.63 2.63 0 0 0-.76-.11H123v3.39h1.36a3.84 3.84 0 0 0 .77-.07 1.53 1.53 0 0 0 .62-.27 1.3 1.3 0 0 0 .41-.51 2 2 0 0 0 .14-.86zm-.28-4.26a1.21 1.21 0 0 0-.15-.64 1.26 1.26 0 0 0-.39-.41 1.5 1.5 0 0 0-.51-.21 2.59 2.59 0 0 0-.54-.06H123v2.87h1.3a1.91 1.91 0 0 0 1.2-.37 1.4 1.4 0 0 0 .5-1.18zm1.44 4.31a2.7 2.7 0 0 1-.19 1 2.34 2.34 0 0 1-.52.8 2.37 2.37 0 0 1-.78.52 2.53 2.53 0 0 1-1 .19h-3v-9.09h2.64a3.43 3.43 0 0 1 1 .13 2.47 2.47 0 0 1 .81.4 1.9 1.9 0 0 1 .56.68 2.32 2.32 0 0 1-.19 2.26 2 2 0 0 1-1.06.77A2.1 2.1 0 0 1 127 86a2.49 2.49 0 0 1 .41 1.49z" fill="#292929"/><path d="M0 3.7c7.46 0 10.62 5.2 14 10.78l27.43 47.09c1.29 2.35 2.57 5.19 2.57 7.85-.1 6.93-9.09 9.46-14.47 9.73a24.84 24.84 0 0 1-11.33-2.3L16 79.66c1.27 5.43 6.3 12 13.21 12 12-.09 18.31-11.06 23.13-20l8.94-16.56-26-44.51c-2.4-4 1.54-6.87 5.72-6.9L42 0H1z" fill="url(#a)"/><path d="M88.3 0h-3.69v16.71c0 1.86-2 2.69-3.54 2.69s-3.64-.85-3.64-2.69V0h-3.8v17.17c0 3.65 4.14 5.36 7.33 5.36s7.33-1.71 7.33-5.36V0zM100.71 5.77a5.44 5.44 0 0 0-2.92-.83 3.94 3.94 0 0 0-3.31 2 2.5 2.5 0 0 0-1.35-1.71l-2.45 1.23a2.9 2.9 0 0 1 .93 2.18v13.65H95V10.85a2.52 2.52 0 0 1 2.32-2.61 3.58 3.58 0 0 1 2.41.54zM124.24 21.46l-1-2.48c-.79.65-2.23 1-2.23-.65V0h-3.46v18.55c0 2 1 4 3.3 4a6.35 6.35 0 0 0 3.39-1.07M110.68 18.36a3.75 3.75 0 0 1-3.56 1.19 2.18 2.18 0 0 1-1.68-2.06 2.48 2.48 0 0 1 2.32-2.63h2.92v3.5zm4.93 1.37a1.83 1.83 0 0 1-1.4-1.83v-7.19c0-3.53-1.87-5.77-5.85-5.77a8.38 8.38 0 0 0-6 2.32l1.87 2.29A6 6 0 0 1 108 8c1.18 0 2.66.52 2.66 2.11v1.82h-2.9c-4.15 0-5.88 2.63-5.88 5.4s1.46 5.26 5.64 5.26a6.15 6.15 0 0 0 3.94-1.59 5.28 5.28 0 0 0 2.88 1.63zM147.65 0h-13.11v22.29h3.7v-9.9h8.26V9.17h-8.26V3.26h8.64l.77-3.26zM172.82 18.44a3.92 3.92 0 0 1-2.93 1.15c-1.85 0-2.8-1.17-2.8-3V11c0-1.61.76-3 2.47-3.08a3.6 3.6 0 0 1 3.26 1.42v9.09m4.86 1.3c-.54-.22-1.4-.3-1.4-2.08V0h-3.46v6a5.39 5.39 0 0 0-3.19-1.11 6 6 0 0 0-6.07 5.93v6.04a5.54 5.54 0 0 0 5.44 5.66h.41a5.8 5.8 0 0 0 4.16-1.62 5.65 5.65 0 0 0 2.88 1.63zM188.09 10.05v2.12h-5.28V10.3c0-1.52 1.31-2.39 2.83-2.39a2.33 2.33 0 0 1 2.45 2.14M192 20.27l-1.49-2.67a7.41 7.41 0 0 1-4.73 1.83 2.69 2.69 0 0 1-3-2.77v-1.57h8.85v-4.15c0-4.32-2.74-6-6-6-3.77 0-6.4 1.94-6.4 6.19v5.67c0 3.8 2.49 5.71 6.3 5.71a10.56 10.56 0 0 0 6.47-2.24zM203.86 5.77a5.44 5.44 0 0 0-2.92-.83 3.94 3.94 0 0 0-3.31 2 2.5 2.5 0 0 0-1.35-1.71l-2.45 1.27a2.9 2.9 0 0 1 .93 2.18v13.65h3.47V10.85a2.52 2.52 0 0 1 2.32-2.61 3.58 3.58 0 0 1 2.41.54zM213.44 18.36a3.75 3.75 0 0 1-3.55 1.19 2.18 2.18 0 0 1-1.68-2.06 2.48 2.48 0 0 1 2.32-2.63h2.92v3.5zm4.93 1.37A1.83 1.83 0 0 1 217 17.9v-7.19c0-3.53-1.87-5.77-5.85-5.77a8.38 8.38 0 0 0-6 2.32L207 9.55A6 6 0 0 1 210.78 8c1.18 0 2.66.52 2.66 2.11v1.82h-2.9c-4.15 0-5.88 2.63-5.88 5.4s1.46 5.26 5.64 5.26a6.15 6.15 0 0 0 3.94-1.59 5.28 5.28 0 0 0 2.88 1.63zM226.66 21.46l-1-2.48c-.79.65-2.23 1-2.23-.65V0H220v18.55c0 2 1 4 3.3 4a6.35 6.35 0 0 0 3.39-1.07M157.45 10.05v2.12h-5.28V10.3c0-1.52 1.31-2.39 2.83-2.39a2.33 2.33 0 0 1 2.45 2.14m4 10.22l-1.49-2.67a7.41 7.41 0 0 1-4.73 1.83 2.69 2.69 0 0 1-3-2.77v-1.57H161v-4.15c0-4.32-2.74-6-6-6-3.77 0-6.4 1.94-6.4 6.19v5.67c0 3.8 2.49 5.71 6.3 5.71a10.56 10.56 0 0 0 6.5-2.24zM197.28 34.25h-3.85l-3.49 13.24a8.46 8.46 0 0 0-.38-2.42l-3-10.82h-3.92s4.56 14.43 5.64 17a4.61 4.61 0 0 1-4.33 4l.34 2.59c3.92 0 6.14-2.11 7-4.72zM104.52 39.26c0-3.2-2.28-5.33-5.59-5.32a7.82 7.82 0 0 0-4.71 1.52 4.25 4.25 0 0 0-1.14-1.31l-2.6 1.24a2.88 2.88 0 0 1 .83 2.25v13.61h3.5V38.46a5 5 0 0 1 3.41-1.62c1.81 0 2.73 1.2 2.73 2.94v11.47h3.57v-12zM111.35 34.25h-3.46v17h3.46v-17zm.43-5.08a2.13 2.13 0 0 0-2.09-2.17h-.05a2.16 2.16 0 1 0 2.14 2.18zM127.44 34.25h-3.57l-3.3 11.44a4.46 4.46 0 0 0-.11.54 4.62 4.62 0 0 1-.09.65 2.8 2.8 0 0 1-.06.55.25.25 0 0 0 0 .23v-.23a1.68 1.68 0 0 0-.07-.55 4.87 4.87 0 0 1-.1-.65 4.85 4.85 0 0 1-.14-.54l-3-11.44h-3.64l5 17h3.74zM165.19 36.14a6.67 6.67 0 0 0-5.11-2.23c-2.68 0-5.56 1.37-5.89 4.26a4.22 4.22 0 0 0 .23 2c.75 1.94 2.65 2.66 4.42 3.34s3.39 1 3.38 3c0 1.38-1.59 2-2.84 2a4.69 4.69 0 0 1-3.5-1.62l-2 2.28a7.31 7.31 0 0 0 5.39 2.37c3.37 0 6.62-1.67 6.51-5.33-.09-3-2.45-4.13-5.12-5.07-1.29-.45-3.1-.84-3-2.51A2.14 2.14 0 0 1 160 36.8a4 4 0 0 1 3.09 1.33z" fill="#292929"/><path d="M185.66 34.25h-6v-5.08l-3.5 1.28v3.8h-2.28V37h2.28v10.66c0 1.9 1.11 3.8 3.35 3.82a6.14 6.14 0 0 0 3.35-1.1l-1-2.48c-.75.59-2.22 1-2.22-.61V37h5.47zM137.34 39.06v2.12h-5.28V39.3c0-1.52 1.31-2.39 2.83-2.39a2.33 2.33 0 0 1 2.45 2.14m4 10.22l-1.54-2.67a7.42 7.42 0 0 1-4.73 1.83 2.69 2.69 0 0 1-3-2.77V44.1h8.85V40c0-4.32-2.74-6-6-6-3.77 0-6.4 1.94-6.4 6.19v5.67c0 3.8 2.49 5.71 6.3 5.71a10.56 10.56 0 0 0 6.47-2.24zM153.27 34.74a5.44 5.44 0 0 0-2.92-.83 3.94 3.94 0 0 0-3.31 2 2.5 2.5 0 0 0-1.35-1.71l-2.45 1.27a2.9 2.9 0 0 1 .93 2.18V51.3h3.46V39.82a2.52 2.52 0 0 1 2.32-2.61 3.58 3.58 0 0 1 2.41.54zM171.53 34.25h-3.47v17h3.47v-17zm.47-5.08a2.13 2.13 0 0 0-2.13-2.17h-.05a2.16 2.16 0 1 0 2.18 2.18zM88.3 29h-3.69v16.72c0 1.86-2 2.7-3.54 2.7s-3.64-.85-3.64-2.7V29h-3.8v17.18c0 3.65 4.14 5.36 7.33 5.36s7.33-1.71 7.33-5.36V29z" fill="#292929"/></svg>