<svg xmlns="http://www.w3.org/2000/svg" width="300" height="100" viewBox="0 150 700 300"><path d="M20.7 378.7h600" fill="none" stroke="#000" stroke-width=".525"/><radialGradient id="a" cx="-1422.259" cy="134.811" r="2.2" gradientTransform="translate(47647.95 -4219.178) scale(33.4353)" gradientUnits="userSpaceOnUse"><stop offset="0" stop-color="#0970b3"/><stop offset="1" stop-color="#48a2d7"/></radialGradient><path fill="url(#a)" d="M167.9 288.3l-74 74-73.2-74 73.2-74.1z"/><ellipse transform="rotate(-45.001 94.791 308.266)" cx="94.8" cy="308.3" rx="5.2" ry="5.2" fill="#fff"/><path d="M26.8 393.9L38 419.4l11.3-25.5 6.1 32.5h-3.5L48 405.6l-10 22.1-10-22.1-3.9 20.8h-3.5l6.2-32.5zM67.5 395.6h16v3H70.9v9.1H83v3H70.9v12.1h12.6v3.5h-16v-30.7zM101.2 422.9h8.7v3.5H98.2v-30.7h3v27.2zM121.6 395.6h5.2c5.6 0 10.4 2.2 10.4 8.2 0 2.6-.9 4.8-3 6.1 3.5.9 5.6 4.3 5.6 7.8 0 6.1-4.8 8.7-10.8 8.7h-7l-.4-30.8zM125 409h1.3c3.9 0 7.4-.4 7.4-5.2s-3-5.2-6.9-5.2h-1.3V409h-.5zm0 13.9h3.5c3.9 0 7.8-.9 7.8-5.6s-4.8-5.6-8.2-5.6h-3c-.1-.1-.1 11.2-.1 11.2zM183.5 410.8c0 8.7-7.4 16-16 16s-16-6.9-16-16c0-8.7 7.4-16 16-16 9 .4 16 7.3 16 16zm-28.6 0c0 6.9 5.6 12.6 12.6 12.6 6.9 0 12.6-5.6 12.6-12.6 0-6.9-5.6-12.6-12.6-12.6s-12.6 5.7-12.6 12.6zM199.9 413.8c0 2.2 0 4.8 1.3 6.9 1.3 1.7 3.9 3 6.1 3s4.8-.9 6.1-2.6c1.7-2.2 1.3-4.8 1.3-6.9V396h3.5v19c0 3.5-.4 6.1-2.6 8.7-2.2 2.2-5.2 3.5-8.2 3.5s-6.1-1.3-7.8-3c-2.6-2.6-3-5.2-3-8.7v-19h3.5v17.3zM236.7 426.4h-3.5v-30.7h4.3c5.6 0 11.3 1.7 11.3 8.7 0 4.8-3 8.2-7.8 8.7l10 13.9h-4.3l-9.1-13.4h-.9v12.8zm0-16.5h.9c3.9 0 7.8-.9 7.8-5.6 0-5.2-3.9-5.6-7.8-5.6h-.9v11.2zM264 394.3l23.8 25.1v-23.8h3.5v32l-23.8-25.1v23.8H264v-32zM306 395.6h16v3h-12.6v9.1h12.1v3h-12.1v12.1H322v3.5h-16v-30.7zM361 417.7l-3.9 8.7h-3.9l14.3-32 13.9 32h-3.9l-3.5-8.7h-13zm6.9-15.6l-5.2 12.1h10.4l-5.2-12.1zM396 413.8c0 2.2 0 4.8 1.3 6.9 1.3 1.7 3.9 3 6.1 3 2.2 0 4.8-.9 6.1-2.6 1.7-2.2 1.3-4.8 1.3-6.9V396h3.5v19c0 3.5-.4 6.1-2.6 8.7-2.2 2.2-5.2 3.5-8.2 3.5s-6.1-1.3-7.8-3c-2.6-2.6-3-5.2-3-8.7v-19h3.5l-.2 17.3zM442.8 401.7c-1.3-2.2-2.6-3.5-5.2-3.5s-5.2 2.2-5.2 4.8c0 2.6 2.6 3.9 4.8 4.8l2.2.9c3.9 1.7 7.4 3.9 7.4 8.7 0 5.2-4.3 9.5-9.5 9.5-4.8 0-8.7-3-9.5-7.8l3.5-.9c.4 3 3 5.6 6.1 5.6 3.5 0 6.5-2.6 6.5-6.1 0-3.5-2.6-4.8-5.6-6.1l-1.7-.9c-3.5-1.7-6.5-3.5-6.5-7.8 0-4.8 3.9-7.8 8.7-7.8 3.5 0 6.5 1.7 7.8 4.8l-3.8 1.8zM468.3 426.4h-3.5v-27.3h-7.4v-3h18.2v3h-7.4v27.3zM491.3 426.4h-3.5v-30.7h4.3c5.6 0 11.3 1.7 11.3 8.7 0 4.8-3 8.2-7.8 8.7l10 13.9h-4.3l-9.1-13.4h-.9v12.8zm0-16.5h.9c3.9 0 7.8-.9 7.8-5.6 0-5.2-3.9-5.6-7.8-5.6h-.9v11.2zM522.9 417.7l-3.9 8.7h-3.9l14.3-32 13.9 32h-3.9l-3.5-8.7h-13zm6.5-15.6l-5.2 12.1h10.4l-5.2-12.1zM558.8 422.9h8.7v3.5h-11.7v-30.7h3.5V423h-.5zM582.6 426.4h-3.5v-30.7h3.5v30.7zM600.4 417.7l-3.9 8.7h-3.9l14.3-32 13.9 32h-3.9l-3.5-8.7h-13zm6.4-15.6l-5.2 12.1H612l-5.2-12.1zM220.3 234.6l9.9 33.8 10-33.8h23.4l-23.4 61.5h-19.5l-23.4-61.5zM267.9 234.6H290v61.5h-22.1zM338.9 258c-3.5-3-6.9-4.8-10.8-4.8-6.9 0-12.1 5.2-12.1 12.1 0 6.9 5.2 12.1 12.1 12.1 3.9 0 7.4-1.3 11.3-3.9v21.6c-6.1 1.7-10 2.2-13.9 2.2-18.2 0-32-13.4-32-31.2 0-18.2 14.3-32.5 31.6-32.5 3 0 6.5.4 9.5 1.3 1.3.4 2.2.4 4.3 1.3V258zM344.5 234.6h46.3v19.9l-12.1-.4v42h-22.1v-42.5l-12.1.5zM392.6 265.3c0 19 13.4 32 33.3 32s33.3-13 33.3-32-13.4-32-33.3-32-33.3 13-33.3 32zm33.3-12.1c6.1 0 10.8 5.2 10.8 12.1 0 7.4-4.3 12.6-10.8 12.6s-10.8-5.2-10.8-12.1c0-7 4.3-12.6 10.8-12.6zM464.9 296.1H487v-14.3-2.2c-.4-2.2-.4-3.5-.9-6.9 1.3 3 2.2 4.3 2.6 6.1l.9 1.7 7.4 15.2h25.5l-16-23.8c7.4-2.6 11.3-7.8 11.3-16.5 0-12.1-10-20.8-23.8-20.8h-29v61.5zm22-45.1h3c3.5 0 6.1 2.2 6.1 5.2 0 3.5-2.2 5.6-6.1 5.6h-3V251zM527.6 234.6h22.1v61.5h-22.1zM552.7 296.1h22.9l2.2-7.8h16.9l2.2 7.8h22.9L599 234.6h-25.1l-21.2 61.5zm33.8-40.7l4.8 18.2h-9.5l4.7-18.2zM246.7 342.8c0 2.6-.4 5.2-.9 7.4-2.2 8.2-10 13-21.6 13-6.5 0-12.6-1.7-16.5-4.8-3.9-3.5-6.1-8.2-6.1-15.6v-29.9H219V341c0 2.6 0 3.9.4 4.8.4 1.7 2.6 2.6 4.3 2.6 1.3 0 2.2-.4 3-.9 1.3-.9 1.7-2.2 1.7-6.1v-28.6h18.2v30h.1zM252.7 312.5h17.4l15.1 25.5v-25.5h17.3v48.9h-18.2L270.1 338v23.4h-17.4zM308.1 312.5h17.3v48.9h-17.3zM346.2 312.5l7.8 27.7 8.3-27.7h18.1l-18.6 48.9h-15.1l-19.1-48.9zM382.6 312.5h32.5v13.4h-15.2v4.8h13.9v12.5h-13.9v4.8h15.6v13.4h-32.9zM419.8 361.4h17.7v-11.3-1.7c0-1.7-.4-3-.9-5.2.9 2.6 1.7 3.5 2.2 4.8l.9 1.3 6.1 12.1h20.3l-12.6-19c6.1-2.2 9.1-6.5 9.1-13 0-9.5-7.8-16.5-19-16.5h-22.9v48.5h-.9zm17.8-35.5h2.2c3 0 4.8 1.7 4.8 4.3s-1.7 4.3-4.8 4.3h-2.2v-8.6zM470.9 344.5c4.3 3.5 8.2 5.2 12.1 5.2 2.6 0 4.3-1.3 4.3-3 0-.9-.9-1.7-1.7-2.2-.4-.4-1.3-.4-3.9-.9-3-.4-4.3-.9-5.6-1.3-5.6-1.7-8.7-6.5-8.7-12.6 0-10 8.7-17.3 20.8-17.3 5.6 0 10.4 1.3 16 4.3l-4.8 12.6c-3.5-2.6-6.5-3.9-10-3.9-2.6 0-3.9.9-3.9 2.6 0 1.3.9 2.2 3.9 2.6l3 .9c3.5.9 5.2 1.3 6.9 2.6 3.9 2.2 6.5 6.5 6.5 11.7 0 10.4-8.7 17.3-21.2 17.3-4.8 0-9.5-.9-13.9-2.6-1.7-.4-2.6-.9-4.8-2.2l5-13.8zM508.6 312.5h17.3v48.9h-17.3zM529.8 312.5H567V329l-9.9-.9v33.3h-17.4v-33.3l-9.9.9zM588.2 312.5l5.7 13 5.6-13h19.9L603 340.6v20.8h-17.8v-20.8l-16.4-28.1z"/></svg>