<svg xmlns="http://www.w3.org/2000/svg" width="60" height="60" viewBox="0 0 60 60" fill="none">
<g clip-path="url(#clip0_3829_1122)">
<path d="M59.8809 30.515C59.6358 25.2085 57.3557 20.2003 53.5135 16.5315C49.6718 12.8628 44.5635 10.8157 39.251 10.8157C33.9385 10.8157 28.8306 12.8629 24.9885 16.5315C21.1463 20.2002 18.8657 25.2084 18.6211 30.515H15.6966L12.9353 26.0616C12.7613 25.7814 12.4554 25.6112 12.1257 25.6112H3.72385C3.37822 25.6112 3.05971 25.7983 2.89181 26.1004C2.72391 26.4021 2.73232 26.7716 2.91473 27.0653L5.6639 31.4973L2.91473 35.9301V35.9297C2.73233 36.2234 2.7239 36.5929 2.89181 36.8945C3.05971 37.1967 3.37822 37.3838 3.72385 37.3838H12.1257C12.4554 37.3838 12.7613 37.2135 12.9353 36.9334L15.734 32.4196H18.6211V32.42C18.876 37.8894 21.2926 43.0337 25.3397 46.7221C29.3867 50.4104 34.7325 52.3401 40.202 52.0875C45.6714 51.8349 50.817 49.4211 54.5076 45.3754C58.1973 41.3303 60.1299 35.9853 59.8801 30.5155L59.8809 30.515ZM11.5964 35.4793H5.43347L7.29399 32.4798H13.4541L11.5964 35.4793ZM7.29686 30.515L5.43359 27.5156H11.5966L13.4571 30.515H7.29686ZM39.3001 50.217C34.4883 50.2231 29.8586 48.3788 26.369 45.0661C22.8791 41.7533 20.7968 37.2255 20.5527 32.42H24.4425C24.7755 37.6031 27.7913 42.2361 32.3963 44.6386C37.0014 47.0412 42.5263 46.8635 46.9677 44.1709C51.4091 41.4784 54.1217 36.6619 54.1217 31.4674C54.1217 26.2735 51.4091 21.4572 46.9677 18.765C42.5259 16.0724 37.001 15.8951 32.3963 18.2973C27.7917 20.6994 24.7756 25.3325 24.4425 30.5159H20.5527C20.8024 25.6064 22.9707 20.9916 26.5903 17.6651C30.2094 14.3388 34.9907 12.5671 39.9045 12.7313C44.8172 12.8959 49.4695 14.9837 52.8583 18.5449C56.2473 22.106 58.1018 26.8555 58.0227 31.7705C57.9437 36.6856 55.9372 41.3734 52.436 44.8237C48.9343 48.2739 44.2175 50.2107 39.3014 50.2173L39.3001 50.217ZM39.2505 30.5162L38.2754 30.5158C38.6607 30.1196 39.2468 29.9943 39.7603 30.1982C40.2738 30.4026 40.6138 30.896 40.6218 31.4483C40.6297 32.0012 40.3037 32.5044 39.7963 32.7229C39.2888 32.9418 38.6995 32.8333 38.3033 32.4483L38.2758 32.4207H39.2509H39.2504C39.5035 32.4212 39.7462 32.3211 39.9253 32.1425C40.1045 31.9638 40.205 31.7211 40.205 31.468C40.205 31.2155 40.1045 30.9727 39.9253 30.7941C39.7462 30.6154 39.5035 30.5153 39.2504 30.5158L39.2505 30.5162ZM40.2229 34.5965C41.322 34.2621 42.1643 33.3758 42.4431 32.2612C42.7218 31.1472 42.3949 29.9681 41.583 29.1561C40.7705 28.3437 39.5919 28.0172 38.4778 28.296C37.3633 28.5743 36.477 29.4171 36.1421 30.5157H32.1619C32.487 28.0935 34.0257 26.0042 36.2427 24.9748C38.4596 23.9455 41.0484 24.1185 43.1091 25.4337C45.1693 26.7483 46.4162 29.0237 46.4162 31.4679C46.4162 33.9126 45.1693 36.188 43.1091 37.5027C41.0484 38.8178 38.4596 38.9909 36.2427 37.9615C34.0257 36.9321 32.487 34.8428 32.1619 32.4206H36.1426H36.1421C36.3947 33.2499 36.9667 33.9453 37.7318 34.3537C38.4969 34.7615 39.3931 34.849 40.2229 34.5965ZM40.2042 40.482V40.4816C42.4852 40.2407 44.5898 39.1434 46.0944 37.412C47.5985 35.6801 48.3904 33.4426 48.3099 31.1503C48.2295 28.8577 47.2824 26.681 45.6608 25.0595C44.0388 23.4374 41.8621 22.4908 39.5695 22.4104C37.2772 22.3299 35.0398 23.1213 33.3078 24.6254C31.5764 26.13 30.4792 28.2347 30.2383 30.5156H26.3465C26.6785 26.0144 29.33 22.0109 33.3447 19.9483C37.3594 17.8862 42.1581 18.0625 46.0112 20.4146C49.8632 22.7668 52.2134 26.9545 52.2134 31.4678C52.2134 35.9816 49.8632 40.1695 46.0112 42.5215C42.1587 44.8732 37.36 45.0499 33.3447 42.9878C29.33 40.9252 26.6785 36.9217 26.3465 32.42H30.2383C30.4908 34.8109 31.6825 37.003 33.5515 38.5146C35.4205 40.0262 37.8137 40.7338 40.204 40.4813L40.2042 40.482Z" fill="#B75400"/>
<path d="M22.9854 51.0456H21.2922C20.6997 51.0456 20.2193 51.5259 20.2193 52.1185C20.2193 52.7111 20.6997 53.1914 21.2922 53.1914H22.9854C23.5775 53.1914 24.0578 52.7111 24.0578 52.1185C24.0578 51.5259 23.5775 51.0456 22.9854 51.0456Z" fill="#B75400"/>
<path d="M17.6861 51.0456H12.4375C11.8449 51.0456 11.3646 51.5259 11.3646 52.1185C11.3646 52.7111 11.8449 53.1914 12.4375 53.1914H17.6861C18.2786 53.1914 18.759 52.7111 18.759 52.1185C18.759 51.5259 18.2786 51.0456 17.6861 51.0456Z" fill="#B75400"/>
<path d="M18.0285 43.5335C18.0285 43.2491 17.9158 42.9765 17.7142 42.7749C17.5131 42.5738 17.2404 42.4611 16.9556 42.4611H5.4333C5.148 42.4601 4.87439 42.5728 4.67281 42.774C4.47122 42.9755 4.35757 43.2487 4.35757 43.534C4.35757 43.8188 4.47123 44.092 4.67281 44.2935C4.87439 44.4947 5.148 44.6074 5.4333 44.6064H16.9556C17.2404 44.6064 17.5131 44.4937 17.7142 44.2926C17.9158 44.091 18.0285 43.8183 18.0285 43.5335Z" fill="#B75400"/>
<path d="M2.17479 42.4607H0.787575C0.502277 42.4598 0.228665 42.5725 0.0270837 42.7736C-0.174497 42.9752 -0.288147 43.2483 -0.288147 43.5337C-0.288147 43.8185 -0.174495 44.0916 0.0270837 44.2932C0.228665 44.4943 0.502277 44.607 0.787575 44.6061H2.17479C2.76597 44.6047 3.2449 44.1248 3.2449 43.5337C3.2449 42.942 2.76597 42.4621 2.17479 42.4607Z" fill="#B75400"/>
<path d="M10.495 19.5104H18.3627C18.648 19.5109 18.9216 19.3982 19.1232 19.1971C19.3248 18.9955 19.4384 18.7224 19.4384 18.4375C19.4384 18.1522 19.3248 17.8791 19.1232 17.678C18.9216 17.4764 18.648 17.3637 18.3627 17.3646H10.495C10.2097 17.3637 9.93609 17.4764 9.73451 17.678C9.53293 17.8791 9.41928 18.1522 9.41928 18.4375C9.41928 18.7224 9.53293 18.9955 9.73451 19.1971C9.93609 19.3982 10.2097 19.5109 10.495 19.5104Z" fill="#B75400"/>
<path d="M3.7085 19.5104H6.45672C6.74202 19.5109 7.01563 19.3982 7.21721 19.1971C7.41926 18.9955 7.53244 18.7224 7.53244 18.4375C7.53244 18.1522 7.41926 17.8791 7.21721 17.678C7.01563 17.4764 6.74202 17.3637 6.45672 17.3646H3.7085C3.42367 17.3637 3.15006 17.4764 2.94801 17.678C2.74643 17.8791 2.63278 18.1522 2.63278 18.4375C2.63278 18.7224 2.74643 18.9955 2.94801 19.1971C3.15006 19.3982 3.42367 19.5109 3.7085 19.5104Z" fill="#B75400"/>
<path d="M16.0817 9.6565H27.3145C27.9066 9.6565 28.3874 9.17617 28.3874 8.58359C28.3874 7.99101 27.9066 7.51068 27.3145 7.51068H16.0817C15.4891 7.51068 15.0088 7.99101 15.0088 8.58359C15.0088 9.17617 15.4891 9.6565 16.0817 9.6565Z" fill="#B75400"/>
<path d="M10.6722 9.6565H12.7366C13.3292 9.6565 13.8095 9.17617 13.8095 8.58359C13.8095 7.99101 13.3292 7.51068 12.7366 7.51068H10.6722C10.0796 7.51068 9.59924 7.99101 9.59924 8.58359C9.59924 9.17617 10.0796 9.6565 10.6722 9.6565Z" fill="#B75400"/>
</g>
<defs>
<clipPath id="clip0_3829_1122">
<rect width="60" height="60" fill="white"/>
</clipPath>
</defs>
</svg>
