<svg xmlns="http://www.w3.org/2000/svg" width="60" height="60" viewBox="0 0 60 60" fill="none">
<path d="M12.481 6.60897C12.1058 6.60897 11.8014 6.91333 11.8014 7.28861V8.09156H8.44383C7.993 8.09156 7.62698 8.45721 7.62698 8.9084V45.8955C7.62734 49.5796 10.6243 52.5765 14.3079 52.5765H46.319C50.0027 52.5765 53 49.5796 53 45.8955C53 45.4443 52.6343 45.0787 52.1831 45.0787L44.1383 45.079V8.90848C44.1383 8.45729 43.7727 8.09163 43.3215 8.09163H40.0583V7.28868C40.0583 6.9134 39.754 6.60904 39.3787 6.60904C39.0034 6.60904 38.699 6.9134 38.699 7.28868V8.09163H36.2157V7.28868C36.2157 6.9134 35.9113 6.60904 35.536 6.60904C35.1608 6.60904 34.8564 6.9134 34.8564 7.28868V8.09163H32.3731V7.28868C32.3731 6.9134 32.0687 6.60904 31.6934 6.60904C31.3181 6.60904 31.0138 6.9134 31.0138 7.28868V8.09163H28.5301L28.5304 7.28868C28.5304 6.9134 28.2261 6.60904 27.8508 6.60904C27.4755 6.60904 27.1711 6.9134 27.1711 7.28868V8.09163H24.6874L24.6878 7.28868C24.6878 6.9134 24.3834 6.60904 24.0081 6.60904C23.6329 6.60904 23.3285 6.9134 23.3285 7.28868V8.09163H20.8448L20.8451 7.28868C20.8451 6.9134 20.5408 6.60904 20.1655 6.60904C19.7902 6.60904 19.4859 6.9134 19.4859 7.28868V8.09163H17.0021L17.0025 7.28868C17.0025 6.9134 16.6981 6.60904 16.3229 6.60904C15.9476 6.60904 15.6432 6.9134 15.6432 7.28868V8.09163H13.1595L13.1599 7.28868C13.1599 6.91375 12.8555 6.60904 12.4806 6.60904L12.481 6.60897ZM51.3011 46.7127C50.9098 49.1091 48.8249 50.9434 46.3194 50.9434H18.6804C19.8995 49.886 20.7332 48.3948 20.9395 46.7127H51.3011ZM15.6442 9.7256V10.1041C15.6442 10.479 15.9482 10.7837 16.3238 10.7837C16.6988 10.7837 17.0035 10.4794 17.0035 10.1041V9.7256H19.4872V10.1041C19.4872 10.479 19.7912 10.7837 20.1668 10.7837C20.5421 10.7837 20.8465 10.4794 20.8465 10.1041V9.7256H23.3302V10.1041C23.3302 10.479 23.6342 10.7837 24.0098 10.7837C24.3851 10.7837 24.6895 10.4794 24.6895 10.1041V9.7256H27.1732V10.1041C27.1732 10.479 27.4772 10.7837 27.8528 10.7837C28.2281 10.7837 28.5325 10.4794 28.5325 10.1041V9.7256H31.0162V10.1041C31.0162 10.479 31.3202 10.7837 31.6958 10.7837C32.0707 10.7837 32.3755 10.4794 32.3755 10.1041V9.7256H34.8592V10.1041C34.8592 10.479 35.1632 10.7837 35.5388 10.7837C35.9137 10.7837 36.2184 10.4794 36.2184 10.1041V9.7256H38.7022V10.1041C38.7022 10.479 39.0062 10.7837 39.3818 10.7837C39.7567 10.7837 40.0614 10.4794 40.0614 10.1041V9.7256H42.508V45.0796H20.1725C19.7217 45.0796 19.3557 45.4453 19.3557 45.8964C19.3557 48.6795 17.0912 50.944 14.3081 50.944C11.525 50.944 9.26057 48.6799 9.26057 45.8964L9.26092 9.72588H11.8017V10.1044C11.8017 10.4793 12.1057 10.784 12.4813 10.784C12.8562 10.784 13.1609 10.4796 13.1609 10.1044V9.72588L15.6442 9.7256Z" fill="#B75400"/>
<path d="M36.7043 31.679H16.0384C15.5875 31.679 15.2215 32.0447 15.2215 32.4959C15.2215 32.9471 15.5872 33.3127 16.0384 33.3127H36.7043C37.1551 33.3127 37.5211 32.9471 37.5211 32.4959C37.5211 32.0447 37.1551 31.679 36.7043 31.679Z" fill="#B75400"/>
<path d="M36.7043 27.182H16.0384C15.5875 27.182 15.2215 27.5476 15.2215 27.9988C15.2215 28.45 15.5872 28.8157 16.0384 28.8157H36.7043C37.1551 28.8157 37.5211 28.45 37.5211 27.9988C37.5211 27.5476 37.1551 27.182 36.7043 27.182Z" fill="#B75400"/>
<path d="M36.7043 36.1131H16.0384C15.5875 36.1131 15.2215 36.4788 15.2215 36.93C15.2215 37.3811 15.5872 37.7468 16.0384 37.7468H36.7043C37.1551 37.7468 37.5211 37.3811 37.5211 36.93C37.5211 36.4788 37.1551 36.1131 36.7043 36.1131Z" fill="#B75400"/>
<path d="M25.8326 40.5472H16.0384C15.5875 40.5472 15.2215 40.9128 15.2215 41.364C15.2215 41.8152 15.5872 42.1809 16.0384 42.1809H25.8326C26.2834 42.1809 26.6494 41.8152 26.6494 41.364C26.6491 40.9125 26.2834 40.5472 25.8326 40.5472Z" fill="#B75400"/>
<path d="M15.8869 23.7533H17.1966C17.4703 23.7533 17.7255 23.6161 17.8773 23.388L20.3998 19.585L22.273 21.7415C22.4198 21.9097 22.6287 22.0109 22.8514 22.0216C23.0752 22.0288 23.2916 21.9507 23.4534 21.7968L30.1289 15.4306L33.3233 20.3523C33.4737 20.5843 33.7317 20.7244 34.0079 20.7244H37.3932C37.8441 20.7244 38.2101 20.3587 38.2101 19.9075C38.2101 19.4563 37.8444 19.0907 37.3932 19.0907H34.4512L30.9622 13.7149C30.8303 13.511 30.614 13.3763 30.3727 13.3481C30.1264 13.3182 29.8887 13.4005 29.7137 13.5684L22.9445 20.0244L20.9287 17.7036C20.7612 17.5111 20.5114 17.4067 20.2594 17.4242C20.0046 17.4409 19.7722 17.5753 19.6314 17.7877L16.7582 22.1196H15.8869C15.436 22.1196 15.07 22.4852 15.07 22.9364C15.07 23.3876 15.436 23.7533 15.8869 23.7533L15.8869 23.7533Z" fill="#B75400"/>
</svg>
