<svg xmlns="http://www.w3.org/2000/svg" width="40" height="40" viewBox="0 0 40 40" fill="none">
<path d="M14 12.2856V27.7142H19.1429V24.7142H20.8571V27.7142H26V12.2856H14ZM15.7143 13.9999H17.4286V15.7142H15.7143V13.9999ZM19.1429 13.9999H20.8571V15.7142H19.1429V13.9999ZM22.5714 13.9999H24.2857V15.7142H22.5714V13.9999ZM15.7143 17.4285H17.4286V19.1428H15.7143V17.4285ZM19.1429 17.4285H20.8571V19.1428H19.1429V17.4285ZM22.5714 17.4285H24.2857V19.1428H22.5714V17.4285ZM15.7143 20.8571H17.4286V22.5714H15.7143V20.8571ZM19.1429 20.8571H20.8571V22.5714H19.1429V20.8571ZM22.5714 20.8571H24.2857V22.5714H22.5714V20.8571ZM15.7143 24.2856H17.4286V25.9999H15.7143V24.2856ZM22.5714 24.2856H24.2857V25.9999H22.5714V24.2856Z" fill="black" fill-opacity="0.38"/>
</svg>
