<svg xmlns="http://www.w3.org/2000/svg" width="60" height="60" viewBox="0 0 60 60" fill="none">
<path d="M48.1767 27.3656C49.4394 27.3652 50.6498 26.8638 51.5424 25.9709C52.4345 25.078 52.9358 23.8675 52.9358 22.6052C52.9354 21.3426 52.434 20.1321 51.5411 19.2396C50.6486 18.347 49.4381 17.8457 48.1754 17.8457C46.9132 17.8457 45.7027 18.3475 44.8102 19.24C43.9172 20.1325 43.4159 21.343 43.4159 22.6056C43.4171 23.8675 43.9193 25.0779 44.8119 25.9701C45.7044 26.8626 46.9149 27.3643 48.1767 27.3656ZM48.1767 19.7274C48.9401 19.7278 49.6722 20.0313 50.2114 20.5714C50.751 21.111 51.0541 21.8431 51.0537 22.6064C51.0537 23.3698 50.7502 24.1015 50.2105 24.6411C49.6705 25.1807 48.9384 25.4839 48.175 25.4839C47.4121 25.4835 46.68 25.1803 46.1404 24.6407C45.6007 24.1007 45.2976 23.3686 45.2976 22.6056C45.2984 21.8422 45.6024 21.1106 46.142 20.5709C46.6816 20.0313 47.4137 19.7282 48.1767 19.7274Z" fill="#B75400"/>
<path d="M51.4849 27.8857H44.8668C44.3165 27.8886 43.7727 28.0063 43.2705 28.2308L41.5682 22.7507C41.4456 22.357 41.0816 22.0889 40.6695 22.0889H37.0682L37.011 21.4518L37.0106 21.4522C36.8609 20.4655 36.3685 19.5631 35.6196 18.9038C34.8706 18.2441 33.9135 17.8698 32.9157 17.8459H26.2978C25.2947 17.8714 24.333 18.2506 23.5828 18.9174C22.8326 19.5837 22.3428 20.4943 22.1996 21.4871L22.1457 22.0889H18.5431C18.131 22.0889 17.767 22.357 17.6445 22.7507L15.9252 28.2863C15.3918 28.0272 14.8074 27.8906 14.2142 27.8857H7.59608C6.59292 27.9112 5.63132 28.2908 4.88111 28.9572C4.1309 29.6239 3.64108 30.5344 3.49788 31.5273L3.0837 36.1335C3.05573 36.4461 3.1857 36.7521 3.43002 36.9495C5.60747 38.5112 8.2262 39.3379 10.9054 39.3091C11.4499 39.3079 11.9937 39.2733 12.5337 39.2054L10.993 44.1661C10.9041 44.4519 10.9564 44.7629 11.1336 45.0035C11.3109 45.2445 11.5922 45.3864 11.8917 45.3864H19.8557C20.3755 45.3864 20.7967 44.9652 20.7967 44.4458C20.7967 43.9259 20.3755 43.5047 19.8557 43.5047H13.1692L19.2366 23.9708H39.9761L44.391 38.1853L44.3914 38.1849C44.405 38.261 44.428 38.3351 44.4597 38.4054L46.0436 43.5047H39.3584C38.8385 43.5047 38.4173 43.9259 38.4173 44.4458C38.4173 44.9652 38.8385 45.3864 39.3584 45.3864H47.3211C47.6202 45.3864 47.9015 45.2445 48.0788 45.0035C48.256 44.7629 48.3087 44.4519 48.2198 44.1661L46.6845 39.2231C47.1797 39.2799 47.6773 39.3083 48.1758 39.3091C50.855 39.3379 53.4733 38.5112 55.6499 36.9495C55.8942 36.7521 56.0242 36.4461 55.9962 36.1335L55.5792 31.4924C55.4299 30.5057 54.9371 29.6033 54.1886 28.9436C53.4396 28.2838 52.4821 27.9096 51.4847 27.8857L51.4849 27.8857ZM10.9052 37.427C8.822 37.4299 6.77943 36.8516 5.00714 35.7568L5.36826 31.7306V31.731C5.45505 31.1963 5.72445 30.7085 6.1304 30.3503C6.53677 29.9925 7.05459 29.7864 7.59586 29.7675H14.214C14.62 29.7753 15.0156 29.8967 15.3562 30.1179L13.1574 37.1967C12.4163 37.3485 11.6619 37.4258 10.9051 37.4271L10.9052 37.427ZM24.0699 21.69C24.1567 21.1557 24.4261 20.6679 24.8325 20.3102C25.2384 19.9523 25.7563 19.7463 26.2975 19.7278H32.9154C33.4513 19.7446 33.9646 19.9458 34.3697 20.2966C34.7748 20.6474 35.0467 21.1274 35.1396 21.6551L35.1783 22.0886H24.0341L24.0699 21.69ZM48.1756 37.427C47.4669 37.4262 46.7599 37.3588 46.064 37.2263L43.8355 30.052C44.1494 29.871 44.5043 29.7732 44.8663 29.7674H51.4844C52.0199 29.7847 52.5336 29.9858 52.9384 30.3366C53.3436 30.6879 53.6154 31.1679 53.7084 31.6955L54.0728 35.76C52.3026 36.8582 50.2588 37.4361 48.1756 37.427Z" fill="#B75400"/>
<path d="M24.846 12.5646C24.846 13.8273 25.3473 15.0382 26.2398 15.9312C27.1324 16.8241 28.3433 17.3259 29.6059 17.3263C30.8686 17.3263 32.0795 16.8249 32.9725 15.9324C33.8654 15.0395 34.3667 13.829 34.3672 12.5663C34.3672 11.3037 33.8658 10.0928 32.9733 9.1998C32.0804 8.30687 30.8699 7.8051 29.6072 7.8051C28.345 7.80633 27.1349 8.30811 26.2424 9.20065C25.3498 10.0928 24.8477 11.3028 24.846 12.5646ZM32.4851 12.5646C32.4855 13.3284 32.1823 14.0605 31.6427 14.6006C31.1027 15.1406 30.3706 15.4441 29.6068 15.4441C28.8434 15.4441 28.1109 15.141 27.5713 14.6014C27.0312 14.0614 26.7277 13.3293 26.7281 12.5655C26.7281 11.8021 27.0312 11.0696 27.5713 10.5299C28.1113 9.98991 28.8434 9.68678 29.6072 9.68678C30.3702 9.6876 31.1014 9.99114 31.641 10.5308C32.1807 11.0704 32.4842 11.8017 32.4851 12.5646Z" fill="#B75400"/>
<path d="M34.3675 36.2218C34.3675 34.9591 33.8662 33.7482 32.9732 32.8553C32.0803 31.9623 30.8695 31.461 29.6071 31.461C28.3445 31.461 27.1336 31.9623 26.2406 32.8553C25.3477 33.7482 24.8463 34.959 24.8463 36.2218C24.8463 37.4845 25.3481 38.6953 26.241 39.5879C27.134 40.4808 28.3448 40.9821 29.6076 40.9817C30.8694 40.9805 32.0795 40.4783 32.972 39.5862C33.8641 38.6937 34.3663 37.4836 34.3675 36.2218ZM26.7284 36.2218C26.728 35.4584 27.0316 34.7259 27.5712 34.1863C28.1108 33.6462 28.8433 33.3427 29.6067 33.3427C30.3701 33.3427 31.1022 33.6458 31.6422 34.1854C32.1823 34.7255 32.4854 35.4576 32.4858 36.2209C32.4858 36.9843 32.1827 37.7168 31.6426 38.2565C31.103 38.7965 30.3709 39.1 29.6075 39.1C28.8442 39.0992 28.1125 38.7961 27.5729 38.2565C27.0328 37.7168 26.7293 36.9851 26.7284 36.2218Z" fill="#B75400"/>
<path d="M32.9156 41.5032H26.2977C25.2946 41.5283 24.333 41.908 23.5828 42.5743C22.8326 43.241 22.3427 44.1512 22.1995 45.1445L21.7854 49.7502C21.7574 50.0628 21.8874 50.3692 22.1317 50.5662C24.3219 52.102 26.9315 52.9258 29.6066 52.9258C32.2812 52.9258 34.891 52.102 37.0811 50.5662C37.3254 50.3688 37.455 50.0628 37.427 49.7502L37.0104 45.1091C36.8607 44.1224 36.3683 43.2204 35.6194 42.5607C34.8704 41.9014 33.9133 41.5267 32.9154 41.5032H32.9156ZM29.6071 51.0441C27.5239 51.0466 25.4813 50.4683 23.7086 49.3739L24.0697 45.3477H24.0701C24.1569 44.8134 24.4263 44.3256 24.8327 43.9674C25.2386 43.6096 25.7564 43.4039 26.2977 43.385H32.9156C33.4515 43.4019 33.9648 43.603 34.3699 43.9538C34.775 44.3051 35.0468 44.7847 35.1398 45.3123L35.5038 49.3734V49.3739C33.7319 50.4684 31.6894 51.0466 29.6071 51.0441Z" fill="#B75400"/>
<path d="M6.14493 22.6053C6.14493 23.8676 6.6463 25.0784 7.53879 25.9714C8.43128 26.8644 9.64222 27.3661 10.9045 27.3661C12.1671 27.3661 13.378 26.8648 14.271 25.9723C15.1639 25.0797 15.6653 23.8688 15.6657 22.6066C15.6657 21.3439 15.1643 20.1331 14.2718 19.2401C13.3793 18.3471 12.1684 17.8458 10.9062 17.8454C9.6439 17.8466 8.43388 18.3484 7.54132 19.2409C6.6488 20.133 6.14661 21.3431 6.14493 22.6053ZM13.784 22.6053C13.784 23.3687 13.4809 24.1008 12.9408 24.6408C12.4012 25.1809 11.6691 25.4844 10.9053 25.4844C10.142 25.4844 9.40986 25.1813 8.86981 24.6413C8.33019 24.1012 8.02665 23.3691 8.02665 22.6057C8.02665 21.842 8.33019 21.1099 8.87022 20.5702C9.41026 20.0302 10.1424 19.7271 10.9062 19.7271C11.6691 19.7283 12.4004 20.0318 12.94 20.5711C13.4792 21.1107 13.7828 21.842 13.784 22.6053Z" fill="#B75400"/>
</svg>
