<svg xmlns="http://www.w3.org/2000/svg" width="60" height="60" viewBox="0 0 60 60" fill="none">
<path d="M30.3445 52.0451C29.9956 52.0451 29.6658 51.886 29.4489 51.6125L25.1834 46.2369L10.8318 46.2373C10.2002 46.2369 9.68823 45.7253 9.68823 45.0937V6.06709C9.68823 5.43587 10.2002 4.92389 10.8318 4.92389H49.8564C50.488 4.92389 51 5.43589 51 6.06709V45.0937C51 45.7253 50.488 46.2369 49.8564 46.2373H35.5048L31.2398 51.6125C31.0229 51.886 30.6931 52.0451 30.3442 52.0451L30.3445 52.0451ZM11.975 43.9504H25.7355C26.0844 43.9504 26.4146 44.1099 26.6315 44.3831L30.3443 49.0625L34.0571 44.3831C34.274 44.1099 34.6042 43.9504 34.9531 43.9504H48.7136V7.21044H11.9757L11.975 43.9504Z" fill="#B75400"/>
<path d="M28.456 33.8288C28.1525 33.8288 27.8618 33.7083 27.6473 33.4938L20.0566 25.9028C19.614 25.4558 19.6156 24.7349 20.0606 24.2902C20.5056 23.8452 21.2262 23.8432 21.6732 24.2862L28.3607 30.9737L38.9302 17.7614V17.7618C39.1192 17.5233 39.3955 17.3706 39.6974 17.3363C39.9996 17.302 40.3027 17.3898 40.5404 17.5796C40.7776 17.7698 40.9295 18.0461 40.9626 18.3484C40.9953 18.6506 40.9064 18.9537 40.7158 19.1901L29.3481 33.3998C29.1451 33.6538 28.8432 33.8093 28.5187 33.8273C28.4975 33.8285 28.4764 33.8289 28.4557 33.8289L28.456 33.8288Z" fill="#B75400"/>
<path d="M34.9534 55.7701H25.7358C25.1046 55.7701 24.5926 55.2581 24.5926 54.6264C24.5926 53.9952 25.1046 53.4832 25.7358 53.4832H34.9534C35.5847 53.4832 36.0966 53.9952 36.0966 54.6264C36.0966 55.2581 35.5846 55.7701 34.9534 55.7701Z" fill="#B75400"/>
</svg>
