<svg viewBox="0 0 100 100" xmlns="http://www.w3.org/2000/svg"><path d="M63.386 38.295c0-.565-.027-1.125-.068-1.68a22.724 22.724 0 0 0-.477-3.282c-2.275-10.318-11.489-18.064-22.482-18.064-12.696 0-23.025 10.33-23.025 23.026 0 4.093 1.078 7.937 2.958 11.271.457.81.959 1.59 1.507 2.335 4.194 5.708 10.951 9.421 18.561 9.421 12.696 0 23.026-10.33 23.026-23.027zm-43.354 0c0-11.208 9.118-20.326 20.326-20.326 10.289 0 18.797 7.69 20.127 17.621l-7.293 6.985a4.354 4.354 0 0 0-2.201-.612 4.398 4.398 0 0 0-3.713 2.056l-10.96-4.262c-.106-2.335-2.024-4.208-4.388-4.208a4.41 4.41 0 0 0-4.406 4.405c0 .588.12 1.147.33 1.661l-5.596 5.883a20.184 20.184 0 0 1-2.226-9.203zm32.666 8.075a1.71 1.71 0 0 1-1.707 1.707 1.71 1.71 0 0 1-1.707-1.707 1.71 1.71 0 0 1 1.707-1.707 1.71 1.71 0 0 1 1.707 1.707zm-22.474-6.415a1.708 1.708 0 0 1 3.415 0 1.71 1.71 0 0 1-1.708 1.708 1.71 1.71 0 0 1-1.707-1.708zm10.134 18.667c-6.892 0-12.983-3.456-16.661-8.717l5.915-6.218c.694.44 1.497.674 2.318.676a4.407 4.407 0 0 0 3.676-1.985l11.008 4.28c.151 2.293 2.046 4.119 4.377 4.119a4.41 4.41 0 0 0 4.406-4.407c0-.64-.145-1.245-.391-1.794l5.635-5.397c-.466 10.797-9.371 19.443-20.283 19.443z"/><path d="M91.72 77.579L71.532 56.557l-1.893 1.815-2.771-2.892a31.413 31.413 0 0 0 5.101-17.186c0-2.968-.42-5.92-1.247-8.771l4.521-4.331a4.34 4.34 0 0 0 1.46.268 4.41 4.41 0 0 0 4.406-4.407c0-.693-.175-1.341-.461-1.925l7.696-7.665v3.886h2.699V6.686h-8.259v2.7h3.821l-7.835 7.802a4.346 4.346 0 0 0-2.068-.54 4.411 4.411 0 0 0-4.406 4.407c0 .921.286 1.775.771 2.483l-3.309 3.169c-4.633-11.711-16.061-20.021-29.4-20.021-17.43 0-31.609 14.18-31.609 31.609a31.422 31.422 0 0 0 5.431 17.696l-2.452 2.577a4.394 4.394 0 0 0-1.629-.32 4.411 4.411 0 0 0-4.406 4.406 4.412 4.412 0 0 0 4.406 4.409 4.413 4.413 0 0 0 4.406-4.409c0-.867-.261-1.672-.695-2.355l2.007-2.11c5.801 7.143 14.646 11.718 24.542 11.718a31.411 31.411 0 0 0 17.044-5.01l2.603 2.714-1.896 1.818L78.3 90.451a9.218 9.218 0 0 0 6.712 2.863c2.41 0 4.694-.919 6.433-2.588a9.229 9.229 0 0 0 2.862-6.517 9.243 9.243 0 0 0-2.587-6.63zM76.702 19.348a1.71 1.71 0 0 1 1.707 1.707 1.71 1.71 0 0 1-1.707 1.707 1.71 1.71 0 0 1-1.707-1.707 1.71 1.71 0 0 1 1.707-1.707zM10.099 64.363a1.71 1.71 0 0 1-1.707-1.709 1.708 1.708 0 0 1 3.414 0 1.71 1.71 0 0 1-1.707 1.709zm7.597-8.15a28.969 28.969 0 0 1-1.604-2.232 28.724 28.724 0 0 1-4.645-15.686c0-15.94 12.97-28.909 28.91-28.909 12.593 0 23.324 8.095 27.28 19.352.335.952.619 1.927.854 2.921.515 2.175.776 4.401.777 6.636a28.743 28.743 0 0 1-5.135 16.422l-8.364 8.021a28.734 28.734 0 0 1-15.412 4.469c-9.175-.001-17.361-4.305-22.661-10.994zm41.939 7.11c2.105-1.626 4-3.511 5.637-5.606l2.42 2.523-5.737 5.501-2.32-2.418zm5.048 3.543l6.771-6.493 2.161 2.252-9.455 9.208-2.233-2.325 2.756-2.642zm24.892 21.912a6.555 6.555 0 0 1-4.564 1.836 6.55 6.55 0 0 1-4.764-2.032L66.03 73.78l9.455-9.208 14.286 14.877a6.548 6.548 0 0 1 1.835 4.705 6.546 6.546 0 0 1-2.031 4.624z"/><path d="M44.897 25.728l.871-2.556c-9.332-3.18-15.909 2.881-16.186 3.141l1.854 1.964c.056-.052 5.648-5.21 13.461-2.549zm6.064.399c-.657-.471-1.311-.946-1.963-1.425l-1.6 2.176s1.011.743 1.99 1.444l1.573-2.195z"/></svg>