<svg xmlns="http://www.w3.org/2000/svg" viewBox="0 0 100 100"><path d="M57.5 79.5v.129c0 .803-.254 1.871-1.058 1.871H43.299c-.803 0-.799-1.068-.799-1.871V79.5H.5v2.312c0 1.41 1.625 2.688 3.035 2.688h92.672c1.41 0 3.293-1.277 3.293-2.688V79.5h-42zM13.943 78.5h71.815c1.411 0 2.741-1.085 2.741-2.494V34.017c0-1.411-1.33-2.517-2.741-2.517H69.494c.981 1 1.843 2 2.566 3H84.5v40h-70v-40h14.129c.72-1 1.577-2 2.555-3H13.943c-1.411 0-2.443 1.106-2.443 2.517v41.989c0 1.409 1.032 2.494 2.443 2.494z"/><path d="M28.971 46.891c0 11.943 9.562 21.624 21.505 21.624s21.565-9.681 21.565-21.624c0-6.938-3.3-13.107-8.378-17.064l1.407-1.826.697.55 1.006-1.295-2.592-2.016-1.01 1.294.823.642-1.471 1.856A21.8 21.8 0 0 0 51.5 25.3v-1.046c3-.623 4.541-2.947 4.541-5.728a5.886 5.886 0 0 0-5.884-5.897c-3.257 0-5.653 2.641-5.653 5.897 0 2.865 1.996 5.25 4.996 5.784v1.001c-13 .689-20.529 10.085-20.529 21.58zm16.534-28.365c0-2.708 2.075-4.902 4.783-4.902s4.818 2.195 4.818 4.902c0 2.228-1.606 4.104-3.606 4.701V19.5h2v-3h-6v3h2v3.788c-3-.517-3.995-2.45-3.995-4.762zm4.852 10.391c9.926 0 17.973 8.047 17.973 17.974s-8.047 17.973-17.973 17.973c-9.927 0-17.974-8.046-17.974-17.973s8.047-17.974 17.974-17.974z"/><path d="M50.5 30.794c0-.009-.277-.017-.5-.017-.224 0-.5.008-.5.017V33.5h1v-2.706zM49.5 62.986c0 .01.276.017.5.017.223 0 .5-.007.5-.017V60.5h-1v2.486zM64.5 47.5h1.742c.01 0 .018-.276.018-.5s-.008-.5-.018-.5H64.5v1zM36.5 46.5h-2.45c-.009 0-.017.276-.017.5s.008.5.017.5h2.45v-1zM44.06 35.017l-1.386-2.4c-.395.207-.779.43-1.153.668l1.385 2.398 1.154-.666zM56.232 58.765l1.386 2.4c.394-.206.779-.43 1.153-.667l-1.385-2.399-1.154.666zM62.021 40.804l2.4-1.386a16.455 16.455 0 0 0-.668-1.153l-2.399 1.385.667 1.154zM35.871 54.362c.208.395.431.779.668 1.154l2.399-1.386-.667-1.154-2.4 1.386zM35.871 39.418l2.401 1.386.667-1.154-2.399-1.385c-.239.375-.462.759-.669 1.153zM61.354 54.131l2.399 1.386c.237-.375.461-.76.668-1.154l-2.4-1.386-.667 1.154zM58.771 33.284a16.29 16.29 0 0 0-1.153-.668l-1.387 2.401 1.155.666 1.385-2.399zM44.06 58.766l-1.154-.667-1.385 2.399c.375.237.759.461 1.154.667l1.385-2.399zM49.444 48.1a1.4 1.4 0 0 0 2.103-1.208c0-.141-.023-.276-.062-.404 4.36-3.573 11.987-10.036 11.821-10.241-.167-.205-8.057 5.911-12.457 9.435a1.4 1.4 0 0 0-2.02 1.68c-.959.875-1.498 1.551-1.36 1.721.138.168.932-.236 1.975-.983z"/></svg>