<svg xmlns="http://www.w3.org/2000/svg" viewBox="0 0 100 100"><path d="M52.3 26.8c7 0 13.2 5 14.7 11.9l.7 3.5 3.3-1.3c1.9-.8 3.9-1.1 5.9-1.1 8.8 0 15.9 7.1 15.9 15.9 0 8.9-6.6 15.6-15.3 15.6h-60c-5 0-9-4-9-9s4-9 9-9h.3l3.2.1-.1-3.2v-.3-.2c0-5.8 4.7-10.5 10.5-10.5 1 0 2 .1 2.9.4l2.9.8.9-2.9c1.7-6.3 7.6-10.7 14.2-10.7m0-3c-8.1 0-15 5.4-17.2 12.8-1.2-.3-2.5-.5-3.8-.5-7.5 0-13.5 6-13.5 13.5v.6h-.3c-6.6 0-12 5.4-12 12s5.4 12 12 12h60c10.4 0 18.3-8.2 18.3-18.6s-8.5-18.9-18.9-18.9c-2.5 0-4.8.5-7 1.4-1.7-8.2-9-14.3-17.6-14.3z"/><path d="M65.8 50.5c-1.3-.7-3-.3-3.7 1-.3.5-.4.9-.3 1.4l-4.3.7c-.3-1.3-1.1-2.5-2.3-3.2-1.1-.6-2.4-.8-3.5-.5l-2.1-6.7c.6-.3 1.1-.7 1.4-1.3.8-1.5.3-3.3-1.1-4.1-1.4-.8-3.3-.3-4.1 1.1-.8 1.4-.3 3.3 1.1 4.1.7.4 1.4.5 2.1.3l2.1 6.7c-1 .4-1.9 1.1-2.5 2.1-.8 1.5-.8 3.2-.1 4.6L43 60.1c-.3-.4-.7-.8-1.1-1-1.7-1-3.9-.4-4.9 1.4-1 1.7-.4 3.9 1.4 4.9 1.8 1 3.9.4 4.9-1.3.6-1.1.6-2.3.1-3.4l5.4-3.2c.4.6.9 1.1 1.6 1.5.9.5 1.9.7 2.8.6l.6 4.1c-.4.1-.8.4-1 .8-.5.9-.2 2 .7 2.5.9.5 2 .2 2.5-.7s.2-2-.7-2.5c-.3-.2-.5-.2-.9-.2l-.6-4.1c1.3-.3 2.5-1.1 3.2-2.3.5-.9.7-1.9.6-2.8l4.3-.7c.2.7.6 1.3 1.3 1.6 1.3.7 3 .3 3.7-1 .5-1.5.2-3-1.1-3.8z"/></svg>