<svg xmlns="http://www.w3.org/2000/svg" viewBox="219 -116 538 333"><path d="M469.5-82c-26.4 4.7-49.3 24.5-58.2 50.6-5.2 15-5.4 30-.9 66.2 3.4 28.1 3.3 31.3-1.5 41.9-2.8 6.2-11.4 15-17.9 18.5-2.6 1.4-4.7 2.8-4.7 3.2 0 1.1 13.2 8.5 21.7 12.2 8.8 3.7 20.7 7.7 30 10.1 25.5 6.4 60.7 6.2 89.7-.6 11.5-2.7 31.7-9.6 42.3-14.3l7.9-3.7-2.9-1.8c-4.4-2.7-10.4-8.8-13.7-14-7.4-11.7-8.5-24.4-4.7-52.2 1.6-12 2.3-21.6 2.3-35 .1-21.5-.8-25.9-8.1-41-4-8-6.1-10.9-13.7-18.5-10.2-10.2-19.6-15.8-32.6-19.5-8.8-2.6-26.6-3.6-35-2.1z"/><path fill="none" d="M265.8-25.5h41.4v4h-41.4zm8 44.7h68.8v4h-68.8zM325.9 32h12.9v4h-12.9zM273.8 6.4h55.4v4h-55.4zm0 6.6h21.8v4h-21.8zm21 63.5h64v4h-64zm-29-89.4h11.6v4h-11.6zm0-31.7h65.6v4h-65.6zm0 6.6h76.8v4h-76.8zm8 38h25.9v4h-25.9zm-5-6.2h33.4v4h-33.4zm64.1 12.6h25.9v4h-25.9zm12.9 12.8h12.9v4h-12.9zm-87-63.8h3.8v3.8h-3.8zm0 6.7h3.8v3.8h-3.8zm0 6.2h3.8v3.8h-3.8zm0 44.8h3.8v3.8h-3.8zm0-38.5h3.8v3.8h-3.8zm0 44.7h3.8v3.8h-3.8zm0-25.5h3.8v3.8h-3.8zm0-12.5h3.8v3.8h-3.8zm0 5.9h3.8V-9h-3.8zm0 12.9h3.8v3.8h-3.8zm0 6.4h3.8v3.8h-3.8z"/><path d="M679.5-.2h42.7v4h-42.7zm0 10.4h42.7v4h-42.7zm0 10h42.7v4h-42.7zm0 10.1h42.7v4h-42.7zm0 10h42.7v4h-42.7zm0 10.5h42.7v4h-42.7zm0 9.9h42.7v4h-42.7zm0 10.3h42.7v4h-42.7zm0 9.8h42.7v4h-42.7zm0-117h42.7v30h-42.7z"/><path fill="none" d="M522.7-75.6c2 1.2 4 2.5 5.9 4-1.9-1.5-3.9-2.8-5.9-4zm-6.2-3.3c2.1 1 4.2 2.1 6.2 3.3-2-1.2-4-2.3-6.2-3.3zM258.8 38.3h3.8v3.8h-3.8zm0-6h3.8v3.8h-3.8zm0 12.6h3.8v3.8h-3.8zm0-19.2h3.8v3.8h-3.8zm0-12.6h3.8v3.8h-3.8zm0-19.3h3.8v3.8h-3.8zm0 6.3h3.8v3.8h-3.8zm0 19.2h3.8v3.8h-3.8zm0 31.9h3.8V55h-3.8zm0-44.7h3.8v3.8h-3.8zm7 44.5h11.6v4h-11.6zm0-12.8h19.7v4h-19.7zm-7 51.1h3.8v3.8h-3.8zm7-102.2h11.6v4h-11.6zm-7 95.9h3.8v3.8h-3.8zm0-18.8h3.8V68h-3.8zm0 6.3h3.8v3.8h-3.8zm7-96h41.4v4h-41.4zm-7 102.1h3.8v3.8h-3.8zm0-19h3.8v3.8h-3.8zM675.7-44.1h50.1V94.4h-50.1zM265.8 89.2h11.6v4h-11.6zm-7-127.1h3.8v3.8h-3.8zm0 6.2h3.8v3.8h-3.8zm0 13h3.8v3.8h-3.8zm0-6.7h3.8v3.8h-3.8zm0 12.6h3.8V-9h-3.8zm0-31.8h3.8v3.8h-3.8zm10 38.4h33.4v4h-33.4zm5 6.2h25.9v4h-25.9zm0 32h48.5v4h-48.5zm-4.6 25.4h47.1v4h-47.1zm4.6-44.4h21.8v4h-21.8zm0 12.5h33.5v4h-33.5zm163.5-96.2c1.4-1 2.7-2 4.2-3-1.5 1-2.8 2-4.2 3zM273.8 63.6h25.9v4h-25.9zM441.5-73.6c1.4-.9 2.9-1.8 4.3-2.7-1.5.9-2.9 1.7-4.3 2.7zm185.1 252.8c.3 1 .6 2.1.9 3.2-.3-1.1-.6-2.2-.9-3.2zm1.6 6.4c.2 1.1.4 2.2.5 3.2-.1-1.1-.3-2.1-.5-3.2zM273.8 19.2h68.8v4h-68.8zM325.9 32h12.9v4h-12.9zm19.9-12.8h12.9v4h-12.9zm-72-12.8h55.4v4h-55.4zm-8-51h65.6v4h-65.6zm67.1 51h25.9v4h-25.9zM265.8-38h76.8v4h-76.8zm8 114.5h16.8v4h-16.8zm0-6.1h25.9v4h-25.9zm21 6.1h64v4h-64z"/><path d="M737 107.7V-59.6H547.2c3.5 4.1 5.6 7.5 8.6 13.4 4.1 8.5 6.3 14 7.5 20.7H639v4h-75.2c.1.8.2 1.6.2 2.5h22v4h-21.7c0 .8.1 1.5.1 2.3h31.5v4h-31.4v6c0 5.6-.1 10.7-.4 15.5h39.3v4h-39.6c-.2 2.8-.5 5.7-.8 8.7h23.7v4h-24.1c-.1.9-.2 1.9-.4 2.8h10.2v4h-10.7c-.1.6-.2 1.2-.2 1.8H591v4h-30c-1 8.8-1.3 15.8-.9 21.7h16.4v4h-16c.1.7.2 1.5.4 2.2h15.6v4h-14.7c.3 1 .6 1.9 1 2.8h58.1v4h-56.3c.3.6.7 1.2 1 1.8h46.6v4h-43.9c3.1 4 7.4 8.1 10.6 10.1l2.9 1.8 6.3 3.9-6.7 3.1-6.8 3.2v30.1c3.6 1.3 7.1 2.5 10.8 3.6 10.9 3.2 19.4 6.6 25.9 10.7v-45.5H737zM675.7-44.1h50.1V94.5h-50.1V-44.1zM591 25.5h18.3v4H591v-4zm3.5 10.8h-17v-4h17v4zm19.7 5.9h-18.5v-4h18.5v4zm-221 96.1v-30.1c-.8-.4-1.6-.9-2.4-1.3-8.5-4.8-9.8-6.2-9.8-8.7 0-2.4 1.5-3.9 6.9-6.8 5.9-3.2 14-11.6 16.5-17 4.3-9.5 4.7-11.5 1.2-40.4-.8-6.3-1.4-11.9-1.9-17.1H300.1v-4h103.2c-2-23-1-35.3 3.4-47.9 3.1-9 7.8-17.4 13.6-24.7H233v167.3h123.5v44.5c5.7-3.2 12.8-5.8 21.5-7.9 3.1-.7 8.1-2.6 15.2-5.9zM268.8-2.2v-4h33.4v4h-33.4zM299.6 0v4h-25.9V0h25.9zm-25.8 13h21.8v4h-21.8v-4zm0 12.5h33.5v4h-33.5v-4zm0 6.5h48.5v4h-48.5v-4zm-4.6 29.4v-4h47.1v4h-47.1zm30.4 2.2v4h-25.9v-4h25.9zm-25.8 12.9h16.8v4h-16.8v-4zm0-2.1v-4h25.9v4h-25.9zm21 2.1h64v4h-64v-4zm10.3-2.1v-4h76.2v4h-76.2zm0-6.8v-4h76.2v4h-76.2zM325.9 36v-4h12.9v4h-12.9zm19.9-16.8h12.9v4h-12.9v-4zm-3.3 0v4h-68.8v-4h68.8zm-13.4-8.8h-55.4v-4h55.4v4zm29.6 0h-25.9v-4h25.9v4zm-92.9-55h65.6v4h-65.6v-4zm0 6.6h76.8v4h-76.8v-4zm0 12.5h41.4v4h-41.4v-4zm0 12.6h11.6v4h-11.6v-4zm0 51.1h19.7v4h-19.7v-4zm0 12.8h11.6v4h-11.6v-4zm-3.2 42.2h-3.8v-3.8h3.8v3.8zm0-6.4h-3.8V83h3.8v3.8zm0-6.4h-3.8v-3.8h3.8v3.8zm0-6.1h-3.8v-3.8h3.8v3.8zm0-6.3h-3.8v-3.8h3.8V68zm0-6.6h-3.8v-3.8h3.8v3.8zm0-6.4h-3.8v-3.8h3.8V55zm0-6.3h-3.8v-3.8h3.8v3.8zm0-6.6h-3.8v-3.8h3.8v3.8zm0-5.9h-3.8v-3.8h3.8v3.8zm0-6.7h-3.8v-3.8h3.8v3.8zm0-6.3h-3.8v-3.8h3.8v3.8zm0-6.3h-3.8v-3.8h3.8v3.8zm0-6.6h-3.8V6.5h3.8v3.8zm0-6.4h-3.8V.1h3.8v3.8zm0-6.2h-3.8v-3.8h3.8v3.8zm0-6.7h-3.8v-3.8h3.8V-9zm0-5.9h-3.8v-3.8h3.8v3.8zm0-6.7h-3.8v-3.8h3.8v3.8zm0-6.3h-3.8v-3.8h3.8v3.8zm0-6.2h-3.8v-3.8h3.8v3.8zm0-6.7h-3.8v-3.8h3.8v3.8zm14.8 134h-11.6v-4h11.6v4zm-3.6-6.3v-4h119.5v4H273.8zm354.9 101.9c-.1-1.1-.3-2.1-.5-3.2s-.4-2.2-.7-3.2c-.3-1.1-.6-2.1-.9-3.2-.5-1.5-1-3-1.5-4.4-.5-1.4-1.1-2.6-1.7-3.7-1.1-2.1-2.5-4.1-4-5.9-.8-.9-1.6-1.8-2.5-2.7-.6-.6-1.2-1.1-1.9-1.7-.3-.3-.7-.6-1-.8-.7-.5-1.4-1.1-2.1-1.6-.2-.1-.4-.3-.5-.4-6.5-4.5-15.3-8.2-27.1-11.7-3.3-1-6.5-2-9.7-3.2-9.6-3.4-19-7.8-30.3-14l-9-4.9-7.8 1.6c-2.1.4-4.2.8-6.2 1.2-.7.1-1.3.2-2 .4-1.4.2-2.7.5-4.1.7-.8.1-1.6.2-2.4.4-1.2.2-2.4.4-3.6.5-.8.1-1.7.2-2.5.3-1.1.1-2.2.3-3.3.4-.9.1-1.7.2-2.6.3-1.1.1-2.1.2-3.2.3-.9.1-1.7.1-2.6.2-1 .1-2.1.2-3.1.2-.9 0-1.7.1-2.6.1-1 0-2 .1-3 .1h-8.7c-.9 0-1.8 0-2.7-.1-1 0-2.1-.1-3.1-.1-.9 0-1.8-.1-2.7-.1-1.1-.1-2.1-.2-3.2-.3-.9-.1-1.8-.1-2.7-.2-1.1-.1-2.2-.2-3.3-.4l-2.7-.3c-1.1-.1-2.3-.3-3.4-.5-.9-.1-1.7-.2-2.6-.4-1.2-.2-2.4-.4-3.7-.6-.8-.1-1.7-.3-2.5-.4-1.4-.2-2.8-.5-4.2-.8-.7-.1-1.4-.3-2.1-.4-2.1-.4-4.3-.9-6.5-1.4h-.8c-.1 0-.2 0-.3.1-.1 0-.2.1-.4.1-.1 0-.2.1-.4.1-.1 0-.3.1-.4.1-.1 0-.3.1-.4.2-.2.1-.3.1-.5.2s-.3.1-.5.2-.4.2-.6.2c-.2.1-.4.2-.6.2-.2.1-.4.2-.7.3-.2.1-.4.2-.7.3-.2.1-.5.2-.8.3-.2.1-.5.2-.7.3-.3.1-.6.2-.8.4-.3.1-.5.2-.8.3-.3.1-.6.3-.9.4-.3.1-.5.2-.8.4-.3.1-.7.3-1 .5-.3.1-.6.3-.9.4-.3.2-.7.3-1.1.5-.3.1-.6.3-.9.4l-1.2.6c-.3.1-.6.3-.9.4-.4.2-.8.4-1.3.6-.3.2-.6.3-1 .5-.5.2-1 .5-1.5.7-.3.1-.5.3-.8.4l-2.4 1.2c-2.8 1.4-5.3 2.6-7.8 3.8-1.6.8-3.1 1.5-4.6 2.2-1 .5-1.9.9-2.9 1.3-1.1.5-2.1 1-3.1 1.4-1.2.5-2.4 1-3.4 1.4-1.1.4-2.1.8-3 1.2-.9.3-1.8.6-2.6.9s-1.5.4-2.2.6c-4.4 1-8.3 2.2-11.9 3.6-.7.3-1.4.5-2.1.8-1.4.6-2.7 1.1-3.9 1.8-1.6.8-3.1 1.7-4.6 2.6-.2.1-.4.2-.6.4-1.1.7-2 1.4-3 2.2-1.4 1.1-2.7 2.4-3.8 3.7-6.2 6.9-8.8 16.2-8.8 28.7v9h90.8c50 0 115-.3 144.4-.7l53.6-.6v-4.7c.6-1.9.4-3.9.1-6z"/><path fill="#EEBAC7" d="M615 160.8c.6.6 1.3 1.1 1.9 1.7-.6-.6-1.2-1.1-1.9-1.7zm-3.1-2.4c.7.5 1.4 1.1 2.1 1.6-.6-.6-1.3-1.1-2.1-1.6zm17.3 36.3c0-1.8-.2-3.8-.5-5.9.3 2.1.5 4.1.5 5.9zm-276.3-35.3c.9-.8 1.9-1.5 3-2.2-1 .7-2 1.5-3 2.2zm272.2 15.4c.5 1.4 1.1 2.8 1.5 4.4-.5-1.5-1-3-1.5-4.4zm0 0c-.5-1.4-1.1-2.6-1.7-3.7-1.1-2.1-2.5-4.1-4-5.9 1.5 1.9 2.9 3.8 4 5.9.6 1.1 1.1 2.3 1.7 3.7zm-272.2-15.4c-1.4 1.1-2.7 2.4-3.8 3.7 1.1-1.3 2.4-2.5 3.8-3.7zm8.2-5.1z"/></svg>