<svg viewBox="0 0 100 100" xmlns="http://www.w3.org/2000/svg"><path d="M55.645 14.976c6.976 0 13.156 4.96 14.65 11.806l.698 3.472 3.29-1.29c1.893-.793 3.886-1.091 5.88-1.091 8.77 0 15.847 7.044 15.847 15.774 0 8.83-6.578 15.476-15.25 15.476h-59.8c-4.983 0-8.97-3.968-8.97-8.929 0-4.96 3.987-8.928 8.97-8.928h.3l3.188.1-.1-3.175v-.497c0-5.754 4.685-10.416 10.466-10.416.997 0 1.993.099 2.89.397l2.89.793.898-2.877c1.694-6.25 7.574-10.615 14.153-10.615zm0-2.976c-8.074 0-14.95 5.357-17.143 12.698-1.196-.297-2.492-.496-3.788-.496-7.475 0-13.455 5.953-13.455 13.393v.596h-.299C14.382 38.19 9 43.547 9 50.094 9 56.643 14.382 62 20.96 62h59.8C91.127 62 99 53.865 99 43.548c0-10.318-8.472-18.75-18.837-18.75-2.492 0-4.784.496-6.977 1.389C71.492 18.051 64.216 12 55.644 12z"/><circle cx="11" cy="86" r="6.5" stroke="#000" stroke-width="3"/><circle cx="49" cy="82" r="6.5" stroke="#000" stroke-width="3"/><circle cx="76" cy="90" r="6.5" stroke="#000" stroke-width="3"/><path d="M49.884 61.116a1.25 1.25 0 0 0-1.768 0l-7.955 7.955a1.25 1.25 0 1 0 1.768 1.768L49 63.768l7.071 7.07a1.25 1.25 0 1 0 1.768-1.767l-7.955-7.955zM50.25 76V62h-2.5v14h2.5zm26.634-14.884a1.25 1.25 0 0 0-1.768 0l-7.955 7.955a1.25 1.25 0 1 0 1.768 1.768L76 63.768l7.071 7.07a1.25 1.25 0 1 0 1.768-1.767l-7.955-7.955zM77.25 83V62h-2.5v21h2.5zM29 86v1.25h1.25V86H29zm.884-24.884a1.25 1.25 0 0 0-1.768 0l-7.955 7.955a1.25 1.25 0 1 0 1.768 1.768L29 63.768l7.071 7.07a1.25 1.25 0 1 0 1.768-1.767l-7.955-7.955zM18 87.25h11v-2.5H18v2.5zM30.25 86V62h-2.5v24h2.5z"/></svg>