<svg xmlns="http://www.w3.org/2000/svg" viewBox="0 0 431.168 299.215"><path d="M156.492 8h119.5v262h-94.375v8h102.377V0H148.492v61.042c2.763.035 5.442.415 8 1.101V8z"/><path d="M264.992 19.417h-97.5v18h97.5v-18zm-58.25 12.333h-32.75v-7h32.75v7zm30.25 0h-7v-7h7v7zm11.25 0h-7v-7h7v7zm11.25 0h-7v-7h7v7zM173.992 73.95v-.051h32.75v7h-28.724a32.22 32.22 0 0 1 1.796 5.666h85.178v-18h-96.139a32.707 32.707 0 0 1 5.139 5.385zm78.5-.051h7v7h-7v-7zm-11.25 0h7v7h-7v-7zm-11.25 0h7v7h-7v-7zM188.252 123.046h18.49v7h-17.896c.048 1.455.079 2.913.104 4.333l.024 1.334h76.019v-18h-78.091a31.2 31.2 0 0 1 1.35 5.333zm64.24 0h7v7h-7v-7zm-11.25 0h7v7h-7v-7zm-11.25 0h7v7h-7v-7zM189.607 145.046c.119.688.246 1.25.373 1.706.949.122 2.105.196 3.199.196h.102c1.291 0 2.262-.079 2.488-.1a17.888 17.888 0 0 1 1.879-.098c1.914 0 3.756.314 5.492.87h3.602v1.605a17.95 17.95 0 0 1 8.317 11.061h49.933v-18h-75.733c.086.987.196 1.921.348 2.76zm62.885 2.575h7v7h-7v-7zm-11.25 0h7v7h-7v-7zm-11.25 0h7v7h-7v-7zM211.684 176.01a17.88 17.88 0 0 1-12.082 6.632c-.631.068-2.994.303-6.314.305-2.832-.011-6.973-.143-11.67-1.119v3.033h83.375v-18h-49.489a17.877 17.877 0 0 1-3.82 9.149zm40.808-3.815h7v7h-7v-7zm-11.25 0h7v7h-7v-7zm-4.25 0v7h-7v-7h7zM181.617 196.769h25.125v7h-25.125v5.666h83.375v-18h-83.375v5.334zm70.875 0h7v7h-7v-7zm-11.25 0h7v7h-7v-7zm-11.25 0h7v7h-7v-7zM181.617 221.342h25.125v7h-25.125v5.667h83.375v-18h-83.375v5.333zm70.875 0h7v7h-7v-7zm-11.25 0h7v7h-7v-7zm-11.25 0h7v7h-7v-7zM181.617 245.917h25.125v7h-25.125v5.667h83.375v-18h-83.375v5.333zm70.875 0h7v7h-7v-7zm-11.25 0h7v7h-7v-7zm-11.25 0h7v7h-7v-7zM295.666 0v278h135.502V0H295.666zm127.502 270H303.666V8h119.502v262z"/><path d="M412.168 19.417h-97.5v18h97.5v-18zm-58.25 12.333h-32.75v-7h32.75v7zm30.25 0h-7v-7h7v7zm11.25 0h-7v-7h7v7zm11.25 0h-7v-7h7v7zM412.168 68.565h-97.5v18h97.5v-18zm-58.25 12.334h-32.75v-7h32.75v7zm30.25 0h-7v-7h7v7zm11.25 0h-7v-7h7v7zm11.25 0h-7v-7h7v7zM412.168 117.713h-97.5v18h97.5v-18zm-58.25 12.333h-32.75v-7h32.75v7zm30.25 0h-7v-7h7v7zm11.25 0h-7v-7h7v7zm11.25 0h-7v-7h7v7zM412.168 142.287h-97.5v18h97.5v-18zm-58.25 12.334h-32.75v-7h32.75v7zm30.25 0h-7v-7h7v7zm11.25 0h-7v-7h7v7zm11.25 0h-7v-7h7v7zM412.168 191.435h-97.5v18h97.5v-18zm-58.25 12.334h-32.75v-7h32.75v7zm30.25 0h-7v-7h7v7zm11.25 0h-7v-7h7v7zm11.25 0h-7v-7h7v7zM412.168 216.009h-97.5v18h97.5v-18zm-58.25 12.333h-32.75v-7h32.75v7zm30.25 0h-7v-7h7v7zm11.25 0h-7v-7h7v7zm11.25 0h-7v-7h7v7zM412.168 240.583h-97.5v18h97.5v-18zm-58.25 12.334h-32.75v-7h32.75v7zm30.25 0h-7v-7h7v7zm11.25 0h-7v-7h7v7zm11.25 0h-7v-7h7v7zM107.531 270H8V8h119.5v60.395a32.572 32.572 0 0 1 8.002-4.831V0H0v278h107.531v-8z"/><path d="M116.5 19.417H19v18h97.5v-18zM58.25 31.75H25.5v-7h32.75v7zm30.25 0h-7v-7h7v7zm11.25 0h-7v-7h7v7zm11.25 0h-7v-7h7v7zM116.5 43.991H19v18h97.5v-18zM58.25 56.325H25.5v-7h32.75v7zm30.25 0h-7v-7h7v7zm11.25 0h-7v-7h7v7zm11.25 0h-7v-7h7v7zM116.5 85.856V68.565H19v18h97.336c.052-.237.106-.474.164-.709zm-58.25-4.957H25.5v-7h32.75v7zm30.25 0h-7v-7h7v7zm11.25 0h-7v-7h7v7zm4.25 0v-7h7v7h-7zM110.367 107.291l.098-.056.098-.055c1.806-.994 3.75-1.968 5.938-2.752v-3.221a32.432 32.432 0 0 1-.924-7.675c0-.132.009-.262.01-.393H19v18h85.705a50.517 50.517 0 0 1 5.662-3.848zM104 98.472h7v7h-7v-7zm-45.75 7H25.5v-7h32.75v7zm30.25 0h-7v-7h7v7zm11.25 0h-7v-7h7v7zM88.082 156.758c-.012-.029-.019-.059-.029-.088a31 31 0 0 1-.708-2.05H81.5v-7h4.528a32.117 32.117 0 0 1-.093-2.409c.008-.979.059-1.954.146-2.925H19v18h70.707a31.721 31.721 0 0 1-1.625-3.528zm-29.832-2.137H25.5v-7h32.75v7zM107.531 203.769H104v-7h3.531v-5.334H19v18h88.531v-5.666zm-49.281 0H25.5v-7h32.75v7zm30.25 0h-7v-7h7v7zm11.25 0h-7v-7h7v7zM107.531 228.342H104v-7h3.531v-5.333H19v18h88.531v-5.667zm-49.281 0H25.5v-7h32.75v7zm30.25 0h-7v-7h7v7zm11.25 0h-7v-7h7v7zM104 252.917v-7h3.531v-5.333H19v18h88.531v-5.667H104zm-45.75 0H25.5v-7h32.75v7zm30.25 0h-7v-7h7v7zm11.25 0h-7v-7h7v7zM133.575 110.731h28.999c4.891-4.127 8-10.298 8-17.199 0-12.426-10.074-22.5-22.5-22.5-12.424 0-22.498 10.074-22.498 22.5 0 6.901 3.11 13.072 7.999 17.199z"/><path d="M125.258 112.731c-.605 0-1.191.076-1.758.208-3.078.423-5.555 1.595-8.113 3.003-4.551 2.641-9.029 6.504-12.738 11.373-3.641 4.855-6.66 10.83-6.713 17.914a21.704 21.704 0 0 0 1.48 7.937h-.001c2.003 5.191 6.098 9.662 11.684 13.028 1.943 1.176 4.09 2.242 6.432 3.217v-18.185c-1.957-1.515-2.787-2.822-3.202-3.855h-.001a5.772 5.772 0 0 1-.393-2.142c-.01-1.383.459-3.217 1.525-5.227.963-1.859 2.43-3.795 4.07-5.514v152.363c0 6.83 5.537 12.363 12.363 12.363 6.828 0 12.363-5.533 12.363-12.363V196.58h4.635v90.271c0 6.83 5.537 12.363 12.363 12.363 6.828 0 12.365-5.533 12.365-12.363V166.09c3.381 3.371 7.393 4.81 10.932 5.701 4.029.963 7.816 1.147 10.73 1.157 2.975-.002 5.02-.223 5.23-.246a7.998 7.998 0 0 0 7.08-8.825 8.003 8.003 0 0 0-8.83-7.078c-.18.017-1.586.148-3.48.148-2.104.006-4.84-.184-6.98-.711-2.199-.487-3.445-1.4-3.449-1.521-1.41-1.719-2.48-4.402-3.084-7.889-.945-5.225-.703-11.67-.951-17.512-.184-2.973-.328-5.801-1.654-9.139-.688-1.645-1.824-3.561-3.822-5.102-1.975-1.563-4.686-2.35-6.953-2.309-.389 0-.768.037-1.141.09a7.733 7.733 0 0 0-1.355-.125h-38.634z"/></svg>