<svg xmlns="http://www.w3.org/2000/svg" viewBox="0 0 1000 1000"><path d="M252.6 277.2c18.6 9.6 34.2 23.6 44 39.4 7 11.2 11 23.5 11.5 35-6.8.7-12.1 6-12.1 12.4v15c0 6.9 6.2 12.5 13.7 12.5h46.4c7.6 0 13.7-5.6 13.7-12.5v-15c0-6.6-5.6-12-12.7-12.5-1.4-10.4-4.2-20.7-8.3-30.7-11.5-28.3-33-53.3-60.5-70.3-25.9-16.4-58.7-26.3-91.5-28-8.3-9.8-21.8-16.7-37.5-18.4V183c3.5-1.5 6.4-4.1 8.3-7.3H218c2.7 7.3 9.7 12.5 17.9 12.5 10.5 0 19.1-8.5 19.1-19.1s-8.5-19.1-19.1-19.1c-8 0-14.8 4.9-17.7 11.9h-49c-2.2-7.2-8.8-12.5-16.8-12.5-7.9 0-14.6 5.3-16.8 12.5H84.1c-2.8-7-9.7-11.9-17.7-11.9-10.5 0-19.1 8.5-19.1 19.1s8.5 19.1 19.1 19.1c8.2 0 15.2-5.2 17.9-12.5h52.9c1.9 3.3 4.8 5.9 8.3 7.3v21.1c-15.8 1.4-29.6 8.1-38.1 17.8H16.8v40.6h86.1c8.5 14.3 27.2 24.2 48.9 24.2 21.9 0 40.7-10.1 49.1-24.6 18.2 1.8 36.2 7 51.7 15.1zM972.5 221.9h-90.6c-8.6-9.7-22.3-16.4-38.1-17.8V183c3.5-1.5 6.4-4.1 8.3-7.3H905c2.7 7.3 9.7 12.5 17.9 12.5 10.5 0 19.1-8.5 19.1-19.1s-8.5-19.1-19.1-19.1c-8 0-14.8 4.9-17.7 11.9h-51.5c-2.2-7.2-8.8-12.5-16.8-12.5-7.9 0-14.6 5.3-16.8 12.5h-49c-2.8-7-9.7-11.9-17.7-11.9-10.5 0-19.1 8.5-19.1 19.1s8.5 19.1 19.1 19.1c8.2 0 15.2-5.2 17.9-12.5h50.4c1.9 3.3 4.8 5.9 8.3 7.3v21.2c-15.7 1.7-29.2 8.6-37.5 18.4-32.7 1.6-65.6 11.6-91.5 28-27.5 17-49 42-60.5 70.3-4.1 9.9-6.9 20.2-8.3 30.7-7.1.5-12.7 5.9-12.7 12.5v15c0 6.9 6.2 12.5 13.7 12.5h46.4c7.6 0 13.7-5.6 13.7-12.5v-15c0-6.4-5.3-11.7-12.1-12.4.5-11.5 4.5-23.8 11.5-35 9.8-15.8 25.4-29.8 44-39.4 15.5-8.1 33.4-13.3 51.7-15 8.4 14.5 27.2 24.6 49.1 24.6 21.7 0 40.4-9.9 48.9-24.2h86.1v-40.8zM409.5 188.2c8.2 0 15.2-5.2 17.9-12.5h52.9c1.9 3.3 4.8 5.9 8.3 7.3v21.1c-26.7 2.4-47.5 19.9-47.5 41.2 0 16.2 12.1 30.2 29.6 37.1v69.1h1c-7.6 0-13.7 5.6-13.7 12.5v15c0 6.9 6.2 12.5 13.7 12.5h46.4c7.6 0 13.7-5.6 13.7-12.5v-15c0-6.9-6.2-12.5-13.7-12.5h-.1v-68.8c18.1-6.7 30.5-20.9 30.5-37.4 0-20.9-20.1-38.2-46.3-41.1V183c3.5-1.5 6.4-4.1 8.3-7.3H561c2.7 7.3 9.7 12.5 17.9 12.5 10.5 0 19.1-8.5 19.1-19.1s-8.5-19.1-19.1-19.1c-8 0-14.8 4.9-17.7 11.9h-49c-2.2-7.2-8.8-12.5-16.8-12.5s-14.6 5.3-16.8 12.5h-51.5c-2.8-7-9.7-11.9-17.7-11.9-10.5 0-19.1 8.5-19.1 19.1s8.6 19.1 19.2 19.1zM490.2 608.7c-70 0-135.8-9.5-185.5-26.6-8.3-2.9-16-5.9-23.1-9.2L473 808v135h42.2V808L712 566.3c-10.4 5.6-22.5 10.9-36.3 15.7-49.7 17.2-115.5 26.7-185.5 26.7z"/><path d="M671.7 455c-48.4-16.8-112.9-26-181.5-26s-133.1 9.2-181.5 26c-45.7 15.8-72 36.9-72 57.9 0 14.2 12.1 28.5 34.2 41.2 10.4 6 23.1 11.6 37.8 16.7 48.4 16.8 112.9 26 181.5 26s133.1-9.2 181.5-26c14.7-5.1 27.3-10.7 37.8-16.7 22.1-12.7 34.2-27 34.2-41.2 0-21-26.2-42.1-72-57.9z"/></svg>