<svg xmlns="http://www.w3.org/2000/svg" viewBox="0 0 100 100"><path style="text-indent:0;text-transform:none;block-progression:tb" d="M40.906 27.012c-2.12.109-4.475.9-6.25 2.53a2 2 0 0 0-.062.063l-3.438 3.437c-3.077-.193-6.815.114-9.468 2.468a2 2 0 0 0-.094.093l-4 4a2 2 0 0 0-.532.656C10.486 42.887 6 49.417 6 56.973 6 66.805 13.573 75 23.5 75c9.22 0 16.397-7.05 17.375-15.934a2 2 0 0 0 1.219-.406l3-2a2 2 0 0 0 .093-.061 8.933 8.933 0 0 0 9.626 0 2 2 0 0 0 .093.062l3 2a2 2 0 0 0 1.219.374C60.089 67.933 67.27 75 76.5 75 86.427 75 94 66.805 94 56.973c0-7.556-4.486-14.086-11.063-16.714a2 2 0 0 0-.53-.657l-4-3.999a2 2 0 0 0-.094-.093c-2.654-2.354-6.392-2.661-9.47-2.468l-3.437-3.437a2 2 0 0 0-.062-.063c-1.775-1.63-4.13-2.421-6.25-2.53-2.37-.122-4.779.696-6.563 2.655a2 2 0 0 0-.187.22c-.538.796-.887 1.536-1.094 2.311-.36-.069-.69-.158-1.125-.187a2 2 0 0 0-.25 0c-.435.03-.764.118-1.125.187-.207-.775-.556-1.515-1.094-2.312a2 2 0 0 0-.187-.219c-1.784-1.959-4.193-2.777-6.563-2.655zm.188 3.999c1.473-.076 2.302.19 3.312 1.25.352.54.488.818.532 1.03.049.238.062.727.062 1.719a2 2 0 0 0 2.875 1.78c.82-.402 1.235-.601 1.375-.655.12-.047.307-.059.75-.094.443.035.63.047.75.094.14.054.555.253 1.375.656A2 2 0 0 0 55 35.01c0-.992.013-1.48.063-1.718.043-.213.18-.492.53-1.031 1.011-1.06 1.84-1.326 3.313-1.25.917.047 3.095.866 3.75 1.468l3.938 3.937a2 2 0 0 0 1.625.593c2.367-.254 6.244.414 7.469 1.5l.5.5c-8.991.156-15.973 7.012-17.032 15.684l-1.468-.969A9.086 9.086 0 0 0 59 49.006c0-4.945-4.053-8.997-9-8.997s-9 4.052-9 8.997c0 1.715.5 3.318 1.344 4.687l-1.5 1c-1.06-8.672-8.04-15.528-17.032-15.684l.5-.5c1.225-1.086 5.102-1.754 7.47-1.5a2 2 0 0 0 1.624-.593l3.938-3.937c.655-.602 2.833-1.421 3.75-1.468zM23.5 43.008c7.767 0 13.5 6.142 13.5 13.965 0 7.823-5.736 14.028-13.5 14.028S10 64.796 10 56.973s5.733-13.965 13.5-13.965zm53 0c7.767 0 13.5 6.142 13.5 13.965 0 7.823-5.736 14.028-13.5 14.028S63 64.796 63 56.973s5.733-13.965 13.5-13.965zm-26.5 1c2.785 0 5 2.215 5 4.998a4.93 4.93 0 0 1-.969 2.937c-.91 1.246-2.357 2.062-4.031 2.062a4.97 4.97 0 0 1-5-4.999 4.97 4.97 0 0 1 5-4.998z" overflow="visible" color="#000"/></svg>