<svg xmlns="http://www.w3.org/2000/svg" viewBox="0 0 100 100"><circle cx="50.1" cy="50.1" r="48.2" fill="none" stroke="#000" stroke-width="2" stroke-miterlimit="10"/><path d="M98.1 46.6v-.8c0-.2 0-.3-.1-.5v-.2c0-.2-.1-.5-.1-.7C96 28.6 86.6 15.3 73.4 8l.2.2c-.9.5-2.3-.8-2.9 0-.1.2-.2.4-.2.7-.1 1.6.9 3.1 1.8 4.5 1.2 1.7 2.3 3.4 3.5 5 .4.6.8 1.2 1 2 .2.6.2 1.3.1 1.9-.3 2.6-1.9 5.4-4.4 6-.7.2-1.5.2-2.2.4-.7.2-1.4.7-1.6 1.4-.3 1.3 1.1 2.3 2.4 2.7 1.3.4 2.8.5 3.9-.2s1.8-2.2 3.1-2.2c1.2 0 1.9 1.3 3.1 1.6.8.2 1.8-.2 2.3.4.3.4.2 1 .3 1.4.2.9 1.1 1.4 1.9 1.8 1.6.8 3.3 1.6 4.9 2.5 1.1.6 2.2 1.1 3.1 2.1.6.6 1 1.5 1 2.3 0 .2 0 .3-.1.5l-1.8-.3c-2.8-.5-5.4-1.8-7.9-3.2-1.6-.9-3.4-1.8-5-1.1-.5.2-.9.6-1.4.9-1.8 1.5-3.7 3-5.5 4.5-.3.2-.6.5-.8.8-.4.9.3 1.8.4 2.7.2 2.2-2.4 3.7-2.6 5.8-.2 1.8 1.5 3.2 3 4.1 1.6.9 3.4 1.6 4.3 3.2.7 1.3.7 2.8.5 4.3-.6 5-2.6 9.8-5.6 13.8-.7 1-1.6 2-1.7 3.2-.1 1.1.3 2.3-.2 3.3-.4.8-1.5 1.6-1.1 2.4.2.4.6.5.9.7 1.1.5 2.3 1 3.5.7.8-.2 1.5-.6 2-1.2 2.8-2.5 3.8-6.7 7-8.7 1.9-1.1 4.3-1.3 6-2.7 2-1.5 2.6-4.2 3.4-6.5 1.1-3.2 2.9-6.3 5-8.9.8-3.4 1.2-6.9 1.2-10.6.1-1.2 0-2.4-.1-3.6z"/><path d="M70.7 24.4c.8 0 1.3-.4 2.1-.7.5-.2 1.1-.7 1.2-1.3.1-.5-.1-.9-.3-1.3-1-2.4-2.3-4.5-4-6.3-.1-.1-.2-.2-.3-.2-.2 0-.3.2-.3.4-.3 1.1-.3 2.3 0 3.4 0 .1.1.2 0 .3 0 .2-.2.3-.4.4-.7.4-1.3 1.1-1.6 1.9-.1.2-.1.5 0 .7.1.1.2.1.3.1.6 0 1.3.1 1.9.1.1 0 .2 0 .3.1.1.1.1.3.1.4 0 .5-.1.9 0 1.4.2.5.4.6 1 .6M46.3 95.1c-.4.1-.9.1-1.3.1-.7-.1-1.3-.6-1.9-1.1-3.5-2.6-6.9-2.8-11.1-4.1-.5-.2-1.5-.3-1.9-.9-.3-.5-.1-.8 0-1.1.3-.6.5-.8 1.1-1.1.6-.4.6-1.4 0-1.9s-1.4-.5-2.1-.4c-2 .3-3.7 1.6-5.7 2.2-1.4.5-3 .6-4.5.3 8.4 7.1 19.2 11.3 31 11.3 1.9 0 3.8-.1 5.7-.3-2.4-2.3-5.9-3.4-9.3-3zm1.9-42.2c-.1-.3-.3-.5-.7-.5-1.2 0-2.2-1.3-3.1-2.2-1.1-1.1-2.6-1.8-4.1-1.9-.4 0-.9-.1-1.3-.2-.6-.2-.9-.8-1.3-1.2-2.8-3.6-7.1-6.1-11.6-6.8-1.1-.2-2.2-.3-3.3.1-2 .7-3.1 2.8-3.8 4.8-.4 1-.6 1.8-.9 2.6-.3-.6-.4-1.3-.6-1.9-.3-1-.8-2.1-1.8-2.4.2-.6.7-1 1.2-1.4.4-.4.8-1.1.5-1.6-1.1.1-2.3-.1-3.3-.6-1.7-.8-2.3-2.6-2-4.4.3-1.5 1.2-2.8 2-4 .9-1.2 2.4-1.5 3.9-1.4.4 0 .8.1 1.2.2 1.4.7.7 2.7 1.8 3.7.7-.2 1.4-.5 2.1-.8.2-.1.4-.2.5-.4.2-.3.1-.6 0-.8-.3-2 1.9-3.7 4.1-4.3 2.3-.5 6-.8 8.3-.6.9.1 3.3.1 4-.6 0 0 .7-1.6 0-2.5 1.5.3 3 .2 4.1-.6s2-2.6 1.2-3.7c-.5-.6-2.1-1.7-2.4-2.4-.5-1 .5-2.1 1.2-2.9-.9-.3-3-.2-3.3-1-1.1-.2-1.9 1.2-2.8 1.8-.5.3-1.9 1.3-2.4 1.5-.4.2-1 .4-1.5.5-1.4.4-3.2.7-4.3-.3-.7-.6-.7-1.5-.4-2.3.4-.8 1.1-1.3 1.9-1.8 2.1-1.3 4.8-1.8 7.4-1.5.5.1.9.1 1.4 0 .4-.1.7-.4 1-.7 1-1.1 1.6-2.5 1.6-3.9 0-.3 0-.7.3-1 .4-.3 1.1-.1 1.7-.1.8 0 1.5-.6 1.8-1.3.2-.6.2-1.3.1-2-3 .2-6 .7-9.1 1.5-11.8 3.2-21.4 10.5-27.7 20l.3.6c.8 1.8-.6 4.4-1.1 6.2-.6 2.3-.8 4.3-1.4 6.6-.1.4-.1 1-.2 1.5 0 .4-.1.8-.1 1.2 0 .2 0 .4.1.6.2.3.6.4.8.6 1 .7 2.3.7 3.2 1.5.5.4 1 .7 1.3 1.3.4.6 1 1.4 1.4 2 .3.6.7 1.3 1 1.9.6 1.2.5 2.8 1.6 3.5.3.2.6.3.9.4v.4c.1 1.3.3 3.2.7 3.8.4.7.8 1.8 2.3 2.8.5.3.9 1.3.9 1.8 0 1.3.1 3.9.1 4.9 0 2.2.1 4 0 6.2-.1 2.1-.4 4.2.2 6.2.4 1.6 1.6 3.1 3 3.7.8.4 1.6.8 2.5.8.9 0 1.9-.7 2-1.6v-.9c-.5-3.5.4-7.1 2.4-10 2-2.9 5.1-5 8.5-5.9 1.2-.3 2.5-.5 3.2-1.6.3-.5.4-1.1.8-1.4.3-.3.8-.3 1.2-.4 1.1-.3 1.8-1.3 2.2-2.3.9-1.6 1.1-3.4.6-5.1zM59.4 5c-.5-.2-1-.5-1.4-1-.2-.3-.3-.5-.5-.8-.4-.4-.9-.5-1.4-.6-.5-.1-1-.1-1.5-.2-.3 0-.5 0-.8-.1h-.4c-.1 0-.2.1-.4.1-.1 0-.3.1-.4.1-.3 0-.6.1-.8.1-.3 0-.6 0-.8-.1-.1 0-.3-.1-.4-.1-.1 0-.1 0-.2-.1 0 0 0 .1-.1.1l-.1.1c-.1.1-.1.2-.2.2-.1.2-.3.4-.4.6l-.3.6c-.1.2-.2.5-.2.7-.1.2-.1.5-.2.7 0 .2-.1.5-.1.7v1.4c0 .2 0 .5.1.7.1.9.4 1.8.9 2.5.4.5.8 1 1.4 1.1h.4c.1 0 .3 0 .4-.1 0 0 .1-.1.1-.2s.1-.1.1-.2c.2-.3.4-.5.6-.7.4-.5.9-.9 1.5-1.2.5 0 1.1-.3 1.7-.4.2-.1.5-.1.7-.2.7-.3 1.3-.8 1.7-1.5s.7-1.4 1-2.2"/></svg>