<svg xmlns="http://www.w3.org/2000/svg" viewBox="0 0 48 48"><g data-name="Livello 2"><path fill="none" d="M0 0h48v48H0z"/><path d="M24.17 36.75a.73.73 0 0 1-.53-.22L11.8 24.7a.75.75 0 0 1 0-1.06l4.42-4.42a4.3 4.3 0 0 0-1.92-.89 5.2 5.2 0 0 1-.88-.27 3.64 3.64 0 0 1-1.61-1.35 3.53 3.53 0 0 1 0-3.75 3.64 3.64 0 0 1 .53-.66 3.45 3.45 0 0 1 .65-.52 3.5 3.5 0 0 1 3.76 0 3.56 3.56 0 0 1 1.35 1.6 5.2 5.2 0 0 1 .27.88 4.3 4.3 0 0 0 .89 1.92l4.42-4.42a.77.77 0 0 1 1.06 0l5 5a.75.75 0 0 1 0 1.06 6 6 0 0 1-3.18 1.79 4.11 4.11 0 0 0-.65.19 2.11 2.11 0 0 0-.94.79 2 2 0 0 0 0 2.14 3.3 3.3 0 0 0 .32.4 2.93 2.93 0 0 0 .41.32 2 2 0 0 0 2.12 0 2.14 2.14 0 0 0 .8-.94 5.36 5.36 0 0 0 .19-.64 5.91 5.91 0 0 1 1.79-3.19.75.75 0 0 1 1.06 0l5 5a.75.75 0 0 1 0 1.06L24.7 36.53a.74.74 0 0 1-.53.22zM13.4 24.17l10.77 10.77 10.77-10.77-3.89-3.89a4.42 4.42 0 0 0-.89 1.92 6.23 6.23 0 0 1-.26.88 3.6 3.6 0 0 1-1.36 1.61 3.53 3.53 0 0 1-3.74 0 4.9 4.9 0 0 1-.67-.53 3.89 3.89 0 0 1-.52-.66 3.54 3.54 0 0 1 0-3.76 3.62 3.62 0 0 1 1.6-1.35 5.49 5.49 0 0 1 .88-.27 4.25 4.25 0 0 0 1.92-.89l-3.84-3.83-4.45 4.44a.75.75 0 0 1-1.06 0 6 6 0 0 1-1.79-3.19 3.18 3.18 0 0 0-.19-.64 2.06 2.06 0 0 0-.79-.94 2 2 0 0 0-2.13 0 2.24 2.24 0 0 0-.4.32 2.45 2.45 0 0 0-.33.41 2 2 0 0 0 0 2.12 2.06 2.06 0 0 0 .94.79 3.18 3.18 0 0 0 .64.19 6 6 0 0 1 3.19 1.79.75.75 0 0 1 0 1.06z"/></g></svg>