<svg xmlns="http://www.w3.org/2000/svg" viewBox="0 0 80 80"><path d="M79 70.487h-1.567V20.33a1 1 0 0 0-1.535-.845l-4.3 2.72-1.17-17.01a1 1 0 0 0-.998-.932h-9.405a1 1 0 0 0-.998.94l-1.588 25.96-5.654 3.578v-13.41a.998.998 0 0 0-1.5-.867l-4.529 2.612L44.58 5.197a1 1 0 0 0-.998-.934h-9.405a1 1 0 0 0-.998.94L31.585 31.25l-5.075 2.927L24.467.938A1 1 0 0 0 23.469 0H7.63a1 1 0 0 0-.998.939L2.366 70.487H1a1 1 0 0 0-1 1v7.5a1 1 0 0 0 1 1h78a1 1 0 0 0 1-1v-7.5a1 1 0 0 0-1-1zM60.966 6.263h7.53l1.182 17.157-10.155 6.425 1.443-23.582zm-25.85 0h7.529l1.18 17.927-10.163 5.862 1.455-23.789zm14.669 16.799v13.495a1 1 0 0 0 1.534.845l24.114-15.256v48.34h-46.69l-2.095-34.079 23.137-13.345zM8.572 2h13.956l4.211 68.487H4.37L8.573 2zM78 77.987H2v-5.5h76v5.5z"/><path d="M36.526 52.371a1 1 0 0 0 1-1v-6.406a1 1 0 0 0-2 0v6.406a1 1 0 0 0 1 1zm7.375 0a1 1 0 0 0 1-1v-6.406a1 1 0 0 0-2 0v6.406a1 1 0 0 0 1 1zm7.375 0a1 1 0 0 0 1-1v-6.406a1 1 0 0 0-2 0v6.406a1 1 0 0 0 1 1zm7.375 0a1 1 0 0 0 1-1v-6.406a1 1 0 0 0-2 0v6.406a1 1 0 0 0 1 1zm7.375 0a1 1 0 0 0 1-1v-6.406a1 1 0 0 0-2 0v6.406a1 1 0 0 0 1 1zm-29.5 12.509a1 1 0 0 0 1-1v-6.406a1 1 0 0 0-2 0v6.406a1 1 0 0 0 1 1zm7.375 0a1 1 0 0 0 1-1v-6.406a1 1 0 0 0-2 0v6.406a1 1 0 0 0 1 1zm7.375 0a1 1 0 0 0 1-1v-6.406a1 1 0 0 0-2 0v6.406a1 1 0 0 0 1 1zm7.375 0a1 1 0 0 0 1-1v-6.406a1 1 0 0 0-2 0v6.406a1 1 0 0 0 1 1zm7.375 0a1 1 0 0 0 1-1v-6.406a1 1 0 0 0-2 0v6.406a1 1 0 0 0 1 1z"/></svg>
