<svg xmlns="http://www.w3.org/2000/svg" xmlns:xlink="http://www.w3.org/1999/xlink" version="1.1" style="enable-background:new 0 0 100 100;" xml:space="preserve" width="80" height="80"><rect id="backgroundrect" width="100%" height="100%" x="0" y="0" fill="none" stroke="none"/><g class="currentLayer" style=""><title>Layer 1</title><path d="M79,70.48681640625 h-1.5673827999999999 V20.33007810625 c0,-0.3647461 -0.19824220000000006,-0.7001953000000001 -0.5175780999999999,-0.8759766000000001 c-0.31884770000000007,-0.17626950000000002 -0.7084961,-0.16455080000000002 -1.0170898,0.030761700000000006 l-4.2993164,2.7201538000000003 l-1.1713867,-17.0106812 c-0.036132800000000014,-0.5244140999999999 -0.47216800000000003,-0.9311522999999999 -0.9975586,-0.9311522999999999 h-9.4047852 c-0.5288086000000001,0 -0.9658203000000001,0.4111328 -0.9980469,0.9389648 l-1.5877686,25.9615479 l-5.6544189,3.5775145999999998 V21.33007810625 c0,-0.35742190000000007 -0.19042970000000004,-0.6875000000000001 -0.5,-0.8657227000000001 c-0.3090820000000001,-0.1782227 -0.6904297000000001,-0.1796875 -0.9995116999999999,-0.0004883000000000001 l-4.5289917,2.6123657 l-1.177063,-17.8789673 c-0.03466800000000001,-0.5253906 -0.4711914,-0.934082 -0.9980469,-0.934082 h-9.4052734 c-0.5288086000000001,0 -0.9658203000000001,0.4111328 -0.9980469,0.9389648 L31.585144,31.25018310625 l-5.074707,2.9271851 l-2.0436401,-33.2388916 c-0.03222660000000001,-0.5273438 -0.46972660000000005,-0.9384766 -0.9980469,-0.9384766 H7.631347699999999 c-0.5283203,0 -0.9658203000000001,0.4111328 -0.9980469,0.9389648 L2.3662109000000004,70.48681640625 H1 c-0.5522461,0 -1,0.44775390000000004 -1,1 V78.98681640625 c0,0.5522461 0.44775390000000004,1 1,1 h78 c0.5522461,0 1,-0.44775390000000004 1,-1 v-7.5 C80,70.93457030625 79.5522461,70.48681640625 79,70.48681640625 zM60.965820300000004,6.263183606249999 h7.5302734000000004 l1.1815796,17.1572266 l-10.1543579,6.4245605 L60.965820300000004,6.263183606249999 zM35.1166992,6.263183606249999 h7.527832 l1.1801758,17.927124 l-10.1627197,5.8619995000000005 L35.1166992,6.263183606249999 zM49.784668,23.061523406249997 v13.4956055 c0,0.3647461 0.19824220000000006,0.7001953000000001 0.5175780999999999,0.8759766000000001 c0.31884770000000007,0.17626950000000002 0.7080078000000001,0.16406250000000003 1.0170898,-0.030761700000000006 l24.1132812,-15.2563477 V70.48681640625 H28.7427979 L26.647522000000002,36.40698240625 L49.784668,23.061523406249997 zM8.5717773,2.0000000062499996 h13.956543 L26.7391357,70.48681640625 H4.369812 L8.5717773,2.0000000062499996 zM78,77.98681640625 H2 v-5.5 h76 V77.98681640625 z" id="svg_1" class=""/><path d="M36.5263672,52.37109370625 c0.5522461,0 1,-0.44775390000000004 1,-1 v-6.4057617 c0,-0.5522461 -0.44775390000000004,-1 -1,-1 s-1,0.44775390000000004 -1,1 v6.4057617 C35.5263672,51.92333980625 35.9741211,52.37109370625 36.5263672,52.37109370625 z" id="svg_2" class=""/><path d="M43.9013672,52.37109370625 c0.5522461,0 1,-0.44775390000000004 1,-1 v-6.4057617 c0,-0.5522461 -0.44775390000000004,-1 -1,-1 s-1,0.44775390000000004 -1,1 v6.4057617 C42.9013672,51.92333980625 43.3491211,52.37109370625 43.9013672,52.37109370625 z" id="svg_3" class=""/><path d="M51.2763672,52.37109370625 c0.5522461,0 1,-0.44775390000000004 1,-1 v-6.4057617 c0,-0.5522461 -0.44775390000000004,-1 -1,-1 s-1,0.44775390000000004 -1,1 v6.4057617 C50.2763672,51.92333980625 50.7241211,52.37109370625 51.2763672,52.37109370625 z" id="svg_4" class=""/><path d="M58.651367199999996,52.37109370625 c0.5522461,0 1,-0.44775390000000004 1,-1 v-6.4057617 c0,-0.5522461 -0.44775390000000004,-1 -1,-1 s-1,0.44775390000000004 -1,1 v6.4057617 C57.651367199999996,51.92333980625 58.099121100000005,52.37109370625 58.651367199999996,52.37109370625 z" id="svg_5" class=""/><path d="M66.0263672,52.37109370625 c0.5522461,0 1,-0.44775390000000004 1,-1 v-6.4057617 c0,-0.5522461 -0.44775390000000004,-1 -1,-1 s-1,0.44775390000000004 -1,1 v6.4057617 C65.0263672,51.92333980625 65.4741211,52.37109370625 66.0263672,52.37109370625 z" id="svg_6" class=""/><path d="M36.5263672,64.87988280625 c0.5522461,0 1,-0.44775390000000004 1,-1 v-6.4057617 c0,-0.5522461 -0.44775390000000004,-1 -1,-1 s-1,0.44775390000000004 -1,1 v6.4057617 C35.5263672,64.43212890625 35.9741211,64.87988280625 36.5263672,64.87988280625 z" id="svg_7" class=""/><path d="M43.9013672,64.87988280625 c0.5522461,0 1,-0.44775390000000004 1,-1 v-6.4057617 c0,-0.5522461 -0.44775390000000004,-1 -1,-1 s-1,0.44775390000000004 -1,1 v6.4057617 C42.9013672,64.43212890625 43.3491211,64.87988280625 43.9013672,64.87988280625 z" id="svg_8" class=""/><path d="M51.2763672,64.87988280625 c0.5522461,0 1,-0.44775390000000004 1,-1 v-6.4057617 c0,-0.5522461 -0.44775390000000004,-1 -1,-1 s-1,0.44775390000000004 -1,1 v6.4057617 C50.2763672,64.43212890625 50.7241211,64.87988280625 51.2763672,64.87988280625 z" id="svg_9" class=""/><path d="M58.651367199999996,64.87988280625 c0.5522461,0 1,-0.44775390000000004 1,-1 v-6.4057617 c0,-0.5522461 -0.44775390000000004,-1 -1,-1 s-1,0.44775390000000004 -1,1 v6.4057617 C57.651367199999996,64.43212890625 58.099121100000005,64.87988280625 58.651367199999996,64.87988280625 z" id="svg_10" class=""/><path d="M66.0263672,64.87988280625 c0.5522461,0 1,-0.44775390000000004 1,-1 v-6.4057617 c0,-0.5522461 -0.44775390000000004,-1 -1,-1 s-1,0.44775390000000004 -1,1 v6.4057617 C65.0263672,64.43212890625 65.4741211,64.87988280625 66.0263672,64.87988280625 z" id="svg_11" class=""/></g></svg>