<svg viewBox="0 0 100 100" xmlns="http://www.w3.org/2000/svg"><g clip-path="url(#clip0)"><path d="M98.75 88.109h-1.959V25.413a1.25 1.25 0 0 0-1.918-1.057l-5.376 3.4-1.462-21.262a1.25 1.25 0 0 0-1.248-1.165H75.031a1.25 1.25 0 0 0-1.247 1.175l-1.985 32.45-7.068 4.472V26.664a1.248 1.248 0 0 0-1.875-1.084l-5.661 3.265-1.47-22.349a1.25 1.25 0 0 0-1.248-1.167H42.721a1.25 1.25 0 0 0-1.247 1.175L39.48 39.063l-6.343 3.658-2.554-41.548A1.25 1.25 0 0 0 29.336 0H9.538A1.25 1.25 0 0 0 8.29 1.174L2.958 88.109H1.25A1.25 1.25 0 0 0 0 89.359v9.375a1.25 1.25 0 0 0 1.25 1.25h97.5a1.25 1.25 0 0 0 1.25-1.25v-9.375a1.25 1.25 0 0 0-1.25-1.25zM76.207 7.829h9.413l1.477 21.446-12.693 8.031L76.207 7.83zm-32.312 0h9.411l1.475 22.409-12.703 7.327 1.818-29.736h-.001zm18.336 20.998v16.87a1.25 1.25 0 0 0 1.918 1.055l30.142-19.07v60.425H35.93L33.31 45.51l28.921-16.681zM10.715 2.5H28.16l5.264 85.609H5.462L10.716 2.5h-.001zM97.5 97.484h-95v-6.875h95v6.875z"/><path d="M45.657 65.464a1.25 1.25 0 0 0 1.25-1.25v-8.008a1.25 1.25 0 0 0-2.5 0v8.008a1.25 1.25 0 0 0 1.25 1.25zm9.22 0a1.25 1.25 0 0 0 1.25-1.25v-8.008a1.25 1.25 0 1 0-2.5 0v8.008a1.25 1.25 0 0 0 1.25 1.25zm9.218 0a1.25 1.25 0 0 0 1.25-1.25v-8.008a1.25 1.25 0 0 0-2.5 0v8.008a1.25 1.25 0 0 0 1.25 1.25zm9.219 0a1.25 1.25 0 0 0 1.25-1.25v-8.008a1.25 1.25 0 1 0-2.5 0v8.008a1.25 1.25 0 0 0 1.25 1.25zm9.219 0a1.25 1.25 0 0 0 1.25-1.25v-8.008a1.25 1.25 0 0 0-2.5 0v8.008a1.25 1.25 0 0 0 1.25 1.25zM45.657 81.1a1.25 1.25 0 0 0 1.25-1.25v-8.007a1.25 1.25 0 0 0-2.5 0v8.007a1.25 1.25 0 0 0 1.25 1.25zm9.22 0a1.25 1.25 0 0 0 1.25-1.25v-8.007a1.25 1.25 0 1 0-2.5 0v8.007a1.25 1.25 0 0 0 1.25 1.25zm9.218 0a1.25 1.25 0 0 0 1.25-1.25v-8.007a1.25 1.25 0 0 0-2.5 0v8.007a1.25 1.25 0 0 0 1.25 1.25zm9.219 0a1.25 1.25 0 0 0 1.25-1.25v-8.007a1.25 1.25 0 1 0-2.5 0v8.007a1.25 1.25 0 0 0 1.25 1.25zm9.219 0a1.25 1.25 0 0 0 1.25-1.25v-8.007a1.25 1.25 0 0 0-2.5 0v8.007a1.25 1.25 0 0 0 1.25 1.25z"/></g><defs><clipPath id="clip0"><path fill="#fff" d="M0 0h100v100H0z"/></clipPath></defs></svg>