<svg xmlns="http://www.w3.org/2000/svg" viewBox="0 0 100 100"><path d="M89 80.5h-1.567V30.343a1 1 0 0 0-1.535-.845l-4.3 2.72-1.17-17.01a1 1 0 0 0-.998-.932h-9.405a1 1 0 0 0-.998.94l-1.588 25.96-5.654 3.578v-13.41a.998.998 0 0 0-1.5-.867l-4.529 2.612L54.58 15.21a1 1 0 0 0-.998-.934h-9.405a1 1 0 0 0-.998.94l-1.593 26.047-5.075 2.928-2.043-33.24a1 1 0 0 0-.998-.938H17.63a1 1 0 0 0-.998.94L12.366 80.5H11a1 1 0 0 0-1 1V89a1 1 0 0 0 1 1h78a1 1 0 0 0 1-1v-7.5a1 1 0 0 0-1-1zM70.966 16.276h7.53l1.182 17.158-10.155 6.424 1.443-23.582zm-25.85 0h7.529l1.18 17.927-10.163 5.862 1.455-23.789zm14.669 16.799V46.57a1 1 0 0 0 1.534.846l24.114-15.257V80.5h-46.69l-2.095-34.08 23.137-13.345zM18.572 12.013h13.956L36.74 80.5H14.37l4.203-68.487zM88 88H12v-5.5h76V88z"/><path d="M46.526 62.384a1 1 0 0 0 1-1V54.98a1 1 0 0 0-2 0v6.405a1 1 0 0 0 1 1zM53.901 62.384a1 1 0 0 0 1-1V54.98a1 1 0 0 0-2 0v6.405a1 1 0 0 0 1 1zM61.276 62.384a1 1 0 0 0 1-1V54.98a1 1 0 0 0-2 0v6.405a1 1 0 0 0 1 1zM68.651 62.384a1 1 0 0 0 1-1V54.98a1 1 0 0 0-2 0v6.405a1 1 0 0 0 1 1zM76.026 62.384a1 1 0 0 0 1-1V54.98a1 1 0 0 0-2 0v6.405a1 1 0 0 0 1 1zM46.526 74.893a1 1 0 0 0 1-1v-6.406a1 1 0 0 0-2 0v6.406a1 1 0 0 0 1 1zM53.901 74.893a1 1 0 0 0 1-1v-6.406a1 1 0 0 0-2 0v6.406a1 1 0 0 0 1 1zM61.276 74.893a1 1 0 0 0 1-1v-6.406a1 1 0 0 0-2 0v6.406a1 1 0 0 0 1 1zM68.651 74.893a1 1 0 0 0 1-1v-6.406a1 1 0 0 0-2 0v6.406a1 1 0 0 0 1 1zM76.026 74.893a1 1 0 0 0 1-1v-6.406a1 1 0 0 0-2 0v6.406a1 1 0 0 0 1 1z"/></svg>