<svg xmlns="http://www.w3.org/2000/svg" xmlns:xlink="http://www.w3.org/1999/xlink" version="1.1" x="0px" y="0px" viewBox="0 0 100 100" style="enable-background:new 0 0 100 100;" xml:space="preserve"><path d="M89,80.5h-1.5673828V30.3432617c0-0.3647461-0.1982422-0.7001953-0.5175781-0.8759766  c-0.3188477-0.1762695-0.7084961-0.1645508-1.0170898,0.0307617l-4.2993164,2.7201538l-1.1713867-17.0106812  c-0.0361328-0.5244141-0.472168-0.9311523-0.9975586-0.9311523h-9.4047852c-0.5288086,0-0.9658203,0.4111328-0.9980469,0.9389648  l-1.5877686,25.9615479l-5.6544189,3.5775146V31.3432617c0-0.3574219-0.1904297-0.6875-0.5-0.8657227  c-0.309082-0.1782227-0.6904297-0.1796875-0.9995117-0.0004883l-4.5289917,2.6123657l-1.177063-17.8789673  c-0.034668-0.5253906-0.4711914-0.934082-0.9980469-0.934082h-9.4052734c-0.5288086,0-0.9658203,0.4111328-0.9980469,0.9389648  L41.585144,41.2633667l-5.074707,2.9271851l-2.0436401-33.2388916c-0.0322266-0.5273438-0.4697266-0.9384766-0.9980469-0.9384766  H17.6313477c-0.5283203,0-0.9658203,0.4111328-0.9980469,0.9389648L12.3662109,80.5H11c-0.5522461,0-1,0.4477539-1,1V89  c0,0.5522461,0.4477539,1,1,1h78c0.5522461,0,1-0.4477539,1-1v-7.5C90,80.9477539,89.5522461,80.5,89,80.5z M70.9658203,16.2763672  h7.5302734l1.1815796,17.1572266l-10.1543579,6.4245605L70.9658203,16.2763672z M45.1166992,16.2763672h7.527832  l1.1801758,17.927124l-10.1627197,5.8619995L45.1166992,16.2763672z M59.784668,33.074707v13.4956055  c0,0.3647461,0.1982422,0.7001953,0.5175781,0.8759766c0.3188477,0.1762695,0.7080078,0.1640625,1.0170898-0.0307617  l24.1132812-15.2563477V80.5H38.7427979L36.647522,46.420166L59.784668,33.074707z M18.5717773,12.0131836h13.956543  L36.7391357,80.5H14.369812L18.5717773,12.0131836z M88,88H12v-5.5h76V88z"></path><path d="M46.5263672,62.3842773c0.5522461,0,1-0.4477539,1-1v-6.4057617c0-0.5522461-0.4477539-1-1-1s-1,0.4477539-1,1v6.4057617  C45.5263672,61.9365234,45.9741211,62.3842773,46.5263672,62.3842773z"></path><path d="M53.9013672,62.3842773c0.5522461,0,1-0.4477539,1-1v-6.4057617c0-0.5522461-0.4477539-1-1-1s-1,0.4477539-1,1v6.4057617  C52.9013672,61.9365234,53.3491211,62.3842773,53.9013672,62.3842773z"></path><path d="M61.2763672,62.3842773c0.5522461,0,1-0.4477539,1-1v-6.4057617c0-0.5522461-0.4477539-1-1-1s-1,0.4477539-1,1v6.4057617  C60.2763672,61.9365234,60.7241211,62.3842773,61.2763672,62.3842773z"></path><path d="M68.6513672,62.3842773c0.5522461,0,1-0.4477539,1-1v-6.4057617c0-0.5522461-0.4477539-1-1-1s-1,0.4477539-1,1v6.4057617  C67.6513672,61.9365234,68.0991211,62.3842773,68.6513672,62.3842773z"></path><path d="M76.0263672,62.3842773c0.5522461,0,1-0.4477539,1-1v-6.4057617c0-0.5522461-0.4477539-1-1-1s-1,0.4477539-1,1v6.4057617  C75.0263672,61.9365234,75.4741211,62.3842773,76.0263672,62.3842773z"></path><path d="M46.5263672,74.8930664c0.5522461,0,1-0.4477539,1-1v-6.4057617c0-0.5522461-0.4477539-1-1-1s-1,0.4477539-1,1v6.4057617  C45.5263672,74.4453125,45.9741211,74.8930664,46.5263672,74.8930664z"></path><path d="M53.9013672,74.8930664c0.5522461,0,1-0.4477539,1-1v-6.4057617c0-0.5522461-0.4477539-1-1-1s-1,0.4477539-1,1v6.4057617  C52.9013672,74.4453125,53.3491211,74.8930664,53.9013672,74.8930664z"></path><path d="M61.2763672,74.8930664c0.5522461,0,1-0.4477539,1-1v-6.4057617c0-0.5522461-0.4477539-1-1-1s-1,0.4477539-1,1v6.4057617  C60.2763672,74.4453125,60.7241211,74.8930664,61.2763672,74.8930664z"></path><path d="M68.6513672,74.8930664c0.5522461,0,1-0.4477539,1-1v-6.4057617c0-0.5522461-0.4477539-1-1-1s-1,0.4477539-1,1v6.4057617  C67.6513672,74.4453125,68.0991211,74.8930664,68.6513672,74.8930664z"></path><path d="M76.0263672,74.8930664c0.5522461,0,1-0.4477539,1-1v-6.4057617c0-0.5522461-0.4477539-1-1-1s-1,0.4477539-1,1v6.4057617  C75.0263672,74.4453125,75.4741211,74.8930664,76.0263672,74.8930664z"></path></svg>