<svg xmlns="http://www.w3.org/2000/svg" viewBox="0 0 100 100"><path d="M63.516 22.32a2.271 2.271 0 0 0-2.271 2.271v11.634a2.271 2.271 0 0 0 4.542 0v-9.264c13.079 1.153 23.372 12.169 23.372 25.543 0 14.139-11.503 25.642-25.642 25.642S37.874 66.643 37.874 52.504c0-8.159 3.94-15.906 10.539-20.725a2.271 2.271 0 0 0-2.678-3.668c-7.766 5.67-12.403 14.789-12.403 24.393 0 16.643 13.54 30.184 30.184 30.184 16.643 0 30.184-13.54 30.184-30.184S80.16 22.32 63.516 22.32z"/><path d="M48.308 43.976a2.27 2.27 0 0 0 .819 3.105l12.678 7.385a2.268 2.268 0 0 0 3.105-.819 2.27 2.27 0 0 0-.819-3.105l-12.678-7.385a2.269 2.269 0 0 0-3.105.819zM8.167 37.525h21a2 2 0 0 0 0-4h-21a2 2 0 0 0 0 4zM4.167 48.179h21a2 2 0 0 0 0-4h-21a2 2 0 0 0 0 4zM27.167 56.833a2 2 0 0 0-2-2h-21a2 2 0 0 0 0 4h21a2 2 0 0 0 2-2zM31.167 67.487a2 2 0 0 0-2-2h-21a2 2 0 0 0 0 4h21a2 2 0 0 0 2-2z"/></svg>