<svg xmlns="http://www.w3.org/2000/svg" viewBox="0 0 128 128"><path d="M64 10a2 2 0 0 0 2-2V2a2 2 0 0 0-4 0v6a2 2 0 0 0 2 2zM64 118a2 2 0 0 0-2 2v6a2 2 0 0 0 4 0v-6a2 2 0 0 0-2-2zM126 62h-6a2 2 0 0 0 0 4h6a2 2 0 0 0 0-4zM8 62H2a2 2 0 0 0 0 4h6a2 2 0 0 0 0-4zM22.988 25.816c.39.391.902.586 1.414.586a2 2 0 0 0 1.414-3.414l-4.243-4.243a2 2 0 1 0-2.828 2.828l4.243 4.243zM22.989 102.185l-4.243 4.242a2 2 0 1 0 2.828 2.828l4.243-4.242a2 2 0 1 0-2.828-2.828zM103.598 26.402c.512 0 1.024-.195 1.414-.586l4.243-4.243a2 2 0 1 0-2.828-2.828l-4.243 4.243a2 2 0 0 0 1.414 3.414zM103.432 92.506a2 2 0 0 0-1.396-.656 2.068 2.068 0 0 0-1.394.484l-4.424-4.633A39.815 39.815 0 0 0 104 64c0-22.092-17.908-40-40-40S24 41.908 24 64s17.908 40 40 40a39.794 39.794 0 0 0 21.645-6.37l4.366 4.57-.349.314.024.026a1.994 1.994 0 0 0 .058 2.603l18.899 20.886c1.184 1.27 2.821 1.971 4.612 1.971a6.946 6.946 0 0 0 4.697-1.852l3.785-3.467c1.365-1.25 2.188-2.995 2.258-4.787.066-1.682-.517-3.271-1.619-4.45l-18.944-20.938zM28 64c0-19.85 16.15-36 36-36s36 16.15 36 36-16.15 36-36 36-36-16.15-36-36zm60.925 31.273a40.293 40.293 0 0 0 4.745-4.449l4.15 4.347-4.834 4.351-4.06-4.249zm30.11 24.457l-3.785 3.47c-.563.516-1.272.8-1.995.8-.668 0-1.267-.248-1.666-.676l-17.536-19.38 7.9-7.111 17.479 19.318c.498.535.583 1.158.566 1.586-.028.733-.379 1.46-.963 1.993z"/><path d="M64 34c-16.568 0-30 13.432-30 30s13.432 30 30 30 30-13.432 30-30-13.432-30-30-30zm0 56c-14.336 0-26-11.664-26-26 0-14.337 11.664-26 26-26s26 11.663 26 26c0 14.336-11.664 26-26 26z"/><path d="M77.261 49.142l-18.888 7.51c-.46.182-.837.53-1.056.974l-9.11 18.49a1.998 1.998 0 0 0 2.532 2.742l18.889-7.507c.46-.183.836-.53 1.055-.975l9.11-18.492a2 2 0 0 0-2.532-2.742zM59.473 62.3l6.284 6.284-11.666 4.637L59.473 62.3zm9.055 3.4l-6.283-6.285 11.664-4.637L68.528 65.7z"/></svg>