<svg xmlns="http://www.w3.org/2000/svg" viewBox="0 0 100 100"><path d="M92.4 80.2c3.7 0 6.8-3 6.8-6.8V7.7c0-3.7-3-6.8-6.8-6.8H7.6C3.9.9.8 3.9.8 7.7v65.8c0 3.7 3 6.8 6.8 6.8h40v15.4h-14c-1 0-1.8.8-1.8 1.8s.8 1.8 1.8 1.8h31.6c1 0 1.8-.8 1.8-1.8s-.8-1.8-1.8-1.8h-14V80.2h41.2zM7.6 4.4h84.7c1.8 0 3.3 1.5 3.3 3.3v12.2H4.3V7.7c0-1.9 1.5-3.3 3.3-3.3zm-3.3 69V23.3h91.3v50.1c0 1.8-1.5 3.3-3.3 3.3H7.6c-1.8 0-3.3-1.5-3.3-3.3zm6.5-60.1c-.3-.3-.5-.8-.5-1.2s.2-.9.5-1.2c.6-.6 1.8-.6 2.5 0 .3.3.5.8.5 1.2 0 .5-.2.9-.5 1.2-.3.3-.8.5-1.2.5-.5.1-.9-.1-1.3-.5zm9.5 0c-.3-.3-.5-.8-.5-1.2s.2-.9.5-1.2c.6-.6 1.8-.6 2.5 0 .3.3.5.8.5 1.2 0 .5-.2.9-.5 1.2-.3.3-.8.5-1.2.5-.5.1-1-.1-1.3-.5zm9.5 0c-.3-.3-.5-.8-.5-1.2s.2-.9.5-1.2c.7-.6 1.8-.6 2.5 0 .3.3.5.8.5 1.2s-.2.9-.5 1.2c-.3.3-.8.5-1.2.5s-1-.1-1.3-.5zm32.1 29.4L46 58.5c-.3.3-.8.5-1.2.5-.4 0-.9-.2-1.2-.5l-6.7-6.7c-.7-.7-.7-1.8 0-2.5s1.8-.7 2.5 0l5.4 5.5 14.7-14.6c.7-.7 1.8-.7 2.5 0 .6.7.6 1.8-.1 2.5z"/></svg>