<svg xmlns="http://www.w3.org/2000/svg" viewBox="0 0 400 345.112"><path d="M20.813 153.363h-2.515v-49.15h18.413a32.321 32.321 0 0 1 19.181-6.285 32.32 32.32 0 0 1 19.18 6.285H195v49.15h-63.045a89.893 89.893 0 0 1-9.18 10H195v49.15H92.937v10H195v49.15H92.937v42.997H400v-42.997h-8.701v-226.6H400v-19h-48.623V0H241.572v26.064h-72.338V0H47.238v26.064H0v19h8.299v121.19c4.038-6.436 8.566-10.423 12.514-12.891zm-2.514-59.15v-49.15H195v49.15H18.299zm186.701 10h176.299v49.15H205v-49.15zm0 59.15h176.299v49.15H205v-49.15zm0 108.301v-49.15h176.299v49.15H205zM381.299 94.213H205v-49.15h176.299v49.15zM245.57 3.999h101.808v30H245.57v-30zm-194.334 0h114v30h-114v-30zM18.299 271.664v-7.733a18.3 18.3 0 0 1-2.781.398 17.873 17.873 0 0 1-7.218-1.075v8.411H0v42.997h18.846v-42.997h-.547z"/><path d="M28.293 88.231h10v-37.5h-10v37.5zm2-33.5h6v9.333h-6v-9.333zm12.238 33.5h10v-37.5h-10v37.5zm2-33.5h6v9.333h-6v-9.333zm12.239 33.5h10v-37.5h-10v37.5zm2-33.5h6v9.333h-6v-9.333zm12.238 33.5h10v-37.5h-10v37.5zm2-33.5h6v9.333h-6v-9.333zm12.238 33.5h10v-37.5h-10v37.5zm2-33.5h6v9.333h-6v-9.333zm140.047 33.5v-37.5h-10v37.5h10zm-8-33.5h6v9.333h-6v-9.333zm22.238-4h-10v37.5h10v-37.5zm-2 13.333h-6v-9.333h6v9.333zm16.239-13.333h-10v37.5h10v-37.5zm-2 13.333h-6v-9.333h6v9.333zm16.238-13.333h-10v37.5h10v-37.5zm-2 13.333h-6v-9.333h6v9.333zm16.238-13.333h-10v37.5h10v-37.5zm-2 13.333h-6v-9.333h6v9.333zm44.631 14.167h-37.5v10h37.5v-10zm-24.166 8h-9.334v-6h9.334v6zm24.166-22.239h-37.5v10h37.5v-10zm-24.166 8h-9.334v-6h9.334v6zM99.484 88.231h10v-37.5h-10v37.5zm2-33.5h6v9.333h-6v-9.333zm12.239 33.5h10v-37.5h-10v37.5zm2-33.5h6v9.333h-6v-9.333zm12.238 33.5h10v-37.5h-10v37.5zm2-33.5h6v9.333h-6v-9.333zm52.631 141.833h-37.5v10h37.5v-10zm-24.168 8h-9.332v-6h9.332v6zm24.168-22.238h-37.5v10h37.5v-10zm-24.168 8h-9.332v-6h9.332v6zm-65.487 6.238h11.654v10H92.937zm0-14.238h11.654v10H92.937zm30.786 24.238v-37.5h-7.729a84.13 84.13 0 0 1-2.271 1.655v35.845h10zm-2-33.5v9.333h-6v-9.333h6zm16.238-4h-10v37.5h10v-37.5zm-2 13.333h-6v-9.333h6v9.333zm110.131 24.167h37.5v-10h-37.5v10zm4-8h9.332v6h-9.332v-6zm-.666-6.238h37.5v-10h-37.5v10zm4-8.001h20.332v6h-20.332v-6zm37.998 22.239h37.5v-10h-37.5v10zm4-8h9.334v6h-9.334v-6zm.334-6.238h37.5v-10h-37.5v10zm4-8h9.332v6h-9.332v-6zm-85.035 22.238h10v-37.5h-10v37.5zm2-33.5h6v9.333h-6v-9.333zm12.238 33.5h10v-37.5h-10v37.5zm2-33.5h6v9.333h-6v-9.333zM142.012 54.736l16.215 33.813 9.018-4.324-16.217-33.813-9.016 4.324zm7.568 11.158l-4.035-8.415 5.408-2.595 4.037 8.415-5.41 2.595zm18.115-15.482l-9.018 4.324 16.217 33.813 9.016-4.324-16.215-33.813zm-1.449 15.482l-4.035-8.415 5.41-2.595 4.035 8.415-5.41 2.595zM354.91 84.225l-16.215-33.813-9.018 4.324 16.217 33.813 9.016-4.324zm-17.664-18.331l-4.035-8.415 5.41-2.595 4.035 8.415-5.41 2.595zm34.332 18.331l-16.217-33.813-9.016 4.324 16.215 33.813 9.018-4.324zm-17.664-18.331l-4.035-8.415 5.408-2.595 4.037 8.415-5.41 2.595zm-170.705 65.295h-37.982c-.042.096-.072.195-.115.291a118.313 118.313 0 0 1-1.577 3.344h16.675v9.397h-21.856a100.426 100.426 0 0 1-2.359 3.634h47.216v-16.666zm0-20h-41.938a17.788 17.788 0 0 1 2.874 3.635h16.064v9.397h-13.506a17.892 17.892 0 0 1-.402 3.634h36.908v-16.666zm-94.836 20a32.283 32.283 0 0 1-3.967 14.82 43.206 43.206 0 0 0 2.395-1.074c4.444-2.192 8.454-5.032 12.074-8.531v-5.215H88.373zm-6.309-20a32.455 32.455 0 0 1 2.327 3.635h8.483v9.397H87.79c.23 1.189.394 2.403.49 3.634h17.768c2.296-3.351 4.383-7.085 6.269-11.229a17.91 17.91 0 0 1 3.557-5.172v-.266h-33.81zm136.813 36.666h61.666v-16.666h-61.666v16.666zm5.166-13.032h33.5v9.397h-33.5v-9.397zm64.168 13.032h61.666v-16.666h-61.666v16.666zm5.166-13.032h33.5v9.397h-33.5v-9.397zm3.334-23.634v16.666h61.666v-16.666h-61.666zm38.666 13.032h-33.5v-9.397h33.5v9.397zm-45.502-13.032h-61.666v16.666h61.666v-16.666zm-23 13.032h-33.5v-9.397h33.5v9.397zm-128.998 120.51h45.334v22h-45.334zm-8.668-8.333h40v4.5h-40zm9.5-8h40v4.5h-40zm74.5 33h40v4.5h-40zm9.5-8.583h40v4.5h-40zm-5.5-8.583h40v4.5h-40zm2.668-8.584h40v4.5h-40zm-126.94 25.75h20.272v4.5H92.937zm0-8.583h29.772v4.5H92.937zm0-8.583h24.272v4.5H92.937zm0-8.584h26.94v4.5h-26.94zm230.606 25.75h40v4.5h-40zm9.5-8.583h40v4.5h-40zm-5.5-8.583h40v4.5h-40zm-3-8.584h40v4.5h-40zm-55.834 25.75h40v4.5h-40zm7-8.583h40v4.5h-40zm-5.5-8.583h40v4.5h-40zm0-8.584h40v4.5h-40zm6.5-8h40v4.5h-40zm56.926-56.778l4.05-1.962 17.436 36-4.05 1.962zm10.317.018l4.05-1.961 17.432 36-4.05 1.96zm10.35-.015l4.05-1.962 17.436 36-4.05 1.962zm-77.593 1.775h40v4.5h-40z"/><circle cx="55.893" cy="130.428" r="22.5"/><path d="M82.937 173.606c4.045-.86 9.346-2.423 15.264-5.303 12.51-6.049 27.58-18.247 37.799-40.943 1.818-4.026.031-8.766-3.994-10.585a7.996 7.996 0 0 0-10.584 3.991c-8.783 19.301-20.604 28.404-30.234 33.154-4.816 2.353-9.101 3.548-12.098 4.147-1.498.3-2.67.452-3.422.525-.16.016-.291.027-.412.037l-.047-.002H36.574c-.17 0-.334.015-.502.025-1.816.04-4.748.452-8.076 2.129-5.381 2.667-11.178 8.502-15.236 18.84C8.653 190 5.895 205.007 5.883 227.666c0 5.858.188 12.225.594 19.159a8.002 8.002 0 0 0 8.457 7.518 8.001 8.001 0 0 0 7.516-8.456c-.391-6.65-.568-12.708-.566-18.222-.035-24.212 3.494-37.816 6.963-44.915v149.997c0 6.83 5.537 12.363 12.363 12.363 6.828 0 12.365-5.533 12.365-12.363v-90.271h4.635v90.271c0 6.83 5.537 12.363 12.363 12.363 6.828 0 12.365-5.533 12.365-12.363V173.606z"/></svg>