<svg xmlns="http://www.w3.org/2000/svg" viewBox="0 0 90 90"><path d="M74.237 42.045v-9.721h-9.721v3.86h-2.804v-3.208a4.12 4.12 0 0 0-4.115-4.115H46.113v-1.37h9.263l.3-.383a13.288 13.288 0 0 0 2.775-9.751h.085V3.568h-2v8.25c-2.365-3.837-6.594-6.41-11.423-6.41-4.672 0-8.79 2.402-11.195 6.033V3.568h-2v12.848A13.279 13.279 0 0 0 34.55 27.11l.3.383h9.263v1.37H32.628a4.119 4.119 0 0 0-4.114 4.115v3.208h-3.031v-3.86h-9.72v9.721h3.859v11.702h-2.773v7.55h6.549v-2h-4.549v-3.55h4.549v-2h-1.776V42.045h3.861v-3.86h3.031v16.599c0 2.152 1.667 3.904 3.775 4.08v20.421a7.63 7.63 0 0 0-4.001 6.707c0 .173.007.344.02.514l.068.927h15.083l.06-.937a7.574 7.574 0 0 0-.873-4.072V58.898h4.937v23.523a7.57 7.57 0 0 0-.873 4.071l.06.937h15.09l.063-.933c.011-.167.019-.336.019-.506a7.63 7.63 0 0 0-4.002-6.707V58.864c2.109-.175 3.777-1.927 3.777-4.08V38.185h2.804v3.86h3.861v11.702h-1.774v2h4.549v3.55h-4.549v2h6.549v-7.55h-2.774V42.045h3.854zM33.689 18.833c0-6.299 5.125-11.424 11.424-11.424 6.299 0 11.423 5.125 11.423 11.424 0 2.418-.74 4.71-2.146 6.66H35.835a11.29 11.29 0 0 1-2.146-6.66zM23.483 40.045h-5.72v-5.721h5.72v5.721zm6.832 45.387a5.632 5.632 0 0 1 5.597-5.064 5.632 5.632 0 0 1 5.596 5.064H30.315zm10.33-5.407a7.579 7.579 0 0 0-6.355-1.48V58.898h6.355v21.127zm19.265 5.403H48.718a5.632 5.632 0 0 1 5.597-5.063 5.63 5.63 0 0 1 5.595 5.063zm-5.596-7.063a7.577 7.577 0 0 0-4.733 1.658V58.898h6.354v19.644a7.588 7.588 0 0 0-1.621-.177zm5.398-23.581a2.117 2.117 0 0 1-2.115 2.114H32.628a2.116 2.116 0 0 1-2.114-2.114V32.978c0-1.166.948-2.115 2.114-2.115h24.969c1.167 0 2.115.949 2.115 2.115v21.806zm6.804-20.459h5.721v5.721h-5.721v-5.721z"/><path d="M36.532 20.933h17.161v-7.148H36.532v7.148zm2-5.148h13.161v3.148H38.532v-3.148z"/></svg>