<svg xmlns="http://www.w3.org/2000/svg" viewBox="0 0 96 96"><path d="M35.689 16.756h6.416v18.693h11.779V16.756h6.428L47.995 4.44 35.689 16.756zm21.001-1.5h-4.306v18.693h-8.779V15.256h-4.297l8.687-8.694 8.695 8.694zM53.895 60.553H42.116v18.691h-6.428l12.317 12.317L60.31 79.244h-6.417V60.553zm2.797 20.191l-8.687 8.696-8.695-8.696h4.307V62.053h8.778v18.691h4.297zM79.244 42.106H60.552v11.778h18.692v6.428l12.317-12.317L79.244 35.69v6.416zm1.5-2.796l8.695 8.686-8.695 8.696v-4.307H62.052v-8.778h18.692V39.31zM16.757 35.689L4.439 48.005l12.317 12.307v-6.416h18.692V42.117H16.757v-6.428zm17.192 7.928v8.778H15.257v4.297l-8.695-8.688 8.695-8.694v4.307h18.692zM58.098 48c0-5.567-4.53-10.098-10.098-10.098S37.902 42.433 37.902 48c0 5.568 4.53 10.099 10.098 10.099S58.098 53.568 58.098 48zm-18.696 0c0-4.741 3.857-8.598 8.598-8.598s8.598 3.856 8.598 8.598-3.857 8.599-8.598 8.599-8.598-3.858-8.598-8.599z"/></svg>