<svg xmlns="http://www.w3.org/2000/svg" viewBox="0 0 100 100"><path d="M90.6 33.4c-1.1 0-2-.9-2-2 0-7.4-6.5-13.5-14.5-13.5h-.2c-8 0-14.5 6-14.5 13.5 0 1.1-.9 2-2 2s-2-.9-2-2c0-9.6 8.3-17.5 18.5-17.5h.1c10.2 0 18.5 7.8 18.5 17.5.1 1.1-.8 2-1.9 2zM53.2 87H32.9c-5.9 0-11.3-3-14.4-8-.6-.9-.3-2.2.6-2.8.9-.6 2.2-.3 2.8.6 2.4 3.8 6.5 6.1 11 6.1h20.3c7.1 0 12.9-5.8 12.9-12.9V41c0-.5-.4-.9-.9-.9H20.9c-.5 0-.9.4-.9.9v5c0 1.1-.9 2-2 2s-2-.9-2-2v-5c0-2.7 2.2-4.9 4.9-4.9h44.3c2.7 0 4.9 2.2 4.9 4.9v29c0 9.4-7.6 17-16.9 17z"/><path d="M43.1 72.3c-1.1 0-2-.9-2-2V52.8c0-1.1.9-2 2-2s2 .9 2 2v17.5c0 1.1-.9 2-2 2zM37.2 60.5h-7.5c-.4-2-1.3-3.9-2.9-5.5-2-2-4.6-3.1-7.5-3.1-2.8 0-5.5 1.1-7.5 3.1-4.1 4.1-4.1 10.8 0 14.9 2 2 4.6 3.1 7.5 3.1 2.8 0 5.5-1.1 7.5-3.1 1.5-1.5 2.5-3.5 2.9-5.5h7.5c1.1 0 2-.9 2-2s-.9-1.9-2-1.9zm-13.3 6.6C22.7 68.4 21 69 19.3 69c-1.7 0-3.4-.7-4.6-1.9-2.6-2.6-2.6-6.7 0-9.3 1.2-1.2 2.9-1.9 4.6-1.9 1.7 0 3.4.7 4.6 1.9 2.6 2.6 2.6 6.8 0 9.3z"/></svg>