<svg xmlns="http://www.w3.org/2000/svg" data-name="Layer 1" viewBox="0 0 50 50"><path d="M44.22 24.8l-6.53-11.49a.77.77 0 0 0-1-.29l-3 1.71a.78.78 0 0 0-.29 1.06L34 17a2.09 2.09 0 0 1-1.45.35 9.31 9.31 0 0 1-1.4-.32c-2.2-.59-5.87-1.59-9.47 0a7 7 0 0 0-1.89 1.17c-.33 0-1-.12-1.69-.22a5.54 5.54 0 0 1-1.89-1.26l.42-.74a.78.78 0 0 0-.29-1.06l-3-1.71a.76.76 0 0 0-.59-.07.74.74 0 0 0-.47.36L5.77 25a.76.76 0 0 0-.07.59.74.74 0 0 0 .36.47l3 1.71a.75.75 0 0 0 .38.1.76.76 0 0 0 .21 0 .74.74 0 0 0 .47-.36l.71-1.24a22.85 22.85 0 0 0 1.91 2.21l-.16.23a2 2 0 0 0-.36 1.14 2 2 0 0 0 .83 1.62 1.89 1.89 0 0 0 1.14.37h.08a2 2 0 0 0 0 .6 2 2 0 0 0 .81 1.28 1.92 1.92 0 0 0 1.14.37 2 2 0 0 0 .6-.09 2 2 0 0 0 2.66 1.49 2 2 0 0 0 .78 1.15 1.92 1.92 0 0 0 1.14.36h.34a1.94 1.94 0 0 0 1.28-.8v-.06a8.81 8.81 0 0 0 3.67 1A3.92 3.92 0 0 0 28 36.9a2.86 2.86 0 0 0 1.67-1.36H30a2.75 2.75 0 0 0 1.57-.48 2.7 2.7 0 0 0 1.06-1.59 2.53 2.53 0 0 0 1.62-.83 3.38 3.38 0 0 0 .69-1.22 2.9 2.9 0 0 0 2-1.07 2.12 2.12 0 0 0 .29-1.63 2.16 2.16 0 0 0-.26-.65 6.85 6.85 0 0 0 2.36-1.84l.58 1a.79.79 0 0 0 .47.37.76.76 0 0 0 .21 0 .86.86 0 0 0 .38-.1l3-1.71a.79.79 0 0 0 .37-.47.76.76 0 0 0-.12-.52zm-33.86.2l-1 1.69-2.61-1.41 6.32-11.09 2.61 1.49zM15 30.38a1 1 0 0 1-1.35.22 1 1 0 0 1-.23-1.36l.36-.52.46-.64a1 1 0 0 1 1.37-.23 1 1 0 0 1 .31 1.24zm2.16 2.07l-.13.18a1 1 0 1 1-1.59-1.14l.36-.49.82-1.15 1.08-1.52a1 1 0 0 1 1.38-.33.94.94 0 0 1 .4.64 1 1 0 0 1-.17.73l-.36.51zm2.65 1.38l-.24.33A1 1 0 1 1 18 33l1.79-2.52a1 1 0 0 1 1.73.45.91.91 0 0 1-.17.73l-.6.85zm3.36.39l-.63.87-.08.12-.25.34a1 1 0 0 1-1.67-1l.08-.13.95-1.33a1 1 0 0 1 1.35-.21 1 1 0 0 1 .23 1.37zm12.9-4.4a2.14 2.14 0 0 1-1.45.65l-5.91-3.7a.5.5 0 0 0-.69.15.49.49 0 0 0 .16.69l5.76 3.62a2.28 2.28 0 0 1-.47.78 1.63 1.63 0 0 1-1.17.51l-5.22-2.92a.5.5 0 0 0-.49.88l5 2.79a1.65 1.65 0 0 1-.66 1 1.83 1.83 0 0 1-1.47.24h-.06a.72.72 0 0 0-.1-.08l-4-2a.5.5 0 0 0-.45.89l3.83 1.93a1.92 1.92 0 0 1-1 .75 5.85 5.85 0 0 1-4-.71l.32-.49a2 2 0 0 0 .34-1.48 2 2 0 0 0-1.86-1.64 2.08 2.08 0 0 0 .06-.93 2 2 0 0 0-.8-1.28 2 2 0 0 0-1.24-.37 1.89 1.89 0 0 0 0-.58 2 2 0 0 0-3.57-.82l-.09.12a1.82 1.82 0 0 0-.64-.77 2 2 0 0 0-2.76.46l-.08.1a23.75 23.75 0 0 1-2-2.34l4.36-7.66A5.74 5.74 0 0 0 18 19l1 .14a5.86 5.86 0 0 0-1.08 2.28 2.22 2.22 0 0 0 .59 2.09 2.18 2.18 0 0 0 2 .6 3.37 3.37 0 0 0 1.94-1.17l1-1.33 1.41-.37a42 42 0 0 1 10.81 7h.06a.49.49 0 0 0 .1.09 1 1 0 0 1 .39.62 1.13 1.13 0 0 1-.15.87zm.13-2.49a42 42 0 0 0-11.07-7.09.66.66 0 0 0-.28 0 .71.71 0 0 0-.2 0l-1.55.41a.83.83 0 0 0-.42.28l-1 1.38a2.46 2.46 0 0 1-1.37.82 1.2 1.2 0 0 1-1.1-.33 1.26 1.26 0 0 1-.33-1.17 4.79 4.79 0 0 1 1.48-2.51 6.72 6.72 0 0 1 1.81-1.15c3.26-1.43 6.73-.49 8.8.07a9.67 9.67 0 0 0 1.57.35 3.07 3.07 0 0 0 2-.48l4.22 7.42a5.8 5.8 0 0 1-2.57 2zm4.44-.74l-.94-1.65-4.41-7.75-.95-1.67 2.6-1.52 6.3 11.1z"/></svg>