<svg xmlns="http://www.w3.org/2000/svg" viewBox="0 0 100 100"><path style="text-indent:0;text-align:start;line-height:normal;text-transform:none;block-progression:tb;marker:none;-inkscape-font-specification:Sans" d="M20.813 18A2 2 0 0 0 19 20v8H8a2 2 0 0 0-2 2v33.75C6 68.484 9.935 72 14.438 72H54v8a2 2 0 0 0 2 2h36a2 2 0 0 0 2-2V60a2 2 0 0 0-2-2h-5v-5.094C87 45.776 81.16 40 74 40c-.34 0-.666.037-1 .063V20a2 2 0 0 0-2-2H21a2 2 0 0 0-.188 0zM23 22h46v19c-4.696 1.944-8 6.535-8 11.906V58h-5a2 2 0 0 0-.188 0 2 2 0 0 0-1.562 1H30a2 2 0 0 0-.188 0A2.002 2.002 0 1 0 30 63h24v5H21.594C22.4 66.762 23 65.383 23 63.75V22zm6.813 5A2 2 0 0 0 28 29v14a2 2 0 0 0 2 2h32a2 2 0 0 0 2-2V29a2 2 0 0 0-2-2H30a2 2 0 0 0-.188 0zM32 31h28v10H32V31zm-22 1h9v31.75c0 2.406-1.846 4.027-4.188 4.219a2 2 0 0 0-.218.031h-.156C11.874 68 10 66.374 10 63.75V32zm64 12c5.029 0 9 3.939 9 8.906V58H65v-5.094C65 47.94 68.971 44 74 44zm-44.188 6A2.002 2.002 0 1 0 30 54h26a2 2 0 1 0 0-4H30a2 2 0 0 0-.188 0zM58 62h32v16H58V62zm16 5a3 3 0 1 0 0 6 3 3 0 0 0 0-6z" font-weight="400" color="#000" overflow="visible" font-family="Sans"/></svg>