<svg viewBox="0 0 100 100" xmlns="http://www.w3.org/2000/svg"><path d="M57.875 8c-2.884 0-5.25 2.366-5.25 5.25 0 2.432 1.68 4.459 3.938 5.045v8.08H43.437V18.5H26.17c-.586-2.258-2.612-3.938-5.045-3.938-2.884 0-5.25 2.367-5.25 5.25 0 2.884 2.366 5.25 5.25 5.25 2.432 0 4.459-1.68 5.045-3.937h14.642v5.25H26.376v14.438h-8.08c-.586-2.258-2.612-3.938-5.045-3.938-2.884 0-5.25 2.366-5.25 5.25s2.366 5.25 5.25 5.25c2.432 0 4.459-1.68 5.045-3.938h8.08v13.126H18.5V73.83c-2.258.586-3.938 2.612-3.938 5.045 0 2.884 2.367 5.25 5.25 5.25 2.884 0 5.25-2.366 5.25-5.25 0-2.432-1.68-4.459-3.937-5.045V59.188h5.25v14.437h14.438v8.08c-2.258.586-3.938 2.612-3.938 5.045 0 2.884 2.366 5.25 5.25 5.25s5.25-2.366 5.25-5.25c0-2.432-1.68-4.459-3.938-5.045v-8.08h13.126V81.5H73.83c.586 2.257 2.612 3.938 5.045 3.938 2.884 0 5.25-2.367 5.25-5.25 0-2.884-2.366-5.25-5.25-5.25-2.432 0-4.459 1.68-5.045 3.937H59.188v-5.25h14.437V59.187h8.08c.586 2.258 2.612 3.938 5.045 3.938 2.884 0 5.25-2.366 5.25-5.25s-2.366-5.25-5.25-5.25c-2.432 0-4.459 1.68-5.045 3.938h-8.08V43.437H81.5V26.17c2.257-.586 3.938-2.612 3.938-5.045 0-2.884-2.367-5.25-5.25-5.25-2.884 0-5.25 2.366-5.25 5.25 0 2.432 1.68 4.459 3.937 5.045v14.642h-5.25V26.376H59.187v-8.08c2.258-.586 3.938-2.612 3.938-5.045 0-2.884-2.366-5.25-5.25-5.25zm0 2.625A2.606 2.606 0 0 1 60.5 13.25a2.606 2.606 0 0 1-2.625 2.625 2.606 2.606 0 0 1-2.625-2.625 2.606 2.606 0 0 1 2.625-2.625zm-36.75 6.563a2.606 2.606 0 0 1 2.625 2.625 2.606 2.606 0 0 1-2.625 2.625 2.606 2.606 0 0 1-2.625-2.625 2.606 2.606 0 0 1 2.625-2.625zM80.188 18.5a2.606 2.606 0 0 1 2.624 2.625 2.606 2.606 0 0 1-2.624 2.625 2.606 2.606 0 0 1-2.626-2.625 2.606 2.606 0 0 1 2.626-2.625zM29 29h42v42H29V29zm14.806 5.25l-.286.903-5.25 15.75-.576 1.722h6.4l-4.513 11.32-.695 1.805h3.772l.41-.369 18.376-18.375 2.214-2.256h-7.342l5.292-8.49 1.27-2.01H43.806zm1.888 2.625H58.12l-5.289 8.49-1.273 2.01H57.3l-13.74 13.74 3.732-9.31.7-1.805h-6.686l4.389-13.125h-.001zM13.25 39.5a2.606 2.606 0 0 1 2.625 2.625 2.606 2.606 0 0 1-2.625 2.625 2.606 2.606 0 0 1-2.625-2.625A2.606 2.606 0 0 1 13.25 39.5zm73.5 15.75a2.606 2.606 0 0 1 2.625 2.625A2.606 2.606 0 0 1 86.75 60.5a2.606 2.606 0 0 1-2.625-2.625 2.606 2.606 0 0 1 2.625-2.625zm-66.938 21a2.606 2.606 0 0 1 2.625 2.625 2.606 2.606 0 0 1-2.625 2.625 2.606 2.606 0 0 1-2.625-2.625 2.606 2.606 0 0 1 2.625-2.625zm59.063 1.313a2.606 2.606 0 0 1 2.625 2.624 2.606 2.606 0 0 1-2.625 2.626 2.606 2.606 0 0 1-2.625-2.626 2.606 2.606 0 0 1 2.625-2.624zm-36.75 6.562a2.606 2.606 0 0 1 2.625 2.625 2.606 2.606 0 0 1-2.625 2.625A2.606 2.606 0 0 1 39.5 86.75a2.606 2.606 0 0 1 2.625-2.625z"/></svg>