<svg xmlns="http://www.w3.org/2000/svg" viewBox="0 0 100 100"><path style="text-indent:0;text-align:start;line-height:normal;text-transform:none;block-progression:tb;marker:none;-inkscape-font-specification:Sans" d="M56 18c-2.197 0-4 1.803-4 4 0 1.853 1.28 3.397 3 3.844V32H45v-6H31.844c-.447-1.72-1.99-3-3.844-3-2.197 0-4 1.803-4 4s1.803 4 4 4c1.853 0 3.397-1.28 3.844-3H43v4H32v11h-6.156c-.447-1.72-1.99-3-3.844-3-2.197 0-4 1.803-4 4s1.803 4 4 4c1.853 0 3.397-1.28 3.844-3H32v10h-6v13.156c-1.72.447-3 1.99-3 3.844 0 2.197 1.803 4 4 4s4-1.803 4-4c0-1.853-1.28-3.397-3-3.844V57h4v11h11v6.156c-1.72.447-3 1.99-3 3.844 0 2.197 1.803 4 4 4s4-1.803 4-4c0-1.853-1.28-3.397-3-3.844V68h10v6h13.156c.447 1.72 1.99 3 3.844 3 2.197 0 4-1.803 4-4s-1.803-4-4-4c-1.853 0-3.397 1.28-3.844 3H57v-4h11V57h6.156c.447 1.72 1.99 3 3.844 3 2.197 0 4-1.803 4-4s-1.803-4-4-4c-1.853 0-3.397 1.28-3.844 3H68V45h6V31.844c1.72-.447 3-1.99 3-3.844 0-2.197-1.803-4-4-4s-4 1.803-4 4c0 1.853 1.28 3.397 3 3.844V43h-4V32H57v-6.156c1.72-.447 3-1.99 3-3.844 0-2.197-1.803-4-4-4zm0 2c1.116 0 2 .884 2 2s-.884 2-2 2-2-.884-2-2 .884-2 2-2zm-28 5c1.116 0 2 .884 2 2s-.884 2-2 2-2-.884-2-2 .884-2 2-2zm45 1c1.116 0 2 .884 2 2s-.884 2-2 2-2-.884-2-2 .884-2 2-2zm-39 8h32v32H34V34zm11.281 4l-.218.688-4 12L40.624 52H45.5l-3.438 8.625-.53 1.375h2.874l.313-.281 14-14L60.406 46h-5.594l4.032-6.469.968-1.531H45.282zm1.438 2h9.468l-4.03 6.469-.97 1.531h4.376l-10.47 10.469 2.844-7.094L48.47 50h-5.094l3.344-10zM22 42c1.116 0 2 .884 2 2s-.884 2-2 2-2-.884-2-2 .884-2 2-2zm56 12c1.116 0 2 .884 2 2s-.884 2-2 2-2-.884-2-2 .884-2 2-2zM27 70c1.116 0 2 .884 2 2s-.884 2-2 2-2-.884-2-2 .884-2 2-2zm45 1c1.116 0 2 .884 2 2s-.884 2-2 2-2-.884-2-2 .884-2 2-2zm-28 5c1.116 0 2 .884 2 2s-.884 2-2 2-2-.884-2-2 .884-2 2-2z" font-weight="400" color="#000" overflow="visible" font-family="Sans"/></svg>