<svg xmlns="http://www.w3.org/2000/svg" viewBox="0 0 50 50"><path d="M26.293 20.293L22.586 24H10.5C5.262 24 1 28.262 1 33.5S5.262 43 10.5 43h2.58c.488 3.387 3.401 6 6.92 6s6.432-2.613 6.92-6h8.16c.488 3.387 3.401 6 6.92 6 3.859 0 7-3.14 7-7s-3.141-7-7-7c-3.519 0-6.432 2.613-6.92 6h-8.16c-.488-3.387-3.401-6-6.92-6s-6.432 2.613-6.92 6H10.5C6.364 41 3 37.636 3 33.5S6.364 26 10.5 26h12.086l3.707 3.707 1.414-1.414L25.414 26H39.5c5.238 0 9.5-4.262 9.5-9.5S44.738 7 39.5 7h-2.58c-.488-3.387-3.401-6-6.92-6s-6.432 2.613-6.92 6h-8.16C14.432 3.613 11.519 1 8 1 4.141 1 1 4.14 1 8s3.141 7 7 7c3.519 0 6.432-2.613 6.92-6h8.16c.488 3.387 3.401 6 6.92 6s6.432-2.613 6.92-6h2.58c4.136 0 7.5 3.364 7.5 7.5S43.636 24 39.5 24H25.414l2.293-2.293-1.414-1.414zM42 37c2.757 0 5 2.243 5 5s-2.243 5-5 5-5-2.243-5-5 2.243-5 5-5zm-22 0c2.757 0 5 2.243 5 5s-2.243 5-5 5-5-2.243-5-5 2.243-5 5-5zM8 13c-2.757 0-5-2.243-5-5s2.243-5 5-5 5 2.243 5 5-2.243 5-5 5zm22 0c-2.757 0-5-2.243-5-5s2.243-5 5-5 5 2.243 5 5-2.243 5-5 5z"/></svg>