<svg viewBox="0 0 100 100" xmlns="http://www.w3.org/2000/svg"><path d="M51.94 42.94l-5.561 5.56H28.25C20.393 48.5 14 54.893 14 62.75S20.393 77 28.25 77h3.87c.732 5.08 5.102 9 10.38 9 5.279 0 9.648-3.92 10.38-9h12.24c.732 5.08 5.102 9 10.38 9C81.288 86 86 81.29 86 75.5S81.288 65 75.5 65c-5.278 0-9.648 3.92-10.38 9H52.88c-.732-5.08-5.102-9-10.38-9-5.279 0-9.648 3.92-10.38 9h-3.87C22.046 74 17 68.954 17 62.75S22.046 51.5 28.25 51.5h18.129l5.56 5.56 2.121-2.12-3.439-3.44H71.75C79.607 51.5 86 45.107 86 37.25S79.607 23 71.75 23h-3.87c-.732-5.08-5.101-9-10.38-9-5.279 0-9.648 3.92-10.38 9H34.88c-.732-5.08-5.102-9-10.38-9C18.712 14 14 18.71 14 24.5S18.712 35 24.5 35c5.279 0 9.648-3.92 10.38-9h12.24c.732 5.08 5.102 9 10.38 9 5.279 0 9.648-3.92 10.38-9h3.87C77.954 26 83 31.046 83 37.25S77.954 48.5 71.75 48.5H50.621l3.44-3.44-2.121-2.12zM75.5 68c4.135 0 7.5 3.365 7.5 7.5S79.635 83 75.5 83 68 79.635 68 75.5s3.365-7.5 7.5-7.5zm-33 0c4.136 0 7.5 3.365 7.5 7.5S46.636 83 42.5 83 35 79.635 35 75.5s3.364-7.5 7.5-7.5zm-18-36c-4.136 0-7.5-3.364-7.5-7.5s3.364-7.5 7.5-7.5 7.5 3.364 7.5 7.5-3.364 7.5-7.5 7.5zm33 0c-4.136 0-7.5-3.364-7.5-7.5s3.364-7.5 7.5-7.5 7.5 3.364 7.5 7.5-3.364 7.5-7.5 7.5z"/></svg>