<svg xmlns="http://www.w3.org/2000/svg" viewBox="0 0 64 64"><g data-name="13-Solve a Problem"><path d="M61 0H3a3 3 0 0 0-3 3v48a1 1 0 0 0 .28.71l12 12A1 1 0 0 0 13 64h48a3 3 0 0 0 3-3V3a3 3 0 0 0-3-3zM12 60.59L3.41 52H11a1 1 0 0 1 1 1zM62 61a1 1 0 0 1-1 1H14v-9a3 3 0 0 0-3-3H2V3a1 1 0 0 1 1-1h58a1 1 0 0 1 1 1z"/><path d="M11 5H7a2 2 0 0 0-2 2v4h2V7h4zM5 13h2v2H5zM53 10H34v2h5v6a1 1 0 0 0 1 1h8v-2h-7v-5h11v25H40v2h12v15h-3v2h4a1 1 0 0 0 1-1V11a1 1 0 0 0-1-1z"/><path d="M45 43H30v-9h17a2 2 0 0 0 2-2v-9a1 1 0 0 0-1-1H26V8.41l4.29 4.29 1.41-1.41-6-6a1 1 0 0 0-1.41 0l-6 6 1.41 1.41L24 8.41V22a2 2 0 0 0 2 2h21v8H30a2 2 0 0 0-2 2v9a2 2 0 0 0 2 2h15v14h2V45a2 2 0 0 0-2-2z"/><path d="M37 49a1 1 0 0 0-1-1H25a1 1 0 0 0-1 1v3h2v-2h9v4H20V36a1 1 0 0 0-1-1h-5v2h4v7h-6V31h12a1 1 0 0 0 1-1v-4h-2v3H12V18h7v6h2v-7a1 1 0 0 0-1-1h-8v-4h3v-2h-4a1 1 0 0 0-1 1v34a1 1 0 0 0 1 1h7v9a1 1 0 0 0 1 1h24v-2h-6z"/></g></svg>