<svg viewBox="0 0 100 100" xmlns="http://www.w3.org/2000/svg"><path d="M80.708 18.222H53.264v2.89h7.222v8.666a1.444 1.444 0 0 0 1.445 1.444h11.555v-2.889H63.375v-7.222h15.889v36.111H61.93v2.89h17.333v21.666H74.93v2.889h5.777a1.444 1.444 0 0 0 1.445-1.445V19.667a1.444 1.444 0 0 0-1.445-1.445z" stroke="#000" stroke-width=".5"/><path d="M69.153 65.889H47.486v-13h24.556A2.889 2.889 0 0 0 74.93 50V37a1.444 1.444 0 0 0-1.445-1.444H41.708v-19.63l6.197 6.196 2.037-2.037-8.667-8.666a1.444 1.444 0 0 0-2.037 0l-8.666 8.666 2.036 2.037 6.211-6.197v19.63a2.889 2.889 0 0 0 2.89 2.89h30.333V50H47.486a2.888 2.888 0 0 0-2.889 2.889v13a2.889 2.889 0 0 0 2.89 2.889h21.666V89h2.889V68.778a2.89 2.89 0 0 0-2.89-2.89z" stroke="#000" stroke-width=".5"/><path d="M57.597 74.555a1.445 1.445 0 0 0-1.444-1.444h-15.89a1.444 1.444 0 0 0-1.444 1.444v4.334h2.89V76h13v5.778H33.041v-26a1.444 1.444 0 0 0-1.445-1.445h-7.222v2.89h5.778v10.11h-8.667V48.556H38.82a1.445 1.445 0 0 0 1.445-1.445v-5.778h-2.889v4.334h-15.89v-15.89h10.111v8.667h2.89v-10.11a1.444 1.444 0 0 0-1.445-1.445H21.486V21.11h4.333v-2.889h-5.777a1.445 1.445 0 0 0-1.445 1.445v49.11a1.444 1.444 0 0 0 1.445 1.445h10.11v13a1.444 1.444 0 0 0 1.445 1.445h34.667v-2.89h-8.667v-7.222z" stroke="#000" stroke-width=".5"/></svg>