<svg xmlns="http://www.w3.org/2000/svg" data-name="Layer 1" viewBox="0 0 100 100"><path d="M10.11 53.21h2v36.31h-2zM29.07 41.83h2v47.69h-2zM48.02 53.39h2v36.13h-2zM66.98 64.11h2v25.4h-2zM85.93 44.36h2v45.16h-2z"/><path d="M96.7 21.65a8.17 8.17 0 1 0-16 2.37L69.39 34.28a8.15 8.15 0 0 0-13.9-.47l-11.72-5.63v-.54a8.16 8.16 0 0 0-16.32-.24L18.3 31a8.24 8.24 0 1 0 .88 1.8l8.49-3.31a8.16 8.16 0 0 0 15.7.74l11.23 5.36a8.17 8.17 0 1 0 15.59.66l11.4-10.32a8.16 8.16 0 0 0 15.11-4.28zm-85.24 20a6.17 6.17 0 1 1 6.17-6.17 6.17 6.17 0 0 1-6.16 6.12zm24.16-7.79a6.17 6.17 0 1 1 6.17-6.17 6.17 6.17 0 0 1-6.16 6.12zM62.3 44.48a6.17 6.17 0 1 1 6.17-6.17 6.17 6.17 0 0 1-6.17 6.17zm20.07-22.83a6.17 6.17 0 1 1 6.17 6.17 6.17 6.17 0 0 1-6.17-6.17z"/></svg>