<svg xmlns="http://www.w3.org/2000/svg" viewBox="0 0 25 25"><path d="M12.5 23C6.71 23 2 18.29 2 12.5S6.71 2 12.5 2 23 6.71 23 12.5 18.29 23 12.5 23zm0-20C7.262 3 3 7.262 3 12.5S7.262 22 12.5 22s9.5-4.262 9.5-9.5S17.738 3 12.5 3zm3 4h-6C8.122 7 7 7.897 7 9v1.107l-.758-.495a.5.5 0 1 0-.547.838l1.531 1a.5.5 0 0 0 .55-.003l1.5-1a.5.5 0 0 0-.553-.832L8 10.098V9c0-.542.687-1 1.5-1h6c.813 0 1.5.458 1.5 1v2a.5.5 0 0 0 1 0V9c0-1.103-1.122-2-2.5-2zm3.717 7.585l-1.438-.969a.504.504 0 0 0-.547-.009l-1.53.97a.5.5 0 1 0 .535.844l.779-.492c-.005.025-.016.048-.016.071v1.04c0 .538-.659.96-1.5.96h-6c-.841 0-1.5-.624-1.5-1.42V14a.5.5 0 0 0-1 0v1.58C7 16.938 8.098 18 9.5 18h6c1.425 0 2.5-.843 2.5-1.96V15c0-.012-.006-.021-.007-.033l.665.448a.5.5 0 0 0 .559-.83z"/></svg>