<svg viewBox="0 0 100 100" xmlns="http://www.w3.org/2000/svg"><path d="M35.679 41.754v-3.087c0-.765.486-1.507 1.33-2.07.84-.56 2.005-.918 3.277-.918h19.428c1.272 0 2.437.358 3.277.918.844.563 1.33 1.305 1.33 2.07v6.476a1.869 1.869 0 1 0 3.739 0v-6.476c0-3.76-3.8-6.727-8.346-6.727H40.286c-4.546 0-8.346 2.968-8.346 6.727v3.122l-2.067-1.35a1.87 1.87 0 0 0-2.045 3.132l4.958 3.238a1.869 1.869 0 0 0 2.056-.01l4.857-3.239.009-.006a1.87 1.87 0 0 0-2.067-3.11l-.01.006-1.952 1.304zm31.555 11.652h-.001a1.882 1.882 0 0 0-2.043-.034l-.001.001-4.95 3.139a1.87 1.87 0 1 0 2 3.155l2.082-1.315v3.11c0 .76-.464 1.468-1.292 1.998-.827.53-1.992.861-3.315.861H40.286c-2.599 0-4.607-1.92-4.607-4.348v-5.116a1.869 1.869 0 1 0-3.739 0v5.116c0 4.543 3.676 8.087 8.346 8.087h19.428c4.693 0 8.346-2.789 8.346-6.597v-2.99l1.74 1.173a1.87 1.87 0 0 0 2.09-3.102l-4.656-3.138zM15.75 50c0 18.887 15.363 34.25 34.25 34.25S84.25 68.887 84.25 50 68.887 15.75 50 15.75 15.75 31.113 15.75 50zm3.738 0c0-16.823 13.689-30.512 30.512-30.512S80.512 33.177 80.512 50 66.823 80.512 50 80.512 19.488 66.823 19.488 50z" stroke="#000" stroke-width=".5"/></svg>