<svg xmlns="http://www.w3.org/2000/svg" viewBox="0 0 64 64"><path d="M57.351 27H56v-9c0-4.962-4.038-9-9-9H17c-4.962 0-9 4.038-9 9v9H6.649L1 31.52V55h62V31.52L57.351 27zm1.798 4H46.851l2.5-2h7.298l2.5 2zM15 27h-1v-9c0-1.654 1.346-3 3-3h30c1.654 0 3 1.346 3 3v9h-7.923l.805-2.012c.04.002.078.012.118.012 1.654 0 3-1.346 3-3s-1.346-3-3-3-3 1.346-3 3a2.98 2.98 0 0 0 1.026 2.241L39.923 27H35.4l1.565-5.737-1.93-.526L33.327 27h-4.051l-3.684-10.314-6.84 2.736L21.279 27H15zm27-5c0-.551.449-1 1-1s1 .449 1 1-.449 1-1 1-1-.449-1-1zm-17.279 9l-3.474-10.422 3.16-1.264L28.581 31h-3.86zm5.984 0l-.714-2h2.791l-.545 2h-1.532zm4.15-2h4.268l-.8 2H34.31l.545-2zm6.422 0h4.872l-2.5 2h-3.172l.8-2zM10 18c0-3.86 3.14-7 7-7h30c3.86 0 7 3.14 7 7v9h-2v-9c0-2.757-2.243-5-5-5H17c-2.757 0-5 2.243-5 5v9h-2v-9zm9 35H3V32.48L7.351 29h7.299L19 32.48V53zm-1.149-24h4.095l.667 2h-2.262l-2.5-2zM21 53V33h40v20H21z"/><path d="M23 35h2v2h-2zm4 0h9v2h-9z"/></svg>