<svg xmlns="http://www.w3.org/2000/svg" viewBox="0 0 32 32"><path style="line-height:normal;text-indent:0;text-align:start;text-decoration-line:none;text-decoration-style:solid;text-decoration-color:#000;text-transform:none;block-progression:tb;white-space:normal;isolation:auto;mix-blend-mode:normal;solid-color:#000;solid-opacity:1" d="M16 0a.5.5 0 0 0-.491.508v6.701L2.27 14.405a.5.5 0 0 0-.261.437v1.662a.5.5 0 0 0 .5.5h1.5v1.5a.5.5 0 0 0 .5.499h.5v7.998h-.5a.5.5 0 0 0-.5.5V29h-.35a.5.5 0 1 0 0 .999h24.7a.5.5 0 1 0 0-1h-.35v-1.5a.5.5 0 0 0-.5-.5h-.5v-7.997h.5a.5.5 0 0 0 .5-.5v-1.5h1.5a.5.5 0 0 0 .5-.5v-1.661a.5.5 0 0 0-.262-.437L16.509 7.209V6.006h2v.5a.5.5 0 0 0 .5.5h5.5a.5.5 0 0 0 .4-.8l-1.275-1.7 1.275-1.7a.5.5 0 0 0-.4-.799h-3.5v-.5a.5.5 0 0 0-.5-.5h-4v-.5A.5.5 0 0 0 16 0zm.509 2.007h3.5v2a.5.5 0 1 0 1 0v-1h2.5l-.9 1.2a.5.5 0 0 0 0 .598l.9 1.201h-4v-.421a.5.5 0 0 0-.114-.403.5.5 0 0 0-.03-.033.5.5 0 0 0-.034-.029.5.5 0 0 0-.398-.105h-2.418v-3zm-.502 6.067l13 7.067v.863h-26v-.863l13-7.067zm0 1.931a2.507 2.507 0 0 0-2.5 2.5 2.507 2.507 0 0 0 2.5 2.499c1.374 0 2.5-1.125 2.5-2.5a2.508 2.508 0 0 0-2.5-2.499zm0 1c.834 0 1.5.665 1.5 1.5 0 .834-.666 1.5-1.5 1.5-.835 0-1.5-.666-1.5-1.5 0-.835.665-1.5 1.5-1.5zm-11 5.998h4v1h-4v-1zm5 0h3v1.5a.5.5 0 0 0 .5.5h.5v7.998h-.5a.5.5 0 0 0-.5.5V29h-3v-1.5a.5.5 0 0 0-.5-.5h-.5v-7.998h.5a.5.5 0 0 0 .5-.5v-1.5zm4 0h4v1h-4v-1zm5 0h3v1.5a.5.5 0 0 0 .5.5h.5v7.998h-.5a.5.5 0 0 0-.5.5V29h-3v-1.5a.5.5 0 0 0-.5-.5h-.5v-7.998h.5a.5.5 0 0 0 .5-.5v-1.5zm4 0h4v1h-4v-1zm-17 2h2v7.998h-2v-7.998zm9 0h2v7.998h-2v-7.998zm9 0h2v7.998h-2v-7.998zm-19 8.998h4v1h-4v-1zm9 0h4v1h-4v-1zm9 0h4v1h-4v-1zM1.499 31a.5.5 0 0 0 .05 1h28.915a.5.5 0 1 0 0-1H1.55a.5.5 0 0 0-.051 0z" color="#000" font-weight="400" font-family="sans-serif" overflow="visible" fill-rule="evenodd"/><style/></svg>