<svg xmlns:dc="http://purl.org/dc/elements/1.1/" xmlns:cc="http://creativecommons.org/ns#" xmlns:rdf="http://www.w3.org/1999/02/22-rdf-syntax-ns#" xmlns:svg="http://www.w3.org/2000/svg" xmlns="http://www.w3.org/2000/svg" xmlns:sodipodi="http://sodipodi.sourceforge.net/DTD/sodipodi-0.dtd" xmlns:inkscape="http://www.inkscape.org/namespaces/inkscape" version="1.1" viewBox="0 0 32 32" x="0px" y="0px"><g transform="translate(0,-1020.3622)"><path style="color:#000000;font-style:normal;font-variant:normal;font-weight:normal;font-stretch:normal;font-size:medium;line-height:normal;font-family:sans-serif;text-indent:0;text-align:start;text-decoration:none;text-decoration-line:none;text-decoration-style:solid;text-decoration-color:#000000;letter-spacing:normal;word-spacing:normal;text-transform:none;direction:ltr;block-progression:tb;writing-mode:lr-tb;baseline-shift:baseline;text-anchor:start;white-space:normal;clip-rule:nonzero;display:inline;overflow:visible;visibility:visible;opacity:1;isolation:auto;mix-blend-mode:normal;color-interpolation:sRGB;color-interpolation-filters:linearRGB;solid-color:#000000;solid-opacity:1;fill:#000000;fill-opacity:1;fill-rule:evenodd;stroke:none;stroke-width:0.99999988px;stroke-linecap:round;stroke-linejoin:round;stroke-miterlimit:4;stroke-dasharray:none;stroke-dashoffset:0;stroke-opacity:1;color-rendering:auto;image-rendering:auto;shape-rendering:auto;text-rendering:auto;enable-background:accumulate" d="m 16.000889,1020.3624 a 0.50005,0.49991708 0 0 0 -0.4922,0.5077 l 0,0.9997 0,3.9989 0,1.7027 -13.2382994,7.1954 a 0.50004994,0.49991702 0 0 0 -0.2617,0.4374 l 0,1.6616 a 0.50004994,0.49991702 0 0 0 0.5,0.4999 l 1.5,0 0,1.4996 a 0.50005,0.49991708 0 0 0 0.5,0.4999 l 0.5,0 0,7.9978 -0.5,0 a 0.50005,0.49991708 0 0 0 -0.5,0.4999 l 0,1.4996 -0.3496,0 a 0.50005,0.49991708 0 1 0 0,0.9997 l 24.6991994,0 a 0.50005,0.49991708 0 1 0 0,-0.9997 l -0.3496,0 0,-1.4996 a 0.50005,0.49991708 0 0 0 -0.5,-0.4999 l -0.5,0 0,-7.9978 0.5,0 a 0.50005,0.49991708 0 0 0 0.5,-0.4999 l 0,-1.4996 1.5,0 a 0.50004994,0.49991702 0 0 0 0.5,-0.4999 l 0,-1.6616 a 0.50004994,0.49991702 0 0 0 -0.2617,-0.4374 l -13.2383,-7.1954 0,-1.2028 2,0 0,0.4999 a 0.50004997,0.49991705 0 0 0 0.5,0.4998 l 5.5,0 a 0.50004997,0.49991705 0 0 0 0.4004,-0.8005 l -1.2754,-1.6988 1.2754,-1.7007 a 0.50004997,0.49991705 0 0 0 -0.4004,-0.7986 l -3.5,0 0,-0.4999 a 0.50004997,0.49991705 0 0 0 -0.5,-0.4999 l -4,0 0,-0.4998 a 0.50005,0.49991708 0 0 0 -0.5078,-0.5077 z m 0.5078,2.0073 3.5,0 0,0.4998 0,1.4996 a 0.50004997,0.49991705 0 1 0 1,0 l 0,-0.9997 2.5,0 -0.9004,1.1989 a 0.50004997,0.49991705 0 0 0 0,0.5994 l 0.9004,1.2009 -4,0 0,-0.4218 a 0.50004997,0.49991705 0 0 0 -0.1133,-0.4022 0.50004997,0.49991705 0 0 0 -0.031,-0.033 0.50004997,0.49991705 0 0 0 -0.033,-0.029 0.50004997,0.49991705 0 0 0 -0.3984,-0.1054 l -2.418,0 0,-2.9992 z m -0.502,6.0667 13,7.0665 0,0.8631 -1.4628,0 -5.0352,0 -3.9648,0 -5.0352,0 -3.9647994,0 -5.0352,0 -1.502,0 0,-0.8631 12.9999994,-7.0665 z m 0,1.9311 c -1.3748,0 -2.5,1.1249 -2.5,2.4994 0,1.3744 1.1252,2.4993 2.5,2.4993 1.3748,0 2.5,-1.1249 2.5,-2.4993 0,-1.3745 -1.1252,-2.4994 -2.5,-2.4994 z m 0,0.9998 c 0.8343,0 1.5,0.6654 1.5,1.4996 0,0.8341 -0.6657,1.4996 -1.5,1.4996 -0.8343,0 -1.5,-0.6655 -1.5,-1.4996 0,-0.8342 0.6657,-1.4996 1.5,-1.4996 z m -10.9999994,5.9984 4,0 0,0.9997 -4,0 0,-0.9997 z m 4.9999994,0 3,0 0,1.4996 a 0.50005,0.49991708 0 0 0 0.5,0.4999 l 0.5,0 0,7.9978 -0.5,0 a 0.50005,0.49991708 0 0 0 -0.5,0.4999 l 0,1.4996 -3,0 0,-1.4996 a 0.50005,0.49991708 0 0 0 -0.4999994,-0.4999 l -0.5,0 0,-7.9978 0.5,0 a 0.50005,0.49991708 0 0 0 0.4999994,-0.4999 l 0,-1.4996 z m 4,0 4,0 0,0.9997 -4,0 0,-0.9997 z m 5,0 3,0 0,1.4996 a 0.50005,0.49991708 0 0 0 0.5,0.4999 l 0.5,0 0,7.9978 -0.5,0 a 0.50005,0.49991708 0 0 0 -0.5,0.4999 l 0,1.4996 -3,0 0,-1.4996 a 0.50005,0.49991708 0 0 0 -0.5,-0.4999 l -0.5,0 0,-7.9978 0.5,0 a 0.50005,0.49991708 0 0 0 0.5,-0.4999 l 0,-1.4996 z m 4,0 4,0 0,0.9997 -4,0 0,-0.9997 z m -16.9999994,1.9995 2,0 0,7.9978 -2,0 0,-7.9978 z m 8.9999994,0 2,0 0,7.9978 -2,0 0,-7.9978 z m 9,0 2,0 0,7.9978 -2,0 0,-7.9978 z m -18.9999994,8.9976 4,0 0,0.9997 -4,0 0,-0.9997 z m 8.9999994,0 4,0 0,0.9997 -4,0 0,-0.9997 z m 9,0 4,0 0,0.9997 -4,0 0,-0.9997 z m -21.5077994,2.9992 a 0.50064983,0.50051675 0 0 0 0.051,0.9997 l 28.9139994,0 a 0.50005,0.49991708 0 1 0 0,-0.9997 l -28.9139994,0 a 0.50005,0.49991708 0 0 0 -0.051,0 z"></path></g><style type="text/css">
	.st0{fill:#030102;}
</style></svg>