<svg viewBox="0 0 100 100" xmlns="http://www.w3.org/2000/svg"><g clip-path="url(#clip0)"><path fill-rule="evenodd" clip-rule="evenodd" d="M50 0a1.563 1.563 0 0 0-1.534 1.587v20.941L7.094 45.016a1.563 1.563 0 0 0-.816 1.365v5.194a1.562 1.562 0 0 0 1.563 1.562h4.687v4.688a1.563 1.563 0 0 0 1.563 1.56h1.562v24.993h-1.562a1.562 1.562 0 0 0-1.563 1.563v4.684h-1.094a1.563 1.563 0 1 0 0 3.122h77.188a1.562 1.562 0 0 0 0-3.125h-1.094v-4.688a1.563 1.563 0 0 0-1.562-1.562h-1.563v-24.99h1.563a1.563 1.563 0 0 0 1.562-1.563V53.13h4.688a1.563 1.563 0 0 0 1.562-1.562v-5.191a1.562 1.562 0 0 0-.819-1.366L51.591 22.528v-3.76h6.25v1.563a1.562 1.562 0 0 0 1.562 1.563h17.188a1.563 1.563 0 0 0 1.25-2.5l-3.985-5.313 3.985-5.312a1.563 1.563 0 0 0-1.25-2.497H65.653V4.709a1.563 1.563 0 0 0-1.562-1.562h-12.5V1.584A1.563 1.563 0 0 0 50 0zm1.59 6.272h10.938v6.25a1.562 1.562 0 1 0 3.125 0V9.397h7.813l-2.813 3.75a1.563 1.563 0 0 0 0 1.868l2.813 3.754h-12.5v-1.316A1.563 1.563 0 0 0 60.409 16a1.564 1.564 0 0 0-1.243-.328h-7.557V6.297l-.018-.025zm-1.568 18.96l40.625 22.084v2.696H9.397v-2.697l40.625-22.084zm0 6.034a7.834 7.834 0 0 0-7.813 7.812 7.834 7.834 0 0 0 7.813 7.81c4.294 0 7.812-3.516 7.812-7.813a7.838 7.838 0 0 0-7.812-7.81zm0 3.125a4.663 4.663 0 0 1 4.687 4.687 4.665 4.665 0 0 1-4.687 4.688 4.663 4.663 0 0 1-4.688-4.688 4.661 4.661 0 0 1 4.688-4.688zM15.647 53.133h12.5v3.125h-12.5v-3.125zm15.625 0h9.375v4.688a1.562 1.562 0 0 0 1.562 1.562h1.563v24.994h-1.563a1.562 1.562 0 0 0-1.562 1.563v4.684h-9.375v-4.688a1.562 1.562 0 0 0-1.563-1.562h-1.562V59.38h1.562a1.562 1.562 0 0 0 1.563-1.562V53.13v.003zm12.5 0h12.5v3.125h-12.5v-3.125zm15.625 0h9.375v4.688a1.562 1.562 0 0 0 1.562 1.562h1.563v24.994h-1.563a1.562 1.562 0 0 0-1.562 1.563v4.684h-9.375v-4.688a1.562 1.562 0 0 0-1.563-1.562h-1.562V59.38h1.562a1.562 1.562 0 0 0 1.563-1.562V53.13v.003zm12.5 0h12.5v3.125h-12.5v-3.125zm-53.125 6.25h6.25v24.994h-6.25V59.384zm28.125 0h6.25v24.994h-6.25V59.384zm28.125 0h6.25v24.994h-6.25V59.384zm-59.375 28.12h12.5v3.125h-12.5v-3.125zm28.125 0h12.5v3.125h-12.5v-3.125zm28.125 0h12.5v3.125h-12.5v-3.125zM4.684 96.875A1.564 1.564 0 1 0 4.841 100H95.2a1.562 1.562 0 1 0 0-3.125H4.844a1.569 1.569 0 0 0-.16 0z"/></g><defs><clipPath id="clip0"><path fill="#fff" d="M0 0h100v100H0z"/></clipPath></defs></svg>