<svg xmlns="http://www.w3.org/2000/svg" viewBox="0 0 100 100"><path d="M49 29.5l-2.5 2v23h14l2-2.375-2-2.625h-9v-18z"/><path d="M87.95 53.859L77.077 42.988 66.618 53.447l2.899 2.9 5.761-5.762c-.056 4.739-1.473 9.367-4.165 13.405-3.672 5.508-9.27 9.258-15.762 10.556a24.418 24.418 0 0 1-4.812.475c-9.13 0-17.777-5.084-22.067-13.393l-3.643 1.883c5.001 9.684 15.077 15.61 25.718 15.61a28.69 28.69 0 0 0 5.609-.556c7.565-1.514 14.09-5.881 18.368-12.299a28.69 28.69 0 0 0 4.843-15.191l5.684 5.681 2.899-2.897zM31.383 44.848l-5.668 5.667c-.133-11.679 8.057-22.203 19.918-24.576 10.992-2.196 22.131 3.277 27.083 13.317l3.679-1.815C70.62 25.741 57.641 19.358 44.83 21.92c-13.702 2.739-23.205 14.811-23.222 28.277l-5.759-5.759-2.899 2.898 10.871 10.873 10.461-10.462-2.899-2.899z"/></svg>