<svg width="246" height="102" viewBox="0 0 246 102" fill="none" xmlns="http://www.w3.org/2000/svg">
<path d="M0 50.8577C0 50.2712 0.474733 49.7952 1.06034 49.7952H13.6851C20.1134 49.7952 24.7635 50.7582 27.6352 52.6839C30.507 54.6096 31.9429 57.6534 31.9429 61.8146C31.9429 64.6923 31.1366 67.0718 29.524 68.9533C27.9335 70.8127 25.6029 72.0193 22.5323 72.5726V72.9045C29.8885 74.1664 33.5665 78.0402 33.5665 84.5257C33.5665 88.8641 32.0975 92.251 29.1595 94.6858C26.2435 97.1206 22.1568 98.3382 16.8993 98.3382H1.06034C0.474733 98.3382 0 97.8627 0 97.2757V50.8577ZM5.63306 70.5802H14.9111C18.8874 70.5802 21.7481 69.9606 23.4933 68.7208C25.2384 67.4594 26.111 65.3455 26.111 62.3794C26.111 59.6564 25.139 57.6976 23.195 56.5021C21.2511 55.2849 18.1584 54.6763 13.917 54.6763H5.63306V70.5802ZM5.63306 75.3615V93.5238H15.7395C19.6495 93.5238 22.5875 92.7712 24.5536 91.2658C26.5417 89.7388 27.5358 87.3592 27.5358 84.1271C27.5358 81.1168 26.5196 78.9034 24.4873 77.4865C22.4771 76.0699 19.4065 75.3615 15.2756 75.3615H5.63306Z" fill="#E08639"/>
<path d="M71.4431 85.422C71.4431 89.6941 69.8967 93.0257 66.8043 95.4163C63.7114 97.807 59.5142 99.0021 54.2125 99.0021C48.8357 99.0021 44.6206 98.3522 41.5671 97.0526C41.1913 96.8928 40.9582 96.5175 40.9582 96.1082V92.9343C40.9582 92.174 41.7332 91.6576 42.4464 91.9169C44.0141 92.4872 45.683 92.9564 47.453 93.3245C49.7942 93.8115 52.1138 94.0551 54.4114 94.0551C58.1667 94.0551 60.9944 93.3466 62.8941 91.9301C64.7938 90.491 65.7439 88.499 65.7439 85.9533C65.7439 84.2711 65.4012 82.8988 64.7167 81.8363C64.0537 80.7517 62.9272 79.7555 61.3367 78.8481C59.7682 77.9403 57.3714 76.911 54.1463 75.7601C49.6398 74.1442 46.4147 72.2296 44.4704 70.0158C42.5487 67.8024 41.5878 64.9137 41.5878 61.35C41.5878 57.6092 42.9906 54.6316 45.7959 52.4182C48.6015 50.2048 52.3127 49.0981 56.9295 49.0981C61.3851 49.0981 65.5098 49.8559 69.3033 51.3715C69.8212 51.5784 70.071 52.1624 69.8831 52.6885L68.838 55.613C68.6331 56.1863 67.9902 56.4685 67.4231 56.2496C63.7886 54.8463 60.2471 54.145 56.7972 54.145C53.815 54.145 51.4844 54.7868 49.8057 56.0707C48.1265 57.3546 47.2871 59.1362 47.2871 61.4163C47.2871 63.0985 47.5963 64.4823 48.2151 65.5669C48.8335 66.6294 49.8718 67.6141 51.3296 68.5219C52.8098 69.4072 55.0629 70.3923 58.0895 71.4769C63.1702 73.2921 66.6605 75.2399 68.5602 77.3207C70.4824 79.4015 71.4431 82.1019 71.4431 85.422Z" fill="#E08639"/>
<path d="M120.122 73.602C120.122 81.6149 117.946 87.7464 113.594 91.9964C109.264 96.2243 103.024 98.3382 94.8724 98.3382H82.5131C81.9273 98.3382 81.4527 97.8627 81.4527 97.2757V50.8577C81.4527 50.2712 81.9273 49.7952 82.5131 49.7952H96.2976C103.83 49.7952 109.684 51.887 113.859 56.0707C118.035 60.2544 120.122 66.0982 120.122 73.602ZM114.158 73.8013C114.158 67.4705 112.567 62.7003 109.386 59.4907C106.227 56.2811 101.522 54.6763 95.2703 54.6763H87.0857V93.4575H93.9449C100.66 93.4575 105.708 91.8081 109.088 88.5101C112.468 85.1896 114.158 80.2868 114.158 73.8013Z" fill="#E08639"/>
<path d="M145.97 97.2757C145.97 97.8627 145.495 98.3382 144.91 98.3382H141.397C140.812 98.3382 140.337 97.8627 140.337 97.2757V54.8089H126.055C125.47 54.8089 124.995 54.3333 124.995 53.7464V50.8577C124.995 50.2712 125.47 49.7952 126.055 49.7952H160.252C160.837 49.7952 161.312 50.2712 161.312 50.8577V53.7464C161.312 54.3333 160.837 54.8089 160.252 54.8089H145.97V97.2757Z" fill="#005F96"/>
<path d="M199.912 98.3381C199.476 98.3381 199.084 98.0699 198.925 97.6628L193.158 82.8987H173.74L168.038 97.659C167.88 98.0682 167.487 98.3381 167.049 98.3381H163.634C162.886 98.3381 162.373 97.5833 162.647 96.8863L180.964 50.2693C181.124 49.863 181.515 49.5957 181.951 49.5957H185.244C185.68 49.5957 186.072 49.8639 186.231 50.271L204.454 96.888C204.726 97.585 204.214 98.3381 203.467 98.3381H199.912ZM191.402 77.8187L185.769 62.7775C185.04 60.8739 184.289 58.5386 183.516 55.7718C183.03 57.8968 182.334 60.2322 181.428 62.7775L175.728 77.8187H191.402Z" fill="#005F96"/>
<path d="M240.897 48.7768C241.483 48.7768 241.958 49.2524 241.958 49.8393V51.3187C241.958 51.8572 241.555 52.3107 241.021 52.374L235.231 53.06C235.85 53.8348 236.402 54.853 236.888 56.1144C237.373 57.3542 237.616 58.7596 237.616 60.3313C237.616 63.8953 236.402 66.7394 233.972 68.8644C231.542 70.9894 228.206 72.0519 223.965 72.0519C222.882 72.0519 221.866 71.9635 220.916 71.7863C218.575 73.026 217.404 74.5866 217.404 76.4681C217.404 77.4643 217.813 78.2059 218.63 78.6926C219.447 79.1575 220.85 79.39 222.838 79.39H229.266C233.199 79.39 236.214 80.22 238.313 81.8801C240.433 83.5405 241.494 85.9533 241.494 89.1187C241.494 93.1473 239.881 96.2128 236.656 98.3157C233.431 100.441 228.725 101.503 222.54 101.503C217.791 101.503 214.123 100.618 211.539 98.8469C208.976 97.0764 207.695 94.5748 207.695 91.3431C207.695 89.1297 208.402 87.2151 209.816 85.5988C211.23 83.983 213.218 82.8873 215.78 82.3119C214.852 81.8911 214.068 81.2383 213.427 80.3531C212.809 79.4674 212.5 78.438 212.5 77.265C212.5 75.9369 212.853 74.7749 213.56 73.7787C214.267 72.7825 215.382 71.8199 216.907 70.89C215.029 70.1152 213.494 68.7982 212.301 66.9388C211.13 65.0794 210.545 62.9544 210.545 60.5638C210.545 56.5794 211.738 53.5139 214.123 51.3668C216.509 49.1972 219.889 48.1125 224.263 48.1125C226.163 48.1125 227.875 48.334 229.399 48.7768H240.897ZM212.997 91.2768C212.997 93.2467 213.825 94.741 215.482 95.7593C217.139 96.7776 219.513 97.2863 222.606 97.2863C227.223 97.2863 230.636 96.5893 232.845 95.1949C235.076 93.8221 236.192 91.9517 236.192 89.5832C236.192 87.6133 235.584 86.241 234.369 85.4662C233.155 84.7135 230.868 84.3374 227.51 84.3374H220.916C218.42 84.3374 216.476 84.935 215.084 86.1301C213.693 87.3256 212.997 89.0409 212.997 91.2768ZM215.979 60.4312C215.979 62.9765 216.697 64.9026 218.133 66.2082C219.569 67.5142 221.568 68.1674 224.131 68.1674C229.498 68.1674 232.182 65.5554 232.182 60.3313C232.182 54.8641 229.465 52.1301 224.031 52.1301C221.446 52.1301 219.458 52.8275 218.067 54.2219C216.675 55.6168 215.979 57.6861 215.979 60.4312Z" fill="#0FB555"/>
<path d="M71.5533 0H1.06034C0.474733 0 0 0.475697 0 1.0625V30.3727C0 30.9595 0.474733 31.4352 1.06034 31.4352H71.5533C72.139 31.4352 72.6137 30.9595 72.6137 30.3727V1.0625C72.6137 0.475697 72.139 0 71.5533 0Z" fill="#E08639"/>
<path d="M155.048 0H94.7444C94.1588 0 93.684 0.475697 93.684 1.0625V30.3727C93.684 30.9595 94.1588 31.4352 94.7444 31.4352H155.048C155.634 31.4352 156.109 30.9595 156.109 30.3727V1.0625C156.109 0.475697 155.634 0 155.048 0Z" fill="#005F96"/>
<path d="M240.897 0H178.239C177.654 0 177.179 0.475697 177.179 1.0625V30.3727C177.179 30.9595 177.654 31.4352 178.239 31.4352H240.897C241.483 31.4352 241.958 30.9595 241.958 30.3727V1.0625C241.958 0.475697 241.483 0 240.897 0Z" fill="#0FB555"/>
</svg>
