<svg xmlns="http://www.w3.org/2000/svg" viewBox="0 0 144 94" style="fill:#b75400;stroke:#b75400;stroke-width:1.5;stroke-miterlimit:10"><path d="M105.95 14.74l-4.45-4.45c-2.9-2.9-7.79-3.07-10.89-.38l-7.82 6.77c-.1.09-.19.19-.25.3l-7.61 12.67-4.88 1.63c-.41.14-.72.48-.82.9-.1.42.03.87.33 1.18l13.31 13.31c.24.24.56.37.89.37.1 0 .19-.01.29-.03.42-.1.76-.41.9-.82l1.63-4.89 12.86-7.76c.11-.07.21-.15.3-.25l6.61-7.66c2.68-3.11 2.5-7.99-.4-10.89z"/><path d="M101.39 60.43a13.806 13.806 0 0 0-14.02-3.37L60.7 30.38c1.59-4.91.31-10.34-3.37-14.02-3.88-3.88-9.69-5.1-14.81-3.09-.39.15-.68.5-.77.91-.09.41.04.84.34 1.14l7.98 7.98-5.33 5.32-7.98-7.98c-.3-.3-.73-.43-1.14-.34-.41.09-.76.38-.91.77-2 5.11-.79 10.92 3.09 14.81 3.69 3.68 9.11 4.97 14.02 3.37l9.97 9.97-12.42 12.43-7.9 4.42c-.22.12-.4.31-.51.53l-3.55 7.1c-.24.48-.15 1.07.24 1.45l4.44 4.44a1.257 1.257 0 0 0 1.45.24l7.1-3.55c.23-.11.41-.29.53-.51l4.42-7.9 12.42-12.42L78.5 65.94a13.822 13.822 0 0 0 3.37 14.02C84.51 82.6 88.04 84 91.64 84c1.69 0 3.4-.31 5.04-.95.39-.15.68-.5.77-.91.09-.41-.04-.84-.34-1.14l-7.98-7.98 5.32-5.32 7.98 7.98c.3.3.73.43 1.14.34.41-.09.76-.38.91-.77 2.01-5.13.79-10.94-3.09-14.82zm-47.7 5.78c-.08.08-.15.17-.21.28l-4.31 7.71-5.94 2.97-3.16-3.16 2.97-5.95 7.71-4.31c.1-.06.19-.13.28-.21L63.57 51l2.66 2.66-12.54 12.55zm49.02 6.19l-7.38-7.38c-.49-.49-1.28-.49-1.78 0l-7.1 7.1a1.257 1.257 0 0 0 0 1.78l7.38 7.38a11.3 11.3 0 0 1-12.72-15.21c.18-.46.07-.99-.28-1.35l-27.8-27.8c-.24-.24-.56-.37-.89-.37-.15 0-.31.03-.46.09-4.18 1.64-8.94.65-12.12-2.53-2.7-2.7-3.82-6.54-3.09-10.19l7.38 7.38c.49.49 1.28.49 1.78 0l7.1-7.1c.49-.49.49-1.28 0-1.78l-7.38-7.38a11.3 11.3 0 0 1 12.72 15.21c-.18.46-.07.99.28 1.35l27.8 27.8c.35.35.88.46 1.35.28a11.3 11.3 0 1 1 15.21 12.72z"/></svg>
