<svg xmlns="http://www.w3.org/2000/svg" viewBox="0 0 144 94" fill="#b75400"><path d="M112.97 68.8L88.03 54.62a39.122 39.122 0 0 1-8.2 14.41l24.94 14.18c3.98 2.26 9.04.87 11.3-3.11 2.27-3.97.88-9.03-3.1-11.3z"/><path d="M85.1 35.38C80.25 17.72 62 7.34 44.34 12.2 26.68 17.05 16.3 35.3 21.15 52.96s23.1 28.03 40.76 23.18c17.66-4.86 28.04-23.11 23.19-40.76zM60.59 71.31c-14.97 4.12-30.5-4.71-34.61-19.68s4.71-30.5 19.69-34.61c14.97-4.12 30.5 4.71 34.61 19.69s-4.72 30.49-19.69 34.6z"/><path d="M30.48 46.29l5.33-1.46c-2.02-7.35 2.31-14.96 9.66-16.98L44 22.52c-10.28 2.82-16.35 13.49-13.52 23.77z"/></svg>
