<svg width="425" height="365" viewBox="0 0 425 365" fill="none" xmlns="http://www.w3.org/2000/svg">
<circle cx="208.71" cy="153.774" r="206.71" stroke="#B75400" stroke-width="2"/>
<circle cx="216.29" cy="156.806" r="206.71" stroke="#616161" stroke-width="2"/>
<circle cx="214.774" cy="147.71" r="206.71" stroke="#B75400" stroke-width="2"/>
<path d="M88.5157 191.755C87.3278 191.755 86.162 191.599 85.0406 191.299C83.2976 190.833 81.61 190.056 79.7559 188.857C79.4783 188.679 77.713 187.169 76.7249 186.325L76.7027 186.303C76.514 186.148 76.3585 186.015 76.2475 185.915C75.1706 186.437 74.1491 187.136 73.1499 187.824C71.1404 189.212 69.0531 190.633 66.3774 190.733C64.0792 190.822 61.6478 190.456 58.8611 189.623C58.6168 189.556 58.0728 189.323 57.1846 188.968C56.1965 188.557 54.7088 188.046 54.2202 187.847C54.1758 187.824 53.9871 187.713 53.9205 187.513C53.8539 187.325 53.8539 187.025 53.8872 186.958C55.7302 185.548 57.5066 183.861 59.2275 182.218C60.3599 181.141 61.5368 180.019 62.7136 178.998C63.1244 178.643 63.5019 178.254 63.8683 177.832L64.4678 177.066C67.6431 172.736 68.9754 165.719 69.7193 160.501C70.4187 155.638 70.0412 150.587 69.6304 146.235C68.8755 138.196 66.3108 132.368 61.7699 128.393C59.6604 126.55 57.2956 125.051 55.0529 123.685L54.0759 123.097C51.7888 121.709 49.4351 120.277 47.2923 118.578C47.0481 118.39 46.9481 118.09 47.0259 117.801C47.3811 116.424 53.3765 114.493 53.432 114.482C54.5089 114.315 55.6747 114.226 56.9848 114.226C58.4725 114.226 59.9602 114.337 61.3591 114.437C64.7676 114.704 66.9659 116.247 69.3085 117.89C70.1301 118.467 70.9738 119.056 71.8953 119.611L71.9842 119.511C72.2617 119.156 72.4616 118.723 72.6836 118.267C72.9834 117.635 73.2943 116.98 73.8383 116.447C75.1262 115.192 76.7027 114.848 77.9462 114.692C78.4014 114.637 78.8122 114.604 79.223 114.604C81.5101 114.604 82.9312 115.536 84.7187 116.735C84.9962 116.913 85.2738 117.102 85.5736 117.302C86.3174 117.779 86.9503 118.023 87.461 118.023C88.3159 118.023 88.8266 117.379 89.6149 116.325C90.4475 115.203 91.3801 113.938 93.1676 113.727C95.0107 113.516 96.4651 114.448 97.7308 115.27C98.6967 115.892 99.6182 116.491 100.551 116.491C101.295 116.491 102.061 116.114 102.882 115.325C103.893 114.359 104.736 113.627 105.758 113.627C106.479 113.627 107.201 113.993 108.023 114.781L108.211 114.959C109.988 116.658 110.476 117.135 112.708 115.947C114.407 115.048 116.572 114.482 118.37 114.482C121.434 114.482 123.333 116.069 123.444 118.811L123.166 118.889L122.678 119.045C122.456 119.133 122.334 119.156 122.134 119.244C119.758 119.966 112.575 123.974 111.853 124.529C109.444 126.361 107.179 128.715 105.48 131.157C98.8965 140.594 99.0186 154.04 101.128 162.688C102.238 167.24 103.726 172.547 106.402 177.488C107.59 179.686 108.978 181.729 110.51 183.561L110.665 183.75C114.34 188.157 115.15 188.335 115.384 188.568C115.528 188.713 115.628 188.812 115.65 188.946C115.683 189.234 115.361 189.456 115.117 189.59C114.795 189.756 114.451 189.867 114.096 189.945C113.752 190.023 113.53 190.056 113.074 190.134C112.697 190.2 112.308 190.234 111.92 190.267C110.254 190.389 108.611 190.456 106.946 190.289C105.913 190.178 104.881 190.056 103.859 189.867C102.627 189.645 100.018 189.101 98.5634 188.235L97.6086 188.768C96.1098 189.789 93.3564 190.922 93.0011 191.044C91.5578 191.499 90.0368 191.755 88.5157 191.755Z" fill="white"/>
<path d="M88.5157 191.755C87.3278 191.755 86.162 191.599 85.0406 191.299C83.2976 190.833 81.61 190.056 79.7559 188.857C79.4783 188.679 77.713 187.169 76.7249 186.325L76.7027 186.303C76.514 186.148 76.3585 186.015 76.2475 185.915C75.1706 186.437 74.1491 187.136 73.1499 187.824C71.1404 189.212 69.0531 190.633 66.3774 190.733C64.0792 190.822 61.6478 190.456 58.8611 189.623C58.6168 189.556 58.0728 189.323 57.1846 188.968C56.1965 188.557 54.7088 188.046 54.2202 187.847C54.1758 187.824 53.9871 187.713 53.9205 187.513C53.8539 187.325 53.8539 187.025 53.8872 186.958C55.7302 185.548 57.5066 183.861 59.2275 182.218C60.3599 181.141 61.5368 180.019 62.7136 178.998C63.1244 178.643 63.5019 178.254 63.8683 177.832L64.4678 177.066C67.6431 172.736 68.9754 165.719 69.7193 160.501C70.4187 155.638 70.0412 150.587 69.6304 146.235C68.8755 138.196 66.3108 132.368 61.7699 128.393C59.6604 126.55 57.2956 125.051 55.0529 123.685L54.0759 123.097C51.7888 121.709 49.4351 120.277 47.2923 118.578C47.0481 118.39 46.9481 118.09 47.0259 117.801C47.3811 116.424 53.3765 114.493 53.432 114.482C54.5089 114.315 55.6747 114.226 56.9848 114.226C58.4725 114.226 59.9602 114.337 61.3591 114.437C64.7676 114.704 66.9659 116.247 69.3085 117.89C70.1301 118.467 70.9738 119.056 71.8953 119.611L71.9842 119.511C72.2617 119.156 72.4616 118.723 72.6836 118.267C72.9834 117.635 73.2943 116.98 73.8383 116.447C75.1262 115.192 76.7027 114.848 77.9462 114.692C78.4014 114.637 78.8122 114.604 79.223 114.604C81.5101 114.604 82.9312 115.536 84.7187 116.735C84.9962 116.913 85.2738 117.102 85.5736 117.302C86.3174 117.779 86.9503 118.023 87.461 118.023C88.3159 118.023 88.8266 117.379 89.6149 116.325C90.4475 115.203 91.3801 113.938 93.1676 113.727C95.0107 113.516 96.4651 114.448 97.7308 115.27C98.6967 115.892 99.6182 116.491 100.551 116.491C101.295 116.491 102.061 116.114 102.882 115.325C103.893 114.359 104.736 113.627 105.758 113.627C106.479 113.627 107.201 113.993 108.023 114.781L108.211 114.959C109.988 116.658 110.476 117.135 112.708 115.947C114.407 115.048 116.572 114.482 118.37 114.482C121.434 114.482 123.333 116.069 123.444 118.811L123.166 118.889L122.678 119.045C122.456 119.133 122.334 119.156 122.134 119.244C119.758 119.966 112.575 123.974 111.853 124.529C109.444 126.361 107.179 128.715 105.48 131.157C98.8965 140.594 99.0186 154.04 101.128 162.688C102.238 167.24 103.726 172.547 106.402 177.488C107.59 179.686 108.978 181.729 110.51 183.561L110.665 183.75C114.34 188.157 115.15 188.335 115.384 188.568C115.528 188.713 115.628 188.812 115.65 188.946C115.683 189.234 115.361 189.456 115.117 189.59C114.795 189.756 114.451 189.867 114.096 189.945C113.752 190.023 113.53 190.056 113.074 190.134C112.697 190.2 112.308 190.234 111.92 190.267C110.254 190.389 108.611 190.456 106.946 190.289C105.913 190.178 104.881 190.056 103.859 189.867C102.627 189.645 100.018 189.101 98.5634 188.235L97.6086 188.768C96.1098 189.789 93.3564 190.922 93.0011 191.044C91.5578 191.499 90.0368 191.755 88.5157 191.755ZM77.0691 185.293C78.0017 186.103 80.0556 187.847 80.2888 188.002C82.0541 189.146 83.6417 189.889 85.2849 190.322C87.6497 190.955 90.2588 190.866 92.7235 190.056C93.0455 189.956 95.8877 188.768 97.1867 187.824L96.8981 187.247C95.8211 185.082 94.3334 182.118 93.5784 179.93C93.4119 179.464 93.2565 179.02 93.101 178.609C92.2572 176.289 91.6022 174.446 91.6022 171.204V168.439L98.1526 185.904C98.3081 186.214 98.4524 186.57 98.5745 186.925H98.5856C99.1075 187.669 101.783 188.446 104.048 188.857C107.878 189.545 111.365 189.556 114.107 188.857C113.285 188.202 112.02 186.903 109.899 184.371L109.744 184.194C108.167 182.317 106.746 180.219 105.514 177.954C102.782 172.925 101.272 167.529 100.151 162.922C97.9972 154.073 97.8862 140.295 104.659 130.58C106.424 128.049 108.767 125.617 111.242 123.719C111.864 123.241 119.98 118.767 122.312 118.234C121.934 115.969 119.991 115.47 118.359 115.47C116.716 115.47 114.729 115.98 113.163 116.813C110.332 118.312 109.377 117.457 107.501 115.669L107.312 115.492C106.69 114.903 106.18 114.615 105.736 114.615C105.092 114.615 104.392 115.225 103.56 116.036C102.549 117.002 101.561 117.479 100.54 117.479C99.3073 117.479 98.2193 116.78 97.1756 116.102C95.9877 115.336 94.7664 114.537 93.2676 114.715C91.9131 114.87 91.1803 115.858 90.4031 116.913C89.6371 117.945 88.8488 119.022 87.4499 119.022C86.7393 119.022 85.9399 118.734 85.0184 118.145C84.7187 117.946 84.43 117.757 84.1525 117.579C82.365 116.402 81.1881 115.614 79.2008 115.614C78.8455 115.614 78.4569 115.636 78.0572 115.692C76.4251 115.903 75.3704 116.347 74.5266 117.168C74.1158 117.579 73.8494 118.123 73.5718 118.7C73.3942 119.078 73.2054 119.467 72.9612 119.833C75.2039 123.397 76.4585 127.671 76.8581 130.303C77.5465 134.855 76.414 137.341 75.3371 139.751L74.5155 141.572L71.7177 120.666C70.6297 120.044 69.6527 119.356 68.7089 118.7C66.4885 117.146 64.3901 115.681 61.2592 115.436C59.8714 115.325 58.4059 115.225 56.9626 115.225C55.708 115.225 54.5977 115.303 53.5652 115.47C52.9546 115.603 48.88 117.168 48.0806 117.934C50.1234 119.533 52.3883 120.91 54.5755 122.231L55.5525 122.819C57.8285 124.207 60.2378 125.728 62.4028 127.627C67.1435 131.768 69.8192 137.819 70.5964 146.124C71.0072 150.531 71.3846 155.661 70.6741 160.623C70.019 165.231 69.0198 170.538 66.977 174.735L72.0841 170.105C72.5948 169.639 73.2832 169.106 73.8383 168.661L76.5917 166.485L72.9501 171.926C72.1285 172.669 71.5068 173.258 70.8517 174.191C70.1856 175.145 69.0975 175.956 68.3093 176.555C67.4655 177.188 66.5329 177.521 65.2339 177.666C64.6677 178.432 64.0348 179.12 63.3465 179.72C62.1807 180.73 61.0149 181.84 59.8936 182.906C58.3948 184.327 56.8626 185.793 55.2528 187.092C55.7746 187.28 56.4963 187.58 57.5399 188.002C58.2393 188.291 58.9055 188.568 59.1164 188.624C61.8032 189.423 64.1236 189.778 66.3108 189.701C68.7089 189.612 70.5742 188.335 72.5615 186.969C73.6606 186.214 74.7931 185.437 76.0366 184.871L81.6211 163.676V167.54C81.6211 171.359 81.3657 173.014 80.9994 174.945C80.7773 176.133 80.1778 177.654 79.6449 179.009C79.3562 179.731 79.0897 180.419 78.9121 180.985C78.5901 181.973 78.2682 182.651 77.8463 183.517C77.6464 184.038 77.38 184.594 77.0691 185.293ZM93.0455 175.112C93.3009 176.178 93.6562 177.155 94.0669 178.287C94.2224 178.709 94.3778 179.153 94.5443 179.62C94.944 180.785 95.5658 182.184 96.2208 183.572L93.0455 175.112ZM80.4442 172.192L78.7234 178.72C78.7345 178.698 78.7345 178.676 78.7456 178.665C79.2563 177.355 79.8447 175.867 80.0445 174.779C80.2 173.946 80.3443 173.147 80.4442 172.192ZM70.8961 172.581L66.766 176.322C67.1213 176.178 67.4322 176 67.7319 175.778C68.4647 175.223 69.475 174.468 70.0523 173.646C70.3299 173.236 70.6075 172.892 70.8961 172.581ZM72.9279 121.709L75.0595 137.908C75.8478 135.976 76.4029 133.855 75.8922 130.436C75.5592 128.226 74.6043 124.818 72.9279 121.709ZM99.7181 180.697C99.3073 179.775 99.0964 178.842 98.8965 177.943L98.7411 177.255L98.3969 176.067C98.3747 175.967 98.3414 175.878 98.3081 175.778C98.0194 175.001 97.6419 174.324 97.2756 173.658C96.8537 172.892 96.4207 172.092 96.0987 171.137C94.8774 167.474 94.0558 164.298 94.0558 160.723V157.126L99.4072 175.989C99.5182 176.322 99.6182 176.677 99.6959 177.022L100.64 180.341L99.7181 180.697ZM87.7385 147.933L90.5586 141.727C90.8361 140.683 91.0249 139.407 91.2247 138.174C91.4357 136.809 91.6355 135.521 91.9575 134.688C92.8901 132.268 94.9218 130.791 96.8759 129.37C97.864 128.659 98.7855 127.982 99.5849 127.194L102.138 124.674L92.2572 142.127C91.8687 143.448 90.0812 146.967 88.9043 147.456L87.7385 147.933ZM98.1526 129.681C97.9195 129.847 97.6863 130.025 97.4532 130.191C95.5214 131.59 93.7006 132.912 92.879 135.054C92.6014 135.776 92.4127 137.02 92.2017 138.33C92.0685 139.218 91.9242 140.117 91.7465 140.983L98.1526 129.681ZM101.428 127.105L102.15 124.796C102.716 122.975 104.403 118.712 107.701 118.523L108.878 118.456L101.428 127.105ZM106.08 120.177C105.48 120.621 104.914 121.276 104.403 122.12L106.08 120.177Z" fill="black" fill-opacity="0.87"/>
<path d="M54.6532 189.789C59.5827 198.771 73.4829 200.759 82.6092 200.981C86.0953 201.07 89.6148 200.847 93.0677 200.403C94.9107 200.159 96.6538 199.637 98.5523 199.104C101.805 198.183 105.058 197.173 108.134 195.751C110.876 194.475 114.762 193.165 115.583 189.667C114.107 192.099 102.194 190.711 100.395 189.845C99.2739 189.301 99.385 189.112 98.4635 190C95.6101 192.765 90.5807 193.653 86.8503 192.965C83.8415 192.41 79.778 190.067 77.3577 188.191C76.4251 187.458 76.8692 187.092 75.5702 187.702C72.6614 189.057 70.5963 190.877 67.2545 191.421C63.7683 191.988 60.5264 191.366 56.6405 189.645C55.6746 189.223 55.286 189.168 54.1869 188.435L54.6532 189.789Z" fill="black" fill-opacity="0.87"/>
<path d="M47.4255 116.524C53.2765 108.586 62.9135 105.733 71.9842 103.224C76.6028 101.947 80.4442 101.159 85.3182 101.159C89.5704 101.159 93.7117 102.158 97.8529 102.99C102.016 103.823 106.28 104.478 109.966 106.721C112.342 108.164 115.139 108.93 117.515 110.407C118.315 110.907 121.124 111.573 120.768 112.783C120.258 114.504 116.105 112.883 114.795 113.549C113.374 114.271 111.498 115.614 109.877 115.148C108.322 114.704 107.878 112.872 106.135 112.694C103.471 112.428 102.938 115.259 100.273 115.059C98.2526 114.903 95.9321 112.383 93.8893 112.516C91.9575 112.639 89.8591 114.715 88.4269 115.769C85.7956 117.723 84.6632 115.003 82.4094 114.104C81.066 113.571 80.5441 113.416 79.0675 113.416C75.3704 113.416 73.1166 115.059 71.0182 117.99C71.7288 116.991 67.0436 114.781 66.5773 114.648C64.6121 114.104 62.5693 113.282 60.5375 113.249C55.4082 113.16 51.7888 113.305 47.4255 116.524Z" fill="black" fill-opacity="0.87"/>
<path d="M85.6623 73.902C84.652 72.5586 83.4085 73.0916 81.8209 73.1693C80.966 75.5452 81.7543 77.5659 82.1873 79.5754C82.6647 81.7959 83.0755 84.0719 83.4752 86.1591C83.9082 88.3685 84.0747 90.6778 84.1968 93.1093C84.2523 94.2972 84.3078 95.6406 84.0525 96.7731C83.8193 97.7945 83.1199 98.4829 82.9311 99.4821C84.9407 99.4266 87.1057 99.471 89.1596 99.36C89.1707 98.3496 88.5046 97.3504 88.2603 96.3956C87.9828 95.2965 88.1604 94.2417 88.0383 93.1093C87.8384 91.2219 87.3721 89.3678 87.1612 87.3582C86.6838 82.9172 85.9399 78.454 85.6623 73.902Z" fill="black" fill-opacity="0.87"/>
<path d="M121.301 82.1845C115.795 82.2733 109.766 82.5398 104.67 85.4042C102.283 86.7365 100.584 88.413 98.3526 90.0561C97.2312 90.8888 96.0877 91.6216 94.7776 92.2766C93.4564 92.9317 91.8909 93.0427 90.6697 93.7755L91.3136 95.2521C92.9679 94.7858 93.3232 94.5082 95.0218 94.4083C96.6983 94.3084 98.2971 94.0308 100.129 94.2085C101.85 94.375 103.848 94.3417 105.491 94.7858C107.412 95.3076 109.855 95.3076 111.82 95.463C115.739 95.7628 120.546 94.9079 124.466 94.0863C127.286 93.4868 131.049 92.2766 133.214 90.1561C134.125 89.2568 134.602 88.3797 135.69 87.3694C136.723 86.4034 138.321 84.4716 139.087 83.3503C139.842 82.24 140.531 81.5628 141.241 80.3637C141.863 79.3201 143.04 77.1329 143.062 75.8117C137.733 81.807 128.573 82.0624 121.301 82.1845Z" fill="black" fill-opacity="0.87"/>
<path d="M165.364 163.297C164.975 168.811 162.982 173.151 159.387 176.319C155.814 179.486 151.097 181.07 145.234 181.07C138.822 181.07 133.772 178.864 130.085 174.453C126.421 170.019 124.589 163.942 124.589 156.223V153.091C124.589 148.164 125.436 143.823 127.131 140.069C128.825 136.316 131.241 133.441 134.379 131.447C137.539 129.429 141.203 128.42 145.371 128.42C151.142 128.42 155.791 130.004 159.318 133.172C162.845 136.339 164.883 140.785 165.433 146.51H155.127C154.875 143.202 153.971 140.809 152.413 139.33C150.879 137.829 148.532 137.078 145.371 137.078C141.936 137.078 139.36 138.345 137.642 140.879C135.948 143.389 135.077 147.296 135.031 152.598V156.47C135.031 162.007 135.844 166.054 137.47 168.611C139.119 171.169 141.707 172.447 145.234 172.447C148.417 172.447 150.787 171.708 152.345 170.23C153.925 168.729 154.829 166.418 155.058 163.297H165.364Z" fill="black" fill-opacity="0.87"/>
<path d="M213.215 155.907C213.215 160.951 212.345 165.374 210.605 169.174C208.864 172.975 206.368 175.908 203.116 177.973C199.887 180.038 196.177 181.07 191.986 181.07C187.841 181.07 184.143 180.049 180.891 178.008C177.639 175.967 175.12 173.057 173.333 169.28C171.547 165.479 170.643 161.115 170.62 156.188V153.654C170.62 148.61 171.501 144.175 173.265 140.351C175.051 136.503 177.559 133.559 180.788 131.517C184.04 129.453 187.75 128.42 191.918 128.42C196.086 128.42 199.784 129.453 203.013 131.517C206.265 133.559 208.773 136.503 210.536 140.351C212.322 144.175 213.215 148.598 213.215 153.619V155.907ZM202.773 153.584C202.773 148.211 201.834 144.128 199.956 141.336C198.078 138.544 195.399 137.148 191.918 137.148C188.46 137.148 185.792 138.533 183.914 141.301C182.036 144.046 181.085 148.082 181.062 153.408V155.907C181.062 161.139 182.001 165.198 183.879 168.083C185.757 170.969 188.46 172.412 191.986 172.412C195.444 172.412 198.101 171.028 199.956 168.259C201.811 165.467 202.75 161.408 202.773 156.082V153.584Z" fill="black" fill-opacity="0.87"/>
<path d="M239.22 161.608H231.01V180.366H220.704V129.124H239.288C245.197 129.124 249.754 130.473 252.96 133.172C256.166 135.87 257.769 139.682 257.769 144.609C257.769 148.105 257.025 151.026 255.537 153.373C254.071 155.695 251.838 157.549 248.838 158.933L259.659 179.873V180.366H248.598L239.22 161.608ZM231.01 153.056H239.323C241.91 153.056 243.914 152.387 245.334 151.05C246.754 149.689 247.464 147.824 247.464 145.454C247.464 143.037 246.788 141.137 245.437 139.753C244.109 138.368 242.059 137.676 239.288 137.676H231.01V153.056Z" fill="black" fill-opacity="0.87"/>
<path d="M295.728 158.159H275.941V171.884H299.163V180.366H265.636V129.124H299.094V137.676H275.941V149.888H295.728V158.159Z" fill="black" fill-opacity="0.87"/>
<path d="M337.44 164H330.102V135.715L321.342 138.432L321.342 132.465L336.652 126.98H337.44L337.44 164ZM374.435 148.715C374.435 153.827 373.378 157.737 371.262 160.445C369.146 163.154 366.048 164.508 361.969 164.508C357.94 164.508 354.859 163.179 352.726 160.521C350.594 157.864 349.502 154.055 349.451 149.096V142.291C349.451 137.128 350.518 133.21 352.65 130.535C354.8 127.861 357.889 126.523 361.918 126.523C365.947 126.523 369.027 127.852 371.16 130.51C373.293 133.15 374.385 136.951 374.435 141.91V148.715ZM367.098 141.25C367.098 138.186 366.674 135.96 365.828 134.572C364.999 133.167 363.695 132.465 361.918 132.465C360.191 132.465 358.913 133.133 358.084 134.471C357.271 135.791 356.84 137.865 356.789 140.691V149.68C356.789 152.693 357.195 154.936 358.008 156.408C358.837 157.864 360.157 158.592 361.969 158.592C363.763 158.592 365.058 157.889 365.853 156.484C366.649 155.079 367.064 152.93 367.098 150.035V141.25Z" fill="#B75400"/>
<path d="M325.555 173.969L328.218 168.203L331.101 168.203L326.899 176.359L326.899 181H324.219L324.219 176.359L320.018 168.203H322.909L325.555 173.969ZM339.996 175.454H334.933V178.882H340.875V181H332.297V168.203H340.857V170.339H334.933V173.389H339.996V175.454ZM349.673 178.363H345.05L344.171 181L341.367 181L346.131 168.203H348.575L353.365 181H350.561L349.673 178.363ZM345.762 176.228H348.961L347.353 171.438L345.762 176.228ZM359.324 176.315H357.224V181H354.587V168.203H359.342C360.853 168.203 362.019 168.54 362.84 169.214C363.66 169.888 364.07 170.84 364.07 172.07C364.07 172.943 363.88 173.673 363.499 174.259C363.124 174.839 362.553 175.302 361.785 175.647L364.554 180.877V181L361.724 181L359.324 176.315ZM357.224 174.18H359.351C360.013 174.18 360.525 174.013 360.889 173.679C361.252 173.339 361.434 172.873 361.434 172.281C361.434 171.678 361.261 171.203 360.915 170.857C360.575 170.512 360.051 170.339 359.342 170.339H357.224V174.18ZM372.746 177.643C372.746 177.145 372.57 176.764 372.218 176.5C371.867 176.23 371.234 175.949 370.32 175.656C369.406 175.357 368.682 175.064 368.149 174.777C366.696 173.992 365.969 172.935 365.969 171.604C365.969 170.913 366.163 170.298 366.549 169.759C366.942 169.214 367.502 168.789 368.228 168.484C368.961 168.18 369.781 168.027 370.689 168.027C371.603 168.027 372.418 168.194 373.132 168.528C373.847 168.856 374.401 169.322 374.794 169.926C375.192 170.529 375.391 171.215 375.391 171.982H372.754C372.754 171.396 372.57 170.942 372.201 170.62C371.832 170.292 371.313 170.128 370.645 170.128C370.001 170.128 369.5 170.266 369.142 170.541C368.785 170.811 368.606 171.168 368.606 171.613C368.606 172.029 368.814 172.378 369.23 172.659C369.652 172.94 370.27 173.204 371.085 173.45C372.585 173.901 373.677 174.461 374.363 175.129C375.048 175.797 375.391 176.629 375.391 177.625C375.391 178.732 374.972 179.603 374.134 180.235C373.296 180.862 372.169 181.176 370.751 181.176C369.766 181.176 368.87 180.997 368.061 180.64C367.253 180.276 366.634 179.781 366.207 179.154C365.785 178.527 365.574 177.801 365.574 176.975H368.219C368.219 178.387 369.063 179.093 370.751 179.093C371.378 179.093 371.867 178.967 372.218 178.715C372.57 178.457 372.746 178.1 372.746 177.643Z" fill="#B75400"/>
<path d="M141.132 128.98L162.734 102.149L161.804 136.568C161.69 136.572 161.555 136.577 161.399 136.579C160.841 136.588 160.026 136.575 159.004 136.487C156.961 136.311 154.096 135.834 150.828 134.633C147.302 133.336 144.794 131.835 143.174 130.666C142.364 130.081 141.775 129.579 141.392 129.226C141.291 129.133 141.205 129.051 141.132 128.98Z" fill="white" stroke="#B75400"/>
<path d="M164.741 96.6916L164.637 99.388L167.17 100.319L164.574 101.055L164.47 103.751L162.969 101.509L160.373 102.244L162.041 100.123L160.54 97.881L163.072 98.8124L164.741 96.6916Z" fill="#B75400"/>
<g opacity="0.5">
<path d="M163.064 108.447L163.273 100.681L157.029 108.438C157.638 108.751 158.494 108.994 159.589 109.188C160.752 108.983 161.914 108.738 163.064 108.447Z" fill="#B75400"/>
<path d="M155.846 119.366C158.168 119.063 160.519 118.612 162.807 117.971L163.064 108.447C161.914 108.738 160.752 108.983 159.589 109.188C156.569 111.008 154.37 112.458 152.85 113.628L150.062 117.091C150.235 118.296 152.628 118.766 155.846 119.366Z" fill="#B75400"/>
<path d="M152.143 129.435C155.579 129.126 159.152 128.516 162.55 127.466L162.807 117.971C160.519 118.612 158.168 119.063 155.846 119.366C143.26 126.052 145.116 127.193 152.143 129.435Z" fill="#B75400"/>
<path d="M150.655 135.102C156.176 137.132 160.568 137.124 161.886 137.065C162.022 137.02 162.159 136.974 162.295 136.928L162.55 127.466C159.152 128.516 155.579 129.126 152.143 129.435C149.663 130.939 147.772 132.183 146.387 133.221C147.604 133.857 149.023 134.501 150.655 135.102Z" fill="#B75400"/>
</g>
<g opacity="0.5">
<path d="M163.053 108.846L163.239 101.966C159.405 106.646 159.121 108.379 162.27 108.99C162.531 108.944 162.792 108.896 163.053 108.846Z" fill="#B75400"/>
<path d="M158.527 119.168C159.946 118.983 161.375 118.742 162.794 118.437L163.053 108.846C162.792 108.896 162.531 108.944 162.27 108.99C152.774 116.209 155.234 117.083 158.527 119.168Z" fill="#B75400"/>
<path d="M154.825 129.236C157.362 129.009 159.974 128.617 162.536 128.004L162.794 118.437C161.375 118.742 159.946 118.983 158.527 119.168C149.241 126.139 152 128.004 154.825 129.236Z" fill="#B75400"/>
<path d="M150.655 135.102C157.289 137.541 162.292 137.038 162.292 137.038L162.536 128.004C159.974 128.617 157.362 129.009 154.825 129.236C150.655 131 149.902 133.144 148.88 134.399C149.441 134.638 150.033 134.873 150.655 135.102Z" fill="#B75400"/>
</g>
<path d="M155.667 110.129C156.956 110.051 158.274 109.932 159.602 109.766C160.743 109.623 161.894 109.445 163.043 109.226L163.063 108.466C161.88 108.695 160.691 108.881 159.51 109.029C158.429 109.164 157.356 109.268 156.3 109.343L155.667 110.129Z" fill="#B75400"/>
<path d="M147.711 120.011L148.294 119.287C151.308 119.375 154.712 119.272 158.191 118.836C159.726 118.644 161.272 118.388 162.804 118.055L162.784 118.819C161.284 119.139 159.775 119.386 158.283 119.573C154.548 120.041 150.898 120.131 147.711 120.011Z" fill="#B75400"/>
<path d="M140.802 129.356C140.575 129.136 140.465 129.012 140.465 129.012L140.792 128.606C144.733 129.143 150.685 129.418 156.872 128.643C158.762 128.407 160.67 128.073 162.546 127.619L162.525 128.388C160.678 128.826 158.809 129.149 156.964 129.381C150.765 130.157 144.801 129.892 140.802 129.356Z" fill="#B75400"/>
</svg>
