<svg width="37" height="48" viewBox="0 0 37 48" fill="none" xmlns="http://www.w3.org/2000/svg">
<path d="M2.13227 36.9805L23.7336 10.1487L22.8045 44.5677C22.6902 44.5724 22.5546 44.5766 22.3987 44.579C21.8414 44.5878 21.0258 44.5749 20.0042 44.4868C17.9608 44.3108 15.0963 43.8345 11.8279 42.6325C8.30155 41.3357 5.79412 39.8354 4.1739 38.666C3.36365 38.0812 2.77497 37.5789 2.39154 37.2259C2.29114 37.1334 2.20482 37.0512 2.13227 36.9805Z" fill="white" stroke="#B75400"/>
<path d="M25.7405 4.69159L25.6374 7.38802L28.1699 8.31939L25.5736 9.0545L25.4704 11.7509L23.969 9.50883L21.3726 10.2439L23.041 8.12313L21.5396 5.88103L24.0722 6.8124L25.7405 4.69159Z" fill="#B75400"/>
<g opacity="0.5">
<path d="M24.0638 16.447L24.2734 8.68081L18.0286 16.4378C18.6381 16.7511 19.494 16.9943 20.5888 17.1881C21.7517 16.9832 22.9138 16.7379 24.0638 16.447Z" fill="#B75400"/>
<path d="M16.8459 27.3658C19.1678 27.063 21.5188 26.6119 23.8067 25.9714L24.0638 16.447C22.9138 16.7379 21.7517 16.9832 20.5888 17.1881C17.569 19.0077 15.37 20.4584 13.85 21.6281L11.0625 25.0906C11.2352 26.2956 13.6279 26.766 16.8459 27.3658Z" fill="#B75400"/>
<path d="M13.143 37.4346C16.579 37.1264 20.1518 36.5162 23.5504 35.4658L23.8067 25.9714C21.5188 26.6119 19.1678 27.063 16.8459 27.3658C4.26006 34.0515 6.1159 35.1931 13.143 37.4346Z" fill="#B75400"/>
<path d="M11.6553 43.1017C17.1764 45.1321 21.5678 45.1244 22.8857 45.0646C23.0224 45.0197 23.1589 44.9741 23.295 44.9277L23.5504 35.4658C20.1518 36.5162 16.579 37.1264 13.143 37.4346C10.6625 38.9395 8.77216 40.1828 7.3867 41.2207C8.60389 41.8572 10.0226 42.5013 11.6553 43.1017Z" fill="#B75400"/>
</g>
<g opacity="0.5">
<path d="M24.053 16.8459L24.2387 9.96606C20.4047 14.6458 20.1213 16.3792 23.2704 16.99C23.5313 16.944 23.7922 16.896 24.053 16.8459Z" fill="#B75400"/>
<path d="M19.5274 27.1677C20.9458 26.9827 22.375 26.7424 23.794 26.4374L24.053 16.8459C23.7922 16.896 23.5313 16.944 23.2704 16.99C13.7738 24.2086 16.2336 25.0834 19.5274 27.1677Z" fill="#B75400"/>
<path d="M15.8246 37.2365C18.3622 37.0089 20.9743 36.6166 23.5358 36.0039L23.794 26.4374C22.375 26.7424 20.9458 26.9827 19.5274 27.1677C10.2405 34.1387 12.9999 36.0039 15.8246 37.2365Z" fill="#B75400"/>
<path d="M11.6552 43.1018C18.289 45.5414 23.2919 45.0385 23.2919 45.0385L23.5358 36.0039C20.9743 36.6166 18.3622 37.0089 15.8246 37.2365C11.6552 39 10.9021 41.1439 9.88037 42.3988C10.4413 42.6376 11.0327 42.8728 11.6552 43.1018Z" fill="#B75400"/>
</g>
<path d="M16.6668 18.1293C17.9564 18.051 19.2738 17.9324 20.602 17.7661C21.7432 17.6232 22.8939 17.4448 24.0428 17.2259L24.0633 16.4656C22.8798 16.695 21.6912 16.8811 20.5097 17.0291C19.4294 17.1643 18.3563 17.2676 17.2998 17.343L16.6668 18.1293Z" fill="#B75400"/>
<path d="M8.71132 28.011L9.29398 27.2873C12.3082 27.3755 15.7124 27.2718 19.1906 26.8363C20.7255 26.644 22.2723 26.3875 23.8044 26.0552L23.7838 26.8194C22.284 27.1388 20.7754 27.3864 19.2829 27.5733C15.5477 28.0411 11.8976 28.1308 8.71132 28.011Z" fill="#B75400"/>
<path d="M1.80173 37.3564C1.57506 37.1363 1.46532 37.0115 1.46532 37.0115L1.79214 36.6056C5.7327 37.1429 11.6849 37.4182 17.8716 36.6435C19.7616 36.4068 21.6696 36.0726 23.5462 35.6194L23.5255 36.3881C21.6784 36.8257 19.8089 37.1495 17.9639 37.3805C11.7651 38.1568 5.80105 37.8919 1.80173 37.3564Z" fill="#B75400"/>
</svg>
