<svg width="270" height="40" viewBox="0 0 270 40" fill="none" xmlns="http://www.w3.org/2000/svg">
<g clip-path="url(#clip0_44_1871)">
<rect x="1.125" y="1.125" width="77.75" height="37.75" fill="white"/>
<path d="M22.0155 30.6724C21.7611 30.6724 21.5114 30.6385 21.2713 30.5733C20.898 30.4717 20.5366 30.3025 20.1396 30.0414C20.0801 30.0027 19.7021 29.674 19.4905 29.4902L19.4858 29.4854C19.4453 29.4516 19.412 29.4225 19.3883 29.4008C19.1577 29.5144 18.9389 29.6667 18.7249 29.8166C18.2946 30.1188 17.8476 30.4282 17.2746 30.45C16.7825 30.4693 16.2618 30.3895 15.665 30.2082C15.6127 30.1937 15.4962 30.1429 15.306 30.0656C15.0944 29.9761 14.7758 29.8649 14.6712 29.8214C14.6617 29.8166 14.6213 29.7924 14.607 29.7489C14.5927 29.7078 14.5927 29.6425 14.5999 29.628C14.9945 29.321 15.375 28.9536 15.7435 28.5958C15.986 28.3613 16.238 28.1171 16.49 27.8947C16.578 27.8173 16.6588 27.7327 16.7373 27.6409L16.8657 27.4741C17.5457 26.5312 17.831 25.0034 17.9903 23.8672C18.1401 22.8083 18.0592 21.7084 17.9712 20.7608C17.8096 19.0105 17.2604 17.7413 16.2879 16.8759C15.8362 16.4746 15.3298 16.1482 14.8495 15.8509L14.6403 15.7227C14.1505 15.4206 13.6465 15.1087 13.1876 14.7388C13.1353 14.6977 13.1139 14.6325 13.1305 14.5696C13.2066 14.2698 14.4905 13.8492 14.5024 13.8468C14.733 13.8105 14.9827 13.7912 15.2632 13.7912C15.5818 13.7912 15.9004 13.8154 16.2 13.8371C16.9299 13.8951 17.4006 14.2312 17.9023 14.589C18.0782 14.7147 18.2589 14.8428 18.4563 14.9637L18.4753 14.9419C18.5347 14.8645 18.5775 14.7703 18.6251 14.6711C18.6893 14.5334 18.7558 14.3907 18.8723 14.2747C19.1481 14.0015 19.4858 13.9266 19.752 13.8927C19.8495 13.8806 19.9375 13.8734 20.0255 13.8734C20.5152 13.8734 20.8196 14.0764 21.2024 14.3375C21.2618 14.3762 21.3212 14.4173 21.3854 14.4608C21.5447 14.5648 21.6802 14.618 21.7896 14.618C21.9727 14.618 22.082 14.4777 22.2509 14.2481C22.4292 14.0039 22.6289 13.7283 23.0117 13.6824C23.4063 13.6365 23.7178 13.8395 23.9889 14.0184C24.1957 14.1538 24.393 14.2844 24.5928 14.2844C24.752 14.2844 24.9161 14.2022 25.092 14.0305C25.3084 13.8202 25.4891 13.6606 25.7078 13.6606C25.8624 13.6606 26.0169 13.7404 26.1928 13.9121L26.2333 13.9507C26.6137 14.3206 26.7183 14.4246 27.1962 14.1659C27.5599 13.9701 28.0236 13.8468 28.4087 13.8468C29.0649 13.8468 29.4715 14.1925 29.4953 14.7896L29.4358 14.8065L29.3312 14.8404C29.2837 14.8597 29.2575 14.8645 29.2147 14.8839C28.7059 15.041 27.1676 15.9137 27.0131 16.0346C26.4972 16.4335 26.0122 16.946 25.6484 17.4778C24.2385 19.5327 24.2646 22.4602 24.7164 24.3434C24.9541 25.3346 25.2727 26.4902 25.8457 27.5659C26.1001 28.0446 26.3973 28.4894 26.7254 28.8883L26.7587 28.9294C27.5457 29.8891 27.7192 29.9278 27.7692 29.9786C27.8001 30.01 27.8215 30.0317 27.8262 30.0608C27.8334 30.1236 27.7644 30.172 27.7121 30.201C27.6432 30.2372 27.5695 30.2614 27.4934 30.2783C27.4197 30.2952 27.3721 30.3025 27.2746 30.3194C27.1938 30.3339 27.1106 30.3412 27.0274 30.3484C26.6707 30.375 26.3189 30.3895 25.9622 30.3533C25.7411 30.3291 25.52 30.3025 25.3013 30.2614C25.0374 30.2131 24.4786 30.0946 24.1672 29.906L23.9627 30.0221C23.6417 30.2445 23.0521 30.4911 22.976 30.5177C22.6669 30.6168 22.3412 30.6724 22.0155 30.6724ZM19.5642 29.2654C19.7639 29.4419 20.2038 29.8214 20.2537 29.8553C20.6317 30.1043 20.9717 30.2662 21.3236 30.3605C21.83 30.4983 22.3888 30.479 22.9166 30.3025C22.9855 30.2807 23.5942 30.0221 23.8723 29.8166L23.8105 29.6909C23.5799 29.2195 23.2613 28.574 23.0996 28.0978C23.064 27.9962 23.0307 27.8995 22.9974 27.8101C22.8167 27.3048 22.6764 26.9035 22.6764 26.1976V25.5957L24.0792 29.3984C24.1125 29.4661 24.1434 29.5434 24.1695 29.6208H24.1719C24.2837 29.7827 24.8567 29.952 25.3417 30.0414C26.1619 30.1913 26.9085 30.1937 27.4958 30.0414C27.3198 29.8988 27.0488 29.6159 26.5947 29.0648L26.5614 29.0261C26.2238 28.6175 25.9194 28.1606 25.6555 27.6675C25.0706 26.5723 24.7473 25.3975 24.5072 24.3942C24.0459 22.4675 24.0221 19.4674 25.4724 17.3521C25.8505 16.8009 26.3521 16.2715 26.8823 15.8581C27.0155 15.7542 28.7535 14.7799 29.2528 14.6639C29.1719 14.1707 28.7559 14.0619 28.4064 14.0619C28.0545 14.0619 27.6289 14.1731 27.2937 14.3545C26.6874 14.6808 26.4829 14.4947 26.0811 14.1055L26.0407 14.0668C25.9075 13.9387 25.7982 13.8758 25.7031 13.8758C25.5652 13.8758 25.4154 14.0088 25.2371 14.1852C25.0207 14.3956 24.8091 14.4995 24.5904 14.4995C24.3265 14.4995 24.0935 14.3472 23.87 14.1997C23.6156 14.0329 23.354 13.8589 23.0331 13.8976C22.743 13.9314 22.5861 14.1466 22.4197 14.3762C22.2556 14.601 22.0868 14.8355 21.7872 14.8355C21.6351 14.8355 21.4639 14.7727 21.2665 14.6446C21.2024 14.601 21.1405 14.5599 21.0811 14.5213C20.6983 14.265 20.4463 14.0934 20.0207 14.0934C19.9446 14.0934 19.8614 14.0982 19.7758 14.1103C19.4263 14.1562 19.2004 14.2529 19.0198 14.4318C18.9318 14.5213 18.8747 14.6397 18.8153 14.7654C18.7772 14.8476 18.7368 14.9322 18.6845 15.012C19.1648 15.788 19.4334 16.7187 19.519 17.2917C19.6664 18.2828 19.4239 18.8244 19.1933 19.3489L19.0174 19.7454L18.4182 15.1933C18.1852 15.0579 17.976 14.9081 17.7739 14.7654C17.2984 14.427 16.849 14.1079 16.1786 14.0547C15.8814 14.0305 15.5675 14.0088 15.2585 14.0088C14.9898 14.0088 14.752 14.0257 14.5309 14.0619C14.4002 14.091 13.5276 14.4318 13.3564 14.5986C13.7939 14.9467 14.2789 15.2465 14.7473 15.5342L14.9565 15.6623C15.4439 15.9645 15.9598 16.2957 16.4235 16.7091C17.4387 17.6108 18.0117 18.9283 18.1781 20.7366C18.2661 21.6963 18.3469 22.8132 18.1947 23.8938C18.0545 24.897 17.8405 26.0526 17.403 26.9664L18.4967 25.9583C18.6061 25.8568 18.7535 25.7407 18.8723 25.644L19.462 25.1702L18.6821 26.3548C18.5062 26.5167 18.3731 26.6449 18.2328 26.8479C18.0901 27.0558 17.8571 27.2323 17.6883 27.3629C17.5076 27.5007 17.3079 27.5732 17.0297 27.6046C16.9085 27.7714 16.773 27.9213 16.6255 28.0518C16.3759 28.2718 16.1263 28.5136 15.8861 28.7457C15.5652 29.0551 15.2371 29.3742 14.8923 29.657C15.0041 29.6981 15.1586 29.7634 15.3821 29.8553C15.5319 29.9181 15.6745 29.9786 15.7197 29.9906C16.2951 30.1647 16.792 30.2421 17.2604 30.2251C17.7739 30.2058 18.1733 29.9278 18.5989 29.6304C18.8343 29.4661 19.0768 29.2968 19.3431 29.1735L20.539 24.5586V25.3999C20.539 26.2315 20.4843 26.5917 20.4059 27.0123C20.3583 27.271 20.2299 27.6022 20.1158 27.8971C20.054 28.0543 19.9969 28.2041 19.9589 28.3274C19.8899 28.5426 19.821 28.6901 19.7306 28.8786C19.6878 28.9922 19.6308 29.1131 19.5642 29.2654ZM22.9855 27.0486C23.0402 27.2807 23.1163 27.4934 23.2043 27.74C23.2375 27.8318 23.2708 27.9285 23.3065 28.0301C23.3921 28.2839 23.5252 28.5885 23.6655 28.8907L22.9855 27.0486ZM20.287 26.4128L19.9185 27.8343C19.9208 27.8294 19.9208 27.8246 19.9232 27.8222C20.0326 27.5369 20.1586 27.213 20.2014 26.9761C20.2347 26.7948 20.2656 26.6207 20.287 26.4128ZM18.2423 26.4974L17.3578 27.3121C17.4339 27.2807 17.5005 27.242 17.5647 27.1936C17.7216 27.0728 17.938 26.9084 18.0616 26.7295C18.121 26.64 18.1805 26.5651 18.2423 26.4974ZM18.6774 15.4206L19.1339 18.9476C19.3027 18.527 19.4216 18.0653 19.3122 17.3207C19.2409 16.8396 19.0364 16.0975 18.6774 15.4206ZM24.4144 28.2646C24.3265 28.0639 24.2813 27.8609 24.2385 27.665L24.2052 27.5152L24.1315 27.2565C24.1267 27.2347 24.1196 27.2154 24.1125 27.1936C24.0507 27.0244 23.9698 26.8769 23.8914 26.7319C23.801 26.5651 23.7083 26.391 23.6393 26.1831C23.3778 25.3854 23.2019 24.694 23.2019 23.9155V23.1323L24.3479 27.2396C24.3716 27.3121 24.393 27.3895 24.4097 27.4644L24.6118 28.1872L24.4144 28.2646ZM21.849 21.1306L22.4529 19.7793C22.5124 19.552 22.5528 19.274 22.5956 19.0057C22.6408 18.7083 22.6836 18.4279 22.7525 18.2466C22.9522 17.7196 23.3873 17.3981 23.8058 17.0886C24.0174 16.9339 24.2147 16.7864 24.3859 16.6148L24.9327 16.066L22.8167 19.8663C22.7335 20.154 22.3507 20.9203 22.0987 21.0267L21.849 21.1306ZM24.0792 17.1563C24.0293 17.1926 23.9793 17.2312 23.9294 17.2675C23.5157 17.5721 23.1258 17.8598 22.9499 18.3264C22.8904 18.4835 22.85 18.7543 22.8048 19.0395C22.7763 19.2329 22.7454 19.4287 22.7073 19.6173L24.0792 17.1563ZM24.7806 16.5955L24.9351 16.0926C25.0564 15.6962 25.4178 14.7678 26.1239 14.7267L26.3759 14.7122L24.7806 16.5955ZM25.7768 15.087C25.6484 15.1836 25.5271 15.3263 25.4178 15.51L25.7768 15.087Z" fill="#212121"/>
<path d="M14.7639 30.2443C15.8196 32.2 18.7963 32.6327 20.7506 32.6811C21.4972 32.7004 22.2509 32.6521 22.9903 32.5554C23.3849 32.5022 23.7582 32.3886 24.1648 32.2725C24.8614 32.0719 25.558 31.8519 26.2166 31.5425C26.8039 31.2644 27.636 30.9792 27.812 30.2177C27.4957 30.7471 24.9446 30.4449 24.5595 30.2564C24.3193 30.1379 24.3431 30.0968 24.1458 30.2902C23.5347 30.8922 22.4577 31.0855 21.6588 30.9357C21.0145 30.8148 20.1443 30.3047 19.626 29.8962C19.4263 29.7366 19.5214 29.6568 19.2432 29.7898C18.6203 30.0847 18.1781 30.4812 17.4624 30.5996C16.7159 30.7229 16.0216 30.5875 15.1895 30.2128C14.9827 30.121 14.8994 30.1089 14.6641 29.9493L14.7639 30.2443Z" fill="#212121"/>
<path d="M13.2161 14.2916C14.4691 12.5631 16.5328 11.9418 18.4753 11.3955C19.4644 11.1174 20.287 10.9458 21.3307 10.9458C22.2413 10.9458 23.1282 11.1634 24.015 11.3447C24.9066 11.526 25.8196 11.6686 26.6089 12.157C27.1177 12.4712 27.7169 12.638 28.2257 12.9596C28.3968 13.0683 28.9984 13.2134 28.9223 13.4769C28.8129 13.8516 27.9237 13.4986 27.6432 13.6437C27.3388 13.8008 26.937 14.0933 26.5899 13.9918C26.257 13.8951 26.1619 13.4962 25.7887 13.4576C25.218 13.3995 25.1039 14.016 24.5333 13.9725C24.1006 13.9386 23.6037 13.3899 23.1662 13.4189C22.7525 13.4455 22.3032 13.8975 21.9965 14.1272C21.433 14.5527 21.1905 13.9604 20.7078 13.7646C20.4201 13.6485 20.3084 13.6147 19.9922 13.6147C19.2004 13.6147 18.7178 13.9725 18.2684 14.6107C18.4206 14.3931 17.4173 13.912 17.3174 13.883C16.8966 13.7646 16.4591 13.5857 16.024 13.5784C14.9256 13.5591 14.1505 13.5905 13.2161 14.2916Z" fill="#212121"/>
<path d="M21.4044 5.01087C21.1881 4.71835 20.9218 4.83439 20.5818 4.85131C20.3987 5.36865 20.5675 5.80863 20.6603 6.24619C20.7625 6.72969 20.8505 7.22527 20.9361 7.67975C21.0288 8.16083 21.0645 8.66366 21.0906 9.19309C21.1025 9.45176 21.1144 9.74427 21.0597 9.99085C21.0098 10.2133 20.86 10.3631 20.8196 10.5807C21.2499 10.5686 21.7135 10.5783 22.1534 10.5541C22.1558 10.3341 22.0131 10.1166 21.9608 9.90866C21.9014 9.66933 21.9394 9.43967 21.9132 9.19309C21.8704 8.78212 21.7706 8.3784 21.7254 7.94084C21.6232 6.97385 21.4639 6.00203 21.4044 5.01087Z" fill="#212121"/>
<path d="M29.0364 6.81439C27.8572 6.83372 26.5661 6.89174 25.4748 7.51545C24.9637 7.80555 24.5999 8.17059 24.122 8.52837C23.8819 8.70968 23.637 8.86923 23.3564 9.01186C23.0735 9.1545 22.7383 9.17867 22.4767 9.33822L22.6146 9.65975C22.9689 9.55821 23.045 9.49778 23.4087 9.47602C23.7678 9.45426 24.1101 9.39382 24.5024 9.4325C24.8709 9.46877 25.2989 9.46151 25.6508 9.55821C26.0621 9.67183 26.5852 9.67183 27.006 9.70568C27.8453 9.77095 28.8748 9.58481 29.714 9.40591C30.3179 9.27537 31.1239 9.01186 31.5876 8.55013C31.7825 8.35431 31.8847 8.16333 32.1177 7.94334C32.3389 7.73302 32.6812 7.31238 32.8453 7.06822C33.007 6.82647 33.1544 6.67901 33.3065 6.41792C33.4397 6.19068 33.6917 5.71444 33.6964 5.42676C32.5552 6.73219 30.5937 6.78779 29.0364 6.81439Z" fill="#212121"/>
<path d="M38.4723 24.476C38.389 25.6765 37.9623 26.6216 37.1923 27.3113C36.4273 28.001 35.417 28.3458 34.1615 28.3458C32.7884 28.3458 31.707 27.8656 30.9174 26.9052C30.1328 25.9396 29.7404 24.6165 29.7404 22.9357V22.2537C29.7404 21.1808 29.9219 20.2357 30.2848 19.4183C30.6477 18.6009 31.1651 17.9751 31.837 17.5409C32.5137 17.1015 33.2984 16.8818 34.191 16.8818C35.4268 16.8818 36.4224 17.2267 37.1776 17.9164C37.9329 18.606 38.3693 19.5741 38.487 20.8207H36.2801C36.2262 20.1003 36.0325 19.5792 35.699 19.2574C35.3704 18.9304 34.8677 18.767 34.191 18.767C33.4553 18.767 32.9036 19.0428 32.5358 19.5946C32.1729 20.1412 31.9865 20.9918 31.9767 22.1464V22.9893C31.9767 24.195 32.1508 25.0762 32.499 25.6331C32.8521 26.1899 33.4063 26.4684 34.1615 26.4684C34.8432 26.4684 35.3508 26.3074 35.6843 25.9856C36.0227 25.6586 36.2164 25.1554 36.2654 24.476H38.4723Z" fill="#212121"/>
<path d="M48.7196 22.8667C48.7196 23.9651 48.5333 24.9281 48.1605 25.7557C47.7878 26.5833 47.2533 27.2219 46.5569 27.6715C45.8654 28.121 45.0709 28.3458 44.1734 28.3458C43.2858 28.3458 42.4938 28.1236 41.7974 27.6791C41.101 27.2347 40.5615 26.6012 40.179 25.7787C39.7965 24.9511 39.6027 24.0008 39.5978 22.928V22.3763C39.5978 21.2779 39.7866 20.3123 40.1643 19.4796C40.5468 18.6418 41.0838 18.0006 41.7753 17.5562C42.4717 17.1066 43.2662 16.8818 44.1587 16.8818C45.0513 16.8818 45.8433 17.1066 46.5348 17.5562C47.2312 18.0006 47.7682 18.6418 48.1458 19.4796C48.5284 20.3123 48.7196 21.2753 48.7196 22.3686V22.8667ZM46.4833 22.3609C46.4833 21.191 46.2822 20.3021 45.8801 19.6942C45.478 19.0863 44.9042 18.7823 44.1587 18.7823C43.4182 18.7823 42.8469 19.0837 42.4447 19.6865C42.0426 20.2842 41.839 21.163 41.8341 22.3226V22.8667C41.8341 24.006 42.0352 24.8898 42.4374 25.5181C42.8395 26.1465 43.4182 26.4607 44.1734 26.4607C44.914 26.4607 45.4829 26.1593 45.8801 25.5565C46.2773 24.9485 46.4784 24.0647 46.4833 22.905V22.3609Z" fill="#212121"/>
<path d="M54.2883 24.1081H52.5302V28.1926H50.3233V17.0351H54.303C55.5683 17.0351 56.5442 17.3288 57.2308 17.9164C57.9174 18.5039 58.2607 19.334 58.2607 20.4069C58.2607 21.1681 58.1013 21.8041 57.7826 22.315C57.4687 22.8207 56.9905 23.2243 56.3481 23.5257L58.6653 28.0853V28.1926H56.2966L54.2883 24.1081ZM52.5302 22.246H54.3104C54.8646 22.246 55.2937 22.1004 55.5977 21.8092C55.9018 21.5129 56.0538 21.1068 56.0538 20.5908C56.0538 20.0646 55.9092 19.6508 55.6198 19.3494C55.3354 19.0479 54.8964 18.8972 54.303 18.8972H52.5302V22.246Z" fill="#212121"/>
<path d="M66.3894 23.3571H62.1522V26.3458H67.125V28.1926H59.9453V17.0351H67.1103V18.8972H62.1522V21.5563H66.3894V23.3571Z" fill="#212121"/>
<rect x="1.125" y="1.125" width="77.75" height="37.75" stroke="#B75400" stroke-width="2.25"/>
<rect width="190" height="40" transform="translate(80)" fill="#B75400"/>
<path d="M96.0291 22.1161C96.0291 21.8854 95.9932 21.6803 95.9214 21.5009C95.8547 21.3214 95.7343 21.1573 95.5599 21.0087C95.3856 20.86 95.1395 20.7164 94.8217 20.578C94.5089 20.4344 94.109 20.2883 93.6219 20.1396C93.0887 19.9756 92.5966 19.7936 92.1454 19.5936C91.6993 19.3885 91.3097 19.1527 90.9764 18.8861C90.6432 18.6144 90.3843 18.3042 90.1997 17.9556C90.0151 17.6018 89.9229 17.1942 89.9229 16.7328C89.9229 16.2765 90.0177 15.8612 90.2074 15.4869C90.4022 15.1127 90.6765 14.7897 91.0303 14.5179C91.3892 14.2411 91.8121 14.0283 92.2992 13.8796C92.7863 13.7258 93.3246 13.6489 93.9142 13.6489C94.7448 13.6489 95.46 13.8027 96.0598 14.1104C96.6648 14.418 97.1288 14.8307 97.4518 15.3485C97.7799 15.8663 97.944 16.438 97.944 17.0635H96.0291C96.0291 16.6943 95.9496 16.3688 95.7906 16.0868C95.6368 15.7997 95.401 15.5741 95.0831 15.41C94.7704 15.246 94.373 15.1639 93.8911 15.1639C93.4348 15.1639 93.0554 15.2332 92.7529 15.3716C92.4504 15.51 92.2249 15.6971 92.0762 15.933C91.9275 16.1688 91.8531 16.4354 91.8531 16.7328C91.8531 16.943 91.9019 17.1353 91.9993 17.3096C92.0967 17.4788 92.2454 17.6377 92.4453 17.7864C92.6453 17.9299 92.8965 18.0658 93.199 18.194C93.5015 18.3221 93.8578 18.4452 94.2679 18.5631C94.8883 18.7477 95.4292 18.9528 95.8906 19.1783C96.3521 19.3988 96.7366 19.65 97.0442 19.932C97.3518 20.214 97.5825 20.5344 97.7363 20.8933C97.8901 21.2471 97.967 21.6495 97.967 22.1007C97.967 22.5724 97.8722 22.9979 97.6825 23.3773C97.4928 23.7516 97.2211 24.072 96.8673 24.3386C96.5187 24.6001 96.0983 24.8026 95.6061 24.9462C95.119 25.0846 94.5756 25.1538 93.9757 25.1538C93.4374 25.1538 92.9067 25.082 92.3838 24.9385C91.866 24.7949 91.3943 24.577 90.9688 24.2848C90.5432 23.9874 90.2048 23.6183 89.9536 23.1774C89.7024 22.7313 89.5768 22.2109 89.5768 21.6162H91.5071C91.5071 21.9802 91.5686 22.2904 91.6917 22.5468C91.8198 22.8031 91.9967 23.0133 92.2223 23.1774C92.4479 23.3363 92.7094 23.4542 93.0067 23.5311C93.3092 23.608 93.6322 23.6465 93.9757 23.6465C94.4269 23.6465 94.8037 23.5824 95.1062 23.4542C95.4138 23.326 95.6445 23.1466 95.7983 22.9159C95.9521 22.6852 96.0291 22.4186 96.0291 22.1161ZM106.272 13.8027H108.195V21.2855C108.195 22.1366 108.01 22.8492 107.641 23.4235C107.272 23.9977 106.77 24.4309 106.134 24.7231C105.503 25.0103 104.798 25.1538 104.019 25.1538C103.214 25.1538 102.496 25.0103 101.866 24.7231C101.235 24.4309 100.738 23.9977 100.374 23.4235C100.015 22.8492 99.8355 22.1366 99.8355 21.2855V13.8027H101.758V21.2855C101.758 21.8239 101.85 22.2673 102.035 22.616C102.22 22.9595 102.481 23.2133 102.819 23.3773C103.158 23.5414 103.558 23.6234 104.019 23.6234C104.481 23.6234 104.878 23.5414 105.211 23.3773C105.549 23.2133 105.811 22.9595 105.996 22.616C106.18 22.2673 106.272 21.8239 106.272 21.2855V13.8027ZM114.862 20.8241H111.948V19.2937H114.862C115.37 19.2937 115.78 19.2117 116.093 19.0476C116.406 18.8835 116.634 18.658 116.777 18.3708C116.926 18.0786 117 17.7454 117 17.3711C117 17.0173 116.926 16.6866 116.777 16.379C116.634 16.0663 116.406 15.8151 116.093 15.6254C115.78 15.4357 115.37 15.3408 114.862 15.3408H112.54V25H110.609V13.8027H114.862C115.729 13.8027 116.464 13.9565 117.069 14.2642C117.68 14.5666 118.144 14.9871 118.461 15.5254C118.779 16.0586 118.938 16.6687 118.938 17.3557C118.938 18.0786 118.779 18.699 118.461 19.2168C118.144 19.7346 117.68 20.132 117.069 20.4088C116.464 20.6857 115.729 20.8241 114.862 20.8241ZM125.236 20.8241H122.322V19.2937H125.236C125.744 19.2937 126.154 19.2117 126.467 19.0476C126.78 18.8835 127.008 18.658 127.151 18.3708C127.3 18.0786 127.374 17.7454 127.374 17.3711C127.374 17.0173 127.3 16.6866 127.151 16.379C127.008 16.0663 126.78 15.8151 126.467 15.6254C126.154 15.4357 125.744 15.3408 125.236 15.3408H122.914V25H120.984V13.8027H125.236C126.103 13.8027 126.839 13.9565 127.444 14.2642C128.054 14.5666 128.518 14.9871 128.836 15.5254C129.153 16.0586 129.312 16.6687 129.312 17.3557C129.312 18.0786 129.153 18.699 128.836 19.2168C128.518 19.7346 128.054 20.132 127.444 20.4088C126.839 20.6857 126.103 20.8241 125.236 20.8241ZM140.286 19.0937V19.709C140.286 20.5549 140.176 21.3137 139.956 21.9854C139.735 22.657 139.42 23.2286 139.01 23.7003C138.605 24.172 138.118 24.5334 137.548 24.7847C136.979 25.0308 136.349 25.1538 135.657 25.1538C134.97 25.1538 134.342 25.0308 133.772 24.7847C133.208 24.5334 132.719 24.172 132.304 23.7003C131.888 23.2286 131.565 22.657 131.335 21.9854C131.109 21.3137 130.996 20.5549 130.996 19.709V19.0937C130.996 18.2478 131.109 17.4916 131.335 16.8251C131.56 16.1534 131.878 15.5818 132.288 15.1101C132.703 14.6333 133.193 14.2718 133.757 14.0258C134.326 13.7745 134.954 13.6489 135.641 13.6489C136.333 13.6489 136.964 13.7745 137.533 14.0258C138.102 14.2718 138.592 14.6333 139.002 15.1101C139.412 15.5818 139.727 16.1534 139.948 16.8251C140.173 17.4916 140.286 18.2478 140.286 19.0937ZM138.356 19.709V19.0784C138.356 18.4529 138.294 17.9017 138.171 17.4249C138.053 16.943 137.877 16.5405 137.641 16.2175C137.41 15.8894 137.125 15.6433 136.787 15.4792C136.449 15.3101 136.067 15.2255 135.641 15.2255C135.216 15.2255 134.836 15.3101 134.503 15.4792C134.17 15.6433 133.885 15.8894 133.649 16.2175C133.419 16.5405 133.242 16.943 133.119 17.4249C132.996 17.9017 132.934 18.4529 132.934 19.0784V19.709C132.934 20.3345 132.996 20.8882 133.119 21.3701C133.242 21.8521 133.421 22.2596 133.657 22.5929C133.898 22.921 134.185 23.1697 134.518 23.3389C134.852 23.5029 135.231 23.585 135.657 23.585C136.087 23.585 136.469 23.5029 136.802 23.3389C137.136 23.1697 137.418 22.921 137.648 22.5929C137.879 22.2596 138.053 21.8521 138.171 21.3701C138.294 20.8882 138.356 20.3345 138.356 19.709ZM142.532 13.8027H146.492C147.343 13.8027 148.069 13.9309 148.669 14.1873C149.268 14.4436 149.727 14.823 150.045 15.3254C150.368 15.8228 150.53 16.438 150.53 17.1711C150.53 17.73 150.427 18.2222 150.222 18.6477C150.017 19.0732 149.727 19.4321 149.353 19.7244C148.979 20.0115 148.533 20.2345 148.015 20.3934L147.43 20.678H143.87L143.854 19.1476H146.523C146.984 19.1476 147.369 19.0656 147.676 18.9015C147.984 18.7374 148.215 18.5144 148.369 18.2324C148.528 17.9453 148.607 17.6223 148.607 17.2634C148.607 16.8738 148.53 16.5354 148.376 16.2483C148.228 15.9561 147.997 15.733 147.684 15.5792C147.371 15.4203 146.974 15.3408 146.492 15.3408H144.462V25H142.532V13.8027ZM148.922 25L146.292 19.9705L148.315 19.9628L150.983 24.9V25H148.922ZM156.851 13.8027V25H154.936V13.8027H156.851ZM160.365 13.8027V15.3408H151.452V13.8027H160.365ZM164.218 13.8027V25H162.288V13.8027H164.218ZM175.815 13.8027V25H173.885L168.863 16.9789V25H166.932V13.8027H168.863L173.9 21.8392V13.8027H175.815ZM187.027 19.2783V23.5542C186.868 23.7644 186.62 23.9951 186.281 24.2463C185.948 24.4924 185.504 24.7052 184.951 24.8846C184.397 25.0641 183.707 25.1538 182.882 25.1538C182.18 25.1538 181.536 25.0359 180.952 24.8C180.367 24.5591 179.862 24.2079 179.437 23.7465C179.016 23.285 178.691 22.7236 178.46 22.0623C178.229 21.3958 178.114 20.637 178.114 19.7859V19.0092C178.114 18.1632 178.219 17.4095 178.429 16.7482C178.645 16.0817 178.952 15.5177 179.352 15.0563C179.752 14.5948 180.234 14.2462 180.798 14.0104C181.367 13.7694 182.01 13.6489 182.728 13.6489C183.646 13.6489 184.405 13.8027 185.005 14.1104C185.61 14.4128 186.076 14.8333 186.404 15.3716C186.732 15.9099 186.94 16.5251 187.027 17.2173H185.135C185.074 16.8276 184.953 16.479 184.774 16.1714C184.6 15.8638 184.348 15.6228 184.02 15.4485C183.697 15.269 183.277 15.1793 182.759 15.1793C182.313 15.1793 181.921 15.2639 181.582 15.4331C181.244 15.6023 180.962 15.851 180.736 16.1791C180.516 16.5072 180.349 16.9071 180.236 17.3788C180.124 17.8505 180.067 18.3888 180.067 18.9938V19.7859C180.067 20.4011 180.131 20.9471 180.26 21.4239C180.393 21.9008 180.583 22.3032 180.829 22.6313C181.08 22.9595 181.385 23.2081 181.744 23.3773C182.103 23.5414 182.508 23.6234 182.959 23.6234C183.4 23.6234 183.761 23.5875 184.043 23.5157C184.325 23.4388 184.548 23.3491 184.712 23.2466C184.882 23.1389 185.012 23.0364 185.105 22.939V20.7164H182.774V19.2783H187.027ZM194.502 13.8027H196.224L199.462 22.4391L202.692 13.8027H204.415L200.139 25H198.77L194.502 13.8027ZM193.717 13.8027H195.355L195.64 21.2778V25H193.717V13.8027ZM203.561 13.8027H205.207V25H203.276V21.2778L203.561 13.8027ZM215.142 23.4696V25H209.198V23.4696H215.142ZM209.744 13.8027V25H207.813V13.8027H209.744ZM214.366 18.4785V19.9858H209.198V18.4785H214.366ZM215.104 13.8027V15.3408H209.198V13.8027H215.104ZM217.818 13.8027H219.541L222.779 22.4391L226.009 13.8027H227.731L223.455 25H222.087L217.818 13.8027ZM217.034 13.8027H218.672L218.957 21.2778V25H217.034V13.8027ZM226.878 13.8027H228.523V25H226.593V21.2778L226.878 13.8027ZM235.329 19.9397H232.476L232.461 18.5323H234.952C235.373 18.5323 235.729 18.4708 236.021 18.3478C236.319 18.2196 236.544 18.0376 236.698 17.8018C236.852 17.5608 236.929 17.2711 236.929 16.9327C236.929 16.5585 236.857 16.2534 236.713 16.0176C236.57 15.7817 236.349 15.61 236.052 15.5023C235.76 15.3947 235.386 15.3408 234.929 15.3408H233.061V25H231.13V13.8027H234.929C235.545 13.8027 236.093 13.8617 236.575 13.9796C237.062 14.0975 237.475 14.2821 237.813 14.5333C238.157 14.7794 238.416 15.0922 238.59 15.4716C238.769 15.851 238.859 16.3021 238.859 16.8251C238.859 17.2865 238.749 17.7095 238.528 18.094C238.308 18.4734 237.982 18.7836 237.552 19.0245C237.121 19.2655 236.585 19.4091 235.944 19.4552L235.329 19.9397ZM235.245 25H231.869L232.738 23.4696H235.245C235.68 23.4696 236.044 23.3978 236.337 23.2543C236.629 23.1056 236.847 22.9031 236.99 22.6467C237.139 22.3853 237.213 22.0802 237.213 21.7316C237.213 21.3676 237.149 21.0522 237.021 20.7856C236.893 20.5139 236.69 20.3063 236.414 20.1627C236.137 20.014 235.775 19.9397 235.329 19.9397H233.161L233.176 18.5323H235.998L236.437 19.063C237.052 19.0835 237.557 19.2194 237.952 19.4706C238.352 19.7218 238.649 20.0474 238.844 20.4473C239.039 20.8472 239.136 21.2778 239.136 21.7393C239.136 22.4519 238.98 23.0492 238.667 23.5311C238.359 24.0131 237.916 24.3796 237.336 24.6309C236.757 24.877 236.06 25 235.245 25ZM248.726 23.4696V25H242.781V23.4696H248.726ZM243.327 13.8027V25H241.397V13.8027H243.327ZM247.949 18.4785V19.9858H242.781V18.4785H247.949ZM248.687 13.8027V15.3408H242.781V13.8027H248.687ZM250.617 13.8027H254.578C255.429 13.8027 256.154 13.9309 256.754 14.1873C257.354 14.4436 257.813 14.823 258.131 15.3254C258.454 15.8228 258.615 16.438 258.615 17.1711C258.615 17.73 258.513 18.2222 258.308 18.6477C258.103 19.0732 257.813 19.4321 257.439 19.7244C257.064 20.0115 256.618 20.2345 256.1 20.3934L255.516 20.678H251.955L251.94 19.1476H254.608C255.07 19.1476 255.454 19.0656 255.762 18.9015C256.07 18.7374 256.3 18.5144 256.454 18.2324C256.613 17.9453 256.693 17.6223 256.693 17.2634C256.693 16.8738 256.616 16.5354 256.462 16.2483C256.313 15.9561 256.082 15.733 255.77 15.5792C255.457 15.4203 255.06 15.3408 254.578 15.3408H252.547V25H250.617V13.8027ZM257.008 25L254.378 19.9705L256.4 19.9628L259.069 24.9V25H257.008Z" fill="white"/>
</g>
<defs>
<clipPath id="clip0_44_1871">
<rect width="270" height="40" rx="1.5" fill="white"/>
</clipPath>
</defs>
</svg>
