<svg width="130" height="90" viewBox="0 0 130 90" fill="none" xmlns="http://www.w3.org/2000/svg">
<g clip-path="url(#clip0_44_1860)">
<rect x="1.80841" y="1.80841" width="126.383" height="59.3832" fill="white"/>
<path d="M35.3894 49.3054C34.9804 49.3054 34.5791 49.251 34.1931 49.1461C33.5931 48.9829 33.0122 48.7109 32.3739 48.2912C32.2784 48.229 31.6707 47.7005 31.3306 47.4052L31.3229 47.3974C31.2579 47.343 31.2044 47.2964 31.1662 47.2614C30.7955 47.444 30.4439 47.6888 30.0999 47.9298C29.4081 48.4155 28.6896 48.9129 27.7686 48.9479C26.9774 48.979 26.1405 48.8508 25.1812 48.5593C25.0971 48.536 24.9098 48.4544 24.6041 48.33C24.2639 48.1863 23.7518 48.0075 23.5836 47.9375C23.5683 47.9298 23.5034 47.8909 23.4804 47.821C23.4575 47.7549 23.4575 47.65 23.469 47.6267C24.1034 47.1331 24.7149 46.5425 25.3073 45.9673C25.6971 45.5904 26.1022 45.1979 26.5073 44.8404C26.6488 44.716 26.7787 44.58 26.9048 44.4324L27.1112 44.1642C28.2043 42.6487 28.6629 40.1927 28.919 38.3663C29.1597 36.6642 29.0298 34.896 28.8884 33.3727C28.6285 30.5592 27.7456 28.5191 26.1825 27.1279C25.4563 26.4828 24.6423 25.9582 23.8703 25.4802L23.5339 25.2743C22.7466 24.7885 21.9364 24.2872 21.1988 23.6926C21.1147 23.6266 21.0803 23.5217 21.107 23.4206C21.2293 22.9388 23.2932 22.2626 23.3123 22.2587C23.683 22.2004 24.0843 22.1693 24.5353 22.1693C25.0474 22.1693 25.5595 22.2082 26.0411 22.2432C27.2144 22.3364 27.9711 22.8766 28.7775 23.4517C29.0604 23.6538 29.3508 23.8597 29.668 24.054L29.6986 24.0191C29.7942 23.8947 29.863 23.7432 29.9394 23.5838C30.0426 23.3623 30.1496 23.1331 30.3369 22.9465C30.7802 22.5074 31.3229 22.3869 31.751 22.3325C31.9077 22.3131 32.0491 22.3014 32.1905 22.3014C32.9778 22.3014 33.467 22.6279 34.0823 23.0476C34.1778 23.1097 34.2734 23.1758 34.3766 23.2457C34.6326 23.4128 34.8505 23.4983 35.0263 23.4983C35.3206 23.4983 35.4964 23.2729 35.7677 22.9038C36.0544 22.5113 36.3754 22.0683 36.9907 21.9944C37.6252 21.9206 38.1258 22.247 38.5615 22.5346C38.894 22.7522 39.2112 22.9621 39.5323 22.9621C39.7883 22.9621 40.0521 22.8299 40.3349 22.554C40.6827 22.2159 40.9731 21.9595 41.3247 21.9595C41.5732 21.9595 41.8216 22.0877 42.1044 22.3636L42.1694 22.4258C42.7809 23.0204 42.949 23.1875 43.7172 22.7717C44.302 22.4569 45.0472 22.2587 45.6664 22.2587C46.7212 22.2587 47.3748 22.8144 47.413 23.7742L47.3174 23.8014L47.1493 23.8559C47.0728 23.8869 47.0308 23.8947 46.962 23.9258C46.1441 24.1784 43.6714 25.5812 43.4229 25.7755C42.5936 26.4167 41.8139 27.2406 41.2292 28.0955C38.9628 31.3986 39.0049 36.1046 39.731 39.1318C40.1132 40.7251 40.6253 42.5826 41.5464 44.3119C41.9553 45.0813 42.4331 45.7963 42.9605 46.4375L43.014 46.5036C44.279 48.0464 44.558 48.1085 44.6383 48.1901C44.688 48.2407 44.7224 48.2756 44.73 48.3223C44.7415 48.4233 44.6307 48.501 44.5466 48.5477C44.4357 48.6059 44.3173 48.6448 44.195 48.672C44.0765 48.6992 44.0001 48.7109 43.8434 48.7381C43.7134 48.7614 43.5796 48.773 43.4459 48.7847C42.8726 48.8274 42.307 48.8508 41.7337 48.7925C41.3782 48.7536 41.0228 48.7109 40.6712 48.6448C40.247 48.5671 39.3488 48.3767 38.8482 48.0736L38.5195 48.2601C38.0035 48.6176 37.0557 49.014 36.9334 49.0567C36.4366 49.216 35.913 49.3054 35.3894 49.3054ZM31.449 47.0438C31.7701 47.3274 32.4771 47.9375 32.5574 47.992C33.165 48.3922 33.7116 48.6526 34.2772 48.8041C35.0913 49.0256 35.9894 48.9945 36.8379 48.7109C36.9487 48.6759 37.9271 48.2601 38.3743 47.9298L38.2749 47.7277C37.9042 46.9699 37.392 45.9324 37.1321 45.1668C37.0748 45.0036 37.0213 44.8482 36.9678 44.7044C36.6773 43.8922 36.4519 43.2471 36.4519 42.1124V41.1448L38.7068 47.2575C38.7603 47.3663 38.8099 47.4907 38.852 47.615H38.8558C39.0354 47.8754 39.9565 48.1474 40.7362 48.2912C42.0547 48.5321 43.2548 48.536 44.1988 48.2912C43.916 48.0619 43.4803 47.6072 42.7503 46.7212L42.6968 46.659C42.1541 46.0023 41.6649 45.2678 41.2407 44.4751C40.3005 42.7147 39.7807 40.8261 39.3947 39.2134C38.6533 36.1163 38.615 31.2937 40.9464 27.8934C41.5541 27.0074 42.3605 26.1564 43.2127 25.4919C43.4268 25.3248 46.2206 23.7587 47.0231 23.5722C46.8932 22.7794 46.2244 22.6046 45.6626 22.6046C45.0969 22.6046 44.4128 22.7833 43.8739 23.0748C42.8994 23.5994 42.5707 23.3002 41.9248 22.6745L41.8598 22.6123C41.6458 22.4064 41.47 22.3053 41.3171 22.3053C41.0954 22.3053 40.8547 22.5191 40.568 22.8027C40.2202 23.1408 39.8801 23.3079 39.5285 23.3079C39.1042 23.3079 38.7297 23.0631 38.3704 22.8261C37.9615 22.5579 37.5411 22.2781 37.0251 22.3403C36.5589 22.3947 36.3066 22.7406 36.0391 23.1097C35.7754 23.4711 35.504 23.8481 35.0225 23.8481C34.7779 23.8481 34.5027 23.747 34.1855 23.5411C34.0823 23.4711 33.9829 23.4051 33.8874 23.3429C33.2721 22.931 32.8669 22.6551 32.1828 22.6551C32.0605 22.6551 31.9268 22.6628 31.7892 22.6823C31.2274 22.7561 30.8643 22.9115 30.5738 23.1991C30.4324 23.3429 30.3407 23.5333 30.2451 23.7354C30.184 23.8675 30.119 24.0035 30.0349 24.1318C30.807 25.3792 31.2388 26.8753 31.3764 27.7963C31.6134 29.3896 31.2235 30.26 30.8528 31.1033L30.57 31.7406L29.6069 24.4232C29.2323 24.2056 28.896 23.9647 28.5712 23.7354C27.8068 23.1913 27.0845 22.6784 26.0067 22.5929C25.529 22.554 25.0245 22.5191 24.5276 22.5191C24.0957 22.5191 23.7136 22.5463 23.3581 22.6046C23.1479 22.6512 21.7453 23.1991 21.4701 23.4673C22.1733 24.0268 22.953 24.5087 23.7059 24.9711L24.0422 25.1771C24.8257 25.6629 25.6551 26.1952 26.4003 26.8597C28.0323 28.3092 28.9533 30.4271 29.2209 33.3339C29.3623 34.8766 29.4922 36.672 29.2476 38.409C29.0221 40.0217 28.6782 41.8792 27.9749 43.3482L29.733 41.7277C29.9088 41.5645 30.1458 41.3779 30.3369 41.2225L31.2847 40.4608L30.0311 42.365C29.7483 42.6254 29.5343 42.8313 29.3088 43.1577C29.0795 43.4919 28.7049 43.7756 28.4336 43.9855C28.1431 44.207 27.8221 44.3235 27.3749 44.3741C27.18 44.6422 26.9622 44.8831 26.7252 45.093C26.3239 45.4466 25.9226 45.8352 25.5366 46.2083C25.0206 46.7057 24.4932 47.2186 23.9391 47.6733C24.1187 47.7394 24.3671 47.8443 24.7264 47.992C24.9671 48.093 25.1964 48.1901 25.2691 48.2096C26.194 48.4894 26.9927 48.6137 27.7456 48.5865C28.5712 48.5554 29.2132 48.1085 29.8973 47.6306C30.2757 47.3663 30.6655 47.0943 31.0936 46.8961L33.016 39.4777V40.83C33.016 42.1668 32.9281 42.7458 32.802 43.422C32.7255 43.8378 32.5192 44.3702 32.3357 44.8443C32.2363 45.0969 32.1446 45.3378 32.0835 45.536C31.9726 45.8818 31.8618 46.1189 31.7166 46.422C31.6478 46.6046 31.556 46.7989 31.449 47.0438ZM36.9487 43.4803C37.0366 43.8533 37.1589 44.1953 37.3003 44.5917C37.3538 44.7393 37.4073 44.8948 37.4647 45.058C37.6022 45.466 37.8163 45.9557 38.0418 46.4414L36.9487 43.4803ZM32.6109 42.4583L32.0185 44.7432C32.0223 44.7355 32.0223 44.7277 32.0261 44.7238C32.2019 44.2653 32.4045 43.7445 32.4733 43.3637C32.5268 43.0722 32.5765 42.7924 32.6109 42.4583ZM29.3241 42.5943L27.9023 43.9039C28.0246 43.8533 28.1316 43.7912 28.2348 43.7134C28.4871 43.5191 28.8349 43.2549 29.0336 42.9673C29.1292 42.8235 29.2247 42.7031 29.3241 42.5943ZM30.0235 24.7885L30.7573 30.4582C31.0286 29.782 31.2197 29.0398 31.0439 27.8429C30.9293 27.0696 30.6006 25.8766 30.0235 24.7885ZM39.2456 45.4349C39.1042 45.1124 39.0316 44.786 38.9628 44.4712L38.9093 44.2303L38.7908 43.8145C38.7832 43.7795 38.7717 43.7484 38.7603 43.7134C38.6609 43.4414 38.531 43.2044 38.4048 42.9712C38.2596 42.7031 38.1105 42.4233 37.9997 42.0891C37.5793 40.8067 37.2965 39.6953 37.2965 38.444V37.1849L39.1386 43.7873C39.1768 43.9039 39.2112 44.0282 39.238 44.1487L39.5629 45.3106L39.2456 45.4349ZM35.1218 33.9673L36.0926 31.795C36.1881 31.4297 36.2531 30.9828 36.3219 30.5515C36.3945 30.0735 36.4633 29.6227 36.5742 29.3313C36.8952 28.4841 37.5946 27.9673 38.2672 27.4699C38.6074 27.2212 38.9246 26.9841 39.1998 26.7082L40.0788 25.8261L36.6773 31.9349C36.5436 32.3973 35.9283 33.6292 35.5231 33.8002L35.1218 33.9673ZM38.7068 27.5787C38.6265 27.637 38.5462 27.6991 38.466 27.7574C37.801 28.2471 37.1742 28.7095 36.8914 29.4595C36.7958 29.7121 36.7309 30.1473 36.6582 30.6059C36.6124 30.9168 36.5627 31.2315 36.5015 31.5346L38.7068 27.5787ZM39.8342 26.6771L40.0826 25.8688C40.2775 25.2315 40.8585 23.7393 41.9936 23.6732L42.3987 23.6499L39.8342 26.6771ZM41.4356 24.2522C41.2292 24.4077 41.0343 24.6369 40.8585 24.9323L41.4356 24.2522Z" fill="#212121"/>
<path d="M23.7327 48.6173C25.4296 51.7611 30.2146 52.4567 33.3561 52.5344C34.5562 52.5655 35.7677 52.4878 36.9563 52.3323C37.5908 52.2468 38.1908 52.0642 38.8443 51.8777C39.9641 51.5551 41.084 51.2015 42.1426 50.7041C43.0866 50.2572 44.4243 49.7986 44.7071 48.5745C44.1988 49.4256 40.0979 48.9398 39.4788 48.6367C39.0928 48.4463 39.131 48.3802 38.8138 48.6911C37.8315 49.6587 36.1002 49.9696 34.8161 49.7287C33.7804 49.5344 32.3816 48.7144 31.5484 48.0577C31.2273 47.8012 31.3802 47.673 30.9331 47.8867C29.9317 48.3608 29.2209 48.9981 28.0705 49.1885C26.8704 49.3867 25.7544 49.1691 24.4168 48.5668C24.0843 48.4191 23.9505 48.3997 23.5721 48.1432L23.7327 48.6173Z" fill="#212121"/>
<path d="M21.2446 22.9735C23.2588 20.195 26.5761 19.1963 29.6986 18.318C31.2885 17.8711 32.6109 17.5952 34.2887 17.5952C35.7524 17.5952 37.178 17.945 38.6036 18.2364C40.0368 18.5279 41.5044 18.7571 42.7732 19.5421C43.5911 20.0473 44.5542 20.3154 45.3721 20.8323C45.6473 21.0071 46.6142 21.2403 46.4919 21.6639C46.3161 22.2662 44.8867 21.6989 44.4357 21.932C43.9465 22.1846 43.3006 22.6548 42.7427 22.4916C42.2076 22.3362 42.0547 21.695 41.4547 21.6328C40.5374 21.5395 40.354 22.5305 39.4367 22.4605C38.7412 22.4061 37.9424 21.524 37.2392 21.5706C36.5742 21.6134 35.8518 22.3401 35.3588 22.7092C34.453 23.3932 34.0632 22.4411 33.2873 22.1263C32.8249 21.9398 32.6453 21.8854 32.137 21.8854C30.8643 21.8854 30.0884 22.4605 29.3661 23.4864C29.6107 23.1367 27.9979 22.3634 27.8374 22.3167C27.1609 22.1263 26.4577 21.8388 25.7583 21.8271C23.9926 21.796 22.7466 21.8465 21.2446 22.9735Z" fill="#212121"/>
<path d="M34.4072 8.05499C34.0594 7.58478 33.6313 7.77131 33.0848 7.79851C32.7905 8.63012 33.0619 9.33738 33.2109 10.0407C33.3753 10.818 33.5167 11.6146 33.6543 12.3452C33.8033 13.1185 33.8606 13.9268 33.9027 14.7778C33.9218 15.1936 33.9409 15.6638 33.853 16.0602C33.7727 16.4177 33.532 16.6586 33.467 17.0084C34.1587 16.989 34.904 17.0045 35.6111 16.9656C35.6149 16.612 35.3856 16.2623 35.3015 15.9281C35.2059 15.5434 35.2671 15.1742 35.225 14.7778C35.1563 14.1172 34.9957 13.4682 34.9231 12.7649C34.7588 11.2104 34.5027 9.64826 34.4072 8.05499Z" fill="#212121"/>
<path d="M46.6754 10.9537C44.7798 10.9848 42.7045 11.0781 40.9502 12.0807C40.1285 12.547 39.5438 13.1338 38.7756 13.7089C38.3896 14.0004 37.9959 14.2568 37.545 14.4861C37.0901 14.7154 36.5513 14.7543 36.1309 15.0107L36.3525 15.5276C36.922 15.3644 37.0443 15.2672 37.629 15.2322C38.2061 15.1973 38.7565 15.1001 39.3871 15.1623C39.9795 15.2206 40.6674 15.2089 41.2331 15.3644C41.8942 15.547 42.7351 15.547 43.4115 15.6014C44.7606 15.7063 46.4155 15.4071 47.7646 15.1195C48.7354 14.9097 50.031 14.4861 50.7763 13.7439C51.0897 13.4291 51.254 13.1221 51.6285 12.7685C51.984 12.4304 52.5343 11.7542 52.798 11.3618C53.0579 10.9732 53.2949 10.7361 53.5395 10.3164C53.7535 9.95113 54.1586 9.18558 54.1663 8.72314C52.3318 10.8216 49.1787 10.911 46.6754 10.9537Z" fill="#212121"/>
<path d="M61.8433 39.3446C61.7093 41.2744 61.0235 42.7937 59.7858 43.9023C58.556 45.011 56.932 45.5653 54.9139 45.5653C52.7065 45.5653 50.9682 44.7934 49.699 43.2495C48.4377 41.6974 47.807 39.5704 47.807 36.8686V35.7723C47.807 34.0477 48.0987 32.5285 48.6821 31.2145C49.2654 29.9006 50.0971 28.8946 51.1771 28.1966C52.265 27.4903 53.5264 27.1372 54.9612 27.1372C56.9478 27.1372 58.5481 27.6915 59.7621 28.8002C60.9762 29.9088 61.6778 31.465 61.867 33.4688H58.3195C58.2328 32.3109 57.9214 31.4732 57.3853 30.9559C56.8571 30.4303 56.0491 30.1675 54.9612 30.1675C53.7787 30.1675 52.8918 30.611 52.3005 31.4979C51.7172 32.3766 51.4176 33.7439 51.4018 35.5998V36.9548C51.4018 38.8929 51.6817 40.3095 52.2414 41.2046C52.809 42.0998 53.6998 42.5473 54.9139 42.5473C56.0096 42.5473 56.8256 42.2886 57.3616 41.7713C57.9056 41.2457 58.217 40.4368 58.2958 39.3446H61.8433Z" fill="#212121"/>
<path d="M78.3156 36.7578C78.3156 38.5234 78.0161 40.0714 77.4169 41.4017C76.8178 42.7321 75.9585 43.7586 74.8391 44.4813C73.7275 45.204 72.4504 45.5653 71.0078 45.5653C69.5809 45.5653 68.3077 45.2081 67.1883 44.4936C66.0688 43.7792 65.2017 42.7608 64.5868 41.4387C63.9718 40.1083 63.6605 38.5809 63.6526 36.8563V35.9694C63.6526 34.2038 63.9561 32.6517 64.5631 31.3131C65.178 29.9663 66.0412 28.9357 67.1528 28.2212C68.2722 27.4985 69.5493 27.1372 70.9841 27.1372C72.4189 27.1372 73.692 27.4985 74.8036 28.2212C75.923 28.9357 76.7863 29.9663 77.3933 31.3131C78.0082 32.6517 78.3156 34.1997 78.3156 35.9571V36.7578ZM74.7208 35.9447C74.7208 34.0642 74.3976 32.6352 73.7512 31.658C73.1047 30.6808 72.1824 30.1921 70.9841 30.1921C69.7937 30.1921 68.8753 30.6766 68.2289 31.6457C67.5824 32.6065 67.2553 34.019 67.2474 35.8832V36.7578C67.2474 38.5891 67.5706 40.0098 68.217 41.0199C68.8635 42.03 69.7937 42.535 71.0078 42.535C72.1981 42.535 73.1126 42.0505 73.7512 41.0815C74.3897 40.1042 74.7129 38.6835 74.7208 36.8193V35.9447Z" fill="#212121"/>
<path d="M87.2672 38.7533H84.441V45.3189H80.8935V27.3836H87.2908C89.3247 27.3836 90.8935 27.8558 91.9972 28.8002C93.1009 29.7446 93.6527 31.079 93.6527 32.8036C93.6527 34.0272 93.3965 35.0496 92.8841 35.8708C92.3796 36.6838 91.6109 37.3326 90.5782 37.8171L94.3031 45.1465V45.3189H90.4954L87.2672 38.7533ZM84.441 35.76H87.3027C88.1935 35.76 88.8833 35.5259 89.3721 35.0578C89.8608 34.5815 90.1052 33.9287 90.1052 33.0992C90.1052 32.2534 89.8726 31.5882 89.4075 31.1037C88.9503 30.6192 88.2447 30.3769 87.2908 30.3769H84.441V35.76Z" fill="#212121"/>
<path d="M106.719 37.5461H99.9082V42.3502H107.902V45.3189H96.3607V27.3836H107.878V30.3769H99.9082V34.6513H106.719V37.5461Z" fill="#212121"/>
<rect x="1.80841" y="1.80841" width="126.383" height="59.3832" stroke="#B75400" stroke-width="3.61682"/>
<rect width="130" height="27" transform="translate(0 63)" fill="#B75400"/>
<path d="M13.7075 77.3313C13.7075 77.1966 13.6868 77.0757 13.6454 76.9687C13.6074 76.8582 13.5349 76.758 13.4278 76.6682C13.3207 76.5749 13.1705 76.4834 12.9771 76.3936C12.7837 76.3038 12.5333 76.2106 12.2259 76.1139C11.8839 76.0033 11.5593 75.879 11.2519 75.7409C10.948 75.6027 10.6786 75.4421 10.4437 75.259C10.2123 75.0725 10.0292 74.8567 9.89455 74.6115C9.7633 74.3662 9.69768 74.0813 9.69768 73.7566C9.69768 73.4424 9.76676 73.1574 9.90491 72.9018C10.0431 72.6428 10.2365 72.4218 10.4851 72.2387C10.7338 72.0522 11.0274 71.9089 11.3659 71.8087C11.7078 71.7085 12.0825 71.6585 12.4901 71.6585C13.0461 71.6585 13.5314 71.7586 13.9459 71.9589C14.3603 72.1593 14.6815 72.4338 14.9095 72.7827C15.1409 73.1315 15.2566 73.5304 15.2566 73.9794H13.7127C13.7127 73.7584 13.6661 73.565 13.5728 73.3992C13.483 73.2299 13.3449 73.097 13.1584 73.0003C12.9753 72.9036 12.7439 72.8552 12.4642 72.8552C12.1948 72.8552 11.9703 72.8966 11.7907 72.9795C11.6111 73.059 11.4764 73.1678 11.3866 73.3059C11.2968 73.4406 11.2519 73.5926 11.2519 73.7618C11.2519 73.8896 11.283 74.0053 11.3451 74.1089C11.4108 74.2125 11.5075 74.3093 11.6353 74.3991C11.7631 74.4889 11.9202 74.5735 12.1067 74.6529C12.2932 74.7323 12.5091 74.8101 12.7543 74.886C13.1653 75.0104 13.5262 75.1503 13.8371 75.3057C14.1514 75.4611 14.4138 75.6355 14.6245 75.8289C14.8352 76.0223 14.9941 76.2417 15.1012 76.4869C15.2082 76.7321 15.2618 77.0101 15.2618 77.321C15.2618 77.6491 15.1979 77.9427 15.0701 78.2017C14.9423 78.4607 14.7575 78.68 14.5157 78.8596C14.274 79.0392 13.9856 79.1757 13.6506 79.2689C13.3155 79.3622 12.9408 79.4088 12.5263 79.4088C12.1533 79.4088 11.7855 79.3604 11.4229 79.2637C11.0602 79.1636 10.7304 79.0133 10.4333 78.813C10.1398 78.6127 9.90491 78.3571 9.72877 78.0463C9.55262 77.7354 9.46455 77.3676 9.46455 76.9428H11.0239C11.0239 77.1776 11.0602 77.3762 11.1327 77.5386C11.2053 77.7009 11.3072 77.8321 11.4384 77.9323C11.5731 78.0325 11.732 78.105 11.915 78.1499C12.1015 78.1948 12.3053 78.2172 12.5263 78.2172C12.7957 78.2172 13.0168 78.1792 13.1895 78.1033C13.3656 78.0273 13.4951 77.9219 13.578 77.7872C13.6644 77.6525 13.7075 77.5006 13.7075 77.3313ZM20.6961 71.7621H22.2451V76.7459C22.2451 77.3261 22.1208 77.8149 21.8721 78.212C21.6269 78.6092 21.2867 78.908 20.8515 79.1083C20.4198 79.3086 19.9225 79.4088 19.3595 79.4088C18.7965 79.4088 18.2957 79.3086 17.8571 79.1083C17.4219 78.908 17.08 78.6092 16.8313 78.212C16.5861 77.8149 16.4635 77.3261 16.4635 76.7459V71.7621H18.0177V76.7459C18.0177 77.0844 18.0712 77.3607 18.1783 77.5748C18.2853 77.789 18.439 77.9461 18.6394 78.0463C18.8431 78.1464 19.0832 78.1965 19.3595 78.1965C19.6427 78.1965 19.8827 78.1464 20.0796 78.0463C20.2799 77.9461 20.4319 77.789 20.5355 77.5748C20.6426 77.3607 20.6961 77.0844 20.6961 76.7459V71.7621ZM27.6639 77.3313C27.6639 77.1966 27.6432 77.0757 27.6018 76.9687C27.5638 76.8582 27.4912 76.758 27.3842 76.6682C27.2771 76.5749 27.1269 76.4834 26.9335 76.3936C26.74 76.3038 26.4896 76.2106 26.1823 76.1139C25.8403 76.0033 25.5157 75.879 25.2083 75.7409C24.9043 75.6027 24.635 75.4421 24.4001 75.259C24.1687 75.0725 23.9856 74.8567 23.8509 74.6115C23.7197 74.3662 23.6541 74.0813 23.6541 73.7566C23.6541 73.4424 23.7231 73.1574 23.8613 72.9018C23.9995 72.6428 24.1929 72.4218 24.4415 72.2387C24.6902 72.0522 24.9838 71.9089 25.3223 71.8087C25.6642 71.7085 26.0389 71.6585 26.4465 71.6585C27.0025 71.6585 27.4878 71.7586 27.9022 71.9589C28.3167 72.1593 28.6379 72.4338 28.8659 72.7827C29.0973 73.1315 29.213 73.5304 29.213 73.9794H27.6691C27.6691 73.7584 27.6225 73.565 27.5292 73.3992C27.4394 73.2299 27.3013 73.097 27.1148 73.0003C26.9317 72.9036 26.7003 72.8552 26.4206 72.8552C26.1512 72.8552 25.9267 72.8966 25.7471 72.9795C25.5675 73.059 25.4328 73.1678 25.343 73.3059C25.2532 73.4406 25.2083 73.5926 25.2083 73.7618C25.2083 73.8896 25.2394 74.0053 25.3015 74.1089C25.3672 74.2125 25.4639 74.3093 25.5917 74.3991C25.7194 74.4889 25.8766 74.5735 26.0631 74.6529C26.2496 74.7323 26.4655 74.8101 26.7107 74.886C27.1217 75.0104 27.4826 75.1503 27.7935 75.3057C28.1077 75.4611 28.3702 75.6355 28.5809 75.8289C28.7916 76.0223 28.9505 76.2417 29.0575 76.4869C29.1646 76.7321 29.2181 77.0101 29.2181 77.321C29.2181 77.6491 29.1543 77.9427 29.0265 78.2017C28.8987 78.4607 28.7139 78.68 28.4721 78.8596C28.2304 79.0392 27.942 79.1757 27.6069 79.2689C27.2719 79.3622 26.8972 79.4088 26.4827 79.4088C26.1097 79.4088 25.7419 79.3604 25.3792 79.2637C25.0166 79.1636 24.6868 79.0133 24.3897 78.813C24.0962 78.6127 23.8613 78.3571 23.6852 78.0463C23.509 77.7354 23.4209 77.3676 23.4209 76.9428H24.9803C24.9803 77.1776 25.0166 77.3762 25.0891 77.5386C25.1617 77.7009 25.2635 77.8321 25.3948 77.9323C25.5295 78.0325 25.6884 78.105 25.8714 78.1499C26.0579 78.1948 26.2617 78.2172 26.4827 78.2172C26.7521 78.2172 26.9732 78.1792 27.1459 78.1033C27.322 78.0273 27.4515 77.9219 27.5344 77.7872C27.6208 77.6525 27.6639 77.5006 27.6639 77.3313ZM33.8598 71.7621V79.3052H32.3108V71.7621H33.8598ZM36.1808 71.7621V72.9795H30.0261V71.7621H36.1808ZM39.7864 73.0521L37.7348 79.3052H36.0822L38.8849 71.7621H39.9366L39.7864 73.0521ZM41.4908 79.3052L39.4341 73.0521L39.2683 71.7621H40.3303L43.1486 79.3052H41.4908ZM41.3976 76.4972V77.7147H37.4136V76.4972H41.3976ZM45.7129 71.7621V79.3052H44.1638V71.7621H45.7129ZM53.52 71.7621V79.3052H51.9658L48.9351 74.2488V79.3052H47.3809V71.7621H48.9351L51.971 76.8236V71.7621H53.52ZM56.737 71.7621V79.3052H55.188V71.7621H56.737ZM64.5441 71.7621V79.3052H62.9899L59.9592 74.2488V79.3052H58.405V71.7621H59.9592L62.9951 76.8236V71.7621H64.5441ZM72.087 75.3627V78.3519C71.9696 78.4935 71.7882 78.6472 71.543 78.813C71.2978 78.9753 70.9818 79.1152 70.5949 79.2326C70.2081 79.3501 69.7401 79.4088 69.191 79.4088C68.704 79.4088 68.2602 79.3294 67.8595 79.1705C67.4589 79.0081 67.1135 78.7716 66.8234 78.4607C66.5367 78.1499 66.3157 77.77 66.1603 77.321C66.0048 76.8685 65.9271 76.3522 65.9271 75.7719V75.3005C65.9271 74.7203 66.0014 74.2039 66.1499 73.7515C66.3019 73.299 66.5177 72.9174 66.7975 72.6065C67.0773 72.2957 67.4105 72.0591 67.7974 71.8968C68.1842 71.7344 68.6142 71.6533 69.0874 71.6533C69.7436 71.6533 70.2824 71.7603 70.7037 71.9745C71.1251 72.1852 71.4463 72.4787 71.6674 72.8552C71.8919 73.2282 72.03 73.6565 72.0818 74.14H70.5742C70.5362 73.8844 70.4637 73.6617 70.3566 73.4717C70.2496 73.2817 70.0959 73.1332 69.8956 73.0262C69.6987 72.9191 69.4431 72.8656 69.1288 72.8656C68.8698 72.8656 68.6384 72.9191 68.4346 73.0262C68.2343 73.1298 68.065 73.2835 67.9269 73.4872C67.7887 73.691 67.6834 73.9432 67.6109 74.2436C67.5383 74.5441 67.5021 74.8929 67.5021 75.2901V75.7719C67.5021 76.1657 67.5401 76.5145 67.616 76.8184C67.692 77.1189 67.8043 77.3728 67.9528 77.58C68.1048 77.7838 68.2913 77.9375 68.5123 78.0411C68.7333 78.1447 68.9907 78.1965 69.2842 78.1965C69.5295 78.1965 69.7332 78.1758 69.8956 78.1343C70.0613 78.0929 70.1943 78.0428 70.2945 77.9841C70.3981 77.9219 70.4775 77.8632 70.5328 77.808V76.4713H69.1133V75.3627H72.087ZM77.117 71.7621H78.4329L80.3705 77.3002L82.3081 71.7621H83.624L80.899 79.3052H79.8421L77.117 71.7621ZM76.4073 71.7621H77.718L77.9563 77.1604V79.3052H76.4073V71.7621ZM83.023 71.7621H84.3389V79.3052H82.7847V77.1604L83.023 71.7621ZM90.9752 78.0929V79.3052H86.9602V78.0929H90.9752ZM87.4679 71.7621V79.3052H85.9136V71.7621H87.4679ZM90.4519 74.8342V76.0154H86.9602V74.8342H90.4519ZM90.97 71.7621V72.9795H86.9602V71.7621H90.97ZM92.8038 71.7621H94.1197L96.0573 77.3002L97.9948 71.7621H99.3107L96.5857 79.3052H95.5288L92.8038 71.7621ZM92.094 71.7621H93.4047L93.6431 77.1604V79.3052H92.094V71.7621ZM98.7098 71.7621H100.026V79.3052H98.4715V77.1604L98.7098 71.7621ZM104.553 75.9947H102.616L102.605 74.9275H104.232C104.519 74.9275 104.754 74.8912 104.937 74.8187C105.12 74.7427 105.256 74.6339 105.346 74.4923C105.439 74.3472 105.486 74.1711 105.486 73.9639C105.486 73.729 105.441 73.5391 105.351 73.394C105.265 73.2489 105.128 73.1436 104.942 73.078C104.759 73.0124 104.522 72.9795 104.232 72.9795H103.155V79.3052H101.6V71.7621H104.232C104.671 71.7621 105.063 71.8035 105.408 71.8864C105.757 71.9693 106.052 72.0954 106.294 72.2646C106.536 72.4338 106.721 72.648 106.848 72.907C106.976 73.1626 107.04 73.4665 107.04 73.8188C107.04 74.1297 106.969 74.4163 106.828 74.6788C106.69 74.9413 106.47 75.1554 106.17 75.3212C105.873 75.487 105.484 75.5785 105.004 75.5958L104.553 75.9947ZM104.486 79.3052H102.191L102.797 78.0929H104.486C104.759 78.0929 104.982 78.0497 105.154 77.9634C105.327 77.8736 105.455 77.7527 105.538 77.6007C105.621 77.4488 105.662 77.2743 105.662 77.0775C105.662 76.8564 105.624 76.6647 105.548 76.5024C105.476 76.3401 105.358 76.2158 105.196 76.1294C105.033 76.0396 104.819 75.9947 104.553 75.9947H103.056L103.067 74.9275H104.932L105.289 75.3471C105.748 75.3402 106.118 75.4214 106.398 75.5906C106.681 75.7564 106.886 75.9723 107.014 76.2382C107.145 76.5041 107.211 76.7891 107.211 77.093C107.211 77.5765 107.106 77.9841 106.895 78.3157C106.684 78.6438 106.375 78.8907 105.968 79.0565C105.564 79.2223 105.07 79.3052 104.486 79.3052ZM113.651 78.0929V79.3052H109.635V78.0929H113.651ZM110.143 71.7621V79.3052H108.589V71.7621H110.143ZM113.127 74.8342V76.0154H109.635V74.8342H113.127ZM113.645 71.7621V72.9795H109.635V71.7621H113.645ZM114.769 71.7621H117.582C118.159 71.7621 118.655 71.8484 119.069 72.0211C119.487 72.1938 119.808 72.4494 120.033 72.7879C120.257 73.1263 120.37 73.5425 120.37 74.0364C120.37 74.4405 120.301 74.7876 120.162 75.0777C120.028 75.3644 119.836 75.6044 119.587 75.7978C119.342 75.9878 119.054 76.1398 118.722 76.2537L118.23 76.5128H115.785L115.774 75.3005H117.593C117.866 75.3005 118.092 75.2521 118.271 75.1554C118.451 75.0587 118.586 74.924 118.676 74.7513C118.769 74.5787 118.815 74.3783 118.815 74.1504C118.815 73.9086 118.771 73.6997 118.681 73.5235C118.591 73.3474 118.455 73.2127 118.271 73.1194C118.088 73.0262 117.859 72.9795 117.582 72.9795H116.324V79.3052H114.769V71.7621ZM118.986 79.3052L117.266 75.9429L118.909 75.9325L120.649 79.2326V79.3052H118.986Z" fill="white"/>
</g>
<defs>
<clipPath id="clip0_44_1860">
<rect width="130" height="90" rx="1.5" fill="white"/>
</clipPath>
</defs>
</svg>
