<svg width="130" height="90" viewBox="0 0 130 90" fill="none" xmlns="http://www.w3.org/2000/svg">
<g clip-path="url(#clip0_44_1850)">
<rect x="1.80841" y="1.80841" width="126.383" height="59.3832" fill="white"/>
<path d="M35.3894 49.3054C34.9804 49.3054 34.5791 49.251 34.1931 49.1461C33.5931 48.9829 33.0122 48.7109 32.3739 48.2912C32.2784 48.229 31.6707 47.7005 31.3306 47.4052L31.3229 47.3974C31.2579 47.343 31.2044 47.2964 31.1662 47.2614C30.7955 47.444 30.4439 47.6888 30.0999 47.9298C29.4081 48.4155 28.6896 48.9129 27.7686 48.9479C26.9774 48.979 26.1405 48.8508 25.1812 48.5593C25.0971 48.536 24.9098 48.4544 24.6041 48.33C24.2639 48.1863 23.7518 48.0075 23.5836 47.9375C23.5683 47.9298 23.5034 47.8909 23.4804 47.821C23.4575 47.7549 23.4575 47.65 23.469 47.6267C24.1034 47.1331 24.7149 46.5425 25.3073 45.9673C25.6971 45.5904 26.1022 45.1979 26.5073 44.8404C26.6488 44.716 26.7787 44.58 26.9048 44.4324L27.1112 44.1642C28.2043 42.6487 28.6629 40.1927 28.919 38.3663C29.1597 36.6642 29.0298 34.896 28.8884 33.3727C28.6285 30.5592 27.7456 28.5191 26.1825 27.1279C25.4563 26.4828 24.6423 25.9582 23.8703 25.4802L23.5339 25.2743C22.7466 24.7885 21.9364 24.2872 21.1988 23.6926C21.1147 23.6266 21.0803 23.5217 21.107 23.4206C21.2293 22.9388 23.2932 22.2626 23.3123 22.2587C23.683 22.2004 24.0843 22.1693 24.5353 22.1693C25.0474 22.1693 25.5595 22.2082 26.0411 22.2432C27.2144 22.3364 27.9711 22.8766 28.7775 23.4517C29.0604 23.6538 29.3508 23.8597 29.668 24.054L29.6986 24.0191C29.7942 23.8947 29.863 23.7432 29.9394 23.5838C30.0426 23.3623 30.1496 23.1331 30.3369 22.9465C30.7802 22.5074 31.3229 22.3869 31.751 22.3325C31.9077 22.3131 32.0491 22.3014 32.1905 22.3014C32.9778 22.3014 33.467 22.6279 34.0823 23.0476C34.1778 23.1097 34.2734 23.1758 34.3766 23.2457C34.6326 23.4128 34.8505 23.4983 35.0263 23.4983C35.3206 23.4983 35.4964 23.2729 35.7677 22.9038C36.0544 22.5113 36.3754 22.0683 36.9907 21.9944C37.6252 21.9206 38.1258 22.247 38.5615 22.5346C38.894 22.7522 39.2112 22.9621 39.5323 22.9621C39.7883 22.9621 40.0521 22.8299 40.3349 22.554C40.6827 22.2159 40.9731 21.9595 41.3247 21.9595C41.5732 21.9595 41.8216 22.0877 42.1044 22.3636L42.1694 22.4258C42.7809 23.0204 42.949 23.1875 43.7172 22.7717C44.302 22.4569 45.0472 22.2587 45.6664 22.2587C46.7212 22.2587 47.3748 22.8144 47.413 23.7742L47.3174 23.8014L47.1493 23.8559C47.0728 23.8869 47.0308 23.8947 46.962 23.9258C46.1441 24.1784 43.6714 25.5812 43.4229 25.7755C42.5936 26.4167 41.8139 27.2406 41.2292 28.0955C38.9628 31.3986 39.0049 36.1046 39.731 39.1318C40.1132 40.7251 40.6253 42.5826 41.5464 44.3119C41.9553 45.0813 42.4331 45.7963 42.9605 46.4375L43.014 46.5036C44.279 48.0464 44.558 48.1085 44.6383 48.1901C44.688 48.2407 44.7224 48.2756 44.73 48.3223C44.7415 48.4233 44.6307 48.501 44.5466 48.5477C44.4357 48.6059 44.3173 48.6448 44.195 48.672C44.0765 48.6992 44.0001 48.7109 43.8434 48.7381C43.7134 48.7614 43.5796 48.773 43.4459 48.7847C42.8726 48.8274 42.307 48.8508 41.7337 48.7925C41.3782 48.7536 41.0228 48.7109 40.6712 48.6448C40.247 48.5671 39.3488 48.3767 38.8482 48.0736L38.5195 48.2601C38.0035 48.6176 37.0557 49.014 36.9334 49.0567C36.4366 49.216 35.913 49.3054 35.3894 49.3054ZM31.449 47.0438C31.7701 47.3274 32.4771 47.9375 32.5574 47.992C33.165 48.3922 33.7116 48.6526 34.2772 48.8041C35.0913 49.0256 35.9894 48.9945 36.8379 48.7109C36.9487 48.6759 37.9271 48.2601 38.3743 47.9298L38.2749 47.7277C37.9042 46.9699 37.392 45.9324 37.1321 45.1668C37.0748 45.0036 37.0213 44.8482 36.9678 44.7044C36.6773 43.8922 36.4519 43.2471 36.4519 42.1124V41.1448L38.7068 47.2575C38.7603 47.3663 38.8099 47.4907 38.852 47.615H38.8558C39.0354 47.8754 39.9565 48.1474 40.7362 48.2912C42.0547 48.5321 43.2548 48.536 44.1988 48.2912C43.916 48.0619 43.4803 47.6072 42.7503 46.7212L42.6968 46.659C42.1541 46.0023 41.6649 45.2678 41.2407 44.4751C40.3005 42.7147 39.7807 40.8261 39.3947 39.2134C38.6533 36.1163 38.615 31.2937 40.9464 27.8934C41.5541 27.0074 42.3605 26.1564 43.2127 25.4919C43.4268 25.3248 46.2206 23.7587 47.0231 23.5722C46.8932 22.7794 46.2244 22.6046 45.6626 22.6046C45.0969 22.6046 44.4128 22.7833 43.8739 23.0748C42.8994 23.5994 42.5707 23.3002 41.9248 22.6745L41.8598 22.6123C41.6458 22.4064 41.47 22.3053 41.3171 22.3053C41.0954 22.3053 40.8547 22.5191 40.568 22.8027C40.2202 23.1408 39.8801 23.3079 39.5285 23.3079C39.1042 23.3079 38.7297 23.0631 38.3704 22.8261C37.9615 22.5579 37.5411 22.2781 37.0251 22.3403C36.5589 22.3947 36.3066 22.7406 36.0391 23.1097C35.7754 23.4711 35.504 23.8481 35.0225 23.8481C34.7779 23.8481 34.5027 23.747 34.1855 23.5411C34.0823 23.4711 33.9829 23.4051 33.8874 23.3429C33.2721 22.931 32.8669 22.6551 32.1828 22.6551C32.0605 22.6551 31.9268 22.6628 31.7892 22.6823C31.2274 22.7561 30.8643 22.9115 30.5738 23.1991C30.4324 23.3429 30.3407 23.5333 30.2451 23.7354C30.184 23.8675 30.119 24.0035 30.0349 24.1318C30.807 25.3792 31.2388 26.8753 31.3764 27.7963C31.6134 29.3896 31.2235 30.26 30.8528 31.1033L30.57 31.7406L29.6069 24.4232C29.2323 24.2056 28.896 23.9647 28.5712 23.7354C27.8068 23.1913 27.0845 22.6784 26.0067 22.5929C25.529 22.554 25.0245 22.5191 24.5276 22.5191C24.0957 22.5191 23.7136 22.5463 23.3581 22.6046C23.1479 22.6512 21.7453 23.1991 21.4701 23.4673C22.1733 24.0268 22.953 24.5087 23.7059 24.9711L24.0422 25.1771C24.8257 25.6629 25.6551 26.1952 26.4003 26.8597C28.0323 28.3092 28.9533 30.4271 29.2209 33.3339C29.3623 34.8766 29.4922 36.672 29.2476 38.409C29.0221 40.0217 28.6782 41.8792 27.9749 43.3482L29.733 41.7277C29.9088 41.5645 30.1458 41.3779 30.3369 41.2225L31.2847 40.4608L30.0311 42.365C29.7483 42.6254 29.5343 42.8313 29.3088 43.1577C29.0795 43.4919 28.7049 43.7756 28.4336 43.9855C28.1431 44.207 27.8221 44.3235 27.3749 44.3741C27.18 44.6422 26.9622 44.8831 26.7252 45.093C26.3239 45.4466 25.9226 45.8352 25.5366 46.2083C25.0206 46.7057 24.4932 47.2186 23.9391 47.6733C24.1187 47.7394 24.3671 47.8443 24.7264 47.992C24.9671 48.093 25.1964 48.1901 25.2691 48.2096C26.194 48.4894 26.9927 48.6137 27.7456 48.5865C28.5712 48.5554 29.2132 48.1085 29.8973 47.6306C30.2757 47.3663 30.6655 47.0943 31.0936 46.8961L33.016 39.4777V40.83C33.016 42.1668 32.9281 42.7458 32.802 43.422C32.7255 43.8378 32.5192 44.3702 32.3357 44.8443C32.2363 45.0969 32.1446 45.3378 32.0835 45.536C31.9726 45.8818 31.8618 46.1189 31.7166 46.422C31.6478 46.6046 31.556 46.7989 31.449 47.0438ZM36.9487 43.4803C37.0366 43.8533 37.1589 44.1953 37.3003 44.5917C37.3538 44.7393 37.4073 44.8948 37.4647 45.058C37.6022 45.466 37.8163 45.9557 38.0418 46.4414L36.9487 43.4803ZM32.6109 42.4583L32.0185 44.7432C32.0223 44.7355 32.0223 44.7277 32.0261 44.7238C32.2019 44.2653 32.4045 43.7445 32.4733 43.3637C32.5268 43.0722 32.5765 42.7924 32.6109 42.4583ZM29.3241 42.5943L27.9023 43.9039C28.0246 43.8533 28.1316 43.7912 28.2348 43.7134C28.4871 43.5191 28.8349 43.2549 29.0336 42.9673C29.1292 42.8235 29.2247 42.7031 29.3241 42.5943ZM30.0235 24.7885L30.7573 30.4582C31.0286 29.782 31.2197 29.0398 31.0439 27.8429C30.9293 27.0696 30.6006 25.8766 30.0235 24.7885ZM39.2456 45.4349C39.1042 45.1124 39.0316 44.786 38.9628 44.4712L38.9093 44.2303L38.7908 43.8145C38.7832 43.7795 38.7717 43.7484 38.7603 43.7134C38.6609 43.4414 38.531 43.2044 38.4048 42.9712C38.2596 42.7031 38.1105 42.4233 37.9997 42.0891C37.5793 40.8067 37.2965 39.6953 37.2965 38.444V37.1849L39.1386 43.7873C39.1768 43.9039 39.2112 44.0282 39.238 44.1487L39.5629 45.3106L39.2456 45.4349ZM35.1218 33.9673L36.0926 31.795C36.1881 31.4297 36.2531 30.9828 36.3219 30.5515C36.3945 30.0735 36.4633 29.6227 36.5742 29.3313C36.8952 28.4841 37.5946 27.9673 38.2672 27.4699C38.6074 27.2212 38.9246 26.9841 39.1998 26.7082L40.0788 25.8261L36.6773 31.9349C36.5436 32.3973 35.9283 33.6292 35.5231 33.8002L35.1218 33.9673ZM38.7068 27.5787C38.6265 27.637 38.5462 27.6991 38.466 27.7574C37.801 28.2471 37.1742 28.7095 36.8914 29.4595C36.7958 29.7121 36.7309 30.1473 36.6582 30.6059C36.6124 30.9168 36.5627 31.2315 36.5015 31.5346L38.7068 27.5787ZM39.8342 26.6771L40.0826 25.8688C40.2775 25.2315 40.8585 23.7393 41.9936 23.6732L42.3987 23.6499L39.8342 26.6771ZM41.4356 24.2522C41.2292 24.4077 41.0343 24.6369 40.8585 24.9323L41.4356 24.2522Z" fill="#212121"/>
<path d="M23.7327 48.6173C25.4296 51.7611 30.2146 52.4567 33.3561 52.5344C34.5562 52.5655 35.7677 52.4878 36.9563 52.3323C37.5908 52.2468 38.1908 52.0642 38.8443 51.8777C39.9641 51.5551 41.084 51.2015 42.1426 50.7041C43.0866 50.2572 44.4243 49.7986 44.7071 48.5745C44.1988 49.4256 40.0979 48.9398 39.4788 48.6367C39.0928 48.4463 39.131 48.3802 38.8138 48.6911C37.8315 49.6587 36.1002 49.9696 34.8161 49.7287C33.7804 49.5344 32.3816 48.7144 31.5484 48.0577C31.2273 47.8012 31.3802 47.673 30.9331 47.8867C29.9317 48.3608 29.2209 48.9981 28.0705 49.1885C26.8704 49.3867 25.7544 49.1691 24.4168 48.5668C24.0843 48.4191 23.9505 48.3997 23.5721 48.1432L23.7327 48.6173Z" fill="#212121"/>
<path d="M21.2446 22.9735C23.2588 20.195 26.5761 19.1963 29.6986 18.318C31.2885 17.8711 32.6109 17.5952 34.2887 17.5952C35.7524 17.5952 37.178 17.945 38.6036 18.2364C40.0368 18.5279 41.5044 18.7571 42.7732 19.5421C43.5911 20.0473 44.5542 20.3154 45.3721 20.8323C45.6473 21.0071 46.6142 21.2403 46.4919 21.6639C46.3161 22.2662 44.8867 21.6989 44.4357 21.932C43.9465 22.1846 43.3006 22.6548 42.7427 22.4916C42.2076 22.3362 42.0547 21.695 41.4547 21.6328C40.5374 21.5395 40.354 22.5305 39.4367 22.4605C38.7412 22.4061 37.9424 21.524 37.2392 21.5706C36.5742 21.6134 35.8518 22.3401 35.3588 22.7092C34.453 23.3932 34.0632 22.4411 33.2873 22.1263C32.8249 21.9398 32.6453 21.8854 32.137 21.8854C30.8643 21.8854 30.0884 22.4605 29.3661 23.4864C29.6107 23.1367 27.9979 22.3634 27.8374 22.3167C27.1609 22.1263 26.4577 21.8388 25.7583 21.8271C23.9926 21.796 22.7466 21.8465 21.2446 22.9735Z" fill="#212121"/>
<path d="M34.4072 8.05499C34.0594 7.58478 33.6313 7.77131 33.0848 7.79851C32.7905 8.63012 33.0619 9.33738 33.2109 10.0407C33.3753 10.818 33.5167 11.6146 33.6543 12.3452C33.8033 13.1185 33.8606 13.9268 33.9027 14.7778C33.9218 15.1936 33.9409 15.6638 33.853 16.0602C33.7727 16.4177 33.532 16.6586 33.467 17.0084C34.1587 16.989 34.904 17.0045 35.6111 16.9656C35.6149 16.612 35.3856 16.2623 35.3015 15.9281C35.2059 15.5434 35.2671 15.1742 35.225 14.7778C35.1563 14.1172 34.9957 13.4682 34.9231 12.7649C34.7588 11.2104 34.5027 9.64826 34.4072 8.05499Z" fill="#212121"/>
<path d="M46.6754 10.9537C44.7798 10.9848 42.7045 11.0781 40.9502 12.0807C40.1285 12.547 39.5438 13.1338 38.7756 13.7089C38.3896 14.0004 37.9959 14.2568 37.545 14.4861C37.0901 14.7154 36.5513 14.7543 36.1309 15.0107L36.3525 15.5276C36.922 15.3644 37.0443 15.2672 37.629 15.2322C38.2061 15.1973 38.7565 15.1001 39.3871 15.1623C39.9795 15.2206 40.6674 15.2089 41.2331 15.3644C41.8942 15.547 42.7351 15.547 43.4115 15.6014C44.7606 15.7063 46.4155 15.4071 47.7646 15.1195C48.7354 14.9097 50.031 14.4861 50.7763 13.7439C51.0897 13.4291 51.254 13.1221 51.6285 12.7685C51.984 12.4304 52.5343 11.7542 52.798 11.3618C53.0579 10.9732 53.2949 10.7361 53.5395 10.3164C53.7535 9.95113 54.1586 9.18558 54.1663 8.72314C52.3318 10.8216 49.1787 10.911 46.6754 10.9537Z" fill="#212121"/>
<path d="M61.8433 39.3446C61.7093 41.2744 61.0235 42.7937 59.7858 43.9023C58.556 45.011 56.932 45.5653 54.9139 45.5653C52.7065 45.5653 50.9682 44.7934 49.699 43.2495C48.4377 41.6974 47.807 39.5704 47.807 36.8686V35.7723C47.807 34.0477 48.0987 32.5285 48.6821 31.2145C49.2654 29.9006 50.0971 28.8946 51.1771 28.1966C52.265 27.4903 53.5264 27.1372 54.9612 27.1372C56.9478 27.1372 58.5481 27.6915 59.7621 28.8002C60.9762 29.9088 61.6778 31.465 61.867 33.4688H58.3195C58.2328 32.3109 57.9214 31.4732 57.3853 30.9559C56.8571 30.4303 56.0491 30.1675 54.9612 30.1675C53.7787 30.1675 52.8918 30.611 52.3005 31.4979C51.7172 32.3766 51.4176 33.7439 51.4018 35.5998V36.9548C51.4018 38.8929 51.6817 40.3095 52.2414 41.2046C52.809 42.0998 53.6998 42.5473 54.9139 42.5473C56.0096 42.5473 56.8256 42.2886 57.3616 41.7713C57.9056 41.2457 58.217 40.4368 58.2958 39.3446H61.8433Z" fill="#212121"/>
<path d="M78.3156 36.7578C78.3156 38.5234 78.0161 40.0714 77.4169 41.4017C76.8178 42.7321 75.9585 43.7586 74.8391 44.4813C73.7275 45.204 72.4504 45.5653 71.0078 45.5653C69.5809 45.5653 68.3077 45.2081 67.1883 44.4936C66.0688 43.7792 65.2017 42.7608 64.5868 41.4387C63.9718 40.1083 63.6605 38.5809 63.6526 36.8563V35.9694C63.6526 34.2038 63.9561 32.6517 64.5631 31.3131C65.178 29.9663 66.0412 28.9357 67.1528 28.2212C68.2722 27.4985 69.5493 27.1372 70.9841 27.1372C72.4189 27.1372 73.692 27.4985 74.8036 28.2212C75.923 28.9357 76.7863 29.9663 77.3933 31.3131C78.0082 32.6517 78.3156 34.1997 78.3156 35.9571V36.7578ZM74.7208 35.9447C74.7208 34.0642 74.3976 32.6352 73.7512 31.658C73.1047 30.6808 72.1824 30.1921 70.9841 30.1921C69.7937 30.1921 68.8753 30.6766 68.2289 31.6457C67.5824 32.6065 67.2553 34.019 67.2474 35.8832V36.7578C67.2474 38.5891 67.5706 40.0098 68.217 41.0199C68.8635 42.03 69.7937 42.535 71.0078 42.535C72.1981 42.535 73.1126 42.0505 73.7512 41.0815C74.3897 40.1042 74.7129 38.6835 74.7208 36.8193V35.9447Z" fill="#212121"/>
<path d="M87.2672 38.7533H84.441V45.3189H80.8935V27.3836H87.2908C89.3247 27.3836 90.8935 27.8558 91.9972 28.8002C93.1009 29.7446 93.6527 31.079 93.6527 32.8036C93.6527 34.0272 93.3965 35.0496 92.8841 35.8708C92.3796 36.6838 91.6109 37.3326 90.5782 37.8171L94.3031 45.1465V45.3189H90.4954L87.2672 38.7533ZM84.441 35.76H87.3027C88.1935 35.76 88.8833 35.5259 89.3721 35.0578C89.8608 34.5815 90.1052 33.9287 90.1052 33.0992C90.1052 32.2534 89.8726 31.5882 89.4075 31.1037C88.9503 30.6192 88.2447 30.3769 87.2908 30.3769H84.441V35.76Z" fill="#212121"/>
<path d="M106.719 37.5461H99.9082V42.3502H107.902V45.3189H96.3607V27.3836H107.878V30.3769H99.9082V34.6513H106.719V37.5461Z" fill="#212121"/>
<rect x="1.80841" y="1.80841" width="126.383" height="59.3832" stroke="#B75400" stroke-width="3.61682"/>
<rect width="130" height="27" transform="translate(0 63)" fill="#B75400"/>
<path d="M19.4527 77.3313C19.4527 77.1966 19.432 77.0757 19.3906 76.9687C19.3526 76.8582 19.28 76.758 19.173 76.6682C19.0659 76.5749 18.9157 76.4834 18.7223 76.3936C18.5288 76.3038 18.2784 76.2106 17.9711 76.1139C17.6291 76.0033 17.3045 75.879 16.9971 75.7409C16.6931 75.6027 16.4238 75.4421 16.1889 75.259C15.9575 75.0725 15.7744 74.8567 15.6397 74.6115C15.5085 74.3662 15.4429 74.0813 15.4429 73.7566C15.4429 73.4424 15.5119 73.1574 15.6501 72.9018C15.7883 72.6428 15.9817 72.4218 16.2303 72.2387C16.479 72.0522 16.7726 71.9089 17.1111 71.8087C17.453 71.7085 17.8277 71.6585 18.2353 71.6585C18.7913 71.6585 19.2766 71.7586 19.691 71.9589C20.1055 72.1593 20.4267 72.4338 20.6547 72.7827C20.8861 73.1315 21.0018 73.5304 21.0018 73.9794H19.4579C19.4579 73.7584 19.4113 73.565 19.318 73.3992C19.2282 73.2299 19.0901 73.097 18.9036 73.0003C18.7205 72.9036 18.4891 72.8552 18.2094 72.8552C17.94 72.8552 17.7155 72.8966 17.5359 72.9795C17.3563 73.059 17.2216 73.1678 17.1318 73.3059C17.042 73.4406 16.9971 73.5926 16.9971 73.7618C16.9971 73.8896 17.0282 74.0053 17.0903 74.1089C17.156 74.2125 17.2527 74.3093 17.3805 74.3991C17.5082 74.4889 17.6654 74.5735 17.8519 74.6529C18.0384 74.7323 18.2543 74.8101 18.4995 74.886C18.9105 75.0104 19.2714 75.1503 19.5823 75.3057C19.8965 75.4611 20.159 75.6355 20.3697 75.8289C20.5804 76.0223 20.7393 76.2417 20.8463 76.4869C20.9534 76.7321 21.0069 77.0101 21.0069 77.321C21.0069 77.6491 20.943 77.9427 20.8153 78.2017C20.6875 78.4607 20.5027 78.68 20.2609 78.8596C20.0192 79.0392 19.7308 79.1757 19.3957 79.2689C19.0607 79.3622 18.686 79.4088 18.2715 79.4088C17.8985 79.4088 17.5307 79.3604 17.168 79.2637C16.8054 79.1636 16.4756 79.0133 16.1785 78.813C15.885 78.6127 15.6501 78.3571 15.474 78.0463C15.2978 77.7354 15.2097 77.3676 15.2097 76.9428H16.7691C16.7691 77.1776 16.8054 77.3762 16.8779 77.5386C16.9505 77.7009 17.0523 77.8321 17.1836 77.9323C17.3183 78.0325 17.4772 78.105 17.6602 78.1499C17.8467 78.1948 18.0505 78.2172 18.2715 78.2172C18.5409 78.2172 18.762 78.1792 18.9347 78.1033C19.1108 78.0273 19.2403 77.9219 19.3232 77.7872C19.4096 77.6525 19.4527 77.5006 19.4527 77.3313ZM25.6486 71.7621V79.3052H24.0996V71.7621H25.6486ZM27.9696 71.7621V72.9795H21.8149V71.7621H27.9696ZM31.5752 73.0521L29.5236 79.3052H27.871L30.6737 71.7621H31.7254L31.5752 73.0521ZM33.2796 79.3052L31.2229 73.0521L31.0571 71.7621H32.1191L34.9374 79.3052H33.2796ZM33.1864 76.4972V77.7147H29.2024V76.4972H33.1864ZM35.849 71.7621H38.6621C39.2389 71.7621 39.7346 71.8484 40.149 72.0211C40.5669 72.1938 40.8881 72.4494 41.1126 72.7879C41.3371 73.1263 41.4494 73.5425 41.4494 74.0364C41.4494 74.4405 41.3803 74.7876 41.2421 75.0777C41.1074 75.3644 40.9158 75.6044 40.6671 75.7978C40.4219 75.9878 40.1335 76.1398 39.8019 76.2537L39.3097 76.5128H36.8644L36.8541 75.3005H38.6725C38.9454 75.3005 39.1716 75.2521 39.3512 75.1554C39.5308 75.0587 39.6655 74.924 39.7553 74.7513C39.8485 74.5787 39.8952 74.3783 39.8952 74.1504C39.8952 73.9086 39.8503 73.6997 39.7605 73.5235C39.6707 73.3474 39.5342 73.2127 39.3512 73.1194C39.1681 73.0262 38.9385 72.9795 38.6621 72.9795H37.4032V79.3052H35.849V71.7621ZM40.0661 79.3052L38.3461 75.9429L39.9884 75.9325L41.7291 79.2326V79.3052H40.0661ZM45.9201 71.7621V79.3052H44.3711V71.7621H45.9201ZM48.2411 71.7621V72.9795H42.0864V71.7621H48.2411ZM50.9918 71.7621V79.3052H49.4428V71.7621H50.9918ZM58.7989 71.7621V79.3052H57.2447L54.214 74.2488V79.3052H52.6598V71.7621H54.214L57.2499 76.8236V71.7621H58.7989ZM66.3418 75.3627V78.3519C66.2244 78.4935 66.043 78.6472 65.7978 78.813C65.5526 78.9753 65.2366 79.1152 64.8498 79.2326C64.4629 79.3501 63.9949 79.4088 63.4458 79.4088C62.9588 79.4088 62.515 79.3294 62.1143 79.1705C61.7137 79.0081 61.3683 78.7716 61.0782 78.4607C60.7915 78.1499 60.5705 77.77 60.4151 77.321C60.2597 76.8685 60.1819 76.3522 60.1819 75.7719V75.3005C60.1819 74.7203 60.2562 74.2039 60.4047 73.7515C60.5567 73.299 60.7725 72.9174 61.0523 72.6065C61.3321 72.2957 61.6654 72.0591 62.0522 71.8968C62.439 71.7344 62.869 71.6533 63.3422 71.6533C63.9984 71.6533 64.5372 71.7603 64.9586 71.9745C65.3799 72.1852 65.7011 72.4787 65.9222 72.8552C66.1467 73.2282 66.2848 73.6565 66.3366 74.14H64.829C64.791 73.8844 64.7185 73.6617 64.6114 73.4717C64.5044 73.2817 64.3507 73.1332 64.1504 73.0262C63.9535 72.9191 63.6979 72.8656 63.3836 72.8656C63.1246 72.8656 62.8932 72.9191 62.6894 73.0262C62.4891 73.1298 62.3198 73.2835 62.1817 73.4872C62.0435 73.691 61.9382 73.9432 61.8657 74.2436C61.7931 74.5441 61.7569 74.8929 61.7569 75.2901V75.7719C61.7569 76.1657 61.7949 76.5145 61.8709 76.8184C61.9468 77.1189 62.0591 77.3728 62.2076 77.58C62.3596 77.7838 62.5461 77.9375 62.7671 78.0411C62.9882 78.1447 63.2455 78.1965 63.539 78.1965C63.7843 78.1965 63.988 78.1758 64.1504 78.1343C64.3161 78.0929 64.4491 78.0428 64.5493 77.9841C64.6529 77.9219 64.7323 77.8632 64.7876 77.808V76.4713H63.3681V75.3627H66.3418ZM71.3718 71.7621H72.6877L74.6253 77.3002L76.5629 71.7621H77.8788L75.1538 79.3052H74.0969L71.3718 71.7621ZM70.6621 71.7621H71.9728L72.2111 77.1604V79.3052H70.6621V71.7621ZM77.2778 71.7621H78.5937V79.3052H77.0395V77.1604L77.2778 71.7621ZM85.23 78.0929V79.3052H81.215V78.0929H85.23ZM81.7227 71.7621V79.3052H80.1685V71.7621H81.7227ZM84.7068 74.8342V76.0154H81.215V74.8342H84.7068ZM85.2248 71.7621V72.9795H81.215V71.7621H85.2248ZM87.0586 71.7621H88.3745L90.3121 77.3002L92.2497 71.7621H93.5656L90.8405 79.3052H89.7836L87.0586 71.7621ZM86.3488 71.7621H87.6596L87.8979 77.1604V79.3052H86.3488V71.7621ZM92.9646 71.7621H94.2805V79.3052H92.7263V77.1604L92.9646 71.7621ZM98.8082 75.9947H96.8706L96.8603 74.9275H98.487C98.7737 74.9275 99.0085 74.8912 99.1916 74.8187C99.3746 74.7427 99.5111 74.6339 99.6009 74.4923C99.6941 74.3472 99.7407 74.1711 99.7407 73.9639C99.7407 73.729 99.6958 73.5391 99.606 73.394C99.5197 73.2489 99.3833 73.1436 99.1968 73.078C99.0137 73.0124 98.7771 72.9795 98.487 72.9795H97.4094V79.3052H95.8552V71.7621H98.487C98.9256 71.7621 99.3177 71.8035 99.663 71.8864C100.012 71.9693 100.307 72.0954 100.549 72.2646C100.791 72.4338 100.975 72.648 101.103 72.907C101.231 73.1626 101.295 73.4665 101.295 73.8188C101.295 74.1297 101.224 74.4163 101.083 74.6788C100.944 74.9413 100.725 75.1554 100.425 75.3212C100.128 75.487 99.739 75.5785 99.2589 75.5958L98.8082 75.9947ZM98.7409 79.3052H96.4458L97.052 78.0929H98.7409C99.0137 78.0929 99.2365 78.0497 99.4092 77.9634C99.5819 77.8736 99.7097 77.7527 99.7925 77.6007C99.8754 77.4488 99.9169 77.2743 99.9169 77.0775C99.9169 76.8564 99.8789 76.6647 99.8029 76.5024C99.7304 76.3401 99.613 76.2158 99.4506 76.1294C99.2883 76.0396 99.0742 75.9947 98.8082 75.9947H97.311L97.3214 74.9275H99.1864L99.5439 75.3471C100.003 75.3402 100.373 75.4214 100.653 75.5906C100.936 75.7564 101.141 75.9723 101.269 76.2382C101.4 76.5041 101.466 76.7891 101.466 77.093C101.466 77.5765 101.361 77.9841 101.15 78.3157C100.939 78.6438 100.63 78.8907 100.223 79.0565C99.8185 79.2223 99.3246 79.3052 98.7409 79.3052ZM107.905 78.0929V79.3052H103.89V78.0929H107.905ZM104.398 71.7621V79.3052H102.844V71.7621H104.398ZM107.382 74.8342V76.0154H103.89V74.8342H107.382ZM107.9 71.7621V72.9795H103.89V71.7621H107.9ZM109.024 71.7621H111.837C112.414 71.7621 112.91 71.8484 113.324 72.0211C113.742 72.1938 114.063 72.4494 114.288 72.7879C114.512 73.1263 114.624 73.5425 114.624 74.0364C114.624 74.4405 114.555 74.7876 114.417 75.0777C114.283 75.3644 114.091 75.6044 113.842 75.7978C113.597 75.9878 113.309 76.1398 112.977 76.2537L112.485 76.5128H110.04L110.029 75.3005H111.848C112.12 75.3005 112.347 75.2521 112.526 75.1554C112.706 75.0587 112.841 74.924 112.93 74.7513C113.024 74.5787 113.07 74.3783 113.07 74.1504C113.07 73.9086 113.025 73.6997 112.936 73.5235C112.846 73.3474 112.709 73.2127 112.526 73.1194C112.343 73.0262 112.114 72.9795 111.837 72.9795H110.578V79.3052H109.024V71.7621ZM113.241 79.3052L111.521 75.9429L113.164 75.9325L114.904 79.2326V79.3052H113.241Z" fill="white"/>
</g>
<defs>
<clipPath id="clip0_44_1850">
<rect width="130" height="90" rx="1.5" fill="white"/>
</clipPath>
</defs>
</svg>
