<svg width="262" height="40" viewBox="0 0 262 40" fill="none" xmlns="http://www.w3.org/2000/svg">
<g clip-path="url(#clip0_44_1876)">
<rect x="1.125" y="1.125" width="77.75" height="37.75" fill="white"/>
<path d="M22.0155 30.6724C21.7611 30.6724 21.5114 30.6385 21.2713 30.5733C20.898 30.4717 20.5366 30.3025 20.1396 30.0414C20.0801 30.0027 19.7021 29.674 19.4905 29.4902L19.4858 29.4854C19.4453 29.4516 19.412 29.4225 19.3883 29.4008C19.1577 29.5144 18.9389 29.6667 18.7249 29.8166C18.2946 30.1188 17.8476 30.4282 17.2746 30.45C16.7825 30.4693 16.2618 30.3895 15.665 30.2082C15.6127 30.1937 15.4962 30.1429 15.306 30.0656C15.0944 29.9761 14.7758 29.8649 14.6712 29.8214C14.6617 29.8166 14.6213 29.7924 14.607 29.7489C14.5927 29.7078 14.5927 29.6425 14.5999 29.628C14.9945 29.321 15.375 28.9536 15.7435 28.5958C15.986 28.3613 16.238 28.1171 16.49 27.8947C16.578 27.8173 16.6588 27.7327 16.7373 27.6409L16.8657 27.4741C17.5457 26.5312 17.831 25.0034 17.9903 23.8672C18.1401 22.8083 18.0592 21.7084 17.9712 20.7608C17.8096 19.0105 17.2604 17.7413 16.2879 16.8759C15.8362 16.4746 15.3298 16.1482 14.8495 15.8509L14.6403 15.7227C14.1505 15.4206 13.6465 15.1087 13.1876 14.7388C13.1353 14.6977 13.1139 14.6325 13.1305 14.5696C13.2066 14.2698 14.4905 13.8492 14.5024 13.8468C14.733 13.8105 14.9827 13.7912 15.2632 13.7912C15.5818 13.7912 15.9004 13.8154 16.2 13.8371C16.9299 13.8951 17.4006 14.2312 17.9023 14.589C18.0782 14.7147 18.2589 14.8428 18.4563 14.9637L18.4753 14.9419C18.5347 14.8645 18.5775 14.7703 18.6251 14.6711C18.6893 14.5334 18.7558 14.3907 18.8723 14.2747C19.1481 14.0015 19.4858 13.9266 19.752 13.8927C19.8495 13.8806 19.9375 13.8734 20.0255 13.8734C20.5152 13.8734 20.8196 14.0764 21.2024 14.3375C21.2618 14.3762 21.3212 14.4173 21.3854 14.4608C21.5447 14.5648 21.6802 14.618 21.7896 14.618C21.9727 14.618 22.082 14.4777 22.2509 14.2481C22.4292 14.0039 22.6289 13.7283 23.0117 13.6824C23.4063 13.6365 23.7178 13.8395 23.9889 14.0184C24.1957 14.1538 24.393 14.2844 24.5928 14.2844C24.752 14.2844 24.9161 14.2022 25.092 14.0305C25.3084 13.8202 25.4891 13.6606 25.7078 13.6606C25.8624 13.6606 26.0169 13.7404 26.1928 13.9121L26.2333 13.9507C26.6137 14.3206 26.7183 14.4246 27.1962 14.1659C27.5599 13.9701 28.0236 13.8468 28.4087 13.8468C29.0649 13.8468 29.4715 14.1925 29.4953 14.7896L29.4358 14.8065L29.3312 14.8404C29.2837 14.8597 29.2575 14.8645 29.2147 14.8839C28.7059 15.041 27.1676 15.9137 27.0131 16.0346C26.4972 16.4335 26.0122 16.946 25.6484 17.4778C24.2385 19.5327 24.2646 22.4602 24.7164 24.3434C24.9541 25.3346 25.2727 26.4902 25.8457 27.5659C26.1001 28.0446 26.3973 28.4894 26.7254 28.8883L26.7587 28.9294C27.5457 29.8891 27.7192 29.9278 27.7692 29.9786C27.8001 30.01 27.8215 30.0317 27.8262 30.0608C27.8334 30.1236 27.7644 30.172 27.7121 30.201C27.6432 30.2372 27.5695 30.2614 27.4934 30.2783C27.4197 30.2952 27.3721 30.3025 27.2746 30.3194C27.1938 30.3339 27.1106 30.3412 27.0274 30.3484C26.6707 30.375 26.3189 30.3895 25.9622 30.3533C25.7411 30.3291 25.52 30.3025 25.3013 30.2614C25.0374 30.2131 24.4786 30.0946 24.1672 29.906L23.9627 30.0221C23.6417 30.2445 23.0521 30.4911 22.976 30.5177C22.6669 30.6168 22.3412 30.6724 22.0155 30.6724ZM19.5642 29.2654C19.7639 29.4419 20.2038 29.8214 20.2537 29.8553C20.6317 30.1043 20.9717 30.2662 21.3236 30.3605C21.83 30.4983 22.3888 30.479 22.9166 30.3025C22.9855 30.2807 23.5942 30.0221 23.8723 29.8166L23.8105 29.6909C23.5799 29.2195 23.2613 28.574 23.0996 28.0978C23.064 27.9962 23.0307 27.8995 22.9974 27.8101C22.8167 27.3048 22.6764 26.9035 22.6764 26.1976V25.5957L24.0792 29.3984C24.1125 29.4661 24.1434 29.5434 24.1695 29.6208H24.1719C24.2837 29.7827 24.8567 29.952 25.3417 30.0414C26.1619 30.1913 26.9085 30.1937 27.4958 30.0414C27.3198 29.8988 27.0488 29.6159 26.5947 29.0648L26.5614 29.0261C26.2238 28.6175 25.9194 28.1606 25.6555 27.6675C25.0706 26.5723 24.7473 25.3975 24.5072 24.3942C24.0459 22.4675 24.0221 19.4674 25.4724 17.3521C25.8505 16.8009 26.3521 16.2715 26.8823 15.8581C27.0155 15.7542 28.7535 14.7799 29.2528 14.6639C29.1719 14.1707 28.7559 14.0619 28.4064 14.0619C28.0545 14.0619 27.6289 14.1731 27.2937 14.3545C26.6874 14.6808 26.4829 14.4947 26.0811 14.1055L26.0407 14.0668C25.9075 13.9387 25.7982 13.8758 25.7031 13.8758C25.5652 13.8758 25.4154 14.0088 25.2371 14.1852C25.0207 14.3956 24.8091 14.4995 24.5904 14.4995C24.3265 14.4995 24.0935 14.3472 23.87 14.1997C23.6156 14.0329 23.354 13.8589 23.0331 13.8976C22.743 13.9314 22.5861 14.1466 22.4197 14.3762C22.2556 14.601 22.0868 14.8355 21.7872 14.8355C21.6351 14.8355 21.4639 14.7727 21.2665 14.6446C21.2024 14.601 21.1405 14.5599 21.0811 14.5213C20.6983 14.265 20.4463 14.0934 20.0207 14.0934C19.9446 14.0934 19.8614 14.0982 19.7758 14.1103C19.4263 14.1562 19.2004 14.2529 19.0198 14.4318C18.9318 14.5213 18.8747 14.6397 18.8153 14.7654C18.7772 14.8476 18.7368 14.9322 18.6845 15.012C19.1648 15.788 19.4334 16.7187 19.519 17.2917C19.6664 18.2828 19.4239 18.8244 19.1933 19.3489L19.0174 19.7454L18.4182 15.1933C18.1852 15.0579 17.976 14.9081 17.7739 14.7654C17.2984 14.427 16.849 14.1079 16.1786 14.0547C15.8814 14.0305 15.5675 14.0088 15.2585 14.0088C14.9898 14.0088 14.752 14.0257 14.5309 14.0619C14.4002 14.091 13.5276 14.4318 13.3564 14.5986C13.7939 14.9467 14.2789 15.2465 14.7473 15.5342L14.9565 15.6623C15.4439 15.9645 15.9598 16.2957 16.4235 16.7091C17.4387 17.6108 18.0117 18.9283 18.1781 20.7366C18.2661 21.6963 18.3469 22.8132 18.1947 23.8938C18.0545 24.897 17.8405 26.0526 17.403 26.9664L18.4967 25.9583C18.6061 25.8568 18.7535 25.7407 18.8723 25.644L19.462 25.1702L18.6821 26.3548C18.5062 26.5167 18.3731 26.6449 18.2328 26.8479C18.0901 27.0558 17.8571 27.2323 17.6883 27.3629C17.5076 27.5007 17.3079 27.5732 17.0297 27.6046C16.9085 27.7714 16.773 27.9213 16.6255 28.0518C16.3759 28.2718 16.1263 28.5136 15.8861 28.7457C15.5652 29.0551 15.2371 29.3742 14.8923 29.657C15.0041 29.6981 15.1586 29.7634 15.3821 29.8553C15.5319 29.9181 15.6745 29.9786 15.7197 29.9906C16.2951 30.1647 16.792 30.2421 17.2604 30.2251C17.7739 30.2058 18.1733 29.9278 18.5989 29.6304C18.8343 29.4661 19.0768 29.2968 19.3431 29.1735L20.539 24.5586V25.3999C20.539 26.2315 20.4843 26.5917 20.4059 27.0123C20.3583 27.271 20.2299 27.6022 20.1158 27.8971C20.054 28.0543 19.9969 28.2041 19.9589 28.3274C19.8899 28.5426 19.821 28.6901 19.7306 28.8786C19.6878 28.9922 19.6308 29.1131 19.5642 29.2654ZM22.9855 27.0486C23.0402 27.2807 23.1163 27.4934 23.2043 27.74C23.2375 27.8318 23.2708 27.9285 23.3065 28.0301C23.3921 28.2839 23.5252 28.5885 23.6655 28.8907L22.9855 27.0486ZM20.287 26.4128L19.9185 27.8343C19.9208 27.8294 19.9208 27.8246 19.9232 27.8222C20.0326 27.5369 20.1586 27.213 20.2014 26.9761C20.2347 26.7948 20.2656 26.6207 20.287 26.4128ZM18.2423 26.4974L17.3578 27.3121C17.4339 27.2807 17.5005 27.242 17.5647 27.1936C17.7216 27.0728 17.938 26.9084 18.0616 26.7295C18.121 26.64 18.1805 26.5651 18.2423 26.4974ZM18.6774 15.4206L19.1339 18.9476C19.3027 18.527 19.4216 18.0653 19.3122 17.3207C19.2409 16.8396 19.0364 16.0975 18.6774 15.4206ZM24.4144 28.2646C24.3265 28.0639 24.2813 27.8609 24.2385 27.665L24.2052 27.5152L24.1315 27.2565C24.1267 27.2347 24.1196 27.2154 24.1125 27.1936C24.0507 27.0244 23.9698 26.8769 23.8914 26.7319C23.801 26.5651 23.7083 26.391 23.6393 26.1831C23.3778 25.3854 23.2019 24.694 23.2019 23.9155V23.1323L24.3479 27.2396C24.3716 27.3121 24.393 27.3895 24.4097 27.4644L24.6118 28.1872L24.4144 28.2646ZM21.849 21.1306L22.4529 19.7793C22.5124 19.552 22.5528 19.274 22.5956 19.0057C22.6408 18.7083 22.6836 18.4279 22.7525 18.2466C22.9522 17.7196 23.3873 17.3981 23.8058 17.0886C24.0174 16.9339 24.2147 16.7864 24.3859 16.6148L24.9327 16.066L22.8167 19.8663C22.7335 20.154 22.3507 20.9203 22.0987 21.0267L21.849 21.1306ZM24.0792 17.1563C24.0293 17.1926 23.9793 17.2312 23.9294 17.2675C23.5157 17.5721 23.1258 17.8598 22.9499 18.3264C22.8904 18.4835 22.85 18.7543 22.8048 19.0395C22.7763 19.2329 22.7454 19.4287 22.7073 19.6173L24.0792 17.1563ZM24.7806 16.5955L24.9351 16.0926C25.0564 15.6962 25.4178 14.7678 26.1239 14.7267L26.3759 14.7122L24.7806 16.5955ZM25.7768 15.087C25.6484 15.1836 25.5271 15.3263 25.4178 15.51L25.7768 15.087Z" fill="#212121"/>
<path d="M14.7639 30.2443C15.8196 32.2 18.7963 32.6327 20.7506 32.6811C21.4972 32.7004 22.2509 32.6521 22.9903 32.5554C23.3849 32.5022 23.7582 32.3886 24.1648 32.2725C24.8614 32.0719 25.558 31.8519 26.2166 31.5425C26.8039 31.2644 27.636 30.9792 27.812 30.2177C27.4957 30.7471 24.9446 30.4449 24.5595 30.2564C24.3193 30.1379 24.3431 30.0968 24.1458 30.2902C23.5347 30.8922 22.4577 31.0855 21.6588 30.9357C21.0145 30.8148 20.1443 30.3047 19.626 29.8962C19.4263 29.7366 19.5214 29.6568 19.2432 29.7898C18.6203 30.0847 18.1781 30.4812 17.4624 30.5996C16.7159 30.7229 16.0216 30.5875 15.1895 30.2128C14.9827 30.121 14.8994 30.1089 14.6641 29.9493L14.7639 30.2443Z" fill="#212121"/>
<path d="M13.2161 14.2916C14.4691 12.5631 16.5328 11.9418 18.4753 11.3955C19.4644 11.1174 20.287 10.9458 21.3307 10.9458C22.2413 10.9458 23.1282 11.1634 24.015 11.3447C24.9066 11.526 25.8196 11.6686 26.6089 12.157C27.1177 12.4712 27.7169 12.638 28.2257 12.9596C28.3968 13.0683 28.9984 13.2134 28.9223 13.4769C28.8129 13.8516 27.9237 13.4986 27.6432 13.6437C27.3388 13.8008 26.937 14.0933 26.5899 13.9918C26.257 13.8951 26.1619 13.4962 25.7887 13.4576C25.218 13.3995 25.1039 14.016 24.5333 13.9725C24.1006 13.9386 23.6037 13.3899 23.1662 13.4189C22.7525 13.4455 22.3032 13.8975 21.9965 14.1272C21.433 14.5527 21.1905 13.9604 20.7078 13.7646C20.4201 13.6485 20.3084 13.6147 19.9922 13.6147C19.2004 13.6147 18.7178 13.9725 18.2684 14.6107C18.4206 14.3931 17.4173 13.912 17.3174 13.883C16.8966 13.7646 16.4591 13.5857 16.024 13.5784C14.9256 13.5591 14.1505 13.5905 13.2161 14.2916Z" fill="#212121"/>
<path d="M21.4044 5.01087C21.1881 4.71835 20.9218 4.83439 20.5818 4.85131C20.3987 5.36865 20.5675 5.80863 20.6603 6.24619C20.7625 6.72969 20.8505 7.22527 20.9361 7.67975C21.0288 8.16083 21.0645 8.66366 21.0906 9.19309C21.1025 9.45176 21.1144 9.74427 21.0597 9.99085C21.0098 10.2133 20.86 10.3631 20.8196 10.5807C21.2499 10.5686 21.7135 10.5783 22.1534 10.5541C22.1558 10.3341 22.0131 10.1166 21.9608 9.90866C21.9014 9.66933 21.9394 9.43967 21.9132 9.19309C21.8704 8.78212 21.7706 8.3784 21.7254 7.94084C21.6232 6.97385 21.4639 6.00203 21.4044 5.01087Z" fill="#212121"/>
<path d="M29.0364 6.81439C27.8572 6.83372 26.5661 6.89174 25.4748 7.51545C24.9637 7.80555 24.5999 8.17059 24.122 8.52837C23.8819 8.70968 23.637 8.86923 23.3564 9.01186C23.0735 9.1545 22.7383 9.17867 22.4767 9.33822L22.6146 9.65975C22.9689 9.55821 23.045 9.49778 23.4087 9.47602C23.7678 9.45426 24.1101 9.39382 24.5024 9.4325C24.8709 9.46877 25.2989 9.46151 25.6508 9.55821C26.0621 9.67183 26.5852 9.67183 27.006 9.70568C27.8453 9.77095 28.8748 9.58481 29.714 9.40591C30.3179 9.27537 31.1239 9.01186 31.5876 8.55013C31.7825 8.35431 31.8847 8.16333 32.1177 7.94334C32.3389 7.73302 32.6812 7.31238 32.8453 7.06822C33.007 6.82647 33.1544 6.67901 33.3065 6.41792C33.4397 6.19068 33.6917 5.71444 33.6964 5.42676C32.5552 6.73219 30.5937 6.78779 29.0364 6.81439Z" fill="#212121"/>
<path d="M38.4723 24.476C38.389 25.6765 37.9623 26.6216 37.1923 27.3113C36.4273 28.001 35.417 28.3458 34.1615 28.3458C32.7884 28.3458 31.707 27.8656 30.9174 26.9052C30.1328 25.9396 29.7404 24.6165 29.7404 22.9357V22.2537C29.7404 21.1808 29.9219 20.2357 30.2848 19.4183C30.6477 18.6009 31.1651 17.9751 31.837 17.5409C32.5137 17.1015 33.2984 16.8818 34.191 16.8818C35.4268 16.8818 36.4224 17.2267 37.1776 17.9164C37.9329 18.606 38.3693 19.5741 38.487 20.8207H36.2801C36.2262 20.1003 36.0325 19.5792 35.699 19.2574C35.3704 18.9304 34.8677 18.767 34.191 18.767C33.4553 18.767 32.9036 19.0428 32.5358 19.5946C32.1729 20.1412 31.9865 20.9918 31.9767 22.1464V22.9893C31.9767 24.195 32.1508 25.0762 32.499 25.6331C32.8521 26.1899 33.4063 26.4684 34.1615 26.4684C34.8432 26.4684 35.3508 26.3074 35.6843 25.9856C36.0227 25.6586 36.2164 25.1554 36.2654 24.476H38.4723Z" fill="#212121"/>
<path d="M48.7196 22.8667C48.7196 23.9651 48.5333 24.9281 48.1605 25.7557C47.7878 26.5833 47.2533 27.2219 46.5569 27.6715C45.8654 28.121 45.0709 28.3458 44.1734 28.3458C43.2858 28.3458 42.4938 28.1236 41.7974 27.6791C41.101 27.2347 40.5615 26.6012 40.179 25.7787C39.7965 24.9511 39.6027 24.0008 39.5978 22.928V22.3763C39.5978 21.2779 39.7866 20.3123 40.1643 19.4796C40.5468 18.6418 41.0838 18.0006 41.7753 17.5562C42.4717 17.1066 43.2662 16.8818 44.1587 16.8818C45.0513 16.8818 45.8433 17.1066 46.5348 17.5562C47.2312 18.0006 47.7682 18.6418 48.1458 19.4796C48.5284 20.3123 48.7196 21.2753 48.7196 22.3686V22.8667ZM46.4833 22.3609C46.4833 21.191 46.2822 20.3021 45.8801 19.6942C45.478 19.0863 44.9042 18.7823 44.1587 18.7823C43.4182 18.7823 42.8469 19.0837 42.4447 19.6865C42.0426 20.2842 41.839 21.163 41.8341 22.3226V22.8667C41.8341 24.006 42.0352 24.8898 42.4374 25.5181C42.8395 26.1465 43.4182 26.4607 44.1734 26.4607C44.914 26.4607 45.4829 26.1593 45.8801 25.5565C46.2773 24.9485 46.4784 24.0647 46.4833 22.905V22.3609Z" fill="#212121"/>
<path d="M54.2883 24.1081H52.5302V28.1926H50.3233V17.0351H54.303C55.5683 17.0351 56.5442 17.3288 57.2308 17.9164C57.9174 18.5039 58.2607 19.334 58.2607 20.4069C58.2607 21.1681 58.1013 21.8041 57.7826 22.315C57.4687 22.8207 56.9905 23.2243 56.3481 23.5257L58.6653 28.0853V28.1926H56.2966L54.2883 24.1081ZM52.5302 22.246H54.3104C54.8646 22.246 55.2937 22.1004 55.5977 21.8092C55.9018 21.5129 56.0538 21.1068 56.0538 20.5908C56.0538 20.0646 55.9092 19.6508 55.6198 19.3494C55.3354 19.0479 54.8964 18.8972 54.303 18.8972H52.5302V22.246Z" fill="#212121"/>
<path d="M66.3894 23.3571H62.1522V26.3458H67.125V28.1926H59.9453V17.0351H67.1103V18.8972H62.1522V21.5563H66.3894V23.3571Z" fill="#212121"/>
<rect x="1.125" y="1.125" width="77.75" height="37.75" stroke="#B75400" stroke-width="2.25"/>
<rect width="183" height="40" transform="translate(80)" fill="#B75400"/>
<path d="M96.0291 22.1161C96.0291 21.8854 95.9932 21.6803 95.9214 21.5009C95.8547 21.3214 95.7343 21.1573 95.5599 21.0087C95.3856 20.86 95.1395 20.7164 94.8217 20.578C94.5089 20.4344 94.109 20.2883 93.6219 20.1396C93.0887 19.9756 92.5966 19.7936 92.1454 19.5936C91.6993 19.3885 91.3097 19.1527 90.9764 18.8861C90.6432 18.6144 90.3843 18.3042 90.1997 17.9556C90.0151 17.6018 89.9229 17.1942 89.9229 16.7328C89.9229 16.2765 90.0177 15.8612 90.2074 15.4869C90.4022 15.1127 90.6765 14.7897 91.0303 14.5179C91.3892 14.2411 91.8121 14.0283 92.2992 13.8796C92.7863 13.7258 93.3246 13.6489 93.9142 13.6489C94.7448 13.6489 95.46 13.8027 96.0598 14.1104C96.6648 14.418 97.1288 14.8307 97.4518 15.3485C97.7799 15.8663 97.944 16.438 97.944 17.0635H96.0291C96.0291 16.6943 95.9496 16.3688 95.7906 16.0868C95.6368 15.7997 95.401 15.5741 95.0831 15.41C94.7704 15.246 94.373 15.1639 93.8911 15.1639C93.4348 15.1639 93.0554 15.2332 92.7529 15.3716C92.4504 15.51 92.2249 15.6971 92.0762 15.933C91.9275 16.1688 91.8531 16.4354 91.8531 16.7328C91.8531 16.943 91.9019 17.1353 91.9993 17.3096C92.0967 17.4788 92.2454 17.6377 92.4453 17.7864C92.6453 17.9299 92.8965 18.0658 93.199 18.194C93.5015 18.3221 93.8578 18.4452 94.2679 18.5631C94.8883 18.7477 95.4292 18.9528 95.8906 19.1783C96.3521 19.3988 96.7366 19.65 97.0442 19.932C97.3518 20.214 97.5825 20.5344 97.7363 20.8933C97.8901 21.2471 97.967 21.6495 97.967 22.1007C97.967 22.5724 97.8722 22.9979 97.6825 23.3773C97.4928 23.7516 97.2211 24.072 96.8673 24.3386C96.5187 24.6001 96.0983 24.8026 95.6061 24.9462C95.119 25.0846 94.5756 25.1538 93.9757 25.1538C93.4374 25.1538 92.9067 25.082 92.3838 24.9385C91.866 24.7949 91.3943 24.577 90.9688 24.2848C90.5432 23.9874 90.2048 23.6183 89.9536 23.1774C89.7024 22.7313 89.5768 22.2109 89.5768 21.6162H91.5071C91.5071 21.9802 91.5686 22.2904 91.6917 22.5468C91.8198 22.8031 91.9967 23.0133 92.2223 23.1774C92.4479 23.3363 92.7094 23.4542 93.0067 23.5311C93.3092 23.608 93.6322 23.6465 93.9757 23.6465C94.4269 23.6465 94.8037 23.5824 95.1062 23.4542C95.4138 23.326 95.6445 23.1466 95.7983 22.9159C95.9521 22.6852 96.0291 22.4186 96.0291 22.1161ZM106.272 13.8027H108.195V21.2855C108.195 22.1366 108.01 22.8492 107.641 23.4235C107.272 23.9977 106.77 24.4309 106.134 24.7231C105.503 25.0103 104.798 25.1538 104.019 25.1538C103.214 25.1538 102.496 25.0103 101.866 24.7231C101.235 24.4309 100.738 23.9977 100.374 23.4235C100.015 22.8492 99.8355 22.1366 99.8355 21.2855V13.8027H101.758V21.2855C101.758 21.8239 101.85 22.2673 102.035 22.616C102.22 22.9595 102.481 23.2133 102.819 23.3773C103.158 23.5414 103.558 23.6234 104.019 23.6234C104.481 23.6234 104.878 23.5414 105.211 23.3773C105.549 23.2133 105.811 22.9595 105.996 22.616C106.18 22.2673 106.272 21.8239 106.272 21.2855V13.8027ZM116.5 22.1161C116.5 21.8854 116.464 21.6803 116.393 21.5009C116.326 21.3214 116.206 21.1573 116.031 21.0087C115.857 20.86 115.611 20.7164 115.293 20.578C114.98 20.4344 114.58 20.2883 114.093 20.1396C113.56 19.9756 113.068 19.7936 112.617 19.5936C112.171 19.3885 111.781 19.1527 111.448 18.8861C111.114 18.6144 110.856 18.3042 110.671 17.9556C110.486 17.6018 110.394 17.1942 110.394 16.7328C110.394 16.2765 110.489 15.8612 110.679 15.4869C110.874 15.1127 111.148 14.7897 111.502 14.5179C111.86 14.2411 112.283 14.0283 112.771 13.8796C113.258 13.7258 113.796 13.6489 114.385 13.6489C115.216 13.6489 115.931 13.8027 116.531 14.1104C117.136 14.418 117.6 14.8307 117.923 15.3485C118.251 15.8663 118.415 16.438 118.415 17.0635H116.5C116.5 16.6943 116.421 16.3688 116.262 16.0868C116.108 15.7997 115.872 15.5741 115.554 15.41C115.242 15.246 114.844 15.1639 114.362 15.1639C113.906 15.1639 113.527 15.2332 113.224 15.3716C112.922 15.51 112.696 15.6971 112.547 15.933C112.399 16.1688 112.324 16.4354 112.324 16.7328C112.324 16.943 112.373 17.1353 112.471 17.3096C112.568 17.4788 112.717 17.6377 112.917 17.7864C113.117 17.9299 113.368 18.0658 113.67 18.194C113.973 18.3221 114.329 18.4452 114.739 18.5631C115.36 18.7477 115.901 18.9528 116.362 19.1783C116.823 19.3988 117.208 19.65 117.515 19.932C117.823 20.214 118.054 20.5344 118.208 20.8933C118.361 21.2471 118.438 21.6495 118.438 22.1007C118.438 22.5724 118.344 22.9979 118.154 23.3773C117.964 23.7516 117.692 24.072 117.339 24.3386C116.99 24.6001 116.57 24.8026 116.077 24.9462C115.59 25.0846 115.047 25.1538 114.447 25.1538C113.909 25.1538 113.378 25.082 112.855 24.9385C112.337 24.7949 111.866 24.577 111.44 24.2848C111.015 23.9874 110.676 23.6183 110.425 23.1774C110.174 22.7313 110.048 22.2109 110.048 21.6162H111.978C111.978 21.9802 112.04 22.2904 112.163 22.5468C112.291 22.8031 112.468 23.0133 112.694 23.1774C112.919 23.3363 113.181 23.4542 113.478 23.5311C113.781 23.608 114.104 23.6465 114.447 23.6465C114.898 23.6465 115.275 23.5824 115.578 23.4542C115.885 23.326 116.116 23.1466 116.27 22.9159C116.423 22.6852 116.5 22.4186 116.5 22.1161ZM125.067 13.8027V25H123.152V13.8027H125.067ZM128.582 13.8027V15.3408H119.669V13.8027H128.582ZM133.995 15.2947L130.65 25H128.628L132.842 13.8027H134.134L133.995 15.2947ZM136.795 25L133.442 15.2947L133.296 13.8027H134.595L138.825 25H136.795ZM136.633 20.8472V22.3776H130.542V20.8472H136.633ZM142.455 13.8027V25H140.524V13.8027H142.455ZM154.052 13.8027V25H152.121L147.099 16.9789V25H145.169V13.8027H147.099L152.137 21.8392V13.8027H154.052ZM158.727 13.8027V25H156.797V13.8027H158.727ZM170.324 13.8027V25H168.394L163.372 16.9789V25H161.441V13.8027H163.372L168.409 21.8392V13.8027H170.324ZM181.536 19.2783V23.5542C181.377 23.7644 181.129 23.9951 180.79 24.2463C180.457 24.4924 180.013 24.7052 179.46 24.8846C178.906 25.0641 178.216 25.1538 177.391 25.1538C176.689 25.1538 176.045 25.0359 175.461 24.8C174.876 24.5591 174.371 24.2079 173.946 23.7465C173.525 23.285 173.2 22.7236 172.969 22.0623C172.738 21.3958 172.623 20.637 172.623 19.7859V19.0092C172.623 18.1632 172.728 17.4095 172.938 16.7482C173.154 16.0817 173.461 15.5177 173.861 15.0563C174.261 14.5948 174.743 14.2462 175.307 14.0104C175.876 13.7694 176.519 13.6489 177.237 13.6489C178.155 13.6489 178.914 13.8027 179.514 14.1104C180.119 14.4128 180.585 14.8333 180.913 15.3716C181.241 15.9099 181.449 16.5251 181.536 17.2173H179.644C179.583 16.8276 179.462 16.479 179.283 16.1714C179.109 15.8638 178.857 15.6228 178.529 15.4485C178.206 15.269 177.786 15.1793 177.268 15.1793C176.822 15.1793 176.43 15.2639 176.091 15.4331C175.753 15.6023 175.471 15.851 175.245 16.1791C175.025 16.5072 174.858 16.9071 174.746 17.3788C174.633 17.8505 174.576 18.3888 174.576 18.9938V19.7859C174.576 20.4011 174.64 20.9471 174.769 21.4239C174.902 21.9008 175.092 22.3032 175.338 22.6313C175.589 22.9595 175.894 23.2081 176.253 23.3773C176.612 23.5414 177.017 23.6234 177.468 23.6234C177.909 23.6234 178.27 23.5875 178.552 23.5157C178.834 23.4388 179.057 23.3491 179.221 23.2466C179.391 23.1389 179.521 23.0364 179.614 22.939V20.7164H177.283V19.2783H181.536ZM189.011 13.8027H190.733L193.971 22.4391L197.201 13.8027H198.924L194.648 25H193.279L189.011 13.8027ZM188.226 13.8027H189.864L190.149 21.2778V25H188.226V13.8027ZM198.07 13.8027H199.716V25H197.785V21.2778L198.07 13.8027ZM209.651 23.4696V25H203.707V23.4696H209.651ZM204.253 13.8027V25H202.322V13.8027H204.253ZM208.875 18.4785V19.9858H203.707V18.4785H208.875ZM209.613 13.8027V15.3408H203.707V13.8027H209.613ZM212.327 13.8027H214.05L217.288 22.4391L220.518 13.8027H222.24L217.965 25H216.596L212.327 13.8027ZM211.543 13.8027H213.181L213.466 21.2778V25H211.543V13.8027ZM221.387 13.8027H223.033V25H221.102V21.2778L221.387 13.8027ZM229.838 19.9397H226.985L226.97 18.5323H229.461C229.882 18.5323 230.238 18.4708 230.53 18.3478C230.828 18.2196 231.053 18.0376 231.207 17.8018C231.361 17.5608 231.438 17.2711 231.438 16.9327C231.438 16.5585 231.366 16.2534 231.223 16.0176C231.079 15.7817 230.859 15.61 230.561 15.5023C230.269 15.3947 229.895 15.3408 229.438 15.3408H227.57V25H225.639V13.8027H229.438C230.054 13.8027 230.602 13.8617 231.084 13.9796C231.571 14.0975 231.984 14.2821 232.322 14.5333C232.666 14.7794 232.925 15.0922 233.099 15.4716C233.278 15.851 233.368 16.3021 233.368 16.8251C233.368 17.2865 233.258 17.7095 233.037 18.094C232.817 18.4734 232.491 18.7836 232.061 19.0245C231.63 19.2655 231.094 19.4091 230.453 19.4552L229.838 19.9397ZM229.754 25H226.378L227.247 23.4696H229.754C230.189 23.4696 230.553 23.3978 230.846 23.2543C231.138 23.1056 231.356 22.9031 231.499 22.6467C231.648 22.3853 231.722 22.0802 231.722 21.7316C231.722 21.3676 231.658 21.0522 231.53 20.7856C231.402 20.5139 231.199 20.3063 230.923 20.1627C230.646 20.014 230.284 19.9397 229.838 19.9397H227.67L227.685 18.5323H230.507L230.946 19.063C231.561 19.0835 232.066 19.2194 232.461 19.4706C232.861 19.7218 233.158 20.0474 233.353 20.4473C233.548 20.8472 233.645 21.2778 233.645 21.7393C233.645 22.4519 233.489 23.0492 233.176 23.5311C232.868 24.0131 232.425 24.3796 231.845 24.6309C231.266 24.877 230.569 25 229.754 25ZM243.235 23.4696V25H237.29V23.4696H243.235ZM237.836 13.8027V25H235.906V13.8027H237.836ZM242.458 18.4785V19.9858H237.29V18.4785H242.458ZM243.196 13.8027V15.3408H237.29V13.8027H243.196ZM245.126 13.8027H249.087C249.938 13.8027 250.663 13.9309 251.263 14.1873C251.863 14.4436 252.322 14.823 252.64 15.3254C252.963 15.8228 253.124 16.438 253.124 17.1711C253.124 17.73 253.022 18.2222 252.817 18.6477C252.612 19.0732 252.322 19.4321 251.948 19.7244C251.573 20.0115 251.127 20.2345 250.609 20.3934L250.025 20.678H246.464L246.449 19.1476H249.118C249.579 19.1476 249.963 19.0656 250.271 18.9015C250.579 18.7374 250.809 18.5144 250.963 18.2324C251.122 17.9453 251.202 17.6223 251.202 17.2634C251.202 16.8738 251.125 16.5354 250.971 16.2483C250.822 15.9561 250.592 15.733 250.279 15.5792C249.966 15.4203 249.569 15.3408 249.087 15.3408H247.056V25H245.126V13.8027ZM251.517 25L248.887 19.9705L250.909 19.9628L253.578 24.9V25H251.517Z" fill="white"/>
</g>
<defs>
<clipPath id="clip0_44_1876">
<rect width="262" height="40" rx="1.5" fill="white"/>
</clipPath>
</defs>
</svg>
