<svg width="130" height="90" viewBox="0 0 130 90" fill="none" xmlns="http://www.w3.org/2000/svg">
<g clip-path="url(#clip0_44_1855)">
<rect x="1.80841" y="1.80841" width="126.383" height="59.3832" fill="white"/>
<path d="M35.3894 49.3054C34.9804 49.3054 34.5791 49.251 34.1931 49.1461C33.5931 48.9829 33.0122 48.7109 32.3739 48.2912C32.2784 48.229 31.6707 47.7005 31.3306 47.4052L31.3229 47.3974C31.2579 47.343 31.2044 47.2964 31.1662 47.2614C30.7955 47.444 30.4439 47.6888 30.0999 47.9298C29.4081 48.4155 28.6896 48.9129 27.7686 48.9479C26.9774 48.979 26.1405 48.8508 25.1812 48.5593C25.0971 48.536 24.9098 48.4544 24.6041 48.33C24.2639 48.1863 23.7518 48.0075 23.5836 47.9375C23.5683 47.9298 23.5034 47.8909 23.4804 47.821C23.4575 47.7549 23.4575 47.65 23.469 47.6267C24.1034 47.1331 24.7149 46.5425 25.3073 45.9673C25.6971 45.5904 26.1022 45.1979 26.5073 44.8404C26.6488 44.716 26.7787 44.58 26.9048 44.4324L27.1112 44.1642C28.2043 42.6487 28.6629 40.1927 28.919 38.3663C29.1597 36.6642 29.0298 34.896 28.8884 33.3727C28.6285 30.5592 27.7456 28.5191 26.1825 27.1279C25.4563 26.4828 24.6423 25.9582 23.8703 25.4802L23.5339 25.2743C22.7466 24.7885 21.9364 24.2872 21.1988 23.6926C21.1147 23.6266 21.0803 23.5217 21.107 23.4206C21.2293 22.9388 23.2932 22.2626 23.3123 22.2587C23.683 22.2004 24.0843 22.1693 24.5353 22.1693C25.0474 22.1693 25.5595 22.2082 26.0411 22.2432C27.2144 22.3364 27.9711 22.8766 28.7775 23.4517C29.0604 23.6538 29.3508 23.8597 29.668 24.054L29.6986 24.0191C29.7942 23.8947 29.863 23.7432 29.9394 23.5838C30.0426 23.3623 30.1496 23.1331 30.3369 22.9465C30.7802 22.5074 31.3229 22.3869 31.751 22.3325C31.9077 22.3131 32.0491 22.3014 32.1905 22.3014C32.9778 22.3014 33.467 22.6279 34.0823 23.0476C34.1778 23.1097 34.2734 23.1758 34.3766 23.2457C34.6326 23.4128 34.8505 23.4983 35.0263 23.4983C35.3206 23.4983 35.4964 23.2729 35.7677 22.9038C36.0544 22.5113 36.3754 22.0683 36.9907 21.9944C37.6252 21.9206 38.1258 22.247 38.5615 22.5346C38.894 22.7522 39.2112 22.9621 39.5323 22.9621C39.7883 22.9621 40.0521 22.8299 40.3349 22.554C40.6827 22.2159 40.9731 21.9595 41.3247 21.9595C41.5732 21.9595 41.8216 22.0877 42.1044 22.3636L42.1694 22.4258C42.7809 23.0204 42.949 23.1875 43.7172 22.7717C44.302 22.4569 45.0472 22.2587 45.6664 22.2587C46.7212 22.2587 47.3748 22.8144 47.413 23.7742L47.3174 23.8014L47.1493 23.8559C47.0728 23.8869 47.0308 23.8947 46.962 23.9258C46.1441 24.1784 43.6714 25.5812 43.4229 25.7755C42.5936 26.4167 41.8139 27.2406 41.2292 28.0955C38.9628 31.3986 39.0049 36.1046 39.731 39.1318C40.1132 40.7251 40.6253 42.5826 41.5464 44.3119C41.9553 45.0813 42.4331 45.7963 42.9605 46.4375L43.014 46.5036C44.279 48.0464 44.558 48.1085 44.6383 48.1901C44.688 48.2407 44.7224 48.2756 44.73 48.3223C44.7415 48.4233 44.6307 48.501 44.5466 48.5477C44.4357 48.6059 44.3173 48.6448 44.195 48.672C44.0765 48.6992 44.0001 48.7109 43.8434 48.7381C43.7134 48.7614 43.5796 48.773 43.4459 48.7847C42.8726 48.8274 42.307 48.8508 41.7337 48.7925C41.3782 48.7536 41.0228 48.7109 40.6712 48.6448C40.247 48.5671 39.3488 48.3767 38.8482 48.0736L38.5195 48.2601C38.0035 48.6176 37.0557 49.014 36.9334 49.0567C36.4366 49.216 35.913 49.3054 35.3894 49.3054ZM31.449 47.0438C31.7701 47.3274 32.4771 47.9375 32.5574 47.992C33.165 48.3922 33.7116 48.6526 34.2772 48.8041C35.0913 49.0256 35.9894 48.9945 36.8379 48.7109C36.9487 48.6759 37.9271 48.2601 38.3743 47.9298L38.2749 47.7277C37.9042 46.9699 37.392 45.9324 37.1321 45.1668C37.0748 45.0036 37.0213 44.8482 36.9678 44.7044C36.6773 43.8922 36.4519 43.2471 36.4519 42.1124V41.1448L38.7068 47.2575C38.7603 47.3663 38.8099 47.4907 38.852 47.615H38.8558C39.0354 47.8754 39.9565 48.1474 40.7362 48.2912C42.0547 48.5321 43.2548 48.536 44.1988 48.2912C43.916 48.0619 43.4803 47.6072 42.7503 46.7212L42.6968 46.659C42.1541 46.0023 41.6649 45.2678 41.2407 44.4751C40.3005 42.7147 39.7807 40.8261 39.3947 39.2134C38.6533 36.1163 38.615 31.2937 40.9464 27.8934C41.5541 27.0074 42.3605 26.1564 43.2127 25.4919C43.4268 25.3248 46.2206 23.7587 47.0231 23.5722C46.8932 22.7794 46.2244 22.6046 45.6626 22.6046C45.0969 22.6046 44.4128 22.7833 43.8739 23.0748C42.8994 23.5994 42.5707 23.3002 41.9248 22.6745L41.8598 22.6123C41.6458 22.4064 41.47 22.3053 41.3171 22.3053C41.0954 22.3053 40.8547 22.5191 40.568 22.8027C40.2202 23.1408 39.8801 23.3079 39.5285 23.3079C39.1042 23.3079 38.7297 23.0631 38.3704 22.8261C37.9615 22.5579 37.5411 22.2781 37.0251 22.3403C36.5589 22.3947 36.3066 22.7406 36.0391 23.1097C35.7754 23.4711 35.504 23.8481 35.0225 23.8481C34.7779 23.8481 34.5027 23.747 34.1855 23.5411C34.0823 23.4711 33.9829 23.4051 33.8874 23.3429C33.2721 22.931 32.8669 22.6551 32.1828 22.6551C32.0605 22.6551 31.9268 22.6628 31.7892 22.6823C31.2274 22.7561 30.8643 22.9115 30.5738 23.1991C30.4324 23.3429 30.3407 23.5333 30.2451 23.7354C30.184 23.8675 30.119 24.0035 30.0349 24.1318C30.807 25.3792 31.2388 26.8753 31.3764 27.7963C31.6134 29.3896 31.2235 30.26 30.8528 31.1033L30.57 31.7406L29.6069 24.4232C29.2323 24.2056 28.896 23.9647 28.5712 23.7354C27.8068 23.1913 27.0845 22.6784 26.0067 22.5929C25.529 22.554 25.0245 22.5191 24.5276 22.5191C24.0957 22.5191 23.7136 22.5463 23.3581 22.6046C23.1479 22.6512 21.7453 23.1991 21.4701 23.4673C22.1733 24.0268 22.953 24.5087 23.7059 24.9711L24.0422 25.1771C24.8257 25.6629 25.6551 26.1952 26.4003 26.8597C28.0323 28.3092 28.9533 30.4271 29.2209 33.3339C29.3623 34.8766 29.4922 36.672 29.2476 38.409C29.0221 40.0217 28.6782 41.8792 27.9749 43.3482L29.733 41.7277C29.9088 41.5645 30.1458 41.3779 30.3369 41.2225L31.2847 40.4608L30.0311 42.365C29.7483 42.6254 29.5343 42.8313 29.3088 43.1577C29.0795 43.4919 28.7049 43.7756 28.4336 43.9855C28.1431 44.207 27.8221 44.3235 27.3749 44.3741C27.18 44.6422 26.9622 44.8831 26.7252 45.093C26.3239 45.4466 25.9226 45.8352 25.5366 46.2083C25.0206 46.7057 24.4932 47.2186 23.9391 47.6733C24.1187 47.7394 24.3671 47.8443 24.7264 47.992C24.9671 48.093 25.1964 48.1901 25.2691 48.2096C26.194 48.4894 26.9927 48.6137 27.7456 48.5865C28.5712 48.5554 29.2132 48.1085 29.8973 47.6306C30.2757 47.3663 30.6655 47.0943 31.0936 46.8961L33.016 39.4777V40.83C33.016 42.1668 32.9281 42.7458 32.802 43.422C32.7255 43.8378 32.5192 44.3702 32.3357 44.8443C32.2363 45.0969 32.1446 45.3378 32.0835 45.536C31.9726 45.8818 31.8618 46.1189 31.7166 46.422C31.6478 46.6046 31.556 46.7989 31.449 47.0438ZM36.9487 43.4803C37.0366 43.8533 37.1589 44.1953 37.3003 44.5917C37.3538 44.7393 37.4073 44.8948 37.4647 45.058C37.6022 45.466 37.8163 45.9557 38.0418 46.4414L36.9487 43.4803ZM32.6109 42.4583L32.0185 44.7432C32.0223 44.7355 32.0223 44.7277 32.0261 44.7238C32.2019 44.2653 32.4045 43.7445 32.4733 43.3637C32.5268 43.0722 32.5765 42.7924 32.6109 42.4583ZM29.3241 42.5943L27.9023 43.9039C28.0246 43.8533 28.1316 43.7912 28.2348 43.7134C28.4871 43.5191 28.8349 43.2549 29.0336 42.9673C29.1292 42.8235 29.2247 42.7031 29.3241 42.5943ZM30.0235 24.7885L30.7573 30.4582C31.0286 29.782 31.2197 29.0398 31.0439 27.8429C30.9293 27.0696 30.6006 25.8766 30.0235 24.7885ZM39.2456 45.4349C39.1042 45.1124 39.0316 44.786 38.9628 44.4712L38.9093 44.2303L38.7908 43.8145C38.7832 43.7795 38.7717 43.7484 38.7603 43.7134C38.6609 43.4414 38.531 43.2044 38.4048 42.9712C38.2596 42.7031 38.1105 42.4233 37.9997 42.0891C37.5793 40.8067 37.2965 39.6953 37.2965 38.444V37.1849L39.1386 43.7873C39.1768 43.9039 39.2112 44.0282 39.238 44.1487L39.5629 45.3106L39.2456 45.4349ZM35.1218 33.9673L36.0926 31.795C36.1881 31.4297 36.2531 30.9828 36.3219 30.5515C36.3945 30.0735 36.4633 29.6227 36.5742 29.3313C36.8952 28.4841 37.5946 27.9673 38.2672 27.4699C38.6074 27.2212 38.9246 26.9841 39.1998 26.7082L40.0788 25.8261L36.6773 31.9349C36.5436 32.3973 35.9283 33.6292 35.5231 33.8002L35.1218 33.9673ZM38.7068 27.5787C38.6265 27.637 38.5462 27.6991 38.466 27.7574C37.801 28.2471 37.1742 28.7095 36.8914 29.4595C36.7958 29.7121 36.7309 30.1473 36.6582 30.6059C36.6124 30.9168 36.5627 31.2315 36.5015 31.5346L38.7068 27.5787ZM39.8342 26.6771L40.0826 25.8688C40.2775 25.2315 40.8585 23.7393 41.9936 23.6732L42.3987 23.6499L39.8342 26.6771ZM41.4356 24.2522C41.2292 24.4077 41.0343 24.6369 40.8585 24.9323L41.4356 24.2522Z" fill="#212121"/>
<path d="M23.7327 48.6173C25.4296 51.7611 30.2146 52.4567 33.3561 52.5344C34.5562 52.5655 35.7677 52.4878 36.9563 52.3323C37.5908 52.2468 38.1908 52.0642 38.8443 51.8777C39.9641 51.5551 41.084 51.2015 42.1426 50.7041C43.0866 50.2572 44.4243 49.7986 44.7071 48.5745C44.1988 49.4256 40.0979 48.9398 39.4788 48.6367C39.0928 48.4463 39.131 48.3802 38.8138 48.6911C37.8315 49.6587 36.1002 49.9696 34.8161 49.7287C33.7804 49.5344 32.3816 48.7144 31.5484 48.0577C31.2273 47.8012 31.3802 47.673 30.9331 47.8867C29.9317 48.3608 29.2209 48.9981 28.0705 49.1885C26.8704 49.3867 25.7544 49.1691 24.4168 48.5668C24.0843 48.4191 23.9505 48.3997 23.5721 48.1432L23.7327 48.6173Z" fill="#212121"/>
<path d="M21.2446 22.9735C23.2588 20.195 26.5761 19.1963 29.6986 18.318C31.2885 17.8711 32.6109 17.5952 34.2887 17.5952C35.7524 17.5952 37.178 17.945 38.6036 18.2364C40.0368 18.5279 41.5044 18.7571 42.7732 19.5421C43.5911 20.0473 44.5542 20.3154 45.3721 20.8323C45.6473 21.0071 46.6142 21.2403 46.4919 21.6639C46.3161 22.2662 44.8867 21.6989 44.4357 21.932C43.9465 22.1846 43.3006 22.6548 42.7427 22.4916C42.2076 22.3362 42.0547 21.695 41.4547 21.6328C40.5374 21.5395 40.354 22.5305 39.4367 22.4605C38.7412 22.4061 37.9424 21.524 37.2392 21.5706C36.5742 21.6134 35.8518 22.3401 35.3588 22.7092C34.453 23.3932 34.0632 22.4411 33.2873 22.1263C32.8249 21.9398 32.6453 21.8854 32.137 21.8854C30.8643 21.8854 30.0884 22.4605 29.3661 23.4864C29.6107 23.1367 27.9979 22.3634 27.8374 22.3167C27.1609 22.1263 26.4577 21.8388 25.7583 21.8271C23.9926 21.796 22.7466 21.8465 21.2446 22.9735Z" fill="#212121"/>
<path d="M34.4072 8.05499C34.0594 7.58478 33.6313 7.77131 33.0848 7.79851C32.7905 8.63012 33.0619 9.33738 33.2109 10.0407C33.3753 10.818 33.5167 11.6146 33.6543 12.3452C33.8033 13.1185 33.8606 13.9268 33.9027 14.7778C33.9218 15.1936 33.9409 15.6638 33.853 16.0602C33.7727 16.4177 33.532 16.6586 33.467 17.0084C34.1587 16.989 34.904 17.0045 35.6111 16.9656C35.6149 16.612 35.3856 16.2623 35.3015 15.9281C35.2059 15.5434 35.2671 15.1742 35.225 14.7778C35.1563 14.1172 34.9957 13.4682 34.9231 12.7649C34.7588 11.2104 34.5027 9.64826 34.4072 8.05499Z" fill="#212121"/>
<path d="M46.6754 10.9537C44.7798 10.9848 42.7045 11.0781 40.9502 12.0807C40.1285 12.547 39.5438 13.1338 38.7756 13.7089C38.3896 14.0004 37.9959 14.2568 37.545 14.4861C37.0901 14.7154 36.5513 14.7543 36.1309 15.0107L36.3525 15.5276C36.922 15.3644 37.0443 15.2672 37.629 15.2322C38.2061 15.1973 38.7565 15.1001 39.3871 15.1623C39.9795 15.2206 40.6674 15.2089 41.2331 15.3644C41.8942 15.547 42.7351 15.547 43.4115 15.6014C44.7606 15.7063 46.4155 15.4071 47.7646 15.1195C48.7354 14.9097 50.031 14.4861 50.7763 13.7439C51.0897 13.4291 51.254 13.1221 51.6285 12.7685C51.984 12.4304 52.5343 11.7542 52.798 11.3618C53.0579 10.9732 53.2949 10.7361 53.5395 10.3164C53.7535 9.95113 54.1586 9.18558 54.1663 8.72314C52.3318 10.8216 49.1787 10.911 46.6754 10.9537Z" fill="#212121"/>
<path d="M61.8433 39.3446C61.7093 41.2744 61.0235 42.7937 59.7858 43.9023C58.556 45.011 56.932 45.5653 54.9139 45.5653C52.7065 45.5653 50.9682 44.7934 49.699 43.2495C48.4377 41.6974 47.807 39.5704 47.807 36.8686V35.7723C47.807 34.0477 48.0987 32.5285 48.6821 31.2145C49.2654 29.9006 50.0971 28.8946 51.1771 28.1966C52.265 27.4903 53.5264 27.1372 54.9612 27.1372C56.9478 27.1372 58.5481 27.6915 59.7621 28.8002C60.9762 29.9088 61.6778 31.465 61.867 33.4688H58.3195C58.2328 32.3109 57.9214 31.4732 57.3853 30.9559C56.8571 30.4303 56.0491 30.1675 54.9612 30.1675C53.7787 30.1675 52.8918 30.611 52.3005 31.4979C51.7172 32.3766 51.4176 33.7439 51.4018 35.5998V36.9548C51.4018 38.8929 51.6817 40.3095 52.2414 41.2046C52.809 42.0998 53.6998 42.5473 54.9139 42.5473C56.0096 42.5473 56.8256 42.2886 57.3616 41.7713C57.9056 41.2457 58.217 40.4368 58.2958 39.3446H61.8433Z" fill="#212121"/>
<path d="M78.3156 36.7578C78.3156 38.5234 78.0161 40.0714 77.4169 41.4017C76.8178 42.7321 75.9585 43.7586 74.8391 44.4813C73.7275 45.204 72.4504 45.5653 71.0078 45.5653C69.5809 45.5653 68.3077 45.2081 67.1883 44.4936C66.0688 43.7792 65.2017 42.7608 64.5868 41.4387C63.9718 40.1083 63.6605 38.5809 63.6526 36.8563V35.9694C63.6526 34.2038 63.9561 32.6517 64.5631 31.3131C65.178 29.9663 66.0412 28.9357 67.1528 28.2212C68.2722 27.4985 69.5493 27.1372 70.9841 27.1372C72.4189 27.1372 73.692 27.4985 74.8036 28.2212C75.923 28.9357 76.7863 29.9663 77.3933 31.3131C78.0082 32.6517 78.3156 34.1997 78.3156 35.9571V36.7578ZM74.7208 35.9447C74.7208 34.0642 74.3976 32.6352 73.7512 31.658C73.1047 30.6808 72.1824 30.1921 70.9841 30.1921C69.7937 30.1921 68.8753 30.6766 68.2289 31.6457C67.5824 32.6065 67.2553 34.019 67.2474 35.8832V36.7578C67.2474 38.5891 67.5706 40.0098 68.217 41.0199C68.8635 42.03 69.7937 42.535 71.0078 42.535C72.1981 42.535 73.1126 42.0505 73.7512 41.0815C74.3897 40.1042 74.7129 38.6835 74.7208 36.8193V35.9447Z" fill="#212121"/>
<path d="M87.2672 38.7533H84.441V45.3189H80.8935V27.3836H87.2908C89.3247 27.3836 90.8935 27.8558 91.9972 28.8002C93.1009 29.7446 93.6527 31.079 93.6527 32.8036C93.6527 34.0272 93.3965 35.0496 92.8841 35.8708C92.3796 36.6838 91.6109 37.3326 90.5782 37.8171L94.3031 45.1465V45.3189H90.4954L87.2672 38.7533ZM84.441 35.76H87.3027C88.1935 35.76 88.8833 35.5259 89.3721 35.0578C89.8608 34.5815 90.1052 33.9287 90.1052 33.0992C90.1052 32.2534 89.8726 31.5882 89.4075 31.1037C88.9503 30.6192 88.2447 30.3769 87.2908 30.3769H84.441V35.76Z" fill="#212121"/>
<path d="M106.719 37.5461H99.9082V42.3502H107.902V45.3189H96.3607V27.3836H107.878V30.3769H99.9082V34.6513H106.719V37.5461Z" fill="#212121"/>
<rect x="1.80841" y="1.80841" width="126.383" height="59.3832" stroke="#B75400" stroke-width="3.61682"/>
<rect width="130" height="27" transform="translate(0 63)" fill="#B75400"/>
<path d="M11.8218 77.3313C11.8218 77.1966 11.801 77.0757 11.7596 76.9687C11.7216 76.8582 11.6491 76.758 11.542 76.6682C11.4349 76.5749 11.2847 76.4834 11.0913 76.3936C10.8979 76.3038 10.6475 76.2106 10.3401 76.1139C9.99816 76.0033 9.67351 75.879 9.36612 75.7409C9.06219 75.6027 8.79279 75.4421 8.55793 75.259C8.32653 75.0725 8.14347 74.8567 8.00878 74.6115C7.87753 74.3662 7.81191 74.0813 7.81191 73.7566C7.81191 73.4424 7.88099 73.1574 8.01914 72.9018C8.15729 72.6428 8.3507 72.4218 8.59938 72.2387C8.84805 72.0522 9.14162 71.9089 9.48009 71.8087C9.82202 71.7085 10.1968 71.6585 10.6043 71.6585C11.1604 71.6585 11.6456 71.7586 12.0601 71.9589C12.4745 72.1593 12.7957 72.4338 13.0237 72.7827C13.2551 73.1315 13.3708 73.5304 13.3708 73.9794H11.827C11.827 73.7584 11.7803 73.565 11.6871 73.3992C11.5973 73.2299 11.4591 73.097 11.2726 73.0003C11.0896 72.9036 10.8582 72.8552 10.5784 72.8552C10.309 72.8552 10.0845 72.8966 9.90491 72.9795C9.72531 73.059 9.59062 73.1678 9.50082 73.3059C9.41102 73.4406 9.36612 73.5926 9.36612 73.7618C9.36612 73.8896 9.3972 74.0053 9.45937 74.1089C9.52499 74.2125 9.6217 74.3093 9.74949 74.3991C9.87728 74.4889 10.0344 74.5735 10.2209 74.6529C10.4074 74.7323 10.6233 74.8101 10.8685 74.886C11.2795 75.0104 11.6404 75.1503 11.9513 75.3057C12.2656 75.4611 12.5281 75.6355 12.7388 75.8289C12.9494 76.0223 13.1083 76.2417 13.2154 76.4869C13.3224 76.7321 13.376 77.0101 13.376 77.321C13.376 77.6491 13.3121 77.9427 13.1843 78.2017C13.0565 78.4607 12.8717 78.68 12.63 78.8596C12.3882 79.0392 12.0998 79.1757 11.7648 79.2689C11.4298 79.3622 11.055 79.4088 10.6406 79.4088C10.2676 79.4088 9.89973 79.3604 9.53708 79.2637C9.17443 79.1636 8.8446 79.0133 8.54757 78.813C8.254 78.6127 8.01914 78.3571 7.84299 78.0463C7.66685 77.7354 7.57878 77.3676 7.57878 76.9428H9.13817C9.13817 77.1776 9.17443 77.3762 9.24696 77.5386C9.31949 77.7009 9.42138 77.8321 9.55262 77.9323C9.68732 78.0325 9.8462 78.105 10.0292 78.1499C10.2158 78.1948 10.4195 78.2172 10.6406 78.2172C10.91 78.2172 11.131 78.1792 11.3037 78.1033C11.4798 78.0273 11.6094 77.9219 11.6923 77.7872C11.7786 77.6525 11.8218 77.5006 11.8218 77.3313ZM18.8103 71.7621H20.3594V76.7459C20.3594 77.3261 20.235 77.8149 19.9863 78.212C19.7411 78.6092 19.4009 78.908 18.9657 79.1083C18.534 79.3086 18.0367 79.4088 17.4737 79.4088C16.9107 79.4088 16.4099 79.3086 15.9713 79.1083C15.5361 78.908 15.1942 78.6092 14.9455 78.212C14.7003 77.8149 14.5777 77.3261 14.5777 76.7459V71.7621H16.1319V76.7459C16.1319 77.0844 16.1854 77.3607 16.2925 77.5748C16.3996 77.789 16.5533 77.9461 16.7536 78.0463C16.9574 78.1464 17.1974 78.1965 17.4737 78.1965C17.7569 78.1965 17.997 78.1464 18.1938 78.0463C18.3941 77.9461 18.5461 77.789 18.6497 77.5748C18.7568 77.3607 18.8103 77.0844 18.8103 76.7459V71.7621ZM24.7886 76.6164H22.8666V75.4041H24.7886C25.0857 75.4041 25.3274 75.3558 25.5139 75.259C25.7005 75.1589 25.8369 75.0207 25.9232 74.8446C26.0096 74.6684 26.0527 74.4699 26.0527 74.2488C26.0527 74.0243 26.0096 73.8154 25.9232 73.6219C25.8369 73.4285 25.7005 73.2731 25.5139 73.1557C25.3274 73.0383 25.0857 72.9795 24.7886 72.9795H23.4054V79.3052H21.8512V71.7621H24.7886C25.3792 71.7621 25.8852 71.8691 26.3066 72.0833C26.7314 72.294 27.0561 72.5858 27.2806 72.9588C27.5051 73.3318 27.6173 73.7584 27.6173 74.2385C27.6173 74.7254 27.5051 75.1468 27.2806 75.5025C27.0561 75.8583 26.7314 76.1329 26.3066 76.3263C25.8852 76.5197 25.3792 76.6164 24.7886 76.6164ZM31.8394 76.6164H29.9173V75.4041H31.8394C32.1364 75.4041 32.3782 75.3558 32.5647 75.259C32.7512 75.1589 32.8876 75.0207 32.9739 74.8446C33.0603 74.6684 33.1035 74.4699 33.1035 74.2488C33.1035 74.0243 33.0603 73.8154 32.9739 73.6219C32.8876 73.4285 32.7512 73.2731 32.5647 73.1557C32.3782 73.0383 32.1364 72.9795 31.8394 72.9795H30.4561V79.3052H28.9019V71.7621H31.8394C32.43 71.7621 32.936 71.8691 33.3573 72.0833C33.7821 72.294 34.1068 72.5858 34.3313 72.9588C34.5558 73.3318 34.668 73.7584 34.668 74.2385C34.668 74.7254 34.5558 75.1468 34.3313 75.5025C34.1068 75.8583 33.7821 76.1329 33.3573 76.3263C32.936 76.5197 32.43 76.6164 31.8394 76.6164ZM42.1488 75.3575V75.715C42.1488 76.2883 42.071 76.8029 41.9156 77.2588C41.7602 77.7147 41.5409 78.1033 41.2577 78.4245C40.9745 78.7422 40.636 78.9857 40.2423 79.1549C39.852 79.3242 39.4185 79.4088 38.9419 79.4088C38.4687 79.4088 38.0353 79.3242 37.6416 79.1549C37.2513 78.9857 36.9128 78.7422 36.6261 78.4245C36.3395 78.1033 36.1167 77.7147 35.9578 77.2588C35.8024 76.8029 35.7247 76.2883 35.7247 75.715V75.3575C35.7247 74.7807 35.8024 74.2661 35.9578 73.8136C36.1132 73.3577 36.3326 72.9692 36.6158 72.648C36.9024 72.3268 37.2409 72.0816 37.6312 71.9123C38.0249 71.7431 38.4584 71.6585 38.9315 71.6585C39.4082 71.6585 39.8416 71.7431 40.2319 71.9123C40.6256 72.0816 40.9641 72.3268 41.2473 72.648C41.534 72.9692 41.755 73.3577 41.9104 73.8136C42.0693 74.2661 42.1488 74.7807 42.1488 75.3575ZM40.579 75.715V75.3471C40.579 74.9465 40.5427 74.5942 40.4702 74.2903C40.3977 73.9863 40.2906 73.7307 40.149 73.5235C40.0074 73.3163 39.8347 73.1609 39.6309 73.0573C39.4272 72.9502 39.194 72.8966 38.9315 72.8966C38.6691 72.8966 38.4359 72.9502 38.2322 73.0573C38.0318 73.1609 37.8609 73.3163 37.7193 73.5235C37.5811 73.7307 37.4758 73.9863 37.4032 74.2903C37.3307 74.5942 37.2944 74.9465 37.2944 75.3471V75.715C37.2944 76.1121 37.3307 76.4644 37.4032 76.7718C37.4758 77.0757 37.5828 77.3331 37.7244 77.5437C37.866 77.751 38.0387 77.9081 38.2425 78.0152C38.4463 78.1222 38.6794 78.1758 38.9419 78.1758C39.2044 78.1758 39.4375 78.1222 39.6413 78.0152C39.8451 77.9081 40.016 77.751 40.1542 77.5437C40.2923 77.3331 40.3977 77.0757 40.4702 76.7718C40.5427 76.4644 40.579 76.1121 40.579 75.715ZM43.48 71.7621H46.2931C46.8699 71.7621 47.3655 71.8484 47.78 72.0211C48.1979 72.1938 48.5191 72.4494 48.7436 72.7879C48.9681 73.1263 49.0803 73.5425 49.0803 74.0364C49.0803 74.4405 49.0113 74.7876 48.8731 75.0777C48.7384 75.3644 48.5467 75.6044 48.298 75.7978C48.0528 75.9878 47.7644 76.1398 47.4329 76.2537L46.9407 76.5128H44.4954L44.4851 75.3005H46.3035C46.5763 75.3005 46.8026 75.2521 46.9821 75.1554C47.1617 75.0587 47.2964 74.924 47.3862 74.7513C47.4795 74.5787 47.5261 74.3783 47.5261 74.1504C47.5261 73.9086 47.4812 73.6997 47.3914 73.5235C47.3016 73.3474 47.1652 73.2127 46.9821 73.1194C46.7991 73.0262 46.5694 72.9795 46.2931 72.9795H45.0342V79.3052H43.48V71.7621ZM47.6971 79.3052L45.9771 75.9429L47.6194 75.9325L49.3601 79.2326V79.3052H47.6971ZM53.5511 71.7621V79.3052H52.002V71.7621H53.5511ZM55.872 71.7621V72.9795H49.7173V71.7621H55.872ZM58.6228 71.7621V79.3052H57.0737V71.7621H58.6228ZM66.4299 71.7621V79.3052H64.8757L61.845 74.2488V79.3052H60.2907V71.7621H61.845L64.8808 76.8236V71.7621H66.4299ZM73.9728 75.3627V78.3519C73.8553 78.4935 73.674 78.6472 73.4288 78.813C73.1836 78.9753 72.8676 79.1152 72.4807 79.2326C72.0939 79.3501 71.6259 79.4088 71.0768 79.4088C70.5898 79.4088 70.146 79.3294 69.7453 79.1705C69.3447 79.0081 68.9993 78.7716 68.7092 78.4607C68.4225 78.1499 68.2015 77.77 68.046 77.321C67.8906 76.8685 67.8129 76.3522 67.8129 75.7719V75.3005C67.8129 74.7203 67.8872 74.2039 68.0357 73.7515C68.1877 73.299 68.4035 72.9174 68.6833 72.6065C68.963 72.2957 69.2963 72.0591 69.6831 71.8968C70.07 71.7344 70.5 71.6533 70.9731 71.6533C71.6294 71.6533 72.1682 71.7603 72.5895 71.9745C73.0109 72.1852 73.3321 72.4787 73.5531 72.8552C73.7776 73.2282 73.9158 73.6565 73.9676 74.14H72.46C72.422 73.8844 72.3495 73.6617 72.2424 73.4717C72.1353 73.2817 71.9817 73.1332 71.7813 73.0262C71.5845 72.9191 71.3289 72.8656 71.0146 72.8656C70.7556 72.8656 70.5241 72.9191 70.3204 73.0262C70.1201 73.1298 69.9508 73.2835 69.8127 73.4872C69.6745 73.691 69.5692 73.9432 69.4966 74.2436C69.4241 74.5441 69.3878 74.8929 69.3878 75.2901V75.7719C69.3878 76.1657 69.4258 76.5145 69.5018 76.8184C69.5778 77.1189 69.6901 77.3728 69.8386 77.58C69.9905 77.7838 70.177 77.9375 70.3981 78.0411C70.6191 78.1447 70.8764 78.1965 71.17 78.1965C71.4152 78.1965 71.619 78.1758 71.7813 78.1343C71.9471 78.0929 72.0801 78.0428 72.1802 77.9841C72.2839 77.9219 72.3633 77.8632 72.4186 77.808V76.4713H70.999V75.3627H73.9728ZM79.0028 71.7621H80.3187L82.2563 77.3002L84.1939 71.7621H85.5098L82.7847 79.3052H81.7279L79.0028 71.7621ZM78.2931 71.7621H79.6038L79.8421 77.1604V79.3052H78.2931V71.7621ZM84.9088 71.7621H86.2247V79.3052H84.6705V77.1604L84.9088 71.7621ZM92.861 78.0929V79.3052H88.8459V78.0929H92.861ZM89.3536 71.7621V79.3052H87.7994V71.7621H89.3536ZM92.3377 74.8342V76.0154H88.8459V74.8342H92.3377ZM92.8558 71.7621V72.9795H88.8459V71.7621H92.8558ZM94.6896 71.7621H96.0054L97.943 77.3002L99.8806 71.7621H101.197L98.4715 79.3052H97.4146L94.6896 71.7621ZM93.9798 71.7621H95.2905L95.5288 77.1604V79.3052H93.9798V71.7621ZM100.596 71.7621H101.911V79.3052H100.357V77.1604L100.596 71.7621ZM106.439 75.9947H104.502L104.491 74.9275H106.118C106.405 74.9275 106.639 74.8912 106.823 74.8187C107.006 74.7427 107.142 74.6339 107.232 74.4923C107.325 74.3472 107.372 74.1711 107.372 73.9639C107.372 73.729 107.327 73.5391 107.237 73.394C107.151 73.2489 107.014 73.1436 106.828 73.078C106.645 73.0124 106.408 72.9795 106.118 72.9795H105.04V79.3052H103.486V71.7621H106.118C106.557 71.7621 106.949 71.8035 107.294 71.8864C107.643 71.9693 107.938 72.0954 108.18 72.2646C108.422 72.4338 108.606 72.648 108.734 72.907C108.862 73.1626 108.926 73.4665 108.926 73.8188C108.926 74.1297 108.855 74.4163 108.714 74.6788C108.575 74.9413 108.356 75.1554 108.056 75.3212C107.759 75.487 107.37 75.5785 106.89 75.5958L106.439 75.9947ZM106.372 79.3052H104.077L104.683 78.0929H106.372C106.645 78.0929 106.867 78.0497 107.04 77.9634C107.213 77.8736 107.341 77.7527 107.424 77.6007C107.506 77.4488 107.548 77.2743 107.548 77.0775C107.548 76.8564 107.51 76.6647 107.434 76.5024C107.361 76.3401 107.244 76.2158 107.082 76.1294C106.919 76.0396 106.705 75.9947 106.439 75.9947H104.942L104.952 74.9275H106.817L107.175 75.3471C107.634 75.3402 108.004 75.4214 108.284 75.5906C108.567 75.7564 108.772 75.9723 108.9 76.2382C109.031 76.5041 109.097 76.7891 109.097 77.093C109.097 77.5765 108.992 77.9841 108.781 78.3157C108.57 78.6438 108.261 78.8907 107.854 79.0565C107.449 79.2223 106.956 79.3052 106.372 79.3052ZM115.536 78.0929V79.3052H111.521V78.0929H115.536ZM112.029 71.7621V79.3052H110.475V71.7621H112.029ZM115.013 74.8342V76.0154H111.521V74.8342H115.013ZM115.531 71.7621V72.9795H111.521V71.7621H115.531ZM116.655 71.7621H119.468C120.045 71.7621 120.541 71.8484 120.955 72.0211C121.373 72.1938 121.694 72.4494 121.919 72.7879C122.143 73.1263 122.255 73.5425 122.255 74.0364C122.255 74.4405 122.186 74.7876 122.048 75.0777C121.914 75.3644 121.722 75.6044 121.473 75.7978C121.228 75.9878 120.94 76.1398 120.608 76.2537L120.116 76.5128H117.671L117.66 75.3005H119.479C119.751 75.3005 119.978 75.2521 120.157 75.1554C120.337 75.0587 120.472 74.924 120.561 74.7513C120.655 74.5787 120.701 74.3783 120.701 74.1504C120.701 73.9086 120.656 73.6997 120.567 73.5235C120.477 73.3474 120.34 73.2127 120.157 73.1194C119.974 73.0262 119.745 72.9795 119.468 72.9795H118.209V79.3052H116.655V71.7621ZM120.872 79.3052L119.152 75.9429L120.794 75.9325L122.535 79.2326V79.3052H120.872Z" fill="white"/>
</g>
<defs>
<clipPath id="clip0_44_1855">
<rect width="130" height="90" rx="1.5" fill="white"/>
</clipPath>
</defs>
</svg>
