<svg width="188" height="40" viewBox="0 0 188 40" fill="none" xmlns="http://www.w3.org/2000/svg">
<g clip-path="url(#clip0_44_1844)">
<rect width="108" height="40" fill="#B75400"/>
<path d="M12.1992 13.8027V25H10.2689V13.8027H12.1992ZM23.7961 13.8027V25H21.8658L16.8439 16.9789V25H14.9136V13.8027H16.8439L21.8812 21.8392V13.8027H23.7961ZM29.6636 25H27.2718L27.2872 23.4696H29.6636C30.3557 23.4696 30.9351 23.3184 31.4016 23.0159C31.8733 22.7134 32.227 22.2802 32.4629 21.7162C32.7039 21.1522 32.8243 20.4806 32.8243 19.7013V19.0937C32.8243 18.4888 32.7551 17.953 32.6167 17.4864C32.4834 17.0199 32.2834 16.6277 32.0168 16.3098C31.7554 15.9919 31.4324 15.751 31.0478 15.5869C30.6685 15.4229 30.2301 15.3408 29.7328 15.3408H27.2257V13.8027H29.7328C30.4762 13.8027 31.1555 13.9283 31.7707 14.1796C32.386 14.4257 32.9166 14.782 33.3627 15.2485C33.8138 15.7151 34.1599 16.2739 34.4009 16.925C34.6418 17.5762 34.7623 18.3042 34.7623 19.1091V19.7013C34.7623 20.5062 34.6418 21.2343 34.4009 21.8854C34.1599 22.5365 33.8138 23.0953 33.3627 23.5619C32.9115 24.0233 32.3732 24.3796 31.7477 24.6309C31.1273 24.877 30.4326 25 29.6636 25ZM28.3408 13.8027V25H26.4105V13.8027H28.3408ZM44.3443 23.4696V25H38.3996V23.4696H44.3443ZM38.9456 13.8027V25H37.0153V13.8027H38.9456ZM43.5676 18.4785V19.9858H38.3996V18.4785H43.5676ZM44.3058 13.8027V15.3408H38.3996V13.8027H44.3058ZM47.7047 13.8027L50.081 17.8864L52.4574 13.8027H54.6799L51.2961 19.3475L54.7645 25H52.5189L50.081 20.8395L47.6432 25H45.3899L48.866 19.3475L45.4745 13.8027H47.7047ZM63.8312 23.4696V25H57.8865V23.4696H63.8312ZM58.4325 13.8027V25H56.5023V13.8027H58.4325ZM63.0545 18.4785V19.9858H57.8865V18.4785H63.0545ZM63.7928 13.8027V15.3408H57.8865V13.8027H63.7928ZM68.9758 25H66.5841L66.5995 23.4696H68.9758C69.668 23.4696 70.2473 23.3184 70.7139 23.0159C71.1855 22.7134 71.5393 22.2802 71.7751 21.7162C72.0161 21.1522 72.1366 20.4806 72.1366 19.7013V19.0937C72.1366 18.4888 72.0674 17.953 71.9289 17.4864C71.7956 17.0199 71.5957 16.6277 71.3291 16.3098C71.0676 15.9919 70.7446 15.751 70.3601 15.5869C69.9807 15.4229 69.5424 15.3408 69.045 15.3408H66.538V13.8027H69.045C69.7884 13.8027 70.4678 13.9283 71.083 14.1796C71.6982 14.4257 72.2289 14.782 72.6749 15.2485C73.1261 15.7151 73.4722 16.2739 73.7131 16.925C73.9541 17.5762 74.0746 18.3042 74.0746 19.1091V19.7013C74.0746 20.5062 73.9541 21.2343 73.7131 21.8854C73.4722 22.5365 73.1261 23.0953 72.6749 23.5619C72.2237 24.0233 71.6854 24.3796 71.0599 24.6309C70.4396 24.877 69.7449 25 68.9758 25ZM67.6531 13.8027V25H65.7228V13.8027H67.6531ZM84.7637 19.9397H81.9105L81.8951 18.5323H84.3868C84.8072 18.5323 85.1636 18.4708 85.4558 18.3478C85.7532 18.2196 85.9787 18.0376 86.1326 17.8018C86.2864 17.5608 86.3633 17.2711 86.3633 16.9327C86.3633 16.5585 86.2915 16.2534 86.1479 16.0176C86.0044 15.7817 85.7839 15.61 85.4866 15.5023C85.1943 15.3947 84.8201 15.3408 84.3638 15.3408H82.495V25H80.5647V13.8027H84.3638C84.979 13.8027 85.5276 13.8617 86.0095 13.9796C86.4966 14.0975 86.9093 14.2821 87.2477 14.5333C87.5912 14.7794 87.8501 15.0922 88.0244 15.4716C88.2038 15.851 88.2936 16.3021 88.2936 16.8251C88.2936 17.2865 88.1833 17.7095 87.9629 18.094C87.7424 18.4734 87.4169 18.7836 86.9862 19.0245C86.5555 19.2655 86.0198 19.4091 85.3789 19.4552L84.7637 19.9397ZM84.6791 25H81.303L82.172 23.4696H84.6791C85.1149 23.4696 85.4789 23.3978 85.7711 23.2543C86.0633 23.1056 86.2812 22.9031 86.4248 22.6467C86.5735 22.3853 86.6478 22.0802 86.6478 21.7316C86.6478 21.3676 86.5837 21.0522 86.4556 20.7856C86.3274 20.5139 86.1249 20.3063 85.848 20.1627C85.5712 20.014 85.2097 19.9397 84.7637 19.9397H82.595L82.6103 18.5323H85.4327L85.8711 19.063C86.4863 19.0835 86.9913 19.2194 87.3861 19.4706C87.786 19.7218 88.0834 20.0474 88.2782 20.4473C88.473 20.8472 88.5704 21.2778 88.5704 21.7393C88.5704 22.4519 88.414 23.0492 88.1013 23.5311C87.7937 24.0131 87.3502 24.3796 86.7709 24.6309C86.1915 24.877 85.4942 25 84.6791 25ZM91.4694 13.8027L94.0688 19.1476L96.6681 13.8027H98.8061L95.0378 20.8779V25H93.0921V20.8779L89.3238 13.8027H91.4694Z" fill="white"/>
<rect x="109.125" y="1.125" width="77.75" height="37.75" fill="white"/>
<path d="M130.015 30.6724C129.761 30.6724 129.511 30.6385 129.271 30.5733C128.898 30.4717 128.537 30.3025 128.14 30.0414C128.08 30.0027 127.702 29.674 127.491 29.4902L127.486 29.4854C127.445 29.4516 127.412 29.4225 127.388 29.4008C127.158 29.5144 126.939 29.6667 126.725 29.8166C126.295 30.1188 125.848 30.4282 125.275 30.45C124.782 30.4693 124.262 30.3895 123.665 30.2082C123.613 30.1937 123.496 30.1429 123.306 30.0656C123.094 29.9761 122.776 29.8649 122.671 29.8214C122.662 29.8166 122.621 29.7924 122.607 29.7489C122.593 29.7078 122.593 29.6425 122.6 29.628C122.995 29.321 123.375 28.9536 123.743 28.5958C123.986 28.3613 124.238 28.1171 124.49 27.8947C124.578 27.8173 124.659 27.7327 124.737 27.6409L124.866 27.4741C125.546 26.5312 125.831 25.0034 125.99 23.8672C126.14 22.8083 126.059 21.7084 125.971 20.7608C125.81 19.0105 125.26 17.7413 124.288 16.8759C123.836 16.4746 123.33 16.1482 122.85 15.8509L122.64 15.7227C122.151 15.4206 121.646 15.1087 121.188 14.7388C121.135 14.6977 121.114 14.6325 121.131 14.5696C121.207 14.2698 122.491 13.8492 122.502 13.8468C122.733 13.8105 122.983 13.7912 123.263 13.7912C123.582 13.7912 123.9 13.8154 124.2 13.8371C124.93 13.8951 125.401 14.2312 125.902 14.589C126.078 14.7147 126.259 14.8428 126.456 14.9637L126.475 14.9419C126.535 14.8645 126.578 14.7703 126.625 14.6711C126.689 14.5334 126.756 14.3907 126.872 14.2747C127.148 14.0015 127.486 13.9266 127.752 13.8927C127.85 13.8806 127.937 13.8734 128.025 13.8734C128.515 13.8734 128.82 14.0764 129.202 14.3375C129.262 14.3762 129.321 14.4173 129.385 14.4608C129.545 14.5648 129.68 14.618 129.79 14.618C129.973 14.618 130.082 14.4777 130.251 14.2481C130.429 14.0039 130.629 13.7283 131.012 13.6824C131.406 13.6365 131.718 13.8395 131.989 14.0184C132.196 14.1538 132.393 14.2844 132.593 14.2844C132.752 14.2844 132.916 14.2022 133.092 14.0305C133.308 13.8202 133.489 13.6606 133.708 13.6606C133.862 13.6606 134.017 13.7404 134.193 13.9121L134.233 13.9507C134.614 14.3206 134.718 14.4246 135.196 14.1659C135.56 13.9701 136.024 13.8468 136.409 13.8468C137.065 13.8468 137.472 14.1925 137.495 14.7896L137.436 14.8065L137.331 14.8404C137.284 14.8597 137.258 14.8645 137.215 14.8839C136.706 15.041 135.168 15.9137 135.013 16.0346C134.497 16.4335 134.012 16.946 133.648 17.4778C132.238 19.5327 132.265 22.4602 132.716 24.3434C132.954 25.3346 133.273 26.4902 133.846 27.5659C134.1 28.0446 134.397 28.4894 134.725 28.8883L134.759 28.9294C135.546 29.8891 135.719 29.9278 135.769 29.9786C135.8 30.01 135.821 30.0317 135.826 30.0608C135.833 30.1236 135.764 30.172 135.712 30.201C135.643 30.2372 135.569 30.2614 135.493 30.2783C135.42 30.2952 135.372 30.3025 135.275 30.3194C135.194 30.3339 135.111 30.3412 135.027 30.3484C134.671 30.375 134.319 30.3895 133.962 30.3533C133.741 30.3291 133.52 30.3025 133.301 30.2614C133.037 30.2131 132.479 30.0946 132.167 29.906L131.963 30.0221C131.642 30.2445 131.052 30.4911 130.976 30.5177C130.667 30.6168 130.341 30.6724 130.015 30.6724ZM127.564 29.2654C127.764 29.4419 128.204 29.8214 128.254 29.8553C128.632 30.1043 128.972 30.2662 129.324 30.3605C129.83 30.4983 130.389 30.479 130.917 30.3025C130.986 30.2807 131.594 30.0221 131.872 29.8166L131.811 29.6909C131.58 29.2195 131.261 28.574 131.1 28.0978C131.064 27.9962 131.031 27.8995 130.997 27.8101C130.817 27.3048 130.676 26.9035 130.676 26.1976V25.5957L132.079 29.3984C132.112 29.4661 132.143 29.5434 132.17 29.6208H132.172C132.284 29.7827 132.857 29.952 133.342 30.0414C134.162 30.1913 134.908 30.1937 135.496 30.0414C135.32 29.8988 135.049 29.6159 134.595 29.0648L134.561 29.0261C134.224 28.6175 133.919 28.1606 133.656 27.6675C133.071 26.5723 132.747 25.3975 132.507 24.3942C132.046 22.4675 132.022 19.4674 133.472 17.3521C133.85 16.8009 134.352 16.2715 134.882 15.8581C135.015 15.7542 136.753 14.7799 137.253 14.6639C137.172 14.1707 136.756 14.0619 136.406 14.0619C136.054 14.0619 135.629 14.1731 135.294 14.3545C134.687 14.6808 134.483 14.4947 134.081 14.1055L134.041 14.0668C133.908 13.9387 133.798 13.8758 133.703 13.8758C133.565 13.8758 133.415 14.0088 133.237 14.1852C133.021 14.3956 132.809 14.4995 132.59 14.4995C132.326 14.4995 132.093 14.3472 131.87 14.1997C131.616 14.0329 131.354 13.8589 131.033 13.8976C130.743 13.9314 130.586 14.1466 130.42 14.3762C130.256 14.601 130.087 14.8355 129.787 14.8355C129.635 14.8355 129.464 14.7727 129.267 14.6446C129.202 14.601 129.141 14.5599 129.081 14.5213C128.698 14.265 128.446 14.0934 128.021 14.0934C127.945 14.0934 127.861 14.0982 127.776 14.1103C127.426 14.1562 127.2 14.2529 127.02 14.4318C126.932 14.5213 126.875 14.6397 126.815 14.7654C126.777 14.8476 126.737 14.9322 126.685 15.012C127.165 15.788 127.433 16.7187 127.519 17.2917C127.666 18.2828 127.424 18.8244 127.193 19.3489L127.017 19.7454L126.418 15.1933C126.185 15.0579 125.976 14.9081 125.774 14.7654C125.298 14.427 124.849 14.1079 124.179 14.0547C123.881 14.0305 123.568 14.0088 123.258 14.0088C122.99 14.0088 122.752 14.0257 122.531 14.0619C122.4 14.091 121.528 14.4318 121.356 14.5986C121.794 14.9467 122.279 15.2465 122.747 15.5342L122.957 15.6623C123.444 15.9645 123.96 16.2957 124.423 16.7091C125.439 17.6108 126.012 18.9283 126.178 20.7366C126.266 21.6963 126.347 22.8132 126.195 23.8938C126.054 24.897 125.84 26.0526 125.403 26.9664L126.497 25.9583C126.606 25.8568 126.753 25.7407 126.872 25.644L127.462 25.1702L126.682 26.3548C126.506 26.5167 126.373 26.6449 126.233 26.8479C126.09 27.0558 125.857 27.2323 125.688 27.3629C125.508 27.5007 125.308 27.5732 125.03 27.6046C124.908 27.7714 124.773 27.9213 124.626 28.0518C124.376 28.2718 124.126 28.5136 123.886 28.7457C123.565 29.0551 123.237 29.3742 122.892 29.657C123.004 29.6981 123.159 29.7634 123.382 29.8553C123.532 29.9181 123.675 29.9786 123.72 29.9906C124.295 30.1647 124.792 30.2421 125.26 30.2251C125.774 30.2058 126.173 29.9278 126.599 29.6304C126.834 29.4661 127.077 29.2968 127.343 29.1735L128.539 24.5586V25.3999C128.539 26.2315 128.484 26.5917 128.406 27.0123C128.358 27.271 128.23 27.6022 128.116 27.8971C128.054 28.0543 127.997 28.2041 127.959 28.3274C127.89 28.5426 127.821 28.6901 127.731 28.8786C127.688 28.9922 127.631 29.1131 127.564 29.2654ZM130.986 27.0486C131.04 27.2807 131.116 27.4934 131.204 27.74C131.238 27.8318 131.271 27.9285 131.306 28.0301C131.392 28.2839 131.525 28.5885 131.666 28.8907L130.986 27.0486ZM128.287 26.4128L127.918 27.8343C127.921 27.8294 127.921 27.8246 127.923 27.8222C128.033 27.5369 128.159 27.213 128.201 26.9761C128.235 26.7948 128.266 26.6207 128.287 26.4128ZM126.242 26.4974L125.358 27.3121C125.434 27.2807 125.5 27.242 125.565 27.1936C125.722 27.0728 125.938 26.9084 126.062 26.7295C126.121 26.64 126.18 26.5651 126.242 26.4974ZM126.677 15.4206L127.134 18.9476C127.303 18.527 127.422 18.0653 127.312 17.3207C127.241 16.8396 127.036 16.0975 126.677 15.4206ZM132.414 28.2646C132.326 28.0639 132.281 27.8609 132.238 27.665L132.205 27.5152L132.132 27.2565C132.127 27.2347 132.12 27.2154 132.112 27.1936C132.051 27.0244 131.97 26.8769 131.891 26.7319C131.801 26.5651 131.708 26.391 131.639 26.1831C131.378 25.3854 131.202 24.694 131.202 23.9155V23.1323L132.348 27.2396C132.372 27.3121 132.393 27.3895 132.41 27.4644L132.612 28.1872L132.414 28.2646ZM129.849 21.1306L130.453 19.7793C130.512 19.552 130.553 19.274 130.596 19.0057C130.641 18.7083 130.684 18.4279 130.753 18.2466C130.952 17.7196 131.387 17.3981 131.806 17.0886C132.017 16.9339 132.215 16.7864 132.386 16.6148L132.933 16.066L130.817 19.8663C130.733 20.154 130.351 20.9203 130.099 21.0267L129.849 21.1306ZM132.079 17.1563C132.029 17.1926 131.979 17.2312 131.929 17.2675C131.516 17.5721 131.126 17.8598 130.95 18.3264C130.89 18.4835 130.85 18.7543 130.805 19.0395C130.776 19.2329 130.745 19.4287 130.707 19.6173L132.079 17.1563ZM132.781 16.5955L132.935 16.0926C133.056 15.6962 133.418 14.7678 134.124 14.7267L134.376 14.7122L132.781 16.5955ZM133.777 15.087C133.648 15.1836 133.527 15.3263 133.418 15.51L133.777 15.087Z" fill="#212121"/>
<path d="M122.764 30.2443C123.82 32.2 126.796 32.6327 128.751 32.6811C129.497 32.7004 130.251 32.6521 130.99 32.5554C131.385 32.5022 131.758 32.3886 132.165 32.2725C132.861 32.0719 133.558 31.8519 134.217 31.5425C134.804 31.2644 135.636 30.9792 135.812 30.2177C135.496 30.7471 132.945 30.4449 132.559 30.2564C132.319 30.1379 132.343 30.0968 132.146 30.2902C131.535 30.8922 130.458 31.0855 129.659 30.9357C129.015 30.8148 128.144 30.3047 127.626 29.8962C127.426 29.7366 127.521 29.6568 127.243 29.7898C126.62 30.0847 126.178 30.4812 125.462 30.5996C124.716 30.7229 124.022 30.5875 123.19 30.2128C122.983 30.121 122.899 30.1089 122.664 29.9493L122.764 30.2443Z" fill="#212121"/>
<path d="M121.216 14.2916C122.469 12.5631 124.533 11.9418 126.475 11.3955C127.464 11.1174 128.287 10.9458 129.331 10.9458C130.241 10.9458 131.128 11.1634 132.015 11.3447C132.907 11.526 133.82 11.6686 134.609 12.157C135.118 12.4712 135.717 12.638 136.226 12.9596C136.397 13.0683 136.998 13.2134 136.922 13.4769C136.813 13.8516 135.924 13.4986 135.643 13.6437C135.339 13.8008 134.937 14.0933 134.59 13.9918C134.257 13.8951 134.162 13.4962 133.789 13.4576C133.218 13.3995 133.104 14.016 132.533 13.9725C132.101 13.9386 131.604 13.3899 131.166 13.4189C130.753 13.4455 130.303 13.8975 129.996 14.1272C129.433 14.5527 129.19 13.9604 128.708 13.7646C128.42 13.6485 128.308 13.6147 127.992 13.6147C127.2 13.6147 126.718 13.9725 126.268 14.6107C126.421 14.3931 125.417 13.912 125.317 13.883C124.897 13.7646 124.459 13.5857 124.024 13.5784C122.926 13.5591 122.151 13.5905 121.216 14.2916Z" fill="#212121"/>
<path d="M129.404 5.01087C129.188 4.71835 128.922 4.83439 128.582 4.85131C128.399 5.36865 128.568 5.80863 128.66 6.24619C128.763 6.72969 128.85 7.22527 128.936 7.67975C129.029 8.16083 129.064 8.66366 129.091 9.19309C129.102 9.45176 129.114 9.74427 129.06 9.99085C129.01 10.2133 128.86 10.3631 128.82 10.5807C129.25 10.5686 129.714 10.5783 130.153 10.5541C130.156 10.3341 130.013 10.1166 129.961 9.90866C129.901 9.66933 129.939 9.43967 129.913 9.19309C129.87 8.78212 129.771 8.3784 129.725 7.94084C129.623 6.97385 129.464 6.00203 129.404 5.01087Z" fill="#212121"/>
<path d="M137.036 6.81439C135.857 6.83372 134.566 6.89174 133.475 7.51545C132.964 7.80555 132.6 8.17059 132.122 8.52837C131.882 8.70968 131.637 8.86923 131.356 9.01186C131.074 9.1545 130.738 9.17867 130.477 9.33822L130.615 9.65975C130.969 9.55821 131.045 9.49778 131.409 9.47602C131.768 9.45426 132.11 9.39382 132.502 9.4325C132.871 9.46877 133.299 9.46151 133.651 9.55821C134.062 9.67183 134.585 9.67183 135.006 9.70568C135.845 9.77095 136.875 9.58481 137.714 9.40591C138.318 9.27537 139.124 9.01186 139.588 8.55013C139.783 8.35431 139.885 8.16333 140.118 7.94334C140.339 7.73302 140.681 7.31238 140.845 7.06822C141.007 6.82647 141.154 6.67901 141.307 6.41792C141.44 6.19068 141.692 5.71444 141.696 5.42676C140.555 6.73219 138.594 6.78779 137.036 6.81439Z" fill="#212121"/>
<path d="M146.472 24.476C146.389 25.6765 145.962 26.6216 145.192 27.3113C144.427 28.001 143.417 28.3458 142.162 28.3458C140.788 28.3458 139.707 27.8656 138.917 26.9052C138.133 25.9396 137.74 24.6165 137.74 22.9357V22.2537C137.74 21.1808 137.922 20.2357 138.285 19.4183C138.648 18.6009 139.165 17.9751 139.837 17.5409C140.514 17.1015 141.298 16.8818 142.191 16.8818C143.427 16.8818 144.422 17.2267 145.178 17.9164C145.933 18.606 146.369 19.5741 146.487 20.8207H144.28C144.226 20.1003 144.032 19.5792 143.699 19.2574C143.37 18.9304 142.868 18.767 142.191 18.767C141.455 18.767 140.904 19.0428 140.536 19.5946C140.173 20.1412 139.987 20.9918 139.977 22.1464V22.9893C139.977 24.195 140.151 25.0762 140.499 25.6331C140.852 26.1899 141.406 26.4684 142.162 26.4684C142.843 26.4684 143.351 26.3074 143.684 25.9856C144.023 25.6586 144.216 25.1554 144.265 24.476H146.472Z" fill="#212121"/>
<path d="M156.72 22.8667C156.72 23.9651 156.533 24.9281 156.161 25.7557C155.788 26.5833 155.253 27.2219 154.557 27.6715C153.865 28.121 153.071 28.3458 152.173 28.3458C151.286 28.3458 150.494 28.1236 149.797 27.6791C149.101 27.2347 148.562 26.6012 148.179 25.7787C147.796 24.9511 147.603 24.0008 147.598 22.928V22.3763C147.598 21.2779 147.787 20.3123 148.164 19.4796C148.547 18.6418 149.084 18.0006 149.775 17.5562C150.472 17.1066 151.266 16.8818 152.159 16.8818C153.051 16.8818 153.843 17.1066 154.535 17.5562C155.231 18.0006 155.768 18.6418 156.146 19.4796C156.528 20.3123 156.72 21.2753 156.72 22.3686V22.8667ZM154.483 22.3609C154.483 21.191 154.282 20.3021 153.88 19.6942C153.478 19.0863 152.904 18.7823 152.159 18.7823C151.418 18.7823 150.847 19.0837 150.445 19.6865C150.043 20.2842 149.839 21.163 149.834 22.3226V22.8667C149.834 24.006 150.035 24.8898 150.437 25.5181C150.839 26.1465 151.418 26.4607 152.173 26.4607C152.914 26.4607 153.483 26.1593 153.88 25.5565C154.277 24.9485 154.478 24.0647 154.483 22.905V22.3609Z" fill="#212121"/>
<path d="M162.288 24.1081H160.53V28.1926H158.323V17.0351H162.303C163.568 17.0351 164.544 17.3288 165.231 17.9164C165.917 18.5039 166.261 19.334 166.261 20.4069C166.261 21.1681 166.101 21.8041 165.783 22.315C165.469 22.8207 164.991 23.2243 164.348 23.5257L166.665 28.0853V28.1926H164.297L162.288 24.1081ZM160.53 22.246H162.31C162.865 22.246 163.294 22.1004 163.598 21.8092C163.902 21.5129 164.054 21.1068 164.054 20.5908C164.054 20.0646 163.909 19.6508 163.62 19.3494C163.335 19.0479 162.896 18.8972 162.303 18.8972H160.53V22.246Z" fill="#212121"/>
<path d="M174.389 23.3571H170.152V26.3458H175.125V28.1926H167.945V17.0351H175.11V18.8972H170.152V21.5563H174.389V23.3571Z" fill="#212121"/>
<rect x="109.125" y="1.125" width="77.75" height="37.75" stroke="#B75400" stroke-width="2.25"/>
</g>
<defs>
<clipPath id="clip0_44_1844">
<rect width="188" height="40" rx="0.75" fill="white"/>
</clipPath>
</defs>
</svg>
