<svg xmlns="http://www.w3.org/2000/svg" width="300" height="200" viewBox="100 70 650 400"><path fill="#F47D30" d="M144.065 170.203l221.667-41.309-106.099 118.934z"/><path d="M662.381 299.608c3.006 0 5.451-.878 8.031-2.377v5.504c-2.635 1.51-6.018 2.355-8.922 2.355-7.521 0-12.189-4.273-12.189-11.725v-21.76h-6.115l13.234-14.813v9.246h12.029v5.566H656.42v21.348c0 4.899 2.949 6.656 5.961 6.656zM419.944 247.886v34.436c0 7.301-1.822 13.129-6.02 17.35v.006c-3.631 3.697-9.473 5.742-16.776 5.742-7.402 0-13.305-2.045-16.932-5.742-4.146-4.168-5.939-9.998-5.939-17.355v-21.955c0-6.346-.34-10.641-4.398-12.174v-.307h12.42v34.436c0 5.672 1.125 9.971 3.93 12.779 2.66 2.668 6.379 4.094 11.084 4.094 4.588 0 8.385-1.467 11.006-4.094 2.811-2.809 3.93-7.107 3.93-12.779v-34.436h7.695zM430.771 274.597c0-3.789-.336-7.018-3.99-8.264v-.293h10.648l.193 5.945c3.746-5.865 9.105-6.926 13.039-6.926 2.955 0 12.596 1.043 12.596 14.479v24.563h-7.201V279.46c0-5.582-2.996-8.91-8.016-8.91-3.898 0-7.645 2.484-10.055 6.736V304.1h-7.205v-29.504M481.345 266.04v38.061h-7.207v-29.504c0-3.789-.33-7.018-3.982-8.264v-.293h11.189zM472.721 252.872a4.476 4.476 0 0 1 4.473-4.469c2.51 0 4.553 2.006 4.553 4.469 0 2.553-2 4.553-4.553 4.553-2.467 0-4.473-2.043-4.473-4.553zM637.293 266.04v38.061h-7.207v-29.504c0-3.789-.33-7.018-3.984-8.264v-.293h11.191zM628.665 252.872a4.478 4.478 0 0 1 4.473-4.469c2.516 0 4.553 2.006 4.553 4.469 0 2.553-2 4.553-4.553 4.553-2.465 0-4.473-2.043-4.473-4.553zM523.299 266.04l-16.449 38.234h-2.447L490.815 274.1c-1.549-3.416-3.283-6.789-5.861-7.756v-.305h9.994l8.844 20.715c.459 1.063 1.594 3.717 2.195 6.053.543-2.354 1.453-4.719 2-6.047l8.229-20.721h7.083zM532.833 285.841c.539 8.088 5.537 12.856 12.18 13.439 5.318.463 9.777-.796 13.504-2.949l.891 5.371c-3.869 2.291-8.66 3.389-14.268 3.389-11.609 0-19.713-8.23-19.713-19.992 0-11.424 7.912-20.039 18.406-20.039 10.762 0 16.938 7.008 16.938 19.225v1.557h-27.938zm.27-4.75h20.596c-.451-6.705-4.125-10.627-9.947-10.627-5.632 0-9.837 4.088-10.649 10.627zM586.083 271.653c-6.295.441-9.525 6.15-9.525 14.758V304.1h-7.205v-29.51c0-3.789-.332-7.012-3.984-8.258v-.293h10.867c.01.844.08 8.645.08 8.645 2.654-6.934 7.66-9.508 11.566-9.508 2.074 0 4.324.25 6.51 2.193-.168.537-1.588 5.119-1.904 6.141-1.608-1.22-4.028-2.025-6.405-1.857zM621.509 293.481c0 9.086-8.865 11.609-13.746 11.609-4.482 0-8.471-.959-11.477-2.832v-6.709c3.262 2.579 7.297 4.049 11.535 4.049 4.736 0 6.672-2.646 6.785-5.133.119-2.617-1.59-4.504-4.529-5.941-2.549-1.248-5.131-2.508-6.457-3.203-3.338-1.754-7.09-4.336-7.09-9.623 0-7.873 7.359-10.561 12.928-10.561 4.27 0 7.742.801 10.311 2.424v6.234c-3.016-2.109-5.99-3.164-9.861-3.164-3.898 0-6.258 1.52-6.344 4.041-.084 2.486 1.641 3.604 3.619 4.723 1.877 1.063 4.211 2.088 7.189 3.658 3.5 1.852 7.137 4.384 7.137 10.428zM710.6 266.04l-26.299 57.043h-7.182l11.883-25.709-11.396-23.285c-1.717-3.443-3.357-6.842-6.322-7.756v-.293h10.541l10.945 23.49 10.729-23.49h7.101zM257.592 299.587c3.006 0 5.451-.876 8.031-2.366v5.493c-2.635 1.511-6.019 2.355-8.922 2.355-7.522 0-12.19-4.273-12.19-11.708v-21.76h-6.115l13.235-14.813v9.246h12.029v5.566h-12.029v21.348c0 4.89 2.949 6.639 5.961 6.639zM267.609 285.094c0-11.424 8.792-20.039 20.45-20.039 11.854 0 20.455 8.432 20.455 20.039 0 9.92-7.082 19.976-20.618 19.976-11.567-.001-20.287-8.593-20.287-19.976zm7.449 0c0 8.344 5.469 14.401 13.002 14.401 7.537 0 13.005-6.058 13.005-14.401 0-8.385-5.468-14.467-13.005-14.467-7.534 0-13.002 6.082-13.002 14.467zM199.07 304.079h7.966l-24.01-56.196h-10.942v.311c3.074 1.449 2.328 5.204.273 10.289l-18.83 45.597h6.974l6.96-17.259h24.277l7.332 17.258zm-29.363-22.829l9.577-23.785 10.088 23.785h-19.665zM316.726 274.592c0-3.789-.335-7.018-3.99-8.264v-.293h10.647l.192 5.945c3.746-5.865 9.107-6.926 13.037-6.926 2.953 0 12.601 1.043 12.601 14.479v24.546h-7.205v-24.624c0-5.582-2.998-8.91-8.015-8.91-3.896 0-7.642 2.484-10.054 6.736v26.798h-7.207v-29.487M235.474 293.143c.119 9.078-8.506 11.908-13.418 11.951-4.679.041-8.566-.738-11.621-2.531v-6.69c3.33 2.482 7.041 3.786 11.478 3.729 4.617-.061 6.637-2.677 6.687-5.292.052-2.618-1.707-4.462-4.682-5.822-2.581-1.181-5.194-2.374-6.539-3.032-3.382-1.667-7.208-4.148-7.34-9.435-.2-7.968 7.457-10.826 12.785-10.896 4.267-.056 7.713.599 10.325 2.154v6.232c-3.071-2.028-5.816-2.939-9.77-2.905-3.861.033-6.316 1.685-6.335 4.206-.02 2.486 1.733 3.56 3.74 4.627 1.905 1.012 4.265 1.976 7.282 3.468 3.547 1.76 7.33 4.217 7.408 10.236z"/><g><path d="M179.815 335.354h2.826c2.911 0 3.944-2.35 3.944-4.316s-1.033-4.313-3.944-4.313h-2.826v8.629zm0 11.902h3.413c3.457 0 4.687-2.557 4.687-4.748 0-2.188-1.229-4.746-4.687-4.746h-3.413v9.494zm6.187-11.147c3.37.762 4.99 3.035 4.99 6.621 0 2.723-1.826 7.045-6.943 7.045l-7.211.006v-20.162c0-2.879-.029-4.531-1.449-5.217v-.135h7.744c4.68 0 6.354 3.389 6.354 6.301-.001 2.602-1.289 4.84-3.485 5.541zM229.551 332.025c-1.978 0-3.641 1.117-4.774 3.24-.662-2.197-2.158-3.24-4.128-3.24-1.894 0-3.54.975-4.574 3.035l-.031-2.586h-3.838v.125c1.111.469 1.301 1.73 1.301 3.668v13.514h2.752V337.51c.772-1.762 2.059-2.893 3.444-2.924 1.987-.049 2.72 1.377 2.72 3.863v11.332h2.736v-11.586c0-.227-.004-.445-.016-.662.773-1.752 2.126-2.922 3.461-2.947 1.99-.049 2.719 1.377 2.719 3.863v11.332h2.739v-11.586c0-4.224-1.809-6.17-4.511-6.17zM323.189 332.029c-1.979 0-3.634 1.113-4.773 3.236-.665-2.197-2.156-3.236-4.128-3.236-1.891 0-3.542.977-4.576 3.033l-.028-2.588h-3.843v.125c1.115.471 1.307 1.73 1.307 3.67v13.512h2.751V337.51c.767-1.762 2.061-2.889 3.441-2.924 1.989-.043 2.722 1.377 2.722 3.863v11.332h2.742v-11.58c0-.232-.011-.449-.021-.666.776-1.754 2.125-2.918 3.461-2.949 1.989-.043 2.719 1.377 2.719 3.863v11.332h2.74v-11.58c-.001-4.23-1.812-6.172-4.514-6.172zM204.563 336.123c1.102-2.844 2.758-4.055 4.266-4.055 1.004 0 1.731.387 2.301 1.049l-.717 2.77c-.583-.557-1.231-.889-2.121-.889-1.372 0-3.619 1.076-3.619 6.633v8.15h-2.762V336.27c0-1.934-.188-3.199-1.297-3.67v-.125h3.835l.114 3.648M194.486 349.781V336.27c0-1.934-.19-3.199-1.305-3.67v-.125h4.053v17.307h-2.748zM197.52 326.705a1.854 1.854 0 0 1-1.85 1.848 1.852 1.852 0 0 1 0-3.702 1.854 1.854 0 0 1 1.85 1.854zM279.676 337.494c.768-1.766 2.172-2.924 3.665-2.924 1.806 0 2.938 1.377 2.938 3.857v11.336h2.738v-11.15c0-6.125-3.604-6.598-4.675-6.598-1.809 0-3.604.91-4.666 2.793v-10.541l-4.053.002v.127c1.112.465 1.302 1.729 1.302 3.664v21.707h2.751v-12.273zM238.507 349.783V336.27c0-1.93-.189-3.189-1.304-3.668v-.121l4.053.008v17.295h-2.749zM241.539 326.705c0 1.02-.83 1.854-1.849 1.854a1.853 1.853 0 1 1 0-3.706 1.855 1.855 0 0 1 1.849 1.852zM299.825 339.286v-1.43c0-2.115-1.132-3.285-2.906-3.285-1.416 0-2.921.673-4.152 1.969v-2.564c1.107-1.143 3.083-1.906 4.787-1.906 3.123 0 5.007 2.057 5.007 5.646v8.955c0 .768.235 1.25.688 1.34.397.082.801-.059 1.09-.264v1.764c-.654.416-1.293.611-2.164.611-1.184 0-2.097-.629-2.246-2.232-1.019 1.543-2.271 2.242-3.957 2.242-2.208 0-3.971-1.66-3.971-4.316 0-2.609 1.489-4.385 4.198-5.516 1.057-.442 2.601-.826 3.626-1.014zm0 1.811c-3.33.662-5.153 2.068-5.153 4.238 0 1.577.866 2.588 2.378 2.588 1.186 0 2.243-.724 2.774-1.775v-5.051zM248.458 335.097c1.033-2.056 2.913-3.037 4.805-3.037 1.068 0 4.667.474 4.667 6.594v11.133h-2.733v-11.318c0-2.482-1.131-3.857-2.934-3.857-1.492 0-2.889 1.159-3.656 2.921v12.255h-2.751V336.29c0-1.934-.188-3.192-1.298-3.661v-.126h3.83l.07 2.594"/><g><path d="M264.827 346.124c-.045.924.921 1.486 2.093 1.738l3.147.576c2.73.549 4.563 2.133 4.563 4.77 0 3.205-3.086 5.459-7.221 5.459-4.303 0-7.113-2.061-7.113-5.008 0-2.72 1.933-4.281 4.346-4.771-.787-.258-2.511-.905-2.492-2.402.015-1.205.986-2.135 2.761-2.607-2.338-.678-3.689-2.91-3.689-5.375 0-3.596 2.424-6.012 5.945-6.012h6.926v2.305h-2.904c1.037.838 1.533 2.609 1.533 3.871 0 3.154-1.85 5.172-5.035 5.68-1.37.221-2.811.626-2.86 1.776zm-1.86 7.34c0 1.798 1.77 3.005 4.451 3.005 2.68 0 4.449-1.207 4.449-3.005 0-1.797-1.799-3.004-4.479-3.004s-4.421 1.207-4.421 3.004zm.889-14.961c0 2.281 1.352 3.762 3.131 3.762 1.762 0 3.1-1.48 3.1-3.762 0-2.285-1.338-3.768-3.1-3.768-1.746 0-3.131 1.52-3.131 3.768z"/></g></g><path fill="none" d="M140.484 126.936h572.581v233.871H140.484z"/></svg>