<svg version="1.2" baseProfile="tiny" xmlns="http://www.w3.org/2000/svg" viewBox="0 0 311 89"><path fill="#1D3278" d="M0 .3h311v89H0z"/><path fill="#C8D300" d="M86.8 19.5c-1.3-.8-4-2.8-5.9-2.8-2 0-3.8 1.3-4.3 2.4-.1.2-.1.3-.2.5-.2 0-.3.1-.3.1s-.5.1-1.6.5h-.1l4.8-6.2.3.2c.1 0 .3.1.4.1 1 .1 3-.8 4.2-2.4 1.2-1.6 1.6-4.7 1.9-6.2.3-1.5 1.3-2.4 1.3-2.4s-3.1 1.1-4.8 2c-1.8 1-3.2 2.6-3.7 3.9-.7 1.6-.4 3.1-.2 4 .1.3.2.5.3.7l.3.2c-1.9 2.1-3.7 3.9-5.4 5.5 0-.7.2-1.2.2-1.2s.1-.1.1-.3c.1 0 .3-.1.4-.2 1-.6 2.2-2.6 2.2-4.7S74.8 8.3 74 6.8c-.8-1.4-.5-2.8-.5-2.8s-2.1 2.8-3 4.7c-.9 1.9-1.1 4.2-.7 5.6.5 1.8 1.8 2.9 2.6 3.5.3.2.5.3.8.4 0 .2 0 .4-.1.5-.1.3-.4 1.3-.8 2.3l-2.2 2.2-3.1 4c-8.1 10.6-13.7 24.5-8.8 38.2l2.7-3.7C58 49.2 62.4 37.8 68.5 28l2.7-3.9 1.7-2.2c.9-.6 2.3-1.2 2.8-1.4.1 0 .3-.1.5-.1.1.3.2.6.4.9.5.8 1.6 2.2 3.2 2.7 1.3.4 3.4.2 5.1-.8 1.8-1 4.3-3.3 4.3-3.3s-1.1.5-2.4-.4"/><path fill="#fff" d="M75.4 30.5c-1.1-2.4-2-4-4.5-6.4l-1.2-1C62 16.3 51.4 14.5 44 6.7c-12.8-2-26.7.7-39.3-2.2 4.7 2.8 10.1 4.7 15.5 6.2 6.7-3.8 15.3-4 23.2-3.7l1.1.8c2.7 8 11.4 8.9 17.1 13.4v.3c-4.8-.5-9.9-1.1-14.9-.8-1.2-2.3-3.3-3.4-5.4-3.9-3.8-.8-8.4.2-11.4-.8l1.8 2c.6.2 1.4-.3 2.2-.1 1.3 2.2 3.4 4.3 5.4 6 1.9.8 3.9 0 5.9 0 7.8 0 15.4.3 22.1 3l1.6.7c3.1 1.4 6.3 3.6 8.3 6.7l-1.8-3.8zm-36.6-9.1c-1.1-1-2.1-2-2.4-3.3 1.3.3 2.6.6 3.8 1.1 1.1.4 2.4 1.1 3.3 1.6-2.2-.1-2.1 3-4.7.6M101.5 7.9h3v19h10.1v2.6h-13.1zm14.4 0h3v21.7h-3zm15.2 21.6h-3.3l-7.7-21.6h3.3l6.2 18.5 6.5-18.5h3.1zm9.2-21.6h13.6v2.5h-10.6v6.8h10.1v2.5h-10.1v7.2h10.8v2.6h-13.8zm15.8 0h7.8c1.1 0 3.4 0 5 1s2.4 2.7 2.4 4.4c0 1.5-.6 2.9-1.5 3.8-.9.9-1.9 1.2-2.6 1.4 2.1.5 3 1.5 3.3 4.2.3 2.6.5 4.4 1.4 6.8h-3.2c-.5-1.4-.8-4.1-1-5.7-.4-3.1-1.1-4-4.8-4h-3.8v9.8h-3V7.9zm2.9 9.3h4.8c.3 0 2 0 2.9-.5.4-.2 1.5-1 1.5-2.8 0-3.5-3.1-3.5-4.3-3.5H159v6.8zm15-9.3h7.3c2.7 0 4.5.2 5.9 1.7 1.1 1.1 1.6 2.6 1.6 4.2 0 1.7-.5 3.1-1.7 4.2-1.1 1.1-2.7 1.9-6.6 1.9H177v9.6h-3V7.9zm3 9.5h3.6c2 0 5-.2 5-3.7 0-3.4-2.8-3.4-4.4-3.4H177v7.1zm15.4-7.2c2.3-2.4 5.2-2.9 7.3-2.9 6 0 9.8 3.8 9.8 11.2 0 5.8-2.3 11.5-10.1 11.5-7.4 0-9.8-5.3-9.8-11.2 0-2.4.4-6 2.8-8.6m2.3 15.3c1.2 1.5 3.1 2 4.8 2 1.8 0 3.6-.5 4.8-2 1.8-2.2 2-5.6 2-7 0-4.9-1.6-8.6-6.6-8.6-5.5 0-6.9 4.4-6.9 8.8 0 2.3.4 5 1.9 6.8m19-15.3c2.3-2.4 5.2-2.9 7.3-2.9 6 0 9.8 3.8 9.8 11.2 0 5.8-2.3 11.5-10.1 11.5-7.4 0-9.8-5.3-9.8-11.2 0-2.4.4-6 2.8-8.6m2.3 15.3c1.2 1.5 3.1 2 4.8 2 1.8 0 3.6-.5 4.8-2 1.8-2.2 2-5.6 2-7 0-4.9-1.6-8.6-6.6-8.6-5.5 0-6.9 4.4-6.9 8.8-.1 2.3.4 5 1.9 6.8M233.1 7.9h3v19h10.1v2.6h-13.1zM102.5 53c0 .7 0 1.7.5 2.4.4.6 1.3 1.3 2.8 1.3 1.2 0 2.4-.5 3-1.5.5-.9.5-2.3.5-2.9v-15h3v15.8c0 4-3.2 6.2-6.7 6.2-1.1 0-3.7-.3-5.2-2.3-1-1.4-1.1-3.1-1.1-4h3.2zm15-13.4c2.3-2.4 5.2-2.9 7.3-2.9 6 0 9.8 3.8 9.8 11.2 0 5.8-2.3 11.5-10.1 11.5-7.4 0-9.8-5.3-9.8-11.2 0-2.4.4-6.1 2.8-8.6m2.3 15.3c1.2 1.5 3.1 2 4.8 2 1.8 0 3.6-.5 4.8-2 1.8-2.2 2-5.6 2-7 0-4.9-1.6-8.6-6.6-8.6-5.5 0-6.9 4.4-6.9 8.8 0 2.3.4 4.9 1.9 6.8M139.9 37.2v9.3h10.3v-9.3h3v21.7h-3v-9.8h-10.3v9.8h-3V37.2zm16.6 0h4.2l10.7 18v-18h2.8v21.7h-3.9l-11.1-18.4v18.4h-2.7zm28.7 0h5.3l6.1 17.9 6.3-17.9h5v21.7H205V39.4l-7.2 19.5h-2.9l-6.8-19.4v19.4h-2.9zm27.9 2.4c2.3-2.4 5.2-2.9 7.3-2.9 6 0 9.8 3.8 9.8 11.2 0 5.8-2.3 11.5-10.1 11.5-7.4 0-9.8-5.3-9.8-11.2 0-2.4.4-6.1 2.8-8.6m2.3 15.3c1.2 1.5 3.1 2 4.8 2 1.8 0 3.6-.5 4.8-2 1.8-2.2 2-5.6 2-7 0-4.9-1.6-8.6-6.6-8.6-5.5 0-6.9 4.4-6.9 8.8 0 2.3.4 4.9 1.9 6.8m19-15.3c2.3-2.4 5.2-2.9 7.3-2.9 6 0 9.8 3.8 9.8 11.2 0 5.8-2.3 11.5-10.1 11.5-7.4 0-9.8-5.3-9.8-11.2 0-2.4.4-6.1 2.8-8.6m2.3 15.3c1.2 1.5 3.1 2 4.8 2 1.8 0 3.6-.5 4.8-2 1.8-2.2 2-5.6 2-7 0-4.9-1.6-8.6-6.6-8.6-5.5 0-6.9 4.4-6.9 8.8 0 2.3.4 4.9 1.9 6.8M253.8 37.2h7.8c1.1 0 3.4 0 5 1s2.4 2.7 2.4 4.4c0 1.5-.6 2.9-1.5 3.8-.9.9-1.9 1.2-2.6 1.4 2.1.5 3 1.5 3.3 4.2.3 2.6.5 4.4 1.4 6.8h-3.2c-.5-1.4-.8-4.1-1-5.7-.4-3.2-1.1-4.1-4.8-4.1h-3.8v9.8h-3V37.2zm2.9 9.4h4.8c.3 0 2 0 2.9-.5.4-.2 1.5-1 1.5-2.8 0-3.5-3.1-3.5-4.3-3.5h-4.8v6.8zm14.8-9.4h13.6v2.6h-10.6v6.7h10.1v2.6h-10.1v7.2h10.9v2.6h-13.9zm18.2 15.4c.1 1.5.2 4.3 5.2 4.3 4.5 0 5.1-2.8 5.1-3.9 0-2.4-2-2.9-5-3.7-3.3-.8-4.8-1.2-5.9-1.9-1.8-1.2-2.3-2.8-2.3-4.3 0-4.4 4.2-6.3 8.3-6.3 1.4 0 4.4.2 6.1 2.1 1.2 1.3 1.3 2.8 1.3 3.7h-3.1c-.2-2.7-2.4-3.3-4.6-3.3-3 0-4.8 1.4-4.8 3.5 0 1.9 1.3 2.6 3.9 3.2 5.2 1.3 5.8 1.4 7 2.3 2 1.3 2.2 3.4 2.2 4.3 0 3.8-3 6.7-8.6 6.7-1.7 0-5-.3-6.7-2.5-1.2-1.6-1.3-3.3-1.3-4.4h3.2zM104.2 66.8v8.6c0 .8.1 1.6.5 2.2.5.8 1.5 1.2 2.5 1.2 2.6 0 2.9-2.1 2.9-3.5v-8.4h3.9v8.4c0 1.6-.2 3.3-1.1 4.4-1.4 1.7-4 2.1-5.8 2.1-6.8 0-6.9-4.2-6.9-6.6V67h4zm11.6 0h5.6l4.9 10.7-.1-10.7h3.5v14.4h-5.4l-5-11.2.1 11.2h-3.6zm15.8 0h4.1v14.4h-4.1zm4.7 0h4.5l3.3 10.4 3.4-10.4h4l-5.3 14.4h-4.8zm15.9 0h10.9v2.7h-6.9v3.1h6.5v2.7h-6.5v3.1h7v2.8h-11zm12.5-.1h6.7c2.6 0 3.6.2 4.5 1 .4.4 1 1.2 1 2.8 0 1.6-.6 2.3-1.3 2.7-.9.6-1.8.7-2.2.7v.1c2.8.1 3 1.3 3.3 3.5.1 1 .3 2.5.7 3.6H173c-.2-.9-.3-2-.5-3.3-.2-1.7-.2-2.4-2-2.4h-1.7V81h-4V66.7zm4.1 6.3h1.5c.9 0 1.3 0 1.7-.1.9-.3 1.1-1.2 1.1-1.6 0-1.8-1.6-1.8-2.7-1.8h-1.5V73zm13.1 3.6c0 .6.1 2.2 2.5 2.2.3 0 2.2 0 2.2-1.6 0-.7-.3-1.1-1.2-1.4l-3.6-.9c-1-.3-3.6-.9-3.6-4 0-2.3 1.8-4.5 6.1-4.5 5.7 0 5.9 3.1 5.9 4.6H186c0-.4 0-2-1.9-2-1.2 0-1.9.7-1.9 1.5 0 1.1.9 1.3 1.5 1.5l2.7.7c1.9.5 4.2 1.1 4.2 4.2 0 3.2-2.8 4.7-6.4 4.7-1.5 0-3.9-.2-5.3-1.7-1.1-1.2-1.1-2.6-1.1-3.2h4.1zm9.9-9.8h4.1v14.4h-4.1zm9.2 2.8h-4.4v-2.9h13v2.9H205v11.6h-4zm13.3-2.8l3.1 6 3.3-6h4.2l-5.7 9.3v5.1h-4.1v-5.3l-5.5-9.1zM75.4 70.8c-3.1 6.7-7.3 12.7-12.2 18.2h7c4.5-4.6 8.3-9.7 10.8-16 3.6-10.2-2.2-19.7-9.2-26.8 4.4 6.8 7.7 16.5 3.6 24.6zM20.9 46.3C15.5 37.3 9.1 24.7 0 15.7v7C8.8 35 11.9 46.5 18.4 52.2c14.1 12.3 29.5 7.1 30.1 1.2.4-3.9-2.1-7.7-5.8-10.9-3.5-3.1-24.3-14.8-24.3-28.5L7.3 10.5c5.5 7 4.5 9 17 20.9C38.6 44.8 45.6 50.1 42 55.2c-1.6 2.3-12.8 4.9-21.1-8.9z"/></svg>