<svg xmlns="http://www.w3.org/2000/svg" viewBox="0 0 514.8 187.9" fill="#333F48"><path d="M465.1 32.9h-9.5l4.3 10.3 8.7 21.1H451l8.2-19.4-4.5-10.8-13.2 30.2h2.6l-3.4 8.2h-2.8l-4 9.2h-20.1V64.3h-7.1v-3h7.1V41.5h15.6V33h-40.9v8.5H404v29.6h-24.6l-2.9-6.8h-27.6l8.9-21.1 7.5 18.1h10L363 33h-10l-16.7 38.1h-18c2.2-3.7 3.5-8.1 3.5-13 0-6-1.8-11.2-5-15.4h-14.7c5.9 2.4 9.9 8.1 9.9 15.4 0 9.8-6.9 16.6-16.1 16.6h-11.5v-32h-9.6v40.5h20.5c9.6 0 17.5-4 22.1-10.6h18.2L331 83.1h10l4.4-10.6h58.7v10.6h39.1l4.4-10.6h24.5l4.4 10.6h10.3l-21.7-50.2zM40.9 70.6h8.9v12.5h-8.9zm70.8-16.9h34v8.4h-34zm0-20.8h36.8v8.4h-36.8z"/><path d="M91 69.2V32.9H80L64.3 65.1l-1.5-2.9-6.1-12.5-8.2-16.8H37.4v36.3h8.9V47.3l1.1 2.4 6.1 12.5L61.1 78h6.3l14.8-30.8v22h3.5v13.9h8.8V70.6h17.2v-1.4zm111.8-27.7v-8.6h-40.9v8.6h15.6v25h9.7v-25zm-25.3 40.2h-28.1v-7h-28.1v-4.1h-9.6v12.5h75.5V68h-9.7zm101.6-40.3h31.4c-4.7-5.3-11.8-8.5-20.1-8.5h-61.7L214 66.5h-26.7V68h26.1l-6.6 15.1h10l4.4-10.6h24.5l4.4 10.6h10.3l-8.2-18.9h-27.7l8.9-21.1 5.3 12.7h9.9l-9.3-21.5h30.3v7h9.5zm93.4 37.4l1.8 4.3h10.4l-1.9-4.3zM237 127c0-16.3-6.8-25.4-19.1-25.4-10.6 0-17.1 6.7-18.7 19h9.4c1-7.9 4.1-11.6 9.3-11.6 6.5 0 9.6 5.6 9.6 18 0 2-.1 3.9-.3 5.6h1.7c-.3 2.7-.8 4.9-1.5 6.7h-1.7c-1.6 3.9-4.2 5.8-7.9 5.8s-6.4-1.9-7.9-5.8h1.7c-.7-1.8-1.2-4-1.5-6.7h-1.7c-.2-1.7-.3-3.5-.3-5.6 0-1.8.1-3.5.2-5H199c-.2 1.6-.2 3.2-.2 5 0 2 .1 3.8.3 5.6h1.7c.3 2.4.7 4.7 1.4 6.7h-1.7c.5 1.6 1.2 3.1 1.9 4.5h-43.1l4.5-4.5h3.5l3.8-3.8h-11.4l-3.7 3.8h-3.5l-5.8 6v7H184v-7h19.3c3.2 4.8 8.2 7.3 14.7 7.3 8.7 0 14.7-4.6 17.4-13.2h1.7c.6-2 1.1-4.2 1.4-6.7h-1.7c.1-1.9.2-3.8.2-5.7zm-169.9 3.8c3.2-3.2 5.8-6.5 7.5-9.6H64.3c-1 1.5-2.3 3-3.8 4.4l-18.9 19.5v7h37.2v-8.5H54.2l12.9-12.8zm45.7 14.2c-6.5 0-9.7-5.7-9.7-18.1 0-2.1.1-4 .3-5.7H94c-.2 1.8-.3 3.7-.3 5.7 0 16.3 6.8 25.5 19.1 25.5 8.7 0 14.7-4.6 17.4-13.2h-9.5c-1.6 4-4.2 5.8-7.9 5.8z"/><path d="M112.8 101.6c-9.9 0-16.3 5.9-18.4 16.8H72.6c.5-1.4.8-2.7.8-4.1 0-7.8-6.8-12.8-16.7-12.8-6.8 0-13.5 2.7-19.3 7.3l3.9 7.4c4.4-3.9 9.6-6.3 14.1-6.3 5 0 8 2.2 8 5.9 0 1.2-.5 2.6-1.4 4.1h41.5c1.1-7.4 4.1-10.8 9.2-10.8 6.5 0 9.6 5.6 9.6 18 0 2-.1 3.9-.3 5.6h9.4c.2-1.8.3-3.6.3-5.6.2-16.5-6.7-25.5-18.9-25.5zm48.3 32.4h11.4l1.5-1.5h-3.5l1.7-1.7c2.9-3 5.4-6 7.1-8.8H169c-.9 1.2-2 2.5-3.2 3.7l-6.7 6.9h-27.5l-.3 1.5h29.8zm19-13.5c1.1-2.1 1.7-4.2 1.7-6.3 0-7.8-6.8-12.8-16.7-12.8-6.8 0-13.5 2.7-19.3 7.3l3.9 7.4c4.4-3.9 9.6-6.3 14.1-6.3 5 0 8 2.2 8 5.9 0 1.4-.7 3-1.8 4.8h10.1z"/></svg>