<svg baseProfile="tiny" xmlns="http://www.w3.org/2000/svg" viewBox="0 0 520.345 93.715"><path d="M0 .322h36.738s33.372 50.42 34.365 51.776c.996 1.351 1.119 0 1.119 0-1.538-7.808-3.208-11.312-3.208-23.78V.322h36.598v93.393H69.015s-32.687-47.73-33.677-49.049c-.984-1.318-1.113 0-1.113 0 1.257 6.445 2.373 7.523 2.373 18.703v30.346H0V.322zm163.307 59.575l4.986-18.955c1.081-3.829 1.822-9.354 1.822-9.354.155-.844 1.324-.844 1.529.041.237 1.307.826 5.273 1.939 9.231l5.092 19.037h-15.368zm-6.85 22.175h28.928l3.489 11.643h40.506L191.807.322h-42.328l-36.601 93.393h40.509l3.07-11.643zM325.796.322l-40.79 93.393h-32.414L211.805.322h39.955l13.969 42.486c1.529 4.582 2.651 14.646 2.651 14.646.261.794 1.204.735 1.351 0 0 0 1.119-10.063 2.657-14.646L285.841.322h39.955zm7.96 0h70.834V25.84h-32.276v8.912h29.481v24.281h-29.481v9.164h33.396v25.518h-71.953V.322zm124.969 25.196h2.944c6.56 0 12.29.864 12.29 8.051 0 6.932-6.293 7.799-12.577 7.799h-2.657v-15.85zm-37.436 67.875h37.436V63.416s.24-1.063.958 0l16.515 29.977h44.147l-22.919-30.352c-2.098-2.719-5.637-5.048-6.422-5.566-.785-.527 0-.75 0-.75 14.256-4.21 20.402-10.148 20.402-24.275C511.406 8.918 491.273 0 467.528 0h-46.239v93.393z" fill="#57B04B"/></svg>