<svg version="1.1" xmlns="http://www.w3.org/2000/svg" viewBox="0 0 950 468.1" fill="#4B8ADD"><g opacity=".7"><path d="M321.2 241.1l-100.9-.6-.6-1.7 92.7-64.4 8.8 66.7zm-97.9-2.5l95.8.6-8.1-61.6-87.7 61z"/><path d="M287.5 306.4l-65.1-50 .5-1.7 97.2-15.6.9 1.3-33.5 66zm-62.3-50.1l61.6 47.3 31.7-62.2-93.3 14.9z"/><path d="M222.1 256.7l-2.9-18.2 100.9.6.2 1.9-98.2 15.7zm-.7-16.3l2.3 14.2L309 241l-87.6-.6z"/><path d="M219.6 241.1l-14-84.4L312 175l.4 1.7-92.8 64.4zm-11.7-82.2l13.2 79 88.3-61.4-101.5-17.6zM245 309.2l-23-53.1 1.4-1.1 64.1 49.3-.5 1.7-42 3.2zm-19.8-50.6l21 48.7 38.5-3-59.5-45.7z"/><path d="M219.6 240.1l-53.3-62.5 41.1-21.2 13.8 82.9-1.6.8zm-50.3-61.9l49.6 58.1-12.9-77.1-36.7 19zM245.2 309l-68-37 .2-1.7 7.5-2 61.3 39.1-1 1.6zm-65.1-37.5l43 23.4-38.6-24.6-4.4 1.2z"/><path d="M157.3 362.8l-1.4-1 21-91.9 69.1 37.5v1.6l-88.7 53.8zm20.9-90.1l-20 87.4 85.5-51.8-65.5-35.6z"/><path d="M220.3 376.7l-63.7-13.8-.3-1.7 88.8-53.8 1.4 1.1-26.2 68.2zm-61-15.1l59.9 13 24.7-64.1-84.6 51.1z"/><path d="M245.1 309l-61-38.9.2-1.7 39.1-13.9 23.1 53.3-1.4 1.2zm-58.3-39.5l56.8 36.2-21.1-48.9-35.7 12.7zM173 67.7L155 47 185.2.4l1.7.6-12.3 66.1-1.6.6zm-15.6-20.8l15.8 18.2 11.1-59.6-26.9 41.4zm38.3 346.7l-39.5-30.9.7-1.7 62.9 13.6.4 1.7-24.5 17.3zm-35.1-29.8l35.2 27.5 21.7-15.2-56.9-12.3z"/><path d="M184.1 271L167 178l1.6-.7 53.1 62.3-37.6 31.4zm-14.7-89.9l15.9 86.5 33.7-28.2-49.6-58.3z"/><path d="M185 270.2l-.9-1.6 35.7-29.8 1.5.6 2.7 17-39 13.8zm34.7-29l-30.4 25.5 32.6-11.6-2.2-13.9zm-69.3-70.5l22.3-103.8 1.8-.1 33.5 91.8-57.6 12.1zM174 70.3l-21.1 98 52.6-11.1L174 70.3z"/><path d="M152.3 170.8l-21.3-9.9 41.9-94.2 1.8.6-22.4 103.5zM133.5 160l17.6 8.2L171 75.6 133.5 160zm43.2 112.5l-9.8-94.4 1.9-.3 17.1 92.2-9.2 2.5zm-5.5-71.2l7.1 68.8 5.3-1.4-12.4-67.4z"/><path d="M157.5 363.2l-14.2-5.2 33.4-87.1 1.8.6-21 91.7zm-11.8-6.3l10.5 3.9 17.6-77-28.1 73.1zM167.8 179l-16.6-8.6.3-1.8 55.1-11.7.6 1.8-39.4 20.3zm-13.4-9.1l13.5 7 32.3-16.7-45.8 9.7z"/><path transform="rotate(-53.494 115.018 433.3)" d="M114.1 382.1h1.9v102.4h-1.9z"/><path d="M145.4 357.8l-1.8-.1-20.3-88.7 55.7 1.4-33.6 87.4zm-19.8-86.9l19.2 83.4 31.5-82.1-50.7-1.3z"/><path d="M178.6 272.2l-55.6-1.4 44-93.3 1.8.3 9.8 94.4zm-52.7-3.2l50.7 1.2-9.3-89-41.4 87.8zm31 175.8l-1.7-.6.6-82.3 1.5-.7 39.6 31-40 52.6zm.8-81l-.6 77.7 37.3-48.9-36.7-28.8z"/><path d="M125.2 270.3l-1.8-.6L151 168.1l18 9.4-43.8 92.8zm27.1-99.5L128.1 260l38.6-81.7-14.4-7.5zm4.1-122.6L92.1 12.1l.4-1.8L185.8 0l.8 1.4-30.2 46.8zM95.6 11.9l60.2 33.8L184.1 2l-88.5 9.9z"/><path d="M124.2 359.8l-.6-89.8 1.9-.2 20.3 88.6-21.6 1.4zm1.2-81.4l.6 79.3 17.4-1.2-18-78.1z"/><path d="M155.3 444.7L123.8 358l21.5-1.4 11.8 87.8-1.8.3zm-29-85.1l27.8 76.4-10.4-77.5-17.4 1.1z"/><path d="M155.2 444.5l-11.9-88.4 14.4 5.3-.6 82.9-1.9.2zm-9.6-85.7l9.7 72.4.6-68.6-10.3-3.8zm-12.5-198l-1.8-.6 24-113.4 1.6-.4L174.8 67l-.3.6-41.4 93.2zm23.6-111.9L134.9 152l37.7-84.8-15.9-18.3z"/><path d="M125.3 270.2l-1.9-.3 7.9-110.9 21.4 10-27.4 101.2zm7.7-108.4l-7 98.7 24.6-90.5-17.6-8.2z"/><path d="M132.9 161.4l-94.3-19.6-.4-1.7 117.3-94 1.5.9-24.1 114.4zm-91.9-21l90.5 18.8 23.3-110L41 140.4zm114.8 304.7L72.2 403l53.3-45.9 31.6 86.8-1.3 1.2zm-80.3-42.4l79 39.9-29.8-82.1-49.2 42.2z"/><path d="M39.4 141.7l-1.4-1.1L92.2 10l65.6 36.8-118.4 94.9zM93.1 12.6L41.1 138l113.4-90.9-61.4-34.5zm62.5 451.9l-82.3-61 .9-1.6 82.9 41.7v20l-1.5.9zm-72.5-56l72.1 53.4v-17.1l-72.1-36.3zm40.5-138.1L43.9 155.7l.8-1.5 88.4 5.3-7.8 110.5-1.7.4zM46.5 156.3l77.1 111 7.5-106-84.6-5z"/><path d="M126 359.7H64.1l-.7-1.5 60.3-88.8 1.7.6.6 89.7zm-60.1-1.9h58.2l-.6-84.9-57.6 84.9zM38.1 141.4L0 80.4l92.1-69.9 1.4 1.1-53.8 129.7-1.6.1zM2.5 80.9l36.2 58L90.5 14.1l-88 66.8z"/><path d="M2.5 288.6L43.7 155l1.7-.3L126 270.6l-123.5 18zM45 157.3l-39.9 129 117.6-17.1L45 157.3z"/><path d="M132.2 161.4L44 156.2l-6-14.8 1-1.3 93.3 19.5-.1 1.8zm-86.9-7.1l74.3 4.4-79.2-16.5 4.9 12.1zm28 250.2l-10.4-46.7H125l.6 1.7-52.3 45zm-8.1-44.8l9.2 41.4 48.1-41.4H65.2z"/></g><path d="M508.3 275.6c-.4-2.1-.9-4.4-1.5-6.5-.7-2.5-1.6-4.9-2.7-7.3-.1-.3-.3-.7-.4-.9-9.3-20.3-29.6-34.8-53.2-35.2-20.3-.4-38.4 9.6-49.5 24.9-2.4 3.2-4.4 6.8-6.1 10.5-.1.3-.3.5-.4.9-1.1 2.4-1.9 4.8-2.7 7.3-.7 2.1-1.1 4.3-1.5 6.5-.4 2-.7 4.1-.8 6.2-.1 1.7-.1 3.3-.1 5.1 0 2.8.3 5.6.8 8.2.4 2.5.9 4.9 1.6 7.3 7.2 24.6 29.6 42.9 56.4 43.5 20.3.4 38.4-9.6 49.5-24.9L467 309.9c-4.4 4.1-10.1 6.5-16.1 6.8-10.4.5-19.1-4.7-23.8-14.2-1.1-2.3-2-4.7-2.5-7.3h84.1c.3-1.7.5-3.6.7-5.5.1-1.7.1-3.3.1-5.1-.4-3-.6-6.1-1.2-9zm-84.1 0c.7-2.3 1.5-4.5 2.5-6.5 1.5-2.8 3.2-5.2 5.3-7.3h.1-.1c.3-.3.7-.5.9-.8 4.3-3.7 9.4-6.1 15-6.4 6.9-.4 13 2 17.8 6.4.3.3.7.5.9.9 2 2 3.7 4.5 5.1 7.3.9 2 1.7 4.1 2.4 6.5h-50v-.1zM120.1 145.3c0-22.7-13.8-42.3-33.5-50.7-6.6-2.8-13.8-4.4-21.4-4.4H.3l.1 153.2h33.4v-43.2h24.7l21.1 43.2H116l-25-49.7c17.4-9.3 29.1-27.5 29.1-48.4zm-33.4 0c0 12-9.7 21.7-21.7 21.7H33.8v-43.2H65c12-.2 21.7 9.5 21.7 21.5z"/><path d="M161.6 194.4v-11.8l-28.3 25.9 28.3 27.1v-11.8c27 0 43.1 23.4 43.1 47.2s-16.6 48-43.1 48c-28.7 0-43.1-24.2-43.1-48H85c0 42.3 34.3 76.6 76.6 76.6s76.6-34.3 76.6-76.6c.1-42.5-34.2-76.6-76.6-76.6zm705.8 104.2c-3.7 11.2-12.9 17.5-23.1 18.1-11.7.5-21.3-6.1-25.5-18.2-.9-2.7-1.6-5.6-1.9-8.8-.1-1.7-.3-3.5-.3-5.3 0-.8 0-1.7.1-2.5.3-3.2.8-6.1 1.9-8.9 3.9-10.8 12.9-17.9 23-18.5 11.7-.5 21.3 6.4 25.4 18.6l32.8-5.9c-7.7-23.7-29.8-41.2-55.7-41.6-27.1-.5-50.1 17.3-58.1 41.6-1.7 5.2-2.7 10.8-2.9 16.5v4.1c.1 5.7 1.2 11.2 2.9 16.5 7.7 23.7 29.8 41.2 55.7 41.6 27.1.5 50.1-17.3 58.1-41.6l-32.4-5.7zm48.8-69.4h33.4v114.2h-33.4zm31-22.3h-28c-1.5 0-2.8-1.2-2.8-2.8V176c0-1.5 1.2-2.8 2.8-2.8h28c1.5 0 2.8 1.2 2.8 2.8v28.1c0 1.6-1.3 2.8-2.8 2.8zm-185.1 63.8c-10.2-13-35.6-22.1-48-26.6-11-4-15-7.2-14.9-12.6.4-10.4 10.5-12.6 17.3-12.6 15 0 17.3 15.8 17.3 15.8l29.5-7.3s-5.7-37.4-51.7-37.4c-14.9 0-31.1 8.8-39.6 19.9-7.6 10-8.5 22.2-3.6 34.4 6.5 16.4 19.9 21.3 33.5 26.2 10.1 3.7 23.7 7.4 32.2 16 4.1 4.1 4.9 11.2 2 17.2-3.1 6.5-11.7 11-20.1 11-18.3 0-25.8-16.5-26.1-17.2l-.9-2.3-33.2 6.6.8 2.8c.1.4 3.1 10.4 12 20.5 8.2 9.3 23.3 20.5 48.4 20.5 21.4 0 38.4-9.2 47.6-25.8 8.6-15.4 9-34.6-2.5-49.1zm-440.8-45c-12.1-.3-24.6 3.2-31.1 9.3v-5.6h-33.4v167.4h33.4V337c5.8 5.6 17.7 8.9 28.9 9.2 33.9.7 57.8-27.4 57.3-61.3-.8-32-23.2-58.5-55.1-59.2zm-3.5 91.2c-15.6.8-27.5-11.3-27.7-31.9v-.8c.1-16.8 11.6-29 24.9-29.6 15.6-.8 27.7 12.1 27.7 32.7 0 18.2-11.6 28.8-24.9 29.6zM585.8 226.1c-19.9 0-29.2 13.2-29.2 13.2v-10.1h-31.1v114.2h31.1v-53.7c0-18.7 8.6-33.6 23.9-33.6 15.3 0 23.5 13.3 23.5 33.6v53.7h31.5v-63.7c.1-12.2-2.9-53.6-49.7-53.6z"/></svg>
