<svg xmlns="http://www.w3.org/2000/svg" viewBox="0 0 378.6 278.2"><path fill="#082B84" d="M14.1 278.2c-7.9 0-14.1-5.3-14.1-13.5v-25.2h7.5v24.9c0 4.4 2.6 7 6.6 7s6.7-2.6 6.7-7v-24.9h7.4v25.2c0 8.2-6.2 13.5-14.1 13.5M51.2 277.9v-17c0-3.8-2.4-5.1-4.6-5.1-2.2 0-4.7 1.3-4.7 5.1v17h-7v-28h6.8v2.6c1.8-1.9 4.4-2.9 7-2.9 2.8 0 5.1.9 6.6 2.5 2.3 2.3 2.9 4.9 2.9 8V278h-7zM66.5 239.4h7.2v5.7h-7.2v-5.7zm.1 10.5h7v28h-7v-28zM94.6 277.9h-5.5l-10.4-28h7.4l5.7 17.3 5.7-17.3h7.4zM114.2 266.1c0 3.6 2.2 6.2 6.1 6.2 3.1 0 4.6-.9 6.4-2.6l4.3 4.1c-2.8 2.8-5.6 4.4-10.7 4.4-6.6 0-13-3-13-14.4 0-9.2 5-14.3 12.2-14.3 7.8 0 12.2 5.7 12.2 13.4v3.1h-17.5zm10-7.8c-.8-1.7-2.3-2.9-4.7-2.9s-3.9 1.2-4.7 2.9c-.4 1-.6 1.8-.6 3h10.7c-.1-1.3-.2-2-.7-3M154.1 257.5c-1.1-1.1-2-1.7-3.7-1.7-2.1 0-4.5 1.6-4.5 5.2v16.9h-7v-28h6.8v2.7c1.3-1.6 4-3 7-3 2.7 0 4.7.7 6.6 2.6l-5.2 5.3zM172.9 278.2c-4.4 0-8.4-.5-11.9-4l4.6-4.6c2.3 2.3 5.3 2.6 7.5 2.6 2.4 0 5-.8 5-2.9 0-1.4-.8-2.4-3-2.6l-4.4-.4c-5.1-.5-8.2-2.7-8.2-7.9 0-5.8 5.1-8.9 10.8-8.9 4.4 0 8 .8 10.7 3.3l-4.3 4.4c-1.6-1.4-4.1-1.9-6.5-1.9-2.8 0-4 1.3-4 2.7 0 1 .4 2.2 2.9 2.4l4.4.4c5.5.5 8.3 3.5 8.3 8.2 0 6.3-5.2 9.2-11.9 9.2M191.7 239.4h7.2v5.7h-7.2v-5.7zm.1 10.5h7v28h-7v-28zM216.7 277.9c-5.7 0-8.1-4-8.1-8V256h-3v-5.3h3v-8.3h7v8.3h5v5.3h-5v13.5c0 1.6.8 2.5 2.4 2.5h2.5v5.9h-3.8zM228 239.4h7.2v5.7H228v-5.7zm.1 10.5h7v28h-7v-28zM249.4 266.1c0 3.6 2.2 6.2 6.1 6.2 3.1 0 4.6-.9 6.3-2.6l4.3 4.1c-2.8 2.8-5.6 4.4-10.7 4.4-6.6 0-13-3-13-14.4 0-9.2 4.9-14.3 12.2-14.3 7.8 0 12.2 5.7 12.2 13.4v3.1h-17.4zm10-7.8c-.8-1.7-2.3-2.9-4.7-2.9-2.4 0-3.9 1.2-4.7 2.9-.4 1-.6 1.8-.6 3h10.7c-.1-1.3-.2-2-.7-3M283 278.2c-4.4 0-8.4-.5-12-4l4.6-4.6c2.3 2.3 5.3 2.6 7.5 2.6 2.4 0 5-.8 5-2.9 0-1.4-.8-2.4-3-2.6l-4.4-.4c-5.1-.5-8.2-2.7-8.2-7.9 0-5.8 5.1-8.9 10.8-8.9 4.4 0 8 .8 10.7 3.3l-4.3 4.4c-1.6-1.4-4.1-1.9-6.5-1.9-2.8 0-4 1.3-4 2.7 0 1 .4 2.2 2.9 2.4l4.4.4c5.5.5 8.3 3.5 8.3 8.2.1 6.3-5.2 9.2-11.8 9.2M327.3 278.2c-7.9 0-14.1-5.3-14.1-13.5v-25.2h7.5v24.9c0 4.4 2.6 7 6.6 7 4 0 6.7-2.6 6.7-7v-24.9h7.4v25.2c0 8.2-6.3 13.5-14.1 13.5M369.8 277.9l-9.8-17.4-5 5.9v11.5h-7.4v-38.3h7.4v16.7l13.6-16.7h9.1l-12.8 15.2 13.7 23.1zM34.5 157.3c0 18.6-15.1 33.7-33.7 33.7v10.1c2.9.4 5.9.6 8.9.6 35.9 0 65.1-29.2 65.1-65.1 0-35.9-29.2-65.1-65.1-65.1-3 0-6 .2-8.9.6v51.4c18.6.1 33.7 15.3 33.7 33.8M58.3 80V42.7H.8v19.8c2.9-.3 5.9-.5 8.9-.5 18.5 0 35.5 6.8 48.6 18"/><path fill="#082B84" d="M24.8 157.3c0-13.3-10.8-24-24-24v48.1c13.2 0 24-10.8 24-24.1M111.1 92H69.6c9.3 12.5 14.9 28 14.9 44.7 0 41.2-33.5 74.8-74.8 74.8-3 0-6-.2-8.9-.5v12.8h181.9v-90.6h-71.6V92zM129.7 0h53.1v28.7h-53.1z"/><path fill="#082B84" d="M120 38.4V0H.8v33.1H68v49.2h52.8v41.2h61.9V38.4z"/></svg>
