<svg id="layer" xmlns="http://www.w3.org/2000/svg" width="350" height="150" viewBox="50 150 550 350"><style>.st0{fill:#8d8e8d}</style><path class="st0" d="M224 285.5h37.5c12.5 0 21.8 2 27.8 5.9 6.1 3.9 9.1 9.9 9.1 18 0 6-1.6 10.8-4.8 14.7-3.2 3.8-7.8 6.4-13.8 7.7 4.9 1.8 8.9 6.8 12 15v.1l11.3 30.4h-26.2l-8.3-25.1c-1.3-4-3.2-6.8-5.4-8.4-2.3-1.5-5.9-2.3-10.8-2.3h-3.7v35.9H224v-91.9zm24.7 16.1v23.5h8.8c5.4 0 9.5-.9 12.2-2.9 2.7-1.9 4.1-4.8 4.1-8.6 0-4.1-1.5-7.2-4.6-9.1-3-1.9-7.8-2.9-14.4-2.9h-6.1zM613.5 430.1c-1-.6-2.2-.9-3.6-.9-2.3 0-4.2.8-5.7 2.5s-2.2 3.9-2.2 6.6c0 2.7.7 4.8 2.2 6.5 1.4 1.6 3.4 2.5 5.7 2.5 1.2 0 2.4-.3 3.4-.8s1.9-1.4 2.7-2.5v1.9c0 1.8-.5 3.2-1.6 4.2s-2.5 1.5-4.4 1.5c-.9 0-1.8-.1-2.8-.4-1-.2-1.9-.6-2.9-1.1l-.3 3.7c1 .4 2.1.6 3.2.8 1.1.2 2.2.3 3.2.3 3.4 0 6-.8 7.6-2.4 1.7-1.6 2.5-4.1 2.5-7.4v-15.6h-4.4v3c-.7-.9-1.6-1.8-2.6-2.4m1.1 4.1c.8 1 1.2 2.4 1.2 4.2 0 1.6-.4 2.9-1.3 3.9-.8 1-1.9 1.5-3.2 1.5-1.3 0-2.4-.5-3.2-1.5-.8-1-1.2-2.4-1.2-4.1 0-1.6.4-3 1.2-4 .8-1 1.8-1.5 3.1-1.5 1.5 0 2.6.5 3.4 1.5m-15.3-4.9h-.7c-1.2 0-2.3.3-3.2 1-.9.7-1.6 1.6-2.2 3v-3.5H589v17.7h4.7v-8.3c0-1.9.4-3.3 1.2-4.3.8-1 2-1.5 3.5-1.5.3 0 .6 0 .8.1.3 0 .5.1.8.2l.2-4.1c-.4-.2-.7-.2-.9-.3m-33.1 10.8c0 2.5.6 4.4 1.7 5.7 1.1 1.3 2.7 1.9 4.9 1.9 1.4 0 2.7-.3 3.8-.9 1.1-.6 2-1.5 2.7-2.7v3.4h4.3v-17.7h-4.7v7.9c0 2-.4 3.6-1.1 4.7-.7 1.1-1.8 1.6-3.2 1.6-1.2 0-2.1-.4-2.7-1.2-.6-.8-.9-2-.9-3.6v-9.4h-4.7v10.3zm-22.5 7.3h4.2v-3.6c.7 1.2 1.6 2.2 2.7 2.9 1.1.7 2.4 1 3.8 1 2.3 0 4.2-.9 5.6-2.6 1.5-1.7 2.2-4 2.2-6.8 0-2.7-.7-4.9-2.1-6.6-1.4-1.6-3.3-2.5-5.7-2.5-1.3 0-2.4.3-3.4.8s-1.9 1.3-2.6 2.3v-11.1h-4.7v26.2zm12.5-13.1c.8 1.1 1.2 2.5 1.2 4.3 0 1.7-.4 3.1-1.2 4.1-.8 1-1.9 1.5-3.2 1.5-1.4 0-2.5-.5-3.3-1.6-.8-1-1.2-2.4-1.2-4.2 0-1.8.4-3.2 1.3-4.3.8-1 2-1.6 3.4-1.6 1.1.2 2.2.7 3 1.8m-20.3-4.8c-.7-.1-1.4-.2-2-.2-2.2 0-4 .5-5.3 1.5-1.4 1-2 2.2-2 3.8 0 1.1.3 2 1 2.7.6.7 1.8 1.5 3.7 2.4l.1.1c2.4 1.2 3.6 2.2 3.6 3.1 0 .5-.3 1-.8 1.3-.5.3-1.2.5-2.2.5-.9 0-1.8-.1-2.7-.3-.9-.2-1.8-.5-2.7-.9l-.3 3.5c.9.3 1.8.5 2.7.7 1 .2 1.9.2 2.9.2 2.4 0 4.3-.5 5.7-1.5 1.4-1 2.1-2.3 2.1-4 0-1.2-.4-2.2-1.1-3-.7-.8-2.1-1.6-4-2.5-.1 0-.3-.1-.5-.2-1.9-.8-2.9-1.6-2.9-2.4 0-.5.2-.9.7-1.2.5-.3 1.1-.4 1.9-.4.8 0 1.6.1 2.3.3.8.2 1.6.5 2.4.9l.4-3.4c-1.3-.6-2.3-.9-3-1m-15.3 1.7c-1.1-1.3-2.7-1.9-4.9-1.9-1.4 0-2.7.3-3.8.9-1.1.6-2 1.5-2.7 2.7v-3.2H505v17.7h4.7v-8.8c0-1.7.4-3.1 1.2-4.1.8-1 1.8-1.5 3.1-1.5 1.2 0 2.1.4 2.7 1.2.6.8.9 2 .9 3.6v9.6h4.7v-10.6c0-2.4-.6-4.3-1.7-5.6m-32.1 5.8c.2-1.5.7-2.7 1.4-3.5.8-.8 1.8-1.3 3-1.3s2.1.4 2.9 1.3c.7.8 1.2 2 1.3 3.5h-8.6zm10.6-5.4c-1.5-1.6-3.5-2.4-6.2-2.4s-4.9.8-6.5 2.5c-1.7 1.7-2.5 3.8-2.5 6.5 0 3 .9 5.4 2.6 7.1 1.7 1.7 4.1 2.6 7.1 2.6 1.2 0 2.3-.1 3.3-.3 1-.2 2-.4 2.9-.8v-3.5c-.8.4-1.7.8-2.6 1-.9.2-1.8.3-2.8.3-1.7 0-3.1-.4-4.2-1.3s-1.7-2-1.8-3.5h12.8v-1.4c.1-2.9-.6-5.2-2.1-6.8m-26.2-1.5c-1-.6-2.3-.9-3.6-.9-2.3 0-4.2.8-5.7 2.5-1.4 1.7-2.2 3.9-2.2 6.6 0 2.7.7 4.8 2.2 6.5 1.4 1.6 3.4 2.5 5.7 2.5 1.2 0 2.4-.3 3.4-.8s1.9-1.4 2.7-2.5v1.9c0 1.8-.5 3.2-1.6 4.2s-2.5 1.5-4.4 1.5c-.9 0-1.8-.1-2.8-.4-1-.2-1.9-.6-2.9-1.1l-.3 3.7c1 .4 2.1.6 3.1.8 1.1.2 2.2.3 3.2.3 3.4 0 6-.8 7.6-2.4 1.7-1.6 2.5-4.1 2.5-7.4v-15.6h-4.4v3c-.5-.9-1.4-1.8-2.5-2.4m1.1 4.1c.8 1 1.2 2.4 1.2 4.2 0 1.6-.4 2.9-1.3 3.9-.8 1-1.9 1.5-3.2 1.5-1.3 0-2.4-.5-3.2-1.5-.8-1-1.2-2.4-1.2-4.1 0-1.6.4-3 1.2-4 .8-1 1.8-1.5 3.1-1.5 1.5 0 2.6.5 3.4 1.5m-27.9 2.8c.2-1.5.7-2.7 1.4-3.5.8-.8 1.8-1.3 3-1.3s2.1.4 2.9 1.3c.7.8 1.2 2 1.3 3.5h-8.6zm10.6-5.4c-1.5-1.6-3.5-2.4-6.2-2.4s-4.9.8-6.5 2.5c-1.7 1.7-2.5 3.8-2.5 6.5 0 3 .9 5.4 2.6 7.1 1.7 1.7 4.1 2.6 7.1 2.6 1.2 0 2.3-.1 3.3-.3 1-.2 2-.4 2.9-.8v-3.5c-.8.4-1.7.8-2.6 1-.9.2-1.8.3-2.8.3-1.7 0-3.1-.4-4.2-1.3s-1.7-2-1.8-3.5h12.8v-1.4c.1-2.9-.6-5.2-2.1-6.8m-35.8 15.8h4.8v-10.2h1.5c1.2 0 2.2.2 2.8.6.6.4 1.1 1.2 1.5 2.2l2.8 7.3h5.2l-3.5-8.4c-.5-1.3-1-2.2-1.5-2.6-.4-.5-1-.8-1.7-1 1.7-.3 3-1 3.9-2 .9-1 1.4-2.3 1.4-3.9 0-2.1-.8-3.6-2.3-4.7-1.5-1-3.8-1.6-6.8-1.6h-8.2v24.3zm7-20.8c1.8 0 3.2.3 4.1.9.9.6 1.3 1.5 1.3 2.8 0 1.2-.4 2.1-1.3 2.7-.9.6-2.1 1-3.7 1h-2.5v-7.3h2.1zm-30.4-1.2v4.3h-3.8v3.3h3.6v8c0 2.4.5 4.1 1.4 5.2.9 1 2.5 1.6 4.6 1.6.5 0 1.1 0 1.6-.1.6-.1 1.1-.2 1.6-.3l-.1-3.2c-.3.1-.7.2-1 .2-.3.1-.6.1-.8.1-1 0-1.6-.3-2.1-.9-.4-.6-.6-1.5-.6-2.8V433h4.4v-3.3H402v-5.8l-4.5 1.5zm-19.4.9h3.6v-3.9h-3.6v3.9zm6.1 0h3.6v-3.9h-3.6v3.9zm4.6 4.9c-1.3-1.3-3.3-1.9-6-1.9-1.1 0-2.1.1-3.2.3-1.1.2-2.1.5-3.2 1l.1 3.2c.9-.5 1.8-.8 2.7-1.1.9-.2 1.7-.4 2.5-.4 1.4 0 2.5.3 3.3 1 .8.7 1.2 1.6 1.2 2.8v.3h-2.4c-3.2 0-5.6.5-7.2 1.5-1.6 1-2.4 2.5-2.4 4.4 0 1.6.6 3 1.7 4s2.6 1.6 4.4 1.6c1.3 0 2.4-.3 3.5-.8 1-.6 1.9-1.4 2.7-2.5l.1 2.9h4.1v-10.1c0-2.9-.7-4.9-1.9-6.2m-2.6 7.8v1c0 1.4-.4 2.5-1.2 3.4-.8.9-1.9 1.3-3.2 1.3-.9 0-1.6-.2-2.2-.7-.6-.5-.8-1.1-.8-1.9 0-1 .5-1.8 1.4-2.3 1-.5 2.4-.8 4.3-.8h1.7zm-23.4-13.6v4.3H359v3.3h3.6v8c0 2.4.5 4.1 1.4 5.2.9 1 2.5 1.6 4.6 1.6.5 0 1.1 0 1.6-.1.6-.1 1.1-.2 1.6-.3l-.1-3.2c-.3.1-.7.2-1 .2-.3.1-.6.1-.8.1-1 0-1.6-.3-2.1-.9-.4-.6-.6-1.5-.6-2.8V433h4.4v-3.3h-4.4v-5.8l-4.4 1.5zm-11.8.8h4.7v-4.4H351v4.4zm0 21.2h4.7v-17.7H351v17.7zm-7.8-17.9c-.7-.1-1.4-.2-2-.2-2.2 0-4 .5-5.3 1.5-1.4 1-2 2.2-2 3.8 0 1.1.3 2 .9 2.7.6.7 1.9 1.5 3.7 2.4l.1.1c2.4 1.2 3.6 2.2 3.6 3.1 0 .5-.3 1-.8 1.3-.5.3-1.2.5-2.2.5-.9 0-1.8-.1-2.7-.3-.9-.2-1.8-.5-2.7-.9l-.3 3.5c.9.3 1.8.5 2.7.7 1 .2 1.9.2 2.9.2 2.4 0 4.3-.5 5.7-1.5 1.4-1 2.1-2.3 2.1-4 0-1.2-.4-2.2-1.1-3-.7-.8-2.1-1.6-4-2.5-.1 0-.3-.1-.5-.2-1.9-.8-2.9-1.6-2.9-2.4 0-.5.2-.9.7-1.2.4-.3 1.1-.4 1.9-.4.8 0 1.6.1 2.3.3.8.2 1.6.5 2.4.9l.4-3.4c-1.2-.6-2.2-.9-2.9-1m-12.4-.2h-.7c-1.2 0-2.3.3-3.2 1-.9.7-1.6 1.6-2.2 3v-3.5h-4.2v17.7h4.7v-8.3c0-1.9.4-3.3 1.2-4.3.8-1 2-1.5 3.5-1.5.3 0 .6 0 .8.1.3 0 .5.1.8.2l.2-4.1c-.4-.2-.7-.2-.9-.3M304 437c.2-1.5.7-2.7 1.4-3.5.8-.8 1.8-1.3 3-1.3s2.1.4 2.9 1.3c.7.8 1.2 2 1.3 3.5H304zm10.6-5.4c-1.5-1.6-3.5-2.4-6.2-2.4s-4.9.8-6.5 2.5c-1.7 1.7-2.5 3.8-2.5 6.5 0 3 .9 5.4 2.6 7.1 1.7 1.7 4.1 2.6 7.1 2.6 1.2 0 2.3-.1 3.3-.3 1-.2 2-.4 2.9-.8v-3.5c-.8.4-1.7.8-2.6 1-.9.2-1.8.3-2.8.3-1.7 0-3.1-.4-4.2-1.3s-1.7-2-1.8-3.5h12.8v-1.4c.1-2.9-.6-5.2-2.1-6.8m-28.7 15.8h5.4l6.6-17.7h-4.7l-4.5 13.6-4.4-13.6h-5l6.6 17.7zm-14.3-21.2h4.7v-4.4h-4.7v4.4zm0 21.2h4.7v-17.7h-4.7v17.7zm-6.6-16.2c-1.1-1.3-2.7-1.9-4.9-1.9-1.4 0-2.7.3-3.8.9-1.1.6-2 1.5-2.7 2.7v-3.2h-4.3v17.7h4.7v-8.8c0-1.7.4-3.1 1.2-4.1.8-1 1.8-1.5 3.1-1.5 1.2 0 2.1.4 2.7 1.2.6.8.9 2 .9 3.6v9.6h4.7v-10.6c0-2.4-.5-4.3-1.6-5.6m-41.1 6.3c0 3.4.8 6.1 2.5 7.8 1.7 1.8 4.1 2.6 7.4 2.6 3.3 0 5.8-.9 7.5-2.7 1.7-1.8 2.5-4.4 2.5-8v-14.1h-4.6v14.1c0 2.3-.4 4.1-1.3 5.2-.9 1.2-2.2 1.8-4 1.8-1.7 0-3-.5-3.8-1.6-.8-1.1-1.2-2.8-1.2-5.2v-14.2H224v14.3zM224 285.5c-1-53.8-46.2-97.3-101.8-97.3-56.2 0-101.7 44.3-101.7 98.9 0 54.6 45.5 98.9 101.7 98.9 15.6 0 30.5-3.4 43.7-9.6 0 0-9-4.1-12.3-7.4-6.7-6.8-10.1-16.9-10.1-30.3v-53.3h25.1v53.3c0 7.8 1.2 13.5 3.6 17 2.4 3.5 6.2 5.2 11.5 5.2 5.4 0 9.5-1.9 12.2-5.6 2.7-3.7 4.1-9.3 4.1-16.6v-53.3l24 .1z"/></svg>