<svg id="Logo" xmlns="http://www.w3.org/2000/svg" viewBox="0 0 509.9 300.56"><defs><style>.cls-1{fill:#1d1d1b}.cls-2{fill:#c00f23}</style></defs><path class="cls-1" d="M254.63 179.27h-2.35q-1.18-2.11-3.52-5.87a26.74 26.74 0 0 0-7.28-7.28 49.19 49.19 0 0 0-13.15-6.22q-8.22-2.7-20.89-2.7-29.58 0-44.84 18.31t-15.26 51.88q0 3.05.23 8.45a83 83 0 0 0 1.53 12.09 78.43 78.43 0 0 0 4.24 14.07 60.23 60.23 0 0 0 8.33 14.44 52.06 52.06 0 0 0 7.16 8 55.17 55.17 0 0 0 9.27 6.81 46.92 46.92 0 0 0 11.62 4.81 54.86 54.86 0 0 0 14.44 1.76 67.59 67.59 0 0 0 19.13-2.46 63.32 63.32 0 0 0 26.17-14.91 123.07 123.07 0 0 0 8.92-9.39l2.62 1.64-2.58 23.24q-26.8 14.79-59.42 14.79a98.34 98.34 0 0 1-32.39-5.28A77.23 77.23 0 0 1 140 290a73 73 0 0 1-18.08-25.47q-6.69-15.26-6.69-35a97.91 97.91 0 0 1 5.52-33.1 73.11 73.11 0 0 1 16.78-27q11.27-11.5 28.52-18.19t40.73-6.69a137.68 137.68 0 0 1 27.7 2.7 130.59 130.59 0 0 1 27.23 9zM291.25 200.63q0-11.27-.23-24.18t-2.11-30q3.28.47 8.69.94t8 .47a74 74 0 0 0 8.22-.47l8.45-.94q-.94 6.57-1.53 16.78t-.82 21.71q-.24 11.5-.23 22.89v20.27q0 26.29.47 45.66t1.84 33.68q-4-.23-8.22-.82a60 60 0 0 0-8.22-.59 65.17 65.17 0 0 0-8.45.59q-4.46.59-8.45.82 1.88-21.13 2.23-48.83t.36-57.98zM415.14 275.28q0 13.38.59 20.31t1.05 11.85l-10.09-.94q-4.93-.47-7-.47a59.64 59.64 0 0 0-6.34.35l-9.63 1.06q.71-13.38 1.53-26.88t.75-26.87l-.24-65.49q0-6.57-.12-12.91t-.35-13.15h-11.7q-.7 0-4.93.12t-9.74.24q-5.52.12-11.5.47t-10.45.82a32.72 32.72 0 0 0 0-17.37q7 .47 15.14.7l16.43.47q8.33.24 16.32.23h14.79q14.79 0 30.28-.23t32.4-1.17a62 62 0 0 0-1.17 8.92 20.26 20.26 0 0 0 .35 3.76c.23 1.25.5 2.82.82 4.69q-10.56-1.17-22.54-1.41t-24.18-.23q-.24 6.34-.35 12.91t-.12 13.38v86.86zM560.73 253.22q0 7.52.12 13.73t.35 12.56l.47 13q.24 6.66.7 14.91l-8.16-.94a72.74 72.74 0 0 0-8.16-.47 78.62 78.62 0 0 0-8 .47q-4.49.47-7.8.94.23-6.8.47-15.61t.47-17.61q.23-8.8.35-16.9t.12-13.5l-13.85-23.94q-4.46-7.75-10.21-17.37T495.82 183q-6-9.86-11.85-19.37t-10.33-17.25q6.57.7 10.92 1.06t8.33.35q4.22 0 9.15-.23a76.3 76.3 0 0 0 10.09-1.17q4.46 9.63 8.69 18.31t8.93 17.84q4.7 9.15 10.38 19.6t13.26 23.59q7.61-12.89 12.5-21.73t9-16.9q4.1-8.1 8.45-17.49t10.68-23.24q2.82.47 6.22.94a54 54 0 0 0 7.39.47 38.12 38.12 0 0 0 5.75-.35 21.06 21.06 0 0 0 4.11-1.06l-4.81 8q-3.4 5.63-7.28 11.85T598.17 178q-3.4 5.52-4.81 7.63-8 12.68-15 25.71T563.78 237q-1.18 2.11-2.11 4a7.9 7.9 0 0 0-.94 3.52v8.69zM136.4 336.23a44 44 0 0 0-.21-4.55l.9.15a5.74 5.74 0 0 0 .86.07 4.65 4.65 0 0 0 1.29-.21q-.13 1.5-.26 3.58t-.21 4.46q-.09 2.38-.17 4.89t-.13 4.87a15.55 15.55 0 0 1-.88 5.15 10.82 10.82 0 0 1-2.38 3.86 9.92 9.92 0 0 1-3.8 2.4 15.18 15.18 0 0 1-5.17.82q-6.44 0-9.36-2.92t-2.92-9.23q0-2 .11-3.58t.11-3.2q0-3.61-.09-6.4t-.17-4.72q.52.09 1.12.15a10.46 10.46 0 0 0 1.12.07 6.47 6.47 0 0 0 .92-.07l.92-.15q-.09.94-.17 2.47t-.17 3.46q-.09 1.93-.13 4.16t0 4.64v3a21.08 21.08 0 0 0 .3 3 12.69 12.69 0 0 0 .84 2.83 7 7 0 0 0 1.65 2.36 7.6 7.6 0 0 0 2.7 1.59 12.15 12.15 0 0 0 4 .58 10.12 10.12 0 0 0 4-.69 7.56 7.56 0 0 0 2.64-1.8 8.25 8.25 0 0 0 1.61-2.58 14.55 14.55 0 0 0 .84-3 23.88 23.88 0 0 0 .3-3.18v-2.92q.03-6.05-.01-9.36zM161.12 350q-5.58-6-11.16-11.91 0 1.2-.09 3.22t0 5.49v5.02c0 .97 0 2 .06 3s.06 1.93.09 2.79.06 1.61.09 2.25.06 1.08.09 1.31a11.88 11.88 0 0 0-1.5-.09 13.31 13.31 0 0 0-1.59.09c.06-.29.12-.82.19-1.59s.14-1.7.19-2.77.12-2.24.19-3.5.13-2.52.17-3.78.08-2.49.11-3.69 0-2.28 0-3.22v-7.08q0-2.96-.11-4.42h.69l5.6 6.07q3 3.24 5.92 6.4l5.58 6q2.64 2.81 4.61 4.79v-5.84q0-4.51-.06-8.78t-.28-8a6.19 6.19 0 0 0 1.46.21 6 6 0 0 0 1.37-.21q-.09.94-.19 2.83t-.21 4q-.11 2.15-.19 4.21t-.09 3.31V361.73h-.6Q166.7 356 161.12 350zM180.76 337.24q-.11-2.73-.24-5.56l1.07.15a8.16 8.16 0 0 0 2.06 0l1.07-.15q-.13 2.83-.24 5.56t-.11 5.56v7.38q0 2.83.11 5.58t.24 5.41q-1-.09-2.1-.09t-2.1.09q.13-2.66.24-5.41t.11-5.58v-7.38q0-2.8-.11-5.56zM198.9 355.08q-1.42-3.56-3-7.51t-3.31-8.07q-1.7-4.12-3.24-7.81l1.16.15a8.84 8.84 0 0 0 2.15 0l1.16-.15q.94 2.83 2.08 5.95t2.4 6.33q1.27 3.22 2.6 6.53t2.7 6.57q.77-1.76 1.67-3.93t1.82-4.51q.92-2.34 1.82-4.77l1.74-4.66q.84-2.23 1.52-4.16t1.16-3.35a6 6 0 0 0 3.18 0q-3.35 7.47-6.44 14.81t-5.92 14.68a11.14 11.14 0 0 0-1.42-.09 9.39 9.39 0 0 0-1.42.09q-.99-2.54-2.41-6.1zM221.33 337.17q-.11-2.75-.24-5.49l3.84.15q1.91.06 3.84.07t3.82-.07l3.82-.15a6.52 6.52 0 0 0 0 2.58l-2.51-.17-2.4-.17q-1.27-.08-2.77-.15t-3.61-.06q0 1.38-.11 2.62t-.01 2.82v5.66h3.39q1.5 0 2.75-.11l2.3-.13q1.05-.06 2-.15a6.76 6.76 0 0 0-.13 1.33 6.56 6.56 0 0 0 .13 1.29q-1.12-.13-2.6-.21t-3-.11h-4.87v10.23q0 1.55.06 2.4h3q1.63 0 3.2-.06t3-.17a19 19 0 0 0 2.43-.32 3.08 3.08 0 0 0-.11.67v.67a4 4 0 0 0 .13 1.12q-1.93-.09-3.84-.09H225q-1.93 0-3.91.09.13-2.75.24-5.47t.11-5.56v-7.38q0-2.93-.11-5.68zM242.8 337.24q-.11-2.73-.24-5.56l2.45.15q1.2.06 2.45.07t2.45-.11 2.45-.11a16.61 16.61 0 0 1 3.43.34 8.36 8.36 0 0 1 2.85 1.14 5.74 5.74 0 0 1 1.93 2.08 7.45 7.45 0 0 1-.21 6.76 8.63 8.63 0 0 1-2.25 2.45 11.12 11.12 0 0 1-2.85 1.5 14.24 14.24 0 0 1-2.77.71l1.42 1.8q.9 1.16 2 2.55l2.32 2.92 2.32 2.92q1.12 1.4 2.1 2.55t1.59 1.76a9.49 9.49 0 0 0-1.29-.09h-2.53a8.58 8.58 0 0 0-1.24.09l-2-2.7q-1.31-1.8-2.9-3.86t-3.24-4.1q-1.65-2-3-3.46h-1.63v3.13q0 2.83.11 5.58t.24 5.41q-1-.09-2.1-.09t-2.1.09q.13-2.66.24-5.41t.11-5.58v-7.37q-.01-2.8-.11-5.56zm4.94 8.18h1.57a13.53 13.53 0 0 0 2.77-.3 8 8 0 0 0 2.64-1.05 6.25 6.25 0 0 0 2-2 5.92 5.92 0 0 0 .79-3.2 5.55 5.55 0 0 0-.62-2.77 5 5 0 0 0-1.61-1.74 6.14 6.14 0 0 0-2.15-.88 11.39 11.39 0 0 0-2.28-.24q-1.5 0-2.49.06t-1.67.15l-.17 4.68q-.09 2.32-.09 4.64v2.45a8.9 8.9 0 0 0 1.3.2zM269.11 357.16a7.07 7.07 0 0 0 1.42 1.44 7.27 7.27 0 0 0 2 1.05 7.2 7.2 0 0 0 2.49.41 6.36 6.36 0 0 0 2.55-.49 5.69 5.69 0 0 0 3.16-3.31 6.82 6.82 0 0 0 .43-2.43 4.61 4.61 0 0 0-1-3.13 8.33 8.33 0 0 0-2.51-1.93 29.35 29.35 0 0 0-3.24-1.42 16.73 16.73 0 0 1-3.24-1.61 8.59 8.59 0 0 1-2.51-2.47 7.14 7.14 0 0 1-1-4 8.14 8.14 0 0 1 .64-3.28 7.16 7.16 0 0 1 1.87-2.55 8.83 8.83 0 0 1 2.94-1.67 11.64 11.64 0 0 1 3.86-.6 11.46 11.46 0 0 1 3.56.49 8.88 8.88 0 0 1 2.79 1.52 9.28 9.28 0 0 0-.64 1.55q-.26.82-.52 2.06h-.52a11 11 0 0 0-.58-1.31 5 5 0 0 0-1-1.31 5.54 5.54 0 0 0-1.48-1 4.78 4.78 0 0 0-2.06-.41 6.12 6.12 0 0 0-2.21.39 5.29 5.29 0 0 0-1.76 1.09 4.83 4.83 0 0 0-1.16 1.7 5.56 5.56 0 0 0-.41 2.15 4.68 4.68 0 0 0 1 3.18 8.63 8.63 0 0 0 2.51 2 24.58 24.58 0 0 0 3.24 1.42 18.21 18.21 0 0 1 3.24 1.52 8.28 8.28 0 0 1 2.51 2.32 6.39 6.39 0 0 1 1 3.78 9.91 9.91 0 0 1-.71 3.73 8.79 8.79 0 0 1-2.06 3.07 9.16 9.16 0 0 1-3.31 2 13 13 0 0 1-4.44.71 11.08 11.08 0 0 1-4.31-.71 11.72 11.72 0 0 1-2.77-1.61 10.18 10.18 0 0 0 .54-1.78q.15-.79.28-2h.52a8.58 8.58 0 0 0 .89 1.44zM290.49 337.24q-.11-2.73-.24-5.56l1.07.15a8.16 8.16 0 0 0 2.06 0l1.07-.15q-.13 2.83-.24 5.56t-.11 5.56v7.38q0 2.83.11 5.58t.24 5.41q-1-.09-2.1-.09t-2.1.09q.13-2.66.24-5.41t.11-5.58v-7.38q0-2.8-.11-5.56zM308.37 333.91h-2.34q-1.22 0-2.45.09l-2.36.15q-1.14.09-2 .21a5.21 5.21 0 0 0 .21-1.37 5.93 5.93 0 0 0-.21-1.33l5.54.15q2.7.06 5.54.07t5.54-.07l5.54-.15a6 6 0 0 0-.21 1.37 5.07 5.07 0 0 0 .21 1.33q-.9-.13-2-.21l-2.36-.15q-1.22-.06-2.45-.09h-2.34q-.13 4.42-.13 8.89v7.38q0 2.83.11 5.58t.24 5.41q-1-.09-2.1-.09t-2.1.09q.13-2.66.24-5.41t.11-5.58v-7.38q-.1-4.47-.23-8.89zM332.3 347l-1.85-3.09-2.13-3.56-2.13-3.56-1.82-3q-.82-1.35-1.24-2l1.18.15a10.69 10.69 0 0 0 2.36 0l1.18-.15q1.93 3.73 3.93 7.34t4.23 7.51q1-1.55 2.06-3.39t2.15-3.78q1.07-1.93 2.06-3.88t1.85-3.8a6.63 6.63 0 0 0 3.35 0q-2.06 3.13-3.69 5.67t-2.88 4.59q-1.25 2.06-2.19 3.71t-1.63 3v3.39q0 1.8.06 3.54 0 1.74.11 3.22t.15 2.38q-1-.09-2.1-.09t-2.1.09q.26-2.23.3-5.41t0-6.65zM363.34 340a13.58 13.58 0 0 1 3.31-4.83 14.25 14.25 0 0 1 5.09-3 21 21 0 0 1 13 0 14.26 14.26 0 0 1 5.09 3 13.58 13.58 0 0 1 3.31 4.83 18.5 18.5 0 0 1 0 13 13.24 13.24 0 0 1-8.39 7.77 22.38 22.38 0 0 1-13 0 13.24 13.24 0 0 1-8.39-7.77 18.51 18.51 0 0 1-.02-13zm25.86.34a11.69 11.69 0 0 0-2.51-4.29 10 10 0 0 0-3.78-2.51 13.83 13.83 0 0 0-9.36 0 10 10 0 0 0-3.78 2.51 11.72 11.72 0 0 0-2.51 4.29 21.49 21.49 0 0 0 0 12.32 11.71 11.71 0 0 0 2.51 4.29 10 10 0 0 0 3.78 2.51 13.82 13.82 0 0 0 9.36 0 10 10 0 0 0 3.78-2.51 11.67 11.67 0 0 0 2.51-4.29 21.49 21.49 0 0 0 0-12.33zM400.21 337.24q-.11-2.73-.24-5.56l3.84.15q1.91.06 3.84.07t3.91-.07l4.29-.15a6.52 6.52 0 0 0 0 2.58q-1.16-.13-2.79-.24t-3.33-.17l-3.26-.11h-2.6q0 1.5-.06 2.88t0 2.75v5.41q2.83 0 5.6-.09t5.47-.34a4.92 4.92 0 0 0 0 2.58q-1.07-.13-2.42-.19l-2.81-.11h-5.88v3.65q0 2.83.11 5.58t.24 5.41q-1-.09-2.1-.09t-2.1.09q.13-2.66.24-5.41t.11-5.58v-7.48q.05-2.8-.06-5.56zM433.61 337.24q-.11-2.73-.24-5.56l1.07.15a8.15 8.15 0 0 0 2.06 0l1.07-.15q-.13 2.83-.24 5.56t-.11 5.56v9.38q0 3.97.09 7.1 3 0 5.84-.06a55.2 55.2 0 0 0 6-.49A5 5 0 0 0 449 360a4 4 0 0 0 .21 1.16q-2-.09-3.95-.09h-7.92q-1.91 0-4 .09.13-2.66.24-5.41t.11-5.58v-7.37q.03-2.8-.08-5.56zM454 340a13.57 13.57 0 0 1 3.31-4.83 14.25 14.25 0 0 1 5.09-3 21 21 0 0 1 13 0 14.24 14.24 0 0 1 5.09 3 13.59 13.59 0 0 1 3.31 4.83 18.52 18.52 0 0 1 0 13 13.24 13.24 0 0 1-8.39 7.77 22.38 22.38 0 0 1-13 0A13.24 13.24 0 0 1 454 353a18.5 18.5 0 0 1 0-13zm25.86.34a11.7 11.7 0 0 0-2.51-4.29 10 10 0 0 0-3.78-2.51 13.27 13.27 0 0 0-4.7-.82 13.14 13.14 0 0 0-4.66.82 10 10 0 0 0-3.81 2.46 11.7 11.7 0 0 0-2.51 4.29 21.49 21.49 0 0 0 0 12.32 11.69 11.69 0 0 0 2.51 4.29 10 10 0 0 0 3.78 2.51 13.11 13.11 0 0 0 4.66.82 13.24 13.24 0 0 0 4.7-.82 10 10 0 0 0 3.78-2.51 11.69 11.69 0 0 0 2.51-4.29 21.49 21.49 0 0 0-.01-12.28zM504.59 350q-5.58-6-11.16-11.91 0 1.2-.09 3.22t0 5.49v5.02c0 .97 0 2 .06 3s.06 1.93.09 2.79.06 1.61.09 2.25.06 1.08.09 1.31a11.89 11.89 0 0 0-1.5-.09 13.31 13.31 0 0 0-1.59.09c.06-.29.12-.82.19-1.59s.14-1.7.19-2.77.12-2.24.19-3.5.13-2.52.17-3.78.08-2.49.11-3.69 0-2.28 0-3.22v-7.08q0-2.96-.11-4.42h.69l5.6 6.07q3 3.24 5.92 6.4l5.58 6q2.64 2.81 4.62 4.79v-5.84q0-4.51-.06-8.78t-.28-8a6.19 6.19 0 0 0 1.46.21 6 6 0 0 0 1.37-.21q-.09.94-.19 2.83t-.21 4q-.11 2.15-.19 4.21t-.09 3.31V361.73h-.6Q510.17 356 504.59 350zM524.23 337.24q-.11-2.73-.24-5.56l3.24.15q1.61.06 3.24.07t3.24-.11 3.24-.11a18.77 18.77 0 0 1 6.46 1 11.28 11.28 0 0 1 4.4 2.81 11 11 0 0 1 2.51 4.46 20.62 20.62 0 0 1 .79 5.95 16 16 0 0 1-1.48 7.23 13.81 13.81 0 0 1-3.78 4.74 14.1 14.1 0 0 1-5.07 2.55 20.2 20.2 0 0 1-5.3.75h-8.64q-1.42 0-2.88.09.13-2.66.24-5.41t.11-5.58v-7.47q.03-2.8-.08-5.56zm3.89 22a15.56 15.56 0 0 0 2.45.32q1.55.11 3.18.11a20.46 20.46 0 0 0 4.72-.56 10.25 10.25 0 0 0 4.23-2.1 11.24 11.24 0 0 0 3-4.23 20.91 20.91 0 0 0 .26-13.07 9.34 9.34 0 0 0-2.53-3.8 9 9 0 0 0-3.84-1.93 20.92 20.92 0 0 0-4.89-.54q-1.93 0-3.61.13t-3 .3q-.13 2.06-.19 4.31t-.06 4.57v7.38q.02 4.69.28 9.15zM556.51 340a13.57 13.57 0 0 1 3.31-4.83 14.25 14.25 0 0 1 5.09-3 21 21 0 0 1 13 0 14.24 14.24 0 0 1 5.09 3 13.59 13.59 0 0 1 3.31 4.83 18.52 18.52 0 0 1 0 13 13.24 13.24 0 0 1-8.39 7.77 22.38 22.38 0 0 1-13 0 13.24 13.24 0 0 1-8.39-7.77 18.5 18.5 0 0 1-.02-13zm25.86.34a11.7 11.7 0 0 0-2.51-4.29 10 10 0 0 0-3.78-2.51 13.27 13.27 0 0 0-4.7-.82 13.14 13.14 0 0 0-4.66.82A10 10 0 0 0 563 336a11.7 11.7 0 0 0-2.51 4.29 21.49 21.49 0 0 0 0 12.32 11.69 11.69 0 0 0 2.51 4.29 10 10 0 0 0 3.78 2.51 13.11 13.11 0 0 0 4.66.82 13.24 13.24 0 0 0 4.7-.82 10 10 0 0 0 3.78-2.51 11.69 11.69 0 0 0 2.51-4.29 21.49 21.49 0 0 0-.05-12.28zM607.15 350q-5.58-6-11.16-11.91 0 1.2-.09 3.22t0 5.49v5.02c0 .97 0 2 .06 3s.06 1.93.09 2.79.06 1.61.09 2.25.06 1.08.09 1.31a11.89 11.89 0 0 0-1.5-.09 13.31 13.31 0 0 0-1.59.09c.06-.29.12-.82.19-1.59s.14-1.7.19-2.77.12-2.24.19-3.5.13-2.52.17-3.78.08-2.49.11-3.69 0-2.28 0-3.22v-7.08q0-2.96-.11-4.42h.69l5.6 6.07q3 3.24 5.92 6.4l5.58 6q2.64 2.81 4.62 4.79v-5.84q0-4.51-.06-8.78t-.28-8a6.19 6.19 0 0 0 1.46.21 6 6 0 0 0 1.37-.21q-.09.94-.19 2.83t-.21 4q-.11 2.15-.19 4.21t-.09 3.31V361.73h-.6Q612.73 356 607.15 350z" transform="translate(-111.41 -119.84)"/><path class="cls-2" d="M448.28 402.77l4.76-6.72c1.53-2.19 2.94-4.2 4.24-6.09s2.35-3.46 3.18-4.78a7.35 7.35 0 0 0 1.76.26 6.1 6.1 0 0 0 1.65-.26c-.1 2.28-.19 4.84-.26 7.69s-.1 5.76-.1 8.76v5.69c1 0 1.94 0 2.85-.13s1.64-.19 2.22-.29a5.84 5.84 0 0 0 0 3.42 18.55 18.55 0 0 0-2.22-.24c-.91 0-1.85-.07-2.85-.07v2.17c0 1.36 0 2.73.1 4.18s.13 2.55.2 3.38c-.68-.06-1.45-.09-2.27-.09s-1.58 0-2.28.09c.08-.89.16-2 .27-3.46s.15-2.77.15-4.09V410h-3.44l-4.71.07c-1.64 0-3.2.08-4.67.13l-3.31.13v-.94c1.51-2.13 3.09-4.36 4.73-6.66m11.3-12.83q-1.09 1.51-2.74 3.85l-3.41 4.86c-1.18 1.67-2.29 3.28-3.34 4.84s-1.87 2.84-2.46 3.83h12.06v-17.34h-.1zm-39.9 28.3a6.81 6.81 0 0 0 2.74.57 7.54 7.54 0 0 0 4.78-1.55 11.52 11.52 0 0 0 3.24-4.06 21.57 21.57 0 0 0 1.83-5.61 32.75 32.75 0 0 0 .6-6.21h-.1a9.66 9.66 0 0 1-3.23 3.51 9.17 9.17 0 0 1-5.15 1.35 10 10 0 0 1-7.37-2.66c-1.77-1.79-2.66-4.32-2.66-7.63a11.63 11.63 0 0 1 .81-4.4 10.13 10.13 0 0 1 2.29-3.5 10.94 10.94 0 0 1 3.62-2.32 12.54 12.54 0 0 1 4.76-.86 12.22 12.22 0 0 1 4.43.81 9.31 9.31 0 0 1 3.66 2.59 13.13 13.13 0 0 1 2.53 4.61 21.59 21.59 0 0 1 1 6.9 30.23 30.23 0 0 1-1 8.06 20.92 20.92 0 0 1-3 6.57 14.17 14.17 0 0 1-4.78 4.34 13.19 13.19 0 0 1-6.44 1.55 11.44 11.44 0 0 1-2.44-.23 15.73 15.73 0 0 1-1.66-.44c-.09-.38-.25-.85-.44-1.39a8.94 8.94 0 0 0-.59-1.4l.26-.15a8.86 8.86 0 0 0 2.38 1.55m11.09-29.47a6.22 6.22 0 0 0-5-2.24 6 6 0 0 0-5 2.51 11.18 11.18 0 0 0-1.89 6.9c0 3 .57 5.14 1.71 6.44a5.87 5.87 0 0 0 4.65 1.93 6 6 0 0 0 3.19-.83 7.53 7.53 0 0 0 2.29-2.17 10.45 10.45 0 0 0 1.43-3.11 13.65 13.65 0 0 0 .48-3.62 8.78 8.78 0 0 0-1.89-5.83m-44.28 15.81a10.59 10.59 0 0 1 5.77-4v-.36a6.53 6.53 0 0 1-2-.81 7.77 7.77 0 0 1-1.84-1.5 7.16 7.16 0 0 1-1.34-2.15 6.73 6.73 0 0 1-.52-2.69 7.28 7.28 0 0 1 .7-3.13 8.33 8.33 0 0 1 2-2.6 9.46 9.46 0 0 1 3.05-1.81 11.34 11.34 0 0 1 4-.68 13.71 13.71 0 0 1 4.44.65 9.31 9.31 0 0 1 3 1.68 6.77 6.77 0 0 1 1.79 2.4 7.31 7.31 0 0 1 .59 2.88 7.79 7.79 0 0 1-1.47 4.57 8.19 8.19 0 0 1-4.31 3v.36a12.69 12.69 0 0 1 2.17.64 8.35 8.35 0 0 1 2.46 1.51 8.77 8.77 0 0 1 2 2.61 8.64 8.64 0 0 1 .83 4 11.54 11.54 0 0 1-.91 4.65 10.51 10.51 0 0 1-2.48 3.54 10.16 10.16 0 0 1-3.68 2.2 13.51 13.51 0 0 1-4.46.73 17 17 0 0 1-4.55-.6 9.68 9.68 0 0 1-3.68-1.9 9 9 0 0 1-2.43-3.14 9.93 9.93 0 0 1-.89-4.3 10.35 10.35 0 0 1 1.73-5.79m15.13-14a5.85 5.85 0 0 0-1-2.09 5.19 5.19 0 0 0-1.73-1.45 6.16 6.16 0 0 0-5 0 4.85 4.85 0 0 0-1.73 1.45 6.05 6.05 0 0 0-1 2.09 10.36 10.36 0 0 0-.31 2.53 10.51 10.51 0 0 0 .31 2.52 6.12 6.12 0 0 0 1 2.12 5 5 0 0 0 1.73 1.45 6.16 6.16 0 0 0 5 0 5.3 5.3 0 0 0 1.73-1.45 5.91 5.91 0 0 0 1-2.12 10.1 10.1 0 0 0 .31-2.52 10 10 0 0 0-.31-2.53m1.16 16a8.52 8.52 0 0 0-1.39-2.73 6.63 6.63 0 0 0-8-1.81 6.38 6.38 0 0 0-2.19 1.81 8.46 8.46 0 0 0-1.4 2.73 12.54 12.54 0 0 0 0 7 8.5 8.5 0 0 0 1.4 2.74 6.59 6.59 0 0 0 8 1.8 6.52 6.52 0 0 0 2.2-1.8 8.56 8.56 0 0 0 1.39-2.74 12.52 12.52 0 0 0 0-7m-39.63-15a4.5 4.5 0 0 0-1.55-1.65v-.36c2-.8 4-1.66 6-2.61s4-1.87 5.76-2.76l.36.25q-.2 3.42-.31 6.75c-.07 2.22-.1 4.48-.1 6.75v8.64q0 3.42.1 6.69t.31 6.43a7.77 7.77 0 0 0-1.21-.09h-2.43a7.78 7.78 0 0 0-1.21.09c.17-2.13.28-4.29.33-6.46s.08-4.39.08-6.67v-18.3zm-35.38-4.7h-2.83c-1 0-2 0-2.94.1s-1.93.11-2.85.18-1.73.16-2.46.26a6.29 6.29 0 0 0 .26-1.65 7 7 0 0 0-.26-1.6l6.68.18q3.26.07 6.68.07t6.66-.07l6.68-.18a7.12 7.12 0 0 0-.26 1.66 6.15 6.15 0 0 0 .26 1.6c-.73-.1-1.54-.2-2.45-.26s-1.87-.13-2.85-.18-2-.08-2.94-.1h-2.82c-.1 3.54-.16 7.11-.16 10.71v8.89c0 2.28.05 4.51.14 6.72s.18 4.38.29 6.51c-.8-.06-1.64-.09-2.53-.09s-1.74 0-2.54.09c.1-2.13.2-4.3.28-6.51s.14-4.44.14-6.72v-8.79q0-5.4-.15-10.71m-35.07 28a8.29 8.29 0 0 0 1.71 1.72 8.46 8.46 0 0 0 5.35 1.77 7.75 7.75 0 0 0 3.08-.6 7 7 0 0 0 2.33-1.61 6.92 6.92 0 0 0 1.48-2.38 8.21 8.21 0 0 0 .51-2.91 5.59 5.59 0 0 0-1.22-3.78 10 10 0 0 0-3-2.32 35.62 35.62 0 0 0-3.91-1.72 20.23 20.23 0 0 1-3.9-1.93 10.48 10.48 0 0 1-3-3 8.51 8.51 0 0 1-1.22-4.85 9.92 9.92 0 0 1 .77-4 8.82 8.82 0 0 1 2.25-3.08 10.73 10.73 0 0 1 3.54-2 14 14 0 0 1 4.66-.73 13.62 13.62 0 0 1 4.28.6 10.72 10.72 0 0 1 3.37 1.82 11.87 11.87 0 0 0-.78 1.87c-.21.66-.41 1.49-.62 2.48h-.62a13.86 13.86 0 0 0-.7-1.58 6 6 0 0 0-1.19-1.58 6.85 6.85 0 0 0-1.78-1.21 5.64 5.64 0 0 0-2.49-.49 7.23 7.23 0 0 0-2.65.46 6.58 6.58 0 0 0-2.12 1.31 6 6 0 0 0-1.4 2.06 6.73 6.73 0 0 0-.48 2.58 5.66 5.66 0 0 0 1.21 3.83 10.59 10.59 0 0 0 3 2.35 29.75 29.75 0 0 0 3.91 1.7 22 22 0 0 1 3.9 1.84 9.94 9.94 0 0 1 3 2.79 7.68 7.68 0 0 1 1.22 4.55 11.87 11.87 0 0 1-.86 4.5 10.68 10.68 0 0 1-2.48 3.7 11 11 0 0 1-4 2.43 15.7 15.7 0 0 1-5.35.86 13.35 13.35 0 0 1-5.2-.86 14 14 0 0 1-3.33-1.93 13.89 13.89 0 0 0 .65-2.15c.12-.64.23-1.46.33-2.46h.62a10.06 10.06 0 0 0 1.11 1.9m-28.18-24.08q-.13-3.31-.28-6.61l4.63.18c1.53 0 3.08.07 4.63.07s3.08 0 4.61-.07l4.6-.18a7.89 7.89 0 0 0-.15 1.55 8.17 8.17 0 0 0 .15 1.55l-3-.21-2.91-.2c-1-.07-2.12-.13-3.33-.19s-2.65-.07-4.34-.07c0 1.11-.07 2.15-.13 3.15s-.08 2.14-.08 3.41v6.83c1.52 0 2.88 0 4.09-.06s2.31-.07 3.3-.12l2.77-.15c.84-.06 1.65-.11 2.4-.19a8.27 8.27 0 0 0-.15 1.6 8 8 0 0 0 .15 1.55q-1.34-.15-3.12-.25t-3.57-.14H268.95v12.34c0 1.27 0 2.25.07 2.9h3.62c1.32 0 2.6 0 3.86-.08s2.45-.11 3.57-.2a23.49 23.49 0 0 0 2.91-.39 3.83 3.83 0 0 0-.12.8v.8a5.2 5.2 0 0 0 .15 1.34q-2.32-.1-4.63-.09h-9.39c-1.55 0-3.12 0-4.71.09.1-2.19.2-4.4.28-6.58s.14-4.43.14-6.7v-8.9q0-3.4-.14-6.72M241.35 405.7H113.79a2 2 0 0 1 0-3.91h127.56a2 2 0 1 1 0 3.91zM618.93 405.76H491.37a2 2 0 0 1 0-4h127.56a2 2 0 0 1 0 4zM619.31 123.84h-505.9a2 2 0 0 1 0-4h505.9a2 2 0 0 1 0 4z" transform="translate(-111.41 -119.84)"/></svg>