<svg viewBox="0 0 256 256" fill="none" xmlns="http://www.w3.org/2000/svg"><path fill="#fff" d="M0 0h256v256H0z"/><path fill-rule="evenodd" clip-rule="evenodd" d="M193 72a2 2 0 0 1 2 2v136a8 8 0 0 1-8 8H68a8 8 0 0 1-8-8V46a8 8 0 0 1 8-8h91a2 2 0 0 1 2 2v24a8 8 0 0 0 8 8h24zm-.414-4H169a4 4 0 0 1-4-4V40.414c0-.89 1.077-1.337 1.707-.707l26.586 26.586c.63.63.184 1.707-.707 1.707zM82 62h65v12H82V62zm90 29H82v8h90v-8zm-90 16h90v8H82v-8zm90 16H82v8h90v-8zm-90 16h90v8H82v-8zm90 16H82v8h90v-8zm-90 16h90v8H82v-8zm90 16H82v8h90v-8z" fill="#E0E0E0"/></svg>
