<svg xmlns="http://www.w3.org/2000/svg" viewBox="0 0 480 480" fill="#6c757d"><path d="M100.224 44.022a27.976 27.976 0 0 0-2.224.08C87.029 27.558 64.723 23.04 48.179 34.012a35.93 35.93 0 0 0-5.027 4.026C26.587 31.879 8.165 40.314 2.006 56.879A31.994 31.994 0 0 0 0 68.022c0 17.673 14.327 32 32 32h68c15.464.062 28.05-12.424 28.112-27.888s-12.424-28.05-27.888-28.112zm4.005 39.325c-1.358.477-2.79.705-4.229.675H32c-8.837 0-16-7.163-16-16s7.163-16 16-16c3.106.006 6.143.921 8.736 2.632a8 8 0 0 0 10.928-2.096c6.353-9.036 18.828-11.21 27.864-4.857a20.004 20.004 0 0 1 6.896 8.521 8 8 0 0 0 9.856 4.48c6.253-2.195 13.102 1.095 15.297 7.348s-1.095 13.102-7.348 15.297zM438.627 131.922c-4.418-12.497-18.131-19.046-30.627-14.627s-19.046 18.131-14.627 30.627A23.998 23.998 0 0 0 408 162.549v105.472h-24v-48a8 8 0 0 0-8-8H248V194.55c12.497-4.418 19.046-18.131 14.627-30.627s-18.13-19.047-30.627-14.628-19.046 18.131-14.627 30.627A23.998 23.998 0 0 0 232 194.549v17.472H104a8 8 0 0 0-8 8v48H72V154.55c12.497-4.418 19.046-18.131 14.627-30.627S68.497 104.876 56 109.295c-12.497 4.418-19.046 18.131-14.627 30.627A23.998 23.998 0 0 0 56 154.549v121.472a8 8 0 0 0 8 8h32v87.008l-23.76 95.048a7.999 7.999 0 0 0 7.76 9.944h320a8 8 0 0 0 7.76-9.944L384 371.03v-87.008h32a8 8 0 0 0 8-8V162.55c12.497-4.419 19.046-18.131 14.627-30.628zM64 140.022a8 8 0 1 1 0-16 8 8 0 0 1 0 16zm176 24a8 8 0 1 1 0 16 8 8 0 0 1 0-16zm-128 64h256v136H112v-136zm277.752 232H90.248l20-80h259.504l20 80zm26.248-312a8 8 0 1 1 0-16 8 8 0 0 1 0 16z"/><path d="M344 244.022h-24v16h16v24h16v-32a8 8 0 0 0-8-8zM144 332.022v-24h-16v32a8 8 0 0 0 8 8h48v-16h-40zM128 396.022h24v16h-24zM168 396.022h24v16h-24zM208 396.022h24v16h-24zM248 396.022h24v16h-24zM288 396.022h24v16h-24zM328 396.022h24v16h-24zM128 428.022h24v16h-24zM168 428.022h24v16h-24zM208 428.022h24v16h-24zM248 428.022h24v16h-24zM288 428.022h24v16h-24zM328 428.022h24v16h-24zM292.4 19.958l.04-.056c-31.737-21.231-73.143-21.231-104.88 0v.056a7.943 7.943 0 0 0-3.6 6.6v32a8 8 0 0 0 3.56 6.656A94.402 94.402 0 0 0 240 81.142a94.403 94.403 0 0 0 52.44-15.928 8 8 0 0 0 3.56-6.656v-32a7.943 7.943 0 0 0-3.6-6.6zm-21.36 6.6a78.047 78.047 0 0 1-62.08 0 78.047 78.047 0 0 1 62.08 0zM280 54.142a78.313 78.313 0 0 1-80 0v-13.92a94.184 94.184 0 0 0 80 0v13.92z"/><path d="M291.776 78.422a8 8 0 0 0-8.216.4c-26.361 17.639-60.759 17.639-87.12 0A8 8 0 0 0 184 85.486v32a8 8 0 0 0 3.56 6.656c31.735 21.237 73.145 21.237 104.88 0a8 8 0 0 0 3.56-6.656v-32a8 8 0 0 0-4.224-7.064zM280 113.07a78.28 78.28 0 0 1-80 0V99.158a94.184 94.184 0 0 0 80 0v13.912zM472 28.022H344a8 8 0 0 0-8 8v64a8 8 0 0 0 8 8h128a8 8 0 0 0 8-8v-64a8 8 0 0 0-8-8zm-8 64H352v-48h112v48z"/><path d="M432 60.022h16v16h-16zM368 60.022h48v16h-48z"/></svg>
