<svg xmlns="http://www.w3.org/2000/svg" width="111" height="111" viewBox="0 0 111 111" fill="none">
<path d="M82.911 30.9818C74.6027 16.393 61.5321 8.25289 45.7811 9.46945C30.0301 10.686 29.3006 22.4486 29.3006 35.6379C29.3006 48.6739 10.6862 42.5936 4.75176 58.3174C0.127835 70.5696 12.155 92.9548 17.6938 102.247H96.266C99.3148 91.716 104.854 70.9899 105.454 57.5756C106.535 33.457 89.5402 42.6282 82.911 30.9818Z" fill="#9E9E9E"/>
<path opacity="0.7" d="M82.911 30.9818C74.6027 16.393 61.5321 8.25289 45.7811 9.46945C30.0301 10.686 29.3006 22.4486 29.3006 35.6379C29.3006 48.6739 10.6862 42.5936 4.75176 58.3174C0.127835 70.5696 12.155 92.9548 17.6938 102.247H96.266C99.3148 91.716 104.854 70.9899 105.454 57.5756C106.535 33.457 89.5402 42.6282 82.911 30.9818Z" fill="white"/>
<path d="M76.4128 85.3736C76.4128 85.3736 81.4818 70.1295 75.1172 84.2089C75.1172 84.2089 72.872 71.9543 73.458 85.3266C73.458 85.3266 66.8955 75.0649 72.4293 87.552C72.4293 87.552 63.9134 78.4698 72.7063 90.3041C72.7063 90.3041 89.8816 89.4411 76.5365 88.8551C76.5365 88.8551 92.0724 82.2728 77.2634 87.0055C77.2634 87.0105 90.5047 73.8978 76.4128 85.3736Z" fill="#9E9E9E"/>
<path d="M75.3322 85.7123C75.3322 85.7123 71.9174 90.5266 70.681 95.5165" stroke="#212121" stroke-width="0.20625" stroke-linecap="round" stroke-linejoin="round"/>
<path d="M65.983 85.8632C65.983 85.8632 54.03 76.4472 64.5266 86.642C64.5266 86.642 52.8901 84.7059 64.989 88.4793C64.989 88.4793 53.7382 91.0286 66.6457 90.1112C66.6457 90.1112 55.8178 94.7797 69.1876 90.7492C69.1876 90.7492 73.9376 75.1713 69.1258 86.872C69.1258 86.872 68.2554 70.9158 67.7139 85.6357C67.7139 85.6307 60.276 69.6225 65.983 85.8632Z" fill="#9E9E9E"/>
<path opacity="0.3" d="M65.983 85.8632C65.983 85.8632 54.03 76.4472 64.5266 86.642C64.5266 86.642 52.8901 84.7059 64.989 88.4793C64.989 88.4793 53.7382 91.0286 66.6457 90.1112C66.6457 90.1112 55.8178 94.7797 69.1876 90.7492C69.1876 90.7492 73.9376 75.1713 69.1258 86.872C69.1258 86.872 68.2554 70.9158 67.7139 85.6357C67.7139 85.6307 60.276 69.6225 65.983 85.8632Z" fill="white"/>
<path d="M71.6108 95.974C69.4621 88.8032 65.6764 87.0526 65.6764 87.0526" stroke="#212121" stroke-width="0.20625" stroke-linecap="round" stroke-linejoin="round"/>
<path d="M70.8196 86.6965C70.8196 86.6965 72.3526 88.1356 72.7606 90.0915C74.2313 89.5886 75.7863 89.3794 77.3376 89.4758" stroke="#212121" stroke-width="0.1375" stroke-linecap="round" stroke-linejoin="round"/>
<path d="M72.4392 85.1461C72.4392 85.1461 73.4926 86.4245 72.7607 90.0915L76.7911 87.2652" stroke="#212121" stroke-width="0.1375" stroke-linecap="round" stroke-linejoin="round"/>
<path d="M69.6351 86.877C69.1974 87.9672 68.9838 89.1345 69.0071 90.3091C69.0071 90.3091 67.2762 90.5019 66.1041 91.0509" stroke="#212121" stroke-width="0.1375" stroke-linecap="round" stroke-linejoin="round"/>
<path d="M67.7683 86.422C67.9501 87.7799 68.3686 89.0955 69.0046 90.309C69.0046 90.309 67.9018 89.32 64.984 89.1568" stroke="#212121" stroke-width="0.1375" stroke-linecap="round" stroke-linejoin="round"/>
<path d="M67.5259 94.9701H74.6571L73.5617 101.646H73.2155V101.913C73.2159 101.959 73.2071 102.004 73.1899 102.047C73.1726 102.089 73.1472 102.127 73.115 102.16C73.0828 102.192 73.0446 102.218 73.0024 102.235C72.9602 102.253 72.915 102.262 72.8694 102.262H72.538C72.4924 102.262 72.4471 102.253 72.405 102.235C72.3628 102.218 72.3245 102.192 72.2924 102.16C72.2602 102.127 72.2347 102.089 72.2175 102.047C72.2002 102.004 72.1915 101.959 72.1918 101.913V101.646H69.9912V101.913C69.9912 101.959 69.9821 102.005 69.9646 102.047C69.9471 102.089 69.9214 102.128 69.889 102.16C69.8567 102.192 69.8182 102.218 69.7759 102.236C69.7336 102.253 69.6883 102.262 69.6425 102.262H69.3112C69.2191 102.261 69.1311 102.224 69.0662 102.159C69.0014 102.094 68.965 102.005 68.965 101.913V101.646H68.6188L67.5259 94.9701Z" fill="#212121" stroke="#212121" stroke-width="0.20625" stroke-linecap="round" stroke-linejoin="round"/>
<path d="M98.9711 102.247H15.5179C10.481 103.019 6.44065 104.018 7.70914 105.155C10.6764 107.818 32.0453 104.708 31.4173 107.791C30.7892 110.874 46.8147 110.11 55.5334 110.11C64.2521 110.11 73.7695 109.292 70.7058 106.926C67.6422 104.559 87.98 106.288 96.721 106.288C103.101 106.288 107.472 104.507 98.9711 102.247Z" fill="#9E9E9E"/>
<path d="M0.103149 102.247H110.103" stroke="#212121" stroke-width="0.20625" stroke-linecap="round" stroke-linejoin="round"/>
<path d="M79.2367 15.2827H36.835C35.707 15.2827 34.7926 16.1972 34.7926 17.3252V73.0967C34.7926 74.2247 35.707 75.1391 36.835 75.1391H79.2367C80.3647 75.1391 81.2791 74.2247 81.2791 73.0967V17.3252C81.2791 16.1972 80.3647 15.2827 79.2367 15.2827Z" fill="#212121" stroke="#212121" stroke-width="0.275" stroke-linecap="round" stroke-linejoin="round"/>
<path d="M78.4949 14.4049H36.0932C34.9652 14.4049 34.0508 15.3193 34.0508 16.4473V72.2188C34.0508 73.3468 34.9652 74.2613 36.0932 74.2613H78.4949C79.6229 74.2613 80.5373 73.3468 80.5373 72.2188V16.4473C80.5373 15.3193 79.6229 14.4049 78.4949 14.4049Z" fill="#9E9E9E"/>
<path opacity="0.8" d="M78.4949 14.4049H36.0932C34.9652 14.4049 34.0508 15.3193 34.0508 16.4473V72.2188C34.0508 73.3468 34.9652 74.2613 36.0932 74.2613H78.4949C79.6229 74.2613 80.5373 73.3468 80.5373 72.2188V16.4473C80.5373 15.3193 79.6229 14.4049 78.4949 14.4049Z" fill="white"/>
<path d="M78.4949 14.4049H36.0932C34.9652 14.4049 34.0508 15.3193 34.0508 16.4473V72.2188C34.0508 73.3468 34.9652 74.2613 36.0932 74.2613H78.4949C79.6229 74.2613 80.5373 73.3468 80.5373 72.2188V16.4473C80.5373 15.3193 79.6229 14.4049 78.4949 14.4049Z" stroke="#212121" stroke-width="0.275" stroke-linecap="round" stroke-linejoin="round"/>
<path d="M78.5592 22.9579H36.0289V39.5447H78.5592V22.9579Z" fill="white" stroke="#212121" stroke-width="0.275" stroke-linecap="round" stroke-linejoin="round"/>
<path d="M78.5592 39.5447L36.0289 22.9579" stroke="#212121" stroke-width="0.20625" stroke-linecap="round" stroke-linejoin="round"/>
<path d="M36.0289 39.5447L78.5592 22.9579" stroke="#212121" stroke-width="0.20625" stroke-linecap="round" stroke-linejoin="round"/>
<path d="M57.294 42.9051H36.0289V59.4919H57.294V42.9051Z" fill="#9E9E9E"/>
<path opacity="0.5" d="M57.294 42.9051H36.0289V59.4919H57.294V42.9051Z" fill="white"/>
<path d="M57.294 42.9051H36.0289V59.4919H57.294V42.9051Z" stroke="#212121" stroke-width="0.275" stroke-linecap="round" stroke-linejoin="round"/>
<path d="M66.5048 17.2658H48.0833C47.8785 17.2658 47.7124 17.4319 47.7124 17.6367C47.7124 17.8416 47.8785 18.0076 48.0833 18.0076H66.5048C66.7097 18.0076 66.8757 17.8416 66.8757 17.6367C66.8757 17.4319 66.7097 17.2658 66.5048 17.2658Z" fill="#212121" stroke="#212121" stroke-width="0.20625" stroke-linecap="round" stroke-linejoin="round"/>
<path d="M78.1883 43.6469H59.7668C59.6684 43.6469 59.5741 43.6078 59.5045 43.5383C59.435 43.4687 59.3959 43.3744 59.3959 43.276C59.3959 43.1776 59.435 43.0833 59.5045 43.0137C59.5741 42.9442 59.6684 42.9051 59.7668 42.9051H78.1883C78.2867 42.9051 78.381 42.9442 78.4506 43.0137C78.5201 43.0833 78.5592 43.1776 78.5592 43.276C78.5592 43.3744 78.5201 43.4687 78.4506 43.5383C78.381 43.6078 78.2867 43.6469 78.1883 43.6469Z" fill="#212121" stroke="#212121" stroke-width="0.20625" stroke-linecap="round" stroke-linejoin="round"/>
<path d="M74.232 47.7466H59.7668C59.6684 47.7466 59.5741 47.7076 59.5045 47.638C59.435 47.5684 59.3959 47.4741 59.3959 47.3757C59.3959 47.2774 59.435 47.183 59.5045 47.1135C59.5741 47.0439 59.6684 47.0048 59.7668 47.0048H74.232C74.3304 47.0048 74.4247 47.0439 74.4943 47.1135C74.5638 47.183 74.6029 47.2774 74.6029 47.3757C74.6029 47.4741 74.5638 47.5684 74.4943 47.638C74.4247 47.7076 74.3304 47.7466 74.232 47.7466Z" fill="#212121" stroke="#212121" stroke-width="0.20625" stroke-linecap="round" stroke-linejoin="round"/>
<path d="M72.3157 49.9053H59.7668C59.5619 49.9053 59.3959 50.0713 59.3959 50.2762C59.3959 50.481 59.5619 50.6471 59.7668 50.6471H72.3157C72.5205 50.6471 72.6866 50.481 72.6866 50.2762C72.6866 50.0713 72.5205 49.9053 72.3157 49.9053Z" fill="#212121" stroke="#212121" stroke-width="0.20625" stroke-linecap="round" stroke-linejoin="round"/>
<path d="M75.9629 53.5451H59.7668C59.6684 53.5451 59.5741 53.506 59.5045 53.4365C59.435 53.3669 59.3959 53.2726 59.3959 53.1742C59.3959 53.0758 59.435 52.9815 59.5045 52.9119C59.5741 52.8424 59.6684 52.8033 59.7668 52.8033H75.9629C76.0613 52.8033 76.1556 52.8424 76.2252 52.9119C76.2947 52.9815 76.3338 53.0758 76.3338 53.1742C76.3338 53.2726 76.2947 53.3669 76.2252 53.4365C76.1556 53.506 76.0613 53.5451 75.9629 53.5451Z" fill="#212121" stroke="#212121" stroke-width="0.20625" stroke-linecap="round" stroke-linejoin="round"/>
<path d="M74.4175 56.4431H59.7668C59.6684 56.4431 59.5741 56.404 59.5045 56.3344C59.435 56.2649 59.3959 56.1705 59.3959 56.0722C59.3959 55.9738 59.435 55.8795 59.5045 55.8099C59.5741 55.7403 59.6684 55.7013 59.7668 55.7013H74.4175C74.5158 55.7013 74.6102 55.7403 74.6797 55.8099C74.7493 55.8795 74.7884 55.9738 74.7884 56.0722C74.7884 56.1705 74.7493 56.2649 74.6797 56.3344C74.6102 56.404 74.5158 56.4431 74.4175 56.4431Z" fill="#212121" stroke="#212121" stroke-width="0.20625" stroke-linecap="round" stroke-linejoin="round"/>
<path d="M72.3157 59.3436H59.7668C59.6684 59.3436 59.5741 59.3045 59.5045 59.2349C59.435 59.1654 59.3959 59.071 59.3959 58.9727C59.3959 58.8743 59.435 58.7799 59.5045 58.7104C59.5741 58.6408 59.6684 58.6017 59.7668 58.6017H72.3157C72.414 58.6017 72.5084 58.6408 72.5779 58.7104C72.6475 58.7799 72.6866 58.8743 72.6866 58.9727C72.6866 59.071 72.6475 59.1654 72.5779 59.2349C72.5084 59.3045 72.414 59.3436 72.3157 59.3436Z" fill="#212121" stroke="#212121" stroke-width="0.20625" stroke-linecap="round" stroke-linejoin="round"/>
<path d="M69.2865 20.5199H45.3014C45.2031 20.5199 45.1087 20.4808 45.0392 20.4112C44.9696 20.3417 44.9305 20.2473 44.9305 20.149C44.9305 20.0506 44.9696 19.9563 45.0392 19.8867C45.1087 19.8172 45.2031 19.7781 45.3014 19.7781H69.2865C69.3849 19.7781 69.4792 19.8172 69.5488 19.8867C69.6183 19.9563 69.6574 20.0506 69.6574 20.149C69.6574 20.2473 69.6183 20.3417 69.5488 20.4112C69.4792 20.4808 69.3849 20.5199 69.2865 20.5199Z" fill="#212121" stroke="#212121" stroke-width="0.20625" stroke-linecap="round" stroke-linejoin="round"/>
<path d="M57.2941 71.7045C59.4791 71.7045 61.2504 69.9332 61.2504 67.7482C61.2504 65.5632 59.4791 63.7919 57.2941 63.7919C55.1091 63.7919 53.3378 65.5632 53.3378 67.7482C53.3378 69.9332 55.1091 71.7045 57.2941 71.7045Z" fill="#9E9E9E" stroke="#212121" stroke-width="0.20625" stroke-linecap="round" stroke-linejoin="round"/>
<path d="M45.4252 71.7045C47.6102 71.7045 49.3815 69.9332 49.3815 67.7482C49.3815 65.5632 47.6102 63.7919 45.4252 63.7919C43.2402 63.7919 41.4689 65.5632 41.4689 67.7482C41.4689 69.9332 43.2402 71.7045 45.4252 71.7045Z" fill="#9E9E9E" stroke="#212121" stroke-width="0.275" stroke-linecap="round" stroke-linejoin="round"/>
<path d="M69.163 71.7045C71.348 71.7045 73.1193 69.9332 73.1193 67.7482C73.1193 65.5632 71.348 63.7919 69.163 63.7919C66.978 63.7919 65.2067 65.5632 65.2067 67.7482C65.2067 69.9332 66.978 71.7045 69.163 71.7045Z" fill="#9E9E9E" stroke="#212121" stroke-width="0.275" stroke-linecap="round" stroke-linejoin="round"/>
<path d="M67.7088 50.0537H61.0721V40.9171H65.9062L67.7088 42.7172V50.0537Z" fill="white" stroke="#212121" stroke-width="0.275" stroke-linecap="round" stroke-linejoin="round"/>
<path d="M65.9062 40.9171V41.1644V42.967H67.7088V42.7172L65.9062 40.9171Z" fill="#212121" stroke="#212121" stroke-width="0.20625" stroke-linecap="round" stroke-linejoin="round"/>
<path d="M65.9062 42.7197H67.7088L65.9062 40.9171V42.7197Z" fill="white" stroke="#212121" stroke-width="0.275" stroke-linecap="round" stroke-linejoin="round"/>
<path d="M64.1235 43.2192H65.1967L66.0176 48.2585H65.2239L65.0804 47.2571V47.2719H64.1804L64.037 48.261H63.2952L64.1235 43.2192ZM64.9939 46.582L64.6428 44.092H64.6279L64.2818 46.582H64.9939Z" fill="#9E9E9E" stroke="#9E9E9E" stroke-width="0.1375" stroke-linecap="round" stroke-linejoin="round"/>
<path d="M63.6289 42.9719H64.702L65.523 48.0112H64.7292L64.5858 47.0098V47.0246H63.6858L63.5423 48.0137H62.8005L63.6289 42.9719ZM64.4993 46.3348L64.1481 43.8448H64.1333L63.7871 46.3348H64.4993Z" fill="white" stroke="#212121" stroke-width="0.20625" stroke-linecap="round" stroke-linejoin="round"/>
<path d="M87.478 66.4896L91.9289 83.3039C91.9289 83.3039 91.9907 85.1584 92.8561 86.5802L94.0702 100.744C94.0702 100.744 94.9975 102.166 98.3356 100.744C98.3356 100.744 98.4815 90.6058 97.2451 84.293L96.1943 72.2807C96.4311 70.3935 96.3685 68.4809 96.0088 66.6133L87.478 66.4896Z" fill="#212121"/>
<path opacity="0.5" d="M94.7699 68.1093C94.1641 68.3219 93.499 68.4505 92.908 68.6038C92.8715 68.6144 92.8343 68.6226 92.7967 68.6285C92.2873 69.8649 91.778 71.1012 91.2068 72.3227C90.5342 73.7569 89.6737 75.5619 89.644 77.2681C89.8706 77.2946 90.0824 77.3941 90.2475 77.5515C90.4125 77.709 90.5218 77.9159 90.5589 78.141C90.6207 78.5406 90.7032 78.9368 90.8062 79.3278C90.9546 79.7853 91.1351 80.2131 91.2488 80.6878C91.2785 80.8115 91.3082 80.9351 91.3354 81.0562C91.2711 78.3759 91.1079 75.7672 92.9055 73.4206C94.2136 71.7293 94.6413 69.6102 94.7699 68.1093Z" fill="black"/>
<path d="M87.478 66.4896L91.9289 83.3039C91.9289 83.3039 91.9907 85.1584 92.8561 86.5802L94.0702 100.744C94.0702 100.744 94.9975 102.166 98.3356 100.744C98.3356 100.744 98.4815 90.6058 97.2451 84.293L96.1943 72.2807C96.4311 70.3935 96.3685 68.4809 96.0088 66.6133L87.478 66.4896Z" stroke="#212121" stroke-width="0.20625" stroke-linecap="round" stroke-linejoin="round"/>
<path d="M94.3273 100.736C94.3273 100.736 92.1835 101.725 91.4145 101.725C90.8878 101.725 89.9037 101.194 89.4364 102.428C89.4364 102.428 88.8775 103.518 92.2651 103.911C94.4187 104.124 96.5872 104.14 98.7436 103.958C98.8095 103.953 98.8735 103.934 98.9316 103.903C98.9897 103.871 99.0405 103.828 99.0806 103.775C99.1208 103.723 99.1494 103.662 99.1646 103.598C99.1798 103.534 99.1812 103.467 99.1689 103.402L99.1268 103.182C99.1268 103.182 99.0428 101.56 98.0339 100.746L94.3273 100.736Z" fill="#B75400" stroke="#212121" stroke-width="0.275" stroke-linecap="round" stroke-linejoin="round"/>
<path d="M91.6494 103.286C89.4463 102.855 89.5031 102.25 89.5031 102.25C89.4759 102.304 89.4512 102.358 89.4265 102.42C89.4265 102.42 88.8677 103.511 92.2552 103.904C94.4088 104.117 96.5773 104.132 98.7337 103.951C98.7996 103.946 98.8637 103.927 98.9217 103.895C98.9798 103.864 99.0306 103.82 99.0707 103.768C99.1109 103.715 99.1395 103.655 99.1547 103.591C99.1699 103.526 99.1714 103.459 99.159 103.394L99.1417 103.313L97.1314 103.493C97.1314 103.493 93.8501 103.713 91.6494 103.286Z" fill="white" stroke="#212121" stroke-width="0.20625" stroke-linecap="round" stroke-linejoin="round"/>
<path d="M94.2803 83.7712C94.5881 84.1014 94.9697 84.354 95.3939 84.5082C95.8181 84.6625 96.2728 84.7142 96.7208 84.6589" stroke="#616161" stroke-width="0.20625" stroke-linecap="round" stroke-linejoin="round"/>
<path d="M83.215 65.8022C83.215 65.8022 82.1023 68.7077 84.1423 81.1329C84.1423 81.1329 83.7714 82.3074 84.5132 84.6565L85.5022 92.6309V100.544C85.5022 100.544 86.1822 102.213 90.2003 100.544C90.2003 100.544 90.324 86.511 89.8913 83.5438L90.8383 74.4888C90.8846 74.0674 91.0185 73.6603 91.2314 73.2936C91.4443 72.927 91.7316 72.6089 92.0746 72.3598C92.9574 71.7095 94.0899 70.3471 94.2753 67.5851L83.215 65.8022Z" fill="#212121" stroke="#212121" stroke-width="0.20625" stroke-linecap="round" stroke-linejoin="round"/>
<path d="M85.7793 100.39C85.7793 100.39 83.413 101.478 82.5648 101.471C81.9837 101.471 80.8958 100.885 80.3716 102.245C80.3716 102.245 79.7534 103.449 83.4921 103.882C85.87 104.116 88.2643 104.134 90.6456 103.936C90.7182 103.93 90.7887 103.909 90.8525 103.874C90.9164 103.839 90.9721 103.79 91.016 103.732C91.0599 103.674 91.091 103.607 91.1073 103.536C91.1235 103.465 91.1246 103.392 91.1104 103.32L91.0659 103.073C91.0659 103.073 90.972 101.28 89.8592 100.385L85.7793 100.39Z" fill="#B75400" stroke="#212121" stroke-width="0.275" stroke-linecap="round" stroke-linejoin="round"/>
<path d="M82.822 103.202C80.3913 102.729 80.4556 102.062 80.4556 102.062C80.4237 102.123 80.3956 102.185 80.3716 102.25C80.3716 102.25 79.7534 103.454 83.4921 103.887C85.87 104.121 88.2643 104.139 90.6456 103.941C90.7182 103.935 90.7887 103.914 90.8525 103.879C90.9164 103.844 90.9721 103.795 91.016 103.737C91.0599 103.679 91.091 103.612 91.1073 103.541C91.1235 103.47 91.1246 103.397 91.1104 103.325L91.0931 103.236L88.8677 103.434C88.8677 103.434 85.2551 103.676 82.822 103.202Z" fill="white" stroke="#212121" stroke-width="0.20625" stroke-linecap="round" stroke-linejoin="round"/>
<path d="M86.3059 82.9256C86.3059 82.9256 87.2752 84.0878 89.2113 83.9295" stroke="#616161" stroke-width="0.20625" stroke-linecap="round" stroke-linejoin="round"/>
<path d="M88.0888 34.5227C88.0888 34.5227 86.0884 35.4203 85.9351 34.5227C86.4196 34.3351 86.8407 34.0135 87.1491 33.5955C87.6437 32.9155 90.1164 33.1009 90.1164 33.1009C90.1164 33.1009 94.4757 32.6929 93.9194 34.9233C93.9194 34.9233 95.6503 36.5577 94.1666 38.9389C92.683 41.3201 91.8275 42.1163 91.8275 42.1163L90.3439 41.8691L88.2816 35.5959L88.0888 34.5227Z" fill="#212121" stroke="#212121" stroke-width="0.20625" stroke-linecap="round" stroke-linejoin="round"/>
<path d="M88.3929 43.7459V42.8087C88.3929 42.8087 86.7881 43.056 86.5681 42.643C86.348 42.2301 86.7065 40.5141 86.7065 40.5141C86.7065 40.5141 85.9351 40.5413 85.9351 40.1827C85.9351 39.8242 86.845 38.3059 86.845 38.3059C86.845 38.3059 86.7362 37.0894 86.845 36.7036C86.9538 36.3179 88.0814 34.1345 88.0814 34.1345C88.0814 34.1345 89.7381 35.0445 89.6837 35.5415C89.6293 36.0385 89.1594 36.5083 89.5452 36.9237C89.9309 37.3391 90.4576 38.4568 90.287 38.9884L90.5343 39.1615C90.5343 39.1615 90.6727 38.1724 91.2266 38.0018C91.7805 37.8312 92.2157 38.939 91.8324 39.7129C91.4492 40.4869 91.0041 40.3484 91.0041 40.3484C91.0041 40.3484 91.2266 41.6762 91.8052 42.1164L91.9808 43.4986L88.3929 43.7459Z" fill="white"/>
<path d="M86.568 42.643C86.568 42.643 87.3865 42.8483 89.1792 42.1164C90.9719 41.3844 91.0164 40.3484 91.0164 40.3484L91.0955 40.4893C91.0955 40.4893 90.9422 42.1164 88.3929 42.8087C86.3356 43.3651 86.3356 42.962 86.3356 42.962L86.568 42.643Z" fill="#212121" stroke="#212121" stroke-width="0.1375" stroke-linecap="round" stroke-linejoin="round"/>
<path d="M88.3929 43.7459V42.8087C88.3929 42.8087 86.7881 43.056 86.5681 42.643C86.348 42.2301 86.7065 40.5141 86.7065 40.5141C86.7065 40.5141 85.9351 40.5413 85.9351 40.1827C85.9351 39.8242 86.845 38.3059 86.845 38.3059C86.845 38.3059 86.7362 37.0894 86.845 36.7036C86.9538 36.3179 88.0814 34.1345 88.0814 34.1345C88.0814 34.1345 89.7381 35.0445 89.6837 35.5415C89.6293 36.0385 89.1594 36.5083 89.5452 36.9237C89.9309 37.3391 90.4576 38.4568 90.287 38.9884L90.5343 39.1615C90.5343 39.1615 90.6727 38.1724 91.2266 38.0018C91.7805 37.8312 92.2157 38.939 91.8324 39.7129C91.4492 40.4869 91.0041 40.3484 91.0041 40.3484C91.0041 40.3484 91.2266 41.6762 91.8052 42.1164L91.9808 43.4986L88.3929 43.7459Z" stroke="#212121" stroke-width="0.275" stroke-linecap="round" stroke-linejoin="round"/>
<path d="M88.3113 40.514C88.3113 40.514 88.0319 41.4067 87.1417 40.927" stroke="#212121" stroke-width="0.20625" stroke-linecap="round" stroke-linejoin="round"/>
<path d="M87.3296 37.0622C87.4941 37.0417 87.6606 37.0802 87.7996 37.1707C87.9385 37.2612 88.0409 37.3979 88.0887 37.5567" stroke="#212121" stroke-width="0.20625" stroke-linecap="round" stroke-linejoin="round"/>
<path d="M87.1492 38.0018C87.1492 38.1848 87.2308 38.3331 87.3297 38.3331C87.4286 38.3331 87.5077 38.1848 87.5077 38.0018C87.5077 37.8188 87.4286 37.6704 87.3297 37.6704C87.2308 37.6704 87.1492 37.8188 87.1492 38.0018Z" fill="#2E353A"/>
<path d="M97.5863 49.1363C97.5863 49.1363 102.255 58.7476 101.266 60.2362C100.277 61.7248 96.0112 66.6058 96.0112 66.6058L94.2803 64.6277L97.742 58.7526L95.9493 55.1078C95.9493 55.1078 95.1457 52.2494 97.5863 49.1363Z" fill="#B75400"/>
<path opacity="0.2" d="M97.7965 55.6642C98.0635 54.1806 97.8558 51.4606 97.7965 50.8573C97.536 52.6905 97.1686 54.5069 96.6961 56.2972C96.6755 56.3823 96.6465 56.4651 96.6096 56.5445C97.0547 57.2418 97.5814 57.902 97.5047 58.7847C97.4281 59.6675 96.5676 60.8173 96.0656 61.5591C96.0083 61.6436 95.942 61.7215 95.8678 61.7915C95.9075 61.8648 95.9398 61.9418 95.9642 62.0215C96.1719 62.7262 96.1398 63.4507 96.1447 64.1752C96.7481 60.5008 98.9438 59.3535 99.1342 58.5226C99.3642 57.5138 97.4948 57.3333 97.7965 55.6642Z" fill="black"/>
<path d="M97.5863 49.1363C97.5863 49.1363 102.255 58.7476 101.266 60.2362C100.277 61.7248 96.0112 66.6058 96.0112 66.6058L94.2803 64.6277L97.742 58.7526L95.9493 55.1078C95.9493 55.1078 95.1457 52.2494 97.5863 49.1363Z" stroke="#212121" stroke-width="0.275" stroke-linecap="round" stroke-linejoin="round"/>
<path d="M98.343 58.6166C98.8674 58.4729 99.4209 58.4729 99.9453 58.6166" stroke="#212121" stroke-width="0.20625" stroke-linecap="round" stroke-linejoin="round"/>
<path d="M87.295 45.1553L88.4078 43.3354C88.4078 43.3354 91.4986 42.0719 93.044 43.3354L93.9095 45.7735L87.295 45.1553Z" fill="#B75400" stroke="#212121" stroke-width="0.275" stroke-linecap="round" stroke-linejoin="round"/>
<path d="M82.8441 66.3808L83.7664 58.7971L83.3931 47.4227C83.3739 46.9248 83.5223 46.4349 83.8146 46.0314C84.1069 45.628 84.5262 45.3342 85.0052 45.1973C88.1456 44.2874 94.8688 43.1697 97.5863 49.1388C97.8156 49.637 97.8888 50.193 97.7965 50.7337L95.9494 61.3539L96.4439 67.1474C96.4439 67.1474 90.4254 71.5735 82.8441 66.3808Z" fill="#B75400"/>
<path opacity="0.2" d="M90.601 65.8022C90.4477 63.5768 94.4658 62.7114 94.2803 61.794C94.0949 60.8766 91.2513 61.3514 91.2513 60.4464C91.2513 59.5414 83.7269 57.588 85.4479 53.377C85.93 52.2653 86.1896 51.0699 86.2119 49.8583C85.4043 50.8969 84.4929 51.8505 83.492 52.7044C83.5547 52.8853 83.5758 53.078 83.5538 53.2682C83.5538 53.2954 83.5761 53.3226 83.5835 53.3498C83.7296 53.9822 83.7431 54.6381 83.623 55.276C83.6329 55.4042 83.6254 55.5331 83.6008 55.6593C83.6957 56.3871 83.7321 57.1214 83.7096 57.855C83.7096 57.9144 83.7244 57.9737 83.7368 58.033C83.7703 58.2211 83.7636 58.4141 83.717 58.5993C83.8125 58.8473 83.8194 59.1207 83.7368 59.3732C83.6923 59.5142 83.6453 59.6551 83.5983 59.7961C83.6156 59.8649 83.6256 59.9353 83.628 60.0063C83.6725 61.1264 83.4326 62.2317 83.2422 63.3221C83.0642 64.3384 83.0296 65.3794 82.8417 66.3932C82.9717 66.4543 83.0897 66.538 83.1903 66.6405C83.8382 67.2933 85.0176 67.7186 85.8682 68.045C86.8604 68.4129 87.8867 68.6813 88.9319 68.8461C91.0586 69.2201 93.2492 68.8535 95.1383 67.8076C94.3743 67.8298 90.7394 67.7977 90.601 65.8022Z" fill="black"/>
<path d="M82.8441 66.3808L83.7664 58.7971L83.3931 47.4227C83.3739 46.9249 83.5223 46.4349 83.8146 46.0314C84.1069 45.628 84.5262 45.3342 85.0052 45.1973C88.1456 44.2874 94.8688 43.1697 97.5863 49.1388C97.8156 49.637 97.8888 50.193 97.7965 50.7337L95.9494 61.3539L96.4439 67.1474C96.4439 67.1474 90.4254 71.5735 82.8441 66.3808Z" stroke="#212121" stroke-width="0.275" stroke-linecap="round" stroke-linejoin="round"/>
<path d="M95.2694 61.5987C95.2694 61.5987 85.9969 63.5768 85.5023 61.5987C85.0078 59.6205 88.0986 60.8568 90.601 60.5478" stroke="#212121" stroke-width="0.20625" stroke-linecap="round" stroke-linejoin="round"/>
<path d="M72.313 49.8954L69.3458 48.8198C69.3458 48.8198 68.5669 46.7873 68.0081 46.3669C67.4492 45.9465 66.7717 45.1306 66.5887 45.4421C66.4577 45.6622 66.7989 46.2482 67.2737 46.6562C67.788 47.0988 67.5655 47.6601 67.4591 47.8925C67.3528 48.125 66.5269 48.5058 65.8593 48.7407C65.1917 48.9756 63.6339 48.3945 63.2358 48.7976C62.8377 49.2006 63.8614 49.3366 63.8614 49.3366C63.8614 49.3366 63.0998 49.391 63.0305 49.8311C62.991 50.0957 63.7501 49.93 64.1284 49.8905C64.5067 49.8509 65.2832 49.8015 65.2832 49.8015C65.2832 49.8015 63.9677 50.2589 64.0641 50.6249C64.1606 50.9908 65.0804 50.4345 65.8445 50.3034C65.8445 50.3034 64.8183 50.8128 64.9543 51.154C65.0903 51.4953 65.5824 51.0032 66.4626 50.6595L68.3073 50.2367L71.3066 51.8736L72.313 49.8954Z" fill="white" stroke="#212121" stroke-width="0.275" stroke-linecap="round" stroke-linejoin="round"/>
<path d="M64.1433 49.3317C64.5615 49.4269 64.9907 49.4652 65.4192 49.4454" stroke="#212121" stroke-width="0.20625" stroke-linecap="round" stroke-linejoin="round"/>
<path d="M84.6888 45.4446C84.5917 45.4064 84.4853 45.3983 84.3835 45.4212C84.2817 45.4441 84.1891 45.4971 84.1176 45.5732L78.8137 51.2208L70.1173 48.8198L69.1554 51.2431C69.1554 51.2431 75.7525 54.9348 79.1055 54.732C81.6499 54.5762 84.7605 51.839 86.1131 50.5284C86.3368 50.3098 86.5037 50.0399 86.5993 49.7422C86.695 49.4444 86.7165 49.1278 86.662 48.8198" fill="#B75400"/>
<path d="M84.6888 45.4446C84.5917 45.4064 84.4853 45.3983 84.3835 45.4212C84.2817 45.4441 84.1891 45.4971 84.1176 45.5732L78.8137 51.2208L70.1173 48.8198L69.1554 51.2431C69.1554 51.2431 75.7525 54.9348 79.1055 54.732C81.6499 54.5762 84.7605 51.839 86.1131 50.5284C86.3368 50.3098 86.5037 50.0399 86.5993 49.7422C86.695 49.4444 86.7165 49.1278 86.662 48.8198" stroke="#212121" stroke-width="0.275" stroke-linecap="round" stroke-linejoin="round"/>
<path d="M70.995 50.9859C71.0035 51.0433 70.9948 51.1019 70.9701 51.1543C70.9454 51.2068 70.9058 51.2508 70.8561 51.2808C70.8065 51.3108 70.7491 51.3255 70.6911 51.323C70.6332 51.3204 70.5773 51.3008 70.5304 51.2667C70.4836 51.2325 70.4479 51.1852 70.4278 51.1308C70.4078 51.0763 70.4042 51.0172 70.4177 50.9608C70.4311 50.9044 70.4609 50.8532 70.5034 50.8136C70.5458 50.7741 70.599 50.748 70.6562 50.7386C70.6948 50.7319 70.7343 50.7331 70.7724 50.742C70.8105 50.7509 70.8464 50.7674 70.878 50.7904C70.9096 50.8135 70.9363 50.8427 70.9564 50.8763C70.9765 50.9099 70.9896 50.9471 70.995 50.9859Z" fill="white" stroke="#212121" stroke-width="0.20625" stroke-linecap="round" stroke-linejoin="round"/>
<path d="M78.7272 52.8948C79.0091 52.1653 78.6233 51.5645 79.0189 51.4952C79.4146 51.426 79.4442 52.6772 80.0995 52.6599" stroke="#212121" stroke-width="0.20625" stroke-linecap="round" stroke-linejoin="round"/>
<path d="M48.1796 102.457L41.9386 101.755V87.6361L45.1407 85.7124V85.0077H36.558V85.7074L39.7725 87.6262V101.755L33.5314 102.457C33.2512 102.489 32.9925 102.623 32.8045 102.833C32.6166 103.043 32.5127 103.315 32.5127 103.597V104.176H49.2157V103.597C49.2152 103.313 49.1089 103.038 48.9174 102.828C48.7259 102.617 48.463 102.485 48.1796 102.457Z" fill="white" stroke="#212121" stroke-width="0.20625" stroke-linecap="round" stroke-linejoin="round"/>
<path d="M34.6936 76.734H32.9874V84.4834H34.6936V76.734Z" fill="white" stroke="#212121" stroke-width="0.20625" stroke-linecap="round" stroke-linejoin="round"/>
<path d="M49.918 82.8787H31.7858C31.1944 82.8787 30.7151 83.358 30.7151 83.9493V85.0175C30.7151 85.6089 31.1944 86.0882 31.7858 86.0882H49.918C50.5093 86.0882 50.9887 85.6089 50.9887 85.0175V83.9493C50.9887 83.358 50.5093 82.8787 49.918 82.8787Z" fill="#212121" stroke="#212121" stroke-width="0.275" stroke-linecap="round" stroke-linejoin="round"/>
<path d="M37.416 68.814H30.2675C29.1313 68.814 28.2102 69.7351 28.2102 70.8713V75.3839C28.2102 76.5201 29.1313 77.4412 30.2675 77.4412H37.416C38.5522 77.4412 39.4733 76.5201 39.4733 75.3839V70.8713C39.4733 69.7351 38.5522 68.814 37.416 68.814Z" fill="#212121"/>
<path opacity="0.5" d="M39.2953 68.814H32.1468C31.0106 68.814 30.0895 69.7351 30.0895 70.8713V75.3839C30.0895 76.5201 31.0106 77.4412 32.1468 77.4412H39.2953C40.4315 77.4412 41.3526 76.5201 41.3526 75.3839V70.8713C41.3526 69.7351 40.4315 68.814 39.2953 68.814Z" fill="black"/>
<path d="M37.416 68.814H30.2675C29.1313 68.814 28.2102 69.7351 28.2102 70.8713V75.3839C28.2102 76.5201 29.1313 77.4412 30.2675 77.4412H37.416C38.5522 77.4412 39.4733 76.5201 39.4733 75.3839V70.8713C39.4733 69.7351 38.5522 68.814 37.416 68.814Z" stroke="#212121" stroke-width="0.275" stroke-linecap="round" stroke-linejoin="round"/>
<path d="M47.3859 82.394C47.9193 81.9677 48.5114 81.6204 49.1439 81.3629" stroke="#212121" stroke-width="0.20625" stroke-linecap="round" stroke-linejoin="round"/>
<path d="M48.4467 80.7769C48.4467 80.7769 46.654 82.2457 47.0175 82.4657" stroke="#212121" stroke-width="0.20625" stroke-linecap="round" stroke-linejoin="round"/>
<path d="M54.1141 94.5077L54.6704 98.4269C54.6704 98.4269 53.6294 99.2775 53.5775 101.592L55.4122 102.245L55.9068 101.592L57.5437 103.298C57.5437 103.298 60.4442 104.604 60.8398 103.731C61.2354 102.858 59.6356 102.213 58.283 100.294C57.9319 99.7993 56.7574 98.3849 56.7574 98.3849L56.8736 94.295L54.1141 94.5077Z" fill="#212121" stroke="#212121" stroke-width="0.20625" stroke-linecap="round" stroke-linejoin="round"/>
<path d="M40.1088 77.8739C40.1088 77.8739 55.4618 76.8453 56.1615 79.0138C56.8613 81.1824 57.1902 88.1232 57.2248 90.8827C57.2594 93.6423 57.0418 97.1263 57.0418 97.1263C56.1196 97.4058 55.1353 97.4058 54.2131 97.1263C54.2131 97.1263 53.538 93.123 53.0509 91.177C52.5638 89.231 52.047 86.6347 52.3412 82.5226C52.3412 82.5226 37.6287 84.748 37.5471 82.1665C37.4655 79.585 40.1088 77.8739 40.1088 77.8739Z" fill="white"/>
<path opacity="0.5" d="M40.1088 77.8739C40.1088 77.8739 55.4618 76.8453 56.1615 79.0138C56.8613 81.1824 57.1902 88.1232 57.2248 90.8827C57.2594 93.6423 57.0418 97.1263 57.0418 97.1263C56.1196 97.4058 55.1353 97.4058 54.2131 97.1263C54.2131 97.1263 53.538 93.123 53.0509 91.177C52.5638 89.231 52.047 86.6347 52.3412 82.5226C52.3412 82.5226 37.6287 84.748 37.5471 82.1665C37.4655 79.585 40.1088 77.8739 40.1088 77.8739Z" fill="black"/>
<path opacity="0.2" d="M50.9244 78.6009L51.1915 78.7196L51.2978 78.7616L51.3621 78.7913C51.4763 78.8396 51.5849 78.9001 51.686 78.9718C52.7864 79.5084 53.3056 80.4876 52.9224 81.7363C52.9205 81.8059 52.9138 81.8753 52.9026 81.944C52.7312 82.8221 52.483 83.6834 52.1608 84.5181C52.2595 84.6885 52.3003 84.8863 52.277 85.0818C52.2374 85.3959 52.2053 85.7074 52.1806 86.0215C52.2954 86.292 52.3314 86.5894 52.2844 86.8795C52.2564 87.0677 52.2432 87.2579 52.2449 87.4482C52.3363 88.1356 52.4254 88.823 52.5539 89.503L52.7023 90.0717C52.7023 89.9382 52.7023 89.7948 52.6875 89.6341C52.4006 83.9939 53.271 86.286 53.6543 82.394C53.9584 79.4664 51.9432 78.7666 50.9244 78.6009Z" fill="black"/>
<path d="M40.1088 77.8739C40.1088 77.8739 55.4618 76.8453 56.1615 79.0138C56.8613 81.1824 57.1902 88.1232 57.2248 90.8827C57.2594 93.6423 57.0418 97.1263 57.0418 97.1263C56.1196 97.4058 55.1353 97.4058 54.2131 97.1263C54.2131 97.1263 53.538 93.123 53.0509 91.177C52.5638 89.231 52.047 86.6347 52.3412 82.5226C52.3412 82.5226 37.6287 84.748 37.5471 82.1665C37.4655 79.585 40.1088 77.8739 40.1088 77.8739Z" stroke="#212121" stroke-width="0.275" stroke-linecap="round" stroke-linejoin="round"/>
<path d="M53.9904 81.1255C53.9904 81.1255 53.8322 81.8376 52.8381 82.5275" stroke="#212121" stroke-width="0.20625" stroke-linecap="round" stroke-linejoin="round"/>
<path d="M57.3978 96.2435L57.2914 97.2821C57.2914 97.2821 55.5358 98.2241 53.9904 97.3538L53.6689 96.3325C53.6689 96.3325 54.7149 97.0496 57.3978 96.2435Z" fill="#9E9E9E"/>
<path opacity="0.3" d="M57.3978 96.2435L57.2914 97.2821C57.2914 97.2821 55.5358 98.2241 53.9904 97.3538L53.6689 96.3325C53.6689 96.3325 54.7149 97.0496 57.3978 96.2435Z" fill="#9E9E9E" stroke="#212121" stroke-width="0.20625" stroke-miterlimit="10"/>
<path d="M57.3978 96.2435L57.2914 97.2821C57.2914 97.2821 55.5358 98.2241 53.9904 97.3538L53.6689 96.3325C53.6689 96.3325 54.7149 97.0496 57.3978 96.2435Z" stroke="#212121" stroke-width="0.20625" stroke-linecap="round" stroke-linejoin="round"/>
<path d="M56.6609 98.736C57.3626 99.438 57.9831 100.217 58.5105 101.058" stroke="#616161" stroke-width="0.275" stroke-linecap="round" stroke-linejoin="round"/>
<path d="M42.9548 91.7704L41.2412 95.3385C41.2412 95.3385 39.9035 95.4671 38.5757 97.3636L39.7403 98.9239L40.5143 98.6569L40.9297 100.986C40.9297 100.986 42.6161 103.681 43.4296 103.174C44.2431 102.668 43.2738 101.243 43.2144 98.8967C43.1971 98.286 43.0043 96.4611 43.0043 96.4611L45.3731 93.1254L42.9548 91.7704Z" fill="#212121" stroke="#212121" stroke-width="0.20625" stroke-linecap="round" stroke-linejoin="round"/>
<path d="M34.8271 78.4525C34.8271 78.4525 32.6487 82.8045 35.4329 83.1902C38.2172 83.576 46.7282 83.0814 46.7282 83.0814C45.6618 84.7919 44.7166 86.5749 43.8994 88.4175C42.7966 91.0237 41.6963 93.7066 41.6963 93.7066C41.6963 93.7066 42.1735 94.9924 44.1195 95.2495C44.1195 95.2495 45.6995 92.7768 49.1514 88.9318C52.6033 85.0868 53.5602 81.217 52.8258 79.8941C52.0914 78.5712 48.2711 77.8566 42.0993 77.5723L34.8271 78.4525Z" fill="white"/>
<path opacity="0.5" d="M34.8271 78.4525C34.8271 78.4525 32.6487 82.8045 35.4329 83.1902C38.2172 83.576 46.7282 83.0814 46.7282 83.0814C45.6618 84.7919 44.7166 86.5749 43.8994 88.4175C42.7966 91.0237 41.6963 93.7066 41.6963 93.7066C41.6963 93.7066 42.1735 94.9924 44.1195 95.2495C44.1195 95.2495 45.6995 92.7768 49.1514 88.9318C52.6033 85.0868 53.5602 81.217 52.8258 79.8941C52.0914 78.5712 48.2711 77.8566 42.0993 77.5723L34.8271 78.4525Z" fill="black"/>
<path d="M34.8271 78.4525C34.8271 78.4525 32.6487 82.8045 35.4329 83.1902C38.2172 83.576 46.7282 83.0814 46.7282 83.0814C45.6618 84.7919 44.7166 86.5749 43.8994 88.4175C42.7966 91.0237 41.6963 93.7066 41.6963 93.7066C41.6963 93.7066 42.1735 94.9924 44.1195 95.2495C44.1195 95.2495 45.6995 92.7768 49.1514 88.9318C52.6033 85.0868 53.5602 81.217 52.8258 79.8941C52.0914 78.5712 48.2711 77.8566 42.0993 77.5723L34.8271 78.4525Z" stroke="#212121" stroke-width="0.275" stroke-linecap="round" stroke-linejoin="round"/>
<path d="M44.7723 94.8811L44.1121 95.6897C44.1121 95.6897 42.1339 95.5067 41.3204 93.9266L41.6147 92.898C41.6147 92.898 42.0919 94.0725 44.7723 94.8811Z" fill="#9E9E9E"/>
<path opacity="0.3" d="M44.7723 94.8811L44.1121 95.6897C44.1121 95.6897 42.1339 95.5067 41.3204 93.9266L41.6147 92.898C41.6147 92.898 42.0919 94.0725 44.7723 94.8811Z" fill="#9E9E9E" stroke="#212121" stroke-width="0.20625" stroke-miterlimit="10"/>
<path d="M44.7723 94.8811L44.1121 95.6897C44.1121 95.6897 42.1339 95.5067 41.3204 93.9266L41.6147 92.898C41.6147 92.898 42.0919 94.0725 44.7723 94.8811Z" stroke="#212121" stroke-width="0.20625" stroke-linecap="round" stroke-linejoin="round"/>
<path d="M42.6655 96.7974C42.7644 97.3364 42.9499 98.4343 43.0463 99.6187" stroke="#616161" stroke-width="0.275" stroke-linecap="round" stroke-linejoin="round"/>
<path d="M41.8719 52.4226C41.8719 52.4226 43.7635 51.4829 41.7705 50.2293C39.7775 48.9756 36.2935 52.4226 36.2935 52.4226L35.9547 54.0323C35.9547 54.0323 36.1006 55.3156 36.563 56.0599C36.9339 56.6607 37.5941 56.6632 37.9057 57.2591C38.3829 58.1641 38.2246 58.807 38.7167 58.4114C39.9333 57.4223 40.3264 53.513 40.3264 53.513L41.8719 52.4226Z" fill="#212121" stroke="#212121" stroke-width="0.275" stroke-linecap="round" stroke-linejoin="round"/>
<path d="M41.1424 60.1448L41.4713 58.2161L38.9837 56.0722L38.2815 59.3016L41.1424 60.1448Z" fill="white"/>
<path d="M38.7413 56.2973C38.7413 56.2973 38.9441 57.41 39.5499 58.1098C40.1557 58.8095 41.7358 59.6404 41.7358 59.6404L41.8718 58.315L39.3991 56.4308L38.9837 56.0772L38.7413 56.2973Z" fill="#212121" stroke="#212121" stroke-width="0.1375" stroke-linecap="round" stroke-linejoin="round"/>
<path d="M41.1424 60.1448L41.4713 58.2161L38.9837 56.0722L38.2815 59.3016L41.1424 60.1448Z" stroke="#212121" stroke-width="0.275" stroke-linecap="round" stroke-linejoin="round"/>
<path d="M41.9336 51.7426C41.9336 51.7426 43.0636 53.7207 43.0389 54.2919C43.0389 54.2919 44.5225 58.1864 43.0389 58.8268C41.8866 59.3213 40.4401 58.357 39.8738 57.9169C39.7187 57.7944 39.5886 57.6433 39.4906 57.4718L39.0084 56.6236C39.0084 56.6236 38.4149 56.7943 37.8734 56.0228C37.3319 55.2513 37.8883 54.5194 38.4842 54.9744C38.4842 54.9744 38.9342 54.0422 38.7933 53.5278C38.6523 53.0135 39.3274 53.0061 39.357 52.4596C39.3644 52.4596 40.9692 52.4028 41.9336 51.7426Z" fill="white"/>
<path d="M41.9336 51.7426C41.9336 51.7426 43.0636 53.7207 43.0389 54.2919C43.0389 54.2919 44.5225 58.1864 43.0389 58.8268C41.8866 59.3213 40.4401 58.357 39.8738 57.9169C39.7187 57.7944 39.5886 57.6433 39.4906 57.4718L39.0084 56.6236C39.0084 56.6236 38.4149 56.7943 37.8734 56.0228C37.3319 55.2513 37.8883 54.5194 38.4842 54.9744C38.4842 54.9744 38.9342 54.0422 38.7933 53.5278C38.6523 53.0135 39.3274 53.0061 39.357 52.4596C39.3644 52.4596 40.9692 52.4028 41.9336 51.7426Z" stroke="#212121" stroke-width="0.275" stroke-linecap="round" stroke-linejoin="round"/>
<path d="M41.726 57.0811C41.726 57.0811 42.0919 57.5756 42.8362 56.9154" stroke="#212121" stroke-width="0.20625" stroke-linecap="round" stroke-linejoin="round"/>
<path d="M42.3416 54.7741C42.4776 55.3082 42.3193 55.8077 41.988 55.8917C41.6566 55.9758 41.2783 55.6148 41.1423 55.0832C41.0063 54.5515 41.2239 54.3414 41.5553 54.2598C41.8866 54.1782 42.2056 54.2425 42.3416 54.7741Z" stroke="#212121" stroke-width="0.20625" stroke-linecap="round" stroke-linejoin="round"/>
<path d="M43.855 54.3463C43.991 54.8804 43.8822 55.3675 43.6077 55.4367C43.3333 55.506 43.0069 55.1301 42.8659 54.5985C42.725 54.0669 42.903 53.8715 43.1725 53.8023C43.4421 53.7331 43.7289 53.8023 43.855 54.3463Z" fill="white" stroke="#212121" stroke-width="0.20625" stroke-linecap="round" stroke-linejoin="round"/>
<path d="M40.9668 54.2449C41.0099 54.156 41.0704 54.0765 41.1446 54.0113C41.2189 53.946 41.3054 53.8963 41.3992 53.865C41.493 53.8336 41.592 53.8214 41.6906 53.8289C41.7892 53.8364 41.8852 53.8635 41.9732 53.9086" stroke="#212121" stroke-width="0.20625" stroke-linecap="round" stroke-linejoin="round"/>
<path d="M42.6036 53.6935C42.6212 53.6117 42.6592 53.5357 42.7141 53.4725C42.769 53.4094 42.8391 53.3612 42.9177 53.3325" stroke="#212121" stroke-width="0.20625" stroke-linecap="round" stroke-linejoin="round"/>
<path d="M41.1424 55.0831L40.5119 55.3378L38.4917 54.9743" stroke="#212121" stroke-width="0.20625" stroke-linecap="round" stroke-linejoin="round"/>
<path d="M42.8559 54.4971L42.3514 54.7024" stroke="#212121" stroke-width="0.20625" stroke-linecap="round" stroke-linejoin="round"/>
<path d="M42.0621 54.9026C42.0795 55.0708 42.0127 55.2167 41.9064 55.229C41.8 55.2414 41.7011 55.1128 41.6814 54.9447C41.6616 54.7765 41.7308 54.6306 41.8347 54.6183C41.9385 54.6059 42.0424 54.732 42.0621 54.9026Z" fill="#212121"/>
<path d="M43.2961 54.4551C43.3159 54.6208 43.2714 54.7593 43.1947 54.7691C43.1181 54.779 43.0439 54.6505 43.0266 54.4873C43.0093 54.3241 43.0513 54.1831 43.1255 54.1757C43.1997 54.1683 43.2763 54.2919 43.2961 54.4551Z" fill="#212121"/>
<path d="M42.7249 54.554L43.7634 55.4664C43.788 55.4883 43.8073 55.5156 43.8196 55.5461C43.8319 55.5767 43.8369 55.6097 43.8343 55.6426C43.8317 55.6754 43.8214 55.7072 43.8044 55.7354C43.7874 55.7636 43.764 55.7875 43.7362 55.8052L43.2021 56.139" fill="white"/>
<path d="M42.7249 54.554L43.7634 55.4664C43.788 55.4883 43.8073 55.5156 43.8196 55.5461C43.8319 55.5767 43.8369 55.6097 43.8343 55.6426C43.8317 55.6754 43.8214 55.7072 43.8044 55.7354C43.7874 55.7636 43.764 55.7875 43.7362 55.8052L43.2021 56.139" stroke="#212121" stroke-width="0.20625" stroke-linecap="round" stroke-linejoin="round"/>
<path d="M36.8424 52.4893C36.8424 52.4893 36.6594 49.2006 34.1076 50.5112C31.5557 51.8217 33.9938 55.6791 33.2298 56.5297C32.4657 57.3803 33.9271 56.9995 34.1076 56.3838C34.2881 55.7681 34.1397 57.41 34.4933 57.4693C34.8469 57.5286 34.9038 56.0599 35.2351 56.0599C35.5664 56.0599 35.1486 56.9748 35.4131 57.0761C35.6777 57.1775 36.2934 55.281 36.469 54.2325C36.5618 53.6451 36.6864 53.0632 36.8424 52.4893Z" fill="#212121" stroke="#212121" stroke-width="0.275" stroke-linecap="round" stroke-linejoin="round"/>
<path d="M36.8423 52.0417C36.8423 52.0417 35.9497 53.0308 36.2983 55.5035C36.3107 55.4986 34.5798 52.9937 36.8423 52.0417Z" fill="#9E9E9E" stroke="#212121" stroke-width="0.275" stroke-linecap="round" stroke-linejoin="round"/>
<path d="M38.9565 52.4225C38.9565 52.4225 39.9456 52.697 40.0816 53.513C40.2176 54.329 40.6775 51.6387 38.9565 52.4225Z" fill="#212121" stroke="#212121" stroke-width="0.20625" stroke-linecap="round" stroke-linejoin="round"/>
<path d="M42.2451 52.247C42.2451 52.247 43.3207 51.9231 43.6422 52.6278C43.6348 52.6278 43.4815 50.929 42.2451 52.247Z" fill="#212121" stroke="#212121" stroke-width="0.20625" stroke-linecap="round" stroke-linejoin="round"/>
<path d="M50.7364 51.5398C50.954 51.4805 51.179 51.7624 51.179 51.7624C51.4114 51.3667 51.7824 52.0245 51.7824 52.0245C52.0939 51.6437 52.2522 52.477 52.2522 52.477C52.2522 52.477 52.581 52.4003 52.5415 52.8182C52.4895 53.3671 51.8516 54.6233 51.8516 54.6233L51.4362 56.7498L49.8809 56.5668L50.3754 54.5268L49.9105 53.6317C49.7398 53.272 49.6551 52.8775 49.6633 52.4794C49.7374 51.9725 50.5188 51.5967 50.7364 51.5398Z" fill="white" stroke="#212121" stroke-width="0.275" stroke-linecap="round" stroke-linejoin="round"/>
<path d="M50.7389 52.0492C50.7389 52.0492 51.2038 53.021 51.1469 52.0492C51.1469 52.0492 51.4856 53.2534 51.7008 52.2742C51.7008 52.2742 51.5697 53.3993 52.0272 52.7687C52.0272 52.7687 51.8343 53.105 51.9208 53.2633C52.0074 53.4215 52.2522 53.1619 52.2522 53.1619" fill="white"/>
<path d="M50.7389 52.0492C50.7389 52.0492 51.2038 53.021 51.1469 52.0492C51.1469 52.0492 51.4856 53.2534 51.7008 52.2742C51.7008 52.2742 51.5697 53.3993 52.0272 52.7687C52.0272 52.7687 51.8343 53.105 51.9208 53.2633C52.0074 53.4215 52.2522 53.1619 52.2522 53.1619" stroke="#212121" stroke-width="0.20625" stroke-linecap="round" stroke-linejoin="round"/>
<path d="M43.1477 60.8346L48.1277 60.9385L49.997 55.7458L51.6414 56.3245C51.6414 56.3245 50.7982 62.8993 49.955 63.29C49.1118 63.6807 43.976 64.2371 43.976 64.2371C43.976 64.2371 42.3787 62.474 43.1477 60.8346Z" fill="#9E9E9E"/>
<path opacity="0.2" d="M44.9157 62.3257C44.6951 61.9228 44.3943 61.5693 44.032 61.287C43.6698 61.0046 43.2535 60.7993 42.809 60.6838C43.573 61.1783 44.028 62.1674 44.3272 62.976C44.4478 63.3037 44.5396 63.6412 44.6017 63.9848C45.6813 63.9822 46.758 63.8729 47.8162 63.6584C47.0397 63.6164 45.5388 63.3988 44.9157 62.3257Z" fill="black"/>
<path d="M43.1477 60.8346L48.1277 60.9385L49.997 55.7458L51.6414 56.3245C51.6414 56.3245 50.7982 62.8993 49.955 63.29C49.1118 63.6807 43.976 64.2371 43.976 64.2371C43.976 64.2371 42.3787 62.474 43.1477 60.8346Z" stroke="#212121" stroke-width="0.275" stroke-linecap="round" stroke-linejoin="round"/>
<path d="M49.7028 56.1464L51.6413 56.8066L51.7724 55.9239L49.9377 55.3403L49.7028 56.1464Z" fill="#9E9E9E" stroke="#212121" stroke-width="0.275" stroke-linecap="round" stroke-linejoin="round"/>
<path d="M52.4228 53.785C52.245 53.826 52.0609 53.8315 51.8809 53.8012C51.701 53.7709 51.5288 53.7055 51.3742 53.6085C51.2197 53.5116 51.0857 53.3851 50.9801 53.2363C50.8745 53.0876 50.7992 52.9194 50.7587 52.7415L48.8374 44.3467L51.5574 43.7261L53.4688 52.1209C53.5094 52.2988 53.5145 52.483 53.4839 52.663C53.4534 52.8429 53.3876 53.0151 53.2905 53.1696C53.1934 53.3241 53.0667 53.458 52.9179 53.5636C52.769 53.6692 52.6008 53.7444 52.4228 53.785Z" fill="white" stroke="#212121" stroke-width="0.20625" stroke-linecap="round" stroke-linejoin="round"/>
<path d="M51.1432 44.2461L49.3981 44.6454L49.6827 45.8892L51.4278 45.4898L51.1432 44.2461Z" fill="#9E9E9E"/>
<path opacity="0.7" d="M51.1432 44.2461L49.3981 44.6454L49.6827 45.8892L51.4278 45.4898L51.1432 44.2461Z" fill="white"/>
<path d="M51.4977 45.7851L49.7526 46.1844L50.0372 47.4282L51.7823 47.0288L51.4977 45.7851Z" fill="#9E9E9E"/>
<path opacity="0.3" d="M51.4977 45.7851L49.7526 46.1844L50.0372 47.4282L51.7823 47.0288L51.4977 45.7851Z" fill="white"/>
<path d="M51.8499 47.3271L50.1047 47.7265L50.3894 48.9702L52.1345 48.5709L51.8499 47.3271Z" fill="#9E9E9E"/>
<path d="M52.2013 48.8637L50.4562 49.263L50.7408 50.5068L52.4859 50.1074L52.2013 48.8637Z" fill="#9E9E9E"/>
<path opacity="0.2" d="M52.2013 48.8637L50.4562 49.2631L50.7408 50.5068L52.4859 50.1075L52.2013 48.8637Z" fill="black"/>
<path d="M52.5533 50.4057L50.8082 50.8051L51.0929 52.0488L52.838 51.6495L52.5533 50.4057Z" fill="#9E9E9E"/>
<path opacity="0.3" d="M52.5533 50.4057L50.8082 50.8051L51.0929 52.0488L52.838 51.6494L52.5533 50.4057Z" fill="black"/>
<path d="M50.0737 52.3014C50.0809 52.2457 50.1038 52.1932 50.1398 52.1501C50.1759 52.107 50.2235 52.0751 50.277 52.0582C50.3306 52.0413 50.3879 52.0401 50.4421 52.0547C50.4964 52.0693 50.5453 52.0992 50.5831 52.1407C50.9837 52.4349 51.5722 52.5314 51.5054 52.7143C51.4387 52.8973 51.2853 53.0086 50.7117 52.7762C50.7117 52.7762 50.6103 52.838 50.7537 53.0234C50.9465 53.2251 51.0785 53.4771 51.1345 53.7504" fill="white"/>
<path d="M50.0737 52.3014C50.0809 52.2457 50.1038 52.1932 50.1398 52.1501C50.1759 52.107 50.2235 52.0751 50.277 52.0582C50.3306 52.0413 50.3879 52.0401 50.4421 52.0547C50.4964 52.0693 50.5453 52.0992 50.5831 52.1407C50.9837 52.4349 51.5722 52.5314 51.5054 52.7143C51.4387 52.8973 51.2853 53.0086 50.7117 52.7762C50.7117 52.7762 50.6103 52.838 50.7537 53.0234C50.9465 53.2251 51.0785 53.4771 51.1345 53.7504" stroke="#212121" stroke-width="0.20625" stroke-linecap="round" stroke-linejoin="round"/>
<path d="M33.8776 60.9434L35.4329 74.8498L34.4438 79.0311C34.4438 79.0311 35.4848 79.266 38.3704 78.3586C41.2561 77.4511 44.3445 77.7231 44.3445 77.7231C44.3445 77.7231 45.6228 68.4653 45.111 65.5723C44.8202 63.8666 44.151 62.2478 43.1526 60.8346C43.1526 60.8346 37.6113 58.4114 34.2262 60.2634C34.1071 60.3293 34.0103 60.4292 33.9482 60.5503C33.8861 60.6714 33.8615 60.8083 33.8776 60.9434Z" fill="#9E9E9E"/>
<path opacity="0.12" d="M36.8424 68.9821C36.9586 67.2512 36.1871 64.4052 36.1871 64.4052L35.611 64.4818C35.496 66.157 35.5109 67.8385 35.6555 69.5113C35.7149 70.1814 36.0685 70.8787 36.0462 71.5438C36.0264 72.1348 35.6877 72.5329 35.4008 73.0274C35.3514 73.1115 35.3069 73.1956 35.2574 73.2747C35.3987 73.4944 35.4542 73.7585 35.4132 74.0165C35.381 74.3306 35.3291 74.6396 35.2723 74.9463C35.2901 75.1009 35.2801 75.2575 35.2426 75.4086C35.0695 76.1356 34.9162 76.8552 34.7827 77.5896C34.6522 78.0777 34.5507 78.5731 34.4785 79.0732C35.5672 79.0406 36.6494 78.8948 37.7078 78.638C38.1425 78.533 38.5645 78.3812 38.9664 78.1855C34.9632 78.7764 36.3355 76.1875 36.4567 75.1119C36.5778 74.0363 40.4426 72.7233 40.6355 71.5488C40.8284 70.3743 36.7237 70.7056 36.8424 68.9821Z" fill="black"/>
<path d="M33.8776 60.9434L35.4329 74.8498L34.4438 79.0311C34.4438 79.0311 35.4848 79.266 38.3704 78.3586C41.2561 77.4511 44.3445 77.7231 44.3445 77.7231C44.3445 77.7231 45.6228 68.4653 45.111 65.5723C44.8202 63.8666 44.151 62.2478 43.1526 60.8346C43.1526 60.8346 37.6113 58.4114 34.2262 60.2634C34.1071 60.3293 34.0103 60.4292 33.9482 60.5503C33.8861 60.6714 33.8615 60.8083 33.8776 60.9434V60.9434Z" stroke="#212121" stroke-width="0.275" stroke-linecap="round" stroke-linejoin="round"/>
<path d="M37.3838 59.6403L38.1132 58.216C38.9528 58.4996 39.8071 58.7373 40.6725 58.9282C42.0745 59.2348 41.7357 59.6403 41.7357 59.6403L41.3772 60.7209C41.3772 60.7209 40.8258 61.2698 37.3838 59.6403Z" fill="#9E9E9E" stroke="#212121" stroke-width="0.275" stroke-linecap="round" stroke-linejoin="round"/>
<path d="M34.6738 70.4188C34.6738 70.4188 35.4676 69.7932 35.6629 70.0602C35.8582 70.3273 35.4404 70.2383 35.1263 71.1482" stroke="#212121" stroke-width="0.275" stroke-linecap="round" stroke-linejoin="round"/>
<path d="M41.7902 77.011C41.735 76.7212 41.797 76.4213 41.9624 76.1771C42.1279 75.9329 42.3833 75.7641 42.6729 75.7079L49.4382 74.4072L49.8585 76.5906L43.0933 77.8912C42.8038 77.9471 42.5039 77.8858 42.2596 77.7207C42.0152 77.5557 41.8464 77.3004 41.7902 77.011Z" fill="white" stroke="#212121" stroke-width="0.20625" stroke-linecap="round" stroke-linejoin="round"/>
<path d="M49.4537 76.2532L49.1827 74.8448L48.1799 75.0378L48.4509 76.4461L49.4537 76.2532Z" fill="#9E9E9E"/>
<path opacity="0.7" d="M49.4536 76.2532L49.1826 74.8448L48.1798 75.0378L48.4507 76.4461L49.4536 76.2532Z" fill="white"/>
<path d="M48.2121 76.4934L47.9412 75.0851L46.9383 75.278L47.2093 76.6864L48.2121 76.4934Z" fill="#9E9E9E"/>
<path opacity="0.3" d="M48.2121 76.4934L47.9412 75.0851L46.9383 75.278L47.2093 76.6864L48.2121 76.4934Z" fill="white"/>
<path d="M46.9702 76.7293L46.6997 75.3234L45.6969 75.5163L45.9674 76.9222L46.9702 76.7293Z" fill="#9E9E9E"/>
<path d="M45.7286 76.9676L45.4581 75.5617L44.4553 75.7546L44.7258 77.1605L45.7286 76.9676Z" fill="#9E9E9E"/>
<path opacity="0.2" d="M45.7286 76.9676L45.4581 75.5617L44.4553 75.7546L44.7258 77.1605L45.7286 76.9676Z" fill="black"/>
<path d="M44.487 77.2054L44.2166 75.7995L43.2137 75.9924L43.4842 77.3983L44.487 77.2054Z" fill="#9E9E9E"/>
<path opacity="0.3" d="M44.487 77.2054L44.2166 75.7995L43.2137 75.9924L43.4842 77.3983L44.487 77.2054Z" fill="black"/>
<path d="M42.0597 77.3027C41.9639 77.1923 41.8907 77.0641 41.8445 76.9255C41.7982 76.7868 41.7797 76.6404 41.79 76.4946C41.8003 76.3488 41.8393 76.2064 41.9047 76.0757C41.97 75.9449 42.0605 75.8283 42.171 75.7326L47.3785 71.2224L48.8349 72.9038L43.6274 77.414C43.5172 77.5097 43.3892 77.5828 43.2508 77.6291C43.1123 77.6753 42.9661 77.6938 42.8205 77.6835C42.6749 77.6731 42.5327 77.6342 42.4022 77.5689C42.2716 77.5035 42.1553 77.4131 42.0597 77.3027Z" fill="white" stroke="#212121" stroke-width="0.20625" stroke-linecap="round" stroke-linejoin="round"/>
<path d="M48.314 72.8135L47.3768 71.7312L46.6048 72.3997L47.542 73.482L48.314 72.8135Z" fill="#9E9E9E"/>
<path opacity="0.7" d="M48.3139 72.8135L47.3767 71.7312L46.6047 72.3997L47.5419 73.482L48.3139 72.8135Z" fill="white"/>
<path d="M47.3615 73.6414L46.4227 72.5573L45.6507 73.2257L46.5895 74.3099L47.3615 73.6414Z" fill="#9E9E9E"/>
<path opacity="0.3" d="M47.3614 73.6415L46.4226 72.5573L45.6506 73.2258L46.5894 74.31L47.3614 73.6415Z" fill="white"/>
<path d="M46.4031 74.4691L45.4659 73.3868L44.6939 74.0553L45.6311 75.1376L46.4031 74.4691Z" fill="#9E9E9E"/>
<path d="M45.4489 75.2987L44.5117 74.2164L43.7397 74.8849L44.6769 75.9672L45.4489 75.2987Z" fill="#9E9E9E"/>
<path opacity="0.2" d="M45.4488 75.2987L44.5116 74.2164L43.7396 74.8849L44.6768 75.9672L45.4488 75.2987Z" fill="black"/>
<path d="M44.494 76.1242L43.5552 75.04L42.7832 75.7085L43.722 76.7927L44.494 76.1242Z" fill="#9E9E9E"/>
<path opacity="0.3" d="M44.494 76.1242L43.5552 75.04L42.7832 75.7085L43.722 76.7927L44.494 76.1242Z" fill="black"/>
<path d="M42.2699 77.3423C41.9918 77.2452 41.7634 77.0418 41.6351 76.7767C41.5067 76.5115 41.4886 76.2063 41.585 75.9279L43.84 69.4297L45.9394 70.1567L43.6843 76.6672C43.5858 76.944 43.3816 77.1704 43.1165 77.2969C42.8514 77.4235 42.547 77.4398 42.2699 77.3423Z" fill="white" stroke="#212121" stroke-width="0.20625" stroke-linecap="round" stroke-linejoin="round"/>
<path d="M45.4464 70.3299L44.0913 69.8604L43.757 70.8254L45.1121 71.2949L45.4464 70.3299Z" fill="#9E9E9E"/>
<path opacity="0.7" d="M45.4464 70.3299L44.0913 69.8604L43.757 70.8254L45.1121 71.2949L45.4464 70.3299Z" fill="white"/>
<path d="M45.0289 71.5219L43.6761 71.0532L43.3418 72.0181L44.6946 72.4868L45.0289 71.5219Z" fill="#9E9E9E"/>
<path opacity="0.3" d="M45.0289 71.5219L43.6761 71.0532L43.3418 72.0181L44.6946 72.4868L45.0289 71.5219Z" fill="white"/>
<path d="M44.6162 72.7155L43.2634 72.2468L42.9291 73.2117L44.2819 73.6804L44.6162 72.7155Z" fill="#9E9E9E"/>
<path d="M44.2058 73.9124L42.8507 73.4428L42.5164 74.4078L43.8715 74.8773L44.2058 73.9124Z" fill="#9E9E9E"/>
<path opacity="0.2" d="M44.2058 73.9124L42.8507 73.4428L42.5164 74.4078L43.8715 74.8773L44.2058 73.9124Z" fill="black"/>
<path d="M43.7885 75.1044L42.4357 74.6357L42.1013 75.6006L43.4541 76.0693L43.7885 75.1044Z" fill="#9E9E9E"/>
<path opacity="0.3" d="M43.7885 75.1043L42.4357 74.6356L42.1013 75.6006L43.4541 76.0693L43.7885 75.1043Z" fill="black"/>
<path d="M39.6711 73.2698L41.5454 74.6372C41.5454 74.6372 43.672 74.6372 44.0577 75.2183C44.4434 75.7994 44.5522 76.4546 44.2061 76.6895C43.8599 76.9244 44.3866 76.0615 43.4247 75.6238C43.4247 75.6238 43.9192 77.8665 43.0612 77.3868C43.0612 77.3868 42.9499 77.7676 42.626 77.419C42.6822 77.1398 42.6402 76.8498 42.5073 76.598C42.4689 76.5048 42.4071 76.423 42.3278 76.3606C42.2485 76.2982 42.1545 76.2574 42.0548 76.242C42.0548 76.242 42.6582 77.0654 42.26 77.2904C41.9386 77.4709 41.7655 76.2865 41.3353 76.153C41.1027 76.1374 40.8784 76.0606 40.6851 75.9303C40.4919 75.8 40.3365 75.6209 40.2349 75.4112L38.7834 74.6224L39.6711 73.2698Z" fill="white" stroke="#212121" stroke-width="0.275" stroke-linecap="round" stroke-linejoin="round"/>
<path d="M43.1354 77.0381C43.1831 76.6206 43.066 76.201 42.809 75.8686" stroke="#212121" stroke-width="0.20625" stroke-linecap="round" stroke-linejoin="round"/>
<path d="M43.6002 75.238C43.6002 75.238 43.5607 75.4087 43.1749 75.3716C42.8906 75.3444 42.4727 75.918 42.0375 75.8315" stroke="#212121" stroke-width="0.20625" stroke-linecap="round" stroke-linejoin="round"/>
<path d="M34.2832 60.5602C34.2608 60.5297 34.2307 60.5058 34.1959 60.491C34.1611 60.4762 34.123 60.471 34.0855 60.4761C34.048 60.4812 34.0126 60.4962 33.983 60.5197C33.9534 60.5432 33.9307 60.5743 33.9172 60.6096C33.5092 61.658 32.4163 65.1618 33.0048 71.3732C33.0048 71.3732 33.4771 72.6417 39.0258 75.0649L40.0816 73.433L35.9794 70.1023C35.9794 70.1023 36.516 65.6514 36.1105 63.9898" fill="#9E9E9E"/>
<path d="M34.2832 60.5602C34.2608 60.5297 34.2307 60.5058 34.1959 60.491C34.1611 60.4762 34.123 60.471 34.0855 60.4761C34.048 60.4812 34.0126 60.4962 33.983 60.5197C33.9534 60.5432 33.9307 60.5743 33.9172 60.6096C33.5092 61.658 32.4163 65.1618 33.0048 71.3732C33.0048 71.3732 33.4771 72.6417 39.0258 75.0649L40.0816 73.433L35.9794 70.1023C35.9794 70.1023 36.516 65.6514 36.1105 63.9898" stroke="#212121" stroke-width="0.275" stroke-linecap="round" stroke-linejoin="round"/>
<path d="M39.8368 73.0571L38.5634 75.1193L39.5623 75.4779L40.6355 73.6753L39.8368 73.0571Z" fill="#9E9E9E" stroke="#212121" stroke-width="0.275" stroke-linecap="round" stroke-linejoin="round"/>
<path d="M17.5034 40.5437C17.5256 41.2064 17.5949 43.1944 17.5949 43.1944L21.5363 45.5583L21.7836 41.0531L21.9196 34.8714L22.5674 33.9713C22.5674 33.9713 23.5367 32.4877 21.9196 31.9115C20.3025 31.3354 20.7525 32.4061 19.1452 32.5866C17.538 32.7671 13.7696 35.3065 15.4758 37.5147C17.1819 39.7228 17.4638 39.4359 17.5034 40.5437Z" fill="#9E9E9E"/>
<path d="M19.0142 39.3642C19.2451 39.5637 19.5222 39.7022 19.8203 39.7673C19.8203 39.7673 20.4311 41.4981 20.7377 41.7306C21.0443 41.963 22.1372 42.1485 22.1372 42.1485L22.4587 39.8662L20.1887 38.3826L18.9524 38.0117L19.0142 39.3642Z" fill="#212121" stroke="#212121" stroke-width="0.275" stroke-linecap="round" stroke-linejoin="round"/>
<path d="M17.5034 40.5437C17.5256 41.2064 17.5949 43.1944 17.5949 43.1944L21.5363 45.5583L21.7836 41.0531L21.9196 34.8714L22.5674 33.9713C22.5674 33.9713 23.5367 32.4877 21.9196 31.9115C20.3025 31.3354 20.7525 32.4061 19.1452 32.5866C17.538 32.7671 13.7696 35.3065 15.4758 37.5147C17.1819 39.7228 17.4638 39.4359 17.5034 40.5437Z" stroke="#212121" stroke-width="0.275" stroke-linecap="round" stroke-linejoin="round"/>
<path d="M21.9171 34.8763L22.5649 33.9762C22.5649 33.9762 23.5342 32.4926 21.9171 31.9165C20.3 31.3404 20.75 32.411 19.1427 32.5915C17.5355 32.772 13.7696 35.3065 15.4757 37.5147C16.5835 38.9587 17.0929 39.337 17.3228 39.7401C17.5045 39.6232 17.7211 39.573 17.9356 39.5978C18.1502 39.6225 18.3496 39.7209 18.4998 39.8761C19.1427 40.5165 19.798 36.9385 19.798 36.9385L21.9047 35.4425L21.9171 34.8763Z" fill="#212121" stroke="#212121" stroke-width="0.275" stroke-linecap="round" stroke-linejoin="round"/>
<path d="M19.0463 37.2575C19.0463 37.2575 17.4588 37.2995 18.3045 38.4938C19.1502 39.6882 20.0354 39.4607 20.0354 39.4607L21.0022 41.3028C21.0022 41.3028 24.3675 41.7776 25.1613 41.5501C25.955 41.3226 24.5827 38.5482 24.5827 38.5482L25.1093 37.9449C25.1387 37.9119 25.1609 37.8732 25.1748 37.8312C25.1886 37.7893 25.1937 37.7449 25.1898 37.7009C25.1859 37.6569 25.173 37.6142 25.1519 37.5754C25.1308 37.5365 25.102 37.5024 25.0673 37.4751L23.8112 36.4662C23.9175 35.8456 22.5452 33.9787 22.5452 33.9787C22.5452 33.9787 20.5077 33.9565 20.3197 34.6439C20.2044 35.0507 20.1112 35.4634 20.0403 35.8802L18.8831 36.3525L19.0463 37.2575Z" fill="#9E9E9E"/>
<path opacity="0.3" d="M19.8203 35.3906L20.0676 35.8851C20.0676 35.8851 21.0863 36.5824 21.1407 36.9583C21.21 37.4528 20.6833 37.7941 21.7589 38.845C22.8345 39.8958 23.8656 38.6743 24.6149 38.5458C25.3641 38.4172 25.9872 40.3261 25.9872 40.3261L25.9031 42.057L21.7589 42.1856L20.8613 41.6292L19.6868 39.6511C19.6868 39.6511 20.9602 39.5373 20.3248 38.4147C19.4445 36.8643 18.4158 37.0844 18.4158 37.0844L17.7062 36.4539L19.531 35.1409L19.8203 35.3906Z" fill="black"/>
<path d="M19.0463 37.2575C19.0463 37.2575 17.4588 37.2995 18.3045 38.4938C19.1502 39.6882 20.0354 39.4607 20.0354 39.4607L21.0022 41.3028C21.0022 41.3028 24.3675 41.7776 25.1613 41.5501C25.955 41.3226 24.5827 38.5482 24.5827 38.5482L25.1093 37.9449C25.1387 37.9119 25.1609 37.8732 25.1748 37.8312C25.1886 37.7893 25.1937 37.7449 25.1898 37.7009C25.1859 37.6569 25.173 37.6142 25.1519 37.5754C25.1308 37.5365 25.102 37.5024 25.0673 37.4751L23.8112 36.4662C23.9175 35.8456 22.5452 33.9787 22.5452 33.9787C22.5452 33.9787 20.5077 33.9565 20.3197 34.6439C20.2044 35.0507 20.1112 35.4634 20.0403 35.8802L18.8831 36.3525L19.0463 37.2575Z" stroke="#212121" stroke-width="0.275" stroke-linecap="round" stroke-linejoin="round"/>
<path d="M23.5219 36.6294C23.5862 36.8198 23.5763 36.9979 23.4972 37.0251C23.4181 37.0523 23.3019 36.9187 23.2376 36.7259C23.1733 36.533 23.1856 36.3599 23.2623 36.3327C23.3389 36.3055 23.4527 36.439 23.5219 36.6294Z" fill="#212121"/>
<path d="M23.2054 35.7343C23.2054 35.7343 22.6268 35.6057 22.4636 36.3995" stroke="#212121" stroke-width="0.275" stroke-linecap="round" stroke-linejoin="round"/>
<path d="M24.3552 38.934C24.3552 38.934 24.1549 39.4928 23.3909 39.2109" stroke="#212121" stroke-width="0.275" stroke-linecap="round" stroke-linejoin="round"/>
<path d="M38.311 38.8277C38.5583 38.934 38.5781 39.3815 38.5781 39.3815C39.1072 39.1664 38.9787 40.0912 38.9787 40.0912C39.5696 39.9503 39.1023 40.8923 39.1023 40.8923C39.1023 40.8923 39.4856 41.0654 39.132 41.4462C38.6671 41.9408 37.0945 42.7073 37.0945 42.7073L35.0866 44.4975L33.6896 43.1474L35.7023 41.4982C35.7023 41.4982 35.7988 40.9616 35.9249 40.2618C35.9249 40.2618 36.1103 39.4013 36.5554 38.9488C37.0005 38.4963 38.0415 38.7213 38.311 38.8277Z" fill="#9E9E9E" stroke="#212121" stroke-width="0.275" stroke-linecap="round" stroke-linejoin="round"/>
<path d="M37.9327 39.3321C37.9327 39.3321 37.6582 40.6426 38.3357 39.6338C38.3357 39.6338 37.767 41.0778 38.714 40.2742C38.714 40.2742 37.7373 41.2855 38.6671 40.9987C38.6671 40.9987 38.2269 41.1866 38.1923 41.4042C38.1577 41.6218 38.5954 41.5526 38.5954 41.5526" fill="#9E9E9E"/>
<path d="M37.9327 39.3321C37.9327 39.3321 37.6582 40.6426 38.3357 39.6338C38.3357 39.6338 37.767 41.0778 38.714 40.2742C38.714 40.2742 37.7373 41.2855 38.6671 40.9987C38.6671 40.9987 38.2269 41.1866 38.1923 41.4042C38.1577 41.6218 38.5954 41.5526 38.5954 41.5526" stroke="#212121" stroke-width="0.275" stroke-linecap="round" stroke-linejoin="round"/>
<path d="M17.4044 49.8954C17.4044 49.8954 20.9824 50.7287 28.6477 49.5987C28.6477 49.5987 34.5352 46.5226 36.0386 43.6914L34.6415 42.0866L27.4089 46.1468C27.4089 46.1468 19.8771 44.9846 18.4825 45.1577L17.4044 49.8954Z" fill="#212121" stroke="#212121" stroke-width="0.275" stroke-linecap="round" stroke-linejoin="round"/>
<path d="M48.44 30.6668L36.3573 32.7995L37.942 41.7776L50.0247 39.6449L48.44 30.6668Z" fill="#B75400" stroke="#212121" stroke-width="0.20625" stroke-linecap="round" stroke-linejoin="round"/>
<path d="M38.5062 33.018L37.24 33.2415L37.4059 34.1815L38.6721 33.958L38.5062 33.018Z" fill="#212121" stroke="#212121" stroke-width="0.275" stroke-linecap="round" stroke-linejoin="round"/>
<path d="M39.5598 39.4755L41.6517 34.5969L45.2866 38.4642L39.5598 39.4755Z" fill="#9E9E9E"/>
<path opacity="0.5" d="M39.5598 39.4755L41.6517 34.5969L45.2866 38.4642L39.5598 39.4755Z" fill="white"/>
<path d="M39.5598 39.4755L41.6517 34.5969L45.2866 38.4642L39.5598 39.4755Z" stroke="#212121" stroke-width="0.20625" stroke-linecap="round" stroke-linejoin="round"/>
<path d="M43.343 38.8079L44.9404 35.084L47.7172 38.0364L43.343 38.8079Z" fill="#9E9E9E" stroke="#212121" stroke-width="0.20625" stroke-linecap="round" stroke-linejoin="round"/>
<path d="M44.4977 34.0949C44.5234 34.2395 44.5056 34.3884 44.4466 34.5228C44.3876 34.6573 44.2901 34.7712 44.1663 34.8501C44.0426 34.9291 43.8982 34.9696 43.7514 34.9664C43.6046 34.9633 43.4621 34.9166 43.3418 34.8324C43.2215 34.7482 43.129 34.6302 43.0758 34.4933C43.0227 34.3565 43.0113 34.2069 43.0432 34.0636C43.0751 33.9203 43.1488 33.7897 43.255 33.6883C43.3612 33.5869 43.495 33.5193 43.6396 33.494C43.8331 33.4602 44.032 33.5045 44.1928 33.6172C44.3537 33.7298 44.4633 33.9016 44.4977 34.0949Z" fill="#9E9E9E"/>
<path opacity="0.7" d="M44.4977 34.0949C44.5234 34.2395 44.5056 34.3884 44.4466 34.5228C44.3876 34.6573 44.2901 34.7712 44.1663 34.8501C44.0426 34.9291 43.8982 34.9696 43.7514 34.9664C43.6046 34.9633 43.4621 34.9166 43.3418 34.8324C43.2215 34.7482 43.129 34.6302 43.0758 34.4933C43.0227 34.3565 43.0113 34.2069 43.0432 34.0636C43.0751 33.9203 43.1488 33.7897 43.255 33.6883C43.3612 33.5869 43.495 33.5193 43.6396 33.494C43.8331 33.4602 44.032 33.5045 44.1928 33.6172C44.3537 33.7298 44.4633 33.9016 44.4977 34.0949Z" fill="white"/>
<path d="M44.4977 34.0949C44.5234 34.2395 44.5056 34.3884 44.4466 34.5228C44.3876 34.6573 44.2901 34.7712 44.1663 34.8501C44.0426 34.9291 43.8982 34.9696 43.7514 34.9664C43.6046 34.9633 43.4621 34.9166 43.3418 34.8324C43.2215 34.7482 43.129 34.6302 43.0758 34.4933C43.0227 34.3565 43.0113 34.2069 43.0432 34.0636C43.0751 33.9203 43.1488 33.7897 43.255 33.6883C43.3612 33.5869 43.495 33.5193 43.6396 33.494C43.8331 33.4602 44.032 33.5045 44.1928 33.6172C44.3537 33.7298 44.4633 33.9016 44.4977 34.0949V34.0949Z" stroke="#212121" stroke-width="0.20625" stroke-linecap="round" stroke-linejoin="round"/>
<path d="M37.0821 38.8326C37.1314 38.7834 37.1937 38.7493 37.2618 38.7343C37.3298 38.7193 37.4007 38.724 37.4661 38.7479C37.5316 38.7718 37.5888 38.8138 37.6312 38.8691C37.6735 38.9244 37.6992 38.9907 37.7052 39.0601C37.8808 39.6486 38.6399 39.9428 38.4322 40.069C38.2245 40.1951 37.7473 40.4423 37.3541 39.7821C37.3541 39.7821 37.2082 39.7673 37.2181 40.0516C37.2305 40.3978 37.2181 40.8305 37.0475 41.0531" fill="#9E9E9E"/>
<path d="M37.0821 38.8326C37.1314 38.7834 37.1937 38.7493 37.2618 38.7343C37.3298 38.7193 37.4007 38.724 37.4661 38.7479C37.5316 38.7718 37.5888 38.8138 37.6312 38.8691C37.6735 38.9244 37.6992 38.9907 37.7052 39.0601C37.8808 39.6486 38.6399 39.9428 38.4322 40.069C38.2245 40.1951 37.7473 40.4423 37.3541 39.7821C37.3541 39.7821 37.2082 39.7673 37.2181 40.0516C37.2305 40.3978 37.2181 40.8305 37.0475 41.0531" stroke="#212121" stroke-width="0.275" stroke-linecap="round" stroke-linejoin="round"/>
<path d="M9.75892 99.0599C9.11295 99.8889 8.65864 100.851 8.42861 101.876C8.40549 101.978 8.40297 102.083 8.42122 102.185C8.43947 102.288 8.47811 102.385 8.53485 102.472C8.59159 102.56 8.66527 102.634 8.75151 102.693C8.83775 102.751 8.9348 102.791 9.03689 102.811L14.0565 103.835C15.1593 104.062 16.8481 104.015 17.7012 103.973C17.7996 103.97 17.8961 103.945 17.9843 103.901C18.0724 103.857 18.1502 103.795 18.2125 103.719C18.2747 103.643 18.32 103.554 18.3453 103.459C18.3705 103.364 18.3752 103.264 18.3589 103.167C18.3123 102.977 18.2228 102.8 18.0972 102.649C17.9716 102.499 17.8133 102.379 17.6344 102.299C16.4475 101.641 13.6262 101.199 12.464 99.4159L9.75892 99.0599Z" fill="#212121" stroke="#212121" stroke-width="0.275" stroke-linecap="round" stroke-linejoin="round"/>
<path d="M24.726 68.1785C24.726 68.1785 22.0852 75.5149 18.7051 82.5349C18.7051 82.5349 18.0498 85.6208 16.5736 87.7275L12.8646 99.5692C12.8646 99.5692 11.2375 100.239 9.30884 99.0747C9.30884 99.0747 10.2287 91.4984 12.5802 86.0016L13.9674 81.6472L15.6983 72.879C15.6983 72.879 14.232 70.3421 14.6226 66.6182L21.1332 66.5292L24.726 68.1785Z" fill="#9E9E9E"/>
<path opacity="0.2" d="M16.3659 67.0311C15.9282 67.2784 15.5128 67.5578 15.0677 67.7902C14.8362 67.9013 14.6123 68.0276 14.3976 68.1686C14.4125 68.1686 14.3828 68.1908 14.3531 68.218C14.3576 68.2583 14.3576 68.2989 14.3531 68.3392C14.3407 68.4141 14.3191 68.4872 14.2888 68.5568C14.404 68.6691 14.4925 68.8058 14.5477 68.9569C14.6029 69.108 14.6234 69.2695 14.6078 69.4296C14.6078 69.5434 14.6078 69.6571 14.588 69.7709L14.6202 69.8203C14.7642 70.1411 14.8617 70.4808 14.9095 70.8292C15.0143 71.348 15.1863 71.8509 15.4213 72.3252C15.4713 72.4351 15.5086 72.5504 15.5326 72.6689L15.6982 72.879C15.6982 72.879 17.3006 83.6006 18.4949 83.3608C19.6892 83.1209 20.473 77.409 20.473 77.409L16.3659 67.0311Z" fill="black"/>
<path d="M24.726 68.1785C24.726 68.1785 22.0852 75.5149 18.7051 82.5349C18.7051 82.5349 18.0498 85.6208 16.5736 87.7275L12.8646 99.5692C12.8646 99.5692 11.2375 100.239 9.30884 99.0747C9.30884 99.0747 10.2287 91.4984 12.5802 86.0016L13.9674 81.6472L15.6983 72.879C15.6983 72.879 14.232 70.3421 14.6226 66.6182L21.1332 66.5292L24.726 68.1785Z" stroke="#212121" stroke-width="0.275" stroke-linecap="round" stroke-linejoin="round"/>
<path d="M20.9799 100.237C20.9799 100.237 20.1887 101.293 20.1466 103.177C20.1457 103.286 20.1664 103.395 20.2076 103.496C20.2488 103.597 20.3097 103.689 20.3868 103.767C20.4638 103.844 20.5555 103.906 20.6565 103.947C20.7574 103.989 20.8657 104.011 20.975 104.01H26.4149C27.6092 104.01 29.3525 103.602 30.2303 103.377C30.3325 103.352 30.4281 103.305 30.5108 103.239C30.5935 103.174 30.6613 103.092 30.7097 102.998C30.7581 102.905 30.7861 102.802 30.7917 102.697C30.7973 102.591 30.7804 102.486 30.7421 102.388C30.6515 102.202 30.5202 102.039 30.358 101.91C30.1958 101.782 30.0068 101.692 29.805 101.646C28.4301 101.219 25.406 101.359 23.8186 99.7547L20.9799 100.237Z" fill="#212121" stroke="#212121" stroke-width="0.275" stroke-linecap="round" stroke-linejoin="round"/>
<path d="M24.2563 65.9184C24.2563 65.9184 25.3468 73.8088 24.2563 81.531C24.2563 81.531 24.3231 84.7455 23.5516 87.1935L24.1673 99.8709C24.1673 99.8709 22.8444 100.9 20.6561 100.385C20.6561 100.385 18.4034 92.4059 18.9252 86.6791L18.6779 82.1096L16.9248 72.6442C16.9248 72.6442 14.9145 71.1605 14.1578 67.496L20.3396 65.4363L24.2563 65.9184Z" fill="#9E9E9E" stroke="#212121" stroke-width="0.275" stroke-linecap="round" stroke-linejoin="round"/>
<path d="M16.989 42.9843C16.989 42.9843 14.2863 45.044 13.8981 50.1921C13.5099 55.3403 12.6766 66.0866 14.3506 68.9178C14.3506 68.9178 15.9579 66.0272 24.6469 67.1869C24.6469 67.1869 25.547 62.8746 24.1944 54.4452C22.8418 46.0158 21.2989 43.8868 16.989 42.9843Z" fill="#212121" stroke="#212121" stroke-width="0.275" stroke-linecap="round" stroke-linejoin="round"/>
<path d="M16.989 43.2414L17.2363 41.6342C18.5339 41.7013 19.7751 42.1862 20.7747 43.0164C21.9245 43.9857 22.288 44.9154 21.4497 46.0083L16.989 43.4343V43.2414Z" fill="#212121" stroke="#212121" stroke-width="0.275" stroke-linecap="round" stroke-linejoin="round"/>
<path d="M21.3905 45.405C20.4484 44.186 19.2442 43.5357 17.6122 43.1227" stroke="#616161" stroke-width="0.20625" stroke-linecap="round" stroke-linejoin="round"/>
<path d="M23.4774 50.5334C23.02 48.5997 22.5056 47.1656 21.8578 46.0825" stroke="#616161" stroke-width="0.20625" stroke-linecap="round" stroke-linejoin="round"/>
<path d="M30.8729 61.5214L18.6034 61.5385L18.6161 70.6553L30.8856 70.6381L30.8729 61.5214Z" fill="#9E9E9E" stroke="#212121" stroke-width="0.20625" stroke-linecap="round" stroke-linejoin="round"/>
<path d="M20.6837 62.1241L19.3979 62.1259L19.3993 63.0804L20.6851 63.0786L20.6837 62.1241Z" fill="#212121" stroke="#212121" stroke-width="0.275" stroke-linecap="round" stroke-linejoin="round"/>
<path d="M20.6041 68.6705L23.5071 64.2246L26.4199 68.6606L20.6041 68.6705Z" fill="#9E9E9E"/>
<path opacity="0.5" d="M20.6041 68.6705L23.5071 64.2246L26.4199 68.6606L20.6041 68.6705Z" fill="white"/>
<path d="M20.6041 68.6705L23.5071 64.2246L26.4199 68.6606L20.6041 68.6705Z" stroke="#212121" stroke-width="0.20625" stroke-linecap="round" stroke-linejoin="round"/>
<path d="M24.4467 68.6656L26.6622 65.2706L28.8876 68.6582L24.4467 68.6656Z" fill="#9E9E9E" stroke="#212121" stroke-width="0.20625" stroke-linecap="round" stroke-linejoin="round"/>
<path d="M26.3977 64.2197C26.3977 64.3664 26.3542 64.5099 26.2727 64.6318C26.1911 64.7538 26.0753 64.8489 25.9397 64.9051C25.8042 64.9612 25.655 64.9759 25.5111 64.9473C25.3673 64.9186 25.2351 64.848 25.1313 64.7443C25.0276 64.6405 24.9569 64.5083 24.9283 64.3644C24.8997 64.2205 24.9144 64.0714 24.9705 63.9358C25.0267 63.8003 25.1218 63.6844 25.2437 63.6029C25.3657 63.5214 25.5092 63.4779 25.6559 63.4779C25.8526 63.4779 26.0413 63.5561 26.1804 63.6952C26.3195 63.8343 26.3977 64.023 26.3977 64.2197Z" fill="#9E9E9E"/>
<path opacity="0.7" d="M26.3977 64.2197C26.3977 64.3664 26.3542 64.5099 26.2727 64.6318C26.1911 64.7538 26.0753 64.8489 25.9397 64.9051C25.8042 64.9612 25.655 64.9759 25.5111 64.9473C25.3673 64.9186 25.2351 64.848 25.1313 64.7443C25.0276 64.6405 24.9569 64.5083 24.9283 64.3644C24.8997 64.2205 24.9144 64.0714 24.9705 63.9358C25.0267 63.8003 25.1218 63.6844 25.2437 63.6029C25.3657 63.5214 25.5092 63.4779 25.6559 63.4779C25.8526 63.4779 26.0413 63.5561 26.1804 63.6952C26.3195 63.8343 26.3977 64.023 26.3977 64.2197Z" fill="white"/>
<path d="M26.3977 64.2197C26.3977 64.3664 26.3542 64.5099 26.2727 64.6318C26.1911 64.7538 26.0753 64.8489 25.9397 64.9051C25.8042 64.9612 25.655 64.9759 25.5111 64.9473C25.3673 64.9186 25.2351 64.848 25.1313 64.7443C25.0276 64.6405 24.9569 64.5083 24.9283 64.3644C24.8997 64.2205 24.9144 64.0714 24.9705 63.9358C25.0267 63.8003 25.1218 63.6844 25.2437 63.6029C25.3657 63.5214 25.5092 63.4779 25.6559 63.4779C25.8526 63.4779 26.0413 63.5561 26.1804 63.6952C26.3195 63.8343 26.3977 64.023 26.3977 64.2197Z" stroke="#212121" stroke-width="0.20625" stroke-linecap="round" stroke-linejoin="round"/>
<path d="M30.2283 60.7735L18.0632 62.3707L19.2501 71.4099L31.4151 69.8127L30.2283 60.7735Z" fill="white" stroke="#212121" stroke-width="0.20625" stroke-linecap="round" stroke-linejoin="round"/>
<path d="M20.2048 62.6848L18.9299 62.8522L19.0542 63.7985L20.329 63.6311L20.2048 62.6848Z" fill="#212121" stroke="#212121" stroke-width="0.275" stroke-linecap="round" stroke-linejoin="round"/>
<path d="M20.9701 69.1824L23.2771 64.4002L26.7389 68.4233L20.9701 69.1824Z" fill="#9E9E9E"/>
<path opacity="0.5" d="M20.9701 69.1824L23.2771 64.4002L26.7389 68.4233L20.9701 69.1824Z" fill="white"/>
<path d="M20.9701 69.1824L23.2771 64.4002L26.7389 68.4233L20.9701 69.1824Z" stroke="#212121" stroke-width="0.20625" stroke-linecap="round" stroke-linejoin="round"/>
<path d="M24.7805 68.6804L26.5411 65.0307L29.1844 68.1018L24.7805 68.6804Z" fill="#9E9E9E" stroke="#212121" stroke-width="0.20625" stroke-linecap="round" stroke-linejoin="round"/>
<path d="M26.143 64.0219C26.1622 64.1673 26.1379 64.3152 26.0732 64.4468C26.0084 64.5784 25.906 64.6879 25.7791 64.7613C25.6521 64.8348 25.5062 64.869 25.3598 64.8595C25.2134 64.8501 25.0731 64.7974 24.9566 64.7083C24.8402 64.6191 24.7527 64.4974 24.7054 64.3585C24.6581 64.2197 24.653 64.0699 24.6908 63.9282C24.7286 63.7864 24.8075 63.6591 24.9177 63.5622C25.0279 63.4653 25.1643 63.4033 25.3097 63.3839C25.4063 63.3711 25.5045 63.3774 25.5986 63.4025C25.6928 63.4276 25.7811 63.471 25.8585 63.5302C25.9359 63.5895 26.0009 63.6634 26.0497 63.7478C26.0985 63.8321 26.1302 63.9253 26.143 64.0219Z" fill="#9E9E9E"/>
<path opacity="0.7" d="M26.143 64.0219C26.1622 64.1673 26.1379 64.3152 26.0732 64.4468C26.0084 64.5784 25.906 64.6879 25.7791 64.7613C25.6521 64.8348 25.5062 64.869 25.3598 64.8595C25.2134 64.8501 25.0731 64.7974 24.9566 64.7083C24.8402 64.6191 24.7527 64.4974 24.7054 64.3585C24.6581 64.2197 24.653 64.0699 24.6908 63.9282C24.7286 63.7864 24.8075 63.6591 24.9177 63.5622C25.0279 63.4653 25.1643 63.4033 25.3097 63.3839C25.4063 63.3711 25.5045 63.3774 25.5986 63.4025C25.6928 63.4276 25.7811 63.471 25.8585 63.5302C25.9359 63.5895 26.0009 63.6634 26.0497 63.7478C26.0985 63.8321 26.1302 63.9253 26.143 64.0219Z" fill="white"/>
<path d="M26.143 64.0219C26.1622 64.1673 26.1379 64.3152 26.0732 64.4468C26.0084 64.5784 25.906 64.6879 25.7791 64.7613C25.6521 64.8348 25.5062 64.869 25.3598 64.8595C25.2134 64.8501 25.0731 64.7974 24.9566 64.7083C24.8402 64.6191 24.7527 64.4974 24.7054 64.3585C24.6581 64.2197 24.653 64.0699 24.6908 63.9282C24.7286 63.7864 24.8075 63.6591 24.9177 63.5622C25.0279 63.4653 25.1643 63.4033 25.3097 63.3839C25.4063 63.3711 25.5045 63.3774 25.5986 63.4025C25.6928 63.4276 25.7811 63.471 25.8585 63.5302C25.9359 63.5895 26.0009 63.6634 26.0497 63.7478C26.0985 63.8321 26.1302 63.9253 26.143 64.0219V64.0219Z" stroke="#212121" stroke-width="0.20625" stroke-linecap="round" stroke-linejoin="round"/>
<path d="M23.0842 65.9184L24.3823 67.768L25.866 68.1117C26.4742 68.2527 26.7957 68.3862 27.0281 68.9697C27.1938 69.3876 27.0825 69.5162 26.7809 69.625C26.7809 69.625 27.6661 71.3237 26.7438 71.1581C26.7438 71.1581 26.8204 71.9369 25.9006 71.6526C25.9006 71.6526 25.6063 72.1793 24.9684 71.7515C24.9684 71.7515 24.4738 72.1298 23.7864 70.8514L22.7974 69.0315L21.3409 67.3897L23.0842 65.9184Z" fill="#9E9E9E" stroke="#212121" stroke-width="0.275" stroke-linecap="round" stroke-linejoin="round"/>
<path d="M26.6672 70.6091C26.6672 70.6091 26.7908 71.1234 26.2839 71.1037C25.777 71.0839 25.8685 71.5982 24.6841 71.4177" fill="#9E9E9E"/>
<path d="M26.6672 70.6091C26.6672 70.6091 26.7908 71.1234 26.2839 71.1037C25.777 71.0839 25.8685 71.5982 24.6841 71.4177" stroke="#212121" stroke-width="0.275" stroke-linecap="round" stroke-linejoin="round"/>
<path d="M16.0865 47.4227C16.0865 47.4227 14.8007 51.2826 15.5079 59.7861C15.5079 59.7861 18.6754 66.4772 21.9171 68.3441L23.9373 66.6701L20.0131 58.6907C20.0131 58.6907 22.0209 50.5185 21.9171 48.9755" fill="#212121"/>
<path d="M16.0865 47.4227C16.0865 47.4227 14.8007 51.2826 15.5079 59.7861C15.5079 59.7861 18.6754 66.4772 21.9171 68.3441L23.9373 66.6701L20.0131 58.6907C20.0131 58.6907 22.0209 50.5185 21.9171 48.9755" stroke="#212121" stroke-width="0.275" stroke-linecap="round" stroke-linejoin="round"/>
<path d="M21.4573 52.2939C21.7515 50.8103 21.9518 49.4998 21.9296 48.9706" stroke="#616161" stroke-width="0.20625" stroke-linecap="round" stroke-linejoin="round"/>
<path d="M20.2381 59.1136L20.028 58.6858C20.028 58.6858 20.7698 55.6617 21.3286 52.9442" stroke="#616161" stroke-width="0.20625" stroke-linecap="round" stroke-linejoin="round"/>
<path d="M21.3262 61.3341L20.4954 59.6427" stroke="#616161" stroke-width="0.20625" stroke-linecap="round" stroke-linejoin="round"/>
<path d="M15.451 58.8688C15.4708 59.168 15.4931 59.4696 15.5203 59.7812C16.2912 61.3594 17.1694 62.8828 18.1488 64.3408" stroke="#616161" stroke-width="0.20625" stroke-linecap="round" stroke-linejoin="round"/>
<path d="M16.0989 47.4227C16.0989 47.4227 14.9788 50.788 15.4041 58.1443" stroke="#616161" stroke-width="0.20625" stroke-linecap="round" stroke-linejoin="round"/>
<path d="M98.3355 33.4768C98.1061 31.3004 97.6078 29.1609 96.8519 27.1071" stroke="#212121" stroke-width="0.275" stroke-linecap="round" stroke-linejoin="round"/>
<path d="M90.7271 17.5329C90.739 17.5432 90.7498 17.5548 90.7592 17.5675" stroke="#212121" stroke-width="0.275" stroke-linecap="round" stroke-linejoin="round"/>
<path d="M90.0299 16.8801C89.9186 16.7787 89.8073 16.6823 89.696 16.5883C86.9415 14.222 84.7902 13.6953 83.8877 13.5766" stroke="#212121" stroke-width="0.275" stroke-linecap="round" stroke-linejoin="round"/>
<path d="M83.6386 13.0701L83.0831 13.3413L83.3544 13.8968L83.9099 13.6255L83.6386 13.0701Z" stroke="#212121" stroke-width="0.275" stroke-linecap="round" stroke-linejoin="round"/>
<path d="M98.5033 33.3963L97.9479 33.6676L98.2192 34.2231L98.7746 33.9518L98.5033 33.3963Z" stroke="#212121" stroke-width="0.275" stroke-linecap="round" stroke-linejoin="round"/>
<path d="M93.6771 20.4234L94.0059 20.7548C93.9953 20.7965 93.973 20.8342 93.9416 20.8636C93.9135 20.894 93.8776 20.9162 93.8378 20.9279L93.504 20.5916L90.5837 17.6812L90.7519 17.5081L93.6771 20.4234Z" fill="#212121" stroke="#212121" stroke-width="0.275" stroke-linecap="round" stroke-linejoin="round"/>
<path d="M94.0702 20.4902C94.1162 20.5357 94.1487 20.5931 94.164 20.6559C94.1793 20.7188 94.1768 20.7847 94.1567 20.8463C94.1426 20.9024 94.1135 20.9536 94.0727 20.9946C94.0325 21.0327 93.9843 21.0614 93.9317 21.0787C93.8693 21.0994 93.8023 21.1025 93.7382 21.0877C93.6741 21.0728 93.6153 21.0406 93.5682 20.9946C93.5216 20.9475 93.4888 20.8884 93.4736 20.8238C93.4583 20.7592 93.4611 20.6917 93.4817 20.6287C93.4989 20.5755 93.5286 20.5271 93.5682 20.4877C93.6081 20.4461 93.6585 20.4162 93.7141 20.4012C93.7759 20.3817 93.8419 20.3798 93.9047 20.3955C93.9676 20.4112 94.0248 20.444 94.0702 20.4902Z" fill="#212121" stroke="#212121" stroke-width="0.275" stroke-linecap="round" stroke-linejoin="round"/>
<path d="M89.9902 16.8801L87.1244 14.039" stroke="#212121" stroke-width="0.275" stroke-linecap="round" stroke-linejoin="round"/>
<path d="M87.1788 13.7249C87.2017 13.7745 87.2095 13.8297 87.2011 13.8837C87.1927 13.9377 87.1686 13.988 87.1317 14.0283C87.0948 14.0685 87.0468 14.097 86.9938 14.1101C86.9408 14.1232 86.885 14.1203 86.8336 14.1018C86.7823 14.0833 86.7375 14.05 86.705 14.0061C86.6724 13.9622 86.6536 13.9097 86.6509 13.8552C86.6481 13.8006 86.6616 13.7465 86.6895 13.6995C86.7174 13.6526 86.7586 13.615 86.8079 13.5914C86.841 13.5756 86.8769 13.5665 86.9135 13.5646C86.9501 13.5628 86.9868 13.5682 87.0213 13.5806C87.0558 13.5931 87.0875 13.6122 87.1145 13.637C87.1415 13.6618 87.1634 13.6916 87.1788 13.7249V13.7249Z" stroke="#212121" stroke-width="0.275" stroke-linecap="round" stroke-linejoin="round"/>
<path d="M90.7642 16.8801L90.7593 17.4983L90.7271 17.5329L90.6901 17.5724L90.559 17.706L89.9384 17.701L89.9408 16.8801H90.7642Z" stroke="#212121" stroke-width="0.275" stroke-linecap="round" stroke-linejoin="round"/>
<path d="M90.7592 17.4983V17.6441V17.706H90.559L90.69 17.5724L90.7271 17.5329L90.7592 17.4983Z" stroke="#5C5C5C" stroke-width="0.275" stroke-miterlimit="10"/>
<path d="M96.3575 19.061L97.396 21.7958L94.9826 24.2141L92.2479 23.1855L90.3142 17.9508L90.6901 17.5725L90.7272 17.5329L91.1154 17.1447L96.3575 19.061Z" stroke="#212121" stroke-width="0.275" stroke-linecap="round" stroke-linejoin="round"/>
<path d="M100.615 23.5316L96.931 27.2233L94.9825 24.2165L97.3959 21.7958L100.615 23.5316Z" stroke="#212121" stroke-width="0.275" stroke-linecap="round" stroke-linejoin="round"/>
<path d="M96.1843 23.9396L97.6704 22.4486L99.0551 23.1879" stroke="#212121" stroke-width="0.275" stroke-linecap="round" stroke-linejoin="round"/>
<path d="M95.7219 24.4045L95.8703 24.2537" stroke="#212121" stroke-width="0.275" stroke-linecap="round" stroke-linejoin="round"/>
<path d="M24.4147 19.9759C24.2353 19.502 23.9634 19.0685 23.6147 18.7008C23.266 18.3332 22.8475 18.0386 22.3838 17.8344C21.92 17.6302 21.4202 17.5204 20.9136 17.5115C20.4069 17.5025 19.9036 17.5946 19.4329 17.7823C18.9622 17.97 18.5336 18.2496 18.1722 18.6048C17.8107 18.9599 17.5237 19.3835 17.3277 19.8508C17.1317 20.3182 17.0308 20.8198 17.0309 21.3265C17.0309 21.8333 17.1319 22.3349 17.3279 22.8022C17.8942 24.2215 19.4075 24.7309 20.5696 25.5691C20.9306 25.8312 21.4252 27.1418 21.4252 27.1418L24.4419 25.945C24.4419 25.945 23.8979 24.6542 23.9819 24.2141C24.2341 22.8096 24.9809 21.3977 24.4147 19.9759Z" stroke="#212121" stroke-width="0.275" stroke-linecap="round" stroke-linejoin="round"/>
<path d="M21.5063 27.3418L24.5128 26.1429L24.544 26.221C24.5852 26.3245 24.6056 26.4351 24.6038 26.5464C24.6021 26.6577 24.5784 26.7676 24.5339 26.8698C24.4895 26.9719 24.4253 27.0642 24.345 27.1413C24.2647 27.2185 24.17 27.279 24.0662 27.3193L22.6261 27.8936C22.4183 27.9764 22.1862 27.9733 21.9808 27.885C21.7753 27.7967 21.6134 27.6304 21.5305 27.4227L21.4994 27.3446L21.5063 27.3418Z" stroke="#212121" stroke-width="0.275" stroke-linecap="round" stroke-linejoin="round"/>
<path opacity="0.5" d="M21.5063 27.3418L24.5128 26.1429L24.544 26.221C24.5852 26.3245 24.6056 26.4351 24.6038 26.5464C24.6021 26.6577 24.5784 26.7676 24.5339 26.8698C24.4895 26.9719 24.4253 27.0642 24.345 27.1413C24.2647 27.2185 24.17 27.279 24.0662 27.3193L22.6261 27.8936C22.4183 27.9764 22.1862 27.9733 21.9808 27.885C21.7753 27.7967 21.6134 27.6304 21.5305 27.4227L21.4994 27.3446L21.5063 27.3418Z" stroke="#212121" stroke-width="0.275" stroke-linecap="round" stroke-linejoin="round"/>
<path d="M22.7295 28.0892L24.1352 27.5289L24.1609 27.5932C24.2284 27.7626 24.2258 27.9518 24.1538 28.1193C24.0818 28.2868 23.9462 28.4188 23.7768 28.4863L23.6505 28.5366C23.4811 28.6041 23.2919 28.6016 23.1244 28.5296C22.9569 28.4575 22.8249 28.3219 22.7574 28.1526L22.7318 28.0883L22.7295 28.0892Z" stroke="#212121" stroke-width="0.275" stroke-linecap="round" stroke-linejoin="round"/>
<path opacity="0.2" d="M22.7295 28.0892L24.1352 27.5289L24.1609 27.5932C24.2284 27.7626 24.2258 27.9518 24.1538 28.1193C24.0818 28.2868 23.9462 28.4188 23.7768 28.4863L23.6505 28.5366C23.4811 28.6041 23.2919 28.6016 23.1244 28.5296C22.9569 28.4575 22.8249 28.3219 22.7574 28.1526L22.7318 28.0883L22.7295 28.0892Z" stroke="#212121" stroke-width="0.275" stroke-linecap="round" stroke-linejoin="round"/>
<path d="M18.7844 13.2947L19.6573 16.5587" stroke="#212121" stroke-width="0.275" stroke-linecap="round" stroke-linejoin="round"/>
<path d="M18.4308 11.9768L18.6088 12.6419" stroke="#212121" stroke-width="0.275" stroke-linecap="round" stroke-linejoin="round"/>
<path d="M14.9987 22.8121L11.6581 23.7072" stroke="#212121" stroke-width="0.275" stroke-linecap="round" stroke-linejoin="round"/>
<path d="M16.24 22.4807L15.6737 22.6316" stroke="#212121" stroke-width="0.275" stroke-linecap="round" stroke-linejoin="round"/>
<path d="M29.0757 19.0388L25.5793 19.9759" stroke="#212121" stroke-width="0.275" stroke-linecap="round" stroke-linejoin="round"/>
<path d="M30.1588 18.7495L29.6617 18.883" stroke="#212121" stroke-width="0.275" stroke-linecap="round" stroke-linejoin="round"/>
<path d="M18.4925 25.4158L16.1212 29.523" stroke="#212121" stroke-width="0.275" stroke-linecap="round" stroke-linejoin="round"/>
<path d="M25.698 12.9337L23.3267 17.0409" stroke="#212121" stroke-width="0.275" stroke-linecap="round" stroke-linejoin="round"/>
<path d="M16.7197 18.8113L12.615 16.44" stroke="#212121" stroke-width="0.275" stroke-linecap="round" stroke-linejoin="round"/>
<path d="M25.7203 24.0064L25.0972 23.6454" stroke="#212121" stroke-width="0.275" stroke-linecap="round" stroke-linejoin="round"/>
<path d="M29.2042 26.0167L26.2889 24.3353" stroke="#212121" stroke-width="0.275" stroke-linecap="round" stroke-linejoin="round"/>
</svg>
