<svg width="200" height="200" viewBox="0 0 200 200" fill="none" xmlns="http://www.w3.org/2000/svg">
<g clip-path="url(#clip0_465_6081)">
<path d="M86.144 140.974C105.31 134.515 117.607 129.622 131.604 129.452C131.604 129.452 151.54 132.103 159.789 129.452C183.91 121.688 186.011 93.4113 172.988 72.536C159.503 50.9171 135.233 57.0867 135.233 57.0867C106.184 62.5921 86.8039 56.5191 76.6682 51.462C68.5453 47.4209 58.7285 48.925 52.47 55.611C51.0602 57.0538 49.9571 58.7838 49.2307 60.6907C40.3159 85.8853 50.5836 110.507 54.2464 125.542C55.5993 131.115 66.9724 147.433 86.144 140.974Z" stroke="#212121" stroke-width="1.43758" stroke-linecap="round" stroke-linejoin="round" stroke-dasharray="0.39 0.39"/>
<path d="M95.0201 36.751C94.2446 46.184 93.4307 55.7476 93.6342 65.175C94.1126 88.0141 96.3345 110.779 97.7424 133.568C98.5838 147.15 101.185 161.503 98.5343 175C96.054 187.652 86.2922 198.095 73.5057 199.031C59.4323 200.064 49.2635 186.505 50.7979 172.866C51.9473 162.65 57.8979 153.211 58.2499 142.915C58.7173 129.055 43.0215 130.843 32.8198 121.915C20.8142 111.427 8.96256 97.4812 5.47583 81.226C4.4694 76.5548 4.21092 71.5772 5.8883 67.0877C13.4832 46.814 45.7218 41.7229 58.2499 58.9544C71.1574 76.7194 66.0703 102.555 87.1942 104.979C108.318 107.402 129.052 98.1169 149.394 92.8669C169.737 87.6168 192.423 100.54 188.904 127.988C185.384 155.436 152.524 154.664 137.268 135.662C122.012 116.66 129.052 77.9284 132.181 62.5642C133.902 54.1414 138.324 46.5813 142.201 39.0667C145.253 33.1412 149.103 26.9546 148.113 19.9565C145.193 -0.674799 111.816 -6.50945 101.669 11.2953C101.658 11.318 96.505 18.634 95.0201 36.751Z" stroke="#212121" stroke-width="1.43758" stroke-linecap="round" stroke-linejoin="round" stroke-dasharray="0.39 0.39"/>
<path d="M99.4033 119.753C94.2603 119.753 89.328 117.644 85.6914 113.891C82.0548 110.138 80.0117 105.048 80.0117 99.7402V99.7402C80.0117 94.4325 82.0548 89.3422 85.6914 85.5891C89.328 81.836 94.2603 79.7275 99.4033 79.7275V79.7275C104.546 79.7275 109.479 81.836 113.115 85.5891C116.752 89.3422 118.795 94.4325 118.795 99.7402C118.795 105.048 116.752 110.138 113.115 113.891C109.479 117.644 104.546 119.753 99.4033 119.753V119.753Z" fill="white" stroke="#B75400" stroke-width="0.7" stroke-miterlimit="10"/>
<path d="M107.003 83.3369C108.822 84.2328 110.477 85.4442 111.898 86.9183Z" fill="white"/>
<path d="M107.003 83.3369C108.822 84.2328 110.477 85.4442 111.898 86.9183" stroke="#212121" stroke-width="0.7" stroke-linecap="round" stroke-linejoin="round"/>
<path d="M88.4863 85.4715C88.8878 85.1423 89.3113 84.8301 89.7512 84.5293C92.0968 82.9419 94.776 81.956 97.5655 81.6539C100.355 81.3518 103.174 81.7422 105.788 82.7925" fill="white"/>
<path d="M88.4863 85.4715C88.8878 85.1423 89.3113 84.8301 89.7512 84.5293C92.0968 82.9419 94.776 81.956 97.5655 81.6539C100.355 81.3518 103.174 81.7422 105.788 82.7925" stroke="#212121" stroke-width="0.7" stroke-linecap="round" stroke-linejoin="round"/>
<path d="M97.2582 117.783C94.7175 117.462 92.2753 116.572 90.1021 115.176C87.9288 113.78 86.0768 111.912 84.6751 109.701V109.701C82.6943 106.585 81.6903 102.915 81.7996 99.1898C81.9088 95.4645 83.1258 91.864 85.2856 88.877" fill="white"/>
<path d="M97.2582 117.783C94.7175 117.462 92.2753 116.572 90.1021 115.176C87.9288 113.78 86.0768 111.912 84.6751 109.701V109.701C82.6943 106.585 81.6903 102.915 81.7996 99.1898C81.9088 95.4645 83.1258 91.864 85.2856 88.877" stroke="#212121" stroke-width="0.7" stroke-linecap="round" stroke-linejoin="round"/>
<path d="M103.77 117.357C102.624 117.67 101.45 117.86 100.267 117.925Z" fill="white"/>
<path d="M103.77 117.357C102.624 117.67 101.45 117.86 100.267 117.925" stroke="#212121" stroke-width="0.7" stroke-linecap="round" stroke-linejoin="round"/>
<path d="M111.898 86.9189C112.734 87.7873 113.485 88.7378 114.142 89.7568C115.412 91.7535 116.288 93.9891 116.72 96.3357C117.151 98.6822 117.13 101.094 116.658 103.432C116.185 105.77 115.271 107.989 113.966 109.962C112.661 111.934 110.992 113.622 109.055 114.929C107.783 115.787 106.41 116.473 104.969 116.972" fill="white"/>
<path d="M111.898 86.9189C112.734 87.7873 113.485 88.7378 114.142 89.7568C115.412 91.7535 116.288 93.9891 116.72 96.3357C117.151 98.6822 117.13 101.094 116.658 103.432C116.185 105.77 115.271 107.989 113.966 109.962C112.661 111.934 110.992 113.622 109.055 114.929C107.783 115.787 106.41 116.473 104.969 116.972" stroke="#212121" stroke-width="0.7" stroke-linecap="round" stroke-linejoin="round"/>
<path d="M108.632 104.232L103.305 101.09C102.948 102.272 102.351 103.361 101.554 104.283L106.88 107.425C107.73 107.926 108.811 107.618 109.294 106.736C109.779 105.856 109.482 104.735 108.632 104.232V104.232Z" fill="#212121"/>
<path d="M102.679 96.8266C101.643 92.9132 97.7456 90.6131 93.9738 91.69C90.2019 92.7648 87.985 96.8089 89.0208 100.722C90.0567 104.636 93.9546 106.934 97.7264 105.859C101.498 104.782 103.715 100.738 102.679 96.8266ZM97.4445 104.788C94.2472 105.701 90.9303 103.745 90.0524 100.427C89.1746 97.1102 91.0584 93.6689 94.2579 92.7581C97.4552 91.8451 100.772 93.8018 101.65 97.1213C102.528 100.441 100.642 103.878 97.4445 104.788Z" fill="#212121"/>
<path d="M91.0132 99.2439L92.1516 98.9203C91.7202 97.2916 92.645 95.6053 94.2148 95.1577L93.9008 93.9766C91.7052 94.6015 90.4088 96.9659 91.0132 99.2439Z" fill="#212121"/>
<path d="M179.752 119.753C174.609 119.753 169.677 117.644 166.04 113.891C162.404 110.138 160.361 105.048 160.361 99.7402C160.361 94.4325 162.404 89.3422 166.04 85.5891C169.677 81.836 174.609 79.7275 179.752 79.7275C184.895 79.7275 189.828 81.836 193.464 85.5891C197.101 89.3422 199.144 94.4325 199.144 99.7402C199.144 105.048 197.101 110.138 193.464 113.891C189.828 117.644 184.895 119.753 179.752 119.753Z" fill="#B75400" stroke="#212121" stroke-width="0.7" stroke-miterlimit="10"/>
<path d="M187.023 92.623H174.208C173.327 92.623 172.614 93.367 172.614 94.2762L172.606 109.155L175.81 105.848H187.023C187.904 105.848 188.625 105.104 188.625 104.195V94.2762C188.625 93.367 187.904 92.623 187.023 92.623ZM175.81 98.4091H185.421V100.062H175.81V98.4091ZM182.218 102.542H175.81V100.889H182.218V102.542ZM185.421 97.5825H175.81V95.9294H185.421V97.5825Z" fill="white"/>
<path d="M170.529 115.217C168.813 114.128 167.291 112.742 166.031 111.119" stroke="white" stroke-width="0.7" stroke-linecap="round" stroke-linejoin="round"/>
<path d="M189.162 115.121C188.722 115.405 188.271 115.689 187.804 115.921C185.309 117.242 182.545 117.929 179.741 117.924C176.937 117.919 174.175 117.223 171.685 115.893" stroke="white" stroke-width="0.7" stroke-linecap="round" stroke-linejoin="round"/>
<path d="M183.772 82.0371C186.266 82.6339 188.603 83.7859 190.619 85.4124C192.636 87.0389 194.284 89.1005 195.448 91.4531V91.4531C197.096 94.7686 197.717 98.5272 197.225 102.219C196.733 105.911 195.153 109.357 192.698 112.09" stroke="white" stroke-width="0.7" stroke-linecap="round" stroke-linejoin="round"/>
<path d="M177.239 81.7423C178.412 81.567 179.598 81.5156 180.781 81.5891" stroke="white" stroke-width="0.7" stroke-linecap="round" stroke-linejoin="round"/>
<path d="M166.031 111.12C165.288 110.16 164.639 109.125 164.095 108.032C163.038 105.908 162.398 103.589 162.21 101.209C162.022 98.8295 162.291 96.4347 163.001 94.162C163.711 91.8894 164.848 89.7835 166.348 87.965C167.847 86.1465 169.68 84.6509 171.74 83.564V83.564C173.092 82.849 174.528 82.3168 176.013 81.9805" stroke="white" stroke-width="0.7" stroke-linecap="round" stroke-linejoin="round"/>
<path d="M99.4033 192.873C94.2603 192.873 89.328 190.764 85.6914 187.011C82.0548 183.258 80.0117 178.168 80.0117 172.86C80.0117 167.552 82.0546 162.461 85.691 158.707C89.3275 154.953 94.2598 152.843 99.4033 152.842C104.547 152.843 109.479 154.953 113.115 158.707C116.752 162.461 118.795 167.552 118.795 172.86C118.795 178.168 116.752 183.258 113.115 187.011C109.479 190.764 104.546 192.873 99.4033 192.873Z" fill="#B75400" stroke="#212121" stroke-width="0.7" stroke-miterlimit="10"/>
<path d="M90.2686 157.308C91.9885 156.225 93.877 155.457 95.8506 155.038" stroke="white" stroke-width="0.7" stroke-linecap="round" stroke-linejoin="round"/>
<path d="M81.8595 174.466C81.8155 173.938 81.7935 173.399 81.7935 172.86C81.7914 169.966 82.4596 167.113 83.7425 164.539C85.0253 161.965 86.8856 159.745 89.1684 158.063" stroke="white" stroke-width="0.7" stroke-linecap="round" stroke-linejoin="round"/>
<path d="M112.844 184.591C111.194 186.61 109.136 188.233 106.814 189.345C104.492 190.456 101.963 191.031 99.4032 191.027C95.7943 191.028 92.2722 189.885 89.3128 187.754C86.3534 185.622 84.0992 182.605 82.855 179.108" stroke="white" stroke-width="0.7" stroke-linecap="round" stroke-linejoin="round"/>
<path d="M116.078 178.739C115.694 179.895 115.199 181.007 114.599 182.06" stroke="white" stroke-width="0.7" stroke-linecap="round" stroke-linejoin="round"/>
<path d="M95.8506 155.078C97.0196 154.831 98.21 154.707 99.4033 154.709V154.709C104.071 154.709 108.547 156.623 111.847 160.029C115.148 163.435 117.002 168.054 117.002 172.871C117.002 174.44 116.807 176.003 116.419 177.52" stroke="white" stroke-width="0.7" stroke-linecap="round" stroke-linejoin="round"/>
<path d="M99.8721 163.378C94.5667 163.378 90.2705 167.822 90.2705 173.297C90.2705 178.772 94.5667 183.216 99.8721 183.216C105.187 183.216 109.493 178.772 109.493 173.297C109.493 167.822 105.187 163.378 99.8721 163.378ZM106.533 169.329H103.697C103.39 168.089 102.948 166.899 102.371 165.798C104.139 166.423 105.61 167.693 106.533 169.329ZM99.8817 165.401C100.679 166.592 101.304 167.911 101.717 169.329H98.0459C98.4592 167.911 99.0839 166.592 99.8817 165.401ZM92.4426 175.281C92.2889 174.646 92.1927 173.981 92.1927 173.297C92.1927 172.613 92.2889 171.948 92.4426 171.313H95.6912C95.6143 171.968 95.5566 172.622 95.5566 173.297C95.5566 173.971 95.6143 174.626 95.6912 175.281H92.4426ZM93.2307 177.265H96.066C96.3736 178.504 96.8157 179.695 97.3924 180.796C95.6239 180.171 94.1534 178.911 93.2307 177.265V177.265ZM96.066 169.329H93.2307C94.1534 167.683 95.6239 166.423 97.3924 165.798C96.8157 166.899 96.3736 168.089 96.066 169.329V169.329ZM99.8817 181.192C99.0839 180.002 98.4592 178.683 98.0459 177.265H101.717C101.304 178.683 100.679 180.002 99.8817 181.192ZM102.131 175.281H97.6327C97.5462 174.626 97.4789 173.971 97.4789 173.297C97.4789 172.622 97.5462 171.958 97.6327 171.313H102.131C102.217 171.958 102.284 172.622 102.284 173.297C102.284 173.971 102.217 174.626 102.131 175.281ZM102.371 180.796C102.948 179.695 103.39 178.504 103.697 177.265H106.533C105.61 178.901 104.139 180.171 102.371 180.796V180.796ZM104.072 175.281C104.149 174.626 104.207 173.971 104.207 173.297C104.207 172.622 104.149 171.968 104.072 171.313H107.321C107.474 171.948 107.571 172.613 107.571 173.297C107.571 173.981 107.474 174.646 107.321 175.281H104.072Z" fill="white"/>
<path d="M20.264 119.753C17.7161 119.755 15.1927 119.239 12.8381 118.234C10.4835 117.23 8.34386 115.756 6.54144 113.897C4.73902 112.039 3.30917 109.832 2.33363 107.403C1.35808 104.973 0.855956 102.37 0.855957 99.7402C0.855956 97.1106 1.35808 94.5069 2.33363 92.0777C3.30917 89.6486 4.73902 87.4417 6.54144 85.5831C8.34386 83.7245 10.4835 82.2507 12.8381 81.246C15.1927 80.2413 17.7161 79.7253 20.264 79.7275V79.7275C25.407 79.7275 30.3393 81.836 33.9759 85.5891C37.6125 89.3422 39.6555 94.4325 39.6555 99.7402C39.6555 105.048 37.6125 110.138 33.9759 113.891C30.3393 117.644 25.407 119.753 20.264 119.753V119.753Z" fill="#B75400" stroke="#212121" stroke-width="0.7" stroke-miterlimit="10"/>
<path d="M22.0306 104.857H12.4194V106.841H22.0306V104.857ZM27.7973 96.9217H12.4194V98.9055H27.7973V96.9217ZM12.4194 102.873H27.7973V100.889H12.4194V102.873ZM12.4194 92.9541V94.9379H27.7973V92.9541H12.4194Z" fill="white"/>
<path d="M11.1128 84.1941C12.8324 83.1101 14.721 82.342 16.6949 81.9238" stroke="white" stroke-width="0.7" stroke-linecap="round" stroke-linejoin="round"/>
<path d="M2.69832 101.352C2.65432 100.818 2.63233 100.285 2.63233 99.74C2.63026 96.8456 3.29849 93.9926 4.58134 91.4188C5.86419 88.845 7.72451 86.6248 10.0073 84.9434" stroke="white" stroke-width="0.7" stroke-linecap="round" stroke-linejoin="round"/>
<path d="M33.6881 111.489C32.0371 113.503 29.981 115.121 27.6627 116.232C25.3444 117.342 22.8195 117.918 20.2636 117.92C16.6538 117.925 13.1299 116.784 10.1697 114.651C7.20949 112.519 4.95621 109.499 3.71533 106.001" stroke="white" stroke-width="0.7" stroke-linecap="round" stroke-linejoin="round"/>
<path d="M36.9169 105.62C36.5366 106.779 36.0408 107.893 35.4375 108.946" stroke="white" stroke-width="0.7" stroke-linecap="round" stroke-linejoin="round"/>
<path d="M16.6948 81.9295C17.8639 81.6825 19.0543 81.5589 20.2476 81.5606V81.5606C24.915 81.5606 29.3913 83.4741 32.6917 86.8802C35.9921 90.2863 37.8462 94.9059 37.8462 99.7229C37.8473 101.292 37.6513 102.854 37.2633 104.371" stroke="white" stroke-width="0.7" stroke-linecap="round" stroke-linejoin="round"/>
<path d="M99.4033 41.9891C94.2603 41.9891 89.328 39.8806 85.6914 36.1275C82.0548 32.3744 80.0117 27.2842 80.0117 21.9765V21.9765C80.0117 16.6688 82.0548 11.5785 85.6914 7.82542C89.328 4.07233 94.2603 1.96387 99.4033 1.96387V1.96387C104.546 1.96387 109.479 4.07233 113.115 7.82542C116.752 11.5785 118.795 16.6688 118.795 21.9765C118.795 27.2842 116.752 32.3744 113.115 36.1275C109.479 39.8806 104.546 41.9891 99.4033 41.9891Z" fill="#B75400" stroke="#212121" stroke-width="0.7" stroke-miterlimit="10"/>
<path d="M101.804 11.6172H94.1151C93.0579 11.6172 92.2025 12.5099 92.2025 13.601L92.1929 29.4714C92.1929 30.5625 93.0483 31.4552 94.1055 31.4552H105.648C106.706 31.4552 107.571 30.5625 107.571 29.4714V17.5686L101.804 11.6172ZM103.726 27.4876H96.0373V25.5038H103.726V27.4876ZM103.726 23.52H96.0373V21.5362H103.726V23.52ZM100.843 18.5605V13.105L106.129 18.5605H100.843Z" fill="white"/>
<path d="M90.2686 6.42556C91.9885 5.34228 93.877 4.5742 95.8506 4.15527" stroke="white" stroke-width="0.7" stroke-linecap="round" stroke-linejoin="round"/>
<path d="M81.8595 23.5825C81.8155 23.0547 81.7935 22.5155 81.7935 21.9763C81.7914 19.0819 82.4596 16.229 83.7425 13.6551C85.0253 11.0813 86.8856 8.86114 89.1684 7.17969" stroke="white" stroke-width="0.7" stroke-linecap="round" stroke-linejoin="round"/>
<path d="M112.844 33.7257C111.193 35.7433 109.134 37.3642 106.813 38.475C104.491 39.5858 101.962 40.1596 99.4032 40.1563V40.1563C95.7943 40.1569 92.2722 39.0143 89.3128 36.8827C86.3534 34.7511 84.0992 31.7334 82.855 28.2373" stroke="white" stroke-width="0.7" stroke-linecap="round" stroke-linejoin="round"/>
<path d="M116.078 27.8564C115.693 29.0131 115.198 30.1273 114.599 31.1824" stroke="white" stroke-width="0.7" stroke-linecap="round" stroke-linejoin="round"/>
<path d="M95.8506 4.16581C97.0196 3.91885 98.21 3.79524 99.4033 3.79689V3.79689C104.071 3.79689 108.547 5.71042 111.847 9.11651C115.148 12.5226 117.002 17.1423 117.002 21.9592C117.002 23.5281 116.807 25.0906 116.419 26.6077" stroke="white" stroke-width="0.7" stroke-linecap="round" stroke-linejoin="round"/>
<path d="M139.71 158.462C152.445 158.462 162.769 147.807 162.769 134.664C162.769 121.52 152.445 110.865 139.71 110.865C126.974 110.865 116.65 121.52 116.65 134.664C116.65 147.807 126.974 158.462 139.71 158.462Z" fill="#BDBDBD" stroke="#212121" stroke-width="0.7" stroke-miterlimit="10"/>
<path opacity="0.3" d="M139.71 158.462C152.445 158.462 162.769 147.807 162.769 134.664C162.769 121.52 152.445 110.865 139.71 110.865C126.974 110.865 116.65 121.52 116.65 134.664C116.65 147.807 126.974 158.462 139.71 158.462Z" fill="white" stroke="#212121" stroke-width="0.7" stroke-miterlimit="10"/>
<path d="M139.71 110.864C139.71 110.864 128.045 109.559 126.186 115.513C124.327 121.467 132.17 120.411 130.932 123.175C129.695 125.939 124.536 129.538 126.599 133.601C128.661 137.665 132.373 142.115 128.248 140.628C124.124 139.141 123.095 138.71 123.92 143.392C124.745 148.075 129.073 149.352 136.085 148.71C143.097 148.069 142.476 151.48 146.392 151.906C150.307 152.331 154.228 149.987 154.228 144.028C154.228 138.068 149.488 139.351 153.816 136.371C158.144 133.391 157.325 125.729 156.087 123.391C154.85 121.052 152.375 122.114 152.375 119.134C152.375 116.154 146.425 110.467 139.71 110.864Z" fill="#212121" stroke="#212121" stroke-width="0.7" stroke-miterlimit="10"/>
<path d="M133.291 113.645C133.291 113.645 128.974 113.049 129.117 115.87C129.26 118.691 136.751 124.191 143.807 124.344C150.863 124.497 151.578 120.774 150.571 120.031" stroke="white" stroke-width="0.7" stroke-linecap="round" stroke-linejoin="round"/>
<path d="M137.757 116.007C137.757 116.007 134.303 116.45 134.732 118.845C135.161 121.24 137.323 122.409 140.639 123.749" stroke="white" stroke-width="0.7" stroke-linecap="round" stroke-linejoin="round"/>
<path d="M155.032 130.565C155.032 130.565 154.746 134.283 150.285 136.661C145.825 139.039 141.805 142.592 145.655 144.386C149.505 146.179 151.704 148.245 150.263 148.694" stroke="white" stroke-width="0.7" stroke-linecap="round" stroke-linejoin="round"/>
<path d="M133.005 141.559C133.005 141.559 131.279 145.719 128.688 144.964C126.098 144.209 125.229 142.126 126.961 142.126C128.694 142.126 128.831 143.017 128.831 143.017" stroke="white" stroke-width="0.7" stroke-linecap="round" stroke-linejoin="round"/>
<path d="M146.754 124.531C146.754 124.531 150.291 124.475 149.713 128.039C149.136 131.603 145.825 131.904 144.961 134.577" stroke="white" stroke-width="0.7" stroke-linecap="round" stroke-linejoin="round"/>
<path d="M139.709 158.484C144.885 158.491 149.911 156.69 153.97 153.376C152.353 152.144 149.471 149.971 147.794 148.835C145.369 147.167 142.135 141.973 137.818 142.899C134.353 143.648 125.081 147.768 121.55 149.369C123.707 152.212 126.464 154.511 129.61 156.09C132.757 157.669 136.21 158.488 139.709 158.484V158.484Z" fill="white" stroke="#212121" stroke-width="0.7" stroke-miterlimit="10"/>
<path d="M137.114 142.115C137.114 142.115 130.723 144.028 129.898 149.562C129.073 155.096 135.156 151.106 135.156 151.106C135.156 151.106 138.351 155.947 141.238 154.46C144.126 152.973 144.538 147.859 142.888 144.454C141.238 141.048 137.114 142.115 137.114 142.115Z" fill="white" stroke="#212121" stroke-width="0.7" stroke-miterlimit="10"/>
<path d="M136.943 138.051C136.977 139.864 136.738 141.672 136.234 143.409C135.425 145.98 132.791 149.522 135.134 151.111C137.477 152.7 140.479 147.643 141.26 143.398C142.041 139.152 142.608 134.078 142.608 134.078L136.943 138.051Z" fill="white"/>
<g style="mix-blend-mode:multiply" opacity="0.5">
<path d="M136.399 142.842C137.154 143.124 137.938 143.314 138.736 143.409C139.451 143.494 139.737 143.335 139.836 143.148C139.748 144.209 139.413 147.121 138.241 149.266C137.884 149.925 137.592 150.481 137.361 150.969C139.099 149.76 140.722 146.389 141.272 143.415C142.052 139.175 142.597 134.112 142.597 134.112L136.932 138.085C136.96 139.688 136.78 141.288 136.399 142.842V142.842Z" fill="white"/>
</g>
<path d="M136.943 138.051C136.977 139.864 136.738 141.672 136.234 143.409C135.425 145.98 132.791 149.522 135.134 151.111C137.477 152.7 140.479 147.643 141.26 143.398C142.041 139.152 142.608 134.078 142.608 134.078L136.943 138.051Z" stroke="#212121" stroke-width="0.7" stroke-miterlimit="10"/>
<path d="M133.484 121.592C133.484 121.592 131.504 130.105 131.504 133.278C131.504 136.451 134.331 140.333 137.916 140.657C142.492 141.037 144.175 134.691 145.165 131.076C146.023 127.937 146.606 125.224 146.749 124.555C139.792 127.268 133.484 121.592 133.484 121.592Z" fill="white"/>
<g style="mix-blend-mode:multiply" opacity="0.5">
<path d="M146.754 124.531C146.063 124.804 145.346 125.004 144.615 125.127C144.291 127.29 143.295 132.608 141.013 135.877C139.077 138.652 137.004 139.657 135.827 140.02C136.482 140.358 137.193 140.565 137.922 140.633C142.498 141.014 144.181 134.668 145.17 131.053" fill="white"/>
</g>
<path d="M133.484 121.592C133.484 121.592 131.504 130.105 131.504 133.278C131.504 136.451 134.331 140.333 137.916 140.657C142.492 141.037 144.175 134.691 145.165 131.076C146.023 127.937 146.606 125.224 146.749 124.555C139.792 127.268 133.484 121.592 133.484 121.592Z" stroke="#212121" stroke-width="0.7" stroke-miterlimit="10"/>
<path d="M137.257 127.619C137.005 128.545 136.61 129.423 136.086 130.219C135.371 131.144 133.842 130.309 134.293 130.866C134.542 131.191 134.854 131.461 135.209 131.656C135.564 131.851 135.954 131.969 136.355 132.001" stroke="#212121" stroke-width="0.7" stroke-linecap="round" stroke-linejoin="round"/>
<path d="M133.797 133.76C133.797 133.76 135.145 135.803 137.928 134.781" stroke="#212121" stroke-width="0.7" stroke-linecap="round" stroke-linejoin="round"/>
<path d="M135.948 126.961C135.865 127.466 135.58 127.84 135.31 127.789C135.041 127.738 134.887 127.296 134.969 126.79C135.052 126.285 135.338 125.916 135.607 125.962C135.876 126.007 136.03 126.456 135.948 126.961Z" fill="#212121"/>
<path d="M140.479 128.295C140.358 128.794 140.05 129.146 139.786 129.078C139.522 129.01 139.401 128.556 139.517 128.056C139.632 127.557 139.94 127.21 140.21 127.273C140.479 127.335 140.595 127.801 140.479 128.295Z" fill="#212121"/>
<path d="M134.105 124.463C134.105 124.463 134.826 122.704 136.982 123.725" stroke="#212121" stroke-width="0.7" stroke-linecap="round" stroke-linejoin="round"/>
<path d="M139.49 125.219C139.49 125.219 141.47 124.572 142.009 126.609" stroke="#212121" stroke-width="0.7" stroke-linecap="round" stroke-linejoin="round"/>
<path d="M59.4377 158.461C72.1732 158.461 82.4975 147.806 82.4975 134.663C82.4975 121.519 72.1732 110.864 59.4377 110.864C46.7021 110.864 36.3779 121.519 36.3779 134.663C36.3779 147.806 46.7021 158.461 59.4377 158.461Z" fill="#BDBDBD" stroke="#212121" stroke-width="0.7" stroke-miterlimit="10"/>
<path opacity="0.3" d="M59.4377 158.461C72.1732 158.461 82.4975 147.806 82.4975 134.663C82.4975 121.519 72.1732 110.864 59.4377 110.864C46.7021 110.864 36.3779 121.519 36.3779 134.663C36.3779 147.806 46.7021 158.461 59.4377 158.461Z" fill="white" stroke="#212121" stroke-width="0.7" stroke-miterlimit="10"/>
<path d="M45.0122 153.205C49.5344 156.964 55.2655 158.823 61.0586 158.408C66.8517 157.994 72.2794 155.336 76.2554 150.968C73.6596 147.518 68.3415 141.604 62.4239 141.604C55.8574 141.604 48.059 149.691 45.0122 153.205Z" fill="white" stroke="#212121" stroke-width="0.7" stroke-miterlimit="10"/>
<path d="M56.8859 139.845C56.8859 139.845 52.9757 140.305 52.6402 143.421C52.3048 146.537 54.6476 151.724 54.8731 152.298C55.0985 152.871 60.1252 147.689 62.0225 147.689C63.9199 147.689 68.8365 150.453 68.8365 150.453C68.8365 150.453 67.2746 143.994 64.4808 141.57C61.687 139.147 57.6613 138.92 56.8859 139.845Z" fill="white" stroke="#212121" stroke-width="0.7" stroke-miterlimit="10"/>
<path opacity="0.5" d="M51.7439 128.402C51.7439 128.402 50.0665 126.671 49.1756 128.056C48.2846 129.44 49.0601 131.052 50.2755 132.091C51.4909 133.13 53.4047 133.226 53.4047 132.437C53.4047 131.648 51.7439 128.402 51.7439 128.402Z" fill="white" stroke="#212121" stroke-width="0.7" stroke-miterlimit="10"/>
<path d="M51.7439 128.402C51.7439 128.402 50.0665 126.671 49.1756 128.056C48.2846 129.44 49.0601 131.052 50.2755 132.091C51.4909 133.13 53.4047 133.226 53.4047 132.437C53.4047 131.648 51.7439 128.402 51.7439 128.402Z" stroke="#212121" stroke-width="0.7" stroke-miterlimit="10"/>
<path d="M66.1636 124.389C66.1636 124.389 66.9445 122.311 68.0609 124.502C69.1773 126.693 67.0545 128.651 67.0545 128.651L66.1636 124.389Z" fill="white" stroke="#212121" stroke-width="0.7" stroke-miterlimit="10"/>
<path d="M53.4209 132.46C53.4209 132.46 55.6537 140.764 56.2147 143.647C56.7756 146.53 59.3439 150.685 61.2413 149.323C63.1387 147.96 63.0342 145.401 61.9123 143.21C61.1737 141.695 60.5753 140.112 60.1249 138.482L53.4209 132.46Z" fill="white"/>
<g style="mix-blend-mode:multiply" opacity="0.5">
<path d="M61.9123 143.187C61.1737 141.673 60.5753 140.09 60.1249 138.459L53.4209 132.46C53.4209 132.46 55.2523 139.271 56.0112 142.676C56.9805 143.458 58.0829 144.045 59.2615 144.407C60.2803 144.695 61.3673 144.567 62.2972 144.05C62.1866 143.754 62.0581 143.466 61.9123 143.187V143.187Z" fill="white"/>
</g>
<path d="M53.4209 132.46C53.4209 132.46 55.6537 140.764 56.2147 143.647C56.7756 146.53 59.3439 150.685 61.2413 149.323C63.1387 147.96 63.0342 145.401 61.9123 143.21C61.1737 141.695 60.5753 140.112 60.1249 138.482L53.4209 132.46Z" stroke="#212121" stroke-width="0.7" stroke-miterlimit="10"/>
<path d="M49.412 123.81C49.412 123.81 54.6641 136.865 56.9024 139.844C59.1407 142.824 65.1518 143.074 67.7421 138.709C70.3324 134.345 67.4066 128.447 66.9612 125.791C66.5157 123.135 65.3113 118.759 66.0647 117.953C66.8182 117.147 69.9749 116.568 68.7485 114.491C67.5221 112.413 65.7292 113.452 65.5093 111.954C65.2893 110.455 66.4002 106.76 62.2645 106.187C58.1288 105.614 50.8639 110.682 47.9656 114.604C45.0673 118.526 44.1434 122.079 49.412 123.81Z" fill="#212121" stroke="#212121" stroke-width="0.7" stroke-miterlimit="10"/>
<path d="M51.0619 119.889C51.0619 119.889 47.6191 119.622 49.346 116.205C51.0729 112.788 62.5945 108.185 62.7375 110.711C62.8805 113.237 60.2902 113.98 60.2902 113.98" stroke="white" stroke-width="0.7" stroke-linecap="round" stroke-linejoin="round"/>
<path d="M55.6926 116.653C55.6926 116.653 53.1023 116.057 53.9658 114.128C54.8292 112.198 61.1647 111.29 60.0153 112.493C59.3338 113.198 58.5578 113.798 57.711 114.275" stroke="white" stroke-width="0.7" stroke-linecap="round" stroke-linejoin="round"/>
<path d="M64.0353 131.654C64.0353 131.654 62.1379 134.765 59.1187 133.266" stroke="white" stroke-width="0.7" stroke-linecap="round" stroke-linejoin="round"/>
<path d="M66.9447 125.769C66.5267 123.289 65.4213 119.288 65.9217 118.124C65.5863 117.29 64.4314 115.343 61.0216 115.161C56.6604 114.929 51.9693 117.466 51.0729 119.889C50.1764 122.313 52.3048 121.024 53.0857 122.773C53.8667 124.521 51.8538 126.581 52.3048 127.847C52.7557 129.112 54.8731 134.09 54.8731 134.09C55.2085 132.705 60.2407 130.395 60.2407 130.395C60.9684 130.593 61.722 130.672 62.4735 130.628C63.4799 130.514 62.919 129.589 62.919 129.589L68.0721 129.907C67.6321 128.233 67.1097 126.774 66.9447 125.769Z" fill="white"/>
<g style="mix-blend-mode:multiply" opacity="0.5">
<path d="M55.0434 120.813C54.8344 118.543 53.3935 118.094 52.4366 118.055C51.8424 118.543 51.3709 119.172 51.0617 119.888C50.1707 122.311 52.2936 121.023 53.0745 122.771C53.8555 124.519 51.8426 126.58 52.2936 127.845C52.7445 129.111 54.8619 134.089 54.8619 134.089C54.9719 133.646 55.5548 133.107 56.3028 132.585C55.2029 130.967 53.861 128.997 53.102 127.857C51.6721 125.672 55.3678 124.332 55.0434 120.813Z" fill="white"/>
</g>
<path d="M66.9447 125.769C66.5267 123.289 65.4213 119.288 65.9217 118.124C65.5863 117.29 64.4314 115.343 61.0216 115.161C56.6604 114.929 51.9693 117.466 51.0729 119.889C50.1764 122.313 52.3048 121.024 53.0857 122.773C53.8667 124.521 51.8538 126.581 52.3048 127.847C52.7557 129.112 54.8731 134.09 54.8731 134.09C55.2085 132.705 60.2407 130.395 60.2407 130.395C60.9684 130.593 61.722 130.672 62.4735 130.628C63.4799 130.514 62.919 129.589 62.919 129.589L68.0721 129.907C67.6321 128.233 67.1097 126.774 66.9447 125.769Z" stroke="#212121" stroke-width="0.7" stroke-miterlimit="10"/>
<path d="M57.4744 125.212C57.6174 125.853 57.4744 126.438 57.1939 126.506C56.9134 126.574 56.5395 126.109 56.402 125.462C56.2645 124.815 56.402 124.236 56.6825 124.168C56.9629 124.1 57.3369 124.565 57.4744 125.212Z" fill="#212121"/>
<path d="M64.1291 123.799C64.2721 124.446 64.1291 125.025 63.8486 125.093C63.5682 125.161 63.1942 124.696 63.0512 124.049C62.9082 123.402 63.0512 122.823 63.3372 122.755C63.6232 122.687 63.9861 123.152 64.1291 123.799Z" fill="#212121"/>
<path d="M54.873 122.192C54.873 122.192 55.3185 119.655 57.8923 120.694" stroke="#212121" stroke-width="0.7" stroke-linecap="round" stroke-linejoin="round"/>
<path d="M64.8105 119.542C62.9077 118.27 62.2367 120.109 62.2367 120.109C62.2367 120.109 61.0323 121.471 61.5218 123.986" stroke="#212121" stroke-width="0.7" stroke-linecap="round" stroke-linejoin="round"/>
<path d="M55.2085 128.998L58.4478 127.619" stroke="#212121" stroke-width="0.7" stroke-linecap="round" stroke-linejoin="round"/>
<path d="M63.0347 126.58L65.713 126.348" stroke="#212121" stroke-width="0.7" stroke-linecap="round" stroke-linejoin="round"/>
<path d="M145.102 83.6943C157.484 80.6194 165.107 67.7674 162.127 54.9888C159.148 42.2101 146.694 34.3436 134.312 37.4186C121.93 40.4936 114.308 53.3455 117.288 66.1242C120.267 78.9029 132.72 86.7693 145.102 83.6943Z" fill="#BDBDBD" stroke="#212121" stroke-width="0.7" stroke-miterlimit="10"/>
<path opacity="0.3" d="M145.102 83.6943C157.484 80.6194 165.107 67.7674 162.127 54.9888C159.148 42.2101 146.694 34.3436 134.312 37.4186C121.93 40.4936 114.308 53.3455 117.288 66.1242C120.267 78.9029 132.72 86.7693 145.102 83.6943Z" fill="white" stroke="#212121" stroke-width="0.7" stroke-miterlimit="10"/>
<path d="M159.404 55.8196C162.511 47.1761 157.96 37.4633 149.24 34.1255C140.52 30.7877 130.933 35.0888 127.827 43.7323C124.72 52.3758 129.271 62.0886 137.991 65.4265C146.711 68.7643 156.298 64.4631 159.404 55.8196Z" fill="#212121" stroke="#212121" stroke-width="0.7" stroke-miterlimit="10"/>
<path d="M159.283 46.4678C160.045 49.2798 159.995 52.2605 159.14 55.0438" stroke="white" stroke-width="0.7" stroke-linecap="round" stroke-linejoin="round"/>
<path d="M158.117 57.2979C158.117 57.2979 157.094 58.6544 156.511 59.4092" stroke="white" stroke-width="0.7" stroke-linecap="round" stroke-linejoin="round"/>
<path d="M134.204 39.2432C134.204 39.2432 131.872 42.081 133.33 45.5659" stroke="white" stroke-width="0.7" stroke-linecap="round" stroke-linejoin="round"/>
<path d="M139.709 84.3595C143.958 84.3673 148.126 83.1569 151.748 80.8633C149.059 78.3035 142.058 71.9296 138.758 71.6515C135.304 71.3621 125.223 74.6937 121.995 75.8005C124.158 78.4822 126.866 80.6393 129.927 82.1186C132.989 83.5979 136.329 84.363 139.709 84.3595Z" fill="white" stroke="#212121" stroke-width="0.7" stroke-miterlimit="10"/>
<path d="M143.114 74.6538C143.207 74.37 143.29 74.0862 143.378 73.8535C141.607 72.6389 139.941 71.7535 138.758 71.6513C137.323 71.636 135.891 71.8057 134.496 72.1565C133.886 73.8592 133.726 75.5619 133.231 78.4622C132.56 82.3841 133.567 83.5363 136.36 82.0379C139.154 80.5395 141.998 78.1103 143.114 74.6538Z" fill="white" stroke="#212121" stroke-width="0.7" stroke-miterlimit="10"/>
<path d="M136.41 67.3828C136.41 67.3828 137.081 68.6541 136.3 71.6509C135.519 74.6477 133.55 79.5969 134.463 80.5391C135.376 81.4813 140.881 77.1904 141.101 73.9609C141.321 70.7314 141.326 64.2725 141.326 64.2725L136.41 67.3828Z" fill="white"/>
<g style="mix-blend-mode:multiply" opacity="0.5">
<path d="M136.668 69.3247L140.199 72.1625L139.929 76.7031C140.555 75.9147 140.96 74.9648 141.101 73.9561C141.326 70.7266 141.326 64.2676 141.326 64.2676L136.41 67.3779C136.649 67.9953 136.737 68.6637 136.668 69.3247V69.3247Z" fill="white"/>
</g>
<path d="M136.41 67.3828C136.41 67.3828 137.081 68.6541 136.3 71.6509C135.519 74.6477 133.55 79.5969 134.463 80.5391C135.376 81.4813 140.881 77.1904 141.101 73.9609C141.321 70.7314 141.326 64.2725 141.326 64.2725L136.41 67.3828Z" stroke="#212121" stroke-width="0.7" stroke-miterlimit="10"/>
<path d="M130.806 53.1996C130.806 53.1996 130.025 51.1223 129.018 52.632C128.012 54.1417 129.238 55.975 129.799 55.975C130.36 55.975 130.806 53.1996 130.806 53.1996Z" fill="white" stroke="#212121" stroke-width="0.7" stroke-miterlimit="10"/>
<path d="M133.39 46.5078C133.39 46.5078 130.151 53.0803 129.37 57.5812C128.589 62.082 131.829 68.8815 135.068 68.8815C138.307 68.8815 143.317 63.6939 143.317 63.6939C143.317 63.6939 148.008 63.8074 148.679 62.1955C149.35 60.5836 148.569 59.3123 147.337 59.3123H144.879C144.879 59.3123 144.208 59.6585 144.544 56.429C144.879 53.1995 145.885 51.7011 145.885 51.7011C145.885 51.7011 137.405 52.3879 133.39 46.5078Z" fill="white"/>
<g style="mix-blend-mode:multiply" opacity="0.5">
<path d="M141.981 61.6108C141.301 63.3951 140.183 64.9661 138.736 66.1693C137.29 67.3724 135.565 68.1663 133.731 68.4728H133.698C134.121 68.7276 134.6 68.8663 135.09 68.8757C138.329 68.8757 143.339 63.6881 143.339 63.6881C143.339 63.6881 148.03 63.8016 148.701 62.1897C149.372 60.5778 148.591 59.3065 147.359 59.3065H144.901C144.901 59.3065 144.23 59.6527 144.565 56.4232C144.901 53.1937 145.907 51.6953 145.907 51.6953C145.907 51.6953 145.357 51.735 144.45 51.6953H144.411" fill="white"/>
</g>
<path d="M133.39 46.5078C133.39 46.5078 130.151 53.0803 129.37 57.5812C128.589 62.082 131.829 68.8815 135.068 68.8815C138.307 68.8815 143.317 63.6939 143.317 63.6939C143.317 63.6939 148.008 63.8074 148.679 62.1955C149.35 60.5836 148.569 59.3123 147.337 59.3123H144.879C144.879 59.3123 144.208 59.6585 144.544 56.429C144.879 53.1995 145.885 51.7011 145.885 51.7011C145.885 51.7011 137.405 52.3879 133.39 46.5078Z" stroke="#212121" stroke-width="0.7" stroke-miterlimit="10"/>
<path d="M133.984 53.8645C133.852 54.4661 133.577 54.9145 133.374 54.8691C133.17 54.8237 133.115 54.3015 133.247 53.6885C133.379 53.0755 133.654 52.6385 133.858 52.6839C134.061 52.7293 134.105 53.2572 133.984 53.8645Z" fill="#212121"/>
<path d="M139.236 56.2814C139.104 56.883 138.829 57.3371 138.626 57.286C138.422 57.2349 138.367 56.7184 138.499 56.1111C138.631 55.5038 138.906 55.0554 139.11 55.1065C139.313 55.1576 139.368 55.6798 139.236 56.2814Z" fill="#212121"/>
<path d="M134.842 55.3906C134.842 55.3906 132.384 57.2352 132.719 57.695C133.637 58.5093 134.764 59.03 135.964 59.1934C136.971 59.1934 136.745 57.9277 136.745 57.9277" stroke="#212121" stroke-width="0.7" stroke-linecap="round" stroke-linejoin="round"/>
<path d="M133.055 60.6969C134.284 61.3882 135.69 61.6698 137.08 61.5028C137.654 61.4447 138.206 61.2473 138.692 60.9267C139.177 60.6061 139.583 60.1714 139.874 59.6582" stroke="#212121" stroke-width="0.7" stroke-linecap="round" stroke-linejoin="round"/>
<path d="M133.28 51.1225C133.28 51.1225 133.951 49.6241 135.293 51.3552" stroke="#212121" stroke-width="0.7" stroke-linecap="round" stroke-linejoin="round"/>
<path d="M138.978 53.1991C138.978 53.1991 141.216 52.5067 141.216 54.811" stroke="#212121" stroke-width="0.7" stroke-linecap="round" stroke-linejoin="round"/>
<path d="M63.1813 84.0448C75.748 81.9117 84.2598 69.6689 82.1929 56.6996C80.126 43.7304 68.2631 34.946 55.6964 37.0791C43.1297 39.2122 34.6179 51.455 36.6848 64.4242C38.7517 77.3935 50.6146 86.1779 63.1813 84.0448Z" fill="#BDBDBD" stroke="#212121" stroke-width="0.7" stroke-miterlimit="10"/>
<path opacity="0.3" d="M63.1813 84.0448C75.748 81.9117 84.2598 69.6689 82.1929 56.6996C80.126 43.7304 68.2632 34.946 55.6964 37.0791C43.1297 39.2122 34.6179 51.455 36.6848 64.4242C38.7517 77.3934 50.6146 86.1779 63.1813 84.0448Z" fill="white" stroke="#212121" stroke-width="0.7" stroke-miterlimit="10"/>
<path d="M43.5717 72.632C43.1757 74.2609 41.3718 74.0339 41.9218 76.0374C45.6066 80.4891 50.7528 83.3818 56.3754 84.162C61.9979 84.9422 67.7017 83.5549 72.395 80.2658C74.0449 78.2509 75.0348 76.1339 75.0788 74.4312C75.2273 69.2322 69.9037 65.35 69.6177 62.847C69.3317 60.344 71.6306 54.6853 71.6306 54.6853C71.6306 54.6853 75.6563 54.0894 77.0971 50.3831C78.538 46.6769 73.0605 38.3392 68.1658 35.8135C63.2712 33.2878 55.0768 35.5184 51.0511 41.6028C47.0254 47.6871 51.9145 53.0337 49.3242 55.8545C46.7339 58.6753 39.9749 58.8229 39.2545 64.4646C38.5341 70.1063 44.0006 70.8498 43.5717 72.632Z" fill="#212121" stroke="#212121" stroke-width="0.7" stroke-miterlimit="10"/>
<path d="M68.1823 41.4727C68.1823 41.4727 69.6397 45.1562 63.9641 47.33C58.2885 49.5038 53.9109 48.3346 52.448 52.1828C50.9851 56.0309 52.1235 58.7155 52.2885 60.6964C52.4535 62.6772 47.8888 62.365 45.139 64.8794C42.3892 67.3937 47.8888 70.4019 49.3572 72.0762C50.8256 73.7505 50.4901 76.2592 47.8943 77.0992" stroke="white" stroke-width="0.7" stroke-linecap="round" stroke-linejoin="round"/>
<path d="M50.9907 49.1749C50.9907 49.1749 53.0971 43.817 56.3418 42.977C59.5866 42.137 63.1558 44.6514 65.5866 42.3073C68.0174 39.9632 67.5335 38.2946 65.7461 36.9551" stroke="white" stroke-width="0.7" stroke-linecap="round" stroke-linejoin="round"/>
<path d="M70.6133 43.6465C70.6133 43.6465 76.2944 47.5003 74.3475 50.5141C72.4006 53.5279 71.7517 49.8444 71.7517 49.8444" stroke="white" stroke-width="0.7" stroke-linecap="round" stroke-linejoin="round"/>
<path d="M46.9316 80.5505C51.2394 83.4237 56.3529 84.7315 61.4622 84.2668C66.5715 83.8022 71.3845 81.5915 75.139 77.9851C73.4411 76.3754 71.6406 74.885 69.7494 73.5239C66.1527 70.9982 63.2764 70.1185 61.2636 70.2547C61.2636 70.2547 59.6797 70.9982 56.6604 73.9666C54.6915 75.9021 49.9619 78.7797 46.9316 80.5505Z" fill="white" stroke="#212121" stroke-width="0.7" stroke-miterlimit="10"/>
<path d="M66.5817 74.3356C66.5834 73.3479 66.4463 72.3653 66.1748 71.4182C64.6518 70.6326 62.9659 70.2429 61.2636 70.2831C61.2636 70.2831 60.0042 70.8507 57.6009 73.121C57.5501 73.5408 57.5244 73.9635 57.5239 74.3866C57.5239 78.2859 59.5478 81.4416 62.0501 81.4416C64.5524 81.4416 66.5817 78.2348 66.5817 74.3356Z" fill="white" stroke="#212121" stroke-width="0.7" stroke-miterlimit="10"/>
<path d="M60.1089 62.6826C60.1089 62.6826 60.1089 66.8429 59.6799 70.7024C59.251 74.5619 59.8229 78.7165 62.5562 79.0117C65.2895 79.3068 64.855 72.6322 64.5691 69.9589C64.3994 68.2815 64.3994 66.5905 64.5691 64.9132L60.1089 62.6826Z" fill="white"/>
<g style="mix-blend-mode:multiply" opacity="0.5">
<path d="M59.5972 71.5997L64.4533 66.7413C64.4533 66.5881 64.4533 66.4405 64.4533 66.3043L63.4634 64.4029L60.0921 62.7002C60.0921 62.7002 60.0921 66.8605 59.6632 70.72C59.6467 70.9981 59.6192 71.2989 59.5972 71.5997Z" fill="white"/>
</g>
<path d="M60.1089 62.6826C60.1089 62.6826 60.1089 66.8429 59.6799 70.7024C59.251 74.5619 59.8229 78.7165 62.5562 79.0117C65.2895 79.3068 64.855 72.6322 64.5691 69.9589C64.3994 68.2815 64.3994 66.5905 64.5691 64.9132L60.1089 62.6826Z" stroke="#212121" stroke-width="0.7" stroke-miterlimit="10"/>
<path d="M69.8928 44.1289C69.8928 44.1289 70.1788 46.0587 65.2896 48.4368C60.4005 50.8149 57.9532 52.739 57.5242 54.9639C57.0952 57.1888 56.9468 58.0855 56.9468 58.0855C56.9468 58.0855 55.9403 56.0025 54.0705 57.0412C52.2006 58.0798 53.9275 62.0926 55.6544 62.2401C57.3812 62.3877 57.8102 61.7918 57.8102 61.7918C57.8102 61.7918 63.4198 67.581 66.725 67.581C70.0303 67.581 71.3282 64.3175 72.0486 58.4998C72.7471 52.9149 69.8928 44.1289 69.8928 44.1289Z" fill="white"/>
<g style="mix-blend-mode:multiply" opacity="0.5">
<path d="M59.0971 56.0361C59.2715 54.1664 59.9161 52.3763 60.9669 50.8428C58.9156 52.2277 57.7992 53.5331 57.5242 54.9633C57.0897 57.1939 56.9468 58.085 56.9468 58.085C56.9468 58.085 55.9403 56.002 54.0705 57.0407C52.2006 58.0793 53.9275 62.0921 55.6544 62.2396C57.3812 62.3872 57.8102 61.7913 57.8102 61.7913C57.8102 61.7913 63.4198 67.5805 66.725 67.5805C65.7438 67.0772 64.8212 66.4603 63.9752 65.7416C62.0174 64.2659 58.9376 59.7253 59.0971 56.0361Z" fill="white"/>
</g>
<path d="M69.8928 44.1289C69.8928 44.1289 70.1788 46.0587 65.2896 48.4368C60.4005 50.8149 57.9532 52.739 57.5242 54.9639C57.0952 57.1888 56.9468 58.0855 56.9468 58.0855C56.9468 58.0855 55.9403 56.0025 54.0705 57.0412C52.2006 58.0798 53.9275 62.0926 55.6544 62.2401C57.3812 62.3877 57.8102 61.7918 57.8102 61.7918C57.8102 61.7918 63.4198 67.581 66.725 67.581C70.0303 67.581 71.3282 64.3175 72.0486 58.4998C72.7471 52.9149 69.8928 44.1289 69.8928 44.1289Z" stroke="#212121" stroke-width="0.7" stroke-miterlimit="10"/>
<path d="M68.897 53.1367C68.7338 53.5969 68.666 54.0873 68.6982 54.5762C68.7305 55.065 68.8619 55.5415 69.084 55.9746C69.8375 57.4332 70.2169 57.9157 69.9365 58.3073C69.856 58.4419 69.7506 58.5589 69.6264 58.6514C69.5021 58.744 69.3613 58.8104 69.2122 58.8467C69.063 58.8831 68.9084 58.8888 68.7571 58.8634C68.6058 58.8381 68.4609 58.7822 68.3306 58.6989" stroke="#212121" stroke-width="0.7" stroke-linecap="round" stroke-linejoin="round"/>
<path d="M68.3306 62.1881C68.3306 62.1881 65.5808 63.2609 64.6514 61.2119" stroke="#212121" stroke-width="0.7" stroke-linecap="round" stroke-linejoin="round"/>
<path d="M65.5972 55.3275C65.5972 55.9462 65.4267 56.4627 65.2177 56.4627C65.0087 56.4627 64.8438 55.9632 64.8438 55.3275C64.8438 54.6918 65.0087 54.1924 65.2177 54.1924C65.4267 54.1924 65.5972 54.7089 65.5972 55.3275Z" fill="#212121"/>
<path d="M70.2174 55.1796C70.4269 55.1796 70.5968 54.679 70.5968 54.0615C70.5968 53.444 70.4269 52.9434 70.2174 52.9434C70.0078 52.9434 69.8379 53.444 69.8379 54.0615C69.8379 54.679 70.0078 55.1796 70.2174 55.1796Z" fill="#212121"/>
<path d="M62.8643 52.0694C62.8643 52.0694 63.4142 50.5086 65.691 50.8037" stroke="#212121" stroke-width="0.7" stroke-linecap="round" stroke-linejoin="round"/>
<path d="M68.9907 50.5077C68.9907 50.5077 69.6507 48.856 71.0641 50.2182" stroke="#212121" stroke-width="0.7" stroke-linecap="round" stroke-linejoin="round"/>
</g>
<defs>
<clipPath id="clip0_465_6081">
<rect width="200" height="200" fill="white"/>
</clipPath>
</defs>
</svg>
