<svg width="201" height="200" viewBox="0 0 201 200" fill="none" xmlns="http://www.w3.org/2000/svg">
<path d="M32.0663 117.49C32.0953 117.49 32.5975 115.558 32.6168 115.418C32.8196 113.969 32.3512 110.985 30.8542 110.261C30.602 110.147 30.3287 110.089 30.0522 110.088C29.7756 110.087 29.5021 110.145 29.2493 110.257C28.9965 110.369 28.7701 110.533 28.5849 110.738C28.3996 110.944 28.2597 111.186 28.1741 111.448C27.7733 112.549 28.2852 113.906 28.884 114.829C29.5939 115.93 32.0663 117.485 32.0663 117.49Z" fill="#B75400"/>
<path d="M40.7833 106.929C39.127 106.755 37.1664 109.02 36.558 110.377C36.5097 110.492 35.9012 112.424 35.9302 112.419H35.9688C35.6549 112.777 35.3217 113.163 34.9692 113.588C34.3221 114.385 33.5978 115.288 32.8783 116.326C32.0879 117.433 31.3638 118.586 30.71 119.779C29.9675 121.111 29.3468 122.507 28.8557 123.951V124.004C28.8557 123.521 28.8557 122.154 28.8267 122.048C28.6384 120.575 27.378 117.842 25.7651 117.538C25.4919 117.495 25.2126 117.51 24.9455 117.582C24.6785 117.654 24.4297 117.782 24.2155 117.957C24.0012 118.132 23.8264 118.351 23.7023 118.598C23.5782 118.845 23.5078 119.116 23.4955 119.392C23.3989 120.561 24.2488 121.734 25.0746 122.473C26.0066 123.304 28.5998 124.115 28.8074 124.178C28.337 125.645 27.9659 127.142 27.6967 128.659C27.5374 129.548 27.407 130.446 27.2863 131.354C27.2863 130.934 27.2863 130.557 27.2863 130.504C27.0979 129.031 25.8376 126.293 24.2247 125.994C23.9518 125.95 23.6729 125.965 23.4062 126.037C23.1395 126.109 22.8909 126.237 22.6767 126.411C22.4626 126.586 22.2876 126.804 22.1633 127.05C22.0389 127.297 21.968 127.567 21.9551 127.843C21.8585 129.017 22.7084 130.185 23.5341 130.924C24.3599 131.663 26.5716 132.406 27.1511 132.595L27.0207 133.638C26.8227 135.304 26.6295 136.975 26.3929 138.602C26.3108 139.177 26.2046 139.737 26.1032 140.302C26.1032 139.925 26.1032 139.611 26.1032 139.563C25.91 138.09 24.6545 135.357 23.0416 135.053C22.7683 135.01 22.489 135.025 22.222 135.097C21.9549 135.169 21.7062 135.297 21.4919 135.472C21.2777 135.647 21.1028 135.865 20.9787 136.113C20.8547 136.36 20.7842 136.631 20.7719 136.907C20.6754 138.076 21.5253 139.249 22.351 139.988C23.1768 140.727 25.1712 141.398 25.8617 141.62C25.741 142.195 25.6203 142.77 25.4802 143.32C25.374 143.692 25.2967 144.059 25.1663 144.431C25.036 144.803 24.9297 145.16 24.8138 145.522C24.5627 146.208 24.3309 146.918 24.0508 147.584C23.8722 148.067 23.6935 148.487 23.5148 148.926C23.6066 148.357 23.7611 147.236 23.7611 147.14C23.7426 145.833 23.3902 144.553 22.7374 143.421C22.7421 143.276 22.7324 143.13 22.7084 142.987C22.6746 142.712 22.583 142.447 22.4396 142.209C22.2961 141.972 22.104 141.768 21.876 141.61C21.6479 141.452 21.389 141.344 21.1164 141.294C20.8437 141.243 20.5634 141.251 20.2939 141.316C18.6858 141.746 17.6669 144.566 17.5896 146.048C17.5896 146.135 17.6428 147.091 17.6862 147.695C17.609 147.343 17.5317 147.005 17.4448 146.647C17.2757 145.933 17.0874 145.227 16.8846 144.469C16.7784 144.107 16.6673 143.74 16.5514 143.373C16.4355 143.006 16.2955 142.625 16.1651 142.248C15.8464 141.379 15.4842 140.51 15.0979 139.65C15.7208 139.5 17.9228 138.935 18.8065 138.259C19.6903 137.583 20.6174 136.477 20.6078 135.304C20.6155 135.028 20.5649 134.753 20.4593 134.498C20.3538 134.243 20.1956 134.013 19.9951 133.823C19.7946 133.633 19.5563 133.487 19.2958 133.395C19.0352 133.303 18.7583 133.268 18.483 133.29C16.8315 133.469 15.3924 136.101 15.1027 137.559C15.1027 137.651 14.9868 138.718 14.9433 139.302C14.7067 138.786 14.4604 138.269 14.219 137.752C13.4802 136.265 12.6834 134.782 11.9011 133.3L11.1864 131.933C11.4085 131.88 14.0403 131.272 15.0496 130.509C15.9285 129.837 16.8653 128.732 16.8556 127.558C16.8633 127.282 16.8127 127.007 16.7072 126.752C16.6016 126.496 16.4435 126.266 16.2431 126.075C16.0427 125.885 15.8045 125.739 15.544 125.647C15.2835 125.554 15.0064 125.518 14.7309 125.54C13.0745 125.718 11.6403 128.355 11.3506 129.808C11.3506 129.92 11.1864 131.455 11.1719 131.851C10.6504 130.847 10.1433 129.842 9.67973 128.833C9.04628 127.472 8.50423 126.07 8.05718 124.637C8.15859 124.637 10.9111 123.99 11.9204 123.212C12.7993 122.536 13.7313 121.43 13.7216 120.257C13.7293 119.981 13.6787 119.706 13.5732 119.451C13.4676 119.195 13.3094 118.965 13.1089 118.775C12.9084 118.585 12.6702 118.44 12.4096 118.348C12.1491 118.256 11.8721 118.22 11.5968 118.243C9.94532 118.422 8.5111 121.058 8.21654 122.512C8.21654 122.608 8.09098 123.777 8.05235 124.337H7.9606C7.54438 122.885 7.26152 121.398 7.11552 119.895C7.01894 119.069 6.98031 118.272 6.95617 117.48C7.4777 117.417 9.85357 117.099 10.858 116.514C11.8624 115.93 12.8572 114.94 12.9779 113.771C13.0153 113.498 12.9947 113.219 12.9174 112.954C12.8402 112.689 12.708 112.443 12.5295 112.232C12.351 112.021 12.1301 111.85 11.8813 111.73C11.6324 111.61 11.3611 111.544 11.085 111.536C9.42379 111.536 7.70466 113.993 7.25073 115.399C7.25073 115.476 7.05758 116.282 6.94651 116.876C6.94651 116.524 6.94651 116.167 6.94651 115.828C6.94651 114.573 7.0286 113.414 7.1107 112.4C7.15899 111.82 7.2121 111.299 7.27005 110.811C7.75295 110.478 9.68455 109.121 10.2689 108.15C10.8532 107.18 11.3168 105.837 10.887 104.741C10.7938 104.481 10.6471 104.244 10.4564 104.044C10.2656 103.845 10.0351 103.688 9.77964 103.583C9.52422 103.478 9.24964 103.428 8.97371 103.436C8.69778 103.445 8.42665 103.511 8.1779 103.63C6.60365 104.432 6.2125 107.412 6.45878 108.86C6.45878 108.991 7.03826 110.932 7.0624 110.913H7.09138C7.0286 111.395 6.96582 111.878 6.90305 112.439C6.80164 113.457 6.70023 114.612 6.67126 115.872C6.62339 117.233 6.65564 118.595 6.76783 119.952C6.88443 121.472 7.13655 122.978 7.52116 124.453C7.52116 124.453 7.52116 124.492 7.52116 124.506C7.25556 124.096 6.48775 122.971 6.42015 122.888C5.45435 121.768 2.90946 120.17 1.37866 120.817C1.12701 120.931 0.90233 121.098 0.719315 121.305C0.5363 121.512 0.399063 121.756 0.316573 122.019C0.234082 122.283 0.208194 122.562 0.240596 122.836C0.272999 123.111 0.362964 123.375 0.504616 123.613C1.06961 124.646 2.43622 125.153 3.52274 125.313C4.75897 125.491 7.38595 124.738 7.57428 124.675C8.00314 126.167 8.53067 127.629 9.15336 129.05C9.51071 129.881 9.89703 130.707 10.2978 131.528C10.0612 131.18 9.84391 130.871 9.81494 130.827C8.84914 129.707 6.30425 128.109 4.77346 128.756C4.52339 128.873 4.30062 129.041 4.11951 129.249C3.93841 129.457 3.80299 129.701 3.722 129.965C3.641 130.229 3.61623 130.507 3.64929 130.781C3.68234 131.055 3.77248 131.319 3.91389 131.557C4.47889 132.585 5.84549 133.097 6.93202 133.256C8.01855 133.416 10.2833 132.817 10.8725 132.653L11.3554 133.594C12.1087 135.096 12.8717 136.593 13.5719 138.085C13.8182 138.607 14.0548 139.133 14.2673 139.66C14.0548 139.351 13.8761 139.095 13.8423 139.056C12.8765 137.931 10.3316 136.332 8.80085 136.984C8.5496 137.099 8.3254 137.266 8.14289 137.473C7.96038 137.681 7.82365 137.924 7.74163 138.188C7.65961 138.452 7.63413 138.73 7.66687 139.005C7.69961 139.279 7.78982 139.543 7.93162 139.78C8.49662 140.809 9.86323 141.316 10.9498 141.48C12.0363 141.644 14.0789 141.099 14.7792 140.906C14.9965 141.446 15.2089 141.997 15.3924 142.533C15.5132 142.905 15.6484 143.252 15.7498 143.629C15.8512 144.006 15.9526 144.373 16.0588 144.735C16.2279 145.45 16.4065 146.184 16.5417 146.879C16.648 147.362 16.7446 147.845 16.8363 148.294C16.5997 147.768 16.1071 146.749 16.054 146.667C15.2669 145.411 12.9973 143.446 11.3844 143.856C11.1185 143.931 10.8715 144.062 10.6595 144.239C10.4475 144.417 10.2752 144.637 10.154 144.885C10.0328 145.133 9.96531 145.404 9.95598 145.681C9.94665 145.957 9.99567 146.232 10.0998 146.488C10.5055 147.589 11.7659 148.299 12.8282 148.622C13.9969 148.98 16.5804 148.651 16.9039 148.622C17.0584 149.395 17.2033 150.148 17.324 150.858C17.7635 153.331 18.0291 155.402 18.1981 156.856C18.2271 157.112 18.2512 157.339 18.2754 157.561H13.2677L14.8081 187.703H23.906L25.4513 157.561H20.7864L20.8927 157.348C21.5301 156.011 22.4186 154.098 23.3796 151.751C23.6838 151.013 23.9929 150.216 24.3068 149.395C24.6158 149.458 27.2042 149.979 28.3728 149.709C29.4545 149.467 30.7873 148.854 31.2702 147.777C31.3921 147.53 31.4606 147.259 31.4712 146.983C31.4819 146.707 31.4344 146.432 31.332 146.176C31.2296 145.92 31.0744 145.688 30.8766 145.495C30.6788 145.303 30.4427 145.154 30.1837 145.058C28.6046 144.527 26.1998 146.319 25.316 147.512C25.2629 147.584 24.7849 148.415 24.4903 148.96C24.6158 148.622 24.7414 148.299 24.8669 147.951C25.1181 147.265 25.3498 146.57 25.601 145.826C25.7072 145.464 25.8183 145.097 25.9293 144.725C26.0404 144.353 26.1273 143.962 26.2287 143.576C26.4412 142.673 26.615 141.751 26.7696 140.819C27.3684 141.036 29.5173 141.784 30.6328 141.707C31.7483 141.63 33.1294 141.224 33.7668 140.258C33.9259 140.032 34.0355 139.775 34.0885 139.504C34.1414 139.232 34.1365 138.953 34.0741 138.684C34.0117 138.414 33.8931 138.161 33.7261 137.941C33.5592 137.72 33.3476 137.538 33.1052 137.404C31.6276 136.641 28.9764 138.047 27.9237 139.095C27.8609 139.157 27.1897 139.998 26.8275 140.461C26.9193 139.901 27.0062 139.341 27.0786 138.766C27.2814 137.12 27.4408 135.444 27.6002 133.773L27.7595 132.242C27.972 132.32 30.5072 133.261 31.7531 133.174C32.8589 133.097 34.2449 132.691 34.8871 131.726C35.0463 131.499 35.1559 131.242 35.2088 130.971C35.2618 130.7 35.2569 130.42 35.1944 130.151C35.132 129.881 35.0134 129.628 34.8465 129.408C34.6795 129.187 34.4679 129.005 34.2256 128.872C32.7479 128.109 30.0968 129.514 29.044 130.562C28.9668 130.644 28.001 131.846 27.7692 132.165C27.8899 131.045 28.0203 129.924 28.1893 128.828C28.4163 127.344 28.7389 125.876 29.1551 124.434C29.2517 124.472 31.8931 125.467 33.168 125.4C34.2738 125.322 35.6598 124.917 36.302 123.951C36.4611 123.725 36.5708 123.468 36.6237 123.196C36.6767 122.925 36.6718 122.645 36.6093 122.376C36.5469 122.107 36.4283 121.853 36.2614 121.633C36.0944 121.413 35.8828 121.23 35.6405 121.097C34.1628 120.334 31.5117 121.739 30.4589 122.787C30.3913 122.86 29.6573 123.777 29.3145 124.236L29.2324 124.192C29.6855 122.751 30.269 121.355 30.9756 120.02C31.3523 119.276 31.7579 118.571 32.1636 117.934C32.6465 118.171 34.805 119.223 35.964 119.267C37.123 119.31 38.4992 119.064 39.2429 118.156C39.4225 117.948 39.5569 117.706 39.6374 117.443C39.718 117.181 39.7429 116.904 39.7106 116.632C39.6784 116.359 39.5896 116.096 39.45 115.86C39.3105 115.623 39.1232 115.419 38.9 115.259C37.5141 114.336 34.7229 115.447 33.5881 116.369C33.5254 116.422 32.9362 117.002 32.5161 117.437C32.7044 117.142 32.8928 116.833 33.0811 116.553C33.7765 115.505 34.4767 114.587 35.1044 113.781C35.4666 113.327 35.7998 112.921 36.1185 112.545C36.7028 112.545 39.0594 112.463 40.088 111.98C41.1165 111.497 42.2417 110.628 42.5025 109.478C42.5903 109.196 42.6137 108.898 42.5708 108.606C42.528 108.314 42.4201 108.036 42.255 107.791C42.09 107.546 41.8721 107.341 41.6173 107.192C41.3626 107.043 41.0776 106.953 40.7833 106.929V106.929ZM22.4718 151.355C21.4722 153.654 20.5402 155.533 19.8882 156.836C19.7579 157.097 19.6371 157.319 19.5261 157.546H19.3957C19.3619 157.29 19.3281 157.015 19.2846 156.701C19.0818 155.252 18.7631 153.147 18.2705 150.665C18.116 149.878 17.9373 149.042 17.7442 148.183C18.5223 147.871 19.2817 147.515 20.0186 147.116C20.8685 148.038 23.0512 149.115 23.3313 149.255C23.0561 149.974 22.776 150.679 22.4718 151.355Z" fill="#B75400"/>
<path d="M2.53237 116.847C3.72514 117.369 6.64669 117.301 6.65152 117.301C6.65634 117.301 6.02374 115.37 5.9658 115.273C5.32354 113.935 3.30019 111.719 1.64867 111.946C1.37661 111.991 1.11703 112.092 0.886715 112.244C0.656403 112.396 0.46049 112.594 0.311649 112.826C0.162808 113.058 0.0643541 113.319 0.0226559 113.592C-0.0190423 113.864 -0.00305649 114.143 0.0695802 114.409C0.344834 115.553 1.52794 116.403 2.53237 116.847Z" fill="#B75400"/>
<path opacity="0.3" d="M2.53237 116.847C3.72514 117.369 6.64669 117.301 6.65152 117.301C6.65634 117.301 6.02374 115.37 5.9658 115.273C5.32354 113.935 3.30019 111.719 1.64867 111.946C1.37661 111.991 1.11703 112.092 0.886715 112.244C0.656403 112.396 0.46049 112.594 0.311649 112.826C0.162808 113.058 0.0643541 113.319 0.0226559 113.592C-0.0190423 113.864 -0.00305649 114.143 0.0695802 114.409C0.344834 115.553 1.52794 116.403 2.53237 116.847Z" fill="white"/>
<path opacity="0.3" d="M32.0663 117.49C32.0953 117.49 32.5975 115.558 32.6168 115.418C32.8196 113.969 32.3512 110.985 30.8542 110.261C30.602 110.147 30.3287 110.089 30.0522 110.088C29.7756 110.087 29.5021 110.145 29.2493 110.257C28.9965 110.369 28.7701 110.533 28.5849 110.738C28.3996 110.944 28.2597 111.186 28.1741 111.448C27.7733 112.549 28.2852 113.906 28.884 114.829C29.5939 115.93 32.0663 117.485 32.0663 117.49Z" fill="white"/>
<path opacity="0.3" d="M7.5936 124.666C8.02246 126.157 8.54998 127.619 9.17268 129.041C9.53003 129.871 9.91635 130.697 10.3172 131.518C10.0805 131.17 9.86323 130.861 9.83425 130.818C8.86845 129.697 6.32357 128.099 4.79277 128.746C4.53973 128.861 4.3138 129.028 4.12975 129.236C3.94571 129.445 3.8077 129.689 3.72475 129.955C3.64179 130.22 3.61576 130.5 3.64835 130.776C3.68095 131.052 3.77143 131.318 3.91389 131.557C4.47889 132.585 5.84549 133.097 6.93202 133.256C8.01855 133.416 10.2833 132.817 10.8725 132.653L11.3554 133.594C12.1087 135.096 12.8717 136.593 13.5719 138.085C13.8182 138.607 14.0548 139.133 14.2673 139.66C14.0548 139.351 13.8761 139.095 13.8423 139.056C12.8765 137.931 10.3316 136.332 8.80085 136.984C8.5496 137.099 8.3254 137.266 8.14289 137.473C7.96038 137.681 7.82365 137.924 7.74163 138.188C7.65961 138.452 7.63413 138.73 7.66687 139.005C7.69961 139.279 7.78982 139.543 7.93162 139.78C8.49662 140.809 9.86323 141.316 10.9498 141.48C12.0363 141.644 14.0789 141.099 14.7792 140.906C14.9965 141.446 15.2089 141.997 15.3924 142.533C15.5132 142.905 15.6484 143.252 15.7498 143.629C15.8512 144.006 15.9526 144.373 16.0588 144.735C16.2279 145.45 16.4065 146.184 16.5417 146.879C16.648 147.362 16.7446 147.845 16.8363 148.294C16.5997 147.768 16.1071 146.749 16.054 146.667C15.2669 145.411 12.9973 143.446 11.3844 143.856C11.1185 143.931 10.8715 144.062 10.6595 144.239C10.4475 144.417 10.2752 144.637 10.154 144.885C10.0328 145.133 9.96531 145.404 9.95598 145.681C9.94665 145.957 9.99567 146.232 10.0998 146.488C10.5055 147.589 11.7659 148.299 12.8282 148.622C13.9969 148.98 16.5804 148.651 16.9039 148.622C17.0584 149.395 17.2033 150.148 17.324 150.858C17.7635 153.331 18.0291 155.402 18.1981 156.856C18.2271 157.112 18.2512 157.339 18.2754 157.561H13.2677L14.8081 187.703H23.906L25.4513 157.561H20.7864L20.8927 157.348C21.5301 156.011 22.4186 154.098 23.3796 151.751C23.6838 151.013 23.9929 150.216 24.3068 149.395C24.6158 149.458 27.2042 149.979 28.3728 149.709C29.4545 149.467 30.7873 148.854 31.2702 147.777C31.3921 147.53 31.4606 147.259 31.4712 146.983C31.4819 146.707 31.4344 146.432 31.332 146.176C31.2296 145.92 31.0744 145.688 30.8766 145.495C30.6788 145.303 30.4427 145.154 30.1837 145.058C28.6046 144.527 26.1998 146.319 25.316 147.512C25.2629 147.584 24.7849 148.415 24.4903 148.96C24.6158 148.622 24.7414 148.299 24.8669 147.951C25.1181 147.265 25.3498 146.57 25.601 145.826C25.7072 145.464 25.8183 145.097 25.9293 144.725C26.0404 144.353 26.1273 143.962 26.2287 143.576C26.4412 142.673 26.615 141.751 26.7696 140.819C27.3684 141.036 29.5173 141.784 30.6328 141.707C31.7483 141.63 33.1294 141.224 33.7668 140.258C33.9259 140.032 34.0355 139.775 34.0885 139.504C34.1414 139.232 34.1365 138.953 34.0741 138.684C34.0117 138.414 33.8931 138.161 33.7261 137.941C33.5592 137.72 33.3476 137.538 33.1052 137.404C31.6276 136.641 28.9764 138.047 27.9237 139.095C27.8609 139.157 27.1897 139.998 26.8275 140.461C26.9193 139.901 27.0062 139.341 27.0786 138.766C27.2814 137.12 27.4408 135.444 27.6002 133.773L27.7595 132.242C27.972 132.32 30.5072 133.261 31.7531 133.174C32.8589 133.097 34.2449 132.691 34.8871 131.726C35.0462 131.499 35.1559 131.242 35.2088 130.971C35.2618 130.7 35.2569 130.42 35.1944 130.151C35.132 129.881 35.0134 129.628 34.8465 129.408C34.6795 129.187 34.4679 129.005 34.2256 128.872C32.7479 128.109 30.0968 129.514 29.044 130.562C28.9668 130.644 28.001 131.846 27.7692 132.165C27.8899 131.045 28.0203 129.924 28.1893 128.828C28.4163 127.344 28.7389 125.876 29.1551 124.434C29.2517 124.472 31.8931 125.467 33.168 125.4C34.2738 125.322 35.6598 124.917 36.302 123.951C36.4611 123.725 36.5708 123.468 36.6237 123.196C36.6767 122.925 36.6718 122.645 36.6093 122.376C36.5469 122.107 36.4283 121.853 36.2614 121.633C36.0944 121.413 35.8828 121.23 35.6405 121.097C34.1628 120.334 31.5117 121.739 30.4589 122.787C30.3913 122.86 29.6573 123.777 29.3145 124.236L29.2324 124.192C29.6855 122.751 30.269 121.355 30.9756 120.02C31.3523 119.276 31.7579 118.571 32.1636 117.934C32.6465 118.171 34.805 119.223 35.964 119.267C37.123 119.31 38.4992 119.064 39.2429 118.156C39.4225 117.948 39.5569 117.706 39.6374 117.443C39.718 117.181 39.7429 116.904 39.7106 116.632C39.6784 116.359 39.5896 116.096 39.45 115.86C39.3105 115.623 39.1232 115.419 38.9 115.259C37.5141 114.336 34.7229 115.447 33.5881 116.369C33.5253 116.422 32.9362 117.002 32.5161 117.437C32.7044 117.142 32.8927 116.833 33.0811 116.553C33.7765 115.505 34.4767 114.587 35.1044 113.781C35.4666 113.327 35.7998 112.921 36.1185 112.545C36.7028 112.545 39.0594 112.463 40.088 111.98C41.1165 111.497 42.2417 110.628 42.5025 109.478C42.5671 109.211 42.575 108.932 42.5255 108.662C42.476 108.391 42.3702 108.133 42.215 107.906C42.0599 107.678 41.8588 107.486 41.6246 107.341C41.3905 107.196 41.1286 107.101 40.8558 107.064C39.1994 106.89 37.2389 109.155 36.6304 110.512C36.5821 110.628 35.9737 112.559 36.0026 112.554H36.0413C35.7274 112.912 35.3942 113.298 35.0417 113.723C34.3946 114.52 33.6702 115.423 32.9507 116.461C32.1603 117.568 31.4363 118.721 30.7825 119.914C30.0399 121.246 29.4193 122.642 28.9281 124.086V124.139C28.9281 123.656 28.9281 122.29 28.8992 122.183C28.7108 120.711 27.4505 117.977 25.8376 117.673C25.5643 117.63 25.285 117.645 25.018 117.717C24.7509 117.79 24.5021 117.918 24.2879 118.093C24.0737 118.268 23.8988 118.486 23.7747 118.733C23.6507 118.98 23.5802 119.251 23.5679 119.528C23.4714 120.696 24.3213 121.87 25.147 122.608C26.079 123.439 28.6722 124.25 28.8798 124.313C28.3907 125.734 27.9955 127.186 27.6967 128.659C27.5374 129.548 27.407 130.446 27.2863 131.354C27.2863 130.934 27.2863 130.557 27.2863 130.504C27.0979 129.031 25.8376 126.293 24.2247 125.994C23.9518 125.95 23.6729 125.965 23.4062 126.037C23.1395 126.109 22.8909 126.237 22.6767 126.411C22.4626 126.586 22.2876 126.804 22.1633 127.05C22.0389 127.297 21.968 127.567 21.9551 127.843C21.8585 129.017 22.7084 130.185 23.5341 130.924C24.3599 131.663 26.5716 132.406 27.1511 132.595L27.0207 133.638C26.8227 135.304 26.6295 136.975 26.3929 138.602C26.3108 139.177 26.2046 139.737 26.1032 140.302C26.1032 139.925 26.1032 139.611 26.1032 139.563C25.91 138.09 24.6545 135.357 23.0416 135.053C22.7683 135.01 22.489 135.025 22.222 135.097C21.9549 135.169 21.7062 135.297 21.4919 135.472C21.2777 135.647 21.1028 135.865 20.9787 136.113C20.8547 136.36 20.7842 136.631 20.7719 136.907C20.6754 138.076 21.5253 139.249 22.351 139.988C23.1768 140.727 25.1712 141.398 25.8617 141.62C25.741 142.195 25.6203 142.77 25.4802 143.32C25.374 143.692 25.2967 144.059 25.1663 144.431C25.036 144.803 24.9297 145.16 24.8138 145.522C24.5627 146.208 24.3309 146.918 24.0508 147.584C23.8722 148.067 23.6935 148.487 23.5148 148.926C23.6066 148.357 23.7611 147.236 23.7611 147.14C23.7426 145.833 23.3902 144.553 22.7374 143.421C22.7421 143.276 22.7324 143.13 22.7084 142.987C22.6746 142.712 22.583 142.447 22.4396 142.209C22.2961 141.972 22.104 141.768 21.876 141.61C21.6479 141.452 21.389 141.344 21.1164 141.294C20.8437 141.243 20.5634 141.251 20.2939 141.316C18.6858 141.746 17.6669 144.566 17.5896 146.048C17.5896 146.135 17.6428 147.091 17.6862 147.695C17.6089 147.343 17.5317 147.005 17.4448 146.647C17.2757 145.933 17.0874 145.227 16.8846 144.469C16.7784 144.107 16.6673 143.74 16.5514 143.373C16.4355 143.006 16.2955 142.625 16.1651 142.248C15.8464 141.379 15.4842 140.51 15.0979 139.65C15.7208 139.5 17.9228 138.935 18.8065 138.259C19.6903 137.583 20.6174 136.477 20.6078 135.304C20.6155 135.028 20.5649 134.753 20.4593 134.498C20.3538 134.243 20.1956 134.013 19.9951 133.823C19.7946 133.633 19.5563 133.487 19.2958 133.395C19.0352 133.303 18.7583 133.268 18.483 133.29C16.8315 133.469 15.3924 136.101 15.1027 137.559C15.1027 137.651 14.9868 138.718 14.9433 139.302C14.7067 138.786 14.4604 138.269 14.219 137.752C13.4802 136.265 12.6834 134.782 11.9011 133.3L11.1864 131.933C11.4085 131.88 14.0403 131.272 15.0496 130.509C15.9285 129.837 16.8653 128.732 16.8556 127.558C16.8633 127.282 16.8127 127.007 16.7071 126.752C16.6016 126.496 16.4435 126.266 16.2431 126.075C16.0427 125.885 15.8045 125.739 15.544 125.647C15.2835 125.554 15.0064 125.518 14.7309 125.54C13.0745 125.718 11.6403 128.355 11.3506 129.808C11.3506 129.92 11.1864 131.455 11.1719 131.851C10.6504 130.847 10.1433 129.842 9.67972 128.833C9.04628 127.472 8.50423 126.07 8.05718 124.637C8.15859 124.637 10.9111 123.99 11.9204 123.212C12.7993 122.536 13.7313 121.43 13.7216 120.257C13.7293 119.981 13.6787 119.706 13.5732 119.451C13.4676 119.195 13.3094 118.965 13.1089 118.775C12.9084 118.585 12.6702 118.44 12.4096 118.348C12.1491 118.256 11.8721 118.22 11.5968 118.243C9.94532 118.422 8.5111 121.058 8.21654 122.512C8.21654 122.608 8.09098 123.777 8.05235 124.337H7.9606C7.54438 122.885 7.26152 121.398 7.11552 119.895C7.01894 119.069 6.98031 118.272 6.95617 117.48C7.4777 117.417 9.85357 117.099 10.858 116.514C11.8624 115.93 12.8572 114.94 12.9779 113.771C13.0153 113.498 12.9947 113.219 12.9174 112.954C12.8402 112.689 12.708 112.443 12.5295 112.232C12.351 112.021 12.1301 111.85 11.8813 111.73C11.6324 111.61 11.3611 111.544 11.085 111.536C9.42379 111.536 7.70466 113.993 7.25073 115.399C7.25073 115.476 7.05758 116.282 6.94651 116.876C6.94651 116.524 6.94651 116.167 6.94651 115.828C6.94651 114.573 7.0286 113.414 7.11069 112.4C7.15898 111.82 7.2121 111.299 7.27005 110.811C7.75295 110.478 9.68455 109.121 10.2689 108.15C10.8532 107.18 11.3168 105.837 10.887 104.741C10.7938 104.481 10.6471 104.244 10.4564 104.044C10.2656 103.845 10.0351 103.688 9.77964 103.583C9.52422 103.478 9.24964 103.428 8.97371 103.436C8.69778 103.445 8.42665 103.511 8.1779 103.63C6.60365 104.432 6.2125 107.412 6.45878 108.86C6.45878 108.991 7.03826 110.932 7.0624 110.913H7.09138C7.0286 111.395 6.96582 111.878 6.90305 112.439C6.80164 113.457 6.70023 114.612 6.67126 115.872C6.62339 117.233 6.65564 118.595 6.76783 119.952C6.88443 121.472 7.13655 122.978 7.52116 124.453C7.52116 124.453 7.52116 124.492 7.52116 124.506C7.25556 124.096 6.48775 122.971 6.42015 122.888C5.45435 121.768 2.90946 120.17 1.37866 120.817C1.12701 120.931 0.90233 121.098 0.719315 121.305C0.5363 121.512 0.399063 121.756 0.316573 122.019C0.234082 122.283 0.208194 122.562 0.240596 122.836C0.272999 123.111 0.362964 123.375 0.504616 123.613C1.06961 124.646 2.43622 125.153 3.52274 125.313C4.77829 125.482 7.38595 124.728 7.5936 124.666ZM20.0379 147.106C20.8878 148.028 23.0706 149.105 23.3506 149.245C23.0561 149.974 22.7615 150.694 22.4718 151.346C21.4722 153.644 20.5402 155.523 19.8882 156.827C19.7579 157.088 19.6371 157.31 19.5261 157.537H19.3957C19.3619 157.281 19.3281 157.005 19.2846 156.692C19.0818 155.243 18.7631 153.137 18.2705 150.655C18.116 149.868 17.9373 149.033 17.7442 148.173C18.5288 147.862 19.2947 147.506 20.0379 147.106V147.106Z" fill="white"/>
<path d="M33.0272 76.6035H182.34C183.68 76.6035 184.964 77.1357 185.912 78.083C186.859 79.0302 187.391 80.315 187.391 81.6547V180.079H27.9761V81.6547C27.9761 80.315 28.5082 79.0302 29.4555 78.083C30.4028 77.1357 31.6876 76.6035 33.0272 76.6035V76.6035Z" stroke="#212121" stroke-width="0.7" stroke-linecap="round" stroke-linejoin="round"/>
<path d="M180.921 84.6875H34.4424V167.466H180.921V84.6875Z" stroke="#212121" stroke-width="0.7" stroke-linecap="round" stroke-linejoin="round"/>
<path d="M162.826 175.096H53.2705V180.495H162.826V175.096Z" fill="#212121" stroke="#212121" stroke-width="0.7" stroke-linecap="round" stroke-linejoin="round"/>
<path d="M162.826 177.694H53.2705V180.495H162.826V177.694Z" fill="white" stroke="#212121" stroke-width="0.7" stroke-linecap="round" stroke-linejoin="round"/>
<path d="M15.0825 183.711C15.0825 183.711 16.8837 185.913 22.2826 187.709H193.814C193.814 187.709 197.812 186.71 199.608 183.914L15.0825 183.711Z" fill="#212121" stroke="#212121" stroke-width="0.7" stroke-linecap="round" stroke-linejoin="round"/>
<path d="M199.087 179.756H15.6334C15.1293 179.756 14.7207 180.164 14.7207 180.669V183.044C14.7207 183.548 15.1293 183.957 15.6334 183.957H199.087C199.591 183.957 200 183.548 200 183.044V180.669C200 180.164 199.591 179.756 199.087 179.756Z" fill="white" stroke="#212121" stroke-width="0.7" stroke-linecap="round" stroke-linejoin="round"/>
<path d="M109.045 79.7334C109.045 79.4562 108.963 79.1853 108.809 78.9549C108.655 78.7245 108.436 78.545 108.18 78.4391C107.924 78.3333 107.642 78.3058 107.37 78.3603C107.098 78.4147 106.849 78.5486 106.653 78.7449C106.457 78.9412 106.324 79.1912 106.271 79.4632C106.217 79.7352 106.246 80.0169 106.353 80.2727C106.459 80.5285 106.64 80.7469 106.871 80.9002C107.101 81.0535 107.373 81.1348 107.65 81.1338C107.834 81.1338 108.015 81.0976 108.185 81.0271C108.355 80.9567 108.509 80.8535 108.638 80.7234C108.768 80.5933 108.871 80.4388 108.941 80.269C109.01 80.0991 109.046 79.9171 109.045 79.7334V79.7334Z" fill="white" stroke="#212121" stroke-width="0.7" stroke-linecap="round" stroke-linejoin="round"/>
<path d="M29.4784 105.722C29.373 105.722 29.2718 105.681 29.1967 105.607C29.1217 105.533 29.0789 105.432 29.0776 105.326V93.7368C29.0789 93.6313 29.1217 93.5306 29.1967 93.4565C29.2718 93.3824 29.373 93.3408 29.4784 93.3408V93.3408C29.5839 93.3408 29.6851 93.3824 29.7602 93.4565C29.8352 93.5306 29.878 93.6313 29.8792 93.7368V105.326C29.878 105.432 29.8352 105.533 29.7602 105.607C29.6851 105.681 29.5839 105.722 29.4784 105.722V105.722Z" fill="#212121" stroke="white" stroke-width="0.7" stroke-miterlimit="10"/>
<path d="M141.144 84.6875V167.437" stroke="#212121" stroke-width="0.7" stroke-linecap="round" stroke-linejoin="round"/>
<path d="M143.196 84.6875V167.437" stroke="#212121" stroke-width="0.7" stroke-linecap="round" stroke-linejoin="round"/>
<path d="M34.5244 161.971H141.144" stroke="#212121" stroke-width="0.7" stroke-linecap="round" stroke-linejoin="round"/>
<path d="M39.2231 151.665H75.2862" stroke="#212121" stroke-width="0.7" stroke-linecap="round" stroke-linejoin="round"/>
<path d="M39.2231 148.231H75.2862" stroke="#212121" stroke-width="0.7" stroke-linecap="round" stroke-linejoin="round"/>
<path d="M39.2231 144.799H75.2862" stroke="#212121" stroke-width="0.7" stroke-linecap="round" stroke-linejoin="round"/>
<path d="M39.2231 141.365H75.2862" stroke="#212121" stroke-width="0.7" stroke-linecap="round" stroke-linejoin="round"/>
<path d="M39.2231 137.927H75.2862" stroke="#212121" stroke-width="0.7" stroke-linecap="round" stroke-linejoin="round"/>
<path d="M39.2231 127.911H75.2862" stroke="#212121" stroke-width="0.7" stroke-linecap="round" stroke-linejoin="round"/>
<path d="M39.2231 124.478H75.2862" stroke="#212121" stroke-width="0.7" stroke-linecap="round" stroke-linejoin="round"/>
<path d="M39.2231 121.045H75.2862" stroke="#212121" stroke-width="0.7" stroke-linecap="round" stroke-linejoin="round"/>
<path d="M39.2231 117.611H75.2862" stroke="#212121" stroke-width="0.7" stroke-linecap="round" stroke-linejoin="round"/>
<path d="M39.2231 114.173H75.2862" stroke="#212121" stroke-width="0.7" stroke-linecap="round" stroke-linejoin="round"/>
<path d="M162.981 92.5303C162.853 92.5303 162.73 92.5812 162.639 92.6717C162.549 92.7623 162.498 92.8851 162.498 93.0132L162.469 93.6409H154.675L154.216 104.569H169.186L169.529 96.2872L169.645 93.6409L169.693 92.5496L162.981 92.5303Z" fill="#B75400" stroke="#212121" stroke-width="0.7" stroke-linecap="round" stroke-linejoin="round"/>
<path d="M169.186 104.549L169.119 94.3838H154.733L154.849 104.428L169.186 104.549Z" fill="white" stroke="#212121" stroke-width="0.7" stroke-linecap="round" stroke-linejoin="round"/>
<path d="M169.186 104.549L168.529 94.3838H154.144L154.259 104.428L169.186 104.549Z" fill="white" stroke="#212121" stroke-width="0.7" stroke-linecap="round" stroke-linejoin="round"/>
<path d="M154.216 104.548L152.217 94.0693H167.278L169.186 104.548H154.216Z" fill="#B75400" stroke="#212121" stroke-width="0.7" stroke-linecap="round" stroke-linejoin="round"/>
<path d="M162.981 110.995C162.857 110.995 162.738 111.043 162.648 111.128C162.558 111.213 162.504 111.33 162.498 111.454L162.469 112.086H154.675L154.216 123.015H169.186L169.529 114.728L169.645 112.086L169.693 110.995H162.981Z" fill="#B75400" stroke="#212121" stroke-width="0.7" stroke-linecap="round" stroke-linejoin="round"/>
<path d="M169.186 123.016L169.119 112.851H154.733L154.849 122.89L169.186 123.016Z" fill="white" stroke="#212121" stroke-width="0.7" stroke-linecap="round" stroke-linejoin="round"/>
<path d="M169.186 123.016L168.529 112.851H154.144L154.259 122.89L169.186 123.016Z" fill="white" stroke="#212121" stroke-width="0.7" stroke-linecap="round" stroke-linejoin="round"/>
<path d="M154.216 123.015L152.217 112.531H167.278L169.186 123.015H154.216Z" fill="#B75400" stroke="#212121" stroke-width="0.7" stroke-linecap="round" stroke-linejoin="round"/>
<path d="M162.981 129.457C162.853 129.457 162.73 129.508 162.639 129.598C162.549 129.689 162.498 129.812 162.498 129.94L162.469 130.568H154.675L154.216 141.496H169.186L169.529 133.214L169.645 130.568L169.693 129.476L162.981 129.457Z" fill="#B75400" stroke="#212121" stroke-width="0.7" stroke-linecap="round" stroke-linejoin="round"/>
<path d="M169.186 141.477L169.119 131.312H154.733L154.849 141.356L169.186 141.477Z" fill="white" stroke="#212121" stroke-width="0.7" stroke-linecap="round" stroke-linejoin="round"/>
<path d="M169.186 141.477L168.529 131.312H154.144L154.259 141.356L169.186 141.477Z" fill="white" stroke="#212121" stroke-width="0.7" stroke-linecap="round" stroke-linejoin="round"/>
<path d="M154.216 141.477L152.217 130.993H167.278L169.186 141.477H154.216Z" fill="#B75400" stroke="#212121" stroke-width="0.7" stroke-linecap="round" stroke-linejoin="round"/>
<path d="M162.981 147.923C162.857 147.923 162.738 147.97 162.648 148.056C162.558 148.141 162.504 148.258 162.498 148.382L162.469 149.014H154.675L154.216 159.942H169.186L169.529 151.656L169.645 149.014L169.693 147.923H162.981Z" fill="#B75400" stroke="#212121" stroke-width="0.7" stroke-linecap="round" stroke-linejoin="round"/>
<path d="M169.186 159.942L169.119 149.777H154.733L154.849 159.817L169.186 159.942Z" fill="white" stroke="#212121" stroke-width="0.7" stroke-linecap="round" stroke-linejoin="round"/>
<path d="M169.186 159.942L168.529 149.777H154.144L154.259 159.817L169.186 159.942Z" fill="white" stroke="#212121" stroke-width="0.7" stroke-linecap="round" stroke-linejoin="round"/>
<path d="M154.216 159.942L152.217 149.458H167.278L169.186 159.942H154.216Z" fill="#B75400" stroke="#212121" stroke-width="0.7" stroke-linecap="round" stroke-linejoin="round"/>
<path d="M121.876 177.602C122.533 178.548 122.89 179.671 122.9 180.823C122.804 182.484 126.908 184.295 128.033 183.609C129.159 182.923 129.352 181.069 128.516 179.895C127.738 178.886 126.906 177.919 126.025 176.998C125.778 176.703 125.778 176.462 124.996 176.462C124.214 176.462 122.171 176.428 121.876 177.602Z" fill="#212121" stroke="#212121" stroke-width="0.7" stroke-linecap="round" stroke-linejoin="round"/>
<path d="M128.739 180.276C128.756 180.69 128.716 181.105 128.618 181.508C128.371 182.387 128.135 182.435 128.135 182.435L127.695 181.749L126.768 181.996L126.72 182.874C126.191 182.903 125.661 182.838 125.155 182.681C124.615 182.435 123.542 181.851 123.345 180.677C123.134 179.815 122.771 178.997 122.272 178.263C122.702 179.046 122.92 179.928 122.905 180.822C122.808 182.483 126.913 184.294 128.038 183.608C129.043 182.995 129.299 181.435 128.739 180.276Z" fill="white" stroke="#212121" stroke-width="0.7" stroke-linecap="round" stroke-linejoin="round"/>
<path d="M111.566 176.379C110.664 177.164 109.682 177.852 108.635 178.432C107.075 179.262 105.255 178.915 105.023 179.702C104.791 180.489 106.047 181.213 108.886 181.604C111.726 181.995 112.209 181.31 113.43 180.87C114.652 180.431 116.811 180.774 117.294 180.431C117.777 180.088 117.342 178.77 117.149 177.533C116.956 176.297 116.854 175.974 116.854 175.974C116.004 176.385 115.052 176.537 114.116 176.413C113.271 176.293 112.414 176.282 111.566 176.379V176.379Z" fill="#212121" stroke="#212121" stroke-width="0.7" stroke-linecap="round" stroke-linejoin="round"/>
<path d="M113.426 180.871C114.647 180.431 116.806 180.774 117.289 180.431C117.617 180.204 117.525 179.528 117.371 178.741C116.874 179.064 116.336 179.32 115.772 179.504C114.465 179.808 113.175 180.184 111.909 180.629C110.469 181.125 108.891 181.037 107.515 180.383C106.293 179.9 106.781 179.944 106.926 179.456C106.954 179.376 106.962 179.29 106.949 179.206C106.936 179.121 106.904 179.042 106.853 178.973C105.926 179.142 105.173 179.195 105.023 179.683C104.777 180.46 106.047 181.194 108.886 181.585C111.726 181.977 112.204 181.296 113.426 180.871Z" fill="white" stroke="#212121" stroke-width="0.7" stroke-linecap="round" stroke-linejoin="round"/>
<path d="M108.785 127.477C108.785 127.477 108.442 130.751 108.442 137.931C108.425 143.386 108.734 148.836 109.369 154.253C109.76 157.233 109.852 157.281 109.905 157.672C109.958 158.063 111.764 169.151 111.764 169.837V170.764C111.764 170.764 110.799 171.73 111.127 172.623C111.455 173.516 112.059 175.308 111.909 175.356C111.76 175.404 111.228 175.651 111.228 176.09V176.53C111.865 177.237 112.727 177.702 113.667 177.848C115.377 178.191 115.917 178.437 116.357 177.8C116.916 177.053 117.331 176.208 117.579 175.308C117.772 174.381 118.018 173.941 117.429 173.014C116.84 172.087 116.647 171.691 116.647 171.203C116.647 170.715 117.332 162.608 116.893 159.821C116.453 157.035 116.062 155.219 116.062 153.771C116.062 152.322 116.502 139.699 116.502 139.699C116.502 139.699 118.993 155.282 119.288 158.653C119.583 162.023 120.51 170.575 120.408 171.111C120.307 171.647 119.578 172.478 119.925 173.357C120.285 174.117 120.725 174.836 121.239 175.501C121.135 175.588 121.065 175.708 121.038 175.84C121.012 175.973 121.032 176.11 121.094 176.23C121.292 176.713 121.683 177.549 121.876 177.602C122.07 177.655 126.029 177.013 126.029 177.013C126.029 177.013 127.444 174.569 126.995 173.299C126.546 172.029 126.116 171.445 126.116 171.3C126.358 169.991 126.519 168.669 126.599 167.34C126.647 165.582 125.039 148.241 125.039 148.241C125.039 148.241 124.354 132.557 124.354 132.412C124.354 132.267 124.209 129.77 124.209 129.77C124.209 129.77 119.027 133.194 114.585 131.726C110.142 130.258 108.785 127.477 108.785 127.477Z" fill="#B75400" stroke="#212121" stroke-width="0.7" stroke-linecap="round" stroke-linejoin="round"/>
<path d="M116.502 139.689L115.917 137.835" stroke="#212121" stroke-width="0.7" stroke-linecap="round" stroke-linejoin="round"/>
<path d="M116.647 138.322L114.546 137.052" stroke="#212121" stroke-width="0.7" stroke-linecap="round" stroke-linejoin="round"/>
<path d="M116.178 100.783C116.178 100.783 112.619 100.266 112.054 100.642C111.489 101.019 109.48 104.153 108.495 105.471C107.51 106.79 100.904 112.362 100.904 112.362L95.133 101.256C95.3214 100.423 95.4457 99.5771 95.5048 98.7254C95.5048 97.8851 95.0847 97.3684 95.0847 96.5716C95.0847 95.7748 95.4614 94.6014 95.273 94.3213C95.0847 94.0412 94.568 94.3696 94.2396 94.9298C93.9113 95.4899 93.9595 97.04 93.9595 97.04C93.9595 97.04 91.0235 93.4183 90.7724 92.9644C90.7048 92.8388 90.2122 92.8678 90.2122 93.2444C90.2122 93.6211 92.0376 97.04 92.0376 97.04C92.0376 97.04 91.8493 97.3201 91.6658 97.3201C91.4823 97.3201 88.8987 94.2296 88.7684 94.1813C88.638 94.133 88.2082 94.2296 88.44 94.7414C88.6718 95.2533 90.642 97.8851 90.642 97.8851C90.2633 97.8949 89.8864 97.9418 89.5169 98.0252C89.4632 98.0599 89.4184 98.1067 89.386 98.1618C89.3536 98.2169 89.3346 98.2788 89.3303 98.3426C89.3261 98.4064 89.3368 98.4703 89.3617 98.5292C89.3865 98.5881 89.4248 98.6404 89.4734 98.6819C89.6382 98.836 89.8275 98.9617 90.0336 99.0537C90.0336 99.0537 90.0818 99.3386 90.1253 99.8071C90.1006 100.092 90.1478 100.378 90.2625 100.639C90.3773 100.901 90.5559 101.13 90.7821 101.304C91.2601 101.748 91.817 102.098 92.4239 102.337C92.6557 102.381 97.6779 117.114 98.4747 118.428C99.2714 119.741 99.6481 119.785 100.537 119.548C101.425 119.311 110.18 112.725 110.18 112.725C110.18 112.725 109.808 124.768 109.383 125.613C108.958 126.458 108.495 126.458 108.495 127.019C108.519 127.506 108.582 127.99 108.683 128.467C108.683 128.467 111.025 132.403 115.806 132.543C120.587 132.683 124.942 130.761 124.942 129.872C124.908 129.313 124.797 128.76 124.614 128.231C124.614 128.047 125.179 127.154 125.097 126.594C125.015 126.033 124.677 125.889 124.769 125.048C124.86 124.208 128.893 112.16 129.081 108.456C129.269 104.752 129.313 104.472 128.424 103.82C127.536 103.168 124.252 102.598 124.252 102.598L118.723 101.193L116.521 101.005L116.178 100.783Z" fill="white" stroke="#212121" stroke-width="0.7" stroke-linecap="round" stroke-linejoin="round"/>
<path d="M129.067 108.465C129.255 104.766 129.299 104.481 128.41 103.83C127.521 103.178 124.238 102.608 124.238 102.608L118.709 101.203L116.507 101.014L116.178 100.782C116.178 100.782 112.619 100.266 112.054 100.642C111.489 101.019 109.48 104.153 108.495 105.471C107.51 106.79 100.904 112.362 100.904 112.362L98.9724 108.436L95.4424 110.793C96.8911 114.618 98.1563 117.896 98.4653 118.408C99.2621 119.717 99.6388 119.765 100.527 119.529C101.416 119.292 110.181 112.725 110.181 112.725C110.181 112.725 109.809 124.768 109.384 125.613C108.959 126.458 108.495 126.458 108.495 127.018C108.519 127.506 108.582 127.99 108.684 128.467C108.684 128.467 111.026 132.403 115.806 132.543C120.587 132.683 124.943 130.761 124.943 129.872C124.908 129.313 124.798 128.76 124.614 128.23C124.614 128.047 125.179 127.154 125.097 126.593C125.015 126.033 124.677 125.888 124.769 125.048C124.861 124.208 128.878 112.169 129.067 108.465Z" fill="#212121" stroke="#212121" stroke-width="0.7" stroke-linecap="round" stroke-linejoin="round"/>
<path d="M110.205 107.19L110.181 112.729L109.007 107.244" stroke="white" stroke-width="0.7" stroke-linecap="round" stroke-linejoin="round"/>
<path d="M109.215 128.795C113.939 130.079 118.939 129.926 123.576 128.355" stroke="white" stroke-width="0.7" stroke-linecap="round" stroke-linejoin="round"/>
<path d="M119.911 130.973C120.394 130.915 120.847 130.843 121.359 130.751" stroke="white" stroke-width="0.7" stroke-linecap="round" stroke-linejoin="round"/>
<path d="M110.495 129.433C110.495 129.433 113.078 131.176 117.772 131.118" stroke="white" stroke-width="0.7" stroke-linecap="round" stroke-linejoin="round"/>
<path d="M93.9596 97.0146C93.9353 97.347 93.8345 97.6693 93.6651 97.9563C93.3802 98.4392 93.0228 98.6082 92.9745 99.4533C92.9567 99.6898 92.9942 99.9272 93.0838 100.147C93.1735 100.366 93.313 100.562 93.4912 100.718" stroke="#212121" stroke-width="0.7" stroke-linecap="round" stroke-linejoin="round"/>
<path d="M90.9611 98.372C90.9611 98.372 89.0874 97.0633 88.7107 97.2951C88.6079 97.3666 88.5217 97.4595 88.4579 97.5673C88.394 97.6751 88.3541 97.7953 88.3409 97.9199C88.3276 98.0444 88.3412 98.1704 88.3809 98.2892C88.4205 98.408 88.4853 98.517 88.5707 98.6086C88.9957 98.9852 90.821 99.2653 91.1494 99.0915C91.4778 98.9176 91.2604 98.5651 90.9611 98.372Z" fill="#D9D9D9" stroke="#212121" stroke-width="0.7" stroke-linecap="round" stroke-linejoin="round"/>
<path d="M91.5406 99.8259C91.5406 99.8259 90.2319 99.5458 89.9132 99.4926C89.5945 99.4395 89.4062 99.6182 89.4303 99.9514C89.4544 100.285 89.778 100.492 90.285 100.512C90.7921 100.531 91.9172 100.719 91.9655 100.231C91.98 100.174 91.9788 100.113 91.9622 100.056C91.9456 99.9983 91.9141 99.9464 91.8709 99.9051C91.8278 99.8639 91.7745 99.8349 91.7164 99.821C91.6584 99.807 91.5977 99.8087 91.5406 99.8259V99.8259Z" fill="#D9D9D9" stroke="#212121" stroke-width="0.7" stroke-linecap="round" stroke-linejoin="round"/>
<path d="M118.723 98.0529C118.723 98.0529 121.336 97.9708 122.224 97.5459" stroke="#212121" stroke-width="0.7" stroke-linecap="round" stroke-linejoin="round"/>
<path d="M124.76 106.445C124.76 106.445 119.448 111.868 117.724 113.921C116.527 115.311 115.221 116.603 113.817 117.784L102.01 109.937C101.566 109.275 101.158 108.59 100.788 107.885C100.446 107.151 99.9095 106.957 99.4701 105.832C99.0307 104.707 98.5864 103.978 98.2484 104.76C97.9103 105.542 98.0504 105.784 98.2484 106.175C98.4463 106.566 99.1272 107.74 99.1272 107.74C99.1272 107.74 96.196 106.566 95.1675 106.127C94.1389 105.687 93.0668 105.542 93.0185 105.934C92.9703 106.325 93.1682 106.272 93.656 106.47C94.1437 106.668 97.1715 108.324 97.1715 108.324L96.8769 108.474C96.8769 108.474 92.8737 107.74 92.4825 107.691C92.0914 107.643 92.188 108.174 92.4825 108.324C92.7771 108.474 94.2886 109.203 94.2886 109.203C94.2886 109.203 93.9457 109.497 94.3369 110.033C94.71 110.476 95.1366 110.87 95.6069 111.207C95.6916 111.563 95.8798 111.885 96.1477 112.134C96.5389 112.429 99.0789 112.38 100.151 112.477C100.688 112.502 101.217 112.617 101.716 112.82C101.716 112.82 114.16 123.444 114.991 123.444C115.821 123.444 127.396 112.501 128.666 110.888C129.936 109.275 130.863 106.445 130.086 105.127C129.309 103.809 128.082 103.514 127.3 103.804" fill="white"/>
<path d="M124.76 106.445C124.76 106.445 119.448 111.868 117.724 113.921C116.527 115.311 115.221 116.603 113.817 117.784L102.01 109.937C101.566 109.275 101.158 108.59 100.788 107.885C100.446 107.151 99.9095 106.957 99.4701 105.832C99.0307 104.707 98.5864 103.978 98.2484 104.76C97.9103 105.542 98.0504 105.784 98.2484 106.175C98.4463 106.566 99.1272 107.74 99.1272 107.74C99.1272 107.74 96.196 106.566 95.1675 106.127C94.1389 105.687 93.0668 105.542 93.0185 105.934C92.9703 106.325 93.1682 106.272 93.656 106.47C94.1437 106.668 97.1715 108.324 97.1715 108.324L96.8769 108.474C96.8769 108.474 92.8737 107.74 92.4825 107.691C92.0914 107.643 92.188 108.174 92.4825 108.324C92.7771 108.474 94.2886 109.203 94.2886 109.203C94.2886 109.203 93.9457 109.497 94.3369 110.033C94.71 110.476 95.1366 110.87 95.6069 111.207C95.6916 111.563 95.8798 111.885 96.1477 112.134C96.5389 112.429 99.0789 112.38 100.151 112.477C100.688 112.502 101.217 112.617 101.716 112.82C101.716 112.82 114.16 123.444 114.991 123.444C115.821 123.444 127.396 112.501 128.666 110.888C129.936 109.275 130.863 106.445 130.086 105.127C129.309 103.809 128.082 103.514 127.3 103.804" stroke="#212121" stroke-width="0.7" stroke-linecap="round" stroke-linejoin="round"/>
<path d="M94.2881 109.175C94.2881 109.175 95.8527 109.716 96.3404 109.861Z" fill="white"/>
<path d="M94.2881 109.175C94.2881 109.175 95.8527 109.716 96.3404 109.861" stroke="#212121" stroke-width="0.7" stroke-linecap="round" stroke-linejoin="round"/>
<path d="M95.6069 111.179L96.6355 111.324" stroke="#212121" stroke-width="0.7" stroke-linecap="round" stroke-linejoin="round"/>
<path d="M124.759 106.446C124.759 106.446 119.447 111.869 117.723 113.921C116.527 115.312 115.22 116.604 113.817 117.785L110.663 115.713L108.876 119.069C111.991 121.45 114.671 123.415 114.995 123.415C115.821 123.415 127.401 112.473 128.671 110.86C129.941 109.247 130.868 106.417 130.09 105.099C129.313 103.781 128.086 103.486 127.304 103.776L126.594 104.225" fill="#212121"/>
<path d="M124.759 106.446C124.759 106.446 119.447 111.869 117.723 113.921C116.527 115.312 115.22 116.604 113.817 117.785L110.663 115.713L108.876 119.069C111.991 121.45 114.671 123.415 114.995 123.415C115.821 123.415 127.401 112.473 128.671 110.86C129.941 109.247 130.868 106.417 130.09 105.099C129.313 103.781 128.086 103.486 127.304 103.776L126.594 104.225" stroke="white" stroke-width="0.7" stroke-linecap="round" stroke-linejoin="round"/>
<path d="M124.238 102.607L118.709 101.202L116.951 101.047L116.178 100.782C116.178 100.782 115.777 100.724 115.212 100.661L115.072 111.406L126.116 103.003C125.15 102.762 124.238 102.607 124.238 102.607Z" fill="white" stroke="#212121" stroke-width="0.7" stroke-linecap="round" stroke-linejoin="round"/>
<path d="M122.857 85.4062C121.701 85.3752 120.579 85.7982 119.732 86.5845C118.467 87.8883 118.385 88.7334 117.878 89.197C117.371 89.6606 116.4 89.6171 115.729 91.0513C115.058 92.4856 114.546 95.4795 114.671 96.4502C114.797 97.4208 115.637 97.7154 116.444 97.8409C117.25 97.9665 118.723 98.0534 118.723 98.0534C118.723 98.0534 118.506 101.221 118.298 101.173C118.09 101.125 116.951 101.047 116.951 101.047C116.951 101.047 116.738 105.983 116.7 107.204L116.656 108.431L124.358 102.583L122.857 101.955C122.898 100.983 123.06 100.019 123.339 99.0868C123.572 98.3465 123.867 97.6275 124.223 96.9379C124.223 96.9379 126.638 96.1363 127.937 94.3254C128.985 92.8767 128.951 90.7858 128.381 89.1535C128.055 88.2 127.476 87.3532 126.705 86.7041C125.934 86.0549 125.001 85.628 124.006 85.469C123.626 85.41 123.241 85.389 122.857 85.4062Z" fill="white" stroke="#212121" stroke-width="0.7" stroke-linecap="round" stroke-linejoin="round"/>
<path d="M118.636 90.2109C118.222 90.6713 117.755 91.0814 117.245 91.4327C116.569 91.8528 117.076 92.6544 117.921 92.949C118.767 93.2436 119.018 92.8669 119.018 92.8669" stroke="#212121" stroke-width="0.7" stroke-linecap="round" stroke-linejoin="round"/>
<path d="M119.143 94.3451C119.143 94.3451 117.414 94.0892 116.613 93.3311C116.668 93.5651 116.782 93.7812 116.944 93.9587C117.107 94.1362 117.312 94.2692 117.54 94.3451C118.068 94.4638 118.615 94.4638 119.143 94.3451V94.3451Z" stroke="#212121" stroke-width="0.7" stroke-linecap="round" stroke-linejoin="round"/>
<path d="M121.591 89.1143C121.886 89.2065 122.147 89.3835 122.342 89.623C122.537 89.8626 122.657 90.1542 122.687 90.4615" stroke="#212121" stroke-width="0.7" stroke-linecap="round" stroke-linejoin="round"/>
<path d="M120.157 88.4388C119.948 88.2611 119.686 88.1564 119.411 88.1407C119.137 88.1251 118.865 88.1992 118.636 88.3519" stroke="#212121" stroke-width="0.7" stroke-linecap="round" stroke-linejoin="round"/>
<path d="M120.828 90.7569C120.65 91.0418 120.399 91.206 120.273 91.1288C120.148 91.0515 120.186 90.7473 120.365 90.4624C120.544 90.1775 120.795 90.0133 120.925 90.0954C121.055 90.1775 121.012 90.472 120.828 90.7569Z" fill="#212121"/>
<path d="M118.428 89.579C118.245 89.8639 117.999 90.0281 117.868 89.946C117.738 89.8639 117.781 89.5694 117.965 89.2845C118.148 88.9995 118.395 88.8354 118.52 88.9126C118.646 88.9899 118.607 89.2893 118.428 89.579Z" fill="#212121"/>
<path d="M119.901 91.5146C119.901 91.5146 121.21 91.5581 121.63 92.0652" stroke="#212121" stroke-width="0.7" stroke-linecap="round" stroke-linejoin="round"/>
<path d="M128.361 89.1728C128.035 88.2192 127.456 87.3724 126.685 86.7233C125.914 86.0742 124.981 85.6472 123.986 85.4883C123.613 85.4241 123.235 85.3966 122.856 85.4062C122.425 85.4099 121.995 85.465 121.577 85.5704C121.739 85.815 121.943 86.0292 122.18 86.203C122.567 86.4879 123.658 86.372 124.836 86.879C126.015 87.3861 126.734 89.0714 125.976 90.0806C125.218 91.0899 124.435 89.844 124.044 90.7712C123.87 91.231 123.722 91.7001 123.6 92.1764C123.586 92.3382 123.598 92.5011 123.634 92.6593C123.769 93.1422 124.088 93.3837 123.909 93.6251C123.73 93.8666 123.45 94.108 123.45 94.4412C123.453 94.5286 123.49 94.6115 123.552 94.673C124.266 94.3881 125.773 93.8956 125.966 94.7938C126.217 95.972 125.208 96.566 124.406 96.6916C123.776 96.7357 123.143 96.6502 122.547 96.4404C122.547 96.4404 122.842 97.1262 124.054 97.2614C124.141 97.0827 124.194 96.9861 124.194 96.9861C124.194 96.9861 126.608 96.1845 127.907 94.3736C128.965 92.8863 128.931 90.805 128.361 89.1728Z" fill="#212121" stroke="#212121" stroke-width="0.7" stroke-linecap="round" stroke-linejoin="round"/>
<path d="M123.469 47.5628C123.47 45.8692 123.137 44.1921 122.489 42.6272C121.842 41.0623 120.892 39.6404 119.695 38.4426C118.497 37.2449 117.076 36.2947 115.511 35.6464C113.947 34.9982 112.27 34.6645 110.576 34.6645C109.838 34.6648 109.101 34.7294 108.374 34.8577C108.383 29.9909 106.458 25.3199 103.023 21.8722C99.5882 18.4245 94.9243 16.4826 90.0575 16.4737C85.1907 16.4647 80.5197 18.3894 77.0721 21.8244C73.6244 25.2594 71.6825 29.9233 71.6735 34.7901C71.0829 34.7092 70.4877 34.6672 69.8916 34.6645C66.5283 34.6502 63.2925 35.9508 60.8745 38.2887C58.4566 40.6266 57.0479 43.8167 56.9489 47.1787C56.85 50.5406 58.0687 53.8081 60.345 56.2841C62.6214 58.7601 65.7751 60.2486 69.1334 60.4321H111.368C114.644 60.2305 117.72 58.7868 119.969 56.3955C122.218 54.0042 123.469 50.8453 123.469 47.5628Z" fill="white" stroke="#212121" stroke-width="0.7" stroke-linecap="round" stroke-linejoin="round"/>
<path d="M96.876 47.0794L88.6812 40.2705L80.4863 47.0794H82.2876V68.9741H95.0796V47.0794H96.876Z" fill="#212121"/>
<path d="M90.1108 64.7529C89.9581 64.7551 89.8119 64.8152 89.7016 64.9209C89.5914 65.0266 89.5254 65.1702 89.5168 65.3227L89.4879 66.0954H79.8926L79.3276 79.5442H97.7455L98.1704 69.3501L98.3153 66.0954L98.3732 64.7529H90.1108Z" fill="#B75400" stroke="#212121" stroke-width="0.7" stroke-linecap="round" stroke-linejoin="round"/>
<path d="M97.7453 79.5442L97.668 67.0322H79.9648L80.1049 79.3897L97.7453 79.5442Z" fill="white" stroke="#212121" stroke-width="0.7" stroke-linecap="round" stroke-linejoin="round"/>
<path d="M97.7455 79.5442L96.9439 67.0322H79.2407L79.3808 79.3897L97.7455 79.5442Z" fill="white" stroke="#212121" stroke-width="0.7" stroke-linecap="round" stroke-linejoin="round"/>
<path d="M79.3275 79.5448L76.8647 66.6465H95.3985L97.7454 79.5448H79.3275Z" fill="#B75400" stroke="#212121" stroke-width="0.7" stroke-linecap="round" stroke-linejoin="round"/>
<path d="M81.1284 62.4795V63.339" stroke="#212121" stroke-width="0.7" stroke-linecap="round" stroke-linejoin="round"/>
<path d="M81.1284 57.6982V61.6146" stroke="#212121" stroke-width="0.7" stroke-linecap="round" stroke-linejoin="round"/>
<path d="M96.1855 53.5459V56.8344" stroke="#212121" stroke-width="0.7" stroke-linecap="round" stroke-linejoin="round"/>
<path d="M90.4634 80.1143V83.4028" stroke="#212121" stroke-width="0.7" stroke-linecap="round" stroke-linejoin="round"/>
<path d="M97.6001 85.1221V92.5684" stroke="#212121" stroke-width="0.7" stroke-linecap="round" stroke-linejoin="round"/>
<path d="M97.6001 82.5381V83.9482" stroke="#212121" stroke-width="0.7" stroke-linecap="round" stroke-linejoin="round"/>
<path d="M80.752 82.2246V84.8854" stroke="#212121" stroke-width="0.7" stroke-linecap="round" stroke-linejoin="round"/>
<path d="M82.4761 94.5244V95.1522" stroke="#212121" stroke-width="0.7" stroke-linecap="round" stroke-linejoin="round"/>
<path d="M82.4761 83.8662V93.6643" stroke="#212121" stroke-width="0.7" stroke-linecap="round" stroke-linejoin="round"/>
<path d="M172.16 63.0973C172.163 61.9927 171.924 60.9008 171.46 59.8985C170.995 58.8962 170.317 58.0079 169.472 57.2961C168.627 56.5844 167.637 56.0665 166.57 55.7789C165.504 55.4913 164.387 55.4411 163.299 55.6317C163.244 52.8104 162.087 50.1228 160.074 48.145C158.061 46.1673 155.354 45.0568 152.532 45.0518C149.71 45.0467 146.999 46.1475 144.979 48.118C142.96 50.0885 141.792 52.772 141.728 55.593C141.381 55.5428 141.031 55.5169 140.68 55.5158C138.711 55.5183 136.819 56.287 135.407 57.6592C133.994 59.0314 133.171 60.8994 133.111 62.8678C133.052 64.8363 133.76 66.7507 135.087 68.2058C136.414 69.661 138.255 70.5427 140.221 70.6644V70.6644H165.047C166.973 70.544 168.78 69.6945 170.101 68.2888C171.423 66.883 172.159 65.0266 172.16 63.0973Z" fill="white" stroke="#212121" stroke-width="0.7" stroke-linecap="round" stroke-linejoin="round"/>
<path d="M144.49 22.5816C144.49 21.4482 144.04 20.3612 143.238 19.5597C142.437 18.7582 141.35 18.308 140.216 18.308C139.972 18.3067 139.728 18.3277 139.487 18.3707C139.487 16.7583 138.847 15.2119 137.706 14.0717C136.566 12.9316 135.02 12.291 133.407 12.291C131.795 12.291 130.249 12.9316 129.108 14.0717C127.968 15.2119 127.328 16.7583 127.328 18.3707C127.131 18.3455 126.932 18.3326 126.734 18.3321C125.628 18.3398 124.568 18.776 123.776 19.5491C122.985 20.3222 122.525 21.372 122.492 22.4776C122.459 23.5833 122.855 24.6587 123.599 25.4778C124.342 26.2969 125.374 26.7959 126.478 26.8698V26.8698H140.482C141.571 26.802 142.593 26.32 143.339 25.5226C144.084 24.7253 144.496 23.673 144.49 22.5816V22.5816Z" fill="white" stroke="#212121" stroke-width="0.7" stroke-linecap="round" stroke-linejoin="round"/>
</svg>
