<svg width="194" height="200" viewBox="0 0 194 200" fill="none" xmlns="http://www.w3.org/2000/svg">
<g opacity="0.2">
<path opacity="0.2" d="M39.5312 177.063C39.285 175.742 37.5358 173.284 37.5358 173.284C37.5358 173.284 36.2621 174.927 36.1985 175.042C35.4258 176.366 34.7125 179.381 35.8588 180.659C36.0551 180.866 36.2927 181.029 36.5562 181.138C36.8197 181.247 37.1031 181.299 37.3882 181.292C37.6733 181.284 37.9535 181.217 38.2108 181.094C38.4681 180.971 38.6967 180.795 38.8816 180.578C39.6968 179.682 39.7435 178.188 39.5312 177.063Z" fill="#212121"/>
<path opacity="0.2" d="M22.9567 151.47C22.9567 151.436 20.9911 152.141 20.8722 152.196C19.5009 152.875 17.2423 154.994 17.4758 156.692C17.5245 156.971 17.6313 157.237 17.7894 157.473C17.9475 157.708 18.1532 157.908 18.3934 158.059C18.6335 158.21 18.9027 158.309 19.1834 158.349C19.4642 158.389 19.7502 158.37 20.0231 158.293C21.1991 157.995 22.0609 156.777 22.5067 155.72C23.0629 154.484 22.9567 151.47 22.9567 151.47Z" fill="#212121"/>
<path opacity="0.2" d="M8.86997 150.167C9.67662 151.678 12.7504 152.043 14.2618 151.776C14.3892 151.75 16.3846 151.152 16.3846 151.126V151.092C16.8685 151.156 17.3907 151.215 17.9596 151.271C19.0125 151.36 20.2055 151.457 21.5089 151.47C22.9131 151.501 24.3179 151.45 25.7162 151.317C27.2842 151.176 28.836 150.891 30.3524 150.468H30.4075C29.983 150.744 28.8367 151.555 28.7518 151.627C27.6055 152.642 25.9879 155.283 26.6757 156.854C26.7993 157.11 26.9753 157.338 27.1925 157.522C27.4098 157.707 27.6633 157.843 27.9366 157.923C28.21 158.003 28.4972 158.025 28.7795 157.987C29.0618 157.949 29.3329 157.852 29.5754 157.703C30.6283 157.108 31.1378 155.703 31.2736 154.569C31.4434 153.296 30.6326 150.608 30.5646 150.396C32.099 149.93 33.601 149.362 35.0606 148.698C35.9097 148.316 36.7589 147.904 37.608 147.484C37.2556 147.734 36.9372 147.959 36.8947 147.997C35.7484 149.012 34.1309 151.653 34.8186 153.224C34.9422 153.48 35.1183 153.708 35.3355 153.892C35.5527 154.077 35.8062 154.213 36.0796 154.293C36.3529 154.373 36.6401 154.395 36.9224 154.357C37.2047 154.319 37.4759 154.222 37.7183 154.073C38.7712 153.478 39.2807 152.073 39.4166 150.939C39.5524 149.806 38.9241 147.488 38.7415 146.881L39.7095 146.388C41.2506 145.59 42.7833 144.788 44.3159 144.049C44.8551 143.786 45.3943 143.548 45.9334 143.31C45.615 143.531 45.3518 143.735 45.3136 143.735C44.1673 144.754 42.5498 147.394 43.2375 148.965C43.3611 149.222 43.5371 149.45 43.7544 149.634C43.9716 149.818 44.2251 149.955 44.4985 150.035C44.7718 150.115 45.059 150.137 45.3413 150.099C45.6236 150.061 45.8948 149.964 46.1372 149.814C47.1901 149.216 47.6996 147.815 47.8354 146.677C47.9713 145.539 47.4109 143.45 47.1944 142.733C47.7548 142.504 48.3152 142.27 48.8671 142.075C49.2492 141.952 49.6058 141.803 49.9964 141.697L51.1342 141.366C51.8644 141.179 52.6202 140.984 53.3376 140.822C53.8344 140.708 54.3141 140.606 54.7939 140.5C54.2547 140.754 53.206 141.272 53.1254 141.349C52.0191 142.121 51.1302 143.165 50.5441 144.38C50.4162 144.46 50.2967 144.552 50.1875 144.656C49.9737 144.845 49.8021 145.076 49.6835 145.335C49.565 145.595 49.5023 145.876 49.4995 146.161C49.4967 146.446 49.5539 146.728 49.6673 146.99C49.7807 147.251 49.9478 147.486 50.1577 147.679C51.4569 148.804 54.4542 148.04 55.7661 147.254C55.8425 147.208 56.6152 146.605 57.1162 146.218C56.8614 146.49 56.6152 146.749 56.3605 147.034C55.851 147.59 55.3585 148.159 54.8278 148.77L54.0891 149.742C53.8344 150.048 53.6009 150.4 53.3546 150.727C52.7942 151.504 52.2678 152.315 51.7541 153.147C51.2658 152.701 49.5082 151.148 48.4171 150.787C47.326 150.426 45.8443 150.269 44.8466 150.956C44.6084 151.111 44.4052 151.313 44.2498 151.55C44.0944 151.787 43.9904 152.054 43.9444 152.334C43.8984 152.614 43.9115 152.901 43.9828 153.175C44.0541 153.45 44.182 153.706 44.3584 153.928C45.4707 155.236 48.5529 154.935 49.9709 154.353C50.0601 154.315 51.0281 153.78 51.5545 153.474C51.2488 153.975 50.9432 154.476 50.6502 154.994C49.8011 156.488 49.003 158.025 48.1878 159.558C47.9416 160.029 47.6868 160.492 47.4364 160.959C47.2665 160.798 45.216 158.904 43.9932 158.501C42.9064 158.14 41.4204 157.983 40.4227 158.671C40.1846 158.825 39.9813 159.027 39.8259 159.264C39.6706 159.501 39.5666 159.769 39.5206 160.048C39.4746 160.328 39.4877 160.615 39.559 160.889C39.6302 161.164 39.7582 161.42 39.9345 161.642C41.0468 162.95 44.1291 162.649 45.5471 162.067C45.6532 162.02 47.0458 161.248 47.3897 161.035C46.8377 162.063 46.2731 163.077 45.6914 164.058C44.8974 165.388 44.0167 166.665 43.055 167.879C42.9743 167.803 40.8473 165.816 39.5949 165.4C38.508 165.043 37.0221 164.886 36.0244 165.574C35.7857 165.727 35.5819 165.929 35.4262 166.167C35.2704 166.404 35.1662 166.671 35.1202 166.951C35.0741 167.231 35.0874 167.518 35.159 167.793C35.2307 168.067 35.3592 168.324 35.5361 168.546C36.6485 169.853 39.7307 169.552 41.1445 168.97C41.2379 168.932 42.2993 168.346 42.8002 168.053L42.8639 168.13C41.8616 169.324 40.7564 170.428 39.5609 171.428C38.9071 171.985 38.2533 172.481 37.608 172.953C37.2471 172.528 35.5871 170.685 34.5045 170.184C33.4219 169.683 32.0039 169.391 30.934 169.964C30.6787 170.091 30.4529 170.27 30.2714 170.489C30.0898 170.709 29.9564 170.965 29.88 171.239C29.8035 171.514 29.7856 171.802 29.8275 172.084C29.8694 172.366 29.9701 172.636 30.1231 172.876C31.0826 174.298 34.1818 174.337 35.6423 173.908C35.7187 173.887 36.4914 173.56 37.0773 173.313C36.7843 173.521 36.4829 173.738 36.1942 173.933C35.1201 174.659 34.0714 175.262 33.1714 175.784C32.6492 176.077 32.1694 176.332 31.7194 176.565C31.159 176.349 28.8834 175.491 27.7116 175.551C26.5399 175.61 25.1261 175.997 24.4426 176.999C24.2721 177.229 24.1522 177.493 24.0908 177.773C24.0295 178.053 24.028 178.343 24.0865 178.623C24.1451 178.904 24.2623 179.169 24.4305 179.401C24.5986 179.633 24.814 179.827 25.0624 179.97C26.5738 180.79 29.3377 179.397 30.4457 178.336C30.5434 178.247 31.8807 176.638 31.851 176.638H31.8171C32.2416 176.421 32.7214 176.183 33.2266 175.916C34.1563 175.411 35.2007 174.833 36.2961 174.124C37.4858 173.376 38.6312 172.56 39.7265 171.679C40.9519 170.695 42.0884 169.605 43.1229 168.423C43.1353 168.408 43.1466 168.392 43.1569 168.376C42.9573 168.839 42.4436 170.151 42.4139 170.252C42.0191 171.734 42.1252 174.829 43.5687 175.772C43.813 175.919 44.0855 176.013 44.3685 176.048C44.6516 176.083 44.9388 176.059 45.2118 175.976C45.4847 175.893 45.7372 175.754 45.9529 175.567C46.1686 175.381 46.3428 175.151 46.4641 174.893C47.0118 173.814 46.6637 172.345 46.1627 171.331C45.598 170.167 43.4413 168.384 43.2715 168.24C44.2966 167.009 45.2384 165.712 46.0905 164.355C46.5915 163.57 47.0712 162.759 47.5425 161.944C47.3812 162.347 47.2411 162.712 47.2283 162.763C46.8335 164.245 46.9396 167.34 48.3789 168.282C48.6228 168.43 48.8951 168.525 49.1781 168.561C49.4611 168.597 49.7484 168.573 50.0215 168.49C50.2946 168.408 50.5472 168.269 50.7631 168.082C50.9789 167.896 51.1531 167.666 51.2743 167.408C51.8262 166.325 51.4739 164.861 50.9771 163.846C50.4804 162.831 48.6591 161.239 48.1751 160.832C48.3534 160.517 48.536 160.203 48.71 159.889C49.5591 158.373 50.4082 156.858 51.2573 155.397C51.563 154.879 51.8814 154.383 52.1998 153.886C52.0555 154.247 51.9409 154.548 51.9281 154.599C51.5333 156.081 51.6394 159.176 53.0829 160.118C53.3268 160.266 53.599 160.361 53.8819 160.396C54.1647 160.432 54.4519 160.407 54.7247 160.324C54.9975 160.241 55.2497 160.102 55.465 159.915C55.6803 159.728 55.8538 159.498 55.9741 159.239C56.526 158.161 56.1779 156.692 55.6769 155.682C55.176 154.671 53.5542 153.228 52.964 152.74C53.3037 152.243 53.6433 151.738 54 151.271C54.2462 150.956 54.4627 150.634 54.7302 150.332L55.4986 149.428C56.0038 148.872 56.526 148.29 57.0355 147.76C57.3879 147.386 57.7275 147.038 58.0714 146.685C57.7615 147.195 57.1756 148.205 57.1374 148.295C56.5218 149.7 56.1567 152.778 57.4431 153.916C57.6616 154.099 57.9162 154.234 58.1903 154.312C58.4644 154.39 58.7519 154.41 59.0342 154.37C59.3164 154.33 59.5871 154.231 59.8286 154.079C60.0701 153.928 60.2771 153.728 60.4362 153.491C61.1452 152.506 61.0178 151.02 60.6782 149.925C60.3088 148.719 58.5299 146.702 58.3049 146.448C58.8738 145.87 59.4342 145.31 59.9734 144.792C61.8117 143.005 63.4123 141.582 64.5543 140.602L63.9005 139.638L63.8241 139.702C62.6906 140.725 61.09 142.206 59.2559 144.07C58.6743 144.656 58.0672 145.293 57.4473 145.955C56.7278 145.474 55.9823 145.034 55.2142 144.635C55.5071 143.361 55.1632 140.882 55.1165 140.563C55.9147 140.394 56.6874 140.237 57.4219 140.101C59.9734 139.553 62.0962 139.256 63.5694 139.065L62.8519 138.008C61.3914 138.237 59.4555 138.564 57.235 139.039C56.4284 139.205 55.5666 139.404 54.6877 139.612C54.5646 139.307 53.5245 136.819 52.6032 135.957C51.7541 135.176 50.4804 134.412 49.2874 134.615C49.0044 134.655 48.7328 134.753 48.4903 134.904C48.2477 135.055 48.0396 135.255 47.8795 135.492C47.7194 135.728 47.6108 135.996 47.5607 136.277C47.5107 136.559 47.5204 136.847 47.5892 137.125C48.052 138.776 50.9856 139.795 52.5098 139.854C52.5989 139.854 53.5839 139.786 54.208 139.731L53.1296 139.995C52.3994 140.177 51.6734 140.381 50.8922 140.597L49.7629 140.954C49.3808 141.069 48.9945 141.234 48.6039 141.379C47.7123 141.718 46.825 142.105 45.9377 142.516C45.7764 141.875 45.1692 139.608 44.456 138.695C43.7427 137.783 42.5965 136.844 41.3865 136.87C41.101 136.865 40.8177 136.92 40.5551 137.033C40.2925 137.145 40.0565 137.311 39.8625 137.52C39.6686 137.73 39.5211 137.978 39.4296 138.249C39.3381 138.519 39.3047 138.806 39.3316 139.09C39.5354 140.788 42.2738 142.24 43.781 142.533C43.8744 142.533 44.9782 142.639 45.5853 142.678C45.0546 142.928 44.5197 143.174 43.9932 143.446C42.4648 144.227 40.9449 145.064 39.4208 145.896C38.958 146.151 38.4868 146.397 38.0198 146.647C37.9688 146.418 37.3023 143.709 36.5084 142.699C35.7994 141.799 34.6488 140.848 33.4346 140.869C33.1495 140.866 32.8668 140.922 32.6048 141.034C32.3428 141.147 32.1074 141.313 31.9137 141.523C31.7201 141.732 31.5725 141.98 31.4805 142.249C31.3885 142.519 31.3542 142.805 31.3798 143.089C31.5878 144.788 34.3262 146.244 35.8291 146.537C35.9437 146.558 37.5273 146.681 37.9518 146.694C36.9244 147.242 35.897 147.781 34.8569 148.273C33.4599 148.94 32.022 149.517 30.5519 150.001C30.5264 149.895 29.8471 147.063 29.032 146.027C28.323 145.127 27.1682 144.176 25.9582 144.198C25.6715 144.191 25.3866 144.245 25.1223 144.356C24.858 144.468 24.6202 144.634 24.4245 144.843C24.2288 145.053 24.0797 145.302 23.987 145.573C23.8943 145.844 23.86 146.132 23.8864 146.418C24.0944 148.116 26.8286 149.572 28.3357 149.865C28.4334 149.865 29.6433 149.98 30.2207 150.01V150.107C28.7257 150.552 27.1942 150.863 25.6441 151.037C24.7949 151.143 23.9756 151.198 23.1732 151.232C23.101 150.689 22.7486 148.227 22.1118 147.212C21.4749 146.197 20.49 145.17 19.2673 145.072C18.9844 145.036 18.6972 145.06 18.4244 145.143C18.1515 145.226 17.8991 145.365 17.6836 145.551C17.4681 145.738 17.2943 145.968 17.1737 146.226C17.053 146.485 16.9881 146.766 16.9832 147.051C16.9832 148.77 19.5645 150.511 21.0249 150.965C21.1056 150.99 21.942 151.152 22.5533 151.262C22.1924 151.262 21.8231 151.288 21.4749 151.292C20.2013 151.292 18.9871 151.237 17.9342 151.169C17.3356 151.122 16.7964 151.071 16.2912 151.02C15.943 150.528 14.5165 148.558 13.5103 147.959C12.5041 147.36 11.1074 146.902 9.98229 147.361C9.71615 147.46 9.47387 147.615 9.27103 147.814C9.06819 148.013 8.90929 148.253 8.80453 148.517C8.69976 148.782 8.65146 149.065 8.66273 149.349C8.67401 149.633 8.7446 149.912 8.86997 150.167Z" fill="#212121"/>
</g>
<g opacity="0.2">
<path opacity="0.2" d="M140.439 30.2426C141.237 31.3252 143.878 32.7899 143.882 32.7899C143.886 32.7899 144.306 30.7563 144.306 30.6247C144.425 29.0963 143.754 26.0692 142.184 25.4197C141.917 25.3187 141.632 25.275 141.348 25.2915C141.063 25.3079 140.785 25.3841 140.532 25.5151C140.279 25.646 140.056 25.8288 139.879 26.0516C139.701 26.2744 139.572 26.5321 139.5 26.8079C139.148 27.9585 139.759 29.3213 140.439 30.2426Z" fill="#212121"/>
<path opacity="0.2" d="M166.502 46.0688C166.502 46.0943 167.98 44.6083 168.06 44.5022C169.003 43.2922 170.115 40.4053 169.147 38.983C168.981 38.7514 168.767 38.5576 168.52 38.4141C168.274 38.2706 168 38.1807 167.716 38.1503C167.433 38.1198 167.146 38.1495 166.874 38.2374C166.603 38.3253 166.353 38.4694 166.141 38.6604C165.212 39.4373 164.97 40.9105 165.029 42.0568C165.097 43.3984 166.502 46.0646 166.502 46.0688Z" fill="#212121"/>
<path opacity="0.2" d="M179.756 41.1108C178.368 40.1004 175.443 41.1108 174.199 42.0109C174.093 42.0873 172.556 43.4968 172.581 43.5138H172.615C172.153 43.6709 171.656 43.845 171.121 44.0445C170.132 44.4181 169.019 44.8554 167.839 45.4073C166.561 45.9905 165.317 46.6483 164.116 47.3772C162.762 48.1844 161.484 49.1108 160.295 50.1453L160.257 50.1878C160.516 49.7632 161.199 48.5278 161.242 48.4259C161.832 47.0121 162.137 43.9299 160.817 42.8133C160.595 42.6361 160.339 42.5074 160.065 42.4354C159.79 42.3634 159.504 42.3498 159.224 42.3954C158.944 42.441 158.676 42.5448 158.439 42.7002C158.201 42.8555 157.999 43.0589 157.845 43.2973C157.153 44.2907 157.306 45.7767 157.667 46.8678C158.07 48.0905 159.968 50.1538 160.117 50.3151C158.938 51.3996 157.832 52.5597 156.805 53.788C156.206 54.5012 155.621 55.24 155.047 55.9872C155.26 55.6051 155.446 55.2654 155.472 55.2145C156.062 53.8007 156.372 50.7185 155.069 49.6019C154.846 49.426 154.59 49.2983 154.316 49.2271C154.042 49.1558 153.756 49.1426 153.476 49.1881C153.196 49.2336 152.929 49.337 152.692 49.4916C152.454 49.6462 152.252 49.8486 152.097 50.0859C151.409 51.0793 151.562 52.5653 151.918 53.6564C152.275 54.7475 153.867 56.5476 154.292 57.0146C154.071 57.3033 153.867 57.5877 153.634 57.8637C152.593 59.2562 151.562 60.6445 150.509 61.9776C150.135 62.4489 149.753 62.8989 149.371 63.3489C149.562 63.0093 149.715 62.7248 149.736 62.6781C150.326 61.2644 150.636 58.1821 149.312 57.0655C149.09 56.8884 148.834 56.7596 148.559 56.6877C148.285 56.6157 147.998 56.602 147.718 56.6477C147.438 56.6933 147.171 56.7971 146.933 56.9524C146.696 57.1078 146.494 57.3112 146.34 57.5495C145.648 58.5472 145.801 60.0289 146.161 61.12C146.522 62.2111 147.953 63.8372 148.454 64.3933C148.051 64.8433 147.647 65.2934 147.236 65.7137C146.947 65.9896 146.688 66.2783 146.386 66.5416L145.495 67.3779C144.918 67.8619 144.323 68.3671 143.746 68.8257C143.351 69.1483 142.965 69.4455 142.578 69.7469C142.952 69.2842 143.665 68.3629 143.716 68.278C144.376 67.1019 144.723 65.7759 144.722 64.4273C144.803 64.3004 144.87 64.1652 144.922 64.024C145.033 63.7619 145.088 63.4794 145.083 63.1948C145.078 62.9102 145.014 62.6297 144.894 62.3716C144.774 62.1135 144.601 61.8834 144.386 61.6963C144.172 61.5093 143.92 61.3693 143.648 61.2856C141.988 60.861 139.619 62.8352 138.787 64.1216C138.736 64.198 138.295 65.0811 138.027 65.6415C138.133 65.2891 138.244 64.9452 138.35 64.5801C138.566 63.8584 138.774 63.1282 138.974 62.347C139.063 61.9649 139.152 61.5828 139.246 61.1922C139.339 60.8016 139.398 60.3898 139.479 59.9865C139.645 59.044 139.763 58.0845 139.865 57.1122C140.498 57.299 142.757 57.9359 143.894 57.7873C145.032 57.6387 146.442 57.1335 147.036 56.0891C147.186 55.8466 147.282 55.5754 147.32 55.2931C147.358 55.0108 147.337 54.7237 147.257 54.4503C147.177 54.1769 147.04 53.9234 146.856 53.7062C146.671 53.489 146.444 53.3129 146.187 53.1894C144.616 52.4973 141.975 54.1106 140.956 55.2569C140.893 55.3291 140.252 56.2334 139.912 56.7344C139.967 56.1527 140.027 55.5669 140.065 54.9725C140.171 53.2743 140.226 51.5251 140.29 49.7929C140.311 49.2623 140.337 48.7358 140.358 48.2051C140.583 48.2773 143.253 49.0882 144.527 48.9226C145.665 48.774 147.074 48.2646 147.669 47.2244C147.818 46.9819 147.915 46.7108 147.953 46.4285C147.991 46.1461 147.969 45.859 147.889 45.5856C147.809 45.3123 147.673 45.0588 147.488 44.8415C147.304 44.6243 147.076 44.4482 146.82 44.3247C145.249 43.6327 142.604 45.246 141.585 46.3923C141.508 46.4772 140.591 47.7806 140.371 48.1202C140.426 46.9569 140.485 45.7979 140.596 44.6559C140.734 43.1123 140.972 41.5793 141.309 40.0664C141.415 40.1004 144.196 40.9622 145.503 40.7924C146.637 40.6438 148.051 40.1344 148.641 39.0942C148.791 38.8519 148.888 38.5807 148.927 38.2982C148.965 38.0158 148.944 37.7284 148.864 37.4548C148.783 37.1813 148.647 36.9277 148.462 36.7105C148.277 36.4934 148.049 36.3175 147.792 36.1945C146.221 35.5025 143.576 37.1158 142.557 38.2621C142.489 38.3343 141.789 39.3277 141.47 39.8075L141.381 39.7693C141.76 38.2558 142.274 36.7795 142.918 35.3581C143.262 34.5727 143.635 33.8425 144.013 33.1377C144.514 33.35 146.815 34.301 148.008 34.2755C149.201 34.2501 150.607 33.9062 151.32 32.9255C151.494 32.7001 151.619 32.4407 151.686 32.1641C151.753 31.8875 151.762 31.5998 151.711 31.3196C151.66 31.0395 151.551 30.7731 151.391 30.5378C151.231 30.3025 151.023 30.1035 150.781 29.9536C149.299 29.1045 146.493 30.4036 145.355 31.431C145.291 31.4862 144.726 32.1231 144.319 32.5901C144.493 32.2759 144.671 31.949 144.845 31.6476C145.495 30.5267 146.161 29.5248 146.76 28.6757C147.1 28.1832 147.422 27.7459 147.724 27.3383C148.327 27.2916 150.747 27.0709 151.778 26.4892C152.81 25.9076 153.901 24.9608 154.092 23.7636C154.144 23.483 154.137 23.1946 154.07 22.9172C154.003 22.6398 153.878 22.3796 153.704 22.1537C153.53 21.9277 153.31 21.741 153.058 21.6058C152.807 21.4707 152.53 21.39 152.245 21.3691C150.547 21.2885 148.645 23.7466 148.106 25.1901C148.059 25.3132 147.554 27.3383 147.588 27.3383H147.622C147.325 27.7247 147.006 28.1407 146.667 28.612C146.051 29.4611 145.359 30.4461 144.684 31.5839C143.937 32.7734 143.262 34.0069 142.663 35.2775C141.984 36.6963 141.431 38.1724 141.012 39.6886C141.012 39.6886 141.012 39.7268 141.012 39.7438C140.99 39.2428 140.88 37.8418 140.859 37.7314C140.574 36.2285 139.131 33.4859 137.424 33.2778C137.14 33.251 136.853 33.2843 136.583 33.3755C136.313 33.4667 136.065 33.6137 135.855 33.8071C135.645 34.0006 135.478 34.236 135.365 34.4981C135.252 34.7602 135.196 35.0431 135.2 35.3284C135.174 36.5384 136.125 37.6932 137.021 38.4022C138.036 39.2046 140.753 39.8754 140.969 39.9263C140.581 41.4806 140.297 43.0593 140.12 44.6516C140.014 45.5771 139.933 46.5154 139.865 47.4537C139.831 47.0291 139.797 46.6343 139.789 46.5791C139.5 45.0719 138.057 42.3336 136.354 42.1213C136.07 42.0944 135.784 42.1277 135.513 42.2189C135.243 42.3101 134.995 42.4572 134.785 42.6506C134.575 42.844 134.408 43.0794 134.295 43.3415C134.182 43.6036 134.126 43.8865 134.13 44.1719C134.104 45.3861 135.051 46.5366 135.951 47.2499C136.851 47.9631 139.169 48.5872 139.772 48.7443C139.751 49.1052 139.721 49.4618 139.7 49.8227C139.602 51.5591 139.504 53.287 139.364 54.981C139.313 55.5754 139.241 56.1612 139.169 56.7471C139.139 56.365 139.114 56.0381 139.105 55.9914C138.817 54.4843 137.373 51.7459 135.671 51.5336C135.387 51.5068 135.1 51.54 134.83 51.6312C134.559 51.7224 134.311 51.8695 134.101 52.0629C133.891 52.2563 133.725 52.4917 133.612 52.7538C133.499 53.0159 133.442 53.2989 133.446 53.5842C133.421 54.7942 134.367 55.949 135.263 56.658C136.159 57.367 138.261 57.9316 138.987 58.1269C138.897 58.7213 138.808 59.3242 138.694 59.8973C138.609 60.2879 138.553 60.6742 138.443 61.0606L138.15 62.2111C137.934 62.9329 137.726 63.6801 137.488 64.3806C137.335 64.8688 137.178 65.3316 137.025 65.7986C137.08 65.2042 137.169 64.0409 137.165 63.9433C137.106 62.4107 136.095 59.4812 134.444 59.0185C134.166 58.9483 133.877 58.9376 133.596 58.987C133.314 59.0364 133.046 59.1449 132.809 59.3053C132.572 59.4656 132.371 59.6743 132.221 59.9175C132.07 60.1608 131.973 60.4331 131.935 60.7167C131.727 61.9097 132.487 63.1918 133.268 64.0325C134.117 64.9537 136.609 65.9981 136.919 66.1255C136.656 66.8982 136.397 67.6454 136.138 68.3459C135.263 70.7531 134.44 72.7315 133.841 74.1113L134.847 74.693L134.885 74.6038C135.463 73.1901 136.257 71.1607 137.097 68.6813C137.365 67.9001 137.636 67.0595 137.908 66.1934C138.765 66.3194 139.628 66.3931 140.494 66.4142C140.778 67.6879 142.171 69.7682 142.349 70.0399C141.708 70.5366 141.075 71.0163 140.477 71.4579C138.418 72.9863 136.656 74.1793 135.382 75.0029L136.49 75.6397C137.7 74.7906 139.288 73.6698 141.097 72.2688C141.75 71.7678 142.438 71.2159 143.143 70.6427C143.389 70.8635 145.406 72.6466 146.612 73.0245C147.707 73.3641 149.193 73.4957 150.178 72.7867C150.414 72.6277 150.615 72.4207 150.766 72.1791C150.918 71.9376 151.016 71.667 151.057 71.3847C151.097 71.1025 151.077 70.815 150.999 70.5409C150.92 70.2668 150.785 70.0122 150.602 69.7936C149.465 68.52 146.391 68.8639 144.981 69.4795C144.901 69.5134 144.043 70.0059 143.508 70.3286C143.797 70.0908 144.077 69.8658 144.357 69.6196C144.939 69.1356 145.499 68.6346 146.111 68.0997L146.96 67.2888C147.253 67.0213 147.529 66.7029 147.809 66.41C148.463 65.7179 149.082 64.9835 149.715 64.2277C150.14 64.733 151.672 66.5076 152.708 67.0128C153.744 67.518 155.187 67.8619 156.266 67.3185C156.525 67.199 156.756 67.0261 156.944 66.8111C157.132 66.5961 157.272 66.3438 157.355 66.0708C157.439 65.7978 157.463 65.5102 157.428 65.227C157.392 64.9437 157.297 64.6712 157.149 64.4273C156.223 62.9838 153.128 62.8692 151.63 63.264C151.536 63.2852 150.505 63.6886 149.932 63.9221C150.301 63.4636 150.674 63.0093 151.031 62.5338C152.067 61.1667 153.069 59.7487 154.079 58.3392L155.013 57.0655C155.162 57.2481 156.937 59.3963 158.096 59.961C159.123 60.4662 160.575 60.8101 161.658 60.2709C161.916 60.1504 162.146 59.977 162.333 59.7618C162.52 59.5466 162.66 59.2946 162.743 59.0219C162.826 58.7493 162.851 58.4622 162.816 58.1793C162.782 57.8964 162.688 57.624 162.541 57.3797C161.611 55.932 158.516 55.8216 157.022 56.2122C156.911 56.2419 155.425 56.8235 155.056 56.9891C155.744 56.0466 156.436 55.1126 157.157 54.221C158.122 53.0088 159.166 51.8614 160.282 50.7864C160.35 50.8713 162.193 53.1257 163.381 53.7031C164.409 54.204 165.861 54.5522 166.943 54.013C167.202 53.8922 167.432 53.7183 167.619 53.5026C167.806 53.287 167.946 53.0343 168.028 52.7612C168.111 52.4881 168.136 52.2006 168.1 51.9174C168.065 51.6343 167.97 51.3617 167.822 51.1175C166.897 49.6741 163.802 49.5594 162.303 49.9543C162.205 49.9798 161.076 50.4213 160.541 50.6421L160.49 50.5614C161.639 49.5087 162.881 48.5623 164.201 47.7339C164.922 47.2669 165.636 46.8593 166.324 46.4814C166.625 46.9357 168.022 48.999 169.032 49.6401C170.043 50.2812 171.401 50.7609 172.535 50.3364C172.805 50.2447 173.053 50.0973 173.263 49.9036C173.472 49.71 173.639 49.4745 173.752 49.2123C173.865 48.9502 173.921 48.6672 173.918 48.3818C173.915 48.0964 173.851 47.8149 173.732 47.5556C172.968 46.0187 169.911 45.5686 168.387 45.7937C168.306 45.7937 167.483 46.0272 166.884 46.1927C167.202 46.0272 167.529 45.8489 167.843 45.696C169.007 45.1186 170.106 44.6643 171.083 44.2653C171.643 44.0445 172.148 43.8407 172.628 43.6836C173.155 43.9766 175.294 45.1271 176.449 45.229C177.604 45.3309 179.069 45.1314 179.879 44.2313C180.101 44.0316 180.275 43.7857 180.391 43.5111C180.506 43.2366 180.56 42.9399 180.548 42.6423C180.536 42.3446 180.459 42.0531 180.323 41.7885C180.186 41.5239 179.992 41.2925 179.756 41.1108Z" fill="#212121"/>
</g>
<g opacity="0.2">
<path opacity="0.2" d="M156.801 149.194C155.841 149.143 153.829 149.945 153.829 149.945C153.829 149.945 154.759 151.104 154.827 151.172C155.621 151.932 157.595 152.943 158.682 152.361C158.86 152.259 159.014 152.121 159.135 151.956C159.256 151.791 159.341 151.601 159.384 151.401C159.426 151.201 159.427 150.994 159.384 150.793C159.341 150.593 159.257 150.404 159.136 150.238C158.652 149.521 157.62 149.236 156.801 149.194Z" fill="#212121"/>
<path opacity="0.2" d="M136.176 156.413C136.155 156.413 136.312 157.895 136.333 157.984C136.571 159.058 137.666 160.99 138.88 161.1C139.084 161.113 139.288 161.083 139.479 161.011C139.671 160.94 139.845 160.829 139.99 160.686C140.136 160.543 140.25 160.372 140.325 160.182C140.4 159.992 140.434 159.788 140.426 159.584C140.426 158.735 139.712 157.912 139.054 157.424C138.294 156.846 136.176 156.413 136.176 156.413Z" fill="#212121"/>
<path opacity="0.2" d="M132.886 166.002C134.075 165.697 134.848 163.616 134.916 162.517C134.916 162.423 134.844 160.929 134.822 160.937H134.797C134.92 160.611 135.052 160.258 135.183 159.872C135.425 159.154 135.693 158.339 135.926 157.435C136.184 156.457 136.385 155.464 136.529 154.463C136.698 153.348 136.766 152.22 136.733 151.092C136.733 151.092 136.733 151.067 136.733 151.054C136.856 151.394 137.221 152.328 137.259 152.4C137.773 153.372 139.34 154.947 140.55 154.731C140.75 154.69 140.94 154.607 141.106 154.488C141.272 154.369 141.412 154.216 141.515 154.039C141.618 153.862 141.682 153.665 141.704 153.462C141.726 153.259 141.704 153.053 141.641 152.858C141.407 152.009 140.511 151.432 139.747 151.135C138.898 150.799 136.882 150.914 136.724 150.922C136.658 149.782 136.516 148.647 136.3 147.526C136.177 146.868 136.037 146.21 135.875 145.547C135.99 145.84 136.096 146.099 136.113 146.133C136.627 147.106 138.193 148.681 139.403 148.464C139.604 148.423 139.793 148.34 139.959 148.22C140.125 148.101 140.264 147.948 140.366 147.771C140.469 147.595 140.534 147.398 140.556 147.195C140.578 146.992 140.557 146.786 140.494 146.592C140.261 145.743 139.369 145.165 138.601 144.868C137.833 144.571 136.117 144.626 135.663 144.652L135.485 143.892C135.188 142.686 134.89 141.48 134.636 140.291C134.546 139.867 134.47 139.442 134.394 139.039C134.496 139.294 134.585 139.51 134.602 139.544C135.115 140.516 136.678 142.092 137.892 141.875C138.092 141.834 138.281 141.751 138.447 141.631C138.613 141.512 138.752 141.359 138.855 141.182C138.958 141.006 139.023 140.809 139.045 140.606C139.067 140.403 139.046 140.197 138.983 140.003C138.745 139.154 137.854 138.576 137.09 138.279C136.325 137.982 134.771 138.033 134.232 138.058C134.169 137.634 134.101 137.209 134.058 136.785C134.058 136.5 133.995 136.224 133.986 135.936L133.948 135.086C133.948 134.547 133.948 133.987 133.948 133.46C133.948 133.091 133.948 132.743 133.969 132.391C134.054 132.815 134.237 133.626 134.262 133.694C134.614 134.593 135.19 135.388 135.935 136.003C135.97 136.105 136.014 136.203 136.066 136.296C136.162 136.477 136.294 136.636 136.454 136.763C136.615 136.889 136.801 136.981 136.999 137.031C137.197 137.081 137.404 137.088 137.605 137.053C137.806 137.018 137.998 136.941 138.168 136.827C139.17 136.114 139.144 133.898 138.813 132.849C138.813 132.785 138.508 132.14 138.317 131.737L138.741 132.399C139.042 132.849 139.357 133.286 139.692 133.762L140.214 134.458C140.38 134.687 140.588 134.908 140.775 135.137C141.22 135.655 141.696 136.161 142.188 136.657C141.798 136.925 140.418 137.884 139.981 138.585C139.543 139.285 139.187 140.283 139.497 141.098C139.563 141.292 139.669 141.469 139.808 141.619C139.947 141.769 140.117 141.888 140.305 141.968C140.493 142.048 140.696 142.088 140.901 142.084C141.105 142.081 141.307 142.034 141.492 141.947C142.592 141.395 142.902 139.196 142.732 138.126C142.732 138.058 142.511 137.277 142.388 136.878C142.685 137.175 142.982 137.472 143.292 137.761C144.192 138.61 145.126 139.425 146.056 140.249L146.905 141.009C146.765 141.102 145.101 142.206 144.608 142.992C144.184 143.688 143.814 144.69 144.124 145.505C144.19 145.699 144.297 145.876 144.436 146.026C144.575 146.176 144.744 146.295 144.933 146.375C145.121 146.455 145.324 146.495 145.528 146.491C145.733 146.487 145.934 146.441 146.12 146.354C147.219 145.802 147.529 143.603 147.364 142.533C147.364 142.452 147.045 141.353 146.939 141.077C147.559 141.633 148.175 142.198 148.756 142.775C149.547 143.554 150.285 144.384 150.968 145.259C150.905 145.301 149.16 146.447 148.659 147.25C148.234 147.946 147.865 148.948 148.175 149.763C148.241 149.957 148.347 150.134 148.486 150.284C148.625 150.434 148.794 150.553 148.983 150.633C149.171 150.713 149.374 150.753 149.579 150.749C149.783 150.746 149.985 150.699 150.17 150.612C151.27 150.06 151.58 147.861 151.41 146.791C151.41 146.719 151.172 145.879 151.053 145.484L151.113 145.45C151.777 146.348 152.359 147.305 152.853 148.307C153.133 148.859 153.367 149.398 153.583 149.929C153.24 150.107 151.664 150.948 151.134 151.627C150.603 152.306 150.191 153.138 150.404 153.988C150.449 154.187 150.535 154.375 150.658 154.539C150.78 154.703 150.936 154.839 151.114 154.939C151.293 155.039 151.491 155.1 151.694 155.118C151.898 155.136 152.104 155.111 152.297 155.045C153.452 154.62 153.995 152.468 153.953 151.368C153.953 151.309 153.855 150.706 153.779 150.264C153.872 150.506 153.974 150.752 154.063 150.986C154.386 151.856 154.628 152.684 154.84 153.402C154.955 153.826 155.052 154.196 155.137 154.548C154.891 154.9 153.91 156.344 153.753 157.167C153.596 157.991 153.626 159.044 154.208 159.689C154.339 159.845 154.502 159.972 154.686 160.061C154.87 160.15 155.071 160.2 155.275 160.206C155.479 160.212 155.682 160.176 155.872 160.098C156.061 160.021 156.231 159.905 156.373 159.757C157.201 158.844 156.695 156.683 156.148 155.732C156.101 155.648 155.209 154.459 155.197 154.459V154.48C155.12 154.136 155.035 153.771 154.934 153.376C154.738 152.642 154.509 151.814 154.208 150.931C153.885 149.977 153.508 149.043 153.078 148.133C152.601 147.11 152.033 146.132 151.38 145.212L151.355 145.178C151.643 145.395 152.467 145.976 152.539 146.027C153.503 146.554 155.676 147.004 156.568 146.159C156.712 146.013 156.823 145.84 156.896 145.648C156.968 145.457 156.999 145.253 156.988 145.049C156.976 144.845 156.922 144.645 156.828 144.464C156.735 144.282 156.604 144.122 156.445 143.994C155.787 143.429 154.717 143.425 153.898 143.599C152.993 143.794 151.384 144.996 151.257 145.093C150.574 144.171 149.829 143.296 149.028 142.474C148.565 141.99 148.081 141.518 147.593 141.051C147.848 141.234 148.077 141.391 148.111 141.408C149.075 141.934 151.248 142.385 152.14 141.54C152.285 141.395 152.397 141.221 152.47 141.03C152.543 140.839 152.575 140.635 152.564 140.431C152.553 140.226 152.499 140.027 152.405 139.845C152.311 139.663 152.181 139.502 152.021 139.374C151.363 138.81 150.293 138.806 149.474 138.98C148.654 139.154 147.266 140.151 146.901 140.419L146.332 139.888C145.424 139.039 144.506 138.19 143.636 137.341C143.33 137.039 143.038 136.734 142.745 136.428C142.97 136.589 143.169 136.721 143.195 136.738C144.158 137.264 146.332 137.714 147.224 136.865C147.368 136.721 147.481 136.547 147.554 136.356C147.627 136.165 147.659 135.96 147.648 135.756C147.636 135.552 147.582 135.352 147.489 135.17C147.395 134.988 147.264 134.828 147.105 134.7C146.442 134.135 145.373 134.135 144.557 134.31C143.742 134.484 142.49 135.384 142.053 135.702C141.764 135.379 141.471 135.057 141.203 134.73C141.029 134.505 140.843 134.305 140.677 134.063L140.214 133.384C139.913 132.938 139.594 132.475 139.31 132.034C139.11 131.724 138.928 131.427 138.741 131.13C139.042 131.431 139.645 132.008 139.705 132.051C140.575 132.717 142.655 133.49 143.666 132.79C143.831 132.669 143.968 132.514 144.07 132.336C144.171 132.159 144.233 131.961 144.253 131.758C144.273 131.554 144.249 131.349 144.184 131.155C144.118 130.961 144.013 130.783 143.874 130.633C143.309 129.971 142.252 129.809 141.433 129.86C140.533 129.915 138.822 130.811 138.609 130.926C138.304 130.429 138.007 129.945 137.739 129.482C136.805 127.903 136.083 126.544 135.595 125.585L134.814 125.878C134.824 125.9 134.835 125.921 134.848 125.942C135.366 126.905 136.122 128.268 137.115 129.86C137.425 130.365 137.765 130.896 138.121 131.44C137.663 131.855 137.228 132.296 136.818 132.76C135.99 132.335 134.198 132.161 133.969 132.136C133.969 131.554 134.007 130.99 134.033 130.438C134.13 128.599 134.279 127.075 134.398 126.001L133.549 126.324C133.46 127.377 133.362 128.769 133.315 130.408C133.294 130.998 133.286 131.631 133.286 132.28C133.052 132.318 131.142 132.62 130.386 133.129C129.698 133.579 128.951 134.343 128.891 135.21C128.871 135.413 128.894 135.619 128.958 135.813C129.023 136.007 129.127 136.186 129.265 136.337C129.402 136.488 129.57 136.609 129.758 136.691C129.945 136.773 130.147 136.815 130.352 136.814C131.579 136.772 132.785 134.908 133.086 133.843C133.086 133.779 133.218 133.083 133.286 132.641C133.286 132.904 133.286 133.163 133.286 133.435C133.286 133.978 133.311 134.518 133.328 135.095C133.349 135.375 133.366 135.66 133.387 135.944C133.409 136.229 133.451 136.526 133.481 136.819C133.566 137.498 133.685 138.181 133.82 138.869C133.345 138.869 131.664 138.912 130.917 139.256C130.169 139.599 129.312 140.241 129.125 141.085C129.073 141.283 129.064 141.49 129.097 141.692C129.131 141.894 129.207 142.086 129.32 142.257C129.433 142.428 129.58 142.573 129.753 142.682C129.926 142.792 130.12 142.864 130.322 142.894C131.545 143.038 133.018 141.374 133.472 140.376C133.502 140.313 133.753 139.561 133.897 139.145C133.982 139.57 134.062 139.969 134.16 140.381C134.449 141.578 134.776 142.779 135.094 143.981C135.192 144.346 135.285 144.715 135.383 145.08C135.213 145.08 133.213 145.08 132.377 145.467C131.63 145.811 130.772 146.452 130.585 147.301C130.534 147.499 130.526 147.705 130.559 147.906C130.593 148.108 130.669 148.3 130.782 148.47C130.895 148.64 131.042 148.784 131.215 148.894C131.387 149.003 131.581 149.075 131.783 149.105C133.005 149.25 134.474 147.59 134.933 146.588C134.967 146.515 135.323 145.429 135.4 145.148C135.608 145.959 135.824 146.766 135.977 147.573C136.206 148.658 136.365 149.757 136.453 150.863C136.372 150.863 134.288 150.863 133.426 151.249C132.678 151.593 131.825 152.234 131.634 153.079C131.583 153.277 131.574 153.484 131.608 153.686C131.643 153.888 131.719 154.08 131.832 154.251C131.945 154.421 132.093 154.566 132.266 154.676C132.439 154.786 132.633 154.858 132.836 154.888C134.054 155.032 135.527 153.368 135.986 152.37C136.015 152.306 136.287 151.478 136.41 151.096H136.478C136.537 152.212 136.495 153.33 136.355 154.438C136.283 155.049 136.181 155.631 136.071 156.191C135.684 156.149 133.905 155.983 133.099 156.25C132.292 156.518 131.401 157.053 131.116 157.872C131.043 158.063 131.012 158.268 131.023 158.472C131.034 158.676 131.089 158.876 131.183 159.058C131.276 159.24 131.407 159.4 131.567 159.527C131.727 159.655 131.912 159.748 132.11 159.8C133.307 160.08 134.95 158.59 135.506 157.647C135.54 157.596 135.795 157.04 135.973 156.633C135.918 156.883 135.867 157.146 135.812 157.388C135.599 158.293 135.353 159.112 135.128 159.834C134.997 160.258 134.869 160.611 134.746 160.954C134.343 161.112 132.729 161.774 132.144 162.372C131.558 162.971 131.001 163.867 131.133 164.729C131.155 164.932 131.219 165.128 131.321 165.305C131.423 165.482 131.562 165.635 131.727 165.755C131.892 165.875 132.081 165.959 132.28 166.002C132.48 166.044 132.687 166.045 132.886 166.002Z" fill="#212121"/>
</g>
<g opacity="0.2">
<path opacity="0.2" d="M52.8583 57.0105C53.7456 56.6369 55.2018 55.0406 55.2018 55.0406C55.2018 55.0406 53.8602 54.3995 53.7711 54.3698C52.7267 54.0301 50.5063 53.9834 49.7845 54.9769C49.6661 55.1461 49.585 55.3387 49.5467 55.5416C49.5084 55.7446 49.5138 55.9534 49.5623 56.1542C49.6109 56.355 49.7017 56.5431 49.8285 56.7061C49.9554 56.8691 50.1155 57.0033 50.2982 57.0997C51.0582 57.52 52.0983 57.3289 52.8583 57.0105Z" fill="#212121"/>
<path opacity="0.2" d="M68.286 41.535C68.286 41.535 67.5176 40.2613 67.4369 40.1849C66.7534 39.3358 64.9278 38.0621 63.7773 38.4867C63.5875 38.5635 63.416 38.6796 63.274 38.8273C63.1321 38.9749 63.0229 39.1508 62.9536 39.3436C62.8843 39.5363 62.8564 39.7415 62.8718 39.9457C62.8872 40.1499 62.9454 40.3486 63.0428 40.5288C63.4291 41.3057 64.4141 41.726 65.2208 41.8789C66.1887 42.0614 68.2818 41.535 68.286 41.535Z" fill="#212121"/>
<path opacity="0.2" d="M67.0721 31.4648C66.1339 32.2587 66.3419 34.4706 66.7622 35.4853C66.7962 35.5745 67.5179 36.8821 67.5349 36.8651C67.5646 37.2132 67.6028 37.5869 67.6495 37.9944C67.7429 38.7459 67.8576 39.595 68.0444 40.512C68.2361 41.5004 68.4842 42.4771 68.7873 43.4372C69.1172 44.5135 69.5435 45.5579 70.061 46.5577V46.5959C69.8062 46.3411 69.0675 45.6576 69.0038 45.6109C68.1165 44.9613 66.032 44.2226 65.0258 44.9444C64.8634 45.0686 64.7289 45.2256 64.6312 45.4053C64.5335 45.5849 64.4747 45.7831 64.4587 45.987C64.4427 46.1908 64.4698 46.3958 64.5382 46.5885C64.6067 46.7811 64.7149 46.9573 64.856 47.1053C65.4334 47.7549 66.4947 47.8992 67.3141 47.8356C68.2354 47.7591 69.9888 46.7869 70.1289 46.7063C70.6843 47.7113 71.3055 48.6786 71.9885 49.6017C72.3833 50.1409 72.7994 50.6716 73.2239 51.198C72.9946 50.9857 72.7994 50.7989 72.7569 50.7735C71.8696 50.1239 69.785 49.3852 68.7788 50.1069C68.6164 50.2312 68.482 50.3882 68.3843 50.5678C68.2866 50.7475 68.2278 50.9457 68.2118 51.1495C68.1957 51.3534 68.2228 51.5583 68.2913 51.751C68.3597 51.9437 68.468 52.1198 68.609 52.2679C69.1864 52.9175 70.2478 53.0618 71.0672 52.9939C71.8866 52.926 73.4107 52.1448 73.8055 51.9113L74.298 52.5141C75.0877 53.4736 75.8816 54.4289 76.6331 55.3884C76.8963 55.728 77.1468 56.0676 77.393 56.4115C77.1892 56.2205 77.0194 56.0676 76.9897 56.0464C76.1024 55.3926 74.0178 54.6581 73.0116 55.3799C72.8495 55.5044 72.7154 55.6617 72.6181 55.8415C72.5208 56.0213 72.4624 56.2196 72.4468 56.4234C72.4312 56.6273 72.4587 56.8321 72.5274 57.0246C72.5962 57.2172 72.7048 57.3931 72.8461 57.5408C73.4192 58.1904 74.4806 58.3348 75.3 58.2668C76.1194 58.1989 77.4949 57.4772 77.9704 57.2224C78.2124 57.5791 78.4586 57.9399 78.6794 58.2966C78.8238 58.5428 78.9808 58.772 79.104 59.031L79.5285 59.7782C79.7705 60.2622 80.021 60.759 80.2418 61.2387C80.3989 61.5699 80.5432 61.8883 80.6663 62.2109C80.4073 61.8713 79.8851 61.2175 79.8172 61.1665C79.1091 60.5083 78.2436 60.0434 77.3039 59.8165C77.2288 59.7392 77.1463 59.6695 77.0576 59.6084C76.894 59.4864 76.7065 59.4002 76.5073 59.3553C76.3082 59.3105 76.1019 59.308 75.9017 59.348C75.7015 59.388 75.512 59.4697 75.3455 59.5877C75.1789 59.7057 75.039 59.8574 74.9349 60.033C74.3447 61.1156 75.3339 63.1025 76.0854 63.9007C76.1321 63.9474 76.6713 64.4016 77.0194 64.6861L76.3316 64.2615C75.8646 63.9898 75.3934 63.7308 74.8839 63.4506L74.124 63.0685C73.8735 62.9327 73.5933 62.8265 73.3258 62.6992C72.6975 62.4275 72.0521 62.1812 71.3898 61.9477C71.6276 61.5232 72.4512 60.0712 72.5404 59.2518C72.6295 58.4324 72.5149 57.371 71.8823 56.7767C71.7382 56.6315 71.5651 56.5184 71.3743 56.4447C71.1835 56.3709 70.9793 56.3382 70.7751 56.3486C70.5708 56.359 70.371 56.4124 70.1887 56.5051C70.0064 56.5979 69.8457 56.728 69.7171 56.887C68.9656 57.8635 69.6449 59.9778 70.269 60.8778C70.3072 60.9373 70.8294 61.5359 71.1181 61.8586C70.719 61.7184 70.3242 61.5783 69.9166 61.4552C68.7449 61.0901 67.5434 60.7547 66.3504 60.4193C65.981 60.3174 65.6202 60.207 65.255 60.1009C65.34 59.9566 66.3589 58.2371 66.4565 57.3201C66.5457 56.5049 66.4311 55.4393 65.7985 54.8449C65.6543 54.7002 65.4813 54.5873 65.2908 54.5136C65.1002 54.4399 64.8963 54.4069 64.6923 54.4169C64.4882 54.4269 64.2885 54.4797 64.1061 54.5717C63.9237 54.6637 63.7626 54.7929 63.6332 54.9511C62.886 55.9275 63.5611 58.0418 64.1852 58.9461C64.2361 59.014 64.9876 59.8759 65.1871 60.0839C64.3847 59.8504 63.5865 59.6084 62.8096 59.341C61.7587 58.983 60.7319 58.5576 59.7359 58.0673C59.7783 57.9994 60.8482 56.212 60.9501 55.2695C61.0392 54.4543 60.9246 53.3887 60.292 52.7943C60.1479 52.6492 59.9748 52.5361 59.784 52.4624C59.5932 52.3886 59.389 52.3559 59.1848 52.3663C58.9805 52.3767 58.7807 52.43 58.5984 52.5228C58.4161 52.6156 58.2554 52.7457 58.1268 52.9047C57.3753 53.8812 58.0546 55.9955 58.6787 56.8955C58.7212 56.955 59.2943 57.613 59.5703 57.9187L59.5278 57.9739C58.5399 57.4534 57.6007 56.8453 56.7215 56.1568C56.229 55.7832 55.7833 55.4011 55.3587 55.019C55.5922 54.7048 56.6324 53.2656 56.8277 52.4292C57.023 51.5929 57.006 50.5569 56.4413 49.8819C56.3142 49.7221 56.155 49.5909 55.9739 49.4966C55.7928 49.4024 55.5939 49.3472 55.3901 49.3348C55.1864 49.3224 54.9823 49.353 54.7911 49.4246C54.5999 49.4962 54.4259 49.6071 54.2803 49.7503C53.4312 50.6419 53.8558 52.8156 54.3907 53.7836C54.4205 53.8345 54.7686 54.3397 55.0276 54.7006C54.8365 54.5265 54.637 54.3482 54.4587 54.1741C53.7879 53.5331 53.2105 52.9005 52.7053 52.3358C52.4208 52.0132 52.1703 51.716 51.9368 51.4358C52.0047 51.0112 52.2637 49.2875 52.0472 48.4639C51.8307 47.6403 51.3424 46.719 50.54 46.3921C50.3534 46.3081 50.1512 46.2645 49.9466 46.2639C49.742 46.2633 49.5395 46.3059 49.3525 46.3888C49.1654 46.4717 48.9979 46.5931 48.8609 46.7451C48.7239 46.8971 48.6205 47.0763 48.5574 47.2709C48.2135 48.4554 49.606 50.1791 50.5146 50.7989C50.5952 50.8499 51.9156 51.5462 51.9198 51.5249V51.4995C52.1406 51.7712 52.3741 52.0641 52.6416 52.3783C53.1341 52.9514 53.6987 53.5968 54.3398 54.2591C55.0427 54.9782 55.787 55.6558 56.5687 56.2884C57.4431 57.0015 58.3794 57.6352 59.3665 58.1819H59.4005C59.0481 58.1097 58.0504 57.9484 57.974 57.9442C56.8786 57.889 54.7261 58.4324 54.2888 59.5829C54.2224 59.7762 54.1973 59.9812 54.2152 60.1848C54.2332 60.3884 54.2938 60.5858 54.3931 60.7644C54.4924 60.943 54.6282 61.0987 54.7917 61.2214C54.9551 61.3441 55.1425 61.431 55.3417 61.4765C56.1908 61.7015 57.1461 61.2345 57.7914 60.7292C58.5216 60.1603 59.4472 58.3815 59.5193 58.2371C60.5357 58.7697 61.5868 59.2335 62.6653 59.6254C63.2936 59.8589 63.9389 60.0712 64.5758 60.2792L63.9559 60.1816C62.8563 60.1306 60.7038 60.6698 60.2708 61.8203C60.2036 62.0135 60.1778 62.2187 60.1951 62.4225C60.2125 62.6264 60.2726 62.8242 60.3715 63.0033C60.4705 63.1823 60.606 63.3385 60.7693 63.4617C60.9327 63.5848 61.1201 63.6722 61.3194 63.7181C62.1685 63.9389 63.1238 63.4761 63.7734 62.9709C64.4229 62.4657 65.2466 60.9543 65.4716 60.5552C65.7178 60.6316 65.964 60.7123 66.2145 60.7844C67.4033 61.1495 68.592 61.5062 69.7468 61.8925C70.1714 62.0284 70.5492 62.177 70.9483 62.3171C70.6723 62.2746 70.4431 62.2364 70.4049 62.2364C69.3095 62.1812 67.157 62.7246 66.724 63.8752C66.6568 64.0681 66.631 64.273 66.6484 64.4766C66.6658 64.6801 66.7259 64.8777 66.8249 65.0564C66.9239 65.2351 67.0595 65.391 67.2228 65.5137C67.3861 65.6364 67.5735 65.7233 67.7726 65.7687C68.6217 65.9937 69.577 65.5309 70.2223 65.0215C70.8676 64.512 71.6191 63.1534 71.8738 62.6779C72.2729 62.8435 72.6762 63.0048 73.0583 63.1832C73.3173 63.3063 73.5763 63.4124 73.8268 63.5525L74.5782 63.9516C75.0452 64.2233 75.5292 64.5035 75.9793 64.7795L76.8836 65.3441C76.459 65.204 75.6863 64.9451 75.6099 64.9196C74.5315 64.6988 72.3239 64.9196 71.7167 65.981C71.6221 66.1622 71.5665 66.3614 71.5537 66.5655C71.5408 66.7696 71.571 66.9742 71.6423 67.1659C71.7135 67.3576 71.8242 67.5322 71.9672 67.6784C72.1102 67.8246 72.2824 67.9391 72.4724 68.0146C73.2664 68.3627 74.2895 68.0485 75.0198 67.6452C75.8052 67.2207 76.9515 65.6541 77.0958 65.4588C77.5883 65.7687 78.0638 66.0786 78.5096 66.3758C80.038 67.3947 81.2734 68.299 82.1353 68.9528L82.7127 68.35L82.6532 68.3075C81.7659 67.6664 80.488 66.7706 78.9044 65.7602C78.4077 65.4418 77.8685 65.1106 77.3081 64.7752C77.5402 64.2004 77.7373 63.612 77.8982 63.0133C78.828 63.0133 80.5177 62.4105 80.7385 62.3298C80.9762 62.8647 81.2013 63.3827 81.4093 63.8752C82.1225 65.5734 82.6532 67.0084 83.0141 68.0273L83.6467 67.365C83.2688 66.3758 82.7466 65.0809 82.0801 63.5865C81.8381 63.0473 81.5706 62.4742 81.2904 61.8883C81.4857 61.7567 83.0693 60.6528 83.5363 59.8759C83.9608 59.1711 84.3005 58.1564 83.9608 57.354C83.8911 57.1621 83.7817 56.987 83.6399 56.84C83.498 56.6931 83.3268 56.5776 83.1375 56.5011C82.9481 56.4247 82.7447 56.3889 82.5406 56.3961C82.3365 56.4034 82.1362 56.4535 81.9527 56.5431C80.8616 57.1163 80.5899 59.3197 80.7809 60.4023C80.7809 60.466 80.989 61.1453 81.1206 61.5699C81.006 61.3321 80.8956 61.0986 80.7725 60.8566C80.5347 60.3684 80.2842 59.8929 80.0125 59.3792L79.588 58.6404C79.4521 58.39 79.278 58.1437 79.1252 57.8932C78.7516 57.3201 78.344 56.7554 77.9237 56.195C78.3483 55.987 79.8469 55.2185 80.3691 54.5817C80.8913 53.9449 81.3881 53.0024 81.1885 52.1575C81.1485 51.9567 81.0667 51.7666 80.9482 51.5995C80.8298 51.4325 80.6774 51.2923 80.5012 51.1882C80.3249 51.084 80.1286 51.0182 79.9252 50.995C79.7217 50.9718 79.5157 50.9918 79.3205 51.0537C78.1572 51.4528 77.5586 53.601 77.5798 54.6879C77.5798 54.7558 77.686 55.537 77.7539 55.9615C77.4992 55.6261 77.2444 55.2907 76.9727 54.9638C76.1958 54.0086 75.3806 53.0703 74.5697 52.132C74.3193 51.8433 74.0773 51.5504 73.831 51.2617C73.9796 51.1895 75.7797 50.315 76.3783 49.606C76.9005 48.9734 77.393 48.0224 77.1935 47.1775C77.1529 46.977 77.0706 46.7873 76.952 46.6206C76.8334 46.454 76.6811 46.3141 76.505 46.21C76.3289 46.1059 76.1329 46.04 75.9297 46.0165C75.7265 45.993 75.5206 46.0125 75.3254 46.0737C74.1622 46.477 73.5635 48.621 73.5848 49.7121C73.5848 49.7928 73.7419 50.9263 73.7928 51.2108C73.2536 50.5739 72.7187 49.9371 72.222 49.279C71.5415 48.4021 70.9189 47.4816 70.3582 46.5237C70.4303 46.4897 72.3111 45.5854 72.9055 44.8594C73.4277 44.2269 73.9202 43.2759 73.7206 42.431C73.6806 42.2307 73.5988 42.041 73.4806 41.8744C73.3625 41.7077 73.2106 41.5678 73.0348 41.4637C72.859 41.3596 72.6633 41.2936 72.4603 41.2701C72.2574 41.2466 72.0518 41.266 71.8568 41.3272C70.6936 41.7262 70.0907 43.8745 70.1119 44.9613C70.1119 45.0335 70.2308 45.8954 70.2945 46.3072H70.2308C69.6926 45.3277 69.2436 44.3018 68.8892 43.2419C68.6854 42.6645 68.5241 42.0956 68.3798 41.5437C68.7449 41.4078 70.4176 40.788 71.0332 40.1894C71.6488 39.5907 72.2177 38.7289 72.1116 37.8671C72.094 37.6633 72.0336 37.4656 71.9345 37.2867C71.8354 37.1078 71.6997 36.9518 71.5363 36.8289C71.3729 36.7059 71.1854 36.6187 70.9861 36.573C70.7868 36.5274 70.58 36.5242 70.3794 36.5637C69.1779 36.8354 68.3458 38.8945 68.2566 39.9898C68.2566 40.0493 68.2566 40.6606 68.2821 41.1022C68.2184 40.8517 68.1505 40.5969 68.0953 40.3549C67.8915 39.4464 67.7599 38.6015 67.6495 37.8543C67.5901 37.4298 67.5434 37.0392 67.5052 36.6783C67.7981 36.3599 68.9614 35.065 69.2289 34.2669C69.4963 33.4687 69.6025 32.4243 69.1142 31.7195C68.8764 31.4161 68.5282 31.2191 68.1457 31.1714C67.7631 31.1237 67.3772 31.2291 67.0721 31.4648Z" fill="#212121"/>
</g>
<path d="M139.302 151.494C162.886 127.911 162.886 89.6751 139.302 66.0919C115.719 42.5088 77.4834 42.5088 53.9003 66.0919C30.3171 89.6751 30.3171 127.911 53.9003 151.494C77.4834 175.077 115.719 175.077 139.302 151.494Z" fill="#E0E0E0" stroke="#212121" stroke-width="0.8025" stroke-miterlimit="10"/>
<path d="M136.859 122.587C144.481 100.351 132.634 76.1464 110.397 68.5246C88.1614 60.9029 63.9569 72.7501 56.3351 94.9861C48.7133 117.222 60.5605 141.427 82.7966 149.048C105.033 156.67 129.237 144.823 136.859 122.587Z" fill="#B75400"/>
<path d="M90.8345 89.8916L95.1734 90.7874L96.6551 92.3243L98.5826 92.6215L99.1939 94.4471L98.7439 95.6867L97.432 96.2896L94.2097 95.7632L94.1205 95.3683L95.6447 94.307L94.5918 92.3667L91.7133 91.9719L90.1807 90.6558L90.8345 89.8916Z" fill="white"/>
<path d="M125.8 129.929L122.383 129.365L118.231 128.838L115.174 129.518L112.181 129.564L109.179 130.953L107.426 131.445L106.343 131.687L104.535 133.33L102.739 134.557L99.7032 133.47L99.7796 130.558L97.9285 130.214L95.9586 130.638L95.4661 129.819L95.2666 127.998L94.358 127.149L93.0207 127.654L92.8466 128.728L91.1909 129.199L89.3186 127.751L88.202 125.544L89.0511 122.457L91.9551 122.033L92.8976 122.546L94.0778 122.283L95.3515 121.069L96.7228 121.175L99.2022 123.846L99.8687 123.591L99.1682 121.366L98.3191 120.318L98.0984 118.399L101.397 116.013L101.079 112.251L102.374 110.621L103.151 108.073L104.093 107.649L106.033 105.666L105.957 104.855L104.403 105.301L103.932 104.579L102.845 104.821L101.257 105.586L101.762 104.129L104.993 102.376L105.583 101.315L107.447 103.178L108.534 103.866L109.808 103.166L108.933 102.015L106.534 100.996L103.562 98.8733L100.726 97.744L98.2682 97.8756L96.8247 96.9544L95.1605 96.9119L95.0501 97.3365L95.4746 100.24L96.086 101.14L95.8992 104.49L93.5769 103.352V101.905L91.2843 101.378L90.1889 100.495L90.1337 97.9223L92.5325 95.2137L92.2056 92.8065L91.1399 93.1461L90.2526 92.4116L89.6285 90.9979L88.9195 91.0531L88.8728 92.7173L87.8327 93.1419L86.559 89.8006L85.6632 89.4822L84.173 89.202L82.7677 90.3398L85.158 91.7748L85.9264 93.3669L81.7828 91.4904L78.726 89.3676L77.9363 86.7481L75.198 86.5273L73.4998 88.251C73.0854 88.6461 72.6503 89.0188 72.1964 89.3676C71.4596 89.7279 70.6976 90.0344 69.9165 90.2846L69.8953 92.0508L67.6494 92.6536L68.074 93.6938L71.8525 93.473L74.1875 95.1288L74.9517 98.5804L74.5484 101.879L75.4654 105.089L73.7672 110.536L74.7734 117.864L76.582 121.808L78.5647 124.678L80.0846 124.546L79.2355 123.081L78.2293 122.079L77.2528 120.02L78.1019 119.625L80.2714 122.869L81.9696 125.807L82.5385 128.354L84.916 130.21L88.8176 131.929L94.2519 132.171L96.1582 133.3L97.6908 134.612L99.7074 135.304L102.008 135.415L104.157 134.833C104.157 134.833 104.276 135.843 104.386 136.336C104.496 136.828 103.486 138.811 103.486 138.811L102.841 141.023L104.114 143.018L106.483 143.443L110.241 145.918L111.752 146.203L112.079 147.68L112.406 148.334C119.8 145.388 126.217 140.423 130.925 134.005L130.814 133.279L132.406 127.853L130.895 127.242L125.8 129.929Z" fill="white"/>
<path d="M127.405 88.7043L125.906 87.0698L124.042 85.2103L122.994 82.3403L124.832 82.2426L124.713 81.2365L123.41 81.419L124.382 80.6845L125.414 79.7335L125.193 78.7486L123.66 77.4325L122.939 75.3649C115.65 69.6318 106.69 66.4336 97.4184 66.2559C88.147 66.0781 79.0707 68.9305 71.5677 74.3799L74.2 75.488L73.215 77.5683L71.4276 78.3792L71.8225 81.0836L71.1007 81.5549L70.3535 82.8582L70.846 84.6116L72.5654 84.4376L72.2513 86.2674L73.924 85.8938L75.9746 81.6101L75.9194 79.967L78.6365 79.1561L79.0611 77.8188L81.8547 76.889L81.7782 75.1484L83.8288 74.588C83.8288 74.588 85.1322 73.4714 85.4294 73.4077C86.0259 73.4031 86.6219 73.4428 87.2125 73.5266L88.9532 74.3757L91.025 73.9172L92.5576 72.4397L94.8715 72.134C95.2441 72.2785 95.646 72.3309 96.0432 72.2869C96.5357 72.1765 97.8646 71.1576 97.8646 71.1576L101.117 72.2996L102.496 72.9237L102.823 74.4011L104.347 74.2695L104.645 73.2718L106.058 73.5818L106.135 74.3927L103.35 75.8361L105.511 77.632L109.497 78.8165L111.412 80.4595L113.628 80.1751L113.9 79.0797L114.647 78.7104L111.646 77.3051L110.024 77.4579L111.217 76.7786L109.646 75.3649L111.297 74.8936L113.73 75.5984L114.749 77.8528L116.12 78.8972L117.64 81.5591L120.162 82.6545L120.884 85.9065L123.482 86.883L123.622 87.9911V89.3369L124.607 90.9799L125.002 91.829L126.743 91.7526L127.167 89.9016L127.405 88.7043Z" fill="white"/>
<path d="M126.484 78.4854L126.607 79.05L126.467 80.7482L127.07 82.0643L128.241 82.2172L128.666 84.0937L127.392 83.8602L128.28 89.252L127.579 91.6847L128.98 94.2702L130.526 95.1703L131.68 100.494L133.879 104.349L135.96 107.198L138.359 107.287L138.711 105.139L138.978 104.816C138.809 103.056 138.533 101.308 138.151 99.5814C136.387 91.5677 132.334 84.2388 126.484 78.4854Z" fill="white"/>
<path d="M103.567 82.9265L96.4256 81.5127L93.5854 82.2429L93.3137 84.2723L91.8447 83.2534L89.7856 84.2298L90.3121 87.5244L92.3712 88.4117L93.2373 86.255L95.0416 87.4055L98.6928 89.3882L99.9197 92.118L103.206 94.8012L107.192 93.1922L106.764 91.7359L105.507 90.2542L104.433 86.3526L105.048 84.4591L103.567 82.9265Z" fill="white"/>
<path d="M109.374 83.9113L107.808 83.8477L106.768 85.2147L108.092 87.9234L109.374 87.6389V83.9113Z" fill="white"/>
<path d="M118.961 83.7505L115.212 82.7188L114.261 81.6914L113.54 82.1584L114.665 83.9797L115.828 86.4124L117.437 86.6757L117.645 86.2171L116.431 84.9307L119.212 85.3511L118.961 83.7505Z" fill="white"/>
<path d="M98.0728 125.742L97.7671 126.222L100.922 126.451L102.412 127.572L104.326 127.351L104.776 126.116L102.42 126.222L98.0728 125.742Z" fill="white"/>
<path d="M107.264 125.666L105.324 126.719L105.795 127.441L108.36 126.872L108.678 125.972L107.812 126.269L107.264 125.666Z" fill="white"/>
<path d="M154.101 110.606L145.878 96.8496L126.721 108.301L134.944 122.058L154.101 110.606Z" fill="white" stroke="#212121" stroke-width="0.8025" stroke-miterlimit="10"/>
<path d="M144.396 100.205L150.327 110.127" stroke="#212121" stroke-width="0.7" stroke-miterlimit="10"/>
<path d="M142.438 101.373L148.369 111.299" stroke="#212121" stroke-width="0.8025" stroke-miterlimit="10"/>
<path d="M140.481 102.539L146.416 112.465" stroke="#212121" stroke-width="0.7" stroke-miterlimit="10"/>
<path d="M138.524 103.711L144.459 113.637" stroke="#212121" stroke-width="0.7" stroke-miterlimit="10"/>
<path d="M136.571 104.879L142.502 114.805" stroke="#212121" stroke-width="0.7" stroke-miterlimit="10"/>
<path d="M134.614 106.051L140.545 115.977" stroke="#212121" stroke-width="0.7" stroke-miterlimit="10"/>
<path d="M132.657 107.219L138.592 117.145" stroke="#212121" stroke-width="0.7" stroke-miterlimit="10"/>
<path d="M155.364 120.995L151.07 105.554L129.567 111.533L133.861 126.974L155.364 120.995Z" fill="white" stroke="#212121" stroke-width="0.7" stroke-miterlimit="10"/>
<path d="M148.769 108.397L151.864 119.538" stroke="#212121" stroke-width="0.8025" stroke-miterlimit="10"/>
<path d="M146.569 109.01L149.669 120.15" stroke="#212121" stroke-width="0.7" stroke-miterlimit="10"/>
<path d="M146.705 118.001L147.474 120.761" stroke="#212121" stroke-width="0.7" stroke-miterlimit="10"/>
<path d="M144.375 109.621L146.451 117.08" stroke="#212121" stroke-width="0.7" stroke-miterlimit="10"/>
<path d="M143.538 115.11L145.279 121.373" stroke="#212121" stroke-width="0.7" stroke-miterlimit="10"/>
<path d="M142.179 110.231L143.126 113.628" stroke="#212121" stroke-width="0.7" stroke-miterlimit="10"/>
<path d="M141.602 116.656L143.084 121.984" stroke="#212121" stroke-width="0.7" stroke-miterlimit="10"/>
<path d="M139.984 110.84L141.317 115.642" stroke="#212121" stroke-width="0.7" stroke-miterlimit="10"/>
<path d="M138.991 115.772L140.884 122.591" stroke="#212121" stroke-width="0.7" stroke-miterlimit="10"/>
<path d="M137.789 111.451L138.659 114.58" stroke="#212121" stroke-width="0.7" stroke-miterlimit="10"/>
<path d="M138.061 120.943L138.689 123.202" stroke="#212121" stroke-width="0.7" stroke-miterlimit="10"/>
<path d="M135.59 112.062L137.832 120.12" stroke="#212121" stroke-width="0.7" stroke-miterlimit="10"/>
<path d="M93.8278 76.216L109.307 72.0625L103.523 50.5063L88.0438 54.6597L93.8278 76.216Z" fill="white" stroke="#212121" stroke-width="0.7" stroke-miterlimit="10"/>
<path d="M103.974 70.3926L95.3174 72.7149" stroke="#212121" stroke-width="0.7" stroke-miterlimit="10"/>
<path d="M106.487 69.7178L105.311 70.0362" stroke="#212121" stroke-width="0.7" stroke-miterlimit="10"/>
<path d="M101.18 68.7832L94.7271 70.5154" stroke="#212121" stroke-width="0.7" stroke-miterlimit="10"/>
<path d="M105.897 67.5176L102.624 68.3964" stroke="#212121" stroke-width="0.7" stroke-miterlimit="10"/>
<path d="M96.6756 67.6318L94.1367 68.3111" stroke="#212121" stroke-width="0.7" stroke-miterlimit="10"/>
<path d="M105.303 65.3145L98.6499 67.1018" stroke="#212121" stroke-width="0.7" stroke-miterlimit="10"/>
<path d="M100.743 64.1816L93.5469 66.1134" stroke="#212121" stroke-width="0.7" stroke-miterlimit="10"/>
<path d="M104.712 63.1152L101.719 63.9176" stroke="#212121" stroke-width="0.7" stroke-miterlimit="10"/>
<path d="M104.122 60.916L92.9521 63.9091" stroke="#212121" stroke-width="0.7" stroke-miterlimit="10"/>
<path d="M103.532 58.7129L92.3623 61.7102" stroke="#212121" stroke-width="0.7" stroke-miterlimit="10"/>
<path d="M102.942 56.5137L91.772 59.5068" stroke="#212121" stroke-width="0.7" stroke-miterlimit="10"/>
<path d="M65.3999 104.619L66.9917 88.6709L44.7833 86.4542L43.1915 102.402L65.3999 104.619Z" fill="white" stroke="#212121" stroke-width="0.7" stroke-miterlimit="10"/>
<path d="M63.1827 96.7227L62.6562 101.987" stroke="#212121" stroke-width="0.7" stroke-miterlimit="10"/>
<path d="M63.8067 90.4814L63.3228 95.3341" stroke="#212121" stroke-width="0.7" stroke-miterlimit="10"/>
<path d="M60.5632 100.021L60.3892 101.762" stroke="#212121" stroke-width="0.7" stroke-miterlimit="10"/>
<path d="M61.5395 90.2578L60.6904 98.7701" stroke="#212121" stroke-width="0.7" stroke-miterlimit="10"/>
<path d="M58.4745 98.0264L58.1221 101.537" stroke="#212121" stroke-width="0.7" stroke-miterlimit="10"/>
<path d="M59.2724 90.0322L58.6992 95.7552" stroke="#212121" stroke-width="0.7" stroke-miterlimit="10"/>
<path d="M56.7932 91.9131L55.855 101.313" stroke="#212121" stroke-width="0.7" stroke-miterlimit="10"/>
<path d="M57.0053 89.8027L56.8779 91.0806" stroke="#212121" stroke-width="0.7" stroke-miterlimit="10"/>
<path d="M54.7342 89.5771L53.5879 101.083" stroke="#212121" stroke-width="0.7" stroke-miterlimit="10"/>
<path d="M52.4671 89.3525L51.3208 100.858" stroke="#212121" stroke-width="0.7" stroke-miterlimit="10"/>
<path d="M50.2 89.123L49.0537 100.633" stroke="#212121" stroke-width="0.7" stroke-miterlimit="10"/>
<path d="M90.7279 196.11C90.7279 196.11 100.866 197.01 106.182 189.572C111.497 182.134 110.92 169.151 109.922 163.976H68.5492C68.5492 163.976 67.7978 197.74 90.7279 196.11Z" fill="white" stroke="#212121" stroke-width="0.7" stroke-miterlimit="10"/>
<path d="M107.579 142.947C107.579 142.947 106.055 139.895 106.055 139.61C106.055 139.326 107.676 135.789 107.103 134.745C106.53 133.701 104.717 132.457 104.131 132.074C103.545 131.692 101.079 133.217 100.31 133.696C99.5419 134.176 100.31 134.745 100.595 134.745L102.293 134.46C101.834 134.861 101.417 135.308 101.049 135.794C100.862 136.176 101.049 137.513 101.049 137.797C101.049 138.082 101.147 138.18 101.529 138.647C101.911 139.114 101.622 139.602 102.48 140.842C103.285 142.134 104.018 143.471 104.675 144.845L107.579 142.947Z" fill="white" stroke="#212121" stroke-width="0.7" stroke-miterlimit="10"/>
<path d="M110.538 133.776L99.2827 134.825" stroke="#212121" stroke-width="0.7" stroke-miterlimit="10"/>
<path d="M104.908 136.447C104.908 136.447 104.241 133.204 103.575 133.11C102.908 133.017 100.331 134.257 100.603 134.732C100.875 135.208 102.301 134.448 102.301 134.448C102.301 134.448 100.297 137.687 101.537 138.642" fill="white"/>
<path d="M104.908 136.447C104.908 136.447 104.241 133.204 103.575 133.11C102.908 133.017 100.331 134.257 100.603 134.732C100.875 135.208 102.301 134.448 102.301 134.448C102.301 134.448 100.297 137.687 101.537 138.642" stroke="#212121" stroke-width="0.7" stroke-miterlimit="10"/>
<path d="M97.8091 125.672H81.7822V147.991H97.8091V125.672Z" fill="white" stroke="#212121" stroke-width="0.7" stroke-miterlimit="10"/>
<path d="M83.9009 128.66H95.4615" stroke="#212121" stroke-width="0.7" stroke-miterlimit="10"/>
<path d="M90.7065 130.94H95.4615" stroke="#212121" stroke-width="0.7" stroke-miterlimit="10"/>
<path d="M83.9009 130.94H89.8743" stroke="#212121" stroke-width="0.7" stroke-miterlimit="10"/>
<path d="M93.3008 133.221H95.4618" stroke="#212121" stroke-width="0.7" stroke-miterlimit="10"/>
<path d="M83.9009 133.221H92.0523" stroke="#212121" stroke-width="0.7" stroke-miterlimit="10"/>
<path d="M88.8345 135.497H95.4617" stroke="#212121" stroke-width="0.7" stroke-miterlimit="10"/>
<path d="M83.9009 135.497H87.6921" stroke="#212121" stroke-width="0.7" stroke-miterlimit="10"/>
<path d="M83.9009 137.775H95.4615" stroke="#212121" stroke-width="0.7" stroke-miterlimit="10"/>
<path d="M83.9009 140.056H95.4615" stroke="#212121" stroke-width="0.7" stroke-miterlimit="10"/>
<path d="M83.9009 142.336H95.4615" stroke="#212121" stroke-width="0.7" stroke-miterlimit="10"/>
<path d="M74.833 145.16L77.6351 141.063C77.6351 141.063 78.3908 136.749 78.3908 136.21C78.3908 135.671 81.6301 132.041 81.6301 132.041V135.06C81.6301 135.06 82.3816 134.053 83.0269 133.081C83.6722 132.109 84.2156 132.232 84.1052 133.298C83.9949 134.363 82.3816 136.639 82.3816 136.639C82.3816 136.639 83.0269 137.611 82.5981 139.335C82.1693 141.059 79.5795 142.893 79.5795 142.893L78.2846 147.1L74.833 145.16Z" fill="white" stroke="#212121" stroke-width="0.7" stroke-miterlimit="10"/>
<path d="M81.5362 135.236L79.77 137.147" stroke="#212121" stroke-width="0.7" stroke-miterlimit="10"/>
<path d="M117.882 158.863C114.639 154.287 108.075 142.17 108.075 142.17L103.783 145.702L109.353 162.107L101.151 162.298L90.8213 162.638L80.492 162.298L72.2854 162.107L79.5367 146.942L75.2572 143.41L63.9047 159.436C60.6611 164.013 58.7548 167.078 59.4214 168.403C60.0879 169.728 72.9689 174.126 72.9689 174.126L77.4522 185.19H104.199L108.682 174.126C108.682 174.126 121.559 169.736 122.226 168.403C122.892 167.07 121.109 163.444 117.882 158.863Z" fill="white" stroke="#212121" stroke-width="0.7" stroke-miterlimit="10"/>
<path d="M109.353 162.107C109.353 162.107 117.212 163.063 119.695 164.969" stroke="#212121" stroke-width="0.7" stroke-miterlimit="10"/>
<path d="M72.2853 162.107C72.2853 162.107 65.5137 163.156 62.8433 165.079" stroke="#212121" stroke-width="0.7" stroke-miterlimit="10"/>
<path d="M96.5147 173.553C96.5147 173.553 90.3162 180.04 86.4995 182.137" stroke="#212121" stroke-width="0.7" stroke-miterlimit="10"/>
<path d="M92.1289 176.032L88.0234 179.756" stroke="#212121" stroke-width="0.7" stroke-miterlimit="10"/>
<path d="M72.956 174.126L69.7124 170.691" stroke="#212121" stroke-width="0.7" stroke-miterlimit="10"/>
<path d="M111.586 170.024L108.687 174.126" stroke="#212121" stroke-width="0.7" stroke-miterlimit="10"/>
<path d="M69.4238 184.321C69.4238 184.321 70.4895 188.188 74.8539 192.969C76.9766 195.283 79.49 198.45 86.4187 199.609C93.1394 200.73 99.0916 199.303 102.31 197.091C105.778 194.705 109.047 189.649 111.76 184.724L110.856 182.007L70.7315 182.109L69.4238 184.321Z" fill="#212121"/>
<path d="M71.738 180.498C77.6818 181.08 95.6701 182.515 108.946 180.048C109.32 179.978 109.704 179.983 110.076 180.062C110.448 180.142 110.8 180.294 111.113 180.511C111.425 180.728 111.691 181.005 111.896 181.326C112.1 181.646 112.239 182.004 112.304 182.379C112.368 182.756 112.356 183.141 112.269 183.512C112.182 183.884 112.022 184.235 111.798 184.544C111.574 184.852 111.29 185.113 110.964 185.311C110.637 185.509 110.274 185.639 109.897 185.695C103.354 186.654 86.7672 188.489 71.0375 185.398C70.6948 185.331 70.37 185.193 70.0841 184.993C69.7983 184.792 69.5578 184.534 69.3784 184.234C69.199 183.935 69.0847 183.601 69.0428 183.254C69.001 182.907 69.0326 182.556 69.1355 182.222C69.3047 181.679 69.656 181.211 70.1301 180.897C70.6042 180.583 71.1721 180.442 71.738 180.498Z" fill="#212121"/>
<path d="M93.9375 138.451C93.9375 138.451 92.9865 136.065 89.5519 137.309C86.1172 138.553 84.4954 139.407 84.3044 142.65C84.1133 145.894 80.9674 151.141 81.4429 154.669C81.9184 158.197 83.0647 157.433 82.6826 159.246C82.3005 161.059 79.8211 161.534 79.8211 161.534L78.8701 161.059C79.7208 162.435 80.6776 163.742 81.7316 164.969C83.2558 166.688 85.353 167.448 88.9787 168.404C92.6044 169.359 95.2749 168.879 97.9453 167.257C100.616 165.636 102.046 164.396 102.429 162.477L102.811 160.571C102.811 160.571 100.904 159.9 100.904 158.949C100.904 157.998 103.095 155.799 103.477 152.844C103.859 149.889 103.002 144.544 100.505 140.918C98.009 137.292 95.3682 137.5 93.9375 138.451Z" fill="#212121"/>
<path d="M128.757 47.0362L113.14 52.959L121.269 74.391L136.885 68.4682L128.757 47.0362Z" fill="white" stroke="#212121" stroke-width="0.7" stroke-miterlimit="10"/>
<path d="M120.321 62.9265L118.517 63.5947L120.38 68.6228L122.183 67.9546L120.321 62.9265Z" fill="#212121"/>
<path d="M123.868 63.8084L122.065 64.4766L123.211 67.5698L125.014 66.9017L123.868 63.8084Z" fill="#212121"/>
<path d="M125.991 60.823L124.188 61.4912L126.051 66.5193L127.854 65.8511L125.991 60.823Z" fill="#212121"/>
<path d="M127.536 56.2918L125.733 56.96L128.885 65.4675L130.688 64.7993L127.536 56.2918Z" fill="#212121"/>
<path d="M129.988 52.6862L128.18 53.3594L132.22 64.2104L134.028 63.5372L129.988 52.6862Z" fill="#212121"/>
<path d="M116.286 55.1471L126.454 51.4365" stroke="#212121" stroke-width="0.7" stroke-linecap="round" stroke-linejoin="round"/>
<path d="M116.974 56.9332L127.142 53.2227" stroke="#212121" stroke-width="0.7" stroke-linecap="round" stroke-linejoin="round"/>
<path d="M138.987 66.5027L136.983 65.2545C136.983 65.2545 136.588 62.4185 136.274 62.1043C135.96 61.7901 134.152 60.0537 133.833 59.6631C133.515 59.2725 133.362 58.2451 133.124 58.2451C132.886 58.2451 132.02 59.1876 132.334 60.5292C132.458 60.945 132.669 61.3292 132.955 61.6554C133.241 61.9815 133.594 62.2419 133.99 62.4185C133.99 62.4185 133.141 65.9635 133.676 66.7489C134.143 67.3332 134.701 67.8391 135.328 68.2476L137.692 69.9798L139.582 66.9102L138.987 66.5027Z" fill="white" stroke="#212121" stroke-width="0.7" stroke-miterlimit="10"/>
<path d="M183.48 82.5799C183.319 82.096 182.996 79.8373 180.415 79.5147C177.834 79.192 176.225 81.9346 176.225 81.9346C176.225 81.9346 169.933 88.8676 168.319 90.9649C166.706 93.0622 164.774 96.4458 160.902 98.3818C159.44 99.0501 157.9 99.5309 156.317 99.8126C157.843 109.84 156.803 120.091 153.294 129.608C157.863 130.228 163.14 130.826 164.452 130.457C166.872 129.811 167.848 128.525 168.965 126.75C170.081 124.976 183.319 108.202 183.641 107.556C184.511 105.911 185.214 104.183 185.739 102.398C186.545 99.6725 183.641 83.0852 183.48 82.5799Z" fill="#212121"/>
<path d="M159.128 117.093C158.279 116.418 157.54 114.851 156.848 113.085C156.46 118.676 155.291 124.185 153.375 129.451C156.89 129.719 161.599 129.345 163.182 127.898C165.118 126.123 166.579 122.412 166.579 122.412C166.579 122.412 161.548 119.024 159.128 117.093Z" fill="#B75400" stroke="#212121" stroke-width="0.7" stroke-miterlimit="10"/>
<path d="M164.15 68.2893C163.221 68.2893 161.302 69.2191 161.102 69.4144C160.903 69.6097 150.773 71.8004 150.773 71.8004C150.773 71.8004 143.161 68.2256 142.167 67.8945C141.174 67.5633 138.987 66.502 138.987 66.502L136.605 70.1446L140.851 73.2566C140.851 73.2566 147.075 77.7569 149.656 79.2003C152.238 80.6438 159.642 79.3744 159.642 79.3744L166.613 69.1045C165.842 68.6993 165.01 68.4239 164.15 68.2893Z" fill="white" stroke="#212121" stroke-width="0.7" stroke-miterlimit="10"/>
<path d="M159.285 77.6171L159.119 79.2176C159.119 79.2176 158.389 88.4219 158.27 89.6107C158.151 90.7994 157.145 97.5583 157.145 97.5583C157.145 97.5583 156.784 98.832 156.402 100.263C157.173 105.618 157.218 111.054 156.534 116.421C157.961 118.342 159.49 120.184 161.115 121.94C162.108 123.07 164.295 124.59 165.22 124.195C166.146 123.8 168.863 120.484 168.863 120.484C168.863 120.484 172.174 113.267 172.968 111.611C173.762 109.955 181.459 98.7004 182.309 97.1762C183.158 95.6521 183.039 94.7265 182.113 93.0708C181.188 91.415 176.666 80.0115 176.199 78.8398C175.732 77.668 166.732 70.0345 166.732 70.0345C166.335 69.6317 165.909 69.2585 165.458 68.918L164.953 69.7374L161.319 72.3399" fill="white"/>
<path d="M159.285 77.6171L159.119 79.2176C159.119 79.2176 158.389 88.4219 158.27 89.6107C158.151 90.7994 157.145 97.5583 157.145 97.5583C157.145 97.5583 156.784 98.832 156.402 100.263C157.173 105.618 157.218 111.054 156.534 116.421C157.961 118.342 159.49 120.184 161.115 121.94C162.108 123.07 164.295 124.59 165.22 124.195C166.146 123.8 168.863 120.484 168.863 120.484C168.863 120.484 172.174 113.267 172.968 111.611C173.762 109.955 181.459 98.7004 182.309 97.1762C183.158 95.6521 183.039 94.7265 182.113 93.0708C181.188 91.415 176.666 80.0115 176.199 78.8398C175.732 77.668 166.732 70.0345 166.732 70.0345C166.335 69.6317 165.909 69.2585 165.458 68.918L164.953 69.7374L161.319 72.3399" stroke="#212121" stroke-width="0.7" stroke-miterlimit="10"/>
<path d="M168.188 82.9926L164.745 81.668L165.806 88.1551C165.806 88.1551 162.715 98.6161 162.715 98.8157C162.715 99.0152 161.921 100.208 160.86 101.202C159.799 102.195 159.404 102.857 157.748 103.982C157.417 104.207 157.128 104.407 156.874 104.602C156.984 106.156 157.031 107.71 157.022 109.251L158.342 109.608C158.342 109.608 161.854 106.496 163.641 102.458C165.428 98.4208 165.628 97.1599 165.959 93.9673C166.104 92.2946 166.369 90.6345 166.753 89C166.821 88.7368 170.727 85.6885 170.727 85.6885L168.188 82.9926Z" fill="#212121"/>
<path d="M165.738 75.6391C165.738 75.6391 164.613 78.0251 164.414 78.611C164.08 79.3824 163.704 80.135 163.289 80.8654C163.289 80.8654 165.675 82.5848 166.201 82.9881C166.727 83.3914 169.381 85.1703 169.381 85.1703L171.168 88.4818C171.168 88.4818 171.962 87.2888 173.087 83.9136C174.212 80.5384 174.28 78.819 174.548 78.3944C174.815 77.9699 173.155 75.9448 171.431 74.9513C169.708 73.9579 167.326 73.8263 166.8 74.4249L165.738 75.6391Z" fill="white" stroke="#212121" stroke-width="0.7" stroke-miterlimit="10"/>
<path d="M166.006 79.6133C166.006 79.6133 166.401 82.5851 166.855 83.7866C167.309 84.9881 167.585 85.0603 168.311 84.5806C169.037 84.1008 170.829 81.7997 170.829 81.7997L166.006 79.6133Z" fill="white" stroke="#212121" stroke-width="0.7" stroke-miterlimit="10"/>
<path d="M179.065 75.2273C179.065 75.2273 180.538 72.7351 181.557 74.4333C182.576 76.1315 180.763 77.8298 179.519 78.1694C178.775 78.3728 178.017 78.5246 177.252 78.6237L179.065 75.2273Z" fill="white" stroke="#212121" stroke-width="0.7" stroke-miterlimit="10"/>
<path d="M167.135 67.8613C167.135 67.8613 167.937 65.0805 166.001 65.505C164.065 65.9296 164.074 68.409 164.681 69.5468C165.04 70.2294 165.449 70.8849 165.904 71.5082L167.135 67.8613Z" fill="white" stroke="#212121" stroke-width="0.7" stroke-miterlimit="10"/>
<path d="M171.593 59.4893C171.593 59.4893 167.517 61.0771 166.498 64.8132C165.479 68.5492 164.461 73.1896 165.025 75.6817C165.59 78.1738 165.705 80.5471 166.498 81.341C167.292 82.1349 167.628 82.9246 169.78 82.6996C171.933 82.4746 176.233 80.4367 177.252 78.6239C178.271 76.811 180.424 75.1128 181.218 69.9078C182.012 64.7028 182.122 62.546 178.84 60.2832C175.558 58.0203 171.593 59.4893 171.593 59.4893Z" fill="white" stroke="#212121" stroke-width="0.7" stroke-miterlimit="10"/>
<path d="M168.85 73.5889C168.85 73.5889 167.657 75.5078 168.256 76.5013C168.855 77.4948 170.638 77.9575 171.899 77.0999" stroke="#212121" stroke-width="0.7" stroke-miterlimit="10"/>
<path d="M166.931 77.2314C166.931 77.2314 167.262 78.8872 169.381 79.0825C171.499 79.2778 172.692 78.4202 172.692 78.4202" stroke="#212121" stroke-width="0.7" stroke-miterlimit="10"/>
<path d="M170.243 70.0778C170.243 70.0778 168.85 67.2333 167.194 67.4286" stroke="#212121" stroke-width="0.7" stroke-miterlimit="10"/>
<path d="M173.223 71.0705C173.223 71.0705 176.068 70.6077 177.524 72.3951" stroke="#212121" stroke-width="0.7" stroke-miterlimit="10"/>
<path d="M168.719 70.74C168.719 71.2537 168.481 71.6697 168.188 71.6697C167.895 71.6697 167.657 71.2452 167.657 70.74C167.657 70.2348 167.895 69.8145 168.188 69.8145C168.481 69.8145 168.719 70.2305 168.719 70.74Z" fill="#212121"/>
<path d="M174.556 74.2222C174.327 74.6807 173.932 74.9482 173.669 74.8166C173.406 74.685 173.38 74.2095 173.609 73.751C173.839 73.2925 174.234 73.025 174.497 73.1566C174.76 73.2882 174.785 73.7467 174.556 74.2222Z" fill="#212121"/>
<path d="M178.848 60.2832C175.562 58.0203 171.601 59.4893 171.601 59.4893C171.601 59.4893 167.525 61.0771 166.506 64.8132C166.404 65.1868 166.303 65.5774 166.201 65.9679C166.519 65.9297 168.289 65.6962 168.527 64.9151C168.883 63.804 169.444 62.7698 170.183 61.8668C170.913 61.0729 172.701 64.8386 175.082 64.7834C177.464 64.7283 180.05 64.9151 179.918 65.5094C179.786 66.1038 178.33 69.6828 178.793 70.6762C179.256 71.6697 179.786 71.6697 179.786 72.4636C179.767 73.0848 179.7 73.7036 179.587 74.3147L179.977 74.2722C180.59 72.8875 181.007 71.4243 181.217 69.9248C182.007 64.6985 182.121 62.546 178.848 60.2832Z" fill="#212121"/>
<path d="M177.002 98.0983C177.002 98.0983 170.306 102.195 170.069 103.299C169.831 104.403 167.547 110.389 168.413 113.539C169.279 116.689 173.457 120.077 175.503 118.345C177.549 116.613 177.711 112.911 178.734 108.89C179.757 104.87 182.669 97.5464 182.669 96.4468C182.7 95.8579 182.535 95.2754 182.198 94.791" fill="white"/>
<path d="M177.002 98.0983C177.002 98.0983 170.306 102.195 170.069 103.299C169.831 104.403 167.547 110.389 168.413 113.539C169.279 116.689 173.457 120.077 175.503 118.345C177.549 116.613 177.711 112.911 178.734 108.89C179.757 104.87 182.669 97.5464 182.669 96.4468C182.7 95.8579 182.535 95.2754 182.198 94.791" stroke="#212121" stroke-width="0.7" stroke-miterlimit="10"/>
<path d="M168.256 106.687C168.256 106.687 175.113 113.302 175.584 114.8C176.055 116.299 176.136 117.794 174.794 119.288C173.453 120.782 171.177 122.595 168.85 120.468C166.524 118.341 165.738 113.145 165.577 111.65C165.413 110.429 165.176 109.218 164.868 108.025L167.314 106.055L168.256 106.687Z" fill="white" stroke="#212121" stroke-width="0.7" stroke-miterlimit="10"/>
<path d="M167.657 103.915C167.657 103.915 165.938 103.584 165.208 104.246C164.619 104.837 164.148 105.534 163.819 106.301C163.34 107.068 162.577 107.614 161.697 107.821C160.635 108.088 159.973 109.413 161.365 109.744C162.758 110.075 164.872 109.939 166.065 109.281C166.882 108.884 167.587 108.292 168.12 107.557C168.715 106.827 169.114 106.364 169.445 106.233C169.776 106.101 170.039 106.233 170.833 105.834C171.627 105.435 172.489 104.777 172.158 104.182C171.826 103.588 171.627 103.651 170.502 103.983C169.945 104.166 169.367 104.277 168.782 104.314L167.657 103.915Z" fill="white" stroke="#212121" stroke-width="0.7" stroke-miterlimit="10"/>
<path d="M159.658 107.808C159.658 107.808 159.374 105.961 159.803 105.358C160.232 104.755 160.584 105.431 160.618 106.14C160.649 106.742 160.757 107.339 160.941 107.914C161.047 108.165 161.365 108.305 161.722 108.449C162.078 108.593 162.218 109.052 161.65 109.196C161.081 109.341 160.44 109.052 160.376 108.874C160.312 108.695 159.658 107.808 159.658 107.808Z" fill="white" stroke="#212121" stroke-width="0.8025" stroke-miterlimit="10"/>
<path d="M163.047 109.997C163.047 109.997 161.573 109.946 161.132 109.692C160.848 109.472 160.614 109.195 160.444 108.879C160.273 108.563 160.171 108.215 160.143 107.858C160.087 107.093 160.079 106.643 160.712 106.881C161.344 107.119 161.276 107.577 161.561 108.155C161.845 108.732 162.015 109.191 162.206 109.178C162.419 109.212 162.622 109.288 162.805 109.403C162.805 109.403 163.514 109.832 163.047 109.997Z" fill="white" stroke="#212121" stroke-width="0.8025" stroke-miterlimit="10"/>
<path d="M166.07 109.28C165.669 109.608 165.223 109.875 164.745 110.074C164.151 110.27 162.847 109.9 162.198 109.374C161.548 108.847 159.005 107.986 160.563 107.417C161.735 106.992 162.907 108.287 163.633 108.618C164.359 108.949 165.42 108.151 165.687 108.019" fill="white"/>
<path d="M166.07 109.28C165.669 109.608 165.223 109.875 164.745 110.074C164.151 110.27 162.847 109.9 162.198 109.374C161.548 108.847 159.005 107.986 160.563 107.417C161.735 106.992 162.907 108.287 163.633 108.618C164.359 108.949 165.42 108.151 165.687 108.019" stroke="#212121" stroke-width="0.8025" stroke-miterlimit="10"/>
<path d="M168.124 107.557C168.124 107.557 167.725 108.287 167.275 109.145C166.825 110.003 166.426 109.744 166.082 109.281C165.738 108.818 162.77 107.094 162.77 107.094C162.77 107.094 162.507 106.245 163.832 106.3C165.156 106.356 166.744 107.82 166.744 107.82" fill="white"/>
<path d="M168.124 107.557C168.124 107.557 167.725 108.287 167.275 109.145C166.825 110.003 166.426 109.744 166.082 109.281C165.738 108.818 162.77 107.094 162.77 107.094C162.77 107.094 162.507 106.245 163.832 106.3C165.156 106.356 166.744 107.82 166.744 107.82" stroke="#212121" stroke-width="0.8025" stroke-miterlimit="10"/>
<path d="M101.771 2.70611C101.771 2.70611 103.715 -0.100184 108.564 3.24529C113.412 6.59077 110.937 11.4477 109.413 13.2817C107.889 15.1158 108.118 14.3601 112.431 16.5168C116.745 18.6735 114.805 23.2078 113.62 24.3965C112.436 25.5853 113.837 25.6702 115.238 27.9543C116.639 30.2384 114.588 34.2122 112.648 35.4009C110.708 36.5897 105.656 37.3411 101.126 35.9613C96.5956 34.5816 96.9607 26.4853 98.2089 20.4227C99.4571 14.3601 100.693 10.0636 99.8307 7.68612C98.9689 5.30862 100.693 2.38345 101.771 2.70611Z" fill="#212121"/>
<path d="M104.25 48.8767L111.094 25.8659L99.5036 22.0449L91.7216 23.5224C91.7216 23.5224 80.1313 27.4113 79.6643 28.5024C79.2397 29.4534 85.9562 45.0939 87.6714 49.0635C93.1625 48.2364 98.7417 48.1736 104.25 48.8767Z" fill="#B75400" stroke="#212121" stroke-width="0.8025" stroke-linecap="round" stroke-linejoin="round"/>
<path d="M104.615 23.7334L99.5205 22.0352L91.7384 23.5126C91.7384 23.5126 89.3524 24.3235 86.7202 25.2957C86.8979 28.2248 87.5921 31.0994 88.7708 33.7868C91.3181 39.8536 97.1727 45.6106 97.1727 45.6106C97.1727 45.6106 103.002 39.4758 104.551 30.8404C105.025 28.497 105.046 26.0848 104.615 23.7334Z" fill="#B75400" stroke="#212121" stroke-width="0.8025" stroke-linecap="round" stroke-linejoin="round"/>
<path d="M91.7979 24.4775L92.5578 27.8909" stroke="#212121" stroke-width="0.8025" stroke-linecap="round" stroke-linejoin="round"/>
<path d="M91.7214 23.5302L90.9062 23.8061C90.989 26.7876 91.4164 29.7494 92.1799 32.6326C93.8144 39.1665 97.1599 43.0554 97.1599 43.0554C97.1599 43.0554 100.582 33.0996 101.049 28.663C101.263 26.609 101.199 24.5353 100.858 22.4985L99.495 22.0527L91.7214 23.5302Z" fill="white" stroke="#212121" stroke-width="0.8025" stroke-linecap="round" stroke-linejoin="round"/>
<path d="M99.7158 34.8281C97.4456 35.3088 95.0998 35.3088 92.8296 34.8281C93.7799 37.8062 95.2487 40.5931 97.1685 43.0602C97.1685 43.0602 98.5823 38.9336 99.7158 34.8281Z" stroke="#212121" stroke-width="0.8025" stroke-linecap="round" stroke-linejoin="round"/>
<path d="M103.558 13.1539C103.558 13.1539 104.747 10.3476 104.314 8.08473C103.881 5.82187 104.738 3.01557 98.7946 0.748459C92.8509 -1.51865 90.38 1.82682 88.1171 4.63312C85.8543 7.43941 86.0835 8.51353 85.8712 9.26924C85.659 10.0249 83.7145 9.26924 82.6362 11.426C81.5578 13.5827 81.9908 14.4488 84.6867 15.421C85.7777 15.8516 86.8952 16.2118 88.0322 16.4994L97.9031 14.9837C97.9031 14.9837 98.3871 14.0157 99.0324 14.9837C99.6777 15.9517 99.7881 16.3847 101.083 16.3847C102.378 16.3847 102.484 15.7394 102.484 15.7394L103.558 13.1539Z" fill="#212121"/>
<path d="M87.3779 14.2321C87.3779 14.2321 88.9955 20.2735 89.9677 21.8741C90.9399 23.4747 93.2028 26.8371 94.8203 27.0536C96.4379 27.2702 100.106 24.0308 100.764 22.1968C101.422 20.3627 102.488 15.7266 102.488 15.7266C101.901 15.8371 101.294 15.7629 100.751 15.5143C100.209 15.2656 99.7561 14.8548 99.4565 14.3383C98.9355 13.4073 98.3301 12.5262 97.6479 11.7061C97.6479 11.7061 98.8621 13.6293 92.6636 15.2256C88.9191 16.1978 87.3779 14.2321 87.3779 14.2321Z" fill="white" stroke="#212121" stroke-width="0.8025" stroke-linecap="round" stroke-linejoin="round"/>
<path d="M102.479 15.7436C102.479 15.7436 103.019 12.8312 103.558 13.1539C104.097 13.4765 104.636 14.003 103.885 15.5271C103.493 16.3819 102.9 17.1292 102.157 17.7051L102.479 15.7436Z" fill="white" stroke="#212121" stroke-width="0.8025" stroke-linecap="round" stroke-linejoin="round"/>
<path d="M93.3731 21.1016C93.3731 21.1016 93.1906 22.9356 93.492 23.1776C93.7934 23.4196 95.0204 22.5068 95.0204 22.5068" stroke="#212121" stroke-width="0.8025" stroke-linecap="round" stroke-linejoin="round"/>
<path d="M96.3662 23.5254C95.8977 23.9244 95.3169 24.168 94.7039 24.2228C94.091 24.2775 93.4762 24.1407 92.9443 23.8311" stroke="#212121" stroke-width="0.8025" stroke-linecap="round" stroke-linejoin="round"/>
<path d="M96.5867 19.2122C96.5867 19.5986 96.3532 19.9127 96.0603 19.9127C95.7673 19.9127 95.5381 19.5986 95.5381 19.2122C95.5381 18.8259 95.7716 18.5117 96.0603 18.5117C96.349 18.5117 96.5867 18.8259 96.5867 19.2122Z" fill="#212121"/>
<path d="M91.7218 19.5807C92.0125 19.5807 92.2482 19.2671 92.2482 18.8802C92.2482 18.4933 92.0125 18.1797 91.7218 18.1797C91.431 18.1797 91.1953 18.4933 91.1953 18.8802C91.1953 19.2671 91.431 19.5807 91.7218 19.5807Z" fill="#212121"/>
<path d="M95.1436 17.4712C95.5666 17.3104 96.0182 17.2383 96.4703 17.2595C96.9225 17.2807 97.3654 17.3946 97.7715 17.5944" stroke="#212121" stroke-width="0.8025" stroke-linecap="round" stroke-linejoin="round"/>
<path d="M92.4558 17.6585C92.4558 17.6585 91.4751 16.3849 89.7642 17.2892" stroke="#212121" stroke-width="0.8025" stroke-linecap="round" stroke-linejoin="round"/>
<path d="M124.009 32.5643L124.709 30.6963C124.709 30.6963 124.866 28.7518 125.019 28.0513C125.172 27.3508 126.03 26.9602 126.811 26.1069C127.592 25.2535 128.212 23.9247 128.598 24.3153C128.985 24.7058 128.989 25.0922 128.679 25.6399C128.437 26.0366 128.228 26.4526 128.055 26.8838C127.978 27.1173 131.876 25.4064 131.876 25.4064C131.876 25.4064 133.574 23.3812 133.999 23.8482C134.423 24.3153 133.765 26.7267 133.451 27.7372C132.999 28.9847 132.153 30.0507 131.039 30.7727C130.029 31.3161 126.917 32.4709 126.917 32.4709L125.749 34.496L124.009 32.5643Z" fill="white" stroke="#212121" stroke-width="0.8025" stroke-linecap="round" stroke-linejoin="round"/>
<path d="M126.204 30.8406C126.204 30.8406 127.605 29.5966 128.696 29.3631C129.638 29.0956 130.55 28.7314 131.417 28.2763C131.417 28.2763 132.585 24.3831 132.818 25.0072C133.052 25.6313 132.895 27.1852 132.585 28.2763C132.34 29.249 131.795 30.1197 131.027 30.7641" fill="white"/>
<path d="M126.204 30.8406C126.204 30.8406 127.605 29.5966 128.696 29.3631C129.638 29.0956 130.55 28.7314 131.417 28.2763C131.417 28.2763 132.585 24.3831 132.818 25.0072C133.052 25.6313 132.895 27.1852 132.585 28.2763C132.34 29.249 131.795 30.1197 131.027 30.7641" stroke="#212121" stroke-width="0.8025" stroke-linecap="round" stroke-linejoin="round"/>
<path d="M111.094 25.8652L116.384 41.3444L124.026 32.5562L126.594 35.9017C126.594 35.9017 118.103 49.2793 117.568 49.6699C117.033 50.0605 116.719 50.1369 115.781 50.1369C114.843 50.1369 107.065 39.4 107.065 39.4L111.094 25.8652Z" fill="#B75400" stroke="#212121" stroke-width="0.8025" stroke-linecap="round" stroke-linejoin="round"/>
<path d="M79.6642 28.5107L74.9941 51.2286L89.3101 59.9404L90.554 56.4378L82.6955 48.4265L84.2536 40.6445L79.6642 28.5107Z" fill="#B75400" stroke="#212121" stroke-width="0.8025" stroke-linecap="round" stroke-linejoin="round"/>
<path d="M90.5414 56.4373L95.5808 56.1486C95.5808 56.1486 98.4253 55.9618 99.44 55.3377C100.455 54.7136 101.219 54.8325 101.219 55.3759C101.219 55.9193 100.714 56.2632 99.6735 56.8958C99.5546 56.968 102.026 58.4284 102.858 59.0186C102.942 59.0757 103.003 59.1611 103.029 59.2592C103.056 59.3574 103.046 59.4618 103.002 59.5535C102.981 59.6054 102.951 59.6527 102.912 59.6927C102.873 59.7328 102.827 59.7647 102.775 59.7868C102.724 59.8089 102.669 59.8207 102.613 59.8214C102.557 59.8222 102.502 59.8119 102.45 59.7912L98.8669 58.5176L96.7653 58.4412L100.191 59.8422L102.463 61.1158C102.569 61.1757 102.652 61.2692 102.699 61.3814C102.745 61.4936 102.754 61.6183 102.722 61.7357C102.688 61.8597 102.612 61.9679 102.506 62.041C102.4 62.114 102.272 62.1473 102.144 62.1348C101.435 62.0626 100.124 61.9225 99.958 61.8673C99.7245 61.7909 96.6125 60.6234 96.6125 60.6234L98.5569 62.1008L99.9877 63.1155C100.044 63.1547 100.092 63.205 100.128 63.2633C100.165 63.3216 100.189 63.3867 100.199 63.4547C100.21 63.5227 100.206 63.592 100.189 63.6585C100.171 63.725 100.14 63.7873 100.098 63.8415C100.034 63.9242 99.9454 63.9853 99.8452 64.0164C99.745 64.0475 99.6377 64.0472 99.5377 64.0155L96.9903 63.1919L95.203 62.8777L92.6344 61.1795L89.5225 59.078L90.5414 56.4373Z" fill="white" stroke="#212121" stroke-width="0.8025" stroke-linecap="round" stroke-linejoin="round"/>
<path d="M96.311 63.0518L94.6001 61.3408" stroke="#212121" stroke-width="0.8025" stroke-linecap="round" stroke-linejoin="round"/>
<path d="M99.6859 56.8957C99.6859 56.8957 98.0641 55.7791 96.6631 56.0126" stroke="#212121" stroke-width="0.8025" stroke-linecap="round" stroke-linejoin="round"/>
<path d="M37.6506 121.886C36.4746 116.609 36.012 111.199 36.275 105.799L13.4892 80.0885C13.0881 79.6369 12.5622 79.3142 11.9779 79.1612C11.3936 79.0082 10.777 79.0318 10.206 79.2289C9.63508 79.426 9.13532 79.7879 8.76986 80.2688C8.40439 80.7498 8.18961 81.3282 8.15261 81.9311L6.87895 103.32C6.81424 104.413 7.1509 105.493 7.8257 106.356C11.7443 111.37 25.4701 128.738 27.8137 129.188C30.361 129.676 38.6398 129.065 39.7011 128.984C38.8741 126.662 38.1892 124.291 37.6506 121.886Z" fill="#212121"/>
<path d="M51.5164 61.4813C51.5164 61.4813 51.4188 58.709 51.2192 58.3142C51.0197 57.9193 50.23 56.616 50.4253 55.9367C50.6206 55.2574 50.9221 54.5484 51.3169 53.262C51.7117 51.9756 51.9113 51.5638 52.408 51.6784C52.9047 51.793 52.9005 52.4723 52.6033 53.3766C52.4164 53.9865 52.3164 54.6196 52.3061 55.2574L53.1977 56.531C53.1977 56.531 54.0468 53.2238 54.2166 52.7101C54.3864 52.1964 54.6709 51.1817 55.002 51.0119C55.1132 50.9703 55.2336 50.9599 55.3502 50.9815C55.4669 51.0032 55.5755 51.0563 55.6643 51.135C55.6643 51.135 55.953 50.5151 56.4073 50.6383C56.8616 50.7614 56.904 50.8463 57.0271 51.3812C57.1502 51.9162 57.647 51.7548 57.9357 52.3747C58.1376 52.8507 58.2802 53.3498 58.3602 53.8606C58.3602 53.8606 58.5258 53.695 58.5683 55.0578C58.6657 56.2831 58.6372 57.5151 58.4833 58.7345C58.2796 60.0548 57.371 60.6747 56.7512 61.337C56.1313 61.9993 55.4266 62.4918 55.3034 62.7423C55.1803 62.9927 54.8789 63.1668 54.7685 63.2772C54.6581 63.3876 51.215 62.4918 51.215 62.4918L51.5164 61.4813Z" fill="#CCCCCC" stroke="#212121" stroke-width="0.8025" stroke-linecap="round" stroke-linejoin="round"/>
<path d="M55.5791 51.4492L55.3753 53.4743L54.6706 55.9919L54.4668 56.7349" stroke="#212121" stroke-width="0.8025" stroke-linecap="round" stroke-linejoin="round"/>
<path d="M57.1079 51.6953C56.9064 52.0475 56.8065 52.4487 56.8192 52.8543C56.764 53.9211 56.6407 54.9832 56.4499 56.0342C56.3454 56.4632 56.193 56.879 55.9956 57.2739" stroke="#212121" stroke-width="0.8025" stroke-linecap="round" stroke-linejoin="round"/>
<path d="M58.2753 54.2172C58.2753 54.2172 57.7362 54.1747 57.6555 55.0026C57.5748 55.8305 57.405 57.0659 57.3668 57.2315C57.2794 57.4231 57.1681 57.6028 57.0356 57.7664" stroke="#212121" stroke-width="0.8025" stroke-linecap="round" stroke-linejoin="round"/>
<path d="M53.5161 57.0664C53.5161 57.0664 54.0935 58.0599 53.9704 58.6373C53.9039 58.9585 53.8203 59.2759 53.7199 59.5882" stroke="#212121" stroke-width="0.8025" stroke-linecap="round" stroke-linejoin="round"/>
<path d="M28.0511 74.4516C28.0511 74.4516 31.6173 75.5384 33.8929 75.5384C36.1685 75.5384 43.594 76.6295 43.594 76.6295L51.5161 61.4815C51.9795 61.4286 52.4487 61.4617 52.9002 61.5791C53.5964 61.7786 56.1692 63.5618 56.1692 63.5618C56.1692 63.5618 52.9002 76.0351 52.3058 78.1154C51.9709 79.2092 51.5078 80.2595 50.926 81.2444C50.6087 81.7862 50.1452 82.2276 49.5886 82.5181C47.7673 83.4818 43.1439 85.7617 38.7456 86.6108C33.099 87.7019 32.1098 86.1183 32.1098 86.1183L27.1595 87.0056C27.1595 87.0056 24.4891 89.4807 21.912 81.86C19.335 74.2393 28.0511 74.4516 28.0511 74.4516Z" fill="white" stroke="#212121" stroke-width="0.8025" stroke-linecap="round" stroke-linejoin="round"/>
<path d="M30.4117 76.561L29.5371 74.6463C29.5371 74.6463 28.446 71.9758 26.8624 71.8739C25.2788 71.7721 20.6257 72.3707 18.3671 74.9435C17.051 76.3856 15.9109 77.9789 14.9707 79.69C13.9114 82.0416 12.9858 84.4513 12.1983 86.9074C10.6148 91.6581 10.0204 96.9056 13.5824 103.936C15.7927 108.259 18.4876 112.317 21.6149 116.032C21.6149 116.032 20.9144 118.804 27.0619 122.073C30.832 124.081 35.328 123.72 37.9475 123.156C37.8456 122.731 37.7437 122.307 37.6503 121.882C35.7721 113.478 35.7185 104.768 37.4932 96.3409C36.4276 95.3687 34.878 93.904 34.3897 92.1676C33.8548 90.2741 33.6425 87.8159 33.3878 85.5743" fill="white"/>
<path d="M30.4117 76.561L29.5371 74.6463C29.5371 74.6463 28.446 71.9758 26.8624 71.8739C25.2788 71.7721 20.6257 72.3707 18.3671 74.9435C17.051 76.3856 15.9109 77.9789 14.9707 79.69C13.9114 82.0416 12.9858 84.4513 12.1983 86.9074C10.6148 91.6581 10.0204 96.9056 13.5824 103.936C15.7928 108.259 18.4876 112.317 21.6149 116.032C21.6149 116.032 20.9144 118.804 27.0619 122.073C30.832 124.081 35.328 123.72 37.9475 123.156C37.8456 122.731 37.7437 122.307 37.6503 121.882C35.7721 113.478 35.7185 104.768 37.4932 96.3409C36.4276 95.3687 34.878 93.904 34.3897 92.1676C33.8548 90.2741 33.6425 87.8159 33.3878 85.5743" stroke="#212121" stroke-width="0.8025" stroke-linecap="round" stroke-linejoin="round"/>
<path d="M15.3951 79.0059L14.6055 82.0711C14.8296 82.8155 15.223 83.498 15.7547 84.0651C16.2865 84.6323 16.9423 85.0687 17.6707 85.3402C20.1459 86.2318 24.506 86.5289 26.1873 84.1514C27.8685 81.7739 25.2957 79.0059 25.2957 79.0059H15.3951Z" fill="white" stroke="#212121" stroke-width="0.8025" stroke-linecap="round" stroke-linejoin="round"/>
<path d="M24.9817 61.7777C25.3689 62.1223 25.7024 62.523 25.9709 62.9664C26.5653 63.858 26.2681 64.6646 27.1596 64.8472C28.0512 65.0297 29.4395 63.858 29.7324 65.1444C30.0254 66.4308 29.2399 69.0036 29.2399 69.0036C29.2399 69.0036 29.7324 72.867 29.5371 74.6459C29.3418 76.4248 29.0404 77.4182 28.1488 77.8173C27.6754 78.0375 27.1782 78.2028 26.6671 78.3098L24.6845 82.5553C24.6845 82.5553 22.5065 83.1497 19.437 81.7614C16.3675 80.3731 15.3953 79.006 15.3953 79.006C15.3953 79.006 13.3149 77.5201 12.5253 75.4398C11.7356 73.3595 19.7427 70.689 21.8315 67.1228C23.9203 63.5566 23.8863 61.1833 24.9817 61.7777Z" fill="#CCCCCC" stroke="#212121" stroke-width="0.8025" stroke-linecap="round" stroke-linejoin="round"/>
<path d="M22.4093 78.6073C23.0582 78.3696 23.6448 77.9878 24.125 77.4907C24.6052 76.9936 24.9664 76.3941 25.1816 75.7373C25.1816 75.7373 24.8844 76.8242 23.1989 77.3209C21.5134 77.8176 20.2271 76.0473 20.4266 73.7589C20.6261 71.4706 22.6046 71.7762 22.9017 71.9758C23.1989 72.1753 24.4896 72.7655 24.982 72.0734C25.4745 71.3814 22.8041 68.5114 22.8041 68.5114L23.3985 64.4485L24.4301 61.7695C23.8103 62.1941 23.4749 64.2786 21.8149 67.1231C19.7346 70.6894 11.7148 73.3598 12.5087 75.4401C13.3026 77.5205 15.3787 79.0064 15.3787 79.0064C16.8646 79.6899 20.1294 79.4989 22.4093 78.6073Z" fill="#212121"/>
<path d="M6.76428 68.8091L12.5085 75.4449C12.5085 75.4449 15.7733 74.651 20.6259 70.8894C22.0268 69.8299 23.1533 68.4502 23.9112 66.8657C24.669 65.2813 25.0362 63.5383 24.9819 61.7828C24.9819 61.7828 19.4372 57.5372 18.0531 56.8325C16.6691 56.1277 11.9141 57.325 9.13753 60.594C6.36095 63.8631 6.05528 67.4208 6.76428 68.8091Z" fill="white" stroke="#212121" stroke-width="0.8025" stroke-linecap="round" stroke-linejoin="round"/>
<path d="M15.043 66.431C16.9917 64.4696 18.0531 61.8501 18.0531 60.292" stroke="#212121" stroke-width="0.8025" stroke-linecap="round" stroke-linejoin="round"/>
<path d="M8.05078 68.5116C8.05078 68.5116 9.43907 69.8956 12.8058 68.1125C13.1236 67.9425 13.4313 67.7539 13.7271 67.5479" stroke="#212121" stroke-width="0.8025" stroke-linecap="round" stroke-linejoin="round"/>
<path d="M29.2405 71.5811C29.2405 71.5811 29.1428 72.9651 27.9668 73.1646" stroke="#212121" stroke-width="0.8025" stroke-linecap="round" stroke-linejoin="round"/>
<path d="M26.6246 65.8638C26.8878 66.4072 26.9388 66.9252 26.7392 67.0186C26.5397 67.112 26.1703 66.7511 25.8901 66.2077C25.6099 65.6643 25.5802 65.1506 25.7755 65.0529C25.9708 64.9553 26.3656 65.3204 26.6246 65.8638Z" fill="#212121"/>
<path d="M44.4434 99.2492C44.4434 99.2492 46.685 97.0798 47.3558 96.3326C48.0266 95.5853 48.553 95.6618 49.5974 95.2882C50.7019 94.8064 51.7753 94.2562 52.8113 93.6409C53.1127 93.4923 53.7114 93.9423 53.3377 94.5409C52.9641 95.1396 52.8113 95.0631 52.2891 95.5132C51.7669 95.9632 50.8711 96.5576 50.7183 96.7868C50.5654 97.0161 53.3377 96.4132 53.7835 96.1882C54.2293 95.9632 55.3544 94.49 55.6516 94.1716C55.9487 93.8532 56.4752 93.4244 56.7002 94.0187C56.9252 94.6131 55.8766 95.717 55.002 97.4576C54.1274 99.1983 51.7117 101.198 50.5187 101.495C49.3257 101.792 46.9312 102.017 46.4048 102.094C45.8783 102.17 44.4434 99.2492 44.4434 99.2492Z" fill="#CCCCCC" stroke="#212121" stroke-width="0.8025" stroke-miterlimit="10"/>
<path d="M50.7179 96.7832L48.9263 98.4262" stroke="#212121" stroke-width="0.8025" stroke-miterlimit="10"/>
<path d="M15.667 93.943C15.667 93.943 15.5906 101.343 17.31 104.629C19.0295 107.915 23.8864 113.969 25.0836 115.918C26.2808 117.867 30.9127 119.352 32.2585 118.605C33.6044 117.858 47.5807 102.472 47.5807 102.472L44.4432 99.2584L32.4836 108.004C32.4836 108.004 31.5877 106.731 31.4349 106.506C30.9882 106.1 30.5144 105.726 30.0169 105.385C30.0169 105.385 29.9405 101.139 29.1211 99.5556C27.7139 97.2374 26.086 95.0606 24.26 93.0557" fill="white"/>
<path d="M15.667 93.943C15.667 93.943 15.5906 101.343 17.31 104.629C19.0295 107.915 23.8864 113.969 25.0836 115.918C26.2808 117.867 30.9127 119.352 32.2585 118.605C33.6044 117.858 47.5807 102.472 47.5807 102.472L44.4432 99.2584L32.4836 108.004C32.4836 108.004 31.5877 106.731 31.4349 106.506C30.9882 106.1 30.5144 105.726 30.0169 105.385C30.0169 105.385 29.9405 101.139 29.1211 99.5556C27.7139 97.2374 26.086 95.0606 24.26 93.0557" stroke="#212121" stroke-width="0.8025" stroke-miterlimit="10"/>
<g opacity="0.3">
<path opacity="0.3" d="M55.4971 18.8662L60.821 24.1901" stroke="#212121" stroke-width="0.8025" stroke-linecap="round" stroke-linejoin="round"/>
<path opacity="0.3" d="M60.821 18.8662L55.4971 24.1901" stroke="#212121" stroke-width="0.8025" stroke-linecap="round" stroke-linejoin="round"/>
<path opacity="0.3" d="M7 186.038L12.3281 191.362" stroke="#212121" stroke-width="0.8025" stroke-linecap="round" stroke-linejoin="round"/>
<path opacity="0.3" d="M12.3281 186.038L7 191.362" stroke="#212121" stroke-width="0.8025" stroke-linecap="round" stroke-linejoin="round"/>
<path opacity="0.3" d="M20.5562 41.2578L23.9696 44.6755" stroke="#212121" stroke-width="0.8025" stroke-linecap="round" stroke-linejoin="round"/>
<path opacity="0.3" d="M23.9696 41.2578L20.5562 44.6755" stroke="#212121" stroke-width="0.8025" stroke-linecap="round" stroke-linejoin="round"/>
<path opacity="0.3" d="M132.456 186.038L135.869 189.451" stroke="#212121" stroke-width="0.8025" stroke-linecap="round" stroke-linejoin="round"/>
<path opacity="0.3" d="M135.869 186.038L132.456 189.451" stroke="#212121" stroke-width="0.8025" stroke-linecap="round" stroke-linejoin="round"/>
<path opacity="0.3" d="M25.0264 168.267L28.4398 171.68" stroke="#212121" stroke-width="0.8025" stroke-linecap="round" stroke-linejoin="round"/>
<path opacity="0.3" d="M28.4398 168.267L25.0264 171.68" stroke="#212121" stroke-width="0.8025" stroke-linecap="round" stroke-linejoin="round"/>
<path opacity="0.3" d="M137.074 15.5547L140.488 18.9681" stroke="#212121" stroke-width="0.8025" stroke-linecap="round" stroke-linejoin="round"/>
<path opacity="0.3" d="M182.455 62.6416L185.868 66.0592" stroke="#212121" stroke-width="0.8025" stroke-linecap="round" stroke-linejoin="round"/>
<path opacity="0.3" d="M185.868 62.6416L182.455 66.0592" stroke="#212121" stroke-width="0.8025" stroke-linecap="round" stroke-linejoin="round"/>
<path opacity="0.3" d="M140.488 15.5547L137.074 18.9681" stroke="#212121" stroke-width="0.8025" stroke-linecap="round" stroke-linejoin="round"/>
<path opacity="0.3" d="M173.119 136.639L176.533 140.056" stroke="#212121" stroke-width="0.8025" stroke-linecap="round" stroke-linejoin="round"/>
<path opacity="0.3" d="M176.533 136.639L173.119 140.056" stroke="#212121" stroke-width="0.8025" stroke-linecap="round" stroke-linejoin="round"/>
<path opacity="0.3" d="M54.5459 183.126L57.9593 186.544" stroke="#212121" stroke-width="0.8025" stroke-linecap="round" stroke-linejoin="round"/>
<path opacity="0.3" d="M57.9593 183.126L54.5459 186.544" stroke="#212121" stroke-width="0.8025" stroke-linecap="round" stroke-linejoin="round"/>
<path opacity="0.3" d="M181.652 25.8962C181.652 25.4764 181.528 25.0659 181.295 24.7169C181.061 24.3678 180.73 24.0957 180.342 23.935C179.954 23.7744 179.527 23.7323 179.115 23.8142C178.704 23.8961 178.325 24.0983 178.028 24.3952C177.732 24.6921 177.529 25.0703 177.448 25.4821C177.366 25.8938 177.408 26.3207 177.568 26.7086C177.729 27.0964 178.001 27.428 178.35 27.6612C178.699 27.8945 179.11 28.019 179.53 28.019C180.093 28.019 180.632 27.7953 181.031 27.3972C181.429 26.9991 181.652 26.4592 181.652 25.8962Z" stroke="#212121" stroke-width="0.8025" stroke-linecap="round" stroke-linejoin="round"/>
<path opacity="0.3" d="M81.955 11.1228C81.955 10.7029 81.8305 10.2925 81.5973 9.94342C81.364 9.59433 81.0325 9.32225 80.6446 9.16159C80.2567 9.00092 79.8299 8.95888 79.4181 9.04079C79.0063 9.1227 78.6281 9.32487 78.3312 9.62174C78.0343 9.91862 77.8322 10.2969 77.7503 10.7086C77.6684 11.1204 77.7104 11.5472 77.8711 11.9351C78.0317 12.323 78.3038 12.6545 78.6529 12.8878C79.002 13.121 79.4124 13.2455 79.8322 13.2455C80.3952 13.2455 80.9352 13.0219 81.3333 12.6238C81.7314 12.2257 81.955 11.6858 81.955 11.1228V11.1228Z" stroke="#212121" stroke-width="0.8025" stroke-linecap="round" stroke-linejoin="round"/>
<path opacity="0.3" d="M34.9655 20.1742C36.1308 20.1742 37.0755 19.2295 37.0755 18.0641C37.0755 16.8988 36.1308 15.9541 34.9655 15.9541C33.8002 15.9541 32.8555 16.8988 32.8555 18.0641C32.8555 19.2295 33.8002 20.1742 34.9655 20.1742Z" stroke="#212121" stroke-width="0.8025" stroke-linecap="round" stroke-linejoin="round"/>
<path opacity="0.3" d="M11.4706 140.055C11.4706 139.636 11.3461 139.225 11.1129 138.876C10.8796 138.527 10.5481 138.255 10.1602 138.094C9.77233 137.934 9.34551 137.892 8.93373 137.973C8.52196 138.055 8.14372 138.257 7.84684 138.554C7.54997 138.851 7.34779 139.229 7.26589 139.641C7.18398 140.053 7.22602 140.48 7.38669 140.868C7.54735 141.256 7.81943 141.587 8.16852 141.82C8.51761 142.054 8.92802 142.178 9.34786 142.178C9.91086 142.178 10.4508 141.954 10.8489 141.556C11.247 141.158 11.4706 140.618 11.4706 140.055V140.055Z" stroke="#212121" stroke-width="0.8025" stroke-linecap="round" stroke-linejoin="round"/>
<path opacity="0.3" d="M154.244 173.489C154.244 173.069 154.119 172.659 153.886 172.31C153.653 171.961 153.321 171.688 152.933 171.528C152.545 171.367 152.118 171.325 151.707 171.407C151.295 171.489 150.917 171.691 150.62 171.988C150.323 172.285 150.121 172.663 150.039 173.075C149.957 173.487 149.999 173.913 150.16 174.301C150.32 174.689 150.592 175.021 150.941 175.254C151.291 175.487 151.701 175.612 152.121 175.612C152.684 175.612 153.224 175.388 153.622 174.99C154.02 174.592 154.244 174.052 154.244 173.489V173.489Z" stroke="#212121" stroke-width="0.8025" stroke-linecap="round" stroke-linejoin="round"/>
<path opacity="0.3" d="M184.366 128.299C184.366 127.879 184.241 127.468 184.008 127.119C183.775 126.77 183.443 126.498 183.055 126.337C182.667 126.177 182.241 126.135 181.829 126.217C181.417 126.298 181.039 126.501 180.742 126.798C180.445 127.094 180.243 127.473 180.161 127.884C180.079 128.296 180.121 128.723 180.282 129.111C180.442 129.499 180.714 129.83 181.064 130.064C181.413 130.297 181.823 130.421 182.243 130.421C182.806 130.421 183.346 130.198 183.744 129.8C184.142 129.401 184.366 128.862 184.366 128.299V128.299Z" stroke="#212121" stroke-width="0.8025" stroke-linecap="round" stroke-linejoin="round"/>
<path opacity="0.3" d="M173.089 162.863C173.09 162.488 172.98 162.121 172.772 161.809C172.565 161.498 172.269 161.254 171.923 161.11C171.577 160.966 171.197 160.928 170.829 161.001C170.461 161.073 170.124 161.253 169.858 161.518C169.593 161.783 169.412 162.12 169.339 162.487C169.266 162.855 169.303 163.236 169.446 163.582C169.589 163.928 169.832 164.224 170.143 164.432C170.455 164.641 170.821 164.752 171.196 164.752C171.697 164.752 172.178 164.553 172.533 164.199C172.888 163.845 173.088 163.364 173.089 162.863Z" stroke="#212121" stroke-width="0.8025" stroke-linecap="round" stroke-linejoin="round"/>
<path opacity="0.3" d="M177.738 173.791L181.152 177.204" stroke="#212121" stroke-width="0.8025" stroke-linecap="round" stroke-linejoin="round"/>
<path opacity="0.3" d="M181.152 173.791L177.738 177.204" stroke="#212121" stroke-width="0.8025" stroke-linecap="round" stroke-linejoin="round"/>
<path opacity="0.3" d="M36.8588 67.9785C36.8588 67.604 36.7477 67.2379 36.5397 66.9265C36.3316 66.6151 36.0359 66.3724 35.6899 66.2291C35.3439 66.0858 34.9632 66.0483 34.5959 66.1213C34.2286 66.1944 33.8912 66.3747 33.6264 66.6396C33.3616 66.9044 33.1812 67.2418 33.1082 67.6091C33.0351 67.9764 33.0726 68.3571 33.2159 68.7031C33.3592 69.0491 33.6019 69.3448 33.9133 69.5529C34.2247 69.7609 34.5908 69.872 34.9653 69.872C35.4675 69.872 35.9491 69.6725 36.3042 69.3174C36.6593 68.9623 36.8588 68.4807 36.8588 67.9785V67.9785Z" stroke="#212121" stroke-width="0.8025" stroke-linecap="round" stroke-linejoin="round"/>
</g>
</svg>
