<svg width="202" height="200" viewBox="0 0 202 200" fill="none" xmlns="http://www.w3.org/2000/svg">
<path d="M164.758 177.683L128.588 168.411H162.733L199.728 177.683H164.758Z" fill="#B75400"/>
<path d="M35.8882 177.683L72.0584 168.411H37.9183L0.918457 177.683H35.8882Z" fill="#B75400"/>
<path d="M101.992 139.113C101.992 139.113 101.958 138.942 101.904 138.625" stroke="#212121" stroke-width="0.7" stroke-miterlimit="10"/>
<path d="M101.743 137.668C101.221 134.286 100.338 125.849 103.652 122.081C107.853 117.314 112.889 121.398 126.924 122.081C140.959 122.764 148.181 120.72 148.328 108.686C148.474 96.6519 140.241 95.8564 140.241 95.8564H135.039" stroke="#212121" stroke-width="0.7" stroke-miterlimit="10" stroke-dasharray="2.01 2.01"/>
<path d="M134.547 95.876H134.059" stroke="#212121" stroke-width="0.7" stroke-miterlimit="10"/>
<path d="M134.059 58.9102H134.547" stroke="#212121" stroke-width="0.7" stroke-miterlimit="10"/>
<path d="M135.522 58.9102H153.09C153.09 58.9102 158.385 59.3689 158.165 65.4786C157.946 71.5883 149.138 77.3125 149.699 89.5123C150.26 101.712 171.078 99.892 173.913 112.107C176.748 124.321 155.921 123.711 153.983 130.016C153.374 131.429 153.075 132.957 153.105 134.496C153.105 136.545 153.105 141.416 153.105 143.499" stroke="#212121" stroke-width="0.7" stroke-miterlimit="10" stroke-dasharray="2 2"/>
<path d="M153.105 143.992V144.48" stroke="#212121" stroke-width="0.7" stroke-miterlimit="10"/>
<path d="M69.3894 24.3311H68.9014" stroke="#212121" stroke-width="0.7" stroke-miterlimit="10"/>
<path d="M67.93 24.3312H59.3266C59.3266 24.3312 35.9028 24.0628 35.9028 43.851C35.9028 53.0107 39.0846 59.8573 48.5126 71.1105C57.9407 82.3636 57.7845 117.538 54.7199 123.848C51.6553 130.158 45.1552 129.216 42.8714 132.632C42.8714 132.632 41.2269 134.355 41.0853 136.458C40.9731 138.112 41.0365 143.534 41.0853 145.759" stroke="#212121" stroke-width="0.7" stroke-miterlimit="10" stroke-dasharray="1.99 1.99"/>
<path d="M41.061 146.271C41.061 146.579 41.061 146.759 41.061 146.759" stroke="#212121" stroke-width="0.7" stroke-miterlimit="10"/>
<path d="M74.6547 49.8099C73.6005 49.8115 72.5653 50.0909 71.6535 50.62C71.7378 50.1513 71.7802 49.6761 71.7804 49.1999C71.782 47.1318 71.0111 45.1376 69.6188 43.6084C68.2265 42.0791 66.3131 41.125 64.2539 40.9332C62.1947 40.7414 60.1381 41.3257 58.4872 42.5715C56.8364 43.8173 55.7105 45.6348 55.3301 47.6676C54.3288 47.3022 53.2597 47.1598 52.1977 47.2505C51.1356 47.3412 50.1062 47.6627 49.1813 48.1926C48.2564 48.7226 47.4585 49.4481 46.8432 50.3185C46.2279 51.1889 45.8101 52.1832 45.619 53.2318C45.428 54.2805 45.4682 55.3582 45.737 56.3897C46.0058 57.4212 46.4966 58.3815 47.1752 59.2036C47.8537 60.0256 48.7036 60.6896 49.6655 61.149C50.6273 61.6084 51.6779 61.8522 52.7437 61.8634H74.6596C76.258 61.8634 77.7909 61.2284 78.9211 60.0982C80.0514 58.968 80.6863 57.4351 80.6863 55.8367C80.6863 54.2383 80.0514 52.7053 78.9211 51.5751C77.7909 50.4449 76.258 49.8099 74.6596 49.8099H74.6547Z" fill="white" stroke="#212121" stroke-width="0.7" stroke-miterlimit="10"/>
<path d="M167.301 74.2974C166.177 74.298 165.073 74.5942 164.099 75.1563C164.186 74.6582 164.23 74.1538 164.231 73.6484C164.232 71.4471 163.41 69.325 161.928 67.6977C160.445 66.0705 158.409 65.0555 156.217 64.8515C154.025 64.6475 151.836 65.2693 150.079 66.5951C148.322 67.9208 147.123 69.8549 146.717 72.0185C145.648 71.6216 144.505 71.4639 143.368 71.5562C142.231 71.6486 141.128 71.9889 140.137 72.5532C139.146 73.1175 138.291 73.8921 137.631 74.8225C136.971 75.7529 136.523 76.8165 136.319 77.9385C136.114 79.0605 136.158 80.2138 136.447 81.3171C136.736 82.4203 137.263 83.4469 137.992 84.3246C138.72 85.2023 139.632 85.9097 140.663 86.3972C141.694 86.8847 142.819 87.1404 143.96 87.1463H167.301C169.003 87.1463 170.635 86.4702 171.838 85.2668C173.042 84.0633 173.718 82.4311 173.718 80.7292C173.718 79.0273 173.042 77.395 171.838 76.1916C170.635 74.9881 169.003 74.3121 167.301 74.3121V74.2974Z" fill="white" stroke="#212121" stroke-width="0.7" stroke-miterlimit="10"/>
<path d="M163.153 88.7812H165.105" stroke="#212121" stroke-width="0.7" stroke-linecap="round" stroke-linejoin="round"/>
<path d="M153.637 88.7812H160.469" stroke="#212121" stroke-width="0.7" stroke-linecap="round" stroke-linejoin="round"/>
<path d="M147.176 65.2062C148.175 64.3664 149.409 63.8551 150.709 63.7422" stroke="#212121" stroke-width="0.7" stroke-linecap="round" stroke-linejoin="round"/>
<path d="M144.853 68.7732C145.029 68.0015 145.361 67.2741 145.829 66.6357" stroke="#212121" stroke-width="0.7" stroke-linecap="round" stroke-linejoin="round"/>
<path d="M70.7509 104.006C69.0613 104.007 67.4018 104.453 65.9392 105.299C66.0729 104.55 66.1398 103.791 66.1393 103.03C66.1417 99.7216 64.9079 96.5314 62.6799 94.0855C60.4518 91.6395 57.3904 90.1142 54.0959 89.8087C50.8014 89.5032 47.5116 90.4395 44.8718 92.4341C42.232 94.4287 40.4326 97.3376 39.8266 100.59C38.224 100.002 36.5121 99.7715 34.811 99.9145C33.1098 100.057 31.4605 100.571 29.9785 101.418C28.4965 102.265 27.2177 103.427 26.2316 104.82C25.2455 106.214 24.5759 107.806 24.2699 109.485C23.9638 111.165 24.0286 112.891 24.4596 114.543C24.8907 116.195 25.6777 117.732 26.7655 119.048C27.8533 120.364 29.2155 121.426 30.7569 122.16C32.2982 122.893 33.9813 123.282 35.6884 123.297H70.7509C73.2701 123.24 75.6671 122.199 77.4287 120.398C79.1904 118.596 80.1767 116.176 80.1767 113.656C80.1767 111.136 79.1904 108.717 77.4287 106.915C75.6671 105.113 73.2701 104.073 70.7509 104.016V104.006Z" fill="white" stroke="#212121" stroke-width="0.7" stroke-miterlimit="10"/>
<path d="M26.6846 122.315C27.1755 122.641 27.6892 122.932 28.2218 123.184" stroke="#212121" stroke-width="0.7" stroke-linecap="round" stroke-linejoin="round"/>
<path d="M22.854 117.816C23.3214 118.928 24.001 119.937 24.8548 120.788" stroke="#212121" stroke-width="0.7" stroke-linecap="round" stroke-linejoin="round"/>
<path d="M44.4868 89.025C46.5137 87.6302 48.9446 86.944 51.4017 87.073" stroke="#212121" stroke-width="0.7" stroke-linecap="round" stroke-linejoin="round"/>
<path d="M42.374 90.9768C42.7142 90.5325 43.1002 90.1252 43.5257 89.7617" stroke="#212121" stroke-width="0.7" stroke-linecap="round" stroke-linejoin="round"/>
<path d="M134.058 56.2119H131.74V62.3411H134.058V56.2119Z" fill="#212121" stroke="#212121" stroke-width="0.7" stroke-miterlimit="10"/>
<path d="M134.058 92.3672H131.74V98.4964H134.058V92.3672Z" fill="#212121" stroke="#212121" stroke-width="0.7" stroke-miterlimit="10"/>
<path d="M71.7066 20.749H69.3887V26.8782H71.7066V20.749Z" fill="#212121" stroke="#212121" stroke-width="0.7" stroke-miterlimit="10"/>
<path d="M71.7066 74.5215H69.3887V80.6507H71.7066V74.5215Z" fill="#212121" stroke="#212121" stroke-width="0.7" stroke-miterlimit="10"/>
<path d="M132.501 17.3574H71.4873V30.5723H132.501V17.3574Z" fill="white" stroke="#212121" stroke-width="0.7" stroke-miterlimit="10"/>
<path d="M116.47 20.7295H74.4199V27.2003H116.47V20.7295Z" fill="#B75400" stroke="#212121" stroke-width="0.7" stroke-miterlimit="10"/>
<path d="M122.166 25.3116C123.066 25.3116 123.795 24.5818 123.795 23.6817C123.795 22.7815 123.066 22.0518 122.166 22.0518C121.265 22.0518 120.536 22.7815 120.536 23.6817C120.536 24.5818 121.265 25.3116 122.166 25.3116Z" fill="white" stroke="#212121" stroke-width="0.7" stroke-miterlimit="10"/>
<path d="M130.183 23.6817C130.183 23.3593 130.088 23.0442 129.908 22.7761C129.729 22.5081 129.475 22.2992 129.177 22.1758C128.879 22.0525 128.551 22.0202 128.235 22.0831C127.919 22.146 127.629 22.3012 127.401 22.5291C127.173 22.7571 127.018 23.0475 126.955 23.3637C126.892 23.6799 126.924 24.0076 127.047 24.3054C127.171 24.6032 127.38 24.8578 127.648 25.0369C127.916 25.216 128.231 25.3116 128.553 25.3116C128.986 25.3116 129.4 25.1398 129.706 24.8342C130.011 24.5285 130.183 24.1139 130.183 23.6817V23.6817Z" fill="#B75400" stroke="#212121" stroke-width="0.7" stroke-miterlimit="10"/>
<path d="M112.655 25.3116C113.555 25.3116 114.285 24.5818 114.285 23.6817C114.285 22.7815 113.555 22.0518 112.655 22.0518C111.755 22.0518 111.025 22.7815 111.025 23.6817C111.025 24.5818 111.755 25.3116 112.655 25.3116Z" fill="white" stroke="#212121" stroke-width="0.7" stroke-miterlimit="10"/>
<path d="M130.188 30.5723H73.8052V35.096H130.188V30.5723Z" fill="#212121" stroke="#212121" stroke-width="0.7" stroke-miterlimit="10"/>
<path d="M132.501 35.0957H71.4873V48.3106H132.501V35.0957Z" fill="white" stroke="#212121" stroke-width="0.7" stroke-miterlimit="10"/>
<path d="M116.47 38.4678H74.4199V44.9386H116.47V38.4678Z" fill="#B75400" stroke="#212121" stroke-width="0.7" stroke-miterlimit="10"/>
<path d="M122.166 43.0547C123.066 43.0547 123.795 42.325 123.795 41.4248C123.795 40.5247 123.066 39.7949 122.166 39.7949C121.265 39.7949 120.536 40.5247 120.536 41.4248C120.536 42.325 121.265 43.0547 122.166 43.0547Z" fill="#B75400" stroke="#212121" stroke-width="0.7" stroke-miterlimit="10"/>
<path d="M130.183 41.4248C130.183 41.1025 130.088 40.7873 129.908 40.5193C129.729 40.2513 129.475 40.0424 129.177 39.919C128.879 39.7956 128.551 39.7633 128.235 39.8262C127.919 39.8891 127.629 40.0444 127.401 40.2723C127.173 40.5003 127.018 40.7907 126.955 41.1068C126.892 41.423 126.924 41.7507 127.047 42.0486C127.171 42.3464 127.38 42.6009 127.648 42.78C127.916 42.9591 128.231 43.0547 128.553 43.0547C128.767 43.0554 128.98 43.0137 129.178 42.932C129.376 42.8503 129.556 42.7303 129.707 42.5788C129.859 42.4273 129.979 42.2474 130.06 42.0493C130.142 41.8513 130.184 41.6391 130.183 41.4248V41.4248Z" fill="white" stroke="#212121" stroke-width="0.7" stroke-miterlimit="10"/>
<path d="M112.655 43.0547C113.555 43.0547 114.285 42.325 114.285 41.4248C114.285 40.5247 113.555 39.7949 112.655 39.7949C111.755 39.7949 111.025 40.5247 111.025 41.4248C111.025 42.325 111.755 43.0547 112.655 43.0547Z" fill="white" stroke="#212121" stroke-width="0.7" stroke-miterlimit="10"/>
<path d="M130.188 48.3154H73.8052V52.8391H130.188V48.3154Z" fill="#212121" stroke="#212121" stroke-width="0.7" stroke-miterlimit="10"/>
<path d="M132.501 52.8398H71.4873V66.0548H132.501V52.8398Z" fill="white" stroke="#212121" stroke-width="0.7" stroke-miterlimit="10"/>
<path d="M116.47 56.2119H74.4199V62.6827H116.47V56.2119Z" fill="#B75400" stroke="#212121" stroke-width="0.7" stroke-miterlimit="10"/>
<path d="M122.166 60.794C123.066 60.794 123.795 60.0642 123.795 59.1641C123.795 58.2639 123.066 57.5342 122.166 57.5342C121.265 57.5342 120.536 58.2639 120.536 59.1641C120.536 60.0642 121.265 60.794 122.166 60.794Z" fill="white" stroke="#212121" stroke-width="0.7" stroke-miterlimit="10"/>
<path d="M130.183 59.1641C130.183 58.8417 130.088 58.5266 129.908 58.2586C129.729 57.9905 129.475 57.7816 129.177 57.6582C128.879 57.5349 128.551 57.5026 128.235 57.5655C127.919 57.6284 127.629 57.7836 127.401 58.0116C127.173 58.2395 127.018 58.5299 126.955 58.8461C126.892 59.1623 126.924 59.49 127.047 59.7878C127.171 60.0856 127.38 60.3402 127.648 60.5193C127.916 60.6984 128.231 60.794 128.553 60.794C128.986 60.794 129.4 60.6223 129.706 60.3166C130.011 60.0109 130.183 59.5964 130.183 59.1641V59.1641Z" fill="#B75400" stroke="#212121" stroke-width="0.7" stroke-miterlimit="10"/>
<path d="M112.655 60.794C113.555 60.794 114.285 60.0642 114.285 59.1641C114.285 58.2639 113.555 57.5342 112.655 57.5342C111.755 57.5342 111.025 58.2639 111.025 59.1641C111.025 60.0642 111.755 60.794 112.655 60.794Z" fill="white" stroke="#212121" stroke-width="0.7" stroke-miterlimit="10"/>
<path d="M130.188 66.0547H73.8052V70.5784H130.188V66.0547Z" fill="#212121" stroke="#212121" stroke-width="0.7" stroke-miterlimit="10"/>
<path d="M132.501 70.5781H71.4873V83.793H132.501V70.5781Z" fill="white" stroke="#212121" stroke-width="0.7" stroke-miterlimit="10"/>
<path d="M116.47 73.9502H74.4199V80.421H116.47V73.9502Z" fill="#B75400" stroke="#212121" stroke-width="0.7" stroke-miterlimit="10"/>
<path d="M122.166 78.5372C123.066 78.5372 123.795 77.8074 123.795 76.9072C123.795 76.0071 123.066 75.2773 122.166 75.2773C121.265 75.2773 120.536 76.0071 120.536 76.9072C120.536 77.8074 121.265 78.5372 122.166 78.5372Z" fill="#B75400" stroke="#212121" stroke-width="0.7" stroke-miterlimit="10"/>
<path d="M130.183 76.9072C130.183 76.5849 130.088 76.2698 129.908 76.0017C129.729 75.7337 129.475 75.5248 129.177 75.4014C128.879 75.278 128.551 75.2458 128.235 75.3087C127.919 75.3716 127.629 75.5268 127.401 75.7547C127.173 75.9827 127.018 76.2731 126.955 76.5893C126.892 76.9054 126.924 77.2332 127.047 77.531C127.171 77.8288 127.38 78.0834 127.648 78.2625C127.916 78.4416 128.231 78.5371 128.553 78.5371C128.767 78.5378 128.98 78.4961 129.178 78.4144C129.376 78.3327 129.556 78.2127 129.707 78.0612C129.859 77.9097 129.979 77.7298 130.06 77.5317C130.142 77.3337 130.184 77.1215 130.183 76.9072V76.9072Z" fill="white" stroke="#212121" stroke-width="0.7" stroke-miterlimit="10"/>
<path d="M112.655 78.5372C113.555 78.5372 114.285 77.8074 114.285 76.9072C114.285 76.0071 113.555 75.2773 112.655 75.2773C111.755 75.2773 111.025 76.0071 111.025 76.9072C111.025 77.8074 111.755 78.5372 112.655 78.5372Z" fill="white" stroke="#212121" stroke-width="0.7" stroke-miterlimit="10"/>
<path d="M130.188 83.7979H73.8052V88.3216H130.188V83.7979Z" fill="#212121" stroke="#212121" stroke-width="0.7" stroke-miterlimit="10"/>
<path d="M132.501 88.3213H71.4873V101.536H132.501V88.3213Z" fill="white" stroke="#212121" stroke-width="0.7" stroke-miterlimit="10"/>
<path d="M116.47 91.6934H74.4199V98.1642H116.47V91.6934Z" fill="#B75400" stroke="#212121" stroke-width="0.7" stroke-miterlimit="10"/>
<path d="M122.166 96.2764C123.066 96.2764 123.795 95.5467 123.795 94.6465C123.795 93.7463 123.066 93.0166 122.166 93.0166C121.265 93.0166 120.536 93.7463 120.536 94.6465C120.536 95.5467 121.265 96.2764 122.166 96.2764Z" fill="white" stroke="#212121" stroke-width="0.7" stroke-miterlimit="10"/>
<path d="M130.183 94.6465C130.183 94.3241 130.088 94.009 129.908 93.741C129.729 93.4729 129.475 93.264 129.177 93.1407C128.879 93.0173 128.551 92.985 128.235 93.0479C127.919 93.1108 127.629 93.266 127.401 93.494C127.173 93.7219 127.018 94.0124 126.955 94.3285C126.892 94.6447 126.924 94.9724 127.047 95.2702C127.171 95.5681 127.38 95.8226 127.648 96.0017C127.916 96.1808 128.231 96.2764 128.553 96.2764C128.986 96.2764 129.4 96.1047 129.706 95.799C130.011 95.4933 130.183 95.0788 130.183 94.6465V94.6465Z" fill="#B75400" stroke="#212121" stroke-width="0.7" stroke-miterlimit="10"/>
<path d="M112.655 96.2764C113.555 96.2764 114.285 95.5467 114.285 94.6465C114.285 93.7463 113.555 93.0166 112.655 93.0166C111.755 93.0166 111.025 93.7463 111.025 94.6465C111.025 95.5467 111.755 96.2764 112.655 96.2764Z" fill="white" stroke="#212121" stroke-width="0.7" stroke-miterlimit="10"/>
<path d="M106.057 15.5811H109.473" stroke="#212121" stroke-width="0.7" stroke-linecap="round" stroke-linejoin="round"/>
<path d="M82.3892 15.5811H102.153" stroke="#212121" stroke-width="0.7" stroke-linecap="round" stroke-linejoin="round"/>
<path d="M68.9692 95.8564V98.2964" stroke="#212121" stroke-width="0.7" stroke-linecap="round" stroke-linejoin="round"/>
<path d="M68.9692 88.292V93.4159" stroke="#212121" stroke-width="0.7" stroke-linecap="round" stroke-linejoin="round"/>
<path d="M158.961 43.1961L155.545 36.4373C155.525 36.3901 155.497 36.3474 155.46 36.3118C155.424 36.2761 155.38 36.2484 155.333 36.2303C155.285 36.2122 155.234 36.2041 155.183 36.2065C155.133 36.2089 155.083 36.2217 155.037 36.2442C154.991 36.2668 154.951 36.2984 154.918 36.3373C154.885 36.3762 154.86 36.4215 154.846 36.4703C154.831 36.5191 154.827 36.5703 154.833 36.6209C154.839 36.6715 154.855 36.7203 154.881 36.7643L158.146 43.5962C158.079 43.6652 158.032 43.7515 158.011 43.8455C157.991 43.9395 157.997 44.0374 158.028 44.1281L161.483 50.6038C161.576 50.7893 161.869 50.8283 162.147 50.6917C162.425 50.555 162.572 50.2964 162.479 50.1158L159.453 43.4254C159.403 43.3426 159.33 43.2766 159.242 43.2358C159.154 43.1949 159.056 43.1811 158.961 43.1961Z" fill="#212121"/>
<path d="M177.875 43.1961L181.316 36.4373C181.358 36.35 181.433 36.283 181.525 36.251C181.616 36.219 181.716 36.2246 181.804 36.2665C181.889 36.3106 181.955 36.3857 181.987 36.4765C182.018 36.5673 182.014 36.6668 181.975 36.7545L178.705 43.5865C178.774 43.6545 178.82 43.7414 178.839 43.8361C178.859 43.9308 178.849 44.029 178.812 44.1184L175.357 50.5941C175.265 50.7795 174.967 50.8185 174.694 50.6819C174.42 50.5453 174.269 50.2866 174.357 50.1061L177.387 43.4157C177.439 43.3355 177.512 43.272 177.599 43.233C177.685 43.194 177.782 43.1811 177.875 43.1961Z" fill="#212121"/>
<path d="M179.183 50.8968H157.726L159.336 48.1641H177.573L179.183 50.8968Z" fill="white" stroke="#212121" stroke-width="0.7" stroke-linecap="round" stroke-linejoin="round"/>
<path d="M179.178 50.8965H157.726V53.6293H179.178V50.8965Z" fill="white" stroke="#212121" stroke-width="0.7" stroke-linecap="round" stroke-linejoin="round"/>
<path d="M168.081 52.8684H159.834C159.674 52.8671 159.522 52.8028 159.409 52.6895C159.297 52.5761 159.234 52.423 159.234 52.2633C159.234 52.1041 159.297 51.9515 159.41 51.8389C159.522 51.7263 159.675 51.6631 159.834 51.6631H168.081C168.24 51.6631 168.393 51.7263 168.506 51.8389C168.618 51.9515 168.681 52.1041 168.681 52.2633V52.2633C168.681 52.423 168.618 52.5761 168.506 52.6895C168.394 52.8028 168.241 52.8671 168.081 52.8684V52.8684Z" fill="white" stroke="#212121" stroke-width="0.7" stroke-miterlimit="10"/>
<path d="M173.073 52.7172C173.364 52.7172 173.6 52.4812 173.6 52.1901C173.6 51.899 173.364 51.6631 173.073 51.6631C172.782 51.6631 172.546 51.899 172.546 52.1901C172.546 52.4812 172.782 52.7172 173.073 52.7172Z" fill="white" stroke="#212121" stroke-width="0.7" stroke-miterlimit="10"/>
<path d="M175.786 52.1901C175.786 52.0849 175.755 51.9821 175.697 51.8946C175.638 51.8071 175.555 51.739 175.458 51.6987C175.361 51.6584 175.254 51.6479 175.151 51.6684C175.048 51.6889 174.953 51.7396 174.878 51.814C174.804 51.8884 174.753 51.9832 174.733 52.0863C174.712 52.1895 174.723 52.2965 174.763 52.3937C174.803 52.4909 174.872 52.5739 174.959 52.6324C175.047 52.6908 175.149 52.722 175.255 52.722C175.325 52.7227 175.394 52.7094 175.459 52.6829C175.524 52.6564 175.583 52.6172 175.632 52.5677C175.682 52.5182 175.721 52.4593 175.747 52.3944C175.774 52.3296 175.787 52.2602 175.786 52.1901V52.1901Z" fill="white" stroke="#212121" stroke-width="0.7" stroke-miterlimit="10"/>
<path d="M177.441 52.7172C177.732 52.7172 177.968 52.4812 177.968 52.1901C177.968 51.899 177.732 51.6631 177.441 51.6631C177.15 51.6631 176.914 51.899 176.914 52.1901C176.914 52.4812 177.15 52.7172 177.441 52.7172Z" fill="white" stroke="#212121" stroke-width="0.7" stroke-miterlimit="10"/>
<path d="M186.679 35.5303C186.748 35.8658 186.782 36.2076 186.781 36.5502C186.781 36.5941 186.781 36.6331 186.781 36.6771" stroke="#212121" stroke-width="0.7" stroke-linecap="round" stroke-linejoin="round"/>
<path d="M178.929 32.3089C179.559 31.8943 180.274 31.6255 181.021 31.5223C181.768 31.4191 182.528 31.4839 183.247 31.7121C183.966 31.9403 184.624 32.3261 185.175 32.8413C185.726 33.3566 186.154 33.9883 186.43 34.6903" stroke="#212121" stroke-width="0.7" stroke-linecap="round" stroke-linejoin="round"/>
<path d="M180.345 33.0459C180.073 33.1521 179.814 33.2897 179.574 33.4558" stroke="#212121" stroke-width="0.7" stroke-linecap="round" stroke-linejoin="round"/>
<path d="M185.464 36.6423C185.466 36.6115 185.466 36.5805 185.464 36.5496C185.464 35.5517 185.067 34.5948 184.362 33.8892C183.656 33.1836 182.699 32.7872 181.701 32.7872C181.505 32.786 181.309 32.8024 181.116 32.836" stroke="#212121" stroke-width="0.7" stroke-linecap="round" stroke-linejoin="round"/>
<path d="M184.244 36.6127V36.5493C184.244 35.8763 183.976 35.2308 183.5 34.755C183.025 34.2791 182.379 34.0117 181.706 34.0117C181.152 34.0113 180.613 34.1949 180.174 34.5339" stroke="#212121" stroke-width="0.7" stroke-linecap="round" stroke-linejoin="round"/>
<path d="M181.174 35.2568C181.012 35.3243 180.865 35.422 180.74 35.5448" stroke="#212121" stroke-width="0.7" stroke-linecap="round" stroke-linejoin="round"/>
<path d="M183.107 36.5841V36.55C183.107 36.1785 182.959 35.8223 182.696 35.5596C182.434 35.297 182.078 35.1494 181.706 35.1494" stroke="#212121" stroke-width="0.7" stroke-linecap="round" stroke-linejoin="round"/>
<path d="M150.182 35.832C150.147 36.0728 150.129 36.3158 150.128 36.5591C150.128 36.6031 150.128 36.6421 150.128 36.686" stroke="#212121" stroke-width="0.7" stroke-linecap="round" stroke-linejoin="round"/>
<path d="M156.213 31.5771C155.881 31.5082 155.543 31.4739 155.203 31.4746C154.14 31.4742 153.104 31.8074 152.241 32.4273C151.378 33.0472 150.731 33.9224 150.392 34.9296" stroke="#212121" stroke-width="0.7" stroke-linecap="round" stroke-linejoin="round"/>
<path d="M157.98 32.3093C157.657 32.0968 157.312 31.9217 156.95 31.7871" stroke="#212121" stroke-width="0.7" stroke-linecap="round" stroke-linejoin="round"/>
<path d="M154.9 32.8018C154.998 32.8018 155.1 32.8018 155.203 32.8018C155.967 32.8025 156.712 33.0357 157.34 33.4703" stroke="#212121" stroke-width="0.7" stroke-linecap="round" stroke-linejoin="round"/>
<path d="M151.445 36.6424C151.445 36.6132 151.445 36.5839 151.445 36.5497C151.446 35.8102 151.664 35.0872 152.072 34.471C152.481 33.8548 153.063 33.3727 153.744 33.085" stroke="#212121" stroke-width="0.7" stroke-linecap="round" stroke-linejoin="round"/>
<path d="M152.661 36.6127V36.5493C152.661 35.8763 152.928 35.2308 153.404 34.755C153.88 34.2791 154.525 34.0117 155.198 34.0117C155.753 34.0113 156.292 34.1949 156.731 34.5339" stroke="#212121" stroke-width="0.7" stroke-linecap="round" stroke-linejoin="round"/>
<path d="M153.807 36.5839C153.805 36.5727 153.805 36.561 153.807 36.5498C153.806 36.2744 153.886 36.0047 154.037 35.7747C154.189 35.5447 154.405 35.3646 154.658 35.2572C154.912 35.1497 155.191 35.1196 155.462 35.1708C155.733 35.2219 155.982 35.3519 156.179 35.5445" stroke="#212121" stroke-width="0.7" stroke-linecap="round" stroke-linejoin="round"/>
<path d="M91.4808 125.829L88.0648 119.07C88.0227 118.983 87.9476 118.916 87.8561 118.884C87.7646 118.852 87.6642 118.857 87.5768 118.899C87.4913 118.943 87.4259 119.019 87.3941 119.109C87.3624 119.2 87.3666 119.3 87.406 119.387L90.6756 126.219C90.608 126.287 90.5618 126.373 90.5427 126.467C90.5236 126.56 90.5325 126.658 90.5682 126.746L94.0232 133.227C94.1159 133.407 94.4136 133.446 94.6869 133.315C94.9602 133.183 95.1115 132.919 95.0236 132.734L91.9932 126.044C91.937 125.963 91.859 125.9 91.7682 125.862C91.6775 125.824 91.5778 125.812 91.4808 125.829V125.829Z" fill="#212121"/>
<path d="M110.4 125.829L113.816 119.07C113.835 119.023 113.864 118.98 113.901 118.945C113.937 118.909 113.98 118.881 114.028 118.863C114.076 118.845 114.126 118.837 114.177 118.839C114.228 118.842 114.278 118.855 114.324 118.877C114.369 118.9 114.41 118.931 114.443 118.97C114.476 119.009 114.5 119.054 114.515 119.103C114.53 119.152 114.534 119.203 114.528 119.254C114.522 119.304 114.506 119.353 114.48 119.397L111.215 126.229C111.282 126.297 111.327 126.384 111.346 126.477C111.364 126.571 111.354 126.668 111.318 126.756L107.863 133.237C107.77 133.417 107.477 133.456 107.199 133.324C106.921 133.193 106.775 132.929 106.862 132.744L109.893 126.053C109.947 125.972 110.024 125.907 110.114 125.867C110.204 125.828 110.303 125.814 110.4 125.829V125.829Z" fill="#212121"/>
<path d="M111.703 133.529H90.251L91.8565 130.801H110.093L111.703 133.529Z" fill="white" stroke="#212121" stroke-width="0.7" stroke-linecap="round" stroke-linejoin="round"/>
<path d="M111.703 133.529H90.251V136.262H111.703V133.529Z" fill="white" stroke="#212121" stroke-width="0.7" stroke-linecap="round" stroke-linejoin="round"/>
<path d="M100.606 134.295H92.3541C92.0226 134.295 91.7539 134.564 91.7539 134.895V134.9C91.7539 135.232 92.0226 135.5 92.3541 135.5H100.606C100.938 135.5 101.206 135.232 101.206 134.9V134.895C101.206 134.564 100.938 134.295 100.606 134.295Z" fill="white" stroke="#212121" stroke-width="0.7" stroke-miterlimit="10"/>
<path d="M105.593 135.354C105.885 135.354 106.12 135.118 106.12 134.827C106.12 134.536 105.885 134.3 105.593 134.3C105.302 134.3 105.066 134.536 105.066 134.827C105.066 135.118 105.302 135.354 105.593 135.354Z" fill="white" stroke="#212121" stroke-width="0.7" stroke-miterlimit="10"/>
<path d="M108.307 134.827C108.308 134.721 108.277 134.618 108.219 134.529C108.161 134.441 108.078 134.372 107.981 134.331C107.883 134.291 107.776 134.28 107.673 134.3C107.569 134.32 107.474 134.371 107.399 134.446C107.324 134.521 107.274 134.616 107.253 134.719C107.233 134.823 107.244 134.93 107.285 135.028C107.325 135.125 107.394 135.208 107.483 135.266C107.571 135.324 107.674 135.355 107.78 135.354C107.92 135.354 108.054 135.298 108.153 135.199C108.251 135.101 108.307 134.967 108.307 134.827V134.827Z" fill="white" stroke="#212121" stroke-width="0.7" stroke-miterlimit="10"/>
<path d="M109.961 135.354C110.252 135.354 110.488 135.118 110.488 134.827C110.488 134.536 110.252 134.3 109.961 134.3C109.67 134.3 109.434 134.536 109.434 134.827C109.434 135.118 109.67 135.354 109.961 135.354Z" fill="white" stroke="#212121" stroke-width="0.7" stroke-miterlimit="10"/>
<path d="M116.764 114.785C117.535 115.23 118.176 115.87 118.623 116.641C119.069 117.412 119.305 118.286 119.306 119.177C119.306 119.221 119.306 119.26 119.306 119.304" stroke="#212121" stroke-width="0.7" stroke-linecap="round" stroke-linejoin="round"/>
<path d="M111.449 114.941C112.276 114.399 113.243 114.111 114.231 114.111C114.79 114.109 115.346 114.202 115.875 114.385" stroke="#212121" stroke-width="0.7" stroke-linecap="round" stroke-linejoin="round"/>
<path d="M113.572 115.479C113.047 115.577 112.548 115.785 112.108 116.089" stroke="#212121" stroke-width="0.7" stroke-linecap="round" stroke-linejoin="round"/>
<path d="M118.013 119.28C118.013 119.251 118.013 119.221 118.013 119.187C118.012 118.254 117.664 117.355 117.038 116.663C116.411 115.972 115.55 115.537 114.622 115.444" stroke="#212121" stroke-width="0.7" stroke-linecap="round" stroke-linejoin="round"/>
<path d="M116.061 117.42C115.825 117.176 115.543 116.981 115.23 116.848C114.917 116.716 114.581 116.648 114.241 116.649C113.686 116.65 113.146 116.831 112.704 117.167" stroke="#212121" stroke-width="0.7" stroke-linecap="round" stroke-linejoin="round"/>
<path d="M116.764 119.245C116.764 119.245 116.764 119.206 116.764 119.182C116.761 118.847 116.694 118.515 116.563 118.206" stroke="#212121" stroke-width="0.7" stroke-linecap="round" stroke-linejoin="round"/>
<path d="M113.889 117.815C113.652 117.876 113.435 117.997 113.26 118.167" stroke="#212121" stroke-width="0.7" stroke-linecap="round" stroke-linejoin="round"/>
<path d="M115.627 119.216C115.627 119.216 115.627 119.216 115.627 119.182C115.631 118.872 115.532 118.57 115.346 118.322C115.16 118.075 114.896 117.897 114.597 117.815" stroke="#212121" stroke-width="0.7" stroke-linecap="round" stroke-linejoin="round"/>
<path d="M82.7211 118.333C82.672 118.613 82.6475 118.897 82.648 119.182C82.648 119.226 82.648 119.265 82.648 119.309" stroke="#212121" stroke-width="0.7" stroke-linecap="round" stroke-linejoin="round"/>
<path d="M85.7225 114.517C85.0984 114.787 84.5345 115.18 84.0637 115.671C83.5928 116.162 83.2244 116.741 82.98 117.376" stroke="#212121" stroke-width="0.7" stroke-linecap="round" stroke-linejoin="round"/>
<path d="M90.4997 114.941C89.6751 114.399 88.7098 114.111 87.723 114.111C87.3804 114.11 87.0387 114.145 86.7031 114.214" stroke="#212121" stroke-width="0.7" stroke-linecap="round" stroke-linejoin="round"/>
<path d="M84.8828 116.717C85.4904 116.02 86.3336 115.57 87.2516 115.454C88.1696 115.338 89.0982 115.563 89.8604 116.088" stroke="#212121" stroke-width="0.7" stroke-linecap="round" stroke-linejoin="round"/>
<path d="M83.9653 119.279C83.9653 119.25 83.9653 119.221 83.9653 119.187C83.9657 118.63 84.089 118.08 84.3264 117.576" stroke="#212121" stroke-width="0.7" stroke-linecap="round" stroke-linejoin="round"/>
<path d="M85.9077 117.411C86.3403 116.969 86.9191 116.701 87.5354 116.656C88.1518 116.611 88.7634 116.793 89.2554 117.167" stroke="#212121" stroke-width="0.7" stroke-linecap="round" stroke-linejoin="round"/>
<path d="M85.1904 119.245C85.1904 119.245 85.1904 119.206 85.1904 119.182C85.1894 118.803 85.2745 118.43 85.4393 118.089" stroke="#212121" stroke-width="0.7" stroke-linecap="round" stroke-linejoin="round"/>
<path d="M86.8057 118.123C87.0713 117.897 87.4114 117.777 87.7603 117.787C88.1091 117.797 88.4418 117.936 88.6942 118.177" stroke="#212121" stroke-width="0.7" stroke-linecap="round" stroke-linejoin="round"/>
<path d="M86.3276 119.216C86.3276 119.216 86.3276 119.216 86.3276 119.182C86.3276 118.952 86.3846 118.726 86.4936 118.523" stroke="#212121" stroke-width="0.7" stroke-linecap="round" stroke-linejoin="round"/>
<path d="M12.274 84.6756L8.85803 77.9168C8.83885 77.8696 8.81016 77.8269 8.77373 77.7913C8.73731 77.7556 8.69393 77.7279 8.64632 77.7098C8.5987 77.6917 8.54786 77.6836 8.49697 77.686C8.44608 77.6884 8.39623 77.7012 8.35053 77.7237C8.30483 77.7462 8.26426 77.7779 8.23134 77.8168C8.19843 77.8557 8.17388 77.901 8.15923 77.9498C8.14457 77.9985 8.14013 78.0498 8.14617 78.1004C8.15222 78.151 8.16862 78.1998 8.19436 78.2438L11.459 85.0757C11.3912 85.1442 11.3438 85.2303 11.3222 85.3243C11.3006 85.4183 11.3058 85.5164 11.337 85.6076L14.7921 92.0882C14.8848 92.2688 15.1776 92.3078 15.4557 92.1712C15.7339 92.0345 15.8803 91.7808 15.7876 91.5953L12.762 84.9049C12.7096 84.8255 12.6363 84.7621 12.5502 84.7216C12.4642 84.6812 12.3686 84.6652 12.274 84.6756V84.6756Z" fill="#212121"/>
<path d="M31.1889 84.6755L34.6049 77.9168C34.647 77.8295 34.7221 77.7625 34.8136 77.7305C34.9051 77.6985 35.0055 77.7041 35.0929 77.746C35.1784 77.79 35.2438 77.8652 35.2756 77.956C35.3073 78.0468 35.3031 78.1463 35.2637 78.234L31.9941 85.0659C32.0688 85.132 32.1214 85.2193 32.145 85.3161C32.1685 85.413 32.1619 85.5147 32.1259 85.6076L28.6709 92.0882C28.5782 92.2688 28.2805 92.3078 28.0072 92.1712C27.7339 92.0345 27.5826 91.7808 27.6705 91.5953L30.7009 84.9049C30.7529 84.8251 30.8261 84.7614 30.9123 84.7208C30.9985 84.6803 31.0943 84.6646 31.1889 84.6755V84.6755Z" fill="#212121"/>
<path d="M32.4967 92.3763H11.0444L12.6499 89.6436H30.8863L32.4967 92.3763Z" fill="white" stroke="#212121" stroke-width="0.7" stroke-linecap="round" stroke-linejoin="round"/>
<path d="M32.4918 92.376H11.0396V95.1087H32.4918V92.376Z" fill="white" stroke="#212121" stroke-width="0.7" stroke-linecap="round" stroke-linejoin="round"/>
<path d="M21.3898 94.3479H13.1476C12.988 94.3466 12.8353 94.2823 12.7229 94.169C12.6104 94.0556 12.5474 93.9025 12.5474 93.7428V93.7428C12.5474 93.5836 12.6106 93.4309 12.7232 93.3184C12.8357 93.2058 12.9884 93.1426 13.1476 93.1426H21.3898C21.549 93.1426 21.7017 93.2058 21.8143 93.3184C21.9268 93.4309 21.9901 93.5836 21.9901 93.7428C21.9901 93.9025 21.927 94.0556 21.8146 94.169C21.7021 94.2823 21.5495 94.3466 21.3898 94.3479V94.3479Z" fill="white" stroke="#212121" stroke-width="0.7" stroke-miterlimit="10"/>
<path d="M26.3869 94.1966C26.678 94.1966 26.9139 93.9607 26.9139 93.6696C26.9139 93.3785 26.678 93.1426 26.3869 93.1426C26.0958 93.1426 25.8599 93.3785 25.8599 93.6696C25.8599 93.9607 26.0958 94.1966 26.3869 94.1966Z" fill="white" stroke="#212121" stroke-width="0.7" stroke-miterlimit="10"/>
<path d="M28.5681 94.1966C28.8591 94.1966 29.0951 93.9607 29.0951 93.6696C29.0951 93.3785 28.8591 93.1426 28.5681 93.1426C28.277 93.1426 28.041 93.3785 28.041 93.6696C28.041 93.9607 28.277 94.1966 28.5681 94.1966Z" fill="white" stroke="#212121" stroke-width="0.7" stroke-miterlimit="10"/>
<path d="M31.2816 93.6696C31.2816 93.5642 31.2503 93.4612 31.1916 93.3736C31.1329 93.286 31.0496 93.2178 30.9521 93.1777C30.8546 93.1376 30.7474 93.1274 30.6441 93.1483C30.5408 93.1692 30.446 93.2203 30.3718 93.2952C30.2976 93.3701 30.2474 93.4653 30.2274 93.5688C30.2074 93.6723 30.2187 93.7795 30.2597 93.8766C30.3007 93.9737 30.3696 94.0564 30.4577 94.1143C30.5458 94.1721 30.6492 94.2025 30.7546 94.2015C30.8242 94.2015 30.8931 94.1877 30.9574 94.1609C31.0217 94.1341 31.08 94.0949 31.129 94.0454C31.178 93.996 31.2167 93.9373 31.2429 93.8728C31.2691 93.8083 31.2822 93.7392 31.2816 93.6696V93.6696Z" fill="white" stroke="#212121" stroke-width="0.7" stroke-miterlimit="10"/>
<path d="M39.8164 76.3652C40.0011 76.9006 40.0951 77.463 40.0946 78.0293C40.0946 78.0732 40.0946 78.1122 40.0946 78.1562" stroke="#212121" stroke-width="0.7" stroke-linecap="round" stroke-linejoin="round"/>
<path d="M36.0298 73.0518C36.8064 73.2087 37.5358 73.5444 38.1601 74.0323C38.7844 74.5202 39.2864 75.1469 39.6263 75.8626" stroke="#212121" stroke-width="0.7" stroke-linecap="round" stroke-linejoin="round"/>
<path d="M32.2427 73.7886C32.9199 73.342 33.6951 73.0657 34.5021 72.9834" stroke="#212121" stroke-width="0.7" stroke-linecap="round" stroke-linejoin="round"/>
<path d="M37.8501 75.5506C37.2431 74.8561 36.4015 74.4095 35.486 74.2961C34.5706 74.1826 33.6454 74.4104 32.8872 74.9358" stroke="#212121" stroke-width="0.7" stroke-linecap="round" stroke-linejoin="round"/>
<path d="M38.7771 78.122C38.7797 78.0911 38.7797 78.0601 38.7771 78.0293C38.7778 77.4265 38.6339 76.8325 38.3574 76.2969" stroke="#212121" stroke-width="0.7" stroke-linecap="round" stroke-linejoin="round"/>
<path d="M34.4975 75.5508C34.1283 75.6354 33.783 75.8022 33.4873 76.0388" stroke="#212121" stroke-width="0.7" stroke-linecap="round" stroke-linejoin="round"/>
<path d="M37.5569 78.0932V78.0298C37.5572 77.4529 37.3605 76.8931 36.9993 76.4432C36.6381 75.9933 36.1342 75.6802 35.5708 75.5557" stroke="#212121" stroke-width="0.7" stroke-linecap="round" stroke-linejoin="round"/>
<path d="M36.1223 77.1658C36.0021 77.0113 35.8507 76.8839 35.6778 76.7919C35.505 76.6999 35.3147 76.6455 35.1194 76.6321C34.9241 76.6188 34.7282 76.6468 34.5445 76.7144C34.3607 76.782 34.1933 76.8876 34.0532 77.0243" stroke="#212121" stroke-width="0.7" stroke-linecap="round" stroke-linejoin="round"/>
<path d="M36.4204 78.0632V78.0291C36.4212 77.8919 36.4014 77.7554 36.3618 77.624" stroke="#212121" stroke-width="0.7" stroke-linecap="round" stroke-linejoin="round"/>
<path d="M7.62841 73.0322C6.45477 73.2408 5.39202 73.8559 4.62645 74.7696C3.86088 75.6833 3.44135 76.8373 3.44141 78.0293C3.44141 78.0732 3.44141 78.1123 3.44141 78.1562" stroke="#212121" stroke-width="0.7" stroke-linecap="round" stroke-linejoin="round"/>
<path d="M11.2935 73.7886C10.564 73.3104 9.72374 73.028 8.85352 72.9688" stroke="#212121" stroke-width="0.7" stroke-linecap="round" stroke-linejoin="round"/>
<path d="M9.34619 74.3838C9.81254 74.485 10.256 74.672 10.654 74.9352" stroke="#212121" stroke-width="0.7" stroke-linecap="round" stroke-linejoin="round"/>
<path d="M4.75879 78.1218C4.75879 78.0925 4.75879 78.0632 4.75879 78.0291C4.75879 77.0312 5.15519 76.0742 5.86078 75.3686C6.56638 74.663 7.52337 74.2666 8.52123 74.2666" stroke="#212121" stroke-width="0.7" stroke-linecap="round" stroke-linejoin="round"/>
<path d="M6.55957 76.4195C6.97451 75.9118 7.57079 75.5856 8.22209 75.51C8.87339 75.4344 9.52853 75.6153 10.0487 76.0144" stroke="#212121" stroke-width="0.7" stroke-linecap="round" stroke-linejoin="round"/>
<path d="M5.979 78.0931V78.0297C5.97883 77.6942 6.0469 77.3621 6.17908 77.0537" stroke="#212121" stroke-width="0.7" stroke-linecap="round" stroke-linejoin="round"/>
<path d="M8.76562 76.6533C9.03761 76.7032 9.28884 76.8322 9.48786 77.0242" stroke="#212121" stroke-width="0.7" stroke-linecap="round" stroke-linejoin="round"/>
<path d="M7.12109 78.0636C7.12109 78.0636 7.12109 78.0636 7.12109 78.0295C7.12221 77.6982 7.24034 77.3779 7.45464 77.1252C7.66893 76.8725 7.9656 76.7037 8.29228 76.6484" stroke="#212121" stroke-width="0.7" stroke-linecap="round" stroke-linejoin="round"/>
<path d="M123.898 139.112H80.4131V168.904H123.898V139.112Z" fill="#212121" stroke="#212121" stroke-width="0.7" stroke-miterlimit="10"/>
<path d="M130.423 182.075H73.8936L80.4132 168.904H123.898L130.423 182.075Z" fill="white" stroke="#212121" stroke-width="0.7" stroke-linecap="round" stroke-linejoin="round"/>
<path d="M121.263 141.47H83.0483V166.548H121.263V141.47Z" fill="white" stroke="#212121" stroke-width="0.7" stroke-miterlimit="10"/>
<path d="M107.882 151.601L102.168 144.842L96.4536 151.601H98.8448V162.185H105.491V151.601H107.882Z" fill="#B75400"/>
<path d="M100.343 173.077L100.416 171.472H98.1225L97.9663 173.077H100.343Z" fill="white" stroke="#212121" stroke-width="0.7" stroke-miterlimit="10"/>
<path d="M105.091 173.077L105.013 171.472H102.714L102.719 173.077H105.091Z" fill="white" stroke="#212121" stroke-width="0.7" stroke-miterlimit="10"/>
<path d="M117.457 174.79H119.916L119.336 173.077H116.964L117.457 174.79Z" fill="white" stroke="#212121" stroke-width="0.7" stroke-miterlimit="10"/>
<path d="M97.9664 173.077L98.1226 171.472H95.8241L95.5947 173.077H97.9664Z" fill="white" stroke="#212121" stroke-width="0.7" stroke-miterlimit="10"/>
<path d="M93.2183 173.077L93.5258 171.472H91.2273L90.8467 173.077H93.2183Z" fill="white" stroke="#212121" stroke-width="0.7" stroke-miterlimit="10"/>
<path d="M114.587 173.077L114.202 171.472H111.903L112.216 173.077H114.587Z" fill="white" stroke="#212121" stroke-width="0.7" stroke-miterlimit="10"/>
<path d="M116.964 173.077L116.5 171.472H114.202L114.587 173.077H116.964Z" fill="white" stroke="#212121" stroke-width="0.7" stroke-miterlimit="10"/>
<path d="M90.8463 173.077L91.2269 171.472H88.9284L88.4697 173.077H90.8463Z" fill="white" stroke="#212121" stroke-width="0.7" stroke-miterlimit="10"/>
<path d="M107.467 173.077L107.311 171.472H105.013L105.091 173.077H107.467Z" fill="white" stroke="#212121" stroke-width="0.7" stroke-miterlimit="10"/>
<path d="M119.336 173.077L118.799 171.472H116.5L116.964 173.077H119.336Z" fill="white" stroke="#212121" stroke-width="0.7" stroke-miterlimit="10"/>
<path d="M112.216 173.077L111.903 171.472H109.61L109.839 173.077H112.216Z" fill="white" stroke="#212121" stroke-width="0.7" stroke-miterlimit="10"/>
<path d="M109.839 173.077L109.61 171.472H107.312L107.468 173.077H109.839Z" fill="white" stroke="#212121" stroke-width="0.7" stroke-miterlimit="10"/>
<path d="M102.719 173.077L102.714 171.472H100.416L100.343 173.077H102.719Z" fill="white" stroke="#212121" stroke-width="0.7" stroke-miterlimit="10"/>
<path d="M86.0983 173.077H83.7218L83.0679 174.79H85.5225L86.0983 173.077Z" fill="white" stroke="#212121" stroke-width="0.7" stroke-miterlimit="10"/>
<path d="M86.6301 171.472H84.3366L83.7217 173.077H86.0982L86.6301 171.472Z" fill="white" stroke="#212121" stroke-width="0.7" stroke-miterlimit="10"/>
<path d="M88.4698 173.077L88.9285 171.472H86.6301L86.0981 173.077H88.4698Z" fill="white" stroke="#212121" stroke-width="0.7" stroke-miterlimit="10"/>
<path d="M82.3653 176.629L81.6089 178.605H84.2489L84.9077 176.629H82.3653Z" fill="white" stroke="#212121" stroke-width="0.7" stroke-miterlimit="10"/>
<path d="M85.5226 174.79H83.068L82.3652 176.63H84.9077L85.5226 174.79Z" fill="white" stroke="#212121" stroke-width="0.7" stroke-miterlimit="10"/>
<path d="M84.9073 176.629L84.2485 178.605H86.8886L87.4547 176.629H84.9073Z" fill="white" stroke="#212121" stroke-width="0.7" stroke-miterlimit="10"/>
<path d="M95.5948 173.077L95.8242 171.472H93.5257L93.2183 173.077H95.5948Z" fill="white" stroke="#212121" stroke-width="0.7" stroke-miterlimit="10"/>
<path d="M95.3506 174.79L95.5946 173.077H93.2181L92.8911 174.79H95.3506Z" fill="white" stroke="#212121" stroke-width="0.7" stroke-miterlimit="10"/>
<path d="M92.8911 174.79L93.2181 173.077H90.8464L90.4365 174.79H92.8911Z" fill="white" stroke="#212121" stroke-width="0.7" stroke-miterlimit="10"/>
<path d="M97.8052 174.79L97.9662 173.077H95.5946L95.3506 174.79H97.8052Z" fill="white" stroke="#212121" stroke-width="0.7" stroke-miterlimit="10"/>
<path d="M88.4699 173.077H86.0983L85.5225 174.79H87.9819L88.4699 173.077Z" fill="white" stroke="#212121" stroke-width="0.7" stroke-miterlimit="10"/>
<path d="M117.989 176.63H120.531L119.917 174.79H117.457L117.989 176.63Z" fill="white" stroke="#212121" stroke-width="0.7" stroke-miterlimit="10"/>
<path d="M90.4365 174.79L90.8465 173.077H88.4699L87.9819 174.79H90.4365Z" fill="white" stroke="#212121" stroke-width="0.7" stroke-miterlimit="10"/>
<path d="M85.5226 174.79L84.9077 176.63H87.4551L87.9821 174.79H85.5226Z" fill="white" stroke="#212121" stroke-width="0.7" stroke-miterlimit="10"/>
<path d="M112.543 174.79L112.216 173.077H109.839L110.088 174.79H112.543Z" fill="white" stroke="#212121" stroke-width="0.7" stroke-miterlimit="10"/>
<path d="M110.088 174.79L109.839 173.077H107.468L107.634 174.79H110.088Z" fill="white" stroke="#212121" stroke-width="0.7" stroke-miterlimit="10"/>
<path d="M117.457 174.79L116.964 173.077H114.587L115.002 174.79H117.457Z" fill="white" stroke="#212121" stroke-width="0.7" stroke-miterlimit="10"/>
<path d="M102.719 174.79V173.077H100.343L100.26 174.79H102.719Z" fill="white" stroke="#212121" stroke-width="0.7" stroke-miterlimit="10"/>
<path d="M107.633 174.79L107.467 173.077H105.091L105.174 174.79H107.633Z" fill="white" stroke="#212121" stroke-width="0.7" stroke-miterlimit="10"/>
<path d="M105.174 174.79L105.091 173.077H102.719V174.79H105.174Z" fill="white" stroke="#212121" stroke-width="0.7" stroke-miterlimit="10"/>
<path d="M100.26 174.79L100.343 173.077H97.9662L97.8052 174.79H100.26Z" fill="white" stroke="#212121" stroke-width="0.7" stroke-miterlimit="10"/>
<path d="M107.633 174.79L107.809 176.63H110.356L110.088 174.79H107.633Z" fill="white" stroke="#212121" stroke-width="0.7" stroke-miterlimit="10"/>
<path d="M110.088 174.79L110.356 176.63H112.899L112.543 174.79H110.088Z" fill="white" stroke="#212121" stroke-width="0.7" stroke-miterlimit="10"/>
<path d="M87.9821 174.79L87.4551 176.63H89.9975L90.4367 174.79H87.9821Z" fill="white" stroke="#212121" stroke-width="0.7" stroke-miterlimit="10"/>
<path d="M112.542 174.79L112.899 176.63H115.441L115.002 174.79H112.542Z" fill="white" stroke="#212121" stroke-width="0.7" stroke-miterlimit="10"/>
<path d="M102.719 174.79V176.63H105.267L105.174 174.79H102.719Z" fill="white" stroke="#212121" stroke-width="0.7" stroke-miterlimit="10"/>
<path d="M115.002 174.79L115.442 176.63H117.989L117.457 174.79H115.002Z" fill="white" stroke="#212121" stroke-width="0.7" stroke-miterlimit="10"/>
<path d="M105.174 174.79L105.267 176.63H107.809L107.633 174.79H105.174Z" fill="white" stroke="#212121" stroke-width="0.7" stroke-miterlimit="10"/>
<path d="M92.8909 174.79L92.5396 176.63H95.0869L95.3504 174.79H92.8909Z" fill="white" stroke="#212121" stroke-width="0.7" stroke-miterlimit="10"/>
<path d="M90.4368 174.79L89.9976 176.63H92.54L92.8914 174.79H90.4368Z" fill="white" stroke="#212121" stroke-width="0.7" stroke-miterlimit="10"/>
<path d="M100.26 174.79L100.177 176.63H102.719V174.79H100.26Z" fill="white" stroke="#212121" stroke-width="0.7" stroke-miterlimit="10"/>
<path d="M97.8051 174.79L97.6294 176.63H100.177L100.26 174.79H97.8051Z" fill="white" stroke="#212121" stroke-width="0.7" stroke-miterlimit="10"/>
<path d="M95.3504 174.79L95.0869 176.63H97.6294L97.805 174.79H95.3504Z" fill="white" stroke="#212121" stroke-width="0.7" stroke-miterlimit="10"/>
<path d="M115.002 174.79L114.587 173.077H112.216L112.543 174.79H115.002Z" fill="white" stroke="#212121" stroke-width="0.7" stroke-miterlimit="10"/>
<path d="M86.63 171.472L87.1814 169.827H84.9611L84.3364 171.472H86.63Z" fill="white" stroke="#212121" stroke-width="0.7" stroke-miterlimit="10"/>
<path d="M84.3367 171.472H82.214L81.5308 173.077H83.7219L84.3367 171.472Z" fill="white" stroke="#212121" stroke-width="0.7" stroke-miterlimit="10"/>
<path d="M84.9613 169.827H82.9166L82.2139 171.472H84.3366L84.9613 169.827Z" fill="white" stroke="#212121" stroke-width="0.7" stroke-miterlimit="10"/>
<path d="M83.7219 173.077H81.5308L80.7988 174.79H83.068L83.7219 173.077Z" fill="white" stroke="#212121" stroke-width="0.7" stroke-miterlimit="10"/>
<path d="M83.068 174.79H80.7989L80.0132 176.63H82.3653L83.068 174.79Z" fill="white" stroke="#212121" stroke-width="0.7" stroke-miterlimit="10"/>
<path d="M82.3653 176.629H80.0132L79.1738 178.605H81.6089L82.3653 176.629Z" fill="white" stroke="#212121" stroke-width="0.7" stroke-miterlimit="10"/>
<path d="M121.712 173.077L122.371 174.79H124.542L123.81 173.077H121.712Z" fill="white" stroke="#212121" stroke-width="0.7" stroke-miterlimit="10"/>
<path d="M123.079 176.63H125.328L124.543 174.79H122.371L123.079 176.63Z" fill="white" stroke="#212121" stroke-width="0.7" stroke-miterlimit="10"/>
<path d="M123.835 178.605H126.168L125.328 176.629H123.079L123.835 178.605Z" fill="white" stroke="#212121" stroke-width="0.7" stroke-miterlimit="10"/>
<path d="M105.013 171.472L104.935 169.827H102.714V171.472H105.013Z" fill="white" stroke="#212121" stroke-width="0.7" stroke-miterlimit="10"/>
<path d="M121.712 173.077H123.81L123.127 171.472H121.097L121.712 173.077Z" fill="white" stroke="#212121" stroke-width="0.7" stroke-miterlimit="10"/>
<path d="M120.531 176.63H123.079L122.371 174.79H119.917L120.531 176.63Z" fill="white" stroke="#212121" stroke-width="0.7" stroke-miterlimit="10"/>
<path d="M88.9288 171.472L89.4022 169.827H87.1818L86.6304 171.472H88.9288Z" fill="white" stroke="#212121" stroke-width="0.7" stroke-miterlimit="10"/>
<path d="M118.799 171.472L119.336 173.077H121.712L121.097 171.472H118.799Z" fill="white" stroke="#212121" stroke-width="0.7" stroke-miterlimit="10"/>
<path d="M123.127 171.472L122.43 169.827H120.463L121.097 171.472H123.127Z" fill="white" stroke="#212121" stroke-width="0.7" stroke-miterlimit="10"/>
<path d="M121.097 171.472L120.463 169.827H118.248L118.799 171.472H121.097Z" fill="white" stroke="#212121" stroke-width="0.7" stroke-miterlimit="10"/>
<path d="M112.899 176.629L113.28 178.605H115.92L115.441 176.629H112.899Z" fill="white" stroke="#212121" stroke-width="0.7" stroke-miterlimit="10"/>
<path d="M121.195 178.605H123.835L123.079 176.629H120.531L121.195 178.605Z" fill="white" stroke="#212121" stroke-width="0.7" stroke-miterlimit="10"/>
<path d="M118.799 171.472L118.247 169.827H116.027L116.5 171.472H118.799Z" fill="white" stroke="#212121" stroke-width="0.7" stroke-miterlimit="10"/>
<path d="M117.989 176.629L118.555 178.605H121.195L120.531 176.629H117.989Z" fill="white" stroke="#212121" stroke-width="0.7" stroke-miterlimit="10"/>
<path d="M115.441 176.629L115.92 178.605H118.555L117.989 176.629H115.441Z" fill="white" stroke="#212121" stroke-width="0.7" stroke-miterlimit="10"/>
<path d="M119.916 174.79H122.371L121.712 173.077H119.335L119.916 174.79Z" fill="white" stroke="#212121" stroke-width="0.7" stroke-miterlimit="10"/>
<path d="M98.1227 171.472L98.2788 169.827H96.0585L95.8242 171.472H98.1227Z" fill="white" stroke="#212121" stroke-width="0.7" stroke-miterlimit="10"/>
<path d="M116.5 171.472L116.027 169.827H113.807L114.202 171.472H116.5Z" fill="white" stroke="#212121" stroke-width="0.7" stroke-miterlimit="10"/>
<path d="M95.8238 171.472L96.0581 169.827H93.8377L93.5254 171.472H95.8238Z" fill="white" stroke="#212121" stroke-width="0.7" stroke-miterlimit="10"/>
<path d="M102.714 171.472V169.827H100.494L100.416 171.472H102.714Z" fill="white" stroke="#212121" stroke-width="0.7" stroke-miterlimit="10"/>
<path d="M93.5255 171.472L93.8378 169.827H91.6174L91.2271 171.472H93.5255Z" fill="white" stroke="#212121" stroke-width="0.7" stroke-miterlimit="10"/>
<path d="M91.2272 171.472L91.6176 169.827H89.4021L88.9287 171.472H91.2272Z" fill="white" stroke="#212121" stroke-width="0.7" stroke-miterlimit="10"/>
<path d="M100.416 171.472L100.494 169.827H98.2787L98.1226 171.472H100.416Z" fill="white" stroke="#212121" stroke-width="0.7" stroke-miterlimit="10"/>
<path d="M114.202 171.472L113.807 169.827H111.591L111.904 171.472H114.202Z" fill="white" stroke="#212121" stroke-width="0.7" stroke-miterlimit="10"/>
<path d="M111.903 171.472L111.591 169.827H109.371L109.61 171.472H111.903Z" fill="white" stroke="#212121" stroke-width="0.7" stroke-miterlimit="10"/>
<path d="M107.312 171.472L107.151 169.827H104.935L105.013 171.472H107.312Z" fill="white" stroke="#212121" stroke-width="0.7" stroke-miterlimit="10"/>
<path d="M112.899 176.629H110.356H107.809H105.267H102.719H100.177H97.6294H95.087H92.5397H89.9972H87.4547L86.8887 178.605H89.5287H92.1639H94.804H97.444H100.084H102.719H105.359H107.999H110.639H113.279L112.899 176.629Z" fill="white" stroke="#212121" stroke-width="0.7" stroke-miterlimit="10"/>
<path d="M109.61 171.472L109.371 169.827H107.15L107.311 171.472H109.61Z" fill="white" stroke="#212121" stroke-width="0.7" stroke-miterlimit="10"/>
<path d="M130.447 182.075H73.8936V182.876H130.447V182.075Z" fill="#212121" stroke="#212121" stroke-width="0.7" stroke-miterlimit="10"/>
<path d="M139.9 139.112H173.084V168.904H139.9C139.69 168.904 139.489 168.821 139.341 168.673C139.193 168.525 139.109 168.324 139.109 168.114V139.908C139.109 139.803 139.129 139.7 139.168 139.604C139.208 139.507 139.266 139.419 139.339 139.346C139.413 139.272 139.5 139.213 139.596 139.173C139.693 139.133 139.796 139.112 139.9 139.112V139.112Z" fill="white" stroke="#212121" stroke-width="0.7" stroke-linecap="round" stroke-linejoin="round"/>
<path d="M174.225 139.112H140.002V168.904H174.225V139.112Z" fill="#212121" stroke="#212121" stroke-width="0.7" stroke-miterlimit="10"/>
<path d="M172.356 141.47H142.637V166.548H172.356V141.47Z" fill="white" stroke="#212121" stroke-width="0.7" stroke-linecap="round" stroke-linejoin="round"/>
<path d="M152.788 151.601L157.219 144.842L161.65 151.601H159.795V162.185H154.642V151.601H152.788Z" fill="#B75400"/>
<path d="M140.002 168.904L165.944 176.405H200.918L174.225 168.904H140.002Z" fill="white" stroke="#212121" stroke-width="0.7" stroke-linecap="round" stroke-linejoin="round"/>
<path d="M167.706 171.871L164.461 170.949L163.041 170.935L166.276 171.862L167.706 171.871Z" fill="white" stroke="#212121" stroke-width="0.7" stroke-miterlimit="10"/>
<path d="M170.531 171.896L167.276 170.979L165.875 170.964L169.121 171.886L170.531 171.896Z" fill="white" stroke="#212121" stroke-width="0.7" stroke-miterlimit="10"/>
<path d="M180.789 172.867L182.146 172.876L178.774 171.954L177.422 171.944L180.789 172.867Z" fill="white" stroke="#212121" stroke-width="0.7" stroke-miterlimit="10"/>
<path d="M166.276 171.862L163.041 170.935L161.611 170.92L164.836 171.852L166.276 171.862Z" fill="white" stroke="#212121" stroke-width="0.7" stroke-miterlimit="10"/>
<path d="M163.392 171.842L160.166 170.91L158.717 170.896L161.933 171.832L163.392 171.842Z" fill="white" stroke="#212121" stroke-width="0.7" stroke-miterlimit="10"/>
<path d="M176.065 171.935L172.786 171.027L171.424 171.018L174.694 171.925L176.065 171.935Z" fill="white" stroke="#212121" stroke-width="0.7" stroke-miterlimit="10"/>
<path d="M177.422 171.945L174.137 171.042L172.786 171.027L176.065 171.935L177.422 171.945Z" fill="white" stroke="#212121" stroke-width="0.7" stroke-miterlimit="10"/>
<path d="M161.933 171.832L158.717 170.895L157.253 170.881L160.459 171.823L161.933 171.832Z" fill="white" stroke="#212121" stroke-width="0.7" stroke-miterlimit="10"/>
<path d="M171.927 171.906L168.667 170.988L167.276 170.979L170.531 171.896L171.927 171.906Z" fill="white" stroke="#212121" stroke-width="0.7" stroke-miterlimit="10"/>
<path d="M178.773 171.955L175.484 171.057L174.137 171.042L177.421 171.945L178.773 171.955Z" fill="white" stroke="#212121" stroke-width="0.7" stroke-miterlimit="10"/>
<path d="M174.694 171.925L171.424 171.018L170.048 171.003L173.317 171.915L174.694 171.925Z" fill="white" stroke="#212121" stroke-width="0.7" stroke-miterlimit="10"/>
<path d="M173.318 171.915L170.048 171.003L168.667 170.988L171.927 171.906L173.318 171.915Z" fill="white" stroke="#212121" stroke-width="0.7" stroke-miterlimit="10"/>
<path d="M169.121 171.886L165.876 170.964L164.46 170.949L167.706 171.872L169.121 171.886Z" fill="white" stroke="#212121" stroke-width="0.7" stroke-miterlimit="10"/>
<path d="M158.98 171.808L157.487 171.798L160.766 172.769L162.264 172.779L158.98 171.808Z" fill="white" stroke="#212121" stroke-width="0.7" stroke-miterlimit="10"/>
<path d="M155.779 170.866L154.295 170.852L157.487 171.798L158.98 171.808L155.779 170.866Z" fill="white" stroke="#212121" stroke-width="0.7" stroke-miterlimit="10"/>
<path d="M160.459 171.823L157.253 170.881L155.779 170.866L158.981 171.808L160.459 171.823Z" fill="white" stroke="#212121" stroke-width="0.7" stroke-miterlimit="10"/>
<path d="M164.129 173.765L167.589 174.789H169.102L165.637 173.77L164.129 173.765Z" fill="white" stroke="#212121" stroke-width="0.7" stroke-miterlimit="10"/>
<path d="M162.265 172.779L160.767 172.77L164.129 173.765L165.637 173.77L162.265 172.779Z" fill="white" stroke="#212121" stroke-width="0.7" stroke-miterlimit="10"/>
<path d="M165.637 173.77L169.101 174.789H170.604L167.13 173.774L165.637 173.77Z" fill="white" stroke="#212121" stroke-width="0.7" stroke-miterlimit="10"/>
<path d="M164.836 171.852L161.61 170.92L160.166 170.91L163.392 171.842L164.836 171.852Z" fill="white" stroke="#212121" stroke-width="0.7" stroke-miterlimit="10"/>
<path d="M168.15 172.808L164.836 171.852L163.392 171.842L166.695 172.798L168.15 172.808Z" fill="white" stroke="#212121" stroke-width="0.7" stroke-miterlimit="10"/>
<path d="M166.695 172.798L163.392 171.842L161.933 171.832L165.231 172.793L166.695 172.798Z" fill="white" stroke="#212121" stroke-width="0.7" stroke-miterlimit="10"/>
<path d="M169.594 172.813L166.276 171.861L164.836 171.852L168.15 172.808L169.594 172.813Z" fill="white" stroke="#212121" stroke-width="0.7" stroke-miterlimit="10"/>
<path d="M160.459 171.822L158.98 171.808L162.265 172.779L163.753 172.784L160.459 171.822Z" fill="white" stroke="#212121" stroke-width="0.7" stroke-miterlimit="10"/>
<path d="M184.244 173.819L185.601 173.824L182.146 172.877L180.789 172.867L184.244 173.819Z" fill="white" stroke="#212121" stroke-width="0.7" stroke-miterlimit="10"/>
<path d="M165.232 172.793L161.933 171.832L160.459 171.822L163.753 172.784L165.232 172.793Z" fill="white" stroke="#212121" stroke-width="0.7" stroke-miterlimit="10"/>
<path d="M162.265 172.779L165.637 173.77L167.13 173.775L163.753 172.784L162.265 172.779Z" fill="white" stroke="#212121" stroke-width="0.7" stroke-miterlimit="10"/>
<path d="M178.051 172.857L174.694 171.925L173.317 171.915L176.665 172.847L178.051 172.857Z" fill="white" stroke="#212121" stroke-width="0.7" stroke-miterlimit="10"/>
<path d="M176.665 172.847L173.318 171.915L171.927 171.905L175.274 172.842L176.665 172.847Z" fill="white" stroke="#212121" stroke-width="0.7" stroke-miterlimit="10"/>
<path d="M180.789 172.867L177.422 171.944L176.065 171.935L179.427 172.862L180.789 172.867Z" fill="white" stroke="#212121" stroke-width="0.7" stroke-miterlimit="10"/>
<path d="M172.454 172.828L169.121 171.886L167.706 171.871L171.029 172.818L172.454 172.828Z" fill="white" stroke="#212121" stroke-width="0.7" stroke-miterlimit="10"/>
<path d="M175.275 172.842L171.927 171.905L170.531 171.896L173.869 172.832L175.275 172.842Z" fill="white" stroke="#212121" stroke-width="0.7" stroke-miterlimit="10"/>
<path d="M173.869 172.832L170.531 171.896L169.121 171.886L172.454 172.828L173.869 172.832Z" fill="white" stroke="#212121" stroke-width="0.7" stroke-miterlimit="10"/>
<path d="M171.029 172.818L167.706 171.871L166.276 171.861L169.594 172.813L171.029 172.818Z" fill="white" stroke="#212121" stroke-width="0.7" stroke-miterlimit="10"/>
<path d="M175.274 172.843L178.705 173.804L180.106 173.809L176.665 172.848L175.274 172.843Z" fill="white" stroke="#212121" stroke-width="0.7" stroke-miterlimit="10"/>
<path d="M176.665 172.848L180.105 173.809L181.491 173.814L178.051 172.857L176.665 172.848Z" fill="white" stroke="#212121" stroke-width="0.7" stroke-miterlimit="10"/>
<path d="M163.753 172.784L167.13 173.775L168.618 173.78L165.232 172.794L163.753 172.784Z" fill="white" stroke="#212121" stroke-width="0.7" stroke-miterlimit="10"/>
<path d="M178.051 172.857L181.492 173.814H182.873L179.427 172.862L178.051 172.857Z" fill="white" stroke="#212121" stroke-width="0.7" stroke-miterlimit="10"/>
<path d="M172.454 172.828L175.875 173.794L177.295 173.799L173.869 172.833L172.454 172.828Z" fill="white" stroke="#212121" stroke-width="0.7" stroke-miterlimit="10"/>
<path d="M179.427 172.862L182.872 173.814L184.244 173.819L180.789 172.867L179.427 172.862Z" fill="white" stroke="#212121" stroke-width="0.7" stroke-miterlimit="10"/>
<path d="M173.869 172.833L177.295 173.799L178.705 173.804L175.275 172.843L173.869 172.833Z" fill="white" stroke="#212121" stroke-width="0.7" stroke-miterlimit="10"/>
<path d="M166.695 172.799L170.087 173.785H171.551L168.15 172.809L166.695 172.799Z" fill="white" stroke="#212121" stroke-width="0.7" stroke-miterlimit="10"/>
<path d="M165.231 172.794L168.618 173.78L170.087 173.785L166.695 172.799L165.231 172.794Z" fill="white" stroke="#212121" stroke-width="0.7" stroke-miterlimit="10"/>
<path d="M171.029 172.818L174.445 173.794H175.875L172.454 172.828L171.029 172.818Z" fill="white" stroke="#212121" stroke-width="0.7" stroke-miterlimit="10"/>
<path d="M169.594 172.813L173.005 173.789L174.445 173.794L171.029 172.818L169.594 172.813Z" fill="white" stroke="#212121" stroke-width="0.7" stroke-miterlimit="10"/>
<path d="M168.15 172.809L171.551 173.785L173.005 173.789L169.594 172.813L168.15 172.809Z" fill="white" stroke="#212121" stroke-width="0.7" stroke-miterlimit="10"/>
<path d="M179.427 172.862L176.065 171.935L174.694 171.925L178.051 172.857L179.427 172.862Z" fill="white" stroke="#212121" stroke-width="0.7" stroke-miterlimit="10"/>
<path d="M155.779 170.867L152.368 169.861L150.894 169.847L154.295 170.852L155.779 170.867Z" fill="white" stroke="#212121" stroke-width="0.7" stroke-miterlimit="10"/>
<path d="M154.296 170.852L152.915 170.837L156.101 171.789L157.487 171.798L154.296 170.852Z" fill="white" stroke="#212121" stroke-width="0.7" stroke-miterlimit="10"/>
<path d="M150.894 169.847L149.523 169.827L152.915 170.837L154.296 170.852L150.894 169.847Z" fill="white" stroke="#212121" stroke-width="0.7" stroke-miterlimit="10"/>
<path d="M157.487 171.798L156.101 171.788L159.371 172.764L160.766 172.769L157.487 171.798Z" fill="white" stroke="#212121" stroke-width="0.7" stroke-miterlimit="10"/>
<path d="M160.766 172.77L159.371 172.765L162.728 173.765H164.129L160.766 172.77Z" fill="white" stroke="#212121" stroke-width="0.7" stroke-miterlimit="10"/>
<path d="M164.129 173.765H162.728L166.178 174.789H167.588L164.129 173.765Z" fill="white" stroke="#212121" stroke-width="0.7" stroke-miterlimit="10"/>
<path d="M180.115 171.964L183.492 172.881L184.673 172.891L181.291 171.974L180.115 171.964Z" fill="white" stroke="#212121" stroke-width="0.7" stroke-miterlimit="10"/>
<path d="M186.952 173.824L188.138 173.829L184.673 172.892L183.492 172.882L186.952 173.824Z" fill="white" stroke="#212121" stroke-width="0.7" stroke-miterlimit="10"/>
<path d="M190.505 174.789H191.691L188.138 173.828L186.952 173.823L190.505 174.789Z" fill="white" stroke="#212121" stroke-width="0.7" stroke-miterlimit="10"/>
<path d="M167.276 170.978L163.802 169.997L162.406 169.982L165.876 170.963L167.276 170.978Z" fill="white" stroke="#212121" stroke-width="0.7" stroke-miterlimit="10"/>
<path d="M180.115 171.964L181.291 171.974L177.992 171.081L176.816 171.066L180.115 171.964Z" fill="white" stroke="#212121" stroke-width="0.7" stroke-miterlimit="10"/>
<path d="M185.601 173.824H186.952L183.492 172.882L182.146 172.877L185.601 173.824Z" fill="white" stroke="#212121" stroke-width="0.7" stroke-miterlimit="10"/>
<path d="M157.253 170.881L153.832 169.881L152.368 169.861L155.779 170.867L157.253 170.881Z" fill="white" stroke="#212121" stroke-width="0.7" stroke-miterlimit="10"/>
<path d="M175.484 171.057L178.773 171.955L180.115 171.964L176.817 171.066L175.484 171.057Z" fill="white" stroke="#212121" stroke-width="0.7" stroke-miterlimit="10"/>
<path d="M177.993 171.08L174.47 170.124L173.303 170.109L176.817 171.066L177.993 171.08Z" fill="white" stroke="#212121" stroke-width="0.7" stroke-miterlimit="10"/>
<path d="M176.817 171.066L173.303 170.109L171.971 170.095L175.484 171.056L176.817 171.066Z" fill="white" stroke="#212121" stroke-width="0.7" stroke-miterlimit="10"/>
<path d="M181.492 173.813L185.025 174.789H186.411L182.873 173.813H181.492Z" fill="white" stroke="#212121" stroke-width="0.7" stroke-miterlimit="10"/>
<path d="M189.148 174.789H190.505L186.952 173.823H185.601L189.148 174.789Z" fill="white" stroke="#212121" stroke-width="0.7" stroke-miterlimit="10"/>
<path d="M175.484 171.056L171.971 170.095L170.634 170.08L174.138 171.041L175.484 171.056Z" fill="white" stroke="#212121" stroke-width="0.7" stroke-miterlimit="10"/>
<path d="M184.244 173.818L187.782 174.789H189.148L185.6 173.823L184.244 173.818Z" fill="white" stroke="#212121" stroke-width="0.7" stroke-miterlimit="10"/>
<path d="M182.873 173.813L186.411 174.789H187.782L184.244 173.818L182.873 173.813Z" fill="white" stroke="#212121" stroke-width="0.7" stroke-miterlimit="10"/>
<path d="M182.145 172.876L183.492 172.881L180.115 171.964L178.773 171.954L182.145 172.876Z" fill="white" stroke="#212121" stroke-width="0.7" stroke-miterlimit="10"/>
<path d="M163.041 170.935L159.59 169.949L158.166 169.93L161.611 170.92L163.041 170.935Z" fill="white" stroke="#212121" stroke-width="0.7" stroke-miterlimit="10"/>
<path d="M174.137 171.041L170.633 170.08L169.287 170.061L172.786 171.027L174.137 171.041Z" fill="white" stroke="#212121" stroke-width="0.7" stroke-miterlimit="10"/>
<path d="M161.61 170.92L158.165 169.93L156.73 169.915L160.166 170.911L161.61 170.92Z" fill="white" stroke="#212121" stroke-width="0.7" stroke-miterlimit="10"/>
<path d="M165.876 170.963L162.406 169.982L161.005 169.963L164.46 170.949L165.876 170.963Z" fill="white" stroke="#212121" stroke-width="0.7" stroke-miterlimit="10"/>
<path d="M160.166 170.911L156.731 169.915L155.286 169.896L158.717 170.896L160.166 170.911Z" fill="white" stroke="#212121" stroke-width="0.7" stroke-miterlimit="10"/>
<path d="M158.717 170.896L155.286 169.895L153.832 169.881L157.253 170.881L158.717 170.896Z" fill="white" stroke="#212121" stroke-width="0.7" stroke-miterlimit="10"/>
<path d="M164.461 170.949L161.006 169.963L159.59 169.948L163.04 170.934L164.461 170.949Z" fill="white" stroke="#212121" stroke-width="0.7" stroke-miterlimit="10"/>
<path d="M172.786 171.027L169.287 170.061L167.93 170.046L171.424 171.017L172.786 171.027Z" fill="white" stroke="#212121" stroke-width="0.7" stroke-miterlimit="10"/>
<path d="M171.424 171.017L167.93 170.046L166.564 170.031L170.048 171.002L171.424 171.017Z" fill="white" stroke="#212121" stroke-width="0.7" stroke-miterlimit="10"/>
<path d="M168.667 170.988L165.188 170.012L163.802 169.997L167.276 170.978L168.667 170.988Z" fill="white" stroke="#212121" stroke-width="0.7" stroke-miterlimit="10"/>
<path d="M181.492 173.813L180.106 173.809L178.705 173.804L177.295 173.799L175.875 173.794H174.445L173.005 173.789L171.551 173.784H170.087L168.618 173.779L167.13 173.774L170.604 174.789H172.093H173.576H175.045H176.499H177.949H179.383H180.808H182.224H183.629H185.025L181.492 173.813Z" fill="white" stroke="#212121" stroke-width="0.7" stroke-miterlimit="10"/>
<path d="M170.048 171.002L166.564 170.031L165.188 170.012L168.667 170.988L170.048 171.002Z" fill="white" stroke="#212121" stroke-width="0.7" stroke-miterlimit="10"/>
<path d="M140.002 168.904V169.9L165.934 177.683L165.944 176.405L140.002 168.904Z" fill="white" stroke="#212121" stroke-width="0.7" stroke-linecap="round" stroke-linejoin="round"/>
<path d="M200.918 176.405H165.944V177.679H200.918V176.405Z" fill="#212121" stroke="#212121" stroke-width="0.7" stroke-linecap="round" stroke-linejoin="round"/>
<path d="M63.1284 168.904H29.9447L29.9447 139.112H63.1284C63.338 139.112 63.5391 139.195 63.6874 139.344C63.8356 139.492 63.9189 139.693 63.9189 139.903L63.9189 168.109C63.9196 168.213 63.8996 168.316 63.8602 168.413C63.8207 168.509 63.7626 168.597 63.6891 168.671C63.6156 168.745 63.5283 168.804 63.432 168.844C63.3358 168.884 63.2326 168.904 63.1284 168.904V168.904Z" fill="white" stroke="#212121" stroke-width="0.7" stroke-linecap="round" stroke-linejoin="round"/>
<path d="M28.8028 168.904H63.0259L63.0259 139.112H28.8028L28.8028 168.904Z" fill="#212121" stroke="#212121" stroke-width="0.7" stroke-miterlimit="10"/>
<path d="M30.6717 166.548H60.3906V141.47H30.6717L30.6717 166.548Z" fill="white" stroke="#212121" stroke-width="0.7" stroke-linecap="round" stroke-linejoin="round"/>
<path d="M48.381 151.601L43.95 144.842L39.519 151.601H41.3734V162.185H46.5267V151.601H48.381Z" fill="#B75400"/>
<path d="M63.0258 168.904L37.084 176.405H2.10938L28.8027 168.904H63.0258Z" fill="white" stroke="#212121" stroke-width="0.7" stroke-linecap="round" stroke-linejoin="round"/>
<path d="M35.3223 171.871L38.5674 170.949L39.9875 170.935L36.7521 171.862L35.3223 171.871Z" fill="white" stroke="#212121" stroke-width="0.7" stroke-miterlimit="10"/>
<path d="M32.4971 171.896L35.752 170.979L37.1525 170.964L33.9074 171.886L32.4971 171.896Z" fill="white" stroke="#212121" stroke-width="0.7" stroke-miterlimit="10"/>
<path d="M22.239 172.867L20.8823 172.876L24.2544 171.954L25.6061 171.944L22.239 172.867Z" fill="white" stroke="#212121" stroke-width="0.7" stroke-miterlimit="10"/>
<path d="M36.752 171.862L39.9874 170.935L41.4172 170.92L38.1915 171.852L36.752 171.862Z" fill="white" stroke="#212121" stroke-width="0.7" stroke-miterlimit="10"/>
<path d="M39.6362 171.842L42.8619 170.91L44.3112 170.896L41.0953 171.832L39.6362 171.842Z" fill="white" stroke="#212121" stroke-width="0.7" stroke-miterlimit="10"/>
<path d="M26.9629 171.935L30.2422 171.027L31.6037 171.018L28.3342 171.925L26.9629 171.935Z" fill="white" stroke="#212121" stroke-width="0.7" stroke-miterlimit="10"/>
<path d="M25.6064 171.945L28.8907 171.042L30.2424 171.027L26.9631 171.935L25.6064 171.945Z" fill="white" stroke="#212121" stroke-width="0.7" stroke-miterlimit="10"/>
<path d="M41.0952 171.832L44.3111 170.895L45.7751 170.881L42.569 171.823L41.0952 171.832Z" fill="white" stroke="#212121" stroke-width="0.7" stroke-miterlimit="10"/>
<path d="M31.1011 171.906L34.3609 170.988L35.7517 170.979L32.4967 171.896L31.1011 171.906Z" fill="white" stroke="#212121" stroke-width="0.7" stroke-miterlimit="10"/>
<path d="M24.2544 171.955L27.5435 171.057L28.8904 171.042L25.6061 171.945L24.2544 171.955Z" fill="white" stroke="#212121" stroke-width="0.7" stroke-miterlimit="10"/>
<path d="M28.3345 171.925L31.604 171.018L32.9802 171.003L29.7106 171.915L28.3345 171.925Z" fill="white" stroke="#212121" stroke-width="0.7" stroke-miterlimit="10"/>
<path d="M29.7104 171.915L32.98 171.003L34.361 170.988L31.1012 171.906L29.7104 171.915Z" fill="white" stroke="#212121" stroke-width="0.7" stroke-miterlimit="10"/>
<path d="M33.9072 171.886L37.1524 170.964L38.5676 170.949L35.3224 171.872L33.9072 171.886Z" fill="white" stroke="#212121" stroke-width="0.7" stroke-miterlimit="10"/>
<path d="M44.0479 171.808L45.5412 171.798L42.2618 172.769L40.7637 172.779L44.0479 171.808Z" fill="white" stroke="#212121" stroke-width="0.7" stroke-miterlimit="10"/>
<path d="M47.2491 170.866L48.7326 170.852L45.5411 171.798L44.0479 171.808L47.2491 170.866Z" fill="white" stroke="#212121" stroke-width="0.7" stroke-miterlimit="10"/>
<path d="M42.5688 171.823L45.775 170.881L47.2487 170.866L44.0475 171.808L42.5688 171.823Z" fill="white" stroke="#212121" stroke-width="0.7" stroke-miterlimit="10"/>
<path d="M38.8994 173.765L35.4395 174.789H33.9268L37.3915 173.77L38.8994 173.765Z" fill="white" stroke="#212121" stroke-width="0.7" stroke-miterlimit="10"/>
<path d="M40.7636 172.779L42.2618 172.77L38.8995 173.765L37.3916 173.77L40.7636 172.779Z" fill="white" stroke="#212121" stroke-width="0.7" stroke-miterlimit="10"/>
<path d="M37.3916 173.77L33.9269 174.789H32.4238L35.8935 173.774L37.3916 173.77Z" fill="white" stroke="#212121" stroke-width="0.7" stroke-miterlimit="10"/>
<path d="M38.1919 171.852L41.4175 170.92L42.862 170.91L39.6364 171.842L38.1919 171.852Z" fill="white" stroke="#212121" stroke-width="0.7" stroke-miterlimit="10"/>
<path d="M34.8784 172.808L38.1919 171.852L39.6364 171.842L36.3326 172.798L34.8784 172.808Z" fill="white" stroke="#212121" stroke-width="0.7" stroke-miterlimit="10"/>
<path d="M36.3325 172.798L39.6362 171.842L41.0954 171.832L37.7965 172.793L36.3325 172.798Z" fill="white" stroke="#212121" stroke-width="0.7" stroke-miterlimit="10"/>
<path d="M33.4336 172.813L36.752 171.861L38.1915 171.852L34.8781 172.808L33.4336 172.813Z" fill="white" stroke="#212121" stroke-width="0.7" stroke-miterlimit="10"/>
<path d="M42.5689 171.822L44.0475 171.808L40.7633 172.779L39.2749 172.784L42.5689 171.822Z" fill="white" stroke="#212121" stroke-width="0.7" stroke-miterlimit="10"/>
<path d="M18.7844 173.819L17.4277 173.824L20.8827 172.877L22.2394 172.867L18.7844 173.819Z" fill="white" stroke="#212121" stroke-width="0.7" stroke-miterlimit="10"/>
<path d="M37.7964 172.793L41.0952 171.832L42.569 171.822L39.275 172.784L37.7964 172.793Z" fill="white" stroke="#212121" stroke-width="0.7" stroke-miterlimit="10"/>
<path d="M40.7633 172.779L37.3912 173.77L35.8931 173.775L39.2749 172.784L40.7633 172.779Z" fill="white" stroke="#212121" stroke-width="0.7" stroke-miterlimit="10"/>
<path d="M24.9771 172.857L28.3345 171.925L29.7106 171.915L26.363 172.847L24.9771 172.857Z" fill="white" stroke="#212121" stroke-width="0.7" stroke-miterlimit="10"/>
<path d="M26.3628 172.847L29.7104 171.915L31.1012 171.905L27.7536 172.842L26.3628 172.847Z" fill="white" stroke="#212121" stroke-width="0.7" stroke-miterlimit="10"/>
<path d="M22.2393 172.867L25.6064 171.944L26.9631 171.935L23.6008 172.862L22.2393 172.867Z" fill="white" stroke="#212121" stroke-width="0.7" stroke-miterlimit="10"/>
<path d="M30.5742 172.828L33.9072 171.886L35.3224 171.871L31.9992 172.818L30.5742 172.828Z" fill="white" stroke="#212121" stroke-width="0.7" stroke-miterlimit="10"/>
<path d="M27.7534 172.842L31.1011 171.905L32.4967 171.896L29.1588 172.832L27.7534 172.842Z" fill="white" stroke="#212121" stroke-width="0.7" stroke-miterlimit="10"/>
<path d="M29.1592 172.832L32.4971 171.896L33.9074 171.886L30.5744 172.828L29.1592 172.832Z" fill="white" stroke="#212121" stroke-width="0.7" stroke-miterlimit="10"/>
<path d="M31.999 172.818L35.3223 171.871L36.7521 171.861L33.4337 172.813L31.999 172.818Z" fill="white" stroke="#212121" stroke-width="0.7" stroke-miterlimit="10"/>
<path d="M27.7535 172.843L24.3229 173.804L22.9224 173.809L26.3627 172.848L27.7535 172.843Z" fill="white" stroke="#212121" stroke-width="0.7" stroke-miterlimit="10"/>
<path d="M26.3629 172.848L22.9225 173.809L21.5366 173.814L24.977 172.857L26.3629 172.848Z" fill="white" stroke="#212121" stroke-width="0.7" stroke-miterlimit="10"/>
<path d="M39.275 172.784L35.8932 173.775L34.4097 173.78L37.7964 172.794L39.275 172.784Z" fill="white" stroke="#212121" stroke-width="0.7" stroke-miterlimit="10"/>
<path d="M24.9767 172.857L21.5363 173.814H20.1553L23.6005 172.862L24.9767 172.857Z" fill="white" stroke="#212121" stroke-width="0.7" stroke-miterlimit="10"/>
<path d="M30.5743 172.828L27.1535 173.794L25.7334 173.799L29.1591 172.833L30.5743 172.828Z" fill="white" stroke="#212121" stroke-width="0.7" stroke-miterlimit="10"/>
<path d="M23.6007 172.862L20.1554 173.814L18.7842 173.819L22.2392 172.867L23.6007 172.862Z" fill="white" stroke="#212121" stroke-width="0.7" stroke-miterlimit="10"/>
<path d="M29.1588 172.833L25.7331 173.799L24.3228 173.804L27.7534 172.843L29.1588 172.833Z" fill="white" stroke="#212121" stroke-width="0.7" stroke-miterlimit="10"/>
<path d="M36.3326 172.799L32.941 173.785H31.4771L34.8784 172.809L36.3326 172.799Z" fill="white" stroke="#212121" stroke-width="0.7" stroke-miterlimit="10"/>
<path d="M37.7965 172.794L34.4098 173.78L32.9409 173.785L36.3325 172.799L37.7965 172.794Z" fill="white" stroke="#212121" stroke-width="0.7" stroke-miterlimit="10"/>
<path d="M31.9991 172.818L28.5831 173.794H27.1533L30.5742 172.828L31.9991 172.818Z" fill="white" stroke="#212121" stroke-width="0.7" stroke-miterlimit="10"/>
<path d="M33.4337 172.813L30.0226 173.789L28.583 173.794L31.999 172.818L33.4337 172.813Z" fill="white" stroke="#212121" stroke-width="0.7" stroke-miterlimit="10"/>
<path d="M34.8785 172.809L31.4772 173.785L30.0229 173.789L33.434 172.813L34.8785 172.809Z" fill="white" stroke="#212121" stroke-width="0.7" stroke-miterlimit="10"/>
<path d="M23.6006 172.862L26.9629 171.935L28.3341 171.925L24.9767 172.857L23.6006 172.862Z" fill="white" stroke="#212121" stroke-width="0.7" stroke-miterlimit="10"/>
<path d="M47.249 170.867L50.6601 169.861L52.1339 169.847L48.7325 170.852L47.249 170.867Z" fill="white" stroke="#212121" stroke-width="0.7" stroke-miterlimit="10"/>
<path d="M48.7325 170.852L50.1135 170.837L46.9269 171.789L45.541 171.798L48.7325 170.852Z" fill="white" stroke="#212121" stroke-width="0.7" stroke-miterlimit="10"/>
<path d="M52.1338 169.847L53.505 169.827L50.1135 170.837L48.7324 170.852L52.1338 169.847Z" fill="white" stroke="#212121" stroke-width="0.7" stroke-miterlimit="10"/>
<path d="M45.541 171.798L46.927 171.788L43.6574 172.764L42.2617 172.769L45.541 171.798Z" fill="white" stroke="#212121" stroke-width="0.7" stroke-miterlimit="10"/>
<path d="M42.2617 172.77L43.6574 172.765L40.3 173.765H38.8994L42.2617 172.77Z" fill="white" stroke="#212121" stroke-width="0.7" stroke-miterlimit="10"/>
<path d="M38.8993 173.765H40.2999L36.8498 174.789H35.4395L38.8993 173.765Z" fill="white" stroke="#212121" stroke-width="0.7" stroke-miterlimit="10"/>
<path d="M22.9129 171.964L19.5359 172.881L18.355 172.891L21.7368 171.974L22.9129 171.964Z" fill="white" stroke="#212121" stroke-width="0.7" stroke-miterlimit="10"/>
<path d="M16.076 173.824L14.8901 173.829L18.3549 172.892L19.5359 172.882L16.076 173.824Z" fill="white" stroke="#212121" stroke-width="0.7" stroke-miterlimit="10"/>
<path d="M12.5232 174.789H11.3374L14.89 173.828L16.0758 173.823L12.5232 174.789Z" fill="white" stroke="#212121" stroke-width="0.7" stroke-miterlimit="10"/>
<path d="M35.752 170.978L39.2265 169.997L40.6221 169.982L37.1525 170.963L35.752 170.978Z" fill="white" stroke="#212121" stroke-width="0.7" stroke-miterlimit="10"/>
<path d="M22.9124 171.964L21.7363 171.974L25.0352 171.081L26.2064 171.066L22.9124 171.964Z" fill="white" stroke="#212121" stroke-width="0.7" stroke-miterlimit="10"/>
<path d="M17.4274 173.824H16.0757L19.5356 172.882L20.8824 172.877L17.4274 173.824Z" fill="white" stroke="#212121" stroke-width="0.7" stroke-miterlimit="10"/>
<path d="M45.7754 170.881L49.1962 169.881L50.6602 169.861L47.2491 170.867L45.7754 170.881Z" fill="white" stroke="#212121" stroke-width="0.7" stroke-miterlimit="10"/>
<path d="M27.5437 171.057L24.2546 171.955L22.9126 171.964L26.2066 171.066L27.5437 171.057Z" fill="white" stroke="#212121" stroke-width="0.7" stroke-miterlimit="10"/>
<path d="M25.0352 171.08L28.5585 170.124L29.7248 170.109L26.2063 171.066L25.0352 171.08Z" fill="white" stroke="#212121" stroke-width="0.7" stroke-miterlimit="10"/>
<path d="M26.2065 171.066L29.725 170.109L31.0572 170.095L27.5436 171.056L26.2065 171.066Z" fill="white" stroke="#212121" stroke-width="0.7" stroke-miterlimit="10"/>
<path d="M21.5367 173.813L18.0036 174.789H16.6177L20.1556 173.813H21.5367Z" fill="white" stroke="#212121" stroke-width="0.7" stroke-miterlimit="10"/>
<path d="M13.8796 174.789H12.5229L16.0756 173.823H17.4273L13.8796 174.789Z" fill="white" stroke="#212121" stroke-width="0.7" stroke-miterlimit="10"/>
<path d="M27.5439 171.056L31.0575 170.095L32.3946 170.08L28.8908 171.041L27.5439 171.056Z" fill="white" stroke="#212121" stroke-width="0.7" stroke-miterlimit="10"/>
<path d="M18.7842 173.818L15.2463 174.789H13.8799L17.4276 173.823L18.7842 173.818Z" fill="white" stroke="#212121" stroke-width="0.7" stroke-miterlimit="10"/>
<path d="M20.1553 173.813L16.6174 174.789H15.2461L18.7841 173.818L20.1553 173.813Z" fill="white" stroke="#212121" stroke-width="0.7" stroke-miterlimit="10"/>
<path d="M20.8825 172.876L19.5356 172.881L22.9126 171.964L24.2546 171.954L20.8825 172.876Z" fill="white" stroke="#212121" stroke-width="0.7" stroke-miterlimit="10"/>
<path d="M39.9878 170.935L43.4379 169.949L44.8629 169.93L41.4176 170.92L39.9878 170.935Z" fill="white" stroke="#212121" stroke-width="0.7" stroke-miterlimit="10"/>
<path d="M28.8906 171.041L32.3944 170.08L33.7413 170.061L30.2424 171.027L28.8906 171.041Z" fill="white" stroke="#212121" stroke-width="0.7" stroke-miterlimit="10"/>
<path d="M41.4175 170.92L44.8627 169.93L46.2974 169.915L42.862 170.911L41.4175 170.92Z" fill="white" stroke="#212121" stroke-width="0.7" stroke-miterlimit="10"/>
<path d="M37.1523 170.963L40.622 169.982L42.0225 169.963L38.5675 170.949L37.1523 170.963Z" fill="white" stroke="#212121" stroke-width="0.7" stroke-miterlimit="10"/>
<path d="M42.8618 170.911L46.2973 169.915L47.7418 169.896L44.3112 170.896L42.8618 170.911Z" fill="white" stroke="#212121" stroke-width="0.7" stroke-miterlimit="10"/>
<path d="M44.311 170.896L47.7416 169.895L49.1959 169.881L45.775 170.881L44.311 170.896Z" fill="white" stroke="#212121" stroke-width="0.7" stroke-miterlimit="10"/>
<path d="M38.5674 170.949L42.0224 169.963L43.4376 169.948L39.9875 170.934L38.5674 170.949Z" fill="white" stroke="#212121" stroke-width="0.7" stroke-miterlimit="10"/>
<path d="M30.2422 171.027L33.7411 170.061L35.0977 170.046L31.6037 171.017L30.2422 171.027Z" fill="white" stroke="#212121" stroke-width="0.7" stroke-miterlimit="10"/>
<path d="M31.604 171.017L35.0981 170.046L36.4644 170.031L32.9802 171.002L31.604 171.017Z" fill="white" stroke="#212121" stroke-width="0.7" stroke-miterlimit="10"/>
<path d="M34.3608 170.988L37.8402 170.012L39.2262 169.997L35.7516 170.978L34.3608 170.988Z" fill="white" stroke="#212121" stroke-width="0.7" stroke-miterlimit="10"/>
<path d="M21.5365 173.813L22.9224 173.809L24.323 173.804L25.7333 173.799L27.1533 173.794H28.5832L30.0227 173.789L31.477 173.784H32.941L34.4098 173.779L35.8933 173.774L32.4237 174.789H30.9353H29.4518H27.9878H26.5287H25.0793H23.6446H22.2197H20.8045H19.3991H18.0034L21.5365 173.813Z" fill="white" stroke="#212121" stroke-width="0.7" stroke-miterlimit="10"/>
<path d="M32.98 171.002L36.4643 170.031L37.8404 170.012L34.361 170.988L32.98 171.002Z" fill="white" stroke="#212121" stroke-width="0.7" stroke-miterlimit="10"/>
<path d="M63.0258 168.904V169.9L37.0889 177.683L37.084 176.405L63.0258 168.904Z" fill="white" stroke="#212121" stroke-width="0.7" stroke-linecap="round" stroke-linejoin="round"/>
<path d="M2.10936 177.684H37.084V176.41H2.10936V177.684Z" fill="#212121" stroke="#212121" stroke-width="0.7" stroke-linecap="round" stroke-linejoin="round"/>
</svg>
