<svg xmlns="http://www.w3.org/2000/svg" width="100" height="101" viewBox="0 0 100 101" fill="none">
<g id="Group 64">
<path id="Vector" d="M25.6752 35.925C26.9194 33.8206 28.4264 31.8828 30.1598 30.1584L15.4472 14.0378C11.7257 17.5861 8.57629 21.6889 6.11084 26.2003L25.6752 35.925Z" fill="#5FBB46"/>
<path id="Vector_2" d="M61.7097 24.5232C63.9247 25.5311 65.9969 26.8267 67.8728 28.3764L82.6378 12.2821C78.7172 8.90023 74.2931 6.14988 69.5249 4.13013L61.7097 24.5232Z" fill="#D19F2A"/>
<path id="Vector_3" d="M95.4881 29.3723L75.95 39.0971C76.8922 41.3106 77.5445 43.6365 77.8906 46.0171L99.658 43.9463C99.0226 38.9036 97.6163 33.9883 95.4881 29.3723Z" fill="#C22033"/>
<path id="Vector_4" d="M74.5338 36.2921L94.0982 26.5412C91.6759 22.0661 88.59 17.9833 84.9454 14.4312L70.2065 30.4992C71.8971 32.232 73.3519 34.1797 74.5338 36.2921Z" fill="#2D9A47"/>
<path id="Vector_5" d="M21.7675 50.1582C21.7675 49.7126 21.7675 49.2932 21.7675 48.8476L0.000244925 46.908C0.000244925 47.9827 0.000244925 49.0573 0.000244925 50.1582C-0.000480218 54.2323 0.501538 58.2909 1.49505 62.2421L22.4756 56.2395C22.0215 54.2443 21.7929 52.2044 21.7938 50.1582" fill="#48773C"/>
<path id="Vector_6" d="M71.8062 68.0354C70.2803 69.915 68.5173 71.589 66.561 73.0157L78.0478 91.6002C82.3018 88.6971 86.0871 85.1613 89.2724 81.1153L71.8062 68.0354Z" fill="#FDB714"/>
<path id="Vector_7" d="M78.2067 50.1584C78.2163 52.1776 77.9963 54.1914 77.551 56.161L98.5316 62.1898C99.5146 58.255 100.008 54.214 100 50.1584C100 49.1361 100 48.1138 100 47.0916L78.2592 49.1361C78.2592 49.4769 78.2592 49.8176 78.2592 50.1584" fill="#EF412A"/>
<path id="Vector_8" d="M28.5341 68.4539L11.1465 81.56C14.3793 85.5569 18.2096 89.0315 22.5022 91.8614L33.989 73.2769C31.9671 71.8846 30.1336 70.2371 28.5341 68.3752" fill="#F99D25"/>
<path id="Vector_9" d="M22.1338 45.7026C22.525 43.2914 23.2212 40.9397 24.2056 38.704L4.6675 28.9792C2.46633 33.6602 1.01491 38.6578 0.366455 43.7891L22.1338 45.7026Z" fill="#007DBB"/>
<path id="Vector_10" d="M75.3205 93.2777L63.8336 74.7195C61.7252 75.8744 59.4778 76.7553 57.146 77.3407L61.211 98.8347C66.1784 97.6998 70.9386 95.7985 75.3205 93.1991" fill="#8F1838"/>
<path id="Vector_11" d="M76.6845 59.2012C75.9328 61.4151 74.911 63.5279 73.6423 65.4921L91.0824 78.5982C93.9406 74.4873 96.1682 69.9727 97.6913 65.2037L76.6845 59.2012Z" fill="#00ADD8"/>
<path id="Vector_12" d="M54.0522 78.075C52.7055 78.265 51.3473 78.3614 49.9872 78.3633C48.8857 78.3633 47.7843 78.3633 46.709 78.1798L42.5916 99.6476C47.7173 100.388 52.9261 100.344 58.0385 99.5165L54.0522 78.075Z" fill="#F36E24"/>
<path id="Vector_13" d="M51.7961 22.033C54.1706 22.1664 56.5167 22.616 58.7722 23.3699L66.6399 3.00297C61.8765 1.30434 56.8773 0.358067 51.8223 0.198242L51.7961 22.033Z" fill="#EA1D2D"/>
<path id="Vector_14" d="M43.5863 77.6288C41.1722 77.066 38.8439 76.1845 36.6626 75.0076L25.1758 93.592C29.6538 96.1506 34.5021 97.9987 39.5475 99.0703L43.5863 77.6288Z" fill="#E01A83"/>
<path id="Vector_15" d="M41.5163 23.2648C43.8286 22.5348 46.227 22.1118 48.6497 22.0066V0.171875C43.5356 0.269552 38.4671 1.15365 33.6223 2.79309L41.5163 23.2648Z" fill="#1A3668"/>
<path id="Vector_16" d="M26.6193 65.9382C25.2202 63.8754 24.1003 61.6367 23.2886 59.2803L2.30811 65.2828C3.87228 70.24 6.2088 74.9196 9.23164 79.1491L26.6193 65.9382Z" fill="#CD8B2A"/>
<path id="Vector_17" d="M32.5205 28.0617C34.3734 26.6036 36.3993 25.3798 38.5524 24.4182L30.6847 4.05127C26.0282 6.02405 21.689 8.6739 17.8079 11.9149L32.5205 28.0617Z" fill="#00558A"/>
</g>
</svg>
