<svg xmlns="http://www.w3.org/2000/svg" width="124" height="125" viewBox="0 0 124 125" fill="none">
<g clip-path="url(#clip0_355_612)">
<path d="M124 0.171875H0V124.172H124V0.171875Z" fill="#0A97D9"/>
<path d="M16.1561 10.6052V35.5949H11.9525V16.4667H11.9166L8.9691 19.5245H8.93066V15.1387L12.8007 10.6052H16.1561Z" fill="white"/>
<path d="M45.798 10.552H44.0942V20.6915H45.798V10.552Z" fill="white"/>
<path d="M46.7964 20.6927H48.5001V16.2188H50.2039V14.8436H48.5001V11.942H50.7867V10.552H46.7964V20.6927Z" fill="white"/>
<path d="M55.6116 11.942V10.552H51.5469V20.6927H55.6116V19.3014H53.2506V16.2188H54.9395V14.8436H53.2506V11.942H55.6116Z" fill="white"/>
<path d="M63.7845 17.1166C63.7845 16.1903 63.3678 15.6224 62.5159 15.4277C63.2165 15.2033 63.5327 14.6651 63.5327 13.8157V12.7828C63.5327 11.3493 62.9636 10.5508 61.2598 10.5508H58.7935V20.6903H61.4384C63.1434 20.6903 63.7845 19.8979 63.7845 18.4583V17.1166ZM60.4972 11.9421H61.08C61.6492 11.9421 61.9034 12.2136 61.9034 12.7654V14.0054C61.9034 14.5448 61.6492 14.8288 61.0949 14.8288H60.4972V11.9421ZM62.0819 18.4781C62.0819 19.0163 61.8116 19.3002 61.2449 19.3002H60.5009V16.1308H61.2338C61.8315 16.1308 62.0857 16.4147 62.0857 16.9529L62.0819 18.4781Z" fill="white"/>
<path d="M64.5122 20.6927H68.5769V19.3014H66.2147V16.2188H67.9036V14.8436H66.2147V11.942H68.5769V10.552H64.5122V20.6927Z" fill="white"/>
<path d="M69.625 10.552V20.6927H73.3624V19.3014H71.3288V10.552H69.625Z" fill="white"/>
<path d="M74.0107 13.1695V18.0737C74.0107 19.6461 74.7882 20.8104 76.5813 20.8104C78.3743 20.8104 79.1679 19.6461 79.1679 18.0737V13.1695C79.1679 11.5848 78.3904 10.4329 76.5813 10.4329C74.7721 10.4329 74.0107 11.5799 74.0107 13.1695ZM77.4641 12.8992V18.3441C77.4641 18.9566 77.1951 19.3906 76.5813 19.3906C75.9675 19.3906 75.7133 18.9566 75.7133 18.3441V12.8992C75.7133 12.2867 75.9836 11.8539 76.5813 11.8539C77.1789 11.8539 77.4641 12.2867 77.4641 12.8992Z" fill="white"/>
<path d="M82.2256 16.9826H82.212L81.4196 10.552H79.7754L81.1357 20.6927H82.734L83.6913 14.4245H83.705L84.7069 20.6927H86.3214L87.6358 10.552H86.2023L85.4236 16.9826H85.41L84.4688 10.552H83.0788L82.2256 16.9826Z" fill="white"/>
<path d="M40.6894 35.5577H42.2877L43.245 29.292H43.2599L44.2618 35.5577H45.8763L47.1919 25.4194H45.756L44.9798 31.8501H44.9637L44.0237 25.4194H42.6325L41.7806 31.8501H41.7657L40.9733 25.4194H39.3291L40.6894 35.5577Z" fill="white"/>
<path d="M46.9614 35.5577H48.5734L48.871 33.7051H50.6802L50.9927 35.5577H52.7411L50.8153 25.4194H48.8735L46.9614 35.5577ZM49.77 28.2752H49.7861L50.4595 32.3424H49.1041L49.77 28.2752Z" fill="white"/>
<path d="M55.5435 35.5577V26.8095H56.9484V25.4194H52.4199V26.8095H53.8236V35.5577H55.5435Z" fill="white"/>
<path d="M61.8015 26.8095V25.4194H57.7368V35.5577H61.8015V34.1676H59.4406V31.0862H61.1295V29.7098H59.4406V26.8095H61.8015Z" fill="white"/>
<path d="M67.539 28.9931V27.6923C67.539 26.2713 66.9115 25.4207 65.1929 25.4207H62.7129V35.5577H64.4166V30.9089L66.015 35.5577H67.8093L66.1812 30.9511C67.1521 30.7279 67.5452 30.0831 67.5452 28.9931M65.8265 29.1283C65.8265 29.6664 65.5785 29.9653 64.9908 29.9653H64.4216V26.8095H64.9908C65.5723 26.8095 65.8265 27.0785 65.8265 27.6316V29.1283Z" fill="white"/>
<path d="M28.9527 35.6012V31.544H30.6491V28.2629H28.9527V10.5991H24.8223L17.5571 28.9635V31.544H24.9699V35.6L28.9527 35.6012ZM21.2449 28.2629L25.0058 17.9709H25.043V28.2629H21.2449Z" fill="white"/>
<path d="M95.4279 90.6449C93.868 88.5369 83.7868 75.688 69.6533 75.688C57.3773 75.688 44.2519 86.8182 44.2519 86.8182C44.2519 86.8182 39.3204 76.7246 29.2318 75.7549C29.1735 75.7549 29.1078 75.7413 29.0433 75.7413H28.9801C28.7693 75.7537 28.5721 75.9583 28.5957 76.1406C28.6251 76.2731 28.6785 76.3992 28.7531 76.5126C30.0539 78.664 33.3721 84.8082 33.3721 90.94C33.3721 97.0953 30.0341 103.253 28.7457 105.402L28.6577 105.539C28.6177 105.603 28.5963 105.676 28.5957 105.752C28.5963 105.853 28.635 105.949 28.704 106.023C28.7729 106.097 28.8671 106.141 28.9677 106.149L29.0768 106.14C29.1122 106.141 29.1477 106.138 29.1822 106.13C39.3018 105.188 44.2519 95.063 44.2519 95.063C44.2519 95.063 57.381 106.194 69.6533 106.194C83.7893 106.194 93.8668 93.3431 95.4279 91.2388C95.4701 91.1818 95.5048 91.1322 95.5358 91.095C95.5568 91.0459 95.5682 90.9933 95.5693 90.94C95.5686 90.887 95.5572 90.8347 95.5358 90.7862C95.5048 90.7428 95.4701 90.6932 95.4279 90.6411M77.5124 92.5669C76.697 92.5659 75.9001 92.3232 75.2226 91.8695C74.545 91.4158 74.0172 90.7714 73.7058 90.0178C73.3943 89.2641 73.3133 88.4351 73.4729 87.6354C73.6325 86.8358 74.0256 86.1014 74.6024 85.525C75.1793 84.9487 75.914 84.5563 76.7138 84.3974C77.5136 84.2386 78.3426 84.3203 79.0959 84.6324C79.8493 84.9446 80.4932 85.473 80.9463 86.1509C81.3994 86.8289 81.6414 87.6259 81.6416 88.4414C81.6415 88.9834 81.5345 89.5201 81.3269 90.0208C81.1193 90.5215 80.8151 90.9764 80.4316 91.3595C80.0482 91.7426 79.593 92.0464 79.0921 92.2536C78.5912 92.4607 78.0545 92.5672 77.5124 92.5669Z" fill="white"/>
<path d="M28.9143 51.529C28.8889 51.5208 28.8627 51.515 28.8362 51.5117C28.7826 51.512 28.7297 51.5229 28.6803 51.5437C28.6309 51.5645 28.5861 51.5948 28.5485 51.6329C28.5108 51.671 28.481 51.7162 28.4608 51.7658C28.4406 51.8154 28.4304 51.8685 28.4307 51.9221V54.732C28.4297 54.786 28.4396 54.8396 28.4599 54.8897C28.4801 54.9398 28.5103 54.9852 28.5485 55.0234C35.3685 60.9506 41.8302 55.3954 43.3256 53.9284C43.3535 53.8839 43.3897 53.8452 43.4323 53.8144C43.4985 53.7688 43.5764 53.7434 43.6567 53.7412C43.7587 53.7406 43.857 53.7798 43.9307 53.8503C43.9361 53.8574 43.9428 53.8633 43.9506 53.8677C51.6572 61.2209 59.737 55.2652 61.4184 53.8677L61.5834 53.7164C61.6317 53.6949 61.6842 53.6843 61.7371 53.6854C61.7921 53.6838 61.8467 53.6944 61.8971 53.7164L62.0645 53.8677C63.7447 55.2652 71.8245 61.2209 79.5299 53.8677C79.5354 53.8624 79.5404 53.8566 79.5448 53.8503C79.6187 53.7801 79.7168 53.741 79.8188 53.7412C79.8992 53.7429 79.9773 53.7683 80.0432 53.8144C80.0874 53.8453 80.1256 53.8839 80.1561 53.9284C81.6503 55.3966 88.1032 60.9506 94.9307 55.0234C94.9685 54.9849 94.9984 54.9394 95.0186 54.8894C95.0388 54.8394 95.049 54.7859 95.0485 54.732V51.9221C95.0495 51.8688 95.0399 51.8158 95.0202 51.7662C95.0005 51.7166 94.9712 51.6714 94.934 51.6332C94.8967 51.595 94.8523 51.5646 94.8032 51.5438C94.7541 51.5229 94.7013 51.512 94.648 51.5117C94.6185 51.5145 94.5894 51.5203 94.5612 51.529C94.4979 51.565 94.4372 51.5997 94.3566 51.6357C92.2585 52.686 85.751 55.1858 79.8486 49.5971C79.7928 49.5463 79.7345 49.4942 79.6762 49.4334C79.622 49.4091 79.5633 49.3964 79.5038 49.3962C79.4621 49.3989 79.4206 49.4051 79.3798 49.4148C79.2973 49.4474 79.2259 49.5029 79.174 49.5748C77.4132 50.9165 69.3334 56.3874 62.1376 49.6752L62.0322 49.5723C61.953 49.4969 61.849 49.4528 61.7396 49.4483C61.6337 49.4536 61.5335 49.4977 61.4581 49.5723L61.3465 49.6752C54.1545 56.3874 46.0648 50.9152 44.3065 49.5748C44.2573 49.5028 44.1878 49.4472 44.1068 49.4148C44.066 49.4056 44.0246 49.3994 43.9828 49.3962C43.9243 49.3978 43.8667 49.4104 43.8129 49.4334C43.7595 49.4921 43.7019 49.5468 43.6406 49.5971C37.7345 55.1858 31.2282 52.686 29.1326 51.6357C29.0594 51.5997 28.9887 51.565 28.9255 51.529" fill="white"/>
<path d="M43.3256 64.1659C43.3547 64.1226 43.3912 64.0848 43.4335 64.0543C43.4989 64.0077 43.5764 63.981 43.6567 63.9774C43.7596 63.9778 43.8584 64.0182 43.932 64.0902C43.9369 64.0972 43.9432 64.1032 43.9506 64.1076C51.6547 71.4521 59.737 65.4989 61.4185 64.1076L61.5834 63.9514C61.6324 63.9326 61.6847 63.9237 61.7371 63.9253C61.7924 63.9235 61.8476 63.9323 61.8996 63.9514L62.0645 64.1076C63.7447 65.4989 71.8233 71.4521 79.5311 64.1076C79.5311 64.1076 79.5398 64.0977 79.5448 64.0902C79.618 64.0184 79.7163 63.978 79.8188 63.9774C79.8992 63.9802 79.977 64.0069 80.042 64.0543C80.0865 64.0843 80.1251 64.1221 80.1561 64.1659C81.6441 65.6353 88.102 71.1905 94.9307 65.2571C94.9695 65.2206 95.0004 65.1766 95.0218 65.1278C95.0431 65.079 95.0543 65.0264 95.0547 64.9731V62.1521C95.0548 62.0992 95.0445 62.0467 95.0243 61.9977C95.0042 61.9487 94.9745 61.9042 94.937 61.8668C94.8996 61.8293 94.8551 61.7997 94.8061 61.7795C94.7571 61.7593 94.7047 61.749 94.6517 61.7491C94.6224 61.7521 94.5933 61.7575 94.5649 61.7652L94.3603 61.8682C92.2634 62.9197 85.7522 65.4133 79.8523 59.8321L79.6812 59.6709C79.6282 59.6414 79.5681 59.6273 79.5076 59.63C79.4642 59.6293 79.4215 59.64 79.3836 59.661C79.2982 59.6833 79.2245 59.7374 79.1777 59.8122C77.4194 61.1514 69.3371 66.6236 62.1401 59.9114L62.0347 59.806C61.956 59.7319 61.8514 59.6915 61.7433 59.6932C61.6383 59.6923 61.5372 59.7329 61.4619 59.806L61.3503 59.9114C54.1583 66.6236 46.0685 61.1514 44.3102 59.8122C44.2656 59.738 44.1941 59.6838 44.1105 59.661C44.0722 59.6412 44.0297 59.6306 43.9865 59.63C43.9281 59.6282 43.8702 59.6423 43.8191 59.6709C43.7633 59.7267 43.7038 59.78 43.6431 59.8321C37.7369 65.4121 31.2319 62.9197 29.1351 61.8682L28.928 61.7652C28.9028 61.758 28.8771 61.7526 28.8511 61.7491C28.7979 61.7488 28.7452 61.759 28.6959 61.7791C28.6467 61.7992 28.6019 61.8288 28.5641 61.8662C28.5263 61.9036 28.4963 61.9482 28.4757 61.9972C28.4552 62.0463 28.4445 62.0989 28.4444 62.1521V64.9731C28.4436 65.026 28.4537 65.0784 28.474 65.1273C28.4942 65.1761 28.5242 65.2203 28.5622 65.2571C35.3822 71.1905 41.8451 65.6291 43.3393 64.1659" fill="white"/>
<path d="M39.5684 10.552V20.6927H43.307V19.3014H41.2734V10.552H39.5684Z" fill="white"/>
</g>
<defs>
<clipPath id="clip0_355_612">
<rect y="0.171875" width="124" height="124" rx="2" fill="white"/>
</clipPath>
</defs>
</svg>
