<svg viewBox="0 0 100 100" xmlns="http://www.w3.org/2000/svg"><path d="M52.3 26.8c7 0 13.2 5 14.7 11.9l.7 3.5 3.3-1.3c1.9-.8 3.9-1.1 5.9-1.1 8.8 0 15.9 7.1 15.9 15.9 0 8.9-6.6 15.6-15.3 15.6h-60c-5 0-9-4-9-9s4-9 9-9h.3l3.2.1-.1-3.2v-.5c0-5.8 4.7-10.5 10.5-10.5 1 0 2 .1 2.9.4l2.9.8.9-2.9c1.7-6.3 7.6-10.7 14.2-10.7zm0-3c-8.1 0-15 5.4-17.2 12.8-1.2-.3-2.5-.5-3.8-.5-7.5 0-13.5 6-13.5 13.5v.6h-.3c-6.6 0-12 5.4-12 12s5.4 12 12 12h60c10.4 0 18.3-8.2 18.3-18.6 0-10.4-8.5-18.9-18.9-18.9-2.5 0-4.8.5-7 1.4-1.7-8.2-9-14.3-17.6-14.3z"/><path d="M50.809 34.303c-1.61 2.217-1.307 5.445.896 7.06.84.678 1.546.962 2.487.904l.195 8.088c-2.456.226-4.855 1.396-6.44 3.429-1.375 1.873-2.07 4.215-1.799 6.315l-12.795 2.18c-.398-1.18-1.004-2.2-2.026-2.903-2.544-1.849-5.966-1.381-7.784.994-1.818 2.375-1.383 5.997.978 7.821 2.361 1.824 5.965 1.382 7.784-.994.909-1.187 1.269-2.45 1.08-3.789l12.795-2.18c.48 1.94 1.534 3.773 3.213 5.128 2.544 1.849 5.656 2.276 8.395 1.34l4.835 10.975c-.808.452-1.641 1.087-2.108 1.773-2.26 2.877-1.718 7.076 1.325 9.368 2.86 2.268 7.038 1.716 9.324-1.344 2.285-3.061 1.717-7.077-1.142-9.344-1.863-1.38-4.06-1.682-6.2-1.038L59.33 67.345a8.579 8.579 0 0 0 3.15-2.567c1.142-1.531 1.761-3.32 1.805-5.002l7.658-.074c.082.761.53 1.573 1.212 2.041 1.52 1.146 3.61.87 4.753-.66 1.143-1.53.871-3.63-.65-4.776s-3.61-.87-4.753.66c-.442.502-.493.87-.594 1.606l-7.657.074c-.22-2.468-1.382-4.877-3.402-6.467-1.521-1.146-3.301-1.765-4.974-1.807l-.196-8.089c1.332-.192 2.532-.777 3.258-1.99 1.61-2.216 1.307-5.445-.896-7.06-2.62-1.297-5.442-1.122-7.234 1.07z"/></svg>