<svg xmlns="http://www.w3.org/2000/svg" width="124" height="125" viewBox="0 0 124 125" fill="none">
<g clip-path="url(#clip0_355_5522)">
<path d="M124 0.171875H0V124.172H124V0.171875Z" fill="#3F7E44"/>
<path d="M15.6513 10.573V35.564H11.4489V16.4345H11.4117L8.46422 19.4936H8.42578V15.1064L12.2958 10.573H15.6513Z" fill="white"/>
<path d="M29.5118 15.9931V18.1668C29.5118 20.2661 28.3698 21.6673 26.6375 22.2216C28.738 22.7002 29.7375 24.1746 29.7375 26.4599V30.1464C29.7375 33.6098 27.8948 35.8591 23.6553 35.8591C19.3785 35.8591 17.8657 33.4262 17.8657 29.6294V26.3496H21.6998V29.9319C21.6998 31.4063 22.2144 32.3623 23.654 32.3623C24.9424 32.3623 25.5314 31.4422 25.5314 30.1142V25.9813C25.5314 24.6532 24.9424 23.9539 23.4693 23.9539H21.6998V20.7472H23.2858C24.6498 20.7472 25.5314 20.0454 25.5314 18.7198V16.029C25.5314 14.665 25.054 13.7809 23.7272 13.7809C22.4004 13.7809 21.9218 14.665 21.9218 16.2126V18.7558H18.0827V16.5399C18.0827 12.8534 19.5943 10.2729 23.9442 10.2729C27.8155 10.2729 29.5106 12.4491 29.5106 15.9881" fill="white"/>
<path d="M107.519 77.7959C104.252 73.219 89.4734 54.9241 62 54.9241C34.5266 54.9241 19.7557 73.219 16.4833 77.7959C16.3444 77.9918 16.2242 78.1679 16.1274 78.3055C16.2242 78.4531 16.3444 78.6217 16.4833 78.8201C19.7557 83.4044 34.529 101.701 62 101.701C89.471 101.701 104.252 83.4044 107.519 78.8251C107.662 78.6267 107.78 78.4531 107.873 78.3105C107.78 78.1666 107.662 77.9968 107.519 77.8008M46.6798 66.492C46.9278 66.1287 47.7499 65.0921 47.8491 64.9606C48.0612 64.6878 48.4815 64.632 48.7754 64.58C49.0693 64.5279 49.4562 64.6878 49.5033 64.9073C49.5504 65.1268 49.3904 65.9774 49.2466 66.1238C48.8436 66.5416 47.7946 67.1319 47.2167 67.0389C46.7691 66.9707 46.5967 66.6247 46.6798 66.492ZM45.6977 68.4438C45.7411 68.3917 45.7808 68.3496 45.7969 68.3285C46.1429 67.9342 46.8311 67.8498 47.306 67.7754C47.7809 67.701 48.422 67.9342 48.4939 68.2504C48.5658 68.5666 47.2998 69.1432 47.0667 69.3664C46.4058 69.9752 45.3716 71.2152 44.7665 71.3504C44.6003 71.3924 44.4246 71.3744 44.2705 71.2995C44.6649 70.3105 45.1419 69.3565 45.6965 68.4475M55.9773 89.5374C55.6053 91.0006 55.1713 91.5276 54.8018 91.9889C54.4323 92.4502 53.0658 93.0516 52.1978 92.9871C51.3298 92.9226 51.2058 90.6001 51.2058 89.4048C51.2058 88.9931 50.6218 90.2157 50.3167 87.7295C50.122 86.1386 49.1003 87.8957 49.0284 86.8342C48.9564 85.7728 48.4456 85.9861 47.9124 85.3239C47.3792 84.6618 46.712 85.3884 45.9656 85.7232C45.2191 86.058 45.5291 86.2266 44.4776 85.8943C44.4503 85.8856 44.4366 85.8782 44.4106 85.8683C43.4103 83.5111 42.8949 80.9765 42.8953 78.4159C42.8953 77.7698 42.93 77.1337 42.9908 76.5063C43.0244 76.4432 43.0638 76.3834 43.1086 76.3277C44.1204 75.1299 44.1006 74.8496 44.1006 74.8496L45.2166 74.4628C45.2166 74.4628 47.0047 74.738 48.3513 75.2452C49.4611 75.6606 51.2033 76.6018 52.2238 76.1876C52.9592 75.885 53.5333 75.4833 53.4638 74.872C53.382 74.1044 52.7769 73.9221 52.0453 74.4392C51.7762 74.6302 51.2008 73.2823 50.7495 73.3517C50.2981 73.4212 51.3075 74.934 50.9256 74.9984C50.5436 75.0629 49.7711 73.4187 49.6397 73.1521C49.5082 72.8855 48.9143 72.227 48.3798 72.7305C47.2514 73.8031 45.4187 73.7374 45.0504 74.0139C43.9344 74.8521 43.6344 73.7374 43.6592 73.0591C43.7038 72.9041 43.7497 72.7478 43.7993 72.5941C44.1651 72.1911 45.4782 72.0572 45.9296 72.3572C46.4256 72.6883 46.7802 72.2729 46.9737 72.072C47.1671 71.8712 47.0977 71.5574 46.9737 71.2946C46.8497 71.0317 47.2217 70.8333 47.4771 70.7651C47.7326 70.6969 48.5869 70.0992 48.9279 69.8971C49.2689 69.695 51.0359 69.4842 51.8332 69.881C52.1474 70.0469 52.5092 70.0992 52.8574 70.0289C53.2057 69.9587 53.5189 69.7701 53.7441 69.4953C54.1343 69.0304 54.6041 68.6386 55.1316 68.3384C55.4094 68.2144 54.4484 67.3129 53.6598 68.29C52.8711 69.2672 52.4656 69.3515 52.0936 69.3515C51.7216 69.3515 49.512 68.8009 49.2416 68.1028C48.9713 67.4047 49.9336 66.8826 50.7482 66.4908C51.5629 66.099 53.7949 66.1076 54.3653 65.9787C55.5247 65.7245 57.0078 65.1417 57.7542 65.6501C58.5007 66.1585 54.6356 67.029 55.9054 67.7147C56.3568 67.9627 58.3978 66.5404 59.0984 66.1758C60.7439 65.3277 57.5025 65.0474 57.9229 63.3238C58.3978 61.3746 53.9462 62.1285 51.7229 62.2946C54.2925 60.6508 57.2178 59.6452 60.255 59.3617C63.2922 59.0781 66.3531 59.5249 69.1825 60.6646C72.012 61.8044 74.5279 63.6041 76.5205 65.9138C78.5131 68.2234 79.9245 70.976 80.6372 73.942C80.6485 74.2404 80.6171 74.5389 80.5442 74.8286C80.3706 75.518 79.0562 76.1107 78.3035 75.0009C78.1101 74.7207 77.2892 73.9457 77.3115 75.2712C77.3338 76.5968 78.6011 76.7332 77.3772 77.5293C76.1534 78.3254 75.9314 78.1332 75.366 78.334C74.8005 78.5349 74.25 79.9002 74.3901 80.6305C74.5302 81.3609 76.2712 83.3585 74.9766 83.2742C74.6728 83.2506 72.3862 81.6895 72.0093 80.6851C71.61 79.6274 71.176 78.5932 70.8672 77.7959C70.5585 76.9986 69.7512 76.8039 69.0643 77.2664C68.3773 77.7289 69.254 78.1976 68.7642 79.1946C68.2744 80.1916 67.926 81.0782 67.208 80.256C65.3393 78.1158 62.62 79.171 62.1996 76.784C61.9702 75.4932 60.858 75.6172 59.928 74.8856C58.998 74.154 58.4734 73.7696 58.316 74.2892C58.1783 74.7517 61.2411 77.1808 61.4594 77.8021C61.7855 78.7271 60.543 79.5381 59.6328 79.7613C58.7227 79.9845 58.3284 79.2516 57.4356 78.3216C56.5428 77.3916 56.1546 76.732 56.0926 77.4611C56.0034 78.5138 56.9396 80.0651 57.8472 80.638C58.6222 81.1278 59.4902 81.3497 59.2385 82.1458C58.9868 82.9419 59.2385 82.493 58.3705 83.3511C57.5025 84.2092 57.3364 84.4906 57.3996 85.6823C57.4628 86.8739 57.1516 86.9458 56.9644 87.9391C56.7771 88.9323 56.3444 88.073 55.9724 89.53M76.508 81.9028C77.1503 81.8507 78.12 82.7422 77.7393 83.0845C77.3586 83.4267 76.3989 83.3002 75.914 82.9208C75.4292 82.5414 76.2178 81.9288 76.508 81.9028ZM75.6933 81.315C75.4875 81.2381 75.3052 81.0422 75.149 80.571C74.9927 80.0998 75.3883 79.827 75.769 80.0217C76.1496 80.2164 76.6717 80.8066 76.6717 81.1191C76.6717 81.4316 75.8992 81.3956 75.6884 81.3125M67.2427 81.279C66.8645 81.6163 65.8973 81.4923 65.4137 81.1154C64.9301 80.7384 65.7188 80.1234 66.0064 80.0973C66.65 80.039 67.6184 80.9393 67.2464 81.279M59.4344 85.0796C59.1716 85.5099 58.4511 88.7277 57.9688 88.3532C57.4864 87.9788 58.1647 84.6208 58.3036 84.3654C59.06 82.9791 60.6943 83.0473 59.4344 85.0796ZM62.0384 97.5516C60.2183 97.552 58.4074 97.2927 56.6606 96.7815C56.5239 96.6733 56.4269 96.5228 56.385 96.3536C56.343 96.1844 56.3584 96.0061 56.4287 95.8466C57.0202 94.3028 58.7847 93.6976 60.176 93.5637C63.276 93.2612 67.358 95.5787 68.0066 95.2042C68.6551 94.8298 69.9695 93.1248 71.894 93.1967C73.2084 93.2475 73.1984 93.4682 73.6399 93.6344C70.3087 96.1804 66.2311 97.5572 62.0384 97.5516ZM75.5358 91.9815C75.3289 91.9277 75.1278 91.8534 74.9357 91.7595C73.8904 91.2276 74.0156 92.077 73.5022 91.8835C72.9889 91.6901 74.0813 90.5009 72.5388 91.5115C70.9962 92.5221 71.4166 91.3553 70.747 89.6515C70.0774 87.9478 71.5182 86.0022 72.731 85.5595C74.3938 84.9581 75.4255 84.8354 76.203 84.6432C78.5019 84.069 78.988 82.705 79.4046 83.5346C79.484 83.6896 79.5596 83.8384 79.6291 83.9773C79.8154 84.371 79.9144 84.8003 79.9192 85.2359C78.9516 87.7714 77.4562 90.0724 75.5321 91.9864M80.7748 82.3256C80.2615 82.1855 78.1126 79.2144 79.8114 77.2602C80.0941 76.939 79.241 75.9929 79.4741 75.9743C80.4041 75.9024 80.8976 76.479 81.1419 77.3098C81.1605 77.6818 81.1754 78.0464 81.1754 78.4258C81.175 79.738 81.0408 81.0468 80.7748 82.3318" fill="white"/>
<path d="M39.5684 18.2263V13.2205C39.5684 11.6085 40.331 10.428 42.1624 10.428C44.0857 10.428 44.6201 11.4956 44.6201 13.0221V14.2435H43.028V12.8795C43.028 12.2384 42.8147 11.8726 42.1885 11.8726C41.5623 11.8726 41.3081 12.3239 41.3081 12.9439V18.4991C41.3081 19.1191 41.5672 19.5668 42.1934 19.5668C42.8196 19.5668 43.0329 19.17 43.0329 18.5599V16.654H44.6201V18.4396C44.6201 19.9202 44.01 21.0188 42.1624 21.0188C40.3148 21.0188 39.5684 19.8284 39.5684 18.2263Z" fill="white"/>
<path d="M45.7178 10.5493H47.4538V19.4773H49.5295V20.8971H45.7178V10.5493Z" fill="white"/>
<path d="M50.4766 10.5493H52.2126V20.8971H50.4766V10.5493Z" fill="white"/>
<path d="M58.306 14.1838H58.2601L57.0858 20.8984H56.2761L54.9791 14.1838H54.9481V20.8984H53.5146V10.5493H55.5433L56.6729 16.3773H56.689L57.6959 10.5493H59.892V20.8971H58.306V14.1838Z" fill="white"/>
<path d="M60.7598 20.8971L62.714 10.5493H64.698L66.6671 20.8971H64.8815L64.5604 19.0036H62.7152L62.409 20.8971H60.7598ZM62.9422 17.6161H64.3322L63.6452 13.4646H63.6291L62.9422 17.6161Z" fill="white"/>
<path d="M66.4355 10.5493H71.0607V11.9691H69.6261V20.8971H67.8702V11.9691H66.4355V10.5493Z" fill="white"/>
<path d="M72.0205 10.5493H76.172V11.9691H73.7602V14.9278H75.4851V16.3314H73.7602V19.4748H76.172V20.8946H72.0205V10.5493Z" fill="white"/>
<path d="M39.2646 35.5641L41.2189 25.22H43.2029L45.172 35.5665H43.3864L43.0652 33.6743H41.2189L40.9126 35.5665L39.2646 35.5641ZM41.447 32.288H42.8371L42.1501 28.1377H42.134L41.447 32.288Z" fill="white"/>
<path d="M45.6719 32.8943V27.8884C45.6719 26.2702 46.4357 25.0959 48.2672 25.0959C50.1892 25.0959 50.7236 26.1636 50.7236 27.69V28.9102H49.1364V27.5524C49.1364 26.9113 48.9232 26.5455 48.297 26.5455C47.6708 26.5455 47.4116 26.9882 47.4116 27.6131V33.1683C47.4116 33.7883 47.672 34.2372 48.297 34.2372C48.9219 34.2372 49.1364 33.8404 49.1364 33.2291V31.322H50.7236V33.1076C50.7236 34.5881 50.1136 35.6868 48.2672 35.6868C46.4208 35.6868 45.6719 34.4964 45.6719 32.8943Z" fill="white"/>
<path d="M51.3359 25.22H55.9611V26.6398H54.5215V35.5678H52.7657V26.6398H51.3359V25.22Z" fill="white"/>
<path d="M56.916 25.22H58.652V35.5665H56.916V25.22Z" fill="white"/>
<path d="M59.814 32.8943V27.8884C59.814 26.2702 60.6088 25.0959 62.439 25.0959C64.2693 25.0959 65.0802 26.2702 65.0802 27.8884V32.8943C65.0802 34.4964 64.2854 35.6868 62.439 35.6868C60.5927 35.6868 59.814 34.4964 59.814 32.8943ZM63.3405 33.1683V27.6131C63.3405 26.9931 63.0652 26.5455 62.439 26.5455C61.8128 26.5455 61.5537 26.9882 61.5537 27.6131V33.1683C61.5537 33.7883 61.829 34.2372 62.439 34.2372C63.0491 34.2372 63.3405 33.7945 63.3405 33.1683Z" fill="white"/>
<path d="M67.6866 29.064V35.5653H66.2222V25.22H67.9321L69.812 31.1534V25.22H71.2628V35.5665H69.7326L67.6866 29.064Z" fill="white"/>
</g>
<defs>
<clipPath id="clip0_355_5522">
<rect y="0.171875" width="124" height="124" rx="2" fill="white"/>
</clipPath>
</defs>
</svg>
