<svg xmlns="http://www.w3.org/2000/svg" width="124" height="125" viewBox="0 0 124 125" fill="none">
<g clip-path="url(#clip0_355_2665)">
<path d="M124 0.171875H0V124.172H124V0.171875Z" fill="#FD9D24"/>
<path d="M36.2764 20.8056C38.0124 20.8056 38.7564 19.8136 38.7564 18.4285V17.9325C38.7564 16.8165 38.3075 16.2436 37.3813 15.3012L36.2901 14.2249C35.7941 13.7462 35.4841 13.4176 35.4841 12.8472V12.6402C35.4841 12.071 35.8127 11.8019 36.2901 11.8019C36.827 11.8019 37.0973 12.0859 37.0973 12.6699V13.5503H38.651V12.7294C38.651 11.265 37.9802 10.4268 36.2752 10.4268C34.6148 10.4268 33.8832 11.3989 33.8832 12.6588V13.0047C33.8832 14.1691 34.3321 14.7531 35.303 15.7092L36.3037 16.7136C36.827 17.2096 37.0663 17.5642 37.0663 18.147V18.5351C37.0663 19.0745 36.827 19.4329 36.2901 19.4329C35.7073 19.4329 35.4531 19.1043 35.4531 18.5351V17.1463H33.8721V18.5103C33.8721 19.8408 34.5429 20.813 36.2764 20.813" fill="white"/>
<path d="M44.4503 18.2188V10.5469H42.8805V18.3824C42.8805 18.9814 42.6411 19.3831 42.0422 19.3831C41.4433 19.3831 41.2065 18.9814 41.2065 18.3824V10.5469H39.5015V18.2188C39.5015 19.7886 40.2455 20.8054 42.0422 20.8054C43.7782 20.8054 44.4503 19.7886 44.4503 18.2188Z" fill="white"/>
<path d="M50.2052 18.4285V17.9325C50.2052 16.8165 49.7551 16.2436 48.8313 15.3012L47.7401 14.2249C47.2441 13.7475 46.9316 13.4176 46.9316 12.8509V12.6414C46.9316 12.0722 47.2627 11.8031 47.7401 11.8031C48.2782 11.8031 48.5461 12.0859 48.5461 12.6711V13.5515H50.0961V12.7307C50.0961 11.2637 49.4252 10.428 47.7202 10.428C46.0611 10.428 45.3283 11.4001 45.3283 12.66V13.0035C45.3283 14.1691 45.7784 14.7531 46.7506 15.7104L47.75 16.7135C48.2733 17.2095 48.5114 17.5642 48.5114 18.147V18.5376C48.5114 19.0733 48.2733 19.4341 47.7351 19.4341C47.1523 19.4341 46.8981 19.1043 46.8981 18.5376V17.1413H45.3184V18.5053C45.3184 19.8359 45.9892 20.8068 47.724 20.8068C49.4587 20.8068 50.204 19.8148 50.204 18.4297" fill="white"/>
<path d="M55.1466 10.5469H50.6182V11.9382H52.0218V20.6864H53.7417V11.9382H55.1466V10.5469Z" fill="white"/>
<path d="M58.6806 10.5469H56.7375L54.8242 20.6851H56.4362L56.7351 18.8326H58.543L58.8579 20.6851H60.6076L58.6806 10.5469ZM56.9632 17.471L57.6341 13.4038H57.6502L58.3235 17.471H56.9632Z" fill="white"/>
<path d="M63.0006 10.5481H61.2969V20.6876H63.0006V10.5481Z" fill="white"/>
<path d="M68.9066 20.6864V10.5469H67.4868V16.3625L65.6467 10.5469H63.9727V20.6864H65.4086V14.3152L67.4099 20.6864H68.9066Z" fill="white"/>
<path d="M71.3708 18.8313H73.18L73.4925 20.6913H75.2409L73.3139 10.5469H71.3708L69.4575 20.6851H71.0695L71.3708 18.8313ZM72.2661 13.4026H72.2822L72.9568 17.471H71.5928L72.2661 13.4026Z" fill="white"/>
<path d="M80.5293 13.8118V12.7813C80.5293 11.3454 79.9626 10.5493 78.2576 10.5493H75.79V20.6888H78.4362C80.1412 20.6888 80.7823 19.8964 80.7823 18.4568V17.1126C80.7823 16.1851 80.3656 15.616 79.5125 15.4225C80.2156 15.1981 80.5293 14.6599 80.5293 13.8105M77.5 11.9381H78.084C78.6507 11.9381 78.9062 12.206 78.9062 12.7602V14.0002C78.9062 14.5396 78.6507 14.8236 78.0977 14.8236H77.5V11.9381ZM79.0835 18.4729C79.0835 19.0111 78.8156 19.2963 78.2477 19.2963H77.5037V16.1256H78.2353C78.833 16.1256 79.0872 16.4096 79.0872 16.9465L79.0835 18.4729Z" fill="white"/>
<path d="M83.1876 10.5469H81.4839V20.6864H85.2188V19.2951H83.1876V10.5469Z" fill="white"/>
<path d="M89.9112 11.9382V10.5469H85.8452V20.6864H89.9112V19.2951H87.549V16.2137H89.2379V14.8398H87.549V11.9382H89.9112Z" fill="white"/>
<path d="M95.3176 20.8055C97.1268 20.8055 97.7257 19.7292 97.7257 18.2784V16.5287H96.1695V18.3999C96.1695 18.9951 95.9599 19.3844 95.3474 19.3844C94.7348 19.3844 94.4794 18.9517 94.4794 18.3379V12.8955C94.4794 12.2755 94.7274 11.8477 95.3474 11.8477C95.9674 11.8477 96.1695 12.2061 96.1695 12.8397V14.1715H97.7257V12.9749C97.7257 11.4782 97.2012 10.4316 95.3176 10.4316C93.5246 10.4316 92.7769 11.5824 92.7769 13.1671V18.0738C92.7769 19.6436 93.5209 20.8092 95.3176 20.8092" fill="white"/>
<path d="M100.228 10.5481H98.5254V20.6876H100.228V10.5481Z" fill="white"/>
<path d="M104.005 20.6864V11.9382H105.408V10.5469H100.88V11.9382H102.284V20.6864H104.005Z" fill="white"/>
<path d="M107.776 10.5481H106.073V20.6876H107.776V10.5481Z" fill="white"/>
<path d="M108.654 20.6864H112.719V19.2951H110.358V16.2137H112.044V14.8398H110.358V11.9382H112.719V10.5469H108.654V20.6864Z" fill="white"/>
<path d="M115.607 14.2261C115.111 13.7462 114.802 13.4189 114.802 12.8485V12.6414C114.802 12.0722 115.129 11.8031 115.607 11.8031C116.147 11.8031 116.414 12.0871 116.414 12.6711V13.5528H117.97V12.7307C117.97 11.2637 117.297 10.428 115.592 10.428C113.933 10.428 113.202 11.4001 113.202 12.66V13.0059C113.202 14.1703 113.649 14.7543 114.621 15.7104L115.621 16.7148C116.147 17.2108 116.385 17.5654 116.385 18.1482V18.5363C116.385 19.0757 116.147 19.4341 115.607 19.4341C115.024 19.4341 114.77 19.1055 114.77 18.5363V17.1475H113.186V18.5115C113.186 19.8421 113.858 20.8142 115.592 20.8142C117.325 20.8142 118.072 19.8222 118.072 18.4371V17.9411C118.072 16.8251 117.619 16.2523 116.695 15.3099L115.607 14.2261Z" fill="white"/>
<path d="M35.8098 25.4294L33.8965 35.5664H35.5085L35.8073 33.7126H37.6152L37.9302 35.5664H39.6798L37.7516 25.4294H35.8098ZM36.0342 32.3524L36.7063 28.2852H36.7224L37.3933 32.3524H36.0342Z" fill="white"/>
<path d="M44.0471 31.245L42.2082 25.4294H40.5342V35.5677H41.9701V29.1953L43.9715 35.5677H45.4669V25.4294H44.0471V31.245Z" fill="white"/>
<path d="M49.2206 25.4271H46.5894V35.5678H49.2206C51.0447 35.5678 51.6858 34.4022 51.6858 32.846V28.1501C51.6858 26.5803 51.0447 25.4221 49.2206 25.4221M49.982 33.1399C49.982 33.7524 49.7129 34.1716 49.0111 34.1716H48.2919V26.8196H49.0111C49.7129 26.8196 49.982 27.2375 49.982 27.8352V33.1399Z" fill="white"/>
<path d="M57.0684 25.3091C55.2741 25.3091 54.5264 26.4598 54.5264 28.0458V32.9512C54.5264 34.5198 55.2704 35.6866 57.0684 35.6866C58.8664 35.6866 59.474 34.6091 59.474 33.1583V31.4099H57.919V33.2798C57.919 33.8787 57.7107 34.2718 57.0994 34.2718C56.488 34.2718 56.2314 33.839 56.2314 33.2252V27.7816C56.2314 27.1691 56.4868 26.7351 57.0994 26.7351C57.7119 26.7351 57.919 27.0934 57.919 27.7271V29.0576H59.474V27.861C59.474 26.3656 58.9519 25.3202 57.0684 25.3202" fill="white"/>
<path d="M63.1245 25.3091C61.329 25.3091 60.5527 26.4598 60.5527 28.0458V32.9512C60.5527 34.5198 61.329 35.6866 63.1245 35.6866C64.92 35.6866 65.7087 34.5198 65.7087 32.9512V28.0458C65.7087 26.4598 64.9324 25.3091 63.1245 25.3091ZM64.0049 33.219C64.0049 33.8328 63.7358 34.2656 63.1245 34.2656C62.5132 34.2656 62.2565 33.8328 62.2565 33.219V27.7754C62.2565 27.1629 62.5231 26.7289 63.1245 26.7289C63.7259 26.7289 64.0049 27.1629 64.0049 27.7754V33.219Z" fill="white"/>
<path d="M69.9395 31.1409H69.9246L68.8198 25.427H66.832V35.5665H68.2357V28.987H68.2655L69.5365 35.5665H70.3276L71.4796 28.987H71.5242V35.5665H73.0792V25.427H70.9265L69.9395 31.1409Z" fill="white"/>
<path d="M77.3116 31.1409H77.2967L76.1906 25.427H74.2017V35.5665H75.6078V28.987H75.6363L76.9061 35.5665H77.6997L78.8492 28.987H78.8951V35.5665H80.4488V25.427H78.2974L77.3116 31.1409Z" fill="white"/>
<path d="M84.9486 33.2638C84.9486 33.8627 84.7117 34.2682 84.1128 34.2682C83.5139 34.2682 83.2758 33.8627 83.2758 33.2638V25.4294H81.5708V33.0976C81.5708 34.6699 82.3148 35.6867 84.1128 35.6867C85.8488 35.6867 86.5184 34.6699 86.5184 33.0976V25.4294H84.9486V33.2638Z" fill="white"/>
<path d="M91.1563 31.245L89.3149 25.4294H87.6421V35.5677H89.078V29.1953L91.0794 35.5677H92.5736V25.4294H91.1563V31.245Z" fill="white"/>
<path d="M8.88477 15.1001V19.4873H8.92073L11.8707 16.4269H11.9091V35.5651H16.1127V10.563H12.756L8.88477 15.1001Z" fill="white"/>
<path d="M18.4722 15.1001V19.4873H18.5094L21.4593 16.4269H21.4953V35.5651H25.7001V10.563H22.3459L18.4722 15.1001Z" fill="white"/>
<path d="M95.403 25.427H93.6992V35.5665H95.403V25.427Z" fill="white"/>
<path d="M96.3306 26.8183H97.7355V35.5665H99.4541V26.8183H100.859V25.427H96.3306V26.8183Z" fill="white"/>
<path d="M103.506 25.427H101.801V35.5665H103.506V25.427Z" fill="white"/>
<path d="M104.644 35.5665H108.71V34.1764H106.346V31.0963H108.036V29.7199H106.346V26.8183H108.71V25.427H104.644V35.5665Z" fill="white"/>
<path d="M112.013 29.1072C111.517 28.6273 111.206 28.2987 111.206 27.732V27.5212C111.206 26.9521 111.534 26.6842 112.013 26.6842C112.551 26.6842 112.819 26.9682 112.819 27.5522V28.4351H114.375V27.6117C114.375 26.1461 113.702 25.3103 111.998 25.3103C110.338 25.3103 109.606 26.2825 109.606 27.5423V27.8858C109.606 29.0514 110.055 29.6354 111.027 30.5915L112.029 31.5946C112.551 32.0906 112.791 32.4465 112.791 33.0293V33.4187C112.791 33.9568 112.551 34.3164 112.013 34.3164C111.43 34.3164 111.176 33.9878 111.176 33.4187V32.0237H109.591V33.3877C109.591 34.7182 110.263 35.6903 111.998 35.6903C113.733 35.6903 114.478 34.6983 114.478 33.3145V32.8185C114.478 31.7025 114.029 31.1309 113.103 30.1872L112.013 29.1072Z" fill="white"/>
<path d="M20.4601 94.5744H39.1072C39.1959 94.5749 39.2829 94.5496 39.3574 94.5014C39.4319 94.4532 39.4906 94.3843 39.5265 94.3031C39.5623 94.222 39.5737 94.1321 39.5591 94.0446C39.5445 93.9571 39.5047 93.8757 39.4445 93.8105L39.4184 93.7832L30.1383 81.7776L30.0478 81.6771C30.005 81.6302 29.953 81.5927 29.8949 81.567C29.8368 81.5414 29.774 81.5282 29.7105 81.5283C29.5996 81.5305 29.4932 81.5723 29.4104 81.6461L29.3546 81.7106L29.2666 81.8086L20.2146 93.689L20.0757 93.8589C20.0245 93.9342 19.9972 94.0232 19.9976 94.1143C19.9976 94.1749 20.0095 94.235 20.0328 94.291C20.0561 94.3469 20.0902 94.3978 20.1332 94.4405C20.1762 94.4833 20.2272 94.5171 20.2833 94.5401C20.3394 94.563 20.3995 94.5747 20.4601 94.5744Z" fill="white"/>
<path d="M39.0502 96.272H20.3609C20.3008 96.272 20.2413 96.2838 20.1858 96.3068C20.1303 96.3298 20.0798 96.3635 20.0373 96.406C19.9949 96.4485 19.9611 96.4989 19.9382 96.5544C19.9152 96.6099 19.9033 96.6694 19.9033 96.7295V111.349C19.9032 111.409 19.9149 111.469 19.9378 111.525C19.9607 111.581 19.9943 111.631 20.0368 111.674C20.0793 111.717 20.1298 111.751 20.1854 111.774C20.241 111.797 20.3006 111.809 20.3609 111.809H26.3761V102.607C26.376 102.547 26.3877 102.487 26.4106 102.432C26.4336 102.376 26.4673 102.326 26.5098 102.283C26.5523 102.241 26.6028 102.207 26.6584 102.184C26.714 102.161 26.7735 102.149 26.8337 102.15H32.4137C32.4738 102.149 32.5334 102.161 32.589 102.184C32.6446 102.207 32.6951 102.241 32.7376 102.283C32.7801 102.326 32.8138 102.376 32.8367 102.432C32.8597 102.487 32.8714 102.547 32.8712 102.607V111.809H39.0464C39.1067 111.809 39.1663 111.797 39.2219 111.774C39.2775 111.751 39.328 111.717 39.3705 111.674C39.413 111.631 39.4466 111.581 39.4696 111.525C39.4925 111.469 39.5042 111.409 39.504 111.349V96.7246C39.5027 96.6047 39.4544 96.4902 39.3696 96.4055C39.2847 96.3209 39.17 96.2729 39.0502 96.272Z" fill="white"/>
<path d="M103.643 92.4378H85.146C85.0873 92.4368 85.029 92.4475 84.9745 92.4691C84.9199 92.4907 84.8702 92.5229 84.8281 92.5638C84.7861 92.6047 84.7525 92.6535 84.7294 92.7075C84.7062 92.7614 84.694 92.8194 84.6934 92.878V111.556C84.6953 111.674 84.7441 111.787 84.8289 111.869C84.9138 111.951 85.0278 111.997 85.146 111.995H103.643C103.702 111.996 103.76 111.986 103.814 111.964C103.869 111.942 103.919 111.91 103.961 111.87C104.003 111.829 104.037 111.78 104.06 111.726C104.083 111.673 104.096 111.615 104.097 111.556V92.878C104.096 92.8192 104.084 92.7612 104.061 92.7072C104.038 92.6532 104.004 92.6043 103.962 92.5634C103.919 92.5224 103.87 92.4903 103.815 92.4687C103.76 92.4472 103.702 92.4367 103.643 92.4378ZM93.5222 104.632C93.5215 104.691 93.5093 104.749 93.4863 104.802C93.4633 104.856 93.4298 104.905 93.3879 104.946C93.346 104.987 93.2964 105.02 93.242 105.041C93.1876 105.063 93.1294 105.074 93.0708 105.073H87.5441C87.4853 105.074 87.427 105.063 87.3723 105.042C87.3177 105.02 87.2679 104.988 87.2258 104.947C87.1836 104.906 87.15 104.857 87.1267 104.803C87.1035 104.749 87.0911 104.691 87.0903 104.632V101.274C87.0909 101.215 87.1032 101.157 87.1264 101.103C87.1496 101.049 87.1832 101 87.2254 100.959C87.2676 100.918 87.3175 100.886 87.3722 100.864C87.4268 100.842 87.4853 100.832 87.5441 100.833H93.0708C93.1295 100.832 93.1877 100.843 93.2422 100.864C93.2967 100.886 93.3463 100.918 93.3883 100.959C93.4302 101.001 93.4636 101.049 93.4866 101.103C93.5096 101.157 93.5217 101.215 93.5222 101.274V104.632ZM93.5222 98.4245C93.5215 98.4832 93.5093 98.5411 93.4863 98.595C93.4633 98.6489 93.4298 98.6978 93.3879 98.7388C93.346 98.7797 93.2964 98.8121 93.242 98.8339C93.1876 98.8557 93.1294 98.8666 93.0708 98.866H87.5441C87.4853 98.8668 87.427 98.856 87.3723 98.8343C87.3177 98.8126 87.2679 98.7803 87.2258 98.7393C87.1836 98.6983 87.15 98.6494 87.1267 98.5954C87.1035 98.5414 87.0911 98.4833 87.0903 98.4245V95.0641C87.0926 94.9459 87.1416 94.8333 87.2266 94.751C87.3117 94.6688 87.4258 94.6235 87.5441 94.6252H93.0708C93.1293 94.6244 93.1873 94.6351 93.2416 94.6567C93.296 94.6783 93.3455 94.7104 93.3874 94.7512C93.4293 94.7919 93.4628 94.8406 93.4859 94.8943C93.509 94.948 93.5214 95.0057 93.5222 95.0641V98.4245ZM101.969 104.632C101.968 104.691 101.956 104.749 101.933 104.803C101.91 104.857 101.876 104.906 101.834 104.947C101.792 104.988 101.742 105.02 101.687 105.042C101.632 105.064 101.574 105.074 101.515 105.073H95.991C95.9322 105.074 95.8737 105.064 95.819 105.042C95.7643 105.02 95.7145 104.988 95.6723 104.947C95.6301 104.906 95.5965 104.857 95.5733 104.803C95.5501 104.749 95.5378 104.691 95.5372 104.632V101.274C95.5378 101.215 95.5501 101.157 95.5733 101.103C95.5965 101.049 95.6301 101 95.6723 100.959C95.7145 100.918 95.7643 100.886 95.819 100.864C95.8737 100.842 95.9322 100.832 95.991 100.833H101.515C101.574 100.832 101.632 100.842 101.687 100.864C101.742 100.886 101.792 100.918 101.834 100.959C101.876 101 101.91 101.049 101.933 101.103C101.956 101.157 101.968 101.215 101.969 101.274V104.632ZM101.969 98.4245C101.968 98.4834 101.956 98.5415 101.933 98.5956C101.91 98.6497 101.876 98.6986 101.834 98.7396C101.792 98.7807 101.742 98.8129 101.687 98.8346C101.632 98.8563 101.574 98.867 101.515 98.866H95.991C95.9322 98.867 95.8737 98.8563 95.819 98.8346C95.7643 98.8129 95.7145 98.7807 95.6723 98.7396C95.6301 98.6986 95.5965 98.6497 95.5733 98.5956C95.5501 98.5415 95.5378 98.4834 95.5372 98.4245V95.0641C95.5381 95.0055 95.5506 94.9477 95.574 94.8939C95.5973 94.8401 95.631 94.7914 95.6732 94.7507C95.7153 94.7099 95.7651 94.6778 95.8196 94.6563C95.8741 94.6348 95.9324 94.6242 95.991 94.6252H101.515C101.574 94.6242 101.632 94.6348 101.687 94.6563C101.741 94.6778 101.791 94.7099 101.833 94.7507C101.875 94.7914 101.909 94.8401 101.932 94.8939C101.956 94.9477 101.968 95.0055 101.969 95.0641V98.4245Z" fill="white"/>
<path d="M60.6436 49.0826H42.5396C42.4815 49.0827 42.4239 49.0943 42.3703 49.1167C42.3166 49.1391 42.2679 49.1719 42.2269 49.2131C42.1859 49.2543 42.1535 49.3032 42.1314 49.357C42.1093 49.4107 42.098 49.4683 42.0981 49.5265V111.39C42.0985 111.507 42.145 111.619 42.2277 111.702C42.3104 111.785 42.4225 111.832 42.5396 111.833H60.6436C60.7611 111.832 60.8738 111.786 60.9571 111.703C61.0405 111.62 61.0878 111.508 61.0887 111.39V49.524C61.0884 49.4061 61.0414 49.2932 60.9579 49.21C60.8745 49.1268 60.7614 49.0801 60.6436 49.0801M49.8754 104.785C49.8754 104.816 49.8693 104.847 49.8573 104.876C49.8453 104.905 49.8278 104.931 49.8057 104.953C49.7836 104.975 49.7573 104.993 49.7285 105.005C49.6996 105.017 49.6686 105.023 49.6373 105.023H45.4933C45.4301 105.023 45.3696 104.998 45.3249 104.953C45.2803 104.908 45.2552 104.848 45.2552 104.785V100.167C45.2552 100.136 45.2614 100.105 45.2733 100.076C45.2853 100.047 45.3029 100.021 45.325 99.9989C45.3471 99.9769 45.3734 99.9595 45.4022 99.9477C45.4311 99.9358 45.4621 99.9298 45.4933 99.93H49.6373C49.6686 99.9298 49.6995 99.9358 49.7284 99.9477C49.7572 99.9595 49.7835 99.9769 49.8056 99.9989C49.8277 100.021 49.8453 100.047 49.8573 100.076C49.8693 100.105 49.8754 100.136 49.8754 100.167V104.785ZM49.8754 94.1764C49.8753 94.2075 49.869 94.2383 49.8569 94.2669C49.8449 94.2956 49.8273 94.3216 49.8052 94.3435C49.7831 94.3654 49.7569 94.3827 49.7281 94.3944C49.6993 94.4062 49.6684 94.4122 49.6373 94.412H45.4933C45.4313 94.411 45.3722 94.3858 45.3286 94.3418C45.285 94.2977 45.2605 94.2384 45.2601 94.1764V89.5599C45.26 89.5286 45.266 89.4975 45.2779 89.4686C45.2898 89.4396 45.3074 89.4133 45.3295 89.3912C45.3517 89.369 45.378 89.3515 45.4069 89.3396C45.4359 89.3277 45.4669 89.3216 45.4982 89.3218H49.6373C49.6687 89.3216 49.6997 89.3277 49.7287 89.3396C49.7576 89.3515 49.7839 89.369 49.8061 89.3912C49.8282 89.4133 49.8457 89.4396 49.8576 89.4686C49.8695 89.4975 49.8756 89.5286 49.8754 89.5599V94.1764ZM49.8754 83.5707C49.8754 83.6019 49.8693 83.6329 49.8573 83.6618C49.8453 83.6907 49.8278 83.7169 49.8057 83.739C49.7836 83.7611 49.7573 83.7787 49.7285 83.7906C49.6996 83.8026 49.6686 83.8088 49.6373 83.8088H45.4933C45.4301 83.8088 45.3696 83.7837 45.3249 83.739C45.2803 83.6944 45.2552 83.6338 45.2552 83.5707V78.9504C45.2555 78.8875 45.2807 78.8273 45.3254 78.7829C45.37 78.7385 45.4303 78.7136 45.4933 78.7136H49.6373C49.7003 78.7136 49.7606 78.7385 49.8053 78.7829C49.8499 78.8273 49.8751 78.8875 49.8754 78.9504V83.5707ZM49.8754 72.9625C49.8754 73.0256 49.8503 73.0862 49.8057 73.1308C49.761 73.1755 49.7005 73.2006 49.6373 73.2006H45.4933C45.4306 73.1993 45.3709 73.1733 45.3272 73.1282C45.2836 73.0832 45.2595 73.0227 45.2601 72.96V68.3422C45.2603 68.3112 45.2666 68.2805 45.2787 68.2519C45.2907 68.2233 45.3083 68.1973 45.3305 68.1756C45.3526 68.1538 45.3788 68.1366 45.4076 68.125C45.4364 68.1134 45.4672 68.1075 45.4982 68.1079H49.6373C49.6684 68.1075 49.6992 68.1134 49.728 68.125C49.7568 68.1366 49.783 68.1538 49.8051 68.1756C49.8272 68.1973 49.8448 68.2233 49.8569 68.2519C49.869 68.2805 49.8753 68.3112 49.8754 68.3422V72.9625ZM49.8754 62.3568C49.8751 62.4197 49.8499 62.4799 49.8053 62.5243C49.7606 62.5687 49.7003 62.5936 49.6373 62.5936H45.4933C45.4303 62.5936 45.37 62.5687 45.3254 62.5243C45.2807 62.4799 45.2555 62.4197 45.2552 62.3568V57.7365C45.2552 57.6734 45.2803 57.6128 45.3249 57.5682C45.3696 57.5235 45.4301 57.4984 45.4933 57.4984H49.6373C49.6686 57.4984 49.6996 57.5046 49.7285 57.5166C49.7573 57.5285 49.7836 57.5461 49.8057 57.5682C49.8278 57.5903 49.8453 57.6165 49.8573 57.6454C49.8693 57.6743 49.8754 57.7053 49.8754 57.7365V62.3568ZM58.0036 104.785C58.0036 104.816 57.9974 104.847 57.9854 104.876C57.9733 104.905 57.9557 104.931 57.9335 104.953C57.9112 104.976 57.8848 104.993 57.8558 105.005C57.8268 105.017 57.7957 105.023 57.7643 105.023H53.6215C53.5902 105.023 53.5591 105.017 53.5302 105.005C53.5012 104.993 53.4749 104.975 53.4528 104.953C53.4306 104.931 53.4131 104.905 53.4012 104.876C53.3893 104.847 53.3832 104.816 53.3834 104.785V100.167C53.3834 100.136 53.3896 100.105 53.4015 100.076C53.4135 100.047 53.4311 100.021 53.4532 99.9989C53.4753 99.9769 53.5016 99.9595 53.5305 99.9477C53.5593 99.9358 53.5903 99.9298 53.6215 99.93H57.7643C57.7956 99.9297 57.8267 99.9356 57.8557 99.9473C57.8847 99.9591 57.9111 99.9765 57.9334 99.9985C57.9556 100.021 57.9733 100.047 57.9854 100.076C57.9974 100.105 58.0036 100.136 58.0036 100.167V104.785ZM58.0036 94.1764C58.0038 94.2078 57.9977 94.2389 57.9857 94.268C57.9737 94.297 57.9561 94.3234 57.9338 94.3456C57.9116 94.3677 57.8851 94.3852 57.856 94.397C57.8269 94.4089 57.7957 94.4148 57.7643 94.4145H53.6215C53.5901 94.4148 53.559 94.4089 53.53 94.397C53.5009 94.3852 53.4746 94.3677 53.4524 94.3455C53.4302 94.3233 53.4127 94.2969 53.4008 94.2679C53.389 94.2389 53.3831 94.2077 53.3834 94.1764V89.5599C53.3831 89.5285 53.389 89.4974 53.4008 89.4684C53.4127 89.4393 53.4302 89.413 53.4524 89.3908C53.4746 89.3686 53.5009 89.3511 53.53 89.3392C53.559 89.3274 53.5901 89.3215 53.6215 89.3218H57.7643C57.7957 89.3215 57.8269 89.3274 57.856 89.3392C57.8851 89.3511 57.9116 89.3686 57.9338 89.3907C57.9561 89.4129 57.9737 89.4392 57.9857 89.4683C57.9977 89.4973 58.0038 89.5285 58.0036 89.5599V94.1764ZM58.0036 83.5707C58.0036 83.602 57.9974 83.6331 57.9854 83.6621C57.9733 83.691 57.9557 83.7173 57.9335 83.7395C57.9112 83.7616 57.8848 83.7791 57.8558 83.791C57.8268 83.8029 57.7957 83.8089 57.7643 83.8088H53.6215C53.5902 83.8089 53.5591 83.8029 53.5302 83.791C53.5012 83.7791 53.4749 83.7615 53.4528 83.7394C53.4306 83.7173 53.4131 83.6909 53.4012 83.662C53.3893 83.633 53.3832 83.602 53.3834 83.5707V78.9504C53.3834 78.9192 53.3896 78.8883 53.4015 78.8595C53.4135 78.8307 53.4311 78.8045 53.4532 78.7825C53.4753 78.7605 53.5016 78.7431 53.5305 78.7313C53.5593 78.7194 53.5903 78.7134 53.6215 78.7136H57.7643C57.7956 78.7134 57.8266 78.7194 57.8555 78.7312C57.8845 78.7431 57.9108 78.7605 57.933 78.7824C57.9552 78.8044 57.9729 78.8306 57.985 78.8594C57.9971 78.8882 58.0035 78.9192 58.0036 78.9504V83.5707ZM58.0036 72.9625C58.0036 72.9938 57.9974 73.0249 57.9854 73.0539C57.9733 73.0828 57.9557 73.1091 57.9335 73.1313C57.9112 73.1534 57.8848 73.1709 57.8558 73.1828C57.8268 73.1947 57.7957 73.2007 57.7643 73.2006H53.6215C53.5902 73.2007 53.5591 73.1947 53.5302 73.1828C53.5012 73.1709 53.4749 73.1533 53.4528 73.1312C53.4306 73.1091 53.4131 73.0827 53.4012 73.0538C53.3893 73.0248 53.3832 72.9938 53.3834 72.9625V68.3422C53.3835 68.3112 53.3898 68.2805 53.4019 68.2519C53.414 68.2233 53.4316 68.1973 53.4537 68.1756C53.4758 68.1538 53.502 68.1366 53.5308 68.125C53.5596 68.1134 53.5904 68.1075 53.6215 68.1079H57.7643C57.7955 68.1074 57.8264 68.1131 57.8553 68.1246C57.8843 68.1362 57.9106 68.1533 57.9329 68.1751C57.9551 68.1969 57.9728 68.2229 57.985 68.2516C57.9971 68.2803 58.0035 68.3111 58.0036 68.3422V72.9625ZM58.0036 62.3568C58.0035 62.388 57.9971 62.4189 57.985 62.4478C57.9729 62.4766 57.9552 62.5027 57.933 62.5247C57.9108 62.5467 57.8845 62.5641 57.8555 62.5759C57.8266 62.5878 57.7956 62.5938 57.7643 62.5936H53.6215C53.5903 62.5938 53.5593 62.5878 53.5305 62.5759C53.5016 62.5641 53.4753 62.5467 53.4532 62.5247C53.4311 62.5027 53.4135 62.4765 53.4015 62.4477C53.3896 62.4189 53.3834 62.388 53.3834 62.3568V57.7365C53.3832 57.7052 53.3893 57.6742 53.4012 57.6452C53.4131 57.6163 53.4306 57.5899 53.4528 57.5678C53.4749 57.5457 53.5012 57.5281 53.5302 57.5162C53.5591 57.5043 53.5902 57.4983 53.6215 57.4984H57.7643C57.7957 57.4983 57.8268 57.5043 57.8558 57.5162C57.8848 57.5281 57.9112 57.5456 57.9335 57.5677C57.9557 57.5899 57.9733 57.6162 57.9854 57.6451C57.9974 57.6741 58.0036 57.7051 58.0036 57.7365V62.3568Z" fill="white"/>
<path d="M104.076 90.5581C104.076 90.6567 104.037 90.7513 103.967 90.8211C103.897 90.8909 103.803 90.9301 103.704 90.9301H85.0854C84.9867 90.9301 84.8921 90.8909 84.8223 90.8211C84.7526 90.7513 84.7134 90.6567 84.7134 90.5581V86.8381C84.7134 86.7394 84.7526 86.6448 84.8223 86.575C84.8921 86.5053 84.9867 86.4661 85.0854 86.4661H103.704C103.803 86.4661 103.897 86.5053 103.967 86.575C104.037 86.6448 104.076 86.7394 104.076 86.8381V90.5581Z" fill="white"/>
<path d="M82.5097 60.7647C82.4813 60.6656 82.4216 60.5784 82.3396 60.516C82.2576 60.4537 82.1576 60.4195 82.0546 60.4187C81.9617 60.4211 81.8715 60.4509 81.7954 60.5043L81.7619 60.5266L81.6094 60.72L63.8179 83.288L63.7361 83.3984C63.6406 83.4912 63.585 83.6175 63.5811 83.7505V111.483C63.5812 111.541 63.5928 111.599 63.6152 111.652C63.6376 111.706 63.6704 111.755 63.7116 111.796C63.7528 111.837 63.8017 111.869 63.8555 111.891C63.9092 111.913 63.9668 111.925 64.025 111.925H82.1091C82.1672 111.925 82.2247 111.913 82.2784 111.891C82.3321 111.869 82.381 111.837 82.4221 111.796C82.4632 111.755 82.4958 111.706 82.5181 111.652C82.5404 111.599 82.5518 111.541 82.5518 111.483V60.9507C82.5509 60.8864 82.5366 60.823 82.5097 60.7647ZM75.0201 73.0208L75.1441 72.8621C76.3605 71.2997 78.4127 68.7701 79.4121 67.5475L79.5436 67.3912C79.592 67.3324 79.6527 67.2851 79.7215 67.2525C79.7903 67.2199 79.8655 67.2029 79.9416 67.2027C80.0595 67.2033 80.1736 67.245 80.2641 67.3206C80.3546 67.3962 80.416 67.501 80.4376 67.6169V73.3321C80.437 73.4646 80.385 73.5917 80.2924 73.6866C80.1999 73.7814 80.0741 73.8366 79.9416 73.8405C79.9329 73.8405 79.9267 73.8405 79.9193 73.8405C79.9119 73.8405 79.9044 73.8405 79.8957 73.8405H75.4553C75.4466 73.8405 75.4404 73.8405 75.433 73.8405C75.4255 73.8405 75.4181 73.8405 75.4107 73.8405C75.2783 73.8363 75.1527 73.781 75.0602 73.6862C74.9677 73.5914 74.9156 73.4645 74.9147 73.3321C74.915 73.2196 74.952 73.1103 75.0201 73.0208ZM72.2053 104.628C72.2054 104.687 72.1941 104.744 72.1719 104.798C72.1497 104.852 72.1171 104.901 72.076 104.942C72.0348 104.983 71.986 105.016 71.9322 105.038C71.8784 105.06 71.8208 105.071 71.7626 105.071H66.3661C66.3079 105.071 66.2503 105.06 66.1965 105.038C66.1427 105.016 66.0938 104.983 66.0527 104.942C66.0116 104.901 65.979 104.852 65.9568 104.798C65.9346 104.744 65.9233 104.687 65.9234 104.628V101.252C65.9234 101.194 65.9349 101.136 65.9571 101.083C65.9794 101.029 66.012 100.98 66.0531 100.939C66.0943 100.898 66.1431 100.866 66.1968 100.844C66.2505 100.822 66.308 100.81 66.3661 100.81H71.7613C71.8194 100.81 71.877 100.822 71.9307 100.844C71.9844 100.866 72.0332 100.898 72.0743 100.939C72.1154 100.98 72.148 101.029 72.1703 101.083C72.1926 101.136 72.204 101.194 72.204 101.252L72.2053 104.628ZM72.2053 98.3887C72.2054 98.4469 72.1941 98.5046 72.1719 98.5583C72.1497 98.6121 72.1171 98.661 72.076 98.7021C72.0348 98.7433 71.986 98.7759 71.9322 98.7981C71.8784 98.8202 71.8208 98.8316 71.7626 98.8314H66.3661C66.3079 98.8316 66.2503 98.8202 66.1965 98.7981C66.1427 98.7759 66.0938 98.7433 66.0527 98.7021C66.0116 98.661 65.979 98.6121 65.9568 98.5583C65.9346 98.5046 65.9233 98.4469 65.9234 98.3887V95.0122C65.9231 94.954 65.9343 94.8963 65.9564 94.8424C65.9786 94.7886 66.0112 94.7396 66.0523 94.6985C66.0935 94.6573 66.1424 94.6247 66.1963 94.6026C66.2502 94.5804 66.3079 94.5692 66.3661 94.5695H71.7613C71.8196 94.5692 71.8773 94.5804 71.9311 94.6026C71.985 94.6247 72.0339 94.6573 72.0751 94.6985C72.1163 94.7396 72.1489 94.7886 72.171 94.8424C72.1931 94.8963 72.2043 94.954 72.204 95.0122L72.2053 98.3887ZM72.2053 92.1491C72.2053 92.2071 72.1938 92.2646 72.1715 92.3183C72.1493 92.3719 72.1166 92.4206 72.0755 92.4616C72.0344 92.5027 71.9856 92.5351 71.9319 92.5573C71.8782 92.5794 71.8206 92.5907 71.7626 92.5905H66.3661C66.308 92.5907 66.2505 92.5794 66.1968 92.5573C66.1431 92.5351 66.0943 92.5027 66.0531 92.4616C66.012 92.4206 65.9794 92.3719 65.9571 92.3183C65.9349 92.2646 65.9234 92.2071 65.9234 92.1491V88.7713C65.9233 88.7131 65.9346 88.6555 65.9568 88.6017C65.979 88.5479 66.0116 88.4991 66.0527 88.4579C66.0938 88.4168 66.1427 88.3842 66.1965 88.362C66.2503 88.3398 66.3079 88.3285 66.3661 88.3286H71.7613C71.8195 88.3285 71.8772 88.3398 71.9309 88.362C71.9847 88.3842 72.0336 88.4168 72.0747 88.4579C72.1159 88.4991 72.1485 88.5479 72.1707 88.6017C72.1928 88.6555 72.2042 88.7131 72.204 88.7713L72.2053 92.1491ZM72.2201 78.4756V85.9156C72.2198 86.0329 72.1731 86.1453 72.0901 86.2282C72.0072 86.3112 71.8948 86.3579 71.7775 86.3583H66.3835C66.3251 86.3586 66.2673 86.3474 66.2133 86.3253C66.1593 86.3032 66.1102 86.2706 66.0688 86.2295C66.0275 86.1883 65.9946 86.1394 65.9722 86.0856C65.9498 86.0317 65.9383 85.9739 65.9383 85.9156V84.9794C65.9403 84.9229 65.9516 84.8672 65.9718 84.8145C65.9794 84.7964 65.9886 84.779 65.9991 84.7624C66.0104 84.7417 66.0237 84.7222 66.0387 84.7041C66.0511 84.683 66.0722 84.6557 66.0883 84.6322C66.7778 83.6402 69.8902 79.8111 71.1971 78.209L71.3286 78.0503C71.377 77.9916 71.4378 77.9444 71.5066 77.912C71.5754 77.8796 71.6506 77.8629 71.7266 77.863C71.8443 77.8638 71.9581 77.9054 72.0485 77.9807C72.139 78.056 72.2005 78.1603 72.2226 78.2759L72.2201 78.4756ZM80.4513 104.628C80.4513 104.687 80.4398 104.744 80.4176 104.798C80.3953 104.852 80.3627 104.9 80.3216 104.941C80.2805 104.983 80.2317 105.015 80.178 105.037C80.1243 105.06 80.0667 105.071 80.0086 105.071H74.6146C74.5562 105.071 74.4984 105.06 74.4444 105.038C74.3904 105.016 74.3413 104.983 74.2999 104.942C74.2586 104.901 74.2257 104.852 74.2033 104.798C74.1809 104.745 74.1694 104.687 74.1694 104.628V101.252C74.1696 101.194 74.1812 101.136 74.2037 101.082C74.2262 101.029 74.259 100.98 74.3004 100.939C74.3417 100.898 74.3908 100.865 74.4447 100.843C74.4986 100.821 74.5563 100.81 74.6146 100.81H80.0086C80.1258 100.81 80.2382 100.857 80.3212 100.94C80.4041 101.022 80.4509 101.135 80.4513 101.252V104.628ZM80.4513 98.3887C80.4513 98.5062 80.4046 98.6187 80.3216 98.7018C80.2386 98.7848 80.126 98.8314 80.0086 98.8314H74.6146C74.5562 98.8318 74.4984 98.8205 74.4444 98.7984C74.3904 98.7763 74.3413 98.7438 74.2999 98.7026C74.2586 98.6615 74.2257 98.6126 74.2033 98.5587C74.1809 98.5049 74.1694 98.4471 74.1694 98.3887V95.0122C74.1693 94.9538 74.1807 94.896 74.203 94.842C74.2254 94.7881 74.2582 94.7391 74.2996 94.698C74.341 94.6568 74.3901 94.6242 74.4442 94.6022C74.4983 94.5802 74.5562 94.5691 74.6146 94.5695H80.0086C80.0667 94.5695 80.1243 94.581 80.178 94.6032C80.2317 94.6255 80.2805 94.6581 80.3216 94.6992C80.3627 94.7403 80.3953 94.7891 80.4176 94.8428C80.4398 94.8965 80.4513 94.9541 80.4513 95.0122V98.3887ZM80.4513 92.1491C80.4506 92.2662 80.4037 92.3782 80.3208 92.4609C80.2379 92.5436 80.1257 92.5902 80.0086 92.5905H74.6146C74.5563 92.5908 74.4986 92.5797 74.4447 92.5576C74.3908 92.5356 74.3417 92.5032 74.3004 92.4622C74.259 92.4212 74.2262 92.3724 74.2037 92.3187C74.1812 92.2649 74.1696 92.2073 74.1694 92.1491V88.7713C74.1694 88.713 74.1809 88.6552 74.2033 88.6013C74.2257 88.5475 74.2586 88.4985 74.2999 88.4574C74.3413 88.4163 74.3904 88.3837 74.4444 88.3616C74.4984 88.3395 74.5562 88.3283 74.6146 88.3286H80.0086C80.126 88.3286 80.2386 88.3753 80.3216 88.4583C80.4046 88.5413 80.4513 88.6539 80.4513 88.7713V92.1491ZM80.4513 85.9081C80.4509 86.0253 80.4041 86.1376 80.3212 86.2204C80.2382 86.3031 80.1258 86.3496 80.0086 86.3496H74.6146C74.5563 86.3499 74.4986 86.3387 74.4447 86.3167C74.3908 86.2947 74.3417 86.2623 74.3004 86.2212C74.259 86.1802 74.2262 86.1315 74.2037 86.0777C74.1812 86.024 74.1696 85.9664 74.1694 85.9081V82.5316C74.1694 82.4733 74.1809 82.4155 74.2033 82.3616C74.2257 82.3078 74.2586 82.2589 74.2999 82.2177C74.3413 82.1766 74.3904 82.144 74.4444 82.1219C74.4984 82.0998 74.5562 82.0886 74.6146 82.0889H80.0086C80.126 82.0889 80.2386 82.1356 80.3216 82.2186C80.4046 82.3016 80.4513 82.4142 80.4513 82.5316V85.9081ZM80.4513 79.6672C80.4513 79.7254 80.4398 79.7829 80.4176 79.8366C80.3953 79.8903 80.3627 79.9391 80.3216 79.9802C80.2805 80.0214 80.2317 80.054 80.178 80.0762C80.1243 80.0985 80.0667 80.1099 80.0086 80.1099H74.6146C74.5562 80.1102 74.4984 80.099 74.4444 80.0769C74.3904 80.0548 74.3413 80.0223 74.2999 79.9811C74.2586 79.94 74.2257 79.8911 74.2033 79.8372C74.1809 79.7833 74.1694 79.7256 74.1694 79.6672V76.2907C74.1693 76.2323 74.1807 76.1744 74.203 76.1203C74.2253 76.0663 74.2581 76.0173 74.2995 75.976C74.3409 75.9347 74.39 75.9021 74.4441 75.8799C74.4982 75.8577 74.5561 75.8465 74.6146 75.8468H80.0086C80.0668 75.8468 80.1245 75.8583 80.1783 75.8806C80.2321 75.9029 80.2809 75.9356 80.322 75.9769C80.3632 76.0181 80.3957 76.0671 80.4179 76.1209C80.4401 76.1748 80.4514 76.2325 80.4513 76.2907V79.6672Z" fill="white"/>
</g>
<defs>
<clipPath id="clip0_355_2665">
<rect y="0.171875" width="124" height="124" rx="2" fill="white"/>
</clipPath>
</defs>
</svg>
