<svg fill="#333" xmlns="http://www.w3.org/2000/svg" viewBox="0 0 846.66 846.66" fill-rule="evenodd" clip-rule="evenodd" shape-rendering="geometricPrecision" text-rendering="geometricPrecision" image-rendering="optimizeQuality"><path d="M215.05 407.24c105.48 0 191.08 85.57 191.08 191.07 0 105.46-85.61 191.07-191.08 191.07-105.5 0-191.08-85.58-191.08-191.07 0-105.53 85.57-191.07 191.08-191.07zm208.29-351.2c107.03 0 193.89 86.85 193.89 193.89 0 107.03-86.87 193.89-193.89 193.89-107.05 0-193.89-86.85-193.89-193.89 0-107.07 86.81-193.89 193.89-193.89zm43.78 238.84c1.21 8.27 4.69 13.99 9.34 17.85 21.17 17.55 39.06-2.62 59.91 26.18 5.49 7.58 10.26 17.21 14.06 26.33 27.63-30.45 44.49-70.92 44.49-115.31 0-94.77-76.79-171.56-171.58-171.56-94.75 0-171.57 76.81-171.57 171.56 0 42.81 15.69 81.98 41.61 112.02 3.56-8.1 7.82-16.35 12.64-23.04 20.84-28.82 38.74-8.61 59.92-26.18 4.67-3.86 8.15-9.6 9.35-17.86-25.85-19.54-39.08-52.05-39.08-83.97 0-48.33 32.62-99.76 85-99.76s85 51.43 85 99.76c0 31.9-13.25 64.45-39.09 83.98zm65.9 87.01c-3.65-9.87-8.74-21.67-14.71-29.9-11.89-16.46-31.68-1.85-56.07-22.07-7.03-5.82-12.57-13.57-15.53-23.82a73.312 73.312 0 01-25.5 4.56c-8.9 0-17.48-1.59-25.52-4.56-2.97 10.25-8.5 18-15.53 23.82-24.37 20.22-44.18 5.61-56.07 22.07-5.42 7.47-10.12 17.88-13.68 27.13 30.18 26.37 69.68 42.39 112.93 42.39 41.71 0 79.96-14.89 109.68-39.62zm-99.99-247.04c3.5 26.15 18.85 52.26 47.84 52.26-6.2-23.73-23-46.36-47.84-52.26zm50.85 74.58c-30.11 0-48.54-11.63-62.67-38.99-14.14 27.36-32.57 38.99-62.67 38.99-.28 36.13 21.94 78.91 62.67 78.91 40.72 0 62.94-42.78 62.67-78.91zm-122.33-22.32c28.97 0 44.34-26.13 47.82-52.26-24.83 5.88-41.62 28.54-47.82 52.26zM631 407.24c105.83 0 191.7 85.85 191.7 191.69 0 105.8-85.88 191.69-191.7 191.69-105.83 0-191.68-85.87-191.68-191.69 0-105.87 85.82-191.69 191.68-191.69zm43.29 236.12c1.19 8.19 4.63 13.84 9.22 17.64 20.95 17.37 38.64-2.58 59.25 25.88 5.42 7.51 10.15 17.01 13.89 26.04 27.33-30.1 43.97-70.11 43.97-113.99 0-93.7-75.89-169.62-169.62-169.62-93.67 0-169.62 75.94-169.62 169.62 0 42.32 15.51 81.04 41.13 110.75 3.52-8.01 7.74-16.18 12.51-22.8 20.6-28.48 38.29-8.49 59.24-25.88 4.61-3.8 8.05-9.47 9.23-17.66-5.33-4.03-10.23-8.74-14.66-14.03-14.8-17.76-23.97-42.18-23.97-68.98 0-47.79 32.26-98.63 84.04-98.63 51.78 0 84.03 50.84 84.03 98.63 0 26.8-9.16 51.22-23.98 68.98-4.41 5.29-9.33 10.02-14.66 14.05zm65.15 86.03c-3.61-9.78-8.65-21.44-14.53-29.57-11.77-16.27-31.34-1.81-55.45-21.82-6.94-5.75-12.42-13.41-15.35-23.54-16.22 5.99-34.21 5.97-50.45 0-2.92 10.13-8.39 17.79-15.34 23.54-24.09 20.01-43.67 5.55-55.44 21.82-5.36 7.4-10.01 17.68-13.52 26.84 29.82 26.06 68.88 41.89 111.64 41.89 41.24 0 79.06-14.71 108.44-39.16zm-51.12-190.8c-27.1 0-32.03-5.24-53.68 10.08-15 10.67-35.62 23.4-67.36 19.78 1.55 18.29 8.32 34.63 18.46 46.8 23.93 28.74 62.38 28.74 86.32 0 11.61-13.93 18.8-33.35 18.8-54.92 0-7.56-.89-14.86-2.54-21.74zm-120.34 7.72c25.32 3.2 42.22-7.24 54.5-15.98 25.74-18.14 27.09-13.82 57.23-13.82-10.52-18.57-28.7-32.74-50.81-32.74-33.94 0-56.3 31.72-60.92 62.54zm-320.01-11.86c21.36 21.59 32.95 18.49 32.95 54.09 0 6.08-.62 12.01-1.76 17.68 3.34.39 6.43.58 9.32.58 13.08 0 30.95-5.34 30.95-21v-46.7c0-29.12-26.8-48.43-60.91-57.25-28.12-7.26-60.77-7.42-88.88-.13-33.17 8.58-58.96 27.7-58.96 57.38v46.7c0 15.81 18.23 21 30.95 21 2.89 0 5.98-.19 9.33-.58a89.008 89.008 0 01-1.77-17.68c0-35.99 8.22-29.16 32.91-54.07 29.45-29.69 36.42-29.69 65.87-.02zm23.84 92.97a79.037 79.037 0 01-8.52 13.24c1.03 9.39 4.81 15.48 12.18 20.58 24.39 16.64 42.62-5.76 66.56 29.64 2.35 3.5 4.56 7.28 6.6 11.14 22.24-28.63 35.51-64.63 35.51-103.71 0-93.4-75.67-169.08-169.09-169.08-93.37 0-169.07 75.7-169.07 169.08 0 39.06 13.25 75.04 35.51 103.67 2.04-3.86 4.23-7.61 6.57-11.1 23.71-35.05 39.45-12.94 65.86-29.23 7.74-4.67 11.87-11.73 12.89-20.99-3.23-4.03-6.07-8.47-8.51-13.24-6.05.95-11.6 1.37-16.67 1.37-25.49 0-52.95-14.2-52.95-42.99v-46.7c0-41.64 33.01-67.61 75.46-78.62 31.61-8.19 68.26-8.03 99.87.15 43.36 11.2 77.42 37.46 77.42 78.47v46.7c0 28.79-27.46 42.99-52.95 42.99-5.09 0-10.63-.42-16.67-1.37zm-27.11 29.47c-18.4 10.77-40.9 10.77-59.31 0-3.78 9.7-10.9 17.91-19.74 23.34-27.46 17.03-44.15.44-59.36 22.95-3.38 5.01-6.44 10.76-9.07 16.42 30.43 29.57 72.01 47.79 117.83 47.79 45.8 0 87.39-18.21 117.83-47.78-2.64-5.67-5.7-11.42-9.07-16.43-15.58-23.02-33.79-5.37-60.78-23.82-8.17-5.51-14.72-13.19-18.33-22.47zm-12.28-106.97c-20.23-20.39-14.53-20.37-34.76.03-15.66 15.78-26.47 16.41-26.47 38.59 0 15.43 5.15 29.31 13.49 39.24 16.92 20.21 43.83 20.23 60.73 0 8.36-9.93 13.51-23.81 13.51-39.24 0-22.12-9.85-21.82-26.5-38.62z" fill-rule="nonzero"/></svg>
