<svg viewBox="0 0 100 100" xmlns="http://www.w3.org/2000/svg"><path d="M39.666 28.013c-2.41.123-5.085 1.013-7.102 2.847a2.238 2.238 0 0 0-.07.07l-3.908 3.867c-3.496-.217-7.744.128-10.759 2.777a2.243 2.243 0 0 0-.107.104l-4.545 4.5c-.252.2-.458.452-.605.738C5.098 45.873 0 53.22 0 61.72 0 72.78 8.606 82 19.886 82c10.478 0 18.633-7.931 19.745-17.926.5.003.986-.158 1.385-.457l3.409-2.25a2.3 2.3 0 0 0 .106-.068A10.226 10.226 0 0 0 50 62.882c1.938 0 3.836-.55 5.47-1.583.034.024.07.047.105.07l3.41 2.25c.402.286.889.433 1.384.42C61.465 74.05 69.625 82 80.114 82 91.394 82 100 72.78 100 61.72c0-8.501-5.098-15.847-12.572-18.804a2.254 2.254 0 0 0-.602-.739l-4.545-4.499a2.341 2.341 0 0 0-.107-.104c-3.016-2.649-7.264-2.994-10.762-2.777l-3.905-3.867a2.238 2.238 0 0 0-.07-.07c-2.018-1.834-4.694-2.724-7.103-2.847-2.693-.137-5.43.783-7.458 2.987a2.17 2.17 0 0 0-.212.248c-.612.895-1.008 1.728-1.244 2.6-.409-.078-.784-.178-1.278-.21a2.28 2.28 0 0 0-.284 0c-.494.033-.868.132-1.278.21-.236-.872-.632-1.705-1.244-2.601a2.255 2.255 0 0 0-.212-.247c-2.027-2.204-4.765-3.124-7.458-2.987zm.214 4.5c1.673-.086 2.615.213 3.763 1.405.4.608.555.92.605 1.16.055.267.07.817.07 1.933a2.238 2.238 0 0 0 1.076 1.893 2.29 2.29 0 0 0 2.191.11c.932-.453 1.404-.677 1.563-.737.136-.053.349-.067.852-.106.503.04.716.053.852.106.16.06.631.284 1.563.738a2.292 2.292 0 0 0 2.191-.11 2.242 2.242 0 0 0 1.076-1.894c0-1.116.015-1.665.071-1.933.05-.24.205-.553.603-1.16 1.148-1.192 2.09-1.491 3.764-1.406 1.043.053 3.518.974 4.262 1.652l4.475 4.429a2.276 2.276 0 0 0 1.846.667c2.69-.286 7.096.466 8.488 1.688l.568.562c-10.217.175-18.151 7.889-19.355 17.645l-1.668-1.09a10.146 10.146 0 0 0 1.491-5.308c0-5.563-4.605-10.122-10.227-10.122s-10.227 4.559-10.227 10.122c0 1.929.568 3.732 1.527 5.273l-1.704 1.124C38.39 49.398 30.459 41.685 20.24 41.51l.568-.563c1.392-1.221 5.798-1.973 8.489-1.687a2.294 2.294 0 0 0 1.845-.667l4.475-4.43c.744-.677 3.22-1.598 4.261-1.65zM19.886 46.008c8.826 0 15.341 6.91 15.341 15.71 0 8.801-6.518 15.782-15.34 15.782-8.823 0-15.342-6.98-15.342-15.781s6.515-15.711 15.341-15.711zm60.228 0c8.826 0 15.34 6.91 15.34 15.71 0 8.801-6.518 15.782-15.34 15.782-8.823 0-15.341-6.98-15.341-15.781s6.514-15.711 15.34-15.711zM50 47.134c3.165 0 5.682 2.492 5.682 5.623a5.51 5.51 0 0 1-1.101 3.304A5.656 5.656 0 0 1 50 58.38a5.698 5.698 0 0 1-2.18-.42 5.652 5.652 0 0 1-1.847-1.218 5.588 5.588 0 0 1-1.231-1.829 5.542 5.542 0 0 1-.424-2.157c-.004-.74.14-1.473.424-2.158a5.588 5.588 0 0 1 1.231-1.828 5.652 5.652 0 0 1 1.848-1.218 5.698 5.698 0 0 1 2.179-.42z"/></svg>