<svg xmlns="http://www.w3.org/2000/svg" width="124" height="125" viewBox="0 0 124 125" fill="none">
<g clip-path="url(#clip0_355_3475)">
<path d="M124 0.169922H0V124.174H124V0.169922Z" fill="#A21942"/>
<path d="M24.0931 29.447V26.719C24.0931 24.3233 23.2461 22.5898 21.2907 21.7044C22.9485 20.8947 23.7248 19.4191 23.7248 17.3545V16.3203C23.7248 12.4119 21.6974 10.3101 17.8249 10.3101C13.9908 10.3101 11.9969 12.4181 11.9969 16.3203V17.3545C11.9969 19.3831 12.7409 20.8947 14.3529 21.7044C12.3986 22.5898 11.5864 24.3233 11.5864 26.719V29.447C11.5864 33.2439 13.3943 35.895 17.8199 35.895C22.2839 35.895 24.0881 33.2389 24.0881 29.447M15.9376 16.055C15.9376 14.5409 16.4559 13.6568 17.8199 13.6568C19.2199 13.6568 19.7369 14.5409 19.7369 16.055V17.7501C19.7369 19.2616 19.2199 20.1495 17.8199 20.1495C16.4559 20.1495 15.9376 19.2616 15.9376 17.7501V16.055ZM19.8895 29.8884C19.8895 31.4012 19.3364 32.4701 17.8249 32.4701C16.3493 32.4701 15.7962 31.4012 15.7962 29.8884V25.8324C15.7962 24.3208 16.3493 23.2507 17.8249 23.2507C19.3364 23.2507 19.8895 24.3208 19.8895 25.8324V29.8884Z" fill="white"/>
<path d="M86.076 61.1799L73.4726 73.167C72.9977 73.6394 72.7534 73.9879 72.7534 74.9675V108.571C72.7541 108.762 72.8301 108.944 72.9649 109.078C73.0998 109.213 73.2823 109.288 73.4726 109.288H86.4926C86.6828 109.288 86.8652 109.213 86.9999 109.078C87.1345 108.944 87.2103 108.762 87.2106 108.571V61.48C87.2106 61.0832 86.9006 60.364 86.0772 61.1774" fill="white"/>
<path d="M49.7662 76.804L37.1616 88.7862C36.6879 89.2598 36.4424 89.607 36.4424 90.5854V108.565C36.4434 108.756 36.5196 108.937 36.6543 109.072C36.7891 109.206 36.9715 109.281 37.1616 109.281H50.1816C50.3716 109.281 50.5538 109.206 50.6884 109.071C50.823 108.937 50.8989 108.755 50.8995 108.565V77.0992C50.8995 76.7011 50.5858 75.9757 49.7662 76.7978" fill="white"/>
<path d="M91.8047 46.6372C91.8075 46.5867 91.7994 46.5363 91.781 46.4892C91.7626 46.4421 91.7343 46.3995 91.698 46.3644C91.6345 46.3042 91.5521 46.2679 91.4649 46.2615H91.3955H91.2925L81.6416 48.4488L81.4668 48.4674C81.3961 48.482 81.3308 48.5159 81.2783 48.5654C81.2105 48.6349 81.1726 48.7281 81.1726 48.8252C81.1726 48.9222 81.2105 49.0155 81.2783 49.085L81.3874 49.1941L83.5921 51.3976L61.7235 73.2662L51.6237 63.1639C51.5969 63.1365 51.5649 63.1147 51.5295 63.0998C51.4942 63.0849 51.4562 63.0772 51.4179 63.0772C51.3795 63.0772 51.3415 63.0849 51.3062 63.0998C51.2708 63.1147 51.2388 63.1365 51.212 63.1639L48.4716 65.9056L32.2785 82.0975C32.2248 82.1526 32.1948 82.2264 32.1948 82.3033C32.1948 82.3802 32.2248 82.4541 32.2785 82.5092L35.0226 85.252C35.0493 85.2789 35.0811 85.3003 35.1161 85.3148C35.1511 85.3294 35.1886 85.3369 35.2266 85.3369C35.2645 85.3369 35.302 85.3294 35.337 85.3148C35.372 85.3003 35.4038 85.2789 35.4305 85.252L51.4265 69.266L58.7549 76.5968C58.7619 76.609 58.7698 76.6206 58.7785 76.6316L61.5201 79.3695C61.5468 79.3969 61.5787 79.4187 61.614 79.4335C61.6492 79.4484 61.6871 79.4561 61.7254 79.4561C61.7636 79.4561 61.8015 79.4484 61.8367 79.4335C61.872 79.4187 61.9039 79.3969 61.9306 79.3695L86.7442 54.5509L89.0581 56.8635C89.0916 56.8976 89.1317 56.9248 89.1759 56.9433C89.22 56.9618 89.2675 56.9713 89.3153 56.9713C89.3633 56.9713 89.4107 56.9618 89.4548 56.9433C89.499 56.9248 89.5391 56.8976 89.5727 56.8635C89.6373 56.8008 89.6751 56.7154 89.6781 56.6254V56.5956L91.7972 46.7438L91.8047 46.6372Z" fill="white"/>
<path d="M67.9928 78.9019L61.8944 85.0498C61.8389 85.0969 61.7677 85.1215 61.695 85.1187C61.6223 85.116 61.5532 85.0861 61.5014 85.0349L55.9771 79.4078C54.9653 78.4009 54.7471 79.2181 54.7471 79.6137V108.569C54.7469 108.663 54.7653 108.756 54.8011 108.843C54.8369 108.93 54.8894 109.009 54.9558 109.075C55.0221 109.142 55.1009 109.195 55.1876 109.231C55.2743 109.267 55.3674 109.285 55.4613 109.286H68.4813C68.6711 109.285 68.8529 109.209 68.9869 109.075C69.121 108.941 69.1965 108.759 69.1968 108.569V79.1288C69.1968 78.7333 68.8856 78.0054 67.9903 78.9019" fill="white"/>
<path d="M38.415 13.2677V17.9611C38.415 19.516 37.7715 20.6816 35.9487 20.6816H33.3174V10.5471H35.9487C37.7715 10.5471 38.415 11.704 38.415 13.2677ZM35.7391 19.2916C36.4422 19.2916 36.7113 18.8737 36.7113 18.2599V12.954C36.7113 12.355 36.4422 11.9372 35.7391 11.9372H35.0211V19.2916H35.7391Z" fill="white"/>
<path d="M39.4912 10.5471H43.5572V11.9372H41.2012V14.8375H42.8901V16.2127H41.195V19.2916H43.551V20.6816H39.4912V10.5471Z" fill="white"/>
<path d="M44.4243 18.0664V13.1622C44.4243 11.5775 45.1683 10.4268 46.9651 10.4268C48.8486 10.4268 49.3719 11.4733 49.3719 12.9688V14.1641H47.8182V12.8336C47.8182 12.2062 47.6086 11.8416 46.9961 11.8416C46.3835 11.8416 46.1281 12.2756 46.1281 12.8882V18.3305C46.1281 18.9431 46.3823 19.3771 46.9961 19.3771C47.6099 19.3771 47.8182 18.9877 47.8182 18.3851V16.5263H49.3719V18.276C49.3719 19.7268 48.7742 20.8031 46.9651 20.8031C45.1559 20.8031 44.4243 19.64 44.4243 18.0664Z" fill="white"/>
<path d="M50.4033 10.5471H54.4693V11.9372H52.1133V14.8375H53.8034V16.2127H52.1071V19.2916H54.4631V20.6816H50.4033V10.5471Z" fill="white"/>
<path d="M56.916 14.3142V20.6816H55.4863V10.5471H57.164L59.003 16.3615V10.5471H60.4228V20.6816H58.9248L56.916 14.3142Z" fill="white"/>
<path d="M61.3003 10.5471H65.83V11.9372H64.4251V20.6816H62.7052V11.9372H61.3003V10.5471Z" fill="white"/>
<path d="M72.0783 14.4184L71.1223 20.6816H69.5227L68.1587 10.5471H69.8116L70.604 16.9753H70.6189L71.4707 10.5471H72.8608L73.8019 16.9753H73.8168L74.5943 10.5471H76.0302L74.7096 20.6816H73.0976L72.0957 14.4184H72.0783Z" fill="white"/>
<path d="M76.7124 18.0664V13.1622C76.7124 11.5775 77.4899 10.4268 79.2842 10.4268C81.0784 10.4268 81.8696 11.5775 81.8696 13.1622V18.0664C81.8696 19.6362 81.0921 20.8018 79.2842 20.8018C77.4762 20.8018 76.7124 19.64 76.7124 18.0664ZM80.1658 18.3355V12.8931C80.1658 12.2806 79.8967 11.8466 79.2842 11.8466C78.6716 11.8466 78.4162 12.2806 78.4162 12.8931V18.3355C78.4162 18.948 78.6852 19.382 79.2842 19.382C79.8831 19.382 80.1658 18.948 80.1658 18.3355Z" fill="white"/>
<path d="M84.6496 16.0329V20.6816H82.9458V10.5471H85.4258C87.1457 10.5471 87.7731 11.399 87.7731 12.8188V14.1196C87.7731 15.2108 87.385 15.8556 86.4091 16.0775L88.0397 20.6816H86.2492L84.6496 16.0329ZM84.6496 11.9409V15.0954H85.2175C85.8015 15.0954 86.0557 14.7954 86.0557 14.2572V12.7692C86.0557 12.2162 85.8077 11.9471 85.2175 11.9471L84.6496 11.9409Z" fill="white"/>
<path d="M90.5099 15.7489V20.6816H88.8062V10.5471H90.5099V15.0012L92.3699 10.5471H94.0439L92.0711 15.1066L94.0886 20.6866H92.2893L90.5099 15.7489Z" fill="white"/>
<path d="M96.4595 20.6816L98.3728 10.5471H100.316L102.245 20.6816H100.496L100.182 18.8291H98.3728L98.0739 20.6816H96.4595ZM98.5972 17.4676H99.9612L99.2891 13.4016H99.273L98.5972 17.4676Z" fill="white"/>
<path d="M104.248 14.3142V20.6816H102.812V10.5471H104.487L106.326 16.3615V10.5471H107.746V20.6816H106.251L104.248 14.3142Z" fill="white"/>
<path d="M113.965 13.2677V17.9611C113.965 19.516 113.321 20.6816 111.497 20.6816H108.872V10.5471H111.502C113.321 10.5471 113.965 11.704 113.965 13.2677ZM111.289 19.2916C111.991 19.2916 112.26 18.8737 112.26 18.2599V12.954C112.26 12.355 111.991 11.9372 111.289 11.9372H110.571V19.2916H111.289Z" fill="white"/>
<path d="M33.3174 25.4321H37.3833V26.8222H35.0211V29.7225H36.7113V31.0977H35.0211V34.1778H37.3833V35.5679H33.3174V25.4321Z" fill="white"/>
<path d="M38.1309 32.9514V28.0484C38.1309 26.4637 38.8749 25.313 40.6716 25.313C42.5552 25.313 43.0785 26.3583 43.0785 27.8537V29.0503H41.5235V27.7198C41.5235 27.0911 41.3152 26.7278 40.7014 26.7278C40.0876 26.7278 39.8334 27.1606 39.8334 27.7744V33.2155C39.8334 33.8281 40.0876 34.2621 40.7014 34.2621C41.3152 34.2621 41.5235 33.874 41.5235 33.2701V31.4113H43.0785V33.156C43.0785 34.6055 42.4808 35.6819 40.6716 35.6819C38.8625 35.6819 38.1309 34.52 38.1309 32.9514Z" fill="white"/>
<path d="M44.0049 32.9514V28.0484C44.0049 26.4637 44.7824 25.313 46.5766 25.313C48.3709 25.313 49.1633 26.4637 49.1633 28.0484V32.9514C49.1633 34.5212 48.3858 35.6868 46.5766 35.6868C44.7675 35.6868 44.0049 34.52 44.0049 32.9514ZM47.4583 33.2205V27.7793C47.4583 27.1655 47.1892 26.7328 46.5766 26.7328C45.9641 26.7328 45.7086 27.1655 45.7086 27.7793V33.2205C45.7086 33.833 45.9777 34.267 46.5766 34.267C47.1756 34.267 47.4583 33.833 47.4583 33.2205Z" fill="white"/>
<path d="M51.569 29.1992V35.5679H50.1343V25.4321H51.8083L53.6472 31.2477V25.4321H55.067V35.5679H53.5678L51.569 29.1992Z" fill="white"/>
<path d="M56.0391 32.9514V28.0484C56.0391 26.4637 56.8165 25.313 58.6096 25.313C60.4026 25.313 61.1962 26.4637 61.1962 28.0484V32.9514C61.1962 34.5212 60.4187 35.6868 58.6096 35.6868C56.8004 35.6868 56.0391 34.52 56.0391 32.9514ZM59.4925 33.2205V27.7793C59.4925 27.1655 59.2234 26.7328 58.6096 26.7328C57.9958 26.7328 57.7416 27.1655 57.7416 27.7793V33.2205C57.7416 33.833 58.0107 34.267 58.6096 34.267C59.2085 34.267 59.4925 33.833 59.4925 33.2205Z" fill="white"/>
<path d="M66.8616 28.9897H66.817L65.665 35.5617H64.8727L63.6029 28.9897H63.5719V35.5617H62.167V25.4321H64.151L65.2571 31.1361H65.272L66.264 25.4321H68.4178V35.5679H66.8616V28.9897Z" fill="white"/>
<path d="M69.3877 25.4321H71.0915V35.5679H69.3877V25.4321Z" fill="white"/>
<path d="M72.0439 32.9514V28.0484C72.0439 26.4637 72.7879 25.313 74.5847 25.313C76.4683 25.313 76.9915 26.3583 76.9915 27.8537V29.0503H75.4415V27.7198C75.4415 27.0911 75.232 26.7278 74.6194 26.7278C74.0069 26.7278 73.7514 27.1606 73.7514 27.7744V33.2155C73.7514 33.8281 74.0056 34.2621 74.6194 34.2621C75.2332 34.2621 75.4415 33.874 75.4415 33.2701V31.4113H76.9965V33.156C76.9965 34.6055 76.3988 35.6819 74.5897 35.6819C72.7805 35.6819 72.0439 34.52 72.0439 32.9514Z" fill="white"/>
<path d="M82.4675 30.1564H84.8892V35.5678H83.6641V34.4617C83.4397 35.2243 82.961 35.6868 82.0347 35.6868C80.5691 35.6868 79.897 34.5212 79.897 32.9514V28.0484C79.897 26.4637 80.6583 25.313 82.4526 25.313C84.3362 25.313 84.8892 26.3583 84.8892 27.8537V28.7503H83.3342V27.7198C83.3342 27.0911 83.0949 26.7278 82.4824 26.7278C81.8698 26.7278 81.6007 27.1606 81.6007 27.7744V33.2155C81.6007 33.8281 81.8487 34.2621 82.4377 34.2621C82.9908 34.2621 83.2747 33.9483 83.2747 33.2899V31.5018H82.4675V30.1564Z" fill="white"/>
<path d="M87.5649 30.9241V35.5728H85.8599V25.4321H88.3399C90.0585 25.4321 90.6872 26.284 90.6872 27.7038V29.0046C90.6872 30.0958 90.2978 30.7406 89.3232 30.9638L90.9538 35.5679H89.1645L87.5649 30.9241ZM87.5649 26.8321V29.9866H88.1328C88.7156 29.9866 88.9698 29.6878 88.9698 29.1496V27.6443C88.9698 27.0912 88.7218 26.8222 88.1328 26.8222L87.5649 26.8321Z" fill="white"/>
<path d="M91.4658 32.9514V28.0484C91.4658 26.4637 92.2433 25.313 94.0376 25.313C95.8319 25.313 96.623 26.4637 96.623 28.0484V32.9514C96.623 34.5212 95.8467 35.6868 94.0376 35.6868C92.2284 35.6868 91.4658 34.52 91.4658 32.9514ZM94.9192 33.2205V27.7793C94.9192 27.1655 94.6501 26.7328 94.0376 26.7328C93.425 26.7328 93.1696 27.1655 93.1696 27.7793V33.2205C93.1696 33.833 93.4387 34.267 94.0376 34.267C94.6365 34.267 94.9192 33.833 94.9192 33.2205Z" fill="white"/>
<path d="M100.988 29.3034L100.032 35.5679H98.4324L97.0684 25.4321H98.7163L99.5087 31.8603H99.5236L100.375 25.4321H101.765L102.708 31.8603H102.723L103.5 25.4321H104.935L103.619 35.5679H102.007L101.005 29.3034H100.988Z" fill="white"/>
<path d="M105.458 25.4321H109.988V26.8222H108.583V35.5679H106.863V26.8222H105.458V25.4321Z" fill="white"/>
<path d="M113.859 31.0977H112.22V35.5617H110.51V25.4321H112.22V29.7225H113.864V25.4321H115.583V35.5679H113.859V31.0977Z" fill="white"/>
</g>
<defs>
<clipPath id="clip0_355_3475">
<rect y="0.171875" width="124" height="124" rx="2" fill="white"/>
</clipPath>
</defs>
</svg>
