<svg xmlns="http://www.w3.org/2000/svg" width="124" height="125" viewBox="0 0 124 125" fill="none">
<g clip-path="url(#clip0_355_4993)">
<path d="M123.995 0.171875H0V124.172H123.995V0.171875Z" fill="#C5192D"/>
<path d="M37.35 20.6877V21.3759L40.5641 21.9748V20.7026L39.308 20.462C40.176 20.0442 40.5641 19.1774 40.5641 18.0701V13.1646C40.5641 11.5812 39.7866 10.4292 37.98 10.4292C36.1733 10.4292 35.4082 11.5799 35.4082 13.1646V18.0701C35.4082 19.4452 35.991 20.4484 37.35 20.6877ZM37.1132 12.8968C37.1132 12.2842 37.381 11.8515 37.9812 11.8515C38.5814 11.8515 38.8616 12.2842 38.8616 12.8968V18.4297C38.8616 19.0274 38.5938 19.4775 37.9812 19.4775C37.3686 19.4775 37.1132 19.0274 37.1132 18.4297V12.8968Z" fill="white"/>
<path d="M44.2285 20.8079C45.9645 20.8079 46.6366 19.7898 46.6366 18.22V10.5481H45.0655V18.3849C45.0655 18.9826 44.8262 19.3868 44.2285 19.3868C43.6308 19.3868 43.3915 18.9826 43.3915 18.3849V10.5481H41.6865V18.22C41.6865 19.7898 42.4305 20.8079 44.2285 20.8079Z" fill="white"/>
<path d="M49.1612 18.8325H50.9641L51.2791 20.6925H53.0287L51.1043 10.5481H49.1612L47.2441 20.6876H48.8561L49.1612 18.8325ZM50.0565 13.4051H50.0738L50.7459 17.4723H49.3819L50.0565 13.4051Z" fill="white"/>
<path d="M57.6214 19.2963H55.5903V10.5481H53.8853V20.6876H57.6214V19.2963Z" fill="white"/>
<path d="M60.1164 10.5481H58.4126V20.6863H60.1164V10.5481Z" fill="white"/>
<path d="M62.3236 20.6876H64.041V11.9394H65.4472V10.5481H60.9199V11.9394H62.3236V20.6876Z" fill="white"/>
<path d="M67.8662 20.6876H69.5712V16.8287L71.4535 10.5481H69.8242L68.7925 14.3921H68.7776L67.7472 10.5481H65.9678L67.8662 16.8287V20.6876Z" fill="white"/>
<path d="M39.4705 34.164H37.1095V31.0814H38.7972V29.7074H37.1095V26.8058H39.4705V25.4146H35.4058V35.5528H39.4705V34.164Z" fill="white"/>
<path d="M45.6133 32.8311V28.1364C45.6133 26.5666 44.9722 25.4084 43.1481 25.4084H40.5156V35.5479H43.1519C44.9759 35.5479 45.617 34.3811 45.617 32.8199M42.2243 34.1517V26.8047H42.9423C43.6441 26.8047 43.912 27.2238 43.912 27.8215V33.1312C43.912 33.7437 43.6441 34.1628 42.9423 34.1628L42.2243 34.1517Z" fill="white"/>
<path d="M46.7358 25.4146V33.0864C46.7358 34.6575 47.4798 35.6731 49.2766 35.6731C51.0126 35.6731 51.6834 34.6575 51.6834 33.0864V25.4146H50.1148V33.2501C50.1148 33.849 49.8743 34.252 49.2766 34.252C48.6789 34.252 48.4396 33.849 48.4396 33.2501V25.4146H46.7358Z" fill="white"/>
<path d="M52.8042 32.9363C52.8042 34.5062 53.5482 35.673 55.3462 35.673C57.1442 35.673 57.7518 34.5967 57.7518 33.1446V31.3962H56.1981V33.2649C56.1981 33.8638 55.9885 34.2569 55.376 34.2569C54.7634 34.2569 54.508 33.8241 54.508 33.2091V27.763C54.508 27.1492 54.756 26.7152 55.376 26.7152C55.996 26.7152 56.1981 27.0736 56.1981 27.7072V29.0377H57.7518V27.8362C57.7518 26.3482 57.2285 25.2942 55.3462 25.2942C53.5519 25.2942 52.8042 26.4461 52.8042 28.0309V32.9363Z" fill="white"/>
<path d="M60.187 33.6977H61.9999L62.3136 35.5577H64.0583L62.1301 25.4194H60.187L58.2725 35.5577H59.8845L60.187 33.6977ZM61.0823 28.2702H61.0972L61.7705 32.3374H60.4065L61.0823 28.2702Z" fill="white"/>
<path d="M63.8462 26.8058H65.2499V35.5528H66.9698V26.8058H68.3734V25.4146H63.8462V26.8058Z" fill="white"/>
<path d="M71.0209 25.4146H69.3159V35.554H71.0209V25.4146Z" fill="white"/>
<path d="M74.7287 35.673C76.5354 35.673 77.3116 34.5074 77.3116 32.935V28.0308C77.3116 26.4461 76.5354 25.2954 74.7287 25.2954C72.922 25.2954 72.1582 26.4461 72.1582 28.0308V32.935C72.1582 34.5074 72.9344 35.673 74.7287 35.673ZM73.8607 27.7618C73.8607 27.1492 74.1298 26.7165 74.7287 26.7165C75.3276 26.7165 75.6104 27.1492 75.6104 27.7618V33.2041C75.6104 33.8241 75.3413 34.2519 74.7287 34.2519C74.1162 34.2519 73.8607 33.8192 73.8607 33.2041V27.7618Z" fill="white"/>
<path d="M79.8709 29.1817L81.8748 35.5553H83.3702V25.4133H81.9492V31.2314L80.1103 25.4133H78.4375V35.5553H79.8709V29.1817Z" fill="white"/>
<path d="M19.4244 35.5651H23.4061V31.5091H25.1036V28.228H23.4061V10.563H19.2756L12.0117 28.9274V31.5091H19.4244V35.5651ZM15.7044 28.228L19.4654 17.936H19.5026V28.228H15.7044Z" fill="white"/>
<path d="M54.349 66.6596L32.1108 53.8181V95.3581L54.349 102.068V66.6596Z" fill="white"/>
<path d="M56.7959 66.7439V102.083L79.1779 95.3531V53.8193L56.7959 66.7439Z" fill="white"/>
<path d="M96.6355 52.7665C96.6431 52.4163 96.5807 52.068 96.4519 51.7422C96.3231 51.4164 96.1305 51.1195 95.8855 50.8691C95.6405 50.6187 95.3479 50.4197 95.0249 50.2839C94.702 50.1481 94.3552 50.0781 94.0048 50.0781C93.6545 50.0781 93.3076 50.1481 92.9847 50.2839C92.6617 50.4197 92.3692 50.6187 92.1241 50.8691C91.8791 51.1195 91.6865 51.4164 91.5578 51.7422C91.429 52.068 91.3666 52.4163 91.3742 52.7665V55.5999H96.6355V52.7665Z" fill="white"/>
<path d="M92.0278 94.6215H91.3743L94.0068 103.817L96.6344 94.6215H95.9809H96.6344V57.6633H95.9809H95.3274H94.6355H93.326H92.68H92.0278H91.373V94.6215H92.0278Z" fill="white"/>
<path d="M83.9554 55.6023L81.5709 53.7188V96.4851L56.8614 104.469H55.7181H55.4912H54.3491L29.75 97.5962V53.7188L27.3643 55.6023V99.2689L54.2363 106.709H55.4912H55.7181H56.973L81.7655 98.8374L83.9554 98.1926V55.6023Z" fill="white"/>
</g>
<defs>
<clipPath id="clip0_355_4993">
<rect y="0.171875" width="124" height="124" rx="2" fill="white"/>
</clipPath>
</defs>
</svg>
