<svg xmlns="http://www.w3.org/2000/svg" width="124" height="125" viewBox="0 0 124 125" fill="none">
<g clip-path="url(#clip0_355_4362)">
<path d="M124 0.169922H0V124.174H124V0.169922Z" fill="#FCC30B"/>
<path d="M12.7188 13.9916H19.2102L13.6029 35.5639H17.7718L23.2662 14.4343V10.5618H12.7188V13.9916Z" fill="white"/>
<path d="M61.9998 60.2488C58.4045 60.2473 54.8896 61.3121 51.8996 63.3084C48.9096 65.3048 46.5788 68.1431 45.202 71.4642C43.8252 74.7854 43.4643 78.4402 44.1648 81.9665C44.8654 85.4929 46.596 88.7322 49.1378 91.2748C51.6796 93.8175 54.9183 95.5492 58.4444 96.251C61.9705 96.9528 65.6255 96.5931 68.9471 95.2174C72.2687 93.8418 75.1078 91.5119 77.1051 88.5226C79.1025 85.5332 80.1685 82.0187 80.1683 78.4235C80.1686 73.6042 78.2547 68.9822 74.8476 65.5738C71.4404 62.1655 66.819 60.2501 61.9998 60.2488ZM60.6544 67.4284C60.6544 66.8245 61.2607 66.1574 62.0072 66.1574C62.7537 66.1574 63.3526 66.8245 63.3526 67.4284V73.6693C63.3526 74.2707 62.7512 74.9304 62.0072 74.9304C61.2632 74.9304 60.6544 74.2707 60.6544 73.6693V67.4284ZM61.9998 87.7359C59.7413 87.7323 57.5587 86.9203 55.847 85.4468C54.1354 83.9733 53.0078 81.9358 52.6684 79.7029C52.3289 77.47 52.8001 75.1894 53.9966 73.2739C55.193 71.3583 57.0358 69.9344 59.1912 69.2599V72.7802C57.9526 73.4117 56.9627 74.4419 56.3814 75.7048C55.8 76.9677 55.661 78.3896 55.9867 79.7412C56.3125 81.0928 57.084 82.2952 58.1768 83.1546C59.2697 84.014 60.6202 84.4802 62.0105 84.4781C63.4007 84.4759 64.7498 84.0055 65.84 83.1428C66.9302 82.28 67.698 81.0751 68.0195 79.7225C68.3411 78.37 68.1976 76.9485 67.6123 75.6874C67.0271 74.4263 66.0341 73.3991 64.7935 72.7715V69.2512C66.9545 69.9202 68.8039 71.3418 70.0061 73.2581C71.2082 75.1743 71.6834 77.4581 71.3454 79.6949C71.0073 81.9316 69.8784 83.973 68.1637 85.4484C66.4489 86.9238 64.2619 87.7354 61.9998 87.7359Z" fill="white"/>
<path d="M41.1343 78.2646C41.1343 77.44 40.4039 76.7766 39.7381 76.7766H31.7785C31.1077 76.7766 30.3711 77.4437 30.3711 78.2646C30.3711 79.0855 31.1077 79.7613 31.7785 79.7613H39.7381C40.4039 79.7613 41.1343 79.0905 41.1343 78.2646Z" fill="white"/>
<path d="M93.6287 78.2646C93.6287 77.44 92.8983 76.7766 92.2324 76.7766H84.2741C83.6033 76.7766 82.8667 77.4437 82.8667 78.2646C82.8667 79.0855 83.6033 79.7613 84.2741 79.7613H92.2324C92.8983 79.7613 93.6287 79.0905 93.6287 78.2646Z" fill="white"/>
<path d="M61.9996 57.4016C62.8218 57.4016 63.4876 56.6713 63.4876 56.0054V48.0458C63.4876 47.375 62.8193 46.6384 61.9996 46.6384C61.18 46.6384 60.5005 47.375 60.5005 48.0458V56.0054C60.5005 56.6713 61.1738 57.4016 61.9996 57.4016Z" fill="white"/>
<path d="M61.9996 109.895C62.8218 109.895 63.4876 109.164 63.4876 108.498V100.54C63.4876 99.8704 62.8193 99.1326 61.9996 99.1326C61.18 99.1326 60.5005 99.8704 60.5005 100.54V108.498C60.5005 109.164 61.1738 109.895 61.9996 109.895Z" fill="white"/>
<path d="M43.8956 67.8994C44.3061 67.1839 44.0048 66.2427 43.4244 65.9154L36.5176 61.9622C35.9348 61.6287 34.9652 61.8382 34.5547 62.5574C34.1443 63.2766 34.4518 64.2228 35.0334 64.5563L41.9414 68.5094C42.5192 68.8405 43.4864 68.621 43.8956 67.9031" fill="white"/>
<path d="M89.452 93.9742C89.86 93.2612 89.5587 92.3176 88.9808 91.9902L82.074 88.0371C81.4912 87.7048 80.5203 87.9131 80.1111 88.6335C79.7019 89.354 80.007 90.2989 80.5885 90.6312L87.4966 94.5843C88.0744 94.9154 89.0416 94.6959 89.452 93.9779" fill="white"/>
<path d="M72.3675 60.1593C73.0817 60.5672 74.0229 60.2659 74.3515 59.6881L78.3034 52.78C78.6382 52.1972 78.4274 51.2263 77.7094 50.8171C76.9914 50.4079 76.0428 50.713 75.7105 51.2958L71.7611 58.2038C71.43 58.7829 71.6495 59.7501 72.3675 60.1605" fill="white"/>
<path d="M46.2928 105.719C47.007 106.127 47.9482 105.826 48.2768 105.247L52.2287 98.3401C52.5622 97.7586 52.3527 96.7864 51.6335 96.3772C50.9143 95.968 49.9719 96.2718 49.6395 96.8558L45.6864 103.763C45.3553 104.34 45.5748 105.309 46.2928 105.719Z" fill="white"/>
<path d="M51.6013 60.1768C52.3143 59.7664 52.53 58.8004 52.1977 58.2226L48.2297 51.3232C47.8949 50.7417 46.95 50.4366 46.2358 50.8471C45.5215 51.2575 45.3045 52.2321 45.6406 52.8137L49.6086 59.7118C49.9421 60.2897 50.8858 60.5885 51.6037 60.1768" fill="white"/>
<path d="M77.7691 105.684C78.4833 105.273 78.6978 104.307 78.3667 103.731L74.3987 96.8313C74.0639 96.2485 73.1191 95.9434 72.4036 96.3539C71.6881 96.7643 71.4723 97.7389 71.8096 98.3217L75.7776 105.22C76.1099 105.798 77.0548 106.095 77.7715 105.684" fill="white"/>
<path d="M80.0903 67.8673C80.5007 68.5816 81.4654 68.7961 82.0433 68.465L88.9414 64.497C89.5242 64.1622 89.8317 63.2161 89.42 62.5018C89.0083 61.7876 88.0362 61.5718 87.4534 61.9066L80.5553 65.8746C79.9762 66.207 79.6786 67.1531 80.0903 67.8686" fill="white"/>
<path d="M34.5834 94.0399C34.9939 94.7541 35.9586 94.9686 36.5377 94.6363L43.4358 90.6683C44.0174 90.3335 44.3249 89.3874 43.912 88.6731C43.499 87.9589 42.5281 87.7431 41.9466 88.0767L35.0484 92.0447C34.4694 92.3758 34.1718 93.3231 34.5834 94.0386" fill="white"/>
<path d="M35.1514 20.6816L37.0647 10.5471H39.009L40.9372 20.6816H39.1838L38.8701 18.8291H37.0647L36.7658 20.6816H35.1514ZM37.2891 17.4676H38.6531L37.981 13.4016H37.9662L37.2891 17.4676Z" fill="white"/>
<path d="M41.5645 10.5471H45.556V11.9372H43.2682V14.8375H44.9732V16.2127H43.2682V20.6767H41.5645V10.5471Z" fill="white"/>
<path d="M46.2285 10.5471H50.2201V11.9372H47.9323V14.8375H49.6373V16.2127H47.9323V20.6767H46.2285V10.5471Z" fill="white"/>
<path d="M50.7432 18.0664V13.1622C50.7432 11.58 51.5206 10.4268 53.3199 10.4268C55.1191 10.4268 55.9065 11.5775 55.9065 13.1622V18.0664C55.9065 19.6362 55.129 20.8018 53.3199 20.8018C51.5107 20.8018 50.7432 19.64 50.7432 18.0664ZM54.1966 18.3355V12.8931C54.1966 12.2806 53.9275 11.8466 53.3137 11.8466C52.6999 11.8466 52.4457 12.2806 52.4457 12.8931V18.3355C52.4457 18.948 52.7148 19.382 53.3137 19.382C53.9126 19.382 54.1966 18.948 54.1966 18.3355Z" fill="white"/>
<path d="M58.5007 16.0329V20.6816H56.792V10.5471H59.272C60.9981 10.5471 61.628 11.399 61.628 12.82V14.1208C61.628 15.212 61.2399 15.8568 60.264 16.0788L61.8934 20.6829H60.1003L58.5007 16.0329ZM58.5007 11.9409V15.0942H59.0686C59.6527 15.0942 59.9069 14.7954 59.9069 14.2572V12.7692C59.9069 12.2162 59.6527 11.9471 59.0686 11.9471L58.5007 11.9409Z" fill="white"/>
<path d="M67.5797 13.2677V17.9611C67.5797 19.516 66.9373 20.6816 65.1133 20.6816H62.4771V10.5471H65.1083C66.9324 10.5471 67.5797 11.704 67.5797 13.2677ZM64.9037 19.2916C65.6068 19.2916 65.8759 18.8737 65.8759 18.2599V12.9527C65.8759 12.355 65.6068 11.9372 64.9037 11.9372H64.1858V19.2916H64.9037Z" fill="white"/>
<path d="M67.978 20.6816L69.8913 10.5471H71.8357L73.7639 20.6816H72.0142L71.7005 18.8291H69.8913L69.5925 20.6816H67.978ZM70.1158 17.4676H71.4798L70.804 13.4016H70.7891L70.1158 17.4676Z" fill="white"/>
<path d="M74.3911 10.5471H76.8575C78.5625 10.5471 79.1304 11.3382 79.1304 12.7791V13.812C79.1304 14.6639 78.8154 15.2021 78.1136 15.424C78.9655 15.6175 79.3846 16.1866 79.3846 17.1129V18.4583C79.3846 19.893 78.741 20.6903 77.0373 20.6903H74.3911V10.5471ZM76.0949 14.8226H76.6938C77.2468 14.8226 77.501 14.5374 77.501 13.9993V12.7593C77.501 12.2062 77.253 11.9372 76.6789 11.9372H76.0949V14.8226ZM76.0949 16.1222V19.2916H76.8389C77.4068 19.2916 77.6759 19.0076 77.6759 18.4695V16.9443C77.6759 16.4061 77.4217 16.1222 76.824 16.1222H76.0949Z" fill="white"/>
<path d="M80.1611 10.5471H81.8661V19.2916H83.8985V20.6816H80.1611V10.5471Z" fill="white"/>
<path d="M84.6002 10.5471H88.6674V11.9372H86.304V14.8375H87.9929V16.2127H86.304V19.2916H88.66V20.6816H84.5928L84.6002 10.5471Z" fill="white"/>
<path d="M90.7295 20.6816L92.6428 10.5471H94.5859L96.5153 20.6816H94.7657L94.452 18.8291H92.6428L92.344 20.6816H90.7295ZM92.8673 17.4676H94.2313L93.5592 13.4016H93.5431L92.8673 17.4676Z" fill="white"/>
<path d="M98.5797 14.3142V20.6816H97.1426V10.5471H98.8166L100.656 16.3615V10.5471H102.075V20.6816H100.581L98.5797 14.3142Z" fill="white"/>
<path d="M108.069 13.2677V17.9611C108.069 19.516 107.427 20.6816 105.603 20.6816H102.972V10.5471H105.603C107.427 10.5471 108.069 11.704 108.069 13.2677ZM105.4 19.2916C106.103 19.2916 106.372 18.8737 106.372 18.2599V12.9527C106.372 12.355 106.103 11.9372 105.4 11.9372H104.683V19.2916H105.4Z" fill="white"/>
<path d="M35.4067 32.9487V28.0717C35.4067 26.4957 36.1507 25.3438 37.9351 25.3438C39.8087 25.3438 40.3295 26.3853 40.3295 27.8721V29.0638H38.782V27.7432C38.782 27.1232 38.5737 26.7623 37.9649 26.7623C37.356 26.7623 37.0969 27.1926 37.0969 27.8027V33.2165C37.0969 33.8266 37.3449 34.2569 37.9649 34.2569C38.5849 34.2569 38.782 33.87 38.782 33.276V31.4197H40.3295V33.1557C40.3295 34.5979 39.7343 35.6692 37.9351 35.6692C36.1359 35.6692 35.4067 34.5098 35.4067 32.9487Z" fill="white"/>
<path d="M41.3995 25.4678H43.0945V34.1676H45.117V35.5515H41.397L41.3995 25.4678Z" fill="white"/>
<path d="M46.0396 25.4678H50.0844V26.8516H47.7396V29.7359H49.4198V31.0999H47.7396V34.1627H50.0956V35.5465H46.0396V25.4678Z" fill="white"/>
<path d="M50.873 35.5515L52.7764 25.4678H54.7096L56.6279 35.5515H54.8919L54.5794 33.7076H52.7764L52.4788 35.5515H50.873ZM52.9996 32.3535H54.3525L53.6829 28.3086H53.668L52.9996 32.3535Z" fill="white"/>
<path d="M58.8999 29.2163V35.5515H57.4751V25.4678H59.1479L60.9769 31.2536V25.4678H62.3892V35.5515H60.9012L58.8999 29.2163Z" fill="white"/>
<path d="M66.9189 25.4678H70.9638V26.8516H68.614V29.7359H70.2942V31.0999H68.614V34.1627H70.9638V35.5465H66.9189V25.4678Z" fill="white"/>
<path d="M73.4078 29.2163V35.5515H71.9756V25.4678H73.6409L75.4699 31.2536V25.4678H76.8798V35.5515H75.3918L73.4078 29.2163Z" fill="white"/>
<path d="M77.9834 25.4678H82.0283V26.8516H79.6785V29.7359H81.3587V31.0999H79.6785V34.1627H82.0283V35.5465H77.9834V25.4678Z" fill="white"/>
<path d="M84.75 30.9238V35.549H83.0537V25.4678H85.5226C87.2338 25.4678 87.8575 26.3159 87.8575 27.7283V29.0229C87.8575 30.1079 87.4706 30.7477 86.5046 30.9709L88.1253 35.5515H86.341L84.75 30.9238ZM84.75 26.8491V29.9863H85.3118C85.8921 29.9863 86.145 29.6887 86.145 29.1543V27.6663C86.145 27.1157 85.897 26.8491 85.3118 26.8491H84.75Z" fill="white"/>
<path d="M91.4856 30.1673H93.8949V35.5514H92.676V34.4503C92.4528 35.2092 91.9766 35.6705 91.0553 35.6705C89.5971 35.6705 88.9287 34.5098 88.9287 32.9487V28.0717C88.9287 26.4957 89.6864 25.3438 91.4707 25.3438C93.3456 25.3438 93.8949 26.3853 93.8949 27.8721V28.7649H92.3486V27.7382C92.3486 27.1182 92.1106 26.7573 91.5017 26.7573C90.8929 26.7573 90.6238 27.1876 90.6238 27.7977V33.2116C90.6238 33.8216 90.8718 34.2519 91.4558 34.2519C92.0064 34.2519 92.2891 33.9394 92.2891 33.2859V31.5065H91.4856V30.1673Z" fill="white"/>
<path d="M98.2823 31.7137V35.5515H96.5872V31.7137L94.6987 25.4678H96.4719L97.4987 29.2907H97.5135L98.5353 25.4678H100.156L98.2823 31.7137Z" fill="white"/>
</g>
<defs>
<clipPath id="clip0_355_4362">
<rect y="0.171875" width="124" height="124" rx="2" fill="white"/>
</clipPath>
</defs>
</svg>
