<svg viewBox="0 0 100 100" xmlns="http://www.w3.org/2000/svg"><path d="M50.267 86a2.046 2.046 0 0 1-1.49-.62L15.487 52a2.12 2.12 0 0 1 0-2.99l12.428-12.472a12.07 12.07 0 0 0-5.398-2.511 14.584 14.584 0 0 1-2.475-.762 10.244 10.244 0 0 1-4.526-3.81 9.986 9.986 0 0 1 0-10.58 10.27 10.27 0 0 1 1.49-1.862 9.705 9.705 0 0 1 1.828-1.467 9.815 9.815 0 0 1 10.571 0 10.036 10.036 0 0 1 3.796 4.514c.325.804.58 1.635.759 2.483a12.152 12.152 0 0 0 2.502 5.417l12.427-12.47a2.16 2.16 0 0 1 2.98 0l14.058 14.107a2.12 2.12 0 0 1 0 2.99 16.854 16.854 0 0 1-8.94 5.051c-.623.128-1.235.308-1.828.537a5.938 5.938 0 0 0-2.643 2.229 5.658 5.658 0 0 0 0 6.038c.27.399.571.776.9 1.128a8.25 8.25 0 0 0 1.153.903 5.609 5.609 0 0 0 5.96 0 6.032 6.032 0 0 0 2.25-2.652c.215-.59.393-1.193.533-1.806a16.691 16.691 0 0 1 5.033-9 2.105 2.105 0 0 1 2.98 0l14.058 14.107a2.12 2.12 0 0 1 0 2.991L51.757 85.379a2.078 2.078 0 0 1-1.49.62zm-30.28-35.495l30.28 30.388 30.28-30.388L69.61 39.529a12.492 12.492 0 0 0-2.502 5.417 17.616 17.616 0 0 1-.73 2.483 10.148 10.148 0 0 1-3.825 4.543 9.899 9.899 0 0 1-10.515 0c-.67-.443-1.3-.943-1.884-1.495a10.972 10.972 0 0 1-1.462-1.863 10.015 10.015 0 0 1 0-10.609 10.188 10.188 0 0 1 4.499-3.809 15.4 15.4 0 0 1 2.474-.762 11.93 11.93 0 0 0 5.398-2.51L50.267 20.115l-12.512 12.53a2.105 2.105 0 0 1-2.98 0 16.944 16.944 0 0 1-5.033-9 9 9 0 0 0-.534-1.806 5.808 5.808 0 0 0-2.221-2.653 5.608 5.608 0 0 0-5.989 0c-.408.257-.785.56-1.124.903-.35.351-.661.74-.928 1.157a5.659 5.659 0 0 0 0 5.982 5.797 5.797 0 0 0 2.643 2.229c.58.241 1.182.421 1.8.536a16.853 16.853 0 0 1 8.968 5.05 2.12 2.12 0 0 1 0 2.991l-12.37 12.472z"/></svg>