<svg viewBox="0 0 100 100" xmlns="http://www.w3.org/2000/svg"><path d="M63.516 22.32a2.27 2.27 0 0 0-2.271 2.27v11.635a2.271 2.271 0 1 0 4.542 0V26.96c13.079 1.153 23.372 12.169 23.372 25.543 0 14.139-11.503 25.642-25.642 25.642S37.874 66.643 37.874 52.504c0-8.16 3.94-15.906 10.539-20.725a2.27 2.27 0 0 0-2.678-3.668C37.969 33.78 33.332 42.9 33.332 52.504c0 16.643 13.54 30.184 30.184 30.184 16.643 0 30.184-13.54 30.184-30.184 0-16.644-13.54-30.184-30.184-30.184z"/><path d="M48.308 43.976a2.272 2.272 0 0 0 .819 3.105l12.678 7.385a2.268 2.268 0 0 0 3.339-2.541 2.27 2.27 0 0 0-1.053-1.383l-12.678-7.385a2.268 2.268 0 0 0-3.105.819zM8.167 37.525h21a2 2 0 0 0 0-4h-21a2 2 0 1 0 0 4zm-4 10.654h21a2 2 0 0 0 0-4h-21a2 2 0 1 0 0 4zm23 8.654a2 2 0 0 0-2-2h-21a2 2 0 1 0 0 4h21a2 2 0 0 0 2-2zm4 10.654a2 2 0 0 0-2-2h-21a2 2 0 1 0 0 4h21a2 2 0 0 0 2-2z"/></svg>