<svg viewBox="0 0 100 100" xmlns="http://www.w3.org/2000/svg"><g clip-path="url(#clip0)"><path d="M50 7.813a1.563 1.563 0 0 0 1.563-1.563V1.562a1.563 1.563 0 1 0-3.126 0V6.25A1.563 1.563 0 0 0 50 7.813zm0 84.374a1.563 1.563 0 0 0-1.563 1.563v4.688a1.563 1.563 0 0 0 3.126 0V93.75A1.563 1.563 0 0 0 50 92.187zm48.438-43.75H93.75a1.563 1.563 0 0 0 0 3.126h4.688a1.563 1.563 0 0 0 0-3.126zm-92.188 0H1.562a1.563 1.563 0 1 0 0 3.126H6.25a1.563 1.563 0 1 0 0-3.126zM17.96 20.17a1.555 1.555 0 0 0 1.972.194 1.562 1.562 0 0 0 .237-2.404l-3.315-3.314a1.562 1.562 0 1 0-2.21 2.209l3.315 3.315zm0 59.663l-3.315 3.314a1.56 1.56 0 0 0-.02 2.229 1.563 1.563 0 0 0 2.23-.02l3.314-3.314a1.56 1.56 0 0 0-.493-2.57 1.562 1.562 0 0 0-1.716.361zm62.976-59.205c.4 0 .8-.153 1.105-.458l3.315-3.315a1.562 1.562 0 1 0-2.21-2.21l-3.315 3.315a1.562 1.562 0 0 0 1.105 2.668zm-.13 51.643a1.564 1.564 0 0 0-1.09-.512 1.616 1.616 0 0 0-1.09.378l-3.456-3.62A31.106 31.106 0 0 0 81.25 50c0-17.26-13.99-31.25-31.25-31.25-17.26 0-31.25 13.99-31.25 31.25 0 17.26 13.99 31.25 31.25 31.25a31.09 31.09 0 0 0 16.91-4.977l3.411 3.57-.273.246.02.02a1.558 1.558 0 0 0 .044 2.034L84.877 98.46c.925.992 2.204 1.54 3.604 1.54a5.427 5.427 0 0 0 3.669-1.447l2.957-2.709c1.066-.976 1.71-2.34 1.764-3.74.052-1.313-.404-2.555-1.265-3.476l-14.8-16.358zM21.875 50c0-15.508 12.617-28.125 28.125-28.125S78.125 34.492 78.125 50 65.508 78.125 50 78.125 21.875 65.508 21.875 50zm47.598 24.432a31.482 31.482 0 0 0 3.707-3.476l3.242 3.396-3.777 3.4-3.172-3.32zm23.523 19.107L90.04 96.25c-.44.403-.994.625-1.558.625-.522 0-.99-.194-1.302-.528l-13.7-15.14 6.172-5.556 13.655 15.092c.39.418.456.905.442 1.239-.021.573-.296 1.14-.752 1.557z"/><path d="M50 26.563c-12.944 0-23.438 10.493-23.438 23.437S37.056 73.438 50 73.438c12.944 0 23.438-10.494 23.438-23.438 0-12.944-10.494-23.438-23.438-23.438zm0 43.75C38.8 70.313 29.687 61.2 29.687 50S38.8 29.687 50 29.687 70.313 38.8 70.313 50 61.2 70.313 50 70.313z"/><path d="M60.36 38.392L45.604 44.26c-.36.143-.654.414-.825.761l-7.117 14.446a1.561 1.561 0 0 0 1.978 2.142l14.757-5.865c.36-.143.653-.414.824-.762l7.117-14.447a1.563 1.563 0 0 0-1.978-2.142zm-13.897 10.28l4.91 4.91-9.114 3.622 4.204-8.532zm7.075 2.656l-4.91-4.91 9.113-3.623-4.203 8.533z"/></g><defs><clipPath id="clip0"><path fill="#fff" d="M0 0h100v100H0z"/></clipPath></defs></svg>