<svg xmlns="http://www.w3.org/2000/svg" width="124" height="125" viewBox="0 0 124 125" fill="none">
<g clip-path="url(#clip0_355_4284)">
<path d="M123.994 0.171875H0V124.172H123.994V0.171875Z" fill="#FF3A21"/>
<path d="M37.5435 20.8067C38.4722 20.8067 38.9509 20.343 39.1741 19.5816V20.6864H40.3992V15.2738H37.9787V16.6192H38.786V18.4148C38.786 19.072 38.5008 19.3857 37.9477 19.3857C37.3649 19.3857 37.1107 18.9517 37.1107 18.3391V12.8943C37.1107 12.2842 37.3798 11.849 37.9936 11.849C38.6074 11.849 38.8455 12.2073 38.8455 12.841V13.8726H40.3992V12.9749C40.3992 11.4794 39.8462 10.4316 37.9638 10.4316C36.1696 10.4316 35.4082 11.5836 35.4082 13.1683V18.0738C35.4082 19.6436 36.079 20.8104 37.5435 20.8104" fill="white"/>
<path d="M45.5862 19.2963H43.2252V16.2149H44.9154V14.8385H43.2252V11.9394H45.5862V10.5469H41.5215V20.6876H45.5862V19.2963Z" fill="white"/>
<path d="M48.0846 14.3165L50.0859 20.6876H51.5814V10.5469H50.1628V16.365L48.3227 10.5469H46.6499V20.6876H48.0846V14.3165Z" fill="white"/>
<path d="M57.8003 17.9646V13.27C57.8003 11.7002 57.158 10.542 55.334 10.542H52.7002V20.6827H55.329C57.153 20.6827 57.7954 19.5159 57.7954 17.9547M54.404 19.2865V11.9382H55.1219C55.8238 11.9382 56.0916 12.3574 56.0916 12.955V18.2647C56.0916 18.8773 55.8238 19.2964 55.1219 19.2964L54.404 19.2865Z" fill="white"/>
<path d="M62.9881 19.2963H60.6283V16.2149H62.3172V14.8385H60.6283V11.9394H62.9881V10.5469H58.9233V20.6876H62.9881V19.2963Z" fill="white"/>
<path d="M65.7411 16.0351L67.332 20.6876H69.1262L67.5031 16.081C68.474 15.8566 68.8671 15.213 68.8671 14.1218V12.8198C68.8671 11.3988 68.2397 10.5457 66.521 10.5457H64.041V20.6864H65.746L65.7411 16.0351ZM65.7411 11.9431H66.3065C66.8905 11.9431 67.1435 12.211 67.1435 12.764V14.252C67.1435 14.7927 66.8955 15.0903 66.3065 15.0903H65.7411V11.9431Z" fill="white"/>
<path d="M39.4729 34.1615H37.112V31.0814H38.8008V29.7062H37.112V26.8046H39.4729V25.4133H35.4082V35.5528H39.4729V34.1615Z" fill="white"/>
<path d="M42.4651 35.5515V36.2409L45.6767 36.8386V35.5676L44.4218 35.3271C45.2898 34.9092 45.6767 34.0424 45.6767 32.9351V28.0296C45.6767 26.4449 44.9004 25.293 43.0913 25.293C41.2821 25.293 40.522 26.4449 40.522 28.0296V32.9351C40.522 34.3115 41.1048 35.3134 42.4651 35.5515ZM42.2245 27.7618C42.2245 27.1492 42.4936 26.714 43.0925 26.714C43.6914 26.714 43.9741 27.1492 43.9741 27.7618V33.2959C43.9741 33.8936 43.7063 34.3412 43.0925 34.3412C42.4787 34.3412 42.2245 33.8936 42.2245 33.2959V27.7618Z" fill="white"/>
<path d="M46.7842 25.4133V33.0852C46.7842 34.6551 47.5282 35.6719 49.3249 35.6719C51.0609 35.6719 51.7318 34.6551 51.7318 33.0852V25.4133H50.1632V33.2489C50.1632 33.8478 49.9239 34.2508 49.3249 34.2508C48.726 34.2508 48.4879 33.8478 48.4879 33.2489V25.4133H46.7842Z" fill="white"/>
<path d="M54.4833 33.6977H56.2962L56.6099 35.5577H58.3583L56.4301 25.4182H54.4833L52.5762 35.5527H54.1882L54.4833 33.6977ZM55.3786 28.2702H55.3959L56.0668 32.3374H54.7028L55.3786 28.2702Z" fill="white"/>
<path d="M59.1929 25.4133V35.5528H62.929V34.1628H60.8979V25.4133H59.1929Z" fill="white"/>
<path d="M65.5463 25.4133H63.8413V35.5528H65.5463V25.4133Z" fill="white"/>
<path d="M69.5964 35.5528V26.8046H71.0001V25.4146H66.4741V26.8046H67.8778V35.5528H69.5964Z" fill="white"/>
<path d="M73.5417 35.5528H75.2467V31.6952L77.1278 25.4146H75.5009L74.4692 29.2561H74.4544L73.4239 25.4146H71.6445L73.5417 31.6952V35.5528Z" fill="white"/>
<path d="M19.7703 18.4793C18.1112 18.4793 16.8948 19.0683 16.2301 20.2153H16.1929V13.9806H23.4209V10.5508H12.3601V24.6384H16.1929V24.0829C16.1929 22.6085 16.8576 21.7963 18.0368 21.7963C19.3276 21.7963 19.846 22.6829 19.846 24.0482V30.0957C19.846 31.4237 19.3648 32.3438 18.074 32.3438C16.6356 32.3438 16.121 31.3853 16.121 29.9121V26.7762H12.2832V29.6158C12.2832 33.4139 13.796 35.848 18.074 35.848C22.3148 35.848 24.0471 33.5987 24.0471 30.1316V24.011C24.0471 20.0653 22.0197 18.4793 19.7703 18.4793Z" fill="white"/>
<path d="M90.3153 47.0911H74.9045C74.8526 47.0917 74.8029 47.1127 74.7663 47.1496C74.7296 47.1865 74.7089 47.2362 74.7086 47.2882V52.4082C74.7086 52.4603 74.7292 52.5102 74.7659 52.5472C74.8026 52.5841 74.8525 52.605 74.9045 52.6053H81.0401L74.2263 59.4253C70.6811 56.6304 66.2973 55.1119 61.7829 55.1151C50.6539 55.1151 41.5981 64.1671 41.5981 75.2998C41.5981 85.5472 49.275 94.0238 59.1776 95.3097V101.211H53.1016C53.0757 101.21 53.05 101.215 53.026 101.225C53.0019 101.234 52.98 101.248 52.9616 101.267C52.9431 101.285 52.9284 101.306 52.9184 101.33C52.9084 101.354 52.9032 101.38 52.9032 101.406V106.895C52.9031 106.921 52.9081 106.947 52.918 106.971C52.928 106.995 52.9426 107.017 52.9611 107.035C52.9796 107.053 53.0016 107.067 53.0257 107.077C53.0498 107.087 53.0756 107.091 53.1016 107.091H59.1776V112.888C59.1775 112.914 59.1824 112.939 59.1922 112.963C59.202 112.987 59.2164 113.009 59.2346 113.027C59.2529 113.045 59.2745 113.06 59.2984 113.069C59.3222 113.079 59.3478 113.084 59.3735 113.084H64.8593C64.8852 113.084 64.9109 113.079 64.9348 113.069C64.9588 113.06 64.9807 113.045 64.9991 113.027C65.0175 113.009 65.0322 112.987 65.0422 112.963C65.0523 112.939 65.0575 112.914 65.0577 112.888V107.086H71.1337C71.1594 107.086 71.1848 107.081 71.2085 107.071C71.2322 107.061 71.2537 107.047 71.2718 107.029C71.2899 107.01 71.3042 106.989 71.3139 106.965C71.3236 106.941 71.3285 106.916 71.3284 106.89V101.401C71.3284 101.375 71.3233 101.35 71.3136 101.326C71.3038 101.302 71.2894 101.281 71.2714 101.263C71.2533 101.245 71.2318 101.231 71.2082 101.221C71.1846 101.211 71.1593 101.206 71.1337 101.206H65.0577V95.2093C74.6342 93.6382 81.9639 85.3091 81.9639 75.2949C81.9674 71.1368 80.6792 67.0802 78.2773 63.686L84.9957 56.9639V62.6952C84.9963 62.7476 85.0177 62.7976 85.0551 62.8344C85.0925 62.8711 85.1429 62.8915 85.1953 62.8911H90.3153C90.3677 62.8915 90.4181 62.8711 90.4555 62.8344C90.4929 62.7976 90.5142 62.7476 90.5149 62.6952V47.2919C90.5147 47.2659 90.5094 47.2401 90.4993 47.2161C90.4892 47.1921 90.4745 47.1703 90.4559 47.152C90.4374 47.1337 90.4154 47.1192 90.3913 47.1094C90.3671 47.0996 90.3413 47.0946 90.3153 47.0948M61.7829 90.1526C58.8443 90.1526 55.9717 89.2812 53.5284 87.6486C51.085 86.016 49.1807 83.6955 48.0562 80.9807C46.9316 78.2658 46.6374 75.2784 47.2107 72.3963C47.784 69.5142 49.199 66.8668 51.2769 64.7889C53.3548 62.711 56.0022 61.296 58.8843 60.7227C61.7664 60.1494 64.7538 60.4436 67.4687 61.5682C70.1835 62.6927 72.504 64.5971 74.1366 67.0404C75.7692 69.4837 76.6405 72.3563 76.6405 75.2949C76.6366 79.2342 75.07 83.011 72.2845 85.7965C69.499 88.582 65.7222 90.1486 61.7829 90.1526Z" fill="white"/>
<path d="M71.0083 69.1966H52.9874C52.9382 69.1945 52.8902 69.2118 52.8536 69.2447C52.817 69.2776 52.7947 69.3235 52.7915 69.3727V73.735C52.7925 73.7596 52.7983 73.7838 52.8087 73.8062C52.8191 73.8286 52.8338 73.8487 52.8521 73.8653C52.8703 73.8819 52.8917 73.8947 52.9149 73.903C52.9381 73.9113 52.9628 73.9149 52.9874 73.9135H71.0083C71.0332 73.9152 71.0582 73.9119 71.0818 73.9038C71.1054 73.8957 71.1272 73.8829 71.1458 73.8663C71.1643 73.8496 71.1794 73.8295 71.1901 73.8069C71.2008 73.7844 71.2069 73.7599 71.208 73.735V69.3727C71.2045 69.323 71.1816 69.2767 71.1442 69.2437C71.1069 69.2108 71.0581 69.1938 71.0083 69.1966Z" fill="white"/>
<path d="M71.0083 76.9862H52.9874C52.9374 76.9849 52.8888 77.0032 52.8522 77.0373C52.8156 77.0714 52.7938 77.1185 52.7915 77.1685V81.5308C52.7928 81.5553 52.7989 81.5792 52.8094 81.6013C52.8199 81.6234 52.8347 81.6432 52.8529 81.6595C52.8711 81.6759 52.8924 81.6885 52.9155 81.6966C52.9385 81.7048 52.963 81.7083 52.9874 81.7069H71.0083C71.033 81.7086 71.0578 81.7054 71.0813 81.6974C71.1047 81.6894 71.1263 81.6769 71.1449 81.6605C71.1635 81.6442 71.1786 81.6243 71.1894 81.602C71.2003 81.5797 71.2066 81.5556 71.208 81.5308V77.1685C71.2054 77.118 71.183 77.0705 71.1456 77.0363C71.1083 77.0022 71.0589 76.9842 71.0083 76.9862Z" fill="white"/>
</g>
<defs>
<clipPath id="clip0_355_4284">
<rect y="0.171875" width="124" height="124" rx="2" fill="white"/>
</clipPath>
</defs>
</svg>
