<svg xmlns="http://www.w3.org/2000/svg" width="124" height="125" viewBox="0 0 124 125" fill="none">
<g clip-path="url(#clip0_355_4703)">
<path d="M124 0.171875H0V124.172H124V0.171875Z" fill="#19486A"/>
<path d="M39.5698 10.5481H42.0969C43.8156 10.5481 44.443 11.4 44.443 12.8223V14.96C44.443 16.3823 43.8156 17.2491 42.0969 17.2491H41.2748V20.6888H39.5698V10.5481ZM41.2748 11.9381V15.9322H41.901C42.4851 15.9322 42.7368 15.6482 42.7368 15.0939V12.7615C42.7368 12.2097 42.4888 11.9381 41.901 11.9381H41.2748Z" fill="white"/>
<path d="M44.6523 20.6888L46.5669 10.5481H48.5087L50.4357 20.6888H48.6885L48.3748 18.8288H46.5669L46.2668 20.6888H44.6523ZM46.7913 17.4723H48.1553L47.482 13.4038H47.4671L46.7913 17.4723Z" fill="white"/>
<path d="M52.9953 16.0438V20.695H51.2915V10.5481H53.7715C55.4901 10.5481 56.1176 11.4 56.1176 12.8223V14.123C56.1176 15.2142 55.7295 15.859 54.7536 16.0822L56.3829 20.6888H54.5911L52.9953 16.0438ZM52.9953 11.9443V15.1001H53.5681C54.1522 15.1001 54.4064 14.8013 54.4064 14.2631V12.7615C54.4064 12.2097 54.1584 11.9381 53.5681 11.9381L52.9953 11.9443Z" fill="white"/>
<path d="M56.7251 10.5481H61.2548V11.9381H59.8487V20.6888H58.13V11.9381H56.7251V10.5481Z" fill="white"/>
<path d="M63.7696 14.3177V20.6888H62.335V10.5481H64.0065L65.8479 16.3649V10.5481H67.2664V20.6888H65.7722L63.7696 14.3177Z" fill="white"/>
<path d="M68.666 10.5481H72.7307V11.9381H70.371V14.8397H72.0599V16.2174H70.371V19.2975H72.7307V20.6888H68.666V10.5481Z" fill="white"/>
<path d="M75.4972 16.0438V20.695H73.7935V10.5481H76.2735C77.9946 10.5481 78.6208 11.4 78.6208 12.8223V14.123C78.6208 15.2142 78.2314 15.859 77.2568 16.0822L78.8861 20.6888H77.0956L75.4972 16.0438ZM75.4972 11.9443V15.1001H76.0664C76.6492 15.1001 76.9034 14.8013 76.9034 14.2631V12.7615C76.9034 12.2097 76.6492 11.9381 76.0664 11.9381L75.4972 11.9443Z" fill="white"/>
<path d="M79.4717 18.5041V17.1401H81.0576V18.5301C81.0576 19.0993 81.3056 19.4279 81.8922 19.4279C82.4316 19.4279 82.6696 19.0683 82.6696 18.5301V18.1519C82.6696 17.5679 82.4316 17.2083 81.9058 16.7147L80.9064 15.7116C79.9342 14.7568 79.4866 14.1715 79.4866 13.0071V12.6624C79.4866 11.4051 80.2194 10.4304 81.8773 10.4304C83.581 10.4304 84.2556 11.2674 84.2556 12.7343V13.5565H82.6994V12.6748C82.6994 12.0895 82.4316 11.8068 81.8922 11.8068C81.4135 11.8068 81.0862 12.0771 81.0862 12.6451V12.8546C81.0862 13.4238 81.4011 13.7511 81.8922 14.2298L82.9834 15.3061C83.9109 16.2485 84.3573 16.8164 84.3573 17.9386V18.4346C84.3573 19.8271 83.6133 20.8117 81.8773 20.8117C80.1413 20.8117 79.4717 19.8408 79.4717 18.509" fill="white"/>
<path d="M88.7555 16.2174H87.1125V20.6888H85.4062V10.5481H87.1125V14.8422H88.7555V10.5481H90.4729V20.6888H88.7555V16.2174Z" fill="white"/>
<path d="M93.3 10.5481H91.5962V20.6876H93.3V10.5481Z" fill="white"/>
<path d="M94.436 10.5481H96.9681C98.688 10.5481 99.3154 11.4 99.3154 12.8223V14.96C99.3154 16.3823 98.688 17.2491 96.9681 17.2491H96.1472V20.6888H94.436V10.5481ZM96.141 11.9381V15.9322H96.761C97.3451 15.9322 97.5993 15.6482 97.5993 15.0939V12.7615C97.5993 12.2097 97.3513 11.9381 96.761 11.9381H96.141Z" fill="white"/>
<path d="M99.9751 18.5041V17.1401H101.556V18.5301C101.556 19.0993 101.81 19.4279 102.394 19.4279C102.931 19.4279 103.172 19.0683 103.172 18.5301V18.1519C103.172 17.5679 102.931 17.2083 102.409 16.7147L101.407 15.7116C100.436 14.7568 99.9875 14.1715 99.9875 13.0071V12.6624C99.9875 11.4051 100.722 10.4304 102.378 10.4304C104.083 10.4304 104.754 11.2674 104.754 12.7343V13.5565H103.204V12.6748C103.204 12.0895 102.934 11.8068 102.397 11.8068C101.918 11.8068 101.591 12.0771 101.591 12.6451V12.8546C101.591 13.4238 101.902 13.7511 102.397 14.2298L103.488 15.3061C104.414 16.2485 104.862 16.8164 104.862 17.9386V18.4346C104.862 19.8271 104.118 20.8117 102.382 20.8117C100.646 20.8117 99.9763 19.8408 99.9763 18.509" fill="white"/>
<path d="M18.5544 10.5642V35.5639H14.3508V16.4269H14.3136L11.3636 19.4873H11.3276V15.0989L15.2002 10.5642H18.5544Z" fill="white"/>
<path d="M20.4722 10.5642H31.0196V14.4355L25.5239 35.5639H21.355L26.9611 13.9928H20.4722V10.5642Z" fill="white"/>
<path d="M39.5723 25.2769H43.6271V26.688H41.3033V29.6342H43.0343V31.0292H41.3033V35.5689H39.5723V25.2769Z" fill="white"/>
<path d="M44.2334 32.9078V27.9329C44.2334 26.3209 45.022 25.1553 46.8374 25.1553C48.6528 25.1553 49.4761 26.3246 49.4761 27.9329V32.9078C49.4761 34.5012 48.6875 35.6854 46.8498 35.6854C45.0121 35.6854 44.2458 34.5012 44.2458 32.9078M47.7513 33.1806V27.6601C47.7513 27.0401 47.4785 26.5974 46.856 26.5974C46.2335 26.5974 45.9768 27.0376 45.9768 27.6601V33.1855C45.9768 33.8055 46.2484 34.2482 46.856 34.2482C47.4636 34.2482 47.7513 33.808 47.7513 33.1855" fill="white"/>
<path d="M52.3278 30.8482V35.5689H50.5918V25.2769H53.1115C54.8574 25.2769 55.496 26.1449 55.496 27.5845V28.9051C55.496 30.0124 55.1004 30.6659 54.1146 30.8891L55.7676 35.5651H53.9485L52.3278 30.8482ZM52.3278 26.688V29.8921H52.9044C53.4959 29.8921 53.755 29.5883 53.755 29.0415V27.5225C53.755 26.9608 53.4959 26.688 52.9044 26.688H52.3278Z" fill="white"/>
<path d="M58.2339 25.2769H62.833V26.688H61.407V35.5689H59.6611V26.688H58.2339V25.2769Z" fill="white"/>
<path d="M67.0383 31.0292H65.368V35.5689H63.6382V25.2769H65.368V29.6342H67.0383V25.2769H68.7842V35.5689H67.0383V31.0292Z" fill="white"/>
<path d="M69.9102 25.2769H74.0394V26.688H71.6412V29.6342H73.3561V31.0292H71.6412V34.1577H74.0394V35.5689H69.9102V25.2769Z" fill="white"/>
<path d="M79.5684 30.0731H82.0273V35.5688H80.7873V34.4454C80.5604 35.2204 80.0743 35.6854 79.1332 35.6854C77.6452 35.6854 76.9619 34.5012 76.9619 32.9078V27.9329C76.9619 26.3209 77.7357 25.1553 79.5585 25.1553C81.4706 25.1553 82.0385 26.218 82.0385 27.7357V28.6459H80.4488V27.5993C80.4488 26.962 80.2008 26.5974 79.5808 26.5974C78.9608 26.5974 78.6855 27.0376 78.6855 27.6601V33.1855C78.6855 33.8055 78.9422 34.2482 79.5362 34.2482C80.0966 34.2482 80.3856 33.9283 80.3856 33.2562V31.4396H79.5659L79.5684 30.0731Z" fill="white"/>
<path d="M83.0142 32.9078V27.9329C83.0142 26.3209 83.8028 25.1553 85.6182 25.1553C87.4335 25.1553 88.2457 26.3246 88.2457 27.9329V32.9078C88.2457 34.5012 87.4558 35.6854 85.6182 35.6854C83.7805 35.6854 83.0142 34.5012 83.0142 32.9078ZM86.5209 33.1806V27.6601C86.5209 27.0401 86.2468 26.5974 85.6244 26.5974C85.0019 26.5974 84.7452 27.0376 84.7452 27.6601V33.1855C84.7452 33.8055 85.018 34.2482 85.6244 34.2482C86.2307 34.2482 86.5209 33.808 86.5209 33.1855" fill="white"/>
<path d="M88.7368 35.5689L90.6799 25.2769H92.654L94.6119 35.5689H92.835L92.5176 33.6853H90.6799L90.3773 35.5689H88.7368ZM90.9068 32.3052H92.2894L91.6049 28.176H91.5913L90.9068 32.3052Z" fill="white"/>
<path d="M95.6025 25.2769H97.3336V34.1577H99.3969V35.5689H95.6025V25.2769Z" fill="white"/>
<path d="M100.019 33.3529V31.9716H101.631V33.3827C101.631 33.9593 101.89 34.2941 102.48 34.2941C103.028 34.2941 103.271 33.9283 103.271 33.3827V32.9884C103.271 32.3956 103.023 32.0323 102.496 31.5301L101.481 30.5146C100.489 29.5424 100.038 28.9509 100.038 27.7655V27.417C100.038 26.1423 100.782 25.1553 102.466 25.1553C104.202 25.1553 104.881 26.0047 104.881 27.4927V28.3272H103.298V27.4332C103.298 26.8404 103.024 26.5515 102.476 26.5515C101.991 26.5515 101.658 26.8256 101.658 27.4022V27.6142C101.658 28.1908 101.978 28.5256 102.476 29.0117L103.585 30.1041C104.527 31.0602 104.984 31.6368 104.984 32.7751V33.2711C104.984 34.6834 104.223 35.6854 102.463 35.6854C100.702 35.6854 100.019 34.6934 100.019 33.348" fill="white"/>
<path d="M92.7843 75.3755C92.7843 66.6669 85.8564 59.5531 77.226 59.2381C76.1141 56.0877 74.0524 53.3597 71.325 51.4301C68.5977 49.5006 65.3391 48.4644 61.9982 48.4644C58.6573 48.4644 55.3987 49.5006 52.6714 51.4301C49.944 53.3597 47.8823 56.0877 46.7704 59.2381C38.1412 59.5531 31.2158 66.6682 31.2158 75.3755C31.216 77.8319 31.7777 80.2558 32.8578 82.4621C33.9379 84.6683 35.508 86.5985 37.4481 88.1053C37.0263 89.5626 36.8118 91.072 36.8107 92.5891C36.8107 101.49 44.056 108.735 52.9629 108.735C56.2173 108.738 59.3957 107.752 62.0769 105.908C64.7271 107.685 67.8465 108.632 71.0372 108.629C79.9429 108.629 87.1882 101.383 87.1882 92.4813C87.188 90.9956 86.9822 89.5172 86.5769 88.0879C88.5094 86.5801 90.0728 84.6516 91.1484 82.4491C92.224 80.2466 92.7835 77.8278 92.7843 75.3767M74.8961 64.6147C74.8961 71.0801 70.1109 76.4319 63.8997 77.357C63.7919 76.7011 63.7355 76.0377 63.7311 75.373C63.7358 72.2846 64.848 69.3003 66.8657 66.9622C68.8835 64.6241 71.673 63.0872 74.7274 62.6307C74.8348 63.2867 74.8912 63.95 74.8961 64.6147ZM62.0583 101.719C60.8282 100.53 59.8477 99.1072 59.1743 97.5342C58.5009 95.9613 58.1481 94.2698 58.1366 92.5588C58.125 90.8478 58.455 89.1517 59.1071 87.5698C59.7592 85.9879 60.7204 84.552 61.9343 83.3462C63.1649 84.5352 64.1458 85.9579 64.8195 87.5309C65.4932 89.1039 65.8462 90.7955 65.8577 92.5067C65.8693 94.2178 65.5392 95.914 64.8867 97.496C64.2343 99.0779 63.2728 100.514 62.0583 101.719ZM49.269 62.632C55.4801 63.5558 60.2641 68.9089 60.2641 75.3755C60.2593 76.0402 60.2025 76.7036 60.0942 77.3595C53.8855 76.4319 49.1041 71.0801 49.1041 64.6147C49.1091 63.95 49.1654 63.2867 49.2727 62.6307M58.8864 81.1439C58.126 82.6733 57.0682 84.0356 55.7751 85.1514C54.482 86.2672 52.9794 87.114 51.3552 87.6423C49.731 88.1707 48.0178 88.3699 46.3157 88.2284C44.6136 88.0869 42.9568 87.6075 41.4421 86.8182C42.2026 85.2889 43.2603 83.9265 44.5534 82.8107C45.8465 81.6949 47.3491 80.8481 48.9733 80.3198C50.5975 79.7915 52.3108 79.5922 54.0129 79.7337C55.715 79.8752 57.3718 80.3547 58.8864 81.1439ZM65.0703 81.0571C66.5931 80.2573 68.2609 79.7711 69.975 79.6276C71.6891 79.484 73.4145 79.6858 75.0492 80.2212C76.6838 80.7565 78.1944 81.6145 79.4914 82.7443C80.7885 83.874 81.8456 85.2526 82.6002 86.7983C81.0774 87.5982 79.4096 88.0843 77.6955 88.2279C75.9814 88.3715 74.256 88.1696 72.6213 87.6343C70.9867 87.0989 69.4761 86.241 68.1791 85.1112C66.882 83.9814 65.8249 82.6029 65.0703 81.0571ZM62.0001 51.7175C64.5115 51.7202 66.9676 52.4553 69.0676 53.8327C71.1676 55.2101 72.8204 57.17 73.8235 59.4725C71.2703 59.9289 68.864 60.9913 66.8066 62.5705C64.7493 64.1497 63.1009 66.1996 62.0001 68.548C60.9001 66.199 59.252 64.1486 57.1944 62.5693C55.1369 60.9899 52.7302 59.9279 50.1767 59.4725C51.1799 57.1701 52.8326 55.2103 54.9326 53.8329C57.0326 52.4556 59.4887 51.7204 62.0001 51.7175ZM34.4721 75.3755C34.4762 72.1951 35.6534 69.1281 37.7783 66.7619C39.9032 64.3956 42.8264 62.8964 45.9879 62.5514C45.6498 65.1256 45.9405 67.7433 46.8352 70.1806C47.7299 72.6179 49.2019 74.802 51.1253 76.546C48.5382 76.8448 46.0614 77.7637 43.9054 79.2246C41.7494 80.6854 39.9779 82.6451 38.7414 84.9371C37.3987 83.7321 36.3247 82.258 35.5891 80.6106C34.8536 78.9633 34.473 77.1796 34.4721 75.3755ZM40.0632 92.5891C40.0631 91.6906 40.1575 90.7945 40.3447 89.9157C42.6672 91.039 45.2254 91.5885 47.8043 91.5179C50.3832 91.4473 52.9076 90.7588 55.1652 89.5102C54.6866 92.0477 54.8262 94.6631 55.5724 97.1351C56.3186 99.6071 57.6493 101.863 59.4519 103.712C57.4947 104.86 55.2689 105.47 53 105.481C50.7311 105.492 48.4996 104.903 46.5315 103.774C44.5634 102.645 42.9286 101.016 41.7927 99.0517C40.6568 97.0876 40.0602 94.8581 40.0632 92.5891ZM83.9369 92.4813C83.9402 94.7378 83.3505 96.9556 82.2268 98.9125C81.1032 100.869 79.4851 102.497 77.5345 103.631C75.584 104.766 73.3695 105.368 71.113 105.377C68.8565 105.387 66.6371 104.803 64.6772 103.685C66.4504 101.823 67.7512 99.5628 68.4706 97.0943C69.1899 94.6258 69.3068 92.0208 68.8114 89.4978C71.0742 90.7545 73.6064 91.4474 76.1937 91.518C78.7811 91.5886 81.3473 91.0347 83.6753 89.9033C83.8493 90.7516 83.937 91.6153 83.9369 92.4813ZM72.9728 76.4505C74.6059 74.9418 75.9089 73.1113 76.7999 71.0744C77.6908 69.0374 78.1505 66.838 78.1498 64.6147C78.1481 63.9248 78.103 63.2356 78.0147 62.5514C80.4865 62.8134 82.8296 63.7853 84.7611 65.3498C86.6927 66.9143 88.1301 69.0045 88.8997 71.368C89.6694 73.7315 89.7384 76.2673 89.0985 78.6692C88.4585 81.0711 87.137 83.2363 85.2935 84.9036C84.0703 82.6082 82.3119 80.6414 80.1672 79.1699C78.0225 77.6985 75.5546 76.7656 72.9728 76.4505Z" fill="white"/>
</g>
<defs>
<clipPath id="clip0_355_4703">
<rect y="0.171875" width="124" height="124" rx="2" fill="white"/>
</clipPath>
</defs>
</svg>
