<svg xmlns="http://www.w3.org/2000/svg" width="124" height="125" viewBox="0 0 124 125" fill="none">
<g clip-path="url(#clip0_355_2604)">
<path d="M124 0.169922H0V124.174H124V0.169922Z" fill="#4C9F38"/>
<path d="M17.6946 35.9012C21.9366 35.9012 23.7805 33.6506 23.7805 30.1848V26.4983C23.7805 24.2117 22.7885 22.7361 20.6805 22.2575C22.4165 21.7044 23.5561 20.302 23.5561 18.2014V16.0252C23.5561 12.485 21.8598 10.3101 17.9885 10.3101C13.6361 10.3101 12.1233 12.8893 12.1233 16.5783V18.7904H15.9586V16.2459C15.9586 14.6972 16.4397 13.8131 17.7665 13.8131C19.0933 13.8131 19.572 14.6972 19.572 16.0612V18.7532C19.572 20.0813 18.6878 20.7806 17.3251 20.7806H15.7379V23.991H17.5086C18.983 23.991 19.572 24.6903 19.572 26.0184V30.1488C19.572 31.4756 18.983 32.3994 17.6921 32.3994C16.255 32.3994 15.7379 31.4384 15.7379 29.9641V26.3879H11.9038V29.6689C11.9038 33.4683 13.4141 35.9012 17.6909 35.9012" fill="white"/>
<path d="M103.572 77.6717C103.572 74.1823 101.34 71.3477 97.9422 71.3477C96.2472 71.3477 94.2012 73.2077 93.0901 74.3473C91.9741 73.2027 90.0695 71.3452 88.3781 71.3452C84.988 71.3452 82.6109 74.1737 82.6109 77.6692C82.6056 79.3349 83.2512 80.9367 84.4101 82.1332L93.1025 90.8417L101.783 82.1431L101.775 82.1369C102.933 80.9395 103.578 79.3374 103.572 77.6717Z" fill="white"/>
<path d="M66.564 105.061H66.4748C66.1537 105.042 65.8487 104.914 65.6093 104.699C65.37 104.485 65.2104 104.195 65.1567 103.878L60.741 78.1591L54.0524 90.5591C53.9098 90.8232 53.6875 91.0357 53.4171 91.1662C53.1468 91.2967 52.8421 91.3386 52.5466 91.286C52.251 91.2334 51.9796 91.0889 51.7708 90.8732C51.5621 90.6574 51.4267 90.3813 51.384 90.0842L48.5444 70.238L43.35 81.9064C43.2377 82.1587 43.0548 82.3732 42.8234 82.524C42.5919 82.6747 42.3217 82.7552 42.0455 82.7558H21.8546C21.4909 82.7343 21.1492 82.5747 20.8993 82.3097C20.6494 82.0446 20.5103 81.6941 20.5103 81.3298C20.5103 80.9655 20.6494 80.6149 20.8993 80.3499C21.1492 80.0848 21.4909 79.9252 21.8546 79.9038H41.118L47.9516 64.5563C48.0771 64.2735 48.291 64.0391 48.5613 63.8884C48.8315 63.7378 49.1434 63.679 49.4499 63.7209C49.7564 63.7629 50.041 63.9034 50.2608 64.1211C50.4806 64.3389 50.6237 64.6222 50.6685 64.9283L53.5961 85.3883L60.1917 73.1582C60.3331 72.8972 60.5522 72.6867 60.8187 72.556C61.0852 72.4253 61.3858 72.3809 61.6787 72.4289C61.9716 72.4769 62.2423 72.615 62.4531 72.8239C62.664 73.0328 62.8045 73.3022 62.8552 73.5946L66.9472 97.4113L81.8458 47.9118C81.929 47.6364 82.0934 47.3927 82.3174 47.2123C82.5414 47.0319 82.8147 46.9234 83.1014 46.9009C83.3882 46.8784 83.675 46.9429 83.9244 47.0861C84.1739 47.2293 84.3743 47.4445 84.4994 47.7034L92.3399 63.9586C92.4255 64.1279 92.4766 64.3125 92.49 64.5017C92.5034 64.6909 92.479 64.8809 92.4182 65.0606C92.3573 65.2402 92.2613 65.406 92.1356 65.5481C92.01 65.6902 91.8573 65.8059 91.6864 65.8883C91.5156 65.9707 91.33 66.0182 91.1406 66.0281C90.9512 66.038 90.7617 66.01 90.5832 65.9458C90.4047 65.8815 90.2408 65.7824 90.1011 65.6541C89.9614 65.5258 89.8486 65.371 89.7694 65.1986L83.5223 52.2518L67.9293 104.044C67.8413 104.338 67.661 104.595 67.415 104.779C67.1691 104.962 66.8707 105.061 66.564 105.061Z" fill="white"/>
<path d="M37.9724 15.2739H40.3953V20.6865H39.169V19.5791C38.9445 20.3417 38.4659 20.8055 37.5396 20.8055C36.0739 20.8055 35.4019 19.6399 35.4019 18.0701V13.1659C35.4019 11.5811 36.1645 10.4304 37.9575 10.4304C39.8411 10.4304 40.3953 11.477 40.3953 12.9724V13.8689H38.8404V12.8373C38.8404 12.2098 38.6011 11.8453 37.9885 11.8453C37.3759 11.8453 37.1056 12.2793 37.1056 12.8918V18.3342C37.1056 18.9467 37.3598 19.3807 37.9426 19.3807C38.4957 19.3807 38.7809 19.067 38.7809 18.4086V16.6193H37.9724V15.2739Z" fill="white"/>
<path d="M41.5151 18.0701V13.1659C41.5151 11.5811 42.2926 10.4304 44.0869 10.4304C45.8812 10.4304 46.6735 11.5799 46.6735 13.1659V18.0701C46.6735 19.6399 45.8961 20.8055 44.0869 20.8055C42.2777 20.8055 41.5151 19.6399 41.5151 18.0701ZM44.9685 18.3391V12.8968C44.9685 12.2842 44.6995 11.8502 44.0869 11.8502C43.4743 11.8502 43.2189 12.2842 43.2189 12.8968V18.3391C43.2189 18.9517 43.488 19.3857 44.0869 19.3857C44.6858 19.3857 44.9685 18.9517 44.9685 18.3391Z" fill="white"/>
<path d="M47.7944 18.0701V13.1659C47.7944 11.5811 48.5719 10.4304 50.3662 10.4304C52.1605 10.4304 52.9479 11.5799 52.9479 13.1659V18.0701C52.9479 19.6399 52.1704 20.8055 50.3625 20.8055C48.5546 20.8055 47.7944 19.6399 47.7944 18.0701ZM51.2478 18.3391V12.8968C51.2478 12.2842 50.9788 11.8502 50.3662 11.8502C49.7536 11.8502 49.4982 12.2842 49.4982 12.8968V18.3391C49.4982 18.9517 49.7673 19.3857 50.3662 19.3857C50.9651 19.3857 51.2478 18.9517 51.2478 18.3391Z" fill="white"/>
<path d="M59.1704 13.2713V17.9647C59.1704 19.5197 58.5281 20.6865 56.704 20.6865H54.0728V10.5508H56.704C58.5281 10.5508 59.1704 11.704 59.1704 13.2713ZM56.4945 19.2953C57.1976 19.2953 57.4666 18.8774 57.4666 18.2636V12.9576C57.4666 12.3587 57.1976 11.9408 56.4945 11.9408H55.7778V19.2953H56.4945Z" fill="white"/>
<path d="M65.9581 16.2163H64.3139V20.6865H62.6089V10.5508H64.3139V14.8412H65.9581V10.5508H67.6768V20.6865H65.9581V16.2163Z" fill="white"/>
<path d="M68.7977 10.5508H72.8649V11.9408H70.5089V14.8412H72.1978V16.2163H70.5027V19.2953H72.8587V20.6865H68.7915L68.7977 10.5508Z" fill="white"/>
<path d="M73.6558 20.6865L75.5703 10.5508H77.5134L79.4416 20.6865H77.692L77.3758 18.8327H75.5703L75.2678 20.6865H73.6558ZM75.7935 17.4725H77.1575L76.4854 13.4053H76.4706L75.7935 17.4725Z" fill="white"/>
<path d="M80.2935 10.5508H81.9972V19.2953H84.0308V20.6865H80.2935V10.5508Z" fill="white"/>
<path d="M83.7915 10.5508H88.3212V11.9408H86.9163V20.6865H85.1964V11.9408H83.7915V10.5508Z" fill="white"/>
<path d="M92.6117 16.2163H90.9674V20.6865H89.2637V10.5508H90.9674V14.8412H92.6117V10.5508H94.3303V20.6865H92.6117V16.2163Z" fill="white"/>
<path d="M35.145 35.5479L37.0583 25.4121H39.0014L40.9296 35.5479H39.1837L38.87 33.6879H37.0583L36.7595 35.5479H35.145ZM37.2828 32.3338H38.6468L37.9735 28.2678H37.9586L37.2828 32.3338Z" fill="white"/>
<path d="M43.2173 29.1792V35.5479H41.7876V25.4121H43.4628L45.3005 31.2277V25.4121H46.7216V35.5479H45.2199L43.2173 29.1792Z" fill="white"/>
<path d="M52.9341 28.1339V32.8273C52.9341 34.3823 52.2917 35.5479 50.4677 35.5479H47.8364V25.4121H50.4677C52.2917 25.4121 52.9341 26.5641 52.9341 28.1339ZM50.2581 34.1578C50.9612 34.1578 51.2303 33.74 51.2303 33.1262V27.8239C51.2303 27.2262 50.9612 26.8083 50.2581 26.8083H49.5402V34.1628L50.2581 34.1578Z" fill="white"/>
<path d="M59.4514 29.2846L58.4953 35.5479H56.8957L55.5317 25.4121H57.176L57.9683 31.8403H57.9832L58.8351 25.4121H60.2251L61.1675 31.8403H61.1824L61.9599 25.4121H63.3946L62.0789 35.5479H60.4669L59.465 29.2846H59.4514Z" fill="white"/>
<path d="M64.2803 25.4121H68.3462V26.8034H65.9902V29.7025H67.6791V31.0789H65.9853V34.1578H68.3413V35.5479H64.2803V25.4121Z" fill="white"/>
<path d="M69.4072 25.4121H71.1122V34.1578H73.1446V35.5479H69.4072V25.4121Z" fill="white"/>
<path d="M74.0723 25.4121H75.776V34.1578H77.8096V35.5479H74.0723V25.4121Z" fill="white"/>
<path d="M77.5854 29.5598H79.9799V30.9238H77.5854V29.5598Z" fill="white"/>
<path d="M80.9941 25.4121H83.4605C85.1643 25.4121 85.7322 26.2045 85.7322 27.6441V28.6758C85.7322 29.5277 85.4185 30.0658 84.7166 30.2878C85.5685 30.4812 85.9864 31.0491 85.9864 31.9767V33.3221C85.9864 34.7567 85.3441 35.5541 83.6403 35.5541H80.9941V25.4121ZM82.6979 29.6839H83.2956C83.8486 29.6839 84.1028 29.3999 84.1028 28.8618V27.6218C84.1028 27.0687 83.8548 26.7997 83.2807 26.7997H82.6979V29.6839ZM82.6979 30.9847V34.1541H83.4419C84.0098 34.1541 84.2789 33.8701 84.2789 33.332V31.8068C84.2789 31.2686 84.0247 30.9847 83.427 30.9847H82.6979Z" fill="white"/>
<path d="M86.9883 25.4121H91.0542V26.8034H88.6982V29.7025H90.3884V31.0789H88.692V34.1578H91.048V35.5479H86.9883V25.4121Z" fill="white"/>
<path d="M92.1157 25.4121H93.8195V35.5479H92.1157V25.4121Z" fill="white"/>
<path d="M96.3912 29.1792V35.5479H94.9565V25.4121H96.6305L98.4695 31.2277V25.4121H99.8893V35.5479H98.4013L96.3912 29.1792Z" fill="white"/>
<path d="M103.582 30.1364H106.004V35.5478H104.78V34.4417C104.555 35.2043 104.078 35.668 103.15 35.668C101.686 35.668 101.013 34.5012 101.013 32.9314V28.0284C101.013 26.4437 101.775 25.293 103.57 25.293C105.453 25.293 106.006 26.3395 106.006 27.8337V28.7315H104.449V27.6998C104.449 27.0724 104.209 26.7078 103.597 26.7078C102.984 26.7078 102.714 27.1418 102.714 27.7544V33.1967C102.714 33.8093 102.962 34.2421 103.552 34.2421C104.105 34.2421 104.389 33.9283 104.389 33.2711V31.4818H103.582V30.1364Z" fill="white"/>
</g>
<defs>
<clipPath id="clip0_355_2604">
<rect y="0.171875" width="124" height="124" rx="2" fill="white"/>
</clipPath>
</defs>
</svg>
