<svg xmlns="http://www.w3.org/2000/svg" width="124" height="125" viewBox="0 0 124 125" fill="none">
<g clip-path="url(#clip0_355_2525)">
<path d="M124 0.169922H0V124.175H124V0.169922Z" fill="#DDA63A"/>
<path d="M23.1879 32.134H16.2947V30.9535C16.2947 29.0005 16.9953 28.2627 18.0642 27.1194L20.755 24.2798C22.9312 21.9573 23.4111 20.4817 23.4111 17.9732V15.5403C23.4111 11.9642 21.6751 10.2666 17.9166 10.2666C14.2301 10.2666 12.3478 12.2208 12.3478 15.7226V18.747H16.1844V15.6122C16.1844 14.1019 16.9209 13.658 17.8075 13.658C18.6172 13.658 19.3178 13.9916 19.3178 15.5403V17.6049C19.3178 19.6708 19.1331 20.4817 17.7691 21.9189L15.4131 24.4262C13.124 26.8615 12.2759 28.4847 12.2759 30.9535V35.5638H23.1879V32.134Z" fill="white"/>
<path d="M51.2268 105.537V107.282C51.2234 107.294 51.2213 107.307 51.2206 107.32C51.2212 107.334 51.2233 107.348 51.2268 107.361C51.2356 107.57 51.3237 107.767 51.473 107.912C51.6224 108.058 51.8217 108.141 52.0303 108.145C52.0303 108.145 52.0402 108.145 52.0464 108.145H52.0662H72.5262C72.5262 108.145 72.5374 108.145 72.5436 108.145H72.5622C72.7768 108.141 72.9812 108.053 73.1318 107.9C73.2824 107.747 73.3673 107.541 73.3682 107.326C73.3674 107.324 73.3674 107.322 73.3682 107.32V105.341C84.8828 101.567 93.5095 92.2344 95.4067 80.8612C95.4067 80.8364 95.4142 80.814 95.4179 80.793C95.4246 80.7553 95.4283 80.7171 95.429 80.6789C95.4292 80.5702 95.4079 80.4626 95.3664 80.3622C95.3249 80.2618 95.264 80.1705 95.1872 80.0937C95.1103 80.0169 95.0191 79.9559 94.9187 79.9144C94.8182 79.8729 94.7106 79.8516 94.602 79.8518H29.4052C29.2964 79.8515 29.1886 79.8726 29.088 79.9141C28.9873 79.9555 28.8959 80.0163 28.8188 80.0932C28.7417 80.17 28.6806 80.2613 28.6389 80.3618C28.5972 80.4623 28.5757 80.5701 28.5757 80.6789L28.6191 81.0509C30.6118 92.532 39.474 101.916 51.2268 105.537Z" fill="white"/>
<path d="M73.3446 52.0286C73.0755 52.4105 66.7726 61.4786 73.4847 68.8107C76.5612 72.1761 76.2946 75.1447 75.4167 77.1497H79.7195C80.5875 74.1899 80.2304 70.4761 76.7435 66.6593C71.8008 61.2554 76.8067 53.9531 76.8823 53.8402C77.4726 53.0069 77.1564 51.9331 76.1842 51.4321C75.2121 50.9312 73.9435 51.2003 73.3508 52.0286" fill="white"/>
<path d="M62.4477 77.1498H66.7518C67.6198 74.1887 67.2614 70.4762 63.7683 66.6595C58.8232 61.2555 63.8254 53.9557 63.9047 53.8366C64.4912 53.0071 64.1812 51.9345 63.2054 51.4323C62.2295 50.9301 60.9659 51.1991 60.3757 52.0287C60.1054 52.4094 53.8037 61.4787 60.5158 68.8109C63.5922 72.1762 63.3232 75.146 62.4477 77.1498Z" fill="white"/>
<path d="M47.404 52.0286C47.1312 52.4106 40.832 61.4787 47.5428 68.8108C50.6205 72.1774 50.3539 75.1459 49.4772 77.1498H53.78C54.648 74.1911 54.2909 70.4773 50.7941 66.6594C45.8502 61.2555 50.8561 53.9531 50.9355 53.8378C51.5195 53.007 51.2083 51.9332 50.2324 51.4322C49.2565 50.9312 47.9942 51.1991 47.404 52.0286Z" fill="white"/>
<path d="M37.0836 19.3065H39.669V20.6965H35.3042V19.3065L37.9801 11.9521H35.5733V10.562H39.7744V11.9521L37.0836 19.3065Z" fill="white"/>
<path d="M40.8208 10.562H44.888V11.9521H42.5246V14.8524H44.2134V16.2276H42.5246V19.3065H44.888V20.6965H40.8208V10.562Z" fill="white"/>
<path d="M47.6523 16.0441V20.6928H45.9473V10.562H48.4273C50.1459 10.562 50.7746 11.4139 50.7746 12.8337V14.1345C50.7746 15.2257 50.3852 15.8705 49.4106 16.0924L51.0412 20.6965H49.2519L47.6523 16.0441ZM47.6523 11.9521V15.1066H48.2202C48.803 15.1066 49.0572 14.8065 49.0572 14.2684V12.7742C49.0572 12.2211 48.803 11.9521 48.2202 11.9521H47.6523Z" fill="white"/>
<path d="M51.8521 18.0813V13.1771C51.8521 11.5924 52.6295 10.4417 54.4238 10.4417C56.2181 10.4417 57.0105 11.5924 57.0105 13.1771V18.0813C57.0105 19.6511 56.233 20.8167 54.4238 20.8167C52.6146 20.8167 51.8521 19.6511 51.8521 18.0813ZM55.3042 18.3504V12.908C55.3042 12.2955 55.0351 11.8614 54.4226 11.8614C53.81 11.8614 53.5546 12.2955 53.5546 12.908V18.3504C53.5546 18.9629 53.8237 19.3969 54.4226 19.3969C55.0215 19.3969 55.3042 18.9629 55.3042 18.3504Z" fill="white"/>
<path d="M38.7487 31.0764H37.1032V35.5405H35.3994V25.4109H37.1032V29.7013H38.7487V25.4109H40.4673V35.5467H38.7487V31.0764Z" fill="white"/>
<path d="M46.536 25.4109V33.079C46.536 34.6489 45.8639 35.6657 44.1291 35.6657C42.3361 35.6657 41.5884 34.6489 41.5884 33.079V25.4109H43.2921V33.244C43.2921 33.8416 43.5315 34.2459 44.1291 34.2459C44.7268 34.2459 44.9674 33.8416 44.9674 33.244V25.4109H46.536Z" fill="white"/>
<path d="M49.0927 29.178V35.5467H47.6567V25.4109H49.332L51.1709 31.2265V25.4109H52.5907V35.5467H51.0953L49.0927 29.178Z" fill="white"/>
<path d="M56.2824 30.134H58.7054V35.5466H57.479V34.4405C57.2546 35.2018 56.776 35.6656 55.8497 35.6656C54.384 35.6656 53.7119 34.5 53.7119 32.9302V28.0272C53.7119 26.4425 54.4745 25.2905 56.2676 25.2905C58.1511 25.2905 58.7054 26.3371 58.7054 27.8325V28.729H57.1504V27.6998C57.1504 27.0724 56.9111 26.714 56.2986 26.714C55.686 26.714 55.4157 27.1468 55.4157 27.7606V33.2017C55.4157 33.8143 55.6699 34.2483 56.2527 34.2483C56.8057 34.2483 57.0909 33.9346 57.0909 33.2761V31.4806H56.2824V30.134Z" fill="white"/>
<path d="M59.8247 25.4109H63.8919V26.8009H61.5297V29.7013H63.2186V31.0764H61.5297V34.1566H63.8919V35.5467H59.8247V25.4109Z" fill="white"/>
<path d="M66.6571 30.8967V35.5467H64.9521V25.4109H67.4321C69.1508 25.4109 69.7782 26.2628 69.7782 27.6826V28.9833C69.7782 30.0745 69.3901 30.7193 68.4142 30.9413L70.0436 35.5467H68.2568L66.6571 30.8967ZM66.6571 26.8046V29.9592H67.2251C67.8079 29.9592 68.0621 29.6604 68.0621 29.1222V27.6231C68.0621 27.07 67.8141 26.8009 67.2251 26.8009L66.6571 26.8046Z" fill="white"/>
</g>
<defs>
<clipPath id="clip0_355_2525">
<rect y="0.171875" width="124" height="124" rx="2" fill="white"/>
</clipPath>
</defs>
</svg>
