<svg xmlns="http://www.w3.org/2000/svg" width="124" height="125" viewBox="0 0 124 125" fill="none">
<g clip-path="url(#clip0_355_2569)">
<path d="M124 0.171875H0V124.172H124V0.171875Z" fill="#DD1367"/>
<path d="M41.3104 16.1085L42.936 20.8316H44.7638L43.1096 16.1531C44.0954 15.9274 44.491 15.2727 44.491 14.1691V12.8435C44.491 11.4002 43.8524 10.5347 42.1052 10.5347H39.5781V20.8267H41.3141L41.3104 16.1085ZM41.3104 11.947H41.887C42.481 11.947 42.7389 12.2198 42.7389 12.784V14.308C42.7389 14.8536 42.481 15.1586 41.887 15.1586H41.3104V11.947Z" fill="white"/>
<path d="M49.7106 19.4193H47.3099V16.292H49.0261V14.8933H47.3099V11.947H49.7106V10.5347H45.5776V20.8316H49.7106V19.4193Z" fill="white"/>
<path d="M53.46 10.5347H50.7891V20.8267H53.46C55.3126 20.8267 55.9661 19.6425 55.9661 18.0627V13.2999C55.9661 11.704 55.3126 10.5347 53.46 10.5347ZM54.235 18.3715C54.235 18.9915 53.9635 19.4193 53.243 19.4193H52.5151V11.952H53.243C53.9585 11.952 54.235 12.3761 54.235 12.9837V18.3715Z" fill="white"/>
<path d="M58.8381 10.5347H57.1021V18.3256C57.1021 19.9202 57.8609 20.9519 59.6837 20.9519C61.4458 20.9519 62.129 19.9202 62.129 18.3256V10.5347H60.5369V18.493C60.5369 19.0993 60.2951 19.511 59.6875 19.511C59.0799 19.511 58.8381 19.0993 58.8381 18.493V10.5347Z" fill="white"/>
<path d="M63.2725 13.1919V18.1717C63.2725 19.7664 64.0326 20.9506 65.8529 20.9506C67.6732 20.9506 68.2969 19.8581 68.2969 18.385V16.6093H66.7197V18.5078C66.7197 19.1154 66.5064 19.5085 65.8851 19.5085C65.2639 19.5085 65.0023 19.0695 65.0023 18.447V12.9191C65.0023 12.2991 65.2614 11.8552 65.8851 11.8552C66.5089 11.8552 66.7197 12.2197 66.7197 12.8583V14.2099H68.2969V12.996C68.2969 11.4757 67.7675 10.4143 65.8529 10.4143C64.0326 10.4143 63.2725 11.5836 63.2725 13.1931" fill="white"/>
<path d="M69.3931 20.8304H73.5235V19.4193H71.1254V16.2907H72.8403V14.8933H71.1254V11.947H73.5235V10.5347H69.3931V20.8304Z" fill="white"/>
<path d="M74.6011 10.5347V20.8267H77.2745C79.1271 20.8267 79.7806 19.6425 79.7806 18.0627V13.2999C79.7806 11.704 79.1271 10.5347 77.2745 10.5347H74.6011ZM78.0495 12.9787V18.3715C78.0495 18.9915 77.7755 19.4193 77.0575 19.4193H76.3284V11.952H77.0575C77.7705 11.952 78.0495 12.3773 78.0495 12.9837" fill="white"/>
<path d="M41.3106 25.2671H39.5796V35.5628H41.3106V25.2671Z" fill="white"/>
<path d="M47.4486 25.2659H46.0052V31.1745L44.1366 25.2659H42.4365V35.5628H43.8935V29.0938L45.9284 35.5628H47.4486V25.2659Z" fill="white"/>
<path d="M52.5511 26.6794V25.2671H48.4219V35.5628H52.5511V34.1492H50.1529V31.0219H51.8678V29.6257H50.1529V26.6794H52.5511Z" fill="white"/>
<path d="M55.8002 25.1455C53.9786 25.1455 53.1875 26.3136 53.1875 27.9231V32.9079C53.1875 34.3054 53.779 35.3209 55.1628 35.5665V36.2646L58.4277 36.8722V35.5789L57.1518 35.3309C58.0322 34.9068 58.4277 34.0251 58.4277 32.9005V27.9231C58.4277 26.3111 57.6379 25.1455 55.8002 25.1455ZM56.6955 33.2712C56.6955 33.8776 56.4227 34.3327 55.8002 34.3327C55.1777 34.3327 54.9185 33.8776 54.9185 33.2712V27.6515C54.9185 27.0315 55.1938 26.5876 55.8002 26.5876C56.4065 26.5876 56.6955 27.0278 56.6955 27.6515V33.2712Z" fill="white"/>
<path d="M59.396 25.2671V33.058C59.396 34.6526 60.1561 35.6843 61.9789 35.6843C63.741 35.6843 64.4242 34.6526 64.4242 33.058V25.2671H62.8296V33.2242C62.8296 33.8318 62.5816 34.2422 61.9789 34.2422C61.3763 34.2422 61.1283 33.8318 61.1283 33.2242V25.2671H59.396Z" fill="white"/>
<path d="M66.9279 25.2671L64.9849 35.5591H66.6254L66.9279 33.6743H68.7669L69.0855 35.5591H70.8612L68.9033 25.2671H66.9279ZM67.1561 32.2991L67.8393 28.1674H67.8542L68.5375 32.2991H67.1561Z" fill="white"/>
<path d="M71.5605 25.2671V35.5616H75.3574V34.1504H73.2916V25.2671H71.5605Z" fill="white"/>
<path d="M77.8634 25.2671H76.1323V35.5628H77.8634V25.2671Z" fill="white"/>
<path d="M81.829 35.5628V26.6794H83.255V25.2671H78.6533V26.6794H80.0818V35.5628H81.829Z" fill="white"/>
<path d="M85.776 25.2671H84.0449V35.5641H85.776V25.2671Z" fill="white"/>
<path d="M90.8944 34.1504H88.495V31.0219H90.2111V29.6257H88.495V26.6795H90.8944V25.2671H86.7627V35.5616H90.8944V34.1504Z" fill="white"/>
<path d="M91.5752 31.9643V33.3456C91.5752 34.6985 92.2584 35.6843 94.0205 35.6843C95.7825 35.6843 96.5414 34.6811 96.5414 33.2687V32.7727C96.5414 31.6357 96.0851 31.0578 95.1452 30.1005L94.0354 29.0069C93.5394 28.5195 93.2157 28.1872 93.2157 27.6106V27.3973C93.2157 26.8195 93.5493 26.5479 94.0354 26.5479C94.5834 26.5479 94.855 26.8344 94.855 27.4271V28.3199H96.436V27.4829C96.436 25.9949 95.7528 25.1455 94.0205 25.1455C92.3353 25.1455 91.5913 26.1375 91.5913 27.4073V27.7569C91.5913 28.9411 92.0452 29.5339 93.0347 30.5048L94.0502 31.5241C94.5834 32.0201 94.8252 32.3921 94.8252 32.9823V33.3766C94.8252 33.9235 94.5772 34.288 94.0354 34.288C93.4439 34.288 93.1847 33.9545 93.1847 33.3766V31.9643H91.5752Z" fill="white"/>
<path d="M11.9634 16.4195V35.5762H16.1707V10.5493H12.8115L8.93652 15.0902V19.4835H8.97248L11.9249 16.4195H11.9634Z" fill="white"/>
<path d="M31.5268 29.1173V17.0087C31.5268 13.0965 29.5713 10.2544 25.2884 10.2544C21.0439 10.2544 19.0884 13.0965 19.0884 17.0087V29.1173C19.0884 32.9923 21.0463 35.8716 25.2884 35.8716C29.5713 35.8716 31.5268 32.9923 31.5268 29.1173ZM23.2945 29.7819V16.3453C23.2945 14.8312 23.8475 13.7611 25.2884 13.7611C26.7652 13.7611 27.3183 14.8312 27.3183 16.3453V29.7819C27.3183 31.296 26.7652 32.3648 25.2884 32.3648C23.8475 32.3648 23.2945 31.296 23.2945 29.7819Z" fill="white"/>
<path d="M73.445 81.708H50.5521C50.4826 81.7125 50.4176 81.7441 50.3712 81.7961C50.3248 81.8481 50.3007 81.9162 50.3041 81.9858V88.8665C50.3004 88.9363 50.3243 89.0048 50.3707 89.057C50.4172 89.1092 50.4823 89.1411 50.5521 89.1455H73.445C73.5147 89.1411 73.5799 89.1092 73.6263 89.057C73.6728 89.0048 73.6967 88.9363 73.693 88.8665V81.9858C73.6964 81.9162 73.6723 81.8481 73.6259 81.7961C73.5795 81.7441 73.5145 81.7125 73.445 81.708Z" fill="white"/>
<path d="M73.445 67.0674H50.5522C50.4826 67.0719 50.4177 67.1035 50.3713 67.1555C50.3249 67.2074 50.3008 67.2756 50.3042 67.3451V74.2259C50.3001 74.2958 50.3239 74.3644 50.3704 74.4167C50.4169 74.469 50.4823 74.5008 50.5522 74.5049H73.445C73.5149 74.5008 73.5803 74.469 73.6268 74.4167C73.6733 74.3644 73.6971 74.2958 73.693 74.2259V67.3451C73.6964 67.2756 73.6723 67.2074 73.6259 67.1555C73.5795 67.1035 73.5146 67.0719 73.445 67.0674Z" fill="white"/>
<path d="M73.1227 56.6675L62.1338 45.6798C62.0981 45.6447 62.05 45.625 61.9999 45.625C61.9498 45.625 61.9017 45.6447 61.866 45.6798L50.8771 56.6675C50.8507 56.694 50.8327 56.7278 50.8254 56.7645C50.8181 56.8012 50.8219 56.8393 50.8362 56.8739C50.8505 56.9085 50.8748 56.9381 50.9059 56.959C50.937 56.9798 50.9736 56.991 51.011 56.9911H72.9888C73.0262 56.991 73.0628 56.9798 73.094 56.959C73.1251 56.9381 73.1493 56.9085 73.1636 56.8739C73.178 56.8393 73.1817 56.8012 73.1744 56.7645C73.1671 56.7278 73.1492 56.694 73.1227 56.6675Z" fill="white"/>
<path d="M83.4399 89.2299L94.4287 78.241C94.4465 78.2234 94.4605 78.2024 94.4701 78.1793C94.4797 78.1563 94.4847 78.1315 94.4847 78.1065C94.4847 78.0815 94.4797 78.0567 94.4701 78.0336C94.4605 78.0105 94.4465 77.9896 94.4287 77.9719L83.4399 66.9831C83.4133 66.9566 83.3796 66.9386 83.3428 66.9314C83.3061 66.9241 83.268 66.9278 83.2334 66.9421C83.1988 66.9565 83.1692 66.9807 83.1483 67.0118C83.1275 67.0429 83.1163 67.0795 83.1162 67.117V89.096C83.1163 89.1334 83.1275 89.17 83.1483 89.2012C83.1692 89.2323 83.1988 89.2565 83.2334 89.2708C83.268 89.2851 83.3061 89.2889 83.3428 89.2816C83.3796 89.2743 83.4133 89.2564 83.4399 89.2299Z" fill="white"/>
<path d="M50.8774 99.5467L61.8663 110.532C61.8838 110.55 61.9047 110.564 61.9277 110.573C61.9507 110.583 61.9753 110.588 62.0002 110.588C62.0251 110.588 62.0498 110.583 62.0728 110.573C62.0958 110.564 62.1166 110.55 62.1341 110.532L73.123 99.543C73.1499 99.5165 73.1683 99.4826 73.1758 99.4457C73.1833 99.4087 73.1797 99.3704 73.1653 99.3355C73.1509 99.3006 73.1265 99.2708 73.0951 99.2499C73.0637 99.229 73.0268 99.2179 72.9891 99.2181H51.0113C50.9728 99.2171 50.935 99.2279 50.9027 99.249C50.8705 99.2701 50.8455 99.3005 50.8309 99.3361C50.8164 99.3718 50.8131 99.411 50.8214 99.4487C50.8297 99.4863 50.8492 99.5204 50.8774 99.5467Z" fill="white"/>
<path d="M40.5605 66.9831L29.5716 77.9719C29.5538 77.9896 29.5398 78.0105 29.5302 78.0336C29.5206 78.0567 29.5156 78.0815 29.5156 78.1065C29.5156 78.1315 29.5206 78.1563 29.5302 78.1793C29.5398 78.2024 29.5538 78.2234 29.5716 78.241L40.5605 89.2299C40.587 89.2564 40.6208 89.2743 40.6575 89.2816C40.6942 89.2889 40.7323 89.2851 40.7669 89.2708C40.8015 89.2565 40.8311 89.2323 40.852 89.2012C40.8728 89.17 40.884 89.1334 40.8841 89.096V67.117C40.884 67.0795 40.8728 67.0429 40.852 67.0118C40.8311 66.9807 40.8015 66.9565 40.7669 66.9421C40.7323 66.9278 40.6942 66.9241 40.6575 66.9314C40.6208 66.9386 40.587 66.9566 40.5605 66.9831Z" fill="white"/>
</g>
<defs>
<clipPath id="clip0_355_2569">
<rect y="0.171875" width="124" height="124" rx="2" fill="white"/>
</clipPath>
</defs>
</svg>
