<svg xmlns="http://www.w3.org/2000/svg" width="124" height="125" viewBox="0 0 124 125" fill="none">
<g clip-path="url(#clip0_355_3212)">
<path d="M124 0.170898H0V124.173H124V0.170898Z" fill="#FD6925"/>
<path d="M22.7106 16.8536C22.7106 12.9823 21.0143 10.1824 16.5925 10.1824C12.1285 10.1824 10.3999 12.614 10.3999 16.4841V20.1706C10.3999 24.2626 12.0206 26.3259 15.0449 26.3259C16.8144 26.3259 17.8821 25.5137 18.5083 24.2998H18.5442V29.6838C18.5442 31.1954 17.9552 32.2643 16.4449 32.2643C14.9346 32.2643 14.384 31.3752 14.384 29.8265V28.1686H10.5462V29.4966C10.5462 33.1807 11.8743 35.7611 16.5193 35.7611C20.9399 35.7611 22.7106 32.9227 22.7106 29.0155V16.8536ZM18.5442 20.6864C18.4711 22.0864 17.8821 22.9705 16.5602 22.9705C15.1243 22.9705 14.5762 22.0864 14.5762 20.4645V16.1158C14.5762 14.5311 15.164 13.6097 16.6036 13.6097C18.0036 13.6097 18.5554 14.567 18.5554 16.1158L18.5442 20.6864Z" fill="white"/>
<path d="M92.9849 81.6746L78.2438 73.167V56.148C78.2441 55.9726 78.1985 55.8002 78.1115 55.6479C78.0244 55.4956 77.8991 55.3688 77.7478 55.28L62.5082 46.476C62.3554 46.3876 62.1819 46.3411 62.0054 46.3411C61.8288 46.3411 61.6554 46.3876 61.5026 46.476L46.2518 55.2775C46.1005 55.3663 45.9751 55.4931 45.8881 55.6454C45.8011 55.7977 45.7555 55.9701 45.7558 56.1455V73.167L31.0147 81.6746C30.8621 81.7626 30.7353 81.889 30.647 82.0413C30.5586 82.1937 30.5118 82.3665 30.5112 82.5426V100.151C30.5119 100.327 30.5588 100.499 30.6471 100.652C30.7355 100.804 30.8622 100.931 31.0147 101.019L46.2555 109.823C46.4086 109.91 46.5819 109.957 46.7583 109.957C46.9348 109.957 47.1081 109.91 47.2612 109.823L61.9998 101.308L76.736 109.815C76.889 109.903 77.0623 109.949 77.2388 109.949C77.4152 109.949 77.5886 109.903 77.7416 109.815L92.9849 101.011C93.1374 100.923 93.2641 100.797 93.3525 100.644C93.4408 100.492 93.4877 100.319 93.4884 100.143V82.5352C93.4867 82.3603 93.4394 82.1889 93.3511 82.0379C93.2628 81.887 93.1366 81.7617 92.9849 81.6746ZM60.9929 98.4047L48.769 91.3454L60.9942 84.2873L60.9929 98.4047ZM75.2281 73.7485L63.0042 80.8029V66.6892L75.2281 73.7485ZM60.9942 80.8041L48.7702 73.7473L60.9942 66.6892V80.8041ZM64.0111 82.5401L77.2394 74.9092L90.4714 82.5451L77.2394 90.1847L64.0111 82.5401ZM76.2337 72.0001L64.0111 64.9408L76.2337 57.884V72.0001ZM59.9898 64.9408L47.7646 72.0001V57.8902L59.9898 64.9408ZM45.7558 107.203L32.525 99.5653V84.2873L45.7558 91.9319V107.203ZM47.7658 107.203V93.0876L59.991 100.147L47.7658 107.203ZM91.4796 99.5653L78.2438 107.203V91.9319L91.4771 84.2923L91.4796 99.5653Z" fill="white"/>
<path d="M29.2725 10.759H30.8969V20.431H29.2725V10.759Z" fill="white"/>
<path d="M32.9923 14.3514V20.4274H31.6196V10.7554H33.2155L34.9689 16.3007V10.7591H36.3316V20.4311H34.9032L32.9923 14.3514Z" fill="white"/>
<path d="M41.9018 13.3544V17.8296C41.9018 19.3176 41.2893 20.4249 39.5458 20.4249H37.041V10.7529H39.5557C41.2917 10.7591 41.9018 11.8578 41.9018 13.3544ZM39.3499 19.0994C40.0207 19.0994 40.2774 18.7001 40.2774 18.1148V13.0544C40.2774 12.484 40.0207 12.0859 39.3499 12.0859H38.6667V19.0994H39.3499Z" fill="white"/>
<path d="M47.3329 10.759V18.075C47.3329 19.5717 46.6919 20.5414 45.0377 20.5414C43.3277 20.5414 42.6147 19.5717 42.6147 18.075V10.759H44.2404V18.2288C44.2404 18.7992 44.4673 19.1848 45.0377 19.1848C45.6081 19.1848 45.8363 18.7992 45.8363 18.2288V10.759H47.3329Z" fill="white"/>
<path d="M47.9604 18.3429V17.0459H49.4757V18.3714C49.4757 18.9133 49.7175 19.227 50.273 19.227C50.7864 19.227 51.017 18.8848 51.017 18.3714V17.9994C51.017 17.4439 50.7889 17.1017 50.2904 16.6354L49.3356 15.6794C48.4081 14.768 47.9803 14.2112 47.9803 13.1002V12.7716C47.9803 11.575 48.6796 10.6475 50.2619 10.6475C51.8863 10.6475 52.5286 11.446 52.5286 12.8435V13.6272H51.0406V12.7865C51.0406 12.2297 50.7839 11.9594 50.2706 11.9594C49.8142 11.9594 49.5018 12.2161 49.5018 12.7579V12.9576C49.5018 13.4995 49.8006 13.8132 50.2706 14.2683L51.3122 15.295C52.195 16.1927 52.6228 16.7346 52.6228 17.8035V18.2759C52.6228 19.6015 51.9098 20.5427 50.2569 20.5427C48.604 20.5427 47.9604 19.6114 47.9604 18.3429Z" fill="white"/>
<path d="M52.7222 10.759H57.0398V12.0858H55.7007V20.4248H54.0638V12.0858H52.7247L52.7222 10.759Z" fill="white"/>
<path d="M59.2074 15.9907V20.4249H57.583V10.7529H59.9489C61.5882 10.7529 62.1871 11.5664 62.1871 12.9204V14.1604C62.1871 15.2008 61.8151 15.8134 60.8901 16.0279L62.4438 20.4187H60.7326L59.2074 15.9907ZM59.2074 12.0859V15.0929H59.7493C60.3048 15.0929 60.5478 14.8077 60.5478 14.2944V12.8696C60.5478 12.3414 60.2998 12.0859 59.7493 12.0859H59.2074Z" fill="white"/>
<path d="M65.665 16.747V20.4248H64.0394V16.747L62.229 10.759H63.9253L64.9099 14.4232H64.9235L65.9068 10.759H67.4556L65.665 16.747Z" fill="white"/>
<path d="M68.8581 18.9988L68.031 21.18H67.1196L67.318 18.8711H68.8581V18.9988Z" fill="white"/>
<path d="M70.8545 10.759H72.4789V20.431H70.8545V10.759Z" fill="white"/>
<path d="M74.5744 14.3514V20.4274H73.2104V10.7554H74.8076L76.5609 16.3007V10.7591H77.915V20.4311H76.489L74.5744 14.3514Z" fill="white"/>
<path d="M79.991 14.3514V20.4274H78.627V10.7554H80.2228L81.9762 16.3007V10.7591H83.3278V20.4311H81.9018L79.991 14.3514Z" fill="white"/>
<path d="M84.0396 17.9299V13.2539C84.0396 11.7436 84.7836 10.6499 86.491 10.6499C88.1985 10.6499 88.9574 11.7485 88.9574 13.2539V17.9299C88.9574 19.4266 88.2134 20.5339 86.491 20.5339C84.7687 20.5339 84.0396 19.4266 84.0396 17.9299ZM87.333 18.1866V12.9972C87.333 12.4132 87.0763 12.0052 86.491 12.0052C85.9058 12.0052 85.6652 12.4181 85.6652 12.9972V18.1866C85.6652 18.7707 85.9219 19.1848 86.491 19.1848C87.0602 19.1848 87.333 18.7719 87.333 18.1866Z" fill="white"/>
<path d="M94.8736 10.759L93.0347 20.431H91.264L89.4263 10.759H91.0792L92.1952 17.5022H92.2088L93.3496 10.759H94.8736Z" fill="white"/>
<path d="M94.3638 20.4249L96.1878 10.7529H98.0478L99.8867 20.4249H98.2078L97.9077 18.6567H96.1841L95.9001 20.4249H94.3638ZM96.4023 17.3596H97.6994L97.0583 13.4822H97.0434L96.4023 17.3596Z" fill="white"/>
<path d="M99.4355 10.759H103.754V12.0858H102.414V20.4248H100.775V12.0858H99.4355V10.759Z" fill="white"/>
<path d="M104.296 10.759H105.921V20.431H104.296V10.759Z" fill="white"/>
<path d="M106.647 17.9299V13.2539C106.647 11.7436 107.391 10.6499 109.1 10.6499C110.809 10.6499 111.565 11.7485 111.565 13.2539V17.9299C111.565 19.4266 110.821 20.5339 109.1 20.5339C107.379 20.5339 106.647 19.4266 106.647 17.9299ZM109.941 18.1866V12.9972C109.941 12.4132 109.684 12.0052 109.1 12.0052C108.516 12.0052 108.273 12.4181 108.273 12.9972V18.1866C108.273 18.7707 108.53 19.1848 109.1 19.1848C109.671 19.1848 109.941 18.7719 109.941 18.1866Z" fill="white"/>
<path d="M113.647 14.3514V20.4274H112.283V10.7554H113.88L115.634 16.3007V10.7591H116.988V20.4311H115.562L113.647 14.3514Z" fill="white"/>
<path d="M29.0161 35.3184L30.8402 25.6538H32.6865L34.5254 35.3184H32.8601L32.5613 33.5514H30.834L30.5488 35.3184H29.0161ZM31.0534 32.2543H32.3517L31.7094 28.3768H31.6958L31.0534 32.2543Z" fill="white"/>
<path d="M36.4934 29.2461V35.3221H35.1294V25.6538H36.7265L38.4799 31.1991V25.6538H39.829V35.3184H38.403L36.4934 29.2461Z" fill="white"/>
<path d="M45.5454 28.2479V32.7243C45.5454 34.2123 44.9316 35.3184 43.1894 35.3184H40.6846V25.6538H43.1931C44.9316 25.6538 45.5454 26.7512 45.5454 28.2479ZM42.9934 33.9928C43.663 33.9928 43.9197 33.5935 43.9197 33.0095V27.9478C43.9197 27.3774 43.663 26.9781 42.9934 26.9781H42.309V33.9916L42.9934 33.9928Z" fill="white"/>
<path d="M47.8257 25.6538H49.4513V35.3184H47.8257V25.6538Z" fill="white"/>
<path d="M51.6882 29.2461V35.3221H50.3242V25.6538H51.9201L53.6735 31.1991V25.6538H55.0275V35.3184H53.5991L51.6882 29.2461Z" fill="white"/>
<path d="M55.8794 25.6538H59.6862V26.9794H57.505V29.7458H59.1294V31.0565H57.505V35.3184H55.8794V25.6538Z" fill="white"/>
<path d="M61.9515 30.8854V35.3184H60.3271V25.6538H62.6931C64.3323 25.6538 64.9313 26.466 64.9313 27.8213V29.0613C64.9313 30.1017 64.5593 30.7142 63.6342 30.9288L65.1879 35.3184H63.4767L61.9515 30.8854ZM61.9515 26.9794V29.9876H62.4959C63.0514 29.9876 63.2945 29.7024 63.2945 29.189V27.7643C63.2945 27.236 63.0465 26.9794 62.4959 26.9794H61.9515Z" fill="white"/>
<path d="M65.4868 35.3184L67.3121 25.6538H69.1647L71.0036 35.3184H69.3358L69.0369 33.5514H67.3121L67.0269 35.3184H65.4868ZM67.5254 32.2543H68.8199L68.1789 28.3768H68.1652L67.5254 32.2543Z" fill="white"/>
<path d="M71.3745 33.2377V31.9406H72.8861V33.2662C72.8861 33.8081 73.1341 34.1218 73.6834 34.1218C74.1968 34.1218 74.4274 33.7796 74.4274 33.2662V32.8942C74.4274 32.3387 74.1992 31.9964 73.7008 31.5302L72.746 30.5742C71.8197 29.6628 71.3919 29.106 71.3919 27.9937V27.6664C71.3919 26.4685 72.09 25.5422 73.6722 25.5422C75.2966 25.5422 75.939 26.3408 75.939 27.7383V28.522H74.451V27.6812C74.451 27.1245 74.1943 26.8542 73.6809 26.8542C73.2246 26.8542 72.9121 27.1108 72.9121 27.6527V27.8524C72.9121 28.393 73.211 28.7067 73.6809 29.163L74.7225 30.1898C75.6054 31.0875 76.0332 31.6294 76.0332 32.6983V33.1695C76.0332 34.495 75.3202 35.435 73.6673 35.435C72.0144 35.435 71.3745 34.5062 71.3745 33.2377Z" fill="white"/>
<path d="M76.4214 25.6538H80.7403V26.9794H79.3999V35.3184H77.7606V26.9794H76.4214V25.6538Z" fill="white"/>
<path d="M83.0492 30.8854V35.3184H81.4248V25.6538H83.7907C85.43 25.6538 86.0227 26.466 86.0227 27.8213V29.0613C86.0227 30.1017 85.6507 30.7142 84.7257 30.9288L86.2794 35.3184H84.5682L83.0492 30.8854ZM83.0492 26.9794V29.9876H83.5911C84.1466 29.9876 84.3896 29.7024 84.3896 29.189V27.7643C84.3896 27.236 84.1416 26.9794 83.5911 26.9794H83.0492Z" fill="white"/>
<path d="M91.559 25.6538V32.9698C91.559 34.4665 90.9179 35.4349 89.2638 35.4349C87.5538 35.4349 86.8408 34.4665 86.8408 32.9698V25.6538H88.4665V33.1236C88.4665 33.694 88.6946 34.0784 89.2638 34.0784C89.8329 34.0784 90.0623 33.694 90.0623 33.1236V25.6538H91.559Z" fill="white"/>
<path d="M92.415 32.8247V28.1487C92.415 26.6371 93.128 25.5447 94.838 25.5447C96.6348 25.5447 97.1332 26.5367 97.1332 27.9676V29.1084H95.6452V27.835C95.6452 27.236 95.4456 26.8938 94.8603 26.8938C94.275 26.8938 94.0345 27.308 94.0345 27.892V33.0814C94.0345 33.6654 94.2825 34.0734 94.8603 34.0734C95.4382 34.0734 95.6452 33.7014 95.6452 33.1335V31.3566H97.1332V33.0244C97.1332 34.407 96.5628 35.4324 94.838 35.4324C93.1132 35.4324 92.415 34.3214 92.415 32.8247Z" fill="white"/>
<path d="M97.4048 25.6538H101.724V26.9794H100.383V35.3184H98.744V26.9794H97.4048V25.6538Z" fill="white"/>
<path d="M107.126 25.6538V32.9698C107.126 34.4665 106.485 35.4349 104.831 35.4349C103.12 35.4349 102.408 34.4665 102.408 32.9698V25.6538H104.036V33.1236C104.036 33.694 104.264 34.0784 104.835 34.0784C105.405 34.0784 105.633 33.694 105.633 33.1236V25.6538H107.126Z" fill="white"/>
<path d="M109.606 30.8854V35.3184H107.982V25.6538H110.348C111.987 25.6538 112.586 26.466 112.586 27.8213V29.0613C112.586 30.1017 112.214 30.7142 111.289 30.9288L112.84 35.3184H111.129L109.606 30.8854ZM109.606 26.9794V29.9876H110.148C110.704 29.9876 110.947 29.7024 110.947 29.189V27.7643C110.947 27.236 110.699 26.9794 110.148 26.9794H109.606Z" fill="white"/>
<path d="M113.398 25.6538H117.275V26.9794H115.024V29.7458H116.636V31.0565H115.024V33.9928H117.275V35.3184H113.398V25.6538Z" fill="white"/>
</g>
<defs>
<clipPath id="clip0_355_3212">
<rect y="0.171875" width="124" height="124" rx="2" fill="white"/>
</clipPath>
</defs>
</svg>
