<svg viewBox="0 0 100 100" xmlns="http://www.w3.org/2000/svg"><path d="M19.742 19.954a2.162 2.162 0 0 0-1.398-.496c-.483 0-.998.156-1.364.522a2.033 2.033 0 0 0-.563 1.353c0 .465.218 1.01.563 1.354.385.385.864.668 1.487.562.453-.015.97-.23 1.303-.562a1.88 1.88 0 0 0 .563-1.354c0-.464-.218-1.008-.563-1.353l-.013-.014-.015-.012zm7.917 0a2.162 2.162 0 0 0-1.399-.496c-.482 0-.998.156-1.364.522a2.038 2.038 0 0 0-.563 1.353c0 .454.208.983.539 1.328.355.453.93.686 1.511.588.453-.015.971-.23 1.304-.562a1.88 1.88 0 0 0 .563-1.354c0-.464-.218-1.008-.563-1.353l-.014-.014-.014-.012zm5.867 3.189a1.51 1.51 0 0 1-.737-.48 2.04 2.04 0 0 1-.539-1.33c0-.464.218-1.008.563-1.353l.014-.014.014-.012c.77-.66 1.964-.66 2.734 0l.015.012.014.014c.344.345.563.889.563 1.353 0 .465-.219 1.01-.563 1.354-.345.345-.89.563-1.354.563a2.45 2.45 0 0 1-.724-.107zM60.27 47.187l-.353-.354.352.355-13.25 13.166a2.035 2.035 0 0 1-1.352.563 2.034 2.034 0 0 1-1.354-.564L38.73 54.77a1.959 1.959 0 0 1 0-2.79 1.959 1.959 0 0 1 2.79 0l.003.003 4.148 4.225 11.892-11.812h.001a1.959 1.959 0 0 1 2.79 0l.013.014.013.015a2.041 2.041 0 0 1-.11 2.762z"/><path fill-rule="evenodd" clip-rule="evenodd" d="M14.667 11.5c-3.355 0-6.167 2.72-6.167 6.167V72.5c0 3.355 2.72 6.167 6.167 6.167H47.5V90.5H36.333c-1.11 0-2 .89-2 2 0 1.11.89 2 2 2h26.334c1.11 0 2-.89 2-2 0-1.11-.89-2-2-2H51.5V78.583h33.833c3.355 0 6.167-2.719 6.167-6.166v-54.75c0-3.355-2.72-6.167-6.167-6.167H14.667zm-2.25 6.167c0-1.298 1.016-2.25 2.25-2.25H85.25a2.274 2.274 0 0 1 2.25 2.25v9.666H12.417v-9.666zm0 54.75v-41.25H87.5v41.25a2.274 2.274 0 0 1-2.25 2.25H14.667a2.274 2.274 0 0 1-2.25-2.25z"/></svg>