<svg xmlns="http://www.w3.org/2000/svg" width="124" height="125" viewBox="0 0 124 125" fill="none">
<g clip-path="url(#clip0_355_4408)">
<path d="M124 0.171875H0V124.172H124V0.171875Z" fill="#56C02B"/>
<path d="M39.6255 10.5508V20.6915H43.3641V19.3002H41.3305V10.5508H39.6255Z" fill="white"/>
<path d="M45.9953 10.5508H44.2915V20.6903H45.9953V10.5508Z" fill="white"/>
<path d="M47.1162 20.6915H48.82V16.2188H50.525V14.8437H48.82V11.9421H51.1053V10.5508H47.1162V20.6915Z" fill="white"/>
<path d="M52.0044 20.6915H56.0691V19.3002H53.7082V16.2188H55.3983V14.8437H53.7082V11.9421H56.0691V10.5508H52.0044V20.6915Z" fill="white"/>
<path d="M9.0791 15.0879V19.4751H9.1163L12.065 16.4147H12.1035V35.5529H16.3058V10.5508H12.9504L9.0791 15.0879Z" fill="white"/>
<path d="M26.3002 18.4805C24.6411 18.4805 23.4246 19.0695 22.76 20.2165H22.7228V13.9806H29.9507V10.5532H18.8887V24.6396H22.7228V24.0841C22.7228 22.611 23.3862 21.7988 24.5654 21.7988C25.8575 21.7988 26.3746 22.6841 26.3746 24.0494V30.0969C26.3746 31.4224 25.8947 32.345 24.6039 32.345C23.1667 32.345 22.6521 31.3865 22.6521 29.9109V26.7774H18.8081V29.6182C18.8081 33.4151 20.3197 35.848 24.5977 35.848C28.8385 35.848 30.5707 33.5986 30.5707 30.1328V24.0109C30.5707 20.0653 28.5433 18.4805 26.294 18.4805" fill="white"/>
<path d="M39.6182 32.9476V28.0632C39.6182 26.4834 40.3932 25.3352 42.1812 25.3352C43.9693 25.3352 44.758 26.4822 44.758 28.0632V32.9476C44.758 34.5124 43.9842 35.6756 42.1812 35.6756C40.3783 35.6756 39.6182 34.5137 39.6182 32.9476ZM43.0592 33.2154V27.7941C43.0592 27.1828 42.7913 26.7513 42.1812 26.7513C41.5712 26.7513 41.3132 27.1828 41.3132 27.7941V33.2154C41.3132 33.8267 41.5811 34.2595 42.1812 34.2595C42.7814 34.2595 43.0592 33.8267 43.0592 33.2154Z" fill="white"/>
<path d="M47.1499 29.2103V35.5541H45.7202V25.4556H47.3893L49.2207 31.2488V25.4556H50.6356V35.5541H49.1476L47.1499 29.2103Z" fill="white"/>
<path d="M54.3169 25.4556H56.0145V34.169H58.0419V35.5541H54.3169V25.4556Z" fill="white"/>
<path d="M58.5415 35.5541L60.4486 25.4556H62.3855L64.3075 35.5541H62.5641L62.2479 33.7078H60.4486L60.1523 35.5541H58.5415ZM60.6731 32.3524H62.0284L61.3575 28.3014H61.3427L60.6731 32.3524Z" fill="white"/>
<path d="M66.4319 29.2103V35.5541H65.001V25.4556H66.67L68.5015 31.2488V25.4556H69.9163V35.5541H68.4283L66.4319 29.2103Z" fill="white"/>
<path d="M76.0976 28.1674V32.8447C76.0976 34.3922 75.4578 35.5541 73.6399 35.5541H71.0186V25.4556H73.6399C75.4578 25.4556 76.0976 26.6026 76.0976 28.1674ZM73.4316 34.169C74.1297 34.169 74.4 33.7524 74.4 33.1423V27.8537C74.4 27.2573 74.1297 26.8406 73.4316 26.8406H72.7161V34.169H73.4316Z" fill="white"/>
<path d="M51.9796 84.0107C52.0156 84.0107 52.0512 84.0178 52.0845 84.0316C52.1177 84.0454 52.1479 84.0656 52.1734 84.091C52.1988 84.1165 52.219 84.1467 52.2328 84.1799C52.2465 84.2132 52.2536 84.2488 52.2536 84.2848V93.3145C52.2538 93.3505 52.2468 93.3862 52.2331 93.4195C52.2194 93.4529 52.1992 93.4831 52.1737 93.5086C52.1482 93.5341 52.118 93.5543 52.0847 93.568C52.0513 93.5817 52.0156 93.5887 51.9796 93.5885H48.3265C48.2905 93.5887 48.2547 93.5817 48.2213 93.568C48.1879 93.5543 48.1575 93.5341 48.132 93.5087C48.1064 93.4832 48.0861 93.453 48.0722 93.4196C48.0584 93.3863 48.0513 93.3506 48.0513 93.3145V84.2848C48.0513 84.2487 48.0584 84.213 48.0722 84.1796C48.0861 84.1463 48.1064 84.116 48.132 84.0906C48.1575 84.0651 48.1879 84.0449 48.2213 84.0312C48.2547 84.0175 48.2905 84.0106 48.3265 84.0107H51.9796Z" fill="white"/>
<path d="M92.1071 97.4646H31.8915C31.8176 97.4665 31.7474 97.4974 31.6959 97.5504C31.6445 97.6035 31.6159 97.6746 31.6162 97.7486V101.429C31.6172 101.501 31.6467 101.57 31.6982 101.621C31.7498 101.671 31.8192 101.7 31.8915 101.699H92.1071C92.1793 101.699 92.2485 101.671 92.3002 101.62C92.3518 101.57 92.3817 101.501 92.3837 101.429V97.7486C92.3834 97.6746 92.3544 97.6037 92.3028 97.5507C92.2512 97.4977 92.181 97.4668 92.1071 97.4646Z" fill="white"/>
<path d="M92.1073 104.78H31.8917C31.82 104.781 31.7514 104.809 31.7007 104.86C31.65 104.911 31.6211 104.979 31.6201 105.051V108.743C31.6214 108.815 31.6509 108.884 31.7024 108.934C31.7538 108.985 31.8231 109.014 31.8954 109.014H92.1073C92.1796 109.014 92.2488 108.985 92.3004 108.934C92.352 108.884 92.3819 108.815 92.3838 108.743V105.051C92.3822 104.979 92.3524 104.91 92.3008 104.859C92.2491 104.808 92.1797 104.78 92.1073 104.78Z" fill="white"/>
<path d="M80.6482 74.0162C79.8967 73.4272 77.8879 72.0533 75.4402 72.0533C73.6893 72.0533 72.0612 72.7427 70.6042 74.108C70.5537 74.156 70.5135 74.2137 70.4858 74.2776C70.4581 74.3415 70.4435 74.4103 70.443 74.48V74.8197C70.4393 74.8968 70.4529 74.9738 70.4827 75.045C70.5125 75.1162 70.5578 75.1799 70.6153 75.2314C70.6732 75.2801 70.7418 75.3145 70.8155 75.3317C70.8892 75.349 70.9659 75.3486 71.0394 75.3306C71.0778 75.3245 71.1156 75.3149 71.1522 75.3021C71.2653 75.261 71.3681 75.1958 71.4536 75.1111C71.7685 74.8991 72.6316 74.6151 73.8654 74.6151C75.1401 74.6151 77.6474 74.9574 80.0654 77.2191L80.1212 77.2687C80.1894 77.3383 80.2708 77.3934 80.3607 77.4309C80.4506 77.4684 80.5471 77.4874 80.6444 77.487C80.7393 77.4873 80.8333 77.4686 80.9209 77.432C81.0084 77.3953 81.0877 77.3415 81.1541 77.2737L81.2037 77.2228C83.639 74.9611 86.1414 74.6188 87.4161 74.6188C88.6561 74.6188 89.5241 74.909 89.8341 75.1148C89.9289 75.2064 90.0428 75.2758 90.1676 75.3182C90.2835 75.3459 90.4044 75.3451 90.5198 75.3157C90.6286 75.2859 90.7246 75.2212 90.7931 75.1317C90.8616 75.0421 90.8989 74.9325 90.8992 74.8197V74.5296C90.8985 74.4599 90.8838 74.3912 90.8561 74.3273C90.8285 74.2634 90.7883 74.2057 90.738 74.1576C89.2674 72.7564 87.6219 72.0496 85.8438 72.0496C83.4171 72.0496 81.4182 73.4024 80.6444 74.015" fill="white"/>
<path d="M76.9119 50.0198C76.8482 50.0512 76.7919 50.0957 76.7466 50.1504C76.7013 50.2051 76.6681 50.2688 76.6491 50.3372L76.5883 50.5381C76.5652 50.6145 76.5603 50.6952 76.5741 50.7738C76.5878 50.8524 76.6199 50.9267 76.6676 50.9907C76.7108 51.05 76.7665 51.0989 76.8308 51.1341C76.8952 51.1693 76.9665 51.1897 77.0396 51.194C77.0646 51.1989 77.0903 51.1989 77.1153 51.194C77.2165 51.1926 77.316 51.1671 77.4054 51.1196C77.5273 51.0907 77.6522 51.0769 77.7774 51.0787C78.0465 51.0787 80.4744 51.1606 82.079 53.8886L82.1001 53.9282C82.1394 54.0033 82.1939 54.0694 82.26 54.1223C82.3262 54.1752 82.4026 54.2139 82.4845 54.2358C82.5469 54.2542 82.6116 54.2642 82.6767 54.2655C82.7825 54.2658 82.8868 54.2402 82.9805 54.1911L83.0202 54.1713C83.8514 53.7435 84.7712 53.5159 85.706 53.5066C87.2275 53.5066 88.2207 54.1266 88.4526 54.3858C88.5008 54.4729 88.5672 54.5486 88.6473 54.6078C88.7101 54.6441 88.7756 54.6756 88.8432 54.702C88.8724 54.7094 88.9024 54.7136 88.9325 54.7144C88.9502 54.7163 88.9681 54.7163 88.9858 54.7144C89.0692 54.714 89.1513 54.6935 89.2251 54.6549C89.2864 54.6234 89.3406 54.5798 89.3846 54.5267C89.4285 54.4736 89.4611 54.4122 89.4806 54.3461L89.5314 54.1688C89.5462 54.1215 89.5533 54.0721 89.5525 54.0225C89.5532 53.9312 89.5288 53.8416 89.4818 53.7633C88.3125 51.7334 86.6162 51.3094 85.3972 51.3094C84.6567 51.3186 83.9233 51.4562 83.2297 51.7161C82.6792 50.9721 81.2842 49.4407 79.1687 49.4407C78.3821 49.4512 77.6091 49.6466 76.9119 50.0111" fill="white"/>
<path d="M64.1886 59.2813L64.2059 59.5528C64.2105 59.629 64.232 59.7031 64.2687 59.7699C64.3055 59.8367 64.3566 59.8945 64.4184 59.9391C64.4803 59.9837 64.5512 60.014 64.6262 60.0279C64.7012 60.0417 64.7783 60.0387 64.852 60.0191C64.8819 60.0121 64.9113 60.0029 64.94 59.9918C65.0412 59.95 65.1306 59.884 65.2004 59.7996C65.4558 59.6148 66.2804 59.2776 67.4969 59.2776C68.6662 59.2776 70.4444 59.59 72.2572 61.0793L72.2994 61.1227C72.4286 61.2345 72.5935 61.2965 72.7644 61.2975H72.809C72.9898 61.2854 73.159 61.2041 73.2815 61.0706L73.3212 61.0247C75.3287 58.9006 77.49 58.5856 78.5998 58.5856C79.391 58.5856 79.9514 58.7481 80.1697 58.8721C80.2609 58.9489 80.368 59.0044 80.4834 59.0345C80.5982 59.0634 80.719 59.0578 80.8306 59.0184C80.936 58.9811 81.0263 58.9104 81.0879 58.8171C81.1494 58.7238 81.1788 58.6129 81.1716 58.5013L81.158 58.2657C81.1536 58.1968 81.1353 58.1296 81.1042 58.068C81.0731 58.0064 81.0298 57.9517 80.9769 57.9074C79.7791 56.8992 78.4858 56.3921 77.1255 56.3921C75.0076 56.3921 73.3174 57.642 72.6181 58.2521C71.9782 57.8156 70.4233 56.9178 68.6005 56.9178C66.9984 56.9178 65.5625 57.5837 64.3287 58.8919C64.281 58.9438 64.2441 59.0045 64.22 59.0707C64.196 59.1369 64.1853 59.2072 64.1886 59.2776" fill="white"/>
<path d="M33.7168 64.1149C33.7165 63.2574 33.8851 62.4081 34.213 61.6158C34.541 60.8234 35.0218 60.1034 35.6281 59.4969C36.2344 58.8904 36.9542 58.4093 37.7464 58.081C38.5387 57.7528 39.3878 57.5838 40.2454 57.5838C40.3868 57.5838 40.5244 57.5962 40.6633 57.6049C40.7596 56.3083 41.1412 55.049 41.7807 53.917C42.4202 52.785 43.3018 51.8082 44.3626 51.0565C45.4235 50.3047 46.6372 49.7966 47.9172 49.5684C49.1972 49.3402 50.5118 49.3976 51.767 49.7364C53.0223 50.0752 54.1872 50.6872 55.1785 51.5284C56.1698 52.3697 56.963 53.4196 57.5015 54.603C58.04 55.7864 58.3104 57.0742 58.2934 58.3742C58.2764 59.6743 57.9725 60.9545 57.4033 62.1235C59.7794 62.6479 61.8781 64.0317 63.296 66.0092C64.714 67.9867 65.3513 70.4184 65.0856 72.8372C64.8199 75.2559 63.6698 77.4912 61.8564 79.1137C60.0429 80.7362 57.6939 81.6314 55.2606 81.6274C54.8625 81.6274 42.088 81.5506 42.088 81.5506C40.7235 81.5527 39.3882 81.1547 38.2474 80.4059C37.1066 79.6572 36.2103 78.5904 35.6693 77.3377C35.1284 76.0849 34.9665 74.701 35.2037 73.3572C35.4409 72.0134 36.0668 70.7686 37.004 69.7768C36.0056 69.2066 35.1757 68.3826 34.5984 67.3883C34.0211 66.3939 33.717 65.2647 33.7168 64.1149Z" fill="white"/>
</g>
<defs>
<clipPath id="clip0_355_4408">
<rect y="0.171875" width="124" height="124" rx="2" fill="white"/>
</clipPath>
</defs>
</svg>
