<svg viewBox="0 0 100 100" xmlns="http://www.w3.org/2000/svg"><path d="M82.486 46.717V35.916H71.684v4.288H68.57V36.64a4.578 4.578 0 0 0-4.572-4.572h-12.76v-1.522H61.53l.333-.426a14.764 14.764 0 0 0 3.083-10.835h.095V3.965h-2.222v9.166C60.19 8.868 55.49 6.01 50.126 6.01c-5.192 0-9.767 2.669-12.44 6.703V3.964h-2.222V18.24a14.754 14.754 0 0 0 2.925 11.882l.333.426h10.292v1.522h-12.76a4.577 4.577 0 0 0-4.572 4.572v3.565h-3.368v-4.29h-10.8V46.72h4.288v13h-3.08v8.389h7.276v-2.222h-5.055v-3.945h5.055V59.72h-1.974V46.717h4.29v-4.29h3.368v18.444c0 2.391 1.852 4.338 4.195 4.533v22.69a8.478 8.478 0 0 0-4.446 7.453c0 .192.008.382.022.57l.076 1.03h16.759l.066-1.04a8.415 8.415 0 0 0-.97-4.525v-26.14h5.486V91.58a8.411 8.411 0 0 0-.97 4.523l.067 1.041h16.766l.07-1.036c.013-.186.021-.374.021-.563a8.478 8.478 0 0 0-4.446-7.452V65.404c2.343-.194 4.196-2.14 4.196-4.533V42.428h3.116v4.289h4.29v13.002h-1.971v2.222h5.054v3.944H74.01v2.223h7.276v-8.39h-3.082v-13h4.282zM37.431 20.926c0-7 5.695-12.694 12.694-12.694 6.998 0 12.692 5.695 12.692 12.694 0 2.686-.822 5.233-2.385 7.4H39.817a12.544 12.544 0 0 1-2.385-7.4zm-11.34 23.568h-6.355v-6.356h6.355v6.356zm7.591 50.43a6.258 6.258 0 0 1 6.22-5.626 6.258 6.258 0 0 1 6.217 5.626H33.683zm11.478-6.007a8.421 8.421 0 0 0-7.061-1.645v-21.83h7.061v23.475zm21.406 6.003H54.13a6.258 6.258 0 0 1 6.219-5.626 6.256 6.256 0 0 1 6.217 5.626zm-6.218-7.848a8.419 8.419 0 0 0-5.259 1.842V65.442h7.06V87.27a8.43 8.43 0 0 0-1.801-.197zm5.998-26.2a2.352 2.352 0 0 1-2.35 2.348H36.253a2.35 2.35 0 0 1-2.349-2.349V36.642a2.352 2.352 0 0 1 2.35-2.35h27.743a2.352 2.352 0 0 1 2.35 2.35v24.23zm7.56-22.733h6.356v6.356h-6.356V38.14z"/><path d="M40.591 23.259H59.66v-7.942H40.59v7.942zm2.222-5.72h14.624v3.498H42.813v-3.498z"/></svg>