<svg xmlns="http://www.w3.org/2000/svg" viewBox="0 0 512 512"><path d="M24 411.56l29.23.18q1.14 3.18 2.56 6.26l-20.86 20.55a8 8 0 00-.07 11.31L61 476.33a8 8 0 0011.31.07l20.81-20.55q3.06 1.45 6.22 2.63l-.18 29.24a8 8 0 008 8l37.19.23a8 8 0 008-7.95l.18-29.23c2.12-.76 4.21-1.62 6.26-2.56l20.54 20.81a8 8 0 0011.32.07L217.12 451a8 8 0 00.07-11.31l-20.55-20.81q1.46-3.06 2.63-6.22l29.23.18a8 8 0 008.05-7.95l.24-37.19a8 8 0 00-7.95-8.05l-29.24-.18c-.75-2.12-1.61-4.21-2.55-6.26l20.81-20.54a8 8 0 00.07-11.32l-26.14-26.46a8 8 0 00-11.31-.08l-20.81 20.55c-2-1-4.11-1.84-6.22-2.63l.18-29.23a8 8 0 00-7.95-8.05l-37.19-.24a8 8 0 00-8 8l-.18 29.24c-2.12.75-4.21 1.61-6.26 2.55l-20.6-20.86a8 8 0 00-11.31-.07l-26.47 26.14a8 8 0 00-.07 11.31l20.55 20.81q-1.45 3.06-2.63 6.22l-29.24-.18a7.93 7.93 0 00-5.67 2.31 8 8 0 00-2.38 5.64L16 403.51a8 8 0 008 8.05zm8.23-37.14l27.07.17a8 8 0 007.7-5.82 60.4 60.4 0 015.88-13.9 8 8 0 00-1.24-9.62L52.61 326l15.08-14.89 19 19.27a8 8 0 009.61 1.36 60.92 60.92 0 0114-5.71 8 8 0 005.92-7.67l.17-27.07 21.19.14-.17 27.06a8 8 0 005.82 7.75 60.84 60.84 0 0113.9 5.88 8 8 0 009.62-1.23l19.28-19 14.89 15.08-19.27 19a8 8 0 00-1.36 9.61 61.11 61.11 0 015.71 14 8 8 0 007.67 5.92l27.07.17-.13 21.19-27.07-.17a8 8 0 00-7.7 5.83 61 61 0 01-5.88 13.89 8 8 0 001.23 9.62l19 19.28-15.08 14.9-19-19.28a8 8 0 00-9.61-1.36 61.29 61.29 0 01-14 5.71 8 8 0 00-5.92 7.67L136.4 480l-21.19-.13.17-27.07a8 8 0 00-5.83-7.75 60.51 60.51 0 01-13.89-5.88 8 8 0 00-9.66 1.19l-19.28 19-14.85-15.05 19.27-19a8 8 0 001.36-9.6 61.18 61.18 0 01-5.71-14 8 8 0 00-7.68-5.92l-27.06-.17zM488 146.91h-48.94a113.69 113.69 0 00-6.32-15.19l34.63-34.63a8 8 0 000-11.31l-41.15-41.15a8 8 0 00-11.31 0l-34.63 34.63a113.69 113.69 0 00-15.19-6.32V24a8 8 0 00-8-8h-58.18a8 8 0 00-8 8v48.94a113.69 113.69 0 00-15.19 6.32l-34.63-34.63a8 8 0 00-11.31 0l-41.15 41.15a8 8 0 000 11.31l34.63 34.63a113.69 113.69 0 00-6.32 15.19H168a8 8 0 00-8 8v58.18a8 8 0 008 8h48.94a113.69 113.69 0 006.32 15.19l-34.63 34.63a8 8 0 000 11.31l41.15 41.15a8 8 0 0011.31 0l34.63-34.63a113.69 113.69 0 0015.19 6.32V344a8 8 0 008 8h58.18a8 8 0 008-8v-48.94a113.69 113.69 0 0015.19-6.32l34.63 34.63a8 8 0 0011.31 0l41.15-41.15a8 8 0 000-11.31l-34.63-34.63a113.69 113.69 0 006.32-15.19H488a8 8 0 008-8v-58.18a8 8 0 00-8-8zm-8 58.18h-46.85a8 8 0 00-7.72 5.87 100 100 0 01-9.49 22.83 8 8 0 001.29 9.61l33.17 33.16-29.84 29.84-33.16-33.17a8 8 0 00-9.62-1.29 99.74 99.74 0 01-22.78 9.49 8 8 0 00-5.87 7.72V336h-42.22v-46.85a8 8 0 00-5.87-7.72 99.74 99.74 0 01-22.82-9.49 8 8 0 00-9.62 1.29l-33.16 33.17-29.84-29.84 33.17-33.16a8 8 0 001.29-9.61 100 100 0 01-9.49-22.79 8 8 0 00-7.72-5.87H176v-42.22h46.85a8 8 0 007.72-5.87 100 100 0 019.49-22.83 8 8 0 00-1.29-9.61L205.6 91.44l29.84-29.84 33.16 33.17a8 8 0 009.62 1.29A99.74 99.74 0 01301 86.57a8 8 0 005.87-7.72V32h42.18v46.85a8 8 0 005.95 7.72 99.74 99.74 0 0122.82 9.49 8 8 0 009.62-1.29l33.12-33.17 29.84 29.84-33.17 33.16a8 8 0 00-1.29 9.61 100 100 0 019.49 22.79 8 8 0 007.72 5.87H480z"/><path d="M328 128a56 56 0 1056 56 56.06 56.06 0 00-56-56zm0 96a40 40 0 1140-40 40 40 0 01-40 40zM128 416a32 32 0 10-32-32 32 32 0 0032 32zm0-48a16 16 0 11-16 16 16 16 0 0116-16z"/></svg>