<svg viewBox="0 0 100 100" xmlns="http://www.w3.org/2000/svg"><path d="M99.673 49.385L82.789 19.948a1.988 1.988 0 0 0-1.147-.87 2.008 2.008 0 0 0-1.438.127l-7.757 4.381a2.001 2.001 0 0 0-.94 1.205 1.983 1.983 0 0 0 .19 1.51l1.552 3.1a5.443 5.443 0 0 1-3.75.898 24.261 24.261 0 0 1-3.62-.82c-5.687-1.512-15.176-4.074-24.484 0a18.125 18.125 0 0 0-4.887 2.997c-.853 0-2.585-.307-4.37-.563-1.835-.73-3.5-1.83-4.886-3.229l1.086-1.895c.262-.46.33-1.003.19-1.511a2.001 2.001 0 0 0-.94-1.205l-7.756-4.381a1.977 1.977 0 0 0-1.526-.18 1.92 1.92 0 0 0-1.215.923L.26 49.898a1.935 1.935 0 0 0-.18 1.511 1.888 1.888 0 0 0 .93 1.204l7.757 4.381c.298.17.638.26.982.257.18.024.363.024.543 0a1.92 1.92 0 0 0 1.215-.923l1.836-3.177a58.689 58.689 0 0 0 4.938 5.662l-.413.59a5.092 5.092 0 0 0-.931 2.92c0 .81.196 1.61.569 2.331a5.137 5.137 0 0 0 1.577 1.82 4.917 4.917 0 0 0 2.947.948h.207a5.078 5.078 0 0 0 0 1.537 5.12 5.12 0 0 0 2.095 3.28c.855.619 1.888.95 2.947.947a5.216 5.216 0 0 0 1.551-.23 5.1 5.1 0 0 0 .887 2.02 5.155 5.155 0 0 0 1.66 1.465 5.204 5.204 0 0 0 4.33.332 5.123 5.123 0 0 0 2.018 2.946 4.99 4.99 0 0 0 2.947.922h.88a5.045 5.045 0 0 0 1.863-.692 4.998 4.998 0 0 0 1.446-1.357v-.154A22.94 22.94 0 0 0 54.349 81a10.217 10.217 0 0 0 3.387-.615 7.38 7.38 0 0 0 4.317-3.484h.854a7.156 7.156 0 0 0 4.059-1.23 6.914 6.914 0 0 0 2.74-4.073 6.562 6.562 0 0 0 4.189-2.127 8.637 8.637 0 0 0 1.784-3.126 7.548 7.548 0 0 0 2.867-.848 7.484 7.484 0 0 0 2.304-1.893 5.402 5.402 0 0 0 .75-4.176 5.505 5.505 0 0 0-.672-1.665 17.69 17.69 0 0 0 6.102-4.714l1.5 2.562c.263.461.7.802 1.214.948.18.025.363.025.543 0 .343-.01.68-.097.983-.256l7.756-4.381c.466-.262.81-.694.957-1.204a1.935 1.935 0 0 0-.31-1.333zm-87.546.513l-2.586 4.33-6.748-3.613 16.34-28.412 6.749 3.817-13.755 23.878zM24.124 63.68a2.604 2.604 0 0 1-3.49.564 2.544 2.544 0 0 1-.595-3.484l.93-1.333 1.19-1.64a2.604 2.604 0 0 1 3.542-.59c.487.355.833.866.98 1.446a2.54 2.54 0 0 1-.179 1.732l-2.378 3.305zm5.585 5.303l-.337.462c-.154.349-.386.66-.677.91a2.593 2.593 0 0 1-2.146.583 2.596 2.596 0 0 1-1.81-1.285 2.543 2.543 0 0 1 .522-3.13l.931-1.255 2.12-2.946 2.793-3.894a2.57 2.57 0 0 1 1.606-1.158 2.607 2.607 0 0 1 1.962.313 2.417 2.417 0 0 1 1.034 1.64 2.544 2.544 0 0 1-.44 1.87l-.93 1.306-4.629 6.584zm6.851 3.536l-.62.845a2.565 2.565 0 0 1-.686.912 2.596 2.596 0 0 1-2.164.567 2.597 2.597 0 0 1-1.05-.456 2.568 2.568 0 0 1-1.048-1.96 2.543 2.543 0 0 1 .888-2.035l4.628-6.456a2.608 2.608 0 0 1 3.813-.083c.331.344.56.772.66 1.236a2.311 2.311 0 0 1-.44 1.87l-1.55 2.178-2.43 3.382zm8.688.999l-1.63 2.229-.206.307-.647.871a2.605 2.605 0 0 1-3.182.412 2.568 2.568 0 0 1-1.09-1.29 2.54 2.54 0 0 1-.046-1.683l.207-.334 2.457-3.407a2.604 2.604 0 0 1 3.49-.538 2.543 2.543 0 0 1 .595 3.51l.052-.077zM78.6 62.246a5.556 5.556 0 0 1-3.75 1.666l-15.28-9.48a1.303 1.303 0 0 0-1.784.385 1.246 1.246 0 0 0 .414 1.767l14.893 9.275a5.83 5.83 0 0 1-1.216 1.998 4.247 4.247 0 0 1-3.025 1.307l-13.496-7.481a1.313 1.313 0 0 0-.99-.114 1.3 1.3 0 0 0-.781.613 1.28 1.28 0 0 0 .504 1.755l12.927 7.148a4.224 4.224 0 0 1-1.706 2.562 4.758 4.758 0 0 1-3.8.615h-.156a1.845 1.845 0 0 0-.258-.205l-10.342-5.124a1.304 1.304 0 0 0-.946-.019 1.289 1.289 0 0 0-.705.624 1.27 1.27 0 0 0 .487 1.675l9.903 4.945a4.96 4.96 0 0 1-2.586 1.921 15.244 15.244 0 0 1-10.342-1.819l.827-1.255a5.088 5.088 0 0 0 .88-3.792 5.113 5.113 0 0 0-1.669-2.928 5.197 5.197 0 0 0-3.14-1.273 5.283 5.283 0 0 0 .155-2.383 5.119 5.119 0 0 0-2.069-3.28 5.206 5.206 0 0 0-3.206-.947 4.796 4.796 0 0 0 0-1.486 5.108 5.108 0 0 0-1.355-2.598 5.183 5.183 0 0 0-2.567-1.44 5.216 5.216 0 0 0-2.945.186 5.167 5.167 0 0 0-2.363 1.751l-.233.307a4.673 4.673 0 0 0-1.655-1.972 5.208 5.208 0 0 0-3.81-.853 5.178 5.178 0 0 0-3.326 2.031l-.206.256a60.994 60.994 0 0 1-5.171-5.995l11.272-19.624a14.866 14.866 0 0 0 5.895 3.56l2.586.36a14.954 14.954 0 0 0-2.793 5.84c-.23.948-.21 1.938.057 2.875a5.677 5.677 0 0 0 1.469 2.48 5.647 5.647 0 0 0 2.388 1.422 5.68 5.68 0 0 0 2.783.115 8.728 8.728 0 0 0 5.016-2.997l2.585-3.407 3.646-.948a108.708 108.708 0 0 1 27.95 17.934h.155c.075.088.162.165.258.23a2.56 2.56 0 0 1 1.008 1.588 2.868 2.868 0 0 1-.387 2.23zm.336-6.379a108.717 108.717 0 0 0-28.622-18.164 1.722 1.722 0 0 0-.724 0 1.85 1.85 0 0 0-.517 0l-4.008 1.05a2.147 2.147 0 0 0-1.085.717l-2.586 3.536a6.371 6.371 0 0 1-3.542 2.1 3.13 3.13 0 0 1-2.844-.845 3.2 3.2 0 0 1-.853-2.997 12.25 12.25 0 0 1 3.826-6.43 17.395 17.395 0 0 1 4.68-2.947c8.429-3.664 17.4-1.255 22.753.18 1.325.41 2.683.71 4.059.896a7.994 7.994 0 0 0 5.17-1.23l10.912 19.01a14.978 14.978 0 0 1-6.645 5.124h.026zm11.48-1.896l-2.43-4.227-11.403-19.855-2.456-4.279 6.722-3.894L97.14 50.154l-6.722 3.817z"/></svg>