<svg xmlns="http://www.w3.org/2000/svg" width="124" height="125" viewBox="0 0 124 125" fill="none">
<g clip-path="url(#clip0_355_4592)">
<path d="M124.014 0.19043H0.0371094V124.172H124.014V0.19043Z" fill="#00689D"/>
<path d="M9.5752 15.125V19.5122H9.61364L12.5624 16.4518H12.5996V35.5863H16.8032V10.5891H13.449L9.5752 15.125Z" fill="white"/>
<path d="M31.5146 29.5784V25.8906C31.5146 21.7986 29.8927 19.7328 26.8696 19.7328C25.0989 19.7328 24.03 20.5438 23.4038 21.7614H23.3678V16.3786C23.3678 14.8658 23.8452 13.7969 25.358 13.7969C26.8708 13.7969 27.3123 14.6823 27.3123 16.2298V17.8914H31.1464V16.5621C31.1464 12.8756 29.9299 10.2952 25.2836 10.2952C20.8593 10.2952 19.2002 13.1348 19.2002 17.0432V29.2089C19.2002 33.0802 20.8978 35.8826 25.3208 35.8826C29.7848 35.8826 31.5208 33.4497 31.5208 29.5784M27.3544 29.9504C27.3544 31.5351 26.7642 32.4564 25.327 32.4564C23.9258 32.4564 23.374 31.4992 23.374 29.9504V25.3748C23.446 23.9736 24.0362 23.0882 25.3642 23.0882C26.8002 23.0882 27.3544 23.9736 27.3544 25.5968V29.9504Z" fill="white"/>
<path d="M80.1211 61.0559C80.1211 61.0559 79.0782 62.441 79.3771 63.7913C79.6759 65.1417 81.2222 65.944 81.2222 65.944C81.2222 65.944 82.265 64.5589 81.9662 63.2098C81.6674 61.8607 80.1211 61.0559 80.1211 61.0559Z" fill="white"/>
<path d="M78.421 68.9721C78.421 68.9721 79.4639 67.5858 79.165 66.2366C78.8662 64.8875 77.3211 64.084 77.3211 64.084C77.3211 64.084 76.2771 65.4691 76.5771 66.8194C76.8772 68.1698 78.4223 68.9721 78.4223 68.9721" fill="white"/>
<path d="M82.708 67.4889C82.708 67.4889 83.8091 68.6049 85.064 68.4884C86.3189 68.3718 87.2476 67.0859 87.2476 67.0859C87.2476 67.0859 86.1478 65.9699 84.8916 66.0853C83.6355 66.2006 82.708 67.4889 82.708 67.4889Z" fill="white"/>
<path d="M84.5135 61.5519C83.493 62.5873 83.6368 64.42 83.6368 64.42C83.6368 64.42 85.4361 64.5762 86.4591 63.5421C87.4821 62.5079 87.3358 60.6739 87.3358 60.6739C87.3358 60.6739 85.5353 60.5177 84.5135 61.5519Z" fill="white"/>
<path d="M82.2615 71.6071C83.5114 71.7559 84.687 70.6821 84.687 70.6821C84.687 70.6821 83.8351 69.3639 82.5839 69.2213C81.3327 69.0787 80.1572 70.1476 80.1572 70.1476C80.1572 70.1476 81.0091 71.4596 82.259 71.6071" fill="white"/>
<path d="M83.3776 93.3245H74.0342C73.6837 93.3245 73.3475 93.4637 73.0996 93.7116C72.8517 93.9595 72.7124 94.2957 72.7124 94.6463C72.7124 94.9969 72.8517 95.3331 73.0996 95.581C73.3475 95.8289 73.6837 95.9681 74.0342 95.9681H83.3776C83.7282 95.9681 84.0644 95.8289 84.3123 95.581C84.5602 95.3331 84.6995 94.9969 84.6995 94.6463C84.6995 94.2957 84.5602 93.9595 84.3123 93.7116C84.0644 93.4637 83.7282 93.3245 83.3776 93.3245Z" fill="white"/>
<path d="M83.3776 107.896H74.0342C73.6837 107.896 73.3475 108.035 73.0996 108.283C72.8517 108.531 72.7124 108.867 72.7124 109.217C72.7124 109.568 72.8517 109.904 73.0996 110.152C73.3475 110.4 73.6837 110.539 74.0342 110.539H83.3776C83.7282 110.539 84.0644 110.4 84.3123 110.152C84.5602 109.904 84.6995 109.568 84.6995 109.217C84.6995 108.867 84.5602 108.531 84.3123 108.283C84.0644 108.035 83.7282 107.896 83.3776 107.896Z" fill="white"/>
<path d="M41.3551 90.1154C41.1421 90.0483 40.9256 89.9928 40.7065 89.9492C40.7065 89.9492 40.9459 90.0236 41.3551 90.1154Z" fill="white"/>
<path d="M83.0339 96.8919H74.375C74.1756 96.8919 73.9844 96.971 73.8432 97.1119C73.7021 97.2528 73.6227 97.4439 73.6223 97.6433V100.266L67.9704 100.886L59.7133 100.697V95.6519C60.8231 95.5108 61.921 95.2878 62.998 94.9848C70.9477 92.7429 72.6812 86.1709 72.5076 81.6238C72.3352 76.9924 73.817 75.1944 75.9461 74.3946C76.5181 74.1831 77.1089 74.0266 77.7106 73.9271C77.7342 75.0642 77.9586 76.3873 78.4732 77.9621C78.6629 77.9521 78.8452 77.936 79.0374 77.9162C78.5005 76.3042 78.2711 74.9786 78.2587 73.8477C78.8837 73.7688 79.5148 73.7497 80.1435 73.7907C79.5074 73.421 78.9068 72.9935 78.3492 72.5135C78.7063 70.3212 80.0133 68.9745 81.3587 67.5969C82.1027 66.8393 82.8628 66.0568 83.4667 65.1243L82.998 64.8218C82.4276 65.7071 81.6799 66.4697 80.9594 67.2075C79.6475 68.5505 78.3219 69.9219 77.8731 72.0993C77.3938 71.667 76.938 71.2092 76.5078 70.7279C74.5474 68.5306 72.024 70.1439 68.4267 73.4943C64.8295 76.8448 60.2998 76.9577 55.8779 72.4341C50.0499 66.4623 44.956 66.497 41.4667 66.8355C43.8537 67.8523 44.6907 70.0831 45.8972 75.7524C47.1632 81.7044 50.3612 84.3927 54.7247 84.7635C52.2956 85.6228 52.1753 86.9955 48.9203 89.2423C46.3771 90.9957 42.8009 90.4414 41.3563 90.1103C44.0173 90.9411 47.1707 93.7324 49.9917 94.6983C51.6561 95.2657 53.3855 95.6203 55.1389 95.7536V100.582L40.3457 100.245V103.613L67.9717 102.98L73.6236 103.6V106.22C73.6239 106.42 73.7033 106.611 73.8443 106.753C73.9854 106.894 74.1766 106.974 74.3763 106.974H83.0352C83.2349 106.974 83.4263 106.894 83.5676 106.753C83.7088 106.612 83.7884 106.42 83.7891 106.22V97.6433C83.7884 97.4436 83.7085 97.2523 83.567 97.1114C83.4254 96.9705 83.2337 96.8916 83.0339 96.8919ZM56.4979 95.8354C57.1179 95.8453 57.7317 95.8267 58.3505 95.7846V100.666L56.4979 100.624V95.8354Z" fill="white"/>
<path d="M39.536 103.067C39.536 103.778 39.04 104.353 38.4299 104.353H37.7641C37.154 104.353 36.6567 103.778 36.6567 103.067V100.736C36.6567 100.025 37.1527 99.45 37.7641 99.45H38.4299C39.04 99.45 39.536 100.025 39.536 100.736V103.067Z" fill="white"/>
<path d="M39.603 10.5742H42.1289C43.8475 10.5742 44.4762 11.4261 44.4762 12.8459V14.9824C44.4762 16.4022 43.8475 17.269 42.1289 17.269H41.3068V20.7075H39.603V10.5742ZM41.3068 11.9643V15.9546H41.9355C42.5183 15.9546 42.7725 15.6706 42.7725 15.1176V12.7864C42.7725 12.2333 42.5183 11.9643 41.9355 11.9643H41.3068Z" fill="white"/>
<path d="M45.2227 10.5742H49.2886V11.9643H46.9264V14.8634H48.6153V16.2385H46.9264V19.3175H49.2886V20.7075H45.2227V10.5742Z" fill="white"/>
<path d="M49.9458 20.7075L51.8591 10.5742H53.8022L55.7292 20.7075H53.9808L53.667 18.8475H51.8591L51.5603 20.7075H49.9458ZM52.0798 17.4934H53.4438L52.7718 13.4287H52.7569L52.0798 17.4934Z" fill="white"/>
<path d="M56.2959 18.0912V13.192C56.2959 11.6073 57.0399 10.4565 58.8367 10.4565C60.7202 10.4565 61.2435 11.5031 61.2435 12.9973V14.1927H59.6898V12.8609C59.6898 12.2335 59.4815 11.8689 58.8677 11.8689C58.2539 11.8689 57.9997 12.3029 57.9997 12.9155V18.3553C57.9997 18.9679 58.2539 19.4019 58.8677 19.4019C59.4815 19.4019 59.6898 19.0138 59.6898 18.4099V16.5524H61.2447V18.3008C61.2447 19.7503 60.6471 20.8267 58.8379 20.8267C57.0287 20.8267 56.2959 19.6611 56.2959 18.0912Z" fill="white"/>
<path d="M62.1709 10.5742H66.2369V11.9643H63.8809V14.8634H65.5697V16.2385H63.8747V19.3175H66.2307V20.7075H62.1709V10.5742Z" fill="white"/>
<path d="M68.971 19.212L68.103 21.4986H67.147L67.3565 19.0781H68.9685L68.971 19.212Z" fill="white"/>
<path d="M76.1905 10.5742V18.3999C76.1905 19.8655 75.547 20.8216 73.8432 20.8216C72.0799 20.8216 71.6025 19.8507 71.6025 18.5648V16.5523H73.2145V18.5995C73.2145 19.1079 73.3943 19.4067 73.842 19.4067C74.2896 19.4067 74.4855 19.1079 74.4855 18.5846V10.5742H76.1905Z" fill="white"/>
<path d="M82.1683 10.5742V18.2411C82.1683 19.8097 81.495 20.8265 79.7615 20.8265C77.9684 20.8265 77.2207 19.8097 77.2207 18.2411V10.5742H78.9245V18.3999C78.9245 18.9988 79.1638 19.4018 79.7615 19.4018C80.3591 19.4018 80.5997 19.0037 80.5997 18.3999V10.5742H82.1683Z" fill="white"/>
<path d="M83.1245 18.5239V17.1599H84.7092V18.55C84.7092 19.1179 84.9634 19.4465 85.5462 19.4465C86.0844 19.4465 86.3237 19.0881 86.3237 18.55V18.1619C86.3237 17.5791 86.0844 17.2195 85.5611 16.7259L84.5592 15.7253C83.5883 14.7692 83.1394 14.1852 83.1394 13.0196V12.6761C83.1394 11.4212 83.8722 10.4441 85.5314 10.4441C87.2351 10.4441 87.9072 11.2811 87.9072 12.7455V13.5677H86.3535V12.6959C86.3535 12.1131 86.0844 11.8279 85.5462 11.8279C85.0676 11.8279 84.739 12.097 84.739 12.6649V12.8745C84.739 13.4424 85.0527 13.771 85.5462 14.2497L86.6374 15.3247C87.5637 16.2671 88.0126 16.8351 88.0126 17.956V18.452C88.0126 19.8408 87.2686 20.8279 85.5326 20.8279C83.7966 20.8279 83.1245 19.8557 83.1245 18.5239Z" fill="white"/>
<path d="M88.7837 10.5742H93.3134V11.9643H91.9135V20.7075H90.1948V11.9643H88.7837V10.5742Z" fill="white"/>
<path d="M94.1855 10.5742H95.8893V20.7075H94.1855V10.5742Z" fill="white"/>
<path d="M96.9492 18.0912V13.192C96.9492 11.6073 97.6932 10.4565 99.49 10.4565C101.374 10.4565 101.897 11.5031 101.897 12.9973V14.1927H100.342V12.8609C100.342 12.2335 100.134 11.8689 99.5197 11.8689C98.9059 11.8689 98.6517 12.3029 98.6517 12.9155V18.3553C98.6517 18.9679 98.8997 19.4019 99.5197 19.4019C100.14 19.4019 100.342 19.0138 100.342 18.4099V16.5524H101.897V18.3008C101.897 19.7503 101.299 20.8267 99.49 20.8267C97.6808 20.8267 96.9492 19.6611 96.9492 18.0912Z" fill="white"/>
<path d="M102.897 10.5742H106.963V11.9643H104.601V14.8634H106.29V16.2385H104.601V19.3175H106.963V20.7075H102.897V10.5742Z" fill="white"/>
<path d="M39.395 35.5691L41.3083 25.4358H43.2514L45.1784 35.5691H43.43L43.1163 33.7165H41.3083L41.0095 35.5691H39.395ZM41.5328 32.3562H42.8968L42.2247 28.2915H42.2098L41.5328 32.3562Z" fill="white"/>
<path d="M47.465 29.2029V35.5691H46.0303V25.4358H47.7043L49.5432 31.2502V25.4358H50.9642V35.5691H49.4688L47.465 29.2029Z" fill="white"/>
<path d="M57.1802 28.1563V32.8498C57.1802 34.4035 56.5379 35.5691 54.7138 35.5691H52.0801V25.4358H54.7101C56.5441 25.4358 57.1802 26.584 57.1802 28.1563ZM54.5043 34.179C55.2074 34.179 55.4764 33.7612 55.4764 33.1486V27.8426C55.4764 27.2449 55.2074 26.8258 54.5043 26.8258H53.7876V34.179H54.5043Z" fill="white"/>
<path d="M59.9307 33.3878V32.0238H61.5141V33.4139C61.5141 33.9818 61.7683 34.3104 62.3511 34.3104C62.8893 34.3104 63.1286 33.952 63.1286 33.4139V33.0319C63.1286 32.4491 62.8893 32.0908 62.366 31.5973L61.3653 30.5966C60.3932 29.6393 59.9455 29.0565 59.9455 27.8909V27.5474C59.9455 26.2913 60.6771 25.3154 62.3363 25.3154C64.04 25.3154 64.7133 26.1524 64.7133 27.6169V28.4439H63.1584V27.5623C63.1584 26.9795 62.8893 26.6943 62.3511 26.6943C61.8737 26.6943 61.5439 26.9634 61.5439 27.5313V27.7409C61.5439 28.3088 61.8576 28.6374 62.3511 29.1148L63.4423 30.1911C64.3686 31.1335 64.8175 31.7014 64.8175 32.8224V33.3184C64.8175 34.7084 64.0735 35.6955 62.3375 35.6955C60.6015 35.6955 59.9307 34.7171 59.9307 33.3878Z" fill="white"/>
<path d="M65.4448 25.4358H69.9733V26.832H68.5721V35.5753H66.8497V26.832H65.4448V25.4358Z" fill="white"/>
<path d="M72.6198 30.924V35.5716H70.916V25.4358H73.396C75.1147 25.4358 75.7433 26.2877 75.7433 27.7075V29.0082C75.7433 30.0994 75.354 30.7442 74.3793 30.9662L76.0124 35.5691H74.2181L72.6198 30.924ZM72.6198 26.832V29.9854H73.1877C73.7705 29.9854 74.0235 29.6865 74.0235 29.1496V27.648C74.0235 27.0949 73.7754 26.8258 73.1877 26.8258L72.6198 26.832Z" fill="white"/>
<path d="M76.8184 32.9538V28.0521C76.8184 26.4674 77.5958 25.3167 79.3901 25.3167C81.1844 25.3167 81.9755 26.4674 81.9755 28.0521V32.9538C81.9755 34.5236 81.198 35.6892 79.3901 35.6892C77.5822 35.6892 76.8184 34.5199 76.8184 32.9538ZM80.2718 33.2229V27.783C80.2718 27.1705 80.0027 26.7364 79.3901 26.7364C78.7776 26.7364 78.5221 27.1705 78.5221 27.783V33.2229C78.5221 33.8355 78.79 34.2695 79.3901 34.2695C79.9903 34.2695 80.2718 33.8355 80.2718 33.2229Z" fill="white"/>
<path d="M84.5309 29.2029V35.5691H83.0962V25.4358H84.7702L86.6079 31.2502V25.4358H88.0277V35.5691H86.5397L84.5309 29.2029Z" fill="white"/>
<path d="M91.7194 30.1589H94.1412V35.569H92.9148V34.4629C92.6916 35.2255 92.213 35.6892 91.2867 35.6892C89.8222 35.6892 89.1489 34.5236 89.1489 32.9538V28.0521C89.1489 26.4674 89.9115 25.3167 91.7046 25.3167C93.5881 25.3167 94.1412 26.3632 94.1412 27.8574V28.7539H92.5862V27.7235C92.5862 27.0948 92.3469 26.7315 91.7343 26.7315C91.1218 26.7315 90.8527 27.1655 90.8527 27.7781V33.2179C90.8527 33.8305 91.1069 34.2645 91.6897 34.2645C92.2427 34.2645 92.5267 33.9508 92.5267 33.2923V31.5042H91.7194V30.1589Z" fill="white"/>
<path d="M39.6802 40.4595H41.3839V50.5928H39.6802V40.4595Z" fill="white"/>
<path d="M43.9532 44.2254V50.5928H42.5186V40.4595H44.1926L46.0302 46.2726V40.4595H47.4513V50.5928H45.9558L43.9532 44.2254Z" fill="white"/>
<path d="M48.4844 48.408V47.044H50.0691V48.434C50.0691 49.0019 50.3233 49.3305 50.9061 49.3305C51.4443 49.3305 51.6823 48.9722 51.6823 48.434V48.0459C51.6823 47.4631 51.4443 47.1035 50.921 46.6112L49.9191 45.6093C48.9481 44.6532 48.4993 44.0704 48.4993 42.9036V42.5601C48.4993 41.3052 49.2321 40.3281 50.8912 40.3281C52.595 40.3281 53.2671 41.1651 53.2671 42.6296V43.4517H51.7084V42.58C51.7084 41.9972 51.4393 41.712 50.9011 41.712C50.4225 41.712 50.0939 41.981 50.0939 42.549V42.7585C50.0939 43.3264 50.4076 43.655 50.9011 44.1337L51.9923 45.21C52.9186 46.1512 53.3663 46.7191 53.3663 47.84V48.336C53.3663 49.7261 52.6223 50.7119 50.8863 50.7119C49.1503 50.7119 48.4844 49.741 48.4844 48.408Z" fill="white"/>
<path d="M53.9971 40.4595H58.528V41.8495H57.1206V50.5928H55.402V41.8495H53.9971V40.4595Z" fill="white"/>
<path d="M59.4668 40.4595H61.1706V50.5928H59.4668V40.4595Z" fill="white"/>
<path d="M62.1118 40.4595H66.6403V41.8495H65.2354V50.5928H63.5167V41.8495H62.1118V40.4595Z" fill="white"/>
<path d="M72.5289 40.4595V48.1264C72.5289 49.695 71.8568 50.7118 70.1233 50.7118C68.329 50.7118 67.5825 49.695 67.5825 48.1264V40.4595H69.2863V48.2901C69.2863 48.889 69.5256 49.292 70.1233 49.292C70.721 49.292 70.9603 48.889 70.9603 48.2901V40.4595H72.5289Z" fill="white"/>
<path d="M73.4565 40.4595H77.985V41.8495H76.5801V50.5928H74.8615V41.8495H73.4565V40.4595Z" fill="white"/>
<path d="M78.9263 40.4595H80.63V50.5928H78.9263V40.4595Z" fill="white"/>
<path d="M81.7656 47.9765V43.076C81.7656 41.4913 82.5431 40.3406 84.3361 40.3406C86.1292 40.3406 86.924 41.4901 86.924 43.076V47.9777C86.924 49.5476 86.1465 50.7132 84.3386 50.7132C82.5307 50.7132 81.7656 49.5463 81.7656 47.9765ZM85.2178 48.2456V42.8057C85.2178 42.1931 84.9487 41.7591 84.3361 41.7591C83.7236 41.7591 83.4681 42.1931 83.4681 42.8057V48.2456C83.4681 48.8581 83.7372 49.2921 84.3361 49.2921C84.9351 49.2921 85.2178 48.8581 85.2178 48.2456Z" fill="white"/>
<path d="M89.4772 44.2254V50.5928H88.04V40.4595H89.714L91.553 46.2726V40.4595H92.9752V50.5928H91.4798L89.4772 44.2254Z" fill="white"/>
<path d="M94.0059 48.408V47.044H95.5906V48.434C95.5906 49.0019 95.8448 49.3305 96.4276 49.3305C96.9657 49.3305 97.2051 48.9722 97.2051 48.434V48.0459C97.2051 47.4631 96.9657 47.1035 96.4425 46.6112L95.4405 45.6093C94.4696 44.6532 94.0207 44.0704 94.0207 42.9036V42.5601C94.0207 41.3052 94.7536 40.3281 96.4127 40.3281C98.1165 40.3281 98.7885 41.1651 98.7885 42.6296V43.4517H97.2348V42.58C97.2348 41.9972 96.9657 41.712 96.4276 41.712C95.9489 41.712 95.6203 41.981 95.6203 42.549V42.7585C95.6203 43.3264 95.9341 43.655 96.4276 44.1337L97.5188 45.21C98.4451 46.1512 98.8939 46.7191 98.8939 47.84V48.336C98.8939 49.7261 98.1499 50.7119 96.4139 50.7119C94.6779 50.7119 94.0059 49.741 94.0059 48.408Z" fill="white"/>
</g>
<defs>
<clipPath id="clip0_355_4592">
<rect y="0.171875" width="124" height="124" rx="2" fill="white"/>
</clipPath>
</defs>
</svg>
