<svg xmlns="http://www.w3.org/2000/svg" width="124" height="125" viewBox="0 0 124 125" fill="none">
<g clip-path="url(#clip0_355_4240)">
<path d="M124 0.171875H0V124.172H124V0.171875Z" fill="#E5243B"/>
<path d="M37.0922 14.2073V20.5772H35.6562V10.439H37.329L39.1704 16.257V10.439H40.5915V20.5772H39.096L37.0922 14.2073Z" fill="white"/>
<path d="M44.2827 20.6989C46.0943 20.6989 46.8693 19.532 46.8693 17.961V13.0567C46.8693 11.4695 46.0943 10.3201 44.2827 10.3201C42.4711 10.3201 41.7109 11.4695 41.7109 13.0567V17.961C41.7109 19.532 42.4884 20.6989 44.2827 20.6989ZM43.4147 12.7864C43.4147 12.1664 43.6838 11.7411 44.2827 11.7411C44.8816 11.7411 45.1656 12.1726 45.1656 12.7864V18.23C45.1656 18.85 44.8953 19.2766 44.2827 19.2766C43.6701 19.2766 43.4147 18.8438 43.4147 18.23V12.7864Z" fill="white"/>
<path d="M37.3612 32.1193H38.1821C39.9033 32.1193 40.5307 31.2513 40.5307 29.8315V27.6999C40.5307 26.2789 39.9033 25.4258 38.1821 25.4258H35.6562V35.5653H37.3612V32.1193ZM37.3612 26.8109H37.9887C38.5727 26.8109 38.8257 27.0812 38.8257 27.633V29.9642C38.8257 30.5197 38.5777 30.8037 37.9887 30.8037H37.3612V26.8109Z" fill="white"/>
<path d="M44.1191 35.6781C45.9308 35.6781 46.707 34.5125 46.707 32.9427V28.036C46.707 26.4513 45.9308 25.3005 44.1191 25.3005C42.3075 25.3005 41.5474 26.4513 41.5474 28.036V32.9427C41.5474 34.5125 42.3248 35.6781 44.1191 35.6781ZM43.2511 27.7681C43.2511 27.1481 43.519 26.7216 44.1191 26.7216C44.7193 26.7216 45.0032 27.1543 45.0032 27.7681V33.2105C45.0032 33.8243 44.7329 34.2583 44.1191 34.2583C43.5053 34.2583 43.2511 33.8243 43.2511 33.2105V27.7681Z" fill="white"/>
<path d="M51.0569 35.5589L52.9864 25.4194H51.3855L50.1889 32.4924H50.1728L49.0072 25.4194H47.2725L49.2019 35.5589H51.0569Z" fill="white"/>
<path d="M57.9056 34.1689H55.5434V31.0862H57.2323V29.7111H55.5434V26.8107H57.9056V25.4194H53.8384V35.5589H57.9056V34.1689Z" fill="white"/>
<path d="M60.6556 30.9078L62.2552 35.5591H64.0507L62.4201 30.9525C63.3923 30.7293 63.7841 30.0845 63.7841 28.9933V27.6999C63.7841 26.2789 63.1554 25.4258 61.4356 25.4258H58.9556V35.5653H60.6618L60.6556 30.9078ZM60.6556 26.8158H61.2223C61.8063 26.8158 62.0605 27.0861 62.0605 27.6379V29.1259C62.0605 29.6653 61.8063 29.9629 61.2223 29.9629H60.6556V26.8158Z" fill="white"/>
<path d="M65.9037 35.5589H67.6236V26.8107H69.0298V25.4194H64.4976V26.8107H65.9037V35.5589Z" fill="white"/>
<path d="M71.5837 35.5589H73.2887V31.7013L75.1723 25.4194H73.5429L72.5125 29.2622H72.4976L71.4647 25.4194H69.6865L71.5837 31.7013V35.5589Z" fill="white"/>
<path d="M17.3128 16.4804H17.35V35.6186H21.5524V10.6165H18.1957L14.3257 15.1524V19.5395H14.3629L17.3128 16.4804Z" fill="white"/>
<path d="M95.4961 59.3309C95.4966 58.6526 95.6981 57.9896 96.0753 57.4258C96.4524 56.862 96.9882 56.4226 97.615 56.1632C98.2418 55.9037 98.9314 55.8359 99.5967 55.9683C100.262 56.1007 100.873 56.4273 101.353 56.9068C101.833 57.3864 102.159 57.9974 102.292 58.6627C102.425 59.3279 102.357 60.0176 102.098 60.6444C101.839 61.2713 101.4 61.8073 100.836 62.1846C100.272 62.562 99.6092 62.7638 98.9309 62.7645C98.0201 62.7645 97.1467 62.4028 96.5026 61.7589C95.8585 61.115 95.4964 60.2417 95.4961 59.3309Z" fill="white"/>
<path d="M102.939 64.0875C104.075 64.1924 105.131 64.7182 105.9 65.5618C106.668 66.4054 107.094 67.5058 107.093 68.647V78.1677C107.093 78.5206 106.952 78.859 106.703 79.1085C106.453 79.358 106.115 79.4982 105.762 79.4982C105.409 79.4982 105.071 79.358 104.821 79.1085C104.572 78.859 104.432 78.5206 104.432 78.1677V69.9899C104.432 69.6824 104.344 69.2682 103.783 69.2682C103.395 69.2682 103.314 69.6786 103.301 69.9403V94.4352C103.301 94.9427 103.099 95.4293 102.74 95.7882C102.382 96.147 101.895 96.3486 101.387 96.3486C100.88 96.3486 100.393 96.147 100.035 95.7882C99.6757 95.4293 99.4741 94.9427 99.4741 94.4352V80.3203C99.4741 80.1641 99.4171 79.7598 98.931 79.7598C98.4437 79.7598 98.3841 80.1641 98.3792 80.3203V94.4352C98.3857 94.6904 98.3411 94.9442 98.2479 95.1818C98.1548 95.4194 98.015 95.6359 97.8369 95.8186C97.6587 96.0014 97.4458 96.1466 97.2107 96.2458C96.9755 96.3449 96.7229 96.396 96.4677 96.396C96.2125 96.396 95.9599 96.3449 95.7248 96.2458C95.4896 96.1466 95.2767 96.0014 95.0986 95.8186C94.9204 95.6359 94.7807 95.4194 94.6875 95.1818C94.5944 94.9442 94.5498 94.6904 94.5563 94.4352V69.9403C94.5439 69.6786 94.4595 69.2682 94.0751 69.2682C93.5122 69.2682 93.4266 69.6824 93.4266 69.9899V78.1677C93.4118 78.5103 93.2653 78.834 93.0176 79.0712C92.77 79.3084 92.4403 79.4408 92.0973 79.4408C91.7544 79.4408 91.4247 79.3084 91.1771 79.0712C90.9294 78.834 90.7829 78.5103 90.7681 78.1677V68.647C90.7677 67.5049 91.1942 66.404 91.9639 65.5604C92.7337 64.7168 93.791 64.1914 94.9283 64.0875C95.0104 64.075 95.0932 64.068 95.1763 64.0664H102.672C102.76 64.0678 102.847 64.0748 102.934 64.0875" fill="white"/>
<path d="M75.0821 61.1341C75.0819 60.4912 74.891 59.8629 74.5336 59.3285C74.1762 58.7942 73.6684 58.3778 73.0744 58.1321C72.4803 57.8863 71.8268 57.8223 71.1964 57.948C70.5659 58.0738 69.9869 58.3837 69.5326 58.8385C69.0783 59.2933 68.7691 59.8726 68.6441 60.5032C68.5191 61.1338 68.5839 61.7873 68.8303 62.381C69.0767 62.9748 69.4936 63.4821 70.0284 63.8389C70.5631 64.1957 71.1917 64.3858 71.8346 64.3853C72.6963 64.3847 73.5225 64.0418 74.1315 63.4321C74.7405 62.8224 75.0824 61.9958 75.0821 61.1341Z" fill="white"/>
<path d="M65.2835 68.4959L62.5816 77.2999C62.5816 77.2999 62.1004 78.9119 63.4682 79.3149C64.8359 79.7179 65.2426 78.1443 65.2426 78.1443L67.4213 70.8023C67.4213 70.8023 67.5453 70.2368 67.9644 70.3596C68.3835 70.4824 68.2298 71.085 68.2298 71.085L64.4378 84.849H67.9644V94.7033C67.9763 95.1444 68.16 95.5635 68.4762 95.8713C68.7925 96.1791 69.2163 96.3513 69.6576 96.3513C70.0989 96.3513 70.5228 96.1791 70.839 95.8713C71.1553 95.5635 71.3389 95.1444 71.3508 94.7033V84.8378H72.3131V94.6921C72.325 95.1336 72.5088 95.5529 72.8253 95.861C73.1417 96.169 73.5659 96.3414 74.0076 96.3414C74.4492 96.3414 74.8734 96.169 75.1898 95.861C75.5063 95.5529 75.6901 95.1336 75.702 94.6921V84.8378H79.2273L75.4379 71.0738C75.4379 71.0738 75.2779 70.4799 75.702 70.3559C76.1261 70.2319 76.2451 70.7986 76.2451 70.7986L78.4238 78.1406C78.4238 78.1406 78.838 79.7142 80.197 79.3112C81.556 78.9082 81.0836 77.2999 81.0836 77.2999L78.3816 68.4959C78.3816 68.4959 77.4169 65.9526 75.2816 65.9526H68.3897C66.252 65.9526 65.2897 68.4959 65.2897 68.4959" fill="white"/>
<path d="M55.6129 61.1341C55.6126 60.4913 55.4218 59.863 55.0645 59.3286C54.7071 58.7943 54.1994 58.3779 53.6054 58.1322C53.0115 57.8864 52.358 57.8223 51.7276 57.9479C51.0972 58.0736 50.5182 58.3833 50.0638 58.838C49.6095 59.2927 49.3002 59.872 49.175 60.5025C49.0498 61.133 49.1144 61.7864 49.3607 62.3802C49.6069 62.974 50.0236 63.4814 50.5582 63.8383C51.0928 64.1952 51.7213 64.3856 52.3641 64.3853C53.2259 64.3847 54.0523 64.0418 54.6615 63.4322C55.2707 62.8225 55.6129 61.9959 55.6129 61.1341Z" fill="white"/>
<path d="M45.8129 68.4959L43.1122 77.2999C43.1122 77.2999 42.6286 78.9119 43.9976 79.3149C45.3665 79.7179 45.772 78.1443 45.772 78.1443L47.9507 70.8023C47.9507 70.8023 48.0685 70.2368 48.4938 70.3596C48.9191 70.4824 48.7579 71.085 48.7579 71.085L44.9672 84.849H48.4938V94.7033C48.4938 95.1525 48.6722 95.5833 48.9899 95.901C49.3076 96.2187 49.7384 96.3971 50.1876 96.3971C50.6369 96.3971 51.0677 96.2187 51.3854 95.901C51.703 95.5833 51.8815 95.1525 51.8815 94.7033V84.8378H52.8437V94.6921C52.8556 95.1333 53.0393 95.5523 53.3555 95.8601C53.6718 96.1679 54.0956 96.3401 54.5369 96.3401C54.9782 96.3401 55.4021 96.1679 55.7183 95.8601C56.0346 95.5523 56.2182 95.1333 56.2301 94.6921V84.8378H59.7579L55.9685 71.0738C55.9685 71.0738 55.8073 70.47 56.2301 70.3484C56.653 70.2269 56.7745 70.7911 56.7745 70.7911L58.952 78.1332C58.952 78.1332 59.3661 79.7067 60.7264 79.3037C62.0867 78.9007 61.6117 77.2999 61.6117 77.2999L58.9098 68.4959C58.9098 68.4959 57.9463 65.9526 55.8098 65.9526H48.9191C46.7826 65.9526 45.8129 68.4959 45.8129 68.4959Z" fill="white"/>
<path d="M85.9991 79.3274C86.5342 79.3274 87.0572 79.1688 87.5021 78.8716C87.947 78.5744 88.2938 78.1519 88.4986 77.6577C88.7035 77.1634 88.7572 76.6195 88.653 76.0948C88.5488 75.57 88.2914 75.0879 87.9132 74.7094C87.5351 74.3309 87.0532 74.073 86.5285 73.9683C86.0038 73.8636 85.4599 73.9169 84.9654 74.1213C84.471 74.3257 84.0483 74.6721 83.7507 75.1167C83.4531 75.5613 83.294 76.0842 83.2935 76.6192C83.2928 76.9748 83.3623 77.3271 83.498 77.6558C83.6338 77.9845 83.833 78.2832 84.0843 78.5348C84.3357 78.7863 84.6342 78.9858 84.9628 79.1218C85.2913 79.2579 85.6435 79.3277 85.9991 79.3274Z" fill="white"/>
<path d="M79.5125 87.732C79.3798 88.0482 79.2719 88.724 79.9068 89.0117C80.6508 89.3539 81.0662 88.6397 81.0662 88.6397L82.5369 83.9487C82.5369 83.9487 82.7923 83.635 82.7923 83.9599V95.0021H82.7985C82.8093 95.3631 82.9603 95.7057 83.2194 95.9572C83.4786 96.2087 83.8255 96.3494 84.1867 96.3494C84.5478 96.3494 84.8948 96.2087 85.1539 95.9572C85.4131 95.7057 85.5641 95.3631 85.5749 95.0021V90.6385C85.5749 90.6385 85.4943 90.0185 85.9915 90.0185C86.4887 90.0185 86.4106 90.6385 86.4106 90.6385V94.9971C86.4106 95.3661 86.5572 95.72 86.8181 95.9809C87.079 96.2418 87.4329 96.3884 87.8019 96.3884C88.1709 96.3884 88.5248 96.2418 88.7857 95.9809C89.0466 95.72 89.1932 95.3661 89.1932 94.9971V83.9549C89.1932 83.6301 89.3643 83.8619 89.3643 83.8619L90.5175 87.0735C90.5175 87.0735 91.0135 88.5082 91.1722 88.5715C91.2966 88.6233 91.43 88.65 91.5647 88.6502C91.6995 88.6504 91.8329 88.624 91.9575 88.5725C92.082 88.521 92.1951 88.4454 92.2904 88.3501C92.3857 88.2549 92.4612 88.1417 92.5127 88.0172C92.5818 87.8565 92.608 87.6806 92.5889 87.5068C92.5698 87.3329 92.5059 87.167 92.4035 87.0252L92.4135 87.0153C92.38 86.9111 90.6899 82.767 90.4915 82.1855C89.8814 80.4036 88.7704 80.4197 87.7015 80.3899C86.6326 80.3602 85.9915 80.3899 85.9915 80.3899C85.9915 80.3899 85.3083 80.3627 83.8959 80.4036C82.4836 80.4445 82.0359 81.1711 80.4847 85.1726C80.2627 85.7492 79.5125 87.6129 79.5026 87.7245L79.5125 87.732Z" fill="white"/>
<path d="M23.1461 62.7646C23.8254 62.7653 24.4896 62.5646 25.0547 62.1877C25.6199 61.8109 26.0605 61.2749 26.321 60.6476C26.5814 60.0202 26.65 59.3297 26.5179 58.6634C26.3858 57.9972 26.0591 57.385 25.5791 56.9044C25.099 56.4239 24.4872 56.0965 23.8211 55.9637C23.1549 55.8309 22.4644 55.8987 21.8368 56.1585C21.2091 56.4182 20.6727 56.8583 20.2952 57.4231C19.9178 57.9878 19.7163 58.6518 19.7163 59.331C19.7173 60.2407 20.0788 61.1129 20.7217 61.7565C21.3646 62.4001 22.2365 62.7626 23.1461 62.7646Z" fill="white"/>
<path d="M27.1835 64.0702C27.0926 64.0517 27.0007 64.0388 26.9082 64.0317H19.4062C19.3227 64.0384 19.2398 64.0512 19.1582 64.0702C18.02 64.1783 16.9632 64.7075 16.1948 65.5541C15.4264 66.4007 15.0018 67.5037 15.0042 68.647V78.1677C15.0026 78.408 15.0665 78.6442 15.189 78.8509C15.3116 79.0576 15.4882 79.2269 15.6998 79.3408C15.6802 79.3776 15.6652 79.4168 15.6552 79.4573L12.6048 95.6145C12.5915 95.6794 12.5914 95.7463 12.6044 95.8112C12.6174 95.8762 12.6432 95.9379 12.6804 95.9926C12.7177 96.0474 12.7655 96.0942 12.821 96.1302C12.8766 96.1662 12.9389 96.1907 13.0041 96.2023C13.0347 96.2083 13.0659 96.2112 13.0971 96.211C13.2147 96.2115 13.3288 96.1707 13.4195 96.0957C13.5101 96.0207 13.5716 95.9162 13.5931 95.8005L16.641 79.6433C16.6468 79.5803 16.6405 79.5168 16.6224 79.4561C16.9069 79.3822 17.1586 79.2152 17.3372 78.9817C17.5159 78.7483 17.6113 78.4617 17.6082 78.1677V69.9899C17.6082 69.6824 17.6888 69.2683 18.2493 69.2683C18.6361 69.2683 18.7242 69.6787 18.7242 69.9403V94.4353C18.7242 94.945 18.9267 95.4339 19.2871 95.7944C19.6476 96.1548 20.1364 96.3573 20.6462 96.3573C21.1559 96.3573 21.6448 96.1548 22.0052 95.7944C22.3657 95.4339 22.5682 94.945 22.5682 94.4353V80.3204C22.5669 80.2458 22.5812 80.1718 22.6103 80.1031C22.6394 80.0345 22.6826 79.9727 22.737 79.9217C22.7915 79.8708 22.856 79.8318 22.9265 79.8073C22.9969 79.7829 23.0717 79.7735 23.146 79.7797C23.6333 79.7797 23.6829 80.1641 23.6829 80.3204V94.4353C23.6829 94.945 23.8854 95.4339 24.2459 95.7944C24.6063 96.1548 25.0952 96.3573 25.6049 96.3573C26.1147 96.3573 26.6036 96.1548 26.964 95.7944C27.3244 95.4339 27.5269 94.945 27.5269 94.4353V69.9403C27.5269 69.6787 27.6187 69.2683 28.0019 69.2683C28.5661 69.2683 28.6429 69.6824 28.6429 69.9899V78.1677C28.6429 78.5295 28.7867 78.8764 29.0424 79.1322C29.2983 79.388 29.6452 79.5317 30.0069 79.5317C30.3687 79.5317 30.7156 79.388 30.9714 79.1322C31.2272 78.8764 31.3709 78.5295 31.3709 78.1677V68.647C31.3655 67.5005 30.9338 66.397 30.1599 65.551C29.3859 64.7051 28.325 64.1773 27.1835 64.0702Z" fill="white"/>
<path d="M40.4439 83.7988L42.9549 79.2418C42.9549 79.2418 43.2574 78.5871 43.2574 78.4308C43.254 78.2181 43.1822 78.012 43.0527 77.8432C42.9233 77.6743 42.7429 77.5516 42.5383 77.4931C42.3337 77.4346 42.1158 77.4434 41.9166 77.5182C41.7174 77.5931 41.5476 77.73 41.4321 77.9088H41.421C41.3416 77.977 40.0781 80.2189 39.6614 80.6368C39.2212 81.0819 38.8257 81.0261 38.8257 81.0261H35.5471C35.5471 81.0261 35.1503 81.0819 34.7113 80.6368C34.2897 80.2201 33.0324 77.9745 32.9518 77.9088L32.9431 77.9162C32.8271 77.7407 32.6583 77.6066 32.4611 77.5333C32.2639 77.46 32.0485 77.4512 31.846 77.5084C31.6435 77.5655 31.4645 77.6856 31.3347 77.8512C31.2049 78.0167 31.1311 78.2193 31.124 78.4296C31.1382 78.5773 31.1707 78.7227 31.2207 78.8623L33.9425 83.7988C34.0359 84.004 34.0901 84.2247 34.1025 84.4498V85.4219L32.674 90.6919H34.1V95.0319H34.1186C34.1222 95.3894 34.2667 95.7309 34.5207 95.9824C34.7748 96.2338 35.1178 96.3749 35.4752 96.3749C35.8303 96.3782 36.1722 96.2405 36.4258 95.9919C36.6794 95.7434 36.8241 95.4044 36.828 95.0493V90.8668C36.8084 90.8426 36.7941 90.8145 36.7859 90.7844C36.7778 90.7542 36.7761 90.7228 36.7809 90.6919H37.5869C37.5943 90.7506 37.5892 90.8102 37.572 90.8668V95.0493C37.572 95.4111 37.7157 95.758 37.9715 96.0138C38.2273 96.2696 38.5743 96.4133 38.936 96.4133C39.2978 96.4133 39.6447 96.2696 39.9005 96.0138C40.1563 95.758 40.3 95.4111 40.3 95.0493V90.6919H41.7L40.3 85.3909V84.4498C40.3107 84.2262 40.3594 84.0061 40.4439 83.7988Z" fill="white"/>
<path d="M37.1849 79.3274C37.72 79.3276 38.2431 79.1692 38.6882 78.8722C39.1332 78.5751 39.4802 78.1528 39.6853 77.6586C39.8903 77.1643 39.9442 76.6204 39.8402 76.0955C39.7361 75.5707 39.4788 75.0884 39.1007 74.7098C38.7226 74.3312 38.2407 74.0732 37.716 73.9684C37.1913 73.8636 36.6473 73.9168 36.1527 74.1211C35.6582 74.3255 35.2354 74.6719 34.9378 75.1166C34.6401 75.5612 34.481 76.0841 34.4805 76.6192C34.4798 76.9747 34.5493 77.3269 34.6849 77.6555C34.8206 77.9841 35.0197 78.2828 35.2709 78.5343C35.5221 78.7859 35.8205 78.9854 36.1489 79.1215C36.4773 79.2576 36.8294 79.3275 37.1849 79.3274Z" fill="white"/>
</g>
<defs>
<clipPath id="clip0_355_4240">
<rect y="0.171875" width="124" height="124" rx="2" fill="white"/>
</clipPath>
</defs>
</svg>
