<svg xmlns="http://www.w3.org/2000/svg" width="124" height="125" viewBox="0 0 124 125" fill="none">
<g clip-path="url(#clip0_355_3120)">
<path d="M124 0.168213H0V124.176H124V0.168213Z" fill="#BF8B2E"/>
<path d="M12.3778 16.4631H12.4162V35.6025H16.6198V10.5991H13.2607L9.39062 15.1363V19.5234H9.42658L12.3778 16.4631Z" fill="white"/>
<path d="M19.1259 15.7637V18.7855H22.96V15.6508C22.96 14.1405 23.704 13.6978 24.5831 13.6978C25.3953 13.6978 26.0947 14.0289 26.0947 15.5789V17.6423C26.0947 19.7093 25.9112 20.5191 24.5447 21.9575L22.1887 24.466C19.9034 26.9001 19.0527 28.522 19.0527 30.9933V35.6037H29.9647V32.1726H23.0703V30.9933C23.0703 29.0379 23.7709 28.3013 24.8398 27.158L27.5281 24.3184C29.7043 21.9959 30.1842 20.5191 30.1842 18.0118V15.5789C30.1842 12.0003 28.4482 10.3052 24.6885 10.3052C21.0008 10.3052 19.1209 12.2594 19.1209 15.7612" fill="white"/>
<path d="M96.5404 66.5962C91.4837 62.6022 85.4201 62.1719 83.0479 62.1719C81.7968 62.1719 80.6386 62.2835 79.7905 62.4856L79.4581 62.5625C76.2552 63.3189 70.8947 64.5849 64.6538 72.33L64.4703 72.5569C64.3707 72.6931 64.3161 72.8569 64.314 73.0256C64.3145 73.1697 64.3526 73.3111 64.4244 73.436L64.5657 73.6679C65.5958 75.3915 66.4514 76.8882 67.1325 78.158C67.193 78.2753 67.2807 78.3765 67.3883 78.453C67.496 78.5294 67.6204 78.5789 67.7512 78.5972C67.8819 78.6156 68.0152 78.6023 68.1397 78.5584C68.2642 78.5146 68.3764 78.4414 68.4668 78.3452C68.5102 78.2882 68.5548 78.2274 68.5908 78.1815C73.9749 70.7279 78.1983 69.7359 80.9933 69.075L81.3442 68.9919C81.9079 68.8836 82.4815 68.835 83.0554 68.8468C84.3549 68.8468 88.8722 69.0626 92.3963 71.8451C95.5323 74.3251 97.1219 78.2733 97.1219 83.5941C97.1219 92.5122 92.808 95.9941 89.1859 97.3383C87.7697 97.8608 86.2711 98.1245 84.7616 98.117C82.4639 98.1051 80.1967 97.5891 78.1202 96.6054L77.861 96.4814C74.7474 95.1298 70.0986 92.3113 65.7028 83.485C56.693 65.381 49.124 63.6723 44.1119 62.5377L43.8491 62.4794C43.4647 62.3914 42.3809 62.1892 40.6251 62.1892C37.7235 62.1892 32.141 62.7596 27.3571 66.5788C24.0909 69.1828 20.1948 74.2458 20.1948 83.5668C20.1948 89.2423 21.3641 92.9908 24.3612 96.9328C24.9242 97.7016 30.1458 104.445 40.1712 104.445C41.708 104.44 43.2408 104.289 44.7493 103.996C46.5795 103.646 49.4043 102.741 52.5613 100.427L55.1963 102.805C55.3482 102.933 55.5427 102.999 55.7411 102.99C55.9395 102.981 56.1271 102.897 56.2664 102.756C56.3929 102.622 56.4611 102.444 56.4561 102.26L58.4947 89.7011V89.5548C58.4938 89.4512 58.4713 89.349 58.4286 89.2546C58.3859 89.1602 58.3239 89.0758 58.2467 89.0067C58.1758 88.9411 58.0926 88.8901 58.002 88.8567C57.9113 88.8233 57.815 88.8081 57.7185 88.812L45.4846 92.1799L45.2515 92.2183C45.1013 92.2494 44.9652 92.3281 44.8634 92.4428C44.7956 92.5165 44.7432 92.6029 44.7091 92.6971C44.675 92.7912 44.66 92.8912 44.6648 92.9912C44.6697 93.0912 44.6943 93.1892 44.7373 93.2796C44.7804 93.37 44.8409 93.451 44.9155 93.5178L47.4488 95.8094C46.117 96.6265 44.7853 97.1734 43.4907 97.4214C42.4218 97.6288 41.3357 97.7351 40.2469 97.7388C33.319 97.7388 29.9102 93.1917 29.7701 92.9995L29.7019 92.9053C27.5939 90.1364 26.8821 87.7791 26.8821 83.5631C26.8821 78.2237 28.4445 74.2631 31.5259 71.8079C34.9545 69.0725 39.3665 68.8592 40.6387 68.8592C41.2208 68.8487 41.8024 68.8973 42.3747 69.0043L42.645 69.065C46.6453 69.9715 52.1236 71.2115 59.7198 86.4684C63.7312 94.5284 68.7619 99.791 75.0847 102.569C75.82 102.941 79.7421 104.814 84.7691 104.814C87.0753 104.822 89.3642 104.416 91.5271 103.615C95.2198 102.238 103.813 97.5268 103.813 83.5991C103.809 74.2892 99.8561 69.2151 96.5404 66.5962Z" fill="white"/>
<path d="M41.2721 16.0314V20.6802H39.5684V10.5444H42.0484C43.772 10.5444 44.392 11.3963 44.392 12.8198V14.1206C44.392 15.2118 44.0026 15.8566 43.028 16.0786L44.6573 20.6827H42.8717L41.2721 16.0314ZM41.2721 11.9394V15.089H41.84C42.4241 15.089 42.6783 14.7902 42.6783 14.252V12.764C42.6783 12.211 42.4241 11.9419 41.84 11.9419L41.2721 11.9394Z" fill="white"/>
<path d="M45.3081 10.5444H49.3741V11.9357H47.0181V14.8348H48.7069V16.2112H47.0131V19.2902H49.3691V20.6802H45.3081V10.5444Z" fill="white"/>
<path d="M50.1816 18.4978V17.1338H51.7664V18.5238C51.7664 19.0917 52.0144 19.4216 52.6034 19.4216C53.1415 19.4216 53.3808 19.062 53.3808 18.5238V18.1394C53.3808 17.5566 53.1415 17.197 52.6182 16.7035L51.6176 15.7028C50.6454 14.7455 50.1965 14.1627 50.1965 12.9959V12.6524C50.1965 11.3963 50.9294 10.4204 52.5885 10.4204C54.2935 10.4204 54.9656 11.2574 54.9656 12.7218V13.5452H53.4106V12.6623C53.4106 12.0795 53.1415 11.7943 52.6034 11.7943C52.126 11.7943 51.7961 12.0634 51.7961 12.6313V12.8409C51.7961 13.4088 52.1098 13.7374 52.6034 14.2161L53.6921 15.2998C54.6196 16.2422 55.0685 16.8101 55.0685 17.9311V18.4271C55.0685 19.8171 54.3245 20.8042 52.5885 20.8042C50.8525 20.8042 50.1816 19.8283 50.1816 18.4978Z" fill="white"/>
<path d="M55.9238 10.5444H58.4497C60.1683 10.5444 60.797 11.3963 60.797 12.8174V14.9551C60.797 16.3749 60.1683 17.2417 58.4497 17.2417H57.6276V20.6802H55.9238V10.5444ZM57.6276 11.9357V15.926H58.255C58.8378 15.926 59.092 15.6421 59.092 15.089V12.7578C59.092 12.2048 58.8378 11.9357 58.255 11.9357H57.6276Z" fill="white"/>
<path d="M61.6626 18.0637V13.1607C61.6626 11.576 62.4401 10.4253 64.2331 10.4253C66.0262 10.4253 66.8198 11.576 66.8198 13.1607V18.0637C66.8198 19.6335 66.0423 20.8004 64.2331 20.8004C62.424 20.8004 61.6626 19.6397 61.6626 18.0637ZM65.116 18.3328V12.8917C65.116 12.2791 64.8469 11.8451 64.2331 11.8451C63.6193 11.8451 63.3651 12.2791 63.3651 12.8917V18.3328C63.3651 18.9466 63.6342 19.3793 64.2331 19.3793C64.832 19.3793 65.116 18.9466 65.116 18.3328Z" fill="white"/>
<path d="M69.212 14.3078V20.6765H67.7773V10.5444H69.4513L71.2903 16.36V10.5444H72.7101V20.6802H71.2146L69.212 14.3078Z" fill="white"/>
<path d="M73.5913 18.4978V17.1338H75.176V18.5238C75.176 19.0917 75.424 19.4216 76.013 19.4216C76.5512 19.4216 76.7905 19.062 76.7905 18.5238V18.1394C76.7905 17.5566 76.5512 17.197 76.0279 16.7035L75.026 15.7028C74.0551 14.7455 73.6062 14.1627 73.6062 12.9959V12.6524C73.6062 11.3963 74.339 10.4204 75.9982 10.4204C77.7019 10.4204 78.3752 11.2574 78.3752 12.7218V13.5452H76.8203V12.6623C76.8203 12.0795 76.5512 11.7943 76.013 11.7943C75.5344 11.7943 75.2058 12.0634 75.2058 12.6313V12.8409C75.2058 13.4088 75.5195 13.7374 76.013 14.2161L77.1042 15.2924C78.0318 16.2348 78.4794 16.8027 78.4794 17.9237V18.4197C78.4794 19.8097 77.7354 20.7967 75.9994 20.7967C74.2634 20.7967 73.5913 19.8283 73.5913 18.4978Z" fill="white"/>
<path d="M79.3315 10.5444H81.0365V20.6802H79.3315V10.5444Z" fill="white"/>
<path d="M82.0073 10.5444H84.4749C86.1787 10.5444 86.7466 11.3368 86.7466 12.7764V13.8081C86.7466 14.66 86.4329 15.1982 85.7298 15.4201C86.5817 15.6136 87.0008 16.1815 87.0008 17.109V18.4544C87.0008 19.8891 86.3585 20.6864 84.6535 20.6864H82.0073V10.5444ZM83.7123 14.82H84.31C84.863 14.82 85.1172 14.536 85.1172 13.9978V12.7578C85.1172 12.2048 84.8692 11.9357 84.2951 11.9357H83.7123V14.82ZM83.7123 16.1207V19.2902H84.4563C85.0255 19.2902 85.2946 19.0062 85.2946 18.468V16.9428C85.2946 16.4047 85.0466 16.1207 84.4414 16.1207H83.7123Z" fill="white"/>
<path d="M87.8379 10.5444H89.5416V19.2902H91.5753V20.6802H87.8379V10.5444Z" fill="white"/>
<path d="M92.3379 10.5444H96.4039V11.9357H94.0417V14.8348H95.7281V16.2112H94.0417V19.2902H96.4039V20.6802H92.3379V10.5444Z" fill="white"/>
<path d="M39.5684 32.9463V28.0433C39.5684 26.4586 40.3124 25.3079 42.1091 25.3079C43.9927 25.3079 44.516 26.3544 44.516 27.8486V29.0452H42.9622V27.7147C42.9622 27.086 42.7527 26.7227 42.1389 26.7227C41.5251 26.7227 41.2709 27.1567 41.2709 27.7693V33.2104C41.2709 33.8229 41.5251 34.2569 42.1389 34.2569C42.7527 34.2569 42.9622 33.8688 42.9622 33.2649V31.4062H44.516V33.1558C44.516 34.6054 43.9183 35.6817 42.1091 35.6817C40.3 35.6817 39.5684 34.5198 39.5684 32.9463Z" fill="white"/>
<path d="M45.5923 32.9463V28.0433C45.5923 26.4586 46.3698 25.3079 48.164 25.3079C49.9583 25.3079 50.7507 26.4586 50.7507 28.0433V32.9463C50.7507 34.5161 49.9732 35.6817 48.164 35.6817C46.3549 35.6817 45.5923 34.5198 45.5923 32.9463ZM49.0457 33.2153V27.7742C49.0457 27.1617 48.7766 26.7277 48.164 26.7277C47.5515 26.7277 47.296 27.1617 47.296 27.7742V33.2153C47.296 33.8279 47.5651 34.2619 48.164 34.2619C48.763 34.2619 49.0457 33.8279 49.0457 33.2153Z" fill="white"/>
<path d="M53.3065 29.1941V35.5628H51.8706V25.427H53.5458L55.3848 31.2426V25.427H56.8046V35.5628H55.3042L53.3065 29.1941Z" fill="white"/>
<path d="M57.8359 33.3803V32.0163H59.4207V33.4064C59.4207 33.9743 59.6687 34.3029 60.2577 34.3029C60.7958 34.3029 61.0351 33.9445 61.0351 33.4064V33.017C61.0351 32.4342 60.7958 32.0759 60.2725 31.5823L59.2719 30.5841C58.2997 29.6281 57.8521 29.0453 57.8521 27.8785V27.535C57.8521 26.2789 58.5837 25.303 60.244 25.303C61.9478 25.303 62.6211 26.14 62.6211 27.6044V28.4265H61.0649V27.5449C61.0649 26.9621 60.7958 26.6769 60.2577 26.6769C59.779 26.6769 59.4504 26.946 59.4504 27.5139V27.7235C59.4504 28.2914 59.7641 28.62 60.2577 29.0986L61.3489 30.1749C62.2751 31.1161 62.724 31.684 62.724 32.8062V33.3022C62.724 34.6923 61.98 35.6781 60.244 35.6781C58.508 35.6781 57.8359 34.7109 57.8359 33.3803Z" fill="white"/>
<path d="M68.7181 25.427V33.0964C68.7181 34.6662 68.046 35.6818 66.3113 35.6818C64.517 35.6818 63.7705 34.6662 63.7705 33.0964V25.427H65.4718V33.2601C65.4718 33.859 65.7111 34.262 66.3088 34.262C66.9065 34.262 67.1458 33.859 67.1458 33.2601V25.427H68.7181Z" fill="white"/>
<path d="M74.534 28.9846H74.4894L73.3374 35.5628H72.5401L71.2753 28.9846H71.2443V35.5628H69.8394V25.427H71.8234L72.9294 31.1372H72.9443L73.9363 25.427H76.0902V35.5628H74.534V28.9846Z" fill="white"/>
<path d="M77.21 25.427H79.7321C81.4508 25.427 82.0794 26.2789 82.0794 27.6999V29.8377C82.0794 31.2575 81.4508 32.1242 79.7321 32.1242H78.9137V35.5628H77.21V25.427ZM78.9137 26.817V30.8086H79.5412C80.1252 30.8086 80.3782 30.5246 80.3782 29.9716V27.6392C80.3782 27.0861 80.1302 26.817 79.5412 26.817H78.9137Z" fill="white"/>
<path d="M82.6362 25.427H87.1722V26.817H85.7598V35.5628H84.0412V26.817H82.6362V25.427Z" fill="white"/>
<path d="M87.9731 25.427H89.6769V35.5628H87.9731V25.427Z" fill="white"/>
<path d="M90.6626 32.9463V28.0433C90.6626 26.4586 91.4401 25.3079 93.2344 25.3079C95.0286 25.3079 95.821 26.4586 95.821 28.0433V32.9463C95.821 34.5161 95.0435 35.6817 93.2344 35.6817C91.4252 35.6817 90.6626 34.5198 90.6626 32.9463ZM94.116 33.2153V27.7742C94.116 27.1617 93.8469 26.7277 93.2344 26.7277C92.6218 26.7277 92.3664 27.1617 92.3664 27.7742V33.2153C92.3664 33.8279 92.6354 34.2619 93.2344 34.2619C93.8333 34.2619 94.116 33.8279 94.116 33.2153Z" fill="white"/>
<path d="M98.2426 29.1941V35.5628H96.8066V25.427H98.4806L100.316 31.2426V25.427H101.737V35.5628H100.245L98.2426 29.1941Z" fill="white"/>
<path d="M39.2993 50.4466L41.2126 40.3108H43.152L45.0814 50.4466H43.3355L43.028 48.5927H41.2126L40.92 50.4466H39.2993ZM41.4371 47.2325H42.8011L42.1278 43.1653H42.1129L41.4371 47.2325Z" fill="white"/>
<path d="M47.2662 44.0779V50.4466H45.8315V40.3108H47.5055L49.3445 46.1252V40.3108H50.7655V50.4466H49.2701L47.2662 44.0779Z" fill="white"/>
<path d="M56.8789 43.0314V47.7247C56.8789 49.2797 56.2366 50.4466 54.4125 50.4466H51.7812V40.3108H54.4125C56.2366 40.3108 56.8789 41.464 56.8789 43.0314ZM54.203 49.0553C54.906 49.0553 55.1751 48.6374 55.1751 48.0236V42.7176C55.1751 42.1187 54.906 41.7008 54.203 41.7008H53.485V49.0553H54.203Z" fill="white"/>
<path d="M59.5103 40.3108H62.0361C63.756 40.3108 64.3834 41.1627 64.3834 42.5825V44.7202C64.3834 46.14 63.756 47.008 62.0361 47.008H61.214V50.4466H59.5103V40.3108ZM61.214 41.7008V45.6924H61.8415C62.4255 45.6924 62.6797 45.4084 62.6797 44.8554V42.523C62.6797 41.9699 62.4255 41.7008 61.8415 41.7008H61.214Z" fill="white"/>
<path d="M67.0146 45.7966V50.4466H65.3096V40.3108H67.7896C69.5082 40.3108 70.1356 41.1627 70.1356 42.5825V43.8832C70.1356 44.9744 69.7475 45.6192 68.7716 45.8412L70.401 50.4466H68.6142L67.0146 45.7966ZM67.0146 41.7046V44.8591H67.58C68.1628 44.8591 68.417 44.5603 68.417 44.0209V42.5329C68.417 41.9798 68.169 41.7107 67.58 41.7107L67.0146 41.7046Z" fill="white"/>
<path d="M71.1104 47.8301V42.9259C71.1104 41.3411 71.8878 40.1904 73.6809 40.1904C75.4739 40.1904 76.2675 41.3411 76.2675 42.9259V47.8301C76.2675 49.3999 75.49 50.5655 73.6809 50.5655C71.8717 50.5655 71.1104 49.3999 71.1104 47.8301ZM74.5638 48.0991V42.6568C74.5638 42.0442 74.2947 41.6102 73.6809 41.6102C73.0671 41.6102 72.8129 42.0442 72.8129 42.6568V48.0991C72.8129 48.7117 73.082 49.1457 73.6809 49.1457C74.2798 49.1457 74.5638 48.7117 74.5638 48.0991Z" fill="white"/>
<path d="M82.3818 43.0314V47.7247C82.3818 49.2797 81.7383 50.4466 79.9155 50.4466H77.2842V40.3108H79.9155C81.7383 40.3108 82.3818 41.464 82.3818 43.0314ZM79.7059 49.0553C80.409 49.0553 80.6768 48.6374 80.6768 48.0236V42.7176C80.6768 42.1187 80.409 41.7008 79.7059 41.7008H78.9879V49.0553H79.7059Z" fill="white"/>
<path d="M88.3463 40.3108V47.979C88.3463 49.5488 87.673 50.5656 85.9395 50.5656C84.1452 50.5656 83.3975 49.5488 83.3975 47.979V40.3108H85.1025V48.1439C85.1025 48.7415 85.3418 49.1458 85.9395 49.1458C86.5371 49.1458 86.7765 48.7415 86.7765 48.1439V40.3108H88.3463Z" fill="white"/>
<path d="M89.3633 47.8301V42.9259C89.3633 41.3411 90.1073 40.1904 91.904 40.1904C93.7876 40.1904 94.3109 41.237 94.3109 42.7324V43.9278H92.7522V42.5973C92.7522 41.9698 92.5439 41.6053 91.9301 41.6053C91.3163 41.6053 91.0621 42.0393 91.0621 42.6518V48.0942C91.0621 48.7067 91.3163 49.1407 91.9301 49.1407C92.5439 49.1407 92.7522 48.7514 92.7522 48.1487V46.29H94.3072V48.0359C94.3072 49.4855 93.7095 50.5618 91.9003 50.5618C90.0912 50.5618 89.3633 49.3999 89.3633 47.8301Z" fill="white"/>
<path d="M95.0884 40.3108H99.6181V41.7008H98.2082V50.4466H96.4933V41.7008H95.0884V40.3108Z" fill="white"/>
<path d="M100.425 40.3108H102.129V50.4466H100.425V40.3108Z" fill="white"/>
<path d="M103.116 47.8301V42.9259C103.116 41.3411 103.892 40.1904 105.686 40.1904C107.481 40.1904 108.273 41.3411 108.273 42.9259V47.8301C108.273 49.3999 107.495 50.5655 105.686 50.5655C103.877 50.5655 103.116 49.3999 103.116 47.8301ZM106.568 48.0991V42.6568C106.568 42.0442 106.299 41.6102 105.686 41.6102C105.074 41.6102 104.818 42.0442 104.818 42.6568V48.0991C104.818 48.7117 105.087 49.1457 105.686 49.1457C106.285 49.1457 106.568 48.7117 106.568 48.0991Z" fill="white"/>
<path d="M110.695 44.0779V50.4466H109.259V40.3108H110.934L112.773 46.1252V40.3108H114.193V50.4466H112.697L110.695 44.0779Z" fill="white"/>
</g>
<defs>
<clipPath id="clip0_355_3120">
<rect y="0.171875" width="124" height="124" rx="2" fill="white"/>
</clipPath>
</defs>
</svg>
