<svg fill="#333" xmlns="http://www.w3.org/2000/svg" viewBox="0 0 64 64"><path d="M21 14c0-3.859-3.14-7-7-7s-7 3.141-7 7 3.14 7 7 7 7-3.141 7-7zm-7 5c-2.757 0-5-2.243-5-5s2.243-5 5-5 5 2.243 5 5-2.243 5-5 5zM53 8h-6v4h-4v2h-2v-4h-6v14h18V8zM39 22h-2V12h2v10zm2-6h2v6h-2v-6zm4 6v-8h2v8h-2zm6 0h-2V10h2v12zM56.133 39.867c-1.702-1.702-4.969-.714-8.133 1.417-3.164-2.13-6.432-3.118-8.133-1.417-1.701 1.701-.713 4.968 1.417 8.133-2.13 3.165-3.118 6.432-1.417 8.133.6.6 1.394.866 2.31.866 1.682 0 3.774-.902 5.823-2.281 2.049 1.379 4.141 2.281 5.823 2.281.916 0 1.71-.267 2.31-.866 1.701-1.701.713-4.968-1.417-8.133 2.13-3.165 3.117-6.432 1.417-8.133zm-14.852 1.414c.188-.188.502-.285.918-.285.938 0 2.402.511 4.093 1.556a26.184 26.184 0 00-1.97 1.77 25.929 25.929 0 00-1.775 1.976c-1.513-2.446-1.879-4.403-1.266-5.017zM48 43.738a24.198 24.198 0 012.263 1.998A24.346 24.346 0 0152.269 48a24.346 24.346 0 01-2.006 2.264A24.322 24.322 0 0148 52.269a24.469 24.469 0 01-2.263-2.005A24.346 24.346 0 0143.731 48a24.346 24.346 0 012.006-2.264A24.198 24.198 0 0148 43.738zm-6.719 10.981c-.613-.613-.248-2.571 1.266-5.017.556.684 1.15 1.351 1.775 1.976a25.91 25.91 0 001.979 1.772c-2.447 1.515-4.406 1.881-5.02 1.269zm13.438 0c-.613.616-2.573.248-5.022-1.269a25.947 25.947 0 001.98-1.772 25.929 25.929 0 001.775-1.976c1.514 2.446 1.88 4.403 1.267 5.017zm-1.266-8.421a25.929 25.929 0 00-1.775-1.976 25.777 25.777 0 00-1.97-1.77c1.692-1.045 3.155-1.556 4.093-1.556.416 0 .73.098.918.285.613.614.247 2.571-1.266 5.017z"/><circle cx="48" cy="48" r="1"/><path d="M48 33c-1.064 0-2.102.115-3.104.327a15.95 15.95 0 00-.436-2.35C52.517 30.731 59 24.116 59 16c0-8.271-6.729-15-15-15S29 7.729 29 16c0 1.03.105 2.036.304 3.009C29.203 19.007 29.1 19 29 19c-1.281 0-2.522.168-3.717.454l-.676-1.075L27 17.781v-7.562l-2.416-.603 1.281-2.136-5.347-5.346-2.134 1.281L17.781 1h-7.562l-.603 2.416-2.135-1.281L2.134 7.48l1.281 2.136L1 10.219v7.562l2.416.603-1.282 2.136 5.347 5.346 2.134-1.281.604 2.415h4.946A15.883 15.883 0 0013 35c0 3.025.859 5.846 2.324 8.261L13 45.586l-1-1-9.464 9.464A5.204 5.204 0 001 57.758 5.249 5.249 0 006.243 63a5.212 5.212 0 003.707-1.535L19.414 52l-1-1 2.324-2.324A15.877 15.877 0 0029 51a15.8 15.8 0 004.213-.583C34.375 57.54 40.554 63 48 63c8.271 0 15-6.729 15-15s-6.729-15-15-15zM33.596 43.854A9.975 9.975 0 0129 45c-5.514 0-10-4.486-10-10s4.486-10 10-10c1.214 0 2.404.228 3.544.662a15.067 15.067 0 004.708 3.716A9.917 9.917 0 0139 35c0 .335-.03.696-.076 1.085a15.019 15.019 0 00-5.328 7.769zm7.394-9.106a11.872 11.872 0 00-.881-4.278c.73.196 1.476.35 2.245.435.303.984.496 1.986.577 2.995-.668.241-1.32.518-1.941.848zM44 3c7.168 0 13 5.832 13 13s-5.832 13-13 13-13-5.832-13-13S36.832 3 44 3zM11.781 25l-.487-1.949-.203-.535-1.142-.464-2.158 1.296-3.138-3.139 1.296-2.159-.5-1.22L3 16.219v-4.438l2.446-.611.503-1.22-1.296-2.159 3.138-3.139 2.158 1.296 1.22-.496L11.781 3h4.438l.487 1.949.203.535 1.142.464 2.158-1.296 3.138 3.139-1.296 2.159.503 1.22 2.446.611v4.438l-1.949.487-.534.205-.472 1.15 1.26 2.004A16.074 16.074 0 0016.53 25h-4.749zM8.536 60.05a3.223 3.223 0 01-2.293.95A3.246 3.246 0 013 57.758c0-.867.337-1.681.95-2.293L12 47.414 16.586 52l-8.05 8.05zM17 49.586L14.414 47l2.066-2.066a16.055 16.055 0 002.586 2.586L17 49.586zM29 49c-7.72 0-14-6.28-14-14s6.28-14 14-14c.286 0 .594.03.893.05.261.726.56 1.433.925 2.103A11.85 11.85 0 0029 23c-6.617 0-12 5.383-12 12s5.383 12 12 12c1.406 0 2.795-.271 4.112-.754-.068.576-.112 1.16-.112 1.754 0 .13.016.255.019.384A13.825 13.825 0 0129 49zm19 12c-7.168 0-13-5.832-13-13s5.832-13 13-13 13 5.832 13 13-5.832 13-13 13z"/><path d="M25 34h2v2h-2zM21 34h2v2h-2zM33 34h2v2h-2zM29 34h2v2h-2zM10.878 51.707l1.414-1.414 1.415 1.414-1.415 1.414zM5.293 57.293l1.343-1.343 1.414 1.414-1.343 1.343zM8.05 54.535l1.414-1.414 1.414 1.414-1.414 1.414z"/></svg>
