<svg xmlns="http://www.w3.org/2000/svg" viewBox="0 0 512 512"><path d="M468.398 55.092L336.746 18.844c-.26-.071-.533.027-.796-.018-.424-.074-.806-.261-1.249-.264-.284.035-.523.163-.8.218-.347.032-.684-.103-1.031-.023L183.065 52.365 49.991 16.915c-2.396-.614-4.918-.127-6.885 1.363a7.973 7.973 0 00-3.146 6.272l-2.22 222.43a7.972 7.972 0 005.873 7.772l134.953 36.911c.246.068.503-.024.754.019.431.078.819.267 1.272.273h.078c.374 0 .696-.162 1.057-.212.229-.03.46.066.687.017l25.358-5.694c1.971 13.173 6.048 25.909 12.3 37.734l-18.331 14.708-.297-.371a7.982 7.982 0 00-5.347-2.941c-2.104-.273-4.217.39-5.873 1.695l-21.914 17.578c-2.696-1.329-6.027-1.126-8.53.887L57.052 438.098a7.959 7.959 0 00-2.922 5.356 7.976 7.976 0 001.714 5.863l34.681 43.046a8 8 0 006.223 2.98 7.96 7.96 0 004.996-1.772l102.727-82.742a7.959 7.959 0 002.922-5.356c.084-.757-.066-1.495-.196-2.233l22.041-17.674c3.438-2.766 3.993-7.791 1.237-11.219l-.649-.81 18.399-14.744c22.043 18.869 49.691 28.759 77.633 28.759 26.217 0 52.591-8.551 74.581-26.178 23.57-18.903 37.946-45.003 42.754-72.657l18.718 5.146a7.96 7.96 0 002.123.292 8.036 8.036 0 004.811-1.617 8.07 8.07 0 003.175-6.291l2.24-223.383a8.004 8.004 0 00-5.862-7.772zM55.815 34.981l119.046 31.714-2.065 206.849L53.75 240.98l2.065-205.999zm132.931 238.996l2.066-207.005 135.724-30.445-1.132 112.332c-27.063.011-52.978 9.068-74.341 26.208-24.893 19.945-40.514 48.393-44.001 80.093-.547 4.974-.676 9.92-.611 14.845l-17.705 3.972zm-90.8 202.161l-24.669-30.619 90.3-72.731 15.125 18.772 9.514 11.872-90.27 72.706zm100.091-86.013l-7.607-9.443-11.465-14.302 15.018-12.037.284.354c.004.005.005.011.009.016l10.462 13.045 8.295 10.348-14.996 12.019zm13.678-39.177l16.887-13.549c1.317 1.846 2.565 3.728 3.995 5.51 1.312 1.636 2.782 3.067 4.162 4.615l-16.92 13.558-8.124-10.134zm178.751-2.04c-44.507 35.742-109.758 28.516-145.423-15.972-17.287-21.562-25.146-48.559-22.117-76.032 3.019-27.464 16.556-52.104 38.109-69.39 18.543-14.862 41.099-22.75 64.511-22.75 3.818 0 7.655.205 11.511.633 27.464 3.019 52.104 16.556 69.381 38.109 35.684 44.506 28.516 109.738-15.972 145.402zm65.7-73.179l-11.256-3.096c1.046-27.683-7.359-55.841-26.006-79.101-19.421-24.215-46.886-39.56-77.538-43.593l1.138-112.958L458.23 68.844l-2.064 206.885z"/><path d="M335.071 183.53c-22.711-2.464-44.877 3.983-62.631 18.212-36.638 29.392-42.55 83.122-13.167 119.76 16.8 20.978 41.576 31.885 66.566 31.885 18.699 0 37.515-6.116 53.194-18.679 17.764-14.238 28.925-34.554 31.399-57.168 2.493-22.624-3.974-44.868-18.212-62.612-14.239-17.763-34.535-28.915-57.149-31.398zm59.505 92.258c-2.026 18.387-11.083 34.885-25.516 46.455-29.782 23.88-73.451 19.069-97.341-10.713-23.88-29.782-19.079-73.451 10.703-97.341 12.407-9.944 27.522-15.222 43.183-15.222 2.571 0 5.142.136 7.713.419 18.387 2.026 34.885 11.083 46.436 25.526 11.589 14.422 16.848 32.498 14.822 50.876z"/><path d="M371.047 265.182c-4.577-.575-8.317 2.678-8.804 7.061-1.071 9.739-5.882 18.485-13.518 24.62-7.596 6.077-17.063 8.785-26.763 7.889-4.266-.487-8.298 2.727-8.746 7.109-.467 4.383 2.727 8.298 7.109 8.746a52.19 52.19 0 005.512.292c11.921 0 23.413-4.012 32.879-11.589 10.966-8.804 17.861-21.367 19.381-35.333a7.96 7.96 0 00-7.05-8.795z"/></svg>