<svg viewBox="0 0 100 100" xmlns="http://www.w3.org/2000/svg"><path fill-rule="evenodd" clip-rule="evenodd" d="M91.117 12.734a9.32 9.32 0 0 0-11.702 10.899l-9.814 8.903a9.3 9.3 0 0 0-14.468-.174L44.92 27.457a9.311 9.311 0 0 0-18.576-.858l-7.638 3.005a9.39 9.39 0 1 0 1.86 3.89l6.368-2.483a9.31 9.31 0 0 0 17.035.78l9.25 4.415a9.322 9.322 0 0 0 8.678 11.448 9.32 9.32 0 0 0 9.56-11l9.954-9.011a9.31 9.31 0 0 0 16.438-5.994l-1.15.001 1.15-.005a9.32 9.32 0 0 0-6.733-8.91zm-4.498 4.278a5.02 5.02 0 1 1 3.842 9.277 5.02 5.02 0 0 1-3.842-9.277zM34.64 22.767a5.02 5.02 0 0 1 5.999 4.918 5.02 5.02 0 0 1-5.012 4.975l-.707.001a5.02 5.02 0 0 1-.28-9.895zm-24.16 7.79a5.02 5.02 0 0 1 5.999 4.918 5.02 5.02 0 0 1-5.012 4.975l-.707.001a5.02 5.02 0 0 1-.28-9.895zm50.84 2.83a5.02 5.02 0 1 1 1.959 9.847 5.02 5.02 0 0 1-1.96-9.848z"/><path d="M32.22 40.68h-4.3v49.99h4.3V40.68zm56.86 2.53h-4.3v47.46h4.3V43.21zm-75.82 8.85h-4.3v38.61h4.3V52.06zm37.91.18h-4.3v38.43h4.3V52.24zm18.96 10.72h-4.3v27.7h4.3v-27.7z"/></svg>