<svg xmlns="http://www.w3.org/2000/svg" viewBox="0 0 100 100"><path d="M87.858 22.506h-25.18V11.814A6.822 6.822 0 0055.864 5H12.142a6.822 6.822 0 00-6.814 6.814v32.774a2.218 2.218 0 003.401 1.876l7.624-4.83h27.989v10.692a6.822 6.822 0 006.814 6.814l32.417-.023 7.7 4.853a2.217 2.217 0 003.4-1.876V29.32a6.822 6.822 0 00-6.815-6.814zM44.341 29.32v9.305H16.352c-.542 0-1.07.153-1.528.442l-6.488 4.089V11.814a3.81 3.81 0 013.806-3.806h43.722a3.81 3.81 0 013.806 3.806v10.692h-8.515a6.822 6.822 0 00-6.814 6.814zm15.329-3.806v9.305a3.81 3.81 0 01-3.806 3.806h-8.515V29.32a3.81 3.81 0 013.806-3.806h8.515zm31.994 35.148l-6.488-4.088a2.862 2.862 0 00-1.529-.442H51.155a3.81 3.81 0 01-3.806-3.806V41.634h8.515a6.822 6.822 0 006.814-6.814v-9.305h25.18a3.81 3.81 0 013.806 3.806v31.341zM29.946 79.321c5.068 0 9.191-4.123 9.191-9.192 0-5.068-4.123-9.192-9.191-9.192s-9.191 4.123-9.191 9.192 4.123 9.192 9.191 9.192zm0-15.375c3.41 0 6.183 2.774 6.183 6.184s-2.774 6.184-6.183 6.184-6.183-2.774-6.183-6.184 2.773-6.184 6.183-6.184zM18.973 85.781a2.166 2.166 0 012.041-1.446h18.178c.924 0 1.747.588 2.047 1.462L44.394 95h2.85c.1-.302.112-.635.001-.959l-3.161-9.219a5.172 5.172 0 00-4.892-3.495H21.014a5.178 5.178 0 00-4.879 3.458l-3.484 9.914c-.035.1-.058.2-.072.301h3.154l3.24-9.219z"/><path d="M23.035 89.415a1.506 1.506 0 00-1.88.995l-1.337 4.345a1.53 1.53 0 00-.049.246h3.121l1.14-3.705a1.505 1.505 0 00-.995-1.881zm15.702.995a1.503 1.503 0 10-2.875.885L37.002 95h3.121a1.53 1.53 0 00-.049-.246l-1.337-4.344zm31.317-11.089c5.068 0 9.191-4.123 9.191-9.192 0-5.068-4.123-9.192-9.191-9.192-5.068 0-9.191 4.123-9.191 9.192s4.123 9.192 9.191 9.192zm0-15.375c3.41 0 6.183 2.774 6.183 6.184s-2.774 6.184-6.183 6.184c-3.41 0-6.183-2.774-6.183-6.184s2.773-6.184 6.183-6.184zM59.081 85.781a2.166 2.166 0 012.041-1.446H79.3c.924 0 1.747.588 2.047 1.462L84.502 95h2.85c.1-.302.112-.635.001-.959l-3.161-9.219a5.172 5.172 0 00-4.892-3.495H61.122a5.178 5.178 0 00-4.879 3.458l-3.484 9.914c-.035.1-.058.2-.072.301h3.154l3.24-9.219z"/><path d="M63.143 89.415a1.506 1.506 0 00-1.88.995l-1.337 4.345a1.53 1.53 0 00-.049.246h3.121l1.14-3.705a1.505 1.505 0 00-.995-1.881zm15.702.995a1.505 1.505 0 00-2.875.885L77.11 95h3.121a1.53 1.53 0 00-.049-.246l-1.337-4.344z"/></svg>