<svg viewBox="0 0 100 100" xmlns="http://www.w3.org/2000/svg"><path d="M89.61 42.188H87.5V28.124c0-7.753-6.31-14.063-14.063-14.063H26.563c-7.754 0-14.063 6.31-14.063 14.063v14.063h-2.11L1.561 49.25v36.688h96.876V49.25l-8.827-7.063zm2.81 6.25H73.205l3.906-3.126h11.403l3.906 3.126zm-68.983-6.25h-1.562V28.124a4.693 4.693 0 0 1 4.688-4.688h46.874a4.693 4.693 0 0 1 4.688 4.688v14.063h-12.38l1.258-3.144c.063.003.122.019.184.019a4.693 4.693 0 0 0 4.688-4.688 4.693 4.693 0 0 0-4.688-4.688 4.693 4.693 0 0 0-4.687 4.688 4.657 4.657 0 0 0 1.603 3.502l-1.723 4.31h-7.068l2.446-8.964-3.016-.821-2.669 9.785h-6.33l-5.756-16.115L29.3 30.347l3.948 11.84h-9.81zm42.188-7.813c0-.86.702-1.563 1.563-1.563.86 0 1.562.702 1.562 1.563 0 .86-.702 1.563-1.563 1.563-.86 0-1.562-.702-1.562-1.563zM38.627 48.438l-5.429-16.285 4.938-1.975 6.522 18.26h-6.031zm9.35 0l-1.116-3.126h4.36l-.85 3.126h-2.394zm6.484-3.126h6.669l-1.25 3.126h-6.27l.85-3.126zm10.034 0h7.613l-3.906 3.126h-4.957l1.25-3.126zm-48.87-17.187c0-6.031 4.906-10.938 10.938-10.938h46.874c6.032 0 10.938 4.907 10.938 10.938v14.063H81.25V28.124c0-4.308-3.505-7.813-7.813-7.813H26.563c-4.308 0-7.813 3.505-7.813 7.813v14.063h-3.125V28.124zm14.063 54.688h-25V50.75l6.798-5.438H22.89l6.797 5.438v32.063zm-1.796-37.5h6.399l1.042 3.124h-3.535l-3.906-3.124zm4.92 37.5v-31.25h62.5v31.25h-62.5z"/><path d="M35.938 54.688h3.124v3.124h-3.124v-3.124zm6.25 0H56.25v3.124H42.187v-3.124z"/></svg>