<svg viewBox="0 0 100 100" xmlns="http://www.w3.org/2000/svg"><path d="M48.969 26L46 28.32V55h16.625L65 52.245 62.625 49.2H51.937V28.32L48.97 26z"/><path d="M95 54.823L82.097 41.837 69.686 54.331l3.44 3.464 6.837-6.883a29.536 29.536 0 0 1-4.943 16.013c-4.357 6.58-11 11.06-18.704 12.61a28.79 28.79 0 0 1-5.71.567c-10.835 0-21.096-6.073-26.187-15.998l-4.323 2.25C26.031 77.92 37.988 85 50.616 85c2.234 0 4.464-.223 6.655-.664 8.977-1.809 16.72-7.025 21.797-14.692a34.43 34.43 0 0 0 5.747-18.146l6.745 6.786 3.44-3.46zM27.874 44.06l-6.726 6.77c-.158-13.951 9.56-26.523 23.636-29.357 13.044-2.624 26.262 3.914 32.138 15.907l4.366-2.168c-6.853-13.976-22.255-21.6-37.457-18.54-16.26 3.272-27.537 17.692-27.557 33.778L9.44 43.57 6 47.032 18.9 60.02l12.414-12.498-3.44-3.463z"/></svg>