<svg xmlns="http://www.w3.org/2000/svg" width="124" height="125" viewBox="0 0 124 125" fill="none">
<g clip-path="url(#clip0_355_2822)">
<path d="M124 0.171875H0V124.172H124V0.171875Z" fill="#26BDE2"/>
<path d="M18.7623 35.8951C23.2263 35.8951 24.9561 33.4597 24.9561 29.5872V25.8995C24.9561 21.8075 23.3342 19.7416 20.3086 19.7416C18.5391 19.7416 17.4702 20.5551 16.8428 21.7715H16.8068V16.3874C16.8068 14.8734 17.2867 13.8057 18.7982 13.8057C20.3098 13.8057 20.7525 14.6911 20.7525 16.2399V17.9039H24.5878V16.5709C24.5878 12.8832 23.3701 10.3027 18.7238 10.3027C14.2995 10.3027 12.6392 13.1411 12.6392 17.0496V29.2189C12.6392 33.0915 14.3355 35.8951 18.7623 35.8951ZM16.8068 25.3836C16.88 23.9837 17.4702 23.0983 18.7982 23.0983C20.2354 23.0983 20.7884 23.9837 20.7884 25.6068V29.958C20.7884 31.5427 20.2007 32.4653 18.7623 32.4653C17.3586 32.4653 16.8068 31.5067 16.8068 29.958V25.3836Z" fill="white"/>
<path d="M38.0046 20.7223C39.8138 20.7223 40.4102 19.6472 40.4102 18.1952V16.4455H38.8553V18.3154C38.8553 18.9131 38.6482 19.3074 38.0331 19.3074C37.4181 19.3074 37.1651 18.8747 37.1651 18.2609V12.8173C37.1651 12.2047 37.4218 11.7707 38.0331 11.7707C38.6445 11.7707 38.8553 12.1291 38.8553 12.7627V14.0932H40.4102V12.8966C40.4102 11.4024 39.8882 10.3546 38.0046 10.3546C36.2079 10.3398 35.4639 11.4954 35.4639 13.0814V17.9856C35.4639 19.5567 36.2079 20.7223 38.0059 20.7223" fill="white"/>
<path d="M45.2267 19.2133H43.1943V10.4639H41.4868V20.6046H45.2267V19.2133Z" fill="white"/>
<path d="M50.2188 19.2133H47.8566V16.1331H49.5455V14.7555H47.8566V11.8551H50.2188V10.4639H46.1528V20.6046H50.2188V19.2133Z" fill="white"/>
<path d="M52.9258 18.7495H54.7337L55.0487 20.6095H56.7921L54.8664 10.4639H52.9258L51.0112 20.6033H52.6232L52.9258 18.7495ZM53.8223 13.3159H53.8372L54.5105 17.3818H53.1465L53.8223 13.3159Z" fill="white"/>
<path d="M59.0848 14.2335L61.0874 20.6046H62.5816V10.4639H61.1618V16.2819L59.3242 10.4639H57.6489V20.6046H59.0848V14.2335Z" fill="white"/>
<path d="M68.9142 20.6033L69.8715 14.3376H69.8852L70.8871 20.6033H72.5028L73.8172 10.4651H72.3838L71.605 16.8945H71.5902L70.649 10.4651H69.259L68.4071 16.8945H68.3922L67.5986 10.4651H65.9531L67.3159 20.6033H68.9142Z" fill="white"/>
<path d="M75.7526 18.7495H77.563L77.8755 20.6095H79.6252L77.6957 10.4639H75.7526L73.8418 20.6033H75.4538L75.7526 18.7495ZM76.6516 13.3159H76.6653L77.3386 17.3818H75.9746L76.6516 13.3159Z" fill="white"/>
<path d="M80.817 20.6033H82.5369V11.8551H83.9418V10.4639H79.4121V11.8551H80.817V20.6033Z" fill="white"/>
<path d="M88.8111 19.2133H86.4489V16.1331H88.1378V14.7555H86.4489V11.8551H88.8111V10.4639H84.7451V20.6046H88.8111V19.2133Z" fill="white"/>
<path d="M91.4388 15.9509L93.0372 20.6046H94.8327L93.2021 15.9967C94.1742 15.7748 94.5661 15.1287 94.5661 14.0388V12.738C94.5661 11.317 93.9386 10.4639 92.2188 10.4639H89.7388V20.6046H91.4425L91.4388 15.9509ZM91.4388 11.8589H92.008C92.5883 11.8589 92.8437 12.1279 92.8437 12.6797V14.1715C92.8437 14.7109 92.5883 15.0109 92.008 15.0109H91.4388V11.8589Z" fill="white"/>
<path d="M37.1775 33.699H38.9866L39.3004 35.5528H41.0438L39.1131 25.4146H37.1775L35.2642 35.5528H36.8762L37.1775 33.699ZM38.074 28.2703H38.0914L38.7622 32.3387H37.3982L38.074 28.2703Z" fill="white"/>
<path d="M41.7495 25.4146V35.5553H43.1842V29.1842L45.1868 35.5553H46.6798V25.4146H45.2624V31.2326L43.4235 25.4146H41.7495Z" fill="white"/>
<path d="M47.9287 35.554H50.5575C52.3803 35.554 53.0239 34.3872 53.0239 32.8322V28.1363C53.0239 26.5677 52.3803 25.4158 50.5575 25.4158H47.9287V35.554ZM49.6312 26.8046H50.3442C51.0486 26.8046 51.3152 27.2237 51.3152 27.8226V33.1323C51.3152 33.7436 51.0486 34.1627 50.3442 34.1627H49.6275L49.6312 26.8046Z" fill="white"/>
<path d="M56.8105 32.01V33.374C56.8105 34.7033 57.4851 35.6779 59.2174 35.6779C60.9497 35.6779 61.6974 34.6859 61.6974 33.2984V32.8024C61.6974 31.6864 61.251 31.1122 60.3247 30.1698L59.2323 29.0935C58.7363 28.6161 58.425 28.285 58.425 27.7196V27.5076C58.425 26.9396 58.7536 26.6718 59.2323 26.6718C59.7704 26.6718 60.0395 26.9558 60.0395 27.5398V28.4239H61.5945V27.5993C61.5945 26.1336 60.9224 25.2966 59.2174 25.2966C57.5583 25.2966 56.8267 26.2688 56.8267 27.5286V27.8709C56.8267 29.0377 57.2755 29.6218 58.2465 30.5778L59.2471 31.581C59.7704 32.077 60.0085 32.4328 60.0085 33.0144V33.4038C60.0085 33.9419 59.7704 34.3015 59.2323 34.3015C58.6507 34.3015 58.3965 33.9729 58.3965 33.4038V32.01H56.8105Z" fill="white"/>
<path d="M63.8003 35.554L64.0991 33.694H65.9083L66.222 35.554H67.9704L66.0409 25.4158H64.0991L62.187 35.554H63.8003ZM64.9968 28.2727H65.0117L65.6838 32.3387H64.3198L64.9968 28.2727Z" fill="white"/>
<path d="M72.3218 31.2326L70.4829 25.4158H68.8076V35.5553H70.2448V29.1841L72.2461 35.5553H73.7403V25.4158H72.3218V31.2326Z" fill="white"/>
<path d="M76.8305 25.4146H75.1255V35.554H76.8305V25.4146Z" fill="white"/>
<path d="M80.7263 35.5552V26.8058H82.1325V25.417H77.604V26.8058H79.0077V35.5552H80.7263Z" fill="white"/>
<path d="M85.5983 25.4158H83.6577L81.7432 35.554H83.3552L83.6565 33.7002H85.4632L85.7769 35.554H87.5253L85.5983 25.4158ZM83.8797 32.3387L84.5542 28.2727H84.5679L85.2412 32.3387H83.8797Z" fill="white"/>
<path d="M91.5133 25.4158H86.9849V26.8058H88.391V35.5553H90.1109V26.8058H91.5133V25.4158Z" fill="white"/>
<path d="M94.1481 25.4146H92.4443V35.554H94.1481V25.4146Z" fill="white"/>
<path d="M97.825 35.6754C99.6341 35.6754 100.409 34.5086 100.409 32.9375V28.0321C100.409 26.4461 99.6341 25.2954 97.825 25.2954C96.0158 25.2954 95.252 26.4461 95.252 28.0321V32.9375C95.252 34.5086 96.0319 35.6754 97.825 35.6754ZM96.957 27.763C96.957 27.1504 97.2248 26.7165 97.825 26.7165C98.4251 26.7165 98.7066 27.1504 98.7066 27.763V33.2066C98.7066 33.8192 98.4375 34.2532 97.825 34.2532C97.2124 34.2532 96.957 33.8192 96.957 33.2066V27.763Z" fill="white"/>
<path d="M106.45 35.5552V25.417H105.03V31.2326L103.191 25.417H101.516V35.5552H102.952V29.1829L104.955 35.5552H106.45Z" fill="white"/>
<path d="M84.8967 50.3124C84.8452 50.2559 84.7824 50.2109 84.7123 50.1804C84.6422 50.1498 84.5664 50.1344 84.49 50.1351H39.5028C39.4265 50.1323 39.3506 50.1466 39.2806 50.1772C39.2107 50.2078 39.1485 50.2537 39.0988 50.3117C39.0491 50.3696 39.0131 50.438 38.9935 50.5118C38.974 50.5856 38.9713 50.6628 38.9857 50.7378L46.5497 96.4479C46.5704 96.5706 46.6338 96.682 46.7286 96.7625C46.8234 96.843 46.9436 96.8875 47.068 96.8881H56.3445L56.9793 104.328H53.0758L62.1588 113.41L71.2629 104.307H67.3606L67.9881 96.8918H77.4282C77.554 96.8923 77.6757 96.8471 77.7706 96.7645C77.8655 96.6819 77.9272 96.5676 77.944 96.4429L85.012 50.7415C85.0243 50.6659 85.0204 50.5885 85.0005 50.5146C84.9806 50.4406 84.9452 50.3717 84.8967 50.3124ZM67.5094 86.9061C66.7881 87.5654 65.9403 88.0713 65.0176 88.3931C64.0949 88.715 63.1164 88.8461 62.1415 88.7785C61.1656 88.8467 60.186 88.716 59.2621 88.3941C58.3383 88.0722 57.4895 87.566 56.7673 86.9061C53.397 83.5395 54.5998 79.3508 55.7753 77.1857C56.4995 75.8304 61.6777 68.0544 62.1241 67.3897V67.3376L62.1439 67.3624L62.1613 67.3376V67.3897C62.5953 68.0519 67.7822 75.8217 68.5064 77.1857C69.6782 79.3508 70.8773 83.5395 67.5094 86.9061ZM81.7806 59.9299C80.5617 59.393 79.0154 59.5864 77.5323 60.1866C71.9523 62.4496 68.1505 63.263 62.2803 61.4266C58.5827 60.2684 55.1231 57.8454 51.0348 59.3186C48.3204 60.2944 45.7921 61.2257 42.7268 61.2021L40.9548 52.1179H83.0541L81.7806 59.9299Z" fill="white"/>
</g>
<defs>
<clipPath id="clip0_355_2822">
<rect y="0.171875" width="124" height="124" rx="2" fill="white"/>
</clipPath>
</defs>
</svg>
