<svg xmlns="http://www.w3.org/2000/svg" viewBox="0 0 144 94" fill="#b75400"><path d="M72.01 10c1.39 0 2.84.11 4.49.33l1.96 5.51.8 2.25 2.25.79c.91.32 1.8.69 2.65 1.09l2.14 1.01 2.14-1.02 5.27-2.5c2.37 1.84 4.51 3.97 6.35 6.35l-2.51 5.27-1.02 2.14 1.01 2.14c.4.86.77 1.75 1.09 2.64l.79 2.25 2.25.8 5.51 1.96c.22 1.65.32 3.09.32 4.49 0 1.4-.1 2.84-.32 4.49l-5.51 1.96-2.25.8-.79 2.25c-.32.91-.69 1.8-1.09 2.65l-1.01 2.14 1.02 2.14 2.51 5.27a35.344 35.344 0 0 1-6.35 6.35l-5.27-2.51-2.14-1.02-2.14 1.01c-.85.4-1.74.77-2.65 1.09l-2.25.79-.8 2.25-1.96 5.51c-1.63.23-3.1.33-4.49.33-1.39 0-2.86-.11-4.49-.33l-1.96-5.51-.8-2.25-2.25-.79c-.91-.32-1.8-.69-2.65-1.09l-2.14-1.01-2.14 1.02-5.27 2.5a35.344 35.344 0 0 1-6.35-6.35l2.51-5.27 1.02-2.14-1.01-2.14c-.41-.86-.77-1.76-1.09-2.65l-.79-2.25-2.25-.8L36.83 50c-.22-1.65-.32-3.1-.32-4.49 0-1.4.1-2.84.32-4.49l5.51-1.96 2.24-.8.79-2.24c.32-.92.69-1.81 1.09-2.65l1.01-2.14-1.02-2.14-2.51-5.27c1.85-2.38 3.98-4.51 6.35-6.35l5.27 2.5 2.14 1.02 2.14-1.01c.85-.4 1.73-.76 2.64-1.08l2.25-.79.8-2.25 1.96-5.51c1.68-.24 3.13-.35 4.52-.35m0-5c-1.95 0-3.91.17-6.15.52a3.442 3.442 0 0 0-2.74 2.27l-2.27 6.38c-1.07.38-2.11.8-3.12 1.28l-6.11-2.9a3.467 3.467 0 0 0-3.54.33 40.686 40.686 0 0 0-8.69 8.69 3.467 3.467 0 0 0-.34 3.55l2.9 6.11c-.47 1-.9 2.05-1.28 3.11l-6.38 2.27a3.49 3.49 0 0 0-2.27 2.75c-.35 2.29-.51 4.24-.51 6.15 0 1.91.16 3.86.51 6.15a3.455 3.455 0 0 0 2.27 2.75l6.38 2.27c.38 1.07.81 2.11 1.28 3.12l-2.9 6.11a3.45 3.45 0 0 0 .34 3.54 40.46 40.46 0 0 0 8.69 8.69c.61.45 1.33.67 2.05.67.51 0 1.02-.11 1.49-.34l6.11-2.9c1.01.47 2.05.9 3.12 1.28l2.27 6.38c.43 1.2 1.48 2.07 2.74 2.27 2.24.34 4.25.5 6.15.5 1.89 0 3.91-.17 6.15-.51a3.442 3.442 0 0 0 2.74-2.27l2.27-6.38c1.07-.38 2.11-.8 3.12-1.28l6.11 2.9c.47.23.98.34 1.49.34.73 0 1.45-.23 2.06-.67 3.33-2.45 6.25-5.37 8.69-8.69.76-1.03.89-2.39.34-3.54l-2.9-6.11c.47-1.01.9-2.05 1.28-3.12l6.38-2.27c1.2-.43 2.08-1.48 2.27-2.75.35-2.29.51-4.24.51-6.15 0-1.91-.16-3.86-.51-6.15a3.455 3.455 0 0 0-2.27-2.75l-6.38-2.27c-.38-1.07-.81-2.11-1.28-3.11l2.9-6.11a3.47 3.47 0 0 0-.34-3.55 40.686 40.686 0 0 0-8.69-8.69c-.61-.45-1.33-.67-2.05-.67-.51 0-1.02.11-1.49.34l-6.11 2.9c-1.01-.47-2.05-.9-3.12-1.28L80.9 7.78a3.491 3.491 0 0 0-2.74-2.27c-2.25-.34-4.2-.51-6.15-.51z"/><path d="M72.01 28.62c-8.86 0-16.07 7.21-16.07 16.07s7.21 16.07 16.07 16.07 16.07-7.21 16.07-16.07-7.21-16.07-16.07-16.07zm0 27.38c-6.24 0-11.31-5.08-11.31-11.31s5.08-11.31 11.31-11.31 11.31 5.08 11.31 11.31S78.25 56 72.01 56z"/></svg>
