<svg width="60" height="60" viewBox="0 0 60 60" fill="none" xmlns="http://www.w3.org/2000/svg">
<path d="M1.95 40.8825C1.98281 41.295 2.28187 41.6372 2.68687 41.7244L5.95406 42.4294C6.06938 42.9862 6.21562 43.5356 6.39281 44.0719L3.91969 46.3125C3.61313 46.59 3.525 47.0362 3.70312 47.4103C4.155 48.3609 4.65844 49.2394 5.19937 50.0212C5.43375 50.3606 5.86313 50.5069 6.25781 50.3803L9.43313 49.3575C9.81281 49.7831 10.2169 50.1872 10.6425 50.5669L9.61969 53.7422C9.49312 54.135 9.63844 54.5653 9.97875 54.8006C10.7606 55.3415 11.6391 55.845 12.5897 56.2969C12.9647 56.475 13.41 56.3859 13.6875 56.0803L15.9281 53.6072C16.4653 53.7834 17.0147 53.9306 17.5716 54.0459L18.2766 57.3131C18.3638 57.7172 18.7059 58.0162 19.1175 58.05C19.6163 58.0894 20.1159 58.125 20.625 58.125C21.1341 58.125 21.6337 58.0894 22.1325 58.05C22.545 58.0172 22.8872 57.7181 22.9744 57.3131L23.6794 54.0459C24.2362 53.9306 24.7866 53.7844 25.3228 53.6072L27.5634 56.0803C27.8419 56.3869 28.2881 56.4759 28.6613 56.2969C29.6119 55.845 30.4903 55.3406 31.2722 54.8006C31.6125 54.5653 31.7578 54.135 31.6313 53.7422L30.6084 50.5669C31.0341 50.1872 31.4381 49.7831 31.8178 49.3584L34.9931 50.3812C35.3859 50.5087 35.8162 50.3625 36.0516 50.0222C36.5925 49.2403 37.0959 48.3619 37.5478 47.4112C37.7259 47.0372 37.6378 46.5909 37.3312 46.3134L34.8581 44.0728C35.0344 43.5356 35.1816 42.9862 35.2969 42.4294L38.5641 41.7244C38.9681 41.6372 39.2672 41.295 39.3009 40.8834C39.3394 40.3837 39.375 39.8841 39.375 39.375C39.375 38.8659 39.3394 38.3662 39.3 37.8675C39.2672 37.455 38.9681 37.1128 38.5631 37.0256L35.2959 36.3206C35.1806 35.7637 35.0344 35.2134 34.8572 34.6772L37.3303 32.4365C37.6369 32.159 37.725 31.7128 37.5469 31.3387C37.095 30.3881 36.5906 29.5097 36.0506 28.7278C35.8153 28.3875 35.385 28.2412 34.9922 28.3687L31.8169 29.3915C31.4372 28.9659 31.0331 28.5619 30.6075 28.1822L31.6303 25.0069C31.7569 24.614 31.6116 24.1837 31.2712 23.9484C30.4894 23.4075 29.6109 22.904 28.6603 22.4522C28.2853 22.2731 27.84 22.3622 27.5625 22.6687L25.3219 25.1419C24.7847 24.9656 24.2353 24.8184 23.6784 24.7031L22.9734 21.4359C22.8862 21.0319 22.5441 20.7328 22.1325 20.699C21.1341 20.6184 20.115 20.6203 19.1166 20.699C18.7041 20.7319 18.3619 21.0309 18.2747 21.4359L17.5697 24.7031C17.0128 24.8184 16.4634 24.9647 15.9272 25.1419L13.6866 22.6687C13.4091 22.3622 12.9638 22.274 12.5888 22.4522C11.6381 22.904 10.7597 23.4075 9.97781 23.9484C9.6375 24.1837 9.49219 24.614 9.61875 25.0069L10.6416 28.1822C10.2159 28.5619 9.81187 28.9659 9.43219 29.3915L6.25781 28.3687C5.86406 28.2412 5.43375 28.3875 5.19937 28.7278C4.65844 29.5097 4.155 30.3881 3.70312 31.3387C3.525 31.7128 3.61313 32.159 3.91969 32.4365L6.39281 34.6772C6.21656 35.2144 6.06938 35.7637 5.95406 36.3206L2.68687 37.0256C2.28281 37.1128 1.98375 37.455 1.95 37.8665C1.91062 38.3662 1.875 38.8659 1.875 39.375C1.875 39.8841 1.91062 40.3837 1.95 40.8825ZM3.76969 38.7103L6.95906 38.0212C7.33594 37.9397 7.62469 37.6359 7.68656 37.2553C7.82719 36.3909 8.05406 35.5425 8.36063 34.7325C8.4975 34.3725 8.39906 33.9647 8.11313 33.7059L5.70469 31.5234C5.91469 31.1212 6.13406 30.7359 6.36094 30.3712L9.45094 31.3669C9.81656 31.484 10.2197 31.3669 10.4644 31.0687C11.0175 30.3919 11.6419 29.7684 12.3188 29.2144C12.6169 28.9706 12.7359 28.5684 12.6169 28.2009L11.6213 25.1109C11.9859 24.8831 12.3703 24.6637 12.7734 24.4547L14.9559 26.864C15.2156 27.15 15.6244 27.2484 15.9834 27.1115C16.7916 26.805 17.64 26.5781 18.5053 26.4375C18.8859 26.3756 19.1897 26.0869 19.2712 25.71L19.9594 22.5206C20.4009 22.4972 20.85 22.4962 21.2897 22.5206L21.9788 25.71C22.0603 26.0869 22.3641 26.3756 22.7447 26.4375C23.6091 26.5781 24.4575 26.805 25.2675 27.1115C25.6256 27.2484 26.0344 27.1509 26.2941 26.864L28.4766 24.4556C28.8787 24.6656 29.2641 24.885 29.6287 25.1119L28.6331 28.2019C28.515 28.5694 28.6331 28.9706 28.9313 29.2153C29.6081 29.7684 30.2316 30.3928 30.7856 31.0697C31.0303 31.3687 31.4325 31.4878 31.7991 31.3678L34.8891 30.3722C35.1169 30.7369 35.3363 31.1212 35.5453 31.5234L33.1359 33.7059C32.85 33.9647 32.7516 34.3725 32.8884 34.7334C33.195 35.5415 33.4219 36.39 33.5625 37.2553C33.6244 37.6359 33.9131 37.9397 34.29 38.0212L37.4794 38.7094C37.4916 38.9297 37.5 39.1519 37.5 39.375C37.5 39.5981 37.4925 39.8203 37.4803 40.0397L34.2909 40.7287C33.9141 40.8103 33.6253 41.1141 33.5634 41.4947C33.4228 42.3591 33.1959 43.2075 32.8894 44.0175C32.7525 44.3775 32.8509 44.7853 33.1369 45.0441L35.5453 47.2266C35.3353 47.6287 35.1159 48.014 34.8891 48.3787L31.7991 47.3831C31.4306 47.2631 31.0303 47.3822 30.7856 47.6812C30.2334 48.3562 29.6091 48.9806 28.9313 49.5356C28.6331 49.7794 28.515 50.1815 28.6331 50.5481L29.6287 53.6381C29.2641 53.8659 28.8797 54.0853 28.4775 54.2944L26.295 51.885C26.0363 51.5991 25.6284 51.5025 25.2675 51.6375C24.4594 51.9441 23.6109 52.1709 22.7456 52.3116C22.365 52.3734 22.0612 52.6622 21.9797 53.0391L21.2916 56.2284C20.85 56.2519 20.4009 56.2528 19.9613 56.2284L19.2722 53.0391C19.1906 52.6622 18.8869 52.3734 18.5063 52.3116C17.6419 52.1709 16.7934 51.9441 15.9834 51.6375C15.6244 51.5006 15.2156 51.5981 14.9569 51.885L12.7744 54.2934C12.3722 54.0834 11.9869 53.8641 11.6222 53.6372L12.6178 50.5472C12.7359 50.1797 12.6178 49.7784 12.3197 49.5337C11.6428 48.9806 11.0194 48.3562 10.4653 47.6794C10.2206 47.3803 9.8175 47.2622 9.45187 47.3812L6.36187 48.3769C6.13406 48.0122 5.91469 47.6278 5.70563 47.2247L8.115 45.0422C8.40094 44.7834 8.49937 44.3756 8.3625 44.0147C8.05594 43.2066 7.82906 42.3581 7.68844 41.4928C7.62656 41.1122 7.33781 40.8084 6.96094 40.7269L3.76969 40.0406C3.75844 39.8203 3.75 39.5981 3.75 39.375C3.75 39.1519 3.7575 38.9297 3.76969 38.7103Z" fill="#B75400"/>
<path d="M50.8303 15.2203C51.1828 15.1097 51.4378 14.8013 51.48 14.4338C51.5362 13.9603 51.5625 13.5319 51.5625 13.125C51.5625 12.7181 51.5362 12.2897 51.4809 11.8163C51.4387 11.4488 51.1838 11.1403 50.8313 11.0297L48.2316 10.2131C48.1537 10.0003 48.0675 9.79127 47.9728 9.58689L49.2328 7.17283C49.4034 6.84564 49.3659 6.44814 49.1372 6.15752C48.5944 5.47127 47.97 4.84689 47.2819 4.30221C46.9912 4.07252 46.5938 4.03596 46.2666 4.20564L43.8506 5.46564C43.6462 5.37189 43.4372 5.28564 43.2244 5.20783L42.4078 2.60814C42.2972 2.25564 41.9887 2.00064 41.6213 1.95846C40.6725 1.84783 39.9516 1.84783 39.0028 1.95846C38.6353 2.00064 38.3269 2.25564 38.2162 2.60814L37.3997 5.20783C37.1869 5.28564 36.9778 5.37189 36.7734 5.46658L34.3594 4.20658C34.0322 4.03689 33.6356 4.07346 33.3441 4.30221C32.6578 4.84502 32.0334 5.46939 31.4888 6.15752C31.2591 6.44814 31.2216 6.84471 31.3922 7.17283L32.6512 9.58689C32.5575 9.79127 32.4713 10.0003 32.3934 10.2131L29.7938 11.0297C29.4413 11.1403 29.1862 11.4488 29.1441 11.8163C29.0887 12.2897 29.0625 12.7181 29.0625 13.125C29.0625 13.5319 29.0887 13.9603 29.1441 14.4338C29.1862 14.8013 29.4413 15.1097 29.7938 15.2203L32.3934 16.0369C32.4713 16.2497 32.5575 16.4588 32.6522 16.6631L31.3922 19.0772C31.2216 19.4044 31.2591 19.8019 31.4878 20.0925C32.0306 20.7788 32.655 21.4031 33.3431 21.9478C33.6328 22.1775 34.0312 22.2141 34.3584 22.0444L36.7725 20.7853C36.9769 20.8791 37.1859 20.9653 37.3987 21.0431L38.2153 23.6428C38.3259 23.9953 38.6344 24.2503 39.0019 24.2925C39.4772 24.3488 39.9056 24.375 40.3125 24.375C40.7194 24.375 41.1478 24.3488 41.6213 24.2935C41.9887 24.2513 42.2972 23.9963 42.4078 23.6438L43.2244 21.0441C43.4372 20.9663 43.6462 20.88 43.8506 20.7853L46.2647 22.0453C46.5919 22.216 46.9894 22.1794 47.28 21.9497C47.9662 21.4069 48.5906 20.7825 49.1353 20.0944C49.365 19.8038 49.4025 19.4072 49.2319 19.0791L47.9719 16.665C48.0666 16.4606 48.1528 16.2516 48.2306 16.0388L50.8303 15.2203ZM47.2116 14.3916C46.9153 14.4853 46.6847 14.7188 46.5947 15.0169C46.4672 15.4406 46.2984 15.8485 46.0941 16.23C45.9469 16.5038 45.9441 16.8328 46.0884 17.1075L47.2781 19.3875C47.0559 19.6341 46.8206 19.8694 46.575 20.0906L44.295 18.901C44.0194 18.7566 43.6903 18.7603 43.4175 18.9066C43.0359 19.111 42.6281 19.2797 42.2044 19.4072C41.9072 19.4963 41.6728 19.7278 41.5791 20.0241L40.8066 22.4841C40.4644 22.5047 40.1616 22.5047 39.8184 22.4841L39.0459 20.0241C38.9522 19.7278 38.7187 19.4972 38.4206 19.4072C37.9959 19.2797 37.5881 19.111 37.2084 18.9066C36.9347 18.7594 36.6056 18.7566 36.33 18.901L34.05 20.0906C33.8034 19.8685 33.5681 19.6331 33.3469 19.3875L34.5366 17.1075C34.68 16.8328 34.6781 16.5028 34.5309 16.23C34.3266 15.8485 34.1578 15.4406 34.0303 15.0169C33.9412 14.7197 33.7097 14.4853 33.4134 14.3916L30.9534 13.6191C30.9422 13.4475 30.9375 13.2835 30.9375 13.125C30.9375 12.9666 30.9422 12.8025 30.9534 12.631L33.4134 11.8585C33.7097 11.7647 33.9403 11.5313 34.0303 11.2331C34.1578 10.8085 34.3266 10.4006 34.5309 10.021C34.6781 9.74721 34.6809 9.41814 34.5366 9.14252L33.3469 6.86252C33.5691 6.61596 33.8044 6.38064 34.05 6.15939L36.33 7.34908C36.6047 7.49252 36.9347 7.48971 37.2075 7.34346C37.5891 7.13908 37.9969 6.97033 38.4206 6.84283C38.7178 6.75377 38.9522 6.52221 39.0459 6.22596L39.8184 3.76596C40.1606 3.74533 40.4634 3.74533 40.8066 3.76596L41.5791 6.22596C41.6728 6.52221 41.9063 6.75283 42.2044 6.84283C42.6291 6.97033 43.0369 7.13908 43.4166 7.34346C43.6903 7.49064 44.0194 7.49346 44.295 7.34908L46.575 6.15939C46.8216 6.38158 47.0569 6.61689 47.2781 6.86252L46.0884 9.14252C45.945 9.41721 45.9469 9.74721 46.0941 10.02C46.2984 10.4016 46.4672 10.8094 46.5947 11.2331C46.6838 11.5303 46.9153 11.7647 47.2116 11.8585L49.6716 12.631C49.6828 12.8025 49.6875 12.9666 49.6875 13.125C49.6875 13.2835 49.6828 13.4475 49.6716 13.6191L47.2116 14.3916Z" fill="#B75400"/>
<path d="M57.4331 32.7788L55.8225 32.2069C55.7306 31.9453 55.6256 31.6894 55.5066 31.441L56.2387 29.8988C56.3916 29.5782 56.3494 29.1994 56.13 28.92C55.6613 28.321 55.1194 27.7782 54.5184 27.3075C54.2381 27.0882 53.8575 27.0469 53.5388 27.1988L51.9956 27.931C51.7481 27.8128 51.4922 27.7069 51.2306 27.616L50.6578 26.0053C50.5387 25.6707 50.2397 25.4316 49.8872 25.3885C49.0519 25.2882 48.4472 25.2882 47.6119 25.3885C47.2594 25.4307 46.9603 25.6697 46.8413 26.0053L46.2694 27.616C46.0078 27.7078 45.7519 27.8128 45.5034 27.9319L43.9612 27.1997C43.6425 27.0478 43.2628 27.09 42.9825 27.3085C42.3834 27.7772 41.8406 28.3191 41.37 28.92C41.1516 29.1994 41.1094 29.5791 41.2613 29.8997L41.9934 31.4428C41.8753 31.6903 41.7694 31.9463 41.6784 32.2078L40.0678 32.7807C39.7331 32.8997 39.4941 33.1988 39.4509 33.5513C39.3994 33.9666 39.375 34.3388 39.375 34.6875C39.375 35.0363 39.3994 35.4075 39.45 35.8247C39.4922 36.1772 39.7312 36.4763 40.0669 36.5953L41.6775 37.1672C41.7694 37.4288 41.8744 37.6847 41.9934 37.9332L41.2613 39.4753C41.1084 39.796 41.1506 40.1747 41.37 40.4541C41.8387 41.0532 42.3806 41.596 42.9816 42.0666C43.2609 42.285 43.6416 42.3272 43.9612 42.1753L45.5044 41.4432C45.7519 41.5613 46.0078 41.6672 46.2694 41.7582L46.8422 43.3688C46.9613 43.7035 47.2603 43.9425 47.6128 43.9857C48.03 44.0382 48.4012 44.0625 48.75 44.0625C49.0988 44.0625 49.47 44.0382 49.8872 43.9875C50.2397 43.9453 50.5387 43.7063 50.6578 43.3707L51.2297 41.76C51.4913 41.6682 51.7472 41.5632 51.9956 41.4441L53.5378 42.1763C53.8575 42.3291 54.2381 42.2878 54.5166 42.0675C55.1156 41.5988 55.6584 41.0569 56.1291 40.456C56.3475 40.1766 56.3897 39.7969 56.2378 39.4763L55.5056 37.9332C55.6238 37.6857 55.7297 37.4297 55.8206 37.1682L57.4312 36.5953C57.7659 36.4763 58.005 36.1772 58.0481 35.8247C58.1006 35.4075 58.125 35.0363 58.125 34.6875C58.125 34.3388 58.1006 33.9675 58.05 33.5503C58.0078 33.1969 57.7688 32.8988 57.4331 32.7788ZM56.2406 35.0297L54.7547 35.5575C54.4669 35.6597 54.2466 35.896 54.165 36.1903C54.0422 36.6357 53.8669 37.0603 53.6447 37.4532C53.4947 37.7185 53.4834 38.041 53.6137 38.3166L54.2869 39.735C54.1312 39.9057 53.9681 40.0688 53.7984 40.2235L52.38 39.5503C52.1063 39.42 51.7828 39.4313 51.5166 39.5813C51.1228 39.8044 50.6981 39.9788 50.2547 40.1016C49.9603 40.1832 49.7241 40.4035 49.6209 40.6913L49.0931 42.1772C48.8663 42.1894 48.6356 42.1894 48.4088 42.1772L47.8809 40.6913C47.7788 40.4035 47.5425 40.1832 47.2481 40.1016C46.8028 39.9788 46.3781 39.8035 45.9853 39.5813C45.72 39.4322 45.3984 39.421 45.1219 39.5503L43.7034 40.2235C43.5328 40.0678 43.3697 39.9047 43.215 39.735L43.8881 38.3166C44.0194 38.041 44.0072 37.7185 43.8572 37.4532C43.6341 37.0594 43.4597 36.6347 43.3369 36.1913C43.2553 35.8969 43.035 35.6607 42.7472 35.5575L41.2613 35.0297C41.2538 34.9163 41.25 34.8028 41.25 34.6875C41.25 34.5722 41.2537 34.4578 41.2594 34.3453L42.7453 33.8166C43.0331 33.7144 43.2534 33.4782 43.3341 33.1838C43.4578 32.7375 43.6331 32.3138 43.8553 31.921C44.0053 31.6557 44.0166 31.3332 43.8863 31.0575L43.2131 29.6391C43.3688 29.4685 43.5319 29.3053 43.7016 29.1507L45.12 29.8238C45.3956 29.955 45.7181 29.9438 45.9834 29.7928C46.3772 29.5697 46.8019 29.3953 47.2453 29.2725C47.5397 29.191 47.7759 28.9707 47.8791 28.6828L48.4069 27.1969C48.6337 27.1847 48.8644 27.1847 49.0912 27.1969L49.6191 28.6828C49.7212 28.9707 49.9575 29.191 50.2519 29.2725C50.6972 29.3953 51.1219 29.5707 51.5147 29.7928C51.7809 29.9438 52.1025 29.955 52.3781 29.8238L53.7966 29.1507C53.9672 29.3063 54.1303 29.4694 54.285 29.6391L53.6119 31.0575C53.4806 31.3332 53.4928 31.6557 53.6428 31.921C53.8659 32.3147 54.0403 32.7394 54.1631 33.1828C54.2447 33.4772 54.465 33.7135 54.7528 33.8166L56.2387 34.3444C56.2462 34.4588 56.25 34.5722 56.25 34.6875C56.25 34.8028 56.2463 34.9163 56.2406 35.0297Z" fill="#B75400"/>
<path d="M20.625 49.6875C26.3109 49.6875 30.9375 45.0609 30.9375 39.375C30.9375 33.6891 26.3109 29.0625 20.625 29.0625C14.9391 29.0625 10.3125 33.6891 10.3125 39.375C10.3125 45.0609 14.9391 49.6875 20.625 49.6875ZM20.625 30.9375C25.2769 30.9375 29.0625 34.7231 29.0625 39.375C29.0625 44.0269 25.2769 47.8125 20.625 47.8125C15.9731 47.8125 12.1875 44.0269 12.1875 39.375C12.1875 34.7231 15.9731 30.9375 20.625 30.9375Z" fill="#B75400"/>
<path d="M1.89563 23.774L3.33563 24.975C7.62844 19.8272 13.9294 16.875 20.625 16.875C21.1022 16.875 21.5784 16.9022 22.0547 16.9322L20.8997 18.0872L22.2253 19.4128L25.0378 16.6003C25.4044 16.2337 25.4044 15.6412 25.0378 15.2747L22.2253 12.4622L20.8997 13.7878L22.1738 15.0618C21.6581 15.029 21.1416 15 20.625 15C13.3725 15 6.54563 18.1978 1.89563 23.774Z" fill="#B75400"/>
<path d="M40.3125 8.4375C37.7278 8.4375 35.625 10.5403 35.625 13.125C35.625 15.7097 37.7278 17.8125 40.3125 17.8125C42.8972 17.8125 45 15.7097 45 13.125C45 10.5403 42.8972 8.4375 40.3125 8.4375ZM40.3125 15.9375C38.7619 15.9375 37.5 14.6756 37.5 13.125C37.5 11.5744 38.7619 10.3125 40.3125 10.3125C41.8631 10.3125 43.125 11.5744 43.125 13.125C43.125 14.6756 41.8631 15.9375 40.3125 15.9375Z" fill="#B75400"/>
<path d="M48.75 30.9375C46.6819 30.9375 45 32.6194 45 34.6875C45 36.7556 46.6819 38.4375 48.75 38.4375C50.8181 38.4375 52.5 36.7556 52.5 34.6875C52.5 32.6194 50.8181 30.9375 48.75 30.9375ZM48.75 36.5625C47.7159 36.5625 46.875 35.7216 46.875 34.6875C46.875 33.6534 47.7159 32.8125 48.75 32.8125C49.7841 32.8125 50.625 33.6534 50.625 34.6875C50.625 35.7216 49.7841 36.5625 48.75 36.5625Z" fill="#B75400"/>
<path d="M57.3713 4.70627L52.6838 3.76877C52.1738 3.66565 51.6816 3.99658 51.5803 4.50377L50.6428 9.19127L52.4813 9.55971L52.9866 7.03596C53.895 8.92596 54.375 11.0091 54.375 13.125C54.375 16.3575 53.3081 19.3969 51.2906 21.9141L52.7541 23.0869C55.0088 20.2735 56.25 16.7363 56.25 13.125C56.25 10.6697 55.6828 8.24908 54.6038 6.06471L57.0038 6.54471L57.3713 4.70627Z" fill="#B75400"/>
</svg>
