<svg width="81" height="64" viewBox="0 0 81 64" fill="none" xmlns="http://www.w3.org/2000/svg">
<path d="M78.04 14.0406H32.328C31.1831 14.0406 30.202 15.0178 30.202 16.1581V27.7237C30.8562 27.4794 30.359 27.3982 31.0133 27.3982C31.8313 27.3982 32.5672 27.5612 33.2214 27.8055V17.1244H77.1471V51.0292H33.2214V39.7783L30.202 41.9775V51.833C30.202 52.9732 31.1831 53.9505 32.328 53.9505H78.04C79.2664 53.9505 80.166 52.9733 80.166 51.833L80.1665 16.2404C80.1665 15.0183 79.1854 14.0412 78.0405 14.0412L78.04 14.0406Z" fill="#B75400"/>
<path d="M35.4355 32.2035C34.536 30.4929 32.41 29.76 30.6109 30.6559L23.9874 33.9954C23.9874 33.9954 16.8731 29.1901 16.2189 28.7016C15.4831 28.213 14.5836 27.7244 14.0929 27.5614C11.7217 26.8285 5.67014 26.2581 3.95272 30.2491C2.15368 34.4028 2.48049 45.2355 2.56206 52.973C2.56206 53.6247 2.97105 54.1945 3.70687 54.1945H16.5458C17.3638 54.1945 17.609 53.7871 17.6906 53.1355C17.7722 52.7281 18.5086 44.0135 18.4264 40.1855V38.8822L21.7793 41.1627C22.352 41.5701 23.0879 41.7331 23.7421 41.7331C24.3148 41.7331 24.8869 41.5701 25.3774 41.3258L33.8817 37.009C35.5992 36.0318 36.3351 33.9145 35.4356 32.2038L35.4355 32.2035Z" fill="#B75400"/>
<path d="M19.1624 17.543C19.1624 21.8166 15.6847 25.2804 11.394 25.2804C7.10389 25.2804 3.62555 21.8166 3.62555 17.543C3.62555 13.2701 7.10389 9.80566 11.394 9.80566C15.6847 9.80566 19.1624 13.2701 19.1624 17.543Z" fill="#B75400"/>
<path d="M58.4226 29.4424H69.1832C69.772 29.4424 70.2763 29.1122 70.2763 28.7268V27.0755C70.2763 26.69 69.772 26.3599 69.1832 26.3599L58.4226 26.3602C57.8338 26.3602 57.3295 26.6904 57.3295 27.0759V28.7272C57.3301 29.1123 57.8344 29.4424 58.4226 29.4424V29.4424Z" fill="#B75400"/>
<path d="M57.3301 35.5085C57.3301 35.894 57.8344 36.2242 58.4232 36.2242H69.1832C69.772 36.2242 70.2763 35.894 70.2763 35.5085V33.8572C70.2763 33.4718 69.772 33.1416 69.1832 33.1416L58.4226 33.142C57.8338 33.142 57.3295 33.4722 57.3295 33.8576L57.3301 35.5085Z" fill="#B75400"/>
<path d="M45.739 25.3617C42.5498 25.606 40.0964 28.2938 40.1786 31.4703C40.2602 34.6467 42.9588 37.3345 46.148 37.4158C49.3372 37.4158 52.0358 34.9722 52.2811 31.8777C52.2811 31.6334 52.1174 31.3891 51.7906 31.3891H46.6386C46.3934 31.3891 46.1481 31.1448 46.1481 30.9005V25.8509C46.2302 25.5248 45.9849 25.3617 45.7391 25.3617L45.739 25.3617Z" fill="#B75400"/>
<path d="M54.4074 28.7011C54.1621 25.769 51.7903 23.4073 48.847 23.163C48.6017 23.163 48.3564 23.326 48.3564 23.6516V28.7012C48.3564 28.9455 48.6017 29.1898 48.847 29.1898H53.999C54.2437 29.1898 54.4074 28.9455 54.4074 28.7012L54.4074 28.7011Z" fill="#B75400"/>
<path d="M45.9845 42.3031C45.9845 43.6075 44.9224 44.6648 43.6127 44.6648C42.3031 44.6648 41.2416 43.6075 41.2416 42.3031C41.2416 40.9987 42.3031 39.9408 43.6127 39.9408C44.9224 39.9408 45.9845 40.9987 45.9845 42.3031Z" fill="#B75400"/>
<path d="M53.6711 42.3031C53.6711 43.6075 52.6096 44.6648 51.2999 44.6648C49.9903 44.6648 48.9282 43.6075 48.9282 42.3031C48.9282 40.9987 49.9903 39.9408 51.2999 39.9408C52.6096 39.9408 53.6711 40.9987 53.6711 42.3031Z" fill="#B75400"/>
<path d="M61.4398 42.3031C61.4398 43.6075 60.3777 44.6648 59.068 44.6648C57.7584 44.6648 56.6968 43.6075 56.6968 42.3031C56.6968 40.9987 57.7584 39.9408 59.068 39.9408C60.3776 39.9408 61.4398 40.9987 61.4398 42.3031Z" fill="#B75400"/>
<path d="M69.1266 42.3031C69.1266 43.6075 68.065 44.6648 66.7554 44.6648C65.4457 44.6648 64.3842 43.6075 64.3842 42.3031C64.3842 40.9987 65.4457 39.9408 66.7554 39.9408C68.065 39.9408 69.1266 40.9987 69.1266 42.3031" fill="#B75400"/>
</svg>
