<svg width="402" height="348" viewBox="0 0 402 348" fill="none" xmlns="http://www.w3.org/2000/svg">
<path d="M1 342.321H401" stroke="#263238" stroke-linecap="round" stroke-linejoin="round"/>
<path d="M308.834 207.387V207.49C308.834 207.657 308.871 207.834 308.945 208.02C309.361 210.058 309.672 212.116 309.875 214.187C310.052 215.963 310.192 217.991 310.229 220.251C310.317 225.474 309.959 230.696 309.159 235.858C308.955 237.216 308.713 238.649 308.424 240.081C307.969 242.444 307.411 244.918 306.722 247.476C306.415 248.666 306.062 249.885 305.69 251.112L305.253 252.61C305.085 253.215 304.918 253.819 304.76 254.47C303.691 258.602 302.837 262.787 302.202 267.008C301.411 272.264 300.918 277.482 300.649 282.42C300.286 289.006 300.304 295.089 300.463 300.093C300.458 300.176 300.458 300.26 300.463 300.344C300.63 305.432 300.946 309.422 301.16 311.691C301.281 313.022 301.365 313.775 301.374 313.821" stroke="#263238" stroke-linecap="round" stroke-linejoin="round"/>
<path d="M308.861 207.518C307.469 206.28 305.791 205.408 303.978 204.978Z" fill="white"/>
<path d="M308.861 207.518C307.469 206.28 305.791 205.408 303.978 204.978" stroke="#263238" stroke-linecap="round" stroke-linejoin="round"/>
<path d="M309.903 214.214L312.377 211.973" stroke="#263238" stroke-linecap="round" stroke-linejoin="round"/>
<path d="M306.75 247.485C306.62 246.832 306.427 246.194 306.173 245.578C305.807 244.676 305.308 243.833 304.694 243.076C304.236 242.508 303.715 241.993 303.141 241.542" stroke="#263238" stroke-linecap="round" stroke-linejoin="round"/>
<path d="M304.769 254.461C305.12 253.592 305.645 252.805 306.312 252.147C306.979 251.49 307.774 250.976 308.648 250.638" stroke="#263238" stroke-linecap="round" stroke-linejoin="round"/>
<path d="M300.472 289.062C301.3 288.057 301.923 284.253 302.258 282.207C302.341 281.723 302.406 281.276 302.472 281.007" fill="white"/>
<path d="M300.472 289.062C301.3 288.057 301.923 284.253 302.258 282.207C302.341 281.723 302.406 281.276 302.472 281.007" stroke="#263238" stroke-linecap="round" stroke-linejoin="round"/>
<path d="M294.1 295.963C294.376 295.935 294.653 295.935 294.928 295.963C296.147 296.082 297.31 296.529 298.293 297.259C299.276 297.988 300.042 298.971 300.509 300.102" fill="white"/>
<path d="M294.1 295.963C294.376 295.935 294.653 295.935 294.928 295.963C296.147 296.082 297.31 296.529 298.293 297.259C299.276 297.988 300.042 298.971 300.509 300.102" stroke="#263238" stroke-linecap="round" stroke-linejoin="round"/>
<path d="M308.452 240.156C308.452 240.156 308.889 225.06 300.602 219.581" stroke="#263238" stroke-linecap="round" stroke-linejoin="round"/>
<path d="M309.159 272.515C310.247 276.04 302.648 282.746 302.648 282.746C302.648 282.746 292.612 281.49 291.487 277.975C290.361 274.459 292.938 268.673 297.812 267.185C302.686 265.697 308.108 268.99 309.159 272.515Z" fill="#B75400"/>
<path d="M317.614 229.794C316.684 233.515 309.466 236.184 309.466 236.184C309.466 236.184 304.509 230.389 305.439 226.65C306.369 222.911 310.378 218.8 313.745 219.665C317.112 220.53 318.581 226.055 317.614 229.794Z" fill="#B75400"/>
<path d="M288.789 285.667C293.301 287.415 296.063 295.396 296.063 295.396C296.063 295.396 288.622 299.405 284.12 297.647C279.618 295.889 274.819 290.94 276.121 287.638C277.423 284.337 284.278 283.871 288.789 285.667Z" fill="#B75400"/>
<path d="M298.677 241.765C299.59 242.533 300.636 243.125 301.765 243.513C302.331 243.697 302.937 243.721 303.516 243.583C304.095 243.445 304.625 243.151 305.048 242.732C305.978 241.625 305.755 239.942 305.15 238.556C303.941 235.905 299.495 231.394 296.082 232.687C291.152 234.575 296.481 240.156 298.677 241.765Z" fill="#B75400"/>
<path d="M308.769 248.527C308.117 249.327 307.429 250.341 307.792 251.317C307.994 251.727 308.326 252.059 308.737 252.261C309.147 252.463 309.613 252.524 310.061 252.433C310.954 252.222 311.787 251.811 312.498 251.233C314.238 250.024 317.809 247.513 315.531 245.123C313.252 242.732 310.089 246.843 308.769 248.527Z" fill="#B75400"/>
<path d="M294.212 214.791C293.837 214.813 293.477 214.952 293.185 215.189C292.893 215.426 292.683 215.749 292.584 216.112C292.436 216.977 293.152 217.73 293.84 218.26C295.57 219.6 300.769 223.19 301.923 219.721C303.02 216.447 296.5 214.54 294.212 214.791Z" fill="#B75400"/>
<path d="M303.783 203.388C302.713 203.49 301.644 203.099 300.565 203.165C299.486 203.23 298.305 204.095 298.537 205.155C298.77 206.215 299.969 206.448 300.955 206.504C302.653 206.613 304.357 206.497 306.025 206.16C306.419 206.122 306.785 205.936 307.048 205.639C307.485 204.997 306.797 204.141 306.052 203.918C305.289 203.816 304.537 203.636 303.811 203.379L303.783 203.388Z" fill="#B75400"/>
<path d="M314.256 210.764C315.326 210.764 316.368 210.336 317.447 210.327C318.526 210.317 319.772 211.108 319.595 212.187C319.418 213.266 318.265 213.573 317.279 213.694C315.594 213.917 313.886 213.917 312.201 213.694C311.802 213.684 311.422 213.521 311.14 213.238C310.666 212.633 311.299 211.731 312.015 211.452C312.773 211.31 313.513 211.083 314.219 210.773L314.256 210.764Z" fill="#B75400"/>
<path d="M313.196 290.029C313.442 289.772 313.772 289.61 314.126 289.573C314.365 289.596 314.589 289.701 314.758 289.871C314.928 290.041 315.034 290.264 315.056 290.503C315.108 290.963 315.05 291.428 314.889 291.861C314.154 294.308 305.969 311.971 304.081 308.799C302.974 306.939 305.709 300.716 306.518 298.958C308.062 295.528 310.342 292.479 313.196 290.029V290.029Z" fill="#B75400"/>
<path d="M309.206 208.531C309.206 208.531 308.713 204.244 309.745 203.881" stroke="#263238" stroke-linecap="round" stroke-linejoin="round"/>
<path d="M308.294 204.058C308.822 202.543 309.732 201.191 310.936 200.132C312.229 199.202 314.303 199.128 315.242 200.421C316.293 201.862 315.242 204.048 313.633 204.82C312.024 205.592 310.127 205.36 308.359 205.109C308.359 204.848 308.359 204.588 308.359 204.327L308.294 204.058Z" fill="#B75400"/>
<path d="M312.703 342.107C303.935 343.585 294.981 343.585 286.213 342.107V342.107L275.907 311.701H323.009L312.703 342.107Z" fill="white" stroke="#263238" stroke-linecap="round" stroke-linejoin="round"/>
<path d="M132.947 122.43V122.532C132.984 122.7 133.022 122.876 133.059 123.062C133.48 125.099 133.791 127.158 133.989 129.229C134.166 131.006 134.296 133.033 134.342 135.293C134.438 140.504 134.089 145.713 133.301 150.864C133.096 152.222 132.854 153.654 132.566 155.086C132.11 157.449 131.543 159.923 130.864 162.481C130.547 163.671 130.203 164.89 129.831 166.118C129.682 166.62 129.534 167.113 129.394 167.615C129.255 168.117 129.05 168.824 128.892 169.475" stroke="#263238" stroke-linecap="round" stroke-linejoin="round"/>
<path d="M132.966 122.56C132.298 121.976 131.569 121.467 130.789 121.044C129.93 120.591 129.018 120.247 128.073 120.021" fill="white"/>
<path d="M132.966 122.56C132.298 121.976 131.569 121.467 130.789 121.044C129.93 120.591 129.018 120.247 128.073 120.021" stroke="#263238" stroke-linecap="round" stroke-linejoin="round"/>
<path d="M134.007 129.257L136.491 127.015" stroke="#263238" stroke-linecap="round" stroke-linejoin="round"/>
<path d="M130.864 162.527C130.731 161.874 130.535 161.236 130.278 160.621C129.911 159.718 129.413 158.875 128.799 158.119C128.34 157.55 127.819 157.035 127.245 156.584" stroke="#263238" stroke-linecap="round" stroke-linejoin="round"/>
<path d="M128.883 169.466C129.23 168.597 129.752 167.809 130.418 167.151C131.084 166.493 131.878 165.98 132.752 165.643" stroke="#263238" stroke-linecap="round" stroke-linejoin="round"/>
<path d="M124.576 204.104C125.404 203.099 126.036 199.295 126.371 197.249C126.445 196.765 126.52 196.319 126.576 196.049" fill="white"/>
<path d="M124.576 204.104C125.404 203.099 126.036 199.295 126.371 197.249C126.445 196.765 126.52 196.319 126.576 196.049" stroke="#263238" stroke-linecap="round" stroke-linejoin="round"/>
<path d="M118.205 210.968C118.483 210.94 118.763 210.94 119.042 210.968C120.259 211.09 121.421 211.539 122.403 212.267C123.386 212.996 124.153 213.978 124.622 215.107" fill="white"/>
<path d="M118.205 210.968C118.483 210.94 118.763 210.94 119.042 210.968C120.259 211.09 121.421 211.539 122.403 212.267C123.386 212.996 124.153 213.978 124.622 215.107" stroke="#263238" stroke-linecap="round" stroke-linejoin="round"/>
<path d="M132.557 155.161C132.557 155.161 133.003 140.065 124.706 134.587" stroke="#263238" stroke-linecap="round" stroke-linejoin="round"/>
<path d="M133.31 187.557C134.389 191.082 126.799 197.788 126.799 197.788C126.799 197.788 116.754 196.533 115.637 193.017C114.521 189.501 117.098 183.716 121.962 182.227C126.827 180.739 132.222 184.041 133.31 187.557Z" fill="#B75400"/>
<path d="M141.737 144.836C140.807 148.557 133.589 151.226 133.589 151.226C133.589 151.226 128.576 145.432 129.543 141.693C130.51 137.954 134.472 133.842 137.84 134.707C141.207 135.572 142.667 141.097 141.737 144.836Z" fill="#B75400"/>
<path d="M112.903 200.709C117.414 202.467 120.186 210.438 120.186 210.438C120.186 210.438 112.745 214.447 108.234 212.689C103.723 210.931 98.9325 205.983 100.244 202.681C101.555 199.379 108.383 198.951 112.903 200.709Z" fill="#B75400"/>
<path d="M122.79 156.807C123.7 157.575 124.744 158.168 125.869 158.556C126.435 158.739 127.041 158.763 127.62 158.625C128.199 158.488 128.729 158.193 129.152 157.775C130.082 156.668 129.859 154.984 129.255 153.598C128.045 150.947 123.609 146.436 120.186 147.729C115.265 149.599 120.586 155.179 122.79 156.807Z" fill="#B75400"/>
<path d="M132.873 163.579C132.231 164.378 131.543 165.439 131.896 166.369C132.098 166.779 132.431 167.111 132.841 167.313C133.251 167.515 133.717 167.575 134.166 167.485C135.058 167.275 135.892 166.865 136.602 166.285C138.342 165.085 141.913 162.565 139.635 160.174C137.356 157.784 134.24 161.886 132.873 163.579Z" fill="#B75400"/>
<path d="M118.316 129.834C117.941 129.857 117.583 129.997 117.291 130.233C116.999 130.47 116.789 130.792 116.689 131.154C116.54 132.019 117.256 132.773 117.953 133.303C119.684 134.642 124.874 138.233 126.036 134.763C127.125 131.489 120.614 129.582 118.316 129.834Z" fill="#B75400"/>
<path d="M127.887 118.43C126.818 118.533 125.748 118.142 124.678 118.207C123.609 118.272 122.409 119.137 122.651 120.197C122.893 121.258 124.074 121.49 125.069 121.546C126.763 121.655 128.465 121.539 130.129 121.202C130.526 121.165 130.895 120.979 131.161 120.681C131.589 120.039 130.901 119.184 130.166 118.96C129.399 118.859 128.645 118.678 127.915 118.421L127.887 118.43Z" fill="#B75400"/>
<path d="M138.36 125.806C139.439 125.806 140.481 125.378 141.551 125.369C142.62 125.36 143.876 126.15 143.709 127.229C143.541 128.308 142.369 128.615 141.383 128.736C139.698 128.959 137.99 128.959 136.305 128.736C135.906 128.727 135.526 128.564 135.244 128.28C134.77 127.676 135.403 126.773 136.128 126.494C136.886 126.35 137.625 126.122 138.333 125.815L138.36 125.806Z" fill="#B75400"/>
<path d="M137.3 205.071C137.547 204.816 137.877 204.654 138.23 204.616C138.467 204.643 138.688 204.75 138.857 204.919C139.026 205.088 139.133 205.309 139.16 205.546C139.208 206.006 139.148 206.471 138.984 206.904C138.258 209.35 130.064 227.013 128.185 223.841C127.069 221.981 129.803 215.758 130.612 214.001C132.159 210.569 134.443 207.521 137.3 205.071V205.071Z" fill="#B75400"/>
<path d="M133.31 123.592C133.31 123.592 132.817 119.305 133.859 118.942" stroke="#263238" stroke-linecap="round" stroke-linejoin="round"/>
<path d="M132.436 119.1C132.956 117.582 133.867 116.228 135.077 115.175C136.37 114.245 138.435 114.17 139.374 115.463C140.425 116.905 139.374 119.091 137.765 119.863C136.156 120.635 134.268 120.402 132.501 120.151C132.501 119.891 132.501 119.63 132.501 119.37L132.436 119.1Z" fill="#B75400"/>
<path d="M15.1004 225.246V133.34" stroke="#263238" stroke-linecap="round" stroke-linejoin="round"/>
<path d="M302.044 225.246H290.687" stroke="#263238" stroke-linecap="round" stroke-linejoin="round"/>
<path d="M391.103 225.246H367.971" stroke="#263238" stroke-linecap="round" stroke-linejoin="round"/>
<path d="M289.645 85.6248H330.636V46.5782" stroke="#263238" stroke-linecap="round" stroke-linejoin="round"/>
<path d="M50.7334 73.7006H94.2818V105.464H142.016" stroke="#263238" stroke-linecap="round" stroke-linejoin="round"/>
<path d="M25.0435 181.27V111.082" stroke="#263238" stroke-linecap="round" stroke-linejoin="round"/>
<path d="M44.5016 80.6208V135.628" stroke="#263238" stroke-linecap="round" stroke-linejoin="round"/>
<path d="M63.9505 80.6208V129.248" stroke="#263238" stroke-linecap="round" stroke-linejoin="round"/>
<path d="M83.3994 80.6208V165.681" stroke="#263238" stroke-linecap="round" stroke-linejoin="round"/>
<path d="M176.57 68.557V12.6286H255.751V68.557" stroke="#263238" stroke-linecap="round" stroke-linejoin="round"/>
<path d="M182.374 40.4115V19.2697H197.014" stroke="#263238" stroke-linecap="round" stroke-linejoin="round"/>
<path d="M200.232 40.4115V19.2697H214.873" stroke="#263238" stroke-linecap="round" stroke-linejoin="round"/>
<path d="M218.091 40.4115V19.2697H232.731" stroke="#263238" stroke-linecap="round" stroke-linejoin="round"/>
<path d="M235.949 40.4115V19.2697H250.589" stroke="#263238" stroke-linecap="round" stroke-linejoin="round"/>
<path d="M182.374 68.557V47.4153H197.014" stroke="#263238" stroke-linecap="round" stroke-linejoin="round"/>
<path d="M200.232 68.557V47.4153H214.873" stroke="#263238" stroke-linecap="round" stroke-linejoin="round"/>
<path d="M218.091 68.557V47.4153H232.731" stroke="#263238" stroke-linecap="round" stroke-linejoin="round"/>
<path d="M235.949 68.557V47.4153H250.589" stroke="#263238" stroke-linecap="round" stroke-linejoin="round"/>
<path d="M336.979 51.4149V121.5" stroke="#263238" stroke-linecap="round" stroke-linejoin="round"/>
<path d="M365.729 220.112H367.971" stroke="#263238" stroke-linecap="round" stroke-linejoin="round"/>
<path d="M354.215 71.5427V150.008" stroke="#263238" stroke-linecap="round" stroke-linejoin="round"/>
<path d="M371.459 200.077V220.112H385.216" stroke="#263238" stroke-linecap="round" stroke-linejoin="round"/>
<path d="M371.459 97.1211V150.408" stroke="#263238" stroke-linecap="round" stroke-linejoin="round"/>
<path d="M388.694 137.554V220.112H391.829" stroke="#263238" stroke-linecap="round" stroke-linejoin="round"/>
<path d="M178.654 226.929H1V342.321H178.654V226.929Z" fill="white" stroke="#263238" stroke-linecap="round" stroke-linejoin="round"/>
<path d="M1 226.929L89.8269 284.625L178.654 226.929H1Z" fill="white" stroke="#263238" stroke-linecap="round" stroke-linejoin="round"/>
<path d="M63.123 267.278L1 342.321" stroke="#263238" stroke-linecap="round" stroke-linejoin="round"/>
<path d="M117.014 267.278L179.137 342.321" stroke="#263238" stroke-linecap="round" stroke-linejoin="round"/>
<path d="M273.722 79.6906H232.424C231.235 79.692 230.067 80.012 229.043 80.6172C228.019 81.2224 227.176 82.0907 226.602 83.1321C225.587 84.9636 224.1 86.4901 222.296 87.553C220.492 88.6159 218.436 89.1764 216.342 89.1764C214.248 89.1764 212.193 88.6159 210.389 87.553C208.584 86.4901 207.098 84.9636 206.083 83.1321C205.513 82.0773 204.668 81.1963 203.638 80.5822C202.608 79.9682 201.432 79.6441 200.232 79.6441H158.981C157.849 79.6294 156.725 79.8378 155.673 80.2575C154.622 80.6773 153.663 81.3001 152.852 82.0904C152.041 82.8807 151.393 83.823 150.946 84.8635C150.5 85.9041 150.262 87.0224 150.248 88.1548V321.077C150.279 323.363 151.217 325.543 152.854 327.138C154.492 328.734 156.695 329.614 158.981 329.587H273.722C276.009 329.615 278.213 328.734 279.852 327.139C281.491 325.543 282.43 323.363 282.465 321.077V88.2013C282.433 85.9136 281.494 83.7322 279.855 82.1363C278.215 80.5405 276.009 79.6608 273.722 79.6906Z" fill="#E0E0E0"/>
<path d="M286.492 85.6248C286.497 84.0558 286.193 82.5012 285.595 81.0502C284.998 79.5992 284.121 78.2803 283.013 77.1691C281.905 76.0579 280.589 75.1762 279.14 74.5746C277.691 73.973 276.137 73.6634 274.568 73.6634H158.145C156.579 73.6622 155.029 73.9695 153.582 74.5677C152.135 75.1659 150.821 76.0434 149.713 77.1499C148.606 78.2564 147.728 79.5703 147.128 81.0165C146.529 82.4627 146.22 84.0128 146.22 85.5783V85.5783V330.378C146.22 333.538 147.476 336.568 149.71 338.803C151.945 341.037 154.975 342.293 158.135 342.293H274.568C277.729 342.293 280.761 341.038 282.997 338.803C285.233 336.569 286.49 333.539 286.492 330.378V330.378V85.6248ZM282.465 321.076C282.431 323.363 281.491 325.543 279.852 327.139C278.213 328.734 276.009 329.614 273.722 329.587H158.982C156.696 329.614 154.492 328.734 152.855 327.138C151.217 325.543 150.28 323.363 150.248 321.076V88.2012C150.262 87.0689 150.5 85.9506 150.947 84.91C151.393 83.8695 152.041 82.9272 152.852 82.1369C153.663 81.3466 154.622 80.7238 155.674 80.304C156.725 79.8843 157.849 79.6758 158.982 79.6906H200.251C201.449 79.6903 202.625 80.0144 203.653 80.6285C204.682 81.2426 205.525 82.1238 206.093 83.1786V83.1786C207.107 85.0101 208.594 86.5366 210.398 87.5995C212.202 88.6624 214.258 89.2229 216.352 89.2229C218.446 89.2229 220.501 88.6624 222.306 87.5995C224.11 86.5366 225.596 85.0101 226.611 83.1786C227.184 82.1359 228.027 81.2665 229.051 80.6611C230.076 80.0557 231.244 79.7366 232.434 79.7371H273.731C274.863 79.7224 275.988 79.9308 277.039 80.3505C278.091 80.7703 279.05 81.3931 279.861 82.1834C280.672 82.9737 281.319 83.916 281.766 84.9565C282.213 85.9971 282.45 87.1154 282.465 88.2477V321.076Z" fill="#263238"/>
<path opacity="0.2" d="M246.934 73.7006L169.594 342.311L200.307 342.283L274.782 73.7006H246.934Z" fill="white"/>
<path opacity="0.2" d="M235.4 73.7006L153.633 342.321L158.107 342.293L238.34 73.7006H235.4Z" fill="white"/>
<path d="M237.214 273.389C237.271 276.052 236.795 278.699 235.813 281.174C234.832 283.65 233.365 285.904 231.499 287.804C229.632 289.704 227.405 291.211 224.947 292.237C222.49 293.263 219.852 293.787 217.189 293.777C211.755 293.757 206.544 291.613 202.669 287.804C198.794 283.995 196.561 278.822 196.447 273.389C196.391 270.727 196.868 268.081 197.85 265.607C198.832 263.132 200.3 260.879 202.166 258.98C204.032 257.081 206.259 255.575 208.716 254.549C211.173 253.524 213.81 253.001 216.472 253.01C221.905 253.028 227.116 255.17 230.991 258.978C234.867 262.785 237.1 267.957 237.214 273.389V273.389Z" fill="white" stroke="#263238" stroke-linecap="round" stroke-linejoin="round"/>
<path d="M210.148 288.606C208.254 287.906 206.519 286.837 205.041 285.462C203.552 284.031 202.398 282.287 201.665 280.356C200.829 278.191 200.415 275.886 200.446 273.566C200.435 271.587 200.785 269.624 201.479 267.771C202.11 266.06 203.056 264.482 204.269 263.12C206.66 260.505 209.748 258.627 213.17 257.707C214.851 257.254 216.583 257.026 218.323 257.028C219.768 257.022 221.208 257.193 222.611 257.54C223.965 257.872 225.26 258.408 226.453 259.13C227.633 259.839 228.692 260.735 229.587 261.781C230.52 262.91 231.233 264.203 231.689 265.595C232.211 267.182 232.468 268.844 232.452 270.515C232.432 273.744 231.269 276.861 229.169 279.314C228.265 280.338 227.196 281.203 226.006 281.872C224.98 282.46 223.822 282.78 222.639 282.802C221.822 282.813 221.025 282.554 220.37 282.067C220.041 281.824 219.773 281.507 219.587 281.142C219.402 280.777 219.303 280.374 219.3 279.965C218.69 280.893 217.852 281.649 216.867 282.162C215.882 282.675 214.783 282.927 213.673 282.895C212.8 282.934 211.929 282.777 211.124 282.436C210.319 282.095 209.601 281.578 209.022 280.923C207.861 279.573 207.247 277.838 207.301 276.059C207.309 274.594 207.564 273.141 208.055 271.761C208.544 270.371 209.236 269.06 210.11 267.873C210.981 266.707 212.091 265.74 213.366 265.037C214.64 264.317 216.079 263.942 217.542 263.948C218.559 263.938 219.563 264.181 220.463 264.655C221.336 265.121 222.045 265.845 222.49 266.729L222.676 266.106C222.825 265.67 223.14 265.31 223.553 265.106C223.967 264.902 224.444 264.87 224.881 265.018C225.05 265.075 225.209 265.157 225.355 265.26C225.494 265.37 225.604 265.512 225.677 265.674C225.75 265.836 225.783 266.013 225.774 266.19C225.774 266.364 225.746 266.537 225.69 266.701L222.676 276.728C222.411 277.492 222.239 278.285 222.165 279.091C222.137 279.241 222.147 279.396 222.193 279.541C222.239 279.687 222.321 279.819 222.43 279.926C222.54 280.032 222.674 280.11 222.82 280.153C222.967 280.195 223.122 280.201 223.272 280.17C224.338 280.101 225.337 279.625 226.062 278.84C227.067 277.846 227.839 276.642 228.322 275.314C228.899 273.864 229.196 272.318 229.196 270.757C229.209 269.382 229.008 268.014 228.601 266.701C228.259 265.57 227.717 264.508 227.001 263.567C226.323 262.71 225.502 261.977 224.574 261.4C223.649 260.816 222.638 260.38 221.579 260.107C220.492 259.821 219.373 259.677 218.249 259.679C216.824 259.681 215.406 259.881 214.035 260.274C212.625 260.674 211.28 261.279 210.045 262.069C208.8 262.855 207.673 263.813 206.697 264.916C205.691 266.077 204.909 267.414 204.39 268.859C203.806 270.433 203.513 272.101 203.525 273.78C203.495 275.768 203.855 277.743 204.585 279.593C205.215 281.194 206.209 282.627 207.487 283.779C208.723 284.851 210.149 285.681 211.692 286.225C213.319 286.8 215.034 287.09 216.761 287.08C218.606 287.081 220.44 286.801 222.202 286.253C222.378 286.189 222.564 286.158 222.751 286.16C222.925 286.157 223.098 286.191 223.259 286.26C223.419 286.329 223.563 286.431 223.681 286.56C223.8 286.683 223.893 286.829 223.955 286.989C224.017 287.148 224.047 287.318 224.044 287.49C224.066 287.76 223.99 288.03 223.829 288.249C223.668 288.467 223.434 288.621 223.169 288.68C220.974 289.352 218.693 289.702 216.398 289.722C214.265 289.719 212.149 289.341 210.148 288.606V288.606ZM217.83 278.96C218.75 278.3 219.432 277.361 219.774 276.282L221.718 269.445L221.588 269.166C221.467 268.942 221.32 268.733 221.151 268.543C220.918 268.274 220.663 268.025 220.388 267.799C220.04 267.521 219.647 267.304 219.226 267.157C218.125 266.773 216.92 266.816 215.849 267.278C215.263 267.527 214.724 267.876 214.259 268.311C213.775 268.762 213.344 269.268 212.975 269.817C212.606 270.39 212.294 270.997 212.045 271.631C211.784 272.265 211.581 272.922 211.44 273.594C211.3 274.232 211.228 274.884 211.226 275.538C211.218 275.957 211.243 276.377 211.301 276.793C211.344 277.163 211.425 277.528 211.543 277.882C211.645 278.21 211.792 278.523 211.98 278.812C212.148 279.071 212.363 279.298 212.612 279.481C212.879 279.674 213.178 279.816 213.496 279.9C213.867 280.009 214.253 280.059 214.64 280.049C215.804 280.063 216.939 279.69 217.868 278.988L217.83 278.96Z" fill="#B75400" stroke="#263238" stroke-linecap="round" stroke-linejoin="round"/>
<path d="M236.758 203.509C236.814 206.171 236.337 208.817 235.355 211.291C234.373 213.766 232.905 216.019 231.039 217.918C229.173 219.817 226.946 221.323 224.489 222.348C222.032 223.374 219.395 223.897 216.733 223.888C211.3 223.87 206.089 221.728 202.214 217.92C198.338 214.113 196.105 208.941 195.991 203.509C195.933 200.846 196.408 198.198 197.389 195.722C198.37 193.246 199.837 190.991 201.704 189.091C203.57 187.191 205.798 185.684 208.256 184.658C210.715 183.633 213.353 183.11 216.017 183.12C221.45 183.141 226.661 185.285 230.536 189.094C234.411 192.903 236.644 198.076 236.758 203.509V203.509Z" fill="white" stroke="#263238" stroke-linecap="round" stroke-linejoin="round"/>
<path d="M229.169 201.649C222.779 197.463 210.25 197.463 204.157 201.649C203.043 201.857 202.041 202.46 201.334 203.346C200.628 204.232 200.263 205.343 200.307 206.476C200.4 209.183 211.645 209.183 211.552 206.476C211.497 205.344 211.065 204.264 210.324 203.406C214.542 202.495 218.905 202.495 223.123 203.406C222.436 204.279 222.081 205.366 222.118 206.476C222.211 209.183 233.456 209.183 233.354 206.476C233.301 205.318 232.859 204.211 232.1 203.335C231.34 202.459 230.308 201.865 229.169 201.649V201.649Z" fill="#B75400" stroke="#263238" stroke-linecap="round" stroke-linejoin="round"/>
<path d="M236.758 135.628C236.87 140.642 234.135 145.125 229.745 148.111V160.286L221.011 151.543C219.599 151.795 218.167 151.92 216.733 151.915C205.478 151.915 196.186 144.623 195.991 135.628C195.796 126.634 204.753 119.351 216.017 119.351C227.28 119.351 236.61 126.68 236.758 135.628Z" fill="white" stroke="#263238" stroke-linecap="round" stroke-linejoin="round"/>
<path d="M207.692 135.628C207.694 136.151 207.541 136.663 207.251 137.098C206.962 137.534 206.55 137.874 206.068 138.075C205.585 138.277 205.054 138.33 204.541 138.23C204.028 138.129 203.556 137.878 203.186 137.509C202.816 137.14 202.563 136.669 202.46 136.156C202.358 135.644 202.409 135.112 202.609 134.629C202.809 134.146 203.147 133.733 203.582 133.442C204.017 133.151 204.528 132.996 205.05 132.996C205.749 132.996 206.42 133.273 206.915 133.766C207.41 134.26 207.69 134.929 207.692 135.628V135.628Z" fill="#B75400" stroke="#263238" stroke-linecap="round" stroke-linejoin="round"/>
<path d="M218.993 135.628C218.995 136.151 218.842 136.663 218.552 137.098C218.263 137.534 217.851 137.874 217.369 138.075C216.886 138.277 216.355 138.33 215.842 138.23C215.329 138.129 214.857 137.878 214.487 137.509C214.117 137.14 213.864 136.669 213.761 136.156C213.659 135.644 213.711 135.112 213.91 134.629C214.11 134.146 214.448 133.733 214.883 133.442C215.318 133.151 215.829 132.996 216.352 132.996C217.051 132.996 217.721 133.273 218.216 133.766C218.711 134.26 218.991 134.929 218.993 135.628V135.628Z" fill="#B75400" stroke="#263238" stroke-linecap="round" stroke-linejoin="round"/>
<path d="M230.294 135.628C230.296 136.151 230.142 136.663 229.853 137.098C229.564 137.534 229.152 137.874 228.67 138.075C228.187 138.277 227.656 138.33 227.143 138.23C226.63 138.129 226.158 137.878 225.788 137.509C225.418 137.14 225.165 136.669 225.062 136.156C224.96 135.644 225.011 135.112 225.211 134.629C225.411 134.146 225.749 133.733 226.184 133.442C226.619 133.151 227.13 132.996 227.652 132.996C228.351 132.996 229.022 133.273 229.517 133.766C230.012 134.26 230.292 134.929 230.294 135.628V135.628Z" fill="#B75400" stroke="#263238" stroke-linecap="round" stroke-linejoin="round"/>
<path d="M102.486 172.75C102.156 173.364 101.68 173.888 101.1 174.275C96.8093 177.698 92.4191 180.981 87.9297 184.125C86.2834 185.278 84.572 186.469 82.9815 187.762C73.4198 194.161 79.261 195.724 73.4198 209.266C72.0432 212.503 72.2943 228.362 72.2943 228.362H71.82C70.7003 227.257 69.5104 226.225 68.2576 225.274V225.274C68.0845 225.157 67.9043 225.051 67.7181 224.957V224.957C67.5434 224.867 67.3547 224.808 67.16 224.781C66.2299 224.725 62.6861 225.153 59.1052 224.92L58.175 224.846C57.6542 224.79 57.1426 224.725 56.631 224.632C56.1195 224.539 55.6265 224.437 55.1521 224.306C51.7538 223.217 48.4214 221.931 45.1719 220.456V220.456L43.5535 219.758L42.7536 219.414L42.0281 219.098L41.5072 218.874L41.0049 218.66C40.1585 218.307 39.3679 217.981 38.6424 217.73C38.3098 217.611 37.9715 217.509 37.6286 217.423C37.6286 218.186 37.5077 218.967 37.4054 219.73C36.9589 223.367 35.9637 226.725 34.1871 227.171C34.1505 227.181 34.1121 227.181 34.0755 227.171C33.919 227.2 33.7603 227.216 33.6011 227.218H33.4616C33.0681 227.21 32.6785 227.137 32.3083 227.004V227.004C30.696 226.316 29.3784 225.08 28.5878 223.516C28.2345 222.856 28.0372 222.124 28.0111 221.376C28.0111 218.67 27.2577 202.7 27.2577 198.049C27.2577 193.398 28.1878 185.26 30.5038 182.237C31.4089 180.955 32.552 179.859 33.8709 179.009C35.5679 177.595 37.5142 176.509 39.6097 175.81C42.0839 175 47.6181 172.936 51.4781 171.475L45.6463 173.726C47.1252 176.256 50.2969 180.237 56.0171 180.749C61.3933 181.204 64.7231 176.34 66.4252 172.787C66.5741 172.843 75.9311 171.066 78.0983 171.168C85.1579 171.475 90.9154 167.652 93.5198 166.136C94.3053 165.667 95.1868 165.381 96.0984 165.3C97.0099 165.219 97.9279 165.346 98.7838 165.669C99.6398 165.993 100.411 166.506 101.041 167.17C101.671 167.834 102.143 168.632 102.421 169.503V169.587C102.828 170.598 102.851 171.723 102.486 172.75V172.75Z" fill="#B75400" stroke="#263238" stroke-linecap="round" stroke-linejoin="round"/>
<path d="M66.3229 172.843L65.8951 172.694L66.3229 172.843Z" fill="white" stroke="#263238" stroke-linecap="round" stroke-linejoin="round"/>
<path d="M74.2569 232.454C74.2614 232.491 74.2614 232.529 74.2569 232.566C74.2192 232.656 74.1617 232.736 74.0888 232.801C74.0158 232.865 73.9293 232.913 73.8356 232.94C73.7418 232.966 73.6433 232.972 73.5472 232.955C73.4511 232.939 73.3599 232.901 73.2803 232.845C72.8525 232.603 72.1921 231.05 72.1921 231.05L71.4573 230.287L70.9736 229.775C71.048 229.961 71.634 231.385 71.3271 232.045C71.3115 232.09 71.286 232.132 71.2526 232.166C71.0471 232.44 70.7804 232.663 70.4736 232.817C70.1668 232.97 69.8284 233.05 69.4854 233.049V233.049C69.0855 233.049 67.9135 233.189 66.8904 233.254H66.7787C66.4689 233.271 66.1584 233.271 65.8486 233.254C65.0228 233.148 64.2262 232.879 63.5047 232.464C61.8685 232.223 60.2563 231.84 58.6867 231.319L58.4076 231.171L58.1565 231.022C57.9914 230.922 57.8384 230.803 57.7007 230.668C57.1339 230.196 56.6525 229.63 56.2776 228.994V228.994C56.2776 228.994 52.5013 228.836 47.4322 228.445C45.5719 228.306 43.5628 228.129 41.4794 227.924C38.2797 227.599 35.6382 227.618 33.564 227.329H33.4152C33.0059 227.273 32.6246 227.199 32.2618 227.115C31.3766 226.942 30.558 226.523 29.9 225.906C29.2419 225.289 28.7711 224.5 28.5413 223.627C28.4195 223.214 28.3202 222.795 28.2437 222.372L29.8621 219.581C30.7056 218.905 31.6463 218.359 32.6525 217.963C34.2135 217.31 35.9372 217.151 37.5914 217.507C37.9343 217.592 38.2727 217.695 38.6053 217.814C39.3308 218.093 40.1214 218.419 40.9678 218.744L41.4794 218.958L42.0002 219.181L42.7257 219.498C46.8648 221.209 51.8037 223.413 55.1057 224.344C56.0974 224.603 57.1082 224.784 58.1286 224.883L59.0587 224.957C62.6397 225.19 66.1742 224.762 67.1136 224.818C68.053 224.874 70.3504 227.059 71.82 228.408C72.22 228.78 72.5734 229.087 72.8153 229.273L72.9269 229.366L73.0106 229.441C73.5433 229.987 73.9164 230.669 74.0895 231.412C74.0895 231.412 74.0895 231.412 74.0895 231.412C74.1627 231.662 74.2125 231.917 74.2383 232.175C74.2552 232.267 74.2615 232.361 74.2569 232.454V232.454Z" fill="white" stroke="#263238" stroke-linecap="round" stroke-linejoin="round"/>
<path d="M74.2569 232.454C74.2614 232.491 74.2614 232.529 74.2569 232.566C74.2182 232.655 74.16 232.734 74.0867 232.798C74.0134 232.862 73.9267 232.908 73.833 232.934C73.7394 232.96 73.6411 232.964 73.5455 232.947C73.4498 232.93 73.3592 232.892 73.2803 232.836C72.8203 232.302 72.4526 231.695 72.192 231.04L71.4572 230.287L70.9736 229.785C71.0387 229.934 71.6432 231.385 71.3363 232.054C71.3207 232.1 71.2953 232.141 71.2619 232.175C71.1588 232.312 71.0402 232.437 70.9085 232.547C70.5074 232.869 70.0091 233.046 69.4947 233.049V233.049C69.0854 233.049 67.9228 233.18 66.9089 233.254H66.7787C66.4689 233.271 66.1584 233.271 65.8486 233.254C65.0278 233.144 64.2354 232.879 63.514 232.473C61.8777 232.228 60.2657 231.842 58.6959 231.319L58.4262 231.189L58.1751 231.04C58.0142 230.935 57.8618 230.816 57.7193 230.687C57.1442 230.211 56.6563 229.638 56.2776 228.994V228.994C56.2776 228.994 52.6129 228.836 47.646 228.455C45.7858 228.315 43.6372 228.129 41.4793 227.915C38.5401 227.627 36.1125 227.543 34.1499 227.236L33.5454 227.125L32.8478 226.966C32.6869 225.827 32.805 224.665 33.1919 223.581C33.5525 222.666 34.1116 221.843 34.829 221.17C35.5464 220.498 36.4041 219.993 37.3403 219.693V219.693C38.5021 219.266 39.6925 218.921 40.9026 218.66L41.4049 218.874L41.9258 219.098L42.6513 219.414C46.8647 221.228 51.7479 223.423 55.0591 224.325C56.0501 224.586 57.0613 224.763 58.082 224.855L59.0122 224.929C62.5931 225.171 66.1276 224.743 67.067 224.799C68.0065 224.855 70.2946 227.032 71.7177 228.38C72.0405 228.689 72.3789 228.981 72.7315 229.255L72.8431 229.338L72.9268 229.413C73.4697 229.952 73.8445 230.637 74.0058 231.385C74.079 231.634 74.1288 231.889 74.1546 232.147C74.2022 232.245 74.2366 232.348 74.2569 232.454V232.454Z" fill="white" stroke="#263238" stroke-linecap="round" stroke-linejoin="round"/>
<path d="M63.1233 229.98C63.1233 229.98 65.2346 231.078 66.0718 231.459C66.9089 231.84 66.8345 233.375 66.8345 233.375" fill="white"/>
<path d="M63.1233 229.98C63.1233 229.98 65.2346 231.078 66.0718 231.459C66.9089 231.84 66.8345 233.375 66.8345 233.375" stroke="#263238" stroke-linecap="round" stroke-linejoin="round"/>
<path d="M65.3835 228.492C66.7118 229.44 67.9908 230.455 69.2156 231.533C69.3945 231.743 69.5111 231.999 69.5522 232.272C69.5933 232.545 69.5573 232.824 69.4481 233.077" fill="white"/>
<path d="M65.3835 228.492C66.7118 229.44 67.9908 230.455 69.2156 231.533C69.3945 231.743 69.5111 231.999 69.5522 232.272C69.5933 232.545 69.5573 232.824 69.4481 233.077" stroke="#263238" stroke-linecap="round" stroke-linejoin="round"/>
<path d="M70.9456 229.766C69.8451 228.587 68.6807 227.469 67.4576 226.418Z" fill="white"/>
<path d="M70.9456 229.766C69.8451 228.587 68.6807 227.469 67.4576 226.418" stroke="#263238" stroke-linecap="round" stroke-linejoin="round"/>
<path d="M66.3137 172.861C64.6301 176.405 61.291 181.232 55.9149 180.814C50.2225 180.33 47.0229 176.321 45.544 173.782C47.5903 173.001 49.6644 172.201 51.3666 171.531C51.3666 169.801 51.3108 167.727 51.1247 165.671C51.1247 165.225 51.0317 164.741 50.9852 164.323C50.9387 163.904 50.8829 163.606 50.8271 163.262H61.6444C61.6444 163.262 61.5793 163.69 61.4956 164.406C61.4305 165.048 61.3468 165.904 61.2817 166.871C61.198 168.155 61.1422 169.661 61.1794 171.085C61.7002 171.261 62.2304 171.457 62.7606 171.661L63.7837 172.015C64.193 172.164 64.5929 172.294 65.0208 172.433L65.9509 172.712C66.0748 172.754 66.196 172.804 66.3137 172.861V172.861Z" fill="white" stroke="#263238" stroke-linecap="round" stroke-linejoin="round"/>
<path d="M50.9852 164.285C50.9852 164.285 53.0035 169.531 55.9334 170.424C58.8633 171.317 61.5142 164.406 61.5142 164.406C61.5142 164.406 57.3844 168.815 55.8497 168.127C54.315 167.438 51.0038 164.323 51.0038 164.323" fill="#263238"/>
<path d="M49.2458 135.312C46.5124 137.773 44.345 140.797 42.8931 144.176C41.563 146.966 40.4375 150.175 41.4607 153.096C42.0729 154.546 42.9391 155.875 44.0185 157.021C46.0276 159.43 48.8459 166.155 50.8549 168.564C50.9852 164.276 47.3949 157.347 47.7762 153.747C48.2381 150.966 49.1524 148.28 50.4829 145.795C51.8359 142.535 53.6055 139.465 55.7474 136.661C56.9659 135.191 60.8817 132.577 56.9287 132.261C54.3057 132.047 51.227 133.684 49.2458 135.312Z" fill="#263238" stroke="#263238" stroke-linecap="round" stroke-linejoin="round"/>
<path d="M46.7159 149.934C46.7159 149.934 45.33 147.246 43.8697 149.794C42.8186 151.654 44.3347 154.584 44.9858 155.672C45.2019 155.982 45.4945 156.231 45.8352 156.394C46.1759 156.557 46.553 156.629 46.9298 156.603L46.7159 149.934Z" fill="white" stroke="#263238" stroke-linecap="round" stroke-linejoin="round"/>
<path d="M64.9278 159.644C64.039 161.401 62.881 163.008 61.4956 164.406L60.6585 165.271C58.9285 166.983 57.0589 168.341 55.8312 168.062C54.7615 167.848 53.3663 166.75 51.9991 165.346C51.6549 165.002 51.3201 164.63 50.9852 164.257C49.4965 162.629 48.2184 160.819 47.181 158.872C46.8928 158.142 46.7081 157.375 46.6322 156.593C46.3975 154.263 46.3168 151.921 46.3904 149.58C46.3904 148.752 46.3904 148.092 46.3904 147.72C46.3904 146.101 52.4548 140.474 52.4548 140.474C52.6183 140.414 52.7939 140.395 52.9664 140.418C54.0094 140.608 55.0147 140.966 55.9428 141.479C59.6168 143.265 64.7418 146.808 65.1138 148.157C65.6812 150.12 65.4673 157.895 64.9278 159.644Z" fill="white" stroke="#263238" stroke-linecap="round" stroke-linejoin="round"/>
<path d="M52.8826 152.184C52.8826 152.836 52.6408 153.366 52.371 153.366C52.1013 153.366 51.8316 152.854 51.8316 152.184C51.8316 151.515 52.0734 150.985 52.371 150.985C52.6687 150.985 52.8826 151.533 52.8826 152.184Z" fill="#263238"/>
<path d="M59.812 150.994C60.1097 150.994 60.3515 151.524 60.3515 152.184C60.3515 152.845 60.1097 153.366 59.812 153.366C59.5144 153.366 59.2726 152.836 59.2726 152.184C59.2726 151.533 59.5144 150.994 59.812 150.994Z" fill="#263238"/>
<path d="M49.4226 149.255C49.4226 149.255 50.3528 147.394 53.6454 147.962" stroke="#263238" stroke-linecap="round" stroke-linejoin="round"/>
<path d="M62.8722 149.255C62.8722 149.255 61.942 147.394 58.6494 147.962" stroke="#263238" stroke-linecap="round" stroke-linejoin="round"/>
<path d="M56.7798 156.733C57.1143 156.712 57.4333 156.584 57.6895 156.368C57.9458 156.152 58.1258 155.859 58.2029 155.533C58.2029 155.533 56.3985 152.743 56.9472 150.008" stroke="#263238" stroke-linecap="round" stroke-linejoin="round"/>
<path d="M45.544 143.423C44.7946 144.439 44.2281 145.579 43.8698 146.79" stroke="white" stroke-linecap="round" stroke-linejoin="round"/>
<path d="M53.3199 135.982C53.3199 135.982 52.2874 137.693 47.7391 141.181C47.446 141.393 47.1664 141.623 46.902 141.869" stroke="white" stroke-linecap="round" stroke-linejoin="round"/>
<path d="M38.7353 190.515C38.1153 199.357 37.4952 208.206 36.8751 217.061V216.382" fill="#263238"/>
<path d="M38.7353 190.515C38.1153 199.357 37.4952 208.206 36.8751 217.061V216.382" stroke="#263238" stroke-linecap="round" stroke-linejoin="round"/>
<path d="M97.4913 161.318C98.332 160.99 99.2405 160.872 100.137 160.976C101.034 161.08 101.891 161.402 102.635 161.914C104.118 162.964 105.198 164.49 105.695 166.239C106.288 167.98 106.228 169.877 105.528 171.578C105.165 172.416 104.581 173.14 103.839 173.672C103.097 174.205 102.224 174.526 101.314 174.6C99.9574 174.583 98.6463 174.108 97.5936 173.252C94.1149 170.647 92.3756 163.523 97.4913 161.318Z" fill="white" stroke="#263238" stroke-linecap="round" stroke-linejoin="round"/>
<path d="M105.193 131.619C105.193 131.731 105.193 132.466 105.258 132.596C105.584 134.028 106.272 137.609 104.533 138.335C105.193 140.688 106.811 156.063 106.597 163.904C106.542 166.248 106.132 169.029 104.03 170.034C100.486 171.717 97.1194 167.615 97.5194 164.406C98.1426 160.025 97.9286 155.561 98.4495 151.133C99.0169 146.539 100.059 141.832 98.9146 137.34C98.6355 137.033 96.8497 133.489 96.2637 132.512C96.0008 132.095 95.7944 131.645 95.6498 131.173C95.4208 129.568 95.3089 127.948 95.315 126.327C95.8451 125.322 96.5334 126.253 96.8962 126.913C97.192 127.718 97.294 128.582 97.1938 129.434C97.1594 129.642 97.1886 129.856 97.2775 130.047C97.3556 130.157 97.4612 130.244 97.5838 130.3C97.7063 130.355 97.8413 130.377 97.9751 130.364C99.1192 130.196 99.0727 129.238 99.0541 128.503C99.0541 126.039 99.0541 123.574 99.0541 121.128C99.0541 120.718 99.1843 119.611 99.5749 119.574C99.9656 119.537 100.552 119.853 100.607 121.165C100.672 122.644 100.673 127.201 100.673 127.201C100.709 127.239 100.755 127.266 100.806 127.281C100.856 127.295 100.91 127.297 100.961 127.285C101.054 127.285 101.091 127.118 101.128 127.025C101.677 124.736 102.235 122.448 102.784 120.16C102.849 119.891 103.249 119.332 103.537 119.332C104.226 119.332 104.244 120.132 104.281 120.365C104.523 121.593 102.802 126.653 102.514 127.806C102.514 128.011 102.514 128.317 102.728 128.262L105.425 122.82C105.55 122.503 105.747 122.218 106.001 121.989C106.254 121.76 106.557 121.592 106.886 121.5C106.931 121.485 106.98 121.485 107.025 121.5C107.074 121.528 107.113 121.57 107.137 121.621C107.397 122.086 107.137 122.727 106.988 123.239C106.839 123.751 104.821 127.508 104.105 129.024C104.002 129.238 103.835 129.722 104.04 129.954C104.244 130.187 104.616 129.741 104.765 129.434C105.221 128.503 105.649 127.629 106.067 126.718C106.197 126.448 106.393 126.067 106.7 126.132C108.513 126.522 105.937 130.327 105.193 131.619Z" fill="white" stroke="#263238" stroke-linecap="round" stroke-linejoin="round"/>
<path d="M100.189 130.819C101.125 131.561 101.938 132.446 102.598 133.442C102.923 133.943 103.141 134.506 103.237 135.095C103.333 135.684 103.305 136.287 103.156 136.865C103.111 137.016 103.052 137.163 102.979 137.302" fill="white"/>
<path d="M100.189 130.819C101.125 131.561 101.938 132.446 102.598 133.442C102.923 133.943 103.141 134.506 103.237 135.095C103.333 135.684 103.305 136.287 103.156 136.865C103.111 137.016 103.052 137.163 102.979 137.302" stroke="#263238" stroke-linecap="round" stroke-linejoin="round"/>
<path d="M73.9871 188.924C74.9714 190.909 75.6338 193.038 75.9496 195.231C76.2194 197.426 76.3031 199.146 74.8056 205.313" stroke="#263238" stroke-linecap="round" stroke-linejoin="round"/>
<path d="M52.9942 139.079C52.8668 139.459 52.8349 139.865 52.9011 140.26C53.0776 140.758 53.4022 141.19 53.8313 141.497C56.8041 144.103 60.1295 146.276 63.7092 147.952C64.1582 148.069 64.5473 148.35 64.8003 148.738C65.0532 149.127 65.1517 149.597 65.0765 150.054V157.244C65.1222 157.986 65.05 158.73 64.8625 159.449C64.3417 161.123 63.1883 162.472 62.3512 164.016C61.5002 165.48 61.069 167.15 61.1048 168.843C60.8723 167.066 67.0855 163.625 68.7691 156.63C69.0016 155.645 73.8382 149.775 70.9363 142.883C68.1459 136.27 63.7557 133.424 62.2768 133.08C61.2729 132.786 60.2136 132.736 59.1865 132.933C58.1595 133.131 57.1941 133.57 56.3705 134.214C54.7452 135.425 53.5596 137.133 52.9942 139.079V139.079Z" fill="#263238" stroke="#263238" stroke-linecap="round" stroke-linejoin="round"/>
<path d="M59.0866 159.235C58.5564 159.346 58.0169 159.449 57.4774 159.514C55.6172 159.746 53.6267 159.458 52.4083 158.1C52.5013 159.318 53.3384 163.923 55.8404 164.053C58.3425 164.183 59.0866 159.235 59.0866 159.235Z" stroke="#263238" stroke-linecap="round" stroke-linejoin="round"/>
<path d="M56.6683 136.27C57.7411 138.706 59.4504 140.807 61.6165 142.353C63.1884 143.479 64.9836 144.288 66.4253 145.571C68.2855 147.273 69.504 149.971 68.7878 152.417" stroke="white" stroke-linecap="round" stroke-linejoin="round"/>
<path d="M76.1078 173.847C74.3158 175.285 73.1358 177.349 72.8058 179.623C72.4851 181.588 72.7269 183.603 73.5034 185.436" stroke="#263238" stroke-linecap="round" stroke-linejoin="round"/>
<path d="M41.4606 189.194C41.3118 191.631 39.7957 193.742 38.3261 195.705Z" fill="#263238"/>
<path d="M41.4606 189.194C41.3118 191.631 39.7957 193.742 38.3261 195.705" stroke="#263238" stroke-linecap="round" stroke-linejoin="round"/>
<path d="M37.8332 207.824C38.5719 209.061 39.5607 210.13 40.7363 210.963C41.9119 211.796 43.2484 212.374 44.6603 212.661" stroke="#263238" stroke-linecap="round" stroke-linejoin="round"/>
<path d="M73.4197 209.275C73.4197 209.275 70.9176 212.996 62.4163 213.777" stroke="#263238" stroke-linecap="round" stroke-linejoin="round"/>
<path d="M322.46 176.675C322.46 176.675 290.045 186.72 283.944 178.786L284.771 138.316H289.692L295.477 166.825L322.041 161.96C322.041 161.96 325.446 172.508 322.46 176.675Z" fill="white"/>
<path d="M308.806 178.089C306.947 178.827 305.173 179.763 303.513 180.879C305.708 181.576 308.052 180.693 310.247 179.995C313.146 179.105 316.101 178.409 319.093 177.912C319.232 177.084 318.163 175.196 317.744 174.461C316.982 173.177 316.814 173.066 315.531 173.698C313.196 174.87 311.205 176.907 308.806 178.089Z" fill="#B75400"/>
<path d="M322.46 176.675C322.46 176.675 290.045 186.72 283.944 178.786L284.771 138.316H289.692L295.477 166.825L322.041 161.96C322.041 161.96 325.446 172.508 322.46 176.675Z" stroke="#263238" stroke-linecap="round" stroke-linejoin="round"/>
<path d="M319.279 177.735L324.971 212.782C324.823 235.496 335.658 232.082 343.183 232.017C351.88 231.943 365.078 223.32 358.605 209.899L361.097 161.318L345.946 160.165C340.951 159.774 320.488 160.416 318.86 163.03C314.638 169.81 319.279 177.735 319.279 177.735Z" fill="white"/>
<path d="M320.172 180.628C323.553 193.417 331.661 204.446 342.858 211.489C341.646 211.298 340.462 210.957 339.333 210.475C338.197 209.986 336.925 209.917 335.743 210.28C335.457 210.383 335.195 210.541 334.971 210.746C334.746 210.95 334.565 211.197 334.436 211.471C334.307 211.746 334.234 212.044 334.22 212.347C334.207 212.65 334.253 212.953 334.357 213.238C334.628 213.674 334.997 214.04 335.436 214.308C337.282 215.606 339.302 216.639 341.435 217.377C339.564 217.185 337.674 217.33 335.854 217.805C335.519 219.423 337.324 220.595 338.747 221.386C341.017 222.724 342.962 224.551 344.439 226.734C339.445 226.745 334.455 227.03 329.492 227.59C328.838 227.736 328.154 227.671 327.539 227.404C326.895 226.924 326.462 226.214 326.33 225.423C325.224 221.553 324.581 217.566 324.414 213.545C324.321 211.285 324.414 209.006 324.116 206.764C323.876 204.997 323.547 203.243 323.13 201.509C321.685 194.8 320.578 188.038 319.809 181.223C319.465 181.251 320.172 180.628 320.172 180.628Z" fill="#B75400"/>
<path d="M358.596 177.837C357.341 177.435 356.171 176.804 355.145 175.977C355.433 177.372 357.517 179.781 358.735 180.525C358.986 180.684 359.349 180.814 359.572 180.6C359.796 180.386 359.944 179.837 360.168 179.67L358.596 177.837Z" fill="#B75400"/>
<path d="M319.279 177.735L324.971 212.782C324.823 235.496 335.658 232.082 343.183 232.017C351.88 231.943 365.078 223.32 358.605 209.899L361.097 161.318L345.946 160.165C340.951 159.774 320.488 160.416 318.86 163.03C314.638 169.81 319.279 177.735 319.279 177.735Z" stroke="#263238" stroke-linecap="round" stroke-linejoin="round"/>
<path d="M330.357 159.449C328.726 162.434 327.942 165.808 328.087 169.206C328.085 169.502 328.142 169.796 328.255 170.071C328.673 170.899 329.817 170.899 330.738 171.001C334.319 171.457 336.542 175.233 339.919 176.498C340.037 176.571 340.169 176.619 340.306 176.64C340.444 176.661 340.584 176.654 340.719 176.619C340.853 176.584 340.979 176.523 341.09 176.438C341.2 176.353 341.292 176.247 341.36 176.126C342.83 174.266 343.351 171.652 345.36 170.452C346.234 169.931 347.341 169.717 347.945 168.899C348.634 167.969 348.327 166.629 347.992 165.495C347.443 163.634 346.829 161.7 345.406 160.407C343.89 159.223 342.028 158.57 340.105 158.547C337.29 158.316 334.457 158.581 331.733 159.328C331.771 159.681 330.357 159.449 330.357 159.449Z" fill="#B75400" stroke="#263238" stroke-linecap="round" stroke-linejoin="round"/>
<path d="M375.375 183.232C373.102 179.922 371.427 176.239 370.427 172.35C370.062 170.401 369.495 168.497 368.734 166.667C368.016 165.253 366.979 164.026 365.705 163.081C364.432 162.137 362.956 161.502 361.395 161.225C360.729 161.079 360.036 161.111 359.386 161.318C358.037 161.83 357.442 163.383 357.172 164.797C356.589 167.834 356.761 170.967 357.675 173.922C358.298 175.931 365.785 190.496 370.696 196.142C370.268 193.296 373.542 183.781 375.375 183.232Z" fill="white"/>
<path d="M360.688 180.377L365.283 189.036C365.943 190.273 366.687 191.594 367.971 192.133C367.163 189.272 366.704 186.324 366.604 183.353C366.654 181.86 366.482 180.368 366.092 178.926C365.906 179.084 365.711 178.414 365.711 178.414C365.506 178.795 364.967 178.805 364.548 178.721C361.544 178.089 359.479 175.41 357.693 172.917C357.461 173.752 357.424 174.629 357.585 175.481C357.746 176.333 358.102 177.136 358.623 177.828C358.623 177.828 360.539 180.088 360.688 180.377Z" fill="#B75400"/>
<path d="M375.375 183.232C373.102 179.922 371.427 176.239 370.427 172.35C370.062 170.401 369.495 168.497 368.734 166.667C368.016 165.253 366.979 164.026 365.705 163.081C364.432 162.137 362.956 161.502 361.395 161.225C360.729 161.079 360.036 161.111 359.386 161.318C358.037 161.83 357.442 163.383 357.172 164.797C356.589 167.834 356.761 170.967 357.675 173.922C358.298 175.931 365.785 190.496 370.696 196.142C370.268 193.296 373.542 183.781 375.375 183.232Z" stroke="#263238" stroke-linecap="round" stroke-linejoin="round"/>
<path d="M368.92 193.649C363.916 184.06 366.334 161.96 366.185 158.407L372.789 158.054C373.45 158.054 376.51 176.898 378.593 184.72C380.453 191.845 378.668 199.054 375.375 199.054C372.64 199.054 369.971 195.668 368.92 193.649Z" fill="white" stroke="#263238" stroke-linecap="round" stroke-linejoin="round"/>
<path d="M309.29 168.75C313.94 161.96 323.065 161.421 323.065 161.421" stroke="#263238" stroke-linecap="round" stroke-linejoin="round"/>
<path d="M291.347 172.554C292.754 171.262 293.856 169.674 294.575 167.904Z" fill="white"/>
<path d="M291.347 172.554C292.754 171.262 293.856 169.674 294.575 167.904" stroke="#263238" stroke-linecap="round" stroke-linejoin="round"/>
<path d="M325.902 204.644C328.552 208.987 345.722 213.629 352.568 212.633" stroke="#263238" stroke-linecap="round" stroke-linejoin="round"/>
<path d="M330.757 216.903C335.703 217.754 340.772 217.56 345.639 216.335" stroke="#263238" stroke-linecap="round" stroke-linejoin="round"/>
<path d="M353.535 174.759L356.809 179.195C357.256 179.8 357.879 180.479 358.614 180.311" stroke="#263238" stroke-linecap="round" stroke-linejoin="round"/>
<path d="M377.867 343.055C377.579 344.237 377.486 345.641 378.333 346.525C379.179 347.408 380.407 347.39 381.551 347.371L385.485 347.297C387.002 347.372 388.519 347.135 389.941 346.599C390.651 346.323 391.26 345.835 391.684 345.201C392.109 344.567 392.328 343.818 392.312 343.055C392.215 342.466 392.027 341.894 391.754 341.363C391.401 340.6 391.047 339.828 390.703 339.065C386.36 329.494 379.728 335.317 377.867 343.055Z" fill="white" stroke="#263238" stroke-linecap="round" stroke-linejoin="round"/>
<path d="M372.324 331.773C372.462 336.166 372.093 340.56 371.226 344.869C371.022 345.846 371.226 347.325 372.157 347.232C372.521 347.176 372.853 346.987 373.087 346.701C376.505 343.329 378.951 339.097 380.165 334.452C380.348 333.969 380.433 333.455 380.415 332.939C380.398 332.424 380.278 331.916 380.063 331.447C379.808 331.071 379.494 330.738 379.133 330.461C375.979 327.941 372.036 325.439 372.324 331.773Z" fill="white" stroke="#263238" stroke-linecap="round" stroke-linejoin="round"/>
<path d="M361.525 219.349C361.525 219.349 366.427 227.869 367.478 229.85C368.529 231.831 390.731 261.009 394.991 282.253C395.791 286.29 379.412 331.438 379.412 331.438L375.691 329.336C375.691 329.336 378.277 288.159 377.644 284.737C377.012 281.314 360.67 256.052 360.67 256.052C360.67 256.052 351.545 249.345 347.787 241.551L361.525 219.349Z" fill="#263238"/>
<path d="M362.055 240.695C362.055 240.695 359.265 246.908 359.265 247.801C359.265 248.694 374.612 297.191 379.123 308.408C381.976 315.632 384.49 323.024 386.667 330.582C386.667 330.582 388.415 332.88 387.094 335.233C385.774 337.586 380.518 339.13 379.439 337.028C378.361 334.926 367.729 324.006 363.246 313.143C358.763 302.279 352.457 284.123 348.866 277.361C344.164 268.72 339.989 259.802 336.365 250.657C331.854 239.114 327.241 226.669 327.241 226.669C329.115 226.838 330.997 226.891 332.877 226.827C337.305 226.676 341.689 225.899 345.899 224.52C355.703 221.228 359.944 214.921 359.944 214.921C359.944 214.921 362.372 221.497 363.004 222.772L362.055 240.695Z" fill="#263238"/>
<path d="M393.354 286.411C392.393 288.057 391.101 289.485 389.559 290.606" stroke="white" stroke-linecap="round" stroke-linejoin="round"/>
<path d="M394.554 283.704C394.414 284.157 394.247 284.602 394.052 285.034" stroke="white" stroke-linecap="round" stroke-linejoin="round"/>
<path d="M353.191 226.204C355.666 230.464 357.982 236.593 357.61 241.504C357.41 242.396 357.098 243.259 356.679 244.072" stroke="white" stroke-linecap="round" stroke-linejoin="round"/>
<path d="M338.216 230.938C338.486 233.31 338.849 237.254 338.328 239.579C337.888 241.957 336.523 244.064 334.533 245.439" stroke="white" stroke-linecap="round" stroke-linejoin="round"/>
<path d="M359.312 221.962C359.852 222.636 360.291 223.385 360.614 224.185C361.244 225.336 362.11 226.339 363.155 227.131C364.2 227.923 365.401 228.485 366.678 228.78" stroke="white" stroke-linecap="round" stroke-linejoin="round"/>
<path d="M351.415 231.468C354.698 238.649 357.21 245.848 362.307 258.051" stroke="white" stroke-linecap="round" stroke-linejoin="round"/>
<path d="M349.666 227.794C349.945 228.352 350.215 228.911 350.485 229.469" stroke="white" stroke-linecap="round" stroke-linejoin="round"/>
<path d="M376.993 282.728C378.498 285.628 380.412 288.296 382.676 290.652" stroke="white" stroke-linecap="round" stroke-linejoin="round"/>
<path d="M378.547 285.406C379.532 289.957 381.331 294.293 383.858 298.205" stroke="white" stroke-linecap="round" stroke-linejoin="round"/>
<path d="M355.424 285.639C348.178 270.18 340.449 254.842 330.952 231.468" stroke="white" stroke-linecap="round" stroke-linejoin="round"/>
<path d="M357.061 290.131C356.884 289.592 356.698 289.052 356.503 288.504" stroke="white" stroke-linecap="round" stroke-linejoin="round"/>
<path d="M382.109 337.661C380.249 335.233 366.688 316.268 363.32 307.673C361.079 301.944 359.386 297.898 357.74 292.187" stroke="white" stroke-linecap="round" stroke-linejoin="round"/>
<path d="M376.993 301.163L383.439 320.109" stroke="white" stroke-linecap="round" stroke-linejoin="round"/>
<path d="M372.649 158.063L370.696 158.221C368.221 158.661 365.679 158.543 363.255 157.877C361.702 157.496 358.102 156.379 357.674 156.305C356.605 156.076 355.525 155.902 354.438 155.784C351.154 155.589 352.819 154.361 354.187 154.417C355.991 154.501 356.596 154.463 357.981 154.566C357.814 154.473 357.302 154.37 357.293 153.97C357.293 152.994 358.577 153.04 358.577 153.04C358.577 153.04 357.172 152.445 357.368 151.71C357.563 150.975 358.502 150.78 359.098 150.836C359.098 150.836 358.307 150.454 358.344 150.045C358.512 148.464 361.758 148.352 361.758 148.352C360.973 148.002 360.238 147.548 359.572 147.004C359.329 146.742 359.159 146.422 359.079 146.074C359.062 145.908 359.089 145.74 359.158 145.589C359.228 145.437 359.337 145.307 359.473 145.212C359.61 145.117 359.77 145.061 359.936 145.049C360.103 145.036 360.269 145.069 360.418 145.143C361.258 145.703 362.068 146.305 362.846 146.948C363.851 147.664 365.013 148.12 366.074 148.762C367.107 149.646 367.941 150.74 368.52 151.971C368.687 152.231 372.649 158.063 372.649 158.063Z" fill="white" stroke="#263238" stroke-linecap="round" stroke-linejoin="round"/>
<path d="M284.771 138.316V133.191C284.759 130.62 285.136 128.061 285.888 125.602C286.315 124.244 286.818 123.062 287.273 122.886C288.12 122.579 288.492 126.011 288.492 126.011C287.856 123.259 287.448 120.459 287.273 117.64C287.273 114.654 291.292 127.053 291.292 127.053L289.692 138.316H284.771Z" fill="white" stroke="#263238" stroke-linecap="round" stroke-linejoin="round"/>
<path d="M289.627 129.982C290.113 129.607 290.475 129.096 290.668 128.513Z" fill="white"/>
<path d="M289.627 129.982C290.113 129.607 290.475 129.096 290.668 128.513" stroke="#263238" stroke-linecap="round" stroke-linejoin="round"/>
<path d="M328.58 149.004C330.318 151.928 331.278 155.248 331.371 158.649C331.538 164.304 338.086 172.219 339.956 172.601C341.825 172.982 343.555 163.672 343.472 160.853C343.388 158.035 342.346 150.25 342.346 150.25C342.346 150.25 333.389 143.479 328.58 149.004Z" fill="white" stroke="#263238" stroke-linecap="round" stroke-linejoin="round"/>
<path d="M331.213 156.491C331.213 156.491 339.798 168.201 343.165 156.296C346.532 144.39 333.724 159.551 331.213 156.491Z" fill="#263238"/>
<path d="M345.704 148.073C345.248 155.021 342.076 158.928 338.421 159.616C335.082 160.23 330.199 156.826 327.762 151.775C327.576 151.654 324.609 149.599 323.902 149.097C323.533 148.838 323.231 148.494 323.024 148.094C322.817 147.694 322.709 147.25 322.711 146.799C322.735 146.367 322.887 145.951 323.149 145.606C323.411 145.262 323.771 145.003 324.181 144.864H324.264C324.683 144.773 325.119 144.806 325.52 144.957C324.906 142.586 324.404 140.177 324.023 137.749C324.199 132.168 326.05 127.611 332.003 127.164C337.956 126.718 342.932 130.048 343.165 132.447C343.332 134.308 343.937 139.228 344.476 144.316C344.625 145.636 345.806 146.511 345.704 148.073Z" fill="white" stroke="#263238" stroke-linecap="round" stroke-linejoin="round"/>
<path d="M343.165 140.037C343.165 140.037 339.333 138.279 339.984 143.99C340.114 145.116 342.207 146.781 342.207 146.781C342.207 146.781 341.667 148.464 340.672 148.464" fill="white"/>
<path d="M343.165 140.037C343.165 140.037 339.333 138.279 339.984 143.99C340.114 145.116 342.207 146.781 342.207 146.781C342.207 146.781 341.667 148.464 340.672 148.464" stroke="#263238" stroke-linecap="round" stroke-linejoin="round"/>
<path d="M335.761 141.99C335.761 141.99 333.808 140.8 332.468 141.535C331.77 141.838 331.175 142.339 330.757 142.976" fill="white"/>
<path d="M335.761 141.99C335.761 141.99 333.808 140.8 332.468 141.535C331.77 141.838 331.175 142.339 330.757 142.976" stroke="#263238" stroke-linecap="round" stroke-linejoin="round"/>
<path d="M334.645 145.283C334.794 145.971 334.645 146.585 334.245 146.669C333.845 146.753 333.454 146.25 333.315 145.562C333.175 144.874 333.315 144.26 333.724 144.176C334.133 144.092 334.505 144.585 334.645 145.283Z" fill="#263238"/>
<path d="M342.197 143.274C342.346 143.962 342.197 144.576 341.797 144.66C341.397 144.744 341.007 144.241 340.867 143.562C340.728 142.883 340.867 142.251 341.267 142.176C341.667 142.102 342.058 142.595 342.197 143.274Z" fill="#263238"/>
<path d="M323.576 130.541C322.896 131.207 322.424 132.057 322.218 132.987C321.661 134.953 321.5 137.011 321.744 139.04C321.989 141.07 322.633 143.03 323.641 144.809C324.261 144.733 324.89 144.758 325.502 144.883C326.153 145.05 326.99 146.167 327.297 146.743C327.566 147.358 327.72 148.017 327.753 148.687C327.604 146.92 327.464 145.162 327.315 143.395C327.216 142.688 327.247 141.969 327.408 141.274V141.274C327.864 139.823 327.362 136.4 327.492 133.34C331.352 138.056 336.961 137.219 338.821 137.061C341.611 136.828 343.992 133.973 343.844 131.936C343.695 129.899 343.146 124.653 333.947 124.113C331.921 123.898 329.877 124.324 328.106 125.332C327.544 125.702 327.068 126.186 326.707 126.754C326.346 127.322 326.11 127.959 326.013 128.624C325.883 129.48 326.209 129.555 325.557 129.973C324.906 130.392 324.218 129.992 323.576 130.541Z" fill="#263238" stroke="#263238" stroke-linecap="round" stroke-linejoin="round"/>
<path d="M335.761 151.738C335.761 151.738 337.128 153.245 339.984 152.25Z" fill="white"/>
<path d="M335.761 151.738C335.761 151.738 337.128 153.245 339.984 152.25" stroke="#263238" stroke-linecap="round" stroke-linejoin="round"/>
</svg>
