<svg width="356" height="350" viewBox="0 0 356 350" fill="none" xmlns="http://www.w3.org/2000/svg">
<path d="M177.525 349.431C267.866 349.431 341.102 333.431 341.102 313.694C341.102 293.957 267.866 277.957 177.525 277.957C87.1833 277.957 13.9473 293.957 13.9473 313.694C13.9473 333.431 87.1833 349.431 177.525 349.431Z" fill="#9E9E9E"/>
<path opacity="0.5" d="M177.525 349.431C267.866 349.431 341.102 333.431 341.102 313.694C341.102 293.957 267.866 277.957 177.525 277.957C87.1833 277.957 13.9473 293.957 13.9473 313.694C13.9473 333.431 87.1833 349.431 177.525 349.431Z" fill="white"/>
<path d="M306.277 205.561L301.364 203.413C301.73 204.315 302.247 205.148 302.894 205.874C303.622 206.715 304.242 207.644 304.738 208.64C304.738 208.64 300.129 205.257 297.06 204.639C294.93 204.256 292.771 204.052 290.607 204.031L295.216 206.179L291.529 207.1L292.451 208.335H285.998L290.303 211.405L288.459 213.866L286.616 216.936L291.529 215.405L290.303 218.475L292.764 217.249L291.225 220.014H288.109L292.1 222.162H289.335L290.561 223.084L288.718 224.623L292.718 225.241L290.202 227.001L296.405 226.163L294.257 229.232L299.475 228.006V229.545H328.372L329.192 227.001L330.216 225.849L333.294 223.701L329.911 223.397L331.451 222.475L330.216 221.24L332.373 219.701L330.833 217.553L332.99 213.249L328.381 212.631L329.303 210.483V206.483L324.998 206.179L325.616 201.874L322.233 202.796L320.39 203.109L317.928 200.648L317.007 204.953L313.32 201.57L311.476 200.335L310.858 204.022L307.789 203.404L306.277 205.561Z" fill="#B75400"/>
<path opacity="0.4" d="M306.277 205.561L301.364 203.413C301.73 204.315 302.247 205.148 302.894 205.874C303.622 206.715 304.242 207.644 304.738 208.64C304.738 208.64 300.129 205.257 297.06 204.639C294.93 204.256 292.771 204.052 290.607 204.031L295.216 206.179L291.529 207.1L292.451 208.335H285.998L290.303 211.405L288.459 213.866L286.616 216.936L291.529 215.405L290.303 218.475L292.764 217.249L291.225 220.014H288.109L292.1 222.162H289.335L290.561 223.084L288.718 224.623L292.718 225.241L290.202 227.001L296.405 226.163L294.257 229.232L299.475 228.006V229.545H328.372L329.192 227.001L330.216 225.849L333.294 223.701L329.911 223.397L331.451 222.475L330.216 221.24L332.373 219.701L330.833 217.553L332.99 213.249L328.381 212.631L329.303 210.483V206.483L324.998 206.179L325.616 201.874L322.233 202.796L320.39 203.109L317.928 200.648L317.007 204.953L313.32 201.57L311.476 200.335L310.858 204.022L307.789 203.404L306.277 205.561Z" fill="white"/>
<path opacity="0.2" d="M301.364 229.545H328.409L329.073 227.49L328.409 227.398L329.331 225.25V221.249L325.026 220.945L325.644 216.641L322.261 217.562L320.417 217.876L317.956 215.415L317.034 219.719L313.347 216.336L311.504 215.101L310.886 218.788L307.817 218.171L306.277 220.318L301.364 218.171C301.73 219.073 302.247 219.905 302.894 220.632C303.622 221.473 304.242 222.402 304.738 223.397C304.738 223.397 300.129 220.014 297.06 219.397C295.346 219.079 293.612 218.884 291.87 218.816L291.63 219.268L295.216 220.936L291.529 221.858L292.1 222.162H291.704L292.405 223.084H290.561L288.718 224.605L292.718 225.222L290.202 226.983L296.405 226.144L294.257 229.214L299.475 227.988V229.527L301.364 229.545Z" fill="#212121"/>
<path d="M316.832 287.571H301.807C300.555 287.567 299.338 287.155 298.34 286.398C297.343 285.642 296.618 284.581 296.276 283.377C291.695 267.322 289.602 250.659 290.073 233.97L290.266 227.001H329.257L329.451 233.454C329.957 250.053 327.93 266.632 323.441 282.621C323.029 284.054 322.16 285.312 320.967 286.206C319.774 287.099 318.322 287.579 316.832 287.571Z" fill="#212121" stroke="#212121" stroke-width="0.89" stroke-linecap="round" stroke-linejoin="round"/>
<path d="M327.036 29.7335H214.524V191.228H327.036V29.7335Z" stroke="#212121" stroke-width="0.89" stroke-linecap="round" stroke-linejoin="round"/>
<path d="M321.182 36.1121H220.378V184.849H321.182V36.1121Z" stroke="#212121" stroke-width="0.89" stroke-linecap="round" stroke-linejoin="round"/>
<path d="M273.951 36.1121H267.609V184.849H273.951V36.1121Z" stroke="#212121" stroke-width="0.89" stroke-linecap="round" stroke-linejoin="round"/>
<path d="M65.4927 272.583H179.377L179.377 35.5222H65.4927L65.4927 272.583Z" stroke="#212121" stroke-width="0.89" stroke-miterlimit="10"/>
<path d="M183.525 29.7335V277.957H176.686V36.9786H66.7095V277.957H59.1141V29.7335H183.525Z" stroke="#212121" stroke-width="0.89" stroke-miterlimit="10"/>
<path d="M79.4113 262.803H165.44L165.44 46.7587H79.4113L79.4113 262.803Z" stroke="#212121" stroke-width="0.89" stroke-miterlimit="10"/>
<path d="M88.9425 247.658H155.909V180.203H88.9425L88.9425 247.658Z" stroke="#212121" stroke-width="0.89" stroke-miterlimit="10"/>
<path d="M155.909 62.8896H130.496V169.935H155.909V62.8896Z" stroke="#212121" stroke-width="0.89" stroke-linecap="round" stroke-linejoin="round"/>
<path d="M114.365 62.8896H88.9518V169.935H114.365V62.8896Z" stroke="#212121" stroke-width="0.89" stroke-linecap="round" stroke-linejoin="round"/>
<path d="M68.5161 143.093H77.402V139.784H68.5161V143.093Z" fill="#212121" stroke="#212121" stroke-width="0.89" stroke-linecap="round" stroke-linejoin="round"/>
<path d="M68.5161 189.568H77.402V186.259H68.5161V189.568Z" fill="#212121" stroke="#212121" stroke-width="0.89" stroke-linecap="round" stroke-linejoin="round"/>
<path d="M78.6832 201.22C79.0719 201.22 79.4447 201.065 79.7196 200.79C79.9944 200.515 80.1488 200.143 80.1488 199.754V130.345C80.1538 130.149 80.1195 129.955 80.048 129.773C79.9766 129.59 79.8694 129.424 79.7328 129.284C79.5962 129.144 79.433 129.033 79.2527 128.957C79.0725 128.881 78.8788 128.842 78.6832 128.842C78.2945 128.842 77.9217 128.997 77.6469 129.271C77.372 129.546 77.2176 129.919 77.2176 130.308V199.717C77.2127 199.913 77.247 200.107 77.3184 200.289C77.3899 200.471 77.497 200.637 77.6336 200.777C77.7702 200.917 77.9335 201.029 78.1137 201.105C78.294 201.181 78.4876 201.22 78.6832 201.22Z" fill="#212121" stroke="#212121" stroke-width="0.89" stroke-linecap="round" stroke-linejoin="round"/>
<path d="M69.0138 171.594H73.7701V162.505H69.0138V171.594Z" stroke="#212121" stroke-width="0.89" stroke-linecap="round" stroke-linejoin="round"/>
<path d="M53.2054 303.582H190.365L174.538 279.238H69.0322L53.2054 303.582Z" stroke="#212121" stroke-width="0.89" stroke-miterlimit="10"/>
<path d="M342.374 277.957H177.312" stroke="#212121" stroke-width="0.89" stroke-linecap="round" stroke-linejoin="round"/>
<path d="M60.0358 277.957H4.0199" stroke="#212121" stroke-width="0.89" stroke-linecap="round" stroke-linejoin="round"/>
<path d="M203.233 242.754H119.794V313.685H203.233V242.754Z" fill="#B75400" stroke="#212121" stroke-width="0.89" stroke-linecap="round" stroke-linejoin="round"/>
<path d="M168.878 242.754H154.148V255.291H168.878V242.754Z" fill="white" stroke="#212121" stroke-width="0.445" stroke-linecap="round" stroke-linejoin="round"/>
<path d="M168.878 301.149H154.148V313.685H168.878V301.149Z" fill="white" stroke="#212121" stroke-width="0.445" stroke-linecap="round" stroke-linejoin="round"/>
<path d="M203.233 242.754L216.543 239.067V301.25L203.233 313.685V242.754Z" fill="#B75400" stroke="#212121" stroke-width="0.89" stroke-linecap="round" stroke-linejoin="round"/>
<path d="M216.543 239.067H129.897L119.794 242.754H203.233L216.543 239.067Z" fill="#B75400" stroke="#212121" stroke-width="0.89" stroke-linecap="round" stroke-linejoin="round"/>
<path d="M126.09 240.422H212.985" stroke="#212121" stroke-width="0.445" stroke-linecap="round" stroke-linejoin="round"/>
<path d="M168.878 242.754L181.378 239.114H164.177L154.148 242.754H168.878Z" fill="white" stroke="#212121" stroke-width="0.445" stroke-linecap="round" stroke-linejoin="round"/>
<path d="M163.587 210.281C163.587 210.281 162.288 237.611 160.066 244.386C157.845 251.161 156.176 300.937 156.075 303.379C155.974 305.822 162.684 313.316 165.717 314.809C168.749 316.302 167.45 316.865 164.279 317.316C161.108 317.768 157.356 317.528 155.586 314.994C153.817 312.459 150.056 311.979 150.056 311.979L149.899 317.777L148.839 317.842L147.567 310.698C147.187 309.069 147.358 307.361 148.056 305.84C149.208 303.075 147.788 300.761 147.18 291.452C146.571 282.142 143.594 267.274 144.11 260.001C144.627 252.728 148.268 242.487 147.871 236.459C147.475 230.43 147.217 214.982 147.217 214.982L163.587 210.281Z" fill="white"/>
<path d="M154.545 245.824C156.388 245.169 158.601 244.423 160.214 243.897C162.343 236.403 163.587 210.281 163.587 210.281L147.217 214.972C147.217 214.972 147.475 230.449 147.871 236.45C148.268 242.45 144.636 252.728 144.11 259.992C143.585 267.255 146.572 282.114 147.18 291.442C147.788 300.771 149.208 303.103 148.056 305.831C147.901 306.18 147.775 306.541 147.678 306.91C148.383 306.332 148.963 305.617 149.383 304.808C150.766 301.831 151.678 286.188 149.964 276.454C148.249 266.72 151.392 246.958 151.392 246.958L154.545 245.824Z" fill="#9E9E9E"/>
<path opacity="0.5" d="M154.545 245.824C156.388 245.169 158.601 244.423 160.214 243.897C162.343 236.403 163.587 210.281 163.587 210.281L147.217 214.972C147.217 214.972 147.475 230.449 147.871 236.45C148.268 242.45 144.636 252.728 144.11 259.992C143.585 267.255 146.572 282.114 147.18 291.442C147.788 300.771 149.208 303.103 148.056 305.831C147.901 306.18 147.775 306.541 147.678 306.91C148.383 306.332 148.963 305.617 149.383 304.808C150.766 301.831 151.678 286.188 149.964 276.454C148.249 266.72 151.392 246.958 151.392 246.958L154.545 245.824Z" fill="white"/>
<path d="M163.587 210.281C163.587 210.281 162.288 237.611 160.066 244.386C157.845 251.161 156.176 300.937 156.075 303.379C155.974 305.822 162.684 313.316 165.717 314.809C168.749 316.302 167.45 316.865 164.279 317.316C161.108 317.768 157.356 317.528 155.586 314.994C153.817 312.459 150.056 311.979 150.056 311.979L149.899 317.777L148.839 317.842L147.567 310.698C147.187 309.069 147.358 307.361 148.056 305.84C149.208 303.075 147.788 300.761 147.18 291.452C146.571 282.142 143.594 267.274 144.11 260.001C144.627 252.728 148.268 242.487 147.871 236.459C147.475 230.43 147.217 214.982 147.217 214.982L163.587 210.281Z" stroke="#212121" stroke-width="0.89" stroke-linecap="round" stroke-linejoin="round"/>
<path d="M147.567 310.68C147.283 309.462 147.318 308.192 147.668 306.992C149.512 309.407 154.416 312.523 158.167 313.629C160.212 314.275 162.375 314.46 164.5 314.173C164.952 314.431 165.366 314.652 165.717 314.827C168.749 316.312 167.45 316.883 164.279 317.335C161.108 317.786 157.356 317.547 155.586 315.012C153.817 312.477 150.056 311.998 150.056 311.998L149.899 317.796L148.839 317.86L147.567 310.68Z" fill="#212121" stroke="#212121" stroke-width="0.89" stroke-linecap="round" stroke-linejoin="round"/>
<path d="M152.305 209.147C152.305 209.147 150.895 238.275 148.48 245.639C146.065 253.004 143.963 306.937 143.871 309.564C143.779 312.191 150.839 321.861 154.13 323.474C157.421 325.087 155.974 325.704 152.572 326.239C149.171 326.774 145.051 326.469 143.133 323.713C141.599 321.77 139.725 320.121 137.603 318.846L137.437 325.142L136.285 325.216L134.911 317.445C134.493 315.679 134.674 313.824 135.427 312.173C136.681 309.214 135.206 306.495 134.506 296.383C133.805 286.271 129.242 267.808 129.814 259.955C130.385 252.101 134.312 243.529 133.879 237.012C133.446 230.495 130.689 211.202 130.689 211.202L152.305 209.147Z" fill="white"/>
<path d="M148.194 246.709C148.286 246.294 148.387 245.925 148.48 245.64C149.263 243.234 149.945 238.523 150.508 233.26L148.24 224.964C148.24 224.964 137.446 224.356 132.57 224.854C133.169 229.582 133.731 234.357 133.906 237.012C134.34 243.529 130.404 252.064 129.841 259.955C129.279 267.845 133.87 286.28 134.533 296.383C135.197 306.486 136.672 309.214 135.455 312.173C134.825 313.622 134.598 315.215 134.801 316.782C135.51 312.357 136.875 308.633 136.875 303.093C136.875 296.512 134.865 278.473 134.008 268.988C133.151 259.503 136.875 247.52 136.875 247.52C139.548 247.68 142.23 247.584 144.885 247.234C145.996 247.119 147.101 246.944 148.194 246.709Z" fill="#9E9E9E"/>
<path opacity="0.5" d="M148.194 246.709C148.286 246.294 148.387 245.925 148.48 245.64C149.263 243.234 149.945 238.523 150.508 233.26L148.24 224.964C148.24 224.964 137.446 224.356 132.57 224.854C133.169 229.582 133.731 234.357 133.906 237.012C134.34 243.529 130.404 252.064 129.841 259.955C129.279 267.845 133.87 286.28 134.533 296.383C135.197 306.486 136.672 309.214 135.455 312.173C134.825 313.622 134.598 315.215 134.801 316.782C135.51 312.357 136.875 308.633 136.875 303.093C136.875 296.512 134.865 278.473 134.008 268.988C133.151 259.503 136.875 247.52 136.875 247.52C139.548 247.68 142.23 247.584 144.885 247.234C145.996 247.119 147.101 246.944 148.194 246.709Z" fill="white"/>
<path d="M152.305 209.147C152.305 209.147 150.895 238.275 148.48 245.639C146.065 253.004 143.963 306.937 143.871 309.564C143.779 312.191 150.839 321.861 154.13 323.474C157.421 325.087 155.974 325.704 152.572 326.239C149.171 326.774 145.051 326.469 143.133 323.713C141.599 321.77 139.725 320.121 137.603 318.846L137.437 325.142L136.285 325.216L134.911 317.445C134.493 315.679 134.674 313.824 135.427 312.173C136.681 309.214 135.206 306.495 134.506 296.383C133.805 286.271 129.242 267.808 129.814 259.955C130.385 252.101 134.312 243.529 133.879 237.012C133.446 230.495 130.689 211.202 130.689 211.202L152.305 209.147Z" stroke="#212121" stroke-width="0.89" stroke-linecap="round" stroke-linejoin="round"/>
<path d="M134.856 317.399C134.534 316.068 134.569 314.675 134.957 313.362C136.93 315.989 141.824 320.957 145.899 322.174C148.119 322.877 150.467 323.078 152.775 322.764C153.273 323.04 153.697 323.289 154.102 323.474C157.393 325.087 155.946 325.704 152.545 326.239C149.143 326.774 145.023 326.469 143.106 323.713C141.571 321.77 139.697 320.121 137.575 318.846L137.409 325.142L136.257 325.216L134.856 317.399Z" fill="#212121" stroke="#212121" stroke-width="0.89" stroke-linecap="round" stroke-linejoin="round"/>
<path d="M178.022 105.088C178.022 105.088 181.092 109.697 186.374 104.212C191.655 98.7278 186.374 89.7037 178.456 82.6614C170.538 75.6191 157.789 72.5219 150.535 84.6432C143.281 96.7645 144.378 104.212 140.396 110.591C136.414 116.97 119.527 134.115 112.973 149.066C106.419 164.017 112.051 181.392 129.464 184.25C146.876 187.107 158.038 163.805 157.163 153.472C156.287 143.139 162.444 121.145 165.523 115.864C168.602 110.582 178.022 105.088 178.022 105.088Z" fill="#212121" stroke="#212121" stroke-width="0.89" stroke-linecap="round" stroke-linejoin="round"/>
<path d="M179.442 89.63C179.442 89.63 173.598 92.9761 161.486 95.0593C149.374 97.1425 141.852 106.72 141.852 106.72" stroke="white" stroke-width="0.89" stroke-linecap="round" stroke-linejoin="round"/>
<path d="M120.55 180.682C120.55 180.682 109.691 174.424 117.213 159.38C127.353 139.101 159.393 104.664 159.393 104.664" stroke="white" stroke-width="0.89" stroke-linecap="round" stroke-linejoin="round"/>
<path d="M200.716 200.74C199.794 198.371 195.886 194.361 195.25 193.477C194.614 192.592 183.212 164.902 183.212 164.902C183.212 164.902 182.391 148.374 182.106 140.125C181.912 134.253 181.553 126.962 180.317 124.27C180.109 123.689 179.837 123.132 179.506 122.611V122.537C177.248 119.025 172.436 116.665 168.39 115.661C163.136 114.343 160.14 115.098 160.14 115.098C160.14 115.098 150.922 116.02 143.262 120.159C135.602 124.298 135.575 133.654 136.699 140.438C137.824 147.222 141.013 161.242 141.013 161.805C141.013 162.367 130.699 172.497 125.454 185.052C120.209 197.606 127.703 238.007 127.703 238.007C127.703 238.007 132.579 241.197 146.452 241.197C160.324 241.197 168.012 235.417 168.012 235.417C168.012 235.417 172.888 198.178 171.948 184.121C171.561 177.02 170.81 169.944 169.699 162.92C169.699 162.92 170.289 162.09 171.109 160.818C171.492 164.254 172.766 167.53 174.805 170.322C177.312 173.502 191.72 193.965 191.72 193.965C192.069 195.367 192.306 196.794 192.429 198.233C192.614 200.473 194.688 202.943 194.688 202.943C194.688 202.943 194.125 207.681 194.688 208.013C195.25 208.345 196.043 206.215 196.043 206.215C196.043 206.215 195.333 209.091 196.642 208.981C197.951 208.87 198.061 207.93 198.061 207.93C198.061 207.93 197.693 210.4 198.614 210.142C199.285 209.851 199.839 209.345 200.191 208.704C200.191 208.704 201.518 211.23 201.942 209.506C202.366 207.782 201.656 203.127 200.716 200.74Z" fill="white" stroke="#212121" stroke-width="0.89" stroke-linecap="round" stroke-linejoin="round"/>
<path d="M183.212 164.948C183.212 164.948 182.391 148.421 182.106 140.171C181.912 134.299 181.553 127.008 180.317 124.316C180.109 123.735 179.837 123.179 179.506 122.657V122.583C177.248 119.071 172.436 116.712 168.39 115.707C163.136 114.389 160.14 115.145 160.14 115.145C160.14 115.145 150.922 116.066 143.262 120.205C135.602 124.344 135.575 133.7 136.699 140.484C137.824 147.268 141.013 161.288 141.013 161.851C141.013 162.413 130.699 172.543 125.454 185.098C120.209 197.652 127.703 238.053 127.703 238.053C127.703 238.053 132.579 241.243 146.452 241.243C160.324 241.243 168.012 235.463 168.012 235.463C168.012 235.463 172.888 198.224 171.948 184.167C171.561 177.066 170.81 169.99 169.699 162.966C169.699 162.966 170.289 162.136 171.109 160.864C171.5 164.284 172.773 167.543 174.805 170.322C175.432 171.114 176.787 172.976 178.492 175.327C180.525 173.349 183.043 171.94 185.793 171.244L183.212 164.948Z" fill="white"/>
<path d="M155.614 121.56L164.26 115.006C162.872 114.844 161.468 114.891 160.094 115.145C160.094 115.145 150.876 116.066 143.216 120.205C135.556 124.344 135.529 133.7 136.653 140.484C137.778 147.268 140.967 161.288 140.967 161.851C140.967 162.413 130.652 172.543 125.408 185.098C120.163 197.652 127.657 238.053 127.657 238.053C127.657 238.053 130.228 239.731 136.93 240.644C135.326 231.076 130.477 200.832 131.749 191.32C133.252 179.945 146.986 166.506 146.986 162.026C146.986 157.546 140.414 135.147 142.506 129.764C144.599 124.381 155.614 121.56 155.614 121.56Z" fill="#9E9E9E"/>
<path opacity="0.5" d="M155.614 121.56L164.26 115.006C162.872 114.844 161.468 114.891 160.094 115.145C160.094 115.145 150.876 116.066 143.216 120.205C135.556 124.344 135.529 133.7 136.653 140.484C137.778 147.268 140.967 161.288 140.967 161.851C140.967 162.413 130.652 172.543 125.408 185.098C120.163 197.652 127.657 238.053 127.657 238.053C127.657 238.053 130.228 239.731 136.93 240.644C135.326 231.076 130.477 200.832 131.749 191.32C133.252 179.945 146.986 166.506 146.986 162.026C146.986 157.546 140.414 135.147 142.506 129.764C144.599 124.381 155.614 121.56 155.614 121.56Z" fill="white"/>
<path d="M164.915 192.665C164.915 192.665 161.836 210.271 155.227 219.074" stroke="#212121" stroke-width="0.89" stroke-linecap="round" stroke-linejoin="round"/>
<path d="M183.212 164.948C183.212 164.948 182.391 148.421 182.106 140.171C181.912 134.299 181.553 127.008 180.317 124.316C180.109 123.735 179.837 123.179 179.506 122.657V122.583C177.248 119.071 172.436 116.712 168.39 115.707C163.136 114.389 160.14 115.145 160.14 115.145C160.14 115.145 150.922 116.066 143.262 120.205C135.602 124.344 135.575 133.7 136.699 140.484C137.824 147.268 141.013 161.288 141.013 161.851C141.013 162.413 130.699 172.543 125.454 185.098C120.209 197.652 127.703 238.053 127.703 238.053C127.703 238.053 132.579 241.243 146.452 241.243C160.324 241.243 168.012 235.463 168.012 235.463C168.012 235.463 172.888 198.224 171.948 184.167C171.561 177.066 170.81 169.99 169.699 162.966C169.699 162.966 170.289 162.136 171.109 160.864C171.5 164.284 172.773 167.543 174.805 170.322C175.432 171.114 176.787 172.976 178.492 175.327C180.525 173.349 183.043 171.94 185.793 171.244L183.212 164.948Z" stroke="#212121" stroke-width="0.89" stroke-linecap="round" stroke-linejoin="round"/>
<path d="M196.07 206.206L196.494 203.8" stroke="#212121" stroke-width="0.89" stroke-linecap="round" stroke-linejoin="round"/>
<path d="M198.089 207.921L198.301 205.174" stroke="#212121" stroke-width="0.89" stroke-linecap="round" stroke-linejoin="round"/>
<path d="M200.219 208.695L200.145 205.497" stroke="#212121" stroke-width="0.89" stroke-linecap="round" stroke-linejoin="round"/>
<path d="M194.734 198.795C194.779 199.357 194.94 199.903 195.206 200.4C195.473 200.896 195.839 201.332 196.283 201.68L197.656 202.51C197.656 202.51 198.67 208.041 200.099 207.202C201.527 206.363 200.772 201.505 199.057 198.823" fill="white"/>
<path d="M194.734 198.795C194.779 199.357 194.94 199.903 195.206 200.4C195.473 200.896 195.839 201.332 196.283 201.68L197.656 202.51C197.656 202.51 198.67 208.041 200.099 207.202C201.527 206.363 200.772 201.505 199.057 198.823" stroke="#212121" stroke-width="0.89" stroke-linecap="round" stroke-linejoin="round"/>
<path d="M159.338 107.264C159.338 107.264 159.532 112.333 157.845 114.951C156.158 117.569 155.596 118.703 155.596 122.639C155.596 126.575 161.919 141.074 164.915 139.406C167.91 137.737 165.901 127.893 166.279 124.519C166.657 121.145 166.657 119.449 166.657 119.449C166.657 119.449 161.218 104.876 159.338 107.264Z" fill="white"/>
<path d="M155.614 121.56L166.602 120.86C166.602 119.938 166.657 119.449 166.657 119.449C166.657 119.449 161.218 104.83 159.338 107.263C159.338 107.263 159.532 112.333 157.845 114.951C156.296 117.32 155.715 118.472 155.614 121.56Z" fill="#9E9E9E"/>
<path opacity="0.5" d="M155.614 121.56L166.602 120.86C166.602 119.938 166.657 119.449 166.657 119.449C166.657 119.449 161.218 104.83 159.338 107.263C159.338 107.263 159.532 112.333 157.845 114.951C156.296 117.32 155.715 118.472 155.614 121.56Z" fill="white"/>
<path d="M159.338 107.264C159.338 107.264 159.532 112.333 157.845 114.951C156.158 117.569 155.596 118.703 155.596 122.639C155.596 126.575 161.919 141.074 164.915 139.406C167.91 137.737 165.901 127.893 166.279 124.519C166.657 121.145 166.657 119.449 166.657 119.449C166.657 119.449 161.218 104.876 159.338 107.264Z" stroke="#212121" stroke-width="0.89" stroke-linecap="round" stroke-linejoin="round"/>
<path d="M193.416 143.858L200.477 156.043L202.32 156.965L201.942 154.9L194.835 142.982C194.724 142.8 194.549 142.667 194.345 142.607C194.14 142.548 193.921 142.566 193.729 142.659C193.627 142.715 193.537 142.79 193.466 142.882C193.394 142.973 193.342 143.078 193.313 143.191C193.283 143.303 193.277 143.42 193.295 143.535C193.313 143.65 193.354 143.759 193.416 143.858Z" fill="white" stroke="#212121" stroke-width="0.89" stroke-linecap="round" stroke-linejoin="round"/>
<path d="M141.714 121.708C141.714 121.708 134.395 124.187 135.639 133.184C136.266 137.673 137.971 149.269 139.658 156.016C141.345 162.763 144.156 171.76 146.783 172.138C149.41 172.516 190.273 157.325 190.273 157.325C190.273 157.325 197.029 158.081 198.716 157.14C200.375 155.984 201.726 154.44 202.652 152.642C203.214 151.518 197.213 150.2 195.711 150.2C194.209 150.2 188.558 153.389 187.636 153.73C186.715 154.071 154.821 158.228 154.075 158.228C153.328 158.228 151.245 139.857 149.576 133.857C147.327 125.791 144.507 124.104 144.507 124.104" fill="white"/>
<path d="M150.867 167.4C146.092 166.478 148.48 162.92 149.669 160.837C150.858 158.754 145.235 162.948 145.235 162.026C145.235 161.104 141.059 141.424 140.755 135.147C140.689 133.33 141.129 131.53 142.025 129.948C142.922 128.366 144.241 127.064 145.834 126.187L145.484 124.989C145.216 124.667 144.906 124.382 144.562 124.141L141.797 121.708C141.797 121.708 134.478 124.187 135.722 133.184C136.349 137.673 138.054 149.269 139.741 156.016C141.428 162.763 144.239 171.76 146.866 172.138C148.083 172.313 157.614 169.105 167.45 165.63C161.384 166.727 153.651 167.925 150.867 167.4Z" fill="#9E9E9E"/>
<path opacity="0.5" d="M150.867 167.4C146.092 166.478 148.48 162.92 149.669 160.837C150.858 158.754 145.235 162.948 145.235 162.026C145.235 161.104 141.059 141.424 140.755 135.147C140.689 133.33 141.129 131.53 142.025 129.948C142.922 128.366 144.241 127.064 145.834 126.187L145.484 124.989C145.216 124.667 144.906 124.382 144.562 124.141L141.797 121.708C141.797 121.708 134.478 124.187 135.722 133.184C136.349 137.673 138.054 149.269 139.741 156.016C141.428 162.763 144.239 171.76 146.866 172.138C148.083 172.313 157.614 169.105 167.45 165.63C161.384 166.727 153.651 167.925 150.867 167.4Z" fill="white"/>
<path d="M141.714 121.708C141.714 121.708 134.395 124.187 135.639 133.184C136.266 137.673 137.971 149.269 139.658 156.016C141.345 162.763 144.156 171.76 146.783 172.138C149.41 172.516 190.273 157.325 190.273 157.325C190.273 157.325 197.029 158.081 198.716 157.14C200.375 155.984 201.726 154.44 202.652 152.642C203.214 151.518 197.213 150.2 195.711 150.2C194.209 150.2 188.558 153.389 187.636 153.73C186.715 154.071 154.821 158.228 154.075 158.228C153.328 158.228 151.245 139.857 149.576 133.857C147.327 125.791 144.507 124.104 144.507 124.104" stroke="#212121" stroke-width="0.89" stroke-linecap="round" stroke-linejoin="round"/>
<path d="M195.711 150.199C194.218 150.199 188.586 153.389 187.655 153.767C187.092 153.988 175.672 155.527 166.251 156.753C165.883 159.095 165.855 162.662 168.279 165.307C179.248 161.427 190.273 157.325 190.273 157.325C190.273 157.325 197.029 158.081 198.716 157.14C200.375 155.984 201.726 154.44 202.652 152.642C203.214 151.518 197.214 150.199 195.711 150.199Z" fill="white" stroke="#212121" stroke-width="0.89" stroke-linecap="round" stroke-linejoin="round"/>
<path d="M171.21 155.767C173.996 153.296 175.85 149.945 176.464 146.273C176.975 141.593 177.19 136.886 177.11 132.179" stroke="#212121" stroke-width="0.89" stroke-linecap="round" stroke-linejoin="round"/>
<path d="M159.596 101.337C159.596 101.337 159.218 97.2439 156.831 98.3592C154.443 99.4745 154.416 104.498 155.715 105.798C156.447 106.555 157.431 107.017 158.481 107.098C158.632 109.577 159.331 111.991 160.527 114.168C162.371 117.136 165.541 123.09 169.265 121.975C172.989 120.86 179.672 111.19 181.165 106.545C182.232 102.645 182.978 98.6654 183.396 94.6445C183.396 94.6445 175.211 98.3316 169.45 99.1058C166.1 99.5226 162.799 100.27 159.596 101.337Z" fill="white"/>
<path d="M159.596 101.337C159.596 101.337 159.218 97.2439 156.831 98.3592C154.443 99.4745 154.416 104.498 155.715 105.798C156.447 106.555 157.431 107.017 158.481 107.098C158.632 109.577 159.331 111.991 160.527 114.168C161.67 116.011 163.292 118.942 165.256 120.684C162.712 117.514 161.688 109.835 162.49 106.231C163.292 102.627 164.334 102.857 169.763 101.558C175.192 100.258 183.424 94.6445 183.424 94.6445C183.424 94.6445 175.238 98.3316 169.477 99.1058C166.118 99.5208 162.808 100.268 159.596 101.337Z" fill="#9E9E9E"/>
<path opacity="0.5" d="M159.596 101.337C159.596 101.337 159.218 97.2439 156.831 98.3592C154.443 99.4745 154.416 104.498 155.715 105.798C156.447 106.555 157.431 107.017 158.481 107.098C158.632 109.577 159.331 111.991 160.527 114.168C161.67 116.011 163.292 118.942 165.256 120.684C162.712 117.514 161.688 109.835 162.49 106.231C163.292 102.627 164.334 102.857 169.763 101.558C175.192 100.258 183.424 94.6445 183.424 94.6445C183.424 94.6445 175.238 98.3316 169.477 99.1058C166.118 99.5208 162.808 100.268 159.596 101.337Z" fill="white"/>
<path d="M159.596 101.337C159.596 101.337 159.218 97.2439 156.831 98.3592C154.443 99.4745 154.416 104.498 155.715 105.798C156.447 106.555 157.431 107.017 158.481 107.098C158.632 109.577 159.331 111.991 160.527 114.168C162.371 117.136 165.541 123.09 169.265 121.975C172.989 120.86 179.672 111.19 181.165 106.545C182.232 102.645 182.978 98.6654 183.396 94.6445C183.396 94.6445 175.211 98.3316 169.45 99.1058C166.1 99.5226 162.799 100.27 159.596 101.337V101.337Z" stroke="#212121" stroke-width="0.89" stroke-linecap="round" stroke-linejoin="round"/>
<path d="M171.773 112.923C171.773 112.923 174.639 114.075 175.331 113.614C176.022 113.154 175.331 112.038 175.662 109.973C175.738 109.397 175.93 108.842 176.228 108.342C176.526 107.843 176.924 107.41 177.395 107.07" stroke="#212121" stroke-width="0.89" stroke-linecap="round" stroke-linejoin="round"/>
<path d="M170.906 106.508L170.473 107.946C170.047 108.146 169.562 108.184 169.111 108.051C168.659 107.919 168.271 107.625 168.021 107.227" stroke="#212121" stroke-width="0.89" stroke-linecap="round" stroke-linejoin="round"/>
<path d="M178.972 109.19L178.538 110.637C178.111 110.835 177.626 110.87 177.175 110.736C176.724 110.602 176.337 110.308 176.086 109.909" stroke="#212121" stroke-width="0.89" stroke-linecap="round" stroke-linejoin="round"/>
<path d="M168.021 114.582C168.4 115.064 168.881 115.457 169.429 115.733C169.977 116.008 170.579 116.16 171.192 116.177" stroke="#212121" stroke-width="0.89" stroke-linecap="round" stroke-linejoin="round"/>
<path d="M173.358 104.342C172.778 103.572 172.007 102.967 171.121 102.587C170.235 102.207 169.265 102.065 168.307 102.175" stroke="#212121" stroke-width="0.89" stroke-linecap="round" stroke-linejoin="round"/>
<path d="M178.262 106.655C178.72 106.549 179.201 106.605 179.622 106.816C180.043 107.026 180.377 107.377 180.566 107.807" stroke="#212121" stroke-width="0.89" stroke-linecap="round" stroke-linejoin="round"/>
<path d="M211.353 158.873C211.353 158.873 210.432 179.77 210.432 180.691C210.432 181.613 208.901 206.501 209.823 211.718C210.745 216.935 212.275 223.093 213.197 224.936C214.119 226.78 216.58 228.31 216.58 226.162C216.58 224.015 216.884 216.023 216.276 213.875C215.519 211.794 214.594 209.778 213.51 207.847C213.51 207.847 218.119 188.066 219.345 182.535C220.571 177.004 223.336 157.334 223.336 155.186C223.336 153.038 211.353 153.96 211.353 153.96V158.873Z" fill="white"/>
<path d="M211.353 158.873C211.353 158.873 210.432 179.77 210.432 180.691C210.432 181.613 208.901 206.501 209.823 211.718C210.745 216.935 212.275 223.093 213.197 224.936C214.119 226.78 216.58 228.31 216.58 226.162C216.58 224.015 216.884 216.023 216.276 213.875C215.519 211.794 214.594 209.778 213.51 207.847C213.51 207.847 218.119 188.066 219.345 182.535C220.571 177.004 223.336 157.334 223.336 155.186C223.336 153.038 211.353 153.96 211.353 153.96V158.873Z" fill="#9E9E9E"/>
<path opacity="0.5" d="M211.353 158.873C211.353 158.873 210.432 179.77 210.432 180.691C210.432 181.613 208.901 206.501 209.823 211.718C210.745 216.935 212.275 223.093 213.197 224.936C214.119 226.78 216.58 228.31 216.58 226.162C216.58 224.015 216.884 216.023 216.276 213.875C215.519 211.794 214.594 209.778 213.51 207.847C213.51 207.847 218.119 188.066 219.345 182.535C220.571 177.004 223.336 157.334 223.336 155.186C223.336 153.038 211.353 153.96 211.353 153.96V158.873Z" fill="white"/>
<path d="M211.353 158.873C211.353 158.873 210.432 179.77 210.432 180.691C210.432 181.613 208.901 206.501 209.823 211.718C210.745 216.935 212.275 223.093 213.197 224.936C214.119 226.78 216.58 228.31 216.58 226.162C216.58 224.015 216.884 216.023 216.276 213.875C215.519 211.794 214.594 209.778 213.51 207.847C213.51 207.847 218.119 188.066 219.345 182.535C220.571 177.004 223.336 157.334 223.336 155.186C223.336 153.038 211.353 153.96 211.353 153.96V158.873Z" stroke="#212121" stroke-width="0.89" stroke-linecap="round" stroke-linejoin="round"/>
<path d="M213.695 217.12C213.695 217.12 215.4 221.093 215.962 222.42C216.524 223.747 218.995 225.443 218.995 223.932C218.995 222.42 217.151 219.019 217.151 219.019C217.202 216.773 216.678 214.552 215.63 212.566" stroke="#212121" stroke-width="0.89" stroke-linecap="round" stroke-linejoin="round"/>
<path d="M221.014 83.3895C221.014 83.3895 219.032 84.5786 223.401 85.7677C227.77 86.9568 236.306 86.5604 237.108 85.7677C237.91 84.975 237.108 83.7859 233.928 83.0024C230.747 82.2189 222.802 82.394 221.014 83.3895Z" fill="#212121" stroke="#212121" stroke-width="0.89" stroke-linecap="round" stroke-linejoin="round"/>
<path d="M225.825 311.813C225.825 311.813 217.151 314.579 213.741 316.772C210.33 318.966 213.741 319.869 218.35 319.869C222.958 319.869 227.493 318.321 229.355 318.164C231.217 318.008 234.932 317.851 233.844 313.205C232.757 308.559 225.825 311.813 225.825 311.813Z" fill="white" stroke="#212121" stroke-width="0.89" stroke-linecap="round" stroke-linejoin="round"/>
<path d="M254.925 317.547C254.925 317.547 245.781 326.368 245.007 329.318C244.233 332.267 249.616 331.945 253.838 328.848C258.059 325.75 260.806 321.261 261.276 319.095C261.747 316.929 257.737 314.91 254.925 317.547Z" fill="white" stroke="#212121" stroke-width="0.89" stroke-linecap="round" stroke-linejoin="round"/>
<path d="M220.451 116.269C220.451 116.269 216.58 119.541 215.962 121.698C215.345 123.855 207.362 157.334 207.362 157.334L226.415 164.708L230.71 125.994C230.71 125.994 229.236 112.693 220.451 116.269Z" fill="white"/>
<path d="M220.451 116.269C220.451 116.269 216.58 119.541 215.962 121.698C215.345 123.855 207.362 157.334 207.362 157.334L226.415 164.708L230.71 125.994C230.71 125.994 229.236 112.693 220.451 116.269Z" fill="#9E9E9E"/>
<path opacity="0.5" d="M220.451 116.269C220.451 116.269 216.58 119.541 215.962 121.698C215.345 123.855 207.362 157.334 207.362 157.334L226.415 164.708L230.71 125.994C230.71 125.994 229.236 112.693 220.451 116.269Z" fill="white"/>
<path d="M220.451 116.269C220.451 116.269 216.58 119.541 215.962 121.698C215.345 123.855 207.362 157.334 207.362 157.334L226.415 164.708L230.71 125.994C230.71 125.994 229.236 112.693 220.451 116.269Z" stroke="#212121" stroke-width="0.89" stroke-linecap="round" stroke-linejoin="round"/>
<path d="M220.571 178.23C220.571 178.23 217.806 198.814 217.198 212.032C216.589 225.25 217.806 243.058 218.424 252.276C219.041 261.494 225.641 305.398 225.641 306.135C225.641 306.873 224.166 308.347 224.166 309.334C224.299 310.42 224.546 311.489 224.904 312.523C226.492 312.808 228.055 313.221 229.577 313.758C231.158 314.367 232.909 314.367 234.49 313.758C234.49 313.758 234.49 303.674 235.725 298.761C236.96 293.848 240.242 239.685 240.242 239.685V233.232C240.242 233.232 244.851 264.877 246.381 275.016C247.911 285.156 251.911 303.895 252.833 306.661C253.384 308.239 253.594 309.917 253.451 311.583V314.956L254.373 319.261C254.373 319.261 255.599 321.409 257.755 321.409C259.298 321.289 260.78 320.761 262.051 319.879C262.051 319.879 264.208 302.052 264.816 296.521C265.425 290.99 265.738 269.181 265.13 267.024C264.567 264.284 264.154 261.514 263.894 258.729C263.894 258.729 266.356 221.858 265.13 213.258C263.904 204.658 263.286 182.535 263.286 182.535C263.286 182.535 236.241 188.987 220.571 178.23Z" fill="#212121" stroke="#212121" stroke-width="0.89" stroke-linecap="round" stroke-linejoin="round"/>
<path d="M240.242 233.232L237.163 209.571L232.867 205.275" stroke="white" stroke-width="0.89" stroke-linecap="round" stroke-linejoin="round"/>
<path d="M239.348 110.407C239.348 110.407 228.286 111.282 220.451 116.306C218.82 117.357 219.861 152.725 219.861 160.201C219.861 167.676 218.672 177.917 218.875 179.3C219.078 180.682 226.157 185.752 238.158 187.172C250.16 188.591 263.553 185.393 264.337 183.623C265.12 181.853 264.733 179.3 264.733 178.507C264.733 177.714 277.97 134.041 276.956 129.119C275.942 124.196 275.002 118.703 266.116 114.499C260.382 111.799 252.335 109.78 248.197 109.78C245.238 109.833 242.284 110.042 239.348 110.407Z" fill="white"/>
<path d="M244.721 180.627C231.07 180 223.456 174.921 222.498 173.649C221.539 172.377 223.134 131.423 223.134 127.616C223.134 123.809 237.108 118.085 237.108 118.085L239.421 110.361H239.348C239.348 110.361 228.286 111.236 220.451 116.26C218.82 117.311 219.861 152.679 219.861 160.155C219.861 167.63 218.672 177.871 218.875 179.254C219.078 180.636 226.157 185.706 238.158 187.126C250.16 188.545 263.553 185.347 264.337 183.577C265.12 181.807 264.733 179.254 264.733 178.461C264.733 178.332 265.083 177.06 265.655 174.995C261.553 174.857 255.912 181.152 244.721 180.627Z" fill="#9E9E9E"/>
<path opacity="0.5" d="M244.721 180.627C231.07 180 223.456 174.921 222.498 173.649C221.539 172.377 223.134 131.423 223.134 127.616C223.134 123.809 237.108 118.085 237.108 118.085L239.421 110.361H239.348C239.348 110.361 228.286 111.236 220.451 116.26C218.82 117.311 219.861 152.679 219.861 160.155C219.861 167.63 218.672 177.871 218.875 179.254C219.078 180.636 226.157 185.706 238.158 187.126C250.16 188.545 263.553 185.347 264.337 183.577C265.12 181.807 264.733 179.254 264.733 178.461C264.733 178.332 265.083 177.06 265.655 174.995C261.553 174.857 255.912 181.152 244.721 180.627Z" fill="white"/>
<path d="M239.348 110.407C239.348 110.407 228.286 111.282 220.451 116.306C218.82 117.357 219.861 152.725 219.861 160.201C219.861 167.676 218.672 177.917 218.875 179.3C219.078 180.682 226.157 185.752 238.158 187.172C250.16 188.591 263.553 185.393 264.337 183.623C265.12 181.853 264.733 179.3 264.733 178.507C264.733 177.714 277.97 134.041 276.956 129.119C275.942 124.196 275.002 118.703 266.116 114.499C260.382 111.799 252.335 109.78 248.197 109.78C245.238 109.833 242.284 110.042 239.348 110.407V110.407Z" stroke="#212121" stroke-width="0.89" stroke-linecap="round" stroke-linejoin="round"/>
<path d="M236.942 123.791C236.942 123.791 235.965 121.025 234.176 121.025C232.616 121.183 231.089 121.581 229.651 122.205C229.651 122.205 232.213 114.923 235.955 110.001C239.698 105.079 249.929 103.549 252.483 106.259C254.899 108.983 256.29 112.464 256.419 116.103C256.419 119.053 247.367 125.745 246.777 125.948C246.187 126.15 245.007 123.385 242.445 123.385C240.854 123.394 239.269 123.592 237.725 123.975L236.942 123.791Z" fill="white" stroke="#212121" stroke-width="0.89" stroke-linecap="round" stroke-linejoin="round"/>
<path d="M237.144 105.088C237.144 105.088 235.172 122.021 236.942 123.791C238.712 125.561 242.26 120.242 245.238 117.882C248.215 115.522 252.132 109.586 252.52 106.268C252.76 103.719 252.827 101.157 252.722 98.5988C252.722 98.5988 246.62 107.061 243.505 107.061C241.256 106.931 239.072 106.254 237.144 105.088Z" fill="white"/>
<path d="M243.44 107.061C241.213 106.921 239.053 106.244 237.144 105.088C237.144 105.088 235.172 122.021 236.942 123.791C237.11 123.952 237.321 124.061 237.55 124.104C238.914 119.827 240.38 114.545 240.38 114.545L246.611 109.605L251.543 101.558L251.146 100.636C249.118 103.106 245.597 107.061 243.44 107.061Z" fill="#9E9E9E"/>
<path opacity="0.5" d="M243.44 107.061C241.213 106.921 239.053 106.244 237.144 105.088C237.144 105.088 235.172 122.021 236.942 123.791C237.11 123.952 237.321 124.061 237.55 124.104C238.914 119.827 240.38 114.545 240.38 114.545L246.611 109.605L251.543 101.558L251.146 100.636C249.118 103.106 245.597 107.061 243.44 107.061Z" fill="white"/>
<path d="M237.144 105.088C237.144 105.088 235.172 122.021 236.942 123.791C238.712 125.561 242.26 120.242 245.238 117.882C248.215 115.522 252.132 109.586 252.52 106.268C252.76 103.719 252.827 101.157 252.722 98.5988C252.722 98.5988 246.62 107.061 243.505 107.061C241.256 106.931 239.072 106.254 237.144 105.088V105.088Z" stroke="#212121" stroke-width="0.89" stroke-linecap="round" stroke-linejoin="round"/>
<path d="M231.946 83.7859C231.946 83.7859 231.549 95.5016 233.135 100.074C234.72 104.646 238.896 111.596 244.463 110.01C250.031 108.425 254.197 97.1055 254.197 97.1055C254.197 97.1055 259.359 94.7181 260.355 91.1416C260.923 88.7821 260.857 86.314 260.161 83.9887C260.161 83.9887 249.229 80.615 243.468 81.0114C239.78 81.3171 236.162 82.1876 232.738 83.5923L231.946 83.7859Z" fill="white"/>
<path d="M260.576 85.8598C260.576 85.6017 260.493 85.3621 260.447 85.1408C260.152 84.7721 259.746 84.2191 259.295 83.7213C256.603 82.947 248.233 80.6703 243.468 80.956C239.78 81.2618 236.162 82.1322 232.738 83.537L231.946 83.7398C231.946 83.7398 231.549 95.4555 233.135 100.027C234.72 104.599 238.896 111.55 244.463 109.964C246.348 109.25 247.973 107.984 249.128 106.332C249.34 105.77 249.469 105.411 249.469 105.411C249.469 105.411 242.454 110.609 239.855 105.936C238.279 102.895 237.562 99.4819 237.781 96.0638C234.665 94.7641 234.149 95.0222 236.481 93.7317C238.813 92.4413 238.564 90.8743 238.564 90.8743C246.095 90.8743 255.958 88.0168 255.958 88.0168L260.576 85.8598Z" fill="#9E9E9E"/>
<path opacity="0.5" d="M260.576 85.8598C260.576 85.6017 260.493 85.3621 260.447 85.1408C260.152 84.7721 259.746 84.2191 259.295 83.7213C256.603 82.947 248.233 80.6703 243.468 80.956C239.78 81.2618 236.162 82.1322 232.738 83.537L231.946 83.7398C231.946 83.7398 231.549 95.4555 233.135 100.027C234.72 104.599 238.896 111.55 244.463 109.964C246.348 109.25 247.973 107.984 249.128 106.332C249.34 105.77 249.469 105.411 249.469 105.411C249.469 105.411 242.454 110.609 239.855 105.936C238.279 102.895 237.562 99.4819 237.781 96.0638C234.665 94.7641 234.149 95.0222 236.481 93.7317C238.813 92.4413 238.564 90.8743 238.564 90.8743C246.095 90.8743 255.958 88.0168 255.958 88.0168L260.576 85.8598Z" fill="white"/>
<path d="M231.946 83.7859C231.946 83.7859 231.549 95.5016 233.135 100.074C234.72 104.646 238.896 111.596 244.463 110.01C250.031 108.425 254.197 97.1055 254.197 97.1055C254.197 97.1055 259.359 94.7181 260.355 91.1416C260.923 88.7821 260.857 86.314 260.161 83.9887C260.161 83.9887 249.229 80.615 243.468 81.0114C239.78 81.3171 236.162 82.1876 232.738 83.5923L231.946 83.7859Z" stroke="#212121" stroke-width="0.89" stroke-linecap="round" stroke-linejoin="round"/>
<path d="M239.384 89.3534C239.164 90.4713 238.763 91.5455 238.195 92.5335C237.2 94.3217 234.812 94.7181 235.614 95.7136C236.416 96.7091 239.984 97.1055 239.984 97.1055" stroke="#212121" stroke-width="0.89" stroke-linecap="round" stroke-linejoin="round"/>
<path d="M244.906 90.9112C244.906 91.8975 244.546 92.6994 244.113 92.6994C243.68 92.6994 243.311 91.8975 243.311 90.9112C243.311 89.9249 243.671 89.123 244.113 89.123C244.556 89.123 244.906 89.9249 244.906 90.9112Z" fill="#212121"/>
<path d="M236.951 90.1276C236.951 91.1232 236.601 91.9159 236.158 91.9159C235.716 91.9159 235.366 91.1232 235.366 90.1276C235.366 89.1321 235.716 88.3394 236.158 88.3394C236.601 88.3394 236.951 89.1045 236.951 90.1276Z" fill="#212121"/>
<path d="M239.099 100.074C239.099 100.074 242.869 101.069 245.459 98.6817" stroke="#212121" stroke-width="0.89" stroke-linecap="round" stroke-linejoin="round"/>
<path d="M243.072 85.823C243.072 85.823 244.915 83.9795 246.325 87.2518" stroke="#212121" stroke-width="0.89" stroke-linecap="round" stroke-linejoin="round"/>
<path d="M237.108 85.7677C237.108 85.7677 233.918 85.6203 233.513 87.4546" stroke="#212121" stroke-width="0.89" stroke-linecap="round" stroke-linejoin="round"/>
<path d="M253.405 82.3941C253.405 82.3941 251.616 89.3442 254.4 89.7682C257.184 90.1922 258.373 83.6108 258.373 83.6108L253.405 82.3941Z" fill="#212121" stroke="#212121" stroke-width="0.89" stroke-linecap="round" stroke-linejoin="round"/>
<path d="M232.139 81.8318C232.139 81.8318 232.545 73.4898 232.941 69.9133C233.338 66.3368 240.315 63.3595 247.247 63.5531C254.179 63.7467 260.493 69.6829 261.286 72.0702C262.078 74.4576 261.286 83.6753 261.286 83.6753L260.972 87.5375C260.972 87.5375 251.81 83.8504 243.671 83.4264C235.531 83.0024 232.738 83.62 232.738 83.62L232.139 81.8318Z" fill="#B75400" stroke="#212121" stroke-width="0.89" stroke-linecap="round" stroke-linejoin="round"/>
<path d="M249.395 83.9795C246.536 84.718 243.6 85.1202 240.647 85.1778C236.278 85.1778 227.743 83.1868 224.977 83.1868C223.647 83.157 222.316 83.2248 220.995 83.3896C224.775 81.9888 228.713 81.06 232.72 80.6243C238.896 79.9882 247.644 82.984 249.395 83.9795Z" fill="white" stroke="#212121" stroke-width="0.89" stroke-linecap="round" stroke-linejoin="round"/>
<path d="M225.18 157.915C225.18 157.915 222.977 154.283 222.627 154.163C222.276 154.043 219.354 152.541 218.875 152.384C218.396 152.227 217.262 152.098 217.575 153.131C217.889 154.163 219.981 155.38 219.981 155.38L220.802 157.629L225.18 157.915Z" fill="white" stroke="#212121" stroke-width="0.89" stroke-linecap="round" stroke-linejoin="round"/>
<path d="M236.942 123.791L234.093 141.977L237.089 142.438L238.702 132.068" stroke="#212121" stroke-width="0.89" stroke-linecap="round" stroke-linejoin="round"/>
<path d="M229.918 139.783L214.764 173.64L185.83 174.82L201.574 140.77L229.918 139.783Z" fill="#212121" stroke="#212121" stroke-width="0.89" stroke-linecap="round" stroke-linejoin="round"/>
<path d="M218.516 140.014L220.119 137.101L216.552 137.258L215.04 140.29L212.22 140.41L210.45 144.153H219.502L221.668 140.014H218.516Z" fill="white" stroke="#212121" stroke-width="0.89" stroke-linecap="round" stroke-linejoin="round"/>
<path d="M227.475 158.541C227.475 158.541 221.751 155.868 221.023 155.868L210.321 155.748C209.771 156.232 209.387 156.877 209.224 157.592C209.104 158.56 208.496 160.265 209.104 161.122C209.713 161.98 216.036 165.381 218.589 166.717C221.143 168.054 228.729 166.957 228.729 166.957C228.729 166.957 246.851 174.866 252.934 177.908C259.018 180.95 264.245 182.655 266.807 182.655C269.37 182.655 272.642 167.685 272.642 167.685L258.898 163.998L257.801 167.685C257.801 167.685 249.773 165.501 240.039 163.676C231.245 162.026 227.475 158.541 227.475 158.541Z" fill="white" stroke="#212121" stroke-width="0.89" stroke-linecap="round" stroke-linejoin="round"/>
<path d="M209.593 157.085C209.593 157.085 218.35 158.79 219.686 159.03" stroke="#212121" stroke-width="0.89" stroke-linecap="round" stroke-linejoin="round"/>
<path d="M208.984 158.79C208.984 158.79 217.981 161.832 218.469 161.952" stroke="#212121" stroke-width="0.89" stroke-linecap="round" stroke-linejoin="round"/>
<path d="M209.833 161.224C209.833 161.224 216.525 164.146 217.502 164.266" stroke="#212121" stroke-width="0.89" stroke-linecap="round" stroke-linejoin="round"/>
<path d="M258.732 132.437L255.045 166.174C255.045 166.174 262.235 169.298 266.844 170.091C269.473 170.556 272.138 170.788 274.808 170.782C274.808 170.782 278.292 143.59 278.071 136.493C277.85 129.395 276.891 122.767 273.047 121.744" fill="white"/>
<path d="M264.724 164.791C263.802 164.478 268.217 136.216 265.046 130.188C264.586 129.331 264.125 128.897 263.655 128.778L261.212 130.621C259.433 133.525 258.059 138.77 258.059 138.77V138.871L255.018 166.174C255.018 166.174 259.083 167.944 263.055 169.151C263.304 168.801 263.452 168.57 263.452 168.57C263.452 168.57 268.217 167.298 270.761 166.976C273.305 166.653 265.682 165.077 264.724 164.791Z" fill="#9E9E9E"/>
<path opacity="0.5" d="M264.724 164.791C263.802 164.478 268.217 136.216 265.046 130.188C264.586 129.331 264.125 128.897 263.655 128.778L261.212 130.621C259.433 133.525 258.059 138.77 258.059 138.77V138.871L255.018 166.174C255.018 166.174 259.083 167.944 263.055 169.151C263.304 168.801 263.452 168.57 263.452 168.57C263.452 168.57 268.217 167.298 270.761 166.976C273.305 166.653 265.682 165.077 264.724 164.791Z" fill="white"/>
<path d="M258.732 132.437L255.045 166.174C255.045 166.174 262.235 169.298 266.844 170.091C269.473 170.556 272.138 170.788 274.808 170.782C274.808 170.782 278.292 143.59 278.071 136.493C277.85 129.395 276.891 122.767 273.047 121.744" stroke="#212121" stroke-width="0.89" stroke-linecap="round" stroke-linejoin="round"/>
</svg>
