<svg xmlns="http://www.w3.org/2000/svg" width="400" height="400" viewBox="0 0 400 400" fill="none">
<g opacity="0.2">
<path opacity="0.2" d="M353.756 37.7563H239.509C236.102 37.7563 233.339 40.5188 233.339 43.9264V47.0619C233.339 50.4695 236.102 53.2319 239.509 53.2319H353.756C357.164 53.2319 359.926 50.4695 359.926 47.0619V43.9264C359.926 40.5188 357.164 37.7563 353.756 37.7563Z" stroke="black" stroke-linejoin="round"/>
<path opacity="0.2" d="M340.407 41.329V48.5666" stroke="black" stroke-width="0.5" stroke-linejoin="round"/>
<path opacity="0.2" d="M334.783 41.3962L328 48.1799" stroke="black" stroke-linejoin="round"/>
<path opacity="0.2" d="M328 41.3962L334.783 48.1799" stroke="black" stroke-linejoin="round"/>
<path opacity="0.2" d="M352.26 48.3732C352.211 48.4358 352.15 48.4876 352.08 48.5252C352.01 48.5629 351.933 48.5856 351.854 48.5919C351.775 48.5983 351.696 48.5881 351.621 48.562C351.546 48.5359 351.477 48.4945 351.419 48.4405L348.637 45.9187L349.166 45.2882L352.15 47.5747C352.27 47.6663 352.349 47.8018 352.37 47.9514C352.39 48.101 352.351 48.2527 352.26 48.3732Z" fill="#212121" stroke="black" stroke-linejoin="round"/>
<path opacity="0.2" d="M345.115 42.4385C344.785 42.8388 344.582 43.3276 344.53 43.8434C344.478 44.3591 344.581 44.8786 344.824 45.3363C345.068 45.7939 345.441 46.1692 345.898 46.4147C346.354 46.6603 346.873 46.765 347.389 46.7157C347.905 46.6665 348.395 46.4654 348.797 46.138C349.198 45.8106 349.494 45.3714 349.647 44.876C349.799 44.3805 349.801 43.8511 349.653 43.3544C349.504 42.8578 349.212 42.4162 348.813 42.0855C348.548 41.8642 348.241 41.6976 347.911 41.5955C347.581 41.4934 347.234 41.4578 346.89 41.4906C346.546 41.5234 346.212 41.6241 345.908 41.7868C345.603 41.9495 345.333 42.171 345.115 42.4385V42.4385ZM348.872 45.5404C348.589 45.8826 348.212 46.1334 347.787 46.2609C347.361 46.3885 346.908 46.3872 346.484 46.2571C346.059 46.127 345.683 45.8741 345.403 45.5302C345.122 45.1863 344.95 44.767 344.907 44.3251C344.865 43.8833 344.955 43.4389 345.165 43.048C345.375 42.6571 345.697 42.3374 346.088 42.1291C346.48 41.9209 346.925 41.8336 347.367 41.8782C347.809 41.9228 348.227 42.0973 348.569 42.3797C348.797 42.5673 348.985 42.7979 349.124 43.0583C349.262 43.3187 349.348 43.6038 349.376 43.8973C349.404 44.1908 349.374 44.487 349.287 44.7689C349.201 45.0509 349.06 45.313 348.872 45.5404V45.5404Z" stroke="black" stroke-linejoin="round"/>
</g>
<path d="M116.386 65.7401C116.129 66.0504 115.813 66.3061 115.456 66.492C115.099 66.6779 114.708 66.7902 114.307 66.8223C113.905 66.8545 113.502 66.8057 113.119 66.6791C112.737 66.5524 112.384 66.3503 112.082 66.0848L98.4976 53.7279C99.0651 53.2372 99.5909 52.7001 100.069 52.1223C100.551 51.552 100.978 50.9385 101.347 50.2898L115.915 61.4446C116.233 61.692 116.498 62.0007 116.695 62.3526C116.892 62.7044 117.016 63.0921 117.059 63.4928C117.103 63.8934 117.066 64.2988 116.951 64.6848C116.835 65.0709 116.643 65.4297 116.386 65.7401V65.7401Z" stroke="#CCCCCC" stroke-linejoin="round"/>
<path d="M98.1865 32.7295C99.8452 34.0525 101.167 35.7491 102.045 37.6807C102.944 39.6965 103.346 41.8983 103.219 44.1017C103.092 46.3051 102.439 48.446 101.314 50.3449C100.189 52.2438 98.625 53.8454 96.7537 55.0156C94.8823 56.1858 92.7578 56.8904 90.5581 57.0706C88.3584 57.2507 86.1475 56.901 84.1107 56.0507C82.074 55.2005 80.2706 53.8746 78.8518 52.184C77.433 50.4934 76.44 48.4873 75.956 46.3339C75.472 44.1806 75.5112 41.9426 76.0702 39.8074C76.6485 37.5612 77.787 35.4982 79.3791 33.8114C80.9712 32.1246 82.965 30.8691 85.1741 30.1621C87.3833 29.4551 89.7356 29.3198 92.0112 29.7688C94.2869 30.2178 96.4115 31.2364 98.1865 32.7295V32.7295ZM98.4976 50.853C97.0063 52.6529 95.0148 53.9702 92.775 54.6383C90.5351 55.3064 88.1474 55.2954 85.9138 54.6066C83.6802 53.9179 81.701 52.5822 80.2264 50.7687C78.7518 48.9551 77.8481 46.745 77.6295 44.4179C77.4109 42.0907 77.8872 39.751 78.9982 37.6946C80.1093 35.6381 81.8051 33.9573 83.8714 32.8646C85.9376 31.7719 88.2815 31.3164 90.6066 31.5557C92.9317 31.795 95.1337 32.7183 96.934 34.209C98.1307 35.1984 99.1206 36.414 99.847 37.7864C100.573 39.1587 101.022 40.6609 101.167 42.2068C101.312 43.7527 101.151 45.3121 100.693 46.7957C100.235 48.2793 99.4891 49.6581 98.4976 50.853Z" stroke="#CCCCCC" stroke-linejoin="round"/>
<path d="M315.752 370.216C315.531 369.979 315.36 369.7 315.249 369.395C315.138 369.091 315.089 368.767 315.106 368.443C315.122 368.119 315.203 367.802 315.345 367.51C315.486 367.218 315.685 366.958 315.929 366.744L327.218 357.187C327.549 357.692 327.923 358.167 328.336 358.607C328.742 359.053 329.186 359.46 329.664 359.826L319.232 370.3C319.002 370.529 318.727 370.709 318.425 370.83C318.123 370.95 317.799 371.008 317.474 371C317.149 370.992 316.829 370.919 316.533 370.784C316.237 370.649 315.972 370.456 315.752 370.216V370.216Z" stroke="#CCCCCC" stroke-linejoin="round"/>
<path d="M344.03 359.154C342.792 360.323 341.298 361.186 339.667 361.676C336.99 362.507 334.1 362.323 331.55 361.159C329 359.994 326.968 357.93 325.844 355.362C324.719 352.793 324.581 349.901 325.455 347.237C326.329 344.573 328.154 342.325 330.581 340.922C333.009 339.519 335.868 339.059 338.612 339.632C341.357 340.204 343.794 341.768 345.459 344.024C347.123 346.28 347.897 349.07 347.634 351.862C347.37 354.653 346.087 357.249 344.03 359.154ZM329.513 357.523C328.23 356.143 327.384 354.414 327.084 352.554C326.784 350.694 327.042 348.786 327.826 347.073C328.61 345.359 329.885 343.917 331.489 342.928C333.093 341.94 334.954 341.449 336.837 341.518C338.72 341.588 340.54 342.214 342.067 343.318C343.594 344.423 344.759 345.955 345.415 347.721C346.071 349.488 346.188 351.409 345.751 353.242C345.315 355.075 344.344 356.738 342.963 358.019C342.047 358.87 340.973 359.532 339.801 359.967C338.63 360.403 337.384 360.603 336.135 360.557C334.886 360.511 333.658 360.219 332.522 359.699C331.386 359.178 330.363 358.439 329.513 357.523V357.523Z" stroke="#CCCCCC" stroke-linejoin="round"/>
<g opacity="0.2">
<path opacity="0.2" d="M62.133 338.895L42.8495 358.187" stroke="black" stroke-linejoin="round"/>
<path opacity="0.2" d="M42.8495 338.895L62.133 358.187" stroke="black" stroke-linejoin="round"/>
</g>
<g opacity="0.2">
<path opacity="0.2" d="M384.085 157.324L364.802 176.616" stroke="black" stroke-linejoin="round"/>
<path opacity="0.2" d="M364.802 157.324L384.085 176.616" stroke="black" stroke-linejoin="round"/>
</g>
<g opacity="0.2">
<path opacity="0.2" d="M31.8712 47.2047L12.5876 66.4966" stroke="black" stroke-linejoin="round"/>
<path opacity="0.2" d="M12.5876 47.2047L31.8712 66.4966" stroke="black" stroke-linejoin="round"/>
</g>
<path d="M49.381 169.126C49.4314 169.126 48.6665 165.923 48.5992 165.722C47.7586 163.444 44.8417 159.526 42.1266 159.619C41.6766 159.646 41.2375 159.769 40.838 159.978C40.4385 160.187 40.0876 160.477 39.8083 160.831C39.529 161.185 39.3276 161.594 39.2171 162.031C39.1067 162.468 39.0899 162.924 39.1676 163.368C39.4282 165.268 41.1935 166.84 42.7654 167.722C44.6232 168.756 49.3726 169.126 49.381 169.126Z" fill="#212121"/>
<path d="M53.9455 147.22C51.4237 148.22 50.3141 152.986 50.4738 155.407C50.4738 155.618 51.079 158.862 51.1211 158.837H51.1715C50.995 159.585 50.8016 160.392 50.6167 161.283C50.2889 162.964 49.9358 164.772 49.6836 166.823C49.3864 169.022 49.218 171.236 49.1793 173.455C49.1312 175.942 49.2999 178.429 49.6836 180.886C49.6876 180.917 49.6876 180.948 49.6836 180.979C49.3306 180.264 48.2546 178.314 48.1621 178.171C46.7583 176.196 42.8999 173.186 40.3109 173.968C39.8846 174.115 39.494 174.35 39.1644 174.658C38.8348 174.966 38.5736 175.34 38.3976 175.755C38.2217 176.17 38.135 176.618 38.1431 177.069C38.1512 177.52 38.254 177.964 38.4447 178.373C39.1929 180.13 41.3112 181.18 43.068 181.617C45.0435 182.105 49.3978 181.298 49.7425 181.239C50.202 183.729 50.8254 186.186 51.6086 188.595C52.0541 189.998 52.5501 191.394 53.0629 192.798C52.735 192.192 52.4324 191.654 52.382 191.587C50.9866 189.603 47.1282 186.594 44.5307 187.384C44.1047 187.53 43.7142 187.765 43.3847 188.072C43.0551 188.379 42.7939 188.752 42.6179 189.166C42.4419 189.581 42.3551 190.028 42.3631 190.478C42.3712 190.929 42.4739 191.372 42.6646 191.78C43.4211 193.546 45.5394 194.588 47.2963 195.025C49.0532 195.462 52.8023 194.857 53.7858 194.68C53.9875 195.21 54.1809 195.748 54.391 196.286C55.3661 198.808 56.358 201.397 57.2575 203.927C57.5769 204.818 57.8543 205.709 58.0981 206.6C57.8039 206.062 57.5517 205.617 57.5097 205.55C56.1143 203.574 52.2475 200.565 49.6584 201.347C49.2313 201.493 48.8398 201.727 48.5095 202.035C48.1792 202.343 47.9174 202.716 47.7413 203.132C47.5652 203.548 47.4788 203.996 47.4875 204.447C47.4963 204.898 47.6001 205.343 47.7923 205.751C48.5404 207.508 50.6587 208.559 52.4156 208.996C54.1725 209.433 57.5601 208.878 58.7285 208.677C58.9891 209.601 59.2581 210.518 59.4683 211.425C59.5944 212.039 59.7709 212.627 59.8634 213.258C59.9558 213.888 60.0819 214.494 60.1828 215.107C60.3509 216.284 60.5274 217.503 60.6535 218.663C60.746 219.504 60.8217 220.235 60.9057 221.008C60.6031 220.117 59.9642 218.377 59.897 218.243C58.8799 216.393 57.4108 214.831 55.6267 213.703C55.5167 213.492 55.3902 213.29 55.2484 213.098C54.9894 212.73 54.656 212.421 54.2699 212.189C53.8838 211.958 53.4534 211.81 53.0067 211.756C52.5599 211.701 52.1067 211.741 51.6762 211.872C51.2457 212.003 50.8476 212.223 50.5074 212.518C48.5152 214.359 49.1877 219.243 50.2048 221.412C50.272 221.538 51.0454 222.874 51.6002 223.707L50.457 222.378C49.6668 221.479 48.8598 220.605 47.994 219.663L46.6742 218.335C46.2455 217.873 45.7328 217.453 45.262 217.007C44.1356 215.99 42.9504 215.023 41.7399 214.065C42.5217 213.376 45.2704 210.896 46.0354 209.24C46.8003 207.584 47.2963 205.289 46.3884 203.599C46.1886 203.196 45.9062 202.839 45.5595 202.552C45.2127 202.264 44.8095 202.053 44.3759 201.932C43.9423 201.811 43.488 201.782 43.0426 201.848C42.5971 201.913 42.1705 202.072 41.7903 202.313C39.5375 203.826 39.4703 208.727 40.1091 211.056C40.1511 211.198 40.8236 212.812 41.2103 213.695C40.479 213.123 39.7477 212.56 38.9827 212.014C36.7803 210.433 34.5107 208.895 32.2579 207.348L30.19 205.928C30.4758 205.684 33.813 202.801 34.662 200.943C35.4185 199.262 35.9229 197.001 35.015 195.311C34.8179 194.904 34.5368 194.543 34.1902 194.253C33.8437 193.962 33.4395 193.748 33.0043 193.625C32.5691 193.502 32.1128 193.473 31.6654 193.539C31.218 193.605 30.7896 193.765 30.4085 194.008C28.1557 195.53 28.0884 200.422 28.7273 202.75C28.7777 202.927 29.7528 205.272 30.0302 205.827C28.5087 204.776 27.0125 203.717 25.575 202.607C23.6303 201.125 21.7828 199.519 20.0438 197.799C20.1699 197.681 23.6669 194.689 24.5327 192.756C25.2892 191.074 25.802 188.813 24.8941 187.123C24.6907 186.727 24.4071 186.376 24.0612 186.095C23.7153 185.813 23.3147 185.607 22.8848 185.488C22.4548 185.37 22.005 185.342 21.5637 185.406C21.1224 185.471 20.6993 185.626 20.3212 185.863C18.0768 187.384 18.0096 192.276 18.64 194.605C18.6905 194.79 19.7412 197.286 19.9598 197.723C19.8589 197.623 19.7412 197.53 19.6488 197.429C17.9514 195.653 16.4154 193.728 15.059 191.68C14.3025 190.562 13.63 189.444 13.008 188.317C13.7141 187.821 16.9252 185.543 17.9003 183.921C18.8754 182.298 19.5815 180.138 18.8754 178.356C18.7211 177.932 18.4792 177.545 18.1654 177.221C17.8516 176.896 17.473 176.642 17.0542 176.474C16.6354 176.306 16.1859 176.228 15.7349 176.245C15.284 176.262 14.8417 176.374 14.437 176.574C12.0329 177.835 11.436 182.693 11.8479 185.081C11.8479 185.207 12.243 186.501 12.5288 187.443C12.2598 186.939 11.9656 186.426 11.6882 185.947C10.7299 184.131 10.007 182.408 9.3093 180.903C8.93943 180.062 8.62 179.222 8.3342 178.482C8.77972 177.641 10.5198 174.212 10.6375 172.362C10.7551 170.513 10.3853 168.218 8.95624 166.974C8.62519 166.667 8.23307 166.434 7.80558 166.29C7.37809 166.145 6.92488 166.093 6.47567 166.135C6.02645 166.178 5.59136 166.316 5.19891 166.538C4.80646 166.761 4.46551 167.064 4.19841 167.428C2.64329 169.656 4.34972 174.245 5.81238 176.17C5.93847 176.338 8.22492 178.692 8.25013 178.692V178.642C8.51072 179.365 8.80494 180.138 9.14118 180.979C9.77163 182.534 10.4946 184.274 11.4108 186.123C12.3809 188.12 13.4642 190.059 14.6556 191.932C15.9884 194.021 17.5016 195.99 19.178 197.816L19.2369 197.875C18.5476 197.48 16.5805 196.446 16.4208 196.379C14.1596 195.496 9.28408 195.126 7.56924 197.219C7.29293 197.574 7.0944 197.984 6.98655 198.421C6.87869 198.858 6.86391 199.313 6.94318 199.756C7.02244 200.199 7.19397 200.62 7.44665 200.993C7.69932 201.365 8.02748 201.681 8.40985 201.918C10.007 202.969 12.3523 202.675 14.0587 202.069C15.9837 201.389 19.1696 198.32 19.4218 198.068C21.1761 199.893 23.0491 201.601 25.0286 203.179C26.1803 204.104 27.3655 205.003 28.5676 205.886C27.9539 205.558 27.4076 205.281 27.3319 205.247C25.0707 204.364 20.1952 203.986 18.4803 206.088C18.204 206.443 18.0055 206.852 17.8976 207.289C17.7898 207.726 17.775 208.181 17.8542 208.624C17.9335 209.067 18.105 209.489 18.3577 209.861C18.6104 210.234 18.9386 210.549 19.3209 210.787C20.9181 211.837 23.2634 211.543 24.9698 210.938C26.6762 210.333 29.5679 207.811 30.3161 207.138C30.7868 207.475 31.2407 207.811 31.7115 208.139C33.9391 209.736 36.1751 211.316 38.3186 212.93C39.0752 213.502 39.7981 214.09 40.521 214.679C39.983 214.393 39.5291 214.157 39.4534 214.132C37.1922 213.249 32.3167 212.871 30.6019 214.973C30.3254 215.329 30.1267 215.739 30.0188 216.177C29.9109 216.614 29.8961 217.07 29.9753 217.513C30.0545 217.957 30.2261 218.379 30.4788 218.753C30.7316 219.126 31.0599 219.442 31.4425 219.68C33.048 220.731 35.3849 220.437 37.0913 219.831C38.7978 219.226 41.2944 216.898 42.1854 216.082C42.9083 216.704 43.6397 217.326 44.3121 217.965C44.7661 218.411 45.2284 218.806 45.6571 219.285C46.0858 219.764 46.4977 220.193 46.9432 220.647C47.7334 221.538 48.5488 222.463 49.2969 223.354C49.8181 223.967 50.3057 224.564 50.8016 225.169C50.0535 224.589 48.5656 223.488 48.4311 223.421C46.338 222.202 41.5718 221.092 39.5543 222.916C39.2289 223.228 38.9727 223.605 38.8023 224.022C38.632 224.439 38.5513 224.887 38.5656 225.338C38.5799 225.788 38.6888 226.23 38.8852 226.636C39.0816 227.041 39.3611 227.401 39.7056 227.691C41.1262 228.977 43.4883 229.036 45.262 228.7C47.2206 228.322 50.7007 225.884 51.1463 225.581C51.9869 226.573 52.735 227.557 53.4579 228.49C54.4078 229.709 55.2821 230.869 56.0638 231.945C56.585 231.861 57.2155 231.743 57.9552 231.608C56.9969 230.347 55.9209 228.969 54.7188 227.489C53.8782 226.472 53.0376 225.405 52.0709 224.312C52.9551 223.269 53.7802 222.177 54.5423 221.042C56.4673 221.723 60.4266 221.622 60.9562 221.605C61.0822 222.883 61.1915 224.127 61.2756 225.304C61.4269 227.338 61.5362 229.196 61.6034 230.852L63.2846 230.448C63.1754 228.86 63.0409 227.086 62.8559 225.169C62.7298 223.866 62.5701 222.479 62.3936 221.059C62.898 220.916 66.9917 219.714 68.5048 218.419C69.8834 217.242 71.304 215.359 71.1947 213.451C71.1821 213.001 71.075 212.558 70.8804 212.151C70.6857 211.744 70.4078 211.383 70.0647 211.091C69.7216 210.798 69.3209 210.581 68.8885 210.454C68.4562 210.326 68.0018 210.29 67.5549 210.349C64.8734 210.787 62.7635 215.2 62.402 217.595C62.402 217.738 62.3179 219.277 62.2927 220.285C62.2171 219.705 62.1582 219.142 62.0742 218.545C61.9144 217.36 61.7211 216.183 61.511 214.922C61.3933 214.317 61.2756 213.703 61.1495 213.081C61.0234 212.459 60.8553 211.829 60.704 211.19C60.3257 209.727 59.8634 208.265 59.3842 206.802C60.4182 206.659 64.0832 206.104 65.6299 205.121C67.1766 204.137 68.8663 202.523 69.0428 200.615C69.0982 200.168 69.0591 199.714 68.9282 199.283C68.7972 198.852 68.5772 198.454 68.2825 198.113C67.9878 197.772 67.6248 197.497 67.2172 197.306C66.8095 197.114 66.3661 197.01 65.9157 197.001C63.2006 197.001 60.4434 201.069 59.7205 203.381C59.7205 203.524 59.3422 205.247 59.1825 206.197C58.8799 205.356 58.5856 204.44 58.2494 203.557C57.2911 201.035 56.2403 198.514 55.2064 195.95C54.887 195.176 54.5844 194.395 54.2733 193.621C54.6348 193.571 59.0059 193.008 60.7376 191.94C62.2759 190.982 63.9739 189.343 64.1505 187.434C64.2058 186.987 64.1668 186.534 64.0358 186.103C63.9049 185.672 63.6849 185.273 63.3902 184.932C63.0955 184.592 62.7325 184.317 62.3248 184.125C61.9171 183.933 61.4738 183.829 61.0234 183.82C58.3082 183.82 55.5511 187.888 54.8281 190.2C54.7777 190.377 54.2985 192.848 54.2145 193.487C53.5252 191.806 52.8611 190.057 52.2727 188.342C51.4665 186.031 50.8122 183.669 50.3141 181.273C50.4906 181.273 55.0551 180.684 56.8204 179.592C58.3587 178.642 60.0567 176.994 60.2332 175.086C60.29 174.639 60.2519 174.184 60.1214 173.753C59.991 173.321 59.7711 172.922 59.4761 172.581C59.1811 172.24 58.8176 171.965 58.4093 171.774C58.001 171.583 57.557 171.48 57.1062 171.471C54.391 171.471 51.6338 175.54 50.9109 177.852C50.8605 178.036 50.3477 180.701 50.2889 181.214C50.2889 181.071 50.2216 180.928 50.1964 180.794C49.7609 178.377 49.5414 175.927 49.5407 173.472C49.5407 172.11 49.5407 170.816 49.6668 169.555C50.5074 169.555 54.4667 169.403 56.1731 168.588C57.8795 167.773 59.67 166.36 60.0483 164.486C60.1548 164.048 60.1677 163.592 60.0862 163.149C60.0046 162.706 59.8303 162.285 59.5749 161.913C59.3194 161.542 58.9884 161.229 58.6035 160.994C58.2187 160.76 57.7887 160.609 57.3415 160.552C54.6432 160.274 51.4573 163.998 50.4822 166.218C50.4318 166.335 50.0283 167.621 49.7509 168.563C49.8013 168 49.8349 167.411 49.8938 166.882C50.1039 164.839 50.4149 162.981 50.7344 161.342C50.9109 160.409 51.0874 159.568 51.2556 158.82C52.0962 158.358 55.4586 156.458 56.5514 154.979C57.6442 153.499 58.6277 151.389 58.1065 149.548C58.0067 149.11 57.816 148.698 57.5468 148.338C57.2776 147.978 56.9358 147.679 56.5436 147.459C56.1514 147.24 55.7175 147.105 55.27 147.064C54.8224 147.022 54.3712 147.076 53.9455 147.22Z" fill="#212121"/>
<path d="M6.26634 190.679C8.38467 190.519 12.5541 188.199 12.5541 188.199C12.5541 188.199 10.192 185.921 10.0323 185.795C8.09046 184.349 3.48394 182.693 1.27314 184.274C0.914107 184.546 0.616241 184.89 0.398883 185.284C0.181525 185.678 0.0495359 186.114 0.0114855 186.563C-0.0265648 187.011 0.0301748 187.463 0.178019 187.888C0.325864 188.314 0.561508 188.703 0.869652 189.032C2.12216 190.477 4.45904 190.805 6.26634 190.679Z" fill="#212121"/>
<path d="M188.56 59.1917C188.56 59.2337 190.88 56.2664 191.006 56.0562C192.427 53.6941 193.797 48.289 191.763 45.9689C191.414 45.592 190.99 45.2926 190.518 45.0902C190.046 44.8878 189.536 44.7869 189.023 44.7941C188.509 44.8012 188.003 44.9162 187.536 45.1316C187.07 45.3471 186.654 45.6581 186.316 46.0446C184.828 47.6333 184.71 50.3233 185.055 52.3492C185.467 54.686 188.552 59.1917 188.56 59.1917Z" fill="#212121"/>
<path d="M211.181 47.4231C208.483 45.91 203.473 48.3478 201.447 50.2308C201.27 50.3905 198.824 53.2401 198.883 53.2653H198.942C198.101 53.6436 197.26 54.0555 196.378 54.5262C194.697 55.4173 192.797 56.4344 190.805 57.6785C188.645 58.9945 186.565 60.4373 184.576 61.9992C182.331 63.747 180.249 65.6939 178.355 67.8162L178.288 67.8919C178.658 67.0513 179.616 64.7228 179.667 64.5295C180.423 61.8731 180.305 56.2999 177.733 54.5851C177.297 54.3132 176.808 54.1361 176.299 54.0654C175.79 53.9947 175.271 54.0319 174.777 54.1746C174.284 54.3173 173.825 54.5623 173.432 54.8937C173.039 55.2251 172.72 55.6355 172.496 56.0982C171.479 58.0232 172.076 60.6459 172.95 62.512C173.934 64.6219 177.775 67.8919 178.078 68.1525C176.2 70.3421 174.473 72.6563 172.908 75.0791C171.983 76.4829 171.101 77.9287 170.235 79.383C170.529 78.6601 170.79 78.0128 170.815 77.9119C171.563 75.2556 171.454 69.6824 168.882 67.9675C168.445 67.6967 167.957 67.5202 167.449 67.4496C166.94 67.379 166.423 67.4158 165.929 67.5575C165.436 67.6993 164.977 67.943 164.584 68.2728C164.19 68.6025 163.87 69.0112 163.645 69.4722C162.627 71.4056 163.224 74.0283 164.099 75.8945C164.973 77.7606 168.201 80.6439 169.058 81.392C168.73 81.9552 168.394 82.51 168.075 83.0732C166.511 85.7884 164.964 88.4951 163.367 91.101C162.804 92.0257 162.216 92.9083 161.636 93.7994C161.896 93.1521 162.115 92.6057 162.14 92.5217C162.888 89.8653 162.779 84.2921 160.198 82.5773C159.763 82.3039 159.276 82.1254 158.767 82.0534C158.259 81.9815 157.741 82.0177 157.247 82.1597C156.754 82.3018 156.296 82.5464 155.903 82.8777C155.511 83.2089 155.193 83.6193 154.97 84.082C153.944 86.0154 154.541 88.6381 155.415 90.5042C156.289 92.3703 159.206 94.9762 160.223 95.8673C159.601 96.7583 158.971 97.6494 158.324 98.4816C157.87 99.0448 157.483 99.6164 156.987 100.163L155.583 101.777C154.65 102.769 153.7 103.794 152.767 104.736C152.128 105.4 151.506 106.022 150.876 106.644C151.447 105.736 152.557 103.929 152.599 103.769C153.526 101.524 153.859 99.0773 153.566 96.6658C153.684 96.4218 153.774 96.1652 153.835 95.9009C153.977 95.4071 154.013 94.8889 153.942 94.38C153.87 93.8712 153.692 93.3831 153.419 92.9477C153.147 92.5123 152.785 92.1392 152.358 91.8529C151.932 91.5666 151.449 91.3734 150.943 91.286C147.883 90.8488 144.075 94.9258 142.865 97.4056C142.798 97.5485 142.192 99.2213 141.831 100.289C141.949 99.6248 142.075 98.9943 142.184 98.3134C142.411 96.9769 142.604 95.6319 142.814 94.1861C142.898 93.4883 142.974 92.7822 143.05 92.0677C143.125 91.3532 143.159 90.6051 143.209 89.8653C143.302 88.1841 143.31 86.3936 143.285 84.6368C144.454 84.8385 148.631 85.4774 150.632 84.973C152.633 84.4686 155.037 83.2918 155.877 81.2407C156.093 80.7746 156.208 80.2682 156.214 79.7547C156.22 79.2412 156.118 78.7321 155.914 78.2608C155.71 77.7894 155.409 77.3665 155.031 77.0195C154.652 76.6726 154.204 76.4095 153.717 76.2475C150.758 75.3481 146.379 78.7693 144.807 81.0642C144.706 81.2071 143.764 82.964 143.26 83.9307C143.26 82.8799 143.209 81.8207 143.151 80.7532C142.974 77.6681 142.705 74.5495 142.445 71.4392C142.36 70.4894 142.293 69.5395 142.218 68.5896C142.638 68.6652 147.581 69.5479 149.833 68.9679C151.826 68.4551 154.23 67.2867 155.079 65.2356C155.293 64.7687 155.406 64.262 155.411 63.7485C155.416 63.2349 155.313 62.726 155.109 62.255C154.904 61.7839 154.603 61.3612 154.224 61.0145C153.845 60.6677 153.397 60.4046 152.91 60.2424C149.96 59.3345 145.58 62.7642 144 65.0591C143.882 65.2272 142.52 67.7574 142.209 68.4215C142.049 66.3284 141.915 64.2184 141.865 62.1758C141.777 59.3873 141.872 56.5961 142.15 53.8201C142.344 53.8201 147.497 54.8036 149.8 54.2068C151.8 53.7025 154.205 52.5256 155.045 50.4829C155.261 50.0162 155.376 49.5093 155.382 48.9952C155.388 48.4811 155.286 47.9714 155.083 47.4994C154.879 47.0274 154.578 46.6038 154.199 46.256C153.82 45.9083 153.372 45.6443 152.885 45.4813C149.926 44.5819 145.546 48.0031 143.974 50.298C143.848 50.4829 142.386 53.1981 142.159 53.7109C142.159 53.5511 142.159 53.383 142.159 53.2233C142.512 50.4459 143.114 47.7057 143.958 45.0358C144.403 43.5563 144.907 42.1693 145.437 40.8328C146.379 41.1102 150.699 42.3122 152.826 42.0096C154.953 41.707 157.391 40.7907 158.45 38.8826C158.714 38.4419 158.884 37.9505 158.946 37.4403C159.009 36.93 158.963 36.4123 158.812 35.9208C158.662 35.4293 158.41 34.9749 158.072 34.5873C157.734 34.1997 157.319 33.8874 156.853 33.6708C154.011 32.4519 149.287 35.4025 147.463 37.4872C147.362 37.5964 146.488 38.8573 145.866 39.7904C146.11 39.1852 146.353 38.5631 146.597 37.9915C147.522 35.8396 148.497 33.9314 149.38 32.2502C149.892 31.2919 150.363 30.4429 150.825 29.6443C151.885 29.4341 156.163 28.5179 157.886 27.2906C159.61 26.0633 161.375 24.1047 161.434 21.9191C161.469 21.4077 161.397 20.8945 161.222 20.4127C161.047 19.9309 160.773 19.4912 160.417 19.1221C160.061 18.7529 159.632 18.4624 159.157 18.2695C158.682 18.0765 158.172 17.9854 157.66 18.0019C154.574 18.2289 151.775 23.0455 151.086 25.7103C151.027 25.9456 150.565 29.6695 150.615 29.6611H150.682C150.229 30.4177 149.749 31.233 149.245 32.1325C148.329 33.8137 147.303 35.6967 146.337 37.8318C145.258 40.1304 144.318 42.491 143.52 44.9013C142.611 47.5855 141.942 50.3451 141.52 53.1477C141.524 53.1812 141.524 53.215 141.52 53.2485C141.377 52.3575 140.881 49.8861 140.822 49.6844C139.982 47.0533 136.812 42.4635 133.719 42.4551C133.206 42.4675 132.702 42.5874 132.238 42.807C131.774 43.0267 131.362 43.3412 131.028 43.7302C130.693 44.1193 130.444 44.5742 130.297 45.0655C130.149 45.5568 130.107 46.0736 130.172 46.5825C130.39 48.7513 132.332 50.6174 134.089 51.6934C136.073 52.9039 141.083 53.5175 141.478 53.5596C141.123 56.4231 140.96 59.3073 140.99 62.1926C140.99 63.8738 141.049 65.555 141.133 67.2362C140.982 66.4629 140.839 65.782 140.805 65.6811C139.965 63.0584 136.796 58.4687 133.702 58.4603C133.189 58.4734 132.684 58.5945 132.22 58.8158C131.757 59.037 131.345 59.3534 131.012 59.7444C130.679 60.1354 130.432 60.5921 130.287 61.0849C130.142 61.5777 130.103 62.0955 130.172 62.6045C130.382 64.7732 132.332 66.631 134.089 67.707C135.846 68.7829 140.133 69.3882 141.259 69.5563C141.259 70.2036 141.327 70.8508 141.369 71.5065C141.562 74.6251 141.764 77.7354 141.873 80.7532C141.915 81.8291 141.873 82.8967 141.915 83.9559C141.772 83.275 141.654 82.7034 141.629 82.6109C140.789 79.9798 137.619 75.3985 134.526 75.3901C134.012 75.4019 133.507 75.5221 133.042 75.743C132.578 75.9638 132.166 76.2802 131.833 76.6715C131.499 77.0628 131.252 77.5201 131.108 78.0134C130.964 78.5068 130.925 79.0251 130.995 79.5343C131.206 81.703 133.147 83.5608 134.913 84.6368C136.678 85.7127 140.536 86.318 141.881 86.4525C141.881 87.5453 141.814 88.6381 141.738 89.6888C141.671 90.4117 141.654 91.101 141.537 91.824C141.419 92.5469 141.352 93.2446 141.259 93.9423C141.032 95.2788 140.805 96.6658 140.553 97.9604C140.377 98.8682 140.2 99.7341 140.024 100.6C140.024 99.5239 139.897 97.4224 139.872 97.2375C139.444 94.5139 137.006 89.4955 133.946 89.0247C133.437 88.9597 132.92 89.0027 132.428 89.1507C131.937 89.2987 131.482 89.5486 131.094 89.884C130.705 90.2194 130.391 90.6328 130.173 91.0974C129.955 91.562 129.837 92.0673 129.827 92.5805C129.709 94.7661 131.349 96.8928 132.929 98.221C134.661 99.6836 139.317 101.02 139.906 101.18C139.603 102.617 139.301 104.004 138.99 105.316C138.586 107.042 138.191 108.639 137.804 110.107C138.25 110.502 138.805 110.948 139.486 111.528C139.914 109.788 140.326 107.846 140.814 105.719C141.125 104.265 141.427 102.701 141.722 101.096C143.279 101.13 144.836 101.073 146.387 100.928C147.169 103.122 150.111 106.568 150.489 107.005C149.455 108.039 148.43 109.031 147.446 109.947C145.765 111.545 144.193 112.965 142.772 114.218C143.285 114.613 143.806 115.058 144.353 115.437C145.689 114.201 147.152 112.814 148.724 111.234C149.783 110.191 150.893 109.056 152.027 107.871C152.515 108.216 156.508 110.973 158.752 111.385C160.787 111.755 163.468 111.671 165.082 110.191C165.471 109.857 165.785 109.445 166.005 108.982C166.225 108.519 166.345 108.014 166.358 107.502C166.37 106.989 166.275 106.48 166.079 106.006C165.882 105.532 165.588 105.105 165.217 104.752C162.905 102.693 157.483 103.996 155.129 105.391C154.986 105.475 153.566 106.543 152.675 107.232C153.137 106.745 153.591 106.282 154.053 105.778C154.986 104.786 155.886 103.777 156.861 102.685C157.306 102.147 157.769 101.6 158.223 101.003C158.677 100.407 159.122 99.8349 159.576 99.2549C160.602 97.8679 161.568 96.4221 162.518 94.9342C163.359 95.7748 166.503 98.5908 168.461 99.2717C170.42 99.9526 173.085 100.264 174.892 99.0532C175.329 98.7829 175.705 98.4235 175.994 97.9983C176.283 97.5732 176.479 97.0918 176.569 96.5857C176.66 96.0797 176.642 95.5602 176.519 95.0612C176.395 94.5623 176.167 94.0951 175.85 93.6901C173.883 91.3112 168.327 91.7735 165.763 92.7991C165.603 92.8579 163.846 93.7994 162.896 94.3374C163.451 93.4379 164.023 92.5469 164.578 91.6222C166.133 88.9575 167.621 86.2003 169.117 83.4683C169.579 82.6277 170.05 81.7871 170.512 80.9465C170.815 81.2407 174.455 84.704 176.649 85.4606C178.599 86.1415 181.264 86.4609 183.079 85.242C183.516 84.9708 183.89 84.611 184.178 84.1858C184.467 83.7606 184.662 83.2795 184.753 82.7738C184.843 82.2681 184.826 81.7491 184.703 81.2504C184.58 80.7517 184.353 80.2844 184.038 79.8789C182.062 77.5 176.472 77.9624 173.95 78.9879C173.757 79.0636 171.227 80.4169 170.588 80.7952C171.614 78.9627 172.648 77.147 173.74 75.3901C175.212 73.0207 176.832 70.7465 178.591 68.5812C178.733 68.7241 182.516 72.3471 184.761 73.1289C186.711 73.8098 189.376 74.1292 191.191 72.9103C191.629 72.6401 192.004 72.2806 192.293 71.8555C192.582 71.4303 192.778 70.949 192.869 70.4429C192.959 69.9368 192.942 69.4173 192.818 68.9184C192.694 68.4194 192.466 67.9522 192.15 67.5472C190.183 65.1683 184.584 65.6307 182.062 66.6562C181.861 66.7318 179.145 68.1945 178.7 68.4971C178.809 68.371 178.902 68.2281 179.002 68.1104C180.829 65.9911 182.84 64.0388 185.013 62.2766C186.206 61.2847 187.392 60.4021 188.569 59.5783C189.207 60.3264 192.15 63.7141 194.091 64.6219C196.033 65.5298 198.572 66.1182 200.505 65.1095C200.935 64.8728 201.313 64.5521 201.617 64.1664C201.921 63.7808 202.144 63.338 202.273 62.8645C202.403 62.3909 202.436 61.8962 202.37 61.4096C202.305 60.9231 202.142 60.4547 201.892 60.0322C200.211 57.4516 194.621 57.3002 191.965 58.04C191.813 58.04 190.393 58.6452 189.359 59.0739C189.897 58.7125 190.443 58.3174 190.964 57.9811C192.915 56.695 194.789 55.6443 196.453 54.7196C197.403 54.2068 198.269 53.7613 199.085 53.3494C200.093 53.7613 204.17 55.3584 206.28 55.2828C208.39 55.2071 210.946 54.5431 212.164 52.761C212.474 52.3545 212.696 51.8878 212.815 51.3906C212.934 50.8935 212.947 50.377 212.855 49.8743C212.762 49.3716 212.565 48.8938 212.277 48.4717C211.989 48.0496 211.615 47.6924 211.181 47.4231Z" fill="#212121"/>
<path d="M138.553 36.4953C140.234 38.2605 145.277 40.278 145.277 40.2864C145.277 40.2948 145.597 36.5541 145.588 36.3187C145.471 33.5615 143.63 28.2993 140.646 27.4755C140.148 27.353 139.629 27.3366 139.124 27.4275C138.619 27.5183 138.139 27.7144 137.715 28.003C137.291 28.2916 136.932 28.6662 136.662 29.1025C136.392 29.5388 136.217 30.027 136.148 30.5354C135.753 32.6705 137.166 34.9822 138.553 36.4953Z" fill="#212121"/>
<path d="M382.042 247.656C382.042 247.656 383.724 245.495 383.85 245.344C384.892 243.604 385.901 239.619 384.404 237.904C384.149 237.626 383.837 237.404 383.489 237.254C383.142 237.103 382.767 237.028 382.388 237.033C382.01 237.038 381.637 237.122 381.293 237.281C380.95 237.44 380.644 237.67 380.395 237.955C379.294 239.132 379.201 241.107 379.462 242.603C379.764 244.36 382.042 247.656 382.042 247.656Z" fill="#212121"/>
<path d="M398.712 239.022C396.728 237.904 393.029 239.703 391.541 241.09C391.407 241.208 389.608 243.31 389.65 243.326H389.692C389.104 243.604 388.482 243.915 387.809 244.259C386.565 244.915 385.17 245.663 383.699 246.58C382.105 247.547 380.572 248.611 379.109 249.765C377.457 251.043 375.924 252.466 374.528 254.019L374.477 254.078C374.754 253.464 375.461 251.741 375.503 251.598C376.049 249.639 375.973 245.537 374.074 244.276C373.753 244.075 373.394 243.944 373.019 243.891C372.645 243.837 372.263 243.863 371.899 243.967C371.535 244.071 371.197 244.25 370.907 244.493C370.617 244.736 370.381 245.037 370.215 245.377C369.467 246.806 369.904 248.74 370.551 250.11C371.274 251.665 374.099 254.078 374.326 254.263C372.947 255.879 371.675 257.584 370.518 259.365C369.834 260.407 369.176 261.467 368.542 262.543L368.98 261.458C369.526 259.5 369.442 255.397 367.55 254.128C367.229 253.927 366.87 253.796 366.495 253.744C366.12 253.691 365.738 253.718 365.374 253.823C365.01 253.927 364.672 254.107 364.382 254.351C364.093 254.595 363.857 254.897 363.692 255.238C362.944 256.667 363.381 258.6 364.02 259.97C364.659 261.341 367.046 263.476 367.685 264.022L366.954 265.266C365.802 267.258 364.667 269.251 363.49 271.15C363.07 271.831 362.65 272.479 362.213 273.134C362.406 272.664 362.566 272.294 362.583 272.201C363.137 270.243 363.053 266.132 361.153 264.871C360.832 264.67 360.473 264.539 360.098 264.487C359.723 264.434 359.341 264.461 358.977 264.566C358.613 264.67 358.275 264.85 357.985 265.094C357.696 265.338 357.46 265.64 357.295 265.981C356.547 267.401 356.984 269.343 357.631 270.713C358.279 272.084 360.422 274 361.17 274.656C360.708 275.32 360.254 275.976 359.775 276.589C359.439 277.001 359.144 277.43 358.783 277.825L357.749 279.01C357.068 279.741 356.362 280.498 355.681 281.196C355.21 281.683 354.748 282.137 354.286 282.599C354.706 281.927 355.505 280.599 355.555 280.481C356.237 278.825 356.483 277.022 356.27 275.244C356.354 275.064 356.419 274.875 356.463 274.681C356.562 274.32 356.585 273.942 356.53 273.572C356.475 273.201 356.343 272.846 356.143 272.53C355.942 272.213 355.678 271.942 355.367 271.733C355.056 271.525 354.705 271.384 354.336 271.319C352.075 270.991 349.293 273.992 348.385 275.824C348.326 275.925 347.889 277.161 347.62 277.943C347.704 277.463 347.796 276.993 347.88 276.497C348.048 275.505 348.191 274.521 348.343 273.454C348.404 272.944 348.463 272.423 348.519 271.89C348.586 271.369 348.595 270.806 348.637 270.268C348.704 268.998 348.712 267.746 348.687 266.418C349.528 266.561 352.63 267.04 354.109 266.662C355.589 266.283 357.346 265.401 357.968 263.913C358.127 263.569 358.211 263.196 358.216 262.818C358.221 262.439 358.146 262.064 357.997 261.717C357.847 261.369 357.625 261.057 357.346 260.801C357.067 260.545 356.738 260.351 356.379 260.231C354.202 259.567 350.974 262.114 349.814 263.787C349.738 263.888 349.04 265.182 348.67 265.897C348.67 265.115 348.67 264.342 348.595 263.551C348.46 261.282 348.259 258.987 348.065 256.692C348.006 255.994 347.964 255.288 347.906 254.59C348.217 254.649 351.856 255.297 353.512 254.868C354.983 254.49 356.757 253.607 357.379 252.119C357.537 251.775 357.62 251.401 357.624 251.023C357.628 250.645 357.552 250.269 357.401 249.922C357.25 249.575 357.028 249.263 356.75 249.008C356.471 248.752 356.141 248.557 355.782 248.437C353.605 247.773 350.377 250.32 349.217 251.993C349.133 252.119 348.132 253.977 347.897 254.464C347.779 252.918 347.679 251.379 347.645 249.858C347.579 247.804 347.649 245.749 347.855 243.705C347.998 243.705 351.798 244.428 353.496 243.99C354.967 243.612 356.732 242.721 357.354 241.242C357.513 240.898 357.598 240.525 357.603 240.147C357.608 239.768 357.533 239.393 357.383 239.045C357.233 238.698 357.011 238.386 356.733 238.13C356.454 237.874 356.124 237.68 355.765 237.56C353.588 236.896 350.36 239.443 349.2 241.107C349.108 241.242 348.032 243.242 347.863 243.629C347.863 243.511 347.863 243.385 347.863 243.268C348.124 241.223 348.565 239.206 349.183 237.24C349.511 236.148 349.889 235.122 350.276 234.139C350.965 234.34 354.151 235.223 355.723 234.979C357.295 234.735 359.086 234.08 359.867 232.667C360.063 232.343 360.187 231.981 360.233 231.605C360.279 231.229 360.244 230.847 360.133 230.486C360.021 230.124 359.834 229.79 359.584 229.505C359.334 229.22 359.026 228.992 358.682 228.834C356.589 227.935 353.109 230.112 351.772 231.642C351.697 231.726 351.049 232.659 350.587 233.323C350.772 232.878 350.949 232.415 351.133 231.995C351.814 230.415 352.537 229.011 353.185 227.792C353.554 227.086 353.907 226.464 354.244 225.875C355.025 225.716 358.178 225.035 359.447 224.144C360.716 223.253 362.019 221.79 362.061 220.184C362.085 219.807 362.029 219.428 361.898 219.074C361.766 218.719 361.561 218.396 361.296 218.126C361.031 217.855 360.713 217.644 360.361 217.505C360.009 217.366 359.632 217.302 359.254 217.318C356.976 217.486 354.883 221.025 354.403 223C354.403 223.169 354.025 225.917 354.059 225.909H354.109C353.773 226.469 353.42 227.075 353.05 227.725C352.378 228.96 351.621 230.356 350.906 231.928C350.114 233.615 349.421 235.347 348.83 237.114C348.164 239.093 347.672 241.127 347.359 243.192C347.363 243.217 347.363 243.242 347.359 243.268C347.25 242.612 346.888 240.746 346.846 240.636C346.224 238.703 343.887 235.324 341.609 235.315C341.232 235.326 340.86 235.416 340.519 235.58C340.178 235.743 339.875 235.976 339.63 236.263C339.384 236.551 339.202 236.886 339.094 237.249C338.986 237.611 338.955 237.992 339.003 238.367C339.163 239.972 340.601 241.343 341.895 242.133C343.358 243.024 347.048 243.478 347.334 243.511C347.077 245.62 346.956 247.742 346.972 249.866C346.972 251.11 347.023 252.388 347.082 253.607C346.972 253.035 346.863 252.531 346.846 252.464C346.224 250.522 343.887 247.143 341.609 247.143C341.231 247.152 340.859 247.242 340.517 247.404C340.176 247.567 339.872 247.8 339.627 248.088C339.381 248.376 339.198 248.712 339.091 249.075C338.984 249.438 338.954 249.819 339.003 250.194C339.163 251.791 340.592 253.161 341.895 253.952C343.198 254.742 346.342 255.204 347.174 255.313C347.174 255.793 347.225 256.272 347.258 256.751C347.393 259.046 347.544 261.341 347.628 263.593C347.628 264.392 347.628 265.174 347.628 265.955C347.527 265.451 347.443 265.031 347.418 264.964C346.804 263.03 344.467 259.651 342.189 259.643C341.812 259.654 341.44 259.744 341.099 259.907C340.758 260.07 340.455 260.303 340.21 260.59C339.964 260.878 339.782 261.213 339.674 261.576C339.566 261.938 339.535 262.319 339.584 262.694C339.743 264.299 341.172 265.67 342.467 266.46C343.761 267.25 346.619 267.662 347.603 267.796C347.603 268.637 347.561 269.402 347.502 270.184C347.452 270.713 347.435 271.226 347.359 271.756C347.283 272.285 347.216 272.798 347.149 273.311C346.981 274.303 346.813 275.32 346.628 276.278C346.502 276.942 346.367 277.581 346.241 278.22C346.241 277.43 346.149 275.883 346.132 275.749C345.812 273.739 344.014 270.049 341.761 269.696C341.385 269.649 341.004 269.681 340.642 269.791C340.281 269.9 339.946 270.085 339.659 270.332C339.373 270.579 339.142 270.884 338.982 271.226C338.821 271.568 338.734 271.941 338.726 272.319C338.642 273.924 339.844 275.496 341.013 276.471C342.181 277.447 345.72 278.539 346.149 278.657C345.93 279.708 345.703 280.742 345.476 281.7C345.182 282.969 344.888 284.146 344.636 285.231C344.963 285.516 345.375 285.878 345.854 286.281C346.168 284.992 346.493 283.563 346.83 281.994C347.057 280.927 347.283 279.775 347.494 278.59C348.644 278.618 349.795 278.576 350.94 278.464C351.512 280.086 353.68 282.625 353.958 282.944C353.193 283.709 352.445 284.44 351.722 285.113C350.478 286.29 349.318 287.34 348.275 288.257C348.645 288.551 349.04 288.854 349.444 289.156C350.419 288.248 351.503 287.231 352.655 286.088C353.437 285.323 354.26 284.482 355.093 283.617C355.454 283.869 358.396 285.903 360.044 286.206C361.54 286.475 363.516 286.416 364.701 285.323C364.989 285.078 365.223 284.775 365.386 284.433C365.549 284.091 365.639 283.719 365.648 283.341C365.658 282.962 365.587 282.586 365.441 282.237C365.296 281.887 365.078 281.573 364.802 281.313C363.12 279.8 359.102 280.759 357.354 281.793C357.245 281.851 356.202 282.633 355.547 283.137L356.564 282.07C357.245 281.347 357.909 280.599 358.632 279.792L359.632 278.59C359.977 278.186 360.296 277.749 360.632 277.295C361.38 276.278 362.095 275.211 362.793 274.118C363.432 274.715 365.735 276.808 367.181 277.312C368.626 277.816 370.585 278.043 371.922 277.152C372.243 276.952 372.518 276.687 372.73 276.373C372.941 276.059 373.085 275.705 373.15 275.332C373.216 274.96 373.203 274.578 373.111 274.21C373.02 273.843 372.852 273.5 372.619 273.202C371.174 271.445 367.071 271.789 365.188 272.537C365.071 272.588 363.768 273.277 363.07 273.672C363.482 273.008 363.911 272.352 364.297 271.672C365.441 269.705 366.542 267.679 367.66 265.661C367.996 265.048 368.341 264.434 368.685 263.82C368.912 264.039 371.594 266.586 373.208 267.183C374.645 267.679 376.57 267.914 377.949 267.023C378.27 266.823 378.545 266.557 378.757 266.244C378.968 265.93 379.112 265.576 379.178 265.203C379.243 264.83 379.23 264.448 379.139 264.081C379.047 263.714 378.879 263.37 378.646 263.072C377.201 261.315 373.107 261.652 371.216 262.408C371.073 262.467 369.206 263.467 368.744 263.745C369.501 262.391 370.266 261.055 371.073 259.76C372.155 258.005 373.348 256.32 374.645 254.717C374.754 254.817 377.537 257.491 379.193 258.079C380.63 258.575 382.555 258.81 383.934 257.919C384.255 257.719 384.53 257.453 384.742 257.14C384.954 256.826 385.097 256.472 385.163 256.099C385.229 255.727 385.215 255.344 385.124 254.977C385.032 254.61 384.865 254.267 384.632 253.968C383.186 252.212 379.092 252.556 377.201 253.304C377.049 253.363 375.049 254.439 374.679 254.658C374.754 254.574 374.822 254.464 374.906 254.372C376.252 252.814 377.731 251.377 379.327 250.076C380.21 249.345 381.084 248.698 381.95 248.093C382.421 248.639 384.581 251.136 386.019 251.816C387.456 252.497 389.322 252.918 390.743 252.178C391.085 252.015 391.388 251.782 391.634 251.494C391.879 251.205 392.061 250.868 392.167 250.505C392.274 250.142 392.302 249.76 392.251 249.385C392.199 249.009 392.069 248.649 391.869 248.328C390.617 246.428 386.515 246.319 384.548 246.857C384.447 246.857 383.396 247.302 382.631 247.622C383.026 247.353 383.472 247.067 383.816 246.781C385.254 245.84 386.632 245.058 387.86 244.386C388.557 243.999 389.196 243.671 389.801 243.368C390.541 243.671 393.542 244.848 395.106 244.797C396.669 244.747 398.544 244.251 399.468 242.931C399.692 242.631 399.85 242.287 399.933 241.922C400.016 241.556 400.022 241.178 399.951 240.81C399.88 240.443 399.733 240.094 399.519 239.786C399.306 239.478 399.031 239.218 398.712 239.022Z" fill="#212121"/>
<path d="M345.19 230.944C346.418 232.247 350.133 233.735 350.133 233.735C350.133 233.735 350.368 230.995 350.36 230.818C350.276 228.784 348.914 224.934 346.72 224.295C346.353 224.204 345.97 224.192 345.598 224.259C345.225 224.326 344.871 224.472 344.558 224.685C344.246 224.898 343.982 225.175 343.784 225.498C343.585 225.82 343.457 226.181 343.408 226.556C343.114 228.153 344.156 229.835 345.19 230.944Z" fill="#212121"/>
<path d="M95.2214 333.773C95.2214 333.773 93.0779 336.471 92.9602 336.665C91.6488 338.842 90.3879 343.835 92.2625 345.987C92.5828 346.341 92.9746 346.622 93.412 346.813C93.8495 347.003 94.3224 347.098 94.7995 347.092C95.2765 347.086 95.7468 346.978 96.179 346.776C96.6111 346.574 96.9954 346.282 97.3061 345.92C98.6847 344.449 98.794 341.969 98.4662 340.094C98.0711 337.892 95.2214 333.773 95.2214 333.773Z" fill="#212121"/>
<path d="M74.349 344.583C76.8709 345.979 81.4606 343.743 83.3351 341.994C83.4948 341.843 85.7477 339.212 85.6972 339.195H85.6468C86.3781 338.85 87.1599 338.464 88.0005 338.026C89.564 337.186 91.3125 336.278 93.145 335.126C95.1381 333.912 97.058 332.582 98.8948 331.142C100.957 329.535 102.875 327.752 104.628 325.812L104.687 325.737C104.35 326.502 103.459 328.662 103.409 328.839C102.72 331.293 102.82 336.404 105.199 338.01C105.6 338.263 106.05 338.428 106.52 338.495C106.989 338.562 107.467 338.529 107.923 338.398C108.378 338.267 108.801 338.041 109.163 337.735C109.526 337.429 109.819 337.05 110.024 336.623C110.966 334.841 110.419 332.42 109.612 330.738C108.705 328.797 105.166 325.77 104.88 325.535C106.61 323.512 108.205 321.378 109.655 319.146C110.495 317.852 111.336 316.515 112.117 315.17C111.848 315.843 111.605 316.44 111.58 316.532C110.89 318.978 110.991 324.098 113.37 325.703C113.771 325.956 114.221 326.122 114.69 326.188C115.16 326.255 115.638 326.222 116.093 326.091C116.549 325.96 116.972 325.734 117.334 325.428C117.696 325.122 117.99 324.743 118.195 324.316C119.137 322.534 118.59 320.113 117.783 318.432C116.976 316.751 113.992 314.052 113.202 313.388L114.11 311.833C115.547 309.311 116.976 306.84 118.447 304.427C118.968 303.587 119.515 302.746 120.053 301.948C119.809 302.536 119.607 303.04 119.582 303.124C118.893 305.571 118.994 310.69 121.373 312.295C121.773 312.548 122.223 312.714 122.693 312.781C123.162 312.848 123.64 312.814 124.096 312.683C124.552 312.553 124.974 312.327 125.337 312.021C125.699 311.715 125.992 311.336 126.198 310.908C127.139 309.126 126.593 306.705 125.786 304.982C124.979 303.259 122.289 300.863 121.347 300.039C121.927 299.199 122.507 298.358 123.104 297.618C123.516 297.106 123.886 296.576 124.34 296.08L125.634 294.592C126.475 293.684 127.366 292.735 128.223 291.86C128.82 291.247 129.392 290.683 129.972 290.103C129.442 290.944 128.45 292.625 128.383 292.751C127.535 294.826 127.228 297.082 127.492 299.308C127.387 299.535 127.303 299.772 127.24 300.014C127.108 300.47 127.073 300.948 127.139 301.418C127.205 301.888 127.37 302.339 127.622 302.741C127.875 303.142 128.209 303.486 128.604 303.749C128.999 304.013 129.445 304.189 129.913 304.268C132.738 304.68 136.243 300.905 137.361 298.627C137.428 298.493 137.983 296.946 138.319 295.971C138.21 296.576 138.092 297.165 137.991 297.787C137.781 299.022 137.605 300.258 137.411 301.595C137.336 302.233 137.26 302.889 137.193 303.553C137.126 304.217 137.092 304.898 137.041 305.587C136.957 307.168 136.949 308.782 136.983 310.404C135.898 310.219 132.048 309.614 130.199 310.093C128.35 310.572 126.139 311.673 125.357 313.531C125.156 313.961 125.049 314.429 125.042 314.904C125.035 315.379 125.129 315.85 125.317 316.286C125.505 316.722 125.783 317.113 126.134 317.434C126.484 317.754 126.898 317.997 127.349 318.146C130.081 318.987 134.116 315.792 135.57 313.699C135.663 313.565 136.537 311.951 136.999 311.051C136.999 312.026 137.041 313.002 137.1 313.985C137.26 316.826 137.512 319.71 137.756 322.576C137.832 323.417 137.89 324.333 137.958 325.207C137.571 325.14 133.015 324.325 130.939 324.854C129.098 325.325 126.879 326.443 126.097 328.301C125.898 328.731 125.792 329.199 125.786 329.673C125.78 330.147 125.875 330.617 126.064 331.053C126.253 331.488 126.532 331.878 126.882 332.197C127.233 332.517 127.647 332.759 128.097 332.907C130.821 333.748 134.864 330.553 136.319 328.46C136.428 328.309 137.68 325.938 138 325.367C138.151 327.3 138.277 329.225 138.319 331.133C138.403 333.703 138.315 336.275 138.059 338.833C137.882 338.833 133.124 337.934 130.998 338.48C129.157 338.951 126.937 340.061 126.164 341.918C125.963 342.349 125.856 342.817 125.849 343.292C125.842 343.766 125.936 344.237 126.124 344.673C126.312 345.109 126.59 345.5 126.941 345.821C127.291 346.142 127.705 346.384 128.156 346.533C130.88 347.374 134.923 344.18 136.377 342.087C136.487 341.918 137.84 339.413 138.059 338.943C138.059 339.086 138.059 339.245 138.059 339.388C137.722 341.955 137.16 344.486 136.377 346.954C135.965 348.324 135.495 349.602 135.016 350.837C134.175 350.585 130.157 349.475 128.19 349.753C126.223 350.03 123.987 350.888 123.003 352.645C122.758 353.05 122.601 353.504 122.543 353.974C122.485 354.445 122.527 354.923 122.666 355.376C122.806 355.83 123.04 356.248 123.353 356.605C123.666 356.961 124.051 357.247 124.483 357.444C127.106 358.571 131.468 355.847 133.141 353.931C133.234 353.83 134.041 352.661 134.621 351.804C134.394 352.359 134.167 352.939 133.94 353.485C133.099 355.461 132.183 357.226 131.376 358.781C130.905 359.664 130.46 360.462 130.048 361.177C129.064 361.378 125.113 362.219 123.525 363.354C121.936 364.489 120.313 366.296 120.255 368.305C120.223 368.778 120.292 369.253 120.457 369.698C120.622 370.143 120.88 370.547 121.212 370.886C121.545 371.224 121.946 371.488 122.387 371.66C122.829 371.833 123.303 371.91 123.777 371.886C126.618 371.684 129.241 367.254 129.837 364.775C129.896 364.564 130.325 361.126 130.266 361.135H130.207C130.628 360.445 131.048 359.689 131.535 358.865C132.376 357.318 133.326 355.578 134.225 353.603C135.215 351.49 136.08 349.32 136.814 347.105C137.656 344.644 138.275 342.112 138.664 339.54C138.66 339.509 138.66 339.478 138.664 339.447C138.798 340.288 139.252 342.566 139.311 342.742C140.084 345.163 143.01 349.4 145.859 349.408C146.334 349.399 146.802 349.288 147.231 349.085C147.66 348.882 148.041 348.59 148.349 348.228C148.657 347.867 148.885 347.444 149.018 346.989C149.151 346.533 149.186 346.054 149.121 345.583C148.919 343.583 147.129 341.868 145.506 340.868C143.674 339.75 139.059 339.186 138.689 339.144C139.02 336.504 139.172 333.845 139.143 331.184C139.143 329.637 139.084 328.074 139.017 326.51C139.151 327.216 139.286 327.855 139.311 327.939C140.084 330.368 143.01 334.597 145.859 334.605C146.334 334.595 146.802 334.485 147.231 334.282C147.66 334.078 148.041 333.786 148.349 333.425C148.657 333.064 148.885 332.641 149.018 332.185C149.151 331.73 149.186 331.251 149.121 330.78C148.928 328.78 147.129 327.065 145.506 326.073C143.884 325.081 139.933 324.501 138.891 324.392C138.891 323.795 138.832 323.198 138.798 322.593C138.613 319.718 138.428 316.843 138.328 314.027C138.328 313.035 138.328 312.052 138.328 311.068C138.454 311.699 138.563 312.228 138.588 312.304C139.362 314.733 142.287 318.97 145.136 318.97C145.61 318.96 146.077 318.85 146.505 318.647C146.934 318.444 147.315 318.153 147.623 317.793C147.931 317.432 148.159 317.011 148.293 316.556C148.426 316.101 148.462 315.623 148.398 315.154C148.205 313.144 146.406 311.43 144.783 310.438C143.161 309.446 139.597 308.933 138.361 308.756C138.361 307.748 138.412 306.747 138.487 305.772C138.555 305.108 138.563 304.469 138.672 303.805C138.782 303.141 138.84 302.494 138.924 301.855C139.135 300.619 139.345 299.333 139.58 298.14C139.74 297.299 139.908 296.509 140.068 295.71C140.068 296.702 140.177 298.636 140.211 298.795C140.606 301.317 142.85 305.94 145.674 306.361C146.144 306.422 146.622 306.384 147.076 306.248C147.53 306.112 147.95 305.882 148.309 305.573C148.667 305.263 148.957 304.881 149.158 304.452C149.358 304.023 149.466 303.556 149.474 303.082C149.583 301.065 148.07 299.106 146.616 297.879C145.019 296.526 140.732 295.298 140.177 295.147C140.454 293.827 140.74 292.541 141.018 291.331C141.387 289.75 141.757 288.271 142.11 286.918C141.698 286.548 141.186 286.077 140.589 285.598C140.197 287.212 139.787 288.999 139.362 290.961C139.076 292.306 138.798 293.743 138.521 295.231C137.082 295.198 135.642 295.248 134.209 295.382C133.494 293.357 130.779 290.179 130.426 289.776C131.384 288.826 132.326 287.909 133.234 287.06C134.789 285.589 136.234 284.278 137.546 283.126C137.075 282.757 136.588 282.378 136.083 282C134.856 283.135 133.503 284.413 132.057 285.842C131.082 286.8 130.056 287.851 129.005 288.935C128.56 288.624 124.869 286.077 122.81 285.699C120.935 285.354 118.464 285.438 116.976 286.791C116.611 287.099 116.315 287.48 116.109 287.91C115.902 288.34 115.79 288.81 115.778 289.287C115.767 289.764 115.858 290.238 116.044 290.677C116.23 291.117 116.508 291.511 116.859 291.835C118.985 293.735 123.987 292.533 126.181 291.238C126.307 291.163 127.627 290.179 128.442 289.557C128.022 290.003 127.601 290.398 127.173 290.894C126.332 291.801 125.492 292.743 124.584 293.743L123.323 295.256C122.894 295.752 122.482 296.332 122.079 296.879C121.137 298.148 120.238 299.485 119.364 300.855C118.523 300.107 115.682 297.492 113.883 296.854C112.084 296.215 109.621 295.937 107.948 297.055C107.546 297.307 107.202 297.641 106.938 298.035C106.674 298.429 106.497 298.875 106.417 299.342C106.338 299.81 106.359 300.289 106.477 300.748C106.596 301.207 106.811 301.636 107.107 302.006C108.923 304.2 114.051 303.772 116.413 302.847C116.564 302.788 118.187 301.922 119.069 301.426C118.548 302.267 118.027 303.108 117.531 303.948C116.094 306.411 114.723 308.941 113.328 311.472C112.908 312.245 112.487 313.01 112.05 313.775C111.764 313.506 108.41 310.312 106.385 309.614C104.586 308.992 102.123 308.698 100.45 309.816C100.049 310.067 99.7061 310.401 99.4431 310.794C99.1802 311.188 99.0032 311.632 98.9239 312.099C98.8446 312.566 98.8646 313.044 98.9827 313.502C99.1008 313.96 99.3143 314.388 99.6093 314.758C101.425 316.961 106.553 316.532 108.915 315.599C109.091 315.523 111.437 314.271 112 313.918C111.058 315.599 110.1 317.28 109.091 318.903C107.734 321.087 106.24 323.185 104.619 325.182C104.485 325.056 100.996 321.71 98.9284 320.979C97.1295 320.357 94.6665 320.063 92.9937 321.181C92.5917 321.432 92.2475 321.766 91.9837 322.16C91.7199 322.555 91.5425 323 91.4631 323.468C91.3837 323.935 91.4041 324.414 91.5231 324.874C91.642 325.333 91.8567 325.762 92.1531 326.132C93.9688 328.326 99.0965 327.897 101.467 326.972C101.652 326.897 104.157 325.552 104.594 325.291C104.502 325.409 104.418 325.535 104.317 325.653C102.63 327.604 100.777 329.404 98.7771 331.033C97.6759 331.94 96.5831 332.756 95.4903 333.554C94.9103 332.857 92.1951 329.738 90.4046 328.881C88.6141 328.023 86.2688 327.502 84.5204 328.435C84.0915 328.637 83.7102 328.928 83.4016 329.288C83.0931 329.649 82.8642 330.07 82.73 330.525C82.5958 330.98 82.5594 331.458 82.6231 331.928C82.6869 332.398 82.8493 332.849 83.0998 333.252C84.6633 335.639 89.8246 335.774 92.2624 335.093C92.3969 335.093 93.7082 334.538 94.6665 334.134C94.1706 334.479 93.6662 334.832 93.1786 335.152C91.3797 336.328 89.6565 337.303 88.135 338.152C87.2944 338.623 86.4538 339.044 85.7056 339.422C84.7726 339.044 81.015 337.564 79.0732 337.631C77.1314 337.699 74.7609 338.312 73.6093 339.96C73.1075 340.675 72.9042 341.558 73.0422 342.421C73.1803 343.284 73.649 344.06 74.349 344.583Z" fill="#212121"/>
<path d="M141.354 354.696C139.824 353.065 135.175 351.199 135.175 351.199C135.175 351.199 134.873 354.637 134.881 354.855C134.991 357.377 136.689 362.253 139.437 363.018C139.897 363.133 140.377 363.15 140.844 363.067C141.311 362.984 141.755 362.803 142.147 362.537C142.539 362.27 142.871 361.923 143.119 361.519C143.368 361.115 143.528 360.663 143.59 360.193C143.935 358.201 142.657 356.074 141.354 354.696Z" fill="#212121"/>
<path d="M350.848 82.0981H49.3474V324.352H350.848V82.0981Z" fill="white" stroke="#212121" stroke-linejoin="round"/>
<path d="M311.617 293.275H274.008C273.027 293.275 272.086 292.886 271.393 292.192C270.699 291.498 270.309 290.558 270.309 289.577V246.479" fill="white"/>
<path d="M311.617 293.275H274.008C273.027 293.275 272.086 292.886 271.393 292.192C270.699 291.498 270.309 290.558 270.309 289.577V246.479" stroke="#212121" stroke-linejoin="round"/>
<path d="M335.322 204.02V289.577C335.319 290.558 334.928 291.499 334.233 292.192C333.538 292.886 332.596 293.275 331.615 293.275H315.307" fill="white"/>
<path d="M335.322 204.02V289.577C335.319 290.558 334.928 291.499 334.233 292.192C333.538 292.886 332.596 293.275 331.615 293.275H315.307" stroke="#212121" stroke-linejoin="round"/>
<path d="M270.309 243.579V178.28C270.309 177.795 270.405 177.314 270.591 176.866C270.777 176.418 271.049 176.011 271.393 175.668C271.737 175.325 272.144 175.054 272.593 174.869C273.042 174.684 273.523 174.589 274.008 174.59H331.615C332.1 174.589 332.582 174.684 333.031 174.868C333.48 175.053 333.888 175.325 334.232 175.667C334.577 176.01 334.85 176.417 335.037 176.866C335.224 177.314 335.321 177.795 335.322 178.28V201.649" fill="white"/>
<path d="M270.309 243.579V178.28C270.309 177.795 270.405 177.314 270.591 176.866C270.777 176.418 271.049 176.011 271.393 175.668C271.737 175.325 272.144 175.054 272.593 174.869C273.042 174.684 273.523 174.589 274.008 174.59H331.615C332.1 174.589 332.582 174.684 333.031 174.868C333.48 175.053 333.888 175.325 334.232 175.667C334.577 176.01 334.85 176.417 335.037 176.866C335.224 177.314 335.321 177.795 335.322 178.28V201.649" stroke="#212121" stroke-linejoin="round"/>
<path d="M335.322 178.28V198.228H270.309V178.28C270.309 177.795 270.405 177.314 270.591 176.866C270.777 176.418 271.049 176.011 271.393 175.668C271.737 175.325 272.144 175.054 272.593 174.869C273.042 174.684 273.523 174.589 274.008 174.59H331.615C332.1 174.589 332.582 174.684 333.031 174.868C333.48 175.053 333.888 175.325 334.232 175.667C334.577 176.01 334.85 176.417 335.037 176.866C335.224 177.314 335.321 177.795 335.322 178.28Z" fill="white" stroke="#212121" stroke-linejoin="round"/>
<path d="M350.848 82.0981H49.3474V164.125H350.848V82.0981Z" fill="white" stroke="#212121" stroke-linejoin="round"/>
<rect x="309.462" y="129.544" width="4.23106" height="12.9205" fill="#616161"/>
<path fill-rule="evenodd" clip-rule="evenodd" d="M288.307 129.544H292.538C292.538 124.787 296.326 120.93 301 120.93C305.673 120.93 309.462 124.787 309.462 129.544H313.693C313.693 122.408 308.01 116.624 301 116.624C293.99 116.624 288.307 122.408 288.307 129.544Z" fill="#616161"/>
<path d="M288.307 129.544H292.538V131.735C292.538 132.904 291.591 133.851 290.422 133.851C289.254 133.851 288.307 132.904 288.307 131.735V129.544Z" fill="#616161"/>
<g filter="url(#filter0_d_652_12513)">
<rect x="284" y="131.159" width="34" height="25.8409" rx="2.15341" fill="#F5F5F5"/>
</g>
<path d="M301.198 150.91C301.04 150.91 300.885 150.89 300.737 150.849C300.505 150.786 300.281 150.682 300.035 150.52C299.998 150.497 299.764 150.293 299.633 150.18L299.63 150.177C299.605 150.156 299.584 150.138 299.569 150.124C299.426 150.195 299.291 150.289 299.158 150.382C298.892 150.568 298.615 150.76 298.259 150.773C297.954 150.785 297.632 150.736 297.262 150.624C297.229 150.615 297.157 150.583 297.039 150.535C296.908 150.48 296.711 150.411 296.646 150.384C296.64 150.382 296.615 150.367 296.606 150.34C296.597 150.314 296.597 150.274 296.602 150.265C296.846 150.075 297.082 149.848 297.31 149.627C297.461 149.482 297.617 149.331 297.773 149.194C297.828 149.146 297.878 149.093 297.926 149.037L298.006 148.934C298.427 148.351 298.604 147.406 298.703 146.704C298.796 146.05 298.746 145.37 298.691 144.784C298.591 143.702 298.251 142.918 297.648 142.383C297.368 142.135 297.054 141.933 296.756 141.749L296.627 141.67C296.323 141.483 296.011 141.29 295.726 141.062C295.694 141.036 295.681 140.996 295.691 140.957C295.738 140.772 296.534 140.512 296.541 140.51C296.684 140.488 296.839 140.476 297.013 140.476C297.21 140.476 297.408 140.491 297.593 140.504C298.046 140.54 298.338 140.748 298.648 140.969C298.757 141.047 298.869 141.126 298.992 141.201L299.004 141.187C299.04 141.14 299.067 141.081 299.096 141.02C299.136 140.935 299.177 140.847 299.25 140.775C299.421 140.606 299.63 140.56 299.795 140.539C299.855 140.531 299.91 140.527 299.964 140.527C300.268 140.527 300.457 140.652 300.694 140.814C300.731 140.838 300.767 140.863 300.807 140.89C300.906 140.954 300.99 140.987 301.058 140.987C301.171 140.987 301.239 140.9 301.344 140.758C301.454 140.608 301.578 140.437 301.815 140.409C302.06 140.38 302.253 140.506 302.421 140.617C302.549 140.7 302.671 140.781 302.795 140.781C302.894 140.781 302.996 140.73 303.105 140.624C303.239 140.494 303.351 140.395 303.486 140.395C303.582 140.395 303.678 140.445 303.787 140.551L303.812 140.575C304.048 140.803 304.113 140.868 304.409 140.708C304.634 140.587 304.922 140.51 305.16 140.51C305.567 140.51 305.819 140.724 305.834 141.093L305.797 141.104L305.732 141.125C305.703 141.137 305.686 141.14 305.66 141.151C305.344 141.249 304.391 141.788 304.295 141.863C303.975 142.109 303.675 142.426 303.449 142.755C302.576 144.025 302.592 145.834 302.872 146.999C303.019 147.611 303.217 148.325 303.572 148.99C303.729 149.286 303.914 149.561 304.117 149.808L304.138 149.833C304.625 150.426 304.733 150.45 304.764 150.482C304.783 150.501 304.796 150.514 304.799 150.532C304.804 150.571 304.761 150.601 304.728 150.619C304.686 150.642 304.64 150.656 304.593 150.667C304.547 150.677 304.518 150.682 304.457 150.692C304.407 150.701 304.356 150.706 304.304 150.71C304.083 150.727 303.865 150.736 303.644 150.713C303.507 150.698 303.37 150.682 303.234 150.656C303.071 150.627 302.724 150.553 302.531 150.437L302.405 150.509C302.206 150.646 301.84 150.798 301.793 150.815C301.602 150.876 301.4 150.91 301.198 150.91ZM299.678 150.041C299.802 150.15 300.075 150.384 300.106 150.405C300.34 150.559 300.551 150.659 300.769 150.718C301.083 150.803 301.429 150.791 301.756 150.682C301.799 150.668 302.176 150.509 302.349 150.382L302.31 150.304C302.167 150.012 301.97 149.613 301.87 149.319C301.848 149.256 301.827 149.197 301.806 149.141C301.694 148.829 301.607 148.581 301.607 148.145V147.773L302.477 150.123C302.497 150.165 302.517 150.213 302.533 150.26H302.534C302.604 150.361 302.959 150.465 303.259 150.52C303.768 150.613 304.23 150.615 304.594 150.52C304.485 150.432 304.317 150.257 304.036 149.917L304.015 149.893C303.806 149.64 303.617 149.358 303.454 149.053C303.091 148.376 302.891 147.65 302.742 147.03C302.456 145.839 302.441 143.985 303.34 142.677C303.575 142.336 303.886 142.009 304.214 141.754C304.297 141.689 305.374 141.087 305.683 141.016C305.633 140.711 305.375 140.643 305.159 140.643C304.941 140.643 304.677 140.712 304.469 140.824C304.093 141.026 303.967 140.911 303.718 140.67L303.693 140.646C303.61 140.567 303.542 140.528 303.483 140.528C303.398 140.528 303.305 140.611 303.194 140.72C303.06 140.85 302.929 140.914 302.794 140.914C302.63 140.914 302.486 140.82 302.347 140.729C302.189 140.626 302.027 140.518 301.828 140.542C301.649 140.563 301.551 140.696 301.448 140.838C301.347 140.977 301.242 141.122 301.056 141.122C300.962 141.122 300.856 141.083 300.734 141.004C300.694 140.977 300.655 140.951 300.619 140.927C300.381 140.769 300.225 140.663 299.961 140.663C299.914 140.663 299.863 140.666 299.81 140.673C299.593 140.702 299.453 140.761 299.341 140.872C299.286 140.927 299.251 141.001 299.214 141.078C299.191 141.129 299.166 141.181 299.133 141.231C299.431 141.71 299.597 142.286 299.65 142.64C299.742 143.252 299.592 143.587 299.449 143.911L299.34 144.156L298.968 141.343C298.824 141.259 298.694 141.166 298.569 141.078C298.274 140.869 297.996 140.672 297.58 140.639C297.396 140.624 297.201 140.611 297.01 140.611C296.843 140.611 296.696 140.621 296.559 140.643C296.478 140.661 295.937 140.872 295.831 140.975C296.102 141.19 296.403 141.376 296.693 141.553L296.823 141.633C297.125 141.819 297.445 142.024 297.732 142.28C298.361 142.837 298.716 143.651 298.819 144.769C298.874 145.362 298.924 146.053 298.83 146.721C298.743 147.341 298.61 148.055 298.339 148.62L299.017 147.997C299.085 147.934 299.176 147.862 299.25 147.802L299.615 147.51L299.132 148.242C299.023 148.342 298.94 148.421 298.853 148.547C298.765 148.675 298.62 148.784 298.516 148.865C298.404 148.95 298.28 148.995 298.108 149.014C298.032 149.117 297.948 149.21 297.857 149.291C297.702 149.427 297.548 149.576 297.399 149.72C297.2 149.911 296.997 150.108 296.783 150.283C296.852 150.308 296.948 150.349 297.086 150.405C297.179 150.444 297.268 150.482 297.296 150.489C297.652 150.597 297.96 150.644 298.251 150.634C298.569 150.622 298.816 150.45 299.08 150.266C299.226 150.165 299.376 150.06 299.541 149.984L300.283 147.131V147.651C300.283 148.166 300.249 148.388 300.2 148.648C300.171 148.808 300.091 149.013 300.02 149.195C299.982 149.292 299.947 149.385 299.923 149.461C299.88 149.594 299.838 149.685 299.782 149.802C299.755 149.872 299.72 149.947 299.678 150.041ZM301.799 148.671C301.833 148.814 301.88 148.946 301.935 149.098C301.955 149.155 301.976 149.214 301.998 149.277C302.051 149.434 302.133 149.622 302.22 149.809L301.799 148.671ZM300.126 148.278L299.898 149.156C299.9 149.153 299.9 149.15 299.901 149.149C299.969 148.972 300.047 148.772 300.073 148.626C300.094 148.514 300.113 148.406 300.126 148.278ZM298.859 148.33L298.311 148.833C298.358 148.814 298.399 148.79 298.439 148.76C298.536 148.686 298.671 148.584 298.747 148.473C298.784 148.418 298.821 148.372 298.859 148.33ZM299.129 141.483L299.412 143.663C299.516 143.403 299.59 143.118 299.522 142.658C299.478 142.36 299.351 141.902 299.129 141.483ZM302.685 149.422C302.63 149.298 302.602 149.173 302.576 149.052L302.555 148.959L302.509 148.799C302.506 148.786 302.502 148.774 302.497 148.76C302.459 148.656 302.409 148.564 302.36 148.475C302.304 148.372 302.247 148.264 302.204 148.136C302.042 147.643 301.933 147.215 301.933 146.734V146.25L302.643 148.789C302.658 148.833 302.671 148.881 302.682 148.928L302.807 149.374L302.685 149.422ZM301.095 145.013L301.469 144.177C301.506 144.037 301.531 143.865 301.557 143.699C301.585 143.515 301.612 143.342 301.655 143.23C301.778 142.904 302.048 142.706 302.307 142.514C302.439 142.419 302.561 142.327 302.667 142.221L303.006 141.882L301.694 144.231C301.643 144.409 301.406 144.883 301.249 144.948L301.095 145.013ZM302.477 142.556C302.446 142.578 302.415 142.602 302.384 142.625C302.128 142.813 301.886 142.991 301.777 143.279C301.74 143.376 301.715 143.544 301.687 143.72C301.669 143.84 301.65 143.961 301.627 144.077L302.477 142.556ZM302.912 142.209L303.007 141.899C303.082 141.654 303.306 141.08 303.744 141.054L303.9 141.045L302.912 142.209ZM303.529 141.277C303.449 141.337 303.374 141.425 303.306 141.538L303.529 141.277Z" fill="#424242"/>
<path d="M296.703 150.646C297.358 151.855 299.202 152.122 300.414 152.152C300.876 152.164 301.344 152.134 301.802 152.074C302.046 152.042 302.278 151.971 302.53 151.9C302.962 151.776 303.393 151.64 303.802 151.448C304.166 151.276 304.681 151.1 304.79 150.629C304.594 150.957 303.013 150.77 302.774 150.653C302.626 150.58 302.64 150.555 302.518 150.674C302.139 151.046 301.472 151.166 300.977 151.073C300.577 150.999 300.038 150.683 299.717 150.431C299.593 150.332 299.652 150.283 299.479 150.365C299.093 150.547 298.819 150.792 298.376 150.866C297.913 150.942 297.483 150.858 296.967 150.626C296.839 150.57 296.787 150.562 296.641 150.464L296.703 150.646Z" fill="#424242"/>
<path d="M295.744 140.785C296.52 139.717 297.8 139.333 299.003 138.995C299.616 138.823 300.126 138.717 300.773 138.717C301.338 138.717 301.887 138.852 302.437 138.964C302.99 139.076 303.555 139.164 304.045 139.466C304.36 139.66 304.731 139.763 305.047 139.962C305.153 140.029 305.526 140.119 305.478 140.282C305.411 140.513 304.86 140.295 304.686 140.385C304.497 140.482 304.248 140.663 304.033 140.6C303.827 140.54 303.768 140.294 303.536 140.27C303.183 140.234 303.112 140.615 302.758 140.588C302.49 140.567 302.182 140.228 301.911 140.246C301.654 140.262 301.376 140.542 301.186 140.684C300.837 140.947 300.686 140.581 300.387 140.46C300.209 140.388 300.14 140.367 299.944 140.367C299.453 140.367 299.154 140.588 298.875 140.983C298.97 140.848 298.348 140.551 298.286 140.533C298.025 140.46 297.754 140.349 297.484 140.345C296.803 140.333 296.323 140.352 295.744 140.785Z" fill="#424242"/>
<path d="M300.819 135.049C300.685 134.868 300.52 134.94 300.309 134.95C300.196 135.27 300.3 135.542 300.358 135.812C300.421 136.111 300.476 136.418 300.529 136.699C300.586 136.996 300.608 137.307 300.625 137.634C300.632 137.794 300.639 137.975 300.605 138.127C300.574 138.265 300.482 138.357 300.457 138.492C300.723 138.484 301.011 138.49 301.283 138.475C301.285 138.339 301.196 138.205 301.164 138.076C301.127 137.928 301.151 137.786 301.134 137.634C301.108 137.38 301.046 137.13 301.018 136.86C300.955 136.262 300.856 135.662 300.819 135.049Z" fill="#424242"/>
<path d="M305.549 136.164C304.818 136.176 304.018 136.211 303.342 136.597C303.025 136.776 302.8 137.002 302.503 137.223C302.355 137.335 302.203 137.434 302.029 137.522C301.854 137.61 301.646 137.625 301.484 137.724L301.569 137.922C301.789 137.86 301.836 137.822 302.061 137.809C302.284 137.795 302.496 137.758 302.739 137.782C302.968 137.804 303.233 137.8 303.451 137.86C303.706 137.93 304.03 137.93 304.291 137.951C304.811 137.991 305.449 137.876 305.969 137.765C306.344 137.685 306.843 137.522 307.13 137.236C307.251 137.115 307.315 136.997 307.459 136.861C307.596 136.731 307.808 136.471 307.91 136.321C308.01 136.171 308.102 136.08 308.196 135.919C308.278 135.778 308.435 135.484 308.438 135.306C307.73 136.113 306.514 136.147 305.549 136.164Z" fill="#212121"/>
<path d="M260.634 140.588C259.935 142.749 258.57 144.633 256.733 145.97C254.896 147.307 252.683 148.027 250.412 148.027H152.616" fill="white"/>
<path d="M260.634 140.588C259.935 142.749 258.57 144.633 256.733 145.97C254.896 147.307 252.683 148.027 250.412 148.027H152.616" stroke="#212121" stroke-linejoin="round"/>
<path d="M174.152 126.566H250.437C251.847 126.565 253.242 126.842 254.545 127.38C255.847 127.919 257.03 128.709 258.027 129.705C259.024 130.701 259.815 131.884 260.355 133.186C260.894 134.488 261.172 135.883 261.172 137.292" fill="white"/>
<path d="M174.152 126.566H250.437C251.847 126.565 253.242 126.842 254.545 127.38C255.847 127.919 257.03 128.709 258.027 129.705C259.024 130.701 259.815 131.884 260.355 133.186C260.894 134.488 261.172 135.883 261.172 137.292" stroke="#212121" stroke-linejoin="round"/>
<path d="M147.253 148.027H96.3205C94.9112 148.027 93.5157 147.749 92.2138 147.21C90.9119 146.67 89.7291 145.879 88.733 144.882C87.7369 143.885 86.947 142.702 86.4084 141.4C85.8699 140.097 85.5933 138.702 85.5944 137.292C85.5944 134.448 86.7244 131.719 88.736 129.708C90.7475 127.696 93.4758 126.566 96.3205 126.566H170.403" fill="white"/>
<path d="M147.253 148.027H96.3205C94.9112 148.027 93.5157 147.749 92.2138 147.21C90.9119 146.67 89.7291 145.879 88.733 144.882C87.7369 143.885 86.947 142.702 86.4084 141.4C85.8699 140.097 85.5933 138.702 85.5944 137.292V137.292C85.5944 134.448 86.7244 131.719 88.736 129.708C90.7475 127.696 93.4758 126.566 96.3205 126.566H170.403" stroke="#212121" stroke-linejoin="round"/>
<path d="M234.079 131.517V141.554" stroke="#212121" stroke-width="0.5" stroke-linejoin="round"/>
<path d="M226.278 131.61L216.863 141.025" stroke="#212121" stroke-linejoin="round"/>
<path d="M216.863 131.61L226.278 141.025" stroke="#212121" stroke-linejoin="round"/>
<path d="M96.8165 140.05H95.7993L94.8831 133.384H95.606L96.3877 139.058L97.1359 133.392H97.8672L98.5985 139.066L99.3551 133.384H100.002L99.0945 140.05H98.0774L97.4469 135.527L96.8165 140.05Z" fill="#212121"/>
<path d="M102.944 136.334V137.007H101.314V139.377H103.314V140.05H100.574V133.384H103.314V134.056H101.314V136.334H102.944Z" fill="#212121"/>
<path d="M105.5 133.384C106.534 133.384 106.946 133.88 106.946 134.863V135.174C106.946 135.88 106.744 136.317 106.164 136.502C106.811 136.679 107.055 137.191 107.055 137.923V138.486C107.086 138.695 107.069 138.908 107.004 139.109C106.94 139.31 106.829 139.494 106.682 139.645C106.535 139.796 106.354 139.912 106.155 139.982C105.956 140.052 105.743 140.075 105.534 140.05H104.004V133.384H105.5ZM105.315 136.216C105.903 136.216 106.214 136.023 106.214 135.325V134.939C106.214 134.342 106.013 134.056 105.475 134.056H104.743V136.216H105.315ZM105.534 139.377C106.08 139.377 106.324 139.091 106.324 138.469V137.881C106.324 137.133 106.03 136.889 105.391 136.889H104.743V139.411L105.534 139.377Z" fill="#212121"/>
<path d="M112.099 134.981V135.166H111.393V134.947C111.393 134.342 111.166 133.989 110.636 133.989C110.106 133.989 109.871 134.342 109.871 134.939C109.871 136.435 112.107 136.578 112.107 138.452C112.107 139.461 111.619 140.134 110.602 140.134C109.585 140.134 109.106 139.478 109.106 138.452V138.066H109.804V138.486C109.804 139.091 110.048 139.444 110.586 139.444C111.124 139.444 111.367 139.091 111.367 138.486C111.367 137.007 109.14 136.864 109.14 134.981C109.14 133.955 109.61 133.299 110.611 133.299C111.611 133.299 112.099 134.006 112.099 134.981Z" fill="#212121"/>
<path d="M115.133 136.334V137.007H113.502V139.377H115.503V140.05H112.788V133.384H115.537V134.056H113.536V136.334H115.133Z" fill="#212121"/>
<path d="M116.941 138.705L116.688 140.05H115.999L117.277 133.384H118.353L119.631 140.05H118.882L118.63 138.705H116.941ZM117.033 138.066H118.521L117.773 134.224L117.033 138.066Z" fill="#212121"/>
<path d="M121.698 133.384C122.741 133.384 123.178 133.913 123.178 134.905V135.451C123.178 136.183 122.926 136.645 122.337 136.822C122.943 137.007 123.178 137.494 123.178 138.209V139.251C123.157 139.523 123.2 139.797 123.304 140.05H122.556C122.446 139.784 122.403 139.495 122.43 139.209V138.209C122.43 137.46 122.077 137.217 121.463 137.217H120.933V140.066H120.194V133.4L121.698 133.384ZM121.505 136.527C122.093 136.527 122.447 136.334 122.447 135.611V134.972C122.447 134.375 122.228 134.056 121.673 134.056H120.95V136.527H121.505Z" fill="#212121"/>
<path d="M126.91 134.989V135.594H126.238V134.956C126.238 134.359 126.002 133.989 125.456 133.989C124.91 133.989 124.674 134.359 124.674 134.956V138.478C124.674 139.083 124.926 139.444 125.456 139.444C125.986 139.444 126.238 139.083 126.238 138.478V137.637H126.944V138.478C126.944 139.486 126.465 140.159 125.439 140.159C124.414 140.159 123.943 139.495 123.943 138.478V135.023C123.943 134.014 124.414 133.342 125.439 133.342C126.465 133.342 126.91 134.006 126.91 134.989Z" fill="#212121"/>
<path d="M128.331 137.049V140.05H127.583V133.384H128.331V136.385H129.97V133.384H130.71V140.05H129.97V137.049H128.331Z" fill="#212121"/>
<path d="M250.521 141.285C250.378 141.44 250.182 141.536 249.972 141.553C249.762 141.57 249.553 141.507 249.386 141.378L245.528 137.864L246.259 136.981L250.395 140.15C250.555 140.289 250.657 140.483 250.68 140.693C250.704 140.904 250.647 141.115 250.521 141.285Z" fill="#212121" stroke="#212121" stroke-linejoin="round"/>
<path d="M240.611 133.056C240.153 133.611 239.869 134.289 239.797 135.005C239.724 135.721 239.865 136.443 240.203 137.078C240.54 137.714 241.058 138.236 241.692 138.577C242.325 138.918 243.046 139.064 243.762 138.996C244.479 138.928 245.159 138.649 245.717 138.194C246.275 137.74 246.686 137.13 246.897 136.442C247.109 135.754 247.111 135.019 246.905 134.329C246.699 133.64 246.293 133.027 245.738 132.568C245.37 132.262 244.945 132.032 244.488 131.891C244.03 131.749 243.55 131.7 243.073 131.745C242.597 131.791 242.134 131.93 241.711 132.155C241.288 132.38 240.914 132.686 240.611 133.056ZM245.814 137.36C245.421 137.832 244.897 138.178 244.307 138.352C243.718 138.527 243.09 138.524 242.503 138.342C241.916 138.16 241.396 137.809 241.008 137.332C240.621 136.855 240.384 136.273 240.326 135.661C240.269 135.049 240.394 134.434 240.686 133.893C240.978 133.352 241.423 132.91 241.966 132.622C242.509 132.335 243.126 132.214 243.737 132.276C244.349 132.339 244.928 132.58 245.402 132.972C245.719 133.232 245.981 133.553 246.174 133.916C246.366 134.278 246.485 134.675 246.524 135.084C246.562 135.493 246.519 135.905 246.397 136.297C246.275 136.689 246.077 137.053 245.814 137.368V137.36Z" fill="#212121" stroke="#212121" stroke-linejoin="round"/>
<path d="M350.839 82.0981H341.643V324.352H350.839V82.0981Z" fill="#D9D9D9" stroke="#212121" stroke-linejoin="round"/>
<path d="M350.839 130.399H341.643V154.163H350.839V130.399Z" fill="#8F8F8F" stroke="#212121" stroke-linejoin="round"/>
<path d="M350.848 82.0981H49.3474V110.46H350.848V82.0981Z" fill="#B75400" stroke="#212121" stroke-linejoin="round"/>
<path d="M350.848 82.0981H100.927V92.0677H350.848V82.0981Z" fill="#212121" stroke="#212121" stroke-linejoin="round"/>
<path d="M345.064 84.6031L339.794 89.8822" stroke="white" stroke-linejoin="round"/>
<path d="M339.794 84.6031L345.064 89.8822" stroke="white" stroke-linejoin="round"/>
<path d="M329.74 85.0486H325.856V88.9322H329.74V85.0486Z" fill="#212121" stroke="white" stroke-linejoin="round"/>
<path d="M327.874 85.9818H323.99V89.8654H327.874V85.9818Z" fill="#212121" stroke="white" stroke-linejoin="round"/>
<path d="M311.877 87.436H305.161" stroke="white" stroke-linejoin="round"/>
<path d="M106.248 84.4182V90.4454" stroke="white" stroke-linejoin="round"/>
<path d="M109.266 87.4275H103.239" stroke="white" stroke-linejoin="round"/>
<path d="M87.6118 180.987H149.657" stroke="#212121" stroke-linejoin="round"/>
<path d="M87.6118 186.409H166.402" stroke="#212121" stroke-linejoin="round"/>
<path d="M87.6118 192.806H250.118" stroke="#212121" stroke-linejoin="round"/>
<path d="M87.6118 198.715H250.118" stroke="#212121" stroke-linejoin="round"/>
<path d="M87.6118 204.625H250.118" stroke="#212121" stroke-linejoin="round"/>
<path d="M87.6118 218.419H149.657" stroke="#212121" stroke-linejoin="round"/>
<path d="M87.6118 223.833H166.402" stroke="#212121" stroke-linejoin="round"/>
<path d="M87.6118 230.238H250.118" stroke="#212121" stroke-linejoin="round"/>
<path d="M87.6118 236.148H250.118" stroke="#212121" stroke-linejoin="round"/>
<path d="M87.6118 242.057H250.118" stroke="#212121" stroke-linejoin="round"/>
<path d="M87.6118 255.843H149.657" stroke="#212121" stroke-linejoin="round"/>
<path d="M87.6118 261.265H166.402" stroke="#212121" stroke-linejoin="round"/>
<path d="M87.6118 267.662H250.118" stroke="#212121" stroke-linejoin="round"/>
<path d="M87.6118 273.572H250.118" stroke="#212121" stroke-linejoin="round"/>
<path d="M87.6118 279.481H250.118" stroke="#212121" stroke-linejoin="round"/>
<path d="M87.6118 293.267H149.657" stroke="#212121" stroke-linejoin="round"/>
<path d="M87.6118 298.689H166.402" stroke="#212121" stroke-linejoin="round"/>
<path d="M87.6118 305.086H250.118" stroke="#212121" stroke-linejoin="round"/>
<path d="M87.6118 310.995H250.118" stroke="#212121" stroke-linejoin="round"/>
<path d="M87.6118 316.905H250.118" stroke="#212121" stroke-linejoin="round"/>
<path d="M274.571 205.18H303.791" stroke="#212121" stroke-linejoin="round"/>
<path d="M274.571 209.105H303.791" stroke="#212121" stroke-linejoin="round"/>
<path d="M274.571 213.039H331.598" stroke="#212121" stroke-linejoin="round"/>
<path d="M274.571 216.974H331.598" stroke="#212121" stroke-linejoin="round"/>
<path d="M274.571 220.907H331.598" stroke="#212121" stroke-linejoin="round"/>
<path d="M274.571 224.842H331.598" stroke="#212121" stroke-linejoin="round"/>
<path d="M274.571 228.776H331.598" stroke="#212121" stroke-linejoin="round"/>
<path d="M274.571 232.71H331.598" stroke="#212121" stroke-linejoin="round"/>
<path d="M274.571 236.644H331.598" stroke="#212121" stroke-linejoin="round"/>
<path d="M274.571 240.578H331.598" stroke="#212121" stroke-linejoin="round"/>
<path d="M274.571 249.849H303.791" stroke="#212121" stroke-linejoin="round"/>
<path d="M274.571 253.775H303.791" stroke="#212121" stroke-linejoin="round"/>
<path d="M274.571 257.709H331.598" stroke="#212121" stroke-linejoin="round"/>
<path d="M274.571 261.643H331.598" stroke="#212121" stroke-linejoin="round"/>
<path d="M274.571 265.577H331.598" stroke="#212121" stroke-linejoin="round"/>
<path d="M274.571 269.511H331.598" stroke="#212121" stroke-linejoin="round"/>
<path d="M274.571 273.445H331.598" stroke="#212121" stroke-linejoin="round"/>
<path d="M274.571 277.379H331.598" stroke="#212121" stroke-linejoin="round"/>
<path d="M274.571 281.313H331.598" stroke="#212121" stroke-linejoin="round"/>
<path d="M274.571 285.248H331.598" stroke="#212121" stroke-linejoin="round"/>
<path d="M357.64 381.085H368.181" stroke="#212121" stroke-linejoin="round"/>
<path d="M83.5853 381.085H350.612" stroke="#212121" stroke-linejoin="round"/>
<path d="M24.5579 381.085H76.5578" stroke="#212121" stroke-linejoin="round"/>
<path d="M262.488 378.253C262.488 378.253 271.482 378.783 273.6 378.253C275.719 377.724 279.955 374.285 280.485 376.933C281.015 379.581 278.106 383.288 276.282 385.398C274.458 387.508 267.035 389.374 264.9 390.442C262.765 391.51 259.604 394.149 256.956 394.149C254.309 394.149 252.753 385.407 252.753 385.407C252.753 385.407 260.689 380.649 262.841 377.202" fill="white"/>
<path d="M262.488 378.253C262.488 378.253 271.482 378.783 273.6 378.253C275.719 377.724 279.955 374.285 280.485 376.933C281.015 379.581 278.106 383.288 276.282 385.398C274.458 387.508 267.035 389.374 264.9 390.442C262.765 391.51 259.604 394.149 256.956 394.149C254.309 394.149 252.753 385.407 252.753 385.407C252.753 385.407 260.689 380.649 262.841 377.202" stroke="#212121" stroke-linejoin="round"/>
<path d="M280.014 376.135C274.618 386.088 265.724 387.777 265.724 387.777L254.46 391.535C255.116 392.989 255.939 394.141 256.889 394.141C259.537 394.141 262.715 391.493 264.833 390.434C266.951 389.374 274.365 387.517 276.215 385.39C278.064 383.263 280.981 379.573 280.418 376.925C280.391 376.619 280.246 376.336 280.014 376.135Z" fill="white" stroke="#212121" stroke-linejoin="round"/>
<path d="M167.045 371.537C167.045 371.537 160.152 379.346 159.564 381.624C159.018 383.81 164.28 386.987 165.641 387.945C169.226 390.417 173.136 392.38 177.259 393.779C178.721 394.284 185.9 395.973 184.959 392.417C184.261 389.786 178.747 386.752 178.049 385.205C177.351 383.658 176.2 380.641 176.2 380.641L167.045 371.537Z" fill="white" stroke="#212121" stroke-linejoin="round"/>
<path d="M165.641 387.987C169.226 390.459 173.136 392.422 177.259 393.821C178.528 394.258 184.11 395.586 184.942 393.603C182.42 393.46 177.578 392.661 171.383 389.122C167.277 386.834 163.372 384.205 159.707 381.263C159.652 381.394 159.604 381.529 159.564 381.666C159.018 383.843 164.28 387.021 165.641 387.987Z" fill="white" stroke="#212121" stroke-linejoin="round"/>
<path d="M185.715 273.522L188.582 294.68L191.011 339.325C191.011 339.325 183.597 346.47 179.369 351.236C175.14 356.002 165.49 372.621 165.49 372.621C165.49 372.621 166.255 376.782 170.996 379.615C175.737 382.448 178.309 382.011 178.309 382.011L181.731 376.051L182.958 373.361C182.958 373.361 210.606 346.739 211.135 343.292C211.665 339.846 214.405 302.59 214.405 302.59L236.017 334.298C236.017 334.298 238.673 355.204 240.775 360.247C242.876 365.291 251.636 381.691 251.636 381.691L252.695 385.39C253.818 385.752 255.016 385.821 256.174 385.59C257.332 385.359 258.411 384.836 259.31 384.07C261.139 382.374 262.746 380.453 264.093 378.354L261.16 374.807L260.63 372.419C260.63 372.419 253.485 329.801 251.896 324.774C250.307 319.747 230.94 276.187 230.94 276.187L226.737 264.544C226.737 264.544 222.769 267.184 210.589 270.891C198.408 274.598 185.715 273.522 185.715 273.522Z" fill="#212121" stroke="#212121" stroke-linejoin="round"/>
<path d="M212.673 278.028C221.55 273.976 225.745 269.933 227.703 267.285L226.703 264.528C226.703 264.528 222.735 267.167 210.555 270.874C199.627 274.186 188.371 273.699 186.093 273.556L185.682 273.615L186.463 279.272C190.697 280.81 195.194 281.492 199.693 281.278C204.192 281.065 208.605 279.96 212.673 278.028Z" fill="#B75400" stroke="#212121" stroke-linejoin="round"/>
<path d="M181.041 211.645L160.194 227.129L183.815 271.404C184.05 273.056 184.903 274.559 186.203 275.607C188.388 277.397 202.679 277.002 207.84 275.413C213.146 273.586 218.265 271.258 223.131 268.462C225.316 267.075 228.292 264.09 227.493 261.51C226.959 259.843 226.229 258.246 225.316 256.752L221.113 244.639C221.113 244.639 237.589 245.631 239.775 245.631C241.96 245.631 249.5 226.574 249.5 226.574C249.5 226.574 247.315 226.372 246.525 224.985C246.029 224.029 245.65 223.015 245.398 221.968C243.092 223.306 240.706 224.502 238.253 225.549C234.05 227.331 229.712 227.726 227.93 226.936C226.148 226.145 215.616 216.613 213.237 213.629C210.858 210.645 210.454 209.426 209.664 209.426C208.874 209.426 194.18 210.426 192.39 210.426C190.599 210.426 181.041 211.645 181.041 211.645Z" fill="#B75400" stroke="#212121" stroke-linejoin="round"/>
<path d="M246.558 224.952C246.057 224.035 245.668 223.061 245.398 222.052L244.776 222.766C244.776 222.766 241.599 225.145 242.397 228.524C242.893 230.634 245.331 231.349 247.483 231.534C248.693 228.684 249.542 226.54 249.542 226.54C249.542 226.54 247.348 226.339 246.558 224.952Z" fill="#B75400" stroke="#212121" stroke-linejoin="round"/>
<path d="M212.884 220.867L211.816 217.798" stroke="#212121" stroke-linejoin="round"/>
<path d="M221.147 244.605L213.817 223.556" stroke="#212121" stroke-linejoin="round"/>
<path d="M181.235 287.56C180.08 286.605 179.129 285.427 178.438 284.097C177.746 282.767 177.329 281.312 177.211 279.818C177.092 278.324 177.275 276.821 177.748 275.399C178.222 273.976 178.976 272.664 179.965 271.538L261.37 178.138L273.811 188.436L197.215 285.812C196.293 286.994 195.144 287.98 193.835 288.71C192.527 289.44 191.084 289.901 189.594 290.064C188.104 290.227 186.597 290.089 185.161 289.659C183.725 289.229 182.39 288.515 181.235 287.56Z" fill="#212121" stroke="#212121" stroke-linejoin="round"/>
<path d="M239.716 202.987L179.965 271.538C179.027 272.671 178.321 273.977 177.888 275.383C177.454 276.788 177.302 278.265 177.439 279.73C177.576 281.194 178.001 282.617 178.688 283.917C179.376 285.218 180.312 286.37 181.445 287.308C182.577 288.246 183.884 288.952 185.289 289.386C186.695 289.819 188.172 289.972 189.636 289.834C191.101 289.697 192.523 289.272 193.824 288.585C195.124 287.898 196.276 286.961 197.215 285.829L253.72 213.982L239.716 202.987Z" fill="white" stroke="#212121" stroke-linejoin="round"/>
<path d="M329.274 108.805C321.451 102.326 311.883 98.3117 301.78 97.2705C291.676 96.2294 281.49 98.208 272.511 102.956C263.532 107.704 256.162 115.008 251.334 123.945C246.507 132.882 244.438 143.049 245.389 153.162C246.34 163.275 250.269 172.878 256.679 180.758C263.088 188.638 271.691 194.439 281.398 197.43C291.105 200.42 301.481 200.464 311.213 197.557C320.946 194.65 329.598 188.922 336.074 181.097C344.757 170.608 348.918 157.1 347.643 143.543C346.367 129.986 339.76 117.491 329.274 108.805ZM268.49 182.207C261.795 176.664 256.894 169.26 254.406 160.932C251.919 152.603 251.957 143.724 254.516 135.418C257.075 127.111 262.04 119.75 268.782 114.265C275.525 108.78 283.743 105.417 292.396 104.603C301.05 103.788 309.751 105.558 317.399 109.688C325.046 113.818 331.298 120.124 335.362 127.807C339.426 135.49 341.121 144.205 340.232 152.852C339.343 161.498 335.909 169.686 330.367 176.382C326.686 180.827 322.166 184.504 317.065 187.203C311.963 189.901 306.38 191.569 300.635 192.11C294.889 192.65 289.093 192.054 283.577 190.355C278.062 188.656 272.935 185.887 268.49 182.207Z" fill="#212121" stroke="#212121" stroke-linejoin="round"/>
<path d="M249.534 226.541L257.099 214.629C257.099 214.629 259.873 209.266 260.672 208.274C261.471 207.282 264.64 206.089 262.059 206.089C259.478 206.089 258.697 207.677 258.697 207.677V203.474C258.697 202.281 258.697 199.33 257.116 199.532C255.536 199.734 256.099 202.054 255.796 204.323C255.662 205.324 254.527 209.854 254.527 209.854L252.846 203.172C252.77 202.847 252.577 202.561 252.304 202.369C252.032 202.177 251.698 202.092 251.366 202.129C251.039 202.18 250.786 202.331 250.786 202.701C251.026 204.504 251.357 206.294 251.778 208.064L251.165 211.426C251.165 211.426 250.324 206.173 249.105 204.777C248.567 204.164 247.626 205.298 248.021 206.29C248.416 207.282 248.601 212.864 248.601 212.864L248.399 215.243C248.399 215.243 247.012 212.864 246.222 211.67C245.432 210.477 244.23 211.073 244.827 212.864C245.423 214.654 246.81 217.63 246.81 217.63L245.398 221.968C245.398 221.968 243.179 228.718 249.534 226.541Z" fill="white" stroke="#212121" stroke-linejoin="round"/>
<path d="M258.663 207.677L257.276 211.645" stroke="#212121" stroke-linejoin="round"/>
<path d="M163.943 224.691C163.943 224.691 159.202 225.944 159.202 227.928C159.202 229.911 159.202 271.21 159.001 272.597C158.799 273.984 202.284 267.831 202.284 267.831L203.275 261.106L176.67 255.743L176.468 236.678" fill="#B75400"/>
<path d="M163.943 224.691C163.943 224.691 159.202 225.944 159.202 227.928C159.202 229.911 159.202 271.21 159.001 272.597C158.799 273.984 202.284 267.831 202.284 267.831L203.275 261.106L176.67 255.743L176.468 236.678" stroke="#212121" stroke-linejoin="round"/>
<path d="M198.904 260.215L198.711 268.243L198.845 268.327L202.284 267.848L203.275 261.123L198.904 260.215Z" fill="#B75400" stroke="#212121" stroke-linejoin="round"/>
<path d="M203.275 261.056C203.275 261.056 208.832 253.911 211.219 253.911C213.606 253.911 217.171 254.113 217.944 254.113C218.717 254.113 220.525 253.709 219.533 255.104C218.541 256.5 215.162 256.29 215.162 256.29L219.583 258.702C219.886 258.865 220.148 259.096 220.347 259.376C220.547 259.656 220.68 259.979 220.735 260.318C220.79 260.658 220.767 261.006 220.666 261.335C220.565 261.664 220.39 261.965 220.155 262.216C219.154 263.208 216.574 263.208 216.574 263.208C216.574 263.208 213.8 267.772 212.009 268.167C210.219 268.563 202.679 266.78 202.679 266.78L203.275 261.056Z" fill="white" stroke="#212121" stroke-linejoin="round"/>
<path d="M198.618 224.674L199.131 211.662L194.062 209.972L194.903 215.209L198.618 224.674Z" fill="#B75400" stroke="#212121" stroke-linejoin="round"/>
<path d="M199.131 211.662L202.847 219.269L198.955 218.925L199.131 211.662Z" fill="#B75400" stroke="#212121" stroke-linejoin="round"/>
<path d="M201.493 201.701C199.812 202.205 195.744 212.006 195.744 212.006L198.619 224.674L194.062 218.252L192.81 212.082L182.067 207.61L182.235 200.515C181.259 199.987 180.321 199.391 179.427 198.733C177.515 197.407 175.884 195.716 174.628 193.757C172.266 189.705 168.886 183.459 174.123 176.701C179.167 170.178 184.395 169.791 190.095 169.463H190.717C190.717 169.463 197.307 173.524 197.442 175.549C197.576 177.575 198.459 180.45 200.317 181.627C202.174 182.804 204.705 181.459 204.705 183.989C204.661 184.79 204.459 185.573 204.11 186.295C203.76 187.017 203.271 187.661 202.67 188.192C202.67 188.192 204.351 195.968 205.192 198.498C206.033 201.028 203.183 201.188 201.493 201.701Z" fill="white" stroke="#212121" stroke-linejoin="round"/>
<path d="M196.483 181.812C196.92 182.476 197.021 183.182 196.702 183.384C196.383 183.586 195.786 183.216 195.357 182.543C194.928 181.871 194.819 181.173 195.13 180.971C195.441 180.77 196.046 181.148 196.483 181.812Z" fill="#212121"/>
<path d="M192.541 181.425C192.541 181.425 192.709 178.55 195.407 178.55" stroke="#212121" stroke-linejoin="round"/>
<path d="M200.308 191.563C200.308 191.563 195.752 192.572 194.903 189.882" stroke="#212121" stroke-linejoin="round"/>
<path d="M189.162 175.516C190.683 177.029 185.102 180.744 184.261 182.442C183.42 184.14 184.942 186.83 185.102 188.016C185.261 189.201 181.226 192.572 181.226 192.572L179.696 194.093L180.882 198.826C180.882 198.826 180.344 198.826 179.427 198.733C177.515 197.407 175.884 195.716 174.628 193.757C172.266 189.705 168.886 183.459 174.123 176.701C179.167 170.178 184.395 169.791 190.095 169.463C189.111 170.127 187.867 170.422 187.161 171.145C186.119 172.128 187.64 173.986 189.162 175.516Z" fill="#A6A6A6" stroke="#212121" stroke-linejoin="round"/>
<path d="M183.252 193.253C183.252 193.253 180.73 189.369 177.671 191.571C174.611 193.774 180.192 198.834 181.218 199.675C182.243 200.515 185.421 197.313 185.421 197.313C186.005 198.157 186.753 198.876 187.619 199.427C188.485 199.979 189.452 200.351 190.465 200.524" fill="white"/>
<path d="M183.252 193.253C183.252 193.253 180.73 189.369 177.671 191.571C174.611 193.774 180.192 198.834 181.218 199.675C182.243 200.515 185.421 197.313 185.421 197.313C186.005 198.157 186.753 198.876 187.619 199.427C188.485 199.979 189.452 200.351 190.465 200.524" stroke="#212121" stroke-linejoin="round"/>
<path d="M186.287 172.473C186.287 172.473 179.024 180.585 177.166 184.3C175.906 186.922 174.833 189.63 173.955 192.404C173.955 192.404 170.24 192.067 168.071 189.705C165.902 187.343 168.239 178.046 172.459 173.49C175.091 170.685 178.178 168.343 181.588 166.563C181.588 166.563 176.183 166.731 178.225 165.21C180.268 163.688 185.32 163.016 188.699 164.706C189.146 164.879 189.553 165.139 189.897 165.472C190.242 165.804 190.516 166.202 190.705 166.642C190.894 167.082 190.993 167.555 190.996 168.034C191 168.513 190.907 168.987 190.725 169.43L186.287 172.473Z" fill="#212121" stroke="#212121" stroke-linejoin="round"/>
<path d="M181.05 206.593L177.57 213.982L191.188 221.8L193.491 211.578L181.05 206.593Z" fill="#B75400" stroke="#212121" stroke-linejoin="round"/>
<defs>
<filter id="filter0_d_652_12513" x="282.923" y="130.621" width="36.1534" height="27.9944" filterUnits="userSpaceOnUse" color-interpolation-filters="sRGB">
<feFlood flood-opacity="0" result="BackgroundImageFix"/>
<feColorMatrix in="SourceAlpha" type="matrix" values="0 0 0 0 0 0 0 0 0 0 0 0 0 0 0 0 0 0 127 0" result="hardAlpha"/>
<feOffset dy="0.538352"/>
<feGaussianBlur stdDeviation="0.538352"/>
<feColorMatrix type="matrix" values="0 0 0 0 0 0 0 0 0 0 0 0 0 0 0 0 0 0 0.25 0"/>
<feBlend mode="normal" in2="BackgroundImageFix" result="effect1_dropShadow_652_12513"/>
<feBlend mode="normal" in="SourceGraphic" in2="effect1_dropShadow_652_12513" result="shape"/>
</filter>
</defs>
</svg>
