<svg xmlns="http://www.w3.org/2000/svg" width="64" height="64" viewBox="0 0 64 64" fill="none">
<g id="Icons/discovery">
<path id="Vector" d="M42.9732 31.1383C43.1168 31.1383 43.2278 31.2558 43.2278 31.3929V53.9333C43.2278 54.0769 43.1103 54.1879 42.9732 54.1879H14.7993C14.7318 54.1879 14.667 54.1611 14.6193 54.1133C14.5715 54.0656 14.5447 54.0008 14.5447 53.9333V31.3994C14.5447 31.2558 14.6622 31.1448 14.7993 31.1448H42.9732V31.1383ZM28.8862 3.93054C21.5099 3.93054 15.5043 9.9361 15.5043 17.3125V21.536C15.5043 22.0969 15.7271 22.6348 16.1238 23.0315C16.5204 23.4281 17.0584 23.651 17.6193 23.651C18.1802 23.651 18.7182 23.4281 19.1148 23.0315C19.5115 22.6348 19.7343 22.0969 19.7343 21.536V17.3125C19.7343 12.2665 23.8403 8.15401 28.8928 8.15401C33.9453 8.15401 38.0512 12.26 38.0512 17.3125V27.8744H14.7993C12.854 27.8744 11.2808 29.4542 11.2808 31.3929V53.9333C11.2808 55.8786 12.8605 57.4518 14.7993 57.4518H42.9732C44.9185 57.4518 46.4917 55.8721 46.4917 53.9333V31.3994C46.4917 29.4542 44.9119 27.881 42.9732 27.881H42.2682V17.3125C42.2682 9.9361 36.2692 3.93054 28.8862 3.93054Z" fill="#B75400"/>
<path id="Vector_2" d="M23.2724 40.225C24.0753 39.1349 25.3939 38.7432 26.6407 38.3973C27.2739 38.221 27.8027 38.1166 28.4685 38.1166C29.0495 38.1166 29.6174 38.2537 30.1918 38.3646C30.7597 38.4821 31.3472 38.567 31.8564 38.8738C32.1828 39.0696 32.5679 39.1741 32.8943 39.3764C33.0053 39.4417 33.3904 39.5331 33.3382 39.7028C33.2664 39.9378 32.6985 39.7159 32.5157 39.8073C32.3199 39.9052 32.0653 40.088 31.8434 40.0292C31.6279 39.9705 31.5692 39.7159 31.3277 39.6898C30.9621 39.6506 30.8903 40.0423 30.5247 40.0162C30.2506 39.9966 29.9307 39.6506 29.65 39.6702C29.3824 39.6898 29.0952 39.9705 28.8993 40.1141C28.5403 40.3817 28.3836 40.0096 28.0703 39.8856C27.8875 39.8138 27.8157 39.7942 27.6133 39.7942C27.1042 39.7942 26.7974 40.0162 26.5102 40.4209C26.6081 40.2838 25.9683 39.977 25.9031 39.9639C25.6354 39.8921 25.3547 39.7746 25.074 39.7746C24.369 39.7616 23.8729 39.7812 23.2724 40.225ZM28.5207 34.3762C28.3836 34.1934 28.2139 34.2652 27.992 34.2782C27.8745 34.6046 27.9854 34.8788 28.0442 35.1595C28.1095 35.4663 28.1682 35.7731 28.2204 36.0603C28.2792 36.3671 28.3053 36.6805 28.3183 37.0134C28.3249 37.1766 28.3314 37.3593 28.2988 37.516C28.2661 37.6531 28.1747 37.751 28.1421 37.8881C28.4163 37.8816 28.7165 37.8881 28.9972 37.8685C28.9972 37.7314 28.9058 37.5943 28.8732 37.4638C28.834 37.3137 28.8602 37.17 28.8406 37.0134C28.8145 36.7523 28.7492 36.4977 28.7231 36.2235C28.6643 35.6099 28.5599 35.0028 28.5207 34.3762ZM24.2646 50.2778C24.9435 51.5116 26.8496 51.7792 28.1029 51.8118C28.5795 51.8249 29.0625 51.7923 29.539 51.7335C29.7936 51.7009 30.0286 51.6291 30.2897 51.5573C30.7336 51.4332 31.184 51.2896 31.6083 51.0938C31.987 50.9175 32.5157 50.7413 32.6332 50.2582C32.4309 50.5912 30.7924 50.4018 30.5508 50.2843C30.3942 50.2125 30.4138 50.1864 30.2832 50.3039C29.8915 50.6825 29.1996 50.8066 28.6904 50.7087C28.2792 50.6303 27.7178 50.3105 27.3849 50.0559C27.2543 49.958 27.3196 49.9057 27.1368 49.9906C26.7386 50.1734 26.4579 50.428 25.9945 50.4998C25.5179 50.5781 25.074 50.4932 24.5388 50.2582C24.4082 50.1995 24.356 50.193 24.1993 50.095L24.2646 50.2778ZM29.5325 50.4345C29.5782 50.4214 29.9568 50.2648 30.1657 50.1212L30.2963 50.0493C30.4921 50.1668 30.8511 50.2452 31.0208 50.2713C31.1645 50.2974 31.3015 50.317 31.4452 50.33C31.6736 50.3562 31.9021 50.3431 32.124 50.33C32.1763 50.3235 32.2285 50.3235 32.2807 50.3105C32.346 50.2974 32.3721 50.2974 32.4243 50.2843C32.47 50.2713 32.5222 50.2582 32.5614 50.2321C32.594 50.2125 32.6397 50.1864 32.6332 50.1473C32.6332 50.1277 32.6136 50.1146 32.594 50.095C32.5614 50.0624 32.4504 50.0363 31.9478 49.4357L31.9282 49.4096C31.7193 49.1616 31.53 48.8809 31.3668 48.5806C31.0013 47.9017 30.7924 47.1771 30.6422 46.5505C30.355 45.3689 30.3354 43.5216 31.2428 42.2291C31.4778 41.8962 31.7846 41.5698 32.1175 41.3217C32.2154 41.2499 33.2011 40.695 33.5275 40.5971C33.5536 40.5841 33.5732 40.5841 33.6058 40.571L33.6711 40.5514L33.7103 40.5384C33.6972 40.1598 33.4361 39.9443 33.0118 39.9443C32.7638 39.9443 32.47 40.0227 32.235 40.1467C31.9282 40.3099 31.8629 40.2446 31.6149 40.0096L31.5888 39.9835C31.4778 39.8856 31.3799 39.8334 31.282 39.8334C31.1449 39.8334 31.0274 39.9313 30.8903 40.0684C30.7793 40.1728 30.6749 40.225 30.5704 40.225C30.4399 40.225 30.3158 40.1467 30.1853 40.0553C30.009 39.9443 29.8132 39.8138 29.5586 39.8464C29.3106 39.8725 29.1865 40.0488 29.069 40.2055C28.9646 40.3491 28.8928 40.4405 28.7753 40.4405C28.7035 40.4405 28.6186 40.4078 28.5142 40.3425L28.3967 40.2642C28.1486 40.101 27.9528 39.9705 27.6395 39.9705C27.5807 39.9705 27.5285 39.977 27.4632 39.9835C27.2935 40.0031 27.0781 40.0553 26.9018 40.225C26.83 40.2968 26.7843 40.3882 26.7452 40.4731C26.7125 40.5384 26.6864 40.5971 26.6472 40.6428L26.6342 40.6559C26.5102 40.5775 26.3927 40.4992 26.2817 40.4209C25.9618 40.1989 25.6615 39.9835 25.1915 39.9509C25.0022 39.9378 24.7933 39.9182 24.591 39.9182C24.4082 39.9182 24.2515 39.9313 24.1014 39.9509C24.0949 39.9509 23.2724 40.2185 23.2202 40.4078C23.2071 40.447 23.2267 40.4862 23.2593 40.5123C23.5531 40.7473 23.8795 40.9431 24.1928 41.1324L24.3233 41.2107C24.6302 41.4 24.9565 41.6024 25.2438 41.857C25.8639 42.3988 26.2164 43.2017 26.3208 44.2984C26.3796 44.8924 26.4253 45.5843 26.3339 46.2502C26.2295 46.9617 26.0467 47.9278 25.6158 48.5218L25.531 48.6263C25.4788 48.685 25.4265 48.7373 25.3743 48.7895C25.2111 48.9331 25.0479 49.0832 24.8978 49.2334C24.6628 49.4553 24.4147 49.6903 24.1667 49.8796C24.1602 49.8862 24.1602 49.9318 24.1732 49.958C24.1797 49.9841 24.2058 50.0037 24.2124 50.0037C24.2777 50.0298 24.4865 50.1016 24.6171 50.1603C24.7346 50.2125 24.8129 50.2387 24.8456 50.2517C25.2307 50.3627 25.5636 50.4149 25.877 50.4018C26.2425 50.3888 26.5297 50.193 26.8039 50.0037C26.941 49.9123 27.0781 49.8143 27.2282 49.7425C27.2413 49.7556 27.2674 49.7752 27.287 49.7948H27.2935C27.4306 49.9123 27.6721 50.1146 27.7113 50.1407C27.9658 50.3039 28.1943 50.4149 28.4358 50.4737C28.5925 50.5128 28.7492 50.5324 28.9124 50.5324C29.1213 50.5389 29.3302 50.5063 29.5325 50.4345ZM36.3997 34.6373C36.3932 34.82 36.2365 35.1203 36.1517 35.2639C36.0538 35.4271 35.9559 35.525 35.8579 35.6752C35.7535 35.8253 35.5315 36.093 35.3945 36.2235C35.2443 36.3606 35.179 36.4846 35.055 36.6087C34.7613 36.9024 34.239 37.0656 33.8539 37.1505C33.3186 37.2614 32.6593 37.3789 32.1175 37.3398C31.8499 37.3202 31.5104 37.3202 31.2493 37.2484C31.0274 37.1896 30.7467 37.1896 30.5117 37.17C30.2571 37.1439 30.0417 37.1831 29.8132 37.1962C29.5782 37.2092 29.5325 37.2484 29.304 37.3137L29.2192 37.1113C29.3889 37.0134 29.6043 36.9938 29.7806 36.9089C29.9568 36.8175 30.1135 36.7196 30.2702 36.6021C30.577 36.3802 30.8054 36.1452 31.1383 35.9624C31.8368 35.5707 32.6658 35.5316 33.4231 35.5185C34.4088 35.4989 35.6686 35.4598 36.3997 34.6373Z" fill="#B75400"/>
</g>
</svg>
