<svg xmlns="http://www.w3.org/2000/svg" viewBox="0 0 144 94" fill="#b75400"><path d="M88.81 45.68c.22 0 .39.18.39.39V80.6c0 .22-.18.39-.39.39H45.65a.39.39 0 0 1-.39-.39V46.08c0-.22.18-.39.39-.39h43.16M67.23 4c-11.3 0-20.5 9.2-20.5 20.5v6.47a3.24 3.24 0 1 0 6.48 0V24.5c0-7.73 6.29-14.03 14.03-14.03s14.03 6.29 14.03 14.03v16.18H45.65c-2.98 0-5.39 2.42-5.39 5.39V80.6c0 2.98 2.42 5.39 5.39 5.39h43.16c2.98 0 5.39-2.42 5.39-5.39V46.08c0-2.98-2.42-5.39-5.39-5.39h-1.08V24.5c0-11.3-9.19-20.5-20.5-20.5z" /><path d="M58.63 59.6c1.23-1.67 3.25-2.27 5.16-2.8.97-.27 1.78-.43 2.8-.43.89 0 1.76.21 2.64.38.87.18 1.77.31 2.55.78.5.3 1.09.46 1.59.77.17.1.76.24.68.5-.11.36-.98.02-1.26.16-.3.15-.69.43-1.03.34-.33-.09-.42-.48-.79-.52-.56-.06-.67.54-1.23.5-.42-.03-.91-.56-1.34-.53-.41.03-.85.46-1.15.68-.55.41-.79-.16-1.27-.35-.28-.11-.39-.14-.7-.14-.78 0-1.25.34-1.69.96.15-.21-.83-.68-.93-.7-.41-.11-.84-.29-1.27-.29-1.08-.02-1.84.01-2.76.69m8.04-8.96c-.21-.28-.47-.17-.81-.15-.18.5-.01.92.08 1.35.1.47.19.94.27 1.38.09.47.13.95.15 1.46.01.25.02.53-.03.77-.05.21-.19.36-.24.57.42-.01.88 0 1.31-.03 0-.21-.14-.42-.19-.62-.06-.23-.02-.45-.05-.69-.04-.4-.14-.79-.18-1.21-.09-.94-.25-1.87-.31-2.83M60.15 75c1.04 1.89 3.96 2.3 5.88 2.35.73.02 1.47-.03 2.2-.12.39-.05.75-.16 1.15-.27.68-.19 1.37-.41 2.02-.71.58-.27 1.39-.54 1.57-1.28-.31.51-2.82.22-3.19.04-.24-.11-.21-.15-.41.03-.6.58-1.66.77-2.44.62-.63-.12-1.49-.61-2-1-.2-.15-.1-.23-.38-.1-.61.28-1.04.67-1.75.78-.73.12-1.41-.01-2.23-.37-.2-.09-.28-.1-.52-.25l.1.28zm8.07.24c.07-.02.65-.26.97-.48l.2-.11c.3.18.85.3 1.11.34.22.04.43.07.65.09.35.04.7.02 1.04 0 .08-.01.16-.01.24-.03.1-.02.14-.02.22-.04.07-.02.15-.04.21-.08.05-.03.12-.07.11-.13 0-.03-.03-.05-.06-.08-.05-.05-.22-.09-.99-1.01l-.03-.04c-.32-.38-.61-.81-.86-1.27-.56-1.04-.88-2.15-1.11-3.11-.44-1.81-.47-4.64.92-6.62.36-.51.83-1.01 1.34-1.39.15-.11 1.66-.96 2.16-1.11.04-.02.07-.02.12-.04l.1-.03.06-.02c-.02-.58-.42-.91-1.07-.91-.38 0-.83.12-1.19.31-.47.25-.57.15-.95-.21l-.04-.04c-.17-.15-.32-.23-.47-.23-.21 0-.39.15-.6.36-.17.16-.33.24-.49.24-.2 0-.39-.12-.59-.26-.27-.17-.57-.37-.96-.32-.38.04-.57.31-.75.55-.16.22-.27.36-.45.36-.11 0-.24-.05-.4-.15l-.18-.12c-.38-.25-.68-.45-1.16-.45-.09 0-.17.01-.27.02-.26.03-.59.11-.86.37-.11.11-.18.25-.24.38-.05.1-.09.19-.15.26l-.02.02c-.19-.12-.37-.24-.54-.36-.49-.34-.95-.67-1.67-.72-.29-.02-.61-.05-.92-.05-.28 0-.52.02-.75.05-.01 0-1.27.41-1.35.7-.02.06.01.12.06.16.45.36.95.66 1.43.95l.2.12c.47.29.97.6 1.41.99.95.83 1.49 2.06 1.65 3.74.09.91.16 1.97.02 2.99-.16 1.09-.44 2.57-1.1 3.48l-.13.16c-.08.09-.16.17-.24.25-.25.22-.5.45-.73.68-.36.34-.74.7-1.12.99-.01.01-.01.08.01.12.01.04.05.07.06.07.1.04.42.15.62.24.18.08.3.12.35.14.59.17 1.1.25 1.58.23.56-.02 1-.32 1.42-.61.21-.14.42-.29.65-.4.02.02.06.05.09.08h.01c.21.18.58.49.64.53.39.25.74.42 1.11.51.24.06.48.09.73.09.32.01.64-.04.95-.15zm10.52-24.2c-.01.28-.25.74-.38.96-.15.25-.3.4-.45.63-.16.23-.5.64-.71.84-.23.21-.33.4-.52.59-.45.45-1.25.7-1.84.83-.82.17-1.83.35-2.66.29-.41-.03-.93-.03-1.33-.14-.34-.09-.77-.09-1.13-.12-.39-.04-.72.02-1.07.04-.36.02-.43.08-.78.18l-.13-.31c.26-.15.59-.18.86-.31.27-.14.51-.29.75-.47.47-.34.82-.7 1.33-.98 1.07-.6 2.34-.66 3.5-.68 1.51-.03 3.44-.09 4.56-1.35z"/></svg>
