<svg xmlns="http://www.w3.org/2000/svg" viewBox="0 0 144 94" fill="#b75400"><path d="M95.08 59.58a.996.996 0 0 0-1.39.24l-.76 1.07c-8.16 11.51-24.12 14.26-35.55 6.15-4.09-2.9-7.32-7-9.15-11.54l3.77-.02c.75 0 1.23-.81.88-1.47l-11.9-22.29c-.37-.7-1.37-.71-1.76-.01l-12.4 22.37c-.37.67.11 1.49.88 1.48l5.98-.02c2.26 9.06 7.9 17.29 15.67 22.81 17.67 12.53 42.28 8.28 54.87-9.46l.76-1.07a.996.996 0 0 0-.24-1.39l-9.66-6.85zm3.98 8.49c-11.46 14.1-32.07 17.12-47.03 6.51-7.35-5.21-12.53-13.15-14.22-21.8l-.37-1.87-3.57.01 6.18-11.15 5.93 11.1-3.95.01.76 2.89c1.76 6.7 6.11 12.91 11.91 17.03 12.99 9.21 30.73 6.46 40.58-5.42l3.78 2.69zm3.96-7.51c.37.7 1.37.71 1.76.01l2.92-5.27 9.48-17.11a.993.993 0 0 0-.88-1.48l-5.97.02c-2.23-9.03-7.73-17.23-15.7-22.82C76.76 1.37 52.01 6.15 39.39 23.95l-.36.51a.996.996 0 0 0 .24 1.39l9.67 6.86c.45.32 1.07.21 1.39-.24l.46-.65c7.56-10.66 21.95-14.36 33.41-8.09 5.34 2.92 9.42 7.58 11.59 13.05L92 36.8c-.75 0-1.23.81-.88 1.47l11.9 22.29zM89.43 21.57c-12.94-9.18-30.8-6.59-40.7 5.33l-3.78-2.68c11.46-14.1 32.13-17.08 47.16-6.42 7.37 5.23 12.38 12.94 14.1 21.71l.37 1.87 3.57-.01-6.18 11.15-5.93-11.1 3.95-.01-.76-2.89c-1.8-6.82-5.99-12.83-11.8-16.95z"/><circle cx="72.1" cy="46.5" r="16.84"/></svg>
