<svg xmlns="http://www.w3.org/2000/svg" width="403" height="393" viewBox="0 0 403 393" fill="none">
<rect width="402.324" height="393" fill="#F5F5F5"/>
<path d="M109.012 341.029C106.11 344.305 102.385 346.745 98.2225 348.099C93.2774 349.821 88.0695 350.667 82.8334 350.597C77.3859 350.724 72.0037 349.391 67.2456 346.736C62.7246 344.09 59.1188 340.128 56.9104 335.378C54.3564 329.957 53.0745 324.023 53.1625 318.03V313.487C53.0186 307.391 54.2005 301.336 56.6265 295.742C58.7277 291.038 62.2016 287.079 66.5925 284.384C71.2064 281.667 76.4865 280.291 81.8396 280.409C88.6575 279.951 95.4118 281.968 100.863 286.088C105.697 290.427 108.625 296.497 109.012 302.982H95.2412C94.9151 299.74 93.4455 296.721 91.0958 294.464C88.5802 292.483 85.4353 291.475 82.2371 291.625C80.1013 291.51 77.9719 291.946 76.0529 292.891C74.134 293.836 72.4896 295.257 71.2774 297.019C68.4657 301.867 67.1518 307.439 67.5011 313.033V317.406C67.1061 323.125 68.5378 328.822 71.5897 333.675C72.9837 335.502 74.806 336.957 76.8956 337.913C78.9853 338.868 81.2781 339.295 83.5716 339.155C88.8811 339.155 92.6574 338.047 94.9289 335.776V324.106H82.0952V313.714H109.04L109.012 341.029Z" fill="#009EDB"/>
<path d="M225.481 335.577H200.751L196.038 349.774H181.046L206.6 281.346H219.661L245.215 349.774H230.223L225.481 335.577ZM204.556 324.22H221.592L213.074 298.666L204.556 324.22Z" fill="#009EDB"/>
<path d="M263.584 338.36H293.51V349.717H249.473V281.261H263.669L263.584 338.36Z" fill="#009EDB"/>
<path d="M334.964 331.744C335.026 330.568 334.799 329.395 334.304 328.326C333.809 327.257 333.061 326.325 332.125 325.611C328.991 323.608 325.574 322.087 321.989 321.097C317.988 319.878 314.102 318.31 310.376 316.412C302.596 312.21 298.706 306.531 298.706 299.376C298.659 295.824 299.754 292.35 301.83 289.467C304.132 286.404 307.252 284.052 310.83 282.681C314.997 281.004 319.456 280.174 323.948 280.239C328.445 280.152 332.906 281.063 337.009 282.908C340.641 284.495 343.737 287.098 345.924 290.404C348.06 293.666 349.168 297.493 349.104 301.392H334.908C334.996 300.042 334.788 298.689 334.297 297.428C333.807 296.168 333.046 295.03 332.068 294.095C329.718 292.218 326.751 291.286 323.749 291.483C320.903 291.302 318.077 292.071 315.714 293.669C314.82 294.319 314.096 295.174 313.602 296.162C313.108 297.15 312.858 298.243 312.874 299.347C312.882 300.506 313.196 301.641 313.784 302.638C314.373 303.636 315.215 304.46 316.225 305.026C319.307 306.906 322.645 308.33 326.134 309.257C332.597 310.847 338.597 313.93 343.653 318.257C345.45 319.975 346.869 322.049 347.818 324.347C348.766 326.646 349.224 329.117 349.161 331.602C349.265 334.299 348.706 336.98 347.533 339.411C346.36 341.842 344.608 343.947 342.432 345.543C337.11 349.141 330.76 350.905 324.345 350.569C319.401 350.64 314.497 349.673 309.95 347.729C305.972 346.079 302.545 343.332 300.069 339.808C297.771 336.356 296.583 332.284 296.662 328.138H310.859C310.859 335.71 315.373 339.495 324.402 339.495C327.164 339.658 329.907 338.942 332.239 337.451C333.131 336.801 333.848 335.939 334.324 334.943C334.8 333.946 335.02 332.847 334.964 331.744Z" fill="#009EDB"/>
<path d="M132.153 306.247C132.932 304.802 133.886 303.457 134.992 302.244L124.799 291.057C122.206 293.544 120.012 296.417 118.297 299.575L132.153 306.247Z" fill="#5FBB46"/>
<path d="M157.024 298.354C158.56 299.06 160 299.956 161.312 301.023L171.533 289.864C168.829 287.51 165.773 285.594 162.476 284.186L157.024 298.354Z" fill="#D19F2A"/>
<path d="M180.422 301.676L166.85 308.462C167.508 309.986 167.966 311.589 168.212 313.232L183.289 311.812C182.868 308.304 181.901 304.884 180.422 301.676Z" fill="#C22033"/>
<path d="M165.94 306.531L179.512 299.745C177.84 296.597 175.695 293.725 173.152 291.227L162.93 302.386C164.091 303.604 165.102 304.958 165.94 306.417" fill="#2D9A47"/>
<path d="M129.314 316.156C129.314 315.844 129.314 315.56 129.314 315.248L114.209 313.885C114.209 314.652 114.209 315.39 114.209 316.156C114.205 319.026 114.549 321.886 115.231 324.674L129.825 320.5C129.487 319.077 129.316 317.619 129.314 316.156Z" fill="#48773C"/>
<path d="M164.039 328.564C162.957 329.868 161.717 331.032 160.347 332.028L168.326 344.947C171.283 342.935 173.916 340.484 176.134 337.678L164.039 328.564Z" fill="#FDB714"/>
<path d="M168.467 316.156C168.475 317.56 168.323 318.961 168.013 320.33L182.607 324.39C183.282 321.659 183.625 318.856 183.629 316.043C183.629 315.342 183.629 314.633 183.629 313.913L168.552 315.333V316.043" fill="#EF412A"/>
<path d="M133.998 328.848L121.931 338.019C124.164 340.799 126.818 343.213 129.796 345.174L137.831 332.284C136.428 331.307 135.159 330.152 134.055 328.848" fill="#F99D25"/>
<path d="M129.54 313.033C129.813 311.359 130.3 309.727 130.988 308.177L117.444 301.42C115.915 304.67 114.9 308.137 114.434 311.698L129.54 313.033Z" fill="#007DBB"/>
<path d="M166.48 346.111L158.501 333.221C157.046 334.043 155.49 334.673 153.873 335.095L156.712 350.029C160.154 349.218 163.456 347.897 166.508 346.111" fill="#8F1838"/>
<path d="M167.446 322.431C166.915 323.969 166.2 325.438 165.316 326.804L177.582 335.946C179.564 333.089 181.105 329.949 182.153 326.633L167.446 322.431Z" fill="#00ADD8"/>
<path d="M151.715 335.549C150.774 335.673 149.825 335.74 148.876 335.747C148.117 335.742 147.358 335.695 146.604 335.605L143.765 350.512C147.321 351.059 150.941 351.059 154.498 350.512L151.715 335.549Z" fill="#F36E24"/>
<path d="M150.153 296.622C151.796 296.728 153.418 297.043 154.98 297.559L160.432 283.362C157.124 282.198 153.658 281.547 150.153 281.432V296.622Z" fill="#EA1D2D"/>
<path d="M144.447 335.236C142.776 334.84 141.163 334.23 139.649 333.419L131.67 346.31C134.775 348.093 138.136 349.386 141.636 350.143L144.447 335.236Z" fill="#E01A83"/>
<path d="M142.999 297.474C144.604 296.979 146.263 296.684 147.939 296.594V281.432C144.39 281.537 140.877 282.179 137.519 283.334L142.999 297.474Z" fill="#1A3668"/>
<path d="M132.664 327.23C131.696 325.796 130.922 324.239 130.364 322.602L115.77 326.776C116.864 330.217 118.492 333.466 120.596 336.401L132.664 327.23Z" fill="#CD8B2A"/>
<path d="M136.752 300.796C138.035 299.771 139.448 298.922 140.954 298.269L135.475 284.072C132.205 285.438 129.168 287.306 126.474 289.609L136.752 300.796Z" fill="#00558A"/>
<path d="M83.9875 200.314C84.0089 199.856 83.9194 199.4 83.7266 198.985C83.5337 198.57 83.2433 198.207 82.8801 197.929C81.7183 197.128 80.433 196.524 79.0755 196.14C77.5415 195.645 76.0427 195.048 74.5893 194.351C72.9944 193.789 71.6027 192.766 70.5915 191.411C69.5802 190.056 68.9951 188.43 68.9107 186.742C68.8893 185.202 69.3897 183.701 70.3304 182.483C71.3673 181.187 72.7433 180.204 74.3054 179.643C76.1133 178.932 78.0413 178.575 79.984 178.593C81.9377 178.545 83.8774 178.933 85.6627 179.729C87.232 180.39 88.5741 181.495 89.5241 182.909C90.4403 184.308 90.9151 185.95 90.887 187.622H83.9875C84.0351 187.098 83.9628 186.57 83.7758 186.078C83.5889 185.586 83.2923 185.143 82.9086 184.782C82.1131 184.122 81.1022 183.779 80.0692 183.817C79.0587 183.778 78.0627 184.067 77.2299 184.641C76.8889 184.873 76.6115 185.187 76.423 185.554C76.2346 185.921 76.141 186.329 76.151 186.742C76.1746 187.148 76.2952 187.544 76.5026 187.894C76.7101 188.245 76.9984 188.541 77.3435 188.758C78.6297 189.612 80.0501 190.246 81.5456 190.631C83.1871 191.245 84.7656 192.015 86.2589 192.931C87.6609 193.612 88.8434 194.673 89.6717 195.994C90.5 197.314 90.9408 198.84 90.9438 200.399C90.9988 201.554 90.7685 202.704 90.2733 203.749C89.7781 204.794 89.0332 205.701 88.1045 206.39C85.7933 207.961 83.03 208.729 80.2396 208.576C78.0343 208.609 75.8472 208.173 73.8227 207.298C72.0726 206.597 70.5704 205.391 69.507 203.834C68.5282 202.323 68.0239 200.553 68.0589 198.752H75.1004C75.0466 199.376 75.1249 200.005 75.3304 200.597C75.5359 201.189 75.8639 201.731 76.2929 202.188C77.4247 203.035 78.8321 203.43 80.2396 203.295C81.2428 203.383 82.2457 203.122 83.0789 202.557C83.4101 202.292 83.6676 201.947 83.8267 201.554C83.9858 201.161 84.0412 200.734 83.9875 200.314Z" fill="#009EDB"/>
<path d="M117.775 178.962V197.985C117.834 199.966 117.364 201.926 116.412 203.664C115.479 205.231 114.093 206.478 112.437 207.242C110.533 208.114 108.455 208.541 106.361 208.491C103.317 208.648 100.329 207.632 98.0132 205.651C96.978 204.693 96.1628 203.521 95.6237 202.218C95.0845 200.914 94.8342 199.509 94.89 198.099V178.962H101.931V198.269C101.931 201.449 103.408 203.039 106.361 203.039C106.963 203.084 107.567 203 108.135 202.795C108.703 202.589 109.22 202.266 109.654 201.847C110.488 200.73 110.883 199.346 110.762 197.957V178.962H117.775Z" fill="#009EDB"/>
<path d="M137.537 200.313C137.561 199.858 137.476 199.404 137.288 198.989C137.101 198.574 136.816 198.21 136.458 197.928C135.296 197.128 134.011 196.524 132.653 196.14C131.117 195.65 129.618 195.052 128.167 194.351C126.572 193.789 125.18 192.766 124.169 191.411C123.158 190.056 122.573 188.43 122.488 186.741C122.467 185.202 122.967 183.701 123.908 182.482C124.939 181.18 126.317 180.196 127.883 179.643C129.689 178.927 131.618 178.57 133.562 178.593C135.515 178.551 137.453 178.939 139.24 179.728C140.805 180.398 142.144 181.502 143.102 182.908C144.018 184.307 144.493 185.95 144.465 187.622H137.48C137.521 187.098 137.446 186.572 137.259 186.081C137.073 185.59 136.78 185.146 136.401 184.782C135.603 184.127 134.594 183.784 133.562 183.817C132.551 183.774 131.553 184.063 130.722 184.64C130.378 184.871 130.096 185.184 129.903 185.551C129.71 185.918 129.611 186.327 129.615 186.741C129.644 187.15 129.77 187.546 129.982 187.897C130.194 188.247 130.487 188.542 130.836 188.757C132.122 189.612 133.542 190.246 135.038 190.631C136.753 191.159 138.409 191.864 139.978 192.732C141.388 193.407 142.578 194.465 143.412 195.786C144.246 197.108 144.69 198.638 144.692 200.2C144.742 201.354 144.509 202.503 144.014 203.547C143.52 204.591 142.778 205.499 141.852 206.191C139.531 207.762 136.758 208.53 133.959 208.377C131.763 208.409 129.585 207.974 127.571 207.099C125.797 206.428 124.264 205.241 123.17 203.692C122.191 202.18 121.687 200.41 121.722 198.61H128.763C128.709 199.234 128.788 199.863 128.993 200.455C129.199 201.047 129.527 201.589 129.956 202.045C131.08 202.886 132.476 203.281 133.874 203.153C134.877 203.234 135.877 202.974 136.713 202.415C137.009 202.156 137.239 201.831 137.382 201.465C137.526 201.099 137.579 200.704 137.537 200.313Z" fill="#009EDB"/>
<path d="M171.438 184.413H162.636V208.065H155.652V184.413H147.134V178.962H171.438V184.413Z" fill="#009EDB"/>
<path d="M188.844 202.613H179.247L177.571 208.037H170.076L180.751 178.962H187.339L198.071 208.037H190.547L188.844 202.613ZM180.922 197.19H187.168L184.045 187.253L180.922 197.19Z" fill="#009EDB"/>
<path d="M208.066 208.037H201.081V178.962H208.066V208.037Z" fill="#009EDB"/>
<path d="M237.594 208.037H230.638L220.331 190.092V208.178H213.346V178.962H220.331L230.609 197.048V178.962H237.594V208.037Z" fill="#009EDB"/>
<path d="M259.457 202.613H249.86L248.1 208.037H240.604L251.251 178.962H257.839L268.6 208.037H261.075L259.457 202.613ZM251.535 197.19H257.782L254.488 187.253L251.535 197.19Z" fill="#009EDB"/>
<path d="M271.07 208.037V178.962H281.49C284.473 178.782 287.441 179.504 290.008 181.035C290.944 181.71 291.695 182.61 292.191 183.652C292.687 184.695 292.913 185.845 292.847 186.997C292.89 188.36 292.524 189.705 291.797 190.859C291.064 191.951 289.999 192.777 288.759 193.215C290.141 193.533 291.374 194.315 292.251 195.43C293.075 196.6 293.503 198.003 293.472 199.433C293.544 200.652 293.323 201.87 292.83 202.986C292.336 204.102 291.582 205.084 290.633 205.85C288.278 207.442 285.463 208.21 282.626 208.037H271.07ZM278.054 191.001H281.717C282.872 191.109 284.028 190.807 284.982 190.149C285.329 189.855 285.6 189.483 285.773 189.063C285.946 188.643 286.016 188.188 285.976 187.735C286.019 187.241 285.943 186.744 285.756 186.285C285.568 185.826 285.274 185.418 284.897 185.095C283.877 184.468 282.684 184.18 281.49 184.271H278.054V191.001ZM278.054 195.6V202.557H282.654C283.67 202.607 284.673 202.306 285.493 201.705C285.832 201.393 286.098 201.009 286.27 200.582C286.441 200.155 286.516 199.694 286.487 199.235C286.527 198.765 286.463 198.292 286.299 197.849C286.136 197.407 285.877 197.006 285.54 196.676C285.204 196.345 284.799 196.092 284.354 195.936C283.91 195.779 283.436 195.723 282.966 195.771L278.054 195.6Z" fill="#009EDB"/>
<path d="M304.887 202.642H317.096V208.037H297.902V178.962H304.887V202.642Z" fill="#009EDB"/>
<path d="M338.418 195.771H327.402V202.699H340.406V208.093H320.53V178.962H340.604V184.413H327.544V190.546H338.56L338.418 195.771Z" fill="#009EDB"/>
<path d="M67.7189 247.275V219.45H76.6911C79.0065 219.407 81.291 219.985 83.3067 221.125C85.2718 222.208 86.8723 223.848 87.9064 225.838C89.0309 227.942 89.607 230.296 89.5816 232.681V233.959C89.6245 236.339 89.068 238.693 87.9632 240.802C86.9288 242.781 85.3533 244.425 83.4203 245.543C81.4372 246.694 79.1823 247.292 76.8899 247.275H67.7189ZM74.4197 224.561V242.051H76.7479C77.6008 242.096 78.452 241.934 79.2284 241.578C80.0048 241.222 80.6833 240.683 81.2056 240.007C82.3515 238.186 82.8885 236.048 82.7388 233.902V232.681C82.8863 230.544 82.3493 228.416 81.2056 226.605C80.6729 225.927 79.9844 225.386 79.1985 225.031C78.4126 224.675 77.5525 224.514 76.6911 224.561H74.4197Z" fill="#009EDB"/>
<path d="M110.308 235.521H99.7455V242.165H112.21V247.333H93.0163V219.507H112.238V224.675H99.7455V230.552H110.308V235.521Z" fill="#009EDB"/>
<path d="M127.457 239.695L133.136 219.451H140.604L131.262 247.276H123.908L114.652 219.451H122.091L127.457 239.695Z" fill="#009EDB"/>
<path d="M159.797 235.521H149.235V242.165H161.699V247.333H142.534V219.507H161.756V224.675H149.235V230.552H159.797V235.521Z" fill="#009EDB"/>
<path d="M171.154 242.108H182.795V247.276H164.425V219.451H171.126L171.154 242.108Z" fill="#009EDB"/>
<path d="M207.214 233.931C207.273 236.418 206.758 238.886 205.709 241.143C204.79 243.141 203.298 244.821 201.422 245.97C199.513 247.121 197.319 247.711 195.09 247.673C192.878 247.71 190.699 247.14 188.787 246.026C186.925 244.925 185.432 243.294 184.5 241.341C183.387 239.191 182.803 236.806 182.796 234.385V232.682C182.738 230.194 183.253 227.726 184.301 225.47C185.22 223.472 186.713 221.792 188.588 220.643C190.52 219.537 192.708 218.956 194.934 218.956C197.16 218.956 199.348 219.537 201.28 220.643C203.143 221.802 204.639 223.466 205.596 225.441C206.698 227.694 207.252 230.174 207.214 232.682V233.931ZM200.4 232.682C200.538 230.491 200.056 228.307 199.009 226.378C198.601 225.701 198.021 225.144 197.327 224.765C196.634 224.386 195.852 224.198 195.062 224.22C191.683 224.22 189.894 226.747 189.724 231.801V233.846C189.6 236.031 190.071 238.21 191.087 240.149C191.498 240.845 192.09 241.415 192.8 241.8C193.51 242.185 194.312 242.37 195.119 242.335C195.906 242.365 196.687 242.18 197.377 241.799C198.067 241.419 198.641 240.859 199.037 240.177C200.066 238.273 200.547 236.121 200.428 233.959L200.4 232.682Z" fill="#009EDB"/>
<path d="M217.407 237.821V247.275H210.677V219.45H221.807C223.763 219.413 225.703 219.81 227.486 220.614C229.046 221.349 230.365 222.511 231.291 223.965C232.183 225.446 232.645 227.147 232.625 228.877C232.684 230.11 232.458 231.34 231.966 232.472C231.473 233.605 230.728 234.609 229.786 235.407C227.498 237.134 224.669 237.989 221.807 237.821H217.407ZM217.407 232.653H221.807C222.842 232.7 223.855 232.355 224.647 231.688C225.009 231.314 225.288 230.868 225.464 230.378C225.64 229.889 225.71 229.367 225.669 228.848C225.733 227.711 225.357 226.592 224.618 225.725C224.255 225.338 223.815 225.032 223.326 224.826C222.837 224.621 222.31 224.521 221.779 224.533H217.321L217.407 232.653Z" fill="#009EDB"/>
<path d="M244.522 219.451L250.74 238.815L256.93 219.451H265.76V247.276H259.031V240.774L259.684 227.486L252.955 247.361H248.526L241.768 227.486L242.421 240.802V247.304H235.692V219.479L244.522 219.451Z" fill="#009EDB"/>
<path d="M286.658 235.521H276.096V242.165H288.56V247.333H269.395V219.507H288.617V224.675H276.096V230.552H286.658V235.521Z" fill="#009EDB"/>
<path d="M314.313 247.276H307.725L297.788 229.842V247.162H291.059V219.337H297.788L307.612 236.657V219.337H314.313V247.276Z" fill="#009EDB"/>
<path d="M340.264 224.618H331.746V247.333H325.045V224.618H316.84V219.451H340.122L340.264 224.618Z" fill="#009EDB"/>
<path d="M236.618 118.784C234.573 121.141 232.019 122.872 229.201 123.808C227.292 124.397 225.295 124.548 223.332 124.251C220.324 123.828 217.455 122.586 214.979 120.633L210.514 117.417C209.694 116.8 208.769 116.378 207.796 116.177C206.824 115.977 205.825 116.002 204.861 116.252C203.745 116.252 204.573 116.935 204.861 117.055C207.558 118.536 210.115 120.313 212.495 122.361C214.066 123.743 215.568 125.219 216.995 126.783L214.835 128.833C214.835 128.833 213.179 126.783 212.458 125.979C209.563 122.567 206.211 119.679 202.521 117.417C202.373 117.299 202.198 117.229 202.017 117.216C201.846 117.23 201.684 117.3 201.549 117.417C197.886 119.672 194.557 122.546 191.683 125.939C190.963 126.743 189.307 128.793 189.307 128.793L187.182 126.743C188.609 125.178 190.112 123.702 191.683 122.321C194.05 120.274 196.595 118.496 199.28 117.015C199.28 117.015 200.289 116.332 199.28 116.211C198.317 115.962 197.318 115.937 196.345 116.137C195.373 116.338 194.448 116.76 193.628 117.377L189.055 120.794C186.592 122.746 183.735 123.989 180.737 124.411C178.763 124.708 176.754 124.558 174.833 123.969C172.003 123.051 169.427 121.351 167.343 119.025L167.811 119.266C170.878 120.967 174.379 121.422 177.713 120.553C180.024 119.974 182.27 119.111 184.41 117.98C185.958 117.256 187.507 116.412 189.091 115.85C193.174 114.379 197.553 114.268 201.693 115.528H202.125C206.264 114.265 210.644 114.377 214.727 115.85C216.347 116.412 217.859 117.256 219.444 117.98C221.569 119.117 223.804 119.98 226.105 120.553C229.451 121.421 232.963 120.967 236.042 119.266L236.618 118.784ZM246.592 108.654C245.258 109.853 243.73 110.753 242.091 111.307C239.753 112.076 237.328 112.468 234.89 112.473C231.758 112.674 228.769 112.835 225.709 113.357C225.709 113.357 225.421 113.357 225.493 113.357C228.163 112.156 230.316 109.853 231.506 106.926C232.478 104.836 234.062 100.816 234.494 100.173C234.494 100.173 231.289 103.107 229.921 104.514C228.553 105.921 226.609 108.172 224.916 109.901C222.668 112.094 219.974 113.64 217.067 114.403C218.147 114.684 221.244 115.448 222.828 115.93C225.252 116.698 227.735 117.209 230.245 117.457C232.965 117.701 235.701 117.304 238.275 116.292C241.701 114.781 244.656 112.182 246.772 108.815C246.728 108.743 246.665 108.687 246.592 108.654ZM255.917 92.5759C254.365 94.5987 252.558 96.3589 250.553 97.8014C248.821 99.0929 246.989 100.209 245.08 101.138C242.655 102.263 240.377 103.75 238.311 105.559L237.915 105.881C240.251 102.662 241.691 98.7489 242.055 94.6259C242.208 91.9139 242.582 89.2231 243.171 86.5867V86.3857C240.988 89.4841 239.273 92.96 238.095 96.6759C237.482 98.6858 236.87 100.696 236.222 102.705C235.443 105.455 234.113 107.97 232.334 110.061V110.262H232.946C235.034 109.78 237.122 109.257 239.211 108.855C242.629 108.271 245.86 106.737 248.608 104.394C251.465 102.075 253.786 99.03 255.377 95.5102C255.82 94.5917 256.171 93.6211 256.421 92.6161L255.917 92.5759ZM259.986 74.6483C258.983 77.8945 257.305 80.8288 255.089 83.2102C252.488 86.0039 250.081 89.0138 247.888 92.2141C248.759 88.93 248.98 85.4737 248.536 82.0847C248.14 79.2307 247.024 76.0954 246.736 72.5983V72.9199C246.069 75.1756 245.634 77.5085 245.44 79.8739C245.44 82.7278 245.764 86.3857 245.44 89.32C245.433 92.7078 244.808 96.0585 243.603 99.1681V99.4093C244.72 98.6054 247.888 96.5152 249.976 94.9475C252.625 93.055 254.923 90.6124 256.746 87.7523C259.093 84.0964 260.353 79.7094 260.346 75.2111V74.7689L259.986 74.6483ZM253.253 76.5778C253.325 75.6147 253.325 74.6467 253.253 73.6836C252.748 70.4293 251.509 67.3722 249.652 64.8002C248.577 62.9661 247.626 61.0447 246.808 59.0521C246.808 59.3737 246.808 60.3384 246.808 60.9816C247.381 65.7988 248.469 70.522 250.048 75.0503C251.026 77.8765 251.408 80.9162 251.165 83.9337C251.165 84.2151 251.165 84.2151 251.165 84.2955C252.137 82.768 254.009 80.5572 255.197 78.9895C257.49 76.2046 259.105 72.8093 259.887 69.1285C260.668 65.4478 260.591 61.6047 259.662 57.9668C259.538 57.4796 259.369 57.0081 259.158 56.56C259.158 64.5992 255.557 68.1365 254.225 73.6836C253.649 74.8895 253.433 75.8542 253.253 76.6984V76.5778ZM247.78 51.4148C246.326 50.0013 245.033 48.395 243.927 46.6315H243.603C243.603 46.9932 244.684 50.6511 245.296 52.2188C246.355 54.5325 247.648 56.7038 249.148 58.6904C249.232 58.8471 249.329 58.9951 249.436 59.1325C251.216 61.8665 252.635 64.8718 253.649 68.0561C253.649 67.2522 254.729 64.0365 255.413 61.8659C256.05 59.6892 256.579 57.4751 256.998 55.2335C257.647 49.5595 256.362 43.8201 253.397 39.1549V39.6775C253.418 39.9047 253.418 40.1336 253.397 40.3608C253.916 43.2801 253.916 46.2848 253.397 49.204C252.997 51.536 252.792 53.9043 252.785 56.2786C252.785 56.6806 253.037 59.5747 253.001 59.6953C253.001 59.6953 252.641 58.61 252.317 57.7257L251.921 56.7208C250.884 54.6857 249.472 52.9185 247.78 51.5354V51.4148ZM244.72 29.8696C245.61 30.8047 246.31 31.9425 246.772 33.2059C247.44 35.5986 247.945 38.0441 248.284 40.5216C248.572 41.9285 248.752 42.8932 249.184 44.5413C247.599 42.3633 245.64 40.5596 243.423 39.2353C242.037 38.2168 240.819 36.9385 239.823 35.4569L239.247 34.6128C239.232 34.7328 239.232 34.8545 239.247 34.9745C239.736 37.6595 240.869 40.1461 242.523 42.1697C243.891 43.6167 245.404 44.8628 246.844 46.1893C248.686 47.964 250.374 49.9289 251.885 52.058C251.885 51.6158 251.885 50.9727 251.885 50.1688C251.885 48.4001 251.885 46.1491 251.885 44.4609C251.885 43.7775 251.885 43.1344 251.885 42.4912C251.854 40.6069 251.487 38.7483 250.805 37.0245C249.715 34.0667 247.726 31.6327 245.188 30.151L244.684 29.95C244.664 30.0288 244.664 30.1123 244.684 30.1912L244.72 29.8696ZM233.702 24.2019C235.201 25.7534 236.519 27.509 237.626 29.4274C238.625 31.2946 239.835 33.0104 241.227 34.5324C242.235 35.6579 245.116 38.1902 245.836 38.7932C245.158 34.5667 243.306 30.6854 240.543 27.699C238.373 25.7535 235.837 24.3795 233.126 23.6793L233.702 24.2019ZM173.752 117.417C176.274 117.173 178.77 116.661 181.206 115.89C182.79 115.407 185.886 114.644 186.93 114.362C184.038 113.589 181.357 112.044 179.117 109.86C177.389 108.132 175.805 106.243 174.112 104.474C172.642 102.942 171.104 101.493 169.504 100.133C169.936 100.776 171.52 104.796 172.492 106.886C173.667 109.81 175.808 112.115 178.469 113.317C178.469 113.317 178.469 113.317 178.253 113.317C175.193 112.795 172.204 112.634 169.072 112.433C166.634 112.421 164.21 112.029 161.87 111.267C160.243 110.711 158.728 109.81 157.406 108.614C157.335 108.592 157.26 108.592 157.19 108.614C159.306 111.981 162.26 114.58 165.687 116.091C168.261 117.167 171.01 117.619 173.752 117.417ZM171.376 110.383H171.988V110.182C170.16 108.08 168.793 105.535 167.991 102.746C167.343 100.776 166.731 98.726 166.119 96.7161C164.94 93.0002 163.225 89.5243 161.042 86.4259C161.023 86.4911 161.023 86.5616 161.042 86.6269C161.662 89.2579 162.047 91.9507 162.194 94.6661C162.54 98.7943 163.982 102.713 166.335 105.921C166.335 105.921 166.335 106.122 166.335 105.921L165.975 105.6C163.822 103.825 161.459 102.391 158.954 101.339C157.079 100.378 155.284 99.235 153.589 97.922C151.574 96.4943 149.765 94.7323 148.224 92.6965C148.475 93.7015 148.825 94.6721 149.268 95.5906C150.859 99.1112 153.18 102.157 156.038 104.474C158.778 106.831 162.013 108.367 165.435 108.936C167.235 109.378 169.324 109.82 171.376 110.303V110.383ZM154.129 94.9073C156.218 96.475 159.386 98.5652 160.502 99.3691C160.502 99.3691 160.502 99.3691 160.502 99.1279C159.328 96.0093 158.716 92.6627 158.702 89.2798C158.702 86.3455 158.99 82.6876 158.702 79.8337C158.49 77.4713 158.055 75.1404 157.406 72.8797C157.389 72.7733 157.389 72.6645 157.406 72.5581C157.118 76.0552 156.002 79.1905 155.605 82.0445C155.144 85.4327 155.365 88.8933 156.254 92.174C154.061 88.9736 151.653 85.9637 149.052 83.17C146.837 80.7886 145.158 77.8543 144.156 74.6081C144.156 74.6081 144.156 74.8895 144.156 75.0503C144.168 79.5453 145.426 83.9259 147.756 87.5916C149.459 90.4251 151.62 92.8789 154.129 94.8269V94.9073ZM153.013 84.3759C153.013 84.3759 153.013 84.3759 153.013 84.0141C152.769 80.9966 153.151 77.9569 154.129 75.1307C155.709 70.6024 156.797 65.8792 157.37 61.062C157.37 60.4188 157.37 59.4541 157.37 59.1325C156.539 61.1259 155.576 63.0472 154.489 64.8806C152.645 67.4608 151.407 70.5143 150.889 73.764C150.799 74.7261 150.799 75.6961 150.889 76.6582C150.889 75.814 150.493 74.8493 150.205 73.8042C148.728 68.2571 145.236 64.8002 145.272 56.6806C145.06 57.1287 144.891 57.6002 144.768 58.0874C143.839 61.7253 143.761 65.5684 144.543 69.2491C145.325 72.9299 146.939 76.3251 149.232 79.1101C150.169 80.5572 152.041 82.768 153.013 84.2955V84.3759ZM148.476 61.9463C149.16 64.1169 150.061 67.3326 150.241 68.1365C151.255 64.9522 152.674 61.9469 154.453 59.2129L154.741 58.7708C156.243 56.7932 157.524 54.6202 158.558 52.2992C159.206 50.6109 160.214 47.0736 160.286 46.7119H159.962C158.857 48.4754 157.563 50.0817 156.11 51.4952C154.302 52.9656 152.834 54.8944 151.825 57.1227L151.429 58.1276C151.105 59.012 150.745 60.0571 150.745 60.0973C150.745 60.0973 150.745 57.0825 150.961 56.6806C150.953 54.3063 150.748 51.9379 150.349 49.606C149.812 46.6887 149.812 43.6801 150.349 40.7628C150.387 40.5286 150.447 40.2995 150.529 40.0795V39.5569C147.564 44.2221 146.278 49.9614 146.928 55.6355C147.345 57.7678 147.862 59.8743 148.476 61.9463ZM152.473 50.2491C152.473 51.0531 152.473 51.6962 152.473 52.1384C153.984 50.0093 155.672 48.0444 157.514 46.2697C158.954 44.9432 160.466 43.6971 161.798 42.2501C163.463 40.2288 164.608 37.7427 165.111 35.0549C165.125 34.9349 165.125 34.8132 165.111 34.6931L164.571 35.5373C163.525 37.0414 162.245 38.3216 160.79 39.3157C158.59 40.6505 156.645 42.453 155.065 44.6217C155.497 43.054 155.677 42.0893 155.966 40.602C156.212 38.1464 156.621 35.7145 157.19 33.3265C157.652 32.0631 158.352 30.9253 159.242 29.9902C159.262 29.9113 159.262 29.8278 159.242 29.749L158.738 29.95C156.208 31.5039 154.255 34.0114 153.229 37.0245C152.562 38.847 152.243 40.8048 152.293 42.7726C152.293 43.4158 152.293 44.0589 152.293 44.7422C152.401 46.1491 152.473 48.4805 152.473 50.2491ZM157.982 38.954C158.702 38.351 161.582 35.8186 162.591 34.6931C163.972 33.161 165.181 31.4467 166.191 29.5882C167.298 27.6698 168.617 25.9142 170.116 24.3627L170.44 24.0411C167.728 24.7413 165.193 26.1153 163.023 28.0608C160.259 31.0472 158.408 34.9285 157.73 39.1549L157.982 38.954ZM200.973 76.015C201.297 75.5327 200.541 75.2111 200.325 76.015C200.109 76.8189 200.685 76.5376 200.973 76.015ZM209.11 55.0325C208.822 55.0325 207.634 56.4796 207.814 56.761C208.341 56.2823 208.781 55.6956 209.11 55.0325ZM209.362 54.7511C209.542 54.7511 210.334 54.3492 210.19 54.2286C210.046 54.108 209.11 53.6256 209.11 53.907C209.11 54.1884 209.182 54.6305 209.362 54.7511ZM223.764 68.7797C223.404 68.7797 223.008 69.3826 223.116 69.3826C223.224 69.3826 223.584 69.6238 223.8 69.5836C224.016 69.5434 224.088 68.7395 223.692 68.7797H223.764ZM218.399 53.6658C218.075 53.6658 218.003 54.0678 218.399 54.2286C218.519 54.285 218.648 54.314 218.778 54.314C218.907 54.314 219.036 54.285 219.156 54.2286C219.372 54.2286 219.624 53.907 219.588 53.5452C219.552 53.1835 219.084 52.7011 219.336 52.4599C219.588 52.2188 219.876 52.4599 220.128 52.4599C220.38 52.4599 220.38 52.1384 220.416 51.857C220.452 51.5756 220.416 50.8923 219.84 50.8923C219.264 50.8923 218.976 51.857 218.94 51.8972C218.851 52.156 218.851 52.4423 218.94 52.7011C219.192 53.1031 219.12 53.6658 218.399 53.6658ZM225.601 53.6658C225.601 53.8668 226.141 55.3943 226.213 55.7962C226.285 56.1982 226.213 57.4443 226.681 57.3237C227.149 57.2031 226.681 56.4796 226.681 56.1982C226.579 55.3226 226.398 54.4607 226.141 53.6256C226.141 53.1031 225.313 51.4148 225.097 51.4952C224.88 51.5756 225.421 52.7011 225.529 53.1031C225.637 53.5051 225.601 53.505 225.601 53.7462V53.6658ZM222 33.3667C222.36 33.3667 222.36 32.8039 221.784 32.2814C221.208 31.7588 220.416 32 220.596 32.2814C221.032 32.7163 221.502 33.1064 222 33.4471V33.3667ZM205.977 28.2617C205.293 27.7392 205.977 27.0558 205.329 26.5735C205.03 26.4574 204.708 26.4335 204.398 26.5043C204.087 26.575 203.8 26.7378 203.565 26.9754C203.097 27.6588 204.177 27.4176 204.573 27.6186C204.969 27.8196 205.941 28.7441 206.121 28.5431C206.302 28.3421 205.905 28.4225 205.797 28.3421L205.977 28.2617ZM210.226 25.8499C209.29 25.3676 205.761 25.4078 205.833 26.4529C205.905 27.498 207.886 26.4529 208.39 26.4529C208.894 26.4529 210.874 26.4127 210.046 25.9303L210.226 25.8499ZM199.892 71.8346C199.892 71.6336 199.532 71.8346 199.604 71.8346C199.676 71.8346 199.604 72.1964 199.604 72.3973C199.723 72.516 199.877 72.5816 200.037 72.5816C200.196 72.5816 200.35 72.516 200.469 72.3973C200.524 72.3245 200.555 72.2319 200.555 72.1361C200.555 72.0403 200.524 71.9476 200.469 71.8748C200.469 71.8748 199.748 72.116 199.712 71.915L199.892 71.8346ZM198.524 63.9963C198.812 63.9963 198.812 63.7551 198.956 63.7551C199.1 63.7551 198.956 63.9963 199.28 63.9963C199.604 63.9963 199.892 63.1522 198.956 63.1522C198.02 63.1522 198.092 64.0365 198.344 64.0767L198.524 63.9963ZM199.748 64.8404C199.172 64.8404 199.28 65.0816 198.92 65.1218C198.56 65.162 198.92 64.5992 198.56 64.3581C198.2 64.1169 198.092 64.8002 198.056 65.162C198.02 65.5238 198.056 65.9257 198.272 65.9257C198.488 65.9257 199.856 66.1267 200.289 66.2473C200.721 66.3679 200.109 65.162 199.568 64.9208L199.748 64.8404ZM193.195 72.8797C193.195 72.8797 193.519 72.1964 193.411 71.8346C193.303 71.4728 192.691 71.8346 192.655 71.8346C192.619 71.8346 192.835 72.7993 193.195 72.7993V72.8797ZM184.626 72.8797C184.626 72.5581 184.626 71.6336 184.626 71.4728C184.626 71.312 184.626 71.4728 184.302 71.4728C183.978 71.4728 184.302 71.0709 184.086 71.0709C183.87 71.0709 184.086 71.7944 184.086 72.1964C184.086 72.5983 184.41 73.2013 184.446 72.7591L184.626 72.8797ZM184.41 70.6689C184.607 69.9654 184.716 69.235 184.734 68.4983C184.734 67.9355 184.41 67.3728 184.338 67.413C184.266 67.4532 184.338 67.815 184.338 68.3777C184.3 68.9936 184.191 69.6015 184.014 70.1865C183.87 70.3071 184.086 70.8699 184.23 70.5483L184.41 70.6689ZM161.366 65.162C161.389 54.6759 164.667 44.5228 170.642 36.4316C176.617 28.3404 184.919 22.8112 194.135 20.7856C203.351 18.76 212.911 20.3631 221.187 25.3221C229.464 30.281 235.944 38.2892 239.526 47.983C243.108 57.6768 243.57 68.4569 240.832 78.4878C238.094 88.5187 232.327 97.1803 224.512 102.998C216.697 108.815 207.318 111.428 197.971 110.393C188.624 109.358 179.887 104.737 173.248 97.3191C169.463 93.1014 166.464 88.0879 164.424 82.5683C162.385 77.0488 161.345 71.1327 161.366 65.162ZM173.896 95.2289L178.289 90.2847C177.416 89.2688 176.598 88.195 175.841 87.069C175.486 86.9265 175.174 86.6759 174.941 86.3455C174.544 85.8229 174.364 85.0592 174.184 85.0592C174.004 85.0592 174.184 85.5415 173.752 85.6219C173.32 85.7023 172.42 84.1749 172.132 83.6523C171.844 83.1298 171.196 82.969 170.908 82.366C170.62 81.7631 170.62 81.6425 170.44 81.9641C170.26 82.2856 169.108 80.7984 168.82 80.919C168.532 81.0396 168.82 81.4013 168.82 81.5219C168.82 81.6425 167.667 80.1954 167.343 80.3562C167.019 80.517 166.947 80.7582 166.947 81.1601C166.947 81.5621 167.415 82.768 167.235 82.8484C166.556 81.7797 166.134 80.5339 166.011 79.2307C166.011 79.2307 166.011 79.2307 166.299 79.2307C166.587 79.2307 166.299 78.869 166.083 78.467C165.867 78.065 165.687 78.065 165.651 77.5827C165.615 77.1003 166.227 77.3013 166.191 77.1003C166.186 76.8629 166.264 76.6326 166.407 76.4572C166.407 76.4572 167.055 76.4572 167.127 75.8542C167.199 75.2513 167.451 75.8542 167.523 76.216C167.595 76.5778 168.64 76.7787 168.676 76.4572C168.712 76.1356 168.243 76.2562 168.243 76.0954C168.243 75.9346 168.856 76.0954 169.252 76.0954C169.648 76.0954 169.72 75.814 170.116 76.0954C170.429 76.293 170.77 76.429 171.124 76.4974C170.122 73.1504 169.576 69.6546 169.504 66.1267H163.275C163.407 76.9981 167.199 87.4159 173.896 95.3093V95.2289ZM199.568 55.0325C199.568 55.0325 199.136 55.5953 198.92 56.0374C199.635 55.7191 200.387 55.5161 201.153 55.4345V48.4805C197.789 48.6492 194.571 50.0635 192.007 52.5001L196.436 57.4443C196.93 56.9698 197.474 56.5648 198.056 56.2384L198.524 55.9972C198.848 55.5953 199.496 54.9521 199.568 55.0325ZM184.158 81.2405C184.176 81.3738 184.176 81.5093 184.158 81.6425L185.13 82.9288L189.595 77.7837C187.471 75.1709 186.06 71.9356 185.526 68.4581C185.478 68.4944 185.422 68.5138 185.364 68.5138C185.306 68.5138 185.25 68.4944 185.202 68.4581C185.202 68.4581 185.202 68.0963 185.418 67.9355C185.381 67.4004 185.381 66.8629 185.418 66.3277H182.394C182.394 66.8502 182.61 67.614 182.394 67.8953C182.178 68.1767 181.782 67.8953 181.566 67.8953C181.35 67.8953 180.881 68.7395 181.026 69.262C181.154 69.5771 181.216 69.921 181.206 70.2669C181.206 70.6287 180.989 70.8699 181.494 71.1914C181.998 71.513 182.682 72.4777 182.61 72.6787C182.538 72.8797 182.07 72.4777 182.034 72.8797C181.998 73.2817 182.718 72.8797 182.682 73.6836C182.653 74.1651 182.727 74.6472 182.898 75.0905C183.228 75.7007 183.426 76.3892 183.474 77.1003C183.33 77.7877 183.33 78.5031 183.474 79.1905C183.69 79.7131 184.158 80.2356 184.158 81.2405ZM180.557 69.5032C180.161 69.0208 180.773 67.7346 180.881 67.4532C180.989 67.1718 181.53 66.8502 181.674 66.4081H179.081C179.12 67.9232 179.289 69.4308 179.585 70.9101C180.161 70.9905 181.386 70.3875 180.521 69.1816L180.557 69.5032ZM178.793 88.0739L179.513 88.9582L180.017 88.3955C179.549 88.1141 179.117 87.9131 178.793 88.0739ZM189.595 52.7011L185.202 47.7972C181.441 52.2819 179.266 58.1379 179.081 64.2777H182.142C182.682 63.3532 182.502 62.6296 182.682 62.1071C182.852 61.5932 183.082 61.1067 183.366 60.66C183.582 60.258 183.834 59.7757 184.302 59.7757C185.31 59.7757 185.562 59.2129 186.21 58.8512C186.858 58.4894 187.975 58.3688 187.831 57.9668C187.687 57.5649 185.49 58.6904 185.454 58.5296C185.418 58.3688 186.174 58.208 186.498 57.8865H186.678C187.408 56.0019 188.391 54.2531 189.595 52.7011ZM188.803 57.3237C189.132 57.1299 189.493 57.0122 189.865 56.9777C190.236 56.9432 190.609 56.9925 190.963 57.1227C191.526 57.4801 192.056 57.8974 192.547 58.3688C192.547 58.3688 192.547 58.3688 193.375 58.1276C194.204 57.8865 193.7 58.409 194.096 58.4492H194.492L190.639 54.1482C189.928 55.1393 189.301 56.2024 188.767 57.3237H188.803ZM184.482 62.5894C184.239 62.5573 183.993 62.6003 183.771 62.7137C183.549 62.8271 183.359 63.0066 183.222 63.2326C183.098 63.5672 183.098 63.9431 183.222 64.2777H185.454C185.419 63.8096 185.419 63.3389 185.454 62.8708C185.135 62.7128 184.794 62.6176 184.446 62.5894H184.482ZM190.819 76.417L195.248 71.513C194.891 71.0026 194.566 70.4654 194.276 69.9052V70.1865C194.276 70.4277 194.276 71.1513 194.024 71.4728C193.772 71.7944 192.727 70.5483 192.439 70.4679C192.372 70.4412 192.3 70.4336 192.23 70.4455C192.159 70.4575 192.092 70.4888 192.035 70.5365C191.978 70.5843 191.933 70.647 191.903 70.7192C191.873 70.7914 191.859 70.8708 191.863 70.9503C191.863 71.312 191.863 71.4728 191.863 71.513C191.863 71.5532 190.999 70.9905 191.323 70.8297C191.647 70.6689 191.323 70.3071 191.035 70.1463C190.747 69.9856 190.315 70.1463 190.099 69.8248C189.903 69.5386 189.642 69.3165 189.343 69.1816C189.076 69.0708 188.782 69.0708 188.515 69.1816C188.299 69.1816 188.047 69.1816 187.903 68.8601L187.615 68.5385C188.028 71.4313 189.121 74.1499 190.783 76.417H190.819ZM195.248 67.9355C195.282 67.9177 195.318 67.9084 195.356 67.9084C195.393 67.9084 195.43 67.9177 195.464 67.9355H196.004C196.08 67.9403 196.155 67.9246 196.224 67.8895C196.293 67.8545 196.353 67.8013 196.4 67.7346C196.407 67.6409 196.407 67.5468 196.4 67.4532C196.4 67.4532 196.4 67.4532 196.112 67.4532H195.68C195.641 67.4745 195.597 67.4856 195.554 67.4856C195.51 67.4856 195.467 67.4745 195.428 67.4532C195.298 67.2854 195.138 67.1486 194.96 67.0512H194.708H194.312C194.194 67.0245 194.072 67.0327 193.959 67.075C193.845 67.1174 193.743 67.1923 193.663 67.2924C193.649 67.4528 193.649 67.6144 193.663 67.7748C193.159 69.262 192.547 68.8199 192.655 69.3424C192.763 69.865 192.655 69.3424 193.015 69.3424H194.6H194.816C194.933 69.3021 195.058 69.3021 195.176 69.3424C195.302 69.4058 195.414 69.5023 195.5 69.6238C195.333 69.3894 195.22 69.1134 195.169 68.8193C195.119 68.5252 195.134 68.222 195.212 67.9355H195.248ZM201.189 46.5511V39.5971C195.691 39.8148 190.449 42.2414 186.426 46.4305L190.819 51.3344C193.661 48.4474 197.315 46.756 201.153 46.5511H201.189ZM201.189 37.6275V30.6735C193.585 30.9103 186.327 34.2743 180.809 40.1197L185.166 45.0638C189.509 40.4998 195.192 37.8565 201.153 37.6275H201.189ZM179.585 41.6471C174.349 47.8073 171.336 55.9095 171.124 64.3983H177.353C177.558 57.7435 179.926 51.3996 184.014 46.5511L179.585 41.6471ZM171.124 66.3277C171.221 69.8465 171.791 73.3289 172.816 76.6582C173.458 76.7269 174.105 76.602 174.688 76.2964C175.301 75.7738 174.688 73.8846 175.121 73.1209C175.553 72.3571 176.777 69.8248 177.137 69.7846C177.497 69.7444 177.425 70.0659 177.605 70.1061C177.412 68.8567 177.292 67.5945 177.245 66.3277H171.124ZM201.225 101.861C193.159 101.644 185.455 98.0749 179.621 91.8524L175.193 96.6759C182.198 104.215 191.496 108.522 201.225 108.735V101.861ZM201.225 92.9779C195.747 92.7935 190.483 90.5564 186.282 86.6269L186.534 86.9886C186.822 87.5514 187.831 88.6769 187.182 89.119C186.534 89.5612 185.778 89.119 185.274 89.119C184.77 89.119 183.978 90.0033 183.51 90.1239C183.011 90.2193 182.498 90.1495 182.034 89.923L181.53 89.6014L180.845 90.3651C186.354 96.2267 193.617 99.5934 201.225 99.8113V92.9779ZM201.225 90.5259C200.392 90.7069 199.537 90.7069 198.704 90.5259C198.056 90.0033 197.264 89.521 197.192 89.119C197.12 88.7171 196.184 87.9131 196.184 87.27C196.184 86.6269 197.084 86.3053 196.832 85.5415C196.58 84.7778 197.156 84.2553 198.092 83.7327C195.411 82.9831 192.938 81.5056 190.891 79.4317L186.498 84.3759C190.524 88.5588 195.765 90.9844 201.261 91.2092L201.225 90.5259ZM202.557 81.2405C203.241 81.2405 203.925 80.919 204.537 80.8386C205.149 80.7582 204.537 81.8033 204.897 81.8435C205.257 81.8837 207.274 82.2856 207.418 81.8435C207.562 81.4013 207.418 81.2405 207.958 81.1601C208.683 81.0988 209.385 80.8511 210.01 80.4366C210.226 80.2356 210.73 80.1552 210.874 79.8739C211.018 79.5925 210.874 78.1454 210.298 78.3866C209.722 78.6278 209.794 78.869 209.29 79.1503C208.786 79.4317 208.534 79.5121 208.21 79.1503C207.886 78.7886 208.21 78.3866 208.606 78.1052C209.002 77.8238 209.326 77.1807 209.722 77.1807C210.118 77.1807 210.73 76.7386 210.658 76.2964C210.586 75.8542 209.578 76.2964 209.362 76.2964C209.146 76.2964 209.362 75.7336 209.362 75.6532C209.362 75.5729 208.894 76.1758 209.182 76.4572C209.47 76.7385 208.93 77.0601 208.534 76.7385C208.138 76.417 208.102 77.8238 208.138 78.065C208.174 78.3062 208.606 78.065 208.138 78.668C207.67 79.2709 207.742 78.668 207.49 78.9895C207.238 79.3111 207.166 79.3513 207.49 79.7533C207.814 80.1552 207.49 80.5974 207.238 80.0748C206.986 79.5523 206.518 79.8337 206.41 79.4317C206.302 79.0297 205.725 79.0699 205.077 78.668C204.429 78.266 204.609 79.2307 205.473 79.4719C206.338 79.7131 206.157 79.7533 205.941 80.2356C205.725 80.718 205.941 79.9141 204.969 79.6729C203.997 79.4317 204.393 79.1905 203.961 79.1905C203.529 79.1905 203.637 79.6327 203.205 79.5121C202.773 79.3915 202.773 79.9543 202.449 80.115C202.125 80.2758 202.089 81.12 201.693 81.3209C201.297 81.5219 199.857 81.3209 199.929 80.7582C200.001 80.1954 199.928 79.5925 200.361 79.3513C200.793 79.1101 201.153 79.7533 201.585 79.3513C202.017 78.9494 201.909 78.5876 201.585 78.266C201.261 77.9444 201.189 77.9846 201.189 77.864C201.189 77.7435 201.837 77.6631 202.161 77.4219C202.447 77.11 202.712 76.774 202.953 76.417C203.133 76.417 203.493 76.417 203.493 76.0954C203.493 75.7738 203.277 75.5729 203.493 75.3719C203.709 75.1709 203.493 74.9699 203.709 75.0101C203.925 75.0503 204.069 75.4925 203.961 75.6131C203.853 75.7336 203.961 75.9748 204.249 75.8944C204.621 75.6986 205.006 75.5373 205.401 75.4121C205.689 75.4121 205.401 74.5679 205.401 74.4474C205.401 74.3268 205.401 74.4474 205.689 74.4474C205.977 74.4474 205.473 74.2062 205.689 73.9248C205.905 73.6434 206.518 73.5228 206.302 73.3621C206.085 73.2013 205.797 73.6434 205.653 73.7238C205.509 73.8042 205.077 73.4424 205.077 73.0807C205.077 72.7189 205.293 72.3169 205.077 72.1964C204.861 72.0758 204.789 72.7591 204.753 72.8797C204.671 73.0459 204.628 73.2326 204.628 73.4223C204.628 73.6121 204.671 73.7988 204.753 73.965C204.933 74.2866 204.753 75.3317 204.537 75.4523C204.321 75.5729 204.105 74.9297 203.961 74.6483C203.961 74.6483 203.961 74.6483 203.961 74.8493V75.1709C203.946 75.2278 203.918 75.2796 203.88 75.3217C203.842 75.3638 203.796 75.3948 203.745 75.4121H202.413C202.44 75.6235 202.501 75.8278 202.593 76.015C202.593 76.3768 203.097 76.6984 203.025 76.9395C202.953 77.1807 201.981 77.4621 201.873 77.2611C201.765 77.0601 202.125 76.5376 202.125 76.2964C202.125 76.0552 201.873 75.6533 201.909 75.3719C200.177 75.1923 198.534 74.4361 197.192 73.2013L192.763 78.1052C194.998 80.2999 197.769 81.6996 200.721 82.1249C201.117 81.8435 201.297 81.3209 201.657 81.6023C202.017 81.8837 202.089 81.2405 202.485 81.2405H202.557ZM202.953 92.9779V99.9318C205.388 99.8509 207.805 99.446 210.154 98.726C209.686 98.2436 209.47 97.5201 208.858 97.2789C208.246 97.0377 207.526 96.1936 208.102 95.1485C208.678 94.1034 208.102 94.3848 207.922 93.7818C207.581 93.2139 207.09 92.7784 206.518 92.5357C205.314 92.7442 204.099 92.8516 202.881 92.8573L202.953 92.9779ZM205.941 90.6867C205.803 90.6057 205.648 90.5634 205.491 90.5634C205.335 90.5634 205.18 90.6057 205.041 90.6867C204.033 90.9681 204.357 90.0837 202.953 90.3249V91.2092C203.938 91.076 204.913 90.861 205.869 90.5661L205.941 90.6867ZM229.021 96.7965L224.592 91.8524C222.303 94.2842 219.707 96.3291 216.887 97.922C215.979 98.6446 215 99.2514 213.971 99.7309C213.612 99.9425 213.221 100.079 212.819 100.133C212.701 100.173 212.576 100.173 212.458 100.133C209.392 101.284 206.187 101.907 202.953 101.982V108.936C212.691 108.643 221.973 104.266 228.949 96.6759L229.021 96.7965ZM220.308 46.5511C221.343 47.791 222.271 49.1368 223.08 50.5707C223.08 50.5707 223.08 50.3295 223.368 50.5707C223.656 50.8119 223.152 51.3746 223.8 51.2139C224.448 51.0531 224.124 51.6962 223.8 52.0178C224.016 52.4197 224.196 52.8217 224.376 53.2237C224.566 53.304 224.72 53.4622 224.808 53.6658C224.966 54.1766 225.087 54.7009 225.169 55.2335C225.493 56.1178 225.745 57.0021 225.997 57.9267C226.321 57.6051 226.681 57.9267 226.717 58.2884C226.739 58.8214 226.627 59.3505 226.393 59.8159C226.689 61.3359 226.858 62.8835 226.897 64.4385H233.126C233.02 59.9473 232.127 55.5228 230.497 51.4148C230.3 51.4967 230.127 51.6354 229.993 51.8168C229.669 52.259 229.165 51.8168 228.877 51.3344C228.589 50.8521 227.149 48.5609 226.573 48.4805C225.997 48.4001 225.781 47.7168 225.277 47.5962C224.772 47.4756 224.196 47.1942 224.124 46.6315C224.124 46.3863 224.037 46.1511 223.882 45.9777C223.727 45.8044 223.516 45.707 223.296 45.707C222.735 45.6198 222.222 45.305 221.856 44.8226L220.344 46.4707L220.236 46.4305L220.308 46.5511ZM224.232 88.7171L224.592 89.119C229.837 82.9486 232.85 74.8305 233.054 66.3277H226.825C226.615 72.9856 224.263 79.3362 220.2 84.2151L222.432 86.7072C222.521 86.2435 222.521 85.7641 222.432 85.3004C222.432 85.0592 223.332 85.0994 223.368 85.5415C223.521 86.0755 223.701 86.5989 223.908 87.1092C224.12 87.5671 224.207 88.0839 224.16 88.5965L224.232 88.7171ZM219.516 93.0583C219.516 93.5004 218.507 94.3044 218.651 94.5857C220.334 93.4159 221.914 92.0699 223.368 90.5661L218.976 85.6621L218.003 86.5867C218.003 87.1494 218.003 87.5916 218.615 87.7925C219.228 87.9935 220.416 88.7975 220.164 89.521C219.79 90.3072 219.382 91.0719 218.94 91.8122C218.615 92.1739 219.66 92.4151 219.444 92.9377L219.516 93.0583ZM220.56 64.3179H225.169C225.204 63.5949 225.204 62.8703 225.169 62.1473V62.3482C224.844 63.1522 224.772 62.6698 224.808 62.3482C224.866 61.9056 224.975 61.4732 225.133 61.062V60.3384C224.973 60.5957 224.747 60.7921 224.484 60.9012C224.268 60.9012 224.088 61.5443 224.016 61.7453C223.944 61.9463 223.44 61.7453 223.008 61.7453C222.576 61.7453 221.532 62.1875 222.072 63.0316C222.612 63.8757 220.704 63.5139 220.488 64.1973L220.56 64.3179ZM218.976 47.9178L214.547 52.8217C215.302 53.7687 215.977 54.7913 216.563 55.8766C217.214 55.9551 217.817 56.2985 218.255 56.8413C218.579 57.3237 219.48 58.2482 219.336 58.6502C219.316 58.799 219.337 58.9508 219.394 59.0866C219.452 59.2225 219.544 59.3363 219.66 59.4139C219.996 59.6551 220.248 59.6551 220.416 59.4139C220.74 58.9316 220.776 58.3286 221.208 57.9267C221.64 57.5247 222.828 58.8512 222.828 59.0923C222.828 59.3335 222.54 59.4139 222.468 59.8561C222.396 60.2982 221.856 61.2228 222.468 61.4237C223.08 61.6247 223.368 61.4237 223.764 60.7806C224.16 60.1374 223.764 60.0169 224.088 59.7355C224.412 59.4541 224.376 59.4943 224.52 59.3737C224.234 58.0013 223.849 56.657 223.368 55.3541C223.247 55.2226 223.098 55.126 222.936 55.0727C222.648 55.0727 222.936 54.6707 222.432 54.5502C221.928 54.4296 221.856 54.2688 221.82 53.4247C221.784 52.5805 222.324 53.6658 222.468 53.4247C221.502 51.385 220.304 49.4934 218.904 47.7972L218.976 47.9178ZM213.611 54.5904C213.433 54.6315 213.249 54.6315 213.071 54.5904L211.63 56.1982C211.918 56.1982 212.206 56.1982 212.567 56.1982C212.927 56.1982 212.783 54.9923 213.359 55.1129C213.935 55.2335 214.115 55.6757 213.611 55.8766C213.107 56.0776 213.611 56.3992 213.215 56.6002C212.819 56.8012 213.575 57.2031 213.575 57.4041C213.575 57.6051 212.963 57.7659 213.863 58.0472C214.763 58.3286 213.863 57.2433 213.863 57.0825C213.863 56.9217 214.511 57.3639 214.655 57.0825L214.871 56.6806C214.492 55.8975 214.045 55.1571 213.539 54.4698L213.611 54.5904ZM211.198 80.2758C211.198 80.5974 210.91 80.2758 210.802 80.2758C211.696 80.9027 212.65 81.4151 213.647 81.8033C214.215 81.948 214.806 81.948 215.375 81.8033C215.987 81.8033 216.167 81.8033 216.455 81.8033C216.743 81.8033 217.139 81.1601 217.355 80.7984C217.617 80.379 217.846 79.9352 218.039 79.4719C218.255 79.2709 218.868 80.8386 218.796 81.8033C218.796 81.8033 218.796 82.0847 218.796 82.2454C222.529 77.7248 224.698 71.8684 224.916 65.7247H220.164C220.456 66.165 220.71 66.6362 220.92 67.1316C221.172 67.6542 221.316 68.5385 221.712 68.5787C222.108 68.6189 223.008 69.262 223.044 69.7444C223.08 70.2267 220.164 71.0709 219.768 70.9101C219.372 70.7493 219.228 70.9101 219.192 71.3522C219.156 71.7944 218.147 71.9954 217.751 72.3571C217.355 72.7189 217.247 73.6032 216.923 74.1258C216.463 74.7607 215.944 75.34 215.375 75.8542C214.655 76.3768 213.359 76.417 213.935 76.7787C214.511 77.1405 215.375 77.1405 215.231 76.7787C215.087 76.417 215.231 76.4572 215.483 76.7787C215.735 77.1003 216.059 76.7787 216.059 76.2964C216.059 75.814 216.059 75.4523 216.239 75.4523C216.419 75.4523 217.103 74.8895 217.319 74.9297C217.535 74.9699 217.895 75.5729 217.643 77.3817C217.442 78.682 216.987 79.917 216.311 80.9994C215.987 81.6023 215.663 80.9994 215.231 80.9994C214.572 80.7683 213.898 80.5936 213.215 80.4768C212.999 80.718 211.198 79.9945 211.198 80.2758ZM240.867 66.2071H234.638C234.419 75.2064 231.226 83.7971 225.673 90.3249L230.101 95.2691C236.856 87.4455 240.725 77.0703 240.939 66.2071H240.867ZM230.065 35.2157L225.601 40.3608C226.269 41.5039 227.054 42.5561 227.941 43.4962C228.373 44.0187 228.877 44.5011 229.273 44.9834C229.669 45.4658 232.19 49.0031 231.686 49.405C233.664 54.0171 234.744 59.045 234.854 64.1571H241.083C240.836 53.3215 236.941 42.9876 230.173 35.2157H230.065ZM202.773 28.7441C207.937 28.8453 213.007 30.3051 217.571 33.0049C217.941 32.9676 218.305 32.8729 218.651 32.7235C219.228 32.4422 220.308 33.0853 220.812 33.4471C221.316 33.8088 221.676 34.2108 222.216 34.5324C222.981 35.05 223.545 35.8667 223.8 36.8236C223.8 37.7883 224.556 37.7481 224.268 38.15C223.98 38.552 224.268 38.3912 224.592 38.5922L228.949 33.7686C221.925 26.237 212.619 21.9321 202.881 21.7097L202.773 28.7441ZM202.773 37.6275C207.885 37.8313 212.816 39.7972 216.887 43.255C216.419 42.6118 215.987 41.9285 215.771 41.6873C215.555 41.4461 213.971 40.6422 214.115 40.401C214.259 40.1599 215.519 41.2854 215.735 41.0844C215.951 40.8834 215.087 39.5167 215.159 39.4765C215.867 40.0256 216.448 40.7561 216.851 41.6069C217.067 41.9687 217.679 41.6069 218.111 42.1295C218.543 42.652 218.543 42.9736 218.868 43.2952C219.192 43.6167 219.66 43.7775 219.228 43.7373C218.796 43.6971 218.94 43.456 218.796 43.7373C218.651 44.0187 218.796 44.3403 219.084 44.8628L221.172 42.5716C220.848 41.8883 220.272 40.9638 219.876 40.8432C219.48 40.7226 219.156 41.1648 218.868 41.4059C218.579 41.6471 218.219 41.7677 218.183 41.4059C218.148 41.0991 218.148 40.7883 218.183 40.4814C218.109 40.2303 218.012 39.9879 217.895 39.7579C217.895 39.1549 217.895 38.4716 217.643 38.0696C217.31 37.558 217.009 37.0208 216.743 36.4618C216.316 35.828 216.009 35.1029 215.843 34.3314C211.773 32.0311 207.297 30.7681 202.737 30.6333L202.773 37.6275ZM202.773 46.5511C206.625 46.74 210.295 48.433 213.143 51.3344L217.535 46.4305C213.513 42.2414 208.271 39.8148 202.773 39.5971V46.5511ZM202.773 55.4345C203.371 55.5063 203.962 55.6409 204.537 55.8364C204.537 55.4345 205.041 55.2335 205.365 54.9923C205.689 54.7511 205.977 54.4296 205.905 54.9923C205.904 55.1948 205.861 55.3943 205.78 55.5755C205.699 55.7567 205.582 55.9147 205.437 56.0374C206.045 56.3493 206.624 56.7262 207.166 57.1629L207.526 57.4845L208.102 56.8012C208.102 56.4394 208.606 55.957 209.182 55.7158L211.126 53.5452C210.838 53.5452 210.478 54.108 210.226 53.9472C209.974 53.7864 211.09 52.6207 211.594 52.8619H211.81L212.062 52.5805C209.503 50.1358 206.282 48.7204 202.917 48.5609L202.773 55.4345ZM201.909 57.3237C201.188 57.325 200.472 57.4469 199.784 57.6855C199.784 57.6855 199.784 57.8864 199.784 57.9668C199.784 58.0472 200.505 57.6855 200.577 58.208C200.649 58.7306 200.001 58.208 200.037 58.61C200.073 59.012 200.541 58.61 200.541 59.0521C200.496 59.4383 200.33 59.7943 200.073 60.0571C199.784 60.258 198.308 60.4992 198.164 60.861C198.04 61.1962 197.87 61.508 197.66 61.7855C197.408 62.1071 196.22 62.8708 196.22 63.0718C196.22 63.2728 196.796 63.0718 196.94 62.7502C197.084 62.4286 197.552 62.4688 197.948 62.2277C198.344 61.9865 198.668 63.0718 197.948 63.112C197.228 63.1522 197.3 64.2375 196.76 64.0365C196.22 63.8355 196.22 63.7149 196.112 64.0365C196.004 64.3581 196.94 64.3581 197.228 64.5992C197.516 64.8404 196.796 65.162 196.796 65.162C196.796 65.162 196.796 65.6042 196.796 65.4836C196.796 65.363 197.444 65.0414 197.588 65.4836C197.732 65.9257 196.58 68.6591 196.22 68.4179C195.86 68.1767 195.824 68.4179 195.644 68.4179C195.888 68.9776 196.191 69.5037 196.544 69.9856C196.796 69.5434 197.192 68.9003 197.336 68.9003C197.48 68.9003 197.336 68.6993 197.588 68.4983C197.84 68.2973 197.984 68.4983 197.984 68.2169C197.984 67.9355 198.704 67.4934 198.776 67.0512C198.848 66.6091 198.56 66.5689 198.776 66.3679C198.992 66.1669 198.992 66.1267 199.136 66.0463C199.28 65.9659 199.604 66.3679 199.676 66.0463C199.748 65.7247 200.289 66.0463 200.649 66.2875C201.009 66.5287 201.153 66.2875 201.333 66.5689C201.513 66.8502 201.333 67.0512 201.333 67.1316C201.333 67.212 201.513 67.1316 201.585 67.1316C201.657 67.1316 200.865 67.8953 200.973 68.1767C200.783 68.9617 200.438 69.6895 199.964 70.3071C199.64 70.6287 199.136 70.3071 198.92 70.3071C198.704 70.3071 198.668 70.5885 198.308 70.5081C198.008 70.4602 197.702 70.5313 197.444 70.7091C198.718 71.9889 200.375 72.6913 202.089 72.6787H203.205C203.434 72.3406 203.572 71.936 203.601 71.513C203.563 71.2737 203.563 71.0288 203.601 70.7895C203.601 70.7895 204.249 69.8248 204.501 69.8248C204.753 69.8248 204.825 70.066 205.113 69.8248C205.401 69.5836 206.049 69.8248 206.049 70.0659C206.049 70.3071 205.329 70.3473 205.365 70.5483C205.401 70.7493 205.905 70.9503 206.085 70.5483C206.171 70.3909 206.217 70.2101 206.217 70.0258C206.217 69.8414 206.171 69.6606 206.085 69.5032C205.869 69.1816 205.869 69.061 206.085 69.1816C206.302 69.3022 206.302 68.3777 206.482 68.0159C206.662 67.6542 206.013 68.0159 205.689 68.0159C205.365 68.0159 205.149 67.3728 205.149 67.1316C205.149 66.8904 205.689 67.7346 205.977 67.7748C206.152 67.7601 206.318 67.6812 206.448 67.5502C206.578 67.4193 206.666 67.2438 206.698 67.0512C206.698 66.7698 206.085 66.7296 205.977 66.3679C205.869 66.0061 206.482 66.3679 206.446 66.1669C206.41 65.9659 206.446 65.564 206.157 65.4032C205.869 65.2424 205.473 63.9963 205.221 63.9159C204.969 63.8355 204.753 64.1973 204.609 64.3179C204.465 64.4385 204.213 64.3179 204.357 64.1169C204.621 63.8702 204.841 63.5702 205.005 63.2326C205.005 62.71 205.761 63.2326 205.653 62.509C205.545 61.7855 204.933 61.8659 205.221 61.5041C205.296 61.4143 205.342 61.2999 205.353 61.1781C205.364 61.0564 205.339 60.934 205.282 60.8295C205.225 60.725 205.139 60.6441 205.037 60.599C204.935 60.5539 204.823 60.5471 204.717 60.5796C204.429 60.5796 204.141 60.1776 204.141 59.7355C204.141 59.2933 203.493 59.5345 203.529 59.2933C203.565 59.0522 202.881 58.7306 202.485 58.7708C201.98 58.6617 201.522 58.364 201.189 57.9267C201.189 57.7257 200.505 57.9266 200.721 57.4041C200.937 56.8815 201.477 57.4041 201.693 57.4041C201.754 57.3185 201.788 57.2122 201.788 57.1026C201.788 56.993 201.754 56.8867 201.693 56.8012L201.909 57.3237ZM175.193 33.849L179.585 38.753C185.436 32.5599 193.129 28.9958 201.189 28.7441V21.7901C191.473 22.0168 182.191 26.3225 175.193 33.849ZM163.167 64.2777H169.396C169.621 55.28 172.814 46.6919 178.361 40.1599L173.968 35.2559C167.2 43.0565 163.317 53.4204 163.095 64.2777H163.167Z" fill="#009EDB"/>
</svg>
