<svg xmlns="http://www.w3.org/2000/svg" width="61" height="60" viewBox="0 0 61 60" fill="none">
<g id="Youtube Searched For">
<path id="Vector" d="M42.7003 35H40.7003L40.0253 34.325C42.4753 31.475 43.9503 27.8 43.9503 23.75C43.9503 14.775 36.6753 7.5 27.7003 7.5C18.7253 7.5 11.4503 15 11.4503 23.75H5.17529L14.7753 33.75L25.1753 23.75H16.4503C16.4503 17.5 21.5003 12.5 27.7003 12.5C33.9003 12.5 38.9503 17.525 38.9503 23.75C38.9503 29.95 33.9003 35 27.7003 35C26.0753 35 24.5503 34.65 23.1503 34.05L19.4503 37.75C21.8753 39.175 24.6753 40 27.7003 40C31.7253 40 35.4003 38.525 38.2503 36.075L38.9253 36.75V38.725L51.4503 51.2L55.1753 47.5L42.7003 35V35Z" fill="#B75400"/>
</g>
</svg>
