<svg xmlns="http://www.w3.org/2000/svg" width="46" height="40" viewBox="0 0 46 40" fill="none">
  <path d="M7.66671 9.99992H3.83337V33.3332C3.83337 35.1666 5.55837 36.6666 7.66671 36.6666H34.5V33.3332H7.66671V9.99992ZM38.3334 3.33325H15.3334C13.225 3.33325 11.5 4.83325 11.5 6.66658V26.6666C11.5 28.4999 13.225 29.9999 15.3334 29.9999H38.3334C40.4417 29.9999 42.1667 28.4999 42.1667 26.6666V6.66658C42.1667 4.83325 40.4417 3.33325 38.3334 3.33325ZM36.4167 18.3332H17.25V14.9999H36.4167V18.3332ZM28.75 24.9999H17.25V21.6666H28.75V24.9999ZM36.4167 11.6666H17.25V8.33325H36.4167V11.6666Z" fill="#B75400"/>
</svg>
