<svg xmlns="http://www.w3.org/2000/svg" width="60" height="60" viewBox="0 0 60 60" fill="none">
<g id="Laptop Mac">
<path id="Vector" d="M50 45C52.75 45 54.975 42.75 54.975 40L55 12.5C55 9.75 52.75 7.5 50 7.5H10C7.25 7.5 5 9.75 5 12.5V40C5 42.75 7.25 45 10 45H0C0 47.75 2.25 50 5 50H55C57.75 50 60 47.75 60 45H50ZM10 12.5H50V40H10V12.5ZM30 47.5C28.625 47.5 27.5 46.375 27.5 45C27.5 43.625 28.625 42.5 30 42.5C31.375 42.5 32.5 43.625 32.5 45C32.5 46.375 31.375 47.5 30 47.5Z" fill="#B75400"/>
</g>
</svg>
