<svg xmlns="http://www.w3.org/2000/svg" width="71" height="41" viewBox="0 0 71 41" fill="none">
<path d="M32.4517 20.9956C23.939 20.9956 17.0132 27.9208 17.0132 36.4335C17.0132 37.0128 17.4826 37.483 18.0626 37.483H46.8401C47.4194 37.483 47.8896 37.0128 47.8896 36.4335C47.8896 27.9208 40.9637 20.9956 32.4517 20.9956Z" fill="#B75400"/>
<path d="M32.1999 19.6096C37.1975 19.6096 41.2632 15.5439 41.2632 10.5462C41.2632 5.5486 37.1968 1.48291 32.1999 1.48291C27.2023 1.48291 23.1366 5.5486 23.1366 10.5462C23.1366 15.5439 27.2023 19.6096 32.1999 19.6096Z" fill="#B75400"/>
<path d="M11.9337 26.7865C13.6555 26.7865 15.3466 27.2454 16.8243 28.1144C17.3238 28.4097 17.9675 28.241 18.2607 27.7422C18.5545 27.2426 18.388 26.599 17.8877 26.3051C16.0882 25.2465 14.0292 24.6875 11.9337 24.6875C5.45699 24.6875 0.187897 29.9566 0.187897 36.4333C0.187897 37.0126 0.657365 37.4828 1.23738 37.4828H14.5392C15.1192 37.4828 15.5887 37.0126 15.5887 36.4333C15.5887 35.854 15.1192 35.3838 14.5392 35.3838H2.34353C2.86827 30.5562 6.96895 26.7865 11.9337 26.7865Z" fill="#B75400"/>
<path d="M11.7476 23.0119C15.6104 23.0119 18.7539 19.8691 18.7539 16.0056C18.7539 12.1421 15.6111 8.99927 11.7476 8.99927C7.88409 8.99927 4.74124 12.1421 4.74124 16.0056C4.74124 19.8684 7.88409 23.0119 11.7476 23.0119Z" fill="#B75400"/>
<path d="M53.0545 24.6875C50.9597 24.6875 48.9006 25.2472 47.1004 26.3051C46.6002 26.599 46.4336 27.2419 46.7275 27.7415C47.0214 28.2424 47.6664 28.4083 48.1639 28.1144C49.6423 27.2454 51.3333 26.7865 53.0545 26.7865C58.0192 26.7865 62.1199 30.5562 62.6446 35.3838H50.4511C49.8717 35.3838 49.4016 35.854 49.4016 36.4333C49.4016 37.0126 49.8717 37.4828 50.4511 37.4828H63.7508C64.3301 37.4828 64.8003 37.0126 64.8003 36.4333C64.8003 29.9566 59.5312 24.6875 53.0545 24.6875Z" fill="#B75400"/>
<path d="M53.2413 23.0119C57.1041 23.0119 60.2476 19.8691 60.2476 16.0056C60.2476 12.1421 57.1048 8.99927 53.2413 8.99927C49.3778 8.99927 46.2342 12.1421 46.2342 16.0056C46.2349 19.8684 49.3778 23.0119 53.2413 23.0119Z" fill="#B75400"/>
</svg>
