<svg xmlns="http://www.w3.org/2000/svg" width="448" height="272" viewBox="0 0 448 272" fill="none">
<rect width="448" height="272" fill="white"/>
<g clip-path="url(#clip0_749_21563)">
<path d="M90.8589 78H6.86996C3.06956 78 0 81.0696 0 84.87V145.15C0 172.133 21.8669 194 48.8498 194C75.8327 194 97.6996 172.133 97.6996 145.15V84.87C97.6996 81.0696 94.63 78 90.8296 78H90.8589ZM35.8992 136.088C23.6794 136.088 13.7692 126.177 13.7692 113.958C13.7692 101.738 23.6794 91.8276 35.8992 91.8276C48.1189 91.8276 58.0292 101.738 58.0292 113.958C58.0292 126.177 48.1189 136.088 35.8992 136.088Z" fill="#060645"/>
<path d="M119.391 127.873H127.869V92.0323H138.335V84.5192H108.75V92.0323H119.391V127.873Z" fill="#060645"/>
<path d="M238.724 128.019C250.242 128.019 259.626 118.255 259.626 106.269C259.626 94.2833 250.242 84.5192 238.724 84.5192C227.206 84.5192 217.822 94.2833 217.822 106.269C217.822 118.255 227.206 128.019 238.724 128.019ZM238.724 92.9678C245.594 92.9678 251.177 98.9315 251.177 106.269C251.177 113.607 245.594 119.571 238.724 119.571C231.854 119.571 226.27 113.607 226.27 106.269C226.27 98.9315 231.854 92.9678 238.724 92.9678Z" fill="#060645"/>
<path d="M188.529 148.717H180.373V179.88H188.529V148.717Z" fill="#060645"/>
<path d="M184.466 136.468C181.747 136.468 179.525 138.69 179.525 141.408C179.525 144.127 181.747 146.349 184.466 146.349C187.184 146.349 189.406 144.127 189.406 141.408C189.406 138.69 187.184 136.468 184.466 136.468Z" fill="#060645"/>
<path d="M306.429 148.717H298.273V179.88H306.429V148.717Z" fill="#060645"/>
<path d="M302.366 136.468C299.647 136.468 297.425 138.69 297.425 141.408C297.425 144.127 299.647 146.349 302.366 146.349C305.085 146.349 307.306 144.127 307.306 141.408C307.306 138.69 305.085 136.468 302.366 136.468Z" fill="#060645"/>
<path d="M280.557 155.85C281.142 155.382 281.99 155.148 283.072 155.148C284.446 155.148 285.703 155.528 286.843 156.259C287.954 156.99 288.743 157.984 289.211 159.241L289.415 159.767L295.788 156.756L295.613 156.318C294.677 153.774 293.04 151.786 290.819 150.383C288.597 148.98 285.995 148.278 283.13 148.278C280.908 148.278 278.92 148.688 277.225 149.477C275.5 150.266 274.126 151.406 273.132 152.839C272.138 154.271 271.641 155.996 271.641 157.896C271.641 160.059 272.343 161.96 273.717 163.538C275.061 165.088 277.079 166.257 279.68 167.017L284.533 168.391C285.118 168.567 285.673 168.771 286.17 169.034C286.638 169.268 286.989 169.561 287.252 169.882C287.486 170.174 287.603 170.554 287.603 171.022C287.603 171.812 287.31 172.425 286.667 172.922C285.995 173.419 285.059 173.682 283.861 173.682C282.311 173.682 280.85 173.244 279.593 172.367C278.306 171.49 277.283 170.233 276.582 168.654L276.377 168.187L270.15 171.168L270.296 171.607C271.203 174.296 272.898 176.46 275.325 178.009C277.751 179.558 280.616 180.348 283.861 180.348C286.17 180.348 288.246 179.939 289.971 179.149C291.725 178.36 293.128 177.22 294.122 175.787C295.116 174.355 295.642 172.659 295.642 170.788C295.642 168.567 294.941 166.637 293.508 165.088C292.134 163.568 290.146 162.427 287.632 161.667L282.896 160.264C282.224 160.059 281.639 159.826 281.142 159.592C280.704 159.387 280.353 159.095 280.09 158.773C279.856 158.452 279.739 158.101 279.739 157.662C279.739 156.931 280.002 156.376 280.587 155.938V155.85H280.557Z" fill="#060645"/>
<path d="M166.399 101.884C165.405 100.13 164.031 98.7268 162.277 97.7621C160.523 96.7682 158.506 96.2712 156.226 96.2712C153.946 96.2712 152.104 96.7682 150.467 97.7329C149.765 98.1421 149.063 98.8145 148.479 99.4869V84.5192H140.615V127.844H148.508V109.982C148.508 108.725 148.742 107.292 149.239 106.386C149.736 105.48 150.408 104.778 151.285 104.281C152.162 103.784 153.156 103.521 154.267 103.521C155.378 103.521 156.43 103.784 157.278 104.281C158.126 104.778 158.798 105.509 159.295 106.386C159.792 107.292 160.026 108.403 160.026 109.66V127.844H167.919V107.965C167.919 105.684 167.422 103.609 166.428 101.855H166.399V101.884Z" fill="#060645"/>
<path d="M139.592 162.223C139.592 167.514 135.265 171.841 129.974 171.841C124.682 171.841 120.356 167.514 120.356 162.223V136.468H111.907V162.223C111.907 172.192 120.005 180.289 129.974 180.289C139.943 180.289 148.04 172.192 148.04 162.223V136.468H139.592V162.223Z" fill="#060645"/>
<path d="M200.427 112.993C200.544 112.204 200.544 111.794 200.544 111.268C200.544 109.222 200.194 107.263 199.521 105.48C198.849 103.697 197.855 102.089 196.598 100.715C195.311 99.3115 193.762 98.2299 191.92 97.4405C190.108 96.6512 187.974 96.242 185.577 96.242C182.741 96.242 180.11 96.9436 177.8 98.3468C175.491 99.7208 173.649 101.65 172.334 104.018C171.018 106.386 170.346 109.163 170.346 112.204C170.346 115.244 171.018 117.875 172.304 120.301C173.62 122.728 175.491 124.687 177.83 126.119C180.198 127.551 182.975 128.253 186.132 128.253C188.208 128.253 190.166 127.931 191.92 127.288C193.674 126.645 195.195 125.768 196.481 124.628C197.767 123.488 198.732 122.172 199.316 120.711L199.433 120.418L193.031 117.261L192.885 117.524C192.242 118.635 191.365 119.541 190.254 120.214C189.143 120.886 187.798 121.208 186.19 121.208C184.583 121.208 183.179 120.828 181.981 120.097C180.782 119.366 179.847 118.314 179.233 116.969C178.911 116.238 178.677 115.449 178.56 114.601H200.018C200.018 114.601 200.252 114.279 200.427 112.964V112.993ZM181.718 103.989C182.829 103.258 184.144 102.907 185.577 102.907C187.009 102.907 188.383 103.287 189.465 104.018C190.517 104.749 191.306 105.743 191.774 107C191.95 107.468 192.067 107.965 192.125 108.491H178.736C178.853 108.023 178.999 107.555 179.174 107.146C179.759 105.772 180.607 104.691 181.718 103.989Z" fill="#060645"/>
<path d="M325.724 112.993C325.841 112.204 325.841 111.794 325.841 111.268C325.841 109.222 325.49 107.263 324.818 105.48C324.145 103.697 323.151 102.089 321.894 100.715C320.608 99.3115 319.058 98.2299 317.217 97.4405C315.404 96.6512 313.27 96.242 310.873 96.242C308.037 96.242 305.406 96.9436 303.097 98.3468C300.787 99.7208 298.946 101.65 297.63 104.018C296.314 106.386 295.642 109.163 295.642 112.204C295.642 115.244 296.314 117.875 297.601 120.301C298.916 122.728 300.787 124.687 303.126 126.119C305.494 127.551 308.271 128.253 311.428 128.253C313.504 128.253 315.463 127.931 317.217 127.288C318.971 126.645 320.491 125.768 321.777 124.628C323.063 123.488 324.028 122.172 324.613 120.711L324.73 120.418L318.328 117.261L318.181 117.524C317.538 118.635 316.661 119.541 315.55 120.214C314.439 120.886 313.095 121.208 311.487 121.208C309.879 121.208 308.476 120.828 307.277 120.097C306.079 119.366 305.143 118.314 304.529 116.969C304.208 116.238 303.974 115.449 303.857 114.601H325.314C325.314 114.601 325.548 114.279 325.724 112.964V112.993ZM307.014 103.989C308.125 103.258 309.44 102.907 310.873 102.907C312.305 102.907 313.679 103.287 314.761 104.018C315.813 104.749 316.603 105.743 317.071 107C317.246 107.468 317.363 107.965 317.421 108.491H304.032C304.149 108.023 304.295 107.555 304.471 107.146C305.055 105.772 305.903 104.691 307.014 103.989Z" fill="#060645"/>
<path d="M249.102 165.029C249.219 164.24 249.219 163.831 249.219 163.304C249.219 161.258 248.868 159.299 248.196 157.516C247.523 155.733 246.529 154.125 245.272 152.751C243.986 151.348 242.436 150.266 240.595 149.477C238.782 148.688 236.648 148.278 234.251 148.278C231.415 148.278 228.784 148.98 226.475 150.383C224.165 151.757 222.324 153.687 221.008 156.054C219.693 158.422 219.02 161.2 219.02 164.24C219.02 167.28 219.693 169.911 220.979 172.338C222.294 174.764 224.165 176.723 226.504 178.155C228.872 179.588 231.649 180.289 234.806 180.289C236.882 180.289 238.841 179.968 240.595 179.325C242.349 178.681 243.869 177.804 245.155 176.664C246.442 175.524 247.406 174.209 247.991 172.747L248.108 172.455L241.706 169.297L241.559 169.561C240.916 170.671 240.039 171.578 238.928 172.25C237.818 172.922 236.473 173.244 234.865 173.244C233.257 173.244 231.854 172.864 230.655 172.133C229.457 171.402 228.521 170.35 227.907 169.005C227.586 168.274 227.352 167.485 227.235 166.637H248.693C248.693 166.637 248.926 166.316 249.102 165V165.029ZM230.392 156.025C231.503 155.294 232.819 154.944 234.251 154.944C235.683 154.944 237.057 155.324 238.139 156.054C239.192 156.785 239.981 157.779 240.449 159.036C240.624 159.504 240.741 160.001 240.799 160.527H227.41C227.527 160.059 227.673 159.592 227.849 159.182C228.433 157.808 229.281 156.727 230.392 156.025Z" fill="#060645"/>
<path d="M323.999 173.069C322.83 173.069 321.865 172.893 321.134 172.513C320.432 172.162 319.877 171.665 319.555 170.993C319.205 170.321 319.029 169.473 319.029 168.508V155.148H323.97V148.717H319.029V141.262H311.37V148.717H308.914V155.148H311.37V168.917C311.37 172.513 311.867 175.349 313.855 177.337C315.843 179.325 318.678 180.319 322.274 180.319C322.859 180.319 323.502 180.319 324.204 180.202C324.905 180.114 325.519 180.055 326.045 179.968H326.308V172.864L324.876 173.01C324.525 173.01 324.233 173.069 323.97 173.069H323.999Z" fill="#060645"/>
<path d="M221.096 148.717H212.209L206.274 167.105C206.128 167.543 206.04 168.011 205.982 168.45L205.865 169.473L205.748 168.45C205.689 167.982 205.602 167.543 205.456 167.105L199.521 148.717H190.634L202.357 179.88H209.461L221.183 148.717H221.096Z" fill="#060645"/>
<path d="M347.152 148.717L340.838 167.105C340.691 167.543 340.604 168.011 340.545 168.45L340.428 169.473L340.311 168.45C340.253 167.982 340.165 167.543 340.019 167.105L334.435 148.717H326.396L334.465 177.512C334.874 179.003 335.371 179.646 336.394 179.88L331.307 193.269H339.727L356.069 148.717H347.152Z" fill="#060645"/>
<path d="M335.342 98.9022C334.874 97.4698 333.822 96.7097 332.155 96.7097H327.566V127.873H335.459V109.69C335.459 108.432 335.693 107.322 336.19 106.415C336.687 105.509 337.359 104.807 338.236 104.31C339.113 103.814 340.107 103.55 341.218 103.55C342.329 103.55 343.381 103.814 344.229 104.31C345.077 104.807 345.749 105.538 346.246 106.415C346.743 107.322 346.977 108.432 346.977 109.69V127.873H354.87V107.994C354.87 105.714 354.373 103.638 353.379 101.884C352.385 100.13 351.011 98.7268 349.257 97.7621C347.503 96.7681 345.486 96.2712 343.206 96.2712C340.925 96.2712 339.084 96.7681 337.447 97.7329C336.716 98.1714 336.043 98.7268 335.488 99.3407C335.488 99.3407 335.429 99.0776 335.371 98.9022H335.342Z" fill="#060645"/>
<path d="M278.745 96.2712C275.529 96.2712 272.05 97.119 269.741 99.3407C269.741 99.3407 269.682 99.0776 269.624 98.9022C269.156 97.4698 268.104 96.7097 266.437 96.7097H261.848V141.262H269.741V125.271C270.501 125.944 271.349 126.499 272.284 126.967C274.155 127.844 276.202 128.282 278.423 128.282C281.376 128.282 284.036 127.581 286.375 126.177C288.684 124.774 290.555 122.845 291.9 120.389C293.245 117.963 293.917 115.244 293.917 112.291C293.917 109.339 293.216 106.591 291.871 104.194C289.123 99.3992 284.387 96.3004 278.745 96.3004V96.2712ZM284.855 116.764C284.182 118.05 283.188 119.103 281.961 119.834C280.733 120.565 279.3 120.945 277.722 120.945C276.143 120.945 274.828 120.565 273.629 119.834C272.43 119.103 271.466 118.05 270.764 116.764C270.063 115.449 269.712 113.928 269.712 112.233C269.712 110.537 270.063 109.046 270.764 107.731C271.436 106.415 272.401 105.363 273.629 104.632C274.828 103.901 276.231 103.521 277.722 103.521C279.213 103.521 280.733 103.901 281.961 104.661C283.188 105.421 284.153 106.445 284.855 107.731C285.556 109.017 285.907 110.537 285.907 112.233C285.907 113.928 285.556 115.449 284.855 116.764Z" fill="#060645"/>
<path d="M158.301 150.909C157.834 149.477 156.781 148.717 155.115 148.717H150.525V179.88H158.418V161.697C158.418 160.44 158.652 159.329 159.149 158.422C159.646 157.516 160.319 156.815 161.196 156.318C162.073 155.821 163.067 155.557 164.177 155.557C165.288 155.557 166.341 155.821 167.188 156.318C168.036 156.815 168.709 157.545 169.206 158.422C169.703 159.329 169.936 160.44 169.936 161.697V179.88H177.83V160.001C177.83 157.721 177.333 155.645 176.339 153.891C175.345 152.137 173.971 150.734 172.217 149.769C170.463 148.775 168.446 148.278 166.165 148.278C163.885 148.278 162.043 148.775 160.406 149.74C159.675 150.178 159.003 150.734 158.448 151.348C158.448 151.348 158.389 151.085 158.331 150.909H158.301Z" fill="#060645"/>
<path d="M259.626 151.348C259.626 151.348 259.568 151.085 259.509 150.909C259.041 149.477 257.989 148.717 256.323 148.717H251.733V179.88H259.626V162.807C259.626 160.118 260.942 158.305 261.76 157.458C262.959 156.23 264.771 155.557 266.701 155.557C268.63 155.557 269.712 155.908 269.712 155.908V148.6C269.712 148.6 268.952 148.249 267.548 148.249C265.94 148.249 264.713 148.366 263.251 148.892C261.789 149.418 260.561 150.412 259.597 151.348H259.626Z" fill="#060645"/>
</g>
<defs>
<clipPath id="clip0_749_21563">
<rect width="356.069" height="116" fill="white" transform="translate(0 78)"/>
</clipPath>
</defs>
</svg>
