<svg width="400" height="366" viewBox="0 0 400 366" fill="none" xmlns="http://www.w3.org/2000/svg">
<path d="M202.11 246.4C192.276 224.077 193.73 187.514 198.288 184.47C203.302 181.13 211.242 198.27 219.191 193.256C227.139 188.241 232.568 177.367 225.879 160.228C219.191 143.088 210.414 154.376 204.139 158.536C197.865 162.697 192.851 158.959 194.111 143.908C195.033 132.806 199.362 112.402 201.577 102.475C202.575 102.906 203.573 103.32 204.554 103.802C184.911 94.6025 163.171 91.6768 153.98 94.6025C144.788 97.5281 146.454 98.3653 151.046 109.231C160.643 131.901 124.309 139.672 113.84 122.21C107.575 111.759 116.791 105.891 114.28 98.3653C111.769 90.8396 65.372 99.6167 59.5206 102.965C59.5206 102.965 70.8006 136.788 69.1348 148.948C67.469 161.107 61.6092 166.51 52.8321 157.725C44.0551 148.939 32.7666 156.879 32.3438 171.524C31.9211 186.17 34.4324 197.856 44.4694 194.516C54.5064 191.176 62.4463 179.05 65.7863 194.516C69.1264 209.981 63.2496 230.03 59.935 244.261C59.935 244.261 86.2746 255.549 98.3917 254.712C110.509 253.875 118.043 253.461 114.28 245.935C110.517 238.409 104.243 233.395 108.843 225.032C113.443 216.67 131.834 217.507 141.448 219.595C151.063 221.684 155.248 228.795 152.323 236.735C149.397 244.675 144.374 252.624 153.574 254.289C162.241 255.871 184.285 252.243 206 245.174C204.714 245.588 203.378 245.994 202.11 246.4Z" stroke="#212121" stroke-miterlimit="10"/>
<path d="M209.991 243.838C208.706 244.278 207.412 244.684 206.127 245.132C207.412 244.709 208.706 244.278 209.991 243.838Z" stroke="#212121" stroke-miterlimit="10"/>
<path d="M362.575 153.953C354.635 153.953 354.212 160.228 345.849 158.976C337.487 157.725 336.658 138.488 345.435 104.631C345.435 104.631 335.821 111.734 314.081 112.157C292.341 112.579 283.564 110.06 289.001 102.12C294.438 94.1798 298.616 87.9056 294.016 81.6399C289.416 75.3742 267.262 76.2028 260.193 81.6399C253.124 87.0769 258.104 93.3426 263.118 100.445C268.133 107.548 262.273 111.734 253.918 112.157C245.564 112.579 224.239 113.002 204.588 103.794C203.607 103.329 202.609 102.898 201.611 102.466C199.396 112.419 195.066 132.823 194.145 143.9C192.885 158.951 197.899 162.714 204.173 158.528C210.447 154.342 219.224 143.062 225.913 160.219C232.601 177.376 227.164 188.225 219.224 193.247C211.285 198.27 203.302 181.13 198.305 184.47C193.747 187.514 192.293 224.077 202.127 246.4C204.757 245.555 207.386 244.709 210.008 243.864C232.999 235.915 255.99 232.152 260.176 237.589C264.361 243.026 262.712 242.189 257.25 250.552C251.788 258.915 252.227 266.018 261.427 270.195C270.627 274.372 293.195 273.577 295.25 263.929C297.305 254.281 285.636 248.878 291.073 239.678C296.51 230.478 344.589 243.838 344.589 243.838C344.589 243.838 333.724 207.047 337.901 194.922C342.078 182.796 345.435 185.756 352.124 190.322C358.812 194.888 367.589 194.507 370.938 181.13C374.286 167.753 370.515 153.953 362.575 153.953Z" stroke="#212121" stroke-miterlimit="10"/>
<path d="M337.718 65.2916C348.36 60.2678 352.915 47.5681 347.891 36.9259C342.867 26.2837 330.168 21.729 319.525 26.7527C308.883 31.7765 304.328 44.4762 309.352 55.1184C314.376 65.7606 327.076 70.3153 337.718 65.2916Z" fill="#B75400" stroke="#212121" stroke-miterlimit="10"/>
<path d="M330.415 63.4844C340.04 62.4965 347.042 53.8925 346.054 44.2668C345.067 34.6412 336.463 27.6389 326.837 28.6269C317.211 29.6148 310.209 38.2188 311.197 47.8444C312.185 57.4701 320.789 64.4723 330.415 63.4844Z" fill="white" stroke="#212121" stroke-miterlimit="10"/>
<path d="M334.105 57.5759C340.469 54.5488 343.174 46.936 340.147 40.5723C337.12 34.2086 329.507 31.5038 323.143 34.5309C316.779 37.5581 314.075 45.1709 317.102 51.5346C320.129 57.8983 327.742 60.6031 334.105 57.5759Z" fill="#B75400" stroke="#212121" stroke-miterlimit="10"/>
<path d="M336.674 46.0412C336.674 44.4475 336.202 42.8895 335.316 41.5643C334.431 40.2391 333.172 39.2062 331.7 38.5963C330.227 37.9864 328.607 37.8268 327.044 38.1378C325.481 38.4487 324.045 39.2162 322.918 40.3431C321.791 41.4701 321.023 42.906 320.712 44.4691C320.402 46.0323 320.561 47.6526 321.171 49.125C321.781 50.5975 322.814 51.856 324.139 52.7415C325.464 53.627 327.022 54.0996 328.616 54.0996C329.674 54.1007 330.723 53.893 331.701 53.4884C332.679 53.0839 333.568 52.4903 334.317 51.7418C335.065 50.9933 335.659 50.1045 336.063 49.1263C336.468 48.1482 336.675 47.0998 336.674 46.0412Z" fill="white" stroke="#212121" stroke-miterlimit="10"/>
<path d="M332.354 46.0413C332.355 45.3018 332.137 44.5783 331.728 43.9626C331.318 43.3469 330.735 42.8665 330.052 42.5823C329.37 42.2982 328.618 42.2229 327.892 42.3662C327.167 42.5095 326.5 42.8647 325.976 43.3871C325.453 43.9094 325.096 44.5754 324.951 45.3006C324.806 46.0258 324.88 46.7777 325.162 47.4612C325.445 48.1446 325.924 48.7288 326.539 49.1398C327.154 49.5509 327.877 49.7703 328.616 49.7703C329.606 49.7703 330.555 49.3777 331.256 48.6786C331.957 47.9795 332.351 47.0311 332.354 46.0413Z" fill="#B75400" stroke="#212121" stroke-miterlimit="10"/>
<path d="M330.163 40.1984L328.624 46.0413L334.137 47.2505L330.163 40.1984Z" fill="#212121" stroke="#212121" stroke-miterlimit="10"/>
<path d="M332.514 43.4539L356.757 30.246" stroke="#212121" stroke-miterlimit="10"/>
<path d="M348.978 34.5923L349.341 28.259L360.731 21.748V28.9777L348.978 34.5923Z" fill="#212121" stroke="#212121" stroke-miterlimit="10"/>
<path d="M365.618 32.4191L360.63 28.7408L348.927 34.8882L354.567 38.1521L365.618 32.4191Z" fill="#212121" stroke="#212121" stroke-miterlimit="10"/>
<path d="M216.915 47.3347H208.443V67.5101H216.915V47.3347Z" fill="#B75400" stroke="#212121" stroke-miterlimit="10"/>
<path d="M229.405 41.2212H220.932V67.5101H229.405V41.2212Z" fill="#B75400" stroke="#212121" stroke-miterlimit="10"/>
<path d="M241.894 47.3347H233.421V67.5101H241.894V47.3347Z" fill="#B75400" stroke="#212121" stroke-miterlimit="10"/>
<path d="M254.391 39.8938H245.919V67.5103H254.391V39.8938Z" fill="#B75400" stroke="#212121" stroke-miterlimit="10"/>
<path d="M266.881 29.7891H258.408V67.5102H266.881V29.7891Z" fill="#B75400" stroke="#212121" stroke-miterlimit="10"/>
<path d="M255.634 13.8078L258.94 15.2199L236.457 36.7989L225.718 30.9391L208.705 41.2805V44.4007L225.785 34.017L236.896 40.0798L260.784 17.1478L262.061 20.5047L266.787 9.5376L255.634 13.8078Z" fill="#212121" stroke="#212121" stroke-linecap="round" stroke-linejoin="round"/>
<path d="M156.99 66.6636C168.447 63.9743 175.555 52.5064 172.866 41.0495C170.176 29.5925 158.708 22.485 147.251 25.1743C135.794 27.8636 128.687 39.3314 131.376 50.7884C134.066 62.2453 145.533 69.3529 156.99 66.6636Z" fill="white" stroke="#212121" stroke-miterlimit="10"/>
<path d="M156.333 64.391C166.531 62.0627 172.911 51.9079 170.583 41.7095C168.255 31.5111 158.1 25.1311 147.902 27.4594C137.703 29.7876 131.323 39.9425 133.652 50.1408C135.98 60.3392 146.135 66.7192 156.333 64.391Z" fill="#B75400" stroke="#212121" stroke-miterlimit="10"/>
<path d="M154.725 62.9137C164.052 61.4682 170.441 52.7356 168.995 43.4089C167.55 34.0822 158.817 27.6933 149.49 29.1388C140.164 30.5843 133.775 39.3169 135.22 48.6436C136.666 57.9702 145.398 64.3592 154.725 62.9137Z" fill="white" stroke="#212121" stroke-miterlimit="10"/>
<path d="M151.857 60.6613V57.947C151.014 57.9738 150.175 57.8159 149.399 57.4844C148.624 57.1528 147.93 56.6556 147.367 56.0276C146.369 54.8212 145.834 53.0201 145.76 50.6243L149.878 49.9225C149.892 50.7456 149.994 51.5649 150.183 52.3662C150.293 52.9226 150.56 53.4359 150.952 53.846C151.123 54.008 151.325 54.1341 151.546 54.2168C151.767 54.2996 152.002 54.3374 152.237 54.3279C152.477 54.3555 152.72 54.3155 152.938 54.2124C153.156 54.1093 153.341 53.9472 153.472 53.7445C153.704 53.3351 153.821 52.8705 153.81 52.4C153.849 51.504 153.61 50.618 153.125 49.8633C152.589 49.1069 151.955 48.4245 151.24 47.8339L148.762 45.7115C148.222 45.2103 147.717 44.6735 147.248 44.1049C146.793 43.545 146.433 42.9136 146.183 42.2362C145.903 41.4379 145.769 40.596 145.786 39.7502C145.746 38.9763 145.864 38.2024 146.133 37.4756C146.402 36.7488 146.816 36.0842 147.35 35.5224C148.496 34.473 149.982 33.8725 151.536 33.8312V31.1592H152.939V33.7636C153.845 33.7775 154.733 34.0219 155.518 34.4738C156.15 34.8748 156.668 35.4309 157.023 36.0889C157.379 36.7376 157.636 37.4359 157.784 38.1605C157.935 38.8795 158.031 39.6087 158.072 40.3421L153.903 40.9509C153.894 40.3103 153.834 39.6714 153.726 39.0399C153.666 38.5679 153.486 38.1193 153.201 37.7378C153.056 37.5772 152.874 37.4541 152.671 37.3791C152.468 37.304 152.249 37.2791 152.034 37.3065C151.79 37.3028 151.549 37.3595 151.332 37.4716C151.115 37.5838 150.93 37.7478 150.791 37.9491C150.512 38.3511 150.365 38.8297 150.369 39.319C150.331 40.09 150.557 40.8509 151.011 41.4752C151.456 42.0407 151.945 42.5695 152.474 43.0564L154.892 45.1535C155.534 45.7388 156.131 46.372 156.677 47.0475C157.222 47.7351 157.663 48.4985 157.987 49.3137C158.333 50.2203 158.503 51.1846 158.486 52.1548C158.499 53.1302 158.282 54.0949 157.852 54.9706C157.435 55.7952 156.804 56.4931 156.026 56.9915C155.187 57.5278 154.228 57.8474 153.235 57.9216V60.6613H151.857Z" fill="#212121"/>
<path d="M83.0611 29.426H43.4966V66.6229H83.0611V29.426Z" fill="white" stroke="#212121" stroke-miterlimit="10"/>
<path d="M83.0611 29.426H43.4966V38.9895H83.0611V29.426Z" fill="#B75400" stroke="#212121" stroke-linecap="round" stroke-linejoin="round"/>
<path d="M51.4449 44.2998H46.7097V49.035H51.4449V44.2998Z" fill="#B75400" stroke="#212121" stroke-linecap="round" stroke-linejoin="round"/>
<path d="M58.5478 44.2998H53.8126V49.035H58.5478V44.2998Z" fill="#B75400" stroke="#212121" stroke-linecap="round" stroke-linejoin="round"/>
<path d="M65.6423 44.2998H60.907V49.035H65.6423V44.2998Z" fill="#B75400" stroke="#212121" stroke-linecap="round" stroke-linejoin="round"/>
<path d="M72.7452 44.2998H68.01V49.035H72.7452V44.2998Z" fill="#B75400" stroke="#212121" stroke-linecap="round" stroke-linejoin="round"/>
<path d="M79.8477 44.2998H75.1125V49.035H79.8477V44.2998Z" fill="#B75400" stroke="#212121" stroke-linecap="round" stroke-linejoin="round"/>
<path d="M51.4449 51.7407H46.7097V56.4759H51.4449V51.7407Z" fill="#B75400" stroke="#212121" stroke-linecap="round" stroke-linejoin="round"/>
<path d="M58.5478 51.7407H53.8126V56.4759H58.5478V51.7407Z" fill="#B75400" stroke="#212121" stroke-linecap="round" stroke-linejoin="round"/>
<path d="M65.6423 51.7407H60.907V56.4759H65.6423V51.7407Z" fill="#B75400" stroke="#212121" stroke-linecap="round" stroke-linejoin="round"/>
<path d="M72.7452 51.7407H68.01V56.4759H72.7452V51.7407Z" fill="#B75400" stroke="#212121" stroke-linecap="round" stroke-linejoin="round"/>
<path d="M79.8477 51.7407H75.1125V56.4759H79.8477V51.7407Z" fill="#B75400" stroke="#212121" stroke-linecap="round" stroke-linejoin="round"/>
<path d="M51.4449 59.1818H46.7097V63.917H51.4449V59.1818Z" fill="#B75400" stroke="#212121" stroke-linecap="round" stroke-linejoin="round"/>
<path d="M58.5478 59.1818H53.8126V63.917H58.5478V59.1818Z" fill="#B75400" stroke="#212121" stroke-linecap="round" stroke-linejoin="round"/>
<path d="M65.6423 59.1818H60.907V63.917H65.6423V59.1818Z" fill="#B75400" stroke="#212121" stroke-linecap="round" stroke-linejoin="round"/>
<path d="M72.7452 59.1818H68.01V63.917H72.7452V59.1818Z" fill="#B75400" stroke="#212121" stroke-linecap="round" stroke-linejoin="round"/>
<path d="M79.8477 59.1818H75.1125V63.917H79.8477V59.1818Z" fill="#B75400" stroke="#212121" stroke-linecap="round" stroke-linejoin="round"/>
<path d="M52.2905 23.3379H48.9082V32.4701H52.2905V23.3379Z" fill="#212121"/>
<path d="M60.7464 23.3379H57.3641V32.4701H60.7464V23.3379Z" fill="#212121"/>
<path d="M69.1937 23.3379H65.8114V32.4701H69.1937V23.3379Z" fill="#212121"/>
<path d="M77.6496 23.3379H74.2673V32.4701H77.6496V23.3379Z" fill="#212121"/>
<path d="M9.09011 307.282C10.925 308.085 15.415 307.984 15.415 307.984C15.415 307.984 14.4511 305.05 14.3665 304.872C13.3772 302.809 10.2655 299.41 7.72873 299.748C7.30927 299.817 6.909 299.973 6.55399 300.207C6.19898 300.441 5.89719 300.747 5.66825 301.105C5.43932 301.463 5.28838 301.865 5.22527 302.286C5.16215 302.706 5.18827 303.135 5.30193 303.544C5.72472 305.295 7.52579 306.605 9.09011 307.282Z" fill="#B75400"/>
<path d="M10.6374 320.295C12.5399 320.566 16.5564 319.407 16.8693 319.314C17.5263 321.607 18.3371 323.853 19.2961 326.037C19.8457 327.314 20.4461 328.573 21.0549 329.85C20.6913 329.309 20.3615 328.836 20.3023 328.776C18.8141 327.043 14.9075 324.548 12.5568 325.589C12.17 325.764 11.8246 326.019 11.5432 326.338C11.2617 326.656 11.0507 327.03 10.9238 327.436C10.7969 327.841 10.757 328.269 10.8067 328.691C10.8564 329.113 10.9947 329.519 11.2124 329.884C12.0579 331.465 14.1634 332.252 15.8546 332.497C17.5457 332.742 21.0041 331.829 21.9089 331.567C22.1457 332.049 22.3824 332.539 22.6276 333.021C23.7861 335.33 24.953 337.63 26.0099 339.921C26.3904 340.724 26.7371 341.536 27.0838 342.348C26.754 341.866 26.4835 341.502 26.4327 341.418C24.9361 339.727 21.0295 337.232 18.6788 338.23C18.294 338.409 17.9511 338.667 17.6722 338.987C17.3932 339.307 17.1844 339.682 17.0593 340.087C16.9342 340.493 16.8956 340.92 16.9459 341.341C16.9961 341.763 17.1342 342.169 17.3512 342.534C18.1968 344.115 20.3108 344.893 21.9935 345.138C23.6762 345.383 26.8132 344.555 27.9125 344.293C28.2423 345.138 28.572 345.984 28.8595 346.829C29.0371 347.396 29.2569 347.937 29.4007 348.521C29.5444 349.104 29.722 349.654 29.8742 350.212C30.1363 351.302 30.4154 352.427 30.6437 353.501C30.8128 354.245 30.9566 354.964 31.1003 355.674C30.7282 354.871 29.9757 353.307 29.8996 353.18C28.682 351.243 25.1982 348.225 22.7206 348.85C22.3187 348.968 21.9454 349.167 21.6242 349.436C21.303 349.704 21.0408 350.036 20.8542 350.411C20.6675 350.786 20.5605 351.196 20.5397 351.614C20.519 352.032 20.585 352.45 20.7335 352.841C21.3508 354.533 23.2703 355.632 24.9614 356.131C26.754 356.672 30.7282 356.173 31.2271 356.131C31.4639 357.323 31.6837 358.481 31.8782 359.572C32.301 361.999 32.6223 364.164 32.8676 365.999H34.5587C34.2628 364.096 33.8822 361.838 33.3749 359.302C33.1381 358.092 32.8591 356.807 32.5293 355.488C33.728 355.009 34.897 354.458 36.03 353.839C37.3406 355.26 40.6891 356.917 41.1035 357.129C40.6468 358.253 40.1902 359.344 39.7421 360.359C38.8119 362.498 37.9325 364.392 37.1546 365.999H38.9726C39.6406 364.51 40.3763 362.819 41.1373 360.925C41.6108 359.784 42.0843 358.558 42.5663 357.298C43.0483 357.399 46.9802 358.194 48.8151 357.78C50.5063 357.408 52.4934 356.469 53.2459 354.82C53.4328 354.438 53.5371 354.02 53.5521 353.595C53.5671 353.169 53.4924 352.745 53.3329 352.351C53.1734 351.956 52.9327 351.599 52.6263 351.303C52.32 351.008 51.9549 350.78 51.5548 350.634C49.128 349.789 45.4328 352.579 44.0714 354.414C43.9953 354.524 43.2258 355.792 42.8031 356.604C42.9975 356.088 43.192 355.59 43.3781 355.057C43.767 354 44.1222 352.934 44.5111 351.793L45.0185 350.102C45.196 349.535 45.3144 348.926 45.4751 348.326C45.8049 346.948 46.067 345.527 46.3207 344.098C47.2508 344.436 50.5485 345.586 52.2397 345.46C53.9308 345.333 56.0786 344.715 57.0595 343.202C57.3048 342.855 57.474 342.459 57.5559 342.042C57.6378 341.625 57.6306 341.195 57.5348 340.78C57.439 340.366 57.2568 339.977 57 339.638C56.7432 339.299 56.4177 339.018 56.0448 338.813C53.7702 337.646 49.6945 339.803 48.0794 341.418C47.978 341.519 46.9464 342.804 46.3883 343.523C46.5236 342.678 46.6673 341.832 46.7773 340.919C47.0901 338.382 47.3269 335.803 47.6228 333.233C47.6989 332.446 47.7835 331.66 47.8681 330.873C48.1978 331 52.0959 332.446 54.0069 332.319C55.6981 332.192 57.8374 331.575 58.8267 330.062C59.0707 329.714 59.2388 329.319 59.32 328.902C59.4012 328.485 59.3937 328.055 59.298 327.641C59.2023 327.227 59.0205 326.838 58.7645 326.499C58.5085 326.16 58.1839 325.879 57.812 325.673C55.5374 324.498 51.4618 326.654 49.8382 328.269C49.7199 328.387 48.2401 330.248 47.885 330.738C48.0625 329.005 48.2655 327.288 48.5276 325.597C48.8754 323.313 49.3668 321.054 49.9989 318.832C50.1511 318.892 54.2268 320.422 56.1716 320.287C57.8628 320.168 60.0105 319.543 60.9914 318.029C61.2354 317.681 61.4035 317.286 61.4847 316.869C61.5658 316.452 61.5583 316.023 61.4626 315.609C61.3669 315.195 61.1852 314.805 60.9291 314.466C60.6731 314.127 60.3486 313.846 59.9767 313.641C57.7021 312.465 53.6264 314.63 52.0114 316.236C51.8845 316.363 50.3202 318.359 50.0243 318.773C50.0243 318.646 50.0919 318.511 50.1257 318.384C50.8261 316.177 51.7232 314.038 52.8062 311.992C53.3812 310.85 54.0069 309.793 54.6327 308.787C55.3599 309.151 58.6914 310.766 60.4756 310.842C62.2597 310.918 64.3652 310.52 65.549 309.151C65.8307 308.832 66.0418 308.457 66.1685 308.051C66.2952 307.645 66.3348 307.217 66.2845 306.795C66.2342 306.372 66.0952 305.965 65.8766 305.601C65.6581 305.236 65.3649 304.921 65.0163 304.677C62.8855 303.257 58.5984 304.965 56.8142 306.369C56.7128 306.445 55.8165 307.341 55.1738 308.001C55.4613 307.552 55.7488 307.079 56.0194 306.648C57.0848 305.041 58.1672 303.629 59.1311 302.42C59.6892 301.718 60.205 301.101 60.6954 300.517C61.5917 300.517 65.2108 300.39 66.792 299.672C68.3733 298.953 70.1067 297.6 70.4787 295.833C70.5812 295.42 70.5953 294.99 70.5203 294.571C70.4453 294.152 70.2829 293.753 70.0435 293.402C69.8041 293.05 69.4932 292.752 69.1311 292.529C68.769 292.305 68.3638 292.16 67.942 292.104C65.4053 291.833 62.3781 295.317 61.448 297.406C61.3719 297.583 60.4418 300.551 60.484 300.551H60.4756C59.9936 301.101 59.4778 301.693 58.9366 302.352C57.9389 303.57 56.8312 304.965 55.7234 306.58C54.4896 308.283 53.3601 310.059 52.3411 311.899C51.202 313.946 50.2484 316.091 49.4916 318.308V318.393C49.4916 317.64 49.4916 315.543 49.4916 315.382C49.1956 313.116 47.2931 308.914 44.7817 308.449C44.3616 308.383 43.9323 308.406 43.5219 308.518C43.1114 308.629 42.729 308.825 42.3995 309.094C42.0701 309.363 41.8009 309.698 41.6097 310.078C41.4184 310.458 41.3093 310.874 41.2895 311.298C41.1457 313.099 42.4479 314.9 43.7163 316.034C45.1538 317.319 49.1364 318.57 49.4577 318.655C48.7395 320.931 48.1745 323.253 47.7666 325.605C47.5214 326.975 47.3184 328.362 47.1324 329.749C47.1324 329.106 47.1324 328.523 47.1324 328.447C46.8365 326.18 44.9339 321.978 42.4226 321.513C42.0031 321.447 41.5745 321.47 41.1646 321.581C40.7548 321.692 40.3727 321.887 40.0434 322.155C39.7141 322.423 39.4448 322.757 39.253 323.136C39.0612 323.515 38.9513 323.93 38.9303 324.354C38.7866 326.155 40.0888 327.956 41.3571 329.098C42.6255 330.239 46.0247 331.372 46.921 331.634L46.7181 333.241C46.4137 335.778 46.1177 338.365 45.7541 340.851C45.6273 341.697 45.4666 342.593 45.306 343.464C45.306 342.889 45.306 342.399 45.306 342.331C45.01 340.065 43.1159 335.854 40.5961 335.389C40.1762 335.324 39.7474 335.349 39.3375 335.461C38.9276 335.572 38.5457 335.769 38.2166 336.037C37.8874 336.306 37.6183 336.641 37.4266 337.02C37.235 337.399 37.125 337.814 37.1039 338.238C36.9601 340.039 38.2623 341.841 39.5391 342.974C40.816 344.107 43.8685 345.147 44.9339 345.51C44.7479 346.356 44.5619 347.269 44.342 348.123C44.1814 348.69 44.063 349.256 43.8685 349.814C43.674 350.372 43.5049 350.947 43.3273 351.505C42.9384 352.562 42.5494 353.653 42.152 354.676L41.3064 356.74C41.4417 355.894 41.6784 354.144 41.6784 353.991C41.6475 351.984 41.1063 350.016 40.1057 348.275C40.1225 348.053 40.1225 347.83 40.1057 347.607C40.0475 347.189 39.9026 346.787 39.6803 346.428C39.4579 346.068 39.163 345.759 38.8143 345.521C38.4657 345.282 38.0711 345.119 37.6557 345.041C37.2403 344.964 36.8133 344.974 36.4021 345.071C33.933 345.73 32.3602 350.068 32.2418 352.351C32.2418 352.486 32.3264 353.958 32.394 354.888C32.2757 354.347 32.1573 353.831 32.022 353.273C31.7598 352.182 31.4724 351.1 31.1764 349.933C31.0073 349.375 30.8297 348.808 30.6606 348.242C30.4915 347.675 30.2632 347.092 30.0602 346.508C29.5783 345.172 29.0117 343.845 28.4198 342.517C29.3753 342.289 32.7661 341.426 34.119 340.378C35.4719 339.329 36.9094 337.638 36.9009 335.837C36.9117 335.412 36.8331 334.989 36.6702 334.597C36.5072 334.204 36.2636 333.85 35.9551 333.557C35.6466 333.265 35.2801 333.04 34.8793 332.898C34.4786 332.756 34.0524 332.7 33.6286 332.734C31.0918 333.013 28.8764 337.063 28.4198 339.304C28.4198 339.439 28.2423 341.08 28.1746 341.984C27.811 341.189 27.4474 340.395 27.0585 339.6C25.9169 337.317 24.6993 335.034 23.4901 332.751L22.3909 330.654C22.7376 330.569 26.7794 329.63 28.3099 328.464C29.6713 327.423 31.1003 325.724 31.0918 323.923C31.1026 323.498 31.024 323.075 30.8611 322.683C30.6981 322.29 30.4545 321.936 30.146 321.643C29.8375 321.351 29.471 321.126 29.0702 320.984C28.6694 320.842 28.2433 320.786 27.8195 320.82C25.2827 321.099 23.0673 325.149 22.6107 327.39C22.6107 327.559 22.3571 329.926 22.3401 330.527C21.4946 328.979 20.7505 327.44 20.0402 325.885C19.0526 323.793 18.2051 321.637 17.5035 319.433C17.6641 319.433 21.892 318.435 23.4225 317.243C24.7754 316.203 26.2129 314.503 26.196 312.702C26.208 312.277 26.1305 311.855 25.9685 311.462C25.8065 311.07 25.5637 310.715 25.2559 310.423C24.948 310.13 24.582 309.905 24.1816 309.763C23.7813 309.621 23.3555 309.565 22.932 309.599C20.3953 309.878 18.1799 313.928 17.7148 316.16C17.7148 316.338 17.4527 318.883 17.4443 319.348L17.309 318.959C16.6804 316.732 16.2475 314.455 16.0152 312.152C15.8715 310.884 15.8123 309.658 15.77 308.474C16.6156 308.373 20.26 307.882 21.7821 306.961C23.3041 306.039 24.8515 304.542 25.0375 302.733C25.0959 302.312 25.0649 301.883 24.9466 301.475C24.8284 301.066 24.6254 300.688 24.351 300.363C24.0766 300.038 23.7369 299.775 23.354 299.59C22.9711 299.406 22.5536 299.304 22.1287 299.291C19.592 299.291 16.9369 303.071 16.2097 305.21C16.2097 305.329 15.9138 306.572 15.7447 307.485C15.7447 306.944 15.7447 306.394 15.7447 305.878C15.7447 303.942 15.8715 302.166 15.9899 300.602C16.066 299.756 16.1505 298.911 16.2435 298.158C16.9792 297.651 19.9387 295.562 20.8519 294.066C21.7652 292.569 22.467 290.506 21.799 288.831C21.6554 288.433 21.4295 288.069 21.1361 287.764C20.8427 287.458 20.4882 287.218 20.0959 287.058C19.7035 286.899 19.2819 286.824 18.8586 286.838C18.4353 286.852 18.0196 286.955 17.6387 287.14C15.3641 288.316 14.7638 292.89 15.102 295.139C15.102 295.334 15.9983 298.327 16.0322 298.302H16.0829C15.9814 299.021 15.8799 299.799 15.7954 300.644C15.6347 302.217 15.4741 303.984 15.4318 305.929C15.3602 308.021 15.4082 310.116 15.5755 312.203C15.761 314.538 16.1514 316.853 16.7424 319.12V319.204C16.3366 318.57 15.1528 316.845 15.0513 316.718C13.5546 315.027 9.64806 312.533 7.29736 313.531C6.93673 313.713 6.61619 313.965 6.35465 314.273C6.09311 314.581 5.89584 314.938 5.77449 315.324C5.65313 315.709 5.61014 316.115 5.64804 316.517C5.68594 316.919 5.80397 317.31 5.99517 317.666C6.86612 319.264 8.94623 320.042 10.6374 320.295Z" fill="#B75400"/>
<path d="M54.5059 308.271C54.5059 308.271 55.3515 305.286 55.3515 305.092C55.6728 302.834 54.9456 298.277 52.6457 297.16C52.2581 296.985 51.8379 296.894 51.4126 296.892C50.9873 296.891 50.5664 296.979 50.1776 297.151C49.7888 297.324 49.4408 297.576 49.1565 297.893C48.8722 298.209 48.6579 298.582 48.5277 298.987C47.9104 300.678 48.6884 302.767 49.6185 304.196C50.7008 305.878 54.4975 308.271 54.5059 308.271Z" fill="#B75400"/>
<path d="M321.2 307.282C323.035 308.085 327.525 307.984 327.525 307.984C327.525 307.984 326.561 305.05 326.477 304.872C325.487 302.809 322.376 299.41 319.839 299.748C319.42 299.817 319.019 299.973 318.664 300.207C318.309 300.441 318.007 300.747 317.779 301.105C317.55 301.463 317.399 301.865 317.336 302.286C317.272 302.706 317.299 303.135 317.412 303.544C317.835 305.295 319.636 306.605 321.2 307.282Z" fill="#B75400"/>
<path d="M322.748 320.295C324.65 320.566 328.667 319.407 328.98 319.314C329.64 321.606 330.451 323.852 331.406 326.037C331.956 327.314 332.556 328.573 333.165 329.85C332.801 329.309 332.472 328.836 332.413 328.776C330.924 327.043 327.018 324.549 324.667 325.589C324.28 325.764 323.935 326.019 323.653 326.338C323.372 326.656 323.161 327.03 323.034 327.436C322.907 327.841 322.867 328.269 322.917 328.691C322.967 329.113 323.105 329.519 323.323 329.884C324.168 331.465 326.274 332.252 327.965 332.497C329.656 332.742 333.114 331.829 334.019 331.567C334.256 332.049 334.493 332.539 334.738 333.021C335.896 335.33 337.063 337.63 338.12 339.921C338.501 340.724 338.847 341.536 339.194 342.348C338.864 341.866 338.594 341.502 338.543 341.418C337.046 339.727 333.148 337.232 330.789 338.23C330.403 338.407 330.058 338.664 329.778 338.983C329.497 339.303 329.286 339.677 329.16 340.083C329.033 340.489 328.993 340.916 329.042 341.339C329.091 341.761 329.228 342.168 329.445 342.534C330.29 344.115 332.404 344.893 334.087 345.138C335.769 345.383 338.907 344.555 340.006 344.293C340.336 345.138 340.674 345.984 340.953 346.829C341.13 347.396 341.35 347.937 341.494 348.521C341.638 349.104 341.815 349.654 341.968 350.212C342.23 351.302 342.509 352.427 342.737 353.501C342.906 354.245 343.05 354.964 343.194 355.674C342.822 354.871 342.069 353.307 341.993 353.18C340.775 351.243 337.292 348.225 334.814 348.85C334.406 348.968 334.026 349.169 333.701 349.442C333.375 349.715 333.111 350.054 332.924 350.436C332.738 350.817 332.633 351.234 332.618 351.659C332.603 352.083 332.677 352.506 332.835 352.901C333.453 354.592 335.372 355.691 337.063 356.19C338.856 356.731 342.83 356.232 343.329 356.19C343.566 357.382 343.786 358.541 343.98 359.631C344.403 362.058 344.724 364.223 344.969 366.058H346.66C346.365 364.155 345.984 361.898 345.477 359.361C345.24 358.152 344.961 356.866 344.631 355.547C345.83 355.068 346.999 354.517 348.132 353.898C349.442 355.319 352.791 356.976 353.205 357.188C352.749 358.312 352.292 359.403 351.844 360.418C350.914 362.557 350.034 364.451 349.256 366.058H351.074C351.742 364.57 352.478 362.878 353.239 360.984C353.713 359.843 354.186 358.617 354.668 357.357C355.15 357.458 359.082 358.253 360.917 357.839C362.608 357.467 364.595 356.528 365.348 354.879C365.535 354.497 365.639 354.079 365.654 353.654C365.669 353.228 365.594 352.804 365.435 352.41C365.275 352.015 365.034 351.658 364.728 351.363C364.422 351.067 364.057 350.839 363.657 350.694C361.23 349.848 357.535 352.639 356.173 354.473C356.097 354.583 355.328 355.852 354.905 356.663C355.099 356.148 355.294 355.649 355.488 355.116C355.869 354.059 356.224 352.994 356.613 351.852L357.12 350.161C357.298 349.594 357.416 348.986 357.577 348.385C357.907 347.007 358.169 345.586 358.422 344.157C359.353 344.496 362.65 345.646 364.341 345.519C366.033 345.392 368.18 344.775 369.161 343.261C369.407 342.914 369.576 342.518 369.658 342.101C369.74 341.684 369.732 341.254 369.637 340.84C369.541 340.425 369.359 340.036 369.102 339.697C368.845 339.358 368.519 339.077 368.147 338.873C365.872 337.706 361.796 339.862 360.181 341.477C360.08 341.578 359.048 342.864 358.49 343.582C358.625 342.737 358.769 341.891 358.879 340.978C359.192 338.441 359.429 335.862 359.682 333.292C359.758 332.505 359.843 331.719 359.928 330.933C360.257 331.059 364.155 332.505 366.066 332.379C367.758 332.252 369.897 331.634 370.886 330.121C371.13 329.773 371.298 329.378 371.379 328.961C371.461 328.544 371.453 328.114 371.357 327.7C371.262 327.286 371.08 326.897 370.824 326.558C370.568 326.219 370.243 325.938 369.872 325.732C367.597 324.557 363.521 326.713 361.898 328.328C361.779 328.447 360.3 330.307 359.944 330.797C360.122 329.064 360.325 327.347 360.587 325.656C360.935 323.373 361.426 321.113 362.058 318.892C362.211 318.951 366.286 320.481 368.231 320.346C369.922 320.228 372.07 319.602 373.051 318.088C373.295 317.741 373.463 317.345 373.544 316.928C373.625 316.511 373.618 316.082 373.522 315.668C373.426 315.254 373.245 314.865 372.989 314.526C372.733 314.187 372.408 313.905 372.036 313.7C369.762 312.524 365.686 314.689 364.071 316.296C363.944 316.423 362.38 318.418 362.084 318.832C362.084 318.706 362.151 318.57 362.185 318.443C362.886 316.237 363.783 314.097 364.866 312.051C365.441 310.909 366.066 309.852 366.692 308.846C367.419 309.21 370.751 310.825 372.535 310.901C374.319 310.977 376.425 310.58 377.609 309.21C377.89 308.891 378.101 308.516 378.228 308.11C378.355 307.704 378.394 307.276 378.344 306.854C378.294 306.432 378.155 306.025 377.936 305.66C377.718 305.295 377.424 304.98 377.076 304.737C374.945 303.316 370.658 305.024 368.874 306.428C368.781 306.504 367.876 307.4 367.233 308.06C367.521 307.612 367.808 307.138 368.079 306.707C369.153 305.1 370.227 303.688 371.191 302.479C371.749 301.777 372.264 301.16 372.755 300.576C373.651 300.576 377.27 300.45 378.852 299.731C380.433 299.012 382.166 297.659 382.538 295.892C382.641 295.479 382.655 295.049 382.58 294.63C382.505 294.211 382.342 293.813 382.103 293.461C381.864 293.109 381.553 292.811 381.191 292.588C380.829 292.364 380.423 292.219 380.002 292.163C377.465 291.892 374.429 295.376 373.499 297.465C373.423 297.642 372.493 300.61 372.535 300.61H372.594C372.112 301.16 371.596 301.752 371.055 302.411C370.058 303.629 368.95 305.024 367.842 306.639C366.623 308.343 365.507 310.119 364.502 311.958C363.363 314.005 362.409 316.15 361.653 318.367C361.656 318.395 361.656 318.424 361.653 318.452C361.653 317.699 361.653 315.602 361.653 315.442C361.357 313.176 359.454 308.973 356.943 308.508C356.523 308.442 356.093 308.466 355.683 308.577C355.272 308.688 354.89 308.884 354.561 309.153C354.231 309.422 353.962 309.757 353.771 310.137C353.579 310.517 353.47 310.933 353.45 311.358C353.307 313.159 354.609 314.96 355.877 316.093C357.315 317.378 361.297 318.629 361.619 318.714C360.9 320.991 360.335 323.313 359.928 325.665C359.682 327.034 359.479 328.421 359.293 329.808C359.293 329.165 359.293 328.582 359.293 328.506C358.997 326.24 357.095 322.037 354.584 321.572C354.164 321.506 353.735 321.53 353.326 321.64C352.916 321.751 352.534 321.947 352.204 322.215C351.875 322.482 351.606 322.817 351.414 323.195C351.222 323.574 351.112 323.989 351.091 324.413C350.948 326.214 352.25 328.015 353.518 329.157C354.786 330.298 358.186 331.431 359.082 331.694C359.023 332.226 358.947 332.759 358.879 333.3C358.575 335.837 358.279 338.424 357.915 340.91C357.788 341.756 357.628 342.652 357.467 343.523C357.467 342.948 357.467 342.458 357.467 342.39C357.171 340.124 355.277 335.913 352.757 335.448C352.337 335.384 351.908 335.408 351.498 335.52C351.089 335.631 350.707 335.828 350.378 336.097C350.048 336.365 349.779 336.7 349.588 337.079C349.396 337.458 349.286 337.873 349.265 338.298C349.121 340.099 350.423 341.9 351.7 343.033C352.977 344.166 356.038 345.206 357.095 345.57C356.909 346.415 356.723 347.328 356.503 348.182C356.342 348.749 356.224 349.315 356.029 349.873C355.835 350.432 355.666 351.007 355.488 351.565C355.099 352.622 354.71 353.712 354.313 354.736L353.467 356.799C353.603 355.953 353.839 354.203 353.839 354.051C353.813 352.042 353.271 350.074 352.267 348.335C352.269 348.111 352.255 347.888 352.224 347.667C352.166 347.248 352.021 346.846 351.799 346.487C351.577 346.128 351.282 345.819 350.933 345.58C350.584 345.341 350.19 345.178 349.774 345.1C349.359 345.023 348.932 345.033 348.521 345.13C346.052 345.789 344.479 350.127 344.361 352.41C344.361 352.546 344.445 354.017 344.513 354.947C344.394 354.406 344.276 353.89 344.141 353.332C343.879 352.241 343.591 351.159 343.295 349.992C343.126 349.434 342.948 348.867 342.779 348.301C342.61 347.734 342.382 347.151 342.179 346.567C341.697 345.231 341.13 343.904 340.539 342.576C341.494 342.348 344.885 341.485 346.238 340.437C347.591 339.388 349.028 337.697 349.02 335.896C349.03 335.471 348.952 335.049 348.789 334.656C348.626 334.263 348.382 333.909 348.074 333.616C347.765 333.324 347.399 333.099 346.998 332.958C346.597 332.816 346.171 332.76 345.747 332.793C343.211 333.072 340.995 337.122 340.539 339.363C340.539 339.498 340.361 341.139 340.293 342.043C339.93 341.249 339.566 340.454 339.177 339.659C338.036 337.376 336.818 335.093 335.609 332.81L334.51 330.713C334.856 330.628 338.898 329.69 340.429 328.523C341.79 327.483 343.219 325.783 343.211 323.982C343.221 323.557 343.143 323.134 342.98 322.742C342.817 322.349 342.573 321.995 342.265 321.702C341.956 321.41 341.59 321.185 341.189 321.043C340.788 320.902 340.362 320.845 339.938 320.879C337.401 321.158 335.186 325.208 334.729 327.449C334.729 327.618 334.476 329.986 334.459 330.586C333.656 329.039 332.869 327.5 332.159 325.944C331.186 323.851 330.352 321.695 329.664 319.492C329.825 319.492 334.053 318.494 335.583 317.302C336.936 316.262 338.374 314.562 338.357 312.761C338.369 312.337 338.291 311.914 338.129 311.521C337.967 311.129 337.725 310.775 337.417 310.482C337.109 310.189 336.743 309.965 336.343 309.823C335.942 309.681 335.516 309.625 335.093 309.658C332.556 309.937 330.341 313.987 329.876 316.22C329.876 316.397 329.614 318.942 329.605 319.407L329.47 319.018C328.841 316.791 328.408 314.514 328.176 312.212C328.041 310.943 327.973 309.717 327.931 308.533C328.777 308.432 332.421 307.941 333.943 307.02C335.465 306.098 337.012 304.601 337.198 302.792C337.257 302.371 337.226 301.942 337.108 301.534C336.989 301.126 336.786 300.747 336.512 300.422C336.238 300.097 335.898 299.834 335.515 299.65C335.132 299.465 334.715 299.363 334.29 299.35C331.753 299.35 329.098 303.13 328.371 305.269C328.371 305.388 328.075 306.631 327.906 307.544C327.906 307.003 327.906 306.453 327.906 305.937C327.906 304.001 328.032 302.225 328.151 300.661C328.227 299.815 328.311 298.97 328.404 298.217C329.14 297.71 332.1 295.621 333.013 294.125C333.926 292.628 334.628 290.565 333.96 288.891C333.816 288.492 333.59 288.128 333.297 287.823C333.004 287.517 332.649 287.277 332.257 287.118C331.864 286.958 331.443 286.883 331.02 286.897C330.596 286.911 330.181 287.014 329.8 287.199C327.525 288.375 326.925 292.949 327.305 295.199C327.305 295.393 328.151 298.386 328.235 298.361H328.278C328.176 299.08 328.075 299.858 327.99 300.703C327.83 302.276 327.669 304.043 327.627 305.988C327.555 308.081 327.603 310.175 327.77 312.262C327.956 314.598 328.346 316.912 328.937 319.179V319.264C328.531 318.629 327.348 316.905 327.246 316.778C325.749 315.087 321.843 312.592 319.492 313.59C319.105 313.766 318.759 314.023 318.478 314.342C318.197 314.661 317.986 315.035 317.859 315.442C317.732 315.848 317.692 316.276 317.742 316.699C317.792 317.121 317.93 317.528 318.148 317.894C318.976 319.264 321.056 320.042 322.748 320.295Z" fill="#B75400"/>
<path d="M366.616 308.271C366.616 308.271 367.462 305.286 367.462 305.092C367.783 302.834 367.056 298.277 364.756 297.16C364.368 296.985 363.948 296.894 363.523 296.892C363.098 296.891 362.677 296.979 362.288 297.151C361.899 297.324 361.551 297.576 361.267 297.893C360.982 298.209 360.768 298.582 360.638 298.987C360.021 300.678 360.799 302.767 361.729 304.196C362.811 305.878 366.574 308.271 366.616 308.271Z" fill="#B75400"/>
<path d="M285.677 131.275C285.677 131.275 285.939 121.729 291.444 119.023C296.948 116.317 297.261 125.255 297.261 125.255C297.261 125.255 309.852 117.255 312.583 123.318C315.314 129.381 311.501 132.315 311.501 132.315C311.501 132.315 322.679 131.926 323.457 138.057C324.235 144.187 318.46 147.189 318.46 147.189C318.46 147.189 325.368 152.829 322.941 155.433C320.514 158.038 315.204 158.224 315.204 158.224C315.204 158.224 318.214 164.269 312.963 166.417C307.712 168.565 301.709 164.565 301.709 164.565C301.709 164.565 302.639 167.339 298.699 166.637C294.758 165.935 290.776 164.1 288.332 158.317C285.888 152.533 282.734 136.154 285.677 131.275Z" fill="#212121" stroke="#212121" stroke-linecap="round" stroke-linejoin="round"/>
<path d="M227.552 315.653C227.552 315.653 224.415 327.626 224.466 328.954C224.517 330.281 223.426 333.292 224.347 334.146C226.073 335.553 227.901 336.827 229.818 337.959C230.6 337.949 231.362 337.717 232.017 337.291C232.229 337.101 232.399 336.869 232.517 336.61C232.635 336.351 232.698 336.071 232.702 335.786C232.702 335.338 231.442 333.461 231.273 333.021C231.104 332.581 233.581 326.857 234.52 324.007C235.223 321.463 235.726 318.867 236.025 316.245L227.552 315.653Z" fill="white" stroke="#212121" stroke-miterlimit="10"/>
<path d="M230.96 323.99C230.96 323.99 229.176 328.218 229.057 328.945C228.939 329.672 226.521 331.702 226.842 333.325C227.163 334.949 230.732 334.518 232.49 329.715" fill="white"/>
<path d="M230.96 323.99C230.96 323.99 229.176 328.218 229.057 328.945C228.939 329.672 226.521 331.702 226.842 333.325C227.163 334.949 230.732 334.518 232.49 329.715" stroke="#212121" stroke-miterlimit="10"/>
<path d="M238.95 250.611C238.95 250.611 237.454 275.031 236.887 277.188C236.321 279.344 229.522 299.037 228.025 305.091C227.107 308.84 226.455 312.649 226.072 316.49L235.196 318.409L240.32 295.9C240.32 295.9 247.017 275.386 245.656 265.772C244.958 260.17 242.626 254.897 238.95 250.611Z" fill="#B75400" stroke="#212121" stroke-miterlimit="10"/>
<path d="M286.48 365.973C286.59 360.663 286.81 353.501 287.326 349.4C288.171 342.314 291.198 337.934 294.31 329.106C297.422 320.278 297.692 308.677 297.692 308.677L241.969 310.622C241.969 310.622 235.509 334.577 231.594 352.199C230.531 356.719 229.911 361.332 229.742 365.973" fill="#B75400"/>
<path d="M286.48 365.973C286.59 360.663 286.81 353.501 287.326 349.4C288.171 342.314 291.198 337.934 294.31 329.106C297.422 320.278 297.692 308.677 297.692 308.677L241.969 310.622C241.969 310.622 235.509 334.577 231.594 352.199C230.531 356.719 229.911 361.332 229.742 365.973" stroke="#212121" stroke-miterlimit="10"/>
<path d="M249.266 319.602L295.629 320.904L296.61 317.319L249.266 319.602Z" fill="#212121" stroke="#212121" stroke-linecap="round" stroke-linejoin="round"/>
<path d="M246.924 365.127C246.924 365.127 246.011 336.133 245.986 320.396L246.924 365.127Z" fill="white"/>
<path d="M246.924 365.127C246.924 365.127 246.011 336.133 245.986 320.396" stroke="#212121" stroke-miterlimit="10"/>
<path d="M282.464 189.273L289.229 193.822C289.229 193.822 297.236 200.976 299.206 206.895C301.177 212.814 299.748 247.964 297.76 259.32C295.773 270.676 300.737 284.823 302.504 292.805C304.271 300.787 305.041 315.636 305.041 315.636C305.041 315.636 306.292 317.378 284.578 318.13C262.864 318.883 247.719 320.016 245.944 320.371C244.87 320.591 243.782 320.729 242.688 320.785L241.843 313.074L239.737 319.424L235.23 318.392C235.23 318.392 238.029 304.592 238.731 299.215C239.433 293.837 243.863 275.539 243.923 268.656C243.982 261.773 238.232 250.696 237.107 243.88C235.983 237.065 238.249 225.379 243.872 216.551C249.495 207.723 253.266 204.307 264.259 195.293C275.251 186.28 282.464 189.273 282.464 189.273Z" fill="#B75400" stroke="#212121" stroke-miterlimit="10"/>
<path d="M264.842 292.306L287.529 294.877L286.252 288.941L272.097 287.723" stroke="#212121" stroke-miterlimit="10"/>
<path d="M256.91 287.394L255.76 291.283L261.451 291.926" stroke="#212121" stroke-miterlimit="10"/>
<path d="M265.425 248.523C264.359 247.535 263.38 246.457 262.5 245.301" stroke="#212121" stroke-miterlimit="10"/>
<path d="M273.314 255.186C273.314 255.186 270.922 253.376 268.3 251.127" stroke="#212121" stroke-miterlimit="10"/>
<path d="M282.464 189.273C282.464 189.273 275.251 186.271 264.259 195.294C253.266 204.316 249.503 207.741 243.855 216.551C240.481 221.998 238.238 228.069 237.259 234.402C237.395 235.061 237.539 235.729 237.699 236.414C240.845 249.706 244.345 256.133 244.345 256.133C244.345 256.133 250.434 225.844 261.029 213.567C271.624 201.289 289.22 193.822 289.22 193.822L282.464 189.273Z" fill="#B75400" stroke="#212121" stroke-miterlimit="10"/>
<path d="M256.023 130.193C256.023 130.193 248.083 137.609 247.491 143.451C246.899 149.294 246.282 154.334 245.292 156.22C244.303 158.105 239.314 159.34 241.005 162.189C242.697 165.039 244.278 164.98 244.278 164.98C244.278 164.98 246.814 177.587 248.742 179.355C250.67 181.122 257.494 180.107 257.494 180.107L259.608 195.395C259.608 195.395 245.411 207.986 242.646 225.531C239.881 243.077 243.043 253.089 243.043 253.089C243.043 253.089 244.895 225.447 251.288 215.097C257.68 204.747 272.528 194.947 274.718 193.18C276.908 191.412 282.464 189.256 282.464 189.256C282.464 189.256 279.826 183.337 279.471 180.665C279.115 177.993 279.234 174.061 279.733 172.987C280.232 171.914 289.102 168.692 292.416 158.528C295.731 148.364 290.852 136.366 285.652 131.258C280.451 126.151 262.669 123.614 256.023 130.193Z" fill="white" stroke="#212121" stroke-miterlimit="10"/>
<path d="M292.45 158.545C295.832 148.398 290.885 136.382 285.685 131.275C280.485 126.168 262.677 123.614 256.031 130.193C256.031 130.193 255.608 130.59 254.949 131.275C257.475 130.643 260.106 130.557 262.669 131.021C267.987 131.867 267.869 136.095 266.423 140.145C264.977 144.195 266.068 144.914 268.782 146.91C271.496 148.905 268.715 152.736 270.626 154.258C272.537 155.78 274.092 147.493 278.236 153.463C282.379 159.433 279.597 162.139 277.01 163.813C275.561 164.78 273.988 165.548 272.334 166.096C272.334 166.096 276.249 170.687 280.113 172.581C281.965 171.203 289.44 167.677 292.45 158.545Z" fill="#212121" stroke="#212121" stroke-linecap="round" stroke-linejoin="round"/>
<path d="M248.581 167.212C248.581 167.212 254.12 166.755 256.682 164.286" stroke="#212121" stroke-miterlimit="10"/>
<path d="M252.099 154.131C252.141 155.442 251.642 156.524 250.991 156.549C250.34 156.575 249.765 155.526 249.714 154.216C249.664 152.905 250.171 151.823 250.822 151.797C251.473 151.772 252.048 152.82 252.099 154.131Z" fill="#212121"/>
<path d="M249.715 148.779C249.715 148.779 251.499 146.377 254.052 149.21" stroke="#212121" stroke-miterlimit="10"/>
<path d="M257.494 180.124L264.098 177.638L259.498 185.899L257.494 180.124Z" fill="#212121" stroke="#212121" stroke-miterlimit="10"/>
<path d="M238.477 301.49L229.818 337.959L237.589 339.769L241.868 313.099L238.477 301.49Z" fill="white" stroke="#212121" stroke-miterlimit="10"/>
<path d="M246.129 214.175C244.467 217.794 243.295 221.619 242.646 225.548C239.881 243.085 243.043 253.105 243.043 253.105C243.043 253.105 244.878 225.836 251.16 215.334C249.445 215.14 247.757 214.751 246.129 214.175Z" fill="white" stroke="#212121" stroke-miterlimit="10"/>
<path d="M272.883 225.557L272.292 256.505L218.133 265.434L219.316 280.02C219.316 280.02 249.377 280.612 263.362 279.42C277.348 278.228 289.575 277.34 291.334 275.851C293.093 274.363 298.192 245.597 300.272 225.362C302.352 205.128 298.192 198.304 289.863 199.471" fill="#B75400"/>
<path d="M272.883 225.557L272.292 256.505L218.133 265.434L219.316 280.02C219.316 280.02 249.377 280.612 263.362 279.42C277.348 278.228 289.575 277.34 291.334 275.851C293.093 274.363 298.192 245.597 300.272 225.362C302.352 205.128 298.192 198.304 289.863 199.471" stroke="#212121" stroke-miterlimit="10"/>
<path d="M185.73 264.123L181.392 277.281L185.62 279.58C185.62 279.58 190.989 283.741 193.932 285.99C196.875 288.239 199.132 288.239 200.697 287.546C202.261 286.852 209.355 276.807 210.218 274.904C211.08 273.002 206.929 267.294 202.777 264.859C198.625 262.424 195.167 262.441 192.731 263.168C190.426 263.67 188.085 263.989 185.73 264.123Z" fill="white" stroke="#212121" stroke-miterlimit="10"/>
<path d="M218.132 265.434L211.283 264.842C209.135 264.282 206.947 263.883 204.738 263.65C202.954 263.65 200.57 265.434 199.378 266.33C198.185 267.227 185.096 281.508 185.096 281.508C185.096 281.508 186.288 283.885 188.072 283.293C189.856 282.701 193.146 281.204 193.146 281.204C193.146 281.204 189.577 284.781 191.361 286.565C193.146 288.349 196.122 288.349 196.122 288.349L198.211 287.157C199.089 287.85 200.098 288.356 201.179 288.645C202.667 288.941 205.051 288.349 207.098 287.157C209.144 285.965 214.463 279.758 214.463 279.758L219.029 277.991L218.132 265.434Z" fill="white" stroke="#212121" stroke-miterlimit="10"/>
<path d="M188.089 264.69C188.089 264.69 196.748 259.667 200.553 261.054C204.358 262.441 209.389 270.922 208.002 272.139C206.616 273.357 204.366 272.824 203.157 271.615C202.146 270.697 201.044 269.884 199.868 269.188C197.588 270.469 195.033 271.183 192.418 271.268" fill="white"/>
<path d="M188.089 264.69C188.089 264.69 196.748 259.667 200.553 261.054C204.358 262.441 209.389 270.922 208.002 272.139C206.616 273.357 204.366 272.824 203.157 271.615C202.146 270.697 201.044 269.884 199.868 269.188C197.588 270.469 195.033 271.183 192.418 271.268" stroke="#212121" stroke-miterlimit="10"/>
<path d="M213.913 284.35L211.165 282.878C210.944 282.761 210.748 282.601 210.588 282.408C210.429 282.215 210.309 281.992 210.236 281.752C210.163 281.512 210.138 281.261 210.162 281.011C210.187 280.762 210.26 280.52 210.379 280.299C210.497 280.079 210.657 279.883 210.851 279.725C211.044 279.566 211.267 279.448 211.507 279.375C211.746 279.303 211.998 279.279 212.247 279.304C212.496 279.329 212.737 279.403 212.958 279.521L215.706 280.984C216.151 281.223 216.484 281.628 216.631 282.111C216.779 282.595 216.729 283.117 216.492 283.563C216.254 284.009 215.848 284.341 215.365 284.489C214.882 284.636 214.36 284.586 213.913 284.35Z" fill="white" stroke="#212121" stroke-miterlimit="10"/>
<path d="M211.486 287.292L208.738 285.821C208.304 285.582 207.979 285.185 207.832 284.711C207.686 284.238 207.728 283.726 207.952 283.284C208.192 282.851 208.59 282.528 209.063 282.383C209.536 282.238 210.047 282.282 210.488 282.506L213.237 283.969C213.673 284.206 213.999 284.604 214.146 285.078C214.293 285.551 214.248 286.064 214.023 286.506C213.786 286.942 213.388 287.268 212.915 287.415C212.441 287.562 211.928 287.518 211.486 287.292Z" fill="white" stroke="#212121" stroke-miterlimit="10"/>
<path d="M208.713 289.888L205.965 288.417C205.743 288.3 205.547 288.14 205.388 287.946C205.229 287.753 205.11 287.53 205.037 287.29C204.965 287.05 204.941 286.798 204.966 286.549C204.992 286.3 205.067 286.058 205.187 285.838C205.305 285.617 205.465 285.422 205.659 285.263C205.852 285.105 206.075 284.986 206.315 284.914C206.554 284.842 206.806 284.817 207.055 284.842C207.304 284.867 207.545 284.941 207.766 285.06L210.514 286.531C210.734 286.649 210.93 286.81 211.088 287.003C211.247 287.197 211.366 287.42 211.438 287.659C211.51 287.899 211.534 288.15 211.509 288.399C211.484 288.648 211.41 288.89 211.292 289.11C211.174 289.331 211.013 289.526 210.82 289.685C210.626 289.843 210.403 289.962 210.164 290.034C209.924 290.106 209.673 290.131 209.424 290.106C209.175 290.081 208.933 290.007 208.713 289.888Z" fill="white" stroke="#212121" stroke-miterlimit="10"/>
<path d="M202.878 290.015L202.16 289.634C201.938 289.517 201.742 289.357 201.583 289.164C201.423 288.971 201.304 288.748 201.231 288.508C201.158 288.269 201.133 288.017 201.157 287.768C201.182 287.518 201.255 287.276 201.373 287.055C201.612 286.61 202.017 286.277 202.5 286.13C202.984 285.982 203.506 286.033 203.952 286.269L204.671 286.658C204.892 286.775 205.088 286.935 205.248 287.128C205.407 287.322 205.527 287.545 205.6 287.784C205.673 288.024 205.698 288.275 205.673 288.525C205.649 288.774 205.576 289.016 205.457 289.237C205.339 289.458 205.179 289.653 204.985 289.811C204.792 289.97 204.569 290.089 204.329 290.161C204.09 290.233 203.838 290.258 203.589 290.232C203.34 290.207 203.099 290.133 202.878 290.015Z" fill="white" stroke="#212121" stroke-miterlimit="10"/>
<path d="M185.73 264.123L149.387 248.759L150.731 272.833L180.741 279.707L185.73 264.123Z" fill="#212121" stroke="#212121" stroke-linecap="round" stroke-linejoin="round"/>
<path d="M180.741 279.707L185.73 264.124L180.648 261.874L180.547 262.39L175.896 278.532L180.741 279.707Z" fill="white" stroke="#212121" stroke-miterlimit="10"/>
<path d="M128.966 167.829L138.268 172.15C138.268 172.15 142.174 183.219 140.872 183.54C139.57 183.861 129.804 176.057 129.804 176.057L128.966 167.829Z" fill="white" stroke="#212121" stroke-linecap="round" stroke-linejoin="round"/>
<path d="M134.37 165.614L135.021 161.885C135.021 161.885 143.646 162.477 147.096 162.451C150.546 162.426 153.556 161.986 153.531 158.325C153.505 154.664 151.493 142.175 151.493 142.175C151.493 142.175 155.365 141.287 156.862 139.553C158.359 137.82 156.194 135.68 154.241 133.101C152.288 130.522 150.537 127.741 150.309 124.722C150.081 121.703 144.838 111.827 144.838 111.827C144.838 111.827 145.684 110.313 142.868 107.1C140.052 103.887 125.61 103.329 116.368 107.946C107.125 112.562 105.02 119.226 105.062 126.548C105.104 133.871 109.29 144.195 109.29 144.195C109.29 144.195 106.559 155.416 106.347 156.033C106.136 156.651 103.684 161.462 103.684 161.462C103.684 161.462 115.243 169.52 119.462 173.139C123.682 176.759 133.211 182.948 133.271 179.6C133.33 176.251 133.71 168.692 133.71 168.692L134.37 165.614Z" fill="white" stroke="#212121" stroke-linecap="round" stroke-linejoin="round"/>
<path d="M147.112 130.641C147.163 131.892 146.876 132.915 146.461 132.932C146.047 132.949 145.658 131.96 145.616 130.708C145.573 129.457 145.844 128.434 146.267 128.417C146.69 128.4 147.053 129.389 147.112 130.641Z" fill="#212121"/>
<path d="M141.05 126.506C141.05 126.506 142.969 123.259 147.941 125.17" stroke="#212121" stroke-linecap="round" stroke-linejoin="round"/>
<path d="M153.531 158.325C153.531 154.655 151.493 142.175 151.493 142.175C151.493 142.175 149.117 140.898 144.593 141.997C140.069 143.096 138.835 150.453 137.972 151.298C137.11 152.144 131.486 147.07 129.305 143.595C127.123 140.12 125.584 134.175 125.348 130.7C125.111 127.225 133.288 125.474 134.564 122.244C135.841 119.014 129.812 115.573 131.918 113.416C134.023 111.26 138.378 112.089 140.534 112.503C142.004 112.702 143.5 112.467 144.838 111.827C144.838 111.827 145.684 110.313 142.868 107.1C140.052 103.887 125.61 103.329 116.368 107.946C107.125 112.562 105.02 119.226 105.062 126.548C105.105 132.467 107.844 140.382 108.876 143.172C109.749 143.55 110.69 143.745 111.641 143.747C112.486 143.527 113.129 140.94 113.543 138.344C113.958 135.748 120.19 132.704 120.19 132.704C120.19 132.704 121.314 140.458 121.323 141.963C121.331 143.468 120.477 151.019 124.637 154.647C127.895 157.347 131.367 159.776 135.021 161.91C135.021 161.91 143.646 162.502 147.096 162.477C150.546 162.451 153.556 161.986 153.531 158.325Z" fill="#212121" stroke="#212121" stroke-linecap="round" stroke-linejoin="round"/>
<path d="M121.517 138.048C121.517 138.048 119.724 127.715 116.714 128.163C113.704 128.611 111.996 132.501 113.535 137.465C115.074 142.428 118.092 141.963 119.809 141.523" fill="white"/>
<path d="M121.517 138.048C121.517 138.048 119.724 127.715 116.714 128.163C113.704 128.611 111.996 132.501 113.535 137.465C115.074 142.428 118.092 141.963 119.809 141.523" stroke="#212121" stroke-linecap="round" stroke-linejoin="round"/>
<path d="M142.682 145.887C142.682 145.887 144.415 148.034 148.939 148.009" stroke="white" stroke-linecap="round" stroke-linejoin="round"/>
<path d="M94.298 365.973H139.959C140.111 363.572 141.887 354.338 141.887 348.284C141.887 341.291 146.698 296.179 146.698 296.179L87.3136 295.401L89.2584 323.009L94.298 365.973Z" fill="#212121" stroke="#212121" stroke-linecap="round" stroke-linejoin="round"/>
<path d="M100.217 163.035C100.217 163.035 89.8079 176.387 86.8738 183.87C83.9396 191.353 81.665 192.655 82.3161 202.092C82.9672 211.529 87.5333 249.284 87.5333 249.284L78.418 298.437C89.1766 302.291 100.517 304.27 111.945 304.288C130.818 304.288 139.003 302.665 140.263 302.014C141.523 301.363 152.947 298.437 152.947 298.437C152.947 298.437 152.947 242.781 149.362 223.578C145.777 204.375 141.227 189.755 139.604 186.144C137.98 182.534 132.763 170.848 132.763 170.848L100.217 163.035Z" fill="#212121" stroke="#212121" stroke-linecap="round" stroke-linejoin="round"/>
<path d="M139.629 186.144C137.997 182.568 132.789 170.848 132.789 170.848L100.217 163.035C100.217 163.035 98.0185 165.859 95.3549 169.639C102.449 173.757 120.012 183.938 121.052 184.191C122.354 184.521 128.865 183.87 128.865 183.87L125.956 187.447C125.956 187.447 133.769 193.636 136.374 196.232C137.744 197.602 141.718 201.221 145.185 204.35C142.826 194.998 140.644 188.394 139.629 186.144Z" fill="#212121" stroke="#212121" stroke-linecap="round" stroke-linejoin="round"/>
<path d="M124.654 178.01L135.723 186.796L144.829 203.073L138.978 179.312L126.937 172.48L124.654 178.01Z" fill="white" stroke="#212121" stroke-linecap="round" stroke-linejoin="round"/>
<path d="M102.526 156.854L136.602 172.209V184.25L97.6381 164.337L102.526 156.854Z" fill="white" stroke="#212121" stroke-linecap="round" stroke-linejoin="round"/>
<path d="M147.586 280.029H88.7003V327.677H147.586V280.029Z" fill="#B75400" stroke="#212121" stroke-miterlimit="10"/>
<path d="M121.754 302.741C121.754 302.741 126.134 308.448 127.85 309.023C129.295 309.617 130.49 310.693 131.233 312.068C131.994 313.209 132.924 321.775 133.516 322.35C134.108 322.925 134.091 324.252 131.994 323.297C129.897 322.341 128.611 319.069 128.611 319.069L129.372 326.679C129.372 326.679 131.063 327.06 129.753 328.015C128.442 328.971 127.275 330.298 126.134 329.706C125.118 329.101 124.164 328.399 123.284 327.609C121.924 328.066 120.476 328.196 119.056 327.99C116.968 327.609 117.365 328.37 115.446 327.034C113.526 325.698 113.535 327.229 112.588 324.751C111.112 320.318 109.904 315.8 108.969 311.222C108.588 308.744 108.208 305.303 108.208 305.303L121.754 302.741Z" fill="white" stroke="#212121" stroke-linecap="round" stroke-linejoin="round"/>
<path d="M122.523 299.122L123.851 305.024L107.481 307.307L106.72 301.405L122.523 299.122Z" fill="white" stroke="#212121" stroke-linecap="round" stroke-linejoin="round"/>
<path d="M101.545 174.763C101.545 174.763 90.1548 178.34 89.8335 183.548C89.5121 188.757 85.7324 251.93 87.3644 256.158C88.9963 260.386 105.003 303.231 105.003 303.231L123.555 300.957C123.555 300.957 114.051 251.271 113.746 250.29C113.442 249.309 120.122 193.957 120.122 193.957" fill="#212121"/>
<path d="M101.545 174.763C101.545 174.763 90.1548 178.34 89.8335 183.548C89.5121 188.757 85.7324 251.93 87.3644 256.158C88.9963 260.386 105.003 303.231 105.003 303.231L123.555 300.957C123.555 300.957 114.051 251.271 113.746 250.29C113.442 249.309 120.122 193.957 120.122 193.957" stroke="#212121" stroke-linecap="round" stroke-linejoin="round"/>
<path d="M117.915 209.854L113.721 250.29L117.72 275.412" stroke="white" stroke-linecap="round" stroke-linejoin="round"/>
<path d="M118.558 203.665L118.338 205.813" stroke="white" stroke-linecap="round" stroke-linejoin="round"/>
<path d="M88.5227 197.407L87.2713 235.374" stroke="white" stroke-linecap="round" stroke-linejoin="round"/>
<path d="M131.072 268.783L143.586 268.326L144.711 272.833L123.977 274.16" stroke="white" stroke-linecap="round" stroke-linejoin="round"/>
<path d="M120.646 269.154L127.309 268.918" stroke="white" stroke-linecap="round" stroke-linejoin="round"/>
<path d="M98.1198 170.713L121.077 184.191L128.89 183.87L125.956 187.447L141.083 199.496" stroke="white" stroke-linecap="round" stroke-linejoin="round"/>
<path d="M0 365.973H385.997" stroke="#212121" stroke-miterlimit="10"/>
<path d="M109.088 17.5032V74.6556" stroke="#212121" stroke-miterlimit="10"/>
<path d="M196.875 17.5034V74.6559" stroke="#212121" stroke-miterlimit="10"/>
<path d="M284.663 17.5034V74.6559" stroke="#212121" stroke-miterlimit="10"/>
</svg>
