<svg width="402" height="350" viewBox="0 0 402 350" fill="none" xmlns="http://www.w3.org/2000/svg">
<path d="M118.964 334.203L107.857 324.482C107.46 324.138 106.975 323.912 106.457 323.83C105.938 323.748 105.407 323.813 104.924 324.017L101.731 321.227C101.572 321.086 101.377 320.99 101.168 320.95C103.495 318.206 104.667 314.665 104.437 311.074C104.208 307.483 102.594 304.121 99.936 301.696C97.278 299.271 93.7827 297.971 90.1858 298.07C86.5888 298.169 83.1705 299.66 80.6501 302.228C78.1297 304.796 76.7038 308.242 76.6723 311.84C76.6408 315.438 78.0062 318.908 80.4812 321.52C82.9562 324.132 86.3478 325.682 89.9425 325.845C93.5372 326.007 97.0547 324.768 99.7548 322.39C99.8096 322.643 99.9444 322.872 100.139 323.042L103.323 325.833C103.182 326.351 103.192 326.898 103.35 327.411C103.508 327.924 103.809 328.381 104.217 328.73L115.324 338.442C115.887 338.936 116.624 339.187 117.372 339.138C118.12 339.09 118.818 338.746 119.313 338.183C119.807 337.619 120.058 336.883 120.009 336.135C119.96 335.387 119.617 334.689 119.053 334.194L118.964 334.203ZM90.6153 324.25C88.218 324.252 85.8739 323.542 83.8799 322.211C81.8858 320.881 80.3313 318.988 79.413 316.774C78.4948 314.559 78.2541 312.122 78.7213 309.771C79.1886 307.419 80.3429 305.259 82.0381 303.564C83.7333 301.869 85.8932 300.715 88.2446 300.247C90.596 299.78 93.0331 300.021 95.2476 300.939C97.4622 301.857 99.3546 303.412 100.685 305.406C102.016 307.4 102.726 309.744 102.724 312.141C102.717 315.35 101.439 318.426 99.1695 320.695C96.9002 322.965 93.8245 324.243 90.6153 324.25Z" fill="#212121"/>
<path d="M387.174 204.409C387.174 204.409 387.908 197.085 384.974 193.785C382.041 190.485 377.65 194.518 378.715 198.918C379.779 203.318 387.174 204.409 387.174 204.409Z" fill="#B75400"/>
<path d="M378.759 237.068C378.759 237.068 379.895 225.639 375.334 220.506C370.773 215.373 363.905 221.641 365.622 228.501C367.339 235.36 378.759 237.068 378.759 237.068Z" fill="#B75400"/>
<path d="M376.282 255.57C376.282 255.57 375.03 244.159 369.495 240.081C363.959 236.003 358.558 243.578 361.652 249.918C364.746 256.259 376.282 255.57 376.282 255.57Z" fill="#B75400"/>
<path d="M387.908 265.13C381.156 266.427 375.111 276.183 375.111 276.183C375.111 276.183 385.225 281.772 390.751 277.373C396.278 272.973 394.668 263.824 387.908 265.13Z" fill="#B75400"/>
<path d="M390.143 282.318C380.485 284.178 371.838 298.137 371.838 298.137C371.838 298.137 386.298 306.132 394.195 299.846C402.091 293.559 399.802 280.458 390.143 282.318Z" fill="#B75400"/>
<path d="M371.632 296.715C371.844 296.406 372.035 296.084 372.204 295.75C372.819 294.5 373.175 293.139 373.251 291.748C373.326 290.357 373.119 288.965 372.643 287.656C373.152 283.418 373.608 279.984 373.939 278.436C374.082 277.775 374.225 277.077 374.36 276.344H374.843C374.843 276.344 374.78 275.798 374.628 274.904C375.406 270.576 376.184 265.139 377.114 258.637C377.239 257.743 377.364 256.849 377.499 255.954C380.128 257.197 387.684 260.256 392.191 256.67C397.718 252.27 396.099 243.122 389.348 244.418C384.465 245.357 379.958 250.723 377.829 253.62C378.429 249.489 379.081 245.053 379.815 240.412C379.94 239.625 380.083 238.811 380.235 237.962C382.828 239.875 389.178 243.891 394.096 241.44C400.419 238.292 400.741 229.001 393.864 228.867C388.909 228.777 383.41 233.052 380.718 235.449C381.711 230.557 383.079 224.905 384.545 219.352C386.119 220.532 390.331 223.286 393.56 221.677C397.62 219.656 397.825 213.691 393.408 213.628C390.197 213.566 386.638 216.356 384.93 217.885C386.11 213.414 387.327 209.094 388.427 205.258C390.215 206.546 394.043 208.763 397.021 207.279C401.072 205.258 401.277 199.302 396.868 199.23C394.069 199.177 390.993 201.305 389.124 202.861C390.734 197.299 391.995 193.194 392.326 192.13C393.962 191.039 398.916 187.659 399.739 185.611C400.011 185.022 400.161 184.385 400.179 183.737C400.198 183.089 400.084 182.444 399.845 181.841C399.607 181.238 399.248 180.69 398.791 180.23C398.334 179.77 397.789 179.408 397.188 179.165C396.586 178.923 395.942 178.805 395.294 178.819C394.646 178.833 394.007 178.978 393.417 179.246C392.827 179.515 392.298 179.9 391.861 180.379C391.424 180.858 391.089 181.421 390.877 182.034C390.081 183.983 391.136 189.483 391.601 191.62L391.306 191.531C391.261 191.665 389.616 196.977 387.497 204.355L387.362 204.489L387.443 204.551C386.298 208.531 385.019 213.092 383.785 217.76C383.857 215.542 383.723 210.793 381.514 208.325C378.59 205.025 374.19 209.05 375.254 213.449C376.238 217.384 382.193 218.672 383.445 218.905C381.8 225.164 380.262 231.567 379.242 236.879L379.019 237.112L379.18 237.246C378.974 238.31 378.795 239.339 378.643 240.313C377.597 246.922 376.712 253.111 375.96 258.575C375.227 263.699 374.592 268.161 373.975 271.935C373.081 268.277 371.292 263.359 368.037 260.962C367.449 260.479 366.757 260.138 366.016 259.966C365.274 259.794 364.503 259.795 363.762 259.97C364.031 255.632 360.364 251.868 356.608 254.604C352.056 257.949 351.019 267.33 351.019 267.33C353.858 267.454 356.693 266.992 359.345 265.97C359.176 267.604 359.47 269.253 360.194 270.728C359.322 270.784 358.486 271.095 357.789 271.622C356.644 272.527 355.707 273.667 355.043 274.967C354.011 275.354 353.076 275.965 352.307 276.755C351.985 274.591 351.645 272.284 351.278 269.673C350.635 265.201 349.91 260.095 349.052 254.658C348.926 253.862 348.783 253.012 348.613 252.136L348.748 252.028L348.56 251.841C347.719 247.468 346.458 242.227 345.108 237.067C346.127 236.879 351.028 235.815 351.842 232.596C352.736 229.019 349.159 225.674 346.718 228.384C344.929 230.423 344.795 234.322 344.857 236.137C343.838 232.31 342.792 228.554 341.853 225.281L341.915 225.227L341.808 225.12C340.064 219.066 338.705 214.693 338.678 214.585L338.437 214.657C338.812 212.868 339.68 208.397 339.027 206.778C338.833 206.3 338.547 205.865 338.185 205.498C337.823 205.13 337.392 204.838 336.917 204.637C336.442 204.436 335.933 204.33 335.417 204.326C334.901 204.323 334.39 204.42 333.912 204.614C333.434 204.808 332.998 205.094 332.631 205.456C332.264 205.818 331.971 206.248 331.77 206.723C331.569 207.198 331.464 207.708 331.46 208.224C331.456 208.74 331.554 209.251 331.747 209.729C332.418 211.402 336.487 214.201 337.837 215.095C338.106 215.989 339.143 219.343 340.467 223.921C338.928 222.643 336.407 220.89 334.099 220.935C330.522 221.006 330.647 225.907 333.983 227.57C336.425 228.786 339.546 226.962 341.039 225.907C341.933 229.055 342.944 232.632 343.91 236.28C342.506 235.028 339.581 232.703 336.943 232.784C333.366 232.855 333.491 237.747 336.818 239.41C339.501 240.734 342.935 238.471 344.232 237.497C345.43 242.084 346.566 246.734 347.37 250.75C345.162 248.782 340.637 245.268 336.568 245.384C330.925 245.491 331.202 253.128 336.38 255.722C340.413 257.734 345.636 254.425 347.773 252.851C347.898 253.549 348.014 254.228 348.113 254.863C348.721 258.691 349.257 262.331 349.749 265.729C348.005 263.341 344.294 258.932 340.279 258.163C334.734 257.099 333.402 264.62 337.945 268.233C341.656 271.175 347.862 268.671 350.026 267.643C350.134 268.394 350.241 269.145 350.339 269.869C350.751 272.758 351.126 275.378 351.484 277.748C350.681 278.795 350.075 279.98 349.696 281.244C347.719 278.857 344.679 275.879 341.423 275.217C335.87 274.153 334.547 281.674 339.089 285.287C341.969 287.585 346.369 286.565 349.204 285.519C349.294 287.21 349.726 288.865 350.474 290.384C351.302 292.029 352.532 293.438 354.051 294.48C354.757 300.507 355.544 308.252 356.063 313.528H347.558V349.469H380.986V313.403H369.933C370.353 309.065 370.979 302.796 371.632 296.715ZM373.206 276.335C373.081 276.988 372.956 277.605 372.83 278.195C372.535 279.563 372.151 282.327 371.722 285.796C371.214 284.966 370.517 284.269 369.686 283.762C368.856 283.255 367.916 282.953 366.946 282.881C366.254 281.507 365.434 280.201 364.496 278.982C365.002 277.622 365.083 276.141 364.728 274.734C367.43 275.792 370.305 276.335 373.206 276.335ZM355.142 295.034C355.547 295.279 355.958 295.502 356.376 295.705C356.045 296.876 355.786 297.985 355.58 298.951C355.437 297.601 355.32 296.295 355.142 295.034ZM355.955 302.412C358.585 302.412 366.016 302.126 370.183 298.37H370.291C369.7 303.932 369.155 309.468 368.77 313.403H357.109C356.769 310.317 356.376 306.374 355.955 302.412Z" fill="#B75400"/>
<path d="M349.007 220.675C349.901 217.098 346.324 213.745 343.882 216.463C341.441 219.182 342.094 225.191 342.094 225.191C342.094 225.191 348.103 224.288 349.007 220.675Z" fill="#B75400"/>
<path d="M348.998 252.028C348.998 252.028 358.388 250.624 359.792 244.991C361.196 239.357 355.571 234.197 351.815 238.418C348.059 242.639 348.998 252.028 348.998 252.028Z" fill="#B75400"/>
<path d="M339.635 289.222C331.703 287.693 329.798 298.46 336.299 303.629C342.8 308.797 354.685 302.224 354.685 302.224C354.685 302.224 347.576 290.751 339.635 289.222Z" fill="#B75400"/>
<path d="M361.375 54.8676H88.9968C84.3048 54.8676 80.5012 58.6712 80.5012 63.3632V278.159C80.5012 282.851 84.3048 286.655 88.9968 286.655H361.375C366.067 286.655 369.871 282.851 369.871 278.159V63.3632C369.871 58.6712 366.067 54.8676 361.375 54.8676Z" fill="#212121" stroke="#212121" stroke-linecap="round" stroke-linejoin="round"/>
<path d="M260.536 121.196H173.801V349.343H260.536V121.196Z" fill="#B0B0B0" stroke="#212121" stroke-linecap="round" stroke-linejoin="round"/>
<path d="M260.536 118.281H173.801V296.858H260.536V118.281Z" fill="#212121" stroke="#212121" stroke-linecap="round" stroke-linejoin="round"/>
<path d="M284.593 340.597H149.745V349.343H284.593V340.597Z" fill="#B0B0B0" stroke="#212121" stroke-linecap="round" stroke-linejoin="round"/>
<path d="M354.086 54.8674H80.2506C75.5586 54.8674 71.755 58.671 71.755 63.363V278.159C71.755 282.851 75.5586 286.655 80.2506 286.655H354.086C358.778 286.655 362.582 282.851 362.582 278.159V63.363C362.582 58.671 358.778 54.8674 354.086 54.8674Z" fill="#B0B0B0" stroke="#212121" stroke-linecap="round" stroke-linejoin="round"/>
<path d="M352.754 62.7102H81.5919V278.83H352.754V62.7102Z" fill="white" stroke="#212121" stroke-miterlimit="10"/>
<path d="M352.754 268.438H81.5919V278.821H352.754V268.438Z" fill="#707070" stroke="#212121" stroke-linecap="round" stroke-linejoin="round"/>
<path d="M352.754 62.7102H81.5919V77.8056H352.754V62.7102Z" fill="#B75400" stroke="#212121" stroke-linecap="round" stroke-linejoin="round"/>
<path d="M313.504 349.343H401" stroke="#212121" stroke-linecap="round" stroke-linejoin="round"/>
<path d="M1 349.343H310.017" stroke="#212121" stroke-linecap="round" stroke-linejoin="round"/>
<path d="M51.5261 349.344H18.9656C18.9656 349.344 18.8494 348.262 18.7599 346.607C18.5274 342.592 18.429 335.259 20.468 332.433C23.3386 328.445 36.6812 335.545 36.6812 335.545C36.6812 335.545 42.7712 341.09 46.1694 342.547C49.5677 344.005 50.5424 343.021 51.0343 345.463C51.1148 345.874 51.1863 346.259 51.2489 346.607C51.4063 347.512 51.4989 348.426 51.5261 349.344Z" fill="white" stroke="#212121" stroke-miterlimit="10"/>
<path d="M51.5265 349.344H18.9659C18.9659 349.344 18.8497 348.261 18.7603 346.607H51.2671C51.4185 347.512 51.5052 348.426 51.5265 349.344Z" fill="white" stroke="#212121" stroke-miterlimit="10"/>
<path d="M22.0153 214.809L23.9916 265.783C23.9916 265.783 17.7317 279.939 19.4666 290.974C21.2015 302.01 18.9032 337.951 18.9032 337.951C18.9032 337.951 19.4666 339.65 26.2541 339.65C33.0417 339.65 34.1774 334.839 34.1774 334.839C34.1774 334.839 39.8382 270.317 40.4373 265.505C41.0365 260.694 47.511 216.267 47.511 216.267L22.0153 214.809Z" fill="#212121" stroke="#212121" stroke-miterlimit="10"/>
<path d="M60.2993 349.344H27.7388C27.7388 349.344 27.6225 348.262 27.5331 346.607C27.3006 342.592 27.2022 335.259 29.2412 332.433C32.1118 328.445 45.4544 335.545 45.4544 335.545C45.4544 335.545 51.5444 341.09 54.9426 342.547C58.3409 344.005 59.3156 343.021 59.8075 345.463C59.888 345.874 59.9595 346.259 60.0221 346.607C60.1795 347.512 60.2721 348.426 60.2993 349.344Z" fill="white" stroke="#212121" stroke-miterlimit="10"/>
<path d="M60.2992 349.344H27.7386C27.7386 349.344 27.6224 348.261 27.533 346.607H60.022C60.1793 347.511 60.272 348.426 60.2992 349.344Z" fill="white" stroke="#212121" stroke-miterlimit="10"/>
<path d="M49.6752 213.199C49.6752 213.199 52.5995 233.204 51.6247 242.442C50.65 251.68 49.1923 283.775 47.2517 296.868C45.3112 309.96 43.8982 330.492 43.8982 330.492L45.4542 331.655V335.545C45.4542 335.545 38.8456 337.101 36.127 337.486C34.2848 337.754 30.815 338.112 28.7492 338.317C28.5588 338.336 28.3667 338.309 28.1886 338.239C28.0105 338.169 27.8513 338.058 27.7241 337.915C27.5969 337.772 27.5052 337.602 27.4565 337.417C27.4077 337.232 27.4033 337.038 27.4436 336.851L28.3378 332.433L29.3573 327.157C29.3573 327.157 23.9201 293.46 24.8859 287.63C25.8517 281.799 29.2589 268.197 29.2589 266.74C29.2589 265.282 24.4388 240.01 23.4462 235.637C22.4535 231.264 18.5813 219.602 18.5813 213.28C18.5813 206.957 49.6752 213.199 49.6752 213.199Z" fill="#212121" stroke="#212121" stroke-miterlimit="10"/>
<path d="M42.8787 146.951C42.8787 146.951 49.9255 156.914 52.1076 158.863C54.2896 160.813 61.3454 164.694 61.104 167.85C60.8625 171.007 60.1292 174.656 56.2391 176.355C52.349 178.054 44.1128 172.465 44.1128 172.465L42.8787 146.951Z" fill="white" stroke="#212121" stroke-miterlimit="10"/>
<path d="M53.574 159.587C53.574 159.587 51.1416 165.91 50.8912 168.333C50.6408 170.757 50.3994 174.897 52.3489 176.597C54.2179 178.124 56.5005 179.058 58.9039 179.279C60.3616 179.279 60.8534 169.559 61.0949 167.859C61.3363 166.16 62.794 162.494 61.3363 160.813C59.8787 159.131 55.5146 158.863 53.574 159.587Z" fill="white" stroke="#212121" stroke-miterlimit="10"/>
<path d="M58.7251 137.57C57.0171 138.286 55.148 136.873 54.1285 135.335C53.1091 133.796 52.34 131.927 50.7035 131.033C50.1937 130.747 49.5856 130.541 49.3352 130.014C48.906 129.119 49.9523 128.136 50.936 128.127C51.9197 128.118 54.8082 130.452 55.7472 130.81C58.9666 131.883 60.4511 128.261 63.7957 128.467C64.1999 128.452 64.5971 128.575 64.9224 128.815C65.2712 129.137 65.4858 132.562 65.5395 133.036C66.1387 138.939 65.4143 142.113 65.4322 153.318C65.4322 157.629 65.6557 164.944 65.62 171.821C65.62 174.62 65.307 176.176 61.2291 178.421C57.1512 180.665 53.3863 173.806 53.2432 171.919C53.0286 169.013 54.3074 165.579 54.9244 162.78C56.3195 156.636 58.6178 143.83 58.7251 137.57Z" fill="white" stroke="#212121" stroke-miterlimit="10"/>
<path d="M57.0618 127.689C57.0618 127.689 56.8919 127.42 56.6147 127.063C55.9977 126.249 54.8262 124.907 53.9319 124.952C52.6352 125.015 48.6557 127.751 49.5857 128.932C50.5158 130.112 53.8335 127.519 53.8335 127.519L55.9708 131.444L59.2439 130.979L57.0618 127.689Z" fill="white" stroke="#212121" stroke-miterlimit="10"/>
<path d="M57.5986 127.277C57.5986 127.277 55.6312 128.171 55.8101 131.453C55.9889 134.735 57.5092 135.165 58.1531 134.798C59.6426 134.357 61.1646 134.034 62.7049 133.832C63.0282 133.778 63.3272 133.627 63.5622 133.398C63.7971 133.17 63.9566 132.875 64.0195 132.553C64.1626 131.838 64.4309 130.666 64.9138 128.78C66.1211 124.594 57.5986 127.277 57.5986 127.277Z" fill="white" stroke="#212121" stroke-miterlimit="10"/>
<path d="M59.0114 127.09C58.5224 128.226 58.2635 129.448 58.2497 130.685C58.2359 131.923 58.4674 133.15 58.9309 134.297" stroke="#212121" stroke-miterlimit="10"/>
<path d="M62.043 126.553C62.043 126.553 60.4959 131.078 61.6764 133.895" stroke="#212121" stroke-miterlimit="10"/>
<path d="M59.8879 136.023C59.8879 136.023 59.9953 136.533 61.4619 137.392C62.9285 138.25 64.5382 137.079 64.8333 137.016" stroke="#212121" stroke-miterlimit="10"/>
<path d="M29.9475 121.438L29.3036 133.403L42.1633 141.451L45.803 125.462L35.5188 103.105C35.5188 103.105 32.6571 101.397 30.3678 106.306C28.0784 111.216 30.5556 116.099 30.5556 116.099L29.9475 121.438Z" fill="white" stroke="#212121" stroke-miterlimit="10"/>
<path d="M51.884 100.869L55.622 110.572L53.1002 112.298C53.1002 112.298 55.4521 122.922 53.9945 125.06C52.5368 127.197 43.6656 126.687 42.3242 126.383C40.9828 126.079 34.9375 107.836 34.9375 107.836C34.9375 107.836 34.5708 105.01 32.3888 107.478C30.2067 109.946 34.5082 114.909 34.5082 114.909L29.9385 121.438C29.9385 121.438 16.7211 110.59 17.2845 104.375C17.8479 98.1597 24.394 90.1291 38.3178 87.7951C52.2417 85.461 57.5268 95.9777 56.1586 98.3654C55.6927 99.089 55.0629 99.6928 54.3203 100.128C53.5776 100.563 52.743 100.817 51.884 100.869Z" fill="#212121" stroke="#212121" stroke-miterlimit="10"/>
<path d="M51.5802 116.269C49.9705 116.689 50.06 120.239 50.06 120.239C50.8295 120.477 51.6594 120.426 52.394 120.096C53.0522 119.783 53.6706 119.393 54.2362 118.934C54.1021 117.798 53.9232 116.662 53.7444 115.652C53.0558 115.866 52.2509 116.09 51.5802 116.269Z" fill="white" stroke="#212121" stroke-miterlimit="10"/>
<path d="M41.573 104.581C41.1348 106.271 36.7797 107.916 36.7797 107.916L37.8975 110.411C37.8975 110.411 41.4746 118.397 42.9859 119.81C44.4972 121.223 46.6256 120.579 46.0443 119.944C45.4631 119.309 46.563 116.367 49.0849 114.695C50.3534 113.843 51.7311 113.166 53.1807 112.683C53.1807 112.441 53.1002 112.298 53.1002 112.298L55.622 110.572L51.884 100.869L41.9217 99.3313C41.9781 101.088 41.8613 102.847 41.573 104.581Z" fill="white" stroke="#212121" stroke-miterlimit="10"/>
<path d="M50.3729 106.834C50.5249 107.8 50.3729 108.623 49.9615 108.694C49.5502 108.766 49.1746 108.006 49.0673 107.04C48.96 106.074 49.0673 105.251 49.4786 105.18C49.89 105.108 50.2119 105.86 50.3729 106.834Z" fill="#212121"/>
<path d="M50.31 102.962C50.31 102.962 48.8434 101.603 47.6897 102.855C47.3648 103.13 47.1453 103.51 47.0686 103.929C46.992 104.348 47.063 104.78 47.2694 105.153" stroke="#212121" stroke-width="0.75" stroke-linecap="round" stroke-linejoin="round"/>
<path d="M30.341 129.674C30.341 129.674 20.7544 138.849 19.0731 143.857C17.3919 148.865 15.192 192.47 16.0773 199.812C16.9626 207.154 17.9285 216.142 17.9285 216.142C17.9285 216.142 20.3967 218.967 26.2273 219.388C50.9987 221.257 49.7199 213.19 49.7199 213.19C49.7199 213.19 49.5768 161.43 48.7541 155.447C47.9314 149.464 40.8934 137.928 37.7456 135.067C35.4333 133.064 32.9563 131.26 30.341 129.674Z" fill="white" stroke="#212121" stroke-miterlimit="10"/>
<path d="M41.8862 143.741L47.4218 153.641C47.4218 153.641 49.7469 151.02 48.8705 148.982C47.9941 146.943 41.8862 143.741 41.8862 143.741Z" fill="#B75400" stroke="#212121" stroke-linecap="round" stroke-linejoin="round"/>
<path d="M47.4215 153.64L45.2931 198.81L49.8986 208.459L52.9213 196.655L48.584 152.764L47.4215 153.64Z" fill="#B75400" stroke="#212121" stroke-linecap="round" stroke-linejoin="round"/>
<path d="M27.846 125.721L46.2233 141.791L45.651 147.291L25.807 132.715L27.846 125.721Z" fill="white" stroke="#212121" stroke-miterlimit="10"/>
<path d="M24.9486 186.809L47.6274 225.406C47.6274 225.406 51.0346 234.036 51.8663 234.268C52.6979 234.501 57.6522 235.091 57.6522 235.091L60.1562 236.075C60.1562 236.075 61.8285 236.817 62.0521 235.708C62.2756 234.599 60.6302 226.202 59.7985 225.97C58.9668 225.737 53.2703 223.287 53.2703 223.287L37.4059 181.828L24.9486 186.809Z" fill="white" stroke="#212121" stroke-miterlimit="10"/>
<path d="M26.5938 143.249C26.5938 143.249 20.2177 147.372 20.003 154.499C19.8169 159.381 20.5044 164.257 22.033 168.897C22.659 170.516 20.6022 173.368 22.346 175.72C24.0899 178.072 25.8069 185.405 25.8069 185.405L36.9585 182.982C36.9585 182.982 34.8033 177.885 36.0642 176.463C37.3251 175.041 38.9527 173.86 38.8007 170.587C38.6294 167.91 38.8737 165.222 39.5251 162.619C40.008 161.26 40.2405 142.614 26.5938 143.249Z" fill="white" stroke="#212121" stroke-miterlimit="10"/>
<path d="M22.9274 182.266L25.0915 187.632L38.6219 184.511L37.2179 177.732C37.2179 177.732 25.5386 179.682 22.9274 182.266Z" fill="white" stroke="#212121" stroke-miterlimit="10"/>
<path d="M343.775 138.804H232.599V263.055H343.775V138.804Z" fill="#212121" stroke="#212121" stroke-linecap="round" stroke-linejoin="round"/>
<path d="M341.066 132.92H228.137V259.96H341.066V132.92Z" fill="white" stroke="#212121" stroke-linecap="round" stroke-linejoin="round"/>
<path d="M341.066 132.92H253.534V259.96H341.066V132.92Z" fill="white" stroke="#212121" stroke-linecap="round" stroke-linejoin="round"/>
<path d="M341.066 132.92H228.137V141.478H341.066V132.92Z" fill="#212121" stroke="#212121" stroke-miterlimit="10"/>
<path d="M280.604 145.806H258.408V172.876H280.604V145.806Z" fill="#B75400" stroke="#212121" stroke-miterlimit="10"/>
<path d="M262.826 153.962C262.826 153.962 263.318 161.34 262.334 161.832C261.786 162.122 261.161 162.235 260.545 162.154C261.234 163.508 262.4 164.56 263.818 165.105C266.117 165.928 267.914 163.799 267.914 163.799L265.455 153.631L262.826 153.962Z" fill="#212121" stroke="#212121" stroke-linecap="round" stroke-linejoin="round"/>
<path d="M258.408 172.876L261.726 165.82L271.428 164.354L278.207 167.832L280.604 172.876H258.408Z" fill="white" stroke="#212121" stroke-linecap="round" stroke-linejoin="round"/>
<path d="M263.55 165.784L264.981 170.873L272.6 165.632L269.873 163.468L263.55 165.784Z" fill="white" stroke="#212121" stroke-linecap="round" stroke-linejoin="round"/>
<path d="M271.983 161.063L271.429 164.354L265.571 168.566L264.838 164.541L271.983 161.063Z" fill="white" stroke="#212121" stroke-linecap="round" stroke-linejoin="round"/>
<path d="M262.969 155.894C262.969 155.894 262.629 163.531 265.115 164.881C267.601 166.232 272.716 161.662 273.289 161.089C273.861 160.517 276.919 159.739 276.919 157.235C276.919 154.731 275.015 155.321 275.015 155.321C275.015 155.321 276.159 152.048 275.587 150.698C275.015 149.348 267.082 148.909 264.596 150.421C262.11 151.932 262.969 155.894 262.969 155.894Z" fill="white" stroke="#212121" stroke-linecap="round" stroke-linejoin="round"/>
<path d="M270.695 153.962C270.322 154.362 270.114 154.89 270.114 155.437C270.114 155.985 270.322 156.512 270.695 156.913C271.716 158.396 272.126 160.215 271.84 161.992C271.679 163.137 269.873 163.468 269.873 163.468C269.873 163.468 270.364 164.452 272.493 165.104C274.621 165.757 278.01 165.355 279.155 162.082C280.3 158.809 277.572 151.994 276.598 150.197C275.623 148.399 269.873 146.915 266.108 147.738C262.343 148.56 260.858 150.85 261.189 152.325C261.52 153.801 262.495 154.615 264.954 154.615C266.882 154.551 268.802 154.332 270.695 153.962Z" fill="#212121" stroke="#212121" stroke-linecap="round" stroke-linejoin="round"/>
<path d="M263.845 155.947C264.117 155.834 264.417 155.799 264.708 155.848C264.999 155.897 265.27 156.028 265.49 156.224" stroke="#212121" stroke-linecap="round" stroke-linejoin="round"/>
<path d="M265.571 157.584L265.043 160.159L266.689 159.98" stroke="#212121" stroke-linecap="round" stroke-linejoin="round"/>
<path d="M268.37 157.888C268.37 158.263 268.191 158.567 267.968 158.567C267.744 158.567 267.574 158.263 267.574 157.888C267.574 157.512 267.753 157.208 267.968 157.208C268.182 157.208 268.37 157.512 268.37 157.888Z" fill="#212121"/>
<path d="M264.945 157.566C264.945 157.941 264.775 158.246 264.552 158.246C264.328 158.246 264.158 157.941 264.158 157.566C264.158 157.19 264.328 156.895 264.552 156.895C264.775 156.895 264.945 157.199 264.945 157.566Z" fill="#212121"/>
<path d="M267.172 156.26C267.911 156.135 268.672 156.274 269.318 156.654" stroke="#212121" stroke-linecap="round" stroke-linejoin="round"/>
<path d="M264.999 162.225C265.57 162.355 266.163 162.365 266.739 162.254C267.314 162.143 267.861 161.914 268.343 161.581" stroke="#212121" stroke-linecap="round" stroke-linejoin="round"/>
<path d="M336.129 145.618H286.014V155.5H336.129V145.618Z" fill="white" stroke="#212121" stroke-linecap="round" stroke-linejoin="round"/>
<path d="M294.528 146.62L295.324 149.079H297.908L295.816 150.591L296.62 153.041L294.528 151.53L292.444 153.041L293.24 150.591L291.156 149.079H293.732L294.528 146.62Z" fill="#B75400"/>
<path d="M303.506 146.62L304.302 149.079H306.887L304.794 150.591L305.59 153.041L303.506 151.53L301.423 153.041L302.218 150.591L300.135 149.079H302.71L303.506 146.62Z" fill="#B75400"/>
<path d="M312.485 146.62L313.289 149.079H315.865L313.781 150.591L314.577 153.041L312.485 151.53L310.401 153.041L311.197 150.591L309.113 149.079H311.689L312.485 146.62Z" fill="#B75400"/>
<path d="M321.463 146.62L322.268 149.079H324.844L322.76 150.591L323.556 153.041L321.463 151.53L319.38 153.041L320.176 150.591L318.092 149.079H320.668L321.463 146.62Z" fill="#DBDBDB"/>
<path d="M330.451 146.62L331.247 149.079H333.822L331.738 150.591L332.534 153.041L330.451 151.53L328.358 153.041L329.154 150.591L327.07 149.079H329.655L330.451 146.62Z" fill="#DBDBDB"/>
<path d="M336.129 160.445H286.014V215.497H336.129V160.445Z" fill="white" stroke="#212121" stroke-linecap="round" stroke-linejoin="round"/>
<path d="M336.129 219.727H286.014V256.428H336.129V219.727Z" fill="white" stroke="#212121" stroke-linecap="round" stroke-linejoin="round"/>
<path d="M259.293 179.735H278.78" stroke="#212121" stroke-linecap="round" stroke-linejoin="round"/>
<path d="M259.293 202.315H278.78" stroke="#212121" stroke-linecap="round" stroke-linejoin="round"/>
<path d="M230.265 178.769H249.743" stroke="#212121" stroke-linecap="round" stroke-linejoin="round"/>
<path d="M230.265 156.51H249.743" stroke="#212121" stroke-linecap="round" stroke-linejoin="round"/>
<path d="M230.265 148.775H249.743" stroke="#212121" stroke-linecap="round" stroke-linejoin="round"/>
<path d="M259.293 208.906H278.78" stroke="#212121" stroke-linecap="round" stroke-linejoin="round"/>
<path d="M259.293 215.497H278.78" stroke="#212121" stroke-linecap="round" stroke-linejoin="round"/>
<path d="M259.293 222.079H278.78" stroke="#212121" stroke-linecap="round" stroke-linejoin="round"/>
<path d="M259.293 228.67H278.78" stroke="#212121" stroke-linecap="round" stroke-linejoin="round"/>
<path d="M259.293 235.26H278.78" stroke="#212121" stroke-linecap="round" stroke-linejoin="round"/>
<path d="M259.293 241.842H278.78" stroke="#212121" stroke-linecap="round" stroke-linejoin="round"/>
<path d="M259.293 248.433H278.78" stroke="#212121" stroke-linecap="round" stroke-linejoin="round"/>
<path d="M259.293 182.391H272.189" stroke="#212121" stroke-linecap="round" stroke-linejoin="round"/>
<path d="M286.014 189.143H254.017V197.612H286.014V189.143Z" fill="#B75400" stroke="#212121" stroke-linecap="round" stroke-linejoin="round"/>
<path d="M253.695 162.798H228.611V171.266H253.695V162.798Z" fill="#B75400" stroke="#212121" stroke-linecap="round" stroke-linejoin="round"/>
<path d="M289.305 165.149H313.773" stroke="#212121" stroke-linecap="round" stroke-linejoin="round"/>
<path d="M289.305 227.257H313.773" stroke="#212121" stroke-linecap="round" stroke-linejoin="round"/>
<path d="M289.305 174.557H302.952" stroke="#212121" stroke-linecap="round" stroke-linejoin="round"/>
<path d="M289.305 181.148H302.952" stroke="#212121" stroke-linecap="round" stroke-linejoin="round"/>
<path d="M289.305 187.73H302.952" stroke="#212121" stroke-linecap="round" stroke-linejoin="round"/>
<path d="M289.305 194.321H302.952" stroke="#212121" stroke-linecap="round" stroke-linejoin="round"/>
<path d="M289.305 200.911H302.952" stroke="#212121" stroke-linecap="round" stroke-linejoin="round"/>
<path d="M289.305 207.493H302.952" stroke="#212121" stroke-linecap="round" stroke-linejoin="round"/>
<path d="M309.069 174.557H322.715" stroke="#212121" stroke-linecap="round" stroke-linejoin="round"/>
<path d="M309.069 181.148H322.715" stroke="#212121" stroke-linecap="round" stroke-linejoin="round"/>
<path d="M309.069 187.73H322.715" stroke="#212121" stroke-linecap="round" stroke-linejoin="round"/>
<path d="M309.069 194.321H322.715" stroke="#212121" stroke-linecap="round" stroke-linejoin="round"/>
<path d="M309.069 200.911H322.715" stroke="#212121" stroke-linecap="round" stroke-linejoin="round"/>
<path d="M309.069 207.493H322.715" stroke="#212121" stroke-linecap="round" stroke-linejoin="round"/>
<path d="M289.305 167.966H324.128" stroke="#212121" stroke-linecap="round" stroke-linejoin="round"/>
<path d="M335.888 231.961H286.014V234.786H335.888V231.961Z" fill="#212121" stroke="#212121" stroke-linecap="round" stroke-linejoin="round"/>
<path d="M246.013 135.03V139.269" stroke="white" stroke-linecap="round" stroke-linejoin="round"/>
<path d="M272.519 135.03V139.269" stroke="white" stroke-linecap="round" stroke-linejoin="round"/>
<path d="M299.035 135.03V139.269" stroke="white" stroke-linecap="round" stroke-linejoin="round"/>
<path d="M325.541 135.03V139.269" stroke="white" stroke-linecap="round" stroke-linejoin="round"/>
<path d="M208.49 100.601H97.3136V224.851H208.49V100.601Z" fill="#212121" stroke="#212121" stroke-linecap="round" stroke-linejoin="round"/>
<path d="M205.726 94.3229H92.7975V221.364H205.726V94.3229Z" fill="white" stroke="#212121" stroke-linecap="round" stroke-linejoin="round"/>
<path d="M205.727 94.3229H118.195V221.364H205.727V94.3229Z" fill="white" stroke="#212121" stroke-linecap="round" stroke-linejoin="round"/>
<path d="M205.726 94.3229H92.7975V102.881H205.726V94.3229Z" fill="#212121" stroke="#212121" stroke-miterlimit="10"/>
<path d="M145.265 107.219H123.069V134.288H145.265V107.219Z" fill="#B75400" stroke="#212121" stroke-miterlimit="10"/>
<path d="M123.069 134.288L126.386 127.232L136.089 125.766L142.868 129.244L145.265 134.288H123.069Z" fill="white" stroke="#212121" stroke-linecap="round" stroke-linejoin="round"/>
<path d="M128.211 127.197L129.642 132.276L137.261 127.036L134.533 124.88L128.211 127.197Z" fill="white" stroke="#212121" stroke-linecap="round" stroke-linejoin="round"/>
<path d="M136.644 122.475L136.089 125.766L130.232 129.978L129.499 125.954L136.644 122.475Z" fill="#A1A1A1" stroke="#212121" stroke-linecap="round" stroke-linejoin="round"/>
<path d="M127.657 116.608C127.234 116.045 126.945 115.394 126.81 114.703C126.675 114.013 126.699 113.3 126.879 112.62C127.549 110.402 130.652 108.622 134.864 108.622C136.488 108.538 138.087 109.041 139.37 110.039C140.653 111.038 141.533 112.465 141.849 114.06C142.51 116.832 139.854 120.713 139.076 120.928C138.298 121.142 137.968 121.598 137.288 121.151C136.608 120.704 136.394 114.721 134.847 114.39C133.299 114.06 129.195 114.614 129.195 114.614L127.657 116.608Z" fill="#212121"/>
<path d="M127.63 117.288C127.63 117.288 127.29 124.925 129.776 126.231C132.262 127.536 137.377 123.02 137.949 122.439C138.522 121.858 140.292 121.956 140.292 119.452C140.292 116.948 137.744 118.12 137.744 118.12C137.744 118.12 136.054 117.556 135.857 116.796C135.66 116.036 136.93 114.936 136.635 114.248C136.063 112.897 132.253 110.93 129.767 112.459C127.281 113.988 127.63 117.288 127.63 117.288Z" fill="#A1A1A1" stroke="#212121" stroke-linecap="round" stroke-linejoin="round"/>
<path d="M128.506 117.359C128.778 117.246 129.076 117.21 129.367 117.258C129.658 117.305 129.93 117.433 130.151 117.628" stroke="#212121" stroke-linecap="round" stroke-linejoin="round"/>
<path d="M130.232 118.996L129.704 121.571L131.359 121.384" stroke="#212121" stroke-linecap="round" stroke-linejoin="round"/>
<path d="M133.031 119.3C133.031 119.676 132.852 119.971 132.628 119.971C132.405 119.971 132.235 119.676 132.235 119.3C132.235 118.924 132.414 118.62 132.628 118.62C132.843 118.62 133.031 118.924 133.031 119.3Z" fill="#212121"/>
<path d="M129.606 118.978C129.606 119.354 129.436 119.658 129.213 119.658C128.989 119.658 128.819 119.354 128.819 118.978C128.819 118.602 128.989 118.307 129.213 118.307C129.436 118.307 129.606 118.602 129.606 118.978Z" fill="#212121"/>
<path d="M131.833 117.673C132.572 117.547 133.332 117.686 133.979 118.066" stroke="#212121" stroke-linecap="round" stroke-linejoin="round"/>
<path d="M129.686 123.628C129.686 123.628 131.761 124.111 133.031 122.993" stroke="#212121" stroke-linecap="round" stroke-linejoin="round"/>
<path d="M200.79 107.031H150.675V116.912H200.79V107.031Z" fill="white" stroke="#212121" stroke-linecap="round" stroke-linejoin="round"/>
<path d="M156.551 108.533L157.347 110.983H159.922L157.838 112.503L158.634 114.954L156.551 113.433L154.467 114.954L155.263 112.503L153.179 110.983H155.755L156.551 108.533Z" fill="#B75400"/>
<path d="M165.529 108.533L166.325 110.983H168.9L166.817 112.503L167.613 114.954L165.529 113.433L163.445 114.954L164.241 112.503L162.158 110.983H164.733L165.529 108.533Z" fill="#919191"/>
<path d="M174.507 108.533L175.303 110.983H177.879L175.795 112.503L176.591 114.954L174.507 113.433L172.424 114.954L173.22 112.503L171.136 110.983H173.711L174.507 108.533Z" fill="#919191"/>
<path d="M183.486 108.533L184.282 110.983H186.857L184.774 112.503L185.57 114.954L183.486 113.433L181.402 114.954L182.198 112.503L180.115 110.983H182.69L183.486 108.533Z" fill="#919191"/>
<path d="M192.464 108.533L193.26 110.983H195.836L193.752 112.503L194.548 114.954L192.464 113.433L190.381 114.954L191.177 112.503L189.093 110.983H191.669L192.464 108.533Z" fill="#919191"/>
<path d="M200.79 121.849H150.675V176.9H200.79V121.849Z" fill="white" stroke="#212121" stroke-linecap="round" stroke-linejoin="round"/>
<path d="M200.79 181.139H150.675V217.84H200.79V181.139Z" fill="white" stroke="#212121" stroke-linecap="round" stroke-linejoin="round"/>
<path d="M123.954 141.147H143.44" stroke="#212121" stroke-linecap="round" stroke-linejoin="round"/>
<path d="M123.954 163.728H143.44" stroke="#212121" stroke-linecap="round" stroke-linejoin="round"/>
<path d="M94.9261 140.181H114.403" stroke="#212121" stroke-linecap="round" stroke-linejoin="round"/>
<path d="M94.9261 117.923H114.403" stroke="#212121" stroke-linecap="round" stroke-linejoin="round"/>
<path d="M94.9261 110.178H114.403" stroke="#212121" stroke-linecap="round" stroke-linejoin="round"/>
<path d="M123.954 170.318H143.44" stroke="#212121" stroke-linecap="round" stroke-linejoin="round"/>
<path d="M123.954 176.9H143.44" stroke="#212121" stroke-linecap="round" stroke-linejoin="round"/>
<path d="M123.954 183.491H143.44" stroke="#212121" stroke-linecap="round" stroke-linejoin="round"/>
<path d="M123.954 190.082H143.44" stroke="#212121" stroke-linecap="round" stroke-linejoin="round"/>
<path d="M123.954 196.664H143.44" stroke="#212121" stroke-linecap="round" stroke-linejoin="round"/>
<path d="M123.954 203.255H143.44" stroke="#212121" stroke-linecap="round" stroke-linejoin="round"/>
<path d="M123.954 209.845H143.44" stroke="#212121" stroke-linecap="round" stroke-linejoin="round"/>
<path d="M123.954 143.803H136.85" stroke="#212121" stroke-linecap="round" stroke-linejoin="round"/>
<path d="M150.675 150.555H118.678V159.024H150.675V150.555Z" fill="#B75400" stroke="#212121" stroke-linecap="round" stroke-linejoin="round"/>
<path d="M118.356 124.201H93.2715V132.67H118.356V124.201Z" fill="#B75400" stroke="#212121" stroke-linecap="round" stroke-linejoin="round"/>
<path d="M153.966 126.553H178.433" stroke="#212121" stroke-linecap="round" stroke-linejoin="round"/>
<path d="M153.966 188.669H178.433" stroke="#212121" stroke-linecap="round" stroke-linejoin="round"/>
<path d="M153.966 135.969H167.613" stroke="#212121" stroke-linecap="round" stroke-linejoin="round"/>
<path d="M153.966 142.551H167.613" stroke="#212121" stroke-linecap="round" stroke-linejoin="round"/>
<path d="M153.966 149.142H167.613" stroke="#212121" stroke-linecap="round" stroke-linejoin="round"/>
<path d="M153.966 155.733H167.613" stroke="#212121" stroke-linecap="round" stroke-linejoin="round"/>
<path d="M153.966 162.314H167.613" stroke="#212121" stroke-linecap="round" stroke-linejoin="round"/>
<path d="M153.966 168.905H167.613" stroke="#212121" stroke-linecap="round" stroke-linejoin="round"/>
<path d="M173.729 135.969H187.376" stroke="#212121" stroke-linecap="round" stroke-linejoin="round"/>
<path d="M173.729 142.551H187.376" stroke="#212121" stroke-linecap="round" stroke-linejoin="round"/>
<path d="M173.729 149.142H187.376" stroke="#212121" stroke-linecap="round" stroke-linejoin="round"/>
<path d="M173.729 155.733H187.376" stroke="#212121" stroke-linecap="round" stroke-linejoin="round"/>
<path d="M173.729 162.314H187.376" stroke="#212121" stroke-linecap="round" stroke-linejoin="round"/>
<path d="M173.729 168.905H187.376" stroke="#212121" stroke-linecap="round" stroke-linejoin="round"/>
<path d="M153.966 129.379H188.789" stroke="#212121" stroke-linecap="round" stroke-linejoin="round"/>
<path d="M200.549 193.373H150.675V196.199H200.549V193.373Z" fill="#212121" stroke="#212121" stroke-linecap="round" stroke-linejoin="round"/>
<path d="M110.674 96.4425V100.681" stroke="white" stroke-linecap="round" stroke-linejoin="round"/>
<path d="M137.18 96.4425V100.681" stroke="white" stroke-linecap="round" stroke-linejoin="round"/>
<path d="M163.696 96.4425V100.681" stroke="white" stroke-linecap="round" stroke-linejoin="round"/>
<path d="M190.202 96.4425V100.681" stroke="white" stroke-linecap="round" stroke-linejoin="round"/>
<path d="M281.865 55.5291H172.289V157.217H281.865V55.5291Z" fill="#212121" stroke="#212121" stroke-linecap="round" stroke-linejoin="round"/>
<path d="M279.638 28.3256H166.709V155.366H279.638V28.3256Z" fill="white" stroke="#212121" stroke-linecap="round" stroke-linejoin="round"/>
<path d="M279.638 28.3253H192.107V155.366H279.638V28.3253Z" fill="white" stroke="#212121" stroke-linecap="round" stroke-linejoin="round"/>
<path d="M279.638 28.3256H166.709V36.8838H279.638V28.3256Z" fill="#212121" stroke="#212121" stroke-miterlimit="10"/>
<path d="M219.176 41.2119H196.98V68.2816H219.176V41.2119Z" fill="#B75400" stroke="#212121" stroke-miterlimit="10"/>
<path d="M196.98 68.2815L200.674 62.0216L211.477 60.394L219.015 64.2663L219.176 68.2815H196.98Z" fill="#212121" stroke="#212121" stroke-linecap="round" stroke-linejoin="round"/>
<path d="M212.085 56.7275L211.476 60.3941L204.957 65.0801L204.143 60.5998L212.085 56.7275Z" fill="white" stroke="#212121" stroke-linecap="round" stroke-linejoin="round"/>
<path d="M202.713 50.6104C202.713 50.6104 201.085 59.9824 203.732 61.4133C206.379 62.8441 213.104 56.7273 213.721 56.1192C214.338 55.5111 217.594 54.6883 217.594 52.0413C217.594 49.3942 215.555 50.0023 215.555 50.0023C215.555 50.0023 216.771 46.5415 216.163 45.1106C215.555 43.6798 204.537 42.6693 201.899 44.2968C199.261 45.9244 202.713 50.6104 202.713 50.6104Z" fill="white" stroke="#212121" stroke-linecap="round" stroke-linejoin="round"/>
<path d="M216.163 45.1107C215.555 43.6888 204.537 42.6693 201.899 44.2969C199.261 45.9245 202.713 50.6105 202.713 50.6105C202.713 50.6105 203.938 51.4332 207.184 50.6105C210.43 49.7877 212.684 48.9829 212.684 48.9829C212.684 48.9829 210.001 52.0413 211.253 52.247L212.478 52.4437L212.89 54.6884L215.572 50.0024C215.572 50.0024 216.771 46.5415 216.163 45.1107Z" fill="#212121" stroke="#212121" stroke-linecap="round" stroke-linejoin="round"/>
<path d="M204.957 52.8553L204.054 57.1479L205.887 56.9511" stroke="#212121" stroke-linecap="round" stroke-linejoin="round"/>
<path d="M208.069 53.1949C208.069 53.6063 207.873 53.9461 207.622 53.9461C207.372 53.9461 207.184 53.6063 207.184 53.1949C207.184 52.7836 207.381 52.4437 207.622 52.4437C207.864 52.4437 208.069 52.7836 208.069 53.1949Z" fill="#212121"/>
<path d="M204.26 52.8374C204.26 53.2577 204.063 53.5975 203.821 53.5975C203.58 53.5975 203.383 53.2577 203.383 52.8374C203.383 52.4171 203.58 52.0862 203.821 52.0862C204.063 52.0862 204.26 52.426 204.26 52.8374Z" fill="#212121"/>
<path d="M206.746 51.3796C207.57 51.2455 208.414 51.4037 209.134 51.8267" stroke="#212121" stroke-linecap="round" stroke-linejoin="round"/>
<path d="M204.349 58.0152C204.349 58.0152 206.657 58.5518 208.07 57.3087" stroke="#212121" stroke-linecap="round" stroke-linejoin="round"/>
<path d="M274.702 41.0239H224.587V50.9057H274.702V41.0239Z" fill="white" stroke="#212121" stroke-linecap="round" stroke-linejoin="round"/>
<path d="M231.732 42.464L232.528 44.9143H235.103L233.02 46.4256L233.816 48.8759L231.732 47.3646L229.648 48.8759L230.444 46.4256L228.36 44.9143H230.936L231.732 42.464Z" fill="#B75400"/>
<path d="M240.71 42.464L241.506 44.9143H244.082L241.998 46.4256L242.794 48.8759L240.71 47.3646L238.627 48.8759L239.423 46.4256L237.339 44.9143H239.914L240.71 42.464Z" fill="#B75400"/>
<path d="M249.689 42.464L250.485 44.9143H253.06L250.977 46.4256L251.773 48.8759L249.689 47.3646L247.605 48.8759L248.401 46.4256L246.318 44.9143H248.893L249.689 42.464Z" fill="#B75400"/>
<path d="M258.667 42.464L259.463 44.9143H262.039L259.955 46.4256L260.751 48.8759L258.667 47.3646L256.584 48.8759L257.38 46.4256L255.296 44.9143H257.872L258.667 42.464Z" fill="#B75400"/>
<path d="M267.646 42.464L268.442 44.9143H271.027L268.934 46.4256L269.739 48.8759L267.646 47.3646L265.563 48.8759L266.358 46.4256L264.275 44.9143H266.85L267.646 42.464Z" fill="#DBDBDB"/>
<path d="M274.702 55.851H224.587V110.903H274.702V55.851Z" fill="white" stroke="#212121" stroke-linecap="round" stroke-linejoin="round"/>
<path d="M274.702 115.141H224.587V151.843H274.702V115.141Z" fill="white" stroke="#212121" stroke-linecap="round" stroke-linejoin="round"/>
<path d="M197.875 75.1405H217.352" stroke="#212121" stroke-linecap="round" stroke-linejoin="round"/>
<path d="M197.875 97.73H217.352" stroke="#212121" stroke-linecap="round" stroke-linejoin="round"/>
<path d="M168.838 74.1747H188.324" stroke="#212121" stroke-linecap="round" stroke-linejoin="round"/>
<path d="M168.838 51.9252H188.324" stroke="#212121" stroke-linecap="round" stroke-linejoin="round"/>
<path d="M168.838 44.1809H188.324" stroke="#212121" stroke-linecap="round" stroke-linejoin="round"/>
<path d="M197.875 104.312H217.352" stroke="#212121" stroke-linecap="round" stroke-linejoin="round"/>
<path d="M197.875 110.903H217.352" stroke="#212121" stroke-linecap="round" stroke-linejoin="round"/>
<path d="M197.875 117.493H217.352" stroke="#212121" stroke-linecap="round" stroke-linejoin="round"/>
<path d="M197.875 124.075H217.352" stroke="#212121" stroke-linecap="round" stroke-linejoin="round"/>
<path d="M197.875 130.666H217.352" stroke="#212121" stroke-linecap="round" stroke-linejoin="round"/>
<path d="M197.875 137.248H217.352" stroke="#212121" stroke-linecap="round" stroke-linejoin="round"/>
<path d="M197.875 143.839H217.352" stroke="#212121" stroke-linecap="round" stroke-linejoin="round"/>
<path d="M197.875 77.7966H210.77" stroke="#212121" stroke-linecap="round" stroke-linejoin="round"/>
<path d="M224.587 84.5485H192.59V93.0172H224.587V84.5485Z" fill="#B75400" stroke="#212121" stroke-linecap="round" stroke-linejoin="round"/>
<path d="M192.268 58.2032H167.183V66.672H192.268V58.2032Z" fill="#B75400" stroke="#212121" stroke-linecap="round" stroke-linejoin="round"/>
<path d="M227.887 60.5551H252.354" stroke="#212121" stroke-linecap="round" stroke-linejoin="round"/>
<path d="M227.887 122.662H252.354" stroke="#212121" stroke-linecap="round" stroke-linejoin="round"/>
<path d="M227.887 69.9626H241.524" stroke="#212121" stroke-linecap="round" stroke-linejoin="round"/>
<path d="M227.887 76.5535H241.524" stroke="#212121" stroke-linecap="round" stroke-linejoin="round"/>
<path d="M227.887 83.1444H241.524" stroke="#212121" stroke-linecap="round" stroke-linejoin="round"/>
<path d="M227.887 89.7263H241.524" stroke="#212121" stroke-linecap="round" stroke-linejoin="round"/>
<path d="M227.887 96.3169H241.524" stroke="#212121" stroke-linecap="round" stroke-linejoin="round"/>
<path d="M227.887 102.899H241.524" stroke="#212121" stroke-linecap="round" stroke-linejoin="round"/>
<path d="M247.641 69.9626H261.288" stroke="#212121" stroke-linecap="round" stroke-linejoin="round"/>
<path d="M247.641 76.5535H261.288" stroke="#212121" stroke-linecap="round" stroke-linejoin="round"/>
<path d="M247.641 83.1444H261.288" stroke="#212121" stroke-linecap="round" stroke-linejoin="round"/>
<path d="M247.641 89.7263H261.288" stroke="#212121" stroke-linecap="round" stroke-linejoin="round"/>
<path d="M247.641 96.3169H261.288" stroke="#212121" stroke-linecap="round" stroke-linejoin="round"/>
<path d="M247.641 102.899H261.288" stroke="#212121" stroke-linecap="round" stroke-linejoin="round"/>
<path d="M227.887 63.3811H262.701" stroke="#212121" stroke-linecap="round" stroke-linejoin="round"/>
<path d="M274.46 127.375H224.587V130.201H274.46V127.375Z" fill="#212121" stroke="#212121" stroke-linecap="round" stroke-linejoin="round"/>
<path d="M184.595 30.4448V34.6747" stroke="white" stroke-linecap="round" stroke-linejoin="round"/>
<path d="M211.101 30.4448V34.6747" stroke="white" stroke-linecap="round" stroke-linejoin="round"/>
<path d="M237.607 30.4448V34.6747" stroke="white" stroke-linecap="round" stroke-linejoin="round"/>
<path d="M264.114 30.4448V34.6747" stroke="white" stroke-linecap="round" stroke-linejoin="round"/>
</svg>
