<svg xmlns="http://www.w3.org/2000/svg" viewBox="0 0 144 94" fill="#b75400"><path d="M126.53 60.12H96.84a2.38 2.38 0 0 0-2.38 2.38v7.12h-4.75V62.5c0-1.31-1.06-2.38-2.37-2.38H57.66a2.38 2.38 0 0 0-2.38 2.38v7.12h-4.75V62.5a2.38 2.38 0 0 0-2.38-2.38H35.69v-35.7h14.84v7.12a2.38 2.38 0 0 0 2.38 2.38H92.1a2.37 2.37 0 0 0 2.37-2.38v-7.12h14.84v17.85c0 1.31 1.06 2.38 2.38 2.38s2.38-1.06 2.38-2.38V22.04a2.38 2.38 0 0 0-2.38-2.38H94.47v-7.12c0-1.31-1.06-2.37-2.37-2.37H52.91c-1.31 0-2.38 1.06-2.38 2.37v7.12H33.31a2.37 2.37 0 0 0-2.37 2.38v38.08H18.47c-1.31 0-2.37 1.06-2.37 2.37v19c0 1.31 1.06 2.37 2.37 2.37h29.69c1.31 0 2.38-1.06 2.38-2.37v-7.12h4.75v7.12a2.37 2.37 0 0 0 2.38 2.37h29.69c1.31 0 2.37-1.06 2.37-2.37v-7.12h4.75v7.12a2.37 2.37 0 0 0 2.38 2.37h29.69c1.31 0 2.38-1.06 2.38-2.37v-19a2.414 2.414 0 0 0-2.4-2.37zm-71.25-45.2h34.44v14.25H55.28V14.92zm-9.5 64.2H20.84V64.87h24.94v14.25zm39.19 0H60.03V64.87h24.94v14.25zm39.19 0H99.22V64.87h24.94v14.25z"/><path d="M111.69 49.62c-1.31 0-2.37 1.06-2.37 2.37v.24c0 1.31 1.06 2.37 2.37 2.37s2.38-1.06 2.38-2.37V52c-.01-1.31-1.07-2.38-2.38-2.38z"/></svg>
