<svg xmlns="http://www.w3.org/2000/svg" viewBox="0 0 144 94" fill="#b75400"><path d="M43.58 11.77h21.45v12.82H43.58zm37.6 0h21.45v12.82H81.18z" stroke="#b75400" stroke-width="1.213" stroke-linejoin="round" stroke-miterlimit="10" fill="#b75400"/><path d="M114.2 32.27v45.8H30.8v-45.8h83.4m2-5H28.8c-1.66 0-3 1.34-3 3v49.8c0 1.66 1.34 3 3 3h87.4c1.66 0 3-1.34 3-3v-49.8c0-1.65-1.34-3-3-3z"/><path d="M74.73 39.12c-1.52 0-1.01 3.24-1.01 3.24s-3.24 8.95-6.35 11.33c-.67.7-1.08 1.47-1.34 2.1-.06.15-.11.3-.16.44-.21.42-.65 1.07-1.6 1.65l3.1 13.5s4.8.62 9.62.52c1.93.15 3.97.17 5.6-.18 5.52-1.18 4.14-5.02 4.14-5.02 2.98-2.24 1.28-5.03 1.28-5.03 2.65-2.76.05-5.08.05-5.08s1.43-2.23-.42-3.92c-2.3-2.11-8.56-.71-8.56-.71-.44.07-.9.17-1.4.29 0 0-2.16 1.01 0-5.56 2.17-6.56-1.43-7.57-2.95-7.57zM65.14 70.4l-2.35-11.17c-.13-.64-.78-1.16-1.43-1.16h-4.49l-.01 13.49h7.33c.66 0 1.09-.52.95-1.16z"/></svg>
