<svg xmlns="http://www.w3.org/2000/svg" viewBox="0 0 144 94" fill="#b75400"><path d="M123.5 15.6v63.2H21.8V15.6h101.7m2-5H19.8c-1.7 0-3 1.3-3 3v67.2c0 1.7 1.3 3 3 3h105.7c1.7 0 3-1.3 3-3V13.6c0-1.6-1.4-3-3-3z" id="Layer_1"/><g id="Layer_2"><path d="M72.1 51.4l9.3-9.3L97 57.8l10.7-10.7c2.3 1.3 5.3.5 6.6-1.9 1.3-2.3.5-5.3-1.9-6.6-2.3-1.3-5.3-.5-6.6 1.9-.9 1.5-.8 3.4.1 4.9l-9 9-15.5-15.7-11 11c-.8-.5-1.7-.8-2.6-.8-2.7 0-4.8 2.2-4.8 4.8 0 2.7 2.2 4.8 4.8 4.8s4.8-2.2 4.8-4.8c.1-.8-.1-1.6-.5-2.3zm38.1-11c1.3 0 2.4 1.1 2.4 2.4s-1.1 2.4-2.4 2.4c-1.3 0-2.4-1.1-2.4-2.4s1-2.4 2.4-2.4zM67.9 56.1c-1.3 0-2.4-1.1-2.4-2.4 0-1.3 1.1-2.4 2.4-2.4 1.3 0 2.4 1.1 2.4 2.4 0 1.3-1.1 2.4-2.4 2.4zM42.3 35.8c6 0 10.9 4.9 10.9 10.9s-4.9 10.9-10.9 10.9-10.9-4.9-10.9-10.9 4.9-10.9 10.9-10.9m0-2.4c-7.3 0-13.3 6-13.3 13.3S35 60 42.3 60s13.3-6 13.3-13.3-6-13.3-13.3-13.3z"/><path d="M42.3 47.9c-.2 0-.5-.1-.7-.2-.3-.2-.6-.6-.6-1V34.6h2.4v10.2l9.2-4.1 1 2.2-10.9 4.8c-.1.2-.2.2-.4.2z"/><path transform="rotate(-45.001 46.527 50.935)" d="M45.3 45h2.4v12h-2.4z"/></g></svg>
