<svg xmlns="http://www.w3.org/2000/svg" viewBox="0 0 144 94"><style>.st5{fill:#b75400}.st7{display:none}.st8{display:inline;fill:#b75400}</style><path class="st5" d="M123.5 15.6v63.2H21.8V15.6h101.7m2-5H19.8c-1.7 0-3 1.3-3 3v67.2c0 1.7 1.3 3 3 3h105.7c1.7 0 3-1.3 3-3V13.6c0-1.6-1.4-3-3-3z" id="Layer_1"/><g class="st7" id="Layer_2"><path class="st8" d="M42.3 35.8c6 0 10.9 4.9 10.9 10.9s-4.9 10.9-10.9 10.9-10.9-4.9-10.9-10.9 4.9-10.9 10.9-10.9m0-2.4c-7.3 0-13.3 6-13.3 13.3S35 60 42.3 60s13.3-6 13.3-13.3-6-13.3-13.3-13.3z"/><path class="st8" d="M42.3 47.9c-.2 0-.5-.1-.7-.2-.3-.2-.6-.6-.6-1V34.6h2.4v10.2l9.2-4.1 1 2.2-10.9 4.8c-.1.2-.2.2-.4.2z"/><path transform="rotate(-45.001 46.527 50.935)" class="st8" d="M45.3 45h2.4v12h-2.4z"/></g><g id="Layer_3"><path class="st5" d="M42 45.6v-.5c0-.3-.1-.6-.1-.9-.6-2.8-3.1-4.9-6.2-4.9-3.5 0-6.3 2.8-6.3 6.3 0 1.1.3 2.2.8 3.1.1.2.3.4.4.6 1.1 1.6 3 2.6 5.1 2.6 3.5 0 6.3-2.8 6.3-6.3zm-11.9 0c0-3.1 2.5-5.6 5.6-5.6 2.8 0 5.1 2.1 5.5 4.8l-2 1.9c-.2-.1-.4-.2-.6-.2-.4 0-.8.2-1 .6l-3-1.2c0-.6-.6-1.2-1.2-1.2-.7 0-1.2.5-1.2 1.2 0 .2 0 .3.1.5L30.8 48c-.5-.6-.7-1.5-.7-2.4zm9 2.3c0 .3-.2.5-.5.5s-.5-.2-.5-.5.2-.5.5-.5.5.2.5.5zm-6.2-1.8c0-.3.2-.5.5-.5.2 0 .4.2.5.5 0 .3-.2.5-.5.5s-.5-.2-.5-.5zm2.8 5.1c-1.9 0-3.6-.9-4.6-2.4l1.6-1.7c.2.1.4.2.6.2.4 0 .8-.2 1-.5l3 1.2c0 .6.6 1.1 1.2 1.1.7 0 1.2-.5 1.2-1.2 0-.2 0-.3-.1-.5l1.5-1.5c0 2.9-2.4 5.3-5.4 5.3z"/><path class="st5" d="M49.8 56.4l-5.5-5.8-.5.5-.8-.7c.9-1.4 1.4-3 1.4-4.7 0-.8-.1-1.6-.3-2.4l1.2-1.2c.1 0 .3.1.4.1.7 0 1.2-.5 1.2-1.2 0-.2 0-.4-.1-.5l2.1-2.1v1.1h.7V37h-2.3v.7h1l-2.1 2.1c-.2-.1-.4-.1-.6-.1-.7 0-1.2.5-1.2 1.2 0 .3.1.5.2.7l-.9.9c-1.3-3.2-4.4-5.5-8-5.5-4.8 0-8.6 3.9-8.6 8.6 0 1.7.5 3.4 1.5 4.8l-.7.7c-.1-.1-.3-.1-.4-.1-.7 0-1.2.5-1.2 1.2s.5 1.2 1.2 1.2 1.2-.5 1.2-1.2c0-.2-.1-.5-.2-.6l.5-.6c1.6 2 4 3.2 6.7 3.2 1.7 0 3.3-.5 4.7-1.4l.7.7-.5.5 5.5 5.8c.5.5 1.1.8 1.8.8s1.3-.3 1.8-.7c.5-.5.8-1.1.8-1.8 0-.6-.3-1.2-.7-1.7zm-4.2-15.9c.3 0 .5.2.5.5s-.2.5-.5.5-.5-.2-.5-.5c.1-.3.3-.5.5-.5zM27.4 52.8c-.3 0-.5-.2-.5-.5s.2-.5.5-.5c.2 0 .4.2.5.5 0 .3-.2.5-.5.5zm2.1-2.2c-.2-.2-.3-.4-.4-.6-.8-1.3-1.3-2.8-1.3-4.3 0-4.4 3.5-7.9 7.9-7.9 3.4 0 6.4 2.2 7.5 5.3.1.3.2.5.2.8.1.6.2 1.2.2 1.8 0 1.6-.5 3.2-1.4 4.5l-2.3 2.2c-1.3.8-2.7 1.2-4.2 1.2-2.5 0-4.8-1.2-6.2-3zM41 52.5c.6-.4 1.1-1 1.5-1.5l.7.7-1.6 1.5-.6-.7zm1.4 1l1.9-1.8.6.6-2.6 2.5-.6-.6.7-.7zm6.8 6c-.3.3-.8.5-1.2.5-.5 0-1-.2-1.3-.6l-3.9-4 2.6-2.5 3.9 4.1c.3.3.5.8.5 1.3-.1.4-.3.8-.6 1.2z"/><path class="st5" d="M36.9 42.2l.2-.7c-2.6-.9-4.4.8-4.4.9l.5.5c.1 0 1.6-1.4 3.7-.7zm1.7.1c-.2-.1-.4-.3-.5-.4l-.4.6s.3.2.5.4l.4-.6z"/><g><path class="st5" d="M71.8 60.7c-.5 0-1 0-1.5-.1H70l-.9-2.6-.5-.2c-.3-.1-.6-.2-.9-.4l-.5-.2-2.4 1.2-.2-.2c-.8-.6-1.5-1.3-2.1-2.1l-.2-.2 1.2-2.4-.2-.5c-.1-.3-.3-.6-.4-.9l-.2-.5-2.5-.9v-.3c-.1-.6-.1-1-.1-1.5s0-.9.1-1.5v-.3l2.5-.9.2-.5c.1-.3.2-.6.4-.9l.2-.5-1.2-2.4.2-.2c.6-.8 1.3-1.5 2.1-2.1l.2-.2 2.4 1.2.5-.2c.3-.1.6-.3.9-.4l.5-.2.9-2.5h.3c1.1-.1 1.9-.1 3 0h.3l.9 2.5.5.2c.3.1.6.2.9.4l.5.2 2.4-1.2.2.2c.8.6 1.5 1.3 2.1 2.1l.2.2-1.2 2.4.2.5c.1.3.3.6.4.9l.2.5 2.5.9v.3c.1.6.1 1 .1 1.5s0 1-.1 1.5v.3l-2.5.9-.2.5c-.1.3-.2.6-.4.9l-.2.5 1.2 2.4-.2.2c-.6.8-1.3 1.5-2.1 2.1l-.2.2-2.4-1.2-.5.2c-.3.1-.6.3-.9.4l-.5.2-.9 2.5h-.3c-.5.2-1 .2-1.5.2zm-1.1-1c.8.1 1.4.1 2.2 0l.9-2.4.9-.3c.3-.1.5-.2.8-.3l.9-.4 2.3 1.1c.6-.5 1.1-1 1.6-1.6l-1.1-2.3.4-.9c.1-.3.2-.5.3-.8l.3-.9 2.4-.9c0-.4.1-.8.1-1.1 0-.4 0-.7-.1-1.1l-2.4-.9-.3-.9c-.1-.3-.2-.5-.3-.8l-.4-.9 1.1-2.3c-.5-.6-1-1.1-1.6-1.6l-2.3 1.1-.9-.4c-.3-.1-.5-.2-.8-.3l-.9-.3-.9-2.5c-.8-.1-1.4-.1-2.2 0l-.9 2.4-.9.3c-.3.1-.6.2-.8.3l-.9.4-2.3-1.1c-.6.5-1.1 1-1.6 1.6l1.1 2.3-.4 1c-.1.3-.2.5-.3.8l-.3.9-2.4.9c0 .4-.1.8-.1 1.1s0 .7.1 1.1l2.4.9.3.9c.1.3.2.5.3.8l.4.9-1.1 2.3c.5.6 1 1.1 1.6 1.6l2.3-1.1.9.4c.3.1.5.2.8.3l.9.3.9 2.4z"/><path class="st5" d="M71.8 54.2c-3.1 0-5.6-2.5-5.6-5.6 0-3.1 2.5-5.6 5.6-5.6 3.1 0 5.6 2.5 5.6 5.6 0 3.1-2.5 5.6-5.6 5.6zm0-10.3c-2.6 0-4.7 2.1-4.7 4.7s2.1 4.7 4.7 4.7 4.7-2.1 4.7-4.7-2.1-4.7-4.7-4.7z"/></g><g><path class="st5" d="M93.4 39.2L95 42c.1.1.1.2.2.2l1.5.4 5.1 5.1.6-.6-5.1-5.1c-.1-.1-.1-.1-.2-.1l-1.4-.4-1.4-2.5 1.2-1.2 2.4 1.3.4 1.4c0 .1.1.1.1.2l5.1 5.1.6-.6-5.1-5.1-.4-1.5c0-.1-.1-.2-.2-.2l-2.8-1.6c-.2-.1-.3-.1-.5.1l-1.6 1.6c-.1.3-.1.5-.1.7zM109.9 44.8l-8.7 8.7-.6-.6 8.7-8.7.6.6zM99.6 53.8c-.1-.1-.2-.2-.3-.2h-2.4c-.1 0-.3.1-.3.2l-1.2 2c-.1.1-.1.3 0 .4l1.2 2c.1.1.2.2.3.2h2.4c.1 0 .3-.1.3-.2l1.2-2c.1-.1.1-.3 0-.4l-1.2-2zm-.5 3.7h-1.9l-1-1.5.9-1.6H99l1 1.6-.9 1.5z"/><path class="st5" d="M112.3 46.5c2.6 0 4.7-2.1 4.7-4.7 0-.4 0-.8-.1-1.2-.1-.2-.3-.3-.5-.3-.1 0-.1.1-.2.1l-2.5 2.5-2-.6-.7-1.9 2.5-2.5c.2-.2.2-.4 0-.6-.1-.1-.1-.1-.2-.1-2.5-.6-5.1.9-5.7 3.4-.1.4-.1.8-.1 1.2 0 .3 0 .6.1.9L99 51.3c-.3-.1-.6-.1-.9-.1-2.6 0-4.7 2.1-4.7 4.7s2.1 4.7 4.7 4.7 4.7-2.1 4.7-4.7c0-.3 0-.6-.1-.9l2.1-2.1.9.9c.2.2.4.2.6 0l.2-.2c.2-.2.5-.2.6 0 .2.2.2.5 0 .6l-.2.2c-.2.2-.2.4 0 .6l4.7 4.7c1.2 1.3 3.3 1.3 4.5 0 1.3-1.2 1.3-3.3 0-4.5l-4.7-4.7c-.2-.2-.4-.2-.6 0l-.2.2c-.2.2-.5.2-.6 0-.2-.2-.2-.5 0-.6l.2-.2c.2-.2.2-.4 0-.6l-.9-.9 2.1-2.1c.3.1.6.2.9.2zm1.6 13.4c-.3 0-.6-.1-.8-.2l3.1-3.1c.5 1.2-.2 2.6-1.4 3.1-.3.2-.6.2-.9.2zm-4.5-10.3c-.4.5-.4 1.3.2 1.7.5.4 1.1.4 1.6 0l4.4 4.4s.1.1.1.2l-3.4 3.4c-.1 0-.1-.1-.2-.1l-4.4-4.4c.4-.5.4-1.3-.2-1.7-.5-.4-1.1-.4-1.6 0l-.6-.6 3.4-3.4.7.5zm1.6-3.9l-9 9c-.1.1-.1.2-.1.4.5 2.1-.7 4.3-2.9 4.8-2.1.5-4.3-.7-4.8-2.9-.5-2.1.7-4.3 2.9-4.8.6-.2 1.3-.2 2 0 .1 0 .3 0 .4-.1l9-9c.1-.1.1-.2.1-.4-.5-2.1.7-4.2 2.8-4.8.4-.1.8-.1 1.2-.1l-2.1 2.1c-.1.1-.1.3-.1.4l.8 2.4c0 .1.1.2.2.2l2.4.8c.1 0 .3 0 .4-.1l2.1-2.1v.2c0 2.2-1.7 3.9-3.9 3.9-.3 0-.7 0-1-.1-.1 0-.3.1-.4.2z"/><path class="st5" d="M113.8 56.9l-.6.6-3.9-3.9.6-.6 3.9 3.9z"/></g><g class="st7"><path class="st5" d="M41.4 32.4v-.3c0-.2 0-.5-.1-.7-.5-2.1-2.4-3.8-4.7-3.8-2.6 0-4.8 2.1-4.8 4.8 0 .9.2 1.6.6 2.3.1.2.2.3.3.5.9 1.2 2.3 2 3.9 2 2.7 0 4.8-2.1 4.8-4.8zm-9 0c0-2.3 1.9-4.2 4.2-4.2 2.1 0 3.9 1.6 4.2 3.7l-1.5 1.5c-.1-.1-.3-.1-.5-.1-.3 0-.6.2-.8.4l-2.3-.9c0-.5-.4-.9-.9-.9s-.9.4-.9.9c0 .1 0 .2.1.3l-1.2 1.2c-.2-.6-.4-1.2-.4-1.9zm6.8 1.7c0 .2-.2.4-.4.4s-.4-.2-.4-.4.2-.4.4-.4c.3 0 .4.2.4.4zm-4.6-1.3c0-.2.2-.4.4-.3.2 0 .3.2.3.3 0 .2-.2.4-.4.4-.2-.1-.3-.2-.3-.4zm2.1 3.8c-1.4 0-2.7-.7-3.5-1.8l1.2-1.3c.1.1.3.1.5.1.3 0 .6-.2.8-.4l2.3.9c0 .5.4.9.9.9s.9-.4.9-.9c0-.1 0-.3-.1-.4l1.2-1.1c-.1 2.2-2 4-4.2 4z"/><path class="st5" d="M47.3 40.6l-4.2-4.4-.4.4-.5-.6c.7-1.1 1.1-2.3 1.1-3.6 0-.6-.1-1.2-.3-1.8l.9-.9c.1 0 .2.1.3.1.5 0 .9-.4.9-.9 0-.1 0-.3-.1-.4l1.6-1.6v.8h.6v-1.8h-1.7v.6h.8L44.6 28c-.1-.1-.3-.1-.4-.1-.5 0-.9.4-.9.9 0 .2.1.4.2.5l-.7.7c-1-2.4-3.3-4.2-6.1-4.2-3.6 0-6.6 2.9-6.6 6.6 0 1.3.4 2.6 1.1 3.7l-.5.5c-.1 0-.2-.1-.3-.1-.5 0-.9.4-.9.9s.4.9.9.9.9-.4.9-.9c0-.2-.1-.3-.1-.5l.4-.4c1.2 1.5 3 2.4 5.1 2.4 1.3 0 2.5-.4 3.5-1l.5.6-.4.4 4.2 4.4c.4.4.9.6 1.4.6.5 0 1-.2 1.3-.5.4-.4.6-.8.6-1.4.1-.6-.1-1-.5-1.4zm-3.1-12.1c.2 0 .4.2.4.4s-.2.4-.4.4-.4-.2-.4-.4c.1-.3.2-.4.4-.4zm-13.8 9.3c-.2 0-.4-.2-.4-.4s.2-.3.4-.3.3.2.3.3c0 .3-.1.4-.3.4zm1.6-1.7c-.1-.1-.2-.3-.3-.5-.6-1-1-2.1-1-3.3 0-3.3 2.7-6 6-6 2.6 0 4.8 1.7 5.7 4 .1.2.1.4.2.6.1.5.2.9.2 1.4 0 1.2-.4 2.4-1.1 3.4L40 37.4c-1 .6-2.1.9-3.2.9-2 .1-3.7-.8-4.8-2.2zm8.7 1.5c.4-.3.8-.7 1.2-1.2l.5.5-1.2 1.1-.5-.4zm1 .8l1.4-1.3.4.5-2 1.9-.5-.5c.1-.1.7-.6.7-.6zm5.2 4.5c-.3.2-.6.4-.9.4-.4 0-.7-.2-1-.4l-3-3.1 2-1.9 3 3.1c.3.3.4.6.4 1-.1.3-.2.7-.5.9z"/><path class="st5" d="M37.6 29.8l.2-.5c-1.9-.7-3.3.6-3.4.7l.4.4c0-.1 1.2-1.1 2.8-.6zm1.3.1c-.1-.1-.3-.2-.4-.3l-.4.4s.2.2.4.3l.4-.4zM72.1 43.9c-.4 0-.7 0-1.1-.1h-.2l-.7-1.9-.4-.1c-.2-.1-.5-.2-.7-.3l-.4-.2-1.8.9-.2-.2c-.6-.5-1.1-1-1.6-1.6l-.1-.2.9-1.8-.2-.4c-.1-.2-.2-.5-.3-.7l-.1-.4-1.9-.7V36c-.1-.4-.1-.8-.1-1.1 0-.4 0-.7.1-1.1v-.2l1.9-.7.1-.4c.1-.2.2-.5.3-.7l.2-.4-.9-1.9.1-.2c.5-.6 1-1.1 1.6-1.6l.2-.1 1.9.9.4-.2c.2-.1.4-.2.7-.3l.4-.1.7-1.9h.2c.8-.1 1.4-.1 2.3 0h.2l.7 1.9.4.1c.2.1.5.2.7.3l.4.2 1.8-.9.2.1c.6.5 1.1 1 1.6 1.6l.1.2-.9 1.9.2.4c.1.2.2.4.3.7l.1.4 1.9.7v.2c.1.4.1.8.1 1.1 0 .4 0 .7-.1 1.1v.2l-1.9.7-.1.4c-.1.2-.2.5-.3.7l-.2.4.9 1.8-.1.2c-.5.6-1 1.1-1.6 1.6l-.2.1-1.9-.9-.4.2c-.2.1-.4.2-.7.3l-.4.1-.7 1.9h-.2c-.5.1-.8.2-1.2.2zm-.8-.8c.6.1 1.1.1 1.7 0l.7-1.8.7-.2.6-.3.7-.3 1.8.8 1.2-1.2-.8-1.8.3-.7.3-.6.2-.7 1.8-.7v-.8-.8l-1.8-.7-.2-.7-.3-.6-.3-.7.8-1.8-1.2-1.2-1.8.8-.7-.3-.6-.3-.7-.2-.7-1.7c-.6-.1-1.1-.1-1.7 0l-.7 1.8-.7.2-.6.3-.7.3-1.8-.8-1.2 1.2.8 1.8-.2.6-.3.6-.2.7-1.8.7c0 .3-.1.6-.1.8s0 .5.1.8l1.8.7.2.7.3.6.3.7-.8 1.8 1.2 1.2 1.8-.8.7.3.6.3.7.2.6 1.8z"/><path class="st5" d="M72.1 38.9c-2.4 0-4.3-1.9-4.3-4.3s1.9-4.3 4.3-4.3 4.3 1.9 4.3 4.3-1.9 4.3-4.3 4.3zm0-7.8c-2 0-3.6 1.6-3.6 3.6s1.6 3.6 3.6 3.6 3.6-1.6 3.6-3.6-1.6-3.6-3.6-3.6z"/><g><path class="st5" d="M96.6 27.5l1.2 2.1c0 .1.1.1.2.1l1.1.3 3.8 3.8.4-.4-3.9-3.9-.1-.1-1.1-.3-1-1.8.9-.9 1.8 1 .3 1.1c0 .1 0 .1.1.1l3.9 3.9.4-.4-3.8-3.8-.3-1.1c0-.1-.1-.1-.1-.2l-2.1-1.2c-.1-.1-.3 0-.4 0L96.7 27c-.1.2-.2.4-.1.5zM109.1 31.8l-6.6 6.6-.4-.4 6.6-6.6.4.4zM101.3 38.6c-.1-.1-.2-.1-.3-.1h-1.8c-.1 0-.2.1-.3.1l-.9 1.5c-.1.1-.1.2 0 .3l.9 1.5c.1.1.2.1.3.1h1.8c.1 0 .2-.1.3-.1l.9-1.5c.1-.1.1-.2 0-.3l-.9-1.5zm-.4 2.8h-1.5l-.7-1.2.7-1.2h1.5l.7 1.2-.7 1.2z"/><path class="st5" d="M111 33c2 0 3.6-1.6 3.6-3.6 0-.3 0-.6-.1-.9 0-.2-.2-.3-.4-.2-.1 0-.1 0-.1.1l-1.9 1.9-1.5-.5-.5-1.5 1.9-1.9c.1-.1.1-.3 0-.4l-.1-.1c-1.9-.5-3.9.7-4.4 2.6-.1.3-.1.6-.1.9 0 .2 0 .5.1.7l-6.6 6.6c-.2 0-.5-.1-.7-.1-2 0-3.6 1.6-3.6 3.6s1.6 3.6 3.6 3.6 3.6-1.6 3.6-3.6c0-.2 0-.5-.1-.7l1.6-1.6.7.7c.1.1.3.1.4 0l.1-.1c.1-.1.3-.1.5 0 .1.1.1.3 0 .5l-.1.1c-.1.1-.1.3 0 .4l3.6 3.6c.9.9 2.5 1 3.4 0 .9-.9 1-2.5 0-3.4l-3.6-3.6c-.1-.1-.3-.1-.4 0l-.1.1c-.1.1-.3.1-.5 0-.1-.1-.1-.3 0-.5l.2-.1c.1-.1.1-.3 0-.4l-.7-.7 1.6-1.6c.1.1.3.1.6.1zm1.1 10.2c-.2 0-.4 0-.6-.1l2.3-2.3c.4.9-.1 2-1.1 2.3-.1.1-.3.1-.6.1zm-3.4-7.7c-.3.4-.3 1 .1 1.3.3.3.9.3 1.2 0l3.4 3.4.1.1-2.6 2.6-.1-.1-3.4-3.4c.3-.4.3-1-.1-1.3-.3-.3-.9-.3-1.2 0l-.5-.5 2.6-2.6.5.5zm1.3-3.1l-6.8 6.8c-.1.1-.1.2-.1.3.4 1.6-.6 3.3-2.2 3.7-1.6.4-3.3-.6-3.7-2.2-.4-1.6.6-3.3 2.2-3.7.5-.1 1-.1 1.5 0 .1 0 .2 0 .3-.1l6.8-6.8c.1-.1.1-.2.1-.3-.4-1.6.6-3.2 2.2-3.6.3-.1.6-.1.9-.1l-1.6 1.6c-.1.1-.1.2-.1.3l.6 1.8c0 .1.1.2.2.2l1.8.6c.1 0 .2 0 .3-.1l1.6-1.6v.2c0 1.6-1.3 3-3 3-.3 0-.5 0-.8-.1-.1 0-.2.1-.2.1z"/><path class="st5" d="M112.1 40.9l-.4.4-3-3 .4-.4 3 3z"/></g><path class="st8" d="M28.4 47h20.4v25H28.4zM61.9 47h20.4v25H61.9zM95.4 47h20.4v25H95.4z"/></g></g></svg>