<svg xmlns="http://www.w3.org/2000/svg" viewBox="0 0 144 94" fill="#b75400"><path d="M123.19 17.61v63.16H21.48V17.61h101.71m2-5H19.48c-1.66 0-3 1.34-3 3v67.16c0 1.66 1.34 3 3 3h105.71c1.66 0 3-1.34 3-3V15.61c0-1.66-1.34-3-3-3z"/><path d="M113.66 42.82H31.01c-.55 0-1-.45-1-1V25.78c0-.55.45-1 1-1h82.65c.55 0 1 .45 1 1v16.04c0 .56-.44 1-1 1zM49.06 74H31.01c-.55 0-1-.45-1-1V50.76c0-.55.45-1 1-1h18.05c.55 0 1 .45 1 1V73c0 .55-.45 1-1 1zm27.75 0H58.77c-.55 0-1-.45-1-1V50.76c0-.55.45-1 1-1h18.05c.55 0 1 .45 1 1V73c-.01.55-.45 1-1.01 1zm36.85 0H86.24c-.55 0-1-.45-1-1V50.76c0-.55.45-1 1-1h27.42c.55 0 1 .45 1 1V73c0 .55-.44 1-1 1z"/></svg>
