<svg width="358" height="301" viewBox="0 0 358 301" fill="none" xmlns="http://www.w3.org/2000/svg">
<path d="M292.902 290.638L228.275 274.071H289.284L355.385 290.638H292.902Z" fill="#B75400"/>
<path d="M62.6431 290.638L127.271 274.071H66.2704L0.160645 290.638H62.6431Z" fill="#B75400"/>
<path d="M180.755 221.72C180.755 221.72 180.694 221.415 180.598 220.848" stroke="#212121" stroke-width="0.893379" stroke-miterlimit="10"/>
<path d="M180.31 219.139C179.377 213.097 177.799 198.021 183.719 191.29C191.227 182.771 200.225 190.069 225.302 191.29C250.378 192.511 263.283 188.857 263.545 167.356C263.806 145.854 249.097 144.432 249.097 144.432H239.802" stroke="#212121" stroke-width="0.893379" stroke-miterlimit="10" stroke-dasharray="1.79 1.79"/>
<path d="M238.921 144.467H238.049" stroke="#212121" stroke-width="0.893379" stroke-miterlimit="10"/>
<path d="M238.049 78.4187H238.921" stroke="#212121" stroke-width="0.893379" stroke-miterlimit="10"/>
<path d="M240.665 78.4187H272.055C272.055 78.4187 281.515 79.2383 281.123 90.1549C280.73 101.071 264.992 111.299 265.995 133.097C266.997 154.896 304.194 151.643 309.26 173.468C314.326 195.292 277.112 194.202 273.65 205.468C272.562 207.993 272.027 210.722 272.081 213.472C272.081 217.134 272.081 225.836 272.081 229.559" stroke="#212121" stroke-width="0.893379" stroke-miterlimit="10" stroke-dasharray="1.79 1.79"/>
<path d="M272.081 230.44V231.312" stroke="#212121" stroke-width="0.893379" stroke-miterlimit="10"/>
<path d="M122.501 16.6337H121.629" stroke="#212121" stroke-width="0.893379" stroke-miterlimit="10"/>
<path d="M119.894 16.6338H104.522C104.522 16.6338 62.6693 16.1542 62.6693 51.5109C62.6693 67.8771 68.3543 80.1102 85.2 100.217C102.046 120.324 101.767 183.172 96.2909 194.446C90.8152 205.72 79.2011 204.038 75.1205 210.141C75.1205 210.141 72.1821 213.219 71.9292 216.977C71.7287 219.933 71.842 229.62 71.9292 233.596" stroke="#212121" stroke-width="0.893379" stroke-miterlimit="10" stroke-dasharray="1.78 1.78"/>
<path d="M71.8856 234.511C71.8856 235.061 71.8856 235.383 71.8856 235.383" stroke="#212121" stroke-width="0.893379" stroke-miterlimit="10"/>
<path d="M131.909 62.1572C130.026 62.16 128.176 62.6592 126.547 63.6046C126.697 62.7672 126.773 61.9181 126.774 61.0673C126.776 57.372 125.399 53.8089 122.911 51.0765C120.423 48.3441 117.005 46.6394 113.325 46.2967C109.646 45.954 105.971 46.9979 103.022 49.2239C100.072 51.4498 98.0604 54.6972 97.3808 58.3294C95.5917 57.6765 93.6815 57.4221 91.7839 57.5841C89.8862 57.7461 88.0469 58.3207 86.3944 59.2675C84.7419 60.2144 83.3161 61.5107 82.2167 63.0659C81.1173 64.6211 80.3708 66.3976 80.0294 68.2713C79.6881 70.1451 79.76 72.0707 80.2403 73.9137C80.7205 75.7567 81.5975 77.4726 82.8099 78.9414C84.0223 80.4102 85.5408 81.5965 87.2594 82.4174C88.978 83.2383 90.8551 83.6739 92.7595 83.6939H131.918C134.774 83.6939 137.513 82.5594 139.532 80.5399C141.552 78.5204 142.686 75.7815 142.686 72.9255C142.686 70.0696 141.552 67.3306 139.532 65.3112C137.513 63.2917 134.774 62.1572 131.918 62.1572H131.909Z" fill="white" stroke="#212121" stroke-width="0.893379" stroke-miterlimit="10"/>
<path d="M297.445 105.911C295.437 105.912 293.464 106.441 291.725 107.445C291.879 106.555 291.958 105.654 291.961 104.751C291.962 100.818 290.494 97.026 287.845 94.1186C285.196 91.2111 281.557 89.3975 277.641 89.033C273.725 88.6686 269.814 89.7796 266.674 92.1483C263.534 94.5171 261.392 97.9729 260.667 101.839C258.757 101.13 256.714 100.848 254.683 101.013C252.652 101.178 250.681 101.786 248.911 102.794C247.14 103.802 245.611 105.186 244.432 106.849C243.254 108.511 242.454 110.412 242.088 112.416C241.723 114.421 241.801 116.482 242.317 118.453C242.834 120.424 243.776 122.259 245.077 123.827C246.378 125.395 248.008 126.659 249.85 127.53C251.692 128.401 253.703 128.858 255.741 128.869H297.445C300.486 128.869 303.402 127.66 305.553 125.51C307.703 123.36 308.911 120.444 308.911 117.403C308.911 114.362 307.703 111.445 305.553 109.295C303.402 107.145 300.486 105.937 297.445 105.937V105.911Z" fill="white" stroke="#212121" stroke-width="0.893379" stroke-miterlimit="10"/>
<path d="M290.034 131.789H293.522" stroke="#212121" stroke-width="0.893379" stroke-linecap="round" stroke-linejoin="round"/>
<path d="M273.031 131.789H285.238" stroke="#212121" stroke-width="0.893379" stroke-linecap="round" stroke-linejoin="round"/>
<path d="M261.487 89.6666C263.272 88.166 265.476 87.2526 267.799 87.0508" stroke="#212121" stroke-width="0.893379" stroke-linecap="round" stroke-linejoin="round"/>
<path d="M257.336 96.0404C257.651 94.6616 258.244 93.3618 259.08 92.2213" stroke="#212121" stroke-width="0.893379" stroke-linecap="round" stroke-linejoin="round"/>
<path d="M124.934 158.994C121.915 158.996 118.95 159.793 116.337 161.304C116.575 159.966 116.695 158.609 116.694 157.25C116.698 151.338 114.494 145.638 110.513 141.268C106.532 136.897 101.062 134.172 95.1754 133.626C89.2889 133.08 83.4109 134.753 78.6942 138.317C73.9775 141.881 70.7625 147.079 69.6796 152.89C66.8161 151.84 63.7574 151.427 60.7179 151.683C57.6784 151.938 54.7314 152.855 52.0835 154.369C49.4355 155.883 47.1505 157.958 45.3886 160.448C43.6267 162.938 42.4304 165.783 41.8835 168.784C41.3366 171.785 41.4523 174.869 42.2226 177.82C42.9928 180.771 44.399 183.519 46.3426 185.87C48.2862 188.221 50.7202 190.118 53.4742 191.429C56.2282 192.741 59.2355 193.434 62.2857 193.461H124.934C129.435 193.36 133.718 191.501 136.866 188.281C140.013 185.062 141.776 180.739 141.776 176.236C141.776 171.734 140.013 167.41 136.866 164.191C133.718 160.972 129.435 159.113 124.934 159.011V158.994Z" fill="white" stroke="#212121" stroke-width="0.893379" stroke-miterlimit="10"/>
<path d="M46.1986 191.708C47.0758 192.291 47.9937 192.81 48.9452 193.261" stroke="#212121" stroke-width="0.893379" stroke-linecap="round" stroke-linejoin="round"/>
<path d="M39.3539 183.669C40.189 185.655 41.4033 187.459 42.9289 188.979" stroke="#212121" stroke-width="0.893379" stroke-linecap="round" stroke-linejoin="round"/>
<path d="M78.0066 132.226C81.6282 129.733 85.9716 128.507 90.3618 128.738" stroke="#212121" stroke-width="0.893379" stroke-linecap="round" stroke-linejoin="round"/>
<path d="M74.2311 135.713C74.8388 134.919 75.5285 134.192 76.2888 133.542" stroke="#212121" stroke-width="0.893379" stroke-linecap="round" stroke-linejoin="round"/>
<path d="M238.049 73.5969H233.908V84.5484H238.049V73.5969Z" fill="#212121" stroke="#212121" stroke-width="0.893379" stroke-miterlimit="10"/>
<path d="M238.049 138.198H233.908V149.15H238.049V138.198Z" fill="#212121" stroke="#212121" stroke-width="0.893379" stroke-miterlimit="10"/>
<path d="M126.643 10.2336H122.501V21.1851H126.643V10.2336Z" fill="#212121" stroke="#212121" stroke-width="0.893379" stroke-miterlimit="10"/>
<path d="M126.643 106.312H122.501V117.263H126.643V106.312Z" fill="#212121" stroke="#212121" stroke-width="0.893379" stroke-miterlimit="10"/>
<path d="M235.268 4.17383H126.25V27.7857H235.268V4.17383Z" fill="white" stroke="#212121" stroke-width="0.893379" stroke-miterlimit="10"/>
<path d="M206.625 10.1989H131.491V21.7606H206.625V10.1989Z" fill="#B75400" stroke="#212121" stroke-width="0.893379" stroke-miterlimit="10"/>
<path d="M216.8 18.3863C218.409 18.3863 219.713 17.0824 219.713 15.474C219.713 13.8656 218.409 12.5618 216.8 12.5618C215.192 12.5618 213.888 13.8656 213.888 15.474C213.888 17.0824 215.192 18.3863 216.8 18.3863Z" fill="white" stroke="#212121" stroke-width="0.893379" stroke-miterlimit="10"/>
<path d="M231.126 15.474C231.126 14.898 230.955 14.335 230.635 13.8561C230.315 13.3771 229.861 13.0039 229.328 12.7834C228.796 12.563 228.211 12.5054 227.646 12.6177C227.081 12.7301 226.562 13.0075 226.155 13.4147C225.747 13.822 225.47 14.3409 225.358 14.9059C225.245 15.4708 225.303 16.0563 225.523 16.5885C225.744 17.1206 226.117 17.5755 226.596 17.8955C227.075 18.2155 227.638 18.3863 228.214 18.3863C228.986 18.3863 229.727 18.0794 230.273 17.5333C230.819 16.9871 231.126 16.2464 231.126 15.474Z" fill="#B75400" stroke="#212121" stroke-width="0.893379" stroke-miterlimit="10"/>
<path d="M199.806 18.3863C201.415 18.3863 202.719 17.0824 202.719 15.474C202.719 13.8656 201.415 12.5618 199.806 12.5618C198.198 12.5618 196.894 13.8656 196.894 15.474C196.894 17.0824 198.198 18.3863 199.806 18.3863Z" fill="white" stroke="#212121" stroke-width="0.893379" stroke-miterlimit="10"/>
<path d="M231.135 27.7856H130.392V35.8684H231.135V27.7856Z" fill="#212121" stroke="#212121" stroke-width="0.893379" stroke-miterlimit="10"/>
<path d="M235.268 35.8685H126.25V59.4804H235.268V35.8685Z" fill="white" stroke="#212121" stroke-width="0.893379" stroke-miterlimit="10"/>
<path d="M206.625 41.8934H131.491V53.4552H206.625V41.8934Z" fill="#B75400" stroke="#212121" stroke-width="0.893379" stroke-miterlimit="10"/>
<path d="M216.8 50.0896C218.409 50.0896 219.713 48.7858 219.713 47.1774C219.713 45.569 218.409 44.2651 216.8 44.2651C215.192 44.2651 213.888 45.569 213.888 47.1774C213.888 48.7858 215.192 50.0896 216.8 50.0896Z" fill="#B75400" stroke="#212121" stroke-width="0.893379" stroke-miterlimit="10"/>
<path d="M231.126 47.1775C231.126 46.6015 230.955 46.0385 230.635 45.5595C230.315 45.0806 229.861 44.7074 229.328 44.4869C228.796 44.2665 228.211 44.2088 227.646 44.3212C227.081 44.4336 226.562 44.711 226.155 45.1182C225.747 45.5255 225.47 46.0444 225.358 46.6094C225.245 47.1743 225.303 47.7598 225.523 48.292C225.744 48.8241 226.117 49.2789 226.596 49.5989C227.075 49.919 227.638 50.0898 228.214 50.0898C228.597 50.0909 228.976 50.0164 229.33 49.8704C229.684 49.7245 230.005 49.51 230.276 49.2393C230.546 48.9687 230.761 48.6472 230.907 48.2933C231.053 47.9395 231.127 47.5603 231.126 47.1775Z" fill="white" stroke="#212121" stroke-width="0.893379" stroke-miterlimit="10"/>
<path d="M199.806 50.0896C201.415 50.0896 202.719 48.7858 202.719 47.1774C202.719 45.569 201.415 44.2651 199.806 44.2651C198.198 44.2651 196.894 45.569 196.894 47.1774C196.894 48.7858 198.198 50.0896 199.806 50.0896Z" fill="white" stroke="#212121" stroke-width="0.893379" stroke-miterlimit="10"/>
<path d="M231.135 59.4891H130.392V67.5719H231.135V59.4891Z" fill="#212121" stroke="#212121" stroke-width="0.893379" stroke-miterlimit="10"/>
<path d="M235.268 67.5718H126.25V91.1836H235.268V67.5718Z" fill="white" stroke="#212121" stroke-width="0.893379" stroke-miterlimit="10"/>
<path d="M206.625 73.5969H131.491V85.1587H206.625V73.5969Z" fill="#B75400" stroke="#212121" stroke-width="0.893379" stroke-miterlimit="10"/>
<path d="M216.8 81.7843C218.409 81.7843 219.713 80.4805 219.713 78.8721C219.713 77.2637 218.409 75.9598 216.8 75.9598C215.192 75.9598 213.888 77.2637 213.888 78.8721C213.888 80.4805 215.192 81.7843 216.8 81.7843Z" fill="white" stroke="#212121" stroke-width="0.893379" stroke-miterlimit="10"/>
<path d="M231.126 78.8721C231.126 78.2961 230.955 77.733 230.635 77.2541C230.315 76.7752 229.861 76.4019 229.328 76.1815C228.796 75.9611 228.211 75.9034 227.646 76.0158C227.081 76.1282 226.562 76.4055 226.155 76.8128C225.747 77.2201 225.47 77.739 225.358 78.3039C225.245 78.8688 225.303 79.4544 225.523 79.9865C225.744 80.5187 226.117 80.9735 226.596 81.2935C227.075 81.6135 227.638 81.7843 228.214 81.7843C228.986 81.7843 229.727 81.4775 230.273 80.9313C230.819 80.3852 231.126 79.6444 231.126 78.8721Z" fill="#B75400" stroke="#212121" stroke-width="0.893379" stroke-miterlimit="10"/>
<path d="M199.806 81.7843C201.415 81.7843 202.719 80.4805 202.719 78.8721C202.719 77.2637 201.415 75.9598 199.806 75.9598C198.198 75.9598 196.894 77.2637 196.894 78.8721C196.894 80.4805 198.198 81.7843 199.806 81.7843Z" fill="white" stroke="#212121" stroke-width="0.893379" stroke-miterlimit="10"/>
<path d="M231.135 91.1837H130.392V99.2665H231.135V91.1837Z" fill="#212121" stroke="#212121" stroke-width="0.893379" stroke-miterlimit="10"/>
<path d="M235.268 99.2665H126.25V122.878H235.268V99.2665Z" fill="white" stroke="#212121" stroke-width="0.893379" stroke-miterlimit="10"/>
<path d="M206.625 105.292H131.491V116.853H206.625V105.292Z" fill="#B75400" stroke="#212121" stroke-width="0.893379" stroke-miterlimit="10"/>
<path d="M216.8 113.488C218.409 113.488 219.713 112.184 219.713 110.575C219.713 108.967 218.409 107.663 216.8 107.663C215.192 107.663 213.888 108.967 213.888 110.575C213.888 112.184 215.192 113.488 216.8 113.488Z" fill="#B75400" stroke="#212121" stroke-width="0.893379" stroke-miterlimit="10"/>
<path d="M231.126 110.575C231.126 109.999 230.955 109.436 230.635 108.957C230.315 108.479 229.861 108.105 229.328 107.885C228.796 107.664 228.211 107.607 227.646 107.719C227.081 107.832 226.562 108.109 226.155 108.516C225.747 108.923 225.47 109.442 225.358 110.007C225.245 110.572 225.303 111.158 225.523 111.69C225.744 112.222 226.117 112.677 226.596 112.997C227.075 113.317 227.638 113.488 228.214 113.488C228.597 113.489 228.976 113.414 229.33 113.268C229.684 113.122 230.005 112.908 230.276 112.637C230.546 112.367 230.761 112.045 230.907 111.691C231.053 111.337 231.127 110.958 231.126 110.575Z" fill="white" stroke="#212121" stroke-width="0.893379" stroke-miterlimit="10"/>
<path d="M199.806 113.488C201.415 113.488 202.719 112.184 202.719 110.575C202.719 108.967 201.415 107.663 199.806 107.663C198.198 107.663 196.894 108.967 196.894 110.575C196.894 112.184 198.198 113.488 199.806 113.488Z" fill="white" stroke="#212121" stroke-width="0.893379" stroke-miterlimit="10"/>
<path d="M231.135 122.887H130.392V130.97H231.135V122.887Z" fill="#212121" stroke="#212121" stroke-width="0.893379" stroke-miterlimit="10"/>
<path d="M235.268 130.97H126.25V154.582H235.268V130.97Z" fill="white" stroke="#212121" stroke-width="0.893379" stroke-miterlimit="10"/>
<path d="M206.625 136.995H131.491V148.557H206.625V136.995Z" fill="#B75400" stroke="#212121" stroke-width="0.893379" stroke-miterlimit="10"/>
<path d="M216.8 145.182C218.409 145.182 219.713 143.878 219.713 142.27C219.713 140.662 218.409 139.358 216.8 139.358C215.192 139.358 213.888 140.662 213.888 142.27C213.888 143.878 215.192 145.182 216.8 145.182Z" fill="white" stroke="#212121" stroke-width="0.893379" stroke-miterlimit="10"/>
<path d="M231.126 142.27C231.126 141.694 230.955 141.131 230.635 140.652C230.315 140.173 229.861 139.8 229.328 139.579C228.796 139.359 228.211 139.301 227.646 139.414C227.081 139.526 226.562 139.803 226.155 140.211C225.747 140.618 225.47 141.137 225.358 141.702C225.245 142.267 225.303 142.852 225.523 143.384C225.744 143.917 226.117 144.371 226.596 144.691C227.075 145.011 227.638 145.182 228.214 145.182C228.986 145.182 229.727 144.875 230.273 144.329C230.819 143.783 231.126 143.042 231.126 142.27Z" fill="#B75400" stroke="#212121" stroke-width="0.893379" stroke-miterlimit="10"/>
<path d="M199.806 145.182C201.415 145.182 202.719 143.878 202.719 142.27C202.719 140.662 201.415 139.358 199.806 139.358C198.198 139.358 196.894 140.662 196.894 142.27C196.894 143.878 198.198 145.182 199.806 145.182Z" fill="white" stroke="#212121" stroke-width="0.893379" stroke-miterlimit="10"/>
<path d="M188.018 1H194.122" stroke="#212121" stroke-width="0.893379" stroke-linecap="round" stroke-linejoin="round"/>
<path d="M145.729 1H181.043" stroke="#212121" stroke-width="0.893379" stroke-linecap="round" stroke-linejoin="round"/>
<path d="M121.751 144.432V148.792" stroke="#212121" stroke-width="0.893379" stroke-linecap="round" stroke-linejoin="round"/>
<path d="M121.751 130.918V140.073" stroke="#212121" stroke-width="0.893379" stroke-linecap="round" stroke-linejoin="round"/>
<path d="M282.544 50.3425L276.44 38.2663C276.406 38.1819 276.355 38.1056 276.29 38.0419C276.225 37.9783 276.147 37.9287 276.062 37.8963C275.977 37.864 275.886 37.8495 275.795 37.8538C275.704 37.858 275.615 37.881 275.534 37.9212C275.452 37.9615 275.379 38.0181 275.321 38.0876C275.262 38.1571 275.218 38.2379 275.192 38.3251C275.166 38.4123 275.158 38.5039 275.169 38.5943C275.179 38.6847 275.209 38.7719 275.255 38.8505L281.088 51.0575C280.968 51.1807 280.885 51.335 280.848 51.5029C280.811 51.6708 280.822 51.8457 280.879 52.0079L287.052 63.5784C287.217 63.9097 287.741 63.9795 288.238 63.7353C288.735 63.4912 288.996 63.0291 288.831 62.7065L283.425 50.7523C283.335 50.6043 283.203 50.4864 283.047 50.4134C282.89 50.3404 282.715 50.3157 282.544 50.3425Z" fill="#212121"/>
<path d="M316.34 50.3424L322.487 38.2662C322.562 38.1102 322.696 37.9905 322.86 37.9333C323.023 37.8761 323.203 37.8861 323.359 37.961C323.512 38.0397 323.629 38.174 323.685 38.3362C323.742 38.4984 323.735 38.6762 323.664 38.833L317.822 51.04C317.945 51.1616 318.028 51.3169 318.062 51.4861C318.097 51.6552 318.08 51.8308 318.014 51.9904L311.841 63.5609C311.675 63.8922 311.143 63.962 310.655 63.7178C310.167 63.4737 309.896 63.0116 310.053 62.689L315.468 50.7348C315.559 50.5916 315.69 50.4782 315.845 50.4085C316 50.3387 316.172 50.3158 316.34 50.3424Z" fill="#212121"/>
<path d="M318.677 64.1015H280.338L283.215 59.2188H315.799L318.677 64.1015Z" fill="white" stroke="#212121" stroke-width="0.893379" stroke-linecap="round" stroke-linejoin="round"/>
<path d="M318.668 64.1016H280.338V68.9844H318.668V64.1016Z" fill="white" stroke="#212121" stroke-width="0.893379" stroke-linecap="round" stroke-linejoin="round"/>
<path d="M298.84 67.6241H284.105C283.819 67.6218 283.547 67.5069 283.346 67.3044C283.145 67.1019 283.032 66.8282 283.032 66.5429C283.032 66.2585 283.145 65.9857 283.346 65.7846C283.547 65.5835 283.82 65.4705 284.105 65.4705H298.84C299.125 65.4705 299.398 65.5835 299.599 65.7846C299.8 65.9857 299.913 66.2585 299.913 66.5429C299.913 66.8282 299.8 67.1019 299.599 67.3044C299.398 67.5069 299.126 67.6218 298.84 67.6241Z" fill="white" stroke="#212121" stroke-width="0.893379" stroke-miterlimit="10"/>
<path d="M307.76 67.3538C308.28 67.3538 308.702 66.9322 308.702 66.4121C308.702 65.8921 308.28 65.4705 307.76 65.4705C307.24 65.4705 306.818 65.8921 306.818 66.4121C306.818 66.9322 307.24 67.3538 307.76 67.3538Z" fill="white" stroke="#212121" stroke-width="0.893379" stroke-miterlimit="10"/>
<path d="M312.608 66.4121C312.608 66.2241 312.552 66.0404 312.448 65.8841C312.343 65.7278 312.195 65.6059 312.021 65.534C311.848 65.4621 311.657 65.4433 311.472 65.4799C311.288 65.5166 311.119 65.6071 310.986 65.74C310.853 65.873 310.762 66.0423 310.726 66.2267C310.689 66.411 310.708 66.6021 310.78 66.7758C310.852 66.9494 310.973 67.0979 311.13 67.2023C311.286 67.3067 311.47 67.3625 311.658 67.3625C311.783 67.3636 311.907 67.3399 312.023 67.2925C312.139 67.2452 312.244 67.1752 312.332 67.0867C312.421 66.9982 312.491 66.893 312.538 66.7772C312.585 66.6613 312.609 66.5372 312.608 66.4121Z" fill="white" stroke="#212121" stroke-width="0.893379" stroke-miterlimit="10"/>
<path d="M315.564 67.3538C316.084 67.3538 316.506 66.9322 316.506 66.4121C316.506 65.8921 316.084 65.4705 315.564 65.4705C315.044 65.4705 314.622 65.8921 314.622 66.4121C314.622 66.9322 315.044 67.3538 315.564 67.3538Z" fill="white" stroke="#212121" stroke-width="0.893379" stroke-miterlimit="10"/>
<path d="M332.07 36.6444C332.193 37.244 332.254 37.8546 332.253 38.4667C332.253 38.5452 332.253 38.615 332.253 38.6934" stroke="#212121" stroke-width="0.44669" stroke-linecap="round" stroke-linejoin="round"/>
<path d="M318.223 30.8898C319.349 30.149 320.625 29.6689 321.96 29.4844C323.295 29.2999 324.654 29.4158 325.938 29.8235C327.222 30.2313 328.399 30.9206 329.383 31.8412C330.367 32.7618 331.133 33.8905 331.625 35.1448" stroke="#212121" stroke-width="0.44669" stroke-linecap="round" stroke-linejoin="round"/>
<path d="M320.752 32.2063C320.266 32.3961 319.804 32.6419 319.374 32.9387" stroke="#212121" stroke-width="0.44669" stroke-linecap="round" stroke-linejoin="round"/>
<path d="M329.898 38.6325C329.903 38.5774 329.903 38.5219 329.898 38.4668C329.898 36.6839 329.19 34.974 327.929 33.7132C326.669 32.4525 324.959 31.7442 323.176 31.7442C322.825 31.7422 322.475 31.7714 322.13 31.8314" stroke="#212121" stroke-width="0.44669" stroke-linecap="round" stroke-linejoin="round"/>
<path d="M327.719 38.5801V38.4668C327.719 37.2643 327.241 36.111 326.391 35.2607C325.54 34.4104 324.387 33.9327 323.184 33.9327C322.194 33.9319 321.231 34.2601 320.447 34.8657" stroke="#212121" stroke-width="0.44669" stroke-linecap="round" stroke-linejoin="round"/>
<path d="M322.234 36.1562C321.945 36.2767 321.682 36.4514 321.458 36.6707" stroke="#212121" stroke-width="0.44669" stroke-linecap="round" stroke-linejoin="round"/>
<path d="M325.687 38.5278V38.4668C325.687 37.8031 325.423 37.1666 324.954 36.6973C324.485 36.228 323.848 35.9644 323.185 35.9644" stroke="#212121" stroke-width="0.44669" stroke-linecap="round" stroke-linejoin="round"/>
<path d="M266.858 37.1851C266.795 37.6153 266.763 38.0495 266.762 38.4842C266.762 38.5627 266.762 38.6325 266.762 38.7109" stroke="#212121" stroke-width="0.44669" stroke-linecap="round" stroke-linejoin="round"/>
<path d="M277.635 29.5818C277.041 29.4587 276.436 29.3974 275.83 29.3987C273.931 29.3979 272.08 29.9933 270.537 31.1009C268.995 32.2085 267.839 33.7724 267.233 35.572" stroke="#212121" stroke-width="0.44669" stroke-linecap="round" stroke-linejoin="round"/>
<path d="M280.791 30.8898C280.215 30.5102 279.598 30.1972 278.952 29.9568" stroke="#212121" stroke-width="0.44669" stroke-linecap="round" stroke-linejoin="round"/>
<path d="M275.289 31.7704C275.464 31.7704 275.647 31.7704 275.83 31.7704C277.195 31.7717 278.527 32.1883 279.649 32.9649" stroke="#212121" stroke-width="0.44669" stroke-linecap="round" stroke-linejoin="round"/>
<path d="M269.116 38.6325C269.116 38.5802 269.116 38.5279 269.116 38.4668C269.117 37.1455 269.506 35.8537 270.237 34.7527C270.967 33.6516 272.006 32.7902 273.223 32.2761" stroke="#212121" stroke-width="0.44669" stroke-linecap="round" stroke-linejoin="round"/>
<path d="M271.287 38.5801V38.4668C271.287 37.2643 271.765 36.111 272.615 35.2607C273.466 34.4104 274.619 33.9327 275.821 33.9327C276.812 33.9319 277.775 34.2601 278.559 34.8657" stroke="#212121" stroke-width="0.44669" stroke-linecap="round" stroke-linejoin="round"/>
<path d="M273.336 38.5279C273.332 38.5078 273.332 38.4869 273.336 38.4668C273.334 37.9748 273.477 37.493 273.747 37.082C274.018 36.671 274.404 36.3492 274.857 36.1572C275.31 35.9652 275.81 35.9115 276.293 36.0028C276.777 36.0942 277.222 36.3266 277.574 36.6707" stroke="#212121" stroke-width="0.44669" stroke-linecap="round" stroke-linejoin="round"/>
<path d="M161.973 197.986L155.87 185.91C155.795 185.754 155.661 185.634 155.497 185.577C155.334 185.52 155.154 185.53 154.998 185.605C154.845 185.684 154.728 185.818 154.672 185.98C154.615 186.142 154.622 186.32 154.693 186.477L160.535 198.684C160.414 198.805 160.331 198.959 160.297 199.126C160.263 199.293 160.279 199.467 160.343 199.626L166.516 211.205C166.682 211.527 167.214 211.597 167.702 211.362C168.19 211.126 168.461 210.656 168.304 210.324L162.889 198.37C162.789 198.226 162.649 198.113 162.487 198.045C162.325 197.977 162.147 197.957 161.973 197.986Z" fill="#212121"/>
<path d="M195.778 197.986L201.882 185.91C201.916 185.826 201.967 185.749 202.032 185.686C202.097 185.622 202.175 185.573 202.26 185.54C202.345 185.508 202.436 185.493 202.527 185.498C202.618 185.502 202.707 185.525 202.788 185.565C202.87 185.605 202.943 185.662 203.001 185.731C203.06 185.801 203.104 185.882 203.13 185.969C203.156 186.056 203.164 186.148 203.154 186.238C203.143 186.329 203.113 186.416 203.067 186.494L197.234 198.701C197.353 198.823 197.434 198.977 197.467 199.145C197.499 199.312 197.482 199.485 197.417 199.643L191.244 211.222C191.078 211.545 190.555 211.615 190.058 211.379C189.561 211.144 189.3 210.673 189.457 210.342L194.871 198.387C194.969 198.241 195.106 198.126 195.266 198.055C195.427 197.984 195.604 197.96 195.778 197.986Z" fill="#212121"/>
<path d="M198.106 211.745H159.776L162.645 206.871H195.229L198.106 211.745Z" fill="white" stroke="#212121" stroke-width="0.893379" stroke-linecap="round" stroke-linejoin="round"/>
<path d="M198.106 211.745H159.776V216.628H198.106V211.745Z" fill="white" stroke="#212121" stroke-width="0.893379" stroke-linecap="round" stroke-linejoin="round"/>
<path d="M178.278 213.114H163.534C162.942 213.114 162.462 213.595 162.462 214.187V214.196C162.462 214.788 162.942 215.268 163.534 215.268H178.278C178.871 215.268 179.351 214.788 179.351 214.196V214.187C179.351 213.595 178.871 213.114 178.278 213.114Z" fill="white" stroke="#212121" stroke-width="0.893379" stroke-miterlimit="10"/>
<path d="M187.19 215.006C187.71 215.006 188.131 214.585 188.131 214.065C188.131 213.545 187.71 213.123 187.19 213.123C186.67 213.123 186.248 213.545 186.248 214.065C186.248 214.585 186.67 215.006 187.19 215.006Z" fill="white" stroke="#212121" stroke-width="0.893379" stroke-miterlimit="10"/>
<path d="M192.038 214.065C192.039 213.876 191.985 213.691 191.881 213.534C191.777 213.376 191.629 213.253 191.455 213.18C191.281 213.107 191.089 213.087 190.904 213.124C190.719 213.16 190.549 213.251 190.415 213.384C190.282 213.517 190.191 213.688 190.155 213.873C190.118 214.058 190.138 214.25 190.211 214.424C190.284 214.598 190.407 214.746 190.565 214.85C190.722 214.954 190.907 215.008 191.096 215.006C191.346 215.006 191.585 214.907 191.762 214.731C191.938 214.554 192.038 214.315 192.038 214.065Z" fill="white" stroke="#212121" stroke-width="0.893379" stroke-miterlimit="10"/>
<path d="M194.993 215.006C195.513 215.006 195.935 214.585 195.935 214.065C195.935 213.545 195.513 213.123 194.993 213.123C194.473 213.123 194.052 213.545 194.052 214.065C194.052 214.585 194.473 215.006 194.993 215.006Z" fill="white" stroke="#212121" stroke-width="0.893379" stroke-miterlimit="10"/>
<path d="M207.148 178.255C208.527 179.05 209.672 180.193 210.47 181.57C211.267 182.948 211.688 184.511 211.691 186.102C211.691 186.18 211.691 186.25 211.691 186.329" stroke="#212121" stroke-width="0.44669" stroke-linecap="round" stroke-linejoin="round"/>
<path d="M197.653 178.534C199.129 177.565 200.857 177.05 202.623 177.051C203.623 177.047 204.616 177.212 205.561 177.54" stroke="#212121" stroke-width="0.44669" stroke-linecap="round" stroke-linejoin="round"/>
<path d="M201.446 179.493C200.507 179.669 199.616 180.04 198.83 180.583" stroke="#212121" stroke-width="0.44669" stroke-linecap="round" stroke-linejoin="round"/>
<path d="M209.38 186.285C209.38 186.233 209.38 186.181 209.38 186.119C209.378 184.452 208.757 182.845 207.637 181.61C206.518 180.374 204.979 179.598 203.32 179.432" stroke="#212121" stroke-width="0.44669" stroke-linecap="round" stroke-linejoin="round"/>
<path d="M205.893 182.963C205.472 182.525 204.967 182.178 204.408 181.941C203.849 181.704 203.247 181.583 202.64 181.585C201.648 181.586 200.684 181.911 199.894 182.51" stroke="#212121" stroke-width="0.44669" stroke-linecap="round" stroke-linejoin="round"/>
<path d="M207.148 186.224C207.148 186.224 207.148 186.154 207.148 186.111C207.144 185.512 207.023 184.919 206.791 184.367" stroke="#212121" stroke-width="0.44669" stroke-linecap="round" stroke-linejoin="round"/>
<path d="M202.012 183.669C201.589 183.777 201.202 183.994 200.888 184.297" stroke="#212121" stroke-width="0.44669" stroke-linecap="round" stroke-linejoin="round"/>
<path d="M205.116 186.172C205.116 186.172 205.116 186.172 205.116 186.111C205.124 185.557 204.948 185.017 204.615 184.575C204.282 184.133 203.811 183.814 203.277 183.669" stroke="#212121" stroke-width="0.44669" stroke-linecap="round" stroke-linejoin="round"/>
<path d="M146.322 184.594C146.234 185.094 146.191 185.602 146.191 186.111C146.191 186.189 146.191 186.259 146.191 186.337" stroke="#212121" stroke-width="0.44669" stroke-linecap="round" stroke-linejoin="round"/>
<path d="M151.685 177.775C150.57 178.259 149.562 178.96 148.721 179.837C147.879 180.714 147.221 181.75 146.784 182.885" stroke="#212121" stroke-width="0.44669" stroke-linecap="round" stroke-linejoin="round"/>
<path d="M160.221 178.534C158.747 177.565 157.023 177.05 155.26 177.051C154.647 177.05 154.037 177.111 153.437 177.234" stroke="#212121" stroke-width="0.44669" stroke-linecap="round" stroke-linejoin="round"/>
<path d="M150.185 181.707C151.271 180.46 152.777 179.657 154.417 179.449C156.058 179.242 157.717 179.645 159.079 180.583" stroke="#212121" stroke-width="0.44669" stroke-linecap="round" stroke-linejoin="round"/>
<path d="M148.546 186.285C148.546 186.233 148.546 186.18 148.546 186.119C148.546 185.124 148.767 184.142 149.191 183.242" stroke="#212121" stroke-width="0.44669" stroke-linecap="round" stroke-linejoin="round"/>
<path d="M152.016 182.946C152.789 182.157 153.823 181.678 154.924 181.597C156.026 181.517 157.118 181.841 157.997 182.51" stroke="#212121" stroke-width="0.44669" stroke-linecap="round" stroke-linejoin="round"/>
<path d="M150.734 186.224C150.734 186.224 150.734 186.154 150.734 186.111C150.732 185.434 150.884 184.766 151.179 184.157" stroke="#212121" stroke-width="0.44669" stroke-linecap="round" stroke-linejoin="round"/>
<path d="M153.62 184.219C154.095 183.814 154.703 183.6 155.326 183.618C155.949 183.636 156.544 183.884 156.995 184.315" stroke="#212121" stroke-width="0.44669" stroke-linecap="round" stroke-linejoin="round"/>
<path d="M152.766 186.172C152.766 186.172 152.766 186.172 152.766 186.111C152.766 185.7 152.868 185.295 153.062 184.934" stroke="#212121" stroke-width="0.44669" stroke-linecap="round" stroke-linejoin="round"/>
<path d="M20.4505 124.457L14.347 112.38C14.3127 112.296 14.2614 112.22 14.1964 112.156C14.1313 112.092 14.0538 112.043 13.9687 112.01C13.8836 111.978 13.7928 111.963 13.7018 111.968C13.6109 111.972 13.5218 111.995 13.4402 112.035C13.3585 112.075 13.286 112.132 13.2272 112.202C13.1684 112.271 13.1246 112.352 13.0984 112.439C13.0722 112.526 13.0643 112.618 13.0751 112.708C13.0859 112.799 13.1152 112.886 13.1611 112.964L18.9944 125.171C18.873 125.294 18.7884 125.448 18.7498 125.616C18.7113 125.784 18.7205 125.959 18.7764 126.122L24.9496 137.701C25.1153 138.024 25.6385 138.093 26.1355 137.849C26.6325 137.605 26.894 137.152 26.7284 136.82L21.3224 124.866C21.2288 124.724 21.0979 124.611 20.9441 124.539C20.7902 124.467 20.6194 124.438 20.4505 124.457Z" fill="#212121"/>
<path d="M54.2465 124.457L60.35 112.38C60.4253 112.224 60.5594 112.105 60.7228 112.047C60.8863 111.99 61.0658 112 61.2219 112.075C61.3747 112.154 61.4915 112.288 61.5483 112.45C61.6051 112.613 61.5975 112.79 61.5271 112.947L55.6852 125.154C55.8185 125.272 55.9126 125.428 55.9547 125.601C55.9967 125.774 55.9849 125.956 55.9206 126.122L49.7473 137.701C49.5816 138.024 49.0498 138.094 48.5615 137.849C48.0732 137.605 47.8029 137.152 47.9599 136.821L53.3745 124.866C53.4674 124.724 53.5982 124.61 53.7522 124.537C53.9063 124.465 54.0774 124.437 54.2465 124.457Z" fill="#212121"/>
<path d="M56.5833 138.216H18.2532L21.1219 133.333H53.7059L56.5833 138.216Z" fill="white" stroke="#212121" stroke-width="0.893379" stroke-linecap="round" stroke-linejoin="round"/>
<path d="M56.5746 138.216H18.2446V143.098H56.5746V138.216Z" fill="white" stroke="#212121" stroke-width="0.893379" stroke-linecap="round" stroke-linejoin="round"/>
<path d="M36.7382 141.738H22.0113C21.726 141.736 21.4533 141.621 21.2524 141.418C21.0515 141.216 20.9388 140.942 20.9388 140.657C20.9388 140.373 21.0518 140.1 21.2529 139.899C21.454 139.697 21.7268 139.584 22.0113 139.584H36.7382C37.0226 139.584 37.2954 139.697 37.4965 139.899C37.6976 140.1 37.8106 140.373 37.8106 140.657C37.8106 140.942 37.6979 141.216 37.497 141.418C37.2962 141.621 37.0234 141.736 36.7382 141.738Z" fill="white" stroke="#212121" stroke-width="0.893379" stroke-miterlimit="10"/>
<path d="M45.6667 141.468C46.1867 141.468 46.6083 141.046 46.6083 140.526C46.6083 140.006 46.1867 139.584 45.6667 139.584C45.1466 139.584 44.725 140.006 44.725 140.526C44.725 141.046 45.1466 141.468 45.6667 141.468Z" fill="white" stroke="#212121" stroke-width="0.893379" stroke-miterlimit="10"/>
<path d="M49.5642 141.468C50.0843 141.468 50.5059 141.046 50.5059 140.526C50.5059 140.006 50.0843 139.584 49.5642 139.584C49.0441 139.584 48.6225 140.006 48.6225 140.526C48.6225 141.046 49.0441 141.468 49.5642 141.468Z" fill="white" stroke="#212121" stroke-width="0.893379" stroke-miterlimit="10"/>
<path d="M54.4122 140.526C54.4121 140.338 54.3562 140.154 54.2514 139.997C54.1465 139.841 53.9976 139.719 53.8234 139.647C53.6492 139.576 53.4577 139.557 53.2731 139.595C53.0885 139.632 52.9192 139.723 52.7866 139.857C52.6541 139.991 52.5642 140.161 52.5286 140.346C52.4929 140.531 52.513 140.722 52.5862 140.896C52.6595 141.069 52.7827 141.217 52.9401 141.321C53.0975 141.424 53.2821 141.478 53.4705 141.477C53.5949 141.477 53.718 141.452 53.8329 141.404C53.9477 141.356 54.0519 141.286 54.1394 141.198C54.227 141.109 54.2962 141.004 54.343 140.889C54.3898 140.774 54.4133 140.651 54.4122 140.526Z" fill="white" stroke="#212121" stroke-width="0.893379" stroke-miterlimit="10"/>
<path d="M69.6622 109.608C69.9921 110.564 70.1601 111.569 70.1592 112.581C70.1592 112.659 70.1592 112.729 70.1592 112.808" stroke="#212121" stroke-width="0.44669" stroke-linecap="round" stroke-linejoin="round"/>
<path d="M62.896 103.687C64.2837 103.968 65.5869 104.567 66.7024 105.439C67.8178 106.311 68.7148 107.431 69.3221 108.709" stroke="#212121" stroke-width="0.44669" stroke-linecap="round" stroke-linejoin="round"/>
<path d="M56.1299 105.004C57.3399 104.206 58.7249 103.712 60.1669 103.565" stroke="#212121" stroke-width="0.44669" stroke-linecap="round" stroke-linejoin="round"/>
<path d="M66.1483 108.151C65.0636 106.91 63.5599 106.112 61.9242 105.91C60.2885 105.707 58.6355 106.114 57.2808 107.053" stroke="#212121" stroke-width="0.44669" stroke-linecap="round" stroke-linejoin="round"/>
<path d="M67.805 112.746C67.8096 112.691 67.8096 112.636 67.805 112.581C67.8063 111.504 67.5491 110.442 67.0552 109.485" stroke="#212121" stroke-width="0.44669" stroke-linecap="round" stroke-linejoin="round"/>
<path d="M60.1582 108.151C59.4986 108.303 58.8817 108.601 58.3533 109.023" stroke="#212121" stroke-width="0.44669" stroke-linecap="round" stroke-linejoin="round"/>
<path d="M65.6252 112.694V112.581C65.6256 111.55 65.2741 110.55 64.6288 109.746C63.9834 108.942 63.083 108.383 62.0764 108.16" stroke="#212121" stroke-width="0.44669" stroke-linecap="round" stroke-linejoin="round"/>
<path d="M63.0617 111.038C62.8469 110.761 62.5763 110.534 62.2675 110.369C61.9587 110.205 61.6187 110.108 61.2698 110.084C60.9208 110.06 60.5707 110.11 60.2424 110.231C59.9141 110.352 59.615 110.54 59.3647 110.785" stroke="#212121" stroke-width="0.44669" stroke-linecap="round" stroke-linejoin="round"/>
<path d="M63.5936 112.642V112.581C63.595 112.336 63.5597 112.092 63.489 111.857" stroke="#212121" stroke-width="0.44669" stroke-linecap="round" stroke-linejoin="round"/>
<path d="M12.1497 103.652C10.0527 104.025 8.15386 105.124 6.78597 106.756C5.41808 108.389 4.66848 110.451 4.66858 112.581C4.66858 112.659 4.66858 112.729 4.66858 112.808" stroke="#212121" stroke-width="0.44669" stroke-linecap="round" stroke-linejoin="round"/>
<path d="M18.6979 105.004C17.3945 104.149 15.8931 103.645 14.3383 103.539" stroke="#212121" stroke-width="0.44669" stroke-linecap="round" stroke-linejoin="round"/>
<path d="M15.2189 106.068C16.0521 106.248 16.8445 106.582 17.5556 107.053" stroke="#212121" stroke-width="0.44669" stroke-linecap="round" stroke-linejoin="round"/>
<path d="M7.02277 112.747C7.02277 112.694 7.02277 112.642 7.02277 112.581C7.02277 110.798 7.73104 109.088 8.99177 107.827C10.2525 106.567 11.9624 105.858 13.7453 105.858" stroke="#212121" stroke-width="0.44669" stroke-linecap="round" stroke-linejoin="round"/>
<path d="M10.2402 109.703C10.9816 108.796 12.047 108.214 13.2107 108.078C14.3744 107.943 15.545 108.267 16.4745 108.98" stroke="#212121" stroke-width="0.44669" stroke-linecap="round" stroke-linejoin="round"/>
<path d="M9.20258 112.694V112.581C9.20226 111.981 9.32389 111.388 9.56007 110.837" stroke="#212121" stroke-width="0.44669" stroke-linecap="round" stroke-linejoin="round"/>
<path d="M14.1813 110.122C14.6673 110.211 15.1162 110.442 15.4718 110.785" stroke="#212121" stroke-width="0.44669" stroke-linecap="round" stroke-linejoin="round"/>
<path d="M11.2429 112.642C11.2429 112.642 11.2429 112.642 11.2429 112.581C11.2449 111.989 11.456 111.417 11.8389 110.965C12.2218 110.514 12.7518 110.212 13.3356 110.113" stroke="#212121" stroke-width="0.44669" stroke-linecap="round" stroke-linejoin="round"/>
<path d="M219.896 221.72H142.198V274.952H219.896V221.72Z" fill="#212121" stroke="#212121" stroke-width="0.893379" stroke-miterlimit="10"/>
<path d="M231.553 298.485H130.549L142.198 274.952H219.896L231.553 298.485Z" fill="white" stroke="#212121" stroke-width="0.893379" stroke-linecap="round" stroke-linejoin="round"/>
<path d="M215.187 225.932H146.906V270.74H215.187V225.932Z" fill="white" stroke="#212121" stroke-width="0.893379" stroke-miterlimit="10"/>
<path d="M191.279 244.033L181.069 231.957L170.858 244.033H175.131V262.945H187.007V244.033H191.279Z" fill="#B75400"/>
<path d="M177.808 282.407L177.938 279.538H173.84L173.561 282.407H177.808Z" fill="white" stroke="#212121" stroke-width="0.893379" stroke-miterlimit="10"/>
<path d="M186.292 282.407L186.152 279.538H182.045L182.054 282.407H186.292Z" fill="white" stroke="#212121" stroke-width="0.893379" stroke-miterlimit="10"/>
<path d="M208.386 285.467H212.781L211.743 282.407H207.506L208.386 285.467Z" fill="white" stroke="#212121" stroke-width="0.893379" stroke-miterlimit="10"/>
<path d="M173.561 282.407L173.84 279.538H169.734L169.324 282.407H173.561Z" fill="white" stroke="#212121" stroke-width="0.893379" stroke-miterlimit="10"/>
<path d="M165.078 282.407L165.627 279.538H161.52L160.84 282.407H165.078Z" fill="white" stroke="#212121" stroke-width="0.893379" stroke-miterlimit="10"/>
<path d="M203.259 282.407L202.571 279.538H198.464L199.022 282.407H203.259Z" fill="white" stroke="#212121" stroke-width="0.893379" stroke-miterlimit="10"/>
<path d="M207.506 282.407L206.677 279.538H202.57L203.259 282.407H207.506Z" fill="white" stroke="#212121" stroke-width="0.893379" stroke-miterlimit="10"/>
<path d="M160.84 282.407L161.52 279.538H157.413L156.594 282.407H160.84Z" fill="white" stroke="#212121" stroke-width="0.893379" stroke-miterlimit="10"/>
<path d="M190.538 282.407L190.259 279.538H186.152L186.291 282.407H190.538Z" fill="white" stroke="#212121" stroke-width="0.893379" stroke-miterlimit="10"/>
<path d="M211.743 282.407L210.784 279.538H206.677L207.506 282.407H211.743Z" fill="white" stroke="#212121" stroke-width="0.893379" stroke-miterlimit="10"/>
<path d="M199.022 282.407L198.464 279.538H194.366L194.776 282.407H199.022Z" fill="white" stroke="#212121" stroke-width="0.893379" stroke-miterlimit="10"/>
<path d="M194.775 282.407L194.366 279.538H190.259L190.538 282.407H194.775Z" fill="white" stroke="#212121" stroke-width="0.893379" stroke-miterlimit="10"/>
<path d="M182.054 282.407L182.045 279.538H177.938L177.808 282.407H182.054Z" fill="white" stroke="#212121" stroke-width="0.893379" stroke-miterlimit="10"/>
<path d="M152.356 282.407H148.11L146.941 285.467H151.327L152.356 282.407Z" fill="white" stroke="#212121" stroke-width="0.893379" stroke-miterlimit="10"/>
<path d="M153.306 279.538H149.208L148.11 282.407H152.356L153.306 279.538Z" fill="white" stroke="#212121" stroke-width="0.893379" stroke-miterlimit="10"/>
<path d="M156.594 282.407L157.413 279.538H153.306L152.356 282.407H156.594Z" fill="white" stroke="#212121" stroke-width="0.893379" stroke-miterlimit="10"/>
<path d="M145.686 288.754L144.334 292.286H149.051L150.228 288.754H145.686Z" fill="white" stroke="#212121" stroke-width="0.893379" stroke-miterlimit="10"/>
<path d="M151.327 285.467H146.941L145.686 288.754H150.229L151.327 285.467Z" fill="white" stroke="#212121" stroke-width="0.893379" stroke-miterlimit="10"/>
<path d="M150.228 288.754L149.051 292.286H153.769L154.78 288.754H150.228Z" fill="white" stroke="#212121" stroke-width="0.893379" stroke-miterlimit="10"/>
<path d="M169.324 282.407L169.734 279.538H165.627L165.078 282.407H169.324Z" fill="white" stroke="#212121" stroke-width="0.893379" stroke-miterlimit="10"/>
<path d="M168.888 285.467L169.324 282.407H165.077L164.493 285.467H168.888Z" fill="white" stroke="#212121" stroke-width="0.893379" stroke-miterlimit="10"/>
<path d="M164.493 285.467L165.077 282.407H160.84L160.107 285.467H164.493Z" fill="white" stroke="#212121" stroke-width="0.893379" stroke-miterlimit="10"/>
<path d="M173.274 285.467L173.561 282.407H169.324L168.888 285.467H173.274Z" fill="white" stroke="#212121" stroke-width="0.893379" stroke-miterlimit="10"/>
<path d="M156.594 282.407H152.356L151.327 285.467H155.722L156.594 282.407Z" fill="white" stroke="#212121" stroke-width="0.893379" stroke-miterlimit="10"/>
<path d="M209.337 288.754H213.879L212.781 285.467H208.386L209.337 288.754Z" fill="white" stroke="#212121" stroke-width="0.893379" stroke-miterlimit="10"/>
<path d="M160.107 285.467L160.84 282.407H156.594L155.722 285.467H160.107Z" fill="white" stroke="#212121" stroke-width="0.893379" stroke-miterlimit="10"/>
<path d="M151.327 285.467L150.229 288.754H154.78L155.722 285.467H151.327Z" fill="white" stroke="#212121" stroke-width="0.893379" stroke-miterlimit="10"/>
<path d="M199.606 285.467L199.022 282.407H194.775L195.22 285.467H199.606Z" fill="white" stroke="#212121" stroke-width="0.893379" stroke-miterlimit="10"/>
<path d="M195.22 285.467L194.775 282.407H190.538L190.834 285.467H195.22Z" fill="white" stroke="#212121" stroke-width="0.893379" stroke-miterlimit="10"/>
<path d="M208.386 285.467L207.506 282.407H203.259L204 285.467H208.386Z" fill="white" stroke="#212121" stroke-width="0.893379" stroke-miterlimit="10"/>
<path d="M182.054 285.467V282.407H177.808L177.659 285.467H182.054Z" fill="white" stroke="#212121" stroke-width="0.893379" stroke-miterlimit="10"/>
<path d="M190.834 285.467L190.538 282.407H186.292L186.44 285.467H190.834Z" fill="white" stroke="#212121" stroke-width="0.893379" stroke-miterlimit="10"/>
<path d="M186.44 285.467L186.292 282.407H182.054V285.467H186.44Z" fill="white" stroke="#212121" stroke-width="0.893379" stroke-miterlimit="10"/>
<path d="M177.659 285.467L177.808 282.407H173.561L173.274 285.467H177.659Z" fill="white" stroke="#212121" stroke-width="0.893379" stroke-miterlimit="10"/>
<path d="M190.834 285.467L191.148 288.754H195.7L195.22 285.467H190.834Z" fill="white" stroke="#212121" stroke-width="0.893379" stroke-miterlimit="10"/>
<path d="M195.22 285.467L195.7 288.754H200.242L199.606 285.467H195.22Z" fill="white" stroke="#212121" stroke-width="0.893379" stroke-miterlimit="10"/>
<path d="M155.722 285.467L154.78 288.754H159.323L160.108 285.467H155.722Z" fill="white" stroke="#212121" stroke-width="0.893379" stroke-miterlimit="10"/>
<path d="M199.606 285.467L200.242 288.754H204.785L204 285.467H199.606Z" fill="white" stroke="#212121" stroke-width="0.893379" stroke-miterlimit="10"/>
<path d="M182.054 285.467V288.754H186.605L186.44 285.467H182.054Z" fill="white" stroke="#212121" stroke-width="0.893379" stroke-miterlimit="10"/>
<path d="M204 285.467L204.785 288.754H209.337L208.386 285.467H204Z" fill="white" stroke="#212121" stroke-width="0.893379" stroke-miterlimit="10"/>
<path d="M186.44 285.467L186.605 288.754H191.148L190.834 285.467H186.44Z" fill="white" stroke="#212121" stroke-width="0.893379" stroke-miterlimit="10"/>
<path d="M164.493 285.467L163.865 288.754H168.417L168.888 285.467H164.493Z" fill="white" stroke="#212121" stroke-width="0.893379" stroke-miterlimit="10"/>
<path d="M160.107 285.467L159.323 288.754H163.866L164.493 285.467H160.107Z" fill="white" stroke="#212121" stroke-width="0.893379" stroke-miterlimit="10"/>
<path d="M177.659 285.467L177.511 288.754H182.054V285.467H177.659Z" fill="white" stroke="#212121" stroke-width="0.893379" stroke-miterlimit="10"/>
<path d="M173.274 285.467L172.96 288.754H177.511L177.659 285.467H173.274Z" fill="white" stroke="#212121" stroke-width="0.893379" stroke-miterlimit="10"/>
<path d="M168.888 285.467L168.417 288.754H172.96L173.274 285.467H168.888Z" fill="white" stroke="#212121" stroke-width="0.893379" stroke-miterlimit="10"/>
<path d="M204 285.467L203.259 282.407H199.022L199.606 285.467H204Z" fill="white" stroke="#212121" stroke-width="0.893379" stroke-miterlimit="10"/>
<path d="M153.306 279.538L154.292 276.6H150.324L149.208 279.538H153.306Z" fill="white" stroke="#212121" stroke-width="0.893379" stroke-miterlimit="10"/>
<path d="M149.208 279.538H145.416L144.195 282.407H148.11L149.208 279.538Z" fill="white" stroke="#212121" stroke-width="0.893379" stroke-miterlimit="10"/>
<path d="M150.324 276.6H146.671L145.415 279.538H149.208L150.324 276.6Z" fill="white" stroke="#212121" stroke-width="0.893379" stroke-miterlimit="10"/>
<path d="M148.11 282.407H144.195L142.887 285.467H146.941L148.11 282.407Z" fill="white" stroke="#212121" stroke-width="0.893379" stroke-miterlimit="10"/>
<path d="M146.941 285.467H142.887L141.483 288.754H145.686L146.941 285.467Z" fill="white" stroke="#212121" stroke-width="0.893379" stroke-miterlimit="10"/>
<path d="M145.686 288.754H141.483L139.983 292.286H144.334L145.686 288.754Z" fill="white" stroke="#212121" stroke-width="0.893379" stroke-miterlimit="10"/>
<path d="M215.99 282.407L217.167 285.467H221.047L219.739 282.407H215.99Z" fill="white" stroke="#212121" stroke-width="0.893379" stroke-miterlimit="10"/>
<path d="M218.431 288.754H222.451L221.047 285.467H217.167L218.431 288.754Z" fill="white" stroke="#212121" stroke-width="0.893379" stroke-miterlimit="10"/>
<path d="M219.782 292.286H223.95L222.45 288.754H218.431L219.782 292.286Z" fill="white" stroke="#212121" stroke-width="0.893379" stroke-miterlimit="10"/>
<path d="M186.152 279.538L186.013 276.6H182.045V279.538H186.152Z" fill="white" stroke="#212121" stroke-width="0.893379" stroke-miterlimit="10"/>
<path d="M215.989 282.407H219.739L218.518 279.538H214.891L215.989 282.407Z" fill="white" stroke="#212121" stroke-width="0.893379" stroke-miterlimit="10"/>
<path d="M213.879 288.754H218.431L217.167 285.467H212.781L213.879 288.754Z" fill="white" stroke="#212121" stroke-width="0.893379" stroke-miterlimit="10"/>
<path d="M157.413 279.538L158.259 276.6H154.292L153.306 279.538H157.413Z" fill="white" stroke="#212121" stroke-width="0.893379" stroke-miterlimit="10"/>
<path d="M210.784 279.538L211.743 282.407H215.989L214.891 279.538H210.784Z" fill="white" stroke="#212121" stroke-width="0.893379" stroke-miterlimit="10"/>
<path d="M218.518 279.538L217.271 276.6H213.757L214.891 279.538H218.518Z" fill="white" stroke="#212121" stroke-width="0.893379" stroke-miterlimit="10"/>
<path d="M214.891 279.538L213.757 276.6H209.799L210.784 279.538H214.891Z" fill="white" stroke="#212121" stroke-width="0.893379" stroke-miterlimit="10"/>
<path d="M200.242 288.754L200.923 292.286H205.64L204.785 288.754H200.242Z" fill="white" stroke="#212121" stroke-width="0.893379" stroke-miterlimit="10"/>
<path d="M215.065 292.286H219.782L218.431 288.754H213.879L215.065 292.286Z" fill="white" stroke="#212121" stroke-width="0.893379" stroke-miterlimit="10"/>
<path d="M210.784 279.538L209.799 276.6H205.832L206.677 279.538H210.784Z" fill="white" stroke="#212121" stroke-width="0.893379" stroke-miterlimit="10"/>
<path d="M209.337 288.754L210.348 292.286H215.065L213.879 288.754H209.337Z" fill="white" stroke="#212121" stroke-width="0.893379" stroke-miterlimit="10"/>
<path d="M204.785 288.754L205.64 292.286H210.348L209.337 288.754H204.785Z" fill="white" stroke="#212121" stroke-width="0.893379" stroke-miterlimit="10"/>
<path d="M212.781 285.467H217.167L215.989 282.407H211.743L212.781 285.467Z" fill="white" stroke="#212121" stroke-width="0.893379" stroke-miterlimit="10"/>
<path d="M173.84 279.538L174.119 276.6H170.152L169.734 279.538H173.84Z" fill="white" stroke="#212121" stroke-width="0.893379" stroke-miterlimit="10"/>
<path d="M206.677 279.538L205.831 276.6H201.864L202.57 279.538H206.677Z" fill="white" stroke="#212121" stroke-width="0.893379" stroke-miterlimit="10"/>
<path d="M169.734 279.538L170.152 276.6H166.185L165.627 279.538H169.734Z" fill="white" stroke="#212121" stroke-width="0.893379" stroke-miterlimit="10"/>
<path d="M182.045 279.538V276.6H178.078L177.938 279.538H182.045Z" fill="white" stroke="#212121" stroke-width="0.893379" stroke-miterlimit="10"/>
<path d="M165.627 279.538L166.185 276.6H162.218L161.52 279.538H165.627Z" fill="white" stroke="#212121" stroke-width="0.893379" stroke-miterlimit="10"/>
<path d="M161.52 279.538L162.218 276.6H158.259L157.413 279.538H161.52Z" fill="white" stroke="#212121" stroke-width="0.893379" stroke-miterlimit="10"/>
<path d="M177.939 279.538L178.078 276.6H174.119L173.84 279.538H177.939Z" fill="white" stroke="#212121" stroke-width="0.893379" stroke-miterlimit="10"/>
<path d="M202.57 279.538L201.864 276.6H197.906L198.464 279.538H202.57Z" fill="white" stroke="#212121" stroke-width="0.893379" stroke-miterlimit="10"/>
<path d="M198.464 279.538L197.906 276.6H193.938L194.366 279.538H198.464Z" fill="white" stroke="#212121" stroke-width="0.893379" stroke-miterlimit="10"/>
<path d="M190.259 279.538L189.971 276.6H186.012L186.152 279.538H190.259Z" fill="white" stroke="#212121" stroke-width="0.893379" stroke-miterlimit="10"/>
<path d="M200.242 288.754H195.7H191.148H186.605H182.054H177.511H172.96H168.417H163.866H159.323H154.78L153.769 292.286H158.486H163.194H167.911H172.628H177.346H182.054H186.771H191.488H196.205H200.923L200.242 288.754Z" fill="white" stroke="#212121" stroke-width="0.893379" stroke-miterlimit="10"/>
<path d="M194.366 279.538L193.938 276.6H189.971L190.259 279.538H194.366Z" fill="white" stroke="#212121" stroke-width="0.893379" stroke-miterlimit="10"/>
<path d="M231.597 298.485H130.549V299.915H231.597V298.485Z" fill="#212121" stroke="#212121" stroke-width="0.893379" stroke-miterlimit="10"/>
<path d="M248.486 221.72H307.777V274.952H248.486C248.112 274.952 247.752 274.803 247.487 274.538C247.223 274.273 247.074 273.914 247.074 273.539V223.142C247.073 222.955 247.108 222.771 247.179 222.598C247.249 222.426 247.353 222.269 247.484 222.137C247.616 222.005 247.772 221.9 247.944 221.829C248.116 221.757 248.3 221.72 248.486 221.72Z" fill="white" stroke="#212121" stroke-width="0.893379" stroke-linecap="round" stroke-linejoin="round"/>
<path d="M309.818 221.72H248.669V274.952H309.818V221.72Z" fill="#212121" stroke="#212121" stroke-width="0.893379" stroke-miterlimit="10"/>
<path d="M306.478 225.932H253.378V270.74H306.478V225.932Z" fill="white" stroke="#212121" stroke-width="0.893379" stroke-linecap="round" stroke-linejoin="round"/>
<path d="M271.514 244.033L279.431 231.957L287.348 244.033H284.035V262.945H274.827V244.033H271.514Z" fill="#B75400"/>
<path d="M248.669 274.952L295.021 288.353H357.512L309.818 274.952H248.669Z" fill="white" stroke="#212121" stroke-width="0.893379" stroke-linecap="round" stroke-linejoin="round"/>
<path d="M298.169 280.253L292.37 278.605L289.833 278.579L295.614 280.236L298.169 280.253Z" fill="white" stroke="#212121" stroke-width="0.223345" stroke-miterlimit="10"/>
<path d="M303.217 280.297L297.402 278.657L294.899 278.631L300.698 280.279L303.217 280.297Z" fill="white" stroke="#212121" stroke-width="0.223345" stroke-miterlimit="10"/>
<path d="M321.545 282.032L323.969 282.049L317.944 280.401L315.529 280.384L321.545 282.032Z" fill="white" stroke="#212121" stroke-width="0.223345" stroke-miterlimit="10"/>
<path d="M295.614 280.235L289.833 278.579L287.278 278.553L293.042 280.218L295.614 280.235Z" fill="white" stroke="#212121" stroke-width="0.223345" stroke-miterlimit="10"/>
<path d="M290.461 280.201L284.698 278.535L282.108 278.509L287.854 280.183L290.461 280.201Z" fill="white" stroke="#212121" stroke-width="0.223345" stroke-miterlimit="10"/>
<path d="M313.105 280.366L307.246 278.745L304.813 278.727L310.655 280.349L313.105 280.366Z" fill="white" stroke="#212121" stroke-width="0.223345" stroke-miterlimit="10"/>
<path d="M315.529 280.384L309.661 278.771L307.246 278.745L313.105 280.366L315.529 280.384Z" fill="white" stroke="#212121" stroke-width="0.223345" stroke-miterlimit="10"/>
<path d="M287.854 280.183L282.108 278.509L279.492 278.483L285.221 280.166L287.854 280.183Z" fill="white" stroke="#212121" stroke-width="0.223345" stroke-miterlimit="10"/>
<path d="M305.711 280.314L299.887 278.675L297.402 278.657L303.217 280.297L305.711 280.314Z" fill="white" stroke="#212121" stroke-width="0.223345" stroke-miterlimit="10"/>
<path d="M317.944 280.401L312.067 278.797L309.661 278.771L315.529 280.384L317.944 280.401Z" fill="white" stroke="#212121" stroke-width="0.223345" stroke-miterlimit="10"/>
<path d="M310.655 280.349L304.813 278.727L302.354 278.701L308.196 280.331L310.655 280.349Z" fill="white" stroke="#212121" stroke-width="0.223345" stroke-miterlimit="10"/>
<path d="M308.196 280.331L302.354 278.701L299.886 278.675L305.711 280.314L308.196 280.331Z" fill="white" stroke="#212121" stroke-width="0.223345" stroke-miterlimit="10"/>
<path d="M300.698 280.279L294.899 278.631L292.371 278.605L298.169 280.253L300.698 280.279Z" fill="white" stroke="#212121" stroke-width="0.223345" stroke-miterlimit="10"/>
<path d="M282.579 280.14L279.911 280.122L285.77 281.857L288.447 281.875L282.579 280.14Z" fill="white" stroke="#212121" stroke-width="0.223345" stroke-miterlimit="10"/>
<path d="M276.859 278.457L274.208 278.431L279.911 280.122L282.579 280.14L276.859 278.457Z" fill="white" stroke="#212121" stroke-width="0.223345" stroke-miterlimit="10"/>
<path d="M285.221 280.166L279.492 278.483L276.859 278.457L282.579 280.14L285.221 280.166Z" fill="white" stroke="#212121" stroke-width="0.223345" stroke-miterlimit="10"/>
<path d="M291.778 283.636L297.96 285.467H300.663L294.472 283.645L291.778 283.636Z" fill="white" stroke="#212121" stroke-width="0.223345" stroke-miterlimit="10"/>
<path d="M288.447 281.875L285.77 281.857L291.778 283.636L294.472 283.645L288.447 281.875Z" fill="white" stroke="#212121" stroke-width="0.223345" stroke-miterlimit="10"/>
<path d="M294.472 283.645L300.662 285.467H303.348L297.14 283.654L294.472 283.645Z" fill="white" stroke="#212121" stroke-width="0.223345" stroke-miterlimit="10"/>
<path d="M293.042 280.218L287.278 278.553L284.698 278.535L290.461 280.201L293.042 280.218Z" fill="white" stroke="#212121" stroke-width="0.223345" stroke-miterlimit="10"/>
<path d="M298.962 281.927L293.042 280.218L290.461 280.201L296.364 281.91L298.962 281.927Z" fill="white" stroke="#212121" stroke-width="0.223345" stroke-miterlimit="10"/>
<path d="M296.364 281.91L290.461 280.201L287.854 280.183L293.748 281.901L296.364 281.91Z" fill="white" stroke="#212121" stroke-width="0.223345" stroke-miterlimit="10"/>
<path d="M301.543 281.936L295.614 280.236L293.042 280.218L298.962 281.927L301.543 281.936Z" fill="white" stroke="#212121" stroke-width="0.223345" stroke-miterlimit="10"/>
<path d="M285.221 280.166L282.579 280.14L288.447 281.875L291.106 281.884L285.221 280.166Z" fill="white" stroke="#212121" stroke-width="0.223345" stroke-miterlimit="10"/>
<path d="M327.719 283.732L330.142 283.741L323.969 282.049L321.545 282.032L327.719 283.732Z" fill="white" stroke="#212121" stroke-width="0.223345" stroke-miterlimit="10"/>
<path d="M293.748 281.901L287.854 280.183L285.221 280.166L291.106 281.883L293.748 281.901Z" fill="white" stroke="#212121" stroke-width="0.223345" stroke-miterlimit="10"/>
<path d="M288.447 281.875L294.472 283.645L297.14 283.654L291.106 281.883L288.447 281.875Z" fill="white" stroke="#212121" stroke-width="0.223345" stroke-miterlimit="10"/>
<path d="M316.654 282.014L310.655 280.349L308.196 280.331L314.177 281.997L316.654 282.014Z" fill="white" stroke="#212121" stroke-width="0.223345" stroke-miterlimit="10"/>
<path d="M314.177 281.997L308.196 280.331L305.711 280.314L311.692 281.988L314.177 281.997Z" fill="white" stroke="#212121" stroke-width="0.223345" stroke-miterlimit="10"/>
<path d="M321.545 282.032L315.529 280.384L313.105 280.366L319.113 282.023L321.545 282.032Z" fill="white" stroke="#212121" stroke-width="0.223345" stroke-miterlimit="10"/>
<path d="M306.653 281.962L300.698 280.279L298.169 280.253L304.107 281.945L306.653 281.962Z" fill="white" stroke="#212121" stroke-width="0.223345" stroke-miterlimit="10"/>
<path d="M311.692 281.988L305.711 280.314L303.217 280.297L309.181 281.971L311.692 281.988Z" fill="white" stroke="#212121" stroke-width="0.223345" stroke-miterlimit="10"/>
<path d="M309.181 281.971L303.217 280.297L300.698 280.279L306.653 281.962L309.181 281.971Z" fill="white" stroke="#212121" stroke-width="0.223345" stroke-miterlimit="10"/>
<path d="M304.107 281.945L298.169 280.253L295.614 280.236L301.543 281.936L304.107 281.945Z" fill="white" stroke="#212121" stroke-width="0.223345" stroke-miterlimit="10"/>
<path d="M311.693 281.988L317.822 283.706L320.325 283.715L314.178 281.997L311.693 281.988Z" fill="white" stroke="#212121" stroke-width="0.223345" stroke-miterlimit="10"/>
<path d="M314.177 281.997L320.325 283.715L322.801 283.723L316.654 282.014L314.177 281.997Z" fill="white" stroke="#212121" stroke-width="0.223345" stroke-miterlimit="10"/>
<path d="M291.106 281.884L297.14 283.654L299.799 283.662L293.748 281.901L291.106 281.884Z" fill="white" stroke="#212121" stroke-width="0.223345" stroke-miterlimit="10"/>
<path d="M316.654 282.014L322.801 283.723H325.268L319.113 282.023L316.654 282.014Z" fill="white" stroke="#212121" stroke-width="0.223345" stroke-miterlimit="10"/>
<path d="M306.653 281.962L312.765 283.688L315.302 283.697L309.181 281.971L306.653 281.962Z" fill="white" stroke="#212121" stroke-width="0.223345" stroke-miterlimit="10"/>
<path d="M319.113 282.023L325.268 283.723L327.718 283.732L321.545 282.032L319.113 282.023Z" fill="white" stroke="#212121" stroke-width="0.223345" stroke-miterlimit="10"/>
<path d="M309.181 281.971L315.302 283.697L317.822 283.706L311.692 281.988L309.181 281.971Z" fill="white" stroke="#212121" stroke-width="0.223345" stroke-miterlimit="10"/>
<path d="M296.364 281.91L302.424 283.671H305.04L298.962 281.927L296.364 281.91Z" fill="white" stroke="#212121" stroke-width="0.223345" stroke-miterlimit="10"/>
<path d="M293.748 281.901L299.799 283.662L302.424 283.671L296.364 281.91L293.748 281.901Z" fill="white" stroke="#212121" stroke-width="0.223345" stroke-miterlimit="10"/>
<path d="M304.107 281.944L310.21 283.688H312.765L306.653 281.962L304.107 281.944Z" fill="white" stroke="#212121" stroke-width="0.223345" stroke-miterlimit="10"/>
<path d="M301.543 281.936L307.638 283.68L310.21 283.688L304.107 281.944L301.543 281.936Z" fill="white" stroke="#212121" stroke-width="0.223345" stroke-miterlimit="10"/>
<path d="M298.962 281.927L305.04 283.671L307.638 283.68L301.543 281.936L298.962 281.927Z" fill="white" stroke="#212121" stroke-width="0.223345" stroke-miterlimit="10"/>
<path d="M319.112 282.023L313.105 280.366L310.655 280.349L316.654 282.014L319.112 282.023Z" fill="white" stroke="#212121" stroke-width="0.223345" stroke-miterlimit="10"/>
<path d="M276.859 278.457L270.764 276.661L268.131 276.635L274.208 278.431L276.859 278.457Z" fill="white" stroke="#212121" stroke-width="0.223345" stroke-miterlimit="10"/>
<path d="M274.208 278.431L271.741 278.404L277.434 280.105L279.911 280.122L274.208 278.431Z" fill="white" stroke="#212121" stroke-width="0.223345" stroke-miterlimit="10"/>
<path d="M268.131 276.634L265.681 276.6L271.741 278.405L274.208 278.431L268.131 276.634Z" fill="white" stroke="#212121" stroke-width="0.223345" stroke-miterlimit="10"/>
<path d="M279.911 280.122L277.434 280.105L283.276 281.849L285.77 281.857L279.911 280.122Z" fill="white" stroke="#212121" stroke-width="0.223345" stroke-miterlimit="10"/>
<path d="M285.77 281.857L283.276 281.849L289.275 283.636H291.778L285.77 281.857Z" fill="white" stroke="#212121" stroke-width="0.223345" stroke-miterlimit="10"/>
<path d="M291.778 283.636H289.275L295.44 285.467H297.96L291.778 283.636Z" fill="white" stroke="#212121" stroke-width="0.223345" stroke-miterlimit="10"/>
<path d="M320.342 280.419L326.376 282.058L328.486 282.075L322.443 280.436L320.342 280.419Z" fill="white" stroke="#212121" stroke-width="0.223345" stroke-miterlimit="10"/>
<path d="M332.558 283.741L334.677 283.749L328.486 282.075L326.376 282.058L332.558 283.741Z" fill="white" stroke="#212121" stroke-width="0.223345" stroke-miterlimit="10"/>
<path d="M338.905 285.467H341.024L334.677 283.749L332.558 283.741L338.905 285.467Z" fill="white" stroke="#212121" stroke-width="0.223345" stroke-miterlimit="10"/>
<path d="M297.402 278.657L291.193 276.905L288.7 276.879L294.899 278.631L297.402 278.657Z" fill="white" stroke="#212121" stroke-width="0.223345" stroke-miterlimit="10"/>
<path d="M320.342 280.419L322.443 280.436L316.549 278.84L314.448 278.814L320.342 280.419Z" fill="white" stroke="#212121" stroke-width="0.223345" stroke-miterlimit="10"/>
<path d="M330.142 283.741H332.558L326.376 282.058L323.969 282.049L330.142 283.741Z" fill="white" stroke="#212121" stroke-width="0.223345" stroke-miterlimit="10"/>
<path d="M279.492 278.483L273.38 276.696L270.764 276.661L276.859 278.457L279.492 278.483Z" fill="white" stroke="#212121" stroke-width="0.223345" stroke-miterlimit="10"/>
<path d="M312.067 278.797L317.944 280.401L320.342 280.419L314.448 278.814L312.067 278.797Z" fill="white" stroke="#212121" stroke-width="0.223345" stroke-miterlimit="10"/>
<path d="M316.549 278.84L310.254 277.132L308.17 277.105L314.448 278.814L316.549 278.84Z" fill="white" stroke="#212121" stroke-width="0.223345" stroke-miterlimit="10"/>
<path d="M314.448 278.814L308.17 277.105L305.789 277.079L312.067 278.797L314.448 278.814Z" fill="white" stroke="#212121" stroke-width="0.223345" stroke-miterlimit="10"/>
<path d="M322.801 283.723L329.114 285.467H331.59L325.268 283.723H322.801Z" fill="white" stroke="#212121" stroke-width="0.223345" stroke-miterlimit="10"/>
<path d="M336.481 285.467H338.905L332.558 283.741H330.143L336.481 285.467Z" fill="white" stroke="#212121" stroke-width="0.223345" stroke-miterlimit="10"/>
<path d="M312.067 278.797L305.789 277.079L303.4 277.053L309.661 278.771L312.067 278.797Z" fill="white" stroke="#212121" stroke-width="0.223345" stroke-miterlimit="10"/>
<path d="M327.719 283.732L334.04 285.467H336.482L330.143 283.741L327.719 283.732Z" fill="white" stroke="#212121" stroke-width="0.223345" stroke-miterlimit="10"/>
<path d="M325.268 283.723L331.59 285.467H334.04L327.719 283.732L325.268 283.723Z" fill="white" stroke="#212121" stroke-width="0.223345" stroke-miterlimit="10"/>
<path d="M323.969 282.049L326.376 282.058L320.342 280.419L317.944 280.401L323.969 282.049Z" fill="white" stroke="#212121" stroke-width="0.223345" stroke-miterlimit="10"/>
<path d="M289.833 278.579L283.669 276.818L281.123 276.783L287.278 278.553L289.833 278.579Z" fill="white" stroke="#212121" stroke-width="0.223345" stroke-miterlimit="10"/>
<path d="M309.661 278.771L303.401 277.053L300.994 277.018L307.246 278.745L309.661 278.771Z" fill="white" stroke="#212121" stroke-width="0.223345" stroke-miterlimit="10"/>
<path d="M287.278 278.553L281.123 276.783L278.559 276.757L284.697 278.535L287.278 278.553Z" fill="white" stroke="#212121" stroke-width="0.223345" stroke-miterlimit="10"/>
<path d="M294.899 278.631L288.7 276.879L286.197 276.844L292.371 278.605L294.899 278.631Z" fill="white" stroke="#212121" stroke-width="0.223345" stroke-miterlimit="10"/>
<path d="M284.697 278.535L278.559 276.757L275.978 276.722L282.108 278.509L284.697 278.535Z" fill="white" stroke="#212121" stroke-width="0.223345" stroke-miterlimit="10"/>
<path d="M282.108 278.509L275.978 276.722L273.38 276.696L279.492 278.483L282.108 278.509Z" fill="white" stroke="#212121" stroke-width="0.223345" stroke-miterlimit="10"/>
<path d="M292.371 278.605L286.197 276.844L283.669 276.818L289.833 278.579L292.371 278.605Z" fill="white" stroke="#212121" stroke-width="0.223345" stroke-miterlimit="10"/>
<path d="M307.246 278.745L300.994 277.018L298.57 276.992L304.813 278.727L307.246 278.745Z" fill="white" stroke="#212121" stroke-width="0.223345" stroke-miterlimit="10"/>
<path d="M304.813 278.727L298.57 276.992L296.128 276.966L302.354 278.701L304.813 278.727Z" fill="white" stroke="#212121" stroke-width="0.223345" stroke-miterlimit="10"/>
<path d="M299.886 278.675L293.67 276.931L291.193 276.905L297.401 278.657L299.886 278.675Z" fill="white" stroke="#212121" stroke-width="0.223345" stroke-miterlimit="10"/>
<path d="M322.801 283.723L320.325 283.715L317.822 283.706L315.302 283.697L312.765 283.688H310.21L307.638 283.68L305.04 283.671H302.424L299.799 283.662L297.14 283.654L303.348 285.467H306.007H308.658H311.283H313.881H316.471H319.034H321.58H324.109H326.62H329.114L322.801 283.723Z" fill="white" stroke="#212121" stroke-width="0.223345" stroke-miterlimit="10"/>
<path d="M302.354 278.701L296.128 276.966L293.67 276.931L299.887 278.675L302.354 278.701Z" fill="white" stroke="#212121" stroke-width="0.223345" stroke-miterlimit="10"/>
<path d="M248.669 274.952V276.73L295.004 290.638L295.021 288.353L248.669 274.952Z" fill="white" stroke="#212121" stroke-width="0.893379" stroke-linecap="round" stroke-linejoin="round"/>
<path d="M357.512 288.353H295.021V290.629H357.512V288.353Z" fill="#212121" stroke="#212121" stroke-width="0.893379" stroke-linecap="round" stroke-linejoin="round"/>
<path d="M111.314 274.952H52.023L52.023 221.72H111.314C111.689 221.72 112.048 221.869 112.313 222.134C112.578 222.399 112.727 222.758 112.727 223.133V273.53C112.728 273.717 112.692 273.901 112.622 274.074C112.551 274.246 112.447 274.403 112.316 274.535C112.185 274.667 112.029 274.772 111.857 274.843C111.685 274.915 111.5 274.952 111.314 274.952Z" fill="white" stroke="#212121" stroke-width="0.893379" stroke-linecap="round" stroke-linejoin="round"/>
<path d="M49.9827 274.952H111.131V221.72H49.9827L49.9827 274.952Z" fill="#212121" stroke="#212121" stroke-width="0.893379" stroke-miterlimit="10"/>
<path d="M53.3222 270.74H106.423V225.932H53.3222L53.3222 270.74Z" fill="white" stroke="#212121" stroke-width="0.893379" stroke-linecap="round" stroke-linejoin="round"/>
<path d="M84.9646 244.033L77.0475 231.957L69.1304 244.033H72.4437V262.945H81.6513V244.033H84.9646Z" fill="#B75400"/>
<path d="M111.131 274.952L64.7794 288.353H2.28815L49.9827 274.952H111.131Z" fill="white" stroke="#212121" stroke-width="0.893379" stroke-linecap="round" stroke-linejoin="round"/>
<path d="M61.6318 280.253L67.4301 278.605L69.9674 278.579L64.1865 280.236L61.6318 280.253Z" fill="white" stroke="#212121" stroke-width="0.223345" stroke-miterlimit="10"/>
<path d="M56.5832 280.297L62.399 278.657L64.9014 278.631L59.1031 280.279L56.5832 280.297Z" fill="white" stroke="#212121" stroke-width="0.223345" stroke-miterlimit="10"/>
<path d="M38.2553 282.032L35.8313 282.049L41.8563 280.401L44.2716 280.384L38.2553 282.032Z" fill="white" stroke="#212121" stroke-width="0.223345" stroke-miterlimit="10"/>
<path d="M64.1865 280.235L69.9674 278.579L72.5221 278.553L66.7587 280.218L64.1865 280.235Z" fill="white" stroke="#212121" stroke-width="0.223345" stroke-miterlimit="10"/>
<path d="M69.3396 280.201L75.1031 278.535L77.6927 278.509L71.9467 280.183L69.3396 280.201Z" fill="white" stroke="#212121" stroke-width="0.223345" stroke-miterlimit="10"/>
<path d="M46.6956 280.366L52.5549 278.745L54.9876 278.727L49.1457 280.349L46.6956 280.366Z" fill="white" stroke="#212121" stroke-width="0.223345" stroke-miterlimit="10"/>
<path d="M44.2716 280.384L50.1397 278.771L52.5549 278.745L46.6956 280.366L44.2716 280.384Z" fill="white" stroke="#212121" stroke-width="0.223345" stroke-miterlimit="10"/>
<path d="M71.9467 280.183L77.6927 278.509L80.3085 278.483L74.5799 280.166L71.9467 280.183Z" fill="white" stroke="#212121" stroke-width="0.223345" stroke-miterlimit="10"/>
<path d="M54.0895 280.314L59.914 278.675L62.399 278.657L56.5832 280.297L54.0895 280.314Z" fill="white" stroke="#212121" stroke-width="0.223345" stroke-miterlimit="10"/>
<path d="M41.8563 280.401L47.7331 278.797L50.1397 278.771L44.2716 280.384L41.8563 280.401Z" fill="white" stroke="#212121" stroke-width="0.223345" stroke-miterlimit="10"/>
<path d="M49.1457 280.349L54.9876 278.727L57.4465 278.701L51.6045 280.331L49.1457 280.349Z" fill="white" stroke="#212121" stroke-width="0.223345" stroke-miterlimit="10"/>
<path d="M51.6045 280.331L57.4464 278.701L59.914 278.675L54.0895 280.314L51.6045 280.331Z" fill="white" stroke="#212121" stroke-width="0.223345" stroke-miterlimit="10"/>
<path d="M59.1031 280.279L64.9014 278.631L67.43 278.605L61.6317 280.253L59.1031 280.279Z" fill="white" stroke="#212121" stroke-width="0.223345" stroke-miterlimit="10"/>
<path d="M77.2218 280.14L79.89 280.122L74.0306 281.857L71.3538 281.875L77.2218 280.14Z" fill="white" stroke="#212121" stroke-width="0.223345" stroke-miterlimit="10"/>
<path d="M82.9417 278.457L85.5923 278.431L79.8899 280.122L77.2218 280.14L82.9417 278.457Z" fill="white" stroke="#212121" stroke-width="0.223345" stroke-miterlimit="10"/>
<path d="M74.5798 280.166L80.3084 278.483L82.9417 278.457L77.2218 280.14L74.5798 280.166Z" fill="white" stroke="#212121" stroke-width="0.223345" stroke-miterlimit="10"/>
<path d="M68.023 283.636L61.841 285.467H59.138L65.3287 283.645L68.023 283.636Z" fill="white" stroke="#212121" stroke-width="0.223345" stroke-miterlimit="10"/>
<path d="M71.3536 281.875L74.0305 281.857L68.0229 283.636L65.3286 283.645L71.3536 281.875Z" fill="white" stroke="#212121" stroke-width="0.223345" stroke-miterlimit="10"/>
<path d="M65.3287 283.645L59.138 285.467H56.4525L62.6519 283.654L65.3287 283.645Z" fill="white" stroke="#212121" stroke-width="0.223345" stroke-miterlimit="10"/>
<path d="M66.7587 280.218L72.5221 278.553L75.103 278.535L69.3396 280.201L66.7587 280.218Z" fill="white" stroke="#212121" stroke-width="0.223345" stroke-miterlimit="10"/>
<path d="M60.8383 281.927L66.7587 280.218L69.3396 280.201L63.4366 281.91L60.8383 281.927Z" fill="white" stroke="#212121" stroke-width="0.223345" stroke-miterlimit="10"/>
<path d="M63.4366 281.91L69.3395 280.201L71.9466 280.183L66.0524 281.901L63.4366 281.91Z" fill="white" stroke="#212121" stroke-width="0.223345" stroke-miterlimit="10"/>
<path d="M58.2573 281.936L64.1864 280.236L66.7586 280.218L60.8382 281.927L58.2573 281.936Z" fill="white" stroke="#212121" stroke-width="0.223345" stroke-miterlimit="10"/>
<path d="M74.5799 280.166L77.2218 280.14L71.3537 281.875L68.6943 281.884L74.5799 280.166Z" fill="white" stroke="#212121" stroke-width="0.223345" stroke-miterlimit="10"/>
<path d="M32.082 283.732L29.658 283.741L35.8313 282.049L38.2552 282.032L32.082 283.732Z" fill="white" stroke="#212121" stroke-width="0.223345" stroke-miterlimit="10"/>
<path d="M66.0524 281.901L71.9466 280.183L74.5798 280.166L68.6943 281.883L66.0524 281.901Z" fill="white" stroke="#212121" stroke-width="0.223345" stroke-miterlimit="10"/>
<path d="M71.3537 281.875L65.3287 283.645L62.6519 283.654L68.6943 281.883L71.3537 281.875Z" fill="white" stroke="#212121" stroke-width="0.223345" stroke-miterlimit="10"/>
<path d="M43.1468 282.014L49.1457 280.349L51.6045 280.331L45.6231 281.997L43.1468 282.014Z" fill="white" stroke="#212121" stroke-width="0.223345" stroke-miterlimit="10"/>
<path d="M45.623 281.997L51.6045 280.331L54.0895 280.314L48.108 281.988L45.623 281.997Z" fill="white" stroke="#212121" stroke-width="0.223345" stroke-miterlimit="10"/>
<path d="M38.2552 282.032L44.2716 280.384L46.6955 280.366L40.6879 282.023L38.2552 282.032Z" fill="white" stroke="#212121" stroke-width="0.223345" stroke-miterlimit="10"/>
<path d="M53.1478 281.962L59.1031 280.279L61.6317 280.253L55.6939 281.945L53.1478 281.962Z" fill="white" stroke="#212121" stroke-width="0.223345" stroke-miterlimit="10"/>
<path d="M48.108 281.988L54.0895 280.314L56.5832 280.297L50.6192 281.971L48.108 281.988Z" fill="white" stroke="#212121" stroke-width="0.223345" stroke-miterlimit="10"/>
<path d="M50.6193 281.971L56.5833 280.297L59.1031 280.279L53.1479 281.962L50.6193 281.971Z" fill="white" stroke="#212121" stroke-width="0.223345" stroke-miterlimit="10"/>
<path d="M55.6938 281.945L61.6317 280.253L64.1865 280.236L58.2573 281.936L55.6938 281.945Z" fill="white" stroke="#212121" stroke-width="0.223345" stroke-miterlimit="10"/>
<path d="M48.1081 281.988L41.9785 283.706L39.476 283.715L45.6231 281.997L48.1081 281.988Z" fill="white" stroke="#212121" stroke-width="0.223345" stroke-miterlimit="10"/>
<path d="M45.6231 281.997L39.476 283.715L36.9997 283.723L43.1468 282.014L45.6231 281.997Z" fill="white" stroke="#212121" stroke-width="0.223345" stroke-miterlimit="10"/>
<path d="M68.6943 281.884L62.6518 283.654L60.0012 283.662L66.0524 281.901L68.6943 281.884Z" fill="white" stroke="#212121" stroke-width="0.223345" stroke-miterlimit="10"/>
<path d="M43.1468 282.014L36.9997 283.723H34.5322L40.688 282.023L43.1468 282.014Z" fill="white" stroke="#212121" stroke-width="0.223345" stroke-miterlimit="10"/>
<path d="M53.1478 281.962L47.0356 283.688L44.4983 283.697L50.6192 281.971L53.1478 281.962Z" fill="white" stroke="#212121" stroke-width="0.223345" stroke-miterlimit="10"/>
<path d="M40.688 282.023L34.5322 283.723L32.082 283.732L38.2553 282.032L40.688 282.023Z" fill="white" stroke="#212121" stroke-width="0.223345" stroke-miterlimit="10"/>
<path d="M50.6193 281.971L44.4983 283.697L41.9785 283.706L48.1081 281.988L50.6193 281.971Z" fill="white" stroke="#212121" stroke-width="0.223345" stroke-miterlimit="10"/>
<path d="M63.4366 281.91L57.3767 283.671H54.7609L60.8382 281.927L63.4366 281.91Z" fill="white" stroke="#212121" stroke-width="0.223345" stroke-miterlimit="10"/>
<path d="M66.0524 281.901L60.0012 283.662L57.3767 283.671L63.4366 281.91L66.0524 281.901Z" fill="white" stroke="#212121" stroke-width="0.223345" stroke-miterlimit="10"/>
<path d="M55.6938 281.944L49.5903 283.688H47.0356L53.1478 281.962L55.6938 281.944Z" fill="white" stroke="#212121" stroke-width="0.223345" stroke-miterlimit="10"/>
<path d="M58.2574 281.936L52.1626 283.68L49.5904 283.688L55.6939 281.944L58.2574 281.936Z" fill="white" stroke="#212121" stroke-width="0.223345" stroke-miterlimit="10"/>
<path d="M60.8382 281.927L54.7609 283.671L52.1625 283.68L58.2573 281.936L60.8382 281.927Z" fill="white" stroke="#212121" stroke-width="0.223345" stroke-miterlimit="10"/>
<path d="M40.6879 282.023L46.6955 280.366L49.1457 280.349L43.1468 282.014L40.6879 282.023Z" fill="white" stroke="#212121" stroke-width="0.223345" stroke-miterlimit="10"/>
<path d="M82.9417 278.457L89.0364 276.661L91.6697 276.635L85.5923 278.431L82.9417 278.457Z" fill="white" stroke="#212121" stroke-width="0.223345" stroke-miterlimit="10"/>
<path d="M85.5923 278.431L88.0599 278.404L82.3662 280.105L79.8899 280.122L85.5923 278.431Z" fill="white" stroke="#212121" stroke-width="0.223345" stroke-miterlimit="10"/>
<path d="M91.6698 276.634L94.1199 276.6L88.06 278.405L85.5924 278.431L91.6698 276.634Z" fill="white" stroke="#212121" stroke-width="0.223345" stroke-miterlimit="10"/>
<path d="M79.8899 280.122L82.3662 280.105L76.5242 281.849L74.0305 281.857L79.8899 280.122Z" fill="white" stroke="#212121" stroke-width="0.223345" stroke-miterlimit="10"/>
<path d="M74.0306 281.857L76.5243 281.849L70.5254 283.636H68.0229L74.0306 281.857Z" fill="white" stroke="#212121" stroke-width="0.223345" stroke-miterlimit="10"/>
<path d="M68.0229 283.636H70.5254L64.3608 285.467H61.8409L68.0229 283.636Z" fill="white" stroke="#212121" stroke-width="0.223345" stroke-miterlimit="10"/>
<path d="M39.4585 280.419L33.4248 282.058L31.3147 282.075L37.3572 280.436L39.4585 280.419Z" fill="white" stroke="#212121" stroke-width="0.223345" stroke-miterlimit="10"/>
<path d="M27.2428 283.741L25.124 283.749L31.3147 282.075L33.4247 282.058L27.2428 283.741Z" fill="white" stroke="#212121" stroke-width="0.223345" stroke-miterlimit="10"/>
<path d="M20.8952 285.467H18.7764L25.124 283.749L27.2428 283.741L20.8952 285.467Z" fill="white" stroke="#212121" stroke-width="0.223345" stroke-miterlimit="10"/>
<path d="M62.399 278.657L68.6071 276.905L71.1008 276.879L64.9014 278.631L62.399 278.657Z" fill="white" stroke="#212121" stroke-width="0.223345" stroke-miterlimit="10"/>
<path d="M39.4585 280.419L37.3572 280.436L43.2514 278.84L45.3441 278.814L39.4585 280.419Z" fill="white" stroke="#212121" stroke-width="0.223345" stroke-miterlimit="10"/>
<path d="M29.658 283.741H27.2428L33.4248 282.058L35.8313 282.049L29.658 283.741Z" fill="white" stroke="#212121" stroke-width="0.223345" stroke-miterlimit="10"/>
<path d="M80.3085 278.483L86.4207 276.696L89.0365 276.661L82.9417 278.457L80.3085 278.483Z" fill="white" stroke="#212121" stroke-width="0.223345" stroke-miterlimit="10"/>
<path d="M47.7332 278.797L41.8564 280.401L39.4586 280.419L45.3441 278.814L47.7332 278.797Z" fill="white" stroke="#212121" stroke-width="0.223345" stroke-miterlimit="10"/>
<path d="M43.2515 278.84L49.5468 277.132L51.6307 277.105L45.3441 278.814L43.2515 278.84Z" fill="white" stroke="#212121" stroke-width="0.223345" stroke-miterlimit="10"/>
<path d="M45.3441 278.814L51.6307 277.105L54.0111 277.079L47.7332 278.797L45.3441 278.814Z" fill="white" stroke="#212121" stroke-width="0.223345" stroke-miterlimit="10"/>
<path d="M36.9997 283.723L30.6869 285.467H28.2106L34.5321 283.723H36.9997Z" fill="white" stroke="#212121" stroke-width="0.223345" stroke-miterlimit="10"/>
<path d="M23.3191 285.467H20.8951L27.2428 283.741H29.658L23.3191 285.467Z" fill="white" stroke="#212121" stroke-width="0.223345" stroke-miterlimit="10"/>
<path d="M47.7332 278.797L54.011 277.079L56.4001 277.053L50.1397 278.771L47.7332 278.797Z" fill="white" stroke="#212121" stroke-width="0.223345" stroke-miterlimit="10"/>
<path d="M32.082 283.732L25.7605 285.467H23.3191L29.658 283.741L32.082 283.732Z" fill="white" stroke="#212121" stroke-width="0.223345" stroke-miterlimit="10"/>
<path d="M34.5321 283.723L28.2106 285.467H25.7605L32.082 283.732L34.5321 283.723Z" fill="white" stroke="#212121" stroke-width="0.223345" stroke-miterlimit="10"/>
<path d="M35.8313 282.049L33.4247 282.058L39.4585 280.419L41.8563 280.401L35.8313 282.049Z" fill="white" stroke="#212121" stroke-width="0.223345" stroke-miterlimit="10"/>
<path d="M69.9674 278.579L76.1319 276.818L78.678 276.783L72.5222 278.553L69.9674 278.579Z" fill="white" stroke="#212121" stroke-width="0.223345" stroke-miterlimit="10"/>
<path d="M50.1397 278.771L56.4002 277.053L58.8067 277.018L52.555 278.745L50.1397 278.771Z" fill="white" stroke="#212121" stroke-width="0.223345" stroke-miterlimit="10"/>
<path d="M72.5221 278.553L78.6779 276.783L81.2414 276.757L75.103 278.535L72.5221 278.553Z" fill="white" stroke="#212121" stroke-width="0.223345" stroke-miterlimit="10"/>
<path d="M64.9015 278.631L71.1009 276.879L73.6033 276.844L67.4301 278.605L64.9015 278.631Z" fill="white" stroke="#212121" stroke-width="0.223345" stroke-miterlimit="10"/>
<path d="M75.103 278.535L81.2414 276.757L83.8223 276.722L77.6927 278.509L75.103 278.535Z" fill="white" stroke="#212121" stroke-width="0.223345" stroke-miterlimit="10"/>
<path d="M77.6926 278.509L83.8223 276.722L86.4206 276.696L80.3084 278.483L77.6926 278.509Z" fill="white" stroke="#212121" stroke-width="0.223345" stroke-miterlimit="10"/>
<path d="M67.4301 278.605L73.6033 276.844L76.1319 276.818L69.9674 278.579L67.4301 278.605Z" fill="white" stroke="#212121" stroke-width="0.223345" stroke-miterlimit="10"/>
<path d="M52.5549 278.745L58.8067 277.018L61.2306 276.992L54.9876 278.727L52.5549 278.745Z" fill="white" stroke="#212121" stroke-width="0.223345" stroke-miterlimit="10"/>
<path d="M54.9876 278.727L61.2306 276.992L63.672 276.966L57.4465 278.701L54.9876 278.727Z" fill="white" stroke="#212121" stroke-width="0.223345" stroke-miterlimit="10"/>
<path d="M59.914 278.675L66.1309 276.931L68.6071 276.905L62.399 278.657L59.914 278.675Z" fill="white" stroke="#212121" stroke-width="0.223345" stroke-miterlimit="10"/>
<path d="M36.9997 283.723L39.476 283.715L41.9784 283.706L44.4983 283.697L47.0356 283.688H49.5904L52.1626 283.68L54.7609 283.671H57.3767L60.0012 283.662L62.6519 283.654L56.4525 285.467H53.7931H51.1424H48.5266H45.9196H43.3299H40.7665H38.2204H35.6918H33.1807H30.687L36.9997 283.723Z" fill="white" stroke="#212121" stroke-width="0.223345" stroke-miterlimit="10"/>
<path d="M57.4464 278.701L63.672 276.966L66.1308 276.931L59.914 278.675L57.4464 278.701Z" fill="white" stroke="#212121" stroke-width="0.223345" stroke-miterlimit="10"/>
<path d="M111.131 274.952V276.73L64.7881 290.638L64.7794 288.353L111.131 274.952Z" fill="white" stroke="#212121" stroke-width="0.893379" stroke-linecap="round" stroke-linejoin="round"/>
<path d="M2.28814 290.638H64.7794V288.362H2.28814V290.638Z" fill="#212121" stroke="#212121" stroke-width="0.893379" stroke-linecap="round" stroke-linejoin="round"/>
</svg>
