<svg width="358" height="329" viewBox="0 0 358 329" fill="none" xmlns="http://www.w3.org/2000/svg">
<path d="M346.513 311.551L340.22 305.333C345.458 297.744 343.2 292.155 338.702 287.009C335.991 283.909 328.902 284.381 320.194 285.501L272.073 237.963L264.669 240.739C264.669 240.739 284.695 265.124 303.453 287.546C295.661 288.24 287.823 288.25 281.327 286.084C261.893 279.606 246.161 265.725 246.161 265.725C223.951 267.576 257.266 303.667 270.222 313.846C296.133 334.205 309.903 330.504 328.301 316.789C331.604 320.565 333.992 323.165 335.001 324.026L335.195 324.193C343.487 331.078 354.175 319.131 346.513 311.551Z" fill="#9E9E9E"/>
<path opacity="0.5" d="M346.513 311.551L340.22 305.333C345.458 297.744 343.2 292.155 338.702 287.009C335.991 283.909 328.902 284.381 320.194 285.501L272.073 237.963L264.669 240.739C264.669 240.739 284.695 265.124 303.453 287.546C295.661 288.24 287.823 288.25 281.327 286.084C261.893 279.606 246.161 265.725 246.161 265.725C223.951 267.576 256.563 304.639 270.222 313.846C300.76 334.409 309.903 330.504 328.301 316.789C331.604 320.565 333.992 323.165 335.001 324.026L335.195 324.193C343.487 331.078 354.175 319.131 346.513 311.551Z" fill="white"/>
<path d="M52.4819 143.858C52.4819 143.858 76.8202 171.99 76.9498 206.841C77.0793 241.692 52.9631 270.056 52.9631 270.056C52.9631 270.056 28.6248 241.924 28.4953 207.082C28.3657 172.24 52.4819 143.858 52.4819 143.858Z" fill="#9E9E9E"/>
<path d="M105.961 223.573C105.961 223.573 106.109 246.476 93.8107 261.033C81.512 275.59 61.4213 276.293 61.4213 276.293C61.4213 276.293 61.264 253.389 73.572 238.833C85.8799 224.276 105.961 223.573 105.961 223.573Z" fill="#9E9E9E"/>
<path d="M0.251714 221.453C0.251714 221.453 -0.766237 244.33 10.9772 259.469C22.7207 274.609 42.7743 276.293 42.7743 276.293C42.7743 276.293 43.7831 253.417 32.0396 238.277C20.2961 223.138 0.251714 221.453 0.251714 221.453Z" fill="#9E9E9E"/>
<g opacity="0.5">
<path opacity="0.5" d="M52.4819 143.858C52.4819 143.858 76.8202 171.99 76.9498 206.841C77.0793 241.692 52.9631 270.056 52.9631 270.056C52.9631 270.056 28.6248 241.924 28.4953 207.082C28.3657 172.24 52.4819 143.858 52.4819 143.858Z" fill="white"/>
<path opacity="0.5" d="M105.961 223.573C105.961 223.573 106.109 246.476 93.8107 261.033C81.512 275.59 61.4213 276.293 61.4213 276.293C61.4213 276.293 61.264 253.389 73.572 238.833C85.8799 224.276 105.961 223.573 105.961 223.573Z" fill="white"/>
<path opacity="0.5" d="M0.251714 221.453C0.251714 221.453 -0.766237 244.33 10.9772 259.469C22.7207 274.609 42.7743 276.293 42.7743 276.293C42.7743 276.293 43.7831 253.417 32.0396 238.277C20.2961 223.138 0.251714 221.453 0.251714 221.453Z" fill="white"/>
</g>
<path d="M37.5458 237.861C37.5889 237.781 37.6506 237.712 37.7256 237.66C37.8007 237.608 37.8871 237.575 37.9776 237.563C38.0681 237.551 38.1601 237.561 38.2459 237.592C38.3318 237.623 38.409 237.674 38.4712 237.741L51.2604 249.169C51.3594 249.247 51.479 249.293 51.6042 249.303C51.7294 249.312 51.8547 249.285 51.9643 249.223C52.0739 249.162 52.1631 249.07 52.2206 248.958C52.2781 248.847 52.3014 248.721 52.2876 248.596L52.1488 222.231C52.1475 222.032 52.0716 221.84 51.936 221.694L32.7337 202.344C32.6051 202.208 32.5289 202.031 32.5187 201.845C32.5085 201.658 32.565 201.474 32.6781 201.326C32.7274 201.251 32.7934 201.188 32.8709 201.143C32.9483 201.097 33.0352 201.07 33.1248 201.064C33.2144 201.058 33.3042 201.072 33.3872 201.106C33.4703 201.141 33.5443 201.194 33.6036 201.261L51.1216 218.918C51.2146 219.008 51.3337 219.068 51.4622 219.087C51.5906 219.106 51.7218 219.085 51.8374 219.025C51.9529 218.966 52.0469 218.872 52.1061 218.756C52.1653 218.641 52.1867 218.509 52.1673 218.381L52.0563 189.369C52.0588 189.169 51.9823 188.977 51.8434 188.833L39.1005 176.303C38.9705 176.168 38.8926 175.992 38.8808 175.806C38.8689 175.619 38.9238 175.434 39.0357 175.285C39.0842 175.209 39.1496 175.146 39.2267 175.099C39.3037 175.053 39.3905 175.025 39.4801 175.018C39.5697 175.011 39.6597 175.025 39.7432 175.058C39.8266 175.091 39.9012 175.144 39.9611 175.211L50.9643 186.14C51.3715 186.547 52.01 186.214 52.01 185.594L51.8249 144.58C51.8147 144.401 51.8748 144.225 51.9924 144.09C52.11 143.955 52.2758 143.872 52.4542 143.858C52.5429 143.862 52.6299 143.885 52.7101 143.923C52.7902 143.961 52.862 144.015 52.9213 144.081C52.9807 144.148 53.0263 144.225 53.0557 144.309C53.0851 144.393 53.0977 144.482 53.0927 144.57L53.3241 205.296C53.3082 205.437 53.3408 205.58 53.4164 205.7C53.492 205.821 53.6063 205.912 53.7405 205.959C53.8747 206.007 54.021 206.007 54.1555 205.96C54.2899 205.914 54.4046 205.823 54.4808 205.703L68.7322 181.948C68.7732 181.873 68.83 181.808 68.8985 181.757C68.9671 181.706 69.0458 181.671 69.1292 181.653C69.2127 181.636 69.299 181.636 69.3822 181.655C69.4654 181.674 69.5436 181.711 69.6113 181.763C69.7524 181.883 69.8465 182.049 69.8769 182.232C69.9074 182.415 69.8723 182.603 69.7779 182.762L53.4444 209.978L53.3426 209.895L53.4351 234.779C53.4191 234.908 53.4431 235.038 53.5038 235.152C53.5645 235.267 53.6589 235.359 53.7742 235.418C53.8896 235.477 54.0202 235.498 54.1483 235.48C54.2764 235.462 54.3957 235.405 54.4901 235.316L71.8693 217.511C71.9268 217.442 72 217.386 72.0829 217.35C72.1657 217.314 72.2559 217.298 72.3461 217.304C72.4363 217.309 72.524 217.336 72.6019 217.382C72.6799 217.427 72.7459 217.491 72.7947 217.567C72.9078 217.715 72.9644 217.899 72.9542 218.086C72.944 218.272 72.8678 218.449 72.7392 218.585L53.4814 238.324L53.6017 269.343C53.608 269.432 53.5967 269.521 53.5684 269.606C53.5402 269.69 53.4955 269.768 53.437 269.835C53.3786 269.902 53.3074 269.957 53.2277 269.997C53.148 270.036 53.0612 270.059 52.9724 270.065C52.8832 270.062 52.7957 270.04 52.7149 270.002C52.6342 269.964 52.5619 269.911 52.5023 269.844C52.4428 269.778 52.3972 269.7 52.3682 269.616C52.3393 269.531 52.3276 269.442 52.3339 269.353L52.2691 252.288C52.2705 252.182 52.2498 252.078 52.2084 251.98C52.167 251.883 52.1057 251.796 52.0285 251.724L37.6569 238.888C37.5175 238.759 37.4295 238.584 37.409 238.395C37.3886 238.207 37.4372 238.017 37.5458 237.861Z" fill="white"/>
<path d="M0.927302 222.962C0.986555 222.894 1.06059 222.842 1.14363 222.807C1.22668 222.773 1.31649 222.759 1.40606 222.765C1.49563 222.771 1.58254 222.798 1.66001 222.844C1.73749 222.889 1.80344 222.952 1.85271 223.027L21.1568 247.587C21.564 248.115 22.3321 247.726 22.2488 247.023L20.6663 232.697C20.6336 232.518 20.6725 232.334 20.7747 232.183C20.8768 232.032 21.0339 231.928 21.2123 231.892C21.2996 231.885 21.3876 231.895 21.4709 231.922C21.5541 231.95 21.631 231.994 21.6967 232.052C21.7625 232.11 21.8158 232.18 21.8534 232.259C21.891 232.339 21.9122 232.425 21.9156 232.512L23.9885 251.178L31.4659 260.774C31.547 260.874 31.6572 260.946 31.7812 260.981C31.9052 261.015 32.0368 261.01 32.1578 260.966C32.2788 260.923 32.3833 260.842 32.4566 260.737C32.5299 260.631 32.5686 260.505 32.5671 260.376L33.9275 246.68C33.931 246.592 33.9521 246.505 33.9895 246.425C34.0269 246.345 34.0799 246.273 34.1453 246.214C34.2108 246.154 34.2874 246.108 34.3708 246.079C34.4541 246.049 34.5425 246.037 34.6308 246.042C34.809 246.075 34.9668 246.178 35.0706 246.326C35.1744 246.475 35.2158 246.659 35.186 246.837L33.5665 263.088C33.5443 263.289 33.6007 263.491 33.7239 263.652L43.8016 276.488C43.9142 276.636 43.9712 276.819 43.9627 277.005C43.9543 277.191 43.8809 277.368 43.7553 277.506C43.6967 277.574 43.6233 277.627 43.5406 277.662C43.458 277.697 43.3684 277.712 43.2789 277.707C43.1893 277.701 43.1022 277.676 43.0244 277.631C42.9465 277.586 42.8799 277.525 42.8299 277.45L37.3885 270.519C37.3297 270.44 37.2526 270.377 37.1639 270.335C37.0752 270.293 36.9775 270.274 36.8795 270.278L26.8388 270.972C26.7501 270.972 26.6623 270.955 26.5803 270.921C26.4983 270.887 26.4239 270.837 26.3611 270.774C26.2984 270.712 26.2486 270.637 26.2147 270.555C26.1807 270.473 26.1633 270.385 26.1633 270.297C26.1447 270.116 26.197 269.935 26.3092 269.791C26.4214 269.648 26.5846 269.554 26.7648 269.529L34.8066 268.973C34.9323 268.949 35.0496 268.893 35.147 268.81C35.2444 268.727 35.3187 268.62 35.3625 268.5C35.4063 268.379 35.4182 268.25 35.397 268.124C35.3758 267.997 35.3222 267.879 35.2415 267.78L27.1812 257.517C27.1252 257.445 27.0536 257.387 26.9718 257.347C26.8901 257.307 26.8003 257.286 26.7093 257.285H12.3469C12.1685 257.271 12.0027 257.188 11.8851 257.053C11.7675 256.918 11.7074 256.742 11.7176 256.564C11.7113 256.475 11.7226 256.386 11.7509 256.301C11.7791 256.217 11.8238 256.139 11.8822 256.072C11.9407 256.005 12.0119 255.95 12.0916 255.91C12.1713 255.871 12.2581 255.848 12.3469 255.842H24.4512C24.5906 255.837 24.7257 255.793 24.8411 255.715C24.9565 255.636 25.0475 255.527 25.1035 255.4C25.1596 255.272 25.1785 255.131 25.1581 254.993C25.1376 254.855 25.0787 254.726 24.988 254.62L16.104 243.302C16.048 243.228 15.9754 243.167 15.8918 243.125C15.8083 243.084 15.7162 243.062 15.6228 243.062L6.36872 243.191C6.27996 243.187 6.19301 243.164 6.11284 243.126C6.03268 243.088 5.96088 243.034 5.90156 242.968C5.84224 242.901 5.79657 242.824 5.76716 242.74C5.73775 242.656 5.72519 242.568 5.73018 242.479C5.72259 242.39 5.73263 242.301 5.75972 242.216C5.78682 242.131 5.83043 242.052 5.88806 241.984C5.94569 241.916 6.01619 241.86 6.09551 241.82C6.17482 241.779 6.26139 241.755 6.35021 241.748L13.3833 241.655C13.513 241.636 13.6352 241.583 13.7375 241.501C13.8399 241.419 13.9186 241.311 13.9656 241.189C14.0127 241.066 14.0264 240.934 14.0054 240.804C13.9844 240.675 13.9294 240.553 13.846 240.452L0.927302 223.98C0.808382 223.837 0.743271 223.657 0.743271 223.471C0.743271 223.285 0.808382 223.105 0.927302 222.962Z" fill="white"/>
<path d="M66.4185 255.805C66.5061 255.798 66.594 255.81 66.6773 255.837C66.7605 255.865 66.8375 255.909 66.9037 255.967C66.9699 256.024 67.0241 256.094 67.0631 256.173C67.1021 256.252 67.1252 256.337 67.1311 256.425L68.2138 265.522C68.215 265.647 68.2539 265.769 68.3256 265.871C68.3974 265.974 68.4984 266.052 68.6156 266.096C68.7328 266.14 68.8605 266.148 68.9821 266.118C69.1036 266.088 69.2133 266.022 69.2966 265.929L77.6715 256.018C77.7966 255.861 77.8563 255.662 77.8381 255.462L76.8109 239.138C76.7872 238.959 76.8351 238.778 76.9443 238.634C77.0535 238.49 77.2151 238.395 77.3939 238.37C77.4818 238.368 77.5692 238.383 77.651 238.415C77.7329 238.447 77.8075 238.495 77.8705 238.556C77.9335 238.617 77.9836 238.69 78.0177 238.771C78.0519 238.852 78.0695 238.939 78.0695 239.027L78.9949 252.788C78.9912 252.916 79.0268 253.042 79.0968 253.15C79.1669 253.257 79.268 253.34 79.3868 253.389C79.5055 253.437 79.6362 253.448 79.7613 253.42C79.8864 253.392 80 253.326 80.0869 253.232L89.341 242.285C89.4659 242.124 89.5283 241.923 89.5168 241.72L88.7117 231.244C88.6897 231.065 88.7368 230.884 88.8433 230.738C88.9498 230.592 89.1079 230.492 89.2854 230.458C89.3737 230.455 89.4616 230.47 89.544 230.502C89.6264 230.534 89.7016 230.582 89.7653 230.643C89.829 230.704 89.88 230.777 89.9151 230.858C89.9503 230.939 89.9691 231.026 89.9703 231.115L90.581 239.092C90.5764 239.219 90.6112 239.345 90.6807 239.452C90.7502 239.559 90.8511 239.642 90.9695 239.69C91.0879 239.737 91.2182 239.747 91.3424 239.718C91.4667 239.689 91.5789 239.622 91.6638 239.527L105.128 223.591C105.183 223.52 105.253 223.463 105.333 223.423C105.413 223.383 105.502 223.363 105.591 223.363C105.681 223.363 105.769 223.383 105.849 223.423C105.929 223.463 105.999 223.52 106.054 223.591C106.173 223.734 106.238 223.914 106.238 224.1C106.238 224.286 106.173 224.466 106.054 224.609L85.991 248.364C85.556 248.873 85.991 249.706 86.5647 249.567L98.993 246.689C99.0791 246.675 99.1671 246.678 99.2518 246.699C99.3365 246.72 99.416 246.759 99.4853 246.811C99.5547 246.864 99.6125 246.931 99.6551 247.007C99.6978 247.083 99.7244 247.167 99.7333 247.254C99.7742 247.432 99.7463 247.618 99.6553 247.776C99.5644 247.934 99.417 248.052 99.2429 248.105L82.9834 251.844L75.1452 261.098C75.0574 261.197 74.9978 261.318 74.9726 261.448C74.9474 261.578 74.9575 261.713 75.0019 261.837C75.0463 261.962 75.1234 262.073 75.2251 262.157C75.3268 262.242 75.4494 262.298 75.5801 262.32L87.666 262.847C87.7548 262.855 87.8412 262.881 87.9201 262.923C87.999 262.964 88.0689 263.021 88.1257 263.09C88.1825 263.159 88.2251 263.238 88.251 263.324C88.2769 263.409 88.2857 263.499 88.2768 263.587C88.2805 263.676 88.2663 263.764 88.2349 263.847C88.2036 263.93 88.1558 264.006 88.0944 264.07C88.033 264.134 87.9593 264.185 87.8777 264.22C87.7961 264.254 87.7084 264.272 87.6197 264.272L73.2758 263.652C73.1839 263.649 73.0925 263.668 73.009 263.706C72.9255 263.745 72.8521 263.802 72.7946 263.874L62.319 276.275C62.2645 276.346 62.1945 276.403 62.1143 276.443C62.034 276.483 61.9457 276.503 61.8563 276.503C61.7668 276.503 61.6785 276.483 61.5983 276.443C61.518 276.403 61.448 276.346 61.3936 276.275C61.2746 276.132 61.2095 275.952 61.2095 275.766C61.2095 275.58 61.2746 275.4 61.3936 275.257L67.0571 268.557C67.1232 268.474 67.1721 268.379 67.2007 268.278C67.2293 268.176 67.2371 268.07 67.2237 267.965L65.8726 256.601C65.8471 256.424 65.8892 256.244 65.9903 256.096C66.0914 255.949 66.2443 255.845 66.4185 255.805Z" fill="white"/>
<path d="M297.244 236.51L159.774 275.201C158.29 275.566 156.729 275.449 155.316 274.867C153.903 274.284 152.713 273.267 151.917 271.962L47.6697 84.3444C47.3162 83.7869 47.1032 83.152 47.049 82.494C46.9948 81.8361 47.101 81.1748 47.3585 80.567C47.6161 79.9591 48.0172 79.4228 48.5275 79.004C49.0379 78.5853 49.6422 78.2966 50.2886 78.1627L187.758 39.4713C189.24 39.1046 190.8 39.22 192.211 39.8009C193.622 40.3817 194.812 41.3977 195.606 42.7009L299.835 230.319C300.188 230.875 300.402 231.509 300.458 232.165C300.513 232.822 300.41 233.483 300.155 234.09C299.901 234.698 299.503 235.236 298.996 235.657C298.489 236.078 297.888 236.371 297.244 236.51Z" fill="#212121" stroke="black" stroke-width="0.891926" stroke-miterlimit="10"/>
<path d="M157.84 266.974C157.84 266.974 237.277 248.077 290.747 229.56L157.84 266.974Z" fill="#9E9E9E"/>
<path d="M290.747 229.56L157.84 266.974L55.036 81.9663L187.944 44.5612L290.747 229.56Z" fill="white" stroke="#212121" stroke-width="0.891926" stroke-miterlimit="10"/>
<path d="M148.577 83.7431L158.895 80.8373" stroke="#212121" stroke-width="0.891926" stroke-miterlimit="10"/>
<path d="M77.0053 103.889L140.59 85.9917" stroke="#212121" stroke-width="0.891926" stroke-miterlimit="10"/>
<path d="M137.259 95.2366L162.893 88.0184" stroke="#212121" stroke-width="0.891926" stroke-miterlimit="10"/>
<path d="M97.975 106.295L130.263 97.2077" stroke="#212121" stroke-width="0.891926" stroke-miterlimit="10"/>
<path d="M80.9937 111.07L91.9783 107.98" stroke="#212121" stroke-width="0.891926" stroke-miterlimit="10"/>
<path d="M116.946 109.266L166.89 95.2089" stroke="#212121" stroke-width="0.891926" stroke-miterlimit="10"/>
<path d="M84.9916 118.261L105.961 112.357" stroke="#212121" stroke-width="0.891926" stroke-miterlimit="10"/>
<path d="M194.856 78.3294C193.542 76.1805 191.579 74.5046 189.25 73.5432C186.922 72.5819 184.348 72.3849 181.901 72.9805C177.116 74.3316 175.182 78.9032 177.57 83.2063C178.881 85.3583 180.844 87.0369 183.173 87.9986C185.503 88.9603 188.078 89.1553 190.525 88.5552C195.264 87.2133 197.244 82.6326 194.856 78.3294Z" fill="white" stroke="#212121" stroke-width="0.891926" stroke-miterlimit="10"/>
<path d="M105.129 133.021L94.8102 135.927" stroke="#212121" stroke-width="0.891926" stroke-miterlimit="10"/>
<path d="M176.7 112.875L113.115 130.772" stroke="#212121" stroke-width="0.891926" stroke-miterlimit="10"/>
<path d="M124.433 135.899L98.7986 143.117" stroke="#212121" stroke-width="0.891926" stroke-miterlimit="10"/>
<path d="M163.716 124.841L131.429 133.928" stroke="#212121" stroke-width="0.891926" stroke-miterlimit="10"/>
<path d="M180.698 120.065L169.713 123.156" stroke="#212121" stroke-width="0.891926" stroke-miterlimit="10"/>
<path d="M152.732 136.242L102.796 150.299" stroke="#212121" stroke-width="0.891926" stroke-miterlimit="10"/>
<path d="M184.695 127.247L163.716 133.151" stroke="#212121" stroke-width="0.891926" stroke-miterlimit="10"/>
<path d="M212.661 110.376C211.35 108.224 209.387 106.546 207.058 105.584C204.728 104.622 202.153 104.427 199.705 105.028C194.921 106.369 192.987 110.95 195.375 115.207C196.685 117.36 198.648 119.039 200.977 120.001C203.307 120.963 205.883 121.157 208.33 120.556C213.105 119.251 215.049 114.67 212.661 110.376Z" fill="white" stroke="#212121" stroke-width="0.891926" stroke-miterlimit="10"/>
<path d="M184.186 147.818L194.505 144.913" stroke="#212121" stroke-width="0.891926" stroke-miterlimit="10"/>
<path d="M112.615 167.965L176.2 150.067" stroke="#212121" stroke-width="0.891926" stroke-miterlimit="10"/>
<path d="M172.869 159.321L198.503 152.103" stroke="#212121" stroke-width="0.891926" stroke-miterlimit="10"/>
<path d="M133.585 170.38L165.872 161.283" stroke="#212121" stroke-width="0.891926" stroke-miterlimit="10"/>
<path d="M116.604 175.155L127.588 172.064" stroke="#212121" stroke-width="0.891926" stroke-miterlimit="10"/>
<path d="M152.556 173.341L202.491 159.294" stroke="#212121" stroke-width="0.891926" stroke-miterlimit="10"/>
<path d="M120.601 182.346L141.571 176.441" stroke="#212121" stroke-width="0.891926" stroke-miterlimit="10"/>
<path d="M231.04 148.475C232.625 144.441 229.773 139.545 224.669 137.538C219.566 135.532 214.143 137.175 212.557 141.209C210.971 145.243 213.824 150.139 218.927 152.145C224.031 154.152 229.454 152.508 231.04 148.475Z" fill="white" stroke="#212121" stroke-width="0.891926" stroke-miterlimit="10"/>
<path d="M140.738 197.106L130.42 200.012" stroke="#212121" stroke-width="0.891926" stroke-miterlimit="10"/>
<path d="M212.31 176.96L148.725 194.857" stroke="#212121" stroke-width="0.891926" stroke-miterlimit="10"/>
<path d="M160.042 199.984L134.409 207.193" stroke="#212121" stroke-width="0.891926" stroke-miterlimit="10"/>
<path d="M199.326 188.925L167.038 198.013" stroke="#212121" stroke-width="0.891926" stroke-miterlimit="10"/>
<path d="M216.307 184.141L205.323 187.232" stroke="#212121" stroke-width="0.891926" stroke-miterlimit="10"/>
<path d="M188.341 200.326L138.406 214.383" stroke="#212121" stroke-width="0.891926" stroke-miterlimit="10"/>
<path d="M220.296 191.331L199.326 197.235" stroke="#212121" stroke-width="0.891926" stroke-miterlimit="10"/>
<path d="M248.262 174.452C246.949 172.301 244.987 170.623 242.657 169.661C240.328 168.7 237.754 168.504 235.306 169.103C230.522 170.454 228.588 175.025 230.975 179.329C232.287 181.481 234.249 183.159 236.579 184.121C238.908 185.083 241.483 185.278 243.931 184.678C248.715 183.363 250.659 178.736 248.262 174.452Z" fill="white" stroke="#212121" stroke-width="0.891926" stroke-miterlimit="10"/>
<path d="M219.796 211.903L230.115 208.997" stroke="#212121" stroke-width="0.891926" stroke-miterlimit="10"/>
<path d="M148.225 232.049L211.81 214.152" stroke="#212121" stroke-width="0.891926" stroke-miterlimit="10"/>
<path d="M208.478 223.397L234.112 216.188" stroke="#212121" stroke-width="0.891926" stroke-miterlimit="10"/>
<path d="M169.195 234.455L201.482 225.368" stroke="#212121" stroke-width="0.891926" stroke-miterlimit="10"/>
<path d="M152.213 239.24L163.198 236.14" stroke="#212121" stroke-width="0.891926" stroke-miterlimit="10"/>
<path d="M188.166 237.426L238.101 223.369" stroke="#212121" stroke-width="0.891926" stroke-miterlimit="10"/>
<path d="M156.211 246.421L177.181 240.517" stroke="#212121" stroke-width="0.891926" stroke-miterlimit="10"/>
<path d="M266.647 212.553C268.232 208.519 265.38 203.623 260.276 201.616C255.173 199.61 249.75 201.254 248.164 205.287C246.579 209.321 249.431 214.217 254.534 216.223C259.638 218.23 265.061 216.586 266.647 212.553Z" fill="white" stroke="#212121" stroke-width="0.891926" stroke-miterlimit="10"/>
<path d="M142.95 47.6983L125.478 52.6122C124.155 52.6677 122.702 52.5659 122.295 51.8904C121.369 50.1506 122.554 48.5219 122.924 46.9857C123.352 45.2151 123.077 43.3473 122.156 41.7756C120.807 39.5648 118.789 37.841 116.395 36.8542C114.001 35.8675 111.354 35.6692 108.839 36.288C103.935 37.6761 101.954 42.3679 104.397 46.7729C105.596 48.8075 107.393 50.4232 109.543 51.3999C109.543 51.3999 113.087 52.9824 113.8 54.2594C114.179 54.935 113.189 55.7308 112.18 56.3324L93.348 61.635C92.6379 61.7842 91.9745 62.1031 91.4144 62.5643C90.8543 63.0255 90.414 63.6154 90.1313 64.2837C89.8485 64.9519 89.7317 65.6786 89.7906 66.4018C89.8496 67.125 90.0827 67.8231 90.4699 68.4367L93.0148 73.0083L154.157 55.8049L151.612 51.2241C150.732 49.7901 149.417 48.6746 147.859 48.0404C146.301 47.4061 144.581 47.2863 142.95 47.6983ZM111.828 41.7201C112.634 41.5205 113.482 41.5835 114.25 41.8998C115.017 42.216 115.664 42.7691 116.095 43.4784C116.286 43.7809 116.401 44.1255 116.43 44.4824C116.459 44.8393 116.401 45.1979 116.261 45.5274C116.121 45.8569 115.903 46.1474 115.626 46.3741C115.348 46.6007 115.02 46.7566 114.669 46.8284C113.866 47.0282 113.02 46.9663 112.254 46.6517C111.489 46.3371 110.843 45.7862 110.413 45.0794C110.221 44.7767 110.106 44.4323 110.076 44.0755C110.047 43.7186 110.104 43.36 110.243 43.03C110.382 42.7001 110.599 42.4086 110.875 42.1806C111.151 41.9525 111.478 41.7945 111.828 41.7201Z" fill="#B75400" stroke="#212121" stroke-width="0.891926" stroke-miterlimit="10"/>
<path d="M180.651 78.8661L188.193 84.1317L195.967 66.7062" stroke="#B75400" stroke-width="5.35156" stroke-linecap="round" stroke-linejoin="round"/>
<path d="M198.179 110.413L205.721 115.67L213.494 98.2534" stroke="#B75400" stroke-width="5.35156" stroke-linecap="round" stroke-linejoin="round"/>
<path d="M321.878 106.101C321.878 106.101 323.886 101.826 322.628 98.5496C321.369 95.2736 298.206 89.9895 298.206 89.9895C298.206 89.9895 292.922 89.9895 293.172 93.0156C293.422 96.0417 312.559 107.619 314.068 108.618C315.576 109.617 321.369 111.894 321.878 106.101Z" fill="white" stroke="#212121" stroke-width="0.891926" stroke-linecap="round" stroke-linejoin="round"/>
<path d="M300.122 85.7605C298.695 85.2324 297.296 84.6333 295.93 83.9652C293.931 82.9657 296.124 87.565 296.929 87.7594C297.734 87.9537 299.705 88.3609 299.705 88.3609L300.122 85.7605Z" fill="white" stroke="#212121" stroke-width="0.891926" stroke-linecap="round" stroke-linejoin="round"/>
<path d="M230.994 130.523L219.417 144.617L220.416 146.634L236.787 142.645L352.01 75.5716C353.16 74.8984 354.164 74.0018 354.963 72.9344C355.761 71.8671 356.338 70.6507 356.658 69.357C356.979 68.0633 357.038 66.7185 356.831 65.4018C356.624 64.0851 356.155 62.8232 355.452 61.6905C354.75 60.5686 353.832 59.5976 352.752 58.834C351.671 58.0703 350.449 57.5294 349.157 57.2426C347.865 56.9558 346.529 56.9289 345.227 57.1635C343.924 57.398 342.682 57.8893 341.571 58.6088L230.994 130.523Z" fill="#B75400" stroke="#212121" stroke-width="0.891926" stroke-linecap="round" stroke-linejoin="round"/>
<path d="M288.887 104.398L285.13 106.823" stroke="#212121" stroke-width="0.891926" stroke-linecap="round" stroke-linejoin="round"/>
<path d="M321.231 83.595L293.477 101.455" stroke="#212121" stroke-width="0.891926" stroke-linecap="round" stroke-linejoin="round"/>
<path d="M220.49 144.32C220.49 144.32 217.612 145.524 218.057 146.736C218.501 147.948 222.628 145.015 222.628 145.015L220.49 144.32Z" fill="#9E9E9E" stroke="#212121" stroke-width="0.891926" stroke-linecap="round" stroke-linejoin="round"/>
<path d="M219.417 144.617L220.416 146.634L236.787 142.645C227.718 139.12 230.994 130.56 230.994 130.56L219.417 144.617Z" fill="white" stroke="#212121" stroke-width="0.891926" stroke-linecap="round" stroke-linejoin="round"/>
<path d="M355.452 61.6257C354.75 60.5038 353.832 59.5328 352.752 58.7692C351.671 58.0056 350.449 57.4646 349.157 57.1778C347.865 56.891 346.529 56.8641 345.227 57.0987C343.924 57.3333 342.682 57.8246 341.571 58.5441L321.471 71.6294C320.93 73.009 320.653 74.4783 320.657 75.9603C320.6 78.9315 321.721 81.8045 323.776 83.9513C325.831 86.0981 328.652 87.3441 331.623 87.4169L352.047 75.5346C353.198 74.8584 354.202 73.9582 354.999 72.8873C355.796 71.8163 356.37 70.5964 356.688 69.2996C357.005 68.0029 357.06 66.6556 356.847 65.3375C356.635 64.0194 356.161 62.7572 355.452 61.6257Z" fill="white" stroke="#212121" stroke-width="0.891926" stroke-linecap="round" stroke-linejoin="round"/>
<path d="M355.452 61.6257C354.75 60.5038 353.832 59.5328 352.752 58.7692C351.671 58.0056 350.449 57.4646 349.157 57.1778C347.865 56.891 346.529 56.8641 345.227 57.0987C343.924 57.3333 342.682 57.8246 341.571 58.5441L326.302 68.4922C325.563 70.0152 325.181 71.6859 325.182 73.3784C325.162 74.8189 325.427 76.249 325.961 77.5871C326.495 78.9251 327.287 80.1448 328.293 81.1762C329.298 82.2077 330.498 83.0307 331.822 83.5982C333.146 84.1657 334.569 84.4664 336.009 84.4833C336.259 84.4833 336.518 84.4833 336.759 84.4833L352.047 75.5901C353.206 74.9141 354.216 74.0114 355.018 72.936C355.821 71.8607 356.398 70.6347 356.716 69.3313C357.034 68.0279 357.085 66.6738 356.868 65.3499C356.651 64.026 356.17 62.7593 355.452 61.6257Z" fill="#212121" stroke="#212121" stroke-width="0.891926" stroke-linecap="round" stroke-linejoin="round"/>
<path d="M287.342 90.3597C287.342 90.3597 285.103 90.3597 285.103 91.3776C285.103 92.3956 284.51 96.0047 285.806 95.9029C287.101 95.8011 286.99 93.5338 287.101 92.738C287.212 91.9421 287.342 90.3597 287.342 90.3597Z" fill="white" stroke="#212121" stroke-width="0.891926" stroke-linecap="round" stroke-linejoin="round"/>
<path d="M289.785 86.6766C289.785 86.6766 287.786 86.0565 287.324 87.2873C286.861 88.5181 286.398 94.3667 287.786 94.2094C289.174 94.0521 289.48 88.8328 289.785 86.6766Z" fill="white" stroke="#212121" stroke-width="0.891926" stroke-linecap="round" stroke-linejoin="round"/>
<path d="M292.867 86.982C292.867 86.982 290.553 84.9831 289.785 86.6766C289.017 88.3701 288.86 93.1545 289.785 93.1545C290.71 93.1545 292.099 91.1556 292.404 90.0821C292.634 89.0615 292.789 88.0254 292.867 86.982Z" fill="white" stroke="#212121" stroke-width="0.891926" stroke-linecap="round" stroke-linejoin="round"/>
<path d="M296.133 87.9074C296.133 87.9074 293.209 85.4458 292.746 85.9085C292.284 86.3712 290.433 91.1093 291.821 92.0625C293.209 93.0157 294.967 88.7588 294.967 88.7588L296.133 87.9074Z" fill="white" stroke="#212121" stroke-width="0.891926" stroke-linecap="round" stroke-linejoin="round"/>
<path d="M253.87 102.51C253.87 102.51 254.194 107.443 255.508 108.6C256.302 109.287 257.019 110.06 257.646 110.904C257.827 112.158 257.938 113.422 257.979 114.689C257.979 116.169 258.969 116.003 259.83 116.003C260.69 116.003 262.134 118.779 262.958 120.112C264.527 122.05 266.402 123.72 268.51 125.053C269.991 125.877 272.462 122.749 272.462 122.749L273.609 126.044L285.297 118.474L279.541 107.276C279.201 103.395 278.02 99.6337 276.08 96.2547C272.785 90.332 268.343 87.0005 260.94 89.1753C253.537 91.35 253.87 102.51 253.87 102.51Z" fill="white" stroke="#212121" stroke-width="0.891926" stroke-linecap="round" stroke-linejoin="round"/>
<path d="M267.39 80.5782C264.63 80.6989 261.905 81.2452 259.311 82.1976C254.99 83.7246 253.925 89.7397 250.159 91.8959C246.393 94.0521 248.003 90.0451 246.115 91.0816C244.227 92.118 242.349 101.585 246.383 104.278C250.418 106.971 256.35 103.473 256.35 103.473C256.35 103.473 255.813 105.324 257.423 105.897C258.398 106.221 259.39 106.489 260.394 106.703C260.394 106.703 260.116 109.941 262.541 109.664C264.966 109.386 262.819 105.629 262.819 105.629C262.819 105.629 267.399 114.513 270.907 115.596C274.414 116.678 279.522 111.82 280.864 109.664C282.206 107.508 281.133 92.1643 278.171 86.2417C275.21 80.319 267.39 80.5782 267.39 80.5782Z" fill="#212121" stroke="#212121" stroke-width="0.891926" stroke-linecap="round" stroke-linejoin="round"/>
<path d="M262.92 111.394C262.92 111.394 261.273 105.139 263.901 105.962C266.529 106.786 268.019 112.384 267.853 113.042C267.686 113.699 266.372 114.022 265.715 113.865" fill="white"/>
<path d="M262.92 111.394C262.92 111.394 261.273 105.139 263.901 105.962C266.529 106.786 268.019 112.384 267.853 113.042C267.686 113.699 266.372 114.022 265.715 113.865" stroke="#212121" stroke-width="0.891926" stroke-linecap="round" stroke-linejoin="round"/>
<path d="M281.938 113.662C278.869 115.386 275.936 117.341 273.165 119.51C270.388 121.981 267.899 129.384 267.899 129.384C267.899 129.384 284.853 117.863 287.814 116.225C290.775 114.587 291.432 113.754 291.432 113.754C291.432 113.754 285.232 112.838 281.938 113.662Z" fill="white" stroke="#212121" stroke-width="0.891926" stroke-linecap="round" stroke-linejoin="round"/>
<path d="M304.758 103.584C305.475 102.316 306.449 101.212 307.62 100.345C308.79 99.4776 310.129 98.866 311.551 98.5497C316.335 97.541 322.656 100.817 323.387 106.101C324.118 111.385 320.111 113.911 317.594 113.911C315.077 113.911 312.809 110.386 312.809 110.386C312.809 110.386 304.758 107.36 304.758 103.584Z" fill="white" stroke="#212121" stroke-width="0.891926" stroke-linecap="round" stroke-linejoin="round"/>
<path d="M237.287 159.729L245.347 138.324C244.446 139.13 243.28 139.578 242.071 139.582C240.053 139.582 235.278 138.833 236.518 138.074C237.758 137.315 242.552 134.048 242.552 134.048C242.552 134.048 239.036 134.807 238.027 134.048C237.018 133.29 236.518 132.281 237.268 132.031C238.018 131.781 239.535 132.031 242.302 131.022C245.069 130.014 246.328 129.014 248.595 129.014C250.862 129.014 252.88 133.04 252.88 134.298C252.88 135.557 251.112 159.47 251.112 160.478C251.112 161.487 251.112 162.496 244.57 163.254C238.027 164.013 237.037 162.496 237.287 159.729Z" fill="white" stroke="#212121" stroke-width="0.891926" stroke-linecap="round" stroke-linejoin="round"/>
<path d="M245.347 138.324L246.541 133.623" stroke="#212121" stroke-width="0.891926" stroke-linecap="round" stroke-linejoin="round"/>
<path d="M245.088 154.435C245.088 154.435 237.037 156.702 235.528 160.228C234.02 163.754 234.27 169.038 237.287 172.064C240.303 175.09 241.571 175.84 244.838 174.581C248.105 173.323 248.873 171.305 249.123 169.288C249.372 167.271 251.131 160.478 245.088 154.435Z" fill="white" stroke="#212121" stroke-width="0.891926" stroke-linecap="round" stroke-linejoin="round"/>
<path d="M241.821 261.181C241.821 261.181 234.769 257.905 232.002 259.164C229.235 260.423 229.226 261.681 232.752 267.224C236.278 272.767 246.096 279.56 249.409 278.042C252.722 276.525 249.659 266.465 249.659 266.465L241.821 261.181Z" fill="white" stroke="#212121" stroke-width="0.891926" stroke-linecap="round" stroke-linejoin="round"/>
<path d="M236.787 268.983C234.341 266.274 232.285 263.237 230.679 259.96C229.384 261.107 229.939 262.792 232.752 267.224C236.278 272.777 246.097 279.56 249.41 278.042C249.83 277.772 250.177 277.402 250.417 276.964C250.658 276.526 250.786 276.034 250.788 275.535C246.161 277.487 241.377 274.054 236.787 268.983Z" fill="white" stroke="#212121" stroke-width="0.891926" stroke-linecap="round" stroke-linejoin="round"/>
<path d="M278.069 184.141L278.319 191.701C278.319 191.701 262.967 197.485 255.415 202.806C247.864 208.128 242.83 212.116 242.071 217.15C241.312 222.185 241.821 261.209 241.821 261.209C241.821 261.209 239.554 261.709 240.313 263.217C241.072 264.726 242.571 270.269 244.588 270.769C246.605 271.268 249.123 272.286 249.622 271.028C250.122 269.769 251.64 262.218 252.648 259.701C253.657 257.184 255.415 245.366 256.924 237.037C257.808 232.388 258.312 227.674 258.432 222.943C263.748 222.203 268.977 220.938 274.044 219.168C282.854 216.142 295.689 210.608 295.689 210.608C295.689 210.608 306.017 236.519 308.284 241.572C310.551 246.625 319.389 257.933 321.12 261.209C322.85 264.485 333.955 278.579 333.955 278.579C333.955 278.579 338.24 274.803 341.007 274.803H344.782C344.782 274.803 340.248 262.218 336.454 254.657C332.659 247.097 324.877 234.77 324.877 234.77C324.877 234.77 317.834 190.73 317.575 187.694C317.085 181.883 313.365 173.11 313.365 173.11C313.365 173.11 301.232 170.547 278.069 184.141Z" fill="#212121" stroke="#212121" stroke-width="0.891926" stroke-linecap="round" stroke-linejoin="round"/>
<path d="M333.955 278.551C333.308 279.607 332.721 280.697 332.197 281.818C331.947 282.577 326.404 283.336 327.162 285.853C327.921 288.37 333.705 290.378 336.472 290.637C339.239 290.896 344.801 287.111 345.791 286.103C346.383 285.51 347.272 281.596 346.8 278.551C346.492 277.129 345.794 275.822 344.782 274.776C344.782 274.776 339.998 267.474 333.955 278.551Z" fill="white" stroke="#212121" stroke-width="0.891926" stroke-linecap="round" stroke-linejoin="round"/>
<path d="M346.8 278.551C346.542 277.273 345.952 276.086 345.088 275.109C344.046 275.117 343.016 275.337 342.061 275.755C341.107 276.174 340.247 276.782 339.535 277.543C337.018 280.559 338.277 287.361 335.251 288.37C333.002 289.12 329.069 286.371 327.218 284.927C327.115 285.227 327.115 285.553 327.218 285.853C327.968 288.37 333.761 290.378 336.528 290.637C339.295 290.896 344.856 287.111 345.846 286.103C346.383 285.51 347.272 281.596 346.8 278.551Z" fill="white" stroke="#212121" stroke-width="0.891926" stroke-linecap="round" stroke-linejoin="round"/>
<path d="M340.248 280.31C339.248 284.844 340.507 287.861 336.472 290.637C339.248 290.887 344.801 287.111 345.791 286.103C346.383 285.51 347.272 281.596 346.8 278.551C346.692 277.92 346.482 277.311 346.18 276.747H345.791C345.791 276.747 341.257 275.784 340.248 280.31Z" fill="#212121" stroke="#212121" stroke-width="0.891926" stroke-linecap="round" stroke-linejoin="round"/>
<path d="M298.206 210.071L313.059 202.779" stroke="white" stroke-width="0.891926" stroke-linecap="round" stroke-linejoin="round"/>
<path d="M305.008 206.804L317.844 205.037" stroke="white" stroke-width="0.891926" stroke-linecap="round" stroke-linejoin="round"/>
<path d="M310.015 101.826C305.739 102.325 294.662 109.877 293.903 110.635C293.144 111.394 290.127 113.153 288.869 114.161C288.869 114.161 262.957 130.273 260.672 131.744C258.386 133.215 253.879 136.279 254.129 137.297C254.379 138.315 240.785 160.432 240.785 160.432C240.785 160.432 236.759 165.725 240.535 170.5C244.31 175.275 247.836 172.018 249.594 171.009C251.353 170.001 265.206 156.906 265.206 156.906L277.977 187.445C277.977 187.445 295.661 175.59 314.549 176.34L301.954 126.997C301.954 126.997 319.333 113.911 319.833 109.414C320.333 104.916 314.318 101.317 310.015 101.826Z" fill="white"/>
<path d="M310.015 101.826C308.303 102.029 305.499 103.362 302.695 104.935C303.334 104.812 303.995 104.88 304.595 105.13C305.196 105.38 305.71 105.801 306.072 106.342C308.155 109.016 303.694 117.632 303.694 117.632C303.694 117.632 301.843 105.731 301.917 109.303C301.991 112.875 300.992 123.86 300.992 123.86C300.992 123.86 295.051 116.734 295.347 118.511C295.643 120.288 299.502 136.926 301.88 143.164C304.259 149.401 300.094 166.919 297.725 171.963C295.356 177.006 296.8 150.586 294.153 157.156C291.506 163.726 282.576 181.8 280.494 183.586C278.412 185.372 281.16 159.368 281.901 155.981C280.975 158.812 274.858 176.756 274.858 176.756L266.53 155.37C266.53 155.37 252.278 143.793 253.759 145.866C255.24 147.939 258.812 154.482 258.812 154.482C258.812 154.482 250.196 152.695 251.686 153.297C253.176 153.898 259.7 157.156 259.7 157.156C259.7 157.156 246.337 166.66 242.478 167.844C241.44 168.149 240.373 168.345 239.295 168.427C239.573 169.203 239.976 169.929 240.488 170.574C244.264 175.359 247.79 172.092 249.548 171.083C251.307 170.075 265.16 156.98 265.16 156.98L277.931 187.519C277.931 187.519 295.615 175.664 314.503 176.414L301.908 127.071C301.908 127.071 319.287 113.986 319.787 109.488C320.287 104.991 314.318 101.317 310.015 101.826Z" fill="#9E9E9E"/>
<path opacity="0.5" d="M310.015 101.826C308.303 102.029 305.499 103.362 302.695 104.935C303.334 104.812 303.995 104.88 304.595 105.13C305.196 105.38 305.71 105.801 306.072 106.342C308.155 109.016 303.694 117.632 303.694 117.632C303.694 117.632 301.843 105.731 301.917 109.303C301.991 112.875 300.992 123.86 300.992 123.86C300.992 123.86 295.051 116.734 295.347 118.511C295.643 120.288 299.502 136.926 301.88 143.164C304.259 149.401 300.094 166.919 297.725 171.963C295.356 177.006 296.8 150.586 294.153 157.156C291.506 163.726 282.576 181.8 280.494 183.586C278.412 185.372 281.16 159.368 281.901 155.981C280.975 158.812 274.858 176.756 274.858 176.756L266.53 155.37C266.53 155.37 252.278 143.793 253.759 145.866C255.24 147.939 258.812 154.482 258.812 154.482C258.812 154.482 250.196 152.695 251.686 153.297C253.176 153.898 259.7 157.156 259.7 157.156C259.7 157.156 246.337 166.66 242.478 167.844C241.44 168.149 240.373 168.345 239.295 168.427C239.573 169.203 239.976 169.929 240.488 170.574C244.264 175.359 247.79 172.092 249.548 171.083C251.307 170.075 265.16 156.98 265.16 156.98L277.931 187.519C277.931 187.519 295.615 175.664 314.503 176.414L301.908 127.071C301.908 127.071 319.287 113.986 319.787 109.488C320.287 104.991 314.318 101.317 310.015 101.826Z" fill="white"/>
<path d="M310.015 101.826C305.739 102.325 294.662 109.877 293.903 110.635C293.144 111.394 290.127 113.153 288.869 114.161C288.869 114.161 262.957 130.273 260.672 131.744C258.386 133.215 253.879 136.279 254.129 137.297C254.379 138.315 240.785 160.432 240.785 160.432C240.785 160.432 236.759 165.725 240.535 170.5C244.31 175.275 247.836 172.018 249.594 171.009C251.353 170.001 265.206 156.906 265.206 156.906L277.977 187.445C277.977 187.445 295.661 175.59 314.549 176.34L301.954 126.997C301.954 126.997 319.333 113.911 319.833 109.414C320.333 104.916 314.318 101.317 310.015 101.826Z" stroke="#212121" stroke-width="0.891926" stroke-linecap="round" stroke-linejoin="round"/>
<path d="M278.005 187.445C277.267 180.519 277.626 173.52 279.069 166.706L278.005 187.445Z" fill="white"/>
<path d="M278.005 187.445C277.267 180.519 277.626 173.52 279.069 166.706" stroke="#212121" stroke-width="0.891926" stroke-linecap="round" stroke-linejoin="round"/>
<path d="M275.617 172.018C275.617 172.018 275.617 167.761 280.402 154.435L275.617 172.018Z" fill="white"/>
<path d="M275.617 172.018C275.617 172.018 275.617 167.761 280.402 154.435" stroke="#212121" stroke-width="0.891926" stroke-linecap="round" stroke-linejoin="round"/>
<path d="M255.415 145.884L265.234 156.952L255.166 149.651" fill="white"/>
<path d="M255.415 145.884L265.234 156.952L255.166 149.651" stroke="#212121" stroke-width="0.891926" stroke-linecap="round" stroke-linejoin="round"/>
<path d="M301.982 112.903V126.997L305.258 108.877" fill="white"/>
<path d="M301.982 112.903V126.997L305.258 108.877" stroke="#212121" stroke-width="0.891926" stroke-linecap="round" stroke-linejoin="round"/>
<path d="M282.049 155.601C282.012 155.704 281.984 155.809 281.965 155.916C282.076 155.601 282.113 155.481 282.049 155.601Z" fill="#212121"/>
</svg>
