<svg xmlns="http://www.w3.org/2000/svg" width="607" height="347" viewBox="0 0 607 347" fill="none">
<path d="M88.8603 300.405C207.327 362.3 399.423 362.3 517.916 300.405C636.41 238.51 636.396 138.158 517.916 76.263C399.436 14.3677 207.354 14.3677 88.8603 76.263C-29.6333 138.158 -29.6068 238.563 88.8603 300.405Z" fill="#F5F5F5"/>
<path d="M359.379 326.45C382.232 326.45 400.758 317.619 400.758 306.725C400.758 295.831 382.232 287 359.379 287C336.526 287 318 295.831 318 306.725C318 317.619 336.526 326.45 359.379 326.45Z" fill="#EBEBEB"/>
<path d="M413.378 157.779V220.723L391.754 208.241V145.298L413.378 157.779Z" fill="#813B00" stroke="#212121" stroke-width="0.3"/>
<path d="M435.302 208.241L413.678 220.722V157.779L435.302 145.297V208.241Z" fill="#B75400" stroke="#212121" stroke-width="0.3"/>
<path d="M435.151 145.038L413.527 157.519L391.903 145.038L413.527 132.555L435.151 145.038Z" fill="#B75400" stroke="#212121" stroke-width="0.3"/>
<path d="M364.052 66.0215V192.242L342.428 179.76V53.5401L364.052 66.0215Z" fill="#813B00" stroke="#212121" stroke-width="0.3"/>
<path d="M385.976 179.76L364.352 192.241V66.0215L385.976 53.5391V179.76Z" fill="#B75400" stroke="#212121" stroke-width="0.3"/>
<path d="M385.825 53.2803L364.201 65.7618L342.577 53.2803L364.201 40.7979L385.825 53.2803Z" fill="#B75400" stroke="#212121" stroke-width="0.3"/>
<path d="M314.726 119.813V163.76L293.102 151.278V107.332L314.726 119.813Z" fill="#813B00" stroke="#212121" stroke-width="0.3"/>
<path d="M336.65 151.278L315.026 163.76V119.813L336.65 107.331V151.278Z" fill="#B75400" stroke="#212121" stroke-width="0.3"/>
<path d="M336.499 107.072L314.875 119.553L293.251 107.072L314.875 94.5896L336.499 107.072Z" fill="#B75400" stroke="#212121" stroke-width="0.3"/>
<path d="M462.69 129.311L462.702 249.204L441.079 236.708V116.83L462.69 129.311Z" fill="#813B00" stroke="#212121" stroke-width="0.3"/>
<path d="M484.614 236.707L462.99 249.203V129.311L484.614 116.829V236.707Z" fill="#B75400" stroke="#212121" stroke-width="0.3"/>
<path d="M484.463 116.569L462.839 129.052L441.229 116.569L462.852 104.074L484.463 116.569Z" fill="#B75400" stroke="#212121" stroke-width="0.3"/>
<g opacity="0.3">
<path d="M140.045 0.995972C140.396 0.789029 140.919 0.800454 141.569 1.15808V1.1571L306.915 96.201V96.202C307.493 96.5792 307.986 97.0704 308.366 97.6444L308.522 97.8954C308.869 98.4927 309.088 99.1541 309.169 99.8378L309.194 100.133L309.423 240.276L309.412 240.533C309.36 241.107 309.134 241.485 308.827 241.668C308.521 241.85 308.093 241.864 307.589 241.627L307.37 241.51L307.368 241.509L142.006 146.395C141.426 146.02 140.931 145.53 140.55 144.956L140.395 144.704C140.049 144.106 139.83 143.445 139.752 142.761L139.727 142.466L139.458 2.37585L139.468 2.12C139.518 1.55119 139.737 1.17713 140.045 0.995972Z" fill="white" stroke="#212121" stroke-width="0.3"/>
</g>
<path d="M308.305 242.624C307.828 242.605 307.364 242.466 306.956 242.219L141.587 147.102C140.798 146.605 140.14 145.925 139.671 145.119C139.201 144.313 138.933 143.406 138.889 142.474L138.633 2.37577C138.576 1.9649 138.643 1.54653 138.825 1.17383C139.007 0.801135 139.296 0.490951 139.654 0.282702C140.013 0.0744521 140.425 -0.0224594 140.839 0.00429614C141.253 0.0310516 141.65 0.180259 141.979 0.432954L307.347 95.4689C308.135 95.9675 308.791 96.6481 309.261 97.4535C309.731 98.2589 310 99.1654 310.046 100.097L310.275 240.249C310.307 240.658 310.231 241.068 310.053 241.438C309.875 241.808 309.603 242.124 309.263 242.354C308.974 242.528 308.643 242.621 308.305 242.624ZM140.602 1.32342C140.514 1.29996 140.421 1.29996 140.333 1.32342C140.201 1.43686 140.1 1.58152 140.039 1.74416C139.977 1.9068 139.958 2.08222 139.982 2.25435L140.211 142.407C140.25 143.116 140.457 143.805 140.816 144.418C141.175 145.031 141.675 145.548 142.275 145.928L307.644 241.045C308.049 241.274 308.4 241.342 308.615 241.207C308.831 241.072 308.966 240.748 308.966 240.276L308.737 100.124C308.693 99.4327 308.491 98.7613 308.144 98.162C307.798 97.5628 307.317 97.052 306.74 96.6697L141.304 1.55277C141.093 1.41792 140.852 1.33898 140.602 1.32342Z" fill="#212121"/>
<path d="M220.925 74.0115C221.855 73.7102 222.834 73.6001 223.805 73.6863L224.22 73.7352C225.187 73.8776 226.114 74.2135 226.946 74.7215L227.296 74.95L227.304 74.9549C231.461 77.4679 233.875 81.0799 235.523 86.0379C236.967 90.3831 237.821 95.7515 238.744 102.307L239.146 105.19C239.429 107.214 239.728 109.359 240.059 111.615L240.401 113.908C240.556 114.913 240.701 115.891 240.841 116.842L241.251 119.614C242.283 126.719 243.087 132.245 244.434 136.452C245.741 140.534 247.564 143.395 250.618 145.261L250.917 145.437C252.552 146.376 254.114 146.275 255.677 145.623C256.842 145.137 258.015 144.342 259.23 143.441L260.459 142.513H260.46C262.353 141.066 264.358 139.547 266.533 138.772C268.561 138.049 270.736 137.974 273.105 139.23L273.581 139.5C278.465 142.426 281.191 147.29 282.903 154.035C284.402 159.941 285.119 167.268 285.83 175.966L286.137 179.777L286.285 181.626C287.176 192.676 288.29 198.692 289.644 202.277C290.322 204.073 291.062 205.262 291.867 206.171C292.637 207.04 293.463 207.646 294.331 208.273L293.823 209.135C292.783 208.391 291.857 207.659 291.021 206.675C290.15 205.649 289.371 204.344 288.673 202.456C287.362 198.91 286.336 193.324 285.495 183.713L285.329 181.737L285.181 179.888C284.365 169.714 283.69 161.25 282.056 154.638C280.421 148.024 277.819 143.232 273.128 140.43H273.127C270.859 139.056 268.808 139.054 266.852 139.771C264.909 140.484 263.059 141.907 261.182 143.367C259.471 144.672 257.758 145.977 255.983 146.68C254.218 147.378 252.402 147.477 250.473 146.378H250.472C247.04 144.378 245.035 141.399 243.618 137.085C242.375 133.302 241.589 128.508 240.688 122.466L240.293 119.8C240.159 118.897 240.023 117.969 239.883 117.017L239.443 114.092C239.207 112.534 238.988 111.03 238.781 109.575L238.189 105.351C237.124 97.6794 236.265 91.5052 234.688 86.658C233.11 81.8079 230.808 78.2697 226.848 75.8777C226.056 75.3163 225.143 74.948 224.183 74.8016C223.343 74.6734 222.486 74.7182 221.666 74.9324L221.318 75.035L221.315 75.0359C219.79 75.5685 218.362 76.7685 217.003 78.4598C215.644 80.1524 214.344 82.3485 213.08 84.8904C211.185 88.703 209.363 93.3078 207.532 98.1854L205.695 103.133C205.506 103.624 205.32 104.132 205.132 104.646L204.562 106.196L204.561 106.198C202.772 111.118 200.87 116.357 198.716 120.624C197.639 122.757 196.502 124.643 195.289 126.121C194.152 127.508 192.953 128.527 191.683 129.064L191.428 129.166C190.754 129.413 190.039 129.523 189.324 129.492L189.017 129.47C188.201 129.388 187.414 129.122 186.715 128.693L186.639 128.815L186.715 128.692L186.71 128.69L186.457 128.541C183.873 126.958 182.314 124.125 181.285 120.652C180.357 117.516 179.867 113.881 179.438 110.218L179.257 108.647C178.779 104.469 178.305 100.262 177.29 96.7049C176.276 93.1484 174.714 90.2091 172.035 88.5945H172.034C171.568 88.2946 171.036 88.1128 170.484 88.0662C169.932 88.0197 169.377 88.1093 168.868 88.327C167.19 88.9787 165.581 90.6955 164.117 92.8709C162.648 95.0523 161.307 97.7203 160.17 100.309C158.104 105.015 156.709 109.478 156.45 110.328L155.388 110.031C155.674 109.084 157.131 104.381 159.336 99.4666C160.519 96.8299 161.915 94.1365 163.457 91.9305C165.003 89.72 166.682 88.0192 168.423 87.3377V87.3387L168.426 87.3367C169.085 87.0638 169.8 86.9532 170.511 87.0145C171.133 87.0681 171.737 87.2524 172.282 87.5535L172.511 87.6893L172.514 87.6912C175.374 89.4034 177.066 92.4471 178.164 96.1541C179.126 99.3979 179.627 103.129 180.068 106.884L180.254 108.492C180.746 112.772 181.216 116.867 182.19 120.244C183.163 123.618 184.647 126.306 187.19 127.746V127.747C187.683 128.06 188.234 128.269 188.809 128.364L189.057 128.398C189.638 128.46 190.225 128.403 190.783 128.232L191.019 128.152C192.308 127.676 193.526 126.597 194.674 125.126C195.824 123.653 196.917 121.772 197.952 119.671C200.024 115.468 201.882 110.359 203.535 105.814L203.534 105.813C203.73 105.286 203.919 104.768 204.106 104.257L204.666 102.74L204.667 102.739C207.299 95.6195 209.748 88.9972 212.356 83.868C213.659 81.3042 214.999 79.1193 216.417 77.4344C217.835 75.7501 219.325 74.5734 220.925 74.0115Z" fill="#B75400" stroke="#212121" stroke-width="0.3"/>
<g opacity="0.4">
<path d="M293.869 209.353C289.484 206.236 286.921 203.417 285.18 181.749L285.032 179.9C283.399 159.541 282.333 146.104 273.051 140.558C268.599 137.86 265.037 140.558 261.273 143.486C257.859 146.09 254.352 148.761 250.398 146.508C243.45 142.461 242.303 134.447 240.145 119.822C239.875 118.014 239.605 116.111 239.295 114.115C238.822 110.998 238.418 108.097 238.04 105.372C235.908 90.0183 234.613 80.7359 226.761 76.0003C225.988 75.4523 225.097 75.0925 224.16 74.9496C223.223 74.8068 222.266 74.8847 221.364 75.1773C215.414 77.2551 210.76 89.8429 205.835 103.186C205.457 104.171 205.093 105.21 204.702 106.249C201.126 116.084 197.079 127.242 191.48 129.306C190.688 129.596 189.841 129.703 189.002 129.619C188.164 129.535 187.355 129.262 186.636 128.821C181.064 125.664 180.066 117.029 179.108 108.664C178.15 100.299 177.219 91.8936 171.957 88.7231C171.511 88.4346 171.001 88.2603 170.472 88.2156C169.942 88.1709 169.41 88.2571 168.922 88.4667C162.392 91.0032 156.604 110.323 156.55 110.512L155.201 110.134C155.443 109.311 161.231 89.9913 168.368 87.1985C169.05 86.9162 169.789 86.8019 170.524 86.8653C171.259 86.9287 171.968 87.1679 172.591 87.5628C178.406 91.0436 179.418 99.9077 180.403 108.475C181.388 117.042 182.279 124.8 187.27 127.62C187.815 127.966 188.432 128.181 189.073 128.249C189.714 128.317 190.363 128.235 190.967 128.011C195.973 126.163 200.088 114.857 203.393 105.763C203.784 104.711 204.149 103.685 204.526 102.687C209.788 88.4532 214.335 76.1622 220.878 73.8686C221.963 73.517 223.114 73.4206 224.242 73.5867C225.37 73.7529 226.444 74.1772 227.381 74.8265C235.773 79.8994 237.109 89.4111 239.295 105.17C239.672 107.868 240.077 110.782 240.549 113.885C240.86 115.895 241.13 117.798 241.399 119.592C243.464 133.813 244.61 141.638 250.992 145.308C254.163 147.129 257.036 144.93 260.369 142.393C264.147 139.506 268.464 136.255 273.658 139.371C283.521 145.281 284.627 159.002 286.286 179.765L286.435 181.614C288.216 203.713 290.887 205.602 294.53 208.233L293.869 209.353Z" fill="#212121"/>
</g>
<path d="M268.67 134.53C269.226 134.205 270.028 134.222 270.976 134.724C271.958 135.368 272.777 136.232 273.366 137.248C273.882 138.139 274.211 139.124 274.333 140.143L274.372 140.581C274.37 141.644 273.995 142.351 273.433 142.675C272.871 142.999 272.069 142.97 271.147 142.442C270.284 141.882 269.546 141.151 268.98 140.295L268.748 139.92C268.159 138.904 267.817 137.764 267.751 136.592C267.751 135.551 268.113 134.854 268.67 134.53Z" fill="#B75400" stroke="#212121" stroke-width="0.3"/>
<g opacity="0.2">
<path d="M268.67 134.53C269.226 134.205 270.028 134.222 270.976 134.724C271.958 135.368 272.777 136.232 273.366 137.248C273.882 138.139 274.211 139.124 274.333 140.143L274.372 140.581C274.37 141.644 273.995 142.351 273.433 142.675C272.871 142.999 272.069 142.97 271.147 142.442C270.284 141.882 269.546 141.151 268.98 140.295L268.748 139.92C268.159 138.904 267.817 137.764 267.751 136.592C267.751 135.551 268.113 134.854 268.67 134.53Z" fill="#212121" stroke="#212121" stroke-width="0.3"/>
</g>
<path d="M224.741 71.314C225.3 70.9971 226.101 71.0374 227.03 71.565V71.566C227.891 72.1278 228.626 72.8602 229.191 73.7164L229.422 74.0914C229.937 74.9821 230.262 75.9679 230.378 76.9869L230.415 77.4254C230.413 78.4886 230.042 79.1963 229.484 79.5201C228.925 79.844 228.126 79.8147 227.204 79.2867C226.34 78.7277 225.602 77.9968 225.036 77.1412L224.803 76.7662C224.214 75.7503 223.873 74.6096 223.808 73.4371C223.808 72.3405 224.181 71.6315 224.741 71.314Z" fill="#B75400" stroke="#212121" stroke-width="0.3"/>
<g opacity="0.5">
<path d="M224.741 71.314C225.3 70.9971 226.101 71.0374 227.03 71.565V71.566C227.891 72.1278 228.626 72.8602 229.191 73.7164L229.422 74.0914C229.937 74.9821 230.262 75.9679 230.378 76.9869L230.415 77.4254C230.413 78.4886 230.042 79.1963 229.484 79.5201C228.925 79.844 228.126 79.8147 227.204 79.2867C226.34 78.7277 225.602 77.9968 225.036 77.1412L224.803 76.7662C224.214 75.7503 223.873 74.6096 223.808 73.4371C223.808 72.3405 224.181 71.6315 224.741 71.314Z" fill="white" stroke="#212121" stroke-width="0.3"/>
</g>
<path d="M169.958 84.0784C170.484 83.7727 171.223 83.7802 172.074 84.2249L172.246 84.3196C173.232 84.9553 174.053 85.8154 174.643 86.8293C175.16 87.7185 175.485 88.7042 175.602 89.7229L175.639 90.1614C175.637 91.2319 175.265 91.9424 174.705 92.2678C174.145 92.5936 173.342 92.5646 172.412 92.0354C171.553 91.4732 170.82 90.7408 170.257 89.886L170.026 89.512C169.439 88.4963 169.098 87.3569 169.031 86.1858C169.025 85.1182 169.397 84.4045 169.958 84.0784Z" fill="#B75400" stroke="#212121" stroke-width="0.3"/>
<path opacity="0.65" d="M74.4745 7.13477C74.7818 6.95365 75.2209 6.93953 75.7616 7.17871L75.9989 7.29688L219.285 90.0215V90.0225C219.862 90.4003 220.354 90.8924 220.731 91.4668L220.887 91.7178C221.231 92.3149 221.448 92.9755 221.526 93.6582L221.552 93.9521V234.097C221.552 234.814 221.304 235.278 220.945 235.486C220.632 235.668 220.192 235.679 219.671 235.437L219.443 235.316H219.442L76.1532 152.589C75.5757 152.212 75.0829 151.72 74.705 151.146L74.5507 150.895C74.1583 150.214 73.9312 149.451 73.8876 148.667V8.51465C73.8876 7.80102 74.1234 7.3418 74.4745 7.13477Z" fill="white" stroke="#212121" stroke-width="0.3"/>
<path d="M220.42 236.444C219.943 236.426 219.479 236.286 219.07 236.04L75.734 153.308C74.9467 152.806 74.291 152.122 73.8216 151.315C73.3522 150.508 73.0827 149.6 73.0356 148.667V8.51449C72.9824 8.10472 73.0517 7.68834 73.2349 7.31793C73.418 6.94753 73.7068 6.63969 74.0648 6.43328C74.4228 6.22687 74.8339 6.13114 75.2462 6.15817C75.6586 6.1852 76.0536 6.33379 76.3816 6.58517L219.678 89.3167C220.465 89.816 221.12 90.4969 221.59 91.3021C222.059 92.1073 222.329 93.0134 222.376 93.9443V234.097C222.408 234.506 222.332 234.916 222.154 235.286C221.976 235.655 221.704 235.971 221.364 236.201C221.076 236.364 220.75 236.447 220.42 236.444ZM75.0324 7.52959C74.9439 7.50674 74.8511 7.50674 74.7626 7.52959C74.6309 7.64303 74.5298 7.78769 74.4685 7.95033C74.4072 8.11297 74.3877 8.28839 74.4118 8.46052V148.667C74.4541 149.36 74.6564 150.034 75.0029 150.635C75.3493 151.237 75.8305 151.75 76.4086 152.134L219.705 234.866C219.842 234.973 220.004 235.044 220.176 235.073C220.348 235.101 220.525 235.086 220.689 235.028C220.905 234.906 221.027 234.569 221.027 234.097V93.9443C220.986 93.253 220.784 92.5808 220.437 91.9812C220.09 91.3816 219.609 90.8712 219.03 90.4904L75.734 7.77244C75.5274 7.62747 75.2844 7.54334 75.0324 7.52959Z" fill="#212121"/>
<path d="M181.024 99.9365C181.155 99.8622 181.35 99.852 181.596 99.9668L181.704 100.023V100.024L195.796 108.114V108.115C196.077 108.298 196.317 108.536 196.501 108.814L196.577 108.937C196.745 109.226 196.851 109.547 196.89 109.879L196.902 110.021V202.243C196.902 202.583 196.782 202.781 196.636 202.861C196.491 202.941 196.259 202.937 195.961 202.738H195.962L195.953 202.733L181.859 194.642H181.86C181.578 194.461 181.337 194.224 181.152 193.945L181.076 193.823C180.885 193.494 180.776 193.124 180.756 192.744V100.568C180.756 100.222 180.876 100.022 181.024 99.9365Z" fill="#B75400" stroke="#212121" stroke-width="0.3"/>
<g opacity="0.3">
<path d="M181.024 99.9365C181.155 99.8622 181.35 99.852 181.596 99.9668L181.704 100.023V100.024L195.796 108.114V108.115C196.077 108.298 196.317 108.536 196.501 108.814L196.577 108.937C196.745 109.226 196.851 109.547 196.89 109.879L196.902 110.021V202.243C196.902 202.583 196.782 202.781 196.636 202.861C196.491 202.941 196.259 202.937 195.961 202.738H195.962L195.953 202.733L181.859 194.642H181.86C181.578 194.461 181.337 194.224 181.152 193.945L181.076 193.823C180.885 193.494 180.776 193.124 180.756 192.744V100.568C180.756 100.222 180.876 100.022 181.024 99.9365Z" fill="#212121" stroke="#212121" stroke-width="0.3"/>
</g>
<path d="M153.625 128.451C153.758 128.369 153.951 128.348 154.186 128.453L154.29 128.506L168.394 136.596V136.597C168.715 136.805 168.983 137.087 169.175 137.418C169.343 137.708 169.449 138.029 169.488 138.36L169.501 138.503V186.417C169.501 186.787 169.379 186.984 169.233 187.065C169.085 187.148 168.851 187.143 168.55 186.975H168.551L154.443 178.882C154.167 178.697 153.932 178.459 153.751 178.182L153.676 178.06C153.488 177.731 153.378 177.364 153.354 176.986V129.05C153.354 128.75 153.47 128.547 153.625 128.451Z" fill="#B75400" stroke="#212121" stroke-width="0.3"/>
<g opacity="0.2">
<path d="M153.625 128.451C153.758 128.369 153.951 128.348 154.186 128.453L154.29 128.506L168.394 136.596V136.597C168.715 136.805 168.983 137.087 169.175 137.418C169.343 137.708 169.449 138.029 169.488 138.36L169.501 138.503V186.417C169.501 186.787 169.379 186.984 169.233 187.065C169.085 187.148 168.851 187.143 168.55 186.975H168.551L154.443 178.882C154.167 178.697 153.932 178.459 153.751 178.182L153.676 178.06C153.488 177.731 153.378 177.364 153.354 176.986V129.05C153.354 128.75 153.47 128.547 153.625 128.451Z" fill="white" stroke="#212121" stroke-width="0.3"/>
</g>
<path d="M126.246 87.2813C126.375 87.2071 126.567 87.1974 126.807 87.3116L126.913 87.3682L126.915 87.3692L141.019 95.459V95.46C141.3 95.6427 141.54 95.8807 141.724 96.1592L141.801 96.2813C141.969 96.5711 142.075 96.892 142.113 97.2237L142.126 97.3663V170.605C142.126 170.94 142.002 171.139 141.849 171.224C141.714 171.298 141.518 171.307 141.283 171.193L141.18 171.138L141.177 171.136L127.068 163.042C126.791 162.858 126.554 162.621 126.373 162.344L126.299 162.222C126.11 161.893 126.001 161.525 125.979 161.147V87.9131C125.979 87.5667 126.099 87.3663 126.246 87.2813Z" fill="#B75400" stroke="#212121" stroke-width="0.3"/>
<g opacity="0.2">
<path d="M126.246 87.2813C126.375 87.2071 126.567 87.1974 126.807 87.3116L126.913 87.3682L126.915 87.3692L141.019 95.459V95.46C141.3 95.6427 141.54 95.8807 141.724 96.1592L141.801 96.2813C141.969 96.5711 142.075 96.892 142.113 97.2237L142.126 97.3663V170.605C142.126 170.94 142.002 171.139 141.849 171.224C141.714 171.298 141.518 171.307 141.283 171.193L141.18 171.138L141.177 171.136L127.068 163.042C126.791 162.858 126.554 162.621 126.373 162.344L126.299 162.222C126.11 161.893 126.001 161.525 125.979 161.147V87.9131C125.979 87.5667 126.099 87.3663 126.246 87.2813Z" fill="#212121" stroke="#212121" stroke-width="0.3"/>
</g>
<path d="M98.822 39.8449C98.9545 39.7623 99.146 39.7404 99.3806 39.8488L99.4841 39.9035L99.486 39.9055L113.593 47.9973C113.871 48.1801 114.108 48.418 114.29 48.6955L114.365 48.8176C114.531 49.1073 114.635 49.428 114.672 49.759L114.683 49.9016V154.833C114.683 155.142 114.569 155.33 114.423 155.411C114.294 155.483 114.101 155.494 113.856 155.38L113.749 155.323H113.748L99.6354 147.228C99.3614 147.043 99.1271 146.806 98.947 146.53L98.8727 146.408C98.6844 146.08 98.574 145.712 98.5505 145.334V40.4494C98.5505 40.149 98.6664 39.942 98.822 39.8449Z" fill="#B75400" stroke="#212121" stroke-width="0.3"/>
<path d="M398.962 154.736C399.988 157.024 401.695 160.948 403.181 164.449C403.939 166.235 404.639 167.911 405.161 169.203C405.422 169.849 405.638 170.398 405.795 170.817C405.954 171.241 406.046 171.518 406.067 171.63V171.631L406.07 171.641C406.313 172.593 406.204 173.599 405.766 174.474L405.674 174.646C405.172 175.538 404.353 176.206 403.382 176.521L392.791 168.324L388.911 159.439L398.962 154.736Z" fill="white" stroke="#212121" stroke-width="0.3"/>
<path d="M385.504 292.437V303.74H377.844V292.437H385.504Z" fill="white" stroke="#212121" stroke-width="0.3"/>
<path d="M357.468 278.112L357.857 289.408L350.201 289.671L349.813 278.375L357.468 278.112Z" fill="white" stroke="#212121" stroke-width="0.3"/>
<path d="M347.626 156.549L333.449 152.052C333.505 151.971 333.582 151.862 333.676 151.727C333.896 151.408 334.216 150.945 334.613 150.369C335.408 149.218 336.514 147.616 337.757 145.809C340.243 142.195 343.278 137.762 345.477 134.489L345.478 134.49L345.482 134.484C346.861 132.188 348.762 130.254 351.029 128.838L351.487 128.562C353.891 127.164 356.601 126.382 359.378 126.28L347.626 156.549Z" fill="#B75400" stroke="#212121" stroke-width="0.3"/>
<g opacity="0.7">
<path d="M347.626 156.549L333.449 152.052C333.505 151.971 333.582 151.862 333.676 151.727C333.896 151.408 334.216 150.945 334.613 150.369C335.408 149.218 336.514 147.616 337.757 145.809C340.243 142.195 343.278 137.762 345.477 134.489L345.478 134.49L345.482 134.484C346.861 132.188 348.762 130.254 351.029 128.838L351.487 128.562C353.891 127.164 356.601 126.382 359.378 126.28L347.626 156.549Z" fill="white" stroke="#212121" stroke-width="0.3"/>
</g>
<path d="M384.978 179.268C384.984 183.286 385.226 197.299 385.47 210.382C385.593 217.008 385.716 223.396 385.808 228.128C385.855 230.493 385.893 232.445 385.92 233.805C385.933 234.486 385.944 235.018 385.951 235.381C385.955 235.562 385.958 235.7 385.96 235.794C385.961 235.84 385.961 235.876 385.962 235.899V235.934L385.963 235.945C386.011 236.506 386.178 237.181 386.389 237.995C386.602 238.813 386.861 239.781 387.1 240.942C387.549 243.118 387.928 245.976 387.791 249.776L387.757 250.549C387.453 256.264 387.055 267.059 386.733 276.424C386.572 281.106 386.43 285.432 386.328 288.587C386.277 290.164 386.236 291.449 386.208 292.34C386.194 292.784 386.183 293.131 386.176 293.366C386.172 293.484 386.17 293.574 386.168 293.635C386.167 293.645 386.166 293.654 386.166 293.663C386.139 293.688 386.1 293.724 386.048 293.767C385.939 293.859 385.776 293.986 385.564 294.128C385.141 294.411 384.523 294.751 383.745 294.977C382.203 295.426 380.017 295.434 377.439 293.641C377.436 293.625 377.433 293.605 377.429 293.582C377.416 293.5 377.396 293.378 377.369 293.219C377.316 292.9 377.237 292.432 377.137 291.832C376.937 290.631 376.649 288.903 376.3 286.794C375.601 282.576 374.655 276.834 373.664 270.738C371.806 259.307 369.793 246.637 368.966 240.437L368.816 239.286L368.572 237.248C367.982 232.078 367.264 224.188 366.667 217.24C366.325 213.27 366.022 209.609 365.805 206.94C365.697 205.606 365.611 204.52 365.551 203.767C365.521 203.391 365.497 203.098 365.481 202.899C365.473 202.8 365.468 202.724 365.464 202.673C365.462 202.647 365.46 202.628 365.459 202.615C365.458 202.609 365.458 202.604 365.458 202.6V202.595L365.162 202.573L357.782 234.157L357.774 234.187L357.78 234.219V234.219C357.78 234.22 357.781 234.222 357.781 234.223C357.782 234.227 357.783 234.232 357.784 234.239C357.787 234.253 357.791 234.275 357.796 234.302C357.806 234.358 357.82 234.44 357.839 234.547C357.876 234.759 357.929 235.07 357.994 235.458C358.124 236.234 358.299 237.325 358.482 238.578C358.848 241.086 359.242 244.244 359.356 246.853C359.471 249.462 359.134 258.331 358.768 266.558C358.585 270.669 358.395 274.617 358.251 277.537C358.179 278.997 358.118 280.2 358.075 281.038C358.054 281.457 358.037 281.785 358.025 282.008C358.019 282.119 358.014 282.205 358.012 282.262C358.011 282.265 358.011 282.267 358.011 282.269C356.837 282.988 355.509 283.415 354.138 283.513L353.858 283.528C352.388 283.585 350.929 283.263 349.619 282.594C349.617 282.58 349.615 282.564 349.612 282.546C349.6 282.462 349.582 282.337 349.558 282.175C349.511 281.85 349.442 281.372 349.354 280.763C349.178 279.545 348.924 277.798 348.618 275.688C348.006 271.468 347.181 265.792 346.33 259.968C344.841 249.776 343.273 239.128 342.629 235.038L342.412 233.707C342.313 233.135 342.321 231.856 342.419 230.034C342.516 228.22 342.699 225.885 342.943 223.215C343.431 217.874 344.158 211.197 344.911 204.667C345.664 198.136 346.443 191.754 347.033 187.004C347.328 184.629 347.576 182.662 347.751 181.289C347.838 180.603 347.906 180.064 347.953 179.698C347.976 179.515 347.994 179.374 348.007 179.28C348.007 179.276 348.008 179.272 348.009 179.268H384.978Z" fill="#212121" stroke="#212121" stroke-width="0.3"/>
<path opacity="0.2" d="M384.978 179.268C384.984 183.286 385.226 197.299 385.47 210.382C385.593 217.008 385.716 223.396 385.808 228.128C385.855 230.493 385.893 232.445 385.92 233.805C385.933 234.486 385.944 235.018 385.951 235.381C385.955 235.562 385.958 235.7 385.96 235.794C385.961 235.84 385.961 235.876 385.962 235.899V235.934L385.963 235.945C386.011 236.506 386.178 237.181 386.389 237.995C386.602 238.813 386.861 239.781 387.1 240.942C387.549 243.118 387.928 245.976 387.791 249.776L387.757 250.549C387.453 256.264 387.055 267.059 386.733 276.424C386.572 281.106 386.43 285.432 386.328 288.587C386.277 290.164 386.236 291.449 386.208 292.34C386.194 292.784 386.183 293.131 386.176 293.366C386.172 293.484 386.17 293.574 386.168 293.635C386.167 293.645 386.166 293.654 386.166 293.663C386.139 293.688 386.1 293.724 386.048 293.767C385.939 293.859 385.776 293.986 385.564 294.128C385.141 294.411 384.523 294.751 383.745 294.977C382.203 295.426 380.017 295.434 377.439 293.641C377.436 293.625 377.433 293.605 377.429 293.582C377.416 293.5 377.396 293.378 377.369 293.219C377.316 292.9 377.237 292.432 377.137 291.832C376.937 290.631 376.649 288.903 376.3 286.794C375.601 282.576 374.655 276.834 373.664 270.738C371.806 259.307 369.793 246.637 368.966 240.437L368.816 239.286L368.572 237.248C367.982 232.078 367.264 224.188 366.667 217.24C366.325 213.27 366.022 209.609 365.805 206.94C365.697 205.606 365.611 204.52 365.551 203.767C365.521 203.391 365.497 203.098 365.481 202.899C365.473 202.8 365.468 202.724 365.464 202.673C365.462 202.647 365.46 202.628 365.459 202.615C365.458 202.609 365.458 202.604 365.458 202.6V202.595L365.162 202.573L357.782 234.157L357.774 234.187L357.78 234.219V234.219C357.78 234.22 357.781 234.222 357.781 234.223C357.782 234.227 357.783 234.232 357.784 234.239C357.787 234.253 357.791 234.275 357.796 234.302C357.806 234.358 357.82 234.44 357.839 234.547C357.876 234.759 357.929 235.07 357.994 235.458C358.124 236.234 358.299 237.325 358.482 238.578C358.802 240.773 359.145 243.464 359.302 245.851L359.356 246.853C359.471 249.462 359.134 258.331 358.768 266.558C358.585 270.669 358.395 274.617 358.251 277.537C358.179 278.997 358.118 280.2 358.075 281.038C358.054 281.457 358.037 281.785 358.025 282.008C358.019 282.119 358.014 282.205 358.012 282.262C358.011 282.265 358.011 282.267 358.011 282.269C356.837 282.988 355.509 283.415 354.138 283.513L353.858 283.528C352.388 283.585 350.929 283.263 349.619 282.594C349.617 282.58 349.615 282.564 349.612 282.546C349.6 282.462 349.582 282.337 349.558 282.175C349.511 281.85 349.442 281.372 349.354 280.763C349.178 279.545 348.924 277.798 348.618 275.688C348.006 271.468 347.181 265.792 346.33 259.968C344.841 249.776 343.273 239.128 342.629 235.038L342.412 233.707C342.313 233.135 342.321 231.856 342.419 230.034C342.516 228.22 342.699 225.885 342.943 223.215C343.431 217.874 344.158 211.197 344.911 204.667C345.664 198.136 346.443 191.754 347.033 187.004C347.328 184.629 347.576 182.662 347.751 181.289C347.838 180.603 347.906 180.064 347.953 179.698C347.976 179.515 347.994 179.374 348.007 179.28C348.007 179.276 348.008 179.272 348.009 179.268H384.978Z" fill="#455A64" stroke="#212121" stroke-width="0.3"/>
<path d="M360.824 126.151L373.129 126.514C376.69 127.37 380.717 128.517 384.25 130.265C387.678 131.963 390.625 134.22 392.234 137.313L392.385 137.615C393.977 140.906 396.001 145.219 397.627 148.71C398.439 150.455 399.153 151.995 399.663 153.098C399.918 153.65 400.122 154.093 400.262 154.397C400.332 154.548 400.386 154.665 400.422 154.745L388.849 161.588L385.256 155.405L384.977 154.924V179.057C383.601 180.533 381.378 181.823 378.614 182.79C375.826 183.765 372.5 184.407 368.966 184.584C361.92 184.936 354.068 183.432 348.013 179.04V140.208C348.013 137.137 348.87 133.757 350.898 131.08C352.86 128.491 355.925 126.549 360.4 126.181L360.824 126.151Z" fill="#B75400" stroke="#212121" stroke-width="0.3"/>
<path opacity="0.7" d="M360.824 126.151L373.129 126.514C376.69 127.37 380.717 128.517 384.25 130.265C387.678 131.963 390.625 134.22 392.234 137.313L392.385 137.615C393.977 140.906 396.001 145.219 397.627 148.71C398.439 150.455 399.153 151.995 399.663 153.098C399.918 153.65 400.122 154.093 400.262 154.397C400.332 154.548 400.386 154.665 400.422 154.745L388.849 161.588L385.256 155.405L384.977 154.924V179.057C383.601 180.533 381.378 181.823 378.614 182.79C375.826 183.765 372.5 184.407 368.966 184.584C361.92 184.936 354.068 183.432 348.013 179.04V140.208C348.013 137.137 348.87 133.757 350.898 131.08C352.86 128.491 355.925 126.549 360.4 126.181L360.824 126.151Z" fill="white" stroke="#212121" stroke-width="0.3"/>
<path d="M375.969 94.7438C376.47 94.7011 376.975 94.75 377.457 94.8903L377.679 94.9616C378.192 95.1432 378.663 95.4255 379.065 95.7907L379.233 95.9518C379.946 96.6779 380.245 97.7276 380.206 99.4391C380.168 101.133 379.799 103.442 379.21 106.666L374.837 107.172L375.969 94.7438Z" fill="#212121" stroke="#212121" stroke-width="0.3"/>
<path d="M344.95 92.1347C345.121 92.0905 345.371 92.1248 345.71 92.3203L345.718 92.3251L345.726 92.3281C346.652 92.7256 347.651 92.9265 348.659 92.9199L351.318 94.4286C351.314 94.4372 351.312 94.4466 351.308 94.456C351.271 94.5505 351.218 94.6866 351.155 94.8495C351.028 95.1753 350.86 95.6118 350.691 96.0546C350.522 96.4975 350.353 96.9475 350.226 97.2997C350.163 97.4756 350.109 97.6284 350.072 97.7441C350.06 97.7796 350.05 97.8126 350.041 97.8417C349.119 97.7493 348.227 97.4636 347.426 96.9999L347.074 96.7802C346.266 96.241 345.59 95.5295 345.094 94.6982L344.893 94.3349L344.891 94.331L344.763 94.0732C344.495 93.4713 344.448 92.8796 344.583 92.5087C344.659 92.3027 344.785 92.1774 344.95 92.1347Z" fill="#212121" stroke="#212121" stroke-width="0.3"/>
<path d="M358.095 89.8036C361.795 88.999 365.985 89.8573 369.197 91.7656L369.505 91.9531C372.719 93.9705 373.73 97.7844 373.925 101.136C374.022 102.807 373.915 104.351 373.784 105.478C373.719 106.042 373.648 106.501 373.593 106.818C373.565 106.977 373.542 107.1 373.525 107.184C373.517 107.225 373.51 107.257 373.506 107.278C373.504 107.289 373.502 107.296 373.501 107.302C373.5 107.304 373.5 107.306 373.5 107.308L373.499 107.31L373.477 107.414L373.567 107.47C373.791 107.606 374.034 107.592 374.266 107.5C374.493 107.41 374.723 107.24 374.946 107.04C375.168 106.841 375.397 106.599 375.623 106.352L376.277 105.638L376.281 105.633C376.56 105.314 376.907 105.062 377.294 104.894L377.462 104.828C377.86 104.685 378.285 104.631 378.705 104.672L378.885 104.695C379.303 104.762 379.7 104.921 380.048 105.16L380.194 105.268C380.575 105.566 380.875 105.956 381.063 106.401L381.201 106.344L381.062 106.402L381.065 106.407C381.742 107.831 381.322 109.516 380.469 111.032C379.618 112.544 378.357 113.849 377.433 114.49L377.426 114.495L377.42 114.5C376.979 114.881 376.442 115.132 375.87 115.227L375.623 115.259C374.959 115.316 374.294 115.164 373.723 114.822L373.507 114.693L373.496 114.944L372.998 126.326C372.226 128.01 371.077 129.491 369.64 130.654L369.347 130.884C367.864 132.009 366.141 132.772 364.315 133.115L363.952 133.178C362.281 133.402 361.142 133.224 360.4 132.813C359.667 132.407 359.303 131.763 359.201 131C359.098 130.231 359.263 129.341 359.595 128.47C359.926 127.6 360.419 126.761 360.959 126.096L360.992 126.054V121.659L360.81 121.699C359.156 122.058 357.455 122.147 355.771 121.967C355.59 121.916 355.322 121.743 354.99 121.441C354.659 121.14 354.28 120.726 353.885 120.227C353.193 119.356 352.455 118.231 351.833 117.009L351.574 116.479L351.573 116.478L351.281 115.858C349.824 112.718 347.827 107.505 349.605 99.1454L349.804 98.2695C350.99 93.2226 354.286 90.632 358.095 89.8036Z" fill="white" stroke="#212121" stroke-width="0.3"/>
<path d="M348.034 82.3089C348.387 82.3357 348.875 82.4865 349.585 82.7669C349.938 82.9064 350.343 83.0761 350.807 83.2757L352.391 83.9632H352.392C356.188 85.5754 360.274 86.3962 364.398 86.3763V86.3773C366.088 86.4386 368.043 86.3597 369.89 86.5765C371.732 86.7927 373.419 87.2996 374.562 88.5023C375.706 89.705 375.991 91.2131 375.986 92.4329C375.984 93.0419 375.909 93.5754 375.835 93.9564C375.798 94.1466 375.761 94.2988 375.733 94.4026C375.72 94.4544 375.708 94.4943 375.7 94.5208C375.696 94.5338 375.693 94.5436 375.691 94.5501C375.69 94.5534 375.69 94.5564 375.689 94.5579L375.688 94.5589V94.5599L375.678 94.5931L375.684 94.6282L375.831 94.6058L375.684 94.6292V94.6302C375.684 94.6314 375.684 94.6337 375.685 94.636C375.685 94.6407 375.686 94.6476 375.687 94.6566C375.69 94.6751 375.695 94.7026 375.7 94.7386C375.711 94.8107 375.727 94.9168 375.747 95.0521C375.787 95.3226 375.842 95.7103 375.904 96.179C376.029 97.1169 376.184 98.3783 376.301 99.6732C376.418 100.969 376.497 102.294 376.473 103.362C376.46 103.896 376.422 104.36 376.352 104.722C376.288 105.047 376.203 105.263 376.108 105.379L376.067 105.423C375.629 105.826 375.072 106.583 374.595 107.221C374.353 107.544 374.131 107.838 373.949 108.051C373.858 108.158 373.78 108.239 373.718 108.293C373.687 108.32 373.663 108.338 373.646 108.347C373.644 108.349 373.641 108.349 373.639 108.35C373.553 108.346 373.457 108.299 373.349 108.175C373.237 108.047 373.125 107.853 373.018 107.598C372.802 107.089 372.613 106.374 372.438 105.555C372.265 104.738 372.108 103.827 371.955 102.931C371.841 102.26 371.729 101.597 371.614 100.99L371.499 100.404C371.157 98.7121 370.914 97.532 370.592 96.8001C370.43 96.4317 370.24 96.1571 369.99 95.9896C369.767 95.8403 369.512 95.7855 369.22 95.806L369.096 95.8187C365.031 96.2807 360.932 96.3576 356.852 96.0482H356.853C354.651 95.7796 353.241 95.3675 352.385 95.0257C351.957 94.8548 351.667 94.702 351.486 94.5931C351.396 94.5386 351.333 94.4951 351.293 94.4661C351.273 94.4518 351.259 94.4408 351.251 94.4339C351.247 94.4305 351.244 94.4275 351.242 94.4261C351.241 94.4254 351.24 94.4253 351.24 94.4251H351.241L351.22 94.4075L351.193 94.3978L348.869 93.5335C347.495 91.9688 346.855 90.0234 346.633 88.2025C346.437 86.5991 346.566 85.1022 346.797 84.0657L346.901 83.6507C347.051 83.1245 347.177 82.7768 347.346 82.5648C347.427 82.4631 347.516 82.3955 347.621 82.3548C347.728 82.3135 347.861 82.2957 348.034 82.3089Z" fill="#212121" stroke="#212121" stroke-width="0.3"/>
<path d="M377.74 91.9682C377.957 91.9492 378.176 91.9636 378.388 92.0102L378.598 92.0678C378.805 92.1359 379 92.2345 379.176 92.3608L379.346 92.4965C379.528 92.6572 379.679 92.8486 379.797 93.06L375.889 95.1645C375.707 94.7278 375.66 94.2474 375.757 93.7856L375.814 93.5678C375.993 92.9921 376.387 92.5071 376.914 92.2143C377.106 92.1114 377.312 92.0392 377.526 91.9985L377.74 91.9682Z" fill="#212121" stroke="#212121" stroke-width="0.3"/>
<path d="M371.714 117.536C371.388 118.377 370.947 119.171 370.398 119.891C370.025 120.365 369.253 120.826 368.273 121.25C367.3 121.671 366.148 122.046 365.041 122.358C363.935 122.671 362.879 122.921 362.098 123.093C361.708 123.179 361.387 123.244 361.163 123.289C361.098 123.302 361.04 123.313 360.992 123.322V121.968C363.82 121.427 366.593 120.631 369.275 119.584L369.283 119.581L369.289 119.577C370.244 119.083 371.07 118.384 371.714 117.536Z" fill="#E0E0E0" stroke="#212121" stroke-width="0.3"/>
<path d="M363.936 104.551C364.115 104.586 364.283 104.663 364.427 104.772L364.562 104.892C364.69 105.024 364.785 105.182 364.841 105.354L364.884 105.53C364.914 105.71 364.902 105.895 364.851 106.068L364.785 106.238C364.707 106.403 364.593 106.547 364.452 106.661L364.303 106.764C364.092 106.887 363.849 106.942 363.606 106.923L363.595 107.072L363.606 106.922H363.594C363.484 106.922 363.376 106.905 363.271 106.873L363.168 106.836C363.067 106.793 362.973 106.735 362.89 106.665L362.81 106.59C362.733 106.511 362.669 106.421 362.62 106.324L362.575 106.223C362.523 106.087 362.498 105.941 362.503 105.795L362.354 105.79L362.504 105.795L362.503 105.783C362.494 105.6 362.528 105.419 362.6 105.253L362.684 105.092C362.78 104.937 362.911 104.807 363.064 104.711L363.225 104.626C363.392 104.553 363.574 104.521 363.755 104.529L363.936 104.551Z" fill="#212121" stroke="#212121" stroke-width="0.3"/>
<path d="M365.146 100.409C365.329 100.429 365.505 100.486 365.665 100.578V100.577C365.946 100.741 366.162 100.994 366.282 101.294L366.328 101.425C366.418 101.733 366.402 102.059 366.289 102.355L363.865 101.035C363.912 100.958 363.967 100.887 364.029 100.821L364.128 100.726C364.232 100.636 364.349 100.563 364.475 100.508L364.604 100.461C364.736 100.42 364.872 100.4 365.009 100.401L365.146 100.409Z" fill="#212121" stroke="#212121" stroke-width="0.3"/>
<path d="M362.347 114.42C362.408 114.685 362.394 114.962 362.305 115.22L362.253 115.348C362.099 115.685 361.823 115.95 361.481 116.091C361.353 116.135 361.22 116.161 361.086 116.166L360.951 116.165C360.817 116.157 360.684 116.129 360.558 116.082L360.435 116.028C360.314 115.969 360.202 115.892 360.104 115.801L360.01 115.704C359.923 115.605 359.851 115.494 359.796 115.375L362.347 114.42Z" fill="#E0E0E0" stroke="#212121" stroke-width="0.3"/>
<path d="M352.673 99.7937C352.805 99.8141 352.934 99.8549 353.053 99.9138L353.17 99.9783C353.281 100.048 353.381 100.134 353.467 100.232L351.301 101.914C351.166 101.676 351.1 101.406 351.112 101.133L351.125 100.993C351.177 100.622 351.371 100.285 351.665 100.053C351.771 99.9715 351.889 99.9064 352.014 99.8601L352.142 99.8201C352.272 99.7867 352.406 99.7732 352.539 99.78L352.673 99.7937Z" fill="#212121" stroke="#212121" stroke-width="0.3"/>
<path d="M352.155 105.438C352.153 105.18 352.238 104.93 352.397 104.73L352.47 104.648C352.674 104.437 352.953 104.315 353.247 104.308C353.357 104.308 353.465 104.325 353.569 104.357L353.672 104.394C353.773 104.437 353.868 104.494 353.951 104.565L354.03 104.64C354.107 104.719 354.171 104.808 354.221 104.906L354.265 105.006C354.304 105.108 354.329 105.216 354.336 105.325L354.338 105.434V105.439C354.338 105.546 354.321 105.654 354.29 105.756L354.254 105.857C354.199 105.989 354.119 106.11 354.018 106.211C353.942 106.287 353.855 106.351 353.761 106.402L353.664 106.448C353.532 106.502 353.389 106.531 353.246 106.531C353.139 106.531 353.032 106.515 352.93 106.484L352.828 106.448C352.729 106.406 352.637 106.351 352.554 106.283L352.475 106.211C352.399 106.135 352.335 106.048 352.284 105.953L352.238 105.857C352.183 105.724 352.155 105.582 352.155 105.439V105.438Z" fill="#212121" stroke="#212121" stroke-width="0.3"/>
<path d="M357.788 111.533L354.265 110.327L358.154 104.768L357.788 111.533Z" fill="#E0E0E0" stroke="#212121" stroke-width="0.3"/>
<path d="M357.533 157.815L366.841 196.967L336.921 188.278L326.059 149.526L357.533 157.815Z" fill="#B75400" stroke="#212121" stroke-width="0.3"/>
<path d="M339.409 175.662C338.869 176.503 338.112 177.185 337.215 177.634C336.246 178.118 335.158 178.308 334.084 178.183L333.696 176.805L339.409 175.662Z" fill="#B75400" stroke="#212121" stroke-width="0.3"/>
<path d="M362.639 179.72L363.13 181.428C363.1 181.43 363.066 181.434 363.029 181.437C362.848 181.453 362.583 181.475 362.253 181.497C361.592 181.54 360.668 181.583 359.614 181.585C357.503 181.588 354.888 181.423 352.834 180.756H352.833C351.019 180.153 349.578 179.372 348.576 178.614C348.075 178.235 347.686 177.863 347.416 177.526C347.221 177.283 347.094 177.064 347.026 176.878L362.639 179.72Z" fill="#B75400" stroke="#212121" stroke-width="0.3"/>
<path opacity="0.43" d="M336.06 153.446C336.705 153.436 337.601 153.548 338.633 153.788L339.082 153.898L343.764 155.113C344.983 155.435 346.109 155.856 346.947 156.279C347.366 156.491 347.708 156.7 347.952 156.895C348.141 157.046 348.256 157.175 348.313 157.279L348.351 157.375L348.567 158.348L335.333 154.912L335.085 153.792C335.076 153.744 335.084 153.71 335.103 153.681C335.125 153.649 335.17 153.61 335.251 153.573C335.417 153.498 335.689 153.452 336.06 153.446Z" fill="#B75400" stroke="#212121" stroke-width="0.3"/>
<path d="M336.921 149.644C337.224 149.2 337.954 148.785 339.728 149.137L340.097 149.218L340.11 149.22C341.052 149.359 341.948 149.709 342.733 150.241L343.062 150.48C343.921 151.148 344.593 152.025 345.012 153.028L345.041 153.096L345.11 153.115L347.093 153.682C347.629 153.834 348.135 154.052 348.522 154.285C348.715 154.402 348.876 154.52 348.994 154.634C349.084 154.721 349.143 154.799 349.177 154.866L349.203 154.929L349.204 154.931L349.355 155.428L333.305 151.201L333.087 150.431C333.078 150.381 333.091 150.35 333.126 150.321C333.17 150.283 333.256 150.246 333.397 150.226C333.606 150.196 333.896 150.21 334.24 150.277L334.601 150.363L336.514 150.929L336.754 151L336.704 150.755L336.703 150.751C336.702 150.747 336.701 150.741 336.7 150.732C336.697 150.715 336.693 150.689 336.69 150.656C336.684 150.59 336.679 150.496 336.685 150.387C336.697 150.166 336.752 149.889 336.921 149.644Z" fill="#813B00" stroke="#212121" stroke-width="0.3"/>
<path d="M345.973 154.267L345.938 154.437C345.695 154.385 345.49 154.359 345.317 154.359C345.11 154.359 344.938 154.396 344.806 154.478C344.558 154.632 344.511 154.897 344.541 155.164L344.558 155.279C344.613 155.572 344.729 156.094 344.83 156.54C344.88 156.764 344.928 156.97 344.962 157.12V157.121L338.054 155.293C338.051 155.271 338.048 155.245 338.043 155.215C338.027 155.102 338.002 154.942 337.971 154.748C337.94 154.555 337.901 154.329 337.856 154.087L337.702 153.33C337.58 152.784 337.346 152.439 336.935 152.19C336.549 151.956 336.009 151.812 335.29 151.636L335.201 151.534L345.973 154.267Z" fill="#813B00" stroke="#212121" stroke-width="0.3"/>
<path d="M335.805 153.568C336.448 153.557 337.345 153.67 338.376 153.909L338.826 154.02L343.508 155.235C344.727 155.549 345.857 155.968 346.697 156.389C347.118 156.6 347.463 156.808 347.708 157.003C347.898 157.154 348.014 157.284 348.071 157.388L348.108 157.483L348.313 158.457L335.078 155.033L334.842 153.911V153.91L334.838 153.848C334.841 153.83 334.848 153.815 334.857 153.801C334.877 153.769 334.92 153.731 335 153.695C335.164 153.62 335.434 153.573 335.805 153.568Z" fill="#813B00" stroke="#212121" stroke-width="0.3"/>
<path d="M359.682 166.023C359.867 166.032 360.124 166.068 360.409 166.178C360.938 166.381 361.582 166.843 362.042 167.892L362.132 168.108C362.617 169.364 363.366 170.629 364.32 171.557C365.214 172.427 366.298 173.01 367.516 172.992L367.762 172.981C369.034 172.878 375.275 171.773 381.182 170.696C384.14 170.157 387.018 169.625 389.158 169.228C390.227 169.029 391.112 168.864 391.729 168.748C392.038 168.69 392.28 168.644 392.445 168.613C392.525 168.598 392.587 168.586 392.629 168.578L403.025 176.623C401.983 176.894 399.986 177.198 397.416 177.506C394.596 177.844 391.103 178.19 387.466 178.517C382.012 179.007 376.238 179.456 371.933 179.775L368.184 180.048C367.241 180.119 366.245 180.212 365.236 180.323L364.224 180.44H364.223C362.537 180.656 360.84 180.771 359.14 180.788C357.108 180.781 354.636 180.651 352.302 179.954C349.969 179.258 347.781 177.999 346.302 175.744C345.561 174.615 345.319 173.686 345.4 172.951C345.48 172.221 345.882 171.657 346.483 171.256C347.62 170.496 349.454 170.332 351.037 170.773L351.35 170.868C353.058 171.444 355.383 171.521 357.244 171.331C358.175 171.236 359 171.073 359.581 170.867C359.87 170.765 360.11 170.649 360.273 170.518C360.413 170.404 360.522 170.255 360.513 170.079L360.502 170.003C360.381 169.504 360.134 168.466 359.918 167.552C359.811 167.095 359.71 166.669 359.637 166.357C359.605 166.222 359.579 166.108 359.559 166.023C359.595 166.022 359.636 166.02 359.682 166.023Z" fill="white" stroke="#212121" stroke-width="0.3"/>
<path d="M327.419 160.404C327.789 160.195 328.38 160.315 328.934 160.938L330.341 165.937C330.384 166.092 330.49 166.245 330.628 166.394C330.768 166.545 330.952 166.701 331.167 166.859C331.597 167.174 332.166 167.507 332.795 167.827C333.897 168.389 335.199 168.921 336.3 169.274L336.758 169.413C337.347 169.583 337.94 169.749 338.484 169.956C339.029 170.164 339.516 170.409 339.894 170.728C340.269 171.045 340.537 171.435 340.648 171.941C340.747 172.385 340.727 172.93 340.539 173.606L340.448 173.904C339.954 175.351 338.78 176.249 337.471 176.778C336.164 177.305 334.74 177.455 333.779 177.416C332.492 177.197 331.291 176.627 330.307 175.769C329.382 174.962 328.683 173.931 328.277 172.776L328.2 172.543L328.198 172.538L328.079 172.181C327.513 170.392 327.374 168.555 327.323 166.88C327.297 165.995 327.294 165.134 327.266 164.374C327.241 163.705 327.195 163.092 327.091 162.562L327.043 162.34C326.778 161.234 327.044 160.616 327.419 160.404Z" fill="white" stroke="#212121" stroke-width="0.3"/>
<path d="M385.884 299.015C385.905 299.035 385.929 299.062 385.956 299.098C386.053 299.23 386.154 299.44 386.255 299.709C386.458 300.247 386.648 300.977 386.831 301.687L386.975 301.65L386.83 301.688L386.833 301.699C387.283 303.016 387.438 304.416 387.287 305.799C387.033 306.537 386.376 307.248 385.637 307.952C384.998 308.56 384.295 309.166 383.801 309.755L383.603 310.007C383.11 310.681 382.724 311.689 382.321 312.725C381.964 313.641 381.591 314.588 381.113 315.396L380.901 315.733C380.62 316.154 380.119 316.594 379.469 317.028C378.822 317.46 378.039 317.878 377.206 318.256C375.747 318.92 374.146 319.459 372.874 319.745L372.351 319.851C371.214 320.054 369.26 319.772 367.689 319.119C366.905 318.792 366.232 318.379 365.807 317.903C365.412 317.461 365.237 316.973 365.367 316.441L365.397 316.334C365.79 315.097 366.825 313.816 368.095 312.548C369.047 311.598 370.114 310.669 371.121 309.777L372.101 308.898C373.705 307.438 374.95 305.002 375.884 302.912C376.118 302.388 376.333 301.883 376.53 301.42C376.727 300.957 376.905 300.535 377.066 300.173C377.227 299.811 377.368 299.514 377.492 299.298C377.509 299.268 377.527 299.239 377.543 299.212V299.961C377.539 300.275 377.785 300.496 378.078 300.647C378.379 300.803 378.785 300.917 379.216 301C380.082 301.166 381.096 301.213 381.692 301.193L381.691 301.192C383.186 301.213 384.643 300.727 385.826 299.812L385.884 299.767V299.015Z" fill="#813B00" stroke="#212121" stroke-width="0.3"/>
<path d="M358.183 287.109C358.258 287.181 358.342 287.301 358.43 287.471C358.605 287.808 358.781 288.299 358.949 288.869C359.118 289.438 359.278 290.075 359.424 290.7L359.819 292.454C360.05 293.494 360.325 294.592 360.343 295.571C360.36 296.485 360.153 297.262 359.503 297.783L359.367 297.884C358.981 298.149 358.437 298.354 357.794 298.509C357.153 298.663 356.423 298.765 355.672 298.829C354.17 298.956 352.596 298.929 351.5 298.869C350.923 298.837 350.273 298.976 349.59 299.202C348.905 299.428 348.175 299.747 347.435 300.085C346.039 300.723 344.614 301.427 343.346 301.754L343.095 301.813L343.094 301.814C340.655 302.364 338.422 302.44 336.59 302.238C334.87 302.048 333.513 301.613 332.673 301.102L332.512 301C331.692 300.447 331.281 299.711 331.256 299.044C331.233 298.425 331.541 297.841 332.215 297.484L332.355 297.416V297.415C334.97 296.235 340.776 293.933 343.759 292.434L343.76 292.435C345.408 291.628 346.918 290.567 348.235 289.291L348.495 289.033L348.499 289.029C348.727 288.781 348.92 288.557 349.085 288.362C349.252 288.167 349.389 288.003 349.511 287.87C349.677 287.689 349.799 287.587 349.901 287.537L349.912 288.578L349.913 288.669L349.994 288.711C351.086 289.264 352.869 289.377 354.484 289.181C355.295 289.082 356.073 288.904 356.713 288.656C357.347 288.411 357.868 288.089 358.134 287.688L358.158 287.65V287.088C358.166 287.094 358.174 287.101 358.183 287.109Z" fill="#813B00" stroke="#212121" stroke-width="0.3"/>
</svg>
