<svg width="278" height="208" fill="none" xmlns="http://www.w3.org/2000/svg"><path d="M278 182.034H0v.139h278v-.139zm-27.856 8.946h-14.583v.139h14.583v-.139zm-51.785-1.807h-19.032v.139h19.032v-.139zm32.809-3.352h-14.701v.139h14.701v-.139zm-169.513.934H37.64v.139h24.014v-.139zm-28.968 0h-3.52v.139h3.52v-.139zm71.658 2.346H73.097v.139h31.248v-.139zm27.427-31.864H24.414a3.178 3.178 0 01-3.17-3.175V3.147A3.175 3.175 0 0124.415 0h107.358a3.174 3.174 0 013.175 3.175v150.887a3.176 3.176 0 01-3.175 3.175zM24.414.111a3.036 3.036 0 00-3.03 3.036v150.915a3.036 3.036 0 003.03 3.036h107.358a3.043 3.043 0 003.036-3.036V3.147a3.044 3.044 0 00-3.036-3.036H24.414zM252.04 157.237H144.677a3.177 3.177 0 01-3.175-3.175V3.147A3.182 3.182 0 01144.677 0H252.04a3.173 3.173 0 013.164 3.147v150.915a3.175 3.175 0 01-3.164 3.175zM144.677.111a3.04 3.04 0 00-3.036 3.036v150.915a3.039 3.039 0 003.036 3.036H252.04a3.043 3.043 0 003.036-3.036V3.147A3.04 3.04 0 00252.04.111H144.677z" fill="#EBEBEB"/><path d="M187.895 15.824H37.041v86.424h150.854V15.824z" fill="#E6E6E6"/><path d="M190.141 15.824H38.091v86.424h152.05V15.824z" fill="#F0F0F0"/><path d="M186.999 98.718v-79.37H41.233v79.37h145.766z" fill="#FAFAFA"/><path d="M59.125 98.718l18.431-79.37h24.17l-18.437 79.37H59.125zm28.078 0l18.431-79.37h10.915l-18.432 79.37H87.203zm43.301 0l18.437-79.37h18.643l-18.437 79.37h-18.643z" fill="#fff"/><path d="M186.999 98.723V19.354h-.4v79.37h.4z" fill="#E6E6E6"/><path d="M118.65 15.824h-9.062v86.424h9.062V15.824z" fill="#F0F0F0"/><path d="M109.588 98.718v-79.37h-.401v79.37h.401zm4.687-82.894h-.317v86.424h.317V15.824z" fill="#E6E6E6"/><g opacity=".7"><path opacity=".7" d="M178.698 80.837h14.501v-69.59h-14.501v69.59z" fill="#EBEBEB"/><path opacity=".7" d="M178.698 11.242h-9.39v61.466h9.39V11.242z" fill="#E0E0E0"/><path opacity=".7" d="M154.807 80.837h14.501v-69.59h-14.501v69.59z" fill="#EBEBEB"/><path opacity=".7" d="M154.807 11.242h-9.391v61.466h9.391V11.242z" fill="#E0E0E0"/><path opacity=".7" d="M130.916 80.837h14.5v-69.59h-14.5v69.59z" fill="#EBEBEB"/><path opacity=".7" d="M130.916 11.242h-9.391v61.466h9.391V11.242z" fill="#E0E0E0"/><path opacity=".7" d="M107.024 80.837h14.501v-69.59h-14.501v69.59z" fill="#EBEBEB"/><path opacity=".7" d="M107.024 11.242h-9.39v61.466h9.39V11.242z" fill="#E0E0E0"/><path opacity=".7" d="M83.133 80.837h14.5v-69.59h-14.5v69.59z" fill="#EBEBEB"/><path opacity=".7" d="M83.133 11.242h-9.39v61.466h9.39V11.242z" fill="#E0E0E0"/><path opacity=".7" d="M59.242 80.837h14.5v-69.59h-14.5v69.59zm-23.892 0h14.501v-69.59h-14.5v69.59z" fill="#EBEBEB"/><path opacity=".7" d="M59.242 11.242H49.85v61.466h9.39V11.242z" fill="#E0E0E0"/></g><path d="M240.854 127.507H222.2v54.527h18.654v-54.527z" fill="#E6E6E6"/><path d="M235.866 182.034h4.982v-9.407h-10.203l5.221 9.407z" fill="#F5F5F5"/><path d="M126.774 127.507H108.12v54.527h18.654v-54.527z" fill="#E6E6E6"/><path d="M240.848 127.507H122.426v51.286h118.422v-51.286z" fill="#F5F5F5"/><path d="M127.402 182.034h-4.976v-9.407h10.202l-5.226 9.407z" fill="#F5F5F5"/><path d="M236.989 132.005H126.29v18.982h110.699v-18.982zm0 23.047H126.29v18.982h110.699v-18.982z" fill="#E6E6E6"/><path d="M220.193 45.386h28.506v-4.57h-28.506v4.57z" fill="#F0F0F0"/><path d="M220.198 40.816h-13.594v4.57h13.594v-4.57z" fill="#E6E6E6"/><path d="M220.721 45.386h13.728l-10.008 6.533h-3.72v-6.533z" fill="#EBEBEB"/><path d="M219.286 45.386h13.728l-10.008 6.533h-3.72v-6.533z" fill="#E0E0E0"/><path d="M230.907 40.816h8.924V21.245h-8.924v19.57z" fill="#E6E6E6"/><path d="M242.41 21.24h-2.579v19.57h2.579V21.24z" fill="#F0F0F0"/><path d="M219.409 22.968h11.498l2.774 17.848h-11.503l-2.769-17.848z" fill="#E6E6E6"/><path d="M234.232 22.968h-3.325l2.774 17.848h3.325l-2.774-17.848z" fill="#F0F0F0"/><path d="M214.105 40.816h13.032V20.589h-13.032v20.227z" fill="#EBEBEB"/><path d="M230.907 20.589h-3.77v20.227h3.77V20.589z" fill="#F5F5F5"/><path d="M224.112 40.816h-.556V28.639a3.84 3.84 0 00-1.122-2.708 3.828 3.828 0 00-5.417 0 3.835 3.835 0 00-1.122 2.709v12.176h-.556V28.639a4.376 4.376 0 011.285-3.101 4.385 4.385 0 017.488 3.102v12.176z" fill="#E0E0E0"/><path d="M220.193 85.035h28.506v-4.57h-28.506v4.57z" fill="#F0F0F0"/><path d="M220.198 80.459h-13.594v4.57h13.594v-4.57z" fill="#E6E6E6"/><path d="M220.721 85.03h13.728l-10.008 6.538h-3.72v-6.539z" fill="#EBEBEB"/><path d="M219.286 85.03h13.728l-10.008 6.538h-3.72v-6.539zm8.579-4.571h13.033V65.986h-13.033V80.46z" fill="#E0E0E0"/><path d="M244.24 65.986h-3.342V80.46h3.342V65.986z" fill="#F0F0F0"/><path d="M223.834 80.459h11.171V61.894h-11.171v18.565z" fill="#E0E0E0"/><path d="M237.279 61.894h-2.274v18.565h2.274V61.894z" fill="#EBEBEB"/><path d="M220.232 80.459h9.791V63.75h-9.791v16.708z" fill="#E6E6E6"/><path d="M232.853 63.757h-2.83v16.707h2.83V63.757zm-18.748 16.702h13.032V65.986h-13.032V80.46z" fill="#F0F0F0"/><path d="M229.022 65.986h-1.885V80.46h1.885V65.986z" fill="#FAFAFA"/><path d="M224.112 80.459h-.556V68.288a3.829 3.829 0 00-3.83-3.83 3.83 3.83 0 00-3.831 3.83v12.17h-.556v-12.17a4.386 4.386 0 118.773 0v12.17z" fill="#E0E0E0"/><path d="M84.345 136.62h-4.798v45.414h4.798V136.62z" fill="#F5F5F5"/><path d="M86.436 136.62H82.26v45.414h4.176V136.62z" fill="#F0F0F0"/><path d="M35.968 136.62h-4.799v45.414h4.799V136.62z" fill="#F5F5F5"/><path d="M38.058 136.62h-4.175v45.414h4.175V136.62z" fill="#F0F0F0"/><path d="M102.538 136.62h-4.799v45.414h4.799V136.62z" fill="#F5F5F5"/><path d="M104.623 136.62h-4.176v45.414h4.176V136.62z" fill="#F0F0F0"/><path d="M54.16 136.62h-4.798v45.414h4.798V136.62z" fill="#F5F5F5"/><path d="M31.175 137.766h73.453v-5.761H31.175v5.761z" fill="#F0F0F0"/><path d="M31.175 137.766h20.9v-5.761h-20.9v5.761z" fill="#E6E6E6"/><path d="M56.25 136.62h-4.175v45.414h4.175V136.62z" fill="#F0F0F0"/><path d="M139 207.143c59.538 0 107.803-2.818 107.803-6.294 0-3.476-48.265-6.293-107.803-6.293s-107.803 2.817-107.803 6.293 48.265 6.294 107.803 6.294z" fill="#F5F5F5"/><path d="M215.522 200.989H104.356v-27.878h111.166a2.158 2.158 0 012.158 2.157v23.563c0 .572-.228 1.121-.632 1.526a2.162 2.162 0 01-1.526.632z" fill="#B75400"/><path opacity=".2" d="M215.522 200.989H104.356v-27.878h111.166a2.158 2.158 0 012.158 2.157v23.563c0 .572-.228 1.121-.632 1.526a2.162 2.162 0 01-1.526.632z" fill="#000"/><path opacity=".2" d="M131.611 200.989h17.008v-27.878h-17.008v27.878zm24.314 0h8.623v-27.878h-8.623v27.878z" fill="#000"/><path d="M67.532 173.111h36.818v27.877H67.532a2.167 2.167 0 01-2.169-2.168v-23.541a2.167 2.167 0 012.169-2.168z" fill="#B75400"/><path opacity=".9" d="M65.363 176.107h32.21a2.833 2.833 0 012.829 2.83v16.219a2.83 2.83 0 01-2.83 2.83H65.363v-21.879z" fill="#fff"/><path opacity=".2" d="M202.1 195.023a7.973 7.973 0 007.973-7.973 7.972 7.972 0 00-7.973-7.973 7.973 7.973 0 100 15.946z" fill="#000"/><path d="M223.573 173.088h-111.2v-20.232h111.2c.572 0 1.121.227 1.526.631.404.405.631.954.631 1.526v15.94a2.158 2.158 0 01-2.157 2.135z" fill="#263238"/><path opacity=".2" d="M223.573 173.088h-111.2v-20.232h111.2c.572 0 1.121.227 1.526.631.404.405.631.954.631 1.526v15.94a2.158 2.158 0 01-2.157 2.135z" fill="#000"/><path d="M75.577 152.9h36.818v20.233H75.577a2.171 2.171 0 01-2.168-2.169v-15.918a2.169 2.169 0 012.168-2.146z" fill="#263238"/><path opacity=".9" d="M73.392 155.875h32.248a2.828 2.828 0 012.83 2.83v8.59a2.828 2.828 0 01-2.83 2.841H73.392v-14.261z" fill="#fff"/><path opacity=".3" d="M135.67 168.318h77.784a2.33 2.33 0 002.33-2.33v-5.993a2.33 2.33 0 00-2.33-2.33H135.67a2.33 2.33 0 00-2.33 2.33v5.993a2.33 2.33 0 002.33 2.33zm-19.055 4.793h2.953v-20.233h-2.953v20.233zm5.388 0h2.952v-20.233h-2.952v20.233z" fill="#B75400"/><path d="M211.263 152.878H100.102v-20.895h111.161a2.16 2.16 0 012.158 2.158v16.58a2.16 2.16 0 01-2.158 2.157z" fill="#B75400"/><path opacity=".3" d="M211.263 152.878H100.102v-20.895h111.161a2.16 2.16 0 012.158 2.158v16.58a2.16 2.16 0 01-2.158 2.157z" fill="#000"/><path opacity=".9" d="M127.357 152.878h38.598v-20.872h-38.598v20.872zm55.178 0h19.571v-20.872h-19.571v20.872z" fill="#fff"/><path d="M63.284 132.006h36.796V152.9H63.284a2.168 2.168 0 01-2.169-2.168v-16.558a2.168 2.168 0 012.169-2.168z" fill="#B75400"/><path opacity=".9" d="M61.115 134.997h32.21a2.829 2.829 0 012.83 2.83v9.224a2.83 2.83 0 01-2.83 2.83h-32.21v-14.884z" fill="#fff"/><path d="M219.303 132.006H108.142v-13.845h111.161a2.158 2.158 0 012.157 2.157v9.53c0 .572-.227 1.121-.631 1.526a2.162 2.162 0 01-1.526.632z" fill="#B75400"/><path opacity=".3" d="M219.303 132.006H108.142v-13.845h111.161a2.158 2.158 0 012.157 2.157v9.53c0 .572-.227 1.121-.631 1.526a2.162 2.162 0 01-1.526.632z" fill="#fff"/><path opacity=".2" d="M219.303 132.006H108.142v-13.845h111.161a2.158 2.158 0 012.157 2.157v9.53c0 .572-.227 1.121-.631 1.526a2.162 2.162 0 01-1.526.632z" fill="#000"/><path d="M71.324 118.161h36.818v13.845H71.324a2.168 2.168 0 01-2.169-2.169v-9.507a2.169 2.169 0 012.169-2.169z" fill="#B75400"/><path opacity=".3" d="M71.324 118.161h36.818v13.845H71.324a2.168 2.168 0 01-2.169-2.169v-9.507a2.169 2.169 0 012.169-2.169z" fill="#fff"/><path opacity=".9" d="M69.155 121.158h32.204a2.83 2.83 0 012.83 2.83v2.224a2.827 2.827 0 01-2.83 2.78H69.155v-7.834z" fill="#fff"/><path opacity=".4" d="M118.089 128.358h50.385v-6.544h-50.385v6.544z" fill="#263238"/><path d="M127.268 113.58h15.896v4.587h-15.896a.355.355 0 01-.355-.356v-3.892a.355.355 0 01.355-.339z" fill="#B75400"/><path opacity=".2" d="M127.268 113.58h15.896v4.587h-15.896a.355.355 0 01-.355-.356v-3.892a.355.355 0 01.355-.339z" fill="#000"/><path d="M149.225 118.172h-6.038v-4.587h6.06a.36.36 0 01.252.104.36.36 0 01.104.252v3.892a.354.354 0 01-.239.32.347.347 0 01-.139.019z" fill="#B75400"/><path opacity=".9" d="M149.586 117.677h-5.298a.471.471 0 01-.331-.136.471.471 0 01-.136-.331v-2.668c0-.124.049-.243.136-.331a.471.471 0 01.331-.136h5.298v3.602z" fill="#fff"/><path d="M125.945 110.249h15.896v3.336h-15.896a.356.356 0 01-.356-.356v-2.618a.36.36 0 01.356-.362z" fill="#263238"/><path opacity=".2" d="M125.945 110.249h15.896v3.336h-15.896a.356.356 0 01-.356-.356v-2.618a.36.36 0 01.356-.362z" fill="#000"/><path d="M147.902 113.585h-6.061v-3.336h6.061a.355.355 0 01.355.356v2.619a.355.355 0 01-.355.361z" fill="#263238"/><path opacity=".9" d="M148.263 113.09h-5.299a.47.47 0 01-.33-.136.47.47 0 01-.137-.331v-1.412a.465.465 0 01.467-.467h5.299v2.346z" fill="#fff"/><path d="M127.969 106.819h15.896v3.436h-15.896a.36.36 0 01-.252-.104.36.36 0 01-.104-.252v-2.724a.36.36 0 01.104-.252.362.362 0 01.252-.104z" fill="#B75400"/><path opacity=".3" d="M127.969 106.819h15.896v3.436h-15.896a.36.36 0 01-.252-.104.36.36 0 01-.104-.252v-2.724a.36.36 0 01.104-.252.362.362 0 01.252-.104z" fill="#000"/><path d="M149.925 110.249h-6.06v-3.436h6.06a.357.357 0 01.356.356v2.719a.363.363 0 01-.025.138.366.366 0 01-.193.196.361.361 0 01-.138.027z" fill="#B75400"/><path opacity=".9" d="M150.281 109.76h-5.298a.468.468 0 01-.467-.467v-1.518a.467.467 0 01.467-.467h5.298v2.452z" fill="#fff"/><path d="M126.646 104.528h15.896v2.28h-15.896a.356.356 0 01-.356-.356v-1.568a.357.357 0 01.356-.356z" fill="#B75400"/><path opacity=".3" d="M126.646 104.528h15.896v2.28h-15.896a.356.356 0 01-.356-.356v-1.568a.357.357 0 01.356-.356z" fill="#fff"/><path opacity=".2" d="M126.646 104.528h15.896v2.28h-15.896a.356.356 0 01-.356-.356v-1.568a.357.357 0 01.356-.356z" fill="#000"/><path d="M148.608 106.83h-6.061v-2.28h6.061a.357.357 0 01.356.356v1.562a.357.357 0 01-.356.362z" fill="#B75400"/><path opacity=".3" d="M148.608 106.83h-6.061v-2.28h6.061a.357.357 0 01.356.356v1.562a.357.357 0 01-.356.362z" fill="#fff"/><path opacity=".9" d="M148.958 106.324h-5.299a.465.465 0 01-.467-.467v-.361a.468.468 0 01.467-.468h5.299v1.296z" fill="#fff"/><path d="M125.945 101.192h15.896v3.336h-15.896a.356.356 0 01-.356-.356v-2.619a.355.355 0 01.219-.333.34.34 0 01.137-.028z" fill="#263238"/><path opacity=".2" d="M125.945 101.192h15.896v3.336h-15.896a.356.356 0 01-.356-.356v-2.619a.355.355 0 01.219-.333.34.34 0 01.137-.028z" fill="#000"/><path d="M145.883 104.556h-4.025v-3.336h4.042a.357.357 0 01.356.356v2.618a.362.362 0 01-.108.262.356.356 0 01-.265.1z" fill="#263238"/><path opacity=".9" d="M146.245 104.044h-3.281a.469.469 0 01-.467-.467v-1.412a.465.465 0 01.467-.467h3.281v2.346z" fill="#fff"/><path d="M127.969 97.773h15.896v3.419h-15.896a.36.36 0 01-.252-.104.359.359 0 01-.104-.252v-2.724a.356.356 0 01.356-.34z" fill="#B75400"/><path opacity=".3" d="M127.969 97.773h15.896v3.419h-15.896a.36.36 0 01-.252-.104.359.359 0 01-.104-.252v-2.724a.356.356 0 01.356-.34z" fill="#000"/><path d="M147.907 101.209h-4.042v-3.42h4.042a.358.358 0 01.356.356v2.719a.357.357 0 01-.356.345z" fill="#B75400"/><path opacity=".9" d="M148.263 100.714h-3.28a.468.468 0 01-.467-.467v-1.518a.469.469 0 01.467-.467h3.28v2.452z" fill="#fff"/><path d="M126.646 95.499h15.896v2.28h-15.896a.356.356 0 01-.356-.357v-1.568a.354.354 0 01.356-.355z" fill="#B75400"/><path opacity=".3" d="M126.646 95.499h15.896v2.28h-15.896a.356.356 0 01-.356-.357v-1.568a.354.354 0 01.356-.355z" fill="#fff"/><path opacity=".2" d="M126.646 95.499h15.896v2.28h-15.896a.356.356 0 01-.356-.357v-1.568a.354.354 0 01.356-.355z" fill="#000"/><path d="M146.589 97.773h-4.042v-2.28h4.042a.356.356 0 01.356.356v1.568a.355.355 0 01-.356.356z" fill="#B75400"/><path opacity=".3" d="M146.589 97.773h-4.042v-2.28h4.042a.356.356 0 01.356.356v1.568a.355.355 0 01-.356.356z" fill="#fff"/><path opacity=".9" d="M146.94 97.283h-3.281a.467.467 0 01-.467-.467v-.361a.466.466 0 01.467-.467h3.281v1.295z" fill="#fff"/><path d="M59.353 156.514l-3.67-1.84 2.98-9.119 3.67 1.841-2.98 9.118z" fill="#FFC3BD"/><path d="M56.006 153.239l4.504.945a.303.303 0 01.245.34l-.557 3.608a.723.723 0 01-.85.556c-1.563-.356-2.297-.606-4.276-1.023-1.218-.256-5.427-1.112-7.05-1.668-1.624-.556-1.029-2.152-.29-2.057 3.337.411 6.189.039 7.507-.612.238-.116.508-.147.767-.089z" fill="#263238"/><path opacity=".2" d="M62.333 147.401l-3.67-1.84-1.706 5.232 3.842 1.306 1.534-4.698z" fill="#000"/><path d="M99.524 101.431s-31.464 3.047-34.094 14.506c-3.786 16.463-8.896 32.109-8.896 32.109l7.039 1.24c1.079-4.687 9.102-21.128 12.866-32.209 8.523-1.273 31.308 3.564 34.722-2.919a24.634 24.634 0 002.719-10.625l-14.356-2.102z" fill="#B75400"/><path opacity=".3" d="M99.524 101.431s-31.464 3.047-34.094 14.506c-3.786 16.463-8.896 32.109-8.896 32.109l7.039 1.24c1.079-4.687 9.102-21.128 12.866-32.209 8.523-1.273 31.308 3.564 34.722-2.919a24.634 24.634 0 002.719-10.625l-14.356-2.102z" fill="#000"/><path d="M63.99 151.777l-8.229-2.98.395-3.308 8.612 2.268-.778 4.02zm-9.552 1.862c.366.07.74.096 1.112.078a.097.097 0 00.052-.015.108.108 0 00.05-.09.103.103 0 00-.013-.05c-.111-.117-1.112-1.112-1.613-1.046a.372.372 0 00-.278.223.52.52 0 000 .556c.182.193.426.315.69.344zm.867-.111c-.745 0-1.267-.139-1.417-.367a.332.332 0 010-.344.16.16 0 01.128-.112c.294-.05.889.428 1.29.823z" fill="#B75400"/><path d="M55.517 153.717h.044a.1.1 0 00.04-.025.099.099 0 00.021-.041c0-.045.35-1.185 0-1.668a.468.468 0 00-.372-.212.36.36 0 00-.235.036.351.351 0 00-.16.176c-.183.417.239 1.378.584 1.701l.078.033zm-.212-1.74a.283.283 0 01.184.122c.142.432.142.898 0 1.329a1.912 1.912 0 01-.445-1.362c0-.05.067-.106.206-.095l.055.006z" fill="#B75400"/><path d="M102.916 72.625c-.189 2.068-.49 4.014-.812 6.01a64.221 64.221 0 01-1.262 5.95 42.413 42.413 0 01-1.957 5.965 19.492 19.492 0 01-1.563 3.041c-.344.551-.737 1.07-1.173 1.552a7.656 7.656 0 01-1.818 1.5l-.234.134-.127.045a6.387 6.387 0 01-3.742.122 11.378 11.378 0 01-2.625-1.034 17.253 17.253 0 01-2.146-1.39c-.333-.25-.645-.523-.956-.795-.323-.273-.63-.562-.923-.867l1.746-2.53c.65.211 1.35.483 2.024.684.672.2 1.34.417 1.979.556a8.342 8.342 0 001.746.244c.495 0 .845-.133.756-.172l-.361.178c.374-.356.685-.773.917-1.234.387-.716.72-1.46.995-2.225a45.11 45.11 0 001.485-5.226c.406-1.818.756-3.67 1.062-5.56.305-1.89.556-3.78.811-5.593l6.178.645z" fill="#FFC3BD"/><path d="M97.422 69.578c-3.825 3.336-3.614 11.453-3.614 11.453l10.108 3.648c2.141-3.336 3.192-9.708 3.003-12.444-.295-4.203-4.96-6.627-9.497-2.657z" fill="#263238"/><path opacity=".2" d="M106.924 72.391c-1.818-.873-4.303-.595-6.761 1.551-2.224 1.94-3.085 5.516-3.408 8.157l7.161 2.58c2.102-3.28 3.153-9.48 3.008-12.288z" fill="#000"/><path d="M44.852 146.795l-1.223-3.914 8.507-4.615 1.218 3.914-8.502 4.615z" fill="#FFC3BD"/><path d="M43.924 142.514l3.08 3.419a.286.286 0 01.086.206.288.288 0 01-.086.206l-2.557 2.607a.719.719 0 01-1.023-.044c-1.051-1.207-1.496-1.84-2.853-3.336-.834-.923-3.764-3.976-4.915-5.254-1.15-1.279.145-2.38.745-1.941 2.702 1.963 5.41 3.536 6.861 3.787.253.042.485.165.662.35z" fill="#263238"/><path opacity=".2" d="M53.354 142.18l-1.218-3.914-6.205 3.369 2.586 3.175 4.837-2.63z" fill="#000"/><path d="M106.641 102.582s-21.573 2.891-26.021 8.796c-7.745 10.28-32.248 27.244-32.248 27.244l2.224 7.167s33.393-14.084 39.331-25.86c10.909-.839 28.657 2.752 31.453-4.02 1.863-4.509.951-11.242.951-11.242l-15.69-2.085z" fill="#B75400"/><path opacity=".2" d="M106.641 102.582s-21.573 2.891-26.021 8.796c-7.745 10.28-32.248 27.244-32.248 27.244l2.224 7.167s33.393-14.084 39.331-25.86c10.909-.839 28.657 2.752 31.453-4.02 1.863-4.509.951-11.242.951-11.242l-15.69-2.085z" fill="#000"/><path d="M51.03 146.828l-4.749-7.656 3.036-2.496 4.57 8.24-2.857 1.912zm-8.64-4.915c.253.267.535.505.839.712a.09.09 0 00.053.016.09.09 0 00.053-.016.088.088 0 00.044-.094c0-.156-.206-1.552-.69-1.791a.37.37 0 00-.35 0 .553.553 0 00-.305.434c.02.283.147.547.355.739zm.767.428c-.6-.45-.945-.861-.929-1.112a.345.345 0 01.206-.278.174.174 0 01.172 0c.256.095.456.829.55 1.385v.005z" fill="#B75400"/><path d="M43.212 142.614h.04c.012.01.028.015.044.015a.072.072 0 00.044-.015c.045 0 .979-.751 1.001-1.323a.511.511 0 00-.172-.395.376.376 0 00-.45-.061c-.395.228-.618 1.256-.529 1.723a.11.11 0 00.022.056zm.862-1.529a.28.28 0 01.072.206c0 .344-.489.823-.784 1.073a1.928 1.928 0 01.45-1.351.182.182 0 01.229.039l.033.033z" fill="#B75400"/><path d="M86.397 91.095l-3.27-3.158-2.268 4.448s3.97 2.174 4.965 1.179l.573-2.469z" fill="#FFC3BD"/><path d="M78.785 87.904l-.59 3.647 2.664.806 2.269-4.42-4.343-.033z" fill="#FFC3BD"/><path d="M122.109 66.831c-.412-1.084-1.146-2.157-2.308-2.14-.239 0-1.668 0-1.923.033-1.335.033-3.003.122-4.615.328a81.097 81.097 0 00-9.18 1.596c-1.39.378-2.724.85-3.792 1.256h-.039a2.986 2.986 0 00-1.884 3.075c.556 5.877 1.934 22.195 1.112 30.647l22.796 3.002c1.367-4.348 1.912-14.306 1.923-22.424.045-4.876-.394-10.942-2.09-15.373z" fill="#263238"/><path opacity=".2" d="M124.121 78.029l-.45.033-2.891 2.502-2.991 10.303-10.275 1.796c2.496 1.262 9.758 1.518 14.05.378a3.418 3.418 0 002.513-3.18c.106-2.575.156-5.188.156-7.64 0-1.329-.028-2.746-.112-4.192z" fill="#000"/><path d="M87.23 81.393s2.008-1.112 5.772-.034a9.708 9.708 0 006.41-.183l1.407 2.635-12.788.445-.8-2.863z" fill="#B75400"/><path opacity=".8" d="M87.23 81.393s2.008-1.112 5.772-.034a9.708 9.708 0 006.41-.183l1.407 2.635-12.788.445-.8-2.863z" fill="#fff"/><path d="M87.23 81.393s-.083-.806-2.512-.89c-4.888-.161-6.95-1.412-6.95-1.412l-.2 1.262 10.458 3.892-.795-2.852z" fill="#B75400"/><path opacity=".8" d="M87.23 81.393s-.083-.806-2.512-.89c-4.888-.161-6.95-1.412-6.95-1.412l-.2 1.262 10.458 3.892-.795-2.852z" fill="#fff"/><path d="M91.34 100.152l-9.052-2.58a.728.728 0 01-.478-.483l-4.632-16.77a.439.439 0 01.556-.555l8.624 2.463 4.982 17.925zm14.083.784l-11.898-.661-4.954-17.937 12.065.673a.672.672 0 01.589.49l4.66 16.857a.43.43 0 01-.243.553.43.43 0 01-.219.025z" fill="#B75400"/><path d="M91.34 100.152l2.185.123-4.954-17.937-2.185-.122 4.954 17.936z" fill="#B75400"/><path opacity=".3" d="M91.34 100.152l2.185.123-4.954-17.937-2.185-.122 4.954 17.936z" fill="#000"/><path d="M123.226 70.907c.117.8.195 1.479.25 2.224.056.745.095 1.434.128 2.157.05 1.434.039 2.874-.05 4.32a33.052 33.052 0 01-1.607 8.724c0 .05-.1.289-.166.467a5.298 5.298 0 01-.884 1.396 5.93 5.93 0 01-1.374 1.14c-.788.469-1.638.828-2.524 1.067-1.476.389-2.99.618-4.515.683a41.556 41.556 0 01-8.495-.472l.144-3.075c2.612-.239 5.21-.61 7.784-1.112a19.552 19.552 0 003.447-.984 4.658 4.658 0 001.157-.64c.117-.1.172-.183.161-.194-.011-.011-.028 0-.044.039a.534.534 0 00-.045.061s-.033.1 0 0c.272-1.183.477-2.38.612-3.586.117-1.234.2-2.485.217-3.753a67.931 67.931 0 00-.167-5.738l-.078-.95-.083-.89 6.132-.884z" fill="#FFC3BD"/><path d="M123.226 65.992c-2.702-2.063-6.433-2.002-7.962 3.43-1 3.559-.467 10.72-.467 10.72l10.792-.217c1.207-5.694.373-11.843-2.363-13.933z" fill="#263238"/><path d="M112.201 55.978l-2.269 2.663-3.091 3.631c.193.463.355.938.484 1.423.556 1.924-1.196 2.313-2.78 3.286 0 0-2.374 3.142 3.336 2.224 5.71-.917 6.522-3.892 6.522-3.892-2.564-1.74-2.38-6.01-2.202-9.335z" fill="#FFC3BD"/><path d="M109.599 68.833c-.575.164-1.16.292-1.752.383a9.551 9.551 0 01-2.313.14l-.133.661c-.206.145-.256.917 1.045 1.835 1.374-.284 3.503-1.457 3.153-3.02z" fill="#B75400"/><path d="M113.391 64.357s-1.079 2.886-5.004 3.942c.556 1.529-.356 3.27-.356 3.27s5.476-1.874 6.616-3.748c1.14-1.874.651-2.97.651-2.97a4.732 4.732 0 00-1.907-.494zm-7.751 7.083s.039-2.39.739-3.191c-.366-1.079-.172-1.668.395-2.608a4.721 4.721 0 00-2.952 1.924c-.751 1.251-.228 3.909 1.818 3.875z" fill="#263238"/><path opacity=".2" d="M106.841 62.272c.193.463.355.938.484 1.423 1.301-.506 2.852-2.257 2.78-3.67a6.47 6.47 0 00-.195-1.384l-3.069 3.63z" fill="#000"/><path d="M99.307 49.595c-1.073 2.252-.15 7.6 4.937 5.471 5.088-2.13-3.191-9.124-4.937-5.47zm11.165 4.676c-.467.973-.067 3.286 2.129 2.369 2.196-.918-1.401-3.948-2.129-2.369z" fill="#263238"/><path d="M111.089 55.828c-.712.812-.951 3.147 1.418 2.852 2.368-.294-.267-4.192-1.418-2.852z" fill="#263238"/><path d="M111.645 49.756c.923 4.31 1.668 6.773.172 9.614a5.726 5.726 0 01-10.141.066c-1.957-3.514-3.142-9.969.483-12.949a5.803 5.803 0 018.169.578 5.806 5.806 0 011.317 2.691z" fill="#FFC3BD"/><path d="M110.878 44.747c-.879-3.825-6.005-2.497-8.618-.184-2.614 2.313-3.286 4.131-5.488 5.5 4.064.555 9.819-1.057 10.897-2.425a4.306 4.306 0 001.757 3.48 28.407 28.407 0 000 3.598l1.857-.945 2.163-.868c3.192-5.393 1.307-8.723-2.568-8.156z" fill="#263238"/><path d="M106.246 52.72a.146.146 0 01-.145-.122.147.147 0 01.063-.151.154.154 0 01.054-.022l6.027-1.028a.153.153 0 01.112.025.152.152 0 01.061.097.157.157 0 01-.002.057.162.162 0 01-.024.052.148.148 0 01-.097.058l-6.027 1.028-.022.006z" fill="#fff"/><path d="M105.44 56.295c-1.112 0-2.335-1.195-2.73-2.647a2.466 2.466 0 01.25-2.162 1.34 1.34 0 011.112-.556c1.112 0 2.341 1.195 2.736 2.646a2.492 2.492 0 01-.256 2.169 1.339 1.339 0 01-1.112.55zm-1.396-5.049a1.059 1.059 0 00-.862.417 2.236 2.236 0 00-.2 1.908c.362 1.334 1.463 2.424 2.452 2.43a.999.999 0 00.868-.418 2.221 2.221 0 00.205-1.907c-.361-1.334-1.462-2.424-2.452-2.43h-.011z" fill="#fff"/><path d="M101.998 54.488a.18.18 0 01-.078 0 .147.147 0 01-.069-.092.13.13 0 01-.002-.059.136.136 0 01.021-.055 1.116 1.116 0 011.112-.406.159.159 0 01.112.178.155.155 0 01-.067.092.149.149 0 01-.111.02s-.556-.123-.818.272a.139.139 0 01-.1.05z" fill="#fff"/><path d="M114.23 53.053a4.653 4.653 0 01-1.829 2.73c-1.207.823-2.152-.2-2.102-1.634.045-1.29.723-3.27 2.074-3.52s2.163 1.079 1.857 2.425z" fill="#FFC3BD"/><path d="M104.773 53.376c.161.317.122.667-.084.778-.205.112-.5-.055-.661-.378-.162-.322-.117-.667.083-.778.2-.111.5.056.662.378zm-3.525 1.446c.144.328.089.672-.123.772-.211.1-.5-.083-.639-.411-.139-.328-.084-.678.128-.773.211-.094.495.078.634.412zm-1.78-1.963a.211.211 0 00.145-.14 1.753 1.753 0 011.045-1.111.21.21 0 00.139-.261.198.198 0 00-.175-.148.203.203 0 00-.081.009 2.139 2.139 0 00-1.328 1.412.203.203 0 00.01.16.2.2 0 00.123.101.189.189 0 00.122-.022z" fill="#263238"/><path d="M101.153 57.44c-1.012 0-2.13-1.112-2.49-2.413a2.27 2.27 0 01.233-1.98 1.218 1.218 0 011-.483c1.018 0 2.136 1.112 2.497 2.413a2.266 2.266 0 01-.234 1.974 1.213 1.213 0 01-1.006.49zm-1.268-4.587a.929.929 0 00-.767.378 1.981 1.981 0 00-.183 1.718c.328 1.207 1.317 2.191 2.224 2.197a.937.937 0 00.772-.373 2.005 2.005 0 00.184-1.718c-.328-1.206-1.323-2.19-2.224-2.224l-.006.022z" fill="#fff"/><path d="M102.415 54.31a11.329 11.329 0 01-.489 2.98 1.733 1.733 0 001.446-.272l-.957-2.708z" fill="#ED847E"/><path d="M104.094 58.297a3.067 3.067 0 001.88-1.513.111.111 0 00.001-.08.106.106 0 00-.057-.058.111.111 0 00-.139.05 2.934 2.934 0 01-2.124 1.49.11.11 0 00-.068.043.11.11 0 00-.021.079.105.105 0 00.122.083c.138-.022.273-.053.406-.095zm1.19-7.523a.175.175 0 00.072-.072.208.208 0 00.024-.16.213.213 0 00-.096-.13 2.025 2.025 0 00-1.89-.116.205.205 0 00-.105.123.2.2 0 00.016.16.21.21 0 00.283.09 1.604 1.604 0 011.485.105.194.194 0 00.211 0z" fill="#263238"/><path d="M105.234 89.71l-3.486-1.478.117 4.448s3.453 1.395 4.025-.445l-.656-2.525z" fill="#FFC3BD"/><path d="M97.417 89.227l.767 3.163 3.686.273-.116-4.431-4.337.995z" fill="#FFC3BD"/></svg>