<svg width="278" height="182" fill="none" xmlns="http://www.w3.org/2000/svg"><path d="M30.06 145.604c1.672-.86 3.644-.972 5.5-.668.996.168 2.036.464 2.716 1.2.68.736.8 2.068.028 2.712a2.59 2.59 0 01-1.712.432c-1.456 0-3.068-.272-4.228.604-.664.5-1.104 1.328-1.896 1.572a1.872 1.872 0 01-2.064-.916 3.2 3.2 0 01-.232-2.36 3.6 3.6 0 011.888-2.576zm-3.832-7.396c1.02 1.46 3.008.976 3.932.084.924-.892 1.312-2.184 1.664-3.416.8-2.8 1.628-5.772 1.028-8.64a4.823 4.823 0 00-1.104-2.348 2.504 2.504 0 00-2.376-.8c-1.004.264-1.628 1.248-2.076 2.18a20.633 20.633 0 00-2.036 8.836c0 1.424.164 2.916.968 4.092m-2.812 2.108c1.112-1.32 1.324-3.244.828-4.892a9.436 9.436 0 00-2.896-4.204 15.688 15.688 0 00-5.2-3.064 5.506 5.506 0 00-2.332-.4 2.451 2.451 0 00-1.96 1.2c-.544 1.044 0 2.308.544 3.336a39.909 39.909 0 003.408 5.2c1.024 1.316 2.192 2.616 3.752 3.2 1.56.584 3.172.524 4-.556" fill="#EBEBEB"/><path d="M26.156 160.248c.056-.217.086-.44.092-.664.048-.484.108-1.092.176-1.812.068-.72.196-1.672.4-2.66.24-1.069.563-2.118.968-3.136a11.593 11.593 0 011.6-2.836 5.996 5.996 0 012.028-1.684 5.606 5.606 0 011.704-.532c.223-.008.444-.04.66-.096a3.281 3.281 0 00-.672 0 5.264 5.264 0 00-1.78.464 6.002 6.002 0 00-2.136 1.7 11.319 11.319 0 00-1.66 2.896 18.862 18.862 0 00-.956 3.2 21.843 21.843 0 00-.356 2.688c-.056.772-.08 1.392-.088 1.824-.015.216-.008.433.02.648z" fill="#E0E0E0"/><path d="M26.28 158.852a1.143 1.143 0 000-.308v-.88c0-.764 0-1.872.04-3.236.068-2.732.304-5.676.756-9.82.432-3.9 1.008-8.436 1.6-11.384.132-.672.26-1.276.4-1.804s.22-.988.32-1.356c.1-.368.148-.632.204-.856.032-.098.05-.201.052-.304a1.34 1.34 0 00-.104.288c-.068.22-.152.5-.256.844-.104.344-.232.82-.364 1.348-.132.528-.284 1.128-.428 1.8-.74 3.49-1.296 7.016-1.664 10.564-.452 4.152-.66 7.936-.676 10.676 0 1.368 0 2.476.048 3.244 0 .356.04.648.052.88-.003.102.003.204.02.304z" fill="#E0E0E0"/><path d="M26.3 151.556a5.607 5.607 0 000-.92 24.395 24.395 0 00-.28-2.492 32.691 32.691 0 00-.8-3.632 29.707 29.707 0 00-1.516-4.3 22.829 22.829 0 00-4.468-6.944 10.857 10.857 0 00-1.048-.976c-.16-.136-.304-.272-.448-.4l-.4-.28a5.42 5.42 0 00-.776-.496 27.253 27.253 0 012.54 2.264 24.184 24.184 0 014.352 6.92 34.77 34.77 0 011.528 4.26c.4 1.336.66 2.564.86 3.6.2 1.036.3 1.884.368 2.468.005.311.035.621.088.928zm-7.052 12.872l.732 10.016h12.868l.728-10.016H19.248zm15.864-3.948H18.004v3.948h17.108v-3.948z" fill="#E0E0E0"/><path d="M18.004 174.06v1.096h16.824v-1.096H18.004z" fill="#EBEBEB"/><path d="M19.596 177.08l-.788-1.924h15.408l-.916 1.924H19.596z" fill="#E0E0E0"/><path d="M33.34 167.704l-.06.092-.192.256-.752.96-.032.04-.032-.044-1.836-2.552h.108l-1.812 2.568-.06.08-.06-.076-2.176-2.556h.124l-.12.152-1.92 2.4-.064.08-.06-.084-1.816-2.564h.108c-.896 1.02-1.652 1.884-2.236 2.544l-.04.048-.028-.052c-.296-.496-.532-.888-.7-1.176l-.18-.312a.77.77 0 01-.056-.112s.032.032.076.1l.2.3.732 1.156h-.068l2.196-2.576.056-.064.052.068 1.828 2.556h-.084l1.916-2.4c.04-.052.08-.104.12-.148l.06-.08.064.076 2.144 2.564h-.12l1.816-2.564.056-.076.052.076c.724 1.036 1.34 1.916 1.804 2.572h-.068l.8-.936.208-.24a.398.398 0 01.052-.076zm.416-3.344c0 .044-3.224.08-7.2.08s-7.2-.036-7.2-.08c0-.044 3.224-.08 7.2-.08s7.2.036 7.2.08zm.652 10.9c0 .048-3.504.08-7.828.08s-7.824-.032-7.824-.08 3.504-.08 7.824-.08 7.828.036 7.828.08z" fill="#F5F5F5"/><path d="M85.252 25.388H0v32.308h85.252V25.388z" fill="#FAFAFA"/><path d="M78.06 33.028c0 .06-14.488.104-32.356.104-17.868 0-32.356-.044-32.356-.104s14.484-.104 32.356-.104 32.356.048 32.356.104zm0 3.824c0 .06-14.488.104-32.356.104-17.868 0-32.356-.044-32.356-.104s14.484-.104 32.356-.104 32.356.048 32.356.104zm0 3.824c0 .056-14.488.104-32.356.104-17.868 0-32.356-.048-32.356-.104 0-.056 14.484-.104 32.356-.104s32.356.044 32.356.104zm0 3.828c0 .056-14.488.104-32.356.104-17.868 0-32.356-.048-32.356-.104 0-.056 14.484-.108 32.356-.108s32.356.044 32.356.108zm0 3.816c0 .06-14.488.104-32.356.104-17.868 0-32.356-.044-32.356-.104s14.484-.104 32.356-.104 32.356.048 32.356.104z" fill="#EBEBEB"/><path d="M72.436 43.868s-.048.06-.144.168a1.67 1.67 0 01-.544.348 2.568 2.568 0 01-2.36-.436 4.36 4.36 0 01-1.112-1.4c-.312-.58-.556-1.252-.848-1.952a6.168 6.168 0 00-1.264-2.032 2.8 2.8 0 00-1.1-.672 2.912 2.912 0 00-1.356-.072 5.169 5.169 0 00-2.58 1.368c-.772.696-1.448 1.552-2.28 2.328a5.2 5.2 0 01-3.124 1.536 2.863 2.863 0 01-1.788-.476 4.271 4.271 0 01-1.248-1.436c-.644-1.112-.968-2.4-1.804-3.416a2.945 2.945 0 00-1.568-1.084 2.173 2.173 0 00-1.84.44c-.522.43-.933.979-1.2 1.6-.258.646-.45 1.316-.572 2-.127.711-.317 1.41-.568 2.088a5 5 0 01-.52.98 4.799 4.799 0 01-2.74 1.784 4.656 4.656 0 01-2.176.032 4.903 4.903 0 01-1.924-.948c-.568-.424-1.084-.892-1.624-1.312a4.742 4.742 0 00-1.748-.952 2.54 2.54 0 00-1.872.24 4.401 4.401 0 00-1.396 1.3c-.355.528-.67 1.081-.944 1.656-.27.57-.583 1.118-.936 1.64a4.4 4.4 0 01-1.34 1.276 2.751 2.751 0 01-1.752.4 2.512 2.512 0 01-1.524-.848 4.246 4.246 0 01-.836-1.46 10.24 10.24 0 01-.4-1.564c-.188-1.024-.372-2.024-.9-2.8a3.201 3.201 0 00-2.08-1.548 2.336 2.336 0 00-1.2.148c-.355.153-.68.368-.96.636-1.092 1.044-1.6 2.308-2.428 3.04-.828.732-1.6 1.112-2.172 1.092-.217 0-.432-.038-.636-.112l-.196-.088c.265.106.547.16.832.16.56 0 1.364-.352 2.116-1.108.752-.756 1.296-2 2.4-3.068a3.2 3.2 0 01.996-.664 2.445 2.445 0 011.264-.168 3.304 3.304 0 012.184 1.6c.268.42.472.879.604 1.36.14.488.232.996.328 1.508.095.521.228 1.035.4 1.536.173.514.445.99.8 1.4.363.427.867.71 1.42.8a2.543 2.543 0 001.632-.4 4.16 4.16 0 001.284-1.224c.345-.51.65-1.045.916-1.6.275-.585.595-1.148.956-1.684a4.617 4.617 0 011.46-1.36 2.72 2.72 0 012-.264 5.015 5.015 0 011.828.984c.548.428 1.06.896 1.6 1.312a4.75 4.75 0 001.844.912 4.476 4.476 0 002.084-.032 4.648 4.648 0 001.888-.944 4.05 4.05 0 00.728-.776c.202-.29.37-.603.5-.932a12.11 12.11 0 00.56-2.056c.122-.703.32-1.391.588-2.052.278-.66.715-1.24 1.272-1.688a2.369 2.369 0 012-.476 3.12 3.12 0 011.676 1.156c.868 1.056 1.2 2.368 1.82 3.444a4.07 4.07 0 001.2 1.376c.492.33 1.08.49 1.672.452a5.04 5.04 0 003.02-1.484c.82-.76 1.5-1.6 2.288-2.32a5.325 5.325 0 012.664-1.396 3.08 3.08 0 011.42.088c.434.144.828.386 1.152.708.56.603.995 1.312 1.28 2.084.288.708.528 1.372.828 1.948.258.53.623 1.002 1.072 1.384a2.548 2.548 0 002.3.46c.277-.095.527-.255.728-.468z" fill="#E0E0E0"/><path d="M76.52 42.976h-.224c-.076 0-.168-.024-.276-.036a2.693 2.693 0 01-.36-.132 6.09 6.09 0 01-1.928-1.624 15.614 15.614 0 01-.552-.672 7.295 7.295 0 00-.596-.736 3.152 3.152 0 00-1.904-.868c-.394-.04-.792.01-1.164.144-.39.16-.743.397-1.036.7a24.101 24.101 0 00-1.704 2.204 5.094 5.094 0 01-1.092 1.06 3.395 3.395 0 01-1.492.56 6.707 6.707 0 01-3.284-.616c-1.072-.448-2.1-1.06-3.256-1.456a6.053 6.053 0 00-1.796-.36 3.937 3.937 0 00-1.812.4c-1.156.556-2.06 1.564-3.148 2.4-.55.43-1.166.767-1.824 1a6.797 6.797 0 01-2.088.36 7.651 7.651 0 01-4.148-1.148 10.05 10.05 0 01-3.148-3.132c-.844-1.264-1.304-2.696-1.912-4A8.107 8.107 0 0036.66 35.2a4.86 4.86 0 00-1.64-1.268 2.944 2.944 0 00-1.976-.208 3.3 3.3 0 00-1.64 1.08 5.557 5.557 0 00-.968 1.7 13.115 13.115 0 00-.508 1.884c-.136.636-.256 1.264-.428 1.88a8.453 8.453 0 01-.704 1.748 7.944 7.944 0 01-2.376 2.68 6.956 6.956 0 01-3.1 1.252 6.512 6.512 0 01-3.064-.352 6.02 6.02 0 01-3.692-3.624c-.256-.744-.4-1.46-.568-2.1a4.825 4.825 0 00-.76-1.636A2.616 2.616 0 0013.1 37.14c-.287.029-.562.13-.8.292a1.42 1.42 0 01.8-.336 2.66 2.66 0 012.204 1.088c.36.5.62 1.063.768 1.66.192.644.328 1.36.584 2.088a5.916 5.916 0 003.636 3.524 6.37 6.37 0 002.992.336 6.834 6.834 0 003.02-1.236 7.747 7.747 0 002.312-2.628c.6-1.064.852-2.308 1.108-3.58a13.58 13.58 0 01.512-1.912 5.762 5.762 0 011.016-1.768 3.517 3.517 0 011.74-1.144 3.136 3.136 0 012.112.22c.66.31 1.244.76 1.712 1.32a8.32 8.32 0 011.148 1.868c.616 1.328 1.072 2.74 1.9 4A9.842 9.842 0 0042.944 44a7.476 7.476 0 004.032 1.12 6.638 6.638 0 002.028-.348 6.274 6.274 0 001.768-.964c1.068-.8 2-1.828 3.2-2.4a4.097 4.097 0 011.9-.4c.633.03 1.258.157 1.852.376 1.176.4 2.208 1.028 3.264 1.468.998.47 2.099.683 3.2.616.51-.062 1-.243 1.428-.528.402-.287.76-.632 1.06-1.024a23.92 23.92 0 011.728-2.208 3.156 3.156 0 011.084-.72 2.802 2.802 0 011.2-.144c.74.07 1.433.392 1.964.912.216.237.416.489.6.752.184.24.364.468.544.676a6.235 6.235 0 001.88 1.64c.263.123.554.176.844.152zM8.904 33.22c-.273.1-.566.136-.856.104a1.875 1.875 0 01-.856-.104c.273-.1.566-.136.856-.104.29-.032.583.003.856.104zm0 3.632a1.815 1.815 0 01-.856.104 1.815 1.815 0 01-.856-.104c.273-.1.566-.136.856-.104.29-.032.583.003.856.104zm0 3.652a1.817 1.817 0 01-.856.104 1.817 1.817 0 01-.856-.104c.273-.1.566-.136.856-.104.29-.032.583.003.856.104zm0 3.6c-.273.1-.566.136-.856.104a1.878 1.878 0 01-.856-.104c.273-.103.566-.139.856-.104.29-.035.583.001.856.104zm0 3.648c-.273.1-.566.136-.856.104a1.875 1.875 0 01-.856-.104c.273-.103.566-.139.856-.104.29-.035.583.001.856.104zm7.864 4.668a7.2 7.2 0 01-1.708.104 7.196 7.196 0 01-1.712-.104 7.196 7.196 0 011.712-.104 7.2 7.2 0 011.708.104zm15.092 0a7.233 7.233 0 01-1.712.104 7.233 7.233 0 01-1.712-.104 7.238 7.238 0 011.712-.104 7.238 7.238 0 011.712.104zm15.088 0a7.233 7.233 0 01-1.712.104 7.233 7.233 0 01-1.712-.104 7.238 7.238 0 011.712-.104 7.238 7.238 0 011.712.104zm15.088 0a7.196 7.196 0 01-1.712.104 7.2 7.2 0 01-1.708-.104 7.2 7.2 0 011.708-.104 7.196 7.196 0 011.712.104zm15.092 0a14.14 14.14 0 01-3.424 0 14.15 14.15 0 013.424 0z" fill="#E0E0E0"/><path d="M193.644 108.628h-69.4v42.956h69.4v-42.956z" fill="#FAFAFA"/><path d="M176.892 139.704c-4.8-1.824-10.348 3.22-15.064 1.164-2.748-1.2-4-4.304-5.336-6.98-1.336-2.676-3.664-5.496-6.644-5.2-2.98.296-5.432 3.792-8.336 2.956-1.828-.532-2.74-2.56-3.2-4.4-.46-1.84-.776-3.888-2.172-5.2-1.396-1.312-4.3-.952-4.52.94v22.772h54.276s-7.34-5.44-9.004-6.052z" fill="#EBEBEB"/><path d="M187.344 145.756c0 .048-13.156.088-29.38.088-16.224 0-29.38-.04-29.38-.088 0-.048 13.152-.088 29.38-.088s29.38.036 29.38.088zm0-9.944c0 .048-13.156.088-29.38.088-16.224 0-29.38-.04-29.38-.088 0-.048 13.152-.092 29.38-.092s29.38.04 29.38.092zm0-9.948c0 .048-13.156.088-29.38.088-16.224 0-29.38-.04-29.38-.088 0-.048 13.152-.088 29.38-.088s29.38.04 29.38.088zm0-9.452c0 .048-13.156.088-29.38.088-16.224 0-29.38-.04-29.38-.088 0-.048 13.152-.088 29.38-.088s29.38.04 29.38.088z" fill="#E0E0E0"/><path d="M249.776 6.108H198.12v46.216h51.656V6.108z" fill="#FAFAFA"/><path d="M249.78 52.324v-3.336c0-2.168 0-5.34-.032-9.38 0-8.076-.032-19.6-.06-33.5l.12.116-51.656.02.14-.136v46.216l-.124-.124 37.364.064 10.536.032h3.768-3.708l-10.512.032-37.44.06h-.12V5.912h.14l51.656.02h.116v.172c-.024 13.916-.048 25.48-.06 33.572 0 4.028-.024 7.2-.032 9.356v2.452c0 .56-.096.84-.096.84z" fill="#E0E0E0"/><path d="M217.928 14.32c0 .076-2.72.136-6.072.136s-6.072-.06-6.072-.136c0-.076 2.716-.14 6.072-.14s6.072.06 6.072.14zm21.888 3.468c0 .076-7.468.14-16.684.14-9.216 0-16.696-.064-16.696-.14 0-.076 7.468-.136 16.68-.136s16.7.052 16.7.136zm-31.768 5.88h-2.176v2.176h2.176v-2.176zm5.356 0h-2.176v2.176h2.176v-2.176zm5.456-.1h-2.176v2.176h2.176v-2.176zm5.26.1h-2.176v2.176h2.176v-2.176zm5.356 0H227.3v2.176h2.176v-2.176zm5.356 0h-2.176v2.176h2.176v-2.176z" fill="#E0E0E0"/><path d="M240.192 23.668h-2.176v2.176h2.176v-2.176zm-32.144 4.624h-2.176v2.176h2.176v-2.176z" fill="#EBEBEB"/><path d="M213.404 28.292h-2.176v2.176h2.176v-2.176z" fill="#E0E0E0"/><path d="M218.76 28.292h-2.176v2.176h2.176v-2.176z" fill="#EBEBEB"/><path d="M224.12 28.292h-2.176v2.176h2.176v-2.176zm5.356 0H227.3v2.176h2.176v-2.176zm5.456-.096h-2.176v2.176h2.176v-2.176zm5.26.096h-2.176v2.176h2.176v-2.176zm-32.144 4.628h-2.176v2.176h2.176V32.92zm5.456-.1h-2.176v2.176h2.176V32.82zm5.256.1h-2.176v2.176h2.176V32.92z" fill="#E0E0E0"/><path d="M224.12 32.92h-2.176v2.176h2.176V32.92z" fill="#EBEBEB"/><path d="M229.476 32.92H227.3v2.176h2.176V32.92zm5.356 0h-2.176v2.176h2.176V32.92zm5.36 0h-2.176v2.176h2.176V32.92zm-32.144 4.628h-2.176v2.176h2.176v-2.176zm5.356 0h-2.176v2.176h2.176v-2.176zm5.356 0h-2.176v2.176h2.176v-2.176zm5.456-.1h-2.176v2.176h2.176v-2.176zm5.26.1H227.3v2.176h2.176v-2.176z" fill="#E0E0E0"/><path d="M234.832 37.548h-2.176v2.176h2.176v-2.176z" fill="#EBEBEB"/><path d="M240.192 37.548h-2.176v2.176h2.176v-2.176zm-32.144 4.624h-2.176v2.176h2.176v-2.176z" fill="#E0E0E0"/><path d="M213.404 42.172h-2.176v2.176h2.176v-2.176z" fill="#EBEBEB"/><path d="M218.76 42.172h-2.176v2.176h2.176v-2.176zm5.36 0h-2.176v2.176h2.176v-2.176zm5.356 0H227.3v2.176h2.176v-2.176zm5.456-.096h-2.176v2.176h2.176v-2.176zm5.26.096h-2.176v2.176h2.176v-2.176z" fill="#E0E0E0"/><path d="M278 177.08c0 .056-61.244.104-136.776.104-75.532 0-136.8-.048-136.8-.104 0-.056 61.228-.104 136.8-.104S278 177.024 278 177.08z" fill="#263238"/><path d="M177.704 10.288s6.116.084 3.5 12.196c-2.616 12.112-2.28 14.4-2.28 19.2a8.358 8.358 0 004.524 7.62h-8.296l-6.1-28.276v-10.74h8.652z" fill="#E0E0E0"/><path d="M179.504 105.62H95.748l.748-81.94 78.888-4.124 4.12 86.064z" fill="#E0E0E0"/><path d="M176.628 103.504H92.872l.748-81.94 81.324-1.588 1.684 83.528z" fill="#EBEBEB"/><path d="M174.892 101.22H91.308V19.28l83.636-.196-.052 82.136z" fill="#FAFAFA"/><path d="M174.892 101.22c0-.764 0-32.868-.04-82.136l.092.092-83.504.208h-.132l.104-.104v81.94l-.088-.088 83.6.088-83.6.092h-.088V19.176h.232l83.508-.18h.088v.088c-.116 49.268-.172 81.372-.172 82.136z" fill="#263238"/><path d="M174.944 18.864c-4.32-5.028.692-8.748 2.4-8.828l-79.6-.044a6.704 6.704 0 00-6.612 7.848c.08.421.188.837.324 1.244" fill="#F5F5F5"/><path d="M177.052 49.304h1.68l4.716-.028v.124a5.11 5.11 0 01-1.924-1.1 6.27 6.27 0 01-1.432-2.048 13.677 13.677 0 01-.86-2.616 30.18 30.18 0 01-.292-1.432 7.553 7.553 0 01-.116-.748 5.981 5.981 0 01-.056-.768 27.788 27.788 0 01.104-3.2c.08-1.088.204-2.204.336-3.344.272-2.276.612-4.648 1.016-7.08.168-1.036.376-2.064.548-3.068.172-1.004.3-2 .428-2.992s.232-1.952.348-2.9c.052-.472.116-.94.128-1.4a8.522 8.522 0 00-.076-1.364 8.25 8.25 0 00-.764-2.54 4.992 4.992 0 00-1.54-1.896 3.008 3.008 0 00-2.176-.484 3.947 3.947 0 00-1.936.8 4.789 4.789 0 00-1.2 1.496 6.412 6.412 0 00-.584 1.628 4.26 4.26 0 00.316 2.712c.245.537.539 1.05.88 1.532l.272.372c.06.084.088.132.088.132s-.04-.036-.108-.116l-.284-.364a8.317 8.317 0 01-.92-1.524 4.33 4.33 0 01-.36-2.768 6.51 6.51 0 01.584-1.664 4.912 4.912 0 011.236-1.552 4.153 4.153 0 012-.848 3.175 3.175 0 012.296.504 5.136 5.136 0 011.6 1.964 8.35 8.35 0 01.768 2.58c.064.462.092.93.084 1.396 0 .476-.076.944-.128 1.42a149.01 149.01 0 01-.344 2.904c-.128.988-.26 2-.424 3-.164 1-.38 2.028-.544 3.068-.4 2.428-.748 4.8-1.024 7.068a87.395 87.395 0 00-.34 3.336 28.49 28.49 0 00-.116 3.16c.003.251.02.502.052.752.02.248.072.496.112.74.088.484.18.96.288 1.424.189.889.468 1.756.832 2.588a6.167 6.167 0 001.388 2 4.952 4.952 0 001.864 1.084l.4.128h-.4l-4.716-.028h-1.568l-.132-.04zM125.504 12.54c.032.024-.208.34-.444.924-.136.34-.236.692-.3 1.052a6.071 6.071 0 00-.064 1.34c.039.446.128.886.268 1.312.116.348.269.684.456 1 .324.536.608.8.58.844-.028.044-.088-.056-.216-.18a3.334 3.334 0 01-.488-.588 4.678 4.678 0 01-.512-1.012 5.075 5.075 0 01-.212-2.748c.074-.373.193-.735.352-1.08.108-.233.242-.454.4-.656.1-.14.168-.216.18-.208z" fill="#263238"/><path d="M123.516 9.704a8.363 8.363 0 00-1.056 1.292 5.291 5.291 0 001.332 7.144c.453.322.937.6 1.444.828a1.867 1.867 0 01-.44-.12 4.848 4.848 0 01-1.1-.584 5.288 5.288 0 01-2.211-3.397 5.285 5.285 0 01.851-3.963c.224-.347.493-.663.8-.94.114-.104.242-.191.38-.26zM168.5 73.672h-1.028l-2.956.02-10.88.052-35.844.032h-15.56v-.1c0-10.24.028-19.048.04-25.304 0-3.12.02-5.6.028-7.312v-2.624 2.624c0 1.712 0 4.192.028 7.312 0 6.256.024 15.064.04 25.304l-.1-.1h15.46l35.844.032 10.864.032 2.956.02h.768l.34.012z" fill="#263238"/><path d="M114.408 64.964h-6.684v6.684h6.684v-6.684zm9.796-4.776h-6.684v11.46h6.684v-11.46zm9.836-5.428h-6.684v16.888h6.684V54.76zm9.536-6.04h-6.684v22.928h6.684V48.72zm9.756-7.732h-6.684v30.66h6.684v-30.66zm9.684-5.9h-6.684v36.244h6.684V35.088z" fill="#B75400"/><path d="M107.724 58.104a.417.417 0 01.084-.068l.26-.18 1.02-.68 3.828-2.524 13.26-8.668.156-.1v3.176l-.16-.084 5.224-3.504 18.44-12.32 5.6-3.716 1.528-1 .4-.256.14-.08a.876.876 0 01-.128.096l-.4.276-1.508 1.032-5.544 3.8-18.4 12.372-5.228 3.5-.16.108v-3.2l.156.084-13.304 8.604-3.86 2.476-1.036.652-.268.168-.1.036z" fill="#263238"/><path d="M157.512 30.94a3.455 3.455 0 01-.072-.824c0-.512-.028-1.224-.032-2l.104.104h-.256c-.856 0-1.632 0-2.192-.032a4.197 4.197 0 01-.908-.072c.299-.06.603-.085.908-.076.56 0 1.336-.028 2.192-.028h.36v.092c0 .8 0 1.508-.032 2 .01.28-.014.561-.072.836zM122.2 79.06c0 .06-2.064.104-4.612.104s-4.612-.044-4.612-.104 2.064-.104 4.612-.104 4.612.048 4.612.104zm-4.736 3.16a5.646 5.646 0 010-2.16 5.646 5.646 0 010 2.16zm11.304 1.084c0 .056-5.548.104-12.4.104s-12.4-.048-12.4-.104c0-.056 5.544-.104 12.4-.104 6.856 0 12.4.044 12.4.104zm-24.604 3.072c-.139-.993-.139-2 0-2.992.139.992.139 2 0 2.992zm8.812-.332a8.009 8.009 0 010-2.576 8.009 8.009 0 010 2.576z" fill="#263238"/><path d="M122.036 86.208a9.614 9.614 0 010-2.824 9.614 9.614 0 010 2.824zm6.896 0a10.192 10.192 0 010-2.908c.139.964.139 1.944 0 2.908zm-21.696 1c-.994.103-1.993.138-2.992.104a21.882 21.882 0 01-2.992-.104c.994-.105 1.993-.14 2.992-.104a21.142 21.142 0 012.992.104zm7.652 0a25.17 25.17 0 01-4.572 0 25.17 25.17 0 014.572 0zm9.724.248a28.95 28.95 0 01-4.904 0 28.971 28.971 0 014.904 0zm7.896-.416a32.996 32.996 0 01-5.236 0 33.02 33.02 0 015.236 0zm-28.26 3.064a3.7 3.7 0 010-1.744 3.7 3.7 0 010 1.744z" fill="#263238"/><path d="M109.936 90.104c0 .056-2.42.104-5.4.104-2.98 0-5.404-.048-5.404-.104 0-.056 2.42-.104 5.404-.104s5.4.056 5.4.104z" fill="#263238"/><path d="M109.936 92.608a7.498 7.498 0 010-2.492 7.498 7.498 0 010 2.492zm-10.804.168a8.554 8.554 0 010-2.66 8.554 8.554 0 010 2.66zm23.124-2.672a3.7 3.7 0 010-1.744 3.7 3.7 0 010 1.744z" fill="#263238"/><path d="M135.392 90.104c0 .056-4.088.104-9.128.104s-9.124-.048-9.124-.104c0-.056 4.084-.104 9.124-.104 5.04 0 9.128.056 9.128.104z" fill="#263238"/><path d="M127.944 92.608a7.498 7.498 0 010-2.492 7.498 7.498 0 010 2.492zm7.82 0a7.498 7.498 0 010-2.492 7.498 7.498 0 010 2.492zm-18.624.168a8.536 8.536 0 010-2.66 8.536 8.536 0 010 2.66zm-15.88 1.532c-1.415.139-2.84.139-4.256 0a21.818 21.818 0 014.256 0zm10.584-.304a25.523 25.523 0 01-4.604 0 25.541 25.541 0 014.604 0zm7.644 0a19.781 19.781 0 01-4.052 0 19.795 19.795 0 014.052 0zm10.308 0a23.282 23.282 0 01-4.4 0 23.282 23.282 0 014.4 0zm8.24-.276a23.997 23.997 0 01-4.464 0 24.015 24.015 0 014.464 0zm30.4 1.62h-28.212V77.876h28.212v17.472zm-28.196-.02h28.196V77.896h-28.192l-.004 17.432z" fill="#263238"/><path d="M161.636 90.504c-1.956-.74-4.204 1.308-6.124.472-1.112-.484-1.62-1.748-2.168-2.832-.548-1.084-1.488-2.236-2.696-2.108-1.208.128-2.208 1.54-3.388 1.2-.744-.216-1.112-1.04-1.3-1.792-.188-.752-.316-1.58-.884-2.108-.568-.528-1.744-.4-1.836.4v9.252h22.052s-2.992-2.228-3.656-2.484z" fill="#B75400"/><path d="M165.868 92.972c0 .02-5.344.036-11.936.036s-11.936 0-11.936-.036 5.344-.036 11.936-.036 11.936.016 11.936.036z" fill="#E0E0E0"/><path d="M165.868 88.932c0 .02-5.344.036-11.936.036s-11.936 0-11.936-.036 5.344-.036 11.936-.036 11.936.008 11.936.036zm0-4.028s-5.344.032-11.936.032-11.936 0-11.936-.032 5.344-.036 11.936-.036 11.936.004 11.936.036zm0-3.856s-5.344.036-11.936.036-11.936 0-11.936-.036 5.344-.036 11.936-.036 11.936.016 11.936.036zM102.352 25.02h.152a2.3 2.3 0 01.44.04c.232.04.456.118.664.228.278.148.519.356.708.608.234.306.394.662.468 1.04.063.44.006.89-.164 1.3a3.84 3.84 0 01-.324.64c-.133.21-.255.425-.364.648a5.471 5.471 0 00-.488 1.484v.036h-.036l-1.044-.024-1.096-.028h-.032v-.04a3.125 3.125 0 00-.452-1.464c-.116-.224-.248-.432-.372-.644a6.348 6.348 0 01-.344-.62 2.036 2.036 0 01-.116-1.296c.076-.373.23-.726.452-1.036a2 2 0 01.7-.588c.208-.105.431-.18.66-.224a2.56 2.56 0 01.436-.056h.152-.152a2.74 2.74 0 00-.428.068 2.617 2.617 0 00-.648.232 2.03 2.03 0 00-.692.588 2.679 2.679 0 00-.428 1.02c-.1.419-.06.859.116 1.252.103.21.218.415.344.612.124.208.256.42.376.644.278.455.436.972.46 1.504l-.036-.044 1.096.028 1.044.028-.04.032a5.661 5.661 0 01.496-1.504 6.79 6.79 0 01.372-.652c.126-.199.233-.409.32-.628.171-.4.229-.838.168-1.268a2.502 2.502 0 00-.444-1.016 2.223 2.223 0 00-.688-.616 2.35 2.35 0 00-.648-.236 2.94 2.94 0 00-.436-.052h-.116l-.036.004z" fill="#263238"/><path d="M102.656 30.904a.216.216 0 000-.036v-.096c0-.088-.024-.216-.044-.4-.032-.332-.084-.8-.108-1.404v-.972c.012-.182.06-.36.14-.524a.826.826 0 01.42-.4.54.54 0 01.572.136.402.402 0 01.112.292.518.518 0 01-.12.3.766.766 0 01-.264.196 1.417 1.417 0 01-.316.092 4.208 4.208 0 01-1.344 0 1.063 1.063 0 01-.312-.104.796.796 0 01-.26-.2.616.616 0 01-.144-.288.497.497 0 01.052-.312.437.437 0 01.232-.208.375.375 0 01.3.028.545.545 0 01.216.2c.05.082.084.173.1.268.026.179.037.36.032.54v2.892a.171.171 0 000-.032v-.5c0-.332 0-.8-.024-1.404v-.972a3.1 3.1 0 00-.032-.536.735.735 0 00-.096-.256.525.525 0 00-.208-.188.335.335 0 00-.276-.024.444.444 0 00-.26.48.613.613 0 00.136.276c.147.157.343.26.556.292.219.04.441.06.664.06.223.005.445-.013.664-.052a1.16 1.16 0 00.312-.088.729.729 0 00.252-.184.49.49 0 00.112-.28.351.351 0 00-.104-.272.51.51 0 00-.536-.128.775.775 0 00-.4.376c-.081.16-.129.334-.14.512 0 .172 0 .34-.02.504-.02.164 0 .316 0 .464.02.592.068 1.072.096 1.4 0 .164.028.292.04.4v.152zm-1.392 0v1.268l.68.848h-.036.824-.032l.428-.484.216-.24v.032c0-.484 0-.94.024-1.356l.044.044-1.54-.048h-.608a.542.542 0 01.144 0h2.036v1.4l-.216.244-.428.48h-.848l-.716-.884c0-.364.02-.676.028-.94a2.212 2.212 0 010-.364z" fill="#263238"/><path d="M103.34 32.192l-.08-.036a1.632 1.632 0 00-.208-.092 2.073 2.073 0 00-1.48-.016 1.895 1.895 0 00-.212.088l-.08.036a.312.312 0 01.072-.048l.212-.1a2.08 2.08 0 01.748-.14 2.023 2.023 0 01.956.26.292.292 0 01.072.048zm.012-.328l-.076-.04-.212-.092a2.224 2.224 0 00-.74-.144 2.15 2.15 0 00-.74.132 1.858 1.858 0 00-.212.088l-.076.032.072-.044c.066-.04.136-.073.208-.1a2 2 0 01.752-.14 2.022 2.022 0 01.952.26.29.29 0 01.072.048zm-.008-.316a.368.368 0 01-.076-.036 2.08 2.08 0 00-1.692-.092c-.088.032-.16.064-.212.088l-.076.036.072-.048a1.953 1.953 0 01.96-.236 1.972 1.972 0 01.956.256l.068.032z" fill="#263238"/><path d="M110.984 40.16s-.8 7.38.228 11.42l9.86-.432s-2.112-7.276-.8-10.5l-9.288-.488z" fill="#EBEBEB"/><path d="M111.024 39.924s.068 7.968.472 10.4l10-.472s-.88-7.832-.54-9.924l-9.932-.004z" fill="#B75400"/><path d="M119.44 43.272c0 .036-1.496.156-3.348.268-1.852.112-3.352.172-3.356.132-.004-.04 1.496-.156 3.348-.268 1.852-.112 3.356-.172 3.356-.132zm.004 1.684c0 .04-1.496.16-3.348.268-1.852.108-3.356.172-3.356.136 0-.036 1.496-.156 3.348-.268 1.852-.112 3.352-.188 3.356-.136zm-1.7 1.66a2.459 2.459 0 01-.556.08 44.28 44.28 0 01-2.7.16 2.147 2.147 0 01-.564 0c.181-.05.368-.077.556-.08.348-.032.824-.068 1.352-.1a39.1 39.1 0 011.352-.064 2.2 2.2 0 01.56.004z" fill="#fff"/><path d="M133.804 26.988c0 .06-5.844.104-13.052.104-7.208 0-13.052-.044-13.052-.104s5.844-.104 13.052-.104c7.208 0 13.052.048 13.052.104zm-16.516 2.38c0 .06-2.192.104-4.896.104-2.704 0-4.896-.044-4.896-.104s2.192-.104 4.896-.104c2.704 0 4.896.04 4.896.104zm5.2 0a17.197 17.197 0 01-3.776 0 17.197 17.197 0 013.776 0zm54.564 25.096a.354.354 0 010-.092c0-.072 0-.16-.024-.268l-.084-1.028c-.06-.916-.148-2.204-.256-3.788l-.78-12.508c-.304-4.876-.528-9.292-.716-12.512-.08-1.6-.144-2.876-.192-3.792 0-.432-.032-.776-.04-1.032v-.268a.237.237 0 010-.092.706.706 0 010 .092l.024.268c.02.252.048.596.08 1.028.064.916.152 2.204.26 3.788.2 3.2.476 7.632.776 12.508.3 4.876.532 9.292.716 12.508.084 1.6.148 2.88.196 3.796 0 .432.032.776.04 1.032v.268a.237.237 0 010 .092zm-2.108-44.428h-13.152l-31.756.004-32.86-.104A7.912 7.912 0 0093 12.54a7.7 7.7 0 00-1.624 3.352 8.14 8.14 0 00-.084 2.964c.013.069.022.138.028.208a5.263 5.263 0 01-.14-.8 7.87 7.87 0 01.12-2.376 7.732 7.732 0 011.6-3.404 8 8 0 014.232-2.672l32.864.04 31.74.1 9.624.056 2.616.024h.68l.288.004z" fill="#263238"/><path d="M239.184 135.468a21.912 21.912 0 0120.892-5.732 38.052 38.052 0 01-21.14 6.604m7.336-25.964c-.872-6.156 1.52-13.08 6.128-17.556.152 6.1-2.4 12.968-6.128 17.556zm-3.688 11.632a32.857 32.857 0 0115.096-14.428 20.738 20.738 0 01-15.152 14.492m-.708 2.176c3.72.108 7.484-.024 11.08-.976s7.04-2.78 9.432-5.628a37.015 37.015 0 00-20.456 6.244m1.832-7.028c-1.888-7.076-5-11.968-10.56-15.932a14.71 14.71 0 0010.56 15.932m-14.036 12.2a10.474 10.474 0 016.364-9.7c-.312 3.652-3.2 7.88-6.364 9.7zm-1.776-5.964a15.605 15.605 0 00-10.22-13.312c1.284 5.912 4.7 10.832 10.22 13.312zm2.676 10.584c-1.308-1.876-3.448-3.044-5.664-3.624-2.216-.58-4.528-.628-6.8-.676a15.935 15.935 0 0012.292 5.124m2.836 14.252a17.458 17.458 0 00-21.32 10.1c7.744-1.472 15.388-4.912 21.32-10.1zm8.496-5.24c-1.288 3.804-1.04 8.4 1.82 11.676a13.951 13.951 0 00-1.82-11.676zm5.024-2.112a14.302 14.302 0 007.9 11.6.9.9 0 00.7.116c.348-.144.4-.62.336-.992-.56-4.872-4.168-9.6-8.936-10.732m3.28-.492a11.74 11.74 0 008.551 3.764 11.74 11.74 0 008.589-3.676c-5.448-.596-11.736-.992-17.14-.088z" fill="#B75400"/><path d="M250.836 97.356a1 1 0 01-.052.16l-.164.464c-.156.4-.376 1.004-.656 1.764s-.632 1.704-1.024 2.8c-.2.544-.4 1.128-.632 1.748-.232.62-.44 1.28-.68 1.972-.964 2.756-2.036 6.068-3.2 9.756-1.164 3.688-2.328 7.768-3.5 12.072a336.019 336.019 0 00-3.06 12.196c-.876 3.768-1.6 7.172-2.108 10.044-.132.72-.264 1.404-.4 2.048-.136.644-.216 1.264-.312 1.836-.196 1.144-.368 2.128-.48 2.936-.112.808-.22 1.424-.284 1.86-.036.208-.06.368-.08.484a.905.905 0 01-.036.164.898.898 0 010-.164l.06-.488c.06-.436.14-1.064.248-1.868.108-.804.26-1.796.444-2.944.092-.576.192-1.2.296-1.836.104-.636.244-1.336.372-2.052.512-2.88 1.228-6.288 2.064-10.064.836-3.776 1.888-7.896 3.044-12.208 1.156-4.312 2.376-8.38 3.524-12.072a249.11 249.11 0 013.236-9.748l.696-1.968.684-1.744c.4-1.092.752-2.028 1.06-2.8.308-.772.528-1.34.692-1.748.08-.192.14-.344.184-.456.018-.05.039-.097.064-.144z" fill="#263238"/><path d="M220.928 112.94a.548.548 0 01.092.088l.264.276a38.981 38.981 0 014.168 5.36 28.689 28.689 0 013.352 7.176c.9 2.856 1.456 6.104 2 9.496 1.108 6.8 2.468 12.876 3.452 17.276.496 2.192.896 3.968 1.18 5.2.132.604.236 1.08.312 1.416l.076.372a.62.62 0 01.02.128.78.78 0 01-.04-.124l-.096-.364c-.084-.336-.204-.8-.352-1.412l-1.244-5.2c-1.02-4.4-2.4-10.48-3.512-17.28-.556-3.392-1.108-6.628-2-9.472a28.973 28.973 0 00-3.296-7.152 40.37 40.37 0 00-3.144-4.304c-.4-.488-.72-.856-.936-1.108l-.248-.288c-.024-.044-.052-.08-.048-.084zm30.736 27.736a.653.653 0 01-.196.036l-.564.064-.4.04-.468.088c-.348.052-.744.104-1.172.196l-.676.136-.724.184c-.504.112-1.024.3-1.58.468-1.19.412-2.345.92-3.452 1.52a19.335 19.335 0 00-3.092 2.148c-.42.357-.821.736-1.2 1.136a11.97 11.97 0 00-.94 1.084c-.249.307-.482.628-.696.96a6.443 6.443 0 00-.476.756l-.288.488c-.068.112-.108.168-.116.164a.87.87 0 01.076-.184c.072-.136.156-.304.256-.508.133-.27.284-.53.452-.78.205-.341.431-.67.676-.984.286-.39.596-.761.928-1.112.378-.411.779-.801 1.2-1.168a18.716 18.716 0 013.116-2.184 22.076 22.076 0 013.492-1.52c.56-.164 1.088-.344 1.6-.452l.736-.172.68-.124c.436-.084.836-.128 1.2-.168l.484-.056h.4l.568-.024a.956.956 0 01.176-.032zm1.572-27.604a2.846 2.846 0 01-.4.376l-1.124.976c-.952.8-2.276 1.928-3.748 3.148-1.472 1.22-2.8 2.316-3.792 3.1l-1.164.924a2.611 2.611 0 01-.444.316c.12-.14.254-.268.4-.38l1.12-.972c.952-.8 2.28-1.928 3.752-3.148 1.472-1.22 2.8-2.316 3.784-3.104l1.164-.92c.138-.122.29-.228.452-.316zm1.32 7.204c0 .056-2.844.952-6.4 2-3.556 1.048-6.432 1.848-6.448 1.796-.016-.052 2.84-.952 6.4-2 3.56-1.048 6.432-1.848 6.448-1.796zm-10.564-2.868a2.463 2.463 0 01-.296-.4l-.752-1.152a65.868 65.868 0 00-2.624-3.692 72.535 72.535 0 00-2.872-3.504l-.904-1.032a2.174 2.174 0 01-.316-.4c.136.101.262.215.376.34.232.228.56.564.956.992a46.34 46.34 0 012.928 3.472 46.445 46.445 0 012.58 3.74c.304.496.544.904.7 1.2.09.137.165.283.224.436zm-9.932 4a9.34 9.34 0 01-.672 1.104c-.428.672-1.008 1.6-1.6 2.66a79.097 79.097 0 00-1.468 2.744 9.195 9.195 0 01-.604 1.14c.12-.414.278-.815.472-1.2.328-.728.8-1.72 1.42-2.8.62-1.08 1.2-2 1.664-2.636a6.59 6.59 0 01.788-1.012z" fill="#263238"/><path d="M230.66 133.876c0 .028-.56-.24-1.456-.64-.896-.4-2.14-.928-3.548-1.424a42.756 42.756 0 00-3.66-1.1c-.948-.24-1.544-.376-1.536-.4.143-.001.285.014.424.044.272.04.664.116 1.144.22 1.252.273 2.487.623 3.696 1.048a31.76 31.76 0 013.544 1.484c.44.22.8.4 1.032.544.129.059.25.135.36.224zm2.676 14.904a.778.778 0 01-.176.06l-.516.128-1.904.44c-2.097.44-4.171.988-6.212 1.64a27.6 27.6 0 00-5.796 2.724 21.37 21.37 0 00-1.6 1.112c-.18.155-.373.296-.576.42a.842.842 0 01.128-.132c.092-.084.22-.208.4-.356a16.99 16.99 0 011.564-1.172 25.342 25.342 0 015.812-2.8 51.803 51.803 0 016.252-1.6l1.916-.372c.233-.051.47-.082.708-.092zm9.676 3.672c-.06 0-.4-2-.76-4.48-.36-2.48-.612-4.504-.556-4.512.056-.008.4 2 .76 4.48.36 2.48.612 4.504.556 4.512zm10.072-3.656c-.325-.34-.629-.701-.908-1.08-.544-.676-1.3-1.6-2.152-2.628-.852-1.028-1.644-1.916-2.216-2.572a9.72 9.72 0 01-.904-1.08c.106.071.202.154.288.248.176.168.424.42.724.736a51.985 51.985 0 012.268 2.536c.856 1.02 1.6 1.968 2.108 2.672.26.348.464.636.6.84.082.098.146.209.192.328z" fill="#263238"/><path d="M226.424 158.136v4.98h1.248l4.424 13.964h9.812l4.284-13.828 1.66-.136v-4.98h-21.428z" fill="#455A64"/><path d="M247.024 163.252c0 .06-4.336.104-9.676.104s-9.68-.044-9.68-.104 4.332-.104 9.68-.104 9.676.048 9.676.104zm7.056-32.016a4.543 4.543 0 01-.628.168l-1.724.4c-1.452.36-3.444.904-5.6 1.632a73.352 73.352 0 00-5.452 2.088l-1.624.712a4.203 4.203 0 01-.616.268c.179-.124.369-.231.568-.32.372-.192.92-.456 1.6-.772a57.253 57.253 0 0111.088-3.728 43.75 43.75 0 011.736-.352c.214-.05.432-.082.652-.096z" fill="#263238"/><path d="M243.764 171.008c0 .056-3.04.104-6.8.104s-6.8-.048-6.8-.104c0-.056 3.04-.104 6.8-.104s6.8.048 6.8.104zm.384-1.156c0 .06-3.224.104-7.2.104s-7.2-.044-7.2-.104 3.224-.104 7.2-.104 7.2.048 7.2.104z" fill="#FAFAFA"/><path d="M184.152 164.38l-.652 8.212s-8.112 2.608-8.16 4.128l15.872.208.468-12.564-7.528.016z" fill="#B75400"/><path d="M188.392 171.756a.653.653 0 01.472.728.625.625 0 01-.716.472.684.684 0 01-.512-.772.647.647 0 01.8-.4m2.776 5.144l-.032-1.272-15.032.092s-.86.512-.836 1.008l15.9.172z" fill="#EBEBEB"/><path d="M183.236 172.504c0 .076.4.1.8.34.4.24.604.556.672.524.068-.032-.056-.48-.532-.76-.476-.28-.94-.16-.94-.104zm-1.64.756c0 .076.324.196.596.516.272.32.36.664.44.66.08-.004.112-.448-.236-.84-.348-.392-.8-.412-.8-.336zm-.888 2.02c.072 0 .168-.376-.044-.8-.212-.424-.58-.576-.608-.508-.028.068.2.284.368.632.168.348.208.672.284.676zm2.616-4.636c.036.068.4-.048.828-.032.428.016.8.144.824.076.024-.068-.3-.336-.8-.348-.5-.012-.892.244-.852.304zm-.088-1.652c.264.065.541.055.8-.028.287-.058.565-.152.828-.28.155-.075.305-.16.448-.256.088-.054.167-.12.236-.196a.341.341 0 000-.4.42.42 0 00-.344-.168c-.101.003-.2.02-.296.052a2.971 2.971 0 00-.492.184 2.696 2.696 0 00-.716.504c-.36.352-.476.644-.448.66.028.016.208-.224.572-.52.215-.168.45-.309.7-.42.146-.062.298-.113.452-.152.164-.052.308-.056.356 0 .048.056 0 .04 0 .092a.966.966 0 01-.172.14 3.952 3.952 0 01-1.16.572 5.78 5.78 0 00-.764.216z" fill="#263238"/><path d="M183.352 169.1c.143-.232.208-.504.184-.776a2.585 2.585 0 00-.132-.868 2.975 2.975 0 00-.22-.476.654.654 0 00-.52-.4.368.368 0 00-.324.232 1.135 1.135 0 00-.072.292 1.72 1.72 0 000 .536c.055.292.18.567.364.8.324.4.648.484.656.46.008-.024-.252-.184-.5-.572a1.77 1.77 0 01-.276-1.2c0-.168.08-.308.144-.292.064.016.216.12.288.252.081.136.15.277.208.424.096.257.157.526.18.8.052.484-.024.776.02.788z" fill="#263238"/><path d="M218.472 163.012l1.832 9.6 3.64 7.168a.996.996 0 01.048.795 1.005 1.005 0 01-1.014.655.985.985 0 01-.45-.146c-1.756-1.084-8.2-5.1-8.296-5.812-.108-.8-2.608-10-2.608-10l6.848-2.26z" fill="#B75400"/><path d="M223.444 181.144l-9.352-6.524.088.4c.074.35.272.662.556.88.76.584 2.892 2.144 7.764 5.18a1.003 1.003 0 00.944.06v.004zm-8.048-9.336a.603.603 0 01.328.736.58.58 0 01-.728.332.639.639 0 01-.344-.8.611.611 0 01.8-.26" fill="#EBEBEB"/><path d="M220.364 177.444c.165-.348.394-.661.676-.924.322-.212.68-.363 1.056-.448 0-.024-.136-.072-.364-.056a1.58 1.58 0 00-.824.336 1.545 1.545 0 00-.516.724c-.068.228-.052.364-.028.368zm.956 1.132c.052.032.292-.344.756-.592.295-.125.597-.233.904-.324a1.12 1.12 0 00-1.008.136c-.528.284-.708.764-.652.78zm-2.576-2.5c.345-.357.715-.689 1.108-.992a9.997 9.997 0 011.344-.636 2.73 2.73 0 00-2.452 1.628zm-.8-2.868c.036.052.516-.28 1.2-.456.684-.176 1.26-.124 1.268-.188a2.495 2.495 0 00-2.468.644zm-.608-2.8c.385-.226.8-.397 1.232-.508a5.11 5.11 0 011.336.044c0-.02-.12-.12-.368-.2a2.178 2.178 0 00-1.928.348c-.204.16-.292.296-.272.316zm1.1-1.036s0-.136-.064-.364a2.483 2.483 0 00-.488-.884 1.154 1.154 0 00-.592-.428.404.404 0 00-.424.18.65.65 0 00-.06.464 1.414 1.414 0 001.488 1.02 1.64 1.64 0 001.396-1.18.577.577 0 00-.056-.476.403.403 0 00-.448-.116 1.412 1.412 0 00-.556.46 2.887 2.887 0 00-.492.884.891.891 0 00-.076.36 4.64 4.64 0 01.684-1.144c.129-.173.3-.311.496-.4a.213.213 0 01.132-.007.212.212 0 01.112.071.389.389 0 01.028.312 1.464 1.464 0 01-1.2 1.004 1.227 1.227 0 01-1.272-.844.47.47 0 01.024-.328.219.219 0 01.1-.088.221.221 0 01.132-.016c.202.064.379.188.508.356.279.346.492.741.628 1.164z" fill="#263238"/><path d="M184.036 88.904c-.1 0-1.316 80.46-1.316 80.46l9.724-.336 3.364-39.56.8-29.04 6.628 26.876 8.252 42.156 9.708-2.436-12.36-78.632-11.632-2.248-13.168 2.76zm21.14-49.7c1.164-2.296 1.528-6.424.196-8.708s-4.036-3.936-6.572-4.688a2.213 2.213 0 00-1.304-.08.87.87 0 00-.616 1.02 5.62 5.62 0 00-1.6-.916 1.893 1.893 0 00-1.748.248 1.147 1.147 0 00-.421.777 1.141 1.141 0 00.253.847 2 2 0 00-2.696 2.444 6.4 6.4 0 001.292 2.036c.504.536.552 1.056.4 1.78" fill="#263238"/><path d="M195.588 58.128c.072-1.104.252-11.08.248-11.124-.004-.044-3.704-.46-3.864-4.144-.076-1.78.064-5.456.228-8.78a6.867 6.867 0 016.636-6.528h.356c3.84.104 5.896 3.424 5.684 7.26l-.524 21.348" fill="#FFBE9D"/><path d="M195.836 47.004a8.91 8.91 0 004.756-1.568s-1.108 2.304-4.8 2.088l.044-.52z" fill="#EB996E"/><path d="M192.836 36.568a.534.534 0 00.721.486.496.496 0 00.287-.267.504.504 0 00.044-.195.522.522 0 00-.524-.516.503.503 0 00-.528.492zm.212-.708c.068.064.456-.244 1.024-.26.568-.016.988.256 1.048.184.06-.072-.04-.152-.228-.28a1.449 1.449 0 00-.84-.232c-.291.011-.57.114-.8.292-.184.14-.236.264-.204.296zm5.444.788a.53.53 0 00.524.516.5.5 0 00.528-.492.53.53 0 00-.889-.379.511.511 0 00-.163.355zm.124-.856c.068.064.46-.244 1.024-.26.564-.016.992.256 1.048.184.056-.072-.04-.152-.224-.28a1.472 1.472 0 00-.844-.232c-.29.012-.57.114-.8.292-.18.14-.236.264-.204.296zm-1.924 4.264a3.469 3.469 0 00-.924-.14c-.144 0-.284-.036-.312-.132a.762.762 0 01.084-.432l.4-1.112c.548-1.6.936-2.892.872-2.912-.064-.02-.556 1.248-1.104 2.832-.128.4-.256.764-.372 1.12a.832.832 0 00-.06.572.374.374 0 00.244.204.958.958 0 00.248.024c.308.031.618.023.924-.024zm1.68.34c-.092 0-.076.612-.588 1.064-.512.452-1.168.4-1.172.492-.004.092.152.112.428.112.364 0 .717-.127.996-.36.259-.228.421-.548.452-.892 0-.272-.076-.424-.116-.416zm.028-6.82c.064.152.624.06 1.292.12s1.2.224 1.292.084c.04-.068-.06-.208-.28-.352a2.19 2.19 0 00-.968-.304c-.34-.03-.683.02-1 .148-.24.108-.36.232-.336.304zm-5.196.636c.104.128.492 0 .96-.04.468-.04.868.06.956-.076.036-.068-.028-.196-.208-.312a1.348 1.348 0 00-.8-.188c-.276.013-.54.112-.756.284-.148.136-.196.272-.152.332z" fill="#263238"/><path d="M204.672 37.54c.064-.028 2.508-.828 2.508 1.696s-2.532 2-2.54 1.928c-.008-.072.032-3.624.032-3.624z" fill="#FFBE9D"/><path d="M205.412 40.208s.044.032.12.064a.43.43 0 00.328 0 1.083 1.083 0 00.504-.976 1.506 1.506 0 00-.124-.628.514.514 0 00-.328-.336.219.219 0 00-.26.12c-.036.068 0 .12-.032.124-.032.004-.052-.044-.032-.148a.28.28 0 01.096-.156.335.335 0 01.244-.064.609.609 0 01.46.4c.107.217.16.458.152.7a1.143 1.143 0 01-.644 1.092.473.473 0 01-.4-.068c-.08-.064-.092-.12-.084-.124z" fill="#EB996E"/><path d="M190.592 29.304c-.296 3.268 3.732 4.632 5.5 2.8.8-.844 1.528-1.9 2.64-2.28a3 3 0 012.3.24c1.04.54 1.652 1.744 1.816 2.904.224 1.6-.036 3.04.4 4.524.037.22.147.422.312.572a.8.8 0 00.996-.252c.369-.48.589-1.06.632-1.664a10.33 10.33 0 00-.152-4.084 7.059 7.059 0 00-2.048-3.504 6.696 6.696 0 00-4.744-1.624 8.238 8.238 0 00-4.708 1.848 4.834 4.834 0 00-1.492 1.832" fill="#263238"/><path d="M193.26 27.516a.752.752 0 00-.348 0 1.748 1.748 0 00-.832.464c-.346.34-.567.787-.628 1.268a2.441 2.441 0 00.484 1.664 3.2 3.2 0 001.364 1.064c.439.177.904.28 1.376.304.315.02.631.01.944-.028a1.13 1.13 0 00.34-.068c0-.036-.492.032-1.272-.04a4.535 4.535 0 01-1.316-.332 3.091 3.091 0 01-1.28-1.016 2.285 2.285 0 01-.456-1.492c.044-.449.235-.87.544-1.2.207-.224.467-.392.756-.488.204-.076.328-.08.324-.1zm1.688-1.152s-.092-.028-.24.04a.795.795 0 00-.4.54c-.05.334.018.675.192.964.182.352.414.677.688.964a4.4 4.4 0 001.804 1.144c.276.113.574.163.872.148 0-.036-.328-.076-.824-.276a4.8 4.8 0 01-1.708-1.148 4.432 4.432 0 01-.676-.916 1.404 1.404 0 01-.216-.856.803.803 0 01.3-.5c.124-.08.212-.088.208-.104z" fill="#455A64"/><path d="M172.992 59.02l-17.356-1.644-2.744-.66s-6.272-1.12-6.86-1.308c-.68-.212-.948.064-1.008.32-.096.4.3.828.876 1.028.2.072 3.396 1.04 3.396 1.04-.358.092-.71.208-1.052.348-.744.284-1.432 1.288-1.748 2.436-.316 1.148-.304 1.496.136 1.64a.577.577 0 00.496-.088 1.17 1.17 0 00.508-.668c.536-1.832 1.66-2.02 1.66-2.02l.36.088s-1.136.86-1.076 1.844c.011.139.047.275.108.4a1.491 1.491 0 00.966 1.9c.253.079.523.089.782.028.248-.052.508-.208.536-.46a.831.831 0 00-.096-.4 1.181 1.181 0 01-.068-.2l1.04.1s2.348.104 3.364.264l16.348 4.228a4.183 4.183 0 005.12-3.076 4.184 4.184 0 00-1.992-4.603 4.187 4.187 0 00-1.696-.537z" fill="#FFBE9D"/><path d="M155.268 57.832a.881.881 0 01-.716.716c-.356.088-.724.056-1.084.116-1.068.188-1.864 1.2-2.944 1.336-.148 0-.34 0-.4-.148s.06-.264.164-.36l2.596-2.488" fill="#FFBE9D"/><path d="M152.896 57.004a1.74 1.74 0 00-.308.24c-.188.164-.456.4-.8.712l-1.152 1.068c-.108.104-.216.208-.332.312-.116.104-.268.204-.292.452a.298.298 0 00.196.28.62.62 0 00.292.036c.176-.023.349-.065.516-.124.584-.275 1.148-.59 1.688-.944.237-.133.494-.229.76-.284.248-.048.492-.052.72-.076a1.265 1.265 0 00.968-.464.48.48 0 00.104-.4 1.12 1.12 0 01-.168.332 1.232 1.232 0 01-.916.368 7.387 7.387 0 00-.736.052 2.85 2.85 0 00-.8.284c-.54.339-1.099.645-1.676.916-.15.055-.306.094-.464.116-.148 0-.28-.032-.268-.112.012-.08.116-.204.228-.308.112-.104.22-.216.328-.316l1.12-1.104c.316-.316.572-.576.744-.756.172-.18.26-.268.248-.28zm-3.212 2.488a1.488 1.488 0 00-.68.02 1.144 1.144 0 00-.576.428c-.176.252-.311.53-.4.824a4.858 4.858 0 01-.36.876 1.54 1.54 0 01-.544.564.586.586 0 01-.524.032c-.116-.056-.16-.112-.156-.116.004-.004.06.032.172.068a.553.553 0 00.464-.068c.205-.137.372-.325.484-.544a5.39 5.39 0 00.34-.856c.091-.307.233-.596.42-.856a1.2 1.2 0 01.648-.444c.172-.044.352-.044.524 0a.398.398 0 01.188.072zm-3.992-2.816c.217.045.43.108.636.188l1.52.492 1.528.468c.216.054.427.125.632.212a2.734 2.734 0 01-.656-.12 24.438 24.438 0 01-3.056-.964 3.08 3.08 0 01-.604-.276zm4.484 3.76s-.044.064-.128.164a.594.594 0 00-.176.48.324.324 0 00.212.248c.137.051.279.085.424.1a.74.74 0 01.472.232.64.64 0 01.104.564.731.731 0 01-.372.432.884.884 0 01-.52.096 2.764 2.764 0 01-.8-.268 1.676 1.676 0 01-.476-.324.405.405 0 01-.116-.18s.052.056.152.144c.145.114.305.207.476.276.255.114.524.192.8.232a.721.721 0 00.748-.444.524.524 0 00-.076-.448.633.633 0 00-.4-.192 1.892 1.892 0 01-.448-.12.424.424 0 01-.256-.332.804.804 0 01.4-.66h-.02z" fill="#EB996E"/><path d="M150.632 62.572s.072 0 .172.076a.572.572 0 01.212.472.765.765 0 01-.432.628 1.252 1.252 0 01-.936.052 1.532 1.532 0 01-.768-.54 1.438 1.438 0 01-.276-.708 1.38 1.38 0 01.036-.512c.032-.116.064-.176.072-.172a2.2 2.2 0 000 .668c.037.238.135.463.284.652.182.23.428.398.708.484.274.095.574.083.84-.032a.688.688 0 00.4-.528.562.562 0 00-.152-.428c-.1-.08-.164-.1-.16-.112zm2.812-1.532a.608.608 0 01.1-.3c.138-.242.351-.432.608-.54v.116a3.817 3.817 0 01-.4-.204 2.8 2.8 0 01-1.124-1.072c.363.364.765.686 1.2.96.132.076.264.144.4.2l.136.064-.14.052c-.236.096-.44.257-.588.464-.136.156-.172.268-.192.26zM148 59.408c.024-.024.216.172.248.488s-.108.548-.14.528c-.032-.02.04-.236 0-.512s-.14-.48-.108-.504z" fill="#EB996E"/><path d="M173.3 67.5l11.312-2.596s-.576 20.72-.576 20.916c0 .196-.932.52-.852 2.028l.8 1.788 24.8.332.672-20.136 2.264-15.6-5.2-3.22-1.832-2.508-7.152 7.544-1.78-6.44.052-1.916-1.768 1.92-9.54 2.752-12.604 5.876-8.52-.652-2.212 7.456L173.3 67.5z" fill="#B75400"/><path d="M196.548 53.736a1.137 1.137 0 00-.512.572 2.261 2.261 0 00-.156.872 3.37 3.37 0 01-.168 1.2l-.088.204-.088-.204a11.21 11.21 0 01-.56-1.836 43.157 43.157 0 01-.624-3.34 8.594 8.594 0 01-.148-1.404c.128.452.227.912.296 1.376.164.852.4 2.032.68 3.32.13.614.307 1.217.528 1.804h-.172c.124-.359.186-.736.184-1.116a2.3 2.3 0 01.208-.912 1.04 1.04 0 01.4-.456.4.4 0 01.22-.08zm9.18-3.16a1.703 1.703 0 01-.24.348c-.168.212-.4.52-.72.896-.616.752-1.472 1.78-2.432 2.912l-1.528 1.772-.12.136-.04-.172c-.22-.872-.4-1.6-.512-2.12-.048-.26-.192-.4-.332-.4a.289.289 0 00-.192.052s.028-.104.192-.112a.35.35 0 01.264.108.764.764 0 01.176.328c.148.512.352 1.24.584 2.104l-.164-.036 1.512-1.796c.96-1.128 1.836-2.144 2.48-2.872.32-.364.584-.656.768-.856.184-.2.292-.304.304-.292zM195.18 83.704a1.205 1.205 0 01-.024-.268V79.836c.024-2.4.14-5.692.4-9.332.26-3.64.656-6.92.984-9.288.16-1.2.308-2.14.4-2.8l.132-.76c.012-.088.032-.175.06-.26.009.09.009.179 0 .268-.024.196-.056.448-.092.764l-.356 2.8a210.535 210.535 0 00-.92 9.288c-.276 3.636-.4 6.932-.472 9.316-.028 1.176-.048 2.136-.068 2.832 0 .316 0 .568-.02.768-.002.091-.01.182-.024.272zm-2.02 4.852a4.742 4.742 0 01-.188-1.78A6.565 6.565 0 01193.18 85a9.286 9.286 0 010 1.78c-.028.976.056 1.768-.02 1.776z" fill="#263238"/><path d="M203.32 82.736a5.063 5.063 0 01-.636.24c-.4.144-1.024.332-1.776.552a58.576 58.576 0 01-5.976 1.376 57.56 57.56 0 01-6.096.768c-.78.052-1.416.084-1.856.092a4.085 4.085 0 01-.68 0c.223-.04.449-.065.676-.072l1.848-.16c1.56-.144 3.712-.4 6.064-.8s4.46-.924 5.972-1.324l1.792-.492c.217-.08.44-.14.668-.18zM184.488 69.26c-.056 0-.092-2.94-.08-6.572.012-3.632.068-6.572.128-6.568.06.004.092 2.94.08 6.572-.012 3.632-.068 6.568-.128 6.568z" fill="#263238"/><path d="M211.26 53.928s3.124 2.68 3.332 4.2c.156 1.172 3.232 12.192 4.616 17.128a7.162 7.162 0 01-.264 4.652l-4 9.88-6.46-3.824 3.232-9.264-2.676-7.864 2.22-14.908z" fill="#B75400"/><path d="M214.952 89.788a.514.514 0 01-.12-.06l-.344-.188-1.308-.748-4.744-2.756-.06-.036.024-.06c.904-2.612 2-5.788 3.2-9.276v.068c-.376-1.016-.772-2.076-1.176-3.16-.948-2.548-1.848-4.98-2.672-7.2-.82-1.716-1.528-3.376-1.724-4.968a7.02 7.02 0 01.064-2.236c.13-.626.348-1.231.648-1.796a7.48 7.48 0 011.672-2.104c.179-.16.366-.309.56-.448.065-.05.134-.095.208-.132-.057.06-.12.113-.188.16-.128.1-.312.252-.54.464a7.723 7.723 0 00-1.6 2.116 6.446 6.446 0 00-.616 1.768 6.836 6.836 0 00-.044 2.188c.204 1.556.912 3.2 1.74 4.908l2.688 7.2c.4 1.084.8 2.144 1.176 3.164v.068c-1.224 3.48-2.336 6.652-3.252 9.26l-.036-.096 4.692 2.8 1.288.8.332.208c.096.06.136.088.132.092z" fill="#263238"/><path opacity=".3" d="M198.3 55.376a.965.965 0 01.96.704c.08.432.02.88.132 1.304.112.424.5.84.928.748.254-.083.471-.253.612-.48a14.878 14.878 0 002-3.716c0 .028-2.216 2.544-2.216 2.544a7.475 7.475 0 00-.496-1.852c-.076-.192-.16-.516-.344-.604-.3-.136-.7.304-.9.568-.205.271-.437.52-.692.744m-3.596-2.24c.04 1.405.31 2.794.8 4.112a.896.896 0 00.216.36.338.338 0 00.4.056c.16-.27.294-.556.4-.852.204-.572 1.036-.624 1.036-.624a14.987 14.987 0 00-.544-1.904.533.533 0 00-.516-.332.86.86 0 00-.568.652c-.124 1.028-.108 1.496-.26 1.856-.4-1.092-.704-2.4-.96-3.364m6.144 30.34a.867.867 0 00.34-.92.864.864 0 00-.148-.312 1.346 1.346 0 00-1.252-.476c-.462.08-.897.276-1.264.568-.38.276-.728.592-1.128.836-.98.6-2.172.74-3.324.756a19.787 19.787 0 00-3.444.156c-1.128.216-2.256.8-2.8 1.812-.016 0 9.82-.712 13.02-2.42z" fill="#000"/><path d="M207.236 97.844a8.155 8.155 0 01-2.576-2.656.111.111 0 000-.088.16.16 0 00-.1-.06 12.664 12.664 0 01-.752-1.32c.8-.52 1.852-1.312.712-1.472-1.404-.2-2.4-.884-2.552-1.256a.442.442 0 01.179-.481.444.444 0 01.513.009 5.28 5.28 0 001.352.468c.376.088.764.112 1.148.072.236-.028 1.072-.6 1.968-1.02a.685.685 0 01.4-.056l.34-.024a1.045 1.045 0 00.868-.568l1.3-2.496 3.92 2.32-3.104 4.304a51.817 51.817 0 01-3.616 4.324z" fill="#FFBE9D"/><path d="M208.06 98.292a3.082 3.082 0 01-.904-.424 8.154 8.154 0 01-1.856-1.544 8.245 8.245 0 01-1.328-2 3.286 3.286 0 01-.324-.948 10.49 10.49 0 004.4 4.932l.012-.016zm-12.348 2.524s-.04 0-.112-.032a1.364 1.364 0 01-.276-.18 2.29 2.29 0 01-.64-1.016 16.278 16.278 0 01-.436-1.712 89.589 89.589 0 01-.44-2.112c-.296-1.5-.52-2.868-.664-3.86-.072-.496-.124-.9-.152-1.176a1.874 1.874 0 01-.028-.436c.053.128.09.263.108.4l.216 1.168c.184.984.428 2.344.724 3.844.148.748.292 1.456.424 2.112.132.656.236 1.236.4 1.704.102.374.291.718.552 1.004.188.212.332.276.324.292zm-.336-8.98s.068-.024.176 0c.159.058.29.174.368.324a.69.69 0 01-.04.732.8.8 0 01-.84.32.844.844 0 01-.588-.68.796.796 0 01.252-.688c.332-.284.632-.2.616-.184a1.27 1.27 0 00-.512.288.629.629 0 00-.164.552.656.656 0 00.452.508.633.633 0 00.632-.228.563.563 0 00.06-.556c-.152-.324-.428-.36-.412-.388zm-8.504-1.608c.096.297.131.61.104.92a4.957 4.957 0 01-2.068 3.844 2.307 2.307 0 01-.828.4c0-.032.3-.188.74-.536a5.433 5.433 0 002-3.736c.06-.536.016-.888.052-.892z" fill="#455A64"/><path d="M171.348 62.164c.019-.67.087-1.34.204-2a14.01 14.01 0 01.288-1.976c.062.667.034 1.34-.084 2a7.626 7.626 0 01-.408 1.976z" fill="#263238"/><path d="M163.376 57.596a.558.558 0 01-.028.14c-.024.108-.06.24-.104.4-.104.368-.244.88-.424 1.52l-1.584 5.42-.064-.112c2.26.56 4.984 1.016 7.892 1.552a73.98 73.98 0 014.132.884h-.044l8.112-1.836 2.364-.512.632-.132a.832.832 0 01.224-.032c-.07.028-.142.051-.216.068l-.624.16-2.336.588-8.096 1.908h-.048a73.182 73.182 0 00-4.124-.872c-2.9-.536-5.632-1.004-7.896-1.6l-.092-.02.028-.092c.672-2.22 1.236-4.072 1.64-5.396.196-.632.356-1.136.472-1.504.051-.16.095-.293.132-.4a.883.883 0 01.052-.132z" fill="#263238"/><path d="M51.484 149.996L50.328 171.4l7.756 1.872 1.544-20.908-8.144-2.368z" fill="#AA6550"/><path d="M50.1 171.22l-1.32 5.808h8.92l.384-3.784-7.984-2.024z" fill="#B75400"/><path d="M57.884 176.184c-.43.067-.865.091-1.3.072-.8 0-1.912 0-3.136-.056l-3.132-.132a7.925 7.925 0 01-1.296-.104 6.15 6.15 0 011.3-.072c.8 0 1.912 0 3.136.06l3.132.132c.434-.006.868.028 1.296.1z" fill="#263238"/><path d="M54.104 172.352c.068 0 .064.844 0 1.88s-.18 1.868-.248 1.864c-.068-.004-.068-.848 0-1.88s.18-1.872.248-1.864z" fill="#263238"/><path opacity=".6" d="M48.78 177.028h8.92l.088-.844-8.848-.22-.16.964" fill="#fff"/><path d="M80.924 160.404l1.884 14.18 6.86-.476-1.44-13.004-7.304-.7z" fill="#AA6550"/><path d="M89.74 172.568s7.712 2.604 7.84 4l-14.744.44-.132-3.852.544.108c2.184.433 4.45.191 6.492-.696z" fill="#B75400"/><path opacity=".6" d="M84.436 173.828a.597.597 0 00-.4.7.579.579 0 00.688.4.63.63 0 00.4-.74.602.602 0 00-.764-.336m-1.524 3.156v-1.2l14.136.036s.664.268.604.732l-14.74.432z" fill="#fff"/><path d="M89.976 172.504c0 .072-.356.112-.704.356s-.528.548-.596.524c-.068-.024.028-.448.456-.732s.86-.232.844-.148zm1.568.576c0 .068-.292.2-.528.512-.236.312-.296.636-.368.636-.072 0-.128-.4.172-.8s.72-.416.724-.348zm.932 1.824c-.064 0-.176-.34 0-.74.176-.4.508-.568.54-.508.032.06-.172.276-.308.604-.136.328-.16.644-.232.644z" fill="#263238"/><path d="M89.816 172.448a1.34 1.34 0 01-.74.02 3.27 3.27 0 01-.776-.216 3.033 3.033 0 01-.432-.212.952.952 0 01-.228-.168.307.307 0 01-.044-.38.406.406 0 01.312-.176.83.83 0 01.276.032 2.654 2.654 0 011.156.568c.352.308.476.576.452.588-.024.012-.204-.196-.56-.448a3.064 3.064 0 00-.668-.352 2.747 2.747 0 00-.428-.116c-.156-.036-.292-.036-.328.036-.036.072 0 .036 0 .084a.63.63 0 00.164.12 3.99 3.99 0 001.12.464c.244.038.486.09.724.156z" fill="#263238"/><path d="M89.724 172.556a1.202 1.202 0 01-.212-.708 2.4 2.4 0 01.076-.8c.041-.157.1-.309.176-.452a.604.604 0 01.46-.4.344.344 0 01.312.196c.04.085.069.175.084.268.026.166.026.334 0 .5a1.731 1.731 0 01-.292.772c-.28.4-.576.484-.584.46-.008-.024.224-.184.432-.556a1.68 1.68 0 00.188-1.128c-.028-.156-.092-.28-.148-.26a.543.543 0 00-.252.248 2.64 2.64 0 00-.172.4 2.707 2.707 0 00-.12.744c.008.436.092.704.052.716z" fill="#263238"/><path d="M57.236 88.608s-5.46 9.096-5.46 14.532l-1.34 66.24 8.6 2.052 6.56-64.736s15.888 64.904 16.4 64.904c.512 0 8.332-1.404 8.332-1.404L78.464 88.904l-21.228-.296z" fill="#263238"/><path d="M60.604 104.904a.749.749 0 010 .168c0 .12-.04.284-.068.488-.072.44-.172 1.068-.3 1.868-.264 1.62-.632 3.964-1.072 6.868a496.524 496.524 0 00-2.88 22.756 482.826 482.826 0 00-1.788 22.872c-.16 2.932-.276 5.304-.344 6.944-.036.8-.068 1.444-.088 1.888 0 .208-.024.368-.028.492a.835.835 0 01-.02.168 1.122 1.122 0 010-.168v-.492c0-.448.024-1.08.044-1.892.04-1.64.128-4 .268-6.948.276-5.868.8-13.968 1.72-22.888.92-8.92 2.032-16.956 2.952-22.756.46-2.9.852-5.244 1.148-6.86.144-.8.26-1.424.34-1.86.04-.204.068-.364.092-.484.004-.055.012-.11.024-.164zm13.612 1.108c.064 0 2.688 14.528 5.86 32.468 3.172 17.94 5.692 32.5 5.628 32.512-.064.012-2.688-14.524-5.86-32.472s-5.692-32.496-5.628-32.508zm-8.924.572s-.04-.052-.092-.164a15.917 15.917 0 01-.22-.492 17.16 17.16 0 01-.636-1.868 18.964 18.964 0 01-.616-6.464c.044-.64.132-1.256.228-1.848.096-.592.26-1.156.4-1.688.3-1.06.616-2 .888-2.8.272-.8.504-1.42.672-1.852l.2-.5a1.06 1.06 0 01.08-.168.56.56 0 01-.044.184l-.16.512c-.156.472-.36 1.104-.608 1.868a63.76 63.76 0 00-.844 2.8 20.81 20.81 0 00-.4 1.668c-.108.58-.176 1.2-.22 1.828-.161 2.149.024 4.31.548 6.4.204.8.424 1.436.572 1.876.098.231.182.467.252.708zm2.436-11.124v.124c0 .096 0 .212.02.352 0 .324.032.764.056 1.308.04 1.136.096 2.716.16 4.608l-.056-.08 3.312 1.348h-.092l2.688-1.636.176-.108-.052.08c.204-2.184.4-4.24.56-6l.088.1-4.952-.052-1.412-.024h-.512a3.35 3.35 0 01.476-.024l1.388-.024 5.008-.044h.1v.1c-.156 1.772-.336 3.828-.532 6v.052l-.044.028-.176.104-2.696 1.632-.044.028-.044-.02-3.304-1.372-.052-.02v-.06l-.068-4.668v-1.288a2.925 2.925 0 01.004-.444zM55.28 93.704s0 .164-.06.448c-.06.284-.108.708-.184 1.2-.172 1.052-.4 2.512-.688 4.26l-.036-.088 2.5 1.852h-.088l3.04-.844.156-.044-.072.072c.58-2 1.128-3.844 1.6-5.452l.068.116-4.492-1.072-1.28-.316a4.995 4.995 0 01-.464-.128c.147.018.292.045.436.08l1.268.264 4.572.992.092.024-.024.092-1.588 5.456v.056h-.056l-.156.044-3.04.84h-.048l-.04-.028-2.492-1.824-.044-.036v-.052c.324-1.764.592-3.24.8-4.3.096-.492.172-.888.228-1.2.02-.14.05-.277.092-.412zm17.368 11.6a33.77 33.77 0 01-3.656.9 34.497 34.497 0 01-3.704.696 33.833 33.833 0 013.66-.9 34.42 34.42 0 013.7-.696z" fill="#455A64"/><path d="M61.956 105.588c-.31.042-.625.042-.936 0a15.408 15.408 0 01-2.24-.348 14.878 14.878 0 01-2.164-.664 3.26 3.26 0 01-.844-.4c.304.066.602.157.892.272.548.176 1.308.4 2.164.596.856.196 1.636.328 2.208.4.31.021.618.069.92.144z" fill="#455A64"/><path d="M61.004 36.58c.296.856-.72 1.6-1.6 1.788-.88.188-1.952.328-2.356 1.14-.352.704 0 1.6-.316 2.316-.608 1.364-3.064 1.08-3.544 2.496-.352.984.576 1.972.448 2.984-.1.876-.904 1.476-1.6 2-.696.524-1.448 1.264-1.34 2.144.128 1.012 1.368 1.712 1.252 2.728-.116 1.016-1.456 1.464-1.652 2.452-.228 1.168 1.236 1.92 1.708 3.016.36.836.136 1.916.744 2.596.608.68 1.728.556 2.64.364l9.108-1.932c-.616-1.436-.04-3.124.84-4.42.88-1.296 2.044-2.4 2.8-3.76.756-1.36 1-3.2 0-4.424m8.88-4.208a9.618 9.618 0 00-.3-1.44 1.411 1.411 0 00-.364-.588c-.18-.172-.4-.064-.56.18a4.4 4.4 0 000 3.692c.148.248.4.356.56.184a1.46 1.46 0 00.364-.592c.136-.47.237-.95.3-1.436.034.13.045.266.032.4a4 4 0 01-.172 1.092c-.073.26-.21.496-.4.688a.483.483 0 01-.484.112.8.8 0 01-.4-.324 4.476 4.476 0 010-3.936.8.8 0 01.4-.324.483.483 0 01.484.112c.19.192.327.429.4.688.107.353.165.72.172 1.088a1.17 1.17 0 01-.032.404z" fill="#263238"/><path d="M62.16 52.244c-1.648-2.8-2.12-6.492-2.536-9.696-.196-1.512-.54-3.66.52-4.604 1.14-1.012 1.248-2.572 2.556-3.352 1.308-.78 3.08-.844 4.312.048" fill="#263238"/><path d="M66.724 62.104a4.46 4.46 0 004.8-4.268c.104-2.432.192-4.888.192-4.888s3.684-.336 3.964-4c.28-3.664.18-12.064.18-12.064a12.708 12.708 0 00-12.844.8l.188 12.832-.02 6.904c.052 2.324 1.252 4.5 3.54 4.684z" fill="#AA6550"/><path d="M72.072 44.504c-.624-.78-1.648-1.092-2.488-.548a2.12 2.12 0 00-.716 2.648 2.8 2.8 0 001.788 1.356 1.404 1.404 0 011.092 1.512c-.108.912-1.632 1.252-2.324 2-1.072 1.176-3.416 1.668-4.996 1.848-1.58.18-1.368.196-2.268-1.084a4.904 4.904 0 01-.88-2.96c-.045-2.69-.092-5.38-.14-8.068-.06-.968.004-1.94.192-2.892a3.865 3.865 0 011.532-2.4c.888-.584 2-.628 3.024-.952 1.264-.4 2.34-1.24 3.52-1.84 1.18-.6 2.636-.96 3.82-.36.848.432 1.416 1.28 2.244 1.756 1.176.672 2.8.524 3.348 2.26a2.947 2.947 0 01-.024 1.856c-.8 2.356-3.732 3.296-5.832 2.272-.04.4.348 1.288-.076 2.552-.136.4-.184 1.016-.8 1.024" fill="#263238"/><path d="M71.412 46.78s0 .068-.048.156a.545.545 0 01-.4.204 1 1 0 01-.94-1.008 1.049 1.049 0 01.84-1.1c.376-.076.592.064.576.084-.016.02-.224 0-.524.092a.911.911 0 00-.64.896.852.852 0 00.68.836c.308.036.432-.184.456-.16z" fill="#995037"/><path d="M77.024 43.704c-.799.252-1.62.427-2.452.524a13.81 13.81 0 01-2.492.288c0-.068 1.088-.3 2.452-.524.82-.174 1.654-.27 2.492-.288zm-14.588 12.1a1.06 1.06 0 001.268.508 3.05 3.05 0 001.224-.832c.33-.371.74-.661 1.2-.848.972-.296 2.164.352 2.98-.252.744-.548.648-1.792 1.38-2.36.4-.3.928-.34 1.324-.632.74-.544.616-1.764 0-2.444-.616-.68-1.556-.952-2.44-1.2l-7.836 3.34.9 4.72z" fill="#263238"/><path d="M71.76 41.644s-.02.02-.064.048a1.608 1.608 0 01-.208.116c-.273.133-.56.236-.856.308a9.736 9.736 0 01-1.424.228c-.629.044-1.254.13-1.872.256-.74.138-1.418.51-1.932 1.06-.528.612-.728 1.492-1.136 2.348a3.026 3.026 0 01-.912 1.148 4.797 4.797 0 01-1.364.672c-.964.32-2.024.516-2.824 1.2a2 2 0 00-.724 1.28 8.814 8.814 0 000 1.524 2.799 2.799 0 01-.292 1.5c-.254.43-.62.782-1.06 1.02-.8.484-1.676.74-2.36 1.176a2.738 2.738 0 00-.844.78 2.049 2.049 0 00-.32.996c0 .626.084 1.25.252 1.852.117.47.161.956.132 1.44a2 2 0 01-.26.876 1.086 1.086 0 01-.2.252c.226-.336.353-.728.368-1.132a4.857 4.857 0 00-.168-1.404 6.858 6.858 0 01-.292-1.892c.014-.385.128-.76.332-1.088a2.91 2.91 0 01.892-.844c.712-.464 1.576-.728 2.356-1.2a2.287 2.287 0 001.232-2.332 8.88 8.88 0 010-1.564 2.249 2.249 0 01.8-1.424c.872-.732 1.968-.92 2.904-1.236a4.642 4.642 0 001.304-.632c.367-.281.66-.648.852-1.068.4-.8.608-1.72 1.18-2.376A3.649 3.649 0 0167.3 42.44a13.59 13.59 0 011.896-.228 10.9 10.9 0 001.416-.184 6.11 6.11 0 001.148-.384z" fill="#455A64"/><path d="M69.636 42.952c0 .024-.284 0-.764.108a3.46 3.46 0 00-1.756 1.048 3.2 3.2 0 00-.7 1.228 5.35 5.35 0 00-.144 1.636A4.267 4.267 0 0166 48.844a1.9 1.9 0 01-.684.768 8.578 8.578 0 01-.88.492c-.293.13-.557.318-.776.552-.191.239-.3.534-.308.84-.044.608.088 1.284-.208 1.868a3.072 3.072 0 01-1.22 1.2c-.46.272-.908.476-1.284.704-.346.19-.653.443-.904.748a2.024 2.024 0 00-.4.8c-.054.25-.054.507 0 .756a.445.445 0 01-.08-.188 1.37 1.37 0 01-.024-.584c.058-.308.185-.6.372-.852.255-.322.568-.594.924-.8.4-.244.828-.456 1.268-.728a2.872 2.872 0 001.124-1.136c.26-.504.14-1.128.176-1.788.01-.355.135-.698.356-.976.24-.26.532-.47.856-.612.612-.3 1.232-.572 1.484-1.144a4.112 4.112 0 00.26-1.768 5.601 5.601 0 01.176-1.696c.152-.48.414-.918.764-1.28a3.451 3.451 0 011.86-1.028c.191-.036.386-.049.58-.04a.677.677 0 01.204 0z" fill="#455A64"/><path d="M72.624 56.352l-.948-1.948-8.236-.312-1.292 2.532h10.344" fill="#B75400"/><path d="M100.936 73.972c-.06-.296 2.176-11.928 2.8-15.12a.678.678 0 00-.664-.8H86.576a.672.672 0 00-.66.52L82.54 72.808l-8.324.62.292.548 26.428-.004z" fill="#455A64"/><path d="M100.212 72.94l2.668-14.1-16.212.096-3.56 14.024 17.104-.02z" fill="#EBEBEB"/><path d="M83.096 72.968l3.56-14.028 16.224-.1-2.672 14.108-17.112.02zm3.58-14l-3.556 14 17.084-.02 2.664-14.08-16.192.1z" fill="#263238"/><path d="M100.196 73.036c0 .056-4.744.104-10.592.104-5.848 0-10.596-.048-10.596-.104 0-.056 4.74-.104 10.596-.104s10.592.048 10.592.104z" fill="#263238"/><path d="M99.076 69.476a.66.66 0 01-.208 0l-.608.02-2.236.032c-1.888 0-4.492.032-7.372.032h-2.496l.032-.124c.576-2.22 1.076-4.16 1.444-5.6.18-.672.328-1.2.44-1.632a4.08 4.08 0 01.184-.58 3.755 3.755 0 01-.116.6c-.096.4-.224.964-.4 1.644-.348 1.424-.824 3.368-1.372 5.6l-.096-.124h2.364c2.88 0 5.484 0 7.372.032l2.236.032h.608c.078.01.154.032.224.068z" fill="#455A64"/><path d="M87.336 68.94l.3-1.36h2.088l-.268 1.36h-2.12zm2.836 0l.628-2.676h2.088l-.592 2.676h-2.124zm2.836 0l.304-1.36H95.4l-.268 1.36h-2.124zm2.836 0l1.196-5.2h2.088l-1.16 5.2h-2.124z" fill="#B75400"/><path d="M88.972 70.46c-.27.1-.559.132-.844.096-.464 0-.84-.052-.84-.112a3.46 3.46 0 011.684 0v.016zm2.748-.004a1.82 1.82 0 01-.84.096 1.848 1.848 0 01-.844-.112c.27-.098.559-.131.844-.096.285-.03.573.008.84.112zm2.752-.004c-.27.097-.559.13-.844.096-.285.03-.573-.01-.84-.112.27-.099.56-.132.844-.096.285-.03.573.008.84.112zm2.764-.004a3.476 3.476 0 01-1.688 0 3.476 3.476 0 011.688 0zm-4.06-9.4c-.773.103-1.553.138-2.332.104-.78.034-1.562-.001-2.336-.104a13.355 13.355 0 012.336-.104c.779-.034 1.56.001 2.332.104zm-2.452-.58a5.023 5.023 0 01-2.072 0 5.2 5.2 0 012.072 0z" fill="#455A64"/><path d="M86.252 82.544l9.544-6.908-.356-.576a4.604 4.604 0 00-2.232-1.872l-1.492.268-8.848 1.348 3.384 7.74zM52.32 80.956l7.932-3.152-1.772-6.564-6.46 2.196.3 7.52z" fill="#B75400"/><path d="M85.92 82.728c1.976-.98 2.484-3.336 1.52-5.32l-8.204-17.56a3.199 3.199 0 00-.828-1.132 9.276 9.276 0 00-6.8-2.328l-8.568-.224s-6.732 0-9.256 5.304c-.184.4-4.096 8.148-6.676 13.26a4.421 4.421 0 002.424 6.144 4.4 4.4 0 005.56-2.34l2.8-6.248 1.744 8.948-2.54 7.376 21.244.292-1.632-9.868L76.192 72l4.324 8.904a4 4 0 005.404 1.844v-.02z" fill="#B75400"/><path opacity=".2" d="M60.368 81.06c1.6 1.2 3.98.8 5.96.476a8.612 8.612 0 005.2-2.8c.628-.66.974-1.54.964-2.452-.08-.9-.876-1.768-1.772-1.66-1.024.124-1.52 1.276-2 2.184a7.955 7.955 0 01-8.292 3.892s-.344.148-.06.36zm13.12-13.824c.5 4.04.276 3.736 1.12 7.72.4 1.956.916 4 2.268 5.48L76.208 72l-2.72-4.764z" fill="#000"/><path d="M57.112 88.608l-.608-1.772 1.584-1.056 19.488-1.608 1.372 2.584-.592 2.144-21.244-.292z" fill="#B75400"/><path d="M61.136 55.172a2.904 2.904 0 00-1.352 4.336c.204.222.334.501.372.8-.04.72-1.2.74-1.568 1.36a1.108 1.108 0 00.312 1.3c.376.3.778.568 1.2.8a1.472 1.472 0 01.736 1.172c.4 0 .648-.504.588-.904a4.05 4.05 0 00-.5-1.108 1.155 1.155 0 01-.052-1.156c.264-.38.8-.4 1.24-.564a1.728 1.728 0 00.916-2.224c-.264-.584-.872-1.176-.576-1.744.164-.316.544-.436.856-.612a2.228 2.228 0 00.292-3.712M57.836 73.14c-.109.346-.254.68-.432.996a35.582 35.582 0 01-1.248 2.308 32.8 32.8 0 01-1.424 2.204 5.301 5.301 0 01-.664.856 5.93 5.93 0 01.544-.94c.352-.568.844-1.352 1.364-2.228.52-.876.968-1.684 1.296-2.268a5.85 5.85 0 01.564-.928z" fill="#263238"/><path d="M55.968 76.504a3.416 3.416 0 01-.88 2.744c-.052-.036.308-.584.544-1.34.236-.756.272-1.404.336-1.404zm31.124.272c-.052.024-1.716-3.456-3.712-7.768-1.996-4.312-3.576-7.832-3.524-7.856.052-.024 1.716 3.452 3.712 7.768 1.996 4.316 3.576 7.832 3.524 7.856zM76.972 58.84c0 .032-.36.164-.888.492a5.545 5.545 0 00-2.576 3.924c-.092.616-.064 1.008-.1 1.012a2.585 2.585 0 01-.048-1.032 5.164 5.164 0 012.648-4.032c.293-.186.621-.31.964-.364zM59.636 81.304c-.056 0-1.012-4.056-2.136-9.092-1.124-5.036-2-9.124-1.932-9.136.068-.012 1.012 4.056 2.136 9.092 1.124 5.036 1.98 9.136 1.932 9.136z" fill="#263238"/><path d="M95.796 75.636l3.872-1.668h-5.16l1.128 1.464" fill="#AA6550"/><path d="M87.836 76.068a6.698 6.698 0 01-.94-.884 7.156 7.156 0 01-.912-.912c.406.17.767.431 1.056.764.338.28.61.633.796 1.032zm-7.14 5.144a3.355 3.355 0 01-.328-.54c-.2-.352-.476-.868-.8-1.508a263.922 263.922 0 01-2.544-5.048 289.818 289.818 0 00-2.544-5.048 61.4 61.4 0 00-.8-1.52 3.973 3.973 0 01-.268-.568c.128.166.242.342.34.528.208.348.5.856.848 1.492.7 1.268 1.62 3.044 2.596 5.024s1.84 3.74 2.492 5.072l.752 1.54c.101.184.187.377.256.576zm-7.66-5.436v.14a3.584 3.584 0 01-.068.4c-.111.485-.29.953-.532 1.388a7.796 7.796 0 01-3.6 3.2 15.6 15.6 0 01-4.684 1.168 35.61 35.61 0 01-1.456.132 2.288 2.288 0 01-.536 0 3.26 3.26 0 01.528-.092l1.444-.2a16.878 16.878 0 004.616-1.2 8 8 0 003.548-3.064c.33-.588.578-1.218.74-1.872zm-4.272 10.328c0 .056-2.632.288-5.888.516-3.256.228-5.896.368-5.9.308-.004-.06 2.632-.288 5.888-.516 3.256-.228 5.896-.388 5.9-.308zm3.396-1.6a9.562 9.562 0 01.424 4.032c-.06 0-.084-.908-.204-2-.12-1.092-.276-2.032-.22-2.032zm1.368-1.272c.099.256.158.526.176.8a10.164 10.164 0 01-.276 3.948 2.57 2.57 0 01-.288.772c-.064 0 .312-1.2.4-2.748.088-1.548-.076-2.764-.012-2.772zm-.88-26.728a41.957 41.957 0 01-4.252-.132c-2.344-.132-4.24-.288-4.24-.344 0-.056 1.908 0 4.252.136s4.24.272 4.24.34z" fill="#263238"/><path d="M258.688 63.744l-1.692-2.888-1.608 2.888h-22.804v11.924h35.512V63.744h-9.408z" fill="#B75400"/><path d="M238.968 69.808a1.747 1.747 0 001.056-1.6 1.645 1.645 0 10-3.28-.044 1.75 1.75 0 001.032 1.644c-2.528.36-2.436 3.104-2.436 3.104l5.968.076s.16-2.78-2.34-3.18zm25.068-2.532c0 .036-4.536.064-10.124.064-5.588 0-10.124-.028-10.124-.064 0-.036 4.532-.06 10.124-.06 5.592 0 10.124.028 10.124.06zm0 1.82c0 .032-4.536.06-10.124.06-5.588 0-10.124-.028-10.124-.06s4.532-.06 10.124-.06c5.592 0 10.124.028 10.124.06zm0 1.808c0 .036-4.536.064-10.124.064-5.588 0-10.124-.028-10.124-.064 0-.036 4.532-.06 10.124-.06 5.592 0 10.124.036 10.124.06zm-10.116 1.808c0 .036-2.268.064-5.06.064s-5.064-.028-5.064-.064c0-.036 2.268-.06 5.064-.06 2.796 0 5.06.028 5.06.06z" fill="#FAFAFA"/><path d="M111.404 125.248a1.931 1.931 0 01-.34.024l-.976.02-3.58.036-11.816.032h-.952v-.112c0-4.4.024-8.368.036-11.252 0-1.412.024-2.56.032-3.38 0-.38 0-.688.02-.916a1.702 1.702 0 01.024-.32c.008.107.008.214 0 .32 0 .228 0 .536.02.916 0 .82.02 1.968.036 3.38 0 2.884 0 6.84.036 11.252l-.112-.112h.84l11.816.036 3.58.032.976.024c.12-.003.241.004.36.02z" fill="#263238"/><path d="M109.452 113.232c-.161.18-.337.347-.524.5l-1.48 1.3a548.113 548.113 0 01-4.944 4.228l-.296.248-.072.064-.072-.068-2.2-2.044H100l-3.228 2.664-.936.748c-.108.096-.226.18-.352.252.092-.112.195-.214.308-.304l.9-.8 3.176-2.724.068-.06.068.06 2.208 2.032h-.144l.292-.248c1.94-1.64 3.7-3.116 4.984-4.176l1.528-1.248c.182-.156.376-.297.58-.424z" fill="#263238"/><path d="M109.452 116.904a5.746 5.746 0 01-.076-1.096c-.02-.676-.032-1.6-.036-2.668l.112.112h-.188c-1.092 0-2.08 0-2.8-.032a5.855 5.855 0 01-1.16-.08 6.53 6.53 0 011.16-.076 89.564 89.564 0 012.8-.036h.3v.112c0 1.048 0 2-.036 2.668.01.367-.016.734-.076 1.096z" fill="#263238"/><path d="M35.556 63.628a6.34 6.34 0 011.6.428l1.2-.996 2.04 1.552-.64 1.412c.344.441.627.927.84 1.444l1.544.136.344 2.544-1.452.54a6.244 6.244 0 01-.424 1.6l.996 1.2-1.556 2.04-1.404-.624c-.444.343-.93.627-1.448.844l-.136 1.544-2.54.344-.544-1.452a6.332 6.332 0 01-1.6-.428l-1.2.996-2.04-1.552.64-1.412a6.174 6.174 0 01-.84-1.444l-1.544-.136-.344-2.544 1.452-.54a6.317 6.317 0 01.424-1.62l-.996-1.2 1.556-2.04 1.408.644a6.44 6.44 0 011.448-.844l.136-1.544 2.54-.344.544 1.452h-.004zm-1.044 3.528a2.752 2.752 0 10.738 5.455 2.752 2.752 0 00-.738-5.455z" fill="#B75400"/><path d="M34.512 67.156a.493.493 0 01.172-.036c.169-.02.34-.02.508 0 .636.055 1.232.33 1.688.776a2.837 2.837 0 010 4.056 2.844 2.844 0 01-4.21-.267 2.837 2.837 0 01-.234-3.181 2.76 2.76 0 011.42-1.2c.16-.061.326-.103.496-.124a.491.491 0 01.176 0c0 .024-.24.048-.64.216a2.763 2.763 0 00-1.312 1.2 2.656 2.656 0 004.156 3.2c.379-.362.64-.828.752-1.34a2.677 2.677 0 00-.7-2.448 2.736 2.736 0 00-1.6-.8c-.428-.068-.672-.028-.672-.052z" fill="#B75400"/><path d="M35.556 63.628s0-.028-.04-.088l-.112-.268c-.1-.26-.244-.62-.424-1.084l.036.024-2.536.364.048-.048c-.04.468-.084.988-.128 1.544v.032h-.036a6.3 6.3 0 00-1.424.84l-.036.028-.04-.02-1.412-.636.092-.024L28 66.34v-.112l1 1.2.036.04v.052c-.21.513-.35 1.05-.42 1.6v.056l-.056.02-1.452.548.064-.108c.112.8.228 1.66.348 2.54l-.092-.088 1.544.136h.064l.024.06c.213.507.493.983.832 1.416l.04.052-.028.06c-.2.444-.4.924-.644 1.412l-.032-.132 2.044 1.552h-.14l1.2-.996.052-.044.064.028a6.226 6.226 0 001.6.4c.04.032-.092-.068.088.072v.068l.032.092.068.18.136.364c.092.244.18.484.272.724l-.12-.072 2.544-.344-.096.1c.048-.52.092-1.032.136-1.544v-.064l.06-.028a6.18 6.18 0 001.42-.824l.052-.04.06.028 1.408.644-.128.032 1.556-2.04v.128l-.992-1.2-.04-.044.024-.056a6.2 6.2 0 00.424-1.6v-.056h.056l1.452-.54-.06.1c-.116-.896-.228-1.74-.336-2.544l.076.072-1.54-.14h-.052v-.044a6.055 6.055 0 00-.828-1.432l-.028-.036v-.04l.648-1.408.02.08-2.028-1.564h.06l-1.2.988a6.538 6.538 0 00-1.2-.376l-.304-.06c-.072 0-.104-.02-.1-.024h.104c.068 0 .172.02.308.044.41.073.813.188 1.2.344h-.036l1.2-1.008.032-.024.032.024 2.048 1.54.044.032-.024.048-.636 1.412v-.072c.35.445.64.935.86 1.456l-.068-.048 1.544.132h.068v.068c.112.8.228 1.648.352 2.54v.076l-.072.024-1.448.548.06-.08a6.4 6.4 0 01-.428 1.644v-.104c.324.4.66.8.996 1.2l.052.064-.048.064-1.552 2.044-.048.068-.08-.036-1.412-.64h.112c-.449.35-.943.64-1.468.86l.068-.092c-.048.508-.092 1.024-.136 1.544v.088h-.088l-2.54.344h-.088l-.032-.08c-.092-.24-.18-.484-.272-.724l-.136-.364-.068-.184-.032-.092-.02-.044v-.024c.18.14.052.036.092.068a6.532 6.532 0 01-1.644-.432l.116-.02-1.2.996-.068.056-.072-.052-2.04-1.556-.068-.052.036-.08c.22-.484.44-.968.644-1.408v.108a6.494 6.494 0 01-.856-1.468l.088.064-1.54-.136h-.084v-.084a680.39 680.39 0 00-.34-2.54v-.08l.076-.028 1.452-.54-.06.08a6.2 6.2 0 01.436-1.64v.092c-.348-.4-.688-.82-.992-1.2l-.048-.052.044-.056 1.56-2.036.04-.052.056.028 1.408.648h-.076c.45-.343.942-.627 1.464-.844l-.04.056c.052-.556.104-1.076.148-1.544v-.044h.044l2.544-.324h.028v.028c.168.464.301.824.4 1.08.04.116.072.212.1.284a.93.93 0 01-.028.132z" fill="#B75400"/><path d="M30.18 82.996l.108-.024c.106-.013.214-.013.32 0a1.73 1.73 0 011.06.484 1.784 1.784 0 01-2.112 2.832 1.78 1.78 0 01-.688-2.452c.2-.347.516-.613.892-.752.1-.035.203-.061.308-.076h.112s-.152.032-.4.136a1.736 1.736 0 00-.828.752 1.675 1.675 0 000 1.6c.152.292.39.53.68.684a1.652 1.652 0 001.944-.264 1.6 1.6 0 00.472-.84 1.678 1.678 0 00-.436-1.536 1.739 1.739 0 00-.996-.504c-.28-.052-.436-.024-.436-.04z" fill="#263238"/><path d="M30.836 80.78l-.024-.052-.072-.172c-.064-.16-.152-.4-.264-.68h.02l-1.6.228.028-.032-.076.972v.024h-.024c-.32.136-.622.314-.896.528h-.024l-.888-.4h.06l-.988 1.308v-.068l.624.744.024.024v.036c-.133.32-.222.656-.264 1v.036h-.032l-.912.344.04-.068.22 1.6-.06-.056.968.084h.04v.036c.133.32.31.62.524.892l.024.032v.036l-.4.888v-.084l1.28.976h-.128c.232-.2.488-.4.744-.628l.032-.028h.04c.319.133.654.222.996.264l.056.044v.052l.02.056.044.116.084.228c.056.152.116.304.172.452l-.076-.044 1.6-.216-.06.064c.028-.328.06-.652.088-.972v-.04h.036c.32-.13.62-.305.892-.52l.032-.024h.04l.884.4-.08.024c.332-.44.66-.864.976-1.284v.08l-.624-.744-.024-.032v-.032c.133-.32.223-.656.268-1v-.036h.032l.916-.34-.04.06c-.072-.56-.144-1.092-.212-1.6l.048.048-.968-.088h-.032v-.028a3.997 3.997 0 00-.52-.9v-.048c.152-.32.284-.608.4-.884v.052l-1.276-.984h.036l-.752.616a4.23 4.23 0 00-.752-.236l-.192-.036H30.8h.064l.196.028a3.6 3.6 0 01.764.216H31.8l.74-.632h.02l1.288.964h.028v.032c-.124.276-.252.564-.4.888v-.048c.22.28.402.588.54.916l-.044-.028.972.08h.04v.044c.068.504.144 1.032.22 1.6v.044h-.044l-.912.344.04-.048a4.064 4.064 0 01-.272 1.032v-.064l.624.744.036.04-.032.04-.976 1.284-.032.04h-.048l-.884-.4h.068c-.283.22-.594.401-.924.54l.044-.06-.084.972v.056h-.052l-1.6.22H30.1l-.02-.052-.168-.456-.088-.228-.044-.116v-.108l.056.044a4.205 4.205 0 01-1.032-.272h.068l-.744.624-.044.036-.044-.032-1.28-.948-.044-.036.024-.048.4-.888v.072a4.039 4.039 0 01-.536-.924l.052.04-.968-.088h-.052v-.052c-.072-.552-.144-1.092-.212-1.6v-.048h.048l.912-.34-.04.048a4 4 0 01.276-1.028v.056l-.616-.764-.032-.032.028-.036.98-1.28.024-.028h.036l.884.4h-.048c.283-.216.592-.395.92-.532l-.024.036.092-.968v-.032h.028l1.6-.204.24.68.06.176c.02.03.034.062.044.096z" fill="#263238"/><path d="M77.791 20.503a8.696 8.696 0 10-4.963-16.67 8.696 8.696 0 004.963 16.67z" fill="#F5F5F5"/><path d="M66.632 11.596a.935.935 0 010 .14v.704c0 .112 0 .232.032.364.022.305.065.609.128.908a8.21 8.21 0 00.844 2.392 8.68 8.68 0 002 2.56 8.581 8.581 0 003.516 1.84 8.668 8.668 0 004.536-.084A8.497 8.497 0 0078.84 20c.38-.174.746-.376 1.096-.604.357-.235.7-.49 1.028-.764.326-.29.633-.6.92-.928a8.32 8.32 0 001.384-2.284 8.52 8.52 0 00.368-5.424 8.454 8.454 0 00-1.072-2.448 9.996 9.996 0 00-.788-1.044 9.665 9.665 0 00-1.924-1.64c-.35-.21-.714-.4-1.088-.564a8.652 8.652 0 00-4.488-.676 8.676 8.676 0 00-6.08 3.66 8.2 8.2 0 00-1.116 2.228 6.371 6.371 0 00-.244.88c-.028.128-.06.248-.08.36-.02.112-.028.208-.04.3-.024.17-.044.304-.06.4a.671.671 0 01-.024.14.538.538 0 010-.14c0-.104.024-.24.04-.4 0-.092.02-.196.028-.304.008-.108.048-.232.072-.364.056-.302.132-.6.228-.892a8.202 8.202 0 011.096-2.272 8.8 8.8 0 016.156-3.76 8.8 8.8 0 014.584.664c.383.167.755.359 1.112.576.362.228.707.482 1.032.76a7.999 7.999 0 011.736 2 8.52 8.52 0 011.1 2.5 8.696 8.696 0 01-1.78 7.86c-.289.34-.599.66-.928.96-.335.289-.687.556-1.056.8a8.991 8.991 0 01-1.12.616c-.383.17-.777.311-1.18.424a8.744 8.744 0 01-10.24-4.464 8.27 8.27 0 01-.8-2.4 6.542 6.542 0 01-.108-.916c0-.132 0-.256-.024-.368v-.704a.643.643 0 01.052-.172z" fill="#263238"/><path d="M79.26 12.432a1.622 1.622 0 01-.308.024h-3.748V7.668c-.002-.12.005-.24.02-.36.018.12.026.24.024.36v4.764l-.056-.052h3.692c.126.009.252.026.376.052zm-3.972-7.528a2.4 2.4 0 01.056.732 2.4 2.4 0 01-.056.732 2.4 2.4 0 01-.056-.732 2.4 2.4 0 01.056-.732zm3.948 1.168c-.129.205-.288.39-.472.548a2.24 2.24 0 01-.548.468c.129-.205.288-.39.472-.548a2.24 2.24 0 01.548-.468zm2.332 2.532a3.03 3.03 0 01-.6.4c-.196.14-.409.257-.632.348a1.9 1.9 0 01.576-.448 1.86 1.86 0 01.656-.3zm1.36 3.756a8.929 8.929 0 01-2 0 8.917 8.917 0 012 0zm-13.816-.136c-.31.056-.626.075-.94.056-.313.019-.627 0-.936-.056.312-.054.628-.072.944-.056a4.18 4.18 0 01.932.056zm.976 2.8a4.17 4.17 0 01-.712.644c-.237.215-.5.402-.78.556.212-.241.45-.457.712-.644.237-.215.5-.402.78-.556zm2.412 2.16c-.135.29-.29.572-.464.84-.15.28-.322.548-.516.8.096-.312.237-.609.42-.88.148-.28.337-.535.56-.76zm2.788 2.792a4.442 4.442 0 01-.056-1c-.02-.333 0-.667.056-.996.056.329.075.663.056.996.02.335 0 .67-.056 1zm4.296-1.328a2.95 2.95 0 01-.824-.544 2.903 2.903 0 01-.668-.736c.26.197.508.408.744.632.26.203.51.419.748.648zm2.012-2.172a3.34 3.34 0 01-.656-.58 3.579 3.579 0 01-.584-.66c.244.165.465.36.66.58.22.194.416.416.58.66zm-11.6-6.928a2.839 2.839 0 01-.58-.504 2.69 2.69 0 01-.504-.584c.218.14.415.309.584.504a2.6 2.6 0 01.5.584zm2.488-2.62a2.8 2.8 0 01-.572-.492 2.462 2.462 0 01-.492-.568c.214.134.406.298.572.488.192.164.358.357.492.572z" fill="#263238"/></svg>