<svg width="556" height="577" fill="none" xmlns="http://www.w3.org/2000/svg"><path d="M278.015 576.992c153.096 0 277.205-65.45 277.205-146.185 0-80.736-124.109-146.185-277.205-146.185S.81 350.071.81 430.807c0 80.735 124.109 146.185 277.205 146.185z" fill="#F5F5F5"/><path d="M114.712 502.584c40.14 0 72.679-18.787 72.679-41.962 0-23.175-32.539-41.962-72.679-41.962s-72.68 18.787-72.68 41.962c0 23.175 32.54 41.962 72.68 41.962z" fill="#E6E6E6"/><path d="M75.73 425.698s1.803-26.122-1.953-46.521c-3.757-20.398-19.347-40.947-32.195-47.421-12.848-6.474-30.291 3.305-19.572 17.531 10.719 14.225 40.735 33.985 39.533 70.124l14.187 6.287z" fill="#B75400"/><path opacity=".2" d="M75.73 425.698s1.803-26.122-1.953-46.521c-3.757-20.398-19.347-40.947-32.195-47.421-12.848-6.474-30.291 3.305-19.572 17.531 10.719 14.225 40.735 33.985 39.533 70.124l14.187 6.287z" fill="#000"/><path d="M71.861 406.526a.664.664 0 01-.664-.639 85.264 85.264 0 00-35.288-65.479.641.641 0 01-.286-.425.653.653 0 01.111-.501.656.656 0 01.427-.281.672.672 0 01.5.106 86.603 86.603 0 0135.876 66.518.676.676 0 01-.639.701h-.037z" fill="#fff"/><path d="M56.083 457.542c-5.547 1.565-11.27 1.502-16.191-1.541-4.508-2.792-7.84-6.899-7.414-13.699.188-2.893.652-5.748 0-8.615a9.886 9.886 0 00-5.259-5.936c-2.968-1.527-6.261-2.129-9.38-3.481-3.117-1.352-5.985-3.757-6.398-7.125a8.891 8.891 0 011.69-6.324c1.34-1.903 2.104-3.093 3.482-5.009 2.416-3.293 1.515-5.297-1.791-7.839-6.461-4.946-14.689-15.69-8.578-21.087 6.4-5.66 16.88-.877 22.753 3.205a23.189 23.189 0 0012.347 4.058c4.796.35 9.905.1 14.3 2.391a13.99 13.99 0 017.213 10.018c.652 4.007-.438 8.403 1.415 12.034 1.478 2.905 4.508 4.608 7.138 6.537 4.408 3.218 8.177 7.688 9.267 13.035 1.415 6.938-1.991 14.163-7.088 19.097a43.49 43.49 0 01-17.506 10.281z" fill="#B75400"/><path d="M62.632 443.63a72.96 72.96 0 00-7.901-23.142.777.777 0 00-.2-.388 89.581 89.581 0 00-4.897-7.964c.088-1.252.751-10.08 3.444-16.83a.764.764 0 00-1.416-.563 61.8 61.8 0 00-3.368 15.452 115.985 115.985 0 00-32.846-29.928.76.76 0 00-1.027.3.758.758 0 00.3 1.027c.301.176 23.53 13.336 37.305 37.104a47.015 47.015 0 00-28.601-4.496.762.762 0 00-.526 1.202.762.762 0 00.839.288 46.337 46.337 0 0129.653 5.448 71.735 71.735 0 017.776 22.727.764.764 0 00.614.627h.25a.738.738 0 00.601-.864z" fill="#fff"/><path d="M69.732 429.705s-1.74-47.71.977-65.88c2.329-15.59 5.347-22.64 5.835-26.184 0 0 2.83-36.703 3.507-67.871.325-15.026 1.828-25.658 10.255-43.402l51.542 12.272c.977 7.927 5.197 61.585 5.535 108.455.288 41.023-1.253 76.912-1.253 76.912l-.075 2.166c0 2.392.476 4.07 1.966 7.94a46.845 46.845 0 008.002 13.649c1.077 1.252 8.54 7.864 9.517 9.291 3.206 3.757-3.531 5.861-8.503 5.147-5.259-.764-13.398-2.855-15.677-6.086-1.516-2.154-2.593-9.629-4.158-11.808-5.259-7.351-7.426-10.519-7.438-12.848 0-4.208 1.44-5.861 1.991-8.227-.376-5.009-10.644-45.969-10.656-60.433 0-6.899.55-16.379.55-16.379l-7.776-47.847c-3.356 11.883-9.429 34.06-11.458 45.393-2.504 13.862-10.832 54.196-16.003 72.516-1.941 6.875-2.88 9.943-3.481 14.463l-.176 1.628c-.137 2.054-1.252 23.98-2.141 28.601-1.816 9.655-10.394 8.34-11.683.501-1.09-6.662.6-27.248.663-29.778l.138-2.191z" fill="#F1C27D"/><path d="M140.495 222.198l-.087 3.845c6.086 18.658 8.64 58.153 8.327 86.203-.426 38.005-1.665 78.615-1.665 78.615s-3.569 2.504-11.383 2.755c-7.814.25-10.481-2.367-10.481-2.367s-4.596-15.628-5.222-26.597a111.495 111.495 0 01.25-17.82l-6.449-45.919s-8.765 43.377-9.892 48.837c-1.127 5.46-11.045 44.554-11.045 44.554a21.468 21.468 0 01-13.774 3.269c-7.514-1.09-10.494-4.709-10.494-4.709s-.188-20.035 1.378-31.005c1.565-10.969 5.196-19.485 5.822-26.697.626-7.213-1.365-39.07-1.252-54.748.125-10.694-.488-18.295.99-26.084 2.98-15.753 9.14-23.729 11.708-29.89l.3-3.243c8.716 6.799 37.717 10.806 52.969 1.001z" fill="#B75400"/><path d="M69.732 429.705c-2.43 0-.939 9.416-1.64 15.44-.74 6.461-2.918 11.17-3.582 16.466-.764 6.061-.25 8.603 1.866 13.612 1.653 3.895 10.08 9.304 13.374 3.757 3.293-5.548 4.057-11.834 3.757-17.869-.313-6.262-.639-10.807-.714-15.553 0-4.195 3.268-13.975.138-14.614l-.176 1.628c-1.152 2.242-11.933 3.682-13.16-.676l.137-2.191z" fill="#37474F"/><path d="M129.2 436.579c-.776 3.018-.1 11.271-.1 11.271s1.252 2.867 5.911 4.833l2.229-11.508-8.04-4.596z" fill="#263238"/><path d="M135.011 452.733l10.331-3.268 2.579-9.091-11.62 5.71-1.29 6.649z" fill="#000"/><path d="M146.018 426.224l.075-2.167c1.39.701 4.333 11.984 8.402 19.748 3.757 7.087 11.195 11.095 13.6 14.2 3.218 4.132-3.181 9.342-13.349 7.05-5.009-1.139-12.673-4.458-14.714-7.901-2.041-3.444-2.667-9.705-4.345-12.235-1.678-2.529-5.673-5.472-6.487-8.34a15.65 15.65 0 01.101-7.876c.839-2.592 1.565-5.735 2.504-5.435v1.979c.664 1.39 3.106 3.043 8.252 3.381 2.43.163 4.809-.188 5.961-2.404z" fill="#37474F"/><path opacity=".15" d="M93.662 224.39c-7.513 15.966-13.324 30.329-13.85 55.849-.125 5.497-.175 10.919-.225 16.154-.2 18.32-.363 34.135-2.955 41.837a135.467 135.467 0 01-1.803 5.009c-.814 2.203-1.666 4.533-2.505 7.125a97.253 97.253 0 00-2.404 11.433 93.35 93.35 0 00-.626 5.872 128.899 128.899 0 016.75-23.98 217.065 217.065 0 001.815-5.096c2.667-7.889 2.83-23.793 3.018-42.238 0-5.234.113-10.644.225-16.141.526-25.32 6.261-39.57 13.775-55.436l-1.215-.388zm20.073 76.523l6.124-28.651s10.143-2.504 14.926-8.64c0 0-.814 7.513-11.27 11.771l-6.261 27.023 1.014 30.417-4.533-31.92z" fill="#000"/><path d="M68.605 381.607c-1.252.689-1.127 2.504-1.164 6.324-.15 2.513 0 5.035.45 7.513.326.889 2.58 3.894 11.508 4.871 8.929.977 12.523-1.966 13.199-3.356a99.235 99.235 0 003.08-10.018c.489-2.041-.413-2.316-.413-2.316l-.588 2.316s-3.757 3.006-13.074 2.505c-9.316-.501-12.935-5.147-12.935-5.147l-.063-2.692z" fill="#B75400"/><path opacity=".6" d="M68.605 381.607c-1.252.689-1.127 2.504-1.164 6.324-.15 2.513 0 5.035.45 7.513.326.889 2.58 3.894 11.508 4.871 8.929.977 12.523-1.966 13.199-3.356a99.235 99.235 0 003.08-10.018c.489-2.041-.413-2.316-.413-2.316l-.588 2.316s-3.757 3.006-13.074 2.505c-9.316-.501-12.935-5.147-12.935-5.147l-.063-2.692z" fill="#fff"/><path d="M123.515 384.938c-.876.288-.789 1.315-.45 3.368.338 2.054 1.515 6.687 1.803 8.127.288 1.44 5.597 4.37 13.399 3.431 7.801-.939 9.253-2.867 9.529-4.921.275-2.054.551-7.376.563-8.766.013-1.39-.175-1.653-1.101-1.966l-.126 2.254s-1.578 2.855-10.293 3.169c-8.716.313-12.848-2.868-12.848-2.868l-.476-1.828z" fill="#B75400"/><path opacity=".6" d="M123.515 384.938c-.876.288-.789 1.315-.45 3.368.338 2.054 1.515 6.687 1.803 8.127.288 1.44 5.597 4.37 13.399 3.431 7.801-.939 9.253-2.867 9.529-4.921.275-2.054.551-7.376.563-8.766.013-1.39-.175-1.653-1.101-1.966l-.126 2.254s-1.578 2.855-10.293 3.169c-8.716.313-12.848-2.868-12.848-2.868l-.476-1.828z" fill="#fff"/><path d="M85.322 119.541c-1.703 4.708-1.327 9.867-1.252 14.876a10.856 10.856 0 01-.751 5.009 3.927 3.927 0 01-4.157 2.304c-1.654-.425-2.505-2.905-1.165-3.969a3.641 3.641 0 00-3.607 5.142c.352.774.964 1.4 1.728 1.77-3.08.564-4.708 4.671-3.18 7.401a6.41 6.41 0 008.227 2.241c-1.14 2.617-1.903 6.136 1.503 9.191 3.017 2.705 7.788 3.156 10.017 1.39 1.954 3.569 4.258 3.031 8.328 3.081a11.736 11.736 0 0010.105-5.723c0 4.483 5.347 6.938 9.217 6.65a10.023 10.023 0 006.712-3.381 9.466 9.466 0 0015.615-8.766 8.222 8.222 0 007.26-5.685 8.226 8.226 0 00-2.577-8.853c2.805-1.253 4.583-4.033 3.206-7.126-.689 2.067-2.292 2.58-4.471 2.204-4.207-.726-5.084-4.695-5.359-7.125-.263-2.204-2.417-1.477-3.982-3.043a20.137 20.137 0 00-5.961-4.032 28.192 28.192 0 00-3.431-1.252 26.103 26.103 0 01-3.306-.814c-2.266-1.002-4.458-2.292-6.774-3.281a135.083 135.083 0 00-7.514-2.918c-5.334-1.878-12.835-5.484-18.332-2.604a13.347 13.347 0 00-6.099 7.313z" fill="#263238"/><path d="M246.797 117.738c-1.803-2.104-5.936 2.504-9.655 6.712-3.418 3.756-7.513 8.765-8.627 8.565-1.591-.213-.389-5.222-2.017-7.952-1.627-2.73-3.881-2.241-3.932.426 0 2.291-1.527 5.697-1.465 9.579 0 1.979.564 6.011-1.415 7.94-1.615 1.565-32.883 20.536-32.883 20.536s-26.059.676-33.209.401c-8.152-.313-11.27-1.252-20.7-.889-1.502 1.991 2.204 20.837 13.136 22.064 0 0 25.859-.576 35.651-.952 9.592-.363 12.109-.413 15.716-2.88a198.583 198.583 0 0018.971-14.651c8.427-6.962 12.184-9.955 13.274-10.631 3.118-1.929 6.023-2.38 8.515-3.957a24.315 24.315 0 007.438-6.374 3.602 3.602 0 00.927-2.893c-.126-.513-.439-.977-.564-1.49a17.946 17.946 0 00-.363-2.63c-.438-1.064-2.029-1.578-2.404-2.654-.163-.476 0-2.017-.301-2.405-.676-.826-1.252-.889-1.903-1.44-.376-.3-1.253-.726-1.04-1.327.213-.601 1.516-1.904 3.757-5.335 2.242-3.431 4.32-6.336 3.093-7.763z" fill="#F1C27D"/><path d="M235.89 133.365c-1.891 2.743-4.683 5.222-4.12 7.063a2.63 2.63 0 003.757 1.39 2.596 2.596 0 00.163 2.592 2.429 2.429 0 002.341.914 2.514 2.514 0 00.578 1.898 2.508 2.508 0 001.777.882c-.952.438-3.068.614-3.206-1.465 0 0-2.943-.426-2.818-2.893 0 0 0 2.78-3.631 5.009a9.224 9.224 0 002.367-5.647 3.825 3.825 0 01-2.505-2.981c-.263-2.279 5.297-6.762 5.297-6.762z" fill="#E0AC69"/><path d="M105.032 162.93l-15.026 1.553c2.504 15.966-5.372 31.919-5.372 31.919-.364 10.206-1.465 22.027 2.968 24.394.029 1.338.2 2.668.513 3.969 11.27 5.811 36.202 9.317 51.253 1.253l1.115-4.396c3.757-2.429 2.943-13.073 3.644-20.749 9.905-13.487-3.569-30.767-11.27-37.817l-9.555-.101-18.27-.025z" fill="#455A64"/><path d="M140.408 226.043l.1-4.421c-15.265 9.805-44.229 5.961-52.882-.826l-.338 3.644s3.92 6.987 25.784 7.826c21.864.839 27.336-6.223 27.336-6.223z" fill="#37474F"/><path d="M148.122 120.104a5.25 5.25 0 00-.977-3.832c-1.027-1.452-1.478-1.577-.927-3.406 1.34-4.42-.1-10.644-4.821-12.597a7.877 7.877 0 00-6.399.313 3.768 3.768 0 00-.626-.639 3.13 3.13 0 00-4.508.777 4.792 4.792 0 00-1.741-5.222 5.972 5.972 0 00-5.597-.664 7.988 7.988 0 00-4.207 3.92 2.835 2.835 0 00-1.378-3.306 4.454 4.454 0 00-3.757 0 10.928 10.928 0 00-3.168 2.229 4.223 4.223 0 00.436-3.303 4.223 4.223 0 00-2.089-2.595c.564 2.041-.951 4.12-2.742 5.222-1.791 1.102-3.907 1.64-5.71 2.742a9.688 9.688 0 00-3.406 3.657c-.99 1.878-2.091 5.71-.676 7.713-12.823 7.188-8.19 23.392-4.133 29.691 4.383 6.799 13.249 14.3 13.286 16.98l32.558-33.51s2.768 4.333 5.923 4.546c3.156.213 3.507-2.304 3.507-2.304a1.442 1.442 0 01-2.505-1.253c.413-1.54 3.231-2.229 3.657-5.159z" fill="#263238"/><path d="M134.297 110.587c4.032 1.804 7.814 8.052 7.513 25.396-.213 14.701-4.771 18.37-7.062 19.434-2.292 1.064-6.725.463-11.032-.25l-.075 7.788h4.595s9.329 11.621-2.504 12.748c-17.456 1.678-26.66-12.222-26.66-12.222l5.873-.601-.1-19.284a6.165 6.165 0 01-6.863-.438c-3.756-2.905-4.808-8.641-2.066-11.596 2.743-2.955 6.261-3.143 9.342.226a30.296 30.296 0 0017.819-4.22c9.016-5.385 10.281-11.346 11.22-16.981z" fill="#F1C27D"/><path d="M105.408 126.779v9.83a4.62 4.62 0 004.443-2.875 4.628 4.628 0 00.341-1.834 5.072 5.072 0 00-4.784-5.121zm29.665 3.744a1.96 1.96 0 001.179 1.804 1.953 1.953 0 10.862-3.745 1.972 1.972 0 00-1.426.544 1.96 1.96 0 00-.447.637 1.969 1.969 0 00-.168.76zm-14.012 1.59a2.102 2.102 0 002.463 2.096 2.108 2.108 0 001.614-2.803 2.108 2.108 0 00-1.873-1.372 2.146 2.146 0 00-2.017 1.264 2.127 2.127 0 00-.187.815z" fill="#263238"/><path d="M123.302 143.12l7.038 2.267a3.608 3.608 0 01-4.546 2.667 4.06 4.06 0 01-2.492-4.934z" fill="#C68642"/><path d="M127.234 148.192a3.5 3.5 0 00-1.009-2.462 3.512 3.512 0 00-2.447-1.045 4.806 4.806 0 00-.588 0 3.935 3.935 0 002.604 3.319 3.36 3.36 0 001.44.188z" fill="#E0AC69"/><path d="M139.882 126.503l-4.796-2.504a2.59 2.59 0 013.619-1.177 2.802 2.802 0 011.177 3.681z" fill="#263238"/><path d="M129.814 130.034l1.503 11.984 6.298-2.542-7.801-9.442zm-6.048 25.133c-4.546-.576-13.912-3.306-15.403-7.138a10.084 10.084 0 003.319 4.884c2.805 2.504 12.059 5.096 12.059 5.096l.025-2.842z" fill="#E0AC69"/><path d="M124.742 232.229c-.425-.564-1.74.613-4.545 1.252-3.581.789-5.009.664-8.766 1.653-1.704.581-3.484.91-5.284.977l13.774 2.842a15.466 15.466 0 003.882-2.367 3.266 3.266 0 00.939-4.357z" fill="#F1C27D"/><path d="M171.137 200.873l-44.879 10.293-12.948 57.164.839 1.127 42.763-10.644L171.976 202l-.839-1.127z" fill="#B75400"/><path d="M171.976 202l-44.867 10.306-12.96 57.151 42.763-10.644L171.976 202z" fill="#B75400"/><path opacity=".25" d="M127.109 212.306l-12.96 57.151-.839-1.127 12.948-57.164.851 1.14z" fill="#000"/><path opacity=".35" d="M171.976 202l-44.867 10.306-12.96 57.151 42.763-10.644L171.976 202z" fill="#000"/><path opacity=".1" d="M157.801 211.091s.238-.764.551-1.69c.313-.927-2.291-.714-5.785.475l-8.052 1.466c-3.494 1.252-6.762 2.003-7.075 2.93l-.551 1.678 20.912-4.859z" fill="#000"/><path d="M161.232 203.578c.201-.576-.801-.564-2.216-.363l-2.58.563s1.253-2.379-4.771-1.453c-6.661 1.015-7.175 4.233-7.175 4.233-1.061.32-2.14.58-3.231.776-2.229.451-2.504.839-2.767 1.428l-.438 1.052 22.865-5.235s.126-.45.313-1.001z" fill="#37474F"/><path d="M154.934 209.388l.1-.326c.476-1.44 1.252-1.402 3.356-2.091l.889-2.078-18.395 4.207-.714 2.004c2.091-.689 3.606-.514 3.356.288 0 .15-.113.35-.188.576-2.767.889-5.009 1.577-5.322 2.354l-.551 1.678 20.912-4.871.551-1.678c.251-.764-1.452-.739-3.994-.063z" fill="#263238"/><path d="M129.751 239.028a52.556 52.556 0 01-9.78-.087l-13.774-2.843c-2.667 0-8.766-1.69-15.453-4.395a109.654 109.654 0 01-12.71-5.836 284.78 284.78 0 0110.67-29.59c5.785-8.114 8.627-24.481 2.203-31.894-11.495-.576-15.515 5.334-20.035 16.554-3.093 7.739-11.997 35.163-14.388 44.605-1.378 5.422-1.916 10.205 3.994 13.574 5.26 3.005 21.726 8.265 33.372 11.57a99.711 99.711 0 0017.744 3.657c13.837 1.252 17.794.275 21.363-4.521 1.54-2.066 1.954-5.209 3.256-6.912 1.302-1.703 1.703-2.429 1.252-3.343-.952-1.854-3.293-.927-7.714-.539z" fill="#F1C27D"/><path d="M77.984 225.867s-6.724-2.855-11.533-1.052c0 0 3.206-3.756 12.097-.826l-.564 1.878z" fill="#E0AC69"/><path d="M498.657 154.979v18.671L487.3 191.757c-4.008-5.134-2.83-17.945 3.418-28.088 2.542-4.082 4.784-6.699 7.939-8.69z" fill="#E0E0E0"/><path d="M514.072 171.446c-2.254 11.345-10.08 21.888-17.794 23.792a7.582 7.582 0 01-7.664-1.878l11.421-18.471 14.037-3.443zm.288-1.966l-13.449 3.293 7.514-19.848c4.846 1.816 7.112 8.165 5.935 16.555z" fill="#B75400"/><path d="M507.047 152.787l-6.812 17.907v-16.667a9.504 9.504 0 016.812-1.24z" fill="#E0E0E0"/><path d="M392.331 482.474a.883.883 0 010-.126l1.59-5.898-2.191 1.253a.166.166 0 01-.151 0v-1.14a.445.445 0 01.201-.376l3.531-2.041a.14.14 0 01.138 0 .177.177 0 01.05.068.167.167 0 01.012.083v.914a2.15 2.15 0 01-.125.576l-1.603 5.898a1.018 1.018 0 01-.075.213.31.31 0 01-.138.15l-1.039.601a.113.113 0 01-.125 0 .15.15 0 01-.075-.175zm5.898-10.168c.285-.187.612-.299.951-.326a.89.89 0 01.664.2c.193.162.329.382.388.626.091.302.146.613.163.927v1.753a7.004 7.004 0 01-.163 1.115 4.27 4.27 0 01-.388 1.077 4.423 4.423 0 01-.664.964 3.879 3.879 0 01-.951.764 2.198 2.198 0 01-.952.338 1.056 1.056 0 01-.664-.201 1.255 1.255 0 01-.388-.626 3.509 3.509 0 01-.15-.939v-1.753c.014-.375.064-.749.15-1.114a5.02 5.02 0 01.388-1.077 4.49 4.49 0 01.664-.952c.274-.308.595-.57.952-.776zm.789 3.919v-1.653a2.166 2.166 0 000-.426.697.697 0 00-.126-.275.288.288 0 00-.237-.113.786.786 0 00-.376.125 1.46 1.46 0 00-.363.301 1.758 1.758 0 00-.238.388 1.529 1.529 0 00-.138.426 3.312 3.312 0 000 .488v1.653a2.166 2.166 0 000 .426.695.695 0 00.125.288.377.377 0 00.251.1.739.739 0 00.363-.125c.278-.152.495-.395.613-.689a2.12 2.12 0 00.138-.426 3.06 3.06 0 00-.012-.488zm4.332-5.422v.751c-.01.203-.04.404-.087.601a3.515 3.515 0 01-.213.564 2.082 2.082 0 01-.363.501c-.144.16-.313.295-.501.4a1.261 1.261 0 01-.501.188.468.468 0 01-.351-.1.65.65 0 01-.225-.313 2.753 2.753 0 01-.088-.501v-.751a5.06 5.06 0 01.088-.601c.053-.196.129-.385.225-.564a2.01 2.01 0 01.351-.501c.144-.16.313-.295.501-.4a1.25 1.25 0 01.501-.188.559.559 0 01.363.1c.1.086.174.199.213.326.051.157.081.322.087.488zm1.841-2.229c.032-.07.07-.137.113-.2a.435.435 0 01.163-.138l.601-.351a.123.123 0 01.125 0 .125.125 0 01.013.057.124.124 0 01-.013.056v.125l-3.657 8.515c0 .088-.075.151-.1.201a.63.63 0 01-.163.15l-.601.35h-.137a.12.12 0 010-.112.158.158 0 010-.075l3.656-8.578zm-3.306 3.757a.88.88 0 00.075.35h.226a.463.463 0 00.138-.102.452.452 0 00.087-.148c.05-.137.075-.281.075-.426a5.438 5.438 0 000-.651.595.595 0 00-.075-.338c0-.059-.075-.059-.225 0a.476.476 0 00-.226.25 1.804 1.804 0 00-.075.426 5.89 5.89 0 000 .651v-.012zm4.896-.076v.752a4.678 4.678 0 01-.087.601 3.06 3.06 0 01-.213.563 2.927 2.927 0 01-.363.514 2.278 2.278 0 01-.501.4 1.49 1.49 0 01-.501.176.503.503 0 01-.363-.1.669.669 0 01-.213-.313 1.818 1.818 0 01-.088-.501 3.662 3.662 0 010-.363v-.389c.01-.198.04-.395.088-.588.052-.199.123-.392.213-.576.098-.183.22-.351.363-.501a2.02 2.02 0 01.501-.401c.149-.1.322-.16.501-.175a.457.457 0 01.35.088.787.787 0 01.226.325c.046.164.075.331.087.501v-.013zm-1.465 1.553a.692.692 0 00.075.338c0 .059.076.059.226 0a.46.46 0 00.225-.263c.044-.138.069-.281.075-.425a5.455 5.455 0 000-.652.828.828 0 00-.075-.338c0-.066-.075-.066-.225 0a.472.472 0 00-.226.263 1.29 1.29 0 00-.075.426 5.657 5.657 0 000 .664v-.013z" fill="#455A64"/><path d="M393.52 463.202l-1.552-4.546a41.86 41.86 0 00-7.902 11.183l4.007 1.039a30.064 30.064 0 015.447-7.676z" fill="#E0E0E0"/><path d="M393.721 456.152l1.678 5.009a22.645 22.645 0 013.756-2.718 14.574 14.574 0 013.757-1.552l1.678-6.963a20.468 20.468 0 00-5.385 2.229 31.341 31.341 0 00-5.484 3.995zm16.366 2.053l4.408-6.261a10.199 10.199 0 00-8.703-2.304l-1.69 6.975a7.35 7.35 0 015.985 1.59z" fill="#B75400"/><path d="M387.359 472.443l-4.007-1.039a34.248 34.248 0 00-3.005 12.447l4.934-2.843a25.062 25.062 0 012.078-8.565zm-2.078 9.981l-5.009 2.855a13.924 13.924 0 003.018 8.966l4.007-5.648a10.018 10.018 0 01-2.016-6.173z" fill="#E0E0E0"/><path d="M388.111 491.277l-4.396 6.261a10.252 10.252 0 008.703 2.304l1.691-6.975a7.378 7.378 0 01-5.998-1.59zm10.994-.251a15.212 15.212 0 01-3.756 1.553l-1.678 6.962a20.608 20.608 0 005.384-2.228 31.246 31.246 0 005.385-3.995l-1.678-5.009a22.52 22.52 0 01-3.657 2.717zm4.997-3.957l1.69 5.009a45.915 45.915 0 008.703-12.359l-4.408-1.152a33.146 33.146 0 01-5.985 8.502zm9.078-21.237l5.46-3.156c-.138-4.295-1.34-7.664-3.331-9.905l-4.42 6.261a11.105 11.105 0 012.291 6.8zm-2.291 11.019l4.42 1.152a37.834 37.834 0 003.331-13.774l-5.46 3.143a26.966 26.966 0 01-2.291 9.479z" fill="#B75400"/><path d="M222.917 330.328h-.15a.6.6 0 01-.426-.739l3.606-13.198a1.56 1.56 0 011.04-1.165 1.492 1.492 0 011.44.439l1.866 1.803c.125.125.263.188.338.163.075-.026.163-.101.238-.314l7.075-20.348a1.25 1.25 0 011.052-.989c.3 0 .851 0 1.327.876l6.411 11.095a.701.701 0 00.263.3c.039-.051.072-.105.101-.162l6.787-14.351a1.324 1.324 0 011.139-.851 1.549 1.549 0 011.353.901l7.212 12.522a.596.596 0 01-.023.686.59.59 0 01-.41.238.594.594 0 01-.606-.323l-7.213-12.522a.946.946 0 00-.263-.3s0 .062-.1.162l-6.787 14.376a1.362 1.362 0 01-1.14.864 1.55 1.55 0 01-1.352-.914l-6.411-11.082a1.39 1.39 0 00-.151-.213.653.653 0 000 .125l-7.037 20.336a1.631 1.631 0 01-1.09 1.09 1.575 1.575 0 01-1.452-.476l-1.879-1.803a.448.448 0 00-.275-.151s-.138.113-.2.326l-3.607 13.198a.602.602 0 01-.676.401z" fill="#E0E0E0"/><path d="M263.076 324.13v-11.383l-7.225-9.216c-.439-.777-.99-.739-1.253.075l-7.225 23.103c-.213.814-.764.852-1.252.075l-6.399-11.094c-.451-.777-1.027-.764-1.252 0l-7.038 20.336c-.275.776-.776.714-1.114-.125l-2.78-6.95c-.338-.852-.802-.889-1.015-.075l-3.606 13.211v5.209l40.159-23.166zm-24.068-29.929c1.315-.751 2.379-.137 2.379 1.378a5.275 5.275 0 01-2.379 4.132c-1.327.764-2.392.15-2.392-1.377a5.275 5.275 0 012.392-4.133z" fill="#B75400"/><path d="M221.439 355.097a.592.592 0 01-.513-.3.598.598 0 01-.065-.452.584.584 0 01.278-.362l46.958-27.111a.614.614 0 01.458-.066.597.597 0 01.369.279.607.607 0 01-.037.67.61.61 0 01-.176.156l-46.959 27.111a.666.666 0 01-.313.075z" fill="#E0E0E0"/><path d="M244.681 365.115a.59.59 0 01-.601-.601v-23.479a.628.628 0 011.069-.443.628.628 0 01.183.443v23.441a.592.592 0 01-.651.639z" fill="#E0E0E0"/><path d="M315.507 142.882a15.95 15.95 0 00-4.583 1.841c-10.194 5.886-18.471 22.34-18.471 36.753s8.265 21.288 18.471 15.44c8.627-5.009 15.84-17.531 17.881-29.953l-5.084 1.089c-1.465 8.903-6.637 17.869-12.797 21.413-7.288 4.195-13.199-.739-13.186-11.045.012-10.305 5.91-22.051 13.186-26.296a11.93 11.93 0 013.268-1.253l1.252-7.951" fill="#B75400"/><path d="M310.924 159.625c4.37-2.505 7.914.45 7.914 6.624 0 6.173-3.544 13.236-7.914 15.753-4.371 2.517-7.915-.438-7.915-6.612 0-6.173 3.544-13.236 7.915-15.765zm20.999-2.38c0-12.171-5.91-18.971-13.887-17.243l-1.252 7.977c5.71-1.252 9.93 3.619 9.93 12.322a30.513 30.513 0 01-.426 4.846l5.109-1.102c.36-2.249.536-4.523.526-6.8z" fill="#E0E0E0"/><path d="M307.818 233.907l-5.397 3.118v39.758l5.397-3.118v-39.758zm30.366 3.606l-5.384 3.106v18.62l5.384-3.105v-18.621zm-7.588-5.923l-5.397 3.106v28.926l5.397-3.106V231.59zm-7.589 18.157l-5.397 3.106v15.152l5.397-3.106v-15.152zm-7.601-.45l-5.384 3.105V272.4l5.384-3.118v-19.985z" fill="#B75400"/><path d="M299.115 283.132a.593.593 0 01-.58-.754.602.602 0 01.279-.361l46.959-27.098a.612.612 0 01.46-.058.6.6 0 01.425.743.604.604 0 01-.284.367l-46.958 27.111a.688.688 0 01-.301.05z" fill="#E0E0E0"/><path d="M322.344 293.162a.6.6 0 01-.601-.601v-23.442a.625.625 0 111.252 0v23.442a.61.61 0 01-.193.444.614.614 0 01-.458.157zm156.127-180.508h-.1l-23.441-3.381a.577.577 0 01-.489-.652.588.588 0 01.651-.488l23.442 3.381a.587.587 0 01.488.651.565.565 0 01-.551.489zm36.515 129.968h-.1l-29.001-4.533a.59.59 0 01-.489-.651.568.568 0 01.233-.376.582.582 0 01.431-.1l29.064 4.521a.558.558 0 01.48.425.555.555 0 01.008.226.575.575 0 01-.626.488zm-102.983-48.999a.566.566 0 01-.501-.313.58.58 0 01.238-.777l18.22-9.454a.57.57 0 01.637.074.583.583 0 01.201.393.582.582 0 01-.312.56l-18.22 9.454a.632.632 0 01-.263.063zm-22.152 48.548a.562.562 0 01-.563-.576v-16.729a.579.579 0 01.33-.609.582.582 0 01.48 0 .581.581 0 01.329.609v16.754a.55.55 0 01-.173.395.56.56 0 01-.403.156zm71.164 179.106a.555.555 0 01-.25 0l-52.919-26.472a.576.576 0 01.501-1.027l52.931 26.435a.562.562 0 01-.263 1.077v-.013zM263.514 492.98a.548.548 0 01-.438-.201l-20.123-24.005a.576.576 0 01.876-.739l20.124 24.006a.588.588 0 01.131.422.591.591 0 01-.064.217.562.562 0 01-.506.3zm24.632 5.622a.553.553 0 01-.451-.225.558.558 0 01-.048-.634.564.564 0 01.148-.167l21.651-16.693a.589.589 0 01.814.101.575.575 0 01-.113.801l-21.651 16.705a.589.589 0 01-.35.112zm46.044-327.845c-.313 0-.564-.163-.576-.363-.013-.201.25-.363.576-.363l37.316-.251c.313 0 .576.163.576.363 0 .201-.25.363-.563.363l-37.317.251h-.012zm64.039 275.753a.574.574 0 01-.576-.564l-.489-41.223a.592.592 0 01.576-.589.578.578 0 01.576.576l.489 41.224a.577.577 0 01-.576.576zm84.826-220.079h-.163a.552.552 0 01-.338-.278.552.552 0 01-.038-.436l8.202-26.697a.571.571 0 01.265-.398.576.576 0 01.825.736l-8.202 26.697a.577.577 0 01-.551.376z" fill="#E0E0E0"/><path d="M390.553 408.354a9.664 9.664 0 01-4.909-1.252c-3.519-2.029-5.447-6.173-5.447-11.683 0-10.744 7.513-23.793 16.855-29.202 4.771-2.755 9.329-3.156 12.848-1.14 3.518 2.016 5.434 6.186 5.434 11.696 0 10.732-7.513 23.792-16.855 29.202a16.124 16.124 0 01-7.926 2.379zm14.425-41.724a13.28 13.28 0 00-6.499 2.029c-8.515 4.908-15.44 16.905-15.44 26.735 0 4.445 1.428 7.726 4.02 9.216 2.592 1.49 6.136 1.09 10.018-1.127 8.515-4.921 15.44-16.905 15.44-26.735 0-4.458-1.428-7.726-4.02-9.229a6.943 6.943 0 00-3.519-.889z" fill="#E0E0E0"/><path d="M397.765 375.058c5.272-3.043 9.53-.576 9.53 5.509a21.047 21.047 0 01-9.53 16.505c-5.259 3.043-9.529.576-9.529-5.498a21.08 21.08 0 019.529-16.516z" fill="#B75400"/><path d="M316.483 486.105a9.67 9.67 0 01-4.908-1.252c-3.519-2.029-5.447-6.174-5.447-11.683 0-10.732 7.513-23.793 16.854-29.202 4.784-2.755 9.342-3.156 12.848-1.127 3.507 2.028 5.435 6.173 5.435 11.683 0 10.731-7.513 23.792-16.855 29.202a16.016 16.016 0 01-7.927 2.379zm7.927-39.696c-8.515 4.909-15.44 16.905-15.44 26.735 0 4.446 1.428 7.727 4.02 9.217 2.592 1.49 6.148 1.102 10.017-1.127 8.516-4.909 15.44-16.905 15.44-26.735 0-4.446-1.427-7.726-4.019-9.217-2.592-1.49-6.136-1.102-10.018 1.127z" fill="#E0E0E0"/><path d="M323.696 452.771c5.272-3.031 9.53-.564 9.53 5.51a21.031 21.031 0 01-9.53 16.504c-5.259 3.043-9.529.576-9.529-5.497a21.09 21.09 0 019.529-16.517z" fill="#B75400"/><path d="M232.446 475.887a7.286 7.286 0 01-3.756-.952c-2.63-1.515-4.082-4.633-4.082-8.765 0-8.052 5.672-17.87 12.647-21.902 3.581-2.066 7-2.367 9.63-.851 2.629 1.515 4.082 4.633 4.082 8.765 0 8.052-5.673 17.882-12.648 21.902a11.975 11.975 0 01-5.873 1.803zm10.807-31.306a9.889 9.889 0 00-4.871 1.515c-6.374 3.682-11.571 12.673-11.571 20.036 0 3.331 1.065 5.785 3.006 6.912 1.941 1.127 4.608.827 7.513-.851 6.387-3.682 11.583-12.673 11.583-20.036 0-3.331-1.077-5.785-3.018-6.912a5.131 5.131 0 00-2.642-.639v-.025z" fill="#E0E0E0"/><path d="M237.856 450.917c3.945-2.279 7.15-.425 7.15 4.133a15.81 15.81 0 01-7.15 12.384c-3.957 2.279-7.15.426-7.15-4.132a15.778 15.778 0 017.15-12.385z" fill="#B75400"/><path d="M278.203 426.574a7.516 7.516 0 01-3.757-.977c-2.692-1.552-4.182-4.745-4.182-8.978 0-8.252 5.81-18.32 12.96-22.452 3.669-2.117 7.176-2.417 9.868-.864 2.692 1.552 4.182 4.746 4.182 8.978 0 8.252-5.81 18.32-12.96 22.452a12.297 12.297 0 01-6.111 1.841zm6.073-30.504c-6.536 3.757-11.858 12.998-11.858 20.549 0 3.419 1.102 5.936 3.093 7.088 1.991 1.152 4.708.839 7.676-.877 6.536-3.757 11.871-12.986 11.871-20.549 0-3.419-1.102-5.936-3.093-7.088-1.991-1.152-4.721-.839-7.689.877z" fill="#E0E0E0"/><path d="M283.75 400.991c4.045-2.341 7.326-.438 7.326 4.233a16.177 16.177 0 01-7.326 12.685c-4.044 2.341-7.325.438-7.325-4.233a16.177 16.177 0 017.325-12.685z" fill="#B75400"/><path d="M326.025 404.147a5.917 5.917 0 01-3.017-.777c-2.154-1.252-3.331-3.756-3.331-7.175 0-6.587 4.633-14.626 10.343-17.919 2.93-1.691 5.723-1.929 7.876-.689 2.154 1.24 3.331 3.757 3.331 7.175 0 6.587-4.633 14.614-10.343 17.907a9.732 9.732 0 01-4.859 1.478zm4.859-24.356a20.969 20.969 0 00-9.467 16.404c0 2.73.877 4.746 2.505 5.66 1.628.914 3.756.676 6.136-.688a20.983 20.983 0 009.466-16.405c0-2.729-.876-4.746-2.504-5.66-1.628-.914-3.757-.676-6.136.689z" fill="#E0E0E0"/><path d="M330.458 383.723c3.231-1.866 5.848-.351 5.848 3.381a12.916 12.916 0 01-5.848 10.131c-3.23 1.865-5.848.35-5.848-3.381a12.93 12.93 0 015.848-10.131z" fill="#B75400"/><path d="M239.672 389.871a6.005 6.005 0 01-3.018-.776c-2.154-1.252-3.343-3.757-3.343-7.175 0-6.587 4.645-14.626 10.343-17.92 2.93-1.69 5.723-1.941 7.876-.688 2.154 1.252 3.344 3.756 3.344 7.162 0 6.587-4.646 14.626-10.344 17.92a9.93 9.93 0 01-4.858 1.477zm4.858-24.355a20.955 20.955 0 00-9.466 16.404c0 2.73.876 4.733 2.504 5.66 1.628.927 3.757.664 6.123-.701a20.935 20.935 0 009.467-16.405c0-2.729-.864-4.733-2.504-5.66-1.641-.926-3.757-.663-6.136.702h.012z" fill="#E0E0E0"/><path d="M244.092 369.448c3.231-1.866 5.848-.351 5.848 3.368a12.916 12.916 0 01-5.848 10.131c-3.231 1.865-5.848.363-5.848-3.369a12.922 12.922 0 015.848-10.13z" fill="#B75400"/><path d="M440.804 361.646a4.07 4.07 0 01-2.078-.538 5.341 5.341 0 01-2.292-4.934 15.782 15.782 0 017.113-12.334 4.728 4.728 0 015.436-.498 4.73 4.73 0 012.29 4.956 15.747 15.747 0 01-7.125 12.334 6.737 6.737 0 01-3.344 1.014zm3.344-16.767a14.394 14.394 0 00-6.512 11.27 3.566 3.566 0 001.689 3.898 3.573 3.573 0 004.222-.479 14.434 14.434 0 006.524-11.27 3.586 3.586 0 00-.213-2.225 3.586 3.586 0 00-3.678-2.122 3.583 3.583 0 00-2.032.928z" fill="#E0E0E0"/><path d="M443.885 347.584c2.229-1.252 4.032-.251 4.032 2.329a8.893 8.893 0 01-4.032 6.975c-2.217 1.252-4.02.238-4.02-2.329a8.895 8.895 0 014.02-6.975z" fill="#B75400"/><path d="M474.777 357.138a4.132 4.132 0 01-2.066-.538 5.38 5.38 0 01-2.304-4.947 15.747 15.747 0 017.125-12.334 4.747 4.747 0 017.726 4.508 15.75 15.75 0 01-7.125 12.335 6.816 6.816 0 01-3.356.976zm6.099-17.631a5.63 5.63 0 00-2.743.851 14.46 14.46 0 00-6.524 11.27 3.576 3.576 0 00.214 2.224 3.576 3.576 0 003.677 2.123 3.583 3.583 0 002.032-.928 14.418 14.418 0 006.524-11.27 4.26 4.26 0 00-1.703-3.894 2.937 2.937 0 00-1.477-.376z" fill="#E0E0E0"/><path d="M477.833 343.063c2.216-1.252 4.019-.238 4.019 2.329a8.907 8.907 0 01-4.019 6.975c-2.229 1.252-4.032.251-4.032-2.329a8.893 8.893 0 014.032-6.975z" fill="#B75400"/><path d="M207.527 434.889a4.096 4.096 0 01-2.079-.538 5.349 5.349 0 01-1.829-2.151 5.344 5.344 0 01-.475-2.783 15.764 15.764 0 017.126-12.335 4.743 4.743 0 015.424-.476 4.75 4.75 0 012.302 4.934 15.764 15.764 0 01-7.125 12.335 6.764 6.764 0 01-3.344 1.014zm3.344-16.767a14.43 14.43 0 00-6.525 11.27 3.584 3.584 0 003.891 4.346 3.589 3.589 0 002.033-.928 14.467 14.467 0 006.524-11.27 3.584 3.584 0 00-3.891-4.346 3.576 3.576 0 00-2.032.928z" fill="#E0E0E0"/><path d="M210.57 420.826c2.229-1.252 4.032-.237 4.032 2.33a8.901 8.901 0 01-4.032 6.975c-2.216 1.252-4.02.237-4.02-2.33a8.938 8.938 0 014.02-6.975z" fill="#B75400"/><path d="M306.04 357.301a4.225 4.225 0 01-2.079-.538 5.382 5.382 0 01-2.291-4.947 15.776 15.776 0 017.112-12.334 4.75 4.75 0 015.424-.477 4.741 4.741 0 012.302 4.935 15.731 15.731 0 01-2.083 7.016 15.74 15.74 0 01-5.029 5.318 6.85 6.85 0 01-3.356 1.027zm3.343-16.78a14.446 14.446 0 00-6.511 11.27 3.566 3.566 0 001.689 3.899 3.564 3.564 0 004.221-.48 14.383 14.383 0 006.524-11.27 3.583 3.583 0 00-3.89-4.347 3.589 3.589 0 00-2.033.928z" fill="#E0E0E0"/><path d="M309.083 343.239c2.229-1.253 4.032-.251 4.032 2.316a8.877 8.877 0 01-4.032 6.975c-2.217 1.252-4.02.251-4.02-2.317a8.897 8.897 0 014.02-6.974z" fill="#B75400"/><path d="M352.648 293.951a4.02 4.02 0 01-2.079-.539 5.324 5.324 0 01-2.304-4.933 15.75 15.75 0 017.125-12.335 4.748 4.748 0 017.353 1.628c.412.883.542 1.871.373 2.83a15.759 15.759 0 01-7.125 12.335 6.757 6.757 0 01-3.343 1.014zm6.086-17.619c-.974.036-1.92.33-2.743.852a14.45 14.45 0 00-4.605 4.857 14.447 14.447 0 00-1.919 6.413 3.584 3.584 0 001.704 3.888 3.576 3.576 0 004.219-.47 14.457 14.457 0 006.524-11.27 4.221 4.221 0 00-1.703-3.894 2.914 2.914 0 00-1.477-.376z" fill="#E0E0E0"/><path d="M355.653 279.888c2.229-1.252 4.032-.25 4.032 2.33a8.893 8.893 0 01-4.032 6.974c-2.229 1.253-4.032.238-4.032-2.329a8.88 8.88 0 014.032-6.975z" fill="#B75400"/><path d="M376.59 353.907a4.21 4.21 0 01-2.078-.538 5.372 5.372 0 01-1.818-2.162 5.377 5.377 0 01-.474-2.784 15.77 15.77 0 017.113-12.335 4.746 4.746 0 017.726 4.458 15.82 15.82 0 01-7.113 12.347 6.957 6.957 0 01-3.356 1.014zm3.356-16.779a14.415 14.415 0 00-6.524 11.27 3.58 3.58 0 005.923 3.418 14.42 14.42 0 006.512-11.27 3.573 3.573 0 00-1.689-3.898 3.572 3.572 0 00-4.222.48z" fill="#E0E0E0"/><path d="M379.646 339.832c2.216-1.252 4.019-.237 4.019 2.33a8.903 8.903 0 01-4.019 6.975c-2.229 1.252-4.032.25-4.032-2.317a8.892 8.892 0 014.032-6.988z" fill="#B75400"/><path d="M382.551 267.441a5.794 5.794 0 01-2.943-.764c-2.104-1.252-3.268-3.756-3.268-7.012 0-6.437 4.545-14.288 10.118-17.531 2.855-1.653 5.597-1.891 7.701-.676 2.104 1.214 3.256 3.756 3.256 6.999 0 6.437-4.533 14.301-10.106 17.532a9.735 9.735 0 01-4.758 1.452zm8.653-25.044a7.992 7.992 0 00-3.895 1.252 20.477 20.477 0 00-9.254 16.028c0 2.668.852 4.634 2.405 5.535 1.552.902 3.681.651 5.998-.676a20.523 20.523 0 009.266-16.028c0-2.668-.851-4.634-2.404-5.523a4.108 4.108 0 00-2.116-.588z" fill="#E0E0E0"/><path d="M390.925 256.439c2.233-3.869 2.233-8.052-.001-9.341-2.234-1.29-5.856.801-8.09 4.67-2.233 3.869-2.233 8.051.001 9.341 2.234 1.29 5.856-.801 8.09-4.67z" fill="#B75400"/><path d="M405.504 365.804h-.188a.593.593 0 01-.363-.739l23.667-68.259a.577.577 0 011.09.376l-23.667 68.259a.576.576 0 01-.539.363zm-14.626 7.939a.553.553 0 01-.513-.338l-9.667-21.889a.56.56 0 01.106-.623.57.57 0 01.933.159l9.717 21.889a.565.565 0 01-.288.752.52.52 0 01-.288.05zm23.041 3.569a.626.626 0 01-.438-.188.59.59 0 010-.814l23.154-20.562a.572.572 0 01.861-.004.582.582 0 01.144.45.58.58 0 01-.242.406l-23.153 20.574a.542.542 0 01-.326.138zm57.415-27.65l-20.649-.826a.578.578 0 01-.551-.589.602.602 0 01.601-.551l20.611.789a.593.593 0 01.4.187.558.558 0 01.151.414.55.55 0 01-.16.407.555.555 0 01-.403.169zm-90.161-13.148a.575.575 0 01-.526-.613l5.711-70.651a.59.59 0 01.626-.526.575.575 0 01.526.614l-5.723 70.65a.577.577 0 01-.614.526zm-66.217 4.546a.55.55 0 01-.338-.113.573.573 0 01-.233-.374.569.569 0 01.107-.427l35.238-48.124a.576.576 0 01.927.677l-35.238 48.123a.556.556 0 01-.463.238zm11.407 41.937a.578.578 0 01-.513-.301l-14.576-28.325a.574.574 0 01.208-.84.585.585 0 01.474-.025.564.564 0 01.332.339l14.564 28.325a.565.565 0 01-.489.827zm9.254 61.947a.561.561 0 01-.565-.711.559.559 0 01.19-.29l47.735-41.549a.576.576 0 01.751.864l-47.735 41.549a.563.563 0 01-.376.137zm-11.921.802h-.087a.58.58 0 01-.469-.439.568.568 0 01-.007-.225l6.749-43.252a.606.606 0 01.664-.476.563.563 0 01.476.652l-6.75 43.251a.587.587 0 01-.576.489zm-5.848 4.646a.566.566 0 01-.4-.176l-29.415-29.753a.57.57 0 01-.183-.661.573.573 0 01.579-.367.58.58 0 01.418.227l29.465 29.753a.579.579 0 01-.213.95.562.562 0 01-.251.027zm-9.041 15.389h-.1l-55.499-9.542a.557.557 0 01-.463-.663.558.558 0 01.226-.372.553.553 0 01.425-.092l55.499 9.542a.577.577 0 01.476.652.564.564 0 01-.564.475zm-69.912-20.524a.57.57 0 01-.509-.39.584.584 0 01-.029-.223l4.22-56.538a.56.56 0 01.391-.502.575.575 0 01.749.589l-4.208 56.538a.575.575 0 01-.614.526zm-7.826 6.825a.557.557 0 01-.426-.188l-18.119-20.035a.577.577 0 010-.814.587.587 0 01.814 0l18.119 20.035a.565.565 0 01-.426.952l.038.05zm229.909-61.271h-.138a.249.249 0 01-.15-.326l12.873-34.136a.247.247 0 01.227-.166.25.25 0 01.098.016c.138 0 .313.288.263.413l-12.835 34.161c-.038.075-.238.038-.338.038zm31.581-23.317a.247.247 0 01-.213-.113l-10.694-15.49a.261.261 0 01.153-.403.253.253 0 01.26.103l10.707 15.502a.262.262 0 01.036.192.262.262 0 01-.039.091.274.274 0 01-.072.068.184.184 0 01-.138.05zm-116.945-26.772c-.088 0-.414.087-.451 0l-15.59-30.167c-.063-.125.212-.413.338-.475a.26.26 0 01.35.1l15.578 30.166a.262.262 0 01-.113.35l-.112.026zm-63.989-1.353c-.138 0-.439-.2-.413-.338l10.631-45.543c0-.138.388-.188.526-.151a.237.237 0 01.195.202.254.254 0 01-.007.099l-10.732 45.531a.258.258 0 01-.071.129.258.258 0 01-.129.071zm23.642 38.594h-.1a.248.248 0 01-.161-.239.256.256 0 01.023-.099l8.928-21.176a.263.263 0 01.338-.137c.126.062.439.112.389.238l-8.929 21.175a.943.943 0 01-.488.238z" fill="#E0E0E0"/><path d="M460.978 385.914c2.216-1.252 4.019-.25 4.019 2.317a8.907 8.907 0 01-4.019 6.975c-2.229 1.252-4.032.25-4.032-2.317a8.868 8.868 0 014.032-6.975zm-100.955-81.206c2.567-1.478 4.634-.276 4.634 2.679a10.22 10.22 0 01-4.634 8.027c-2.504 1.478-4.633.276-4.633-2.68a10.253 10.253 0 014.633-8.026zm-15.828 47.722c1.954-1.127 3.544-.213 3.544 2.054a7.83 7.83 0 01-3.544 6.135c-1.953 1.127-3.544.213-3.544-2.041a7.875 7.875 0 013.544-6.148zm-21.851-62.937c1.966-1.14 3.544-.213 3.544 2.041a7.794 7.794 0 01-3.544 6.136c-1.954 1.127-3.544.213-3.544-2.041a7.828 7.828 0 013.544-6.136zm170.215 74.633c1.49-.864 2.692-.163 2.692 1.552a5.939 5.939 0 01-2.692 4.671c-1.49.864-2.705.163-2.705-1.553a5.985 5.985 0 012.705-4.67z" fill="#B75400"/><path opacity=".25" d="M397.765 375.058c5.272-3.043 9.53-.576 9.53 5.509a21.047 21.047 0 01-9.53 16.505c-5.259 3.043-9.529.576-9.529-5.498a21.08 21.08 0 019.529-16.516zm-74.069 77.713c5.272-3.031 9.53-.564 9.53 5.51a21.031 21.031 0 01-9.53 16.504c-5.259 3.043-9.529.576-9.529-5.497a21.09 21.09 0 019.529-16.517zm-85.84-1.854c3.945-2.279 7.15-.425 7.15 4.133a15.81 15.81 0 01-7.15 12.384c-3.957 2.279-7.15.426-7.15-4.132a15.778 15.778 0 017.15-12.385zm45.894-49.926c4.045-2.341 7.326-.438 7.326 4.233a16.177 16.177 0 01-7.326 12.685c-4.044 2.341-7.325.438-7.325-4.233a16.177 16.177 0 017.325-12.685zm46.708-17.268c3.231-1.866 5.848-.351 5.848 3.381a12.916 12.916 0 01-5.848 10.131c-3.23 1.865-5.848.35-5.848-3.381a12.93 12.93 0 015.848-10.131zm-86.366-14.275c3.231-1.866 5.848-.351 5.848 3.368a12.916 12.916 0 01-5.848 10.131c-3.231 1.865-5.848.363-5.848-3.369a12.922 12.922 0 015.848-10.13zm199.793-21.864c2.229-1.252 4.032-.251 4.032 2.329a8.893 8.893 0 01-4.032 6.975c-2.217 1.252-4.02.238-4.02-2.329a8.895 8.895 0 014.02-6.975zm33.948-4.521c2.216-1.252 4.019-.238 4.019 2.329a8.907 8.907 0 01-4.019 6.975c-2.229 1.252-4.032.251-4.032-2.329a8.893 8.893 0 014.032-6.975zM210.57 420.826c2.229-1.252 4.032-.237 4.032 2.33a8.901 8.901 0 01-4.032 6.975c-2.216 1.252-4.02.237-4.02-2.33a8.938 8.938 0 014.02-6.975zm98.513-77.587c2.229-1.253 4.032-.251 4.032 2.316a8.877 8.877 0 01-4.032 6.975c-2.217 1.252-4.02.251-4.02-2.317a8.897 8.897 0 014.02-6.974zm46.57-63.351c2.229-1.252 4.032-.25 4.032 2.33a8.893 8.893 0 01-4.032 6.974c-2.229 1.253-4.032.238-4.032-2.329a8.88 8.88 0 014.032-6.975zm23.993 59.944c2.216-1.252 4.019-.237 4.019 2.33a8.903 8.903 0 01-4.019 6.975c-2.229 1.252-4.032.25-4.032-2.317a8.892 8.892 0 014.032-6.988zm11.279-83.393c2.233-3.869 2.233-8.052-.001-9.341-2.234-1.29-5.856.801-8.09 4.67-2.233 3.869-2.233 8.051.001 9.341 2.234 1.29 5.856-.801 8.09-4.67zm70.053 129.475c2.216-1.252 4.019-.25 4.019 2.317a8.907 8.907 0 01-4.019 6.975c-2.229 1.252-4.032.25-4.032-2.317a8.868 8.868 0 014.032-6.975zm-100.955-81.206c2.567-1.478 4.634-.276 4.634 2.679a10.22 10.22 0 01-4.634 8.027c-2.504 1.478-4.633.276-4.633-2.68a10.253 10.253 0 014.633-8.026zm-15.828 47.722c1.954-1.127 3.544-.213 3.544 2.054a7.83 7.83 0 01-3.544 6.135c-1.953 1.127-3.544.213-3.544-2.041a7.875 7.875 0 013.544-6.148zm-21.851-62.937c1.966-1.14 3.544-.213 3.544 2.041a7.794 7.794 0 01-3.544 6.136c-1.954 1.127-3.544.213-3.544-2.041a7.82 7.82 0 013.544-6.136zm170.215 74.633c1.49-.864 2.692-.163 2.692 1.552a5.939 5.939 0 01-2.692 4.671c-1.49.864-2.705.163-2.705-1.553a5.985 5.985 0 012.705-4.67z" fill="#000"/><path d="M432.477 178.395a.6.6 0 01-.513-.313l-26.222-50.364a.565.565 0 01-.083-.221.581.581 0 01.299-.598.577.577 0 01.798.28l26.197 50.377a.586.586 0 01-.25.777.614.614 0 01-.226.062zm8.102-3.556a.267.267 0 01-.163 0 .265.265 0 010-.363l24.181-31.456a.275.275 0 01.363 0 .262.262 0 010 .363l-24.156 31.394a.263.263 0 01-.225.062zm-3.444-.601h-.087a.264.264 0 01-.188-.313l6.762-26.109a.235.235 0 01.112-.153.25.25 0 01.092-.031.247.247 0 01.097.009.239.239 0 01.092.041.25.25 0 01.095.272l-6.749 26.096a.272.272 0 01-.084.129.264.264 0 01-.142.059zm4.095 40.071a.56.56 0 01-.563-.475l-4.408-26.297a.563.563 0 01.463-.664.602.602 0 01.664.476l4.408 26.297a.577.577 0 01-.476.651l-.088.012zm6.086-2.204h-.088a.259.259 0 01-.146-.13.259.259 0 01-.016-.195l8.102-23.104a.241.241 0 01.127-.151.26.26 0 01.198-.012.25.25 0 01.089.049.268.268 0 01.063.079.244.244 0 01.011.198l-8.102 23.116a.264.264 0 01-.097.11.268.268 0 01-.141.04zm-21.751 15.778a.224.224 0 01-.238-.175.244.244 0 01.011-.198.253.253 0 01.152-.127l9.316-3.106a.244.244 0 01.198.011.248.248 0 01.128.152.251.251 0 01-.163.313l-9.316 3.118-.088.012zm11.37 41.424h-.075a.575.575 0 01-.501-.639l4.771-37.203a.577.577 0 011.14.15l-4.771 37.204a.563.563 0 01-.564.488zm9.116 1.891a.568.568 0 01-.4-.163.555.555 0 01-.168-.401.561.561 0 01.168-.4l25.883-26.76a.589.589 0 01.814 0 .574.574 0 010 .814l-25.883 26.747a.54.54 0 01-.414.163zm-17.556 5.76a.191.191 0 01-.125 0l-8.027-4.508a.243.243 0 01-.079-.064.25.25 0 01-.021-.286.264.264 0 01.338-.101l8.039 4.433a.264.264 0 01.1.351.252.252 0 01-.225.175zm-16.767 19.698a.257.257 0 01-.201-.088.266.266 0 010-.363l13.024-10.318a.26.26 0 01.363 0 .276.276 0 010 .363l-13.023 10.318a.28.28 0 01-.163.088z" fill="#E0E0E0"/><path d="M411.728 296.656a.252.252 0 01-.251-.176l-7.839-25.645a.265.265 0 01.176-.326.253.253 0 01.313.176l7.876 25.645a.244.244 0 01-.011.198.246.246 0 01-.152.128h-.112z" fill="#E0E0E0"/><path d="M411.728 296.656l-12.447-1.891a.264.264 0 01-.226-.288.26.26 0 01.103-.176.272.272 0 01.094-.045.28.28 0 01.104-.005l12.447 1.904a.25.25 0 110 .501h-.075zm78.502-9.517l-44.204-3.882a.589.589 0 01-.526-.626.616.616 0 01.626-.526l44.204 3.894a.557.557 0 01.513.614.573.573 0 01-.613.526z" fill="#E0E0E0"/><path d="M430.787 298.196a6.858 6.858 0 01-3.469-.902c-2.504-1.427-3.844-4.357-3.844-8.252 0-7.588 5.347-16.855 11.908-20.649 3.381-1.941 6.6-2.229 9.079-.789 2.479 1.44 3.844 4.358 3.844 8.252 0 7.589-5.347 16.843-11.908 20.637a11.45 11.45 0 01-5.61 1.703zm5.61-28.05c-6.024 3.469-10.92 11.946-10.92 18.896 0 3.143 1.015 5.447 2.843 6.512 1.828 1.064 4.345.776 7.062-.802 6.024-3.468 10.907-11.946 10.907-18.896 0-3.143-1.002-5.459-2.83-6.511-1.828-1.052-4.345-.777-7.062.801z" fill="#E0E0E0"/><path d="M435.896 274.667c3.756-2.142 6.737-.401 6.737 3.894a14.872 14.872 0 01-6.737 11.671c-3.757 2.141-6.737.401-6.737-3.895a14.914 14.914 0 016.737-11.67z" fill="#B75400"/><path d="M494.838 303.631a6.858 6.858 0 01-3.469-.902c-2.504-1.44-3.844-4.37-3.844-8.265 0-7.588 5.347-16.842 11.909-20.636 3.381-1.954 6.599-2.229 9.078-.802 2.48 1.428 3.845 4.371 3.845 8.265 0 7.576-5.347 16.842-11.909 20.637a11.446 11.446 0 01-5.61 1.703zm10.193-29.49a9.334 9.334 0 00-4.583 1.427c-6.023 3.469-10.919 11.947-10.919 18.896 0 3.143 1.014 5.46 2.842 6.512 1.828 1.052 4.345.776 7.063-.789 6.023-3.481 10.919-11.959 10.919-18.896 0-3.143-1.014-5.46-2.842-6.524a5.002 5.002 0 00-2.48-.626z" fill="#E0E0E0"/><path d="M499.935 280.101c3.756-2.154 6.737-.413 6.737 3.882a14.886 14.886 0 01-6.725 11.671c-3.757 2.154-6.749.413-6.749-3.894a14.87 14.87 0 016.737-11.659z" fill="#B75400"/><path d="M475.717 247.005a4.836 4.836 0 01-2.417-.626c-1.716-1.002-2.667-3.031-2.667-5.735a18.333 18.333 0 018.264-14.326c2.342-1.352 4.571-1.54 6.261-.551 1.691.989 2.668 3.031 2.668 5.735a18.306 18.306 0 01-8.265 14.313 7.876 7.876 0 01-3.844 1.19zm7.062-20.461a6.554 6.554 0 00-3.181.989 16.777 16.777 0 00-7.576 13.111c0 2.179.702 3.756 1.979 4.52 1.277.764 3.005.539 4.896-.551a16.777 16.777 0 007.576-13.111c0-2.178-.701-3.756-1.978-4.52a3.268 3.268 0 00-1.716-.438z" fill="#E0E0E0"/><path d="M479.248 230.676c2.579-1.49 4.671-.288 4.671 2.692a10.34 10.34 0 01-4.671 8.102c-2.58 1.49-4.671.288-4.671-2.705.087-1.62.556-3.198 1.368-4.603a10.308 10.308 0 013.303-3.486z" fill="#B75400"/><path d="M439.101 232.842a4.825 4.825 0 01-2.416-.626c-1.716-.989-2.668-3.03-2.668-5.735a18.314 18.314 0 018.278-14.313c2.329-1.352 4.57-1.553 6.261-.563 1.69.989 2.68 3.03 2.68 5.735a18.338 18.338 0 01-8.278 14.325 7.937 7.937 0 01-3.857 1.177zm3.882-19.472a16.77 16.77 0 00-7.513 13.111c0 2.191.701 3.757 1.966 4.52 1.265.764 3.018.539 4.909-.55a16.743 16.743 0 007.513-13.111c0-2.179-.701-3.757-1.966-4.521-1.265-.764-3.018-.538-4.909.551z" fill="#E0E0E0"/><path d="M442.633 216.513c2.592-1.49 4.683-.275 4.683 2.705a10.307 10.307 0 01-4.683 8.089c-2.58 1.491-4.671.288-4.671-2.692a10.346 10.346 0 014.671-8.102z" fill="#B75400"/><path d="M433.291 189.24a3.481 3.481 0 01-1.753-.451 4.546 4.546 0 01-1.966-4.195 13.413 13.413 0 016.061-10.494 4.034 4.034 0 016.227 1.367c.353.744.469 1.578.334 2.39a13.371 13.371 0 01-6.048 10.481 5.787 5.787 0 01-2.855.902zm2.855-14.251a12.286 12.286 0 00-5.547 9.605 3.043 3.043 0 005.009 2.905 12.293 12.293 0 005.547-9.604 3.042 3.042 0 00-5.009-2.906z" fill="#E0E0E0"/><path d="M435.896 177.281c1.891-1.089 3.431-.2 3.431 1.978a7.52 7.52 0 01-3.431 5.936c-1.891 1.089-3.419.2-3.419-1.978a7.605 7.605 0 013.419-5.936zm19.509 9.179c1.09-.626 1.966-.113 1.966 1.139a4.324 4.324 0 01-1.966 3.406c-1.076.627-1.953.113-1.953-1.139a4.36 4.36 0 011.953-3.406zm-29.84 38.906c1.089-.626 1.966-.125 1.966 1.127a4.342 4.342 0 01-1.966 3.407c-1.09.626-1.966.112-1.966-1.14a4.32 4.32 0 011.966-3.394zm-5.097 44.642c1.077-.626 1.954-.112 1.954 1.14a4.336 4.336 0 01-1.954 3.393c-1.089.626-1.966.126-1.966-1.127a4.334 4.334 0 011.966-3.406zm-16.579-2.028c1.327-.764 2.392-.138 2.392 1.39a5.302 5.302 0 01-2.392 4.157c-1.328.764-2.404.138-2.404-1.39a5.323 5.323 0 012.404-4.157zm-4.608 24.794c.826-.489 1.502-.1 1.502.864a3.348 3.348 0 01-1.502 2.617c-.839.476-1.516.088-1.516-.877a3.307 3.307 0 011.516-2.604zm12.447.025c1.715-.989 3.118-.188 3.118 1.803a6.888 6.888 0 01-3.118 5.397c-1.728 1.002-3.118.188-3.118-1.79a6.898 6.898 0 013.118-5.41zm53.119-153.435c1.816-1.04 3.294-.201 3.294 1.903a7.309 7.309 0 01-3.294 5.71c-1.816 1.039-3.293.188-3.293-1.903a7.304 7.304 0 013.293-5.71zm-20.962 6.261c1.089-.626 1.966-.126 1.966 1.127a4.346 4.346 0 01-.574 1.939 4.342 4.342 0 01-1.392 1.467c-1.077.626-1.954.112-1.954-1.14a4.329 4.329 0 011.954-3.393z" fill="#B75400"/><path opacity=".15" d="M435.896 274.667c3.756-2.142 6.737-.401 6.737 3.894a14.872 14.872 0 01-6.737 11.671c-3.757 2.141-6.737.401-6.737-3.895a14.914 14.914 0 016.737-11.67zm64.039 5.434c3.756-2.154 6.737-.413 6.737 3.882a14.886 14.886 0 01-6.725 11.671c-3.757 2.154-6.749.413-6.749-3.894a14.87 14.87 0 016.737-11.659zm-20.687-49.425c2.579-1.49 4.671-.288 4.671 2.692a10.34 10.34 0 01-4.671 8.102c-2.58 1.49-4.671.288-4.671-2.705.087-1.62.556-3.198 1.368-4.603a10.308 10.308 0 013.303-3.486zm-36.615-14.163c2.592-1.49 4.683-.275 4.683 2.705a10.307 10.307 0 01-4.683 8.089c-2.58 1.491-4.671.288-4.671-2.692a10.346 10.346 0 014.671-8.102zm-6.737-39.232c1.891-1.089 3.431-.2 3.431 1.978a7.52 7.52 0 01-3.431 5.936c-1.891 1.089-3.419.2-3.419-1.978a7.605 7.605 0 013.419-5.936zm19.509 9.179c1.09-.626 1.966-.113 1.966 1.139a4.324 4.324 0 01-1.966 3.406c-1.076.627-1.953.113-1.953-1.139a4.36 4.36 0 011.953-3.406zm-29.84 38.906c1.089-.626 1.966-.125 1.966 1.127a4.342 4.342 0 01-1.966 3.407c-1.09.626-1.966.112-1.966-1.14a4.32 4.32 0 011.966-3.394zm-5.097 44.642c1.077-.626 1.954-.112 1.954 1.14a4.336 4.336 0 01-1.954 3.393c-1.089.627-1.966.126-1.966-1.127a4.334 4.334 0 011.966-3.406zm-16.579-2.028c1.327-.764 2.392-.138 2.392 1.39a5.302 5.302 0 01-2.392 4.157c-1.328.764-2.404.138-2.404-1.39a5.323 5.323 0 012.404-4.157zm-4.608 24.794c.826-.489 1.502-.1 1.502.864a3.348 3.348 0 01-1.502 2.617c-.839.476-1.516.088-1.516-.877a3.307 3.307 0 011.516-2.604zm12.447.025c1.715-.989 3.118-.188 3.118 1.803a6.888 6.888 0 01-3.118 5.397c-1.728 1.002-3.118.188-3.118-1.79a6.898 6.898 0 013.118-5.41zm53.119-153.435c1.816-1.04 3.294-.201 3.294 1.903a7.309 7.309 0 01-3.294 5.71c-1.816 1.039-3.293.188-3.293-1.903a7.304 7.304 0 013.293-5.71zm-20.962 6.261c1.089-.626 1.966-.126 1.966 1.127a4.346 4.346 0 01-.574 1.939 4.342 4.342 0 01-1.392 1.467c-1.077.626-1.954.112-1.954-1.14a4.329 4.329 0 011.954-3.393z" fill="#000"/><path d="M385.13 142.782a.18.18 0 01-.137 0 .254.254 0 01-.119-.156.245.245 0 01.031-.194l7.639-12.372a.248.248 0 01.35-.076.257.257 0 01.119.157.26.26 0 01-.031.194l-7.639 12.372a.23.23 0 01-.097.064.229.229 0 01-.116.011zm7.627 14.989a.239.239 0 01-.167-.099.232.232 0 01-.042-.09.236.236 0 01-.004-.099l3.543-25.432a.279.279 0 01.301-.226.264.264 0 01.094.033.256.256 0 01.119.255l-3.544 25.445a.263.263 0 01-.3.213z" fill="#E0E0E0"/><path d="M382.689 178.458a.198.198 0 01-.113 0 .255.255 0 01-.127-.145.234.234 0 01-.012-.098.24.24 0 01.026-.095l10.018-20.674a.25.25 0 01.241-.15c.034.002.067.01.097.024a.276.276 0 01.125.351l-10.017 20.674a.294.294 0 01-.105.087.267.267 0 01-.133.026z" fill="#E0E0E0"/><path d="M371.519 170.043a.273.273 0 01-.128-.035.265.265 0 01-.098-.09.282.282 0 01-.027-.199.272.272 0 01.115-.164l21.288-12.26a.246.246 0 01.287.022.248.248 0 01.064.079.251.251 0 01-.101.35l-21.288 12.26a.244.244 0 01-.112.037zm30.078-64.84a.583.583 0 01-.216-.058.576.576 0 01-.285-.333.562.562 0 01-.025-.223l3.932-51.279a.58.58 0 01.62-.532.58.58 0 01.532.62l-3.982 51.254a.576.576 0 01-.576.551zm7.438-1.803a.585.585 0 01-.25 0 .58.58 0 01-.263-.764l37.567-76.874a.576.576 0 011.027.5l-37.567 76.875a.559.559 0 01-.514.263zm-15.953 12.121a.52.52 0 01-.263-.075l-16.279-8.565a.578.578 0 01.12-1.01.58.58 0 01.406-.005l16.279 8.566a.591.591 0 01.251.776.562.562 0 01-.514.313zM270.765 79.607a.565.565 0 01-.478-.882.575.575 0 01.365-.245l68.785-13.674a.576.576 0 01.59.882.576.576 0 01-.365.245l-68.797 13.674h-.1zm75.283 33.973a.264.264 0 01-.237-.163.248.248 0 01.15-.325l19.284-7.113a.256.256 0 01.326.15.256.256 0 01-.151.326l-19.284 7.113-.088.012zm23.73-14.588a.263.263 0 01-.213-.113l-10.143-15.027a.263.263 0 01.075-.363.264.264 0 01.351.075l10.143 15.027a.262.262 0 01-.063.363.337.337 0 01-.15.038zm-8.39 33.647h-.087a.242.242 0 01-.144-.131.247.247 0 01-.007-.194l7.025-19.047a.283.283 0 01.137-.148.28.28 0 01.201-.015.277.277 0 01.151.338l-6.988 19.022a.263.263 0 01-.288.175z" fill="#E0E0E0"/><path d="M341.666 109.748a.257.257 0 01-.17-.072.26.26 0 01-.081-.166l-2.129-44.178a.291.291 0 01.251-.276.25.25 0 01.25.25l2.129 44.179a.244.244 0 01-.069.186.241.241 0 01-.083.057.236.236 0 01-.098.02zm-3.168 3.344a.237.237 0 01-.188-.088l-11.27-12.222a.263.263 0 01.388-.35l11.27 12.234a.262.262 0 010 .363.296.296 0 01-.2.063zm75.146-.351a.572.572 0 01-.564-.513.57.57 0 01.12-.418.542.542 0 01.17-.142.542.542 0 01.211-.066l29.953-3.406a.58.58 0 01.423.118.581.581 0 01.216.383.603.603 0 01-.513.638l-29.941 3.406h-.075zm38.731-13.424a.56.56 0 01-.471-.247.568.568 0 01-.055-.529l15.102-38.719a.593.593 0 01.308-.318.58.58 0 01.769.744l-15.115 38.706a.57.57 0 01-.538.363zm48.436-41.599h-.062l-23.555-6.035a.262.262 0 01-.188-.313.262.262 0 01.313-.188l23.592 6.035a.25.25 0 01.188.314.252.252 0 01-.288.187zM477.47 46.035a.236.236 0 01-.188-.087.262.262 0 010-.364l16.993-16.279a.25.25 0 01.356.007.253.253 0 01.071.18.246.246 0 01-.077.177l-16.993 16.278a.25.25 0 01-.162.088z" fill="#E0E0E0"/><path d="M339.599 61.575c1.779-1.027 3.219-.188 3.219 1.854A7.118 7.118 0 01339.599 69c-1.765 1.014-3.205.188-3.205-1.853a7.096 7.096 0 013.205-5.573zm20.036 20.085c.964-.563 1.753-.112 1.753 1.015a3.858 3.858 0 01-1.753 3.03c-.964.564-1.753.113-1.753-1.014a3.871 3.871 0 011.753-3.03zM326.99 98.478c.964-.55 1.753-.1 1.753 1.015a3.903 3.903 0 01-1.753 3.043c-.965.551-1.754.1-1.754-1.015a3.904 3.904 0 011.754-3.043zm34.398 31.87c.964-.551 1.753-.101 1.753 1.014a3.902 3.902 0 01-1.753 3.043c-.964.551-1.753.1-1.753-1.015a3.907 3.907 0 011.753-3.042zm23.742 10.143c.965-.551 1.754-.101 1.754 1.014a3.903 3.903 0 01-1.754 3.043c-.964.551-1.753.1-1.753-1.015a3.907 3.907 0 011.753-3.042zm-2.441 35.675c.976-.55 1.753-.1 1.753 1.015a3.885 3.885 0 01-1.753 3.043c-.965.551-1.753.1-1.753-1.015a3.905 3.905 0 011.753-3.043zm10.068-21.713c1.465-.852 2.654-.163 2.654 1.528a5.882 5.882 0 01-2.654 4.608c-1.466.839-2.655.15-2.655-1.54a5.877 5.877 0 012.655-4.596zm-21.238 12.272c1.465-.852 2.655-.163 2.655 1.527a5.878 5.878 0 01-2.655 4.596c-1.465.852-2.655.163-2.655-1.528a5.834 5.834 0 012.655-4.595zm122.943-140.25c1.465-.851 2.655-.162 2.655 1.528a5.867 5.867 0 01-2.655 4.596c-1.465.851-2.654.163-2.654-1.528a5.855 5.855 0 012.654-4.596z" fill="#B75400"/><path d="M397.202 133.153a6.882 6.882 0 01-3.481-.902c-2.505-1.428-3.845-4.358-3.845-8.252 0-7.589 5.347-16.855 11.922-20.637 3.368-1.953 6.586-2.241 9.066-.801 2.479 1.44 3.844 4.357 3.844 8.252 0 7.588-5.334 16.842-11.909 20.636a11.264 11.264 0 01-5.597 1.704zm5.597-28.05c-6.01 3.468-10.906 11.946-10.906 18.896 0 3.143 1.001 5.459 2.842 6.511 1.841 1.052 4.333.777 7.063-.801 6.01-3.469 10.907-11.946 10.907-18.896 0-3.143-1.015-5.46-2.843-6.512-1.828-1.052-4.345-.776-7.063.802z" fill="#E0E0E0"/><path d="M402.299 109.661c3.756-2.142 6.736-.401 6.736 3.894a14.906 14.906 0 01-6.736 11.671c-3.757 2.141-6.737.401-6.737-3.894a14.902 14.902 0 016.737-11.671z" fill="#B75400"/><path d="M448.693 27.014a5.47 5.47 0 01-2.792-.726c-2.004-1.153-3.118-3.544-3.118-6.738 0-6.26 4.458-14.037 9.93-17.205 2.768-1.59 5.397-1.828 7.401-.676 2.003 1.152 3.105 3.556 3.105 6.75 0 6.323-4.445 14.037-9.93 17.192a9.202 9.202 0 01-4.596 1.403zm4.634-23.655a20.695 20.695 0 00-9.354 16.204c0 2.767.901 4.809 2.504 5.748 1.603.939 3.857.701 6.261-.676a20.683 20.683 0 009.354-16.204c0-2.768-.901-4.809-2.504-5.748-1.603-.94-3.857-.714-6.261.676z" fill="#E0E0E0"/><path d="M453.001 7.416c3.156-1.815 5.698-.338 5.698 3.294a12.528 12.528 0 01-5.698 9.855c-3.143 1.816-5.685.35-5.685-3.281a12.58 12.58 0 015.685-9.868z" fill="#B75400"/><path d="M403.688 54.325a3.875 3.875 0 01-1.991-.514 5.113 5.113 0 01-2.216-4.695 15.026 15.026 0 016.787-11.759 4.52 4.52 0 017.363 4.245 15.018 15.018 0 01-6.762 11.709 6.362 6.362 0 01-3.181 1.014zm5.811-16.793c-.924.04-1.822.32-2.605.815a13.777 13.777 0 00-6.261 10.769 3.41 3.41 0 001.616 3.722 3.409 3.409 0 004.032-.467 13.778 13.778 0 006.261-10.769 4.034 4.034 0 00-1.616-3.756 2.801 2.801 0 00-1.427-.313z" fill="#E0E0E0"/><path d="M406.594 40.926c2.116-1.252 3.831-.238 3.831 2.216a8.497 8.497 0 01-3.831 6.65c-2.129 1.252-3.845.225-3.845-2.217a8.465 8.465 0 013.845-6.649z" fill="#B75400"/><path d="M446.965 116.097a3.99 3.99 0 01-1.991-.513 5.137 5.137 0 01-2.191-4.709 15.026 15.026 0 016.787-11.758 4.521 4.521 0 017.363 4.258 15.026 15.026 0 01-6.787 11.758 6.49 6.49 0 01-3.181.964zm3.181-15.978a13.766 13.766 0 00-6.261 10.756 3.402 3.402 0 001.616 3.723 3.406 3.406 0 004.031-.467 13.775 13.775 0 006.262-10.756 3.413 3.413 0 00-1.617-3.723 3.405 3.405 0 00-4.031.467z" fill="#E0E0E0"/><path d="M449.858 102.698c2.129-1.252 3.844-.238 3.844 2.204a8.43 8.43 0 01-3.844 6.65c-2.116 1.252-3.832.238-3.832-2.217a8.465 8.465 0 013.832-6.637z" fill="#B75400"/><path d="M468.429 60.736a3.756 3.756 0 01-1.979-.513 5.086 5.086 0 01-2.191-4.696 15.021 15.021 0 016.787-11.758 4.517 4.517 0 015.134-.417 4.524 4.524 0 012.191 4.662 15.023 15.023 0 01-6.799 11.758 6.487 6.487 0 01-3.143.964zm3.193-15.978a13.77 13.77 0 00-6.261 10.769 3.403 3.403 0 001.616 3.722 3.407 3.407 0 004.031-.466 13.781 13.781 0 006.261-10.77 3.403 3.403 0 00-1.617-3.705 3.406 3.406 0 00-4.018.45h-.012z" fill="#E0E0E0"/><path d="M471.334 47.337c2.116-1.252 3.832-.238 3.832 2.217a8.51 8.51 0 01-3.832 6.65c-2.129 1.251-3.845.225-3.845-2.217a8.462 8.462 0 013.845-6.65z" fill="#B75400"/><path d="M368.614 113.931a3.914 3.914 0 01-1.979-.501 5.124 5.124 0 01-2.191-4.708 15.023 15.023 0 016.787-11.759 4.518 4.518 0 017.008 1.547c.393.842.517 1.784.355 2.698a15.03 15.03 0 01-6.787 11.759 6.405 6.405 0 01-3.193.964zm3.193-15.979a13.772 13.772 0 00-6.261 10.77 3.403 3.403 0 003.709 4.154 3.403 3.403 0 001.938-.899 13.78 13.78 0 006.261-10.769 3.403 3.403 0 00-1.617-3.706 3.406 3.406 0 00-4.018.45h-.012z" fill="#E0E0E0"/><path d="M371.519 100.532c2.116-1.252 3.832-.225 3.832 2.216a8.512 8.512 0 01-3.832 6.65c-2.129 1.252-3.845.225-3.845-2.217a8.472 8.472 0 013.845-6.649z" fill="#B75400"/><path d="M339.662 120.931a2.765 2.765 0 01-1.365-.351 3.538 3.538 0 01-1.515-3.256 10.397 10.397 0 014.696-8.139 3.131 3.131 0 015.084 2.943 10.376 10.376 0 01-4.696 8.127 4.405 4.405 0 01-2.204.676zm4.02-11.621a3.75 3.75 0 00-1.816.564 9.512 9.512 0 00-4.295 7.513 2.356 2.356 0 001.114 2.581 2.357 2.357 0 002.793-.327 9.537 9.537 0 004.295-7.513 2.775 2.775 0 00-.233-1.401 2.766 2.766 0 00-.894-1.104 1.898 1.898 0 00-.964-.35v.037z" fill="#E0E0E0"/><path d="M341.666 111.627c1.465-.852 2.654-.163 2.654 1.527a5.854 5.854 0 01-2.654 4.596c-1.465.852-2.655.163-2.655-1.528a5.867 5.867 0 012.655-4.595z" fill="#B75400"/><path d="M502.427 64.643a2.677 2.677 0 01-1.365-.363 3.534 3.534 0 01-1.516-3.256 10.41 10.41 0 014.696-8.127 3.133 3.133 0 014.822 1.069c.273.575.365 1.22.262 1.849a10.369 10.369 0 01-4.658 8.152 4.395 4.395 0 01-2.241.676zm2.241-11.057a9.513 9.513 0 00-4.295 7.438 2.806 2.806 0 001.114 2.505 2.767 2.767 0 002.793-.313 9.514 9.514 0 004.257-7.401 2.35 2.35 0 00-1.114-2.581 2.355 2.355 0 00-2.793.327l.038.025z" fill="#E0E0E0"/><path d="M504.443 55.364c1.465-.839 2.642-.15 2.642 1.54a5.87 5.87 0 01-2.642 4.596c-1.478.84-2.655.163-2.655-1.528a5.856 5.856 0 012.655-4.608zm-19.886 69.912a1.89 1.89 0 01-.964-.263 2.405 2.405 0 01-1.052-2.216v-17.669a6.578 6.578 0 013.018-5.235l25.746-14.864a2.167 2.167 0 013.506 2.017v17.681a6.602 6.602 0 01-3.018 5.234l-25.746 14.864a2.948 2.948 0 01-1.49.451zm28.238-39.733c-.355.02-.699.127-1.002.313l-25.746 14.864a5.74 5.74 0 00-2.504 4.408v17.669a1.254 1.254 0 001.329 1.574c.27-.026.524-.139.725-.322l25.745-14.864a5.677 5.677 0 002.505-4.395V87.046a1.498 1.498 0 00-.576-1.378.879.879 0 00-.476-.125z" fill="#B75400"/><path d="M488.239 106.693a.487.487 0 01-.433-.667.493.493 0 01.195-.235l20.874-12.046a.486.486 0 01.362-.047.477.477 0 01.114.874l-20.874 12.058a.51.51 0 01-.238.063zm0 4.909a.494.494 0 01-.451-.364.49.49 0 01.213-.538l20.874-12.046a.477.477 0 01.476.826l-20.874 12.047a.415.415 0 01-.238.075zm0 4.896a.484.484 0 01-.473-.414.468.468 0 01.095-.353.482.482 0 01.14-.122l20.874-12.059a.493.493 0 01.652.175.481.481 0 01-.031.54.467.467 0 01-.145.124l-20.874 12.046a.394.394 0 01-.238.063zm34.336 138.421a2.015 2.015 0 01-.964-.25 2.398 2.398 0 01-1.052-2.217v-17.569a6.596 6.596 0 013.018-5.234l25.745-14.864a2.165 2.165 0 013.326.753c.189.397.251.842.181 1.276v17.681a6.581 6.581 0 01-3.018 5.222l-25.746 14.864c-.459.24-.973.356-1.49.338zm1.49-24.544a5.694 5.694 0 00-2.505 4.396v17.681a1.25 1.25 0 00.557 1.398 1.256 1.256 0 001.497-.146l25.746-14.864a5.698 5.698 0 001.765-1.905 5.689 5.689 0 00.739-2.49v-17.694a1.247 1.247 0 00-.556-1.397 1.25 1.25 0 00-1.497.145l-25.746 14.876z" fill="#B75400"/><path d="M526.256 236.386a.46.46 0 01-.413-.238.467.467 0 01.032-.531.472.472 0 01.143-.12l20.875-12.059a.473.473 0 01.651.188.467.467 0 01-.031.531.476.476 0 01-.144.12l-20.875 12.046a.394.394 0 01-.238.063zm0 4.909a.484.484 0 01-.432-.668.493.493 0 01.194-.234l20.875-12.046a.488.488 0 01.716.354.486.486 0 01-.095.361.479.479 0 01-.145.124l-20.875 12.046a.399.399 0 01-.238.063zm0 4.858a.482.482 0 01-.413-.237.48.48 0 01.175-.664l20.875-12.047a.454.454 0 01.363-.052.466.466 0 01.288.228.487.487 0 01-.031.54.474.474 0 01-.144.123l-20.875 12.109a.504.504 0 01-.238 0zm-57.314 187.96a1.837 1.837 0 01-.964-.263 2.405 2.405 0 01-1.052-2.217v-17.681a6.598 6.598 0 013.018-5.234l25.746-14.802a2.165 2.165 0 013.506 2.016v17.682a6.564 6.564 0 01-.878 2.986 6.561 6.561 0 01-2.153 2.248l-25.733 14.864c-.453.261-.967.4-1.49.401zm1.49-24.557a5.746 5.746 0 00-2.504 4.408v17.669a1.25 1.25 0 002.053 1.19l25.746-14.864a5.684 5.684 0 002.505-4.395v-17.682a1.488 1.488 0 00-.576-1.377 1.515 1.515 0 00-1.491.188l-25.733 14.863z" fill="#B75400"/><path d="M472.624 415.53a.492.492 0 01-.478-.417.467.467 0 01.24-.485l20.862-12.046a.486.486 0 01.619.2.49.49 0 01-.131.639l-20.875 12.046a.561.561 0 01-.237.063zm0 4.908a.475.475 0 01-.414-.25.467.467 0 01.032-.531.464.464 0 01.144-.12l20.862-12.047a.469.469 0 01.369-.053.48.48 0 01.119.88l-20.875 12.059a.56.56 0 01-.237.062zm0 4.897a.495.495 0 01-.478-.415.472.472 0 01.096-.354.454.454 0 01.144-.121l20.862-12.058a.496.496 0 01.663.175.487.487 0 01-.175.664l-20.875 11.996a.425.425 0 01-.237.113zM252.695 528.831a1.936 1.936 0 01-.964-.25 2.405 2.405 0 01-1.052-2.217v-17.681a6.598 6.598 0 013.018-5.235l25.746-14.864a2.165 2.165 0 013.326.753c.188.397.251.842.18 1.276v17.669a6.574 6.574 0 01-3.018 5.234l-25.708 14.864a2.983 2.983 0 01-1.528.451zm28.225-39.746a2.01 2.01 0 00-.989.313l-25.708 14.889a5.683 5.683 0 00-2.505 4.396v17.681a1.498 1.498 0 00.576 1.378 1.464 1.464 0 001.478-.188l25.746-14.864a5.74 5.74 0 002.504-4.408v-17.669a1.516 1.516 0 00-.576-1.39 1.01 1.01 0 00-.526-.138z" fill="#B75400"/><path d="M256.376 510.248a.482.482 0 01-.413-.238.467.467 0 01.032-.531.464.464 0 01.144-.12l20.874-12.059a.491.491 0 01.596.216.493.493 0 01-.12.623l-20.875 12.046a.392.392 0 01-.238.063zm.001 4.909a.494.494 0 01-.414-.238.481.481 0 01.031-.54.467.467 0 01.145-.124l20.874-12.046a.491.491 0 01.596.216.492.492 0 01-.12.623l-20.875 12.046a.505.505 0 01-.237.063zm0 4.908a.483.483 0 01-.414-.238.469.469 0 01-.053-.369.467.467 0 01.229-.294l20.874-12.047a.459.459 0 01.531.032c.05.039.09.088.12.144a.487.487 0 01-.035.529.482.482 0 01-.14.122l-20.875 12.059a.504.504 0 01-.237.062zm120.639-293.559a1.823 1.823 0 01-.964-.25 2.405 2.405 0 01-1.052-2.217v-17.681a6.607 6.607 0 013.018-5.235l25.746-14.851a2.165 2.165 0 013.506 2.016v17.681a6.564 6.564 0 01-.878 2.987 6.561 6.561 0 01-2.153 2.248l-25.745 14.914a3.062 3.062 0 01-1.478.388zm1.478-24.544a5.73 5.73 0 00-2.505 4.396v17.681a1.25 1.25 0 001.35 1.495c.261-.025.507-.132.704-.305l25.746-14.864a5.694 5.694 0 002.504-4.396v-17.681a1.246 1.246 0 00-.6-1.348 1.255 1.255 0 00-1.466.158l-25.733 14.864z" fill="#B75400"/><path d="M380.698 207.935a.493.493 0 01-.484-.428.473.473 0 01.246-.473l20.862-12.047a.481.481 0 11.488.827l-20.874 12.059a.565.565 0 01-.238.062zm0 4.897a.534.534 0 01-.426-.238.472.472 0 01.188-.651l20.862-12.059a.488.488 0 11.488.839l-20.874 12.046a.428.428 0 01-.238.063zm0 4.908a.533.533 0 01-.426-.237.5.5 0 01.188-.664l20.862-12.009a.486.486 0 01.619.201.487.487 0 01-.131.638l-20.875 12.046a.544.544 0 01-.237.025z" fill="#B75400"/><path d="M259.47 93.382c-.826.011-1.64-.2-2.355-.614-1.69-.964-2.617-2.968-2.617-5.622a18.066 18.066 0 018.152-14.113c2.292-1.315 4.483-1.515 6.174-.538 1.69.976 2.617 2.967 2.617 5.622a18.044 18.044 0 01-8.152 14.113 7.765 7.765 0 01-3.819 1.152zm6.987-20.211a6.52 6.52 0 00-3.168.977 16.644 16.644 0 00-7.514 12.998c0 2.179.702 3.756 1.966 4.52 1.265.764 3.006.539 4.897-.55a16.641 16.641 0 007.513-12.999c0-2.179-.701-3.757-1.966-4.508a3.343 3.343 0 00-1.728-.426v-.012z" fill="#E0E0E0"/><path d="M262.988 77.316c2.505-1.478 4.621-.288 4.621 2.667a10.209 10.209 0 01-4.621 8.002c-2.504 1.465-4.62.275-4.62-2.668a10.21 10.21 0 014.62-8.001zM243.14 67.56a1.817 1.817 0 01-.964-.25 2.375 2.375 0 01-1.039-2.179V42.317a6.389 6.389 0 012.943-5.084l36.502-21.087a2.427 2.427 0 012.417-.188 2.375 2.375 0 011.039 2.179v22.828a6.39 6.39 0 01-2.943 5.084l-12.434 7.263-3.657 12.434a1.25 1.25 0 01-2.329.138l-3.168-7.288-14.914 8.49c-.435.28-.936.445-1.453.476zm37.955-50.564l-36.502 21.125a5.427 5.427 0 00-2.429 4.195v22.816a1.415 1.415 0 00.538 1.252 1.44 1.44 0 001.378-.188l15.915-9.129 3.619 8.34a.215.215 0 00.213.138.229.229 0 00.119-.053.228.228 0 00.069-.11l3.757-12.81 12.798-7.426a5.45 5.45 0 002.454-4.182V18.136a1.129 1.129 0 00-1.248-1.434 1.125 1.125 0 00-.655.344l-.026-.05z" fill="#B75400"/><path d="M250.028 44.545a.539.539 0 01-.451-.263.525.525 0 01.188-.701l25.119-14.501a.52.52 0 01.576.031.513.513 0 01.092.727.516.516 0 01-.154.131l-25.045 14.5a.522.522 0 01-.325.076zm0 4.859a.516.516 0 01-.451-.263.525.525 0 01.188-.702l25.119-14.5a.528.528 0 01.714.188.505.505 0 01-.046.571.513.513 0 01-.154.13L250.353 49.34a.672.672 0 01-.325.063zm0 4.858a.52.52 0 01-.451-.25.525.525 0 01.188-.701l25.119-14.501a.522.522 0 01.393-.057.523.523 0 01.316.24.504.504 0 01.051.394.532.532 0 01-.246.312l-25.045 14.5a.512.512 0 01-.325.063zM119.145 78.568l-3.306-7.15 2.655-7.689v-4.696l-8.152 4.696v4.708l3.506 6.988a.48.48 0 00.238.213l5.059 2.93z" fill="#B75400"/><path opacity=".2" d="M119.145 78.568l-3.306-7.15 2.655-7.689v-4.696l-8.152 4.696v4.708l3.506 6.988a.48.48 0 00.238.213l5.059 2.93z" fill="#000"/><path d="M138.605 21.617a5.383 5.383 0 00-2.442-4.233l-1.991-1.152a5.412 5.412 0 00-4.884 0L98.771 33.89a5.372 5.372 0 00-2.504 4.232v33.572a5.397 5.397 0 002.504 4.233l1.991 1.152a5.41 5.41 0 004.884 0l9.817-5.673 3.519 6.95a.527.527 0 00.952-.088l3.757-11.595 12.522-7.276a5.373 5.373 0 002.442-4.232l-.05-33.547z" fill="#B75400"/><path opacity=".2" d="M96.33 71.693a5.397 5.397 0 002.504 4.233l1.991 1.152a5.442 5.442 0 004.47.188c-1.152.438-2.028-.213-2.028-1.603V42.04a5.105 5.105 0 01.714-2.417l-6.875-3.97a5.008 5.008 0 00-.714 2.417l-.063 33.622z" fill="#000"/><path opacity=".3" d="M138.529 20.916c-.288-1.027-1.252-1.366-2.354-.714l-30.529 17.656a4.841 4.841 0 00-1.69 1.828l-6.9-3.907a5.01 5.01 0 011.715-1.828l30.517-17.656a5.412 5.412 0 014.884 0l2.003 1.152a5.38 5.38 0 012.354 3.469z" fill="#fff"/><path d="M133.145 45.422h-.163l-2.342-.126a.375.375 0 01-.388-.388v-2.241c.004-.252.092-.494.251-.69l2.617-3.167a.716.716 0 00.15-.639l-1.252-2.742a.138.138 0 00-.075-.088c-.1 0-.251 0-.401.125l-2.78 2.505a.474.474 0 01-.613.1 4.533 4.533 0 00-1.253-.689.437.437 0 01-.275-.488l.851-3.895a.223.223 0 00-.112-.275.578.578 0 00-.263 0l-2.718.275a.751.751 0 00-.601.414l-1.477 3.957a1.252 1.252 0 01-.589.576c-.59.278-1.155.605-1.69.977-.226.162-.489.162-.589 0l-1.39-2.13c-.1-.15-.326-.112-.501.076l-2.993 3.155a.813.813 0 00-.238.652l.839 2.83a1 1 0 01-.15.676 23.07 23.07 0 00-1.377 2.379 1.057 1.057 0 01-.651.488l-2.505.614a.874.874 0 00-.588.488l-1.253 4.333a.31.31 0 00-.008.145.309.309 0 00.178.22.28.28 0 00.143.023l2.342.138a.379.379 0 01.274.105.37.37 0 01.114.27c-.069.75-.069 1.505 0 2.255-.013.25-.1.489-.25.688l-2.617 3.169a.682.682 0 00-.151.639l1.253 2.742a.16.16 0 00.075.087.15.15 0 00.1 0 .525.525 0 00.313-.138l2.78-2.504a.5.5 0 01.613-.113c.377.301.8.538 1.253.702a.436.436 0 01.275.488l-.864 3.894a.235.235 0 00.013.15.23.23 0 00.1.113.425.425 0 00.263 0l2.717-.263a.774.774 0 00.601-.413l1.478-3.957c.126-.253.333-.456.588-.576a9.63 9.63 0 00.864-.463c.276-.163.551-.326.827-.514.275-.188.488-.175.576 0l1.402 2.142c.113.075.288 0 .439-.126l2.993-3.155a.82.82 0 00.225-.664l-.827-2.817a.926.926 0 01.151-.677c.504-.77.964-1.568 1.377-2.391.147-.237.381-.408.651-.476l2.505-.626a.84.84 0 00.576-.476l1.252-4.333a.303.303 0 00.021-.188.307.307 0 00-.096-.163zm-13.649 10.593a.669.669 0 01-.151 0h-.889a2.715 2.715 0 01-2.504-1.728 4.29 4.29 0 01-.376-1.427 5.466 5.466 0 010-.79 12.235 12.235 0 013.381-7.738 9.444 9.444 0 012.066-1.678c.222-.132.452-.249.689-.35a4.144 4.144 0 011.929-.401h.325a2.758 2.758 0 012.141 1.69c1.152 2.505-.175 7.025-2.955 10.018a7.868 7.868 0 01-3.656 2.404z" fill="#fff"/></svg>