<svg width="3542" height="2873" fill="none" xmlns="http://www.w3.org/2000/svg"><path d="M1770.74 2872c977.88 0 1770.61-423.49 1770.61-945.9s-792.73-945.911-1770.61-945.911C792.863 980.189.134 1403.69.134 1926.1S792.863 2872 1770.74 2872z" fill="#F5F5F5"/><path d="M1058.2 2452.63L493.671 2124.4l954.869-551.84-390.34 880.07z" fill="#E0E0E0"/><path d="M243.333 2104.25l230.032 132.63a34.173 34.173 0 0015.428 3.69c5.361 0 10.646-1.27 15.428-3.69l317.285-185.14a9.38 9.38 0 004.642-3.4 9.387 9.387 0 001.771-5.48c0-1.97-.619-3.89-1.771-5.48a9.34 9.34 0 00-4.642-3.41l-230.032-132.7a34.044 34.044 0 00-15.428-3.69 34.044 34.044 0 00-15.428 3.69L243.333 2086.4a9.45 9.45 0 00-4.609 14.41 9.43 9.43 0 004.609 3.44z" fill="#E0E0E0"/><path d="M268.24 2083.63c-15.864-25.54-64.806-53.62-129.056-67.5-64.25-13.89-128.818-30.86-114.064-68.38 15.864-40.22 75.673-42.2 134.133-18.24 63.853 26.17 111.049 90.9 111.922 131.67l-2.935 22.45z" fill="#B75400"/><path opacity=".1" d="M268.24 2083.63c-15.864-25.54-64.806-53.62-129.056-67.5-64.25-13.89-128.818-30.86-114.064-68.38 15.864-40.22 75.673-42.2 134.133-18.24 63.853 26.17 111.049 90.9 111.922 131.67l-2.935 22.45z" fill="#000"/><path d="M273.237 2072.05a4.791 4.791 0 01-2.545-.77 4.75 4.75 0 01-1.738-2.01c-51.004-105.5-169.272-122.55-206.236-116.76a4.838 4.838 0 01-5.473-4.05 4.73 4.73 0 01.065-1.86 4.78 4.78 0 012.148-2.97 4.967 4.967 0 011.753-.64c39.185-6.03 163.323 11.66 216.706 122.16.549 1.14.624 2.46.208 3.66a4.81 4.81 0 01-2.429 2.76c-.769.36-1.613.52-2.459.48z" fill="#fff"/><path d="M268.24 2083.63s-30.697-121.6-108.512-186.96c-23.082-19.44-47.592-43.79-64.964-60.52-36.963-36.02-21.496-75.28 29.666-74.49 76.149 1.03 131.832 65.13 155.946 148.97 24.114 83.84-12.136 173-12.136 173z" fill="#B75400"/><path d="M280.376 2036.43a4.844 4.844 0 01-3.263-1.24 4.846 4.846 0 01-1.575-3.12c-14.278-154.68-132.308-232.41-164.434-240.66a4.819 4.819 0 01-2.932-2.2 4.794 4.794 0 01-.518-3.63 4.77 4.77 0 012.2-2.93 4.76 4.76 0 013.63-.52c39.026 9.99 156.977 90.66 171.651 249.07a4.84 4.84 0 01-4.362 5.23h-.397z" fill="#fff"/><path d="M481.138 2217.36l-216.705-125.17-.08-464.82 216.785 125.17v464.82z" fill="#263238"/><path d="M481.138 1752.54l309.671-178.79v464.82l-309.671 178.79v-464.82z" fill="#37474F"/><path d="M790.809 1573.75l-309.671 178.79-216.785-125.17 309.75-178.79 216.706 125.17z" fill="#455A64"/><path d="M614.953 1746.83l42.12-24.35c5.473-3.17 9.915-1.75 9.915 3.25a19.708 19.708 0 01-9.915 14.6l-42.12 24.35c-5.473 3.17-9.915 1.74-9.915-3.26a19.666 19.666 0 019.915-14.59zm-108.511 241.45l247.72-143.01 5.711 3.25-5.711 168.87 5.711 3.34-247.72 143.01-5.711-3.33v-172.13z" fill="#263238"/><path d="M512.153 1991.54l247.72-143.02v172.21l-247.72 143.01v-172.2z" fill="#455A64"/><path d="M609.242 1964.65l42.12-24.28c5.473-3.17 9.915-1.74 9.915 3.18a19.74 19.74 0 01-9.915 14.67l-42.12 24.35c-5.473 3.18-9.915 1.67-9.915-3.25a19.964 19.964 0 013.236-8.5 19.802 19.802 0 016.679-6.17zm-102.8-190.53l247.72-143.02 5.711 3.25-5.711 168.88 5.711 3.33-247.72 143.01-5.711-3.33v-172.12z" fill="#263238"/><path d="M512.153 1777.37l247.72-143.02v172.21l-247.72 143.02v-172.21z" fill="#455A64"/><path d="M609.242 1750.48l42.12-24.27c5.473-3.18 9.915-1.75 9.915 3.17a19.74 19.74 0 01-9.915 14.67l-42.12 24.36c-5.473 3.17-9.915 1.66-9.915-3.26a19.964 19.964 0 013.236-8.5 19.903 19.903 0 016.679-6.17zm-128.104-17.69l-216.705-125.17-.08-464.9 216.785 125.17v464.9z" fill="#263238"/><path d="M481.138 1267.89l309.671-178.79V1554l-309.671 178.79v-464.9z" fill="#37474F"/><path d="M790.809 1089.1l-309.671 178.79-216.785-125.17 309.75-178.791L790.809 1089.1z" fill="#455A64"/><path d="M512.153 1285.74l247.72-143.02 5.711 3.33v172.13l-247.72 143.09-5.711-3.33v-172.2z" fill="#263238"/><path d="M614.953 1262.18l42.12-24.35c5.473-3.18 9.915-1.67 9.915 3.25a19.903 19.903 0 01-9.915 14.67l-42.12 24.27c-5.473 3.18-9.915 1.75-9.915-3.17a19.753 19.753 0 013.221-8.51 19.656 19.656 0 016.694-6.16zm-108.511 241.45l247.72-143.02v172.21l5.711 3.25-247.72 143.02-5.711-3.25v-172.21z" fill="#263238"/><path d="M512.153 1506.96l247.72-143.09v172.2l-247.72 143.02v-172.13z" fill="#455A64"/><path d="M609.242 1480.07l42.12-24.35c5.473-3.17 9.915-1.74 9.915 3.25a19.633 19.633 0 01-3.229 8.47 19.608 19.608 0 01-6.686 6.13l-42.12 24.35c-5.473 3.17-9.915 1.74-9.915-3.25a19.622 19.622 0 013.23-8.47 19.596 19.596 0 016.685-6.13zm-97.089-194.33l247.72-143.02v172.21l-247.72 143.01v-172.2z" fill="#263238"/><path d="M883.773 1227.75l-135.639-78.21v151.66l135.639 78.29v-151.74z" fill="#263238"/><path d="M605.038 1482.45v-214.56l53.145-30.78 8.805 12.93 154.835-89.47v196.71l-216.785 125.17z" fill="#B75400"/><path opacity=".2" d="M605.038 1482.45v-214.56l53.145-30.78 8.805 12.93 154.835-89.47v196.71l-216.785 125.17z" fill="#000"/><path d="M605.038 1482.45l15.468-187.75 216.785-125.17-15.468 187.75-216.785 125.17z" fill="#B75400"/><path d="M635.973 1370.85l-118.188-68.22v151.66l118.188 68.22v-151.66z" fill="#37474F"/><path d="M635.973 1357.28l247.8-143.01v172.12l-247.8 143.1v-172.21z" fill="#455A64"/><path d="M733.142 1330.39l42.12-24.35c5.473-3.17 9.915-1.66 9.915 3.25a19.866 19.866 0 01-3.236 8.5 19.95 19.95 0 01-6.679 6.18l-42.12 24.27c-5.473 3.17-9.915 1.75-9.915-3.17a19.932 19.932 0 019.915-14.68zm-97.168 26.89l-8.25-4.76v172.21l8.25 4.76v-172.21z" fill="#263238"/><path d="M627.724 1352.52l247.8-143.01 8.249 4.76-247.799 143.01-8.25-4.76z" fill="#37474F"/><path d="M2705.39 115.667l-32.21-18.72-1643.46 948.683v1374.08c-.43 4.26.26 8.55 2.01 12.45 1.76 3.9 4.51 7.27 7.99 9.76l32.2 18.72c3.91 1.8 8.22 2.52 12.5 2.11a24.24 24.24 0 0011.85-4.49L2670.8 1549c10-6.52 18.31-15.3 24.28-25.64a75.954 75.954 0 0010.07-33.85l.24-1373.843z" fill="#E6E6E6"/><path d="M1061.93 2438.43c0 21.89 15.31 30.78 34.35 19.83L2670.8 1549c10-6.52 18.31-15.3 24.28-25.64a75.954 75.954 0 0010.07-33.85V115.667L1061.93 1064.43v1374z" fill="#FAFAFA"/><path d="M2697.45 129.151V1489.67a68.269 68.269 0 01-30.38 52.67l-1574.52 909.02a23.837 23.837 0 01-11.43 3.65c-9.99 0-11.02-11.58-11.02-16.58V1068.95l1627.35-939.799zm7.94-13.722L1061.93 1064.43v1374c0 15.87 7.93 24.51 18.96 24.51a31.71 31.71 0 0015.39-4.68L2670.8 1549c10-6.52 18.31-15.3 24.28-25.64a75.954 75.954 0 0010.07-33.85V115.667l.24-.238z" fill="#E0E0E0"/><path d="M1061.93 1064.43v148.73l1643.22-948.766V115.667L1061.93 1064.43z" fill="#B75400"/><path d="M2092.95 527.424v31.728c0 6.505 4.68 9.201 10.31 5.949l505.2-291.743v-55.525l-505.2 292.061a22.974 22.974 0 00-10.31 17.53z" fill="#FAFAFA"/><path d="M2662.63 186.659c5.71-3.331 10.31-.634 10.31 5.949v31.729a22.616 22.616 0 01-3.01 10.162 22.624 22.624 0 01-7.3 7.685l-54.17 31.253v-55.525l54.17-31.253z" fill="#455A64"/><path d="M2658.67 230.524l-6.11-1.904a32.166 32.166 0 001.03-7.932c.27-2.44-.1-4.908-1.07-7.161a14.196 14.196 0 00-4.48-5.689 8.687 8.687 0 00-4.4-1.205c-1.55 0-3.07.417-4.41 1.205a30.936 30.936 0 00-9.03 11.133 30.85 30.85 0 00-3.02 14.012c-.29 2.441.07 4.915 1.05 7.171a13.863 13.863 0 004.5 5.679 7.031 7.031 0 003.81 1.031 9.888 9.888 0 004.91-1.427 25.024 25.024 0 009.76-13.089l6.11 1.904h.47c.47.008.94-.133 1.32-.404.39-.271.67-.657.83-1.103.03-.454-.08-.908-.3-1.303a2.361 2.361 0 00-.97-.918zm-19.44 11.581c-.6.462-1.32.745-2.08.815-.76.07-1.52-.075-2.2-.418a10.145 10.145 0 01-2.73-4.08 10.147 10.147 0 01-.52-4.884 26.871 26.871 0 019.75-21.258c.84-.519 1.8-.819 2.78-.872.56-.002 1.12.164 1.59.476a10.419 10.419 0 012.7 4.09c.57 1.558.75 3.228.55 4.873.06 4.055-.79 8.072-2.49 11.753a26.862 26.862 0 01-7.35 9.505z" fill="#FAFAFA"/><path d="M2663.19 2.951a23.79 23.79 0 00-24.59 2.221l-1574.53 909.26a75.731 75.731 0 00-24.3 25.629 75.84 75.84 0 00-10.05 33.862v71.947l32.21 18.8 1643.46-949.003V43.722c.48-4.238-.19-8.53-1.93-12.423a23.726 23.726 0 00-7.99-9.707c-5.95-3.49-26.65-15.23-32.28-18.64z" fill="#263238"/><path d="M1061.93 992.484a75.59 75.59 0 0110.02-33.872 75.592 75.592 0 0124.33-25.619l1574.52-909.1c18.96-10.947 34.35-2.063 34.35 19.83v71.944L1061.93 1064.43v-71.946z" fill="#37474F"/><path d="M2695.55 21.75a23.784 23.784 0 00-12.67-2.414 23.82 23.82 0 00-12.08 4.556L1096.28 932.914a70.017 70.017 0 00-24.28 25.621l-32.36-18.641a70.527 70.527 0 0124.35-25.7L2638.6 5.093a23.793 23.793 0 0124.59-2.142c5.63 3.411 26.25 15.23 31.73 18.561l.63.238z" fill="#455A64"/><path d="M2511.84 152.948a35.59 35.59 0 00-11.25 12.071 35.523 35.523 0 00-4.61 15.85c0 10.232 7.22 14.436 15.86 9.281a35.631 35.631 0 0015.87-27.922c.23-10.391-6.98-14.595-15.87-9.28zm56.4-32.601a35.54 35.54 0 00-11.26 12.026 35.49 35.49 0 00-4.6 15.816c0 10.311 7.21 14.436 15.86 9.36a35.702 35.702 0 0011.24-12.081 35.626 35.626 0 004.62-15.841c.24-10.311-6.98-14.436-15.86-9.28zm56.32-32.522a35.627 35.627 0 00-15.87 27.921c0 10.312 7.22 14.437 15.87 9.281a35.39 35.39 0 0011.28-12.057 35.286 35.286 0 004.58-15.864c.32-10.233-6.9-14.437-15.86-9.28z" fill="#B75400"/><path d="M1096.28 2458.26l287.85-166.18V1027.07l-322.2 186.09v1225.27c0 21.89 15.31 30.7 34.35 19.83z" fill="#F5F5F5"/><path d="M1376.2 1040.79v1246.69l-283.89 163.88a23.8 23.8 0 01-11.42 3.65c-10 0-11.03-11.58-11.03-16.58V1217.68l306.34-176.89zm7.93-13.72l-322.2 186.09v1225.27c0 15.87 7.93 24.51 18.96 24.51a31.71 31.71 0 0015.39-4.68l287.85-166.18V1027.07z" fill="#E0E0E0"/><path d="M1168.85 1225.77l154.2-89.24c5.64-3.33 10.24-.63 10.24 5.95v13.41c-.2 3.56-1.23 7.03-3 10.13a22.93 22.93 0 01-7.24 7.71l-154.2 89.08c-5.71 3.33-10.31.64-10.31-5.95v-13.24c.21-3.58 1.26-7.05 3.05-10.15 1.79-3.1 4.28-5.73 7.26-7.7z" fill="#E0E0E0"/><path d="M1126.34 1262.26v13.4a22.86 22.86 0 01-3.02 10.16c-1.79 3.1-4.29 5.73-7.29 7.69l-11.58 6.66c-5.72 3.33-10.32.64-10.32-5.95v-13.4c.2-3.58 1.23-7.06 3.02-10.16 1.8-3.1 4.29-5.74 7.3-7.69l11.58-6.66c5.71-3.33 10.31-.8 10.31 5.95z" fill="#B75400"/><path d="M1168.85 1299.93l154.2-89.07c5.64-3.34 10.24-.64 10.24 5.87v13.4c-.2 3.58-1.23 7.06-3 10.17a23.18 23.18 0 01-7.24 7.76l-154.2 89.08c-5.71 3.25-10.31.63-10.31-5.95v-13.41c.2-3.57 1.24-7.05 3.03-10.15 1.79-3.1 4.29-5.74 7.28-7.7z" fill="#E0E0E0"/><path d="M1126.34 1336.34v13.41a22.72 22.72 0 01-3.01 10.16c-1.8 3.1-4.3 5.74-7.3 7.68l-11.58 6.75c-5.72 3.25-10.32.63-10.32-5.95v-13.41c.19-3.58 1.22-7.06 3.02-10.16 1.79-3.1 4.29-5.74 7.3-7.68l11.58-6.75c5.71-3.49 10.31-.63 10.31 5.95z" fill="#B75400"/><path d="M1168.85 1374.02l154.2-89.08c5.64-3.25 10.24-.63 10.24 5.95v13.41a22.78 22.78 0 01-10.24 17.84l-154.2 89.08c-5.71 3.33-10.31.64-10.31-5.87v-13.48c.22-3.57 1.27-7.04 3.06-10.14a22.96 22.96 0 017.25-7.71z" fill="#E0E0E0"/><path d="M1126.34 1410.51v13.4c-.19 3.58-1.22 7.06-3.01 10.17-1.8 3.1-4.3 5.73-7.3 7.68l-11.58 6.74c-5.72 3.25-10.32.56-10.32-5.95v-13.48a23.01 23.01 0 013.04-10.15c1.79-3.1 4.28-5.74 7.28-7.7l11.58-6.66c5.71-3.25 10.31-.64 10.31 5.95z" fill="#B75400"/><path d="M1168.85 1619.92l154.2-89.16c5.64-3.25 10.24-.64 10.24 5.95v13.4a22.82 22.82 0 01-2.99 10.15 22.74 22.74 0 01-7.25 7.7l-154.2 89.16c-5.71 3.25-10.31.63-10.31-5.95v-13.41c.2-3.57 1.24-7.05 3.03-10.15a22.8 22.8 0 017.28-7.69z" fill="#E0E0E0"/><path d="M1126.34 1656.32v13.41a22.72 22.72 0 01-3.01 10.16c-1.8 3.1-4.3 5.74-7.3 7.69l-11.58 6.74c-5.72 3.25-10.32.63-10.32-5.95v-13.41c.19-3.57 1.22-7.06 3.02-10.16 1.79-3.1 4.29-5.73 7.3-7.68l11.58-6.74c5.71-3.26 10.31-.64 10.31 5.94z" fill="#B75400"/><path d="M1168.85 1685.51l154.2-88.91c5.64-3.26 10.24-.64 10.24 5.94v13.41c-.19 3.57-1.21 7.04-2.99 10.15a22.83 22.83 0 01-7.25 7.7l-154.2 88.92c-5.71 3.33-10.31.63-10.31-5.95v-13.41a23.147 23.147 0 0110.31-17.85z" fill="#E0E0E0"/><path d="M1126.34 1722v13.41a22.72 22.72 0 01-3.01 10.16c-1.8 3.1-4.3 5.74-7.3 7.68l-11.58 6.67c-5.72 3.33-10.32.63-10.32-5.95v-13.41a22.93 22.93 0 013.04-10.14c1.79-3.1 4.28-5.74 7.28-7.7l11.58-6.67c5.71-3.25 10.31-.47 10.31 5.95z" fill="#B75400"/><path d="M1168.85 1751.19l154.2-89.08c5.64-3.33 10.24-.63 10.24 5.95v13.41c-.2 3.57-1.23 7.04-3 10.14a23.118 23.118 0 01-7.24 7.71l-154.2 89.07c-5.71 3.34-10.31.64-10.31-5.94v-13.41c.21-3.57 1.26-7.05 3.05-10.14 1.79-3.1 4.28-5.74 7.26-7.71z" fill="#E0E0E0"/><path d="M1126.34 1787.68v13.41c-.2 3.57-1.23 7.05-3.02 10.15-1.79 3.1-4.29 5.74-7.29 7.69l-11.58 6.67c-5.72 3.33-10.32.63-10.32-5.95v-13.41c.2-3.57 1.23-7.05 3.02-10.16 1.8-3.1 4.29-5.73 7.3-7.69l11.58-6.66c5.71-3.33 10.31-.63 10.31 5.95zm32.2-332.67v23.08l20.07-23.08h-20.07z" fill="#B75400"/><path d="M1190.83 1450.17c0 4.36 3.01 6.03 6.82 3.81l128.82-74.09c1.99-1.31 3.64-3.07 4.83-5.13 1.18-2.07 1.87-4.39 1.99-6.77 0-4.36-3.02-6.11-6.82-3.89l-128.82 74.33a15.025 15.025 0 00-4.82 5.05 15.012 15.012 0 00-2 6.69z" fill="#E0E0E0"/><path d="M1158.54 1492.13v23.16l20.07-23.16h-20.07z" fill="#B75400"/><path d="M1190.83 1487.37c0 4.28 3.01 6.03 6.82 3.81l128.82-74.17c1.99-1.28 3.65-3.03 4.84-5.08 1.18-2.06 1.86-4.37 1.98-6.74 0-4.36-3.02-6.1-6.82-3.88l-128.82 74.32a15.025 15.025 0 00-4.82 5.05 15.012 15.012 0 00-2 6.69z" fill="#E0E0E0"/><path d="M1158.54 1529.33v23.16l20.07-23.16h-20.07z" fill="#B75400"/><path d="M1190.83 1524.57c0 4.28 3.01 6.03 6.82 3.81l128.82-74.17c1.99-1.28 3.65-3.02 4.84-5.08 1.18-2.06 1.86-4.36 1.98-6.74 0-4.36-3.02-6.1-6.82-3.88l-128.82 74.32a15.056 15.056 0 00-4.82 5.06 15.01 15.01 0 00-2 6.68z" fill="#E0E0E0"/><path d="M1158.54 1566.53v23.16l20.07-23.16h-20.07z" fill="#B75400"/><path d="M1190.83 1561.77c0 4.29 3.01 6.03 6.82 3.81l128.82-74.16c1.99-1.29 3.65-3.03 4.84-5.09 1.18-2.05 1.86-4.36 1.98-6.73 0-4.37-3.02-6.11-6.82-3.89l-128.82 74.32a15.148 15.148 0 00-4.82 5.06 15.01 15.01 0 00-2 6.68z" fill="#E0E0E0"/><path d="M1480.75 1071.41v193.86c0 7.93 5.71 11.42 12.77 7.38l213.13-123.11c3.72-2.4 6.82-5.65 9.04-9.49 2.22-3.83 3.5-8.14 3.73-12.56V968.133c0-7.932-5.71-11.423-12.77-7.377l-123.66 71.384c-7.06 4.05-12.77.8-12.77-7.29v-5.08c0-7.93-5.63-11.42-12.69-7.38l-64.01 36.89a28.172 28.172 0 00-12.77 22.13z" fill="#B75400"/><path d="M1522.71 1301.84v12.45c0 6.03 4.28 8.49 9.51 5.47l159.92-92.33c2.77-1.8 5.08-4.24 6.73-7.11 1.66-2.86 2.61-6.08 2.79-9.38v-12.46c0-6.03-4.29-8.49-9.52-5.47l-159.92 92.33c-2.77 1.8-5.08 4.24-6.73 7.11a20.956 20.956 0 00-2.78 9.39z" fill="#E0E0E0"/><path d="M1777.33 901.265v193.865c0 7.93 5.71 11.34 12.69 7.29l213.14-123.024a28.32 28.32 0 009.01-9.503c2.22-3.83 3.5-8.129 3.76-12.548V797.909c0-7.932-5.72-11.422-12.77-7.377l-123.67 71.39c-7.06 4.045-12.69.713-12.69-7.377v-5.077c0-7.932-5.71-11.343-12.77-7.298l-64.01 36.964c-3.71 2.43-6.79 5.7-9 9.546a28.164 28.164 0 00-3.69 12.585z" fill="#B75400"/><path d="M1819.05 1131.69v12.77c0 6.11 4.28 8.57 9.52 5.56l159.91-92.81a21.253 21.253 0 009.52-16.58v-12.37c0-6.11-4.28-8.57-9.52-5.47l-159.91 92.33a21.13 21.13 0 00-6.73 7.15 21.294 21.294 0 00-2.79 9.42z" fill="#E0E0E0"/><path d="M1480.75 1460.88v193.86c0 7.93 5.71 11.42 12.77 7.37l213.13-123.1c3.67-2.38 6.74-5.59 8.96-9.36a28.18 28.18 0 003.81-12.38v-159.43c0-7.93-5.71-11.34-12.77-7.3l-123.66 71.39c-7.06 4.05-12.77.79-12.77-7.3v-5.07c0-7.94-5.63-11.43-12.69-7.38l-64.01 36.96a28.238 28.238 0 00-8.96 9.36 28.18 28.18 0 00-3.81 12.38z" fill="#B75400"/><path d="M1522.71 1691.3v12.46c0 6.03 4.28 8.49 9.51 5.47l159.92-92.33c2.76-1.81 5.06-4.25 6.72-7.12 1.65-2.86 2.61-6.07 2.8-9.38v-12.45c0-6.03-4.29-8.49-9.52-5.47l-159.92 92.33c-2.77 1.8-5.08 4.24-6.73 7.11a20.953 20.953 0 00-2.78 9.38z" fill="#E0E0E0"/><path d="M1777.33 1290.65v193.86c0 7.94 5.71 11.43 12.69 7.38l213.14-123.11c3.71-2.39 6.8-5.63 9.02-9.45 2.22-3.82 3.5-8.11 3.75-12.52v-159.43c0-7.94-5.72-11.43-12.77-7.38l-123.67 71.39c-7.06 4.04-12.69.71-12.69-7.38v-5.07c0-7.94-5.71-11.43-12.77-7.3l-64.01 36.96c-3.7 2.42-6.78 5.68-8.99 9.51-2.2 3.83-3.47 8.13-3.7 12.54z" fill="#B75400"/><path d="M1819.05 1521.16v12.37c0 6.11 4.28 8.57 9.52 5.48l159.91-92.25a21.253 21.253 0 009.52-16.58v-12.37c0-6.11-4.28-8.57-9.52-5.56l-159.91 92.33a21.253 21.253 0 00-9.52 16.58z" fill="#E0E0E0"/><path d="M2077 721.681v193.862c0 7.932 5.71 11.422 12.69 7.377l213.22-123.107a28.132 28.132 0 0012.69-22.051V618.405c0-7.932-5.71-11.422-12.69-7.377l-123.74 71.389c-6.98 4.125-12.69.794-12.69-7.297v-5.077c0-7.932-5.71-11.422-12.77-7.377l-64.02 37.043a28.033 28.033 0 00-8.96 9.471 28.122 28.122 0 00-3.73 12.501z" fill="#B75400"/><path d="M2115.4 961.47v12.453c0 6.029 4.28 8.488 9.59 5.473l159.99-92.33a20.878 20.878 0 006.79-7.092 20.949 20.949 0 002.81-9.406v-12.375c0-6.107-4.28-8.566-9.6-5.552l-159.83 92.33a20.998 20.998 0 00-6.88 7.068 20.94 20.94 0 00-2.87 9.431z" fill="#E0E0E0"/><path d="M2369.86 560.897v193.861c0 7.933 5.71 11.343 12.77 7.298l213.13-123.027a28.1 28.1 0 008.98-9.511 28.148 28.148 0 003.72-12.541V457.542c0-7.932-5.64-11.423-12.7-7.377l-123.66 71.389c-7.06 4.045-12.77.714-12.77-7.377V509.1c0-7.932-5.63-11.342-12.69-7.297l-64.01 36.964a28.019 28.019 0 00-9.06 9.523 28.006 28.006 0 00-3.71 12.607z" fill="#B75400"/><path d="M2411.9 791.326v12.056c0 6.108 4.2 8.567 9.52 5.553l159.91-92.33c2.76-1.82 5.06-4.26 6.71-7.124a21.367 21.367 0 002.81-9.375v-12.453c0-6.108-4.29-8.567-9.52-5.474l-159.91 92.251a21.08 21.08 0 00-9.52 16.896zM2115.4 1350.7v12.45c0 6.03 4.28 8.49 9.59 5.48l159.99-92.25a20.965 20.965 0 009.6-16.5v-12.3c0-6.03-4.28-8.49-9.6-5.47l-159.83 92.33a20.913 20.913 0 00-6.82 6.96c-1.7 2.83-2.7 6.01-2.93 9.3z" fill="#E0E0E0"/><path d="M2119.44 1078.31l165.54-95.741c7.54-4.363 13.73-.793 13.73 7.932v191.479c-.26 4.77-1.64 9.41-4.02 13.54a30.457 30.457 0 01-9.71 10.26l-165.54 95.74c-7.93 4.36-13.72.87-13.72-7.93v-191.48c.26-4.77 1.64-9.4 4.02-13.54 2.39-4.13 5.71-7.65 9.7-10.26z" fill="#FAFAFA"/><path d="M2113.25 1307.39c-1.94.02-3.86-.47-5.55-1.43a13.474 13.474 0 01-4.67-5.37c-1.04-2.18-1.49-4.6-1.28-7v-191.48c.28-5.48 1.86-10.8 4.62-15.54a34.32 34.32 0 0111.25-11.67l165.86-95.742a13.328 13.328 0 0113.64-.952c2 1.331 3.62 3.171 4.68 5.331a13.621 13.621 0 011.35 6.964v191.479c-.28 5.48-1.86 10.8-4.62 15.54a34.32 34.32 0 01-11.25 11.67l-165.86 95.82a16.578 16.578 0 01-8.17 2.38zm178.16-322.679a7.98 7.98 0 00-4.13 1.348l-165.86 95.741c-3.4 2.24-6.23 5.24-8.27 8.76a26.28 26.28 0 00-3.47 11.55v191.48c0 2.77.72 4.76 1.99 5.47.97.32 2 .4 3.01.23 1.01-.16 1.96-.57 2.78-1.18l165.86-95.74c3.39-2.27 6.21-5.29 8.25-8.82 2.03-3.54 3.23-7.5 3.49-11.57V990.501a6.339 6.339 0 00-.37-2.988 6.307 6.307 0 00-1.69-2.485 3.36 3.36 0 00-1.59-.317z" fill="#EBEBEB"/><path d="M2304.81 1008.43l-36.96 21.34a30.42 30.42 0 00-9.75 10.24 30.43 30.43 0 00-4.05 13.55v42.68c0 8.8 6.19 12.37 13.8 7.93l36.96-21.34c4-2.61 7.32-6.12 9.71-10.26 2.38-4.13 3.76-8.77 4.02-13.54v-42.67c0-8.73-6.19-12.29-13.73-7.93z" fill="#B75400"/><path d="M2132.05 1099.01l83.13-47.59c3.73-2.14 6.82-.4 6.82 4.05v2.61a15.4 15.4 0 01-6.82 11.9l-83.13 47.59c-3.8 2.23-6.9.48-6.82-3.96v-2.7c.12-2.38.8-4.7 1.99-6.76 1.18-2.07 2.84-3.83 4.83-5.14zm0 37.52l83.13-47.59c3.73-2.22 6.82-.4 6.82 3.97v2.61c-.12 2.38-.8 4.7-1.98 6.77a15.233 15.233 0 01-4.84 5.13l-83.13 47.59c-3.8 2.22-6.9 0-6.82-3.96v-2.78c.15-2.35.84-4.64 2.02-6.68 1.19-2.03 2.83-3.77 4.8-5.06zm0 36.81l83.13-47.6c3.73-2.14 6.82-.39 6.82 3.97v2.7c-.14 2.37-.83 4.68-2.01 6.75a15.488 15.488 0 01-4.81 5.15l-83.13 47.59c-3.8 2.22-6.9.47-6.82-3.97v-2.69c.12-2.39.79-4.71 1.98-6.77 1.19-2.07 2.85-3.83 4.84-5.13zm0 37.12l138.02-79.32c3.81-2.14 6.9 0 6.9 3.96v2.7c-.13 2.39-.83 4.71-2.03 6.77-1.2 2.07-2.87 3.83-4.87 5.13l-138.02 79.32c-3.8 2.14-6.9.4-6.82-3.97v-2.77c.13-2.37.82-4.67 2.01-6.72 1.18-2.06 2.83-3.8 4.81-5.1zm0 37.12l138.02-79.32c3.81-2.22 6.9 0 6.9 3.97v2.61a15.131 15.131 0 01-6.9 11.9l-138.02 79.32c-3.8 2.22-6.9.4-6.82-3.96v-2.7c.12-2.37.79-4.68 1.98-6.74a15.08 15.08 0 014.84-5.08z" fill="#EBEBEB"/><path d="M2405.39 1183.41v12.37c0 6.11 4.29 8.57 9.52 5.56l159.91-92.33c2.78-1.82 5.09-4.27 6.75-7.15 1.65-2.88 2.6-6.11 2.77-9.43v-12.37c0-6.11-4.2-8.57-9.52-5.56l-159.91 92.33a21.352 21.352 0 00-6.73 7.16c-1.65 2.88-2.6 6.11-2.79 9.42z" fill="#E0E0E0"/><path d="M2409.44 910.942l165.78-95.741c7.93-4.442 13.8-.872 13.8 7.932v191.487c-.28 4.76-1.67 9.4-4.07 13.54a30.485 30.485 0 01-9.73 10.25l-165.78 95.74c-7.93 4.36-13.8.8-13.8-7.93V934.738a30.278 30.278 0 0113.8-23.796z" fill="#FAFAFA"/><path d="M2403.25 1139.94c-1.94.02-3.86-.47-5.55-1.43a13.53 13.53 0 01-4.68-5.33 13.605 13.605 0 01-1.35-6.96V934.738a34.23 34.23 0 014.6-15.578 34.358 34.358 0 0111.27-11.708l165.78-95.741a12.284 12.284 0 0113.73-.963 12.318 12.318 0 014.91 5.271 12.294 12.294 0 011.11 7.114v191.477a34.166 34.166 0 01-15.87 27.21l-165.78 95.74a16.578 16.578 0 01-8.17 2.38zm7.93-225.587a26.384 26.384 0 00-8.31 8.797 26.328 26.328 0 00-3.5 11.588v191.482c-.13 1.01 0 2.04.36 2.99.36.95.94 1.8 1.7 2.48.97.33 2.01.4 3.02.22 1.01-.18 1.96-.61 2.77-1.25l165.78-95.74a26.251 26.251 0 0011.82-20.31V823.133c.43-1.035.47-2.192.1-3.253a4.596 4.596 0 00-8.03-1.268l-165.71 95.741z" fill="#EBEBEB"/><path d="M2594.73 841.06l-36.96 21.337c-4 2.61-7.32 6.125-9.7 10.259a30.211 30.211 0 00-4.02 13.538v42.675c0 8.725 6.18 12.295 13.72 7.932l36.96-21.338a30.505 30.505 0 009.74-10.256 30.645 30.645 0 004.07-13.54v-42.675c0-8.805-6.27-12.374-13.81-7.932z" fill="#B75400"/><path d="M2422.05 931.566l83.05-47.593c3.81-2.221 6.9 0 6.9 3.966v2.697c-.12 2.39-.8 4.717-2 6.787a14.96 14.96 0 01-4.9 5.111l-83.05 47.593c-3.81 2.221-6.9.397-6.9-3.966v-2.776a15.236 15.236 0 016.9-11.819zm0 37.201l83.05-47.592c3.81-2.142 6.9 0 6.9 3.966v2.696a15.135 15.135 0 01-2.03 6.773 15.272 15.272 0 01-4.87 5.126l-83.05 47.592c-3.81 2.221-6.9.476-6.9-3.966v-2.697a15.139 15.139 0 016.9-11.898zm0 37.123l83.05-47.593c3.81-2.221 6.9 0 6.9 3.966v2.618a15.139 15.139 0 01-6.9 11.898l-83.05 47.591c-3.81 2.14-6.9.4-6.9-3.96v-2.86c.17-2.34.89-4.62 2.08-6.64 1.2-2.02 2.85-3.74 4.82-5.02zm0 37.2l138.02-79.32c3.81-2.221 6.9-.397 6.9 3.966v2.221a15.262 15.262 0 01-2.03 6.773 15.269 15.269 0 01-4.87 5.125l-138.02 79.325c-3.81 2.22-6.9.39-6.9-3.97v-2.7c.19-2.3.91-4.54 2.11-6.52 1.2-1.98 2.84-3.66 4.79-4.9zm0 37.12l138.02-79.32c3.81-2.139 6.9-.39 6.9 3.97v2.7c-.14 2.38-.83 4.7-2.03 6.77a15.29 15.29 0 01-4.87 5.12l-138.02 79.32c-3.81 2.15-6.9.4-6.9-3.96v-2.78c.15-2.37.85-4.67 2.05-6.73a15.33 15.33 0 014.85-5.09z" fill="#EBEBEB"/><path d="M2115.4 1745.96v12.45c0 6.03 4.28 8.49 9.59 5.47l159.99-92.33c2.8-1.79 5.12-4.22 6.79-7.09s2.63-6.09 2.81-9.4v-12.46c0-6.03-4.28-8.49-9.6-5.47l-159.83 92.33c-2.82 1.77-5.18 4.2-6.88 7.07-1.69 2.87-2.68 6.1-2.87 9.43z" fill="#E0E0E0"/><path d="M2119.44 1473.49l165.54-95.74c7.54-4.36 13.73-.8 13.73 7.93v191.48c-.27 4.76-1.66 9.4-4.04 13.53-2.38 4.13-5.7 7.65-9.69 10.27l-165.86 95.74c-7.93 4.36-13.72.87-13.72-7.93v-191.48c.29-4.8 1.71-9.46 4.15-13.6a30.34 30.34 0 019.89-10.2z" fill="#FAFAFA"/><path d="M2113.25 1702.57c-1.94.02-3.86-.48-5.55-1.43-2-1.35-3.6-3.21-4.64-5.38-1.05-2.18-1.5-4.59-1.31-6.99v-191.48a34.23 34.23 0 0115.87-27.21l165.7-95.58a12.21 12.21 0 016.67-2.51c2.43-.16 4.84.4 6.95 1.61 2.1 1.22 3.8 3.03 4.88 5.2 1.08 2.18 1.48 4.63 1.17 7.04v191.48a34.298 34.298 0 01-15.86 27.21l-165.87 95.74a16.706 16.706 0 01-8.01 2.3zm178.16-322.76a8.68 8.68 0 00-4.13 1.35l-165.86 95.82c-3.4 2.23-6.24 5.23-8.28 8.76a26.23 26.23 0 00-3.46 11.55v191.48a4.606 4.606 0 00-.1 3.25c.36 1.06 1.1 1.95 2.07 2.51.98.55 2.12.73 3.22.51 1.1-.23 2.07-.85 2.75-1.75l165.86-95.74a26.61 26.61 0 008.25-8.83c2.03-3.53 3.23-7.49 3.49-11.56v-191.48c.12-1.01-.01-2.04-.37-2.99-.36-.95-.94-1.8-1.7-2.48-.53-.29-1.13-.43-1.74-.4z" fill="#EBEBEB"/><path d="M2304.81 1403.61l-36.96 21.33a30.543 30.543 0 00-9.75 10.25 30.43 30.43 0 00-4.05 13.55v42.68c0 8.8 6.19 12.29 13.8 7.93l36.96-21.34c4-2.61 7.32-6.12 9.71-10.26 2.38-4.13 3.76-8.77 4.02-13.54v-42.67c0-8.73-6.19-12.3-13.73-7.93z" fill="#B75400"/><path d="M2132.05 1494.19l83.13-47.59c3.73-2.14 6.82-.4 6.82 3.96v2.7a15.4 15.4 0 01-6.82 11.9l-83.13 47.59c-3.8 2.22-6.9.48-6.82-3.96v-2.7a15.096 15.096 0 016.82-11.9zm0 37.12l83.13-47.59c3.73-2.22 6.82-.4 6.82 3.97v2.61c-.12 2.38-.81 4.7-1.99 6.77a15.297 15.297 0 01-4.83 5.13l-83.13 47.6c-3.8 2.14-6.9.39-6.82-3.97v-2.78c.15-2.35.84-4.64 2.02-6.67 1.19-2.04 2.83-3.77 4.8-5.07zm0 37.21l83.13-47.6c3.73-2.14 6.82-.39 6.82 3.97v2.7c-.14 2.37-.83 4.68-2.01 6.75a15.362 15.362 0 01-4.81 5.14l-83.13 47.6c-3.8 2.22-6.9.39-6.82-3.97v-2.38a14.897 14.897 0 016.82-12.21zm0 37.12l138.02-79.32c3.81-2.14 6.9-.4 6.9 3.96v2.86c-.13 2.38-.83 4.7-2.03 6.77-1.2 2.07-2.87 3.82-4.87 5.13l-138.02 79.32c-3.8 2.14-6.9.39-6.82-3.97v-2.77c.11-2.4.79-4.73 1.97-6.81 1.19-2.09 2.85-3.86 4.85-5.17zm0 37.2l138.02-79.32c3.81-2.22 6.9-.48 6.9 3.96v2.62c-.13 2.39-.83 4.71-2.03 6.77-1.2 2.07-2.87 3.83-4.87 5.13l-138.02 79.32c-3.8 2.22-6.9.4-6.82-3.96v-2.7c.12-2.37.79-4.68 1.98-6.74 1.19-2.05 2.85-3.8 4.84-5.08z" fill="#EBEBEB"/><path d="M2405.39 1578.51v12.45c0 6.11 4.29 8.57 9.52 5.48l159.91-92.25c2.78-1.82 5.09-4.27 6.75-7.15 1.65-2.88 2.6-6.11 2.77-9.43v-12.38c0-6.1-4.2-8.56-9.52-5.55l-159.91 92.33a21.261 21.261 0 00-6.71 7.12 21.416 21.416 0 00-2.81 9.38z" fill="#E0E0E0"/><path d="M2409.44 1306.12l165.78-95.74c7.93-4.44 13.8-.87 13.8 7.93v191.4c-.26 4.78-1.64 9.42-4.04 13.56-2.4 4.13-5.74 7.64-9.76 10.24l-165.78 95.82c-7.93 4.36-13.8.79-13.8-7.93v-191.48c.26-4.78 1.64-9.42 4.04-13.56 2.4-4.13 5.74-7.64 9.76-10.24z" fill="#FAFAFA"/><path d="M2403.25 1535.12c-1.94.02-3.86-.47-5.55-1.43a13.53 13.53 0 01-4.68-5.33 13.605 13.605 0 01-1.35-6.96v-191.48c.26-5.49 1.83-10.84 4.6-15.59 2.76-4.75 6.62-8.76 11.27-11.7l165.78-95.74c1.93-1.51 4.27-2.41 6.72-2.58 2.44-.18 4.89.39 7.01 1.62a12.282 12.282 0 016.02 12.38v191.4a34.268 34.268 0 01-4.6 15.59 34.106 34.106 0 01-11.27 11.7l-165.78 96.14a16.62 16.62 0 01-8.17 1.98zm7.93-225.59a26.402 26.402 0 00-8.31 8.8c-2.05 3.54-3.25 7.5-3.5 11.59v191.48c-.14 1-.02 2.02.34 2.96.36.94.95 1.78 1.72 2.43.96.34 2 .43 3.01.27 1.02-.17 1.97-.59 2.78-1.22l166.02-95.82c3.42-2.25 6.26-5.26 8.31-8.8 2.06-3.54 3.25-7.5 3.51-11.59v-191.32c.43-1.03.46-2.19.1-3.25a4.621 4.621 0 00-2.07-2.51c-.98-.56-2.12-.74-3.22-.51-1.1.23-2.07.85-2.75 1.75l-165.94 95.74z" fill="#EBEBEB"/><path d="M2594.73 1236.24l-36.96 21.34a30.3 30.3 0 00-9.7 10.25 30.265 30.265 0 00-4.02 13.54v42.68c0 8.72 6.18 12.29 13.72 7.93l36.96-21.34c4.01-2.61 7.34-6.12 9.74-10.25 2.39-4.14 3.79-8.77 4.07-13.54v-42.68c0-8.8-6.27-12.45-13.81-7.93z" fill="#B75400"/><path d="M2422.05 1326.9l83.05-47.59c3.81-2.22 6.9-.4 6.9 3.97v2.61a15.131 15.131 0 01-6.9 11.9l-83.05 47.59c-3.81 2.15-6.9 0-6.9-3.96v-2.78c.16-2.36.87-4.64 2.07-6.68 1.19-2.04 2.85-3.77 4.83-5.06zm0 37.05l83.05-47.6c3.81-2.14 6.9 0 6.9 3.97v2.7c-.13 2.38-.83 4.7-2.03 6.77-1.2 2.07-2.87 3.82-4.87 5.12l-83.05 47.6c-3.81 2.22-6.9.39-6.9-3.97v-2.7c.12-2.39.81-4.71 2.01-6.78 1.2-2.07 2.87-3.83 4.89-5.11zm0 37.12l83.05-47.59c3.81-2.23 6.9-.48 6.9 3.96v2.62c-.13 2.38-.83 4.7-2.03 6.77-1.2 2.07-2.87 3.82-4.87 5.13l-83.05 47.59c-3.81 2.14-6.9.4-6.9-3.97v-2.77a15.241 15.241 0 016.9-11.74zm0 36.88l138.02-79.32c3.81-2.22 6.9-.47 6.9 3.97v2.62c-.14 2.38-.83 4.7-2.03 6.77a15.29 15.29 0 01-4.87 5.12l-138.02 79.32c-3.81 2.23-6.9.4-6.9-3.96v-2.7a14.986 14.986 0 016.9-11.82zm0 37.44l138.02-79.32c3.81-2.22 6.9-.4 6.9 3.97v2.61c-.12 2.39-.8 4.72-2 6.79-1.2 2.07-2.88 3.82-4.9 5.11l-138.02 79.32c-3.81 2.15-6.9.4-6.9-3.96v-2.78c.16-2.36.87-4.64 2.07-6.68 1.19-2.04 2.85-3.77 4.83-5.06z" fill="#EBEBEB"/><path d="M1522.71 2088.39v12.37c0 6.11 4.28 8.57 9.59 5.55l159.84-92.33c2.78-1.79 5.11-4.23 6.78-7.09a21.07 21.07 0 002.81-9.4v-12.22c0-6.11-4.28-8.57-9.59-5.47l-159.84 92.25a21.163 21.163 0 00-9.59 16.34z" fill="#E0E0E0"/><path d="M1526.75 1815.92l165.86-95.74c7.93-4.36 13.73-.87 13.73 7.93v191.48c-.28 4.76-1.67 9.39-4.05 13.53a30.585 30.585 0 01-9.68 10.27l-165.86 95.74c-7.93 4.36-13.72.79-13.72-7.93v-191.49c.24-4.76 1.62-9.41 4-13.54 2.39-4.14 5.72-7.65 9.72-10.25z" fill="#FAFAFA"/><path d="M1520.56 2044.92c-1.94.02-3.85-.47-5.55-1.43a13.46 13.46 0 01-4.64-5.34c-1.05-2.16-1.5-4.56-1.31-6.95v-191.49a34.23 34.23 0 0115.87-27.2l165.86-95.74a12.204 12.204 0 0113.68-1.01c2.12 1.22 3.83 3.05 4.9 5.26 1.06 2.2 1.44 4.67 1.09 7.09v191.48c-.28 5.47-1.86 10.8-4.62 15.54a34.384 34.384 0 01-11.24 11.67l-165.87 95.74a16.578 16.578 0 01-8.17 2.38zm6.19-229l1.98 3.41c-3.4 2.25-6.23 5.27-8.27 8.81-2.04 3.54-3.22 7.5-3.47 11.57v191.49a4.606 4.606 0 001.98 5.76c.97.55 2.11.73 3.21.51 1.1-.23 2.08-.85 2.75-1.75l165.86-95.82c3.39-2.25 6.21-5.26 8.25-8.78 2.03-3.52 3.23-7.47 3.49-11.53v-191.48c.43-1.04.46-2.19.1-3.25a4.587 4.587 0 00-2.07-2.51 4.584 4.584 0 00-5.96 1.24l-165.87 95.74-1.98-3.41z" fill="#EBEBEB"/><path d="M1712.13 1746.04l-36.97 21.33c-4.01 2.6-7.36 6.11-9.76 10.25a30.38 30.38 0 00-4.04 13.55v42.68c0 8.72 6.19 12.29 13.8 7.93l36.97-21.34a30.59 30.59 0 009.68-10.27c2.39-4.13 3.77-8.76 4.04-13.53v-42.67c0-8.81-6.19-12.3-13.72-7.93z" fill="#B75400"/><path d="M1539.36 1836.62l83.13-47.59c3.73-2.22 6.82-.4 6.82 3.96v2.62c-.12 2.38-.8 4.7-1.98 6.77a15.326 15.326 0 01-4.84 5.13l-83.13 47.59c-3.8 2.22-6.82 0-6.82-3.96v-2.7c.12-2.37.8-4.68 1.98-6.74a15.08 15.08 0 014.84-5.08zm0 37.12l83.13-47.59c3.73-2.14 6.82-.4 6.82 4.05v2.61a15.349 15.349 0 01-6.82 11.9l-83.13 47.6c-3.8 2.14-6.82 0-6.82-3.97v-2.78c.14-2.36.82-4.67 2.01-6.72 1.18-2.05 2.83-3.8 4.81-5.1zm0 37.21l83.13-47.6c3.73-2.22 6.82-.39 6.82 3.97v2.62c-.12 2.38-.8 4.69-1.98 6.76a15.142 15.142 0 01-4.84 5.13l-83.13 47.91c-3.8 2.23-6.82 0-6.82-3.96V1923c.08-2.41.74-4.77 1.93-6.87a14.89 14.89 0 014.89-5.18zm0 37.12l138.02-79.32c3.81-2.22 6.9 0 6.9 3.96v2.62c-.11 2.39-.8 4.72-2 6.79-1.2 2.07-2.88 3.82-4.9 5.11l-138.02 79.32c-3.8 2.22-6.82.48-6.82-3.97v-2.69c.14-2.37.82-4.67 2.01-6.72 1.18-2.06 2.83-3.8 4.81-5.1zm0 37.2l138.02-79.32c3.81-2.14 6.9 0 6.9 3.96v2.7c-.13 2.39-.83 4.71-2.03 6.77-1.2 2.07-2.86 3.83-4.87 5.13l-138.02 79.32c-3.8 2.14-6.82.4-6.82-3.97v-2.77c.14-2.37.82-4.67 2.01-6.72 1.18-2.06 2.83-3.8 4.81-5.1z" fill="#EBEBEB"/><path d="M1812.7 1920.94v12.45c0 6.03 4.29 8.57 9.52 5.48l159.92-92.33c2.78-1.8 5.1-4.23 6.76-7.1 1.65-2.87 2.6-6.09 2.75-9.4v-12.38c0-6.1-4.2-8.56-9.51-5.55l-159.92 92.33a21.296 21.296 0 00-6.72 7.12 21.272 21.272 0 00-2.8 9.38z" fill="#E0E0E0"/><path d="M1816.99 1648.47l165.78-95.74c7.93-4.36 13.8-.79 13.8 7.93v191.48c-.26 4.78-1.64 9.42-4.04 13.56a30.45 30.45 0 01-9.76 10.24l-165.78 95.74c-7.93 4.44-13.8.87-13.8-7.93v-191.48c.28-4.77 1.67-9.41 4.07-13.54 2.39-4.14 5.73-7.65 9.73-10.26z" fill="#FAFAFA"/><path d="M1810.56 1877.55c-1.94.02-3.86-.47-5.55-1.43-2-1.35-3.62-3.2-4.68-5.37a13.773 13.773 0 01-1.35-7v-191.48a34.31 34.31 0 014.63-15.53 34.32 34.32 0 0111.24-11.68l165.7-96.06a12.317 12.317 0 0113.69-.97c2.12 1.22 3.83 3.04 4.91 5.23 1.08 2.2 1.48 4.66 1.15 7.09v191.48a34.023 34.023 0 01-4.6 15.55 34.02 34.02 0 01-11.26 11.65l-165.79 95.82c-2.41 1.59-5.2 2.52-8.09 2.7zm178.16-322.68c-1.5.04-2.96.51-4.21 1.35l-165.78 95.9a26.155 26.155 0 00-8.3 8.76 26.173 26.173 0 00-3.52 11.55v191.48c-.14 1.01-.02 2.04.34 3 .36.95.95 1.8 1.73 2.47.97.32 2 .4 3.01.23 1.01-.16 1.96-.57 2.78-1.18l165.78-95.74c3.41-2.25 6.26-5.27 8.31-8.8 2.05-3.54 3.25-7.51 3.51-11.59v-191.64c.12-1.01-.01-2.03-.37-2.99-.35-.95-.94-1.8-1.69-2.48-.5-.23-1.05-.33-1.59-.32z" fill="#EBEBEB"/><path d="M2002.04 1578.59l-36.96 21.34a30.59 30.59 0 00-13.72 23.79v42.68c0 8.8 6.19 12.37 13.72 7.93l36.96-21.34c4.02-2.59 7.36-6.1 9.76-10.24 2.4-4.13 3.79-8.78 4.05-13.55v-42.68c0-8.72-6.19-12.29-13.81-7.93z" fill="#B75400"/><path d="M1829.36 1669.17l83.05-47.59c3.81-2.14 6.9-.4 6.9 4.05v2.69a15.16 15.16 0 01-2.03 6.78 15.29 15.29 0 01-4.87 5.12l-83.05 47.59c-3.81 2.15-6.9.4-6.9-4.04v-2.7c.14-2.38.83-4.7 2.03-6.77 1.2-2.07 2.87-3.82 4.87-5.13zm0 37.21l83.05-47.6c3.81-2.22 6.9-.39 6.9 3.97v2.62c-.11 2.39-.8 4.71-2 6.78-1.2 2.07-2.88 3.83-4.9 5.12l-83.05 47.59c-3.81 2.22-6.9.39-6.9-3.97v-2.77c.14-2.37.84-4.66 2.04-6.7a15.02 15.02 0 014.86-5.04zm0 37.12l83.05-47.59c3.81-2.15 6.9-.4 6.9 3.96v2.7c-.13 2.38-.83 4.7-2.03 6.77-1.2 2.07-2.87 3.82-4.87 5.13l-83.05 47.59c-3.81 2.22-6.9.48-6.9-3.97v-2.85a15.241 15.241 0 016.9-11.74zm0 37.12l138.02-79.32c3.81-2.14 6.9-.4 6.9 3.97v2.38c-.13 2.38-.83 4.7-2.03 6.77a15.29 15.29 0 01-4.87 5.12l-138.02 79.32c-3.81 2.15-6.9.4-6.9-3.96v-2.78c.2-2.31.92-4.56 2.12-6.55 1.19-1.99 2.83-3.69 4.78-4.95zm0 37.2l138.02-79.32c3.81-2.22 6.9-.4 6.9 3.97v2.61a15.131 15.131 0 01-6.9 11.9l-138.02 79.32c-3.81 2.23-6.9 0-6.9-3.96v-2.7c.13-2.38.82-4.69 2.02-6.74 1.2-2.06 2.88-3.8 4.88-5.08z" fill="#EBEBEB"/><path d="M1061.93 1064.43l-32.21-18.8v148.89l32.21 18.64v-148.73z" fill="#B75400"/><path opacity=".1" d="M1061.93 1064.43l-32.21-18.8v148.89l32.21 18.64v-148.73z" fill="#000"/><path d="M2965.01 1679.64a23.006 23.006 0 00-22.85 2.23 71.374 71.374 0 00-32.36 55.52c-.43 4.01.22 8.05 1.86 11.73 1.64 3.68 4.23 6.86 7.5 9.21l401.52 253.83c7.93 5.55 19.91 5.23 33-2.3a99.628 99.628 0 0031.98-33.57 99.493 99.493 0 0013.31-44.4c0-15.07-5.55-25.47-14.43-29.83l-419.53-222.42z" fill="#B75400"/><path opacity=".15" d="M2909.8 1737.71c0 20.54 14.35 28.95 32.2 18.72a71.342 71.342 0 0022.79-23.92c5.62-9.64 8.9-20.47 9.58-31.61 0-20.54-14.36-28.95-32.21-18.72a71.313 71.313 0 00-22.78 23.92 71.407 71.407 0 00-9.58 31.61z" fill="#000"/><path d="M2820.96 1626.26a43.136 43.136 0 00-13.85 14.55 43.067 43.067 0 00-5.74 19.24c-.26 2.41.13 4.85 1.12 7.06.99 2.22 2.54 4.13 4.51 5.55l121.2 70.36c2.2 1.02 4.63 1.44 7.05 1.2 2.41-.24 4.72-1.11 6.67-2.55 5.76-3.69 10.55-8.7 13.97-14.62a42.788 42.788 0 005.7-19.4c.29-2.43-.09-4.89-1.08-7.12-.99-2.23-2.56-4.16-4.55-5.58l-121.2-70.35a13.706 13.706 0 00-13.8 1.66z" fill="#263238"/><path opacity=".1" d="M2957.15 1743.26l413.11 253.83a79.646 79.646 0 01-16.5 13.09c-13.09 7.53-24.83 7.93-33.08 2.3l-401.44-253.83c3.65 1.69 7.68 2.37 11.68 1.98 4-.39 7.83-1.84 11.08-4.2a58.736 58.736 0 0015.15-13.17z" fill="#000"/><path d="M3026.48 1381.87c0-3.41 0-6.66-.48-9.99-.47-3.33-.39-6.59-.79-9.84s-.4-4.28-.63-6.42c-.56-5.71-1.43-11.27-2.3-16.58-.48-2.38-.88-4.92-1.35-7.3-.48-2.38-.95-4.52-1.43-6.82-1.43-6.11-2.86-12.14-4.6-17.85-.95-2.69-1.75-5.47-2.7-7.93-.16-.41-.29-.84-.39-1.27-1.04-2.7-1.91-5.23-2.94-7.93a92.218 92.218 0 00-3.65-8.57c-.86-2.09-1.84-4.12-2.93-6.11a23.81 23.81 0 00-2.15-4.28c-.79-1.74-1.74-3.49-2.69-5.15l-.72-1.19c-.79-1.51-1.74-2.94-2.61-4.45-.88-1.5-1.27-1.9-1.83-2.85a157.57 157.57 0 00-14.28-19.04c-.95-.95-1.82-1.98-2.69-2.93-.88-.96-1.51-1.59-2.22-2.38l-2.94-2.86c-2.7-2.83-5.59-5.48-8.64-7.93a47.899 47.899 0 00-4.37-3.41c-1.5-1.19-3.01-2.3-4.6-3.33a73.052 73.052 0 00-7.37-4.84l-1.99-1.27h-.39l-87.26-50.69-.63-.39a147.862 147.862 0 00-73.93-18.72c-38.55 0-82.02 12.69-128.1 39.26-158.65 91.38-286.67 313.64-286.67 496.55 0 91.14 31.73 155.23 83.45 185.3h.47l87.25 50.6h.48l1.43.8c2.3 1.27 4.52 2.46 6.82 3.57 2.3 1.11 5.71 2.61 8.65 3.8 2.93 1.19 5.23 2.07 7.93 2.86 1.39.53 2.82.95 4.28 1.27 1.46.59 2.98 1.04 4.52 1.35l4.68 1.19c1.12.31 2.26.55 3.41.71l6.19 1.11h1.43l7.45.95c42.76 4.52 92.41-7.53 145.56-38.15 158.64-91.46 286.67-313.8 286.67-496.55-.16-3.81-.24-7.93-.4-12.3zm-192.04-129.29c6.21 22.74 9.25 46.23 9.05 69.8 0 161.26-118.03 365.59-257.64 446.18a248.9 248.9 0 01-65.36 27.21 256.482 256.482 0 01-9.04-69.88c0-161.26 117.95-365.59 257.63-446.18a247.678 247.678 0 0165.36-27.13z" fill="#B75400"/><path opacity=".1" d="M2533.26 1909.28l-84.08-48.7c-51.56-30.15-83.45-94.32-83.45-185.3 0-81.54 25.54-170.86 67.82-252.95l87.26 50.68c-42.36 82.02-67.9 171.42-67.9 252.96.31 89.16 30.38 152.37 80.35 183.31z" fill="#000"/><path opacity=".4" d="M3026.48 1381.87c0-3.41 0-6.66-.48-9.99-.47-3.33-.39-6.59-.79-9.84s-.4-4.28-.63-6.42c-.56-5.71-1.43-11.27-2.3-16.58-.48-2.38-.88-4.92-1.35-7.3-.48-2.38-.96-4.52-1.43-6.82-1.43-6.11-2.86-12.14-4.6-17.85-.95-2.69-1.75-5.47-2.7-7.93-.16-.41-.29-.84-.4-1.27-1.03-2.7-1.9-5.23-2.93-7.93a92.218 92.218 0 00-3.65-8.57c-.86-2.09-1.84-4.12-2.93-6.11a23.81 23.81 0 00-2.15-4.28c-.79-1.74-1.74-3.49-2.69-5.15l-.72-1.19c-.79-1.51-1.74-2.94-2.61-4.45-.88-1.5-1.27-1.9-1.83-2.85a157.57 157.57 0 00-14.28-19.04c-.95-.95-1.82-1.98-2.69-2.93-.88-.96-1.51-1.59-2.22-2.38l-2.94-2.86c-2.7-2.83-5.59-5.48-8.65-7.93a46.429 46.429 0 00-4.36-3.41c-1.51-1.19-3.01-2.3-4.6-3.33a72.079 72.079 0 00-7.38-4.84c-52.03-31.73-126.91-30.94-205.12 18.48-157.14 98.99-285.95 318.47-286.75 496.55-.39 92.65 32.84 157.3 85.91 186.72 2.3 1.27 4.52 2.46 6.82 3.57 2.3 1.11 5.71 2.62 8.65 3.81 2.93 1.19 5.23 2.06 7.93 2.86 1.39.53 2.82.95 4.28 1.26 1.46.6 2.98 1.05 4.52 1.35l4.68 1.19c1.12.32 2.26.56 3.41.72l6.19 1.11h1.43l7.45.95c42.76 4.52 92.41-7.54 145.56-38.15 158.64-91.46 286.67-313.8 286.67-496.56-.08-4.12-.16-8.24-.32-12.61zm-315.54 459.27c-35.54 20.55-69.72 31.33-98.99 31.33-54.89 0-80.12-37.44-91.46-76.7a256.482 256.482 0 01-9.04-69.88c0-161.26 117.95-365.59 257.63-446.18a247.678 247.678 0 0165.36-27.13c11.01-2.7 22.3-4.11 33.63-4.21 90.75 0 100.43 102.49 100.43 146.59 0 161.26-117.88 365.59-257.56 446.18z" fill="#fff"/><path opacity=".1" d="M2968.5 1394.96c0 161.18-117.88 365.59-257.56 446.18-35.54 20.55-69.72 31.33-98.91 31.33a84.04 84.04 0 01-37.17-7.01 84.114 84.114 0 01-30.34-22.57c-1.42-1.67-2.77-3.41-4.12-5.16-1.35-1.74-2.62-3.57-3.73-5.47-.89-1.3-1.71-2.65-2.46-4.05-.55-.87-1.11-1.74-1.58-2.61-.48-.88-1.12-2.23-1.75-3.34-.63-1.11-1.03-2.06-1.51-3.09-.47-1.03-1.03-2.06-1.5-3.17l-2.38-5.71c-.96-2.38-1.83-4.76-2.62-7.22s-1.67-4.84-2.3-7.3a248.9 248.9 0 0065.36-27.21c139.6-80.59 257.63-284.92 257.63-446.18.21-23.57-2.83-47.06-9.04-69.8 11.01-2.7 22.3-4.11 33.63-4.21 4.43.02 8.85.28 13.25.8l4.13.63c74.48 12.38 82.97 104.07 82.97 145.16z" fill="#000"/><path opacity=".7" d="M2918.36 1366.56c0 161.26-117.87 365.6-257.55 446.19-35.54 20.54-69.73 31.72-98.99 31.72-5.83.03-11.64-.45-17.38-1.42-1.42-1.67-2.77-3.41-4.12-5.16-1.35-1.74-2.62-3.57-3.73-5.47-.89-1.3-1.71-2.65-2.46-4.05-.55-.87-1.11-1.74-1.58-2.62-.48-.87-1.11-2.22-1.75-3.33-.63-1.11-1.03-2.06-1.51-3.09-.47-1.03-1.03-2.06-1.5-3.17l-2.38-5.71c-.96-2.38-1.83-4.76-2.62-7.22s-1.67-4.84-2.3-7.3a248.9 248.9 0 0065.36-27.21c139.6-80.59 257.64-284.92 257.64-446.18.2-23.57-2.84-47.06-9.05-69.8 11.01-2.7 22.3-4.11 33.63-4.21 4.43.02 8.85.28 13.25.8l4.13.63c28.71 33.63 32.91 87.81 32.91 116.6z" fill="#fff"/></svg>