<svg width="316" height="235" fill="none" xmlns="http://www.w3.org/2000/svg"><path d="M315.216 206.422H.131v.157h315.085v-.157zM43.31 212.421H33.19v.157h10.12v-.157zm98.401-1.708h-33.733v.158h33.733v-.158zm-74.927 7.562H43.94v.158h22.844v-.158zm199.486-7.644h-27.217v.158h27.217v-.158zm9.604 0h-3.989v.158h3.989v-.158zm-42.019 3.926h-33.96v.158h33.96v-.158zm-84.374-36.241H27.801a3.598 3.598 0 01-3.591-3.598V3.671A3.598 3.598 0 0127.802.104H149.48a3.597 3.597 0 013.598 3.598v171.016a3.598 3.598 0 01-3.598 3.598zM27.801.23a3.44 3.44 0 00-3.434 3.44v171.048a3.442 3.442 0 003.435 3.441H149.48a3.448 3.448 0 003.441-3.441V3.671a3.448 3.448 0 00-3.441-3.44H27.801zm257.992 178.086H164.107a3.603 3.603 0 01-3.598-3.598V3.671a3.603 3.603 0 013.598-3.567h121.686a3.597 3.597 0 013.586 3.567v171.047a3.6 3.6 0 01-3.586 3.598zM164.107.23a3.447 3.447 0 00-3.44 3.44v171.048a3.443 3.443 0 003.44 3.441h121.686a3.448 3.448 0 003.441-3.441V3.671a3.448 3.448 0 00-3.441-3.44H164.107z" fill="#EBEBEB"/><path d="M249.899 153.746h-4.185v52.676h4.185v-52.676z" fill="#F5F5F5"/><path d="M251.72 153.746h-3.643v52.676h3.643v-52.676z" fill="#F0F0F0"/><path d="M152.298 153.746h-4.184v52.676h4.184v-52.676z" fill="#F5F5F5"/><path d="M154.119 153.746h-3.642v52.676h3.642v-52.676z" fill="#F0F0F0"/><path d="M265.76 153.746h-4.184v52.676h4.184v-52.676z" fill="#F5F5F5"/><path d="M267.581 153.746h-3.642v52.676h3.642v-52.676z" fill="#F0F0F0"/><path d="M168.159 153.746h-4.184v52.676h4.184v-52.676z" fill="#F5F5F5"/><path d="M148.12 154.741h119.461v-1.997H148.12v1.997z" fill="#F0F0F0"/><path d="M148.114 154.741h18.224v-1.997h-18.224v1.997z" fill="#E6E6E6"/><path d="M169.981 153.746h-3.643v52.676h3.643v-52.676z" fill="#F0F0F0"/><path d="M207.86 114.379h-11.299v38.365h11.299v-38.365z" fill="#EBEBEB"/><path d="M238.499 152.744h-37.508l-5.665-44.9h37.508l5.665 44.9z" fill="#E0E0E0"/><path d="M240.704 152.744h-38.742l-5.666-44.9h38.743l5.665 44.9z" fill="#F0F0F0"/><path d="M218.97 152.744h-7.518l2.117-44.9h7.518l-2.117 44.9zm8.614 0h-7.398l2.117-44.9h7.399l-2.118 44.9z" fill="#FAFAFA"/><path d="M271.703 11.138h-97.444v76.245h97.444V11.138z" fill="#E6E6E6"/><path d="M274.626 11.138h-98.999v76.245h98.999V11.138z" fill="#F0F0F0"/><path d="M271.703 87.383h-97.444v2.552h97.444v-2.552z" fill="#E6E6E6"/><path d="M276.183 87.383h-99v2.552h99v-2.552z" fill="#F0F0F0"/><path d="M270.537 83.287V15.228h-90.814v68.059h90.814z" fill="#FAFAFA"/><path d="M229.418 83.287l6.554-68.053h11.343l-6.554 68.053h-11.343zm-28.622 0l6.554-68.053h11.343l-6.554 68.053h-11.343z" fill="#fff"/><path d="M181.62 60.222a.315.315 0 01-.309-.315V17.894a.315.315 0 11.63 0v42.013a.32.32 0 01-.094.225.32.32 0 01-.227.09z" fill="#F0F0F0"/><path d="M243.194 83.287l6.553-68.053h4.424l-6.554 68.053h-4.423z" fill="#fff"/><path d="M270.537 83.293V15.234h-.517v68.059h.517z" fill="#E6E6E6"/><path opacity=".5" d="M275.597 22.652h-97.443l-.378-5.83h97.443l.378 5.83zm0 9.584h-97.443l-.378-5.828h97.443l.378 5.828zm0 9.585h-97.443l-.378-5.829h97.443l.378 5.83zm0 9.585h-97.443l-.378-5.829h97.443l.378 5.83zm0 9.579h-97.443l-.378-5.83h97.443l.378 5.83zm0 9.585h-97.443l-.378-5.83h97.443l.378 5.83z" fill="#E0E0E0"/><path opacity=".5" d="M275.597 27.447h-97.443l-.378-5.829h97.443l.378 5.83zm0 9.579h-97.443l-.378-5.83h97.443l.378 5.83zm0 9.584h-97.443l-.378-5.828h97.443l.378 5.829zm0 9.586h-97.443l-.378-5.83h97.443l.378 5.83zm0 9.584h-97.443l-.378-5.829h97.443l.378 5.83zm0 9.585h-97.443l-.378-5.835h97.443l.378 5.835z" fill="#E0E0E0"/><path d="M62.644 48.98H75.87a3.037 3.037 0 003.037-3.037v-5.08a3.037 3.037 0 00-3.037-3.037H62.644a3.037 3.037 0 00-3.038 3.037v5.08a3.037 3.037 0 003.038 3.037zm0-11.16H75.87a3.037 3.037 0 003.037-3.038v-5.079a3.037 3.037 0 00-3.037-3.037H62.644a3.037 3.037 0 00-3.038 3.037v5.08a3.037 3.037 0 003.038 3.037z" fill="#F5F5F5"/><path d="M66.967 26.666h4.581c.581 0 1.052-.471 1.052-1.053v-1.758c0-.581-.47-1.052-1.052-1.052h-4.581c-.582 0-1.053.471-1.053 1.052v1.758c0 .582.471 1.053 1.053 1.053z" fill="#E0E0E0"/><path d="M62.644 60.128H75.87a3.037 3.037 0 003.037-3.038v-5.079a3.037 3.037 0 00-3.037-3.037H62.644a3.037 3.037 0 00-3.038 3.037v5.08a3.037 3.037 0 003.038 3.037z" fill="#F5F5F5"/><path d="M132.794 52.408s-.63 7.751-25.137 7.751c-24.508 0-25.144-7.75-25.144-7.75h50.281zm-75.167 9.295H38.206v137.522h19.421V61.703zm80.076 137.522H41.93v7.197h95.773v-7.197z" fill="#F0F0F0"/><path d="M57.627 199.219h83.807V61.697H57.628v137.522z" fill="#F5F5F5"/><path d="M65.259 143.02h68.537v-32.453H65.259v32.453zm0 39.695h68.537v-32.454H65.259v32.454zm0 11.702h68.537v-4.947H65.259v4.947z" fill="#F0F0F0"/><path d="M116.945 113.138H82.11a2.727 2.727 0 01-2.723-2.723 2.73 2.73 0 012.723-2.716h34.835a2.728 2.728 0 012.723 2.716 2.73 2.73 0 01-2.723 2.723z" fill="#F5F5F5"/><path d="M65.259 103.332h68.537V70.879H65.259v32.453z" fill="#F0F0F0"/><path d="M116.945 73.45H82.11a2.728 2.728 0 01-2.723-2.723 2.728 2.728 0 012.723-2.722h34.835a2.73 2.73 0 012.723 2.722 2.73 2.73 0 01-2.723 2.722zm0 79.382H82.11a2.73 2.73 0 01-2.723-2.722 2.727 2.727 0 012.723-2.723h34.835a2.73 2.73 0 012.723 2.723 2.73 2.73 0 01-2.723 2.722z" fill="#F5F5F5"/><path d="M144.018 60.134H57.621v1.57h86.397v-1.57z" fill="#F0F0F0"/><path d="M35.496 61.703h22.131v-1.569H35.496v1.57z" fill="#E6E6E6"/><path d="M157.673 234.88c67.48 0 122.184-3.193 122.184-7.133s-54.704-7.134-122.184-7.134c-67.48 0-122.183 3.194-122.183 7.134 0 3.94 54.703 7.133 122.183 7.133z" fill="#F5F5F5"/><path d="M278.704 165.278H36.643l-4.462-4.222h250.984l-4.461 4.222z" fill="#B75400"/><path opacity=".5" d="M278.704 165.278H36.643l-4.462-4.222h250.984l-4.461 4.222z" fill="#fff"/><path d="M257.946 167.553H57.401l-3.7-2.275h207.944l-3.699 2.275z" fill="#B75400"/><path opacity=".5" d="M257.946 167.553H57.401l-3.7-2.275h207.944l-3.699 2.275z" fill="#000"/><path d="M55.813 227.747h-2.88l8.93-60.194h6.42l-12.47 60.194z" fill="#B75400"/><path opacity=".5" d="M55.813 227.747h-2.88l8.93-60.194h6.42l-12.47 60.194z" fill="#000"/><path d="M71.403 227.747H68.53l8.93-60.194h6.421l-12.477 60.194z" fill="#B75400"/><path opacity=".5" d="M71.403 227.747H68.53l8.93-60.194h6.421l-12.477 60.194z" fill="#000"/><path d="M259.534 227.747h2.88l-8.93-60.194h-6.421l12.471 60.194z" fill="#B75400"/><path opacity=".5" d="M259.534 227.747h2.88l-8.93-60.194h-6.421l12.471 60.194z" fill="#000"/><path d="M243.944 227.747h2.873l-8.929-60.194h-6.422l12.478 60.194z" fill="#B75400"/><path opacity=".5" d="M243.944 227.747h2.873l-8.929-60.194h-6.422l12.478 60.194z" fill="#000"/><path d="M141.465 25.4l8.136.547a1.73 1.73 0 011.474 1.021l.857 1.89c.186.409.523.73.939.896 1.021.42 2.011.91 2.962 1.468.38.223.83.295 1.261.202l2.041-.48a1.754 1.754 0 011.708.549l5.369 6.138a1.743 1.743 0 01.315 1.77l-.743 1.954c-.157.42-.146.886.031 1.298a23.78 23.78 0 011.059 3.151c.107.435.381.81.762 1.046l1.777 1.103a1.73 1.73 0 01.82 1.594l-.542 8.142a1.724 1.724 0 01-1.028 1.468l-1.89.857c-.406.19-.725.525-.895.94a22.68 22.68 0 01-1.462 2.961c-.225.38-.297.83-.202 1.26l.473 2.036a1.73 1.73 0 01-.548 1.708l-6.138 5.369a1.73 1.73 0 01-1.764.315l-1.96-.744a1.759 1.759 0 00-1.292 0 24.4 24.4 0 01-3.151 1.059c-.434.11-.809.383-1.046.762l-1.103 1.777a1.744 1.744 0 01-1.601.82l-8.135-.542a1.743 1.743 0 01-1.475-1.021l-.857-1.89a1.739 1.739 0 00-.939-.895c-1.02-.42-2.01-.91-2.961-1.469a1.747 1.747 0 00-1.261-.201l-2.035.478a1.739 1.739 0 01-1.708-.548l-5.375-6.138a1.754 1.754 0 01-.315-1.77l.743-1.954a1.729 1.729 0 00-.031-1.292 24.113 24.113 0 01-1.059-3.15 1.715 1.715 0 00-.762-1.047l-1.778-1.102a1.735 1.735 0 01-.819-1.595l.542-8.142a1.75 1.75 0 011.027-1.474l1.891-.85a1.74 1.74 0 00.895-.94c.419-1.022.91-2.014 1.468-2.968.225-.38.299-.829.208-1.26l-.479-2.036a1.739 1.739 0 01.548-1.707l6.138-5.37a1.74 1.74 0 011.765-.32l1.959.743c.415.167.878.167 1.292 0a23.45 23.45 0 013.151-1.059 1.769 1.769 0 001.046-.756l1.103-1.777a1.758 1.758 0 011.594-.826zm-13.076 25.44a15.43 15.43 0 008.555 14.863 15.432 15.432 0 10-8.555-14.864zm45.322 8.954l2.792-.945a.868.868 0 01.863.189l.46.44a.89.89 0 00.586.228c.384 0 .767.025 1.147.075a.835.835 0 00.63-.151l.517-.372a.867.867 0 01.882-.07l2.641 1.312a.854.854 0 01.479.737v.63a.867.867 0 00.252.58c.271.27.524.558.756.863a.877.877 0 00.536.328l.63.1a.853.853 0 01.668.574l.945 2.792a.857.857 0 01-.183.863l-.441.46a.881.881 0 00-.227.586c0 .384-.025.767-.075 1.147a.831.831 0 00.145.63l.371.517a.84.84 0 01.076.876l-1.311 2.647a.86.86 0 01-.737.479h-.63a.84.84 0 00-.574.252 10.88 10.88 0 01-.863.756.874.874 0 00-.328.536l-.101.63a.846.846 0 01-.573.668l-2.792.945a.85.85 0 01-.863-.19l-.466-.434a.834.834 0 00-.586-.227 8.58 8.58 0 01-1.141-.075.842.842 0 00-.63.145l-.517.371a.856.856 0 01-.882.076l-2.641-1.31a.858.858 0 01-.479-.744v-.63a.862.862 0 00-.252-.574 9.073 9.073 0 01-.756-.863.812.812 0 00-.535-.328l-.631-.1a.884.884 0 01-.674-.574l-.945-2.798a.857.857 0 01.189-.857l.441-.46a.887.887 0 00.227-.593c0-.383.025-.766.075-1.147a.847.847 0 00-.151-.63l-.365-.516a.84.84 0 01-.076-.876l1.311-2.647a.836.836 0 01.737-.473h.63a.87.87 0 00.58-.252c.271-.27.56-.523.863-.756a.874.874 0 00.328-.536l.101-.63a.85.85 0 01.567-.674zm1.67 10.196a3.149 3.149 0 002.776 2.13 3.153 3.153 0 003.031-1.748 3.145 3.145 0 00-.451-3.47 3.153 3.153 0 00-4.446-.3 3.142 3.142 0 00-1.071 2.166c-.027.414.027.83.161 1.222z" fill="#B75400"/><path opacity=".5" d="M173.711 59.794l2.792-.945a.868.868 0 01.863.189l.46.44a.89.89 0 00.586.228c.384 0 .767.025 1.147.075a.835.835 0 00.63-.151l.517-.372a.867.867 0 01.882-.07l2.641 1.312a.854.854 0 01.479.737v.63a.867.867 0 00.252.58c.271.27.524.558.756.863a.877.877 0 00.536.328l.63.1a.853.853 0 01.668.574l.945 2.792a.857.857 0 01-.183.863l-.441.46a.881.881 0 00-.227.586c0 .384-.025.767-.075 1.147a.831.831 0 00.145.63l.371.517a.84.84 0 01.076.876l-1.311 2.647a.86.86 0 01-.737.479h-.63a.84.84 0 00-.574.252 10.88 10.88 0 01-.863.756.874.874 0 00-.328.536l-.101.63a.846.846 0 01-.573.668l-2.792.945a.85.85 0 01-.863-.19l-.466-.434a.834.834 0 00-.586-.227 8.58 8.58 0 01-1.141-.075.842.842 0 00-.63.145l-.517.371a.856.856 0 01-.882.076l-2.641-1.31a.858.858 0 01-.479-.744v-.63a.862.862 0 00-.252-.574 9.073 9.073 0 01-.756-.863.812.812 0 00-.535-.328l-.631-.1a.884.884 0 01-.674-.574l-.945-2.798a.857.857 0 01.189-.857l.441-.46a.887.887 0 00.227-.593c0-.383.025-.766.075-1.147a.847.847 0 00-.151-.63l-.365-.516a.84.84 0 01-.076-.876l1.311-2.647a.836.836 0 01.737-.473h.63a.87.87 0 00.58-.252c.271-.27.56-.523.863-.756a.874.874 0 00.328-.536l.101-.63a.85.85 0 01.567-.674zm1.67 10.196a3.149 3.149 0 002.776 2.13 3.153 3.153 0 003.031-1.748 3.145 3.145 0 00-.451-3.47 3.153 3.153 0 00-4.446-.3 3.142 3.142 0 00-1.071 2.166c-.027.414.027.83.161 1.222z" fill="#fff"/><path d="M157.61 90.055l3.466-6.006a1.478 1.478 0 00-.529-2.011 1.48 1.48 0 00-.731-.207h-6.932a1.473 1.473 0 00-1.26 2.218l3.466 6.005a1.479 1.479 0 002.52 0zM44.047 158.541h84.954a2.156 2.156 0 001.564-.659 2.164 2.164 0 00.61-1.584l-2.011-60.736a2.356 2.356 0 00-2.325-2.25H41.892a2.162 2.162 0 00-2.174 2.25l2.004 60.736a2.339 2.339 0 002.325 2.243z" fill="#B75400"/><path d="M44.74 158.541h84.954a2.156 2.156 0 001.564-.659 2.167 2.167 0 00.61-1.584l-2.01-60.736a2.362 2.362 0 00-2.326-2.25H42.585a2.17 2.17 0 00-2.174 2.25l2.01 60.736a2.339 2.339 0 002.32 2.243z" fill="#B75400"/><path opacity=".6" d="M44.74 158.541h84.954a2.156 2.156 0 001.564-.659 2.167 2.167 0 00.61-1.584l-2.01-60.736a2.362 2.362 0 00-2.326-2.25H42.585a2.17 2.17 0 00-2.174 2.25l2.01 60.736a2.339 2.339 0 002.32 2.243z" fill="#263238"/><path d="M45.837 158.434h102.598a2.695 2.695 0 012.42 1.513.768.768 0 01-.046.75.774.774 0 01-.66.359H44.123a.78.78 0 01-.665-.356.776.776 0 01-.047-.753 2.695 2.695 0 012.426-1.513z" fill="#B75400"/><path opacity=".6" d="M148.435 158.434H66.563a2.698 2.698 0 00-2.426 1.513.775.775 0 00.712 1.109h85.3a.775.775 0 00.706-1.109 2.693 2.693 0 00-2.42-1.513z" fill="#263238"/><path opacity=".3" d="M99.496 160.098h21.3a.956.956 0 01.951.958H98.538a.96.96 0 01.958-.958z" fill="#fff"/><path opacity=".9" d="M129.839 154.099l-1.891-56.337a.918.918 0 00-.907-.877H43.285a.84.84 0 00-.845.895l1.89 56.338a.907.907 0 00.902.875h83.813a.829.829 0 00.582-.282.837.837 0 00.212-.612z" fill="#fff"/><path d="M60.791 154.975H49.24l13.316-58.09h11.55l-13.315 58.09zm7.36 0h-4.159l13.316-58.09h4.159l-13.316 58.09zm42.493 0h-4.159l13.315-58.09h4.153l-13.309 58.09z" fill="#fff"/><path opacity=".4" d="M84.46 95.197a.693.693 0 00.68.63.63.63 0 00.63-.63.68.68 0 00-.68-.63.63.63 0 00-.63.63z" fill="#fff"/><path d="M111.507 88.996a261.153 261.153 0 003.523 5.514 208.666 208.666 0 003.699 5.444 114.344 114.344 0 007.921 10.228 40.019 40.019 0 004.317 4.241l.542.429c.118.101.242.196.371.283.327.215.666.411 1.015.586.851.414 1.731.764 2.634 1.046.952.322 1.954.631 2.975.864 1.02.233 2.073.504 3.15.724 2.111.448 4.317.857 6.441 1.223v4.411c-1.21.177-2.345.265-3.523.347a55.285 55.285 0 01-3.529.12 43.9 43.9 0 01-7.222-.574 26.61 26.61 0 01-3.812-.958 14.94 14.94 0 01-2.029-.869c-.347-.164-.712-.397-1.065-.631l-.813-.567a43.78 43.78 0 01-5.609-4.909 100.442 100.442 0 01-9.005-10.826c-1.365-1.87-2.68-3.76-3.945-5.672-1.26-1.94-2.52-3.844-3.693-5.91l7.657-4.544z" fill="#FFC3BD"/><path d="M100.901 90.218c-.63 5.533 12.56 18.754 12.56 18.754l8.923-7.448a120.99 120.99 0 00-8.665-12.736c-5.073-6.283-12.131-4.827-12.818 1.43z" fill="#B75400"/><path opacity=".3" d="M108.11 94.144c-3.522-3.78-5.205-4.758-7.234-3.251.271 5.841 12.603 18.067 12.603 18.067.807-6.271-2.388-10.304-5.369-14.816z" fill="#000"/><path d="M121.659 98.971l.939 2.723-9.982 8.192-1.972-2.048 11.015-8.867z" fill="#B75400"/><path opacity=".3" d="M121.659 98.971l.939 2.723-9.982 8.192-1.972-2.048 11.015-8.867z" fill="#263238"/><path d="M147.622 119.49l6.932 1.191-3.813 6.087c-.907.145-4.524-1.815-6.125-4.247l3.006-3.031z" fill="#FFC3BD"/><path d="M158.808 124.789l-2.767 3.139-5.306-1.191 3.806-6.056 4.267 4.108z" fill="#FFC3BD"/><path d="M108.079 84.919s7.562 17.783 2.117 50.905H78.688c-.385-4.834 1.834-28.421-3.617-51.208a80.624 80.624 0 0110.505-1.33c4.46-.258 8.93-.258 13.39 0a59.95 59.95 0 019.113 1.633z" fill="#B75400"/><path opacity=".3" d="M82.11 90.218c.63 3.781-.215 12.717-3.428 23.09a150.397 150.397 0 00-3.095-26.467v-.044c2.055-.17 5.899-.07 6.523 3.421z" fill="#000"/><path d="M86.376 68.207c.995 4.31 2.11 12.206-.8 15.08 0 0 1.26 3.566 9.263 3.566 8.822 0 4.128-3.566 4.128-3.566-4.846-1.147-4.846-4.714-4.128-8.06l-8.463-7.02z" fill="#FFC3BD"/><path d="M95.381 87.187l1.89 1.998a.403.403 0 01.076.454l-.945 1.972a.398.398 0 01-.347.233l-1.43.07a.397.397 0 01-.347-.177l-1.323-1.89a.41.41 0 010-.492l1.815-2.149a.399.399 0 01.611-.019z" fill="#fff"/><path d="M95.072 86.853a10.266 10.266 0 00-1.531 4.853s-10.228-3.498-9.761-8.615c.908-.44 1.782-.948 2.615-1.518 0 0 .334 3.232 8.677 5.28zm0 0a13.96 13.96 0 011.935 4.544s4.739-3.246 3.39-8.306l-2.785-.599s.586 3.265-2.54 4.361z" fill="#263238"/><path d="M96.232 91.63c.63 2.092 5.381 17.607 5.501 21.319a.492.492 0 010 .094c-.441 1.998-2.42 5.501-3.226 6.875a.34.34 0 01-.132.129.34.34 0 01-.353-.023.33.33 0 01-.114-.144c-.555-1.354-1.89-4.6-2.773-6.497a.388.388 0 01-.031-.113c-.416-6.774-.53-17.31-.738-21.52a.336.336 0 01.334-.353h1.217a.334.334 0 01.315.233z" fill="#fff"/><path opacity=".2" d="M89.83 71.067l5.01 4.153a13.55 13.55 0 00-.335 2.376c-1.846-.265-4.411-2.275-4.695-4.197a6.301 6.301 0 01.02-2.332z" fill="#000"/><path d="M98.715 55.395c1.19.889 3.226 4.645.63 5.628-2.596.983-3.548-7.808-.63-5.628z" fill="#263238"/><path d="M84.826 63.04c1.19 5.74 1.6 9.15 4.96 11.79a7.619 7.619 0 0012.376-5.376c.491-5.325-1.551-13.813-7.562-15.49a7.707 7.707 0 00-9.774 9.075z" fill="#FFC3BD"/><path d="M85.576 67.362l2.407-1.607.157-1.399a10.424 10.424 0 00-1.09-5.892s11.702.435 13.152-3.226c1.449-3.662-2.672-6.416-2.672-6.416s-4.14 2.376-6.932 2.565c-2.792.19-11.343-3.302-11.343 3.926-3.781 1.166-3.655 7.386 6.302 12.05" fill="#263238"/><path d="M79.677 55.597s-1.55-1.229-.397-4.985c-1.418.706-2.098 4.544.397 4.985z" fill="#263238"/><path d="M83.13 69.7a5.829 5.829 0 003.782 2.048c1.953.208 2.52-1.594 1.676-3.252-.782-1.487-2.735-3.39-4.537-2.83-1.803.562-2.086 2.616-.92 4.034z" fill="#FFC3BD"/><path d="M112.856 154.975H92.722a1928.181 1928.181 0 00-3.265-19.151h20.739s1.166 8.085 2.66 19.151z" fill="#263238"/><path d="M79.457 154.975l-.794-19.151h20.329s.1 8.324.145 19.151h-19.68zm14.399-91.287c.07.473.372.826.68.794.31-.031.505-.447.435-.914-.069-.466-.371-.825-.68-.794-.309.032-.504.441-.435.914zm5.338-.567c.069.473.371.825.68.788.309-.038.504-.441.435-.908-.069-.466-.372-.825-.68-.794-.31.032-.505.422-.436.914z" fill="#263238"/><path d="M97.53 63.524a17.831 17.831 0 002.836 3.781c-.719.87-2.193.668-2.193.668l-.643-4.449z" fill="#ED847E"/><path d="M96.005 69.423c.325.034.652.034.977 0a.138.138 0 00.072-.246.145.145 0 00-.104-.032 3.907 3.907 0 01-3.264-1.121.14.14 0 00-.15-.043.14.14 0 00-.098.123.14.14 0 00.034.103 4.059 4.059 0 002.533 1.216zm-4.077-7.273a.271.271 0 00.27-.138 2.111 2.111 0 011.64-1.11.283.283 0 00.174-.488.277.277 0 00-.2-.072 2.69 2.69 0 00-2.099 1.393.276.276 0 00.108.384c.032.02.069.03.107.032zm9.263-1.127a.282.282 0 00.265-.435 2.879 2.879 0 00-2.212-1.33.283.283 0 00-.284.271.284.284 0 00.278.284 2.323 2.323 0 011.752 1.084.288.288 0 00.201.126z" fill="#263238"/><path d="M81.089 93.47l-1.4 2.42c-.47.84-.93 1.68-1.38 2.52a137.776 137.776 0 00-2.608 5.08 90.253 90.253 0 00-2.3 5.148c-.334.857-.675 1.72-.965 2.584l-.447 1.292-.372 1.26-.094.321-.05.164v.038c0 .038 0 .069-.045.139a3.576 3.576 0 000 .743c.08.75.236 1.489.467 2.206a38.615 38.615 0 002.016 5.041c1.594 3.422 3.535 6.875 5.445 10.247l-3.485 2.722c-1.487-1.493-2.823-3.012-4.134-4.613a64.94 64.94 0 01-3.712-5.041 37.956 37.956 0 01-3.15-5.728 18.69 18.69 0 01-1.16-3.542 10.912 10.912 0 01-.24-2.237 7.882 7.882 0 01.101-1.349l.05-.327.045-.202.082-.41a47.756 47.756 0 011.657-6.301c.668-2.029 1.45-3.983 2.281-5.911a79.916 79.916 0 012.723-5.634c.491-.914.989-1.821 1.512-2.728a60.179 60.179 0 011.664-2.73l7.499 4.828z" fill="#FFC3BD"/><path d="M75.077 84.616c-5.546.813-11.261 20.121-11.261 20.121l11.935 6.611s4.834-9.188 7.14-16.006c2.414-7.147-1.872-11.596-7.814-10.726z" fill="#B75400"/><path d="M64.062 102.015l-.505 2.836L75.82 111.6l1.633-2.338-13.391-7.247z" fill="#B75400"/><path opacity=".3" d="M64.062 102.015l-.505 2.836L75.82 111.6l1.633-2.338-13.391-7.247z" fill="#263238"/><path d="M77.768 131.362l5.86-1.021-3.006 6.787s-5.356-.031-5.11-2.791l2.256-2.975z" fill="#FFC3BD"/><path d="M88.008 133.751l-2.76 5.482-4.626-2.105 3.006-6.787 4.38 3.41z" fill="#FFC3BD"/><path d="M271.299 158.541h-84.953a2.154 2.154 0 01-1.564-.659 2.16 2.16 0 01-.61-1.584l2.01-60.736a2.356 2.356 0 012.325-2.25h84.947a2.157 2.157 0 012.035 1.393c.104.273.151.565.139.857l-2.003 60.736a2.334 2.334 0 01-2.326 2.243z" fill="#B75400"/><path opacity=".6" d="M271.299 158.541h-84.953a2.154 2.154 0 01-1.564-.659 2.16 2.16 0 01-.61-1.584l2.01-60.736a2.356 2.356 0 012.325-2.25h84.947a2.157 2.157 0 012.035 1.393c.104.273.151.565.139.857l-2.003 60.736a2.334 2.334 0 01-2.326 2.243z" fill="#263238"/><path d="M270.606 158.541h-84.953a2.158 2.158 0 01-1.565-.659 2.168 2.168 0 01-.609-1.584l2.01-60.736a2.353 2.353 0 012.325-2.25h84.947a2.17 2.17 0 012.174 2.25l-2.01 60.736a2.335 2.335 0 01-2.319 2.243z" fill="#B75400"/><path d="M269.51 158.434H166.912a2.695 2.695 0 00-2.42 1.513.78.78 0 00.045.75.777.777 0 00.661.359h106.026a.777.777 0 00.712-1.109 2.696 2.696 0 00-2.426-1.513z" fill="#B75400"/><path opacity=".6" d="M269.51 158.434h-15.755a2.7 2.7 0 00-2.426 1.513.776.776 0 00.712 1.109h19.151a.784.784 0 00.665-.356.777.777 0 00.047-.753 2.695 2.695 0 00-2.394-1.513z" fill="#263238"/><path opacity=".2" d="M215.851 160.098h-21.3a.956.956 0 00-.952.958h23.209a.958.958 0 00-.957-.958z" fill="#000"/><path opacity=".9" d="M185.508 154.099l1.89-56.337a.921.921 0 01.908-.876h83.812a.84.84 0 01.845.876l-1.891 56.337a.905.905 0 01-.901.876h-83.812a.842.842 0 01-.613-.256.848.848 0 01-.238-.62z" fill="#fff"/><path d="M245.09 154.975h-11.551l13.316-58.09h11.551l-13.316 58.09zm-50.155 0h-4.159l13.316-58.09h4.152l-13.309 58.09zm59.627 0h-4.159l13.315-58.09h4.159l-13.315 58.09z" fill="#fff"/><path opacity=".4" d="M230.886 95.197a.689.689 0 01-.68.63.631.631 0 01-.63-.63.678.678 0 01.68-.63.63.63 0 01.63.63z" fill="#000"/><path d="M224.761 68.207c-.989 4.31-2.111 12.206.807 15.08 0 0-1.261 3.566-9.264 3.566-8.822 0-4.127-3.566-4.127-3.566 4.846-1.147 4.846-4.714 4.121-8.06l8.463-7.02z" fill="#B55B52"/><path d="M237.585 88.68a46.62 46.62 0 011.664 2.73c.517.92 1.027 1.814 1.518 2.728a81.2 81.2 0 012.723 5.634c.832 1.922 1.613 3.882 2.275 5.911a47.75 47.75 0 011.663 6.302l.082.409.038.202.057.328a9.5 9.5 0 01.101 1.348 11.834 11.834 0 01-.24 2.237 18.624 18.624 0 01-1.166 3.542 37.425 37.425 0 01-3.15 5.728 67.883 67.883 0 01-3.718 5.041 61.691 61.691 0 01-4.134 4.613l-3.479-2.722c1.891-3.372 3.85-6.825 5.445-10.247a38.637 38.637 0 002.01-5.041c.231-.717.387-1.456.466-2.206a3.184 3.184 0 000-.743c0-.07 0-.133-.05-.139v-.038l-.044-.164-.095-.321-.378-1.26-.441-1.292a58.65 58.65 0 00-.97-2.584 95.451 95.451 0 00-2.294-5.148c-.813-1.708-1.708-3.397-2.609-5.08-.445-.84-.906-1.68-1.38-2.52l-1.399-2.414 7.505-4.833z" fill="#B65B52"/><path d="M236.066 84.616c5.546.813 11.255 20.121 11.255 20.121l-11.929 6.611s-4.84-9.156-7.14-16.006c-2.42-7.147 1.891-11.596 7.814-10.726z" fill="#263238"/><path opacity=".3" d="M232.456 95.197l-.902 8.255c.902 1.985 1.784 3.781 2.471 5.199.258-3.308.252-8.69-1.569-13.454z" fill="#000"/><path d="M247.075 102.015l.511 2.836-12.263 6.749-1.632-2.338 13.384-7.247z" fill="#B75400"/><path opacity=".3" d="M247.075 102.015l.511 2.836-12.263 6.749-1.632-2.338 13.384-7.247z" fill="#263238"/><path d="M233.376 131.362l-5.867-1.021 3.012 6.787s5.35-.031 5.104-2.791l-2.249-2.975zm-10.241 2.389l2.754 5.482 4.632-2.105-3.012-6.787-4.374 3.41z" fill="#B55B52"/><path d="M203.046 84.919s-7.563 17.783-2.112 50.905h31.509c.384-4.834-1.84-28.421 3.617-51.208a80.834 80.834 0 00-10.492-1.33c-4.46-.258-8.931-.258-13.391 0a59.905 59.905 0 00-9.131 1.633z" fill="#263238"/><path opacity=".3" d="M199.674 100.131a107.01 107.01 0 00-.699 12.005c4.285-2.792 5.81-9.194 6.415-13.832l-5.716 1.827z" fill="#000"/><path d="M207.318 93.546c-1.204 2.067-2.42 3.97-3.693 5.91a120.175 120.175 0 01-3.945 5.672 100.488 100.488 0 01-9.011 10.827 44.236 44.236 0 01-5.602 4.909l-.819.567c-.353.214-.719.447-1.059.63-.657.339-1.337.629-2.036.87a26.574 26.574 0 01-3.812.957 43.783 43.783 0 01-7.222.574c-1.178 0-2.357 0-3.523-.12-1.165-.12-2.319-.17-3.528-.346v-4.412c2.123-.365 4.329-.775 6.434-1.222a73.888 73.888 0 003.15-.725c1.04-.265 2.03-.542 2.975-.863a18.727 18.727 0 002.634-1.046c.349-.176.688-.372 1.015-.586.157-.095.252-.196.378-.284l.542-.428a41.445 41.445 0 004.316-4.241 116.853 116.853 0 007.921-10.228c1.261-1.79 2.477-3.617 3.7-5.445 1.222-1.827 2.4-3.724 3.522-5.514l7.663 4.544z" fill="#B65B52"/><path d="M210.236 90.218c.63 5.533-11.709 18.956-11.709 18.956l-9.761-7.638a120.686 120.686 0 018.658-12.736c5.067-6.295 12.112-4.84 12.812 1.418z" fill="#263238"/><path d="M189.484 98.971l-.939 2.723 9.976 8.192 1.979-2.048-11.016-8.867z" fill="#B75400"/><path opacity=".3" d="M189.484 98.971l-.939 2.723 9.976 8.192 1.979-2.048-11.016-8.867z" fill="#263238"/><path d="M163.068 119.603l-7.027.101 2.83 6.579c.869.284 4.751-1.096 6.705-3.252l-2.508-3.428z" fill="#B55B52"/><path d="M151.195 123.113l3.838 4.815 3.838-1.651-2.83-6.573-4.846 3.409z" fill="#B55B52"/><path d="M210.198 63.121c-.069.473-.372.826-.681.788-.308-.038-.504-.441-.441-.907.063-.467.378-.826.687-.794.309.031.504.422.435.913z" fill="#263238"/><path d="M210.33 63.524a17.718 17.718 0 01-2.842 3.781c.725.87 2.199.668 2.199.668l.643-4.449z" fill="#A02724"/><path d="M209.53 67.003c-1.052 0-2.004-1.519-2.174-3.46a4.233 4.233 0 01.731-3.069 1.178 1.178 0 01.882-.428c1.052 0 2.004 1.512 2.174 3.453a4.22 4.22 0 01-.718 3.075 1.21 1.21 0 01-.882.429h-.013zm-.567-6.642a.872.872 0 00-.63.321 3.947 3.947 0 00-.631 2.836c.152 1.72 1.002 3.151 1.891 3.151a.878.878 0 00.63-.328c.566-.827.792-1.84.63-2.83-.182-1.7-1.033-3.15-1.89-3.15zm2.905.662a.277.277 0 00.183-.05.278.278 0 00.122-.284.281.281 0 00-.04-.101 2.882 2.882 0 00-2.212-1.33.286.286 0 00-.197.079.286.286 0 00-.087.192.283.283 0 00.277.284 2.32 2.32 0 011.752 1.084.292.292 0 00.202.126z" fill="#263238"/><path d="M226.318 63.04c-1.198 5.74-1.601 9.15-4.966 11.79a7.62 7.62 0 01-12.37-5.376c-.492-5.325 1.544-13.813 7.562-15.49a7.713 7.713 0 019.774 9.075z" fill="#B55B52"/><path d="M234.144 154.975a72.504 72.504 0 00-1.67-19.151h-20.329a76.606 76.606 0 012.325 19.151h19.674z" fill="#B75400"/><path opacity=".3" d="M234.144 154.975a72.504 72.504 0 00-1.67-19.151h-20.329a76.606 76.606 0 012.325 19.151h19.674z" fill="#fff"/><path d="M213.866 64.766c-1.122-.56-2.521-6.163-2.137-8.154.385-1.992 4.903-4.134 9.346-3.328 4.442.807 6.352 2.363 7.215 6.41.889 4.196-2.35 11.185-3.951 11.727a7.08 7.08 0 01-5.817-.492c-1.43-.876-2.174-7.316-4.656-6.163z" fill="#263238"/><path d="M212.687 58.622c-2.168.126-4.235-3.328-2.243-6.41a5.453 5.453 0 015.394-2.413s-.908 1.771 2.117 1.4c3.025-.372 8.659.472 10.625 2.59 2.432 2.608.964 7.738-2.697 6.477-3.661-1.26-13.196-1.644-13.196-1.644z" fill="#263238"/><path d="M212.107 58.71a3.194 3.194 0 01-2.344-1.197 4.767 4.767 0 01-.718-4.947.156.156 0 01.085-.088.163.163 0 01.175.034.157.157 0 01.035.051c.008.02.012.04.013.061a.16.16 0 01-.012.061 4.407 4.407 0 00.662 4.62 2.657 2.657 0 002.564 1.033.17.17 0 01.117.02.16.16 0 01.072.094.163.163 0 01-.113.195 2.22 2.22 0 01-.536.063z" fill="#263238"/><path d="M217.426 64.041a5.849 5.849 0 01-1.342 4.103c-1.261 1.493-2.943.592-3.454-1.204-.46-1.62-.353-4.342 1.343-5.18 1.695-.838 3.321.46 3.453 2.281z" fill="#B55B52"/><path d="M198.288 154.975h22.591a74.291 74.291 0 00.801-19.151h-20.733s-1.166 8.085-2.659 19.151z" fill="#B75400"/><path opacity=".3" d="M198.288 154.975h22.591a74.291 74.291 0 00.801-19.151h-20.733s-1.166 8.085-2.659 19.151z" fill="#fff"/></svg>