<svg width="1762" height="1912" fill="none" xmlns="http://www.w3.org/2000/svg"><path d="M1565.34 1519.6l.35-40.56-504.77-122.67-878.965 294.11v42.24a8.62 8.62 0 001.929 5.59 13.154 13.154 0 005.787 3.91l494.137 203.93a53.481 53.481 0 0012.564 3.22 86.75 86.75 0 0028.887-.74 57.828 57.828 0 0012.662-3.91l821.539-375.23a8.26 8.26 0 004.15-3.26 9.908 9.908 0 001.73-6.63z" fill="#fff"/><path opacity=".2" d="M1563.61 1526.33a9.868 9.868 0 001.73-6.58l.35-40.56-504.77-122.82-340.113 113.76v439.04c1.484 0 3.017-.4 4.452-.69a57.292 57.292 0 0012.662-3.91l821.539-375.08a8.21 8.21 0 004.15-3.16zM707.205 1911v-68.11h-17.214v65.98a54.151 54.151 0 0017.214 2.13z" fill="#000"/><path d="M1565.34 1519.6l.35-40.56-504.77-122.67-878.965 294.11v42.24a8.62 8.62 0 001.929 5.59 13.154 13.154 0 005.787 3.91l494.137 203.93a53.481 53.481 0 0012.564 3.22 86.75 86.75 0 0028.887-.74 57.828 57.828 0 0012.662-3.91l821.539-375.23a8.26 8.26 0 004.15-3.26 9.908 9.908 0 001.73-6.63z" stroke="#263238" stroke-miterlimit="10"/><path d="M1307.09 1428.64l-64.64-16.38c-.96-.25-1.94-.41-2.92-.49h-3.17c-.99.03-1.98.11-2.97.25-.82.12-1.63.32-2.42.59-.55.17-1.04.47-1.43.89-.08.14-.12.31-.12.47 0 .16.04.33.12.47.23.42.59.75 1.03.94.69.37 1.42.64 2.18.79l64.65 16.52c1 .22 2 .39 3.02.5h3.21c1.01-.05 2.02-.15 3.02-.3.82-.12 1.64-.32 2.42-.59.53-.19 1-.5 1.39-.89.09-.15.14-.32.14-.5 0-.17-.05-.35-.14-.49-.27-.43-.64-.77-1.09-.99-.71-.34-1.46-.61-2.23-.79" fill="#fff"/><path d="M1496.49 1484.48l-109.07-27.8h-23.69c-1.93 0-3.86-.25-5.69-.49-1.83-.25-3.71-.5-5.49-.8-1.78-.29-3.41-.69-4.95-1.08l-190.18-48.82-3.86-1.19c-1.19-.45-2.23-.89-3.17-1.34-.82-.43-1.62-.92-2.37-1.48-.57-.43-1.07-.95-1.48-1.53l-3.81-5.54-97.64-24.73-743.583 256.26 469.307 179.7 725.676-321.16z" fill="#B75400" stroke="#fff" stroke-width="3" stroke-miterlimit="10"/><path d="M1567.12 1475.72a12.296 12.296 0 00-4.55-3.46 38.81 38.81 0 00-8.46-2.97l-476.28-118.71c-2.99-.72-6.03-1.23-9.1-1.53-3.29-.29-6.59-.4-9.89-.35-3.21.04-6.42.29-9.6.74-2.75.37-5.46.99-8.11 1.83l-847.799 287.58c-3.128 1-6.107 2.41-8.854 4.21a10.494 10.494 0 00-4.253 4.65 4.498 4.498 0 00.593 4.55 12.898 12.898 0 005.738 3.96l497.303 201.36a53.488 53.488 0 0012.564 3.26 86.744 86.744 0 0028.886-.74 57.827 57.827 0 0012.663-3.9l825.389-373.75a8.655 8.655 0 004.21-3.31c.24-.56.32-1.17.24-1.77a3.27 3.27 0 00-.69-1.65zm-796.355 329.92l-469.258-179.7 743.533-256.66 97.64 24.73 3.81 5.54c.41.58.91 1.1 1.48 1.53.75.56 1.55 1.06 2.38 1.49.94.44 1.97.89 3.16 1.33l3.86 1.19 190.09 49.02c1.58.39 3.26.79 4.94 1.09 1.68.29 3.61.59 5.49.79 1.88.2 3.76.39 5.69.49 1.93.1 3.86 0 5.84 0h17.85l109.07 27.8-725.575 321.36zm458.725-392.29c.39-.42.88-.72 1.43-.89.79-.27 1.6-.46 2.42-.59.99-.14 1.98-.22 2.97-.25h3.17c.98.08 1.96.25 2.92.49l64.64 16.38c.77.18 1.52.45 2.23.79.45.22.83.56 1.09.99.09.15.14.32.14.49 0 .18-.05.35-.14.5-.39.39-.86.7-1.39.89-.78.28-1.59.47-2.42.59-1 .15-2.01.25-3.02.3h-3.21c-1.02-.11-2.02-.28-3.02-.5l-64.65-16.52c-.76-.15-1.49-.42-2.17-.79-.44-.19-.81-.52-1.04-.94a.884.884 0 01-.07-.48c.01-.17.07-.32.17-.46h-.05zm-719.594 312.31a13.69 13.69 0 01-3.858 2.18 29.986 29.986 0 01-5.59 1.48c-2.039.39-4.107.61-6.183.65a40.56 40.56 0 01-6.034-.3c-1.69-.25-3.349-.68-4.946-1.29a8.652 8.652 0 01-3.215-2.03c-.293-.3-.516-.67-.653-1.07a2.93 2.93 0 01-.139-1.25 4.15 4.15 0 011.632-2.37 12.514 12.514 0 013.859-2.18c1.81-.68 3.682-1.17 5.589-1.49 2.027-.34 4.077-.54 6.133-.59 2-.05 4.001.05 5.985.3 1.688.23 3.346.65 4.947 1.23a8.494 8.494 0 013.215 1.98 2.691 2.691 0 01.841 2.33 4.047 4.047 0 01-1.583 2.42z" fill="#263238"/><path d="M507.373 1718.93c-1.6-.58-3.258-1-4.946-1.23a39.913 39.913 0 00-5.985-.3c-2.057.05-4.107.25-6.134.59-1.907.32-3.779.81-5.589 1.49a12.51 12.51 0 00-3.858 2.18 4.14 4.14 0 00-1.632 2.37c-.045.42.002.85.139 1.25s.359.77.652 1.07a8.66 8.66 0 003.215 2.03c1.598.61 3.256 1.04 4.946 1.29 2.001.25 4.019.35 6.035.3 2.075-.05 4.144-.26 6.183-.65 1.907-.31 3.779-.81 5.589-1.48a13.663 13.663 0 003.858-2.18 4.027 4.027 0 001.534-2.42 2.691 2.691 0 00-.841-2.33 8.494 8.494 0 00-3.215-1.98" fill="#fff"/><path d="M342.314 1504.46l14.147 23.94M134.47 1152.93l191.868 324.48m178.265-42.29l8.063 19.29m-63.016-150.77l45.951 109.91m911.809-278.82l-101.11 248.4m126.08-309.69l-12.51 30.62m68.61 273.97l-22.06 24.29m164.41-180.89l-120.29 132.32M416.757 1468.11l82.207 158.92m926.346-257.6l-90.47 123.31m-487.803-123.31l21.912 109.61" stroke="#263238" stroke-miterlimit="10"/><path d="M449.6 380.708c29.722 0 53.816-24.094 53.816-53.816s-24.094-53.816-53.816-53.816-53.816 24.094-53.816 53.816 24.094 53.816 53.816 53.816zM601.212 1307.1c10.816-27.69-2.858-58.9-30.542-69.71-27.684-10.82-58.894 2.86-69.71 30.54-10.816 27.69 2.858 58.9 30.542 69.71 27.684 10.82 58.894-2.86 69.71-30.54z" fill="#fff" stroke="#fff" stroke-width=".5" stroke-miterlimit="10"/><path d="M1253.92 1141.23c209.91-209.908 209.91-550.245 0-760.158-209.91-209.914-550.249-209.913-760.163 0-209.913 209.913-209.913 550.25 0 760.158 209.914 209.92 550.253 209.92 760.163 0z" fill="#fff"/><path opacity=".18" d="M1253.92 1141.23c209.91-209.908 209.91-550.245 0-760.158-209.91-209.914-550.249-209.913-760.163 0-209.913 209.913-209.913 550.25 0 760.158 209.914 209.92 550.253 209.92 760.163 0z" fill="#000"/><path opacity=".86" d="M873.846 990.787A537.718 537.718 0 01358.736 607.2a537.532 537.532 0 00-14.161 247.367A537.482 537.482 0 00442.874 1082a537.448 537.448 0 00189.871 159.19 537.527 537.527 0 00241.101 57.1 537.56 537.56 0 00241.104-57.1A537.47 537.47 0 001304.82 1082c50.03-67.12 83.69-145 98.3-227.433a537.613 537.613 0 00-14.16-247.367 537.807 537.807 0 01-194.01 277.135 537.743 537.743 0 01-321.104 106.452z" fill="#fff"/><path d="M854.506 512.33l51.046 22.951 13.998 22.951 23.001 8.952 2.522 24.237-8.903 14.048-17.857 3.809-38.284-15.334v-4.946l21.665-8.904-7.667-26.809-34.624-12.761-15.284-20.379 10.387-7.815zm321.514 589.35l-40.81-16.57-49.91-17.85h-39.57l-36.85-7.67-40.856 8.95-22.951 1.24h-14.048l-26.759 15.33-25.523 10.19-34.624-21.66 8.903-35.71-21.665-8.96h-25.523l-3.809-11.47 2.523-22.954-8.903-12.761-17.856 2.523-4.947 12.761-21.665 1.286-19.142-22.852-7.815-30.717 19.142-35.712 36.999 2.523 10.189 8.952h15.334l19.142-11.475 16.57 4.946 22.951 39.571 8.953-1.237-2.572-29.381-7.618-15.284 2.523-24.237 47.188-20.428 6.381-47.188 20.428-16.57 16.57-29.332 12.762-2.572 29.331-19.142 1.286-10.19-20.428 1.286-3.809-10.239h-13.899l-21.665 4.947 10.19-16.57 44.517-12.762 10.185-11.475 17.86 28.045 11.53 11.525 17.85-4.946-7.67-16.57-26.8-19.143-30.622-34.624-31.904-21.714-30.618-4.946-15.284-15.285-20.428-4.946-2.523 4.946-2.572 36.999 4.946 12.761-11.079 40.906-25.523-20.428 3.858-17.856-26.809-12.762-11.476-13.998 6.381-31.903 36.999-26.81 2.572-30.617-14.048 1.286-8.953-11.476-3.808-19.142-8.953-1.286-4.946 20.428-13.999 2.572-6.38-44.516-10.239-6.381-17.856-7.667-20.478 10.041 25.473 24.287 4.947 21.664-45.902-34.624-31.904-34.624-2.523-34.624-33.189-10.19-25.721 17.115a192.144 192.144 0 01-19.142 10.189 210.07 210.07 0 01-30.618 4.946l-4.947 21.715-29.331 1.286 2.572 13.998 47.188 7.667 24.237 26.809v44.516l-14.048 39.571 2.572 42.093-35.712 62.522-7.667 93.089 11.476 53.618 16.57 40.808 19.142 2.572-6.381-20.429-10.189-15.333-6.381-28.046 11.476-2.572 17.856 45.951 12.811 41.302v33.19l24.237 29.332 43.527 31.462 66.33 17.85 20.429 19.14 15.284 20.38 22.951 14.05 28.095 7.67 28.045-1.29s-1.286 12.76-1.286 19.14c0 6.38-17.856 28.05-17.856 28.05l-13.998 25.52 10.19 28.05 28.045 11.52 39.571 40.81 17.856 7.67v19.09l2.226 8.95a535.56 535.56 0 00267.551-125.98l.69-9.25 34.62-62.52-16.57-11.48-70.48 19.34zm132.71-503.878l-14.05-24.237-17.86-28.095-4.94-38.235 22.95 3.809 1.28-12.762-16.62-1.286 14.05-6.381 15.33-8.903V468.95l-15.33-20.428-3.26-27.452a538.039 538.039 0 00-289.86-182.375 538.026 538.026 0 00-341.195 29.484l29.431 20.824-17.856 23.001-24.237 4.946-2.572 34.624-10.19 3.809-12.761 14.048 1.286 22.95 21.665 2.573-8.805 21.615h21.665l36.998-47.188 3.859-20.379 35.712-2.572 8.903-15.333 36.999-3.809 3.858-21.665 26.76-1.286s19.142-10.189 23-10.189a156.793 156.793 0 0121.665 6.331l19.142 15.333h26.76l23-14.047 29.332 2.572a31.603 31.603 0 0014.047 4.946c6.381 0 25.474-8.953 25.474-8.953l37 23.001 15.33 11.475v19.143l19.14 2.522 6.38-11.475 16.58 7.667-1.29 10.189-38.29 10.239 21.72 28.045 45.9 25.523 19.14 25.523 28.1 2.523 6.38-12.761 10.19-2.523-33.19-25.523-20.58-2.275 16.57-4.947-15.33-21.665 21.71-1.286 28.05 15.284 6.38 30.618 14.05 16.62 11.47 36.998 28.05 20.379v42.093l29.38 19.143-1.29 14.047-3.86 16.57 7.67 22.951 2.57 11.525 21.67 3.809 10.24-21.714 6.53-14.246zm16.57-128.604v7.32l-6.38 20.379 3.8 17.856 14.05 4.947v24.237l-15.33-6.381-3.66 69.149-15.29 28.096 10.19 35.712 16.57 15.284v68.902l16.57 53.569 17.91 40.857 29.33 7.617 10.19-25.523 4.16-3.215a542.84 542.84 0 004.15-66.825c.1-103.6-29.88-205-86.31-291.882l.05-.099zm-294.75-8.112l-84.092-36.999-36.998 1.286-8.953 24.237-15.284-16.57-28.046 6.381-2.572 42.093 22.951 16.57 16.57-24.237 19.142 19.143 39.571 34.624 7.667 36.998 33.14 42.093 53.564-8.903-1.23-19.142-11.48-21.714-2.57-50.997 12.76-21.714-14.14-23.149zm68.9 28.095l-19.14-4.946-16.57 14.047 8.9 36.999h16.62l10.19-46.1zm118.71 24.237l-43.43-22.654-8.95-15.284-10.19 3.808 8.9 25.523 7.67 33.19 19.14 7.617 3.81-4.946-11.48-19.142 33.19 12.761 1.34-20.873zM845.652 973.92l-4.946 4.947 38.284 11.475 15.284 17.858 24.287 2.57 8.903-14.047-29.332-4.947-52.48-17.856zm113.765 24.237l-26.809 7.663 3.858 10.19h33.141l6.381-10.19-11.476 1.29-5.095-8.953z" fill="#B75400"/><path opacity=".65" d="M873.846 990.787A537.718 537.718 0 01358.736 607.2a537.532 537.532 0 00-14.161 247.367A537.482 537.482 0 00442.874 1082a537.448 537.448 0 00189.871 159.19 537.527 537.527 0 00241.101 57.1 537.56 537.56 0 00241.104-57.1A537.47 537.47 0 001304.82 1082c50.03-67.12 83.69-145 98.3-227.433a537.613 537.613 0 00-14.16-247.367 537.807 537.807 0 01-194.01 277.135 537.743 537.743 0 01-321.104 106.452z" fill="#fff"/><path d="M854.506 512.33l51.046 22.951 13.998 22.951 23.001 8.952 2.522 24.237-8.903 14.048-17.857 3.809-38.284-15.334v-4.946l21.665-8.904-7.667-26.809-34.624-12.761-15.284-20.379 10.387-7.815zm321.514 589.35l-40.81-16.57-49.91-17.85h-39.57l-36.85-7.67-40.856 8.95-22.951 1.24h-14.048l-26.759 15.33-25.523 10.19-34.624-21.66 8.903-35.71-21.665-8.96h-25.523l-3.809-11.47 2.523-22.954-8.903-12.761-17.856 2.523-4.947 12.761-21.665 1.286-19.142-22.852-7.815-30.717 19.142-35.712 36.999 2.523 10.189 8.952h15.334l19.142-11.475 16.57 4.946 22.951 39.571 8.953-1.237-2.572-29.381-7.618-15.284 2.523-24.237 47.188-20.428 6.381-47.188 20.428-16.57 16.57-29.332 12.762-2.572 29.331-19.142 1.286-10.19-20.428 1.286-3.809-10.239h-13.899l-21.665 4.947 10.19-16.57 44.517-12.762 10.185-11.475 17.86 28.045 11.53 11.525 17.85-4.946-7.67-16.57-26.8-19.143-30.622-34.624-31.904-21.714-30.618-4.946-15.284-15.285-20.428-4.946-2.523 4.946-2.572 36.999 4.946 12.761-11.079 40.906-25.523-20.428 3.858-17.856-26.809-12.762-11.476-13.998 6.381-31.903 36.999-26.81 2.572-30.617-14.048 1.286-8.953-11.476-3.808-19.142-8.953-1.286-4.946 20.428-13.999 2.572-6.38-44.516-10.239-6.381-17.856-7.667-20.478 10.041 25.473 24.287 4.947 21.664-45.902-34.624-31.904-34.624-2.523-34.624-33.189-10.19-25.721 17.115a192.144 192.144 0 01-19.142 10.189 210.07 210.07 0 01-30.618 4.946l-4.947 21.715-29.331 1.286 2.572 13.998 47.188 7.667 24.237 26.809v44.516l-14.048 39.571 2.572 42.093-35.712 62.522-7.667 93.089 11.476 53.618 16.57 40.808 19.142 2.572-6.381-20.429-10.189-15.333-6.381-28.046 11.476-2.572 17.856 45.951 12.811 41.302v33.19l24.237 29.332 43.527 31.462 66.33 17.85 20.429 19.14 15.284 20.38 22.951 14.05 28.095 7.67 28.045-1.29s-1.286 12.76-1.286 19.14c0 6.38-17.856 28.05-17.856 28.05l-13.998 25.52 10.19 28.05 28.045 11.52 39.571 40.81 17.856 7.67v19.09l2.226 8.95a535.56 535.56 0 00267.551-125.98l.69-9.25 34.62-62.52-16.57-11.48-70.48 19.34zm132.71-503.878l-14.05-24.237-17.86-28.095-4.94-38.235 22.95 3.809 1.28-12.762-16.62-1.286 14.05-6.381 15.33-8.903V468.95l-15.33-20.428-3.26-27.452a538.039 538.039 0 00-289.86-182.375 538.026 538.026 0 00-341.195 29.484l29.431 20.824-17.856 23.001-24.237 4.946-2.572 34.624-10.19 3.809-12.761 14.048 1.286 22.95 21.665 2.573-8.805 21.615h21.665l36.998-47.188 3.859-20.379 35.712-2.572 8.903-15.333 36.999-3.809 3.858-21.665 26.76-1.286s19.142-10.189 23-10.189a156.793 156.793 0 0121.665 6.331l19.142 15.333h26.76l23-14.047 29.332 2.572a31.603 31.603 0 0014.047 4.946c6.381 0 25.474-8.953 25.474-8.953l37 23.001 15.33 11.475v19.143l19.14 2.522 6.38-11.475 16.58 7.667-1.29 10.189-38.29 10.239 21.72 28.045 45.9 25.523 19.14 25.523 28.1 2.523 6.38-12.761 10.19-2.523-33.19-25.523-20.58-2.275 16.57-4.947-15.33-21.665 21.71-1.286 28.05 15.284 6.38 30.618 14.05 16.62 11.47 36.998 28.05 20.379v42.093l29.38 19.143-1.29 14.047-3.86 16.57 7.67 22.951 2.57 11.525 21.67 3.809 10.24-21.714 6.53-14.246zm16.57-128.604v7.32l-6.38 20.379 3.8 17.856 14.05 4.947v24.237l-15.33-6.381-3.66 69.149-15.29 28.096 10.19 35.712 16.57 15.284v68.902l16.57 53.569 17.91 40.857 29.33 7.617 10.19-25.523 4.16-3.215a542.84 542.84 0 004.15-66.825c.1-103.6-29.88-205-86.31-291.882l.05-.099zm-294.75-8.112l-84.092-36.999-36.998 1.286-8.953 24.237-15.284-16.57-28.046 6.381-2.572 42.093 22.951 16.57 16.57-24.237 19.142 19.143 39.571 34.624 7.667 36.998 33.14 42.093 53.564-8.903-1.23-19.142-11.48-21.714-2.57-50.997 12.76-21.714-14.14-23.149zm68.9 28.095l-19.14-4.946-16.57 14.047 8.9 36.999h16.62l10.19-46.1zm118.71 24.237l-43.43-22.654-8.95-15.284-10.19 3.808 8.9 25.523 7.67 33.19 19.14 7.617 3.81-4.946-11.48-19.142 33.19 12.761 1.34-20.873zM845.652 973.92l-4.946 4.947 38.284 11.475 15.284 17.858 24.287 2.57 8.903-14.047-29.332-4.947-52.48-17.856zm113.765 24.237l-26.809 7.663 3.858 10.19h33.141l6.381-10.19-11.476 1.29-5.095-8.953z" stroke="#263238" stroke-miterlimit="10"/><path d="M1253.92 1141.23c209.91-209.908 209.91-550.245 0-760.158-209.91-209.914-550.249-209.913-760.163 0-209.913 209.913-209.913 550.25 0 760.158 209.914 209.92 550.253 209.92 760.163 0z" stroke="#263238" stroke-miterlimit="10"/><path d="M1547.21 541.8c29.34-4.778 49.25-32.431 44.47-61.767-4.78-29.335-32.43-49.243-61.77-44.465-29.33 4.777-49.24 32.431-44.46 61.766 4.77 29.336 32.43 49.244 61.76 44.466zM1159.3 326.546c29.72 0 53.81-24.094 53.81-53.816s-24.09-53.816-53.81-53.816c-29.72 0-53.82 24.094-53.82 53.816s24.1 53.816 53.82 53.816zM194.36 653.144c29.336-4.777 49.244-32.431 44.466-61.766-4.778-29.336-32.431-49.244-61.767-44.466-29.335 4.778-49.243 32.431-44.465 61.767 4.777 29.335 32.431 49.243 61.766 44.465zm34.673 338.793c29.335-4.777 49.243-32.431 44.466-61.766-4.778-29.336-32.432-49.244-61.767-44.466-29.335 4.778-49.243 32.431-44.465 61.767 4.777 29.335 32.431 49.243 61.766 44.465zm260.85-305.472c10.888-27.655-2.705-58.901-30.36-69.789-27.656-10.889-58.901 2.704-69.79 30.36-10.888 27.655 2.705 58.901 30.36 69.789 27.656 10.888 58.902-2.704 69.79-30.36zm304.921 562.125c29.722 0 53.816-24.09 53.816-53.82 0-29.72-24.094-53.81-53.816-53.81s-53.816 24.09-53.816 53.81c0 29.73 24.094 53.82 53.816 53.82zm386.946 103.48c29.73 0 53.82-24.1 53.82-53.82s-24.09-53.82-53.82-53.82c-29.72 0-53.81 24.1-53.81 53.82s24.09 53.82 53.81 53.82zm322.59-345.25c10.25-27.897-4.05-58.824-31.95-69.077-27.89-10.253-58.82 4.05-69.07 31.947-10.26 27.897 4.05 58.82 31.94 69.08 27.9 10.25 58.83-4.05 69.08-31.95z" fill="#fff" stroke="#fff" stroke-width=".5" stroke-miterlimit="10"/><path d="M1346.76 503.822c75.98 61.582 121.04 138.497 121.04 221.496 0 202.799-267.94 367.312-598.505 367.312-330.562 0-598.504-164.463-598.504-367.312 0-88.737 51.293-170.104 136.667-233.614" stroke="#fff" stroke-width=".5" stroke-miterlimit="10"/><path d="M526.367 351.03c53.865-88.292 129.594-147.153 219.32-160.261 210.812-30.37 419.103 205.124 465.303 525.992 46.2 320.869-87.21 605.579-297.969 635.949-95.959 13.8-191.423-27.45-271.306-106.79" stroke="#fff" stroke-width=".5" stroke-miterlimit="10"/><path d="M1335.8 1129.5c70.05-114.67-103.09-348.098-386.731-521.367-283.639-173.27-570.361-220.773-640.413-106.1-70.051 114.672 103.096 348.095 386.735 521.367 283.638 173.27 570.359 220.77 640.409 106.1z" stroke="#fff" stroke-width=".5" stroke-miterlimit="10"/><path d="M993.132 996.45c291.078-177.813 470.248-414.919 400.198-529.591-70.05-114.673-362.8-63.487-653.876 114.325-291.075 177.813-470.25 414.919-400.199 529.596 70.051 114.67 362.802 63.48 653.877-114.33z" stroke="#fff" stroke-width=".5" stroke-miterlimit="10"/><path d="M1120.27 421.516c0-1.957-.58-3.87-1.67-5.496a9.846 9.846 0 00-4.44-3.644 9.862 9.862 0 00-5.71-.563 9.928 9.928 0 00-5.07 2.708 9.891 9.891 0 00-2.7 5.065 9.81 9.81 0 00.56 5.715 9.936 9.936 0 003.64 4.44 9.905 9.905 0 005.5 1.667c2.62 0 5.14-1.042 6.99-2.897a9.875 9.875 0 002.9-6.995zm108.82 404.955a9.87 9.87 0 00-1.67-5.496 9.846 9.846 0 00-4.44-3.644 9.862 9.862 0 00-5.71-.563 9.928 9.928 0 00-5.07 2.708 9.891 9.891 0 00-2.7 5.065 9.81 9.81 0 00.56 5.715 9.936 9.936 0 003.64 4.44 9.905 9.905 0 005.5 1.667c2.62 0 5.14-1.042 6.99-2.897a9.875 9.875 0 002.9-6.995zm-21.76 205.719a9.884 9.884 0 00-6.11-9.14c-1.81-.75-3.8-.95-5.72-.56a9.9 9.9 0 00-5.06 2.7 9.946 9.946 0 00-2.71 5.07c-.38 1.92-.18 3.91.56 5.71a9.846 9.846 0 003.65 4.44 9.884 9.884 0 0012.49-1.23 9.902 9.902 0 002.9-6.99zm-63.12 156.7c0-1.96-.58-3.87-1.67-5.5a9.824 9.824 0 00-4.44-3.64c-1.8-.75-3.79-.95-5.71-.56a9.93 9.93 0 00-5.07 2.7 9.93 9.93 0 00-2.7 5.07c-.39 1.92-.19 3.91.56 5.71a9.888 9.888 0 0016.13 3.21 9.86 9.86 0 002.9-6.99zm188.41-223.28a9.896 9.896 0 00-11.83-9.702 9.904 9.904 0 00-7.77 7.772 9.9 9.9 0 00.57 5.716 9.808 9.808 0 003.64 4.44 9.897 9.897 0 005.49 1.667c2.63 0 5.14-1.042 7-2.897a9.92 9.92 0 002.9-6.996zm-508.386 124.25c0-1.95-.58-3.87-1.667-5.49a9.896 9.896 0 00-4.439-3.65 9.897 9.897 0 00-5.716-.56 9.834 9.834 0 00-5.065 2.71 9.859 9.859 0 00-2.708 5.06 9.898 9.898 0 004.207 10.16 9.95 9.95 0 005.496 1.67c2.624 0 5.14-1.05 6.995-2.9a9.902 9.902 0 002.897-7zm-450.56-164.315a9.894 9.894 0 00-11.822-9.702 9.902 9.902 0 00-5.066 2.707 9.902 9.902 0 00-2.707 5.066 9.897 9.897 0 009.703 11.822 9.895 9.895 0 006.995-2.897 9.896 9.896 0 002.897-6.996zm76.174-102.339a9.895 9.895 0 00-11.823-9.702 9.893 9.893 0 1011.823 9.702zm375.475-286.194a9.893 9.893 0 10-19.785.003 9.893 9.893 0 0019.785-.003zm587.667 25.028c0-1.956-.58-3.869-1.66-5.496a9.89 9.89 0 00-10.16-4.206 9.85 9.85 0 00-5.06 2.707 9.834 9.834 0 00-2.71 5.065 9.897 9.897 0 00.56 5.716 9.893 9.893 0 003.65 4.44 9.872 9.872 0 005.49 1.667c2.63 0 5.14-1.042 7-2.898a9.906 9.906 0 002.89-6.995zM311.647 609.921a9.892 9.892 0 10-19.784-.001 9.892 9.892 0 0019.784.001z" fill="#fff" stroke="#fff" stroke-width=".5" stroke-miterlimit="10"/><path d="M1412.9 558.133l77.75-41.846M292.06 609.921l-52.53-9.893m200.524 213.384V720.57m-85.967 204.975l-79.933 13.306m538.061 160.659l-7.321 43.03m333.236 55.79l22.9 49.86m171.44-282.381l66.48 14.245m-209.33 44.966l-64.55-62.13m-10.63-550.179l29.43-87.501m-655.194 41.648l12.465 9.349m82.603 867.933l13.998-18.7" stroke="#fff" stroke-width=".5" stroke-miterlimit="10"/><path d="M1135.68 945.383c10.47-27.814-3.58-58.855-31.39-69.332-27.82-10.477-58.86 3.578-69.34 31.392-10.47 27.814 3.58 58.855 31.4 69.332 27.81 10.476 58.85-3.578 69.33-31.392zm121.27-254.79c10.41-27.842-3.73-58.845-31.57-69.249-27.84-10.404-58.85 3.732-69.25 31.573-10.4 27.841 3.73 58.845 31.57 69.249 27.84 10.404 58.85-3.732 69.25-31.573z" fill="#fff" stroke="#fff" stroke-width=".5" stroke-miterlimit="10"/><path d="M185.986 569.44c-14.642 0-26.5 6.165-26.5 13.778 0 7.612 11.858 13.777 26.5 13.777 14.641 0 26.5-6.165 26.5-13.777 0-7.613-11.859-13.778-26.5-13.778zm-26.5 20.667v10.333c0 7.612 11.858 13.778 26.5 13.778 14.641 0 26.5-6.166 26.5-13.778v-10.333c0 7.612-11.859 13.777-26.5 13.777-14.642 0-26.5-6.165-26.5-13.777zm0 17.222v10.333c0 7.612 11.858 13.778 26.5 13.778 14.641 0 26.5-6.166 26.5-13.778v-10.333c0 7.612-11.859 13.778-26.5 13.778-14.642 0-26.5-6.166-26.5-13.778zm60.897 300.493c-14.642 0-26.5 6.165-26.5 13.778 0 7.612 11.858 13.777 26.5 13.777 14.641 0 26.5-6.165 26.5-13.777 0-7.613-11.859-13.778-26.5-13.778zm-26.5 20.666v10.334c0 7.612 11.858 13.778 26.5 13.778 14.641 0 26.5-6.166 26.5-13.778v-10.334c0 7.613-11.859 13.778-26.5 13.778-14.642 0-26.5-6.165-26.5-13.778zm0 17.223v10.333c0 7.612 11.858 13.778 26.5 13.778 14.641 0 26.5-6.166 26.5-13.778v-10.333c0 7.612-11.859 13.777-26.5 13.777-14.642 0-26.5-6.165-26.5-13.777zM439.808 635.75c-14.641 0-26.5 6.166-26.5 13.778s11.859 13.778 26.5 13.778 26.5-6.166 26.5-13.778-11.859-13.778-26.5-13.778zm-26.5 20.667v10.333c0 7.613 11.859 13.778 26.5 13.778s26.5-6.165 26.5-13.778v-10.333c0 7.612-11.859 13.778-26.5 13.778s-26.5-6.166-26.5-13.778zm0 17.222v10.334c0 7.612 11.859 13.777 26.5 13.777s26.5-6.165 26.5-13.777v-10.334c0 7.613-11.859 13.778-26.5 13.778s-26.5-6.165-26.5-13.778zM449.6 295.892c-14.641 0-26.5 6.166-26.5 13.778s11.859 13.778 26.5 13.778 26.5-6.166 26.5-13.778-11.859-13.778-26.5-13.778zm-26.5 20.667v10.333c0 7.612 11.859 13.778 26.5 13.778s26.5-6.166 26.5-13.778v-10.333c0 7.612-11.859 13.778-26.5 13.778s-26.5-6.166-26.5-13.778zm0 17.222v10.333c0 7.613 11.859 13.778 26.5 13.778s26.5-6.165 26.5-13.778v-10.333c0 7.612-11.859 13.778-26.5 13.778s-26.5-6.166-26.5-13.778zm736.2-92.051c-14.64 0-26.5 6.166-26.5 13.778s11.86 13.778 26.5 13.778 26.5-6.166 26.5-13.778-11.86-13.778-26.5-13.778zm-26.5 20.667v10.333c0 7.612 11.86 13.778 26.5 13.778s26.5-6.166 26.5-13.778v-10.333c0 7.612-11.86 13.777-26.5 13.777s-26.5-6.165-26.5-13.777zm0 17.222v10.333c0 7.612 11.86 13.778 26.5 13.778s26.5-6.166 26.5-13.778v-10.333c0 7.612-11.86 13.778-26.5 13.778s-26.5-6.166-26.5-13.778zm73.74 361.136c-14.64 0-26.5 6.166-26.5 13.778s11.86 13.778 26.5 13.778 26.5-6.166 26.5-13.778-11.86-13.778-26.5-13.778zm-26.5 20.667v10.333c0 7.613 11.86 13.778 26.5 13.778s26.5-6.165 26.5-13.778v-10.333c0 7.612-11.86 13.778-26.5 13.778s-26.5-6.166-26.5-13.778zm0 17.222v10.334c0 7.612 11.86 13.777 26.5 13.777s26.5-6.165 26.5-13.777v-10.334c0 7.612-11.86 13.778-26.5 13.778s-26.5-6.166-26.5-13.778zm358.52-220.96c-14.64 0-26.5 6.165-26.5 13.777 0 7.613 11.86 13.778 26.5 13.778s26.5-6.165 26.5-13.778c0-7.612-11.86-13.777-26.5-13.777zm-26.5 20.666v10.334c0 7.612 11.86 13.777 26.5 13.777s26.5-6.165 26.5-13.777V478.35c0 7.612-11.86 13.778-26.5 13.778s-26.5-6.166-26.5-13.778zm0 17.222v10.334c0 7.612 11.86 13.778 26.5 13.778s26.5-6.166 26.5-13.778v-10.334c0 7.613-11.86 13.778-26.5 13.778s-26.5-6.165-26.5-13.778zm-58.23 461.683c-14.64 0-26.5 6.165-26.5 13.778 0 7.612 11.86 13.777 26.5 13.777s26.5-6.165 26.5-13.777c0-7.613-11.86-13.778-26.5-13.778zm-26.5 20.667v10.333c0 7.612 11.86 13.775 26.5 13.775s26.5-6.163 26.5-13.775v-10.333c0 7.612-11.86 13.777-26.5 13.777s-26.5-6.165-26.5-13.777zm0 17.222v10.336c0 7.61 11.86 13.77 26.5 13.77s26.5-6.16 26.5-13.77v-10.336c0 7.616-11.86 13.776-26.5 13.776s-26.5-6.16-26.5-13.776zm-342.01-99.731c-14.64 0-26.5 6.165-26.5 13.777 0 7.613 11.86 13.778 26.5 13.778s26.5-6.165 26.5-13.778c0-7.612-11.86-13.777-26.5-13.777zm-26.5 20.666v10.334c0 7.612 11.86 13.777 26.5 13.777s26.5-6.165 26.5-13.777v-10.334c0 7.612-11.86 13.778-26.5 13.778s-26.5-6.166-26.5-13.778zm0 17.222v10.334c0 7.612 11.86 13.778 26.5 13.778s26.5-6.166 26.5-13.778v-10.334c0 7.613-11.86 13.778-26.5 13.778s-26.5-6.165-26.5-13.778zm122.93 333.989c-14.64 0-26.5 6.17-26.5 13.78 0 7.61 11.86 13.78 26.5 13.78 14.65 0 26.5-6.17 26.5-13.78 0-7.61-11.85-13.78-26.5-13.78zm-26.5 20.67v10.33c0 7.62 11.86 13.78 26.5 13.78 14.65 0 26.5-6.16 26.5-13.78v-10.33c0 7.61-11.85 13.78-26.5 13.78-14.64 0-26.5-6.17-26.5-13.78zm0 17.22v10.34c0 7.61 11.86 13.77 26.5 13.77 14.65 0 26.5-6.16 26.5-13.77v-10.34c0 7.62-11.85 13.78-26.5 13.78-14.64 0-26.5-6.16-26.5-13.78zm-604.164-48.66c-14.641 0-26.5 6.16-26.5 13.77 0 7.62 11.859 13.78 26.5 13.78s26.5-6.16 26.5-13.78c0-7.61-11.859-13.77-26.5-13.77zm-26.5 20.66v10.34c0 7.61 11.859 13.77 26.5 13.77s26.5-6.16 26.5-13.77v-10.34c0 7.61-11.859 13.78-26.5 13.78s-26.5-6.17-26.5-13.78zm0 17.22v10.34c0 7.61 11.859 13.78 26.5 13.78s26.5-6.17 26.5-13.78v-10.34c0 7.62-11.859 13.78-26.5 13.78s-26.5-6.16-26.5-13.78zm270.218-130.63c-14.641 0-26.5 6.17-26.5 13.78 0 7.61 11.859 13.78 26.5 13.78s26.5-6.17 26.5-13.78c0-7.61-11.859-13.78-26.5-13.78zm-26.5 20.67v10.33c0 7.62 11.859 13.78 26.5 13.78s26.5-6.16 26.5-13.78v-10.33c0 7.61-11.859 13.78-26.5 13.78s-26.5-6.17-26.5-13.78zm0 17.22V1212c0 7.61 11.859 13.77 26.5 13.77s26.5-6.16 26.5-13.77v-10.34c0 7.61-11.859 13.78-26.5 13.78s-26.5-6.17-26.5-13.78z" fill="#B75400"/></svg>