<svg xmlns="http://www.w3.org/2000/svg" width="212" height="104" viewBox="0 0 212 104" fill="none">
<rect x="0.765152" y="0.765152" width="210.47" height="102.47" fill="white"/>
<path fill-rule="evenodd" clip-rule="evenodd" d="M80.9529 66.3415H84.2447C87.8113 66.3415 89.6099 68.7506 89.6099 71.0975C89.6099 73.4747 88.4514 75.9736 84.4277 75.9736C81.8669 75.9736 80.9529 75.1502 80.9529 72.8342V66.3415ZM78.4237 73.7176C78.4237 75.6396 77.9356 76.2179 75.4369 76.2179H74.7346V76.7964H85.8906C90.799 76.7964 92.4748 73.4135 92.4748 71.0057C92.4748 68.6285 90.799 66.7683 87.9344 65.9153V65.8534C89.9765 65.4881 91.4085 63.8731 91.4085 62.1361C91.4085 60.6718 90.799 59.6348 89.549 58.7528C88.4514 57.9596 86.1045 57.5627 83.4226 57.5627C82.8427 57.5627 80.5264 57.593 78.8492 57.6548C77.9662 57.6854 75.8625 57.8072 75.0091 57.8368V58.4164H76.0761C78.2094 58.4164 78.4237 59.3307 78.4237 61.0678V73.7176ZM80.9529 58.2334C81.7148 58.2028 82.9658 58.1419 83.6352 58.1419C87.3848 58.1419 88.6647 60.0929 88.6647 62.2269C88.6647 64.6044 87.2018 65.7622 84.2756 65.7622H80.9529V58.2334ZM100.828 68.2622C100.126 68.2622 99.6686 68.2921 98.9373 68.2013V58.2028C99.4856 58.1419 99.8819 58.1419 100.461 58.1419C105.159 58.1419 106.437 60.3374 106.437 63.1711C106.437 66.8292 104.214 68.2622 100.828 68.2622ZM123.352 58.4164V57.8372H115.944V58.4164C117.65 58.5072 118.231 58.9644 118.231 60.6109V73.5968C118.231 75.5771 117.853 76.0934 116.109 76.207C113.784 76.0852 112.797 75.1729 111.129 73.506L108.723 71.0975C107.292 69.6645 106.377 68.8105 105.249 67.9268C107.749 67.1955 109.302 65.2748 109.302 62.9891C109.302 59.8796 106.773 57.5627 101.133 57.5627C99.1499 57.5627 98.5404 57.593 97.2908 57.6552C96.0415 57.7151 94.1816 57.8368 93.45 57.8368V58.4164H94.1211C95.8891 58.4164 96.4074 58.9644 96.4074 60.8555V73.688C96.4074 75.7308 95.7666 76.2179 93.9687 76.2179H93.4503V76.7964H102.078V76.2179H101.376C99.6686 76.2179 98.9373 75.7604 98.9373 73.9315V68.7795C99.4254 68.8105 99.8213 68.8421 100.492 68.8421C101.316 68.8421 101.804 68.8105 102.566 68.7795C103.298 69.268 104.366 70.1513 105.707 71.4924L107.718 73.506C110.353 76.1435 111.478 76.9765 116.441 76.7964H123.352V76.2179C121.248 76.2179 120.761 75.608 120.761 73.8097V60.8861C120.761 58.8439 121.432 58.4164 123.352 58.4164ZM125.424 72.1638C126.065 74.877 128.198 76.4621 130.575 76.4621C132.618 76.4621 134.781 75.273 134.781 72.8655C134.781 68.4748 124.997 67.135 124.997 61.8007C124.997 59.2695 127.314 57.3797 130.423 57.3797C132.983 57.3797 133.502 58.1423 134.569 58.1423C134.812 58.1423 134.934 58.081 135.117 57.8372H135.605L136.123 61.7082H135.605C134.751 59.5137 132.801 58.1126 130.696 58.1126C128.685 58.1126 127.282 59.2695 127.282 60.9769C127.282 65.3048 137.067 66.4652 137.067 72.0723C137.067 75.0594 134.415 77.2855 130.849 77.2855C129.173 77.2855 127.04 76.4621 126.613 76.4621C126.338 76.4621 126.124 76.6134 126.003 76.7964H125.485L124.846 72.1638H125.424ZM148.804 73.9934C148.804 75.6396 149.351 76.2182 151.21 76.2182H152.34V76.7964H142.737V76.2179H143.866C145.725 76.2179 146.272 75.6396 146.272 73.9934V58.9354H140.969C139.751 58.9354 139.202 59.6348 138.743 62.3171H138.195L138.683 57.3797H139.262C139.294 57.5627 139.415 57.6858 139.598 57.7457C139.78 57.8072 139.994 57.8368 140.207 57.8368H154.869C155.296 57.8368 155.753 57.7457 155.815 57.3797H156.393L156.881 62.3171H156.332C155.875 59.6348 155.326 58.9354 154.108 58.9354H148.804L148.804 73.9934ZM179.199 66.7989C179.199 61.3126 174.261 57.3797 168.5 57.3797C162.008 57.3797 157.343 61.6776 157.343 67.7432C157.343 73.4444 162.374 77.2852 168.348 77.2852C174.261 77.2852 179.199 72.9563 179.199 66.7989ZM176.333 67.8044C176.333 72.1322 173.957 76.5213 168.989 76.5213C164.08 76.5213 160.21 72.4995 160.21 66.7989C160.21 63.1408 162.342 58.1419 167.707 58.1419C172.737 58.1419 176.333 62.1361 176.333 67.8044Z" fill="black"/>
<path fill-rule="evenodd" clip-rule="evenodd" d="M193.361 76.7961H179.736V76.2178H180.741C182.144 76.2178 182.661 75.7604 182.661 74.2053V60.7018C182.661 59.0871 182.174 58.4164 180.254 58.4164H179.828V57.8372H188.819V58.4164H187.691C185.711 58.4164 185.191 58.6297 185.191 60.5194V74.5713C185.191 75.3941 185.528 75.6998 186.411 75.6998H190.891C192.69 75.6998 193.238 74.9985 195.16 72.3471H195.708L193.361 76.7961Z" fill="#212121"/>
<mask id="mask0_3607_14468" style="mask-type:luminance" maskUnits="userSpaceOnUse" x="43" y="26" width="25" height="26">
<path d="M43.6515 26H67.8473V51.1729H43.6515V26Z" fill="white"/>
</mask>
<g mask="url(#mask0_3607_14468)">
<path fill-rule="evenodd" clip-rule="evenodd" d="M50.968 49.1232C50.9459 47.349 50.3437 43.7225 46.0991 41.6648C50.4091 43.0339 52.4822 46.6756 52.6942 49.3924C57.2192 50.2942 61.2347 52.4236 67.7551 50.1754L67.7775 50.1612C67.7775 50.1612 59.1975 50.2392 55.6095 47.6435C57.4624 47.7136 59.5957 47.294 60.2947 46.2448C61.0399 45.1274 61.1169 43.9732 62.9523 43.914C63.9834 43.8808 67.4806 44.1417 67.8472 39.0069C66.7283 40.8954 65.5165 41.676 63.6863 41.21C62.5179 40.9122 60.3852 40.0183 58.8611 41.8393C57.6026 43.3427 56.2509 44.1233 54.0942 43.8906C54.9572 42.7252 67.8127 26.0349 67.8127 26.0349C67.8127 26.0349 51.3438 39.2521 50.4348 40.0212C50.2601 37.6085 50.9825 36.7229 51.9497 35.6621C52.7412 34.7946 54.1173 33.6193 53.022 31.1398C52.1363 29.1351 52.2528 27.9227 54.6652 26C52.7419 26.1399 49.8072 27.4333 50.1544 30.965C50.3644 33.0977 48.8534 33.282 48.3012 33.5874C46.8679 34.3799 46.6809 36.6876 46.6345 38.4826C46.472 37.8998 44.386 28.9308 43.6518 26.0286C43.6511 26.0303 43.6514 50.1609 43.6514 50.1609H43.7067C46.5016 49.06 48.8268 48.8922 50.968 49.1232Z" fill="#BF2F38"/>
</g>
<path fill-rule="evenodd" clip-rule="evenodd" d="M91.9314 36.0972V36.5264C90.4175 36.5488 89.8748 37.1593 89.8748 38.6064V44.7088C89.8748 47.5115 88.0887 50.5177 83.1839 50.5177C78.8669 50.5177 76.6517 48.0536 76.6517 44.8217V38.2216C76.6517 36.7749 76.2449 36.5488 74.7083 36.5267V36.0969H80.5171V36.5264H80.3134C79.0707 36.5264 78.5279 36.8657 78.5279 38.1766V44.46C78.5279 47.5115 80.3134 49.3424 83.6812 49.3424C86.2355 49.3424 88.8351 48.2797 88.8351 44.4373V39.1711C88.8351 37.0013 88.4962 36.6172 86.6202 36.5267V36.0972H91.9314ZM94.902 48.1895C94.902 49.4326 95.1956 49.7265 96.416 49.7265V50.156H91.8729V49.7265C92.8674 49.7265 93.3874 49.1841 93.3874 48.3024V43.5559C93.3874 42.7196 93.2969 42.5613 92.7095 42.4481L91.9407 42.2902V41.9281L94.54 40.9793H94.902V42.742C96.416 41.7929 97.6817 40.9563 98.7895 40.9563C100.327 40.9563 101.208 42.0868 101.208 44.3471C101.208 47.3532 101.05 47.9407 101.027 48.8224C101.005 49.4326 101.366 49.7265 102.293 49.7265H102.79V50.156H97.9305V49.7265C98.5858 49.7034 98.9705 49.5455 99.2187 49.297C99.6482 48.8675 99.6936 47.217 99.6936 44.2112C99.6936 42.403 98.8119 41.8379 97.9078 41.8379C97.1844 41.8379 96.0773 42.4708 94.902 43.2847V48.1895ZM106.186 35.7576C106.728 35.7576 107.181 36.142 107.181 36.6169C107.181 37.0915 106.728 37.4759 106.187 37.4759C105.644 37.4759 105.214 37.0915 105.214 36.6169C105.214 36.142 105.644 35.7576 106.186 35.7576ZM107.113 48.438C107.113 49.2292 107.543 49.7265 108.74 49.7265V50.156H103.723V49.7265C105.102 49.7265 105.599 49.2746 105.599 48.0766V43.5335C105.599 42.6518 105.486 42.5386 104.899 42.4257L103.836 42.222V41.8607L106.774 40.8437H107.113V48.438M113.902 50.3594L110.624 42.8556C110.285 42.064 109.992 41.7929 109.631 41.7251L108.928 41.6122V41.2054H113.54V41.6122C112.161 41.6573 111.732 41.8379 112.274 42.9007L114.67 48.5285L116.976 43.3074C117.383 42.3803 117.179 41.7251 115.529 41.6125V41.2051H119.462V41.6118C118.604 41.7698 118.106 42.2671 117.677 43.2617L114.558 50.359L113.902 50.3594ZM127.894 44.4149V43.8949C127.148 43.1488 127.216 40.9563 124.165 40.9563C121.407 40.9563 119.802 43.3976 119.802 45.7936C119.802 48.4153 121.519 50.4275 123.735 50.4275C125.385 50.4275 126.809 49.297 127.758 48.099L127.51 47.8278C126.651 48.8448 125.77 49.297 124.64 49.297C122.853 49.297 121.203 47.7146 121.203 45.3644C121.203 45.0702 121.249 44.7542 121.294 44.4149H127.894ZM121.361 43.8268C121.882 41.7251 123.012 41.3861 123.758 41.3861C124.843 41.3861 125.747 42.3579 125.995 43.8268H121.361ZM132.253 48.5061C132.253 49.4326 132.592 49.7265 133.722 49.7265H134.581V50.156H129.223V49.7265C130.377 49.7034 130.738 49.2292 130.738 48.0312V42.8102L129.223 42.2671V41.8834L131.8 40.9793H132.253V43.3749H132.298C133.428 41.5217 133.699 41.0922 134.445 41.0922C134.717 41.0922 134.784 41.1149 135.214 41.2959C135.439 41.3861 135.847 41.4763 136.389 41.6346L135.847 42.9905C135.431 42.9312 135.028 42.8093 134.649 42.6291C134.4 42.5163 134.129 42.403 133.858 42.403C133.45 42.403 133.202 42.6746 132.976 42.9905C132.682 43.3976 132.434 43.7817 132.253 44.121V48.5061ZM137.95 47.8729C138.221 49.2292 139.08 49.9977 140.098 49.9977C141.001 49.9977 141.702 49.3194 141.702 48.5061C141.702 48.0312 141.589 47.7373 140.978 47.1271C139.373 45.5224 137.588 45.3644 137.588 43.4878C137.588 41.9963 138.764 40.9563 140.481 40.9563C141.092 40.9563 141.725 41.0922 142.29 41.3183L142.335 43.3749H141.951C141.792 42.222 141.046 41.499 140.142 41.499C139.396 41.499 138.764 42.0186 138.764 42.7647C138.764 44.7542 142.967 45.0929 142.967 47.8505C142.967 49.3194 141.747 50.4272 140.165 50.4272C139.736 50.4272 139.419 50.3594 139.17 50.2689C138.921 50.2014 138.741 50.1333 138.56 50.1333C138.424 50.1333 138.289 50.2238 138.176 50.4048H137.837L137.588 47.8729H137.95ZM146.815 35.7576C147.359 35.7576 147.81 36.142 147.81 36.6169C147.81 37.0915 147.359 37.4759 146.815 37.4759C146.274 37.4759 145.845 37.0915 145.845 36.6169C145.845 36.142 146.274 35.7576 146.815 35.7576ZM147.743 48.438C147.743 49.2292 148.172 49.7265 149.37 49.7265V50.156H144.352V49.7265C145.732 49.7265 146.228 49.2746 146.228 48.0766V43.5335C146.228 42.6518 146.115 42.5386 145.527 42.4257L144.465 42.222V41.8607L147.404 40.8437H147.743V48.438ZM155.812 41.2054L155.45 42.1996H152.58V47.4665C152.58 48.8899 153.597 49.3648 154.071 49.3648C154.568 49.3648 155.021 48.9807 155.449 48.2346L155.811 48.5736C155.269 49.7489 154.388 50.4272 153.348 50.4272C152.014 50.4272 151.065 49.3194 151.065 47.8054V42.1996H150.026V41.8379C150.907 41.4085 151.676 40.3688 152.195 38.9674H152.58V41.2054H155.812ZM164.753 43.7142C165.431 41.9963 165.001 41.6573 163.667 41.6122V41.2054H167.419V41.6122C166.493 41.7251 165.974 42.3579 165.544 43.42L161.702 53.0041C161.023 54.6767 160.504 55.4221 159.713 55.4221C159.17 55.4221 158.786 55.0835 158.786 54.6313C158.786 53.7042 160.096 53.9303 160.662 53.3658C160.909 53.1164 161.249 52.5292 161.429 52.0773L162.108 50.3817L158.604 42.9454C158.176 42.0186 157.768 41.6346 156.819 41.6125V41.2051H161.362V41.6118C159.983 41.6342 159.826 42.0413 160.278 42.9902L162.831 48.5061L164.753 43.7142ZM172.492 45.7485C172.492 48.3929 174.639 50.4272 177.442 50.4272C180.132 50.4272 182.234 48.3702 182.234 45.7034C182.234 43.0132 180.132 40.9563 177.374 40.9563C175.024 40.9563 172.492 42.6295 172.492 45.7485ZM174.187 44.9797C174.187 43.0359 175.566 41.499 177.057 41.499C178.956 41.499 180.539 43.6915 180.539 46.2685C180.539 48.5282 179.025 49.8848 177.691 49.8848C175.747 49.8848 174.187 47.7146 174.187 44.9797Z" fill="black"/>
<path fill-rule="evenodd" clip-rule="evenodd" d="M188.789 42.1996H186.347V48.3929C186.347 49.4329 186.754 49.7265 188.02 49.7265H188.879V50.156H183.297V49.7265C184.607 49.7265 184.833 49.4326 184.833 48.1668V42.2H183.16V41.8152C183.793 41.6803 184.336 41.4762 184.833 41.2054C184.833 39.3294 185.24 37.905 186.574 36.5715C187.681 35.464 188.743 34.9667 189.783 34.9667C191.049 34.9667 192.111 35.6901 192.111 36.0291C192.111 36.2101 191.682 37.1138 191.501 37.1138C191.184 37.1138 190.348 36.0067 188.856 36.0067C187.229 36.0067 186.347 37.2949 186.347 39.4874V41.2054H188.631L188.789 42.1996Z" fill="black"/>
<mask id="mask1_3607_14468" style="mask-type:luminance" maskUnits="userSpaceOnUse" x="17" y="26" width="25" height="26">
<path d="M17.0739 51.1736V26.029H41.1456V51.1733L17.0739 51.1736Z" fill="white"/>
</mask>
<g mask="url(#mask1_3607_14468)">
<path fill-rule="evenodd" clip-rule="evenodd" d="M34.8062 39.0819C34.6199 38.0795 34.713 36.0982 35.6921 34.1403C32.0788 36.8677 32.0324 39.0819 32.0324 39.0819C32.0324 39.0819 32.7317 38.5458 34.8062 39.0819ZM33.128 33.1145C33.128 33.1145 28.7455 33.744 27.487 33.8606C26.6185 34.3733 25.6222 35.8069 25.6222 35.8069C25.6222 35.8069 24.5964 35.9583 22.5453 36.3315C21.119 37.2619 20.2606 39.4315 22.0323 41.2031C21.4728 41.0866 21.4728 41.0866 20.6569 40.9467C18.9086 42.0657 19.7245 44.1404 23.3609 43.4177C22.3354 43.3828 21.8223 42.8816 21.8341 42.2286C21.8108 41.5177 23.198 40.6321 24.888 41.0866C23.2793 38.0446 25.0624 36.844 25.0624 36.844C25.0624 36.844 24.1188 39.3558 26.1817 41.4127C26.368 41.1099 26.9857 40.2592 28.7225 40.2243C30.4526 40.1894 31.5397 41.0392 31.566 42.019C31.5894 42.8816 30.4938 43.7906 29.072 43.7906L29.0486 41.7297C29.0486 41.7297 28.5856 41.8965 28.4543 42.0792C28.4562 42.174 28.4427 43.8139 28.4427 43.8139C27.8829 43.8139 26.7412 43.5809 26.135 42.6133C25.6686 42.5669 23.0696 42.1822 23.0696 42.1822L23.2095 42.8697C23.2095 42.8697 24.1188 43.0214 24.2933 43.9305C24.5049 45.0304 25.1325 46.0401 25.692 46.4482C26.7758 46.3198 28.5708 44.9563 31.8695 45.0027C28.839 45.4223 25.7621 48.6621 21.3329 47.427C28.3726 49.8282 29.0954 44.4899 37.9064 46.1684C36.5314 45.3292 34.48 45.0728 34.48 45.0728C34.48 45.0728 35.5753 43.8837 35.622 42.0657C35.7619 42.0568 35.9485 42.0423 36.2984 42.0074C36.4149 41.4246 36.4962 40.8332 36.4962 40.8332C36.4962 40.8332 34.5731 40.8302 32.9592 40.8302C29.0312 36.8558 33.128 33.1145 33.128 33.1145ZM23.2911 33.0447C24.3983 33.1026 25.744 32.4148 25.8319 32.3568C25.8319 32.3568 25.3655 33.5341 26.4144 33.4643C27.5531 33.3883 28.864 32.8044 29.0486 32.7185V31.203C28.9473 31.2777 27.8375 32.0619 26.578 32.3453C26.1179 32.4487 26.2749 32.0422 26.3213 31.8092C26.368 31.5762 26.3993 31.3856 25.5755 31.7276C22.207 33.1263 22.0323 32.1706 22.0323 32.0537C21.8927 32.2173 21.9516 32.9739 23.2911 33.0447ZM41.1455 26.029V50.1612C31.4367 46.3383 27.3922 53.7512 17.0541 50.1612V26.029H21.9727V28.6339H24.7935L24.7932 26.029H27.5673L27.5676 28.6342L30.3644 28.6339V26.029H33.1619V28.6339L36.2036 28.6342V26.029H41.1455Z" fill="#BF2F38"/>
</g>
<path fill-rule="evenodd" clip-rule="evenodd" d="M50.4105 58.8535C50.4105 58.8535 50.2953 58.7962 50.5145 58.6136C50.5415 58.5908 50.5836 58.6409 50.7109 58.6422C50.8824 58.6445 50.9723 58.5852 51.1144 58.4141C51.3297 58.1541 50.8811 58.0537 50.736 58.1791C50.5757 58.3154 50.4611 58.4579 50.3246 58.5829C50.3246 58.5829 50.0942 58.7877 50.4105 58.8535ZM58.7212 71.0442C58.3368 71.3585 57.1481 71.9585 56.8506 72.0983C56.5537 72.2385 56.4583 72.3231 56.2391 72.7572C55.9708 73.2878 55.7145 74.2498 55.7842 74.3185C56.5185 74.2027 57.0431 73.5849 57.0431 73.5849C57.0431 73.5849 57.0546 73.4336 56.8917 73.1762C56.7568 72.9642 57.0201 72.7342 57.183 72.8678C57.307 72.9698 57.4802 72.9906 57.5851 72.9024C57.6898 72.8151 59.9801 71.3588 60.0851 71.189C59.7922 70.8977 59.5178 70.5885 59.2633 70.2632C59.2633 70.2632 59.106 70.7292 58.7212 71.0442ZM49.7703 64.6571C48.7912 64.2598 48.5724 63.9956 48.389 63.9166C48.2258 63.8475 47.5518 64.1338 47.4392 64.4234C47.1364 65.2044 46.4604 66.4804 46.3614 66.6614C46.3077 66.7585 46.2505 66.8713 46.262 66.9997C46.2738 67.1274 46.3117 67.629 46.3002 67.7451C46.2883 67.8623 46.3058 68.014 46.3522 68.1302C46.3989 68.2467 46.4608 68.7473 46.7165 69.2492C47.2878 68.6779 47.3714 67.8353 47.3342 68.0019C47.3332 68.0061 47.5152 67.6935 47.0604 67.5529C46.9311 67.5135 46.9502 67.1764 47.0894 67.1333C47.2585 67.0813 47.3461 67.0339 47.4277 66.7318C47.5093 66.428 47.8167 65.3397 47.9171 65.129C47.9326 65.0968 47.9609 65.0421 48.0175 65.0158C48.1064 64.9762 48.2001 64.9483 48.2962 64.9329C48.339 64.9263 48.4213 64.9727 48.446 64.998C48.6013 65.155 49.409 65.8103 49.409 65.8103C49.409 65.8103 49.7703 65.7757 49.9918 65.6826C49.8516 65.4608 49.7937 64.9243 49.7703 64.6571ZM48.7823 60.0528C48.7823 60.0528 48.4414 60.4727 48.8261 60.5777C48.835 60.6995 48.883 60.9407 48.9314 61.0671C48.9953 61.2359 49.1059 61.1806 49.2283 61.0408C49.3507 60.9009 49.5475 60.6353 49.6917 60.4813C49.8227 60.3417 50.2791 60.3918 50.0939 60.6731C49.9714 60.8598 49.8753 60.9101 49.718 60.9447C49.5936 60.972 49.5561 60.8657 49.4208 61.05C49.2783 61.2428 49.1259 61.3778 49.377 61.3778C49.508 61.3778 49.7572 61.4999 49.9234 61.4732C50.0797 61.4489 50.0971 61.3468 50.1143 61.2066C50.1314 61.0612 50.1031 60.9766 50.266 60.8864C50.4753 60.7692 50.7843 60.4902 50.8781 60.3911C50.9848 60.2772 51.1223 60.3036 51.2622 60.3036C51.4021 60.3036 52.0778 60.3852 52.4803 59.7819C52.7636 59.3567 52.7949 58.7771 52.6899 58.2525C52.8821 58.4447 53.1408 59.0493 53.0045 59.6157C52.7623 60.6251 52.2657 60.6814 51.7631 60.7873C51.5535 61.0839 51.0174 61.8474 50.732 63.235C50.6096 63.3163 49.5956 64.2954 50.4434 65.9018C50.2248 65.9735 49.5804 66.2493 49.1993 66.3346C48.9429 66.3938 48.7287 66.407 48.6254 66.5304C48.5088 66.6699 48.2406 67.1251 48.3805 67.3515C48.4796 67.5131 49.1147 68.9339 49.1671 69.3716C49.2197 69.808 49.3777 69.912 49.534 70.0536C49.7091 70.2105 49.8227 70.2017 50.0675 70.386C50.315 70.5709 50.5207 70.9053 50.7495 71.0847C50.994 71.2769 51.2681 71.3644 51.4603 71.3463C51.4136 70.6361 51.2619 69.9367 51.0407 69.704C50.8107 69.4611 50.522 69.808 50.4523 69.8261C50.3825 69.8432 50.2847 69.7758 50.2423 69.5809C50.1985 69.3795 50.3825 69.2137 50.2074 68.9517C49.9683 68.5905 49.7437 68.2199 49.534 67.8409C49.3069 67.3966 49.6927 67.2771 49.7878 67.2999C50.0152 67.3515 51.3787 67.5358 51.5884 67.5533C51.798 67.5701 51.9142 67.6059 52.0083 67.5C52.2966 67.1774 52.4625 66.9411 52.6287 66.6084C52.9348 66.8365 52.7248 67.2735 52.6376 67.7916C52.7248 67.8679 54.7005 68.8645 57.4163 68.1417C58.5501 67.8403 58.4211 68.0779 58.529 68.2872C59.1876 69.5642 59.654 70.0578 60.4349 70.6825C60.668 70.8691 60.8309 71.1719 60.9359 71.3463C61.0412 71.5217 61.0675 71.8327 60.9826 72.0348C60.8776 72.2849 60.271 73.373 60.1667 73.526C59.9686 73.8176 59.7099 74.0625 59.4904 74.1787C58.8029 74.546 58.6314 74.8757 58.5557 75.1324H60.3211C60.3211 75.1324 60.3622 75.0403 60.3415 74.8198C60.3122 74.5114 60.5919 74.4594 60.6795 74.4413C60.7667 74.4239 60.9243 74.4933 61.0639 74.1616C61.3272 73.5369 62.352 71.7956 62.4396 71.6379C62.5268 71.4806 62.847 71.0603 62.5327 70.8747C61.938 70.5258 61.5892 69.9505 61.472 69.3065C61.4253 69.0504 61.4532 68.6285 62.0315 67.9084C63.267 66.3704 62.3461 63.2001 59.596 63.2583C58.036 63.2912 57.1678 63.1583 56.1515 62.9556C55.78 62.8802 55.7164 62.6807 55.7961 62.4533C55.8777 62.2206 55.9564 61.7576 55.959 61.568C55.6911 61.3235 55.2833 61.1721 55.0849 61.1023C54.8716 61.0269 54.7643 60.8568 54.9802 60.84C55.1958 60.8222 56.0117 60.9098 56.0117 60.9098C56.0117 60.9098 56.0406 60.4727 55.9241 59.8316C55.5223 59.661 55.0988 59.5471 54.6656 59.4933C54.5428 59.4781 54.4352 59.3402 54.7469 59.2958C55.155 59.2376 55.5279 59.3014 55.8198 59.2836C55.8369 59.2491 55.6796 58.4332 55.3909 58.1038C55.1902 58.0429 55.0836 58.0149 54.3858 57.932C54.141 57.9027 54.1291 57.8326 54.2924 57.7796C54.4823 57.7197 54.7966 57.6581 55.1902 57.6835C55.0388 57.4745 54.0245 55.6242 51.9208 56.1811C52.1564 56.469 52.2703 56.603 52.3401 56.8014C52.4029 56.9792 52.2153 57.0354 52.0432 56.8544C51.3787 56.1544 51.0289 56.1719 50.6007 56.0929C50.8804 56.3644 51.0029 56.6359 51.099 56.9061C50.6185 57.2471 49.9365 58.06 49.8401 58.2173C49.6571 58.5168 49.9102 58.6781 49.9102 58.6781L48.7823 60.0528ZM62.3751 55.3678C60.225 56.1192 60.5419 58.4371 61.1225 59.3307C61.8801 60.4961 62.5212 60.5194 63.005 61.8886C63.3818 62.9569 62.7075 63.5144 62.043 63.7592C63.1794 64.4593 64.3507 63.7362 64.7704 63.0368C65.5431 62.007 64.6677 60.6695 65.4931 59.9715C65.7139 59.7849 66.0875 59.6568 66.589 59.6335C66.0871 58.9226 64.9106 59.0042 64.4383 59.6687C64.1062 58.8992 63.1735 58.2265 63.5118 57.0345C63.7333 56.2535 64.9685 55.9622 65.4345 56.6033C65.6896 56.9538 65.7261 57.6404 64.9803 57.9902C65.4464 57.9553 66.332 57.151 65.7261 56.0557C65.3006 55.2859 64.5841 55.2273 64.0016 55.2273C62.9405 55.2273 61.181 56.4404 62.3056 59.0565C61.6586 58.4799 60.6097 56.469 62.3751 55.3678ZM67.74 52.6438V76.805C54.3835 80.057 53.9981 72.9586 43.6488 76.805C43.6498 77.1186 43.6442 52.6414 43.6488 52.6438C53.1592 48.6575 56.866 56.21 67.74 52.6438Z" fill="#BF2F38"/>
<mask id="mask2_3607_14468" style="mask-type:luminance" maskUnits="userSpaceOnUse" x="17" y="51" width="25" height="27">
<path d="M17.0739 51.4471V77.6847H41.1472V51.4471H17.0739Z" fill="white"/>
</mask>
<g mask="url(#mask2_3607_14468)">
<path fill-rule="evenodd" clip-rule="evenodd" d="M25.8181 66.4274C25.8181 66.4274 25.3955 66.7032 25.925 67.8649C26.4539 69.0254 27.1111 70.1062 25.9675 71.3815C26.6158 71.3894 28.031 70.5344 26.5168 67.9857C26.1686 67.3989 25.7927 66.9924 25.8181 66.4274ZM24.3854 66.9747C24.7356 66.9507 24.78 66.5221 24.7165 66.2967C24.6418 66.0301 24.1975 65.9972 24.0905 66.3362C23.9846 66.6719 24.077 66.9977 24.077 66.9977C24.1649 67.3209 24.5289 67.4134 24.5602 67.3808C24.3581 67.1995 24.4127 67.0955 24.3854 66.9747ZM24.7221 68.5172C24.6375 69.5431 24.0491 69.6941 24.0491 69.6941C23.0222 69.2225 22.4713 70.515 23.3332 70.8954C24.4252 71.3782 25.0937 69.9667 25.1585 69.7057C25.3425 68.9658 25.3599 68.4425 25.277 67.2413C25.2072 66.2174 25.46 66.0624 25.6285 66.0347C25.7963 66.0058 26.1478 65.9919 26.4983 67.0593C26.8495 68.1256 27.6065 68.2799 27.6065 68.2799C27.6065 68.2799 26.5102 66.4961 28.035 64.8493C28.7439 64.0837 30.1897 63.6487 29.9221 62.5764C29.9221 62.5764 29.6983 62.9608 29.2632 63.0734C28.8281 63.1853 27.9859 63.312 27.9859 63.312C27.9859 63.312 30.0073 62.3572 30.372 61.2629C30.372 61.2629 31.0036 62.3154 30.1614 63.859C30.1614 63.859 30.9634 63.5723 31.8264 63.9616C34.0258 64.9368 33.7925 68.069 31.0092 68.8167C27.0483 69.8794 28.4865 72.9435 30.7548 73.1314C30.5112 72.9767 30.4563 72.0532 30.8545 71.5043C31.0536 71.3275 31.409 70.9701 31.6345 71.7215C32.0327 73.0491 33.1951 73.1571 33.7342 72.9912C33.5927 72.8714 33.3278 72.4679 33.3607 72.2352C33.4272 71.7705 34.0077 72.2533 34.2187 72.3129C35.7787 72.7559 36.6081 72.3689 36.6969 72.1352C36.3487 72.0634 36.4096 72.1033 36.1881 72.0476C35.9821 71.995 35.5815 71.7106 36.3323 71.5385C37.7099 71.2225 38.4679 69.8008 37.5605 68.7061C36.6943 67.6596 35.6023 67.8198 35.2478 67.9637C36.7417 68.2855 36.8167 69.4875 36.0555 70.0996C35.3916 70.5979 33.7428 70.7967 33.1784 69.6902C32.8216 69.9482 32.6969 70.3603 32.7581 70.8743C32.6083 70.8184 31.983 69.9288 32.9124 69.1926C37.2225 66.4139 36.5271 61.7444 32.8792 59.8227L32.8341 59.803C29.5249 57.902 26.6296 59.6371 26.6296 59.6371C28.6757 57.5877 32.2114 58.8067 32.7202 59.0611C32.7202 59.0611 32.3134 58.7073 32.0969 58.3825C31.8165 57.9622 31.827 57.5604 31.827 57.5604C30.4237 58.3437 30.0613 57.1401 30.0613 57.1401C30.0613 57.1401 28.8459 58.2357 28.057 57.3448C27.3672 56.5648 28.4839 55.5074 28.4839 55.5074C21.3638 57.8441 22.7132 61.8649 22.7132 61.8649C22.7132 61.8649 21.6821 62.8117 21.4514 65.0944C21.1891 67.6869 22.4805 69.5302 24.0942 69.0237C24.4637 68.9082 24.6471 68.7318 24.7185 68.5373L24.7221 68.5172ZM41.1459 52.6437C41.1498 52.6414 41.1442 77.1186 41.1459 76.805C30.7952 72.959 30.4108 80.0566 17.0541 76.805V52.6437C27.928 56.21 31.6348 48.6575 41.1459 52.6437Z" fill="#BF2F38"/>
</g>
</svg>
