<svg xmlns="http://www.w3.org/2000/svg" width="212" height="104" viewBox="0 0 212 104" fill="none">
<g clip-path="url(#clip0_3519_13571)">
<path d="M81.8968 31.8919H81.3898C81.2201 31.5879 80.967 31.165 80.6305 30.6232C80.2136 30.0018 79.6803 29.4674 79.06 29.0498C78.1861 28.4633 77.23 28.0102 76.2231 27.7054C75.041 27.3164 73.5388 27.1219 71.7166 27.1219C67.4624 27.1219 64.238 28.441 62.0433 31.0793C59.8486 33.7175 58.7513 37.4552 58.7513 42.2922C58.7513 42.7317 58.7678 43.3404 58.8009 44.1185C58.8469 44.9964 58.9572 45.8698 59.131 46.7315C59.3402 47.7716 59.6464 48.7898 60.0457 49.7725C60.4974 50.8913 61.1022 51.9416 61.8427 52.8935C62.2967 53.5216 62.8143 54.101 63.3873 54.6225C64.0009 55.1816 64.6711 55.6749 65.3871 56.0944C66.1723 56.552 67.0155 56.9017 67.8939 57.134C68.9108 57.3988 69.9584 57.5267 71.009 57.5144C72.4029 57.5357 73.7927 57.3567 75.1359 56.9827C77.2491 56.3791 79.1857 55.2736 80.7815 53.7602C81.458 53.118 82.1004 52.4405 82.7058 51.7307L83.271 52.0851L82.7144 57.108C78.8601 59.2391 74.5872 60.3046 69.8958 60.3046C67.5193 60.319 65.1573 59.9333 62.9084 59.1635C60.7907 58.4474 58.8384 57.3118 57.1678 55.8242C55.4865 54.2927 54.1559 52.4147 53.2675 50.3193C52.3053 48.1206 51.8242 45.599 51.8242 42.7547C51.8073 40.3192 52.2102 37.899 53.0151 35.6007C53.7799 33.4131 55.0157 31.4208 56.635 29.7652C58.2558 28.1082 60.3067 26.7977 62.7876 25.8337C65.2684 24.8698 68.1973 24.3878 71.5742 24.3878C73.5806 24.3796 75.5828 24.5751 77.5499 24.9714C79.5733 25.4017 81.5433 26.0541 83.4242 26.9166L81.8968 31.8919Z" fill="#212121"/>
<path d="M89.7965 36.5086C89.7965 34.8847 89.78 33.1427 89.7469 31.2825C89.7138 29.4223 89.5621 27.261 89.2917 24.7986C89.7635 24.8663 90.3883 24.934 91.1664 25.0017C91.9445 25.0694 92.5197 25.1033 92.8922 25.1033C93.4848 25.1024 94.0768 25.0685 94.6655 25.0017L96.4884 24.7986C96.3532 25.7452 96.2432 26.9541 96.1584 28.4252C96.0735 29.8964 96.0145 31.4605 95.9815 33.1175C95.947 34.7745 95.9304 36.4236 95.9319 38.0647V42.4457C95.9319 46.2338 95.9656 49.5233 96.0332 52.3143C96.1008 55.1053 96.2332 57.5317 96.4302 59.5936C95.8549 59.5605 95.2638 59.5014 94.6569 59.4164C94.0694 59.3332 93.4769 59.2906 92.8836 59.2889C92.2739 59.2918 91.6649 59.3343 91.0607 59.4164C90.4193 59.5014 89.8116 59.5605 89.2378 59.5936C89.5082 56.5491 89.6685 53.0312 89.7189 49.0399C89.7692 45.0487 89.7951 40.8716 89.7965 36.5086Z" fill="#212121"/>
<path d="M116.523 52.6428C116.523 54.5707 116.566 56.0339 116.65 57.0324C116.735 58.031 116.811 58.8847 116.877 59.5936L114.7 59.3904C113.991 59.3227 113.488 59.2889 113.19 59.2889C112.733 59.2897 112.277 59.315 111.822 59.3645L109.745 59.5936C109.847 57.6657 109.957 55.7292 110.075 53.784C110.193 51.8388 110.247 49.903 110.237 47.9765L110.185 33.822C110.185 32.8754 110.176 31.9453 110.159 31.0318C110.142 30.1182 110.117 29.1709 110.084 28.1896H107.56C107.459 28.1896 107.104 28.1983 106.496 28.2156C105.888 28.2328 105.187 28.2501 104.395 28.2674C103.601 28.2847 102.774 28.3186 101.914 28.369C101.054 28.4194 100.303 28.4785 99.6597 28.5462C99.9973 27.3177 99.9973 26.0206 99.6597 24.792C100.666 24.8597 101.755 24.9102 102.926 24.9433L106.47 25.0449C107.668 25.0795 108.842 25.0961 109.991 25.0946H113.182C115.309 25.0946 117.486 25.078 119.714 25.0449C121.942 25.0118 124.271 24.9275 126.703 24.792C126.573 25.4277 126.488 26.072 126.451 26.7199C126.451 26.9926 126.476 27.2646 126.527 27.5326C126.576 27.8027 126.634 28.1421 126.703 28.5462C125.185 28.3777 123.564 28.2761 121.841 28.2415C120.118 28.2069 118.379 28.1903 116.625 28.1918C116.59 29.1053 116.565 30.0354 116.549 30.982C116.533 31.9287 116.525 32.8927 116.523 33.8739V52.6471V52.6428Z" fill="#212121"/>
<path d="M147.931 47.8749C147.931 48.9585 147.94 49.9476 147.957 50.8424C147.974 51.7372 147.999 52.6421 148.033 53.557C148.066 54.4706 148.099 55.4071 148.134 56.3668C148.168 57.3264 148.219 58.4006 148.285 59.5893L146.525 59.3861C145.94 59.3192 145.352 59.2853 144.764 59.2845C144.188 59.289 143.612 59.3229 143.038 59.3861C142.393 59.4538 141.832 59.5216 141.356 59.5893C141.389 58.6095 141.423 57.4849 141.457 56.2155C141.492 54.946 141.525 53.6773 141.558 52.4094C141.592 51.1414 141.617 49.9239 141.634 48.7567C141.651 47.5896 141.66 46.617 141.66 45.839L138.672 40.6648C138.031 39.5481 137.296 38.2967 136.469 36.9105C135.642 35.5244 134.795 34.1203 133.928 32.6981C133.065 31.2774 132.213 29.8819 131.372 28.5117C130.53 27.1414 129.788 25.8986 129.143 24.7834C130.088 24.8842 130.873 24.9606 131.499 25.0125C132.125 25.0644 132.724 25.0896 133.296 25.0881C133.903 25.0881 134.561 25.0716 135.27 25.0384C136 25.0027 136.728 24.9182 137.447 24.7855C138.088 26.1731 138.713 27.4922 139.321 28.7429C139.93 29.9936 140.572 31.2789 141.248 32.5987C141.924 33.9171 142.67 35.3292 143.487 36.8349C144.304 38.3406 145.258 40.0401 146.348 41.9335C147.442 40.0762 148.341 38.5106 149.044 37.2369C149.748 35.9632 150.395 34.7456 150.986 33.5843C151.575 32.4172 152.183 31.1571 152.809 29.8041C153.434 28.4511 154.202 26.7768 155.113 24.7812C155.518 24.8489 155.966 24.9167 156.455 24.9844C156.983 25.0548 157.516 25.0887 158.049 25.086C158.464 25.0921 158.878 25.0668 159.289 25.0103C159.592 24.9641 159.889 24.8873 160.176 24.7812L159.138 26.5103C158.649 27.3215 158.126 28.1752 157.568 29.0714C157.01 29.9677 156.49 30.8163 156.008 31.6175C155.519 32.4128 155.173 32.9625 154.97 33.2666C153.82 35.0936 152.741 36.9458 151.734 38.8233C150.728 40.7008 149.679 42.5494 148.589 44.3693C148.419 44.6733 148.268 44.9615 148.134 45.2338C148.008 45.4681 147.939 45.7286 147.931 45.9946V47.8728V47.8749Z" fill="#212121"/>
<path d="M56.3911 65.8161C56.3929 65.4877 56.3778 65.1595 56.3458 64.8327L56.5399 64.8651C56.6013 64.8748 56.6633 64.8798 56.7255 64.8802C56.8199 64.8783 56.9136 64.863 57.0038 64.8348C56.9851 65.051 56.9664 65.3089 56.9477 65.6086C56.929 65.9083 56.9139 66.2296 56.9024 66.5725C56.8894 66.9155 56.8772 67.2677 56.8657 67.6294C56.8542 67.9911 56.8448 68.3419 56.8376 68.682C56.8375 69.0611 56.7733 69.4374 56.6478 69.7951C56.5374 70.1064 56.3624 70.3907 56.1344 70.6293C55.9043 70.8628 55.6239 71.0402 55.3146 71.148C54.9559 71.2714 54.5785 71.3313 54.1993 71.3253C53.2731 71.3253 52.6 71.1149 52.1801 70.6942C51.7601 70.2734 51.5501 69.6085 51.5501 68.6993C51.5501 68.4111 51.558 68.1532 51.5739 67.9255C51.5897 67.6979 51.5976 67.4673 51.5976 67.2339C51.5976 66.7137 51.5911 66.2527 51.5782 65.8506C51.5652 65.4486 51.553 65.1086 51.5415 64.8305C51.6163 64.8435 51.6968 64.8543 51.7831 64.8629C51.8633 64.8723 51.944 64.8773 52.0247 64.8781C52.0912 64.8778 52.1575 64.8727 52.2232 64.8629L52.4217 64.8305C52.4087 64.9659 52.3965 65.1439 52.385 65.3644C52.3735 65.5848 52.3613 65.8341 52.3483 66.1122C52.3354 66.3903 52.326 66.69 52.3203 67.0113C52.3145 67.3326 52.3145 67.6669 52.3203 68.0141C52.3203 68.2245 52.3203 68.4406 52.3203 68.6625C52.3264 68.8799 52.348 69.0966 52.385 69.3109C52.4215 69.5212 52.4823 69.7264 52.5662 69.9226C52.6483 70.1155 52.7695 70.2892 52.9222 70.4326C53.0904 70.5865 53.2888 70.7035 53.5046 70.7763C53.7833 70.8661 54.0749 70.9084 54.3675 70.9017C54.6623 70.9108 54.9558 70.8601 55.2305 70.7525C55.4458 70.665 55.64 70.5323 55.8 70.3635C55.9493 70.2008 56.067 70.0117 56.1473 69.8059C56.2307 69.5968 56.2915 69.3795 56.3285 69.1575C56.3654 68.9301 56.387 68.7005 56.3932 68.4702C56.3932 68.2411 56.3932 68.0307 56.3932 67.8391C56.3976 66.9673 56.3968 66.293 56.3911 65.8161Z" fill="#212121"/>
<path d="M61.724 68.7922C60.9215 67.9277 60.119 67.0696 59.3165 66.218C59.3165 66.391 59.31 66.6229 59.2971 66.914C59.2841 67.2051 59.2841 67.6006 59.2971 68.1006C59.2971 68.2302 59.2971 68.3923 59.2971 68.5825C59.2971 68.7727 59.2971 68.9759 59.2971 69.1855C59.2971 69.3952 59.2971 69.6178 59.31 69.8339C59.323 70.0501 59.323 70.2511 59.3294 70.4369C59.3359 70.6228 59.3424 70.7849 59.3488 70.9232C59.3553 71.0616 59.3618 71.1567 59.3683 71.2064C59.2609 71.1931 59.1528 71.1866 59.0447 71.1869C58.93 71.1865 58.8155 71.193 58.7017 71.2064C58.7146 71.1437 58.7275 71.0291 58.7426 70.8627C58.7578 70.6963 58.7729 70.4953 58.7836 70.264C58.7944 70.0328 58.8095 69.7799 58.8246 69.5076C58.8397 69.2353 58.8527 68.9629 58.8613 68.6906C58.8699 68.4183 58.8786 68.1524 58.885 67.8931C58.8915 67.6337 58.885 67.4003 58.885 67.1971C58.885 66.6035 58.885 66.0934 58.885 65.6669C58.885 65.2404 58.8771 64.922 58.8613 64.7116H59.0102L60.2182 66.0235C60.6497 66.4904 61.0754 66.9515 61.4953 67.4068L62.6991 68.7036C63.0788 69.1085 63.4103 69.4535 63.6936 69.7388V68.4766C63.6936 67.8268 63.6893 67.1942 63.6807 66.579C63.672 65.9637 63.6519 65.3874 63.6203 64.8499C63.7231 64.8776 63.8288 64.8928 63.9352 64.8953C64.0352 64.8917 64.1343 64.8765 64.2308 64.8499C64.2178 64.9854 64.2042 65.1893 64.1898 65.4616C64.1754 65.7339 64.1603 66.0221 64.1445 66.3261C64.1287 66.6359 64.115 66.9392 64.1035 67.236C64.092 67.5328 64.0855 67.7713 64.0841 67.9514V68.509C64.0841 68.7194 64.0841 68.9355 64.0841 69.1574C64.0841 69.3793 64.0841 69.6099 64.0841 69.8491C64.0841 70.0811 64.0841 70.2972 64.0841 70.4975C64.0841 70.6977 64.0841 70.8721 64.0841 71.0205V71.3274H63.9547C63.2701 70.5018 62.5265 69.6567 61.724 68.7922Z" fill="#212121"/>
<path d="M65.961 66.0344C65.9451 65.641 65.9279 65.2404 65.9092 64.8327L66.14 64.8651C66.2875 64.8839 66.4369 64.8839 66.5844 64.8651L66.8152 64.8327C66.7965 65.2404 66.7793 65.641 66.7635 66.0344C66.7476 66.4277 66.7397 66.8283 66.7397 67.2361V68.8311C66.7397 69.2389 66.7476 69.6409 66.7635 70.0371C66.7793 70.4334 66.7965 70.8231 66.8152 71.2064C66.6714 71.1934 66.5204 71.187 66.3622 71.187C66.204 71.187 66.053 71.1934 65.9092 71.2064C65.9279 70.8231 65.9451 70.4334 65.961 70.0371C65.9768 69.6409 65.9847 69.2389 65.9847 68.8311V67.2361C65.9847 66.8326 65.9768 66.432 65.961 66.0344Z" fill="#212121"/>
<path d="M69.8742 69.8901C69.6699 69.3772 69.4542 68.8361 69.227 68.267C68.9998 67.6978 68.7617 67.1164 68.5129 66.5228C68.2684 65.9292 68.0354 65.3665 67.814 64.8348L68.0642 64.8672C68.2182 64.8861 68.374 64.8861 68.528 64.8672L68.7783 64.8348C68.9135 65.2426 69.063 65.6712 69.227 66.1208C69.3909 66.5704 69.5635 67.0264 69.7447 67.4889C69.9274 67.9529 70.1143 68.4233 70.3056 68.9003C70.4969 69.3772 70.6911 69.8505 70.8881 70.3202C70.9988 70.0666 71.1189 69.7835 71.2484 69.4708C71.3778 69.1582 71.5087 68.8333 71.641 68.4961C71.7733 68.1589 71.9042 67.8153 72.0336 67.4651L72.409 66.458C72.5298 66.1366 72.6391 65.8369 72.7369 65.5589C72.8347 65.2808 72.9181 65.0394 72.9871 64.8348C73.2116 64.8966 73.4486 64.8966 73.6732 64.8348C73.1914 65.9111 72.7283 66.9781 72.2839 68.0357C71.8395 69.0933 71.4138 70.1509 71.0067 71.2085C70.9052 71.1955 70.8028 71.189 70.7004 71.1891C70.598 71.1878 70.4956 71.1943 70.3941 71.2085C70.2517 70.8426 70.0784 70.4031 69.8742 69.8901Z" fill="#212121"/>
<path d="M74.7129 66.0192C74.6971 65.623 74.6798 65.2275 74.6611 64.8327L75.4895 64.8651C75.7642 64.8737 76.0404 64.8788 76.3179 64.8802C76.5955 64.8817 76.8702 64.8766 77.142 64.8651L77.9661 64.8327C77.929 65.0167 77.929 65.2063 77.9661 65.3903L77.4246 65.3536L76.9069 65.3168C76.7242 65.3053 76.525 65.2945 76.3093 65.2844C76.0936 65.2743 75.834 65.27 75.5305 65.2714C75.5305 65.4703 75.5226 65.659 75.5068 65.8377C75.491 66.0164 75.4903 66.2195 75.5046 66.4472C75.5046 66.6878 75.5046 66.9227 75.5046 67.1518C75.5046 67.3809 75.5046 67.5538 75.5046 67.6705C75.7765 67.6705 76.0202 67.6705 76.236 67.6705C76.4517 67.6705 76.6494 67.6626 76.8292 67.6467L77.3254 67.6186C77.4764 67.61 77.6202 67.5992 77.7568 67.5862C77.738 67.6809 77.7286 67.7771 77.7288 67.8737C77.7289 67.9673 77.7383 68.0607 77.7568 68.1525C77.5958 68.1337 77.4088 68.1186 77.1959 68.1071C76.9831 68.0955 76.7674 68.0876 76.5488 68.0833H75.9469H75.4982C75.4982 68.1395 75.4982 68.2 75.4982 68.2648C75.4982 68.3297 75.4982 68.4118 75.4982 68.5112V69.4298C75.4982 69.7828 75.4982 70.071 75.4982 70.2943C75.4982 70.5177 75.5025 70.6906 75.5111 70.813H76.1583C76.3927 70.813 76.6228 70.8087 76.8486 70.8001C77.0744 70.7914 77.2901 70.7792 77.4958 70.7633C77.6719 70.7516 77.847 70.7285 78.02 70.6942C78.0068 70.7414 77.9989 70.79 77.9963 70.839C77.9963 70.8923 77.9963 70.9406 77.9963 70.9838C77.9942 71.0654 78.0036 71.1469 78.0243 71.2259C77.7468 71.2129 77.4706 71.2064 77.1959 71.2064H75.5046C75.2271 71.2064 74.9459 71.2129 74.6611 71.2259C74.6798 70.8296 74.6971 70.4355 74.7129 70.0436C74.7287 69.6517 74.7366 69.2511 74.7366 68.8419V67.2469C74.7366 66.8247 74.7287 66.4155 74.7129 66.0192Z" fill="#212121"/>
<path d="M79.3445 66.0343C79.3287 65.641 79.3114 65.2404 79.2927 64.8326L79.8213 64.865C79.9938 64.8737 80.17 64.8787 80.3498 64.8802C80.5296 64.8816 80.7057 64.8737 80.8783 64.8564C81.0509 64.8406 81.2271 64.8326 81.4069 64.8326C81.6554 64.8313 81.9034 64.856 82.1468 64.9061C82.3652 64.9495 82.5736 65.0331 82.7616 65.1525C82.9358 65.2651 83.079 65.4197 83.178 65.6021C83.286 65.8319 83.3382 66.0841 83.3304 66.338C83.3225 66.592 83.2548 66.8404 83.1327 67.0631C83.0067 67.2695 82.8418 67.4493 82.6473 67.5926C82.4591 67.73 82.252 67.8392 82.0325 67.9168C81.8389 67.9879 81.6387 68.0394 81.4349 68.0703L81.7412 68.4593C81.8707 68.6265 82.0145 68.8102 82.1727 69.0105L82.6732 69.6416L83.1737 70.2727C83.3348 70.4744 83.4858 70.6581 83.6267 70.8238C83.7677 70.9895 83.882 71.1163 83.9697 71.2042C83.8775 71.1914 83.7845 71.1849 83.6914 71.1848H83.1456C83.0561 71.1847 82.9667 71.1912 82.8781 71.2042L82.4467 70.6206C82.2583 70.3613 82.0497 70.0832 81.8211 69.7864C81.5924 69.4896 81.3594 69.1942 81.1221 68.9002C80.8848 68.6121 80.6691 68.3628 80.4749 68.1524H80.1233V68.8289C80.1233 69.2367 80.1312 69.6387 80.147 70.0349C80.1628 70.4312 80.1801 70.8209 80.1988 71.2042C80.055 71.1912 79.904 71.1848 79.7458 71.1848C79.5876 71.1848 79.4365 71.1912 79.2927 71.2042C79.3114 70.8209 79.3287 70.4312 79.3445 70.0349C79.3603 69.6387 79.3682 69.2367 79.3682 68.8289V67.236C79.3668 66.8326 79.3589 66.432 79.3445 66.0343ZM80.4102 67.8023C80.5123 67.8023 80.6252 67.8023 80.7489 67.8023C80.9498 67.8013 81.15 67.7796 81.3465 67.7374C81.5483 67.6964 81.7412 67.6196 81.916 67.5105C82.0909 67.4013 82.2385 67.2535 82.3474 67.0782C82.4685 66.8685 82.5276 66.6287 82.5179 66.3866C82.5258 66.1788 82.4797 65.9725 82.3841 65.7879C82.3001 65.6365 82.181 65.5075 82.0368 65.4119C81.8957 65.3195 81.7383 65.2549 81.573 65.2217C81.4112 65.1878 81.2464 65.1705 81.0811 65.1698C80.8654 65.1698 80.6863 65.1741 80.544 65.1828C80.4016 65.1914 80.2815 65.2022 80.1837 65.2152L80.147 66.2267C80.1341 66.561 80.1276 66.8952 80.1276 67.2295V67.7591C80.2199 67.7804 80.3136 67.7948 80.408 67.8023H80.4102Z" fill="#212121"/>
<path d="M85.0204 70.3397C85.1071 70.4576 85.2102 70.5624 85.3267 70.6509C85.4579 70.7486 85.6034 70.8252 85.7582 70.8779C85.9306 70.9388 86.1125 70.9688 86.2953 70.9665C86.484 70.9694 86.6713 70.9334 86.8454 70.8606C87.0023 70.7951 87.1439 70.6977 87.2612 70.5746C87.3786 70.4514 87.4691 70.3052 87.5271 70.1452C87.5897 69.9772 87.6211 69.7992 87.6199 69.62C87.6334 69.3756 87.5566 69.1348 87.4042 68.9435C87.252 68.771 87.0682 68.6294 86.8627 68.5263C86.6361 68.4101 86.4027 68.3076 86.1637 68.2194C85.9189 68.1291 85.6845 68.0124 85.4648 67.8715C85.2494 67.7329 85.0651 67.5511 84.9233 67.3376C84.7681 67.077 84.6931 66.7762 84.7076 66.4731C84.7042 66.2298 84.7512 65.9884 84.8456 65.7642C84.9374 65.5526 85.0753 65.3643 85.2491 65.213C85.4353 65.0529 85.6506 64.9304 85.8833 64.8521C86.1516 64.7622 86.4331 64.7183 86.716 64.7224C86.976 64.717 87.2352 64.7528 87.484 64.8283C87.7027 64.9007 87.9066 65.012 88.0859 65.1568C88.0299 65.2641 87.9837 65.3762 87.9478 65.4919C87.9104 65.61 87.873 65.7584 87.8356 65.9371H87.7235C87.6879 65.8401 87.6461 65.7455 87.5983 65.654C87.5426 65.5483 87.4697 65.4526 87.3826 65.3708C87.2886 65.2819 87.1807 65.209 87.0633 65.1547C86.9236 65.0925 86.7718 65.0622 86.6189 65.0661C86.4562 65.0645 86.2945 65.0931 86.1422 65.1504C86.0014 65.2031 85.8723 65.2831 85.7625 65.3859C85.6537 65.489 85.5683 65.6143 85.5122 65.7534C85.4523 65.9009 85.4223 66.0588 85.4238 66.2181C85.4091 66.4659 85.4859 66.7105 85.6395 66.9053C85.7915 67.0821 85.9751 67.2287 86.181 67.3376C86.4063 67.4566 86.6399 67.5592 86.88 67.6445C87.1232 67.7308 87.3573 67.8408 87.5789 67.973C87.7923 68.1006 87.9767 68.2714 88.1204 68.4745C88.2758 68.7175 88.3512 69.0032 88.3361 69.2914C88.3374 69.5676 88.2854 69.8413 88.183 70.0976C88.0835 70.3479 87.932 70.574 87.7386 70.7611C87.534 70.9545 87.2905 71.1019 87.0245 71.1934C86.7165 71.2999 86.3924 71.3518 86.0667 71.3469C85.7496 71.358 85.4336 71.3059 85.1369 71.1934C84.9227 71.1054 84.7217 70.9883 84.5393 70.8454C84.5898 70.721 84.6288 70.5923 84.6558 70.4607C84.6774 70.3469 84.6975 70.2028 84.7162 70.0285H84.8284C84.882 70.1383 84.9463 70.2425 85.0204 70.3397Z" fill="#212121"/>
<path d="M89.6326 66.0344C89.6168 65.641 89.5995 65.2404 89.5808 64.8327L89.8116 64.8651C89.9592 64.8839 90.1085 64.8839 90.256 64.8651L90.4869 64.8327C90.4682 65.2404 90.4509 65.641 90.4351 66.0344C90.4193 66.4277 90.4114 66.8283 90.4114 67.2361V68.8311C90.4114 69.2389 90.4193 69.6409 90.4351 70.0371C90.4509 70.4334 90.4682 70.8231 90.4869 71.2064C90.3431 71.1934 90.192 71.187 90.0338 71.187C89.8756 71.187 89.7246 71.1934 89.5808 71.2064C89.5995 70.8231 89.6168 70.4334 89.6326 70.0371C89.6484 69.6409 89.6563 69.2389 89.6563 68.8311V67.2361C89.6563 66.8326 89.6484 66.432 89.6326 66.0344Z" fill="#212121"/>
<path d="M93.49 65.3146H92.9852C92.8098 65.3146 92.6336 65.3211 92.4567 65.3341L91.9476 65.3665C91.7836 65.3794 91.6398 65.3946 91.5161 65.4119C91.5443 65.3156 91.5595 65.216 91.5614 65.1158C91.5573 65.0185 91.5421 64.9221 91.5161 64.8283L92.7113 64.8607C93.0996 64.8694 93.4979 64.8744 93.9064 64.8759C94.3148 64.8773 94.7132 64.8723 95.1015 64.8607L96.2967 64.8283C96.2702 64.9249 96.255 65.0243 96.2514 65.1244C96.2536 65.2218 96.2689 65.3185 96.2967 65.4119C96.1672 65.3931 96.0234 65.378 95.8652 65.3665L95.3561 65.3341C95.1806 65.3254 95.0044 65.3189 94.8275 65.3146H94.3227C94.304 65.9515 94.2947 66.5919 94.2947 67.236V68.8311C94.2947 69.2388 94.3026 69.6408 94.3184 70.0371C94.3342 70.4333 94.3515 70.8231 94.3702 71.2064C94.2264 71.1934 94.0754 71.1869 93.9172 71.1869C93.759 71.1869 93.608 71.1934 93.4641 71.2064C93.4828 70.8231 93.5001 70.4333 93.5159 70.0371C93.5317 69.6408 93.5396 69.2388 93.5396 68.8311V67.236C93.5253 66.5919 93.5087 65.9515 93.49 65.3146Z" fill="#212121"/>
<path d="M98.6523 68.1438L98.2532 67.476L97.7937 66.7065L97.3342 65.9371L96.9416 65.2887C96.8236 65.0942 96.7345 64.9501 96.6741 64.8564L96.9286 64.8889C97.0978 64.9077 97.2686 64.9077 97.4378 64.8889L97.6923 64.8564C97.9699 65.3939 98.2525 65.9227 98.5401 66.4429C98.8278 66.963 99.1319 67.5041 99.4527 68.066C99.5965 67.8427 99.7446 67.5984 99.8971 67.3333C100.05 67.0682 100.204 66.7959 100.361 66.5163C100.515 66.2382 100.663 65.9587 100.805 65.6777C100.948 65.3968 101.081 65.123 101.204 64.8564C101.441 64.9184 101.69 64.9184 101.927 64.8564C101.631 65.3074 101.365 65.7159 101.131 66.0819C100.897 66.4479 100.689 66.7786 100.51 67.074C100.33 67.3708 100.172 67.6381 100.037 67.8758C99.9021 68.1136 99.7849 68.3297 99.6856 68.5242C99.6856 68.7533 99.6856 68.9975 99.6856 69.2569C99.6856 69.5162 99.69 69.7713 99.6986 70.022C99.6986 70.2727 99.7065 70.5047 99.7223 70.7179C99.7381 70.9312 99.7489 71.1027 99.7547 71.2323C99.6109 71.2194 99.4598 71.2129 99.3016 71.2129C99.1434 71.2129 98.9924 71.2194 98.8486 71.2323C98.886 70.911 98.9076 70.5213 98.9133 70.0631C98.9191 69.6049 98.9191 69.1258 98.9133 68.6258L98.6523 68.1438Z" fill="#212121"/>
<path d="M105.348 66.6308C105.508 66.235 105.751 65.8787 106.062 65.5869C106.379 65.2963 106.753 65.0754 107.16 64.9385C108.072 64.6413 109.054 64.6413 109.965 64.9385C110.372 65.0755 110.746 65.2964 111.063 65.5869C111.374 65.8787 111.618 66.235 111.777 66.6308C112.116 67.5366 112.116 68.5348 111.777 69.4406C111.62 69.8382 111.376 70.1955 111.062 70.4861C110.749 70.7767 110.375 70.9933 109.967 71.1199C109.053 71.3979 108.077 71.3979 107.163 71.1199C106.755 70.9933 106.381 70.7767 106.067 70.4861C105.754 70.1955 105.51 69.8382 105.353 69.4406C105.012 68.5353 105.011 67.5371 105.348 66.6308ZM110.927 66.7043C110.815 66.3599 110.63 66.0437 110.386 65.7771C110.159 65.5361 109.88 65.3505 109.57 65.2346C108.918 64.9995 108.204 64.9995 107.551 65.2346C107.241 65.3505 106.962 65.5361 106.735 65.7771C106.491 66.0438 106.306 66.36 106.194 66.7043C105.935 67.5729 105.935 68.4985 106.194 69.3671C106.306 69.7114 106.491 70.0276 106.735 70.2943C106.962 70.5353 107.241 70.7209 107.551 70.8368C108.204 71.0721 108.918 71.0721 109.57 70.8368C109.88 70.7209 110.159 70.5353 110.386 70.2943C110.63 70.0278 110.815 69.7115 110.927 69.3671C111.187 68.4978 111.187 67.5714 110.927 66.7022V66.7043Z" fill="#212121"/>
<path d="M113.303 66.0344C113.287 65.641 113.269 65.2404 113.251 64.8327L114.079 64.8651C114.354 64.8737 114.63 64.8788 114.908 64.8802C115.185 64.8817 115.466 64.8766 115.751 64.8651L116.677 64.8327C116.639 65.0167 116.639 65.2063 116.677 65.3903C116.51 65.3716 116.309 65.3543 116.075 65.3384C115.84 65.3226 115.601 65.3103 115.356 65.3017L114.653 65.2779C114.427 65.2779 114.24 65.2779 114.092 65.2779C114.092 65.494 114.088 65.7015 114.079 65.9004C114.071 66.0992 114.071 66.2973 114.079 66.4947C114.079 66.7109 114.079 66.9104 114.079 67.0934C114.079 67.2764 114.079 67.4666 114.079 67.664C114.486 67.664 114.889 67.6575 115.287 67.6446C115.686 67.6316 116.079 67.6071 116.467 67.5711C116.418 67.7536 116.418 67.9461 116.467 68.1287C116.313 68.11 116.139 68.0963 115.945 68.0876L115.339 68.0638C115.129 68.0638 114.913 68.0638 114.692 68.0638H114.071V68.8527C114.071 69.2605 114.078 69.6625 114.094 70.0587C114.11 70.455 114.127 70.8447 114.146 71.228C114.002 71.215 113.851 71.2086 113.693 71.2086C113.535 71.2086 113.384 71.215 113.24 71.228C113.259 70.8447 113.276 70.455 113.292 70.0587C113.308 69.6625 113.315 69.2605 113.315 68.8527V67.2361C113.323 66.8326 113.318 66.432 113.303 66.0344Z" fill="#212121"/>
<path d="M120.508 66.0344C120.492 65.641 120.475 65.2404 120.456 64.8327L120.687 64.8651C120.835 64.8839 120.984 64.8839 121.131 64.8651L121.362 64.8327C121.344 65.2404 121.326 65.641 121.31 66.0344C121.295 66.4277 121.287 66.8283 121.287 67.2361C121.287 68.0156 121.287 68.6913 121.287 69.2634C121.287 69.8354 121.293 70.3469 121.306 70.7979C121.738 70.7979 122.158 70.7936 122.566 70.7849C122.999 70.7733 123.431 70.7379 123.86 70.679C123.838 70.7688 123.827 70.861 123.828 70.9535C123.831 71.0389 123.846 71.1234 123.873 71.2042C123.586 71.1913 123.302 71.1848 123.021 71.1848H121.313C121.038 71.1848 120.75 71.1913 120.45 71.2042C120.468 70.821 120.486 70.4312 120.501 70.035C120.517 69.6387 120.525 69.2367 120.525 68.829V67.2361C120.53 66.8326 120.524 66.432 120.508 66.0344Z" fill="#212121"/>
<path d="M124.906 66.6308C125.066 66.235 125.309 65.8787 125.62 65.5869C125.937 65.2963 126.311 65.0754 126.718 64.9385C127.63 64.6413 128.612 64.6413 129.523 64.9385C129.93 65.0754 130.304 65.2963 130.621 65.5869C130.932 65.8788 131.176 66.235 131.335 66.6308C131.674 67.5366 131.674 68.5348 131.335 69.4406C131.178 69.8382 130.934 70.1955 130.62 70.4861C130.307 70.7767 129.933 70.9933 129.525 71.1199C128.611 71.3979 127.635 71.3979 126.721 71.1199C126.312 70.9939 125.937 70.7775 125.623 70.4869C125.309 70.1962 125.064 69.8387 124.906 69.4406C124.567 68.5348 124.567 67.5366 124.906 66.6308ZM130.485 66.7043C130.373 66.36 130.188 66.0438 129.944 65.7771C129.717 65.5361 129.438 65.3505 129.128 65.2346C128.804 65.1147 128.46 65.0546 128.114 65.0574C127.771 65.055 127.431 65.1151 127.109 65.2346C126.798 65.3465 126.517 65.5284 126.287 65.7663C126.042 66.033 125.858 66.3492 125.745 66.6935C125.486 67.5621 125.486 68.4877 125.745 69.3563C125.858 69.7006 126.042 70.0169 126.287 70.2835C126.514 70.5245 126.793 70.7101 127.102 70.826C127.424 70.9456 127.765 71.0057 128.108 71.0032C128.454 71.0061 128.797 70.9461 129.122 70.826C129.431 70.7101 129.71 70.5245 129.937 70.2835C130.182 70.0169 130.367 69.7006 130.479 69.3563C130.736 68.4902 130.735 67.5678 130.476 66.7022L130.485 66.7043Z" fill="#212121"/>
<path d="M135.82 68.7922C135.018 67.9277 134.215 67.0696 133.413 66.218C133.413 66.391 133.406 66.6229 133.393 66.914C133.38 67.2051 133.38 67.6006 133.393 68.1006C133.393 68.2302 133.393 68.3923 133.393 68.5825C133.393 68.7727 133.393 68.9759 133.393 69.1855C133.393 69.3952 133.393 69.6178 133.406 69.8339C133.419 70.0501 133.419 70.2511 133.426 70.4369C133.432 70.6228 133.439 70.7849 133.445 70.9232C133.452 71.0616 133.458 71.1567 133.464 71.2064C133.357 71.1931 133.249 71.1866 133.141 71.1869C133.026 71.1865 132.912 71.193 132.798 71.2064C132.811 71.1437 132.824 71.0291 132.839 70.8627C132.854 70.6963 132.869 70.4953 132.88 70.264C132.891 70.0328 132.906 69.7799 132.921 69.5076C132.936 69.2353 132.949 68.9629 132.957 68.6906C132.966 68.4183 132.975 68.1524 132.981 67.8931C132.988 67.6337 132.981 67.4003 132.981 67.1971C132.981 66.6035 132.981 66.0934 132.981 65.6669C132.981 65.2404 132.973 64.922 132.957 64.7116H133.106L134.314 66.0235C134.746 66.4904 135.172 66.9515 135.592 67.4068L136.795 68.7036C137.175 69.1085 137.507 69.4535 137.792 69.7388V68.4766C137.792 67.8268 137.788 67.1942 137.779 66.579C137.77 65.9637 137.75 65.3874 137.719 64.8499C137.821 64.8776 137.927 64.8928 138.034 64.8953C138.134 64.8917 138.233 64.8765 138.329 64.8499C138.316 64.9854 138.303 65.1893 138.288 65.4616C138.274 65.7339 138.259 66.0221 138.243 66.3261C138.227 66.6359 138.213 66.9392 138.202 67.236C138.19 67.5328 138.184 67.7713 138.182 67.9514V68.509C138.182 68.7194 138.182 68.9355 138.182 69.1574C138.182 69.3793 138.182 69.6099 138.182 69.8491C138.182 70.0811 138.182 70.2972 138.182 70.4975C138.182 70.6977 138.182 70.8721 138.182 71.0205V71.3274H138.053C137.367 70.5018 136.623 69.6567 135.82 68.7922Z" fill="#212121"/>
<path d="M140.057 66.0344C140.041 65.641 140.024 65.2404 140.005 64.8327L140.704 64.8651C140.936 64.8737 141.169 64.8788 141.403 64.8802C141.638 64.8816 141.871 64.8737 142.102 64.8564C142.334 64.8406 142.567 64.8327 142.801 64.8327C143.275 64.8225 143.746 64.8956 144.195 65.0488C144.554 65.1741 144.879 65.3821 145.144 65.6561C145.398 65.9303 145.583 66.2606 145.685 66.6201C145.804 67.0381 145.862 67.4714 145.856 67.9061C145.872 68.4447 145.763 68.9799 145.537 69.4687C145.344 69.8665 145.065 70.2164 144.721 70.4932C144.398 70.7492 144.025 70.9368 143.627 71.0443C143.255 71.1489 142.871 71.2034 142.484 71.2064C142.274 71.2064 142.067 71.2064 141.863 71.2064C141.658 71.2064 141.451 71.2064 141.241 71.2064H140.62C140.416 71.2064 140.209 71.2129 139.999 71.2258C140.017 70.8426 140.035 70.4528 140.051 70.0566C140.066 69.6603 140.074 69.2583 140.074 68.8506V67.236C140.079 66.8326 140.073 66.432 140.057 66.0344ZM140.896 70.7893C141.07 70.8263 141.247 70.8494 141.425 70.8584C141.648 70.8743 141.876 70.8822 142.111 70.8822C142.454 70.8816 142.795 70.841 143.129 70.7612C143.464 70.6831 143.777 70.5277 144.042 70.3073C144.325 70.0572 144.547 69.7442 144.689 69.393C145.008 68.4816 145.028 67.4916 144.745 66.5682C144.633 66.2534 144.446 65.9712 144.199 65.7469C143.961 65.5429 143.676 65.3997 143.371 65.3298C143.025 65.2494 142.671 65.2103 142.316 65.2131C142.038 65.2131 141.779 65.2224 141.537 65.2412C141.295 65.2599 141.08 65.2815 140.89 65.306C140.871 65.6028 140.857 65.9133 140.849 66.2375C140.84 66.5617 140.836 66.891 140.836 67.2252V68.8203C140.839 69.4961 140.859 70.1553 140.896 70.7979V70.7893Z" fill="#212121"/>
<path d="M147.021 66.6308C147.18 66.235 147.424 65.8787 147.735 65.5869C148.052 65.2963 148.426 65.0754 148.833 64.9385C149.744 64.6413 150.726 64.6413 151.637 64.9385C152.045 65.0754 152.419 65.2963 152.735 65.5869C153.046 65.8788 153.29 66.235 153.45 66.6308C153.788 67.5366 153.788 68.5348 153.45 69.4406C153.292 69.8382 153.048 70.1955 152.735 70.4861C152.422 70.7767 152.047 70.9933 151.64 71.1199C150.725 71.3979 149.749 71.3979 148.835 71.1199C148.427 70.9933 148.053 70.7767 147.74 70.4861C147.427 70.1955 147.182 69.8382 147.025 69.4406C146.685 68.5353 146.683 67.5371 147.021 66.6308ZM152.6 66.7043C152.487 66.36 152.303 66.0438 152.058 65.7771C151.831 65.5361 151.552 65.3505 151.243 65.2346C150.918 65.1147 150.575 65.0546 150.229 65.0574C149.886 65.055 149.545 65.1151 149.223 65.2346C148.919 65.3491 148.645 65.5308 148.421 65.7663C148.176 66.033 147.992 66.3492 147.879 66.6935C147.62 67.5621 147.62 68.4877 147.879 69.3563C147.992 69.7006 148.176 70.0169 148.421 70.2835C148.648 70.5245 148.927 70.7101 149.236 70.826C149.558 70.9456 149.899 71.0057 150.242 71.0032C150.588 71.0061 150.931 70.9461 151.256 70.826C151.565 70.7101 151.844 70.5245 152.071 70.2835C152.316 70.0169 152.5 69.7006 152.613 69.3563C152.867 68.4893 152.863 67.567 152.602 66.7022L152.6 66.7043Z" fill="#212121"/>
<path d="M157.945 68.7922C157.143 67.9277 156.34 67.0696 155.538 66.218C155.538 66.391 155.531 66.6229 155.518 66.914C155.505 67.2051 155.505 67.6006 155.518 68.1006C155.518 68.2302 155.518 68.3923 155.518 68.5825C155.518 68.7727 155.518 68.9759 155.518 69.1855C155.518 69.3952 155.518 69.6178 155.531 69.8339C155.544 70.0501 155.544 70.2511 155.551 70.4369C155.557 70.6228 155.564 70.7849 155.57 70.9232C155.577 71.0616 155.583 71.1567 155.589 71.2064C155.482 71.1931 155.374 71.1866 155.266 71.1869C155.151 71.1865 155.037 71.193 154.923 71.2064C154.936 71.1437 154.949 71.0291 154.964 70.8627C154.979 70.6963 154.994 70.4953 155.005 70.264C155.016 70.0328 155.031 69.7799 155.046 69.5076C155.061 69.2353 155.074 68.9629 155.082 68.6906C155.091 68.4183 155.1 68.1524 155.106 67.8931C155.113 67.6337 155.106 67.4003 155.106 67.1971C155.106 66.6035 155.106 66.0934 155.106 65.6669C155.106 65.2404 155.098 64.922 155.082 64.7116H155.231L156.439 66.0235C156.871 66.4904 157.297 66.9515 157.717 67.4068L158.92 68.7036C159.3 69.1085 159.632 69.4535 159.917 69.7388V68.4766C159.917 67.8268 159.913 67.1942 159.904 66.579C159.895 65.9637 159.875 65.3874 159.844 64.8499C159.946 64.8776 160.052 64.8928 160.159 64.8953C160.259 64.8917 160.358 64.8765 160.454 64.8499C160.441 64.9854 160.428 65.1893 160.413 65.4616C160.399 65.7339 160.384 66.0221 160.368 66.3261C160.352 66.6359 160.338 66.9392 160.327 67.236C160.315 67.5328 160.309 67.7713 160.307 67.9514V68.509C160.307 68.7194 160.307 68.9355 160.307 69.1574C160.307 69.3793 160.307 69.6099 160.307 69.8491C160.307 70.0811 160.307 70.2972 160.307 70.4975C160.307 70.6977 160.307 70.8721 160.307 71.0205V71.3274H160.178C159.492 70.5018 158.748 69.6567 157.945 68.7922Z" fill="#212121"/>
<path d="M123.673 80.1975L124.699 78.7451C125.029 78.2717 125.334 77.8373 125.614 77.4288C125.895 77.0203 126.121 76.681 126.3 76.3957C126.424 76.4298 126.551 76.4487 126.68 76.4519C126.8 76.4496 126.92 76.4307 127.036 76.3957C127.014 76.8885 126.995 77.4418 126.98 78.0578C126.965 78.6738 126.958 79.3027 126.958 79.9511V81.1809C127.174 81.1809 127.377 81.1809 127.573 81.1528C127.769 81.1247 127.927 81.1117 128.052 81.0901C127.978 81.331 127.978 81.5884 128.052 81.8293C127.893 81.8024 127.733 81.785 127.573 81.7774C127.377 81.7774 127.174 81.7623 126.958 81.7623V82.2313C126.958 82.5252 126.958 82.8213 126.98 83.1347C127.001 83.4481 127.008 83.6859 127.023 83.8652C126.876 83.8523 126.71 83.8458 126.533 83.8458C126.356 83.8458 126.192 83.8458 126.041 83.8652C126.058 83.6729 126.076 83.433 126.099 83.1174C126.123 82.8019 126.132 82.5187 126.132 82.2334V81.7601H125.39L124.374 81.7752C124.02 81.7752 123.683 81.7925 123.366 81.8033L122.652 81.8314V81.6283C122.978 81.1679 123.319 80.6859 123.673 80.1888M126.11 77.4159C125.954 77.6334 125.756 77.9108 125.519 78.248L124.784 79.2984C124.529 79.6593 124.29 80.0073 124.063 80.3445C123.836 80.6816 123.66 80.9583 123.532 81.1722H126.134V77.4245H126.112L126.11 77.4159ZM117.503 83.5324C117.689 83.614 117.89 83.656 118.094 83.6556C118.466 83.6653 118.83 83.5471 119.125 83.3206C119.422 83.0852 119.661 82.7851 119.824 82.4431C120.01 82.059 120.143 81.651 120.219 81.2306C120.304 80.7883 120.348 80.3389 120.348 79.8884H120.327C120.161 80.1957 119.922 80.4565 119.63 80.647C119.296 80.8522 118.91 80.9538 118.519 80.9388C118.229 80.9552 117.938 80.9127 117.665 80.8139C117.392 80.7151 117.142 80.562 116.929 80.3639C116.547 79.977 116.355 79.4302 116.355 78.7148C116.351 78.3895 116.411 78.0665 116.53 77.7638C116.64 77.48 116.808 77.2224 117.024 77.0074C117.248 76.7901 117.514 76.6197 117.805 76.5059C118.132 76.3778 118.48 76.3147 118.832 76.3201C119.158 76.3186 119.482 76.378 119.787 76.4951C120.092 76.6145 120.363 76.8067 120.577 77.0549C120.824 77.3468 121.01 77.6857 121.123 78.0513C121.275 78.5334 121.348 79.0371 121.338 79.5426C121.345 80.1304 121.272 80.7163 121.123 81.2846C120.991 81.792 120.772 82.2725 120.475 82.7046C120.208 83.0926 119.855 83.4136 119.444 83.6426C119.017 83.8709 118.539 83.9862 118.055 83.9776C117.878 83.98 117.702 83.9633 117.529 83.9279C117.408 83.9028 117.288 83.871 117.17 83.8328C117.151 83.7507 117.117 83.6491 117.076 83.5324C117.042 83.4281 116.999 83.3269 116.948 83.2298L117.004 83.1974C117.156 83.336 117.33 83.4491 117.518 83.5324M119.91 77.163C119.779 77.0051 119.614 76.8794 119.427 76.7955C119.24 76.7116 119.036 76.6717 118.832 76.6789C118.621 76.6747 118.413 76.7219 118.225 76.8164C118.037 76.911 117.875 77.0499 117.753 77.2213C117.458 77.6603 117.314 78.1842 117.345 78.7127C117.345 79.3611 117.468 79.8236 117.714 80.1045C117.84 80.2443 117.995 80.3542 118.169 80.4263C118.342 80.4985 118.53 80.531 118.717 80.5217C118.959 80.5274 119.197 80.4653 119.405 80.3423C119.601 80.2227 119.77 80.0628 119.899 79.8733C120.038 79.6677 120.143 79.4406 120.208 79.2011C120.277 78.9461 120.312 78.683 120.311 78.4187C120.331 77.9633 120.186 77.516 119.904 77.1587M110.351 80.5757C110.656 80.1541 111.095 79.8492 111.596 79.7112V79.6334C111.444 79.5994 111.298 79.5402 111.165 79.4583C111.016 79.3713 110.883 79.2619 110.768 79.1341C110.644 78.9977 110.547 78.8403 110.479 78.6694C110.402 78.4854 110.364 78.2875 110.366 78.088C110.366 77.8541 110.417 77.623 110.517 77.4115C110.623 77.1974 110.769 77.0064 110.949 76.8496C111.142 76.6788 111.365 76.5461 111.607 76.4584C111.883 76.3578 112.176 76.308 112.47 76.3114C112.795 76.3052 113.118 76.3527 113.428 76.4519C113.664 76.5316 113.883 76.6548 114.075 76.815C114.241 76.9569 114.372 77.1341 114.461 77.3337C114.545 77.5304 114.588 77.7422 114.588 77.9562C114.589 78.3107 114.478 78.6563 114.271 78.9439C114.041 79.2564 113.714 79.4843 113.341 79.5923V79.6701C113.501 79.7022 113.658 79.7485 113.809 79.8084C114.004 79.8855 114.183 79.996 114.34 80.1348C114.518 80.2939 114.665 80.4853 114.772 80.6989C114.899 80.9686 114.961 81.2651 114.951 81.5634C114.955 81.9084 114.888 82.2507 114.754 82.5684C114.631 82.8579 114.449 83.1184 114.219 83.3336C113.991 83.5468 113.721 83.7089 113.425 83.8091C113.116 83.9154 112.791 83.9687 112.463 83.9668C112.132 83.9682 111.802 83.9246 111.482 83.8371C111.191 83.7592 110.92 83.6192 110.688 83.4265C110.465 83.2422 110.286 83.0103 110.164 82.7478C110.031 82.4563 109.966 82.1387 109.972 81.8185C109.969 81.3734 110.099 80.9377 110.345 80.5671M113.609 77.5412C113.568 77.3777 113.494 77.2242 113.393 77.0895C113.293 76.9589 113.166 76.8519 113.02 76.7761C112.85 76.7006 112.666 76.6615 112.481 76.6615C112.295 76.6615 112.111 76.7006 111.941 76.7761C111.794 76.8497 111.666 76.9571 111.568 77.0895C111.468 77.2247 111.394 77.3781 111.352 77.5412C111.308 77.72 111.285 77.9037 111.285 78.088C111.286 78.2716 111.308 78.4545 111.352 78.6327C111.394 78.7979 111.467 78.9535 111.568 79.0909C111.667 79.2225 111.795 79.3297 111.941 79.4043C112.111 79.4798 112.295 79.5189 112.481 79.5189C112.666 79.5189 112.85 79.4798 113.02 79.4043C113.165 79.3279 113.293 79.221 113.393 79.0909C113.495 78.9541 113.568 78.7983 113.609 78.6327C113.654 78.4547 113.676 78.2717 113.676 78.088C113.677 77.9037 113.654 77.7199 113.609 77.5412ZM113.859 80.9993C113.795 80.7861 113.694 80.5862 113.559 80.4093C113.357 80.1595 113.077 79.9852 112.764 79.9142C112.451 79.8433 112.123 79.8799 111.833 80.0181C111.649 80.1113 111.487 80.245 111.361 80.4093C111.225 80.5859 111.123 80.7859 111.059 80.9993C110.916 81.4934 110.916 82.0182 111.059 82.5123C111.123 82.7264 111.225 82.9271 111.361 83.1045C111.562 83.3551 111.843 83.53 112.156 83.6007C112.469 83.6713 112.798 83.6335 113.087 83.4935C113.272 83.4004 113.434 83.2675 113.561 83.1045C113.696 82.9268 113.798 82.7262 113.861 82.5123C114.005 82.0182 114.005 81.4934 113.861 80.9993M105.312 77.7574C105.233 77.6119 105.117 77.4891 104.977 77.4007V77.3229C105.409 77.15 105.84 76.9641 106.272 76.7588C106.703 76.5535 107.135 76.3547 107.514 76.1623L107.592 76.2163C107.563 76.7091 107.541 77.1954 107.525 77.6752C107.51 78.155 107.504 78.6435 107.504 79.1341V81.0015C107.504 81.4943 107.511 81.9762 107.525 82.4474C107.54 82.9186 107.562 83.3818 107.592 83.8371C107.506 83.8239 107.418 83.8173 107.331 83.8177H106.807C106.719 83.8174 106.632 83.8239 106.546 83.8371C106.583 83.3768 106.606 82.9099 106.617 82.4409C106.628 81.9719 106.634 81.4921 106.634 80.9993V77.0441L105.312 77.7574ZM97.6794 76.7415H97.0689C96.8532 76.7415 96.6374 76.7415 96.4346 76.7631C96.2319 76.7848 96.0183 76.7869 95.8198 76.802C95.6214 76.8172 95.4466 76.8366 95.2891 76.8582C95.3236 76.7424 95.3424 76.6225 95.3452 76.5016C95.3399 76.3846 95.3211 76.2685 95.2891 76.1558L96.7302 76.1947C97.199 76.2048 97.6794 76.2098 98.1713 76.2098C98.6631 76.2098 99.142 76.2048 99.608 76.1947L101.049 76.1558C101.016 76.2728 100.997 76.3932 100.993 76.5146C100.996 76.6318 101.015 76.7481 101.049 76.8604C100.892 76.8388 100.717 76.8172 100.521 76.8042C100.324 76.7912 100.117 76.7761 99.9057 76.7653C99.6943 76.7545 99.4743 76.748 99.2715 76.7437H98.6631C98.6415 77.5088 98.6286 78.2804 98.6286 79.0585V80.9799C98.6286 81.4727 98.6394 81.9546 98.6588 82.4323C98.6782 82.9099 98.6976 83.3789 98.7214 83.8393C98.5488 83.8263 98.3676 83.8199 98.1756 83.8199C97.9836 83.8199 97.8002 83.8199 97.6276 83.8393C97.6492 83.3789 97.6708 82.9099 97.688 82.4323C97.7053 81.9546 97.7182 81.4727 97.7182 80.9799V79.0801C97.7182 78.302 97.7074 77.5304 97.6859 76.7653M90.1203 82.817C90.2244 82.9584 90.3487 83.0836 90.4892 83.1887C90.8189 83.4447 91.2263 83.5797 91.6433 83.5713C91.8713 83.5739 92.0974 83.5298 92.3078 83.4416C92.4972 83.3612 92.6683 83.2427 92.8104 83.0937C92.9507 82.9458 93.0594 82.7707 93.1297 82.5793C93.204 82.378 93.2413 82.1649 93.2397 81.9503C93.2548 81.6549 93.1611 81.3642 92.9765 81.1333C92.7947 80.9264 92.575 80.7562 92.3293 80.6319C92.0558 80.4912 91.7742 80.3671 91.4858 80.2602C91.1912 80.1518 90.9092 80.012 90.6445 79.843C90.3869 79.6734 90.1667 79.4527 89.9973 79.1946C89.8068 78.8795 89.7151 78.5143 89.7341 78.1464C89.7292 77.8498 89.7858 77.5554 89.9002 77.2819C90.0116 77.0272 90.1773 76.7999 90.3856 76.6162C90.6104 76.4246 90.8696 76.2779 91.1493 76.1839C91.4731 76.0747 91.813 76.0214 92.1546 76.0261C92.4673 76.0199 92.779 76.0636 93.0779 76.1558C93.3418 76.2421 93.5881 76.3754 93.8049 76.5492C93.7374 76.6788 93.6811 76.8141 93.6366 76.9533C93.5913 77.096 93.5482 77.2754 93.5029 77.4893H93.3691C93.3259 77.3725 93.2755 77.2584 93.2181 77.1479C93.152 77.0206 93.0653 76.9052 92.9614 76.8064C92.848 76.6995 92.7184 76.6112 92.5774 76.5449C92.4087 76.4691 92.225 76.4329 92.0403 76.4389C91.8452 76.436 91.6512 76.4697 91.4686 76.5384C91.2995 76.6027 91.1443 76.6988 91.0112 76.8215C90.8806 76.9471 90.7777 77.0988 90.7092 77.2667C90.6385 77.444 90.6033 77.6335 90.6057 77.8244C90.5887 78.123 90.6816 78.4175 90.8667 78.6521C91.05 78.8593 91.2693 79.0313 91.5139 79.16C91.7859 79.3026 92.0678 79.4254 92.3574 79.5275C92.6501 79.6321 92.9319 79.7653 93.1987 79.9252C93.4539 80.079 93.6743 80.2843 93.8459 80.5282C94.0343 80.8202 94.1263 81.1642 94.1091 81.5116C94.1109 81.8448 94.0479 82.1751 93.9236 82.4842C93.8033 82.7854 93.621 83.0579 93.3886 83.2838C93.1419 83.5189 92.8476 83.698 92.5256 83.8091C92.1546 83.9376 91.7641 84.0004 91.3715 83.9949C90.989 84.0083 90.6076 83.9451 90.2497 83.8091C89.9922 83.7038 89.7505 83.5634 89.5313 83.3919C89.5905 83.2411 89.6374 83.0857 89.6716 82.9272C89.6974 82.7889 89.7212 82.6117 89.7427 82.3955H89.8765C89.9411 82.5408 90.0214 82.6785 90.116 82.8062M84.0367 77.6017C84.018 77.1248 83.9979 76.6486 83.9763 76.1731L84.9751 76.212C85.3052 76.212 85.6396 76.2271 85.974 76.2271C86.3083 76.2271 86.6384 76.2271 86.9685 76.212L87.9608 76.1731C87.939 76.2834 87.9282 76.3956 87.9285 76.5081C87.9286 76.6206 87.9394 76.7327 87.9608 76.8431L87.3136 76.7977L86.6859 76.7545C86.4701 76.7394 86.2285 76.7264 85.9675 76.7134C85.7065 76.7005 85.3958 76.6983 85.0312 76.6983C85.0312 76.9382 85.0161 77.163 85.0032 77.3791C84.9902 77.5953 84.9859 77.8416 84.9859 78.1161C84.9859 78.3906 84.9859 78.691 84.9859 78.9655C84.9859 79.24 84.9859 79.4497 84.9859 79.5923C85.3138 79.5923 85.6072 79.5923 85.8683 79.5793C86.1293 79.5664 86.3666 79.5642 86.5802 79.5534L87.1777 79.521C87.3589 79.508 87.5337 79.4972 87.6955 79.4799C87.6735 79.5939 87.6627 79.7097 87.6631 79.8257C87.663 79.9382 87.6738 80.0504 87.6955 80.1607C87.5028 80.1391 87.2784 80.1211 87.0224 80.1067C86.7664 80.0923 86.5097 80.0822 86.2523 80.0764H85.5274H84.9859C84.9859 80.1456 84.9859 80.2169 84.9859 80.2926C84.9859 80.3682 84.9859 80.4698 84.9859 80.5887V81.6953C84.9859 82.1189 84.9859 82.4683 84.9859 82.7435C84.9859 83.018 84.9859 83.2298 85.001 83.3703H85.782C86.0667 83.3703 86.3429 83.3703 86.6147 83.353C86.8865 83.3357 87.1432 83.3292 87.3848 83.3098C87.5956 83.2948 87.8053 83.2667 88.0126 83.2255C87.9979 83.282 87.9892 83.34 87.9867 83.3984C87.9867 83.4632 87.9867 83.5194 87.9867 83.5713C87.9849 83.6688 87.9958 83.7662 88.0191 83.8609C87.6854 83.8465 87.3525 83.84 87.0203 83.8415H84.9946C84.6602 83.8415 84.3215 83.8415 83.9785 83.8609C84.0001 83.3876 84.0216 82.9099 84.0389 82.4388C84.0561 81.9676 84.0691 81.4813 84.0691 80.9907V79.0671C84.0691 78.5772 84.059 78.0931 84.0389 77.6147" fill="#B0292B"/>
<path d="M79.0316 80.8307H51.5133C51.4169 80.8099 51.3305 80.7566 51.2686 80.6797C51.2066 80.6028 51.1729 80.507 51.1729 80.4082C51.1729 80.3094 51.2066 80.2136 51.2686 80.1367C51.3305 80.0598 51.4169 80.0065 51.5133 79.9856H79.0316C79.0946 79.972 79.1598 79.9727 79.2224 79.9876C79.285 80.0025 79.3436 80.0313 79.3937 80.0718C79.4438 80.1123 79.4842 80.1636 79.5119 80.2218C79.5397 80.28 79.5541 80.3437 79.5541 80.4082C79.5541 80.4727 79.5397 80.5364 79.5119 80.5946C79.4842 80.6528 79.4438 80.704 79.3937 80.7445C79.3436 80.7851 79.285 80.8138 79.2224 80.8287C79.1598 80.8437 79.0946 80.8443 79.0316 80.8307Z" fill="#B0292B"/>
<path d="M160.486 80.8437H132.968C132.854 80.8437 132.744 80.7981 132.663 80.7171C132.582 80.636 132.537 80.5261 132.537 80.4114C132.537 80.2968 132.582 80.1868 132.663 80.1058C132.744 80.0247 132.854 79.9792 132.968 79.9792H160.486C160.601 79.9792 160.711 80.0247 160.792 80.1058C160.872 80.1868 160.918 80.2968 160.918 80.4114C160.918 80.5261 160.872 80.636 160.792 80.7171C160.711 80.7981 160.601 80.8437 160.486 80.8437Z" fill="#B0292B"/>
<path d="M160.569 19.9118H51.4315C51.317 19.9118 51.2073 19.8662 51.1264 19.7852C51.0455 19.7041 51 19.5941 51 19.4795C51 19.3649 51.0455 19.2549 51.1264 19.1738C51.2073 19.0928 51.317 19.0472 51.4315 19.0472H160.569C160.683 19.0472 160.793 19.0928 160.874 19.1738C160.955 19.2549 161 19.3649 161 19.4795C161 19.5941 160.955 19.7041 160.874 19.7852C160.793 19.8662 160.683 19.9118 160.569 19.9118Z" fill="#B0292B"/>
</g>
<defs>
<clipPath id="clip0_3519_13571">
<rect width="110" height="64.9606" fill="white" transform="translate(51 19.0472)"/>
</clipPath>
</defs>
</svg>
