<svg xmlns="http://www.w3.org/2000/svg" width="564" height="349" viewBox="0 0 564 349" fill="none">
<g clip-path="url(#clip0_21_2605)">
<path d="M82 342.585H482" stroke="#263238" stroke-linecap="round" stroke-linejoin="round"/>
<path d="M389.834 207.652V207.755C389.834 207.922 389.871 208.099 389.945 208.285C390.361 210.323 390.672 212.381 390.875 214.451C391.052 216.228 391.192 218.256 391.229 220.516C391.317 225.739 390.959 230.961 390.159 236.123C389.955 237.481 389.713 238.914 389.424 240.346C388.969 242.709 388.411 245.183 387.722 247.741C387.415 248.931 387.062 250.15 386.69 251.377L386.253 252.875C386.085 253.479 385.918 254.084 385.76 254.735C384.691 258.867 383.837 263.052 383.202 267.273C382.411 272.528 381.918 277.746 381.649 282.685C381.286 289.271 381.304 295.354 381.463 300.358C381.458 300.441 381.458 300.525 381.463 300.609C381.63 305.697 381.946 309.687 382.16 311.956C382.281 313.286 382.365 314.04 382.374 314.086" stroke="#263238" stroke-linecap="round" stroke-linejoin="round"/>
<path d="M389.861 207.782C388.469 206.545 386.791 205.672 384.978 205.243L389.861 207.782Z" fill="white"/>
<path d="M389.861 207.782C388.469 206.545 386.791 205.672 384.978 205.243" stroke="#263238" stroke-linecap="round" stroke-linejoin="round"/>
<path d="M390.903 214.479L393.377 212.238" stroke="#263238" stroke-linecap="round" stroke-linejoin="round"/>
<path d="M387.75 247.75C387.62 247.097 387.427 246.458 387.173 245.843C386.807 244.941 386.308 244.097 385.694 243.341C385.236 242.773 384.715 242.258 384.141 241.806" stroke="#263238" stroke-linecap="round" stroke-linejoin="round"/>
<path d="M385.769 254.726C386.12 253.857 386.645 253.07 387.312 252.412C387.979 251.755 388.774 251.241 389.648 250.903" stroke="#263238" stroke-linecap="round" stroke-linejoin="round"/>
<path d="M381.472 289.326C382.3 288.322 382.923 284.518 383.258 282.471C383.341 281.988 383.406 281.541 383.472 281.272" fill="white"/>
<path d="M381.472 289.326C382.3 288.322 382.923 284.518 383.258 282.471C383.341 281.988 383.406 281.541 383.472 281.272" stroke="#263238" stroke-linecap="round" stroke-linejoin="round"/>
<path d="M375.1 296.228C375.376 296.2 375.653 296.2 375.928 296.228C377.147 296.346 378.31 296.794 379.293 297.523C380.276 298.253 381.042 299.236 381.509 300.367" fill="white"/>
<path d="M375.1 296.228C375.376 296.2 375.653 296.2 375.928 296.228C377.147 296.346 378.31 296.794 379.293 297.523C380.276 298.253 381.042 299.236 381.509 300.367" stroke="#263238" stroke-linecap="round" stroke-linejoin="round"/>
<path d="M389.452 240.421C389.452 240.421 389.889 225.325 381.602 219.846" stroke="#263238" stroke-linecap="round" stroke-linejoin="round"/>
<path d="M390.159 272.78C391.247 276.305 383.648 283.011 383.648 283.011C383.648 283.011 373.612 281.755 372.487 278.239C371.361 274.724 373.938 268.938 378.812 267.45C383.686 265.962 389.108 269.254 390.159 272.78Z" fill="#B75400"/>
<path d="M398.614 230.059C397.684 233.779 390.466 236.449 390.466 236.449C390.466 236.449 385.509 230.654 386.439 226.915C387.369 223.176 391.378 219.065 394.745 219.93C398.112 220.795 399.581 226.32 398.614 230.059Z" fill="#B75400"/>
<path d="M369.789 285.931C374.301 287.68 377.063 295.661 377.063 295.661C377.063 295.661 369.622 299.669 365.12 297.911C360.618 296.154 355.819 291.205 357.121 287.903C358.423 284.601 365.278 284.136 369.789 285.931Z" fill="#B75400"/>
<path d="M379.677 242.03C380.59 242.797 381.636 243.39 382.765 243.778C383.331 243.962 383.937 243.986 384.516 243.848C385.095 243.71 385.625 243.416 386.048 242.997C386.978 241.89 386.755 240.207 386.15 238.821C384.941 236.17 380.495 231.659 377.082 232.952C372.152 234.84 377.481 240.421 379.677 242.03Z" fill="#B75400"/>
<path d="M389.769 248.792C389.117 249.592 388.429 250.605 388.792 251.582C388.994 251.992 389.326 252.324 389.737 252.526C390.147 252.728 390.613 252.788 391.061 252.698C391.954 252.486 392.787 252.076 393.498 251.498C395.238 250.289 398.809 247.778 396.531 245.387C394.252 242.997 391.089 247.108 389.769 248.792Z" fill="#B75400"/>
<path d="M375.212 215.056C374.837 215.078 374.477 215.217 374.185 215.454C373.893 215.691 373.683 216.014 373.584 216.377C373.436 217.242 374.152 217.995 374.84 218.525C376.57 219.865 381.769 223.455 382.923 219.986C384.02 216.712 377.5 214.805 375.212 215.056Z" fill="#B75400"/>
<path d="M384.783 203.653C383.713 203.755 382.644 203.364 381.565 203.429C380.486 203.495 379.305 204.36 379.537 205.42C379.77 206.48 380.969 206.713 381.955 206.769C383.653 206.878 385.357 206.762 387.025 206.424C387.419 206.387 387.785 206.201 388.048 205.904C388.485 205.262 387.797 204.406 387.052 204.183C386.289 204.081 385.537 203.901 384.811 203.643L384.783 203.653Z" fill="#B75400"/>
<path d="M395.256 211.029C396.326 211.029 397.368 210.601 398.447 210.591C399.526 210.582 400.772 211.373 400.595 212.452C400.418 213.531 399.265 213.838 398.279 213.958C396.594 214.182 394.886 214.182 393.201 213.958C392.802 213.949 392.422 213.786 392.14 213.503C391.666 212.898 392.299 211.996 393.015 211.717C393.773 211.575 394.513 211.347 395.219 211.038L395.256 211.029Z" fill="#B75400"/>
<path d="M394.196 290.294C394.442 290.037 394.772 289.875 395.126 289.838C395.365 289.861 395.589 289.966 395.758 290.136C395.928 290.306 396.034 290.529 396.056 290.768C396.108 291.228 396.05 291.693 395.889 292.126C395.154 294.572 386.969 312.235 385.081 309.064C383.974 307.203 386.709 300.981 387.518 299.223C389.062 295.793 391.342 292.744 394.196 290.294Z" fill="#B75400"/>
<path d="M390.206 208.796C390.206 208.796 389.713 204.508 390.745 204.146" stroke="#263238" stroke-linecap="round" stroke-linejoin="round"/>
<path d="M389.294 204.322C389.822 202.808 390.732 201.456 391.936 200.397C393.229 199.467 395.303 199.393 396.242 200.686C397.293 202.127 396.242 204.313 394.633 205.085C393.024 205.857 391.127 205.625 389.359 205.373C389.359 205.113 389.359 204.853 389.359 204.592L389.294 204.322Z" fill="#B75400"/>
<path d="M393.703 342.371C384.935 343.85 375.981 343.85 367.213 342.371L356.907 311.966H404.009L393.703 342.371Z" fill="white" stroke="#263238" stroke-linecap="round" stroke-linejoin="round"/>
<path d="M213.947 122.695V122.797C213.984 122.964 214.022 123.141 214.059 123.327C214.48 125.364 214.791 127.423 214.989 129.494C215.166 131.27 215.296 133.298 215.342 135.558C215.438 140.768 215.089 145.977 214.301 151.128C214.096 152.486 213.854 153.919 213.566 155.351C213.11 157.714 212.543 160.188 211.864 162.746C211.547 163.936 211.203 165.155 210.831 166.383C210.682 166.885 210.534 167.378 210.394 167.88C210.255 168.382 210.05 169.089 209.892 169.74" stroke="#263238" stroke-linecap="round" stroke-linejoin="round"/>
<path d="M213.966 122.825C213.298 122.241 212.569 121.732 211.789 121.309C210.93 120.856 210.018 120.512 209.073 120.286" fill="white"/>
<path d="M213.966 122.825C213.298 122.241 212.569 121.732 211.789 121.309C210.93 120.856 210.018 120.512 209.073 120.286" stroke="#263238" stroke-linecap="round" stroke-linejoin="round"/>
<path d="M215.007 129.522L217.491 127.28" stroke="#263238" stroke-linecap="round" stroke-linejoin="round"/>
<path d="M211.864 162.792C211.731 162.139 211.535 161.5 211.278 160.886C210.911 159.983 210.413 159.14 209.799 158.383C209.34 157.815 208.819 157.3 208.245 156.849" stroke="#263238" stroke-linecap="round" stroke-linejoin="round"/>
<path d="M209.883 169.731C210.23 168.862 210.752 168.074 211.418 167.416C212.084 166.758 212.878 166.245 213.752 165.908" stroke="#263238" stroke-linecap="round" stroke-linejoin="round"/>
<path d="M205.576 204.369C206.404 203.364 207.036 199.56 207.371 197.514C207.445 197.03 207.52 196.584 207.576 196.314" fill="white"/>
<path d="M205.576 204.369C206.404 203.364 207.036 199.56 207.371 197.514C207.445 197.03 207.52 196.584 207.576 196.314" stroke="#263238" stroke-linecap="round" stroke-linejoin="round"/>
<path d="M199.205 211.233C199.483 211.205 199.763 211.205 200.042 211.233C201.259 211.355 202.421 211.804 203.403 212.532C204.386 213.261 205.153 214.243 205.622 215.372" fill="white"/>
<path d="M199.205 211.233C199.483 211.205 199.763 211.205 200.042 211.233C201.259 211.355 202.421 211.804 203.403 212.532C204.386 213.261 205.153 214.243 205.622 215.372" stroke="#263238" stroke-linecap="round" stroke-linejoin="round"/>
<path d="M213.557 155.426C213.557 155.426 214.003 140.33 205.706 134.851" stroke="#263238" stroke-linecap="round" stroke-linejoin="round"/>
<path d="M214.31 187.822C215.389 191.347 207.799 198.053 207.799 198.053C207.799 198.053 197.754 196.798 196.637 193.282C195.521 189.766 198.098 183.981 202.962 182.492C207.827 181.004 213.222 184.306 214.31 187.822Z" fill="#B75400"/>
<path d="M222.737 145.101C221.807 148.822 214.589 151.491 214.589 151.491C214.589 151.491 209.576 145.697 210.543 141.958C211.51 138.218 215.472 134.107 218.84 134.972C222.207 135.837 223.667 141.362 222.737 145.101Z" fill="#B75400"/>
<path d="M193.903 200.974C198.414 202.732 201.186 210.703 201.186 210.703C201.186 210.703 193.745 214.712 189.234 212.954C184.723 211.196 179.932 206.248 181.244 202.946C182.555 199.644 189.383 199.216 193.903 200.974Z" fill="#B75400"/>
<path d="M203.79 157.072C204.7 157.84 205.744 158.432 206.869 158.821C207.435 159.004 208.041 159.028 208.62 158.89C209.199 158.753 209.729 158.458 210.152 158.039C211.082 156.933 210.859 155.249 210.255 153.863C209.045 151.212 204.609 146.701 201.186 147.994C196.265 149.864 201.586 155.444 203.79 157.072Z" fill="#B75400"/>
<path d="M213.873 163.843C213.231 164.643 212.543 165.704 212.896 166.634C213.098 167.044 213.431 167.376 213.841 167.578C214.251 167.78 214.717 167.84 215.166 167.75C216.058 167.54 216.892 167.13 217.602 166.55C219.342 165.35 222.913 162.83 220.635 160.439C218.356 158.049 215.24 162.151 213.873 163.843Z" fill="#B75400"/>
<path d="M199.316 130.098C198.941 130.122 198.583 130.261 198.291 130.498C197.999 130.735 197.789 131.057 197.689 131.419C197.54 132.284 198.256 133.038 198.953 133.568C200.684 134.907 205.874 138.497 207.036 135.028C208.125 131.754 201.614 129.847 199.316 130.098Z" fill="#B75400"/>
<path d="M208.887 118.695C207.818 118.797 206.748 118.407 205.678 118.472C204.609 118.537 203.409 119.402 203.651 120.462C203.893 121.523 205.074 121.755 206.069 121.811C207.763 121.92 209.465 121.804 211.129 121.467C211.526 121.43 211.895 121.244 212.161 120.946C212.589 120.304 211.901 119.448 211.166 119.225C210.399 119.124 209.645 118.943 208.915 118.686L208.887 118.695Z" fill="#B75400"/>
<path d="M219.36 126.071C220.439 126.071 221.481 125.643 222.551 125.634C223.62 125.625 224.876 126.415 224.709 127.494C224.541 128.573 223.369 128.88 222.383 129.001C220.698 129.224 218.99 129.224 217.305 129.001C216.906 128.992 216.526 128.828 216.244 128.545C215.77 127.941 216.403 127.038 217.128 126.759C217.886 126.615 218.625 126.387 219.333 126.08L219.36 126.071Z" fill="#B75400"/>
<path d="M218.3 205.336C218.547 205.08 218.877 204.919 219.23 204.88C219.467 204.908 219.688 205.015 219.857 205.184C220.026 205.353 220.133 205.574 220.16 205.811C220.208 206.271 220.148 206.736 219.984 207.169C219.258 209.615 211.064 227.278 209.185 224.106C208.069 222.246 210.803 216.023 211.612 214.265C213.159 210.834 215.443 207.786 218.3 205.336Z" fill="#B75400"/>
<path d="M214.31 123.857C214.31 123.857 213.817 119.569 214.859 119.207" stroke="#263238" stroke-linecap="round" stroke-linejoin="round"/>
<path d="M213.436 119.365C213.956 117.847 214.867 116.493 216.077 115.44C217.37 114.51 219.435 114.435 220.374 115.728C221.425 117.17 220.374 119.356 218.765 120.128C217.156 120.9 215.268 120.667 213.501 120.416C213.501 120.155 213.501 119.895 213.501 119.635L213.436 119.365Z" fill="#B75400"/>
<path d="M96.1004 225.511V133.605" stroke="#263238" stroke-linecap="round" stroke-linejoin="round"/>
<path d="M383.044 225.511H371.687" stroke="#263238" stroke-linecap="round" stroke-linejoin="round"/>
<path d="M472.103 225.511H448.971" stroke="#263238" stroke-linecap="round" stroke-linejoin="round"/>
<path d="M370.645 85.8898H411.636V46.8431" stroke="#263238" stroke-linecap="round" stroke-linejoin="round"/>
<path d="M131.733 73.9656H175.282V105.729H223.016" stroke="#263238" stroke-linecap="round" stroke-linejoin="round"/>
<path d="M106.043 181.534V111.347" stroke="#263238" stroke-linecap="round" stroke-linejoin="round"/>
<path d="M125.502 80.8857V135.893" stroke="#263238" stroke-linecap="round" stroke-linejoin="round"/>
<path d="M144.951 80.8857V129.513" stroke="#263238" stroke-linecap="round" stroke-linejoin="round"/>
<path d="M164.399 80.8857V165.946" stroke="#263238" stroke-linecap="round" stroke-linejoin="round"/>
<path d="M257.57 68.8219V12.8936H336.751V68.8219" stroke="#263238" stroke-linecap="round" stroke-linejoin="round"/>
<path d="M263.374 40.6764V19.5347H278.014" stroke="#263238" stroke-linecap="round" stroke-linejoin="round"/>
<path d="M281.232 40.6764V19.5347H295.873" stroke="#263238" stroke-linecap="round" stroke-linejoin="round"/>
<path d="M299.091 40.6764V19.5347H313.731" stroke="#263238" stroke-linecap="round" stroke-linejoin="round"/>
<path d="M316.949 40.6764V19.5347H331.589" stroke="#263238" stroke-linecap="round" stroke-linejoin="round"/>
<path d="M263.374 68.8219V47.6802H278.014" stroke="#263238" stroke-linecap="round" stroke-linejoin="round"/>
<path d="M281.232 68.8219V47.6802H295.873" stroke="#263238" stroke-linecap="round" stroke-linejoin="round"/>
<path d="M299.091 68.8219V47.6802H313.731" stroke="#263238" stroke-linecap="round" stroke-linejoin="round"/>
<path d="M316.949 68.8219V47.6802H331.589" stroke="#263238" stroke-linecap="round" stroke-linejoin="round"/>
<path d="M417.979 51.6798V121.765" stroke="#263238" stroke-linecap="round" stroke-linejoin="round"/>
<path d="M446.729 220.376H448.971" stroke="#263238" stroke-linecap="round" stroke-linejoin="round"/>
<path d="M435.215 71.8076V150.273" stroke="#263238" stroke-linecap="round" stroke-linejoin="round"/>
<path d="M452.459 200.342V220.376H466.216" stroke="#263238" stroke-linecap="round" stroke-linejoin="round"/>
<path d="M452.459 97.3861V150.673" stroke="#263238" stroke-linecap="round" stroke-linejoin="round"/>
<path d="M469.694 137.819V220.376H472.829" stroke="#263238" stroke-linecap="round" stroke-linejoin="round"/>
<path d="M259.654 227.194H82V342.585H259.654V227.194Z" fill="white" stroke="#263238" stroke-linecap="round" stroke-linejoin="round"/>
<path d="M82 227.194L170.827 284.89L259.654 227.194H82Z" fill="white" stroke="#263238" stroke-linecap="round" stroke-linejoin="round"/>
<path d="M144.123 267.543L82 342.585" stroke="#263238" stroke-linecap="round" stroke-linejoin="round"/>
<path d="M198.014 267.543L260.137 342.585" stroke="#263238" stroke-linecap="round" stroke-linejoin="round"/>
<path d="M354.722 79.9554H313.424C312.235 79.9569 311.067 80.2768 310.043 80.882C309.019 81.4872 308.176 82.3556 307.602 83.3969C306.587 85.2284 305.1 86.7549 303.296 87.8178C301.492 88.8807 299.436 89.4413 297.342 89.4413C295.248 89.4413 293.193 88.8807 291.389 87.8178C289.584 86.7549 288.098 85.2284 287.083 83.3969C286.513 82.3421 285.668 81.4611 284.638 80.8471C283.608 80.2331 282.432 79.9089 281.232 79.9089H239.981C238.849 79.8942 237.725 80.1026 236.673 80.5224C235.622 80.9421 234.663 81.5649 233.852 82.3552C233.041 83.1455 232.393 84.0878 231.946 85.1284C231.5 86.1689 231.262 87.2873 231.248 88.4196V321.341C231.279 323.627 232.217 325.807 233.854 327.403C235.492 328.999 237.695 329.879 239.981 329.852H354.722C357.009 329.879 359.213 328.999 360.852 327.404C362.491 325.808 363.43 323.628 363.465 321.341V88.4661C363.433 86.1784 362.494 83.997 360.855 82.4012C359.215 80.8053 357.009 79.9256 354.722 79.9554Z" fill="#E0E0E0"/>
<path d="M367.492 85.8896C367.497 84.3206 367.193 82.766 366.595 81.315C365.998 79.864 365.121 78.5451 364.013 77.4339C362.905 76.3227 361.589 75.441 360.14 74.8394C358.691 74.2379 357.137 73.9282 355.568 73.9282H239.145C237.579 73.927 236.029 74.2343 234.582 74.8325C233.135 75.4308 231.821 76.3082 230.713 77.4147C229.606 78.5213 228.728 79.8352 228.128 81.2813C227.529 82.7275 227.22 84.2776 227.22 85.8431V330.643C227.22 333.803 228.476 336.833 230.71 339.068C232.945 341.302 235.975 342.557 239.135 342.557H355.568C358.729 342.557 361.761 341.302 363.997 339.068C366.233 336.834 367.49 333.803 367.492 330.643V85.8896ZM363.465 321.341C363.431 323.628 362.491 325.808 360.852 327.404C359.213 328.999 357.009 329.879 354.722 329.852H239.982C237.696 329.879 235.492 328.999 233.855 327.403C232.217 325.807 231.28 323.627 231.248 321.341V88.4661C231.262 87.3338 231.5 86.2154 231.947 85.1749C232.393 84.1343 233.041 83.192 233.852 82.4017C234.663 81.6114 235.622 80.9886 236.674 80.5689C237.725 80.1491 238.849 79.9407 239.982 79.9554H281.251C282.449 79.9551 283.625 80.2792 284.653 80.8933C285.682 81.5074 286.525 82.3887 287.093 83.4434C288.107 85.2749 289.594 86.8014 291.398 87.8643C293.202 88.9272 295.258 89.4878 297.352 89.4878C299.446 89.4878 301.501 88.9272 303.306 87.8643C305.11 86.8014 306.596 85.2749 307.611 83.4434C308.184 82.4008 309.027 81.5313 310.051 80.9259C311.076 80.3205 312.244 80.0014 313.434 80.0019H354.731C355.863 79.9872 356.988 80.1956 358.039 80.6154C359.091 81.0351 360.05 81.6579 360.861 82.4482C361.672 83.2385 362.319 84.1808 362.766 85.2214C363.213 86.2619 363.45 87.3803 363.465 88.5126V321.341Z" fill="#263238"/>
<path opacity="0.2" d="M327.934 73.9655L250.594 342.576L281.307 342.548L355.782 73.9655H327.934Z" fill="white"/>
<path opacity="0.2" d="M316.4 73.9655L234.633 342.585L239.107 342.558L319.34 73.9655H316.4Z" fill="white"/>
<path d="M318.214 273.654C318.271 276.316 317.795 278.963 316.813 281.439C315.832 283.915 314.365 286.169 312.499 288.069C310.632 289.969 308.405 291.476 305.947 292.502C303.49 293.528 300.852 294.051 298.189 294.042C292.755 294.021 287.544 291.878 283.669 288.069C279.794 284.259 277.561 279.086 277.447 273.654C277.391 270.992 277.868 268.346 278.85 265.871C279.832 263.397 281.3 261.144 283.166 259.245C285.032 257.346 287.259 255.84 289.716 254.814C292.173 253.789 294.81 253.266 297.472 253.275C302.905 253.293 308.116 255.435 311.991 259.242C315.867 263.05 318.1 268.222 318.214 273.654Z" fill="white" stroke="#263238" stroke-linecap="round" stroke-linejoin="round"/>
<path d="M291.148 288.871C289.254 288.171 287.519 287.102 286.041 285.727C284.552 284.296 283.398 282.552 282.665 280.621C281.829 278.456 281.415 276.151 281.446 273.831C281.435 271.852 281.785 269.889 282.479 268.036C283.11 266.325 284.056 264.747 285.269 263.385C287.66 260.77 290.748 258.892 294.17 257.972C295.851 257.519 297.583 257.291 299.323 257.293C300.768 257.286 302.208 257.458 303.611 257.805C304.965 258.137 306.26 258.673 307.453 259.395C308.633 260.104 309.692 260.999 310.587 262.046C311.52 263.174 312.233 264.468 312.689 265.859C313.211 267.447 313.468 269.109 313.452 270.78C313.432 274.009 312.269 277.126 310.169 279.579C309.265 280.603 308.196 281.467 307.006 282.137C305.98 282.725 304.822 283.045 303.639 283.067C302.822 283.078 302.025 282.819 301.37 282.332C301.041 282.088 300.773 281.772 300.587 281.407C300.402 281.042 300.303 280.639 300.3 280.23C299.69 281.158 298.852 281.914 297.867 282.427C296.882 282.939 295.783 283.192 294.673 283.16C293.8 283.199 292.929 283.042 292.124 282.701C291.319 282.359 290.601 281.843 290.022 281.188C288.861 279.838 288.247 278.103 288.301 276.323C288.309 274.859 288.564 273.406 289.055 272.026C289.544 270.636 290.236 269.325 291.11 268.138C291.981 266.972 293.091 266.005 294.366 265.301C295.64 264.582 297.079 264.207 298.542 264.213C299.559 264.203 300.563 264.446 301.463 264.92C302.336 265.386 303.045 266.11 303.49 266.994L303.676 266.371C303.825 265.935 304.14 265.575 304.553 265.371C304.967 265.167 305.444 265.135 305.881 265.283C306.05 265.34 306.209 265.422 306.355 265.525C306.494 265.635 306.604 265.777 306.677 265.939C306.75 266.101 306.783 266.278 306.774 266.455C306.774 266.629 306.746 266.802 306.69 266.966L303.676 276.993C303.411 277.757 303.239 278.55 303.165 279.356C303.137 279.506 303.147 279.661 303.193 279.806C303.239 279.952 303.321 280.084 303.43 280.191C303.54 280.297 303.674 280.375 303.82 280.418C303.967 280.46 304.122 280.466 304.272 280.434C305.338 280.366 306.337 279.89 307.062 279.104C308.067 278.111 308.839 276.907 309.322 275.579C309.899 274.129 310.196 272.582 310.196 271.022C310.209 269.647 310.008 268.279 309.601 266.966C309.259 265.834 308.717 264.773 308.001 263.832C307.323 262.975 306.502 262.242 305.574 261.665C304.649 261.081 303.638 260.645 302.579 260.372C301.492 260.086 300.373 259.942 299.249 259.944C297.824 259.946 296.406 260.146 295.035 260.539C293.625 260.939 292.28 261.544 291.045 262.334C289.8 263.12 288.673 264.078 287.697 265.18C286.691 266.342 285.909 267.679 285.39 269.124C284.806 270.698 284.513 272.366 284.525 274.045C284.495 276.033 284.855 278.008 285.585 279.858C286.215 281.459 287.209 282.892 288.487 284.043C289.723 285.116 291.149 285.946 292.692 286.49C294.319 287.065 296.034 287.355 297.761 287.345C299.606 287.345 301.44 287.066 303.202 286.518C303.378 286.454 303.564 286.423 303.751 286.425C303.925 286.422 304.098 286.456 304.259 286.525C304.419 286.594 304.563 286.696 304.681 286.824C304.8 286.948 304.893 287.094 304.955 287.253C305.017 287.413 305.047 287.583 305.044 287.755C305.066 288.025 304.99 288.295 304.829 288.513C304.668 288.732 304.434 288.886 304.169 288.945C301.974 289.616 299.693 289.967 297.398 289.987C295.265 289.984 293.149 289.606 291.148 288.871ZM298.83 279.225C299.75 278.565 300.432 277.626 300.774 276.547L302.718 269.71L302.588 269.431C302.467 269.207 302.32 268.998 302.151 268.808C301.918 268.539 301.663 268.29 301.388 268.064C301.04 267.786 300.647 267.569 300.226 267.422C299.125 267.038 297.92 267.081 296.849 267.543C296.263 267.791 295.724 268.141 295.259 268.575C294.775 269.027 294.344 269.533 293.975 270.082C293.606 270.655 293.294 271.262 293.045 271.896C292.784 272.53 292.581 273.187 292.44 273.859C292.3 274.497 292.228 275.149 292.226 275.802C292.218 276.222 292.243 276.642 292.301 277.058C292.344 277.428 292.425 277.793 292.543 278.146C292.645 278.475 292.792 278.788 292.98 279.077C293.148 279.336 293.363 279.563 293.612 279.746C293.879 279.939 294.178 280.081 294.496 280.165C294.867 280.274 295.253 280.324 295.64 280.314C296.804 280.328 297.939 279.955 298.868 279.253L298.83 279.225Z" fill="#B75400" stroke="#263238" stroke-linecap="round" stroke-linejoin="round"/>
<path d="M317.758 203.774C317.814 206.435 317.337 209.081 316.355 211.556C315.373 214.03 313.905 216.284 312.039 218.182C310.173 220.081 307.946 221.588 305.489 222.613C303.032 223.638 300.395 224.162 297.733 224.153C292.3 224.134 287.089 221.993 283.214 218.185C279.338 214.377 277.105 209.205 276.991 203.774C276.933 201.111 277.408 198.463 278.389 195.987C279.37 193.511 280.837 191.256 282.704 189.356C284.57 187.456 286.798 185.948 289.256 184.923C291.715 183.898 294.353 183.375 297.017 183.385C302.45 183.406 307.661 185.55 311.536 189.359C315.411 193.168 317.644 198.341 317.758 203.774Z" fill="white" stroke="#263238" stroke-linecap="round" stroke-linejoin="round"/>
<path d="M310.169 201.913C303.779 197.728 291.25 197.728 285.157 201.913C284.043 202.122 283.041 202.725 282.334 203.611C281.628 204.497 281.263 205.608 281.307 206.741C281.4 209.447 292.645 209.447 292.552 206.741C292.497 205.609 292.065 204.528 291.324 203.671C295.542 202.76 299.905 202.76 304.123 203.671C303.436 204.544 303.081 205.631 303.118 206.741C303.211 209.447 314.456 209.447 314.354 206.741C314.301 205.582 313.859 204.476 313.1 203.6C312.34 202.724 311.308 202.13 310.169 201.913Z" fill="#B75400" stroke="#263238" stroke-linecap="round" stroke-linejoin="round"/>
<path d="M317.758 135.893C317.87 140.907 315.135 145.39 310.745 148.375V160.551L302.011 151.808C300.599 152.06 299.167 152.185 297.733 152.18C286.478 152.18 277.186 144.887 276.991 135.893C276.796 126.899 285.753 119.616 297.017 119.616C308.28 119.616 317.61 126.945 317.758 135.893Z" fill="white" stroke="#263238" stroke-linecap="round" stroke-linejoin="round"/>
<path d="M288.692 135.893C288.694 136.416 288.541 136.928 288.251 137.363C287.962 137.799 287.55 138.139 287.068 138.34C286.585 138.542 286.054 138.595 285.541 138.494C285.028 138.393 284.556 138.143 284.186 137.774C283.816 137.405 283.563 136.934 283.46 136.421C283.358 135.909 283.409 135.377 283.609 134.894C283.809 134.41 284.147 133.997 284.582 133.707C285.017 133.416 285.528 133.261 286.05 133.261C286.749 133.261 287.42 133.538 287.915 134.031C288.41 134.525 288.69 135.194 288.692 135.893Z" fill="#B75400" stroke="#263238" stroke-linecap="round" stroke-linejoin="round"/>
<path d="M299.993 135.893C299.995 136.416 299.842 136.928 299.552 137.363C299.263 137.799 298.851 138.139 298.369 138.34C297.886 138.542 297.355 138.595 296.842 138.494C296.329 138.393 295.857 138.143 295.487 137.774C295.117 137.405 294.864 136.934 294.761 136.421C294.659 135.909 294.711 135.377 294.91 134.894C295.11 134.41 295.448 133.997 295.883 133.707C296.318 133.416 296.829 133.261 297.352 133.261C298.051 133.261 298.721 133.538 299.216 134.031C299.711 134.525 299.991 135.194 299.993 135.893Z" fill="#B75400" stroke="#263238" stroke-linecap="round" stroke-linejoin="round"/>
<path d="M311.294 135.893C311.296 136.416 311.142 136.928 310.853 137.363C310.564 137.799 310.152 138.139 309.67 138.34C309.187 138.542 308.656 138.595 308.143 138.494C307.63 138.393 307.158 138.143 306.788 137.774C306.418 137.405 306.165 136.934 306.062 136.421C305.96 135.909 306.011 135.377 306.211 134.894C306.411 134.41 306.749 133.997 307.184 133.707C307.619 133.416 308.13 133.261 308.652 133.261C309.351 133.261 310.022 133.538 310.517 134.031C311.012 134.525 311.292 135.194 311.294 135.893Z" fill="#B75400" stroke="#263238" stroke-linecap="round" stroke-linejoin="round"/>
<path d="M183.486 173.014C183.156 173.629 182.68 174.152 182.1 174.54C177.809 177.963 173.419 181.246 168.93 184.39C167.283 185.543 165.572 186.734 163.981 188.027C154.42 194.426 160.261 195.989 154.42 209.531C153.043 212.768 153.294 228.627 153.294 228.627H152.82C151.7 227.522 150.51 226.49 149.258 225.539C149.085 225.422 148.904 225.316 148.718 225.222C148.543 225.132 148.355 225.073 148.16 225.046C147.23 224.99 143.686 225.418 140.105 225.185L139.175 225.111C138.654 225.055 138.143 224.99 137.631 224.897C137.119 224.804 136.626 224.701 136.152 224.571C132.754 223.482 129.421 222.196 126.172 220.721L124.553 220.023L123.754 219.679L123.028 219.363L122.507 219.139L122.005 218.925C121.159 218.572 120.368 218.246 119.642 217.995C119.31 217.876 118.971 217.774 118.629 217.688C118.629 218.451 118.508 219.232 118.405 219.995C117.959 223.632 116.964 226.99 115.187 227.436C115.151 227.445 115.112 227.445 115.076 227.436C114.919 227.465 114.76 227.481 114.601 227.483H114.462C114.068 227.475 113.678 227.402 113.308 227.269C111.696 226.58 110.378 225.345 109.588 223.781C109.234 223.121 109.037 222.389 109.011 221.641C109.011 218.935 108.258 202.964 108.258 198.314C108.258 193.663 109.188 185.525 111.504 182.502C112.409 181.22 113.552 180.124 114.871 179.274C116.568 177.86 118.514 176.774 120.61 176.075C123.084 175.265 128.618 173.2 132.478 171.74L126.646 173.991C128.125 176.521 131.297 180.502 137.017 181.014C142.393 181.469 145.723 176.605 147.425 173.052C147.574 173.107 156.931 171.331 159.098 171.433C166.158 171.74 171.915 167.917 174.52 166.401C175.305 165.932 176.187 165.646 177.098 165.565C178.01 165.484 178.928 165.611 179.784 165.934C180.64 166.258 181.411 166.771 182.041 167.435C182.671 168.099 183.143 168.897 183.421 169.768V169.852C183.828 170.863 183.851 171.988 183.486 173.014Z" fill="#B75400" stroke="#263238" stroke-linecap="round" stroke-linejoin="round"/>
<path d="M147.323 173.107L146.895 172.959L147.323 173.107Z" fill="white" stroke="#263238" stroke-linecap="round" stroke-linejoin="round"/>
<path d="M155.257 232.719C155.261 232.756 155.261 232.794 155.257 232.831C155.219 232.921 155.162 233.001 155.089 233.066C155.016 233.13 154.929 233.178 154.836 233.205C154.742 233.231 154.643 233.237 154.547 233.22C154.451 233.204 154.36 233.166 154.28 233.11C153.852 232.868 153.192 231.315 153.192 231.315L152.457 230.552L151.974 230.04C152.048 230.226 152.634 231.65 152.327 232.31C152.311 232.355 152.286 232.396 152.253 232.431C152.047 232.705 151.78 232.928 151.474 233.082C151.167 233.235 150.828 233.315 150.485 233.314C150.085 233.314 148.913 233.454 147.89 233.519H147.779C147.469 233.536 147.158 233.536 146.849 233.519C146.023 233.413 145.226 233.144 144.505 232.728C142.868 232.488 141.256 232.105 139.687 231.584L139.408 231.436L139.156 231.287C138.991 231.187 138.838 231.068 138.701 230.933C138.134 230.461 137.653 229.895 137.278 229.259C137.278 229.259 133.501 229.101 128.432 228.71C126.572 228.571 124.563 228.394 122.479 228.189C119.28 227.864 116.638 227.882 114.564 227.594H114.415C114.006 227.538 113.625 227.464 113.262 227.38C112.377 227.207 111.558 226.788 110.9 226.171C110.242 225.554 109.771 224.765 109.541 223.892C109.42 223.479 109.32 223.06 109.244 222.637L110.862 219.846C111.706 219.17 112.646 218.624 113.652 218.228C115.214 217.575 116.937 217.416 118.591 217.772C118.934 217.857 119.273 217.96 119.605 218.079C120.331 218.358 121.121 218.684 121.968 219.009L122.479 219.223L123 219.446L123.726 219.763C127.865 221.474 132.804 223.678 136.106 224.608C137.097 224.868 138.108 225.049 139.129 225.148L140.059 225.222C143.64 225.455 147.174 225.027 148.114 225.083C149.053 225.139 151.35 227.324 152.82 228.673C153.22 229.045 153.573 229.352 153.815 229.538L153.927 229.631L154.011 229.706C154.543 230.252 154.916 230.934 155.09 231.677C155.163 231.926 155.213 232.182 155.238 232.44C155.255 232.532 155.261 232.626 155.257 232.719Z" fill="white" stroke="#263238" stroke-linecap="round" stroke-linejoin="round"/>
<path d="M155.257 232.719C155.261 232.756 155.261 232.794 155.257 232.831C155.218 232.92 155.16 232.999 155.087 233.063C155.013 233.127 154.927 233.173 154.833 233.199C154.739 233.225 154.641 233.229 154.545 233.212C154.45 233.195 154.359 233.157 154.28 233.101C153.82 232.567 153.453 231.96 153.192 231.305L152.457 230.552L151.974 230.05C152.039 230.199 152.643 231.65 152.336 232.319C152.321 232.364 152.295 232.406 152.262 232.44C152.159 232.577 152.04 232.702 151.908 232.812C151.507 233.134 151.009 233.311 150.495 233.314C150.085 233.314 148.923 233.445 147.909 233.519H147.779C147.469 233.536 147.158 233.536 146.849 233.519C146.028 233.409 145.235 233.144 144.514 232.738C142.878 232.493 141.266 232.107 139.696 231.584L139.426 231.454L139.175 231.305C139.014 231.2 138.862 231.081 138.719 230.952C138.144 230.476 137.656 229.903 137.278 229.259C137.278 229.259 133.613 229.101 128.646 228.72C126.786 228.58 124.637 228.394 122.479 228.18C119.54 227.892 117.112 227.808 115.15 227.501L114.545 227.39L113.848 227.231C113.687 226.092 113.805 224.93 114.192 223.846C114.552 222.931 115.112 222.108 115.829 221.435C116.546 220.763 117.404 220.258 118.34 219.958C119.502 219.531 120.692 219.186 121.903 218.925L122.405 219.139L122.926 219.363L123.651 219.679C127.865 221.493 132.748 223.688 136.059 224.59C137.05 224.851 138.061 225.028 139.082 225.12L140.012 225.194C143.593 225.436 147.128 225.008 148.067 225.064C149.006 225.12 151.295 227.297 152.718 228.645C153.041 228.954 153.379 229.246 153.731 229.52L153.843 229.603L153.927 229.678C154.47 230.217 154.845 230.902 155.006 231.65C155.079 231.899 155.129 232.154 155.155 232.412C155.202 232.51 155.237 232.613 155.257 232.719Z" fill="white" stroke="#263238" stroke-linecap="round" stroke-linejoin="round"/>
<path d="M144.123 230.245C144.123 230.245 146.235 231.343 147.072 231.724C147.909 232.105 147.834 233.64 147.834 233.64" fill="white"/>
<path d="M144.123 230.245C144.123 230.245 146.235 231.343 147.072 231.724C147.909 232.105 147.834 233.64 147.834 233.64" stroke="#263238" stroke-linecap="round" stroke-linejoin="round"/>
<path d="M146.383 228.757C147.712 229.705 148.991 230.72 150.216 231.798C150.395 232.008 150.511 232.264 150.552 232.537C150.593 232.81 150.557 233.089 150.448 233.342" fill="white"/>
<path d="M146.383 228.757C147.712 229.705 148.991 230.72 150.216 231.798C150.395 232.008 150.511 232.264 150.552 232.537C150.593 232.81 150.557 233.089 150.448 233.342" stroke="#263238" stroke-linecap="round" stroke-linejoin="round"/>
<path d="M151.946 230.031C150.845 228.852 149.681 227.734 148.458 226.683L151.946 230.031Z" fill="white"/>
<path d="M151.946 230.031C150.845 228.852 149.681 227.734 148.458 226.683" stroke="#263238" stroke-linecap="round" stroke-linejoin="round"/>
<path d="M147.314 173.126C145.63 176.67 142.291 181.497 136.915 181.079C131.223 180.595 128.023 176.586 126.544 174.047C128.59 173.266 130.664 172.466 132.367 171.796C132.367 170.066 132.311 167.992 132.125 165.936C132.125 165.49 132.032 165.006 131.985 164.588C131.939 164.169 131.883 163.871 131.827 163.527H142.644C142.644 163.527 142.579 163.955 142.496 164.671C142.431 165.313 142.347 166.169 142.282 167.136C142.198 168.42 142.142 169.926 142.179 171.35C142.7 171.526 143.23 171.722 143.761 171.926L144.784 172.28C145.193 172.429 145.593 172.559 146.021 172.698L146.951 172.977C147.075 173.019 147.196 173.069 147.314 173.126Z" fill="white" stroke="#263238" stroke-linecap="round" stroke-linejoin="round"/>
<path d="M131.985 164.55C131.985 164.55 134.004 169.796 136.933 170.689C139.863 171.582 142.514 164.671 142.514 164.671C142.514 164.671 138.384 169.08 136.85 168.392C135.315 167.703 132.004 164.588 132.004 164.588" fill="#263238"/>
<path d="M130.246 135.577C127.512 138.038 125.345 141.062 123.893 144.441C122.563 147.231 121.438 150.44 122.461 153.361C123.073 154.811 123.939 156.14 125.019 157.286C127.028 159.695 129.846 166.42 131.855 168.829C131.985 164.541 128.395 157.612 128.776 154.012C129.238 151.231 130.152 148.545 131.483 146.059C132.836 142.8 134.606 139.73 136.747 136.926C137.966 135.456 141.882 132.842 137.929 132.526C135.306 132.312 132.227 133.949 130.246 135.577Z" fill="#263238" stroke="#263238" stroke-linecap="round" stroke-linejoin="round"/>
<path d="M127.716 150.199C127.716 150.199 126.33 147.51 124.87 150.059C123.819 151.919 125.335 154.849 125.986 155.937C126.202 156.247 126.495 156.496 126.835 156.659C127.176 156.822 127.553 156.894 127.93 156.868L127.716 150.199Z" fill="white" stroke="#263238" stroke-linecap="round" stroke-linejoin="round"/>
<path d="M145.928 159.909C145.039 161.666 143.881 163.272 142.496 164.671L141.659 165.536C139.928 167.248 138.059 168.606 136.831 168.327C135.762 168.113 134.366 167.015 132.999 165.611C132.655 165.267 132.32 164.894 131.985 164.522C130.497 162.894 129.218 161.084 128.181 159.137C127.893 158.407 127.708 157.64 127.632 156.858C127.398 154.528 127.317 152.186 127.39 149.845C127.39 149.017 127.39 148.357 127.39 147.985C127.39 146.366 133.455 140.739 133.455 140.739C133.618 140.679 133.794 140.66 133.966 140.683C135.009 140.873 136.015 141.231 136.943 141.744C140.617 143.53 145.742 147.073 146.114 148.422C146.681 150.385 146.467 158.16 145.928 159.909Z" fill="white" stroke="#263238" stroke-linecap="round" stroke-linejoin="round"/>
<path d="M133.883 152.449C133.883 153.1 133.641 153.631 133.371 153.631C133.101 153.631 132.832 153.119 132.832 152.449C132.832 151.78 133.073 151.25 133.371 151.25C133.669 151.25 133.883 151.798 133.883 152.449Z" fill="#263238"/>
<path d="M140.812 151.259C141.11 151.259 141.352 151.789 141.352 152.449C141.352 153.11 141.11 153.631 140.812 153.631C140.514 153.631 140.273 153.1 140.273 152.449C140.273 151.798 140.514 151.259 140.812 151.259Z" fill="#263238"/>
<path d="M130.423 149.52C130.423 149.52 131.353 147.659 134.645 148.227" stroke="#263238" stroke-linecap="round" stroke-linejoin="round"/>
<path d="M143.872 149.52C143.872 149.52 142.942 147.659 139.649 148.227" stroke="#263238" stroke-linecap="round" stroke-linejoin="round"/>
<path d="M137.78 156.998C138.114 156.977 138.433 156.849 138.69 156.633C138.946 156.417 139.126 156.124 139.203 155.798C139.203 155.798 137.398 153.008 137.947 150.273" stroke="#263238" stroke-linecap="round" stroke-linejoin="round"/>
<path d="M126.544 143.688C125.795 144.704 125.228 145.844 124.87 147.055" stroke="white" stroke-linecap="round" stroke-linejoin="round"/>
<path d="M134.32 136.247C134.32 136.247 133.287 137.958 128.739 141.446C128.446 141.658 128.166 141.888 127.902 142.134" stroke="white" stroke-linecap="round" stroke-linejoin="round"/>
<path d="M119.735 190.78C119.115 199.622 118.495 208.471 117.875 217.326V216.647" fill="#263238"/>
<path d="M119.735 190.78C119.115 199.622 118.495 208.471 117.875 217.326V216.647" stroke="#263238" stroke-linecap="round" stroke-linejoin="round"/>
<path d="M178.491 161.583C179.332 161.255 180.24 161.137 181.137 161.241C182.034 161.345 182.891 161.667 183.635 162.178C185.118 163.229 186.198 164.755 186.695 166.504C187.288 168.245 187.228 170.142 186.528 171.842C186.165 172.681 185.581 173.405 184.839 173.937C184.097 174.47 183.224 174.79 182.314 174.865C180.957 174.848 179.646 174.373 178.594 173.517C175.115 170.912 173.376 163.788 178.491 161.583Z" fill="white" stroke="#263238" stroke-linecap="round" stroke-linejoin="round"/>
<path d="M186.193 131.884C186.193 131.996 186.193 132.731 186.258 132.861C186.584 134.293 187.272 137.874 185.533 138.6C186.193 140.953 187.811 156.328 187.597 164.169C187.542 166.513 187.132 169.294 185.03 170.298C181.486 171.982 178.119 167.88 178.519 164.671C179.143 160.29 178.929 155.826 179.45 151.398C180.017 146.804 181.059 142.097 179.915 137.605C179.636 137.298 177.85 133.754 177.264 132.777C177.001 132.36 176.794 131.91 176.65 131.438C176.421 129.833 176.309 128.213 176.315 126.592C176.845 125.587 177.533 126.518 177.896 127.178C178.192 127.983 178.294 128.847 178.194 129.699C178.159 129.907 178.189 130.121 178.278 130.312C178.356 130.422 178.461 130.509 178.584 130.564C178.706 130.62 178.841 130.642 178.975 130.629C180.119 130.461 180.073 129.503 180.054 128.768C180.054 126.304 180.054 123.839 180.054 121.393C180.054 120.983 180.184 119.876 180.575 119.839C180.966 119.802 181.552 120.118 181.607 121.43C181.672 122.909 181.673 127.466 181.673 127.466C181.709 127.504 181.755 127.531 181.806 127.546C181.856 127.56 181.91 127.562 181.961 127.55C182.054 127.55 182.091 127.383 182.128 127.29C182.677 125.001 183.235 122.713 183.784 120.425C183.849 120.155 184.249 119.597 184.537 119.597C185.226 119.597 185.244 120.397 185.281 120.63C185.523 121.858 183.802 126.917 183.514 128.071C183.514 128.275 183.514 128.582 183.728 128.527L186.425 123.085C186.55 122.767 186.747 122.483 187.001 122.254C187.254 122.025 187.557 121.857 187.886 121.765C187.931 121.75 187.98 121.75 188.025 121.765C188.074 121.793 188.113 121.835 188.137 121.886C188.397 122.351 188.137 122.992 187.988 123.504C187.839 124.016 185.821 127.773 185.105 129.289C185.002 129.503 184.835 129.987 185.04 130.219C185.244 130.452 185.616 130.006 185.765 129.699C186.221 128.768 186.649 127.894 187.067 126.983C187.197 126.713 187.393 126.332 187.7 126.397C189.513 126.787 186.937 130.591 186.193 131.884Z" fill="white" stroke="#263238" stroke-linecap="round" stroke-linejoin="round"/>
<path d="M181.189 131.084C182.125 131.826 182.938 132.711 183.598 133.707C183.923 134.208 184.141 134.771 184.237 135.36C184.333 135.949 184.305 136.552 184.156 137.13C184.111 137.281 184.052 137.428 183.979 137.567" fill="white"/>
<path d="M181.189 131.084C182.125 131.826 182.938 132.711 183.598 133.707C183.923 134.208 184.141 134.771 184.237 135.36C184.333 135.949 184.305 136.552 184.156 137.13C184.111 137.281 184.052 137.428 183.979 137.567" stroke="#263238" stroke-linecap="round" stroke-linejoin="round"/>
<path d="M154.987 189.189C155.971 191.174 156.634 193.303 156.95 195.496C157.219 197.691 157.303 199.411 155.806 205.578" stroke="#263238" stroke-linecap="round" stroke-linejoin="round"/>
<path d="M133.994 139.344C133.867 139.724 133.835 140.13 133.901 140.525C134.078 141.023 134.402 141.455 134.831 141.762C137.804 144.368 141.13 146.541 144.709 148.217C145.158 148.334 145.547 148.614 145.8 149.003C146.053 149.392 146.152 149.862 146.076 150.319V157.509C146.122 158.251 146.05 158.995 145.863 159.714C145.342 161.388 144.188 162.737 143.351 164.281C142.5 165.745 142.069 167.415 142.105 169.108C141.872 167.331 148.086 163.89 149.769 156.895C150.002 155.909 154.838 150.04 151.936 143.148C149.146 136.535 144.756 133.689 143.277 133.345C142.273 133.051 141.214 133.001 140.187 133.198C139.159 133.396 138.194 133.835 137.371 134.479C135.745 135.69 134.56 137.398 133.994 139.344Z" fill="#263238" stroke="#263238" stroke-linecap="round" stroke-linejoin="round"/>
<path d="M140.087 159.5C139.556 159.611 139.017 159.714 138.477 159.779C136.617 160.011 134.627 159.723 133.408 158.365C133.501 159.583 134.338 164.188 136.84 164.318C139.342 164.448 140.087 159.5 140.087 159.5Z" stroke="#263238" stroke-linecap="round" stroke-linejoin="round"/>
<path d="M137.668 136.535C138.741 138.971 140.45 141.072 142.617 142.618C144.188 143.744 145.984 144.553 147.425 145.836C149.286 147.538 150.504 150.236 149.788 152.682" stroke="white" stroke-linecap="round" stroke-linejoin="round"/>
<path d="M157.108 174.112C155.316 175.55 154.136 177.614 153.806 179.888C153.485 181.853 153.727 183.868 154.503 185.701" stroke="#263238" stroke-linecap="round" stroke-linejoin="round"/>
<path d="M122.461 189.459C122.312 191.896 120.796 194.007 119.326 195.97L122.461 189.459Z" fill="#263238"/>
<path d="M122.461 189.459C122.312 191.896 120.796 194.007 119.326 195.97" stroke="#263238" stroke-linecap="round" stroke-linejoin="round"/>
<path d="M118.833 208.089C119.572 209.326 120.561 210.395 121.736 211.228C122.912 212.061 124.248 212.639 125.66 212.926" stroke="#263238" stroke-linecap="round" stroke-linejoin="round"/>
<path d="M154.42 209.54C154.42 209.54 151.918 213.261 143.416 214.042" stroke="#263238" stroke-linecap="round" stroke-linejoin="round"/>
<path d="M403.46 176.94C403.46 176.94 371.045 186.985 364.944 179.051L365.771 138.581H370.692L376.477 167.09L403.041 162.225C403.041 162.225 406.446 172.773 403.46 176.94Z" fill="white"/>
<path d="M389.806 178.353C387.947 179.092 386.173 180.028 384.513 181.144C386.708 181.841 389.052 180.958 391.247 180.26C394.146 179.37 397.101 178.674 400.093 178.177C400.232 177.349 399.163 175.461 398.744 174.726C397.982 173.442 397.814 173.331 396.531 173.963C394.196 175.135 392.205 177.172 389.806 178.353Z" fill="#B75400"/>
<path d="M403.46 176.94C403.46 176.94 371.045 186.985 364.944 179.051L365.771 138.581H370.692L376.477 167.09L403.041 162.225C403.041 162.225 406.446 172.773 403.46 176.94Z" stroke="#263238" stroke-linecap="round" stroke-linejoin="round"/>
<path d="M400.279 178L405.971 213.047C405.823 235.761 416.658 232.347 424.183 232.282C432.88 232.208 446.078 223.585 439.605 210.164L442.097 161.583L426.946 160.43C421.951 160.039 401.488 160.681 399.86 163.295C395.638 170.075 400.279 178 400.279 178Z" fill="white"/>
<path d="M401.172 180.893C404.553 193.682 412.661 204.711 423.858 211.754C422.646 211.562 421.462 211.222 420.333 210.74C419.197 210.251 417.925 210.182 416.743 210.545C416.457 210.648 416.195 210.806 415.971 211.01C415.746 211.215 415.565 211.462 415.436 211.736C415.307 212.011 415.234 212.309 415.22 212.612C415.207 212.915 415.253 213.218 415.357 213.503C415.628 213.939 415.997 214.305 416.436 214.572C418.282 215.87 420.302 216.904 422.435 217.642C420.564 217.45 418.674 217.595 416.854 218.07C416.519 219.688 418.324 220.86 419.747 221.651C422.017 222.989 423.962 224.816 425.439 226.999C420.445 227.01 415.455 227.295 410.492 227.855C409.838 228.001 409.154 227.936 408.539 227.669C407.895 227.189 407.462 226.479 407.33 225.687C406.224 221.818 405.581 217.831 405.414 213.81C405.321 211.549 405.414 209.271 405.116 207.029C404.876 205.262 404.547 203.508 404.13 201.774C402.685 195.065 401.578 188.303 400.809 181.488C400.465 181.516 401.172 180.893 401.172 180.893Z" fill="#B75400"/>
<path d="M439.596 178.102C438.341 177.7 437.171 177.069 436.145 176.242C436.433 177.637 438.517 180.046 439.735 180.79C439.986 180.948 440.349 181.079 440.572 180.865C440.796 180.651 440.944 180.102 441.168 179.935L439.596 178.102Z" fill="#B75400"/>
<path d="M400.279 178L405.971 213.047C405.823 235.761 416.658 232.347 424.183 232.282C432.88 232.208 446.078 223.585 439.605 210.164L442.097 161.583L426.946 160.43C421.951 160.039 401.488 160.681 399.86 163.295C395.638 170.075 400.279 178 400.279 178Z" stroke="#263238" stroke-linecap="round" stroke-linejoin="round"/>
<path d="M411.357 159.714C409.726 162.699 408.942 166.072 409.087 169.471C409.085 169.767 409.142 170.061 409.255 170.336C409.673 171.164 410.817 171.164 411.738 171.266C415.319 171.722 417.542 175.498 420.919 176.763C421.037 176.836 421.169 176.884 421.306 176.905C421.444 176.926 421.584 176.919 421.719 176.884C421.853 176.849 421.979 176.788 422.09 176.703C422.2 176.618 422.292 176.512 422.36 176.391C423.83 174.531 424.351 171.917 426.36 170.717C427.234 170.196 428.341 169.982 428.945 169.164C429.634 168.234 429.327 166.894 428.992 165.76C428.443 163.899 427.829 161.965 426.406 160.672C424.89 159.488 423.028 158.835 421.105 158.812C418.29 158.581 415.457 158.846 412.733 159.593C412.771 159.946 411.357 159.714 411.357 159.714Z" fill="#B75400" stroke="#263238" stroke-linecap="round" stroke-linejoin="round"/>
<path d="M456.375 183.497C454.102 180.187 452.427 176.504 451.427 172.615C451.062 170.666 450.495 168.762 449.734 166.931C449.016 165.518 447.979 164.291 446.705 163.346C445.432 162.402 443.956 161.767 442.395 161.49C441.729 161.344 441.036 161.376 440.386 161.583C439.037 162.095 438.442 163.648 438.172 165.062C437.589 168.099 437.761 171.232 438.675 174.186C439.298 176.195 446.785 190.761 451.696 196.407C451.268 193.561 454.542 184.046 456.375 183.497Z" fill="white"/>
<path d="M441.688 180.641L446.283 189.301C446.943 190.538 447.687 191.859 448.971 192.398C448.163 189.537 447.704 186.589 447.604 183.618C447.654 182.125 447.482 180.633 447.092 179.19C446.906 179.349 446.711 178.679 446.711 178.679C446.506 179.06 445.967 179.07 445.548 178.986C442.544 178.353 440.479 175.675 438.693 173.182C438.461 174.017 438.424 174.894 438.585 175.746C438.746 176.598 439.102 177.401 439.623 178.093C439.623 178.093 441.539 180.353 441.688 180.641Z" fill="#B75400"/>
<path d="M456.375 183.497C454.102 180.187 452.427 176.504 451.427 172.615C451.062 170.666 450.495 168.762 449.734 166.931C449.016 165.518 447.979 164.291 446.705 163.346C445.432 162.402 443.956 161.767 442.395 161.49C441.729 161.344 441.036 161.376 440.386 161.583C439.037 162.095 438.442 163.648 438.172 165.062C437.589 168.099 437.761 171.232 438.675 174.186C439.298 176.195 446.785 190.761 451.696 196.407C451.268 193.561 454.542 184.046 456.375 183.497Z" stroke="#263238" stroke-linecap="round" stroke-linejoin="round"/>
<path d="M449.92 193.914C444.916 184.325 447.334 162.225 447.185 158.672L453.789 158.318C454.45 158.318 457.51 177.163 459.593 184.985C461.453 192.11 459.668 199.318 456.375 199.318C453.64 199.318 450.971 195.933 449.92 193.914Z" fill="white" stroke="#263238" stroke-linecap="round" stroke-linejoin="round"/>
<path d="M390.29 169.015C394.94 162.225 404.065 161.686 404.065 161.686" stroke="#263238" stroke-linecap="round" stroke-linejoin="round"/>
<path d="M372.347 172.819C373.754 171.527 374.856 169.938 375.575 168.169L372.347 172.819Z" fill="white"/>
<path d="M372.347 172.819C373.754 171.527 374.856 169.938 375.575 168.169" stroke="#263238" stroke-linecap="round" stroke-linejoin="round"/>
<path d="M406.902 204.908C409.552 209.252 426.722 213.893 433.568 212.898" stroke="#263238" stroke-linecap="round" stroke-linejoin="round"/>
<path d="M411.757 217.167C416.703 218.018 421.772 217.825 426.639 216.6" stroke="#263238" stroke-linecap="round" stroke-linejoin="round"/>
<path d="M434.535 175.024L437.809 179.46C438.256 180.065 438.879 180.744 439.614 180.576" stroke="#263238" stroke-linecap="round" stroke-linejoin="round"/>
<path d="M458.867 343.32C458.579 344.502 458.486 345.906 459.333 346.79C460.179 347.673 461.407 347.655 462.551 347.636L466.485 347.562C468.002 347.637 469.519 347.4 470.941 346.864C471.651 346.588 472.26 346.1 472.684 345.466C473.109 344.832 473.328 344.083 473.312 343.32C473.215 342.73 473.027 342.159 472.754 341.627C472.401 340.865 472.047 340.093 471.703 339.33C467.36 329.759 460.728 335.582 458.867 343.32Z" fill="white" stroke="#263238" stroke-linecap="round" stroke-linejoin="round"/>
<path d="M453.324 332.038C453.462 336.431 453.093 340.825 452.226 345.134C452.022 346.111 452.226 347.59 453.157 347.497C453.521 347.44 453.853 347.252 454.087 346.966C457.505 343.594 459.951 339.362 461.165 334.717C461.348 334.234 461.433 333.72 461.415 333.204C461.398 332.688 461.278 332.181 461.063 331.712C460.808 331.336 460.494 331.003 460.133 330.726C456.979 328.206 453.036 325.704 453.324 332.038Z" fill="white" stroke="#263238" stroke-linecap="round" stroke-linejoin="round"/>
<path d="M442.525 219.614C442.525 219.614 447.427 228.134 448.478 230.115C449.529 232.096 471.731 261.274 475.991 282.518C476.791 286.555 460.412 331.703 460.412 331.703L456.691 329.601C456.691 329.601 459.277 288.424 458.644 285.002C458.012 281.579 441.67 256.316 441.67 256.316C441.67 256.316 432.545 249.61 428.787 241.816L442.525 219.614Z" fill="#263238"/>
<path d="M443.055 240.96C443.055 240.96 440.265 247.173 440.265 248.066C440.265 248.959 455.612 297.456 460.123 308.673C462.976 315.897 465.49 323.288 467.667 330.847C467.667 330.847 469.415 333.145 468.094 335.498C466.774 337.851 461.518 339.395 460.439 337.293C459.361 335.191 448.729 324.271 444.246 313.407C439.763 302.544 433.457 284.388 429.866 277.626C425.164 268.985 420.989 260.067 417.365 250.922C412.854 239.379 408.241 226.934 408.241 226.934C410.115 227.103 411.997 227.155 413.877 227.092C418.305 226.941 422.689 226.164 426.899 224.785C436.703 221.493 440.944 215.186 440.944 215.186C440.944 215.186 443.372 221.762 444.004 223.037L443.055 240.96Z" fill="#263238"/>
<path d="M474.354 286.676C473.393 288.322 472.101 289.75 470.559 290.871" stroke="white" stroke-linecap="round" stroke-linejoin="round"/>
<path d="M475.554 283.969C475.414 284.422 475.247 284.867 475.052 285.299" stroke="white" stroke-linecap="round" stroke-linejoin="round"/>
<path d="M434.191 226.469C436.666 230.729 438.982 236.858 438.61 241.769C438.41 242.661 438.098 243.524 437.679 244.336" stroke="white" stroke-linecap="round" stroke-linejoin="round"/>
<path d="M419.216 231.203C419.486 233.575 419.849 237.519 419.328 239.844C418.888 242.222 417.523 244.329 415.533 245.704" stroke="white" stroke-linecap="round" stroke-linejoin="round"/>
<path d="M440.312 222.227C440.852 222.901 441.291 223.65 441.614 224.45C442.244 225.6 443.11 226.604 444.155 227.396C445.2 228.188 446.401 228.75 447.678 229.045" stroke="white" stroke-linecap="round" stroke-linejoin="round"/>
<path d="M432.415 231.733C435.698 238.914 438.21 246.113 443.307 258.316" stroke="white" stroke-linecap="round" stroke-linejoin="round"/>
<path d="M430.666 228.059C430.945 228.617 431.215 229.175 431.485 229.733" stroke="white" stroke-linecap="round" stroke-linejoin="round"/>
<path d="M457.993 282.992C459.498 285.893 461.412 288.561 463.676 290.917" stroke="white" stroke-linecap="round" stroke-linejoin="round"/>
<path d="M459.547 285.671C460.532 290.222 462.331 294.558 464.858 298.47" stroke="white" stroke-linecap="round" stroke-linejoin="round"/>
<path d="M436.424 285.904C429.178 270.445 421.449 255.107 411.952 231.733" stroke="white" stroke-linecap="round" stroke-linejoin="round"/>
<path d="M438.061 290.396C437.884 289.857 437.698 289.317 437.503 288.769" stroke="white" stroke-linecap="round" stroke-linejoin="round"/>
<path d="M463.109 337.926C461.249 335.498 447.688 316.533 444.32 307.938C442.079 302.209 440.386 298.163 438.74 292.452" stroke="white" stroke-linecap="round" stroke-linejoin="round"/>
<path d="M457.993 301.427L464.439 320.374" stroke="white" stroke-linecap="round" stroke-linejoin="round"/>
<path d="M453.649 158.328L451.696 158.486C449.221 158.926 446.679 158.808 444.255 158.142C442.702 157.76 439.102 156.644 438.674 156.57C437.605 156.341 436.525 156.167 435.438 156.049C432.154 155.854 433.819 154.626 435.187 154.682C436.991 154.765 437.596 154.728 438.981 154.831C438.814 154.738 438.302 154.635 438.293 154.235C438.293 153.259 439.577 153.305 439.577 153.305C439.577 153.305 438.172 152.71 438.368 151.975C438.563 151.24 439.502 151.045 440.098 151.101C440.098 151.101 439.307 150.719 439.344 150.31C439.512 148.729 442.758 148.617 442.758 148.617C441.973 148.267 441.238 147.813 440.572 147.269C440.329 147.007 440.159 146.686 440.079 146.339C440.062 146.173 440.089 146.005 440.158 145.854C440.228 145.702 440.337 145.572 440.473 145.477C440.61 145.382 440.77 145.326 440.936 145.313C441.103 145.301 441.269 145.334 441.418 145.408C442.258 145.968 443.068 146.57 443.846 147.213C444.851 147.929 446.013 148.385 447.074 149.027C448.107 149.911 448.941 151.005 449.52 152.236C449.687 152.496 453.649 158.328 453.649 158.328Z" fill="white" stroke="#263238" stroke-linecap="round" stroke-linejoin="round"/>
<path d="M365.771 138.581V133.456C365.759 130.885 366.136 128.326 366.888 125.866C367.315 124.508 367.818 123.327 368.273 123.151C369.12 122.844 369.492 126.276 369.492 126.276C368.856 123.524 368.448 120.724 368.273 117.905C368.273 114.919 372.292 127.317 372.292 127.317L370.692 138.581H365.771Z" fill="white" stroke="#263238" stroke-linecap="round" stroke-linejoin="round"/>
<path d="M370.627 130.247C371.113 129.872 371.475 129.361 371.668 128.778L370.627 130.247Z" fill="white"/>
<path d="M370.627 130.247C371.113 129.872 371.475 129.361 371.668 128.778" stroke="#263238" stroke-linecap="round" stroke-linejoin="round"/>
<path d="M409.58 149.268C411.318 152.193 412.278 155.513 412.371 158.914C412.538 164.569 419.086 172.484 420.956 172.866C422.825 173.247 424.555 163.936 424.472 161.118C424.388 158.3 423.346 150.515 423.346 150.515C423.346 150.515 414.389 143.743 409.58 149.268Z" fill="white" stroke="#263238" stroke-linecap="round" stroke-linejoin="round"/>
<path d="M412.213 156.756C412.213 156.756 420.798 168.466 424.165 156.561C427.532 144.655 414.724 159.816 412.213 156.756Z" fill="#263238"/>
<path d="M426.704 148.338C426.248 155.286 423.076 159.193 419.421 159.881C416.082 160.495 411.199 157.091 408.762 152.04C408.576 151.919 405.609 149.864 404.902 149.361C404.533 149.103 404.231 148.759 404.024 148.359C403.817 147.959 403.709 147.515 403.711 147.064C403.735 146.632 403.887 146.216 404.149 145.871C404.411 145.527 404.771 145.268 405.181 145.129H405.264C405.683 145.038 406.119 145.07 406.52 145.222C405.906 142.851 405.404 140.441 405.023 138.014C405.199 132.433 407.05 127.876 413.003 127.429C418.956 126.983 423.932 130.312 424.165 132.712C424.332 134.572 424.937 139.493 425.476 144.581C425.625 145.901 426.806 146.776 426.704 148.338Z" fill="white" stroke="#263238" stroke-linecap="round" stroke-linejoin="round"/>
<path d="M424.165 140.302C424.165 140.302 420.333 138.544 420.984 144.255C421.114 145.38 423.207 147.045 423.207 147.045C423.207 147.045 422.667 148.729 421.672 148.729" fill="white"/>
<path d="M424.165 140.302C424.165 140.302 420.333 138.544 420.984 144.255C421.114 145.38 423.207 147.045 423.207 147.045C423.207 147.045 422.667 148.729 421.672 148.729" stroke="#263238" stroke-linecap="round" stroke-linejoin="round"/>
<path d="M416.761 142.255C416.761 142.255 414.808 141.065 413.468 141.8C412.77 142.103 412.175 142.604 411.757 143.241" fill="white"/>
<path d="M416.761 142.255C416.761 142.255 414.808 141.065 413.468 141.8C412.77 142.103 412.175 142.604 411.757 143.241" stroke="#263238" stroke-linecap="round" stroke-linejoin="round"/>
<path d="M415.645 145.548C415.794 146.236 415.645 146.85 415.245 146.934C414.845 147.017 414.454 146.515 414.315 145.827C414.175 145.139 414.315 144.525 414.724 144.441C415.133 144.357 415.505 144.85 415.645 145.548Z" fill="#263238"/>
<path d="M423.197 143.539C423.346 144.227 423.197 144.841 422.797 144.925C422.397 145.008 422.007 144.506 421.867 143.827C421.728 143.148 421.867 142.516 422.267 142.441C422.667 142.367 423.058 142.86 423.197 143.539Z" fill="#263238"/>
<path d="M404.576 130.805C403.896 131.472 403.424 132.322 403.218 133.252C402.661 135.218 402.5 137.276 402.744 139.305C402.989 141.335 403.633 143.295 404.641 145.074C405.261 144.997 405.89 145.023 406.502 145.148C407.153 145.315 407.99 146.432 408.297 147.008C408.566 147.623 408.72 148.282 408.753 148.952C408.604 147.185 408.464 145.427 408.315 143.66C408.216 142.953 408.247 142.234 408.408 141.539C408.864 140.088 408.362 136.665 408.492 133.605C412.352 138.321 417.961 137.484 419.821 137.326C422.611 137.093 424.992 134.238 424.844 132.201C424.695 130.164 424.146 124.918 414.947 124.378C412.921 124.163 410.877 124.589 409.106 125.597C408.544 125.967 408.068 126.451 407.707 127.019C407.346 127.586 407.11 128.224 407.013 128.889C406.883 129.745 407.209 129.819 406.557 130.238C405.906 130.657 405.218 130.257 404.576 130.805Z" fill="#263238" stroke="#263238" stroke-linecap="round" stroke-linejoin="round"/>
<path d="M416.761 152.003C416.761 152.003 418.128 153.51 420.984 152.515L416.761 152.003Z" fill="white"/>
<path d="M416.761 152.003C416.761 152.003 418.128 153.51 420.984 152.515" stroke="#263238" stroke-linecap="round" stroke-linejoin="round"/>
</g>
<defs>
<clipPath id="clip0_21_2605">
<rect width="564" height="348" fill="white" transform="translate(0 0.264893)"/>
</clipPath>
</defs>
</svg>
