<svg width="400" height="299" viewBox="0 0 400 299" fill="none" xmlns="http://www.w3.org/2000/svg">
<mask id="path-1-inside-1_2258_16304" fill="white">
<path d="M400 261.92H0V262.12H400V261.92Z"/>
</mask>
<path d="M400 261.92H0V262.12H400V261.92Z" fill="#EBEBEB"/>
<path d="M0 261.92V260.92H-1V261.92H0ZM400 261.92H401V260.92H400V261.92ZM400 262.12V263.12H401V262.12H400ZM0 262.12H-1V263.12H0V262.12ZM0 262.92H400V260.92H0V262.92ZM399 261.92V262.12H401V261.92H399ZM400 261.12H0V263.12H400V261.12ZM1 262.12V261.92H-1V262.12H1Z" fill="black" mask="url(#path-1-inside-1_2258_16304)"/>
<mask id="path-3-inside-2_2258_16304" fill="white">
<path d="M189.6 226.24H35.1284C33.9182 226.238 32.7584 225.756 31.9035 224.899C31.0485 224.043 30.5684 222.882 30.5684 221.672V4.528C30.5789 3.32482 31.0637 2.17438 31.9175 1.32657C32.7713 0.478767 33.9251 0.00206111 35.1284 0H189.6C190.812 0 191.974 0.48127 192.83 1.33794C193.687 2.1946 194.168 3.35649 194.168 4.568V221.672C194.168 222.883 193.687 224.045 192.83 224.902C191.974 225.759 190.812 226.24 189.6 226.24ZM35.1284 0.160001C33.9713 0.16212 32.8623 0.623252 32.0449 1.44218C31.2275 2.26111 30.7684 3.37092 30.7684 4.528V221.672C30.7684 222.829 31.2275 223.939 32.0449 224.758C32.8623 225.577 33.9713 226.038 35.1284 226.04H189.6C190.758 226.038 191.868 225.577 192.687 224.758C193.505 223.94 193.966 222.83 193.968 221.672V4.528C193.966 3.37018 193.505 2.26039 192.687 1.44169C191.868 0.622992 190.758 0.162115 189.6 0.160001H35.1284Z"/>
</mask>
<path d="M189.6 226.24H35.1284C33.9182 226.238 32.7584 225.756 31.9035 224.899C31.0485 224.043 30.5684 222.882 30.5684 221.672V4.528C30.5789 3.32482 31.0637 2.17438 31.9175 1.32657C32.7713 0.478767 33.9251 0.00206111 35.1284 0H189.6C190.812 0 191.974 0.48127 192.83 1.33794C193.687 2.1946 194.168 3.35649 194.168 4.568V221.672C194.168 222.883 193.687 224.045 192.83 224.902C191.974 225.759 190.812 226.24 189.6 226.24ZM35.1284 0.160001C33.9713 0.16212 32.8623 0.623252 32.0449 1.44218C31.2275 2.26111 30.7684 3.37092 30.7684 4.528V221.672C30.7684 222.829 31.2275 223.939 32.0449 224.758C32.8623 225.577 33.9713 226.038 35.1284 226.04H189.6C190.758 226.038 191.868 225.577 192.687 224.758C193.505 223.94 193.966 222.83 193.968 221.672V4.528C193.966 3.37018 193.505 2.26039 192.687 1.44169C191.868 0.622992 190.758 0.162115 189.6 0.160001H35.1284Z" fill="#EBEBEB"/>
<path d="M35.1284 226.24L35.1266 227.24H35.1284V226.24ZM30.5684 221.672H31.5684H30.5684ZM30.5684 4.528L29.5684 4.51924V4.528H30.5684ZM35.1284 0V-1L35.1266 -0.999999L35.1284 0ZM189.6 0V-1V0ZM194.168 221.672H193.168H194.168ZM35.1284 0.160001V-0.840001L35.1265 -0.839998L35.1284 0.160001ZM30.7684 4.528H31.7684L31.7684 4.528L30.7684 4.528ZM30.7684 221.672H31.7684H30.7684ZM35.1284 226.04L35.1265 227.04H35.1284V226.04ZM189.6 226.04V227.04H189.602L189.6 226.04ZM193.968 221.672L194.968 221.674V221.672H193.968ZM193.968 4.528H194.968L194.968 4.52617L193.968 4.528ZM189.6 0.160001L189.602 -0.839999H189.6V0.160001ZM189.6 225.24H35.1284V227.24H189.6V225.24ZM35.1301 225.24C34.1849 225.238 33.279 224.862 32.6112 224.193L31.1957 225.606C32.2378 226.65 33.6516 227.237 35.1266 227.24L35.1301 225.24ZM32.6112 224.193C31.9434 223.524 31.5684 222.617 31.5684 221.672H29.5684C29.5684 223.147 30.1536 224.562 31.1957 225.606L32.6112 224.193ZM31.5684 221.672V4.528H29.5684V221.672H31.5684ZM31.5683 4.53675C31.5765 3.59697 31.9552 2.69838 32.6221 2.03617L31.2129 0.616982C30.1722 1.65039 29.5812 3.05267 29.5684 4.51924L31.5683 4.53675ZM32.6221 2.03617C33.289 1.37396 34.1903 1.00161 35.1301 0.999999L35.1266 -0.999999C33.66 -0.997486 32.2536 -0.416424 31.2129 0.616982L32.6221 2.03617ZM35.1284 1H189.6V-1H35.1284V1ZM189.6 1C190.547 1 191.454 1.37591 192.123 2.04504L193.538 0.63083C192.493 -0.413373 191.077 -1 189.6 -1V1ZM192.123 2.04504C192.792 2.71417 193.168 3.62171 193.168 4.568H195.168C195.168 3.09127 194.582 1.67503 193.538 0.63083L192.123 2.04504ZM193.168 4.568V221.672H195.168V4.568H193.168ZM193.168 221.672C193.168 222.618 192.792 223.526 192.123 224.195L193.538 225.609C194.582 224.565 195.168 223.149 195.168 221.672H193.168ZM192.123 224.195C191.454 224.864 190.547 225.24 189.6 225.24V227.24C191.077 227.24 192.493 226.653 193.538 225.609L192.123 224.195ZM35.1265 -0.839998C33.7046 -0.837393 32.3417 -0.270691 31.3371 0.735723L32.7526 2.14864C33.3829 1.51719 34.238 1.16163 35.1302 1.16L35.1265 -0.839998ZM31.3371 0.735723C30.3326 1.74214 29.7684 3.10602 29.7684 4.528L31.7684 4.528C31.7684 3.63582 32.1224 2.78009 32.7526 2.14864L31.3371 0.735723ZM29.7684 4.528V221.672H31.7684V4.528H29.7684ZM29.7684 221.672C29.7684 223.094 30.3326 224.458 31.3371 225.464L32.7526 224.051C32.1224 223.42 31.7684 222.564 31.7684 221.672H29.7684ZM31.3371 225.464C32.3417 226.471 33.7046 227.037 35.1265 227.04L35.1302 225.04C34.238 225.038 33.3829 224.683 32.7526 224.051L31.3371 225.464ZM35.1284 227.04H189.6V225.04H35.1284V227.04ZM189.602 227.04C191.025 227.037 192.388 226.471 193.394 225.465L191.98 224.051C191.348 224.683 190.492 225.038 189.599 225.04L189.602 227.04ZM193.394 225.465C194.4 224.46 194.966 223.096 194.968 221.674L192.968 221.67C192.967 222.563 192.611 223.42 191.98 224.051L193.394 225.465ZM194.968 221.672V4.528H192.968V221.672H194.968ZM194.968 4.52617C194.966 3.10377 194.4 1.74037 193.394 0.734586L191.98 2.1488C192.611 2.78042 192.967 3.6366 192.968 4.52983L194.968 4.52617ZM193.394 0.734586C192.388 -0.271203 191.025 -0.8374 189.602 -0.839998L189.599 1.16C190.492 1.16163 191.348 1.51719 191.98 2.1488L193.394 0.734586ZM189.6 -0.839999H35.1284V1.16H189.6V-0.839999Z" fill="black" mask="url(#path-3-inside-2_2258_16304)"/>
<mask id="path-5-inside-3_2258_16304" fill="white">
<path d="M362.649 226.24H208.169C206.958 226.238 205.797 225.756 204.941 224.9C204.085 224.044 203.603 222.883 203.601 221.672V4.528C203.613 3.32409 204.1 2.17366 204.955 1.32607C205.81 0.478487 206.965 0.00203863 208.169 0H362.649C363.85 0.0041636 365.002 0.481799 365.854 1.32938C366.706 2.17697 367.19 3.3262 367.201 4.528V221.672C367.201 222.881 366.722 224.04 365.868 224.896C365.015 225.753 363.857 226.236 362.649 226.24ZM208.169 0.160001C207.011 0.162115 205.901 0.622992 205.082 1.44169C204.264 2.26039 203.803 3.37018 203.801 4.528V221.672C203.803 222.83 204.264 223.94 205.082 224.758C205.901 225.577 207.011 226.038 208.169 226.04H362.649C363.806 226.038 364.916 225.577 365.735 224.758C366.554 223.94 367.014 222.83 367.017 221.672V4.528C367.014 3.37018 366.554 2.26039 365.735 1.44169C364.916 0.622992 363.806 0.162115 362.649 0.160001H208.169Z"/>
</mask>
<path d="M362.649 226.24H208.169C206.958 226.238 205.797 225.756 204.941 224.9C204.085 224.044 203.603 222.883 203.601 221.672V4.528C203.613 3.32409 204.1 2.17366 204.955 1.32607C205.81 0.478487 206.965 0.00203863 208.169 0H362.649C363.85 0.0041636 365.002 0.481799 365.854 1.32938C366.706 2.17697 367.19 3.3262 367.201 4.528V221.672C367.201 222.881 366.722 224.04 365.868 224.896C365.015 225.753 363.857 226.236 362.649 226.24ZM208.169 0.160001C207.011 0.162115 205.901 0.622992 205.082 1.44169C204.264 2.26039 203.803 3.37018 203.801 4.528V221.672C203.803 222.83 204.264 223.94 205.082 224.758C205.901 225.577 207.011 226.038 208.169 226.04H362.649C363.806 226.038 364.916 225.577 365.735 224.758C366.554 223.94 367.014 222.83 367.017 221.672V4.528C367.014 3.37018 366.554 2.26039 365.735 1.44169C364.916 0.622992 363.806 0.162115 362.649 0.160001H208.169Z" fill="#EBEBEB"/>
<path d="M208.169 226.24L208.167 227.24H208.169V226.24ZM203.601 221.672H202.601L202.601 221.674L203.601 221.672ZM203.601 4.528L202.601 4.51751V4.528H203.601ZM208.169 0V-1L208.167 -0.999999L208.169 0ZM362.649 0L362.652 -1H362.649V0ZM367.201 4.528H368.201L368.201 4.51925L367.201 4.528ZM367.201 221.672H366.201V221.672L367.201 221.672ZM208.169 0.160001V-0.840001L208.167 -0.839998L208.169 0.160001ZM203.801 4.528L202.801 4.52617V4.528H203.801ZM203.801 221.672H202.801L202.801 221.674L203.801 221.672ZM208.169 226.04L208.167 227.04H208.169V226.04ZM362.649 226.04V227.04H362.65L362.649 226.04ZM367.017 221.672L368.017 221.674V221.672H367.017ZM367.017 4.528H368.017V4.52617L367.017 4.528ZM362.649 0.160001L362.65 -0.839999H362.649V0.160001ZM362.649 225.24H208.169V227.24H362.649V225.24ZM208.17 225.24C207.224 225.238 206.317 224.862 205.648 224.193L204.234 225.607C205.277 226.65 206.691 227.237 208.167 227.24L208.17 225.24ZM205.648 224.193C204.979 223.524 204.602 222.616 204.601 221.67L202.601 221.674C202.603 223.149 203.19 224.564 204.234 225.607L205.648 224.193ZM204.601 221.672V4.528H202.601V221.672H204.601ZM204.601 4.53849C204.61 3.59768 204.991 2.69865 205.659 2.03628L204.251 0.615865C203.209 1.64867 202.616 3.05051 202.601 4.51751L204.601 4.53849ZM205.659 2.03628C206.327 1.37392 207.229 1.00159 208.17 0.999999L208.167 -0.999999C206.7 -0.997514 205.293 -0.416945 204.251 0.615865L205.659 2.03628ZM208.169 1H362.649V-1H208.169V1ZM362.645 0.999994C363.584 1.00325 364.483 1.37632 365.149 2.03836L366.559 0.620409C365.521 -0.412722 364.117 -0.994919 362.652 -0.999994L362.645 0.999994ZM365.149 2.03836C365.815 2.70039 366.192 3.59804 366.201 4.53675L368.201 4.51925C368.188 3.05436 367.598 1.65354 366.559 0.620409L365.149 2.03836ZM366.201 4.528V221.672H368.201V4.528H366.201ZM366.201 221.672C366.201 222.616 365.826 223.522 365.16 224.191L366.577 225.602C367.617 224.559 368.201 223.145 368.201 221.672L366.201 221.672ZM365.16 224.191C364.494 224.859 363.589 225.237 362.645 225.24L362.652 227.24C364.125 227.235 365.537 226.646 366.577 225.602L365.16 224.191ZM208.167 -0.839998C206.744 -0.8374 205.381 -0.271203 204.375 0.734586L205.789 2.1488C206.421 1.51719 207.277 1.16163 208.17 1.16L208.167 -0.839998ZM204.375 0.734586C203.369 1.74038 202.803 3.10378 202.801 4.52617L204.801 4.52983C204.802 3.63659 205.158 2.78041 205.789 2.1488L204.375 0.734586ZM202.801 4.528V221.672H204.801V4.528H202.801ZM202.801 221.674C202.803 223.096 203.369 224.46 204.375 225.465L205.789 224.051C205.158 223.42 204.802 222.563 204.801 221.67L202.801 221.674ZM204.375 225.465C205.381 226.471 206.744 227.037 208.167 227.04L208.17 225.04C207.277 225.038 206.421 224.683 205.789 224.051L204.375 225.465ZM208.169 227.04H362.649V225.04H208.169V227.04ZM362.65 227.04C364.073 227.037 365.436 226.471 366.442 225.465L365.028 224.051C364.396 224.683 363.54 225.038 362.647 225.04L362.65 227.04ZM366.442 225.465C367.448 224.46 368.014 223.096 368.017 221.674L366.017 221.67C366.015 222.563 365.659 223.42 365.028 224.051L366.442 225.465ZM368.017 221.672V4.528H366.017V221.672H368.017ZM368.017 4.52617C368.014 3.10378 367.448 1.74038 366.442 0.734586L365.028 2.1488C365.659 2.78041 366.015 3.63659 366.017 4.52983L368.017 4.52617ZM366.442 0.734586C365.436 -0.271203 364.073 -0.8374 362.65 -0.839998L362.647 1.16C363.54 1.16163 364.396 1.51719 365.028 2.1488L366.442 0.734586ZM362.649 -0.839999H208.169V1.16H362.649V-0.839999Z" fill="black" mask="url(#path-5-inside-3_2258_16304)"/>
<mask id="path-7-inside-4_2258_16304" fill="white">
<path d="M61.8239 269.536H41.0239V269.736H61.8239V269.536Z"/>
</mask>
<path d="M61.8239 269.536H41.0239V269.736H61.8239V269.536Z" fill="#EBEBEB"/>
<path d="M41.0239 269.536V268.536H40.0239V269.536H41.0239ZM61.8239 269.536H62.8239V268.536H61.8239V269.536ZM61.8239 269.736V270.736H62.8239V269.736H61.8239ZM41.0239 269.736H40.0239V270.736H41.0239V269.736ZM41.0239 270.536H61.8239V268.536H41.0239V270.536ZM60.8239 269.536V269.736H62.8239V269.536H60.8239ZM61.8239 268.736H41.0239V270.736H61.8239V268.736ZM42.0239 269.736V269.536H40.0239V269.736H42.0239Z" fill="black" mask="url(#path-7-inside-4_2258_16304)"/>
<mask id="path-9-inside-5_2258_16304" fill="white">
<path d="M152.144 267.368H116.12V267.568H152.144V267.368Z"/>
</mask>
<path d="M152.144 267.368H116.12V267.568H152.144V267.368Z" fill="#EBEBEB"/>
<path d="M116.12 267.368V266.368H115.12V267.368H116.12ZM152.144 267.368H153.144V266.368H152.144V267.368ZM152.144 267.568V268.568H153.144V267.568H152.144ZM116.12 267.568H115.12V268.568H116.12V267.568ZM116.12 268.368H152.144V266.368H116.12V268.368ZM151.144 267.368V267.568H153.144V267.368H151.144ZM152.144 266.568H116.12V268.568H152.144V266.568ZM117.12 267.568V267.368H115.12V267.568H117.12Z" fill="black" mask="url(#path-9-inside-5_2258_16304)"/>
<mask id="path-11-inside-6_2258_16304" fill="white">
<path d="M111.256 276.968H62.6235V277.168H111.256V276.968Z"/>
</mask>
<path d="M111.256 276.968H62.6235V277.168H111.256V276.968Z" fill="#EBEBEB"/>
<path d="M62.6235 276.968V275.968H61.6235V276.968H62.6235ZM111.256 276.968H112.256V275.968H111.256V276.968ZM111.256 277.168V278.168H112.256V277.168H111.256ZM62.6235 277.168H61.6235V278.168H62.6235V277.168ZM62.6235 277.968H111.256V275.968H62.6235V277.968ZM110.256 276.968V277.168H112.256V276.968H110.256ZM111.256 276.168H62.6235V278.168H111.256V276.168ZM63.6235 277.168V276.968H61.6235V277.168H63.6235Z" fill="black" mask="url(#path-11-inside-6_2258_16304)"/>
<mask id="path-13-inside-7_2258_16304" fill="white">
<path d="M358.975 275.624H343.591V275.824H358.975V275.624Z"/>
</mask>
<path d="M358.975 275.624H343.591V275.824H358.975V275.624Z" fill="#EBEBEB"/>
<path d="M343.591 275.624V274.624H342.591V275.624H343.591ZM358.975 275.624H359.975V274.624H358.975V275.624ZM358.975 275.824V276.824H359.975V275.824H358.975ZM343.591 275.824H342.591V276.824H343.591V275.824ZM343.591 276.624H358.975V274.624H343.591V276.624ZM357.975 275.624V275.824H359.975V275.624H357.975ZM358.975 274.824H343.591V276.824H358.975V274.824ZM344.591 275.824V275.624H342.591V275.824H344.591Z" fill="black" mask="url(#path-13-inside-7_2258_16304)"/>
<mask id="path-15-inside-8_2258_16304" fill="white">
<path d="M336.464 275.624H292.232V275.824H336.464V275.624Z"/>
</mask>
<path d="M336.464 275.624H292.232V275.824H336.464V275.624Z" fill="#EBEBEB"/>
<path d="M292.232 275.624V274.624H291.232V275.624H292.232ZM336.464 275.624H337.464V274.624H336.464V275.624ZM336.464 275.824V276.824H337.464V275.824H336.464ZM292.232 275.824H291.232V276.824H292.232V275.824ZM292.232 276.624H336.464V274.624H292.232V276.624ZM335.464 275.624V275.824H337.464V275.624H335.464ZM336.464 274.824H292.232V276.824H336.464V274.824ZM293.232 275.824V275.624H291.232V275.824H293.232Z" fill="black" mask="url(#path-15-inside-8_2258_16304)"/>
<mask id="path-17-inside-9_2258_16304" fill="white">
<path d="M265.216 272.248H205.64V272.448H265.216V272.248Z"/>
</mask>
<path d="M265.216 272.248H205.64V272.448H265.216V272.248Z" fill="#EBEBEB"/>
<path d="M205.64 272.248V271.248H204.64V272.248H205.64ZM265.216 272.248H266.216V271.248H265.216V272.248ZM265.216 272.448V273.448H266.216V272.448H265.216ZM205.64 272.448H204.64V273.448H205.64V272.448ZM205.64 273.248H265.216V271.248H205.64V273.248ZM264.216 272.248V272.448H266.216V272.248H264.216ZM265.216 271.448H205.64V273.448H265.216V271.448ZM206.64 272.448V272.248H204.64V272.448H206.64Z" fill="black" mask="url(#path-17-inside-9_2258_16304)"/>
<path d="M214.53 222.796L214.53 222.79L218.097 175.847C218.097 175.846 218.098 175.844 218.098 175.842C218.342 173.249 218.038 170.633 217.203 168.165C216.368 165.695 215.022 163.429 213.252 161.515C211.483 159.601 209.329 158.082 206.933 157.056C204.536 156.031 201.95 155.522 199.343 155.564C193.868 155.65 188.619 157.761 184.609 161.49C180.599 165.219 178.112 170.301 177.629 175.756L177.629 175.756L177.629 175.762L174.07 222.713C174.07 222.715 174.069 222.716 174.069 222.718C173.825 225.31 174.129 227.924 174.962 230.391C175.796 232.859 177.141 235.123 178.909 237.036C180.677 238.949 182.829 240.468 185.224 241.494C187.618 242.519 190.202 243.028 192.807 242.988C198.284 242.904 203.535 240.794 207.547 237.065C211.559 233.336 214.046 228.252 214.53 222.796ZM249.724 128.852L239.68 261.452H143.083L153.127 128.852H249.724Z" fill="#E6E6E6" stroke="black"/>
<path d="M271.371 253.652L270.648 261.42H129.349L130.079 253.652H271.371Z" fill="#E6E6E6" stroke="black"/>
<path d="M339.591 210.12L339.639 211.016C339.649 211.185 339.624 211.354 339.566 211.512C339.508 211.671 339.419 211.817 339.303 211.939C339.186 212.062 339.046 212.16 338.891 212.227C338.736 212.294 338.568 212.328 338.399 212.328H325.775M339.591 210.12C339.571 209.769 339.418 209.44 339.164 209.198C338.911 208.956 338.574 208.819 338.223 208.816M339.591 210.12L339.092 210.146L339.092 210.148C339.079 209.924 338.982 209.714 338.82 209.56C338.658 209.406 338.444 209.318 338.221 209.316M339.591 210.12L339.092 210.149L339.14 211.042L339.14 211.045C339.146 211.146 339.131 211.246 339.097 211.341C339.062 211.436 339.008 211.523 338.939 211.596C338.87 211.669 338.786 211.728 338.694 211.768C338.601 211.807 338.501 211.828 338.4 211.828H338.399H325.778M338.223 208.816H325.599C325.43 208.814 325.263 208.848 325.107 208.913C324.951 208.979 324.811 209.076 324.694 209.198C324.577 209.32 324.486 209.465 324.427 209.624C324.368 209.782 324.343 209.951 324.351 210.12M338.223 208.816L338.218 209.316C338.219 209.316 338.22 209.316 338.221 209.316M338.223 208.816V209.316H338.221M324.351 210.12L324.399 211.016M324.351 210.12L324.851 210.094L324.898 210.988M324.351 210.12L324.851 210.093L324.851 210.093C324.845 209.993 324.861 209.892 324.896 209.798C324.931 209.703 324.985 209.617 325.055 209.544C325.125 209.471 325.209 209.413 325.302 209.374C325.395 209.335 325.495 209.315 325.595 209.316L325.595 209.316H325.599H338.221M324.399 211.016C324.42 211.368 324.573 211.7 324.828 211.943C325.084 212.187 325.422 212.324 325.775 212.328M324.399 211.016L324.899 210.989L324.898 210.988M324.399 211.016L324.898 210.987C324.898 210.987 324.898 210.988 324.898 210.988M325.775 212.328L325.78 211.828C325.779 211.828 325.779 211.828 325.778 211.828M325.775 212.328V211.828H325.778M325.778 211.828C325.553 211.825 325.337 211.737 325.173 211.581C325.01 211.425 324.912 211.213 324.898 210.988" fill="#E0E0E0" stroke="black"/>
<path d="M317.136 208.816H304.536C304.367 208.814 304.2 208.848 304.044 208.913C303.888 208.979 303.748 209.076 303.631 209.198C303.514 209.32 303.423 209.465 303.364 209.624C303.305 209.782 303.28 209.951 303.288 210.12M317.136 208.816L317.131 209.316C317.132 209.316 317.133 209.316 317.134 209.316M317.136 208.816V209.316H317.134M317.136 208.816C317.487 208.819 317.824 208.956 318.078 209.198C318.331 209.44 318.484 209.769 318.504 210.12L303.788 210.094M317.134 209.316H304.536H304.532L304.532 209.316C304.432 209.315 304.332 209.335 304.239 209.374C304.146 209.413 304.062 209.471 303.992 209.544C303.922 209.617 303.868 209.703 303.833 209.798C303.798 209.892 303.782 209.993 303.788 210.093L303.788 210.093L303.288 210.12M317.134 209.316C317.357 209.318 317.571 209.406 317.733 209.56C317.895 209.714 317.992 209.924 318.005 210.148C318.005 210.148 318.005 210.148 318.005 210.149L318.053 211.042L318.053 211.042L318.053 211.048C318.06 211.149 318.046 211.249 318.011 211.344L318.482 211.514M303.288 210.12L303.788 210.094M303.288 210.12L303.336 211.016C303.358 211.367 303.512 211.698 303.767 211.941C304.022 212.184 304.36 212.322 304.712 212.328M303.788 210.094L303.835 210.986C303.85 211.212 303.949 211.423 304.112 211.579C304.276 211.735 304.491 211.823 304.717 211.828M303.788 210.094L304.717 211.828M304.712 212.328H317.312C317.482 212.329 317.65 212.296 317.805 212.229C317.961 212.163 318.102 212.065 318.218 211.942C318.335 211.819 318.424 211.673 318.482 211.514M304.712 212.328L304.72 211.828C304.719 211.828 304.718 211.828 304.717 211.828M304.712 212.328V211.828H304.717M318.482 211.514L318.011 211.344C317.977 211.439 317.924 211.525 317.855 211.599C317.786 211.672 317.702 211.73 317.61 211.769C317.517 211.809 317.417 211.829 317.317 211.828V211.828H317.312H304.717M318.482 211.514L304.717 211.828" fill="#E0E0E0" stroke="black"/>
<path d="M348.189 210.836H348.184H54.0823C52.557 210.819 51.0947 210.225 49.9903 209.172C48.8857 208.12 48.2213 206.688 48.1312 205.165C48.1311 205.164 48.1311 205.163 48.131 205.163L39.2753 28.511L39.2753 28.511L39.2749 28.5049C39.2296 27.7805 39.3343 27.0546 39.5823 26.3726C39.8304 25.6905 40.2164 25.067 40.7164 24.5409C41.2164 24.0148 41.8196 23.5976 42.4881 23.3153C43.1567 23.0329 43.8764 22.8916 44.6021 22.9L44.6021 22.9H44.6079H338.71C340.234 22.9148 341.697 23.5076 342.801 24.5588L343.146 24.1966L342.801 24.5588C343.906 25.6105 344.571 27.0425 344.661 28.5655L353.516 205.217L353.517 205.223C353.562 205.948 353.457 206.674 353.209 207.357C352.961 208.039 352.575 208.663 352.076 209.19C351.576 209.717 350.972 210.135 350.304 210.418C349.635 210.701 348.915 210.844 348.189 210.836Z" fill="#E0E0E0" stroke="black"/>
<path d="M351.788 210.836H351.784L57.6913 210.836C57.6905 210.836 57.6898 210.836 57.689 210.836C56.1578 210.825 54.6877 210.234 53.5759 209.181C52.4641 208.128 51.7934 206.693 51.6992 205.164C51.6991 205.163 51.699 205.163 51.699 205.162L42.8993 28.5113L42.8993 28.5113L42.8989 28.5049C42.8538 27.7818 42.958 27.0572 43.2051 26.3761C43.4523 25.6951 43.8371 25.0722 44.3355 24.5464C44.8339 24.0206 45.4352 23.603 46.1021 23.3198C46.769 23.0365 47.487 22.8937 48.2115 22.9001V22.9001H48.2159H342.311C343.841 22.9088 345.311 23.4988 346.424 24.5506C347.535 25.6018 348.206 27.0357 348.301 28.5624C348.301 28.5638 348.301 28.5653 348.301 28.5667L357.1 205.217L357.101 205.223C357.146 205.947 357.042 206.672 356.795 207.353C356.548 208.035 356.163 208.658 355.665 209.185C355.166 209.711 354.565 210.13 353.898 210.414C353.231 210.698 352.513 210.842 351.788 210.836Z" fill="#E6E6E6" stroke="black"/>
<path d="M51.6992 34.7031L51.6992 34.7031L51.6989 34.6983C51.6734 34.2698 51.7362 33.8407 51.8834 33.4375C52.0306 33.0344 52.2591 32.6658 52.5548 32.3546C52.8504 32.0434 53.2068 31.7964 53.602 31.6287C53.9971 31.4611 54.4224 31.3764 54.8516 31.38L54.8516 31.38H54.8558H336.55C337.458 31.388 338.33 31.741 338.988 32.3676C339.645 32.9943 340.041 33.8478 340.092 34.755C340.092 34.7554 340.093 34.7559 340.093 34.7564L348.3 199.033L348.301 199.039C348.327 199.467 348.265 199.896 348.119 200.299L348.589 200.469L348.119 200.299C347.973 200.702 347.745 201.07 347.45 201.381C347.155 201.693 346.799 201.94 346.404 202.107C346.01 202.275 345.585 202.36 345.156 202.356H345.152H63.4499C62.542 202.346 61.6716 201.993 61.0141 201.366C60.3565 200.74 59.9609 199.887 59.9071 198.981C59.907 198.98 59.907 198.979 59.9069 198.979L51.6992 34.7031Z" fill="#F5F5F5" stroke="black"/>
<path d="M68.0292 39.3089L68.0292 39.3089L68.0294 39.3126C68.0534 39.6817 68.0014 40.0517 67.8765 40.3999C67.7516 40.748 67.5566 41.0667 67.3034 41.3363C67.0503 41.6059 66.7444 41.8207 66.4049 41.9672C66.066 42.1134 65.7008 42.1886 65.3317 42.1881C64.5425 42.1785 63.7861 41.8704 63.2147 41.3259C62.6427 40.7807 62.2985 40.0391 62.2515 39.2504L62.2514 39.2489C62.2283 38.8804 62.281 38.5111 62.4064 38.1637C62.5317 37.8164 62.7269 37.4985 62.98 37.2296C63.233 36.9608 63.5385 36.7467 63.8776 36.6005C64.2163 36.4546 64.5813 36.3796 64.9501 36.3801C65.739 36.3862 66.4961 36.692 67.0679 37.2356C67.64 37.7796 67.9837 38.5208 68.0292 39.3089Z" fill="white" stroke="black"/>
<path d="M83.4447 39.3089L83.4447 39.3089L83.4449 39.3126C83.469 39.6817 83.4169 40.0517 83.2921 40.3999C83.1672 40.748 82.9721 41.0667 82.719 41.3363C82.4658 41.6059 82.16 41.8207 81.8204 41.9672C81.4815 42.1134 81.1163 42.1886 80.7472 42.1881C79.958 42.1785 79.2016 41.8704 78.6302 41.3259C78.0582 40.7807 77.714 40.0391 77.667 39.2504L77.6669 39.2489C77.6438 38.8804 77.6966 38.5111 77.8219 38.1637C77.9472 37.8164 78.1424 37.4985 78.3955 37.2296C78.6485 36.9608 78.9541 36.7467 79.2931 36.6005C79.6318 36.4546 79.9968 36.3796 80.3656 36.3801C81.1545 36.3862 81.9116 36.692 82.4834 37.2356C83.0555 37.7796 83.3992 38.5208 83.4447 39.3089ZM77.1679 39.2801C77.1405 38.8434 77.203 38.4057 77.3516 37.994C77.5001 37.5824 77.7315 37.2056 78.0314 36.887C78.3313 36.5683 78.6934 36.3145 79.0953 36.1414C79.4971 35.9682 79.9303 35.8793 80.3679 35.8801C81.2843 35.8867 82.1638 36.2418 82.828 36.8733C83.4921 37.5047 83.8911 38.3652 83.9439 39.2801H77.1679Z" fill="white" stroke="black"/>
<path d="M98.8694 39.31L98.8696 39.3126C98.8936 39.6817 98.8416 40.0517 98.7167 40.3999C98.5918 40.748 98.3967 41.0667 98.1436 41.3363C97.8904 41.6059 97.5846 41.8207 97.245 41.9672C96.906 42.1135 96.5406 42.1887 96.1714 42.1881C95.3827 42.1801 94.6266 41.8726 94.0562 41.3278C93.4854 40.7826 93.1434 40.0406 93.0997 39.2524L93.0997 39.2524L93.0995 39.2489C93.0764 38.8804 93.1292 38.5111 93.2545 38.1637C93.3798 37.8164 93.575 37.4985 93.8281 37.2296C94.0811 36.9608 94.3867 36.7467 94.7258 36.6005C95.0641 36.4547 95.4287 36.3797 95.7971 36.3801C96.5843 36.3898 97.3386 36.697 97.9085 37.2401C98.479 37.7837 98.8224 38.5233 98.8694 39.31Z" fill="white" stroke="black"/>
<g opacity="0.6">
<path opacity="0.6" d="M165.805 31.3799L128.901 202.356H89.324L126.228 31.3799H165.805Z" fill="white" stroke="black"/>
<path opacity="0.6" d="M310.204 31.3799L273.3 202.356H264.043L300.947 31.3799H310.204Z" fill="white" stroke="black"/>
<path opacity="0.6" d="M232.429 31.3799L195.525 202.356H138.948L175.852 31.3799H232.429Z" fill="white" stroke="black"/>
</g>
<path d="M354.613 288.992C354.613 288.993 354.614 289.037 354.533 289.13C354.45 289.227 354.301 289.347 354.063 289.484C353.586 289.758 352.844 290.045 351.824 290.336C349.792 290.916 346.773 291.481 342.855 292.022C335.025 293.102 323.683 294.077 309.652 294.896C281.595 296.534 242.827 297.548 200.001 297.548C157.174 297.548 118.406 296.534 90.3491 294.896C76.3185 294.077 64.9761 293.102 57.1465 292.022C53.2284 291.481 50.2089 290.916 48.1772 290.336C47.1575 290.045 46.4156 289.758 45.9387 289.484C45.7002 289.347 45.5518 289.227 45.4681 289.13C45.3882 289.038 45.3886 288.995 45.3887 288.992L45.3887 288.992L45.3887 288.992C45.3886 288.989 45.3882 288.946 45.4681 288.854C45.5518 288.757 45.7002 288.637 45.9387 288.499C46.4156 288.225 47.1575 287.939 48.1772 287.648C50.2089 287.068 53.2284 286.503 57.1465 285.962C64.9761 284.881 76.3185 283.907 90.3491 283.087C118.406 281.449 157.174 280.436 200.001 280.436C242.827 280.436 281.595 281.449 309.652 283.087C323.683 283.907 335.025 284.881 342.855 285.962C346.773 286.503 349.792 287.068 351.824 287.648C352.844 287.939 353.586 288.225 354.063 288.499C354.301 288.637 354.45 288.757 354.533 288.854C354.614 288.947 354.613 288.99 354.613 288.992Z" fill="#F5F5F5" stroke="black"/>
<path d="M288.48 165.94H288.479H288.212C277.695 165.074 268.792 160.135 262.428 155.296C256.114 150.495 252.333 145.818 251.996 145.4C251.532 144.76 251.331 143.965 251.437 143.181C251.544 142.393 251.952 141.677 252.575 141.183C253.198 140.689 253.988 140.455 254.779 140.531C255.568 140.607 256.296 140.984 256.814 141.583C257.031 141.855 260.218 145.737 265.487 149.859C270.855 154.058 278.423 158.536 287.24 159.656L287.483 159.687L287.657 159.514C290.536 156.635 293.166 151.455 295.005 146.483C295.928 143.987 296.66 141.522 297.128 139.394C297.588 137.301 297.805 135.482 297.667 134.275V134.275V134.275V134.274V134.274V134.274V134.273V134.273V134.273V134.273V134.272V134.272V134.272V134.272V134.271V134.271V134.271V134.271V134.27V134.27V134.27V134.27V134.269V134.269V134.269V134.269V134.268V134.268V134.268V134.267V134.267V134.267V134.267V134.266V134.266V134.266V134.266V134.265V134.265V134.265V134.265V134.264V134.264V134.264V134.264V134.263V134.263V134.263V134.263V134.262V134.262V134.262V134.262V134.261V134.261V134.261V134.261V134.26V134.26V134.26V134.259V134.259V134.259V134.259V134.258V134.258V134.258V134.258V134.257V134.257V134.257V134.257V134.256V134.256V134.256V134.256V134.255V134.255V134.255V134.255V134.254V134.254V134.254V134.254V134.253V134.253V134.253V134.253V134.252V134.252V134.252V134.252V134.251V134.251V134.251V134.251V134.25V134.25V134.25V134.25V134.249V134.249V134.249V134.249V134.248V134.248V134.248V134.248V134.247V134.247V134.247V134.247V134.246V134.246V134.246V134.246V134.245V134.245V134.245V134.245V134.244V134.244V134.244V134.244V134.243V134.243V134.243V134.243V134.242V134.242V134.242V134.242V134.241V134.241V134.241V134.241V134.24V134.24V134.24V134.24V134.239V134.239V134.239V134.239V134.238V134.238V134.238V134.238V134.237V134.237V134.237V134.237V134.236V134.236V134.236V134.236V134.235V134.235V134.235V134.235V134.234V134.234V134.234V134.234V134.234V134.233V134.233V134.233V134.233V134.232V134.232V134.232V134.232V134.231V134.231V134.231V134.231V134.23V134.23V134.23V134.23V134.229V134.229V134.229V134.229V134.228V134.228V134.228V134.228V134.227V134.227V134.227V134.227V134.226V134.226V134.226V134.226V134.225V134.225V134.225V134.225V134.225V134.224V134.224V134.224V134.224V134.223V134.223V134.223V134.223V134.222V134.222V134.222V134.222V134.221V134.221V134.221V134.221V134.22V134.22V134.22V134.22V134.219V134.219V134.219V134.219V134.218V134.218V134.218V134.218V134.218V134.217V134.217V134.217V134.217V134.216V134.216V134.216V134.216V134.215V134.215V134.215V134.215V134.214V134.214V134.214V134.214V134.213V134.213V134.213V134.213V134.213V134.212V134.212V134.212V134.212V134.211V134.211V134.211V134.211V134.21V134.21V134.21V134.21V134.209V134.209V134.209V134.209V134.208V134.208V134.208V134.208V134.208V134.207V134.207V134.207V134.207V134.206V134.206V134.206V134.206V134.205V134.205V134.205V134.205V134.204V134.204V134.204V134.204V134.203V134.203V134.203V134.203V134.203V134.202V134.202V134.202V134.202V134.201V134.201V134.201V134.201V134.2V134.2V134.2V134.2V134.199V134.199V134.199V134.199V134.199V134.198V134.198V134.198V134.198V134.197V134.197V134.197V134.197V134.196V134.196V134.196V134.196V134.195V134.195V134.195V134.195V134.194V134.194V134.194V134.194V134.194V134.193V134.193V134.193V134.193V134.192V134.192V134.192V134.192V134.191V134.191V134.191V134.191V134.19V134.19V134.19V134.19V134.19V134.189V134.189V134.189V134.189V134.188V134.188V134.188V134.188V134.187V134.187V134.187V134.187V134.187V134.186V134.186V134.186V134.186V134.185V134.185V134.185V134.185V134.184V134.184V134.184V134.184V134.183V134.183V134.183V134.183V134.183V134.182V134.182V134.182V134.182V134.181V134.181V134.181V134.181V134.18V134.18V134.18V134.18V134.179V134.179V134.179V134.179V134.179V134.178V134.178V134.178V134.178V134.177V134.177V134.177V134.177V134.176V134.176V134.157L297.666 134.137C297.611 133.428 297.516 131.852 297.609 130.098C297.703 128.34 297.983 126.464 298.638 125.098C299.039 124.464 299.66 123.998 300.382 123.789C301.112 123.578 301.895 123.644 302.579 123.976C303.263 124.308 303.8 124.881 304.086 125.585C304.37 126.283 304.387 127.06 304.136 127.77C304.022 128.021 303.94 128.374 303.879 128.754C303.813 129.161 303.762 129.647 303.729 130.174C303.663 131.226 303.663 132.465 303.749 133.598L303.749 133.606L303.75 133.614C303.942 135.377 303.704 137.858 303.096 140.711C302.49 143.555 301.523 146.734 300.282 149.882C297.791 156.199 294.233 162.292 290.343 165.316C289.807 165.722 289.152 165.941 288.48 165.94Z" fill="#263238" stroke="black"/>
<path d="M80.5826 128.901L80.5797 128.898C80.1069 128.371 79.8308 127.697 79.7982 126.99C79.7656 126.283 79.9785 125.586 80.4008 125.018C83.3085 121.108 87.3211 114.557 90.8033 108.246C94.2764 101.951 97.2642 95.818 98.0825 92.7614L98.1332 92.5723L98.0419 92.3991C97.2393 90.8754 96.0263 89.6068 94.5402 88.7366L94.52 88.7248L94.4988 88.7149C94.0156 88.4897 93.5996 88.1422 93.2921 87.7068C92.9845 87.2714 92.796 86.7632 92.7453 86.2325L92.7452 86.2312L92.1701 80.3849C92.1246 79.594 92.386 78.816 92.9001 78.2129C93.4161 77.6076 94.1465 77.2256 94.938 77.1473C95.7296 77.0689 96.5207 77.3003 97.1454 77.7927C97.7676 78.2832 98.1764 78.9948 98.2869 79.7791L98.686 83.841L98.7071 84.0567L98.879 84.1887C101.176 85.9529 102.996 88.2636 104.173 90.9104C104.378 91.4001 104.453 91.9344 104.391 92.4618L104.391 92.4625C104.216 93.9717 103.46 96.2528 102.294 99.0093C101.134 101.752 99.5865 104.92 97.8614 108.187C94.4109 114.72 90.2625 121.62 87.1065 126.246L86.8726 126.589L87.1666 126.882C102.079 141.746 119.895 140.438 120.807 140.355C121.607 140.3 122.397 140.561 123.008 141.081C123.62 141.601 124.004 142.341 124.078 143.141C124.151 143.942 123.909 144.739 123.402 145.363C122.898 145.984 122.17 146.384 121.375 146.478C121.16 146.495 120.355 146.556 119.058 146.556C111.768 146.467 104.577 144.851 97.9496 141.81C91.3216 138.769 85.4052 134.371 80.5826 128.901Z" fill="#263238" stroke="black"/>
<path d="M224.695 288.372H224.695C224.221 288.372 223.754 288.263 223.329 288.053C222.904 287.842 222.534 287.537 222.247 287.16C221.96 286.783 221.764 286.344 221.674 285.879C221.584 285.414 221.603 284.934 221.729 284.478C224.243 275.449 225.48 268.097 226.402 256.616L226.407 256.544L226.392 256.472C223.033 240.626 219.87 226.184 219.777 225.764C219.63 224.979 219.794 224.168 220.234 223.502C220.676 222.834 221.361 222.364 222.143 222.193C222.926 222.022 223.744 222.162 224.424 222.585C225.097 223.004 225.583 223.665 225.78 224.432C225.78 224.434 225.78 224.436 225.781 224.437C225.783 224.452 225.786 224.469 225.79 224.487C225.797 224.523 225.807 224.573 225.819 224.634C225.845 224.757 225.882 224.934 225.931 225.162C226.028 225.616 226.17 226.276 226.351 227.113C226.544 228.003 226.781 229.096 227.055 230.358C227.297 231.468 227.566 232.71 227.86 234.062C229.113 239.838 230.794 247.617 232.51 255.704L232.511 255.707C232.573 255.993 232.592 256.287 232.565 256.579L232.565 256.579L232.565 256.585C231.766 266.855 230.721 273.938 228.842 281.609L228.69 282.228H229.327H234.259C235.045 282.268 235.785 282.608 236.328 283.177C236.874 283.749 237.178 284.509 237.178 285.3C237.178 286.091 236.874 286.851 236.328 287.423C235.785 287.992 235.044 288.332 234.259 288.372H224.695Z" fill="#263238" stroke="black"/>
<path d="M160.756 288.374V288.372H160.256H154.848H154.847C154.407 288.374 153.973 288.28 153.573 288.099C153.173 287.918 152.816 287.652 152.528 287.321C152.239 286.989 152.026 286.6 151.902 286.178C151.777 285.757 151.745 285.314 151.807 284.879L151.807 284.878C152.26 281.653 153.644 277.069 155.558 271.765C157.468 266.47 159.894 260.491 162.413 254.49L162.441 254.423L162.449 254.352C164.233 238.512 165.689 224.909 165.706 224.746L165.706 224.746L165.707 224.737C165.741 224.327 165.856 223.928 166.048 223.564C166.239 223.199 166.501 222.877 166.819 222.615C167.137 222.354 167.504 222.159 167.899 222.042C168.293 221.925 168.707 221.889 169.116 221.935C169.525 221.981 169.921 222.109 170.28 222.31C170.638 222.512 170.953 222.784 171.205 223.109C171.457 223.435 171.641 223.807 171.746 224.205C171.851 224.603 171.875 225.018 171.817 225.426L171.812 225.461V225.478C171.812 225.483 171.811 225.491 171.81 225.502C171.807 225.531 171.803 225.574 171.797 225.63C171.786 225.742 171.769 225.906 171.747 226.118C171.702 226.542 171.636 227.159 171.552 227.946C171.382 229.52 171.138 231.774 170.836 234.526C170.233 240.029 169.403 247.525 168.495 255.56L168.495 255.561C168.464 255.849 168.39 256.13 168.276 256.396L168.275 256.4C164.734 264.897 160.672 274.943 158.815 281.61L158.638 282.244H159.296H160.256H160.268L160.28 282.244C160.696 282.224 161.111 282.289 161.501 282.434L161.676 281.966L161.501 282.434C161.891 282.58 162.247 282.803 162.548 283.09C162.85 283.377 163.089 283.723 163.253 284.105C163.417 284.488 163.501 284.9 163.501 285.316C163.501 285.732 163.417 286.144 163.253 286.527C163.089 286.909 162.85 287.255 162.548 287.542C162.247 287.829 161.891 288.052 161.501 288.198C161.26 288.288 161.01 288.347 160.756 288.374Z" fill="#263238" stroke="black"/>
<path d="M122.201 230.9C120.293 180.873 120.131 132.618 122.21 86.6724L163.575 45.3H258.922C255.973 104.268 256.226 166.386 258.926 230.9H122.201Z" fill="white" stroke="black"/>
<path d="M121.719 232.104H259.447C259.544 232.104 259.64 232.083 259.728 232.043C259.816 232.003 259.895 231.944 259.959 231.872L121.719 232.104ZM121.719 232.104C121.534 232.104 121.355 232.033 121.221 231.905L121.719 232.104ZM259.445 231.604C259.457 231.604 259.469 231.603 259.481 231.6C259.495 231.598 259.509 231.593 259.522 231.587C259.546 231.576 259.567 231.56 259.585 231.541L259.592 231.532L259.6 231.524C259.62 231.504 259.635 231.48 259.646 231.453C259.651 231.439 259.655 231.424 259.657 231.409C259.659 231.396 259.66 231.383 259.66 231.37C256.787 162.911 256.787 101.88 259.66 44.7908L259.66 44.7826C259.662 44.7555 259.658 44.7282 259.649 44.7026L259.649 44.7026C259.64 44.677 259.625 44.6537 259.606 44.634L259.605 44.6324C259.584 44.6109 259.56 44.5937 259.532 44.5819C259.505 44.5702 259.476 44.5641 259.447 44.564H163.367H163.367C163.339 44.5639 163.311 44.5694 163.285 44.58C163.26 44.5906 163.237 44.606 163.217 44.6255L259.445 231.604ZM259.445 231.604H121.719H121.719C121.662 231.604 121.608 231.582 121.567 231.543C121.526 231.504 121.502 231.451 121.499 231.395C119.508 179.193 119.508 130.409 121.499 86.4275C121.503 86.3739 121.526 86.3235 121.564 86.2859L121.564 86.2859L121.569 86.2815L163.217 44.6259L259.445 231.604ZM121.9 230.691L121.918 231.172H122.399H258.703H259.225L259.203 230.651C256.371 162.775 256.364 102.207 259.203 45.521L259.229 44.996H258.703H163.663H163.456L163.31 45.1423L122.046 86.3903L121.909 86.5276L121.9 86.7216C119.939 130.45 119.939 178.88 121.9 230.691Z" fill="#263238" stroke="black"/>
<path d="M170.924 131.375L170.924 131.375C171 133.032 170.625 134.521 169.985 135.591C169.342 136.665 168.47 137.265 167.549 137.3C166.626 137.336 165.698 136.801 164.957 135.773C164.22 134.749 163.712 133.287 163.643 131.627C163.575 129.965 163.95 128.47 164.589 127.398C165.23 126.322 166.097 125.724 167.017 125.692C167.94 125.66 168.865 126.197 169.604 127.226C170.34 128.251 170.848 129.714 170.924 131.375Z" fill="#B75400" stroke="black"/>
<path d="M215.313 124.604C216.235 124.572 217.16 125.109 217.899 126.137C218.635 127.161 219.143 128.622 219.22 130.279C219.296 131.939 218.919 133.431 218.277 134.502C217.633 135.577 216.761 136.177 215.844 136.213C214.926 136.248 213.998 135.713 213.256 134.685C212.517 133.661 212.007 132.199 211.939 130.54C211.87 128.877 212.246 127.383 212.885 126.31C213.526 125.234 214.393 124.636 215.313 124.604Z" fill="#B75400" stroke="black"/>
<path d="M183.646 146.071L183.646 146.071L183.654 146.068C187.281 144.713 191.146 144.105 195.014 144.281C198.877 144.456 202.665 145.41 206.151 147.084C206.207 147.116 206.256 147.158 206.296 147.209C206.338 147.263 206.37 147.324 206.388 147.39C206.407 147.455 206.412 147.524 206.404 147.592C206.396 147.659 206.374 147.724 206.341 147.783C206.27 147.905 206.155 147.994 206.02 148.032C205.884 148.07 205.739 148.053 205.615 147.986L205.615 147.986L205.61 147.983L205.61 147.983L205.609 147.982L205.605 147.98L205.595 147.975L205.562 147.957C205.534 147.943 205.495 147.923 205.446 147.899C205.348 147.849 205.207 147.781 205.027 147.698C204.666 147.533 204.146 147.31 203.483 147.067C202.159 146.582 200.264 146.017 197.941 145.677C193.293 144.997 186.933 145.219 180.02 148.779C179.893 148.842 179.747 148.854 179.612 148.812L179.463 149.29L179.612 148.812C179.477 148.771 179.364 148.679 179.296 148.556C179.265 148.497 179.247 148.432 179.241 148.366C179.235 148.298 179.243 148.23 179.264 148.165C179.285 148.1 179.318 148.039 179.362 147.987C179.406 147.935 179.461 147.893 179.521 147.862L179.521 147.862L179.525 147.86C180.856 147.171 182.233 146.573 183.646 146.071Z" fill="#B75400" stroke="black"/>
<path d="M165.823 101.518L165.823 101.518L165.82 101.523C164.267 104.291 162.07 106.643 159.414 108.38C156.763 110.114 153.734 111.185 150.582 111.501C150.174 111.514 149.777 111.367 149.474 111.092C149.169 110.814 148.986 110.428 148.963 110.016C148.955 109.814 148.986 109.613 149.055 109.423C149.124 109.233 149.23 109.058 149.367 108.909C149.504 108.76 149.669 108.639 149.852 108.554C150.034 108.469 150.231 108.421 150.431 108.412C150.976 108.401 158.464 107.834 163.134 99.9509L163.134 99.951L163.139 99.9419C163.275 99.7022 163.473 99.5039 163.712 99.3683C163.952 99.2327 164.223 99.1648 164.499 99.1719C164.769 99.1794 165.033 99.2547 165.266 99.391C165.62 99.6009 165.877 99.9417 165.981 100.34C166.086 100.738 166.029 101.161 165.823 101.518Z" fill="#B75400" stroke="black"/>
<path d="M212.804 97.999L212.839 98.0059L212.936 97.9867C213.189 97.9368 213.45 97.9506 213.696 98.0266C213.943 98.1027 214.166 98.2388 214.347 98.4226L214.347 98.4226L214.35 98.4257C220.919 104.995 228.435 103.689 228.809 103.62C229.211 103.548 229.625 103.634 229.964 103.861C230.303 104.086 230.542 104.434 230.63 104.832C230.67 105.029 230.67 105.231 230.632 105.429C230.593 105.627 230.515 105.816 230.403 105.984C230.291 106.152 230.147 106.296 229.978 106.409C229.811 106.52 229.624 106.598 229.427 106.637C229.424 106.637 229.422 106.638 229.419 106.638C228.909 106.731 219.909 108.371 212.105 100.574L212.105 100.574L212.103 100.573C211.905 100.376 211.764 100.13 211.696 99.8591C211.627 99.5885 211.634 99.3045 211.715 99.0375C211.797 98.7705 211.949 98.5309 212.157 98.3444C212.342 98.1782 212.564 98.0599 212.804 97.999Z" fill="#B75400" stroke="black"/>
<path opacity="0.2" d="M242.103 76.4198L257.144 72.4733L256.878 119.432L251.481 119.934L251.481 119.934C250.59 120.018 249.7 119.773 248.977 119.247C248.253 118.72 247.746 117.948 247.552 117.075L239.448 80.7719C239.448 80.7718 239.448 80.7717 239.448 80.7716C239.242 79.8437 239.403 78.8722 239.898 78.0609C240.393 77.2495 241.183 76.6613 242.102 76.4198C242.103 76.4198 242.103 76.4198 242.103 76.4198Z" fill="black" stroke="black"/>
<path opacity="0.2" d="M122.632 86.2184L162.446 46.3976C158.886 62.2206 162.645 78.9449 166.516 89.7342C152.066 91.4973 134.208 89.9174 122.632 86.2184Z" fill="black" stroke="black"/>
<path d="M122.752 86.1146L162.428 46.4314C160.009 56.4797 158.589 73.2506 162.703 86.021C148.375 87.831 134.88 88.1835 122.752 86.1146Z" fill="white" stroke="black"/>
<path d="M140.796 88.236L140.795 88.236C134.39 88.2836 127.994 87.7506 121.686 86.6435L121.686 86.6435L121.68 86.6426C121.643 86.6365 121.608 86.6201 121.58 86.5954L121.252 86.9727L121.58 86.5954C121.551 86.5706 121.53 86.5384 121.519 86.5023C121.507 86.4663 121.506 86.4278 121.516 86.3912C121.525 86.3545 121.544 86.3212 121.571 86.2949L121.571 86.2949L121.577 86.2895L163.225 44.6335L163.228 44.6305C163.261 44.5969 163.304 44.5752 163.351 44.569C163.398 44.5628 163.445 44.5723 163.486 44.5961C163.526 44.6198 163.558 44.6565 163.576 44.7003C163.593 44.7441 163.596 44.7924 163.583 44.8378L163.583 44.8378L163.581 44.8437C162.314 49.4603 161.159 56.4191 160.896 63.9246C160.634 71.4245 161.262 79.5087 163.587 86.3624C163.597 86.3943 163.6 86.4278 163.596 86.461C163.592 86.4947 163.581 86.5272 163.564 86.5565C163.548 86.5812 163.528 86.6021 163.503 86.6179C163.478 86.6339 163.45 86.644 163.42 86.6475L163.42 86.6474L163.412 86.6485C155.915 87.6605 148.361 88.1908 140.796 88.236ZM140.799 88.736C134.364 88.7838 127.938 88.2483 121.599 87.136L140.799 88.736ZM122.845 85.6146L122.158 86.3026L123.117 86.4613C134.251 88.3035 147.158 88.2601 162.461 86.3361L163.056 86.2613L162.876 85.6897C159.144 73.8516 159.986 58.1326 162.502 47.2325L162.895 45.5322L161.661 46.7666L122.845 85.6146Z" fill="#263238" stroke="black"/>
<path d="M306.488 146.788L306.495 146.788C306.544 146.79 306.593 146.783 306.64 146.769L306.65 146.766L306.659 146.764C306.748 146.741 306.83 146.701 306.903 146.646L307.204 147.046L306.903 146.646C306.976 146.592 307.037 146.523 307.083 146.444C307.13 146.366 307.16 146.279 307.172 146.189C307.185 146.099 307.179 146.007 307.156 145.919L306.488 146.788ZM306.488 146.788L306.48 146.788C306.328 146.788 306.179 146.737 306.058 146.644C305.937 146.551 305.85 146.42 305.812 146.273C305.812 146.273 305.811 146.273 305.811 146.273L291.14 90.3692L291.14 90.369C291.093 90.1906 291.119 90.001 291.211 89.8417C291.304 89.6824 291.457 89.5666 291.635 89.5197C291.814 89.4728 292.003 89.4987 292.162 89.5916C292.322 89.6845 292.437 89.8368 292.484 90.0151C292.484 90.0151 292.484 90.0152 292.484 90.0153L307.156 145.919L306.488 146.788Z" fill="#263238" stroke="black"/>
<mask id="path-49-inside-10_2258_16304" fill="white">
<path d="M333.807 66.9829L333.031 67.1829L334.133 71.4586L334.909 71.2586L333.807 66.9829Z"/>
</mask>
<path d="M333.807 66.9829L333.031 67.1829L334.133 71.4586L334.909 71.2586L333.807 66.9829Z" fill="#B75400"/>
<path d="M333.031 67.1829L332.781 66.2145L331.813 66.4641L332.062 67.4324L333.031 67.1829ZM333.807 66.9829L334.775 66.7333L334.526 65.7649L333.557 66.0145L333.807 66.9829ZM334.909 71.2586L335.158 72.227L336.127 71.9774L335.877 71.009L334.909 71.2586ZM334.133 71.4586L333.164 71.7082L333.414 72.6765L334.382 72.427L334.133 71.4586ZM333.28 68.1512L334.056 67.9512L333.557 66.0145L332.781 66.2145L333.28 68.1512ZM332.838 67.2324L333.94 71.5082L335.877 71.009L334.775 66.7333L332.838 67.2324ZM334.659 70.2903L333.883 70.4903L334.382 72.427L335.158 72.227L334.659 70.2903ZM335.101 71.209L333.999 66.9333L332.062 67.4324L333.164 71.7082L335.101 71.209Z" fill="black" mask="url(#path-49-inside-10_2258_16304)"/>
<mask id="path-51-inside-11_2258_16304" fill="white">
<path d="M331.287 60.872L328.207 49.136C327.788 47.5471 326.756 46.1893 325.338 45.36C323.919 44.5307 322.229 44.2977 320.639 44.712L312.583 46.824L312.383 46.024L320.439 43.904C322.233 43.4384 324.138 43.7022 325.738 44.6378C327.338 45.5733 328.502 47.1044 328.975 48.896L332.063 60.64L331.287 60.872Z"/>
</mask>
<path d="M331.287 60.872L328.207 49.136C327.788 47.5471 326.756 46.1893 325.338 45.36C323.919 44.5307 322.229 44.2977 320.639 44.712L312.583 46.824L312.383 46.024L320.439 43.904C322.233 43.4384 324.138 43.7022 325.738 44.6378C327.338 45.5733 328.502 47.1044 328.975 48.896L332.063 60.64L331.287 60.872Z" fill="#B75400"/>
<path d="M331.287 60.872L330.32 61.1259L330.583 62.1264L331.574 61.8301L331.287 60.872ZM328.207 49.136L329.175 48.8822L329.174 48.881L328.207 49.136ZM320.639 44.712L320.387 43.7443L320.386 43.7447L320.639 44.712ZM312.583 46.824L311.613 47.0666L311.858 48.0478L312.837 47.7913L312.583 46.824ZM312.383 46.024L312.129 45.0569L311.174 45.3083L311.413 46.2666L312.383 46.024ZM320.439 43.904L320.188 42.9361L320.185 42.9369L320.439 43.904ZM328.975 48.896L329.942 48.6417L329.942 48.6404L328.975 48.896ZM332.063 60.64L332.35 61.5981L333.276 61.3211L333.03 60.3857L332.063 60.64ZM332.255 60.6182L329.175 48.8822L327.24 49.3899L330.32 61.1259L332.255 60.6182ZM329.174 48.881C328.688 47.0361 327.489 45.4595 325.842 44.4967L324.833 46.2233C326.023 46.919 326.889 48.0582 327.24 49.3911L329.174 48.881ZM325.842 44.4967C324.195 43.5338 322.233 43.2633 320.387 43.7443L320.891 45.6797C322.225 45.3321 323.643 45.5276 324.833 46.2233L325.842 44.4967ZM320.386 43.7447L312.33 45.8567L312.837 47.7913L320.893 45.6793L320.386 43.7447ZM313.553 46.5815L313.353 45.7815L311.413 46.2666L311.613 47.0666L313.553 46.5815ZM312.638 46.9911L320.694 44.8711L320.185 42.9369L312.129 45.0569L312.638 46.9911ZM320.691 44.8719C322.228 44.4728 323.862 44.6989 325.233 45.501L326.243 43.7745C324.415 42.7055 322.238 42.404 320.188 42.9361L320.691 44.8719ZM325.233 45.501C326.605 46.303 327.602 47.6156 328.009 49.1516L329.942 48.6404C329.401 46.5931 328.071 44.8436 326.243 43.7745L325.233 45.501ZM328.008 49.1503L331.096 60.8943L333.03 60.3857L329.942 48.6417L328.008 49.1503ZM331.777 59.6819L331.001 59.9139L331.574 61.8301L332.35 61.5981L331.777 59.6819Z" fill="black" mask="url(#path-51-inside-11_2258_16304)"/>
<path d="M245.006 67.1623L321.281 47.152C323.253 46.6345 325.271 47.814 325.789 49.7862L335.442 86.5811C335.959 88.5534 334.78 90.5717 332.807 91.0891L256.533 111.099C254.56 111.617 252.542 110.437 252.025 108.465L242.372 71.6703C241.854 69.698 243.034 67.6797 245.006 67.1623Z" fill="#B75400" stroke="black"/>
<path d="M269.358 102.639L317.482 90.0144C319.454 89.497 321.473 90.6764 321.99 92.6487L325.007 104.148C325.524 106.12 324.345 108.138 322.372 108.656L274.249 121.281C272.277 121.798 270.258 120.619 269.741 118.646L266.724 107.147C266.207 105.175 267.386 103.157 269.358 102.639Z" fill="#B75400" stroke="black"/>
<path d="M269.014 81.9923L269.496 83.8131L264.234 85.1892L263.992 85.2524L264.056 85.4943L264.643 87.74L264.706 87.9812L264.947 87.9188L270.809 86.4036L271.352 88.5111L262.195 90.896L259.306 79.9553L268.299 77.6169L268.807 79.5744L263.117 81.0547L262.876 81.1176L262.938 81.3595L263.411 83.179L263.473 83.4206L263.715 83.3583L269.014 81.9923Z" fill="white" stroke="black" stroke-width="0.5"/>
<path d="M273.757 87.9008L270.901 76.9381L276.555 75.4693L276.555 75.4695L276.564 75.4669C277.375 75.2247 278.218 75.104 279.064 75.1088C279.622 75.1395 280.153 75.3557 280.573 75.723C280.999 76.1279 281.311 76.6369 281.48 77.1996C281.649 77.7624 281.668 78.3594 281.536 78.9318C281.4 79.4234 281.138 79.8709 280.775 80.2296C280.457 80.5284 280.091 80.773 279.694 80.9537L279.808 81.4311C280.095 81.4181 280.382 81.4626 280.651 81.5619C280.92 81.6611 281.167 81.8131 281.377 82.009L281.389 82.0205L281.403 82.0302C281.635 82.1947 281.854 82.3769 282.058 82.5752L284.348 85.1316L280.893 86.0376L278.225 83.1378C277.97 82.8171 277.651 82.5536 277.287 82.3645L277.268 82.3546L277.247 82.3481C276.893 82.2352 276.513 82.2345 276.158 82.346L275.854 82.4249L275.611 82.4878L275.674 82.7304L276.82 87.0952L273.757 87.9008ZM275.11 80.5285L275.171 80.7712L275.413 80.7096L276.911 80.3296L276.921 80.327L276.931 80.3236C277.253 80.2123 277.564 80.0728 277.862 79.9066C278.132 79.7783 278.342 79.5515 278.451 79.2727C278.592 78.949 278.606 78.5837 278.49 78.25C278.373 77.9143 278.132 77.6356 277.817 77.4705L277.798 77.4602L277.777 77.4536C277.277 77.2948 276.739 77.2941 276.239 77.4515L274.69 77.8529L274.45 77.9153L274.511 78.1561L275.11 80.5285Z" fill="white" stroke="black" stroke-width="0.5"/>
<path d="M286.183 84.6646L283.316 73.702L288.97 72.2333L288.97 72.2334L288.977 72.2313C289.79 71.9942 290.633 71.8735 291.48 71.8728C292.035 71.9045 292.563 72.1217 292.98 72.4897L292.981 72.4905C293.453 72.9037 293.781 73.458 293.914 74.0714L293.916 74.0787L293.918 74.0858C294.066 74.6139 294.066 75.1726 293.918 75.7006C293.78 76.1877 293.521 76.6323 293.167 76.9939C292.843 77.2915 292.477 77.5401 292.08 77.7317L292.187 78.2068C292.504 78.21 292.818 78.2621 293.119 78.3613C293.355 78.4789 293.578 78.6211 293.784 78.7856L293.784 78.7859L293.794 78.7936C294.023 78.9572 294.238 79.1392 294.438 79.338L296.739 81.9062L293.284 82.8022L290.594 79.913C290.337 79.588 290.012 79.3235 289.641 79.1382L289.624 79.1297L289.606 79.1239C289.255 79.0108 288.878 79.01 288.527 79.1215L288.222 79.2004L287.98 79.2633L288.043 79.5059L289.189 83.871L286.183 84.6646ZM287.548 77.304L287.609 77.5485L287.853 77.4847L289.35 77.0931L289.361 77.0902L289.372 77.0864C289.687 76.9727 289.992 76.8341 290.286 76.6721C290.421 76.6108 290.544 76.5237 290.647 76.4158C290.752 76.3062 290.834 76.1771 290.889 76.0359C291.027 75.7135 291.039 75.351 290.923 75.0201C290.806 74.6876 290.568 74.4114 290.256 74.2464L290.239 74.2371L290.22 74.2307C289.715 74.0586 289.168 74.0576 288.663 74.2277L287.128 74.6285L286.888 74.6912L286.949 74.9316L287.548 77.304Z" fill="white" stroke="black" stroke-width="0.5"/>
<path d="M296.443 76.1632L296.439 76.1472L296.434 76.1317C296.161 75.3908 296.055 74.5986 296.124 73.812C296.194 73.0254 296.436 72.264 296.835 71.5824C297.234 70.9007 297.778 70.3159 298.43 69.8698C299.081 69.4237 299.824 69.1275 300.603 69.0024L300.623 68.9993L300.642 68.9931C301.396 68.746 302.193 68.652 302.984 68.7165C303.772 68.7807 304.539 69.0008 305.241 69.3638C305.891 69.7814 306.451 70.3253 306.887 70.9633C307.325 71.6044 307.629 72.3273 307.781 73.0887L307.783 73.0998L307.787 73.1107C308.108 74.1924 308.169 75.3344 307.966 76.4442C307.758 77.3544 307.283 78.1819 306.602 78.8207C305.784 79.5522 304.793 80.0629 303.722 80.3044L303.714 80.3063L303.706 80.3086C302.653 80.6207 301.543 80.6895 300.46 80.5097C299.534 80.3206 298.686 79.8567 298.027 79.1787C297.243 78.3304 296.697 77.2903 296.443 76.1632ZM300.86 77.8117L300.875 77.8245L300.892 77.8349C301.208 78.0337 301.562 78.166 301.932 78.2239C302.301 78.2818 302.678 78.264 303.041 78.1716C303.403 78.0792 303.743 77.9142 304.04 77.6866C304.336 77.4589 304.584 77.1733 304.767 76.8472L304.779 76.8246L304.787 76.7999C305.091 75.8322 305.068 74.7914 304.722 73.8385C304.562 72.9308 304.083 72.1096 303.372 71.5225L303.362 71.5145L303.352 71.5075C303.036 71.2964 302.678 71.1582 302.303 71.103C301.93 71.0483 301.551 71.0765 301.191 71.1854C300.829 71.2669 300.49 71.4293 300.199 71.6604C299.906 71.8937 299.67 72.1908 299.509 72.5292L299.503 72.5407L299.499 72.5526C299.173 73.4677 299.171 74.4667 299.492 75.3831C299.655 76.3255 300.139 77.1832 300.86 77.8117Z" fill="white" stroke="black" stroke-width="0.5"/>
<path d="M317.701 71.5731C318.025 71.5843 318.345 71.6405 318.653 71.7402C318.885 71.8513 319.103 71.9892 319.303 72.151L319.309 72.1561L319.316 72.1609C319.547 72.324 319.761 72.5092 319.956 72.7139L322.259 75.2738L318.804 76.1798L316.114 73.2902C315.855 72.9677 315.532 72.7014 315.167 72.5074L315.145 72.4962L315.122 72.4891C314.773 72.3826 314.399 72.3821 314.049 72.4876L313.743 72.5669L313.5 72.6298L313.564 72.8724L314.71 77.2369L311.67 78.0316L308.813 67.0801L314.468 65.6113L314.468 65.6115L314.478 65.6083C315.287 65.36 316.13 65.2394 316.976 65.2507C317.535 65.2787 318.067 65.4953 318.486 65.8649C318.913 66.2682 319.226 66.7772 319.393 67.3405C319.56 67.9036 319.575 68.5009 319.437 69.0717C319.299 69.5611 319.041 70.0084 318.686 70.3733C318.368 70.6713 318.003 70.9153 317.606 71.0957L317.701 71.5731ZM313.022 70.6705L313.083 70.9132L313.326 70.8516L314.823 70.4715L314.835 70.4684L314.847 70.4641C315.166 70.3479 315.476 70.209 315.774 70.0485C316.041 69.9169 316.25 69.6922 316.362 69.4169C316.505 69.0926 316.519 68.7264 316.402 68.392C316.285 68.0563 316.045 67.7776 315.73 67.6125L315.712 67.6029L315.692 67.5964C315.192 67.4311 314.651 67.4303 314.15 67.5938L312.603 67.9949L312.362 68.0572L312.423 68.2981L313.022 70.6705Z" fill="white" stroke="black" stroke-width="0.5"/>
</svg>
