<svg xmlns="http://www.w3.org/2000/svg" width="370" height="215" viewBox="0 0 370 215" fill="none">
<rect x="1" y="1.66211" width="368" height="211.601" rx="3" fill="white" stroke="#9E9E9E" stroke-width="2"/>
<rect x="7" y="8.26318" width="356" height="198" rx="4" fill="#B75400"/>
<g clip-path="url(#clip0_3492_13600)">
<path d="M76.9304 114.985H72.9587V120.908H76.9304C78.5248 120.908 79.7866 119.504 79.7866 118.028C79.7833 116.366 78.5249 114.985 76.9304 114.985Z" fill="white"/>
<path d="M92.9155 115.102H88.9676V125.759H92.9155C99.3383 125.759 99.6211 115.102 92.9155 115.102Z" fill="white"/>
<path d="M125.275 101.888H59.825C58.1888 101.888 56.85 103.227 56.85 104.863V134.613C56.85 136.249 58.1888 137.588 59.825 137.588H125.275C126.914 137.588 128.25 136.249 128.25 134.613V104.863C128.25 103.227 126.914 101.888 125.275 101.888ZM76.9304 123.883H72.9587V127.024C72.9587 128.071 72.2926 128.663 71.4353 128.663C70.6498 128.663 69.8197 128.071 69.8197 127.021V113.631C69.8197 112.845 70.4386 111.986 71.4353 111.986L76.9304 111.985C80.0243 111.985 82.8087 114.056 82.8087 118.028C82.806 121.788 80.0243 123.883 76.9304 123.883L76.9304 123.883ZM93.1295 128.663H87.4684C86.6828 128.663 85.8261 128.232 85.8261 127.188V113.678C85.8261 112.821 86.6828 112.203 87.4684 112.203H92.9157C103.786 112.203 103.548 128.663 93.1295 128.663ZM114.327 115.294H107.401V119.075H113.468C114.328 119.075 115.181 119.931 115.181 120.765C115.181 121.55 114.327 122.19 113.468 122.19H107.401V127.185C107.401 128.018 106.809 128.661 105.976 128.661C104.929 128.661 104.286 128.018 104.286 127.185V113.675C104.286 112.819 104.932 112.2 105.976 112.2H114.327C115.374 112.2 115.99 112.819 115.99 113.675C115.99 114.44 115.374 115.294 114.327 115.294Z" fill="white"/>
<path d="M137.175 79.8307L117.582 60.2382C115.863 58.513 112.84 57.2632 110.401 57.2632H77.6757C72.755 57.2632 68.7507 61.2675 68.7507 66.1882V95.9382C68.7507 97.5831 70.0808 98.9132 71.7257 98.9132C73.3706 98.9132 74.7007 97.5831 74.7007 95.9382V66.1882C74.7007 64.5493 76.0334 63.2132 77.6757 63.2132H104.451C107.738 63.2132 110.401 65.8788 110.401 69.1632V80.3194C110.401 84.0023 113.417 87.0132 117.094 87.0132H128.251C131.538 87.0132 134.201 89.6788 134.201 92.9632V143.538C134.201 145.177 132.871 146.513 131.226 146.513H77.6757C76.0334 146.513 74.7007 145.177 74.7007 143.538C74.7007 141.893 73.3706 140.563 71.7257 140.563C70.0808 140.563 68.7507 141.893 68.7507 143.538C68.7507 148.459 72.755 152.463 77.6757 152.463H131.226C136.146 152.463 140.151 148.459 140.151 143.538V87.0132C140.151 84.5767 138.901 81.554 137.176 79.8314L137.175 79.8307Z" fill="white"/>
</g>
<path d="M181.812 78.7085H184.742C184.648 79.8257 184.336 80.8218 183.805 81.6968C183.273 82.564 182.527 83.2476 181.566 83.7476C180.605 84.2476 179.438 84.4976 178.062 84.4976C177.008 84.4976 176.059 84.3101 175.215 83.9351C174.371 83.5522 173.648 83.0132 173.047 82.3179C172.445 81.6147 171.984 80.7671 171.664 79.7749C171.352 78.7827 171.195 77.6733 171.195 76.4468V75.0288C171.195 73.8022 171.355 72.6929 171.676 71.7007C172.004 70.7085 172.473 69.8608 173.082 69.1577C173.691 68.4468 174.422 67.9038 175.273 67.5288C176.133 67.1538 177.098 66.9663 178.168 66.9663C179.527 66.9663 180.676 67.2163 181.613 67.7163C182.551 68.2163 183.277 68.9077 183.793 69.7905C184.316 70.6733 184.637 71.6851 184.754 72.8257H181.824C181.746 72.0913 181.574 71.4624 181.309 70.939C181.051 70.4155 180.668 70.0171 180.16 69.7437C179.652 69.4624 178.988 69.3218 178.168 69.3218C177.496 69.3218 176.91 69.4468 176.41 69.6968C175.91 69.9468 175.492 70.314 175.156 70.7983C174.82 71.2827 174.566 71.8804 174.395 72.5913C174.23 73.2944 174.148 74.0991 174.148 75.0054V76.4468C174.148 77.3062 174.223 78.0874 174.371 78.7905C174.527 79.4858 174.762 80.0835 175.074 80.5835C175.395 81.0835 175.801 81.4702 176.293 81.7437C176.785 82.0171 177.375 82.1538 178.062 82.1538C178.898 82.1538 179.574 82.021 180.09 81.7554C180.613 81.4897 181.008 81.103 181.273 80.5952C181.547 80.0796 181.727 79.4507 181.812 78.7085ZM201.32 75.2632V76.2007C201.32 77.4897 201.152 78.646 200.816 79.6694C200.48 80.6929 199.999 81.564 199.374 82.2827C198.757 83.0015 198.015 83.5522 197.148 83.9351C196.28 84.3101 195.32 84.4976 194.265 84.4976C193.218 84.4976 192.261 84.3101 191.394 83.9351C190.534 83.5522 189.788 83.0015 189.155 82.2827C188.523 81.564 188.03 80.6929 187.679 79.6694C187.335 78.646 187.163 77.4897 187.163 76.2007V75.2632C187.163 73.9741 187.335 72.8218 187.679 71.8062C188.023 70.7827 188.507 69.9116 189.132 69.1929C189.765 68.4663 190.511 67.9155 191.37 67.5405C192.238 67.1577 193.195 66.9663 194.241 66.9663C195.296 66.9663 196.257 67.1577 197.124 67.5405C197.991 67.9155 198.738 68.4663 199.363 69.1929C199.988 69.9116 200.468 70.7827 200.804 71.8062C201.148 72.8218 201.32 73.9741 201.32 75.2632ZM198.378 76.2007V75.2397C198.378 74.2866 198.284 73.4468 198.097 72.7202C197.917 71.9858 197.648 71.3726 197.288 70.8804C196.937 70.3804 196.503 70.0054 195.988 69.7554C195.472 69.4976 194.89 69.3687 194.241 69.3687C193.593 69.3687 193.015 69.4976 192.507 69.7554C191.999 70.0054 191.566 70.3804 191.206 70.8804C190.855 71.3726 190.585 71.9858 190.398 72.7202C190.21 73.4468 190.116 74.2866 190.116 75.2397V76.2007C190.116 77.1538 190.21 77.9976 190.398 78.7319C190.585 79.4663 190.859 80.0874 191.218 80.5952C191.585 81.0952 192.023 81.4741 192.53 81.7319C193.038 81.9819 193.616 82.1069 194.265 82.1069C194.921 82.1069 195.503 81.9819 196.011 81.7319C196.519 81.4741 196.948 81.0952 197.3 80.5952C197.652 80.0874 197.917 79.4663 198.097 78.7319C198.284 77.9976 198.378 77.1538 198.378 76.2007ZM204.561 67.2007H210.596C211.893 67.2007 212.998 67.396 213.912 67.7866C214.827 68.1772 215.526 68.7554 216.01 69.521C216.502 70.2788 216.748 71.2163 216.748 72.3335C216.748 73.1851 216.592 73.9351 216.28 74.5835C215.967 75.2319 215.526 75.7788 214.955 76.2241C214.385 76.6616 213.705 77.0015 212.916 77.2437L212.026 77.6772H206.6L206.577 75.3452H210.643C211.346 75.3452 211.932 75.2202 212.401 74.9702C212.87 74.7202 213.221 74.3804 213.455 73.9507C213.698 73.5132 213.819 73.021 213.819 72.4741C213.819 71.8804 213.702 71.3647 213.467 70.9272C213.241 70.4819 212.889 70.1421 212.412 69.9077C211.936 69.6655 211.33 69.5444 210.596 69.5444H207.502V84.2632H204.561V67.2007ZM214.299 84.2632L210.291 76.5991L213.373 76.5874L217.44 84.1108V84.2632H214.299ZM231.146 81.9312V84.2632H222.088V81.9312H231.146ZM222.92 67.2007V84.2632H219.978V67.2007H222.92ZM229.963 74.3257V76.6226H222.088V74.3257H229.963ZM231.088 67.2007V69.5444H222.088V67.2007H231.088ZM172.93 98.2007H175.555L180.488 111.361L185.41 98.2007H188.035L181.52 115.263H179.434L172.93 98.2007ZM171.734 98.2007H174.23L174.664 109.591V115.263H171.734V98.2007ZM186.734 98.2007H189.242V115.263H186.301V109.591L186.734 98.2007ZM198.343 115.498C197.405 115.498 196.558 115.345 195.8 115.041C195.05 114.728 194.409 114.294 193.878 113.74C193.355 113.185 192.952 112.533 192.671 111.783C192.39 111.033 192.249 110.224 192.249 109.357V108.888C192.249 107.896 192.394 106.998 192.683 106.193C192.972 105.388 193.374 104.701 193.89 104.13C194.405 103.552 195.015 103.111 195.718 102.806C196.421 102.501 197.183 102.349 198.003 102.349C198.909 102.349 199.702 102.501 200.382 102.806C201.062 103.111 201.624 103.541 202.07 104.095C202.523 104.642 202.859 105.294 203.077 106.052C203.304 106.81 203.417 107.646 203.417 108.56V109.767H193.62V107.74H200.628V107.517C200.612 107.009 200.511 106.533 200.323 106.087C200.144 105.642 199.866 105.283 199.491 105.009C199.116 104.736 198.616 104.599 197.991 104.599C197.523 104.599 197.105 104.701 196.737 104.904C196.378 105.099 196.077 105.384 195.835 105.759C195.593 106.134 195.405 106.587 195.273 107.119C195.148 107.642 195.085 108.232 195.085 108.888V109.357C195.085 109.912 195.159 110.427 195.308 110.904C195.464 111.373 195.691 111.783 195.987 112.134C196.284 112.486 196.644 112.763 197.066 112.966C197.487 113.162 197.968 113.259 198.507 113.259C199.187 113.259 199.792 113.123 200.323 112.849C200.855 112.576 201.316 112.189 201.706 111.689L203.195 113.13C202.921 113.529 202.566 113.912 202.128 114.279C201.691 114.638 201.155 114.931 200.523 115.158C199.898 115.384 199.171 115.498 198.343 115.498ZM208.745 105.162V115.263H205.92V102.583H208.58L208.745 105.162ZM208.287 108.455L207.327 108.443C207.327 107.568 207.436 106.759 207.655 106.017C207.873 105.275 208.194 104.63 208.616 104.083C209.037 103.529 209.561 103.103 210.186 102.806C210.819 102.501 211.549 102.349 212.377 102.349C212.955 102.349 213.483 102.435 213.959 102.607C214.444 102.771 214.862 103.033 215.213 103.392C215.573 103.751 215.846 104.212 216.034 104.775C216.229 105.337 216.327 106.017 216.327 106.814V115.263H213.502V107.06C213.502 106.443 213.409 105.958 213.221 105.607C213.041 105.255 212.78 105.005 212.436 104.857C212.1 104.701 211.698 104.623 211.229 104.623C210.698 104.623 210.245 104.724 209.87 104.927C209.502 105.13 209.202 105.408 208.967 105.759C208.733 106.111 208.561 106.517 208.452 106.978C208.342 107.439 208.287 107.931 208.287 108.455ZM216.151 107.705L214.827 107.998C214.827 107.232 214.932 106.509 215.143 105.83C215.362 105.142 215.678 104.541 216.092 104.025C216.514 103.501 217.034 103.091 217.651 102.794C218.268 102.498 218.975 102.349 219.772 102.349C220.42 102.349 220.998 102.439 221.506 102.619C222.022 102.791 222.459 103.064 222.819 103.439C223.178 103.814 223.452 104.302 223.639 104.904C223.827 105.498 223.92 106.216 223.92 107.06V115.263H221.084V107.048C221.084 106.408 220.991 105.912 220.803 105.56C220.623 105.208 220.366 104.966 220.03 104.833C219.694 104.693 219.291 104.623 218.823 104.623C218.385 104.623 217.998 104.705 217.662 104.869C217.334 105.025 217.057 105.248 216.83 105.537C216.604 105.818 216.432 106.142 216.315 106.509C216.205 106.876 216.151 107.275 216.151 107.705ZM227.138 97.2632H229.963V112.556L229.693 115.263H227.138V97.2632ZM238.236 108.806V109.052C238.236 109.99 238.13 110.853 237.92 111.642C237.716 112.423 237.404 113.103 236.982 113.681C236.568 114.259 236.052 114.708 235.435 115.029C234.826 115.341 234.119 115.498 233.314 115.498C232.525 115.498 231.838 115.349 231.252 115.052C230.666 114.755 230.173 114.333 229.775 113.787C229.384 113.24 229.068 112.587 228.826 111.83C228.584 111.072 228.412 110.236 228.31 109.322V108.537C228.412 107.615 228.584 106.779 228.826 106.029C229.068 105.271 229.384 104.619 229.775 104.072C230.173 103.517 230.662 103.091 231.24 102.794C231.826 102.498 232.509 102.349 233.291 102.349C234.103 102.349 234.818 102.505 235.435 102.818C236.06 103.13 236.58 103.576 236.994 104.154C237.408 104.724 237.716 105.404 237.92 106.193C238.13 106.982 238.236 107.853 238.236 108.806ZM235.412 109.052V108.806C235.412 108.236 235.365 107.701 235.271 107.201C235.177 106.693 235.021 106.248 234.802 105.865C234.591 105.482 234.302 105.181 233.935 104.962C233.576 104.736 233.127 104.623 232.588 104.623C232.088 104.623 231.658 104.708 231.298 104.88C230.939 105.052 230.638 105.287 230.396 105.583C230.154 105.88 229.963 106.224 229.822 106.615C229.689 107.005 229.599 107.427 229.552 107.88V110.001C229.623 110.587 229.771 111.126 229.998 111.619C230.232 112.103 230.56 112.494 230.982 112.791C231.404 113.08 231.947 113.224 232.611 113.224C233.134 113.224 233.576 113.119 233.935 112.908C234.295 112.697 234.58 112.404 234.791 112.029C235.009 111.646 235.166 111.201 235.259 110.693C235.361 110.185 235.412 109.638 235.412 109.052ZM246.516 115.498C245.579 115.498 244.731 115.345 243.973 115.041C243.223 114.728 242.583 114.294 242.052 113.74C241.528 113.185 241.126 112.533 240.845 111.783C240.563 111.033 240.423 110.224 240.423 109.357V108.888C240.423 107.896 240.567 106.998 240.856 106.193C241.145 105.388 241.548 104.701 242.063 104.13C242.579 103.552 243.188 103.111 243.891 102.806C244.595 102.501 245.356 102.349 246.177 102.349C247.083 102.349 247.876 102.501 248.555 102.806C249.235 103.111 249.798 103.541 250.243 104.095C250.696 104.642 251.032 105.294 251.251 106.052C251.477 106.81 251.591 107.646 251.591 108.56V109.767H241.794V107.74H248.802V107.517C248.786 107.009 248.684 106.533 248.497 106.087C248.317 105.642 248.04 105.283 247.665 105.009C247.29 104.736 246.79 104.599 246.165 104.599C245.696 104.599 245.278 104.701 244.911 104.904C244.552 105.099 244.251 105.384 244.009 105.759C243.766 106.134 243.579 106.587 243.446 107.119C243.321 107.642 243.259 108.232 243.259 108.888V109.357C243.259 109.912 243.333 110.427 243.481 110.904C243.637 111.373 243.864 111.783 244.161 112.134C244.458 112.486 244.817 112.763 245.239 112.966C245.661 113.162 246.141 113.259 246.68 113.259C247.36 113.259 247.966 113.123 248.497 112.849C249.028 112.576 249.489 112.189 249.88 111.689L251.368 113.13C251.095 113.529 250.739 113.912 250.302 114.279C249.864 114.638 249.329 114.931 248.696 115.158C248.071 115.384 247.345 115.498 246.516 115.498ZM256.93 104.998V115.263H254.105V102.583H256.801L256.93 104.998ZM260.809 102.501L260.785 105.126C260.613 105.095 260.426 105.072 260.223 105.056C260.027 105.041 259.832 105.033 259.637 105.033C259.152 105.033 258.727 105.103 258.359 105.244C257.992 105.376 257.684 105.572 257.434 105.83C257.191 106.08 257.004 106.384 256.871 106.744C256.738 107.103 256.66 107.505 256.637 107.951L255.992 107.998C255.992 107.201 256.07 106.462 256.227 105.783C256.383 105.103 256.617 104.505 256.93 103.99C257.25 103.474 257.648 103.072 258.125 102.783C258.609 102.494 259.168 102.349 259.801 102.349C259.973 102.349 260.156 102.365 260.352 102.396C260.555 102.427 260.707 102.462 260.809 102.501ZM269.991 111.83C269.991 111.548 269.921 111.294 269.78 111.068C269.64 110.833 269.37 110.623 268.972 110.435C268.581 110.248 268.003 110.076 267.238 109.919C266.566 109.771 265.948 109.595 265.386 109.392C264.831 109.181 264.355 108.927 263.956 108.63C263.558 108.333 263.249 107.982 263.03 107.576C262.812 107.169 262.702 106.701 262.702 106.169C262.702 105.654 262.816 105.166 263.042 104.705C263.269 104.244 263.593 103.837 264.015 103.486C264.437 103.134 264.948 102.857 265.55 102.654C266.159 102.451 266.839 102.349 267.589 102.349C268.652 102.349 269.562 102.529 270.32 102.888C271.085 103.24 271.671 103.72 272.077 104.33C272.484 104.931 272.687 105.611 272.687 106.369H269.863C269.863 106.033 269.777 105.72 269.605 105.431C269.441 105.134 269.191 104.896 268.855 104.716C268.519 104.529 268.097 104.435 267.589 104.435C267.105 104.435 266.702 104.513 266.382 104.669C266.07 104.818 265.835 105.013 265.679 105.255C265.53 105.498 265.456 105.763 265.456 106.052C265.456 106.263 265.495 106.455 265.573 106.626C265.659 106.791 265.8 106.943 265.995 107.083C266.191 107.216 266.456 107.341 266.792 107.458C267.136 107.576 267.566 107.689 268.081 107.798C269.05 108.001 269.882 108.263 270.577 108.583C271.28 108.896 271.82 109.302 272.195 109.802C272.57 110.294 272.757 110.919 272.757 111.677C272.757 112.24 272.636 112.755 272.394 113.224C272.159 113.685 271.816 114.087 271.363 114.431C270.909 114.767 270.366 115.029 269.734 115.216C269.109 115.404 268.405 115.498 267.624 115.498C266.476 115.498 265.503 115.294 264.706 114.888C263.909 114.474 263.304 113.947 262.89 113.306C262.484 112.658 262.28 111.986 262.28 111.291H265.011C265.042 111.814 265.187 112.232 265.445 112.544C265.71 112.849 266.038 113.072 266.429 113.212C266.827 113.345 267.238 113.412 267.659 113.412C268.167 113.412 268.593 113.345 268.937 113.212C269.28 113.072 269.542 112.884 269.722 112.65C269.902 112.408 269.991 112.134 269.991 111.83ZM278.319 97.2632V115.263H275.506V97.2632H278.319ZM277.827 108.455L276.912 108.443C276.92 107.568 277.041 106.759 277.276 106.017C277.518 105.275 277.854 104.63 278.284 104.083C278.721 103.529 279.245 103.103 279.854 102.806C280.463 102.501 281.139 102.349 281.881 102.349C282.506 102.349 283.069 102.435 283.569 102.607C284.077 102.779 284.514 103.056 284.881 103.439C285.248 103.814 285.526 104.306 285.713 104.916C285.909 105.517 286.006 106.251 286.006 107.119V115.263H283.17V107.095C283.17 106.486 283.08 106.001 282.901 105.642C282.729 105.283 282.475 105.025 282.139 104.869C281.803 104.705 281.393 104.623 280.909 104.623C280.401 104.623 279.952 104.724 279.561 104.927C279.178 105.13 278.858 105.408 278.6 105.759C278.342 106.111 278.147 106.517 278.014 106.978C277.889 107.439 277.827 107.931 277.827 108.455ZM292.189 102.583V115.263H289.353V102.583H292.189ZM289.166 99.2554C289.166 98.8257 289.306 98.4702 289.588 98.189C289.877 97.8999 290.275 97.7554 290.783 97.7554C291.283 97.7554 291.677 97.8999 291.966 98.189C292.255 98.4702 292.4 98.8257 292.4 99.2554C292.4 99.6772 292.255 100.029 291.966 100.31C291.677 100.591 291.283 100.732 290.783 100.732C290.275 100.732 289.877 100.591 289.588 100.31C289.306 100.029 289.166 99.6772 289.166 99.2554ZM298.419 105.021V120.138H295.595V102.583H298.196L298.419 105.021ZM306.68 108.806V109.052C306.68 109.974 306.571 110.83 306.352 111.619C306.141 112.4 305.825 113.083 305.403 113.669C304.989 114.248 304.477 114.697 303.868 115.017C303.259 115.337 302.555 115.498 301.759 115.498C300.97 115.498 300.278 115.353 299.684 115.064C299.098 114.767 298.602 114.349 298.196 113.81C297.79 113.271 297.462 112.638 297.212 111.912C296.97 111.177 296.798 110.373 296.696 109.498V108.548C296.798 107.619 296.97 106.775 297.212 106.017C297.462 105.259 297.79 104.607 298.196 104.06C298.602 103.513 299.098 103.091 299.684 102.794C300.27 102.498 300.954 102.349 301.735 102.349C302.532 102.349 303.239 102.505 303.856 102.818C304.473 103.123 304.993 103.56 305.415 104.13C305.837 104.693 306.153 105.373 306.364 106.169C306.575 106.958 306.68 107.837 306.68 108.806ZM303.856 109.052V108.806C303.856 108.22 303.802 107.677 303.692 107.177C303.583 106.669 303.411 106.224 303.177 105.841C302.942 105.458 302.641 105.162 302.274 104.951C301.915 104.732 301.481 104.623 300.973 104.623C300.473 104.623 300.044 104.708 299.684 104.88C299.325 105.044 299.024 105.275 298.782 105.572C298.54 105.869 298.352 106.216 298.22 106.615C298.087 107.005 297.993 107.431 297.938 107.892V110.166C298.032 110.728 298.192 111.244 298.419 111.712C298.645 112.181 298.966 112.556 299.38 112.837C299.802 113.111 300.341 113.248 300.997 113.248C301.505 113.248 301.938 113.138 302.298 112.919C302.657 112.701 302.95 112.4 303.177 112.017C303.411 111.626 303.583 111.177 303.692 110.669C303.802 110.162 303.856 109.623 303.856 109.052ZM175.273 146.263H172.449V132.447C172.449 131.486 172.637 130.677 173.012 130.021C173.395 129.365 173.945 128.869 174.664 128.533C175.383 128.189 176.25 128.017 177.266 128.017C177.672 128.017 178.18 128.044 178.789 128.099C179.406 128.154 180.047 128.224 180.711 128.31C181.375 128.388 181.984 128.47 182.539 128.556L181.32 130.724C180.594 130.591 179.918 130.49 179.293 130.419C178.668 130.341 178.102 130.302 177.594 130.302C177.094 130.302 176.672 130.388 176.328 130.56C175.984 130.724 175.723 130.966 175.543 131.287C175.363 131.599 175.273 131.986 175.273 132.447V146.263ZM179.715 146.263V128.556H182.539V146.263H179.715ZM177.887 133.583V135.646H170.504V133.583H177.887ZM189.659 144.88L193.105 133.583H196.128L191.042 148.197C190.925 148.509 190.773 148.849 190.585 149.216C190.398 149.583 190.152 149.931 189.847 150.259C189.55 150.595 189.179 150.865 188.734 151.068C188.288 151.279 187.749 151.384 187.116 151.384C186.866 151.384 186.624 151.361 186.39 151.314C186.163 151.275 185.948 151.232 185.745 151.185L185.734 149.029C185.812 149.037 185.905 149.044 186.015 149.052C186.132 149.06 186.226 149.064 186.296 149.064C186.765 149.064 187.155 149.005 187.468 148.888C187.78 148.779 188.034 148.599 188.23 148.349C188.433 148.099 188.605 147.763 188.745 147.341L189.659 144.88ZM187.714 133.583L190.726 143.076L191.23 146.052L189.273 146.556L184.667 133.583H187.714ZM203.471 146.498C202.534 146.498 201.686 146.345 200.928 146.041C200.178 145.728 199.538 145.294 199.006 144.74C198.483 144.185 198.08 143.533 197.799 142.783C197.518 142.033 197.377 141.224 197.377 140.357V139.888C197.377 138.896 197.522 137.998 197.811 137.193C198.1 136.388 198.502 135.701 199.018 135.13C199.534 134.552 200.143 134.111 200.846 133.806C201.549 133.501 202.311 133.349 203.131 133.349C204.038 133.349 204.83 133.501 205.51 133.806C206.19 134.111 206.752 134.541 207.198 135.095C207.651 135.642 207.987 136.294 208.205 137.052C208.432 137.81 208.545 138.646 208.545 139.56V140.767H198.748V138.74H205.756V138.517C205.741 138.009 205.639 137.533 205.452 137.087C205.272 136.642 204.995 136.283 204.62 136.009C204.245 135.736 203.745 135.599 203.12 135.599C202.651 135.599 202.233 135.701 201.866 135.904C201.506 136.099 201.205 136.384 200.963 136.759C200.721 137.134 200.534 137.587 200.401 138.119C200.276 138.642 200.213 139.232 200.213 139.888V140.357C200.213 140.912 200.288 141.427 200.436 141.904C200.592 142.373 200.819 142.783 201.116 143.134C201.413 143.486 201.772 143.763 202.194 143.966C202.616 144.162 203.096 144.259 203.635 144.259C204.315 144.259 204.92 144.123 205.452 143.849C205.983 143.576 206.444 143.189 206.834 142.689L208.323 144.13C208.049 144.529 207.694 144.912 207.256 145.279C206.819 145.638 206.284 145.931 205.651 146.158C205.026 146.384 204.299 146.498 203.471 146.498ZM213.884 135.998V146.263H211.06V133.583H213.755L213.884 135.998ZM217.763 133.501L217.74 136.126C217.568 136.095 217.38 136.072 217.177 136.056C216.982 136.041 216.787 136.033 216.591 136.033C216.107 136.033 215.681 136.103 215.314 136.244C214.947 136.376 214.638 136.572 214.388 136.83C214.146 137.08 213.959 137.384 213.826 137.744C213.693 138.103 213.615 138.505 213.591 138.951L212.947 138.998C212.947 138.201 213.025 137.462 213.181 136.783C213.338 136.103 213.572 135.505 213.884 134.99C214.205 134.474 214.603 134.072 215.08 133.783C215.564 133.494 216.123 133.349 216.755 133.349C216.927 133.349 217.111 133.365 217.306 133.396C217.509 133.427 217.662 133.462 217.763 133.501Z" fill="white"/>
<defs>
<clipPath id="clip0_3492_13600">
<rect width="119" height="119" fill="white" transform="translate(39 57.2632)"/>
</clipPath>
</defs>
</svg>
