<svg width="314" height="333" viewBox="0 0 314 333" fill="none" xmlns="http://www.w3.org/2000/svg">
<g opacity="0.2">
<path opacity="0.2" d="M64.2865 287.939C63.886 285.792 61.0416 281.794 61.0416 281.794C61.0416 281.794 58.9703 284.466 58.8668 284.653C57.6102 286.807 56.4503 291.709 58.3144 293.787C58.6336 294.123 59.02 294.389 59.4485 294.566C59.877 294.743 60.3379 294.829 60.8015 294.816C61.2651 294.804 61.7209 294.694 62.1393 294.494C62.5577 294.294 62.9293 294.009 63.2302 293.656C64.5557 292.199 64.6317 289.769 64.2865 287.939Z" fill="#212121"/>
<path opacity="0.2" d="M37.3328 246.321C37.3328 246.266 34.1362 247.412 33.9429 247.502C31.7129 248.606 28.0399 252.051 28.4196 254.813C28.4988 255.267 28.6726 255.7 28.9296 256.083C29.1867 256.466 29.5213 256.791 29.9118 257.036C30.3024 257.281 30.7401 257.442 31.1966 257.507C31.6532 257.573 32.1184 257.542 32.5621 257.416C34.4745 256.933 35.8761 254.951 36.601 253.232C37.5054 251.223 37.3328 246.321 37.3328 246.321Z" fill="#212121"/>
<path opacity="0.2" d="M14.4248 244.201C15.7366 246.659 20.7351 247.253 23.193 246.818C23.4001 246.776 26.6451 245.803 26.6451 245.761V245.706C27.4321 245.81 28.2813 245.906 29.2065 245.996C30.9187 246.141 32.8588 246.3 34.9783 246.321C37.2619 246.37 39.5464 246.287 41.8203 246.072C44.3701 245.842 46.8936 245.379 49.3596 244.691H49.4494C48.759 245.14 46.8948 246.459 46.7568 246.576C44.8927 248.226 42.2622 252.52 43.3806 255.075C43.5815 255.492 43.8679 255.863 44.2211 256.163C44.5744 256.462 44.9866 256.684 45.4312 256.815C45.8757 256.945 46.3427 256.98 46.8018 256.918C47.2609 256.856 47.7019 256.699 48.0962 256.456C49.8084 255.489 50.6369 253.204 50.8578 251.361C51.134 249.289 49.8153 244.919 49.7048 244.574C52.2001 243.815 54.6426 242.893 57.0163 241.812C58.3971 241.191 59.7779 240.521 61.1588 239.838C60.5857 240.245 60.0679 240.611 59.9989 240.673C58.1348 242.323 55.5043 246.617 56.6227 249.172C56.8236 249.589 57.11 249.96 57.4632 250.26C57.8165 250.559 58.2287 250.781 58.6733 250.912C59.1178 251.042 59.5848 251.077 60.0439 251.015C60.503 250.953 60.944 250.796 61.3383 250.553C63.0505 249.586 63.879 247.301 64.0999 245.458C64.3208 243.614 63.299 239.845 63.0022 238.857L64.5763 238.056C67.0825 236.758 69.5749 235.453 72.0673 234.252C72.9441 233.824 73.8209 233.437 74.6977 233.051C74.1799 233.41 73.7519 233.741 73.6897 233.741C71.8256 235.398 69.1951 239.693 70.3136 242.247C70.5145 242.665 70.8008 243.035 71.1541 243.335C71.5073 243.634 71.9196 243.857 72.3641 243.987C72.8087 244.117 73.2757 244.152 73.7347 244.09C74.1938 244.029 74.6348 243.871 75.0291 243.628C76.7413 242.654 77.5698 240.376 77.7908 238.526C78.0117 236.676 77.1004 233.279 76.7482 232.112C77.6596 231.739 78.5709 231.359 79.4685 231.042C80.0898 230.842 80.6698 230.6 81.305 230.427L83.1553 229.889C84.3428 229.585 85.5717 229.267 86.7385 229.005C87.5463 228.819 88.3265 228.653 89.1066 228.48C88.2298 228.895 86.5245 229.737 86.3933 229.861C84.5943 231.117 83.1487 232.815 82.1956 234.791C81.9876 234.92 81.7933 235.071 81.6157 235.239C81.2681 235.546 80.9889 235.923 80.7962 236.344C80.6035 236.766 80.5015 237.223 80.4969 237.687C80.4924 238.15 80.5853 238.609 80.7697 239.035C80.9541 239.46 81.2259 239.842 81.5673 240.155C83.68 241.985 88.5543 240.742 90.6877 239.465C90.8119 239.389 92.0685 238.408 92.8832 237.78C92.4689 238.222 92.0685 238.643 91.6542 239.106C90.8258 240.01 90.0249 240.935 89.1619 241.93L87.9605 243.511C87.5463 244.008 87.1666 244.581 86.7661 245.112C85.8548 246.376 84.9987 247.694 84.1633 249.048C83.3693 248.323 80.511 245.796 78.7366 245.209C76.9623 244.622 74.5527 244.367 72.9303 245.485C72.543 245.736 72.2124 246.064 71.9597 246.45C71.7071 246.836 71.5379 247.271 71.4632 247.726C71.3884 248.181 71.4096 248.647 71.5256 249.093C71.6415 249.54 71.8495 249.957 72.1363 250.318C73.9452 252.445 78.9576 251.954 81.2635 251.008C81.4085 250.946 82.9827 250.076 83.8388 249.579C83.3417 250.394 82.8446 251.209 82.3682 252.051C80.9874 254.481 79.6894 256.981 78.3638 259.473C77.9634 260.239 77.5491 260.992 77.1418 261.751C76.8656 261.489 73.5309 258.41 71.5425 257.754C69.7751 257.167 67.3587 256.911 65.7362 258.03C65.3489 258.28 65.0183 258.609 64.7657 258.995C64.513 259.381 64.3438 259.815 64.2691 260.271C64.1943 260.726 64.2156 261.191 64.3315 261.638C64.4474 262.084 64.6554 262.502 64.9422 262.863C66.7511 264.989 71.7635 264.499 74.0695 263.553C74.2421 263.477 76.5066 262.221 77.0658 261.876C76.1683 263.546 75.2501 265.196 74.3042 266.791C73.0129 268.954 71.5807 271.03 70.0167 273.005C69.8856 272.881 66.4266 269.65 64.3899 268.973C62.6224 268.393 60.206 268.138 58.5835 269.256C58.1954 269.506 57.864 269.834 57.6107 270.22C57.3574 270.606 57.1879 271.041 57.1131 271.496C57.0382 271.952 57.0598 272.418 57.1763 272.864C57.2928 273.311 57.5017 273.728 57.7895 274.089C59.5984 276.215 64.6108 275.725 66.9099 274.779C67.0618 274.717 68.7878 273.764 69.6025 273.288L69.7061 273.412C68.0761 275.354 66.2788 277.149 64.3346 278.777C63.2714 279.681 62.2082 280.489 61.1588 281.255C60.5719 280.565 57.8724 277.569 56.1118 276.754C54.3513 275.939 52.0453 275.463 50.3055 276.395C49.8903 276.601 49.5232 276.893 49.2279 277.25C48.9326 277.607 48.7158 278.023 48.5914 278.469C48.4671 278.916 48.438 279.384 48.5061 279.842C48.5742 280.301 48.738 280.74 48.9868 281.131C50.5471 283.444 55.5871 283.506 57.9621 282.809C58.0864 282.774 59.343 282.243 60.2957 281.842C59.8194 282.181 59.3292 282.533 58.8597 282.85C57.1129 284.031 55.4076 285.011 53.944 285.86C53.0947 286.337 52.3146 286.751 51.5827 287.131C50.6714 286.779 46.9708 285.384 45.0653 285.481C43.1597 285.577 40.8606 286.206 39.7491 287.835C39.4718 288.21 39.2769 288.639 39.1771 289.094C39.0773 289.55 39.0749 290.021 39.1701 290.477C39.2653 290.934 39.4559 291.365 39.7294 291.742C40.0029 292.12 40.3531 292.435 40.7571 292.668C43.2149 294 47.7095 291.736 49.5115 290.01C49.6703 289.865 51.8451 287.248 51.7968 287.248H51.7415C52.4319 286.896 53.2121 286.509 54.0337 286.074C55.5457 285.253 57.2441 284.314 59.0254 283.161C60.9601 281.944 62.8228 280.616 64.6039 279.184C66.5967 277.584 68.4449 275.812 70.1272 273.889C70.1473 273.865 70.1658 273.839 70.1824 273.813C69.8579 274.565 69.0225 276.699 68.9742 276.864C68.3321 279.274 68.5047 284.307 70.8521 285.84C71.2495 286.079 71.6926 286.232 72.1529 286.289C72.6132 286.347 73.0803 286.307 73.5241 286.172C73.9679 286.037 74.3785 285.811 74.7294 285.507C75.0802 285.204 75.3634 284.83 75.5607 284.411C76.4514 282.657 75.8852 280.268 75.0706 278.618C74.1523 276.726 70.645 273.827 70.3689 273.592C72.0359 271.591 73.5675 269.48 74.9532 267.275C75.7679 265.997 76.548 264.679 77.3144 263.353C77.052 264.009 76.8242 264.603 76.8035 264.686C76.1614 267.095 76.334 272.128 78.6745 273.661C79.0711 273.901 79.5139 274.056 79.9742 274.114C80.4344 274.172 80.9017 274.133 81.3457 273.999C81.7898 273.865 82.2007 273.639 82.5517 273.336C82.9027 273.032 83.186 272.659 83.3831 272.239C84.2806 270.478 83.7076 268.096 82.8998 266.446C82.092 264.796 79.1302 262.207 78.3431 261.544C78.6331 261.033 78.93 260.522 79.213 260.011C80.5938 257.547 81.9747 255.082 83.3555 252.707C83.8526 251.865 84.3704 251.057 84.8882 250.249C84.6535 250.836 84.4671 251.326 84.4463 251.409C83.8043 253.818 83.9769 258.852 86.3243 260.384C86.7208 260.625 87.1635 260.779 87.6235 260.836C88.0835 260.894 88.5506 260.854 88.9941 260.719C89.4377 260.584 89.8479 260.358 90.198 260.054C90.5481 259.75 90.8302 259.375 91.026 258.955C91.9235 257.201 91.3574 254.813 90.5427 253.169C89.728 251.526 87.0906 249.179 86.131 248.385C86.6833 247.577 87.2356 246.756 87.8155 245.996C88.216 245.485 88.5681 244.96 89.0031 244.47L90.2527 243C91.0743 242.095 91.9235 241.149 92.752 240.286C93.325 239.679 93.8774 239.113 94.4366 238.54C93.9326 239.368 92.9798 241.011 92.9177 241.156C91.9166 243.442 91.3228 248.447 93.4148 250.297C93.7702 250.595 94.1842 250.814 94.63 250.942C95.0757 251.069 95.5433 251.101 96.0022 251.036C96.4612 250.971 96.9013 250.81 97.2941 250.564C97.6869 250.318 98.0235 249.992 98.2822 249.607C99.4352 248.005 99.2281 245.589 98.6757 243.807C98.0751 241.847 95.1823 238.567 94.8163 238.153C95.7415 237.214 96.6528 236.303 97.5296 235.46C100.519 232.554 103.122 230.241 104.979 228.646L103.916 227.079L103.792 227.182C101.948 228.846 99.3454 231.256 96.3628 234.287C95.417 235.239 94.4297 236.275 93.4217 237.352C92.2517 236.57 91.0393 235.853 89.7901 235.205C90.2665 233.134 89.7073 229.102 89.6313 228.584C90.9293 228.308 92.1859 228.052 93.3803 227.831C97.5296 226.941 100.982 226.457 103.377 226.147L102.211 224.428C99.8356 224.8 96.6873 225.332 93.0765 226.105C91.7647 226.375 90.3632 226.699 88.934 227.037C88.7338 226.54 87.0423 222.494 85.5441 221.093C84.1633 219.823 82.092 218.58 80.152 218.911C79.6918 218.975 79.2501 219.135 78.8557 219.38C78.4612 219.626 78.1228 219.952 77.8624 220.336C77.602 220.721 77.4254 221.156 77.3441 221.614C77.2627 222.071 77.2785 222.541 77.3903 222.992C78.1429 225.677 82.9136 227.334 85.3922 227.431C85.5372 227.431 87.1389 227.32 88.1539 227.231L86.4002 227.659C85.2127 227.956 84.0321 228.287 82.7617 228.639L80.9252 229.219C80.3039 229.405 79.6756 229.675 79.0404 229.909C77.5906 230.462 76.1476 231.09 74.7046 231.76C74.4423 230.717 73.455 227.03 72.2951 225.546C71.1352 224.062 69.2711 222.536 67.3034 222.577C66.8391 222.569 66.3784 222.66 65.9514 222.842C65.5243 223.024 65.1406 223.295 64.8252 223.635C64.5098 223.976 64.2698 224.38 64.1211 224.82C63.9723 225.26 63.918 225.726 63.9618 226.188C64.2932 228.95 68.7464 231.311 71.1973 231.787C71.3492 231.787 73.1443 231.96 74.1316 232.022C73.2686 232.429 72.3987 232.83 71.5425 233.272C69.0571 234.542 66.5854 235.902 64.1068 237.255C63.3543 237.67 62.5879 238.07 61.8285 238.477C61.7456 238.105 60.6617 233.7 59.3706 232.057C58.2176 230.593 56.3466 229.046 54.372 229.081C53.9083 229.075 53.4486 229.167 53.0226 229.35C52.5966 229.533 52.2137 229.803 51.8988 230.144C51.5838 230.484 51.3438 230.887 51.1942 231.326C51.0446 231.765 50.9888 232.23 51.0304 232.692C51.3687 235.453 55.8219 237.822 58.2659 238.298C58.4523 238.333 61.0276 238.533 61.718 238.553C60.0472 239.444 58.3764 240.321 56.6849 241.122C54.4131 242.206 52.0748 243.144 49.6841 243.932C49.6427 243.759 48.538 239.154 47.2124 237.469C46.0594 236.006 44.1815 234.459 42.2139 234.494C41.7476 234.483 41.2843 234.571 40.8545 234.752C40.4246 234.933 40.0379 235.203 39.7197 235.544C39.4015 235.885 39.159 236.289 39.0082 236.731C38.8574 237.172 38.8017 237.64 38.8446 238.105C39.1829 240.866 43.6292 243.234 46.0802 243.711C46.239 243.711 48.2066 243.897 49.1456 243.946V244.104C46.7144 244.828 44.2237 245.334 41.7029 245.616C40.3221 245.789 38.9896 245.879 37.6848 245.934C37.5674 245.05 36.9943 241.046 35.9587 239.396C34.9231 237.746 33.3214 236.075 31.333 235.916C30.873 235.858 30.406 235.897 29.9622 236.031C29.5185 236.166 29.108 236.392 28.7576 236.696C28.4071 236.999 28.1246 237.373 27.9283 237.793C27.7321 238.213 27.6265 238.67 27.6185 239.133C27.6185 241.93 31.8163 244.76 34.1913 245.499C34.3224 245.54 35.6826 245.803 36.6768 245.982C36.0899 245.982 35.4892 246.024 34.9231 246.031C32.8519 246.031 30.8773 245.941 29.1651 245.83C28.1916 245.754 27.3148 245.672 26.4932 245.589C25.927 244.788 23.6073 241.584 21.971 240.611C20.3347 239.637 18.0633 238.892 16.2337 239.637C15.8009 239.8 15.4069 240.051 15.077 240.375C14.7471 240.699 14.4887 241.089 14.3184 241.519C14.148 241.948 14.0695 242.409 14.0878 242.871C14.1061 243.333 14.2209 243.786 14.4248 244.201Z" fill="#212121"/>
</g>
<g opacity="0.2">
<path opacity="0.2" d="M228.384 49.1808C229.682 50.9414 233.976 53.3233 233.983 53.3233C233.99 53.3233 234.673 50.0162 234.673 49.8022C234.867 47.3167 233.776 42.3941 231.221 41.3377C230.788 41.1736 230.325 41.1025 229.862 41.1293C229.399 41.156 228.947 41.2799 228.536 41.4929C228.124 41.7059 227.762 42.0032 227.473 42.3654C227.184 42.7277 226.974 43.1468 226.858 43.5954C226.285 45.4664 227.279 47.6826 228.384 49.1808Z" fill="#212121"/>
<path opacity="0.2" d="M270.768 74.9193C270.768 74.9607 273.17 72.5442 273.302 72.3716C274.834 70.404 276.643 65.7092 275.069 63.3963C274.798 63.0197 274.451 62.7044 274.05 62.4711C273.649 62.2378 273.203 62.0916 272.742 62.042C272.281 61.9925 271.814 62.0408 271.373 62.1837C270.932 62.3267 270.526 62.5611 270.181 62.8716C268.669 64.135 268.275 66.5308 268.372 68.3949C268.483 70.5766 270.768 74.9123 270.768 74.9193Z" fill="#212121"/>
<path opacity="0.2" d="M292.322 66.855C290.065 65.2118 285.308 66.855 283.285 68.3186C283.112 68.4429 280.613 70.7351 280.654 70.7627H280.71C279.957 71.0182 279.149 71.3012 278.279 71.6257C276.671 72.2333 274.862 72.9444 272.942 73.8419C270.863 74.7903 268.841 75.86 266.888 77.0455C264.687 78.3581 262.607 79.8646 260.674 81.5469L260.612 81.616C261.033 80.9256 262.144 78.9165 262.213 78.7508C263.173 76.4517 263.67 71.4393 261.523 69.6235C261.163 69.3354 260.746 69.1261 260.3 69.009C259.853 68.8919 259.387 68.8698 258.932 68.944C258.476 69.0181 258.042 69.187 257.656 69.4396C257.269 69.6922 256.941 70.023 256.69 70.4106C255.565 72.0262 255.813 74.4426 256.4 76.217C257.056 78.2053 260.142 81.5607 260.384 81.8231C258.468 83.5866 256.669 85.4731 254.999 87.4707C254.025 88.6306 253.072 89.8319 252.14 91.047C252.486 90.4256 252.789 89.8733 252.831 89.7905C253.79 87.4914 254.294 82.479 252.175 80.6632C251.814 80.3771 251.397 80.1695 250.951 80.0537C250.505 79.9378 250.04 79.9162 249.585 79.9903C249.13 80.0644 248.696 80.2324 248.309 80.4838C247.923 80.7352 247.594 81.0644 247.342 81.4503C246.224 83.0658 246.472 85.4823 247.052 87.2566C247.632 89.031 250.221 91.9583 250.911 92.7178C250.552 93.1873 250.221 93.6498 249.841 94.0986C248.15 96.3632 246.472 98.6208 244.76 100.789C244.152 101.555 243.531 102.287 242.91 103.019C243.22 102.466 243.469 102.004 243.503 101.928C244.463 99.6288 244.967 94.6164 242.813 92.8007C242.452 92.5125 242.036 92.3032 241.589 92.1861C241.143 92.0691 240.677 92.0469 240.222 92.1211C239.766 92.1952 239.331 92.3641 238.945 92.6167C238.559 92.8693 238.23 93.2001 237.98 93.5877C236.855 95.2102 237.103 97.6197 237.69 99.3941C238.277 101.168 240.604 103.813 241.418 104.717C240.762 105.449 240.106 106.181 239.437 106.864C238.967 107.313 238.546 107.783 238.056 108.211L236.606 109.571C235.667 110.358 234.701 111.179 233.762 111.925C233.12 112.45 232.491 112.933 231.863 113.423C232.471 112.671 233.63 111.173 233.713 111.034C234.787 109.122 235.35 106.966 235.35 104.772C235.481 104.566 235.59 104.346 235.674 104.117C235.855 103.69 235.944 103.231 235.937 102.768C235.929 102.305 235.824 101.849 235.629 101.429C235.433 101.01 235.152 100.636 234.803 100.331C234.454 100.027 234.045 99.7995 233.603 99.6633C230.903 98.9729 227.051 102.183 225.698 104.275C225.615 104.4 224.897 105.836 224.462 106.747C224.634 106.174 224.814 105.615 224.986 105.021C225.339 103.847 225.677 102.66 226.001 101.389C226.146 100.768 226.291 100.147 226.443 99.5114C226.595 98.8763 226.692 98.2066 226.823 97.5507C227.092 96.018 227.286 94.4576 227.451 92.8766C228.48 93.1804 232.153 94.216 234.003 93.9743C235.854 93.7327 238.146 92.9111 239.112 91.2127C239.355 90.8184 239.513 90.3774 239.575 89.9183C239.637 89.4592 239.601 88.9923 239.471 88.5477C239.341 88.1031 239.119 87.6909 238.819 87.3377C238.519 86.9844 238.149 86.6981 237.731 86.4972C235.177 85.3718 230.883 87.9954 229.226 89.8595C229.122 89.9769 228.08 91.4474 227.527 92.2621C227.617 91.3163 227.714 90.3635 227.776 89.3969C227.948 86.6353 228.038 83.7908 228.142 80.9739C228.176 80.1109 228.218 79.2548 228.252 78.3918C228.618 78.5091 232.961 79.8278 235.032 79.5585C236.882 79.3169 239.174 78.4884 240.141 76.7969C240.384 76.4026 240.542 75.9616 240.603 75.5025C240.665 75.0434 240.63 74.5765 240.5 74.1319C240.37 73.6874 240.147 73.2751 239.848 72.9219C239.548 72.5686 239.178 72.2823 238.76 72.0814C236.206 70.956 231.904 73.5796 230.247 75.4437C230.123 75.5818 228.632 77.7013 228.273 78.2537C228.363 76.3619 228.459 74.4771 228.639 72.6199C228.864 70.1097 229.252 67.6167 229.799 65.1566C229.971 65.2118 234.493 66.6133 236.62 66.3372C238.463 66.0955 240.762 65.267 241.722 63.5755C241.966 63.1815 242.125 62.7405 242.187 62.2811C242.249 61.8218 242.214 61.3545 242.084 60.9096C241.954 60.4647 241.731 60.0523 241.431 59.6991C241.131 59.346 240.759 59.0601 240.341 58.86C237.787 57.7346 233.485 60.3582 231.828 62.2223C231.718 62.3397 230.579 63.9552 230.061 64.7354L229.916 64.6733C230.533 62.2121 231.369 59.8113 232.415 57.4999C232.975 56.2226 233.582 55.0351 234.197 53.889C235.011 54.2342 238.753 55.7808 240.693 55.7393C242.633 55.6979 244.919 55.1387 246.079 53.5438C246.362 53.1774 246.564 52.7555 246.674 52.3057C246.784 51.8558 246.798 51.388 246.715 50.9324C246.632 50.4768 246.455 50.0437 246.194 49.661C245.934 49.2784 245.595 48.9547 245.202 48.711C242.792 47.3301 238.229 49.4428 236.378 51.1136C236.275 51.2033 235.356 52.239 234.694 52.9984C234.977 52.4875 235.267 51.9559 235.55 51.4657C236.606 49.643 237.69 48.0136 238.664 46.6328C239.216 45.8319 239.741 45.1208 240.231 44.458C241.211 44.3821 245.146 44.0231 246.824 43.0772C248.502 42.1313 250.276 40.5917 250.587 38.6447C250.672 38.1885 250.659 37.7195 250.55 37.2684C250.442 36.8172 250.239 36.3941 249.955 36.0267C249.672 35.6592 249.314 35.3556 248.906 35.1358C248.497 34.9159 248.046 34.7848 247.584 34.7508C244.822 34.6197 241.729 38.6171 240.852 40.9645C240.776 41.1648 239.955 44.458 240.01 44.458H240.065C239.582 45.0863 239.064 45.7629 238.512 46.5293C237.511 47.9101 236.385 49.5118 235.287 51.3621C234.073 53.2966 232.975 55.3024 232.001 57.3687C230.896 59.676 229.997 62.0764 229.315 64.5421C229.315 64.5421 229.315 64.6042 229.315 64.6319C229.281 63.8172 229.101 61.5388 229.067 61.3593C228.604 58.9152 226.257 54.4552 223.481 54.1169C223.019 54.0732 222.553 54.1273 222.114 54.2756C221.674 54.4239 221.27 54.6631 220.929 54.9776C220.588 55.2922 220.317 55.675 220.133 56.1012C219.949 56.5274 219.858 56.9875 219.864 57.4516C219.822 59.4192 221.369 61.2972 222.825 62.4501C224.476 63.755 228.894 64.8459 229.246 64.9287C228.614 67.4563 228.153 70.0235 227.865 72.613C227.693 74.1181 227.562 75.6439 227.451 77.1697C227.396 76.4793 227.341 75.8372 227.327 75.7475C226.857 73.2965 224.51 68.8434 221.742 68.4982C221.28 68.4545 220.813 68.5086 220.374 68.6569C219.934 68.8052 219.53 69.0444 219.189 69.3589C218.848 69.6735 218.577 70.0563 218.393 70.4825C218.21 70.9087 218.118 71.3688 218.124 71.8328C218.082 73.8074 219.622 75.6784 221.086 76.8383C222.549 77.9982 226.319 79.0131 227.299 79.2686C227.265 79.8554 227.217 80.4354 227.182 81.0222C227.023 83.846 226.864 86.656 226.637 89.4107C226.554 90.3773 226.436 91.3301 226.319 92.2828C226.271 91.6615 226.229 91.1298 226.215 91.0539C225.746 88.6029 223.399 84.1498 220.63 83.8046C220.168 83.7609 219.702 83.815 219.262 83.9633C218.822 84.1116 218.419 84.3508 218.078 84.6654C217.736 84.9799 217.465 85.3627 217.282 85.7889C217.098 86.2152 217.006 86.6752 217.012 87.1393C216.971 89.1069 218.51 90.9849 219.967 92.1379C221.424 93.2908 224.841 94.2091 226.022 94.5267C225.877 95.4933 225.732 96.4736 225.546 97.4057C225.408 98.0409 225.318 98.6691 225.138 99.2974L224.662 101.168C224.31 102.342 223.972 103.557 223.585 104.696C223.336 105.49 223.081 106.243 222.832 107.002C222.922 106.036 223.067 104.144 223.06 103.985C222.964 101.493 221.32 96.7291 218.635 95.9765C218.184 95.8624 217.714 95.845 217.255 95.9254C216.797 96.0058 216.361 96.1821 215.976 96.4429C215.59 96.7037 215.264 97.043 215.02 97.4386C214.775 97.8341 214.616 98.277 214.554 98.7382C214.216 100.678 215.452 102.763 216.722 104.13C218.103 105.628 222.156 107.327 222.66 107.534C222.232 108.791 221.811 110.006 221.389 111.145C219.967 115.06 218.628 118.277 217.654 120.521L219.291 121.467L219.353 121.322C220.292 119.022 221.583 115.722 222.95 111.69C223.385 110.42 223.827 109.053 224.268 107.645C225.661 107.849 227.066 107.969 228.473 108.004C228.936 110.075 231.2 113.458 231.49 113.9C230.448 114.707 229.419 115.488 228.445 116.206C225.097 118.691 222.232 120.631 220.16 121.971L221.962 123.006C223.93 121.625 226.512 119.803 229.453 117.524C230.517 116.71 231.635 115.812 232.781 114.88C233.182 115.239 236.461 118.139 238.422 118.753C240.203 119.306 242.62 119.52 244.221 118.367C244.606 118.108 244.932 117.771 245.178 117.379C245.424 116.986 245.585 116.546 245.65 116.087C245.715 115.628 245.683 115.16 245.556 114.714C245.429 114.269 245.209 113.855 244.912 113.499C243.061 111.428 238.063 111.987 235.771 112.988C235.64 113.044 234.245 113.844 233.375 114.369C233.844 113.982 234.3 113.617 234.756 113.216C235.702 112.429 236.613 111.614 237.607 110.744L238.988 109.426C239.464 108.991 239.913 108.473 240.369 107.997C241.432 106.871 242.44 105.677 243.469 104.448C244.159 105.269 246.652 108.155 248.336 108.977C250.021 109.799 252.368 110.358 254.122 109.474C254.543 109.28 254.919 108.999 255.225 108.649C255.53 108.299 255.758 107.889 255.893 107.445C256.029 107.001 256.069 106.533 256.011 106.073C255.954 105.612 255.799 105.169 255.558 104.772C254.053 102.425 249.02 102.239 246.583 102.881C246.431 102.915 244.753 103.571 243.821 103.951C244.422 103.205 245.029 102.466 245.609 101.693C247.294 99.47 248.923 97.1641 250.566 94.8719L252.085 92.8007C252.327 93.0975 255.213 96.591 257.098 97.5093C258.768 98.3308 261.13 98.8901 262.89 98.0133C263.31 97.8173 263.684 97.5352 263.988 97.1853C264.293 96.8354 264.52 96.4255 264.655 95.9822C264.79 95.5388 264.831 95.072 264.774 94.6119C264.718 94.1518 264.565 93.7088 264.326 93.3116C262.814 90.9572 257.781 90.7777 255.351 91.4129C255.171 91.4612 252.755 92.4071 252.154 92.6764C253.273 91.1437 254.398 89.6247 255.572 88.1749C257.141 86.2035 258.838 84.3376 260.653 82.5895C260.764 82.7275 263.76 86.3936 265.693 87.3326C267.364 88.1473 269.725 88.7134 271.486 87.8366C271.906 87.6401 272.281 87.3573 272.585 87.0066C272.889 86.6559 273.115 86.2451 273.25 85.801C273.385 85.3568 273.425 84.8893 273.367 84.4288C273.309 83.9683 273.155 83.525 272.915 83.128C271.41 80.7806 266.377 80.5942 263.94 81.2363C263.781 81.2777 261.944 81.9957 261.074 82.3547L260.991 82.2235C262.86 80.5117 264.879 78.9727 267.026 77.6254C268.199 76.8659 269.359 76.2032 270.478 75.5887C270.968 76.3274 273.239 79.6828 274.883 80.7253C276.526 81.7679 278.735 82.548 280.578 81.8576C281.018 81.7086 281.421 81.4688 281.762 81.1539C282.103 80.839 282.374 80.456 282.558 80.0297C282.742 79.6033 282.833 79.1432 282.828 78.6791C282.822 78.215 282.719 77.7572 282.525 77.3354C281.283 74.8361 276.312 74.1043 273.833 74.4702C273.702 74.4702 272.363 74.8499 271.389 75.1192C271.907 74.8499 272.438 74.56 272.949 74.3114C274.841 73.3725 276.629 72.6337 278.217 71.9847C279.129 71.6257 279.95 71.2943 280.73 71.0389C281.586 71.5153 285.066 73.3863 286.944 73.552C288.822 73.7177 291.204 73.3932 292.523 71.9295C292.882 71.6047 293.166 71.2049 293.354 70.7584C293.541 70.3118 293.629 69.8295 293.61 69.3454C293.591 68.8613 293.466 68.3873 293.243 67.957C293.021 67.5266 292.706 67.1504 292.322 66.855Z" fill="#212121"/>
</g>
<g opacity="0.2">
<path opacity="0.2" d="M254.992 242.62C253.431 242.537 250.159 243.842 250.159 243.842C250.159 243.842 251.671 245.727 251.781 245.837C253.072 247.073 256.283 248.716 258.05 247.77C258.34 247.605 258.591 247.381 258.787 247.112C258.984 246.843 259.122 246.535 259.191 246.21C259.261 245.884 259.261 245.547 259.192 245.221C259.123 244.895 258.985 244.588 258.789 244.318C258.002 243.152 256.324 242.689 254.992 242.62Z" fill="#212121"/>
<path opacity="0.2" d="M221.451 254.357C221.416 254.357 221.672 256.766 221.706 256.911C222.093 258.658 223.874 261.8 225.849 261.979C226.18 262 226.512 261.95 226.823 261.834C227.134 261.719 227.417 261.539 227.654 261.306C227.891 261.074 228.076 260.794 228.198 260.485C228.32 260.177 228.376 259.846 228.362 259.514C228.362 258.133 227.202 256.794 226.132 256C224.896 255.061 221.451 254.357 221.451 254.357Z" fill="#212121"/>
<path opacity="0.2" d="M216.101 269.953C218.034 269.456 219.291 266.073 219.401 264.285C219.401 264.133 219.284 261.703 219.249 261.717H219.208C219.408 261.185 219.622 260.612 219.836 259.984C220.23 258.817 220.665 257.491 221.044 256.021C221.464 254.43 221.791 252.816 222.025 251.188C222.299 249.374 222.41 247.54 222.356 245.706C222.356 245.706 222.356 245.665 222.356 245.644C222.556 246.196 223.15 247.715 223.212 247.832C224.048 249.414 226.595 251.975 228.563 251.623C228.889 251.556 229.197 251.422 229.468 251.228C229.738 251.034 229.965 250.785 230.132 250.498C230.3 250.21 230.405 249.891 230.44 249.56C230.475 249.229 230.44 248.895 230.337 248.578C229.958 247.197 228.501 246.258 227.258 245.775C225.877 245.23 222.598 245.416 222.342 245.43C222.234 243.576 222.004 241.73 221.652 239.907C221.452 238.836 221.224 237.766 220.962 236.689C221.148 237.166 221.321 237.587 221.348 237.642C222.184 239.223 224.731 241.784 226.699 241.432C227.024 241.365 227.332 241.23 227.602 241.036C227.872 240.842 228.098 240.593 228.265 240.306C228.432 240.019 228.537 239.699 228.573 239.369C228.609 239.038 228.575 238.704 228.473 238.388C228.093 237.007 226.644 236.068 225.394 235.585C224.144 235.101 221.355 235.191 220.616 235.232L220.326 233.997C219.843 232.036 219.36 230.075 218.946 228.142C218.801 227.452 218.676 226.761 218.552 226.105C218.718 226.519 218.863 226.872 218.89 226.927C219.726 228.508 222.266 231.069 224.241 230.717C224.567 230.65 224.874 230.515 225.144 230.321C225.414 230.126 225.64 229.878 225.807 229.591C225.975 229.303 226.08 228.984 226.115 228.654C226.151 228.323 226.117 227.989 226.015 227.672C225.629 226.292 224.179 225.353 222.936 224.869C221.693 224.386 219.166 224.469 218.29 224.51C218.186 223.82 218.076 223.13 218.007 222.439C218.007 221.977 217.903 221.528 217.889 221.058L217.827 219.677C217.827 218.801 217.827 217.889 217.827 217.033C217.827 216.433 217.827 215.866 217.862 215.293C218 215.984 218.297 217.302 218.338 217.413C218.911 218.876 219.847 220.169 221.058 221.169C221.115 221.334 221.187 221.493 221.272 221.645C221.427 221.939 221.642 222.198 221.903 222.404C222.164 222.609 222.466 222.758 222.788 222.839C223.111 222.921 223.447 222.933 223.774 222.876C224.102 222.819 224.414 222.694 224.69 222.508C226.319 221.348 226.278 217.744 225.739 216.039C225.739 215.935 225.242 214.886 224.931 214.23L225.622 215.307C226.112 216.039 226.623 216.75 227.168 217.523L228.018 218.656C228.287 219.028 228.625 219.388 228.929 219.76C229.654 220.603 230.427 221.424 231.228 222.232C230.593 222.667 228.349 224.227 227.638 225.366C226.927 226.506 226.347 228.128 226.851 229.454C226.958 229.769 227.131 230.057 227.357 230.301C227.584 230.545 227.859 230.738 228.165 230.869C228.471 230.999 228.801 231.063 229.134 231.057C229.467 231.051 229.794 230.976 230.096 230.835C231.884 229.937 232.388 226.361 232.112 224.621C232.112 224.51 231.753 223.24 231.552 222.591C232.036 223.074 232.519 223.558 233.023 224.027C234.487 225.408 236.006 226.733 237.518 228.073L238.898 229.309C238.671 229.461 235.964 231.256 235.163 232.533C234.473 233.665 233.872 235.295 234.376 236.62C234.484 236.935 234.656 237.224 234.883 237.468C235.109 237.711 235.384 237.905 235.69 238.035C235.997 238.165 236.327 238.23 236.659 238.224C236.992 238.218 237.32 238.142 237.621 238.001C239.409 237.103 239.913 233.527 239.644 231.787C239.644 231.656 239.126 229.868 238.954 229.419C239.962 230.324 240.963 231.242 241.909 232.181C243.194 233.448 244.395 234.797 245.506 236.22C245.402 236.289 242.565 238.153 241.75 239.458C241.059 240.59 240.459 242.219 240.963 243.545C241.07 243.86 241.243 244.149 241.469 244.392C241.696 244.636 241.971 244.83 242.277 244.96C242.583 245.09 242.913 245.154 243.246 245.149C243.579 245.143 243.906 245.067 244.208 244.926C245.996 244.028 246.5 240.452 246.224 238.712C246.224 238.595 245.837 237.228 245.644 236.586L245.74 236.53C246.821 237.992 247.768 239.547 248.571 241.177C249.027 242.074 249.406 242.951 249.759 243.814C249.199 244.104 246.638 245.471 245.775 246.576C244.912 247.681 244.242 249.034 244.587 250.415C244.661 250.739 244.801 251.045 245 251.311C245.2 251.578 245.453 251.799 245.743 251.962C246.034 252.124 246.355 252.223 246.687 252.253C247.018 252.282 247.352 252.242 247.667 252.134C249.545 251.443 250.428 247.943 250.359 246.155C250.359 246.058 250.2 245.078 250.076 244.36C250.228 244.753 250.394 245.154 250.539 245.533C251.063 246.949 251.457 248.295 251.802 249.462C251.989 250.152 252.147 250.753 252.286 251.326C251.885 251.899 250.29 254.246 250.035 255.586C249.779 256.925 249.828 258.637 250.774 259.687C250.988 259.941 251.253 260.147 251.552 260.292C251.851 260.436 252.177 260.517 252.509 260.527C252.842 260.537 253.172 260.478 253.48 260.352C253.787 260.226 254.065 260.037 254.295 259.797C255.641 258.313 254.819 254.799 253.929 253.252C253.853 253.114 252.403 251.181 252.382 251.181V251.215C252.258 250.656 252.12 250.062 251.954 249.42C251.637 248.226 251.264 246.88 250.774 245.444C250.25 243.893 249.636 242.374 248.937 240.894C248.162 239.23 247.237 237.641 246.175 236.144L246.134 236.089C246.603 236.441 247.943 237.387 248.06 237.469C249.627 238.326 253.162 239.057 254.612 237.683C254.846 237.447 255.028 237.164 255.145 236.853C255.263 236.542 255.314 236.21 255.295 235.878C255.276 235.546 255.188 235.222 255.036 234.927C254.884 234.631 254.671 234.371 254.412 234.162C253.342 233.244 251.602 233.237 250.27 233.52C248.799 233.838 246.182 235.792 245.975 235.95C244.864 234.451 243.653 233.028 242.35 231.691C241.598 230.904 240.811 230.137 240.017 229.378C240.431 229.675 240.804 229.93 240.859 229.958C242.426 230.814 245.961 231.546 247.411 230.172C247.646 229.936 247.829 229.654 247.948 229.343C248.067 229.033 248.119 228.7 248.101 228.368C248.082 228.036 247.994 227.711 247.842 227.415C247.69 227.119 247.477 226.859 247.218 226.651C246.148 225.732 244.408 225.725 243.075 226.009C241.743 226.292 239.485 227.914 238.892 228.349L237.966 227.486C236.489 226.105 234.998 224.724 233.582 223.344C233.085 222.853 232.609 222.356 232.132 221.859C232.498 222.122 232.823 222.336 232.864 222.363C234.431 223.219 237.966 223.951 239.416 222.57C239.651 222.335 239.834 222.053 239.953 221.742C240.072 221.431 240.124 221.099 240.106 220.767C240.087 220.434 239.999 220.11 239.847 219.814C239.695 219.518 239.482 219.257 239.223 219.049C238.146 218.131 236.406 218.131 235.08 218.414C233.755 218.697 231.718 220.161 231.007 220.679C230.538 220.154 230.061 219.629 229.626 219.098C229.343 218.732 229.039 218.407 228.77 218.014L228.018 216.909C227.527 216.184 227.01 215.431 226.547 214.713C226.222 214.209 225.926 213.726 225.622 213.243C226.112 213.733 227.092 214.672 227.189 214.741C228.604 215.825 231.987 217.082 233.631 215.942C233.899 215.746 234.123 215.495 234.287 215.205C234.452 214.916 234.553 214.596 234.585 214.264C234.617 213.933 234.579 213.599 234.473 213.284C234.366 212.969 234.195 212.679 233.969 212.435C233.051 211.358 231.332 211.096 229.999 211.179C228.535 211.268 225.753 212.725 225.408 212.911C224.911 212.104 224.427 211.317 223.992 210.564C222.474 207.996 221.3 205.786 220.506 204.226L219.236 204.702C219.251 204.738 219.27 204.773 219.291 204.806C220.133 206.373 221.362 208.589 222.978 211.179C223.482 212 224.034 212.863 224.614 213.747C223.869 214.423 223.161 215.14 222.494 215.894C221.148 215.204 218.234 214.921 217.862 214.879C217.862 213.933 217.924 213.015 217.965 212.117C218.124 209.128 218.366 206.649 218.559 204.903L217.178 205.427C217.033 207.14 216.874 209.404 216.798 212.069C216.764 213.029 216.75 214.058 216.75 215.114C216.37 215.176 213.263 215.666 212.035 216.495C210.916 217.227 209.701 218.469 209.604 219.878C209.571 220.209 209.608 220.543 209.713 220.859C209.817 221.175 209.987 221.465 210.211 221.711C210.435 221.957 210.708 222.153 211.013 222.287C211.317 222.421 211.647 222.489 211.979 222.487C213.975 222.418 215.935 219.388 216.426 217.655C216.426 217.551 216.64 216.419 216.75 215.701C216.75 216.129 216.75 216.55 216.75 216.992C216.75 217.876 216.791 218.752 216.819 219.691C216.854 220.147 216.881 220.61 216.916 221.072C216.95 221.535 217.019 222.018 217.068 222.494C217.206 223.599 217.399 224.711 217.62 225.829C216.847 225.829 214.113 225.898 212.898 226.457C211.682 227.017 210.288 228.059 209.984 229.433C209.9 229.755 209.885 230.091 209.939 230.419C209.994 230.748 210.117 231.061 210.301 231.338C210.484 231.616 210.724 231.852 211.005 232.03C211.286 232.209 211.602 232.326 211.931 232.374C213.919 232.609 216.315 229.902 217.054 228.28C217.102 228.176 217.509 226.954 217.744 226.278C217.882 226.968 218.013 227.617 218.172 228.287C218.642 230.234 219.173 232.188 219.691 234.142C219.85 234.735 220.002 235.336 220.161 235.93C219.884 235.93 216.633 235.93 215.273 236.558C214.057 237.117 212.663 238.16 212.359 239.541C212.276 239.862 212.262 240.198 212.317 240.525C212.372 240.853 212.495 241.165 212.679 241.441C212.862 241.718 213.102 241.953 213.382 242.131C213.663 242.309 213.977 242.426 214.306 242.475C216.294 242.71 218.683 240.01 219.429 238.381C219.484 238.263 220.064 236.496 220.188 236.04C220.527 237.359 220.879 238.671 221.127 239.982C221.5 241.748 221.758 243.535 221.901 245.333C221.769 245.333 218.379 245.333 216.978 245.961C215.763 246.521 214.375 247.563 214.064 248.937C213.981 249.26 213.967 249.596 214.023 249.924C214.078 250.253 214.202 250.566 214.386 250.843C214.57 251.12 214.811 251.356 215.092 251.534C215.373 251.712 215.689 251.83 216.018 251.878C218 252.113 220.395 249.407 221.141 247.784C221.189 247.681 221.631 246.334 221.831 245.713H221.942C222.037 247.526 221.97 249.345 221.742 251.146C221.624 252.141 221.459 253.087 221.279 253.998C220.651 253.929 217.758 253.66 216.446 254.094C215.134 254.529 213.685 255.399 213.222 256.732C213.104 257.043 213.052 257.375 213.071 257.707C213.089 258.04 213.178 258.364 213.33 258.66C213.482 258.955 213.696 259.216 213.955 259.424C214.215 259.632 214.516 259.782 214.838 259.866C216.785 260.322 219.456 257.899 220.361 256.366C220.416 256.283 220.83 255.379 221.12 254.716C221.031 255.123 220.948 255.551 220.858 255.945C220.513 257.415 220.112 258.748 219.746 259.922C219.532 260.612 219.325 261.185 219.125 261.744C218.469 262 215.846 263.077 214.893 264.05C213.94 265.024 213.036 266.48 213.25 267.882C213.285 268.212 213.389 268.531 213.556 268.819C213.722 269.106 213.947 269.356 214.215 269.551C214.484 269.746 214.791 269.883 215.116 269.952C215.44 270.021 215.776 270.022 216.101 269.953Z" fill="#212121"/>
</g>
<g opacity="0.2">
<path opacity="0.2" d="M85.9586 92.7107C87.4015 92.1032 89.7696 89.5072 89.7696 89.5072C89.7696 89.5072 87.5879 88.4647 87.4429 88.4164C85.7445 87.864 82.1337 87.7881 80.96 89.4036C80.7674 89.6789 80.6356 89.9919 80.5733 90.322C80.511 90.6521 80.5197 90.9917 80.5987 91.3182C80.6777 91.6447 80.8252 91.9506 81.0316 92.2157C81.2379 92.4808 81.4983 92.699 81.7954 92.8557C83.0312 93.5392 84.7227 93.2285 85.9586 92.7107Z" fill="#212121"/>
<path opacity="0.2" d="M111.048 67.5452C111.048 67.5452 109.798 65.474 109.667 65.3497C108.556 63.9689 105.587 61.8977 103.716 62.5881C103.407 62.7131 103.128 62.9018 102.897 63.1419C102.667 63.382 102.489 63.6681 102.376 63.9815C102.264 64.2949 102.218 64.6286 102.243 64.9607C102.268 65.2928 102.363 65.6159 102.521 65.9089C103.15 67.1724 104.751 67.8559 106.063 68.1045C107.637 68.4013 111.041 67.5452 111.048 67.5452Z" fill="#212121"/>
<path opacity="0.2" d="M109.073 51.1688C107.547 52.4598 107.886 56.0569 108.569 57.707C108.625 57.8519 109.798 59.9784 109.826 59.9508C109.874 60.5169 109.936 61.1245 110.012 61.7873C110.164 63.0093 110.351 64.3901 110.654 65.8814C110.966 67.4888 111.37 69.077 111.863 70.6384C112.399 72.3887 113.092 74.0871 113.934 75.7129V75.775C113.52 75.3608 112.318 74.2492 112.215 74.1733C110.772 73.1169 107.382 71.9156 105.746 73.0893C105.481 73.2914 105.263 73.5467 105.104 73.8389C104.945 74.131 104.849 74.4533 104.823 74.7848C104.797 75.1163 104.841 75.4496 104.953 75.763C105.064 76.0763 105.24 76.3627 105.469 76.6035C106.408 77.6599 108.134 77.8946 109.467 77.791C110.965 77.6668 113.816 76.0857 114.044 75.9545C114.947 77.589 115.958 79.1619 117.068 80.6631C117.71 81.54 118.387 82.403 119.077 83.2591C118.705 82.9139 118.387 82.6101 118.318 82.5687C116.875 81.5124 113.485 80.311 111.849 81.4847C111.585 81.6868 111.366 81.9421 111.207 82.2343C111.048 82.5264 110.953 82.8487 110.927 83.1802C110.901 83.5117 110.945 83.845 111.056 84.1584C111.167 84.4717 111.343 84.7581 111.573 84.9989C112.512 86.0553 114.238 86.29 115.57 86.1795C116.903 86.0691 119.381 84.7987 120.023 84.419L120.824 85.3994C122.108 86.9597 123.399 88.5131 124.621 90.0735C125.049 90.6258 125.457 91.1781 125.857 91.7373C125.526 91.4267 125.25 91.1781 125.201 91.1436C123.758 90.0804 120.368 88.886 118.732 90.0597C118.469 90.2622 118.25 90.518 118.092 90.8104C117.934 91.1028 117.839 91.4252 117.814 91.7567C117.788 92.0882 117.833 92.4213 117.945 92.7344C118.057 93.0475 118.233 93.3335 118.463 93.5738C119.395 94.6302 121.121 94.8649 122.453 94.7544C123.786 94.644 126.023 93.4703 126.796 93.056C127.19 93.636 127.59 94.2228 127.949 94.8028C128.184 95.2032 128.439 95.576 128.64 95.9972L129.33 97.2123C129.724 97.9994 130.131 98.8072 130.49 99.5873C130.745 100.126 130.98 100.644 131.18 101.168C130.759 100.616 129.91 99.5528 129.799 99.47C128.648 98.3996 127.24 97.6435 125.712 97.2745C125.59 97.1488 125.456 97.0355 125.312 96.9361C125.046 96.7377 124.741 96.5975 124.417 96.5246C124.093 96.4516 123.758 96.4475 123.432 96.5126C123.107 96.5777 122.798 96.7106 122.527 96.9025C122.257 97.0944 122.029 97.3411 121.86 97.6266C120.9 99.3871 122.509 102.618 123.731 103.916C123.807 103.992 124.684 104.731 125.25 105.193L124.131 104.503C123.372 104.061 122.605 103.64 121.777 103.184L120.541 102.563C120.134 102.342 119.678 102.169 119.243 101.962C118.221 101.52 117.172 101.12 116.095 100.74C116.481 100.05 117.821 97.6887 117.966 96.3562C118.111 95.0237 117.924 93.2977 116.896 92.3311C116.661 92.0951 116.38 91.9112 116.07 91.7913C115.759 91.6713 115.427 91.6181 115.095 91.635C114.763 91.652 114.438 91.7387 114.142 91.8895C113.845 92.0404 113.584 92.252 113.375 92.5106C112.153 94.0986 113.257 97.5368 114.272 99.0005C114.334 99.0971 115.183 100.071 115.653 100.595C115.004 100.367 114.362 100.14 113.699 99.9394C111.794 99.3457 109.84 98.8003 107.9 98.2548C107.299 98.0891 106.712 97.9096 106.118 97.737C106.256 97.5023 107.913 94.7061 108.072 93.2148C108.217 91.8892 108.031 90.1563 107.002 89.1897C106.768 88.9543 106.486 88.7708 106.176 88.6509C105.867 88.531 105.535 88.4775 105.203 88.4937C104.871 88.51 104.547 88.5957 104.25 88.7453C103.953 88.8949 103.691 89.1051 103.481 89.3623C102.266 90.9503 103.364 94.3885 104.379 95.8591C104.461 95.9696 105.683 97.3711 106.008 97.7094C104.703 97.3297 103.405 96.9362 102.142 96.5012C100.433 95.9191 98.7629 95.2273 97.143 94.43C97.212 94.3195 98.9519 91.4129 99.1176 89.8801C99.2626 88.5545 99.0761 86.8216 98.0474 85.855C97.813 85.6191 97.5315 85.4351 97.2213 85.3152C96.911 85.1953 96.579 85.142 96.2468 85.159C95.9146 85.1759 95.5897 85.2626 95.2933 85.4135C94.9969 85.5643 94.7355 85.776 94.5263 86.0345C93.3043 87.6225 94.409 91.0607 95.4239 92.5244C95.4929 92.6211 96.425 93.6912 96.8737 94.1883L96.8047 94.2781C95.1981 93.4317 93.6707 92.4427 92.2411 91.3231C91.4402 90.7155 90.7153 90.0942 90.0249 89.4728C90.4046 88.9619 92.0961 86.6214 92.4137 85.2613C92.7313 83.9012 92.7036 82.2166 91.7854 81.1188C91.5787 80.859 91.3198 80.6455 91.0253 80.4922C90.7308 80.339 90.4073 80.2493 90.076 80.2292C89.7446 80.209 89.4127 80.2587 89.1017 80.3751C88.7908 80.4915 88.5079 80.672 88.2712 80.9048C86.8904 82.3547 87.5808 85.8896 88.4507 87.4637C88.499 87.5465 89.0652 88.3681 89.4863 88.955C89.1756 88.6719 88.8511 88.3819 88.5612 88.0989C87.4703 87.0564 86.5314 86.0276 85.7098 85.1094C85.2472 84.5847 84.8399 84.1014 84.4601 83.6457C84.5706 82.9553 84.9918 80.1522 84.6396 78.8128C84.2875 77.4734 83.4936 75.9752 82.1887 75.4436C81.8852 75.3071 81.5564 75.2361 81.2236 75.2352C80.8909 75.2342 80.5617 75.3034 80.2575 75.4383C79.9533 75.5731 79.6809 75.7706 79.4581 76.0177C79.2353 76.2649 79.0671 76.5563 78.9645 76.8728C78.4052 78.799 80.6698 81.6021 82.1473 82.6101C82.2784 82.693 84.4256 83.8252 84.4325 83.7907V83.7493C84.7915 84.1912 85.1713 84.6675 85.6062 85.1784C86.4071 86.1105 87.3253 87.1599 88.3679 88.237C89.511 89.4065 90.7213 90.5084 91.9925 91.5371C93.4145 92.6968 94.9372 93.7273 96.5423 94.6164H96.5976C96.0245 94.499 94.4021 94.2366 94.2778 94.2297C92.4965 94.14 88.9961 95.0237 88.285 96.8947C88.1769 97.209 88.1361 97.5424 88.1653 97.8735C88.1945 98.2045 88.2931 98.5256 88.4546 98.8161C88.6161 99.1065 88.8369 99.3597 89.1027 99.5592C89.3685 99.7587 89.6733 99.9 89.9972 99.974C91.3781 100.34 92.9315 99.5804 93.9809 98.7588C95.1684 97.8337 96.6735 94.9409 96.7909 94.7061C98.4438 95.5722 100.153 96.3265 101.907 96.9638C102.929 97.3435 103.978 97.6887 105.014 98.027L104.006 97.8682C102.218 97.7854 98.7171 98.6622 98.0129 100.533C97.9036 100.847 97.8617 101.181 97.8899 101.512C97.9181 101.844 98.0158 102.166 98.1767 102.457C98.3376 102.748 98.558 103.002 98.8236 103.202C99.0892 103.403 99.3941 103.545 99.7182 103.619C101.099 103.978 102.652 103.226 103.709 102.404C104.765 101.583 106.105 99.1247 106.47 98.4758C106.871 98.6 107.271 98.7312 107.679 98.8486C109.612 99.4423 111.545 100.022 113.423 100.651C114.113 100.871 114.728 101.113 115.377 101.341C114.928 101.272 114.555 101.21 114.493 101.21C112.712 101.12 109.211 102.004 108.507 103.875C108.398 104.189 108.356 104.522 108.384 104.853C108.413 105.184 108.51 105.505 108.671 105.796C108.832 106.086 109.053 106.34 109.318 106.539C109.584 106.739 109.889 106.88 110.212 106.954C111.593 107.32 113.147 106.567 114.196 105.739C115.246 104.91 116.468 102.701 116.882 101.928C117.531 102.197 118.187 102.459 118.808 102.749C119.229 102.95 119.65 103.122 120.058 103.35L121.28 103.999C122.039 104.441 122.826 104.897 123.558 105.345L125.029 106.264C124.338 106.036 123.082 105.615 122.957 105.573C121.204 105.214 117.614 105.573 116.626 107.299C116.472 107.594 116.382 107.918 116.361 108.25C116.34 108.582 116.389 108.914 116.505 109.226C116.621 109.538 116.801 109.822 117.034 110.06C117.266 110.297 117.546 110.484 117.855 110.606C119.146 111.172 120.81 110.662 121.998 110.006C123.275 109.315 125.139 106.768 125.374 106.45C126.175 106.954 126.948 107.458 127.673 107.941C130.158 109.598 132.168 111.069 133.569 112.132L134.508 111.152L134.411 111.083C132.968 110.04 130.89 108.583 128.315 106.94C127.507 106.422 126.63 105.884 125.719 105.338C126.097 104.404 126.417 103.447 126.679 102.473C128.191 102.473 130.939 101.493 131.298 101.362C131.684 102.232 132.05 103.074 132.389 103.875C133.548 106.636 134.411 108.97 134.998 110.627L136.027 109.55C135.413 107.941 134.563 105.836 133.479 103.405C133.086 102.528 132.651 101.596 132.195 100.644C132.513 100.43 135.088 98.6346 135.847 97.3711C136.538 96.225 137.09 94.5749 136.538 93.2701C136.424 92.9579 136.247 92.6731 136.016 92.4341C135.785 92.1952 135.507 92.0074 135.199 91.8831C134.891 91.7587 134.56 91.7005 134.228 91.7123C133.896 91.7241 133.571 91.8055 133.272 91.9514C131.498 92.8834 131.056 96.4667 131.367 98.2272C131.367 98.3308 131.705 99.4354 131.919 100.126C131.733 99.7392 131.553 99.3595 131.353 98.966C130.966 98.172 130.559 97.3987 130.117 96.5633L129.427 95.362C129.206 94.9547 128.923 94.5542 128.674 94.1469C128.067 93.2148 127.404 92.2966 126.72 91.3852C127.411 91.0469 129.848 89.7973 130.697 88.7617C131.546 87.7261 132.354 86.1933 132.029 84.8194C131.964 84.4929 131.831 84.1837 131.639 83.9121C131.446 83.6404 131.198 83.4125 130.912 83.2431C130.625 83.0737 130.306 82.9667 129.975 82.929C129.644 82.8913 129.309 82.9238 128.992 83.0244C127.1 83.6733 126.126 87.1668 126.161 88.9343C126.161 89.0447 126.334 90.3151 126.444 91.0055C126.03 90.4601 125.616 89.9147 125.174 89.383C123.91 87.8296 122.585 86.3038 121.266 84.778C120.859 84.3085 120.465 83.8321 120.065 83.3626C120.306 83.2453 123.234 81.823 124.207 80.67C125.056 79.6413 125.857 78.0948 125.533 76.7209C125.467 76.3949 125.333 76.0863 125.14 75.8153C124.947 75.5442 124.7 75.3167 124.413 75.1475C124.127 74.9783 123.808 74.8711 123.478 74.8329C123.147 74.7947 122.812 74.8264 122.495 74.9258C120.603 75.5817 119.63 79.0683 119.664 80.8427C119.664 80.9738 119.92 82.8172 120.003 83.2798C119.126 82.2442 118.256 81.2086 117.448 80.1384C116.341 78.7123 115.329 77.2155 114.417 75.6577C114.534 75.6024 117.593 74.1318 118.56 72.9512C119.409 71.9225 120.21 70.376 119.885 69.0021C119.82 68.6763 119.687 68.3679 119.495 68.0969C119.303 67.8259 119.056 67.5983 118.77 67.429C118.484 67.2597 118.166 67.1524 117.836 67.1142C117.506 67.076 117.171 67.1076 116.854 67.207C114.963 67.856 113.982 71.3495 114.017 73.1169C114.017 73.2343 114.21 74.6359 114.314 75.3056H114.21C113.335 73.7127 112.605 72.0444 112.028 70.3208C111.697 69.3818 111.435 68.4567 111.2 67.5591C111.794 67.3382 114.514 66.3302 115.515 65.3567C116.516 64.3832 117.441 62.9817 117.268 61.5802C117.24 61.2488 117.142 60.9273 116.981 60.6364C116.819 60.3455 116.599 60.0918 116.333 59.8918C116.067 59.6919 115.762 59.5501 115.438 59.4758C115.114 59.4015 114.778 59.3963 114.452 59.4606C112.498 59.9025 111.145 63.251 111 65.0322C111 65.1289 111 66.1231 111.041 66.8411C110.937 66.4338 110.827 66.0195 110.737 65.626C110.406 64.1485 110.192 62.7746 110.012 61.5595C109.916 60.869 109.84 60.2339 109.778 59.647C110.254 59.1292 112.146 57.0234 112.581 55.7255C113.016 54.4275 113.188 52.7291 112.394 51.583C112.007 51.0896 111.441 50.7692 110.819 50.6916C110.197 50.614 109.569 50.7855 109.073 51.1688Z" fill="#212121"/>
</g>
<path d="M226.535 246.36C264.886 208.009 264.886 145.829 226.535 107.478C188.184 69.1271 126.004 69.1271 87.6531 107.478C49.302 145.829 49.302 208.009 87.6531 246.36C126.004 284.711 188.184 284.711 226.535 246.36Z" fill="#E0E0E0" stroke="#212121" stroke-width="0.8025" stroke-miterlimit="10"/>
<path d="M222.561 199.35C234.956 163.19 215.69 123.828 179.53 111.434C143.369 99.0389 104.007 118.305 91.6129 154.465C79.2183 190.626 98.4843 229.988 134.645 242.382C170.805 254.777 210.167 235.511 222.561 199.35Z" fill="#B75400"/>
<path d="M147.715 146.183L154.771 147.64L157.181 150.139L160.315 150.622L161.31 153.591L160.578 155.607L158.444 156.587L153.204 155.731L153.059 155.089L155.538 153.363L153.826 150.208L149.145 149.566L146.652 147.426L147.715 146.183Z" fill="white"/>
<path d="M204.578 211.289L199.02 210.371L192.268 209.514L187.297 210.619L182.429 210.695L177.548 212.953L174.697 213.754L172.936 214.147L169.995 216.819L167.075 218.814L162.138 217.047L162.262 212.311L159.252 211.751L156.049 212.442L155.248 211.109L154.923 208.147L153.446 206.767L151.271 207.588L150.988 209.335L148.295 210.101L145.251 207.747L143.435 204.157L144.816 199.138L149.538 198.447L151.071 199.283L152.99 198.854L155.061 196.88L157.291 197.053L161.323 201.395L162.407 200.981L161.268 197.363L159.887 195.658L159.528 192.537L164.893 188.657L164.375 182.54L166.481 179.889L167.744 175.746L169.277 175.056L172.432 171.832L172.308 170.513L169.781 171.238L169.015 170.064L167.247 170.458L164.665 171.701L165.487 169.332L170.741 166.481L171.7 164.755L174.731 167.786L176.499 168.904L178.57 167.765L177.148 165.894L173.247 164.237L168.414 160.785L163.802 158.949L159.805 159.163L157.457 157.665L154.751 157.595L154.571 158.286L155.262 163.008L156.256 164.472L155.952 169.919L152.176 168.069V165.715L148.447 164.859L146.666 163.423L146.576 159.239L150.477 154.834L149.945 150.919L148.213 151.472L146.77 150.277L145.755 147.978L144.602 148.068L144.526 150.774L142.834 151.465L140.763 146.031L139.306 145.513L136.883 145.058L134.598 146.908L138.485 149.241L139.734 151.831L132.996 148.779L128.025 145.327L126.741 141.067L122.288 140.708L119.526 143.511C118.852 144.154 118.145 144.76 117.406 145.327C116.208 145.913 114.969 146.411 113.699 146.818L113.664 149.69L110.012 150.671L110.702 152.362L116.847 152.003L120.644 154.696L121.887 160.309L121.231 165.673L122.723 170.893L119.961 179.751L121.597 191.667L124.538 198.081L127.763 202.748L130.234 202.534L128.853 200.152L127.217 198.523L125.629 195.175L127.01 194.533L130.538 199.807L133.3 204.585L134.225 208.727L138.091 211.744L144.436 214.541L153.273 214.934L156.373 216.771L158.866 218.904L162.145 220.029L165.887 220.209L169.381 219.263C169.381 219.263 169.574 220.906 169.753 221.707C169.933 222.508 168.29 225.732 168.29 225.732L167.24 229.329L169.312 232.574L173.164 233.265L179.274 237.29L181.732 237.752L182.264 240.155L182.795 241.218C194.82 236.428 205.255 228.353 212.911 217.917L212.732 216.736L215.321 207.913L212.863 206.918L204.578 211.289Z" fill="white"/>
<path d="M207.187 144.25L204.75 141.592L201.719 138.568L200.014 133.9L203.004 133.742L202.81 132.105L200.691 132.402L202.272 131.208L203.949 129.661L203.59 128.06L201.098 125.919L199.924 122.557C188.072 113.234 173.5 108.033 158.423 107.744C143.346 107.455 128.586 112.093 116.385 120.955L120.665 122.757L119.063 126.14L116.157 127.459L116.799 131.857L115.625 132.623L114.41 134.743L115.211 137.594L118.007 137.311L117.496 140.287L120.216 139.679L123.551 132.713L123.461 130.041L127.88 128.722L128.57 126.548L133.113 125.036L132.989 122.205L136.324 121.294C136.324 121.294 138.443 119.478 138.926 119.374C139.896 119.367 140.866 119.431 141.826 119.567L144.657 120.948L148.026 120.203L150.518 117.8L154.281 117.303C154.887 117.538 155.541 117.623 156.187 117.551C156.988 117.372 159.149 115.715 159.149 115.715L164.437 117.572L166.681 118.587L167.213 120.99L169.691 120.776L170.174 119.153L172.474 119.657L172.598 120.976L168.069 123.323L171.583 126.244L178.066 128.17L181.18 130.842L184.784 130.379L185.225 128.598L186.441 127.997L181.559 125.712L178.922 125.961L180.862 124.856L178.308 122.557L180.993 121.791L184.949 122.937L186.606 126.603L188.836 128.301L191.308 132.63L195.409 134.411L196.583 139.7L200.808 141.288L201.036 143.09V145.278L202.638 147.95L203.28 149.331L206.11 149.207L206.801 146.197L207.187 144.25Z" fill="white"/>
<path d="M205.689 127.631L205.89 128.55L205.662 131.311L206.642 133.452L208.548 133.7L209.238 136.752L207.167 136.372L208.61 145.14L207.471 149.096L209.749 153.301L212.262 154.765L214.14 163.422L217.716 169.691L221.099 174.324L225 174.469L225.573 170.976L226.008 170.451C225.733 167.588 225.284 164.746 224.662 161.938C221.794 148.906 215.203 136.988 205.689 127.631Z" fill="white"/>
<path d="M168.421 134.853L156.808 132.554L152.189 133.742L151.748 137.042L149.359 135.385L146.01 136.973L146.866 142.33L150.215 143.773L151.623 140.266L154.557 142.137L160.495 145.361L162.49 149.801L167.834 154.164L174.317 151.547L173.62 149.179L171.576 146.77L169.829 140.425L170.831 137.346L168.421 134.853Z" fill="white"/>
<path d="M177.866 136.455L175.318 136.351L173.626 138.575L175.781 142.979L177.866 142.517V136.455Z" fill="white"/>
<path d="M193.455 136.193L187.359 134.515L185.812 132.844L184.639 133.604L186.468 136.566L188.36 140.522L190.977 140.95L191.315 140.204L189.34 138.112L193.863 138.796L193.455 136.193Z" fill="white"/>
<path d="M159.487 204.481L158.99 205.261L164.12 205.634L166.543 207.457L169.657 207.098L170.389 205.089L166.557 205.261L159.487 204.481Z" fill="white"/>
<path d="M174.434 204.357L171.279 206.069L172.046 207.243L176.216 206.318L176.733 204.854L175.325 205.337L174.434 204.357Z" fill="white"/>
<path d="M250.601 179.869L237.228 157.498L206.075 176.121L219.447 198.491L250.601 179.869Z" fill="white" stroke="#212121" stroke-width="0.8025" stroke-miterlimit="10"/>
<path d="M234.818 162.953L244.463 179.088" stroke="#212121" stroke-width="0.8025" stroke-miterlimit="10"/>
<path d="M231.635 164.852L241.28 180.994" stroke="#212121" stroke-width="0.8025" stroke-miterlimit="10"/>
<path d="M228.452 166.751L238.104 182.892" stroke="#212121" stroke-width="0.8025" stroke-miterlimit="10"/>
<path d="M225.269 168.656L234.921 184.798" stroke="#212121" stroke-width="0.8025" stroke-miterlimit="10"/>
<path d="M222.093 170.555L231.738 186.697" stroke="#212121" stroke-width="0.8025" stroke-miterlimit="10"/>
<path d="M218.91 172.46L228.555 188.602" stroke="#212121" stroke-width="0.8025" stroke-miterlimit="10"/>
<path d="M215.728 174.359L225.379 190.501" stroke="#212121" stroke-width="0.8025" stroke-miterlimit="10"/>
<path d="M252.654 196.762L245.671 171.652L210.703 181.376L217.686 206.486L252.654 196.762Z" fill="white" stroke="#212121" stroke-width="0.8025" stroke-miterlimit="10"/>
<path d="M241.929 176.278L246.962 194.395" stroke="#212121" stroke-width="0.8025" stroke-miterlimit="10"/>
<path d="M238.352 177.272L243.392 195.389" stroke="#212121" stroke-width="0.8025" stroke-miterlimit="10"/>
<path d="M238.573 191.895L239.823 196.383" stroke="#212121" stroke-width="0.8025" stroke-miterlimit="10"/>
<path d="M234.783 178.267L238.159 190.397" stroke="#212121" stroke-width="0.8025" stroke-miterlimit="10"/>
<path d="M233.423 187.194L236.254 197.377" stroke="#212121" stroke-width="0.8025" stroke-miterlimit="10"/>
<path d="M231.214 179.261L232.753 184.784" stroke="#212121" stroke-width="0.8025" stroke-miterlimit="10"/>
<path d="M230.275 189.707L232.684 198.371" stroke="#212121" stroke-width="0.8025" stroke-miterlimit="10"/>
<path d="M227.644 180.248L229.812 188.057" stroke="#212121" stroke-width="0.8025" stroke-miterlimit="10"/>
<path d="M226.029 188.271L229.108 199.359" stroke="#212121" stroke-width="0.8025" stroke-miterlimit="10"/>
<path d="M224.075 181.242L225.49 186.331" stroke="#212121" stroke-width="0.8025" stroke-miterlimit="10"/>
<path d="M224.517 196.68L225.538 200.353" stroke="#212121" stroke-width="0.8025" stroke-miterlimit="10"/>
<path d="M220.498 182.236L224.144 195.34" stroke="#212121" stroke-width="0.8025" stroke-miterlimit="10"/>
<path d="M152.584 123.943L177.757 117.188L168.351 82.1335L143.178 88.8879L152.584 123.943Z" fill="white" stroke="#212121" stroke-width="0.8025" stroke-miterlimit="10"/>
<path d="M169.083 114.473L155.006 118.249" stroke="#212121" stroke-width="0.8025" stroke-miterlimit="10"/>
<path d="M173.171 113.375L171.258 113.893" stroke="#212121" stroke-width="0.8025" stroke-miterlimit="10"/>
<path d="M164.54 111.856L154.046 114.673" stroke="#212121" stroke-width="0.8025" stroke-miterlimit="10"/>
<path d="M172.211 109.798L166.888 111.228" stroke="#212121" stroke-width="0.8025" stroke-miterlimit="10"/>
<path d="M157.215 109.985L153.086 111.089" stroke="#212121" stroke-width="0.8025" stroke-miterlimit="10"/>
<path d="M171.244 106.215L160.426 109.122" stroke="#212121" stroke-width="0.8025" stroke-miterlimit="10"/>
<path d="M163.829 104.372L152.127 107.513" stroke="#212121" stroke-width="0.8025" stroke-miterlimit="10"/>
<path d="M170.285 102.639L165.417 103.944" stroke="#212121" stroke-width="0.8025" stroke-miterlimit="10"/>
<path d="M169.325 99.0626L151.16 103.93" stroke="#212121" stroke-width="0.8025" stroke-miterlimit="10"/>
<path d="M168.365 95.4795L150.201 100.354" stroke="#212121" stroke-width="0.8025" stroke-miterlimit="10"/>
<path d="M167.406 91.903L149.241 96.7704" stroke="#212121" stroke-width="0.8025" stroke-miterlimit="10"/>
<path d="M106.354 170.131L108.942 144.197L72.8269 140.592L70.2384 166.527L106.354 170.131Z" fill="white" stroke="#212121" stroke-width="0.8025" stroke-miterlimit="10"/>
<path d="M102.749 157.292L101.892 165.853" stroke="#212121" stroke-width="0.8025" stroke-miterlimit="10"/>
<path d="M103.764 147.143L102.976 155.034" stroke="#212121" stroke-width="0.8025" stroke-miterlimit="10"/>
<path d="M98.4888 162.656L98.2057 165.487" stroke="#212121" stroke-width="0.8025" stroke-miterlimit="10"/>
<path d="M100.077 146.777L98.6959 160.62" stroke="#212121" stroke-width="0.8025" stroke-miterlimit="10"/>
<path d="M95.092 159.411L94.519 165.121" stroke="#212121" stroke-width="0.8025" stroke-miterlimit="10"/>
<path d="M96.3899 146.411L95.4578 155.718" stroke="#212121" stroke-width="0.8025" stroke-miterlimit="10"/>
<path d="M92.3579 149.47L90.8321 164.755" stroke="#212121" stroke-width="0.8025" stroke-miterlimit="10"/>
<path d="M92.7031 146.038L92.496 148.116" stroke="#212121" stroke-width="0.8025" stroke-miterlimit="10"/>
<path d="M89.0094 145.672L87.1453 164.382" stroke="#212121" stroke-width="0.8025" stroke-miterlimit="10"/>
<path d="M85.3227 145.306L83.4586 164.016" stroke="#212121" stroke-width="0.8025" stroke-miterlimit="10"/>
<path d="M81.6357 144.934L79.7716 163.651" stroke="#212121" stroke-width="0.8025" stroke-miterlimit="10"/>
<path d="M147.543 318.917C147.543 318.917 164.03 320.381 172.674 308.285C181.318 296.189 180.379 275.076 178.756 266.66H111.475C111.475 266.66 110.253 321.568 147.543 318.917Z" fill="white" stroke="#212121" stroke-width="0.8025" stroke-miterlimit="10"/>
<path d="M174.945 232.464C174.945 232.464 172.466 227.5 172.466 227.037C172.466 226.575 175.104 220.823 174.172 219.125C173.24 217.427 170.292 215.404 169.339 214.782C168.386 214.161 164.375 216.64 163.125 217.42C161.875 218.2 163.125 219.125 163.588 219.125L166.349 218.662C165.603 219.314 164.925 220.041 164.326 220.83C164.023 221.452 164.326 223.627 164.326 224.089C164.326 224.552 164.485 224.71 165.107 225.47C165.728 226.229 165.258 227.023 166.653 229.039C167.963 231.141 169.155 233.315 170.223 235.55L174.945 232.464Z" fill="white" stroke="#212121" stroke-width="0.8025" stroke-miterlimit="10"/>
<path d="M179.757 217.551L161.454 219.256" stroke="#212121" stroke-width="0.8025" stroke-miterlimit="10"/>
<path d="M170.602 221.894C170.602 221.894 169.518 216.619 168.434 216.467C167.35 216.315 163.16 218.331 163.601 219.104C164.043 219.878 166.363 218.642 166.363 218.642C166.363 218.642 163.104 223.91 165.12 225.463" fill="white"/>
<path d="M170.602 221.894C170.602 221.894 169.518 216.619 168.434 216.467C167.35 216.315 163.16 218.331 163.601 219.104C164.043 219.878 166.363 218.642 166.363 218.642C166.363 218.642 163.104 223.91 165.12 225.463" stroke="#212121" stroke-width="0.8025" stroke-miterlimit="10"/>
<path d="M159.059 204.371H132.996V240.666H159.059V204.371Z" fill="white" stroke="#212121" stroke-width="0.8025" stroke-miterlimit="10"/>
<path d="M136.441 209.231H155.241" stroke="#212121" stroke-width="0.8025" stroke-miterlimit="10"/>
<path d="M147.508 212.939H155.241" stroke="#212121" stroke-width="0.8025" stroke-miterlimit="10"/>
<path d="M136.441 212.939H146.155" stroke="#212121" stroke-width="0.8025" stroke-miterlimit="10"/>
<path d="M151.726 216.647H155.241" stroke="#212121" stroke-width="0.8025" stroke-miterlimit="10"/>
<path d="M136.441 216.647H149.697" stroke="#212121" stroke-width="0.8025" stroke-miterlimit="10"/>
<path d="M144.463 220.347H155.241" stroke="#212121" stroke-width="0.8025" stroke-miterlimit="10"/>
<path d="M136.441 220.347H142.606" stroke="#212121" stroke-width="0.8025" stroke-miterlimit="10"/>
<path d="M136.441 224.055H155.241" stroke="#212121" stroke-width="0.8025" stroke-miterlimit="10"/>
<path d="M136.441 227.762H155.241" stroke="#212121" stroke-width="0.8025" stroke-miterlimit="10"/>
<path d="M136.441 231.47H155.241" stroke="#212121" stroke-width="0.8025" stroke-miterlimit="10"/>
<path d="M121.694 236.061L126.25 229.398C126.25 229.398 127.479 222.384 127.479 221.507C127.479 220.63 132.747 214.727 132.747 214.727V219.636C132.747 219.636 133.969 218 135.018 216.419C136.068 214.838 136.952 215.038 136.772 216.771C136.593 218.504 133.969 222.204 133.969 222.204C133.969 222.204 135.018 223.785 134.321 226.588C133.624 229.392 129.412 232.374 129.412 232.374L127.307 239.216L121.694 236.061Z" fill="white" stroke="#212121" stroke-width="0.8025" stroke-miterlimit="10"/>
<path d="M132.595 219.926L129.723 223.033" stroke="#212121" stroke-width="0.8025" stroke-miterlimit="10"/>
<path d="M191.701 258.347C186.426 250.905 175.753 231.2 175.753 231.2L168.773 236.945L177.831 263.622L164.492 263.933L147.694 264.485L130.897 263.933L117.551 263.622L129.343 238.961L122.384 233.216L103.922 259.279C98.6475 266.722 95.5476 271.707 96.6315 273.861C97.7155 276.015 118.663 283.168 118.663 283.168L125.953 301.16H169.449L176.74 283.168C176.74 283.168 197.68 276.029 198.764 273.861C199.848 271.693 196.948 265.797 191.701 258.347Z" fill="white" stroke="#212121" stroke-width="0.8025" stroke-miterlimit="10"/>
<path d="M177.831 263.622C177.831 263.622 190.61 265.176 194.649 268.275" stroke="#212121" stroke-width="0.8025" stroke-miterlimit="10"/>
<path d="M117.551 263.622C117.551 263.622 106.539 265.327 102.196 268.455" stroke="#212121" stroke-width="0.8025" stroke-miterlimit="10"/>
<path d="M156.953 282.236C156.953 282.236 146.873 292.785 140.666 296.196" stroke="#212121" stroke-width="0.8025" stroke-miterlimit="10"/>
<path d="M149.821 286.268L143.145 292.323" stroke="#212121" stroke-width="0.8025" stroke-miterlimit="10"/>
<path d="M118.642 283.168L113.367 277.582" stroke="#212121" stroke-width="0.8025" stroke-miterlimit="10"/>
<path d="M181.462 276.498L176.747 283.168" stroke="#212121" stroke-width="0.8025" stroke-miterlimit="10"/>
<path d="M112.898 299.745C112.898 299.745 114.631 306.034 121.728 313.808C125.18 317.571 129.267 322.721 140.535 324.606C151.464 326.429 161.144 324.109 166.377 320.512C172.018 316.632 177.334 308.409 181.746 300.4L180.275 295.982L115.024 296.148L112.898 299.745Z" fill="#212121"/>
<path d="M116.66 293.531C126.326 294.477 155.579 296.81 177.168 292.799C177.776 292.685 178.401 292.692 179.005 292.821C179.61 292.951 180.183 293.199 180.692 293.552C181.2 293.904 181.633 294.354 181.965 294.876C182.298 295.397 182.524 295.98 182.629 296.589C182.733 297.201 182.714 297.828 182.573 298.432C182.431 299.036 182.171 299.607 181.806 300.109C181.442 300.611 180.98 301.035 180.449 301.357C179.918 301.679 179.329 301.891 178.715 301.981C168.075 303.542 141.101 306.524 115.521 301.498C114.964 301.39 114.436 301.165 113.971 300.839C113.506 300.513 113.115 300.093 112.823 299.606C112.531 299.118 112.345 298.575 112.277 298.012C112.209 297.448 112.261 296.876 112.428 296.334C112.703 295.451 113.275 294.69 114.046 294.179C114.817 293.669 115.74 293.44 116.66 293.531Z" fill="#212121"/>
<path d="M152.762 225.152C152.762 225.152 151.216 221.272 145.63 223.295C140.045 225.318 137.407 226.706 137.097 231.981C136.786 237.255 131.67 245.789 132.443 251.526C133.217 257.263 135.081 256.021 134.459 258.969C133.838 261.917 129.806 262.69 129.806 262.69L128.259 261.917C129.643 264.154 131.199 266.28 132.913 268.276C135.391 271.072 138.802 272.308 144.698 273.861C150.594 275.414 154.937 274.634 159.28 271.997C163.622 269.359 165.949 267.343 166.57 264.223L167.192 261.123C167.192 261.123 164.092 260.032 164.092 258.485C164.092 256.939 167.654 253.363 168.276 248.557C168.897 243.752 167.502 235.06 163.443 229.164C159.383 223.268 155.089 223.606 152.762 225.152Z" fill="#212121"/>
<path d="M209.385 76.4905L183.989 86.1222L197.208 120.975L222.603 111.343L209.385 76.4905Z" fill="white" stroke="#212121" stroke-width="0.8025" stroke-miterlimit="10"/>
<path d="M195.666 102.331L192.733 103.418L195.763 111.595L198.696 110.508L195.666 102.331Z" fill="#212121"/>
<path d="M201.435 103.766L198.503 104.853L200.366 109.883L203.299 108.797L201.435 103.766Z" fill="#212121"/>
<path d="M204.889 98.9114L201.956 99.998L204.985 108.175L207.918 107.088L204.889 98.9114Z" fill="#212121"/>
<path d="M207.4 91.5439L204.467 92.6305L209.593 106.466L212.526 105.379L207.4 91.5439Z" fill="#212121"/>
<path d="M211.387 85.6804L208.447 86.775L215.018 104.421L217.958 103.326L211.387 85.6804Z" fill="#212121"/>
<path d="M189.106 89.6797L205.641 83.6455" stroke="#212121" stroke-width="0.8025" stroke-linecap="round" stroke-linejoin="round"/>
<path d="M190.224 92.5863L206.759 86.5521" stroke="#212121" stroke-width="0.8025" stroke-linecap="round" stroke-linejoin="round"/>
<path d="M226.022 108.148L222.763 106.118C222.763 106.118 222.121 101.506 221.61 100.996C221.099 100.485 218.158 97.6609 217.64 97.0257C217.122 96.3905 216.874 94.7197 216.487 94.7197C216.101 94.7197 214.692 96.2524 215.203 98.4341C215.403 99.1104 215.748 99.7352 216.212 100.266C216.677 100.796 217.251 101.219 217.896 101.506C217.896 101.506 216.515 107.271 217.385 108.549C218.144 109.499 219.051 110.322 220.07 110.986L223.916 113.803L226.988 108.811L226.022 108.148Z" fill="white" stroke="#212121" stroke-width="0.8025" stroke-miterlimit="10"/>
<path d="M298.377 134.294C298.115 133.507 297.59 129.834 293.392 129.309C289.194 128.784 286.578 133.244 286.578 133.244C286.578 133.244 276.346 144.519 273.722 147.93C271.099 151.34 267.957 156.843 261.661 159.991C259.283 161.078 256.778 161.86 254.204 162.318C256.685 178.625 254.994 195.294 249.289 210.771C256.717 211.779 265.299 212.752 267.433 212.152C271.368 211.102 272.956 209.01 274.772 206.124C276.588 203.238 298.115 175.96 298.639 174.911C300.054 172.236 301.196 169.425 302.05 166.522C303.362 162.09 298.639 135.116 298.377 134.294Z" fill="#212121"/>
<path d="M258.775 190.418C257.394 189.32 256.193 186.772 255.067 183.9C254.436 192.992 252.535 201.951 249.42 210.516C255.136 210.95 262.793 210.343 265.368 207.989C268.517 205.103 270.892 199.068 270.892 199.068C270.892 199.068 262.71 193.559 258.775 190.418Z" fill="#B75400" stroke="#212121" stroke-width="0.8025" stroke-miterlimit="10"/>
<path d="M266.943 111.055C265.431 111.055 262.31 112.567 261.985 112.884C261.661 113.202 245.188 116.764 245.188 116.764C245.188 116.764 232.809 110.951 231.193 110.412C229.578 109.874 226.022 108.148 226.022 108.148L222.149 114.072L229.053 119.132C229.053 119.132 239.174 126.451 243.372 128.798C247.57 131.146 259.61 129.081 259.61 129.081L270.947 112.38C269.694 111.721 268.341 111.273 266.943 111.055Z" fill="white" stroke="#212121" stroke-width="0.8025" stroke-miterlimit="10"/>
<path d="M259.03 126.223L258.761 128.826C258.761 128.826 257.574 143.794 257.38 145.727C257.187 147.66 255.551 158.652 255.551 158.652C255.551 158.652 254.964 160.723 254.343 163.05C255.596 171.759 255.668 180.598 254.557 189.327C256.877 192.45 259.364 195.446 262.006 198.302C263.622 200.139 267.177 202.61 268.682 201.968C270.187 201.326 274.606 195.934 274.606 195.934C274.606 195.934 279.991 184.197 281.282 181.504C282.573 178.812 295.091 160.509 296.471 158.03C297.852 155.552 297.659 154.047 296.154 151.354C294.649 148.661 287.296 130.117 286.536 128.211C285.777 126.306 271.14 113.892 271.14 113.892C270.495 113.237 269.803 112.63 269.069 112.077L268.247 113.409L262.337 117.641" fill="white"/>
<path d="M259.03 126.223L258.761 128.826C258.761 128.826 257.574 143.794 257.38 145.727C257.187 147.66 255.551 158.652 255.551 158.652C255.551 158.652 254.964 160.723 254.343 163.05C255.596 171.759 255.668 180.598 254.557 189.327C256.877 192.45 259.364 195.446 262.006 198.302C263.622 200.139 267.177 202.61 268.682 201.968C270.187 201.326 274.606 195.934 274.606 195.934C274.606 195.934 279.991 184.197 281.282 181.504C282.573 178.812 295.091 160.509 296.471 158.03C297.852 155.552 297.659 154.047 296.154 151.354C294.649 148.661 287.296 130.117 286.536 128.211C285.777 126.306 271.14 113.892 271.14 113.892C270.495 113.237 269.803 112.63 269.069 112.077L268.247 113.409L262.337 117.641" stroke="#212121" stroke-width="0.8025" stroke-miterlimit="10"/>
<path d="M273.508 134.964L267.909 132.81L269.635 143.359C269.635 143.359 264.609 160.371 264.609 160.695C264.609 161.02 263.318 162.96 261.592 164.575C259.866 166.191 259.224 167.268 256.531 169.098C255.993 169.464 255.523 169.788 255.109 170.106C255.288 172.633 255.364 175.159 255.35 177.666L257.498 178.246C257.498 178.246 263.207 173.185 266.114 166.619C269.021 160.053 269.345 158.003 269.884 152.811C270.119 150.091 270.551 147.391 271.175 144.733C271.285 144.305 277.637 139.348 277.637 139.348L273.508 134.964Z" fill="#212121"/>
<path d="M269.525 123.006C269.525 123.006 267.695 126.886 267.371 127.839C266.828 129.093 266.217 130.317 265.541 131.505C265.541 131.505 269.421 134.301 270.277 134.957C271.133 135.613 275.448 138.505 275.448 138.505L278.355 143.891C278.355 143.891 279.646 141.951 281.476 136.462C283.305 130.973 283.416 128.177 283.851 127.486C284.286 126.796 281.586 123.503 278.783 121.887C275.98 120.272 272.107 120.058 271.251 121.031L269.525 123.006Z" fill="white" stroke="#212121" stroke-width="0.8025" stroke-miterlimit="10"/>
<path d="M269.96 129.468C269.96 129.468 270.602 134.301 271.34 136.255C272.079 138.209 272.528 138.326 273.709 137.546C274.889 136.766 277.803 133.024 277.803 133.024L269.96 129.468Z" fill="white" stroke="#212121" stroke-width="0.8025" stroke-miterlimit="10"/>
<path d="M291.197 122.336C291.197 122.336 293.592 118.284 295.249 121.045C296.906 123.807 293.958 126.569 291.935 127.121C290.725 127.452 289.493 127.698 288.249 127.86L291.197 122.336Z" fill="white" stroke="#212121" stroke-width="0.8025" stroke-miterlimit="10"/>
<path d="M271.796 110.357C271.796 110.357 273.101 105.835 269.953 106.526C266.805 107.216 266.818 111.248 267.806 113.098C268.39 114.208 269.055 115.274 269.794 116.288L271.796 110.357Z" fill="white" stroke="#212121" stroke-width="0.8025" stroke-miterlimit="10"/>
<path d="M279.046 96.7425C279.046 96.7425 272.418 99.3247 270.761 105.4C269.104 111.476 267.447 119.022 268.365 123.075C269.283 127.128 269.47 130.987 270.761 132.278C272.052 133.569 272.597 134.853 276.097 134.487C279.598 134.121 286.592 130.807 288.249 127.859C289.906 124.911 293.406 122.15 294.697 113.685C295.988 105.221 296.168 101.713 290.831 98.0336C285.494 94.3537 279.046 96.7425 279.046 96.7425Z" fill="white" stroke="#212121" stroke-width="0.8025" stroke-miterlimit="10"/>
<path d="M274.585 119.671C274.585 119.671 272.645 122.792 273.619 124.407C274.592 126.023 277.492 126.775 279.543 125.381" stroke="#212121" stroke-width="0.8025" stroke-miterlimit="10"/>
<path d="M271.465 125.595C271.465 125.595 272.003 128.287 275.448 128.605C278.894 128.923 280.834 127.528 280.834 127.528" stroke="#212121" stroke-width="0.8025" stroke-miterlimit="10"/>
<path d="M276.85 113.961C276.85 113.961 274.585 109.335 271.893 109.653" stroke="#212121" stroke-width="0.8025" stroke-miterlimit="10"/>
<path d="M281.697 115.577C281.697 115.577 286.322 114.824 288.69 117.731" stroke="#212121" stroke-width="0.8025" stroke-miterlimit="10"/>
<path d="M274.371 115.038C274.371 115.874 273.985 116.55 273.508 116.55C273.032 116.55 272.645 115.86 272.645 115.038C272.645 114.217 273.032 113.533 273.508 113.533C273.985 113.533 274.371 114.21 274.371 115.038Z" fill="#212121"/>
<path d="M283.865 120.7C283.492 121.445 282.85 121.88 282.422 121.666C281.994 121.452 281.952 120.679 282.325 119.933C282.698 119.188 283.34 118.753 283.768 118.967C284.196 119.181 284.237 119.927 283.865 120.7Z" fill="#212121"/>
<path d="M290.845 98.0336C285.501 94.3537 279.059 96.7425 279.059 96.7425C279.059 96.7425 272.431 99.3247 270.774 105.4C270.609 106.008 270.443 106.643 270.277 107.278C270.795 107.216 273.674 106.836 274.061 105.566C274.639 103.759 275.552 102.077 276.753 100.609C277.941 99.3178 280.847 105.442 284.721 105.352C288.594 105.262 292.798 105.566 292.584 106.533C292.37 107.499 290.002 113.319 290.755 114.935C291.507 116.55 292.37 116.55 292.37 117.842C292.339 118.852 292.23 119.858 292.046 120.852L292.681 120.783C293.677 118.531 294.356 116.151 294.697 113.713C295.981 105.214 296.168 101.713 290.845 98.0336Z" fill="#212121"/>
<path d="M287.841 159.528C287.841 159.528 276.954 166.191 276.567 167.986C276.18 169.781 272.466 179.516 273.874 184.639C275.283 189.762 282.076 195.271 285.404 192.454C288.732 189.637 288.994 183.617 290.658 177.079C292.322 170.541 297.058 158.631 297.058 156.843C297.109 155.885 296.839 154.938 296.292 154.15" fill="white"/>
<path d="M287.841 159.528C287.841 159.528 276.954 166.191 276.567 167.986C276.18 169.781 272.466 179.516 273.874 184.639C275.283 189.762 282.076 195.271 285.404 192.454C288.732 189.637 288.994 183.617 290.658 177.079C292.322 170.541 297.058 158.631 297.058 156.843C297.109 155.885 296.839 154.938 296.292 154.15" stroke="#212121" stroke-width="0.8025" stroke-miterlimit="10"/>
<path d="M273.619 173.496C273.619 173.496 284.769 184.252 285.535 186.689C286.302 189.126 286.433 191.557 284.251 193.987C282.07 196.417 278.369 199.365 274.585 195.906C270.802 192.447 269.525 183.997 269.262 181.566C268.996 179.58 268.611 177.611 268.109 175.67L272.086 172.467L273.619 173.496Z" fill="white" stroke="#212121" stroke-width="0.8025" stroke-miterlimit="10"/>
<path d="M272.645 168.987C272.645 168.987 269.849 168.449 268.662 169.526C267.705 170.487 266.938 171.621 266.404 172.867C265.625 174.114 264.384 175.003 262.952 175.339C261.226 175.774 260.149 177.928 262.413 178.467C264.678 179.005 268.116 178.784 270.056 177.714C271.384 177.069 272.532 176.106 273.398 174.911C274.365 173.723 275.014 172.971 275.552 172.757C276.091 172.543 276.519 172.757 277.81 172.108C279.101 171.459 280.502 170.389 279.964 169.422C279.425 168.456 279.101 168.559 277.271 169.098C276.366 169.396 275.426 169.577 274.475 169.636L272.645 168.987Z" fill="white" stroke="#212121" stroke-width="0.8025" stroke-miterlimit="10"/>
<path d="M259.638 175.318C259.638 175.318 259.175 172.315 259.873 171.335C260.57 170.354 261.143 171.452 261.198 172.605C261.249 173.586 261.425 174.555 261.723 175.491C261.896 175.898 262.413 176.126 262.993 176.361C263.573 176.596 263.801 177.341 262.876 177.576C261.951 177.811 260.908 177.341 260.805 177.051C260.701 176.761 259.638 175.318 259.638 175.318Z" fill="white" stroke="#212121" stroke-width="0.8025" stroke-miterlimit="10"/>
<path d="M265.148 178.881C265.148 178.881 262.752 178.798 262.034 178.384C261.573 178.026 261.192 177.576 260.915 177.062C260.638 176.549 260.471 175.983 260.425 175.401C260.335 174.158 260.322 173.426 261.35 173.813C262.379 174.2 262.269 174.945 262.731 175.884C263.194 176.823 263.47 177.569 263.781 177.548C264.126 177.603 264.458 177.727 264.754 177.914C264.754 177.914 265.907 178.611 265.148 178.881Z" fill="white" stroke="#212121" stroke-width="0.8025" stroke-miterlimit="10"/>
<path d="M270.063 177.714C269.412 178.247 268.686 178.682 267.909 179.005C266.943 179.323 264.823 178.722 263.767 177.866C262.71 177.01 258.575 175.608 261.109 174.683C263.014 173.993 264.92 176.098 266.1 176.637C267.281 177.175 269.007 175.878 269.442 175.663" fill="white"/>
<path d="M270.063 177.714C269.412 178.247 268.686 178.682 267.909 179.005C266.943 179.323 264.823 178.722 263.767 177.866C262.71 177.01 258.575 175.608 261.109 174.683C263.014 173.993 264.92 176.098 266.1 176.637C267.281 177.175 269.007 175.878 269.442 175.663" stroke="#212121" stroke-width="0.8025" stroke-miterlimit="10"/>
<path d="M273.405 174.911C273.405 174.911 272.756 176.098 272.024 177.493C271.292 178.888 270.643 178.467 270.084 177.714C269.525 176.962 264.699 174.158 264.699 174.158C264.699 174.158 264.271 172.778 266.425 172.867C268.579 172.957 271.161 175.339 271.161 175.339" fill="white"/>
<path d="M273.405 174.911C273.405 174.911 272.756 176.098 272.024 177.493C271.292 178.888 270.643 178.467 270.084 177.714C269.525 176.962 264.699 174.158 264.699 174.158C264.699 174.158 264.271 172.778 266.425 172.867C268.579 172.957 271.161 175.339 271.161 175.339" stroke="#212121" stroke-width="0.8025" stroke-miterlimit="10"/>
<path d="M165.5 4.4001C165.5 4.4001 168.662 -0.163517 176.547 5.27693C184.431 10.7174 180.406 18.6157 177.928 21.5983C175.449 24.5808 175.822 23.3519 182.836 26.8592C189.851 30.3665 186.696 37.7401 184.77 39.6732C182.843 41.6064 185.122 41.7445 187.4 45.4589C189.678 49.1733 186.344 55.6356 183.189 57.5687C180.033 59.5019 171.817 60.7239 164.451 58.4801C157.084 56.2362 157.678 43.0701 159.708 33.211C161.737 23.3519 163.747 16.3649 162.345 12.4986C160.943 8.63233 163.747 3.87539 165.5 4.4001Z" fill="#212121"/>
<path d="M169.532 79.4822L180.662 42.0619L161.813 35.8481L149.158 38.2508C149.158 38.2508 130.31 44.5749 129.55 46.3493C128.86 47.8958 139.782 73.3306 142.572 79.7859C151.501 78.441 160.574 78.3388 169.532 79.4822Z" fill="#B75400" stroke="#212121" stroke-width="0.8025" stroke-linecap="round" stroke-linejoin="round"/>
<path d="M170.126 38.5959L161.841 35.8342L149.186 38.2369C149.186 38.2369 145.306 39.5555 141.025 41.1366C141.314 45.8999 142.443 50.5746 144.36 54.9448C148.502 64.8108 158.023 74.1728 158.023 74.1728C158.023 74.1728 167.502 64.1963 170.022 50.1534C170.792 46.3426 170.827 42.4199 170.126 38.5959Z" fill="#B75400" stroke="#212121" stroke-width="0.8025" stroke-linecap="round" stroke-linejoin="round"/>
<path d="M149.283 39.8043L150.518 45.3552" stroke="#212121" stroke-width="0.8025" stroke-linecap="round" stroke-linejoin="round"/>
<path d="M149.158 38.2647L147.833 38.7135C147.967 43.5619 148.662 48.3785 149.904 53.0671C152.562 63.6926 158.002 70.0167 158.002 70.0167C158.002 70.0167 163.567 53.8266 164.327 46.6118C164.675 43.2715 164.571 39.8993 164.016 36.587L161.8 35.8621L149.158 38.2647Z" fill="white" stroke="#212121" stroke-width="0.8025" stroke-linecap="round" stroke-linejoin="round"/>
<path d="M162.159 56.6365C158.467 57.4182 154.652 57.4182 150.96 56.6365C152.505 61.4795 154.894 66.0115 158.016 70.0236C158.016 70.0236 160.315 63.3128 162.159 56.6365Z" stroke="#212121" stroke-width="0.8025" stroke-linecap="round" stroke-linejoin="round"/>
<path d="M168.407 21.391C168.407 21.391 170.34 16.8274 169.636 13.1475C168.931 9.46757 170.326 4.90395 160.66 1.21715C150.995 -2.46965 146.976 2.9708 143.296 7.53442C139.617 12.098 139.989 13.8448 139.644 15.0737C139.299 16.3026 136.137 15.0737 134.383 18.581C132.63 22.0883 133.334 23.4967 137.718 25.0778C139.492 25.778 141.309 26.3638 143.158 26.8314L159.21 24.3667C159.21 24.3667 159.998 22.7925 161.047 24.3667C162.096 25.9408 162.276 26.645 164.382 26.645C166.487 26.645 166.66 25.5956 166.66 25.5956L168.407 21.391Z" fill="#212121"/>
<path d="M142.095 23.1447C142.095 23.1447 144.726 32.9693 146.307 35.5721C147.888 38.175 151.568 43.643 154.198 43.9951C156.829 44.3472 162.794 39.0794 163.864 36.0968C164.934 33.1142 166.667 25.5749 166.667 25.5749C165.713 25.7546 164.726 25.634 163.843 25.2297C162.96 24.8253 162.225 24.1572 161.737 23.3173C160.89 21.8033 159.906 20.3705 158.796 19.0367C158.796 19.0367 160.771 22.1643 150.691 24.7603C144.601 26.3413 142.095 23.1447 142.095 23.1447Z" fill="white" stroke="#212121" stroke-width="0.8025" stroke-linecap="round" stroke-linejoin="round"/>
<path d="M166.653 25.6026C166.653 25.6026 167.53 20.8663 168.407 21.3911C169.284 21.9158 170.161 22.7719 168.938 25.2505C168.301 26.6406 167.337 27.8558 166.129 28.7923L166.653 25.6026Z" fill="white" stroke="#212121" stroke-width="0.8025" stroke-linecap="round" stroke-linejoin="round"/>
<path d="M151.844 34.3154C151.844 34.3154 151.547 37.298 152.037 37.6915C152.527 38.0851 154.523 36.6007 154.523 36.6007" stroke="#212121" stroke-width="0.8025" stroke-linecap="round" stroke-linejoin="round"/>
<path d="M156.711 38.2578C155.949 38.9066 155.005 39.3029 154.008 39.3919C153.011 39.481 152.011 39.2584 151.147 38.7549" stroke="#212121" stroke-width="0.8025" stroke-linecap="round" stroke-linejoin="round"/>
<path d="M157.07 31.2432C157.07 31.8715 156.69 32.3824 156.214 32.3824C155.738 32.3824 155.365 31.8715 155.365 31.2432C155.365 30.6149 155.745 30.104 156.214 30.104C156.684 30.104 157.07 30.6149 157.07 31.2432Z" fill="#212121"/>
<path d="M149.158 31.8437C149.631 31.8437 150.014 31.3336 150.014 30.7045C150.014 30.0753 149.631 29.5653 149.158 29.5653C148.685 29.5653 148.302 30.0753 148.302 30.7045C148.302 31.3336 148.685 31.8437 149.158 31.8437Z" fill="#212121"/>
<path d="M154.723 28.4125C155.411 28.1509 156.145 28.0337 156.881 28.0681C157.616 28.1026 158.336 28.288 158.997 28.6127" stroke="#212121" stroke-width="0.8025" stroke-linecap="round" stroke-linejoin="round"/>
<path d="M150.352 28.7162C150.352 28.7162 148.758 26.645 145.975 28.1156" stroke="#212121" stroke-width="0.8025" stroke-linecap="round" stroke-linejoin="round"/>
<path d="M201.664 52.9566L202.803 49.9188C202.803 49.9188 203.059 46.7567 203.307 45.6175C203.556 44.4783 204.95 43.8431 206.221 42.4554C207.491 41.0677 208.499 38.9067 209.127 39.5419C209.756 40.177 209.762 40.8053 209.258 41.696C208.865 42.3411 208.525 43.0177 208.244 43.7189C208.119 44.0986 214.457 41.3162 214.457 41.3162C214.457 41.3162 217.219 38.023 217.909 38.7824C218.6 39.5419 217.53 43.4634 217.019 45.1066C216.284 47.1354 214.907 48.8688 213.097 50.043C211.454 50.9268 206.393 52.8047 206.393 52.8047L204.495 56.0979L201.664 52.9566Z" fill="white" stroke="#212121" stroke-width="0.8025" stroke-linecap="round" stroke-linejoin="round"/>
<path d="M205.233 50.1534C205.233 50.1534 207.512 48.1305 209.286 47.7508C210.818 47.3158 212.301 46.7235 213.712 45.9834C213.712 45.9834 215.61 39.6523 215.99 40.6672C216.37 41.6821 216.114 44.209 215.61 45.9834C215.213 47.5653 214.326 48.9812 213.076 50.0292" fill="white"/>
<path d="M205.233 50.1534C205.233 50.1534 207.512 48.1305 209.286 47.7508C210.818 47.3158 212.301 46.7235 213.712 45.9834C213.712 45.9834 215.61 39.6523 215.99 40.6672C216.37 41.6821 216.114 44.209 215.61 45.9834C215.213 47.5653 214.326 48.9812 213.076 50.0292" stroke="#212121" stroke-width="0.8025" stroke-linecap="round" stroke-linejoin="round"/>
<path d="M180.662 42.062L189.264 67.2344L201.692 52.9429L205.869 58.3833C205.869 58.3833 192.06 80.1382 191.19 80.7734C190.321 81.4086 189.81 81.5328 188.284 81.5328C186.758 81.5328 174.11 64.0723 174.11 64.0723L180.662 42.062Z" fill="#B75400" stroke="#212121" stroke-width="0.8025" stroke-linecap="round" stroke-linejoin="round"/>
<path d="M129.55 46.3632L121.956 83.3071L145.237 97.4743L147.26 91.7784L134.48 78.7504L137.014 66.0951L129.55 46.3632Z" fill="#B75400" stroke="#212121" stroke-width="0.8025" stroke-linecap="round" stroke-linejoin="round"/>
<path d="M147.239 91.7783L155.434 91.3088C155.434 91.3088 160.06 91.0051 161.71 89.9902C163.36 88.9752 164.603 89.1686 164.603 90.0523C164.603 90.936 163.781 91.4952 162.09 92.524C161.896 92.6413 165.915 95.0163 167.268 95.976C167.405 96.0689 167.503 96.2078 167.547 96.3674C167.59 96.5271 167.574 96.6969 167.502 96.8459C167.469 96.9303 167.419 97.0073 167.356 97.0724C167.293 97.1375 167.217 97.1895 167.134 97.2254C167.05 97.2613 166.961 97.2804 166.87 97.2816C166.779 97.2829 166.689 97.2662 166.605 97.2326L160.778 95.1613L157.36 95.0371L162.932 97.3154L166.626 99.3867C166.798 99.484 166.933 99.636 167.009 99.8185C167.085 100.001 167.098 100.204 167.047 100.395C166.992 100.596 166.868 100.772 166.696 100.891C166.524 101.01 166.316 101.064 166.108 101.044C164.955 100.926 162.821 100.698 162.552 100.609C162.172 100.484 157.112 98.5858 157.112 98.5858L160.274 100.988L162.601 102.639C162.692 102.702 162.77 102.784 162.829 102.879C162.889 102.974 162.928 103.08 162.945 103.19C162.961 103.301 162.955 103.413 162.927 103.522C162.899 103.63 162.849 103.731 162.78 103.819C162.675 103.954 162.532 104.053 162.369 104.104C162.206 104.154 162.031 104.154 161.869 104.102L157.726 102.763L154.82 102.252L150.643 99.4902L145.582 96.0727L147.239 91.7783Z" fill="white" stroke="#212121" stroke-width="0.8025" stroke-linecap="round" stroke-linejoin="round"/>
<path d="M156.622 102.535L153.839 99.7527" stroke="#212121" stroke-width="0.8025" stroke-linecap="round" stroke-linejoin="round"/>
<path d="M162.11 92.524C162.11 92.524 159.473 90.7083 157.195 91.088" stroke="#212121" stroke-width="0.8025" stroke-linecap="round" stroke-linejoin="round"/>
<path d="M61.2277 198.213C59.3154 189.632 58.5631 180.834 58.9908 172.053L21.9364 130.242C21.2841 129.507 20.4289 128.982 19.4786 128.734C18.5284 128.485 17.5257 128.523 16.5972 128.844C15.6687 129.164 14.856 129.753 14.2617 130.535C13.6674 131.317 13.3181 132.258 13.2579 133.238L11.1867 168.021C11.0814 169.799 11.6289 171.554 12.7263 172.957C19.0988 181.111 41.4198 209.356 45.2309 210.088C49.3733 210.882 62.8364 209.888 64.5624 209.756C63.2174 205.98 62.1037 202.125 61.2277 198.213Z" fill="#212121"/>
<path d="M83.7767 99.9808C83.7767 99.9808 83.6179 95.4724 83.2934 94.8304C82.9689 94.1883 81.6847 92.0687 82.0023 90.9641C82.3199 89.8594 82.8101 88.7064 83.4522 86.6145C84.0942 84.5225 84.4187 83.8528 85.2265 84.0392C86.0343 84.2256 86.0274 85.3303 85.5441 86.8009C85.2402 87.7926 85.0775 88.8223 85.0608 89.8594L86.5107 91.9306C86.5107 91.9306 87.8915 86.5523 88.1677 85.7169C88.4438 84.8815 88.9064 83.2314 89.4449 82.9553C89.6257 82.8878 89.8215 82.8707 90.0112 82.906C90.201 82.9413 90.3775 83.0275 90.522 83.1555C90.522 83.1555 90.9915 82.1475 91.7302 82.3477C92.4689 82.5479 92.538 82.686 92.7382 83.5559C92.9384 84.4259 93.7462 84.1635 94.2157 85.1715C94.544 85.9456 94.7759 86.7572 94.9061 87.5879C94.9061 87.5879 95.1753 87.3187 95.2444 89.5349C95.4028 91.5274 95.3566 93.5308 95.1063 95.5139C94.7749 97.6611 93.2974 98.6691 92.2894 99.7461C91.2814 100.823 90.1353 101.624 89.9351 102.031C89.7349 102.439 89.2447 102.722 89.0652 102.901C88.8857 103.081 83.2865 101.624 83.2865 101.624L83.7767 99.9808Z" fill="#CCCCCC" stroke="#212121" stroke-width="0.8025" stroke-linecap="round" stroke-linejoin="round"/>
<path d="M90.3838 83.6665L90.0524 86.9598L88.9063 91.0539L88.575 92.2621" stroke="#212121" stroke-width="0.8025" stroke-linecap="round" stroke-linejoin="round"/>
<path d="M92.8693 84.0668C92.5416 84.6396 92.3791 85.292 92.3999 85.9516C92.3101 87.6864 92.1095 89.4136 91.7992 91.1228C91.6293 91.8204 91.3815 92.4966 91.0605 93.1388" stroke="#212121" stroke-width="0.8025" stroke-linecap="round" stroke-linejoin="round"/>
<path d="M94.7679 88.1677C94.7679 88.1677 93.8911 88.0987 93.7599 89.445C93.6287 90.7913 93.3525 92.8004 93.2904 93.0696C93.1483 93.3812 92.9674 93.6735 92.7519 93.9396" stroke="#212121" stroke-width="0.8025" stroke-linecap="round" stroke-linejoin="round"/>
<path d="M87.0283 92.8005C87.0283 92.8005 87.9673 94.4161 87.767 95.3551C87.6589 95.8775 87.523 96.3937 87.3597 96.9016" stroke="#212121" stroke-width="0.8025" stroke-linecap="round" stroke-linejoin="round"/>
<path d="M45.6175 121.073C45.6175 121.073 51.4169 122.84 55.1175 122.84C58.8181 122.84 70.8934 124.615 70.8934 124.615L83.7765 99.9809C84.5302 99.8949 85.2932 99.9488 86.0273 100.14C87.1595 100.464 91.3434 103.364 91.3434 103.364C91.3434 103.364 86.0273 123.648 85.0607 127.031C84.5162 128.81 83.763 130.518 82.8169 132.12C82.3009 133.001 81.5472 133.718 80.6421 134.191C77.6802 135.758 70.1616 139.466 63.0089 140.846C53.8265 142.621 52.2178 140.045 52.2178 140.045L44.1676 141.488C44.1676 141.488 39.8249 145.514 35.6341 133.121C31.4433 120.728 45.6175 121.073 45.6175 121.073Z" fill="white" stroke="#212121" stroke-width="0.8025" stroke-linecap="round" stroke-linejoin="round"/>
<path d="M49.4561 124.504L48.0339 121.39C48.0339 121.39 46.2595 117.048 43.6843 116.882C41.1091 116.716 33.5422 117.69 29.8692 121.874C27.7289 124.219 25.8748 126.81 24.3459 129.593C22.6233 133.417 21.1181 137.335 19.8375 141.33C17.2622 149.055 16.2957 157.589 22.0882 169.022C25.6827 176.053 30.0651 182.652 35.1508 188.692C35.1508 188.692 34.0116 193.2 44.0088 198.516C50.1397 201.782 57.4511 201.195 61.711 200.277C61.5453 199.587 61.3796 198.896 61.2277 198.206C58.1733 184.538 58.0862 170.375 60.9722 156.671C59.2393 155.089 56.7193 152.708 55.9253 149.884C55.0554 146.805 54.7102 142.807 54.2959 139.162" fill="white"/>
<path d="M49.4561 124.504L48.0339 121.39C48.0339 121.39 46.2595 117.048 43.6843 116.882C41.1091 116.716 33.5422 117.69 29.8692 121.874C27.7289 124.219 25.8748 126.81 24.3459 129.593C22.6233 133.417 21.1181 137.335 19.8375 141.33C17.2622 149.055 16.2957 157.589 22.0882 169.022C25.6827 176.053 30.0651 182.652 35.1508 188.692C35.1508 188.692 34.0116 193.2 44.0088 198.516C50.1397 201.782 57.4511 201.195 61.711 200.277C61.5453 199.587 61.3796 198.896 61.2277 198.206C58.1733 184.538 58.0862 170.375 60.9722 156.671C59.2393 155.089 56.7193 152.708 55.9253 149.884C55.0554 146.805 54.7102 142.807 54.2959 139.162" stroke="#212121" stroke-width="0.8025" stroke-linecap="round" stroke-linejoin="round"/>
<path d="M25.0362 128.481L23.7521 133.466C24.1166 134.676 24.7563 135.786 25.621 136.708C26.4858 137.631 27.5522 138.34 28.7368 138.782C32.7619 140.232 39.8525 140.715 42.5865 136.849C45.3205 132.982 41.1366 128.481 41.1366 128.481H25.0362Z" fill="white" stroke="#212121" stroke-width="0.8025" stroke-linecap="round" stroke-linejoin="round"/>
<path d="M40.6258 100.464C41.2556 101.025 41.7978 101.676 42.2345 102.397C43.201 103.847 42.7177 105.159 44.1676 105.456C45.6175 105.753 47.8751 103.847 48.3515 105.939C48.8279 108.031 47.5506 112.215 47.5506 112.215C47.5506 112.215 48.3515 118.498 48.0339 121.391C47.7163 124.283 47.2261 125.899 45.7763 126.548C45.0063 126.906 44.1979 127.175 43.3667 127.349L40.1425 134.253C40.1425 134.253 36.6007 135.219 31.609 132.962C26.6173 130.704 25.0363 128.481 25.0363 128.481C25.0363 128.481 21.6533 126.065 20.3691 122.682C19.085 119.299 32.1061 114.956 35.5029 109.156C38.8998 103.357 38.8445 99.4976 40.6258 100.464Z" fill="#CCCCCC" stroke="#212121" stroke-width="0.8025" stroke-linecap="round" stroke-linejoin="round"/>
<path d="M36.4419 127.832C37.4973 127.446 38.4512 126.825 39.2321 126.016C40.013 125.208 40.6004 124.233 40.9503 123.165C40.9503 123.165 40.467 124.932 37.7261 125.74C34.9852 126.548 32.8932 123.669 33.2177 119.948C33.5422 116.226 36.7595 116.723 37.2428 117.048C37.7261 117.372 39.825 118.332 40.6258 117.207C41.4267 116.081 37.084 111.414 37.084 111.414L38.0506 104.807L39.7283 100.45C38.7203 101.141 38.1749 104.531 35.4754 109.157C32.0923 114.956 19.0505 119.299 20.3415 122.682C21.6326 126.065 25.0087 128.481 25.0087 128.481C27.4252 129.593 32.7344 129.282 36.4419 127.832Z" fill="#212121"/>
<path d="M11.0002 111.897L20.3415 122.689C20.3415 122.689 25.6508 121.397 33.5422 115.28C35.8202 113.557 37.6522 111.314 38.8846 108.737C40.1171 106.16 40.7142 103.326 40.6258 100.471C40.6258 100.471 31.609 93.567 29.3583 92.4209C27.1075 91.2748 19.3749 93.2218 14.8596 98.5379C10.3443 103.854 9.84723 109.64 11.0002 111.897Z" fill="white" stroke="#212121" stroke-width="0.8025" stroke-linecap="round" stroke-linejoin="round"/>
<path d="M24.4632 108.031C27.6322 104.841 29.3582 100.581 29.3582 98.0476" stroke="#212121" stroke-width="0.8025" stroke-linecap="round" stroke-linejoin="round"/>
<path d="M13.0922 111.414C13.0922 111.414 15.3498 113.665 20.8248 110.765C21.3417 110.489 21.842 110.182 22.323 109.847" stroke="#212121" stroke-width="0.8025" stroke-linecap="round" stroke-linejoin="round"/>
<path d="M47.5507 116.406C47.5507 116.406 47.3919 118.657 45.4794 118.981" stroke="#212121" stroke-width="0.8025" stroke-linecap="round" stroke-linejoin="round"/>
<path d="M43.2976 107.106C43.7257 107.99 43.8085 108.832 43.4841 108.984C43.1596 109.136 42.5589 108.549 42.1032 107.665C41.6476 106.781 41.5992 105.946 41.9168 105.787C42.2344 105.628 42.8765 106.222 43.2976 107.106Z" fill="#212121"/>
<path d="M72.2743 161.4C72.2743 161.4 75.9197 157.872 77.0105 156.657C78.1014 155.442 78.9575 155.566 80.6559 154.958C82.452 154.175 84.1976 153.28 85.8823 152.28C86.3725 152.038 87.346 152.77 86.7384 153.743C86.1309 154.717 85.8823 154.592 85.0331 155.324C84.1839 156.056 82.7272 157.023 82.4786 157.395C82.2301 157.768 86.7384 156.788 87.4634 156.422C88.1883 156.056 90.0179 153.66 90.5012 153.143C90.9845 152.625 91.8406 151.927 92.2065 152.894C92.5724 153.861 90.8671 155.656 89.4449 158.486C88.0226 161.317 84.0942 164.569 82.1541 165.052C80.2141 165.535 76.3201 165.901 75.464 166.026C74.6079 166.15 72.2743 161.4 72.2743 161.4Z" fill="#CCCCCC" stroke="#212121" stroke-width="0.8025" stroke-miterlimit="10"/>
<path d="M82.4786 157.389L79.5651 160.06" stroke="#212121" stroke-width="0.8025" stroke-miterlimit="10"/>
<path d="M25.4781 152.77C25.4781 152.77 25.3539 164.804 28.15 170.147C30.9462 175.491 38.8445 185.336 40.7915 188.505C42.7384 191.674 50.2708 194.091 52.4594 192.876C54.648 191.661 77.3764 166.64 77.3764 166.64L72.2742 161.414L52.8253 175.636C52.8253 175.636 51.3686 173.565 51.12 173.199C50.3936 172.54 49.6231 171.931 48.814 171.376C48.814 171.376 48.6898 164.472 47.3573 161.897C45.0689 158.127 42.4215 154.587 39.4521 151.327" fill="white"/>
<path d="M25.4781 152.77C25.4781 152.77 25.3539 164.804 28.15 170.147C30.9462 175.491 38.8445 185.336 40.7915 188.505C42.7384 191.674 50.2708 194.091 52.4594 192.876C54.648 191.661 77.3764 166.64 77.3764 166.64L72.2742 161.414L52.8253 175.636C52.8253 175.636 51.3686 173.565 51.12 173.199C50.3936 172.54 49.6231 171.931 48.814 171.376C48.814 171.376 48.6898 164.472 47.3573 161.897C45.0689 158.127 42.4215 154.587 39.4521 151.327" stroke="#212121" stroke-width="0.8025" stroke-miterlimit="10"/>
<g opacity="0.3">
<path opacity="0.3" d="M91.2816 23.4347L99.9394 32.0925" stroke="#212121" stroke-width="0.8025" stroke-linecap="round" stroke-linejoin="round"/>
<path opacity="0.3" d="M99.9394 23.4347L91.2816 32.0925" stroke="#212121" stroke-width="0.8025" stroke-linecap="round" stroke-linejoin="round"/>
<path opacity="0.3" d="M12.4158 295.291L21.0805 303.949" stroke="#212121" stroke-width="0.8025" stroke-linecap="round" stroke-linejoin="round"/>
<path opacity="0.3" d="M21.0805 295.291L12.4158 303.949" stroke="#212121" stroke-width="0.8025" stroke-linecap="round" stroke-linejoin="round"/>
<path opacity="0.3" d="M34.4606 59.847L40.0115 65.4049" stroke="#212121" stroke-width="0.8025" stroke-linecap="round" stroke-linejoin="round"/>
<path opacity="0.3" d="M40.0115 59.847L34.4606 65.4049" stroke="#212121" stroke-width="0.8025" stroke-linecap="round" stroke-linejoin="round"/>
<path opacity="0.3" d="M216.433 295.291L221.983 300.842" stroke="#212121" stroke-width="0.8025" stroke-linecap="round" stroke-linejoin="round"/>
<path opacity="0.3" d="M221.983 295.291L216.433 300.842" stroke="#212121" stroke-width="0.8025" stroke-linecap="round" stroke-linejoin="round"/>
<path opacity="0.3" d="M41.7307 266.391L47.2816 271.941" stroke="#212121" stroke-width="0.8025" stroke-linecap="round" stroke-linejoin="round"/>
<path opacity="0.3" d="M47.2816 266.391L41.7307 271.941" stroke="#212121" stroke-width="0.8025" stroke-linecap="round" stroke-linejoin="round"/>
<path opacity="0.3" d="M223.944 18.0494L229.495 23.6003" stroke="#212121" stroke-width="0.8025" stroke-linecap="round" stroke-linejoin="round"/>
<path opacity="0.3" d="M297.742 94.6229L303.293 100.181" stroke="#212121" stroke-width="0.8025" stroke-linecap="round" stroke-linejoin="round"/>
<path opacity="0.3" d="M303.293 94.6229L297.742 100.181" stroke="#212121" stroke-width="0.8025" stroke-linecap="round" stroke-linejoin="round"/>
<path opacity="0.3" d="M229.495 18.0494L223.944 23.6003" stroke="#212121" stroke-width="0.8025" stroke-linecap="round" stroke-linejoin="round"/>
<path opacity="0.3" d="M282.56 214.955L288.111 220.513" stroke="#212121" stroke-width="0.8025" stroke-linecap="round" stroke-linejoin="round"/>
<path opacity="0.3" d="M288.111 214.955L282.56 220.513" stroke="#212121" stroke-width="0.8025" stroke-linecap="round" stroke-linejoin="round"/>
<path opacity="0.3" d="M89.7351 290.555L95.286 296.113" stroke="#212121" stroke-width="0.8025" stroke-linecap="round" stroke-linejoin="round"/>
<path opacity="0.3" d="M95.286 290.555L89.7351 296.113" stroke="#212121" stroke-width="0.8025" stroke-linecap="round" stroke-linejoin="round"/>
<path opacity="0.3" d="M296.437 34.868C296.437 34.1852 296.235 33.5178 295.856 32.9501C295.476 32.3824 294.937 31.9399 294.306 31.6787C293.676 31.4174 292.982 31.349 292.312 31.4822C291.642 31.6154 291.027 31.9442 290.544 32.427C290.062 32.9098 289.733 33.5249 289.6 34.1945C289.466 34.8641 289.535 35.5582 289.796 36.189C290.057 36.8198 290.5 37.3589 291.068 37.7382C291.635 38.1176 292.303 38.32 292.985 38.32C293.901 38.32 294.779 37.9563 295.426 37.3089C296.074 36.6615 296.437 35.7835 296.437 34.868Z" stroke="#212121" stroke-width="0.8025" stroke-linecap="round" stroke-linejoin="round"/>
<path opacity="0.3" d="M134.308 10.8415C134.308 10.1587 134.106 9.49129 133.726 8.9236C133.347 8.35592 132.808 7.91346 132.177 7.65218C131.546 7.3909 130.852 7.32254 130.183 7.45574C129.513 7.58893 128.898 7.91771 128.415 8.40049C127.932 8.88327 127.603 9.49837 127.47 10.168C127.337 10.8376 127.405 11.5317 127.667 12.1625C127.928 12.7933 128.37 13.3324 128.938 13.7117C129.506 14.0911 130.173 14.2935 130.856 14.2935C131.772 14.2935 132.65 13.9298 133.297 13.2824C133.944 12.6351 134.308 11.757 134.308 10.8415V10.8415Z" stroke="#212121" stroke-width="0.8025" stroke-linecap="round" stroke-linejoin="round"/>
<path opacity="0.3" d="M57.8933 25.5611C59.7883 25.5611 61.3246 24.0248 61.3246 22.1297C61.3246 20.2346 59.7883 18.6984 57.8933 18.6984C55.9982 18.6984 54.4619 20.2346 54.4619 22.1297C54.4619 24.0248 55.9982 25.5611 57.8933 25.5611Z" stroke="#212121" stroke-width="0.8025" stroke-linecap="round" stroke-linejoin="round"/>
<path opacity="0.3" d="M19.6858 220.513C19.6858 219.83 19.4834 219.162 19.1041 218.595C18.7247 218.027 18.1856 217.585 17.5548 217.323C16.924 217.062 16.2299 216.994 15.5603 217.127C14.8907 217.26 14.2756 217.589 13.7928 218.072C13.31 218.554 12.9812 219.17 12.848 219.839C12.7148 220.509 12.7832 221.203 13.0445 221.834C13.3058 222.464 13.7482 223.004 14.3159 223.383C14.8836 223.762 15.551 223.965 16.2338 223.965C17.1493 223.965 18.0274 223.601 18.6747 222.954C19.3221 222.306 19.6858 221.428 19.6858 220.513V220.513Z" stroke="#212121" stroke-width="0.8025" stroke-linecap="round" stroke-linejoin="round"/>
<path opacity="0.3" d="M251.864 274.883C251.864 274.2 251.662 273.532 251.283 272.965C250.903 272.397 250.364 271.955 249.733 271.693C249.103 271.432 248.409 271.364 247.739 271.497C247.069 271.63 246.454 271.959 245.971 272.442C245.489 272.924 245.16 273.54 245.027 274.209C244.893 274.879 244.962 275.573 245.223 276.204C245.484 276.834 245.927 277.374 246.495 277.753C247.062 278.132 247.73 278.335 248.412 278.335C249.328 278.335 250.206 277.971 250.853 277.324C251.501 276.676 251.864 275.798 251.864 274.883V274.883Z" stroke="#212121" stroke-width="0.8025" stroke-linecap="round" stroke-linejoin="round"/>
<path opacity="0.3" d="M300.849 201.395C300.849 200.712 300.647 200.045 300.267 199.477C299.888 198.91 299.349 198.467 298.718 198.206C298.087 197.945 297.393 197.876 296.724 198.009C296.054 198.143 295.439 198.471 294.956 198.954C294.473 199.437 294.144 200.052 294.011 200.722C293.878 201.391 293.946 202.085 294.208 202.716C294.469 203.347 294.911 203.886 295.479 204.265C296.047 204.645 296.714 204.847 297.397 204.847C298.313 204.847 299.191 204.484 299.838 203.836C300.485 203.189 300.849 202.311 300.849 201.395V201.395Z" stroke="#212121" stroke-width="0.8025" stroke-linecap="round" stroke-linejoin="round"/>
<path opacity="0.3" d="M282.512 257.602C282.513 256.992 282.334 256.396 281.996 255.889C281.659 255.382 281.178 254.986 280.616 254.752C280.053 254.518 279.434 254.456 278.836 254.574C278.238 254.692 277.689 254.985 277.258 255.415C276.826 255.845 276.532 256.394 276.413 256.991C276.294 257.589 276.354 258.208 276.587 258.771C276.82 259.335 277.215 259.816 277.721 260.154C278.228 260.493 278.823 260.674 279.433 260.674C280.248 260.674 281.03 260.35 281.607 259.774C282.185 259.198 282.51 258.417 282.512 257.602Z" stroke="#212121" stroke-width="0.8025" stroke-linecap="round" stroke-linejoin="round"/>
<path opacity="0.3" d="M290.072 275.373L295.623 280.924" stroke="#212121" stroke-width="0.8025" stroke-linecap="round" stroke-linejoin="round"/>
<path opacity="0.3" d="M295.623 275.373L290.072 280.924" stroke="#212121" stroke-width="0.8025" stroke-linecap="round" stroke-linejoin="round"/>
<path opacity="0.3" d="M60.9725 103.302C60.9725 102.693 60.7919 102.097 60.4535 101.591C60.1152 101.084 59.6343 100.69 59.0716 100.457C58.5089 100.224 57.8898 100.163 57.2925 100.281C56.6952 100.4 56.1465 100.694 55.7159 101.124C55.2852 101.555 54.992 102.103 54.8732 102.701C54.7544 103.298 54.8153 103.917 55.0484 104.48C55.2814 105.043 55.6761 105.523 56.1825 105.862C56.6889 106.2 57.2842 106.381 57.8932 106.381C58.7099 106.381 59.4931 106.056 60.0706 105.479C60.6481 104.901 60.9725 104.118 60.9725 103.302V103.302Z" stroke="#212121" stroke-width="0.8025" stroke-linecap="round" stroke-linejoin="round"/>
</g>
</svg>
