<svg xmlns="http://www.w3.org/2000/svg" width="212" height="104" viewBox="0 0 212 104" fill="none">
<rect x="0.765152" y="0.765152" width="210.47" height="102.47" fill="white"/>
<path d="M184.298 43.3268V46.9603C184.298 53.7299 180.97 68.6845 164.677 76.6589C148.365 68.7036 145.038 53.7299 145.038 46.9603V43.3268H184.298Z" fill="#B0B7BC"/>
<path d="M164.677 26.9763C164.677 26.9763 177.49 26.7851 184.298 29.4815V43.3268H145.038V29.4815C151.865 26.8042 164.677 26.9763 164.677 26.9763Z" fill="#B5121B"/>
<path d="M149.302 31.0305C149.264 31.0305 149.226 31.0496 149.207 31.0496C149.226 31.0113 149.264 30.9731 149.322 30.9348C149.398 30.8584 149.513 30.801 149.666 30.801C149.781 30.801 149.934 30.8392 150.106 30.9731C150.087 30.9922 150.048 31.0113 150.029 31.0305C149.972 31.0687 149.934 31.107 149.895 31.1643C149.838 31.107 149.704 31.0305 149.494 31.0305C149.417 31.0113 149.36 31.0113 149.302 31.0305ZM149.704 32.2161C149.608 32.1779 149.513 32.1779 149.436 32.1779C149.226 32.1779 149.092 32.2735 149.016 32.3882C148.958 32.4647 148.92 32.5412 148.901 32.6177C148.92 32.5986 148.958 32.5795 148.977 32.5603C149.13 32.4647 149.264 32.4456 149.379 32.4456C149.455 32.4456 149.513 32.4647 149.551 32.4647C149.608 32.3309 149.685 32.2544 149.704 32.2161C149.704 32.2352 149.704 32.2352 149.704 32.2161ZM149.838 31.5468C149.819 31.5659 149.819 31.585 149.819 31.585V31.6042C149.819 31.6233 149.8 31.6424 149.8 31.6807C149.8 31.738 149.819 31.7954 149.914 31.8528C150.029 31.9101 150.24 32.0631 150.412 32.1779C150.469 32.0058 150.565 31.8719 150.698 31.738L150.431 31.2217V31.2026L150.412 31.1643C150.392 31.1452 150.354 31.1261 150.316 31.1261C150.278 31.1261 150.24 31.1452 150.182 31.1834C150.01 31.3173 149.895 31.4703 149.838 31.5468ZM150.813 40.4201C150.756 40.5348 150.737 40.6687 150.737 40.7643V40.7834C150.737 40.7643 150.756 40.7452 150.775 40.726C150.871 40.5348 151.043 40.4392 151.157 40.3818C151.138 40.3053 151.119 40.2097 151.1 40.1332C150.966 40.2097 150.871 40.3053 150.813 40.4201ZM151.33 34.2241C151.578 34.4344 151.731 34.4918 151.808 34.4918C151.865 34.4918 151.903 34.4727 151.941 34.4153C151.961 34.3771 151.999 34.3388 152.037 34.2814C152.075 34.2241 152.075 34.1667 152.075 34.1093C152.075 33.9946 152.037 33.8607 151.999 33.8034C151.98 33.746 151.406 32.4456 151.253 31.9293C151.234 31.8528 151.234 31.7763 151.215 31.738L151.196 31.7189C151.196 31.7189 151.177 31.7189 151.157 31.7189C151.119 31.7189 151.062 31.738 151.004 31.7763C150.66 31.9866 150.526 32.2926 150.526 32.6368C150.545 33.2488 151.004 33.9755 151.33 34.2241ZM150.335 32.503C150.335 32.4838 150.335 32.4647 150.335 32.4265C150.335 32.3882 150.125 32.3117 150.106 32.3117C150.029 32.2926 149.934 32.2926 149.857 32.3691C149.8 32.4456 149.685 32.6177 149.685 32.7707C149.685 32.8281 149.704 32.8854 149.742 32.9237C149.781 32.9619 149.838 33.0002 149.934 33.0384C150.106 33.0958 150.278 33.134 150.431 33.1914C150.373 33.0002 150.335 32.8089 150.335 32.6177C150.335 32.5795 150.335 32.5412 150.335 32.503ZM151.234 30.3803C151.253 30.3803 151.272 30.3803 151.291 30.3803C151.387 30.3803 151.463 30.4185 151.521 30.4376C151.502 30.189 151.406 30.0552 151.291 29.9595C151.177 29.8639 151.043 29.8448 150.928 29.8448C150.909 29.8448 150.871 29.8448 150.851 29.8448C150.871 29.8639 150.909 29.8831 150.928 29.9022C151.157 30.0934 151.215 30.2846 151.234 30.3803ZM150.737 31.0878C150.756 31.1643 150.775 31.2599 150.813 31.3364C150.813 31.3556 150.909 31.585 150.89 31.585C150.909 31.585 150.909 31.5659 150.928 31.5659C151.004 31.5277 151.1 31.4894 151.177 31.4894C151.215 31.4894 151.253 31.4894 151.291 31.5085C151.31 31.4321 151.349 31.3556 151.387 31.2599C151.425 31.1452 151.463 31.0496 151.463 30.9922C151.463 30.954 151.463 30.9157 151.463 30.8584C151.463 30.801 151.463 30.7245 151.425 30.6862C151.406 30.648 151.368 30.6097 151.272 30.6097C151.234 30.6097 151.196 30.6097 151.157 30.6289C151.024 30.6671 150.832 30.7054 150.756 30.8392C150.698 30.9157 150.718 30.9922 150.737 31.0878ZM153.051 31.3364C153.185 31.1643 153.223 31.0113 153.223 30.8966C153.223 30.7627 153.165 30.648 153.089 30.5524C153.051 30.495 152.993 30.4568 152.974 30.4376C152.974 30.4568 152.993 30.495 152.993 30.5333C153.012 30.5906 153.012 30.648 153.012 30.7054C153.012 30.9157 152.917 31.0496 152.879 31.107C152.936 31.1834 152.993 31.2599 153.051 31.3364ZM157.468 30.4568C157.468 30.3803 157.526 30.2846 157.564 30.2273C157.621 30.1508 157.717 30.0552 157.679 29.9595C157.659 29.9022 157.583 29.8639 157.583 29.7874C157.583 29.7492 157.602 29.7109 157.64 29.6918C157.679 29.6536 157.736 29.6345 157.793 29.6153C157.965 29.558 158.501 29.3667 158.501 29.3667C158.558 29.3094 158.577 29.2711 158.635 29.2137C158.692 29.1564 158.807 29.099 159.036 29.0607C159.591 28.946 161.121 28.8504 161.255 28.8313C161.293 28.8313 161.35 28.8504 161.427 28.9078C161.522 28.9843 161.618 29.099 161.694 29.1946C161.733 29.2329 161.771 29.2902 161.79 29.3094C161.809 29.3476 161.828 29.3667 161.828 29.3667L161.847 29.405L161.867 29.3858C161.867 29.3858 161.886 29.3667 161.924 29.3667C161.962 29.3667 162 29.3476 162.039 29.3476C162.096 29.3476 162.173 29.3667 162.23 29.405C162.287 29.4432 162.345 29.5197 162.383 29.6536C162.402 29.7109 162.402 29.7874 162.402 29.8448C162.402 30.2082 162.153 30.5715 161.981 30.7627L161.962 30.7819L161.981 30.801C162.555 31.6424 162.651 32.4073 162.651 32.656C162.574 32.5603 162.479 32.3882 162.479 32.3882C162.479 32.3882 162.459 32.3691 162.44 32.3309C162.421 32.3117 162.383 32.2735 162.345 32.2544C162.326 32.2544 162.326 32.2544 162.306 32.2544C162.287 32.2544 162.249 32.2544 162.23 32.2926C162.211 32.3117 162.192 32.35 162.192 32.3691C162.192 32.4073 162.192 32.4456 162.211 32.4838C162.459 33.2105 162.498 33.9755 162.498 34.3962C162.498 34.4153 162.498 34.4153 162.498 34.4344C162.402 34.2814 162.249 34.0328 162.249 34.0328C162.211 33.9563 162.153 33.9181 162.096 33.9181C162.058 33.9181 162.039 33.9372 162.02 33.9563C162 33.9755 162 34.0137 162 34.0328C162 34.052 162 34.0711 162.02 34.0902C162.153 34.4344 162.192 34.7595 162.192 35.0464C162.192 35.448 162.115 35.7731 162.02 36.0217C161.981 36.1364 161.943 36.232 161.905 36.3085C161.905 36.3276 161.886 36.3468 161.886 36.3659C161.867 36.3276 161.847 36.2894 161.809 36.232C161.752 36.1364 161.675 36.0025 161.637 35.9069C161.618 35.8687 161.599 35.8304 161.58 35.7922C161.561 35.7731 161.522 35.7539 161.503 35.7539C161.465 35.7539 161.446 35.7731 161.427 35.7922C161.408 35.8113 161.408 35.8496 161.408 35.8878C161.408 35.9069 161.408 35.9261 161.408 35.9261C161.408 36.0025 161.408 36.079 161.408 36.1364C161.408 36.8057 161.14 37.2838 160.872 37.5707C160.738 37.7237 160.604 37.8384 160.509 37.8958C160.471 37.934 160.432 37.9531 160.394 37.9723C160.394 37.8001 160.394 37.2456 160.394 37.0161C160.394 36.9778 160.375 36.9396 160.356 36.9013C160.337 36.8822 160.318 36.844 160.279 36.844C160.26 36.844 160.241 36.844 160.222 36.8631C160.203 36.8822 160.184 36.9013 160.184 36.9205C159.992 37.3603 159.801 37.6089 159.629 37.7619C159.457 37.8958 159.323 37.934 159.208 37.934C159.151 37.934 159.113 37.934 159.094 37.9149C159.113 37.8766 159.151 37.8193 159.189 37.7428C159.247 37.6089 159.304 37.4559 159.304 37.3029C159.304 37.1882 159.266 37.0926 159.189 37.0161C159.113 36.9396 158.979 36.9013 158.769 36.9013C158.711 36.9013 158.654 36.9013 158.577 36.9205C158.118 36.9778 157.487 37.2647 156.952 37.5324C156.512 37.7619 156.13 37.9914 156.034 38.0488C155.919 37.8193 155.881 37.628 155.881 37.4368C155.881 37.1691 155.957 36.9587 156.053 36.8057C156.091 36.7292 156.13 36.6719 156.168 36.6336C156.187 36.6145 156.187 36.5954 156.206 36.5954L156.225 36.5763C156.225 36.5763 156.244 36.5571 156.263 36.538C156.283 36.5189 156.302 36.4806 156.302 36.4424C156.302 36.4233 156.283 36.385 156.263 36.3659C156.244 36.3468 156.206 36.3468 156.168 36.3468C155.938 36.3659 155.766 36.4424 155.632 36.538C155.537 36.5954 155.479 36.6527 155.422 36.7101C155.46 35.9834 155.709 35.5245 155.996 35.2185C156.283 34.9125 156.588 34.7786 156.665 34.7595C156.722 34.7404 156.761 34.7213 156.78 34.683C156.799 34.6639 156.818 34.6257 156.818 34.6065C156.818 34.5874 156.818 34.5683 156.818 34.5683C156.818 34.5492 156.799 34.53 156.78 34.5109C156.741 34.4727 156.665 34.4727 156.665 34.4727C156.665 34.4727 156.493 34.4344 156.34 34.3962C156.263 34.3771 156.168 34.3579 156.11 34.3388C156.091 34.3388 156.072 34.3197 156.053 34.3197C156.531 33.7269 157.22 33.6312 157.583 33.6312C157.659 33.6312 157.736 33.6312 157.774 33.6312C157.793 33.6312 157.812 33.6312 157.832 33.6312C157.851 33.6312 157.851 33.6312 157.851 33.6312C157.87 33.6312 157.908 33.6312 157.927 33.6312C157.984 33.6312 158.023 33.6121 158.061 33.593C158.099 33.5739 158.118 33.5356 158.118 33.4974C158.118 33.4591 158.099 33.4209 158.08 33.4209C158.061 33.4018 158.042 33.4018 158.042 33.4018H158.023C158.004 33.3826 157.927 33.3444 157.755 33.2488C157.698 33.2105 157.659 33.1914 157.64 33.1723C157.621 33.1532 157.621 33.134 157.621 33.134V33.1149C157.659 33.1149 157.736 33.1149 157.812 33.134C157.927 33.134 158.061 33.1532 158.099 33.1723C158.271 33.2297 158.424 33.2679 158.558 33.2679C158.807 33.2679 158.998 33.1723 159.113 33.0384C159.228 32.9237 159.304 32.7898 159.342 32.7133C159.381 32.656 159.4 32.5986 159.4 32.5412C159.4 32.4265 159.342 32.35 159.247 32.3309C159.189 32.3117 159.113 32.2926 158.998 32.2926C158.883 32.2926 158.749 32.3117 158.635 32.4265C158.558 32.503 158.501 32.5221 158.463 32.5221C158.443 32.5221 158.424 32.5221 158.405 32.503H158.386L158.157 32.2926C158.061 32.2735 158.004 32.2352 157.965 32.2161C157.927 32.197 157.927 32.1779 157.927 32.1779L157.946 32.1587C157.946 32.1587 157.965 32.1396 157.984 32.1396C158.118 32.0631 158.176 32.044 158.29 32.044C158.405 32.044 158.558 32.0631 158.826 32.0631C158.864 32.0631 158.922 32.0631 158.979 32.0631C159.189 32.0631 159.304 31.9866 159.381 31.891C159.457 31.7954 159.476 31.6807 159.476 31.585C159.476 31.4512 159.438 31.3556 159.438 31.3556C159.438 31.3556 159.304 30.954 159.017 30.5141C158.941 30.3803 158.826 30.342 158.73 30.342C158.577 30.342 158.424 30.4376 158.31 30.5141C158.195 30.5906 158.118 30.6862 158.118 30.6862C158.023 30.7819 157.927 30.801 157.832 30.801C157.736 30.801 157.64 30.7627 157.564 30.6862C157.526 30.648 157.487 30.5524 157.468 30.4568ZM158.941 29.6727C159.017 29.7109 159.094 29.7492 159.151 29.7874L159.17 29.8066L159.189 29.7874C159.189 29.7874 159.266 29.7109 159.361 29.6345C159.4 29.5962 159.553 29.5006 159.533 29.4432C159.514 29.3476 159.094 29.4623 159.036 29.4815C158.979 29.5006 158.922 29.5197 158.902 29.5388C158.883 29.5388 158.864 29.558 158.864 29.558L158.845 29.5771C158.769 29.6536 158.922 29.6727 158.941 29.6727ZM151.483 31.8719C151.578 32.2544 151.941 33.0958 152.114 33.4974C152.171 33.6312 152.209 33.7077 152.209 33.7077C152.209 33.7077 152.305 33.899 152.305 34.1093C152.305 34.2049 152.286 34.3197 152.228 34.4153C152.152 34.5492 152.075 34.6257 152.075 34.6448V34.6639C152.075 34.6639 152.056 34.683 152.056 34.7022C152.037 34.7404 152.018 34.7978 152.018 34.8551C152.018 34.9125 152.037 35.0081 152.094 35.1037C152.094 35.1037 152.171 35.2185 152.247 35.3524C152.324 35.4862 152.42 35.6392 152.477 35.7157C152.496 35.7348 152.515 35.7731 152.534 35.7922C152.553 35.8113 152.573 35.8304 152.573 35.8304V35.8113C152.573 35.7922 152.592 35.7539 152.592 35.6774C152.592 35.6583 152.592 35.6583 152.592 35.6392V35.6201C152.592 35.5436 152.592 35.4288 152.611 35.3524C152.611 35.2759 152.668 35.2376 152.726 35.2376C152.764 35.2376 152.821 35.2759 152.84 35.3332C152.859 35.3906 152.879 35.5053 152.917 35.6201C152.917 35.6201 152.917 35.6392 152.936 35.6583C152.936 35.6775 152.955 35.7157 152.974 35.7539C153.012 35.8304 153.07 35.9452 153.146 36.0599C153.28 36.2894 153.51 36.5189 153.796 36.6527C153.796 36.6145 153.796 36.5763 153.796 36.5571C153.796 36.4041 153.796 36.3085 153.796 36.2703C153.796 36.2703 153.796 36.2512 153.796 36.232C153.796 36.2129 153.796 36.1938 153.796 36.1747C153.796 36.1555 153.835 36.1364 153.854 36.1364C153.873 36.1364 153.892 36.1555 153.911 36.1555C153.93 36.1747 153.949 36.1747 153.949 36.1938C153.969 36.2129 153.969 36.232 153.988 36.232L154.007 36.2512C154.007 36.2512 154.026 36.2703 154.045 36.3085C154.064 36.3468 154.122 36.4041 154.16 36.4806C154.255 36.6336 154.408 36.8249 154.581 37.0161C154.906 37.3794 155.307 37.7237 155.671 37.8001C155.651 37.7045 155.632 37.5898 155.632 37.4942C155.632 37.2838 155.671 37.0926 155.747 36.9013C155.709 36.9396 155.671 36.9587 155.632 36.9778L155.116 37.4177L155.135 36.7484C155.173 36.0599 155.384 35.5053 155.785 35.0655C155.919 34.9316 156.053 34.8169 156.206 34.7213C156.149 34.7022 156.091 34.7022 156.053 34.683C156.034 34.683 155.996 34.6639 155.977 34.6639L155.824 34.6257C154.925 34.4918 153.624 34.1093 152.4 32.9428C152.247 32.8089 152.094 32.5795 152.094 32.3117C152.094 32.1779 152.133 32.044 152.247 31.9101C152.343 31.7763 152.515 31.6615 152.764 31.585H152.783L152.821 31.5659C152.84 31.5468 152.859 31.5277 152.859 31.5085C152.859 31.4703 152.821 31.3747 152.668 31.2599C152.477 31.107 152.324 30.9922 152.228 30.9157C152.133 30.8392 152.094 30.8201 152.094 30.8201C152.075 30.8201 152.037 30.8201 151.98 30.8966C151.865 31.0113 151.483 31.3173 151.483 31.7189C151.463 31.738 151.463 31.7954 151.483 31.8719ZM152.859 38.6798V38.6416C152.859 38.6033 152.84 38.546 152.764 38.4886C152.687 38.4312 152.611 38.3739 152.553 38.3165C152.496 38.2782 152.477 38.24 152.458 38.24C152.458 38.24 152.439 38.24 152.42 38.24C152.4 38.24 152.362 38.24 152.305 38.2782C152.286 38.2782 152.286 38.2974 152.247 38.2974C152.228 38.3165 152.19 38.3356 152.152 38.3547C152.075 38.393 151.98 38.4503 151.884 38.5268C151.903 38.546 151.922 38.5651 151.941 38.5842C152.056 38.7181 152.247 38.8902 152.477 39.0049C152.573 39.0432 152.687 39.0814 152.783 39.1005C152.783 39.0623 152.764 39.0049 152.764 38.9667C152.802 38.8137 152.859 38.6798 152.859 38.6798ZM151.272 38.6033C151.081 38.6033 150.947 38.6798 150.851 38.7563C150.794 38.7946 150.756 38.8519 150.718 38.8902C150.737 38.8902 150.756 38.8711 150.775 38.8711C150.871 38.8328 150.966 38.8137 151.062 38.8137C151.138 38.8137 151.215 38.8328 151.272 38.8519C151.31 38.7754 151.368 38.6989 151.444 38.6416C151.387 38.6225 151.33 38.6033 151.272 38.6033ZM152.515 37.6089C152.4 37.5324 152.286 37.5133 152.19 37.4942C152.209 37.5133 152.228 37.5133 152.247 37.5324C152.477 37.7045 152.534 37.8958 152.534 38.0105C152.553 38.0105 152.553 38.0105 152.573 38.0296H152.592L152.611 38.0488C152.611 38.0488 152.726 38.1444 152.84 38.24C152.821 37.8958 152.668 37.7237 152.515 37.6089ZM176.458 39.3109C176.515 39.2918 176.553 39.2344 176.611 39.177C176.63 39.1579 176.649 39.1388 176.687 39.1197C176.572 39.0623 176.458 39.0432 176.362 39.0432C176.19 39.0432 176.056 39.1197 175.941 39.1962C175.884 39.2344 175.846 39.2727 175.808 39.3109C175.827 39.3109 175.846 39.2918 175.865 39.2918C175.961 39.2535 176.056 39.2344 176.133 39.2344C176.286 39.2344 176.4 39.2918 176.458 39.3109ZM176.419 39.8081C176.419 39.942 176.515 40.095 176.592 40.1906C176.649 40.2671 176.745 40.2862 176.84 40.3053C176.936 40.3244 177.031 40.3436 177.127 40.3436C177.204 40.3436 177.414 40.3053 177.337 40.1906C177.299 40.1332 177.242 40.095 177.204 40.0185C177.165 39.942 177.127 39.8655 177.108 39.789C177.07 39.6742 177.051 39.5595 177.031 39.4448C177.031 39.4065 177.012 39.3683 176.993 39.33C176.974 39.2918 176.936 39.2727 176.898 39.2727C176.878 39.2727 176.84 39.2918 176.783 39.3491C176.592 39.5404 176.553 39.5786 176.496 39.6551C176.419 39.6934 176.419 39.7507 176.419 39.8081ZM175.559 40.879C175.482 41.0129 175.463 41.1659 175.463 41.2615V41.2806C175.482 41.2615 175.482 41.2424 175.502 41.2232C175.655 40.9555 175.846 40.879 175.941 40.8599C175.941 40.8216 175.922 40.7834 175.922 40.7452C175.922 40.6878 175.922 40.6495 175.941 40.5922C175.941 40.5922 175.941 40.5922 175.941 40.573C175.75 40.6495 175.635 40.7643 175.559 40.879ZM165.366 38.9093C165.424 38.9093 165.462 38.9093 165.5 38.9093C165.538 38.9093 165.557 38.9093 165.596 38.9093H165.615C165.634 38.9093 165.653 38.9093 165.672 38.9093C165.596 38.6989 165.481 38.5651 165.366 38.4886C165.232 38.4121 165.098 38.3739 164.984 38.3739C164.945 38.3739 164.926 38.3739 164.888 38.3739C164.907 38.3739 164.926 38.393 164.945 38.393C165.232 38.5268 165.328 38.7181 165.347 38.8137L165.366 38.9093ZM177.204 41.4145C177.184 41.3954 177.165 41.3762 177.146 41.338C177.051 41.491 177.012 41.6248 177.012 41.7587C177.012 41.9882 177.146 42.1603 177.242 42.2559C177.242 42.2368 177.223 42.2177 177.223 42.1985C177.204 42.122 177.204 42.0455 177.204 41.9882C177.204 41.7969 177.261 41.6822 177.318 41.6248L177.357 41.5675L177.337 41.5483C177.299 41.491 177.261 41.4336 177.204 41.4145ZM178.829 41.4718L178.81 41.4145H178.619C178.6 41.4145 178.561 41.4145 178.523 41.4145C178.6 41.644 178.714 41.7778 178.829 41.8543C178.963 41.9308 179.116 41.9499 179.231 41.9499H179.25C179.231 41.9499 179.211 41.9308 179.192 41.9117C178.944 41.7778 178.848 41.5675 178.829 41.4718ZM152.247 41.0129C152.075 41.1659 152.037 41.3571 152.037 41.5101C152.037 41.5866 152.056 41.6631 152.056 41.7204C152.056 41.7013 152.075 41.6822 152.075 41.6631C152.133 41.4527 152.267 41.3189 152.362 41.2424C152.343 41.2041 152.305 41.1467 152.267 41.1085C152.267 41.0703 152.247 41.0511 152.247 41.0129ZM163.358 39.1388C163.167 39.1388 163.014 39.2344 162.918 39.2918C162.937 39.2918 162.957 39.2918 162.976 39.2918C163.014 39.2918 163.033 39.2918 163.071 39.2918C163.167 39.2918 163.263 39.3109 163.339 39.33C163.396 39.2535 163.454 39.2153 163.511 39.1579C163.454 39.1388 163.396 39.1388 163.358 39.1388ZM163.607 40.0185C163.607 40.0376 163.607 40.0376 163.607 40.0567C163.607 40.095 163.607 40.095 163.645 40.1141C163.683 40.1332 163.741 40.1523 163.855 40.1523C163.913 40.1523 163.951 40.1523 164.008 40.1523C164.085 40.1523 164.123 40.1523 164.161 40.1332C164.18 40.095 164.18 40.0567 164.2 40.0185C164.219 39.942 164.257 39.8655 164.257 39.789C164.276 39.7125 164.276 39.6551 164.276 39.5978C164.276 39.5595 164.276 39.5213 164.276 39.4639C164.2 39.3874 164.085 39.2727 164.027 39.2344C163.989 39.2153 163.951 39.177 163.894 39.177C163.855 39.177 163.798 39.1962 163.741 39.2344C163.683 39.2727 163.626 39.3109 163.569 39.3683C163.53 39.4065 163.492 39.4639 163.492 39.5021C163.492 39.5213 163.492 39.5595 163.53 39.5978C163.607 39.7125 163.626 39.8081 163.626 39.8846C163.607 39.9611 163.607 39.9993 163.607 40.0185ZM179.288 40.4009C179.25 40.3436 179.231 40.2862 179.231 40.2288C179.231 40.0758 179.326 39.9611 179.403 39.8464C179.422 39.8272 179.422 39.8081 179.441 39.8081C179.517 39.6934 179.556 39.5595 179.556 39.4065C179.556 39.2153 179.479 38.9667 179.231 38.6989C179.231 38.6989 179.173 38.6416 179.173 38.5077C179.173 38.4121 179.192 38.2591 179.288 38.0296C179.364 37.8384 179.441 37.6663 179.441 37.4942C179.441 37.4177 179.422 37.3221 179.364 37.2264C179.326 37.3794 179.288 37.7045 179.078 37.6854C178.925 37.6854 178.944 37.4942 178.944 37.3794C178.944 37.3603 178.944 37.3221 178.963 37.2838C178.982 37.2073 178.982 37.0926 178.982 36.9587C178.982 36.7675 178.963 36.5571 178.886 36.3468C178.848 36.4806 178.829 36.5763 178.772 36.6336C178.753 36.6527 178.714 36.6719 178.695 36.6719C178.657 36.6719 178.619 36.6527 178.6 36.6145C178.58 36.5763 178.561 36.5571 178.542 36.5189C178.523 36.4424 178.523 36.385 178.504 36.385C178.504 36.385 178.485 36.2129 178.427 36.0408C178.389 35.8687 178.332 35.6774 178.294 35.5818C178.294 35.6392 178.274 35.7157 178.255 35.7922C178.236 35.8878 178.217 36.0217 178.102 36.0599C178.026 36.079 177.988 36.0025 177.988 35.9261C177.968 35.8496 177.949 35.7539 177.93 35.6774C177.892 35.5436 177.854 35.3906 177.796 35.2567C177.777 35.1802 177.739 35.142 177.72 35.1229C177.72 35.142 177.701 35.1611 177.701 35.1802C177.682 35.2376 177.643 35.295 177.586 35.3715C177.49 35.5245 177.357 35.7157 177.184 35.8496C176.84 36.1173 176.553 36.1364 176.324 36.1364C175.98 36.1364 175.387 36.0217 174.87 35.6966C174.584 35.5053 174.086 35.2185 173.761 34.989L173.685 34.9316H173.8C173.914 34.9316 174.029 34.9316 174.144 34.9316C174.641 34.9316 175.176 34.8743 175.521 34.7022C175.96 34.4918 176.171 34.2049 176.381 33.9372C176.592 33.6695 176.783 33.3826 177.165 33.1723C177.395 33.0384 177.643 33.0002 177.873 33.0002C178.141 33.0002 178.37 33.0575 178.466 33.0958C178.37 32.7516 177.968 32.4456 177.471 32.4456C177.108 32.4456 176.725 32.5986 176.362 33.0002L176.305 33.0575V32.981V32.9619C176.305 32.9428 176.305 32.9428 176.305 32.9237C176.305 32.8854 176.286 32.8281 176.286 32.7707C176.247 32.6368 176.19 32.4647 176.075 32.2926C175.827 31.9484 175.349 31.6042 174.373 31.6042C174.297 31.6042 174.22 31.6042 174.125 31.6042C173.321 31.6424 171.83 32.1205 170.453 32.3882C169.114 32.656 167.125 32.7707 166.284 32.7707C165.959 32.7707 165.653 32.7324 165.366 32.6751C165.098 32.6177 164.869 32.503 164.716 32.35C164.62 32.2352 164.563 32.1205 164.563 31.9675C164.563 31.6615 164.735 31.4703 164.945 31.3747C165.156 31.2791 165.423 31.2599 165.615 31.2599C166.265 31.2599 167.164 31.6615 167.89 31.9293C168.407 32.1205 168.904 32.1205 169.191 32.1205C169.937 32.1205 170.893 31.7189 171.371 31.5277C171.753 31.3747 172.078 31.2599 172.633 31.2599C172.767 31.2599 172.92 31.2599 173.073 31.2791C172.863 31.0496 172.423 30.8201 171.849 30.8201C171.486 30.8201 171.046 30.9157 170.606 31.1643L170.568 31.1834L170.549 31.1452C170.529 31.107 170.51 31.0687 170.51 31.0113C170.51 30.8966 170.568 30.7627 170.682 30.6289C170.778 30.5141 170.912 30.4185 171.084 30.3611C170.969 30.3038 170.797 30.2273 170.549 30.189C170.262 30.1317 169.918 30.0743 169.535 30.0743C169.497 30.0743 169.459 30.0743 169.401 30.0743C168.77 30.0934 168.349 30.2464 167.948 30.3994C167.527 30.5524 167.125 30.7054 166.533 30.7054C166.475 30.7054 166.418 30.7054 166.38 30.7054C166.265 30.7054 166.15 30.7054 166.016 30.7054C165.443 30.7054 164.926 30.7819 164.544 30.954C164.161 31.1452 163.932 31.4321 163.932 31.8719C163.932 32.2544 164.161 32.5795 164.582 32.8281C165.003 33.0575 165.615 33.1914 166.361 33.1914C166.38 33.1914 166.399 33.1914 166.399 33.1914C168.273 33.1723 170.529 32.7324 171.906 32.503C172.365 32.4265 173.321 32.1587 174.144 32.1587C174.526 32.1587 174.87 32.2161 175.119 32.3691C175.387 32.5221 175.54 32.7898 175.54 33.1723C175.54 33.3635 175.502 33.6121 175.329 33.8034C175.157 33.9946 174.87 34.1476 174.392 34.1476C173.838 34.1476 173.207 33.9946 172.442 33.8798H172.384C172.231 33.8607 172.059 33.8416 171.868 33.8034C170.759 33.6695 169.325 33.5739 168.521 33.5739C168.445 33.5739 168.369 33.5739 168.311 33.5739C167.699 33.593 166.514 33.6695 165.385 33.8416C164.219 34.0328 163.148 34.2814 162.804 34.3579V34.3962L162.784 35.4671L162.479 34.989C162.479 35.0081 162.479 35.0273 162.479 35.0464C162.479 35.4862 162.383 35.8687 162.306 36.1173C162.249 36.2512 162.211 36.3659 162.173 36.4233C162.153 36.4424 162.153 36.4615 162.153 36.4806L161.905 36.9587L161.675 36.5763C161.599 37.0352 161.408 37.4368 161.102 37.781C161.025 37.8575 160.891 37.9914 160.719 38.1252C160.7 38.1444 160.7 38.1444 160.681 38.1635C160.624 38.2017 160.585 38.24 160.547 38.2591L160.088 38.5268V37.7237C159.992 37.8384 159.897 37.9531 159.801 38.0296C159.61 38.2017 159.4 38.2782 159.189 38.2782C159.113 38.2782 159.055 38.2591 158.979 38.24L158.596 38.1252L158.807 37.8001C158.826 37.781 158.864 37.7237 158.883 37.6472C158.96 37.4942 158.979 37.3986 158.979 37.3412C158.979 37.3221 158.979 37.3029 158.96 37.2838C158.941 37.2647 158.864 37.2456 158.749 37.2456C158.692 37.2456 158.654 37.2456 158.596 37.2647C158.367 37.2838 157.908 37.4177 157.067 37.8575C156.627 38.087 156.206 38.3356 155.785 38.5842C155.518 38.7563 155.25 38.9093 154.963 39.0432C154.561 39.2535 154.141 39.4448 153.701 39.5021C153.586 39.5213 153.452 39.5404 153.338 39.5404C153.146 39.5404 152.974 39.483 152.879 39.3683C152.687 39.3491 152.515 39.3109 152.362 39.2344C152.19 39.1388 152.037 39.024 151.922 38.9284C151.827 38.8519 151.769 38.7563 151.712 38.6989C151.502 38.8902 151.31 39.1388 151.272 39.4639C151.272 39.5404 151.272 39.6169 151.272 39.6934C151.272 39.7316 151.272 39.7699 151.272 39.8081C151.31 39.8081 151.349 39.8081 151.387 39.8081C152.247 39.8081 152.726 39.6742 152.764 39.6742H152.802C152.859 39.6742 152.898 39.7125 152.917 39.7507V39.789C152.917 39.8464 152.879 39.8846 152.84 39.9037C152.84 39.9037 152.324 40.0567 151.406 40.0567C151.368 40.0567 151.349 40.0567 151.31 40.0567C151.33 40.3053 151.406 40.5348 151.502 40.6878C151.636 40.8981 151.827 40.9555 151.903 40.9555H151.922C152.63 40.4583 153.089 40.3053 153.108 40.3053C153.127 40.3053 153.127 40.3053 153.146 40.3053C153.204 40.3053 153.242 40.3436 153.261 40.3818C153.261 40.4009 153.261 40.4009 153.261 40.4201C153.261 40.4583 153.223 40.5157 153.185 40.5348H153.165C153.146 40.5348 153.127 40.5539 153.07 40.573C152.993 40.6113 152.879 40.6495 152.745 40.726C152.649 40.7834 152.553 40.8408 152.439 40.8981V40.9173C152.439 40.9364 152.439 40.9555 152.477 41.0129C152.573 41.1659 152.687 41.3571 152.764 41.4718C152.821 41.5483 152.917 41.644 153.051 41.644C153.165 41.644 153.318 41.5675 153.49 41.3189C153.605 41.185 153.739 41.0703 154.007 41.0703L154.638 41.032H154.657C154.657 41.032 154.676 41.032 154.695 41.032C154.714 41.032 154.753 41.0129 154.81 41.0129C154.886 40.9746 155.001 40.9364 155.059 40.8408C155.097 40.7834 155.154 40.726 155.192 40.7069C155.25 40.6687 155.307 40.6687 155.365 40.6687C155.479 40.6687 155.594 40.7069 155.785 40.7452C156.053 40.8216 156.263 40.8599 156.416 40.8599C156.455 40.8599 156.493 40.8599 156.531 40.8408C156.512 40.8216 156.493 40.8025 156.455 40.7643C156.397 40.7069 156.321 40.6304 156.283 40.573C156.244 40.5348 156.225 40.4774 156.225 40.4392C156.225 40.4201 156.225 40.3818 156.244 40.3627C156.283 40.3244 156.321 40.3053 156.359 40.3053C156.397 40.3053 156.436 40.3244 156.455 40.3436C156.474 40.3627 156.512 40.3818 156.512 40.4009C156.78 40.5922 157.277 40.726 157.679 40.726C157.793 40.726 157.889 40.726 157.984 40.6878C157.908 40.6495 157.812 40.5922 157.755 40.5157C157.717 40.4774 157.698 40.4392 157.698 40.3818C157.698 40.3627 157.717 40.3244 157.736 40.3053C157.774 40.2671 157.812 40.2671 157.87 40.2671C157.984 40.2671 158.137 40.3053 158.157 40.3053C158.157 40.3053 158.176 40.3053 158.233 40.3244C158.271 40.3244 158.348 40.3436 158.424 40.3627C158.577 40.3818 158.788 40.4201 158.979 40.4201C159.189 40.4201 159.381 40.3818 159.495 40.3053C159.285 40.1141 159.151 39.9802 159.151 39.9802C159.151 39.9802 159.094 39.942 159.094 39.8655C159.094 39.8464 159.094 39.8081 159.132 39.7699C159.151 39.7316 159.208 39.7316 159.228 39.7316C159.304 39.7316 159.381 39.7699 159.4 39.789C159.4 39.789 159.438 39.8081 159.495 39.8272C159.553 39.8464 159.629 39.8655 159.725 39.9037C159.916 39.9611 160.165 39.9993 160.394 39.9993C160.585 39.9993 160.777 39.9611 160.91 39.8655C160.757 39.8081 160.662 39.7125 160.662 39.7125C160.662 39.7125 160.624 39.6742 160.624 39.6169C160.624 39.5977 160.624 39.5786 160.643 39.5404C160.662 39.5021 160.7 39.483 160.719 39.483C160.757 39.4639 160.777 39.4639 160.815 39.4639C160.834 39.4639 160.853 39.4639 160.853 39.4639C160.93 39.4639 160.987 39.483 161.063 39.483C161.446 39.483 161.656 39.3683 161.733 39.33L161.35 38.8519C161.388 38.8328 161.503 38.7754 161.522 38.7754C161.561 38.7563 161.637 38.7181 161.714 38.6989C161.867 38.6607 162.077 38.6033 162.326 38.5268C162.823 38.3739 163.511 38.1061 164.2 37.7237C165.557 36.9778 166.896 36.0408 168.235 35.7157C168.56 35.6392 168.885 35.601 169.191 35.601C169.554 35.601 169.879 35.6392 170.128 35.6966C170.376 35.7539 170.663 35.9643 170.95 36.2512C171.256 36.538 171.562 36.8822 171.83 37.1691C172.136 37.5133 172.404 37.7428 172.518 37.8384C172.557 37.8766 172.576 37.8958 172.576 37.8958C172.576 37.8958 172.614 37.934 172.69 37.9723C172.767 38.0105 172.863 38.087 172.958 38.1444C173.168 38.2782 173.436 38.393 173.666 38.4503C173.647 38.3739 173.551 37.8766 173.761 37.9723C173.857 38.0105 173.895 38.1061 173.972 38.1826C174.067 38.2591 174.144 38.3356 174.259 38.4121C174.412 38.5268 174.603 38.6033 174.756 38.6033C174.813 38.6033 174.851 38.5842 174.909 38.5651C174.813 38.4503 174.737 38.3547 174.737 38.3547C174.737 38.3547 174.698 38.3165 174.698 38.2782C174.698 38.24 174.717 38.2209 174.756 38.2017C174.794 38.1826 174.851 38.1635 174.928 38.1635C174.947 38.1635 174.985 38.1635 175.023 38.1635C175.081 38.1635 175.196 38.1635 175.329 38.1635C175.559 38.1635 175.865 38.1444 176.133 38.1061C176.515 38.0488 176.84 37.934 176.974 37.8766C177.012 37.8575 177.051 37.8575 177.051 37.8575C177.051 37.8575 177.146 37.8193 177.261 37.8193C177.318 37.8193 177.376 37.8384 177.433 37.8575C177.509 37.9149 177.567 37.9914 177.605 38.087C177.643 38.1826 177.682 38.2782 177.701 38.3165C177.815 38.5842 178.045 38.8902 178.045 39.4065C178.045 39.483 178.045 39.5595 178.026 39.636C178.007 39.7699 177.968 40.0567 177.835 40.2671C177.586 40.6113 177.337 40.6304 177.299 40.6304C177.28 40.6304 177.242 40.6304 177.165 40.6304C177.127 40.6304 177.07 40.6304 177.012 40.6113C176.84 40.573 176.668 40.4966 176.534 40.4966C176.496 40.4966 176.458 40.4965 176.419 40.5157C176.266 40.5922 176.247 40.6878 176.228 40.8025C176.228 40.9173 176.286 41.032 176.305 41.0703C176.305 41.0703 176.305 41.0894 176.324 41.1085C176.343 41.1276 176.362 41.1659 176.381 41.2041C176.439 41.2806 176.534 41.338 176.687 41.338C176.706 41.338 176.725 41.338 176.745 41.338C176.859 41.3189 176.993 41.2615 177.07 41.1659C177.165 41.0894 177.242 40.9938 177.261 40.9555L177.28 40.9364L177.509 40.6113C177.509 40.6113 177.529 40.5922 177.529 40.573C177.548 40.5539 177.567 40.5348 177.605 40.5348C177.624 40.5348 177.643 40.5348 177.662 40.5539C177.701 40.573 177.72 40.6113 177.72 40.6495C177.72 40.6687 177.72 40.6878 177.701 40.7069C177.701 40.726 177.682 40.7452 177.682 40.7452C177.682 40.7452 177.662 40.7834 177.624 40.8025C177.605 40.8408 177.567 40.879 177.529 40.9173C177.452 41.0129 177.395 41.0894 177.395 41.0894V41.1085C177.395 41.1276 177.395 41.1276 177.395 41.1467C177.395 41.1659 177.395 41.2041 177.452 41.2424C177.509 41.2997 177.567 41.3762 177.624 41.4336C177.662 41.491 177.701 41.5483 177.777 41.5675C177.93 41.6057 178.083 41.4336 178.16 41.338C178.236 41.2615 178.313 41.1659 178.332 41.0703C178.389 40.9173 178.389 40.7643 178.389 40.6304C178.389 40.5539 178.389 40.4965 178.389 40.4392C178.389 40.4009 178.389 40.3627 178.389 40.3627C178.389 40.3627 178.389 40.3436 178.389 40.3244C178.389 40.3053 178.389 40.2862 178.408 40.2479C178.427 40.2288 178.447 40.2097 178.485 40.1906H178.504C178.561 40.1906 178.6 40.2288 178.6 40.2479C178.619 40.2671 178.619 40.3053 178.619 40.3053C178.619 40.3053 178.619 40.3436 178.619 40.4201C178.619 40.5157 178.619 40.6304 178.619 40.7643C178.619 40.879 178.6 40.9938 178.58 41.0511C178.58 41.0703 178.58 41.0894 178.58 41.0894C178.58 41.1085 178.58 41.1276 178.6 41.1276C178.6 41.1276 178.619 41.1467 178.638 41.1467C178.676 41.1659 178.695 41.1659 178.714 41.1659L179.269 41.1467C179.288 41.1467 179.364 41.1467 179.422 41.1085C179.479 41.0703 179.537 40.9938 179.556 40.8599C179.556 40.8216 179.556 40.8025 179.556 40.7834C179.556 40.6687 179.517 40.5922 179.479 40.5539C179.364 40.4966 179.326 40.4583 179.288 40.4009ZM171.122 39.0432C171.008 39.024 170.855 38.9858 170.721 38.9093C170.453 38.7563 170.281 38.4312 170.281 38.2017C170.281 37.9531 170.434 37.6089 170.663 37.3603C170.835 37.1882 171.008 37.0352 171.161 36.9396C171.161 36.9396 170.529 36.3085 170.472 36.2512C170.262 36.079 170.051 35.9069 169.784 35.8304C169.497 35.7539 169.229 35.8496 168.98 35.9643C168.827 36.0408 168.655 36.1173 168.502 36.2129C167.89 36.5954 167.584 37.3029 167.489 37.5515C167.508 37.5324 167.546 37.5133 167.584 37.4751C167.68 37.3986 167.795 37.3221 167.871 37.3029C167.89 37.3029 167.929 37.2838 167.948 37.2838C168.005 37.2838 168.043 37.3029 168.063 37.3412C168.082 37.3794 168.082 37.4177 168.082 37.4368C168.082 37.4942 168.063 37.5324 168.063 37.5324C168.063 37.5324 168.043 37.5707 168.043 37.628C168.024 37.6854 168.005 37.7619 167.986 37.8575C167.948 38.0105 167.91 38.2017 167.91 38.393C168.024 38.2209 168.158 38.087 168.158 38.0679L168.177 38.0488C168.196 38.0296 168.216 38.0296 168.254 38.0296C168.273 38.0296 168.292 38.0296 168.311 38.0488C168.33 38.0679 168.33 38.087 168.349 38.1061C168.349 38.1252 168.349 38.1444 168.349 38.1826C168.349 38.4121 168.292 38.6607 168.426 38.8711C168.541 39.0623 168.598 39.2153 168.502 39.4256C168.426 39.5977 168.235 39.7507 168.082 39.8655C167.986 39.9228 167.871 39.9802 167.718 39.9802C167.584 39.9993 167.374 39.9802 167.202 40.0376C166.972 40.1141 166.781 40.2862 166.552 40.3436C166.475 40.3627 166.418 40.3627 166.341 40.3627C166.074 40.3627 165.749 40.2862 165.557 40.0758C165.462 39.9611 165.423 39.8464 165.423 39.7507C165.423 39.4639 165.672 39.2153 165.691 39.1962L165.71 39.177C165.71 39.1579 165.729 39.1388 165.729 39.1197V39.1005C165.729 39.1005 165.71 39.0814 165.672 39.0814C165.653 39.0814 165.615 39.0814 165.576 39.0814C165.347 39.0814 164.984 39.0814 164.965 39.0814C164.965 39.0814 164.812 39.0814 164.716 39.177L164.697 39.1962C164.678 39.2153 164.678 39.2153 164.659 39.2344C164.639 39.2727 164.601 39.33 164.563 39.4065C164.525 39.5021 164.544 39.6551 164.525 39.8464C164.486 40.0185 164.391 40.2288 164.372 40.3627C164.372 40.3818 164.372 40.4201 164.372 40.4392C164.372 40.6304 164.448 40.7834 164.525 40.879C164.754 41.2041 165.194 41.3954 165.596 41.5292C165.997 41.644 166.38 41.7013 166.533 41.7204C166.571 41.7204 166.59 41.7204 166.59 41.7204C166.647 41.7013 167.278 41.5292 167.489 41.491C167.699 41.4527 168.235 41.3954 168.464 41.3571L168.12 41.185C168.12 41.185 168.101 41.1659 168.082 41.1467C168.063 41.1276 168.043 41.0894 168.043 41.0511C168.043 41.032 168.043 41.0129 168.063 40.9938C168.082 40.9555 168.101 40.9364 168.12 40.9364C168.139 40.9173 168.177 40.9173 168.196 40.9173C168.235 40.9173 168.254 40.9173 168.254 40.9173C168.273 40.9173 168.349 40.9364 168.464 40.9364C168.598 40.9364 168.77 40.9555 168.942 40.9555C169.076 40.9555 169.21 40.9555 169.325 40.9364C169.612 40.8981 169.765 40.7834 169.822 40.7069C169.803 40.7069 169.784 40.7069 169.765 40.6878C169.707 40.6687 169.65 40.6495 169.612 40.6495C169.554 40.6304 169.478 40.5922 169.439 40.5539C169.42 40.5348 169.401 40.5348 169.382 40.5157C169.363 40.4965 169.344 40.4583 169.344 40.4201V40.4009C169.344 40.3818 169.363 40.3627 169.382 40.3436C169.401 40.3244 169.42 40.3244 169.439 40.3053C169.478 40.2862 169.516 40.2862 169.516 40.2862C169.516 40.2862 169.631 40.2671 169.765 40.2479C169.898 40.2288 170.07 40.1906 170.204 40.1332C170.396 40.0567 170.606 39.9037 170.702 39.8464C170.663 39.8272 170.625 39.8081 170.587 39.789C170.491 39.7507 170.376 39.6934 170.3 39.6169C170.3 39.6169 170.281 39.5977 170.262 39.5786C170.243 39.5595 170.223 39.5213 170.223 39.483V39.4448C170.243 39.4256 170.243 39.4065 170.262 39.4065C170.281 39.3874 170.3 39.3874 170.319 39.3874C170.357 39.3683 170.396 39.3683 170.396 39.3683C170.396 39.3683 170.434 39.3683 170.472 39.3491C170.529 39.33 170.587 39.33 170.663 39.3109C170.816 39.2727 171.008 39.2153 171.122 39.1579C171.199 39.1197 171.237 39.0814 171.256 39.0432H171.237C171.237 39.0623 171.18 39.0623 171.122 39.0432ZM163.014 40.6495C162.957 40.726 162.918 40.7834 162.899 40.8408C162.918 40.8216 162.937 40.8216 162.957 40.8025C163.09 40.6878 163.224 40.6495 163.32 40.6304C163.32 40.5922 163.339 40.5348 163.339 40.5157V40.4966C163.358 40.4583 163.358 40.4201 163.377 40.4009C163.205 40.4392 163.09 40.5348 163.014 40.6495ZM164.314 41.2232C164.276 41.2424 164.238 41.2806 164.219 41.2997C164.2 41.3189 164.18 41.338 164.161 41.3571C164.142 41.3762 164.142 41.3954 164.123 41.4145C164.123 41.4336 164.104 41.4718 164.104 41.5101C164.104 41.5675 164.123 41.6248 164.161 41.6822C164.2 41.7396 164.276 41.7969 164.391 41.8543C164.486 41.8926 164.563 41.9117 164.639 41.9117C164.773 41.9117 164.85 41.8543 164.907 41.7778C164.945 41.7204 164.984 41.644 165.003 41.5866C164.773 41.491 164.563 41.3571 164.391 41.185C164.391 41.185 164.353 41.2041 164.314 41.2232ZM164.238 40.9746C164.161 40.8599 164.085 40.6878 164.085 40.4583C164.085 40.4201 164.085 40.4009 164.085 40.3627C164.008 40.3627 163.913 40.3436 163.836 40.3436C163.817 40.3436 163.817 40.3436 163.798 40.3436H163.779C163.76 40.3436 163.741 40.3436 163.722 40.3436C163.683 40.3436 163.664 40.3436 163.645 40.3818C163.626 40.4009 163.588 40.4583 163.549 40.573C163.53 40.6304 163.511 40.726 163.511 40.8025C163.511 40.8408 163.511 40.879 163.53 40.8981C163.549 40.9364 163.569 40.9555 163.607 40.9746C163.798 41.0511 163.932 41.0703 164.027 41.0703H164.047C164.066 41.0703 164.123 41.0703 164.142 41.0511C164.219 41.032 164.238 40.9938 164.238 40.9746ZM163.951 41.5866C163.817 41.7587 163.798 41.9499 163.798 42.0647V42.0838C163.798 42.0647 163.817 42.0455 163.836 42.0264C163.875 41.9308 163.932 41.8543 163.989 41.8161C163.97 41.7587 163.951 41.7013 163.951 41.6248C163.932 41.6248 163.951 41.6057 163.951 41.5866ZM155.001 31.2408C155.173 31.3747 155.365 31.4703 155.556 31.5277C155.747 31.585 155.957 31.6042 156.13 31.6042C156.512 31.6042 156.856 31.5277 157.2 31.4703C157.545 31.4129 157.889 31.3556 158.233 31.3556C158.577 31.3556 158.922 31.4321 159.228 31.6615C158.96 31.4129 158.616 31.2791 158.252 31.2217C157.889 31.1643 157.526 31.1834 157.181 31.2026C156.837 31.2217 156.474 31.2408 156.149 31.2026C155.824 31.1643 155.518 31.0496 155.326 30.8392L155.307 30.8201C155.192 30.7245 155.02 30.7436 154.944 30.8584C154.867 30.9731 154.886 31.1452 155.001 31.2408Z" fill="white"/>
<path d="M155.957 67.9386C156.015 67.6327 156.072 67.3076 156.149 67.0207C156.741 67.3458 157.717 67.5179 158.845 67.7092C160.318 67.9769 162.058 68.2829 163.282 69.0096C162.976 68.8948 162.593 68.7609 162.134 68.6271C160.566 68.2064 159.782 68.2446 158.998 68.2637C158.233 68.2829 157.449 68.3211 155.957 67.9386ZM173.474 68.3594C171.887 68.7036 171.065 68.6653 170.262 68.6462C169.439 68.608 168.655 68.5888 167.068 68.9522C166.475 69.086 166.035 69.2008 165.71 69.3346C166.093 69.239 166.59 69.1625 167.24 69.086C168.904 68.9139 169.726 69.0287 170.529 69.1434C171.294 69.2582 172.078 69.3729 173.627 69.2199C173.57 68.9139 173.513 68.6462 173.474 68.3594ZM166.074 68.9904C166.38 68.8757 166.762 68.7418 167.221 68.608C168.789 68.1872 169.573 68.2255 170.357 68.2446C171.103 68.2829 171.887 68.302 173.379 67.9195C173.321 67.6135 173.264 67.2884 173.188 67.0016C172.595 67.3267 171.619 67.4988 170.491 67.69C169.038 67.9578 167.298 68.2637 166.074 68.9904ZM159.094 68.6462C158.29 68.6653 157.468 68.7036 155.881 68.3594C155.824 68.6462 155.785 68.9139 155.747 69.2008C157.296 69.3538 158.08 69.239 158.845 69.1243C159.648 69.0096 160.451 68.8948 162.134 69.0669C162.784 69.1434 163.282 69.2199 163.664 69.3155C163.32 69.2008 162.88 69.0669 162.306 68.9331C160.681 68.5888 159.916 68.608 159.094 68.6462ZM157.87 61.7044L156.244 66.5809C157.602 67.4606 162.612 67.2502 164.506 69.4685V64.2861C164.008 62.0678 159.228 62.5841 157.87 61.7044ZM171.467 61.7044C170.109 62.5841 165.328 62.0678 164.831 64.2861V69.4685C166.705 67.2311 171.715 67.4606 173.092 66.5809L171.467 61.7044Z" fill="white"/>
<path d="M149.207 48.7005L149.436 49.083C149.532 49.236 149.685 49.3316 149.876 49.3316H149.895C149.799 49.5228 149.723 49.7905 149.704 50.1156C149.704 50.173 149.704 50.2304 149.704 50.3069C149.704 50.4599 149.704 50.7085 149.646 50.8232C149.627 50.8614 149.57 50.9188 149.532 50.9762C149.417 51.0909 149.245 51.2822 149.34 51.5499C149.436 51.8176 149.685 51.875 149.838 51.8941C149.895 51.9132 149.972 51.9132 150.01 51.9515C150.125 52.0089 150.258 52.2001 150.354 52.3339C150.392 52.3913 150.431 52.4487 150.469 52.4869C150.698 52.7738 150.928 52.965 151.195 53.0606C151.004 53.1563 150.889 53.3857 150.947 53.6152L151.042 54.0551C151.1 54.2845 151.291 54.4566 151.54 54.4566C151.578 54.4566 151.616 54.4566 151.654 54.4375L152.094 54.3419C152.285 54.3037 152.419 54.1698 152.477 53.9977C152.649 54.1698 152.878 54.3037 153.165 54.4184C153.223 54.4375 153.28 54.4567 153.337 54.4758C153.49 54.5331 153.72 54.5905 153.815 54.6861C153.854 54.7244 153.892 54.7817 153.911 54.8391C153.987 54.973 154.121 55.2025 154.408 55.2025C154.695 55.2025 154.829 54.973 154.905 54.8391C154.944 54.7817 154.963 54.7244 155.001 54.6861C155.078 54.5905 155.326 54.514 155.479 54.4758C155.536 54.4567 155.613 54.4375 155.651 54.4184C155.995 54.2845 156.244 54.1316 156.416 53.9212C156.435 53.9977 156.474 54.0742 156.512 54.1507C156.588 54.2463 156.722 54.3228 156.856 54.3419L157.296 54.3802C157.315 54.3802 157.334 54.3802 157.353 54.3802C157.621 54.3802 157.831 54.1889 157.85 53.9212L157.889 53.4814C157.908 53.3475 157.87 53.2136 157.774 53.118C157.736 53.0798 157.717 53.0415 157.678 53.0224C157.889 52.9077 158.099 52.7355 158.29 52.4869C158.328 52.4487 158.367 52.3913 158.405 52.3339C158.501 52.2001 158.634 52.0089 158.749 51.9515C158.807 51.9324 158.864 51.9132 158.921 51.8941C159.074 51.8559 159.342 51.7985 159.419 51.5308C159.495 51.263 159.323 51.0718 159.227 50.9571C159.189 50.8997 159.132 50.8614 159.113 50.8041C159.055 50.6893 159.055 50.4599 159.055 50.2877C159.055 50.2113 159.055 50.1539 159.055 50.0965C159.036 49.6949 158.94 49.4081 158.807 49.2168C158.826 49.2168 158.845 49.2168 158.864 49.2168C159.055 49.2168 159.246 49.1021 159.323 48.9109L159.495 48.5093C159.552 48.3945 159.552 48.2415 159.495 48.1268C159.438 47.9929 159.361 47.8973 159.227 47.8399L158.826 47.6678C158.768 47.6487 158.692 47.6296 158.615 47.6296C158.501 47.6296 158.405 47.6678 158.309 47.7252C158.271 47.4957 158.176 47.228 158.003 46.9794C157.965 46.922 157.927 46.8838 157.889 46.8264C157.793 46.6925 157.64 46.5013 157.64 46.3866C157.64 46.3292 157.64 46.2718 157.64 46.1953C157.659 46.0423 157.678 45.7746 157.468 45.6025C157.391 45.5451 157.296 45.5069 157.2 45.5069C157.066 45.5069 156.971 45.5451 156.856 45.6025C156.799 45.6216 156.741 45.6599 156.684 45.6599C156.665 45.6599 156.646 45.6599 156.627 45.6599C156.493 45.6599 156.321 45.6025 156.168 45.5451C156.11 45.526 156.053 45.5069 155.995 45.4878C155.785 45.4304 155.594 45.3922 155.422 45.3922C155.326 45.3922 155.192 45.4113 155.078 45.4304C155.116 45.3539 155.135 45.2774 155.135 45.1818C155.135 45.0479 155.078 44.9332 154.963 44.8376L154.638 44.5316C154.542 44.4551 154.427 44.3977 154.293 44.3977C154.16 44.3977 154.007 44.4551 153.911 44.5698L153.605 44.8949C153.471 45.0288 153.452 45.2392 153.509 45.3922C153.414 45.373 153.337 45.373 153.261 45.373C153.089 45.373 152.897 45.4113 152.687 45.4686C152.63 45.4878 152.572 45.5069 152.515 45.526C152.362 45.5834 152.19 45.6408 152.056 45.6408C152.037 45.6408 152.018 45.6408 151.999 45.6408C151.941 45.6216 151.884 45.6025 151.827 45.5834C151.731 45.5451 151.616 45.4878 151.482 45.4878C151.387 45.4878 151.291 45.526 151.215 45.5834C150.985 45.7555 151.023 46.0041 151.023 46.1762C151.023 46.2336 151.042 46.3101 151.042 46.3674C151.023 46.4822 150.889 46.6925 150.794 46.8073C150.756 46.8647 150.717 46.9029 150.679 46.9603C150.469 47.2662 150.373 47.5531 150.354 47.8208C150.258 47.7252 150.144 47.687 150.01 47.687C149.914 47.687 149.838 47.7061 149.761 47.7635L149.379 47.9929C149.264 48.0694 149.188 48.165 149.149 48.2989C149.13 48.4519 149.149 48.5858 149.207 48.7005Z" fill="white"/>
<path d="M154.332 47.7252C154.829 47.7252 155.25 48.0886 155.345 48.5475C155.384 48.5475 155.441 48.5475 155.479 48.5475C155.919 48.5475 156.321 48.8344 156.454 49.2551C156.607 49.7332 156.397 50.2304 155.976 50.479C156.072 50.6702 156.091 50.8806 156.072 51.0909C156.034 51.3587 155.881 51.6073 155.651 51.7603C155.479 51.8941 155.269 51.9515 155.039 51.9515C154.772 51.9515 154.523 51.8559 154.351 51.6838C154.16 51.8559 153.911 51.9706 153.643 51.9706C153.433 51.9706 153.223 51.8941 153.031 51.7794C152.63 51.4925 152.496 50.9571 152.706 50.5172C152.515 50.4216 152.381 50.2686 152.286 50.0774C152.152 49.8288 152.133 49.5611 152.228 49.2933C152.362 48.8726 152.764 48.5858 153.204 48.5858C153.242 48.5858 153.28 48.5858 153.318 48.5858C153.357 48.3754 153.452 48.1842 153.605 48.0503C153.796 47.8208 154.064 47.7252 154.332 47.7252Z" fill="white"/>
<path d="M154.465 47.7252C154.905 47.7826 155.249 48.1077 155.345 48.5475C155.383 48.5475 155.441 48.5475 155.479 48.5475C155.881 48.5475 156.244 48.777 156.416 49.1404C156.76 49.0447 157.066 48.8918 157.257 48.7961C158.08 48.3945 158.137 47.8591 157.697 47.2089C157.563 47.0177 157.296 46.7308 157.257 46.4248C157.238 46.2145 157.315 45.985 157.238 45.9276C157.162 45.8703 156.971 46.0232 156.76 46.0615C156.473 46.1189 156.11 45.9467 155.881 45.8894C155.135 45.679 154.657 45.9085 154.523 46.8073C154.504 47.0177 154.446 47.3619 154.465 47.7252ZM154.255 45.832C154.293 45.8703 154.37 45.8703 154.408 45.832L154.695 45.3539C154.733 45.3157 154.733 45.2392 154.695 45.2009L154.37 44.895C154.332 44.8567 154.255 44.8567 154.217 44.895L153.911 45.2201C153.873 45.2583 153.873 45.3348 153.911 45.373L154.255 45.832ZM151.463 48.7961C151.654 48.8918 151.941 49.0447 152.285 49.1212C152.457 48.777 152.821 48.5475 153.203 48.5475C153.241 48.5475 153.28 48.5475 153.318 48.5475C153.356 48.3372 153.452 48.1459 153.605 47.9929C153.777 47.8208 154.006 47.7061 154.255 47.687C154.274 47.3236 154.217 46.9985 154.198 46.7882C154.064 45.8894 153.567 45.6599 152.84 45.8703C152.61 45.9276 152.247 46.0997 151.96 46.0424C151.75 46.0041 151.559 45.8511 151.482 45.9085C151.406 45.9659 151.482 46.1953 151.463 46.4057C151.425 46.6926 151.157 46.9985 151.023 47.1898C150.602 47.8591 150.66 48.3945 151.463 48.7961ZM149.551 48.5093L149.78 48.8918C149.818 48.9491 149.876 48.9682 149.933 48.93L150.449 48.7388C150.507 48.7005 150.526 48.6431 150.488 48.5858L150.124 48.1651C150.086 48.1077 150.029 48.0886 149.971 48.1268L149.589 48.3563C149.532 48.3754 149.512 48.4519 149.551 48.5093ZM158.29 48.7005L158.826 48.8344C158.883 48.8535 158.94 48.8344 158.978 48.777L159.151 48.3754C159.17 48.318 159.151 48.2607 159.093 48.2224L158.692 48.0503C158.634 48.0312 158.577 48.0503 158.539 48.1077L158.233 48.5667C158.194 48.6049 158.233 48.6814 158.29 48.7005ZM152.037 53.271C152.018 53.2136 151.96 53.1754 151.903 53.1754L151.406 53.4049C151.348 53.424 151.31 53.4814 151.31 53.5387L151.406 53.9786C151.425 54.0359 151.482 54.0742 151.539 54.0742L151.979 53.9786C152.037 53.9595 152.075 53.9021 152.075 53.8447L152.037 53.271ZM158.653 50.1348C158.615 49.3698 158.252 48.9682 157.372 49.1212C157.162 49.1595 156.837 49.2168 156.492 49.3316C156.607 49.7714 156.397 50.2495 155.995 50.4599C156.091 50.6511 156.11 50.8615 156.091 51.0718C156.053 51.3013 155.938 51.5117 155.785 51.6646C155.976 51.9515 156.206 52.1619 156.339 52.3148C156.971 52.965 157.506 52.8503 157.984 52.2575C158.118 52.0854 158.328 51.722 158.596 51.6073C158.806 51.5117 159.036 51.5308 159.055 51.4352C159.093 51.3395 158.883 51.2057 158.768 51.0336C158.615 50.7658 158.653 50.3643 158.653 50.1348ZM152.725 50.4981C152.534 50.4025 152.4 50.2495 152.304 50.0583C152.19 49.8288 152.151 49.5802 152.228 49.3316C151.903 49.2168 151.597 49.1595 151.387 49.1212C150.488 48.9682 150.124 49.3698 150.105 50.1348C150.105 50.3643 150.143 50.7658 149.99 51.0144C149.876 51.2057 149.685 51.3395 149.704 51.416C149.742 51.5117 149.971 51.4925 150.163 51.5882C150.43 51.7029 150.622 52.0662 150.775 52.2383C151.253 52.8503 151.788 52.9459 152.419 52.2957C152.553 52.1619 152.783 51.9324 152.974 51.6646C152.63 51.3778 152.534 50.8997 152.725 50.4981ZM157.391 53.3093L156.856 53.1563C156.798 53.1563 156.741 53.1945 156.722 53.2519L156.76 53.8065C156.76 53.8638 156.798 53.9212 156.856 53.9403L157.296 53.9786C157.353 53.9786 157.41 53.9403 157.41 53.883L157.449 53.4431C157.487 53.3666 157.449 53.3284 157.391 53.3093ZM156.053 52.5252C156.473 53.3284 156.206 53.8065 155.479 54.0742C155.269 54.1507 154.867 54.2272 154.676 54.4567C154.523 54.6288 154.465 54.8583 154.37 54.8583C154.274 54.8583 154.217 54.6288 154.064 54.4567C153.873 54.2463 153.471 54.1507 153.261 54.0742C152.534 53.8065 152.266 53.3475 152.687 52.5252C152.783 52.3531 152.916 52.0854 153.108 51.8176C153.261 51.9132 153.452 51.9706 153.643 51.9706C153.911 51.9706 154.159 51.875 154.351 51.6838C154.542 51.8559 154.79 51.9515 155.039 51.9515C155.23 51.9515 155.422 51.8941 155.575 51.7985C155.823 52.0662 155.957 52.334 156.053 52.5252Z" fill="#B5121B"/>
<path d="M153.012 50.2113C153.07 50.2304 153.127 50.2304 153.184 50.2495C153.223 50.2495 153.242 50.2686 153.261 50.2878C153.299 50.3451 153.28 50.4025 153.242 50.4407C153.203 50.479 153.165 50.5172 153.127 50.5555C152.917 50.8423 152.974 51.2439 153.261 51.4543C153.548 51.6646 153.949 51.6073 154.16 51.3204C154.198 51.2822 154.217 51.2248 154.236 51.1674C154.255 51.1292 154.274 51.1101 154.313 51.1101C154.37 51.0909 154.427 51.1101 154.447 51.1674C154.466 51.2057 154.485 51.263 154.523 51.3013C154.733 51.5881 155.135 51.6455 155.422 51.4352C155.709 51.2248 155.766 50.8232 155.556 50.5364C155.517 50.4981 155.479 50.4407 155.441 50.4025C155.422 50.3834 155.403 50.3451 155.403 50.3069C155.403 50.2495 155.441 50.1921 155.498 50.1921C155.556 50.1921 155.594 50.173 155.651 50.1539C155.996 50.0392 156.168 49.6758 156.072 49.3507C155.957 49.0065 155.594 48.8344 155.269 48.93C155.211 48.9491 155.154 48.9682 155.116 49.0065C155.097 49.0256 155.058 49.0256 155.02 49.0256C154.963 49.0065 154.925 48.9491 154.944 48.8917C154.963 48.8344 154.963 48.7961 154.963 48.7388C154.963 48.3754 154.676 48.0886 154.313 48.0886C153.949 48.0886 153.662 48.3754 153.662 48.7388C153.662 48.7961 153.662 48.8535 153.682 48.9109C153.682 48.9491 153.682 48.9682 153.662 49.0065C153.624 49.0639 153.567 49.0639 153.509 49.0447C153.471 49.0256 153.414 48.9874 153.376 48.9874C153.031 48.8726 152.668 49.0639 152.572 49.4081C152.477 49.7332 152.668 50.0965 153.012 50.2113Z" fill="#B5121B"/>
<path d="M153.796 49.9435C153.796 49.6567 154.026 49.4463 154.294 49.4463C154.58 49.4463 154.791 49.6758 154.791 49.9435C154.791 50.2304 154.561 50.4407 154.294 50.4407C154.026 50.4407 153.796 50.2304 153.796 49.9435Z" fill="white"/>
<path d="M180.129 48.7005L179.9 49.083C179.804 49.236 179.651 49.3316 179.46 49.3316H179.441C179.536 49.5228 179.613 49.7905 179.632 50.1156C179.632 50.173 179.632 50.2304 179.632 50.3069C179.632 50.4599 179.632 50.7085 179.689 50.8232C179.709 50.8614 179.766 50.9188 179.804 50.9762C179.919 51.0909 180.091 51.2822 179.995 51.5499C179.9 51.8176 179.651 51.875 179.498 51.8941C179.441 51.9132 179.364 51.9132 179.326 51.9515C179.211 52.0089 179.077 52.2001 178.982 52.3339C178.944 52.3913 178.905 52.4487 178.867 52.4869C178.638 52.7738 178.408 52.965 178.14 53.0606C178.332 53.1563 178.446 53.3857 178.389 53.6152L178.293 54.0551C178.236 54.2845 178.045 54.4566 177.796 54.4566C177.758 54.4566 177.72 54.4566 177.681 54.4375L177.242 54.3419C177.05 54.3037 176.917 54.1698 176.859 53.9977C176.687 54.1698 176.458 54.3037 176.171 54.4184C176.113 54.4375 176.056 54.4567 175.999 54.4758C175.846 54.5331 175.616 54.5905 175.521 54.6861C175.482 54.7244 175.444 54.7817 175.425 54.8391C175.348 54.973 175.215 55.2025 174.928 55.2025C174.641 55.2025 174.507 54.973 174.43 54.8391C174.392 54.7817 174.373 54.7244 174.335 54.6861C174.258 54.5905 174.01 54.514 173.857 54.4758C173.799 54.4567 173.723 54.4375 173.685 54.4184C173.34 54.2845 173.092 54.1316 172.92 53.9212C172.901 53.9977 172.862 54.0742 172.824 54.1507C172.748 54.2463 172.614 54.3228 172.48 54.3419L172.04 54.3802C172.021 54.3802 172.002 54.3802 171.983 54.3802C171.715 54.3802 171.505 54.1889 171.485 53.9212L171.447 53.4814C171.428 53.3475 171.466 53.2136 171.562 53.118C171.6 53.0798 171.619 53.0415 171.658 53.0224C171.447 52.9077 171.237 52.7355 171.046 52.4869C171.007 52.4487 170.969 52.3913 170.931 52.3339C170.835 52.2001 170.701 52.0089 170.587 51.9515C170.529 51.9324 170.472 51.9132 170.415 51.8941C170.262 51.8559 169.994 51.7985 169.917 51.5308C169.841 51.263 170.013 51.0718 170.109 50.9571C170.147 50.8997 170.204 50.8614 170.223 50.8041C170.281 50.6893 170.281 50.4599 170.281 50.2877C170.281 50.2113 170.281 50.1539 170.281 50.0965C170.3 49.6949 170.395 49.4081 170.529 49.2168C170.51 49.2168 170.491 49.2168 170.472 49.2168C170.281 49.2168 170.089 49.1021 170.013 48.9109L169.841 48.5093C169.784 48.3945 169.784 48.2415 169.841 48.1268C169.898 47.9929 169.975 47.8973 170.109 47.8399L170.51 47.6678C170.568 47.6487 170.644 47.6296 170.721 47.6296C170.835 47.6296 170.931 47.6678 171.027 47.7252C171.065 47.4957 171.16 47.228 171.333 46.9794C171.371 46.922 171.409 46.8838 171.447 46.8264C171.543 46.6925 171.696 46.5013 171.696 46.3866C171.696 46.3292 171.696 46.2718 171.696 46.1953C171.677 46.0423 171.658 45.7746 171.868 45.6025C171.944 45.5451 172.04 45.5069 172.136 45.5069C172.27 45.5069 172.365 45.5451 172.48 45.6025C172.537 45.6216 172.595 45.6599 172.652 45.6599C172.671 45.6599 172.69 45.6599 172.709 45.6599C172.843 45.6599 173.015 45.6025 173.168 45.5451C173.226 45.526 173.283 45.5069 173.34 45.4878C173.551 45.4304 173.742 45.3922 173.914 45.3922C174.01 45.3922 174.144 45.4113 174.258 45.4304C174.22 45.3539 174.201 45.2774 174.201 45.1818C174.201 45.0479 174.258 44.9332 174.373 44.8376L174.698 44.5316C174.794 44.4551 174.909 44.3977 175.042 44.3977C175.176 44.3977 175.329 44.4551 175.425 44.5698L175.731 44.8949C175.865 45.0288 175.884 45.2392 175.827 45.3922C175.922 45.373 175.999 45.373 176.075 45.373C176.247 45.373 176.438 45.4113 176.649 45.4686C176.706 45.4878 176.764 45.5069 176.821 45.526C176.974 45.5834 177.146 45.6408 177.28 45.6408C177.299 45.6408 177.318 45.6408 177.337 45.6408C177.395 45.6216 177.452 45.6025 177.509 45.5834C177.605 45.5451 177.72 45.4878 177.854 45.4878C177.949 45.4878 178.045 45.526 178.121 45.5834C178.351 45.7555 178.313 46.0041 178.313 46.1762C178.313 46.2336 178.293 46.3101 178.293 46.3674C178.313 46.4822 178.446 46.6925 178.542 46.8073C178.58 46.8647 178.619 46.9029 178.657 46.9603C178.867 47.2662 178.963 47.5531 178.982 47.8208C179.077 47.7252 179.192 47.687 179.326 47.687C179.422 47.687 179.498 47.7061 179.575 47.7635L179.957 47.9929C180.072 48.0694 180.148 48.165 180.187 48.2989C180.206 48.4519 180.187 48.5858 180.129 48.7005Z" fill="white"/>
<path d="M175.004 47.7252C174.507 47.7252 174.086 48.0886 173.991 48.5475C173.952 48.5475 173.895 48.5475 173.857 48.5475C173.417 48.5475 173.015 48.8344 172.881 49.2551C172.728 49.7332 172.939 50.2304 173.359 50.479C173.264 50.6702 173.245 50.8806 173.264 51.0909C173.302 51.3587 173.455 51.6073 173.685 51.7603C173.857 51.8941 174.067 51.9515 174.297 51.9515C174.564 51.9515 174.813 51.8559 174.985 51.6838C175.176 51.8559 175.425 51.9706 175.693 51.9706C175.903 51.9706 176.113 51.8941 176.304 51.7794C176.706 51.4925 176.84 50.9571 176.63 50.5172C176.821 50.4216 176.955 50.2686 177.05 50.0774C177.184 49.8288 177.203 49.5611 177.108 49.2933C176.974 48.8726 176.572 48.5858 176.132 48.5858C176.094 48.5858 176.056 48.5858 176.018 48.5858C175.979 48.3754 175.884 48.1842 175.731 48.0503C175.54 47.8208 175.272 47.7252 175.004 47.7252Z" fill="white"/>
<path d="M174.87 47.7252C174.889 47.3619 174.832 47.0177 174.813 46.8073C174.679 45.9085 174.182 45.679 173.455 45.8894C173.226 45.9467 172.862 46.1189 172.575 46.0615C172.365 46.0232 172.174 45.8702 172.097 45.9276C172.021 45.985 172.097 46.2145 172.078 46.4248C172.04 46.7117 171.772 47.0177 171.638 47.2089C171.218 47.84 171.275 48.3754 172.078 48.7961C172.269 48.8917 172.575 49.0447 172.92 49.1404C173.092 48.777 173.455 48.5475 173.857 48.5475C173.895 48.5475 173.952 48.5475 173.99 48.5475C174.067 48.1268 174.43 47.7826 174.87 47.7252ZM175.406 45.3922C175.444 45.3539 175.463 45.2774 175.406 45.2392L175.1 44.9141C175.061 44.8758 174.985 44.8567 174.947 44.9141L174.622 45.2201C174.583 45.2583 174.564 45.3348 174.622 45.373L174.908 45.8511C174.947 45.8894 175.023 45.9085 175.061 45.8511L175.406 45.3922ZM177.873 48.7961C178.695 48.3945 178.752 47.8591 178.312 47.2089C178.178 47.0177 177.911 46.7308 177.873 46.4248C177.853 46.2145 177.93 45.985 177.853 45.9276C177.777 45.8702 177.586 46.0232 177.375 46.0615C177.088 46.1189 176.725 45.9467 176.496 45.8894C175.75 45.679 175.272 45.9085 175.138 46.8073C175.1 47.0177 175.061 47.3427 175.08 47.7061C175.329 47.7252 175.559 47.8208 175.731 48.0121C175.884 48.1651 175.979 48.3563 176.018 48.5666C176.056 48.5666 176.094 48.5666 176.132 48.5666C176.534 48.5666 176.878 48.7961 177.05 49.1404C177.394 49.0447 177.681 48.8917 177.873 48.7961ZM179.785 48.5093C179.823 48.4519 179.804 48.3945 179.747 48.3563L179.364 48.1268C179.307 48.0886 179.249 48.1077 179.211 48.1651L178.848 48.5858C178.81 48.6431 178.829 48.7005 178.886 48.7388L179.402 48.93C179.46 48.9682 179.517 48.9491 179.555 48.8917L179.785 48.5093ZM171.045 48.7005C171.103 48.6814 171.122 48.6049 171.103 48.5475L170.797 48.0886C170.778 48.0312 170.701 48.0121 170.644 48.0312L170.242 48.2033C170.185 48.2224 170.166 48.2989 170.185 48.3563L170.357 48.7579C170.376 48.8153 170.453 48.8344 170.51 48.8153L171.045 48.7005ZM177.261 53.8256C177.241 53.883 177.28 53.9403 177.356 53.9594L177.796 54.0551C177.853 54.0742 177.911 54.0359 177.93 53.9594L178.026 53.5196C178.045 53.4622 178.006 53.4049 177.93 53.3857L177.414 53.1754C177.356 53.1563 177.299 53.1945 177.28 53.271L177.261 53.8256ZM170.682 50.1348C170.682 50.3642 170.72 50.7658 170.567 51.0144C170.453 51.2057 170.261 51.3395 170.281 51.416C170.319 51.5117 170.548 51.4925 170.739 51.5881C171.007 51.7029 171.198 52.0662 171.351 52.2383C171.83 52.8503 172.365 52.9459 172.996 52.2957C173.13 52.1618 173.359 51.9324 173.551 51.6455C173.379 51.4925 173.283 51.2822 173.245 51.0527C173.206 50.8423 173.245 50.632 173.34 50.4407C172.939 50.2113 172.747 49.7523 172.843 49.3125C172.499 49.1786 172.174 49.1212 171.963 49.1021C171.065 48.9682 170.701 49.3698 170.682 50.1348ZM176.61 50.4981C176.802 50.8997 176.706 51.3778 176.381 51.6838C176.572 51.9515 176.782 52.181 176.935 52.3148C177.567 52.965 178.102 52.8503 178.58 52.2575C178.714 52.0854 178.924 51.722 179.192 51.6073C179.402 51.5117 179.632 51.5308 179.651 51.4352C179.689 51.3395 179.479 51.2057 179.364 51.0336C179.211 50.785 179.269 50.3834 179.249 50.1539C179.211 49.389 178.848 48.9874 177.968 49.1404C177.777 49.1786 177.452 49.2168 177.127 49.3507C177.184 49.5993 177.165 49.8479 177.05 50.0774C176.955 50.2495 176.802 50.4025 176.61 50.4981ZM171.944 53.3093C171.887 53.3093 171.83 53.3666 171.849 53.424L171.887 53.8638C171.887 53.9212 171.944 53.9786 172.002 53.9594L172.441 53.9212C172.499 53.9212 172.556 53.8638 172.537 53.7873L172.575 53.2328C172.575 53.1754 172.518 53.118 172.441 53.1371L171.944 53.3093ZM173.283 52.5252C173.379 52.3531 173.512 52.0662 173.723 51.7985C173.895 51.8941 174.067 51.9515 174.258 51.9515C174.526 51.9515 174.775 51.8559 174.947 51.6838C175.138 51.8559 175.386 51.9706 175.654 51.9706C175.845 51.9706 176.018 51.9132 176.19 51.8176C176.381 52.0854 176.534 52.3531 176.61 52.5252C177.031 53.3284 176.763 53.8065 176.037 54.0742C175.826 54.1507 175.425 54.2272 175.233 54.4567C175.08 54.6288 175.023 54.8583 174.928 54.8583C174.832 54.8583 174.775 54.6288 174.622 54.4567C174.43 54.2463 174.029 54.1507 173.818 54.0742C173.13 53.7873 172.862 53.3284 173.283 52.5252Z" fill="#B5121B"/>
<path d="M176.324 50.2113C176.266 50.2304 176.209 50.2304 176.152 50.2495C176.113 50.2495 176.094 50.2686 176.075 50.2878C176.037 50.3451 176.056 50.4025 176.094 50.4407C176.132 50.479 176.171 50.5172 176.209 50.5555C176.419 50.8423 176.362 51.2439 176.075 51.4543C175.788 51.6646 175.387 51.6073 175.176 51.3204C175.138 51.2822 175.119 51.2248 175.1 51.1674C175.081 51.1292 175.062 51.1101 175.023 51.1101C174.966 51.0909 174.909 51.1101 174.889 51.1674C174.87 51.2057 174.851 51.263 174.813 51.3013C174.603 51.5881 174.201 51.6455 173.914 51.4352C173.627 51.2248 173.57 50.8232 173.78 50.5364C173.819 50.4981 173.857 50.4407 173.895 50.4025C173.914 50.3834 173.933 50.3451 173.933 50.3069C173.933 50.2495 173.895 50.1921 173.838 50.1921C173.78 50.1921 173.742 50.173 173.685 50.1539C173.34 50.0392 173.168 49.6758 173.264 49.3507C173.379 49.0065 173.742 48.8344 174.067 48.93C174.125 48.9491 174.182 48.9682 174.22 49.0065C174.239 49.0256 174.278 49.0256 174.316 49.0256C174.373 49.0065 174.411 48.9491 174.392 48.8917C174.373 48.8344 174.373 48.7961 174.373 48.7388C174.373 48.3754 174.66 48.0886 175.023 48.0886C175.387 48.0886 175.674 48.3754 175.674 48.7388C175.674 48.7961 175.674 48.8535 175.654 48.9109C175.654 48.9491 175.654 48.9682 175.674 49.0065C175.712 49.0639 175.769 49.0639 175.827 49.0447C175.865 49.0256 175.922 48.9874 175.96 48.9874C176.305 48.8726 176.668 49.0639 176.764 49.4081C176.84 49.7332 176.668 50.0965 176.324 50.2113Z" fill="#B5121B"/>
<path d="M175.52 49.9435C175.52 49.6567 175.291 49.4463 175.023 49.4463C174.736 49.4463 174.526 49.6758 174.526 49.9435C174.526 50.2304 174.755 50.4407 175.023 50.4407C175.31 50.4407 175.52 50.2304 175.52 49.9435Z" fill="white"/>
<path d="M72.2541 38.8137C72.2541 36.7866 72.8469 34.9316 74.3003 33.746C75.4095 32.8472 76.9393 32.35 78.4692 32.35C79.9417 32.35 81.2421 32.8089 82.2556 33.4974C82.2556 33.4974 83.6134 34.3388 83.6134 35.8113C83.6134 36.538 83.0397 37.1308 82.3321 37.1308C81.6246 37.1308 81.1082 36.5763 81.1465 35.8113C81.1656 35.448 81.223 34.8551 80.9935 34.3962C80.4007 33.1914 78.7178 33.2488 78.7178 33.2488C76.2509 33.2488 75.18 35.7157 75.18 38.7563C75.18 42.7914 77.3983 44.2639 79.2915 44.2639C79.2915 44.2639 81.4333 44.3021 83.2692 41.8926L84.0341 42.3898C82.8867 44.13 80.917 45.2965 78.6796 45.2965C75.1226 45.2583 72.2541 42.3706 72.2541 38.8137ZM77.3409 51.5881H72.4262V52.2383L74.2621 52.7355L71.3362 60.9012L68.3147 52.7164L70.0358 52.2574V51.5499H64.3561V52.2383L65.8478 52.659L70.0167 62.9666H71.3744L75.7346 52.6973L77.3792 52.2574V51.5881H77.3409ZM41.3889 48.2033V48.1842L43.4734 47.6296V46.8264H37.7937V47.5531L40.0503 48.1459V58.5682C40.0503 58.5682 40.2224 62.0678 35.5945 62.0678C30.9858 62.0678 30.9858 59.0271 30.9858 58.5682C30.9858 58.1475 30.9858 49.8097 30.9858 48.165L33.2806 47.534V46.8264H26.3962V47.5531L28.6336 48.1459V58.3961C28.6336 58.3961 28.2511 63.2534 35.1929 63.2534C41.7905 63.2534 41.3698 58.6829 41.3698 58.6829V48.2033H41.3889ZM132.78 52.2383L134.788 52.7929L131.785 60.7674L128.534 52.6973L130.179 52.2383V51.5499H124.633V52.2766L126.163 52.6973L130.638 63.7315C130.351 64.2669 130.064 64.8215 129.777 65.357C129.433 66.0072 128.726 67.059 127.903 67.1355C127.157 67.212 126.947 66.294 126.354 65.9689C125.283 65.3761 124.27 66.8104 124.996 67.7283C125.36 68.1681 125.972 68.4359 126.526 68.4741C127.138 68.5123 127.769 68.3976 128.324 68.149C128.63 68.0151 128.936 67.8239 129.184 67.5944C129.701 67.1355 130.083 66.5618 130.408 65.9498C130.944 64.9363 131.441 63.9419 131.881 62.9092C132.263 62.0104 132.627 61.1116 133.009 60.2128C133.468 59.1228 133.927 58.0327 134.386 56.9427C134.788 56.0056 135.17 55.0495 135.572 54.1124C135.763 53.6535 135.954 53.1945 136.145 52.7547C136.145 52.7355 136.145 52.7355 136.165 52.7164L137.79 52.2766V51.5499H132.741V52.2383H132.78ZM41.5801 39.5404L40.9682 39.3109L40.8535 39.2535C39.1515 42.2177 35.7666 44.0153 33.5292 44.0153C33.5292 44.0153 31.1961 44.13 31.1961 42.0455V28.8313L33.4336 28.2002L33.4527 27.6265H26.377V28.2958L28.4997 28.8504V43.5563L26.3579 44.13V44.9906H39.5339L41.5801 39.5404ZM58.3705 43.5372L56.2478 44.2256V44.9906H62.9601V44.2256L60.8183 43.5372V35.7348V35.7157C61.4111 35.2567 62.0422 34.836 62.7115 34.4727C63.5338 34.0328 64.6239 33.5165 65.58 33.6695C66.0772 33.746 66.6318 34.0902 66.9187 34.4918C67.3585 35.0846 67.5115 35.9069 67.5115 36.6336L67.4924 43.4989C67.4924 43.4416 67.4924 43.5563 67.4924 43.5563L65.3697 44.2065V44.9906H72.1394V44.2256L70.0358 43.5372V35.6966C70.0358 34.8169 69.7298 34.0137 69.0605 33.44C68.3529 32.8472 67.4541 32.5412 66.5362 32.4265C64.8916 32.2352 63.3043 32.8089 61.9466 33.6886C61.5641 33.9372 61.1816 34.2049 60.7992 34.4918V32.6368H59.9004L56.1331 33.6312V34.3771H58.3514V43.5372H58.3705ZM67.4924 43.4798C67.4924 43.4798 67.4924 43.4989 67.4924 43.518V43.4798ZM53.3028 61.5705C53.3028 61.5705 53.3028 61.5897 53.3028 61.6088V61.5705ZM55.6359 61.5897V54.3993C55.6359 53.5961 55.3681 52.8503 54.7371 52.3339C54.0869 51.7794 53.2454 51.5116 52.4231 51.416C50.9124 51.2439 49.459 51.7602 48.216 52.5825C47.8526 52.812 47.5084 53.0606 47.1642 53.3092V51.6073H46.3419L42.8805 52.5252V53.2136H44.9076V61.6088L42.957 62.2399V62.9474H49.1339V62.2399L47.1642 61.6088V54.4375V54.4184C47.6996 53.9977 48.2925 53.5961 48.9044 53.2901C49.6693 52.8885 50.6446 52.4104 51.5434 52.5443C51.9833 52.6208 52.4996 52.9268 52.7673 53.2901C53.1689 53.8447 53.3028 54.5905 53.3028 55.2598V61.5514C53.3028 61.5132 53.3028 61.6088 53.3028 61.6088L51.3522 62.2207V62.9283H57.5673V62.2016L55.6359 61.5897ZM104.764 37.2264C102.871 36.8631 101.341 36.3659 101.341 35.1037C101.341 33.5739 103.177 33.44 103.942 33.4783C107.441 33.6121 108.397 36.538 108.397 36.538H109.181L108.378 32.656H107.671L107.422 33.4974C106.81 33.0958 105.529 32.3882 103.999 32.3882C100.92 32.3882 99.1416 34.1858 99.1416 36.1555C99.1416 38.1252 101.666 38.9476 103.578 39.5021C105.433 40.0376 107.9 40.1332 107.9 41.9691C107.9 44.2065 104.86 44.1491 104.86 44.1491C100.729 44.1491 99.6579 40.4774 99.6579 40.4774H98.8165L99.6388 44.9906H100.461L100.767 43.977C100.767 43.977 102.832 45.1818 104.993 45.1818C108.072 45.1818 110.157 43.1738 110.157 41.032C110.118 38.1252 106.734 37.6089 104.764 37.2264ZM121.956 62.2016C120.981 62.2016 120.311 61.4367 120.177 60.6335C120.12 60.2893 120.139 59.6773 120.139 59.1228V52.2957H123.505V51.5499H120.139V47.2089H119.087C119.087 47.2089 119.145 49.1403 118.189 50.5172C117.462 51.569 115.989 51.6264 115.989 51.6264V52.3531H117.844V59.314C117.844 59.8686 117.844 60.3849 117.844 60.7291C117.844 62.259 119.336 63.1387 121.019 63.1387C123.18 63.1387 124.059 62.2016 124.633 61.5897L124.04 61.0925C123.371 61.6662 122.778 62.2016 121.956 62.2016ZM112.146 40.9938C112.146 41.5866 112.146 42.1603 112.146 42.5236C112.146 44.1874 113.752 45.1435 115.569 45.1435C117.691 45.1435 118.667 44.3021 119.298 43.6519C119.126 43.4224 118.953 43.193 118.8 42.9635C118.093 43.5563 117.462 44.1109 116.582 44.1109C115.511 44.1109 114.804 43.2886 114.67 42.428C114.612 42.0647 114.632 41.3954 114.632 40.7834V33.44H118.284V32.5986H114.632V27.9133H113.465C113.465 27.9133 113.522 29.9978 112.49 31.4894C111.706 32.6177 110.118 32.6751 110.118 32.6751V33.4591H112.126V40.9938H112.146ZM118.762 38.8137C118.762 36.691 119.623 34.7022 121.21 33.5548C122.243 32.7898 123.486 32.4456 124.863 32.4456C127.903 32.4456 130.198 34.5109 130.37 37.6472H121.42C121.42 37.6472 120.483 44.0535 125.532 44.0535C125.532 44.0535 128.171 44.1682 129.452 41.7396L130.236 42.122C129.605 43.9196 127.463 45.1818 125.188 45.1818C121.688 45.1818 118.762 42.3324 118.762 38.8137ZM121.497 36.5571H127.693C127.597 34.6257 126.373 33.3635 124.652 33.3635C123.256 33.3635 121.497 34.1858 121.497 36.5571ZM79.6166 56.1969C79.6166 56.1969 78.7561 62.106 83.4222 62.106C83.4222 62.106 85.8508 62.2016 87.0365 59.9642L87.7632 60.3084C87.1704 61.9721 85.2006 63.1387 83.0971 63.1387C79.8843 63.1387 77.1879 60.4996 77.1879 57.2487C77.1879 55.2789 77.972 53.4622 79.4445 52.3913C80.4007 51.6837 81.5289 51.3586 82.8102 51.3586C85.6214 51.3586 87.7249 53.271 87.897 56.1777H79.6166V56.1969ZM79.6931 55.2025H85.4301C85.3345 53.424 84.2062 52.2574 82.619 52.2574C81.3377 52.2574 79.6931 53.0033 79.6931 55.2025ZM140.582 32.4838C140.563 32.4838 140.563 32.4838 140.544 32.4647C140.525 32.4647 140.525 32.4647 140.506 32.4647C137.924 31.891 135.916 34.0137 135.495 34.53V32.6751H134.482L130.791 33.6695V34.4153H133.009V43.6902L130.867 44.2639V44.9906H137.79V44.2639L135.495 43.671V35.6583C135.648 35.5053 136.815 34.2814 137.809 34.2814C138.937 34.2814 138.976 35.0081 140.104 35.1229H140.123C140.161 35.1229 140.2 35.1229 140.238 35.1229C140.984 35.1229 141.576 34.5109 141.576 33.7842C141.596 33.1532 141.156 32.6368 140.582 32.4838ZM97.7456 51.4351C97.7265 51.4351 97.7265 51.4351 97.7074 51.4351C97.6882 51.4351 97.6882 51.4351 97.6691 51.4351C95.2978 50.9188 93.4428 52.8694 93.0604 53.3284V51.6073H92.1233L88.7385 52.5252V53.2136H90.7847V61.7427L88.815 62.2781V62.9666H95.1831V62.2781L93.0795 61.7235V54.361C93.2134 54.208 94.2843 53.0989 95.2022 53.0989C96.254 53.0989 96.2731 53.7682 97.3058 53.8638H97.3249C97.3631 53.8638 97.4014 53.8638 97.4396 53.8638C98.1281 53.8638 98.6826 53.3092 98.6826 52.6208C98.6635 52.0662 98.2811 51.569 97.7456 51.4351ZM62.635 51.5881L58.447 52.028V52.965H60.4167V61.6088L58.3896 62.2399V62.9666H64.5856V62.2399L62.635 61.6088V51.5881ZM61.6597 47.5722C60.8757 47.5722 60.2446 48.2033 60.2446 48.9873C60.2446 49.7714 60.8757 50.4025 61.6597 50.4025C62.4438 50.4025 63.0749 49.7714 63.0749 48.9873C63.0749 48.2033 62.4438 47.5722 61.6597 47.5722ZM114.459 51.5881L110.271 52.028V52.965H112.241V61.6088L110.252 62.2399V62.9666H116.41V62.2399L114.459 61.6088V51.5881ZM111.993 48.9873C111.993 49.7714 112.624 50.4025 113.408 50.4025C114.192 50.4025 114.823 49.7714 114.823 48.9873C114.823 48.2033 114.192 47.5722 113.408 47.5722C112.624 47.5722 111.993 48.2033 111.993 48.9873ZM93.5385 37.8001V35.3524C93.5385 33.4974 91.5496 33.44 90.6891 33.44C90.0006 33.44 88.7002 33.4783 88.0692 34.2623C87.7249 34.683 87.8397 35.448 87.8588 35.7922C87.897 36.538 87.3807 37.1117 86.6731 37.1117C85.9656 37.1117 85.3919 36.5189 85.3919 35.7922C85.3919 34.3197 86.7496 33.4783 86.7496 33.4783C87.7823 32.7898 89.5417 32.4265 91.0142 32.4265C92.544 32.4265 93.8253 32.7324 94.9727 33.593C95.5464 34.0328 96.0054 34.7787 96.0054 36.3085C96.0054 38.3165 96.0054 43.518 96.0054 43.518L98.4532 44.1874L98.587 44.9523H94.9918L93.5385 43.3651C93.5385 43.3651 91.454 45.1244 88.8341 45.1244C86.2142 45.1244 85.0094 43.7093 85.0094 42.4089C85.0094 42.4089 84.5696 39.7125 88.4707 38.546C89.1974 38.3356 89.8668 38.2017 90.4213 38.087C92.5058 37.7619 93.5385 37.8001 93.5385 37.8001ZM93.5193 38.6798C93.5193 38.6798 91.0715 38.7563 89.4078 39.483C88.1456 40.0376 87.4572 40.9938 87.5146 42.1412C87.5528 42.8296 88.2986 43.9961 90.0771 43.8814C91.8365 43.7667 93.5193 42.2368 93.5193 42.2368V38.6798ZM104.573 55.757C102.832 55.4319 101.417 54.9538 101.417 53.7873C101.417 52.3722 103.1 52.2574 103.808 52.2766C107.04 52.3913 107.919 55.1068 107.919 55.1068H108.646L107.919 51.5308H107.269L107.04 52.2957C106.485 51.9132 105.299 51.263 103.865 51.263C101.016 51.263 99.3711 52.9268 99.3711 54.7435C99.3711 56.5602 101.704 57.3252 103.464 57.8224C105.165 58.3196 107.46 58.4152 107.46 60.098C107.46 62.1634 104.649 62.1251 104.649 62.1251C100.844 62.1251 99.8492 58.7212 99.8492 58.7212H99.046L99.7918 62.8901H100.557L100.824 61.953C100.824 61.953 102.718 63.0813 104.726 63.0813C107.575 63.0813 109.487 61.2263 109.487 59.2375C109.526 56.5793 106.409 56.1013 104.573 55.757ZM50.6829 37.8001V35.3524C50.6829 33.4974 48.6941 33.44 47.8335 33.44C47.1451 33.44 45.8447 33.4783 45.2136 34.2623C44.8694 34.683 44.9841 35.448 45.0032 35.7922C45.0415 36.538 44.5252 37.1117 43.8176 37.1117C43.11 37.1117 42.5363 36.5189 42.5363 35.7922C42.5363 34.3197 43.8941 33.4783 43.8941 33.4783C44.9267 32.7898 46.6861 32.4265 48.1586 32.4265C49.6885 32.4265 50.9697 32.7324 52.1171 33.593C52.6908 34.0328 53.1498 34.7787 53.1498 36.3085C53.1498 38.3165 53.1498 43.518 53.1498 43.518L55.4446 44.1491V44.9523H52.1363L50.6829 43.3651C50.6829 43.3651 48.5984 45.1244 45.9785 45.1244C43.3586 45.1244 42.1538 43.7093 42.1538 42.4089C42.1538 42.4089 41.714 39.7125 45.6152 38.546C46.3419 38.3356 47.0112 38.2017 47.5658 38.087C49.6502 37.7619 50.6829 37.8001 50.6829 37.8001ZM50.6446 38.6798C50.6446 38.6798 48.1968 38.7563 46.5331 39.483C45.271 40.0376 44.5825 40.9938 44.6399 42.1412C44.6781 42.8296 45.424 43.9961 47.2024 43.8814C48.9618 43.7667 50.6446 42.2368 50.6446 42.2368V38.6798Z" fill="#212121"/>
<path d="M180.111 60.0598C179.174 60.3275 178.045 60.4996 176.42 60.4996C174.985 60.4996 173.934 60.3467 173.054 60.1363C172.404 59.9833 171.83 59.773 171.295 59.5626C170.472 59.2375 169.669 58.8742 168.637 58.5873C167.604 58.3005 166.361 58.1092 164.678 58.1092C163.167 58.1092 162.02 58.2622 161.064 58.4917C160.337 58.6638 159.725 58.8933 159.17 59.1228C158.31 59.467 157.564 59.8112 156.627 60.0789C155.69 60.3467 154.562 60.5188 152.936 60.5188C151.502 60.5188 150.45 60.3658 149.57 60.1554C148.959 60.0024 148.423 59.8112 147.907 59.62C148.098 60.0598 148.308 60.4805 148.519 60.9204C148.672 60.9586 148.825 61.016 148.978 61.0542C150.01 61.3411 151.253 61.5323 152.936 61.5323C154.447 61.5323 155.594 61.3793 156.551 61.1498C157.277 60.9777 157.889 60.7483 158.444 60.5188C159.304 60.1745 160.05 59.8303 160.987 59.5817C161.924 59.314 163.052 59.1419 164.678 59.1419C166.112 59.1419 167.164 59.2949 168.044 59.5052C168.694 59.6582 169.268 59.8686 169.803 60.0789C170.625 60.404 171.429 60.7674 172.461 61.0542C173.494 61.3411 174.737 61.5323 176.42 61.5323C177.93 61.5323 179.078 61.3793 180.034 61.1498C180.321 61.0733 180.57 60.9969 180.837 60.9204C181.048 60.4805 181.258 60.0598 181.449 59.62C181.009 59.773 180.589 59.9259 180.111 60.0598Z" fill="white"/>
<path d="M176.419 58.4725C174.985 58.4725 173.933 58.3196 173.054 58.1092C172.404 57.9562 171.83 57.7459 171.294 57.5355C170.472 57.2104 169.669 56.8471 168.636 56.5602C167.604 56.2734 166.361 56.0821 164.678 56.0821C163.167 56.0821 162.02 56.2351 161.063 56.4646C160.337 56.6367 159.725 56.8662 159.17 57.0957C158.31 57.4399 157.564 57.7841 156.627 58.0327C155.69 58.3004 154.561 58.4725 152.936 58.4725C151.502 58.4725 150.45 58.3196 149.57 58.1092C148.92 57.9562 148.346 57.7459 147.811 57.5355C147.524 57.4208 147.237 57.306 146.931 57.1722C147.084 57.5929 147.256 58.0327 147.428 58.4725C147.906 58.6638 148.404 58.855 148.977 59.008C150.01 59.2949 151.253 59.4861 152.936 59.4861C154.447 59.4861 155.594 59.3331 156.55 59.1036C157.277 58.9315 157.889 58.702 158.443 58.4725C159.304 58.1283 160.05 57.7841 160.987 57.5355C161.924 57.2678 163.052 57.0957 164.678 57.0957C166.112 57.0957 167.164 57.2487 168.043 57.459C168.694 57.612 169.267 57.8224 169.803 58.0327C170.625 58.3578 171.428 58.7212 172.461 59.008C173.494 59.2949 174.737 59.4861 176.419 59.4861C177.93 59.4861 179.078 59.3331 180.034 59.1036C180.741 58.9315 181.353 58.702 181.927 58.4917C182.099 58.0518 182.271 57.612 182.424 57.1913C181.659 57.4973 180.971 57.8032 180.11 58.0327C179.154 58.2813 178.026 58.4725 176.419 58.4725Z" fill="white"/>
<path d="M146.606 56.1778C147.333 56.4837 148.079 56.7897 148.977 57.0574C150.01 57.3443 151.253 57.5355 152.936 57.5355C154.447 57.5355 155.594 57.3825 156.55 57.1531C157.277 56.9809 157.889 56.7515 158.443 56.522C159.304 56.1778 160.05 55.8335 160.987 55.5849C161.924 55.3172 163.052 55.1451 164.678 55.1451C166.112 55.1451 167.164 55.2981 168.043 55.5084C168.694 55.6614 169.267 55.8718 169.803 56.0821C170.625 56.4072 171.428 56.7706 172.461 57.0574C173.494 57.3443 174.737 57.5355 176.419 57.5355C177.93 57.5355 179.078 57.3825 180.034 57.1531C180.761 56.9809 181.372 56.7515 181.927 56.522C182.214 56.4072 182.482 56.2925 182.749 56.1969C182.883 55.7762 182.998 55.3746 183.113 54.9539C182.96 55.0112 182.807 55.0686 182.654 55.126C181.793 55.4702 181.047 55.8144 180.11 56.063C179.173 56.3307 178.045 56.5029 176.419 56.5029C174.985 56.5029 173.933 56.3499 173.054 56.1395C172.404 55.9865 171.83 55.7762 171.294 55.5658C170.472 55.2407 169.669 54.8774 168.636 54.5905C167.604 54.3037 166.361 54.1124 164.678 54.1124C163.167 54.1124 162.02 54.2654 161.063 54.4949C160.337 54.667 159.725 54.8965 159.17 55.126C158.31 55.4702 157.564 55.8144 156.627 56.063C155.69 56.3307 154.561 56.5029 152.936 56.5029C151.502 56.5029 150.45 56.3499 149.57 56.1395C148.92 55.9865 148.346 55.7762 147.811 55.5658C147.295 55.3554 146.797 55.1451 146.224 54.9347C146.338 55.3363 146.453 55.757 146.606 56.1778Z" fill="white"/>
<path d="M184.298 43.0591H145.038V43.5754H184.298V43.0591Z" fill="white"/>

</svg>
