<svg xmlns="http://www.w3.org/2000/svg" width="212" height="104" viewBox="0 0 212 104" fill="none">
<rect x="0.765152" y="0.765152" width="210.47" height="102.47" fill="#082144"/>
<g clip-path="url(#clip0_3617_15161)">
<path d="M22 25.1728V77.9477H190V25.1728H22ZM189.1 77.1301H22.8995V25.9914H189.1V77.1301Z" fill="white"/>
<path d="M80.2086 42.7575C79.7972 43.1689 79.1532 43.4911 78.1862 43.4911C77.3975 43.4911 76.6412 43.2464 76.1307 42.7355C75.4636 42.0684 75.4859 41.2241 75.4859 40.4906V35.9343H76.4861V40.6021C76.4861 41.1689 76.4637 41.7242 76.9086 42.1687C77.2084 42.4689 77.675 42.6356 78.2194 42.6356C78.7642 42.6356 79.1752 42.4465 79.4422 42.1799C79.9423 41.6798 79.8983 41.113 79.8983 39.8574V35.9343H80.8764V39.7015C80.8761 41.0794 80.9205 42.0464 80.2086 42.7575Z" fill="white"/>
<path d="M88.0194 43.3467L84.5192 37.4457L84.5415 43.3467H83.6301V35.9343H84.6187L88.12 41.8577L88.0977 35.9343H89.008V43.3467H88.0194Z" fill="white"/>
<path d="M91.999 43.3467V35.9343H92.9988V43.3467H91.999Z" fill="white"/>
<path d="M98.557 43.3467H97.4569L94.9009 35.9343H95.9342L98.0341 42.3242L100.191 35.9343H101.157L98.557 43.3467Z" fill="white"/>
<path d="M103.1 43.3467V35.9343H107.201V36.7566H104.078V39.0903H107.012V39.8905H104.078V42.5021H107.29V43.3467H103.1Z" fill="white"/>
<path d="M113.63 43.3468L112.774 41.4132C112.263 40.2687 112.018 40.1684 111.018 40.1684H110.551V43.3468H109.573V35.9343H111.218C112.207 35.9343 112.974 35.9235 113.574 36.5235C113.941 36.8901 114.152 37.3793 114.152 38.0014C114.152 38.5126 114.008 38.946 113.697 39.2793C113.43 39.5684 112.996 39.813 112.507 39.8682C112.752 39.8794 112.996 40.0237 113.141 40.1684C113.363 40.391 113.519 40.7464 113.719 41.2021L114.675 43.3468H113.63ZM112.841 37.1123C112.441 36.7122 111.919 36.7234 111.318 36.7234H110.551V39.3793H110.896C111.607 39.3793 112.329 39.4017 112.796 38.9348C113.029 38.7017 113.163 38.3571 113.163 38.0014C113.163 37.6009 113.007 37.279 112.841 37.1123Z" fill="white"/>
<path d="M118.493 43.5023C117.181 43.5023 116.304 42.7911 116.215 42.702L116.693 42.0128C116.826 42.102 117.548 42.6464 118.449 42.6464C119.36 42.6464 119.894 42.102 119.894 41.424C119.894 40.6129 118.986 40.2128 118.186 39.8238C117.241 39.3681 116.427 38.8792 116.427 37.7899C116.427 36.6119 117.382 35.7896 118.748 35.7896C120.116 35.7896 120.794 36.4675 120.861 36.5451L120.36 37.1899C120.271 37.1123 119.682 36.6342 118.815 36.6342C118.004 36.6342 117.426 37.0344 117.426 37.7012C117.426 38.4011 118.082 38.6605 118.815 39.0387C119.471 39.3717 120.927 39.8794 120.927 41.3352C120.927 42.5577 120.027 43.5023 118.493 43.5023Z" fill="white"/>
<path d="M123.27 43.3467V35.9343H124.27V43.3467H123.27Z" fill="white"/>
<path d="M129.377 36.7566V43.3467H128.377V36.7566H126.198V35.9343H131.544V36.7566H129.377Z" fill="white"/>
<path d="M135.86 40.4127V43.3464H134.871V40.4127L132.526 35.9339H133.619L135.427 39.4219L137.2 35.9339H138.205L135.86 40.4127Z" fill="white"/>
<path d="M146.498 43.4911C144.542 43.4911 143.131 41.9017 143.131 39.6571C143.131 37.3678 144.532 35.7896 146.554 35.7896C148.532 35.7896 149.91 37.3678 149.91 39.6015C149.91 41.9129 148.521 43.4911 146.498 43.4911ZM146.487 36.6342C145.076 36.6342 144.154 37.8235 144.154 39.6347C144.154 41.4352 145.187 42.6352 146.543 42.6352C148.087 42.6352 148.888 41.3125 148.888 39.568C148.888 37.8011 147.899 36.6342 146.487 36.6342Z" fill="white"/>
<path d="M153.27 36.7566V39.0903H156.115V39.8905H153.27V43.3467H152.281V35.9343H156.293V36.7566H153.27Z" fill="white"/>
<path d="M90.508 57.9155C90.508 62.6627 86.852 66.1012 82.2794 66.1012C77.6242 66.1012 74.0508 62.6191 74.0508 58.0909C74.0508 53.3477 77.7116 49.9063 82.2794 49.9063C86.9407 49.9059 90.508 53.3856 90.508 57.9155ZM87.859 58.0025C87.859 53.6926 85.811 50.7798 82.2794 50.7798C78.4501 50.7798 76.7092 54.3042 76.7092 58.0025C76.7092 62.3145 78.7557 65.2425 82.2794 65.2425C86.1152 65.2425 87.859 61.7098 87.859 58.0025Z" fill="white"/>
<path d="M140.756 57.9155C140.756 62.6627 137.099 66.1012 132.527 66.1012C127.872 66.1012 124.298 62.6191 124.298 58.0909C124.298 53.3477 127.957 49.9063 132.527 49.9063C137.184 49.9059 140.756 53.3856 140.756 57.9155ZM138.102 58.0025C138.102 53.6926 136.056 50.7798 132.527 50.7798C128.695 50.7798 126.954 54.3042 126.954 58.0025C126.954 62.3145 129.001 65.2425 132.527 65.2425C136.358 65.2425 138.102 61.7098 138.102 58.0025Z" fill="white"/>
<path d="M147.113 58.0462H149.072C152.033 58.0462 152.645 56.2273 152.645 54.4381C152.645 53.098 152.077 52.004 150.685 51.3932C149.942 51.0872 149.246 51.0447 148.29 51.0447H147.113L147.113 58.0462ZM150.685 60.626C149.77 59.3144 149.421 58.9197 148.29 58.9197H147.113V64.1518C147.113 64.5895 147.244 64.8049 147.766 64.8943L149.552 65.2425V65.8574H142.501V65.2425L144.11 64.8943C144.634 64.7612 144.76 64.5895 144.76 64.1518V51.8752C144.76 51.4372 144.591 51.2171 144.11 51.1305L142.501 50.7798V50.1704H149.377C150.816 50.1704 151.817 50.2996 152.644 50.6066C154.34 51.2601 155.297 52.8779 155.297 54.393C155.297 56.3132 153.863 57.9156 151.467 58.4838V58.5726C151.948 58.7884 152.208 59.099 153.907 61.3223L156.084 64.1522C156.387 64.5898 156.737 64.8947 157.3 64.9831L158.783 65.2429V65.8577H154.997C154.559 65.8577 154.341 65.7246 153.95 65.1978L150.685 60.626Z" fill="white"/>
<path d="M119.988 55.5725H120.728V60.7595H119.988L119.682 59.2693C119.555 58.7043 119.207 58.4835 118.682 58.4835H114.895V64.1518C114.895 64.5895 115.026 64.8049 115.546 64.8943L117.335 65.2425V65.8574H110.278V65.2425L111.887 64.8943C112.412 64.7612 112.543 64.5895 112.543 64.1518V51.8752C112.543 51.4372 112.368 51.2171 111.887 51.1305L110.278 50.7798V50.1704H122.165V54.0866H121.427L120.815 51.8756C120.642 51.2601 120.291 51.0447 119.769 51.0447H114.895V57.6085H118.682C119.206 57.6085 119.555 57.4036 119.682 56.8396L119.988 55.5725Z" fill="white"/>
<path d="M160.045 65.8574V65.2425L161.655 64.8943C162.179 64.7612 162.31 64.5895 162.31 64.1518V51.8752C162.31 51.4372 162.135 51.2171 161.655 51.1305L160.045 50.7798V50.1704H167.405C169.407 50.1704 170.844 50.4288 172.016 50.9563C174.98 52.3125 176.328 55.2239 176.328 58.0906C176.328 60.8865 175.286 63.493 172.628 64.8943C171.409 65.5463 169.712 65.8574 167.492 65.8574H160.045ZM164.619 51.0447V64.2795C164.619 64.8496 164.748 64.9831 165.315 64.9831H167.23C169.058 64.9831 170.408 64.7616 171.367 64.0641C172.979 62.8846 173.675 60.8453 173.675 58.1349C173.675 55.4833 172.979 52.9652 170.801 51.6974C169.883 51.1738 168.71 51.0443 166.881 51.0443L164.619 51.0447Z" fill="white"/>
<path d="M96.6944 65.2425V65.8573H91.0752V65.2425L92.4676 64.9384C92.99 64.8049 93.3833 64.6342 93.6911 64.2344L98.396 58.2237L93.6911 51.8752C93.3833 51.4372 92.9904 51.2171 92.5119 51.0869L91.2091 50.7795V50.17H98.1334V50.7795L96.6501 51.0443C96.1738 51.1302 96.2175 51.2597 96.4808 51.6097L99.9594 56.5347H100.048L103.66 51.697C103.922 51.3481 103.922 51.1735 103.529 51.0869L102.138 50.7795V50.17H107.752V50.7795L106.362 51.0869C105.837 51.2171 105.444 51.3928 105.141 51.7858L100.66 57.4036L105.662 64.1522C105.968 64.5898 106.361 64.8052 106.842 64.9387L108.144 65.2429V65.8577H101.219V65.2429L102.706 64.9831C103.179 64.8947 103.135 64.7616 102.879 64.4119L99.0848 59.099H98.9997L95.1249 64.4119C94.8619 64.7616 94.82 64.8496 95.2988 64.9387L96.6944 65.2425Z" fill="white"/>
<path d="M55.0214 44.8275C55.0214 44.8275 55.0214 52.021 55.0214 52.5882C54.4734 52.5882 49.3766 52.5882 49.3766 52.5882L49.299 52.7798C49.2073 53.0071 49.041 53.2175 48.4536 53.2175C47.8666 53.2175 47.7006 53.0071 47.6086 52.7798L47.5314 52.5882C47.5314 52.5882 42.4465 52.5882 41.8984 52.5882C41.8984 52.021 41.8984 44.8275 41.8984 44.8275H41.285V45.0282L40.8549 44.8961C40.7918 44.7052 40.6139 44.5663 40.4021 44.5663C40.138 44.5663 39.9226 44.781 39.9226 45.0458C39.9226 45.3107 40.138 45.5253 40.4021 45.5253C40.5122 45.5253 40.6125 45.4867 40.6933 45.424L41.285 45.6058V46.1983L40.8593 46.1221C40.786 45.9666 40.6338 45.8551 40.4505 45.8461C40.1864 45.8335 39.9612 46.0373 39.9486 46.3018C39.9356 46.5663 40.1402 46.7907 40.4043 46.8037C40.5436 46.8106 40.6706 46.7561 40.7626 46.6655L41.285 46.7593V47.3651L40.8383 47.3453C40.7532 47.2129 40.6049 47.1245 40.4357 47.1245C40.1716 47.1245 39.9562 47.3391 39.9562 47.6036C39.9562 47.8681 40.1716 48.0831 40.4357 48.0831C40.5894 48.0831 40.7247 48.0092 40.8124 47.8966L41.2847 47.9175V48.5764L40.8228 48.593C40.7352 48.4786 40.5988 48.4035 40.4436 48.4035C40.1795 48.4035 39.9645 48.6182 39.9645 48.8827C39.9645 49.1472 40.1795 49.3618 40.4436 49.3618C40.6114 49.3618 40.759 49.2752 40.8441 49.1443L41.2843 49.1284V49.7353L40.7741 49.823C40.6872 49.736 40.5674 49.6822 40.435 49.6822C40.1708 49.6822 39.9554 49.8969 39.9554 50.1614C39.9554 50.4266 40.1708 50.6406 40.435 50.6406C40.6255 50.6406 40.7889 50.5283 40.8661 50.3674L41.2839 50.2956V50.8895L40.7178 51.0623C40.6366 50.9999 40.5367 50.961 40.4263 50.961C40.1618 50.961 39.9468 51.1753 39.9468 51.4401C39.9468 51.7053 40.1618 51.9196 40.4263 51.9196C40.6381 51.9196 40.816 51.7814 40.8791 51.5902L41.2839 51.4664V52.038L40.6514 52.3107C40.5731 52.2628 40.4801 52.2368 40.3816 52.2404C40.1174 52.2508 39.9111 52.4742 39.9215 52.7387C39.932 53.0035 40.1561 53.2095 40.4198 53.1987C40.6435 53.1897 40.8235 53.028 40.8679 52.8188L41.2836 52.6391V53.2023C41.2836 53.2023 46.8292 53.2023 47.1518 53.2023C47.4004 53.6158 47.8211 53.8308 48.4522 53.8308C49.0839 53.8308 49.5039 53.6158 49.7529 53.2023C50.0754 53.2023 55.6334 53.2023 55.6334 53.2023V44.8279L55.0214 44.8275Z" fill="white"/>
<path d="M44.6081 43.1296C45.7898 43.1296 46.7477 42.9459 46.7477 42.7193C46.7477 42.4928 45.7898 42.3091 44.6081 42.3091C43.4264 42.3091 42.4685 42.4928 42.4685 42.7193C42.4685 42.9459 43.4264 43.1296 44.6081 43.1296Z" fill="white"/>
<path d="M47.5534 39.6593L46.3184 40.527L46.3079 40.6151L46.6013 40.7468C46.6593 40.776 46.6601 40.8225 46.6305 40.8507L45.8547 41.5052L45.7808 41.4987L45.2316 40.6887C45.1941 40.636 45.2074 40.5837 45.2735 40.5728L45.6422 40.5126V40.4195L44.6864 39.0683H44.5291L43.5733 40.4195V40.5126L43.9421 40.5728C44.0081 40.584 44.0222 40.6363 43.9839 40.6887L43.4344 41.4987L43.3601 41.5055L42.636 40.851C42.6064 40.8229 42.6067 40.776 42.6645 40.7471L42.9582 40.6154L42.9477 40.5274L41.6614 39.6596L41.5571 39.7004L42.3123 42.0081C42.6955 41.836 43.5762 41.7148 44.6071 41.7098C45.6379 41.7144 46.519 41.836 46.9018 42.0081L47.6573 39.7004L47.5534 39.6593Z" fill="white"/>
<path d="M48.445 58.6044C49.6267 58.6044 50.5846 58.4207 50.5846 58.1941C50.5846 57.9675 49.6267 57.7839 48.445 57.7839C47.2634 57.7839 46.3054 57.9675 46.3054 58.1941C46.3054 58.4207 47.2634 58.6044 48.445 58.6044Z" fill="white"/>
<path d="M51.3902 55.1337L50.1552 56.0018L50.1447 56.0899L50.4381 56.2215C50.4961 56.2504 50.4969 56.297 50.4673 56.3251L49.6915 56.98L49.6176 56.9731L49.0684 56.1635C49.0309 56.1108 49.0442 56.0585 49.1106 56.0473L49.479 55.9874V55.8943L48.5229 54.5431H48.3659L47.4101 55.8943V55.9874L47.7789 56.0473C47.8449 56.0585 47.859 56.1108 47.8207 56.1635L47.2712 56.9731L47.1976 56.98L46.4731 56.3251C46.4435 56.297 46.4442 56.2504 46.502 56.2215L46.7957 56.0899L46.7845 56.0018L45.4986 55.1337L45.3943 55.1745L46.1498 57.4822C46.533 57.3098 47.4137 57.1885 48.4446 57.1838C49.4754 57.1885 50.3561 57.3101 50.7393 57.4822L51.4949 55.1745L51.3902 55.1337Z" fill="white"/>
<path d="M52.2719 43.1296C53.4536 43.1296 54.4115 42.9459 54.4115 42.7193C54.4115 42.4928 53.4536 42.3091 52.2719 42.3091C51.0903 42.3091 50.1323 42.4928 50.1323 42.7193C50.1323 42.9459 51.0903 43.1296 52.2719 43.1296Z" fill="white"/>
<path d="M55.2174 39.6593L53.9823 40.527L53.9719 40.6151L54.2652 40.7468C54.3233 40.776 54.324 40.8225 54.2944 40.8507L53.5187 41.5052L53.4451 41.4987L52.8956 40.6887C52.858 40.636 52.8714 40.5837 52.9374 40.5728L53.3065 40.5126V40.4195L52.3504 39.0683H52.1927L51.2369 40.4195V40.5126L51.6057 40.5728C51.6721 40.584 51.6858 40.6363 51.6475 40.6887L51.098 41.4987L51.0244 41.5052L50.2999 40.842C50.2707 40.8139 50.2707 40.767 50.3284 40.7381L50.6228 40.6147L50.6116 40.5267L49.3253 39.6589L49.2214 39.6997L49.9766 42.0074C50.3598 41.8353 51.2405 41.7141 52.2714 41.709C53.3026 41.7137 54.1833 41.8353 54.5665 42.0074L55.3217 39.6997L55.2174 39.6593Z" fill="white"/>
<path d="M48.428 33.8863C48.6703 33.8863 48.8667 33.6899 48.8667 33.4476C48.8667 33.2053 48.6703 33.0089 48.428 33.0089C48.1857 33.0089 47.9893 33.2053 47.9893 33.4476C47.9893 33.6899 48.1857 33.8863 48.428 33.8863Z" fill="white"/>
<path d="M58.6721 37.9534C58.9145 37.9534 59.1109 37.7569 59.1109 37.5146C59.1109 37.2723 58.9145 37.0759 58.6721 37.0759C58.4298 37.0759 58.2334 37.2723 58.2334 37.5146C58.2334 37.7569 58.4298 37.9534 58.6721 37.9534Z" fill="white"/>
<path d="M43.5989 45.5603C43.5621 45.5603 43.5416 45.5654 43.5304 45.5715C43.5221 45.5744 43.521 45.6116 43.521 45.6513V46.2646C43.521 46.4064 43.5564 46.4339 43.6328 46.4339C43.7703 46.4339 43.9096 46.2823 43.9096 45.9994C43.9092 45.6563 43.735 45.5603 43.5989 45.5603Z" fill="white"/>
<path d="M44.9033 46.4591C45.0407 46.4591 45.1154 46.3263 45.1154 46.0377C45.1154 45.7169 45.0007 45.5398 44.8632 45.5398C44.7405 45.5398 44.6384 45.6801 44.6384 45.9594C44.6381 46.2484 44.7467 46.4591 44.9033 46.4591Z" fill="white"/>
<path d="M48.137 46.0362C48.137 45.3926 47.919 44.8737 47.4478 44.5966C47.1527 44.4231 46.7525 44.3664 46.2593 44.3664L42.6895 44.3657V51.6061H46.5765C47.4763 51.6061 48.0053 51.8088 48.0515 52.616H48.1377L48.137 46.0362ZM45.5034 46.4562C45.5803 46.4494 45.6102 46.4339 45.62 46.3743C45.6282 46.3249 45.6373 46.2405 45.6452 46.0951L45.6629 45.7729C45.6741 45.5719 45.6614 45.5542 45.5352 45.543V45.4806H45.9104L46.1897 46.1131L46.4339 45.4806H46.8218V45.543C46.7006 45.5542 46.6944 45.5607 46.6988 45.7285L46.7147 46.2632C46.7197 46.4403 46.7222 46.445 46.8377 46.4566V46.5183H46.338V46.4566C46.4574 46.445 46.4624 46.4403 46.461 46.2632L46.4559 45.7011H46.4495L46.1413 46.501H46.0551L45.7628 45.757H45.7596L45.7484 46.1113C45.7433 46.2484 45.7452 46.3249 45.7516 46.3743C45.7581 46.4339 45.7931 46.4483 45.8967 46.4562V46.5179H45.5023V46.4562H45.5034ZM46.408 48.025L46.3841 48.0135C46.2535 47.9529 46.1049 47.8699 46.1049 47.6992C46.1049 47.5188 46.2355 47.372 46.4866 47.372C46.536 47.372 46.5873 47.3785 46.6335 47.3914C46.6699 47.4008 46.6955 47.407 46.7161 47.4138C46.7226 47.4759 46.7338 47.5542 46.7515 47.6624L46.6811 47.6736C46.6457 47.5682 46.5902 47.4549 46.4639 47.4549C46.3823 47.4549 46.325 47.517 46.325 47.5939C46.325 47.6736 46.387 47.7198 46.4891 47.7663L46.5245 47.7822C46.6717 47.8493 46.7976 47.9309 46.7976 48.1174C46.7976 48.3137 46.6396 48.4573 46.3924 48.4573C46.3286 48.4573 46.2629 48.4447 46.2196 48.4302C46.1724 48.414 46.1384 48.4014 46.1197 48.3916C46.107 48.318 46.0858 48.2321 46.0666 48.125L46.137 48.104C46.1702 48.1968 46.2647 48.3739 46.4209 48.3739C46.5039 48.3739 46.5678 48.3195 46.5678 48.2159C46.5674 48.1228 46.505 48.0701 46.408 48.025ZM45.3569 47.5415C45.3858 47.6307 45.5121 47.9457 45.5712 48.1019C45.6207 47.9662 45.7228 47.661 45.748 47.5863C45.782 47.4885 45.7719 47.4712 45.7001 47.4636L45.6521 47.4586V47.3961H46.0389V47.4586C45.9472 47.4697 45.9256 47.4777 45.8628 47.6231C45.8538 47.6451 45.6589 48.1192 45.5391 48.445H45.4161C45.3057 48.1578 45.1559 47.7631 45.0982 47.613C45.0463 47.4759 45.0138 47.4679 44.9369 47.4582V47.3958H45.4529V47.4582L45.3988 47.4643C45.3396 47.4712 45.3396 47.4853 45.3569 47.5415ZM44.8951 45.4564C45.1873 45.4564 45.4128 45.6704 45.4128 45.9865C45.4128 46.3281 45.1794 46.5417 44.8731 46.5417C44.5505 46.5417 44.3412 46.3072 44.3412 46.0135C44.3412 45.7548 44.5137 45.4564 44.8951 45.4564ZM43.1199 46.5179V46.4562C43.2364 46.4461 43.2491 46.4353 43.2491 46.2628V45.7357C43.2491 45.5636 43.2364 45.552 43.1325 45.5427V45.4802H43.5987C43.7953 45.4802 43.9581 45.5188 44.0645 45.6224C44.1399 45.6942 44.2023 45.8122 44.2023 45.9496C44.2023 46.3473 43.9003 46.5179 43.5319 46.5179H43.1199ZM44.1821 49.3741C44.0721 49.3835 44.0594 49.3947 44.0594 49.5671V50.0939C44.0594 50.2664 44.0721 50.2776 44.1821 50.2873V50.3494H43.6651V50.2873C43.7751 50.2776 43.7881 50.266 43.7881 50.0939V49.5671C43.7881 49.3947 43.7751 49.3838 43.6651 49.3741V49.3117H44.1821V49.3741ZM44.2077 48.4338H43.8101V48.3718C43.8805 48.3682 43.922 48.3461 43.9299 48.2899C43.9364 48.2404 43.9425 48.1528 43.9425 47.985V47.6913C43.9425 47.5733 43.9389 47.5524 43.9072 47.5076C43.8834 47.4741 43.8433 47.4632 43.786 47.4582V47.3958H44.1392L44.6707 48.0582H44.6735V47.8443C44.6735 47.6765 44.6674 47.5888 44.6613 47.5394C44.6533 47.4838 44.61 47.4629 44.5047 47.4578V47.3954H44.9117V47.4578C44.8319 47.4611 44.7905 47.4835 44.7829 47.5394C44.7764 47.5888 44.7695 47.6765 44.7695 47.8443V48.445H44.6324L44.0418 47.6913H44.0385V47.985C44.0385 48.1528 44.045 48.2404 44.0512 48.2899C44.0594 48.3458 44.1024 48.3667 44.2077 48.3718V48.4338ZM45.078 50.3494H44.2868V50.2873C44.408 50.2776 44.4206 50.266 44.4206 50.0939V49.5671C44.4206 49.3947 44.408 49.3838 44.3008 49.3741V49.3117H44.8197V49.3741C44.7049 49.3835 44.6919 49.3947 44.6919 49.5671V50.1148C44.6919 50.1978 44.6952 50.2375 44.7237 50.2519C44.7497 50.2649 44.7865 50.2664 44.8359 50.2664C44.8871 50.2664 44.9557 50.2617 44.9893 50.2202C45.0145 50.1902 45.0419 50.147 45.0676 50.0622L45.1361 50.0733C45.126 50.134 45.0928 50.2999 45.078 50.3494ZM45.9689 50.3494H45.1772V50.2873C45.2988 50.2776 45.3115 50.266 45.3115 50.0939V49.5671C45.3115 49.3947 45.2988 49.3838 45.1917 49.3741V49.3117H45.7105V49.3741C45.5954 49.3835 45.5828 49.3947 45.5828 49.5671V50.1148C45.5828 50.1978 45.5864 50.2375 45.6153 50.2519C45.6405 50.2649 45.6773 50.2664 45.7268 50.2664C45.778 50.2664 45.8465 50.2617 45.8801 50.2202C45.9057 50.1902 45.9328 50.147 45.9584 50.0622L46.0269 50.0733C46.0176 50.134 45.9836 50.2999 45.9689 50.3494ZM46.9683 49.3741C46.877 49.3853 46.855 49.3932 46.7926 49.5386C46.7832 49.561 46.5884 50.0351 46.4686 50.3606H46.3455C46.2348 50.0733 46.085 49.6786 46.0277 49.5285C45.9746 49.3914 45.9432 49.3835 45.8664 49.3737V49.3113H46.3823V49.3737L46.3282 49.3799C46.2691 49.3864 46.269 49.4008 46.2867 49.4567C46.3156 49.5458 46.4419 49.8608 46.501 50.0171C46.5505 49.8814 46.6526 49.5765 46.6778 49.5015C46.7114 49.404 46.7017 49.3864 46.6299 49.3784L46.5819 49.3737V49.3113H46.9683V49.3741ZM47.4637 45.5427C47.3529 45.552 47.3407 45.5636 47.3407 45.7357V46.2628C47.3407 46.4353 47.3529 46.4461 47.4637 46.4562V46.5179H46.9463V46.4562C47.0563 46.4461 47.069 46.4353 47.069 46.2628V45.7357C47.069 45.5636 47.0563 45.552 46.9463 45.5427V45.4802H47.4637V45.5427Z" fill="white"/>
<path d="M53.0245 45.8392L52.926 46.1441H53.1302L53.0296 45.8392H53.0245Z" fill="white"/>
<path d="M52.1313 47.9096C52.1313 48.1986 52.24 48.4097 52.3962 48.4097C52.5337 48.4097 52.6087 48.2769 52.6087 47.9879C52.6087 47.6668 52.4943 47.49 52.3565 47.49C52.2335 47.49 52.1313 47.6303 52.1313 47.9096Z" fill="white"/>
<path d="M52.65 49.6707L52.5515 49.9756H52.7557L52.6551 49.6707H52.65Z" fill="white"/>
<path d="M50.6364 44.3664C50.1439 44.3664 49.7434 44.4231 49.4483 44.5966C48.9767 44.8737 48.7591 45.3926 48.7591 46.0362L48.7588 52.6163H48.8447C48.8908 51.8092 49.4202 51.6064 50.3197 51.6064H54.2319V44.3661L50.6364 44.3664ZM51.4782 45.5149H51.8311L52.3626 46.1773H52.3654V45.9634C52.3654 45.7956 52.3593 45.7079 52.3532 45.6585C52.3449 45.6029 52.3019 45.582 52.1966 45.5773V45.5149H52.6036V45.5773C52.5238 45.5802 52.4823 45.6029 52.4744 45.6585C52.4683 45.7079 52.4614 45.7956 52.4614 45.9634V46.5638H52.3247L51.7337 45.81H51.7304V46.1037C51.7304 46.2711 51.7369 46.3592 51.743 46.4086C51.7513 46.4645 51.7943 46.4851 51.8996 46.4905V46.5526H51.5024V46.4905C51.5724 46.4869 51.6139 46.4649 51.6215 46.4086C51.6283 46.3592 51.6344 46.2711 51.6344 46.1037V45.81C51.6344 45.692 51.6308 45.6711 51.5991 45.6267C51.5753 45.5932 51.5349 45.582 51.4782 45.5773V45.5149ZM52.9056 47.937C52.9056 48.2787 52.6725 48.4923 52.3658 48.4923C52.0436 48.4923 51.8343 48.2578 51.8343 47.9641C51.8343 47.7054 52.0064 47.407 52.3878 47.407C52.6804 47.407 52.9056 47.6209 52.9056 47.937ZM51.7012 48.4064V48.4685H51.1838V48.4064C51.2938 48.3967 51.3065 48.3851 51.3065 48.213V47.6862C51.3065 47.5138 51.2938 47.5026 51.1838 47.4932V47.4308H51.7012V47.4932C51.5904 47.5026 51.5782 47.5138 51.5782 47.6862V48.213C51.5785 48.3855 51.5908 48.3967 51.7012 48.4064ZM50.8793 46.4909C50.9897 46.4811 51.0023 46.4699 51.0023 46.2975V45.7703C51.0023 45.5982 50.9897 45.5867 50.8793 45.5773V45.5149H51.3963V45.5773C51.2863 45.5867 51.2736 45.5979 51.2736 45.7703V46.2975C51.2736 46.4699 51.2863 46.4811 51.3963 46.4909V46.5529H50.8793V46.4909ZM50.8887 48.4064V48.4685H50.3308V48.4064C50.4586 48.3967 50.4712 48.3851 50.4712 48.213V47.5138H50.4441C50.3373 47.5138 50.2937 47.5333 50.2684 47.5621C50.2493 47.5856 50.2305 47.6274 50.2092 47.7169H50.1421C50.149 47.5827 50.1584 47.4726 50.1613 47.3915H50.2111C50.2352 47.4279 50.2507 47.4311 50.2937 47.4311H50.9309C50.9724 47.4311 50.9803 47.4218 51.0063 47.3915H51.0557C51.0571 47.4586 51.0651 47.5942 51.073 47.7122L51.003 47.7173C50.9792 47.6216 50.9619 47.5798 50.9377 47.5527C50.9107 47.5239 50.8576 47.5145 50.7811 47.5145H50.7422V48.2137C50.7422 48.3855 50.7552 48.3967 50.8887 48.4064ZM49.8304 46.5529H49.4364V46.4909C49.5129 46.4844 49.5432 46.4685 49.5526 46.409C49.5605 46.3595 49.5702 46.2747 49.5778 46.1297L49.5955 45.8075C49.6067 45.6065 49.5941 45.5888 49.4678 45.5777V45.5152H49.8427L50.1223 46.1477L50.3669 45.5152H50.7548V45.5777C50.6332 45.5888 50.6267 45.595 50.6314 45.7628L50.6473 46.2975C50.6523 46.4746 50.6552 46.4793 50.7703 46.4909V46.5529H50.2709V46.4909C50.39 46.4793 50.3954 46.4746 50.3936 46.2975L50.3886 45.7353H50.3821L50.0739 46.5352H49.9877L49.6955 45.7913H49.6922L49.6814 46.1459C49.676 46.283 49.6778 46.3595 49.6843 46.409C49.6908 46.4681 49.7258 46.4826 49.8293 46.4909V46.5529H49.8304ZM51.2293 50.3844H50.7295V50.3223C50.8493 50.3111 50.8544 50.3061 50.8522 50.1289L50.8479 49.5668H50.8414L50.5329 50.3667H50.4474L50.1551 49.6227H50.1515L50.1407 49.977C50.1356 50.1141 50.1374 50.1906 50.1439 50.24C50.1504 50.2992 50.1847 50.3137 50.289 50.322V50.384H49.8943V50.322C49.9711 50.3151 50.0014 50.2996 50.0112 50.24C50.0187 50.1906 50.0285 50.1058 50.0361 49.9608L50.0541 49.6382C50.0653 49.4369 50.0523 49.4196 49.9264 49.4084V49.346H50.3016L50.5809 49.9781L50.8251 49.346H51.2134V49.4084C51.0921 49.4196 51.086 49.4261 51.09 49.5935L51.1062 50.1282C51.1109 50.3054 51.1138 50.31 51.2289 50.3216L51.2293 50.3844ZM52.1374 50.3844H51.3249V50.3223C51.4475 50.3126 51.4602 50.301 51.4602 50.1289V49.6018C51.4602 49.4293 51.4475 49.4185 51.3411 49.4087V49.3463H52.0974C52.0992 49.3737 52.1071 49.4903 52.115 49.6097L52.045 49.6148C52.0288 49.5365 52.0115 49.4921 51.9859 49.4661C51.961 49.439 51.9079 49.4293 51.8235 49.4293H51.7964C51.7355 49.4293 51.7326 49.4293 51.7326 49.4852V49.7934H51.8123C51.9494 49.7934 51.9541 49.784 51.9704 49.6624H52.0407V50.0391H51.9704C51.9541 49.8987 51.9494 49.8893 51.8123 49.8893H51.7326V50.1495C51.7326 50.2328 51.7355 50.2722 51.7643 50.2866C51.79 50.2996 51.8264 50.301 51.8762 50.301C51.9401 50.301 52.0104 50.2916 52.0454 50.2534C52.0725 50.2245 52.0995 50.1657 52.1241 50.0889L52.1937 50.1001C52.1854 50.1783 52.1522 50.3411 52.1374 50.3844ZM53.2552 50.3844H52.7537V50.3223L52.802 50.3155C52.8605 50.3075 52.8637 50.2916 52.8432 50.2339L52.7858 50.0712H52.5238L52.4755 50.2245C52.4549 50.2931 52.4549 50.309 52.5285 50.3169L52.5751 50.322V50.384H52.2031V50.322C52.2846 50.3108 52.3084 50.3039 52.3611 50.17L52.6808 49.3449L52.7912 49.3225L52.8998 49.6241C52.9684 49.8143 53.0366 50.0026 53.0972 50.1654C53.1488 50.3039 53.1776 50.3118 53.2556 50.322L53.2552 50.3844ZM53.6301 46.5529H53.1282V46.4909L53.1769 46.4844C53.2354 46.4764 53.2386 46.4602 53.2177 46.4028L53.1607 46.2401H52.8984L52.8504 46.3935C52.8298 46.4624 52.8298 46.4779 52.9031 46.4858L52.9492 46.4909V46.5529H52.578V46.4909C52.6591 46.4793 52.6837 46.4728 52.7364 46.339L53.0557 45.5138L53.1657 45.4914L53.274 45.7931C53.3429 45.9828 53.4118 46.1716 53.472 46.3343C53.5236 46.4728 53.5525 46.4811 53.6308 46.4909V46.5529H53.6301Z" fill="white"/>
<path d="M46.5496 63.9667C46.7919 63.9667 46.9883 63.7703 46.9883 63.528C46.9883 63.2857 46.7919 63.0892 46.5496 63.0892C46.3073 63.0892 46.1108 63.2857 46.1108 63.528C46.1108 63.7703 46.3073 63.9667 46.5496 63.9667Z" fill="white"/>
<path d="M50.8701 64.675C51.1125 64.675 51.3089 64.4785 51.3089 64.2362C51.3089 63.9939 51.1125 63.7975 50.8701 63.7975C50.6278 63.7975 50.4314 63.9939 50.4314 64.2362C50.4314 64.4785 50.6278 64.675 50.8701 64.675Z" fill="white"/>
<path d="M36.6966 55.2625C36.8467 55.2632 37.2714 55.304 37.6311 55.8156C37.779 56.0256 37.884 56.2739 37.8833 56.5333C37.8826 56.9627 37.6733 57.2113 37.1693 57.5656L35.8321 58.5091L35.4684 57.9913L36.9658 56.9349C37.1043 56.8375 37.2891 56.6776 37.2894 56.4723C37.2894 56.3594 37.2743 56.2674 37.1718 56.1213C37.013 55.8954 36.8467 55.8763 36.7414 55.8759C36.5826 55.8755 36.4325 55.9715 36.1103 56.1981L34.8128 57.0442L34.4592 56.5412L35.8368 55.6396C36.2009 55.3841 36.4357 55.2611 36.6966 55.2625Z" fill="white"/>
<path d="M34.3153 54.0397L36.1457 53.3217L36.3431 53.8348L33.58 54.9061L33.3844 54.371L34.8139 52.5503L32.9706 53.1944L32.7739 52.655L35.5623 51.6801L35.7474 52.1859L34.3153 54.0397Z" fill="white"/>
<path d="M32.3296 50.3642L35.2648 49.9175L35.36 50.5424L32.4245 50.9887L32.3296 50.3642Z" fill="white"/>
<path d="M35.1598 47.9688L32.1499 48.8708L32.1766 48.2343L34.4346 47.626L32.2365 46.816L32.2625 46.1975L35.1854 47.3547L35.1598 47.9688Z" fill="white"/>
<path d="M32.5774 44.5905L33.0695 42.8607L33.5577 42.9997L33.2362 44.1301L33.8998 44.3191L34.2018 43.2576L34.6813 43.3937L34.3789 44.4555L35.1067 44.6626L35.4379 43.4979L35.9347 43.639L35.4328 45.403L32.5774 44.5905Z" fill="white"/>
<path d="M37.1116 41.2599L36.232 41.1823C35.8156 41.1437 35.7752 41.2433 35.6579 41.4536L35.6229 41.5153L36.6667 42.0702L36.3568 42.6194L33.7463 41.1906L34.1743 40.439C34.3673 40.093 34.573 39.725 35.0954 39.725C35.4234 39.725 35.8798 40.0006 35.8798 40.4964C35.8798 40.5844 35.8585 40.6772 35.8217 40.7746C35.9393 40.6054 36.1519 40.5801 36.3449 40.5823C36.4524 40.583 36.5574 40.5992 36.6444 40.6064L37.4367 40.6761L37.1116 41.2599ZM34.9197 40.3611C34.7685 40.4037 34.6899 40.5206 34.5769 40.7226L34.4791 40.8908L35.1993 41.279L35.3206 41.0611C35.4227 40.8785 35.445 40.7739 35.4089 40.6468C35.3815 40.5498 35.2902 40.448 35.2011 40.3982C35.0965 40.3398 34.9926 40.3402 34.9197 40.3611Z" fill="white"/>
<path d="M38.4263 35.414L38.931 35.0337L40.7178 37.4046L40.2134 37.7853L38.4263 35.414Z" fill="white"/>
<path d="M41.7585 33.9419L42.8868 36.1299L42.325 36.4196L41.1967 34.2316L40.473 34.6051L40.2402 34.1541L42.2463 33.1196L42.4787 33.5706L41.7585 33.9419Z" fill="white"/>
<path d="M45.2334 34.1007L45.5195 35.2495L44.9325 35.396L44.646 34.2468L43.3074 32.7408L43.9294 32.5856L44.8148 33.6215L45.1125 32.2887L45.7089 32.1425L45.2334 34.1007Z" fill="white"/>
<path d="M55.9804 35.1672L56.9178 35.725L56.6627 36.1537L55.7256 35.5958L55.074 36.6895L54.5386 36.3709L56.0579 33.8196L57.5798 34.7259L57.3204 35.1618L56.334 34.5744L55.9804 35.1672Z" fill="white"/>
<path d="M61.3164 44.8134L62.1283 43.9201L60.9495 43.6412L60.7554 43.0209L62.5078 43.4792L63.6069 42.1929L63.8103 42.8427L63.0563 43.6664L64.1513 43.9302L64.3407 44.5378L62.7113 44.1016L61.5181 45.4596L61.3164 44.8134Z" fill="white"/>
<path d="M64.1567 46.9296L63.4679 46.9852L63.5411 48.0821L63.0436 48.1153L62.9703 47.0271L61.7006 47.1126L61.6577 46.5161L64.6218 46.2737L64.7401 48.059L64.2335 48.0929L64.1567 46.9296Z" fill="white"/>
<path d="M66.2431 48.3862C66.3229 38.5917 58.4049 30.5582 48.5934 30.4788C44.0086 30.4417 39.6406 32.1425 36.2941 35.2679C32.6979 38.627 30.6951 43.1837 30.6554 48.0983C30.6077 53.9586 33.4506 59.4443 38.262 62.8049C38.7188 64.7082 40.4369 66.129 42.4863 66.129C43.0726 66.129 43.6406 66.0147 44.1764 65.7899C44.7468 65.9706 45.3317 66.1236 45.9151 66.2459C45.7257 66.7673 45.4569 67.2587 45.1953 67.7036L45.6214 68.1294C45.7232 68.0615 45.8426 68.0287 45.9627 68.028C46.2886 68.028 46.6007 68.251 46.5981 68.6529C46.5981 68.9798 46.3777 69.2865 45.9194 69.2858C45.6712 69.2858 45.3494 69.1548 45.1758 68.7824C45.1758 68.7824 45.0604 69.1447 45.0604 69.5809C45.0604 70.9015 46.496 72.3555 48.4166 72.9642C50.3484 72.3602 51.7779 70.9015 51.7779 69.5809C51.7779 69.1447 51.6625 68.7824 51.6625 68.7824C51.4893 69.1544 51.1671 69.2858 50.9185 69.2858C50.4606 69.2865 50.2401 68.9798 50.2401 68.6529C50.2376 68.251 50.5494 68.028 50.8752 68.028C50.995 68.0287 51.1147 68.0619 51.2169 68.1294L51.608 67.7404L51.6177 67.7346L51.634 67.7141C51.6361 67.7155 51.6383 67.7155 51.6397 67.717L51.6404 67.7065L51.6426 67.7036L51.6412 67.7V67.6993C51.4489 67.2393 51.3085 66.8193 51.21 66.4188C54.396 65.9822 57.0851 64.6295 59.2261 62.3795L59.2225 62.3752C63.6403 59.0164 66.1977 53.9351 66.2431 48.3862ZM42.486 65.5315C40.4359 65.5315 38.7685 63.8577 38.7685 61.8008C38.7685 61.1574 38.9313 60.552 39.2178 60.0234C39.4079 60.1962 39.611 60.3756 39.8221 60.5567C39.641 60.9391 39.5367 61.3638 39.5367 61.8134C39.5367 62.9305 40.0999 63.8527 41.1647 64.4809C41.7824 64.8456 42.4834 65.1736 43.226 65.4583C42.9843 65.507 42.7371 65.5315 42.486 65.5315ZM48.4491 60.084C47.7534 60.084 47.0686 60.0209 46.3953 59.9029C45.6698 58.425 44.1396 57.4718 42.4863 57.4718C42.0627 57.4718 41.6539 57.5353 41.2664 57.6482C38.35 55.4137 36.6134 51.9221 36.6134 48.2422C36.6134 41.713 41.9231 36.4008 48.4491 36.4008C54.9754 36.4008 60.2847 41.713 60.2847 48.2422C60.2847 54.7722 54.9754 60.084 48.4491 60.084ZM50.9748 60.425C50.6681 60.9193 50.4801 61.5619 50.4151 62.2124C49.3313 61.9285 48.3459 61.5536 47.4814 61.1618C47.6012 60.9117 47.8815 60.6797 48.3596 60.6797C48.3899 60.6797 48.4191 60.6819 48.4491 60.6819C49.3139 60.6819 50.1586 60.5931 50.9748 60.425ZM47.1895 60.6195C47.0917 60.7057 47.0098 60.8031 46.9431 60.9078C46.5628 60.7468 45.83 60.4041 45.5922 60.2612C45.9682 60.3824 46.8085 60.5816 47.1895 60.6195ZM42.486 58.0693C43.7311 58.0693 44.8973 58.7083 45.581 59.7326C44.9799 59.5829 44.3892 59.3866 43.8141 59.1412L43.8123 59.1448L43.7954 59.1355C43.3945 58.946 42.9644 58.8501 42.5184 58.8501C41.5266 58.8501 40.6487 59.3357 40.1064 60.0783C39.8795 59.952 39.6529 59.8196 39.4299 59.6806C40.1017 58.7086 41.2206 58.0693 42.486 58.0693ZM50.8229 67.4774C50.1406 67.4774 49.6343 68.0092 49.6343 68.6663C49.6343 69.4326 50.1705 69.8937 50.8618 69.8937C50.9477 69.8937 51.0318 69.884 51.1126 69.867C50.9066 70.8225 49.7772 71.8573 48.4162 72.3202C47.0791 71.8573 45.931 70.8228 45.7253 69.867C45.8065 69.884 45.8902 69.8937 45.9761 69.8937C46.667 69.8937 47.2032 69.4326 47.2032 68.6663C47.2032 68.0092 46.6973 67.4774 46.0147 67.4774C46.1868 67.161 46.382 66.7713 46.5263 66.3625C47.3295 66.5007 48.12 66.5761 48.8564 66.5761C49.4503 66.5761 50.0283 66.5451 50.5927 66.4895C50.6688 66.7803 50.8521 67.3374 50.9008 67.4824C50.8766 67.4792 50.8514 67.4774 50.8229 67.4774ZM48.8572 65.9779C46.4877 65.9779 43.5294 65.1722 41.497 63.9732C40.8901 63.6153 40.1663 62.9496 40.1663 61.8134C40.1663 61.5182 40.223 61.2361 40.3215 60.9756C41.0893 61.6077 41.8762 62.1948 42.373 62.4675C42.4899 62.5318 42.5578 62.5632 42.6938 62.5632C43.02 62.5632 43.2852 62.2976 43.2852 61.9696C43.2852 61.7192 43.1491 61.5161 42.9244 61.4183C42.4982 61.2314 41.615 60.8659 40.6574 60.3734C41.0878 59.812 41.7607 59.449 42.5184 59.449C42.8666 59.449 43.2022 59.5237 43.5154 59.6713L44.1623 60.0487C46.2189 61.305 51.4759 64.5144 57.846 62.8475C55.4398 64.9485 52.488 65.9779 48.8572 65.9779ZM58.8112 61.9224C55.964 62.9261 53.3052 62.8619 51.0314 62.3607C51.1039 61.3873 51.4665 60.3085 52.0666 60.1457C57.181 58.595 60.9143 53.846 60.9143 48.2422C60.9143 41.3832 55.3221 35.803 48.4491 35.803C41.5756 35.803 35.9835 41.3832 35.9835 48.2422C35.9835 51.9885 37.6998 55.553 40.6022 57.9051C39.9221 58.2324 39.3419 58.7317 38.9143 59.344C38.7101 59.2018 38.5131 59.055 38.3294 58.9042L38.2133 59.0207C38.3395 59.1733 38.5272 59.3693 38.7548 59.5897C38.3652 60.237 38.1386 60.9922 38.1386 61.8004C38.1386 61.856 38.1451 61.9101 38.1469 61.9649C33.7955 58.6942 31.2402 53.5685 31.2846 48.1026C31.3232 43.3475 33.259 38.9406 36.7354 35.6936C39.9617 32.6801 44.1713 31.0406 48.588 31.0763C58.052 31.1528 65.6897 38.916 65.6132 48.3815C65.5699 53.7569 63.0915 58.6776 58.8112 61.9224Z" fill="white"/>
<path d="M38.9655 38.6014C38.9655 38.8558 38.8543 39.1242 38.6321 39.3671C38.2052 39.8336 37.7503 39.8762 37.7034 39.8751L37.5742 39.3829C37.6456 39.3638 37.9801 39.2956 38.2171 39.0358C38.3243 38.9186 38.3799 38.7937 38.3799 38.6833C38.3799 38.5661 38.3027 38.3626 38.0609 38.3626C37.8029 38.3626 37.3714 38.7364 36.9291 38.7364C36.7591 38.7364 36.5704 38.7126 36.3738 38.5321C36.184 38.3586 36.0959 38.1367 36.0959 37.9116C36.0959 37.6655 36.2085 37.4068 36.4171 37.1784C36.8136 36.7451 37.2498 36.7097 37.2877 36.7083L37.3941 37.1914C37.344 37.2 37.0196 37.2711 36.8183 37.4912C36.7147 37.6041 36.6599 37.7272 36.6599 37.8351C36.6599 37.952 36.7342 38.0952 36.9273 38.0981C37.1394 38.1006 37.6734 37.7102 38.1075 37.7102C38.3088 37.7102 38.4553 37.7459 38.6588 37.9325C38.8634 38.119 38.9655 38.3539 38.9655 38.6014Z" fill="white"/>
<path d="M52.6434 35.6161C51.8857 35.6161 51.1987 35.0391 51.1987 34.1717C51.1987 33.3971 51.7179 32.4983 52.6611 32.4983C53.4285 32.4983 54.139 33.0406 54.139 33.913C54.1386 34.5697 53.6955 35.6161 52.6434 35.6161ZM53.5057 33.9051C53.5057 33.7001 53.4592 33.4855 53.3347 33.3191C53.2063 33.1463 52.9948 33.0254 52.7437 33.0254C52.2115 33.0254 51.8218 33.6857 51.8218 34.2305C51.8218 34.7364 52.1635 35.0802 52.6225 35.0802C53.2247 35.0806 53.5057 34.2984 53.5057 33.9051Z" fill="white"/>
<path d="M60.8803 41.9598C59.9764 41.9598 59.4785 41.0892 59.4785 40.505C59.4785 39.6192 60.4318 38.9424 61.1765 38.9424C61.9883 38.9424 62.584 39.7145 62.584 40.4141C62.5844 41.2093 61.7534 41.9598 60.8803 41.9598ZM60.7745 41.3576C61.2959 41.3576 62.019 40.9066 62.019 40.2994C62.019 39.8812 61.6942 39.555 61.2775 39.555C60.7897 39.555 60.0461 39.9887 60.0461 40.601C60.0461 40.9275 60.2957 41.3576 60.7745 41.3576Z" fill="white"/>
<path d="M61.4644 50.7066C61.4644 49.9734 61.9608 49.2529 62.9476 49.2529C63.7775 49.2529 64.5796 49.7645 64.5796 50.6831C64.5796 51.4376 64.0961 52.1628 63.1158 52.1628C62.2776 52.1628 61.4644 51.6331 61.4644 50.7066ZM63.1486 51.5285C63.675 51.5285 64.0607 51.2063 64.0607 50.7336C64.0607 50.1693 63.407 49.8821 62.9029 49.8821C62.2571 49.8821 61.9947 50.3021 61.9947 50.6968C61.9951 51.3149 62.7524 51.5285 63.1486 51.5285Z" fill="white"/>
<path d="M60.3349 54.2068L61.2178 54.2104C61.6363 54.214 61.6684 54.1116 61.7677 53.8925L61.7969 53.8276L60.7347 53.3344L60.9894 52.7708L63.6771 54.0112L63.3325 54.7848C63.0969 55.3051 62.8952 55.5678 62.4027 55.5678C62.0862 55.5678 61.6219 55.3048 61.6255 54.8209C61.6262 54.7466 61.6363 54.6668 61.6605 54.5821C61.5025 54.8566 61.1045 54.8184 60.8555 54.8184L60.0603 54.8148L60.3349 54.2068ZM62.057 54.5373C62.057 54.7643 62.2475 54.9447 62.4597 54.9447C62.6495 54.9447 62.7682 54.8404 62.8793 54.5936L62.9728 54.3717L62.2389 54.0271L62.1166 54.301C62.0758 54.3908 62.057 54.4698 62.057 54.5373Z" fill="white"/>
<path d="M58.5276 57.4902C58.5276 56.8826 58.809 56.5521 59.1655 56.1133L59.5508 55.6407L61.8539 57.5147L61.3365 58.1497C61.0446 58.5084 60.7007 58.95 60.0397 58.95C59.6638 58.95 59.3336 58.7757 59.0998 58.5852C58.8076 58.3475 58.5276 57.9441 58.5276 57.4902ZM60.1094 58.3612C60.4229 58.3612 60.6044 58.267 60.9645 57.8246L61.0771 57.6864L59.5472 56.4417L59.3593 56.6729C59.1752 56.8999 59.0796 57.1225 59.0796 57.3375C59.0796 57.6229 59.2211 57.8744 59.5101 58.1108C59.7186 58.2793 59.9102 58.3612 60.1094 58.3612Z" fill="white"/>
</g>

<defs>
<clipPath id="clip0_3617_15161">
<rect width="168" height="52.775" fill="white" transform="translate(22 25.1728)"/>
</clipPath>
</defs>
</svg>
