<svg xmlns="http://www.w3.org/2000/svg" width="370" height="215" viewBox="0 0 370 215" fill="none">
<rect x="1" y="1.66211" width="368" height="211.601" rx="3" fill="white" stroke="#9E9E9E" stroke-width="2"/>
<rect x="7" y="8.26318" width="356" height="198" rx="4" fill="#B75400"/>
<g clip-path="url(#clip0_3492_13616)">
<path d="M76.9304 114.985H72.9587V120.908H76.9304C78.5248 120.908 79.7866 119.504 79.7866 118.028C79.7833 116.366 78.5248 114.985 76.9304 114.985Z" fill="white"/>
<path d="M92.9155 115.102H88.9676V125.759H92.9155C99.3383 125.759 99.6212 115.102 92.9155 115.102Z" fill="white"/>
<path d="M125.275 101.888H59.825C58.1888 101.888 56.85 103.227 56.85 104.863V134.613C56.85 136.249 58.1888 137.588 59.825 137.588H125.275C126.914 137.588 128.25 136.249 128.25 134.613V104.863C128.25 103.227 126.914 101.888 125.275 101.888ZM76.9304 123.883H72.9587V127.024C72.9587 128.071 72.2926 128.663 71.4353 128.663C70.6498 128.663 69.8197 128.071 69.8197 127.021V113.631C69.8197 112.845 70.4386 111.986 71.4353 111.986L76.9304 111.985C80.0243 111.985 82.8087 114.056 82.8087 118.028C82.806 121.788 80.0243 123.883 76.9304 123.883L76.9304 123.883ZM93.1295 128.663H87.4684C86.6828 128.663 85.8261 128.232 85.8261 127.188V113.678C85.8261 112.821 86.6828 112.203 87.4684 112.203H92.9157C103.786 112.203 103.548 128.663 93.1295 128.663ZM114.327 115.294H107.401V119.075H113.468C114.328 119.075 115.181 119.931 115.181 120.765C115.181 121.55 114.327 122.19 113.468 122.19H107.401V127.185C107.401 128.018 106.809 128.661 105.976 128.661C104.929 128.661 104.286 128.018 104.286 127.185V113.675C104.286 112.819 104.932 112.2 105.976 112.2H114.327C115.374 112.2 115.99 112.819 115.99 113.675C115.99 114.44 115.374 115.294 114.327 115.294Z" fill="white"/>
<path d="M137.175 79.8307L117.583 60.2382C115.863 58.513 112.84 57.2632 110.401 57.2632H77.6757C72.755 57.2632 68.7507 61.2675 68.7507 66.1882V95.9382C68.7507 97.5831 70.0808 98.9132 71.7257 98.9132C73.3706 98.9132 74.7007 97.5831 74.7007 95.9382V66.1882C74.7007 64.5493 76.0335 63.2132 77.6757 63.2132H104.451C107.738 63.2132 110.401 65.8788 110.401 69.1632V80.3194C110.401 84.0023 113.418 87.0132 117.094 87.0132H128.251C131.538 87.0132 134.201 89.6788 134.201 92.9632V143.538C134.201 145.177 132.871 146.513 131.226 146.513H77.6757C76.0335 146.513 74.7007 145.177 74.7007 143.538C74.7007 141.893 73.3706 140.563 71.7257 140.563C70.0808 140.563 68.7507 141.893 68.7507 143.538C68.7507 148.459 72.755 152.463 77.6757 152.463H131.226C136.146 152.463 140.151 148.459 140.151 143.538V87.0132C140.151 84.5767 138.901 81.554 137.176 79.8314L137.175 79.8307Z" fill="white"/>
</g>
<path d="M181.812 78.7085H184.742C184.648 79.8257 184.336 80.8218 183.805 81.6968C183.273 82.564 182.527 83.2476 181.566 83.7476C180.605 84.2476 179.438 84.4976 178.062 84.4976C177.008 84.4976 176.059 84.3101 175.215 83.9351C174.371 83.5522 173.648 83.0132 173.047 82.3179C172.445 81.6147 171.984 80.7671 171.664 79.7749C171.352 78.7827 171.195 77.6733 171.195 76.4468V75.0288C171.195 73.8022 171.355 72.6929 171.676 71.7007C172.004 70.7085 172.473 69.8608 173.082 69.1577C173.691 68.4468 174.422 67.9038 175.273 67.5288C176.133 67.1538 177.098 66.9663 178.168 66.9663C179.527 66.9663 180.676 67.2163 181.613 67.7163C182.551 68.2163 183.277 68.9077 183.793 69.7905C184.316 70.6733 184.637 71.6851 184.754 72.8257H181.824C181.746 72.0913 181.574 71.4624 181.309 70.939C181.051 70.4155 180.668 70.0171 180.16 69.7437C179.652 69.4624 178.988 69.3218 178.168 69.3218C177.496 69.3218 176.91 69.4468 176.41 69.6968C175.91 69.9468 175.492 70.314 175.156 70.7983C174.82 71.2827 174.566 71.8804 174.395 72.5913C174.23 73.2944 174.148 74.0991 174.148 75.0054V76.4468C174.148 77.3062 174.223 78.0874 174.371 78.7905C174.527 79.4858 174.762 80.0835 175.074 80.5835C175.395 81.0835 175.801 81.4702 176.293 81.7437C176.785 82.0171 177.375 82.1538 178.062 82.1538C178.898 82.1538 179.574 82.021 180.09 81.7554C180.613 81.4897 181.008 81.103 181.273 80.5952C181.547 80.0796 181.727 79.4507 181.812 78.7085ZM201.32 75.2632V76.2007C201.32 77.4897 201.152 78.646 200.816 79.6694C200.48 80.6929 199.999 81.564 199.374 82.2827C198.757 83.0015 198.015 83.5522 197.148 83.9351C196.28 84.3101 195.32 84.4976 194.265 84.4976C193.218 84.4976 192.261 84.3101 191.394 83.9351C190.534 83.5522 189.788 83.0015 189.155 82.2827C188.523 81.564 188.03 80.6929 187.679 79.6694C187.335 78.646 187.163 77.4897 187.163 76.2007V75.2632C187.163 73.9741 187.335 72.8218 187.679 71.8062C188.023 70.7827 188.507 69.9116 189.132 69.1929C189.765 68.4663 190.511 67.9155 191.37 67.5405C192.238 67.1577 193.195 66.9663 194.241 66.9663C195.296 66.9663 196.257 67.1577 197.124 67.5405C197.991 67.9155 198.738 68.4663 199.363 69.1929C199.988 69.9116 200.468 70.7827 200.804 71.8062C201.148 72.8218 201.32 73.9741 201.32 75.2632ZM198.378 76.2007V75.2397C198.378 74.2866 198.284 73.4468 198.097 72.7202C197.917 71.9858 197.648 71.3726 197.288 70.8804C196.937 70.3804 196.503 70.0054 195.988 69.7554C195.472 69.4976 194.89 69.3687 194.241 69.3687C193.593 69.3687 193.015 69.4976 192.507 69.7554C191.999 70.0054 191.566 70.3804 191.206 70.8804C190.855 71.3726 190.585 71.9858 190.398 72.7202C190.21 73.4468 190.116 74.2866 190.116 75.2397V76.2007C190.116 77.1538 190.21 77.9976 190.398 78.7319C190.585 79.4663 190.859 80.0874 191.218 80.5952C191.585 81.0952 192.023 81.4741 192.53 81.7319C193.038 81.9819 193.616 82.1069 194.265 82.1069C194.921 82.1069 195.503 81.9819 196.011 81.7319C196.519 81.4741 196.948 81.0952 197.3 80.5952C197.652 80.0874 197.917 79.4663 198.097 78.7319C198.284 77.9976 198.378 77.1538 198.378 76.2007ZM204.561 67.2007H210.596C211.893 67.2007 212.998 67.396 213.912 67.7866C214.827 68.1772 215.526 68.7554 216.01 69.521C216.502 70.2788 216.748 71.2163 216.748 72.3335C216.748 73.1851 216.592 73.9351 216.28 74.5835C215.967 75.2319 215.526 75.7788 214.955 76.2241C214.385 76.6616 213.705 77.0015 212.916 77.2437L212.026 77.6772H206.6L206.577 75.3452H210.643C211.346 75.3452 211.932 75.2202 212.401 74.9702C212.87 74.7202 213.221 74.3804 213.455 73.9507C213.698 73.5132 213.819 73.021 213.819 72.4741C213.819 71.8804 213.702 71.3647 213.467 70.9272C213.241 70.4819 212.889 70.1421 212.412 69.9077C211.936 69.6655 211.33 69.5444 210.596 69.5444H207.502V84.2632H204.561V67.2007ZM214.299 84.2632L210.291 76.5991L213.373 76.5874L217.44 84.1108V84.2632H214.299ZM231.146 81.9312V84.2632H222.088V81.9312H231.146ZM222.92 67.2007V84.2632H219.978V67.2007H222.92ZM229.963 74.3257V76.6226H222.088V74.3257H229.963ZM231.088 67.2007V69.5444H222.088V67.2007H231.088ZM172.93 98.2007H175.555L180.488 111.361L185.41 98.2007H188.035L181.52 115.263H179.434L172.93 98.2007ZM171.734 98.2007H174.23L174.664 109.591V115.263H171.734V98.2007ZM186.734 98.2007H189.242V115.263H186.301V109.591L186.734 98.2007ZM198.343 115.498C197.405 115.498 196.558 115.345 195.8 115.041C195.05 114.728 194.409 114.294 193.878 113.74C193.355 113.185 192.952 112.533 192.671 111.783C192.39 111.033 192.249 110.224 192.249 109.357V108.888C192.249 107.896 192.394 106.998 192.683 106.193C192.972 105.388 193.374 104.701 193.89 104.13C194.405 103.552 195.015 103.111 195.718 102.806C196.421 102.501 197.183 102.349 198.003 102.349C198.909 102.349 199.702 102.501 200.382 102.806C201.062 103.111 201.624 103.541 202.07 104.095C202.523 104.642 202.859 105.294 203.077 106.052C203.304 106.81 203.417 107.646 203.417 108.56V109.767H193.62V107.74H200.628V107.517C200.612 107.009 200.511 106.533 200.323 106.087C200.144 105.642 199.866 105.283 199.491 105.009C199.116 104.736 198.616 104.599 197.991 104.599C197.523 104.599 197.105 104.701 196.737 104.904C196.378 105.099 196.077 105.384 195.835 105.759C195.593 106.134 195.405 106.587 195.273 107.119C195.148 107.642 195.085 108.232 195.085 108.888V109.357C195.085 109.912 195.159 110.427 195.308 110.904C195.464 111.373 195.691 111.783 195.987 112.134C196.284 112.486 196.644 112.763 197.066 112.966C197.487 113.162 197.968 113.259 198.507 113.259C199.187 113.259 199.792 113.123 200.323 112.849C200.855 112.576 201.316 112.189 201.706 111.689L203.195 113.13C202.921 113.529 202.566 113.912 202.128 114.279C201.691 114.638 201.155 114.931 200.523 115.158C199.898 115.384 199.171 115.498 198.343 115.498ZM208.745 105.162V115.263H205.92V102.583H208.58L208.745 105.162ZM208.287 108.455L207.327 108.443C207.327 107.568 207.436 106.759 207.655 106.017C207.873 105.275 208.194 104.63 208.616 104.083C209.037 103.529 209.561 103.103 210.186 102.806C210.819 102.501 211.549 102.349 212.377 102.349C212.955 102.349 213.483 102.435 213.959 102.607C214.444 102.771 214.862 103.033 215.213 103.392C215.573 103.751 215.846 104.212 216.034 104.775C216.229 105.337 216.327 106.017 216.327 106.814V115.263H213.502V107.06C213.502 106.443 213.409 105.958 213.221 105.607C213.041 105.255 212.78 105.005 212.436 104.857C212.1 104.701 211.698 104.623 211.229 104.623C210.698 104.623 210.245 104.724 209.87 104.927C209.502 105.13 209.202 105.408 208.967 105.759C208.733 106.111 208.561 106.517 208.452 106.978C208.342 107.439 208.287 107.931 208.287 108.455ZM216.151 107.705L214.827 107.998C214.827 107.232 214.932 106.509 215.143 105.83C215.362 105.142 215.678 104.541 216.092 104.025C216.514 103.501 217.034 103.091 217.651 102.794C218.268 102.498 218.975 102.349 219.772 102.349C220.42 102.349 220.998 102.439 221.506 102.619C222.022 102.791 222.459 103.064 222.819 103.439C223.178 103.814 223.452 104.302 223.639 104.904C223.827 105.498 223.92 106.216 223.92 107.06V115.263H221.084V107.048C221.084 106.408 220.991 105.912 220.803 105.56C220.623 105.208 220.366 104.966 220.03 104.833C219.694 104.693 219.291 104.623 218.823 104.623C218.385 104.623 217.998 104.705 217.662 104.869C217.334 105.025 217.057 105.248 216.83 105.537C216.604 105.818 216.432 106.142 216.315 106.509C216.205 106.876 216.151 107.275 216.151 107.705ZM227.138 97.2632H229.963V112.556L229.693 115.263H227.138V97.2632ZM238.236 108.806V109.052C238.236 109.99 238.13 110.853 237.92 111.642C237.716 112.423 237.404 113.103 236.982 113.681C236.568 114.259 236.052 114.708 235.435 115.029C234.826 115.341 234.119 115.498 233.314 115.498C232.525 115.498 231.838 115.349 231.252 115.052C230.666 114.755 230.173 114.333 229.775 113.787C229.384 113.24 229.068 112.587 228.826 111.83C228.584 111.072 228.412 110.236 228.31 109.322V108.537C228.412 107.615 228.584 106.779 228.826 106.029C229.068 105.271 229.384 104.619 229.775 104.072C230.173 103.517 230.662 103.091 231.24 102.794C231.826 102.498 232.509 102.349 233.291 102.349C234.103 102.349 234.818 102.505 235.435 102.818C236.06 103.13 236.58 103.576 236.994 104.154C237.408 104.724 237.716 105.404 237.92 106.193C238.13 106.982 238.236 107.853 238.236 108.806ZM235.412 109.052V108.806C235.412 108.236 235.365 107.701 235.271 107.201C235.177 106.693 235.021 106.248 234.802 105.865C234.591 105.482 234.302 105.181 233.935 104.962C233.576 104.736 233.127 104.623 232.588 104.623C232.088 104.623 231.658 104.708 231.298 104.88C230.939 105.052 230.638 105.287 230.396 105.583C230.154 105.88 229.963 106.224 229.822 106.615C229.689 107.005 229.599 107.427 229.552 107.88V110.001C229.623 110.587 229.771 111.126 229.998 111.619C230.232 112.103 230.56 112.494 230.982 112.791C231.404 113.08 231.947 113.224 232.611 113.224C233.134 113.224 233.576 113.119 233.935 112.908C234.295 112.697 234.58 112.404 234.791 112.029C235.009 111.646 235.166 111.201 235.259 110.693C235.361 110.185 235.412 109.638 235.412 109.052ZM246.516 115.498C245.579 115.498 244.731 115.345 243.973 115.041C243.223 114.728 242.583 114.294 242.052 113.74C241.528 113.185 241.126 112.533 240.845 111.783C240.563 111.033 240.423 110.224 240.423 109.357V108.888C240.423 107.896 240.567 106.998 240.856 106.193C241.145 105.388 241.548 104.701 242.063 104.13C242.579 103.552 243.188 103.111 243.891 102.806C244.595 102.501 245.356 102.349 246.177 102.349C247.083 102.349 247.876 102.501 248.555 102.806C249.235 103.111 249.798 103.541 250.243 104.095C250.696 104.642 251.032 105.294 251.251 106.052C251.477 106.81 251.591 107.646 251.591 108.56V109.767H241.794V107.74H248.802V107.517C248.786 107.009 248.684 106.533 248.497 106.087C248.317 105.642 248.04 105.283 247.665 105.009C247.29 104.736 246.79 104.599 246.165 104.599C245.696 104.599 245.278 104.701 244.911 104.904C244.552 105.099 244.251 105.384 244.009 105.759C243.766 106.134 243.579 106.587 243.446 107.119C243.321 107.642 243.259 108.232 243.259 108.888V109.357C243.259 109.912 243.333 110.427 243.481 110.904C243.637 111.373 243.864 111.783 244.161 112.134C244.458 112.486 244.817 112.763 245.239 112.966C245.661 113.162 246.141 113.259 246.68 113.259C247.36 113.259 247.966 113.123 248.497 112.849C249.028 112.576 249.489 112.189 249.88 111.689L251.368 113.13C251.095 113.529 250.739 113.912 250.302 114.279C249.864 114.638 249.329 114.931 248.696 115.158C248.071 115.384 247.345 115.498 246.516 115.498ZM256.93 104.998V115.263H254.105V102.583H256.801L256.93 104.998ZM260.809 102.501L260.785 105.126C260.613 105.095 260.426 105.072 260.223 105.056C260.027 105.041 259.832 105.033 259.637 105.033C259.152 105.033 258.727 105.103 258.359 105.244C257.992 105.376 257.684 105.572 257.434 105.83C257.191 106.08 257.004 106.384 256.871 106.744C256.738 107.103 256.66 107.505 256.637 107.951L255.992 107.998C255.992 107.201 256.07 106.462 256.227 105.783C256.383 105.103 256.617 104.505 256.93 103.99C257.25 103.474 257.648 103.072 258.125 102.783C258.609 102.494 259.168 102.349 259.801 102.349C259.973 102.349 260.156 102.365 260.352 102.396C260.555 102.427 260.707 102.462 260.809 102.501ZM269.991 111.83C269.991 111.548 269.921 111.294 269.78 111.068C269.64 110.833 269.37 110.623 268.972 110.435C268.581 110.248 268.003 110.076 267.238 109.919C266.566 109.771 265.948 109.595 265.386 109.392C264.831 109.181 264.355 108.927 263.956 108.63C263.558 108.333 263.249 107.982 263.03 107.576C262.812 107.169 262.702 106.701 262.702 106.169C262.702 105.654 262.816 105.166 263.042 104.705C263.269 104.244 263.593 103.837 264.015 103.486C264.437 103.134 264.948 102.857 265.55 102.654C266.159 102.451 266.839 102.349 267.589 102.349C268.652 102.349 269.562 102.529 270.32 102.888C271.085 103.24 271.671 103.72 272.077 104.33C272.484 104.931 272.687 105.611 272.687 106.369H269.863C269.863 106.033 269.777 105.72 269.605 105.431C269.441 105.134 269.191 104.896 268.855 104.716C268.519 104.529 268.097 104.435 267.589 104.435C267.105 104.435 266.702 104.513 266.382 104.669C266.07 104.818 265.835 105.013 265.679 105.255C265.53 105.498 265.456 105.763 265.456 106.052C265.456 106.263 265.495 106.455 265.573 106.626C265.659 106.791 265.8 106.943 265.995 107.083C266.191 107.216 266.456 107.341 266.792 107.458C267.136 107.576 267.566 107.689 268.081 107.798C269.05 108.001 269.882 108.263 270.577 108.583C271.28 108.896 271.82 109.302 272.195 109.802C272.57 110.294 272.757 110.919 272.757 111.677C272.757 112.24 272.636 112.755 272.394 113.224C272.159 113.685 271.816 114.087 271.363 114.431C270.909 114.767 270.366 115.029 269.734 115.216C269.109 115.404 268.405 115.498 267.624 115.498C266.476 115.498 265.503 115.294 264.706 114.888C263.909 114.474 263.304 113.947 262.89 113.306C262.484 112.658 262.28 111.986 262.28 111.291H265.011C265.042 111.814 265.187 112.232 265.445 112.544C265.71 112.849 266.038 113.072 266.429 113.212C266.827 113.345 267.238 113.412 267.659 113.412C268.167 113.412 268.593 113.345 268.937 113.212C269.28 113.072 269.542 112.884 269.722 112.65C269.902 112.408 269.991 112.134 269.991 111.83ZM278.319 97.2632V115.263H275.506V97.2632H278.319ZM277.827 108.455L276.912 108.443C276.92 107.568 277.041 106.759 277.276 106.017C277.518 105.275 277.854 104.63 278.284 104.083C278.721 103.529 279.245 103.103 279.854 102.806C280.463 102.501 281.139 102.349 281.881 102.349C282.506 102.349 283.069 102.435 283.569 102.607C284.077 102.779 284.514 103.056 284.881 103.439C285.248 103.814 285.526 104.306 285.713 104.916C285.909 105.517 286.006 106.251 286.006 107.119V115.263H283.17V107.095C283.17 106.486 283.08 106.001 282.901 105.642C282.729 105.283 282.475 105.025 282.139 104.869C281.803 104.705 281.393 104.623 280.909 104.623C280.401 104.623 279.952 104.724 279.561 104.927C279.178 105.13 278.858 105.408 278.6 105.759C278.342 106.111 278.147 106.517 278.014 106.978C277.889 107.439 277.827 107.931 277.827 108.455ZM292.189 102.583V115.263H289.353V102.583H292.189ZM289.166 99.2554C289.166 98.8257 289.306 98.4702 289.588 98.189C289.877 97.8999 290.275 97.7554 290.783 97.7554C291.283 97.7554 291.677 97.8999 291.966 98.189C292.255 98.4702 292.4 98.8257 292.4 99.2554C292.4 99.6772 292.255 100.029 291.966 100.31C291.677 100.591 291.283 100.732 290.783 100.732C290.275 100.732 289.877 100.591 289.588 100.31C289.306 100.029 289.166 99.6772 289.166 99.2554ZM298.419 105.021V120.138H295.595V102.583H298.196L298.419 105.021ZM306.68 108.806V109.052C306.68 109.974 306.571 110.83 306.352 111.619C306.141 112.4 305.825 113.083 305.403 113.669C304.989 114.248 304.477 114.697 303.868 115.017C303.259 115.337 302.555 115.498 301.759 115.498C300.97 115.498 300.278 115.353 299.684 115.064C299.098 114.767 298.602 114.349 298.196 113.81C297.79 113.271 297.462 112.638 297.212 111.912C296.97 111.177 296.798 110.373 296.696 109.498V108.548C296.798 107.619 296.97 106.775 297.212 106.017C297.462 105.259 297.79 104.607 298.196 104.06C298.602 103.513 299.098 103.091 299.684 102.794C300.27 102.498 300.954 102.349 301.735 102.349C302.532 102.349 303.239 102.505 303.856 102.818C304.473 103.123 304.993 103.56 305.415 104.13C305.837 104.693 306.153 105.373 306.364 106.169C306.575 106.958 306.68 107.837 306.68 108.806ZM303.856 109.052V108.806C303.856 108.22 303.802 107.677 303.692 107.177C303.583 106.669 303.411 106.224 303.177 105.841C302.942 105.458 302.641 105.162 302.274 104.951C301.915 104.732 301.481 104.623 300.973 104.623C300.473 104.623 300.044 104.708 299.684 104.88C299.325 105.044 299.024 105.275 298.782 105.572C298.54 105.869 298.352 106.216 298.22 106.615C298.087 107.005 297.993 107.431 297.938 107.892V110.166C298.032 110.728 298.192 111.244 298.419 111.712C298.645 112.181 298.966 112.556 299.38 112.837C299.802 113.111 300.341 113.248 300.997 113.248C301.505 113.248 301.938 113.138 302.298 112.919C302.657 112.701 302.95 112.4 303.177 112.017C303.411 111.626 303.583 111.177 303.692 110.669C303.802 110.162 303.856 109.623 303.856 109.052ZM174.289 136.021V151.138H171.465V133.583H174.066L174.289 136.021ZM182.551 139.806V140.052C182.551 140.974 182.441 141.83 182.223 142.619C182.012 143.4 181.695 144.083 181.273 144.669C180.859 145.248 180.348 145.697 179.738 146.017C179.129 146.337 178.426 146.498 177.629 146.498C176.84 146.498 176.148 146.353 175.555 146.064C174.969 145.767 174.473 145.349 174.066 144.81C173.66 144.271 173.332 143.638 173.082 142.912C172.84 142.177 172.668 141.373 172.566 140.498V139.548C172.668 138.619 172.84 137.775 173.082 137.017C173.332 136.259 173.66 135.607 174.066 135.06C174.473 134.513 174.969 134.091 175.555 133.794C176.141 133.498 176.824 133.349 177.605 133.349C178.402 133.349 179.109 133.505 179.727 133.818C180.344 134.123 180.863 134.56 181.285 135.13C181.707 135.693 182.023 136.373 182.234 137.169C182.445 137.958 182.551 138.837 182.551 139.806ZM179.727 140.052V139.806C179.727 139.22 179.672 138.677 179.562 138.177C179.453 137.669 179.281 137.224 179.047 136.841C178.812 136.458 178.512 136.162 178.145 135.951C177.785 135.732 177.352 135.623 176.844 135.623C176.344 135.623 175.914 135.708 175.555 135.88C175.195 136.044 174.895 136.275 174.652 136.572C174.41 136.869 174.223 137.216 174.09 137.615C173.957 138.005 173.863 138.431 173.809 138.892V141.166C173.902 141.728 174.062 142.244 174.289 142.712C174.516 143.181 174.836 143.556 175.25 143.837C175.672 144.111 176.211 144.248 176.867 144.248C177.375 144.248 177.809 144.138 178.168 143.919C178.527 143.701 178.82 143.4 179.047 143.017C179.281 142.626 179.453 142.177 179.562 141.669C179.672 141.162 179.727 140.623 179.727 140.052ZM188.089 135.998V146.263H185.265V133.583H187.96L188.089 135.998ZM191.968 133.501L191.945 136.126C191.773 136.095 191.585 136.072 191.382 136.056C191.187 136.041 190.991 136.033 190.796 136.033C190.312 136.033 189.886 136.103 189.519 136.244C189.152 136.376 188.843 136.572 188.593 136.83C188.351 137.08 188.163 137.384 188.03 137.744C187.898 138.103 187.82 138.505 187.796 138.951L187.152 138.998C187.152 138.201 187.23 137.462 187.386 136.783C187.542 136.103 187.777 135.505 188.089 134.99C188.409 134.474 188.808 134.072 189.284 133.783C189.769 133.494 190.327 133.349 190.96 133.349C191.132 133.349 191.316 133.365 191.511 133.396C191.714 133.427 191.866 133.462 191.968 133.501ZM199.393 146.498C198.455 146.498 197.608 146.345 196.85 146.041C196.1 145.728 195.459 145.294 194.928 144.74C194.405 144.185 194.002 143.533 193.721 142.783C193.44 142.033 193.299 141.224 193.299 140.357V139.888C193.299 138.896 193.444 137.998 193.733 137.193C194.022 136.388 194.424 135.701 194.94 135.13C195.455 134.552 196.065 134.111 196.768 133.806C197.471 133.501 198.233 133.349 199.053 133.349C199.959 133.349 200.752 133.501 201.432 133.806C202.112 134.111 202.674 134.541 203.12 135.095C203.573 135.642 203.909 136.294 204.127 137.052C204.354 137.81 204.467 138.646 204.467 139.56V140.767H194.67V138.74H201.678V138.517C201.663 138.009 201.561 137.533 201.373 137.087C201.194 136.642 200.916 136.283 200.541 136.009C200.166 135.736 199.666 135.599 199.041 135.599C198.573 135.599 198.155 135.701 197.788 135.904C197.428 136.099 197.127 136.384 196.885 136.759C196.643 137.134 196.455 137.587 196.323 138.119C196.198 138.642 196.135 139.232 196.135 139.888V140.357C196.135 140.912 196.209 141.427 196.358 141.904C196.514 142.373 196.741 142.783 197.038 143.134C197.334 143.486 197.694 143.763 198.116 143.966C198.538 144.162 199.018 144.259 199.557 144.259C200.237 144.259 200.842 144.123 201.373 143.849C201.905 143.576 202.366 143.189 202.756 142.689L204.245 144.13C203.971 144.529 203.616 144.912 203.178 145.279C202.741 145.638 202.205 145.931 201.573 146.158C200.948 146.384 200.221 146.498 199.393 146.498ZM214.084 142.83C214.084 142.548 214.013 142.294 213.873 142.068C213.732 141.833 213.463 141.623 213.064 141.435C212.673 141.248 212.095 141.076 211.33 140.919C210.658 140.771 210.041 140.595 209.478 140.392C208.923 140.181 208.447 139.927 208.048 139.63C207.65 139.333 207.341 138.982 207.123 138.576C206.904 138.169 206.795 137.701 206.795 137.169C206.795 136.654 206.908 136.166 207.134 135.705C207.361 135.244 207.685 134.837 208.107 134.486C208.529 134.134 209.041 133.857 209.642 133.654C210.252 133.451 210.931 133.349 211.681 133.349C212.744 133.349 213.654 133.529 214.412 133.888C215.177 134.24 215.763 134.72 216.17 135.33C216.576 135.931 216.779 136.611 216.779 137.369H213.955C213.955 137.033 213.869 136.72 213.697 136.431C213.533 136.134 213.283 135.896 212.947 135.716C212.611 135.529 212.189 135.435 211.681 135.435C211.197 135.435 210.795 135.513 210.474 135.669C210.162 135.818 209.927 136.013 209.771 136.255C209.623 136.498 209.548 136.763 209.548 137.052C209.548 137.263 209.588 137.455 209.666 137.626C209.752 137.791 209.892 137.943 210.088 138.083C210.283 138.216 210.548 138.341 210.884 138.458C211.228 138.576 211.658 138.689 212.173 138.798C213.142 139.001 213.974 139.263 214.67 139.583C215.373 139.896 215.912 140.302 216.287 140.802C216.662 141.294 216.849 141.919 216.849 142.677C216.849 143.24 216.728 143.755 216.486 144.224C216.252 144.685 215.908 145.087 215.455 145.431C215.002 145.767 214.459 146.029 213.826 146.216C213.201 146.404 212.498 146.498 211.716 146.498C210.568 146.498 209.595 146.294 208.798 145.888C208.002 145.474 207.396 144.947 206.982 144.306C206.576 143.658 206.373 142.986 206.373 142.291H209.103C209.134 142.814 209.279 143.232 209.537 143.544C209.802 143.849 210.13 144.072 210.521 144.212C210.92 144.345 211.33 144.412 211.752 144.412C212.259 144.412 212.685 144.345 213.029 144.212C213.373 144.072 213.634 143.884 213.814 143.65C213.994 143.408 214.084 143.134 214.084 142.83ZM225.212 146.498C224.274 146.498 223.427 146.345 222.669 146.041C221.919 145.728 221.278 145.294 220.747 144.74C220.223 144.185 219.821 143.533 219.54 142.783C219.259 142.033 219.118 141.224 219.118 140.357V139.888C219.118 138.896 219.263 137.998 219.552 137.193C219.841 136.388 220.243 135.701 220.759 135.13C221.274 134.552 221.884 134.111 222.587 133.806C223.29 133.501 224.052 133.349 224.872 133.349C225.778 133.349 226.571 133.501 227.251 133.806C227.93 134.111 228.493 134.541 228.938 135.095C229.391 135.642 229.727 136.294 229.946 137.052C230.173 137.81 230.286 138.646 230.286 139.56V140.767H220.489V138.74H227.497V138.517C227.481 138.009 227.38 137.533 227.192 137.087C227.013 136.642 226.735 136.283 226.36 136.009C225.985 135.736 225.485 135.599 224.86 135.599C224.391 135.599 223.973 135.701 223.606 135.904C223.247 136.099 222.946 136.384 222.704 136.759C222.462 137.134 222.274 137.587 222.141 138.119C222.016 138.642 221.954 139.232 221.954 139.888V140.357C221.954 140.912 222.028 141.427 222.177 141.904C222.333 142.373 222.559 142.783 222.856 143.134C223.153 143.486 223.513 143.763 223.934 143.966C224.356 144.162 224.837 144.259 225.376 144.259C226.055 144.259 226.661 144.123 227.192 143.849C227.723 143.576 228.184 143.189 228.575 142.689L230.063 144.13C229.79 144.529 229.434 144.912 228.997 145.279C228.559 145.638 228.024 145.931 227.391 146.158C226.766 146.384 226.04 146.498 225.212 146.498ZM235.59 136.291V146.263H232.766V133.583H235.426L235.59 136.291ZM235.086 139.455L234.172 139.443C234.18 138.544 234.305 137.72 234.547 136.97C234.797 136.22 235.141 135.576 235.578 135.037C236.023 134.498 236.555 134.083 237.172 133.794C237.789 133.498 238.477 133.349 239.234 133.349C239.844 133.349 240.395 133.435 240.887 133.607C241.387 133.771 241.812 134.041 242.164 134.416C242.523 134.791 242.797 135.279 242.984 135.88C243.172 136.474 243.266 137.205 243.266 138.072V146.263H240.43V138.06C240.43 137.451 240.34 136.97 240.16 136.619C239.988 136.259 239.734 136.005 239.398 135.857C239.07 135.701 238.66 135.623 238.168 135.623C237.684 135.623 237.25 135.724 236.867 135.927C236.484 136.13 236.16 136.408 235.895 136.759C235.637 137.111 235.438 137.517 235.297 137.978C235.156 138.439 235.086 138.931 235.086 139.455ZM252.261 133.583V135.646H245.113V133.583H252.261ZM247.175 130.478H249.999V142.759C249.999 143.15 250.054 143.451 250.163 143.662C250.28 143.865 250.441 144.001 250.644 144.072C250.847 144.142 251.085 144.177 251.359 144.177C251.554 144.177 251.741 144.166 251.921 144.142C252.101 144.119 252.245 144.095 252.355 144.072L252.366 146.228C252.132 146.298 251.859 146.361 251.546 146.416C251.241 146.47 250.89 146.498 250.491 146.498C249.843 146.498 249.269 146.384 248.769 146.158C248.269 145.923 247.878 145.544 247.597 145.021C247.316 144.498 247.175 143.802 247.175 142.935V130.478ZM261.889 143.72V137.673C261.889 137.22 261.807 136.83 261.643 136.501C261.479 136.173 261.229 135.919 260.893 135.74C260.565 135.56 260.151 135.47 259.651 135.47C259.19 135.47 258.791 135.548 258.455 135.705C258.12 135.861 257.858 136.072 257.67 136.337C257.483 136.603 257.389 136.904 257.389 137.24H254.577C254.577 136.74 254.698 136.255 254.94 135.787C255.182 135.318 255.534 134.9 255.995 134.533C256.455 134.166 257.006 133.876 257.647 133.666C258.287 133.455 259.006 133.349 259.803 133.349C260.756 133.349 261.6 133.509 262.334 133.83C263.077 134.15 263.659 134.634 264.08 135.283C264.51 135.923 264.725 136.728 264.725 137.697V143.333C264.725 143.912 264.764 144.431 264.842 144.892C264.928 145.345 265.049 145.74 265.205 146.076V146.263H262.311C262.178 145.958 262.073 145.572 261.995 145.103C261.924 144.626 261.889 144.166 261.889 143.72ZM262.299 138.552L262.323 140.298H260.295C259.772 140.298 259.311 140.349 258.912 140.451C258.514 140.544 258.182 140.685 257.916 140.873C257.651 141.06 257.452 141.287 257.319 141.552C257.186 141.818 257.12 142.119 257.12 142.455C257.12 142.791 257.198 143.099 257.354 143.38C257.51 143.654 257.737 143.869 258.034 144.025C258.338 144.181 258.705 144.259 259.135 144.259C259.713 144.259 260.217 144.142 260.647 143.908C261.084 143.666 261.428 143.373 261.678 143.029C261.928 142.677 262.061 142.345 262.077 142.033L262.991 143.287C262.897 143.607 262.737 143.951 262.51 144.318C262.284 144.685 261.987 145.037 261.62 145.373C261.26 145.701 260.827 145.97 260.319 146.181C259.819 146.392 259.241 146.498 258.584 146.498C257.756 146.498 257.018 146.333 256.37 146.005C255.721 145.669 255.213 145.22 254.846 144.658C254.479 144.087 254.295 143.443 254.295 142.724C254.295 142.052 254.42 141.458 254.67 140.943C254.928 140.419 255.303 139.982 255.795 139.63C256.295 139.279 256.905 139.013 257.623 138.833C258.342 138.646 259.162 138.552 260.084 138.552H262.299ZM273.791 133.583V135.646H266.642V133.583H273.791ZM268.705 130.478H271.529V142.759C271.529 143.15 271.584 143.451 271.693 143.662C271.81 143.865 271.97 144.001 272.173 144.072C272.377 144.142 272.615 144.177 272.888 144.177C273.084 144.177 273.271 144.166 273.451 144.142C273.63 144.119 273.775 144.095 273.884 144.072L273.896 146.228C273.662 146.298 273.388 146.361 273.076 146.416C272.771 146.47 272.42 146.498 272.021 146.498C271.373 146.498 270.798 146.384 270.298 146.158C269.798 145.923 269.408 145.544 269.127 145.021C268.845 144.498 268.705 143.802 268.705 142.935V130.478ZM279.294 133.583V146.263H276.458V133.583H279.294ZM276.27 130.255C276.27 129.826 276.411 129.47 276.692 129.189C276.981 128.9 277.38 128.755 277.887 128.755C278.387 128.755 278.782 128.9 279.071 129.189C279.36 129.47 279.505 129.826 279.505 130.255C279.505 130.677 279.36 131.029 279.071 131.31C278.782 131.591 278.387 131.732 277.887 131.732C277.38 131.732 276.981 131.591 276.692 131.31C276.411 131.029 276.27 130.677 276.27 130.255ZM282.148 140.064V139.794C282.148 138.88 282.281 138.033 282.547 137.251C282.812 136.462 283.195 135.779 283.695 135.201C284.203 134.615 284.82 134.162 285.547 133.841C286.281 133.513 287.109 133.349 288.031 133.349C288.961 133.349 289.789 133.513 290.516 133.841C291.25 134.162 291.871 134.615 292.379 135.201C292.887 135.779 293.273 136.462 293.539 137.251C293.805 138.033 293.938 138.88 293.938 139.794V140.064C293.938 140.978 293.805 141.826 293.539 142.607C293.273 143.388 292.887 144.072 292.379 144.658C291.871 145.236 291.254 145.689 290.527 146.017C289.801 146.337 288.977 146.498 288.055 146.498C287.125 146.498 286.293 146.337 285.559 146.017C284.832 145.689 284.215 145.236 283.707 144.658C283.199 144.072 282.812 143.388 282.547 142.607C282.281 141.826 282.148 140.978 282.148 140.064ZM284.973 139.794V140.064C284.973 140.634 285.031 141.173 285.148 141.681C285.266 142.189 285.449 142.634 285.699 143.017C285.949 143.4 286.27 143.701 286.66 143.919C287.051 144.138 287.516 144.248 288.055 144.248C288.578 144.248 289.031 144.138 289.414 143.919C289.805 143.701 290.125 143.4 290.375 143.017C290.625 142.634 290.809 142.189 290.926 141.681C291.051 141.173 291.113 140.634 291.113 140.064V139.794C291.113 139.232 291.051 138.701 290.926 138.201C290.809 137.693 290.621 137.244 290.363 136.853C290.113 136.462 289.793 136.158 289.402 135.939C289.02 135.712 288.562 135.599 288.031 135.599C287.5 135.599 287.039 135.712 286.648 135.939C286.266 136.158 285.949 136.462 285.699 136.853C285.449 137.244 285.266 137.693 285.148 138.201C285.031 138.701 284.973 139.232 284.973 139.794ZM299.405 136.291V146.263H296.581V133.583H299.241L299.405 136.291ZM298.902 139.455L297.988 139.443C297.995 138.544 298.12 137.72 298.363 136.97C298.613 136.22 298.956 135.576 299.394 135.037C299.839 134.498 300.37 134.083 300.988 133.794C301.605 133.498 302.292 133.349 303.05 133.349C303.659 133.349 304.21 133.435 304.702 133.607C305.202 133.771 305.628 134.041 305.98 134.416C306.339 134.791 306.613 135.279 306.8 135.88C306.988 136.474 307.081 137.205 307.081 138.072V146.263H304.245V138.06C304.245 137.451 304.155 136.97 303.976 136.619C303.804 136.259 303.55 136.005 303.214 135.857C302.886 135.701 302.476 135.623 301.984 135.623C301.499 135.623 301.066 135.724 300.683 135.927C300.3 136.13 299.976 136.408 299.71 136.759C299.452 137.111 299.253 137.517 299.113 137.978C298.972 138.439 298.902 138.931 298.902 139.455Z" fill="white"/>
<defs>
<clipPath id="clip0_3492_13616">
<rect width="119" height="119" fill="white" transform="translate(39 57.2632)"/>
</clipPath>
</defs>
</svg>
