<svg width="60" height="61" viewBox="0 0 60 61" fill="none" xmlns="http://www.w3.org/2000/svg">
<path d="M30.1725 34.9181C18.5131 34.9181 9.02698 44.4048 9.02698 56.066C9.02698 56.5611 9.42816 56.9629 9.92381 56.9629H50.4213C50.9163 56.9629 51.3181 56.5611 51.3181 56.066C51.3181 44.4048 41.8326 34.9181 30.1725 34.9181ZM10.841 55.1692C11.3109 44.9118 19.8021 36.7118 30.1725 36.7118C40.5429 36.7118 49.0348 44.9118 49.5041 55.1692H10.841Z" fill="#B75400"/>
<path d="M29.8203 8.3981C23.1072 8.3981 17.6455 13.8598 17.6455 20.5729C17.6455 27.286 23.1072 32.7477 29.8203 32.7477C36.534 32.7477 41.9952 27.286 41.9952 20.5729C41.9952 13.8598 36.5334 8.3981 29.8203 8.3981ZM29.8203 30.9541C24.0961 30.9541 19.4392 26.2971 19.4392 20.5729C19.4392 14.8487 24.0961 10.1918 29.8203 10.1918C35.5445 10.1918 40.2015 14.8487 40.2015 20.5729C40.2015 26.2971 35.5445 30.9541 29.8203 30.9541Z" fill="#B75400"/>
<path d="M15.0298 27.2376C15.5254 27.2376 15.9266 26.8364 15.9266 26.3408V14.7345C15.9266 14.6771 15.92 14.6215 15.9099 14.5671C18.3128 8.99539 23.7147 5.41702 29.8209 5.41702C36.0366 5.41702 41.5288 9.12513 43.863 14.8732V26.2732C43.1108 28.1255 42.0185 29.7912 40.6045 31.2237C40.2565 31.5765 40.2601 32.1439 40.6129 32.4918C40.7874 32.6646 41.0152 32.7507 41.243 32.7507C41.4744 32.7507 41.7058 32.6616 41.881 32.4841C43.3877 30.9577 44.5685 29.1933 45.4043 27.2382H46.0345C49.7289 27.2382 52.7345 24.2326 52.7345 20.5382C52.7345 16.8439 49.7289 13.8383 46.0345 13.8383H45.3661C42.6738 7.61845 36.6393 3.62395 29.8209 3.62395C22.999 3.62395 16.9639 7.61785 14.2728 13.8383H13.7551C10.0607 13.8383 7.05511 16.8439 7.05511 20.5382C7.05511 24.2326 10.0607 27.2382 13.7551 27.2382H15.0298V27.2376ZM50.9408 20.5376C50.9408 23.2431 48.7394 25.4439 46.0345 25.4439H45.6566V15.6314H46.0345C48.74 15.6314 50.9408 17.8322 50.9408 20.5376ZM8.84878 20.5376C8.84878 17.8322 11.0496 15.6314 13.7551 15.6314H14.1329V25.4439H13.7551C11.0496 25.4439 8.84878 23.2431 8.84878 20.5376Z" fill="#B75400"/>
</svg>
