<svg xmlns="http://www.w3.org/2000/svg" width="212" height="104" viewBox="0 0 212 104" fill="none">
<path d="M74.1747 69.381C74.1747 70.254 74.1747 71.2857 73.0636 71.9206C72.4287 72.3175 71.635 72.3175 71.3969 72.3175C70.9207 72.3175 69.8096 72.2381 69.2541 71.5238C68.6191 70.8095 68.6191 70.0952 68.6191 69.4603V64.2222H70.1271V69.381C70.1271 69.8571 70.2064 70.4127 70.4445 70.6508C70.6826 70.8889 71.1588 71.0476 71.5556 71.0476C72.0318 71.0476 72.508 70.8889 72.7461 70.5714C72.9842 70.254 72.9842 69.6984 72.9842 69.381V64.2222H74.1747V69.381ZM83.3017 72.2381H81.9525L78.8572 67.1587C78.7779 67 78.4604 66.4444 78.381 66.2857V72.3175H77.1906V64.2222H78.7779L81.5556 68.9048C81.5556 68.9841 81.7937 69.3016 82.0318 69.8571V64.2222H83.2223V72.2381H83.3017Z" fill="#003B49"/>
<path d="M86.873 64.2222H88.3016V72.2381H86.873V64.2222ZM93.4604 72.2381L91 64.2222H92.5873L94.4127 70.4127L96.2381 64.2222H97.4286L94.9683 72.2381H93.4604ZM100.127 72.2381V64.2222H105.286V65.4127H101.556V67.6349H104.571V68.746H101.556V71.0476H105.365V72.2381H100.127Z" fill="#003B49"/>
<path d="M113.064 72.2381L111.794 68.9841H109.73V72.2381H108.302V64.2222H111.794C112.826 64.2222 113.381 64.3809 113.857 64.8571C114.254 65.254 114.572 65.7302 114.572 66.6032C114.572 68.1111 113.54 68.5079 113.143 68.746L114.572 72.2381H113.064ZM109.81 67.7936H111.635C112.349 67.7936 113.143 67.5556 113.143 66.5238C113.143 65.8889 112.746 65.3333 111.714 65.3333H109.81V67.7936ZM118.143 70.0159C118.222 70.3333 118.381 70.8095 119.095 71.0476C119.492 71.2063 119.81 71.2063 120.127 71.2063C121.476 71.2063 121.714 70.4921 121.714 70.1746C121.714 69.3809 121.08 69.2222 120.762 69.1429L118.937 68.6667C117.746 68.3492 117.191 67.5556 117.191 66.5238C117.191 65.0159 118.381 64.1429 120.048 64.1429C120.841 64.1429 121.635 64.3809 122.27 64.8571C122.746 65.254 122.905 65.6508 122.905 65.8889L121.556 66.2063C121.476 65.9682 121.238 65.3333 120.048 65.3333C118.937 65.3333 118.699 65.8889 118.699 66.3651C118.699 67 119.413 67.2381 119.81 67.3175L121.159 67.6349C121.873 67.7936 123.222 68.1905 123.222 69.9365C123.222 71.5238 121.873 72.4762 120.048 72.4762C119.095 72.4762 118.222 72.2381 117.587 71.6825C117.032 71.2857 116.873 70.7302 116.794 70.4127L118.143 70.0159Z" fill="#003B49"/>
<path d="M126.159 64.2222H127.587V72.2381H126.159V64.2222ZM132.429 72.2381V65.4921H130.286V64.2222H136.079V65.4921H134.016V72.2381H132.429ZM140.762 72.2381V68.9048L138.063 64.2222H139.81L141.714 67.5556L143.54 64.2222H144.889L142.349 68.9048V72.2381H140.762ZM75.2857 85.4921C72.746 85.4921 71.9524 83.1905 71.9524 81.3651C71.9524 79.2222 73.1429 77.2381 75.3651 77.2381C77.5873 77.2381 78.6984 79.2222 78.6984 81.3651C78.6984 83.746 77.4286 85.4921 75.2857 85.4921ZM76.7937 79.2222C76.3968 78.4286 75.6826 78.3492 75.3651 78.3492C73.8572 78.3492 73.5397 79.8571 73.5397 81.2857C73.5397 82.2381 73.6984 84.2222 75.3651 84.2222C76.0794 84.2222 76.6349 83.746 76.873 83.2698C77.0318 82.873 77.2699 82.3968 77.2699 81.2064C77.1905 80.9683 77.1905 80.0159 76.7937 79.2222ZM81.1587 85.3333V77.3175H86.1587V78.5873H82.5873V80.7302H85.4445V82H82.5873V85.3333H81.1587Z" fill="#003B49"/>
<path d="M92.8253 83.1111C92.9046 83.4286 93.0634 83.9048 93.7777 84.1429C94.1745 84.3016 94.4919 84.3016 94.8094 84.3016C96.1586 84.3016 96.3967 83.5873 96.3967 83.2698C96.3967 82.4762 95.7618 82.3175 95.4443 82.2381L93.6189 81.7619C92.4285 81.4444 91.8729 80.6508 91.8729 79.6191C91.8729 78.1111 93.0634 77.2381 94.73 77.2381C95.5237 77.2381 96.3173 77.4762 96.9523 77.9524C97.4285 78.3492 97.5872 78.746 97.5872 78.9841L96.238 79.3016C96.1586 79.0635 95.9205 78.4286 94.73 78.4286C93.6189 78.4286 93.3808 78.9841 93.3808 79.4603C93.3808 80.0952 94.0951 80.3333 94.4919 80.4127L95.8412 80.7302C96.5554 80.8889 97.9046 81.2857 97.9046 83.0318C97.9046 84.6191 96.5554 85.5714 94.73 85.5714C93.7777 85.5714 92.9046 85.3333 92.2697 84.7778C91.7142 84.381 91.5554 83.8254 91.4761 83.5079L92.8253 83.1111ZM106.079 82.4762C106.079 83.3492 106.079 84.381 104.968 85.0159C104.333 85.4127 103.54 85.4127 103.301 85.4127C102.825 85.4127 101.714 85.3333 101.159 84.6191C100.524 83.9048 100.524 83.1905 100.524 82.5556V77.3175H102.032V82.4762C102.032 82.9524 102.111 83.5079 102.349 83.746C102.587 83.9841 103.063 84.1429 103.46 84.1429C103.936 84.1429 104.413 83.9841 104.651 83.6667C104.889 83.3492 104.889 82.7937 104.889 82.4762V77.3175H106.079V82.4762ZM109.492 83.1111C109.571 83.4286 109.73 83.9048 110.444 84.1429C110.841 84.3016 111.159 84.3016 111.476 84.3016C112.825 84.3016 113.063 83.5873 113.063 83.2698C113.063 82.4762 112.428 82.3175 112.111 82.2381L110.206 81.7619C109.016 81.4444 108.46 80.6508 108.46 79.6191C108.46 78.1111 109.651 77.2381 111.317 77.2381C112.111 77.2381 112.905 77.4762 113.54 77.9524C114.016 78.3492 114.174 78.746 114.174 78.9841L112.825 79.3016C112.746 79.0635 112.508 78.4286 111.317 78.4286C110.206 78.4286 109.968 78.9841 109.968 79.4603C109.968 80.0952 110.682 80.3333 111.079 80.4127L112.428 80.7302C113.143 80.8889 114.492 81.2857 114.492 83.0318C114.492 84.6191 113.143 85.5714 111.317 85.5714C110.365 85.5714 109.492 85.3333 108.857 84.7778C108.301 84.381 108.143 83.8254 108.063 83.5079L109.492 83.1111ZM117.667 83.1111C117.746 83.4286 117.905 83.9048 118.619 84.1429C119.016 84.3016 119.333 84.3016 119.651 84.3016C121 84.3016 121.238 83.5873 121.238 83.2698C121.238 82.4762 120.603 82.3175 120.286 82.2381L118.46 81.7619C117.27 81.4444 116.714 80.6508 116.714 79.6191C116.714 78.1111 117.905 77.2381 119.571 77.2381C120.365 77.2381 121.159 77.4762 121.794 77.9524C122.27 78.3492 122.428 78.746 122.428 78.9841L121.079 79.3016C121 79.0635 120.762 78.4286 119.571 78.4286C118.46 78.4286 118.222 78.9841 118.222 79.4603C118.222 80.0952 118.936 80.3333 119.333 80.4127L120.682 80.7302C121.397 80.8889 122.746 81.2857 122.746 83.0318C122.746 84.6191 121.397 85.5714 119.571 85.5714C118.619 85.5714 117.746 85.3333 117.111 84.7778C116.555 84.381 116.397 83.8254 116.317 83.5079L117.667 83.1111Z" fill="#003B49"/>
<path d="M125.286 85.3333V77.3174H130.444V78.5079H126.714V80.7301H129.73V81.8413H126.714V84.0635H130.524V85.3333H125.286ZM137.746 85.3333L135.921 82.1587L134.095 85.3333H132.746L135.286 81.127L133.063 77.3174H134.73L136.238 80.0159L137.825 77.3174H139.175L136.952 80.9682L139.413 85.3333H137.746ZM78.8571 40.1746C78.8571 48.6667 82.5872 53.4286 90.7618 53.4286C96.6349 53.4286 101.238 50.0159 103.381 44.6984C103.381 44.619 103.46 44.619 103.46 44.619V44.6984C106.238 50.0952 112.032 53.4286 120.048 53.4286C128.54 53.4286 135.286 49.0635 135.286 42.5555C135.286 37.873 132.349 35.0159 126.397 32.3174C125.524 31.9206 123.698 31.0476 122.905 30.6508C119.809 29.1428 117.984 27.7936 117.984 25.0159C117.984 22.0794 120.603 20.0952 124.095 20.0952C129.571 20.0952 131.714 24.1428 133.222 28.5873H134.571L133.857 18.9047H132.825L132.667 19.0635C131.952 19.9365 131.079 19.9365 129.651 19.4603C127.984 18.9047 126.079 18.4286 123.936 18.4286C117.349 18.4286 112.429 22.5555 112.429 27.7936C112.429 32.2381 115.048 35.0952 120.206 37.3968C120.921 37.7143 122.667 38.5873 123.619 38.9841C126.635 40.4127 129.095 41.8413 129.095 45.0952C129.095 49.3016 124.809 51.6032 120.127 51.6032C112.667 51.6032 108.46 46.7619 108.46 38.5079V19.3809H95.4444V20.7301H95.8412C100.841 21.2063 101.476 22.0794 101.476 27.2381V38.4286C101.476 46.3651 98.2222 51.0476 92.8253 51.0476C87.9047 51.0476 86.0793 47.2381 86.0793 40.6508V19.3809H73.2222V20.7301H73.5396C78.2222 21.2063 78.9365 21.7619 78.9365 27.0794V40.1746H78.8571Z" fill="#003B49"/>
</svg>
