<svg width="60" height="61" viewBox="0 0 60 61" fill="none" xmlns="http://www.w3.org/2000/svg">
<path d="M25.8939 25.3232C31.5089 25.3232 36.0763 20.7558 36.0763 15.1414C36.0763 9.52824 31.5083 4.96147 25.8939 4.96147C20.2814 4.96147 15.7152 9.52824 15.7152 15.1414C15.7152 20.7558 20.2814 25.3232 25.8939 25.3232ZM25.8939 6.77453C30.5096 6.77453 34.2638 10.5281 34.2638 15.142C34.2638 19.7571 30.509 23.5113 25.8939 23.5113C21.2806 23.5113 17.5277 19.7571 17.5277 15.142C17.5277 10.5281 21.2806 6.77453 25.8939 6.77453Z" fill="#B75400"/>
<path d="M53.4064 43.8875H50.6973V29.9757C50.6973 29.7437 50.6091 29.5214 50.449 29.3528L48.23 27.0087C48.9254 25.6101 48.6179 23.8659 47.3745 22.8141L44.9035 20.7231C44.1949 20.1244 43.2965 19.8375 42.3734 19.9136C41.4484 19.9903 40.6086 20.4229 40.0093 21.1315C38.7738 22.5924 38.9569 24.7879 40.4177 26.0246L42.8881 28.1167C43.5394 28.6671 44.3356 28.936 45.1289 28.936C45.7934 28.936 46.4532 28.742 47.0241 28.3711L48.8849 30.337V43.8887H43.7345C43.4983 34.4108 35.7198 26.7713 26.1857 26.7713C16.6529 26.7713 8.87563 34.4108 8.63941 43.8887H6.3823C5.88146 43.8887 5.47607 44.2947 5.47607 44.7949V54.7193C5.47607 55.2201 5.88146 55.6255 6.3823 55.6255H53.4064C53.9066 55.6255 54.3126 55.2201 54.3126 54.7193V44.7949C54.3126 44.2935 53.9066 43.8875 53.4064 43.8875ZM44.0589 26.732L41.5886 24.6398C40.8902 24.0484 40.8026 22.999 41.3934 22.3006C41.6798 21.9616 42.0809 21.755 42.5232 21.7188C42.5697 21.7152 42.6162 21.7133 42.6627 21.7133C43.0542 21.7133 43.4306 21.8505 43.7327 22.106L46.2037 24.197C46.9015 24.7879 46.9891 25.8379 46.3976 26.5369C45.8079 27.2347 44.7567 27.3223 44.0589 26.732ZM26.1857 28.5819C34.7206 28.5819 41.6864 35.4082 41.9221 43.8869H10.4519C10.6869 35.4088 17.6521 28.5819 26.1857 28.5819ZM52.5001 53.8119H7.28853V45.6999H52.5001V53.8119Z" fill="#B75400"/>
</svg>
