<svg width="60" height="60" viewBox="0 0 60 60" fill="none" xmlns="http://www.w3.org/2000/svg">
<path d="M25.3125 19.6875C25.3125 19.4389 25.2137 19.2004 25.0379 19.0246C24.8621 18.8488 24.6236 18.75 24.375 18.75H20.625C20.3764 18.75 20.1379 18.8488 19.9621 19.0246C19.7863 19.2004 19.6875 19.4389 19.6875 19.6875V23.4375C19.6875 23.6861 19.7863 23.9246 19.9621 24.1004C20.1379 24.2762 20.3764 24.375 20.625 24.375H24.375C24.6236 24.375 24.8621 24.2762 25.0379 24.1004C25.2137 23.9246 25.3125 23.6861 25.3125 23.4375V19.6875ZM23.4375 22.5H21.5625V20.625H23.4375V22.5Z" fill="#B75400"/>
<path d="M32.8125 19.6875C32.8125 19.4389 32.7137 19.2004 32.5379 19.0246C32.3621 18.8488 32.1236 18.75 31.875 18.75H28.125C27.8764 18.75 27.6379 18.8488 27.4621 19.0246C27.2863 19.2004 27.1875 19.4389 27.1875 19.6875V23.4375C27.1875 23.6861 27.2863 23.9246 27.4621 24.1004C27.6379 24.2762 27.8764 24.375 28.125 24.375H31.875C32.1236 24.375 32.3621 24.2762 32.5379 24.1004C32.7137 23.9246 32.8125 23.6861 32.8125 23.4375V19.6875ZM30.9375 22.5H29.0625V20.625H30.9375V22.5Z" fill="#B75400"/>
<path d="M40.3125 19.6875C40.3125 19.4389 40.2137 19.2004 40.0379 19.0246C39.8621 18.8488 39.6236 18.75 39.375 18.75H35.625C35.3764 18.75 35.1379 18.8488 34.9621 19.0246C34.7863 19.2004 34.6875 19.4389 34.6875 19.6875V23.4375C34.6875 23.6861 34.7863 23.9246 34.9621 24.1004C35.1379 24.2762 35.3764 24.375 35.625 24.375H39.375C39.6236 24.375 39.8621 24.2762 40.0379 24.1004C40.2137 23.9246 40.3125 23.6861 40.3125 23.4375V19.6875ZM38.4375 22.5H36.5625V20.625H38.4375V22.5Z" fill="#B75400"/>
<path d="M25.3125 27.1875C25.3125 26.9389 25.2137 26.7004 25.0379 26.5246C24.8621 26.3488 24.6236 26.25 24.375 26.25H20.625C20.3764 26.25 20.1379 26.3488 19.9621 26.5246C19.7863 26.7004 19.6875 26.9389 19.6875 27.1875V30.9375C19.6875 31.1861 19.7863 31.4246 19.9621 31.6004C20.1379 31.7762 20.3764 31.875 20.625 31.875H24.375C24.6236 31.875 24.8621 31.7762 25.0379 31.6004C25.2137 31.4246 25.3125 31.1861 25.3125 30.9375V27.1875ZM23.4375 30H21.5625V28.125H23.4375V30Z" fill="#B75400"/>
<path d="M32.8125 27.1875C32.8125 26.9389 32.7137 26.7004 32.5379 26.5246C32.3621 26.3488 32.1236 26.25 31.875 26.25H28.125C27.8764 26.25 27.6379 26.3488 27.4621 26.5246C27.2863 26.7004 27.1875 26.9389 27.1875 27.1875V30.9375C27.1875 31.1861 27.2863 31.4246 27.4621 31.6004C27.6379 31.7762 27.8764 31.875 28.125 31.875H31.875C32.1236 31.875 32.3621 31.7762 32.5379 31.6004C32.7137 31.4246 32.8125 31.1861 32.8125 30.9375V27.1875ZM30.9375 30H29.0625V28.125H30.9375V30Z" fill="#B75400"/>
<path d="M40.3125 27.1875C40.3125 26.9389 40.2137 26.7004 40.0379 26.5246C39.8621 26.3488 39.6236 26.25 39.375 26.25H35.625C35.3764 26.25 35.1379 26.3488 34.9621 26.5246C34.7863 26.7004 34.6875 26.9389 34.6875 27.1875V30.9375C34.6875 31.1861 34.7863 31.4246 34.9621 31.6004C35.1379 31.7762 35.3764 31.875 35.625 31.875H39.375C39.6236 31.875 39.8621 31.7762 40.0379 31.6004C40.2137 31.4246 40.3125 31.1861 40.3125 30.9375V27.1875ZM38.4375 30H36.5625V28.125H38.4375V30Z" fill="#B75400"/>
<path d="M24.375 33.75H20.625C20.3764 33.75 20.1379 33.8488 19.9621 34.0246C19.7863 34.2004 19.6875 34.4389 19.6875 34.6875V38.4375C19.6875 38.6861 19.7863 38.9246 19.9621 39.1004C20.1379 39.2762 20.3764 39.375 20.625 39.375H24.375C24.6236 39.375 24.8621 39.2762 25.0379 39.1004C25.2137 38.9246 25.3125 38.6861 25.3125 38.4375V34.6875C25.3125 34.4389 25.2137 34.2004 25.0379 34.0246C24.8621 33.8488 24.6236 33.75 24.375 33.75ZM23.4375 37.5H21.5625V35.625H23.4375V37.5Z" fill="#B75400"/>
<path d="M31.875 33.75H28.125C27.8764 33.75 27.6379 33.8488 27.4621 34.0246C27.2863 34.2004 27.1875 34.4389 27.1875 34.6875V38.4375C27.1875 38.6861 27.2863 38.9246 27.4621 39.1004C27.6379 39.2762 27.8764 39.375 28.125 39.375H31.875C32.1236 39.375 32.3621 39.2762 32.5379 39.1004C32.7137 38.9246 32.8125 38.6861 32.8125 38.4375V34.6875C32.8125 34.4389 32.7137 34.2004 32.5379 34.0246C32.3621 33.8488 32.1236 33.75 31.875 33.75ZM30.9375 37.5H29.0625V35.625H30.9375V37.5Z" fill="#B75400"/>
<path d="M39.375 33.75H35.625C35.3764 33.75 35.1379 33.8488 34.9621 34.0246C34.7863 34.2004 34.6875 34.4389 34.6875 34.6875V38.4375C34.6875 38.6861 34.7863 38.9246 34.9621 39.1004C35.1379 39.2762 35.3764 39.375 35.625 39.375H39.375C39.6236 39.375 39.8621 39.2762 40.0379 39.1004C40.2137 38.9246 40.3125 38.6861 40.3125 38.4375V34.6875C40.3125 34.4389 40.2137 34.2004 40.0379 34.0246C39.8621 33.8488 39.6236 33.75 39.375 33.75ZM38.4375 37.5H36.5625V35.625H38.4375V37.5Z" fill="#B75400"/>
<path d="M14.0625 30.9375C14.0625 30.6889 13.9637 30.4504 13.7879 30.2746C13.6121 30.0988 13.3736 30 13.125 30C12.8764 30 12.6379 30.0988 12.4621 30.2746C12.2863 30.4504 12.1875 30.6889 12.1875 30.9375V34.6875C12.1875 34.9361 12.2863 35.1746 12.4621 35.3504C12.6379 35.5262 12.8764 35.625 13.125 35.625C13.3736 35.625 13.6121 35.5262 13.7879 35.3504C13.9637 35.1746 14.0625 34.9361 14.0625 34.6875V30.9375Z" fill="#B75400"/>
<path d="M9.375 30H4.6875V28.125H13.125C13.3736 28.125 13.6121 28.0262 13.7879 27.8504C13.9637 27.6746 14.0625 27.4361 14.0625 27.1875C14.0625 26.9389 13.9637 26.7004 13.7879 26.5246C13.6121 26.3488 13.3736 26.25 13.125 26.25H3.75C3.50136 26.25 3.2629 26.3488 3.08709 26.5246C2.91127 26.7004 2.8125 26.9389 2.8125 27.1875V57.1875C2.8125 57.4361 2.91127 57.6746 3.08709 57.8504C3.2629 58.0262 3.50136 58.125 3.75 58.125C3.99864 58.125 4.2371 58.0262 4.41291 57.8504C4.58873 57.6746 4.6875 57.4361 4.6875 57.1875V50.625H9.375C9.62364 50.625 9.8621 50.5262 10.0379 50.3504C10.2137 50.1746 10.3125 49.9361 10.3125 49.6875V45.9375C10.3125 45.6889 10.2137 45.4504 10.0379 45.2746C9.8621 45.0988 9.62364 45 9.375 45H4.6875V43.125H9.375C9.62364 43.125 9.8621 43.0262 10.0379 42.8504C10.2137 42.6746 10.3125 42.4361 10.3125 42.1875V38.4375C10.3125 38.1889 10.2137 37.9504 10.0379 37.7746C9.8621 37.5988 9.62364 37.5 9.375 37.5H4.6875V35.625H9.375C9.62364 35.625 9.8621 35.5262 10.0379 35.3504C10.2137 35.1746 10.3125 34.9361 10.3125 34.6875V30.9375C10.3125 30.6889 10.2137 30.4504 10.0379 30.2746C9.8621 30.0988 9.62364 30 9.375 30ZM8.4375 46.875V48.75H4.6875V46.875H8.4375ZM8.4375 39.375V41.25H4.6875V39.375H8.4375ZM8.4375 33.75H4.6875V31.875H8.4375V33.75Z" fill="#B75400"/>
<path d="M14.0625 38.4375C14.0625 38.1889 13.9637 37.9504 13.7879 37.7746C13.6121 37.5988 13.3736 37.5 13.125 37.5C12.8764 37.5 12.6379 37.5988 12.4621 37.7746C12.2863 37.9504 12.1875 38.1889 12.1875 38.4375V42.1875C12.1875 42.4361 12.2863 42.6746 12.4621 42.8504C12.6379 43.0262 12.8764 43.125 13.125 43.125C13.3736 43.125 13.6121 43.0262 13.7879 42.8504C13.9637 42.6746 14.0625 42.4361 14.0625 42.1875V38.4375Z" fill="#B75400"/>
<path d="M13.125 45C12.8764 45 12.6379 45.0988 12.4621 45.2746C12.2863 45.4504 12.1875 45.6889 12.1875 45.9375V49.6875C12.1875 49.9361 12.2863 50.1746 12.4621 50.3504C12.6379 50.5262 12.8764 50.625 13.125 50.625C13.3736 50.625 13.6121 50.5262 13.7879 50.3504C13.9637 50.1746 14.0625 49.9361 14.0625 49.6875V45.9375C14.0625 45.6889 13.9637 45.4504 13.7879 45.2746C13.6121 45.0988 13.3736 45 13.125 45Z" fill="#B75400"/>
<path d="M56.25 33.75H49.6875V23.4375C49.6875 23.1889 49.5887 22.9504 49.4129 22.7746C49.2371 22.5988 48.9986 22.5 48.75 22.5C48.5014 22.5 48.2629 22.5988 48.0871 22.7746C47.9113 22.9504 47.8125 23.1889 47.8125 23.4375V26.25H44.0625V23.4375C44.0625 23.1889 43.9637 22.9504 43.7879 22.7746C43.6121 22.5988 43.3736 22.5 43.125 22.5C42.8764 22.5 42.6379 22.5988 42.4621 22.7746C42.2863 22.9504 42.1875 23.1889 42.1875 23.4375V52.5H38.4375V46.875H39.375C39.6236 46.875 39.8621 46.7762 40.0379 46.6004C40.2137 46.4246 40.3125 46.1861 40.3125 45.9375V42.1875C40.3125 41.9389 40.2137 41.7004 40.0379 41.5246C39.8621 41.3488 39.6236 41.25 39.375 41.25H20.625C20.3764 41.25 20.1379 41.3488 19.9621 41.5246C19.7863 41.7004 19.6875 41.9389 19.6875 42.1875V45.9375C19.6875 46.1861 19.7863 46.4246 19.9621 46.6004C20.1379 46.7762 20.3764 46.875 20.625 46.875H21.5625V52.5H17.8125V16.875H42.1875V19.6875C42.1875 19.9361 42.2863 20.1746 42.4621 20.3504C42.6379 20.5262 42.8764 20.625 43.125 20.625C43.3736 20.625 43.6121 20.5262 43.7879 20.3504C43.9637 20.1746 44.0625 19.9361 44.0625 19.6875V15.9375C44.0625 15.6889 43.9637 15.4504 43.7879 15.2746C43.6121 15.0988 43.3736 15 43.125 15H36.5625V10.3125C36.5625 10.0639 36.4637 9.8254 36.2879 9.64959C36.1121 9.47377 35.8736 9.375 35.625 9.375H32.8125V6.5625C32.8125 6.31386 32.7137 6.0754 32.5379 5.89959C32.3621 5.72377 32.1236 5.625 31.875 5.625H30.9375V2.8125C30.9375 2.56386 30.8387 2.3254 30.6629 2.14959C30.4871 1.97377 30.2486 1.875 30 1.875C29.7514 1.875 29.5129 1.97377 29.3371 2.14959C29.1613 2.3254 29.0625 2.56386 29.0625 2.8125V5.625H28.125C27.8764 5.625 27.6379 5.72377 27.4621 5.89959C27.2863 6.0754 27.1875 6.31386 27.1875 6.5625V9.375H24.375C24.1264 9.375 23.8879 9.47377 23.7121 9.64959C23.5363 9.8254 23.4375 10.0639 23.4375 10.3125V15H16.875C16.6264 15 16.3879 15.0988 16.2121 15.2746C16.0363 15.4504 15.9375 15.6889 15.9375 15.9375V52.5H12.1875C11.9389 52.5 11.7004 52.5988 11.5246 52.7746C11.3488 52.9504 11.25 53.1889 11.25 53.4375C11.25 53.6861 11.3488 53.9246 11.5246 54.1004C11.7004 54.2762 11.9389 54.375 12.1875 54.375H46.875V56.25H12.1875C11.9389 56.25 11.7004 56.3488 11.5246 56.5246C11.3488 56.7004 11.25 56.9389 11.25 57.1875C11.25 57.4361 11.3488 57.6746 11.5246 57.8504C11.7004 58.0262 11.9389 58.125 12.1875 58.125H47.8125C48.0611 58.125 48.2996 58.0262 48.4754 57.8504C48.6512 57.6746 48.75 57.4361 48.75 57.1875V54.375H55.3125V57.1875C55.3125 57.4361 55.4113 57.6746 55.5871 57.8504C55.7629 58.0262 56.0014 58.125 56.25 58.125C56.4986 58.125 56.7371 58.0262 56.9129 57.8504C57.0887 57.6746 57.1875 57.4361 57.1875 57.1875V34.6875C57.1875 34.4389 57.0887 34.2004 56.9129 34.0246C56.7371 33.8488 56.4986 33.75 56.25 33.75ZM29.0625 7.5H30.9375V9.375H29.0625V7.5ZM25.3125 11.25H34.6875V15H25.3125V11.25ZM44.0625 48.75V46.875H55.3125V48.75H44.0625ZM51.5625 35.625V37.5H44.0625V35.625H51.5625ZM44.0625 45V43.125H45.9375V45H44.0625ZM47.8125 43.125H49.6875V45H47.8125V43.125ZM51.5625 43.125H55.3125V45H51.5625V43.125ZM55.3125 41.25H44.0625V39.375H55.3125V41.25ZM55.3125 35.625V37.5H53.4375V35.625H55.3125ZM47.8125 28.125V30H46.875C46.6264 30 46.3879 30.0988 46.2121 30.2746C46.0363 30.4504 45.9375 30.6889 45.9375 30.9375C45.9375 31.1861 46.0363 31.4246 46.2121 31.6004C46.3879 31.7762 46.6264 31.875 46.875 31.875H47.8125V33.75H44.0625V28.125H47.8125ZM21.5625 43.125H38.4375V45H21.5625V43.125ZM23.4375 46.875H29.0625V52.5H23.4375V46.875ZM30.9375 52.5V46.875H36.5625V52.5H30.9375ZM44.0625 52.5V50.625H47.8125V52.5H44.0625ZM49.6875 52.5V50.625H51.5625V52.5H49.6875ZM53.4375 52.5V50.625H55.3125V52.5H53.4375Z" fill="#B75400"/>
</svg>
