<svg width="60" height="60" viewBox="0 0 60 60" fill="none" xmlns="http://www.w3.org/2000/svg">
<path d="M1.95 40.8829C1.98281 41.2954 2.28187 41.6375 2.68687 41.7247L5.95406 42.4297C6.06938 42.9866 6.21562 43.536 6.39281 44.0722L3.91969 46.3129C3.61313 46.5904 3.525 47.0366 3.70312 47.4107C4.155 48.3613 4.65844 49.2397 5.19937 50.0216C5.43375 50.361 5.86313 50.5072 6.25781 50.3807L9.43313 49.3579C9.81281 49.7835 10.2169 50.1875 10.6425 50.5672L9.61969 53.7425C9.49312 54.1354 9.63844 54.5657 9.97875 54.801C10.7606 55.3419 11.6391 55.8454 12.5897 56.2972C12.9647 56.4754 13.41 56.3863 13.6875 56.0807L15.9281 53.6075C16.4653 53.7838 17.0147 53.931 17.5716 54.0463L18.2766 57.3135C18.3638 57.7175 18.7059 58.0166 19.1175 58.0504C19.6163 58.0897 20.1159 58.1254 20.625 58.1254C21.1341 58.1254 21.6337 58.0897 22.1325 58.0504C22.545 58.0175 22.8872 57.7185 22.9744 57.3135L23.6794 54.0463C24.2362 53.931 24.7866 53.7847 25.3228 53.6075L27.5634 56.0807C27.8419 56.3872 28.2881 56.4763 28.6613 56.2972C29.6119 55.8454 30.4903 55.341 31.2722 54.801C31.6125 54.5657 31.7578 54.1354 31.6313 53.7425L30.6084 50.5672C31.0341 50.1875 31.4381 49.7835 31.8178 49.3588L34.9931 50.3816C35.3859 50.5091 35.8162 50.3629 36.0516 50.0225C36.5925 49.2407 37.0959 48.3622 37.5478 47.4116C37.7259 47.0375 37.6378 46.5913 37.3312 46.3138L34.8581 44.0732C35.0344 43.536 35.1816 42.9866 35.2969 42.4297L38.5641 41.7247C38.9681 41.6375 39.2672 41.2954 39.3009 40.8838C39.3394 40.3841 39.375 39.8844 39.375 39.3754C39.375 38.8663 39.3394 38.3666 39.3 37.8679C39.2672 37.4554 38.9681 37.1132 38.5631 37.026L35.2959 36.321C35.1806 35.7641 35.0344 35.2138 34.8572 34.6775L37.3303 32.4369C37.6369 32.1594 37.725 31.7132 37.5469 31.3391C37.095 30.3885 36.5906 29.51 36.0506 28.7282C35.8153 28.3879 35.385 28.2416 34.9922 28.3691L31.8169 29.3919C31.4372 28.9663 31.0331 28.5622 30.6075 28.1825L31.6303 25.0072C31.7569 24.6144 31.6116 24.1841 31.2712 23.9488C30.4894 23.4079 29.6109 22.9044 28.6603 22.4525C28.2853 22.2735 27.84 22.3625 27.5625 22.6691L25.3219 25.1422C24.7847 24.966 24.2353 24.8188 23.6784 24.7035L22.9734 21.4363C22.8862 21.0322 22.5441 20.7332 22.1325 20.6994C21.1341 20.6188 20.115 20.6207 19.1166 20.6994C18.7041 20.7322 18.3619 21.0313 18.2747 21.4363L17.5697 24.7035C17.0128 24.8188 16.4634 24.965 15.9272 25.1422L13.6866 22.6691C13.4091 22.3625 12.9638 22.2744 12.5888 22.4525C11.6381 22.9044 10.7597 23.4079 9.97781 23.9488C9.6375 24.1841 9.49219 24.6144 9.61875 25.0072L10.6416 28.1825C10.2159 28.5622 9.81187 28.9663 9.43219 29.3919L6.25781 28.3691C5.86406 28.2416 5.43375 28.3879 5.19937 28.7282C4.65844 29.51 4.155 30.3885 3.70312 31.3391C3.525 31.7132 3.61313 32.1594 3.91969 32.4369L6.39281 34.6775C6.21656 35.2147 6.06938 35.7641 5.95406 36.321L2.68687 37.026C2.28281 37.1132 1.98375 37.4554 1.95 37.8669C1.91062 38.3666 1.875 38.8663 1.875 39.3754C1.875 39.8844 1.91062 40.3841 1.95 40.8829ZM3.76969 38.7107L6.95906 38.0216C7.33594 37.94 7.62469 37.6363 7.68656 37.2557C7.82719 36.3913 8.05406 35.5429 8.36063 34.7329C8.4975 34.3729 8.39906 33.965 8.11313 33.7063L5.70469 31.5238C5.91469 31.1216 6.13406 30.7363 6.36094 30.3716L9.45094 31.3672C9.81656 31.4844 10.2197 31.3672 10.4644 31.0691C11.0175 30.3922 11.6419 29.7688 12.3188 29.2147C12.6169 28.971 12.7359 28.5688 12.6169 28.2013L11.6213 25.1113C11.9859 24.8835 12.3703 24.6641 12.7734 24.455L14.9559 26.8644C15.2156 27.1504 15.6244 27.2488 15.9834 27.1119C16.7916 26.8054 17.64 26.5785 18.5053 26.4379C18.8859 26.376 19.1897 26.0872 19.2712 25.7104L19.9594 22.521C20.4009 22.4975 20.85 22.4966 21.2897 22.521L21.9788 25.7104C22.0603 26.0872 22.3641 26.376 22.7447 26.4379C23.6091 26.5785 24.4575 26.8054 25.2675 27.1119C25.6256 27.2488 26.0344 27.1513 26.2941 26.8644L28.4766 24.456C28.8787 24.666 29.2641 24.8854 29.6287 25.1122L28.6331 28.2022C28.515 28.5697 28.6331 28.971 28.9313 29.2157C29.6081 29.7688 30.2316 30.3932 30.7856 31.07C31.0303 31.3691 31.4325 31.4882 31.7991 31.3682L34.8891 30.3725C35.1169 30.7372 35.3363 31.1216 35.5453 31.5238L33.1359 33.7063C32.85 33.965 32.7516 34.3729 32.8884 34.7338C33.195 35.5419 33.4219 36.3904 33.5625 37.2557C33.6244 37.6363 33.9131 37.94 34.29 38.0216L37.4794 38.7097C37.4916 38.93 37.5 39.1522 37.5 39.3754C37.5 39.5985 37.4925 39.8207 37.4803 40.04L34.2909 40.7291C33.9141 40.8107 33.6253 41.1144 33.5634 41.495C33.4228 42.3594 33.1959 43.2079 32.8894 44.0179C32.7525 44.3779 32.8509 44.7857 33.1369 45.0444L35.5453 47.2269C35.3353 47.6291 35.1159 48.0144 34.8891 48.3791L31.7991 47.3835C31.4306 47.2635 31.0303 47.3825 30.7856 47.6816C30.2334 48.3566 29.6091 48.981 28.9313 49.536C28.6331 49.7797 28.515 50.1819 28.6331 50.5485L29.6287 53.6385C29.2641 53.8663 28.8797 54.0857 28.4775 54.2947L26.295 51.8854C26.0363 51.5994 25.6284 51.5029 25.2675 51.6379C24.4594 51.9444 23.6109 52.1713 22.7456 52.3119C22.365 52.3738 22.0612 52.6625 21.9797 53.0394L21.2916 56.2288C20.85 56.2522 20.4009 56.2532 19.9613 56.2288L19.2722 53.0394C19.1906 52.6625 18.8869 52.3738 18.5063 52.3119C17.6419 52.1713 16.7934 51.9444 15.9834 51.6379C15.6244 51.501 15.2156 51.5985 14.9569 51.8854L12.7744 54.2938C12.3722 54.0838 11.9869 53.8644 11.6222 53.6375L12.6178 50.5475C12.7359 50.18 12.6178 49.7788 12.3197 49.5341C11.6428 48.981 11.0194 48.3566 10.4653 47.6797C10.2206 47.3807 9.8175 47.2625 9.45187 47.3816L6.36187 48.3772C6.13406 48.0125 5.91469 47.6282 5.70563 47.225L8.115 45.0425C8.40094 44.7838 8.49937 44.376 8.3625 44.015C8.05594 43.2069 7.82906 42.3585 7.68844 41.4932C7.62656 41.1125 7.33781 40.8088 6.96094 40.7272L3.76969 40.041C3.75844 39.8207 3.75 39.5985 3.75 39.3754C3.75 39.1522 3.7575 38.93 3.76969 38.7107Z" fill="#B75400"/>
<path d="M50.8303 15.2198C51.1828 15.1092 51.4378 14.8008 51.48 14.4333C51.5362 13.9598 51.5625 13.5314 51.5625 13.1245C51.5625 12.7177 51.5362 12.2892 51.4809 11.8158C51.4387 11.4483 51.1838 11.1398 50.8313 11.0292L48.2316 10.2127C48.1537 9.99984 48.0675 9.79078 47.9728 9.58641L49.2328 7.17234C49.4034 6.84516 49.3659 6.44766 49.1372 6.15703C48.5944 5.47078 47.97 4.84641 47.2819 4.30172C46.9912 4.07203 46.5938 4.03547 46.2666 4.20516L43.8506 5.46516C43.6462 5.37141 43.4372 5.28516 43.2244 5.20734L42.4078 2.60766C42.2972 2.25516 41.9887 2.00016 41.6213 1.95797C40.6725 1.84734 39.9516 1.84734 39.0028 1.95797C38.6353 2.00016 38.3269 2.25516 38.2162 2.60766L37.3997 5.20734C37.1869 5.28516 36.9778 5.37141 36.7734 5.46609L34.3594 4.20609C34.0322 4.03641 33.6356 4.07297 33.3441 4.30172C32.6578 4.84453 32.0334 5.46891 31.4888 6.15703C31.2591 6.44766 31.2216 6.84422 31.3922 7.17234L32.6512 9.58641C32.5575 9.79078 32.4713 9.99984 32.3934 10.2127L29.7938 11.0292C29.4413 11.1398 29.1862 11.4483 29.1441 11.8158C29.0887 12.2892 29.0625 12.7177 29.0625 13.1245C29.0625 13.5314 29.0887 13.9598 29.1441 14.4333C29.1862 14.8008 29.4413 15.1092 29.7938 15.2198L32.3934 16.0364C32.4713 16.2492 32.5575 16.4583 32.6522 16.6627L31.3922 19.0767C31.2216 19.4039 31.2591 19.8014 31.4878 20.092C32.0306 20.7783 32.655 21.4027 33.3431 21.9473C33.6328 22.177 34.0312 22.2136 34.3584 22.0439L36.7725 20.7848C36.9769 20.8786 37.1859 20.9648 37.3987 21.0427L38.2153 23.6423C38.3259 23.9948 38.6344 24.2498 39.0019 24.292C39.4772 24.3483 39.9056 24.3745 40.3125 24.3745C40.7194 24.3745 41.1478 24.3483 41.6213 24.293C41.9887 24.2508 42.2972 23.9958 42.4078 23.6433L43.2244 21.0436C43.4372 20.9658 43.6462 20.8795 43.8506 20.7848L46.2647 22.0448C46.5919 22.2155 46.9894 22.1789 47.28 21.9492C47.9662 21.4064 48.5906 20.782 49.1353 20.0939C49.365 19.8033 49.4025 19.4067 49.2319 19.0786L47.9719 16.6645C48.0666 16.4602 48.1528 16.2511 48.2306 16.0383L50.8303 15.2198ZM47.2116 14.3911C46.9153 14.4848 46.6847 14.7183 46.5947 15.0164C46.4672 15.4402 46.2984 15.848 46.0941 16.2295C45.9469 16.5033 45.9441 16.8323 46.0884 17.107L47.2781 19.387C47.0559 19.6336 46.8206 19.8689 46.575 20.0902L44.295 18.9005C44.0194 18.7561 43.6903 18.7598 43.4175 18.9061C43.0359 19.1105 42.6281 19.2792 42.2044 19.4067C41.9072 19.4958 41.6728 19.7273 41.5791 20.0236L40.8066 22.4836C40.4644 22.5042 40.1616 22.5042 39.8184 22.4836L39.0459 20.0236C38.9522 19.7273 38.7187 19.4967 38.4206 19.4067C37.9959 19.2792 37.5881 19.1105 37.2084 18.9061C36.9347 18.7589 36.6056 18.7561 36.33 18.9005L34.05 20.0902C33.8034 19.868 33.5681 19.6327 33.3469 19.387L34.5366 17.107C34.68 16.8323 34.6781 16.5023 34.5309 16.2295C34.3266 15.848 34.1578 15.4402 34.0303 15.0164C33.9412 14.7192 33.7097 14.4848 33.4134 14.3911L30.9534 13.6186C30.9422 13.447 30.9375 13.283 30.9375 13.1245C30.9375 12.9661 30.9422 12.802 30.9534 12.6305L33.4134 11.858C33.7097 11.7642 33.9403 11.5308 34.0303 11.2327C34.1578 10.808 34.3266 10.4002 34.5309 10.0205C34.6781 9.74672 34.6809 9.41766 34.5366 9.14203L33.3469 6.86203C33.5691 6.61547 33.8044 6.38016 34.05 6.15891L36.33 7.34859C36.6047 7.49203 36.9347 7.48922 37.2075 7.34297C37.5891 7.13859 37.9969 6.96984 38.4206 6.84234C38.7178 6.75328 38.9522 6.52172 39.0459 6.22547L39.8184 3.76547C40.1606 3.74484 40.4634 3.74484 40.8066 3.76547L41.5791 6.22547C41.6728 6.52172 41.9063 6.75234 42.2044 6.84234C42.6291 6.96984 43.0369 7.13859 43.4166 7.34297C43.6903 7.49016 44.0194 7.49297 44.295 7.34859L46.575 6.15891C46.8216 6.38109 47.0569 6.61641 47.2781 6.86203L46.0884 9.14203C45.945 9.41672 45.9469 9.74672 46.0941 10.0195C46.2984 10.4011 46.4672 10.8089 46.5947 11.2327C46.6838 11.5298 46.9153 11.7642 47.2116 11.858L49.6716 12.6305C49.6828 12.802 49.6875 12.9661 49.6875 13.1245C49.6875 13.283 49.6828 13.447 49.6716 13.6186L47.2116 14.3911Z" fill="#B75400"/>
<path d="M57.4331 32.779L55.8225 32.2071C55.7306 31.9456 55.6256 31.6896 55.5066 31.4412L56.2387 29.899C56.3916 29.5784 56.3494 29.1996 56.13 28.9203C55.6613 28.3212 55.1194 27.7784 54.5184 27.3078C54.2381 27.0884 53.8575 27.0471 53.5388 27.199L51.9956 27.9312C51.7481 27.8131 51.4922 27.7071 51.2306 27.6162L50.6578 26.0056C50.5387 25.6709 50.2397 25.4318 49.8872 25.3887C49.0519 25.2884 48.4472 25.2884 47.6119 25.3887C47.2594 25.4309 46.9603 25.67 46.8413 26.0056L46.2694 27.6162C46.0078 27.7081 45.7519 27.8131 45.5034 27.9321L43.9612 27.2C43.6425 27.0481 43.2628 27.0903 42.9825 27.3087C42.3834 27.7775 41.8406 28.3193 41.37 28.9203C41.1516 29.1996 41.1094 29.5793 41.2613 29.9L41.9934 31.4431C41.8753 31.6906 41.7694 31.9465 41.6784 32.2081L40.0678 32.7809C39.7331 32.9 39.4941 33.199 39.4509 33.5515C39.3994 33.9668 39.375 34.339 39.375 34.6878C39.375 35.0365 39.3994 35.4078 39.45 35.825C39.4922 36.1775 39.7312 36.4765 40.0669 36.5956L41.6775 37.1675C41.7694 37.429 41.8744 37.685 41.9934 37.9334L41.2613 39.4756C41.1084 39.7962 41.1506 40.175 41.37 40.4543C41.8387 41.0534 42.3806 41.5962 42.9816 42.0668C43.2609 42.2853 43.6416 42.3275 43.9612 42.1756L45.5044 41.4434C45.7519 41.5615 46.0078 41.6675 46.2694 41.7584L46.8422 43.369C46.9613 43.7037 47.2603 43.9428 47.6128 43.9859C48.03 44.0384 48.4012 44.0628 48.75 44.0628C49.0988 44.0628 49.47 44.0384 49.8872 43.9878C50.2397 43.9456 50.5387 43.7065 50.6578 43.3709L51.2297 41.7603C51.4913 41.6684 51.7472 41.5634 51.9956 41.4443L53.5378 42.1765C53.8575 42.3293 54.2381 42.2881 54.5166 42.0678C55.1156 41.599 55.6584 41.0571 56.1291 40.4562C56.3475 40.1768 56.3897 39.7972 56.2378 39.4765L55.5056 37.9334C55.6238 37.6859 55.7297 37.43 55.8206 37.1684L57.4312 36.5956C57.7659 36.4765 58.005 36.1775 58.0481 35.825C58.1006 35.4078 58.125 35.0365 58.125 34.6878C58.125 34.339 58.1006 33.9678 58.05 33.5506C58.0078 33.1971 57.7688 32.899 57.4331 32.779ZM56.2406 35.03L54.7547 35.5578C54.4669 35.66 54.2466 35.8962 54.165 36.1906C54.0422 36.6359 53.8669 37.0606 53.6447 37.4534C53.4947 37.7187 53.4834 38.0412 53.6137 38.3168L54.2869 39.7353C54.1312 39.9059 53.9681 40.069 53.7984 40.2237L52.38 39.5506C52.1063 39.4203 51.7828 39.4315 51.5166 39.5815C51.1228 39.8047 50.6981 39.979 50.2547 40.1018C49.9603 40.1834 49.7241 40.4037 49.6209 40.6915L49.0931 42.1775C48.8663 42.1896 48.6356 42.1896 48.4088 42.1775L47.8809 40.6915C47.7788 40.4037 47.5425 40.1834 47.2481 40.1018C46.8028 39.979 46.3781 39.8037 45.9853 39.5815C45.72 39.4325 45.3984 39.4212 45.1219 39.5506L43.7034 40.2237C43.5328 40.0681 43.3697 39.905 43.215 39.7353L43.8881 38.3168C44.0194 38.0412 44.0072 37.7187 43.8572 37.4534C43.6341 37.0597 43.4597 36.635 43.3369 36.1915C43.2553 35.8972 43.035 35.6609 42.7472 35.5578L41.2613 35.03C41.2538 34.9165 41.25 34.8031 41.25 34.6878C41.25 34.5725 41.2537 34.4581 41.2594 34.3456L42.7453 33.8168C43.0331 33.7146 43.2534 33.4784 43.3341 33.184C43.4578 32.7378 43.6331 32.314 43.8553 31.9212C44.0053 31.6559 44.0166 31.3334 43.8863 31.0578L43.2131 29.6393C43.3688 29.4687 43.5319 29.3056 43.7016 29.1509L45.12 29.824C45.3956 29.9553 45.7181 29.944 45.9834 29.7931C46.3772 29.57 46.8019 29.3956 47.2453 29.2728C47.5397 29.1912 47.7759 28.9709 47.8791 28.6831L48.4069 27.1971C48.6337 27.185 48.8644 27.185 49.0912 27.1971L49.6191 28.6831C49.7212 28.9709 49.9575 29.1912 50.2519 29.2728C50.6972 29.3956 51.1219 29.5709 51.5147 29.7931C51.7809 29.944 52.1025 29.9553 52.3781 29.824L53.7966 29.1509C53.9672 29.3065 54.1303 29.4696 54.285 29.6393L53.6119 31.0578C53.4806 31.3334 53.4928 31.6559 53.6428 31.9212C53.8659 32.315 54.0403 32.7396 54.1631 33.1831C54.2447 33.4775 54.465 33.7137 54.7528 33.8168L56.2387 34.3446C56.2462 34.459 56.25 34.5725 56.25 34.6878C56.25 34.8031 56.2463 34.9165 56.2406 35.03Z" fill="#B75400"/>
<path d="M20.625 49.6875C26.3109 49.6875 30.9375 45.0609 30.9375 39.375C30.9375 33.6891 26.3109 29.0625 20.625 29.0625C14.9391 29.0625 10.3125 33.6891 10.3125 39.375C10.3125 45.0609 14.9391 49.6875 20.625 49.6875ZM20.625 30.9375C25.2769 30.9375 29.0625 34.7231 29.0625 39.375C29.0625 44.0269 25.2769 47.8125 20.625 47.8125C15.9731 47.8125 12.1875 44.0269 12.1875 39.375C12.1875 34.7231 15.9731 30.9375 20.625 30.9375Z" fill="#B75400"/>
<path d="M1.89551 23.7738L3.33551 24.9747C7.62832 19.8269 13.9293 16.8747 20.6249 16.8747C21.1021 16.8747 21.5783 16.9019 22.0546 16.9319L20.8996 18.0869L22.2252 19.4125L25.0377 16.6C25.4043 16.2335 25.4043 15.641 25.0377 15.2744L22.2252 12.4619L20.8996 13.7875L22.1736 15.0616C21.658 15.0288 21.1414 14.9997 20.6249 14.9997C13.3724 14.9997 6.54551 18.1975 1.89551 23.7738Z" fill="#B75400"/>
<path d="M40.3125 8.4375C37.7278 8.4375 35.625 10.5403 35.625 13.125C35.625 15.7097 37.7278 17.8125 40.3125 17.8125C42.8972 17.8125 45 15.7097 45 13.125C45 10.5403 42.8972 8.4375 40.3125 8.4375ZM40.3125 15.9375C38.7619 15.9375 37.5 14.6756 37.5 13.125C37.5 11.5744 38.7619 10.3125 40.3125 10.3125C41.8631 10.3125 43.125 11.5744 43.125 13.125C43.125 14.6756 41.8631 15.9375 40.3125 15.9375Z" fill="#B75400"/>
<path d="M48.75 30.9375C46.6819 30.9375 45 32.6194 45 34.6875C45 36.7556 46.6819 38.4375 48.75 38.4375C50.8181 38.4375 52.5 36.7556 52.5 34.6875C52.5 32.6194 50.8181 30.9375 48.75 30.9375ZM48.75 36.5625C47.7159 36.5625 46.875 35.7216 46.875 34.6875C46.875 33.6534 47.7159 32.8125 48.75 32.8125C49.7841 32.8125 50.625 33.6534 50.625 34.6875C50.625 35.7216 49.7841 36.5625 48.75 36.5625Z" fill="#B75400"/>
<path d="M57.371 4.70633L52.6835 3.76883C52.1735 3.66571 51.6813 3.99664 51.5801 4.50383L50.6426 9.19133L52.481 9.55977L52.9863 7.03602C53.8948 8.92602 54.3748 11.0091 54.3748 13.1251C54.3748 16.3576 53.3079 19.397 51.2904 21.9141L52.7538 23.087C55.0085 20.2735 56.2498 16.7363 56.2498 13.1251C56.2498 10.6698 55.6826 8.24914 54.6035 6.06477L57.0035 6.54477L57.371 4.70633Z" fill="#B75400"/>
</svg>
