<svg width="60" height="60" viewBox="0 0 60 60" fill="none" xmlns="http://www.w3.org/2000/svg">
<g clip-path="url(#clip0_225_20880)">
<path d="M45.4293 54.3767C45.1047 53.8172 44.3878 53.6267 43.8277 53.9513L43.7826 53.9773C43.2229 54.302 43.0325 55.0191 43.3571 55.5789C43.5745 55.9536 43.9676 56.1628 44.3717 56.1628C44.5711 56.1628 44.7736 56.1116 44.9587 56.0043L45.0038 55.9783C45.5635 55.6536 45.7539 54.9365 45.4293 54.3767Z" fill="#B75400"/>
<path d="M55.9797 15.0093C51.974 8.07118 45.5063 3.10841 37.768 1.03489C30.0298 -1.03863 21.9472 0.0255543 15.0091 4.03114C8.07113 8.03673 3.10824 14.5045 1.03484 22.2428C-1.03856 29.981 0.025502 38.0638 4.03109 45.0018C7.62418 51.2252 13.335 55.955 20.1114 58.3196C23.3237 59.4404 26.677 59.9998 30.0252 59.9998C33.6656 59.9998 37.2995 59.3381 40.7343 58.018C41.3384 57.7859 41.6398 57.1079 41.4076 56.5038C41.1753 55.8997 40.4973 55.598 39.8934 55.8306C30.7504 59.3447 20.8525 57.748 13.4577 52.1973L14.5075 46.717L15.0134 46.5527C16.9251 45.9316 17.9751 43.871 17.3543 41.9592L16.983 40.8168C16.8971 40.5524 16.8976 40.2729 16.9842 40.0088C17.3098 39.0159 17.1935 37.9297 16.6648 37.0283C16.1362 36.127 15.245 35.495 14.2195 35.2945L11.5746 34.7777L6.47128 30.8977C6.16554 30.6652 5.76535 30.5973 5.39996 30.7159L2.41214 31.6864C2.34874 30.6178 2.34781 29.5495 2.40804 28.4869C2.52593 28.5967 2.60269 28.6713 2.64992 28.7203C2.70839 28.8177 2.78082 28.907 2.86566 28.9843C3.10964 29.2065 3.33066 29.3073 3.79472 29.3073C4.22117 29.3072 4.85246 29.2222 5.89484 29.0682C6.88343 28.9221 7.86687 28.7575 7.8766 28.7558C8.2707 28.6898 8.60386 28.4273 8.76066 28.06C8.91746 27.6925 8.87609 27.2705 8.65097 26.9402L7.21414 24.8327L9.27218 23.3611C9.40929 23.263 9.52367 23.1366 9.60746 22.9903L12.7977 17.421L14.0836 16.0431C15.3976 14.6347 15.7726 12.5742 15.0387 10.7934C14.6059 9.74309 13.8498 8.86864 12.9041 8.2793C13.9283 7.47411 15.0203 6.73067 16.181 6.06071C20.4393 3.60212 25.0865 2.41067 29.6848 2.36509L27.5923 4.98997L19.8328 7.71024C19.5177 7.82063 19.2645 8.0604 19.1373 8.36907L16.9702 13.6223C16.8164 13.9956 16.8652 14.4215 17.0997 14.75L20.2647 19.1835C19.8114 19.597 19.3702 20.1994 18.8432 20.9473C18.6121 21.2753 18.3939 21.585 18.2431 21.7587C18.112 21.9098 17.9807 22.0575 17.8507 22.2038C17.1699 22.9696 16.4661 23.7616 15.9661 24.8196C14.8666 27.1468 15.0887 29.8518 16.5455 31.8789C17.9543 33.8388 20.2767 34.8352 22.7554 34.5436C23.1593 34.4963 23.5358 34.4031 23.9001 34.3129C24.9048 34.0643 25.223 34.0395 25.5453 34.3411C25.7021 34.4879 25.7165 34.5157 25.7134 35.0136C25.7111 35.3305 25.7087 35.7247 25.8179 36.1748C25.9929 36.895 26.4451 37.3927 26.8084 37.7925C26.9889 37.9911 27.1757 38.1967 27.2333 38.3346C27.5988 39.2105 27.4396 39.6955 27.0909 40.7584C27.061 40.8493 27.0305 40.9422 27 41.0373C26.4702 42.6773 27.2087 44.3041 27.8602 45.7392C28.0719 46.2053 28.2717 46.6452 28.4026 47.034C29.4562 50.1605 30.2461 50.8765 30.8799 51.1648C31.2119 51.3157 31.5555 51.3819 31.9026 51.3818C33.5919 51.3817 35.3546 49.8132 36.1644 48.8189C36.673 48.1945 36.7982 47.5693 36.8897 47.1127C36.9352 46.8855 36.9711 46.7062 37.0395 46.5891C37.1443 46.4098 37.2677 46.2708 37.4239 46.0948C37.7381 45.741 38.1291 45.3008 38.3824 44.5029C38.5748 43.8968 38.7146 43.7482 39.1776 43.2551C39.2582 43.1694 39.3441 43.0778 39.4364 42.9775C40.9972 41.2791 40.5952 39.9817 40.1695 38.608C39.8113 37.4522 40.4379 36.713 41.9529 35.3022C42.6096 34.6905 43.2886 34.0582 43.8134 33.2984C44.0431 32.9658 44.7419 31.9541 44.3095 30.9513C43.8856 29.9681 42.8083 29.8029 41.9428 29.6702C41.6009 29.6177 41.0844 29.5385 40.92 29.4311C40.1949 28.957 39.7514 27.9677 39.3223 27.0109C39.2369 26.8205 39.1527 26.6325 39.0672 26.45C38.9149 26.1245 38.7627 25.7306 38.6015 25.3137C38.1752 24.2102 37.692 22.9595 36.8695 22.0876C36.1302 21.3042 34.7364 20.9269 33.5068 20.5938C33.0932 20.4819 32.7029 20.3762 32.4454 20.2812C32.2297 20.2015 31.9955 20.1871 31.7722 20.2396C31.1737 20.3799 30.8004 20.5344 30.5231 20.7566C30.4498 20.8153 30.2329 21.0081 30.1059 21.3179C29.6769 21.112 29.087 20.7189 28.7239 20.4769C28.7164 20.4718 28.7088 20.4668 28.7013 20.4618C28.8236 19.9722 28.7129 19.5792 28.5969 19.3338C27.9423 17.9491 25.7693 18.0575 25.3406 18.094C25.0971 18.1144 24.789 18.1253 24.4631 18.1368C23.9512 18.1549 23.3854 18.1753 22.8256 18.2381L22.8545 18.1577C23.2794 16.9738 24.41 16.1783 25.6679 16.1783H26.3341C26.9811 16.1783 27.5059 15.6536 27.5059 15.0066C27.5059 14.3596 26.9811 13.8348 26.3341 13.8348H25.6679C23.8004 13.8348 22.0903 14.8177 21.1318 16.3647L19.3839 13.9163L21.1036 9.74801L28.6859 7.08973C28.8938 7.01684 29.0771 6.88676 29.2146 6.71438L32.5852 2.48637C41.1978 3.30563 49.3049 8.13446 53.9504 16.1808C55.1878 18.324 56.1031 20.5804 56.7117 22.8881L56.2149 23.3311C55.5665 23.9097 55.1866 24.7395 55.1721 25.6079C55.172 25.6174 55.1717 25.6268 55.1714 25.6362L54.3621 23.4106C54.2415 23.0784 54.0638 22.7739 53.8344 22.5054L52.3907 20.8152C51.8311 20.16 51.0161 19.7844 50.1547 19.7844H48.3876C47.7603 19.7844 47.187 20.128 46.8911 20.6808C46.5952 21.2337 46.6276 21.9014 46.9755 22.4231L47.1543 22.6916C46.0125 23.6735 44.6918 24.4593 43.2855 24.9892L40.8632 20.3494V19.3143C40.8632 18.9941 40.7322 18.6877 40.5006 18.4668L38.3193 16.3845C38.199 16.2696 38.0555 16.1817 37.8986 16.1265L35.9352 15.4365C35.3243 15.2216 34.6556 15.5431 34.4411 16.1535C34.2266 16.7641 34.5475 17.4329 35.1581 17.6475L36.8836 18.254L38.5197 19.8157V20.637C38.5197 20.8257 38.5654 21.0118 38.6529 21.1793L41.6853 26.9879C41.958 27.5106 42.577 27.7494 43.1294 27.545L44.0124 27.2195C46.0638 26.4629 47.9652 25.2459 49.5111 23.7002C49.906 23.3052 49.9674 22.6866 49.6575 22.2217L49.5951 22.1281H50.1547C50.3297 22.1281 50.4952 22.2043 50.6089 22.3375L52.0525 24.0277C52.0991 24.0822 52.135 24.1438 52.1597 24.2114L53.7528 28.5922C53.8897 28.9686 54.2094 29.2489 54.6001 29.3357C54.6845 29.3543 54.7694 29.3634 54.8539 29.3634C55.1613 29.3634 55.4605 29.2424 55.6824 29.0202L56.4407 28.2619C56.921 27.7815 57.2516 27.1738 57.4095 26.5001C58.5824 35.8991 54.8969 45.6219 47.107 51.7361C46.5978 52.1355 46.509 52.8721 46.9087 53.3812C47.3082 53.8904 48.0446 53.9793 48.5539 53.5795C54.178 49.1654 58.0416 42.852 59.4333 35.8021C60.8379 28.6842 59.6115 21.2997 55.9797 15.0093ZM5.54082 33.1343L10.3728 36.8082C10.5157 36.9169 10.6814 36.9912 10.8574 37.0255L13.7697 37.5946C14.1414 37.6672 14.4515 37.8871 14.6431 38.2138C14.8347 38.5404 14.875 38.9183 14.7571 39.2782C14.5146 40.018 14.5134 40.8005 14.754 41.5407L15.1252 42.6831C15.3471 43.3658 14.9718 44.1019 14.2892 44.3237L13.1247 44.7021C12.7184 44.8341 12.4163 45.1767 12.3361 45.596L11.3988 50.4885C9.33828 48.6026 7.52914 46.3737 6.06066 43.8301C4.2691 40.7273 3.14972 37.4179 2.65636 34.0714L5.54082 33.1343ZM12.3702 14.4442L10.9917 15.9211C10.9302 15.9871 10.8764 16.06 10.8315 16.1382L7.70117 21.6034L4.91902 23.5928C4.40082 23.9633 4.27355 24.6797 4.63238 25.2061L5.67289 26.7323C5.07312 26.8216 4.53488 26.8952 4.17699 26.9343C4.1082 26.8683 4.03624 26.8014 3.96183 26.7322C3.68328 26.4735 3.29621 26.1279 2.71917 25.6229C3.67085 19.7327 6.50914 14.1837 10.973 9.94794C11.8278 10.2171 12.5293 10.8547 12.872 11.6864C13.2575 12.6218 13.0604 13.7044 12.3702 14.4442ZM21.9245 20.8477C22.4471 20.5535 23.6602 20.5105 24.5459 20.4791C24.9009 20.4666 25.2363 20.4546 25.5358 20.4295C25.6939 20.4163 25.8695 20.4188 26.035 20.4316C25.9611 20.6215 25.9371 20.8298 25.9692 21.0366C26.0255 21.4002 26.2497 21.716 26.5741 21.8896C26.7939 22.0072 27.0999 22.2113 27.4238 22.4272C28.3396 23.0378 29.3778 23.7298 30.353 23.7919C31.2399 23.8494 31.7334 23.344 31.9448 23.1287C31.9617 23.1116 31.9776 23.0945 31.9945 23.0789C32.1136 22.9819 32.2251 22.8518 32.3081 22.6949C32.4955 22.7484 32.6923 22.8018 32.8941 22.8565C33.588 23.0443 34.8795 23.394 35.1649 23.6964C35.6717 24.2337 36.0668 25.2564 36.4154 26.1586C36.5915 26.6146 36.7579 27.0449 36.9446 27.4439C37.0248 27.6151 37.1036 27.7915 37.1838 27.9701C37.7245 29.1762 38.3374 30.5433 39.6376 31.3931C40.2272 31.7786 40.9498 31.8893 41.5876 31.9872C41.6647 31.999 41.7531 32.0126 41.8428 32.0273C41.4643 32.5554 40.9254 33.0572 40.3559 33.5875C38.9053 34.9384 37.0999 36.6198 37.9313 39.3021C38.3238 40.5687 38.3421 40.7056 37.711 41.392C37.625 41.4857 37.5448 41.571 37.4697 41.6509C36.9293 42.2263 36.5023 42.6807 36.1489 43.794C36.0463 44.1173 35.9132 44.2671 35.6717 44.539C35.4786 44.7565 35.238 45.0274 35.0162 45.4071C34.7504 45.862 34.6625 46.3001 34.5921 46.652C34.5226 46.9983 34.4832 47.1721 34.3473 47.3389C34.0378 47.7189 33.4605 48.2706 32.8679 48.6471C32.3171 48.9968 31.9955 49.0446 31.886 49.038C31.7609 48.904 31.308 48.317 30.6236 46.2858C30.4549 45.7847 30.2207 45.2691 29.9943 44.7704C29.4952 43.6712 28.9793 42.5345 29.2303 41.7577C29.2599 41.666 29.2892 41.5765 29.318 41.4889C29.7191 40.2667 30.0976 39.1125 29.3963 37.432C29.1828 36.9203 28.8429 36.5463 28.5432 36.2163C28.3493 36.0029 28.1295 35.7611 28.0957 35.6218C28.0544 35.452 28.0557 35.256 28.0572 35.029C28.0612 34.4167 28.0673 33.4915 27.1475 32.6302C25.8507 31.4163 24.3385 31.7903 23.3377 32.0378C23.0303 32.1137 22.74 32.1857 22.4826 32.2159C20.8364 32.4088 19.3666 31.7877 18.449 30.5108C17.4891 29.1752 17.3498 27.3779 18.0855 25.8205C18.4416 25.0669 18.9796 24.4614 19.6026 23.7606C19.7387 23.6074 19.876 23.453 20.0134 23.2948C20.2419 23.0313 20.4934 22.6746 20.7593 22.2969C21.0767 21.8463 21.6678 21.0073 21.9245 20.8477Z" fill="#B75400"/>
<path d="M48.0495 40.3447L47.4857 38.2196C47.3625 37.7556 46.9688 37.4136 46.4922 37.3567C46.015 37.3009 45.5522 37.5395 45.3231 37.9615C45.1947 38.1982 45.079 38.449 44.9672 38.6914C44.7791 39.0994 44.5846 39.5212 44.3822 39.7541C44.2685 39.8849 43.9765 40.0258 43.6943 40.162C43.0197 40.4876 42.0956 40.9335 41.7427 42.0587C41.5235 42.7567 41.6053 43.3089 41.6651 43.712C41.7168 44.0615 41.7287 44.1827 41.6351 44.4026L41.6234 44.4299C41.2504 45.3051 40.5564 46.9346 41.5295 48.3199C42.2238 49.3085 42.9539 49.5627 43.5212 49.5627C43.632 49.563 43.7367 49.5533 43.8336 49.5375C45.0289 49.3421 45.9275 48.0988 46.6618 45.6242L48.0402 40.9788C48.1015 40.7722 48.1048 40.5528 48.0495 40.3447ZM44.4152 44.9576C44.0409 46.2192 43.7098 46.8082 43.5186 47.0693C43.4966 47.0412 43.4727 47.0093 43.4472 46.9728C43.2232 46.6539 43.5579 45.8682 43.7794 45.3483L43.7912 45.3208C44.1484 44.4825 44.0529 43.8387 43.9834 43.3685C43.9388 43.0674 43.9228 42.9381 43.9787 42.7603C44.0247 42.6142 44.2992 42.4724 44.7129 42.2727C44.8963 42.1841 45.0982 42.0867 45.302 41.9688L44.4152 44.9576Z" fill="#B75400"/>
<path d="M31.6439 13.9288L31.5648 13.9011C30.9546 13.6874 30.2855 14.0084 30.0713 14.619C29.857 15.2298 30.1785 15.8984 30.7891 16.1126L30.8681 16.1403C30.9965 16.1853 31.1272 16.2066 31.256 16.2066C31.7398 16.2066 32.1926 15.9046 32.3618 15.4224C32.576 14.8116 32.2546 14.1429 31.6439 13.9288Z" fill="#B75400"/>
</g>
<defs>
<clipPath id="clip0_225_20880">
<rect width="60" height="60" fill="white"/>
</clipPath>
</defs>
</svg>
