<svg width="60" height="60" viewBox="0 0 60 60" fill="none" xmlns="http://www.w3.org/2000/svg">
<path d="M53.9101 30.0675C54.3925 30.0855 54.8735 30.0061 55.3245 29.8339C55.7755 29.6617 56.1871 29.4003 56.5347 29.0654C56.8824 28.7305 57.1589 28.329 57.3478 27.8847C57.5367 27.4405 57.634 26.9627 57.634 26.48C57.634 25.9973 57.5367 25.5195 57.3478 25.0753C57.1589 24.631 56.8824 24.2295 56.5347 23.8946C56.1871 23.5597 55.7755 23.2983 55.3245 23.1261C54.8735 22.9539 54.3925 22.8745 53.9101 22.8925C53.8326 22.8925 53.7601 22.9075 53.6801 22.9125L52.4751 18.1625C52.8735 17.8635 53.205 17.4844 53.4484 17.0498C53.6917 16.6151 53.8416 16.1344 53.8883 15.6384C53.9349 15.1424 53.8775 14.6422 53.7195 14.1697C53.5615 13.6973 53.3066 13.2631 52.971 12.8949C52.6354 12.5268 52.2265 12.2328 51.7707 12.0319C51.3148 11.831 50.822 11.7276 50.3238 11.7283C49.8257 11.7291 49.3332 11.8339 48.8779 12.0361C48.4226 12.2383 48.0146 12.5334 47.6801 12.9025L35.4551 7.22C35.5828 6.85673 35.6504 6.47504 35.6551 6.09C35.6677 5.61075 35.5843 5.13382 35.4096 4.68735C35.2349 4.24088 34.9726 3.83392 34.6381 3.49048C34.3036 3.14703 33.9037 2.87407 33.462 2.68768C33.0203 2.5013 32.5458 2.40527 32.0663 2.40527C31.5869 2.40527 31.1124 2.5013 30.6707 2.68768C30.229 2.87407 29.8291 3.14703 29.4946 3.49048C29.1601 3.83392 28.8977 4.24088 28.7231 4.68735C28.5484 5.13382 28.4649 5.61075 28.4776 6.09C28.4837 6.21224 28.4962 6.33407 28.5151 6.455L20.7301 8.8425C20.1925 8.17452 19.4327 7.72202 18.5893 7.5675C17.7459 7.41298 16.875 7.56674 16.1355 8.00074C15.396 8.43474 14.8372 9.12007 14.5608 9.93176C14.2845 10.7434 14.3091 11.6274 14.6301 12.4225L7.30509 18.9625C6.75256 18.6241 6.11798 18.4435 5.47009 18.44C4.6125 18.4359 3.78196 18.74 3.12978 19.2969C2.47759 19.8537 2.04716 20.6264 1.91689 21.474C1.78662 22.3217 1.96519 23.1879 2.42006 23.915C2.87493 24.642 3.57584 25.1814 4.39509 25.435L3.91009 30.1C3.36339 30.1758 2.84162 30.377 2.38555 30.6878C1.92948 30.9987 1.55145 31.4108 1.28101 31.8919C1.01056 32.373 0.855027 32.9102 0.826547 33.4613C0.798067 34.0125 0.897417 34.5629 1.11683 35.0693C1.33625 35.5757 1.66979 36.0246 2.0914 36.3808C2.51301 36.737 3.01126 36.9908 3.54724 37.1226C4.08321 37.2543 4.64239 37.2604 5.18108 37.1402C5.71977 37.0201 6.22339 36.777 6.65259 36.43L9.06759 37.4925L9.06009 37.5675C9.06367 38.4615 9.40114 39.3219 10.0063 39.9799C10.6115 40.638 11.4407 41.0461 12.3312 41.1244C13.2218 41.2027 14.1095 40.9453 14.8201 40.4029C15.5308 39.8605 16.0132 39.0722 16.1726 38.1925H18.9326C19.1492 38.9725 19.6242 39.6559 20.2797 40.1309C20.9353 40.6059 21.7327 40.8443 22.5414 40.8071C23.3501 40.77 24.1222 40.4594 24.7314 39.9263C25.3407 39.3932 25.7509 38.6691 25.8951 37.8725L33.6626 38.1275C34.2312 38.6181 34.9422 38.9132 35.6911 38.9694C36.4399 39.0257 37.1871 38.8401 37.8226 38.44C42.2075 40.8325 45.906 44.3089 48.5651 48.5375C48.3899 48.9635 48.299 49.4194 48.2976 49.88C48.2942 50.4935 48.4481 51.0977 48.7446 51.6348C49.041 52.1719 49.4702 52.6241 49.9912 52.9482C50.5121 53.2723 51.1074 53.4574 51.7203 53.486C52.3331 53.5146 52.9431 53.3856 53.4919 53.1115C54.0408 52.8373 54.5102 52.427 54.8554 51.9198C55.2006 51.4126 55.41 50.8254 55.4637 50.2143C55.5175 49.6031 55.4137 48.9884 55.1623 48.4287C54.9108 47.8691 54.5202 47.3832 54.0276 47.0175C52.7716 45.1901 51.8897 43.1323 51.4326 40.9625C52.0481 40.7671 52.5987 40.4076 53.0253 39.9229C53.452 39.4381 53.7385 38.8463 53.8542 38.2109C53.9698 37.5756 53.9102 36.9208 53.6818 36.3167C53.4534 35.7127 53.0647 35.1823 52.5576 34.7825L53.9076 30.0675H53.9101ZM55.3226 26.48C55.3221 26.7587 55.239 27.0309 55.0839 27.2624C54.9288 27.4939 54.7086 27.6742 54.451 27.7806C54.1935 27.8871 53.9102 27.9148 53.6369 27.8603C53.3636 27.8058 53.1126 27.6716 52.9156 27.4745C52.7185 27.2775 52.5843 27.0265 52.5298 26.7532C52.4753 26.4799 52.503 26.1966 52.6094 25.9391C52.7159 25.6815 52.8962 25.4613 53.1277 25.3062C53.3592 25.151 53.6314 25.068 53.9101 25.0675C54.2847 25.0675 54.644 25.2163 54.9089 25.4812C55.1738 25.7461 55.3226 26.1054 55.3226 26.48ZM52.4626 23.2C51.8769 23.4617 51.3721 23.8758 51.001 24.3991C50.6299 24.9224 50.4059 25.5357 50.3526 26.175H47.5501C47.509 25.6866 47.3677 25.2118 47.135 24.7804C46.9023 24.349 46.5832 23.9701 46.1976 23.6675L49.7151 18.835C50.2537 18.9437 50.8114 18.9092 51.3326 18.735L52.4626 23.2ZM46.7776 37.1175L39.5326 35.2625C39.5032 34.454 39.199 33.6797 38.6701 33.0675L41.5951 29.13C42.044 29.5527 42.5983 29.847 43.2 29.982C43.8017 30.117 44.4286 30.0878 45.0151 29.8975L48.1451 34.7325C47.7708 35.0199 47.4573 35.3787 47.2226 35.7881C46.9878 36.1975 46.8366 36.6493 46.7776 37.1175ZM20.6276 13.4625L30.8301 18.8025C30.6122 19.4363 30.5973 20.1223 30.7876 20.765L24.2376 24.1325C23.9041 23.7444 23.4911 23.4326 23.0266 23.2182C22.562 23.0039 22.0567 22.8919 21.5451 22.89C21.5151 22.89 21.4876 22.8975 21.4576 22.9L19.1001 14.475C19.6886 14.276 20.215 13.927 20.6276 13.4625ZM48.5001 18.385L45.0826 23.075C44.5062 22.8759 43.8871 22.8339 43.2891 22.9534C42.6911 23.0729 42.1357 23.3496 41.6801 23.755L37.7026 20.755C37.8394 20.3271 37.8694 19.8722 37.7901 19.43L47.0576 16.78C47.3638 17.4481 47.8672 18.0064 48.5001 18.38V18.385ZM43.9901 27.89C43.7113 27.8895 43.439 27.8064 43.2074 27.6512C42.9759 27.4959 42.7955 27.2755 42.6892 27.0179C42.5829 26.7602 42.5553 26.4767 42.61 26.2034C42.6647 25.93 42.7992 25.679 42.9965 25.4821C43.1937 25.2852 43.445 25.1511 43.7184 25.0969C43.9919 25.0427 44.2753 25.0708 44.5328 25.1776C44.7903 25.2844 45.0103 25.4651 45.1651 25.6969C45.32 25.9287 45.4026 26.2012 45.4026 26.48C45.4019 26.8542 45.2528 27.2128 44.988 27.4772C44.7232 27.7415 44.3643 27.89 43.9901 27.89ZM34.2426 21.265C33.9639 21.2645 33.6917 21.1815 33.4602 21.0263C33.2287 20.8712 33.0484 20.651 32.9419 20.3934C32.8355 20.1359 32.8078 19.8526 32.8623 19.5793C32.9168 19.306 33.051 19.055 33.2481 18.858C33.4451 18.6609 33.6961 18.5267 33.9694 18.4722C34.2427 18.4177 34.526 18.4454 34.7835 18.5519C35.0411 18.6583 35.2613 18.8386 35.4164 19.0701C35.5715 19.3016 35.6546 19.5738 35.6551 19.8525C35.6544 20.2267 35.5053 20.5853 35.2405 20.8497C34.9757 21.114 34.6168 21.2625 34.2426 21.2625V21.265ZM21.5426 25.0675C21.8214 25.0675 22.0939 25.1501 22.3257 25.305C22.5575 25.4598 22.7382 25.6798 22.845 25.9373C22.9518 26.1948 22.9799 26.4782 22.9257 26.7517C22.8715 27.0251 22.7374 27.2763 22.5405 27.4736C22.3435 27.6709 22.0925 27.8054 21.8192 27.8601C21.5459 27.9148 21.2624 27.8872 21.0047 27.7809C20.7471 27.6746 20.5267 27.4942 20.3714 27.2627C20.2162 27.0311 20.1331 26.7588 20.1326 26.48C20.1326 26.1054 20.2814 25.7461 20.5463 25.4812C20.8112 25.2163 21.1705 25.0675 21.5451 25.0675H21.5426ZM25.1326 26.48C25.1303 26.0427 25.0472 25.6096 24.8876 25.2025L31.3076 21.9025C31.6373 22.3763 32.0765 22.7636 32.5879 23.0312C33.0993 23.2989 33.6679 23.4392 34.2451 23.44L34.3051 23.435L33.2201 32.585L23.4551 33.82C23.2594 33.7577 23.0586 33.7125 22.8551 33.685L22.1126 30.01C22.9529 29.8754 23.7179 29.4465 24.2711 28.7998C24.8243 28.1532 25.1297 27.331 25.1326 26.48ZM22.3751 35.8125C22.6537 35.813 22.926 35.896 23.1575 36.0512C23.389 36.2063 23.5693 36.4265 23.6757 36.6841C23.7821 36.9416 23.8099 37.2249 23.7554 37.4982C23.7009 37.7715 23.5667 38.0225 23.3696 38.2195C23.1726 38.4166 22.9216 38.5508 22.6483 38.6053C22.375 38.6598 22.0917 38.6321 21.8342 38.5256C21.5766 38.4192 21.3564 38.2389 21.2013 38.0074C21.0461 37.7759 20.9631 37.5037 20.9626 37.225C20.9626 36.8504 21.1114 36.4911 21.3763 36.2262C21.6412 35.9613 22.0005 35.8125 22.3751 35.8125ZM25.0651 34.875L32.6976 33.9125C32.4839 34.3714 32.3721 34.8712 32.3699 35.3774C32.3678 35.8836 32.4753 36.3843 32.6851 36.845L25.9026 36.625C25.7909 35.9753 25.501 35.3695 25.0651 34.875ZM35.5976 23.17C36.2297 22.9109 36.775 22.4773 37.1701 21.92L40.8851 24.72C40.584 25.2293 40.419 25.8075 40.4059 26.3989C40.3928 26.9904 40.5319 27.5753 40.8101 28.0975L37.7026 32.2725C37.2263 31.9968 36.6918 31.8372 36.1423 31.8068C35.5928 31.7764 35.0439 31.876 34.5401 32.0975L35.5976 23.17ZM50.3226 13.9C50.6015 13.9 50.8741 13.9827 51.1059 14.1376C51.3378 14.2926 51.5185 14.5128 51.6253 14.7704C51.732 15.0281 51.7599 15.3116 51.7055 15.5851C51.6511 15.8586 51.5168 16.1098 51.3196 16.307C51.1224 16.5042 50.8712 16.6385 50.5977 16.6929C50.3242 16.7473 50.0406 16.7194 49.783 16.6127C49.5254 16.506 49.3052 16.3252 49.1502 16.0934C48.9953 15.8615 48.9126 15.5889 48.9126 15.31C48.9133 14.9358 49.0624 14.5772 49.3272 14.3128C49.592 14.0485 49.9509 13.9 50.3251 13.9H50.3226ZM47.0026 13.965C46.827 14.3917 46.7362 14.8486 46.7351 15.31C46.7351 15.3975 46.7551 15.48 46.7601 15.5675L37.4301 18.2325C37.1326 17.6423 36.6776 17.1459 36.1155 16.7982C35.5534 16.4505 34.906 16.2651 34.2451 16.2625C34.1376 16.2625 34.0326 16.2875 33.9276 16.295L32.6251 9.62C33.5055 9.48056 34.3018 9.01684 34.8576 8.32L47.0026 13.965ZM32.0651 4.675C32.3439 4.675 32.6164 4.75763 32.8482 4.91246C33.08 5.06728 33.2607 5.28734 33.3675 5.54484C33.4743 5.80234 33.5024 6.08572 33.4482 6.35916C33.394 6.63261 33.2599 6.88385 33.063 7.08114C32.8661 7.27843 32.615 7.41292 32.3417 7.4676C32.0683 7.52229 31.7849 7.49472 31.5272 7.38839C31.2696 7.28205 31.0492 7.10172 30.8939 6.87017C30.7387 6.63863 30.6556 6.36627 30.6551 6.0875C30.6551 5.71332 30.8036 5.35442 31.0679 5.0896C31.3323 4.82477 31.6909 4.67566 32.0651 4.675ZM28.8551 7.655C29.0943 8.14789 29.443 8.57959 29.8745 8.91712C30.3061 9.25465 30.8091 9.48908 31.3451 9.6025L32.7151 16.615C32.1976 16.8626 31.7467 17.2303 31.4001 17.6875L21.2876 12.3975C21.6084 11.6203 21.6289 10.7515 21.3451 9.96L28.8551 7.655ZM17.9551 9.675C18.2339 9.675 18.5064 9.75763 18.7382 9.91246C18.97 10.0673 19.1507 10.2873 19.2575 10.5448C19.3643 10.8023 19.3924 11.0857 19.3382 11.3592C19.284 11.6326 19.1499 11.8838 18.953 12.0811C18.7561 12.2784 18.505 12.4129 18.2317 12.4676C17.9583 12.5223 17.6749 12.4947 17.4172 12.3884C17.1595 12.2821 16.9392 12.1017 16.7839 11.8702C16.6287 11.6386 16.5456 11.3663 16.5451 11.0875C16.5451 10.7133 16.6936 10.3544 16.9579 10.0896C17.2223 9.82477 17.5809 9.67566 17.9551 9.675ZM17.8551 14.665L20.2301 23.145C19.5438 23.4165 18.9574 23.8921 18.5501 24.5075L9.05259 22.085L9.06009 22.0275C9.05591 21.2099 8.76982 20.4187 8.25009 19.7875L15.3101 13.49C15.6326 13.8474 16.0241 14.1357 16.4611 14.3377C16.8981 14.5396 17.3714 14.6509 17.8526 14.665H17.8551ZM5.84009 33.6325C5.84009 33.9114 5.7574 34.184 5.60246 34.4159C5.44753 34.6477 5.22732 34.8285 4.96967 34.9352C4.71203 35.0419 4.42853 35.0698 4.15501 35.0154C3.8815 34.961 3.63026 34.8267 3.43307 34.6295C3.23588 34.4323 3.10159 34.1811 3.04718 33.9076C2.99278 33.6341 3.0207 33.3506 3.12742 33.0929C3.23414 32.8353 3.41486 32.6151 3.64674 32.4601C3.87861 32.3052 4.15122 32.2225 4.43009 32.2225C4.80384 32.2232 5.1621 32.3719 5.42638 32.6362C5.69066 32.9005 5.83943 33.2587 5.84009 33.6325ZM5.16509 30.12L5.63759 25.6C6.33091 25.5674 6.99982 25.3341 7.56303 24.9284C8.12623 24.5228 8.55948 23.9623 8.81009 23.315L18.0551 25.6725C17.9362 26.1439 17.9242 26.6359 18.0201 27.1125L7.16259 31.3375C6.65098 30.7197 5.94661 30.2918 5.16259 30.1225L5.16509 30.12ZM5.47009 20.615C5.74886 20.615 6.02137 20.6976 6.25318 20.8525C6.485 21.0073 6.66573 21.2273 6.77252 21.4848C6.87931 21.7423 6.90738 22.0257 6.85318 22.2992C6.79897 22.5726 6.66493 22.8238 6.46799 23.0211C6.27105 23.2184 6.02005 23.3529 5.7467 23.4076C5.47335 23.4623 5.18992 23.4347 4.93224 23.3284C4.67455 23.2221 4.45417 23.0417 4.29893 22.8102C4.1437 22.5786 4.06058 22.3063 4.06009 22.0275C4.06009 21.6533 4.20856 21.2944 4.47292 21.0296C4.73727 20.7648 5.09591 20.6157 5.47009 20.615ZM7.51259 35.44C7.7863 34.9941 7.9543 34.4914 8.0037 33.9706C8.0531 33.4497 7.9826 32.9244 7.79759 32.435L18.4626 28.285C18.704 28.6974 19.0254 29.0573 19.408 29.3437C19.7905 29.63 20.2264 29.837 20.6901 29.9525L16.0276 36.41C15.794 35.7162 15.3529 35.1109 14.764 34.676C14.1751 34.2411 13.4668 33.9977 12.735 33.9786C12.0032 33.9595 11.2831 34.1657 10.6724 34.5693C10.0616 34.9728 9.58953 35.5543 9.32009 36.235L7.51259 35.44ZM12.6476 38.9775C12.3689 38.977 12.0967 38.894 11.8652 38.7388C11.6337 38.5837 11.4534 38.3635 11.3469 38.1059C11.2405 37.8484 11.2128 37.5651 11.2673 37.2918C11.3218 37.0185 11.456 36.7675 11.6531 36.5705C11.8501 36.3734 12.1011 36.2392 12.3744 36.1847C12.6477 36.1302 12.931 36.1579 13.1885 36.2644C13.4461 36.3708 13.6663 36.5511 13.8214 36.7826C13.9765 37.0141 14.0596 37.2863 14.0601 37.565C14.0601 37.9396 13.9113 38.2989 13.6464 38.5638C13.3815 38.8287 13.0222 38.9775 12.6476 38.9775ZM21.1651 30.7125L21.6126 33.7175C20.8617 33.8836 20.1841 34.2868 19.6799 34.8675C19.1757 35.4483 18.8717 36.1757 18.8126 36.9425H17.0626L21.1651 30.7125ZM35.9551 36.8C35.6764 36.7995 35.4042 36.7165 35.1727 36.5613C34.9412 36.4062 34.7609 36.186 34.6544 35.9284C34.548 35.6709 34.5203 35.3876 34.5748 35.1143C34.6293 34.841 34.7635 34.59 34.9606 34.393C35.1576 34.1959 35.4086 34.0617 35.6819 34.0072C35.9552 33.9527 36.2385 33.9804 36.496 34.0869C36.7536 34.1933 36.9738 34.3736 37.1289 34.6051C37.284 34.8366 37.3671 35.1088 37.3676 35.3875C37.3676 35.7621 37.2188 36.1214 36.9539 36.3863C36.689 36.6512 36.3297 36.8 35.9551 36.8ZM51.8876 51.2875C51.6087 51.2875 51.3361 51.2048 51.1042 51.0499C50.8724 50.8949 50.6916 50.6747 50.5849 50.4171C50.4782 50.1594 50.4503 49.8759 50.5047 49.6024C50.5591 49.3289 50.6934 49.0777 50.8906 48.8805C51.0878 48.6833 51.339 48.549 51.6125 48.4946C51.886 48.4402 52.1695 48.4681 52.4272 48.5748C52.6848 48.6815 52.905 48.8623 53.06 49.0942C53.2149 49.326 53.2976 49.5986 53.2976 49.8775C53.2969 50.2513 53.1482 50.6095 52.8839 50.8738C52.6196 51.1381 52.2613 51.2868 51.8876 51.2875ZM51.8876 46.2875C51.411 46.2876 50.9392 46.3829 50.5 46.568C50.0608 46.753 49.663 47.024 49.3301 47.365C46.6685 43.2885 43.0566 39.9195 38.8051 37.5475C39.0132 37.2747 39.1807 36.9732 39.3026 36.6525L46.8601 38.46C47.054 39.2109 47.4864 39.8787 48.0923 40.3628C48.6982 40.847 49.4449 41.1215 50.2201 41.145C50.5308 42.976 51.1884 44.7308 52.1576 46.315C52.0651 46.3075 51.9801 46.29 51.8876 46.29V46.2875ZM50.3226 38.9775C50.0438 38.9775 49.7713 38.8949 49.5395 38.74C49.3077 38.5852 49.127 38.3652 49.0202 38.1077C48.9134 37.8502 48.8853 37.5668 48.9395 37.2933C48.9937 37.0199 49.1277 36.7687 49.3247 36.5714C49.5216 36.3741 49.7726 36.2396 50.046 36.1849C50.3193 36.1302 50.6028 36.1578 50.8604 36.2641C51.1181 36.3705 51.3385 36.5508 51.4938 36.7823C51.649 37.0139 51.7321 37.2862 51.7326 37.565C51.7326 37.9392 51.5841 38.2981 51.3198 38.5629C51.0554 38.8277 50.6968 38.9768 50.3226 38.9775ZM51.4326 34.17C50.7307 33.916 49.9629 33.9107 49.2576 34.155L46.1351 29.335C46.767 28.86 47.2241 28.1894 47.4351 27.4275H50.4676C50.6191 27.9744 50.8982 28.4776 51.2819 28.8956C51.6657 29.3137 52.1431 29.6348 52.6751 29.8325L51.4326 34.17Z" fill="#B75400"/>
</svg>
