<?xml version="1.0" encoding="UTF-8" standalone="no"?>
<!-- Created with Inkscape (http://www.inkscape.org/) -->
<svg
   xmlns:dc="http://purl.org/dc/elements/1.1/"
   xmlns:cc="http://creativecommons.org/ns#"
   xmlns:rdf="http://www.w3.org/1999/02/22-rdf-syntax-ns#"
   xmlns:svg="http://www.w3.org/2000/svg"
   xmlns="http://www.w3.org/2000/svg"
   xmlns:sodipodi="http://sodipodi.sourceforge.net/DTD/sodipodi-0.dtd"
   xmlns:inkscape="http://www.inkscape.org/namespaces/inkscape"
   width="445.5015"
   height="626.87537"
   id="svg2777"
   sodipodi:version="0.32"
   inkscape:version="0.46"
   version="1.0"
   sodipodi:docname="mans_head.svg"
   inkscape:output_extension="org.inkscape.output.svg.inkscape">
  <defs
     id="defs3">
    <inkscape:perspective
       sodipodi:type="inkscape:persp3d"
       inkscape:vp_x="0 : 526.18109 : 1"
       inkscape:vp_y="0 : 1000 : 0"
       inkscape:vp_z="744.09448 : 526.18109 : 1"
       inkscape:persp3d-origin="372.04724 : 350.78739 : 1"
       id="perspective2783" />
  </defs>
  <sodipodi:namedview
     inkscape:document-units="mm"
     id="base"
     pagecolor="#ffffff"
     bordercolor="#666666"
     borderopacity="1.0"
     inkscape:pageopacity="0.0"
     inkscape:pageshadow="2"
     inkscape:zoom="1"
     inkscape:cx="390.84584"
     inkscape:cy="420.32023"
     inkscape:current-layer="layer1"
     showgrid="false"
     showguides="false"
     inkscape:guide-bbox="true"
     inkscape:window-width="1272"
     inkscape:window-height="944"
     inkscape:window-x="0"
     inkscape:window-y="0">
    <sodipodi:guide
       orientation="0,1"
       position="448.57143,1051.4286"
       id="guide2785" />
    <sodipodi:guide
       orientation="0,1"
       position="348.57143,654.28571"
       id="guide2787" />
    <sodipodi:guide
       orientation="0,1"
       position="337.14286,454.28571"
       id="guide2789" />
    <sodipodi:guide
       orientation="0,1"
       position="308.57143,265.71429"
       id="guide2791" />
    <sodipodi:guide
       orientation="1,0"
       position="354.28571,668.57143"
       id="guide2793" />
  </sodipodi:namedview>
  <metadata
     id="metadata4">
    <rdf:RDF>
      <cc:Work
         rdf:about="">
        <dc:format>image/svg+xml</dc:format>
        <dc:type
           rdf:resource="http://purl.org/dc/dcmitype/StillImage" />
      </cc:Work>
    </rdf:RDF>
  </metadata>
  <g
     inkscape:label="Layer 1"
     inkscape:groupmode="layer"
     id="layer1"
     transform="translate(0,-60.3389262)">

    <path
       style="fill:#ffffff;fill-rule:evenodd;stroke:none;stroke-width:1px;stroke-linecap:butt;stroke-linejoin:miter;stroke-opacity:1"
       d="M 73.264983,528.94634 C 77.355702,525.73883 161.21542,484.04141 161.21542,484.04141 C 161.21542,484.04141 144.85254,510.77054 152.0113,517.18552 C 159.17006,523.60051 180.64633,542.84548 200.07724,549.26047 C 219.50814,555.67545 309.50394,539.63799 309.50394,539.63799 L 355.52452,517.18552 L 363.70596,501.14805 L 358.59256,484.04141 L 391.3183,486.17973 L 406.65849,503.28638 L 463.92854,533.22299 C 463.92854,533.22299 469.04194,556.74463 464.95122,559.95212 C 460.8605,563.15961 292.11839,631.21428 292.11839,631.21428 L 97.809291,601.64955 L 73.264983,528.94634 z"
       id="path4040"
       sodipodi:nodetypes="ccsscccccccsccc" />
    <path
       style="fill:#ff9955;fill-rule:evenodd;stroke:none;stroke-width:1px;stroke-linecap:butt;stroke-linejoin:miter;stroke-opacity:1"
       d="M 159.42444,242.82915 C 151.04793,246.0788 146.35612,276.25956 132.92285,284.74406 C 128.52901,284.62146 134.5167,233.28052 135.82405,225.08336 C 137.49224,214.6237 144.46662,192.45919 152.77035,184.95666 C 168.97839,159.8435 203.70387,139.81998 231.9843,134.09355 C 266.13363,117.75072 281.85478,110.29698 325.07434,129.4788 C 339.16926,133.47561 346.80138,143.83626 355.31235,154.31764 C 364.2261,165.29506 378.70772,174.69312 381.97827,187.31107 C 385.69911,201.66628 379.47477,256.04872 374.6277,271.43057 C 372.553,278.01447 350.40457,262.80307 344.89379,253.55047 C 333.8448,234.99919 317.53899,228.85323 306.45997,210.00862 C 287.23033,183.54534 304.07743,190.62759 252.53147,218.10777 C 239.0427,222.408 217.07783,215.0599 203.57253,220.94861 C 189.35271,229.66434 187.65983,227.3861 159.42444,242.82915 z"
       id="path3794"
       sodipodi:nodetypes="cccccccccccccc" />
    <path
       style="fill:#fcbf96;fill-opacity:1;fill-rule:evenodd;stroke:none;stroke-width:1px;stroke-linecap:butt;stroke-linejoin:miter;stroke-opacity:1"
       d="M 168.37418,486.59811 C 168.37418,486.59811 176.78698,486.39912 179.11231,484.04141 C 192.96712,455.87488 179.46089,431.56573 178.08963,405.80643 C 178.20209,404.43898 178.80918,402.06902 180.13499,401.71571 C 203.97958,395.36143 223.98297,446.71848 248.65451,447.22495 C 281.48062,447.89882 314.47722,372.92176 342.22968,390.46623 C 343.98423,405.89875 337.11587,421.904 337.62763,435.46413 C 338.25063,451.97214 332.95087,481.55649 347.34308,489.66615 C 349.20455,490.71504 352.20338,485.93836 353.9905,487.10944 C 359.89824,490.98073 358.86517,504.71074 355.01318,510.63108 C 335.10998,528.79806 291.714,541.45003 262.99026,545.40217 C 237.17229,548.9545 181.15767,540.28878 178.60097,537.22074 C 176.04427,534.1527 150.47728,509.60839 152.52265,505.00634 C 154.568,500.40428 168.37418,485.57542 168.37418,486.59811 z"
       id="path3786"
       sodipodi:nodetypes="cccccccccccccc" />
    <path
       style="fill:#ffccaa;fill-rule:evenodd;stroke:none;stroke-width:1px;stroke-linecap:butt;stroke-linejoin:miter;stroke-opacity:1"
       d="M 298.61337,190.09992 C 260.75268,224.51285 235.20628,221.55727 217.4631,219.13866 C 201.31414,225.04368 172.61093,243.36278 157.17101,246.05316 C 154.30718,249.31264 153.9183,258.21698 153.69088,262.54987 C 152.88085,270.52838 152.8289,278.2676 158.00714,284.42497 L 145.37473,280.53807 L 135.65748,286.66219 L 136.6744,296.89919 L 145.87189,343.42896 L 153.55529,353.1462 L 159.15965,356.71673 L 161.96183,356.21956 C 166.36393,374.36842 174.0364,393.68025 186.7747,415.51734 C 191.8881,419.60805 219.64409,457.24819 251.20227,461.54995 C 272.94146,464.51327 297.66031,442.75546 314.61292,428.8277 C 334.94202,412.12593 346.38224,385.88456 352.46497,360.28725 C 352.67188,359.41655 352.87692,358.53362 353.07512,357.64325 L 366.27249,350.5926 L 372.39662,341.37252 L 378.54334,299.94995 L 380.57718,286.14243 L 370.85994,279.49855 L 358.90547,280.78665 C 358.6086,275.71856 358.18201,270.81307 357.57217,266.21079 C 330.69616,251.652 313.58074,207.2941 298.61337,190.09992 z"
       id="path3006"
       sodipodi:nodetypes="cccccccccccccsssccccccccc" />
    <path
       style="fill:#000000;fill-opacity:1;fill-rule:nonzero;stroke:none;stroke-width:0.5;stroke-linecap:round;stroke-linejoin:round;stroke-miterlimit:4;stroke-dasharray:none;stroke-dashoffset:0;stroke-opacity:1"
       d="M 185.8095,285.25135 C 200.65808,282.21934 228.54698,271.71615 236.3502,283.51631 C 220.16685,274.77828 197.39038,285.63897 184.28217,286.55582 L 185.15806,285.80773 L 185.8095,285.25135 z"
       id="path2803" />
    <path
       style="fill:#000000;fill-opacity:1;fill-rule:nonzero;stroke:none;stroke-width:0.5;stroke-linecap:round;stroke-linejoin:round;stroke-miterlimit:4;stroke-dasharray:none;stroke-dashoffset:0;stroke-opacity:1"
       d="M 181.43965,271.34542 C 202.50724,266.77107 224.29964,264.33082 243.95702,275.17519 C 228.00337,274.9638 208.60063,263.75728 190.40237,271.8409 C 188.95117,271.08589 173.36413,276.49363 181.43965,271.34542 z"
       id="path2805" />
    <path
       style="fill:#000000;fill-opacity:1;fill-rule:nonzero;stroke:none;stroke-width:0.5;stroke-linecap:round;stroke-linejoin:round;stroke-miterlimit:4;stroke-dasharray:none;stroke-dashoffset:0;stroke-opacity:1"
       d="M 251.10137,280.86672 C 245.89382,303.46761 256.79695,326.5247 249.51595,348.78366 C 243.98949,367.64306 251.09546,330.83537 249.44053,325.50757 C 248.71984,312.12069 242.50777,291.53185 251.10137,280.86672 z"
       id="path2811" />
    <path
       style="fill:#000000;fill-opacity:1;fill-rule:nonzero;stroke:none;stroke-width:0.5;stroke-linecap:round;stroke-linejoin:round;stroke-miterlimit:4;stroke-dasharray:none;stroke-dashoffset:0;stroke-opacity:1"
       d="M 240.36191,347.7691 C 239.70969,358.19111 233.24442,378.83351 236.13953,356.72979 C 237.2856,353.37679 236.02352,348.82401 240.36191,347.7691 z"
       id="path2813" />
    <path
       style="fill:#000000;fill-opacity:1;fill-rule:nonzero;stroke:none;stroke-width:0.5;stroke-linecap:round;stroke-linejoin:round;stroke-miterlimit:4;stroke-dasharray:none;stroke-dashoffset:0;stroke-opacity:1"
       d="M 243.75529,362.85061 C 253.73268,357.90964 265.17438,370.20585 249.20819,363.97098 C 246.70312,363.00819 238.12582,366.94611 243.75529,362.85061 z"
       id="path2815" />

    <path
       style="fill:#000000;fill-opacity:1;fill-rule:nonzero;stroke:none;stroke-width:0.5;stroke-linecap:round;stroke-linejoin:round;stroke-miterlimit:4;stroke-dasharray:none;stroke-dashoffset:0;stroke-opacity:1"
       d="M 217.28747,393.55968 C 224.13709,405.393 257.08786,397.82179 253.91535,407.78684 C 244.70114,399.94524 215.89445,407.17665 217.28747,393.55968 z"
       id="path2823" />
    <path
       style="fill:#000000;fill-opacity:1;fill-rule:nonzero;stroke:none;stroke-width:0.5;stroke-linecap:round;stroke-linejoin:round;stroke-miterlimit:4;stroke-dasharray:none;stroke-dashoffset:0;stroke-opacity:1"
       d="M 214.99554,378.73562 C 209.07409,384.55681 201.207,405.09516 207.59439,385.19495 C 209.90402,382.79754 211.71998,379.87772 214.99554,378.73562 z"
       id="path2827" />
    <path
       style="fill:#000000;fill-opacity:1;fill-rule:nonzero;stroke:none;stroke-width:0.5;stroke-linecap:round;stroke-linejoin:round;stroke-miterlimit:4;stroke-dasharray:none;stroke-dashoffset:0;stroke-opacity:1"
       d="M 157.00985,277.56346 C 154.72583,300.79556 156.27557,323.24645 161.01605,345.9964 C 163.54827,365.07183 171.21701,382.35243 177.9344,400.10693 C 184.04877,418.64246 199.90236,433.86733 217.24081,442.66648 C 227.29713,448.1995 250.07244,463.44676 251.88097,456.2777 C 244.239,466.95354 220.83768,446.56504 208.80598,441.33467 C 192.27725,430.92247 177.58484,415.00169 173.11562,395.60347 C 164.86691,378.26621 160.35842,359.63974 156.9354,340.74019 C 154.0271,320.25829 150.21201,297.10115 156.27939,278.01108 L 157.00985,277.56346 z"
       id="path2829" />
    <path
       style="fill:#000000;fill-opacity:1;fill-rule:nonzero;stroke:none;stroke-width:0.5;stroke-linecap:round;stroke-linejoin:round;stroke-miterlimit:4;stroke-dasharray:none;stroke-dashoffset:0;stroke-opacity:1"
       d="M 152.85127,282.80455 C 122.48198,276.42891 143.3616,307.52082 145.24844,327.02262 C 142.62519,340.53253 152.63248,359.2672 153.8238,355.05582 C 134.35423,352.18437 147.84917,315.44383 134.58462,301.24306 C 122.08769,287.09447 154.59834,274.3488 152.85127,282.80455 z"
       id="path2831" />
    <path
       style="fill:#000000;fill-opacity:1;fill-rule:nonzero;stroke:none;stroke-width:0.5;stroke-linecap:round;stroke-linejoin:round;stroke-miterlimit:4;stroke-dasharray:none;stroke-dashoffset:0;stroke-opacity:1"
       d="M 142.77077,292.5547 C 147.9868,297.93255 158.68096,325.62752 151.09798,324.86241 C 152.49988,314.14555 140.24289,299.10169 142.77077,292.5547 z"
       id="path2833" />
    <path
       style="fill:#000000;fill-opacity:1;fill-rule:nonzero;stroke:none;stroke-width:0.5;stroke-linecap:round;stroke-linejoin:round;stroke-miterlimit:4;stroke-dasharray:none;stroke-dashoffset:0;stroke-opacity:1"
       d="M 243.98347,120.12877 C 227.31507,122.03442 200.71496,135.51984 194.13903,141.43202 C 146.1082,169.19373 136.59161,210.19835 132.76625,262.18795 C 132.53265,273.42764 123.68553,297.94419 128.34263,272.53751 C 134.87689,193.46019 168.10325,138.62533 246.51167,117.64023 C 245.66893,118.46975 244.8262,119.29926 243.98347,120.12877 z"
       id="path2835"
       sodipodi:nodetypes="cccccc" />
    <path
       style="fill:#000000;fill-opacity:1;fill-rule:nonzero;stroke:none;stroke-width:0.5;stroke-linecap:round;stroke-linejoin:round;stroke-miterlimit:4;stroke-dasharray:none;stroke-dashoffset:0;stroke-opacity:1"
       d="M 141.39982,280.29858 C 153.33189,260.97545 152.41749,233.16232 170.54544,218.34825 C 179.35065,206.67255 206.82839,188.46642 210.65912,190.98016 C 189.65871,200.31873 181.13332,206.44885 165.19911,226.61335 C 152.5454,241.85177 155.89565,267.61386 141.39982,280.29858 z"
       id="path2837" />
    <path
       style="fill:#000000;fill-opacity:1;fill-rule:nonzero;stroke:none;stroke-width:0.5;stroke-linecap:round;stroke-linejoin:round;stroke-miterlimit:4;stroke-dasharray:none;stroke-dashoffset:0;stroke-opacity:1"
       d="M 162.23716,240.97587 C 189.60859,232.2496 216.90963,221.07774 240.04282,201.58227 C 242.96066,203.59795 267.80782,158.64952 253.01155,188.43941 C 240.10811,205.84037 224.40152,214.57255 203.87024,226.21666 C 192.6522,230.83997 164.45869,244.91051 162.23716,240.97587 z"
       id="path2839" />
    <path
       style="fill:#000000;fill-opacity:1;fill-rule:nonzero;stroke:none;stroke-width:0.5;stroke-linecap:round;stroke-linejoin:round;stroke-miterlimit:4;stroke-dasharray:none;stroke-dashoffset:0;stroke-opacity:1"
       d="M 225.95848,218.32991 C 245.05832,223.98295 269.1815,210.33322 277.814,200.5698 C 282.17862,200.65495 295.33188,180.7433 303.93066,169.00378 C 296.69645,187.98173 279.83496,200.13996 270.22348,207.33761 C 266.94141,215.96736 228.76707,228.21241 225.95848,218.32991 z"
       id="path2841" />
    <path
       style="fill:#000000;fill-opacity:1;fill-rule:nonzero;stroke:none;stroke-width:0.5;stroke-linecap:round;stroke-linejoin:round;stroke-miterlimit:4;stroke-dasharray:none;stroke-dashoffset:0;stroke-opacity:1"
       d="M 166.65943,336.90208 C 176.18387,350.73395 185.34284,373.52352 177.76927,388.26154 C 181.81653,370.57103 167.78709,349.31497 166.65943,336.90208 z"
       id="path2855" />
    <path
       style="fill:#000000;fill-opacity:1;fill-rule:nonzero;stroke:none;stroke-width:0.5;stroke-linecap:round;stroke-linejoin:round;stroke-miterlimit:4;stroke-dasharray:none;stroke-dashoffset:0;stroke-opacity:1"
       d="M 330.92026,283.9872 C 316.07169,280.95516 288.18278,270.45196 280.37956,282.25215 C 296.56286,273.51413 319.3394,284.37472 332.44759,285.29167 L 331.5717,284.54359 L 330.92026,283.9872 z"
       id="path2863" />
    <path
       style="fill:#000000;fill-opacity:1;fill-rule:nonzero;stroke:none;stroke-width:0.5;stroke-linecap:round;stroke-linejoin:round;stroke-miterlimit:4;stroke-dasharray:none;stroke-dashoffset:0;stroke-opacity:1"
       d="M 335.29012,270.08123 C 314.22253,265.5069 292.43013,263.06664 272.77275,273.91101 C 288.72642,273.69962 308.12913,262.4931 326.3274,270.57672 C 327.77861,269.82172 343.36565,275.22945 335.29012,270.08123 z"
       id="path2865" />
    <path
       style="fill:#000000;fill-opacity:1;fill-rule:nonzero;stroke:none;stroke-width:0.5;stroke-linecap:round;stroke-linejoin:round;stroke-miterlimit:4;stroke-dasharray:none;stroke-dashoffset:0;stroke-opacity:1"
       d="M 265.18593,279.60253 C 270.39349,302.20344 259.49035,325.26054 266.77136,347.51951 C 272.29784,366.37886 265.19182,329.57116 266.84678,324.24341 C 267.56745,310.85651 273.77954,290.26769 265.18593,279.60253 z"
       id="path2867" />
    <path
       style="fill:#000000;fill-opacity:1;fill-rule:nonzero;stroke:none;stroke-width:0.5;stroke-linecap:round;stroke-linejoin:round;stroke-miterlimit:4;stroke-dasharray:none;stroke-dashoffset:0;stroke-opacity:1"
       d="M 275.92539,346.50496 C 276.57762,356.92694 283.0429,377.56927 280.14778,355.46564 C 279.0017,352.11266 280.26383,347.5598 275.92539,346.50496 z"
       id="path2869" />
    <path
       style="fill:#000000;fill-opacity:1;fill-rule:nonzero;stroke:none;stroke-width:0.5;stroke-linecap:round;stroke-linejoin:round;stroke-miterlimit:4;stroke-dasharray:none;stroke-dashoffset:0;stroke-opacity:1"
       d="M 272.53201,361.58648 C 262.55461,356.64542 251.11291,368.94167 267.07911,362.70683 C 269.58412,361.74406 278.16151,365.68186 272.53201,361.58648 z"
       id="path2871" />
    <path
       style="fill:#000000;fill-opacity:1;fill-rule:nonzero;stroke:none;stroke-width:0.5;stroke-linecap:round;stroke-linejoin:round;stroke-miterlimit:4;stroke-dasharray:none;stroke-dashoffset:0;stroke-opacity:1"
       d="M 298.99984,392.29551 C 292.15021,404.12873 259.19938,396.55773 262.37195,406.52264 C 271.58622,398.68115 300.39278,405.91237 298.99984,392.29551 z"
       id="path2875" />
    <path
       style="fill:#000000;fill-opacity:1;fill-rule:nonzero;stroke:none;stroke-width:0.5;stroke-linecap:round;stroke-linejoin:round;stroke-miterlimit:4;stroke-dasharray:none;stroke-dashoffset:0;stroke-opacity:1"
       d="M 301.29177,377.47145 C 307.21323,383.29264 315.08029,403.83098 308.69292,383.93075 C 306.38325,381.53339 304.56732,378.61357 301.29177,377.47145 z"
       id="path2879" />
    <path
       style="fill:#000000;fill-opacity:1;fill-rule:nonzero;stroke:none;stroke-width:0.5;stroke-linecap:round;stroke-linejoin:round;stroke-miterlimit:4;stroke-dasharray:none;stroke-dashoffset:0;stroke-opacity:1"
       d="M 359.27746,276.29928 C 361.56147,299.53138 360.01174,321.98226 355.27127,344.7322 C 352.73903,363.80765 345.07029,381.08826 338.3529,398.84278 C 332.23851,417.37831 316.38492,432.60315 299.0465,441.40233 C 288.99011,446.93526 266.21488,462.18264 264.40633,455.0135 C 272.04828,465.68936 295.44964,445.30088 307.48133,440.07049 C 324.01006,429.65827 338.70246,413.73752 343.17168,394.3393 C 351.42038,377.00205 355.92889,358.37559 359.35191,339.47604 C 362.26019,318.99412 366.07529,295.83698 360.00791,276.7469 L 359.27746,276.29928 z"
       id="path2881" />
    <path
       style="fill:#000000;fill-opacity:1;fill-rule:nonzero;stroke:none;stroke-width:0.5;stroke-linecap:round;stroke-linejoin:round;stroke-miterlimit:4;stroke-dasharray:none;stroke-dashoffset:0;stroke-opacity:1"
       d="M 363.43602,281.54035 C 393.80532,275.16476 372.92571,306.25663 371.03886,325.75841 C 373.66212,339.26831 363.65486,358.003 362.46351,353.79165 C 381.93306,350.92024 368.43813,314.17966 381.70268,299.9789 C 394.1996,285.83032 361.68905,273.08463 363.43602,281.54035 z"
       id="path2883" />
    <path
       style="fill:#000000;fill-opacity:1;fill-rule:nonzero;stroke:none;stroke-width:0.5;stroke-linecap:round;stroke-linejoin:round;stroke-miterlimit:4;stroke-dasharray:none;stroke-dashoffset:0;stroke-opacity:1"
       d="M 373.51653,291.29048 C 368.30054,296.66836 357.60633,324.3633 365.18932,323.59824 C 363.7874,312.88136 376.04443,297.83754 373.51653,291.29048 z"
       id="path2885" />
    <path
       style="fill:#000000;fill-opacity:1;fill-rule:nonzero;stroke:none;stroke-width:0.5;stroke-linecap:round;stroke-linejoin:round;stroke-miterlimit:4;stroke-dasharray:none;stroke-dashoffset:0;stroke-opacity:1"
       d="M 349.62787,335.63786 C 340.10349,349.46981 330.94444,372.25927 338.51803,386.99741 C 334.47073,369.30684 348.50026,348.05083 349.62787,335.63786 z"
       id="path2887" />
    <path
       style="fill:#000000;fill-opacity:1;fill-rule:nonzero;stroke:none;stroke-width:0.5;stroke-linecap:round;stroke-linejoin:round;stroke-miterlimit:4;stroke-dasharray:none;stroke-dashoffset:0;stroke-opacity:1"
       d="M 307.79571,193.48828 C 311.35428,214.05755 323.95286,231.86695 335.38262,248.50443 C 349.03617,251.52445 364.01847,288.25442 349.73677,264.14235 C 333.71776,252.2818 323.14141,236.35676 314.0457,218.63435 C 311.03222,211.91077 303.90835,199.67667 307.79571,193.48828 z"
       id="path2897" />
    <path
       style="fill:#000000;fill-opacity:1;fill-rule:nonzero;stroke:none;stroke-width:0.5;stroke-linecap:round;stroke-linejoin:round;stroke-miterlimit:4;stroke-dasharray:none;stroke-dashoffset:0;stroke-opacity:1"
       d="M 332.1676,127.7864 C 350.42834,133.39374 364.4789,153.34927 374.67253,171.24649 C 386.77885,192.22343 394.97771,219.39263 387.35551,244.16602 C 386.51746,253.83791 377.16316,282.25305 382.83639,257.11039 C 390.33686,233.64441 389.82222,208.43247 379.7286,185.93943 C 369.02102,162.95196 353.85477,141.09516 333.29122,129.52838 C 327.69393,131.1683 331.21545,128.93114 332.1676,127.7864 z"
       id="path2899" />
    <path
       style="fill:#000000;fill-opacity:1;fill-rule:nonzero;stroke:none;stroke-width:0.5;stroke-linecap:round;stroke-linejoin:round;stroke-miterlimit:4;stroke-dasharray:none;stroke-dashoffset:0;stroke-opacity:1"
       d="M 307.47225,123.50924 C 288.65687,108.9333 263.42,98.936379 242.64298,114.78824 C 233.03699,120.8522 215.45673,130.7639 235.53528,118.1435 C 253.93592,103.84611 278.27246,99.655928 297.55392,114.29057 C 298.29505,116.9978 312.98874,120.80044 307.47225,123.50924 z"
       id="path2901" />
    <path
       style="fill:#000000;fill-opacity:1;fill-rule:nonzero;stroke:none;stroke-width:0.5;stroke-linecap:round;stroke-linejoin:round;stroke-miterlimit:4;stroke-dasharray:none;stroke-dashoffset:0;stroke-opacity:1"
       d="M 316.08435,123.08529 C 316.94902,111.90458 297.85602,89.679497 314.61208,107.84544 C 315.07643,111.63437 320.99096,121.13078 316.08435,123.08529 z"
       id="path2903" />
    <path
       style="fill:#000000;fill-opacity:1;fill-rule:nonzero;stroke:none;stroke-width:0.5;stroke-linecap:round;stroke-linejoin:round;stroke-miterlimit:4;stroke-dasharray:none;stroke-dashoffset:0;stroke-opacity:1"
       d="M 175.83716,402.83655 C 186.22388,428.99282 188.38369,458.67106 177.76721,485.16237 C 170.21911,500.2349 182.83668,467.61656 182.08861,462.24699 C 187.27024,441.98303 176.61702,420.17489 175.83716,402.83655 z"
       id="path2905" />
    <path
       style="fill:#000000;fill-opacity:1;fill-rule:nonzero;stroke:none;stroke-width:0.5;stroke-linecap:round;stroke-linejoin:round;stroke-miterlimit:4;stroke-dasharray:none;stroke-dashoffset:0;stroke-opacity:1"
       d="M 348.2301,386.6098 C 334.71257,411.37216 340.98391,440.32007 342.17582,467.06722 C 342.88562,475.69343 355.57685,506.05228 344.18174,483.98981 C 337.41929,461.70964 338.23251,437.93167 338.27412,414.91568 C 339.6272,405.30285 341.01196,393.30503 348.2301,386.6098 z"
       id="path2911" />
    <path
       style="fill:#000000;fill-opacity:1;fill-rule:nonzero;stroke:none;stroke-width:0.5;stroke-linecap:round;stroke-linejoin:round;stroke-miterlimit:4;stroke-dasharray:none;stroke-dashoffset:0;stroke-opacity:1"
       d="M 169.25558,484.63531 C 165.28165,485.87532 161.55996,487.9519 158.66406,490.99468 C 155.21884,493.67152 151.64703,497.12769 151.76967,501.83182 C 150.3203,513.17875 157.03314,523.83417 165.65276,530.62914 C 173.35335,536.85062 182.10222,541.80872 191.15841,545.69797 C 213.86593,551.58565 238.1977,553.13607 261.03992,547.03236 C 289.10428,544.83194 317.02803,536.93153 341.02262,522.08988 C 349.97775,517.95169 357.48642,510.17025 360.68665,500.78083 C 362.70376,495.15482 360.18258,488.37134 354.68539,485.76245 C 353.44893,484.2517 349.6718,484.73236 352.08078,486.70681 C 357.78537,490.84901 357.27849,499.21932 355.11188,505.15231 C 352.75162,511.85237 347.25756,517.54269 340.36766,519.57666 C 326.17577,529.2652 309.35707,533.83837 293.11392,538.95504 C 285.60811,540.6051 277.83588,541.1491 270.28606,542.77061 C 254.22038,545.79124 237.91871,548.56514 221.51529,547.11544 C 201.44496,546.7282 181.23086,539.6727 166.46819,525.85209 C 155.50324,518.85335 152.20671,501.77359 160.84772,491.76371 C 163.7125,489.66168 166.82407,487.46508 170.24564,486.49357 C 170.94573,485.72658 170.30572,484.41748 169.25558,484.63531 z"
       id="path2913" />
    <path
       style="fill:#000000;fill-opacity:1;fill-rule:nonzero;stroke:none;stroke-width:0.5;stroke-linecap:round;stroke-linejoin:round;stroke-miterlimit:4;stroke-dasharray:none;stroke-dashoffset:0;stroke-opacity:1"
       d="M 244.87954,492.19597 C 244.04708,502.49004 222.7211,518.98874 239.26474,501.80189 C 242.64842,499.52011 240.87962,493.51434 244.87954,492.19597 z"
       id="path2915" />
    <path
       style="fill:#000000;fill-opacity:1;fill-rule:nonzero;stroke:none;stroke-width:0.5;stroke-linecap:round;stroke-linejoin:round;stroke-miterlimit:4;stroke-dasharray:none;stroke-dashoffset:0;stroke-opacity:1"
       d="M 278.15338,498.38712 C 286.56653,511.07071 272.69907,504.21966 278.15338,498.38712 z"
       id="path2917" />
    <path
       style="fill:#000000;fill-opacity:1;fill-rule:nonzero;stroke:none;stroke-width:0.5;stroke-linecap:round;stroke-linejoin:round;stroke-miterlimit:4;stroke-dasharray:none;stroke-dashoffset:0;stroke-opacity:1"
       d="M 161.28944,482.57904 C 153.57535,483.18836 145.40108,484.34257 138.86849,488.76309 C 134.3605,493.15126 128.61606,496.18644 123.12056,499.22336 C 111.31735,504.96131 98.418149,508.8798 87.846903,516.75816 C 87.964147,519.93126 91.977543,516.18256 93.652611,515.76226 C 102.57924,511.19469 111.69275,506.9885 120.88059,503.13923 C 126.62525,499.71266 132.43166,496.41238 137.93936,492.73854 C 146.69416,487.51077 156.83873,484.57806 167.07746,485.36643 C 169.54378,484.24183 166.48619,482.44541 164.96026,482.63997 C 163.74114,482.52202 162.51221,482.531 161.28944,482.57904 z"
       id="path2919" />
    <path
       style="fill:#000000;fill-opacity:1;fill-rule:nonzero;stroke:none;stroke-width:0.5;stroke-linecap:round;stroke-linejoin:round;stroke-miterlimit:4;stroke-dasharray:none;stroke-dashoffset:0;stroke-opacity:1"
       d="M 356.97944,483.84553 C 377.31081,480.13583 397.45405,486.19395 410.33687,502.45488 C 427.25491,515.70423 447.79042,522.70937 466.71984,532.15299 C 453.88129,530.93257 434.15457,519.07869 420.22448,511.51124 C 402.99683,502.93965 392.59595,481.5338 370.4933,484.7719 C 369.19185,483.16685 350.66967,487.58967 356.97944,483.84553 z"
       id="path2921" />
    <path
       style="fill:#000000;fill-opacity:1;fill-rule:nonzero;stroke:none;stroke-width:0.5;stroke-linecap:round;stroke-linejoin:round;stroke-miterlimit:4;stroke-dasharray:none;stroke-dashoffset:0;stroke-opacity:1"
       d="M 76.373125,516.78927 C 74.001208,517.09745 70.979715,516.8481 69.19903,518.678 C 68.924052,521.26396 72.590249,520.25484 74.132524,520.29937 C 76.761753,519.89814 79.644546,520.0797 82.069752,518.99786 C 82.367507,516.44854 78.019558,516.94379 76.373125,516.78927 z"
       id="path2923" />
    <path
       style="fill:#000000;fill-opacity:1;fill-rule:nonzero;stroke:none;stroke-width:0.5;stroke-linecap:round;stroke-linejoin:round;stroke-miterlimit:4;stroke-dasharray:none;stroke-dashoffset:0;stroke-opacity:1"
       d="M 247.2488,459.06766 C 256.75613,460.44591 280.57342,453.27638 258.70332,460.05554 C 257.05331,459.9568 241.82791,462.17323 247.2488,459.06766 z"
       id="path2925" />
    <path
       style="fill:#000000;fill-opacity:1;fill-rule:nonzero;stroke:none;stroke-width:0.5;stroke-linecap:round;stroke-linejoin:round;stroke-miterlimit:4;stroke-dasharray:none;stroke-dashoffset:0;stroke-opacity:1"
       d="M 244.86515,415.59074 C 249.00931,415.95212 252.5768,418.52045 256.72872,418.92507 C 260.40852,419.44555 264.32768,419.46203 267.7606,417.86685 C 268.82696,418.09752 265.53055,419.7604 264.54819,419.8521 C 258.66205,421.44824 252.47207,419.96675 247.00039,417.62797 C 245.89317,416.72747 241.63511,417.51162 244.86515,415.59074 z"
       id="path2988" />
    <path
       style="fill:#000000;fill-opacity:1;fill-rule:nonzero;stroke:none;stroke-width:0.5;stroke-linecap:round;stroke-linejoin:round;stroke-miterlimit:4;stroke-dasharray:none;stroke-dashoffset:0;stroke-opacity:1"
       d="M 253.9108,396.19264 C 256.83693,397.61166 260.40933,398.85585 263.51307,397.2215 C 262.93731,397.80881 262.50791,397.8437 263.49154,397.27227 C 262.5205,397.9478 264.82784,395.56798 265.29981,395.09388 C 267.49261,393.686 263.88233,396.27716 265.64269,395.0233 C 263.82183,396.87178 261.38824,398.25681 258.71548,397.8726 C 256.98026,397.83473 254.96119,397.34471 253.42616,397.47402 C 255.02353,396.24233 256.92221,399.60544 259.14323,398.28993 C 260.25018,397.76779 261.60636,397.33527 259.851,398.4101 C 258.95379,398.94068 255.24626,399.70779 255.75368,398.27902 C 257.16833,397.72184 260.62362,397.1035 261.08618,397.81377 C 259.10687,399.54125 255.71509,400.61099 253.50924,398.71641 C 251.93022,395.21029 257.67461,396.30247 259.63812,396.60092 C 261.01296,396.63451 263.88677,396.36614 263.30921,396.38352 C 264.01177,395.67654 266.53949,394.08322 265.33182,394.79975 C 267.91667,393.81782 264.16869,397.52832 263.0365,397.96552 C 262.25378,398.5656 264.51848,396.91882 263.0919,397.94474 C 259.98034,400.21509 255.81128,399.19131 252.70658,397.49669 C 252.32142,396.80802 253.65773,396.65083 253.9108,396.19264 z"
       id="path2990" />
    <path
       style="fill:#000000;fill-opacity:1;fill-rule:nonzero;stroke:none;stroke-width:0.5;stroke-linecap:round;stroke-linejoin:round;stroke-miterlimit:4;stroke-dasharray:none;stroke-dashoffset:0;stroke-opacity:1"
       id="path2992"
       d="M 254.14595,363.01665 C 254.73068,363.21366 255.3249,363.37522 255.91046,363.57357 C 256.53124,363.79333 257.17256,363.93756 257.82279,364.03425 C 258.33453,364.08706 258.85265,364.16215 259.36722,364.11776 C 259.75855,364.07937 260.12343,363.92154 260.48022,363.76653 C 260.77398,363.52426 261.14891,363.45884 261.48723,363.31157 C 261.65934,363.25267 261.82034,363.16137 261.97713,363.06985 C 262.01899,363.04542 262.13776,362.96128 262.09799,362.989 C 260.59395,364.03733 260.02353,364.24041 260.64063,364.01611 C 260.71673,364.1604 260.33898,364.15558 260.24574,364.1902 C 259.94398,364.32843 259.64931,364.45992 259.32263,364.53832 C 258.9733,364.68024 258.61132,364.77489 258.25767,364.90415 C 257.85983,365.04093 257.441,365.08864 257.02436,365.12634 C 256.59804,365.16082 256.17212,365.07397 255.74815,365.03222 C 255.45751,364.92086 255.08119,364.95539 254.82398,364.76617 C 254.32158,363.65821 256.38416,363.46359 257.1436,363.44683 C 257.57037,363.45084 257.98978,363.44707 258.41083,363.37673 C 258.79578,363.34558 259.11888,363.13455 259.46741,362.99305 C 259.81729,362.87165 260.15164,362.71078 260.48697,362.55404 C 260.83361,362.43929 261.11556,362.20351 261.44122,362.04642 C 261.82571,361.8854 262.24168,361.83796 262.65283,361.79842 C 262.95797,361.77141 263.26092,361.75186 263.56596,361.78074 L 262.07578,363.03791 C 261.77771,363.03055 261.48066,363.04886 261.18412,363.08061 C 260.78464,363.12923 260.38154,363.19094 260.02166,363.38284 C 259.70783,363.56209 259.40212,363.75645 259.06167,363.88432 C 258.72682,364.04367 258.38201,364.18161 258.03741,364.31827 C 257.687,364.47697 257.33726,364.63426 256.9472,364.66472 C 256.5212,364.72075 256.09354,364.70733 255.6647,364.71725 C 255.48901,364.72344 255.31216,364.72681 255.13755,364.74948 C 255.09112,364.75552 254.96307,364.80277 254.99904,364.77281 C 256.42491,363.58498 256.86388,364.10751 256.37185,363.58075 C 256.65416,363.67571 256.95219,363.7241 257.24352,363.78121 C 257.6586,363.82531 258.07624,363.9007 258.49403,363.84524 C 258.9023,363.79939 259.30993,363.73648 259.69528,363.58718 C 260.05058,363.45946 260.41571,363.36138 260.77092,363.2331 C 261.088,363.1357 261.37562,362.97268 261.69586,362.88701 C 261.95602,362.84535 262.20836,362.78054 262.34246,363.06483 C 262.32372,363.73315 260.7878,364.30708 260.05346,364.63271 C 259.70417,364.75782 259.37013,364.90236 259.04998,365.0915 C 258.68087,365.24633 258.29405,365.37252 257.89131,365.39166 C 257.36594,365.4021 256.84097,365.34802 256.32083,365.27734 C 255.66346,365.16985 255.01603,365.01426 254.38755,364.79091 C 253.80232,364.59459 253.20697,364.43523 252.62346,364.2345 L 254.14595,363.01665 z" />
    <path
       style="fill:#000000;fill-opacity:1;fill-rule:nonzero;stroke:none;stroke-width:0.5;stroke-linecap:round;stroke-linejoin:round;stroke-miterlimit:4;stroke-dasharray:none;stroke-dashoffset:0;stroke-opacity:1"
       id="path2994"
       d="M 236.1116,363.81725 C 236.70975,364.10678 237.29933,364.41706 237.86625,364.76429 C 238.34889,365.04676 238.84668,365.3115 239.36063,365.5332 C 239.85239,365.73386 240.3325,365.95086 240.84464,366.09803 C 241.32193,366.22751 241.81503,366.26904 242.30564,366.31241 C 242.50703,366.29122 242.4166,366.31971 242.57992,366.23704 L 241.13536,367.54639 C 240.92895,367.57646 241.03674,367.56888 240.81172,367.56514 C 240.31145,367.51861 239.80995,367.46279 239.32602,367.3207 C 238.81141,367.16149 238.32431,366.94035 237.82663,366.73652 C 237.30989,366.502 236.8029,366.24083 236.31697,365.94786 C 235.73973,365.6018 235.13858,365.30096 234.54708,364.98061 L 236.1116,363.81725 z" />
    <path
       style="fill:#000000;fill-opacity:1;fill-rule:nonzero;stroke:none;stroke-width:0.5;stroke-linecap:round;stroke-linejoin:round;stroke-miterlimit:4;stroke-dasharray:none;stroke-dashoffset:0;stroke-opacity:1"
       id="path2996"
       d="M 280.68067,364.52589 C 280.2626,364.73822 279.81594,364.88281 279.38184,365.05841 C 278.94534,365.23092 278.48171,365.30184 278.0181,365.35313 C 277.68798,365.41859 277.31851,365.40041 277.00134,365.5156 C 276.93555,365.5308 276.85256,365.51275 276.79523,365.52764 C 276.78192,365.53111 276.79289,365.56481 276.77916,365.56566 C 276.7574,365.567 276.74304,365.52349 276.72301,365.5321 C 276.70663,365.53914 276.73261,365.56644 276.73741,365.58362 C 276.19148,365.41049 277.65298,364.30769 278.37668,364.22146 C 278.73905,364.17798 279.10645,364.21178 279.46575,364.14868 C 279.57226,364.12846 279.69739,364.10842 279.80248,364.07579 C 279.84833,364.06154 279.95614,363.96069 279.91923,363.99141 C 278.30979,365.3311 279.04422,365.18058 278.27139,365.31942 C 277.95576,365.34154 277.6546,365.39997 277.35576,365.50387 C 277.3299,365.51934 277.25499,365.5695 277.2782,365.55029 C 277.81833,365.1031 278.26469,364.48076 278.92271,364.23844 C 279.11286,364.16842 279.29583,364.13821 279.48447,364.05592 C 279.98418,363.92209 280.4696,363.74819 280.96536,363.60139 L 279.52079,364.91073 C 279.02941,365.06365 278.53881,365.21844 278.04871,365.3749 C 276.79703,365.78132 277.27738,365.49559 278.70652,364.22325 C 278.73084,364.20159 278.76863,364.20364 278.79969,364.19384 C 279.10855,364.10982 279.42175,364.06477 279.7406,364.0378 C 280.65788,364.00287 278.62571,365.54407 277.99969,365.4339 C 277.63843,365.46532 277.27379,365.4543 276.9147,365.51131 C 276.18691,365.66275 276.72169,365.57528 278.11475,364.26196 C 278.13455,364.24328 278.18746,364.32454 278.18833,364.29733 C 278.18896,364.27769 278.16751,364.264 278.15709,364.24734 C 278.22925,364.28387 278.33779,364.23043 278.45322,364.21438 C 278.79708,364.16579 279.13837,364.09656 279.48505,364.06893 C 279.93974,364.00752 280.39069,363.91876 280.81447,363.73603 C 281.24939,363.55905 281.6924,363.40337 282.1217,363.21266 L 280.68067,364.52589 z" />
    <path
       style="fill:#000000;fill-opacity:1;fill-rule:nonzero;stroke:none;stroke-width:0.5;stroke-linecap:round;stroke-linejoin:round;stroke-miterlimit:4;stroke-dasharray:none;stroke-dashoffset:0;stroke-opacity:1"
       d="M 207.55649,288.98484 C 203.48184,307.43221 237.18202,296.87393 216.58072,289.53162 C 197.58998,285.86632 235.29886,297.12167 214.45113,290.23812 C 209.44588,287.85553 223.7833,296.55006 214.18153,293.3114 C 217.84132,289.09636 215.76805,296.99277 212.7759,292.97682 C 228.15422,289.35961 205.07275,298.67485 214.08019,288.76412 C 234.19187,287.91607 208.94394,301.2245 209.69326,289.05564 C 225.44812,278.72643 232.90818,303.52723 212.92829,301.08923 C 206.17143,302.49797 199.66657,291.82682 207.55649,288.98484 z"
       id="path2801" />
    <path
       style="fill:#d45500;fill-rule:evenodd;stroke:none;stroke-width:1px;stroke-linecap:butt;stroke-linejoin:miter;stroke-opacity:1"
       d="M 295.28873,165.19535 C 282.76175,181.37687 266.68474,190.89373 253.32859,200.37503 C 246.88304,204.95063 227.41797,206.46957 230.74381,213.80503 C 249.94616,216.02095 268.77251,205.30629 280.76315,194.25253 C 287.83626,187.73208 302.61203,171.41083 295.28873,165.19535 z M 251.71199,175.81098 C 235.59511,176.09233 216.54837,199.86462 199.00626,208.76879 C 190.5283,214.5969 166.68244,220.17493 171.5717,229.43222 C 194.11209,223.74392 215.14562,217.29393 230.19702,205.41129 C 238.72595,198.67794 258.88159,184.07838 251.71199,175.81098 z M 372.74262,214.34816 C 364.67134,205.89358 332.91247,213.75152 334.56246,216.02691 C 334.56246,216.02691 349.38817,256.9504 364.13662,256.81066 C 367.72152,256.77669 369.95732,250.27374 371.14979,246.76285 C 374.26867,237.58023 379.34404,221.26308 372.74262,214.34816 z"
       id="path3796"
       sodipodi:nodetypes="ccccccccccccccc" />
    <path
       style="opacity:1;fill:#000000;fill-opacity:1;fill-rule:nonzero;stroke:none;stroke-width:0.5;stroke-linecap:round;stroke-linejoin:round;stroke-miterlimit:4;stroke-dasharray:none;stroke-dashoffset:0;stroke-opacity:1"
       d="M 212.38192,268.57672 C 214.258,271.26382 220.62995,274.89781 218.62182,277.90583 C 214.70237,276.7968 214.285,271.45925 210.62682,269.85187 L 211.50437,269.21429 L 212.38192,268.57672 L 212.38192,268.57672 z"
       id="path3887" />
    <path
       style="opacity:1;fill:#000000;fill-opacity:1;fill-rule:nonzero;stroke:none;stroke-width:0.5;stroke-linecap:round;stroke-linejoin:round;stroke-miterlimit:4;stroke-dasharray:none;stroke-dashoffset:0;stroke-opacity:1"
       d="M 223.29175,271.53194 C 225.67829,272.27231 227.80397,280.34456 224.46584,276.90024 C 223.71571,275.22709 219.85541,272.64002 223.29175,271.53194 z"
       id="path3889" />
    <path
       style="opacity:1;fill:#000000;fill-opacity:1;fill-rule:nonzero;stroke:none;stroke-width:0.5;stroke-linecap:round;stroke-linejoin:round;stroke-miterlimit:4;stroke-dasharray:none;stroke-dashoffset:0;stroke-opacity:1"
       d="M 231.9068,272.19243 C 234.92356,273.24568 233.16,279.90999 231.29556,275.36973 C 230.31054,274.26653 230.04814,272.59265 231.9068,272.19243 z"
       id="path3891" />
    <path
       style="opacity:1;fill:#000000;fill-opacity:1;fill-rule:nonzero;stroke:none;stroke-width:0.5;stroke-linecap:round;stroke-linejoin:round;stroke-miterlimit:4;stroke-dasharray:none;stroke-dashoffset:0;stroke-opacity:1"
       id="path3893"
       d="M 236.96881,273.63871 C 237.64267,274.51394 238.17096,275.51375 238.64238,276.51247 C 239.28967,277.54235 239.69267,278.66309 239.96271,279.84168 C 240.1881,281.05711 240.54421,282.23881 240.75859,283.45767 C 240.94067,284.48839 240.9594,285.53744 241.08102,286.57482 L 239.24559,287.73139 C 239.10738,286.69917 239.11156,285.65034 238.92858,284.62277 C 238.72064,283.40554 238.3641,282.22786 238.13853,281.01591 C 237.88029,279.84939 237.48858,278.74164 236.84419,277.72612 C 236.38703,276.74849 235.86957,275.77064 235.2137,274.91388 L 236.96881,273.63871 z" />
    <path
       style="opacity:1;fill:#000000;fill-opacity:1;fill-rule:nonzero;stroke:none;stroke-width:0.5;stroke-linecap:round;stroke-linejoin:round;stroke-miterlimit:4;stroke-dasharray:none;stroke-dashoffset:0;stroke-opacity:1"
       d="M 322.93073,267.54094 C 324.02519,271.59663 322.18938,277.89381 318.65918,279.23296 C 320.92738,275.83116 321.53954,271.89631 321.80473,268.19853 L 322.28216,267.87002 L 322.93073,267.54094 L 322.93073,267.54094 z"
       id="path3899" />
    <path
       style="opacity:1;fill:#000000;fill-opacity:1;fill-rule:nonzero;stroke:none;stroke-width:0.5;stroke-linecap:round;stroke-linejoin:round;stroke-miterlimit:4;stroke-dasharray:none;stroke-dashoffset:0;stroke-opacity:1"
       d="M 329.23292,270.83736 C 332.77272,274.58695 325.38947,281.60902 325.58676,280.00658 C 330.16818,278.22103 325.67555,272.6535 329.23292,270.83736 z"
       id="path3901" />
    <path
       style="opacity:1;fill:#000000;fill-opacity:1;fill-rule:nonzero;stroke:none;stroke-width:0.5;stroke-linecap:round;stroke-linejoin:round;stroke-miterlimit:4;stroke-dasharray:none;stroke-dashoffset:0;stroke-opacity:1"
       d="M 334.88885,272.28364 C 337.98472,275.24895 334.67126,283.62474 332.71331,283.03671 C 334.67134,281.63623 330.5763,284.79318 333.37967,282.2475 C 335.51908,279.19761 331.09005,274.54887 334.88885,272.28364 z"
       id="path3903" />
    <path
       style="opacity:1;fill:#000000;fill-opacity:1;fill-rule:nonzero;stroke:none;stroke-width:0.5;stroke-linecap:round;stroke-linejoin:round;stroke-miterlimit:4;stroke-dasharray:none;stroke-dashoffset:0;stroke-opacity:1"
       d="M 340.23767,274.49534 C 340.56734,279.05442 338.28265,286.08932 332.95205,286.04664 C 333.40087,284.60378 337.72171,284.14115 334.55935,285.81935 C 338.94844,283.51743 336.41356,277.08603 340.23767,274.49534 z"
       id="path3905" />
    <path
       style="opacity:1;fill:#000000;fill-opacity:1;fill-rule:nonzero;stroke:none;stroke-width:0.5;stroke-linecap:round;stroke-linejoin:round;stroke-miterlimit:4;stroke-dasharray:none;stroke-dashoffset:0;stroke-opacity:1"
       id="path3907"
       d="M 260.11934,356.54535 C 261.14187,356.4815 262.1929,356.32065 263.18459,356.05104 C 263.36803,355.99886 263.55146,355.94669 263.73488,355.89451 L 262.12431,357.34794 C 261.93969,357.39881 261.75509,357.44968 261.57048,357.50053 C 260.5583,357.73969 259.50972,357.92823 258.46969,357.95428 L 260.11934,356.54535 z" />
    <path
       style="opacity:1;fill:#000000;fill-opacity:1;fill-rule:nonzero;stroke:none;stroke-width:0.5;stroke-linecap:round;stroke-linejoin:round;stroke-miterlimit:4;stroke-dasharray:none;stroke-dashoffset:0;stroke-opacity:1"
       d="M 267.77693,352.60649 C 267.13827,353.20518 266.35587,353.61184 265.654,354.12712 C 265.51854,354.2209 265.02084,354.56836 265.39223,354.31146 C 265.80359,354.0277 266.21382,353.74232 266.62608,353.45988 C 265.32657,354.39058 264.02734,355.38763 262.48756,355.8863 C 261.44529,356.20737 260.3473,356.24476 259.26978,356.35146 C 259.12136,356.26116 259.567,356.0681 259.64097,355.93937 C 260.02701,355.60439 260.41306,355.26942 260.79911,354.93444 C 262.2295,354.79982 263.73605,354.73558 265.01747,354.01283 C 265.33312,353.83912 265.63962,353.64843 265.96361,353.49012 C 265.41102,353.9358 264.81826,354.32802 264.22367,354.71465 C 265.08589,354.07703 265.98101,353.48594 266.86244,352.87563 C 266.41621,353.20516 265.96864,353.53312 265.51045,353.84593 C 265.94697,353.46967 266.50402,353.28229 267.00061,353.00205 C 267.25938,352.8702 267.51816,352.73834 267.77693,352.60649 z"
       id="path3909" />
    <path
       style="opacity:1;fill:#000000;fill-opacity:1;fill-rule:nonzero;stroke:none;stroke-width:0.5;stroke-linecap:round;stroke-linejoin:round;stroke-miterlimit:4;stroke-dasharray:none;stroke-dashoffset:0;stroke-opacity:1"
       id="path3911"
       d="M 249.28919,353.73586 C 249.87741,353.85729 249.56468,353.79728 250.22801,353.9125 L 248.55377,355.29213 C 247.88415,355.16981 248.19998,355.23375 247.60553,355.10396 L 249.28919,353.73586 z" />
    <path
       style="opacity:1;fill:#000000;fill-opacity:1;fill-rule:nonzero;stroke:none;stroke-width:0.5;stroke-linecap:round;stroke-linejoin:round;stroke-miterlimit:4;stroke-dasharray:none;stroke-dashoffset:0;stroke-opacity:1"
       d="M 336.76262,251.94441 C 338.34623,256.73142 341.06061,262.61323 341.3223,266.95326 C 337.38007,266.18908 337.9181,259.61219 336.43182,256.47509 C 335.75643,255.03599 334.35338,252.57209 336.76262,251.94441 z"
       id="path3913" />
    <path
       style="opacity:1;fill:#000000;fill-opacity:1;fill-rule:nonzero;stroke:none;stroke-width:0.5;stroke-linecap:round;stroke-linejoin:round;stroke-miterlimit:4;stroke-dasharray:none;stroke-dashoffset:0;stroke-opacity:1"
       id="path3915"
       d="M 250.0306,420.74893 C 251.62456,420.08612 253.22139,419.40416 254.79284,418.68196 C 256.87994,417.85768 259.07782,417.39384 261.28792,417.05181 C 262.53674,416.8935 261.90628,416.91893 263.17944,416.97965 L 261.52499,418.38294 C 260.27573,418.35755 260.89722,418.32292 259.6605,418.48637 C 257.46153,418.83947 255.27296,419.31126 253.20504,420.16024 C 251.62882,420.87532 250.03669,421.56548 248.43574,422.2196 L 250.0306,420.74893 z" />
    <path
       style="opacity:1;fill:#000000;fill-opacity:1;fill-rule:nonzero;stroke:none;stroke-width:0.5;stroke-linecap:round;stroke-linejoin:round;stroke-miterlimit:4;stroke-dasharray:none;stroke-dashoffset:0;stroke-opacity:1"
       d="M 281.09051,455.61601 C 288.4903,453.37237 295.23323,449.51038 302.19125,446.22353 C 302.50425,446.0705 307.53111,442.41802 310.58328,440.76834 C 316.2614,437.45781 322.24172,434.67348 327.75575,431.08173 C 331.19179,427.86191 334.36412,424.43357 337.09129,420.58947 C 340.63008,418.89301 334.15304,425.57307 332.72206,427.09639 C 324.03854,436.08328 311.50404,439.44497 301.7347,446.94601 C 295.20393,450.55492 288.42618,453.82829 281.43642,456.4714 C 279.00405,457.27445 278.88859,457.35305 281.09051,455.61601 z"
       id="path3917" />
    <path
       style="opacity:1;fill:#000000;fill-opacity:1;fill-rule:nonzero;stroke:none;stroke-width:0.5;stroke-linecap:round;stroke-linejoin:round;stroke-miterlimit:4;stroke-dasharray:none;stroke-dashoffset:0;stroke-opacity:1"
       d="M 289.78523,453.52969 C 297.73178,454.68368 305.09071,450.30864 311.94827,446.9451 C 316.4321,444.40488 320.35577,442.09892 322.83272,440.369 C 326.85625,437.85628 331.41765,431.27001 334.24807,430.30042 C 329.20506,436.21881 323.11755,441.13247 316.34349,444.94309 C 308.43602,449.72058 299.96319,454.61691 290.54804,455.24069 C 288.68139,455.49371 287.72937,454.51475 289.78523,453.52969 z"
       id="path3919" />
    <path
       style="opacity:1;fill:#000000;fill-opacity:1;fill-rule:nonzero;stroke:none;stroke-width:0.5;stroke-linecap:round;stroke-linejoin:round;stroke-miterlimit:4;stroke-dasharray:none;stroke-dashoffset:0;stroke-opacity:1"
       d="M 327.35418,441.07047 C 329.68709,440.72221 334.07782,438.22499 329.70018,441.08726 C 329.09737,441.65091 323.81495,443.66559 327.35418,441.07047 z"
       id="path3921" />
    <path
       style="opacity:1;fill:#000000;fill-opacity:1;fill-rule:nonzero;stroke:none;stroke-width:0.5;stroke-linecap:round;stroke-linejoin:round;stroke-miterlimit:4;stroke-dasharray:none;stroke-dashoffset:0;stroke-opacity:1"
       d="M 332.40017,446.05237 C 334.83998,444.59442 336.25081,444.30863 333.02039,446.32851 C 331.89676,447.23306 330.75857,447.35457 332.40017,446.05237 z"
       id="path3923" />
    <path
       style="opacity:1;fill:#000000;fill-opacity:1;fill-rule:nonzero;stroke:none;stroke-width:0.5;stroke-linecap:round;stroke-linejoin:round;stroke-miterlimit:4;stroke-dasharray:none;stroke-dashoffset:0;stroke-opacity:1"
       d="M 242.33787,274.6614 C 243.33982,276.01524 244.05823,277.55452 244.77968,279.06736 C 245.44507,280.8744 245.73735,282.78945 246.15519,284.66164 C 246.1591,285.66901 246.68226,289.69735 246.22124,290.60297 C 245.72882,290.85999 245.08542,291.62699 244.61087,291.40672 C 244.44771,290.45692 244.50227,286.56812 244.28609,285.61336 C 243.97543,284.03005 243.61148,282.45502 243.20684,280.89381 C 242.66392,279.38616 241.84753,277.98806 241.06787,276.59714 C 240.13499,275.91856 241.33,275.42693 241.85796,275.01008 C 242.01793,274.89385 242.1779,274.77762 242.33787,274.6614 z"
       id="path3961"
       sodipodi:nodetypes="cccccccccc" />
    <path
       style="fill:#f4e3d7;fill-rule:evenodd;stroke:none;stroke-width:1px;stroke-linecap:butt;stroke-linejoin:miter;stroke-opacity:1"
       d="M 191.12879,292.80034 L 212.34939,288.19829 C 212.34939,288.19829 222.06485,287.94262 224.11021,288.45396 C 226.15557,288.96529 232.54731,293.31168 232.54731,293.31168 C 232.54731,293.31168 233.31432,297.91374 232.29165,297.91374 C 231.26896,297.91374 205.19064,301.49312 203.65662,300.98178 C 202.1226,300.47044 192.40715,295.86838 192.40715,295.86838 L 191.12879,292.80034 z"
       id="path4025" />
    <path
       style="fill:#000000;fill-opacity:1;fill-rule:nonzero;stroke:none;stroke-width:0.5;stroke-linecap:round;stroke-linejoin:round;stroke-miterlimit:4;stroke-dasharray:none;stroke-dashoffset:0;stroke-opacity:1"
       d="M 187.00422,293.39679 C 199.39044,288.43221 230.78558,282.31702 232.97771,294.85781 C 219.0202,284.45254 195.75535,292.55258 187.00422,293.39679 z"
       id="path2797" />
    <path
       style="fill:#000000;fill-opacity:1;fill-rule:nonzero;stroke:none;stroke-width:0.5;stroke-linecap:round;stroke-linejoin:round;stroke-miterlimit:4;stroke-dasharray:none;stroke-dashoffset:0;stroke-opacity:1"
       d="M 190.17085,294.32171 C 201.3653,307.28881 229.7633,293.63824 229.48373,297.7408 C 238.27382,293.84959 209.33716,313.40253 197.2671,301.85537 C 195.44519,299.70479 183.14892,297.21826 190.17085,294.32171 z"
       id="path2799" />
    <path
       transform="matrix(0.7231436,0,0,0.9039295,9.3475193,-72.976865)"
       d="M 298.04551,406.06659 A 12.374369,7.0710678 0 1 1 273.29677,406.06659 A 12.374369,7.0710678 0 1 1 298.04551,406.06659 z"
       sodipodi:ry="7.0710678"
       sodipodi:rx="12.374369"
       sodipodi:cy="406.06659"
       sodipodi:cx="285.67114"
       id="path3792"
       style="fill:#cdde87;fill-opacity:1;fill-rule:nonzero;stroke:none;stroke-width:0.5;stroke-linecap:round;stroke-linejoin:round;stroke-miterlimit:4;stroke-dasharray:none;stroke-dashoffset:0;stroke-opacity:1"
       sodipodi:type="arc" />
    <path
       id="path3790"
       d="M 207.55649,288.98484 C 203.48184,307.43221 237.18202,296.87393 216.58072,289.53162 C 197.58998,285.86632 235.29886,297.12167 214.45113,290.23812 C 209.44588,287.85553 223.7833,296.55006 214.18153,293.3114 C 217.84132,289.09636 215.76805,296.99277 212.7759,292.97682 C 228.15422,289.35961 205.07275,298.67485 214.08019,288.76412 C 234.19187,287.91607 208.94394,301.2245 209.69326,289.05564 C 225.44812,278.72643 232.90818,303.52723 212.92829,301.08923 C 206.17143,302.49797 199.66657,291.82682 207.55649,288.98484 z"
       style="fill:#000000;fill-opacity:1;fill-rule:nonzero;stroke:none;stroke-width:0.5;stroke-linecap:round;stroke-linejoin:round;stroke-miterlimit:4;stroke-dasharray:none;stroke-dashoffset:0;stroke-opacity:1" />
    <path
       id="path4027"
       d="M 326.65427,291.26632 L 305.43367,286.66427 C 305.43367,286.66427 295.71822,286.4086 293.67285,286.91994 C 291.62749,287.43128 285.23575,291.77767 285.23575,291.77767 C 285.23575,291.77767 284.46874,296.37972 285.49142,296.37972 C 286.5141,296.37972 312.59242,299.9591 314.12644,299.44776 C 315.66046,298.93643 325.37592,294.33436 325.37592,294.33436 L 326.65427,291.26632 z"
       style="fill:#f4e3d7;fill-rule:evenodd;stroke:none;stroke-width:1px;stroke-linecap:butt;stroke-linejoin:miter;stroke-opacity:1" />
    <path
       sodipodi:type="arc"
       style="fill:#cdde87;fill-opacity:1;fill-rule:nonzero;stroke:none;stroke-width:0.5;stroke-linecap:round;stroke-linejoin:round;stroke-miterlimit:4;stroke-dasharray:none;stroke-dashoffset:0;stroke-opacity:1"
       id="path3788"
       sodipodi:cx="285.67114"
       sodipodi:cy="406.06659"
       sodipodi:rx="12.374369"
       sodipodi:ry="7.0710678"
       d="M 298.04551,406.06659 A 12.374369,7.0710678 0 1 1 273.29677,406.06659 A 12.374369,7.0710678 0 1 1 298.04551,406.06659 z"
       transform="matrix(0.7231436,0,0,0.9039295,96.019605,-73.999542)" />
    <path
       style="fill:#000000;fill-opacity:1;fill-rule:nonzero;stroke:none;stroke-width:0.5;stroke-linecap:round;stroke-linejoin:round;stroke-miterlimit:4;stroke-dasharray:none;stroke-dashoffset:0;stroke-opacity:1"
       d="M 329.72555,292.13264 C 317.33932,287.16793 285.94424,281.0529 283.75205,293.59362 C 297.70959,283.18839 320.97441,291.28838 329.72555,292.13264 z"
       id="path2857" />
    <path
       style="fill:#000000;fill-opacity:1;fill-rule:nonzero;stroke:none;stroke-width:0.5;stroke-linecap:round;stroke-linejoin:round;stroke-miterlimit:4;stroke-dasharray:none;stroke-dashoffset:0;stroke-opacity:1"
       d="M 326.55892,293.05755 C 315.36446,306.02458 286.96637,292.37411 287.24604,296.47665 C 278.45592,292.58534 307.39262,312.1384 319.46267,300.5912 C 321.28457,298.4407 333.58086,295.95404 326.55892,293.05755 z"
       id="path2859" />
    <path
       style="fill:#000000;fill-opacity:1;fill-rule:nonzero;stroke:none;stroke-width:0.5;stroke-linecap:round;stroke-linejoin:round;stroke-miterlimit:4;stroke-dasharray:none;stroke-dashoffset:0;stroke-opacity:1"
       d="M 311.47431,288.74332 C 315.54904,307.19073 281.84873,296.63242 302.45008,289.29015 C 321.44079,285.62486 283.73191,296.88015 304.57968,289.99665 C 309.58492,287.61401 295.24749,296.30862 304.84926,293.06988 C 301.18949,288.85495 303.26275,296.75124 306.2549,292.7353 C 290.87657,289.11822 313.95807,298.43328 304.95061,288.52262 C 284.83893,287.67456 310.08686,300.98299 309.33753,288.81416 C 293.5827,278.48492 286.12258,303.28573 306.10251,300.84776 C 312.85937,302.25636 319.36419,291.58544 311.47431,288.74332 z"
       id="path2861" />
  </g>
</svg>
